<svg xmlns="http://www.w3.org/2000/svg" width="750" height="500" style="shape-rendering:geometricPrecision;text-rendering:geometricPrecision;image-rendering:optimizeQuality;fill-rule:evenodd;clip-rule:evenodd"><path style="opacity:1" fill="#fefefe" d="M-.5-.5h750v500H-.5V-.5z"/><path style="opacity:1" fill="#ececec" d="M260.5 192.5v-3c-1.291-.237-2.291.096-3 1-.791 1.809-.791 3.809 0 6h-1c-1.354-1.667-3.02-3-5-4a4.933 4.933 0 0 0-2.5 1c-.765 1.566-.598 2.899.5 4 1.4.6 2.4 1.6 3 3h-3v3a168.167 168.167 0 0 1-8-1.5 12.93 12.93 0 0 1 5-.5v-5a9.86 9.86 0 0 1-6-1 168.522 168.522 0 0 0 6-2c.116-3.41-1.55-4.744-5-4v3c-.992-.172-1.658.162-2 1-3.45-.744-5.116.59-5 4 1.869.665 3.869 1.331 6 2a21.127 21.127 0 0 1-9 1c.215-1.679-.452-2.679-2-3a5.727 5.727 0 0 1-3-1c.172-.992-.162-1.658-1-2a5.727 5.727 0 0 0-1-3c2.057-2.356 4.724-3.356 8-3v-4l15 4c.575-3.973 2.742-4.973 6.5-3a10.258 10.258 0 0 0 1.5 4 15.418 15.418 0 0 1 7-1c.271 1.88-.396 3.213-2 4z"/><path style="opacity:1" fill="#525257" d="M175.5 187.5c-1.006.438-1.006 1.104 0 2-3.333-1.333-6.667-1.333-10 0 .963-.863.963-1.53 0-2a5.576 5.576 0 0 1-3 1c1.556-2.488 3.889-3.488 7-3l5 .5c.556.383.889.883 1 1.5z"/><path style="opacity:1" fill="#c0bfbf" d="M215.5 186.5v1h-5c-2.203.104-4.203.77-6 2v-4c3.654.442 7.321.776 11 1z"/><path style="opacity:1" fill="#81827f" d="M177.5 187.5c2.667.667 4.333 2.333 5 5h-1l-4-5z"/><path style="opacity:1" fill="#81817f" d="M210.5 187.5h7c1.419.951 3.085 1.284 5 1v3a40.944 40.944 0 0 0-12-4z"/><path style="opacity:1" fill="#e3e4e2" d="M224.5 189.5c.278-1.846-.389-3.18-2-4-1.35 1.45-3.016 2.117-5 2h-2v-1c3.184-1.143 6.517-1.809 10-2 .284 1.915-.049 3.581-1 5z"/><path style="opacity:1" fill="#9e9e9e" d="M234.5 186.5h4v3h-4v-3z"/><path style="opacity:1" fill="#a7a7a7" d="M249.5 186.5h4v4h-4v-4z"/><path style="opacity:1" fill="#ababa8" d="M177.5 187.5h-2c-.111-.617-.444-1.117-1-1.5l-5-.5c-3.111-.488-5.444.512-7 3-.667 0-1 .333-1 1h-1c.359-1.871 1.359-3.371 3-4.5 4-.667 8-.667 12 0 .881.708 1.547 1.542 2 2.5z"/><path style="opacity:1" fill="#d3d4d3" d="M152.5 186.5v3h7c-1.719.522-3.052 1.522-4 3a100.71 100.71 0 0 1-8-3c-.934-1.068-1.268-2.401-1-4 2.121-.175 4.121.159 6 1z"/><path style="opacity:1" fill="#949494" d="M147.5 189.5v-3h3v3h-3z"/><path style="opacity:1" fill="#a0a8b4" d="M175.5 189.5v1a50.464 50.464 0 0 0-10 .5 31.447 31.447 0 0 1-5 4.5c.919-2.589 2.586-4.589 5-6 3.333-1.333 6.667-1.333 10 0z"/><path style="opacity:1" fill="#282d34" d="M175.5 187.5h2l4 5c.172.992-.162 1.658-1 2a6.547 6.547 0 0 0-3-3l-2-1v-1c-1.006-.896-1.006-1.562 0-2z"/><path style="opacity:1" fill="#c7c7c7" d="M204.5 189.5v1c-2.582-.475-4.582.192-6 2-.904-.709-1.237-1.709-1-3h7z"/><path style="opacity:1" fill="#adacad" d="M227.5 189.5h4v4h-4v-4z"/><path style="opacity:1" fill="#b1afae" d="M224.5 189.5c-1.333.667-1.333 1.333 0 2 .61.891.943 1.891 1 3a6.547 6.547 0 0 1-3-3v-3c-1.915.284-3.581-.049-5-1 1.984.117 3.65-.55 5-2 1.611.82 2.278 2.154 2 4z"/><path style="opacity:1" fill="#8f8e8e" d="M159.5 189.5h2a6.547 6.547 0 0 1-3 3l-2 4c.067-1.459-.266-2.792-1-4 .948-1.478 2.281-2.478 4-3z"/><path style="opacity:1" fill="#2f3134" d="M165.5 189.5c-2.414 1.411-4.081 3.411-5 6h-1c-.904-.709-1.237-1.709-1-3a6.547 6.547 0 0 0 3-3c0-.667.333-1 1-1a5.576 5.576 0 0 0 3-1c.963.47.963 1.137 0 2z"/><path style="opacity:1" fill="#3f4247" d="M210.5 187.5a40.944 40.944 0 0 1 12 4 6.547 6.547 0 0 0 3 3c.838.342 1.172 1.008 1 2a31.686 31.686 0 0 0 2 6c-1.679-.215-2.679.452-3 2h-1c1.111-5.025-.556-8.692-5-11h-1c-.473-1.406-1.473-2.073-3-2-1.122-.656-2.455-.989-4-1-1.833.085-3.166.752-4 2-5.86 2.675-7.527 7.008-5 13-.073 1.527.594 2.527 2 3 2.655 3.6 6.322 5.267 11 5-1.4.6-2.4 1.6-3 3-1.879-.841-3.879-1.175-6-1-.333-1-1-1.667-2-2-1-1.667-2.333-3-4-4-.333-1-1-1.667-2-2a45.782 45.782 0 0 1 1-12c.934-1.068 1.268-2.401 1-4 1.599.268 2.932-.066 4-1v-1c1.797-1.23 3.797-1.896 6-2z"/><path style="opacity:1" fill="#7a7d8c" d="M215.5 191.5c-2.235-.295-4.235.039-6 1h-2c.834-1.248 2.167-1.915 4-2 1.545.011 2.878.344 4 1z"/><path style="opacity:1" fill="#a4a3a3" d="M260.5 192.5c-1.679.215-2.679-.452-3-2 .709-.904 1.709-1.237 3-1v3z"/><path style="opacity:1" fill="#b2b2b0" d="M121.5 193.5v1h-5c1.379-2.097 3.045-2.43 5-1z"/><path style="opacity:1" fill="#939492" d="M204.5 190.5c-1.068.934-2.401 1.268-4 1 .268 1.599-.066 2.932-1 4 .237-1.291-.096-2.291-1-3 1.418-1.808 3.418-2.475 6-2z"/><path style="opacity:1" fill="#a7b4c0" d="M209.5 192.5c1.765-.961 3.765-1.295 6-1 1.527-.073 2.527.594 3 2a41.73 41.73 0 0 0-9-1z"/><path style="opacity:1" fill="#aaa" d="M246.5 193.5c-1.915.284-3.581-.049-5-1v-3c3.45-.744 5.116.59 5 4z"/><path style="opacity:1" fill="#eee" d="M152.5 186.5c-1.879-.841-3.879-1.175-6-1-.268 1.599.066 2.932 1 4a100.71 100.71 0 0 0 8 3c.734 1.208 1.067 2.541 1 4a20.69 20.69 0 0 1-5 1v-4h-4v4c2.493-.369 3.16.297 2 2a19.522 19.522 0 0 1-7.5-1c-1.749.248-2.582 1.248-2.5 3a29.23 29.23 0 0 1-9-1c0-2-1-3-3-3-.342-.838-1.008-1.172-2-1-.683-1.676-2.017-2.343-4-2v-1c1.175.219 2.175-.114 3-1-1.211-1.22-1.211-2.387 0-3.5 1.566-.765 2.899-.598 4 .5l4-4c1.446-1.113 3.113-1.28 5-.5.837 1.011 1.17 2.178 1 3.5 2.292-.256 4.459.077 6.5 1a12.93 12.93 0 0 0 .5-5c2.888-.51 5.221.156 7 2z"/><path style="opacity:1" fill="#a6a6a6" d="M139.5 189.5h4v4h-4v-4z"/><path style="opacity:1" fill="#a7a7a6" d="M128.5 189.5c.734 1.208 1.067 2.541 1 4h-4v-4h3z"/><path style="opacity:1" fill="#a8a8a8" d="M132.5 185.5c3.661-.15 4.661 1.35 3 4.5a4.934 4.934 0 0 1-3 .5v-5z"/><path style="opacity:1" fill="#b1b1b0" d="M198.5 192.5c.904.709 1.237 1.709 1 3a45.782 45.782 0 0 0-1 12c-1.337-1.849-2.003-4.016-2-6.5a48.801 48.801 0 0 0 2-8.5z"/><path style="opacity:1" fill="#cecdcc" d="M257.5 190.5c.321 1.548 1.321 2.215 3 2 .709.904 1.709 1.237 3 1a11.445 11.445 0 0 0-5 3h-1c-.791-2.191-.791-4.191 0-6z"/><path style="opacity:1" fill="#979795" d="M121.5 194.5c1.983-.343 3.317.324 4 2-1.653-.16-2.986-.826-4-2z"/><path style="opacity:1" fill="#929aa1" d="M207.5 192.5a31.447 31.447 0 0 1-4.5 5 32.462 32.462 0 0 0-.5 8c-2.527-5.992-.86-10.325 5-13z"/><path style="opacity:1" fill="#4e4f52" d="M158.5 192.5c-.237 1.291.096 2.291 1 3v7c-.517-2.01-1.184-3.343-2-4h-2l1-2 2-4z"/><path style="opacity:1" fill="#dedede" d="M241.5 192.5c1.419.951 3.085 1.284 5 1a168.522 168.522 0 0 1-6 2 9.86 9.86 0 0 0 6 1v5a12.93 12.93 0 0 0-5 .5c2.668.567 5.334 1.067 8 1.5-3.494.835-7.16.835-11 0-.12-1.086-.787-1.753-2-2-.916.043-1.583.376-2 1-4 .667-5.667-1-5-5 1.548.321 2.215 1.321 2 3a21.127 21.127 0 0 0 9-1 168.522 168.522 0 0 1-6-2h5v-4c.342-.838 1.008-1.172 2-1z"/><path style="opacity:1" fill="#c9c9c8" d="M256.5 196.5c-1 1.667-2.333 3-4 4-.6-1.4-1.6-2.4-3-3-1.098-1.101-1.265-2.434-.5-4a4.933 4.933 0 0 1 2.5-1c1.98 1 3.646 2.333 5 4z"/><path style="opacity:1" fill="#3c3e42" d="M116.5 194.5h5c1.014 1.174 2.347 1.84 4 2 .992-.172 1.658.162 2 1a6.547 6.547 0 0 0 3 3c.111.617.444 1.117 1 1.5 2.646.497 5.313.664 8 .5h1v1c-3.512-.555-6.512.112-9 2h-1a12.066 12.066 0 0 0-3-4c-1.411-2.039-3.411-3.039-6-3-.949-.652-2.115-.986-3.5-1-2.008-.193-3.508.474-4.5 2-1 .333-1.667 1-2 2a6.547 6.547 0 0 0-3 3c-1.703 1.16-2.369.493-2-2 2.491-3.835 5.825-6.502 10-8z"/><path style="opacity:1" fill="#a5a5a6" d="M132.5 193.5c3-.333 4.333 1 4 4h-4v-4z"/><path style="opacity:1" fill="#92a1ba" d="M177.5 191.5a6.547 6.547 0 0 1 3 3c1.256 2.441 1.256 4.774 0 7 .241-2.398-.426-4.398-2-6l-1-4z"/><path style="opacity:1" fill="#b0b0b0" d="M239.5 193.5v4h-5c-.116-3.41 1.55-4.744 5-4z"/><path style="opacity:1" fill="#a3a3a3" d="M249.5 197.5v-3h3v3h-3z"/><path style="opacity:1" fill="#3f4145" d="M267.5 197.5a24.935 24.935 0 0 0-7 .5c-.556.383-.889.883-1 1.5h-1c-.06-.543-.393-.876-1-1-1.44 1.452-3.106 2.452-5 3v-1c1.667-1 3-2.333 4-4h2c3.33-1.166 6.663-1.166 10 0-.124.607-.457.94-1 1z"/><path style="opacity:1" fill="#636567" d="M263.5 193.5c3.827.252 7.16 1.585 10 4-2.748-.098-3.414.902-2 3-1.562-.233-2.895-.9-4-2v-1c.543-.06.876-.393 1-1-3.337-1.166-6.67-1.166-10 0a11.445 11.445 0 0 1 5-3z"/><path style="opacity:1" fill="#7c7c7a" d="M127.5 197.5c2 0 3 1 3 3a6.547 6.547 0 0 1-3-3z"/><path style="opacity:1" fill="#bdbcbb" d="m156.5 196.5-1 2c-1.208.734-2.541 1.067-4 1h-2c1.16-1.703.493-2.369-2-2v-4h4v4a20.69 20.69 0 0 0 5-1z"/><path style="opacity:1" fill="#bdceeb" d="M178.5 195.5c1.574 1.602 2.241 3.602 2 6l-1 4c-1.667 1-3 2.333-4 4a36.39 36.39 0 0 1-5.5 1c-2.008.193-3.508-.474-4.5-2a32.462 32.462 0 0 0 8-.5 52.56 52.56 0 0 0-7-1.5 28.741 28.741 0 0 0-2-7c-.068-4.432 2.099-6.765 6.5-7a50.162 50.162 0 0 1 7 4c.399-.228.565-.562.5-1z"/><path style="opacity:1" fill="#9f9f9f" d="M242.5 197.5h3v3h-3v-3z"/><path style="opacity:1" fill="#7c8594" d="M267.5 197.5v1c-2.235-.295-4.235.039-6 1h-2c.111-.617.444-1.117 1-1.5a24.935 24.935 0 0 1 7-.5z"/><path style="opacity:1" fill="#858583" d="M273.5 197.5c2 0 3 1 3 3a6.547 6.547 0 0 1-3-3z"/><path style="opacity:1" fill="#777e8a" d="M121.5 198.5a24.93 24.93 0 0 0-8 1c.992-1.526 2.492-2.193 4.5-2 1.385.014 2.551.348 3.5 1z"/><path style="opacity:1" fill="#8994a2" d="M121.5 198.5c2.589-.039 4.589.961 6 3h-1c-1.868-.763-3.535-1.763-5-3z"/><path style="opacity:1" fill="#9d9d9d" d="M149.5 199.5h2v1h-4c-2.779-.221-5.446.112-8 1-.082-1.752.751-2.752 2.5-3a19.522 19.522 0 0 0 7.5 1z"/><path style="opacity:1" fill="#383936" d="M155.5 198.5c-.683 1.676-2.017 2.343-4 2v-1c1.459.067 2.792-.266 4-1z"/><path style="opacity:1" fill="#050506" d="M155.5 198.5h2a18.453 18.453 0 0 1-.5 6c-2.605-1.314-5.105-1.314-7.5 0a68.563 68.563 0 0 1-13 2.5c-1.323.816-1.989 1.983-2 3.5-1.723-1.105-2.723-2.772-3-5 2.488-1.888 5.488-2.555 9-2 4.025-.13 7.691-1.13 11-3 1.983.343 3.317-.324 4-2z"/><path style="opacity:1" fill="#a9a9a7" d="M182.5 192.5c.958.453 1.792 1.119 2.5 2 .498 3.317.665 6.65.5 10l-2 1c1.554-4.543 1.221-8.877-1-13z"/><path style="opacity:1" fill="#878484" d="M226.5 196.5c.891.61 1.891.943 3 1-.667 4 1 5.667 5 5v1c-2.121.175-4.121-.159-6-1a31.686 31.686 0 0 1-2-6z"/><path style="opacity:1" fill="#d4e2f5" d="M121.5 198.5c1.465 1.237 3.132 2.237 5 3 1.843 3.064 2.343 6.397 1.5 10 .107-3.092-1.059-5.425-3.5-7l-4.5-3c-3.944 1.908-6.777 4.241-8.5 7a4.934 4.934 0 0 1 .5-3c7.446-5.035 7.28-6.369-.5-4 .333-1 1-1.667 2-2a24.93 24.93 0 0 1 8-1z"/><path style="opacity:1" fill="#676767" d="M147.5 200.5a67.898 67.898 0 0 1-7 2h-1v-1c2.554-.888 5.221-1.221 8-1z"/><path style="opacity:1" fill="#b0afae" d="M116.5 194.5c-4.175 1.498-7.509 4.165-10 8l-2 3c.471-4.003 2.471-7.169 6-9.5a10.098 10.098 0 0 1 6-1.5z"/><path style="opacity:1" fill="#908f8f" d="M130.5 200.5a29.23 29.23 0 0 0 9 1v1a32.462 32.462 0 0 1-8-.5c-.556-.383-.889-.883-1-1.5z"/><path style="opacity:1" fill="#232323" d="M147.5 200.5h4c-3.309 1.87-6.975 2.87-11 3v-1a67.898 67.898 0 0 0 7-2z"/><path style="opacity:1" fill="#d8e7f6" d="m175.5 190.5 2 1 1 4c.065.438-.101.772-.5 1a50.162 50.162 0 0 0-7-4c-4.401.235-6.568 2.568-6.5 7a28.741 28.741 0 0 1 2 7 52.56 52.56 0 0 1 7 1.5 32.462 32.462 0 0 1-8 .5l-4-3a34.163 34.163 0 0 1-1-10 31.447 31.447 0 0 0 5-4.5 50.464 50.464 0 0 1 10-.5z"/><path style="opacity:1" fill="#b9cbec" d="M222.5 205.5a11.743 11.743 0 0 1-3 5 5.727 5.727 0 0 0-3 1c-1.449-1.664-3.449-2.498-6-2.5a4.933 4.933 0 0 1-1-2.5c2.037-2.863 4.704-5.03 8-6.5-1.771-.535-2.104-1.369-1-2.5l3 2c.464 2.475 1.464 4.475 3 6z"/><path style="opacity:1" fill="#bdbdbb" d="M252.5 200.5v1c-.667 0-1 .333-1 1l-2 1v-3h3z"/><path style="opacity:1" fill="#2a2c30" d="M258.5 199.5c-2.743 1.739-4.743 4.073-6 7h-1c0-.667-.333-1-1-1a5.727 5.727 0 0 0 1-3c0-.667.333-1 1-1 1.894-.548 3.56-1.548 5-3 .607.124.94.457 1 1z"/><path style="opacity:1" fill="#c5d5f0" d="M220.5 196.5c.958.453 1.792 1.119 2.5 2 .497 2.31.663 4.643.5 7h-1c-1.536-1.525-2.536-3.525-3-6l-3-2c-1.104 1.131-.771 1.965 1 2.5-3.296 1.47-5.963 3.637-8 6.5a4.933 4.933 0 0 0 1 2.5c2.551.002 4.551.836 6 2.5a32.462 32.462 0 0 1-8-.5c-.556-.383-.889-.883-1-1.5-1.127-2.498-1.794-5.164-2-8l1-4c4.852-.887 9.519-1.22 14-1z"/><path style="opacity:1" fill="#8995ab" d="M219.5 193.5c4.444 2.308 6.111 5.975 5 11 0 .667-.333 1-1 1a24.935 24.935 0 0 0-.5-7c-.708-.881-1.542-1.547-2.5-2a5.727 5.727 0 0 1-1-3z"/><path style="opacity:1" fill="#696969" d="M238.5 203.5h-4v-1c.417-.624 1.084-.957 2-1 1.213.247 1.88.914 2 2z"/><path style="opacity:1" fill="#888585" d="M276.5 200.5c1.406.473 2.073 1.473 2 3-1.406-.473-2.073-1.473-2-3z"/><path style="opacity:1" fill="#e7f3fc" d="M111.5 208.5c-.774 3.944-1.441 3.777-2-.5-.018-2.442.649-4.608 2-6.5 7.78-2.369 7.946-1.035.5 4a4.934 4.934 0 0 0-.5 3z"/><path style="opacity:1" fill="#101010" d="M228.5 202.5c1.879.841 3.879 1.175 6 1h4c3.529 1.923 7.529 2.589 12 2 .667 0 1 .333 1 1a12.93 12.93 0 0 1-.5 5c-.671-.752-1.504-1.086-2.5-1a524.92 524.92 0 0 0-14-2 144.653 144.653 0 0 1-9-4c.321-1.548 1.321-2.215 3-2z"/><path style="opacity:1" fill="#1d1d1f" d="M159.5 202.5v2c-1.068.934-2.401 1.268-4 1-1.765-.961-3.765-1.295-6-1 2.395-1.314 4.895-1.314 7.5 0 .495-1.973.662-3.973.5-6 .816.657 1.483 1.99 2 4z"/><path style="opacity:1" fill="#808995" d="M159.5 195.5h1a34.163 34.163 0 0 0 1 10l-2-1v-9z"/><path style="opacity:1" fill="#484e57" d="M181.5 192.5h1c2.221 4.123 2.554 8.457 1 13-.838.342-1.172 1.008-1 2h-1c.369-2.493-.297-3.16-2-2l1-4c1.256-2.226 1.256-4.559 0-7 .838-.342 1.172-1.008 1-2z"/><path style="opacity:1" fill="#626261" d="M251.5 202.5a5.727 5.727 0 0 1-1 3c-4.471.589-8.471-.077-12-2 3.84.835 7.506.835 11 0l2-1z"/><path style="opacity:1" fill="#c8d8ef" d="M267.5 198.5c1.105 1.1 2.438 1.767 4 2 .185 1.696 1.019 3.029 2.5 4 .498 2.982.665 5.982.5 9-1.869-2.135-2.536-4.802-2-8-1.644.214-3.144-.12-4.5-1-1.117 1.449-1.784 3.116-2 5-1.011.837-2.178 1.17-3.5 1v-3h-4c.984 3.312 1.984 6.645 3 10-.124.607-.457.94-1 1a5.727 5.727 0 0 0-3-1 21.614 21.614 0 0 1-4-5c-.302-2.559.032-4.893 1-7 .13 8.465 1.13 8.799 3 1a46.607 46.607 0 0 0 6-5.5c-.916-.278-1.582-.778-2-1.5 1.765-.961 3.765-1.295 6-1z"/><path style="opacity:1" fill="#a4a3a2" d="m155.5 205.5 2 2c-3.987-1.205-7.987-1.205-12 0 .418-.722 1.084-1.222 2-1.5a32.462 32.462 0 0 1 8-.5z"/><path style="opacity:1" fill="#dce9f6" d="M207.5 192.5h2a41.73 41.73 0 0 1 9 1h1a5.727 5.727 0 0 0 1 3c-4.481-.22-9.148.113-14 1l-1 4c.206 2.836.873 5.502 2 8a5.727 5.727 0 0 0-3-1c-1.406-.473-2.073-1.473-2-3a32.462 32.462 0 0 1 .5-8 31.447 31.447 0 0 0 4.5-5z"/><path style="opacity:1" fill="#dcdcdc" d="M157.5 207.5c1.676.683 2.343 2.017 2 4h-2v-3c-4.904-.466-9.904-.466-15 0v-1h3c4.013-1.205 8.013-1.205 12 0z"/><path style="opacity:1" fill="#d4d3d0" d="M185.5 204.5c-.61 1.934-1.61 3.601-3 5v-2c-.172-.992.162-1.658 1-2l2-1z"/><path style="opacity:1" fill="#2e3134" d="M224.5 204.5h1a144.653 144.653 0 0 0 9 4c-3.002-1.143-6.002-1.143-9 0a51.621 51.621 0 0 0-7 7h-1c0-1.333-.667-2-2-2a9.82 9.82 0 0 0 4-3c2.797-.467 4.131-2.133 4-5 .667 0 1-.333 1-1z"/><path style="opacity:1" fill="#e0e0e0" d="M279.5 205.5c2.636-.009 3.969 1.325 4 4-.14 1.53-.807 2.53-2 3 .334-2.688-.332-5.021-2-7z"/><path style="opacity:1" fill="#c8d6ed" d="M111.5 201.5c-1.351 1.892-2.018 4.058-2 6.5.559 4.277 1.226 4.444 2 .5 1.723-2.759 4.556-5.092 8.5-7l4.5 3h-3c.262 1.478-.071 2.811-1 4-1.802 1.486-3.802 2.486-6 3v5c5.129 1.114 5.129 1.781 0 2a5.727 5.727 0 0 0-3-1 9.82 9.82 0 0 1-3-4v-9a6.547 6.547 0 0 1 3-3z"/><path style="opacity:1" fill="#878686" d="M234.5 208.5a524.92 524.92 0 0 1 14 2h-6a41.541 41.541 0 0 1-8 1c-1.513-1.741-3.513-2.741-6-3a71.082 71.082 0 0 1-9 7h-1a51.621 51.621 0 0 1 7-7c2.998-1.143 5.998-1.143 9 0z"/><path style="opacity:1" fill="#787e87" d="M258.5 199.5h1l-5 6c-.968 2.107-1.302 4.441-1 7-.961-1.765-1.295-3.765-1-6 1.257-2.927 3.257-5.261 6-7z"/><path style="opacity:1" fill="#afb0ac" d="M104.5 205.5v8c-2.667-2.667-2.667-5.333 0-8z"/><path style="opacity:1" fill="#48556b" d="M179.5 205.5c-.333 2.333-1.667 3.667-4 4 1-1.667 2.333-3 4-4z"/><path style="opacity:1" fill="#212226" d="M181.5 207.5c-.973 1.639-2.306 2.973-4 4-2.493.369-3.16-.297-2-2 2.333-.333 3.667-1.667 4-4 1.703-1.16 2.369-.493 2 2z"/><path style="opacity:1" fill="#9aabc4" d="M271.5 200.5c4.987 3.671 5.987 8.005 3 13a40.914 40.914 0 0 0-.5-9c-1.481-.971-2.315-2.304-2.5-4z"/><path style="opacity:1" fill="#5b5e62" d="M106.5 202.5c-.369 2.493.297 3.16 2 2v9c-.617-.111-1.117-.444-1.5-1a8.43 8.43 0 0 0-.5 4l-2-3v-8l2-3z"/><path style="opacity:1" fill="#535252" d="M149.5 204.5c2.235-.295 4.235.039 6 1a32.462 32.462 0 0 0-8 .5c-.916.278-1.582.778-2 1.5h-3c-3.288-.484-5.955.516-8 3 .011-1.517.677-2.684 2-3.5a68.563 68.563 0 0 0 13-2.5z"/><path style="opacity:1" fill="#101011" d="M164.5 212.5c-1.547 1.268-2.547 2.935-3 5-3.13 1.799-5.13 4.466-6 8l-4-1c-.992.172-1.658-.162-2-1l1-2h2c2.612-1.552 3.945-3.886 4-7l1-2c.992.172 1.658-.162 2-1a71.254 71.254 0 0 0 2-4c2.578 1.142 3.578 2.809 3 5z"/><path style="opacity:1" fill="#4a5970" d="M222.5 205.5h1c.131 2.867-1.203 4.533-4 5a11.743 11.743 0 0 0 3-5z"/><path style="opacity:1" fill="#bbceee" d="M274.5 213.5c-.919 2.589-2.586 4.589-5 6-3.213.31-6.213-.023-9-1 .543-.06.876-.393 1-1a1986.004 1986.004 0 0 1-3-10h4v3c1.322.17 2.489-.163 3.5-1 .216-1.884.883-3.551 2-5 1.356.88 2.856 1.214 4.5 1-.536 3.198.131 5.865 2 8z"/><path style="opacity:1" fill="#b6b6b6" d="M345.5 209.5c1.275 3.104 1.275 6.104 0 9 .302-2.559-.032-4.893-1-7a441.579 441.579 0 0 0-42-1c-.302 2.559.032 4.893 1 7l14 2h-15c-.979-3.125-1.313-6.458-1-10h44z"/><path style="opacity:1" fill="#4a4c54" d="m159.5 204.5 2 1 4 3c.992 1.526 2.492 2.193 4.5 2a36.39 36.39 0 0 0 5.5-1c-1.16 1.703-.493 2.369 2 2v1h-4c-1.446-1.113-3.113-1.28-5-.5 1.405 1.269 3.071 1.769 5 1.5-1.889 1.242-3.889 1.242-6 0-.709-.904-1.709-1.237-3-1 .578-2.191-.422-3.858-3-5a71.254 71.254 0 0 1-2 4c.343-1.983-.324-3.317-2-4l-2-2c1.599.268 2.932-.066 4-1z"/><path style="opacity:1" fill="#9a9791" d="M181.5 207.5h1v2a11.743 11.743 0 0 1-5 3v-1c1.694-1.027 3.027-2.361 4-4z"/><path style="opacity:1" fill="#b9b8b7" d="M242.5 210.5h6c2.594 2.414 4.261 5.414 5 9-.996.086-1.829-.248-2.5-1-.804-4.975-3.638-7.641-8.5-8z"/><path style="opacity:1" fill="#e3eef9" d="M259.5 199.5h2c.418.722 1.084 1.222 2 1.5a46.607 46.607 0 0 1-6 5.5c-1.87 7.799-2.87 7.465-3-1l5-6z"/><path style="opacity:1" fill="#858681" d="M278.5 205.5h1c1.668 1.979 2.334 4.312 2 7h-2c.423-.765.757-1.598 1-2.5a15.414 15.414 0 0 1-2-4.5z"/><path style="opacity:1" fill="#8c8c8c" d="M344.5 211.5h-41v6c-.968-2.107-1.302-4.441-1-7a441.579 441.579 0 0 1 42 1z"/><path style="opacity:1" fill="#aaa7a5" d="M142.5 207.5v1c-5.232.73-8.399 3.73-9.5 9-1.886 2.742-4.386 4.409-7.5 5v-1c2.249-.58 3.915-1.913 5-4a53.375 53.375 0 0 0 4-7c2.045-2.484 4.712-3.484 8-3z"/><path style="opacity:1" fill="#25262d" d="M173.5 212.5v1c-1.929.269-3.595-.231-5-1.5 1.887-.78 3.554-.613 5 .5z"/><path style="opacity:1" fill="#8595a9" d="M204.5 208.5a5.727 5.727 0 0 1 3 1c.111.617.444 1.117 1 1.5 2.646.497 5.313.664 8 .5a5.727 5.727 0 0 1 3-1 9.82 9.82 0 0 1-4 3c-4.678.267-8.345-1.4-11-5z"/><path style="opacity:1" fill="#fbfbfb" d="M242.5 210.5c4.862.359 7.696 3.025 8.5 8 .671.752 1.504 1.086 2.5 1a17.902 17.902 0 0 0 6 4c2.524 2.739 3.524 6.072 3 10-6.76-1.012-8.76 1.654-6 8-1.676.683-2.343 2.017-2 4 2.888-.51 5.221.156 7 2-4.274 1.194-7.274 3.861-9 8-1.406.473-2.073 1.473-2 3v1c-1.307 1.723-1.307 3.557 0 5.5l-2 .5a279.003 279.003 0 0 0-4.5-3c-2.157.885-2.99 2.552-2.5 5a20.222 20.222 0 0 1-5-1c-1.538-.047-2.538.62-3 2-2.987.078-3.653-1.089-2-3.5-.336-1.03-1.003-1.53-2-1.5-3.012-2.869-2.345-4.202 2-4v-4c-2.858-.472-4.858.528-6 3-1.134-2.597-.468-4.597 2-6h4c.951-1.419 1.284-3.085 1-5-3.682-.775-6.182.559-7.5 4-1.728-.852-1.895-1.852-.5-3a71.254 71.254 0 0 0 2-4c1.816 1.235 3.483 1.235 5 0 .934-1.068 1.268-2.401 1-4a11.988 11.988 0 0 0-6 1 15.265 15.265 0 0 0-3-5.5c.556-.383.889-.883 1-1.5a30.233 30.233 0 0 0 3 3.5c1.566.765 2.899.598 4-.5.934-1.068 1.268-2.401 1-4h-7c-.215-1.679.452-2.679 2-3h4c.727-3.822.727-7.489 0-11-1.723-1.307-3.557-1.307-5.5 0-.781-1.444-.614-2.777.5-4 1.816 1.235 3.483 1.235 5 0 .522-1.719 1.522-3.052 3-4a41.541 41.541 0 0 0 8-1z"/><path style="opacity:1" fill="#717171" d="M344.5 211.5v6a227.717 227.717 0 0 0-15-1.5c-1.333-.667-1.333-1.333 0-2a30.485 30.485 0 0 0-11 0c.457.414.791.914 1 1.5a285.368 285.368 0 0 1-16 2v-6h41z"/><path style="opacity:1" fill="#d8d8d8" d="M476.5 235.5v1h-3c.326-8.849-.007-17.516-1-26h-10c1.371-1.287 3.205-1.953 5.5-2 2.094.036 4.094.369 6 1-.142 9.058.691 17.725 2.5 26z"/><path style="opacity:1" fill="#949491" d="M200.5 209.5c1.667 1 3 2.333 4 4a6.846 6.846 0 0 0-4 1c-.552-1.503-.552-3.169 0-5z"/><path style="opacity:1" fill="#b9ccec" d="M126.5 201.5h1a12.066 12.066 0 0 1 3 4 16.873 16.873 0 0 1-1 8c-1.69 2.019-3.356 4.019-5 6-3.542.313-6.875-.021-10-1 5.129-.219 5.129-.886 0-2v-5c2.198-.514 4.198-1.514 6-3 .929-1.189 1.262-2.522 1-4h3c2.441 1.575 3.607 3.908 3.5 7 .843-3.603.343-6.936-1.5-10z"/><path style="opacity:1" fill="#48505d" d="M130.5 205.5h1c.277 2.228 1.277 3.895 3 5a53.375 53.375 0 0 1-4 7 2.428 2.428 0 0 0-.5-2c-1.451 1.964-3.284 3.297-5.5 4 1.644-1.981 3.31-3.981 5-6a16.873 16.873 0 0 0 1-8z"/><path style="opacity:1" fill="#6d6c6b" d="M164.5 212.5c1.291-.237 2.291.096 3 1h-3v4h-3c.453-2.065 1.453-3.732 3-5z"/><path style="opacity:1" fill="#bab8b5" d="M173.5 212.5h4v1a82.484 82.484 0 0 1-6.5 2c-4.334-2.309-6.167-.976-5.5 4h-5l1-2h3v-4h3c2.111 1.242 4.111 1.242 6 0v-1z"/><path style="opacity:1" fill="#8d8d8d" d="m157.5 212.5-1 2-2 2c-.412-2.473.588-3.806 3-4z"/><path style="opacity:1" fill="#ccc" d="M462.5 210.5h1v54h9a79.411 79.411 0 0 1 3-15c1.983-.343 3.317.324 4 2-2.061-1.182-3.561-.515-4.5 2-.2 4.253-.7 8.42-1.5 12.5-3.923.793-7.756.626-11.5-.5-.829-18.505-.662-36.838.5-55z"/><path style="opacity:1" fill="#010101" d="M216.5 253.5c-.12 1.086-.787 1.753-2 2-1.213-.247-1.88-.914-2-2 .667-12.506 1.333-25.173 2-38 .667 12.827 1.333 25.494 2 38z"/><path style="opacity:1" fill="#888" d="M344.5 211.5c.968 2.107 1.302 4.441 1 7-5.526-.321-10.86.012-16 1a420.766 420.766 0 0 0-1 41c-.667-13.839-1.333-27.839-2-42-1.333 1.333-2.667 1.333-4 0a3.647 3.647 0 0 0-1.5 1 1133.95 1133.95 0 0 1-1.5 44l-2-44-14-2a285.368 285.368 0 0 0 16-2 3.647 3.647 0 0 0-1-1.5 30.485 30.485 0 0 1 11 0c-1.333.667-1.333 1.333 0 2 5.032.336 10.032.836 15 1.5v-6z"/><path style="opacity:1" fill="#8a8a8a" d="M463.5 210.5h9v28h3c-1.919 2.753-3.585 2.586-5-.5a187.432 187.432 0 0 0 1-26.5h-7v52h7c-.315-3.871.018-7.538 1-11v12h-9v-54z"/><path style="opacity:1" fill="#b0b0b0" d="M472.5 210.5c.993 8.484 1.326 17.151 1 26h3l-1 2h-3v-28z"/><path style="opacity:1" fill="#c3c3c1" d="m104.5 213.5 2 3c.838.342 1.172 1.008 1 2-2.584-.548-3.584-2.215-3-5z"/><path style="opacity:1" fill="#3f4147" d="M273.5 197.5a6.547 6.547 0 0 0 3 3c-.073 1.527.594 2.527 2 3v2a15.414 15.414 0 0 0 2 4.5 11.123 11.123 0 0 1-1 2.5l-3 6h-1a2.428 2.428 0 0 0-.5-2l-4.5 4.5c.228.399.562.565 1 .5-.283.789-.783 1.456-1.5 2-.5 7.993-.666 15.993-.5 24h-1v-25a12.93 12.93 0 0 0-5 .5c.556.383.889.883 1 1.5v1h-1c-.787-1.604-2.12-2.271-4-2a17.902 17.902 0 0 1-6-4c-.739-3.586-2.406-6.586-5-9 .996-.086 1.829.248 2.5 1a12.93 12.93 0 0 0 .5-5h1c-.295 2.235.039 4.235 1 6a21.614 21.614 0 0 0 4 5c2.749 3.671 6.416 4.837 11 3.5.556-.383.889-.883 1-1.5 2.414-1.411 4.081-3.411 5-6 2.987-4.995 1.987-9.329-3-13-1.414-2.098-.748-3.098 2-3z"/><path style="opacity:1" fill="#c9c9c7" d="M157.5 211.5h2c-.342.838-1.008 1.172-2 1-2.412.194-3.412 1.527-3 4 .073 1.527-.594 2.527-2 3-3.871-.315-7.538.018-11 1h-2c.111-.617.444-1.117 1-1.5l12-1a20.431 20.431 0 0 0 1.5-5.5c1.011-.837 2.178-1.17 3.5-1z"/><path style="opacity:1" fill="#181a20" d="m275.5 218.5-2 3h-2c-.438.065-.772-.101-1-.5l4.5-4.5c.464.594.631 1.261.5 2z"/><path style="opacity:1" fill="#bcbbba" d="M279.5 212.5h2c-1.16 1.703-.493 2.369 2 2v5a51.569 51.569 0 0 1-7-1l3-6z"/><path style="opacity:1" fill="#7d8da2" d="M111.5 217.5a5.727 5.727 0 0 1 3 1c3.125.979 6.458 1.313 10 1v1a60.931 60.931 0 0 1-11-.5c-.881-.708-1.547-1.542-2-2.5z"/><path style="opacity:1" fill="#272b32" d="M130.5 217.5c-1.085 2.087-2.751 3.42-5 4-.667 0-1-.333-1-1v-1c2.216-.703 4.049-2.036 5.5-4 .464.594.631 1.261.5 2z"/><path style="opacity:1" fill="#9a9a96" d="M141.5 220.5c3.462-.982 7.129-1.315 11-1v2h-2a41.73 41.73 0 0 0-9-1z"/><path style="opacity:1" fill="#3d3d3d" d="M156.5 214.5c-.055 3.114-1.388 5.448-4 7v-2c1.406-.473 2.073-1.473 2-3l2-2z"/><path style="opacity:1" fill="#8594aa" d="M257.5 217.5a5.727 5.727 0 0 1 3 1c2.787.977 5.787 1.31 9 1-.111.617-.444 1.117-1 1.5-4.584 1.337-8.251.171-11-3.5z"/><path style="opacity:1" fill="#595858" d="m161.5 217.5-1 2-2 3c-1.604.787-2.271 2.12-2 4-.667 0-1-.333-1-1 .87-3.534 2.87-6.201 6-8z"/><path style="opacity:1" fill="#898885" d="M275.5 218.5h1c0 2-1 3-3 3l2-3z"/><path style="opacity:1" fill="#3d424b" d="M108.5 213.5a9.82 9.82 0 0 0 3 4c.453.958 1.119 1.792 2 2.5 3.652.499 7.318.665 11 .5 0 .667.333 1 1 1v1a34.163 34.163 0 0 1-10 1c-3.178-.844-5.845-2.511-8-5 .172-.992-.162-1.658-1-2a8.43 8.43 0 0 1 .5-4c.383.556.883.889 1.5 1z"/><path style="opacity:1" fill="#56595f" d="M139.5 220.5h2a41.73 41.73 0 0 1 9 1l-1 2a29.23 29.23 0 0 0-9 1c.558-1.29 1.558-2.123 3-2.5-1.697-.384-3.363-.218-5 .5l1-2z"/><path style="opacity:1" fill="#929290" d="M125.5 222.5c-.473 1.406-1.473 2.073-3 2-2.559.302-4.893-.032-7-1a34.163 34.163 0 0 0 10-1z"/><path style="opacity:1" fill="#09090a" d="M268.5 247.5c-.709.904-1.709 1.237-3 1 .326-8.184-.008-16.184-1-24-.111-.617-.444-1.117-1-1.5a12.93 12.93 0 0 1 5-.5v25z"/><path style="opacity:1" fill="#cecece" d="M302.5 219.5h15l2 44v1c2.787.977 5.787 1.31 9 1-3.125.979-6.458 1.313-10 1a554.665 554.665 0 0 1-1-46c-5.195.321-10.195-.013-15-1z"/><path style="opacity:1" fill="#757575" d="M328.5 260.5v4h-9v-1a1133.95 1133.95 0 0 0 1.5-44 3.647 3.647 0 0 1 1.5-1c1.333 1.333 2.667 1.333 4 0 .667 14.161 1.333 28.161 2 42z"/><path style="opacity:1" fill="#a6a6a6" d="M329.5 219.5v45c0 .667-.333 1-1 1-3.213.31-6.213-.023-9-1h9v-4a420.766 420.766 0 0 1 1-41z"/><path style="opacity:1" fill="#ccc" d="M345.5 209.5c1.277 1.194 1.944 2.86 2 5a17.142 17.142 0 0 1-1 5.5 112.97 112.97 0 0 1-15 .5l-2 44v-45c5.14-.988 10.474-1.321 16-1 1.275-2.896 1.275-5.896 0-9z"/><path style="opacity:1" fill="#f0f0f0" d="M331.5 220.5c.167 15.004 0 30.004-.5 45-1.996 1.559-4.329 2.226-7 2-2.033-.006-3.866-.339-5.5-1 3.542.313 6.875-.021 10-1 .667 0 1-.333 1-1l2-44z"/><path style="opacity:1" fill="#d6d6d6" d="m407.5 228.5-2-1c-.992.172-1.658-.162-2-1-.111-.617-.444-1.117-1-1.5-5.849-.818-11.515-.652-17 .5h-2c2.928-1.32 6.261-1.986 10-2l10 .5c1.692 1.307 3.025 2.807 4 4.5z"/><path style="opacity:1" fill="#e1e1e1" d="M497.5 227.5v-3c-3.871-.315-7.538.018-11 1-.667 0-1 .333-1 1h-1c-.086-.996.248-1.829 1-2.5a84.902 84.902 0 0 1 13-.5c.268 1.599-.066 2.932-1 4z"/><path style="opacity:1" fill="#cecece" d="M515.5 253.5c-2.147-1.432-2.48-3.265-1-5.5 8.327-.5 16.66-.666 25-.5.759-6.01-.575-11.343-4-16a34.482 34.482 0 0 0-8-6c-4.146-1.147-8.48-1.314-13-.5-.556.383-.889.883-1 1.5h-2c.453-.958 1.119-1.792 2-2.5a64.218 64.218 0 0 1 16 0c1.936 2.603 4.436 4.436 7.5 5.5 3.577 6.144 4.743 12.644 3.5 19.5-8.327.5-16.66.666-25 .5v4z"/><path style="opacity:1" fill="#d1d1d1" d="M573.5 231.5c.256-2.292-.077-4.459-1-6.5-3.196-.805-6.196-.638-9 .5-1.208 2.544-3.208 3.878-6 4 .237-1.291-.096-2.291-1-3-2.448-.973-5.115-1.306-8-1 2.787-.977 5.787-1.31 9-1 1.796 2.43 3.463 2.43 5 0 3.622-1.159 7.289-1.325 11-.5 2.64 2.621 2.64 5.121 0 7.5z"/><path style="opacity:1" fill="#bdbdba" d="M107.5 218.5c2.155 2.489 4.822 4.156 8 5 2.107.968 4.441 1.302 7 1-2.466 1.134-5.133 1.301-8 .5a16.086 16.086 0 0 0-5-2.5c-1.205-1.077-1.872-2.41-2-4z"/><path style="opacity:1" fill="#959492" d="m139.5 220.5-1 2c-2 1.333-3.667 3-5 5-1.675 3.007-2.341 6.34-2 10-.968-2.107-1.302-4.441-1-7 1.601-4.601 4.601-7.934 9-10z"/><path style="opacity:1" fill="#a9b2be" d="M149.5 223.5c.342.838 1.008 1.172 2 1v1c-10.338-2.304-15.672 1.696-16 12-.667 0-1-.333-1-1v-6c1.603-2.454 3.603-4.454 6-6a29.23 29.23 0 0 1 9-1z"/><path style="opacity:1" fill="#b2b2b2" d="M370.5 225.5c-3.662-.466-6.995.201-10 2v-2c3.518-2.5 6.851-2.5 10 0z"/><path style="opacity:1" fill="#a6a6a6" d="M385.5 225.5c5.485-1.152 11.151-1.318 17-.5.556.383.889.883 1 1.5a102.078 102.078 0 0 0-18-1z"/><path style="opacity:1" fill="#adadad" d="M447.5 227.5c-6.143-2.271-12.477-2.604-19-1 .111-.617.444-1.117 1-1.5a64.218 64.218 0 0 1 16 0c.881.708 1.547 1.542 2 2.5z"/><path style="opacity:1" fill="#b9b9b9" d="M486.5 225.5c3.462-.982 7.129-1.315 11-1v3h-1c-2.837-1.902-6.171-2.569-10-2z"/><path style="opacity:1" fill="#a9a9a9" d="M527.5 225.5a59.567 59.567 0 0 0-14 1c.111-.617.444-1.117 1-1.5 4.52-.814 8.854-.647 13 .5z"/><path style="opacity:1" fill="#cfcece" d="M198.5 207.5c1 .333 1.667 1 2 2-.552 1.831-.552 3.497 0 5a6.846 6.846 0 0 1 4-1c1 .333 1.667 1 2 2-.219 1.175.114 2.175 1 3a6.846 6.846 0 0 1 4-1v36h-5c.237 1.291-.096 2.291-1 3v-4h5c.167-11.338 0-22.672-.5-34-1.356.88-2.856 1.214-4.5 1 .214-1.644-.12-3.144-1-4.5-1.943.305-3.943.305-6 0-.752-.671-1.086-1.504-1-2.5a31.147 31.147 0 0 1 2-2 5.576 5.576 0 0 1-1-3z"/><path style="opacity:1" fill="#343638" d="M140.5 224.5c-2.397 1.546-4.397 3.546-6 6-.904-.709-1.237-1.709-1-3 1.333-2 3-3.667 5-5 1.637-.718 3.303-.884 5-.5-1.442.377-2.442 1.21-3 2.5z"/><path style="opacity:1" fill="#797979" d="M447.5 227.5c.992-.172 1.658.162 2 1a26.796 26.796 0 0 1 4 8c-3.662.466-6.995-.201-10-2h-2l-1-2c-5.39-2.356-9.056-.689-11 5-1.84 4.054-2.34 8.387-1.5 13 .416 2.05 1.583 3.384 3.5 4v1c2.345 2.575 5.345 3.575 9 3-8.132 4.457-13.965 2.457-17.5-6-1.259-7.034-.426-13.7 2.5-20a26.091 26.091 0 0 1 5-3.5c-1.333-.667-2.667-.667-4 0a31.447 31.447 0 0 1-5 4.5v-2a25.497 25.497 0 0 1 7-5c6.523-1.604 12.857-1.271 19 1z"/><path style="opacity:1" fill="#e5e5e5" d="M557.5 224.5c-3.213-.31-6.213.023-9 1a380.934 380.934 0 0 0-1 39c-1.16-13.16-1.327-26.494-.5-40 3.601-1.32 7.101-1.32 10.5 0z"/><path style="opacity:1" fill="#aeaeae" d="M197.5 226.5h5v4c-1.792.134-3.458-.199-5-1v-3z"/><path style="opacity:1" fill="#919191" d="M485.5 226.5c0-.667.333-1 1-1 3.829-.569 7.163.098 10 2l-1 2h-1v-3h-9z"/><path style="opacity:1" fill="#b8b3b0" d="M158.5 222.5c.204 3.018.537 6.018 1 9l-2-3c.172-.992-.162-1.658-1-2-.271-1.88.396-3.213 2-4z"/><path style="opacity:1" fill="#ababac" d="M257.5 226.5h3v4c-3.454.233-4.454-1.1-3-4z"/><path style="opacity:1" fill="#a1a1a1" d="M449.5 228.5c2 1.333 3.667 3 5 5 .237 1.291-.096 2.291-1 3a26.796 26.796 0 0 0-4-8z"/><path style="opacity:1" fill="#bfbfbf" d="M347.5 225.5a361.608 361.608 0 0 0 1 38c2.448.973 5.115 1.306 8 1h1c-3.565 1.287-7.232 1.287-11 0a380.934 380.934 0 0 1 1-39z"/><path style="opacity:1" fill="#979797" d="M347.5 225.5a32.462 32.462 0 0 1 8 .5c.837 1.011 1.17 2.178 1 3.5-1.847-2.671-4.514-3.671-8-3v37a361.608 361.608 0 0 1-1-38z"/><path style="opacity:1" fill="#9b9b9b" d="M548.5 225.5c2.885-.306 5.552.027 8 1h-7v37a361.608 361.608 0 0 1-1-38z"/><path style="opacity:1" fill="#8899af" d="M151.5 225.5c2.087 1.085 3.42 2.751 4 5 .302 2.559-.032 4.893-1 7a32.462 32.462 0 0 0-.5-8c-.383-.556-.883-.889-1.5-1a5.727 5.727 0 0 1-1-3z"/><path style="opacity:1" fill="#e2e2e2" d="M360.5 225.5v2c-.967 1.306-2.301 1.973-4 2 .17-1.322-.163-2.489-1-3.5a32.462 32.462 0 0 0-8-.5 380.934 380.934 0 0 0-1 39c-1.16-13.16-1.327-26.494-.5-40a17.142 17.142 0 0 1 5.5-1c3.241-.052 6.241.615 9 2z"/><path style="opacity:1" fill="#a4a4a4" d="M440.5 232.5c-3.442-.672-6.109.328-8 3l-3 2c1.944-5.689 5.61-7.356 11-5z"/><path style="opacity:1" fill="#d1d1d1" d="m440.5 232.5 1 2a343.58 343.58 0 0 1-4-1 319.364 319.364 0 0 1-5 2c1.891-2.672 4.558-3.672 8-3z"/><path style="opacity:1" fill="#777" d="M563.5 225.5c2.948-.277 5.781.056 8.5 1a193.924 193.924 0 0 1-1.5 7c-5.839-2.468-10.006-.801-12.5 5-.5 8.327-.666 16.66-.5 25-2.667 1.333-5.333 1.333-8 0v-37h7c.904.709 1.237 1.709 1 3 2.792-.122 4.792-1.456 6-4z"/><path style="opacity:1" fill="#c6c5c2" d="M130.5 230.5c-.302 2.559.032 4.893 1 7v2c-.617-.111-1.117-.444-1.5-1-.801-2.867-.634-5.534.5-8z"/><path style="opacity:1" fill="#59595d" d="M133.5 227.5c-.237 1.291.096 2.291 1 3v6c-.617-.111-1.117-.444-1.5-1a8.43 8.43 0 0 0-.5 4h-1v-2c-.341-3.66.325-6.993 2-10z"/><path style="opacity:1" fill="#bfd0ee" d="M152.5 228.5c.617.111 1.117.444 1.5 1 .497 2.646.664 5.313.5 8v2c-1.762.762-2.762 2.096-3 4h-1c-3.542.313-6.875-.021-10-1a8.43 8.43 0 0 0 4-.5c-6.469-2.552-7.636-6.719-3.5-12.5a17.142 17.142 0 0 1 5.5-1c2.141.113 3.975.78 5.5 2a2.428 2.428 0 0 0 .5-2z"/><path style="opacity:1" fill="#ebebea" d="M197.5 212.5c-.086.996.248 1.829 1 2.5 2.057.305 4.057.305 6 0 .88 1.356 1.214 2.856 1 4.5 1.644.214 3.144-.12 4.5-1 .5 11.328.667 22.662.5 34h-5v4c0 .667-.333 1-1 1 .38-2.198-.287-3.865-2-5v-3h-4v3h3c-1.101 1.098-2.434 1.265-4 .5-1.491-2.022-1.158-3.688 1-5 1.612-.72 3.112-.554 4.5.5a4.934 4.934 0 0 0 .5-3 18.453 18.453 0 0 1-6-.5c-.88-1.356-1.214-2.856-1-4.5 8.708-.198 9.042-1.198 1-3-1.577-2.494-.91-4.327 2-5.5-1.256-.417-1.923-1.25-2-2.5 1.542.801 3.208 1.134 5 1v-4h-5c-.219-5.115-.219-9.782 0-14z"/><path style="opacity:1" fill="#b2b2b2" d="M197.5 237.5c-.116-3.41 1.55-4.744 5-4v4h-5z"/><path style="opacity:1" fill="#bababa" d="M205.5 229.5c3.41-.116 4.744 1.55 4 5-4.435.578-5.768-1.089-4-5z"/><path style="opacity:1" fill="#b7b7b7" d="M205.5 222.5h3v4h-4c-.067-1.459.266-2.792 1-4z"/><path style="opacity:1" fill="#a8a8a8" d="M198.5 219.5h4c.333 3-1 4.333-4 4v-4z"/><path style="opacity:1" fill="#202021" d="M215.5 213.5c1.333 0 2 .667 2 2a361.608 361.608 0 0 0-1 38c-.667-12.506-1.333-25.173-2-38-.667 12.827-1.333 25.494-2 38v-37c.6-1.4 1.6-2.4 3-3z"/><path style="opacity:1" fill="#ccc" d="M383.5 225.5a46.081 46.081 0 0 1-5.5 6 8.43 8.43 0 0 0-.5 4c3.079.872 6.079.872 9 0-3.184 1.914-6.851 2.58-11 2-.265-5.891 2.402-9.891 8-12z"/><path style="opacity:1" fill="#bbb" d="M494.5 229.5h1a107.125 107.125 0 0 1-8.5 9 8.43 8.43 0 0 0-.5 4c-1.113-1.446-1.28-3.113-.5-5a95.356 95.356 0 0 1 8.5-8z"/><path style="opacity:1" fill="#5c5c5e" d="m157.5 228.5 2 3c.389 3.053-.277 5.72-2 8v-11z"/><path style="opacity:1" fill="#a9a9a9" d="M271.5 221.5h2c-1.442 1.32-2.108 2.986-2 5h5c.116 3.41-1.55 4.744-5 4v4h4v3h-4v4h5v3h-5v4c1.291-.237 2.291.096 3 1h-2c-1.527.073-2.527-.594-3-2-.166-8.007 0-16.007.5-24 .717-.544 1.217-1.211 1.5-2z"/><path style="opacity:1" fill="#737373" d="M527.5 225.5a34.482 34.482 0 0 1 8 6 91.928 91.928 0 0 1 3 15c-8.007.166-16.007 0-24-.5a3.647 3.647 0 0 1-1-1.5c5.485-.667 10.819-1.333 16-2 1.168-7.188-2.166-10.855-10-11a16.597 16.597 0 0 0-7-.5c-3.609 3.295-5.609 7.462-6 12.5-.821-2.946-.821-5.946 0-9 1.683-3.343 4.017-6.009 7-8a59.567 59.567 0 0 1 14-1z"/><path style="opacity:1" fill="#d7d7d7" d="M573.5 231.5a5.576 5.576 0 0 1-1 3 25.879 25.879 0 0 1-10 1c2.787-.977 5.787-1.31 9-1-.215-1.679.452-2.679 2-3z"/><path style="opacity:1" fill="#3d4248" d="M151.5 225.5v-1l4 1c0 .667.333 1 1 1 .838.342 1.172 1.008 1 2v15c-1.604.787-2.271 2.12-2 4-.624-.417-.957-1.084-1-2a13.139 13.139 0 0 0 2-6c.31-3.213-.023-6.213-1-9-.58-2.249-1.913-3.915-4-5z"/><path style="opacity:1" fill="#deecf8" d="M151.5 225.5a5.727 5.727 0 0 0 1 3 2.428 2.428 0 0 1-.5 2c-1.525-1.22-3.359-1.887-5.5-2-1.929.04-3.762.373-5.5 1-4.136 5.781-2.969 9.948 3.5 12.5a8.43 8.43 0 0 1-4 .5c-2.027-1.361-3.694-3.027-5-5 .328-10.304 5.662-14.304 16-12z"/><path style="opacity:1" fill="#8c8c8b" d="M206.5 215.5c2.121-.175 4.121.159 6 1v37h-1v-36a6.846 6.846 0 0 0-4 1c-.886-.825-1.219-1.825-1-3z"/><path style="opacity:1" fill="#a2a2a2" d="M371.5 225.5c1.157 2.526 1.157 5.193 0 8a65.147 65.147 0 0 1-10 1.5c-.881.708-1.547 1.542-2 2.5-.768.763-1.268 1.763-1.5 3-.5 7.993-.666 15.993-.5 24h-1a142.774 142.774 0 0 1 1.5-28l3.5-3.5a87.689 87.689 0 0 0 8-.5c1.446-2.118 2.113-4.451 2-7z"/><path style="opacity:1" fill="#acacac" d="M511.5 226.5h2c-2.983 1.991-5.317 4.657-7 8-1.53 3.195-2.196 6.695-2 10.5-.151 4.112.516 7.946 2 11.5.61.891.943 1.891 1 3-.958-.453-1.792-1.119-2.5-2-4.035-9.858-3.202-19.191 2.5-28 1.142-1.326 2.476-2.326 4-3z"/><path style="opacity:1" fill="#323232" d="M264.5 224.5c.992 7.816 1.326 15.816 1 24 1.291.237 2.291-.096 3-1h1c.473 1.406 1.473 2.073 3 2v1h-2c-1.879-.841-3.879-1.175-6-1v-25z"/><path style="opacity:1" fill="#4c5a70" d="M155.5 230.5c.977 2.787 1.31 5.787 1 9h-2v-2c.968-2.107 1.302-4.441 1-7z"/><path style="opacity:1" fill="#a8a8a8" d="M176.5 236.5c3.41-.116 4.744 1.55 4 5-3.41.116-4.744-1.55-4-5z"/><path style="opacity:1" fill="#b5b5b5" d="M205.5 237.5h4v4c-3 .333-4.333-1-4-4z"/><path style="opacity:1" fill="#787878" d="m475.5 238.5 1-2a2415.38 2415.38 0 0 1 9-10h9v3a95.356 95.356 0 0 0-8.5 8c-.78 1.887-.613 3.554.5 5 .838.342 1.172 1.008 1 2 .692 4.384 2.692 8.05 6 11a35.377 35.377 0 0 1 4 6v3a32.462 32.462 0 0 1-8-.5c-.566-.995-1.233-1.828-2-2.5h-2v-2c-.255-2.467-1.255-4.467-3-6-.308-2.969-1.808-4.969-4.5-6-1.376.184-2.209.851-2.5 2a6.547 6.547 0 0 0-3 3c-.982 3.462-1.315 7.129-1 11h-7v-52h7a187.432 187.432 0 0 1-1 26.5c1.415 3.086 3.081 3.253 5 .5z"/><path style="opacity:1" fill="#b6b6b6" d="M484.5 226.5h1a2415.38 2415.38 0 0 0-9 10v-1a25.913 25.913 0 0 1 8-9z"/><path style="opacity:1" fill="#e4e4e4" d="M454.5 233.5c1.307 1.723 1.307 3.557 0 5.5-3.646 1.453-7.312 1.62-11 .5a9.108 9.108 0 0 1-1-5h1c.006 2.344 1.173 3.678 3.5 4 2.4-.302 4.566-.968 6.5-2 .904-.709 1.237-1.709 1-3z"/><path style="opacity:1" fill="#999" d="M443.5 234.5c3.005 1.799 6.338 2.466 10 2-1.934 1.032-4.1 1.698-6.5 2-2.327-.322-3.494-1.656-3.5-4z"/><path style="opacity:1" fill="#a8a8a6" d="M131.5 239.5h1c.61.891.943 1.891 1 3-1.406-.473-2.073-1.473-2-3z"/><path style="opacity:1" fill="#373a3f" d="M134.5 236.5c0 .667.333 1 1 1 .554 3.555 2.554 5.888 6 7 .131.876-.202 1.543-1 2-1.122-1.13-2.456-1.797-4-2l-3-2a5.727 5.727 0 0 0-1-3 8.43 8.43 0 0 1 .5-4c.383.556.883.889 1.5 1z"/><path style="opacity:1" fill="#66748c" d="M154.5 239.5c-.238 1.904-1.238 3.238-3 4 .238-1.904 1.238-3.238 3-4z"/><path style="opacity:1" fill="#ebebea" d="M276.5 218.5c2.306.493 4.639.826 7 1a10.776 10.776 0 0 0 2 6c5.117-2.051 6.951-.385 5.5 5-1.616 1.301-3.116 1.301-4.5 0-2.052.553-2.385 1.553-1 3v4h5c.333-3-1-4.333-4-4 2.824-1.701 4.491-.867 5 2.5-.255 1.326-.922 2.326-2 3 2.667 2.667 2.667 5.333 0 8 2.132 1.62 2.465 3.454 1 5.5v-4c-3.45-.744-5.116.59-5 4-.631 1.948-1.631 3.781-3 5.5a4.933 4.933 0 0 1 1 2.5c-.678 2.016-1.344 4.016-2 6-.904-.709-1.237-1.709-1-3 .624-.417.957-1.084 1-2-.247-1.213-.914-1.88-2-2v-4h3v-3h-6c-.901-.79-1.568-1.79-2-3-.709-.904-1.709-1.237-3-1v-4h5v-3h-5v-4h4v-3h-4v-4c3.45.744 5.116-.59 5-4h-5c-.108-2.014.558-3.68 2-5 2 0 3-1 3-3z"/><path style="opacity:1" fill="#b6b6b6" d="M278.5 237.5h5v4h-5v-4z"/><path style="opacity:1" fill="#acacac" d="M285.5 233.5h1c3-.333 4.333 1 4 4h-5v-4z"/><path style="opacity:1" fill="#a3a3a3" d="M278.5 230.5h4v3h-4v-3z"/><path style="opacity:1" fill="#a5a5a5" d="M286.5 230.5c-.734-1.208-1.067-2.541-1-4h5c.333 3-1 4.333-4 4z"/><path style="opacity:1" fill="#a4a4a4" d="M279.5 222.5h3v4h-4c-.067-1.459.266-2.792 1-4z"/><path style="opacity:1" fill="#a0a0a0" d="M286.5 241.5h4v3h-4v-3z"/><path style="opacity:1" fill="#787878" d="M370.5 225.5h1c.113 2.549-.554 4.882-2 7a87.689 87.689 0 0 1-8 .5l-3.5 3.5a142.774 142.774 0 0 0-1.5 28c-2.885.306-5.552-.027-8-1v-37c3.486-.671 6.153.329 8 3 1.699-.027 3.033-.694 4-2 3.005-1.799 6.338-2.466 10-2z"/><path style="opacity:1" fill="#dadada" d="M421.5 231.5v2c-1.466.847-2.3 2.18-2.5 4a84.902 84.902 0 0 0-.5 13c-2.587-5.466-2.421-11.133.5-17 .708-.881 1.542-1.547 2.5-2z"/><path style="opacity:1" fill="#a6a6a6" d="M429.5 237.5a98.432 98.432 0 0 0 .5 14c.383.556.883.889 1.5 1v2c-1.917-.616-3.084-1.95-3.5-4-.84-4.613-.34-8.946 1.5-13z"/><path style="opacity:1" fill="#c6c6c6" d="M399.5 239.5c-3.663 1.916-7.663 2.916-12 3a19.22 19.22 0 0 0-6 1c.111-.617.444-1.117 1-1.5a121.086 121.086 0 0 0 17-2.5z"/><path style="opacity:1" fill="#9b9b9b" d="M421.5 233.5a56.902 56.902 0 0 0-2 17h-1a84.902 84.902 0 0 1 .5-13c.2-1.82 1.034-3.153 2.5-4z"/><path style="opacity:1" fill="#b5b4b3" d="m133.5 242.5 3 2v1c-2 0-3-1-3-3z"/><path style="opacity:1" fill="#8e9eb3" d="M135.5 237.5c1.306 1.973 2.973 3.639 5 5 3.125.979 6.458 1.313 10 1v1h-9c-3.446-1.112-5.446-3.445-6-7z"/><path style="opacity:1" fill="#959595" d="M198.5 241.5h3v3h-3v-3z"/><path style="opacity:1" fill="#e5e5e5" d="M234.5 211.5c-1.478.948-2.478 2.281-3 4-1.517 1.235-3.184 1.235-5 0-1.114 1.223-1.281 2.556-.5 4 1.943-1.307 3.777-1.307 5.5 0 .727 3.511.727 7.178 0 11v-4c-3-.333-4.333 1-4 4-1.548.321-2.215 1.321-2 3h7c.268 1.599-.066 2.932-1 4-1.101 1.098-2.434 1.265-4 .5a30.233 30.233 0 0 1-3-3.5c-.111.617-.444 1.117-1 1.5a15.265 15.265 0 0 1 3 5.5 11.988 11.988 0 0 1 6-1c.268 1.599-.066 2.932-1 4-1.517 1.235-3.184 1.235-5 0a71.254 71.254 0 0 1-2 4c-1.395 1.148-1.228 2.148.5 3 1.318-3.441 3.818-4.775 7.5-4 .284 1.915-.049 3.581-1 5v-4c-3-.333-4.333 1-4 4-2.468 1.403-3.134 3.403-2 6h-2v-6c-1.322-.17-2.489.163-3.5 1a721.824 721.824 0 0 1-.5-38 71.082 71.082 0 0 0 9-7c2.487.259 4.487 1.259 6 3z"/><path style="opacity:1" fill="#b3b3b3" d="M221.5 237.5c2.412.194 3.412 1.527 3 4h-3v-4z"/><path style="opacity:1" fill="#a4a4a4" d="M231.5 237.5c-1.846.278-3.18-.389-4-2 1.189-.929 2.522-1.262 4-1v3z"/><path style="opacity:1" fill="#b8b8b8" d="M224.5 234.5h-3v-4h3v4z"/><path style="opacity:1" fill="#a8a8a8" d="M231.5 230.5h-4c-.333-3 1-4.333 4-4v4z"/><path style="opacity:1" fill="#b2b2b2" d="M221.5 222.5c2.412.194 3.412 1.527 3 4h-4c-.067-1.459.266-2.792 1-4z"/><path style="opacity:1" fill="#a4a4a4" d="M231.5 219.5v3h-4v-3h4z"/><path style="opacity:1" fill="#b5b5b5" d="M221.5 215.5h3v4h-3v-4z"/><path style="opacity:1" fill="#a2a2a2" d="M231.5 215.5c-1.846.278-3.18-.389-4-2 1.189-.929 2.522-1.262 4-1v3z"/><path style="opacity:1" fill="#9a9a9a" d="M231.5 244.5h-3v-3h3v3z"/><path style="opacity:1" fill="#b6b6b3" d="M157.5 243.5v4h-2c-.271-1.88.396-3.213 2-4z"/><path style="opacity:1" fill="#e2e2e2" d="M259.5 223.5c1.88-.271 3.213.396 4 2v21l-2 1c-1.779-1.844-4.112-2.51-7-2-.343-1.983.324-3.317 2-4-2.76-6.346-.76-9.012 6-8 .524-3.928-.476-7.261-3-10z"/><path style="opacity:1" fill="#a4a4a4" d="M256.5 241.5h4v3h-4v-3zM257.5 234.5h3v3h-3v-3z"/><path style="opacity:1" fill="#a6a6a6" d="M387.5 242.5c-4.291.957-7.791 3.291-10.5 7a28.214 28.214 0 0 0 .5 12c-4.997-7.311-3.664-13.311 4-18a19.22 19.22 0 0 1 6-1z"/><path style="opacity:1" fill="#d3d3d3" d="M122.5 247.5a44.866 44.866 0 0 0-10 1c1.45-1.883 3.45-2.883 6-3 1.833.085 3.166.752 4 2z"/><path style="opacity:1" fill="#141415" d="M154.5 239.5h2a13.139 13.139 0 0 1-2 6c.043.916.376 1.583 1 2h1c-.073 1.527.594 2.527 2 3 .333 1 1 1.667 2 2a802.777 802.777 0 0 1 4 5v2c.342.838 1.008 1.172 2 1v3l-2 1c-1.278-.282-2.278-.949-3-2a6.547 6.547 0 0 0-3-3c-.238-1.904-1.238-3.238-3-4-.238-1.904-1.238-3.238-3-4-.238-1.904-1.238-3.238-3-4-.111-.617-.444-1.117-1-1.5.916-.278 1.582-.778 2-1.5v-1h1c1.762-.762 2.762-2.096 3-4z"/><path style="opacity:1" fill="#ebebea" d="M177.5 213.5c1.068.934 2.401 1.268 4 1 .284 1.915-.049 3.581-1 5-2.289.558-4.289 1.724-6 3.5-9.311 1.155-9.311 1.988 0 2.5.821 5.658-1.346 7.325-6.5 5-.725 1.657-.225 2.657 1.5 3-.734 1.208-1.067 2.541-1 4h5c.067-1.459-.266-2.792-1-4l4 3c-.744 3.45.59 5.116 4 5a18.45 18.45 0 0 1-6 1c2.131.669 4.131 1.335 6 2 .522 1.719 1.522 3.052 3 4 1.072-2.34 2.739-2.673 5-1 1.26 1.853 1.26 3.686 0 5.5-2.269.758-4.436.591-6.5-.5-.623 4.155-2.79 5.488-6.5 4a6.846 6.846 0 0 1-1-4c-3.252-.21-6.252.456-9 2-1.546-2.431-3.879-3.764-7-4a5.727 5.727 0 0 0-1-3v-8c1.723-2.28 2.389-4.947 2-8a104.618 104.618 0 0 1-1-9l2-3h5c-.667-4.976 1.166-6.309 5.5-4a82.484 82.484 0 0 0 6.5-2z"/><path style="opacity:1" fill="#a6a6a6" d="M161.5 244.5h4v4h-4v-4zM168.5 241.5h5v3h-5v-3z"/><path style="opacity:1" fill="#a3a3a3" d="M162.5 237.5h3v4h-3v-4z"/><path style="opacity:1" fill="#adadad" d="M169.5 233.5h3c.734 1.208 1.067 2.541 1 4h-5c-.067-1.459.266-2.792 1-4zM162.5 229.5h3v5h-3v-5z"/><path style="opacity:1" fill="#a8a8a8" d="M168.5 226.5h5c.15 3.661-1.35 4.661-4.5 3a4.934 4.934 0 0 1-.5-3z"/><path style="opacity:1" fill="#a4a4a4" d="M162.5 222.5h3v4h-4c-.067-1.459.266-2.792 1-4z"/><path style="opacity:1" fill="#979797" d="M169.5 219.5h3v3h-3v-3z"/><path style="opacity:1" fill="#a3a3a3" d="M180.5 219.5h-4v-4c3-.333 4.333 1 4 4z"/><path style="opacity:1" fill="#777" d="M383.5 225.5h2c6.045-.197 12.045.137 18 1 .342.838 1.008 1.172 2 1 .185 1.696 1.019 3.029 2.5 4-.145 10.052.688 19.719 2.5 29h1v4c-3.439.247-6.772-.086-10-1 .03-.997-.47-1.664-1.5-2-2.296.359-4.129 1.359-5.5 3a84.902 84.902 0 0 1-13-.5c-.971-1.481-2.304-2.315-4-2.5a28.214 28.214 0 0 1-.5-12c2.709-3.709 6.209-6.043 10.5-7 4.337-.084 8.337-1.084 12-3 .284-1.915-.049-3.581-1-5 0-1.333-.667-2-2-2-2.466-1.134-5.133-1.301-8-.5-1.323.816-1.989 1.983-2 3.5-2.921.872-5.921.872-9 0a8.43 8.43 0 0 1 .5-4 46.081 46.081 0 0 0 5.5-6z"/><path style="opacity:1" fill="#ddd" d="M396.5 232.5c1.333 0 2 .667 2 2a39.113 39.113 0 0 0-5-1 272.002 272.002 0 0 1-6 2c.453-.958 1.119-1.792 2-2.5a24.935 24.935 0 0 1 7-.5z"/><path style="opacity:1" fill="#adadad" d="M396.5 232.5a24.935 24.935 0 0 0-7 .5c-.881.708-1.547 1.542-2 2.5h-1c.011-1.517.677-2.684 2-3.5 2.867-.801 5.534-.634 8 .5z"/><path style="opacity:1" fill="#a0a0a0" d="m405.5 227.5 2 1a10.515 10.515 0 0 0 2.5 3c.5 9.661.666 19.328.5 29-1.812-9.281-2.645-18.948-2.5-29-1.481-.971-2.315-2.304-2.5-4z"/><path style="opacity:1" fill="#494c55" d="M136.5 245.5v-1c1.544.203 2.878.87 4 2 .798-.457 1.131-1.124 1-2h9c-.418.722-1.084 1.222-2 1.5.556.383.889.883 1 1.5h-9c-1.562-.233-2.895-.9-4-2z"/><path style="opacity:1" fill="#a5a5a5" d="M279.5 244.5h3v4h-4c-.067-1.459.266-2.792 1-4z"/><path style="opacity:1" fill="#e3e3e3" d="M432.5 235.5c-2.304 5.448-2.637 11.114-1 17-.617-.111-1.117-.444-1.5-1a98.432 98.432 0 0 1-.5-14l3-2z"/><path style="opacity:1" fill="#bfbfbc" d="M122.5 247.5c2.785-.584 4.452.416 5 3-.992.172-1.658-.162-2-1l-3-2z"/><path style="opacity:1" fill="#868482" d="M140.5 247.5h9c1.762.762 2.762 2.096 3 4a137.27 137.27 0 0 1-12-4z"/><path style="opacity:1" fill="#a5a5a5" d="M180.5 244.5v4h-4c-.333-3 1-4.333 4-4z"/><path style="opacity:1" fill="#a8a8a8" d="M205.5 245.5h3v3h-3v-3z"/><path style="opacity:1" fill="#aeaeae" d="M224.5 248.5h-3v-4h3v4z"/><path style="opacity:1" fill="#d5d5d5" d="M393.5 246.5h6c.295 2.235-.039 4.235-1 6v-5a133.522 133.522 0 0 1-11 3 38.496 38.496 0 0 1 6-4z"/><path style="opacity:1" fill="#b0b0b0" d="M482.5 253.5c-1.278-.282-2.278-.949-3-2-.683-1.676-2.017-2.343-4-2 .291-1.149 1.124-1.816 2.5-2 2.692 1.031 4.192 3.031 4.5 6z"/><path style="opacity:1" fill="#9e9e9e" d="M563.5 225.5c2.804-1.138 5.804-1.305 9-.5.923 2.041 1.256 4.208 1 6.5-1.548.321-2.215 1.321-2 3-3.213-.31-6.213.023-9 1-1.673.843-2.84 2.176-3.5 4a284.057 284.057 0 0 1-1.5 24c-.166-8.34 0-16.673.5-25 2.494-5.801 6.661-7.468 12.5-5a193.924 193.924 0 0 0 1.5-7c-2.719-.944-5.552-1.277-8.5-1z"/><path style="opacity:1" fill="#e4e4e4" d="M560.5 241.5c.166 8.007 0 16.007-.5 24a23.256 23.256 0 0 1-6.5 1c-2.452-.039-4.452-.706-6-2 3.834 1.3 7.668 1.3 11.5 0a260.63 260.63 0 0 1 1.5-23z"/><path style="opacity:1" fill="#a7a7a7" d="M183.5 248.5h4v4h-4v-4z"/><path style="opacity:1" fill="#a4a4a4" d="M393.5 246.5a38.496 38.496 0 0 0-6 4c-1.713 1.135-2.38 2.802-2 5-1.176-5.851 1.49-8.851 8-9z"/><path style="opacity:1" fill="#fafafa" d="M398.5 252.5c.271 1.88-.396 3.213-2 4-6.27 2.7-9.27.7-9-6a133.522 133.522 0 0 0 11-3v5z"/><path style="opacity:1" fill="#989898" d="m487.5 244.5 5 6a20.69 20.69 0 0 0 1 5c-3.308-2.95-5.308-6.616-6-11z"/><path style="opacity:1" fill="#707070" d="M156.5 247.5h1c.61.891.943 1.891 1 3-1.406-.473-2.073-1.473-2-3z"/><path style="opacity:1" fill="#303236" d="M115.5 251.5c-.992-.172-1.658.162-2 1-1.333 0-2 .667-2 2a6.547 6.547 0 0 0-3 3c-1.15 1.35-1.817 1.184-2-.5a15.414 15.414 0 0 0 2-4.5 25.194 25.194 0 0 0 5.5-3c1.03.336 1.53 1.003 1.5 2z"/><path style="opacity:1" fill="#989898" d="M169.5 248.5h3v3h-3v-3z"/><path style="opacity:1" fill="#b1b1b1" d="M217.5 215.5h2c-.167 12.671 0 25.338.5 38 1.011-.837 2.178-1.17 3.5-1v5a17.54 17.54 0 0 1-6-3v-39z"/><path style="opacity:1" fill="#aaa" d="M231.5 252.5h-4c-.333-3 1-4.333 4-4v4z"/><path style="opacity:1" fill="#656669" d="m122.5 247.5 3 2c-1.679-.215-2.679.452-3 2h-7c.03-.997-.47-1.664-1.5-2a25.194 25.194 0 0 1-5.5 3c1-1.667 2.333-3 4-4a44.866 44.866 0 0 1 10-1z"/><path style="opacity:1" fill="#ababab" d="M202.5 252.5h-4v-3h4v3z"/><path style="opacity:1" fill="#acacac" d="M290.5 252.5h-5c-.116-3.41 1.55-4.744 5-4v4z"/><path style="opacity:1" fill="#dadada" d="M455.5 255.5c.343-1.983-.324-3.317-2-4a31.6 31.6 0 0 0-8-.5c-.663 1.518-1.663 2.685-3 3.5.323-3.656 2.323-5.656 6-6 2.45.261 4.783.928 7 2 1.288 1.799 1.288 3.465 0 5z"/><path style="opacity:1" fill="#7e7e7e" d="M519.5 231.5c-4.18 2.037-6.013 5.37-5.5 10a62.792 62.792 0 0 0 15.5 1c-5.181.667-10.515 1.333-16 2a3.647 3.647 0 0 0 1 1.5c7.993.5 15.993.666 24 .5a91.928 91.928 0 0 0-3-15c3.425 4.657 4.759 9.99 4 16-8.34-.166-16.673 0-25 .5-1.48 2.235-1.147 4.068 1 5.5v1c2.826 4.166 6.16 4.833 10 2h2c3.005-1.799 6.338-2.466 10-2v3c-.762 1.762-2.096 2.762-4 3-.06-.543-.393-.876-1-1-14.155 6.172-22.988 1.839-26.5-13a49.602 49.602 0 0 0 .5 10c-1.484-3.554-2.151-7.388-2-11.5-.196-3.805.47-7.305 2-10.5-.821 3.054-.821 6.054 0 9 .391-5.038 2.391-9.205 6-12.5a16.597 16.597 0 0 1 7 .5z"/><path style="opacity:1" fill="#bebebe" d="M519.5 231.5c7.834.145 11.168 3.812 10 11a62.792 62.792 0 0 1-15.5-1c-.513-4.63 1.32-7.963 5.5-10z"/><path style="opacity:1" fill="#f8f8f8" d="M518.5 233.5c6.613-1.384 9.946 1.282 10 8h-13c-.484-3.288.516-5.955 3-8z"/><path style="opacity:1" fill="#d1d1d1" d="M619.5 269.5a27.748 27.748 0 0 0-5-9 52.56 52.56 0 0 0-1.5-7c-1.616-1.301-3.116-1.301-4.5 0a73.54 73.54 0 0 0-4 7c-.75-7.077 2.25-9.91 9-8.5a24.961 24.961 0 0 0 4.5 9.5 18.991 18.991 0 0 1 1.5 8z"/><path style="opacity:1" fill="#717485" d="m113.5 252.5-1 2h-1c0-1.333.667-2 2-2z"/><path style="opacity:1" fill="#a8a6a6" d="M127.5 250.5a15.414 15.414 0 0 1 4.5 2c1.44-.648 2.94-.981 4.5-1 .051 2.07-.615 3.903-2 5.5 1.356 1.567 2.023 3.4 2 5.5l-2-2c-1.525-3.865-3.858-7.198-7-10z"/><path style="opacity:1" fill="#818181" d="M152.5 251.5c1.762.762 2.762 2.096 3 4-1.762-.762-2.762-2.096-3-4z"/><path style="opacity:1" fill="#898988" d="M263.5 246.5c-1.582 1.874-3.582 3.207-6 4l-4 5h-1c1.726-4.139 4.726-6.806 9-8l2-1z"/><path style="opacity:1" fill="#cdcdcd" d="M359.5 237.5a981.887 981.887 0 0 1-2 27c-.166-8.007 0-16.007.5-24 .232-1.237.732-2.237 1.5-3z"/><path style="opacity:1" fill="#e8e8e8" d="M371.5 233.5v3a29.495 29.495 0 0 1-6.5-1c-1.711-.061-3.044.606-4 2a251.676 251.676 0 0 0-2 28l-1.5 1.5a60.931 60.931 0 0 1-11 .5v-3c3.768 1.287 7.435 1.287 11 0a981.887 981.887 0 0 0 2-27c.453-.958 1.119-1.792 2-2.5a65.147 65.147 0 0 0 10-1.5z"/><path style="opacity:1" fill="#383c42" d="M125.5 249.5c.342.838 1.008 1.172 2 1 3.142 2.802 5.475 6.135 7 10v1c-.617-.111-1.117-.444-1.5-1a34.033 34.033 0 0 0-1.5 8c2.885-.306 5.552.027 8 1-3.512-.555-6.512.112-9 2-1.527-.073-2.527.594-3 2-.342.838-1.008 1.172-2 1-2.382 1.546-5.049 2.213-8 2-1.777-1.1-3.777-1.934-6-2.5a31.447 31.447 0 0 0-5-4.5v-2c-.091-2.198.575-2.531 2-1 .333 1 1 1.667 2 2 .762 1.762 2.096 2.762 4 3 .111.617.444 1.117 1 1.5 4.805 1.254 8.805.087 12-3.5.282-1.278.949-2.278 2-3 .658-1.293.992-2.793 1-4.5.164-2.544-.503-4.71-2-6.5a17.902 17.902 0 0 0-6-4c.321-1.548 1.321-2.215 3-2z"/><path style="opacity:1" fill="#969696" d="M176.5 252.5h3v3h-3v-3z"/><path style="opacity:1" fill="#adacac" d="M276.5 252.5h6v3h-3v3a598.896 598.896 0 0 1-3-6z"/><path style="opacity:1" fill="#bfbfbf" d="M418.5 250.5h1a32.783 32.783 0 0 0 4 10c-3.759-2.183-5.425-5.517-5-10z"/><path style="opacity:1" fill="#afafaf" d="M475.5 249.5a79.411 79.411 0 0 0-3 15v-12a6.547 6.547 0 0 1 3-3z"/><path style="opacity:1" fill="#a5a5a5" d="M538.5 253.5c.268 1.599-.066 2.932-1 4v-3c-3.662-.466-6.995.201-10 2 .011-1.517.677-2.684 2-3.5a64.934 64.934 0 0 1 9 .5z"/><path style="opacity:1" fill="#b5b5b5" d="M637.5 253.5c3.83 1.189 4.83 3.522 3 7 .268-1.599-.066-2.932-1-4l-2-3z"/><path style="opacity:1" fill="#dfecf8" d="M113.5 252.5h10v3c-8.841-1.98-12.674 1.353-11.5 10 7.53 5.075 7.03 6.075-1.5 3-1.875-5.16-1.208-9.826 2-14l1-2z"/><path style="opacity:1" fill="#8f8f8f" d="M160.5 252.5c2.984.287 4.317 1.954 4 5a802.777 802.777 0 0 0-4-5z"/><path style="opacity:1" fill="#7c7c7c" d="M211.5 253.5a52.928 52.928 0 0 0-7 6v-2c.667 0 1-.333 1-1 .904-.709 1.237-1.709 1-3h5z"/><path style="opacity:1" fill="#e0edf8" d="M269.5 252.5a6.547 6.547 0 0 1 3 3c.131.876-.202 1.543-1 2-9.976-4.527-13.976-1.527-12 9l-1 1a71.254 71.254 0 0 0-2-4c-1.123-2.188-1.123-4.521 0-7 3.484-3.632 7.817-4.965 13-4z"/><path style="opacity:1" fill="#5b5c5f" d="M263.5 225.5h1v24c2.121-.175 4.121.159 6 1 .822 2.228 2.155 2.895 4 2-.355-1.022-1.022-1.689-2-2v-1h2c.432 1.21 1.099 2.21 2 3a598.896 598.896 0 0 0 3 6v1c-1.526-.605-2.526-1.771-3-3.5-.937-.692-1.603-.525-2 .5l-2-1a6.547 6.547 0 0 0-3-3c-.812-1.493-2.145-2.16-4-2a39.113 39.113 0 0 0-5 1c-.709-.904-1.709-1.237-3-1 2.418-.793 4.418-2.126 6-4v-21z"/><path style="opacity:1" fill="#0e0f14" d="M270.5 250.5h2c.978.311 1.645.978 2 2-1.845.895-3.178.228-4-2z"/><path style="opacity:1" fill="#969ea4" d="M269.5 252.5c-5.183-.965-9.516.368-13 4 .58-2.249 1.913-3.915 4-5a39.113 39.113 0 0 1 5-1c1.855-.16 3.188.507 4 2z"/><path style="opacity:1" fill="#c3d4ef" d="m272.5 255.5 2 1a24.93 24.93 0 0 1 1 8 11.743 11.743 0 0 1-3 5c-2.395.863-4.729.863-7 0 5.389-.773 7.222-3.773 5.5-9a32.33 32.33 0 0 0-6 5c-1.057-1.127-2.223-1.627-3.5-1.5a66.678 66.678 0 0 1 2 5.5c-1.545.952-3.212 1.285-5 1-.333-1-1-1.667-2-2v-5a71.254 71.254 0 0 1 2 4l1-1c-1.976-10.527 2.024-13.527 12-9 .798-.457 1.131-1.124 1-2z"/><path style="opacity:1" fill="#a2a2a2" d="M399.5 246.5c2.54 9.967-1.46 14.134-12 12.5-1.323-.816-1.989-1.983-2-3.5 3.436 3.52 7.103 3.854 11 1 1.604-.787 2.271-2.12 2-4 .961-1.765 1.295-3.765 1-6z"/><path style="opacity:1" fill="#828282" d="M453.5 251.5v1h-8v3c1.478-.262 2.811.071 4 1-1.353 1.024-2.02 2.357-2 4a17.65 17.65 0 0 1-6 .5c2.832-1.908 2.499-2.741-1-2.5l1-2 1-2c1.337-.815 2.337-1.982 3-3.5a31.6 31.6 0 0 1 8 .5z"/><path style="opacity:1" fill="#c1c1c1" d="M548.5 225.5a361.608 361.608 0 0 0 1 38c2.667 1.333 5.333 1.333 8 0a284.057 284.057 0 0 0 1.5-24c.66-1.824 1.827-3.157 3.5-4-1.13 1.815-1.796 3.815-2 6a260.63 260.63 0 0 0-1.5 23c-3.832 1.3-7.666 1.3-11.5 0a380.934 380.934 0 0 1 1-39z"/><path style="opacity:1" fill="#7b7b7b" d="M155.5 255.5c1.762.762 2.762 2.096 3 4l-3-2v-2z"/><path style="opacity:1" fill="#47494f" d="M217.5 254.5a17.54 17.54 0 0 0 6 3v2c-.838.342-1.172 1.008-1 2l-3-2h-2c-.47-1.193-1.47-1.86-3-2a39.113 39.113 0 0 0-5 1 104.838 104.838 0 0 0 8-4z"/><path style="opacity:1" fill="#2c2f31" d="M257.5 250.5c1.291-.237 2.291.096 3 1-2.087 1.085-3.42 2.751-4 5l-2 1c-.838-.342-1.172-1.008-1-2l4-5z"/><path style="opacity:1" fill="#d7d7d7" d="M515.5 254.5c3.052 1.678 6.385 2.345 10 2-3.84 2.833-7.174 2.166-10-2z"/><path style="opacity:1" fill="#b7b7b7" d="M599.5 256.5v1h-10v4h8c1.149.291 1.816 1.124 2 2.5-.184 1.376-.851 2.209-2 2.5v-4h-9v-6h11z"/><path style="opacity:1" fill="#9d9d9d" d="M637.5 252.5v1c-4.267-.297-8.434.036-12.5 1-.5 6.658-.666 13.325-.5 20h-1c-.166-7.008 0-14.008.5-21 4.401-.967 8.901-1.3 13.5-1z"/><path style="opacity:1" fill="#c6c6c5" d="M158.5 250.5c3.121.236 5.454 1.569 7 4v4h3v-3c3.45-.744 5.116.59 5 4h7v4h-1v-3h-7c.219-1.175-.114-2.175-1-3-2.01 1.671-4.343 2.338-7 2v-2c.317-3.046-1.016-4.713-4-5-1-.333-1.667-1-2-2z"/><path style="opacity:1" fill="#b3b2b1" d="M252.5 255.5c.073 1.527-.594 2.527-2 3-.073-1.527.594-2.527 2-3z"/><path style="opacity:1" fill="#dadada" d="M387.5 250.5c-.27 6.7 2.73 8.7 9 6-3.897 2.854-7.564 2.52-11-1-.38-2.198.287-3.865 2-5z"/><path style="opacity:1" fill="#b8b8b8" d="M482.5 253.5c1.745 1.533 2.745 3.533 3 6-2.475-1.187-3.475-3.187-3-6z"/><path style="opacity:1" fill="#939393" d="M608.5 253.5c1.384-1.301 2.884-1.301 4.5 0a52.56 52.56 0 0 1 1.5 7l-2 6a11.988 11.988 0 0 0-1-6c-.925-1.062-1.925-1.062-3 0 .194-2.412 1.527-3.412 4-3 .333-3-1-4.333-4-4z"/><path style="opacity:1" fill="#8f8f8d" d="M172.5 260.5h-6c-.992.172-1.658-.162-2-1 2.657.338 4.99-.329 7-2 .886.825 1.219 1.825 1 3z"/><path style="opacity:1" fill="#a6aebb" d="M217.5 259.5h-10c.342-.838 1.008-1.172 2-1a39.113 39.113 0 0 1 5-1c1.53.14 2.53.807 3 2z"/><path style="opacity:1" fill="#b3b2b2" d="M229.5 263.5c-1.562-.233-2.895-.9-4-2-.333-1-1-1.667-2-2v-1h2c1.142-2.472 3.142-3.472 6-3v4c-4.345-.202-5.012 1.131-2 4z"/><path style="opacity:1" fill="#c8c8c8" d="M238.5 262.5c-1.068.934-2.401 1.268-4 1v-5h5c.268 1.599-.066 2.932-1 4z"/><path style="opacity:1" fill="#b5b5b5" d="M453.5 252.5v-1c1.676.683 2.343 2.017 2 4-1.3 2.932-3.3 5.266-6 7v-1a38.515 38.515 0 0 0 5-7.5c-.07-.765-.403-1.265-1-1.5z"/><path style="opacity:1" fill="#9b9b9b" d="M635.5 257.5a24.935 24.935 0 0 0-7 .5c-.837 1.011-1.17 2.178-1 3.5-1.594-3.94-.094-5.94 4.5-6 1.681.108 2.848.775 3.5 2z"/><path style="opacity:1" fill="#ededed" d="M635.5 257.5h1v4h-9c-.17-1.322.163-2.489 1-3.5a24.935 24.935 0 0 1 7-.5z"/><path style="opacity:1" fill="#999" d="M238.5 262.5h-3v-3h3v3z"/><path style="opacity:1" fill="#717171" d="M440.5 258.5c3.499-.241 3.832.592 1 2.5a17.65 17.65 0 0 0 6-.5c-.02-1.643.647-2.976 2-4-1.189-.929-2.522-1.262-4-1v-3h8c.597.235.93.735 1 1.5a38.515 38.515 0 0 1-5 7.5c-6.152 1.812-12.485 2.479-19 2a19.49 19.49 0 0 1-7-3 32.783 32.783 0 0 1-4-10 56.902 56.902 0 0 1 2-17 31.447 31.447 0 0 0 5-4.5c1.333-.667 2.667-.667 4 0a26.091 26.091 0 0 0-5 3.5c-2.926 6.3-3.759 12.966-2.5 20 3.535 8.457 9.368 10.457 17.5 6z"/><path style="opacity:1" fill="#afafaf" d="M431.5 255.5a34.163 34.163 0 0 0 10 1l-1 2c-3.655.575-6.655-.425-9-3z"/><path style="opacity:1" fill="silver" d="M538.5 253.5c1.111 5.289-1.222 8.623-7 10l2-3c1.904-.238 3.238-1.238 4-3 .934-1.068 1.268-2.401 1-4z"/><path style="opacity:1" fill="#b6c0cc" d="M111.5 254.5h1c-3.208 4.174-3.875 8.84-2 14-1-.333-1.667-1-2-2v-9a6.547 6.547 0 0 1 3-3z"/><path style="opacity:1" fill="#bfd0eb" d="M113.5 252.5c.342-.838 1.008-1.172 2-1h7a17.902 17.902 0 0 1 6 4 72.032 72.032 0 0 1 1 11c-1.051.722-1.718 1.722-2 3-4.136 1.683-8.469 2.35-13 2-1.904-.238-3.238-1.238-4-3 8.53 3.075 9.03 2.075 1.5-3-1.174-8.647 2.659-11.98 11.5-10v-3h-10z"/><path style="opacity:1" fill="#8e9fb7" d="M128.5 255.5c1.497 1.79 2.164 3.956 2 6.5-.008 1.707-.342 3.207-1 4.5a72.032 72.032 0 0 0-1-11z"/><path style="opacity:1" fill="#ddd" d="m155.5 257.5 3 2a15.414 15.414 0 0 0 2 4.5 11.123 11.123 0 0 1-1 2.5 20.69 20.69 0 0 0-5-1h-1c-.256-2.412.744-4.079 3-5a5.576 5.576 0 0 1-1-3z"/><path style="opacity:1" fill="#e4e4e4" d="M183.5 259.5c-1.086.12-1.753.787-2 2a1125.06 1125.06 0 0 1 4 8l-2-1c-1.39-1.399-2.39-3.066-3-5v-4h-3c2.753-.379 4.753-1.879 6-4.5a12.93 12.93 0 0 1 5-.5v7c-2.198.38-3.865-.287-5-2z"/><path style="opacity:1" fill="#a3a3a3" d="M183.5 259.5c-.333-3 1-4.333 4-4v4h-4z"/><path style="opacity:1" fill="#dce9f4" d="M207.5 259.5h12c.203 1.544.87 2.878 2 4-1.076 1.156-2.076.989-3-.5-3-.667-6-.667-9 0-1.473.71-2.14 1.876-2 3.5-1.291.237-2.291-.096-3-1v-2l3-4z"/><path style="opacity:1" fill="#75849a" d="M274.5 256.5c1.526.992 2.193 2.492 2 4.5-.014 1.385-.348 2.551-1 3.5a24.93 24.93 0 0 0-1-8z"/><path style="opacity:1" fill="#707070" d="m533.5 260.5-2 3c-7.24.547-14.24-.12-21-2l-3-2a5.727 5.727 0 0 0-1-3 49.602 49.602 0 0 1-.5-10c3.512 14.839 12.345 19.172 26.5 13 .607.124.94.457 1 1z"/><path style="opacity:1" fill="#e2e2e2" d="M599.5 257.5a467.073 467.073 0 0 1-9 2c2.469.668 4.802 1.335 7 2h-8v-4h10z"/><path style="opacity:1" fill="#9a9a9a" d="M639.5 256.5c.934 1.068 1.268 2.401 1 4v1c-2.53 1.83-2.197 3.496 1 5 1.713 4.248.38 7.248-4 9-4.532.318-8.866-.015-13-1 5.128.388 10.128-.112 15-1.5 1.528-2.518 1.194-4.685-1-6.5-.501 2.155-1.501 3.822-3 5v-1c.934-1.068 1.268-2.401 1-4-2.885-.306-5.552.027-8 1-.904.709-1.237 1.709-1 3-1.301-1.384-1.301-2.884 0-4.5a50.464 50.464 0 0 1 10-.5v-3c-3.542.313-6.875-.021-10-1h9v-4c1.83 4.108 2.83 3.775 3-1z"/><path style="opacity:1" fill="#817f7c" d="m134.5 260.5 2 2 5 2h-4c-2 0-3-1-3-3v-1z"/><path style="opacity:1" fill="#8b8b8b" d="M172.5 261.5v-1h7v3c-1.956-1.648-4.289-2.315-7-2z"/><path style="opacity:1" fill="#cdcdcd" d="M637.5 252.5c-4.599-.3-9.099.033-13.5 1-.5 6.992-.666 13.992-.5 21-1.155-7.155-1.322-14.488-.5-22 4.933-1.324 9.766-1.324 14.5 0z"/><path style="opacity:1" fill="#57595b" d="M166.5 260.5h6v3h-6v-3z"/><path style="opacity:1" fill="#5b5859" d="M225.5 261.5c1.105 1.1 2.438 1.767 4 2 .237 1.291-.096 2.291-1 3a17.907 17.907 0 0 1-3-5z"/><path style="opacity:1" fill="#a0a8b8" d="M256.5 256.5c-1.123 2.479-1.123 4.812 0 7v3c-.617-.111-1.117-.444-1.5-1a32.462 32.462 0 0 1-.5-8l2-1z"/><path style="opacity:1" fill="#b3c6e6" d="M272.5 269.5v1c-.992-.172-1.658.162-2 1-3.333 1.333-6.667 1.333-10 0-.992.172-1.658-.162-2-1 1.788.285 3.455-.048 5-1a66.678 66.678 0 0 0-2-5.5c1.277-.127 2.443.373 3.5 1.5a32.33 32.33 0 0 1 6-5c1.722 5.227-.111 8.227-5.5 9 2.271.863 4.605.863 7 0z"/><path style="opacity:1" fill="#e0e0e0" d="M612.5 266.5h-5a19.22 19.22 0 0 1 1-6c1.075-1.062 2.075-1.062 3 0a11.988 11.988 0 0 1 1 6z"/><path style="opacity:1" fill="#8a8a8a" d="M449.5 261.5v1a17.54 17.54 0 0 1-6 3c-4.794.597-9.127-.07-13-2 6.515.479 12.848-.188 19-2z"/><path style="opacity:1" fill="#bebebe" d="M584.5 251.5a112.97 112.97 0 0 1 15 .5c1.301 1.616 1.301 3.116 0 4.5v-3h-14c-.991 6.813-1.325 13.813-1 21-1.312-7.568-1.312-15.235 0-23z"/><path style="opacity:1" fill="#bababa" d="M604.5 260.5c.014 3.975-1.319 7.308-4 10a90.025 90.025 0 0 1 4-10z"/><path style="opacity:1" fill="#cecece" d="M640.5 261.5a20.69 20.69 0 0 0 1 5c-3.197-1.504-3.53-3.17-1-5z"/><path style="opacity:1" fill="#5b5e62" d="M108.5 252.5a15.414 15.414 0 0 1-2 4.5c.183 1.684.85 1.85 2 .5v9c-1.425-1.531-2.091-1.198-2 1-1.765-2.623-2.432-5.623-2-9 .477-2.525 1.81-4.525 4-6z"/><path style="opacity:1" fill="#0c0c0d" d="M134.5 261.5c0 2 1 3 3 3 3.598 2.192 7.598 3.192 12 3h2l8 2v2c-.958.453-1.792 1.119-2.5 2-2.228-1.613-4.728-2.28-7.5-2a94.873 94.873 0 0 0-10-2c-2.448-.973-5.115-1.306-8-1a34.033 34.033 0 0 1 1.5-8c.383.556.883.889 1.5 1z"/><path style="opacity:1" fill="#717070" d="M158.5 259.5a6.547 6.547 0 0 1 3 3c.343 1.983-.324 3.317-2 4 .423-.765.757-1.598 1-2.5a15.414 15.414 0 0 1-2-4.5z"/><path style="opacity:1" fill="#888f9a" d="M166.5 263.5h6c.667 0 1 .333 1 1-2.559-.302-4.893.032-7 1l-5 4a11.743 11.743 0 0 1 3-5l2-1z"/><path style="opacity:1" fill="#3a3d43" d="M223.5 259.5c1 .333 1.667 1 2 2a17.907 17.907 0 0 0 3 5c-.333 3 1 4.333 4 4-1.384 1.301-2.884 1.301-4.5 0a81.316 81.316 0 0 1-2.5 3 32.462 32.462 0 0 0-.5-8c-.278-.916-.778-1.582-1.5-2l-1-2c-.172-.992.162-1.658 1-2z"/><path style="opacity:1" fill="#bcbcbb" d="M250.5 259.5c-.268 1.599.066 2.932 1 4 .237 1.291-.096 2.291-1 3a23.142 23.142 0 0 1-8-2v3c-2.787.977-5.787 1.31-9 1 .462-1.38 1.462-2.047 3-2 1.635.546 3.301.88 5 1-.49-2.448.343-4.115 2.5-5 1.497.977 2.997 1.977 4.5 3l2-.5c-1.307-1.943-1.307-3.777 0-5.5z"/><path style="opacity:1" fill="#9c9d9d" d="M250.5 266.5c-2.448.973-5.115 1.306-8 1v-3a23.142 23.142 0 0 0 8 2z"/><path style="opacity:1" fill="#535456" d="M252.5 255.5h1c-.172.992.162 1.658 1 2a32.462 32.462 0 0 0 .5 8c.383.556.883.889 1.5 1v2h-1c-.311-.978-.978-1.645-2-2-1.412 1.306-3.079 2.14-5 2.5-5.382.265-10.715.765-16 1.5l1-2c3.213.31 6.213-.023 9-1 2.885.306 5.552-.027 8-1 .904-.709 1.237-1.709 1-3-.934-1.068-1.268-2.401-1-4v-1c1.406-.473 2.073-1.473 2-3z"/><path style="opacity:1" fill="#2c2e31" d="M251.5 263.5c-.269-1.929.231-3.595 1.5-5l.5 2.5c-.184 1.376-.851 2.209-2 2.5z"/><path style="opacity:1" fill="#b7b7b7" d="M411.5 260.5c.951 1.419 1.284 3.085 1 5-4.149.58-7.816-.086-11-2 3.228.914 6.561 1.247 10 1v-4z"/><path style="opacity:1" fill="#969696" d="M510.5 261.5c6.76 1.88 13.76 2.547 21 2-.787 1.604-2.12 2.271-4 2a61.13 61.13 0 0 1-13-1c-2.088-.12-3.422-1.12-4-3z"/><path style="opacity:1" fill="#767676" d="M585.5 253.5h14v3h-11v6h9v3a40.914 40.914 0 0 0-9 .5 261.12 261.12 0 0 1-2 7.5c-.997-6.634-1.33-13.3-1-20z"/><path style="opacity:1" fill="#4e4e4e" d="M137.5 264.5h6c1.602 1.574 3.602 2.241 6 2v1c-4.402.192-8.402-.808-12-3z"/><path style="opacity:1" fill="#a4a4a4" d="M143.5 264.5c3.307.551 6.64.884 10 1h1c-1.419.951-3.085 1.284-5 1-2.398.241-4.398-.426-6-2z"/><path style="opacity:1" fill="#c8d6ee" d="m219.5 259.5 3 2 1 2v3c-.996.086-1.829-.248-2.5-1-2.743 2.238-4.909 4.905-6.5 8l-2-1a13.116 13.116 0 0 0-1 7h-4a17.902 17.902 0 0 1-4-6c-.306-2.885.027-5.552 1-8 .709.904 1.709 1.237 3 1-.14-1.624.527-2.79 2-3.5 3-.667 6-.667 9 0 .924 1.489 1.924 1.656 3 .5-1.13-1.122-1.797-2.456-2-4z"/><path style="opacity:1" fill="#b2b2b2" d="M377.5 261.5c1.696.185 3.029 1.019 4 2.5 4.321.499 8.654.666 13 .5-.111.617-.444 1.117-1 1.5a72.367 72.367 0 0 1-12 .5 21.614 21.614 0 0 1-4-5z"/><path style="opacity:1" fill="#bbb" d="M423.5 260.5a19.49 19.49 0 0 0 7 3c3.873 1.93 8.206 2.597 13 2-4.481 1.148-9.148 1.315-14 .5-2.496-1.331-4.496-3.164-6-5.5z"/><path style="opacity:1" fill="#d7d7d7" d="M492.5 250.5c3.981 4.626 6.314 9.96 7 16a72.367 72.367 0 0 1-12-.5 9.175 9.175 0 0 1-2-4.5h2c-.17 1.322.163 2.489 1 3.5 3.317.498 6.65.665 10 .5.268-1.599-.066-2.932-1-4a35.377 35.377 0 0 0-4-6 20.69 20.69 0 0 1-1-5z"/><path style="opacity:1" fill="#acacac" d="M487.5 261.5c.767.672 1.434 1.505 2 2.5 2.646.497 5.313.664 8 .5v-3c.934 1.068 1.268 2.401 1 4a50.464 50.464 0 0 1-10-.5c-.837-1.011-1.17-2.178-1-3.5z"/><path style="opacity:1" fill="#c4c4c4" d="m507.5 259.5 3 2c.578 1.88 1.912 2.88 4 3a61.13 61.13 0 0 0 13 1c-5.623 1.396-11.289 1.063-17-1-1.452-1.44-2.452-3.106-3-5z"/><path style="opacity:1" fill="#cdcccc" d="M104.5 258.5c-.432 3.377.235 6.377 2 9v2c-2.833-1.094-4.167-3.261-4-6.5.069-1.986.735-3.486 2-4.5z"/><path style="opacity:1" fill="#7a7a7a" d="M154.5 265.5a20.69 20.69 0 0 1 5 1c-2.448.973-5.115 1.306-8 1h-2v-1c1.915.284 3.581-.049 5-1z"/><path style="opacity:1" fill="#bbcff0" d="M223.5 266.5v8l-3 4a41.73 41.73 0 0 1-9 1 13.116 13.116 0 0 1 1-7l2 1c1.591-3.095 3.757-5.762 6.5-8 .671.752 1.504 1.086 2.5 1z"/><path style="opacity:1" fill="#ddd" d="M401.5 263.5c-2.858.095-5.191 1.262-7 3.5-4.52.814-8.854.647-13-.5a72.367 72.367 0 0 0 12-.5c.556-.383.889-.883 1-1.5 1.371-1.641 3.204-2.641 5.5-3 1.03.336 1.53 1.003 1.5 2z"/><path style="opacity:1" fill="#3d3f42" d="M217.5 215.5v39a104.838 104.838 0 0 1-8 4c-.992-.172-1.658.162-2 1l-3 4c-.617.111-1.117.444-1.5 1-.805 3.196-.638 6.196.5 9a17.902 17.902 0 0 0 4 6c-1.333 0-2 .667-2 2h-1c-4.624-4.644-6.124-10.31-4.5-17 1.067-2.192 2.567-3.858 4.5-5a52.928 52.928 0 0 1 7-6h1c.12 1.086.787 1.753 2 2 1.213-.247 1.88-.914 2-2a361.608 361.608 0 0 1 1-38z"/><path style="opacity:1" fill="#434850" d="M274.5 256.5c.397-1.025 1.063-1.192 2-.5.474 1.729 1.474 2.895 3 3.5 1.086.12 1.753.787 2 2-.043.916-.376 1.583-1 2a28.52 28.52 0 0 1-5 6c.065-.438-.101-.772-.5-1-.708.881-1.542 1.547-2.5 2v-1a11.743 11.743 0 0 0 3-5c.652-.949.986-2.115 1-3.5.193-2.008-.474-3.508-2-4.5z"/><path style="opacity:1" fill="#979692" d="M280.5 263.5c-.237 1.291.096 2.291 1 3 .304.65.637 1.317 1 2-2.561.632-4.895 1.632-7 3v-2a28.52 28.52 0 0 0 5-6z"/><path style="opacity:1" fill="#3d3e42" d="M161.5 262.5c.722 1.051 1.722 1.718 3 2a11.743 11.743 0 0 0-3 5h-2l-8-2c2.885.306 5.552-.027 8-1 1.676-.683 2.343-2.017 2-4z"/><path style="opacity:1" fill="#a8a7a6" d="M229.5 263.5c.997-.03 1.664.47 2 1.5-1.653 2.411-.987 3.578 2 3.5l-1 2c-3 .333-4.333-1-4-4 .904-.709 1.237-1.709 1-3z"/><path style="opacity:1" fill="#7d7d7d" d="M608.5 253.5c3-.333 4.333 1 4 4-2.473-.412-3.806.588-4 3a19.22 19.22 0 0 0-1 6h5l2-6a27.748 27.748 0 0 1 5 9v5c-1.459.067-2.792-.266-4-1 .073-1.527-.594-2.527-2-3-2.128-1.129-4.461-1.296-7-.5-.752.671-1.086 1.504-1 2.5a11.803 11.803 0 0 1-3.5 2c-1.03-.336-1.53-1.003-1.5-2v-2c2.681-2.692 4.014-6.025 4-10a73.54 73.54 0 0 1 4-7z"/><path style="opacity:1" fill="#99a1b1" d="M204.5 263.5v2c-.973 2.448-1.306 5.115-1 8-1.138-2.804-1.305-5.804-.5-9 .383-.556.883-.889 1.5-1z"/><path style="opacity:1" fill="#c4c4c4" d="M613.5 270.5c-3.013-.393-5.68.274-8 2-.086-.996.248-1.829 1-2.5 2.539-.796 4.872-.629 7 .5z"/><path style="opacity:1" fill="#a5a4a2" d="M106.5 269.5a31.447 31.447 0 0 1 5 4.5c2.223.566 4.223 1.4 6 2.5-5.511.403-9.178-1.931-11-7z"/><path style="opacity:1" fill="#6f8099" d="M127.5 269.5c-3.195 3.587-7.195 4.754-12 3.5-.556-.383-.889-.883-1-1.5 4.531.35 8.864-.317 13-2z"/><path style="opacity:1" fill="#898989" d="M139.5 269.5c.787 1.604 2.12 2.271 4 2v2c-2.181.216-3.847-.617-5-2.5-2.761-.722-5.427-.555-8 .5 2.488-1.888 5.488-2.555 9-2z"/><path style="opacity:1" fill="#414141" d="M139.5 269.5a94.873 94.873 0 0 1 10 2h-6c-1.88.271-3.213-.396-4-2z"/><path style="opacity:1" fill="#d7e3ee" d="M166.5 265.5a18.453 18.453 0 0 1 6 .5c-3.525.506-6.191 2.339-8 5.5-1.573 3.585-.906 6.585 2 9 .111.617.444 1.117 1 1.5a8.43 8.43 0 0 1-4 .5c-.61-1.934-1.61-3.601-3-5-.961-1.765-1.295-3.765-1-6v-2h2l5-4z"/><path style="opacity:1" fill="#0e0e0e" d="M255.5 268.5v3c-3.227.176-6.227.843-9 2h-2a146.59 146.59 0 0 0-17 2c-1.333 0-2-.667-2-2a81.316 81.316 0 0 0 2.5-3c1.616 1.301 3.116 1.301 4.5 0a180.556 180.556 0 0 1 16-1.5c1.921-.36 3.588-1.194 5-2.5 1.022.355 1.689 1.022 2 2z"/><path style="opacity:1" fill="#d5d5d4" d="M281.5 266.5c1.756 1.052 2.423 2.719 2 5a18.453 18.453 0 0 0-6 .5c-.837 1.011-1.17 2.178-1 3.5a19.22 19.22 0 0 0-6 1l1-2c.992.172 1.658-.162 2-1 1.333 0 2-.667 2-2 2.105-1.368 4.439-2.368 7-3a43.836 43.836 0 0 1-1-2z"/><path style="opacity:1" fill="#e5e5e5" d="M584.5 251.5c-1.312 7.765-1.312 15.432 0 23 1.068.934 2.401 1.268 4 1a32.462 32.462 0 0 1 .5-8c2.719-.944 5.552-1.277 8.5-1-2.107.968-4.441 1.302-7 1v9c-2.568.95-5.068.95-7.5 0l-.5-12.5c.009-4.557.675-8.724 2-12.5z"/><path style="opacity:1" fill="#1f2124" d="M275.5 269.5v2c-1 .333-1.667 1-2 2-2.296-.304-2.629-1.304-1-3 .958-.453 1.792-1.119 2.5-2 .399.228.565.562.5 1z"/><path style="opacity:1" fill="#979797" d="M585.5 253.5c-.33 6.7.003 13.366 1 20a261.12 261.12 0 0 0 2-7.5 40.914 40.914 0 0 1 9-.5v1c-2.948-.277-5.781.056-8.5 1a32.462 32.462 0 0 0-.5 8c-1.599.268-2.932-.066-4-1-.325-7.187.009-14.187 1-21z"/><path style="opacity:1" fill="#757575" d="m637.5 253.5 2 3c-.17 4.775-1.17 5.108-3 1h-1c-.652-1.225-1.819-1.892-3.5-2-4.594.06-6.094 2.06-4.5 6 3.125.979 6.458 1.313 10 1v3a50.464 50.464 0 0 0-10 .5c-1.301 1.616-1.301 3.116 0 4.5 2.448.973 5.115 1.306 8 1 1.499-1.178 2.499-2.845 3-5 2.194 1.815 2.528 3.982 1 6.5-4.872 1.388-9.872 1.888-15 1.5-.166-6.675 0-13.342.5-20 4.066-.964 8.233-1.297 12.5-1z"/><path style="opacity:1" fill="#bebebe" d="M628.5 267.5v3h7v1c-2.885.306-5.552-.027-8-1-.237-1.291.096-2.291 1-3z"/><path style="opacity:1" fill="#efefef" d="M635.5 270.5h-7v-3c2.448-.973 5.115-1.306 8-1 .268 1.599-.066 2.932-1 4z"/><path style="opacity:1" fill="#838383" d="M130.5 271.5c-.473 1.406-1.473 2.073-3 2 .473-1.406 1.473-2.073 3-2z"/><path style="opacity:1" fill="#97a9c9" d="M223.5 263.5c.722.418 1.222 1.084 1.5 2 .497 2.646.664 5.313.5 8-.667 0-1 .333-1 1h-1v-11z"/><path style="opacity:1" fill="#555" d="M255.5 271.5c.667 0 1 .333 1 1-3.307.551-6.64.884-10 1 2.773-1.157 5.773-1.824 9-2z"/><path style="opacity:1" fill="#36373d" d="M255.5 268.5h1c1 .333 1.667 1 2 2 .342.838 1.008 1.172 2 1 .473 1.406 1.473 2.073 3 2 1.052 1.756 2.719 2.423 5 2-1.419.951-3.085 1.284-5 1a5.727 5.727 0 0 0-3-1c-.473-1.406-1.473-2.073-3-2h-1v-1c0-.667-.333-1-1-1v-3z"/><path style="opacity:1" fill="#5a667d" d="M260.5 271.5c3.333 1.333 6.667 1.333 10 0-.333 1-1 1.667-2 2h-5c-1.527.073-2.527-.594-3-2z"/><path style="opacity:1" fill="#797979" d="M275.5 271.5c0 1.333-.667 2-2 2 .333-1 1-1.667 2-2z"/><path style="opacity:1" fill="#e3e3e3" d="M143.5 273.5c-2.105 1.319-4.105.986-6-1-.42 1.826-.42 3.826 0 6-1.915.284-3.581-.049-5-1-1.29-.558-2.123-1.558-2.5-3-1.356.88-2.856 1.214-4.5 1v-1c.992.172 1.658-.162 2-1 1.527.073 2.527-.594 3-2 2.573-1.055 5.239-1.222 8-.5 1.153 1.883 2.819 2.716 5 2.5z"/><path style="opacity:1" fill="#aeadad" d="M143.5 272.5v-1h6a27.195 27.195 0 0 1 5 3h-3c.333 3-1 4.333-4 4v-6h-4z"/><path style="opacity:1" fill="#43484f" d="M272.5 270.5c-1.629 1.696-1.296 2.696 1 3-.342.838-1.008 1.172-2 1a5.727 5.727 0 0 0-3 1v-2c1-.333 1.667-1 2-2 .342-.838 1.008-1.172 2-1z"/><path style="opacity:1" fill="#9aaccc" d="M178.5 267.5c3.162 3.441 3.828 7.441 2 12h-1c.306-2.885-.027-5.552-1-8v-4z"/><path style="opacity:1" fill="#afaeac" d="m183.5 268.5 2 1c.313 3.542-.021 6.875-1 10a39.712 39.712 0 0 0-1-11z"/><path style="opacity:1" fill="#5b5b5b" d="M244.5 273.5v1c-2.932-.216-5.598.451-8 2-3.019-1.326-6.019-1.326-9 0v-1a146.59 146.59 0 0 1 17-2z"/><path style="opacity:1" fill="#929393" d="M257.5 273.5c1.527-.073 2.527.594 3 2h-1c-1-.333-1.667-1-2-2z"/><path style="opacity:1" fill="#20222a" d="M263.5 273.5h5v2c-2.281.423-3.948-.244-5-2z"/><path style="opacity:1" fill="#b5b5b5" d="M600.5 272.5c-.03.997.47 1.664 1.5 2a11.803 11.803 0 0 0 3.5-2c-.622 3.276-2.622 4.609-6 4-.268-1.599.066-2.932 1-4z"/><path style="opacity:1" fill="#989898" d="M256.5 272.5v1c-1.679-.215-2.679.452-3 2-.65.304-1.317.637-2 1-2.023-1.673-4.356-2.34-7-2v-1h2a76.926 76.926 0 0 0 10-1z"/><path style="opacity:1" fill="#c1c1c1" d="M619.5 271.5c.951 1.419 1.284 3.085 1 5h-5v-3c1.208.734 2.541 1.067 4 1v-3z"/><path style="opacity:1" fill="#c8c8c8" d="M623.5 274.5h1c4.134.985 8.468 1.318 13 1-2.141.663-4.475.997-7 1-2.769-.029-5.103-.695-7-2z"/><path style="opacity:1" fill="#c3c2c0" d="M125.5 274.5v1c.6 1.4 1.6 2.4 3 3h-3v3h3v1h-4v-5c-2.559.302-4.893-.032-7-1 2.951.213 5.618-.454 8-2z"/><path style="opacity:1" fill="#cbdaee" d="M166.5 265.5c2.107-.968 4.441-1.302 7-1a11.743 11.743 0 0 1 5 3v4c-.06.543-.393.876-1 1-.895-1.807-2.228-3.14-4-4-1.834 1.254-3.834 1.921-6 2 .117 1.984-.55 3.65-2 5a9.108 9.108 0 0 1 1 5c-2.906-2.415-3.573-5.415-2-9 1.809-3.161 4.475-4.994 8-5.5a18.453 18.453 0 0 0-6-.5z"/><path style="opacity:1" fill="#c9c7c5" d="M259.5 275.5h1a5.727 5.727 0 0 1 3 1v1c-1.291-.237-2.291.096-3 1h-4c1.4-.6 2.4-1.6 3-3z"/><path style="opacity:1" fill="#979591" d="m271.5 274.5-1 2c-2.217.869-4.55 1.202-7 1v-1c1.915.284 3.581-.049 5-1a5.727 5.727 0 0 1 3-1z"/><path style="opacity:1" fill="#58667d" d="M223.5 274.5h1c-.58 2.249-1.913 3.915-4 5v-1l3-4z"/><path style="opacity:1" fill="#c0c0bf" d="M244.5 274.5c2.644-.34 4.977.327 7 2 .683-.363 1.35-.696 2-1-.194 2.412-1.527 3.412-4 3v-3c-6.126.189-12.126.856-18 2v5h-4v-3h-3a6.547 6.547 0 0 1 3-3c2.981-1.326 5.981-1.326 9 0 2.402-1.549 5.068-2.216 8-2z"/><path style="opacity:1" fill="#bdbdbc" d="M154.5 274.5c.997-.03 1.664.47 2 1.5-.83 1.465-.996 2.965-.5 4.5 1.729.474 2.895 1.474 3.5 3a20.69 20.69 0 0 0-5-1v-8z"/><path style="opacity:1" fill="#9c9c9d" d="M128.5 278.5c1.333 1 1.333 2 0 3h-3v-3h3z"/><path style="opacity:1" fill="#efefef" d="M143.5 273.5v-1h4v6c3 .333 4.333-1 4-4h3v8c-1.386 1.652-2.386 2.985-3 4 .284-1.915-.049-3.581-1-5h-3c-.934 1.068-1.268 2.401-1 4-.904-.709-1.237-1.709-1-3h-7c.17 1.322-.163 2.489-1 3.5-1.887.78-3.554.613-5-.5l-4-3v-1c1.333-1 1.333-2 0-3-1.4-.6-2.4-1.6-3-3 1.644.214 3.144-.12 4.5-1 .377 1.442 1.21 2.442 2.5 3 1.419.951 3.085 1.284 5 1-.42-2.174-.42-4.174 0-6 1.895 1.986 3.895 2.319 6 1z"/><path style="opacity:1" fill="#9b9b9b" d="M132.5 277.5v-3h3v3h-3z"/><path style="opacity:1" fill="#a2a2a1" d="M204.5 257.5v2c-1.933 1.142-3.433 2.808-4.5 5-1.624 6.69-.124 12.356 4.5 17-1.606-.859-3.273-1.026-5-.5-1.098-.77-1.098-1.603 0-2.5-1.593-6.523-1.26-12.856 1-19h-3c-.17-1.322.163-2.489 1-3.5 2.216-.393 4.216.107 6 1.5z"/><path style="opacity:1" fill="#8191b0" d="M220.5 278.5v1c-3.448 2.182-7.115 2.516-11 1-.992.172-1.658-.162-2-1h4a41.73 41.73 0 0 0 9-1z"/><path style="opacity:1" fill="#ededed" d="M256.5 273.5h1c.333 1 1 1.667 2 2-.6 1.4-1.6 2.4-3 3v3h4v-3c1.604.787 2.271 2.12 2 4a24.935 24.935 0 0 0-7 .5c-.986 4.335-3.486 5.502-7.5 3.5a8.43 8.43 0 0 1-.5-4h-7c-.342 4.305-2.676 5.805-7 4.5a36.354 36.354 0 0 0-2-4.5v-5a112.088 112.088 0 0 1 18-2v3c2.473.412 3.806-.588 4-3 .321-1.548 1.321-2.215 3-2z"/><path style="opacity:1" fill="#a1a1a1" d="M256.5 278.5h4v3h-4v-3zM139.5 277.5h4v4h-4v-4z"/><path style="opacity:1" fill="#a1a19e" d="M184.5 279.5c0 1.333-.667 2-2 2 0-1.333.667-2 2-2z"/><path style="opacity:1" fill="#1c1f21" d="M207.5 279.5c.342.838 1.008 1.172 2 1 .61.891.943 1.891 1 3-2.014.108-3.68-.558-5-2 0-1.333.667-2 2-2z"/><path style="opacity:1" fill="#a6a6a6" d="M241.5 278.5h5v3h-5v-3z"/><path style="opacity:1" fill="#bdd0ef" d="M178.5 271.5c.973 2.448 1.306 5.115 1 8l-3 4a41.73 41.73 0 0 1-9 1c-1.653-.16-2.986-.826-4-2a8.43 8.43 0 0 0 4-.5c-.556-.383-.889-.883-1-1.5a9.108 9.108 0 0 0-1-5c1.45-1.35 2.117-3.016 2-5 2.166-.079 4.166-.746 6-2 1.772.86 3.105 2.193 4 4 .607-.124.94-.457 1-1z"/><path style="opacity:1" fill="#d9d9d9" d="M199.5 278.5c-1.098.897-1.098 1.73 0 2.5 1.727-.526 3.394-.359 5 .5h1v2a24.93 24.93 0 0 0-8-1c-.343-1.983.324-3.317 2-4z"/><path style="opacity:1" fill="#3d4248" d="M225.5 273.5c0 1.333.667 2 2 2v1a6.547 6.547 0 0 0-3 3c-1.174 1.014-1.84 2.347-2 4h-12a5.727 5.727 0 0 0-1-3c3.885 1.516 7.552 1.182 11-1 2.087-1.085 3.42-2.751 4-5 0-.667.333-1 1-1z"/><path style="opacity:1" fill="#a2a2a2" d="M234.5 281.5h4v4c-3 .333-4.333-1-4-4z"/><path style="opacity:1" fill="#a1a1a1" d="M132.5 285.5v-4h4v4h-4z"/><path style="opacity:1" fill="#afabaa" d="M182.5 281.5c-.212 3.212-1.879 5.212-5 6 1.696-2.025 3.363-4.025 5-6z"/><path style="opacity:1" fill="#8b8a87" d="M205.5 281.5c1.32 1.442 2.986 2.108 5 2h12c-5.567 1.304-11.234 1.304-17 0v-2z"/><path style="opacity:1" fill="#afafab" d="M159.5 283.5a6.547 6.547 0 0 1 3 3c-2 0-3-1-3-3z"/><path style="opacity:1" fill="#cfcecc" d="M224.5 279.5c.239 1.967-.094 3.801-1 5.5l-9 .5c-3.413-.017-6.413-.684-9-2 5.766 1.304 11.433 1.304 17 0 .16-1.653.826-2.986 2-4z"/><path style="opacity:1" fill="#b9b9b9" d="M249.5 281.5v3h3v-3c.934 1.068 1.268 2.401 1 4h-5c-.268-1.599.066-2.932 1-4z"/><path style="opacity:1" fill="#949494" d="M249.5 281.5h3v3h-3v-3z"/><path style="opacity:1" fill="#ccc" d="M147.5 281.5v3h3v-3c.951 1.419 1.284 3.085 1 5-1.792.134-3.458-.199-5-1-.268-1.599.066-2.932 1-4z"/><path style="opacity:1" fill="#949494" d="M147.5 281.5h3v3h-3v-3z"/><path style="opacity:1" fill="#414449" d="M172.5 261.5c2.711-.315 5.044.352 7 2h1c.61 1.934 1.61 3.601 3 5a39.712 39.712 0 0 1 1 11c-1.333 0-2 .667-2 2a1526.925 1526.925 0 0 1-5 6c-5.136 1.503-10.136 1.17-15-1a6.547 6.547 0 0 0-3-3c-.605-1.526-1.771-2.526-3.5-3-.496-1.535-.33-3.035.5-4.5-.336-1.03-1.003-1.53-2-1.5a27.195 27.195 0 0 0-5-3c2.772-.28 5.272.387 7.5 2 .708-.881 1.542-1.547 2.5-2-.295 2.235.039 4.235 1 6-.227 2.433.773 4.099 3 5 1.014 1.174 2.347 1.84 4 2 .949.652 2.115.986 3.5 1 2.221.107 4.054-.56 5.5-2 2.333-.333 3.667-1.667 4-4 1.828-4.559 1.162-8.559-2-12a11.743 11.743 0 0 0-5-3c0-.667-.333-1-1-1v-2z"/><path style="opacity:1" fill="#7e8ead" d="M176.5 283.5c-1.446 1.44-3.279 2.107-5.5 2-1.385-.014-2.551-.348-3.5-1a41.73 41.73 0 0 0 9-1z"/><path style="opacity:1" fill="#4c5c70" d="M179.5 279.5h1c-.333 2.333-1.667 3.667-4 4l3-4z"/><path style="opacity:1" fill="#94a0ac" d="M160.5 277.5c1.39 1.399 2.39 3.066 3 5-2.227-.901-3.227-2.567-3-5z"/><path style="opacity:1" fill="#b6b5b5" d="M162.5 286.5c4.864 2.17 9.864 2.503 15 1-1.897 1.305-4.231 1.971-7 2l-7-1a43.836 43.836 0 0 1-1-2z"/></svg>