<?xml version="1.0" encoding="UTF-8"?>
<!DOCTYPE svg PUBLIC "-//W3C//DTD SVG 1.1//EN" "http://www.w3.org/Graphics/SVG/1.1/DTD/svg11.dtd">
<svg xmlns="http://www.w3.org/2000/svg" version="1.1" width="342px" height="176px" style="shape-rendering:geometricPrecision; text-rendering:geometricPrecision; image-rendering:optimizeQuality; fill-rule:evenodd; clip-rule:evenodd" xmlns:xlink="http://www.w3.org/1999/xlink">
<g><path style="opacity:1" fill="#2a614e" d="M -0.5,-0.5 C 113.5,-0.5 227.5,-0.5 341.5,-0.5C 341.5,12.1667 341.5,24.8333 341.5,37.5C 340.21,38.0577 339.377,39.0577 339,40.5C 338.316,39.2161 338.483,38.0495 339.5,37C 339,36.5 338.5,36 338,35.5C 336.316,37.0656 334.316,38.0656 332,38.5C 329.455,37.6234 326.955,36.6234 324.5,35.5C 320.774,35.1774 317.107,35.5108 313.5,36.5C 310.158,45.5285 306.825,54.5285 303.5,63.5C 302.193,62.8466 300.86,62.1799 299.5,61.5C 299.167,62.1667 298.833,62.8333 298.5,63.5C 296.899,62.8346 295.399,62.5012 294,62.5C 293.333,65.1667 292.667,65.1667 292,62.5C 289.167,63.8696 286.5,63.5363 284,61.5C 283.333,65.5 282.667,65.5 282,61.5C 281.333,62.1667 280.667,62.8333 280,63.5C 276.935,62.5888 274.102,62.5888 271.5,63.5C 270.167,62.8333 268.833,62.1667 267.5,61.5C 267.167,62.1667 266.833,62.8333 266.5,63.5C 264.899,62.8346 263.399,62.5012 262,62.5C 261.333,65.1667 260.667,65.1667 260,62.5C 257.226,63.523 254.393,63.523 251.5,62.5C 248.298,53.5621 245.298,44.5621 242.5,35.5C 238.298,35.1832 234.298,35.5166 230.5,36.5C 229.685,37.8366 228.518,38.8366 227,39.5C 225.863,38.636 224.53,37.636 223,36.5C 222.131,39.7626 220.797,40.0959 219,37.5C 217.87,38.1136 216.537,38.1136 215,37.5C 212.812,37.354 211.479,38.354 211,40.5C 210.316,39.2161 210.483,38.0495 211.5,37C 211,36.5 210.5,36 210,35.5C 207.123,38.4875 204.123,38.8208 201,36.5C 198.912,37.3081 196.912,38.3081 195,39.5C 193.863,38.636 192.53,37.636 191,36.5C 190.131,39.7626 188.797,40.0959 187,37.5C 185.044,37.7845 182.877,37.7845 180.5,37.5C 180.389,36.8826 180.056,36.3826 179.5,36C 176.167,35.3333 172.833,35.3333 169.5,36C 168.944,36.3826 168.611,36.8826 168.5,37.5C 166.418,37.472 164.584,38.1387 163,39.5C 161.863,38.636 160.53,37.636 159,36.5C 158.131,39.7626 156.797,40.0959 155,37.5C 153.87,38.1136 152.537,38.1136 151,37.5C 148.812,37.354 147.479,38.354 147,40.5C 146.316,39.2161 146.483,38.0495 147.5,37C 147,36.5 146.5,36 146,35.5C 143.123,38.4875 140.123,38.8208 137,36.5C 134.912,37.3081 132.912,38.3081 131,39.5C 129.863,38.636 128.53,37.636 127,36.5C 126.131,39.7626 124.797,40.0959 123,37.5C 121.87,38.1136 120.537,38.1136 119,37.5C 116.812,37.354 115.479,38.354 115,40.5C 114.316,39.2161 114.483,38.0495 115.5,37C 115,36.5 114.5,36 114,35.5C 111.123,38.4875 108.123,38.8208 105,36.5C 102.912,37.3081 100.912,38.3081 99,39.5C 97.8631,38.636 96.5298,37.636 95,36.5C 94.1305,39.7626 92.7972,40.0959 91,37.5C 89.87,38.1136 88.5366,38.1136 87,37.5C 84.8121,37.354 83.4788,38.354 83,40.5C 82.3162,39.2161 82.4829,38.0495 83.5,37C 83,36.5 82.5,36 82,35.5C 79.1228,38.4875 76.1228,38.8208 73,36.5C 72.6174,37.056 72.1174,37.3893 71.5,37.5C 71.3893,36.8826 71.056,36.3826 70.5,36C 67.1667,35.3333 63.8333,35.3333 60.5,36C 59.9341,36.9947 59.2674,37.828 58.5,38.5C 55.2549,36.7116 52.7549,37.3782 51,40.5C 50.3162,39.2161 50.4829,38.0495 51.5,37C 51,36.5 50.5,36 50,35.5C 47.1228,38.4875 44.1228,38.8208 41,36.5C 38.9124,37.3081 36.9124,38.3081 35,39.5C 33.8631,38.636 32.5298,37.636 31,36.5C 30.1305,39.7626 28.7972,40.0959 27,37.5C 25.87,38.1136 24.5366,38.1136 23,37.5C 20.8121,37.354 19.4788,38.354 19,40.5C 18.3162,39.2161 18.4829,38.0495 19.5,37C 19,36.5 18.5,36 18,35.5C 15.1228,38.4875 12.1228,38.8208 9,36.5C 6.91243,37.3081 4.91243,38.3081 3,39.5C 2.66667,38.8333 2.33333,38.1667 2,37.5C 1.23029,38.5981 0.396953,38.5981 -0.5,37.5C -0.5,24.8333 -0.5,12.1667 -0.5,-0.5 Z"/></g>
<g><path style="opacity:1" fill="#f9fbfa" d="M 71.5,37.5 C 74.5014,45.5049 77.5014,53.5049 80.5,61.5C 91.2968,90.5542 102.297,119.554 113.5,148.5C 110.232,149.487 106.898,149.82 103.5,149.5C 100.558,143.282 97.8909,136.949 95.5,130.5C 94.1625,126.155 92.8292,121.822 91.5,117.5C 74.1539,117.167 56.8205,117.5 39.5,118.5C 35.9624,127.781 32.629,137.114 29.5,146.5C 29.0679,147.71 28.4013,148.71 27.5,149.5C 24.1016,149.82 20.7683,149.487 17.5,148.5C 23.5082,132.805 29.5082,117.138 35.5,101.5C 43.4518,80.5979 51.1185,59.5979 58.5,38.5C 59.2674,37.828 59.9341,36.9947 60.5,36C 63.8333,35.3333 67.1667,35.3333 70.5,36C 71.056,36.3826 71.3893,36.8826 71.5,37.5 Z"/></g>
<g><path style="opacity:1" fill="#f9fbfa" d="M 180.5,37.5 C 194.209,74.5889 208.209,111.589 222.5,148.5C 218.833,149.833 215.167,149.833 211.5,148.5C 207.625,138.207 203.959,127.874 200.5,117.5C 183.154,117.167 165.821,117.5 148.5,118.5C 144.833,128.5 141.167,138.5 137.5,148.5C 133.833,149.833 130.167,149.833 126.5,148.5C 137.743,120.02 148.41,91.3536 158.5,62.5C 162.206,54.397 165.539,46.0636 168.5,37.5C 168.611,36.8826 168.944,36.3826 169.5,36C 172.833,35.3333 176.167,35.3333 179.5,36C 180.056,36.3826 180.389,36.8826 180.5,37.5 Z"/></g>
<g><path style="opacity:1" fill="#2c6550" d="M 168.5,37.5 C 165.539,46.0636 162.206,54.397 158.5,62.5C 157.504,62.5858 156.671,62.2524 156,61.5C 155.333,65.5 154.667,65.5 154,61.5C 153.333,62.1667 152.667,62.8333 152,63.5C 148.935,62.5888 146.102,62.5888 143.5,63.5C 142.167,62.8333 140.833,62.1667 139.5,61.5C 139.167,62.1667 138.833,62.8333 138.5,63.5C 136.899,62.8346 135.399,62.5012 134,62.5C 133.333,65.1667 132.667,65.1667 132,62.5C 129.167,63.8696 126.5,63.5363 124,61.5C 123.333,65.5 122.667,65.5 122,61.5C 121.333,62.1667 120.667,62.8333 120,63.5C 116.935,62.5888 114.102,62.5888 111.5,63.5C 110.167,62.8333 108.833,62.1667 107.5,61.5C 107.167,62.1667 106.833,62.8333 106.5,63.5C 104.899,62.8346 103.399,62.5012 102,62.5C 101.333,65.1667 100.667,65.1667 100,62.5C 97.1669,63.8696 94.5002,63.5363 92,61.5C 91.3333,65.5 90.6667,65.5 90,61.5C 89.3333,62.1667 88.6667,62.8333 88,63.5C 85.5644,62.6453 83.0644,61.9787 80.5,61.5C 77.5014,53.5049 74.5014,45.5049 71.5,37.5C 72.1174,37.3893 72.6174,37.056 73,36.5C 76.1228,38.8208 79.1228,38.4875 82,35.5C 82.5,36 83,36.5 83.5,37C 82.4829,38.0495 82.3162,39.2161 83,40.5C 83.4788,38.354 84.8121,37.354 87,37.5C 88.5366,38.1136 89.87,38.1136 91,37.5C 92.7972,40.0959 94.1305,39.7626 95,36.5C 96.5298,37.636 97.8631,38.636 99,39.5C 100.912,38.3081 102.912,37.3081 105,36.5C 108.123,38.8208 111.123,38.4875 114,35.5C 114.5,36 115,36.5 115.5,37C 114.483,38.0495 114.316,39.2161 115,40.5C 115.479,38.354 116.812,37.354 119,37.5C 120.537,38.1136 121.87,38.1136 123,37.5C 124.797,40.0959 126.131,39.7626 127,36.5C 128.53,37.636 129.863,38.636 131,39.5C 132.912,38.3081 134.912,37.3081 137,36.5C 140.123,38.8208 143.123,38.4875 146,35.5C 146.5,36 147,36.5 147.5,37C 146.483,38.0495 146.316,39.2161 147,40.5C 147.479,38.354 148.812,37.354 151,37.5C 152.537,38.1136 153.87,38.1136 155,37.5C 156.797,40.0959 158.131,39.7626 159,36.5C 160.53,37.636 161.863,38.636 163,39.5C 164.584,38.1387 166.418,37.472 168.5,37.5 Z"/></g>
<g><path style="opacity:1" fill="#2d6752" d="M 58.5,38.5 C 51.1185,59.5979 43.4518,80.5979 35.5,101.5C 31.6823,100.219 27.849,99.219 24,98.5C 23.2131,99.7107 22.5464,100.711 22,101.5C 21.4536,100.711 20.7869,99.7107 20,98.5C 19.6827,100.301 19.016,100.634 18,99.5C 15.5769,101.994 13.2436,101.994 11,99.5C 10.6667,100.167 10.3333,100.833 10,101.5C 9.33333,100.167 8.66667,100.167 8,101.5C 7.66667,100.5 7.33333,99.5 7,98.5C 4.98222,101.251 2.48222,101.918 -0.5,100.5C -0.5,79.5 -0.5,58.5 -0.5,37.5C 0.396953,38.5981 1.23029,38.5981 2,37.5C 2.33333,38.1667 2.66667,38.8333 3,39.5C 4.91243,38.3081 6.91243,37.3081 9,36.5C 12.1228,38.8208 15.1228,38.4875 18,35.5C 18.5,36 19,36.5 19.5,37C 18.4829,38.0495 18.3162,39.2161 19,40.5C 19.4788,38.354 20.8121,37.354 23,37.5C 24.5366,38.1136 25.87,38.1136 27,37.5C 28.7972,40.0959 30.1305,39.7626 31,36.5C 32.5298,37.636 33.8631,38.636 35,39.5C 36.9124,38.3081 38.9124,37.3081 41,36.5C 44.1228,38.8208 47.1228,38.4875 50,35.5C 50.5,36 51,36.5 51.5,37C 50.4829,38.0495 50.3162,39.2161 51,40.5C 52.7549,37.3782 55.2549,36.7116 58.5,38.5 Z"/></g>
<g><path style="opacity:1" fill="#306b55" d="M 64.5,49.5 C 66.284,50.5738 67.4506,52.2404 68,54.5C 74.2049,72.282 80.7049,89.9487 87.5,107.5C 72.8333,108.833 58.1667,108.833 43.5,107.5C 50.5137,88.1456 57.5137,68.8123 64.5,49.5 Z"/></g>
<g><path style="opacity:1" fill="#306b55" d="M 173.5,49.5 C 175.284,50.5738 176.451,52.2404 177,54.5C 183.205,72.282 189.705,89.9487 196.5,107.5C 181.833,108.833 167.167,108.833 152.5,107.5C 159.514,88.1456 166.514,68.8123 173.5,49.5 Z"/></g>
<g><path style="opacity:1" fill="#2e6b55" d="M 35.5,101.5 C 29.5082,117.138 23.5082,132.805 17.5,148.5C 20.7683,149.487 24.1016,149.82 27.5,149.5C 24.6906,158.371 25.3573,167.038 29.5,175.5C 19.5,175.5 9.5,175.5 -0.5,175.5C -0.5,150.5 -0.5,125.5 -0.5,100.5C 2.48222,101.918 4.98222,101.251 7,98.5C 7.33333,99.5 7.66667,100.5 8,101.5C 8.66667,100.167 9.33333,100.167 10,101.5C 10.3333,100.833 10.6667,100.167 11,99.5C 13.2436,101.994 15.5769,101.994 18,99.5C 19.016,100.634 19.6827,100.301 20,98.5C 20.7869,99.7107 21.4536,100.711 22,101.5C 22.5464,100.711 23.2131,99.7107 24,98.5C 27.849,99.219 31.6823,100.219 35.5,101.5 Z"/></g>
<g><path style="opacity:1" fill="#2e6a55" d="M 230.5,36.5 C 245.268,73.7945 259.268,111.461 272.5,149.5C 276.106,149.789 279.606,149.456 283,148.5C 297.336,110.99 311.169,73.3234 324.5,35.5C 326.955,36.6234 329.455,37.6234 332,38.5C 334.316,38.0656 336.316,37.0656 338,35.5C 338.5,36 339,36.5 339.5,37C 338.483,38.0495 338.316,39.2161 339,40.5C 339.377,39.0577 340.21,38.0577 341.5,37.5C 341.5,75.8333 341.5,114.167 341.5,152.5C 335.601,159.95 329.935,167.617 324.5,175.5C 249.167,175.5 173.833,175.5 98.5,175.5C 102.723,167.382 104.39,158.716 103.5,149.5C 106.898,149.82 110.232,149.487 113.5,148.5C 102.297,119.554 91.2968,90.5542 80.5,61.5C 83.0644,61.9787 85.5644,62.6453 88,63.5C 88.6667,62.8333 89.3333,62.1667 90,61.5C 90.6667,65.5 91.3333,65.5 92,61.5C 94.5002,63.5363 97.1669,63.8696 100,62.5C 100.667,65.1667 101.333,65.1667 102,62.5C 103.399,62.5012 104.899,62.8346 106.5,63.5C 106.833,62.8333 107.167,62.1667 107.5,61.5C 108.833,62.1667 110.167,62.8333 111.5,63.5C 114.102,62.5888 116.935,62.5888 120,63.5C 120.667,62.8333 121.333,62.1667 122,61.5C 122.667,65.5 123.333,65.5 124,61.5C 126.5,63.5363 129.167,63.8696 132,62.5C 132.667,65.1667 133.333,65.1667 134,62.5C 135.399,62.5012 136.899,62.8346 138.5,63.5C 138.833,62.8333 139.167,62.1667 139.5,61.5C 140.833,62.1667 142.167,62.8333 143.5,63.5C 146.102,62.5888 148.935,62.5888 152,63.5C 152.667,62.8333 153.333,62.1667 154,61.5C 154.667,65.5 155.333,65.5 156,61.5C 156.671,62.2524 157.504,62.5858 158.5,62.5C 148.41,91.3536 137.743,120.02 126.5,148.5C 130.167,149.833 133.833,149.833 137.5,148.5C 141.167,138.5 144.833,128.5 148.5,118.5C 165.821,117.5 183.154,117.167 200.5,117.5C 203.959,127.874 207.625,138.207 211.5,148.5C 215.167,149.833 218.833,149.833 222.5,148.5C 208.209,111.589 194.209,74.5889 180.5,37.5C 182.877,37.7845 185.044,37.7845 187,37.5C 188.797,40.0959 190.131,39.7626 191,36.5C 192.53,37.636 193.863,38.636 195,39.5C 196.912,38.3081 198.912,37.3081 201,36.5C 204.123,38.8208 207.123,38.4875 210,35.5C 210.5,36 211,36.5 211.5,37C 210.483,38.0495 210.316,39.2161 211,40.5C 211.479,38.354 212.812,37.354 215,37.5C 216.537,38.1136 217.87,38.1136 219,37.5C 220.797,40.0959 222.131,39.7626 223,36.5C 224.53,37.636 225.863,38.636 227,39.5C 228.518,38.8366 229.685,37.8366 230.5,36.5 Z"/></g>
<g><path style="opacity:1" fill="#fafbfb" d="M 230.5,36.5 C 234.298,35.5166 238.298,35.1832 242.5,35.5C 245.298,44.5621 248.298,53.5621 251.5,62.5C 260.423,86.7667 269.256,111.1 278,135.5C 286.409,111.439 294.909,87.4387 303.5,63.5C 306.825,54.5285 310.158,45.5285 313.5,36.5C 317.107,35.5108 320.774,35.1774 324.5,35.5C 311.169,73.3234 297.336,110.99 283,148.5C 279.606,149.456 276.106,149.789 272.5,149.5C 259.268,111.461 245.268,73.7945 230.5,36.5 Z"/></g>
<g><path style="opacity:1" fill="#2e6954" d="M 303.5,63.5 C 294.909,87.4387 286.409,111.439 278,135.5C 269.256,111.1 260.423,86.7667 251.5,62.5C 254.393,63.523 257.226,63.523 260,62.5C 260.667,65.1667 261.333,65.1667 262,62.5C 263.399,62.5012 264.899,62.8346 266.5,63.5C 266.833,62.8333 267.167,62.1667 267.5,61.5C 268.833,62.1667 270.167,62.8333 271.5,63.5C 274.102,62.5888 276.935,62.5888 280,63.5C 280.667,62.8333 281.333,62.1667 282,61.5C 282.667,65.5 283.333,65.5 284,61.5C 286.5,63.5363 289.167,63.8696 292,62.5C 292.667,65.1667 293.333,65.1667 294,62.5C 295.399,62.5012 296.899,62.8346 298.5,63.5C 298.833,62.8333 299.167,62.1667 299.5,61.5C 300.86,62.1799 302.193,62.8466 303.5,63.5 Z"/></g>
<g><path style="opacity:1" fill="#336e58" d="M 95.5,130.5 C 89.9464,126.892 83.9464,124.058 77.5,122C 66.3019,120.299 56.3019,122.966 47.5,130C 41.1956,135.293 35.1956,140.793 29.5,146.5C 32.629,137.114 35.9624,127.781 39.5,118.5C 56.8205,117.5 74.1539,117.167 91.5,117.5C 92.8292,121.822 94.1625,126.155 95.5,130.5 Z"/></g>
<g><path style="opacity:1" fill="#2c6554" d="M 95.5,130.5 C 97.8909,136.949 100.558,143.282 103.5,149.5C 104.39,158.716 102.723,167.382 98.5,175.5C 75.5,175.5 52.5,175.5 29.5,175.5C 25.3573,167.038 24.6906,158.371 27.5,149.5C 28.4013,148.71 29.0679,147.71 29.5,146.5C 35.1956,140.793 41.1956,135.293 47.5,130C 56.3019,122.966 66.3019,120.299 77.5,122C 83.9464,124.058 89.9464,126.892 95.5,130.5 Z"/></g>
<g><path style="opacity:1" fill="#2a6254" d="M 341.5,152.5 C 341.5,160.167 341.5,167.833 341.5,175.5C 335.833,175.5 330.167,175.5 324.5,175.5C 329.935,167.617 335.601,159.95 341.5,152.5 Z"/></g>
</svg>
