<svg xmlns="http://www.w3.org/2000/svg" width="200" height="200" style="shape-rendering:geometricPrecision;text-rendering:geometricPrecision;image-rendering:optimizeQuality;fill-rule:evenodd;clip-rule:evenodd"><path style="opacity:.969" fill="#040409" d="M34.5-.5h130c18.667 4.667 30.333 16.333 35 35v130c-4.667 18.667-16.333 30.333-35 35h-130c-18.667-4.667-30.333-16.333-35-35v-130c4.667-18.667 16.333-30.333 35-35z"/><path style="opacity:.588" fill="#5e5efd" d="M36.5 5.5c42.001-.167 84.001 0 126 .5 16.833 3.5 27 13.667 30.5 30.5.667 42 .667 84 0 126-3.5 16.833-13.667 27-30.5 30.5-42 .667-84 .667-126 0-16.833-3.5-27-13.667-30.5-30.5-.667-42-.667-84 0-126 3.68-16.847 13.847-27.18 30.5-31z"/><path style="opacity:1" fill="#040309" d="M41.5 16.5h6a498.514 498.514 0 0 0 19.5 48c1.7.906 3.533 1.24 5.5 1v4h-26v-4h5c.933-9.166-3.067-12.833-12-11-9.338-2.167-12.504 1.166-9.5 10 1.7.906 3.533 1.24 5.5 1v4h-20v-4c2.763-.244 4.93-1.577 6.5-4a58174.82 58174.82 0 0 1 19.5-45z"/><path style="opacity:1" fill="#04030a" d="M93.5 17.5c6.968-.696 13.634.304 20 3 1.746-2.354 4.079-3.354 7-3 .112 6.68.446 13.347 1 20h-5c-1.953-13.133-9.287-17.966-22-14.5-3.685 3.698-5.852 8.198-6.5 13.5-.96 8.243.04 16.243 3 24 7.56 7.856 15.226 7.856 23 0 1.766-2.381 2.932-5.048 3.5-8 1.545-.952 3.212-1.285 5-1-1.713 10.004-7.38 16.17-17 18.5-16.47 3.02-26.97-3.48-31.5-19.5-2.155-16.385 4.345-27.385 19.5-33z"/><path style="opacity:1" fill="#030207" d="M148.5 17.5c24.028-1.804 35.195 9.196 33.5 33-1.859 6.861-5.692 12.361-11.5 16.5a137.102 137.102 0 0 1 4 8.5c3.94 1.736 5.607.403 5-4h4c-.162 7.828-4.162 11.495-12 11-7.911.09-11.911-3.91-12-12-24.653-.897-34.153-13.564-28.5-38 3.92-7.434 9.754-12.434 17.5-15z"/><path style="opacity:.588" fill="#5c5cf7" d="M151.5 21.5c6.301-1.186 11.134.814 14.5 6a63.75 63.75 0 0 1 2.5 16.5c.191 3.709-.475 7.209-2 10.5-5.286-4.91-11.286-6.077-18-3.5a11.532 11.532 0 0 0-3.5 4.5l-1-1a121.19 121.19 0 0 1 0-22c1.056-4.818 3.556-8.485 7.5-11z"/><path style="opacity:.588" fill="#5757ea" d="M39.5 32.5c2.31 5.232 4.643 10.566 7 16-4.667 1.333-9.333 1.333-14 0a121.717 121.717 0 0 0 7-16z"/><path style="opacity:.588" fill="#5a5af2" d="M151.5 53.5c4.183-.654 7.016 1.012 8.5 5 .769 2.6.602 5.1-.5 7.5-8.258 2.718-12.091-.115-11.5-8.5.69-1.85 1.856-3.184 3.5-4z"/><path style="opacity:.753" fill="#2e2e7d" d="M139.5 74.5a1296.171 1296.171 0 0 1 1 72c3.871-.315 7.538.018 11 1h-12v-73z"/><path style="opacity:1" fill="#1b1a1e" d="M139.5 74.5v73h12v20h-11c-.99 6.145-1.323 12.478-1 19h-45c.323-6.522-.01-12.855-1-19h-52c-.166-6.675 0-13.342.5-20a16479.572 16479.572 0 0 1 21-41c.708-.881 1.542-1.547 2.5-2a60.91 60.91 0 0 1 3.5-10 130.544 130.544 0 0 0 10.5-19c19.989-1 39.989-1.333 60-1z"/><path style="opacity:1" fill="#e6e8f6" d="M150.5 165.5h-13v20h-42v-20h-52c-.166-6.342 0-12.675.5-19a1254.682 1254.682 0 0 0 21.5-42 279.281 279.281 0 0 0 15-28 813.13 813.13 0 0 1 57-1v73h13v17z"/><path style="opacity:1" fill="#141418" d="M90.5 111.5c.473-3.952 1.806-7.619 4-11 1 15.986 1.333 31.986 1 48-7.008.166-14.008 0-21-.5a608.004 608.004 0 0 1 16-36.5z"/><path style="opacity:.588" fill="#5d5dfa" d="M92.5 108.5a361.581 361.581 0 0 1 1 38c-5.526.321-10.86-.012-16-1a530.484 530.484 0 0 0 13-34c.901-.79 1.568-1.79 2-3z"/><path style="opacity:.765" fill="#35358e" d="M77.5 145.5c5.14.988 10.474 1.321 16 1a361.581 361.581 0 0 0-1-38l1.5-3c.5 13.996.667 27.996.5 42a81.884 81.884 0 0 1-18-1c.124-.607.457-.94 1-1z"/><path style="opacity:1" fill="#5d5d64" d="M150.5 165.5c-3.798.983-7.798 1.317-12 1 .323 6.522-.01 12.855-1 19v-20h13z"/><path style="opacity:.8" fill="#2e2e7d" d="M93.5 167.5c.99 6.145 1.323 12.478 1 19h45c-.323-6.522.01-12.855 1-19v20h-47v-20z"/></svg>