<svg xmlns="http://www.w3.org/2000/svg" width="200" height="200" style="shape-rendering:geometricPrecision;text-rendering:geometricPrecision;image-rendering:optimizeQuality;fill-rule:evenodd;clip-rule:evenodd"><path style="opacity:1" fill="#fefefe" d="M-.5-.5h200v200H-.5V-.5z"/><path style="opacity:1" fill="#63a6cd" d="M125.5 53.5v1a136.231 136.231 0 0 0-13 18c4.257-23.808-3.743-42.141-24-55 5.101-2.425 10.435-3.259 16-2.5 11.569 10.301 18.569 23.135 21 38.5z"/><path style="opacity:1" fill="#867ca3" d="M123.5 77.5a91.32 91.32 0 0 0 2-23v-1c9.298-9.657 20.298-16.824 33-21.5 2-.667 4-.667 6 0a80.563 80.563 0 0 0 9 8c-22.829 4.552-39.496 17.052-50 37.5z"/><path style="opacity:1" fill="#335184" d="M125.5 54.5a91.32 91.32 0 0 1-2 23l-4 11a85.323 85.323 0 0 1-13 18h-1a94.008 94.008 0 0 1 3-22 126.64 126.64 0 0 0 4-12 136.231 136.231 0 0 1 13-18z"/><path style="opacity:1" fill="#61a5cb" d="M108.5 84.5a94.008 94.008 0 0 0-3 22 26.002 26.002 0 0 1-7 5 93.853 93.853 0 0 0-22-2c14.004-4.009 24.671-12.342 32-25z"/><path style="opacity:1" fill="#847ba2" d="M119.5 88.5c-2.877 13.839-2.211 27.506 2 41-4.083-5.418-9.083-9.751-15-13v-10a85.323 85.323 0 0 0 13-18z"/><path style="opacity:1" fill="#62a6cd" d="M68.5 110.5a119.21 119.21 0 0 0-18 10c-8.795-1.652-16.628-5.319-23.5-11a64.247 64.247 0 0 1 0-16c11.045 12.438 24.879 18.105 41.5 17z"/><path style="opacity:1" fill="#eceef0" d="M105.5 106.5h1v9l-8-3v-1a26.002 26.002 0 0 0 7-5z"/><path style="opacity:1" fill="#2c6934" d="M76.5 109.5a93.853 93.853 0 0 1 22 2v1a195.797 195.797 0 0 1-17 8 76.254 76.254 0 0 0-12 2c-6.357.024-12.69-.31-19-1v-1a119.21 119.21 0 0 1 18-10 41.541 41.541 0 0 0 8-1z"/><path style="opacity:1" fill="#759f43" d="m98.5 112.5 8 3v1a132.762 132.762 0 0 0 5 19c-7.829-9.248-17.83-14.248-30-15a195.797 195.797 0 0 0 17-8z"/><path style="opacity:1" fill="#3d4e2b" d="M106.5 116.5c5.917 3.249 10.917 7.582 15 13l6 12a69.584 69.584 0 0 1 2 20 138.291 138.291 0 0 1-13-15 81.694 81.694 0 0 0-5-11 132.762 132.762 0 0 1-5-19z"/><path style="opacity:1" fill="#76a143" d="M50.5 121.5c6.31.69 12.643 1.024 19 1-13.24 6.093-21.074 16.426-23.5 31-3.843-3.689-6.676-8.022-8.5-13 2.404-7.723 6.737-14.056 13-19z"/><path style="opacity:1" fill="#867ca3" d="M127.5 141.5c8.398 12.226 19.398 21.393 33 27.5a39.12 39.12 0 0 1-11.5 6.5 86.8 86.8 0 0 1-19.5-13v-1a69.584 69.584 0 0 0-2-20z"/><path style="opacity:1" fill="#76a144" d="M116.5 146.5a138.291 138.291 0 0 0 13 15v1c-1.349 7.886-4.349 15.053-9 21.5-5 .667-10 .667-15 0 10.772-10.324 14.438-22.824 11-37.5z"/></svg>