<svg xmlns="http://www.w3.org/2000/svg" width="844" height="470" style="shape-rendering:geometricPrecision;text-rendering:geometricPrecision;image-rendering:optimizeQuality;fill-rule:evenodd;clip-rule:evenodd"><path style="opacity:1" fill="#fdfdfd" d="M-.5-.5h844v470H-.5V-.5z"/><path style="opacity:1" fill="#fafafa" d="M196.5 35.5c.167 14.337 0 28.67-.5 43a6.977 6.977 0 0 1-2.5 3.5 1816.117 1816.117 0 0 1-84.5 1.5L27.5 83a11.529 11.529 0 0 1-3.5-4.5 968.43 968.43 0 0 1-.5-44c.875-3.041 2.875-4.875 6-5.5a6480.176 6480.176 0 0 1 161 0c3.589.754 5.589 2.92 6 6.5z"/><path style="opacity:1" fill="#f9f9f9" d="M503.5 28.5c2.728 1.57 4.562 3.903 5.5 7a420.29 420.29 0 0 1 0 41c-.938 3.097-2.772 5.43-5.5 7-63.001.167-126.001 0-189-.5-2.167-.833-3.667-2.333-4.5-4.5-.667-15-.667-30 0-45 .93-2.052 2.43-3.552 4.5-4.5 62.999-.5 125.999-.667 189-.5z"/><path style="opacity:1" fill="#585858" d="M504.5 27.5c3.345 1.18 5.511 3.513 6.5 7 .5 6.658.666 13.325.5 20v1c30.764.674 62.097 1.34 94 2h-94c.166 6.675 0 13.342-.5 20-1.083 3.918-3.583 6.252-7.5 7v-1c2.728-1.57 4.562-3.903 5.5-7a420.29 420.29 0 0 0 0-41c-.938-3.097-2.772-5.43-5.5-7 .667 0 1-.333 1-1z"/><path style="opacity:1" fill="#1e1e1e" d="M368.5 50.5c1.837.14 2.17.806 1 2-.798-.457-1.131-1.124-1-2z"/><path style="opacity:1" fill="#4b4b4b" d="M394.5 49.5c1.294 1.548 1.961 3.548 2 6l-1 6a36.877 36.877 0 0 1-1-12z"/><path style="opacity:1" fill="#212121" d="M331.5 50.5c2.747-.313 5.414.02 8 1-.825.886-1.825 1.219-3 1-.667 12-1.333 12-2 0-1.679.215-2.679-.452-3-2z"/><path style="opacity:1" fill="#242424" d="M362.5 50.5c4.61.096 4.944 1.096 1 3 1.531 1.113 2.531 2.613 3 4.5-.859 3.72-2.859 4.386-6 2a10.255 10.255 0 0 0 4-1.5 18.11 18.11 0 0 1-4-4.5 11.804 11.804 0 0 1 2-3.5z"/><path style="opacity:1" fill="#1b1b1b" d="M411.5 50.5c1.837.14 2.17.806 1 2-.798-.457-1.131-1.124-1-2z"/><path style="opacity:1" fill="#191919" d="M442.5 50.5c-.683 1.676-2.017 2.343-4 2v3c4 .333 4 .667 0 1v3a8.435 8.435 0 0 1 4 .5 18.437 18.437 0 0 1-6 .5v-10h6z"/><path style="opacity:1" fill="#333" d="m406.5 51.5 3 3c-1.333 1.667-1.333 3.333 0 5-.825.886-1.825 1.219-3 1 .285-1.788-.048-3.455-1-5l-2 6c-1.521-.38-3.187-.546-5-.5-1.521-3.017-.521-4.85 3-5.5-1.103-.498-2.103-.83-3-1 1.853-1.26 3.686-1.26 5.5 0 1.417-.578 2.25-1.578 2.5-3z"/><path style="opacity:1" fill="#bdbdbd" d="M442.5 50.5a23.245 23.245 0 0 0 7 3h-5c-.163 2.357.003 4.69.5 7 .198-1.882.698-3.548 1.5-5v6c-3.542.313-6.875-.02-10-1a18.437 18.437 0 0 0 6-.5 8.435 8.435 0 0 0-4-.5v-3c4-.333 4-.667 0-1v-3c1.983.343 3.317-.324 4-2z"/><path style="opacity:1" fill="#8d8d8d" d="M458.5 62.5v-3h-4c-.212-4.943.788-5.61 3-2 .929-1.189 1.262-2.522 1-4h-5l9-3v11c-1.459-.067-2.792.266-4 1z"/><path style="opacity:1" fill="#2b2b2b" d="M340.5 49.5c1.676.683 2.343 2.017 2 4 1.644-.214 3.144.12 4.5 1 .814 2.402.647 4.735-.5 7a9.86 9.86 0 0 1-1-6h-3a9.86 9.86 0 0 1-1 6 36.877 36.877 0 0 1-1-12z"/><path style="opacity:1" fill="#323232" d="M350.5 53.5c3.45-.744 5.116.59 5 4-5.297.532-5.297 1.366 0 2.5-3.465 2.383-5.798 1.55-7-2.5.252-1.573.918-2.906 2-4z"/><path style="opacity:1" fill="#242424" d="M368.5 53.5c1.225.652 1.892 1.819 2 3.5l-1 3.5a13.115 13.115 0 0 1-1-7z"/><path style="opacity:1" fill="#202020" d="M372.5 53.5c3.757.227 7.257.56 10.5 1 .814 2.402.647 4.735-.5 7-1.333-8-2.667-8-4 0a9.86 9.86 0 0 1-1-6h-3c.285 1.788-.048 3.455-1 5a13.115 13.115 0 0 1-1-7z"/><path style="opacity:1" fill="#252525" d="M385.5 53.5c1.536 1.525 2.536 3.525 3 6 1.488-1.65 2.488-3.65 3-6 1.333 2.667 1.333 5.333 0 8-1.778-.07-3.611-.403-5.5-1a24.935 24.935 0 0 1-.5-7z"/><path style="opacity:1" fill="#1e1e1e" d="M411.5 53.5c1.248.834 1.915 2.167 2 4l-1 4a16.874 16.874 0 0 1-1-8z"/><path style="opacity:1" fill="#323232" d="M424.5 53.5c6.732-1.018 8.732 1.648 6 8-1.488-1.65-2.488-3.65-3-6l-2 5a13.115 13.115 0 0 1-1-7z"/><path style="opacity:1" fill="#1a1a1a" d="M449.5 53.5c1.3 2.524 1.3 5.19 0 8-.464-2.475-1.464-4.475-3-6-.802 1.452-1.302 3.118-1.5 5a24.935 24.935 0 0 1-.5-7h5z"/><path style="opacity:1" fill="#202020" d="M464.5 53.5h6a13.115 13.115 0 0 1-1 7l-2-5-2 6a16.874 16.874 0 0 1-1-8z"/><path style="opacity:1" fill="#afafaf" d="M605.5 51.5v4h-94v-1h93c-.237-1.291.096-2.291 1-3z"/><path style="opacity:1" fill="#161616" d="M605.5 51.5a32.517 32.517 0 0 0 7 3c1.333 1 1.333 2 0 3a19.209 19.209 0 0 0-6.5 3 4.934 4.934 0 0 1-.5-3c-31.903-.66-63.236-1.326-94-2h94v-4z"/><path style="opacity:1" fill="#373737" d="M473.5 53.5c2.788-.423 4.788.577 6 3l-5 2 4 2c-1.853 1.26-3.686 1.26-5.5 0-.703-2.43-.537-4.763.5-7z"/><path style="opacity:1" fill="#363636" d="M481.5 53.5c1.478-.262 2.811.071 4 1a4.451 4.451 0 0 1-2 1.5c3.068 4.31 2.068 5.81-3 4.5a6.807 6.807 0 0 1 3-1.5c-2.733-1.228-3.4-3.061-2-5.5z"/><path style="opacity:1" fill="#9f9f9f" d="M614.5 34.5v41l-2-18c1.333-1 1.333-2 0-3l2-20z"/><path style="opacity:1" fill="#202020" d="M453.5 53.5h5c.262 1.478-.071 2.811-1 4-2.212-3.61-3.212-2.943-3 2h4v3c-1.765.961-3.765 1.295-6 1-.247-3.439.086-6.772 1-10z"/><path style="opacity:1" fill="#282828" d="M416.5 53.5c6.204-.186 7.537 2.314 4 7.5-1.612.72-3.112.554-4.5-.5-.703-2.43-.537-4.763.5-7z"/><path style="opacity:1" fill="#d9d9d9" d="M417.5 55.5h3c.278 1.846-.389 3.18-2 4-.929-1.189-1.262-2.522-1-4z"/><path style="opacity:1" fill="#393939" d="M504.5 27.5c0 .667-.333 1-1 1-63.001-.167-126.001 0-189 .5-2.07.948-3.57 2.448-4.5 4.5-.667 15-.667 30 0 45 .833 2.167 2.333 3.667 4.5 4.5 62.999.5 125.999.667 189 .5v1a5914.536 5914.536 0 0 1-188 .5c-3.413-1.077-5.913-3.244-7.5-6.5a244.397 244.397 0 0 0-1.5-22 80.626 80.626 0 0 0-7.5 4 8.43 8.43 0 0 1-.5-4h-100v20l-2-41c-.411-3.58-2.411-5.746-6-6.5a6480.176 6480.176 0 0 0-161 0c-3.125.625-5.125 2.459-6 5.5-.667 0-1-.333-1-1 1.091-2.928 3.091-5.095 6-6.5 54-.667 108-.667 162 0 3.437 1.105 5.937 3.272 7.5 6.5.5 7.326.666 14.66.5 22h100c-.262-1.478.071-2.811 1-4a36.17 36.17 0 0 0 7 4 244.397 244.397 0 0 0 1.5-22c1.5-2.833 3.667-5 6.5-6.5 63.374-.826 126.707-.66 190 .5z"/><path style="opacity:1" fill="#3c3c3c" d="M614.5 75.5v-41c1.427-3.264 3.761-5.764 7-7.5a8835.808 8835.808 0 0 1 188 0c4.396.73 7.23 3.23 8.5 7.5a462.27 462.27 0 0 1 0 43c-1.27 4.27-4.104 6.77-8.5 7.5-63 .667-126 .667-189 0-3.48-2.297-5.48-5.464-6-9.5z"/><path style="opacity:1" fill="#f8f8f8" d="M621.5 28.5c63.001-.167 126.001 0 189 .5a17.833 17.833 0 0 1 5.5 4.5 484.008 484.008 0 0 1 0 44c-1.167 2.5-3 4.333-5.5 5.5-63 .667-126 .667-189 0-2.881-1.25-4.714-3.417-5.5-6.5a420.29 420.29 0 0 1 0-41c.967-3.12 2.8-5.454 5.5-7z"/><path style="opacity:1" fill="#a1a1a1" d="m683.5 53.5 2 7h4c-2.667 1.333-5.333 1.333-8 0 1.844-1.779 2.51-4.112 2-7z"/><path style="opacity:1" fill="#3e3e3e" d="M739.5 53.5c1.967-.24 3.801.094 5.5 1 .497 2.31.663 4.643.5 7-2.45.202-4.783-.131-7-1-.175-2.829 1.158-4.495 4-5a44.093 44.093 0 0 1-3-2z"/><path style="opacity:1" fill="#313131" d="M697.5 50.5c5.444-.922 6.777.745 4 5 .774 1.211 1.607 1.211 2.5 0a15.252 15.252 0 0 0 1.5 4.5c-9.606 2.889-12.273-.278-8-9.5z"/><path style="opacity:1" fill="#262626" d="M761.5 53.5c5.406-.765 7.406 1.569 6 7h-6v-4c1.175.219 2.175-.114 3-1-.774-1.211-1.607-1.211-2.5 0a2.429 2.429 0 0 1-.5-2z"/><path style="opacity:1" fill="#2c2c2c" d="M656.5 53.5h5v7h-6c-.175-2.829 1.158-4.495 4-5-.774-1.211-1.607-1.211-2.5 0a2.429 2.429 0 0 1-.5-2z"/><path style="opacity:1" fill="#1e1e1e" d="M759.5 53.5c.117 1.983-.55 3.65-2 5a30.968 30.968 0 0 1 2 2c-4.618.525-5.618-.808-3-4l-2-2c1.545-.952 3.212-1.285 5-1z"/><path style="opacity:1" fill="#252525" d="M647.5 53.5c6.732-1.018 8.732 1.648 6 8a9.86 9.86 0 0 1-1-6h-3c.285 1.788-.048 3.455-1 5a13.115 13.115 0 0 1-1-7z"/><path style="opacity:1" fill="#a3a3a3" d="M736.5 53.5h3a44.093 44.093 0 0 0 3 2c-2.842.505-4.175 2.171-4 5-2.441 1.256-4.774 1.256-7 0h5v-7z"/><path style="opacity:1" fill="#313131" d="M663.5 49.5c2.412.194 3.412 1.527 3 4 2.092.061 3.592 1.061 4.5 3a4.934 4.934 0 0 0 .5-3c2.562.68 5.229.847 8 .5-2.492 1.25-2.325 2.416.5 3.5.514 3.765-.986 4.765-4.5 3a6.807 6.807 0 0 1 3-1.5 36.012 36.012 0 0 1-4.5-3.5 37.708 37.708 0 0 1-3.5 8 148.076 148.076 0 0 0-3.5-9l-1 6c-.414.457-.914.79-1.5 1a36.877 36.877 0 0 1-1-12z"/><path style="opacity:1" fill="#2a2a2a" d="M779.5 53.5c2.544-.396 4.711.271 6.5 2 2.106-1.791 4.606-2.458 7.5-2a16.874 16.874 0 0 1-1 8c-1.333-8-2.667-8-4 0-1.299-.59-2.132-1.59-2.5-3-3.526 4.266-6.026 3.766-7.5-1.5a10.984 10.984 0 0 1 1-3.5z"/><path style="opacity:1" fill="#d8d8d8" d="M780.5 55.5h3v4h-3v-4z"/><path style="opacity:1" fill="#2d2d2d" d="M710.5 50.5c1.864 1.478 3.197 3.478 4 6a10.777 10.777 0 0 0 2-6c6.197-.175 6.863.825 2 3a21.029 21.029 0 0 0-2 7h-4a81.798 81.798 0 0 0-2-10z"/><path style="opacity:1" fill="#2a2a2a" d="M640.5 50.5c1.175-.219 2.175.114 3 1a178.31 178.31 0 0 1 3 8.5c-1.783.232-3.45-.268-5-1.5a7.292 7.292 0 0 0-3 2c-.831-3.54-.164-6.874 2-10z"/><path style="opacity:1" fill="#2d2d2d" d="M774.5 53.5c1.225.652 1.892 1.819 2 3.5l-1 3.5a13.115 13.115 0 0 1-1-7z"/><path style="opacity:1" fill="#151515" d="M736.5 53.5v7h-5c-1.297-2.193-1.297-4.527 0-7 1.657 7.672 3.323 7.672 5 0z"/><path style="opacity:1" fill="#2d2d2d" d="M724.5 53.5c1.478-.262 2.811.071 4 1a4.451 4.451 0 0 1-2 1.5c1.537 1.11 2.203 2.61 2 4.5a12.935 12.935 0 0 1-5-.5c3.956-1.114 3.956-1.947 0-2.5-.067-1.459.266-2.792 1-4z"/><path style="opacity:1" fill="#454545" d="M720.5 53.5c1.248.834 1.915 2.167 2 4l-1 4a16.874 16.874 0 0 1-1-8z"/><path style="opacity:1" fill="#2f2f2f" d="M689.5 60.5h-4a44.093 44.093 0 0 1 3-2c-.825-.886-1.825-1.219-3-1v-4c1.788-.285 3.455.048 5 1a4.451 4.451 0 0 1-2 1.5c1.966 1.347 2.299 2.847 1 4.5z"/><path style="opacity:1" fill="#222" d="M683.5 53.5c.51 2.888-.156 5.221-2 7-.51-2.888.156-5.221 2-7z"/><path style="opacity:1" fill="#a9a9a9" d="M750.5 50.5c.667 2.667 1.333 2.667 2 0a79.873 79.873 0 0 0 7 3c-1.788-.285-3.455.048-5 1l2 2c-2.618 3.192-1.618 4.525 3 4-2.107.968-4.441 1.302-7 1a16.874 16.874 0 0 0-1-8 13.115 13.115 0 0 0-1 7c-.65.304-1.317.637-2 1-1.333-4-1.333-8 0-12 .683.363 1.35.696 2 1z"/><path style="opacity:1" fill="#3f3f3f" d="M752.5 61.5c-.992.172-1.658-.162-2-1a13.115 13.115 0 0 1 1-7 16.874 16.874 0 0 1 1 8z"/><path style="opacity:1" fill="#171717" d="M769.5 51.5c1.422.25 2.422 1.083 3 2.5-1.333 2-1.333 4 0 6a4.932 4.932 0 0 1-3 .5c-.576-3.107-.576-6.107 0-9z"/><path style="opacity:1" fill="#2e2e2e" d="M774.5 50.5c1.837.14 2.17.806 1 2-.798-.457-1.131-1.124-1-2z"/><path style="opacity:1" fill="#292929" d="M750.5 50.5h2c-.667 2.667-1.333 2.667-2 0z"/><path style="opacity:1" fill="#272727" d="M681.5 50.5c1.837.14 2.17.806 1 2-.798-.457-1.131-1.124-1-2z"/><path style="opacity:1" fill="#3e3e3e" d="M22.5 33.5c0 .667.333 1 1 1-.167 14.67 0 29.337.5 44a11.529 11.529 0 0 0 3.5 4.5l81.5.5c28.227.155 56.393-.345 84.5-1.5a6.977 6.977 0 0 0 2.5-3.5c.5-14.33.667-28.663.5-43l2 41c-1.112 4.28-3.779 7.113-8 8.5-54.333.667-108.667.667-163 0-2.417-1.663-4.25-3.83-5.5-6.5-.828-15.172-.661-30.172.5-45z"/><path style="opacity:1" fill="#3d3d3d" d="M161.5 50.5h3c-.16 1.7.006 3.366.5 5 2.333-2.667 4.667-2.667 7 0 .617.95.451 1.782-.5 2.5-5.221.542-5.221 1.376 0 2.5-2.449 1.41-4.616 1.076-6.5-1-2.615 2.57-5.282 2.57-8 0-.987-3.848.513-5.848 4.5-6v-3z"/><path style="opacity:1" fill="#2b2b2b" d="M107.5 53.5c5.988.164 7.321 2.664 4 7.5-6.097.148-7.43-2.352-4-7.5z"/><path style="opacity:1" fill="#383838" d="M81.5 53.5c4-.667 5.667 1 5 5-5.182.057-5.182.724 0 2-1.575 1.13-3.241 1.297-5 .5-1.278-2.498-1.278-4.998 0-7.5z"/><path style="opacity:1" fill="#2c2c2c" d="M140.5 53.5c1.536 1.525 2.536 3.525 3 6a9.86 9.86 0 0 0 1-6h3a16.874 16.874 0 0 1-1 8c-1.778-.07-3.611-.403-5.5-1a24.935 24.935 0 0 1-.5-7z"/><path style="opacity:1" fill="#d8d8d8" d="M108.5 55.5c2.412.194 3.412 1.527 3 4h-3v-4z"/><path style="opacity:1" fill="#cbcbcb" d="M159.5 55.5c1.086.12 1.753.787 2 2-.804 2.457-1.804 2.457-3 0 .363-.684.696-1.35 1-2z"/><path style="opacity:1" fill="#252525" d="M120.5 50.5c1.617 1.09 2.45 2.756 2.5 5 .965-1.76 2.132-2.094 3.5-1-1.333 2-1.333 4 0 6-1.825 1.07-2.992.404-3.5-2-.236 1.62-1.069 2.62-2.5 3v-11z"/><path style="opacity:1" fill="#232323" d="M59.5 53.5c3.92-.754 5.253.58 4 4-2.214-2.424-3.214-1.757-3 2 1.478-.262 2.811.071 4 1-1.853 1.26-3.686 1.26-5.5 0-.703-2.43-.537-4.763.5-7z"/><path style="opacity:1" fill="#252525" d="M118.5 53.5a5.727 5.727 0 0 1-1 3 112.088 112.088 0 0 0-2 5 16.874 16.874 0 0 1-1-8h4z"/><path style="opacity:1" fill="#232323" d="M93.5 53.5c1.835.622 3.002 1.956 3.5 4 1.523-5.18 3.023-5.18 4.5 0l2-4c.819 2.904.153 5.571-2 8a12.41 12.41 0 0 1-2.5-4 8.434 8.434 0 0 0-.5 4c-1.175.219-2.175-.114-3-1a54.937 54.937 0 0 1-2-7z"/><path style="opacity:1" fill="#202020" d="M131.5 51.5a18.437 18.437 0 0 1 6 .5c1.333 3 1.333 6 0 9a18.437 18.437 0 0 1-6 .5v-10z"/><path style="opacity:1" fill="#b1b1b1" d="M133.5 56.5h3v3h-3v-3z"/><path style="opacity:1" fill="#a5a5a5" d="M120.5 50.5v11c-.472-2.031-1.472-3.698-3-5a5.727 5.727 0 0 0 1-3l2-3z"/><path style="opacity:1" fill="#333" d="M173.5 53.5c1.788-.285 3.455.048 5 1-2.295 1.7-3.628 4.033-4 7a16.874 16.874 0 0 1-1-8z"/><path style="opacity:1" fill="#939393" d="M151.5 61.5c-.667-10.667-1.333-10.667-2 0-.982-3.462-1.315-7.129-1-11h6v11h-3z"/><path style="opacity:1" fill="#3b3b3b" d="M151.5 61.5h-2c.667-10.667 1.333-10.667 2 0z"/><path style="opacity:1" fill="#292929" d="M70.5 51.5c3.095.126 4.928 1.793 5.5 5a14.73 14.73 0 0 1 1.5-5 25.87 25.87 0 0 1 1 10c-1.175.219-2.175-.114-3-1-2.124-5.345-3.457-5.011-4 1a25.87 25.87 0 0 1-1-10z"/><path style="opacity:1" fill="#222" d="M50.5 50.5c1.548.321 2.215 1.321 2 3 3.234-.263 4.568 1.237 4 4.5l-1 3.5-2-6c-.607.124-.94.457-1 1-.79 1.108-1.29 2.442-1.5 4a50.441 50.441 0 0 1-.5-10z"/><path style="opacity:1" fill="#858585" d="M40.5 51.5c3.125-.98 6.458-1.313 10-1-.165 3.35.002 6.683.5 10 .21-1.558.71-2.892 1.5-4v5h-3v-8h-3c.306 2.885-.027 5.552-1 8v-9a4.932 4.932 0 0 0 3-.5 32.437 32.437 0 0 0-8-.5z"/><path style="opacity:1" fill="#bfbfbf" d="M133.5 52.5c1.965.448 2.298 1.448 1 3-.886-.825-1.219-1.825-1-3z"/><path style="opacity:1" fill="#1a1a1a" d="M89.5 52.5c3.627.97 3.96 2.637 1 5a7.291 7.291 0 0 0 2 3c-.825.886-1.825 1.219-3 1-.382-3.146-.382-6.146 0-9z"/><path style="opacity:1" fill="#131313" d="M40.5 51.5a32.437 32.437 0 0 1 8 .5 4.932 4.932 0 0 1-3 .5v9c-1.888-2.488-2.554-5.488-2-9-1.291.237-2.291-.096-3-1z"/><path style="opacity:1" fill="#848484" d="M584.5 136.5c14.83-.667 29.83-1 45-1 15.349.001 30.349.667 45 2a2048.181 2048.181 0 0 0-90-1z"/><path style="opacity:1" fill="#222" d="M584.5 136.5c30.074-.325 60.074.008 90 1-.667 30.667-1.333 30.667-2 0h-169a133.155 133.155 0 0 1-1 23 121.862 121.862 0 0 1-1-22h-174v22c-.992-7.148-1.325-14.481-1-22a6891.114 6891.114 0 0 0-166 1 216.796 216.796 0 0 0-1.5 21c-.5-7.659-.666-15.326-.5-23 83.666-.445 167.333-.779 251-1 .667-64 1.333-64 2 0h173z"/><path style="opacity:1" fill="#c6c6c6" d="M158.5 137.5c-.166 7.674 0 15.341.5 23 .171-7.179.671-14.179 1.5-21v22c15.509-.33 30.842.004 46 1h-99a625.298 625.298 0 0 1 50-1c-.326-8.184.008-16.184 1-24z"/><path style="opacity:1" fill="#868686" d="M160.5 139.5a6891.114 6891.114 0 0 1 166-1c-.325 7.519.008 14.852 1 22l51 2h-103a625.298 625.298 0 0 1 50-1v-22h-165z"/><path style="opacity:1" fill="#161616" d="M275.5 162.5h104c-.342.838-1.008 1.172-2 1-34.002-.167-68.002 0-102 .5-7.992 2.163-13.659 6.996-17 14.5-.768.763-1.268 1.763-1.5 3a4.934 4.934 0 0 1-.5-3c3.321-8.838 9.654-14.171 19-16z"/><path style="opacity:1" fill="#fcfcfc" d="M229.5 434.5c-2.818 8.983-8.818 14.817-18 17.5-35.333.667-70.667.667-106 0-8.427-2.095-13.927-7.261-16.5-15.5-.5-84.333-.667-168.666-.5-253 1.518-9.358 6.851-15.525 16-18.5 36-.667 72-.667 108 0 8.632 2.963 14.132 8.797 16.5 17.5.5 83.999.667 167.999.5 252z"/><path style="opacity:1" fill="#fcfbfb" d="M377.5 163.5c10.107 1.935 16.607 7.935 19.5 18 .667 84.333.667 168.667 0 253-1.948 9.737-7.781 15.571-17.5 17.5-35 .667-70 .667-105 0-9.688-2.52-15.355-8.686-17-18.5-.323-85.022.011-170.022 1-255 3.341-7.504 9.008-12.337 17-14.5 33.998-.5 67.998-.667 102-.5z"/><path style="opacity:1" fill="#333" d="M544.5 163.5c12.407 1.35 20.074 8.017 23 20h-1c-2.818-8.983-8.818-14.817-18-17.5a5098.15 5098.15 0 0 0-101-.5l97-2z"/><path style="opacity:1" fill="#fbfcfc" d="M447.5 165.5c33.668-.167 67.335 0 101 .5 9.182 2.683 15.182 8.517 18 17.5.167 84.001 0 168.001-.5 252-2.404 8.737-7.904 14.571-16.5 17.5-35.333.667-70.667.667-106 0-8.014-2.188-13.681-7.021-17-14.5a11010.58 11010.58 0 0 1-.5-256c3.511-10.349 10.677-16.016 21.5-17z"/><path style="opacity:1" fill="#fbfbfb" d="M617.5 164.5c34.668-.167 69.335 0 104 .5 10.575 2.318 16.742 8.818 18.5 19.5.667 83 .667 166 0 249-2.163 10.82-8.663 17.32-19.5 19.5-33.998.5-67.998.667-102 .5-9.118-2.278-15.285-7.945-18.5-17-.667-85.333-.667-170.667 0-256 3.536-8.044 9.369-13.377 17.5-16z"/><path style="opacity:1" fill="#141414" d="m544.5 163.5-97 2c-10.823.984-17.989 6.651-21.5 17a11010.58 11010.58 0 0 0 .5 256c.172.992-.162 1.658-1 2a42.47 42.47 0 0 0-1.5-5c-.667-84-.667-168 0-252 2.4-10.067 8.566-16.567 18.5-19.5 33.998-.5 67.998-.667 102-.5z"/><path style="opacity:1" fill="#272727" d="M616.5 454.5c.342-.838 1.008-1.172 2-1 34.002.167 68.002 0 102-.5 10.837-2.18 17.337-8.68 19.5-19.5.667-83 .667-166 0-249-1.758-10.682-7.925-17.182-18.5-19.5-34.665-.5-69.332-.667-104-.5-.667 0-1-.333-1-1a1816.094 1816.094 0 0 1 104-.5c10.619 1.951 17.452 8.118 20.5 18.5.667 85 .667 170 0 255-3.146 10.811-10.312 16.977-21.5 18.5-34.405.826-68.738.659-103-.5z"/><path style="opacity:1" fill="#bebebe" d="M86.5 181.5v252l2 7c-1.466-.847-2.3-2.18-2.5-4-.832-85.168-.666-170.168.5-255z"/><path style="opacity:1" fill="#a4a4a4" d="M256.5 178.5a4.934 4.934 0 0 0 .5 3c.232-1.237.732-2.237 1.5-3a16519.034 16519.034 0 0 0-1 255l-2-251c-.268-1.599.066-2.932 1-4z"/><path style="opacity:1" fill="#666" d="M484.5 185.5h3v11h-3v-11z"/><path style="opacity:1" fill="#424242" d="M616.5 163.5c0 .667.333 1 1 1-8.131 2.623-13.964 7.956-17.5 16-.667 85.333-.667 170.667 0 256 3.215 9.055 9.382 14.722 18.5 17-.992-.172-1.658.162-2 1-10.055-2.555-16.221-8.888-18.5-19-.667-85-.667-170 0-255 3.175-9.012 9.342-14.678 18.5-17z"/><path style="opacity:1" fill="#848484" d="M676.5 186.5h-3a40.914 40.914 0 0 0 .5 9l1-6c.717.544 1.217 1.211 1.5 2-.951 1.419-1.284 3.085-1 5h-3v-11c1.599-.268 2.932.066 4 1z"/><path style="opacity:1" fill="#202020" d="M107.5 162.5h99c10.95.787 18.783 6.12 23.5 16 .5 85.333.667 170.666.5 256h-1c.167-84.001 0-168.001-.5-252-2.368-8.703-7.868-14.537-16.5-17.5-36-.667-72-.667-108 0-9.149 2.975-14.482 9.142-16 18.5l-2 250v-252c3.509-10.175 10.509-16.508 21-19z"/><path style="opacity:1" fill="#373737" d="M148.5 186.5c1.837.139 2.17.806 1 2-.798-.457-1.131-1.124-1-2z"/><path style="opacity:1" fill="#292929" d="M479.5 186.5c-1.068.934-2.401 1.268-4 1-.237 1.291.096 2.291 1 3 4 .667 4 1.333 0 2v4h-3v-11c2.235-.295 4.235.039 6 1z"/><path style="opacity:1" fill="gray" d="M476.5 190.5c-.904-.709-1.237-1.709-1-3 1.599.268 2.932-.066 4-1 1.208-.734 2.541-1.067 4-1v11h-3v-8c-1.983-.343-3.317.324-4 2z"/><path style="opacity:1" fill="#202020" d="M489.5 186.5c3.887 1.157 4.554 3.157 2 6 1.94 2.696 1.273 4.029-2 4-.482-3.446-.482-6.779 0-10z"/><path style="opacity:1" fill="#838383" d="M516.5 186.5c.979 3.125 1.313 6.458 1 10-1.599.268-2.932-.066-4-1h3v-9z"/><path style="opacity:1" fill="#333" d="M525.5 190.5c1.137-4.854 3.137-5.188 6-1-2.667 2-2.667 4 0 6-1.333 1.333-2.667 1.333-4 0-.528-1.836-1.194-3.503-2-5z"/><path style="opacity:1" fill="#1e1e1e" d="M691.5 186.5c1.431.582 2.764 1.415 4 2.5-2.533 2.084-2.533 4.084 0 6a8.43 8.43 0 0 1-4 .5c-.392-3.176-.392-6.176 0-9z"/><path style="opacity:1" fill="#373737" d="M148.5 189.5c1.248.834 1.915 2.167 2 4l-1 4a16.873 16.873 0 0 1-1-8z"/><path style="opacity:1" fill="#323232" d="M495.5 188.5c3.849-.481 5.849 1.186 6 5-5.824-.153-6.157.513-1 2-1.574 1.131-3.241 1.298-5 .5-1.279-2.498-1.279-4.998 0-7.5z"/><path style="opacity:1" fill="#252525" d="M516.5 186.5v9h-3l-2.5-5a20.2 20.2 0 0 1-1.5 6 25.879 25.879 0 0 1-1-10c3.095.126 4.928 1.793 5.5 5a20.2 20.2 0 0 1 1.5-6c.607.124.94.457 1 1z"/><path style="opacity:1" fill="#303030" d="M525.5 190.5v3c-5.824-.153-6.157.513-1 2-5.756 1.762-7.423-.238-5-6 2.257-1.27 4.257-.936 6 1z"/><path style="opacity:1" fill="#202020" d="M647.5 185.5c3.385-.71 5.719.456 7 3.5-.707 2.54-2.373 3.707-5 3.5.219 1.175-.114 2.175-1 3a25.879 25.879 0 0 1-1-10z"/><path style="opacity:1" fill="#d0d0d0" d="M649.5 187.5c1.965.448 2.298 1.448 1 3-.886-.825-1.219-1.825-1-3z"/><path style="opacity:1" fill="#a1a1a1" d="M661.5 188.5h3v10l-2-4c.175-2.121-.159-4.121-1-6z"/><path style="opacity:1" fill="#252525" d="M153.5 189.5c5.988.164 7.321 2.664 4 7.5-1.612.72-3.112.554-4.5-.5-.703-2.429-.537-4.762.5-7z"/><path style="opacity:1" fill="#1c1c1c" d="M676.5 191.5c-.283-.789-.783-1.456-1.5-2l-1 6a40.914 40.914 0 0 1-.5-9h3l2.5 5a20.2 20.2 0 0 1 1.5-6 31.116 31.116 0 0 1 1 11c-2.755-.463-4.422-2.13-5-5z"/><path style="opacity:1" fill="#272727" d="M684.5 188.5c3.45-.744 5.116.59 5 4-5.194.442-5.194 1.442 0 3-1.574 1.131-3.241 1.298-5 .5-1.279-2.498-1.279-4.998 0-7.5z"/><path style="opacity:1" fill="#cfcfcf" d="M154.5 191.5h3v4h-3v-4z"/><path style="opacity:1" fill="#787878" d="M161.5 187.5a40.914 40.914 0 0 0 .5 9l1-6c1.039.744 1.539 1.744 1.5 3-.934 1.068-1.268 2.401-1 4h-3c-.313-3.542.021-6.875 1-10z"/><path style="opacity:1" fill="#2c2c2c" d="M180.5 188.5a7.47 7.47 0 0 1 3 2c-1.333 2-1.333 4 0 6-1.151 1.231-2.317 1.231-3.5 0l-1-5a4.934 4.934 0 0 0-.5 3c-5.824-.153-6.157.513-1 2-5.584 1.84-7.417-.16-5.5-6 1.796-1.267 3.629-1.267 5.5 0 1.239-.442 2.239-1.109 3-2z"/><path style="opacity:1" fill="#191919" d="M502.5 188.5c1.478-.262 2.811.071 4 1a23.411 23.411 0 0 0-3 7 16.873 16.873 0 0 1-1-8z"/><path style="opacity:1" fill="#232323" d="M661.5 188.5c.841 1.879 1.175 3.879 1 6-1.159 1.877-2.826 2.377-5 1.5-3.537-5.186-2.204-7.686 4-7.5z"/><path style="opacity:1" fill="#d0d1d1" d="M657.5 190.5h3c.262 1.478-.071 2.811-1 4-1.611-.82-2.278-2.154-2-4z"/><path style="opacity:1" fill="#1f1f1f" d="M161.5 187.5c1.175-.219 2.175.114 3 1 2.12 6.653 3.454 6.32 4-1a25.879 25.879 0 0 1 1 10c-1.175.219-2.175-.114-3-1-.442-1.239-1.109-2.239-2-3 .039-1.256-.461-2.256-1.5-3l-1 6a40.914 40.914 0 0 1-.5-9z"/><path style="opacity:1" fill="#232323" d="M664.5 188.5c7.036-.897 8.703 1.603 5 7.5a64.899 64.899 0 0 0-5 2.5v-10z"/><path style="opacity:1" fill="#d2d2d2" d="M666.5 190.5h3c.278 1.846-.389 3.18-2 4-.929-1.189-1.262-2.522-1-4z"/><path style="opacity:1" fill="#424242" d="M139.5 186.5c3.096-.593 5.429.407 7 3a37.291 37.291 0 0 0-.5 7c-2.041.923-4.208 1.256-6.5 1v-11z"/><path style="opacity:1" fill="#505050" d="M149.5 215.5c1.548.321 2.215 1.321 2 3h4a24.935 24.935 0 0 1-.5 7 18.453 18.453 0 0 1-.5-6h-3a9.86 9.86 0 0 1-1 6 25.879 25.879 0 0 1-1-10z"/><path style="opacity:1" fill="#3a3a3a" d="M491.5 215.5c-1.765.961-3.765 1.295-6 1v3h5c-1.052 1.756-2.719 2.423-5 2 .262 1.478-.071 2.811-1 4a25.879 25.879 0 0 1-1-10h8z"/><path style="opacity:1" fill="#575757" d="M190.5 215.5c1.277 1.194 1.944 2.86 2 5l-1 5a25.879 25.879 0 0 1-1-10zM495.5 215.5c1.277 1.194 1.944 2.86 2 5l-1 5a25.879 25.879 0 0 1-1-10z"/><path style="opacity:1" fill="#616161" d="M652.5 215.5c1.25.077 2.083.744 2.5 2a4.457 4.457 0 0 1 1.5-2c1.157 3.284 1.324 6.618.5 10a26.724 26.724 0 0 0-1.5-7c-2.593 2.144-2.593 4.311 0 6.5a4.934 4.934 0 0 1-3 .5v-10z"/><path style="opacity:1" fill="#323232" d="M128.5 217.5c-.055 2.598-.389 5.264-1 8h-7v-10c2.357-.163 4.69.003 7 .5.556.383.889.883 1 1.5z"/><path style="opacity:1" fill="#d9d9d9" d="M122.5 216.5h4v3h-4v-3z"/><path style="opacity:1" fill="#b6b6b6" d="M128.5 217.5c1.208.734 2.541 1.067 4 1v7h-5c.611-2.736.945-5.402 1-8z"/><path style="opacity:1" fill="#454545" d="M141.5 217.5c5.709-.633 7.709 1.7 6 7-1.189.929-2.522 1.262-4 1 .219 1.175-.114 2.175-1 3a31.116 31.116 0 0 1-1-11z"/><path style="opacity:1" fill="#b6b6b6" d="M491.5 215.5h3v10h-3v-8a12.93 12.93 0 0 0-5 .5c1.558.21 2.891.71 4 1.5h-5v-3c2.235.295 4.235-.039 6-1z"/><path style="opacity:1" fill="#313131" d="M629.5 218.5c1.941 1.511 2.441 3.511 1.5 6-1.356.88-2.856 1.214-4.5 1 .237 1.291-.096 2.291-1 3v-10h4zM673.5 219.5v6c-1.865-7.851-3.699-7.851-5.5 0a24.935 24.935 0 0 1-.5-7c2.235-.295 4.235.039 6 1z"/><path style="opacity:1" fill="#3f3f3f" d="M706.5 218.5a12.93 12.93 0 0 1 5 .5c-3.768 1.177-3.601 2.344.5 3.5.617.949.451 1.782-.5 2.5-1.759.798-3.426.631-5-.5l4-1c-2.842-.504-4.175-2.171-4-5z"/><path style="opacity:1" fill="#272727" d="M499.5 215.5c1.806 1.96 2.14 4.126 1 6.5.255 1.326.922 2.326 2 3a4.934 4.934 0 0 1-3 .5c-.498-3.493-.498-6.826 0-10z"/><path style="opacity:1" fill="#8e8e8e" d="M629.5 218.5h-4v10l-2-5v-4c1.817-2.01 3.817-2.343 6-1z"/><path style="opacity:1" fill="#3b3b3b" d="M703.5 218.5c1.225.652 1.892 1.819 2 3.5l-1 3.5a13.116 13.116 0 0 1-1-7z"/><path style="opacity:1" fill="#4f4f4f" d="M717.5 216.5c.06-.543.393-.876 1-1 1.333 3.333 1.333 6.667 0 10-.728-3.182-1.061-6.182-1-9z"/><path style="opacity:1" fill="#ececec" d="M143.5 219.5h3v5h-3v-5z"/><path style="opacity:1" fill="#474747" d="M607.5 215.5c2.619-.268 5.119.065 7.5 1 .956 4.425-.877 6.092-5.5 5 .262 1.478-.071 2.811-1 4a25.879 25.879 0 0 1-1-10z"/><path style="opacity:1" fill="#e8e8e8" d="M609.5 216.5h4v3h-4v-3z"/><path style="opacity:1" fill="#e0e0e0" d="M626.5 219.5c3.661-.15 4.661 1.35 3 4.5-.949.617-1.782.451-2.5-.5a8.43 8.43 0 0 1-.5-4z"/><path style="opacity:1" fill="#525252" d="M645.5 217.5c1.644-.214 3.144.12 4.5 1 .497 2.31.663 4.643.5 7h-6v-4c1.478.262 2.811-.071 4-1-1.151-1.231-2.317-1.231-3.5 0-.47-1.077-.303-2.077.5-3z"/><path style="opacity:1" fill="#454545" d="M659.5 218.5c5.658-.821 7.325 1.346 5 6.5-5.365.784-7.032-1.383-5-6.5z"/><path style="opacity:1" fill="#e0e0e0" d="M660.5 219.5c3.661-.15 4.661 1.35 3 4.5-.949.617-1.782.451-2.5-.5a8.43 8.43 0 0 1-.5-4z"/><path style="opacity:1" fill="#4c4c4c" d="M687.5 215.5c1.526.605 2.526 1.771 3 3.5-1.333 2-1.333 4 0 6a4.934 4.934 0 0 1-3 .5v-10z"/><path style="opacity:1" fill="#5b5b5b" d="M692.5 217.5c1.644-.214 3.144.12 4.5 1 .497 2.31.663 4.643.5 7h-6v-4c1.478.262 2.811-.071 4-1-1.151-1.231-2.317-1.231-3.5 0-.47-1.077-.303-2.077.5-3z"/><path style="opacity:1" fill="#4e4e4e" d="M699.5 216.5c.617.111 1.117.444 1.5 1a34.041 34.041 0 0 0 1.5 7.5 4.934 4.934 0 0 1-3 .5v-9z"/><path style="opacity:1" fill="#3e3e3e" d="M714.5 215.5a19.602 19.602 0 0 1 2 3.5c-.82 2.333-1.153 4.5-1 6.5a3.647 3.647 0 0 1-1.5-1c-.736-3.092-.569-6.092.5-9z"/><path style="opacity:1" fill="#e1e1e1" d="M122.5 221.5h4v3h-4v-3z"/><path style="opacity:1" fill="#626262" d="M183.5 217.5c1.644-.214 3.144.12 4.5 1 .497 2.31.663 4.643.5 7h-6c-.048-2.792 1.285-4.625 4-5.5-1.049-.492-2.049-.326-3 .5-1.062-.925-1.062-1.925 0-3z"/><path style="opacity:1" fill="#434343" d="M510.5 217.5c1.788-.285 3.455.048 5 1-.825.886-1.825 1.219-3 1a9.86 9.86 0 0 1-1 6 16.873 16.873 0 0 1-1-8z"/><path style="opacity:1" fill="#4e4e4e" d="M721.5 218.5c1.788-.285 3.455.048 5 1-1.057.406-2.391.406-4 0a8.43 8.43 0 0 0 .5 4c1.303.612 2.47.946 3.5 1-5.359 1.316-7.026-.684-5-6z"/><path style="opacity:1" fill="#323232" d="M157.5 218.5c1.35.983 2.35 2.316 3 4a32.065 32.065 0 0 1 2.5-4l.5 1.5c-.946 3.206-2.446 6.039-4.5 8.5l-1.5-.5c1.016-.519 1.682-1.353 2-2.5-.673-2.351-1.34-4.684-2-7z"/><path style="opacity:1" fill="#3a3a3a" d="M175.5 218.5c1.788-.285 3.455.048 5 1-.762.411-1.762.577-3 .5-1.333 1.333-1.333 2.667 0 4 1.238-.077 2.238.089 3 .5-1.506 1.247-3.006 1.247-4.5 0a18.453 18.453 0 0 1-.5-6z"/><path style="opacity:1" fill="#9c9c9c" d="M509.5 221.5c.268 1.599-.066 2.932-1 4a2.428 2.428 0 0 0-.5-2c-1.011.837-2.178 1.17-3.5 1v-5c1.822.331 3.489.998 5 2z"/><path style="opacity:1" fill="#404040" d="M623.5 219.5v4c-1.588 2.116-3.588 2.449-6 1-1.295-5.307.705-6.974 6-5z"/><path style="opacity:1" fill="#eaeaea" d="M618.5 219.5h3v5h-3v-5z"/><path style="opacity:1" fill="#b7b7b7" d="M673.5 219.5a72.144 72.144 0 0 1 5.5 2c.278-.916.778-1.582 1.5-2 .397 2.162 1.731 3.495 4 4-1.512.588-2.845.922-4 1-2.644-1.534-4.977-1.201-7 1v-6z"/><path style="opacity:1" fill="#3a3a3a" d="M134.5 218.5c5.658-.821 7.325 1.346 5 6.5-5.759 1.139-7.426-1.028-5-6.5z"/><path style="opacity:1" fill="#dcdcdc" d="M135.5 219.5h3v5c-3.784-.025-4.784-1.692-3-5z"/><path style="opacity:1" fill="#434343" d="M165.5 218.5c4.393-.043 4.726.457 1 1.5 1.063 1.188 2.397 1.688 4 1.5-.357 3.895-2.357 4.895-6 3l4-1c-3.295-.578-4.295-2.245-3-5z"/><path style="opacity:1" fill="#323232" d="M509.5 221.5a13.227 13.227 0 0 0-5-2v5c1.322.17 2.489-.163 3.5-1 .464.594.631 1.261.5 2-5.198.419-6.865-1.748-5-6.5 1.667-.667 3.333-.667 5 0 .752.671 1.086 1.504 1 2.5z"/><path style="opacity:1" fill="#363636" d="M633.5 218.5c.961 1.765 1.295 3.765 1 6h3a9.86 9.86 0 0 1 1-6 13.116 13.116 0 0 1 1 7h-6v-7z"/><path style="opacity:1" fill="#373737" d="M680.5 224.5c1.155-.078 2.488-.412 4-1-2.269-.505-3.603-1.838-4-4 1.535-1.288 3.201-1.288 5 0l-.5 1c-1.049-1.017-2.216-1.184-3.5-.5 1.063 1.188 2.397 1.688 4 1.5v4c-1.915.284-3.581-.049-5-1z"/><path style="opacity:1" fill="#3d3d3d" d="M729.5 217.5c2.666-.434 3.833.566 3.5 3-1.049-1.017-2.216-1.184-3.5-.5a20.532 20.532 0 0 0 4.5 2.5c.617.949.451 1.782-.5 2.5-1.759.798-3.426.631-5-.5 1.187-.054 2.52-.387 4-1-3.697-.785-4.697-2.785-3-6z"/><path style="opacity:1" fill="#a5a5a5" d="M134.5 241.5c.06-.543.393-.876 1-1a112.33 112.33 0 0 0 2 5v4l-2 2c.313-3.542-.021-6.875-1-10z"/><path style="opacity:1" fill="#515151" d="M503.5 243.5c5.988.164 7.321 2.664 4 7.5-1.612.72-3.112.554-4.5-.5-.703-2.429-.537-4.762.5-7z"/><path style="opacity:1" fill="#8d8d8d" d="M687.5 241.5v10l-2-6c-.709-.904-1.709-1.237-3-1a19.348 19.348 0 0 0 5-3z"/><path style="opacity:1" fill="#393939" d="M469.5 240.5c2.617 1.788 4.784 4.122 6.5 7a20.2 20.2 0 0 1 1.5-6c1.333 3.333 1.333 6.667 0 10a34.534 34.534 0 0 1-5.5-6 20.2 20.2 0 0 1-1.5 6 31.116 31.116 0 0 1-1-11z"/><path style="opacity:1" fill="#474747" d="M488.5 241.5c2.869 1.025 4.702 3.025 5.5 6a4.934 4.934 0 0 0 .5-3h3c-.219 1.175.114 2.175 1 3l2-4c.441 2.728-.225 5.394-2 8a12.403 12.403 0 0 1-2.5-4 10.258 10.258 0 0 1-1.5 4 76.716 76.716 0 0 1-3.5-6c-.743 1.941-.576 3.774.5 5.5a4.934 4.934 0 0 1-3 .5v-10z"/><path style="opacity:1" fill="#3d3d3d" d="M134.5 241.5c.979 3.125 1.313 6.458 1 10-2.285-1.457-4.118-3.457-5.5-6a20.2 20.2 0 0 1-1.5 6c-2.069-11.589-.235-12.589 5.5-3 .497-2.31.663-4.643.5-7z"/><path style="opacity:1" fill="#353535" d="M641.5 241.5c2.798 1.206 4.965 3.206 6.5 6l1-6a25.238 25.238 0 0 1 0 10 21.53 21.53 0 0 1-5-6 20.2 20.2 0 0 1-1.5 6 25.879 25.879 0 0 1-1-10z"/><path style="opacity:1" fill="#474747" d="M145.5 241.5a64.899 64.899 0 0 0 5 2.5 11.333 11.333 0 0 1 1.5 3.5 4.934 4.934 0 0 0 .5-3h3c-.003 5.092.83 5.092 2.5 0 .36 2.591-.307 4.924-2 7l-2-4c-.29 1.544-.956 2.877-2 4a76.716 76.716 0 0 0-3.5-6c-.741 2.188-1.074 4.188-1 6a3.647 3.647 0 0 1-1.5-1 40.914 40.914 0 0 1-.5-9z"/><path style="opacity:1" fill="#464646" d="M172.5 241.5c1.545.73 2.378 2.063 2.5 4 .965-1.76 2.132-2.094 3.5-1-.982 2.334-1.149 4.668-.5 7l-3-3a6.802 6.802 0 0 1-1.5 3 25.879 25.879 0 0 1-1-10z"/><path style="opacity:1" fill="#e1e1e1" d="M504.5 245.5h3c.384 2.165-.283 3.832-2 5-2.204-1.282-2.538-2.949-1-5z"/><path style="opacity:1" fill="#4c4c4c" d="M523.5 243.5c1.644-.214 3.144.12 4.5 1 .205 2.082.038 4.249-.5 6.5-1.903.774-3.57.44-5-1 1.451.263 2.784.096 4-.5a15.014 15.014 0 0 1-4-3.5c.243-.902.577-1.735 1-2.5z"/><path style="opacity:1" fill="#313131" d="M687.5 241.5c.802 1.452 1.302 3.118 1.5 5 3.207-2.65 3.707-2.484 1.5.5 4.102 4.939 3.769 5.439-1 1.5a44.093 44.093 0 0 1-2 3v-10z"/><path style="opacity:1" fill="#8f8f8f" d="M486.5 247.5v2c-3.916 1.763-5.583.429-5-4 1.822.331 3.489.998 5 2z"/><path style="opacity:1" fill="#565656" d="M510.5 243.5c1.478-.262 2.811.071 4 1a22.725 22.725 0 0 0-3 7 16.873 16.873 0 0 1-1-8z"/><path style="opacity:1" fill="#383838" d="M515.5 241.5c1.545.73 2.378 2.063 2.5 4 .718-.951 1.551-1.117 2.5-.5-.631 2.355-.631 4.522 0 6.5-1.837-3.713-3.337-3.713-4.5 0a50.464 50.464 0 0 1-.5-10z"/><path style="opacity:1" fill="#686868" d="M653.5 243.5c4.762.592 6.096 3.092 4 7.5-6.097.147-7.43-2.353-4-7.5z"/><path style="opacity:1" fill="#242424" d="M682.5 244.5c1.291-.237 2.291.096 3 1-1.664 1.449-2.498 3.449-2.5 6a24.935 24.935 0 0 1-.5-7z"/><path style="opacity:1" fill="#484848" d="M694.5 243.5c1.644-.214 3.144.12 4.5 1 .667.667.667 1.333 0 2-4.171-1.115-4.338-.782-.5 1 .929 1.189 1.262 2.522 1 4-1.788.285-3.455-.048-5-1 1.187-.054 2.52-.387 4-1-2.837-1.009-4.17-3.009-4-6z"/><path style="opacity:1" fill="#434343" d="M660.5 241.5c3.004 1.352 4.837 3.685 5.5 7a8.43 8.43 0 0 0 .5-4c1.624-.14 2.79.527 3.5 2 .981-3.189 2.314-3.522 4-1 5.67-3.346 7.67-1.68 6 5-3.943 1.751-6.277.418-7-4-1.247 5.845-2.913 6.179-5 1-.196 1.786-1.029 3.119-2.5 4l-3-6c-.741 2.188-1.074 4.188-1 6a25.879 25.879 0 0 1-1-10z"/><path style="opacity:1" fill="#e2e2e2" d="M675.5 245.5c3.661-.15 4.661 1.35 3 4.5-.949.617-1.782.451-2.5-.5a8.43 8.43 0 0 1-.5-4z"/><path style="opacity:1" fill="#565656" d="M137.5 249.5v-4c2.611-2.774 4.944-2.441 7 1-.212 4.058-2.212 5.558-6 4.5-.556-.383-.889-.883-1-1.5z"/><path style="opacity:1" fill="#494949" d="M161.5 243.5c2.222-.322 4.056.345 5.5 2 1.153-1.997 2.653-2.33 4.5-1a22.725 22.725 0 0 0-3 7 4.457 4.457 0 0 1-1.5-2c-2.333 2.667-4.667 2.667-7 0-.409-2.195.091-4.195 1.5-6z"/><path style="opacity:1" fill="#dedede" d="M161.5 245.5c3.661-.15 4.661 1.35 3 4.5-.949.617-1.782.451-2.5-.5a8.43 8.43 0 0 1-.5-4z"/><path style="opacity:1" fill="#464646" d="M180.5 243.5c1.644-.214 3.144.12 4.5 1 .667.667.667 1.333 0 2-4.171-1.115-4.338-.782-.5 1 .929 1.189 1.262 2.522 1 4-1.788.285-3.455-.048-5-1 1.187-.054 2.52-.387 4-1a15.69 15.69 0 0 0-4-2c-1.126-1.308-1.126-2.642 0-4z"/><path style="opacity:1" fill="#3d3d3d" d="M486.5 247.5a13.227 13.227 0 0 0-5-2c-.583 4.429 1.084 5.763 5 4-1.159 1.877-2.826 2.377-5 1.5-1.091-2.064-1.258-4.231-.5-6.5 3.466-1.85 5.299-.85 5.5 3z"/><path style="opacity:1" fill="#4d6278" d="M494.5 286.5a19.403 19.403 0 0 0-4-9c-2.631 3.089-4.631 6.589-6 10.5l-4.5.5c-1.986-.069-3.486-.735-4.5-2a11.596 11.596 0 0 0 7 .5 105.18 105.18 0 0 0 4.5-10.5c1.733-2.102 3.733-2.435 6-1 1.73 3.761 3.23 7.595 4.5 11.5 3.841-1 7.841-1.5 12-1.5v3c-5.307.526-10.307-.14-15-2z"/><path style="opacity:1" fill="#3b506a" d="M461.5 286.5a31.774 31.774 0 0 1 7 2.5 14.325 14.325 0 0 1-5.5 2.5c-3.298-1.567-6.798-2.4-10.5-2.5 3.492.07 6.492-.763 9-2.5z"/><path style="opacity:1" fill="#c1c8d0" d="m473.5 274.5 2 12c1.014 1.265 2.514 1.931 4.5 2l4.5-.5c1.369-3.911 3.369-7.411 6-10.5a19.403 19.403 0 0 1 4 9 26.416 26.416 0 0 0-4.5-4c-2.053 3.481-4.553 6.481-7.5 9a185.977 185.977 0 0 1-3-2 15.855 15.855 0 0 0-5.5 6c-.5-6.992-.666-13.992-.5-21z"/><path style="opacity:1" fill="#334a64" d="M526.5 287.5c9.065.601 9.232 1.934.5 4-1.722-.111-1.888-.611-.5-1.5l-9-1c3.195-.181 6.195-.681 9-1.5z"/><path style="opacity:1" fill="#c6ccd2" d="M512.5 294.5c.904.709 1.237 1.709 1 3-7.033.003-14.033.503-21 1.5-1.544.29-2.877.956-4 2 8.843.17 17.51.67 26 1.5-9.357.332-18.69-.002-28-1a10.91 10.91 0 0 1 5-4.5c7.405.135 14.405-.698 21-2.5z"/><path style="opacity:1" fill="#456386" d="M631.5 295.5c1.915-.284 3.581.049 5 1-.26 2.095-1.426 3.428-3.5 4-2.611-1-3.111-2.667-1.5-5z"/><path style="opacity:1" fill="#445a71" d="M473.5 274.5c-.166 7.008 0 14.008.5 21a15.855 15.855 0 0 1 5.5-6c1.018.693 2.018 1.359 3 2 .099 3.105 1.099 5.772 3 8 2.151-3.076 5.151-4.576 9-4.5a162.597 162.597 0 0 1 18-.5c-6.595 1.802-13.595 2.635-21 2.5a10.91 10.91 0 0 0-5 4.5c9.31.998 18.643 1.332 28 1-13.827 1.161-27.827 1.327-42 .5a108.37 108.37 0 0 1-1-14.5c.007-5.051.673-9.717 2-14z"/><path style="opacity:1" fill="#dee2e5" d="M478.5 292.5c1.086.12 1.753.787 2 2a28.741 28.741 0 0 1 2 7h-9a4.934 4.934 0 0 1 .5-3c2.227-1.455 3.727-3.455 4.5-6z"/><path style="opacity:1" fill="#446081" d="M716.5 319.5v1a12.93 12.93 0 0 1-5-.5c-1.5-2.167-1-3.667 1.5-4.5 2.074.572 3.24 1.905 3.5 4z"/><path style="opacity:1" fill="#f1f1ef" d="M177.5 282.5a4.934 4.934 0 0 1 3 .5 68.616 68.616 0 0 1-7 9c1.164 2.705 2.831 4.205 5 4.5a10.756 10.756 0 0 1-2.5 3 221.795 221.795 0 0 0 .5 33 6.846 6.846 0 0 1 4 1l2.5-3 1-10c1.41 5.879 1.91 11.879 1.5 18 3.41-.043 6.743.457 10 1.5-.837 1.011-1.17 2.178-1 3.5a20.093 20.093 0 0 0-6 1.5c-1.211 1.113-1.211 2.28 0 3.5-1.434.73-2.6 1.73-3.5 3l-1-2c-4.664 3.998-7.664 8.998-9 15l-2-2c-.29 1.544-.956 2.877-2 4a66.345 66.345 0 0 1-6.5-8c-2.413 1.549-4.413 3.549-6 6a32.065 32.065 0 0 0-2.5-4c-3.431.492-5.598-1.175-6.5-5 1.991-2.671 1.991-5.504 0-8.5-3.401-1.135-5.401.032-6 3.5 1.198 2.642 2.032 5.309 2.5 8-2.696-1.505-5.862-2.505-9.5-3a89.617 89.617 0 0 0-5.5-9c-1.011.837-2.178 1.17-3.5 1a51.569 51.569 0 0 0 1 7c-1.322.17-2.489-.163-3.5-1 .038-5.375-1.296-10.375-4-15-1.299-.466-2.799-.466-4.5 0-.936-3.459-2.936-6.293-6-8.5l2-1c-3.608-2.618-3.608-3.451 0-2.5a14.72 14.72 0 0 0 1.5-5 38.644 38.644 0 0 1 7 14c.832-2.616 2.332-5.116 4.5-7.5a10.258 10.258 0 0 1-4-1.5 13.116 13.116 0 0 1 7-1v4c3.426.15 3.759-1.016 1-3.5a20.431 20.431 0 0 0 1.5-5.5c1.539 1.046 1.705 2.379.5 4a403.603 403.603 0 0 1 5.5 19 60.274 60.274 0 0 1 4.5-9.5 4.934 4.934 0 0 0-3-.5 4.934 4.934 0 0 1-.5 3 59.271 59.271 0 0 1-2.5-8 26.585 26.585 0 0 1 3.5-2c.066-11.644-1.267-23.311-4-35-2.228-.799-3.561.201-4 3-1.699-.906-3.533-1.239-5.5-1 1.196 19.816.363 19.816-2.5 0-.71-1.473-1.876-2.14-3.5-2 .386-3.355 2.053-4.355 5-3a228.963 228.963 0 0 0 5.5-3c2.123 1.083 4.29 1.083 6.5 0a8.43 8.43 0 0 0 .5 4 23.65 23.65 0 0 1 3.5-3c-1.109-1.714-.442-2.381 2-2-.095 2.858-1.262 5.191-3.5 7-.607 4.97-.107 9.803 1.5 14.5l-1 1c2.43 3.288 3.597 6.788 3.5 10.5 2.841 3.151 4.674 2.651 5.5-1.5 1.049-.492 2.049-.326 3 .5 1.841 2.012 2.841 4.345 3 7 1.322-.17 2.489.163 3.5 1 2.087-2.245 3.421-4.912 4-8 1.614 3.102 3.447 3.436 5.5 1a44.495 44.495 0 0 0 1.5-12c-1.844-2.386-4.344-3.553-7.5-3.5 2.808-.019 5.141-1.019 7-3-2.916-2.071-2.582-3.405 1-4-2.423-1.571-3.756-3.737-4-6.5a12.93 12.93 0 0 0 5-.5c-1.473-.71-2.14-1.876-2-3.5 3.667 1.985 6.667 1.319 9-2z"/><path style="opacity:1" fill="#485d74" d="M465.5 324.5c.763.768 1.763 1.268 3 1.5a40.79 40.79 0 0 1-5.5 2.5c-3.276-1.727-6.776-2.394-10.5-2 3.302-.665 6.636-1.665 10-3 1.084.185 2.084.518 3 1z"/><path style="opacity:1" fill="#334c68" d="M530.5 324.5c2.667 1 2.667 2 0 3-17.333-1-17.333-2 0-3z"/><path style="opacity:1" fill="#b9c0c7" d="M530.5 324.5c-17.333 1-17.333 2 0 3-.812 1.493-2.145 2.16-4 2a44.673 44.673 0 0 0-10-1v-4c3.398.358 6.565-.308 9.5-2 1.728.399 3.228 1.066 4.5 2z"/><path style="opacity:1" fill="#bcc4cb" d="M471.5 311.5v28c-.825-4.147-1.325-8.481-1.5-13-1.853 2.092-4.186 3.092-7 3-4.015-.042-7.515-1.042-10.5-3 3.724-.394 7.224.273 10.5 2a40.79 40.79 0 0 0 5.5-2.5c-1.237-.232-2.237-.732-3-1.5 1.644-.214 3.144.12 4.5 1 .174-4.851.674-9.518 1.5-14z"/><path style="opacity:1" fill="#4a6077" d="M471.5 311.5h2c-.166 7.008 0 14.008.5 21 3.633-2.668 4.133-5.668 1.5-9a32.462 32.462 0 0 0 8-.5 201.964 201.964 0 0 0 3.5-9.5c1.466-1.825 3.299-2.325 5.5-1.5a72.322 72.322 0 0 0 5 11c4.067.003 8.067.17 12 .5-4.224 1.58-8.558 2.08-13 1.5a87.482 87.482 0 0 1-6-11.5c-1.994 2.655-3.494 5.655-4.5 9-.908 1.939-2.408 2.939-4.5 3 .57 4.053 1.904 7.72 4 11 1.951-2.122 4.285-3.622 7-4.5a67.229 67.229 0 0 1 20 .5 222.728 222.728 0 0 1-21 1.5c-1.442.377-2.442 1.21-3 2.5-.978.311-1.645.978-2 2 9.31.998 18.643 1.332 28 1-14.235 1.322-28.569 1.322-43 0v-28z"/><path style="opacity:1" fill="#aab5c1" d="m473.5 311.5 2 12c2.633 3.332 2.133 6.332-1.5 9-.5-6.992-.666-13.992-.5-21z"/><path style="opacity:1" fill="#d5dade" d="M478.5 329.5c2.358 2.743 3.691 6.077 4 10a32.462 32.462 0 0 1-8-.5c-.88-1.356-1.214-2.856-1-4.5 2.755-.463 4.422-2.13 5-5z"/><path style="opacity:1" fill="#9facb8" d="M488.5 336.5c8.452 1.655 17.119 2.655 26 3-9.357.332-18.69-.002-28-1 .355-1.022 1.022-1.689 2-2z"/><path style="opacity:1" fill="#d6e0ea" d="M688.5 286.5c.709.904 1.709 1.237 3 1 .284 1.915-.049 3.581-1 5 .233-3.454-1.1-4.454-4-3 .048-2.792-1.285-4.625-4-5.5-2.859-.553-5.692-.386-8.5.5-9.736-3.692-18.57-2.192-26.5 4.5-3.456-.093-6.456.907-9 3 2.269-.374 4.602-.374 7 0a4.933 4.933 0 0 1 1 2.5 136.028 136.028 0 0 1-13 21.5c4.173.831 7.673-.335 10.5-3.5.374.916.874 1.75 1.5 2.5l-6.5 6.5c-1.187 1.544-1.52 3.211-1 5 7.831-9.002 17.665-13.168 29.5-12.5 1.786.196 3.119 1.029 4 2.5a149.304 149.304 0 0 1-7.5 14c-.335-2.68.499-5.013 2.5-7a112.33 112.33 0 0 1-5-2c3.45.744 5.116-.59 5-4 1.175.219 2.175-.114 3-1-12.583-2.38-22.916 1.453-31 11.5-4.287.278-8.287-.389-12-2-1.51 1.351-2.51 3.018-3 5a95.355 95.355 0 0 0 6 6.5c-5.439 4.135-5.105 8.135 1 12 .683-.363 1.35-.696 2-1 .321 1.548 1.321 2.215 3 2 .215-1.679-.452-2.679-2-3 3.433-.899 6.266-2.899 8.5-6l1 1a4.934 4.934 0 0 0 .5-3c2.165-.384 3.832.283 5 2a40.865 40.865 0 0 1-10.5 8c-.265 1.663.235 3.163 1.5 4.5-1.154.914-.987 1.747.5 2.5l3-1c.617.949.451 1.782-.5 2.5 2.31.497 4.643.663 7 .5a8.43 8.43 0 0 1 .5-4c1.011.837 2.178 1.17 3.5 1-1.333 1.667-1.333 3.333 0 5-1.325 1.453-2.158 1.119-2.5-1-.756 3.292-2.589 4.292-5.5 3a64.501 64.501 0 0 0-6.5-4c-1.903-1.941-2.736-4.274-2.5-7-5.043 1.069-8.877-.597-11.5-5-.072-5.383-.905-10.716-2.5-16-.094-2.412.906-4.245 3-5.5l10-1a29.964 29.964 0 0 1 6-7c-3.592.413-7.259.913-11 1.5a90.417 90.417 0 0 1-8-1.5c-2.353 3.405-3.52 7.238-3.5 11.5-1.54-5.566-.207-10.232 4-14 .669-6.97 1.169-7.304 1.5-1 3.088.568 6.088.568 9 0a55.582 55.582 0 0 0 1.5-9c6.286-1.588 9.453-5.588 9.5-12-3.219.276-5.885 1.609-8 4-1.419-.951-3.085-1.284-5-1 1.109-.79 2.442-1.29 4-1.5 2.458-4.898 6.458-7.232 12-7 4.782-4.388 10.449-6.555 17-6.5a105.96 105.96 0 0 0 20 2.5c1.231 1.405 2.564 2.571 4 3.5z"/><path style="opacity:1" fill="#486583" d="M633.5 347.5c1.548.321 2.215 1.321 2 3-1.679.215-2.679-.452-3-2 0-.667.333-1 1-1z"/><path style="opacity:1" fill="#f2f6f8" d="M686.5 289.5v5c1.88.271 3.213-.396 4-2 .951-1.419 1.284-3.085 1-5-1.291.237-2.291-.096-3-1a40.914 40.914 0 0 1 9 .5 45.044 45.044 0 0 0 13.5 9.5c2.71 4.989 5.71 9.656 9 14 .667 2 .667 4 0 6-.422 1.926-1.589 2.926-3.5 3-.26-2.095-1.426-3.428-3.5-4-2.5.833-3 2.333-1.5 4.5a12.93 12.93 0 0 0 5 .5c-.572 9.823-5.906 14.323-16 13.5-1.912 2.788-4.579 4.121-8 4-3.753 8.375-10.086 11.709-19 10a9.454 9.454 0 0 1-1.5-2.5c-.056 5.887-.722 11.887-2 18-1.27 5.459-4.437 7.126-9.5 5-1.137-3.253-2.471-6.253-4-9 2.669-3.177 1.669-4.51-3-4-1.322.17-2.489-.163-3.5-1a8.43 8.43 0 0 0-.5 4 24.935 24.935 0 0 1-7-.5c.951-.718 1.117-1.551.5-2.5l-3 1c-1.487-.753-1.654-1.586-.5-2.5-1.265-1.337-1.765-2.837-1.5-4.5a40.865 40.865 0 0 0 10.5-8c-1.168-1.717-2.835-2.384-5-2a4.934 4.934 0 0 1-.5 3l-1-1c-2.234 3.101-5.067 5.101-8.5 6-.667 0-1 .333-1 1-.65.304-1.317.637-2 1-6.105-3.865-6.439-7.865-1-12a95.355 95.355 0 0 1-6-6.5c.49-1.982 1.49-3.649 3-5 3.713 1.611 7.713 2.278 12 2 8.084-10.047 18.417-13.88 31-11.5-.825.886-1.825 1.219-3 1h-5v4a112.33 112.33 0 0 0 5 2c-2.001 1.987-2.835 4.32-2.5 7a149.304 149.304 0 0 0 7.5-14c-.881-1.471-2.214-2.304-4-2.5-11.835-.668-21.669 3.498-29.5 12.5-.52-1.789-.187-3.456 1-5l6.5-6.5a9.454 9.454 0 0 1-1.5-2.5c-2.827 3.165-6.327 4.331-10.5 3.5a136.028 136.028 0 0 0 13-21.5 4.933 4.933 0 0 0-1-2.5c-2.398-.374-4.731-.374-7 0 2.544-2.093 5.544-3.093 9-3 7.93-6.692 16.764-8.192 26.5-4.5 2.808-.886 5.641-1.053 8.5-.5 2.715.875 4.048 2.708 4 5.5z"/><path style="opacity:1" fill="#7fa8d3" d="M669.5 331.5h4v4h-4v-4z"/><path style="opacity:1" fill="#405d80" d="M689.5 330.5c3.466.609 4.466 2.442 3 5.5-3.963.118-4.963-1.716-3-5.5z"/><path style="opacity:1" fill="#87add4" d="M707.5 323.5h4c.744 3.45-.59 5.116-4 5v-5z"/><path style="opacity:1" fill="#36567c" d="M666.5 317.5c.116 3.41-1.55 4.744-5 4v-4h5z"/><path style="opacity:1" fill="#4c6889" d="M697.5 316.5c3.638-.763 5.138.57 4.5 4-4.585 1.913-6.085.579-4.5-4z"/><path style="opacity:1" fill="#7fa9d4" d="M674.5 308.5h3c.744 3.45-.59 5.116-4 5-.134-1.792.199-3.458 1-5z"/><path style="opacity:1" fill="#425e82" d="M665.5 297.5c2.448-.415 3.781.585 4 3-1.916 3.827-3.583 3.827-5 0a10.014 10.014 0 0 1 1-3z"/><path style="opacity:1" fill="#8cb1d8" d="M651.5 297.5c3.985.129 5.318 1.963 4 5.5-1.284.684-2.451.517-3.5-.5a12.93 12.93 0 0 1-.5-5z"/><path style="opacity:1" fill="#3b5a7f" d="M690.5 292.5c-.787 1.604-2.12 2.271-4 2v-5c2.9-1.454 4.233-.454 4 3z"/><path style="opacity:1" fill="#80aad3" d="M662.5 285.5h5v4c-3.45.744-5.116-.59-5-4z"/><path style="opacity:1" fill="#436082" d="M653.5 355.5c4.669-.51 5.669.823 3 4-.709.904-1.709 1.237-3 1-1.333-1.667-1.333-3.333 0-5z"/><path style="opacity:1" fill="#a6b0b9" d="M462.5 360.5c-2.669 1.587-5.669 2.421-9 2.5 3.263.064 6.263.898 9 2.5a9.108 9.108 0 0 1 5-1c-1.555 1.133-3.389 1.799-5.5 2-3.007-1.479-6.174-2.146-9.5-2v-3c3.288.427 6.288-.24 9-2 .607.124.94.457 1 1z"/><path style="opacity:1" fill="#44586f" d="M462.5 360.5a5.727 5.727 0 0 1 3 1c.763.768 1.763 1.268 3 1.5-.556.383-.889.883-1 1.5a9.108 9.108 0 0 0-5 1c-2.737-1.602-5.737-2.436-9-2.5 3.331-.079 6.331-.913 9-2.5z"/><path style="opacity:1" fill="#435871" d="M526.5 360.5c6.516 1.532 6.516 3.198 0 5-2.798-1.453-5.798-2.453-9-3a467.073 467.073 0 0 0 9-2z"/><path style="opacity:1" fill="#495e76" d="M471.5 348.5h2c-.166 7.008 0 14.008.5 21a69.2 69.2 0 0 1 4.5-6.5c-1.619-.236-2.619-1.069-3-2.5h8a173.738 173.738 0 0 0 3.5-10c1.733-2.102 3.733-2.435 6-1a292.681 292.681 0 0 1 4.5 10.5c3.995-.605 7.995-.438 12 .5a38.581 38.581 0 0 1-13 1.5c-2.331-3.147-3.998-6.647-5-10.5-.502-1.021-1.168-1.188-2-.5a95.755 95.755 0 0 0-3.5 8.5c-1.242 2.041-3.075 3.207-5.5 3.5a142.483 142.483 0 0 1 4.5 10.5c2.602-2.883 5.768-4.55 9.5-5 6.009-.166 12.009.001 18 .5l-17 1c-1.558.21-2.891.71-4 1.5-1.884.212-3.217 1.212-4 3 9.371.35 18.371 1.35 27 3-14.004.167-28.004 0-42-.5a207.49 207.49 0 0 1-1-28.5z"/><path style="opacity:1" fill="#a9b6c3" d="m473.5 348.5 2 12c.381 1.431 1.381 2.264 3 2.5a69.2 69.2 0 0 0-4.5 6.5c-.5-6.992-.666-13.992-.5-21z"/><path style="opacity:1" fill="#c6cdd2" d="M494.5 368.5c6.153-1.153 12.486-1.32 19-.5.951.718 1.117 1.551.5 2.5a130.161 130.161 0 0 1-22.5 1c1.109-.79 2.442-1.29 4-1.5l17-1a162.597 162.597 0 0 0-18-.5z"/><path style="opacity:1" fill="#e2e5e7" d="M477.5 366.5c1.517.011 2.684.677 3.5 2a52.56 52.56 0 0 1 1.5 7h-8a71.083 71.083 0 0 0 3-9z"/><path style="opacity:1" fill="#bdc3c9" d="M471.5 348.5a207.49 207.49 0 0 0 1 28.5c13.996.5 27.996.667 42 .5-14.161 1.161-28.494 1.327-43 .5a113.601 113.601 0 0 1-1.5-14.5c-.671.752-1.504 1.086-2.5 1 .111-.617.444-1.117 1-1.5-1.237-.232-2.237-.732-3-1.5 1.644-.214 3.144.12 4.5 1 .174-4.851.674-9.518 1.5-14z"/><path style="opacity:1" fill="#3736a6" d="M440.5 391.5c37.83-.999 75.83-1.332 114-1a380.934 380.934 0 0 1-1 39v-38h-113z"/><path style="opacity:1" fill="#0500f1" d="M440.5 391.5h113v38h-113v-38z"/><path style="opacity:1" fill="#ebeaf7" d="M156.5 405.5c-2.554 3.493-2.554 7.16 0 11h-4c-7 1.333-14 1.333-21 0 1.697-1.805 2.53-4.139 2.5-7a69.2 69.2 0 0 0 4.5 6.5 4.934 4.934 0 0 0 3 .5c.58-4.149-.086-7.816-2-11l-2 6a16.339 16.339 0 0 1-2-5 19.209 19.209 0 0 1 3-6.5l-2-1a31.783 31.783 0 0 0 9-2.5c1.237.056 2.237.556 3 1.5l-2 6c3.525.179 6.859.679 10 1.5z"/><path style="opacity:1" fill="#1911ec" d="M539.5 415.5c-1.552-4.115-2.385-8.448-2.5-13-.768 4.42-.602 8.753.5 13-2.807 1.157-5.474 1.157-8 0 1.603.188 2.937-.312 4-1.5-6.403-1.423-6.069-2.257 1-2.5-.376-4.681-2.709-6.015-7-4-1.475 2.943-1.142 5.609 1 8-2.198.567-4.531.567-7 0 2.022-4.038 2.522-8.371 1.5-13-1.188 1.063-1.688 2.397-1.5 4-5.888-.242-7.555 2.424-5 8-1.25-.077-2.083-.744-2.5-2-.422 1.926-1.589 2.926-3.5 3 1.891-2.336 2.391-5.002 1.5-8-7.432-1.389-9.265 1.278-5.5 8-.111.617-.444 1.117-1 1.5a6.802 6.802 0 0 1 3 1.5c-.566.791-1.399.791-2.5 0a76.133 76.133 0 0 1-16.5 2c-5.415-.029-10.582-.695-15.5-2-1.622 2.047-3.788 3.047-6.5 3a392.282 392.282 0 0 1-19-1.5c-1.158-1.009-1.825-2.342-2-4a541.913 541.913 0 0 0 1.5-11.5c.278-.916.778-1.582 1.5-2 1.1-1.058 2.434-1.892 4-2.5 8.078.159 16.245-.008 24.5-.5l12.5.5c2.803.678 5.303 1.844 7.5 3.5a8.43 8.43 0 0 0 .5-4c2.324.495 4.491.495 6.5 0l6 2a16.252 16.252 0 0 1 4.5-2 148.491 148.491 0 0 0 27 .5c1.271 4.823 1.105 9.657-.5 14.5-.671.752-1.504 1.086-2.5 1z"/><path style="opacity:1" fill="#c9c9f5" d="M449.5 402.5c1.914 3.184 2.58 6.851 2 11a9.86 9.86 0 0 1 6 1 16.873 16.873 0 0 1-8 1v-13z"/><path style="opacity:1" fill="#ededfc" d="m491.5 405.5-1 2a24.935 24.935 0 0 1-.5 7c-.667-4-.667-8 0-12 1.039.744 1.539 1.744 1.5 3z"/><path style="opacity:1" fill="#544ce7" d="M180.5 405.5c7.861-.351 10.194 2.816 7 9.5-6.748 2.909-9.914.743-9.5-6.5a10.515 10.515 0 0 0 2.5-3z"/><path style="opacity:1" fill="#c99ec4" d="m112.5 416.5-2-9c.35-4.046-.317-7.88-2-11.5 1.85.595 3.85 1.095 6 1.5a72.26 72.26 0 0 1-2 19z"/><path style="opacity:1" fill="#bfbeef" d="M471.5 402.5a83.084 83.084 0 0 0 7.5 8 34.251 34.251 0 0 1 1.5-8c2.709 13.942.209 15.275-7.5 4l-1 8a72.367 72.367 0 0 1-.5-12z"/><path style="opacity:1" fill="#e8edfa" d="M500.5 414.5a34.163 34.163 0 0 0-1-10c.283-.789.783-1.456 1.5-2 .812 4.189.645 8.189-.5 12z"/><path style="opacity:1" fill="#4f4cea" d="M135.5 406.5a16.339 16.339 0 0 0 2 5c.06.543.393.876 1 1a13.116 13.116 0 0 0 1-7c1.914 3.184 2.58 6.851 2 11a4.934 4.934 0 0 1-3-.5 69.2 69.2 0 0 1-4.5-6.5c.03 2.861-.803 5.195-2.5 7v-11c1.459-.067 2.792.266 4 1z"/><path style="opacity:1" fill="#9791ed" d="M139.5 405.5a13.116 13.116 0 0 1-1 7c-.607-.124-.94-.457-1-1l2-6z"/><path style="opacity:1" fill="#b8b9f0" d="M461.5 402.5c2.657-.338 4.99.329 7 2-2.172.176-4.505.343-7 .5-3.102 5.628-1.436 8.462 5 8.5.02-1.643-.647-2.976-2-4 1.189-.929 2.522-1.262 4-1 .987 5.831-1.346 7.998-7 6.5-3.953-4.165-3.953-8.331 0-12.5z"/><path style="opacity:1" fill="#516ebe" d="M650.5 406.5h3v3h-3v-3z"/><path style="opacity:1" fill="#3e61be" d="M688.5 423.5c-3.829.569-7.163-.098-10-2 1.209-4.621 1.209-9.287 0-14 10.152-2.006 14.652 1.994 13.5 12-.69 1.85-1.856 3.184-3.5 4z"/><path style="opacity:1" fill="#3e61bf" d="M708.5 407.5a9.86 9.86 0 0 1-1 6c-2.088-2.365-4.754-3.365-8-3-.221 4.295 1.112 4.962 4 2 1.333 2 1.333 4 0 6-3.192-2.618-4.525-1.618-4 3h7v-4h3v6h-15c2.656-5.279 2.656-10.612 0-16h14z"/><path style="opacity:1" fill="#9b9df2" d="M146.5 407.5c1.302 1.528 2.969 2.528 5 3h-6c-.237-1.291.096-2.291 1-3z"/><path style="opacity:1" fill="#4e4ae7" d="M166.5 405.5c2.948-.277 5.781.056 8.5 1 .687 2.068.52 4.068-.5 6l2 3c-2.006 1.126-3.34.46-4-2-1.189-.929-2.522-1.262-4-1 .262 1.478-.071 2.811-1 4a31.116 31.116 0 0 1-1-11z"/><path style="opacity:1" fill="#d0d2f4" d="M168.5 407.5h5v3h-5v-3z"/><path style="opacity:1" fill="#ebeaf6" d="M181.5 407.5c4.828-.115 6.161 2.052 4 6.5-4.93.427-6.263-1.74-4-6.5z"/><path style="opacity:1" fill="#acadef" d="M529.5 415.5h-1c-2.142-2.391-2.475-5.057-1-8 4.291-2.015 6.624-.681 7 4-7.069.243-7.403 1.077-1 2.5-1.063 1.188-2.397 1.688-4 1.5z"/><path style="opacity:1" fill="#5750e8" d="M528.5 408.5c1.478-.262 2.811.071 4 1l-2 1c-1.213-.247-1.88-.914-2-2z"/><path style="opacity:1" fill="#c7c7f3" d="M539.5 415.5h-2c-1.102-4.247-1.268-8.58-.5-13 .115 4.552.948 8.885 2.5 13z"/><path style="opacity:1" fill="#3a5ebf" d="M639.5 423.5h-11c2.656-5.279 2.656-10.612 0-16 3.35-.165 6.683.002 10 .5 4.569 2.541 6.069 6.375 4.5 11.5a19.552 19.552 0 0 0-3.5 4z"/><path style="opacity:1" fill="#b1bbd4" d="M708.5 407.5c1.129 2.128 1.296 4.461.5 7a26.585 26.585 0 0 0-3.5 2c.124.607.457.94 1 1v4h-7c-.525-4.618.808-5.618 4-3 1.333-2 1.333-4 0-6-2.888 2.962-4.221 2.295-4-2 3.246-.365 5.912.635 8 3a9.86 9.86 0 0 0 1-6z"/><path style="opacity:1" fill="#aeadef" d="M499.5 404.5a34.163 34.163 0 0 1 1 10c-.809-1.792-1.309-3.792-1.5-6a26.852 26.852 0 0 1-3.5 6 65.576 65.576 0 0 1-5-7l1-2a23.72 23.72 0 0 0 4 5 525.082 525.082 0 0 1 4-6z"/><path style="opacity:1" fill="#b2aff0" d="M510.5 415.5h-4c-3.765-6.722-1.932-9.389 5.5-8 .891 2.998.391 5.664-1.5 8z"/><path style="opacity:1" fill="#251be6" d="M506.5 408.5c4.176-.669 5.509.831 4 4.5a8.43 8.43 0 0 1-4 .5v-5z"/><path style="opacity:1" fill="#bab9f0" d="M521.5 415.5c-1.792.134-3.458-.199-5-1-2.555-5.576-.888-8.242 5-8-.188-1.603.312-2.937 1.5-4 1.022 4.629.522 8.962-1.5 13z"/><path style="opacity:1" fill="#251de6" d="M517.5 408.5h4v5c-4.435.578-5.768-1.089-4-5z"/><path style="opacity:1" fill="#5751e8" d="M156.5 405.5a32.462 32.462 0 0 0 .5 8c1.356.88 2.856 1.214 4.5 1v-9h3c2.164 7.53-.503 11.197-8 11-2.554-3.84-2.554-7.507 0-11z"/><path style="opacity:1" fill="#5850e8" d="M190.5 405.5a4.934 4.934 0 0 1 3 .5 69.2 69.2 0 0 1 4.5 6.5c.186-2.4.686-4.734 1.5-7a31.116 31.116 0 0 1 1 11c-2.885-1.045-5.052-3.045-6.5-6a18.453 18.453 0 0 0-.5 6h-3v-11z"/><path style="opacity:1" fill="#e9edf2" d="M682.5 410.5c6.765-.036 8.765 3.131 6 9.5a18.453 18.453 0 0 1-6 .5v-10z"/><path style="opacity:1" fill="#e1e6ed" d="M632.5 410.5c7.986-.502 9.986 2.665 6 9.5a18.453 18.453 0 0 1-6 .5v-10z"/><path style="opacity:1" fill="#6580c3" d="M654.5 420.5c1.599-.268 2.932.066 4 1-3.529 1.923-7.529 2.589-12 2v-3h4v-6h-3v-3h7v9z"/><path style="opacity:1" fill="#4c46e5" d="M146.5 407.5c-.904.709-1.237 1.709-1 3h6c-1.765.961-3.765 1.295-6 1v3c2.888-.51 5.221.156 7 2h-9v-11a21.127 21.127 0 0 1 9 1 9.86 9.86 0 0 1-6 1z"/><path style="opacity:1" fill="#3f61c0" d="M671.5 421.5c-.834 1.248-2.167 1.915-4 2-1.833-.085-3.166-.752-4-2 1.382-4.77 1.048-9.436-1-14a60.931 60.931 0 0 1 11 .5c2.879 1.666 3.712 4.166 2.5 7.5-2.14 1.987-4.64 3.32-7.5 4a44.093 44.093 0 0 1 3 2z"/><path style="opacity:1" fill="#b8c2dc" d="M667.5 410.5h6c.438 4.408-1.562 6.075-6 5v-5z"/><path style="opacity:1" fill="#a8a7a8" d="M158.5 419.5a19.177 19.177 0 0 1 5 2.5c-.862 2.734-1.695 2.901-2.5.5-4.801.692-9.635 1.358-14.5 2a7.248 7.248 0 0 1-2.5-2c-1.699.906-3.533 1.239-5.5 1v-3c6.854.324 13.521-.009 20-1z"/><path style="opacity:1" fill="#2c57c0" d="M654.5 420.5c.763.768 1.763 1.268 3 1.5-6.478.861-8.478.694-6-.5v-8a4.934 4.934 0 0 1-3-.5 12.93 12.93 0 0 1 5-.5c-.306 2.885.027 5.552 1 8z"/><path style="opacity:1" fill="#bebdbc" d="M178.5 419.5a31.71 31.71 0 0 1 6 2 538.326 538.326 0 0 1 24-1v4a463.087 463.087 0 0 1-43-1c-1.141-.925-1.141-1.759 0-2.5 2.929-.777 5.763-.61 8.5.5a36.354 36.354 0 0 0 4.5-2z"/><path style="opacity:1" fill="#a6b6d6" d="M658.5 421.5c.904.709 1.237 1.709 1 3h3c-.237-1.291.096-2.291 1-3 .834 1.248 2.167 1.915 4 2 1.833-.085 3.166-.752 4-2 .904.709 1.237 1.709 1 3h5c-.237-1.291.096-2.291 1-3 2.837 1.902 6.171 2.569 10 2 2 1.333 4 1.333 6 0h15l1 2h-82v-2h11c2.333 1.333 4.667 1.333 7 0 4.471.589 8.471-.077 12-2z"/><path style="opacity:1" fill="#ebd1d8" d="m110.5 407.5 2 9c-.165 3.35.002 6.683.5 10 2.166-3.646 4.166-3.313 6 1 .74 1.249.573 2.249-.5 3-.12-1.086-.787-1.753-2-2a343.58 343.58 0 0 1-4 1c-.787-1.604-2.12-2.271-4-2v3l-3-1.5c1.117-1.892 2.784-2.725 5-2.5v-19z"/><path style="opacity:1" fill="#4e6ebf" d="M628.5 425.5h82v3h-82v-3z"/><path style="opacity:1" fill="#ce788a" d="M118.5 430.5c-4.541-.169-4.874.498-1 2-1.189.929-2.522 1.262-4 1-.734-1.208-1.067-2.541-1-4a343.58 343.58 0 0 0 4-1c1.213.247 1.88.914 2 2z"/><path style="opacity:1" fill="#e59f6f" d="M112.5 429.5c-.067 1.459.266 2.792 1 4-2.348-.092-4.014-1.092-5-3v-3c1.88-.271 3.213.396 4 2z"/><path style="opacity:1" fill="#474747" d="M88.5 183.5c-.167 84.334 0 168.667.5 253 2.573 8.239 8.073 13.405 16.5 15.5 35.333.667 70.667.667 106 0 9.182-2.683 15.182-8.517 18-17.5h1c-2.752 9.92-9.086 16.42-19 19.5-35.333.667-70.667.667-106 0-7.635-2.146-13.302-6.646-17-13.5l-2-7 2-250z"/><path style="opacity:1" fill="#242424" d="M379.5 162.5c9.916 2.749 16.416 9.082 19.5 19 .667 84.333.667 168.667 0 253-2.5 10.5-9 17-19.5 19.5-35 .667-70 .667-105 0-7.951-2.285-13.785-7.119-17.5-14.5a11128.62 11128.62 0 0 1-1.5-257l2 251c1.645 9.814 7.312 15.98 17 18.5 35 .667 70 .667 105 0 9.719-1.929 15.552-7.763 17.5-17.5.667-84.333.667-168.667 0-253-2.893-10.065-9.393-16.065-19.5-18 .992.172 1.658-.162 2-1z"/><path style="opacity:1" fill="#eb7348" d="M280.5 388.5c32.668-.167 65.335 0 98 .5l2.5 2.5c.667 12 .667 24 0 36a6.978 6.978 0 0 1-2.5 3.5c-33.665.5-67.332.667-101 .5-.167-13.337 0-26.671.5-40a10.515 10.515 0 0 0 2.5-3z"/><path style="opacity:1" fill="#f7e6db" d="M362.5 410.5c4.659-.485 5.992 1.348 4 5.5-4.772.81-6.105-1.023-4-5.5z"/><path style="opacity:1" fill="#f8e6da" d="M371.5 411.5h5v5c-4 .667-5.667-1-5-5z"/><path style="opacity:1" fill="#faebe2" d="M305.5 401.5c7.528-1.27 11.528 1.73 12 9h-11v3c3.831.084 7.498-.583 11-2 .363 2.411-.637 3.911-3 4.5a25.238 25.238 0 0 1-10 0c-4.109-5.168-3.776-10.001 1-14.5z"/><path style="opacity:1" fill="#f9ebe2" d="M322.5 401.5h12v5a46.86 46.86 0 0 0-9-2v3c3.149-.289 6.149.211 9 1.5 1.72 3.086 1.053 5.419-2 7a60.931 60.931 0 0 1-11 .5c-.285-1.788.048-3.455 1-5 2.245 2.123 4.912 3.123 8 3 .17-1.322-.163-2.489-1-3.5-8.276.603-10.609-2.564-7-9.5z"/><path style="opacity:1" fill="#e87f56" d="M306.5 404.5c2.477-.449 4.477.217 6 2-2.333 1.333-4.667 1.333-7 0 .363-.683.696-1.35 1-2z"/><path style="opacity:1" fill="#f9ece4" d="M362.5 401.5c3.638-.763 5.138.57 4.5 4-4.585 1.913-6.085.579-4.5-4z"/><path style="opacity:1" fill="#f8eee3" d="M371.5 401.5h5v5h-5v-5z"/><path style="opacity:1" fill="#f9eae2" d="M341.5 397.5h4v5h7v4h-7v6c3.018-.204 6.018-.537 9-1v4a27.356 27.356 0 0 1-11 .5c-1.84-2.826-2.506-5.993-2-9.5h-3v-4h3v-5z"/><path style="opacity:1" fill="#faeee6" d="M282.5 401.5a40.937 40.937 0 0 0 13 .5l1.5 1.5a49.943 49.943 0 0 0 2.5 13h-8c1.453-3.486 2.119-7.153 2-11h-5c-.119 3.847.547 7.514 2 11h-8a53.669 53.669 0 0 0 2-7 702.66 702.66 0 0 1-2-8z"/><path style="opacity:1" fill="#5d58ad" d="M320.5 361.5c1.086.12 1.753.787 2 2l-1 2c-.929-1.189-1.262-2.522-1-4z"/><path style="opacity:1" fill="#726eb7" d="M357.5 352.5c1.837.139 2.17.806 1 2-.798-.457-1.131-1.124-1-2z"/><path style="opacity:1" fill="#b4afdb" d="M347.5 343.5c1.058 1.1 1.892 2.434 2.5 4 .744-5.04 1.91-5.207 3.5-.5a57.15 57.15 0 0 0-5 6.5c.297-3.224-.37-6.224-2-9 .124-.607.457-.94 1-1z"/><path style="opacity:1" fill="#b8adcf" d="M343.5 335.5a10.515 10.515 0 0 1 3 2.5c-2.502 1.496-4.169 3.663-5 6.5-3.633-1.275-3.967-.609-1 2-.221 1.235-.888 2.235-2 3 1.353 1.024 2.02 2.357 2 4h-3c.238-3.599-.762-3.933-3-1-1.211 1.22-1.211 2.387 0 3.5-1.262 1.927-2.262 1.76-3-.5-.779-2.427-1.946-2.427-3.5 0a12.93 12.93 0 0 1-.5-5c1.967-.239 3.801.094 5.5 1 .283-2.102-.55-3.769-2.5-5l1.5-1a9.568 9.568 0 0 1 3 3 11.333 11.333 0 0 1 3.5-1.5c-.535-2.109-1.535-2.609-3-1.5-1.701-1.302-2.868-2.969-3.5-5l-1 1c.771-1.68.605-3.347-.5-5 1.953 1.126 3.453 2.792 4.5 5 .112-2.947 1.612-4.28 4.5-4v-4c1.699.027 3.033.694 4 2z"/><path style="opacity:1" fill="#b5aacf" d="M367.5 335.5a26.416 26.416 0 0 0 4.5 4c1.188-1.063 1.688-2.397 1.5-4h4c-.229 1.933-1.062 3.6-2.5 5-3.664 1.334-6.497.334-8.5-3-.172-.992.162-1.658 1-2z"/><path style="opacity:1" fill="#a29dd6" d="M303.5 336.5v3c-1.88-.271-3.213.396-4 2-1.965-.448-2.298-1.448-1-3 1.342-1.505 3.008-2.172 5-2z"/><path style="opacity:1" fill="#ebeaf0" d="M319.5 325.5c-.936 3.934-.103 7.601 2.5 11 2.736-1.529 2.902-3.029.5-4.5a8.43 8.43 0 0 1 4-.5c.77 4.928 2.27 4.928 4.5 0 .64 1.765.473 3.432-.5 5 1.105 1.653 1.271 3.32.5 5l1-1c.632 2.031 1.799 3.698 3.5 5 1.465-1.109 2.465-.609 3 1.5a11.333 11.333 0 0 0-3.5 1.5 9.568 9.568 0 0 0-3-3l-1.5 1c1.95 1.231 2.783 2.898 2.5 5-1.699-.906-3.533-1.239-5.5-1a12.93 12.93 0 0 0 .5 5c1.554-2.427 2.721-2.427 3.5 0a173.55 173.55 0 0 0-3 4 82.033 82.033 0 0 0-4.5-8 9.454 9.454 0 0 1-2.5 1.5 8.905 8.905 0 0 1 4 3c-3.683.665-5.683-.835-6-4.5a4.934 4.934 0 0 0-3 .5c.906 1.699 1.239 3.533 1 5.5a29.812 29.812 0 0 1-5 .5 18.406 18.406 0 0 0-4-7 9.568 9.568 0 0 1 3-3 8.43 8.43 0 0 0-4-.5 4.934 4.934 0 0 0-.5-3 20.093 20.093 0 0 0-1.5 6h-3a75.247 75.247 0 0 0-3-9c.787-1.604 2.12-2.271 4-2v-3c2.455.928 4.122-.072 5-3l-4-2c.124-.607.457-.94 1-1 .06.543.393.876 1 1 1.686-1.357 3.352-2.69 5-4 .203 1.544.87 2.878 2 4l-1 2c1.503.552 3.169.552 5 0-.466-1.701-.466-3.201 0-4.5a64.899 64.899 0 0 1-5-2.5c-.792-1.467-.792-2.8 0-4a19.868 19.868 0 0 0 7 3z"/><path style="opacity:1" fill="#5d58ba" d="M315.5 346.5h3v3c-3.067.379-4.067-.621-3-3z"/><path style="opacity:1" fill="#6f6ac0" d="M311.5 344.5c-.672.767-1.505 1.434-2.5 2-.798-1.759-.631-3.426.5-5a44.093 44.093 0 0 0 2 3z"/><path style="opacity:1" fill="#afa1c8" d="M318.5 344.5v-4c.874-2.19 2.541-3.19 5-3a9.108 9.108 0 0 1-1 5 4.457 4.457 0 0 0 1.5 2 15.256 15.256 0 0 1 1.5-4.5l-1-1c1.561-.318 2.728-1.151 3.5-2.5l.5 2.5c-1.924 2.115-3.258 4.615-4 7.5a7.248 7.248 0 0 1-2.5-2c-1.092 2.431-2.259 2.431-3.5 0z"/><path style="opacity:1" fill="#6e6ab9" d="M318.5 340.5v4c-.761-.891-1.761-1.558-3-2a89.247 89.247 0 0 1-4 2c-.262-1.478.071-2.811 1-4 1.982 1.123 3.982 1.123 6 0z"/><path style="opacity:1" fill="#b2b0d9" d="M312.5 326.5a64.899 64.899 0 0 0 5 2.5c-.466 1.299-.466 2.799 0 4.5-1.831.552-3.497.552-5 0l1-2c-1.13-1.122-1.797-2.456-2-4 0-.667.333-1 1-1z"/><path style="opacity:1" fill="#ebeaf1" d="M344.5 312.5c-.131.876.202 1.543 1 2 .758-1.311 1.758-1.811 3-1.5-.951.718-1.117 1.551-.5 2.5 1.555-2.015 3.389-2.348 5.5-1 .087 2.925.754 5.925 2 9 2.121.175 4.121-.159 6-1 .904-.709 1.237-1.709 1-3 1.7-.126 3.2-.793 4.5-2 2.917 2.151 4.25 4.818 4 8 2.444-1.194 4.611-.694 6.5 1.5a18.453 18.453 0 0 1-6 .5c.726 3.807-.607 6.474-4 8-.838.342-1.172 1.008-1 2-1.101-1.3-2.434-1.8-4-1.5.88 1.356 1.214 2.856 1 4.5 2.846.309 4.346 1.975 4.5 5 1.183-1.231 2.349-1.231 3.5 0a25.658 25.658 0 0 1-6 6c-3.341-2.338-3.674-5.005-1-8-.967-1.484-2.3-2.484-4-3a6.846 6.846 0 0 1 1-4 6.802 6.802 0 0 0-3-1.5 4.457 4.457 0 0 0 2-1.5c-1.866.402-3.866.402-6 0 .881-1.471 2.214-2.304 4-2.5 1.196-.654 1.196-1.154 0-1.5a49.863 49.863 0 0 1-5.5 1 23.552 23.552 0 0 1-.5 9c-.992-.172-1.658.162-2 1-1.425-1.531-2.091-1.198-2 1-.838.342-1.172 1.008-1 2-.543.06-.876.393-1 1 1.63 2.776 2.297 5.776 2 9-.722-.418-1.222-1.084-1.5-2-1.699.906-3.533 1.239-5.5 1-.14-1.624.527-2.79 2-3.5-1.191-.698-2.191-1.531-3-2.5-2.967-2.609-2.633-3.275 1-2 .831-2.837 2.498-5.004 5-6.5a10.515 10.515 0 0 0-3-2.5c1.74-2.056 4.073-3.389 7-4-1.853-1.26-3.686-1.26-5.5 0-1.085-1.236-1.918-2.569-2.5-4a39.445 39.445 0 0 0 5-2.5c-2.528.105-4.862-.062-7-.5.603-2.541.603-4.874 0-7 .238-2.569 1.571-4.235 4-5z"/><path style="opacity:1" fill="#5654b9" d="M350.5 340.5c-.211 1.924-.877 2.257-2 1-.091-2.198.575-2.531 2-1z"/><path style="opacity:1" fill="#b7b3d9" d="M360.5 340.5c-.111.617-.444 1.117-1 1.5a6.802 6.802 0 0 1 3 1.5l-.5 1c-1.682.307-3.348.64-5 1-1.826-.51-1.993-1.344-.5-2.5-2.044-.498-3.378-1.665-4-3.5.745-2.951.912-5.951.5-9a49.863 49.863 0 0 0 5.5-1c1.196.346 1.196.846 0 1.5-1.786.196-3.119 1.029-4 2.5 2.134.402 4.134.402 6 0a4.457 4.457 0 0 1-2 1.5 6.802 6.802 0 0 1 3 1.5 6.846 6.846 0 0 0-1 4z"/><path style="opacity:1" fill="#d7d4e6" d="M330.5 321.5v4c-2.821-.184-4.488 1.149-5 4 3.33 1.672 5.997 1.005 8-2l2 2 1-2a6.802 6.802 0 0 1 1.5 3l1-5c.71 1.473 1.876 2.14 3.5 2 .582 1.431 1.415 2.764 2.5 4 1.814-1.26 3.647-1.26 5.5 0-2.927.611-5.26 1.944-7 4-.967-1.306-2.301-1.973-4-2v4c-2.888-.28-4.388 1.053-4.5 4-1.047-2.208-2.547-3.874-4.5-5 .973-1.568 1.14-3.235.5-5-2.23 4.928-3.73 4.928-4.5 0a8.43 8.43 0 0 0-4 .5c2.402 1.471 2.236 2.971-.5 4.5-2.603-3.399-3.436-7.066-2.5-11 1.548-.321 2.215-1.321 2-3h3c-.219-1.175.114-2.175 1-3 1.35 1.45 3.016 2.117 5 2z"/><path style="opacity:1" fill="#a099cd" d="M349.5 316.5c.996-.086 1.829.248 2.5 1 .19 2.86.19 5.527 0 8a11.38 11.38 0 0 1-2.5-2c1.145-1.391 1.145-2.724 0-4a13.049 13.049 0 0 1-4 3l-2-1c1.784-2.017 3.784-3.684 6-5z"/><path style="opacity:1" fill="#bbb8db" d="M338.5 317.5c-.086.996.248 1.829 1 2.5-2.793 2.24-2.46 3.74 1 4.5 2.138.438 4.472.605 7 .5a39.445 39.445 0 0 1-5 2.5c-1.624.14-2.79-.527-3.5-2l-1 5a6.802 6.802 0 0 0-1.5-3l-1 2-2-2c-2.003 3.005-4.67 3.672-8 2 .512-2.851 2.179-4.184 5-4v-4c1.068-.934 2.401-1.268 4-1v-4c1.599-.268 2.932.066 4 1z"/><path style="opacity:1" fill="#7772c1" d="M338.5 317.5h2c.603 2.126.603 4.459 0 7-3.46-.76-3.793-2.26-1-4.5-.752-.671-1.086-1.504-1-2.5z"/><path style="opacity:1" fill="#c0cd93" d="M294.5 313.5a13.227 13.227 0 0 1 2 5c-.283.716-.616 1.549-1 2.5-1.049.492-2.049.326-3-.5-.765 1.112-1.765 1.779-3 2a21.66 21.66 0 0 0-7-6 60.757 60.757 0 0 0 12-3z"/><path style="opacity:1" fill="#c6bbd4" d="M360.5 318.5a15.057 15.057 0 0 1-3-6h5c1.319-2.703 1.319-5.036 0-7 3.482.535 5.149 2.535 5 6a4.934 4.934 0 0 0-3 .5c-1.143 2.425-2.476 4.592-4 6.5z"/><path style="opacity:1" fill="#bdb5d3" d="M352.5 311.5c.65-.304 1.317-.637 2-1a29.045 29.045 0 0 1 2 8h4c.734 1.208 1.067 2.541 1 4-1.879.841-3.879 1.175-6 1-1.246-3.075-1.913-6.075-2-9-2.111-1.348-3.945-1.015-5.5 1-.617-.949-.451-1.782.5-2.5-1.242-.311-2.242.189-3 1.5-.798-.457-1.131-1.124-1-2 1.212-.73 2.212-1.73 3-3a16.076 16.076 0 0 0 5 2z"/><path style="opacity:1" fill="#aabc63" d="M334.5 295.5a41.653 41.653 0 0 1-6 2c-.886.825-1.219 1.825-1 3a12.93 12.93 0 0 0 5-.5 3.647 3.647 0 0 1-1-1.5c2.62-1.962 4.953-1.962 7 0v2a5.576 5.576 0 0 1-3-1 10.756 10.756 0 0 1-3 2.5c1.771.535 2.104 1.369 1 2.5l-3-2-2.5 3a7.248 7.248 0 0 0-2.5-2l-1 4c-1.403.14-2.903.14-4.5 0-2.188 3.083-5.022 4.083-8.5 3-1.748 3.718-4.748 5.718-9 6-.929-1.189-1.262-2.522-1-4h-4c.019 1.56.352 3.06 1 4.5-.336 1.03-1.003 1.53-2 1.5a13.227 13.227 0 0 0-2-5 40.25 40.25 0 0 0 7-4.5 18.991 18.991 0 0 1 8-1.5v-3c4.48 2.009 8.146 1.009 11-3 1 1.333 2 1.333 3 0a14.126 14.126 0 0 0 4-5.5 24.935 24.935 0 0 1 7-.5z"/><path style="opacity:1" fill="#86bc98" d="M350.5 292.5c1.55 1.22 3.216 1.22 5 0-.605 1.526-1.771 2.526-3.5 3l-1-1c-.624 1.964-.124 3.631 1.5 5-1.368 1.094-2.535.76-3.5-1-1.101 4.1-3.101 4.767-6 2-1.414.913-2.914.913-4.5 0v-2c2.039-1.953 4.372-1.953 7 0 .959-2.622 2.625-4.622 5-6z"/><path style="opacity:1" fill="#69b6b6" d="M356.5 291.5c3.172.428 6.172.595 9 .5 1.361 1.584 2.028 3.418 2 5.5-1.603-.188-2.937.312-4 1.5 1.333 1 1.333 2 0 3-3.439.217-6.105 1.717-8 4.5a3.647 3.647 0 0 1-1.5-1 20.093 20.093 0 0 0-1.5 6 16.076 16.076 0 0 1-5-2c-.788 1.27-1.788 2.27-3 3-2.429.765-3.762 2.431-4 5h-2c-1.068-.934-2.401-1.268-4-1v4c-1.599-.268-2.932.066-4 1-1.984.117-3.65-.55-5-2-.886.825-1.219 1.825-1 3h-3c.215 1.679-.452 2.679-2 3a19.868 19.868 0 0 1-7-3c-.792 1.2-.792 2.533 0 4-.667 0-1 .333-1 1-1.648 1.31-3.314 2.643-5 4-.607-.124-.94-.457-1-1a860.307 860.307 0 0 1-17-3c-.284-1.915.049-3.581 1-5 1.235-.221 2.235-.888 3-2 .951.826 1.951.992 3 .5.384-.951.717-1.784 1-2.5.997.03 1.664-.47 2-1.5a11.187 11.187 0 0 1-1-4.5h4c-.262 1.478.071 2.811 1 4 4.252-.282 7.252-2.282 9-6 3.478 1.083 6.312.083 8.5-3 1.597.14 3.097.14 4.5 0l1-4a7.248 7.248 0 0 1 2.5 2l2.5-3 3 2c1.104-1.131.771-1.965-1-2.5a10.756 10.756 0 0 0 3-2.5 5.576 5.576 0 0 0 3 1c1.586.913 3.086.913 4.5 0 2.899 2.767 4.899 2.1 6-2 .965 1.76 2.132 2.094 3.5 1-1.624-1.369-2.124-3.036-1.5-5l1 1c1.729-.474 2.895-1.474 3.5-3 0-.667.333-1 1-1z"/><path style="opacity:1" fill="#d2dba9" d="M349.5 291.5c.667 0 1 .333 1 1-2.375 1.378-4.041 3.378-5 6-2.628-1.953-4.961-1.953-7 0-2.047-1.962-4.38-1.962-7 0a3.647 3.647 0 0 0 1 1.5 12.93 12.93 0 0 1-5 .5c-.219-1.175.114-2.175 1-3a41.653 41.653 0 0 0 6-2c3.789-.19 6.789-1.857 9-5 1.738 2.214 3.738 2.547 6 1z"/><path style="opacity:1" fill="#63b044" d="M361.5 283.5a58.841 58.841 0 0 1-13 5 5.576 5.576 0 0 1 1 3c-2.262 1.547-4.262 1.214-6-1-2.211 3.143-5.211 4.81-9 5a24.935 24.935 0 0 0-7 .5 14.126 14.126 0 0 1-4 5.5c-1 1.333-2 1.333-3 0-2.854 4.009-6.52 5.009-11 3v3a18.991 18.991 0 0 0-8 1.5 40.25 40.25 0 0 1-7 4.5 60.757 60.757 0 0 1-12 3c.863-1.44.863-2.774 0-4a388.464 388.464 0 0 1 56-24.5 48.161 48.161 0 0 1 9-5c4.677-.614 9.011-2.114 13-4.5.952 1.545 1.285 3.212 1 5z"/><path style="opacity:1" fill="#c3c778" d="M361.5 283.5c.698 2.864-.636 4.698-4 5.5-.752.671-1.086 1.504-1 2.5-.667 0-1 .333-1 1-1.784 1.22-3.45 1.22-5 0 0-.667-.333-1-1-1a5.576 5.576 0 0 0-1-3 58.841 58.841 0 0 0 13-5z"/><path style="opacity:1" fill="#404040" d="M315.5 241.5a13.227 13.227 0 0 0 5 2c.566 4.306 1.232 4.639 2 1h3c.16 3.736.993 3.736 2.5 0 .615 2.545.115 4.878-1.5 7-1.306-1.412-2.14-3.079-2.5-5-.36 1.921-1.194 3.588-2.5 5l-3-6c-1.26 1.853-1.26 3.686 0 5.5a4.934 4.934 0 0 1-3 .5v-10z"/><path style="opacity:1" fill="#454545" d="M350.5 243.5c5.676.447 6.009 1.281 1 2.5 3.206.625 4.206 2.291 3 5-1.444.781-2.777.614-4-.5.897-.169 1.897-.502 3-1a14.84 14.84 0 0 0-4-3.5c.752-.671 1.086-1.504 1-2.5z"/><path style="opacity:1" fill="#747474" d="M309.5 243.5c4.762.592 6.096 3.092 4 7.5-6.298.495-7.632-2.005-4-7.5z"/><path style="opacity:1" fill="#565656" d="M342.5 241.5c1.545.73 2.378 2.063 2.5 4 .718-.951 1.551-1.117 2.5-.5-.631 2.355-.631 4.522 0 6.5l-2.5-3a6.802 6.802 0 0 1-1.5 3c-1.523-7.821-3.023-7.821-4.5 0a32.462 32.462 0 0 1-.5-8c1.983.343 3.317-.324 4-2z"/><path style="opacity:1" fill="#383838" d="M297.5 241.5a2.428 2.428 0 0 1 2 .5 51.064 51.064 0 0 1 4 5.5 20.2 20.2 0 0 0 1.5-6c1.565 10.21-.102 11.544-5 4a20.2 20.2 0 0 1-1.5 6 25.879 25.879 0 0 1-1-10z"/><path style="opacity:1" fill="#525252" d="M331.5 243.5c1.644-.214 3.144.12 4.5 1 1.917 5.839.084 7.839-5.5 6-1.346-2.6-1.012-4.933 1-7z"/><path style="opacity:1" fill="#e2e2e2" d="M331.5 245.5c3.661-.15 4.661 1.35 3 4.5-.949.617-1.782.451-2.5-.5a8.43 8.43 0 0 1-.5-4z"/><path style="opacity:1" fill="#454545" d="M354.5 217.5c5.168.839 6.168 3.339 3 7.5-4.583.934-6.083-.9-4.5-5.5.717-.544 1.217-1.211 1.5-2z"/><path style="opacity:1" fill="#525252" d="M332.5 218.5c5.363-.27 7.029 2.063 5 7-5.747.629-7.414-1.705-5-7z"/><path style="opacity:1" fill="#2a2a2a" d="M323.5 218.5h6a24.935 24.935 0 0 1-.5 7 18.453 18.453 0 0 1-.5-6h-3a9.86 9.86 0 0 1-1 6 13.116 13.116 0 0 1-1-7z"/><path style="opacity:1" fill="#2e2e2e" d="M360.5 218.5h6a24.935 24.935 0 0 1-.5 7 18.453 18.453 0 0 1-.5-6h-3a9.86 9.86 0 0 1-1 6 13.116 13.116 0 0 1-1-7z"/><path style="opacity:1" fill="#e5e5e5" d="M354.5 219.5c3.456 1.036 3.79 2.703 1 5-2.204-1.282-2.538-2.949-1-5z"/><path style="opacity:1" fill="#434343" d="M306.5 217.5c6.205-.463 8.205 2.204 6 8a9.86 9.86 0 0 1-1-6h-3a9.86 9.86 0 0 1-1 6 16.873 16.873 0 0 1-1-8zM297.5 217.5c4.762.592 6.096 3.092 4 7.5-6.298.495-7.632-2.005-4-7.5z"/><path style="opacity:1" fill="#e2e3e3" d="M297.5 219.5h3v5c-3.784-.025-4.784-1.692-3-5z"/><path style="opacity:1" fill="#636363" d="M292.5 217.5c.667 0 1-.333 1-1 1.266 3.925-.401 5.592-5 5-.801-1.542-1.134-3.208-1-5 1.915-.284 3.581.049 5 1z"/><path style="opacity:1" fill="#373737" d="M347.5 218.5a8.43 8.43 0 0 1 4 .5c-1.464 1.864-2.464 4.031-3 6.5a13.116 13.116 0 0 1-1-7z"/><path style="opacity:1" fill="#333" d="M339.5 218.5c1.536 1.525 2.536 3.525 3 6 1.631-1.559 2.464-3.559 2.5-6 .497 2.31.663 4.643.5 7-5.406.765-7.406-1.569-6-7z"/><path style="opacity:1" fill="#3e3e3e" d="M315.5 215.5a19.602 19.602 0 0 1 2 3.5c-.82 2.333-1.153 4.5-1 6.5-1.454-3.345-1.788-6.678-1-10z"/><path style="opacity:1" fill="#737373" d="M303.5 215.5c1.277 1.194 1.944 2.86 2 5l-1 5a25.879 25.879 0 0 1-1-10z"/><path style="opacity:1" fill="#f6f6f6" d="M292.5 217.5c-.12 1.086-.787 1.753-2 2l-2-1c1.189-.929 2.522-1.262 4-1z"/><path style="opacity:1" fill="#101010" d="M293.5 216.5c0 .667-.333 1-1 1-1.419-.951-3.085-1.284-5-1-.134 1.792.199 3.458 1 5-.79 1.109-1.29 2.442-1.5 4a50.464 50.464 0 0 1-.5-10c2.559-.302 4.893.032 7 1z"/><path style="opacity:1" fill="#1b1b1b" d="M319.5 189.5c6.732-1.018 8.732 1.648 6 8a9.86 9.86 0 0 1-1-6h-3c.285 1.788-.048 3.455-1 5a13.116 13.116 0 0 1-1-7z"/><path style="opacity:1" fill="#242424" d="M298.5 186.5c4.336-.924 6.836.743 7.5 5 2.075-2.148 4.408-2.482 7-1 1.205 3.368.205 5.702-3 7-2.543-.86-4.376-2.526-5.5-5a6.846 6.846 0 0 1-4 1c.219 1.175-.114 2.175-1 3a25.879 25.879 0 0 1-1-10z"/><path style="opacity:1" fill="#ddd" d="M308.5 191.5h3v4h-3v-4zM300.5 188.5c1.965.448 2.298 1.448 1 3-.886-.825-1.219-1.825-1-3z"/><path style="opacity:1" fill="#333" d="M345.5 189.5c3.45-.744 5.116.59 5 4-5.194.442-5.194 1.442 0 3-3.935 1.92-6.269.754-7-3.5.362-1.434 1.028-2.601 2-3.5z"/><path style="opacity:1" fill="#212121" d="M333.5 186.5a4.934 4.934 0 0 1 3 .5 47.02 47.02 0 0 0 3.5 5.5 20.2 20.2 0 0 1 1.5-6 31.116 31.116 0 0 1 1 11c-1.322.17-2.489-.163-3.5-1l-3-6a26.724 26.724 0 0 1-1.5 7 31.116 31.116 0 0 1-1-11z"/><path style="opacity:1" fill="#353535" d="M315.5 189.5c1.225.652 1.892 1.819 2 3.5l-1 3.5a13.116 13.116 0 0 1-1-7z"/><path style="opacity:1" fill="#1c1c1c" d="M352.5 187.5c1.422.25 2.422 1.083 3 2.5-1.333 2-1.333 4 0 6a4.934 4.934 0 0 1-3 .5c-.576-3.107-.576-6.107 0-9z"/><path style="opacity:1" fill="#222" d="M328.5 187.5c1.621.287 2.621 1.287 3 3-1.267 1.871-1.267 3.704 0 5.5a4.934 4.934 0 0 1-3 .5c-.576-3.107-.576-6.107 0-9z"/><path style="opacity:1" fill="#282828" d="M566.5 183.5h1c1.166 83.499 1.332 167.166.5 251-2.326 10.828-8.826 17.661-19.5 20.5-35.333.667-70.667.667-106 0-7.996-2.167-13.662-7-17-14.5.838-.342 1.172-1.008 1-2 3.319 7.479 8.986 12.312 17 14.5 35.333.667 70.667.667 106 0 8.596-2.929 14.096-8.763 16.5-17.5.5-83.999.667-167.999.5-252z"/></svg>