<svg xmlns="http://www.w3.org/2000/svg" width="638" height="280" style="shape-rendering:geometricPrecision;text-rendering:geometricPrecision;image-rendering:optimizeQuality;fill-rule:evenodd;clip-rule:evenodd"><path style="opacity:1" fill="#f3f3f3" d="M-.5-.5h638v280H-.5V-.5z"/><path style="opacity:1" fill="#61a3cb" d="M154.5 72.5v1a106.35 106.35 0 0 0-17 25c4.494-32.975-7.173-58.475-35-76.5a170.162 170.162 0 0 1 19.5-4.5c4.806 1.79 8.806 4.79 12 9 10.892 13.457 17.725 28.79 20.5 46z"/><path style="opacity:1" fill="#857ba2" d="M153.5 103.5a214.758 214.758 0 0 0 1-30v-1c8.504-7 17.171-13.834 26-20.5 8.14-4.886 16.807-8.719 26-11.5a306.977 306.977 0 0 1 16 13.5c-30.827 5.733-53.827 22.233-69 49.5z"/><path style="opacity:1" fill="#d0d2d4" d="M592.5 88.5c5.14-.988 10.474-1.321 16-1 .331 29.171-.002 58.171-1 87v-86h-15z"/><path style="opacity:1" fill="#132c48" d="M402.5 160.5v1c-1.175.219-2.175-.114-3-1 .682-22.477 1.349-44.977 2-67.5-.255-1.326-.922-2.326-2-3a25.249 25.249 0 0 0-10 0 857.613 857.613 0 0 0-.5 71.5 16.2 16.2 0 0 1 1.5 3.5c-1.611 2.21-2.278 4.71-2 7.5 6.221-1.287 12.387-.954 18.5 1 10.559-.578 20.725-1.578 30.5-3 .256-2.292-.077-4.459-1-6.5a1899.08 1899.08 0 0 0-33-2.5h35v13h-51v-86h15v72z"/><path style="opacity:1" fill="#0a2e58" d="M559.5 127.5a18.924 18.924 0 0 1-3-5c-.169-3.587-1.669-6.921-4.5-10a67.69 67.69 0 0 1-1.5-17h-6a2440.604 2440.604 0 0 0 0 66.5l-.5 2.5c-3.048-3.51-6.381-3.843-10-1-1.188-1.063-1.688-2.397-1.5-4h9c-.333-21.344 0-42.677 1-64a20.722 20.722 0 0 1 9.5-4 8.902 8.902 0 0 0 3 4c.809 6.244 2.309 12.244 4.5 18-.711 2.651-.044 5.151 2 7.5-1.107 1.44-1.107 2.94 0 4.5-.247 1.213-.914 1.88-2 2z"/><path style="opacity:1" fill="#466692" d="M154.5 73.5c.369 9.94.036 19.94-1 30a168.934 168.934 0 0 0-8 24c-1.322-.17-2.489.163-3.5 1a114.264 114.264 0 0 1-10.5 14.5 8.43 8.43 0 0 1-4 .5 151.597 151.597 0 0 1 3-27 8223.283 8223.283 0 0 1 7-18 106.35 106.35 0 0 1 17-25z"/><path style="opacity:1" fill="#97a4b0" d="M511.5 88.5c.986 4.47 1.319 9.137 1 14h-42a420.766 420.766 0 0 1 41-1v-13z"/><path style="opacity:1" fill="#e5eff9" d="M470.5 102.5h9c.131.876-.202 1.543-1 2-1.871-1.267-3.704-1.267-5.5 0a162.597 162.597 0 0 0-.5 18c9.006.166 18.006 0 27-.5l4.5-1.5a31.625 31.625 0 0 0 7.5 2 392.44 392.44 0 0 0 0 15.5 6.978 6.978 0 0 0-3.5 2.5 4.934 4.934 0 0 1-.5-3 783.607 783.607 0 0 0-33 2 10.258 10.258 0 0 0-1.5 4 128.507 128.507 0 0 0-.5 16h43c.237 1.291-.096 2.291-1 3-14.295-1.983-28.962-2.65-44-2v-24h39v-13h-39v-21z"/><path style="opacity:1" fill="#6a7c90" d="m548.5 109.5-2 65c-.167-22.336 0-44.669.5-67 .717.544 1.217 1.211 1.5 2z"/><path style="opacity:1" fill="#60a2c9" d="M130.5 116.5a151.597 151.597 0 0 0-3 27v4c-3.69 2.371-7.023 5.038-10 8h-1c-4.628-2.314-9.628-3.647-15-4a23.326 23.326 0 0 0-6-3 290.016 290.016 0 0 0 18-11.5c6.633-6.124 12.299-12.957 17-20.5z"/><path style="opacity:1" fill="#847aa4" d="M145.5 127.5a123.507 123.507 0 0 0-2 28 43.117 43.117 0 0 1-1 13 46.637 46.637 0 0 0-10-8c-1.189-.929-2.522-1.262-4-1h-1v-16a8.43 8.43 0 0 0 4-.5 114.264 114.264 0 0 0 10.5-14.5c1.011-.837 2.178-1.17 3.5-1z"/><path style="opacity:1" fill="#639c97" d="M95.5 148.5a23.326 23.326 0 0 1 6 3h-18c3.798-1.368 7.798-2.368 12-3z"/><path style="opacity:1" fill="#0c2f55" d="M532.5 88.5a108.41 108.41 0 0 1 20.5 1 2193.555 2193.555 0 0 0 33.5 54c1.822 2.972 3.656 5.972 5.5 9 .5-21.331.667-42.664.5-64h15v86c-6.7.33-13.366-.003-20-1-9.345-15.361-18.678-30.695-28-46 1.086-.12 1.753-.787 2-2-1.107-1.56-1.107-3.06 0-4.5-2.044-2.349-2.711-4.849-2-7.5-2.191-5.756-3.691-11.756-4.5-18a8.902 8.902 0 0 1-3-4 20.722 20.722 0 0 0-9.5 4c-1 21.323-1.333 42.656-1 64h-9v-71z"/><path style="opacity:1" fill="#c3d8ee" d="M592.5 88.5c.167 21.336 0 42.669-.5 64a3555.729 3555.729 0 0 0-5.5-9c2.124.531 3.624 1.865 4.5 4 .168-19.838.668-39.504 1.5-59z"/><path style="opacity:1" fill="#eaf2f0" d="M127.5 147.5v12a31.686 31.686 0 0 0-6-2c-1.014-1.174-2.347-1.84-4-2 2.977-2.962 6.31-5.629 10-8z"/><path style="opacity:1" fill="#5fa3cc" d="M67.5 152.5c1.098.897 1.098 1.73 0 2.5-5.637-.817-9.304 1.349-11 6.5-3.05-.577-5.05.59-6 3.5a4.934 4.934 0 0 1-3 .5v-3l-8 1a135.257 135.257 0 0 0-14-5.5 2916.58 2916.58 0 0 0-9-7 72.329 72.329 0 0 1-1-11c-.13-3.684.37-7.184 1.5-10.5 13.227 15.256 30.06 22.923 50.5 23z"/><path style="opacity:1" fill="#0d2f55" d="M252.5 88.5c4.93-.302 9.763.03 14.5 1a6782.424 6782.424 0 0 1 36.5 84.5c-5.991.499-11.991.666-18 .5a222.78 222.78 0 0 0-7-19 181.045 181.045 0 0 0-38 0 222.78 222.78 0 0 0-7 19h-17c12.018-28.697 24.018-57.364 36-86z"/><path style="opacity:1" fill="#ecf0f3" d="M258.5 107.5c1.784 1.074 2.951 2.74 3.5 5a499 499 0 0 0 10.5 28 169.926 169.926 0 0 1-26 1l12-34z"/><path style="opacity:1" fill="#789c48" d="M121.5 157.5a31.686 31.686 0 0 1 6 2h1v1a20.69 20.69 0 0 0 1 5 83.213 83.213 0 0 0 5 18.5c-.556.383-.889.883-1 1.5l-6-5v-1a4.934 4.934 0 0 0-.5-3c-3.232-3.37-7.066-5.87-11.5-7.5a173.247 173.247 0 0 1-16-4 26.16 26.16 0 0 1 12-2.5v-3c3.158-1.376 6.491-2.042 10-2z"/><path style="opacity:1" fill="#778699" d="M334.5 160.5h37c.319 4.863-.014 9.53-1 14v-13c-12.178.328-24.178-.005-36-1z"/><path style="opacity:1" fill="#788597" d="M402.5 161.5v-1h37c.319 4.863-.014 9.53-1 14v-13h-36z"/><path style="opacity:1" fill="#347f45" d="M83.5 151.5h18c5.372.353 10.372 1.686 15 4a148.038 148.038 0 0 1-28 12c-2.45-.202-4.783.131-7 1-10.67.88-21.337.547-32-1 3.82-4.125 8.488-6.791 14-8v-3c4.04-.391 7.707-1.724 11-4 3.018-.204 6.018-.537 9-1z"/><path style="opacity:1" fill="#092e56" d="M402.5 161.5h1a1899.08 1899.08 0 0 1 33 2.5c.923 2.041 1.256 4.208 1 6.5-9.775 1.422-19.941 2.422-30.5 3-6.113-1.954-12.279-2.287-18.5-1-.278-2.79.389-5.29 2-7.5a16.2 16.2 0 0 0-1.5-3.5 857.613 857.613 0 0 1 .5-71.5 25.249 25.249 0 0 1 10 0c1.078.674 1.745 1.674 2 3-.651 22.523-1.318 45.023-2 67.5.825.886 1.825 1.219 3 1z"/><path style="opacity:1" fill="#60a4b5" d="M67.5 152.5h7c-3.293 2.276-6.96 3.609-11 4v3c-5.512 1.209-10.18 3.875-14 8-.342.838-1.008 1.172-2 1-2.354-2.025-5.02-3.692-8-5l8-1v3a4.934 4.934 0 0 0 3-.5c.95-2.91 2.95-4.077 6-3.5 1.696-5.151 5.363-7.317 11-6.5 1.098-.77 1.098-1.603 0-2.5z"/><path style="opacity:1" fill="#7f9f62" d="M116.5 155.5h1c1.653.16 2.986.826 4 2-3.509-.042-6.842.624-10 2v3a26.16 26.16 0 0 0-12 2.5 173.247 173.247 0 0 0 16 4c4.434 1.63 8.268 4.13 11.5 7.5.483.948.649 1.948.5 3-11.422-8.805-24.422-12.805-39-12a148.038 148.038 0 0 0 28-12z"/><path style="opacity:1" fill="#0b2e54" d="M334.5 160.5c11.822.995 23.822 1.328 36 1v13h-51v-86h15v72z"/><path style="opacity:1" fill="#edf5e4" d="M88.5 167.5c14.578-.805 27.578 3.195 39 12v1c-4.673.991-8.006-.676-10-5a26.852 26.852 0 0 0-6-3.5c-15.493-3.982-30.493-2.815-45 3.5a51.285 51.285 0 0 1 15-7c2.217-.869 4.55-1.202 7-1z"/><path style="opacity:1" fill="#092f56" d="M511.5 90.5v11a420.766 420.766 0 0 0-41 1 144.837 144.837 0 0 0-2 10.5 45.945 45.945 0 0 1 1 12.5 184.74 184.74 0 0 1 36 0 27.001 27.001 0 0 1 2 10c-13.499-1.304-26.665-1.304-39.5 0 .363 7.954.53 15.954.5 24-1.788-.285-3.455.048-5 1a20.2 20.2 0 0 0 6 1.5 883.56 883.56 0 0 1 42 1.5c1.333 2.667 1.333 5.333 0 8a727.272 727.272 0 0 1-51.5 1l-2-2a1659.178 1659.178 0 0 1 0-79 722.998 722.998 0 0 1 53.5-1z"/><path style="opacity:1" fill="#52614a" d="M128.5 160.5c3.709 2.515 7.375 5.015 11 7.5 1.692 1.307 3.025 2.807 4 4.5a32.462 32.462 0 0 1-8-.5c-1.159-2.991-3.159-5.158-6-6.5a20.69 20.69 0 0 1-1-5z"/><path style="opacity:1" fill="#7f7c94" d="M143.5 155.5a280.228 280.228 0 0 0 5 20h-5v-3c-.975-1.693-2.308-3.193-4-4.5a2621.967 2621.967 0 0 0-11-7.5v-1c1.478-.262 2.811.071 4 1a46.637 46.637 0 0 1 10 8 43.117 43.117 0 0 0 1-13z"/><path style="opacity:1" fill="#1f395b" d="M532.5 88.5v71c-.188 1.603.312 2.937 1.5 4 3.619-2.843 6.952-2.51 10 1l.5-2.5a2440.604 2440.604 0 0 1 0-66.5h6a67.69 67.69 0 0 0 1.5 17c2.831 3.079 4.331 6.413 4.5 10a126.166 126.166 0 0 1-8-13c-.283-.789-.783-1.456-1.5-2-.5 22.331-.667 44.664-.5 67h-15c-.331-28.838.002-57.505 1-86z"/><path style="opacity:1" fill="#7b9c56" d="M49.5 167.5a141.287 141.287 0 0 0 32 1 51.285 51.285 0 0 0-15 7c-8.057 5.393-14.39 12.393-19 21 .285-1.788-.048-3.455-1-5-.929 1.189-1.262 2.522-1 4-4.569.417-6.069-1.583-4.5-6a13.923 13.923 0 0 1 4-3 20.625 20.625 0 0 1 2-6l1 9c2.404-4.016 5.57-7.183 9.5-9.5l4-5a278.184 278.184 0 0 1-14-5.5v-1c.992.172 1.658-.162 2-1z"/><path style="opacity:1" fill="#18314e" d="M511.5 88.5v2a722.998 722.998 0 0 0-53.5 1 1659.178 1659.178 0 0 0 0 79l2 2a727.272 727.272 0 0 0 51.5-1c1.333-2.667 1.333-5.333 0-8a883.56 883.56 0 0 0-42-1.5 20.2 20.2 0 0 1-6-1.5c1.545-.952 3.212-1.285 5-1 .03-8.046-.137-16.046-.5-24 12.835-1.304 26.001-1.304 39.5 0a27.001 27.001 0 0 0-2-10 184.74 184.74 0 0 0-36 0 45.945 45.945 0 0 0-1-12.5 144.837 144.837 0 0 1 2-10.5v21h39v13h-39v24c15.038-.65 29.705.017 44 2v12h-59v-86h56z"/><path style="opacity:1" fill="#789d46" d="M47.5 169.5a278.184 278.184 0 0 0 14 5.5l-4 5c-3.93 2.317-7.096 5.484-9.5 9.5l-1-9a20.625 20.625 0 0 0-2 6 13.923 13.923 0 0 0-4 3c-1.569 4.417-.069 6.417 4.5 6-.262-1.478.071-2.811 1-4 .952 1.545 1.285 3.212 1 5v2c-1.91.074-3.078 1.074-3.5 3a18.437 18.437 0 0 0-.5 6h-4c-.667 0-1-.333-1-1-.33-3.521-1.83-6.521-4.5-9-.755-2.803-.422-5.47 1-8 3.787-3.942 5.954-8.609 6.5-14a25.647 25.647 0 0 1 6-6z"/><path style="opacity:1" fill="#839c5f" d="M41.5 175.5c-.546 5.391-2.713 10.058-6.5 14-1.422 2.53-1.755 5.197-1 8 2.67 2.479 4.17 5.479 4.5 9-3.333-3.526-5.666-7.693-7-12.5a99.006 99.006 0 0 1 10-18.5z"/><path style="opacity:1" fill="#4e643e" d="M129.5 165.5c2.841 1.342 4.841 3.509 6 6.5 2.646.497 5.313.664 8 .5v3h3a12.93 12.93 0 0 0 .5 5c2.662 4.63 5.328 9.297 8 14a34.251 34.251 0 0 0 1.5 8c.765 1.112 1.765 1.779 3 2v19a278.9 278.9 0 0 1-18-22 89.655 89.655 0 0 0-8-16c.111-.617.444-1.117 1-1.5a83.213 83.213 0 0 1-5-18.5z"/><path style="opacity:1" fill="#5f6b5a" d="M146.5 175.5h2a101.058 101.058 0 0 0 12 24c-.951 1.419-1.284 3.085-1 5-1.235-.221-2.235-.888-3-2a34.251 34.251 0 0 1-1.5-8c-2.672-4.703-5.338-9.37-8-14a12.93 12.93 0 0 1-.5-5z"/><path style="opacity:1" fill="#143051" d="M442.5 198.5v4c-3.871-.315-7.538.018-11 1v30h-5v-30h-11v-5h27z"/><path style="opacity:1" fill="#75889d" d="M442.5 198.5c.951 1.419 1.284 3.085 1 5h-12c3.462-.982 7.129-1.315 11-1v-4z"/><path style="opacity:1" fill="#78889f" d="M496.5 198.5c.951 1.419 1.284 3.085 1 5h-12c3.462-.982 7.129-1.315 11-1v-4z"/><path style="opacity:1" fill="#6c7d92" d="M572.5 198.5c.951 1.419 1.284 3.085 1 5h-12c3.462-.982 7.129-1.315 11-1v-4z"/><path style="opacity:1" fill="#79889d" d="M584.5 198.5v35h23c-7.816.992-15.816 1.326-24 1-.328-12.178.005-24.178 1-36z"/><path style="opacity:1" fill="#7488a4" d="M606.5 198.5c.951 1.419 1.284 3.085 1 5h-19c5.81-.99 11.81-1.323 18-1v-4z"/><path style="opacity:1" fill="#0e2e51" d="M319.5 198.5h5v36h-5v-36z"/><path style="opacity:1" fill="#142f51" d="M363.5 225.5c.283.789.783 1.456 1.5 2 .5-9.661.666-19.328.5-29h4v35c-2.865.445-5.365-.222-7.5-2a598.242 598.242 0 0 1-16.5-25c-.06-.543-.393-.876-1-1a196.869 196.869 0 0 0-1 28h-4v-35c2.865-.445 5.365.222 7.5 2 5.51 8.362 11.01 16.695 16.5 25z"/><path style="opacity:1" fill="#15304f" d="M572.5 198.5v4c-3.871-.315-7.538.018-11 1v30h-4c.327-10.181-.006-20.181-1-30h-11v-5h27z"/><path style="opacity:1" fill="#889c66" d="M47.5 198.5c-2.139 4.395-3.472 9.062-4 14-2.052-1.111-3.386-2.777-4-5h4a18.437 18.437 0 0 1 .5-6c.422-1.926 1.59-2.926 3.5-3z"/><path style="opacity:1" fill="#9baec1" d="M365.5 198.5c.166 9.672 0 19.339-.5 29-.717-.544-1.217-1.211-1.5-2l2-27z"/><path style="opacity:1" fill="#0c2e53" d="M453.5 198.5h6v36h-6v-36z"/><path style="opacity:1" fill="#73818f" d="M480.5 203.5c.994 9.819 1.327 19.819 1 30h4c-1.419.951-3.085 1.284-5 1v-31z"/><path style="opacity:1" fill="#6e8297" d="M556.5 203.5c.994 9.819 1.327 19.819 1 30h4c-1.419.951-3.085 1.284-5 1v-31z"/><path style="opacity:1" fill="#153051" d="M390.5 197.5a33.724 33.724 0 0 1 11 1.5c3.912 1.713 3.912 3.547 0 5.5-4.267-2.565-8.434-2.565-12.5 0-.944 2.847-.444 5.347 1.5 7.5 5.455 1.369 10.289 3.869 14.5 7.5.666 12.319-5.167 17.152-17.5 14.5-5.879-1.567-6.379-4.067-1.5-7.5 3.756 4.418 8.09 5.085 13 2 2.151-2.716 1.984-5.216-.5-7.5l-12-5c-4.991-7.648-3.658-13.814 4-18.5z"/><path style="opacity:1" fill="#727f90" d="M345.5 206.5c-.994 9.152-1.327 18.485-1 28-1.915.284-3.581-.049-5-1h4c-.332-9.357.002-18.69 1-28 .607.124.94.457 1 1z"/><path style="opacity:1" fill="#847ba2" d="M160.5 199.5c11.388 15.546 26.055 27.046 44 34.5a110.707 110.707 0 0 1-17 10.5 206.85 206.85 0 0 1-28-19v-21c-.284-1.915.049-3.581 1-5z"/><path style="opacity:1" fill="#163051" d="M496.5 198.5v4c-3.871-.315-7.538.018-11 1v30h-4c.327-10.181-.006-20.181-1-30h-11v-5h27z"/><path style="opacity:1" fill="#163050" d="M584.5 198.5h22v4c-6.19-.323-12.19.01-18 1v10h17v5h-17v11h19v4h-23v-35z"/><path style="opacity:1" fill="#152e4d" d="M507.5 198.5h5c-.166 8.673 0 17.34.5 26 3.016 5.872 7.516 7.372 13.5 4.5a15.83 15.83 0 0 0 3.5-5.5c.5-8.327.666-16.66.5-25h4c.423 10.08-.077 20.08-1.5 30-5.865 6.469-12.698 7.636-20.5 3.5a11.532 11.532 0 0 1-3.5-4.5 157.673 157.673 0 0 1-1.5-29z"/><path style="opacity:1" fill="#799c4b" d="M141.5 201.5a278.9 278.9 0 0 0 18 22v2c-.555 10.666-3.888 20.333-10 29a9.86 9.86 0 0 1-6 1 43.117 43.117 0 0 1-13-1 55.5 55.5 0 0 0 9.5-12 37.912 37.912 0 0 0 3.5-14c.51-9.139-.156-18.139-2-27z"/><path style="opacity:1" fill="#879c67" d="M143.5 228.5a37.912 37.912 0 0 1-3.5 14 55.5 55.5 0 0 1-9.5 12 43.117 43.117 0 0 0 13 1c-5.485 1.152-11.151 1.318-17 .5 8.351-7.617 14.017-16.784 17-27.5z"/></svg>