<?xml version="1.0" encoding="UTF-8"?>
<!DOCTYPE svg PUBLIC "-//W3C//DTD SVG 1.1//EN" "http://www.w3.org/Graphics/SVG/1.1/DTD/svg11.dtd">
<svg xmlns="http://www.w3.org/2000/svg" version="1.1" width="2273px" height="1975px" style="shape-rendering:geometricPrecision; text-rendering:geometricPrecision; image-rendering:optimizeQuality; fill-rule:evenodd; clip-rule:evenodd" xmlns:xlink="http://www.w3.org/1999/xlink">
<g><path style="opacity:1" fill="#fefefe" d="M -0.5,-0.5 C 336.167,-0.5 672.833,-0.5 1009.5,-0.5C 896.695,8.93475 793.029,44.7681 698.5,107C 678.854,119.975 661.02,135.142 645,152.5C 642.376,156.248 639.876,160.081 637.5,164C 550.902,143.644 479.735,168.144 424,237.5C 402.374,265.192 389.208,296.525 384.5,331.5C 371.098,322.563 356.264,318.563 340,319.5C 320.316,318.629 302.482,323.796 286.5,335C 267.164,353.68 262.664,375.513 273,400.5C 285.883,423.192 305.383,433.025 331.5,430C 349.364,424.813 364.197,414.979 376,400.5C 384.94,389.956 391.274,377.956 395,364.5C 395.741,357.038 395.407,349.704 394,342.5C 420.211,311.275 450.378,284.775 484.5,263C 501.177,252.774 519.177,246.108 538.5,243C 570.867,239.242 590.701,253.075 598,284.5C 599.562,308.59 595.229,331.59 585,353.5C 569.644,385.831 549.978,415.165 526,441.5C 507.59,460.787 488.423,479.287 468.5,497C 464.521,500.656 460.188,503.822 455.5,506.5C 450.45,502.115 445.116,498.115 439.5,494.5C 438.354,495.145 437.354,495.978 436.5,497C 449.333,507.167 462.167,517.333 475,527.5C 476.678,526.534 477.345,525.201 477,523.5C 472.771,519.638 468.271,516.138 463.5,513C 461.671,511.887 460.837,510.387 461,508.5C 507.873,471.64 546.873,427.974 578,377.5C 590.379,356.361 598.379,333.694 602,309.5C 605.38,289.72 601.38,271.72 590,255.5C 575.086,240.981 557.253,235.481 536.5,239C 518.104,242.355 500.771,248.688 484.5,258C 450.097,279.055 419.93,305.222 394,336.5C 394.466,319.175 398.133,302.508 405,286.5C 425.911,238.922 459.744,203.755 506.5,181C 540.333,165.24 575.666,160.573 612.5,167C 622.508,169.67 632.508,172.003 642.5,174C 648.124,161.688 656.124,151.021 666.5,142C 702.465,112.33 741.798,87.6632 784.5,68C 857.574,32.815 934.574,12.815 1015.5,8C 1085.18,4.60639 1150.51,19.6064 1211.5,53C 1225.15,61.7322 1238.65,70.5655 1252,79.5C 1253.11,79.4148 1254.11,79.0814 1255,78.5C 1259.11,69.3895 1265.61,62.5562 1274.5,58C 1322.88,33.3307 1373.21,28.6641 1425.5,44C 1469.4,57.5247 1506.23,81.6914 1536,116.5C 1544.08,126.076 1551.58,136.076 1558.5,146.5C 1552.52,147.421 1546.52,148.088 1540.5,148.5C 1540.5,151.167 1540.5,153.833 1540.5,156.5C 1556.82,155.358 1573.16,154.358 1589.5,153.5C 1589.5,150.833 1589.5,148.167 1589.5,145.5C 1582.46,145.545 1575.46,145.712 1568.5,146C 1543.26,107.096 1510.6,76.0963 1470.5,53C 1410.28,22.8699 1348.61,19.5366 1285.5,43C 1271.49,48.8221 1259.49,57.3221 1249.5,68.5C 1189.89,25.1853 1123.22,2.18528 1049.5,-0.5C 1457.17,-0.5 1864.83,-0.5 2272.5,-0.5C 2272.5,244.5 2272.5,489.5 2272.5,734.5C 2272.06,691.001 2258.56,652.001 2232,617.5C 2215.64,598.074 2195.47,584.24 2171.5,576C 2175.65,572.425 2179.99,569.091 2184.5,566C 2182.55,563.926 2180.71,561.759 2179,559.5C 2166.51,569.409 2153.85,579.076 2141,588.5C 2141.75,590.976 2143.08,593.309 2145,595.5C 2150.5,591.333 2156,587.167 2161.5,583C 2166.97,583.483 2172.3,584.816 2177.5,587C 2204.67,598.837 2225.5,617.67 2240,643.5C 2266.21,691.978 2270.55,742.311 2253,794.5C 2242.01,823.724 2221.17,840.724 2190.5,845.5C 2190.75,836.074 2188.25,827.407 2183,819.5C 2169,798.16 2149.83,783.66 2125.5,776C 2090.96,772.222 2069.12,787.055 2060,820.5C 2057.69,847.391 2068.53,866.891 2092.5,879C 2117.14,886.897 2141.47,885.897 2165.5,876C 2172.51,872.66 2178.67,868.16 2184,862.5C 2193.49,930.445 2178.82,992.445 2140,1048.5C 2108.58,1088.56 2068.75,1117.06 2020.5,1134C 1953.92,1156.57 1887.25,1157.23 1820.5,1136C 1819.67,1136.83 1818.83,1137.67 1818,1138.5C 1816.98,1171.71 1803.81,1198.87 1778.5,1220C 1751.14,1238.47 1721.81,1242.3 1690.5,1231.5C 1695.33,1226.84 1700.33,1222.34 1705.5,1218C 1703.64,1216.14 1701.81,1214.31 1700,1212.5C 1688.01,1222.49 1676.01,1232.49 1664,1242.5C 1663.97,1245.67 1665.47,1248 1668.5,1249.5C 1673.19,1245.8 1677.86,1242.13 1682.5,1238.5C 1704.43,1245.93 1726.76,1247.43 1749.5,1243C 1775.76,1235.3 1795.93,1219.8 1810,1196.5C 1819.5,1181.14 1824.67,1164.47 1825.5,1146.5C 1908.64,1170.42 1988.64,1162.59 2065.5,1123C 2151.16,1073.24 2194.16,998.41 2194.5,898.5C 2194.51,883.464 2193.85,868.464 2192.5,853.5C 2216.25,850.214 2235.08,838.881 2249,819.5C 2264.48,793.91 2272.31,766.244 2272.5,736.5C 2272.5,1149.17 2272.5,1561.83 2272.5,1974.5C 1853.5,1974.5 1434.5,1974.5 1015.5,1974.5C 1041.92,1968.93 1064.76,1956.6 1084,1937.5C 1106.66,1912.54 1123.99,1884.21 1136,1852.5C 1156.4,1794.3 1167.06,1734.3 1168,1672.5C 1168.68,1639.83 1168.52,1607.16 1167.5,1574.5C 1175.21,1572.82 1182.55,1570.15 1189.5,1566.5C 1188.69,1564.07 1187.69,1561.74 1186.5,1559.5C 1172.28,1564.96 1157.95,1570.13 1143.5,1575C 1140.98,1578.14 1141.48,1580.97 1145,1583.5C 1149.51,1582.22 1153.84,1580.55 1158,1578.5C 1164.02,1651.13 1159.68,1723.13 1145,1794.5C 1135.85,1836.29 1119.52,1874.96 1096,1910.5C 1077.88,1935.98 1054.04,1953.81 1024.5,1964C 989.873,1972.25 962.707,1961.75 943,1932.5C 929.932,1906.63 921.265,1879.29 917,1850.5C 911.729,1805.73 905.729,1761.06 899,1716.5C 895.622,1699.52 889.788,1683.52 881.5,1668.5C 886.854,1650.92 890.021,1632.92 891,1614.5C 892.524,1586.18 892.857,1557.85 892,1529.5C 890.723,1496.79 888.723,1464.12 886,1431.5C 879.126,1360.22 872.792,1288.88 867,1217.5C 862.191,1158.9 860.858,1100.24 863,1041.5C 864.454,1007.72 870.121,974.716 880,942.5C 886.186,924.614 896.02,909.114 909.5,896C 916.767,889.7 925.101,885.533 934.5,883.5C 936.221,889.834 938.054,896.167 940,902.5C 941.494,903.747 942.994,903.747 944.5,902.5C 940.335,887.839 936.168,873.172 932,858.5C 930.951,856.893 929.451,856.227 927.5,856.5C 929.336,863.82 930.836,871.153 932,878.5C 912.787,885.376 898.12,897.709 888,915.5C 877.286,935.308 869.953,956.308 866,978.5C 860.025,1015.09 857.192,1051.92 857.5,1089C 858.283,1145.93 861.117,1202.77 866,1259.5C 871.586,1321.18 877.252,1382.85 883,1444.5C 887.541,1496.08 889.208,1547.74 888,1599.5C 886.989,1614.91 885.323,1630.24 883,1645.5C 881.287,1653.69 878.953,1661.69 876,1669.5C 864.766,1659.61 851.599,1655.28 836.5,1656.5C 814.873,1656.65 795.206,1662.82 777.5,1675C 758.485,1693.24 753.652,1714.74 763,1739.5C 776.05,1763.61 796.217,1773.78 823.5,1770C 837.302,1766.53 848.802,1759.37 858,1748.5C 871.491,1732.85 880.158,1714.85 884,1694.5C 889.321,1710.1 892.988,1726.1 895,1742.5C 899.307,1779.21 903.974,1815.88 909,1852.5C 912.867,1882.19 921.867,1910.19 936,1936.5C 948.465,1956.81 966.298,1969.48 989.5,1974.5C 659.5,1974.5 329.5,1974.5 -0.5,1974.5C -0.5,1656.5 -0.5,1338.5 -0.5,1020.5C 2.13391,1063.22 8.30058,1105.55 18,1147.5C 25.7241,1180.01 37.3908,1211.01 53,1240.5C 58.976,1251.15 66.476,1260.65 75.5,1269C 88.4689,1279.93 102.469,1281.6 117.5,1274C 120.36,1271.64 123.36,1269.47 126.5,1267.5C 140.84,1271.83 149.507,1266.66 152.5,1252C 150.356,1238.24 142.356,1232.91 128.5,1236C 118.365,1241.81 115.698,1250.14 120.5,1261C 110.121,1271.62 98.4546,1273.28 85.5,1266C 74.1257,1256.63 64.959,1245.46 58,1232.5C 36.8421,1189.06 22.8421,1143.39 16,1095.5C 7.74547,1045.08 5.74547,994.41 10,943.5C 12.5684,914.754 18.5684,886.754 28,859.5C 36.9558,834.225 51.1225,812.392 70.5,794C 89.508,777.941 111.508,770.107 136.5,770.5C 137.489,786.809 143.656,800.809 155,812.5C 168.705,827.206 185.205,837.373 204.5,843C 232.28,845.699 252.113,834.532 264,809.5C 273.515,777.715 263.681,754.215 234.5,739C 229.305,737.067 223.972,735.733 218.5,735C 195.053,731.684 173.053,735.684 152.5,747C 149.37,749.128 146.537,751.628 144,754.5C 111.436,639.582 137.269,540.082 221.5,456C 230.167,448.667 238.833,441.333 247.5,434C 252.645,435.426 257.979,435.76 263.5,435C 276.433,428.389 278.933,418.889 271,406.5C 259.159,398.434 249.492,400.434 242,412.5C 241.508,417.551 241.508,422.551 242,427.5C 134.649,515.732 99.4819,627.066 136.5,761.5C 91.1631,764.08 57.3298,785.08 35,824.5C 18.4898,855.206 8.15649,887.872 4,922.5C 2.51919,936.32 1.01919,949.987 -0.5,963.5C -0.5,642.167 -0.5,320.833 -0.5,-0.5 Z"/></g>
<g><path style="opacity:1" fill="#134a78" d="M 1009.5,-0.5 C 1022.83,-0.5 1036.17,-0.5 1049.5,-0.5C 1123.22,2.18528 1189.89,25.1853 1249.5,68.5C 1259.49,57.3221 1271.49,48.8221 1285.5,43C 1348.61,19.5366 1410.28,22.8699 1470.5,53C 1510.6,76.0963 1543.26,107.096 1568.5,146C 1575.46,145.712 1582.46,145.545 1589.5,145.5C 1589.5,148.167 1589.5,150.833 1589.5,153.5C 1573.16,154.358 1556.82,155.358 1540.5,156.5C 1540.5,153.833 1540.5,151.167 1540.5,148.5C 1546.52,148.088 1552.52,147.421 1558.5,146.5C 1551.58,136.076 1544.08,126.076 1536,116.5C 1506.23,81.6914 1469.4,57.5247 1425.5,44C 1373.21,28.6641 1322.88,33.3307 1274.5,58C 1265.61,62.5562 1259.11,69.3895 1255,78.5C 1254.11,79.0814 1253.11,79.4148 1252,79.5C 1238.65,70.5655 1225.15,61.7322 1211.5,53C 1150.51,19.6064 1085.18,4.60639 1015.5,8C 934.574,12.815 857.574,32.815 784.5,68C 741.798,87.6632 702.465,112.33 666.5,142C 656.124,151.021 648.124,161.688 642.5,174C 632.508,172.003 622.508,169.67 612.5,167C 575.666,160.573 540.333,165.24 506.5,181C 459.744,203.755 425.911,238.922 405,286.5C 398.133,302.508 394.466,319.175 394,336.5C 419.93,305.222 450.097,279.055 484.5,258C 500.771,248.688 518.104,242.355 536.5,239C 557.253,235.481 575.086,240.981 590,255.5C 601.38,271.72 605.38,289.72 602,309.5C 598.379,333.694 590.379,356.361 578,377.5C 546.873,427.974 507.873,471.64 461,508.5C 460.837,510.387 461.671,511.887 463.5,513C 468.271,516.138 472.771,519.638 477,523.5C 477.345,525.201 476.678,526.534 475,527.5C 462.167,517.333 449.333,507.167 436.5,497C 437.354,495.978 438.354,495.145 439.5,494.5C 445.116,498.115 450.45,502.115 455.5,506.5C 460.188,503.822 464.521,500.656 468.5,497C 488.423,479.287 507.59,460.787 526,441.5C 549.978,415.165 569.644,385.831 585,353.5C 595.229,331.59 599.562,308.59 598,284.5C 590.701,253.075 570.867,239.242 538.5,243C 519.177,246.108 501.177,252.774 484.5,263C 450.378,284.775 420.211,311.275 394,342.5C 395.407,349.704 395.741,357.038 395,364.5C 391.274,377.956 384.94,389.956 376,400.5C 364.197,414.979 349.364,424.813 331.5,430C 305.383,433.025 285.883,423.192 273,400.5C 262.664,375.513 267.164,353.68 286.5,335C 302.482,323.796 320.316,318.629 340,319.5C 356.264,318.563 371.098,322.563 384.5,331.5C 389.208,296.525 402.374,265.192 424,237.5C 479.735,168.144 550.902,143.644 637.5,164C 639.876,160.081 642.376,156.248 645,152.5C 661.02,135.142 678.854,119.975 698.5,107C 793.029,44.7681 896.695,8.93475 1009.5,-0.5 Z"/></g>
<g><path style="opacity:1" fill="#68a8da" d="M 1042.5,89.5 C 1071.68,86.9965 1092.18,98.9965 1104,125.5C 1111.78,156.541 1101.61,179.374 1073.5,194C 1055.3,199.657 1037.64,198.324 1020.5,190C 1001.88,181.709 987.381,168.875 977,151.5C 975.309,146.601 974.143,141.601 973.5,136.5C 927.056,126.325 880.056,122.491 832.5,125C 748.64,131.872 694.14,175.372 669,255.5C 659.334,287.831 653.001,320.831 650,354.5C 645.858,404.156 641.858,453.823 638,503.5C 634.612,541.276 628.612,578.609 620,615.5C 592.314,727.182 521.481,791.348 407.5,808C 372.292,812.078 336.959,813.578 301.5,812.5C 299.929,820.735 294.929,825.069 286.5,825.5C 274.089,823.01 269.589,815.677 273,803.5C 279.074,794.987 286.908,793.153 296.5,798C 299.268,800.869 301.268,804.202 302.5,808C 347.624,810.503 392.291,807.17 436.5,798C 519.959,778.872 576.126,729.038 605,648.5C 620.687,600.405 630.354,551.071 634,500.5C 637.737,445.08 642.404,389.747 648,334.5C 652.342,302.131 659.676,270.465 670,239.5C 695.611,172.235 744.111,133.402 815.5,123C 849.148,118.482 882.814,118.482 916.5,123C 935.937,125.345 955.27,128.012 974.5,131C 978.303,120.403 984.97,112.07 994.5,106C 1009.34,96.7751 1025.34,91.2751 1042.5,89.5 Z"/></g>
<g><path style="opacity:1" fill="#68a8da" d="M 1666.5,121.5 C 1705.33,120.791 1741.66,129.958 1775.5,149C 1812.93,169.76 1844.1,197.593 1869,232.5C 1873.15,239.636 1876.32,247.136 1878.5,255C 1944.21,257.782 1999.05,283.282 2043,331.5C 2071.71,365.456 2086.55,404.789 2087.5,449.5C 2105.27,447.033 2121.61,450.866 2136.5,461C 2152.86,471.697 2165.36,485.864 2174,503.5C 2181.12,535.425 2169.95,558.258 2140.5,572C 2099.52,580.039 2074.68,563.539 2066,522.5C 2061.75,503.395 2063.09,484.728 2070,466.5C 2072.55,460.897 2076.38,456.397 2081.5,453C 2023.44,379.328 1947.44,347.328 1853.5,357C 1805.93,363.058 1759.93,375.058 1715.5,393C 1686.82,404.508 1658.48,416.841 1630.5,430C 1574.22,457.473 1518.22,485.473 1462.5,514C 1410.95,540.109 1357.62,561.776 1302.5,579C 1266.96,589.934 1230.63,594.601 1193.5,593C 1143.64,588.571 1101.98,567.905 1068.5,531C 1058.68,526.868 1055.18,519.702 1058,509.5C 1062.11,502.196 1068.27,499.363 1076.5,501C 1087.48,506.598 1089.98,514.765 1084,525.5C 1081.37,528.231 1078.21,530.064 1074.5,531C 1118.14,576.33 1171.47,595.33 1234.5,588C 1276.84,582.499 1317.84,571.833 1357.5,556C 1388.85,543.158 1419.85,529.491 1450.5,515C 1507.83,486.333 1565.17,457.667 1622.5,429C 1673.16,404.175 1725.49,383.508 1779.5,367C 1821.68,354.832 1864.68,349.832 1908.5,352C 1963.85,356.685 2011.85,377.685 2052.5,415C 2061.36,423.53 2069.86,432.363 2078,441.5C 2074.77,392.866 2055.27,352.032 2019.5,319C 1977.52,282.555 1928.52,264.221 1872.5,264C 1870.49,255.977 1867.66,248.143 1864,240.5C 1827.16,186.976 1777.33,151.476 1714.5,134C 1683.32,125.785 1653.32,128.785 1624.5,143C 1624.04,143.414 1623.71,143.914 1623.5,144.5C 1629.57,152.123 1630.07,160.123 1625,168.5C 1614.97,177.089 1605.64,176.422 1597,166.5C 1592,155.343 1594.83,146.843 1605.5,141C 1608.17,140.667 1610.83,140.333 1613.5,140C 1629.78,129.52 1647.44,123.354 1666.5,121.5 Z"/></g>
<g><path style="opacity:1" fill="#124977" d="M 1316.5,122.5 C 1363.47,119.52 1406.13,131.353 1444.5,158C 1460.85,169.676 1471.68,185.176 1477,204.5C 1478.68,217.109 1475.68,228.442 1468,238.5C 1453.88,253.65 1436.71,263.817 1416.5,269C 1410.5,270.667 1404.5,272.333 1398.5,274C 1386.73,275.96 1375.07,278.127 1363.5,280.5C 1366.94,286.373 1370.1,292.373 1373,298.5C 1373.76,301.914 1372.59,302.914 1369.5,301.5C 1362.2,287.225 1355.2,272.892 1348.5,258.5C 1350.14,258.286 1351.64,258.62 1353,259.5C 1355.5,264.5 1358,269.5 1360.5,274.5C 1392.48,273.17 1422.48,264.67 1450.5,249C 1475.46,230.141 1479.29,207.641 1462,181.5C 1443.81,160.309 1421.31,145.476 1394.5,137C 1312.85,113.452 1242.68,132.286 1184,193.5C 1152.13,230.879 1128.8,273.212 1114,320.5C 1109.43,335.536 1105.27,350.703 1101.5,366C 1114.13,373.06 1122.63,383.56 1127,397.5C 1135.44,420.554 1135.44,443.554 1127,466.5C 1113.87,489.483 1094.03,499.316 1067.5,496C 1035.41,486.02 1021.24,464.187 1025,430.5C 1034.76,400.081 1054.26,378.581 1083.5,366C 1088.15,365.501 1092.82,365.334 1097.5,365.5C 1107.44,317.826 1124.94,273.159 1150,231.5C 1172.7,194.135 1203.2,164.968 1241.5,144C 1265.41,132.594 1290.41,125.427 1316.5,122.5 Z"/></g>
<g><path style="opacity:1" fill="#f9fbfd" d="M 1608.5,148.5 C 1620.96,149.43 1623.63,154.93 1616.5,165C 1607.29,167.638 1602.79,164.138 1603,154.5C 1604.36,151.977 1606.19,149.977 1608.5,148.5 Z"/></g>
<g><path style="opacity:1" fill="#114977" d="M 1560.5,168.5 C 1591.79,168.393 1611.63,183.393 1620,213.5C 1621.74,233.267 1616.08,250.601 1603,265.5C 1590.52,279.99 1575.36,290.49 1557.5,297C 1550.86,298.721 1544.19,298.888 1537.5,297.5C 1536.97,308.707 1535.13,319.707 1532,330.5C 1519.57,364.378 1502.23,395.378 1480,423.5C 1446.94,464.575 1407.77,498.408 1362.5,525C 1330.66,542.795 1296.66,554.128 1260.5,559C 1205.88,564.1 1156.88,550.1 1113.5,517C 1106.93,517.686 1100.6,519.519 1094.5,522.5C 1092.73,521.18 1092.4,519.68 1093.5,518C 1107.18,512.997 1120.84,507.997 1134.5,503C 1137.93,501.762 1139.59,502.929 1139.5,506.5C 1131.83,508.169 1124.49,510.836 1117.5,514.5C 1174.79,556.548 1237.46,566.715 1305.5,545C 1351.22,529.226 1391.88,505.226 1427.5,473C 1465.34,439.189 1495.5,399.689 1518,354.5C 1526.01,337.141 1531.18,318.975 1533.5,300C 1533.17,298.167 1532.83,296.333 1532.5,294.5C 1524.62,289.433 1519.12,282.433 1516,273.5C 1511.67,261.727 1509.84,249.56 1510.5,237C 1508.68,215.462 1515.34,197.129 1530.5,182C 1539.49,175.003 1549.49,170.503 1560.5,168.5 Z"/></g>
<g><path style="opacity:1" fill="#66a7da" d="M 795.5,197.5 C 798.518,197.335 801.518,197.502 804.5,198C 807.63,200.128 810.463,202.628 813,205.5C 822.058,220.33 829.391,235.997 835,252.5C 854.333,314.834 874.667,376.834 896,438.5C 905.077,461.984 915.743,484.65 928,506.5C 934.984,518.158 943.484,528.658 953.5,538C 971.377,551.796 989.377,551.796 1007.5,538C 1015.73,531.607 1022.73,524.107 1028.5,515.5C 1019.84,505.576 1020.84,496.743 1031.5,489C 1039.67,486.689 1046.17,488.856 1051,495.5C 1055.1,511.388 1049.1,518.721 1033,517.5C 1022.13,533.671 1007.63,545.171 989.5,552C 978.019,554.108 967.353,552.108 957.5,546C 950.404,540.908 943.904,535.074 938,528.5C 923.105,508.053 910.771,486.053 901,462.5C 895.468,448.901 890.134,435.234 885,421.5C 866.456,364.869 848.123,308.202 830,251.5C 824.588,236.012 817.588,221.345 809,207.5C 801.725,198.99 795.392,199.656 790,209.5C 785.485,218.86 781.818,228.527 779,238.5C 768.635,282.021 761.302,326.021 757,370.5C 763.19,367.688 769.69,366.854 776.5,368C 801.903,373.4 822.736,386.234 839,406.5C 851.897,426.218 852.897,446.551 842,467.5C 827.248,488.756 807.082,496.923 781.5,492C 760.509,485.009 747.009,470.842 741,449.5C 736.86,433.743 735.527,417.743 737,401.5C 738.372,390.082 743.372,380.749 752,373.5C 756.748,327.345 764.415,281.679 775,236.5C 777.966,225.265 782.3,214.599 788,204.5C 790.396,201.933 792.896,199.6 795.5,197.5 Z"/></g>
<g><path style="opacity:1" fill="#64a6da" d="M 1283.5,253.5 C 1314.19,253.041 1334.02,267.375 1343,296.5C 1345.95,333.757 1329.12,356.257 1292.5,364C 1274.62,367.908 1256.96,367.241 1239.5,362C 1221.18,354.53 1214.01,341.03 1218,321.5C 1224.16,299.688 1235.99,281.521 1253.5,267C 1262.49,260.003 1272.49,255.503 1283.5,253.5 Z"/></g>
<g><path style="opacity:1" fill="#67a7da" d="M -0.5,1020.5 C -0.5,1001.5 -0.5,982.5 -0.5,963.5C 1.01919,949.987 2.51919,936.32 4,922.5C 8.15649,887.872 18.4898,855.206 35,824.5C 57.3298,785.08 91.1631,764.08 136.5,761.5C 99.4819,627.066 134.649,515.732 242,427.5C 241.508,422.551 241.508,417.551 242,412.5C 249.492,400.434 259.159,398.434 271,406.5C 278.933,418.889 276.433,428.389 263.5,435C 257.979,435.76 252.645,435.426 247.5,434C 238.833,441.333 230.167,448.667 221.5,456C 137.269,540.082 111.436,639.582 144,754.5C 146.537,751.628 149.37,749.128 152.5,747C 173.053,735.684 195.053,731.684 218.5,735C 223.972,735.733 229.305,737.067 234.5,739C 263.681,754.215 273.515,777.715 264,809.5C 252.113,834.532 232.28,845.699 204.5,843C 185.205,837.373 168.705,827.206 155,812.5C 143.656,800.809 137.489,786.809 136.5,770.5C 111.508,770.107 89.508,777.941 70.5,794C 51.1225,812.392 36.9558,834.225 28,859.5C 18.5684,886.754 12.5684,914.754 10,943.5C 5.74547,994.41 7.74547,1045.08 16,1095.5C 22.8421,1143.39 36.8421,1189.06 58,1232.5C 64.959,1245.46 74.1257,1256.63 85.5,1266C 98.4546,1273.28 110.121,1271.62 120.5,1261C 115.698,1250.14 118.365,1241.81 128.5,1236C 142.356,1232.91 150.356,1238.24 152.5,1252C 149.507,1266.66 140.84,1271.83 126.5,1267.5C 123.36,1269.47 120.36,1271.64 117.5,1274C 102.469,1281.6 88.4689,1279.93 75.5,1269C 66.476,1260.65 58.976,1251.15 53,1240.5C 37.3908,1211.01 25.7241,1180.01 18,1147.5C 8.30058,1105.55 2.13391,1063.22 -0.5,1020.5 Z"/></g>
<g><path style="opacity:1" fill="#fcfdfe" d="M 254.5,410.5 C 264.33,408.829 268.163,412.829 266,422.5C 264.471,425.934 261.804,427.6 258,427.5C 250.875,426.602 248.208,422.602 250,415.5C 251.025,413.313 252.525,411.646 254.5,410.5 Z"/></g>
<g><path style="opacity:1" fill="#69a8db" d="M 1772.5,490.5 C 1811.06,488.948 1849.39,491.114 1887.5,497C 1923.05,502.728 1955.05,516.394 1983.5,538C 2013.19,564.904 2026.02,598.404 2022,638.5C 2020,649.832 2018,661.165 2016,672.5C 2007.58,703.196 2000.58,734.196 1995,765.5C 1994.33,773.5 1994.33,781.5 1995,789.5C 1998.92,801.217 2007.09,807.217 2019.5,807.5C 2024.13,794.034 2032.8,790.867 2045.5,798C 2051.29,806.579 2050.62,814.579 2043.5,822C 2031.92,827.366 2023.92,824.2 2019.5,812.5C 1998.77,810.103 1988.77,798.437 1989.5,777.5C 1989.8,771.484 1990.3,765.484 1991,759.5C 2000.61,721.064 2009.28,682.398 2017,643.5C 2022.95,593.917 2005.12,555.751 1963.5,529C 1935.41,513.414 1905.41,503.414 1873.5,499C 1814.66,492.119 1755.99,493.453 1697.5,503C 1598.82,518.919 1503.16,545.585 1410.5,583C 1386.72,592.724 1363.05,602.724 1339.5,613C 1461.59,605.478 1583.25,609.811 1704.5,626C 1753.71,632.635 1801.71,644.301 1848.5,661C 1869.83,668.827 1889.5,679.494 1907.5,693C 1939.27,720.608 1943.1,751.774 1919,786.5C 1914.9,791.687 1910.57,796.687 1906,801.5C 1906.92,805.229 1907.76,809.062 1908.5,813C 1906.87,823.966 1900.53,828.966 1889.5,828C 1878.26,822.888 1875.42,814.721 1881,803.5C 1884.11,799.728 1888.11,797.728 1893,797.5C 1896.14,798.501 1899.3,799.001 1902.5,799C 1944.04,755.165 1939.37,717.165 1888.5,685C 1858.43,668.751 1826.77,656.418 1793.5,648C 1707.61,628.493 1620.61,617.493 1532.5,615C 1486.83,614.333 1441.17,614.333 1395.5,615C 1372.76,615.609 1350.1,617.109 1327.5,619.5C 1332.54,626.498 1334.87,634.332 1334.5,643C 1333.34,671.311 1322.67,695.311 1302.5,715C 1275.27,732.498 1250.11,729.998 1227,707.5C 1211.25,685.244 1210.58,662.577 1225,639.5C 1247.76,615.708 1275.59,605.208 1308.5,608C 1314.14,609.571 1319.31,612.071 1324,615.5C 1432.85,564.327 1546.35,527.161 1664.5,504C 1700.46,497.975 1736.46,493.475 1772.5,490.5 Z"/></g>
<g><path style="opacity:1" fill="#fcfdfe" d="M 1033.5,492.5 C 1043.9,491.732 1048.73,496.398 1048,506.5C 1045.27,513.053 1040.44,515.22 1033.5,513C 1027.89,509.723 1026.06,504.89 1028,498.5C 1029.36,495.977 1031.19,493.977 1033.5,492.5 Z"/></g>
<g><path style="opacity:1" fill="#fcfdfe" d="M 1067.5,505.5 C 1081.7,505.066 1085.7,511.233 1079.5,524C 1072.01,528.369 1066.17,526.869 1062,519.5C 1060.27,513.314 1062.1,508.647 1067.5,505.5 Z"/></g>
<g><path style="opacity:1" fill="#65a6da" d="M 410.5,511.5 C 441.261,510.452 461.428,524.452 471,553.5C 474.285,573.304 469.285,590.637 456,605.5C 441.066,622.385 422.566,633.218 400.5,638C 393.706,639.061 387.206,638.228 381,635.5C 380.848,668.108 373.181,698.775 358,727.5C 349.059,743.774 336.226,755.941 319.5,764C 314.292,765.802 308.959,766.969 303.5,767.5C 303.335,781.496 296.335,787.329 282.5,785C 275.024,780.585 272.191,774.085 274,765.5C 277.655,757.524 283.821,754.358 292.5,756C 296.906,757.76 300.739,760.26 304,763.5C 324.604,759.567 340.271,748.567 351,730.5C 368.583,700.169 376.749,667.503 375.5,632.5C 367.833,625.507 363,616.841 361,606.5C 357.233,584.776 359.567,563.776 368,543.5C 376.887,525.775 391.054,515.108 410.5,511.5 Z"/></g>
<g><path style="opacity:1" fill="#124977" d="M 2272.5,734.5 C 2272.5,735.167 2272.5,735.833 2272.5,736.5C 2272.31,766.244 2264.48,793.91 2249,819.5C 2235.08,838.881 2216.25,850.214 2192.5,853.5C 2193.85,868.464 2194.51,883.464 2194.5,898.5C 2194.16,998.41 2151.16,1073.24 2065.5,1123C 1988.64,1162.59 1908.64,1170.42 1825.5,1146.5C 1824.67,1164.47 1819.5,1181.14 1810,1196.5C 1795.93,1219.8 1775.76,1235.3 1749.5,1243C 1726.76,1247.43 1704.43,1245.93 1682.5,1238.5C 1677.86,1242.13 1673.19,1245.8 1668.5,1249.5C 1665.47,1248 1663.97,1245.67 1664,1242.5C 1676.01,1232.49 1688.01,1222.49 1700,1212.5C 1701.81,1214.31 1703.64,1216.14 1705.5,1218C 1700.33,1222.34 1695.33,1226.84 1690.5,1231.5C 1721.81,1242.3 1751.14,1238.47 1778.5,1220C 1803.81,1198.87 1816.98,1171.71 1818,1138.5C 1818.83,1137.67 1819.67,1136.83 1820.5,1136C 1887.25,1157.23 1953.92,1156.57 2020.5,1134C 2068.75,1117.06 2108.58,1088.56 2140,1048.5C 2178.82,992.445 2193.49,930.445 2184,862.5C 2178.67,868.16 2172.51,872.66 2165.5,876C 2141.47,885.897 2117.14,886.897 2092.5,879C 2068.53,866.891 2057.69,847.391 2060,820.5C 2069.12,787.055 2090.96,772.222 2125.5,776C 2149.83,783.66 2169,798.16 2183,819.5C 2188.25,827.407 2190.75,836.074 2190.5,845.5C 2221.17,840.724 2242.01,823.724 2253,794.5C 2270.55,742.311 2266.21,691.978 2240,643.5C 2225.5,617.67 2204.67,598.837 2177.5,587C 2172.3,584.816 2166.97,583.483 2161.5,583C 2156,587.167 2150.5,591.333 2145,595.5C 2143.08,593.309 2141.75,590.976 2141,588.5C 2153.85,579.076 2166.51,569.409 2179,559.5C 2180.71,561.759 2182.55,563.926 2184.5,566C 2179.99,569.091 2175.65,572.425 2171.5,576C 2195.47,584.24 2215.64,598.074 2232,617.5C 2258.56,652.001 2272.06,691.001 2272.5,734.5 Z"/></g>
<g><path style="opacity:1" fill="#69a8db" d="M 936.5,608.5 C 1025.03,606.472 1103.36,633.306 1171.5,689C 1215.94,727.091 1253.44,770.925 1284,820.5C 1305.58,856.33 1325.08,893.33 1342.5,931.5C 1352.46,925.822 1363.12,923.988 1374.5,926C 1397.33,929.381 1417.17,938.881 1434,954.5C 1451.89,976.798 1453.22,1000.13 1438,1024.5C 1416.46,1048.29 1391.63,1052.46 1363.5,1037C 1351.2,1027.02 1342.37,1014.52 1337,999.5C 1330.17,983.717 1328.17,967.384 1331,950.5C 1332.32,945.033 1334.82,940.2 1338.5,936C 1267.84,906.246 1204.5,917.246 1148.5,969C 1123.63,994.917 1102.79,1023.75 1086,1055.5C 1060.94,1105 1041.61,1156.67 1028,1210.5C 988.212,1371.17 972.879,1534.17 982,1699.5C 983.894,1724.11 987.561,1748.44 993,1772.5C 994.857,1779.21 997.524,1785.54 1001,1791.5C 1005.31,1795.67 1009.31,1795.34 1013,1790.5C 1020.43,1777.23 1026.09,1763.23 1030,1748.5C 1044.71,1687.9 1055.21,1626.56 1061.5,1564.5C 1057.44,1564.28 1054.61,1562.28 1053,1558.5C 1048.93,1542.57 1055.09,1535.07 1071.5,1536C 1079.55,1539.61 1082.72,1545.77 1081,1554.5C 1078.69,1562.24 1073.52,1565.9 1065.5,1565.5C 1059.28,1631.14 1047.78,1695.81 1031,1759.5C 1027.69,1771.11 1023.03,1782.11 1017,1792.5C 1008.73,1802.31 1001.4,1801.65 995,1790.5C 991.23,1781.75 988.23,1772.75 986,1763.5C 977.301,1711.87 973.801,1659.87 975.5,1607.5C 974.725,1466.03 992.559,1327.03 1029,1190.5C 1043.25,1139.75 1062.58,1091.08 1087,1044.5C 1103.66,1014.5 1124.16,987.333 1148.5,963C 1203.44,913.982 1265.44,902.815 1334.5,929.5C 1334.83,929 1335.17,928.5 1335.5,928C 1302.89,851.463 1258.39,782.963 1202,722.5C 1106.82,627.984 993.324,594.817 861.5,623C 799.928,637.859 741.928,661.525 687.5,694C 602.202,744.923 526.702,808.089 461,883.5C 442.37,905.425 425.703,928.758 411,953.5C 406.27,961.265 403.603,969.598 403,978.5C 411.056,982.902 413.723,989.568 411,998.5C 406.849,1006.34 400.349,1009.17 391.5,1007C 381.988,1001.81 379.488,994.315 384,984.5C 387.36,979.904 391.86,977.571 397.5,977.5C 398.761,970.551 400.927,963.884 404,957.5C 416.374,934.803 430.708,913.47 447,893.5C 529.564,795.179 628.064,717.346 742.5,660C 803.904,629.984 868.571,612.818 936.5,608.5 Z"/></g>
<g><path style="opacity:1" fill="#114977" d="M 1341.5,711.5 C 1344.26,711.886 1345.26,713.219 1344.5,715.5C 1337.16,719.501 1330.16,724.001 1323.5,729C 1362.89,771.079 1405.89,808.746 1452.5,842C 1483.71,864.272 1517.71,881.272 1554.5,893C 1612.04,909.303 1666.38,901.97 1717.5,871C 1725.5,865.667 1733.5,860.333 1741.5,855C 1744.6,836.806 1753.6,822.139 1768.5,811C 1781.1,800.57 1795.43,793.57 1811.5,790C 1843.11,786.547 1864.27,799.714 1875,829.5C 1878.98,850.567 1873.48,868.734 1858.5,884C 1843.7,895.201 1827.03,899.534 1808.5,897C 1785.55,894.939 1766.05,885.773 1750,869.5C 1747.73,865.962 1745.73,862.295 1744,858.5C 1672.77,911.408 1596.6,919.574 1515.5,883C 1481.15,866.504 1449.15,846.504 1419.5,823C 1384.67,794.513 1351.34,764.179 1319.5,732C 1314.19,734.243 1309.03,737.077 1304,740.5C 1303.53,739.069 1302.7,737.903 1301.5,737C 1315.07,728.725 1328.4,720.225 1341.5,711.5 Z"/></g>
<g><path style="opacity:1" fill="#67a7da" d="M 1275.5,730.5 C 1291.36,729.849 1297.52,737.182 1294,752.5C 1293.03,754.305 1291.86,755.972 1290.5,757.5C 1375.83,848.051 1470.17,927.217 1573.5,995C 1634.89,1034.93 1700.56,1066.26 1770.5,1089C 1815.11,1102.99 1860.78,1109.33 1907.5,1108C 1933.55,1106.92 1958.55,1101.26 1982.5,1091C 1995.46,1085.03 2006.79,1076.86 2016.5,1066.5C 2010.24,1063.08 2005.08,1058.41 2001,1052.5C 1988.64,1027.96 1985.64,1002.29 1992,975.5C 2006.26,943.121 2030.43,931.955 2064.5,942C 2090.77,954.701 2101.6,975.534 2097,1004.5C 2086.62,1035.54 2066.12,1056.71 2035.5,1068C 2030.5,1068.33 2025.5,1068.67 2020.5,1069C 2007.52,1082.5 1992.19,1092.5 1974.5,1099C 1939.42,1110.7 1903.42,1115.03 1866.5,1112C 1801.42,1105.09 1739.42,1087.42 1680.5,1059C 1594.37,1016.78 1514.7,965.118 1441.5,904C 1387.43,859.277 1335.76,811.61 1286.5,761C 1268.76,761.286 1262.6,753.119 1268,736.5C 1270.11,733.879 1272.61,731.879 1275.5,730.5 Z"/></g>
<g><path style="opacity:1" fill="#f9fbfd" d="M 1276.5,734.5 C 1289.38,734.61 1293.54,740.61 1289,752.5C 1281.07,758.679 1274.74,757.345 1270,748.5C 1269.18,742.471 1271.35,737.804 1276.5,734.5 Z"/></g>
<g><path style="opacity:1" fill="#164b79" d="M 992.5,742.5 C 1034.16,740.901 1075.49,743.735 1116.5,751C 1132.9,754.688 1148.56,760.354 1163.5,768C 1172.54,772.524 1177.87,779.69 1179.5,789.5C 1179.54,794.695 1178.04,799.361 1175,803.5C 1165.85,812.301 1155.35,819.135 1143.5,824C 1134.17,827.333 1124.83,830.667 1115.5,834C 1105.79,836.344 1096.12,838.844 1086.5,841.5C 1091.49,845.658 1095.99,850.325 1100,855.5C 1112.21,873.042 1114.88,892.042 1108,912.5C 1103.7,926.406 1098.03,939.739 1091,952.5C 1075.73,978.098 1060.06,1003.43 1044,1028.5C 1026.89,1057.06 1013.89,1087.39 1005,1119.5C 975.166,1221.67 954.166,1325.67 942,1431.5C 930.095,1525.46 925.095,1619.8 927,1714.5C 927.975,1758.99 932.975,1802.99 942,1846.5C 946.289,1867.06 954.623,1885.73 967,1902.5C 980.491,1918.91 995.657,1920.74 1012.5,1908C 1022.93,1897.91 1031.43,1886.41 1038,1873.5C 1055.42,1837.58 1069.09,1800.25 1079,1761.5C 1095.44,1699.85 1105.94,1637.18 1110.5,1573.5C 1103.17,1571.83 1095.83,1570.17 1088.5,1568.5C 1088.5,1567.17 1088.5,1565.83 1088.5,1564.5C 1104.75,1567.56 1120.75,1571.56 1136.5,1576.5C 1136.17,1578.17 1135.17,1579.17 1133.5,1579.5C 1127.24,1578.06 1121.07,1576.39 1115,1574.5C 1108.53,1657.86 1092.19,1739.2 1066,1818.5C 1058.3,1840.57 1048.97,1861.9 1038,1882.5C 1030.83,1895.99 1021,1907.15 1008.5,1916C 996.967,1922.27 985.634,1921.93 974.5,1915C 963.721,1906.55 955.554,1896.05 950,1883.5C 937.228,1849.64 929.561,1814.64 927,1778.5C 920.843,1694.15 921.176,1609.82 928,1525.5C 937.562,1409.7 955.895,1295.37 983,1182.5C 991.612,1148.45 1001.61,1114.79 1013,1081.5C 1018.2,1068.11 1024.2,1055.11 1031,1042.5C 1047.27,1015.24 1063.94,988.235 1081,961.5C 1089.68,946.466 1097.02,930.8 1103,914.5C 1113.14,885.916 1106.14,862.583 1082,844.5C 1081.24,861.02 1075.24,875.353 1064,887.5C 1050.82,902.344 1034.65,912.511 1015.5,918C 983.16,921.089 961.994,907.256 952,876.5C 948.121,842.75 962.288,820.917 994.5,811C 1019.42,806.905 1043.08,810.572 1065.5,822C 1071.74,826.401 1076.74,831.901 1080.5,838.5C 1098.71,834.042 1116.71,828.876 1134.5,823C 1146.05,818.891 1156.72,813.224 1166.5,806C 1179.34,793.742 1178.34,782.742 1163.5,773C 1143.13,762.154 1121.46,755.154 1098.5,752C 919.781,735.262 756.115,776.929 607.5,877C 558.701,911.454 514.534,951.288 475,996.5C 460.167,1015.33 445.333,1034.17 430.5,1053C 423.519,1059.88 415.185,1062.55 405.5,1061C 399.777,1058.78 395.444,1054.95 392.5,1049.5C 390.5,1054.5 388.5,1059.5 386.5,1064.5C 385.098,1064.13 384.098,1063.3 383.5,1062C 388.082,1046.59 393.248,1031.42 399,1016.5C 400.205,1017.07 401.372,1017.74 402.5,1018.5C 399.335,1026.16 396.669,1033.99 394.5,1042C 399.628,1057.73 409.295,1061.4 423.5,1053C 434.803,1041.37 444.969,1028.87 454,1015.5C 553.864,892.27 680.698,809.77 834.5,768C 886.527,754.606 939.194,746.106 992.5,742.5 Z"/></g>
<g><path style="opacity:1" fill="#fafcfd" d="M 285.5,759.5 C 295.3,759.279 299.8,763.946 299,773.5C 296.386,780.157 291.553,782.657 284.5,781C 275.026,773.454 275.36,766.288 285.5,759.5 Z"/></g>
<g><path style="opacity:1" fill="#fcfdfe" d="M 282.5,799.5 C 291.138,798.131 296.138,801.631 297.5,810C 296.425,819.046 291.425,822.379 282.5,820C 276.891,816.723 275.058,811.89 277,805.5C 278.36,802.977 280.193,800.977 282.5,799.5 Z"/></g>
<g><path style="opacity:1" fill="#fafcfd" d="M 2031.5,798.5 C 2044.18,798.991 2048.01,804.991 2043,816.5C 2038.8,820.714 2033.97,821.548 2028.5,819C 2021.22,810.873 2022.22,804.04 2031.5,798.5 Z"/></g>
<g><path style="opacity:1" fill="#fcfdfe" d="M 1888.5,802.5 C 1900.01,801.176 1904.84,806.176 1903,817.5C 1899.72,823.109 1894.89,824.942 1888.5,823C 1880.55,816.169 1880.55,809.335 1888.5,802.5 Z"/></g>
<g><path style="opacity:1" fill="#134a78" d="M 1015.5,1974.5 C 1006.83,1974.5 998.167,1974.5 989.5,1974.5C 966.298,1969.48 948.465,1956.81 936,1936.5C 921.867,1910.19 912.867,1882.19 909,1852.5C 903.974,1815.88 899.307,1779.21 895,1742.5C 892.988,1726.1 889.321,1710.1 884,1694.5C 880.158,1714.85 871.491,1732.85 858,1748.5C 848.802,1759.37 837.302,1766.53 823.5,1770C 796.217,1773.78 776.05,1763.61 763,1739.5C 753.652,1714.74 758.485,1693.24 777.5,1675C 795.206,1662.82 814.873,1656.65 836.5,1656.5C 851.599,1655.28 864.766,1659.61 876,1669.5C 878.953,1661.69 881.287,1653.69 883,1645.5C 885.323,1630.24 886.989,1614.91 888,1599.5C 889.208,1547.74 887.541,1496.08 883,1444.5C 877.252,1382.85 871.586,1321.18 866,1259.5C 861.117,1202.77 858.283,1145.93 857.5,1089C 857.192,1051.92 860.025,1015.09 866,978.5C 869.953,956.308 877.286,935.308 888,915.5C 898.12,897.709 912.787,885.376 932,878.5C 930.836,871.153 929.336,863.82 927.5,856.5C 929.451,856.227 930.951,856.893 932,858.5C 936.168,873.172 940.335,887.839 944.5,902.5C 942.994,903.747 941.494,903.747 940,902.5C 938.054,896.167 936.221,889.834 934.5,883.5C 925.101,885.533 916.767,889.7 909.5,896C 896.02,909.114 886.186,924.614 880,942.5C 870.121,974.716 864.454,1007.72 863,1041.5C 860.858,1100.24 862.191,1158.9 867,1217.5C 872.792,1288.88 879.126,1360.22 886,1431.5C 888.723,1464.12 890.723,1496.79 892,1529.5C 892.857,1557.85 892.524,1586.18 891,1614.5C 890.021,1632.92 886.854,1650.92 881.5,1668.5C 889.788,1683.52 895.622,1699.52 899,1716.5C 905.729,1761.06 911.729,1805.73 917,1850.5C 921.265,1879.29 929.932,1906.63 943,1932.5C 962.707,1961.75 989.873,1972.25 1024.5,1964C 1054.04,1953.81 1077.88,1935.98 1096,1910.5C 1119.52,1874.96 1135.85,1836.29 1145,1794.5C 1159.68,1723.13 1164.02,1651.13 1158,1578.5C 1153.84,1580.55 1149.51,1582.22 1145,1583.5C 1141.48,1580.97 1140.98,1578.14 1143.5,1575C 1157.95,1570.13 1172.28,1564.96 1186.5,1559.5C 1187.69,1561.74 1188.69,1564.07 1189.5,1566.5C 1182.55,1570.15 1175.21,1572.82 1167.5,1574.5C 1168.52,1607.16 1168.68,1639.83 1168,1672.5C 1167.06,1734.3 1156.4,1794.3 1136,1852.5C 1123.99,1884.21 1106.66,1912.54 1084,1937.5C 1064.76,1956.6 1041.92,1968.93 1015.5,1974.5 Z"/></g>
<g><path style="opacity:1" fill="#6ba9db" d="M 676.5,923.5 C 680.514,923.334 684.514,923.501 688.5,924C 693.143,926.072 694.643,929.572 693,934.5C 689.784,941.044 685.784,947.044 681,952.5C 662.741,971.763 643.574,989.93 623.5,1007C 554.125,1065.38 484.459,1123.38 414.5,1181C 365.17,1222.65 317.337,1266.15 271,1311.5C 253.549,1329.28 237.215,1347.94 222,1367.5C 211.676,1380.48 203.676,1394.81 198,1410.5C 195.109,1420.18 196.442,1429.18 202,1437.5C 206.561,1441.12 211.728,1442.29 217.5,1441C 233.032,1435.57 247.032,1427.57 259.5,1417C 288.905,1391.93 316.738,1365.1 343,1336.5C 399.667,1273.17 456.333,1209.83 513,1146.5C 545.563,1110.6 580.063,1076.77 616.5,1045C 629.015,1034.5 643.015,1026.5 658.5,1021C 667.325,1018.95 674.825,1021.11 681,1027.5C 682.838,1030.04 683.671,1032.87 683.5,1036C 682.86,1042.06 681.36,1047.89 679,1053.5C 672.995,1064.85 665.995,1075.52 658,1085.5C 637.269,1109.9 615.435,1133.4 592.5,1156C 573.309,1173.77 554.309,1191.77 535.5,1210C 464.201,1273.63 393.201,1337.63 322.5,1402C 305.333,1419.17 288.167,1436.33 271,1453.5C 262.904,1462.26 255.571,1471.59 249,1481.5C 241.316,1493.69 244.816,1500.03 259.5,1500.5C 274.225,1498.76 287.892,1493.92 300.5,1486C 332.512,1465 362.512,1441.33 390.5,1415C 404.5,1401.67 418.5,1388.33 432.5,1375C 503.5,1302 574.5,1229 645.5,1156C 659.909,1142.25 674.909,1129.25 690.5,1117C 714.995,1100.12 725.495,1106.62 722,1136.5C 718.899,1148.47 714.232,1159.8 708,1170.5C 698.827,1184.85 689.16,1198.85 679,1212.5C 640.403,1258.77 599.236,1302.94 555.5,1345C 509.333,1387.83 463.167,1430.67 417,1473.5C 418.672,1478.25 419.338,1483.25 419,1488.5C 415.774,1497.86 409.274,1501.7 399.5,1500C 390.282,1496.06 387.116,1489.23 390,1479.5C 395.069,1470.39 402.403,1468.05 412,1472.5C 446.738,1440.22 481.572,1408.05 516.5,1376C 560.697,1334.8 603.197,1291.97 644,1247.5C 662.78,1226.59 680.113,1204.59 696,1181.5C 705.749,1167 713.082,1151.33 718,1134.5C 719.081,1127.95 718.414,1121.61 716,1115.5C 714.756,1113.55 712.923,1112.55 710.5,1112.5C 706.21,1113.14 702.21,1114.64 698.5,1117C 678.99,1131.17 660.657,1146.83 643.5,1164C 588.272,1219.89 533.772,1276.39 480,1333.5C 436.276,1378.9 390.443,1421.73 342.5,1462C 323.311,1477.77 302.311,1490.77 279.5,1501C 270.732,1504.12 261.732,1505.12 252.5,1504C 239.84,1500.43 237.007,1492.93 244,1481.5C 260.263,1458.56 278.763,1437.39 299.5,1418C 377.235,1346.26 455.569,1275.26 534.5,1205C 565.943,1175.56 596.776,1145.39 627,1114.5C 642.439,1098.26 656.439,1080.93 669,1062.5C 673.136,1055.89 676.469,1048.89 679,1041.5C 680.897,1033.51 678.064,1028.01 670.5,1025C 665.761,1024.27 661.095,1024.61 656.5,1026C 641.02,1033.24 626.687,1042.24 613.5,1053C 580.031,1082.8 548.198,1114.3 518,1147.5C 456.37,1216.8 394.37,1285.8 332,1354.5C 309.708,1378.13 286.208,1400.3 261.5,1421C 248.815,1431.85 234.482,1439.85 218.5,1445C 204.807,1447.41 196.307,1441.91 193,1428.5C 191.332,1416.84 193.332,1405.84 199,1395.5C 208.72,1377.45 220.387,1360.78 234,1345.5C 268.532,1306.63 305.366,1270.13 344.5,1236C 422.329,1168.16 501.329,1101.83 581.5,1037C 614.751,1009.92 646.585,981.087 677,950.5C 681.389,945.111 685.389,939.444 689,933.5C 689.76,928.926 687.76,926.926 683,927.5C 661.829,930.67 642.329,938.17 624.5,950C 589.511,973.64 556.844,1000.31 526.5,1030C 472.446,1084.05 418.446,1138.05 364.5,1192C 339.512,1216 312.512,1237.33 283.5,1256C 271.836,1262.83 259.503,1268 246.5,1271.5C 245.914,1271.29 245.414,1270.96 245,1270.5C 240.388,1279.23 233.221,1284.73 223.5,1287C 210.228,1289.83 196.894,1290.16 183.5,1288C 160.649,1279.14 151.815,1262.64 157,1238.5C 169.753,1213.47 188.92,1206.97 214.5,1219C 227.819,1227.32 237.986,1238.48 245,1252.5C 246.225,1257.09 246.725,1261.75 246.5,1266.5C 260.905,1263.13 274.239,1257.3 286.5,1249C 306.022,1235.82 324.688,1221.48 342.5,1206C 358.135,1192.03 373.468,1177.7 388.5,1163C 434.139,1116.36 480.139,1070.03 526.5,1024C 556.181,994.97 588.181,968.97 622.5,946C 639.329,935.411 657.329,927.911 676.5,923.5 Z"/></g>
<g><path style="opacity:1" fill="#124978" d="M 205.5,972.5 C 235.511,970.84 262.844,978.506 287.5,995.5C 292.62,987.893 299.62,982.726 308.5,980C 323.184,975.414 337.851,975.414 352.5,980C 372.352,988.869 380.186,1004.04 376,1025.5C 368.31,1046.77 353.144,1055.94 330.5,1053C 311.289,1045.79 297.122,1032.96 288,1014.5C 286.915,1009.56 286.248,1004.56 286,999.5C 229.771,963.823 178.771,970.156 133,1018.5C 93.2068,1069.95 88.8735,1124.29 120,1181.5C 126.527,1192.18 134.693,1201.52 144.5,1209.5C 150.833,1204.83 157.167,1200.17 163.5,1195.5C 164.415,1196.33 165.081,1197.33 165.5,1198.5C 153.426,1208.9 140.76,1218.57 127.5,1227.5C 126.354,1226.86 125.354,1226.02 124.5,1225C 129.977,1221.02 135.31,1216.86 140.5,1212.5C 100.093,1172.55 86.9261,1124.89 101,1069.5C 112.794,1031.05 136.294,1002.21 171.5,983C 182.679,978.546 194.012,975.046 205.5,972.5 Z"/></g>
<g><path style="opacity:1" fill="#fbfcfe" d="M 394.5,981.5 C 404.345,981.84 408.511,986.84 407,996.5C 403.96,1002.6 399.126,1004.77 392.5,1003C 386.891,999.723 385.058,994.89 387,988.5C 388.767,985.228 391.267,982.895 394.5,981.5 Z"/></g>
<g><path style="opacity:1" fill="#68a8da" d="M 746.5,985.5 C 770.211,984.708 786.378,995.375 795,1017.5C 800.437,1029.39 801.771,1041.73 799,1054.5C 797.953,1056.76 796.787,1058.93 795.5,1061C 807.855,1088.75 815.189,1117.75 817.5,1148C 817.844,1163.12 814.344,1177.29 807,1190.5C 793.769,1209.73 779.769,1228.4 765,1246.5C 745.433,1274.17 731.433,1304.51 723,1337.5C 711.62,1383.79 706.12,1430.79 706.5,1478.5C 708.106,1556.01 716.939,1632.68 733,1708.5C 741.357,1706.17 747.691,1708.84 752,1716.5C 753.86,1734.97 746.027,1741.14 728.5,1735C 720.638,1726.52 720.638,1718.02 728.5,1709.5C 709.896,1621.8 701.396,1533.13 703,1443.5C 704.726,1392.14 714.726,1342.47 733,1294.5C 738.219,1282.39 744.219,1270.73 751,1259.5C 767.268,1235.97 784.268,1212.97 802,1190.5C 811.363,1174.38 815.03,1157.05 813,1138.5C 809.551,1112.69 802.384,1088.03 791.5,1064.5C 766.252,1072.31 744.086,1066.98 725,1048.5C 715.32,1034.62 713.987,1019.95 721,1004.5C 727.099,994.895 735.599,988.562 746.5,985.5 Z"/></g>
<g><path style="opacity:1" fill="#124978" d="M 1187.5,1010.5 C 1200.89,1010.53 1212.55,1015.03 1222.5,1024C 1239.55,1040.71 1254.72,1058.87 1268,1078.5C 1290.01,1113.19 1313.01,1147.19 1337,1180.5C 1348.25,1196.42 1362.09,1209.59 1378.5,1220C 1393.73,1225.81 1405.89,1221.98 1415,1208.5C 1424.72,1192.69 1431.72,1175.69 1436,1157.5C 1442.2,1125.89 1452.2,1095.55 1466,1066.5C 1472.5,1054.67 1481.67,1045.5 1493.5,1039C 1505.06,1035.46 1516.4,1036.13 1527.5,1041C 1538.02,1046.09 1547.69,1052.42 1556.5,1060C 1572.47,1074.68 1586.81,1090.68 1599.5,1108C 1614.48,1107.08 1627.81,1111.41 1639.5,1121C 1656.02,1134.18 1667.85,1150.68 1675,1170.5C 1680.23,1199.2 1670.07,1220.36 1644.5,1234C 1612.89,1244.69 1589.05,1235.52 1573,1206.5C 1564.7,1180.01 1566.03,1154.01 1577,1128.5C 1581.31,1120.36 1587.47,1114.03 1595.5,1109.5C 1577.94,1085.44 1556.94,1064.94 1532.5,1048C 1511.83,1035.6 1493.66,1038.43 1478,1056.5C 1469.62,1068.23 1462.95,1080.89 1458,1094.5C 1451.7,1114.98 1446.04,1135.65 1441,1156.5C 1437.13,1170.11 1432.46,1183.45 1427,1196.5C 1411.11,1231.25 1388.61,1236.42 1359.5,1212C 1345.87,1198.05 1333.37,1183.21 1322,1167.5C 1298.16,1131.15 1273.83,1095.15 1249,1059.5C 1237.83,1044.33 1224.67,1031.17 1209.5,1020C 1195.49,1012.43 1182.99,1014.27 1172,1025.5C 1165.03,1035.09 1159.37,1045.43 1155,1056.5C 1149.26,1071.78 1145.26,1087.45 1143,1103.5C 1149,1099.5 1155,1095.5 1161,1091.5C 1162.68,1092.47 1163.34,1093.8 1163,1095.5C 1149.92,1104.29 1136.75,1112.96 1123.5,1121.5C 1121.72,1120.65 1121.22,1119.32 1122,1117.5C 1127,1114.17 1132,1110.83 1137,1107.5C 1141.5,1081.68 1149.5,1057.02 1161,1033.5C 1166.98,1022.35 1175.81,1014.68 1187.5,1010.5 Z"/></g>
<g><path style="opacity:1" fill="#66a7da" d="M 1169.5,1112.5 C 1197.76,1109.04 1218.59,1119.71 1232,1144.5C 1241.37,1162.72 1245.37,1182.06 1244,1202.5C 1242.35,1210.45 1239.35,1217.79 1235,1224.5C 1235.01,1259.23 1240.01,1293.23 1250,1326.5C 1278.44,1413.97 1336.6,1444.14 1424.5,1417C 1489.28,1391.03 1540.78,1348.86 1579,1290.5C 1582.42,1284.66 1585.59,1278.66 1588.5,1272.5C 1576.4,1265.09 1574.74,1255.92 1583.5,1245C 1594.24,1239.22 1602.4,1241.72 1608,1252.5C 1609.31,1263.87 1604.31,1270.87 1593,1273.5C 1571.71,1314.53 1542.54,1349.03 1505.5,1377C 1471.9,1403.8 1433.9,1421.46 1391.5,1430C 1331.77,1438.06 1287.94,1415.56 1260,1362.5C 1247.84,1336.35 1239.51,1309.02 1235,1280.5C 1232.71,1263.86 1230.88,1247.19 1229.5,1230.5C 1229.17,1230.17 1228.83,1229.83 1228.5,1229.5C 1217.59,1234.59 1206.26,1235.76 1194.5,1233C 1171.54,1227.11 1152.38,1215.28 1137,1197.5C 1125.61,1178.71 1124.61,1159.37 1134,1139.5C 1142.25,1125.74 1154.09,1116.74 1169.5,1112.5 Z"/></g>
<g><path style="opacity:1" fill="#66a7da" d="M 1629.5,1241.5 C 1647.01,1239.51 1654.51,1247.17 1652,1264.5C 1649.5,1270.33 1645.17,1273.99 1639,1275.5C 1637.97,1282.3 1636.3,1288.97 1634,1295.5C 1626.51,1311.82 1617.51,1327.15 1607,1341.5C 1566.56,1394.77 1517.39,1437.94 1459.5,1471C 1429.07,1487.59 1396.74,1498.59 1362.5,1504C 1316.6,1510.36 1273.94,1501.69 1234.5,1478C 1221.6,1466.11 1211.43,1452.28 1204,1436.5C 1193.21,1412.13 1183.21,1387.46 1174,1362.5C 1172.04,1358.21 1169.37,1354.54 1166,1351.5C 1164.39,1352.1 1163.06,1353.1 1162,1354.5C 1153.44,1374.27 1147.28,1394.77 1143.5,1416C 1143.83,1417.17 1144.17,1418.33 1144.5,1419.5C 1152.42,1423.25 1158.59,1428.92 1163,1436.5C 1178.04,1463.89 1180.37,1492.22 1170,1521.5C 1153.65,1545.28 1131.48,1553.45 1103.5,1546C 1076.78,1533.75 1065.28,1512.92 1069,1483.5C 1077,1454.67 1094.16,1433.17 1120.5,1419C 1125.09,1417.52 1129.76,1416.35 1134.5,1415.5C 1138.38,1398.64 1142.88,1381.98 1148,1365.5C 1159.25,1335.18 1171.25,1334.85 1184,1364.5C 1192.95,1390.07 1203.29,1415.07 1215,1439.5C 1222.25,1454.42 1232.75,1466.59 1246.5,1476C 1289.86,1497.62 1335.19,1502.95 1382.5,1492C 1418.74,1482.71 1452.41,1467.71 1483.5,1447C 1531.5,1415 1572.33,1375.5 1606,1328.5C 1617.51,1312.98 1625.67,1295.81 1630.5,1277C 1630.41,1275.89 1630.08,1274.89 1629.5,1274C 1627.1,1273.27 1624.93,1272.1 1623,1270.5C 1615.58,1258.6 1617.75,1248.94 1629.5,1241.5 Z"/></g>
<g><path style="opacity:1" fill="#fcfdfe" d="M 131.5,1243.5 C 143.635,1243.46 146.635,1248.62 140.5,1259C 130.145,1262.98 125.645,1259.48 127,1248.5C 128.025,1246.31 129.525,1244.65 131.5,1243.5 Z"/></g>
<g><path style="opacity:1" fill="#fcfdfe" d="M 1588.5,1246.5 C 1600.01,1245.18 1604.84,1250.18 1603,1261.5C 1599.72,1267.11 1594.89,1268.94 1588.5,1267C 1583.15,1263.63 1581.32,1258.8 1583,1252.5C 1584.36,1249.98 1586.19,1247.98 1588.5,1246.5 Z"/></g>
<g><path style="opacity:1" fill="#fcfdfe" d="M 1632.5,1249.5 C 1639.57,1248.32 1643.57,1251.15 1644.5,1258C 1644.26,1263.74 1641.26,1266.57 1635.5,1266.5C 1628.77,1265.41 1626.27,1261.41 1628,1254.5C 1629.02,1252.31 1630.52,1250.65 1632.5,1249.5 Z"/></g>
<g><path style="opacity:1" fill="#114977" d="M 147.5,1269.5 C 158.206,1281.89 168.206,1294.89 177.5,1308.5C 175.641,1310.91 173.308,1312.08 170.5,1312C 165.637,1305.48 160.47,1299.31 155,1293.5C 142.237,1303.02 134.57,1315.68 132,1331.5C 129.496,1353.33 131.829,1374.66 139,1395.5C 156.62,1448.08 186.453,1492.25 228.5,1528C 240.612,1537.39 253.945,1544.73 268.5,1550C 278.682,1553.38 289.016,1554.05 299.5,1552C 302.422,1551.58 305.089,1550.58 307.5,1549C 302.76,1540.12 302.26,1530.96 306,1521.5C 313.384,1504.12 325.551,1491.28 342.5,1483C 367.894,1478.11 384.394,1487.94 392,1512.5C 393.725,1533.57 384.892,1548.07 365.5,1556C 348.709,1562.1 332.042,1561.93 315.5,1555.5C 299.501,1562.46 283.168,1563.3 266.5,1558C 250.031,1552.17 235.031,1543.84 221.5,1533C 172.422,1490.72 140.255,1437.88 125,1374.5C 121.867,1357.8 121.867,1341.13 125,1324.5C 128.881,1308.56 137.381,1295.73 150.5,1286C 147.432,1282.6 144.765,1278.94 142.5,1275C 143.742,1272.73 145.408,1270.89 147.5,1269.5 Z"/></g>
<g><path style="opacity:1" fill="#6aa9db" d="M 616.5,1316.5 C 644.167,1313.84 660.167,1326.18 664.5,1353.5C 663.911,1365.01 659.744,1375.01 652,1383.5C 639.351,1397.91 623.518,1405.41 604.5,1406C 554.353,1435.52 511.853,1473.68 477,1520.5C 462.689,1539.46 452.355,1560.46 446,1583.5C 443.206,1596.19 444.206,1608.53 449,1620.5C 452.105,1625.44 456.272,1629.11 461.5,1631.5C 463.266,1630.91 464.933,1630.08 466.5,1629C 471.78,1623.05 476.28,1616.55 480,1609.5C 493.273,1582.62 506.273,1555.62 519,1528.5C 524.058,1518.88 530.225,1510.05 537.5,1502C 548.166,1497.8 553.166,1501.63 552.5,1513.5C 552.275,1520.24 551.442,1526.91 550,1533.5C 539.412,1569.93 528.412,1606.27 517,1642.5C 513.796,1654.73 511.129,1667.06 509,1679.5C 508.333,1685.17 508.333,1690.83 509,1696.5C 511.082,1706.8 517.249,1710.3 527.5,1707C 532.888,1704.94 537.054,1701.44 540,1696.5C 546.642,1684.21 551.309,1671.21 554,1657.5C 560.975,1617.7 566.642,1577.7 571,1537.5C 574.02,1517.11 578.686,1497.11 585,1477.5C 587.909,1470.68 591.576,1464.34 596,1458.5C 601.194,1452.48 607.694,1449.65 615.5,1450C 618.869,1452.36 621.036,1455.53 622,1459.5C 623.685,1473.81 623.685,1488.15 622,1502.5C 615.397,1548.72 609.73,1595.06 605,1641.5C 604.333,1653.17 604.333,1664.83 605,1676.5C 605.339,1686.86 608.006,1696.53 613,1705.5C 619.918,1713.37 626.585,1713.37 633,1705.5C 634.618,1701.93 635.951,1698.27 637,1694.5C 638.744,1683.55 640.077,1672.55 641,1661.5C 641.631,1608.15 640.797,1554.81 638.5,1501.5C 638.598,1487.15 639.098,1472.82 640,1458.5C 640.463,1449.31 642.797,1440.64 647,1432.5C 652.857,1425.92 658.524,1426.25 664,1433.5C 667.118,1438.86 669.451,1444.52 671,1450.5C 674.222,1463.72 676.889,1477.06 679,1490.5C 686.573,1562.47 693.907,1634.47 701,1706.5C 703.56,1733.77 708.893,1760.44 717,1786.5C 718.958,1791.59 721.792,1796.09 725.5,1800C 727.5,1800.67 729.5,1800.67 731.5,1800C 738.137,1794.92 742.97,1788.42 746,1780.5C 744.681,1774.64 744.347,1768.64 745,1762.5C 752.277,1752.22 760.944,1750.89 771,1758.5C 777.152,1768.99 774.986,1777.16 764.5,1783C 759.958,1783.75 755.458,1783.58 751,1782.5C 748.011,1787.14 745.011,1791.8 742,1796.5C 734.542,1806.19 726.542,1806.85 718,1798.5C 712.135,1786.38 707.801,1773.71 705,1760.5C 701.106,1737.91 697.773,1715.24 695,1692.5C 688.84,1624.07 681.84,1555.73 674,1487.5C 672.443,1474.27 669.776,1461.27 666,1448.5C 664.503,1442 661.337,1436.5 656.5,1432C 652.248,1432.57 649.414,1435.07 648,1439.5C 646.41,1446.79 645.076,1454.12 644,1461.5C 644.301,1529.83 644.634,1598.17 645,1666.5C 644.105,1676.56 642.771,1686.56 641,1696.5C 639.26,1703.15 636.093,1708.98 631.5,1714C 622.349,1717.56 614.849,1715.39 609,1707.5C 604.166,1698.84 601.5,1689.5 601,1679.5C 600.333,1664.5 600.333,1649.5 601,1634.5C 606.814,1585.13 612.814,1535.8 619,1486.5C 619.847,1477.58 619.347,1468.75 617.5,1460C 616.024,1454.86 612.69,1453.2 607.5,1455C 600.963,1459.54 595.796,1465.38 592,1472.5C 585.318,1488.22 580.651,1504.56 578,1521.5C 572.162,1564.87 566.162,1608.2 560,1651.5C 556.86,1667.92 551.526,1683.59 544,1698.5C 536.134,1711.03 525.301,1714.86 511.5,1710C 507.913,1707 505.746,1703.16 505,1698.5C 504.187,1678.71 506.854,1659.37 513,1640.5C 523.869,1605.56 534.536,1570.56 545,1535.5C 547.792,1526.01 548.792,1516.34 548,1506.5C 546.192,1504.6 544.025,1504.1 541.5,1505C 537.669,1508.47 534.169,1512.3 531,1516.5C 523.824,1528.85 517.157,1541.52 511,1554.5C 500.915,1578.67 489.248,1602 476,1624.5C 466.856,1638.77 457.19,1639.1 447,1625.5C 439.06,1610.1 437.727,1594.1 443,1577.5C 452.622,1549.91 466.622,1524.91 485,1502.5C 517.571,1463.08 555.738,1430.41 599.5,1404.5C 600.833,1403.83 600.833,1403.17 599.5,1402.5C 551.477,1417.34 508.144,1440.84 469.5,1473C 403.483,1533.98 395.65,1601.81 446,1676.5C 476.55,1717.38 515.883,1746.38 564,1763.5C 567.446,1759.73 571.279,1756.23 575.5,1753C 589.069,1749.93 597.069,1755.1 599.5,1768.5C 598.663,1779 592.996,1785 582.5,1786.5C 574.021,1785.52 568.355,1781.02 565.5,1773C 508.007,1753.49 462.84,1718.32 430,1667.5C 388.919,1593.06 399.419,1526.89 461.5,1469C 481.922,1450.95 504.255,1435.62 528.5,1423C 548.932,1412.53 569.765,1403.03 591,1394.5C 589.903,1389.53 588.57,1384.53 587,1379.5C 583.908,1361.94 586.908,1345.61 596,1330.5C 601.662,1323.99 608.496,1319.32 616.5,1316.5 Z"/></g>
<g><path style="opacity:1" fill="#fcfdfe" d="M 400.5,1474.5 C 411.2,1474.03 415.7,1479.03 414,1489.5C 407.333,1498.83 400.667,1498.83 394,1489.5C 392.366,1482.78 394.532,1477.78 400.5,1474.5 Z"/></g>
<g><path style="opacity:1" fill="#fbfcfe" d="M 1063.5,1539.5 C 1076.35,1540.52 1079.85,1546.86 1074,1558.5C 1068.63,1562.4 1063.3,1562.4 1058,1558.5C 1053.3,1550.09 1055.14,1543.75 1063.5,1539.5 Z"/></g>
<g><path style="opacity:1" fill="#fcfdfe" d="M 733.5,1712.5 C 747.699,1712.07 751.699,1718.23 745.5,1731C 738.432,1735.23 732.599,1734.06 728,1727.5C 726.087,1720.97 727.92,1715.97 733.5,1712.5 Z"/></g>
<g><path style="opacity:1" fill="#64a6da" d="M 639.5,1743.5 C 660.897,1743.62 679.064,1751.28 694,1766.5C 704.933,1780.43 703.767,1793.27 690.5,1805C 671.913,1818.71 651.58,1822.37 629.5,1816C 608.156,1801.46 603.323,1782.62 615,1759.5C 621.523,1751.45 629.69,1746.11 639.5,1743.5 Z"/></g>
<g><path style="opacity:1" fill="#fcfdfe" d="M 754.5,1758.5 C 765.49,1756.99 770.324,1761.66 769,1772.5C 766.315,1779.06 761.481,1781.22 754.5,1779C 749.15,1775.63 747.317,1770.8 749,1764.5C 750.36,1761.98 752.193,1759.98 754.5,1758.5 Z"/></g>
<g><path style="opacity:1" fill="#fbfcfe" d="M 578.5,1760.5 C 587.005,1759.51 591.171,1763.18 591,1771.5C 588.549,1777.09 584.383,1778.92 578.5,1777C 571.881,1771.47 571.881,1765.97 578.5,1760.5 Z"/></g>
</svg>
