<?xml version="1.0" encoding="UTF-8"?>
<!DOCTYPE svg PUBLIC "-//W3C//DTD SVG 1.1//EN" "http://www.w3.org/Graphics/SVG/1.1/DTD/svg11.dtd">
<svg xmlns="http://www.w3.org/2000/svg" version="1.1" width="200px" height="200px" style="shape-rendering:geometricPrecision; text-rendering:geometricPrecision; image-rendering:optimizeQuality; fill-rule:evenodd; clip-rule:evenodd" xmlns:xlink="http://www.w3.org/1999/xlink">
<g><path style="opacity:1" fill="#fefefe" d="M -0.5,-0.5 C 66.1667,-0.5 132.833,-0.5 199.5,-0.5C 199.5,66.1667 199.5,132.833 199.5,199.5C 132.833,199.5 66.1667,199.5 -0.5,199.5C -0.5,132.833 -0.5,66.1667 -0.5,-0.5 Z"/></g>
<g><path style="opacity:1" fill="#63a6cd" d="M 125.5,53.5 C 125.5,53.8333 125.5,54.1667 125.5,54.5C 120.677,60.1466 116.343,66.1466 112.5,72.5C 116.757,48.692 108.757,30.3587 88.5,17.5C 93.6013,15.0746 98.9346,14.2412 104.5,15C 116.069,25.3014 123.069,38.1348 125.5,53.5 Z"/></g>
<g><path style="opacity:1" fill="#867ca3" d="M 123.5,77.5 C 125.138,69.9353 125.805,62.2686 125.5,54.5C 125.5,54.1667 125.5,53.8333 125.5,53.5C 134.798,43.8429 145.798,36.6762 158.5,32C 160.5,31.3333 162.5,31.3333 164.5,32C 167.312,34.9015 170.312,37.5681 173.5,40C 150.671,44.5523 134.004,57.0523 123.5,77.5 Z"/></g>
<g><path style="opacity:1" fill="#335184" d="M 125.5,54.5 C 125.805,62.2686 125.138,69.9353 123.5,77.5C 122.165,81.1715 120.832,84.8382 119.5,88.5C 115.973,95.0352 111.64,101.035 106.5,106.5C 106.167,106.5 105.833,106.5 105.5,106.5C 105.632,99.0403 106.632,91.707 108.5,84.5C 110.031,80.5738 111.364,76.5738 112.5,72.5C 116.343,66.1466 120.677,60.1466 125.5,54.5 Z"/></g>
<g><path style="opacity:1" fill="#61a5cb" d="M 108.5,84.5 C 106.632,91.707 105.632,99.0403 105.5,106.5C 103.445,108.555 101.112,110.221 98.5,111.5C 91.257,109.968 83.9237,109.302 76.5,109.5C 90.5041,105.491 101.171,97.158 108.5,84.5 Z"/></g>
<g><path style="opacity:1" fill="#847ba2" d="M 119.5,88.5 C 116.623,102.339 117.289,116.006 121.5,129.5C 117.417,124.082 112.417,119.749 106.5,116.5C 106.5,116.167 106.5,115.833 106.5,115.5C 106.5,112.5 106.5,109.5 106.5,106.5C 111.64,101.035 115.973,95.0352 119.5,88.5 Z"/></g>
<g><path style="opacity:1" fill="#62a6cd" d="M 68.5,110.5 C 62.2446,113.296 56.2446,116.629 50.5,120.5C 41.7052,118.848 33.8719,115.181 27,109.5C 26.3333,104.167 26.3333,98.8333 27,93.5C 38.0455,105.938 51.8789,111.605 68.5,110.5 Z"/></g>
<g><path style="opacity:1" fill="#eceef0" d="M 105.5,106.5 C 105.833,106.5 106.167,106.5 106.5,106.5C 106.5,109.5 106.5,112.5 106.5,115.5C 103.833,114.5 101.167,113.5 98.5,112.5C 98.5,112.167 98.5,111.833 98.5,111.5C 101.112,110.221 103.445,108.555 105.5,106.5 Z"/></g>
<g><path style="opacity:1" fill="#2c6934" d="M 76.5,109.5 C 83.9237,109.302 91.257,109.968 98.5,111.5C 98.5,111.833 98.5,112.167 98.5,112.5C 92.9157,115.46 87.2491,118.127 81.5,120.5C 77.4432,120.848 73.4432,121.514 69.5,122.5C 63.143,122.524 56.8097,122.19 50.5,121.5C 50.5,121.167 50.5,120.833 50.5,120.5C 56.2446,116.629 62.2446,113.296 68.5,110.5C 71.2062,110.425 73.8728,110.092 76.5,109.5 Z"/></g>
<g><path style="opacity:1" fill="#759f43" d="M 98.5,112.5 C 101.167,113.5 103.833,114.5 106.5,115.5C 106.5,115.833 106.5,116.167 106.5,116.5C 107.698,122.958 109.364,129.291 111.5,135.5C 103.671,126.252 93.6705,121.252 81.5,120.5C 87.2491,118.127 92.9157,115.46 98.5,112.5 Z"/></g>
<g><path style="opacity:1" fill="#3d4e2b" d="M 106.5,116.5 C 112.417,119.749 117.417,124.082 121.5,129.5C 123.5,133.5 125.5,137.5 127.5,141.5C 129.133,148.051 129.799,154.717 129.5,161.5C 124.793,156.795 120.46,151.795 116.5,146.5C 115.105,142.71 113.438,139.043 111.5,135.5C 109.364,129.291 107.698,122.958 106.5,116.5 Z"/></g>
<g><path style="opacity:1" fill="#76a143" d="M 50.5,121.5 C 56.8097,122.19 63.143,122.524 69.5,122.5C 56.2593,128.593 48.426,138.926 46,153.5C 42.1572,149.811 39.3239,145.478 37.5,140.5C 39.904,132.777 44.2373,126.444 50.5,121.5 Z"/></g>
<g><path style="opacity:1" fill="#867ca3" d="M 127.5,141.5 C 135.898,153.726 146.898,162.893 160.5,169C 157.056,171.807 153.223,173.973 149,175.5C 141.886,172.031 135.386,167.697 129.5,162.5C 129.5,162.167 129.5,161.833 129.5,161.5C 129.799,154.717 129.133,148.051 127.5,141.5 Z"/></g>
<g><path style="opacity:1" fill="#76a144" d="M 116.5,146.5 C 120.46,151.795 124.793,156.795 129.5,161.5C 129.5,161.833 129.5,162.167 129.5,162.5C 128.151,170.386 125.151,177.553 120.5,184C 115.5,184.667 110.5,184.667 105.5,184C 116.272,173.676 119.938,161.176 116.5,146.5 Z"/></g>
</svg>
