<?xml version="1.0" encoding="UTF-8"?>
<!DOCTYPE svg PUBLIC "-//W3C//DTD SVG 1.1//EN" "http://www.w3.org/Graphics/SVG/1.1/DTD/svg11.dtd">
<svg xmlns="http://www.w3.org/2000/svg" version="1.1" width="638px" height="280px" style="shape-rendering:geometricPrecision; text-rendering:geometricPrecision; image-rendering:optimizeQuality; fill-rule:evenodd; clip-rule:evenodd" xmlns:xlink="http://www.w3.org/1999/xlink">
<g><path style="opacity:1" fill="#f3f3f3" d="M -0.5,-0.5 C 212.167,-0.5 424.833,-0.5 637.5,-0.5C 637.5,92.8333 637.5,186.167 637.5,279.5C 424.833,279.5 212.167,279.5 -0.5,279.5C -0.5,186.167 -0.5,92.8333 -0.5,-0.5 Z"/></g>
<g><path style="opacity:1" fill="#61a3cb" d="M 154.5,72.5 C 154.5,72.8333 154.5,73.1667 154.5,73.5C 147.643,81.0238 141.976,89.3571 137.5,98.5C 141.994,65.5245 130.327,40.0245 102.5,22C 108.908,20.1183 115.408,18.6183 122,17.5C 126.806,19.2905 130.806,22.2905 134,26.5C 144.892,39.9566 151.725,55.2899 154.5,72.5 Z"/></g>
<g><path style="opacity:1" fill="#857ba2" d="M 153.5,103.5 C 154.536,93.4391 154.869,83.4391 154.5,73.5C 154.5,73.1667 154.5,72.8333 154.5,72.5C 163.004,65.4999 171.671,58.6665 180.5,52C 188.64,47.1144 197.307,43.281 206.5,40.5C 211.98,44.8122 217.313,49.3122 222.5,54C 191.673,59.7334 168.673,76.2334 153.5,103.5 Z"/></g>
<g><path style="opacity:1" fill="#d0d2d4" d="M 592.5,88.5 C 597.64,87.5119 602.974,87.1786 608.5,87.5C 608.831,116.671 608.498,145.671 607.5,174.5C 607.5,145.833 607.5,117.167 607.5,88.5C 602.5,88.5 597.5,88.5 592.5,88.5 Z"/></g>
<g><path style="opacity:1" fill="#132c48" d="M 402.5,160.5 C 402.5,160.833 402.5,161.167 402.5,161.5C 401.325,161.719 400.325,161.386 399.5,160.5C 400.182,138.023 400.849,115.523 401.5,93C 401.245,91.6739 400.578,90.6739 399.5,90C 396.167,89.3333 392.833,89.3333 389.5,90C 388.34,113.761 388.173,137.594 389,161.5C 389.638,162.609 390.138,163.775 390.5,165C 388.889,167.21 388.222,169.71 388.5,172.5C 394.721,171.213 400.887,171.546 407,173.5C 417.559,172.922 427.725,171.922 437.5,170.5C 437.756,168.208 437.423,166.041 436.5,164C 425.657,163.082 414.657,162.249 403.5,161.5C 415.167,161.5 426.833,161.5 438.5,161.5C 438.5,165.833 438.5,170.167 438.5,174.5C 421.5,174.5 404.5,174.5 387.5,174.5C 387.5,145.833 387.5,117.167 387.5,88.5C 392.5,88.5 397.5,88.5 402.5,88.5C 402.5,112.5 402.5,136.5 402.5,160.5 Z"/></g>
<g><path style="opacity:1" fill="#0a2e58" d="M 559.5,127.5 C 558.248,125.999 557.248,124.332 556.5,122.5C 556.331,118.913 554.831,115.579 552,112.5C 550.783,106.899 550.283,101.232 550.5,95.5C 548.5,95.5 546.5,95.5 544.5,95.5C 544.198,117.476 544.198,139.643 544.5,162C 544.333,162.833 544.167,163.667 544,164.5C 540.952,160.99 537.619,160.657 534,163.5C 532.812,162.437 532.312,161.103 532.5,159.5C 535.5,159.5 538.5,159.5 541.5,159.5C 541.167,138.156 541.5,116.823 542.5,95.5C 545.328,93.3674 548.494,92.034 552,91.5C 552.615,93.1161 553.615,94.4495 555,95.5C 555.809,101.744 557.309,107.744 559.5,113.5C 558.789,116.151 559.456,118.651 561.5,121C 560.393,122.44 560.393,123.94 561.5,125.5C 561.253,126.713 560.586,127.38 559.5,127.5 Z"/></g>
<g><path style="opacity:1" fill="#466692" d="M 154.5,73.5 C 154.869,83.4391 154.536,93.4391 153.5,103.5C 150.235,111.296 147.568,119.296 145.5,127.5C 144.178,127.33 143.011,127.663 142,128.5C 138.863,133.63 135.363,138.464 131.5,143C 130.207,143.49 128.873,143.657 127.5,143.5C 127.693,134.401 128.693,125.401 130.5,116.5C 132.853,110.429 135.186,104.429 137.5,98.5C 141.976,89.3571 147.643,81.0238 154.5,73.5 Z"/></g>
<g><path style="opacity:1" fill="#97a4b0" d="M 511.5,88.5 C 512.486,92.97 512.819,97.6367 512.5,102.5C 501.5,102.5 490.5,102.5 479.5,102.5C 476.5,102.5 473.5,102.5 470.5,102.5C 483.99,101.504 497.656,101.171 511.5,101.5C 511.5,97.8333 511.5,94.1667 511.5,90.5C 511.5,89.8333 511.5,89.1667 511.5,88.5 Z"/></g>
<g><path style="opacity:1" fill="#e5eff9" d="M 470.5,102.5 C 473.5,102.5 476.5,102.5 479.5,102.5C 479.631,103.376 479.298,104.043 478.5,104.5C 476.629,103.233 474.796,103.233 473,104.5C 472.501,110.491 472.334,116.491 472.5,122.5C 481.506,122.666 490.506,122.5 499.5,122C 501,121.5 502.5,121 504,120.5C 506.433,121.479 508.933,122.145 511.5,122.5C 511.398,127.878 511.398,133.045 511.5,138C 510.069,138.465 508.903,139.299 508,140.5C 507.517,139.552 507.351,138.552 507.5,137.5C 496.46,137.936 485.46,138.603 474.5,139.5C 473.719,140.729 473.219,142.062 473,143.5C 472.501,148.823 472.334,154.156 472.5,159.5C 486.833,159.5 501.167,159.5 515.5,159.5C 515.737,160.791 515.404,161.791 514.5,162.5C 500.205,160.517 485.538,159.85 470.5,160.5C 470.5,152.5 470.5,144.5 470.5,136.5C 483.5,136.5 496.5,136.5 509.5,136.5C 509.5,132.167 509.5,127.833 509.5,123.5C 496.5,123.5 483.5,123.5 470.5,123.5C 470.5,116.5 470.5,109.5 470.5,102.5 Z"/></g>
<g><path style="opacity:1" fill="#6a7c90" d="M 548.5,109.5 C 547.833,131.167 547.167,152.833 546.5,174.5C 546.333,152.164 546.5,129.831 547,107.5C 547.717,108.044 548.217,108.711 548.5,109.5 Z"/></g>
<g><path style="opacity:1" fill="#60a2c9" d="M 130.5,116.5 C 128.693,125.401 127.693,134.401 127.5,143.5C 127.5,144.833 127.5,146.167 127.5,147.5C 123.81,149.871 120.477,152.538 117.5,155.5C 117.167,155.5 116.833,155.5 116.5,155.5C 111.872,153.186 106.872,151.853 101.5,151.5C 99.6287,150.203 97.6287,149.203 95.5,148.5C 101.534,144.956 107.534,141.123 113.5,137C 120.133,130.876 125.799,124.043 130.5,116.5 Z"/></g>
<g><path style="opacity:1" fill="#847aa4" d="M 145.5,127.5 C 143.771,136.728 143.105,146.061 143.5,155.5C 143.826,159.884 143.492,164.217 142.5,168.5C 139.496,165.343 136.163,162.676 132.5,160.5C 131.311,159.571 129.978,159.238 128.5,159.5C 128.167,159.5 127.833,159.5 127.5,159.5C 127.5,155.5 127.5,151.5 127.5,147.5C 127.5,146.167 127.5,144.833 127.5,143.5C 128.873,143.657 130.207,143.49 131.5,143C 135.363,138.464 138.863,133.63 142,128.5C 143.011,127.663 144.178,127.33 145.5,127.5 Z"/></g>
<g><path style="opacity:1" fill="#639c97" d="M 95.5,148.5 C 97.6287,149.203 99.6287,150.203 101.5,151.5C 95.5,151.5 89.5,151.5 83.5,151.5C 87.2976,150.132 91.2976,149.132 95.5,148.5 Z"/></g>
<g><path style="opacity:1" fill="#0c2f55" d="M 532.5,88.5 C 539.422,88.1878 546.256,88.5212 553,89.5C 563.927,107.696 575.094,125.696 586.5,143.5C 588.322,146.472 590.156,149.472 592,152.5C 592.5,131.169 592.667,109.836 592.5,88.5C 597.5,88.5 602.5,88.5 607.5,88.5C 607.5,117.167 607.5,145.833 607.5,174.5C 600.8,174.83 594.134,174.497 587.5,173.5C 578.155,158.139 568.822,142.805 559.5,127.5C 560.586,127.38 561.253,126.713 561.5,125.5C 560.393,123.94 560.393,122.44 561.5,121C 559.456,118.651 558.789,116.151 559.5,113.5C 557.309,107.744 555.809,101.744 555,95.5C 553.615,94.4495 552.615,93.1161 552,91.5C 548.494,92.034 545.328,93.3674 542.5,95.5C 541.5,116.823 541.167,138.156 541.5,159.5C 538.5,159.5 535.5,159.5 532.5,159.5C 532.5,135.833 532.5,112.167 532.5,88.5 Z"/></g>
<g><path style="opacity:1" fill="#c3d8ee" d="M 592.5,88.5 C 592.667,109.836 592.5,131.169 592,152.5C 590.156,149.472 588.322,146.472 586.5,143.5C 588.624,144.031 590.124,145.365 591,147.5C 591.168,127.662 591.668,107.996 592.5,88.5 Z"/></g>
<g><path style="opacity:1" fill="#eaf2f0" d="M 127.5,147.5 C 127.5,151.5 127.5,155.5 127.5,159.5C 125.579,158.637 123.579,157.971 121.5,157.5C 120.486,156.326 119.153,155.66 117.5,155.5C 120.477,152.538 123.81,149.871 127.5,147.5 Z"/></g>
<g><path style="opacity:1" fill="#5fa3cc" d="M 67.5,152.5 C 68.5981,153.397 68.5981,154.23 67.5,155C 61.8626,154.183 58.196,156.349 56.5,161.5C 53.4503,160.923 51.4503,162.09 50.5,165C 49.552,165.483 48.552,165.649 47.5,165.5C 47.5,164.5 47.5,163.5 47.5,162.5C 44.8333,162.833 42.1667,163.167 39.5,163.5C 35.0426,161.449 30.376,159.616 25.5,158C 22.4806,155.642 19.4806,153.309 16.5,151C 15.8875,147.372 15.5542,143.706 15.5,140C 15.3698,136.316 15.8698,132.816 17,129.5C 30.2268,144.756 47.0601,152.423 67.5,152.5 Z"/></g>
<g><path style="opacity:1" fill="#0d2f55" d="M 252.5,88.5 C 257.43,88.1975 262.263,88.5308 267,89.5C 279.365,117.601 291.532,145.768 303.5,174C 297.509,174.499 291.509,174.666 285.5,174.5C 283.465,168.089 281.132,161.756 278.5,155.5C 265.833,154.167 253.167,154.167 240.5,155.5C 237.868,161.756 235.535,168.089 233.5,174.5C 227.833,174.5 222.167,174.5 216.5,174.5C 228.518,145.803 240.518,117.136 252.5,88.5 Z"/></g>
<g><path style="opacity:1" fill="#ecf0f3" d="M 258.5,107.5 C 260.284,108.574 261.451,110.24 262,112.5C 265.222,121.943 268.722,131.276 272.5,140.5C 263.859,141.498 255.192,141.831 246.5,141.5C 250.5,130.167 254.5,118.833 258.5,107.5 Z"/></g>
<g><path style="opacity:1" fill="#789c48" d="M 121.5,157.5 C 123.579,157.971 125.579,158.637 127.5,159.5C 127.833,159.5 128.167,159.5 128.5,159.5C 128.5,159.833 128.5,160.167 128.5,160.5C 128.629,162.216 128.962,163.883 129.5,165.5C 130.457,171.87 132.124,178.037 134.5,184C 133.944,184.383 133.611,184.883 133.5,185.5C 131.5,183.833 129.5,182.167 127.5,180.5C 127.5,180.167 127.5,179.833 127.5,179.5C 127.649,178.448 127.483,177.448 127,176.5C 123.768,173.13 119.934,170.63 115.5,169C 110.101,167.92 104.768,166.587 99.5,165C 103.298,163.217 107.298,162.384 111.5,162.5C 111.5,161.5 111.5,160.5 111.5,159.5C 114.658,158.124 117.991,157.458 121.5,157.5 Z"/></g>
<g><path style="opacity:1" fill="#778699" d="M 334.5,160.5 C 346.833,160.5 359.167,160.5 371.5,160.5C 371.819,165.363 371.486,170.03 370.5,174.5C 370.5,170.167 370.5,165.833 370.5,161.5C 358.322,161.828 346.322,161.495 334.5,160.5 Z"/></g>
<g><path style="opacity:1" fill="#788597" d="M 402.5,161.5 C 402.5,161.167 402.5,160.833 402.5,160.5C 414.833,160.5 427.167,160.5 439.5,160.5C 439.819,165.363 439.486,170.03 438.5,174.5C 438.5,170.167 438.5,165.833 438.5,161.5C 426.833,161.5 415.167,161.5 403.5,161.5C 403.167,161.5 402.833,161.5 402.5,161.5 Z"/></g>
<g><path style="opacity:1" fill="#347f45" d="M 83.5,151.5 C 89.5,151.5 95.5,151.5 101.5,151.5C 106.872,151.853 111.872,153.186 116.5,155.5C 107.523,160.487 98.1896,164.487 88.5,167.5C 86.0504,167.298 83.717,167.631 81.5,168.5C 70.8296,169.38 60.1629,169.047 49.5,167.5C 53.3209,163.375 57.9876,160.709 63.5,159.5C 63.5,158.5 63.5,157.5 63.5,156.5C 67.5404,156.109 71.2071,154.776 74.5,152.5C 77.5176,152.296 80.5176,151.963 83.5,151.5 Z"/></g>
<g><path style="opacity:1" fill="#092e56" d="M 402.5,161.5 C 402.833,161.5 403.167,161.5 403.5,161.5C 414.657,162.249 425.657,163.082 436.5,164C 437.423,166.041 437.756,168.208 437.5,170.5C 427.725,171.922 417.559,172.922 407,173.5C 400.887,171.546 394.721,171.213 388.5,172.5C 388.222,169.71 388.889,167.21 390.5,165C 390.138,163.775 389.638,162.609 389,161.5C 388.173,137.594 388.34,113.761 389.5,90C 392.833,89.3333 396.167,89.3333 399.5,90C 400.578,90.6739 401.245,91.6739 401.5,93C 400.849,115.523 400.182,138.023 399.5,160.5C 400.325,161.386 401.325,161.719 402.5,161.5 Z"/></g>
<g><path style="opacity:1" fill="#60a4b5" d="M 67.5,152.5 C 69.8333,152.5 72.1667,152.5 74.5,152.5C 71.2071,154.776 67.5404,156.109 63.5,156.5C 63.5,157.5 63.5,158.5 63.5,159.5C 57.9876,160.709 53.3209,163.375 49.5,167.5C 49.1583,168.338 48.4916,168.672 47.5,168.5C 45.146,166.475 42.4793,164.808 39.5,163.5C 42.1667,163.167 44.8333,162.833 47.5,162.5C 47.5,163.5 47.5,164.5 47.5,165.5C 48.552,165.649 49.552,165.483 50.5,165C 51.4503,162.09 53.4503,160.923 56.5,161.5C 58.196,156.349 61.8626,154.183 67.5,155C 68.5981,154.23 68.5981,153.397 67.5,152.5 Z"/></g>
<g><path style="opacity:1" fill="#7f9f62" d="M 116.5,155.5 C 116.833,155.5 117.167,155.5 117.5,155.5C 119.153,155.66 120.486,156.326 121.5,157.5C 117.991,157.458 114.658,158.124 111.5,159.5C 111.5,160.5 111.5,161.5 111.5,162.5C 107.298,162.384 103.298,163.217 99.5,165C 104.768,166.587 110.101,167.92 115.5,169C 119.934,170.63 123.768,173.13 127,176.5C 127.483,177.448 127.649,178.448 127.5,179.5C 116.078,170.695 103.078,166.695 88.5,167.5C 98.1896,164.487 107.523,160.487 116.5,155.5 Z"/></g>
<g><path style="opacity:1" fill="#0b2e54" d="M 334.5,160.5 C 346.322,161.495 358.322,161.828 370.5,161.5C 370.5,165.833 370.5,170.167 370.5,174.5C 353.5,174.5 336.5,174.5 319.5,174.5C 319.5,145.833 319.5,117.167 319.5,88.5C 324.5,88.5 329.5,88.5 334.5,88.5C 334.5,112.5 334.5,136.5 334.5,160.5 Z"/></g>
<g><path style="opacity:1" fill="#edf5e4" d="M 88.5,167.5 C 103.078,166.695 116.078,170.695 127.5,179.5C 127.5,179.833 127.5,180.167 127.5,180.5C 122.827,181.491 119.494,179.824 117.5,175.5C 115.664,174.081 113.664,172.914 111.5,172C 96.0068,168.018 81.0068,169.185 66.5,175.5C 71.1494,172.341 76.1494,170.008 81.5,168.5C 83.717,167.631 86.0504,167.298 88.5,167.5 Z"/></g>
<g><path style="opacity:1" fill="#092f56" d="M 511.5,90.5 C 511.5,94.1667 511.5,97.8333 511.5,101.5C 497.656,101.171 483.99,101.504 470.5,102.5C 469.729,105.846 469.062,109.346 468.5,113C 469.404,117.111 469.737,121.278 469.5,125.5C 481.498,124.328 493.498,124.328 505.5,125.5C 506.802,128.708 507.469,132.041 507.5,135.5C 494.001,134.196 480.835,134.196 468,135.5C 468.363,143.454 468.53,151.454 468.5,159.5C 466.712,159.215 465.045,159.548 463.5,160.5C 465.423,161.308 467.423,161.808 469.5,162C 483.512,162.167 497.512,162.667 511.5,163.5C 512.833,166.167 512.833,168.833 511.5,171.5C 494.222,172.444 477.055,172.777 460,172.5C 459.333,171.833 458.667,171.167 458,170.5C 457.373,144.009 457.373,117.676 458,91.5C 475.757,90.5077 493.59,90.1744 511.5,90.5 Z"/></g>
<g><path style="opacity:1" fill="#52614a" d="M 128.5,160.5 C 132.209,163.015 135.875,165.515 139.5,168C 141.192,169.307 142.525,170.807 143.5,172.5C 140.813,172.664 138.146,172.497 135.5,172C 134.341,169.009 132.341,166.842 129.5,165.5C 128.962,163.883 128.629,162.216 128.5,160.5 Z"/></g>
<g><path style="opacity:1" fill="#7f7c94" d="M 143.5,155.5 C 144.898,162.135 146.565,168.802 148.5,175.5C 147.833,175.5 147.167,175.5 146.5,175.5C 145.5,175.5 144.5,175.5 143.5,175.5C 143.5,174.5 143.5,173.5 143.5,172.5C 142.525,170.807 141.192,169.307 139.5,168C 135.875,165.515 132.209,163.015 128.5,160.5C 128.5,160.167 128.5,159.833 128.5,159.5C 129.978,159.238 131.311,159.571 132.5,160.5C 136.163,162.676 139.496,165.343 142.5,168.5C 143.492,164.217 143.826,159.884 143.5,155.5 Z"/></g>
<g><path style="opacity:1" fill="#1f395b" d="M 532.5,88.5 C 532.5,112.167 532.5,135.833 532.5,159.5C 532.312,161.103 532.812,162.437 534,163.5C 537.619,160.657 540.952,160.99 544,164.5C 544.167,163.667 544.333,162.833 544.5,162C 544.198,139.643 544.198,117.476 544.5,95.5C 546.5,95.5 548.5,95.5 550.5,95.5C 550.283,101.232 550.783,106.899 552,112.5C 554.831,115.579 556.331,118.913 556.5,122.5C 553.597,118.37 550.93,114.037 548.5,109.5C 548.217,108.711 547.717,108.044 547,107.5C 546.5,129.831 546.333,152.164 546.5,174.5C 541.5,174.5 536.5,174.5 531.5,174.5C 531.169,145.662 531.502,116.995 532.5,88.5 Z"/></g>
<g><path style="opacity:1" fill="#7b9c56" d="M 49.5,167.5 C 60.1629,169.047 70.8296,169.38 81.5,168.5C 76.1494,170.008 71.1494,172.341 66.5,175.5C 58.4426,180.893 52.1092,187.893 47.5,196.5C 47.7852,194.712 47.4519,193.045 46.5,191.5C 45.5713,192.689 45.238,194.022 45.5,195.5C 40.9315,195.917 39.4315,193.917 41,189.5C 42.1545,188.257 43.4878,187.257 45,186.5C 45.3599,184.392 46.0266,182.392 47,180.5C 47.3333,183.5 47.6667,186.5 48,189.5C 50.4038,185.484 53.5705,182.317 57.5,180C 58.8333,178.333 60.1667,176.667 61.5,175C 56.7324,173.273 52.0657,171.439 47.5,169.5C 47.5,169.167 47.5,168.833 47.5,168.5C 48.4916,168.672 49.1583,168.338 49.5,167.5 Z"/></g>
<g><path style="opacity:1" fill="#18314e" d="M 511.5,88.5 C 511.5,89.1667 511.5,89.8333 511.5,90.5C 493.59,90.1744 475.757,90.5077 458,91.5C 457.373,117.676 457.373,144.009 458,170.5C 458.667,171.167 459.333,171.833 460,172.5C 477.055,172.777 494.222,172.444 511.5,171.5C 512.833,168.833 512.833,166.167 511.5,163.5C 497.512,162.667 483.512,162.167 469.5,162C 467.423,161.808 465.423,161.308 463.5,160.5C 465.045,159.548 466.712,159.215 468.5,159.5C 468.53,151.454 468.363,143.454 468,135.5C 480.835,134.196 494.001,134.196 507.5,135.5C 507.469,132.041 506.802,128.708 505.5,125.5C 493.498,124.328 481.498,124.328 469.5,125.5C 469.737,121.278 469.404,117.111 468.5,113C 469.062,109.346 469.729,105.846 470.5,102.5C 470.5,109.5 470.5,116.5 470.5,123.5C 483.5,123.5 496.5,123.5 509.5,123.5C 509.5,127.833 509.5,132.167 509.5,136.5C 496.5,136.5 483.5,136.5 470.5,136.5C 470.5,144.5 470.5,152.5 470.5,160.5C 485.538,159.85 500.205,160.517 514.5,162.5C 514.5,166.5 514.5,170.5 514.5,174.5C 494.833,174.5 475.167,174.5 455.5,174.5C 455.5,145.833 455.5,117.167 455.5,88.5C 474.167,88.5 492.833,88.5 511.5,88.5 Z"/></g>
<g><path style="opacity:1" fill="#789d46" d="M 47.5,169.5 C 52.0657,171.439 56.7324,173.273 61.5,175C 60.1667,176.667 58.8333,178.333 57.5,180C 53.5705,182.317 50.4038,185.484 48,189.5C 47.6667,186.5 47.3333,183.5 47,180.5C 46.0266,182.392 45.3599,184.392 45,186.5C 43.4878,187.257 42.1545,188.257 41,189.5C 39.4315,193.917 40.9315,195.917 45.5,195.5C 45.238,194.022 45.5713,192.689 46.5,191.5C 47.4519,193.045 47.7852,194.712 47.5,196.5C 47.5,197.167 47.5,197.833 47.5,198.5C 45.5891,198.574 44.4224,199.574 44,201.5C 43.5045,203.473 43.3379,205.473 43.5,207.5C 42.1667,207.5 40.8333,207.5 39.5,207.5C 38.8333,207.5 38.5,207.167 38.5,206.5C 38.17,202.979 36.67,199.979 34,197.5C 33.245,194.697 33.5783,192.03 35,189.5C 38.7871,185.558 40.9538,180.891 41.5,175.5C 43.1667,173.167 45.1667,171.167 47.5,169.5 Z"/></g>
<g><path style="opacity:1" fill="#839c5f" d="M 41.5,175.5 C 40.9538,180.891 38.7871,185.558 35,189.5C 33.5783,192.03 33.245,194.697 34,197.5C 36.67,199.979 38.17,202.979 38.5,206.5C 35.167,202.974 32.8337,198.807 31.5,194C 34.1838,187.465 37.5172,181.298 41.5,175.5 Z"/></g>
<g><path style="opacity:1" fill="#4e643e" d="M 129.5,165.5 C 132.341,166.842 134.341,169.009 135.5,172C 138.146,172.497 140.813,172.664 143.5,172.5C 143.5,173.5 143.5,174.5 143.5,175.5C 144.5,175.5 145.5,175.5 146.5,175.5C 146.34,177.199 146.506,178.866 147,180.5C 149.662,185.13 152.328,189.797 155,194.5C 155.182,197.226 155.682,199.893 156.5,202.5C 157.265,203.612 158.265,204.279 159.5,204.5C 159.5,210.833 159.5,217.167 159.5,223.5C 153.095,216.435 147.095,209.101 141.5,201.5C 139.358,195.883 136.692,190.55 133.5,185.5C 133.611,184.883 133.944,184.383 134.5,184C 132.124,178.037 130.457,171.87 129.5,165.5 Z"/></g>
<g><path style="opacity:1" fill="#5f6b5a" d="M 146.5,175.5 C 147.167,175.5 147.833,175.5 148.5,175.5C 151.43,184.027 155.43,192.027 160.5,199.5C 159.549,200.919 159.216,202.585 159.5,204.5C 158.265,204.279 157.265,203.612 156.5,202.5C 155.682,199.893 155.182,197.226 155,194.5C 152.328,189.797 149.662,185.13 147,180.5C 146.506,178.866 146.34,177.199 146.5,175.5 Z"/></g>
<g><path style="opacity:1" fill="#143051" d="M 442.5,198.5 C 442.5,199.833 442.5,201.167 442.5,202.5C 438.629,202.185 434.962,202.518 431.5,203.5C 431.5,213.5 431.5,223.5 431.5,233.5C 429.833,233.5 428.167,233.5 426.5,233.5C 426.5,223.5 426.5,213.5 426.5,203.5C 422.833,203.5 419.167,203.5 415.5,203.5C 415.5,201.833 415.5,200.167 415.5,198.5C 424.5,198.5 433.5,198.5 442.5,198.5 Z"/></g>
<g><path style="opacity:1" fill="#75889d" d="M 442.5,198.5 C 443.451,199.919 443.784,201.585 443.5,203.5C 439.5,203.5 435.5,203.5 431.5,203.5C 434.962,202.518 438.629,202.185 442.5,202.5C 442.5,201.167 442.5,199.833 442.5,198.5 Z"/></g>
<g><path style="opacity:1" fill="#78889f" d="M 496.5,198.5 C 497.451,199.919 497.784,201.585 497.5,203.5C 493.5,203.5 489.5,203.5 485.5,203.5C 488.962,202.518 492.629,202.185 496.5,202.5C 496.5,201.167 496.5,199.833 496.5,198.5 Z"/></g>
<g><path style="opacity:1" fill="#6c7d92" d="M 572.5,198.5 C 573.451,199.919 573.784,201.585 573.5,203.5C 569.5,203.5 565.5,203.5 561.5,203.5C 564.962,202.518 568.629,202.185 572.5,202.5C 572.5,201.167 572.5,199.833 572.5,198.5 Z"/></g>
<g><path style="opacity:1" fill="#79889d" d="M 584.5,198.5 C 584.5,210.167 584.5,221.833 584.5,233.5C 592.167,233.5 599.833,233.5 607.5,233.5C 599.684,234.492 591.684,234.826 583.5,234.5C 583.172,222.322 583.505,210.322 584.5,198.5 Z"/></g>
<g><path style="opacity:1" fill="#7488a4" d="M 606.5,198.5 C 607.451,199.919 607.784,201.585 607.5,203.5C 601.167,203.5 594.833,203.5 588.5,203.5C 594.31,202.51 600.31,202.177 606.5,202.5C 606.5,201.167 606.5,199.833 606.5,198.5 Z"/></g>
<g><path style="opacity:1" fill="#0e2e51" d="M 319.5,198.5 C 321.167,198.5 322.833,198.5 324.5,198.5C 324.5,210.5 324.5,222.5 324.5,234.5C 322.833,234.5 321.167,234.5 319.5,234.5C 319.5,222.5 319.5,210.5 319.5,198.5 Z"/></g>
<g><path style="opacity:1" fill="#142f51" d="M 363.5,225.5 C 363.783,226.289 364.283,226.956 365,227.5C 365.5,217.839 365.666,208.172 365.5,198.5C 366.833,198.5 368.167,198.5 369.5,198.5C 369.5,210.167 369.5,221.833 369.5,233.5C 366.635,233.945 364.135,233.278 362,231.5C 356.278,223.284 350.778,214.951 345.5,206.5C 345.44,205.957 345.107,205.624 344.5,205.5C 343.502,214.81 343.168,224.143 343.5,233.5C 342.167,233.5 340.833,233.5 339.5,233.5C 339.5,221.833 339.5,210.167 339.5,198.5C 342.365,198.055 344.865,198.722 347,200.5C 352.51,208.862 358.01,217.195 363.5,225.5 Z"/></g>
<g><path style="opacity:1" fill="#15304f" d="M 572.5,198.5 C 572.5,199.833 572.5,201.167 572.5,202.5C 568.629,202.185 564.962,202.518 561.5,203.5C 561.5,213.5 561.5,223.5 561.5,233.5C 560.167,233.5 558.833,233.5 557.5,233.5C 557.827,223.319 557.494,213.319 556.5,203.5C 552.833,203.5 549.167,203.5 545.5,203.5C 545.5,201.833 545.5,200.167 545.5,198.5C 554.5,198.5 563.5,198.5 572.5,198.5 Z"/></g>
<g><path style="opacity:1" fill="#889c66" d="M 47.5,198.5 C 45.3612,202.895 44.0279,207.562 43.5,212.5C 41.4478,211.389 40.1145,209.723 39.5,207.5C 40.8333,207.5 42.1667,207.5 43.5,207.5C 43.3379,205.473 43.5045,203.473 44,201.5C 44.4224,199.574 45.5891,198.574 47.5,198.5 Z"/></g>
<g><path style="opacity:1" fill="#9baec1" d="M 365.5,198.5 C 365.666,208.172 365.5,217.839 365,227.5C 364.283,226.956 363.783,226.289 363.5,225.5C 364.167,216.5 364.833,207.5 365.5,198.5 Z"/></g>
<g><path style="opacity:1" fill="#0c2e53" d="M 453.5,198.5 C 455.5,198.5 457.5,198.5 459.5,198.5C 459.5,210.5 459.5,222.5 459.5,234.5C 457.5,234.5 455.5,234.5 453.5,234.5C 453.5,222.5 453.5,210.5 453.5,198.5 Z"/></g>
<g><path style="opacity:1" fill="#73818f" d="M 480.5,203.5 C 481.494,213.319 481.827,223.319 481.5,233.5C 482.833,233.5 484.167,233.5 485.5,233.5C 484.081,234.451 482.415,234.784 480.5,234.5C 480.5,224.167 480.5,213.833 480.5,203.5 Z"/></g>
<g><path style="opacity:1" fill="#6e8297" d="M 556.5,203.5 C 557.494,213.319 557.827,223.319 557.5,233.5C 558.833,233.5 560.167,233.5 561.5,233.5C 560.081,234.451 558.415,234.784 556.5,234.5C 556.5,224.167 556.5,213.833 556.5,203.5 Z"/></g>
<g><path style="opacity:1" fill="#153051" d="M 390.5,197.5 C 394.247,197.392 397.914,197.892 401.5,199C 405.412,200.713 405.412,202.547 401.5,204.5C 397.233,201.935 393.066,201.935 389,204.5C 388.056,207.347 388.556,209.847 390.5,212C 395.955,213.369 400.789,215.869 405,219.5C 405.666,231.819 399.833,236.652 387.5,234C 381.621,232.433 381.121,229.933 386,226.5C 389.756,230.918 394.09,231.585 399,228.5C 401.151,225.784 400.984,223.284 398.5,221C 394.5,219.333 390.5,217.667 386.5,216C 381.509,208.352 382.842,202.186 390.5,197.5 Z"/></g>
<g><path style="opacity:1" fill="#727f90" d="M 345.5,206.5 C 344.506,215.652 344.173,224.985 344.5,234.5C 342.585,234.784 340.919,234.451 339.5,233.5C 340.833,233.5 342.167,233.5 343.5,233.5C 343.168,224.143 343.502,214.81 344.5,205.5C 345.107,205.624 345.44,205.957 345.5,206.5 Z"/></g>
<g><path style="opacity:1" fill="#847ba2" d="M 160.5,199.5 C 171.888,215.046 186.555,226.546 204.5,234C 199.168,238.001 193.502,241.501 187.5,244.5C 177.57,238.879 168.237,232.545 159.5,225.5C 159.5,224.833 159.5,224.167 159.5,223.5C 159.5,217.167 159.5,210.833 159.5,204.5C 159.216,202.585 159.549,200.919 160.5,199.5 Z"/></g>
<g><path style="opacity:1" fill="#163051" d="M 496.5,198.5 C 496.5,199.833 496.5,201.167 496.5,202.5C 492.629,202.185 488.962,202.518 485.5,203.5C 485.5,213.5 485.5,223.5 485.5,233.5C 484.167,233.5 482.833,233.5 481.5,233.5C 481.827,223.319 481.494,213.319 480.5,203.5C 476.833,203.5 473.167,203.5 469.5,203.5C 469.5,201.833 469.5,200.167 469.5,198.5C 478.5,198.5 487.5,198.5 496.5,198.5 Z"/></g>
<g><path style="opacity:1" fill="#163050" d="M 584.5,198.5 C 591.833,198.5 599.167,198.5 606.5,198.5C 606.5,199.833 606.5,201.167 606.5,202.5C 600.31,202.177 594.31,202.51 588.5,203.5C 588.5,206.833 588.5,210.167 588.5,213.5C 594.167,213.5 599.833,213.5 605.5,213.5C 605.5,215.167 605.5,216.833 605.5,218.5C 599.833,218.5 594.167,218.5 588.5,218.5C 588.5,222.167 588.5,225.833 588.5,229.5C 594.833,229.5 601.167,229.5 607.5,229.5C 607.5,230.833 607.5,232.167 607.5,233.5C 599.833,233.5 592.167,233.5 584.5,233.5C 584.5,221.833 584.5,210.167 584.5,198.5 Z"/></g>
<g><path style="opacity:1" fill="#152e4d" d="M 507.5,198.5 C 509.167,198.5 510.833,198.5 512.5,198.5C 512.334,207.173 512.5,215.84 513,224.5C 516.016,230.372 520.516,231.872 526.5,229C 528.041,227.421 529.208,225.587 530,223.5C 530.5,215.173 530.666,206.84 530.5,198.5C 531.833,198.5 533.167,198.5 534.5,198.5C 534.923,208.58 534.423,218.58 533,228.5C 527.135,234.969 520.302,236.136 512.5,232C 510.951,230.786 509.785,229.286 509,227.5C 507.609,217.9 507.109,208.233 507.5,198.5 Z"/></g>
<g><path style="opacity:1" fill="#799c4b" d="M 141.5,201.5 C 147.095,209.101 153.095,216.435 159.5,223.5C 159.5,224.167 159.5,224.833 159.5,225.5C 158.945,236.166 155.612,245.833 149.5,254.5C 147.604,255.466 145.604,255.799 143.5,255.5C 139.116,255.826 134.783,255.492 130.5,254.5C 134.207,250.956 137.374,246.956 140,242.5C 142.067,238.041 143.234,233.374 143.5,228.5C 144.01,219.361 143.344,210.361 141.5,201.5 Z"/></g>
<g><path style="opacity:1" fill="#879c67" d="M 143.5,228.5 C 143.234,233.374 142.067,238.041 140,242.5C 137.374,246.956 134.207,250.956 130.5,254.5C 134.783,255.492 139.116,255.826 143.5,255.5C 138.015,256.652 132.349,256.818 126.5,256C 134.851,248.383 140.517,239.216 143.5,228.5 Z"/></g>
</svg>
