<?xml version="1.0" encoding="UTF-8"?>
<!DOCTYPE svg PUBLIC "-//W3C//DTD SVG 1.1//EN" "http://www.w3.org/Graphics/SVG/1.1/DTD/svg11.dtd">
<svg xmlns="http://www.w3.org/2000/svg" version="1.1" width="864px" height="320px" style="shape-rendering:geometricPrecision; text-rendering:geometricPrecision; image-rendering:optimizeQuality; fill-rule:evenodd; clip-rule:evenodd" xmlns:xlink="http://www.w3.org/1999/xlink">
<g><path style="opacity:1" fill="#fefefe" d="M -0.5,-0.5 C 287.5,-0.5 575.5,-0.5 863.5,-0.5C 863.5,106.167 863.5,212.833 863.5,319.5C 575.5,319.5 287.5,319.5 -0.5,319.5C -0.5,212.833 -0.5,106.167 -0.5,-0.5 Z"/></g>
<g><path style="opacity:1" fill="#80848b" d="M 811.5,89.5 C 792.167,89.5 772.833,89.5 753.5,89.5C 753.5,89.1667 753.5,88.8333 753.5,88.5C 753.883,77.1123 753.383,65.7789 752,54.5C 749.414,48.4077 744.914,44.741 738.5,43.5C 580.334,42.3339 422.001,42.1672 263.5,43C 262.263,43.2321 261.263,43.7321 260.5,44.5C 250.756,48.9781 246.422,56.6448 247.5,67.5C 246.022,67.238 244.689,67.5713 243.5,68.5C 246.609,72.3971 249.943,76.0638 253.5,79.5C 256.878,76.1239 259.878,72.4572 262.5,68.5C 261.675,67.6143 260.675,67.281 259.5,67.5C 259.5,66.8333 259.833,66.5 260.5,66.5C 262.288,66.2148 263.955,66.5481 265.5,67.5C 262.476,71.5185 259.476,75.5185 256.5,79.5C 253.993,80.8976 251.66,80.5643 249.5,78.5C 246.145,75.143 243.145,71.4764 240.5,67.5C 242.396,66.5344 244.396,66.2011 246.5,66.5C 245.641,53.1882 251.641,44.6882 264.5,41C 422.5,40.3333 580.5,40.3333 738.5,41C 745.139,43.3026 750.306,47.4693 754,53.5C 755.436,65.0903 755.936,76.757 755.5,88.5C 774.341,88.1698 793.007,88.5031 811.5,89.5 Z"/></g>
<g><path style="opacity:1" fill="#bbc2cd" d="M 738.5,43.5 C 579.145,43.1723 419.812,43.5057 260.5,44.5C 261.263,43.7321 262.263,43.2321 263.5,43C 422.001,42.1672 580.334,42.3339 738.5,43.5 Z"/></g>
<g><path style="opacity:1" fill="#d0deec" d="M 738.5,43.5 C 744.914,44.741 749.414,48.4077 752,54.5C 753.383,65.7789 753.883,77.1123 753.5,88.5C 750.167,88.5 746.833,88.5 743.5,88.5C 743.827,78.3194 743.494,68.3194 742.5,58.5C 741.647,55.4821 739.647,53.6488 736.5,53C 579.167,52.3333 421.833,52.3333 264.5,53C 258.915,56.6372 257.248,61.4706 259.5,67.5C 260.675,67.281 261.675,67.6143 262.5,68.5C 259.878,72.4572 256.878,76.1239 253.5,79.5C 249.943,76.0638 246.609,72.3971 243.5,68.5C 244.689,67.5713 246.022,67.238 247.5,67.5C 246.422,56.6448 250.756,48.9781 260.5,44.5C 419.812,43.5057 579.145,43.1723 738.5,43.5 Z"/></g>
<g><path style="opacity:1" fill="#7f8384" d="M 742.5,58.5 C 742.737,59.791 742.404,60.791 741.5,61.5C 741.228,58.2678 739.562,56.2678 736.5,55.5C 579.334,54.3339 422.001,54.1672 264.5,55C 263.944,55.3826 263.611,55.8826 263.5,56.5C 262.21,57.0577 261.377,58.0577 261,59.5C 260.503,61.8098 260.337,64.1432 260.5,66.5C 259.833,66.5 259.5,66.8333 259.5,67.5C 257.248,61.4706 258.915,56.6372 264.5,53C 421.833,52.3333 579.167,52.3333 736.5,53C 739.647,53.6488 741.647,55.4821 742.5,58.5 Z"/></g>
<g><path style="opacity:1" fill="#ecf0f0" d="M 736.5,55.5 C 578.793,55.1696 421.126,55.5029 263.5,56.5C 263.611,55.8826 263.944,55.3826 264.5,55C 422.001,54.1672 579.334,54.3339 736.5,55.5 Z"/></g>
<g><path style="opacity:1" fill="#8c9195" d="M 742.5,58.5 C 743.494,68.3194 743.827,78.3194 743.5,88.5C 746.833,88.5 750.167,88.5 753.5,88.5C 753.5,88.8333 753.5,89.1667 753.5,89.5C 734.167,89.5 714.833,89.5 695.5,89.5C 710.658,88.5038 725.991,88.1705 741.5,88.5C 741.5,79.5 741.5,70.5 741.5,61.5C 742.404,60.791 742.737,59.791 742.5,58.5 Z"/></g>
<g><path style="opacity:1" fill="#8d8d8d" d="M 536.5,79.5 C 573.331,78.3356 610.331,78.1689 647.5,79C 648.488,91.0864 648.822,103.253 648.5,115.5C 654.167,115.5 659.833,115.5 665.5,115.5C 666.167,115.5 666.5,115.833 666.5,116.5C 660.5,116.5 654.5,116.5 648.5,116.5C 647.833,116.167 647.167,115.833 646.5,115.5C 646.5,103.833 646.5,92.1667 646.5,80.5C 610.167,80.5 573.833,80.5 537.5,80.5C 537.5,79.8333 537.167,79.5 536.5,79.5 Z"/></g>
<g><path style="opacity:1" fill="#898989" d="M 249.5,78.5 C 251.66,80.5643 253.993,80.8976 256.5,79.5C 276.674,79.1695 296.674,79.5029 316.5,80.5C 315.833,80.5 315.5,80.8333 315.5,81.5C 279.5,81.5 243.5,81.5 207.5,81.5C 206.504,96.6576 206.17,111.991 206.5,127.5C 206.167,127.5 205.833,127.5 205.5,127.5C 205.5,111.5 205.5,95.5 205.5,79.5C 220.343,79.8293 235.01,79.496 249.5,78.5 Z"/></g>
<g><path style="opacity:1" fill="#eeeeee" d="M 537.5,80.5 C 573.833,80.5 610.167,80.5 646.5,80.5C 646.5,92.1667 646.5,103.833 646.5,115.5C 646.5,132.167 646.5,148.833 646.5,165.5C 641.419,165.224 636.919,166.558 633,169.5C 632.187,171.436 631.687,173.436 631.5,175.5C 630.662,175.842 630.328,176.508 630.5,177.5C 630.461,178.583 630.127,179.583 629.5,180.5C 598.841,181.5 568.174,181.833 537.5,181.5C 537.5,147.833 537.5,114.167 537.5,80.5 Z"/></g>
<g><path style="opacity:1" fill="#ededed" d="M 207.5,81.5 C 243.5,81.5 279.5,81.5 315.5,81.5C 315.5,109.833 315.5,138.167 315.5,166.5C 311.034,166.876 306.701,167.876 302.5,169.5C 300.089,173.471 298.756,177.804 298.5,182.5C 268.167,182.5 237.833,182.5 207.5,182.5C 207.5,148.833 207.5,115.167 207.5,81.5 Z"/></g>
<g><path style="opacity:1" fill="#dadadb" d="M 152.5,87.5 C 113.79,87.1787 75.1238,87.5121 36.5,88.5C 37.9526,87.1751 37.6192,86.3418 35.5,86C 74.628,86.1437 113.628,86.6437 152.5,87.5 Z"/></g>
<g><path style="opacity:1" fill="#d7d7d8" d="M 364.5,87.5 C 402.664,86.3355 440.998,86.1688 479.5,87C 481.32,87.2004 482.653,88.0337 483.5,89.5C 481.821,89.1077 480.154,88.6077 478.5,88C 440.501,87.5 402.501,87.3333 364.5,87.5 Z"/></g>
<g><path style="opacity:1" fill="#2f2f2f" d="M 553.5,91.5 C 553.631,92.3764 553.298,93.0431 552.5,93.5C 551.109,92.3554 549.776,92.3554 548.5,93.5C 550.179,94.782 552.013,95.782 554,96.5C 554.342,100.32 552.509,101.986 548.5,101.5C 547.522,101.189 546.855,100.522 546.5,99.5C 548.117,99.3306 549.784,98.9972 551.5,98.5C 550.086,97.376 548.586,96.376 547,95.5C 546.573,90.5705 548.74,89.2372 553.5,91.5 Z"/></g>
<g><path style="opacity:1" fill="#d1dfef" d="M 488.5,99.5 C 489.654,120.094 489.821,140.76 489,161.5C 487.653,165.344 485.153,168.011 481.5,169.5C 471.678,170.673 462.011,170.673 452.5,169.5C 453.96,166.296 454.46,162.962 454,159.5C 453.241,157.937 452.074,156.937 450.5,156.5C 451.538,154.892 450.871,153.892 448.5,153.5C 447.126,154.711 445.626,155.711 444,156.5C 439.962,157.353 435.796,157.353 431.5,156.5C 431.5,157.5 431.5,158.5 431.5,159.5C 431.167,160.833 430.833,162.167 430.5,163.5C 427.203,163.671 426.869,163.005 429.5,161.5C 429.167,161.167 428.833,160.833 428.5,160.5C 425.205,161.694 423.705,160.361 424,156.5C 422.33,161.592 421.497,161.592 421.5,156.5C 419.5,157.167 417.5,157.833 415.5,158.5C 414.5,158.5 413.5,158.5 412.5,158.5C 411.778,157.449 410.778,156.782 409.5,156.5C 408.833,156.5 408.167,156.5 407.5,156.5C 402.07,154.753 397.07,155.419 392.5,158.5C 392.167,158.5 391.833,158.5 391.5,158.5C 390.167,158.5 388.833,158.5 387.5,158.5C 387.854,156.459 387.854,154.626 387.5,153C 389.889,152.261 391.889,151.095 393.5,149.5C 395.164,148.051 395.998,146.051 396,143.5C 397.095,144.693 397.928,146.027 398.5,147.5C 398.709,148.922 399.209,150.255 400,151.5C 403.018,150.823 406.185,150.823 409.5,151.5C 410.518,150.807 411.518,150.141 412.5,149.5C 413.239,149.631 413.906,149.464 414.5,149C 413.712,145.924 413.212,142.758 413,139.5C 412.722,140.416 412.222,141.082 411.5,141.5C 410.5,141.5 409.5,141.5 408.5,141.5C 406.486,141.392 404.82,142.058 403.5,143.5C 402.549,142.081 402.216,140.415 402.5,138.5C 397.554,139.68 393.221,138.513 389.5,135C 390.252,134.329 390.586,133.496 390.5,132.5C 391.652,133.625 392.652,133.625 393.5,132.5C 395.167,132.5 396.833,132.5 398.5,132.5C 400.885,127.239 399.385,123.572 394,121.5C 392.354,123.141 391.354,122.807 391,120.5C 390.676,122.569 389.842,122.902 388.5,121.5C 387.534,119.604 387.201,117.604 387.5,115.5C 388.378,112.239 389.044,108.906 389.5,105.5C 386.832,106.099 384.998,107.766 384,110.5C 383.505,108.527 383.338,106.527 383.5,104.5C 382.167,104.5 380.833,104.5 379.5,104.5C 378.665,108.34 378.665,112.006 379.5,115.5C 379.94,117.269 379.94,119.269 379.5,121.5C 378.167,120.833 376.833,120.167 375.5,119.5C 374.304,119.846 374.304,120.346 375.5,121C 374.906,121.464 374.239,121.631 373.5,121.5C 370.122,120.891 368.122,122.224 367.5,125.5C 365.621,125.393 365.288,125.893 366.5,127C 365.773,128.399 365.273,129.899 365,131.5C 364.692,130.692 364.192,130.025 363.5,129.5C 361.736,131.479 359.736,131.812 357.5,130.5C 358.701,121.025 358.701,111.358 357.5,101.5C 358.098,100.205 358.598,98.8721 359,97.5C 360.011,98.3366 361.178,98.67 362.5,98.5C 362.343,97.1266 362.51,95.7932 363,94.5C 364.813,95.6091 365.646,94.9424 365.5,92.5C 402.973,92.7979 440.473,92.4645 478,91.5C 480.23,94.4126 482.73,97.0793 485.5,99.5C 486.527,100.791 487.527,100.791 488.5,99.5 Z"/></g>
<g><path style="opacity:1" fill="#2d2d2d" d="M 222.5,92.5 C 222.351,96.1233 221.184,96.4566 219,93.5C 218.5,93.8333 218,94.1667 217.5,94.5C 218.655,95.9505 220.155,96.9505 222,97.5C 222.934,102.083 221.1,103.583 216.5,102C 215.289,101.107 215.289,100.274 216.5,99.5C 217.891,100.645 219.224,100.645 220.5,99.5C 219.423,98.2949 218.09,97.6282 216.5,97.5C 214.739,91.744 216.739,90.0774 222.5,92.5 Z"/></g>
<g><path style="opacity:1" fill="#2f2f2f" d="M 269.5,92.5 C 270.49,95.1505 271.49,97.8172 272.5,100.5C 272.167,101.167 271.833,101.833 271.5,102.5C 269.605,100.514 267.605,100.181 265.5,101.5C 264.105,103.054 263.439,102.721 263.5,100.5C 264.014,97.7894 265.014,95.2894 266.5,93C 267.448,92.5172 268.448,92.3505 269.5,92.5 Z"/></g>
<g><path style="opacity:1" fill="#afafaf" d="M 267.5,95.5 C 268.776,96.3864 268.776,97.3864 267.5,98.5C 266.438,97.5754 266.438,96.5754 267.5,95.5 Z"/></g>
<g><path style="opacity:1" fill="#232323" d="M 600.5,91.5 C 601.492,94.1381 602.492,96.8048 603.5,99.5C 601.674,99.9202 599.674,99.9202 597.5,99.5C 596.849,100.091 596.182,100.757 595.5,101.5C 594.858,98.3744 595.525,95.3744 597.5,92.5C 598.325,91.6143 599.325,91.281 600.5,91.5 Z"/></g>
<g><path style="opacity:1" fill="#7d7d7d" d="M 598.5,94.5 C 600.048,94.8212 600.715,95.8212 600.5,97.5C 597.752,97.5983 597.086,96.5983 598.5,94.5 Z"/></g>
<g><path style="opacity:1" fill="#323232" d="M 565.5,94.5 C 566.169,100 563.835,102.167 558.5,101C 555.474,98.7024 554.808,95.8691 556.5,92.5C 560.447,89.3546 563.447,90.0213 565.5,94.5 Z"/></g>
<g><path style="opacity:1" fill="#dcdcdc" d="M 600.5,91.5 C 599.325,91.281 598.325,91.6143 597.5,92.5C 595.525,95.3744 594.858,98.3744 595.5,101.5C 596.182,100.757 596.849,100.091 597.5,99.5C 597.5,100.5 597.5,101.5 597.5,102.5C 596.448,102.351 595.448,102.517 594.5,103C 595.345,104.558 594.679,105.558 592.5,106C 593.191,107.067 593.691,108.234 594,109.5C 595.516,106.949 596.349,107.282 596.5,110.5C 595.252,111.334 594.585,112.667 594.5,114.5C 594.585,116.333 595.252,117.666 596.5,118.5C 595.531,119.309 594.698,120.309 594,121.5C 593.302,120.309 592.469,119.309 591.5,118.5C 592.239,118.631 592.906,118.464 593.5,118C 592.22,115.868 592.22,113.702 593.5,111.5C 591.608,107.53 590.608,107.863 590.5,112.5C 589.953,115.575 588.953,118.575 587.5,121.5C 588.981,122.944 588.648,123.611 586.5,123.5C 586.5,122.167 586.5,120.833 586.5,119.5C 584.856,119.286 583.356,119.62 582,120.5C 580.53,119.733 579.03,119.067 577.5,118.5C 577.813,115.753 577.48,113.086 576.5,110.5C 575.526,112.743 575.192,115.076 575.5,117.5C 574.5,117.5 573.5,117.5 572.5,117.5C 572.167,109.5 571.833,109.5 571.5,117.5C 570.833,117.833 570.167,118.167 569.5,118.5C 569.768,115.881 569.435,113.381 568.5,111C 565.897,110.978 563.231,111.144 560.5,111.5C 559.353,113.765 559.186,116.098 560,118.5C 560.495,116.527 560.662,114.527 560.5,112.5C 561.5,112.5 562.5,112.5 563.5,112.5C 563.025,115.082 563.692,117.082 565.5,118.5C 565.189,119.478 564.522,120.145 563.5,120.5C 560.03,119.429 556.864,119.429 554,120.5C 552.052,119.891 550.218,119.224 548.5,118.5C 550.288,118.785 551.955,118.452 553.5,117.5C 554.326,116.549 554.492,115.549 554,114.5C 552.054,113.253 550.22,111.92 548.5,110.5C 550.216,110.003 551.883,109.669 553.5,109.5C 550.01,106.419 547.677,107.085 546.5,111.5C 544.352,111.611 544.019,110.944 545.5,109.5C 544.833,109.167 544.167,108.833 543.5,108.5C 545.024,106.142 547.024,104.309 549.5,103C 548.944,102.617 548.611,102.117 548.5,101.5C 552.509,101.986 554.342,100.32 554,96.5C 552.013,95.782 550.179,94.782 548.5,93.5C 549.776,92.3554 551.109,92.3554 552.5,93.5C 553.298,93.0431 553.631,92.3764 553.5,91.5C 554.609,91.5569 555.609,91.8902 556.5,92.5C 554.808,95.8691 555.474,98.7024 558.5,101C 563.835,102.167 566.169,100 565.5,94.5C 566.434,93.4324 566.768,92.099 566.5,90.5C 567.791,90.2627 568.791,90.596 569.5,91.5C 568.223,92.6936 567.556,94.3603 567.5,96.5C 568.044,103.078 568.878,103.078 570,96.5C 571.257,98.7458 573.09,100.079 575.5,100.5C 576.055,96.9878 575.388,93.9878 573.5,91.5C 574.209,90.596 575.209,90.2627 576.5,90.5C 576.194,93.3854 576.527,96.0521 577.5,98.5C 577.369,99.3764 577.702,100.043 578.5,100.5C 581.269,99.704 583.936,99.3706 586.5,99.5C 585.487,96.8122 584.487,94.1456 583.5,91.5C 584.609,91.4431 585.609,91.1098 586.5,90.5C 586.821,92.0481 587.821,92.7148 589.5,92.5C 590.167,104.5 590.833,104.5 591.5,92.5C 593.179,92.7148 594.179,92.0481 594.5,90.5C 595.825,91.9526 596.658,91.6192 597,89.5C 598.302,90.0848 599.469,90.7515 600.5,91.5 Z"/></g>
<g><path style="opacity:1" fill="#2f2f2f" d="M 583.5,91.5 C 584.487,94.1456 585.487,96.8122 586.5,99.5C 583.936,99.3706 581.269,99.704 578.5,100.5C 577.702,100.043 577.369,99.3764 577.5,98.5C 578.566,96.2986 579.233,93.9653 579.5,91.5C 580.833,91.5 582.167,91.5 583.5,91.5 Z"/></g>
<g><path style="opacity:1" fill="#d9d9d9" d="M 558.5,92.5 C 563.328,92.3852 564.661,94.5519 562.5,99C 561.207,99.49 559.873,99.6567 558.5,99.5C 558.5,97.1667 558.5,94.8333 558.5,92.5 Z"/></g>
<g><path style="opacity:1" fill="#232323" d="M 569.5,91.5 C 570.644,93.1002 571.811,94.7669 573,96.5C 573.494,94.8659 573.66,93.1992 573.5,91.5C 575.388,93.9878 576.055,96.9878 575.5,100.5C 573.09,100.079 571.257,98.7458 570,96.5C 568.878,103.078 568.044,103.078 567.5,96.5C 567.556,94.3603 568.223,92.6936 569.5,91.5 Z"/></g>
<g><path style="opacity:1" fill="#2c2c2c" d="M 586.5,90.5 C 589.167,90.5 591.833,90.5 594.5,90.5C 594.179,92.0481 593.179,92.7148 591.5,92.5C 590.833,104.5 590.167,104.5 589.5,92.5C 587.821,92.7148 586.821,92.0481 586.5,90.5 Z"/></g>
<g><path style="opacity:1" fill="#e0e0e0" d="M 269.5,92.5 C 268.448,92.3505 267.448,92.5172 266.5,93C 265.014,95.2894 264.014,97.7894 263.5,100.5C 263.439,102.721 264.105,103.054 265.5,101.5C 265.423,102.75 264.756,103.583 263.5,104C 263.833,104.333 264.167,104.667 264.5,105C 260.904,105.956 260.238,107.456 262.5,109.5C 260.878,110.122 259.545,111.122 258.5,112.5C 257.275,113.152 256.608,114.319 256.5,116C 256.514,117.385 256.848,118.551 257.5,119.5C 256.232,120.787 256.565,121.787 258.5,122.5C 257.758,123.287 256.925,123.953 256,124.5C 255.5,123.333 254.667,122.5 253.5,122C 255.986,121.295 255.986,120.462 253.5,119.5C 255.355,115.915 254.522,113.249 251,111.5C 247.574,112.856 246.741,115.19 248.5,118.5C 249.689,119.429 251.022,119.762 252.5,119.5C 251.152,120.186 249.985,121.186 249,122.5C 246.995,120.371 244.828,119.038 242.5,118.5C 243.397,119.598 244.23,119.598 245,118.5C 245.991,116.553 246.325,114.553 246,112.5C 245.085,113.328 244.419,114.328 244,115.5C 241.88,111.318 240.547,111.652 240,116.5C 238.991,114.975 238.491,113.308 238.5,111.5C 236.857,111.52 235.524,110.853 234.5,109.5C 233.571,110.689 233.238,112.022 233.5,113.5C 233.167,113.5 232.833,113.5 232.5,113.5C 231.5,113.167 230.833,112.5 230.5,111.5C 229.312,110.636 228.145,109.636 227,108.5C 227,107.167 227,105.833 227,104.5C 226.282,105.451 225.449,105.617 224.5,105C 225.833,104.333 225.833,103.667 224.5,103C 220.908,103.502 217.241,103.502 213.5,103C 214.131,100.901 215.131,99.0677 216.5,97.5C 218.09,97.6282 219.423,98.2949 220.5,99.5C 219.224,100.645 217.891,100.645 216.5,99.5C 215.289,100.274 215.289,101.107 216.5,102C 221.1,103.583 222.934,102.083 222,97.5C 220.155,96.9505 218.655,95.9505 217.5,94.5C 218,94.1667 218.5,93.8333 219,93.5C 221.184,96.4566 222.351,96.1233 222.5,92.5C 226.233,91.179 230.066,91.179 234,92.5C 234.333,91.8333 234.667,91.1667 235,90.5C 236.302,91.0848 237.469,91.7515 238.5,92.5C 237.223,93.6936 236.556,95.3603 236.5,97.5C 237.044,104.078 237.878,104.078 239,97.5C 240.041,99.5852 241.541,101.252 243.5,102.5C 243.833,100.833 244.167,99.1667 244.5,97.5C 244.444,95.3603 243.777,93.6936 242.5,92.5C 243.601,91.4017 244.934,91.235 246.5,92C 244.922,94.3388 245.255,96.1722 247.5,97.5C 244.606,102.77 245.773,103.77 251,100.5C 252.365,100.844 253.532,101.511 254.5,102.5C 254.753,99.5212 254.087,96.5212 252.5,93.5C 251.675,92.6143 250.675,92.281 249.5,92.5C 253.982,91.6745 258.649,91.1745 263.5,91C 264.667,90.5 265.5,89.6667 266,88.5C 266.483,89.448 266.649,90.448 266.5,91.5C 267.791,91.2627 268.791,91.596 269.5,92.5 Z"/></g>
<g><path style="opacity:1" fill="#2b2b2b" d="M 249.5,92.5 C 250.675,92.281 251.675,92.6143 252.5,93.5C 254.087,96.5212 254.753,99.5212 254.5,102.5C 253.532,101.511 252.365,100.844 251,100.5C 245.773,103.77 244.606,102.77 247.5,97.5C 248.024,95.6943 248.691,94.0276 249.5,92.5 Z"/></g>
<g><path style="opacity:1" fill="#2e2e2e" d="M 238.5,92.5 C 241.149,98.601 242.482,98.601 242.5,92.5C 243.777,93.6936 244.444,95.3603 244.5,97.5C 244.167,99.1667 243.833,100.833 243.5,102.5C 241.541,101.252 240.041,99.5852 239,97.5C 237.878,104.078 237.044,104.078 236.5,97.5C 236.556,95.3603 237.223,93.6936 238.5,92.5 Z"/></g>
<g><path style="opacity:1" fill="#232323" d="M 226.5,92.5 C 234.44,91.9375 236.44,95.1041 232.5,102C 224.424,102.805 222.424,99.638 226.5,92.5 Z"/></g>
<g><path style="opacity:1" fill="#d7d7d7" d="M 228.5,93.5 C 232.473,94.0755 233.473,96.2421 231.5,100C 228.433,101.164 226.767,100.164 226.5,97C 226.862,95.5657 227.528,94.3991 228.5,93.5 Z"/></g>
<g><path style="opacity:1" fill="#1c1c1c" d="M 255.5,93.5 C 259.967,92.1381 261.633,92.1381 260.5,93.5C 259.833,105.5 259.167,105.5 258.5,93.5C 257.5,93.5 256.5,93.5 255.5,93.5 Z"/></g>
<g><path style="opacity:1" fill="#d3d3d3" d="M 28.5,97.5 C 27.3558,118.79 27.1892,140.124 28,161.5C 28.6077,163.154 29.1077,164.821 29.5,166.5C 28.0337,165.653 27.2004,164.32 27,162.5C 26.8222,141.457 26.3222,120.457 25.5,99.5C 26.3569,98.5748 27.3569,97.9081 28.5,97.5 Z"/></g>
<g><path style="opacity:1" fill="#16181b" d="M 695.5,89.5 C 714.833,89.5 734.167,89.5 753.5,89.5C 772.833,89.5 792.167,89.5 811.5,89.5C 816.237,90.3877 819.737,93.0543 822,97.5C 822.667,119.833 822.667,142.167 822,164.5C 820.802,168.746 818.302,171.913 814.5,174C 774.893,175.649 735.226,175.982 695.5,175C 690.226,172.563 686.56,168.729 684.5,163.5C 684.5,142.5 684.5,121.5 684.5,100.5C 686.5,95.1667 690.167,91.5 695.5,89.5 Z"/></g>
<g><path style="opacity:1" fill="#cfddec" d="M 819.5,99.5 C 819.801,121.533 819.468,143.533 818.5,165.5C 817.342,168.822 815.008,170.988 811.5,172C 772.833,172.667 734.167,172.667 695.5,172C 692.341,170.673 690.008,168.506 688.5,165.5C 687.533,143.866 687.199,122.2 687.5,100.5C 689.346,96.4886 692.346,93.6552 696.5,92C 734.833,91.3333 773.167,91.3333 811.5,92C 815.344,93.3467 818.011,95.8467 819.5,99.5 Z"/></g>
<g><path style="opacity:1" fill="#8e959d" d="M 687.5,100.5 C 687.199,122.2 687.533,143.866 688.5,165.5C 687.778,165.082 687.278,164.416 687,163.5C 686.171,142.329 686.337,121.329 687.5,100.5 Z"/></g>
<g><path style="opacity:1" fill="#ededed" d="M 343.5,113.5 C 344.906,113.973 345.573,114.973 345.5,116.5C 347.622,121.714 349.622,126.88 351.5,132C 350.692,132.308 350.025,132.808 349.5,133.5C 350.428,134.768 350.595,136.101 350,137.5C 347.306,140.892 345.14,144.559 343.5,148.5C 340.81,151.039 338.643,154.039 337,157.5C 336.501,153.514 336.334,149.514 336.5,145.5C 329.833,145.5 323.167,145.5 316.5,145.5C 316.5,135.833 316.5,126.167 316.5,116.5C 323.167,116.5 329.833,116.5 336.5,116.5C 336.334,112.486 336.501,108.486 337,104.5C 338.643,107.961 340.81,110.961 343.5,113.5 Z"/></g>
<g><path style="opacity:1" fill="#797f85" d="M 819.5,99.5 C 820.663,120.663 820.829,141.996 820,163.5C 819.722,164.416 819.222,165.082 818.5,165.5C 819.468,143.533 819.801,121.533 819.5,99.5 Z"/></g>
<g><path style="opacity:1" fill="#272727" d="M 219.5,114.5 C 218.542,114.047 217.708,113.381 217,112.5C 216.667,114.833 216.333,117.167 216,119.5C 215.176,116.118 215.343,112.784 216.5,109.5C 217.952,110.94 218.952,112.606 219.5,114.5 Z"/></g>
<g><path style="opacity:1" fill="#1c2128" d="M 700.5,106.5 C 708.789,105.49 710.789,108.657 706.5,116C 703.773,116.818 701.106,116.652 698.5,115.5C 699.423,112.553 700.089,109.553 700.5,106.5 Z"/></g>
<g><path style="opacity:1" fill="#a8adb6" d="M 702.5,107.5 C 703.5,107.5 704.5,107.5 705.5,107.5C 705.5,108.5 705.5,109.5 705.5,110.5C 704.5,110.5 703.5,110.5 702.5,110.5C 702.5,109.5 702.5,108.5 702.5,107.5 Z"/></g>
<g><path style="opacity:1" fill="#1e222a" d="M 731.5,106.5 C 732.859,107.007 733.859,108.007 734.5,109.5C 739.547,105.348 740.213,105.682 736.5,110.5C 737.373,112.413 738.373,114.247 739.5,116C 737.45,114.597 735.117,113.43 732.5,112.5C 732.762,113.978 732.429,115.311 731.5,116.5C 731.167,115.667 730.833,114.833 730.5,114C 731.159,111.538 731.493,109.038 731.5,106.5 Z"/></g>
<g><path style="opacity:1" fill="#333333" d="M 272.5,109.5 C 274.857,109.337 277.19,109.503 279.5,110C 277.527,110.495 275.527,110.662 273.5,110.5C 273.5,111.5 273.5,112.5 273.5,113.5C 280.167,113.833 280.167,114.167 273.5,114.5C 273.66,116.199 273.494,117.866 273,119.5C 272.502,116.183 272.335,112.85 272.5,109.5 Z"/></g>
<g><path style="opacity:1" fill="#1b1d20" d="M 364.5,87.5 C 402.501,87.3333 440.501,87.5 478.5,88C 480.154,88.6077 481.821,89.1077 483.5,89.5C 492.005,95.9915 495.005,104.658 492.5,115.5C 498.5,115.5 504.5,115.5 510.5,115.5C 510.173,110.786 510.507,106.12 511.5,101.5C 519.768,111.198 527.435,121.364 534.5,132C 527.777,142.888 520.11,153.055 511.5,162.5C 510.507,157.88 510.173,153.214 510.5,148.5C 504.355,147.51 498.022,147.177 491.5,147.5C 491.5,152.167 491.5,156.833 491.5,161.5C 489.648,168.185 485.314,172.351 478.5,174C 463.504,174.5 448.504,174.667 433.5,174.5C 432.167,174.5 430.833,174.5 429.5,174.5C 427.5,171.833 425.5,171.833 423.5,174.5C 422.167,174.5 420.833,174.5 419.5,174.5C 401.164,174.667 382.83,174.5 364.5,174C 358.836,171.668 355.336,167.501 354,161.5C 353.5,152.84 353.334,144.173 353.5,135.5C 353.5,134.833 353.5,134.167 353.5,133.5C 354.222,133.082 354.722,132.416 355,131.5C 355.17,141.675 355.67,151.675 356.5,161.5C 357.863,165.702 360.53,168.869 364.5,171C 402.833,171.667 441.167,171.667 479.5,171C 480.416,170.722 481.082,170.222 481.5,169.5C 485.153,168.011 487.653,165.344 489,161.5C 489.821,140.76 489.654,120.094 488.5,99.5C 486.715,95.8803 484.048,93.047 480.5,91C 441.5,90.3333 402.5,90.3333 363.5,91C 359.857,92.8048 357.524,95.6381 356.5,99.5C 355.67,109.659 355.17,119.992 355,130.5C 354.617,129.944 354.117,129.611 353.5,129.5C 353.5,128.833 353.5,128.167 353.5,127.5C 353.334,117.828 353.5,108.161 354,98.5C 355.708,93.0562 359.208,89.3895 364.5,87.5 Z"/></g>
<g><path style="opacity:1" fill="#2f333c" d="M 387.5,115.5 C 386.519,110.249 385.519,110.249 384.5,115.5C 383.5,115.5 382.5,115.5 381.5,115.5C 381.47,106.285 380.803,106.285 379.5,115.5C 378.665,112.006 378.665,108.34 379.5,104.5C 380.833,104.5 382.167,104.5 383.5,104.5C 383.338,106.527 383.505,108.527 384,110.5C 384.998,107.766 386.832,106.099 389.5,105.5C 389.044,108.906 388.378,112.239 387.5,115.5 Z"/></g>
<g><path style="opacity:1" fill="#20262f" d="M 406.5,104.5 C 407.552,104.351 408.552,104.517 409.5,105C 405.326,107.142 404.659,109.976 407.5,113.5C 407.167,113.833 406.833,114.167 406.5,114.5C 404.429,109.21 402.429,109.21 400.5,114.5C 399.382,111.398 399.716,108.398 401.5,105.5C 403.054,108.83 404.721,108.497 406.5,104.5 Z"/></g>
<g><path style="opacity:1" fill="#262b35" d="M 369.5,104.5 C 371.527,104.338 373.527,104.505 375.5,105C 378.457,113.007 375.791,116.507 367.5,115.5C 368.06,111.807 368.727,108.14 369.5,104.5 Z"/></g>
<g><path style="opacity:1" fill="#848a93" d="M 371.5,106.5 C 372.5,106.5 373.5,106.5 374.5,106.5C 374.5,107.5 374.5,108.5 374.5,109.5C 371.433,109.879 370.433,108.879 371.5,106.5 Z"/></g>
<g><path style="opacity:1" fill="#cbcbcb" d="M 680.5,123.5 C 678.45,121.763 676.617,119.763 675,117.5C 674.667,117.833 674.333,118.167 674,118.5C 673.633,114.719 672.3,114.052 670,116.5C 669.383,115.551 669.549,114.718 670.5,114C 669.333,113.5 668.5,112.667 668,111.5C 667.802,113.382 667.302,115.048 666.5,116.5C 666.5,115.833 666.167,115.5 665.5,115.5C 665.173,110.456 665.506,105.456 666.5,100.5C 671.942,107.723 676.609,115.389 680.5,123.5 Z"/></g>
<g><path style="opacity:1" fill="#2e3239" d="M 710.5,106.5 C 711.833,106.5 713.167,106.5 714.5,106.5C 714.285,112.891 715.285,113.058 717.5,107C 718.448,106.517 719.448,106.351 720.5,106.5C 720.475,109.96 719.808,113.294 718.5,116.5C 717.719,115.271 717.219,113.938 717,112.5C 716.55,115.106 715.05,116.439 712.5,116.5C 712.443,111.318 711.776,111.318 710.5,116.5C 710.167,115.667 709.833,114.833 709.5,114C 710.159,111.538 710.493,109.038 710.5,106.5 Z"/></g>
<g><path style="opacity:1" fill="#434343" d="M 548.5,118.5 C 546.915,117.998 546.415,116.998 547,115.5C 548.444,117.155 550.278,117.822 552.5,117.5C 552.649,116.448 552.483,115.448 552,114.5C 549.942,113.771 548.109,112.771 546.5,111.5C 547.677,107.085 550.01,106.419 553.5,109.5C 551.883,109.669 550.216,110.003 548.5,110.5C 550.22,111.92 552.054,113.253 554,114.5C 554.492,115.549 554.326,116.549 553.5,117.5C 551.955,118.452 550.288,118.785 548.5,118.5 Z"/></g>
<g><path style="opacity:1" fill="#6a6a6a" d="M 556.5,110.5 C 557.8,113.024 557.8,115.691 556.5,118.5C 555.271,115.801 555.271,113.135 556.5,110.5 Z"/></g>
<g><path style="opacity:1" fill="#b3b7bd" d="M 701.5,111.5 C 702.833,111.5 704.167,111.5 705.5,111.5C 705.5,112.5 705.5,113.5 705.5,114.5C 704.167,114.5 702.833,114.5 701.5,114.5C 701.5,113.5 701.5,112.5 701.5,111.5 Z"/></g>
<g><path style="opacity:1" fill="#323842" d="M 722.5,106.5 C 725.187,106.336 727.854,106.503 730.5,107C 729.234,107.309 728.067,107.809 727,108.5C 726.904,111.451 726.071,114.118 724.5,116.5C 723.355,114.365 723.355,112.199 724.5,110C 723.571,108.923 722.904,107.756 722.5,106.5 Z"/></g>
<g><path style="opacity:1" fill="#282f3a" d="M 391.5,104.5 C 394.247,104.187 396.914,104.52 399.5,105.5C 398.311,106.429 396.978,106.762 395.5,106.5C 395.937,109.807 395.27,112.807 393.5,115.5C 392.55,113.402 392.55,111.235 393.5,109C 392.926,107.393 392.26,105.893 391.5,104.5 Z"/></g>
<g><path style="opacity:1" fill="#717171" d="M 596.5,110.5 C 596.5,113.167 596.5,115.833 596.5,118.5C 595.252,117.666 594.585,116.333 594.5,114.5C 594.585,112.667 595.252,111.334 596.5,110.5 Z"/></g>
<g><path style="opacity:1" fill="#5b5b5b" d="M 605.5,110.5 C 607.5,110.5 609.5,110.5 611.5,110.5C 611.664,113.187 611.497,115.854 611,118.5C 610.505,116.527 610.338,114.527 610.5,112.5C 609.5,112.5 608.5,112.5 607.5,112.5C 607.799,114.604 607.466,116.604 606.5,118.5C 605.52,115.914 605.187,113.247 605.5,110.5 Z"/></g>
<g><path style="opacity:1" fill="#eeeeee" d="M 680.5,123.5 C 682.036,125.916 683.036,128.583 683.5,131.5C 683.281,133.693 682.615,135.693 681.5,137.5C 677.39,141.951 674.056,146.951 671.5,152.5C 669.827,153.343 668.66,154.676 668,156.5C 667.501,152.848 667.335,149.182 667.5,145.5C 661.167,145.5 654.833,145.5 648.5,145.5C 648.5,135.833 648.5,126.167 648.5,116.5C 654.5,116.5 660.5,116.5 666.5,116.5C 667.302,115.048 667.802,113.382 668,111.5C 668.5,112.667 669.333,113.5 670.5,114C 669.549,114.718 669.383,115.551 670,116.5C 672.3,114.052 673.633,114.719 674,118.5C 674.333,118.167 674.667,117.833 675,117.5C 676.617,119.763 678.45,121.763 680.5,123.5 Z"/></g>
<g><path style="opacity:1" fill="#444444" d="M 219.5,114.5 C 220.458,114.953 221.292,115.619 222,116.5C 222.333,114.167 222.667,111.833 223,109.5C 223.824,112.882 223.657,116.216 222.5,119.5C 221.048,118.06 220.048,116.394 219.5,114.5 Z"/></g>
<g><path style="opacity:1" fill="#646464" d="M 230.5,111.5 C 230.833,112.5 231.5,113.167 232.5,113.5C 232.5,114.5 232.5,115.5 232.5,116.5C 230.473,116.338 228.473,116.505 226.5,117C 227.865,118.682 229.365,118.849 231,117.5C 231.167,117.833 231.333,118.167 231.5,118.5C 225.916,120.34 224.083,118.34 226,112.5C 227.356,111.62 228.856,111.286 230.5,111.5 Z"/></g>
<g><path style="opacity:1" fill="#565656" d="M 242.5,118.5 C 242.631,117.761 242.464,117.094 242,116.5C 241.632,117.91 240.799,118.91 239.5,119.5C 238.5,117.5 237.5,115.5 236.5,113.5C 235.24,115.353 235.24,117.186 236.5,119C 235.552,119.483 234.552,119.649 233.5,119.5C 233.5,117.5 233.5,115.5 233.5,113.5C 233.238,112.022 233.571,110.689 234.5,109.5C 235.524,110.853 236.857,111.52 238.5,111.5C 238.491,113.308 238.991,114.975 240,116.5C 240.547,111.652 241.88,111.318 244,115.5C 244.419,114.328 245.085,113.328 246,112.5C 246.325,114.553 245.991,116.553 245,118.5C 244.23,119.598 243.397,119.598 242.5,118.5 Z"/></g>
<g><path style="opacity:1" fill="#4e4e4e" d="M 569.5,118.5 C 568.539,116.735 568.205,114.735 568.5,112.5C 567.5,112.5 566.5,112.5 565.5,112.5C 565.5,114.5 565.5,116.5 565.5,118.5C 563.692,117.082 563.025,115.082 563.5,112.5C 562.5,112.5 561.5,112.5 560.5,112.5C 560.662,114.527 560.495,116.527 560,118.5C 559.186,116.098 559.353,113.765 560.5,111.5C 563.231,111.144 565.897,110.978 568.5,111C 569.435,113.381 569.768,115.881 569.5,118.5 Z"/></g>
<g><path style="opacity:1" fill="#5b5b5b" d="M 253.5,119.5 C 253.167,119.5 252.833,119.5 252.5,119.5C 251.022,119.762 249.689,119.429 248.5,118.5C 246.741,115.19 247.574,112.856 251,111.5C 254.522,113.249 255.355,115.915 253.5,119.5 Z"/></g>
<g><path style="opacity:1" fill="#e2e2e2" d="M 249.5,113.5 C 250.5,113.5 251.5,113.5 252.5,113.5C 252.5,115.167 252.5,116.833 252.5,118.5C 251.5,118.5 250.5,118.5 249.5,118.5C 249.5,116.833 249.5,115.167 249.5,113.5 Z"/></g>
<g><path style="opacity:1" fill="#131313" d="M 258.5,112.5 C 258.5,112.833 258.5,113.167 258.5,113.5C 257.539,115.265 257.205,117.265 257.5,119.5C 256.848,118.551 256.514,117.385 256.5,116C 256.608,114.319 257.275,113.152 258.5,112.5 Z"/></g>
<g><path style="opacity:1" fill="#525252" d="M 262.5,109.5 C 261.907,114.719 262.907,115.386 265.5,111.5C 265.833,111.833 266.167,112.167 266.5,112.5C 265.833,113.5 265.167,114.5 264.5,115.5C 267.153,120.189 266.653,120.523 263,116.5C 262.751,117.624 262.251,118.624 261.5,119.5C 261.036,117.025 260.036,115.025 258.5,113.5C 258.5,113.167 258.5,112.833 258.5,112.5C 259.545,111.122 260.878,110.122 262.5,109.5 Z"/></g>
<g><path style="opacity:1" fill="#474747" d="M 296.5,111.5 C 301.658,112.484 301.658,113.317 296.5,114C 297.891,115.02 299.391,115.853 301,116.5C 301.617,117.449 301.451,118.282 300.5,119C 298.741,119.798 297.074,119.631 295.5,118.5C 296.687,118.446 298.02,118.113 299.5,117.5C 295.803,116.715 294.803,114.715 296.5,111.5 Z"/></g>
<g><path style="opacity:1" fill="#8e8e8e" d="M 343.5,113.5 C 340.81,110.961 338.643,107.961 337,104.5C 336.501,108.486 336.334,112.486 336.5,116.5C 329.833,116.5 323.167,116.5 316.5,116.5C 316.5,116.167 316.5,115.833 316.5,115.5C 322.833,115.5 329.167,115.5 335.5,115.5C 335.334,110.821 335.501,106.155 336,101.5C 339.273,105.052 341.773,109.052 343.5,113.5 Z"/></g>
<g><path style="opacity:1" fill="#5e5e5e" d="M 591.5,118.5 C 590.539,116.735 590.205,114.735 590.5,112.5C 590.608,107.863 591.608,107.53 593.5,111.5C 592.22,113.702 592.22,115.868 593.5,118C 592.906,118.464 592.239,118.631 591.5,118.5 Z"/></g>
<g><path style="opacity:1" fill="#5d5d5d" d="M 598.5,110.5 C 603.708,110.369 605.375,112.702 603.5,117.5C 601.647,118.76 599.814,118.76 598,117.5C 597.297,115.071 597.463,112.738 598.5,110.5 Z"/></g>
<g><path style="opacity:1" fill="#e4e4e4" d="M 599.5,112.5 C 600.5,112.5 601.5,112.5 602.5,112.5C 602.5,114.167 602.5,115.833 602.5,117.5C 601.5,117.5 600.5,117.5 599.5,117.5C 599.5,115.833 599.5,114.167 599.5,112.5 Z"/></g>
<g><path style="opacity:1" fill="#484848" d="M 292.5,119.5 C 290.833,119.5 289.167,119.5 287.5,119.5C 287.5,117.833 287.5,116.167 287.5,114.5C 288.392,111.887 290.059,111.221 292.5,112.5C 293.429,113.689 293.762,115.022 293.5,116.5C 291.801,116.34 290.134,116.506 288.5,117C 289.649,118.744 290.983,118.911 292.5,117.5C 293.773,118.257 293.773,118.923 292.5,119.5 Z"/></g>
<g><path style="opacity:1" fill="#aaaaaa" d="M 288.5,113.5 C 289.978,113.238 291.311,113.571 292.5,114.5C 291.833,114.833 291.167,115.167 290.5,115.5C 289.287,115.253 288.62,114.586 288.5,113.5 Z"/></g>
<g><path style="opacity:1" fill="#5f5f5f" d="M 577.5,118.5 C 575.265,118.795 573.265,118.461 571.5,117.5C 571.833,109.5 572.167,109.5 572.5,117.5C 573.5,117.5 574.5,117.5 575.5,117.5C 575.192,115.076 575.526,112.743 576.5,110.5C 577.48,113.086 577.813,115.753 577.5,118.5 Z"/></g>
<g><path style="opacity:1" fill="#646464" d="M 583.5,110.5 C 585.144,110.286 586.644,110.62 588,111.5C 588.497,113.81 588.663,116.143 588.5,118.5C 586.5,118.5 584.5,118.5 582.5,118.5C 582.215,114.962 583.882,113.129 587.5,113C 585.863,111.049 584.363,111.216 583,113.5C 582.53,112.423 582.697,111.423 583.5,110.5 Z"/></g>
<g><path style="opacity:1" fill="#8e8e8e" d="M 287.5,114.5 C 287.5,116.167 287.5,117.833 287.5,119.5C 289.167,119.5 290.833,119.5 292.5,119.5C 288.727,121.516 284.727,121.849 280.5,120.5C 280.797,110.791 281.63,110.458 283,119.5C 284.166,106.49 285.166,106.824 286,120.5C 286.191,118.292 286.691,116.292 287.5,114.5 Z"/></g>
<g><path style="opacity:1" fill="#d0deed" d="M 512.5,107.5 C 519.521,115.157 525.854,123.491 531.5,132.5C 525.5,140.5 519.5,148.5 513.5,156.5C 512.511,152.893 512.177,149.226 512.5,145.5C 505.833,145.5 499.167,145.5 492.5,145.5C 492.5,136.5 492.5,127.5 492.5,118.5C 499.167,118.5 505.833,118.5 512.5,118.5C 512.5,114.833 512.5,111.167 512.5,107.5 Z"/></g>
<g><path style="opacity:1" fill="#252c36" d="M 412.5,122.5 C 413.244,125.36 413.911,128.36 414.5,131.5C 414.167,131.833 413.833,132.167 413.5,132.5C 412.513,129.232 412.18,125.898 412.5,122.5 Z"/></g>
<g><path style="opacity:1" fill="#4a535e" d="M 732.5,125.5 C 734.681,125.914 737.015,126.081 739.5,126C 740.451,126.718 740.617,127.551 740,128.5C 735.829,127.385 735.662,127.718 739.5,129.5C 740.429,130.689 740.762,132.022 740.5,133.5C 738.801,133.66 737.134,133.494 735.5,133C 734.304,132.346 734.304,131.846 735.5,131.5C 736.891,132.645 738.224,132.645 739.5,131.5C 737.253,130.755 735.42,129.422 734,127.5C 732.803,130.089 731.803,132.756 731,135.5C 729.951,136.517 728.784,136.684 727.5,136C 729.894,133.339 729.894,130.505 727.5,127.5C 727.833,127.167 728.167,126.833 728.5,126.5C 730.645,131.811 731.979,131.477 732.5,125.5 Z"/></g>
<g><path style="opacity:1" fill="#4d5560" d="M 767.5,125.5 C 771.42,126.89 772.42,129.556 770.5,133.5C 769.534,131.604 769.201,129.604 769.5,127.5C 768.5,127.5 767.5,127.5 766.5,127.5C 766.799,129.604 766.466,131.604 765.5,133.5C 764.526,131.257 764.192,128.924 764.5,126.5C 765.791,126.737 766.791,126.404 767.5,125.5 Z"/></g>
<g><path style="opacity:1" fill="#343d48" d="M 400.5,121.5 C 401.787,122.871 402.453,124.705 402.5,127C 402.167,128.833 401.833,130.667 401.5,132.5C 400.511,128.893 400.177,125.226 400.5,121.5 Z"/></g>
<g><path style="opacity:1" fill="#3c4650" d="M 708.5,126.5 C 710.5,126.5 712.5,126.5 714.5,126.5C 714.663,128.857 714.497,131.19 714,133.5C 713.505,131.527 713.338,129.527 713.5,127.5C 712.5,127.5 711.5,127.5 710.5,127.5C 710.799,129.604 710.466,131.604 709.5,133.5C 708.526,131.257 708.192,128.924 708.5,126.5 Z"/></g>
<g><path style="opacity:1" fill="#4a535d" d="M 718.5,125.5 C 719.822,125.33 720.989,125.663 722,126.5C 722.497,128.81 722.663,131.143 722.5,133.5C 720.5,133.5 718.5,133.5 716.5,133.5C 716.5,132.167 716.5,130.833 716.5,129.5C 718.429,129.769 720.095,129.269 721.5,128C 719.888,127.28 718.388,127.446 717,128.5C 716.761,127.212 717.261,126.212 718.5,125.5 Z"/></g>
<g><path style="opacity:1" fill="#ccccca" d="M 345.5,116.5 C 348.411,119.99 351.078,123.656 353.5,127.5C 353.5,128.167 353.5,128.833 353.5,129.5C 353.5,130.833 353.5,132.167 353.5,133.5C 353.5,134.167 353.5,134.833 353.5,135.5C 350.167,139.833 346.833,144.167 343.5,148.5C 345.14,144.559 347.306,140.892 350,137.5C 350.595,136.101 350.428,134.768 349.5,133.5C 350.025,132.808 350.692,132.308 351.5,132C 349.622,126.88 347.622,121.714 345.5,116.5 Z"/></g>
<g><path style="opacity:1" fill="#cdd9e7" d="M 488.5,99.5 C 487.527,100.791 486.527,100.791 485.5,99.5C 482.73,97.0793 480.23,94.4126 478,91.5C 440.473,92.4645 402.973,92.7979 365.5,92.5C 365.646,94.9424 364.813,95.6091 363,94.5C 362.51,95.7932 362.343,97.1266 362.5,98.5C 361.178,98.67 360.011,98.3366 359,97.5C 358.598,98.8721 358.098,100.205 357.5,101.5C 358.701,111.358 358.701,121.025 357.5,130.5C 359.736,131.812 361.736,131.479 363.5,129.5C 364.192,130.025 364.692,130.692 365,131.5C 365.273,129.899 365.773,128.399 366.5,127C 365.288,125.893 365.621,125.393 367.5,125.5C 369.956,126.688 372.289,128.021 374.5,129.5C 372.641,132.019 370.641,132.019 368.5,129.5C 367.167,130.167 367.167,130.833 368.5,131.5C 373.306,133.76 375.473,132.426 375,127.5C 372.824,127.012 370.991,126.012 369.5,124.5C 371.611,123.152 373.445,123.485 375,125.5C 375.3,123.934 374.8,122.601 373.5,121.5C 374.239,121.631 374.906,121.464 375.5,121C 374.304,120.346 374.304,119.846 375.5,119.5C 376.833,120.167 378.167,120.833 379.5,121.5C 379.94,119.269 379.94,117.269 379.5,115.5C 380.803,106.285 381.47,106.285 381.5,115.5C 382.5,115.5 383.5,115.5 384.5,115.5C 385.519,110.249 386.519,110.249 387.5,115.5C 387.201,117.604 387.534,119.604 388.5,121.5C 389.842,122.902 390.676,122.569 391,120.5C 391.354,122.807 392.354,123.141 394,121.5C 399.385,123.572 400.885,127.239 398.5,132.5C 398.663,130.143 398.497,127.81 398,125.5C 397.506,127.134 397.34,128.801 397.5,130.5C 396.5,130.5 395.5,130.5 394.5,130.5C 394.799,128.396 394.466,126.396 393.5,124.5C 392.271,127.199 392.271,129.865 393.5,132.5C 392.652,133.625 391.652,133.625 390.5,132.5C 390.586,133.496 390.252,134.329 389.5,135C 393.221,138.513 397.554,139.68 402.5,138.5C 402.216,140.415 402.549,142.081 403.5,143.5C 402.507,148.675 404.507,150.509 409.5,149C 410.696,148.346 410.696,147.846 409.5,147.5C 408.109,148.645 406.776,148.645 405.5,147.5C 407.045,146.548 408.712,146.215 410.5,146.5C 410.608,144.486 409.942,142.82 408.5,141.5C 409.5,141.5 410.5,141.5 411.5,141.5C 412.265,144.096 412.599,146.763 412.5,149.5C 411.518,150.141 410.518,150.807 409.5,151.5C 406.185,150.823 403.018,150.823 400,151.5C 399.209,150.255 398.709,148.922 398.5,147.5C 399.458,147.953 400.292,148.619 401,149.5C 401.667,146.167 401.667,142.833 401,139.5C 400.667,141.833 400.333,144.167 400,146.5C 394.588,136.849 392.421,137.849 393.5,149.5C 391.889,151.095 389.889,152.261 387.5,153C 387.854,154.626 387.854,156.459 387.5,158.5C 388.833,158.5 390.167,158.5 391.5,158.5C 390.791,159.404 389.791,159.737 388.5,159.5C 388.337,161.857 388.503,164.19 389,166.5C 389.333,164.833 389.667,163.167 390,161.5C 391.011,160.663 392.178,160.33 393.5,160.5C 393.338,162.527 393.505,164.527 394,166.5C 394.667,164.167 394.667,161.833 394,159.5C 393.617,158.944 393.117,158.611 392.5,158.5C 397.07,155.419 402.07,154.753 407.5,156.5C 407.662,158.527 407.495,160.527 407,162.5C 405.691,160.024 403.858,158.024 401.5,156.5C 400.167,159.833 400.167,163.167 401.5,166.5C 402.314,164.234 402.814,161.9 403,159.5C 408.412,169.151 410.579,168.151 409.5,156.5C 410.778,156.782 411.778,157.449 412.5,158.5C 409.058,163.789 410.391,166.289 416.5,166C 417.696,165.346 417.696,164.846 416.5,164.5C 415.109,165.645 413.776,165.645 412.5,164.5C 414.045,163.548 415.712,163.215 417.5,163.5C 417.608,161.486 416.942,159.82 415.5,158.5C 417.5,157.833 419.5,157.167 421.5,156.5C 421.497,161.592 422.33,161.592 424,156.5C 423.705,160.361 425.205,161.694 428.5,160.5C 428.833,160.833 429.167,161.167 429.5,161.5C 426.869,163.005 427.203,163.671 430.5,163.5C 432.204,166.744 434.537,167.244 437.5,165C 436.451,164.508 435.451,164.674 434.5,165.5C 433.692,165.192 433.025,164.692 432.5,164C 434.134,163.506 435.801,163.34 437.5,163.5C 437.5,162.5 437.5,161.5 437.5,160.5C 436.121,158.403 434.455,158.07 432.5,159.5C 432.167,159.5 431.833,159.5 431.5,159.5C 431.5,158.5 431.5,157.5 431.5,156.5C 435.796,157.353 439.962,157.353 444,156.5C 445.626,155.711 447.126,154.711 448.5,153.5C 450.871,153.892 451.538,154.892 450.5,156.5C 453.12,160.668 453.12,164.835 450.5,169C 451.094,169.464 451.761,169.631 452.5,169.5C 462.011,170.673 471.678,170.673 481.5,169.5C 481.082,170.222 480.416,170.722 479.5,171C 441.167,171.667 402.833,171.667 364.5,171C 360.53,168.869 357.863,165.702 356.5,161.5C 356.5,140.833 356.5,120.167 356.5,99.5C 357.524,95.6381 359.857,92.8048 363.5,91C 402.5,90.3333 441.5,90.3333 480.5,91C 484.048,93.047 486.715,95.8803 488.5,99.5 Z"/></g>
<g><path style="opacity:1" fill="#7a848e" d="M 377.5,124.5 C 378.748,125.334 379.415,126.667 379.5,128.5C 379.167,129.833 378.833,131.167 378.5,132.5C 377.52,129.914 377.187,127.247 377.5,124.5 Z"/></g>
<g><path style="opacity:1" fill="#47505b" d="M 398.5,132.5 C 396.833,132.5 395.167,132.5 393.5,132.5C 392.271,129.865 392.271,127.199 393.5,124.5C 394.466,126.396 394.799,128.396 394.5,130.5C 395.5,130.5 396.5,130.5 397.5,130.5C 397.34,128.801 397.506,127.134 398,125.5C 398.497,127.81 398.663,130.143 398.5,132.5 Z"/></g>
<g><path style="opacity:1" fill="#3b4550" d="M 373.5,121.5 C 374.8,122.601 375.3,123.934 375,125.5C 373.445,123.485 371.611,123.152 369.5,124.5C 370.991,126.012 372.824,127.012 375,127.5C 375.473,132.426 373.306,133.76 368.5,131.5C 367.167,130.833 367.167,130.167 368.5,129.5C 370.641,132.019 372.641,132.019 374.5,129.5C 372.289,128.021 369.956,126.688 367.5,125.5C 368.122,122.224 370.122,120.891 373.5,121.5 Z"/></g>
<g><path style="opacity:1" fill="#4d545e" d="M 390.5,132.5 C 389.539,130.735 389.205,128.735 389.5,126.5C 388.5,126.5 387.5,126.5 386.5,126.5C 386.167,134.5 385.833,134.5 385.5,126.5C 384.5,126.5 383.5,126.5 382.5,126.5C 382.799,128.604 382.466,130.604 381.5,132.5C 380.52,129.914 380.187,127.247 380.5,124.5C 383.518,124.335 386.518,124.502 389.5,125C 390.435,127.381 390.768,129.881 390.5,132.5 Z"/></g>
<g><path style="opacity:1" fill="#b5bbc5" d="M 370.5,110.5 C 371.833,110.5 373.167,110.5 374.5,110.5C 374.5,111.5 374.5,112.5 374.5,113.5C 373.167,113.5 371.833,113.5 370.5,113.5C 370.5,112.5 370.5,111.5 370.5,110.5 Z"/></g>
<g><path style="opacity:1" fill="#555e68" d="M 417.5,124.5 C 422.262,125.092 423.596,127.592 421.5,132C 415.413,132.205 414.079,129.705 417.5,124.5 Z"/></g>
<g><path style="opacity:1" fill="#ced8e1" d="M 417.5,126.5 C 418.5,126.5 419.5,126.5 420.5,126.5C 420.785,128.288 420.452,129.955 419.5,131.5C 417.783,130.332 417.116,128.665 417.5,126.5 Z"/></g>
<g><path style="opacity:1" fill="#68717b" d="M 424.5,124.5 C 427.777,124.216 430.943,124.549 434,125.5C 434.667,127.5 434.667,129.5 434,131.5C 432.333,132.833 430.667,132.833 429,131.5C 429.311,130.065 429.145,128.732 428.5,127.5C 427.675,126.614 426.675,126.281 425.5,126.5C 425.799,128.604 425.466,130.604 424.5,132.5C 423.271,129.801 423.271,127.135 424.5,124.5 Z"/></g>
<g><path style="opacity:1" fill="#424242" d="M 546.5,125.5 C 549.119,125.232 551.619,125.565 554,126.5C 554.783,128.433 554.283,129.933 552.5,131C 553.743,132.154 554.743,133.488 555.5,135C 553.45,133.597 551.117,132.43 548.5,131.5C 548.762,132.978 548.429,134.311 547.5,135.5C 546.513,132.232 546.18,128.898 546.5,125.5 Z"/></g>
<g><path style="opacity:1" fill="#e6e6e6" d="M 548.5,126.5 C 549.833,126.5 551.167,126.5 552.5,126.5C 552.5,127.5 552.5,128.5 552.5,129.5C 551.167,129.5 549.833,129.5 548.5,129.5C 548.5,128.5 548.5,127.5 548.5,126.5 Z"/></g>
<g><path style="opacity:1" fill="#c3c3c3" d="M 586.5,123.5 C 584.977,125.586 585.31,127.252 587.5,128.5C 587.325,131.329 588.658,132.996 591.5,133.5C 590.02,134.113 588.687,134.446 587.5,134.5C 588.689,135.429 590.022,135.762 591.5,135.5C 588.96,137.426 586.627,137.426 584.5,135.5C 585.239,135.631 585.906,135.464 586.5,135C 584.834,132.52 584.001,129.687 584,126.5C 583.517,127.448 583.351,128.448 583.5,129.5C 582.532,131.607 582.198,133.941 582.5,136.5C 581.209,136.737 580.209,136.404 579.5,135.5C 580.777,134.306 581.444,132.64 581.5,130.5C 581.444,128.36 580.777,126.694 579.5,125.5C 581.657,124.593 583.99,123.927 586.5,123.5 Z"/></g>
<g><path style="opacity:1" fill="#181818" d="M 584.5,135.5 C 583.539,133.735 583.205,131.735 583.5,129.5C 583.351,128.448 583.517,127.448 584,126.5C 584.001,129.687 584.834,132.52 586.5,135C 585.906,135.464 585.239,135.631 584.5,135.5 Z"/></g>
<g><path style="opacity:1" fill="#505050" d="M 591.5,135.5 C 590.022,135.762 588.689,135.429 587.5,134.5C 588.687,134.446 590.02,134.113 591.5,133.5C 588.658,132.996 587.325,131.329 587.5,128.5C 588.884,127.199 590.384,127.199 592,128.5C 592.667,129.167 592.667,129.833 592,130.5C 590.951,129.483 589.784,129.316 588.5,130C 590.081,130.707 591.581,131.54 593,132.5C 593.585,133.998 593.085,134.998 591.5,135.5 Z"/></g>
<g><path style="opacity:1" fill="#464f5a" d="M 701.5,123.5 C 702.675,123.281 703.675,123.614 704.5,124.5C 705.195,127.28 706.195,129.947 707.5,132.5C 707.167,132.833 706.833,133.167 706.5,133.5C 705.614,132.675 705.281,131.675 705.5,130.5C 702.675,130.162 700.508,131.162 699,133.5C 699.484,130.161 700.317,126.827 701.5,123.5 Z"/></g>
<g><path style="opacity:1" fill="#5d6571" d="M 746.5,125.5 C 751.658,126.484 751.658,127.317 746.5,128C 747.872,128.402 749.205,128.902 750.5,129.5C 751.583,130.365 751.749,131.365 751,132.5C 748.429,133.245 745.929,133.579 743.5,133.5C 742.167,131.167 742.167,128.833 743.5,126.5C 744.167,128.167 744.833,129.833 745.5,131.5C 750.441,132.309 750.608,131.642 746,129.5C 745.421,128.072 745.588,126.738 746.5,125.5 Z"/></g>
<g><path style="opacity:1" fill="#646c77" d="M 404.5,124.5 C 406.467,124.261 408.301,124.594 410,125.5C 410.497,127.81 410.663,130.143 410.5,132.5C 408.208,132.756 406.041,132.423 404,131.5C 404.362,129.107 404.529,126.774 404.5,124.5 Z"/></g>
<g><path style="opacity:1" fill="#676767" d="M 558.5,127.5 C 561.833,127.5 563.5,129.167 563.5,132.5C 561.712,132.215 560.045,132.548 558.5,133.5C 559.98,134.113 561.313,134.446 562.5,134.5C 560.926,135.631 559.259,135.798 557.5,135C 556.083,132.257 556.416,129.757 558.5,127.5 Z"/></g>
<g><path style="opacity:1" fill="#525252" d="M 571.5,127.5 C 573.344,129.279 574.01,131.612 573.5,134.5C 574.5,134.5 575.5,134.5 576.5,134.5C 576.201,132.396 576.534,130.396 577.5,128.5C 578.474,130.743 578.808,133.076 578.5,135.5C 572.095,136.594 569.762,133.927 571.5,127.5 Z"/></g>
<g><path style="opacity:1" fill="#575757" d="M 579.5,125.5 C 580.777,126.694 581.444,128.36 581.5,130.5C 581.444,132.64 580.777,134.306 579.5,135.5C 579.5,132.167 579.5,128.833 579.5,125.5 Z"/></g>
<g><path style="opacity:1" fill="#585858" d="M 565.5,127.5 C 571.176,127.947 571.509,128.781 566.5,130C 569.426,130.687 570.759,132.52 570.5,135.5C 568.396,135.799 566.396,135.466 564.5,134.5C 565.833,134.167 567.167,133.833 568.5,133.5C 564.803,132.715 563.803,130.715 565.5,127.5 Z"/></g>
<g><path style="opacity:1" fill="#515964" d="M 724.5,123.5 C 725.777,124.694 726.444,126.36 726.5,128.5C 726.167,130.167 725.833,131.833 725.5,133.5C 724.513,130.232 724.18,126.898 724.5,123.5 Z"/></g>
<g><path style="opacity:1" fill="#535a66" d="M 757.5,125.5 C 762.815,125.497 764.815,128.164 763.5,133.5C 761.473,133.662 759.473,133.495 757.5,133C 756.663,131.989 756.33,130.822 756.5,129.5C 758.308,129.509 759.975,129.009 761.5,128C 760.101,127.405 758.768,127.572 757.5,128.5C 756.438,127.575 756.438,126.575 757.5,125.5 Z"/></g>
<g><path style="opacity:1" fill="#414955" d="M 777.5,123.5 C 779.402,126.337 780.069,129.671 779.5,133.5C 773.887,134.921 771.72,132.921 773,127.5C 774.356,126.62 775.856,126.286 777.5,126.5C 777.5,125.5 777.5,124.5 777.5,123.5 Z"/></g>
<g><path style="opacity:1" fill="#d0d8e3" d="M 774.5,127.5 C 775.5,127.5 776.5,127.5 777.5,127.5C 777.884,129.665 777.217,131.332 775.5,132.5C 774.548,130.955 774.215,129.288 774.5,127.5 Z"/></g>
<g><path style="opacity:1" fill="#4e545c" d="M 356.5,99.5 C 356.5,120.167 356.5,140.833 356.5,161.5C 355.67,151.675 355.17,141.675 355,131.5C 354.722,132.416 354.222,133.082 353.5,133.5C 353.5,132.167 353.5,130.833 353.5,129.5C 354.117,129.611 354.617,129.944 355,130.5C 355.17,119.992 355.67,109.659 356.5,99.5 Z"/></g>
<g><path style="opacity:1" fill="#8f97a4" d="M 385.5,142.5 C 385.5,144.5 385.5,146.5 385.5,148.5C 384.788,149.739 383.788,150.239 382.5,150C 381.718,147.26 381.218,144.426 381,141.5C 380.722,142.416 380.222,143.082 379.5,143.5C 379.5,142.5 379.5,141.5 379.5,140.5C 380.735,140.279 381.735,139.612 382.5,138.5C 383.455,139.872 384.455,141.205 385.5,142.5 Z"/></g>
<g><path style="opacity:1" fill="#404954" d="M 379.5,140.5 C 379.5,141.5 379.5,142.5 379.5,143.5C 380.752,145.339 380.752,147.172 379.5,149C 377.19,149.497 374.857,149.663 372.5,149.5C 372.5,145.833 372.5,142.167 372.5,138.5C 374.527,138.338 376.527,138.505 378.5,139C 379.056,139.383 379.389,139.883 379.5,140.5 Z"/></g>
<g><path style="opacity:1" fill="#39404a" d="M 398.5,147.5 C 397.928,146.027 397.095,144.693 396,143.5C 395.998,146.051 395.164,148.051 393.5,149.5C 392.421,137.849 394.588,136.849 400,146.5C 400.333,144.167 400.667,141.833 401,139.5C 401.667,142.833 401.667,146.167 401,149.5C 400.292,148.619 399.458,147.953 398.5,147.5 Z"/></g>
<g><path style="opacity:1" fill="#c9d2dc" d="M 374.5,140.5 C 375.833,140.5 377.167,140.5 378.5,140.5C 378.5,141.5 378.5,142.5 378.5,143.5C 377.167,143.5 375.833,143.5 374.5,143.5C 374.5,142.5 374.5,141.5 374.5,140.5 Z"/></g>
<g><path style="opacity:1" fill="#3b434f" d="M 385.5,148.5 C 385.5,146.5 385.5,144.5 385.5,142.5C 391.334,140.933 393.001,143.1 390.5,149C 388.735,149.64 387.068,149.473 385.5,148.5 Z"/></g>
<g><path style="opacity:1" fill="#4b555f" d="M 408.5,141.5 C 409.942,142.82 410.608,144.486 410.5,146.5C 408.712,146.215 407.045,146.548 405.5,147.5C 406.776,148.645 408.109,148.645 409.5,147.5C 410.696,147.846 410.696,148.346 409.5,149C 404.507,150.509 402.507,148.675 403.5,143.5C 404.82,142.058 406.486,141.392 408.5,141.5 Z"/></g>
<g><path style="opacity:1" fill="#59606a" d="M 734.5,140.5 C 735.777,141.694 736.444,143.36 736.5,145.5C 736.167,147.167 735.833,148.833 735.5,150.5C 734.513,147.232 734.18,143.898 734.5,140.5 Z"/></g>
<g><path style="opacity:1" fill="#969696" d="M 316.5,146.5 C 316.5,146.167 316.5,145.833 316.5,145.5C 323.167,145.5 329.833,145.5 336.5,145.5C 336.334,149.514 336.501,153.514 337,157.5C 338.643,154.039 340.81,151.039 343.5,148.5C 341.272,152.612 338.772,156.612 336,160.5C 335.501,155.845 335.334,151.179 335.5,146.5C 329.167,146.5 322.833,146.5 316.5,146.5 Z"/></g>
<g><path style="opacity:1" fill="#c9d0da" d="M 386.5,143.5 C 387.833,143.5 389.167,143.5 390.5,143.5C 390.884,145.665 390.217,147.332 388.5,148.5C 386.783,147.332 386.116,145.665 386.5,143.5 Z"/></g>
<g><path style="opacity:1" fill="#272f3a" d="M 412.5,149.5 C 412.599,146.763 412.265,144.096 411.5,141.5C 412.222,141.082 412.722,140.416 413,139.5C 413.212,142.758 413.712,145.924 414.5,149C 413.906,149.464 413.239,149.631 412.5,149.5 Z"/></g>
<g><path style="opacity:1" fill="#3e4550" d="M 741.5,144.5 C 743.288,143.378 745.288,143.211 747.5,144C 745.981,145.351 744.648,146.851 743.5,148.5C 744.729,149.281 746.062,149.781 747.5,150C 739.927,151.297 738.927,149.63 744.5,145C 743.552,144.517 742.552,144.351 741.5,144.5 Z"/></g>
<g><path style="opacity:1" fill="#424a55" d="M 756.5,140.5 C 758.026,141.105 759.026,142.271 759.5,144C 758.167,146 758.167,148 759.5,150C 758.552,150.483 757.552,150.649 756.5,150.5C 756.5,147.167 756.5,143.833 756.5,140.5 Z"/></g>
<g><path style="opacity:1" fill="#7b7c7e" d="M 184.5,160.5 C 183.515,156.366 183.182,152.032 183.5,147.5C 177.833,147.5 172.167,147.5 166.5,147.5C 166.819,152.363 166.486,157.03 165.5,161.5C 165.5,156.5 165.5,151.5 165.5,146.5C 171.833,146.5 178.167,146.5 184.5,146.5C 184.5,151.167 184.5,155.833 184.5,160.5 Z"/></g>
<g><path style="opacity:1" fill="#586472" d="M 369.5,139.5 C 369.571,142.597 369.738,145.93 370,149.5C 370.374,150.416 370.874,151.25 371.5,152C 371.167,152.167 370.833,152.333 370.5,152.5C 366.999,148.469 366.666,144.136 369.5,139.5 Z"/></g>
<g><path style="opacity:1" fill="#c3cbd2" d="M 374.5,144.5 C 375.833,144.5 377.167,144.5 378.5,144.5C 378.5,145.5 378.5,146.5 378.5,147.5C 377.167,147.5 375.833,147.5 374.5,147.5C 374.5,146.5 374.5,145.5 374.5,144.5 Z"/></g>
<g><path style="opacity:1" fill="#a4a4a4" d="M 646.5,115.5 C 647.167,115.833 647.833,116.167 648.5,116.5C 648.5,126.167 648.5,135.833 648.5,145.5C 654.833,145.5 661.167,145.5 667.5,145.5C 667.335,149.182 667.501,152.848 668,156.5C 668.66,154.676 669.827,153.343 671.5,152.5C 670.679,155.663 669.012,158.33 666.5,160.5C 665.507,155.88 665.173,151.214 665.5,146.5C 659.833,146.5 654.167,146.5 648.5,146.5C 648.824,153.354 648.491,160.021 647.5,166.5C 647.5,165.833 647.167,165.5 646.5,165.5C 646.5,148.833 646.5,132.167 646.5,115.5 Z"/></g>
<g><path style="opacity:1" fill="#a7a7aa" d="M 684.5,100.5 C 684.5,121.5 684.5,142.5 684.5,163.5C 683.67,154.676 683.17,145.676 683,136.5C 682.617,137.056 682.117,137.389 681.5,137.5C 682.615,135.693 683.281,133.693 683.5,131.5C 683.036,128.583 682.036,125.916 680.5,123.5C 681.458,123.953 682.292,124.619 683,125.5C 683.171,116.99 683.671,108.657 684.5,100.5 Z"/></g>
<g><path style="opacity:1" fill="#48545e" d="M 698.5,140.5 C 700.64,142.7 702.14,145.367 703,148.5C 703.735,146.129 704.568,143.795 705.5,141.5C 706.167,140.167 706.833,140.167 707.5,141.5C 706.199,144.427 705.199,147.427 704.5,150.5C 703.5,150.5 702.5,150.5 701.5,150.5C 700.508,147.177 699.508,143.844 698.5,140.5 Z"/></g>
<g><path style="opacity:1" fill="#3d4650" d="M 713.5,142.5 C 714.995,142.415 715.995,143.081 716.5,144.5C 715.603,144.669 714.603,145.002 713.5,145.5C 714.628,146.262 715.795,146.929 717,147.5C 717.617,148.449 717.451,149.282 716.5,150C 714.741,150.798 713.074,150.631 711.5,149.5C 712.687,149.446 714.02,149.113 715.5,148.5C 711.342,147.367 710.675,145.367 713.5,142.5 Z"/></g>
<g><path style="opacity:1" fill="#49515c" d="M 760.5,143.5 C 761.725,144.152 762.392,145.319 762.5,147C 762.167,148.167 761.833,149.333 761.5,150.5C 760.526,148.257 760.192,145.924 760.5,143.5 Z"/></g>
<g><path style="opacity:1" fill="#3c4450" d="M 764.5,143.5 C 770.158,142.679 771.825,144.846 769.5,150C 763.741,151.139 762.074,148.972 764.5,143.5 Z"/></g>
<g><path style="opacity:1" fill="#c5ced9" d="M 765.5,144.5 C 766.5,144.5 767.5,144.5 768.5,144.5C 768.5,146.167 768.5,147.833 768.5,149.5C 764.716,149.475 763.716,147.808 765.5,144.5 Z"/></g>
<g><path style="opacity:1" fill="#7f8183" d="M 510.5,148.5 C 504.5,148.5 498.5,148.5 492.5,148.5C 492.818,153.032 492.485,157.366 491.5,161.5C 491.5,156.833 491.5,152.167 491.5,147.5C 498.022,147.177 504.355,147.51 510.5,148.5 Z"/></g>
<g><path style="opacity:1" fill="#a5a5a5" d="M 681.5,137.5 C 678.908,143.024 675.575,148.024 671.5,152.5C 674.056,146.951 677.39,141.951 681.5,137.5 Z"/></g>
<g><path style="opacity:1" fill="#474f5b" d="M 771.5,143.5 C 773.5,143.5 775.5,143.5 777.5,143.5C 777.663,145.857 777.497,148.19 777,150.5C 776.505,148.527 776.338,146.527 776.5,144.5C 775.5,144.5 774.5,144.5 773.5,144.5C 773.799,146.604 773.466,148.604 772.5,150.5C 771.526,148.257 771.192,145.924 771.5,143.5 Z"/></g>
<g><path style="opacity:1" fill="#49515d" d="M 718.5,143.5 C 720.036,145.025 721.036,147.025 721.5,149.5C 722.988,147.851 723.988,145.851 724.5,143.5C 725.474,145.743 725.808,148.076 725.5,150.5C 719.5,151.833 717.167,149.5 718.5,143.5 Z"/></g>
<g><path style="opacity:1" fill="#5a626b" d="M 727.5,143.5 C 729.5,143.5 731.5,143.5 733.5,143.5C 733.5,145.833 733.5,148.167 733.5,150.5C 731.167,150.5 728.833,150.5 726.5,150.5C 726.548,147.365 728.215,145.698 731.5,145.5C 730.224,144.355 728.891,144.355 727.5,145.5C 726.537,145.03 726.537,144.363 727.5,143.5 Z"/></g>
<g><path style="opacity:1" fill="#4f5763" d="M 748.5,143.5 C 750.5,143.5 752.5,143.5 754.5,143.5C 754.5,145.833 754.5,148.167 754.5,150.5C 752.5,150.5 750.5,150.5 748.5,150.5C 748.325,147.671 749.658,146.004 752.5,145.5C 751.349,144.269 750.183,144.269 749,145.5C 748.536,144.906 748.369,144.239 748.5,143.5 Z"/></g>
<g><path style="opacity:1" fill="#121924" d="M 419.5,157.5 C 420.205,160.228 420.872,163.061 421.5,166C 421.167,166.167 420.833,166.333 420.5,166.5C 419.516,163.572 419.183,160.572 419.5,157.5 Z"/></g>
<g><path style="opacity:1" fill="#0f151e" d="M 439.5,157.5 C 440.205,160.228 440.872,163.061 441.5,166C 441.167,166.167 440.833,166.333 440.5,166.5C 439.516,163.572 439.183,160.572 439.5,157.5 Z"/></g>
<g><path style="opacity:1" fill="#5c6571" d="M 444.5,158.5 C 446.484,158.383 448.15,159.05 449.5,160.5C 447.997,161.052 446.331,161.052 444.5,160.5C 443.952,164.795 445.619,166.295 449.5,165C 445.733,168.688 443.4,167.855 442.5,162.5C 442.752,160.927 443.418,159.594 444.5,158.5 Z"/></g>
<g><path style="opacity:1" fill="#3d4752" d="M 367.5,156.5 C 370.167,156.5 372.833,156.5 375.5,156.5C 376.5,161.5 374.5,163.5 369.5,162.5C 369.762,163.978 369.429,165.311 368.5,166.5C 367.513,163.232 367.18,159.898 367.5,156.5 Z"/></g>
<g><path style="opacity:1" fill="#a1adb9" d="M 369.5,157.5 C 371.665,157.116 373.332,157.783 374.5,159.5C 373.332,161.217 371.665,161.884 369.5,161.5C 369.5,160.167 369.5,158.833 369.5,157.5 Z"/></g>
<g><path style="opacity:1" fill="#464f5a" d="M 378.5,158.5 C 383.365,158.684 385.032,161.018 383.5,165.5C 381.604,166.466 379.604,166.799 377.5,166.5C 377.279,163.721 377.612,161.054 378.5,158.5 Z"/></g>
<g><path style="opacity:1" fill="#49505a" d="M 407.5,156.5 C 408.167,156.5 408.833,156.5 409.5,156.5C 410.579,168.151 408.412,169.151 403,159.5C 402.814,161.9 402.314,164.234 401.5,166.5C 400.167,163.167 400.167,159.833 401.5,156.5C 403.858,158.024 405.691,160.024 407,162.5C 407.495,160.527 407.662,158.527 407.5,156.5 Z"/></g>
<g><path style="opacity:1" fill="#767e87" d="M 432.5,159.5 C 434.455,158.07 436.121,158.403 437.5,160.5C 436.134,162.351 434.467,162.684 432.5,161.5C 433.55,160.571 433.55,159.905 432.5,159.5 Z"/></g>
<g><path style="opacity:1" fill="#c0cad5" d="M 378.5,160.5 C 379.833,160.5 381.167,160.5 382.5,160.5C 382.5,162.167 382.5,163.833 382.5,165.5C 381.167,165.5 379.833,165.5 378.5,165.5C 378.5,163.833 378.5,162.167 378.5,160.5 Z"/></g>
<g><path style="opacity:1" fill="#515862" d="M 396.5,157.5 C 397.995,157.415 398.995,158.081 399.5,159.5C 398.629,162.032 398.295,164.365 398.5,166.5C 397.914,166.291 397.414,165.957 397,165.5C 396.503,162.854 396.336,160.187 396.5,157.5 Z"/></g>
<g><path style="opacity:1" fill="#313944" d="M 431.5,159.5 C 431.833,159.5 432.167,159.5 432.5,159.5C 433.55,159.905 433.55,160.571 432.5,161.5C 434.467,162.684 436.134,162.351 437.5,160.5C 437.5,161.5 437.5,162.5 437.5,163.5C 435.801,163.34 434.134,163.506 432.5,164C 433.025,164.692 433.692,165.192 434.5,165.5C 435.451,164.674 436.451,164.508 437.5,165C 434.537,167.244 432.204,166.744 430.5,163.5C 430.833,162.167 431.167,160.833 431.5,159.5 Z"/></g>
<g><path style="opacity:1" fill="#525f6c" d="M 450.5,156.5 C 452.074,156.937 453.241,157.937 454,159.5C 454.46,162.962 453.96,166.296 452.5,169.5C 451.761,169.631 451.094,169.464 450.5,169C 453.12,164.835 453.12,160.668 450.5,156.5 Z"/></g>
<g><path style="opacity:1" fill="#3c4450" d="M 391.5,158.5 C 391.833,158.5 392.167,158.5 392.5,158.5C 393.117,158.611 393.617,158.944 394,159.5C 394.667,161.833 394.667,164.167 394,166.5C 393.505,164.527 393.338,162.527 393.5,160.5C 392.178,160.33 391.011,160.663 390,161.5C 389.667,163.167 389.333,164.833 389,166.5C 388.503,164.19 388.337,161.857 388.5,159.5C 389.791,159.737 390.791,159.404 391.5,158.5 Z"/></g>
<g><path style="opacity:1" fill="#4a535c" d="M 412.5,158.5 C 413.5,158.5 414.5,158.5 415.5,158.5C 416.942,159.82 417.608,161.486 417.5,163.5C 415.712,163.215 414.045,163.548 412.5,164.5C 413.776,165.645 415.109,165.645 416.5,164.5C 417.696,164.846 417.696,165.346 416.5,166C 410.391,166.289 409.058,163.789 412.5,158.5 Z"/></g>
<g><path style="opacity:1" fill="#b8b8b8" d="M 632.5,179.5 C 631.833,178.833 631.167,178.167 630.5,177.5C 630.328,176.508 630.662,175.842 631.5,175.5C 632.766,174.347 633.766,172.347 634.5,169.5C 637.106,168.348 639.773,168.182 642.5,169C 638.963,172.369 635.629,175.869 632.5,179.5 Z"/></g>
<g><path style="opacity:1" fill="#181a1d" d="M 152.5,87.5 C 164.946,92.2282 169.279,101.228 165.5,114.5C 171.833,114.5 178.167,114.5 184.5,114.5C 184.173,109.786 184.507,105.12 185.5,100.5C 185.833,100.667 186.167,100.833 186.5,101C 192.732,109.989 199.066,118.822 205.5,127.5C 205.833,127.5 206.167,127.5 206.5,127.5C 206.5,129.833 206.5,132.167 206.5,134.5C 205.508,134.328 204.842,134.662 204.5,135.5C 199.677,142.471 194.843,149.471 190,156.5C 188.549,158.464 186.716,159.797 184.5,160.5C 184.5,155.833 184.5,151.167 184.5,146.5C 178.167,146.5 171.833,146.5 165.5,146.5C 165.5,151.5 165.5,156.5 165.5,161.5C 163.648,168.185 159.314,172.351 152.5,174C 114.5,174.667 76.5,174.667 38.5,174C 34.7252,172.389 31.7252,169.889 29.5,166.5C 29.1077,164.821 28.6077,163.154 28,161.5C 27.1892,140.124 27.3558,118.79 28.5,97.5C 29.7451,93.2539 32.4118,90.2539 36.5,88.5C 75.1238,87.5121 113.79,87.1787 152.5,87.5 Z"/></g>
<g><path style="opacity:1" fill="#cedbea" d="M 186.5,106.5 C 193.214,114.236 199.214,122.57 204.5,131.5C 198.422,139.323 192.589,147.323 187,155.5C 186.501,151.848 186.335,148.182 186.5,144.5C 179.5,144.5 172.5,144.5 165.5,144.5C 165.5,135.5 165.5,126.5 165.5,117.5C 172.5,117.5 179.5,117.5 186.5,117.5C 186.5,113.833 186.5,110.167 186.5,106.5 Z"/></g>
<g><path style="opacity:1" fill="#d0dfee" d="M 37.5,90.5 C 77.2523,90.0118 116.919,90.5118 156.5,92C 159.04,94.2047 161.207,96.7047 163,99.5C 163.667,120.167 163.667,140.833 163,161.5C 161.167,166 158,169.167 153.5,171C 115.167,171.667 76.8333,171.667 38.5,171C 34.4172,169.035 31.5839,165.869 30,161.5C 29.3333,140.833 29.3333,120.167 30,99.5C 31.6416,95.6997 34.1416,92.6997 37.5,90.5 Z"/></g>
<g><path style="opacity:1" fill="#38414c" d="M 127.5,122.5 C 128.479,125.625 128.813,128.958 128.5,132.5C 122.933,133.247 121.1,130.913 123,125.5C 125.026,125.085 126.526,124.085 127.5,122.5 Z"/></g>
<g><path style="opacity:1" fill="#515c67" d="M 107.5,124.5 C 109.308,125.918 109.975,127.918 109.5,130.5C 110.5,130.5 111.5,130.5 112.5,130.5C 112.201,128.396 112.534,126.396 113.5,124.5C 114.48,127.086 114.813,129.753 114.5,132.5C 108.095,133.594 105.762,130.927 107.5,124.5 Z"/></g>
<g><path style="opacity:1" fill="#737d87" d="M 115.5,121.5 C 117.167,121.5 118.833,121.5 120.5,121.5C 120.5,125.167 120.5,128.833 120.5,132.5C 118.833,132.5 117.167,132.5 115.5,132.5C 115.5,129.833 115.5,127.167 115.5,124.5C 116.552,124.649 117.552,124.483 118.5,124C 116.881,123.764 115.881,122.931 115.5,121.5 Z"/></g>
<g><path style="opacity:1" fill="#626c76" d="M 59.5,122.5 C 61.3103,125.372 62.3103,128.705 62.5,132.5C 61.5041,132.586 60.6708,132.252 60,131.5C 59.502,128.518 59.3354,125.518 59.5,122.5 Z"/></g>
<g><path style="opacity:1" fill="#3d4751" d="M 87.5,122.5 C 88.1614,123.718 88.8281,125.051 89.5,126.5C 92.8525,124.024 93.1859,124.524 90.5,128C 91.7433,129.154 92.7433,130.488 93.5,132C 92.0024,132.585 91.0024,132.085 90.5,130.5C 90.44,129.957 90.1067,129.624 89.5,129.5C 88.7492,130.376 88.2492,131.376 88,132.5C 87.5017,129.183 87.335,125.85 87.5,122.5 Z"/></g>
<g><path style="opacity:1" fill="#7a848e" d="M 58.5,128.5 C 58.3427,132.273 56.676,133.273 53.5,131.5C 52.9816,125.287 54.6482,124.287 58.5,128.5 Z"/></g>
<g><path style="opacity:1" fill="#616973" d="M 132.5,124.5 C 137.643,125.402 138.643,127.902 135.5,132C 130.917,132.934 129.417,131.1 131,126.5C 131.717,125.956 132.217,125.289 132.5,124.5 Z"/></g>
<g><path style="opacity:1" fill="#454d58" d="M 140.5,124.5 C 141.376,124.369 142.043,124.702 142.5,125.5C 141.119,127.635 140.119,129.968 139.5,132.5C 138.121,129.533 138.454,126.866 140.5,124.5 Z"/></g>
<g><path style="opacity:1" fill="#bac3cc" d="M 123.5,126.5 C 124.833,126.5 126.167,126.5 127.5,126.5C 127.884,128.665 127.217,130.332 125.5,131.5C 123.783,130.332 123.116,128.665 123.5,126.5 Z"/></g>
<g><path style="opacity:1" fill="#3f464f" d="M 58.5,128.5 C 54.6482,124.287 52.9816,125.287 53.5,131.5C 50.8661,129.46 50.8661,127.293 53.5,125C 56.3682,124.36 58.0349,125.527 58.5,128.5 Z"/></g>
<g><path style="opacity:1" fill="#48505a" d="M 50.5,121.5 C 50.8226,125.226 50.4892,128.893 49.5,132.5C 47.443,130.731 45.6097,128.731 44,126.5C 43.8078,128.577 43.3078,130.577 42.5,132.5C 41.52,129.914 41.1866,127.247 41.5,124.5C 41.5173,122.972 42.184,122.472 43.5,123C 44.8804,124.925 46.3804,126.759 48,128.5C 47.9698,125.639 48.8031,123.305 50.5,121.5 Z"/></g>
<g><path style="opacity:1" fill="#464f59" d="M 98.5,121.5 C 101.908,120.828 104.575,121.828 106.5,124.5C 106.314,126.815 105.98,129.149 105.5,131.5C 103.253,132.374 100.92,132.708 98.5,132.5C 98.5,128.833 98.5,125.167 98.5,121.5 Z"/></g>
<g><path style="opacity:1" fill="#c1cbd3" d="M 100.5,127.5 C 101.833,127.5 103.167,127.5 104.5,127.5C 104.5,128.5 104.5,129.5 104.5,130.5C 103.167,130.5 101.833,130.5 100.5,130.5C 100.5,129.5 100.5,128.5 100.5,127.5 Z"/></g>
<g><path style="opacity:1" fill="#a6afb7" d="M 99.5,123.5 C 101.167,123.5 102.833,123.5 104.5,123.5C 104.5,124.5 104.5,125.5 104.5,126.5C 102.833,126.5 101.167,126.5 99.5,126.5C 99.5,125.5 99.5,124.5 99.5,123.5 Z"/></g>
<g><path style="opacity:1" fill="#c8d4e2" d="M 79.5,105.5 C 77.8684,109.195 76.5351,109.195 75.5,105.5C 74.1259,108.363 73.1259,111.363 72.5,114.5C 72.8333,114.833 73.1667,115.167 73.5,115.5C 74.6667,113.833 75.8333,112.167 77,110.5C 78.1667,112.167 79.3333,113.833 80.5,115.5C 81.2975,115.043 81.6309,114.376 81.5,113.5C 82.9538,114.52 83.2871,115.687 82.5,117C 83.4706,118.204 84.4706,118.704 85.5,118.5C 84.2528,120.323 83.5861,122.323 83.5,124.5C 85.1993,124.473 86.5326,123.806 87.5,122.5C 87.335,125.85 87.5017,129.183 88,132.5C 88.2492,131.376 88.7492,130.376 89.5,129.5C 90.1067,129.624 90.44,129.957 90.5,130.5C 89.5655,131.568 89.2322,132.901 89.5,134.5C 86.9327,134.279 84.5994,133.612 82.5,132.5C 81.5,132.5 80.5,132.5 79.5,132.5C 76.995,133.497 74.3283,133.497 71.5,132.5C 71.7563,130.063 72.4229,127.729 73.5,125.5C 73.1667,125.167 72.8333,124.833 72.5,124.5C 71.4968,126.542 70.1634,126.875 68.5,125.5C 67.4164,126.665 66.5831,127.998 66,129.5C 65.7104,127.956 65.0437,126.623 64,125.5C 64.1571,127.831 64.6571,130.164 65.5,132.5C 64.3478,133.625 63.3478,133.625 62.5,132.5C 62.3103,128.705 61.3103,125.372 59.5,122.5C 58.7375,121.732 57.7375,121.232 56.5,121C 57.1667,120.667 57.8333,120.333 58.5,120C 57.376,119.751 56.376,119.251 55.5,118.5C 56.1667,118.167 56.8333,117.833 57.5,117.5C 57.1924,116.692 56.6924,116.025 56,115.5C 54.2663,116.249 52.433,116.749 50.5,117C 50.9662,118.299 50.9662,119.799 50.5,121.5C 48.8031,123.305 47.9698,125.639 48,128.5C 46.3804,126.759 44.8804,124.925 43.5,123C 42.184,122.472 41.5173,122.972 41.5,124.5C 40.71,125.609 40.21,126.942 40,128.5C 39.2419,126.231 39.4086,124.064 40.5,122C 43.4245,121.012 46.4245,120.346 49.5,120C 48.6919,119.692 48.0253,119.192 47.5,118.5C 47.8457,117.304 48.3457,117.304 49,118.5C 49.7401,117.251 49.5735,116.251 48.5,115.5C 50.2681,112.838 50.9347,109.838 50.5,106.5C 51.609,106.443 52.609,106.11 53.5,105.5C 53.0445,108.203 52.3779,110.87 51.5,113.5C 51.8333,114.167 52.1667,114.833 52.5,115.5C 53.6409,112.938 54.4743,110.272 55,107.5C 55.1858,109.9 55.6858,112.234 56.5,114.5C 57.1835,114.137 57.8501,113.804 58.5,113.5C 59.1515,114.091 59.8182,114.757 60.5,115.5C 61.8177,112.495 62.8177,109.495 63.5,106.5C 64.1667,105.833 64.8333,105.167 65.5,104.5C 66.1079,105.8 66.7745,107.133 67.5,108.5C 66.6042,110.801 66.4375,113.134 67,115.5C 68.6044,112.753 69.4378,109.753 69.5,106.5C 70.9778,106.762 72.3112,106.429 73.5,105.5C 73.3764,104.893 73.0431,104.56 72.5,104.5C 72.4614,103.244 72.9614,102.244 74,101.5C 75.9519,102.747 77.7853,104.081 79.5,105.5 Z"/></g>
<g><path style="opacity:1" fill="#3b444f" d="M 79.5,132.5 C 77.8561,132.714 76.3561,132.38 75,131.5C 74.2419,129.231 74.4086,127.064 75.5,125C 77.1124,124.28 78.6124,124.446 80,125.5C 80.7033,127.929 80.5366,130.262 79.5,132.5 Z"/></g>
<g><path style="opacity:1" fill="#c4ced7" d="M 75.5,126.5 C 76.8333,126.5 78.1667,126.5 79.5,126.5C 79.8841,128.665 79.2174,130.332 77.5,131.5C 75.7826,130.332 75.1159,128.665 75.5,126.5 Z"/></g>
<g><path style="opacity:1" fill="#434d56" d="M 71.5,132.5 C 69.5891,132.426 68.4224,131.426 68,129.5C 67.6232,130.942 66.7899,131.942 65.5,132.5C 64.6571,130.164 64.1571,127.831 64,125.5C 65.0437,126.623 65.7104,127.956 66,129.5C 66.5831,127.998 67.4164,126.665 68.5,125.5C 70.1634,126.875 71.4968,126.542 72.5,124.5C 72.8333,124.833 73.1667,125.167 73.5,125.5C 72.4229,127.729 71.7563,130.063 71.5,132.5 Z"/></g>
<g><path style="opacity:1" fill="#11171f" d="M 82.5,132.5 C 82.1924,130.076 82.5258,127.743 83.5,125.5C 83.8333,125.667 84.1667,125.833 84.5,126C 83.8828,128.277 83.2161,130.444 82.5,132.5 Z"/></g>
<g><path style="opacity:1" fill="#21262e" d="M 50.5,106.5 C 50.9347,109.838 50.2681,112.838 48.5,115.5C 46.1667,115.5 43.8333,115.5 41.5,115.5C 41.7244,111.821 42.0578,108.154 42.5,104.5C 44.8568,104.337 47.1902,104.503 49.5,105C 50.056,105.383 50.3893,105.883 50.5,106.5 Z"/></g>
<g><path style="opacity:1" fill="#b2b7bf" d="M 44.5,110.5 C 45.8333,110.5 47.1667,110.5 48.5,110.5C 48.5,111.5 48.5,112.5 48.5,113.5C 46.712,113.785 45.0453,113.452 43.5,112.5C 43.8627,111.817 44.1961,111.15 44.5,110.5 Z"/></g>
<g><path style="opacity:1" fill="#20252e" d="M 81.5,113.5 C 81.6309,114.376 81.2975,115.043 80.5,115.5C 79.3333,113.833 78.1667,112.167 77,110.5C 75.8333,112.167 74.6667,113.833 73.5,115.5C 73.1667,115.167 72.8333,114.833 72.5,114.5C 73.1259,111.363 74.1259,108.363 75.5,105.5C 76.5351,109.195 77.8684,109.195 79.5,105.5C 80.7382,104.588 82.0715,104.421 83.5,105C 79.2729,107.22 78.6063,110.054 81.5,113.5 Z"/></g>
<g><path style="opacity:1" fill="#40454f" d="M 53.5,105.5 C 54.5676,104.566 55.901,104.232 57.5,104.5C 57.2165,110.925 58.2165,111.091 60.5,105C 62.1575,104.275 63.1575,104.775 63.5,106.5C 62.8177,109.495 61.8177,112.495 60.5,115.5C 59.8182,114.757 59.1515,114.091 58.5,113.5C 57.0318,111.084 56.3651,108.417 56.5,105.5C 55.5,105.5 54.5,105.5 53.5,105.5 Z"/></g>
<g><path style="opacity:1" fill="#898e97" d="M 44.5,106.5 C 45.9778,106.238 47.3112,106.571 48.5,107.5C 47.6798,109.111 46.3464,109.778 44.5,109.5C 44.5,108.5 44.5,107.5 44.5,106.5 Z"/></g>
<g><path style="opacity:1" fill="#181d25" d="M 53.5,105.5 C 54.5,105.5 55.5,105.5 56.5,105.5C 56.3651,108.417 57.0318,111.084 58.5,113.5C 57.8501,113.804 57.1835,114.137 56.5,114.5C 55.6858,112.234 55.1858,109.9 55,107.5C 54.4743,110.272 53.6409,112.938 52.5,115.5C 52.1667,114.833 51.8333,114.167 51.5,113.5C 52.3779,110.87 53.0445,108.203 53.5,105.5 Z"/></g>
<g><path style="opacity:1" fill="#282d37" d="M 65.5,104.5 C 67.8333,104.5 70.1667,104.5 72.5,104.5C 73.0431,104.56 73.3764,104.893 73.5,105.5C 72.3112,106.429 70.9778,106.762 69.5,106.5C 69.4378,109.753 68.6044,112.753 67,115.5C 66.4375,113.134 66.6042,110.801 67.5,108.5C 66.7745,107.133 66.1079,105.8 65.5,104.5 Z"/></g>
<g><path style="opacity:1" fill="#adacac" d="M 419.5,174.5 C 420.833,174.5 422.167,174.5 423.5,174.5C 416.648,178.076 409.648,181.576 402.5,185C 406.025,185.179 409.359,185.679 412.5,186.5C 411.833,186.5 411.5,186.833 411.5,187.5C 406.786,187.827 402.12,187.493 397.5,186.5C 397.667,186.167 397.833,185.833 398,185.5C 405.431,182.202 412.598,178.535 419.5,174.5 Z"/></g>
<g><path style="opacity:1" fill="#696969" d="M 646.5,165.5 C 647.167,165.5 647.5,165.833 647.5,166.5C 642.526,171.139 637.526,175.805 632.5,180.5C 632.5,180.167 632.5,179.833 632.5,179.5C 635.629,175.869 638.963,172.369 642.5,169C 639.773,168.182 637.106,168.348 634.5,169.5C 633.766,172.347 632.766,174.347 631.5,175.5C 631.687,173.436 632.187,171.436 633,169.5C 636.919,166.558 641.419,165.224 646.5,165.5 Z"/></g>
<g><path style="opacity:1" fill="#ededed" d="M 429.5,174.5 C 436.408,177.954 443.408,181.454 450.5,185C 447.518,185.498 444.518,185.665 441.5,185.5C 441.5,190.5 441.5,195.5 441.5,200.5C 431.833,200.5 422.167,200.5 412.5,200.5C 412.5,195.833 412.5,191.167 412.5,186.5C 409.359,185.679 406.025,185.179 402.5,185C 409.648,181.576 416.648,178.076 423.5,174.5C 425.5,171.833 427.5,171.833 429.5,174.5 Z"/></g>
<g><path style="opacity:1" fill="#2c2c2c" d="M 536.5,79.5 C 537.167,79.5 537.5,79.8333 537.5,80.5C 537.5,114.167 537.5,147.833 537.5,181.5C 568.174,181.833 598.841,181.5 629.5,180.5C 630.127,179.583 630.461,178.583 630.5,177.5C 631.167,178.167 631.833,178.833 632.5,179.5C 632.5,179.833 632.5,180.167 632.5,180.5C 631.711,180.783 631.044,181.283 630.5,182C 599.168,182.5 567.835,182.667 536.5,182.5C 536.5,148.167 536.5,113.833 536.5,79.5 Z"/></g>
<g><path style="opacity:1" fill="#cccccc" d="M 207.5,81.5 C 207.5,115.167 207.5,148.833 207.5,182.5C 237.833,182.5 268.167,182.5 298.5,182.5C 268.005,183.498 237.338,183.831 206.5,183.5C 206.5,167.167 206.5,150.833 206.5,134.5C 206.5,132.167 206.5,129.833 206.5,127.5C 206.17,111.991 206.504,96.6576 207.5,81.5 Z"/></g>
<g><path style="opacity:1" fill="#5a5a5a" d="M 316.5,80.5 C 316.5,92.1667 316.5,103.833 316.5,115.5C 316.5,115.833 316.5,116.167 316.5,116.5C 316.5,126.167 316.5,135.833 316.5,145.5C 316.5,145.833 316.5,146.167 316.5,146.5C 316.666,153.508 316.5,160.508 316,167.5C 310.5,173 305,178.5 299.5,184C 268.168,184.5 236.835,184.667 205.5,184.5C 205.83,167.991 205.496,151.658 204.5,135.5C 204.842,134.662 205.508,134.328 206.5,134.5C 206.5,150.833 206.5,167.167 206.5,183.5C 237.338,183.831 268.005,183.498 298.5,182.5C 298.756,177.804 300.089,173.471 302.5,169.5C 306.701,167.876 311.034,166.876 315.5,166.5C 315.5,138.167 315.5,109.833 315.5,81.5C 315.5,80.8333 315.833,80.5 316.5,80.5 Z"/></g>
<g><path style="opacity:1" fill="#b6b6b6" d="M 309.5,168.5 C 310.552,168.351 311.552,168.517 312.5,169C 308.667,172.833 304.833,176.667 301,180.5C 301.288,177.209 301.788,173.875 302.5,170.5C 305.067,170.279 307.401,169.612 309.5,168.5 Z"/></g>
<g><path style="opacity:1" fill="#a5a5a5" d="M 429.5,174.5 C 430.833,174.5 432.167,174.5 433.5,174.5C 440.948,178.726 448.615,182.726 456.5,186.5C 451.88,187.493 447.214,187.827 442.5,187.5C 442.5,191.833 442.5,196.167 442.5,200.5C 442.167,200.5 441.833,200.5 441.5,200.5C 441.5,195.5 441.5,190.5 441.5,185.5C 444.518,185.665 447.518,185.498 450.5,185C 443.408,181.454 436.408,177.954 429.5,174.5 Z"/></g>
<g><path style="opacity:1" fill="#474747" d="M 412.5,186.5 C 412.5,191.167 412.5,195.833 412.5,200.5C 422.167,200.5 431.833,200.5 441.5,200.5C 441.833,200.5 442.167,200.5 442.5,200.5C 453.167,200.5 463.833,200.5 474.5,200.5C 474.5,201.167 474.167,201.5 473.5,201.5C 442.167,201.5 410.833,201.5 379.5,201.5C 379.5,201.167 379.5,200.833 379.5,200.5C 390.167,200.5 400.833,200.5 411.5,200.5C 411.5,196.167 411.5,191.833 411.5,187.5C 411.5,186.833 411.833,186.5 412.5,186.5 Z"/></g>
<g><path style="opacity:1" fill="#ebebeb" d="M 379.5,201.5 C 410.833,201.5 442.167,201.5 473.5,201.5C 474.143,227.061 473.476,252.394 471.5,277.5C 468.399,277.692 465.399,278.358 462.5,279.5C 461.16,283.19 459.826,286.856 458.5,290.5C 432.5,290.5 406.5,290.5 380.5,290.5C 379.502,261.005 379.169,231.338 379.5,201.5 Z"/></g>
<g><path style="opacity:1" fill="#8d8d8d" d="M 474.5,200.5 C 475.663,225.997 475.83,251.663 475,277.5C 474.617,278.056 474.117,278.389 473.5,278.5C 473.158,277.662 472.492,277.328 471.5,277.5C 473.476,252.394 474.143,227.061 473.5,201.5C 474.167,201.5 474.5,201.167 474.5,200.5 Z"/></g>
<g><path style="opacity:1" fill="#666666" d="M 379.5,200.5 C 379.5,200.833 379.5,201.167 379.5,201.5C 379.169,231.338 379.502,261.005 380.5,290.5C 380.158,291.338 379.492,291.672 378.5,291.5C 378.169,260.995 378.502,230.662 379.5,200.5 Z"/></g>
<g><path style="opacity:1" fill="#595959" d="M 416.5,212.5 C 417.479,215.625 417.813,218.958 417.5,222.5C 416.209,222.737 415.209,222.404 414.5,221.5C 416.388,219.012 417.055,216.012 416.5,212.5 Z"/></g>
<g><path style="opacity:1" fill="#1a1a1a" d="M 428.5,213.5 C 430.628,212.371 432.961,212.204 435.5,213C 433.961,215.878 432.961,219.045 432.5,222.5C 431.516,219.572 431.183,216.572 431.5,213.5C 430.5,213.5 429.5,213.5 428.5,213.5 Z"/></g>
<g><path style="opacity:1" fill="#6d6d6d" d="M 424.5,212.5 C 425.674,213.514 426.34,214.847 426.5,216.5C 425.883,216.389 425.383,216.056 425,215.5C 424.751,216.624 424.251,217.624 423.5,218.5C 423.167,218 422.833,217.5 422.5,217C 423.414,215.594 424.08,214.094 424.5,212.5 Z"/></g>
<g><path style="opacity:1" fill="#5b5b5b" d="M 441.5,212.5 C 443.008,214.181 444.008,216.181 444.5,218.5C 443.027,217.929 441.36,217.929 439.5,218.5C 440.167,216.5 440.833,214.5 441.5,212.5 Z"/></g>
<g><path style="opacity:1" fill="#303030" d="M 389.5,212.5 C 396.576,212.857 396.909,213.857 390.5,215.5C 395.199,216.007 396.532,218.341 394.5,222.5C 392.5,222.5 390.5,222.5 388.5,222.5C 388.351,221.448 388.517,220.448 389,219.5C 390.494,220.747 391.994,220.747 393.5,219.5C 391.614,218.594 389.78,217.594 388,216.5C 387.227,214.648 387.727,213.314 389.5,212.5 Z"/></g>
<g><path style="opacity:1" fill="#262626" d="M 416.5,212.5 C 417.055,216.012 416.388,219.012 414.5,221.5C 413.343,219.862 412.176,218.196 411,216.5C 410.808,218.577 410.308,220.577 409.5,222.5C 408.513,219.232 408.18,215.898 408.5,212.5C 409.552,212.351 410.552,212.517 411.5,213C 412.542,214.918 413.708,216.751 415,218.5C 415.191,216.292 415.691,214.292 416.5,212.5 Z"/></g>
<g><path style="opacity:1" fill="#1b1b1b" d="M 424.5,212.5 C 424.08,214.094 423.414,215.594 422.5,217C 422.833,217.5 423.167,218 423.5,218.5C 424.251,217.624 424.751,216.624 425,215.5C 425.383,216.056 425.883,216.389 426.5,216.5C 427.014,218.512 427.18,220.512 427,222.5C 424.589,219.895 422.089,219.895 419.5,222.5C 419.131,219.402 419.964,216.402 422,213.5C 422.671,212.748 423.504,212.414 424.5,212.5 Z"/></g>
<g><path style="opacity:1" fill="#1f1f1f" d="M 441.5,212.5 C 440.833,214.5 440.167,216.5 439.5,218.5C 441.36,217.929 443.027,217.929 444.5,218.5C 445.88,222.937 444.713,223.604 441,220.5C 439.188,220.493 437.688,221.16 436.5,222.5C 436.131,219.402 436.964,216.402 439,213.5C 439.671,212.748 440.504,212.414 441.5,212.5 Z"/></g>
<g><path style="opacity:1" fill="#2f2f2f" d="M 399.5,212.5 C 407.49,212.086 409.49,215.253 405.5,222C 403.527,222.495 401.527,222.662 399.5,222.5C 396.833,219.167 396.833,215.833 399.5,212.5 Z"/></g>
<g><path style="opacity:1" fill="#dadada" d="M 400.5,214.5 C 405.159,214.015 406.492,215.848 404.5,220C 399.728,220.81 398.395,218.977 400.5,214.5 Z"/></g>
<g><path style="opacity:1" fill="#d4d4d4" d="M 389.5,212.5 C 392.698,211.3 396.031,211.3 399.5,212.5C 396.833,215.833 396.833,219.167 399.5,222.5C 398.624,222.369 397.957,222.702 397.5,223.5C 398.43,226.397 400.097,228.73 402.5,230.5C 405.482,229.713 408.149,230.38 410.5,232.5C 406.958,232.187 403.625,232.521 400.5,233.5C 399.539,235.265 399.205,237.265 399.5,239.5C 398.041,239.567 396.708,239.234 395.5,238.5C 395.56,234.515 393.56,232.848 389.5,233.5C 389.5,232.5 389.5,231.5 389.5,230.5C 391.722,230.178 393.556,230.845 395,232.5C 395.617,231.551 395.451,230.718 394.5,230C 393.207,229.51 391.873,229.343 390.5,229.5C 390.297,227.956 389.63,226.622 388.5,225.5C 388.833,225.167 389.167,224.833 389.5,224.5C 390.845,225.347 391.845,226.513 392.5,228C 394.074,228.699 395.407,228.365 396.5,227C 395.5,226 394.5,225 393.5,224C 394.056,223.617 394.389,223.117 394.5,222.5C 396.532,218.341 395.199,216.007 390.5,215.5C 396.909,213.857 396.576,212.857 389.5,212.5 Z"/></g>
<g><path style="opacity:1" fill="#545454" d="M 410.5,232.5 C 411.714,234.808 411.714,237.141 410.5,239.5C 409.04,231.721 407.373,231.721 405.5,239.5C 404.167,231.5 402.833,231.5 401.5,239.5C 400.534,237.604 400.201,235.604 400.5,233.5C 403.625,232.521 406.958,232.187 410.5,232.5 Z"/></g>
<g><path style="opacity:1" fill="#484848" d="M 424.5,232.5 C 429.906,231.735 431.906,234.069 430.5,239.5C 428.167,239.5 425.833,239.5 423.5,239.5C 423.548,236.365 425.215,234.698 428.5,234.5C 427.349,233.269 426.183,233.269 425,234.5C 424.536,233.906 424.369,233.239 424.5,232.5 Z"/></g>
<g><path style="opacity:1" fill="#414141" d="M 447.5,232.5 C 449.5,232.5 451.5,232.5 453.5,232.5C 453.663,234.857 453.497,237.19 453,239.5C 451.333,231.5 449.667,231.5 448,239.5C 447.503,237.19 447.337,234.857 447.5,232.5 Z"/></g>
<g><path style="opacity:1" fill="#606060" d="M 432.5,230.5 C 433.779,231.968 435.446,232.635 437.5,232.5C 437.5,234.833 437.5,237.167 437.5,239.5C 435.833,239.5 434.167,239.5 432.5,239.5C 432.108,236.324 432.108,233.324 432.5,230.5 Z"/></g>
<g><path style="opacity:1" fill="#575757" d="M 420.5,229.5 C 421.777,230.694 422.444,232.36 422.5,234.5C 422.167,236.167 421.833,237.833 421.5,239.5C 420.513,236.232 420.18,232.898 420.5,229.5 Z"/></g>
<g><path style="opacity:1" fill="#3f3f3f" d="M 390.5,229.5 C 391.873,229.343 393.207,229.51 394.5,230C 395.451,230.718 395.617,231.551 395,232.5C 393.556,230.845 391.722,230.178 389.5,230.5C 389.5,231.5 389.5,232.5 389.5,233.5C 393.56,232.848 395.56,234.515 395.5,238.5C 393.372,239.629 391.039,239.796 388.5,239C 387.289,238.107 387.289,237.274 388.5,236.5C 390.179,238.104 392.179,238.771 394.5,238.5C 394.5,237.5 394.5,236.5 394.5,235.5C 392.5,235.167 390.5,234.833 388.5,234.5C 388.077,232.219 388.744,230.552 390.5,229.5 Z"/></g>
<g><path style="opacity:1" fill="#424242" d="M 444.5,238.5 C 443.63,240.599 442.297,240.932 440.5,239.5C 437.367,234.6 438.701,232.433 444.5,233C 445.807,234.943 445.807,236.777 444.5,238.5 Z"/></g>
<g><path style="opacity:1" fill="#dedede" d="M 444.5,238.5 C 443.167,238.5 441.833,238.5 440.5,238.5C 440.116,236.335 440.783,234.668 442.5,233.5C 444.217,234.668 444.884,236.335 444.5,238.5 Z"/></g>
<g><path style="opacity:1" fill="#d0d0d0" d="M 425.5,236.5 C 426.675,236.281 427.675,236.614 428.5,237.5C 426.948,238.798 425.948,238.465 425.5,236.5 Z"/></g>
<g><path style="opacity:1" fill="#d2d2d2" d="M 433.5,233.5 C 434.649,233.791 435.316,234.624 435.5,236C 435.167,236.833 434.833,237.667 434.5,238.5C 433.548,236.955 433.215,235.288 433.5,233.5 Z"/></g>
<g><path style="opacity:1" fill="#434343" d="M 412.5,232.5 C 414.308,233.918 414.975,235.918 414.5,238.5C 415.5,238.5 416.5,238.5 417.5,238.5C 417.338,236.473 417.505,234.473 418,232.5C 418.497,234.81 418.663,237.143 418.5,239.5C 416.5,239.5 414.5,239.5 412.5,239.5C 412.5,237.167 412.5,234.833 412.5,232.5 Z"/></g>
<g><path style="opacity:1" fill="#353535" d="M 406.5,249.5 C 412.067,248.753 413.9,251.087 412,256.5C 410.333,248.5 408.667,248.5 407,256.5C 406.503,254.19 406.337,251.857 406.5,249.5 Z"/></g>
<g><path style="opacity:1" fill="#515151" d="M 399.5,249.5 C 404.378,249.535 405.711,251.868 403.5,256.5C 399.992,258.185 397.992,257.018 397.5,253C 397.978,251.697 398.645,250.531 399.5,249.5 Z"/></g>
<g><path style="opacity:1" fill="#dfdfdf" d="M 400.5,250.5 C 403.084,251.048 404.084,252.715 403.5,255.5C 402.167,255.5 400.833,255.5 399.5,255.5C 399.366,253.708 399.699,252.042 400.5,250.5 Z"/></g>
<g><path style="opacity:1" fill="#585858" d="M 414.5,246.5 C 416.288,246.215 417.955,246.548 419.5,247.5C 418.603,247.669 417.603,248.002 416.5,248.5C 416.709,249.086 417.043,249.586 417.5,250C 416.887,252.147 416.221,254.314 415.5,256.5C 414.036,253.113 413.702,249.78 414.5,246.5 Z"/></g>
<g><path style="opacity:1" fill="#4f4f4f" d="M 389.5,246.5 C 391.527,246.338 393.527,246.505 395.5,247C 396.711,247.893 396.711,248.726 395.5,249.5C 392.427,246.698 390.427,247.364 389.5,251.5C 390.342,255.923 392.508,256.59 396,253.5C 395.854,256.949 394.021,258.115 390.5,257C 386.935,253.784 386.602,250.284 389.5,246.5 Z"/></g>
<g><path style="opacity:1" fill="#404040" d="M 422.5,249.5 C 424.167,249.5 425.833,249.5 427.5,249.5C 427.665,252.85 427.498,256.183 427,259.5C 424.8,260.99 422.966,260.657 421.5,258.5C 422.995,258.522 424.662,258.189 426.5,257.5C 421.654,256.631 420.321,253.965 422.5,249.5 Z"/></g>
<g><path style="opacity:1" fill="#d7d7d7" d="M 423.5,250.5 C 426.084,251.048 427.084,252.715 426.5,255.5C 422.716,255.475 421.716,253.808 423.5,250.5 Z"/></g>
<g><path style="opacity:1" fill="#5b5b5b" d="M 471.5,277.5 C 472.492,277.328 473.158,277.662 473.5,278.5C 468.859,282.805 464.193,287.139 459.5,291.5C 458.833,291.5 458.5,291.167 458.5,290.5C 459.826,286.856 461.16,283.19 462.5,279.5C 465.399,278.358 468.399,277.692 471.5,277.5 Z"/></g>
<g><path style="opacity:1" fill="#b7b7b7" d="M 469.5,278.5 C 470.239,278.369 470.906,278.536 471.5,279C 468.051,281.482 464.884,284.315 462,287.5C 461.415,281.919 463.915,278.919 469.5,278.5 Z"/></g>
<g><path style="opacity:1" fill="#949494" d="M 380.5,290.5 C 406.5,290.5 432.5,290.5 458.5,290.5C 458.5,291.167 458.833,291.5 459.5,291.5C 432.5,292.833 405.5,292.833 378.5,291.5C 379.492,291.672 380.158,291.338 380.5,290.5 Z"/></g>
</svg>
