<?xml version="1.0" encoding="UTF-8"?>
<!DOCTYPE svg PUBLIC "-//W3C//DTD SVG 1.1//EN" "http://www.w3.org/Graphics/SVG/1.1/DTD/svg11.dtd">
<svg xmlns="http://www.w3.org/2000/svg" version="1.1" width="1410px" height="333px" style="shape-rendering:geometricPrecision; text-rendering:geometricPrecision; image-rendering:optimizeQuality; fill-rule:evenodd; clip-rule:evenodd" xmlns:xlink="http://www.w3.org/1999/xlink">
<g><path style="opacity:0.979" fill="#63a5d9" d="M 129.5,-0.5 C 130.5,-0.5 131.5,-0.5 132.5,-0.5C 82.1816,24.0476 53.6816,64.3809 47,120.5C 40.1186,182.513 57.2852,236.68 98.5,283C 84.3276,288.139 69.661,290.473 54.5,290C 23.5875,261.009 5.25414,225.509 -0.5,183.5C -0.5,170.833 -0.5,158.167 -0.5,145.5C 12.1672,69.5009 55.5005,20.8342 129.5,-0.5 Z"/></g>
<g><path style="opacity:0.985" fill="#64a6da" d="M 166.5,1.5 C 169.263,1.74381 171.429,3.07714 173,5.5C 219.21,59.2316 230.21,119.565 206,186.5C 197.275,207.883 184.609,226.549 168,242.5C 126.118,199.842 110.118,148.842 120,89.5C 126.877,55.4032 142.377,26.0699 166.5,1.5 Z"/></g>
<g><path style="opacity:0.984" fill="#63a4d8" d="M 201.5,-0.5 C 203.167,-0.5 204.833,-0.5 206.5,-0.5C 281.412,20.9552 324.579,70.2885 336,147.5C 340.259,203.778 322.092,251.278 281.5,290C 266.323,290.547 251.656,288.214 237.5,283C 290.072,221.135 303.238,151.635 277,74.5C 261.869,39.2017 236.702,14.2017 201.5,-0.5 Z"/></g>
<g><path style="opacity:0.977" fill="#64a6da" d="M 151.5,2.5 C 152.465,3.72105 152.298,5.05439 151,6.5C 115.213,49.6383 101.88,98.9716 111,154.5C 118.332,190.837 134.832,222.17 160.5,248.5C 145.48,262.689 128.146,273.355 108.5,280.5C 60.0033,227.52 44.1699,165.854 61,95.5C 74.5421,48.1268 104.709,17.1268 151.5,2.5 Z"/></g>
<g><path style="opacity:0.977" fill="#64a6da" d="M 182.5,2.5 C 238.075,19.9262 270.242,57.5928 279,115.5C 287.808,178.896 270.641,233.896 227.5,280.5C 207.702,273.112 190.036,262.446 174.5,248.5C 223.841,196.465 238.675,135.799 219,66.5C 210.659,42.7985 198.492,21.4652 182.5,2.5 Z"/></g>
<g><path style="opacity:0.858" fill="#0c4676" d="M 814.5,67.5 C 823.071,66.636 830.404,69.136 836.5,75C 834.946,76.892 833.112,78.392 831,79.5C 824.513,72.8026 817.347,71.9692 809.5,77C 805.229,82.3556 805.563,87.3556 810.5,92C 817.167,94.6667 823.833,97.3333 830.5,100C 837.069,106.945 838.236,114.778 834,123.5C 831.635,126.869 828.468,129.036 824.5,130C 813.801,132.706 804.801,130.039 797.5,122C 799.076,119.923 801.076,118.423 803.5,117.5C 809.662,124.831 816.995,126.331 825.5,122C 831.119,115.958 830.785,110.291 824.5,105C 816.866,102.793 809.699,99.6259 803,95.5C 795.842,81.4496 799.675,72.1163 814.5,67.5 Z"/></g>
<g><path style="opacity:0.881" fill="#0c4676" d="M 428.5,69.5 C 431.711,69.012 434.544,69.6787 437,71.5C 445.069,90.5411 453.236,109.541 461.5,128.5C 458.833,129.833 456.167,129.833 453.5,128.5C 451.099,123.624 449.099,118.624 447.5,113.5C 437.494,113.334 427.494,113.5 417.5,114C 415.407,118.776 413.407,123.609 411.5,128.5C 408.833,129.833 406.167,129.833 403.5,128.5C 412.034,108.891 420.368,89.2242 428.5,69.5 Z M 431.5,78.5 C 436.291,87.67 440.625,97.17 444.5,107C 436.479,107.832 428.479,107.665 420.5,106.5C 424.568,97.2891 428.235,87.9558 431.5,78.5 Z"/></g>
<g><path style="opacity:0.893" fill="#0c4676" d="M 472.5,69.5 C 474.833,69.5 477.167,69.5 479.5,69.5C 479.5,87.5 479.5,105.5 479.5,123.5C 488.833,123.5 498.167,123.5 507.5,123.5C 507.5,125.5 507.5,127.5 507.5,129.5C 495.833,129.5 484.167,129.5 472.5,129.5C 472.5,109.5 472.5,89.5 472.5,69.5 Z"/></g>
<g><path style="opacity:0.893" fill="#0c4676" d="M 518.5,69.5 C 520.833,69.5 523.167,69.5 525.5,69.5C 525.5,87.5 525.5,105.5 525.5,123.5C 534.833,123.5 544.167,123.5 553.5,123.5C 553.5,125.5 553.5,127.5 553.5,129.5C 541.833,129.5 530.167,129.5 518.5,129.5C 518.5,109.5 518.5,89.5 518.5,69.5 Z"/></g>
<g><path style="opacity:0.881" fill="#0c4676" d="M 564.5,69.5 C 577.167,69.5 589.833,69.5 602.5,69.5C 602.5,71.5 602.5,73.5 602.5,75.5C 592.167,75.5 581.833,75.5 571.5,75.5C 571.5,81.8333 571.5,88.1667 571.5,94.5C 581.167,94.5 590.833,94.5 600.5,94.5C 600.5,96.8333 600.5,99.1667 600.5,101.5C 590.833,101.5 581.167,101.5 571.5,101.5C 571.5,108.833 571.5,116.167 571.5,123.5C 582.167,123.5 592.833,123.5 603.5,123.5C 603.5,125.5 603.5,127.5 603.5,129.5C 590.5,129.5 577.5,129.5 564.5,129.5C 564.5,109.5 564.5,89.5 564.5,69.5 Z"/></g>
<g><path style="opacity:0.895" fill="#0c4676" d="M 617.5,69.5 C 620.777,69.2161 623.943,69.5495 627,70.5C 637.419,86.3399 648.086,102.007 659,117.5C 659.5,101.503 659.667,85.5035 659.5,69.5C 661.833,69.5 664.167,69.5 666.5,69.5C 666.5,89.5 666.5,109.5 666.5,129.5C 663.428,129.817 660.428,129.484 657.5,128.5C 646.471,112.637 635.638,96.6367 625,80.5C 624.5,96.8299 624.333,113.163 624.5,129.5C 622.167,129.5 619.833,129.5 617.5,129.5C 617.5,109.5 617.5,89.5 617.5,69.5 Z"/></g>
<g><path style="opacity:0.886" fill="#0c4676" d="M 709.5,69.5 C 711.833,69.5 714.167,69.5 716.5,69.5C 716.5,89.5 716.5,109.5 716.5,129.5C 714.167,129.5 711.833,129.5 709.5,129.5C 709.5,109.5 709.5,89.5 709.5,69.5 Z"/></g>
<g><path style="opacity:0.903" fill="#0c4676" d="M 734.5,69.5 C 737.777,69.2161 740.943,69.5495 744,70.5C 754.419,86.3399 765.086,102.007 776,117.5C 776.5,101.503 776.667,85.5035 776.5,69.5C 778.833,69.5 781.167,69.5 783.5,69.5C 783.5,89.5 783.5,109.5 783.5,129.5C 780.223,129.784 777.057,129.451 774,128.5C 763.333,112.5 752.667,96.5 742,80.5C 741.5,96.8299 741.333,113.163 741.5,129.5C 739.167,129.5 736.833,129.5 734.5,129.5C 734.5,109.5 734.5,89.5 734.5,69.5 Z"/></g>
<g><path style="opacity:0.91" fill="#0c4676" d="M 843.5,69.5 C 859.167,69.5 874.833,69.5 890.5,69.5C 890.5,71.5 890.5,73.5 890.5,75.5C 883.833,75.5 877.167,75.5 870.5,75.5C 870.5,93.5 870.5,111.5 870.5,129.5C 868.167,129.5 865.833,129.5 863.5,129.5C 863.5,111.5 863.5,93.5 863.5,75.5C 856.833,75.5 850.167,75.5 843.5,75.5C 843.5,73.5 843.5,71.5 843.5,69.5 Z"/></g>
<g><path style="opacity:0.886" fill="#0c4676" d="M 901.5,69.5 C 903.833,69.5 906.167,69.5 908.5,69.5C 908.5,89.5 908.5,109.5 908.5,129.5C 906.167,129.5 903.833,129.5 901.5,129.5C 901.5,109.5 901.5,89.5 901.5,69.5 Z"/></g>
<g><path style="opacity:0.918" fill="#0c4676" d="M 920.5,69.5 C 935.833,69.5 951.167,69.5 966.5,69.5C 966.5,71.5 966.5,73.5 966.5,75.5C 959.833,75.5 953.167,75.5 946.5,75.5C 946.5,93.5 946.5,111.5 946.5,129.5C 944.167,129.5 941.833,129.5 939.5,129.5C 939.5,111.5 939.5,93.5 939.5,75.5C 933.167,75.5 926.833,75.5 920.5,75.5C 920.5,73.5 920.5,71.5 920.5,69.5 Z"/></g>
<g><path style="opacity:0.886" fill="#0c4676" d="M 977.5,69.5 C 979.833,69.5 982.167,69.5 984.5,69.5C 984.084,84.5498 984.584,99.5498 986,114.5C 991.266,124.728 999.099,127.228 1009.5,122C 1011.97,119.559 1013.8,116.726 1015,113.5C 1016.39,98.8777 1016.89,84.211 1016.5,69.5C 1018.83,69.5 1021.17,69.5 1023.5,69.5C 1023.67,82.8375 1023.5,96.1708 1023,109.5C 1020.1,126.879 1009.94,133.712 992.5,130C 983.995,126.816 979.161,120.65 978,111.5C 977.5,97.504 977.333,83.504 977.5,69.5 Z"/></g>
<g><path style="opacity:0.91" fill="#0c4676" d="M 1033.5,69.5 C 1049.17,69.5 1064.83,69.5 1080.5,69.5C 1080.5,71.5 1080.5,73.5 1080.5,75.5C 1073.83,75.5 1067.17,75.5 1060.5,75.5C 1060.5,93.5 1060.5,111.5 1060.5,129.5C 1058.17,129.5 1055.83,129.5 1053.5,129.5C 1053.5,111.5 1053.5,93.5 1053.5,75.5C 1046.83,75.5 1040.17,75.5 1033.5,75.5C 1033.5,73.5 1033.5,71.5 1033.5,69.5 Z"/></g>
<g><path style="opacity:0.881" fill="#0c4676" d="M 1091.5,69.5 C 1104.17,69.5 1116.83,69.5 1129.5,69.5C 1129.5,71.5 1129.5,73.5 1129.5,75.5C 1119.17,75.5 1108.83,75.5 1098.5,75.5C 1098.5,81.8333 1098.5,88.1667 1098.5,94.5C 1108.17,94.5 1117.83,94.5 1127.5,94.5C 1127.5,96.8333 1127.5,99.1667 1127.5,101.5C 1117.83,101.5 1108.17,101.5 1098.5,101.5C 1098.5,108.833 1098.5,116.167 1098.5,123.5C 1109.17,123.5 1119.83,123.5 1130.5,123.5C 1130.5,125.5 1130.5,127.5 1130.5,129.5C 1117.5,129.5 1104.5,129.5 1091.5,129.5C 1091.5,109.5 1091.5,89.5 1091.5,69.5 Z"/></g>
<g><path style="opacity:0.818" fill="#64a6da" d="M 1177.5,83.5 C 1180.25,83.1866 1182.91,83.52 1185.5,84.5C 1184.75,85.7362 1184.42,87.0695 1184.5,88.5C 1181.64,88.0548 1179.14,88.7215 1177,90.5C 1175.85,94.104 1175.01,97.7707 1174.5,101.5C 1176.5,101.5 1178.5,101.5 1180.5,101.5C 1180.5,102.833 1180.5,104.167 1180.5,105.5C 1178.17,105.5 1175.83,105.5 1173.5,105.5C 1172.38,113.539 1171.05,121.539 1169.5,129.5C 1167.83,129.5 1166.17,129.5 1164.5,129.5C 1165.83,121.501 1167.17,113.501 1168.5,105.5C 1166.83,105.5 1165.17,105.5 1163.5,105.5C 1163.5,104.167 1163.5,102.833 1163.5,101.5C 1165.5,101.5 1167.5,101.5 1169.5,101.5C 1169.3,94.047 1171.97,88.047 1177.5,83.5 Z"/></g>
<g><path style="opacity:0.806" fill="#64a6da" d="M 1194.5,100.5 C 1211.55,99.9027 1216.72,107.569 1210,123.5C 1203.61,130.634 1196.11,132.134 1187.5,128C 1181.17,120.746 1181,113.246 1187,105.5C 1189.43,103.548 1191.93,101.881 1194.5,100.5 Z M 1197.5,104.5 C 1205.99,104.79 1209.16,109.124 1207,117.5C 1204.45,124.358 1199.62,126.858 1192.5,125C 1186.22,116.33 1187.88,109.497 1197.5,104.5 Z"/></g>
<g><path style="opacity:0.8" fill="#64a6da" d="M 1233.5,100.5 C 1235.83,100.5 1238.17,100.5 1240.5,100.5C 1240.5,102.167 1240.5,103.833 1240.5,105.5C 1233.23,104.217 1229.06,107.217 1228,114.5C 1226.95,119.474 1226.12,124.474 1225.5,129.5C 1223.83,129.5 1222.17,129.5 1220.5,129.5C 1222.05,120.199 1223.38,110.866 1224.5,101.5C 1226.77,101.141 1228.6,101.808 1230,103.5C 1231.15,102.364 1232.31,101.364 1233.5,100.5 Z"/></g>
<g><path style="opacity:0.902" fill="#64a6da" d="M 869.5,166.5 C 881.026,165.234 891.36,168.067 900.5,175C 901.293,176.085 901.96,177.252 902.5,178.5C 900.116,180.885 897.45,182.885 894.5,184.5C 885.57,174.932 875.236,173.099 863.5,179C 856.267,184.967 854.767,192.133 859,200.5C 861.559,203.531 864.726,205.698 868.5,207C 876.719,209.444 884.719,212.444 892.5,216C 902.307,223.001 905.807,232.501 903,244.5C 897.811,257.7 887.977,264.366 873.5,264.5C 861.091,264.325 851.091,259.492 843.5,250C 846.36,247.64 849.36,245.473 852.5,243.5C 861.813,255.395 873.146,257.895 886.5,251C 895.743,242.256 895.743,233.59 886.5,225C 876.167,220.667 865.833,216.333 855.5,212C 847.271,204.977 844.437,196.144 847,185.5C 848.922,178.472 853.089,173.306 859.5,170C 862.98,168.897 866.313,167.731 869.5,166.5 Z"/></g>
<g><path style="opacity:0.904" fill="#64a6da" d="M 964.5,166.5 C 976.308,165.495 987.308,167.995 997.5,174C 1000.31,176.069 1002.65,178.569 1004.5,181.5C 1002.3,183.854 999.795,185.854 997,187.5C 980.933,172.522 964.1,171.689 946.5,185C 932.562,201.002 930.396,218.502 940,237.5C 951.509,253.507 966.675,258.34 985.5,252C 990.729,249.318 995.229,245.818 999,241.5C 1001.74,242.789 1004.24,244.455 1006.5,246.5C 998.088,258.541 986.421,264.541 971.5,264.5C 935.84,260.329 920.007,240.329 924,204.5C 929.657,183.339 943.157,170.673 964.5,166.5 Z"/></g>
<g><path style="opacity:0.904" fill="#64a6da" d="M 1288.5,166.5 C 1300.35,165.503 1311.35,168.003 1321.5,174C 1324.69,175.695 1327.03,178.195 1328.5,181.5C 1326.3,183.854 1323.8,185.854 1321,187.5C 1304.93,172.522 1288.1,171.689 1270.5,185C 1255.75,202.5 1254.25,221 1266,240.5C 1280.83,256.19 1297.67,258.69 1316.5,248C 1318.73,245.767 1320.9,243.6 1323,241.5C 1325.32,242.826 1327.65,244.16 1330,245.5C 1327.71,251.468 1323.54,255.968 1317.5,259C 1299.45,267.062 1282.12,265.729 1265.5,255C 1247.46,238.158 1242.63,217.991 1251,194.5C 1258.79,178.705 1271.29,169.372 1288.5,166.5 Z"/></g>
<g><path style="opacity:0.899" fill="#64a6da" d="M 401.5,168.5 C 414.542,168.147 427.542,168.647 440.5,170C 459.007,175.824 464.174,187.657 456,205.5C 453.106,208.361 449.939,210.861 446.5,213C 458.081,216.253 464.081,223.919 464.5,236C 462.889,250.944 454.556,259.277 439.5,261C 426.838,261.5 414.171,261.667 401.5,261.5C 401.5,230.5 401.5,199.5 401.5,168.5 Z M 412.5,177.5 C 421.636,177.066 430.636,177.9 439.5,180C 449.803,185.577 451.97,193.411 446,203.5C 443.749,205.377 441.249,206.877 438.5,208C 429.886,209.297 421.219,209.797 412.5,209.5C 412.5,198.833 412.5,188.167 412.5,177.5 Z M 412.5,217.5 C 422.972,216.945 433.305,217.778 443.5,220C 453.789,225.657 456.289,233.823 451,244.5C 448.441,247.531 445.274,249.698 441.5,251C 431.9,252.391 422.233,252.891 412.5,252.5C 412.5,240.833 412.5,229.167 412.5,217.5 Z"/></g>
<g><path style="opacity:0.923" fill="#64a6da" d="M 489.5,168.5 C 502.871,168.168 516.204,168.668 529.5,170C 545.763,174.339 551.93,184.839 548,201.5C 543.978,211.011 536.811,216.677 526.5,218.5C 534.968,232.799 543.635,246.965 552.5,261C 547.913,261.799 543.413,261.632 539,260.5C 530.707,246.749 522.541,232.916 514.5,219C 509.511,218.501 504.511,218.334 499.5,218.5C 499.5,232.833 499.5,247.167 499.5,261.5C 496.167,261.5 492.833,261.5 489.5,261.5C 489.5,230.5 489.5,199.5 489.5,168.5 Z M 499.5,177.5 C 510.392,176.863 521.059,178.03 531.5,181C 538.862,186.905 540.362,194.072 536,202.5C 532.995,206.087 529.162,208.254 524.5,209C 516.173,209.5 507.84,209.666 499.5,209.5C 499.5,198.833 499.5,188.167 499.5,177.5 Z"/></g>
<g><path style="opacity:0.917" fill="#64a6da" d="M 601.5,168.5 C 604.898,168.18 608.232,168.513 611.5,169.5C 625.07,199.968 638.07,230.634 650.5,261.5C 646.563,261.793 642.73,261.46 639,260.5C 635.931,253.126 632.764,245.792 629.5,238.5C 613.833,237.167 598.167,237.167 582.5,238.5C 579.5,245.833 576.5,253.167 573.5,260.5C 569.5,261.833 565.5,261.833 561.5,260.5C 574.848,229.807 588.181,199.141 601.5,168.5 Z M 605.5,181.5 C 612.438,196.793 619.105,212.293 625.5,228C 612.5,228.667 599.5,228.667 586.5,228C 593.258,212.654 599.591,197.154 605.5,181.5 Z"/></g>
<g><path style="opacity:0.943" fill="#64a6da" d="M 668.5,168.5 C 671.833,168.5 675.167,168.5 678.5,168.5C 678.5,199.5 678.5,230.5 678.5,261.5C 675.167,261.5 671.833,261.5 668.5,261.5C 668.5,230.5 668.5,199.5 668.5,168.5 Z"/></g>
<g><path style="opacity:0.911" fill="#64a6da" d="M 707.5,168.5 C 711.884,168.174 716.217,168.508 720.5,169.5C 737.667,194.5 754.833,219.5 772,244.5C 772.5,219.169 772.667,193.836 772.5,168.5C 776.167,168.5 779.833,168.5 783.5,168.5C 783.5,199.5 783.5,230.5 783.5,261.5C 779.154,261.666 774.821,261.499 770.5,261C 753,235.5 735.5,210 718,184.5C 717.5,210.165 717.333,235.831 717.5,261.5C 714.167,261.5 710.833,261.5 707.5,261.5C 707.5,230.5 707.5,199.5 707.5,168.5 Z"/></g>
<g><path style="opacity:0.879" fill="#64a6da" d="M 1026.5,168.5 C 1030.17,168.5 1033.83,168.5 1037.5,168.5C 1037.5,199.5 1037.5,230.5 1037.5,261.5C 1033.83,261.5 1030.17,261.5 1026.5,261.5C 1026.5,230.5 1026.5,199.5 1026.5,168.5 Z"/></g>
<g><path style="opacity:0.9" fill="#64a6da" d="M 1065.5,168.5 C 1084.83,168.5 1104.17,168.5 1123.5,168.5C 1123.5,171.833 1123.5,175.167 1123.5,178.5C 1107.5,178.5 1091.5,178.5 1075.5,178.5C 1075.5,188.5 1075.5,198.5 1075.5,208.5C 1090.5,208.5 1105.5,208.5 1120.5,208.5C 1120.5,211.833 1120.5,215.167 1120.5,218.5C 1105.5,218.5 1090.5,218.5 1075.5,218.5C 1075.5,229.833 1075.5,241.167 1075.5,252.5C 1092.17,252.5 1108.83,252.5 1125.5,252.5C 1125.5,255.5 1125.5,258.5 1125.5,261.5C 1105.5,261.5 1085.5,261.5 1065.5,261.5C 1065.5,230.5 1065.5,199.5 1065.5,168.5 Z"/></g>
<g><path style="opacity:0.911" fill="#64a6da" d="M 1147.5,168.5 C 1152.1,168.2 1156.6,168.533 1161,169.5C 1178.33,194.833 1195.67,220.167 1213,245.5C 1213.5,219.835 1213.67,194.169 1213.5,168.5C 1216.83,168.5 1220.17,168.5 1223.5,168.5C 1223.5,199.5 1223.5,230.5 1223.5,261.5C 1219.15,261.666 1214.82,261.499 1210.5,261C 1193.33,235.833 1176.17,210.667 1159,185.5C 1158.5,210.831 1158.33,236.164 1158.5,261.5C 1154.83,261.5 1151.17,261.5 1147.5,261.5C 1147.5,230.5 1147.5,199.5 1147.5,168.5 Z"/></g>
<g><path style="opacity:0.886" fill="#64a6da" d="M 1409.5,252.5 C 1409.5,255.5 1409.5,258.5 1409.5,261.5C 1389.83,261.5 1370.17,261.5 1350.5,261.5C 1350.5,230.5 1350.5,199.5 1350.5,168.5C 1369.83,168.5 1389.17,168.5 1408.5,168.5C 1408.5,171.833 1408.5,175.167 1408.5,178.5C 1392.83,178.5 1377.17,178.5 1361.5,178.5C 1361.5,188.5 1361.5,198.5 1361.5,208.5C 1376.17,208.5 1390.83,208.5 1405.5,208.5C 1405.5,211.833 1405.5,215.167 1405.5,218.5C 1390.83,218.5 1376.17,218.5 1361.5,218.5C 1361.5,229.833 1361.5,241.167 1361.5,252.5C 1377.5,252.5 1393.5,252.5 1409.5,252.5 Z"/></g>
<g><path style="opacity:0.966" fill="#0c4676" d="M 166.5,255.5 C 167.552,255.351 168.552,255.517 169.5,256C 184.867,269.023 201.867,279.523 220.5,287.5C 205.145,303.693 187.645,317.027 168,327.5C 148.355,317.027 130.855,303.693 115.5,287.5C 134.408,279.564 151.408,268.897 166.5,255.5 Z"/></g>
<g><path style="opacity:0.936" fill="#0c4676" d="M 157.5,332.5 C 153.833,332.5 150.167,332.5 146.5,332.5C 117.684,328.343 91.5177,317.676 68,300.5C 67.8333,300.167 67.6667,299.833 67.5,299.5C 80.3481,297.829 92.8481,294.829 105,290.5C 121.201,306.322 138.701,320.322 157.5,332.5 Z"/></g>
<g><path style="opacity:0.928" fill="#0c4676" d="M 189.5,332.5 C 185.833,332.5 182.167,332.5 178.5,332.5C 197.219,320.635 214.386,306.635 230,290.5C 242.53,294.674 255.364,297.674 268.5,299.5C 245.064,317.383 218.731,328.383 189.5,332.5 Z"/></g>
</svg>
