<svg xmlns="http://www.w3.org/2000/svg" width="136" height="100" style="shape-rendering:geometricPrecision;text-rendering:geometricPrecision;image-rendering:optimizeQuality;fill-rule:evenodd;clip-rule:evenodd"><path style="opacity:1" fill="#0f1216" d="M-.5-.5h136v100H-.5V-.5z"/><path style="opacity:1" fill="#dee4e9" d="M38.5 46.5c16.838-.692 23.67 7.308 20.5 24-.726 3.12-2.226 5.787-4.5 8a51.095 51.095 0 0 0 4 5.5c-6.982-1.859-14.315-2.859-22-3-8.34-5.676-11.174-13.51-8.5-23.5 1.684-5.516 5.184-9.182 10.5-11z"/><path style="opacity:1" fill="#dde3e8" d="M93.5 57.5c-1.765.961-3.765 1.295-6 1-4.226-7.119-9.392-7.786-15.5-2-2.122 5.787-1.789 11.453 1 17 6.095 3.56 10.928 2.393 14.5-3.5a18.436 18.436 0 0 1 6-.5c-.056 5.603-2.723 9.436-8 11.5-14.057 2.937-21.39-2.73-22-17 .585-13.47 7.585-19.137 21-17 5.027 1.853 8.027 5.353 9 10.5z"/><path style="opacity:1" fill="#dfe5ea" d="M98.5 47.5c6.342-.166 12.675 0 19 .5 5.757 2.682 7.924 7.182 6.5 13.5a55.482 55.482 0 0 1-5.5 7 228.338 228.338 0 0 1 7 12.5 16.25 16.25 0 0 1-8 0 187.113 187.113 0 0 1-6-11.5 9.864 9.864 0 0 0-6-1v13h-7v-34z"/><path style="opacity:1" fill="#121419" d="M48.5 70.5c-2.193-1.297-4.527-1.297-7 0 .124.607.457.94 1 1 2.646 3.327 1.646 4.494-3 3.5-2.594-1.339-4.094-3.506-4.5-6.5-2.733-10.438 1.1-15.605 11.5-15.5 2.5 1.167 4.333 3 5.5 5.5a30.499 30.499 0 0 1 0 11c-.926 3.206-2.093 3.54-3.5 1z"/><path style="opacity:1" fill="#17191e" d="M105.5 52.5a24.365 24.365 0 0 1 10 1.5c2.811 3.294 2.478 6.294-1 9a40.939 40.939 0 0 1-9 .5v-11z"/><path style="opacity:1" fill="#7d8287" d="M93.5 57.5c.543.06.876.393 1 1-2.473 1.297-4.807 1.297-7 0 2.235.295 4.235-.039 6-1z"/><path style="opacity:1" fill="#767a80" d="M48.5 70.5c-2.235-.295-4.235.039-6 1-.543-.06-.876-.393-1-1 2.473-1.297 4.807-1.297 7 0z"/></svg>