<?xml version="1.0" encoding="UTF-8"?>
<!DOCTYPE svg PUBLIC "-//W3C//DTD SVG 1.1//EN" "http://www.w3.org/Graphics/SVG/1.1/DTD/svg11.dtd">
<svg xmlns="http://www.w3.org/2000/svg" version="1.1" width="526px" height="134px" style="shape-rendering:geometricPrecision; text-rendering:geometricPrecision; image-rendering:optimizeQuality; fill-rule:evenodd; clip-rule:evenodd" xmlns:xlink="http://www.w3.org/1999/xlink">
<g><path style="opacity:1" fill="#fdfdfe" d="M -0.5,-0.5 C 174.833,-0.5 350.167,-0.5 525.5,-0.5C 525.5,44.1667 525.5,88.8333 525.5,133.5C 350.167,133.5 174.833,133.5 -0.5,133.5C -0.5,88.8333 -0.5,44.1667 -0.5,-0.5 Z"/></g>
<g><path style="opacity:1" fill="#acadad" d="M 395.5,64.5 C 395.5,56.1667 395.5,47.8333 395.5,39.5C 398.5,39.5 401.5,39.5 404.5,39.5C 404.5,37.8333 404.5,36.1667 404.5,34.5C 396.5,34.5 388.5,34.5 380.5,34.5C 380.5,36.1667 380.5,37.8333 380.5,39.5C 383.385,39.1936 386.052,39.5269 388.5,40.5C 385.5,40.5 382.5,40.5 379.5,40.5C 379.5,38.1667 379.5,35.8333 379.5,33.5C 388.167,33.5 396.833,33.5 405.5,33.5C 405.5,35.8333 405.5,38.1667 405.5,40.5C 402.5,40.5 399.5,40.5 396.5,40.5C 396.826,48.6841 396.492,56.6841 395.5,64.5 Z"/></g>
<g><path style="opacity:1" fill="#737475" d="M 476.5,33.5 C 482.445,32.6202 487.779,33.9535 492.5,37.5C 491.167,39.1667 489.833,40.8333 488.5,42.5C 485.628,39.8542 482.295,39.0208 478.5,40C 477.253,41.4936 477.253,42.9936 478.5,44.5C 481.717,45.9718 485.051,47.1385 488.5,48C 494.84,52.4307 495.174,57.4307 489.5,63C 483.374,65.0975 477.374,64.7642 471.5,62C 469.017,59.2041 469.683,57.0374 473.5,55.5C 477.05,58.2803 481.05,59.1136 485.5,58C 487.013,55.5459 486.346,53.8793 483.5,53C 474.227,52.4025 470.06,47.5691 471,38.5C 472.73,36.5981 474.563,34.9314 476.5,33.5 Z"/></g>
<g><path style="opacity:1" fill="#b2b3b4" d="M 239.5,34.5 C 234.167,34.5 228.833,34.5 223.5,34.5C 223.5,44.5 223.5,54.5 223.5,64.5C 222.506,54.3468 222.172,44.0135 222.5,33.5C 228.358,33.1778 234.025,33.5111 239.5,34.5 Z"/></g>
<g><path style="opacity:1" fill="#999a9b" d="M 310.5,34.5 C 308.5,34.5 306.5,34.5 304.5,34.5C 304.5,44.5 304.5,54.5 304.5,64.5C 303.506,54.3468 303.172,44.0135 303.5,33.5C 306.059,33.1984 308.393,33.5318 310.5,34.5 Z"/></g>
<g><path style="opacity:1" fill="#b6b7b7" d="M 330.5,64.5 C 330.5,54.5 330.5,44.5 330.5,34.5C 328.5,34.5 326.5,34.5 324.5,34.5C 324.666,40.5092 324.499,46.5092 324,52.5C 323.283,51.9558 322.783,51.2891 322.5,50.5C 323.489,45.0247 323.822,39.358 323.5,33.5C 326.167,33.5 328.833,33.5 331.5,33.5C 331.828,44.0135 331.494,54.3468 330.5,64.5 Z"/></g>
<g><path style="opacity:1" fill="#737475" d="M 36.5,33.5 C 38.924,33.1924 41.2573,33.5258 43.5,34.5C 47.5,44.1667 51.5,53.8333 55.5,63.5C 50.396,65.5242 47.396,63.8576 46.5,58.5C 41.8804,57.5067 37.2137,57.1734 32.5,57.5C 32.2866,63.6582 29.2866,65.6582 23.5,63.5C 27.8486,53.4366 32.1819,43.4366 36.5,33.5 Z"/></g>
<g><path style="opacity:1" fill="#818283" d="M 94.5,58.5 C 93.5076,50.6841 93.1743,42.6841 93.5,34.5C 91.8333,34.5 90.1667,34.5 88.5,34.5C 88.5,44.1667 88.5,53.8333 88.5,63.5C 95.5,63.5 102.5,63.5 109.5,63.5C 102.352,64.4916 95.0191,64.825 87.5,64.5C 87.5,54.1667 87.5,43.8333 87.5,33.5C 89.8333,33.5 92.1667,33.5 94.5,33.5C 94.5,41.8333 94.5,50.1667 94.5,58.5 Z"/></g>
<g><path style="opacity:1" fill="#6d6e6f" d="M 94.5,58.5 C 99.5,58.5 104.5,58.5 109.5,58.5C 109.5,60.1667 109.5,61.8333 109.5,63.5C 102.5,63.5 95.5,63.5 88.5,63.5C 88.5,53.8333 88.5,44.1667 88.5,34.5C 90.1667,34.5 91.8333,34.5 93.5,34.5C 93.1743,42.6841 93.5076,50.6841 94.5,58.5 Z"/></g>
<g><path style="opacity:1" fill="#6f7172" d="M 137.5,39.5 C 132.167,39.5 126.833,39.5 121.5,39.5C 121.5,41.8333 121.5,44.1667 121.5,46.5C 126.167,46.5 130.833,46.5 135.5,46.5C 135.5,48.5 135.5,50.5 135.5,52.5C 130.833,52.5 126.167,52.5 121.5,52.5C 121.5,54.5 121.5,56.5 121.5,58.5C 126.64,59.4881 131.974,59.8214 137.5,59.5C 137.5,60.8333 137.5,62.1667 137.5,63.5C 130.167,63.5 122.833,63.5 115.5,63.5C 115.5,53.8333 115.5,44.1667 115.5,34.5C 122.833,34.5 130.167,34.5 137.5,34.5C 137.5,36.1667 137.5,37.8333 137.5,39.5 Z"/></g>
<g><path style="opacity:1" fill="#a7a7a8" d="M 150.5,34.5 C 148.5,34.5 146.5,34.5 144.5,34.5C 144.5,44.5 144.5,54.5 144.5,64.5C 143.506,54.3468 143.172,44.0135 143.5,33.5C 146.059,33.1984 148.393,33.5318 150.5,34.5 Z"/></g>
<g><path style="opacity:1" fill="#6f7071" d="M 150.5,34.5 C 154.981,40.0972 159.481,45.7639 164,51.5C 164.499,45.8431 164.666,40.1764 164.5,34.5C 166.5,34.5 168.5,34.5 170.5,34.5C 170.5,44.5 170.5,54.5 170.5,64.5C 168.396,64.7989 166.396,64.4656 164.5,63.5C 160.192,57.3586 155.692,51.3586 151,45.5C 150.5,51.8246 150.334,58.1579 150.5,64.5C 148.5,64.5 146.5,64.5 144.5,64.5C 144.5,54.5 144.5,44.5 144.5,34.5C 146.5,34.5 148.5,34.5 150.5,34.5 Z"/></g>
<g><path style="opacity:1" fill="#b1b1b2" d="M 164.5,34.5 C 166.607,33.5318 168.941,33.1984 171.5,33.5C 171.828,44.0135 171.494,54.3468 170.5,64.5C 170.5,54.5 170.5,44.5 170.5,34.5C 168.5,34.5 166.5,34.5 164.5,34.5 Z"/></g>
<g><path style="opacity:1" fill="#898a8b" d="M 209.5,34.5 C 203.833,34.5 198.167,34.5 192.5,34.5C 192.5,44.1667 192.5,53.8333 192.5,63.5C 198.5,63.5 204.5,63.5 210.5,63.5C 204.355,64.4902 198.022,64.8235 191.5,64.5C 191.5,54.1667 191.5,43.8333 191.5,33.5C 197.69,33.1771 203.69,33.5104 209.5,34.5 Z"/></g>
<g><path style="opacity:1" fill="#6f7172" d="M 209.5,34.5 C 216.219,37.8325 217.219,42.4992 212.5,48.5C 217.879,51.7568 218.879,56.0902 215.5,61.5C 214.15,62.9501 212.484,63.6168 210.5,63.5C 204.5,63.5 198.5,63.5 192.5,63.5C 192.5,53.8333 192.5,44.1667 192.5,34.5C 198.167,34.5 203.833,34.5 209.5,34.5 Z"/></g>
<g><path style="opacity:1" fill="#707273" d="M 239.5,34.5 C 246.911,35.7567 249.744,40.09 248,47.5C 246.75,50.1707 244.917,52.3374 242.5,54C 244.587,57.5082 246.92,60.8416 249.5,64C 246.833,64.6667 244.167,64.6667 241.5,64C 239.306,61.3053 237.306,58.472 235.5,55.5C 233.604,54.5344 231.604,54.2011 229.5,54.5C 229.5,57.8333 229.5,61.1667 229.5,64.5C 227.5,64.5 225.5,64.5 223.5,64.5C 223.5,54.5 223.5,44.5 223.5,34.5C 228.833,34.5 234.167,34.5 239.5,34.5 Z"/></g>
<g><path style="opacity:1" fill="#737475" d="M 264.5,33.5 C 267.972,32.9629 270.805,33.9629 273,36.5C 276.282,45.7315 280.116,54.7315 284.5,63.5C 278.746,66.0379 275.413,64.2046 274.5,58C 270.129,57.1725 265.795,57.3391 261.5,58.5C 260.253,60.323 259.586,62.323 259.5,64.5C 257.167,64.5 254.833,64.5 252.5,64.5C 256.216,54.0661 260.216,43.7328 264.5,33.5 Z"/></g>
<g><path style="opacity:1" fill="#6e7071" d="M 289.5,34.5 C 291.5,34.5 293.5,34.5 295.5,34.5C 295.5,44.5 295.5,54.5 295.5,64.5C 293.5,64.5 291.5,64.5 289.5,64.5C 289.5,54.5 289.5,44.5 289.5,34.5 Z"/></g>
<g><path style="opacity:1" fill="#8e8f8f" d="M 289.5,34.5 C 291.607,33.5318 293.941,33.1984 296.5,33.5C 296.828,44.0135 296.494,54.3468 295.5,64.5C 295.5,54.5 295.5,44.5 295.5,34.5C 293.5,34.5 291.5,34.5 289.5,34.5 Z"/></g>
<g><path style="opacity:1" fill="#6f7172" d="M 310.5,34.5 C 314.488,39.795 318.488,45.1284 322.5,50.5C 322.783,51.2891 323.283,51.9558 324,52.5C 324.499,46.5092 324.666,40.5092 324.5,34.5C 326.5,34.5 328.5,34.5 330.5,34.5C 330.5,44.5 330.5,54.5 330.5,64.5C 328.396,64.7989 326.396,64.4656 324.5,63.5C 319.757,57.6789 315.257,51.6789 311,45.5C 310.5,51.8246 310.334,58.1579 310.5,64.5C 308.5,64.5 306.5,64.5 304.5,64.5C 304.5,54.5 304.5,44.5 304.5,34.5C 306.5,34.5 308.5,34.5 310.5,34.5 Z"/></g>
<g><path style="opacity:1" fill="#727475" d="M 361.5,33.5 C 363.924,33.1924 366.257,33.5258 368.5,34.5C 373.088,44.263 377.088,54.263 380.5,64.5C 378.167,64.5 375.833,64.5 373.5,64.5C 373.854,58.3571 371.021,56.0237 365,57.5C 362.833,57.6667 360.667,57.8333 358.5,58C 357.692,60.0876 356.692,62.0876 355.5,64C 353.527,64.4955 351.527,64.6621 349.5,64.5C 353.104,54.0214 357.104,43.6881 361.5,33.5 Z"/></g>
<g><path style="opacity:1" fill="#727475" d="M 395.5,64.5 C 393.167,64.5 390.833,64.5 388.5,64.5C 388.5,56.5 388.5,48.5 388.5,40.5C 386.052,39.5269 383.385,39.1936 380.5,39.5C 380.5,37.8333 380.5,36.1667 380.5,34.5C 388.5,34.5 396.5,34.5 404.5,34.5C 404.5,36.1667 404.5,37.8333 404.5,39.5C 401.5,39.5 398.5,39.5 395.5,39.5C 395.5,47.8333 395.5,56.1667 395.5,64.5 Z"/></g>
<g><path style="opacity:1" fill="#6f7172" d="M 417.5,58.5 C 422.5,58.5 427.5,58.5 432.5,58.5C 432.5,60.5 432.5,62.5 432.5,64.5C 425.167,64.5 417.833,64.5 410.5,64.5C 410.5,54.5 410.5,44.5 410.5,34.5C 412.5,34.5 414.5,34.5 416.5,34.5C 416.174,42.6841 416.508,50.6841 417.5,58.5 Z"/></g>
<g><path style="opacity:1" fill="#b6b7b7" d="M 417.5,58.5 C 416.508,50.6841 416.174,42.6841 416.5,34.5C 414.5,34.5 412.5,34.5 410.5,34.5C 410.5,44.5 410.5,54.5 410.5,64.5C 409.506,54.3468 409.172,44.0135 409.5,33.5C 412.167,33.5 414.833,33.5 417.5,33.5C 417.5,41.8333 417.5,50.1667 417.5,58.5 Z"/></g>
<g><path style="opacity:1" fill="#727475" d="M 447.5,33.5 C 449.924,33.1924 452.257,33.5258 454.5,34.5C 459.073,44.3065 463.073,54.3065 466.5,64.5C 464.167,64.5 461.833,64.5 459.5,64.5C 459.541,58.7919 456.708,56.4586 451,57.5C 445.668,56.1424 442.501,58.1424 441.5,63.5C 439.167,64.8333 436.833,64.8333 434.5,63.5C 439.221,53.6699 443.555,43.6699 447.5,33.5 Z"/></g>
<g><path style="opacity:1" fill="#f8f8f8" d="M 206.5,40.5 C 209.972,41.5772 210.305,43.2439 207.5,45.5C 204.5,45.5 201.5,45.5 198.5,45.5C 198.5,43.8333 198.5,42.1667 198.5,40.5C 201.167,40.5 203.833,40.5 206.5,40.5 Z"/></g>
<g><path style="opacity:1" fill="#c4c5c5" d="M 238.5,40.5 C 235.833,40.5 233.167,40.5 230.5,40.5C 230.5,43.1667 230.5,45.8333 230.5,48.5C 229.523,45.7131 229.19,42.7131 229.5,39.5C 232.713,39.19 235.713,39.5233 238.5,40.5 Z"/></g>
<g><path style="opacity:1" fill="#fbfbfb" d="M 238.5,40.5 C 241.947,42.4791 242.28,44.9791 239.5,48C 236.518,48.498 233.518,48.6646 230.5,48.5C 230.5,45.8333 230.5,43.1667 230.5,40.5C 233.167,40.5 235.833,40.5 238.5,40.5 Z"/></g>
<g><path style="opacity:1" fill="#f0f0f0" d="M 267.5,42.5 C 269.974,44.8976 271.308,47.8976 271.5,51.5C 269.076,51.8076 266.743,51.4742 264.5,50.5C 265.809,47.9168 266.809,45.2501 267.5,42.5 Z"/></g>
<g><path style="opacity:1" fill="#eaeaea" d="M 38.5,42.5 C 39.3764,42.3691 40.0431,42.7025 40.5,43.5C 41.3052,45.9154 42.3052,48.2487 43.5,50.5C 41.2573,51.4742 38.924,51.8076 36.5,51.5C 36.8726,48.4261 37.5392,45.4261 38.5,42.5 Z"/></g>
<g><path style="opacity:1" fill="#c0c0c1" d="M 206.5,40.5 C 203.833,40.5 201.167,40.5 198.5,40.5C 198.5,42.1667 198.5,43.8333 198.5,45.5C 201.5,45.5 204.5,45.5 207.5,45.5C 204.375,46.4794 201.042,46.8128 197.5,46.5C 197.5,44.1667 197.5,41.8333 197.5,39.5C 200.713,39.19 203.713,39.5233 206.5,40.5 Z"/></g>
<g><path style="opacity:1" fill="#edeeee" d="M 364.5,42.5 C 366.383,44.7634 367.716,47.4301 368.5,50.5C 366.257,51.4742 363.924,51.8076 361.5,51.5C 362.216,48.4018 363.216,45.4018 364.5,42.5 Z"/></g>
<g><path style="opacity:1" fill="#ededed" d="M 449.5,42.5 C 452.129,44.3938 453.795,47.0605 454.5,50.5C 452.257,51.4742 449.924,51.8076 447.5,51.5C 448.167,48.5 448.833,45.5 449.5,42.5 Z"/></g>
<g><path style="opacity:1" fill="#b0b1b1" d="M 207.5,52.5 C 204.5,52.5 201.5,52.5 198.5,52.5C 198.5,54.5 198.5,56.5 198.5,58.5C 197.532,56.3926 197.198,54.0593 197.5,51.5C 201.042,51.1872 204.375,51.5206 207.5,52.5 Z"/></g>
<g><path style="opacity:1" fill="#fcfcfc" d="M 207.5,52.5 C 210.423,53.1634 211.09,54.8301 209.5,57.5C 205.906,58.4259 202.24,58.7592 198.5,58.5C 198.5,56.5 198.5,54.5 198.5,52.5C 201.5,52.5 204.5,52.5 207.5,52.5 Z"/></g>
<g><path style="opacity:1" fill="#828384" d="M 67.5,58.5 C 72.5,58.5 77.5,58.5 82.5,58.5C 82.5,60.5 82.5,62.5 82.5,64.5C 75.1667,64.5 67.8333,64.5 60.5,64.5C 60.5,54.1667 60.5,43.8333 60.5,33.5C 62.8333,33.5 65.1667,33.5 67.5,33.5C 67.5,41.8333 67.5,50.1667 67.5,58.5 Z"/></g>
<g><path style="opacity:1" fill="#6c6e6f" d="M 67.5,58.5 C 71.97,59.4861 76.6367,59.8195 81.5,59.5C 81.5,60.8333 81.5,62.1667 81.5,63.5C 74.8333,63.5 68.1667,63.5 61.5,63.5C 61.5,53.8333 61.5,44.1667 61.5,34.5C 63.1667,34.5 64.8333,34.5 66.5,34.5C 66.1743,42.6841 66.5076,50.6841 67.5,58.5 Z"/></g>
<g><path style="opacity:1" fill="#868788" d="M 137.5,39.5 C 137.5,37.8333 137.5,36.1667 137.5,34.5C 130.167,34.5 122.833,34.5 115.5,34.5C 115.5,44.1667 115.5,53.8333 115.5,63.5C 122.833,63.5 130.167,63.5 137.5,63.5C 137.5,62.1667 137.5,60.8333 137.5,59.5C 131.974,59.8214 126.64,59.4881 121.5,58.5C 127.167,58.5 132.833,58.5 138.5,58.5C 138.5,60.5 138.5,62.5 138.5,64.5C 130.5,64.5 122.5,64.5 114.5,64.5C 114.5,54.1667 114.5,43.8333 114.5,33.5C 122.5,33.5 130.5,33.5 138.5,33.5C 138.795,35.7354 138.461,37.7354 137.5,39.5 Z"/></g>
<g><path style="opacity:1" fill="#75a0ce" d="M 70.5,87.5 C 74.226,87.1774 77.8927,87.5108 81.5,88.5C 80.3112,89.4287 78.9778,89.762 77.5,89.5C 76.8333,106.833 76.1667,106.833 75.5,89.5C 73.2188,89.9227 71.5521,89.256 70.5,87.5 Z"/></g>
<g><path style="opacity:1" fill="#6696c9" d="M 233.5,87.5 C 241.098,87.3341 243.931,91.0008 242,98.5C 241.535,99.9308 240.701,101.097 239.5,102C 230.721,103.888 227.221,100.388 229,91.5C 230.196,89.714 231.696,88.3807 233.5,87.5 Z"/></g>
<g><path style="opacity:1" fill="#729ecd" d="M 348.5,87.5 C 352.226,87.1774 355.893,87.5108 359.5,88.5C 357.955,89.4519 356.288,89.7852 354.5,89.5C 353.833,106.833 353.167,106.833 352.5,89.5C 350.517,89.8432 349.183,89.1765 348.5,87.5 Z"/></g>
<g><path style="opacity:1" fill="#6495c8" d="M 44.5,87.5 C 52.4214,87.635 55.2547,91.635 53,99.5C 43.4233,105.501 39.09,102.834 40,91.5C 41.3968,89.9297 42.8968,88.5964 44.5,87.5 Z"/></g>
<g><path style="opacity:1" fill="#6394c7" d="M 110.5,88.5 C 111.675,88.281 112.675,88.6143 113.5,89.5C 115.644,93.6212 117.644,97.7879 119.5,102C 117.066,102.333 116.066,101.166 116.5,98.5C 113.428,98.1826 110.428,98.5159 107.5,99.5C 107.081,100.672 106.415,101.672 105.5,102.5C 105.167,102.167 104.833,101.833 104.5,101.5C 106.769,97.2954 108.769,92.9621 110.5,88.5 Z"/></g>
<g><path style="opacity:1" fill="#9fbedd" d="M 129.5,88.5 C 127.167,88.5 124.833,88.5 122.5,88.5C 122.5,93.1667 122.5,97.8333 122.5,102.5C 121.513,97.6946 121.179,92.6946 121.5,87.5C 124.385,87.1936 127.052,87.5269 129.5,88.5 Z"/></g>
<g><path style="opacity:1" fill="#97b9da" d="M 212.5,89.5 C 209.713,88.5233 206.713,88.19 203.5,88.5C 203.5,93.1667 203.5,97.8333 203.5,102.5C 202.513,97.6946 202.179,92.6946 202.5,87.5C 206.226,87.1774 209.893,87.5108 213.5,88.5C 213.376,89.1067 213.043,89.44 212.5,89.5 Z"/></g>
<g><path style="opacity:1" fill="#3778b9" d="M 262.5,88.5 C 261.617,93.1031 261.283,97.7697 261.5,102.5C 260.837,100.359 260.503,98.0254 260.5,95.5C 260.529,92.7305 261.195,90.3972 262.5,88.5 Z"/></g>
<g><path style="opacity:1" fill="#6998c9" d="M 287.5,94.5 C 285.167,95.1667 282.833,95.8333 280.5,96.5C 280.5,97.8333 280.5,99.1667 280.5,100.5C 283.247,100.187 285.914,100.52 288.5,101.5C 285.232,102.487 281.898,102.82 278.5,102.5C 278.5,97.5 278.5,92.5 278.5,87.5C 281.898,87.1796 285.232,87.513 288.5,88.5C 285.914,89.48 283.247,89.8134 280.5,89.5C 280.5,91.1667 280.5,92.8333 280.5,94.5C 282.833,94.5 285.167,94.5 287.5,94.5 Z"/></g>
<g><path style="opacity:1" fill="#7aa5d0" d="M 343.5,87.5 C 344.809,89.5706 345.475,92.0706 345.5,95C 345.167,97.5 344.833,100 344.5,102.5C 343.506,97.544 343.173,92.544 343.5,87.5 Z"/></g>
<g><path style="opacity:1" fill="#f4f8fb" d="M 43.5,89.5 C 49.8302,88.6662 52.6635,91.3329 52,97.5C 49.0301,102.249 45.6968,102.582 42,98.5C 41.068,95.1769 41.568,92.1769 43.5,89.5 Z"/></g>
<g><path style="opacity:1" fill="#6b9aca" d="M 57.5,87.5 C 61.226,87.1774 64.8927,87.5108 68.5,88.5C 65.5719,89.4841 62.5719,89.8174 59.5,89.5C 59.5,91.1667 59.5,92.8333 59.5,94.5C 70.1667,95.1667 70.1667,95.8333 59.5,96.5C 59.7989,98.604 59.4656,100.604 58.5,102.5C 57.5059,97.544 57.1725,92.544 57.5,87.5 Z"/></g>
<g><path style="opacity:1" fill="#6b99ca" d="M 212.5,89.5 C 209.833,89.5 207.167,89.5 204.5,89.5C 204.5,91.1667 204.5,92.8333 204.5,94.5C 215.167,95.1667 215.167,95.8333 204.5,96.5C 204.5,97.8333 204.5,99.1667 204.5,100.5C 207.572,100.183 210.572,100.516 213.5,101.5C 210.232,102.487 206.898,102.82 203.5,102.5C 203.5,97.8333 203.5,93.1667 203.5,88.5C 206.713,88.19 209.713,88.5233 212.5,89.5 Z"/></g>
<g><path style="opacity:1" fill="#f4f8fb" d="M 232.5,89.5 C 240.489,89.3191 242.822,92.8191 239.5,100C 232.231,102.067 229.398,99.234 231,91.5C 231.717,90.9558 232.217,90.2891 232.5,89.5 Z"/></g>
<g><path style="opacity:1" fill="#6d9dcc" d="M 307.5,87.5 C 311.555,87.1758 315.555,87.5091 319.5,88.5C 317.955,89.4519 316.288,89.7852 314.5,89.5C 313.833,106.833 313.167,106.833 312.5,89.5C 310.219,89.9227 308.552,89.256 307.5,87.5 Z"/></g>
<g><path style="opacity:1" fill="#5c90c5" d="M 157.5,87.5 C 168.201,86.9977 171.534,91.4977 167.5,101C 164.312,102.316 160.978,102.816 157.5,102.5C 157.5,97.5 157.5,92.5 157.5,87.5 Z"/></g>
<g><path style="opacity:1" fill="#f5f8fb" d="M 159.5,89.5 C 165.873,88.7289 168.706,91.3956 168,97.5C 166.871,99.1412 165.371,100.141 163.5,100.5C 162.167,100.5 160.833,100.5 159.5,100.5C 159.5,96.8333 159.5,93.1667 159.5,89.5 Z"/></g>
<g><path style="opacity:1" fill="#a0bfdd" d="M 159.5,89.5 C 159.5,93.1667 159.5,96.8333 159.5,100.5C 160.833,100.5 162.167,100.5 163.5,100.5C 162.081,101.451 160.415,101.784 158.5,101.5C 158.183,97.2984 158.517,93.2984 159.5,89.5 Z"/></g>
<g><path style="opacity:1" fill="#6193c7" d="M 182.5,94.5 C 180.167,95.1667 177.833,95.8333 175.5,96.5C 175.5,97.8333 175.5,99.1667 175.5,100.5C 178.167,101.167 180.833,101.833 183.5,102.5C 180.167,102.5 176.833,102.5 173.5,102.5C 173.5,97.5 173.5,92.5 173.5,87.5C 177.226,87.1774 180.893,87.5108 184.5,88.5C 181.572,89.4841 178.572,89.8174 175.5,89.5C 175.5,91.1667 175.5,92.8333 175.5,94.5C 177.833,94.5 180.167,94.5 182.5,94.5 Z"/></g>
<g><path style="opacity:1" fill="#6596c8" d="M 261.5,102.5 C 261.283,97.7697 261.617,93.1031 262.5,88.5C 264.144,90.4807 265.81,92.4807 267.5,94.5C 269.737,92.3529 271.737,90.0196 273.5,87.5C 274.833,92.5 274.833,97.5 273.5,102.5C 272.676,99.2152 272.176,95.8818 272,92.5C 270.959,94.5852 269.459,96.2519 267.5,97.5C 266.01,95.8744 264.51,94.2077 263,92.5C 262.821,96.0252 262.321,99.3586 261.5,102.5 Z"/></g>
<g><path style="opacity:1" fill="#6d9bcb" d="M 302.5,87.5 C 303.809,89.5706 304.475,92.0706 304.5,95C 304.167,97.5 303.833,100 303.5,102.5C 300.509,99.3386 297.675,96.0053 295,92.5C 294.824,95.8818 294.324,99.2152 293.5,102.5C 290.513,85.7118 293.346,84.3785 302,98.5C 302.499,94.8484 302.665,91.1817 302.5,87.5 Z"/></g>
<g><path style="opacity:1" fill="#6798c9" d="M 29.5,87.5 C 31.8273,87.2471 33.8273,87.9137 35.5,89.5C 33.4476,89.7053 31.1143,89.7053 28.5,89.5C 28.238,90.9778 28.5713,92.3112 29.5,93.5C 31.8111,94.2135 33.9777,95.2135 36,96.5C 37.1389,100.811 35.4722,102.811 31,102.5C 29.0271,102.691 27.5271,102.024 26.5,100.5C 26.6667,100.167 26.8333,99.8333 27,99.5C 29.9345,102.239 32.4345,102.073 34.5,99C 34.3552,98.228 34.0219,97.5613 33.5,97C 28.6857,96.534 26.519,94.034 27,89.5C 27.9947,88.9341 28.828,88.2674 29.5,87.5 Z"/></g>
<g><path style="opacity:1" fill="#e2ebf5" d="M 111.5,90.5 C 113.448,92.3204 114.448,94.6538 114.5,97.5C 112.833,97.5 111.167,97.5 109.5,97.5C 109.767,95.0347 110.434,92.7014 111.5,90.5 Z"/></g>
<g><path style="opacity:1" fill="#6495c8" d="M 129.5,88.5 C 133.225,88.7796 134.392,90.7796 133,94.5C 129.838,96.912 130.005,99.2454 133.5,101.5C 132.998,102.521 132.332,102.688 131.5,102C 130.164,98.168 127.497,96.668 123.5,97.5C 123.784,99.4147 123.451,101.081 122.5,102.5C 122.5,97.8333 122.5,93.1667 122.5,88.5C 124.833,88.5 127.167,88.5 129.5,88.5 Z"/></g>
<g><path style="opacity:1" fill="#f1f5fa" d="M 123.5,89.5 C 125.857,89.3367 128.19,89.5034 130.5,90C 131.833,91.6667 131.833,93.3333 130.5,95C 128.19,95.4966 125.857,95.6633 123.5,95.5C 123.5,93.5 123.5,91.5 123.5,89.5 Z"/></g>
<g><path style="opacity:1" fill="#6b9aca" d="M 146.5,94.5 C 144.167,95.1667 141.833,95.8333 139.5,96.5C 139.5,97.8333 139.5,99.1667 139.5,100.5C 142.247,100.187 144.914,100.52 147.5,101.5C 144.232,102.487 140.898,102.82 137.5,102.5C 137.5,97.5 137.5,92.5 137.5,87.5C 140.898,87.1796 144.232,87.513 147.5,88.5C 144.914,89.48 142.247,89.8134 139.5,89.5C 139.5,91.1667 139.5,92.8333 139.5,94.5C 141.833,94.5 144.167,94.5 146.5,94.5 Z"/></g>
<g><path style="opacity:1" fill="#adc8e1" d="M 146.5,94.5 C 147.043,94.56 147.376,94.8933 147.5,95.5C 144.914,96.48 142.247,96.8134 139.5,96.5C 141.833,95.8333 144.167,95.1667 146.5,94.5 Z"/></g>
<g><path style="opacity:1" fill="#aac6e0" d="M 182.5,94.5 C 183.043,94.56 183.376,94.8933 183.5,95.5C 180.914,96.48 178.247,96.8134 175.5,96.5C 177.833,95.8333 180.167,95.1667 182.5,94.5 Z"/></g>
<g><path style="opacity:1" fill="#6c9bcb" d="M 246.5,87.5 C 248.857,87.3367 251.19,87.5034 253.5,88C 257.87,89.978 258.536,92.8114 255.5,96.5C 253.253,97.3742 250.92,97.7076 248.5,97.5C 248.785,99.288 248.452,100.955 247.5,102.5C 246.506,97.544 246.173,92.544 246.5,87.5 Z"/></g>
<g><path style="opacity:1" fill="#f4f7fb" d="M 248.5,89.5 C 250.527,89.3379 252.527,89.5045 254.5,90C 255.833,91.6667 255.833,93.3333 254.5,95C 252.527,95.4955 250.527,95.6621 248.5,95.5C 248.5,93.5 248.5,91.5 248.5,89.5 Z"/></g>
<g><path style="opacity:1" fill="#adc8e2" d="M 287.5,94.5 C 288.043,94.56 288.376,94.8933 288.5,95.5C 285.914,96.48 283.247,96.8134 280.5,96.5C 282.833,95.8333 285.167,95.1667 287.5,94.5 Z"/></g>
<g><path style="opacity:1" fill="#6395c8" d="M 328.5,87.5 C 330.22,89.6581 331.053,92.3248 331,95.5C 333.719,92.0778 336.886,89.5778 340.5,88C 338.316,90.0165 336.316,92.1831 334.5,94.5C 342.328,104.504 341.828,104.837 333,95.5C 331.165,97.4494 329.999,99.7827 329.5,102.5C 328.506,97.544 328.173,92.544 328.5,87.5 Z"/></g>
<g><path style="opacity:1" fill="#6c9acb" d="M 102.5,87.5 C 103.376,87.3691 104.043,87.7025 104.5,88.5C 102.901,92.7959 101.401,97.1292 100,101.5C 99.1072,102.711 98.2739,102.711 97.5,101.5C 96.6326,98.0647 95.466,94.7314 94,91.5C 92.986,95.3775 91.486,99.0442 89.5,102.5C 86.5384,98.2575 85.0384,93.5909 85,88.5C 86.6486,91.4356 88.1486,94.4356 89.5,97.5C 90.9389,94.2809 92.6056,91.2809 94.5,88.5C 96.2695,91.7061 97.7695,95.0394 99,98.5C 100.632,94.9675 101.799,91.3008 102.5,87.5 Z"/></g>
<g><path style="opacity:1" fill="#abc6e1" d="M 175.5,100.5 C 178.572,100.183 181.572,100.516 184.5,101.5C 184.376,102.107 184.043,102.44 183.5,102.5C 180.833,101.833 178.167,101.167 175.5,100.5 Z"/></g>
<g><path style="opacity:1" fill="#6797c9" d="M 198.5,87.5 C 199.097,87.7352 199.43,88.2352 199.5,89C 197.118,93.2591 195.451,97.7591 194.5,102.5C 193.5,102.5 192.5,102.5 191.5,102.5C 190.432,97.9673 188.766,93.634 186.5,89.5C 187.274,88.2888 188.107,88.2888 189,89.5C 189.942,92.9927 191.275,96.326 193,99.5C 194.735,95.4628 196.569,91.4628 198.5,87.5 Z"/></g>
<g><path style="opacity:1" fill="#aac5e1" d="M 226.5,101.5 C 223.833,101.5 221.167,101.5 218.5,101.5C 218.666,97.1539 218.499,92.8206 218,88.5C 217.501,93.1548 217.334,97.8215 217.5,102.5C 216.513,97.6946 216.179,92.6946 216.5,87.5C 217.5,87.5 218.5,87.5 219.5,87.5C 219.5,91.8333 219.5,96.1667 219.5,100.5C 222.059,100.198 224.393,100.532 226.5,101.5 Z"/></g>
<g><path style="opacity:1" fill="#4682be" d="M 226.5,101.5 C 223.713,102.477 220.713,102.81 217.5,102.5C 217.334,97.8215 217.501,93.1548 218,88.5C 218.499,92.8206 218.666,97.1539 218.5,101.5C 221.167,101.5 223.833,101.5 226.5,101.5 Z"/></g>
</svg>
