<svg xmlns="http://www.w3.org/2000/svg" width="606" height="162" style="shape-rendering:geometricPrecision;text-rendering:geometricPrecision;image-rendering:optimizeQuality;fill-rule:evenodd;clip-rule:evenodd"><path style="opacity:1" fill="#fdfdfd" d="M-.5-.5h606v162H-.5V-.5z"/><path style="opacity:1" fill="silver" d="M152.5 13.5c-4.202-.317-8.202.017-12 1h-4c2.243-1.312 4.91-1.978 8-2 2.855.002 5.522.336 8 1z"/><path style="opacity:1" fill="#494949" d="M68.5 14.5c-6.69-.046-13.357.287-20 1 3.723-1.497 7.723-2.163 12-2 2.855.002 5.522.336 8 1z"/><path style="opacity:1" fill="#444" d="M140.5 14.5c3.798-.983 7.798-1.317 12-1a9.818 9.818 0 0 1 4 3c-5.11-1.68-10.443-2.347-16-2z"/><path style="opacity:1" fill="#959595" d="M186.5 13.5v1c-1.419.951-3.085 1.284-5 1 1.135-1.713 2.802-2.38 5-2z"/><path style="opacity:1" fill="#464646" d="M186.5 14.5v-1c7.358-.718 14.358.282 21 3l1 2a85.263 85.263 0 0 1-10-3 36.872 36.872 0 0 0-12-1z"/><path style="opacity:1" d="M68.5 14.5c.11.617.444 1.117 1 1.5 2.31.497 4.643.663 7 .5 2.245.596 4.245 1.596 6 3 1 1.667 2.333 3 4 4a79.266 79.266 0 0 0 6 13v74h-25a992.81 992.81 0 0 0-1-63c-.16-1.653-.826-2.986-2-4 0-1.333-.667-2-2-2-2.128-1.13-4.462-1.296-7-.5-.752.67-1.086 1.504-1 2.5-.667 0-1 .333-1 1-1.318 2.758-1.985 5.924-2 9.5.002 3.352.335 6.519 1 9.5 2.107.968 4.44 1.302 7 1v24c-2.56-.302-4.893.032-7 1-.991 6.813-1.325 13.813-1 21h-26v-68c1.792-3.69 3.125-7.69 4-12l5-8a26.694 26.694 0 0 0 7-5h1c1.903-.296 3.57-.962 5-2h1a176.075 176.075 0 0 1 20-1z"/><path style="opacity:1" fill="#020202" d="M140.5 14.5c5.557-.347 10.89.32 16 2l4 1a25.647 25.647 0 0 0 6 6c.458 2.81 1.791 3.476 4 2v-1l5-4c2.607-.959 4.607-2.626 6-5 1.915.284 3.581-.049 5-1 4.055-.324 8.055.01 12 1a85.263 85.263 0 0 0 10 3l6 5c-.073 1.527.594 2.527 2 3v2c.16 1.653.826 2.986 2 4v78h-26a2297.078 2297.078 0 0 1-1.5-68c-2.916-1.514-5.582-1.18-8 1-.5 22.33-.667 44.664-.5 67h-27c.331-22.84-.003-45.506-1-68-1.765-.961-3.765-1.295-6-1-.958.453-1.792 1.12-2.5 2-.5 22.33-.667 44.664-.5 67h-26c-.315-26.378.018-52.711 1-79v-2c3.358-5.69 8.025-10.023 14-13 2.51.447 4.51-.22 6-2z"/><path style="opacity:1" fill="#c3c3c3" d="M245.5 15.5c8.327-.666 16.827-1 25.5-1 8.861.002 17.361.669 25.5 2a19.24 19.24 0 0 0-6-1h-45z"/><path style="opacity:1" fill="#bababa" d="M460.5 15.5h-2c-23.336-.167-46.669 0-70 .5a82.66 82.66 0 0 0 0 25.5c-1.971-8.605-2.638-17.605-2-27a1369.58 1369.58 0 0 1 74 1z"/><path style="opacity:1" fill="#3f3f3f" d="m68.5 14.5 8 1v1a24.939 24.939 0 0 1-7-.5c-.556-.383-.89-.883-1-1.5z"/><path style="opacity:1" fill="#bfbfbf" d="M76.5 16.5v-1c3.519-.24 6.186 1.093 8 4h-2c-1.755-1.404-3.755-2.404-6-3z"/><path style="opacity:1" fill="#393939" d="M136.5 14.5h4c-1.49 1.78-3.49 2.447-6 2v-1c.992.172 1.658-.162 2-1z"/><path style="opacity:1" fill="#bdbdbd" d="M152.5 13.5c3.975-.014 7.308 1.32 10 4h-2l-4-1a9.818 9.818 0 0 0-4-3z"/><path style="opacity:1" fill="#656565" d="M47.5 15.5c-1.43 1.038-3.097 1.704-5 2 1.135-1.713 2.802-2.38 5-2z"/><path style="opacity:1" fill="#353535" d="M246.5 15.5h44v1h-43v94h26a1190.26 1190.26 0 0 1 1-69v70h-28v-96z"/><path style="opacity:1" fill="#010101" d="M290.5 16.5c1.765.961 3.765 1.295 6 1l6 2c.473 1.406 1.473 2.073 3 2a25.647 25.647 0 0 1 6 6c.238 1.904 1.238 3.238 3 4-.172.992.162 1.658 1 2-.241 2.398.426 4.398 2 6 1.06 10.334-1.273 19.667-7 28-4.106 1.044-5.439 3.378-4 7 1.756 1.052 2.423 2.719 2 5 .455 4.314 2.121 7.981 5 11 0 .667.333 1 1 1v2c-.073 1.527.594 2.527 2 3v1c.16 1.653.826 2.986 2 4v2a21.435 21.435 0 0 1 1 7h-26c.045-2.577-.955-4.577-3-6-.333-1-1-1.667-2-2v-2c-.259-2.772-1.259-5.105-3-7 .271-1.88-.396-3.213-2-4 .271-1.88-.396-3.213-2-4l-2-3v-26c2.559.302 4.893-.032 7-1 2.21-.394 3.543-1.727 4-4 .389-3.053-.277-5.72-2-8-.418-.722-1.084-1.222-2-1.5a72.442 72.442 0 0 0-12-.5 1190.26 1190.26 0 0 0-1 69h-26v-94h43z"/><path style="opacity:1" fill="#7a7a7a" d="M290.5 15.5a19.24 19.24 0 0 1 6 1v1c-2.235.295-4.235-.039-6-1v-1z"/><path style="opacity:1" fill="#c1c1c1" d="M296.5 17.5v-1c3.149-.085 5.816.915 8 3h-2l-6-2z"/><path style="opacity:1" fill="#9c9c9c" d="M368.5 15.5h-28v96h28c-9.486.994-19.152 1.327-29 1v-98c9.848-.327 19.514.006 29 1z"/><path style="opacity:1" fill="#373737" d="M368.5 15.5v96h-28v-96h28z"/><path style="opacity:1" d="M341.5 16.5h26v94h-26v-94z"/><path style="opacity:1" fill="#cfcfcf" d="M368.5 15.5c.617.11 1.117.444 1.5 1l.5 47.5c-.001 16.181-.667 32.014-2 47.5v-96z"/><path style="opacity:1" fill="#383838" d="M458.5 15.5v1h-69v24c6.522-.324 12.855.01 19 1h-20a82.66 82.66 0 0 1 0-25.5c23.331-.5 46.664-.667 70-.5z"/><path style="opacity:1" d="M458.5 16.5v24c-6.854-.324-13.521.01-20 1-1.99 22.642-2.656 45.642-2 69h-25c.656-23.358-.01-46.358-2-69h-1c-6.145-.99-12.478-1.324-19-1v-24h69z"/><path style="opacity:1" fill="#6b6b6b" d="M458.5 15.5h2v26h-22c6.479-.99 13.146-1.324 20-1v-25z"/><path style="opacity:1" fill="#898989" d="M134.5 15.5v1c-5.975 2.977-10.642 7.31-14 13 2.333-7 7-11.667 14-14z"/><path style="opacity:1" fill="#7e7e7e" d="M160.5 17.5h2a6.544 6.544 0 0 0 3 3c.61.891.943 1.891 1 3a25.647 25.647 0 0 1-6-6z"/><path style="opacity:1" fill="#3a3a3a" d="M181.5 15.5c-1.393 2.374-3.393 4.041-6 5l1-2c1.399-1.39 3.066-2.39 5-3z"/><path style="opacity:1" fill="#979797" d="M207.5 16.5c3.333 1.333 5.667 3.667 7 7l-6-5-1-2z"/><path style="opacity:1" fill="#8a8a8a" d="M41.5 17.5a26.694 26.694 0 0 1-7 5c1.447-2.764 3.78-4.43 7-5z"/><path style="opacity:1" fill="#737373" d="M82.5 19.5h2c1.1 1.105 1.767 2.438 2 4-1.667-1-3-2.333-4-4z"/><path style="opacity:1" fill="#777" d="M302.5 19.5h2c0 .667.333 1 1 1v1c-1.527.073-2.527-.594-3-2z"/><path style="opacity:1" fill="#cdcdcd" d="M165.5 20.5a17.907 17.907 0 0 0 5 3v2c-1.562-.233-2.895-.9-4-2a5.727 5.727 0 0 0-1-3z"/><path style="opacity:1" fill="#8a8a8a" d="m176.5 18.5-1 2-5 4v-1c1.411-2.414 3.411-4.08 6-5z"/><path style="opacity:1" fill="#aaa" d="M305.5 21.5v-1c3.333 1.333 5.667 3.667 7 7h-1a25.647 25.647 0 0 0-6-6z"/><path style="opacity:1" fill="#565656" d="M166.5 23.5c1.105 1.1 2.438 1.767 4 2-2.209 1.476-3.542.81-4-2z"/><path style="opacity:1" fill="#919191" d="M214.5 23.5c1.406.473 2.073 1.473 2 3-1.406-.473-2.073-1.473-2-3z"/><path style="opacity:1" fill="#878787" d="m34.5 22.5-5 8h-1c.942-3.59 2.942-6.257 6-8z"/><path style="opacity:1" fill="#3d3d3d" d="M86.5 23.5c3.312 3.63 5.312 7.962 6 13a79.266 79.266 0 0 1-6-13z"/><path style="opacity:1" fill="#3b3b3b" d="M311.5 27.5h1c1.1 1.105 1.767 2.438 2 4-1.762-.762-2.762-2.096-3-4z"/><path style="opacity:1" fill="#858585" d="M216.5 28.5c1.676.683 2.343 2.017 2 4-1.174-1.014-1.84-2.347-2-4z"/><path style="opacity:1" fill="#868686" d="M314.5 31.5c1.333 0 2 .667 2 2h-1c-.838-.342-1.172-1.008-1-2z"/><path style="opacity:1" fill="#757575" d="M28.5 30.5c.27 1.88-.396 3.213-2 4a5.728 5.728 0 0 1 1-3c0-.667.333-1 1-1z"/><path style="opacity:1" fill="#bdbdbd" d="M312.5 27.5c2.987 1.33 4.987 3.664 6 7 1.318 6.822 1.318 13.489 0 20 .321-5.195-.013-10.195-1-15a19.222 19.222 0 0 0-1-6c0-1.333-.667-2-2-2-.233-1.562-.9-2.895-2-4z"/><path style="opacity:1" fill="#d4d4d4" d="M27.5 31.5a5.728 5.728 0 0 0-1 3v2c-1.869 2.135-2.536 4.802-2 8v1h-1a25.87 25.87 0 0 1 1-10c.557-1.832 1.557-3.165 3-4z"/><path style="opacity:1" fill="#3f3f3f" d="M315.5 33.5h1c.65 1.935.983 3.935 1 6-1.574-1.602-2.241-3.602-2-6z"/><path style="opacity:1" fill="#3e3e3e" d="M62.5 41.5a18.436 18.436 0 0 0-6 .5c-.556.383-.89.883-1 1.5h-1c-.086-.996.248-1.83 1-2.5 2.538-.796 4.872-.63 7 .5z"/><path style="opacity:1" fill="#212121" d="M28.5 30.5h1c-.875 4.31-2.208 8.31-4 12 .017-2.065.35-4.065 1-6v-2c1.604-.787 2.27-2.12 2-4z"/><path style="opacity:1" fill="#b4b4b4" d="M62.5 41.5v1a21.445 21.445 0 0 0-7 1c.11-.617.444-1.117 1-1.5a18.436 18.436 0 0 1 6-.5z"/><path style="opacity:1" fill="#989898" d="M148.5 42.5v-1c2.235-.295 4.235.039 6 1v1a19.24 19.24 0 0 0-6-1z"/><path style="opacity:1" fill="#717171" d="M218.5 32.5c.667 0 1 .333 1 1a1562.862 1562.862 0 0 1 1 78h-28v-1h26v-78z"/><path style="opacity:1" fill="#dadada" d="M219.5 33.5c1.333 12.65 1.999 25.65 2 39 0 13.171-.333 26.171-1 39 .315-26.044-.018-52.044-1-78z"/><path style="opacity:1" fill="#555" d="M62.5 41.5c1.333 0 2 .667 2 2-.992.172-1.658-.162-2-1v-1z"/><path style="opacity:1" fill="#a6a6a6" d="M274.5 41.5a72.442 72.442 0 0 1 12 .5c.916.278 1.582.778 2 1.5h-3c-2.554-.888-5.221-1.221-8-1-1.99 22.642-2.656 45.642-2 69h-1v-70z"/><path style="opacity:1" fill="#eaeaea" d="M277.5 42.5v12h7v1h-6c-.666 4.32-.999 8.82-1 13.5.007 4.886.674 9.386 2 13.5l2 3c.16 1.653.826 2.986 2 4v2c-2.748-1.435-4.414-3.769-5-7-.35 9.37-1.35 18.371-3 27-.656-23.358.01-46.358 2-69z"/><path style="opacity:1" fill="#fefefe" d="M277.5 42.5c2.779-.221 5.446.112 8 1 1.742 2.645 2.409 5.645 2 9-1.679-.215-2.679.452-3 2h-7v-12z"/><path style="opacity:1" fill="#d4d4d4" d="M388.5 41.5h20v70a1190.26 1190.26 0 0 1-1-69c-6.522.324-12.855-.01-19-1z"/><path style="opacity:1" fill="#979797" d="M408.5 41.5h1a1190.26 1190.26 0 0 0 1 69c8.818.993 17.818 1.327 27 1a105.651 105.651 0 0 1-29 0v-70z"/><path style="opacity:1" fill="#282828" d="M409.5 41.5c1.99 22.642 2.656 45.642 2 69h-1a1190.26 1190.26 0 0 1-1-69z"/><path style="opacity:1" fill="#474747" d="M438.5 41.5v70h-1c-9.182.327-18.182-.007-27-1h26c-.656-23.358.01-46.358 2-69z"/><path style="opacity:1" fill="#cdcdcd" d="M438.5 41.5h22c-6.813.991-13.813 1.325-21 1a1190.26 1190.26 0 0 1-1 69v-70z"/><path style="opacity:1" fill="#696969" d="M26.5 36.5a19.242 19.242 0 0 0-1 6v2h-1c-.536-3.198.131-5.865 2-8z"/><path style="opacity:1" fill="#d0d0d0" d="M84.5 19.5c5.294 3.883 8.628 9.217 10 16 1.329 25.497 1.329 50.83 0 76 .167-24.002 0-48.002-.5-72-.232-1.237-.732-2.237-1.5-3-.688-5.038-2.688-9.37-6-13-.233-1.562-.9-2.895-2-4z"/><path style="opacity:1" fill="#313131" d="M92.5 40.5c.998 23.494 1.33 47.16 1 71-9.182.327-18.182-.007-27-1v-63a992.81 992.81 0 0 1 1 63h25v-70z"/><path style="opacity:1" fill="#767676" d="M92.5 36.5c.768.763 1.268 1.763 1.5 3 .5 23.998.667 47.998.5 72h-1c.33-23.84-.002-47.506-1-71v-4z"/><path style="opacity:1" fill="#3f3f3f" d="M317.5 39.5c.987 4.805 1.321 9.805 1 15v1a258.949 258.949 0 0 0-5 10l-3 2c5.727-8.333 8.06-17.666 7-28z"/><path style="opacity:1" fill="#373737" d="M120.5 31.5a1603.195 1603.195 0 0 0-1 79h26c-.167-22.336 0-44.67.5-67 .708-.88 1.542-1.547 2.5-2v2c-.617.11-1.117.444-1.5 1-.5 22.33-.667 44.664-.5 67h-28v-74c-.475-2.582.192-4.582 2-6z"/><path style="opacity:1" fill="#d7d7d7" d="M285.5 43.5h3l1 8-2 2a5.728 5.728 0 0 0-3 1c.321-1.548 1.321-2.215 3-2 .409-3.355-.258-6.355-2-9z"/><path style="opacity:1" fill="#a4a4a4" d="M148.5 43.5a1193.304 1193.304 0 0 0-1 68h-1c-.167-22.336 0-44.67.5-67 .383-.556.883-.89 1.5-1z"/><path style="opacity:1" fill="#e5e5e5" d="M148.5 42.5a19.24 19.24 0 0 1 6 1v68a2163.29 2163.29 0 0 1-1.5-66 7.248 7.248 0 0 0-2.5-2c-.339 23.015-1.339 45.681-3 68-.312-22.712.021-45.379 1-68v-1z"/><path style="opacity:1" fill="#888" d="M288.5 43.5c1.723 2.28 2.389 4.947 2 8h-1l-1-8z"/><path style="opacity:1" fill="#323232" d="M53.5 44.5a96.252 96.252 0 0 0-1 19c-.665-2.981-.998-6.148-1-9.5.015-3.576.682-6.742 2-9.5z"/><path style="opacity:1" fill="#525252" d="M154.5 42.5c.997 22.494 1.331 45.16 1 68h27v1h-28v-69z"/><path style="opacity:1" fill="#818181" d="M192.5 110.5v1h-2c.167-22.67 0-45.336-.5-68-1.616-1.3-3.116-1.3-4.5 0a1150.13 1150.13 0 0 1-3 68v-1c-.167-22.336 0-44.67.5-67 2.418-2.18 5.084-2.514 8-1 .168 22.837.668 45.504 1.5 68z"/><path style="opacity:1" fill="#d1d1d1" d="M185.5 43.5c1.384-1.3 2.884-1.3 4.5 0 .5 22.664.667 45.33.5 68a2229.685 2229.685 0 0 1-1.5-67c-1.011-.837-2.178-1.17-3.5-1z"/><path style="opacity:1" fill="#a2a2a2" d="M54.5 43.5a123.927 123.927 0 0 0-1 19c2.56-.302 4.893.032 7 1h-8a96.252 96.252 0 0 1 1-19c0-.667.333-1 1-1z"/><path style="opacity:1" fill="#acacac" d="m64.5 47.5 2 63c8.818.993 17.818 1.327 27 1-9.486.994-19.152 1.327-29 1v-65z"/><path style="opacity:1" fill="#646464" d="M64.5 43.5c1.174 1.014 1.84 2.347 2 4v63l-2-63v-4z"/><path style="opacity:1" fill="#343434" d="M24.5 44.5h1v66h26c-.325-7.187.009-14.187 1-21v22h-28v-67z"/><path style="opacity:1" fill="#3d3d3d" d="M289.5 51.5h1c-.457 2.273-1.79 3.606-4 4l1-2 2-2z"/><path style="opacity:1" fill="gray" d="m287.5 53.5-1 2h-2v-1a5.728 5.728 0 0 1 3-1z"/><path style="opacity:1" fill="#c6c6c6" d="M278.5 55.5c-.326 8.517.007 16.85 1 25v2c-1.326-4.114-1.993-8.614-2-13.5.001-4.68.334-9.18 1-13.5z"/><path style="opacity:1" fill="#555" d="M278.5 55.5h8c-2.107.968-4.441 1.302-7 1v24c-.993-8.15-1.326-16.483-1-25z"/><path style="opacity:1" fill="#b9b9b9" d="M318.5 55.5c-.196 4.25-1.862 7.583-5 10a258.949 258.949 0 0 1 5-10z"/><path style="opacity:1" fill="#3a3a3a" d="M52.5 63.5h8v26h-8c2.107-.968 4.44-1.302 7-1v-24c-2.56.302-4.893-.032-7-1z"/><path style="opacity:1" fill="#454545" d="M310.5 67.5c-2.205 1.863-3.539 4.197-4 7-1.439-3.622-.106-5.956 4-7z"/><path style="opacity:1" fill="#cbcbcb" d="M313.5 65.5c-.531 2.044-1.698 3.71-3.5 5-.659 3.388-.492 6.721.5 10l-2-1c.423-2.281-.244-3.948-2-5 .461-2.803 1.795-5.137 4-7l3-2z"/><path style="opacity:1" fill="#8c8c8c" d="M310.5 82.5c1.406.473 2.073 1.473 2 3-1.548-.321-2.215-1.321-2-3z"/><path style="opacity:1" fill="#2e2e2e" d="m308.5 79.5 2 1v2c-.215 1.679.452 2.679 2 3v1l1 4c-2.879-3.019-4.545-6.686-5-11z"/><path style="opacity:1" fill="#4d4d4d" d="M281.5 85.5c1.604.787 2.271 2.12 2 4-1.174-1.014-1.84-2.347-2-4z"/><path style="opacity:1" fill="#979797" d="M312.5 86.5c1.713 1.135 2.38 2.802 2 5-.667 0-1-.333-1-1l-1-4z"/><path style="opacity:1" fill="#a9a9a9" d="M52.5 89.5h8c-2.107.968-4.44 1.302-7 1 .325 7.187-.009 14.187-1 21v-22z"/><path style="opacity:1" fill="#3f3f3f" d="M283.5 89.5c1.604.787 2.271 2.12 2 4l-2-2v-2z"/><path style="opacity:1" fill="#b9b9b9" d="m283.5 91.5 2 2c.65 1.935.983 3.935 1 6-2.085-2.184-3.085-4.851-3-8z"/><path style="opacity:1" fill="#616161" d="M314.5 93.5c1.406.473 2.073 1.473 2 3-1.406-.473-2.073-1.473-2-3z"/><path style="opacity:1" fill="#888" d="M316.5 97.5c1.676.683 2.343 2.017 2 4-1.174-1.014-1.84-2.347-2-4z"/><path style="opacity:1" fill="#525252" d="M285.5 93.5c1.741 1.895 2.741 4.228 3 7l-2-1a19.222 19.222 0 0 0-1-6z"/><path style="opacity:1" fill="#747474" d="M288.5 102.5c1 .333 1.667 1 2 2v1c-1.406-.473-2.073-1.473-2-3z"/><path style="opacity:1" fill="#cecece" d="m286.5 99.5 2 1v2c-.073 1.527.594 2.527 2 3l1 4c-3.071-2.481-4.737-5.814-5-10z"/><path style="opacity:1" fill="#3c3c3c" d="M318.5 103.5c1.613 1.928 2.613 4.262 3 7a211.151 211.151 0 0 1-29 1c.172-.992-.162-1.658-1-2l-1-4v-1c2.045 1.423 3.045 3.423 3 6h26a21.435 21.435 0 0 0-1-7z"/><path style="opacity:1" fill="#b4b4b4" d="M23.5 45.5h1v66h28c-9.735 1.329-19.569 1.329-29.5 0a759.337 759.337 0 0 1 .5-66zM118.5 37.5v74h28c-9.735 1.329-19.569 1.329-29.5 0-.667-24-.667-48 0-72 .278-.916.778-1.583 1.5-2z"/><path style="opacity:1" fill="#a9a9a9" d="M245.5 15.5h1v96h28c-9.486.994-19.152 1.327-29 1v-97z"/><path style="opacity:1" fill="#bfbfbf" d="M314.5 91.5h3a91.592 91.592 0 0 0 6 17.5 6.293 6.293 0 0 1-1 3c-10.175.825-20.175.658-30-.5 9.69.332 19.356-.002 29-1-.387-2.738-1.387-5.072-3-7v-2c.343-1.983-.324-3.317-2-4v-1c.073-1.527-.594-2.527-2-3v-2z"/><path style="opacity:1" fill="#c6c6c6" d="M156.5 125.5c-4.1-.263-8.1.07-12 1 1.548-1.294 3.548-1.961 6-2 2.196.005 4.196.338 6 1z"/><path style="opacity:1" fill="#d6d6d6" d="M188.5 125.5c5.846-1.317 11.846-1.317 18 0 2.059 1.451 3.059 3.451 3 6-.973-1.639-2.306-2.973-4-4-.473-1.406-1.473-2.073-3-2h-14z"/><path style="opacity:1" fill="#c6c6c6" d="M364.5 125.5c-4.1-.263-8.1.07-12 1 1.548-1.294 3.548-1.961 6-2 2.196.005 4.196.338 6 1zM442.5 125.5c-4.1-.263-8.1.07-12 1 1.548-1.294 3.548-1.961 6-2 2.196.005 4.196.338 6 1z"/><path style="opacity:1" fill="#c3c3c3" d="M488.5 125.5c-3.439-.247-6.772.086-10 1 1.194-1.277 2.86-1.944 5-2 1.869.007 3.536.34 5 1z"/><path style="opacity:1" fill="#c4c4c4" d="M516.5 125.5c-3.871-.315-7.538.018-11 1h-1c1.548-1.294 3.548-1.961 6-2 2.196.005 4.196.338 6 1z"/><path style="opacity:1" fill="#c8c8c8" d="M576.5 125.5c-4.1-.263-8.1.07-12 1 1.548-1.294 3.548-1.961 6-2 2.196.005 4.196.338 6 1z"/><path style="opacity:1" fill="#424242" d="M300.5 125.5h20v1a91.123 91.123 0 0 0-19 1 112.33 112.33 0 0 1 5 2h-6v-4z"/><path style="opacity:1" fill="#dbdbdb" d="M388.5 125.5c3.517-1.12 7.184-1.12 11 0v24h-5v-24h-6z"/><path style="opacity:1" fill="#b0b0b0" d="M488.5 126.5v-1c1.983-.343 3.317.324 4 2l-4-1z"/><path style="opacity:1" fill="#4f4f4f" d="M505.5 126.5c3.462-.982 7.129-1.315 11-1 1.653.16 2.986.826 4 2 .734 1.208 1.067 2.541 1 4h-1c-.531-2.124-1.865-3.624-4-4.5a60.931 60.931 0 0 0-11-.5z"/><path style="opacity:1" fill="#464646" d="M540.5 126.5c5.81-.99 11.81-1.323 18-1v4h-12a812.705 812.705 0 0 1 11-2 73.133 73.133 0 0 0-17-1z"/><path style="opacity:1" fill="#141414" d="M30.5 127.5v2c-.073 1.527.594 2.527 2 3v1c.16 1.653.826 2.986 2 4 .16 1.653.826 2.986 2 4l1 4v3c-2.577.045-4.577-.955-6-3h-9c.067 1.459-.266 2.792-1 4a9.86 9.86 0 0 1-6-1 6.846 6.846 0 0 0 1-4v-2c1.406-.473 2.073-1.473 2-3v-1c1.406-.473 2.073-1.473 2-3v-2c1.406-.473 2.073-1.473 2-3 1.604-.787 2.27-2.12 2-4 2.12-.175 4.12.159 6 1z"/><path style="opacity:1" fill="#9b9b9b" d="M56.5 125.5h-14v23c-.992-7.482-1.325-15.148-1-23 5-1.333 10-1.333 15 0z"/><path style="opacity:1" fill="#373737" d="M56.5 125.5v1h-13v22h12v1h-13v-24h14z"/><path style="opacity:1" fill="#0a0a0a" d="M56.5 126.5c.936 1.474 2.27 2.474 4 3a37.297 37.297 0 0 1 .5 14c-1.406 2.244-3.239 3.91-5.5 5h-12v-22h13z"/><path style="opacity:1" fill="#141414" d="M72.5 134.5c1.468 1.279 2.135 2.946 2 5 .017 1.528.684 2.028 2 1.5a18.163 18.163 0 0 0 2-5.5v-2c1.663-1.938 2.33-4.272 2-7h5a19.24 19.24 0 0 1-1 6v2c-1.406.473-2.073 1.473-2 3v2a42.417 42.417 0 0 1-4 9.5c-2.998.891-5.664.391-8-1.5a46.845 46.845 0 0 0-2-9c.073-1.527-.594-2.527-2-3v-3a19.24 19.24 0 0 1-1-6h4c.12 3.078 1.12 5.745 3 8zM102.5 127.5v2c-.073 1.527.594 2.527 2 3v1c.16 1.653.826 2.986 2 4 .16 1.653.826 2.986 2 4l1 4v3c-2.577.045-4.577-.955-6-3h-9c.067 1.459-.266 2.792-1 4a9.86 9.86 0 0 1-6-1 6.846 6.846 0 0 0 1-4v-2c1.406-.473 2.073-1.473 2-3v-1c1.406-.473 2.073-1.473 2-3v-2c1.406-.473 2.073-1.473 2-3 1.604-.787 2.27-2.12 2-4 2.12-.175 4.121.159 6 1z"/><path style="opacity:1" fill="#d9d9d9" d="M112.5 125.5c.628 7.413-.039 14.413-2 21 0-.667-.333-1-1-1l-1-4h3c-.321-5.526.012-10.86 1-16z"/><path style="opacity:1" fill="#0a0a0a" d="M114.5 126.5c3.288-.484 5.955.516 8 3-.073 1.527.594 2.527 2 3v1c-.073 1.527.594 2.527 2 3 .667 2.667 1.333 2.667 2 0 .979-3.125 1.313-6.458 1-10h4v22h-5c-.17-2.704-1.503-4.371-4-5a5.727 5.727 0 0 0-1-3c.172-.992-.162-1.658-1-2-1.068-.934-2.401-1.268-4-1v11h-4v-22z"/><path style="opacity:1" fill="#313131" d="M128.5 125.5h6v24c-2.235.295-4.235-.039-6-1h5v-22h-4c.313 3.542-.021 6.875-1 10v-11z"/><path style="opacity:1" fill="#9e9e9e" d="M134.5 125.5h2v24h-2v-24z"/><path style="opacity:1" fill="#ddd" d="M136.5 125.5c.44 2.344 1.44 4.344 3 6v9c-1.61 2.703-2.61 5.703-3 9v-24z"/><path style="opacity:1" fill="#616161" d="m156.5 125.5 1 2c-6.613-2.275-12.279-.942-17 4 .636-2.295 1.969-3.961 4-5 3.9-.93 7.9-1.263 12-1z"/><path style="opacity:1" fill="#0d0d0d" d="M182.5 126.5v3h-11c-.295 2.235.039 4.235 1 6 2.858.666 5.858 1.333 9 2a467.073 467.073 0 0 0-9 2c-1.333 2-1.333 4 0 6 3.521.666 7.187 1.333 11 2a81.883 81.883 0 0 1-18 1v-22h17z"/><path style="opacity:1" fill="#838383" d="M182.5 125.5c1.676.683 2.343 2.017 2 4h-2v-4z"/><path style="opacity:1" fill="#434343" d="M188.5 125.5h14v1h-13v22h12c1-.333 1.667-1 2-2h3a10.165 10.165 0 0 0-3 3h-15v-24z"/><path style="opacity:1" fill="#080808" d="M202.5 126.5c.891.61 1.891.943 3 1 2.271 6.143 2.604 12.477 1 19h-3c.256-4.882-.077-9.882-1-15-1.642-1.581-3.642-2.247-6-2-1.946 4.896-2.613 10.229-2 16 2.659.417 4.992 1.417 7 3h-12v-22h13z"/><path style="opacity:1" fill="#888" d="M202.5 126.5v-1c1.527-.073 2.527.594 3 2a5.727 5.727 0 0 1-3-1z"/><path style="opacity:1" fill="#9d9d9d" d="M224.5 125.5v24c-1.324-3.607-1.991-7.607-2-12 .009-4.393.676-8.393 2-12z"/><path style="opacity:1" fill="#2f2f2f" d="M224.5 125.5h8v1h-7v22h3v1h-4v-24z"/><path style="opacity:1" fill="#060606" d="M232.5 126.5a20.69 20.69 0 0 0 1 5c.423 2.281-.244 3.948-2 5-.311-.978-.978-1.645-2-2a49.87 49.87 0 0 0-1 14h-3v-22h7z"/><path style="opacity:1" fill="#121212" d="M240.5 126.5h8v22h-4a57.15 57.15 0 0 0-1-15 26.918 26.918 0 0 0-3 9v3c-.845 1.171-1.511 2.505-2 4-1.599.268-2.932-.066-4-1-1.051-3.156-1.051-6.156 0-9 1.208.734 2.541 1.067 4 1v-6c1.723-2.28 2.389-4.947 2-8z"/><path style="opacity:1" fill="#5f5f5f" d="M240.5 126.5c2.448-.973 5.115-1.306 8-1h1v24h-5v-1h4v-22h-8z"/><path style="opacity:1" fill="#d3d4d4" d="M249.5 125.5h4v24h-4v-24z"/><path style="opacity:1" fill="#a2a2a2" d="M270.5 125.5h-16v24h6c-2.333 1.333-4.667 1.333-7 0v-24c5.667-1.333 11.333-1.333 17 0z"/><path style="opacity:1" fill="#363636" d="M270.5 125.5v1h-15v22h4c-.31-3.213.023-6.213 1-9v10h-6v-24h16z"/><path style="opacity:1" fill="#0e0e0e" d="M270.5 126.5c.342.838 1.008 1.172 2 1 .888 2.554 1.221 5.221 1 8-3.85 3.21-3.516 6.21 1 9v2c-1.418 1.808-3.418 2.475-6 2-.492-2.319-1.492-4.319-3-6-.548-2.584-2.215-3.584-5-3-.977 2.787-1.31 5.787-1 9h-4v-22h15z"/><path style="opacity:1" fill="#838383" d="M270.5 125.5c1.333 0 2 .667 2 2-.992.172-1.658-.162-2-1v-1z"/><path style="opacity:1" fill="#d0d0d0" d="M278.5 125.5v24h-3c.237-1.291-.096-2.291-1-3v-2a5.727 5.727 0 0 0-1-3c1.443.835 2.443 2.168 3 4a4379.31 4379.31 0 0 1 2-20z"/><path style="opacity:1" fill="#747474" d="M278.5 125.5h2v1a61.015 61.015 0 0 0 0 22v1h-2v-24z"/><path style="opacity:1" fill="#111" d="M280.5 126.5h5v22h-5a61.015 61.015 0 0 1 0-22z"/><path style="opacity:1" fill="#565656" d="M280.5 126.5v-1h6v24h-6v-1h5v-22h-5z"/><path style="opacity:1" fill="#0a0a0a" d="M320.5 126.5v3h-6c-.99 6.145-1.323 12.478-1 19h-5c.623-6.755-.044-13.088-2-19a112.33 112.33 0 0 0-5-2 91.123 91.123 0 0 1 19-1z"/><path style="opacity:1" fill="#838383" d="M320.5 125.5c1.676.683 2.343 2.017 2 4h-2v-4z"/><path style="opacity:1" fill="#c8c8c8" d="M300.5 125.5a242.56 242.56 0 0 1 44 0h-20v24l-2-20c.343-1.983-.324-3.317-2-4h-20z"/><path style="opacity:1" fill="#0d0d0d" d="M342.5 126.5v3h-11c-.295 2.235.039 4.235 1 6 2.858.666 5.858 1.333 9 2a467.073 467.073 0 0 0-9 2c-1.333 2-1.333 4 0 6 3.521.666 7.187 1.333 11 2a81.883 81.883 0 0 1-18 1v-22h17z"/><path style="opacity:1" fill="#838383" d="M342.5 125.5h2v4h-2v-4z"/><path style="opacity:1" fill="#616161" d="m364.5 125.5 1 2c-6.613-2.275-12.279-.942-17 4 .636-2.295 1.969-3.961 4-5 3.9-.93 7.9-1.263 12-1z"/><path style="opacity:1" fill="#555" d="M372.5 125.5h8v10c-1.888-2.488-2.555-5.488-2-9h-5v22h5c-.555-3.512.112-6.512 2-9v10h-8v-24z"/><path style="opacity:1" fill="#090909" d="M380.5 135.5h7c1.888-2.488 2.555-5.488 2-9h4v22h-4c.555-3.512-.112-6.512-2-9h-7c-1.888 2.488-2.555 5.488-2 9h-5v-22h5c-.555 3.512.112 6.512 2 9z"/><path style="opacity:1" fill="#b8b8b8" d="M380.5 125.5c.977 2.787 1.31 5.787 1 9h5c-.555-3.512.112-6.512 2-9-.914 3.228-1.247 6.561-1 10h-7v-10z"/><path style="opacity:1" fill="#424242" d="M388.5 125.5h6v24h-6c-.914-3.228-1.247-6.561-1-10 1.888 2.488 2.555 5.488 2 9h4v-22h-4c.555 3.512-.112 6.512-2 9-.247-3.439.086-6.772 1-10z"/><path style="opacity:1" fill="#9e9e9e" d="M406.5 125.5h-6v24h6c-2.333 1.333-4.667 1.333-7 0v-24c2.333-1.333 4.667-1.333 7 0z"/><path style="opacity:1" fill="#cdcdcd" d="M406.5 126.5v-1c2.987 1.331 4.987 3.664 6 7a246.697 246.697 0 0 1 2-7c.569 3.829-.098 7.163-2 10l-2-4c0-1.333-.667-2-2-2 .073-1.527-.594-2.527-2-3z"/><path style="opacity:1" fill="#676767" d="M414.5 125.5h6v1h-5v11c-1.679.215-2.679-.452-3-2 1.902-2.837 2.569-6.171 2-10z"/><path style="opacity:1" fill="#0c0c0c" d="M406.5 126.5c-.073 1.527.594 2.527 2 3 1.333 0 2 .667 2 2l2 4c.321 1.548 1.321 2.215 3 2v-11h5v23c-2.235.295-4.235-.039-6-1 .073-1.527-.594-2.527-2-3-.225-3.046-1.558-5.379-4-7-.342-.838-1.008-1.172-2-1-.982 3.462-1.315 7.129-1 11h-4v-22h5z"/><path style="opacity:1" fill="#787878" d="M420.5 125.5h2v24h-2v-24z"/><path style="opacity:1" fill="#dbdbdb" d="m422.5 125.5 2 8v8l-2 8v-24z"/><path style="opacity:1" fill="#c7c7c7" d="M442.5 125.5c3.832.327 6.165 2.327 7 6l-3-2-3-2-1-2z"/><path style="opacity:1" fill="#606060" d="M452.5 125.5h8v20c-.99-6.145-1.323-12.478-1-19h-6c-.325 7.519.008 14.852 1 22v1h-2v-24z"/><path style="opacity:1" fill="#0e0e0e" d="M460.5 145.5c2.858.666 5.858 1.333 9 2a57.15 57.15 0 0 1-15 1c-.992-7.148-1.325-14.481-1-22h6c-.323 6.522.01 12.855 1 19z"/><path style="opacity:1" fill="#575757" d="M488.5 125.5v1a34.163 34.163 0 0 0-10 1v-1c3.228-.914 6.561-1.247 10-1z"/><path style="opacity:1" fill="#9c9c9c" d="M534.5 125.5h-6v24h6c-2.448.973-5.115 1.306-8 1v-26c2.885-.306 5.552.027 8 1z"/><path style="opacity:1" fill="#343434" d="M534.5 125.5v24h-6v-24h6z"/><path style="opacity:1" d="M529.5 126.5h4v22h-4v-22z"/><path style="opacity:1" fill="#9c9c9c" d="M558.5 125.5c-6.19-.323-12.19.01-18 1a61.015 61.015 0 0 0 0 22v1h-2v-25c6.854-.324 13.521.009 20 1z"/><path style="opacity:1" fill="#111" d="M540.5 126.5a73.133 73.133 0 0 1 17 1 812.705 812.705 0 0 0-11 2v6c3.189.666 6.523 1.333 10 2a624.355 624.355 0 0 0-10 2v6c3.521.666 7.187 1.333 11 2a73.133 73.133 0 0 1-17 1 61.015 61.015 0 0 1 0-22z"/><path style="opacity:1" fill="#656565" d="M30.5 125.5v2c-1.88-.841-3.88-1.175-6-1 .27 1.88-.396 3.213-2 4-.213-1.644.12-3.144 1-4.5a24.935 24.935 0 0 1 7-.5z"/><path style="opacity:1" fill="silver" d="M30.5 127.5h3a92.744 92.744 0 0 1 3 14c-1.174-1.014-1.84-2.347-2-4 .343-1.983-.324-3.317-2-4v-1c.073-1.527-.594-2.527-2-3v-2z"/><path style="opacity:1" fill="#656565" d="M102.5 125.5v2c-1.879-.841-3.88-1.175-6-1 .27 1.88-.396 3.213-2 4-.213-1.644.12-3.144 1-4.5a24.934 24.934 0 0 1 7-.5z"/><path style="opacity:1" fill="silver" d="M102.5 127.5h3a92.744 92.744 0 0 1 3 14c-1.174-1.014-1.84-2.347-2-4 .343-1.983-.324-3.317-2-4v-1c.073-1.527-.594-2.527-2-3v-2z"/><path style="opacity:1" fill="#636363" d="M114.5 126.5c1.765-.961 3.765-1.295 6-1 1.1 1.105 1.767 2.438 2 4-2.045-2.484-4.712-3.484-8-3z"/><path style="opacity:1" fill="#676767" d="M56.5 125.5c.992-.172 1.658.162 2 1 1.051.722 1.718 1.722 2 3-1.73-.526-3.064-1.526-4-3v-1z"/><path style="opacity:1" fill="#bfbfbf" d="M70.5 125.5h-6a18.437 18.437 0 0 0 .5 6c.383.556.883.889 1.5 1v3c-.073 1.527.594 2.527 2 3a46.845 46.845 0 0 1 2 9 102.05 102.05 0 0 1-5.5-13c-.29 2.42-.79 4.754-1.5 7h-1a60.94 60.94 0 0 0-.5-11c-.383-.556-.883-.889-1.5-1-.282-1.278-.949-2.278-2-3 2.498-1.127 5.164-1.794 8-2 1.545.011 2.878.344 4 1z"/><path style="opacity:1" fill="#838383" d="M70.5 125.5c1.431 1.28 2.098 2.947 2 5-1.713-1.135-2.38-2.802-2-5z"/><path style="opacity:1" fill="#111" d="M157.5 127.5c1 .333 1.667 1 2 2-.12 1.086-.787 1.753-2 2-3.135-2.018-6.468-2.351-10-1a40.282 40.282 0 0 0-1 12c-.073 1.527.594 2.527 2 3 1.446 1.113 3.113 1.28 5 .5.752-.671 1.086-1.504 1-2.5 1.542-.801 3.208-1.134 5-1v3c-3.851 2.661-8.184 3.661-13 3-1.333-2-3-3.667-5-5-.983-3.798-1.317-7.798-1-12 4.721-4.942 10.387-6.275 17-4zM365.5 127.5c1 .333 1.667 1 2 2-.12 1.086-.787 1.753-2 2-3.135-2.018-6.468-2.351-10-1a40.282 40.282 0 0 0-1 12c-.073 1.527.594 2.527 2 3 1.446 1.113 3.113 1.28 5 .5.752-.671 1.086-1.504 1-2.5 1.542-.801 3.208-1.134 5-1v3c-3.851 2.661-8.184 3.661-13 3-1.333-2-3-3.667-5-5-.983-3.798-1.317-7.798-1-12 4.721-4.942 10.387-6.275 17-4z"/><path style="opacity:1" fill="#4e4e4e" d="M406.5 126.5c1.406.473 2.073 1.473 2 3-1.406-.473-2.073-1.473-2-3z"/><path style="opacity:1" fill="#121212" d="m443.5 127.5 3 2c1.752 3.727 2.419 7.727 2 12v1c-2.043 1.079-3.376 2.746-4 5l-4 1c-7.387-.186-7.721-1.186-1-3 .958-.453 1.792-1.119 2.5-2 .812-4.189.645-8.189-.5-12h-1c-1.052-1.756-2.719-2.423-5-2-1.517.011-2.684.677-3.5 2-.812 4.189-.645 8.189.5 12h1c.219 1.175-.114 2.175-1 3a16.076 16.076 0 0 0-5-2c-.904-.709-1.237-1.709-1-3v-10c4.667-4.941 10.334-6.274 17-4z"/><path style="opacity:1" fill="#929292" d="M478.5 126.5v1c-2.544 1.208-3.878 3.208-4 6h-1v-2c.667-2.667 2.333-4.333 5-5z"/><path style="opacity:1" fill="#0d0d0d" d="M488.5 126.5c-1.656 1.56-3.656 2.56-6 3-.958.453-1.792 1.119-2.5 2a50.464 50.464 0 0 0-.5 10c-.214 1.644.12 3.144 1 4.5a2.428 2.428 0 0 1-2 .5c-1.673-.843-2.84-2.176-3.5-4a40.914 40.914 0 0 1-.5-9c.122-2.792 1.456-4.792 4-6a34.163 34.163 0 0 1 10-1z"/><path style="opacity:1" fill="#2e2e2e" d="m488.5 126.5 4 1v1h-3v3h-1c-1.32-1.442-2.986-2.108-5-2h-1c2.344-.44 4.344-1.44 6-3z"/><path style="opacity:1" fill="#0b0b0b" d="M492.5 128.5a10.165 10.165 0 0 1 3 3c.54 4.985-.293 9.651-2.5 14-1.878.553-3.378 1.553-4.5 3-8.708-.198-9.042-1.198-1-3 1.25-.077 2.083-.744 2.5-2 .762-4.087.596-8.087-.5-12v-3h3z"/><path style="opacity:1" fill="#bbb" d="M492.5 128.5v-1c2.679.025 4.012 1.358 4 4h-1a10.165 10.165 0 0 0-3-3z"/><path style="opacity:1" fill="#131313" d="M505.5 126.5a60.931 60.931 0 0 1 11 .5c2.135.876 3.469 2.376 4 4.5-.916.482-1.916.815-3 1-3.215-3.453-6.715-3.787-10.5-1a30.485 30.485 0 0 0 0 11c2.048 2.856 4.548 3.523 7.5 2 0-.667.333-1 1-1 .934-1.068 1.268-2.401 1-4a44.093 44.093 0 0 0-3-2 16.873 16.873 0 0 1 8-1v10c-1.43 1.037-3.097 1.704-5 2-6.012.818-11.012-.849-15-5h-1v-12c2-1.333 3.667-3 5-5z"/><path style="opacity:1" fill="#0f0f0f" d="M578.5 127.5c.801 1.542 1.134 3.208 1 5-2.054.135-3.721-.532-5-2-1.419-.951-3.085-1.284-5-1-1.301 1.384-1.301 2.884 0 4.5a70.523 70.523 0 0 0 9 1.5c4.336 4.838 3.669 9.004-2 12.5-3.388.659-6.721.492-10-.5h-2l-1-2v-3c2.054-.135 3.721.532 5 2 2.111 1.242 4.111 1.242 6 0 2.667-1 2.667-2 0-3-.321-1.548-1.321-2.215-3-2h-3c-.473-1.406-1.473-2.073-3-2-.667 0-1-.333-1-1-2.289-7.06.378-10.393 8-10 2.048.172 4.048.505 6 1z"/><path style="opacity:1" fill="#b3b3b3" d="M182.5 129.5h2c-3.462.982-7.129 1.315-11 1v4c3.213-.31 6.213.023 9 1h-10c-.961-1.765-1.295-3.765-1-6h11zM342.5 129.5h2c-3.462.982-7.129 1.315-11 1v4c3.213-.31 6.213.023 9 1h-10c-.961-1.765-1.295-3.765-1-6h11z"/><path style="opacity:1" fill="#9f9f9f" d="M435.5 130.5v-1c2.281-.423 3.948.244 5 2-1.542-.801-3.208-1.134-5-1z"/><path style="opacity:1" fill="#7e7e7e" d="M504.5 126.5h1c-1.333 2-3 3.667-5 5 .58-2.249 1.913-3.915 4-5z"/><path style="opacity:1" fill="#6b6b6b" d="M576.5 125.5c1.333 0 2 .667 2 2a36.945 36.945 0 0 0-6-1c-7.622-.393-10.289 2.94-8 10l-2-1c-.221-2.779.112-5.446 1-8 .667 0 1-.333 1-1 3.9-.93 7.9-1.263 12-1z"/><path style="opacity:1" fill="#d5d5d5" d="M30.5 125.5a24.935 24.935 0 0 0-7 .5c-.88 1.356-1.213 2.856-1 4.5-1.406.473-2.073 1.473-2 3v2h-1a21.296 21.296 0 0 1 3-10.5c2.867-.801 5.534-.634 8 .5z"/><path style="opacity:1" fill="#8f8f8f" d="M54.5 131.5c-1.542-.801-3.209-1.134-5-1v14h5c-1.765.961-3.765 1.295-6 1v-16c2.582-.475 4.582.192 6 2z"/><path style="opacity:1" fill="#cbcbcb" d="M54.5 131.5c1.294 1.548 1.96 3.548 2 6-.143 2.613-.81 4.947-2 7h-5v-14c1.791-.134 3.458.199 5 1z"/><path style="opacity:1" fill="#d5d5d5" d="M102.5 125.5a24.934 24.934 0 0 0-7 .5c-.88 1.356-1.213 2.856-1 4.5-1.406.473-2.073 1.473-2 3v2h-1a21.296 21.296 0 0 1 3-10.5c2.867-.801 5.534-.634 8 .5z"/><path style="opacity:1" fill="#7d7d7d" d="M122.5 129.5h1c.61.891.943 1.891 1 3-1.406-.473-2.073-1.473-2-3z"/><path style="opacity:1" fill="#787878" d="M196.5 129.5v16h-2c-.613-5.771.054-11.104 2-16z"/><path style="opacity:1" fill="#6d6d6d" d="M232.5 125.5h1a19.22 19.22 0 0 1 1 6h-1a20.69 20.69 0 0 1-1-5v-1z"/><path style="opacity:1" fill="#c5c5c5" d="M248.5 125.5c-2.885-.306-5.552.027-8 1-1.268 2.405-1.935 5.072-2 8v1c-1.333 1.333-2.667 1.333-4 0v-4a19.22 19.22 0 0 0-1-6c1.594 2.561 2.594 5.561 3 9l2-9c3.467-1.288 6.8-1.288 10 0z"/><path style="opacity:1" fill="#868686" d="M262.5 129.5c-1.333 2-1.333 4 0 6-1.193-.47-1.86-1.47-2-3 .14-1.53.807-2.53 2-3z"/><path style="opacity:1" fill="#e5e5e5" d="M262.5 129.5h4v5c-1.068.934-2.401 1.268-4 1-1.333-2-1.333-4 0-6z"/><path style="opacity:1" fill="#9a9a9a" d="M300.5 129.5h6c1.956 5.912 2.623 12.245 2 19 1.765.961 3.765 1.295 6 1-2.448.973-5.115 1.306-8 1v-20c-2.235.295-4.235-.039-6-1z"/><path style="opacity:1" fill="#414141" d="M314.5 129.5v20c-2.235.295-4.235-.039-6-1h5c-.323-6.522.01-12.855 1-19z"/><path style="opacity:1" fill="#bfbfbf" d="M314.5 129.5h8c-2.107.968-4.441 1.302-7 1 .323 6.522-.01 12.855-1 19v-20z"/><path style="opacity:1" fill="#797979" d="M408.5 129.5c1.333 0 2 .667 2 2-1.333 0-2-.667-2-2z"/><path style="opacity:1" fill="#6e6e6e" d="m442.5 125.5 1 2c-6.666-2.274-12.333-.941-17 4 .636-2.295 1.969-3.961 4-5 3.9-.93 7.9-1.263 12-1z"/><path style="opacity:1" fill="#fbfbfb" d="M483.5 130.5c1.235.221 2.235.888 3 2 1.159 3.622 1.325 7.289.5 11-1.938 1.36-3.604 1.027-5-1a50.464 50.464 0 0 1-.5-10c.333-1 1-1.667 2-2z"/><path style="opacity:1" fill="#545454" d="M30.5 129.5c1.406.473 2.073 1.473 2 3-1.406-.473-2.073-1.473-2-3z"/><path style="opacity:1" fill="#fefefe" d="M51.5 131.5c.617.111 1.117.444 1.5 1 .825 3.711.659 7.378-.5 11a36.872 36.872 0 0 1-1-12z"/><path style="opacity:1" fill="#545454" d="M102.5 129.5c1.406.473 2.073 1.473 2 3-1.406-.473-2.073-1.473-2-3z"/><path style="opacity:1" fill="#f0f0f0" d="M196.5 130.5c1.89-.203 3.39.463 4.5 2 .499 3.652.665 7.318.5 11-1.279 1.468-2.946 2.135-5 2v-15z"/><path style="opacity:1" fill="#5e5e5e" d="M266.5 129.5c2.548 1.796 2.548 3.462 0 5v-5z"/><path style="opacity:1" fill="#f2f2f2" d="M435.5 130.5c1.792-.134 3.458.199 5 1h1a60.931 60.931 0 0 1-.5 11c-1.789 1.729-3.956 2.396-6.5 2v-1c-1.554-4.543-1.221-8.877 1-13z"/><path style="opacity:1" fill="#cbcbcb" d="M563.5 127.5c-.888 2.554-1.221 5.221-1 8-.656-1.122-.989-2.455-1-4 .085-1.833.752-3.166 2-4z"/><path style="opacity:1" fill="#7d7d7d" d="M22.5 130.5c.073 1.527-.594 2.527-2 3-.073-1.527.594-2.527 2-3z"/><path style="opacity:1" fill="#5b5b5b" d="M86.5 125.5a18.437 18.437 0 0 1-.5 6c-.383.556-.883.889-1.5 1a19.24 19.24 0 0 0 1-6h-5c.33 2.728-.337 5.062-2 7a51.648 51.648 0 0 1 1-7c2.107-.968 4.44-1.302 7-1z"/><path style="opacity:1" fill="#7d7d7d" d="M94.5 130.5c.073 1.527-.594 2.527-2 3-.073-1.527.594-2.527 2-3z"/><path style="opacity:1" fill="#797979" d="M159.5 129.5h1v3h-6c-2.094-2.494-4.094-2.494-6 0-.979 3.125-1.313 6.458-1 10h-1a40.282 40.282 0 0 1 1-12c3.532-1.351 6.865-1.018 10 1 1.213-.247 1.88-.914 2-2z"/><path style="opacity:1" fill="#ababab" d="M160.5 129.5c.934 1.068 1.268 2.401 1 4-2.559.302-4.893-.032-7-1h6v-3z"/><path style="opacity:1" fill="#585858" d="M272.5 127.5h2v8h-1c.221-2.779-.112-5.446-1-8z"/><path style="opacity:1" fill="#797979" d="M367.5 129.5h1v3h-6c-2.094-2.494-4.094-2.494-6 0-.979 3.125-1.313 6.458-1 10h-1a40.282 40.282 0 0 1 1-12c3.532-1.351 6.865-1.018 10 1 1.213-.247 1.88-.914 2-2z"/><path style="opacity:1" fill="#ababab" d="M368.5 129.5c.934 1.068 1.268 2.401 1 4-2.559.302-4.893-.032-7-1h6v-3z"/><path style="opacity:1" fill="silver" d="M520.5 127.5c2.744.572 3.577 2.238 2.5 5-.671.752-1.504 1.086-2.5 1l1-2c.067-1.459-.266-2.792-1-4z"/><path style="opacity:1" fill="#a5a5a5" d="M580.5 129.5c1.086.12 1.753.787 2 2-.247 1.213-.914 1.88-2 2v-4z"/><path style="opacity:1" fill="#3b3b3b" d="M70.5 125.5c-.38 2.198.287 3.865 2 5v4c-1.88-2.255-2.88-4.922-3-8h-4a19.24 19.24 0 0 0 1 6c-.617-.111-1.117-.444-1.5-1a18.437 18.437 0 0 1-.5-6h6z"/><path style="opacity:1" fill="#c8c8c8" d="M86.5 125.5c.876-.131 1.543.202 2 1-.33 4.483-1.663 8.483-4 12v-6c.617-.111 1.117-.444 1.5-1 .496-1.973.662-3.973.5-6z"/><path style="opacity:1" fill="#565656" d="M240.5 126.5c.389 3.053-.277 5.72-2 8 .065-2.928.732-5.595 2-8z"/><path style="opacity:1" fill="#505050" d="M578.5 127.5c1.333 0 2 .667 2 2v4c-1.333 0-2 .667-2 2a70.523 70.523 0 0 1-9-1.5c-1.301-1.616-1.301-3.116 0-4.5-.237 1.291.096 2.291 1 3 1.068.934 2.401 1.268 4 1v-3c1.279 1.468 2.946 2.135 5 2 .134-1.792-.199-3.458-1-5z"/><path style="opacity:1" fill="#a1a1a1" d="M569.5 129.5c1.915-.284 3.581.049 5 1v3c-1.599.268-2.932-.066-4-1-.904-.709-1.237-1.709-1-3z"/><path style="opacity:1" fill="#ececec" d="M570.5 132.5c.447-2.473 1.447-2.64 3-.5a4.934 4.934 0 0 1-3 .5z"/><path style="opacity:1" fill="#7c7c7c" d="M32.5 133.5c1.676.683 2.343 2.017 2 4-1.174-1.014-1.84-2.347-2-4zM104.5 133.5c1.676.683 2.343 2.017 2 4-1.174-1.014-1.84-2.347-2-4z"/><path style="opacity:1" fill="#505050" d="M124.5 133.5c1.406.473 2.073 1.473 2 3-1.406-.473-2.073-1.473-2-3z"/><path style="opacity:1" fill="#c6c6c6" d="M128.5 125.5v11h-2c.073-1.527-.594-2.527-2-3v-1a5.727 5.727 0 0 0-1-3c1.593.848 2.76 2.181 3.5 4 .183-2.865.683-5.531 1.5-8z"/><path style="opacity:1" fill="#484848" d="M205.5 127.5c1.694 1.027 3.027 2.361 4 4a82.73 82.73 0 0 1-1 14l-2 1c1.604-6.523 1.271-12.857-1-19z"/><path style="opacity:1" fill="#d3d3d3" d="M347.5 131.5v9a20.69 20.69 0 0 0-5-1v-4h3c-.343-1.983.324-3.317 2-4z"/><path style="opacity:1" fill="#979797" d="M426.5 131.5v10h-2v-8c.333-1 1-1.667 2-2z"/><path style="opacity:1" fill="#3b3b3b" d="M435.5 129.5v1c-.958.453-1.792 1.119-2.5 2a60.931 60.931 0 0 0-.5 11c-1.145-3.811-1.312-7.811-.5-12 .816-1.323 1.983-1.989 3.5-2z"/><path style="opacity:1" fill="#8c8c8c" d="m446.5 129.5 3 2v10h-1c.419-4.273-.248-8.273-2-12z"/><path style="opacity:1" fill="#616161" d="M482.5 129.5h1v1c-1 .333-1.667 1-2 2-.977 2.787-1.31 5.787-1 9h-1c-.165-3.35.002-6.683.5-10 .708-.881 1.542-1.547 2.5-2z"/><path style="opacity:1" fill="#bdbdbd" d="M546.5 129.5h12c-3.462.982-7.129 1.315-11 1v4c3.213-.31 6.213.023 9 1h-10v-6z"/><path style="opacity:1" fill="#494949" d="M28.5 136.5c-1.562.233-2.895.9-4 2 .01-1.517.677-2.684 2-3.5 1.316-.528 1.983-.028 2 1.5z"/><path style="opacity:1" fill="#c5c5c5" d="M79.5 126.5a51.648 51.648 0 0 0-1 7v2a20.236 20.236 0 0 1-4 4c.135-2.054-.532-3.721-2-5v-3c.929 1.436 2.095 2.769 3.5 4 .754-3.318 1.92-6.318 3.5-9z"/><path style="opacity:1" fill="#494949" d="M100.5 136.5c-1.562.233-2.895.9-4 2 .01-1.517.677-2.684 2-3.5 1.316-.528 1.983-.028 2 1.5z"/><path style="opacity:1" fill="#d1d1d1" d="M148.5 132.5c-.165 3.35.002 6.683.5 10 1.356.88 2.856 1.214 4.5 1-1.135 1.713-2.802 2.38-5 2a5.727 5.727 0 0 0-1-3c-.313-3.542.021-6.875 1-10zM356.5 132.5c-.165 3.35.002 6.683.5 10 1.356.88 2.856 1.214 4.5 1-1.135 1.713-2.802 2.38-5 2a5.727 5.727 0 0 0-1-3c-.313-3.542.021-6.875 1-10z"/><path style="opacity:1" fill="#aaa" d="M435.5 130.5c-2.221 4.123-2.554 8.457-1 13h-2a60.931 60.931 0 0 1 .5-11c.708-.881 1.542-1.547 2.5-2z"/><path style="opacity:1" fill="#f4f4f4" d="M514.5 133.5c-3.755.828-4.755 2.995-3 6.5a8.43 8.43 0 0 0 4 .5v3c-.667 0-1 .333-1 1-5.059-.055-7.393-2.722-7-8-.327-4.51 1.673-6.343 6-5.5.752.671 1.086 1.504 1 2.5z"/><path style="opacity:1" fill="#404040" d="M522.5 135.5c.315 3.871-.018 7.538-1 11v-10a16.873 16.873 0 0 0-8 1 44.093 44.093 0 0 1 3 2h-4v-4h10z"/><path style="opacity:1" fill="#444" d="M84.5 134.5v2l-2 1c-.073-1.527.594-2.527 2-3z"/><path style="opacity:1" fill="#bdbdbd" d="M182.5 135.5c1.086.12 1.753.787 2 2-.247 1.213-.914 1.88-2 2v-4z"/><path style="opacity:1" fill="#9f9f9f" d="M196.5 130.5v-1c2.358-.247 4.358.419 6 2 .317 4.202-.017 8.202-1 12a60.931 60.931 0 0 0-.5-11c-1.11-1.537-2.61-2.203-4.5-2z"/><path style="opacity:1" fill="#484848" d="M231.5 136.5c.61.891.943 1.891 1 3a43.836 43.836 0 0 1-2-1 624.355 624.355 0 0 1-2 10 49.87 49.87 0 0 1 1-14c1.022.355 1.689 1.022 2 2z"/><path style="opacity:1" fill="gray" d="M441.5 131.5c1.145 3.811 1.312 7.811.5 12-.708.881-1.542 1.547-2.5 2-1.915.284-3.581-.049-5-1 2.544.396 4.711-.271 6.5-2 .499-3.652.665-7.318.5-11z"/><path style="opacity:1" fill="#707070" d="M19.5 135.5h1c.073 1.527-.594 2.527-2 3a5.728 5.728 0 0 1 1-3z"/><path style="opacity:1" fill="#626262" d="M66.5 135.5c1.406.473 2.073 1.473 2 3-1.406-.473-2.073-1.473-2-3z"/><path style="opacity:1" fill="#707070" d="M91.5 135.5h1c.073 1.527-.594 2.527-2 3a5.728 5.728 0 0 1 1-3z"/><path style="opacity:1" fill="#484848" d="M126.5 136.5h2c-.667 2.667-1.333 2.667-2 0z"/><path style="opacity:1" fill="#2b2b2b" d="M233.5 131.5h1v8c-1.051 2.844-1.051 5.844 0 9-1.574-1.602-2.241-3.602-2-6v-3a5.727 5.727 0 0 0-1-3c1.756-1.052 2.423-2.719 2-5z"/><path style="opacity:1" fill="#a6a6a6" d="M28.5 136.5v5h-4v-3c1.105-1.1 2.438-1.767 4-2z"/><path style="opacity:1" fill="#828282" d="M84.5 136.5v2c-.667 0-1 .333-1 1h-1v-2l2-1z"/><path style="opacity:1" fill="#a6a6a6" d="M100.5 136.5v5h-4v-3c1.105-1.1 2.438-1.767 4-2z"/><path style="opacity:1" fill="#3b3b3b" d="M122.5 138.5h-3v11c-1.915.284-3.581-.049-5-1h4v-11c1.599-.268 2.932.066 4 1z"/><path style="opacity:1" fill="#404040" d="M172.5 135.5h10v4h-10a467.073 467.073 0 0 1 9-2 467.073 467.073 0 0 1-9-2z"/><path style="opacity:1" fill="#2c2c2c" d="M202.5 131.5c.923 5.118 1.256 10.118 1 15-.333 1-1 1.667-2 2-2.008-1.583-4.341-2.583-7-3h2c2.054.135 3.721-.532 5-2 .983-3.798 1.317-7.798 1-12z"/><path style="opacity:1" fill="#626262" d="M234.5 135.5c1.333 1.333 2.667 1.333 4 0v5c-1.459.067-2.792-.266-4-1v-4z"/><path style="opacity:1" fill="#696969" d="M244.5 148.5c-.817-2.469-1.317-5.135-1.5-8-.708.881-1.542 1.547-2.5 2a26.918 26.918 0 0 1 3-9 57.15 57.15 0 0 1 1 15z"/><path style="opacity:1" fill="#969696" d="M273.5 135.5h1c-1.975 1.862-2.308 3.862-1 6 .61.891.943 1.891 1 3-4.516-2.79-4.85-5.79-1-9z"/><path style="opacity:1" fill="#d9d9d9" d="M274.5 127.5c.66 1.464.993 3.131 1 5 .052 3.241-.615 6.241-2 9-1.308-2.138-.975-4.138 1-6v-8z"/><path style="opacity:1" fill="#404040" d="M332.5 135.5h10v4h-10a467.073 467.073 0 0 1 9-2 467.073 467.073 0 0 1-9-2z"/><path style="opacity:1" fill="#bbb" d="M483.5 130.5v-1c2.014-.108 3.68.558 5 2 1.481 4.81 1.148 9.477-1 14-3.722.82-6.055-.513-7-4-.31-3.213.023-6.213 1-9-.165 3.35.002 6.683.5 10 1.396 2.027 3.062 2.36 5 1 .825-3.711.659-7.378-.5-11-.765-1.112-1.765-1.779-3-2z"/><path style="opacity:1" fill="#444" d="M546.5 135.5h10c1.333 1.333 1.333 2.667 0 4h-10a624.355 624.355 0 0 1 10-2 624.355 624.355 0 0 1-10-2z"/><path style="opacity:1" fill="#888" d="M565.5 138.5v-1c1.527-.073 2.527.594 3 2a5.727 5.727 0 0 1-3-1z"/><path style="opacity:1" fill="#b9b9b9" d="M514.5 133.5h6l2 2h-10v4h4c.268 1.599-.066 2.932-1 4v-3a8.43 8.43 0 0 1-4-.5c-1.755-3.505-.755-5.672 3-6.5z"/><path style="opacity:1" fill="#737373" d="M571.5 139.5c1.679-.215 2.679.452 3 2-1.21-.432-2.21-1.099-3-2z"/><path style="opacity:1" fill="#747474" d="M78.5 135.5a18.163 18.163 0 0 1-2 5.5c-1.316.528-1.983.028-2-1.5a20.236 20.236 0 0 0 4-4z"/><path style="opacity:1" fill="#717171" d="M122.5 138.5c.838.342 1.172 1.008 1 2a43.836 43.836 0 0 1-2-1 25.879 25.879 0 0 0-1 10h-1v-11h3z"/><path style="opacity:1" fill="#c4c4c4" d="M123.5 140.5c.61.891.943 1.891 1 3-.958-.453-1.792-1.119-2.5-2-.183 2.865-.683 5.531-1.5 8a25.879 25.879 0 0 1 1-10c.683.363 1.35.696 2 1z"/><path style="opacity:1" fill="#bdbdbd" d="M158.5 140.5c-2.473-.412-3.806.588-4 3h-1v-4c1.915-.284 3.581.049 5 1z"/><path style="opacity:1" fill="#858585" d="M260.5 139.5c2.785-.584 4.452.416 5 3a185.977 185.977 0 0 1-3-2 467.073 467.073 0 0 1-2 9v-10z"/><path style="opacity:1" fill="#bdbdbd" d="M366.5 140.5c-2.473-.412-3.806.588-4 3h-1v-4c1.915-.284 3.581.049 5 1z"/><path style="opacity:1" fill="#b8b8b8" d="M380.5 139.5h7c-.247 3.439.086 6.772 1 10-1.888-2.488-2.555-5.488-2-9h-5c.31 3.213-.023 6.213-1 9v-10z"/><path style="opacity:1" fill="#3b3b3b" d="M406.5 125.5v1h-5v22h4c-.315-3.871.018-7.538 1-11v12h-6v-24h6z"/><path style="opacity:1" fill="#b5b5b5" d="M406.5 137.5c.992-.172 1.658.162 2 1v2l-2 9v-12z"/><path style="opacity:1" fill="#d8d8d8" d="M452.5 125.5v24c-.402-2.977-1.402-5.643-3-8v-10c.617.111 1.117.444 1.5 1 .186-2.536.686-4.869 1.5-7z"/><path style="opacity:1" fill="#dcdcdc" d="M565.5 138.5c.891.61 1.891.943 3 1h3c.79.901 1.79 1.568 3 2v3c-2.358.247-4.358-.419-6-2-1.765-.961-3.765-1.295-6-1 1.4-.6 2.4-1.6 3-3z"/><path style="opacity:1" fill="#969696" d="M18.5 139.5c.073 1.527-.594 2.527-2 3-.073-1.527.594-2.527 2-3zM90.5 139.5c.073 1.527-.594 2.527-2 3-.073-1.527.594-2.527 2-3z"/><path style="opacity:1" fill="#444" d="M158.5 140.5c.709.904 1.709 1.237 3 1 .067 1.459-.266 2.792-1 4h-1v-3c-1.792-.134-3.458.199-5 1 .194-2.412 1.527-3.412 4-3z"/><path style="opacity:1" fill="#7d7d7d" d="M232.5 139.5v3c-.617-.111-1.117-.444-1.5-1 .053 3.175-.78 5.842-2.5 8v-1a624.355 624.355 0 0 0 2-10c.683.363 1.35.696 2 1z"/><path style="opacity:1" fill="#444" d="M366.5 140.5c.709.904 1.709 1.237 3 1 .067 1.459-.266 2.792-1 4h-1v-3c-1.792-.134-3.458.199-5 1 .194-2.412 1.527-3.412 4-3z"/><path style="opacity:1" fill="#9e9e9e" d="M520.5 131.5h1l-1 2h-6c.086-.996-.248-1.829-1-2.5-4.327-.843-6.327.99-6 5.5-.393 5.278 1.941 7.945 7 8-2.952 1.523-5.452.856-7.5-2a30.485 30.485 0 0 1 0-11c3.785-2.787 7.285-2.453 10.5 1a10.014 10.014 0 0 0 3-1z"/><path style="opacity:1" fill="#404040" d="M562.5 141.5c2.235-.295 4.235.039 6 1v2c-1.279-1.468-2.946-2.135-5-2v3c-.934-1.068-1.268-2.401-1-4z"/><path style="opacity:1" fill="#bcbcbc" d="M41.5 125.5c-.325 7.852.008 15.518 1 23v1h-4c.268-1.599-.066-2.932-1-4l-1-4c2.127.898 3.294 2.564 3.5 5 .172-7.179.672-14.179 1.5-21z"/><path style="opacity:1" fill="#a6a6a6" d="M244.5 148.5v1c-1.664-1.449-2.498-3.449-2.5-6-.383.556-.883.889-1.5 1v-2c.958-.453 1.792-1.119 2.5-2 .183 2.865.683 5.531 1.5 8z"/><path style="opacity:1" fill="#575757" d="M574.5 141.5c2.667 1 2.667 2 0 3v-3z"/><path style="opacity:1" fill="#383838" d="M141.5 143.5c2 1.333 3.667 3 5 5h-2l-2-2a5.727 5.727 0 0 0-1-3z"/><path style="opacity:1" fill="#494949" d="M146.5 142.5h1c.61.891.943 1.891 1 3-1.406-.473-2.073-1.473-2-3z"/><path style="opacity:1" fill="#383838" d="M349.5 143.5c2 1.333 3.667 3 5 5h-2l-2-2a5.727 5.727 0 0 0-1-3z"/><path style="opacity:1" fill="#494949" d="M354.5 142.5h1c.61.891.943 1.891 1 3-1.406-.473-2.073-1.473-2-3z"/><path style="opacity:1" fill="#777" d="M408.5 138.5c2.442 1.621 3.775 3.954 4 7l-4-5v-2z"/><path style="opacity:1" fill="#d1d1d1" d="M561.5 141.5a12.93 12.93 0 0 0 .5 5c.671.752 1.504 1.086 2.5 1h2c.111.617.444 1.117 1 1.5 4.591.942 8.924.442 13-1.5-.453.958-1.119 1.792-2 2.5a49.226 49.226 0 0 1-14 0c-1.333-2-2.667-2-4 0-7.512.822-14.845.655-22-.5h20v-5c.6-1.4 1.6-2.4 3-3z"/><path style="opacity:1" fill="#8e8e8e" d="M139.5 131.5h1c-.317 4.202.017 8.202 1 12 .61.891.943 1.891 1 3-2.475-1.187-3.475-3.187-3-6v-9z"/><path style="opacity:1" fill="#d3d3d3" d="M164.5 125.5v24c-.79-1.109-1.29-2.442-1.5-4-1.129 1.641-2.629 2.641-4.5 3l2-3c.734-1.208 1.067-2.541 1-4-1.291.237-2.291-.096-3-1 1.644-.214 3.144.12 4.5 1 .173-5.516.673-10.849 1.5-16z"/><path style="opacity:1" fill="#b2b2b2" d="M172.5 139.5h10c-2.787.977-5.787 1.31-9 1v4c3.871-.315 7.538.018 11 1h-12c-1.333-2-1.333-4 0-6zM332.5 139.5h10c-2.787.977-5.787 1.31-9 1v4c3.871-.315 7.538.018 11 1h-12c-1.333-2-1.333-4 0-6z"/><path style="opacity:1" fill="#8e8e8e" d="M347.5 131.5h1c-.317 4.202.017 8.202 1 12 .61.891.943 1.891 1 3-2.475-1.187-3.475-3.187-3-6v-9z"/><path style="opacity:1" fill="#d3d3d3" d="M372.5 125.5v24c-.79-1.109-1.29-2.442-1.5-4-1.129 1.641-2.629 2.641-4.5 3l2-3c.734-1.208 1.067-2.541 1-4-1.291.237-2.291-.096-3-1 1.644-.214 3.144.12 4.5 1 .173-5.516.673-10.849 1.5-16z"/><path style="opacity:1" fill="#707070" d="M448.5 142.5c-.636 2.295-1.969 3.961-4 5 .624-2.254 1.957-3.921 4-5z"/><path style="opacity:1" fill="#c8c8c8" d="M460.5 125.5c.99 6.145 1.323 12.478 1 19h10c-.597-4.794.07-9.127 2-13v2c-1.489 4.095-.989 8.095 1.5 12 .816 1.323 1.983 1.989 3.5 2 3.212 2.153 6.545 2.486 10 1 4.15.013 6.65-1.987 7.5-6 .497-2.646.664-5.313.5-8 .617.111 1.117.444 1.5 1 .608-1.566 1.442-2.9 2.5-4v10a43.836 43.836 0 0 1-2-1c-.393 4.062-2.393 7.062-6 9-6.343 1.72-12.343 1.053-18-2-1.024 1.353-2.357 2.02-4 2v-4h-10v-20z"/><path style="opacity:1" fill="#575757" d="M473.5 133.5h1a40.914 40.914 0 0 0 .5 9c.66 1.824 1.827 3.157 3.5 4v1c-1.517-.011-2.684-.677-3.5-2-2.489-3.905-2.989-7.905-1.5-12z"/><path style="opacity:1" fill="#4c4c4c" d="M495.5 131.5h1v3a32.462 32.462 0 0 1-.5 8c-.85 4.013-3.35 6.013-7.5 6 1.122-1.447 2.622-2.447 4.5-3 2.207-4.349 3.04-9.015 2.5-14z"/><path style="opacity:1" fill="#505050" d="M488.5 131.5h1c1.096 3.913 1.262 7.913.5 12-.417 1.256-1.25 1.923-2.5 2 2.148-4.523 2.481-9.19 1-14z"/><path style="opacity:1" fill="#8f8f8f" d="M500.5 143.5h1c.61.891.943 1.891 1 3l-2-1v-2z"/><path style="opacity:1" fill="#bcbcbc" d="M546.5 139.5h10c-2.787.977-5.787 1.31-9 1v4h11v1h-12v-6z"/><path style="opacity:1" fill="#9f9f9f" d="M568.5 142.5c1.642 1.581 3.642 2.247 6 2-1.889 1.242-3.889 1.242-6 0v-2z"/><path style="opacity:1" fill="#b8b8b8" d="M31.5 145.5c-.17 1.322.163 2.489 1 3.5 1.973.495 3.973.662 6 .5-2.128 1.129-4.462 1.296-7 .5-.837-1.011-1.17-2.178-1-3.5h-7c.215 1.679-.452 2.679-2 3 .734-1.208 1.067-2.541 1-4h9z"/><path style="opacity:1" fill="#cbcbcb" d="M62.5 141.5h1c.475 2.813-.525 4.813-3 6 1.13-1.815 1.796-3.815 2-6z"/><path style="opacity:1" fill="#a6a6a6" d="M120.5 125.5c-2.235-.295-4.235.039-6 1v22c1.419.951 3.085 1.284 5 1-5.15 1.151-10.484 1.317-16 .5-.837-1.011-1.17-2.178-1-3.5h-7c.215 1.679-.452 2.679-2 3 .734-1.208 1.067-2.541 1-4h9c-.17 1.322.163 2.489 1 3.5 1.973.495 3.973.662 6 .5v-3c1.961-6.587 2.628-13.587 2-21 2.667-1.333 5.333-1.333 8 0z"/><path style="opacity:1" fill="#595959" d="M124.5 143.5c2.497.629 3.83 2.296 4 5a10.165 10.165 0 0 1-3-3c-.838-.342-1.172-1.008-1-2z"/><path style="opacity:1" fill="#414141" d="M153.5 143.5h1c.086.996-.248 1.829-1 2.5-1.887.78-3.554.613-5-.5 2.198.38 3.865-.287 5-2z"/><path style="opacity:1" fill="#878787" d="M265.5 142.5c1.508 1.681 2.508 3.681 3 6h-1c-1.574-1.602-2.241-3.602-2-6z"/><path style="opacity:1" fill="#414141" d="M361.5 143.5h1c.086.996-.248 1.829-1 2.5-1.887.78-3.554.613-5-.5 2.198.38 3.865-.287 5-2z"/><path style="opacity:1" fill="#a8a8a8" d="M561.5 141.5h1c-.268 1.599.066 2.932 1 4l1 2c-.996.086-1.829-.248-2.5-1a12.93 12.93 0 0 1-.5-5z"/><path style="opacity:1" fill="#bfbfbf" d="M582.5 138.5c1.129 2.128 1.296 4.461.5 7-.708.881-1.542 1.547-2.5 2 1.623-2.715 2.29-5.715 2-9z"/><path style="opacity:1" fill="#555" d="M60.5 129.5c.617.111 1.117.444 1.5 1a60.94 60.94 0 0 1 .5 11c-.204 2.185-.87 4.185-2 6l-5 2v-1c2.261-1.09 4.094-2.756 5.5-5 .717-4.72.55-9.386-.5-14z"/><path style="opacity:1" fill="#646464" d="M159.5 145.5h1l-2 3c-4.133 1.226-8.133 1.226-12 0 4.816.661 9.149-.339 13-3zM367.5 145.5h1l-2 3c-4.133 1.226-8.133 1.226-12 0 4.816.661 9.149-.339 13-3z"/><path style="opacity:1" fill="#848484" d="M412.5 145.5c1.406.473 2.073 1.473 2 3-1.406-.473-2.073-1.473-2-3z"/><path style="opacity:1" fill="#2d2d2d" d="M433.5 143.5h1v1c1.419.951 3.085 1.284 5 1-6.721 1.814-6.387 2.814 1 3-5.148 1.626-9.482.292-13-4a16.076 16.076 0 0 1 5 2c.886-.825 1.219-1.825 1-3z"/><path style="opacity:1" fill="#2b2b2b" d="M479.5 141.5h1c.945 3.487 3.278 4.82 7 4-8.042 1.802-7.708 2.802 1 3-3.455 1.486-6.788 1.153-10-1v-1a2.428 2.428 0 0 0 2-.5c-.88-1.356-1.214-2.856-1-4.5z"/><path style="opacity:1" fill="#545454" d="M578.5 135.5c1.904.238 3.238 1.238 4 3 .29 3.285-.377 6.285-2 9-4.076 1.942-8.409 2.442-13 1.5-.556-.383-.889-.883-1-1.5 3.279.992 6.612 1.159 10 .5 5.669-3.496 6.336-7.662 2-12.5z"/><path style="opacity:1" fill="#414141" d="M31.5 145.5c1.423 2.045 3.423 3.045 6 3v-3c.934 1.068 1.268 2.401 1 4a18.452 18.452 0 0 1-6-.5c-.837-1.011-1.17-2.178-1-3.5zM103.5 145.5c1.423 2.045 3.423 3.045 6 3v-3c.667 0 1 .333 1 1v3a18.453 18.453 0 0 1-6-.5c-.837-1.011-1.17-2.178-1-3.5z"/><path style="opacity:1" fill="#4b4b4b" d="M164.5 125.5h18v1h-17v22a81.883 81.883 0 0 0 18-1 812.705 812.705 0 0 1-11-2h12v4h-20v-24z"/><path style="opacity:1" fill="#c6c6c6" d="M208.5 145.5c-.629 2.497-2.296 3.83-5 4a10.165 10.165 0 0 1 3-3l2-1z"/><path style="opacity:1" fill="#4b4b4b" d="M274.5 146.5c.904.709 1.237 1.709 1 3-2.559.302-4.893-.032-7-1 2.582.475 4.582-.192 6-2zM342.5 125.5v1h-17v22a81.883 81.883 0 0 0 18-1 812.705 812.705 0 0 1-11-2h12v4h-20v-24h18z"/><path style="opacity:1" fill="#414141" d="M460.5 145.5h10v4h-16v-1a57.15 57.15 0 0 0 15-1 467.073 467.073 0 0 1-9-2z"/><path style="opacity:1" fill="#474747" d="M501.5 143.5c3.988 4.151 8.988 5.818 15 5v1a60.931 60.931 0 0 1-11-.5 81.316 81.316 0 0 1-3-2.5 5.727 5.727 0 0 0-1-3z"/><path style="opacity:1" fill="#aeaeae" d="M522.5 135.5c1.145 3.811 1.312 7.811.5 12-1.897 1.516-4.064 2.183-6.5 2v-1c1.903-.296 3.57-.963 5-2 .982-3.462 1.315-7.129 1-11z"/><path style="opacity:1" fill="#424242" d="M546.5 145.5h12v4h-18v-1a73.133 73.133 0 0 0 17-1 812.705 812.705 0 0 1-11-2z"/><path style="opacity:1" fill="#aeaeae" d="M16.5 144.5a6.846 6.846 0 0 1-1 4 9.86 9.86 0 0 0 6 1c-2.107.968-4.44 1.302-7 1-.447-2.51.22-4.51 2-6z"/><path style="opacity:1" fill="#bebebe" d="M82.5 139.5h1a43.851 43.851 0 0 1-3 10.5c-3.317.498-6.65.665-10 .5v-3c2.336 1.891 5.002 2.391 8 1.5a42.417 42.417 0 0 0 4-9.5z"/><path style="opacity:1" fill="#aeaeae" d="M88.5 144.5a6.846 6.846 0 0 1-1 4 9.86 9.86 0 0 0 6 1c-2.107.968-4.44 1.302-7 1-.447-2.51.22-4.51 2-6z"/><path style="opacity:1" fill="#ccc" d="M125.5 145.5a10.165 10.165 0 0 0 3 3c1.765.961 3.765 1.295 6 1-2.128 1.129-4.461 1.296-7 .5-1.607-1.049-2.273-2.549-2-4.5z"/><path style="opacity:1" fill="#c7c7c7" d="M144.5 148.5h2c3.867 1.226 7.867 1.226 12 0-1.723 1.3-3.89 1.967-6.5 2l-6.5-.5c-.556-.383-.889-.883-1-1.5z"/><path style="opacity:1" fill="#d5d5d5" d="M232.5 142.5c-.241 2.398.426 4.398 2 6 1.068.934 2.401 1.268 4 1 1.676-.683 2.343-2.017 2-4v-1c.617-.111 1.117-.444 1.5-1 .002 2.551.836 4.551 2.5 6h4c-8 1.333-16 1.333-24 0h4c1.72-2.158 2.553-4.825 2.5-8 .383.556.883.889 1.5 1z"/><path style="opacity:1" fill="#909090" d="M240.5 145.5c.343 1.983-.324 3.317-2 4 .489-1.495 1.155-2.829 2-4z"/><path style="opacity:1" fill="#c4c4c4" d="M267.5 148.5h1c2.107.968 4.441 1.302 7 1-1.122.656-2.455.989-4 1-1.833-.085-3.166-.752-4-2z"/><path style="opacity:1" fill="#c7c7c7" d="M352.5 148.5h2c3.867 1.226 7.867 1.226 12 0-1.723 1.3-3.89 1.967-6.5 2l-6.5-.5c-.556-.383-.889-.883-1-1.5z"/><path style="opacity:1" fill="#b7b7b7" d="M425.5 141.5h1c-.237 1.291.096 2.291 1 3 3.518 4.292 7.852 5.626 13 4l4-1c-.077 1.25-.744 2.083-2 2.5-6.509 1.759-12.009.259-16.5-4.5a8.43 8.43 0 0 1-.5-4z"/><path style="opacity:1" fill="#cacaca" d="m500.5 145.5 2 1a81.316 81.316 0 0 0 3 2.5c3.652.499 7.318.665 11 .5-3.811 1.145-7.811 1.312-12 .5-2.135-.876-3.469-2.376-4-4.5z"/></svg>