<?xml version="1.0" encoding="UTF-8"?>
<!DOCTYPE svg PUBLIC "-//W3C//DTD SVG 1.1//EN" "http://www.w3.org/Graphics/SVG/1.1/DTD/svg11.dtd">
<svg xmlns="http://www.w3.org/2000/svg" version="1.1" width="908px" height="352px" style="shape-rendering:geometricPrecision; text-rendering:geometricPrecision; image-rendering:optimizeQuality; fill-rule:evenodd; clip-rule:evenodd" xmlns:xlink="http://www.w3.org/1999/xlink">
<g><path style="opacity:1" fill="#fefefe" d="M -0.5,-0.5 C 302.167,-0.5 604.833,-0.5 907.5,-0.5C 907.5,116.833 907.5,234.167 907.5,351.5C 604.833,351.5 302.167,351.5 -0.5,351.5C -0.5,234.167 -0.5,116.833 -0.5,-0.5 Z"/></g>
<g><path style="opacity:1" fill="#848bb7" d="M 676.5,88.5 C 669.378,88.1747 662.378,88.8414 655.5,90.5C 660.778,88.068 666.444,86.7347 672.5,86.5C 674.333,86.5854 675.666,87.2521 676.5,88.5 Z"/></g>
<g><path style="opacity:1" fill="#c1c4df" d="M 625.5,88.5 C 626.809,90.5706 627.475,93.0706 627.5,96C 627.497,98.6903 627.164,101.19 626.5,103.5C 626.779,98.4053 626.445,93.4053 625.5,88.5 Z"/></g>
<g><path style="opacity:1" fill="#4b589e" d="M 611.5,88.5 C 616.167,88.5 620.833,88.5 625.5,88.5C 626.445,93.4053 626.779,98.4053 626.5,103.5C 625.833,103.5 625.5,103.833 625.5,104.5C 620.405,104.779 615.405,104.445 610.5,103.5C 610.221,98.4053 610.555,93.4053 611.5,88.5 Z"/></g>
<g><path style="opacity:1" fill="#6970a7" d="M 579.5,88.5 C 584.762,88.1953 589.928,88.5286 595,89.5C 595.667,117.833 595.667,146.167 595,174.5C 594.617,175.056 594.117,175.389 593.5,175.5C 593.5,146.833 593.5,118.167 593.5,89.5C 589.167,89.5 584.833,89.5 580.5,89.5C 580.5,118.167 580.5,146.833 580.5,175.5C 579.833,175.5 579.5,175.167 579.5,174.5C 579.5,145.833 579.5,117.167 579.5,88.5 Z"/></g>
<g><path style="opacity:1" fill="#c0c3e0" d="M 611.5,88.5 C 610.555,93.4053 610.221,98.4053 610.5,103.5C 609.836,101.19 609.503,98.6903 609.5,96C 609.525,93.0706 610.191,90.5706 611.5,88.5 Z"/></g>
<g><path style="opacity:1" fill="#4b589f" d="M 676.5,88.5 C 677.643,91.9758 677.81,95.6425 677,99.5C 673.21,100.136 669.377,100.803 665.5,101.5C 664.807,102.518 664.141,103.518 663.5,104.5C 662.523,107.287 662.19,110.287 662.5,113.5C 666.833,113.5 671.167,113.5 675.5,113.5C 675.5,113.833 675.5,114.167 675.5,114.5C 675.5,117.833 675.5,121.167 675.5,124.5C 670.633,124.118 665.966,124.785 661.5,126.5C 660.504,126.414 659.671,126.748 659,127.5C 659.04,142.579 658.874,157.579 658.5,172.5C 655.167,172.833 651.833,173.167 648.5,173.5C 648.667,157.497 648.5,141.497 648,125.5C 647.5,141.83 647.333,158.163 647.5,174.5C 646.504,158.675 646.17,142.675 646.5,126.5C 643.552,126.777 640.719,126.444 638,125.5C 637.501,121.848 637.335,118.182 637.5,114.5C 640.448,114.777 643.281,114.444 646,113.5C 646.499,109.848 646.665,106.182 646.5,102.5C 648.245,100.967 649.245,98.9674 649.5,96.5C 649.369,95.7611 649.536,95.0944 650,94.5C 651.812,93.0229 653.645,91.6896 655.5,90.5C 662.378,88.8414 669.378,88.1747 676.5,88.5 Z"/></g>
<g><path style="opacity:1" fill="#bec2dd" d="M 212.5,88.5 C 211.55,98.4478 211.216,108.448 211.5,118.5C 210.209,118.737 209.209,118.404 208.5,117.5C 210.311,108.554 211.145,99.2204 211,89.5C 211.383,88.944 211.883,88.6107 212.5,88.5 Z"/></g>
<g><path style="opacity:1" fill="#4b589e" d="M 485.5,117.5 C 485.664,114.813 485.497,112.146 485,109.5C 484.722,108.584 484.222,107.918 483.5,107.5C 482.078,106.075 480.411,105.075 478.5,104.5C 476.321,103.074 473.821,102.408 471,102.5C 469.014,102.569 467.514,103.235 466.5,104.5C 463.547,104.15 461.213,105.15 459.5,107.5C 458.539,109.265 458.205,111.265 458.5,113.5C 457.883,113.611 457.383,113.944 457,114.5C 456.333,128.833 456.333,143.167 457,157.5C 457.383,158.056 457.883,158.389 458.5,158.5C 459.167,158.5 459.833,158.5 460.5,158.5C 461.167,159.833 462.167,160.833 463.5,161.5C 466.186,162.991 469.186,163.657 472.5,163.5C 474.696,163.495 476.696,163.162 478.5,162.5C 484.88,158.612 487.213,152.946 485.5,145.5C 490.511,145.334 495.511,145.501 500.5,146C 502.173,153.405 501.34,160.572 498,167.5C 494.89,170.448 491.39,172.781 487.5,174.5C 478.199,175.387 468.866,175.721 459.5,175.5C 451.344,174.008 446.011,169.342 443.5,161.5C 443.333,143.164 443.5,124.83 444,106.5C 444.44,104.134 444.94,101.801 445.5,99.5C 445.859,97.629 446.859,96.129 448.5,95C 452.167,93.3333 455.833,91.6667 459.5,90C 467.5,89.3333 475.5,89.3333 483.5,90C 495.034,93.2233 501.034,100.723 501.5,112.5C 501.167,114.167 500.833,115.833 500.5,117.5C 495.37,118.804 490.37,118.804 485.5,117.5 Z"/></g>
<g><path style="opacity:1" fill="#8c92bb" d="M 649.5,96.5 C 649.245,98.9674 648.245,100.967 646.5,102.5C 646.755,100.033 647.755,98.0326 649.5,96.5 Z"/></g>
<g><path style="opacity:1" fill="#c5c8de" d="M 478.5,104.5 C 474.5,104.5 470.5,104.5 466.5,104.5C 467.514,103.235 469.014,102.569 471,102.5C 473.821,102.408 476.321,103.074 478.5,104.5 Z"/></g>
<g><path style="opacity:1" fill="#babdd5" d="M 610.5,103.5 C 615.405,104.445 620.405,104.779 625.5,104.5C 623.19,105.164 620.69,105.497 618,105.5C 615.071,105.475 612.571,104.809 610.5,103.5 Z"/></g>
<g><path style="opacity:1" fill="#6c74a9" d="M 445.5,99.5 C 444.94,101.801 444.44,104.134 444,106.5C 443.5,124.83 443.333,143.164 443.5,161.5C 442.338,142.671 442.171,123.671 443,104.5C 443.099,102.347 443.933,100.681 445.5,99.5 Z"/></g>
<g><path style="opacity:1" fill="#7982b4" d="M 74.5,98.5 C 75.1174,98.6107 75.6174,98.944 76,99.5C 76.8634,104.586 78.0301,109.586 79.5,114.5C 78.8501,114.196 78.1835,113.863 77.5,113.5C 76.3905,108.507 75.3905,103.507 74.5,98.5 Z"/></g>
<g><path style="opacity:1" fill="#c4c7dd" d="M 394.5,116.5 C 385.456,113.825 376.123,112.825 366.5,113.5C 375.485,110.613 384.485,110.946 393.5,114.5C 393.863,115.183 394.196,115.85 394.5,116.5 Z"/></g>
<g><path style="opacity:1" fill="#47529f" d="M 593.5,175.5 C 589.167,176.833 584.833,176.833 580.5,175.5C 580.5,146.833 580.5,118.167 580.5,89.5C 584.833,89.5 589.167,89.5 593.5,89.5C 593.5,118.167 593.5,146.833 593.5,175.5 Z"/></g>
<g><path style="opacity:1" fill="#4b589f" d="M 582.5,90.5 C 585.572,90.1826 588.572,90.5159 591.5,91.5C 591.644,118.657 591.478,145.99 591,173.5C 588.333,172.167 585.667,172.167 583,173.5C 582.5,145.835 582.333,118.169 582.5,90.5 Z"/></g>
<g><path style="opacity:1" fill="#8c92bf" d="M 321.5,113.5 C 316.156,113.334 310.823,113.501 305.5,114C 302.688,115.549 299.688,116.382 296.5,116.5C 298.598,115.065 300.931,113.898 303.5,113C 309.681,112.181 315.681,112.347 321.5,113.5 Z"/></g>
<g><path style="opacity:1" fill="#a5abca" d="M 483.5,107.5 C 484.222,107.918 484.722,108.584 485,109.5C 485.497,112.146 485.664,114.813 485.5,117.5C 484.419,114.373 483.753,111.04 483.5,107.5 Z"/></g>
<g><path style="opacity:1" fill="#9ba1c6" d="M 548.5,113.5 C 541.138,113.365 533.804,113.698 526.5,114.5C 527.263,113.732 528.263,113.232 529.5,113C 536.014,112.18 542.347,112.347 548.5,113.5 Z"/></g>
<g><path style="opacity:1" fill="#c8cbe3" d="M 663.5,104.5 C 663.5,107.167 663.5,109.833 663.5,112.5C 667.702,112.183 671.702,112.517 675.5,113.5C 671.167,113.5 666.833,113.5 662.5,113.5C 662.19,110.287 662.523,107.287 663.5,104.5 Z"/></g>
<g><path style="opacity:1" fill="#b5b9d5" d="M 728.5,116.5 C 718.391,113.29 708.057,112.623 697.5,114.5C 698.263,113.732 699.263,113.232 700.5,113C 707.833,112.333 715.167,112.333 722.5,113C 725.152,113.353 727.152,114.52 728.5,116.5 Z"/></g>
<g><path style="opacity:1" fill="#969dc3" d="M 852.5,113.5 C 845.138,113.365 837.804,113.698 830.5,114.5C 831.263,113.732 832.263,113.232 833.5,113C 840.014,112.18 846.347,112.347 852.5,113.5 Z"/></g>
<g><path style="opacity:1" fill="#8088b6" d="M 107.5,114.5 C 109.641,113.837 111.975,113.503 114.5,113.5C 117.269,113.529 119.603,114.195 121.5,115.5C 116.93,114.559 112.263,114.226 107.5,114.5 Z"/></g>
<g><path style="opacity:1" fill="#7982b4" d="M 459.5,107.5 C 459.195,124.547 459.528,141.547 460.5,158.5C 459.833,158.5 459.167,158.5 458.5,158.5C 458.5,143.5 458.5,128.5 458.5,113.5C 458.205,111.265 458.539,109.265 459.5,107.5 Z"/></g>
<g><path style="opacity:1" fill="#8088b6" d="M 751.5,114.5 C 753.641,113.837 755.975,113.503 758.5,113.5C 761.269,113.529 763.603,114.195 765.5,115.5C 761.936,114.577 758.269,114.244 754.5,114.5C 753.5,114.5 752.5,114.5 751.5,114.5 Z"/></g>
<g><path style="opacity:1" fill="#9197bd" d="M 134.5,113.5 C 130.692,115.672 126.692,117.672 122.5,119.5C 121.614,118.675 121.281,117.675 121.5,116.5C 122.265,116.923 123.098,117.257 124,117.5C 127.358,115.66 130.858,114.327 134.5,113.5 Z"/></g>
<g><path style="opacity:1" fill="#9197bd" d="M 778.5,113.5 C 774.692,115.672 770.692,117.672 766.5,119.5C 765.614,118.675 765.281,117.675 765.5,116.5C 766.265,116.923 767.098,117.257 768,117.5C 771.358,115.66 774.858,114.327 778.5,113.5 Z"/></g>
<g><path style="opacity:1" fill="#4b579e" d="M 321.5,113.5 C 327.168,113.382 331.835,115.382 335.5,119.5C 334.624,119.369 333.957,119.702 333.5,120.5C 335.908,123.131 335.908,125.631 333.5,128C 335.754,133.138 336.754,138.638 336.5,144.5C 327.833,144.5 319.167,144.5 310.5,144.5C 310.5,145.5 310.5,146.5 310.5,147.5C 308.265,147.205 306.265,147.539 304.5,148.5C 304.185,152.371 304.518,156.038 305.5,159.5C 306.024,162.188 307.691,163.688 310.5,164C 315.286,165.158 319.619,164.325 323.5,161.5C 324.466,159.604 324.799,157.604 324.5,155.5C 329.103,154.617 333.77,154.283 338.5,154.5C 340.418,165.505 336.084,172.671 325.5,176C 318.167,176.667 310.833,176.667 303.5,176C 297.255,174.756 292.755,171.256 290,165.5C 289.333,151.5 289.333,137.5 290,123.5C 290.989,120.013 293.155,117.68 296.5,116.5C 299.688,116.382 302.688,115.549 305.5,114C 310.823,113.501 316.156,113.334 321.5,113.5 Z"/></g>
<g><path style="opacity:1" fill="#4b589e" d="M 852.5,113.5 C 862.457,113.972 868.79,118.972 871.5,128.5C 871.746,140.197 871.413,151.864 870.5,163.5C 867.408,170.39 862.075,174.39 854.5,175.5C 846.471,175.656 838.471,175.323 830.5,174.5C 826.975,174.654 824.141,173.321 822,170.5C 819.676,167.52 818.176,164.187 817.5,160.5C 817.206,148.117 817.54,135.783 818.5,123.5C 821.336,119.003 825.336,116.003 830.5,114.5C 837.804,113.698 845.138,113.365 852.5,113.5 Z"/></g>
<g><path style="opacity:1" fill="#4e5aa0" d="M 159.5,175.5 C 159.985,158.013 159.485,140.679 158,123.5C 157.667,140.167 157.333,156.833 157,173.5C 153.943,172.549 150.777,172.216 147.5,172.5C 147.833,157.818 147.499,143.152 146.5,128.5C 145.501,143.819 145.167,159.152 145.5,174.5C 144.833,159.328 144.167,143.995 143.5,128.5C 142.817,128.137 142.15,127.804 141.5,127.5C 138.024,126.357 134.358,126.19 130.5,127C 127.986,127.881 125.986,129.381 124.5,131.5C 124.167,131.5 123.833,131.5 123.5,131.5C 121.732,130.493 120.399,131.159 119.5,133.5C 119.546,146.321 119.546,159.321 119.5,172.5C 116.167,172.5 112.833,172.5 109.5,172.5C 108.67,153.481 108.336,134.481 108.5,115.5C 107.5,135.489 107.167,155.489 107.5,175.5C 106.167,155.167 106.167,134.833 107.5,114.5C 112.263,114.226 116.93,114.559 121.5,115.5C 121.5,115.833 121.5,116.167 121.5,116.5C 121.281,117.675 121.614,118.675 122.5,119.5C 126.692,117.672 130.692,115.672 134.5,113.5C 145.003,110.834 153.503,113.834 160,122.5C 160.829,140.338 160.662,158.005 159.5,175.5 Z"/></g>
<g><path style="opacity:1" fill="#46529a" d="M 123.5,131.5 C 122.669,145.661 122.169,159.994 122,174.5C 117.263,175.469 112.43,175.803 107.5,175.5C 107.167,155.489 107.5,135.489 108.5,115.5C 108.336,134.481 108.67,153.481 109.5,172.5C 112.833,172.5 116.167,172.5 119.5,172.5C 119.546,159.321 119.546,146.321 119.5,133.5C 120.399,131.159 121.732,130.493 123.5,131.5 Z"/></g>
<g><path style="opacity:1" fill="#4f5ba0" d="M 277.5,126.5 C 274.813,126.336 272.146,126.503 269.5,127C 268.944,127.383 268.611,127.883 268.5,128.5C 265.619,129.274 262.952,130.607 260.5,132.5C 259.667,146.488 259.167,160.488 259,174.5C 258.617,175.056 258.117,175.389 257.5,175.5C 257.667,162.163 257.5,148.829 257,135.5C 255.686,148.011 255.019,160.678 255,173.5C 252.333,172.167 249.667,172.167 247,173.5C 246.5,154.836 246.333,136.17 246.5,117.5C 250.215,117.423 253.881,117.756 257.5,118.5C 258.053,120.552 259.053,120.885 260.5,119.5C 265.797,114.528 272.13,112.361 279.5,113C 280.626,116.744 280.793,120.577 280,124.5C 279.005,125.066 278.172,125.733 277.5,126.5 Z"/></g>
<g><path style="opacity:1" fill="#8790bb" d="M 257.5,114.5 C 257.972,116.531 258.972,118.198 260.5,119.5C 259.053,120.885 258.053,120.552 257.5,118.5C 257.5,117.167 257.5,115.833 257.5,114.5 Z"/></g>
<g><path style="opacity:1" fill="#49559c" d="M 611.5,114.5 C 616.167,114.5 620.833,114.5 625.5,114.5C 625.833,114.5 626.167,114.5 626.5,114.5C 626.667,134.503 626.5,154.503 626,174.5C 623.959,175.423 621.792,175.756 619.5,175.5C 620.588,174 621.921,172.667 623.5,171.5C 622.514,154.214 622.181,136.881 622.5,119.5C 620.857,119.52 619.524,118.853 618.5,117.5C 617.304,117.846 617.304,118.346 618.5,119C 617.256,119.456 616.423,118.956 616,117.5C 615.308,118.025 614.808,118.692 614.5,119.5C 614.192,134.369 614.526,149.369 615.5,164.5C 614.833,166.833 614.167,169.167 613.5,171.5C 615.167,172.167 616.833,172.833 618.5,173.5C 616.257,174.474 613.924,174.808 611.5,174.5C 611.5,154.5 611.5,134.5 611.5,114.5 Z"/></g>
<g><path style="opacity:1" fill="#4e5ba0" d="M 611.5,114.5 C 611.5,134.5 611.5,154.5 611.5,174.5C 613.924,174.808 616.257,174.474 618.5,173.5C 616.833,172.833 615.167,172.167 613.5,171.5C 614.167,169.167 614.833,166.833 615.5,164.5C 614.526,149.369 614.192,134.369 614.5,119.5C 614.808,118.692 615.308,118.025 616,117.5C 616.423,118.956 617.256,119.456 618.5,119C 617.304,118.346 617.304,117.846 618.5,117.5C 619.524,118.853 620.857,119.52 622.5,119.5C 622.181,136.881 622.514,154.214 623.5,171.5C 621.921,172.667 620.588,174 619.5,175.5C 616.833,175.5 614.167,175.5 611.5,175.5C 610.833,175.5 610.5,175.167 610.5,174.5C 610.17,154.326 610.503,134.326 611.5,114.5 Z"/></g>
<g><path style="opacity:1" fill="#49549c" d="M 751.5,114.5 C 752.5,114.5 753.5,114.5 754.5,114.5C 752.18,133.765 751.847,153.099 753.5,172.5C 756.914,173.247 760.247,173.247 763.5,172.5C 763.333,158.829 763.5,145.163 764,131.5C 765.482,145.676 765.982,160.009 765.5,174.5C 761.03,175.486 756.363,175.819 751.5,175.5C 750.167,155.167 750.167,134.833 751.5,114.5 Z"/></g>
<g><path style="opacity:1" fill="#4c589f" d="M 803.5,123.5 C 801.678,139.803 800.845,156.47 801,173.5C 797.943,172.549 794.777,172.216 791.5,172.5C 791.833,158.484 791.499,144.484 790.5,130.5C 789.501,145.152 789.167,159.818 789.5,174.5C 788.669,159.672 788.169,144.672 788,129.5C 787.292,128.619 786.458,127.953 785.5,127.5C 782.024,126.357 778.358,126.19 774.5,127C 773.944,127.383 773.611,127.883 773.5,128.5C 770.708,128.622 768.708,129.956 767.5,132.5C 766.833,146.5 766.167,160.5 765.5,174.5C 765.982,160.009 765.482,145.676 764,131.5C 763.5,145.163 763.333,158.829 763.5,172.5C 760.247,173.247 756.914,173.247 753.5,172.5C 751.847,153.099 752.18,133.765 754.5,114.5C 758.269,114.244 761.936,114.577 765.5,115.5C 765.5,115.833 765.5,116.167 765.5,116.5C 765.281,117.675 765.614,118.675 766.5,119.5C 770.692,117.672 774.692,115.672 778.5,113.5C 787.408,111.077 795.241,113.077 802,119.5C 802.791,120.745 803.291,122.078 803.5,123.5 Z"/></g>
<g><path style="opacity:1" fill="#4b579e" d="M 366.5,113.5 C 376.123,112.825 385.456,113.825 394.5,116.5C 397.139,118.309 399.306,120.642 401,123.5C 401.667,140.5 401.667,157.5 401,174.5C 400.5,175 400,175.5 399.5,176C 395.311,176.812 391.311,176.645 387.5,175.5C 387.5,173.5 387.5,171.5 387.5,169.5C 384.674,169.998 382.34,171.331 380.5,173.5C 378.723,174.6 376.723,175.434 374.5,176C 369.5,176.667 364.5,176.667 359.5,176C 355.958,173.959 353.291,171.126 351.5,167.5C 350.167,160.833 350.167,154.167 351.5,147.5C 353.288,144.385 355.954,142.385 359.5,141.5C 368.319,140.952 376.986,140.285 385.5,139.5C 385.666,135.486 385.499,131.486 385,127.5C 379.808,124.198 374.308,123.698 368.5,126C 367.225,128.954 365.892,131.788 364.5,134.5C 360.5,134.5 356.5,134.5 352.5,134.5C 352.5,131.5 352.5,128.5 352.5,125.5C 354.403,118.263 359.069,114.263 366.5,113.5 Z"/></g>
<g><path style="opacity:1" fill="#b9bdda" d="M 626.5,114.5 C 627.663,134.663 627.829,154.996 627,175.5C 621.734,176.824 616.567,176.824 611.5,175.5C 614.167,175.5 616.833,175.5 619.5,175.5C 621.792,175.756 623.959,175.423 626,174.5C 626.5,154.503 626.667,134.503 626.5,114.5 Z"/></g>
<g><path style="opacity:1" fill="#4b589f" d="M 212.5,88.5 C 217.595,88.2213 222.595,88.5546 227.5,89.5C 227.667,117.835 227.5,146.169 227,174.5C 222.599,175.467 218.099,175.8 213.5,175.5C 212.549,174.081 212.216,172.415 212.5,170.5C 207.984,171.754 203.651,173.587 199.5,176C 194.167,176.667 188.833,176.667 183.5,176C 179.016,174.168 176.016,171.001 174.5,166.5C 174.333,152.496 174.5,138.496 175,124.5C 176.295,121.708 177.795,119.042 179.5,116.5C 180.191,114.978 181.358,113.978 183,113.5C 192.137,111.277 200.637,112.611 208.5,117.5C 209.209,118.404 210.209,118.737 211.5,118.5C 211.216,108.448 211.55,98.4478 212.5,88.5 Z"/></g>
<g><path style="opacity:1" fill="#bbbedb" d="M 227.5,89.5 C 228.664,117.997 228.83,146.664 228,175.5C 223.067,176.824 218.234,176.824 213.5,175.5C 218.099,175.8 222.599,175.467 227,174.5C 227.5,146.169 227.667,117.835 227.5,89.5 Z"/></g>
<g><path style="opacity:1" fill="#b8bcda" d="M 625.5,114.5 C 620.833,114.5 616.167,114.5 611.5,114.5C 610.503,134.326 610.17,154.326 610.5,174.5C 609.503,154.34 609.17,134.007 609.5,113.5C 615.026,113.179 620.36,113.512 625.5,114.5 Z"/></g>
<g><path style="opacity:1" fill="#fafafa" d="M 308.5,125.5 C 312.846,125.334 317.179,125.501 321.5,126C 324.231,128.897 325.231,132.397 324.5,136.5C 318.167,136.5 311.833,136.5 305.5,136.5C 304.807,132.247 305.807,128.581 308.5,125.5 Z"/></g>
<g><path style="opacity:1" fill="#9fa5c8" d="M 517.5,120.5 C 516.37,122.315 515.704,124.315 515.5,126.5C 514.532,128.607 514.198,130.941 514.5,133.5C 513.366,131.034 513.199,128.367 514,125.5C 514.223,123.119 515.39,121.453 517.5,120.5 Z"/></g>
<g><path style="opacity:1" fill="#8690bc" d="M 191.5,127.5 C 195.311,126.355 199.311,126.188 203.5,127C 204.056,127.383 204.389,127.883 204.5,128.5C 200.232,127.627 195.898,127.294 191.5,127.5 Z"/></g>
<g><path style="opacity:1" fill="#888fbc" d="M 277.5,126.5 C 274.655,127.344 271.655,128.01 268.5,128.5C 268.611,127.883 268.944,127.383 269.5,127C 272.146,126.503 274.813,126.336 277.5,126.5 Z"/></g>
<g><path style="opacity:1" fill="#8e98c3" d="M 785.5,127.5 C 781.434,127.307 777.434,127.64 773.5,128.5C 773.611,127.883 773.944,127.383 774.5,127C 778.358,126.19 782.024,126.357 785.5,127.5 Z"/></g>
<g><path style="opacity:1" fill="#f7f7fa" d="M 852.5,162.5 C 847.562,163.392 842.562,163.726 837.5,163.5C 836.199,162.36 835.032,161.027 834,159.5C 833.168,149.151 833.334,138.817 834.5,128.5C 837.582,126.187 841.082,125.187 845,125.5C 849.105,124.946 852.438,126.279 855,129.5C 855.667,139.5 855.667,149.5 855,159.5C 853.955,160.373 853.122,161.373 852.5,162.5 Z"/></g>
<g><path style="opacity:1" fill="#fcfcfc" d="M 191.5,127.5 C 195.898,127.294 200.232,127.627 204.5,128.5C 206.001,129.752 207.668,130.752 209.5,131.5C 210.442,140.113 210.775,148.779 210.5,157.5C 209.833,157.5 209.5,157.833 209.5,158.5C 207.847,158.66 206.514,159.326 205.5,160.5C 200.881,161.314 196.214,161.647 191.5,161.5C 191.167,160.833 190.833,160.167 190.5,159.5C 190.192,149.085 190.525,138.751 191.5,128.5C 191.5,128.167 191.5,127.833 191.5,127.5 Z"/></g>
<g><path style="opacity:1" fill="#414e99" d="M 335.5,119.5 C 336.891,121.921 337.725,124.588 338,127.5C 338.5,133.825 338.666,140.158 338.5,146.5C 329.348,147.494 320.015,147.827 310.5,147.5C 310.5,146.5 310.5,145.5 310.5,144.5C 319.167,144.5 327.833,144.5 336.5,144.5C 336.754,138.638 335.754,133.138 333.5,128C 335.908,125.631 335.908,123.131 333.5,120.5C 333.957,119.702 334.624,119.369 335.5,119.5 Z"/></g>
<g><path style="opacity:1" fill="#ccd0e3" d="M 579.5,88.5 C 579.5,117.167 579.5,145.833 579.5,174.5C 578.167,160.683 577.501,146.516 577.5,132C 577.667,117.833 577.833,103.667 578,89.5C 578.383,88.944 578.883,88.6107 579.5,88.5 Z"/></g>
<g><path style="opacity:1" fill="#4a579e" d="M 74.5,98.5 C 75.3905,103.507 76.3905,108.507 77.5,113.5C 78.1835,113.863 78.8501,114.196 79.5,114.5C 80.4997,118.499 81.4997,122.499 82.5,126.5C 83.2239,129.843 84.0572,133.176 85,136.5C 85.3826,137.056 85.8826,137.389 86.5,137.5C 89.5606,148.517 92.7272,159.517 96,170.5C 96.6667,172.167 96.6667,173.833 96,175.5C 85.4751,179.664 79.3084,176.33 77.5,165.5C 77.5848,162.253 76.5848,159.419 74.5,157C 70.6667,156.833 66.8333,156.667 63,156.5C 58.771,156.51 54.9377,157.177 51.5,158.5C 50.8826,158.611 50.3826,158.944 50,159.5C 48.304,163.987 47.1373,168.654 46.5,173.5C 46.0472,174.458 45.3805,175.292 44.5,176C 39.8452,176.499 35.1785,176.666 30.5,176.5C 33.0636,167.49 35.397,158.49 37.5,149.5C 38.1174,149.389 38.6174,149.056 39,148.5C 40.15,144.888 40.9834,141.222 41.5,137.5C 42.8427,135.302 44.176,132.969 45.5,130.5C 45.1373,129.817 44.8039,129.15 44.5,128.5C 47.7902,116.064 51.2902,103.731 55,91.5C 60.4162,90.3611 65.9162,90.1944 71.5,91C 73.2024,93.2354 74.2024,95.7354 74.5,98.5 Z"/></g>
<g><path style="opacity:1" fill="#989fc5" d="M 64.5,112.5 C 63.8826,112.389 63.3826,112.056 63,111.5C 62.8091,113.708 62.3091,115.708 61.5,117.5C 61.5,114.5 61.5,111.5 61.5,108.5C 62.5,108.5 63.5,108.5 64.5,108.5C 64.5,109.833 64.5,111.167 64.5,112.5 Z"/></g>
<g><path style="opacity:1" fill="#a3a7cb" d="M 82.5,126.5 C 84.6013,129.797 85.9347,133.463 86.5,137.5C 85.8826,137.389 85.3826,137.056 85,136.5C 84.0572,133.176 83.2239,129.843 82.5,126.5 Z"/></g>
<g><path style="opacity:1" fill="#b7bbd6" d="M 141.5,127.5 C 138.15,127.335 134.817,127.502 131.5,128C 129.607,130.022 127.273,131.188 124.5,131.5C 125.986,129.381 127.986,127.881 130.5,127C 134.358,126.19 138.024,126.357 141.5,127.5 Z"/></g>
<g><path style="opacity:1" fill="#6972a5" d="M 335.5,119.5 C 338.171,121.773 339.505,124.773 339.5,128.5C 339.823,134.69 339.49,140.69 338.5,146.5C 338.666,140.158 338.5,133.825 338,127.5C 337.725,124.588 336.891,121.921 335.5,119.5 Z"/></g>
<g><path style="opacity:1" fill="#626ca5" d="M 675.5,114.5 C 676.482,117.962 676.815,121.629 676.5,125.5C 671.962,126.078 667.462,126.745 663,127.5C 662.5,143.163 662.333,158.83 662.5,174.5C 662.5,175.167 662.167,175.5 661.5,175.5C 661.5,159.167 661.5,142.833 661.5,126.5C 665.966,124.785 670.633,124.118 675.5,124.5C 675.5,121.167 675.5,117.833 675.5,114.5 Z"/></g>
<g><path style="opacity:1" fill="#f5f6f8" d="M 64.5,112.5 C 65.2973,117.803 65.964,123.136 66.5,128.5C 66.2594,130.898 66.9261,132.898 68.5,134.5C 70.1264,137.246 70.7931,140.246 70.5,143.5C 65.8333,143.5 61.1667,143.5 56.5,143.5C 56.5,142.167 56.5,140.833 56.5,139.5C 58.0739,137.898 58.7406,135.898 58.5,133.5C 60.1348,128.368 61.1348,123.035 61.5,117.5C 62.3091,115.708 62.8091,113.708 63,111.5C 63.3826,112.056 63.8826,112.389 64.5,112.5 Z"/></g>
<g><path style="opacity:1" fill="#444f9b" d="M 661.5,126.5 C 661.5,142.833 661.5,159.167 661.5,175.5C 657.354,176.647 653.02,176.814 648.5,176C 647.944,175.617 647.611,175.117 647.5,174.5C 647.333,158.163 647.5,141.83 648,125.5C 648.5,141.497 648.667,157.497 648.5,173.5C 651.833,173.167 655.167,172.833 658.5,172.5C 658.874,157.579 659.04,142.579 659,127.5C 659.671,126.748 660.504,126.414 661.5,126.5 Z"/></g>
<g><path style="opacity:1" fill="#7e84b4" d="M 44.5,128.5 C 44.8039,129.15 45.1373,129.817 45.5,130.5C 44.176,132.969 42.8427,135.302 41.5,137.5C 41.1324,133.956 42.1324,130.956 44.5,128.5 Z"/></g>
<g><path style="opacity:1" fill="#b6bbd6" d="M 66.5,128.5 C 68.0739,130.102 68.7406,132.102 68.5,134.5C 66.9261,132.898 66.2594,130.898 66.5,128.5 Z"/></g>
<g><path style="opacity:1" fill="#7a82b2" d="M 179.5,116.5 C 177.795,119.042 176.295,121.708 175,124.5C 174.5,138.496 174.333,152.496 174.5,166.5C 173.339,152.006 173.172,137.339 174,122.5C 175.382,119.957 177.215,117.957 179.5,116.5 Z"/></g>
<g><path style="opacity:1" fill="#6871a7" d="M 515.5,126.5 C 515.5,128.833 515.5,131.167 515.5,133.5C 519.833,133.5 524.167,133.5 528.5,133.5C 528.389,134.117 528.056,134.617 527.5,135C 523.5,135.667 519.5,135.667 515.5,135C 514.944,134.617 514.611,134.117 514.5,133.5C 514.198,130.941 514.532,128.607 515.5,126.5 Z"/></g>
<g><path style="opacity:1" fill="#c0c3dd" d="M 871.5,128.5 C 872.659,139.326 872.826,150.326 872,161.5C 871.722,162.416 871.222,163.082 870.5,163.5C 871.413,151.864 871.746,140.197 871.5,128.5 Z"/></g>
<g><path style="opacity:1" fill="#8a91bc" d="M 352.5,125.5 C 352.5,128.5 352.5,131.5 352.5,134.5C 356.5,134.5 360.5,134.5 364.5,134.5C 360.366,135.485 356.032,135.818 351.5,135.5C 351.187,131.958 351.521,128.625 352.5,125.5 Z"/></g>
<g><path style="opacity:1" fill="#c4cce7" d="M 191.5,128.5 C 190.525,138.751 190.192,149.085 190.5,159.5C 189.834,154.511 189.501,149.344 189.5,144C 189.505,138.454 190.172,133.288 191.5,128.5 Z"/></g>
<g><path style="opacity:1" fill="#2d3c92" d="M 458.5,113.5 C 458.5,128.5 458.5,143.5 458.5,158.5C 457.883,158.389 457.383,158.056 457,157.5C 456.333,143.167 456.333,128.833 457,114.5C 457.383,113.944 457.883,113.611 458.5,113.5 Z"/></g>
<g><path style="opacity:1" fill="#d1d5e6" d="M 676.5,125.5 C 672.971,127.423 668.971,128.089 664.5,127.5C 665.151,143.536 664.484,159.202 662.5,174.5C 662.333,158.83 662.5,143.163 663,127.5C 667.462,126.745 671.962,126.078 676.5,125.5 Z"/></g>
<g><path style="opacity:1" fill="#d0d2e3" d="M 686.5,123.5 C 685.534,127.065 685.534,130.565 686.5,134C 691.252,134.773 695.919,134.607 700.5,133.5C 700.586,134.496 700.252,135.329 699.5,136C 694.798,136.828 690.131,136.662 685.5,135.5C 684.036,131.245 684.369,127.245 686.5,123.5 Z"/></g>
<g><path style="opacity:1" fill="#c3c6e0" d="M 209.5,131.5 C 210.167,131.833 210.833,132.167 211.5,132.5C 211.826,141.017 211.493,149.35 210.5,157.5C 210.775,148.779 210.442,140.113 209.5,131.5 Z"/></g>
<g><path style="opacity:1" fill="#6972a8" d="M 211.5,132.5 C 212.493,140.984 212.826,149.651 212.5,158.5C 211.5,158.5 210.5,158.5 209.5,158.5C 209.5,157.833 209.833,157.5 210.5,157.5C 211.493,149.35 211.826,141.017 211.5,132.5 Z"/></g>
<g><path style="opacity:1" fill="#6f76aa" d="M 257.5,114.5 C 253.167,114.5 248.833,114.5 244.5,114.5C 244.5,134.833 244.5,155.167 244.5,175.5C 243.883,175.389 243.383,175.056 243,174.5C 242.333,154.5 242.333,134.5 243,114.5C 247.933,113.176 252.766,113.176 257.5,114.5 Z"/></g>
<g><path style="opacity:1" fill="#bec3dd" d="M 308.5,125.5 C 305.807,128.581 304.807,132.247 305.5,136.5C 311.833,136.5 318.167,136.5 324.5,136.5C 318.021,137.491 311.354,137.824 304.5,137.5C 304.335,134.15 304.502,130.817 305,127.5C 305.816,126.177 306.983,125.511 308.5,125.5 Z"/></g>
<g><path style="opacity:1" fill="#3b4897" d="M 563.5,174.5 C 563.389,175.117 563.056,175.617 562.5,176C 558.833,176.667 555.167,176.667 551.5,176C 550.944,175.617 550.611,175.117 550.5,174.5C 550.709,173.078 551.209,171.745 552,170.5C 554.804,172.344 557.97,173.011 561.5,172.5C 561.167,156.819 561.501,141.152 562.5,125.5C 563.499,141.82 563.833,158.153 563.5,174.5 Z"/></g>
<g><path style="opacity:1" fill="#b3b6d6" d="M 58.5,133.5 C 58.7406,135.898 58.0739,137.898 56.5,139.5C 56.2594,137.102 56.9261,135.102 58.5,133.5 Z"/></g>
<g><path style="opacity:1" fill="#9098bf" d="M 385.5,139.5 C 376.986,140.285 368.319,140.952 359.5,141.5C 359.918,140.778 360.584,140.278 361.5,140C 369.493,139.5 377.493,139.334 385.5,139.5 Z"/></g>
<g><path style="opacity:1" fill="#848db9" d="M 548.5,139.5 C 539.256,140.151 529.923,141.151 520.5,142.5C 520.611,141.883 520.944,141.383 521.5,141C 530.448,139.693 539.448,139.193 548.5,139.5 Z"/></g>
<g><path style="opacity:1" fill="#979ec5" d="M 41.5,137.5 C 40.9834,141.222 40.15,144.888 39,148.5C 38.6174,149.056 38.1174,149.389 37.5,149.5C 38.2616,145.215 39.5949,141.215 41.5,137.5 Z"/></g>
<g><path style="opacity:1" fill="#abb0d2" d="M 339.5,128.5 C 340.653,134.653 340.82,140.986 340,147.5C 339.329,148.252 338.496,148.586 337.5,148.5C 326.5,148.5 315.5,148.5 304.5,148.5C 306.265,147.539 308.265,147.205 310.5,147.5C 320.015,147.827 329.348,147.494 338.5,146.5C 339.49,140.69 339.823,134.69 339.5,128.5 Z"/></g>
<g><path style="opacity:1" fill="#b7bcd9" d="M 767.5,132.5 C 767.667,146.837 767.5,161.171 767,175.5C 761.734,176.824 756.567,176.824 751.5,175.5C 756.363,175.819 761.03,175.486 765.5,174.5C 766.167,160.5 766.833,146.5 767.5,132.5 Z"/></g>
<g><path style="opacity:1" fill="#bfc2db" d="M 56.5,139.5 C 56.5,140.833 56.5,142.167 56.5,143.5C 61.1667,143.5 65.8333,143.5 70.5,143.5C 65.6946,144.487 60.6946,144.821 55.5,144.5C 55.2155,142.585 55.5489,140.919 56.5,139.5 Z"/></g>
<g><path style="opacity:1" fill="#c7c8e0" d="M 818.5,123.5 C 817.54,135.783 817.206,148.117 817.5,160.5C 816.34,148.674 816.174,136.674 817,124.5C 817.383,123.944 817.883,123.611 818.5,123.5 Z"/></g>
<g><path style="opacity:1" fill="#4b589f" d="M 728.5,116.5 C 731.533,118.375 733.699,121.042 735,124.5C 735.5,140.163 735.667,155.83 735.5,171.5C 734.669,156.339 734.169,141.005 734,125.5C 733.833,141.51 733.333,157.51 732.5,173.5C 731.749,172.624 731.249,171.624 731,170.5C 728.544,172.321 725.711,172.988 722.5,172.5C 722.5,173.5 722.5,174.5 722.5,175.5C 721.833,175.5 721.5,175.167 721.5,174.5C 721.5,173.167 721.5,171.833 721.5,170.5C 719.302,170.12 717.635,170.787 716.5,172.5C 714.176,173.656 711.843,174.656 709.5,175.5C 703.464,175.64 697.464,175.307 691.5,174.5C 687.383,171.926 685.05,168.259 684.5,163.5C 684.503,158.473 684.836,153.473 685.5,148.5C 687.748,145.084 690.748,142.584 694.5,141C 702.764,139.63 711.097,139.13 719.5,139.5C 719.666,135.486 719.499,131.486 719,127.5C 717.89,125.963 716.39,125.297 714.5,125.5C 710.55,123.04 706.55,123.04 702.5,125.5C 700.774,127.82 700.107,130.487 700.5,133.5C 695.919,134.607 691.252,134.773 686.5,134C 685.534,130.565 685.534,127.065 686.5,123.5C 688.718,118.731 692.385,115.731 697.5,114.5C 708.057,112.623 718.391,113.29 728.5,116.5 Z"/></g>
<g><path style="opacity:1" fill="#838cb6" d="M 714.5,125.5 C 710.5,125.5 706.5,125.5 702.5,125.5C 706.55,123.04 710.55,123.04 714.5,125.5 Z"/></g>
<g><path style="opacity:1" fill="#dadcea" d="M 304.5,148.5 C 315.5,148.5 326.5,148.5 337.5,148.5C 327.013,149.494 316.346,149.828 305.5,149.5C 305.5,152.833 305.5,156.167 305.5,159.5C 304.518,156.038 304.185,152.371 304.5,148.5 Z"/></g>
<g><path style="opacity:1" fill="#9a9fc7" d="M 385.5,158.5 C 385.5,156.167 385.5,153.833 385.5,151.5C 379.108,151.249 372.775,151.582 366.5,152.5C 366.611,151.883 366.944,151.383 367.5,151C 373.825,150.5 380.158,150.334 386.5,150.5C 386.806,153.385 386.473,156.052 385.5,158.5 Z"/></g>
<g><path style="opacity:1" fill="#99a0c7" d="M 701.5,151.5 C 707.645,150.51 713.978,150.177 720.5,150.5C 720.81,153.713 720.477,156.713 719.5,159.5C 719.5,156.833 719.5,154.167 719.5,151.5C 713.5,151.5 707.5,151.5 701.5,151.5 Z"/></g>
<g><path style="opacity:1" fill="#4b589e" d="M 548.5,113.5 C 551.023,114.254 553.689,114.92 556.5,115.5C 559.134,117.964 561.468,120.631 563.5,123.5C 564.827,140.662 564.827,157.662 563.5,174.5C 563.833,158.153 563.499,141.82 562.5,125.5C 561.501,141.152 561.167,156.819 561.5,172.5C 557.97,173.011 554.804,172.344 552,170.5C 551.209,171.745 550.709,173.078 550.5,174.5C 549.566,173.432 549.232,172.099 549.5,170.5C 545.303,172.499 540.969,174.332 536.5,176C 525.867,179.261 518.201,176.094 513.5,166.5C 512.617,161.897 512.283,157.23 512.5,152.5C 513.36,147.647 516.027,144.314 520.5,142.5C 529.923,141.151 539.256,140.151 548.5,139.5C 548.666,135.486 548.499,131.486 548,127.5C 547.617,126.944 547.117,126.611 546.5,126.5C 544.429,125.191 541.929,124.525 539,124.5C 531.576,123.097 528.076,126.097 528.5,133.5C 524.167,133.5 519.833,133.5 515.5,133.5C 515.5,131.167 515.5,128.833 515.5,126.5C 515.704,124.315 516.37,122.315 517.5,120.5C 519.677,117.246 522.677,115.246 526.5,114.5C 533.804,113.698 541.138,113.365 548.5,113.5 Z"/></g>
<g><path style="opacity:1" fill="#959bc3" d="M 546.5,126.5 C 541.919,125.393 537.252,125.227 532.5,126C 530.267,128.113 528.933,130.613 528.5,133.5C 528.076,126.097 531.576,123.097 539,124.5C 541.929,124.525 544.429,125.191 546.5,126.5 Z"/></g>
<g><path style="opacity:1" fill="#f5f6f8" d="M 385.5,158.5 C 380.059,163.284 373.726,164.618 366.5,162.5C 365.174,159.136 365.174,155.803 366.5,152.5C 372.775,151.582 379.108,151.249 385.5,151.5C 385.5,153.833 385.5,156.167 385.5,158.5 Z"/></g>
<g><path style="opacity:1" fill="#f1f2f6" d="M 529.5,162.5 C 528.167,159.167 528.167,155.833 529.5,152.5C 529.918,151.778 530.584,151.278 531.5,151C 537.157,150.501 542.824,150.334 548.5,150.5C 548.5,153.5 548.5,156.5 548.5,159.5C 545.86,159.954 543.527,161.121 541.5,163C 537.311,163.812 533.311,163.645 529.5,162.5 Z"/></g>
<g><path style="opacity:1" fill="#f6f6f8" d="M 701.5,151.5 C 707.5,151.5 713.5,151.5 719.5,151.5C 719.5,154.167 719.5,156.833 719.5,159.5C 714.034,163.085 708.034,164.252 701.5,163C 698.875,159.168 698.875,155.335 701.5,151.5 Z"/></g>
<g><path style="opacity:1" fill="#8e93bd" d="M 338.5,154.5 C 333.77,154.283 329.103,154.617 324.5,155.5C 324.611,154.883 324.944,154.383 325.5,154C 330.02,153.186 334.354,153.353 338.5,154.5 Z"/></g>
<g><path style="opacity:1" fill="#959ac2" d="M 685.5,148.5 C 684.836,153.473 684.503,158.473 684.5,163.5C 683.839,161.866 683.506,160.033 683.5,158C 683.421,154.549 684.087,151.382 685.5,148.5 Z"/></g>
<g><path style="opacity:1" fill="#848abb" d="M 351.5,147.5 C 350.167,154.167 350.167,160.833 351.5,167.5C 350.778,167.082 350.278,166.416 350,165.5C 349.333,160.167 349.333,154.833 350,149.5C 350.278,148.584 350.778,147.918 351.5,147.5 Z"/></g>
<g><path style="opacity:1" fill="#b2b9d5" d="M 77.5,165.5 C 76.1319,163.582 75.1319,161.415 74.5,159C 66.8406,158.5 59.1739,158.334 51.5,158.5C 54.9377,157.177 58.771,156.51 63,156.5C 66.8333,156.667 70.6667,156.833 74.5,157C 76.5848,159.419 77.5848,162.253 77.5,165.5 Z"/></g>
<g><path style="opacity:1" fill="#b4b9d7" d="M 123.5,131.5 C 123.833,131.5 124.167,131.5 124.5,131.5C 123.683,146.092 123.183,160.759 123,175.5C 117.734,176.824 112.567,176.824 107.5,175.5C 112.43,175.803 117.263,175.469 122,174.5C 122.169,159.994 122.669,145.661 123.5,131.5 Z"/></g>
<g><path style="opacity:1" fill="#9ea5c4" d="M 529.5,152.5 C 528.167,155.833 528.167,159.167 529.5,162.5C 528.883,162.389 528.383,162.056 528,161.5C 527.333,158.833 527.333,156.167 528,153.5C 528.383,152.944 528.883,152.611 529.5,152.5 Z"/></g>
<g><path style="opacity:1" fill="#46529e" d="M 257.5,114.5 C 257.5,115.833 257.5,117.167 257.5,118.5C 253.881,117.756 250.215,117.423 246.5,117.5C 246.333,136.17 246.5,154.836 247,173.5C 249.667,172.167 252.333,172.167 255,173.5C 255.019,160.678 255.686,148.011 257,135.5C 257.5,148.829 257.667,162.163 257.5,175.5C 253.167,176.833 248.833,176.833 244.5,175.5C 244.5,155.167 244.5,134.833 244.5,114.5C 248.833,114.5 253.167,114.5 257.5,114.5 Z"/></g>
<g><path style="opacity:1" fill="#c0c3df" d="M 512.5,152.5 C 512.283,157.23 512.617,161.897 513.5,166.5C 512.883,166.389 512.383,166.056 512,165.5C 511.186,160.98 511.353,156.646 512.5,152.5 Z"/></g>
<g><path style="opacity:1" fill="#b0b4d3" d="M 205.5,160.5 C 205.389,161.117 205.056,161.617 204.5,162C 201.845,162.564 199.179,163.064 196.5,163.5C 194.443,163.564 192.777,162.898 191.5,161.5C 196.214,161.647 200.881,161.314 205.5,160.5 Z"/></g>
<g><path style="opacity:1" fill="#a9aece" d="M 463.5,161.5 C 468.463,162.254 473.463,162.587 478.5,162.5C 476.696,163.162 474.696,163.495 472.5,163.5C 469.186,163.657 466.186,162.991 463.5,161.5 Z"/></g>
<g><path style="opacity:1" fill="#434f9a" d="M 159.5,175.5 C 155.253,176.602 150.92,176.768 146.5,176C 145.944,175.617 145.611,175.117 145.5,174.5C 145.167,159.152 145.501,143.819 146.5,128.5C 147.499,143.152 147.833,157.818 147.5,172.5C 150.777,172.216 153.943,172.549 157,173.5C 157.333,156.833 157.667,140.167 158,123.5C 159.485,140.679 159.985,158.013 159.5,175.5 Z"/></g>
<g><path style="opacity:1" fill="#4c579e" d="M 803.5,123.5 C 804.662,140.662 804.829,157.995 804,175.5C 799.587,176.632 795.087,176.799 790.5,176C 789.944,175.617 789.611,175.117 789.5,174.5C 789.167,159.818 789.501,145.152 790.5,130.5C 791.499,144.484 791.833,158.484 791.5,172.5C 794.777,172.216 797.943,172.549 801,173.5C 800.845,156.47 801.678,139.803 803.5,123.5 Z"/></g>
<g><path style="opacity:1" fill="#7982b6" d="M 852.5,162.5 C 852.389,163.117 852.056,163.617 851.5,164C 846.648,164.815 841.981,164.648 837.5,163.5C 842.562,163.726 847.562,163.392 852.5,162.5 Z"/></g>
<g><path style="opacity:1" fill="#bbbfd9" d="M 51.5,158.5 C 50.8629,161.456 50.3629,164.456 50,167.5C 49.5762,170.025 48.4095,172.025 46.5,173.5C 47.1373,168.654 48.304,163.987 50,159.5C 50.3826,158.944 50.8826,158.611 51.5,158.5 Z"/></g>
<g><path style="opacity:1" fill="#979bc3" d="M 387.5,175.5 C 386.839,174.282 386.172,172.949 385.5,171.5C 384.15,172.95 382.484,173.617 380.5,173.5C 382.34,171.331 384.674,169.998 387.5,169.5C 387.5,171.5 387.5,173.5 387.5,175.5 Z"/></g>
<g><path style="opacity:1" fill="#a7acce" d="M 721.5,174.5 C 720.842,173.602 720.176,172.602 719.5,171.5C 718.583,172.127 717.583,172.461 716.5,172.5C 717.635,170.787 719.302,170.12 721.5,170.5C 721.5,171.833 721.5,173.167 721.5,174.5 Z"/></g>
<g><path style="opacity:1" fill="#374495" d="M 735.5,171.5 C 735.5,172.5 735.5,173.5 735.5,174.5C 731.265,175.436 726.931,175.769 722.5,175.5C 722.5,174.5 722.5,173.5 722.5,172.5C 725.711,172.988 728.544,172.321 731,170.5C 731.249,171.624 731.749,172.624 732.5,173.5C 733.333,157.51 733.833,141.51 734,125.5C 734.169,141.005 734.669,156.339 735.5,171.5 Z"/></g>
<g><path style="opacity:1" fill="#7681b2" d="M 487.5,174.5 C 486.737,175.268 485.737,175.768 484.5,176C 475.99,176.823 467.656,176.657 459.5,175.5C 468.866,175.721 478.199,175.387 487.5,174.5 Z"/></g>
<g><path style="opacity:1" fill="#737eaf" d="M 691.5,174.5 C 697.464,175.307 703.464,175.64 709.5,175.5C 709.5,175.833 709.5,176.167 709.5,176.5C 704.156,176.666 698.823,176.499 693.5,176C 692.584,175.722 691.918,175.222 691.5,174.5 Z"/></g>
<g><path style="opacity:1" fill="#cdcee3" d="M 716.5,172.5 C 715.223,175.552 712.89,176.885 709.5,176.5C 709.5,176.167 709.5,175.833 709.5,175.5C 711.843,174.656 714.176,173.656 716.5,172.5 Z"/></g>
<g><path style="opacity:1" fill="#8b94c1" d="M 735.5,174.5 C 733.777,175.8 731.61,176.467 729,176.5C 726.639,176.496 724.473,176.163 722.5,175.5C 726.931,175.769 731.265,175.436 735.5,174.5 Z"/></g>
<g><path style="opacity:1" fill="#6e79ad" d="M 830.5,174.5 C 838.471,175.323 846.471,175.656 854.5,175.5C 847.345,176.655 840.012,176.822 832.5,176C 831.584,175.722 830.918,175.222 830.5,174.5 Z"/></g>
<g><path style="opacity:1" fill="#6067a4" d="M 311.5,216.5 C 312.5,216.5 313.5,216.5 314.5,216.5C 314.5,218.833 314.5,221.167 314.5,223.5C 313.5,223.5 312.5,223.5 311.5,223.5C 311.5,221.167 311.5,218.833 311.5,216.5 Z"/></g>
<g><path style="opacity:1" fill="#6e77ac" d="M 289.5,218.5 C 299.438,218.439 302.772,223.106 299.5,232.5C 299.665,229.482 299.498,226.482 299,223.5C 298.184,222.177 297.017,221.511 295.5,221.5C 290.213,220.658 284.88,220.324 279.5,220.5C 282.833,219.833 286.167,219.167 289.5,218.5 Z"/></g>
<g><path style="opacity:1" fill="#4e5a9f" d="M 360.5,216.5 C 361.15,231.206 360.483,245.539 358.5,259.5C 357.85,244.794 358.517,230.461 360.5,216.5 Z"/></g>
<g><path style="opacity:1" fill="#7076b0" d="M 360.5,216.5 C 361.496,230.99 361.829,245.657 361.5,260.5C 360.209,260.737 359.209,260.404 358.5,259.5C 360.483,245.539 361.15,231.206 360.5,216.5 Z"/></g>
<g><path style="opacity:1" fill="#4c579e" d="M 482.5,218.5 C 482.5,231.5 482.5,244.5 482.5,257.5C 488.653,258.328 494.987,258.828 501.5,259C 494.508,259.5 487.508,259.666 480.5,259.5C 479.851,245.459 480.518,231.792 482.5,218.5 Z"/></g>
<g><path style="opacity:1" fill="#aaaed0" d="M 544.5,216.5 C 545.167,221.5 545.833,226.5 546.5,231.5C 546.44,232.043 546.107,232.376 545.5,232.5C 544.505,227.208 544.172,221.875 544.5,216.5 Z"/></g>
<g><path style="opacity:1" fill="#f8f9fa" d="M 279.5,220.5 C 284.88,220.324 290.213,220.658 295.5,221.5C 297.975,225.693 298.142,230.026 296,234.5C 294.103,236.016 291.936,236.683 289.5,236.5C 286.167,236.5 282.833,236.5 279.5,236.5C 279.5,231.167 279.5,225.833 279.5,220.5 Z"/></g>
<g><path style="opacity:1" fill="#9fa6ca" d="M 279.5,220.5 C 279.5,225.833 279.5,231.167 279.5,236.5C 282.833,236.5 286.167,236.5 289.5,236.5C 286.038,237.482 282.371,237.815 278.5,237.5C 278.178,231.642 278.511,225.975 279.5,220.5 Z"/></g>
<g><path style="opacity:1" fill="#666ca8" d="M 187.5,228.5 C 192.696,227.703 197.196,229.036 201,232.5C 205.763,229.638 210.929,228.804 216.5,230C 217.667,231.167 218.833,232.333 220,233.5C 220.5,242.494 220.666,251.494 220.5,260.5C 219.167,260.5 217.833,260.5 216.5,260.5C 216.666,251.494 216.5,242.494 216,233.5C 211.322,231.941 206.822,232.274 202.5,234.5C 201.502,243.141 201.169,251.808 201.5,260.5C 200.167,260.5 198.833,260.5 197.5,260.5C 197.666,251.827 197.5,243.16 197,234.5C 191.885,230.84 186.885,231.174 182,235.5C 181.5,243.827 181.334,252.16 181.5,260.5C 180.5,260.5 179.5,260.5 178.5,260.5C 178.5,250.167 178.5,239.833 178.5,229.5C 180.2,229.626 181.7,230.293 183,231.5C 184.981,231.101 186.481,230.101 187.5,228.5 Z"/></g>
<g><path style="opacity:1" fill="#646ca7" d="M 235.5,228.5 C 241.613,227.41 246.779,229.077 251,233.5C 251.494,235.134 251.66,236.801 251.5,238.5C 250.167,238.5 248.833,238.5 247.5,238.5C 248.145,235.453 247.145,233.287 244.5,232C 240.428,231.044 236.595,231.544 233,233.5C 232.056,236.347 232.556,238.847 234.5,241C 240.194,242.349 245.527,244.516 250.5,247.5C 252.978,254.041 250.978,258.541 244.5,261C 239.601,262.125 235.101,261.291 231,258.5C 229.798,256.323 229.298,253.989 229.5,251.5C 230.5,251.5 231.5,251.5 232.5,251.5C 232.14,257.017 234.807,259.35 240.5,258.5C 247.309,258.533 249.642,255.367 247.5,249C 243.91,247.47 240.243,246.136 236.5,245C 229.989,243.118 227.822,238.951 230,232.5C 231.812,231.023 233.645,229.69 235.5,228.5 Z"/></g>
<g><path style="opacity:1" fill="#f4f4f7" d="M 561.5,255.5 C 556.205,259.401 550.872,259.235 545.5,255C 544.527,249.593 544.193,244.093 544.5,238.5C 544.452,235.708 545.785,233.875 548.5,233C 552.167,232.333 555.833,232.333 559.5,233C 560,233.5 560.5,234 561,234.5C 561.5,241.492 561.666,248.492 561.5,255.5 Z"/></g>
<g><path style="opacity:1" fill="#5963a3" d="M 127.5,221.5 C 128.5,221.5 129.5,221.5 130.5,221.5C 130.5,224.167 130.5,226.833 130.5,229.5C 133.167,229.5 135.833,229.5 138.5,229.5C 138.5,230.5 138.5,231.5 138.5,232.5C 135.833,232.5 133.167,232.5 130.5,232.5C 130.334,240.174 130.5,247.841 131,255.5C 133.951,257.076 137.117,257.743 140.5,257.5C 140.5,258.5 140.5,259.5 140.5,260.5C 137.482,260.665 134.482,260.498 131.5,260C 129.951,258.786 128.785,257.286 128,255.5C 127.5,247.841 127.334,240.174 127.5,232.5C 125.833,232.5 124.167,232.5 122.5,232.5C 122.5,231.5 122.5,230.5 122.5,229.5C 124.167,229.5 125.833,229.5 127.5,229.5C 127.5,226.833 127.5,224.167 127.5,221.5 Z"/></g>
<g><path style="opacity:1" fill="#676fa9" d="M 168.5,234.5 C 167.883,234.389 167.383,234.056 167,233.5C 166.502,236.817 166.335,240.15 166.5,243.5C 160.642,243.822 154.975,243.489 149.5,242.5C 154.833,242.5 160.167,242.5 165.5,242.5C 167.174,232.812 163.174,229.312 153.5,232C 151.249,232.748 149.916,234.248 149.5,236.5C 148.883,236.389 148.383,236.056 148,235.5C 147.5,242.158 147.334,248.825 147.5,255.5C 146.345,248.345 146.178,241.012 147,233.5C 149.605,230.044 153.105,228.711 157.5,229.5C 159.833,229.667 162.167,229.833 164.5,230C 166.751,230.748 168.084,232.248 168.5,234.5 Z"/></g>
<g><path style="opacity:1" fill="#f5f6f8" d="M 149.5,242.5 C 149.5,240.5 149.5,238.5 149.5,236.5C 149.916,234.248 151.249,232.748 153.5,232C 163.174,229.312 167.174,232.812 165.5,242.5C 160.167,242.5 154.833,242.5 149.5,242.5 Z"/></g>
<g><path style="opacity:1" fill="#5f67a7" d="M 311.5,229.5 C 312.5,229.5 313.5,229.5 314.5,229.5C 314.5,239.833 314.5,250.167 314.5,260.5C 313.5,260.5 312.5,260.5 311.5,260.5C 311.5,250.167 311.5,239.833 311.5,229.5 Z"/></g>
<g><path style="opacity:1" fill="#5f67a5" d="M 544.5,216.5 C 544.172,221.875 544.505,227.208 545.5,232.5C 546.107,232.376 546.44,232.043 546.5,231.5C 552.05,227.725 557.55,227.725 563,231.5C 564.107,235.888 564.607,240.388 564.5,245C 564.499,249.015 564.165,252.849 563.5,256.5C 563.666,249.159 563.5,241.826 563,234.5C 562.829,241.679 562.329,248.679 561.5,255.5C 561.666,248.492 561.5,241.492 561,234.5C 560.5,234 560,233.5 559.5,233C 555.833,232.333 552.167,232.333 548.5,233C 545.785,233.875 544.452,235.708 544.5,238.5C 543.883,238.389 543.383,238.056 543,237.5C 542.833,241.167 542.667,244.833 542.5,248.5C 542.511,252.565 543.178,256.232 544.5,259.5C 543.791,260.404 542.791,260.737 541.5,260.5C 541.5,245.833 541.5,231.167 541.5,216.5C 542.5,216.5 543.5,216.5 544.5,216.5 Z"/></g>
<g><path style="opacity:1" fill="#5f67a6" d="M 39.5,217.5 C 45.7624,216.872 51.7624,217.705 57.5,220C 59.3398,222.826 60.0065,225.993 59.5,229.5C 58.5,229.5 57.5,229.5 56.5,229.5C 56.9804,226.315 56.3137,223.481 54.5,221C 50.1667,220.333 45.8333,220.333 41.5,221C 38.5583,221.94 37.2249,223.94 37.5,227C 37.4076,229.814 38.4076,232.147 40.5,234C 47.7727,235.72 54.2727,238.887 60,243.5C 63.0638,255.083 58.7305,260.75 47,260.5C 37.3075,261.476 33.1408,257.309 34.5,248C 35.448,247.517 36.448,247.351 37.5,247.5C 35.8409,255.266 39.0076,258.933 47,258.5C 53.1686,258.522 56.3352,255.522 56.5,249.5C 56.712,246.989 56.0454,244.822 54.5,243C 47.1547,240.913 40.6547,237.413 35,232.5C 34.3333,228.833 34.3333,225.167 35,221.5C 36.3968,219.93 37.8968,218.596 39.5,217.5 Z"/></g>
<g><path style="opacity:1" fill="#c8cce0" d="M 298.5,239.5 C 299.583,239.539 300.583,239.873 301.5,240.5C 302.809,244.649 302.809,248.649 301.5,252.5C 302.262,247.607 301.262,243.274 298.5,239.5 Z"/></g>
<g><path style="opacity:1" fill="#555fa2" d="M 168.5,234.5 C 168.5,238.167 168.5,241.833 168.5,245.5C 162.167,245.5 155.833,245.5 149.5,245.5C 148.049,257.458 153.049,261.291 164.5,257C 165.406,255.301 165.739,253.467 165.5,251.5C 166.5,251.5 167.5,251.5 168.5,251.5C 169.155,255.355 167.821,258.188 164.5,260C 159.833,260.667 155.167,260.667 150.5,260C 148.859,258.871 147.859,257.371 147.5,255.5C 147.334,248.825 147.5,242.158 148,235.5C 148.383,236.056 148.883,236.389 149.5,236.5C 149.5,238.5 149.5,240.5 149.5,242.5C 154.975,243.489 160.642,243.822 166.5,243.5C 166.335,240.15 166.502,236.817 167,233.5C 167.383,234.056 167.883,234.389 168.5,234.5 Z"/></g>
<g><path style="opacity:1" fill="#5660a2" d="M 289.5,218.5 C 286.167,219.167 282.833,219.833 279.5,220.5C 278.511,225.975 278.178,231.642 278.5,237.5C 282.371,237.815 286.038,237.482 289.5,236.5C 291.936,236.683 294.103,236.016 296,234.5C 298.142,230.026 297.975,225.693 295.5,221.5C 297.017,221.511 298.184,222.177 299,223.5C 299.498,226.482 299.665,229.482 299.5,232.5C 298.746,235.091 297.079,236.924 294.5,238C 295.745,238.791 297.078,239.291 298.5,239.5C 301.262,243.274 302.262,247.607 301.5,252.5C 301.531,256.597 299.531,259.097 295.5,260C 288.842,260.5 282.175,260.666 275.5,260.5C 275.5,246.167 275.5,231.833 275.5,217.5C 280.363,217.181 285.03,217.514 289.5,218.5 Z"/></g>
<g><path style="opacity:1" fill="#fcfcfc" d="M 291.5,240.5 C 294.198,240.45 296.364,241.45 298,243.5C 298.667,247.167 298.667,250.833 298,254.5C 295.581,256.585 292.747,257.585 289.5,257.5C 286.167,257.5 282.833,257.5 279.5,257.5C 279.5,251.833 279.5,246.167 279.5,240.5C 283.5,240.5 287.5,240.5 291.5,240.5 Z"/></g>
<g><path style="opacity:1" fill="#a3a9cc" d="M 291.5,240.5 C 287.5,240.5 283.5,240.5 279.5,240.5C 279.5,246.167 279.5,251.833 279.5,257.5C 282.833,257.5 286.167,257.5 289.5,257.5C 286.038,258.482 282.371,258.815 278.5,258.5C 278.5,252.167 278.5,245.833 278.5,239.5C 283.032,239.182 287.366,239.515 291.5,240.5 Z"/></g>
<g><path style="opacity:1" fill="#626aa7" d="M 332.5,228.5 C 338.496,227.756 343.663,229.422 348,233.5C 348.667,240.5 348.667,247.5 348,254.5C 347.022,256.475 345.689,258.142 344,259.5C 339.619,261.194 335.119,261.694 330.5,261C 328.667,259.833 327.167,258.333 326,256.5C 325.333,248.833 325.333,241.167 326,233.5C 327.563,230.977 329.73,229.31 332.5,228.5 Z"/></g>
<g><path style="opacity:1" fill="#f8f8f9" d="M 331.5,231.5 C 335.712,231.078 339.712,231.744 343.5,233.5C 344.665,240.811 344.831,248.144 344,255.5C 340.319,258.36 336.152,259.193 331.5,258C 330.667,257.167 329.833,256.333 329,255.5C 328.333,248.167 328.333,240.833 329,233.5C 329.995,232.934 330.828,232.267 331.5,231.5 Z"/></g>
<g><path style="opacity:1" fill="#5760a2" d="M 423.5,231.5 C 424.117,231.389 424.617,231.056 425,230.5C 425.5,243.496 425.667,256.496 425.5,269.5C 424.251,271.136 422.584,272.303 420.5,273C 415.845,273.499 411.179,273.666 406.5,273.5C 410.573,271.865 414.906,270.865 419.5,270.5C 421.411,270.426 422.578,269.426 423,267.5C 423.824,264.118 423.657,260.784 422.5,257.5C 417.925,260.391 412.925,261.225 407.5,260C 406.333,258.833 405.167,257.667 404,256.5C 403.333,248.5 403.333,240.5 404,232.5C 410.028,227.37 416.195,227.37 422.5,232.5C 423.107,232.376 423.44,232.043 423.5,231.5 Z"/></g>
<g><path style="opacity:1" fill="#f6f7f9" d="M 408.5,232.5 C 413.695,231.944 418.528,232.944 423,235.5C 423.81,242.082 423.643,248.582 422.5,255C 419.408,256.864 416.074,258.031 412.5,258.5C 410.088,258.594 408.255,257.594 407,255.5C 406.333,248.5 406.333,241.5 407,234.5C 407.717,233.956 408.217,233.289 408.5,232.5 Z"/></g>
<g><path style="opacity:1" fill="#6f77b1" d="M 425.5,269.5 C 425.667,256.496 425.5,243.496 425,230.5C 424.617,231.056 424.117,231.389 423.5,231.5C 423.821,229.952 424.821,229.285 426.5,229.5C 426.829,243.01 426.496,256.344 425.5,269.5 Z"/></g>
<g><path style="opacity:1" fill="#b7bfd8" d="M 527.5,234.5 C 528.477,237.287 528.81,240.287 528.5,243.5C 523.833,243.5 519.167,243.5 514.5,243.5C 518.634,242.515 522.968,242.182 527.5,242.5C 527.5,239.833 527.5,237.167 527.5,234.5 Z"/></g>
<g><path style="opacity:1" fill="#6068a4" d="M 102.5,228.5 C 107.677,227.703 112.177,229.036 116,232.5C 116.495,234.473 116.662,236.473 116.5,238.5C 115.5,238.5 114.5,238.5 113.5,238.5C 114.145,235.453 113.145,233.287 110.5,232C 106.428,231.044 102.595,231.544 99,233.5C 97.877,236.956 98.7104,239.79 101.5,242C 106.929,242.77 111.929,244.603 116.5,247.5C 118.76,257.253 114.76,261.92 104.5,261.5C 101.771,261.705 99.4382,260.872 97.5,259C 95.4237,257.116 95.0903,254.949 96.5,252.5C 97.9202,256.927 100.92,258.927 105.5,258.5C 112.869,258.98 115.536,255.813 113.5,249C 108.909,247.136 104.243,245.47 99.5,244C 95.7229,241.089 94.5563,237.256 96,232.5C 98.0129,230.752 100.18,229.418 102.5,228.5 Z"/></g>
<g><path style="opacity:1" fill="#6169a6" d="M 514.5,243.5 C 519.167,243.5 523.833,243.5 528.5,243.5C 528.81,240.287 528.477,237.287 527.5,234.5C 526.942,233.21 525.942,232.377 524.5,232C 520.428,231.044 516.595,231.544 513,233.5C 512.506,235.134 512.34,236.801 512.5,238.5C 511.5,238.5 510.5,238.5 509.5,238.5C 508.429,233.402 510.429,230.236 515.5,229C 521.523,227.675 526.689,229.175 531,233.5C 531.5,242.494 531.666,251.494 531.5,260.5C 530.5,260.5 529.5,260.5 528.5,260.5C 528.719,259.325 528.386,258.325 527.5,257.5C 520.814,263.131 514.648,262.798 509,256.5C 508.044,252.428 508.544,248.595 510.5,245C 511.745,244.209 513.078,243.709 514.5,243.5 Z"/></g>
<g><path style="opacity:1" fill="#f8f8fb" d="M 514.5,246.5 C 518.833,246.5 523.167,246.5 527.5,246.5C 527.5,249.167 527.5,251.833 527.5,254.5C 523.745,257.582 519.411,258.748 514.5,258C 510.519,254.047 510.519,250.214 514.5,246.5 Z"/></g>
<g><path style="opacity:1" fill="#5f68a6" d="M 377.5,228.5 C 383.279,227.708 388.446,229.041 393,232.5C 394.563,240.087 394.896,247.754 394,255.5C 393.167,257.667 391.667,259.167 389.5,260C 384.833,260.667 380.167,260.667 375.5,260C 374,259.167 372.833,258 372,256.5C 371.333,248.833 371.333,241.167 372,233.5C 373.73,231.598 375.563,229.931 377.5,228.5 Z"/></g>
<g><path style="opacity:1" fill="#f7f8f9" d="M 377.5,231.5 C 388.587,229.39 392.92,233.89 390.5,245C 393.225,255.923 389.225,260.256 378.5,258C 377.069,257.535 375.903,256.701 375,255.5C 374.169,248.144 374.335,240.811 375.5,233.5C 376.522,233.145 377.189,232.478 377.5,231.5 Z"/></g>
<g><path style="opacity:1" fill="#b1b8d5" d="M 514.5,246.5 C 518.97,245.514 523.637,245.181 528.5,245.5C 528.81,248.713 528.477,251.713 527.5,254.5C 527.5,251.833 527.5,249.167 527.5,246.5C 523.167,246.5 518.833,246.5 514.5,246.5 Z"/></g>
<g><path style="opacity:1" fill="#5f67a4" d="M 433.5,229.5 C 435.911,229.137 437.411,230.137 438,232.5C 439.584,239.754 441.917,246.754 445,253.5C 445.667,252.833 446.333,252.167 447,251.5C 449.487,244.212 451.653,236.879 453.5,229.5C 454.873,229.343 456.207,229.51 457.5,230C 452.574,244.678 447.241,259.178 441.5,273.5C 441.167,272.833 440.833,272.167 440.5,271.5C 441.423,267.643 442.423,263.809 443.5,260C 440.46,249.713 437.126,239.546 433.5,229.5 Z"/></g>
<g><path style="opacity:1" fill="#5c65a3" d="M 66.5,229.5 C 68.1238,229.36 69.2904,230.027 70,231.5C 72.398,239.288 75.0647,246.955 78,254.5C 81.0438,246.915 83.7105,239.248 86,231.5C 86.7096,230.027 87.8762,229.36 89.5,229.5C 84.8328,244.185 80.1661,258.852 75.5,273.5C 74.5,273.5 73.5,273.5 72.5,273.5C 73.679,268.97 75.0123,264.47 76.5,260C 72.6612,249.984 69.3279,239.817 66.5,229.5 Z"/></g>
<g><path style="opacity:1" fill="#505ba0" d="M 563.5,256.5 C 562.73,258.935 561.063,260.269 558.5,260.5C 555.14,260.384 551.807,260.051 548.5,259.5C 547.518,258.859 546.518,258.193 545.5,257.5C 544.702,257.957 544.369,258.624 544.5,259.5C 543.178,256.232 542.511,252.565 542.5,248.5C 542.667,244.833 542.833,241.167 543,237.5C 543.383,238.056 543.883,238.389 544.5,238.5C 544.193,244.093 544.527,249.593 545.5,255C 550.872,259.235 556.205,259.401 561.5,255.5C 562.329,248.679 562.829,241.679 563,234.5C 563.5,241.826 563.666,249.159 563.5,256.5 Z"/></g>
<g><path style="opacity:1" fill="#6b72ad" d="M 482.5,218.5 C 480.518,231.792 479.851,245.459 480.5,259.5C 487.508,259.666 494.508,259.5 501.5,259C 494.987,258.828 488.653,258.328 482.5,257.5C 489.167,257.5 495.833,257.5 502.5,257.5C 502.5,258.5 502.5,259.5 502.5,260.5C 494.833,260.5 487.167,260.5 479.5,260.5C 479.5,246.167 479.5,231.833 479.5,217.5C 480.791,217.263 481.791,217.596 482.5,218.5 Z"/></g>
<g><path style="opacity:1" fill="#9498bf" d="M 548.5,259.5 C 551.807,260.051 555.14,260.384 558.5,260.5C 555.041,261.865 551.708,261.531 548.5,259.5 Z"/></g>
<g><path style="opacity:1" fill="#a3aac5" d="M 419.5,270.5 C 414.906,270.865 410.573,271.865 406.5,273.5C 405.596,272.791 405.263,271.791 405.5,270.5C 410.167,270.5 414.833,270.5 419.5,270.5 Z"/></g>
</svg>
