<?xml version="1.0" encoding="UTF-8"?>
<!DOCTYPE svg PUBLIC "-//W3C//DTD SVG 1.1//EN" "http://www.w3.org/Graphics/SVG/1.1/DTD/svg11.dtd">
<svg xmlns="http://www.w3.org/2000/svg" version="1.1" width="200px" height="200px" style="shape-rendering:geometricPrecision; text-rendering:geometricPrecision; image-rendering:optimizeQuality; fill-rule:evenodd; clip-rule:evenodd" xmlns:xlink="http://www.w3.org/1999/xlink">
<g><path style="opacity:1" fill="#fdfefe" d="M -0.5,-0.5 C 66.1667,-0.5 132.833,-0.5 199.5,-0.5C 199.5,66.1667 199.5,132.833 199.5,199.5C 132.833,199.5 66.1667,199.5 -0.5,199.5C -0.5,132.833 -0.5,66.1667 -0.5,-0.5 Z"/></g>
<g><path style="opacity:1" fill="#48c684" d="M 94.5,15.5 C 95.3382,15.8417 95.6716,16.5084 95.5,17.5C 96.8224,22.7418 96.489,27.9085 94.5,33C 95.0104,34.8261 95.8438,34.9928 97,33.5C 97.8656,27.0391 99.0323,26.8725 100.5,33C 98.7169,38.2187 96.3836,43.052 93.5,47.5C 93.6646,44.4816 93.498,41.4816 93,38.5C 90.7621,36.6909 89.5954,34.3576 89.5,31.5C 88.1667,31.5 86.8333,31.5 85.5,31.5C 86.6444,37.3745 87.3111,43.3745 87.5,49.5C 86.1779,49.33 85.0113,49.6634 84,50.5C 82.7561,56.7847 81.9228,63.1181 81.5,69.5C 81.6893,73.037 81.0226,76.3703 79.5,79.5C 78.5509,84.7197 76.5509,89.3864 73.5,93.5C 73.2627,89.278 73.596,85.1114 74.5,81C 73.6119,79.7803 72.9452,78.4469 72.5,77C 77.7371,54.5501 80.0705,31.7167 79.5,8.5C 81.5273,8.66212 83.5273,8.49546 85.5,8C 83.6233,5.31799 81.2899,4.81799 78.5,6.5C 84.336,3.14828 88.5027,4.81494 91,11.5C 91.49,12.7932 91.6567,14.1266 91.5,15.5C 92.5,15.5 93.5,15.5 94.5,15.5 Z"/></g>
<g><path style="opacity:1" fill="#d9fbfa" d="M 163.5,31.5 C 166.292,31.4521 168.125,32.7854 169,35.5C 171.027,39.2281 172.193,43.2281 172.5,47.5C 170.853,44.2054 169.186,40.8721 167.5,37.5C 166.559,35.2279 165.226,33.2279 163.5,31.5 Z"/></g>
<g><path style="opacity:1" fill="#1eb5be" d="M 159.5,29.5 C 161.062,29.7329 162.395,30.3995 163.5,31.5C 165.226,33.2279 166.559,35.2279 167.5,37.5C 166.127,37.3433 164.793,37.51 163.5,38C 161.239,40.9681 160.239,44.1348 160.5,47.5C 161.631,46.2485 162.964,45.2485 164.5,44.5C 166.5,44.5 167.5,45.5 167.5,47.5C 165.508,53.4277 164.841,59.4277 165.5,65.5C 165.253,66.7133 164.586,67.38 163.5,67.5C 161.625,62.0789 159.459,56.7456 157,51.5C 156.124,49.3645 154.624,48.0312 152.5,47.5C 150.831,49.1403 148.831,50.4737 146.5,51.5C 145.571,50.3112 145.238,48.9778 145.5,47.5C 146.5,47.5 147.5,47.5 148.5,47.5C 150.272,44.037 151.605,40.3703 152.5,36.5C 152.387,34.3587 151.72,32.5253 150.5,31C 153.478,30.304 156.478,29.804 159.5,29.5 Z"/></g>
<g><path style="opacity:1" fill="#52be95" d="M 95.5,17.5 C 99.2661,23.3698 102.266,29.7031 104.5,36.5C 103.5,36.5 102.5,36.5 101.5,36.5C 101.007,38.8056 100.674,41.139 100.5,43.5C 99.5,43.5 98.5,43.5 97.5,43.5C 97.2882,50.3009 97.9549,56.9675 99.5,63.5C 96.975,58.4345 94.975,53.1012 93.5,47.5C 96.3836,43.052 98.7169,38.2187 100.5,33C 99.0323,26.8725 97.8656,27.0391 97,33.5C 95.8438,34.9928 95.0104,34.8261 94.5,33C 96.489,27.9085 96.8224,22.7418 95.5,17.5 Z"/></g>
<g><path style="opacity:1" fill="#66c189" d="M 94.5,15.5 C 93.5,15.5 92.5,15.5 91.5,15.5C 91.6567,14.1266 91.49,12.7932 91,11.5C 88.5027,4.81494 84.336,3.14828 78.5,6.5C 77.5416,6.9528 76.7083,7.61947 76,8.5C 74.8134,21.4641 74.1468,34.4641 74,47.5C 72.2794,55.7699 70.9461,64.1032 70,72.5C 68.4702,74.2262 67.4702,76.2262 67,78.5C 65.9887,79.3366 64.8221,79.67 63.5,79.5C 66.6436,68.9261 69.477,58.2594 72,47.5C 72.825,35.1753 73.4917,22.842 74,10.5C 75.596,2.62882 80.096,0.462156 87.5,4C 91.4862,6.80214 93.8196,10.6355 94.5,15.5 Z"/></g>
<g><path style="opacity:1" fill="#3bc294" d="M 104.5,36.5 C 106.614,39.8386 107.947,43.5053 108.5,47.5C 108.194,51.1977 108.861,54.6977 110.5,58C 108.547,62.5904 109.88,65.4238 114.5,66.5C 114.846,69.6021 114.179,72.4355 112.5,75C 114.891,77.8743 114.558,79.3743 111.5,79.5C 111.808,81.924 111.474,84.2573 110.5,86.5C 109.703,82.1577 108.87,77.8244 108,73.5C 106.442,72.6548 105.442,73.3215 105,75.5C 104.617,74.944 104.117,74.6107 103.5,74.5C 102.314,70.7403 100.981,67.0736 99.5,63.5C 97.9549,56.9675 97.2882,50.3009 97.5,43.5C 98.5,43.5 99.5,43.5 100.5,43.5C 100.674,41.139 101.007,38.8056 101.5,36.5C 102.5,36.5 103.5,36.5 104.5,36.5 Z"/></g>
<g><path style="opacity:1" fill="#28b8b1" d="M 159.5,29.5 C 156.478,29.804 153.478,30.304 150.5,31C 151.72,32.5253 152.387,34.3587 152.5,36.5C 151.605,40.3703 150.272,44.037 148.5,47.5C 147.5,47.5 146.5,47.5 145.5,47.5C 145.238,48.9778 145.571,50.3112 146.5,51.5C 148.831,50.4737 150.831,49.1403 152.5,47.5C 148.827,56.8892 145.16,66.2225 141.5,75.5C 141.662,73.4727 141.495,71.4727 141,69.5C 140.311,70.3567 139.478,71.0233 138.5,71.5C 137.52,68.9135 137.187,66.2469 137.5,63.5C 136.5,63.5 135.5,63.5 134.5,63.5C 134.264,60.7743 135.097,58.441 137,56.5C 138.61,58.5968 139.777,60.9302 140.5,63.5C 140.833,62.6667 141.167,61.8333 141.5,61C 139.244,55.2899 138.911,49.4566 140.5,43.5C 141.5,43.5 142.5,43.5 143.5,43.5C 143.664,40.8127 143.497,38.146 143,35.5C 142.617,36.056 142.117,36.3893 141.5,36.5C 145.107,27.5064 151.107,25.173 159.5,29.5 Z"/></g>
<g><path style="opacity:1" fill="#e9fbf6" d="M 93.5,47.5 C 94.975,53.1012 96.975,58.4345 99.5,63.5C 100.981,67.0736 102.314,70.7403 103.5,74.5C 106.805,82.3855 109.805,90.3855 112.5,98.5C 112.26,102.403 110.26,104.736 106.5,105.5C 106.5,104.833 106.5,104.167 106.5,103.5C 110.051,101.996 111.218,99.3295 110,95.5C 106.911,82.528 105.078,82.528 104.5,95.5C 102.215,87.4874 99.3814,79.4874 96,71.5C 94.6322,63.3621 92.6322,55.3621 90,47.5C 88.8876,42.8345 88.221,38.1679 88,33.5C 89.6107,38.3671 91.444,43.0338 93.5,47.5 Z"/></g>
<g><path style="opacity:1" fill="#e7f7e4" d="M 47.5,67.5 C 45.4559,66.9688 43.7893,65.8022 42.5,64C 40.1902,63.5034 37.8568,63.3367 35.5,63.5C 34.1667,63.5 32.8333,63.5 31.5,63.5C 29.1016,63.2594 27.1016,63.9261 25.5,65.5C 25.1667,65.5 24.8333,65.5 24.5,65.5C 24.84,63.321 25.84,61.4877 27.5,60C 33.6552,58.8304 39.4885,59.6637 45,62.5C 47.9175,61.5056 48.0842,62.0056 45.5,64C 46.305,65.1127 46.9717,66.2794 47.5,67.5 Z"/></g>
<g><path style="opacity:1" fill="#f4fbfc" d="M 152.5,47.5 C 154.624,48.0312 156.124,49.3645 157,51.5C 159.459,56.7456 161.625,62.0789 163.5,67.5C 167.509,78.5339 170.509,89.8672 172.5,101.5C 172.768,103.099 172.434,104.432 171.5,105.5C 170.396,100.348 168.063,95.8481 164.5,92C 161.298,90.5167 157.964,90.1834 154.5,91C 153.944,91.3826 153.611,91.8826 153.5,92.5C 149.896,95.6496 146.73,99.3162 144,103.5C 141.906,108.024 139.573,112.358 137,116.5C 135.82,113.479 134.654,110.479 133.5,107.5C 133.5,106.833 133.167,106.5 132.5,106.5C 132.481,104.94 132.148,103.44 131.5,102C 135.34,93.3081 138.673,84.4747 141.5,75.5C 145.16,66.2225 148.827,56.8892 152.5,47.5 Z"/></g>
<g><path style="opacity:1" fill="#4ec97a" d="M 73.5,93.5 C 73.6716,94.4916 73.3382,95.1583 72.5,95.5C 72.1667,95.5 71.8333,95.5 71.5,95.5C 71.6646,92.4816 71.498,89.4816 71,86.5C 67.9632,83.7974 66.1299,84.6308 65.5,89C 65.9949,91.0094 65.9949,93.1761 65.5,95.5C 64.0222,95.762 62.6888,95.4287 61.5,94.5C 63.223,92.1324 63.8897,89.4658 63.5,86.5C 62.5,86.5 61.5,86.5 60.5,86.5C 61.2271,84.0462 62.2271,81.7128 63.5,79.5C 64.8221,79.67 65.9887,79.3366 67,78.5C 67.4702,76.2262 68.4702,74.2262 70,72.5C 70.9461,64.1032 72.2794,55.7699 74,47.5C 74.1468,34.4641 74.8134,21.4641 76,8.5C 76.7083,7.61947 77.5416,6.9528 78.5,6.5C 81.2899,4.81799 83.6233,5.31799 85.5,8C 83.5273,8.49546 81.5273,8.66212 79.5,8.5C 80.0705,31.7167 77.7371,54.5501 72.5,77C 72.9452,78.4469 73.6119,79.7803 74.5,81C 73.596,85.1114 73.2627,89.278 73.5,93.5 Z"/></g>
<g><path style="opacity:1" fill="#e2fcfa" d="M 111.5,54.5 C 113.371,54.8588 114.871,55.8588 116,57.5C 117.429,63.9107 119.762,69.9107 123,75.5C 124.757,73.12 124.923,70.62 123.5,68C 124.962,66.3721 126.628,66.2054 128.5,67.5C 127.041,71.0457 125.874,74.7124 125,78.5C 123.184,79.7432 121.684,79.4099 120.5,77.5C 118.345,69.5202 115.345,61.8536 111.5,54.5 Z"/></g>
<g><path style="opacity:1" fill="#23b2c3" d="M 167.5,37.5 C 169.186,40.8721 170.853,44.2054 172.5,47.5C 175.697,56.4255 178.697,65.4255 181.5,74.5C 182.524,80.3533 183.857,86.02 185.5,91.5C 187.897,103.371 188.897,115.371 188.5,127.5C 186.628,120.901 185.628,113.901 185.5,106.5C 184.173,101.462 183.173,96.4617 182.5,91.5C 182.495,88.4682 182.162,85.4682 181.5,82.5C 181.36,80.9704 180.693,79.9704 179.5,79.5C 178.14,76.3801 177.307,73.0468 177,69.5C 176.667,69.1667 176.333,68.8333 176,68.5C 175.667,70.1667 175.333,71.8333 175,73.5C 175.338,68.8058 175.172,64.1391 174.5,59.5C 172.209,60.8957 171.875,62.729 173.5,65C 172.23,68.843 170.896,72.6763 169.5,76.5C 170.564,81.8569 171.73,87.1902 173,92.5C 173.805,95.6965 173.638,98.6965 172.5,101.5C 170.509,89.8672 167.509,78.5339 163.5,67.5C 164.586,67.38 165.253,66.7133 165.5,65.5C 164.841,59.4277 165.508,53.4277 167.5,47.5C 167.5,45.5 166.5,44.5 164.5,44.5C 162.964,45.2485 161.631,46.2485 160.5,47.5C 160.239,44.1348 161.239,40.9681 163.5,38C 164.793,37.51 166.127,37.3433 167.5,37.5 Z"/></g>
<g><path style="opacity:1" fill="#ade5aa" d="M 31.5,69.5 C 31.5,69.1667 31.5,68.8333 31.5,68.5C 34.5533,68.1107 37.22,68.7773 39.5,70.5C 36.8728,69.9084 34.2062,69.5751 31.5,69.5 Z"/></g>
<g><path style="opacity:1" fill="#54c293" d="M 93.5,47.5 C 91.444,43.0338 89.6107,38.3671 88,33.5C 88.221,38.1679 88.8876,42.8345 90,47.5C 92.6322,55.3621 94.6322,63.3621 96,71.5C 99.3814,79.4874 102.215,87.4874 104.5,95.5C 104.833,98.1667 105.167,100.833 105.5,103.5C 104.603,102.402 103.77,102.402 103,103.5C 102.752,107.61 102.585,111.61 102.5,115.5C 100.392,116.944 98.0588,117.61 95.5,117.5C 97.7687,115.543 99.7687,113.377 101.5,111C 99.219,102.141 96.8857,93.308 94.5,84.5C 91.6692,73.8443 88.8359,63.1776 86,52.5C 84.9168,58.4003 83.4168,64.067 81.5,69.5C 81.9228,63.1181 82.7561,56.7847 84,50.5C 85.0113,49.6634 86.1779,49.33 87.5,49.5C 87.3111,43.3745 86.6444,37.3745 85.5,31.5C 86.8333,31.5 88.1667,31.5 89.5,31.5C 89.5954,34.3576 90.7621,36.6909 93,38.5C 93.498,41.4816 93.6646,44.4816 93.5,47.5 Z"/></g>
<g><path style="opacity:1" fill="#c9f0bb" d="M 24.5,65.5 C 24.8333,65.5 25.1667,65.5 25.5,65.5C 21.6901,69.1306 18.3568,73.1306 15.5,77.5C 16.7181,72.2201 19.7181,68.2201 24.5,65.5 Z"/></g>
<g><path style="opacity:1" fill="#6cd456" d="M 31.5,63.5 C 32.8333,63.5 34.1667,63.5 35.5,63.5C 34.8888,65.7746 33.5554,67.4412 31.5,68.5C 31.5,68.8333 31.5,69.1667 31.5,69.5C 30.1266,69.3433 28.7932,69.51 27.5,70C 26.2285,72.2609 24.5618,72.7609 22.5,71.5C 24.9991,67.9849 27.9991,65.3182 31.5,63.5 Z"/></g>
<g><path style="opacity:1" fill="#e5fcf1" d="M 94.5,84.5 C 93.8826,84.6107 93.3826,84.944 93,85.5C 92.187,83.5643 91.687,81.5643 91.5,79.5C 89.8333,79.5 88.1667,79.5 86.5,79.5C 89.1054,72.7837 88.9388,66.1171 86,59.5C 85.6151,66.2398 84.7818,72.9065 83.5,79.5C 82.1667,79.5 80.8333,79.5 79.5,79.5C 81.0226,76.3703 81.6893,73.037 81.5,69.5C 83.4168,64.067 84.9168,58.4003 86,52.5C 88.8359,63.1776 91.6692,73.8443 94.5,84.5 Z"/></g>
<g><path style="opacity:1" fill="#fafafa" d="M 42.5,73.5 C 44.9501,75.6291 46.6167,78.2957 47.5,81.5C 46.7978,82.1157 45.7978,82.1157 44.5,81.5C 41.4844,79.9543 38.4844,78.2876 35.5,76.5C 32.8853,77.2692 30.2186,77.6025 27.5,77.5C 27.2501,74.4955 28.5834,72.6622 31.5,72C 35.3225,71.4151 38.9892,71.9151 42.5,73.5 Z"/></g>
<g><path style="opacity:1" fill="#81cf68" d="M 31.5,63.5 C 27.9991,65.3182 24.9991,67.9849 22.5,71.5C 24.5618,72.7609 26.2285,72.2609 27.5,70C 28.7932,69.51 30.1266,69.3433 31.5,69.5C 28.6141,70.8792 26.1141,72.8792 24,75.5C 23.2606,79.3852 21.9272,83.0519 20,86.5C 19.502,89.4816 19.3354,92.4816 19.5,95.5C 19.1667,95.5 18.8333,95.5 18.5,95.5C 17.3709,93.3718 17.2042,91.0385 18,88.5C 19.6842,84.2845 20.8509,79.9512 21.5,75.5C 20.448,75.3505 19.448,75.5172 18.5,76C 18.0257,77.7286 17.0257,78.8953 15.5,79.5C 15.5,78.8333 15.5,78.1667 15.5,77.5C 18.3568,73.1306 21.6901,69.1306 25.5,65.5C 27.1016,63.9261 29.1016,63.2594 31.5,63.5 Z"/></g>
<g><path style="opacity:1" fill="#eefdea" d="M 31.5,69.5 C 34.2062,69.5751 36.8728,69.9084 39.5,70.5C 40.6935,71.2719 41.6935,72.2719 42.5,73.5C 38.9892,71.9151 35.3225,71.4151 31.5,72C 28.5834,72.6622 27.2501,74.4955 27.5,77.5C 30.2186,77.6025 32.8853,77.2692 35.5,76.5C 38.4844,78.2876 41.4844,79.9543 44.5,81.5C 34.2343,77.9708 26.7343,80.9708 22,90.5C 21.3923,92.1545 20.8923,93.8211 20.5,95.5C 20.1667,95.5 19.8333,95.5 19.5,95.5C 19.3354,92.4816 19.502,89.4816 20,86.5C 21.9272,83.0519 23.2606,79.3852 24,75.5C 26.1141,72.8792 28.6141,70.8792 31.5,69.5 Z"/></g>
<g><path style="opacity:1" fill="#f9fcfb" d="M 94.5,84.5 C 96.8857,93.308 99.219,102.141 101.5,111C 99.7687,113.377 97.7687,115.543 95.5,117.5C 92.8127,117.664 90.146,117.497 87.5,117C 84.9289,115.546 82.2622,114.38 79.5,113.5C 79.631,112.761 79.4643,112.094 79,111.5C 75.7026,109.205 72.7026,106.538 70,103.5C 69.9516,100.587 70.7849,97.9206 72.5,95.5C 73.3382,95.1583 73.6716,94.4916 73.5,93.5C 76.5509,89.3864 78.5509,84.7197 79.5,79.5C 80.8333,79.5 82.1667,79.5 83.5,79.5C 84.7818,72.9065 85.6151,66.2398 86,59.5C 88.9388,66.1171 89.1054,72.7837 86.5,79.5C 88.1667,79.5 89.8333,79.5 91.5,79.5C 91.687,81.5643 92.187,83.5643 93,85.5C 93.3826,84.944 93.8826,84.6107 94.5,84.5 Z"/></g>
<g><path style="opacity:1" fill="#3fbd9d" d="M 108.5,47.5 C 109.912,49.6036 110.912,51.9369 111.5,54.5C 115.345,61.8536 118.345,69.5202 120.5,77.5C 120.666,81.8461 120.499,86.1794 120,90.5C 119.167,92 118,93.1667 116.5,94C 119.937,96.9814 120.437,100.481 118,104.5C 117.346,103.304 116.846,103.304 116.5,104.5C 117.242,105.287 118.075,105.953 119,106.5C 119.771,109.346 120.605,112.18 121.5,115C 121.395,116.592 121.061,118.092 120.5,119.5C 117.556,121.675 115.223,124.342 113.5,127.5C 114.873,131.187 116.206,134.853 117.5,138.5C 118.287,140.104 119.62,140.771 121.5,140.5C 121.5,141.5 121.5,142.5 121.5,143.5C 120.588,144.738 120.421,146.072 121,147.5C 123.868,153.896 126.702,160.23 129.5,166.5C 128.503,170.137 126.836,170.804 124.5,168.5C 120.798,162.265 117.465,155.765 114.5,149C 108.885,149.516 103.218,149.516 97.5,149C 96.5842,148.722 95.9175,148.222 95.5,147.5C 99.5138,147.666 103.514,147.499 107.5,147C 106.29,145.961 105.29,144.794 104.5,143.5C 107.641,144.092 109.974,143.092 111.5,140.5C 110.155,130.874 105.488,128.874 97.5,134.5C 94.1501,134.335 90.8168,134.502 87.5,135C 90.0534,137.425 92.7201,139.592 95.5,141.5C 90.6748,140.673 87.3414,138.006 85.5,133.5C 88.1296,132.572 90.7963,131.572 93.5,130.5C 94.8333,131.167 96.1667,131.833 97.5,132.5C 99.0377,132.547 100.038,131.88 100.5,130.5C 102.5,130.167 104.5,129.833 106.5,129.5C 106.491,127.692 106.991,126.025 108,124.5C 108.741,125.641 109.575,125.641 110.5,124.5C 111.167,123.167 111.833,121.833 112.5,120.5C 113.5,123.167 114.5,123.167 115.5,120.5C 114.821,117.641 113.488,115.141 111.5,113C 111.833,112.5 112.167,112 112.5,111.5C 113.5,112.167 114.5,112.833 115.5,113.5C 115.833,113.167 116.167,112.833 116.5,112.5C 114.995,111.158 114.328,109.492 114.5,107.5C 112.179,107.229 110.179,107.896 108.5,109.5C 106.889,108.68 106.222,107.346 106.5,105.5C 110.26,104.736 112.26,102.403 112.5,98.5C 109.805,90.3855 106.805,82.3855 103.5,74.5C 104.117,74.6107 104.617,74.944 105,75.5C 105.442,73.3215 106.442,72.6548 108,73.5C 108.87,77.8244 109.703,82.1577 110.5,86.5C 111.474,84.2573 111.808,81.924 111.5,79.5C 114.558,79.3743 114.891,77.8743 112.5,75C 114.179,72.4355 114.846,69.6021 114.5,66.5C 109.88,65.4238 108.547,62.5904 110.5,58C 108.861,54.6977 108.194,51.1977 108.5,47.5 Z"/></g>
<g><path style="opacity:1" fill="#dafcfd" d="M 181.5,74.5 C 183.213,75.6354 183.88,77.302 183.5,79.5C 184.5,79.5 185.5,79.5 186.5,79.5C 185.838,83.4659 185.505,87.4659 185.5,91.5C 183.857,86.02 182.524,80.3533 181.5,74.5 Z"/></g>
<g><path style="opacity:1" fill="#2dbbaa" d="M 141.5,75.5 C 138.673,84.4747 135.34,93.3081 131.5,102C 132.148,103.44 132.481,104.94 132.5,106.5C 131.504,106.414 130.671,106.748 130,107.5C 129.781,108.938 129.281,110.271 128.5,111.5C 127.335,103.855 127.169,96.1883 128,88.5C 128.848,85.5851 130.348,83.0851 132.5,81C 131.833,80 131.167,79 130.5,78C 131.901,72.192 132.734,66.3587 133,60.5C 132.451,62.7596 131.284,64.4262 129.5,65.5C 132.747,55.3996 136.747,45.7329 141.5,36.5C 142.117,36.3893 142.617,36.056 143,35.5C 143.497,38.146 143.664,40.8127 143.5,43.5C 142.5,43.5 141.5,43.5 140.5,43.5C 138.911,49.4566 139.244,55.2899 141.5,61C 141.167,61.8333 140.833,62.6667 140.5,63.5C 139.777,60.9302 138.61,58.5968 137,56.5C 135.097,58.441 134.264,60.7743 134.5,63.5C 135.5,63.5 136.5,63.5 137.5,63.5C 137.187,66.2469 137.52,68.9135 138.5,71.5C 139.478,71.0233 140.311,70.3567 141,69.5C 141.495,71.4727 141.662,73.4727 141.5,75.5 Z"/></g>
<g><path style="opacity:1" fill="#ddfde5" d="M 63.5,79.5 C 62.2271,81.7128 61.2271,84.0462 60.5,86.5C 58.1457,87.4935 57.1457,86.4935 57.5,83.5C 59.5,82.1667 61.5,80.8333 63.5,79.5 Z"/></g>
<g><path style="opacity:1" fill="#0aadd8" d="M 179.5,79.5 C 180.693,79.9704 181.36,80.9704 181.5,82.5C 182.162,85.4682 182.495,88.4682 182.5,91.5C 182.666,95.8461 182.499,100.179 182,104.5C 180.984,105.634 180.317,105.301 180,103.5C 179.894,96.3932 179.061,89.3932 177.5,82.5C 177.64,80.9704 178.307,79.9704 179.5,79.5 Z"/></g>
<g><path style="opacity:1" fill="#94d284" d="M 44.5,81.5 C 45.7978,82.1157 46.7978,82.1157 47.5,81.5C 49.2726,82.3143 49.7726,83.6476 49,85.5C 47.8904,83.9632 46.3904,83.2965 44.5,83.5C 40.2648,82.564 35.9315,82.2307 31.5,82.5C 31.5,83.5 31.5,84.5 31.5,85.5C 30.448,85.3505 29.448,85.5172 28.5,86C 25.871,89.4097 23.2043,92.5764 20.5,95.5C 20.8923,93.8211 21.3923,92.1545 22,90.5C 26.7343,80.9708 34.2343,77.9708 44.5,81.5 Z"/></g>
<g><path style="opacity:1" fill="#d5f4cd" d="M 36.5,92.5 C 38.0764,93.1429 39.4097,94.1429 40.5,95.5C 37.5,95.5 34.5,95.5 31.5,95.5C 31.5,94.8333 31.5,94.1667 31.5,93.5C 33.2161,93.3713 34.8828,93.038 36.5,92.5 Z"/></g>
<g><path style="opacity:1" fill="#8ed473" d="M 15.5,81.5 C 15.0836,91.4966 14.7502,101.497 14.5,111.5C 14.1667,111.5 13.8333,111.5 13.5,111.5C 12.3448,104.345 12.1782,97.0118 13,89.5C 13.2794,86.5432 14.1127,83.8766 15.5,81.5 Z"/></g>
<g><path style="opacity:1" fill="#f7fcf5" d="M 31.5,95.5 C 34.5,95.5 37.5,95.5 40.5,95.5C 43.9528,96.7908 46.2861,99.2908 47.5,103C 44.9842,106.015 42.3175,108.848 39.5,111.5C 36.4678,114.515 32.8012,116.182 28.5,116.5C 28.3347,112.818 28.5014,109.152 29,105.5C 30.4613,102.321 31.2946,98.9881 31.5,95.5 Z"/></g>
<g><path style="opacity:1" fill="#63cf63" d="M 42.5,86.5 C 42.3691,87.3764 42.7025,88.0431 43.5,88.5C 45.7938,89.7057 48.1272,90.7057 50.5,91.5C 50.2322,93.099 50.5655,94.4324 51.5,95.5C 51.1164,97.2926 49.9497,98.2926 48,98.5C 45.0991,97.5636 44.9324,96.397 47.5,95C 43.6495,94.5856 39.9828,93.7523 36.5,92.5C 34.8828,93.038 33.2161,93.3713 31.5,93.5C 33.1484,91.5441 33.8151,89.2108 33.5,86.5C 36.5,86.5 39.5,86.5 42.5,86.5 Z"/></g>
<g><path style="opacity:1" fill="#5dca72" d="M 35.5,63.5 C 37.8568,63.3367 40.1902,63.5034 42.5,64C 43.7893,65.8022 45.4559,66.9688 47.5,67.5C 47.3505,68.552 47.5172,69.552 48,70.5C 51.6758,74.5427 54.8425,78.876 57.5,83.5C 57.1457,86.4935 58.1457,87.4935 60.5,86.5C 61.5,86.5 62.5,86.5 63.5,86.5C 63.8897,89.4658 63.223,92.1324 61.5,94.5C 62.6888,95.4287 64.0222,95.762 65.5,95.5C 65.9949,93.1761 65.9949,91.0094 65.5,89C 66.1299,84.6308 67.9632,83.7974 71,86.5C 71.498,89.4816 71.6646,92.4816 71.5,95.5C 69.9519,95.8212 69.2852,96.8212 69.5,98.5C 67.3652,98.147 66.0319,98.9803 65.5,101C 66.0779,102.811 66.5779,104.645 67,106.5C 69.2677,107.76 71.4344,109.094 73.5,110.5C 73.0688,111.293 72.7355,112.127 72.5,113C 74.2254,115.886 74.8921,119.052 74.5,122.5C 71.1041,120.704 67.4374,119.704 63.5,119.5C 62.6211,116.618 60.9544,114.285 58.5,112.5C 59.1437,105.876 58.3103,99.543 56,93.5C 54.951,95.1066 53.451,95.7733 51.5,95.5C 50.5655,94.4324 50.2322,93.099 50.5,91.5C 48.1272,90.7057 45.7938,89.7057 43.5,88.5C 42.7025,88.0431 42.3691,87.3764 42.5,86.5C 43.9063,86.0269 44.573,85.0269 44.5,83.5C 46.3904,83.2965 47.8904,83.9632 49,85.5C 49.7726,83.6476 49.2726,82.3143 47.5,81.5C 46.6167,78.2957 44.9501,75.6291 42.5,73.5C 41.6935,72.2719 40.6935,71.2719 39.5,70.5C 37.22,68.7773 34.5533,68.1107 31.5,68.5C 33.5554,67.4412 34.8888,65.7746 35.5,63.5 Z"/></g>
<g><path style="opacity:1" fill="#f8f9fc" d="M 106.5,103.5 C 106.167,103.5 105.833,103.5 105.5,103.5C 105.167,100.833 104.833,98.1667 104.5,95.5C 105.078,82.528 106.911,82.528 110,95.5C 111.218,99.3295 110.051,101.996 106.5,103.5 Z"/></g>
<g><path style="opacity:1" fill="#63cd6b" d="M 36.5,92.5 C 39.9828,93.7523 43.6495,94.5856 47.5,95C 44.9324,96.397 45.0991,97.5636 48,98.5C 49.9497,98.2926 51.1164,97.2926 51.5,95.5C 53.451,95.7733 54.951,95.1066 56,93.5C 58.3103,99.543 59.1437,105.876 58.5,112.5C 57.1667,112.5 55.8333,112.5 54.5,112.5C 54.4048,115.272 53.0715,117.272 50.5,118.5C 49.6143,119.325 49.281,120.325 49.5,121.5C 46.931,124.728 43.5977,126.728 39.5,127.5C 39.5,126.167 39.5,124.833 39.5,123.5C 36.383,123.642 33.883,124.976 32,127.5C 31.5045,125.527 31.3379,123.527 31.5,121.5C 33.6807,121.716 35.3474,120.883 36.5,119C 35.4734,118.487 34.4734,117.987 33.5,117.5C 36.7821,116.846 38.7821,114.846 39.5,111.5C 42.3175,108.848 44.9842,106.015 47.5,103C 46.2861,99.2908 43.9528,96.7908 40.5,95.5C 39.4097,94.1429 38.0764,93.1429 36.5,92.5 Z"/></g>
<g><path style="opacity:1" fill="#0eb2cc" d="M 179.5,79.5 C 178.307,79.9704 177.64,80.9704 177.5,82.5C 179.061,89.3932 179.894,96.3932 180,103.5C 180.317,105.301 180.984,105.634 182,104.5C 182.499,100.179 182.666,95.8461 182.5,91.5C 183.173,96.4617 184.173,101.462 185.5,106.5C 184.504,106.414 183.671,106.748 183,107.5C 181.671,114.092 181.171,120.759 181.5,127.5C 180.5,127.5 179.5,127.5 178.5,127.5C 178.22,134.425 178.886,141.258 180.5,148C 180.425,151.143 179.759,154.143 178.5,157C 178.956,159.147 179.289,161.314 179.5,163.5C 178.231,167.382 177.565,171.382 177.5,175.5C 177.533,179.869 177.2,184.202 176.5,188.5C 175.728,189.694 174.728,190.694 173.5,191.5C 175.237,183.271 176.237,174.938 176.5,166.5C 174.284,166.725 172.617,165.892 171.5,164C 173.11,157.187 174.777,150.353 176.5,143.5C 177.833,138.167 177.833,132.833 176.5,127.5C 175.457,134.137 174.624,140.804 174,147.5C 173.617,148.056 173.117,148.389 172.5,148.5C 172.5,146.833 172.5,145.167 172.5,143.5C 173.18,135.098 173.846,126.598 174.5,118C 173.773,116.601 173.273,115.101 173,113.5C 172.346,114.696 171.846,114.696 171.5,113.5C 171.782,111.013 171.782,108.347 171.5,105.5C 172.434,104.432 172.768,103.099 172.5,101.5C 173.638,98.6965 173.805,95.6965 173,92.5C 171.73,87.1902 170.564,81.8569 169.5,76.5C 170.896,72.6763 172.23,68.843 173.5,65C 171.875,62.729 172.209,60.8957 174.5,59.5C 175.172,64.1391 175.338,68.8058 175,73.5C 175.333,71.8333 175.667,70.1667 176,68.5C 176.333,68.8333 176.667,69.1667 177,69.5C 177.307,73.0468 178.14,76.3801 179.5,79.5 Z"/></g>
<g><path style="opacity:1" fill="#effee6" d="M 15.5,79.5 C 15.5,80.1667 15.5,80.8333 15.5,81.5C 14.1127,83.8766 13.2794,86.5432 13,89.5C 12.1782,97.0118 12.3448,104.345 13.5,111.5C 13.6459,115.387 14.3126,119.054 15.5,122.5C 15.5,124.167 15.5,125.833 15.5,127.5C 14.5,127.5 13.5,127.5 12.5,127.5C 11.2234,111.507 11.2234,95.5065 12.5,79.5C 13.5,79.5 14.5,79.5 15.5,79.5 Z"/></g>
<g><path style="opacity:1" fill="#f8fcfb" d="M 159.5,95.5 C 163.453,100.139 166.119,105.472 167.5,111.5C 169.483,122.083 170.816,132.75 171.5,143.5C 170.5,143.5 169.5,143.5 168.5,143.5C 168.715,145.774 169.382,147.941 170.5,150C 169.678,152.472 169.011,154.972 168.5,157.5C 168.516,159.484 167.516,160.484 165.5,160.5C 164.062,160.281 162.729,159.781 161.5,159C 157.336,153.776 153.336,148.609 149.5,143.5C 146.904,137.141 143.904,130.974 140.5,125C 144.983,113.84 151.317,104.006 159.5,95.5 Z"/></g>
<g><path style="opacity:1" fill="#74d549" d="M 18.5,95.5 C 18.5,103.833 18.5,112.167 18.5,120.5C 17.5,120.5 16.5,120.5 15.5,120.5C 15.81,117.287 15.4767,114.287 14.5,111.5C 14.7502,101.497 15.0836,91.4966 15.5,81.5C 15.5,80.8333 15.5,80.1667 15.5,79.5C 17.0257,78.8953 18.0257,77.7286 18.5,76C 19.448,75.5172 20.448,75.3505 21.5,75.5C 20.8509,79.9512 19.6842,84.2845 18,88.5C 17.2042,91.0385 17.3709,93.3718 18.5,95.5 Z"/></g>
<g><path style="opacity:1" fill="#91c27e" d="M 13.5,111.5 C 13.8333,111.5 14.1667,111.5 14.5,111.5C 15.4767,114.287 15.81,117.287 15.5,120.5C 15.5,121.167 15.5,121.833 15.5,122.5C 14.3126,119.054 13.6459,115.387 13.5,111.5 Z"/></g>
<g><path style="opacity:1" fill="#89d07c" d="M 31.5,95.5 C 31.2946,98.9881 30.4613,102.321 29,105.5C 28.5014,109.152 28.3347,112.818 28.5,116.5C 32.8012,116.182 36.4678,114.515 39.5,111.5C 38.7821,114.846 36.7821,116.846 33.5,117.5C 31.795,118.535 30.1284,118.535 28.5,117.5C 27.1806,111.126 27.3473,104.792 29,98.5C 29.2355,96.8807 30.0689,95.8807 31.5,95.5 Z"/></g>
<g><path style="opacity:1" fill="#2eb5c3" d="M 171.5,105.5 C 171.782,108.347 171.782,111.013 171.5,113.5C 171.846,114.696 172.346,114.696 173,113.5C 173.273,115.101 173.773,116.601 174.5,118C 173.846,126.598 173.18,135.098 172.5,143.5C 173.422,132.272 171.755,121.605 167.5,111.5C 166.119,105.472 163.453,100.139 159.5,95.5C 156.384,95.2971 154.384,94.2971 153.5,92.5C 153.611,91.8826 153.944,91.3826 154.5,91C 157.964,90.1834 161.298,90.5167 164.5,92C 168.063,95.8481 170.396,100.348 171.5,105.5 Z"/></g>
<g><path style="opacity:1" fill="#70c67c" d="M 58.5,112.5 C 60.9544,114.285 62.6211,116.618 63.5,119.5C 61.5163,118.017 59.683,116.351 58,114.5C 55.6836,115.65 53.8502,117.317 52.5,119.5C 51.5,120.167 50.5,120.833 49.5,121.5C 49.281,120.325 49.6143,119.325 50.5,118.5C 53.0715,117.272 54.4048,115.272 54.5,112.5C 55.8333,112.5 57.1667,112.5 58.5,112.5 Z"/></g>
<g><path style="opacity:1" fill="#38c295" d="M 105.5,103.5 C 105.833,103.5 106.167,103.5 106.5,103.5C 106.5,104.167 106.5,104.833 106.5,105.5C 106.222,107.346 106.889,108.68 108.5,109.5C 110.179,107.896 112.179,107.229 114.5,107.5C 114.328,109.492 114.995,111.158 116.5,112.5C 116.167,112.833 115.833,113.167 115.5,113.5C 114.5,112.833 113.5,112.167 112.5,111.5C 112.167,112 111.833,112.5 111.5,113C 113.488,115.141 114.821,117.641 115.5,120.5C 114.5,123.167 113.5,123.167 112.5,120.5C 111.833,121.833 111.167,123.167 110.5,124.5C 109.575,125.641 108.741,125.641 108,124.5C 106.991,126.025 106.491,127.692 106.5,129.5C 104.5,129.833 102.5,130.167 100.5,130.5C 99.0813,129.549 97.4147,129.216 95.5,129.5C 95.5,125.5 95.5,121.5 95.5,117.5C 98.0588,117.61 100.392,116.944 102.5,115.5C 102.585,111.61 102.752,107.61 103,103.5C 103.77,102.402 104.603,102.402 105.5,103.5 Z"/></g>
<g><path style="opacity:1" fill="#6fd354" d="M 44.5,83.5 C 44.573,85.0269 43.9063,86.0269 42.5,86.5C 39.5,86.5 36.5,86.5 33.5,86.5C 33.8151,89.2108 33.1484,91.5441 31.5,93.5C 31.5,94.1667 31.5,94.8333 31.5,95.5C 30.0689,95.8807 29.2355,96.8807 29,98.5C 27.3473,104.792 27.1806,111.126 28.5,117.5C 30.1284,118.535 31.795,118.535 33.5,117.5C 34.4734,117.987 35.4734,118.487 36.5,119C 35.3474,120.883 33.6807,121.716 31.5,121.5C 31.3379,123.527 31.5045,125.527 32,127.5C 33.883,124.976 36.383,123.642 39.5,123.5C 39.5,124.833 39.5,126.167 39.5,127.5C 38.8333,127.5 38.1667,127.5 37.5,127.5C 32.6204,130.552 27.287,131.719 21.5,131C 20.4677,129.373 19.1344,128.207 17.5,127.5C 17.1667,127.5 16.8333,127.5 16.5,127.5C 16.1667,127.5 15.8333,127.5 15.5,127.5C 15.5,125.833 15.5,124.167 15.5,122.5C 15.5,121.833 15.5,121.167 15.5,120.5C 16.5,120.5 17.5,120.5 18.5,120.5C 18.5,112.167 18.5,103.833 18.5,95.5C 18.8333,95.5 19.1667,95.5 19.5,95.5C 19.8333,95.5 20.1667,95.5 20.5,95.5C 23.2043,92.5764 25.871,89.4097 28.5,86C 29.448,85.5172 30.448,85.3505 31.5,85.5C 31.5,84.5 31.5,83.5 31.5,82.5C 35.9315,82.2307 40.2648,82.564 44.5,83.5 Z"/></g>
<g><path style="opacity:1" fill="#53c77e" d="M 71.5,95.5 C 71.8333,95.5 72.1667,95.5 72.5,95.5C 70.7849,97.9206 69.9516,100.587 70,103.5C 72.7026,106.538 75.7026,109.205 79,111.5C 79.4643,112.094 79.631,112.761 79.5,113.5C 79.8212,115.048 80.8212,115.715 82.5,115.5C 82.6427,117.262 82.3094,118.929 81.5,120.5C 84.3418,121.004 85.6751,122.671 85.5,125.5C 83.3453,125.372 81.3453,125.872 79.5,127C 83.1882,128.381 82.8548,129.548 78.5,130.5C 77.3049,128.703 75.6382,127.703 73.5,127.5C 69.226,125.881 65.8926,123.214 63.5,119.5C 67.4374,119.704 71.1041,120.704 74.5,122.5C 74.8921,119.052 74.2254,115.886 72.5,113C 72.7355,112.127 73.0688,111.293 73.5,110.5C 71.4344,109.094 69.2677,107.76 67,106.5C 66.5779,104.645 66.0779,102.811 65.5,101C 66.0319,98.9803 67.3652,98.147 69.5,98.5C 69.2852,96.8212 69.9519,95.8212 71.5,95.5 Z"/></g>
<g><path style="opacity:1" fill="#2fbda4" d="M 132.5,106.5 C 133.167,106.5 133.5,106.833 133.5,107.5C 132.848,108.449 132.514,109.615 132.5,111C 134.235,116.283 134.902,121.783 134.5,127.5C 133.167,127.5 131.833,127.5 130.5,127.5C 130.579,128.93 130.246,130.264 129.5,131.5C 130.484,133.48 131.817,135.147 133.5,136.5C 133,137.5 132.5,138.5 132,139.5C 130.196,137.019 128.696,137.019 127.5,139.5C 126.292,142.044 124.292,143.378 121.5,143.5C 121.5,142.5 121.5,141.5 121.5,140.5C 119.62,140.771 118.287,140.104 117.5,138.5C 120.97,137.712 123.637,135.712 125.5,132.5C 123.983,128.09 122.316,123.757 120.5,119.5C 121.061,118.092 121.395,116.592 121.5,115C 120.605,112.18 119.771,109.346 119,106.5C 118.075,105.953 117.242,105.287 116.5,104.5C 116.846,103.304 117.346,103.304 118,104.5C 120.437,100.481 119.937,96.9814 116.5,94C 118,93.1667 119.167,92 120,90.5C 120.499,86.1794 120.666,81.8461 120.5,77.5C 121.684,79.4099 123.184,79.7432 125,78.5C 125.874,74.7124 127.041,71.0457 128.5,67.5C 129.338,67.1583 129.672,66.4916 129.5,65.5C 131.284,64.4262 132.451,62.7596 133,60.5C 132.734,66.3587 131.901,72.192 130.5,78C 131.167,79 131.833,80 132.5,81C 130.348,83.0851 128.848,85.5851 128,88.5C 127.169,96.1883 127.335,103.855 128.5,111.5C 129.281,110.271 129.781,108.938 130,107.5C 130.671,106.748 131.504,106.414 132.5,106.5 Z"/></g>
<g><path style="opacity:1" fill="#e7fbe6" d="M 52.5,119.5 C 52.6495,120.552 52.4828,121.552 52,122.5C 46.178,128.152 39.3447,131.819 31.5,133.5C 32.347,132.034 33.6803,131.2 35.5,131C 36.8228,130.184 37.4894,129.017 37.5,127.5C 38.1667,127.5 38.8333,127.5 39.5,127.5C 43.5977,126.728 46.931,124.728 49.5,121.5C 50.5,120.833 51.5,120.167 52.5,119.5 Z"/></g>
<g><path style="opacity:1" fill="#2cb8ae" d="M 153.5,92.5 C 154.384,94.2971 156.384,95.2971 159.5,95.5C 151.317,104.006 144.983,113.84 140.5,125C 143.904,130.974 146.904,137.141 149.5,143.5C 148.562,145.326 147.562,147.159 146.5,149C 147.86,151.716 149.693,154.216 152,156.5C 152.483,157.448 152.649,158.448 152.5,159.5C 153.5,159.5 154.5,159.5 155.5,159.5C 155.5,160.833 155.5,162.167 155.5,163.5C 154.167,163.5 152.833,163.5 151.5,163.5C 151.5,165.5 151.5,167.5 151.5,169.5C 152.873,169.657 154.207,169.49 155.5,169C 156.05,167.155 157.05,165.655 158.5,164.5C 158.833,165.333 159.167,166.167 159.5,167C 157.512,169.478 156.512,172.312 156.5,175.5C 152.202,173.005 148.202,170.005 144.5,166.5C 138.999,158.169 133.999,149.503 129.5,140.5C 129.043,139.702 128.376,139.369 127.5,139.5C 128.696,137.019 130.196,137.019 132,139.5C 132.5,138.5 133,137.5 133.5,136.5C 131.817,135.147 130.484,133.48 129.5,131.5C 130.246,130.264 130.579,128.93 130.5,127.5C 131.833,127.5 133.167,127.5 134.5,127.5C 134.902,121.783 134.235,116.283 132.5,111C 132.514,109.615 132.848,108.449 133.5,107.5C 134.654,110.479 135.82,113.479 137,116.5C 139.573,112.358 141.906,108.024 144,103.5C 146.73,99.3162 149.896,95.6496 153.5,92.5 Z"/></g>
<g><path style="opacity:1" fill="#13aed2" d="M 185.5,106.5 C 185.628,113.901 186.628,120.901 188.5,127.5C 188.752,136.213 188.252,144.88 187,153.5C 184.804,160.887 182.971,168.221 181.5,175.5C 180.167,175.5 178.833,175.5 177.5,175.5C 177.565,171.382 178.231,167.382 179.5,163.5C 179.289,161.314 178.956,159.147 178.5,157C 179.759,154.143 180.425,151.143 180.5,148C 178.886,141.258 178.22,134.425 178.5,127.5C 179.5,127.5 180.5,127.5 181.5,127.5C 181.171,120.759 181.671,114.092 183,107.5C 183.671,106.748 184.504,106.414 185.5,106.5 Z"/></g>
<g><path style="opacity:1" fill="#ecfaf8" d="M 120.5,119.5 C 122.316,123.757 123.983,128.09 125.5,132.5C 123.637,135.712 120.97,137.712 117.5,138.5C 116.206,134.853 114.873,131.187 113.5,127.5C 115.223,124.342 117.556,121.675 120.5,119.5 Z"/></g>
<g><path style="opacity:1" fill="#48c387" d="M 79.5,113.5 C 82.2622,114.38 84.9289,115.546 87.5,117C 90.146,117.497 92.8127,117.664 95.5,117.5C 95.5,121.5 95.5,125.5 95.5,129.5C 97.4147,129.216 99.0813,129.549 100.5,130.5C 100.038,131.88 99.0377,132.547 97.5,132.5C 96.1667,131.833 94.8333,131.167 93.5,130.5C 90.7963,131.572 88.1296,132.572 85.5,133.5C 87.3414,138.006 90.6748,140.673 95.5,141.5C 93.6976,142.458 91.6976,143.125 89.5,143.5C 82.5652,139.899 77.2319,134.565 73.5,127.5C 75.6382,127.703 77.3049,128.703 78.5,130.5C 82.8548,129.548 83.1882,128.381 79.5,127C 81.3453,125.872 83.3453,125.372 85.5,125.5C 85.6751,122.671 84.3418,121.004 81.5,120.5C 82.3094,118.929 82.6427,117.262 82.5,115.5C 80.8212,115.715 79.8212,115.048 79.5,113.5 Z"/></g>
<g><path style="opacity:1" fill="#7dc46b" d="M 17.5,127.5 C 19.1344,128.207 20.4677,129.373 21.5,131C 27.287,131.719 32.6204,130.552 37.5,127.5C 37.4894,129.017 36.8228,130.184 35.5,131C 33.6803,131.2 32.347,132.034 31.5,133.5C 30.8333,133.5 30.1667,133.5 29.5,133.5C 23.5782,134.968 19.5782,132.968 17.5,127.5 Z"/></g>
<g><path style="opacity:1" fill="#beeaaf" d="M 16.5,127.5 C 16.8333,127.5 17.1667,127.5 17.5,127.5C 19.5782,132.968 23.5782,134.968 29.5,133.5C 22.8804,136.296 18.5471,134.296 16.5,127.5 Z"/></g>
<g><path style="opacity:1" fill="#dffbfb" d="M 167.5,111.5 C 171.755,121.605 173.422,132.272 172.5,143.5C 172.5,145.167 172.5,146.833 172.5,148.5C 171.958,151.912 170.625,154.912 168.5,157.5C 169.011,154.972 169.678,152.472 170.5,150C 169.382,147.941 168.715,145.774 168.5,143.5C 169.5,143.5 170.5,143.5 171.5,143.5C 170.816,132.75 169.483,122.083 167.5,111.5 Z"/></g>
<g><path style="opacity:1" fill="#f3f9f8" d="M 97.5,141.5 C 96.8333,141.5 96.1667,141.5 95.5,141.5C 92.7201,139.592 90.0534,137.425 87.5,135C 90.8168,134.502 94.1501,134.335 97.5,134.5C 98.0478,136.532 99.3812,137.532 101.5,137.5C 100.842,133.323 102.508,131.823 106.5,133C 107.523,135.449 108.023,137.949 108,140.5C 104.606,141.456 101.106,141.789 97.5,141.5 Z"/></g>
<g><path style="opacity:1" fill="#d7f6ee" d="M 104.5,143.5 C 102.473,143.662 100.473,143.495 98.5,143C 97.944,142.617 97.6107,142.117 97.5,141.5C 101.106,141.789 104.606,141.456 108,140.5C 108.023,137.949 107.523,135.449 106.5,133C 102.508,131.823 100.842,133.323 101.5,137.5C 99.3812,137.532 98.0478,136.532 97.5,134.5C 105.488,128.874 110.155,130.874 111.5,140.5C 109.974,143.092 107.641,144.092 104.5,143.5 Z"/></g>
<g><path style="opacity:1" fill="#3ec291" d="M 95.5,141.5 C 96.1667,141.5 96.8333,141.5 97.5,141.5C 97.6107,142.117 97.944,142.617 98.5,143C 100.473,143.495 102.473,143.662 104.5,143.5C 105.29,144.794 106.29,145.961 107.5,147C 103.514,147.499 99.5138,147.666 95.5,147.5C 93.1475,146.66 91.1475,145.326 89.5,143.5C 91.6976,143.125 93.6976,142.458 95.5,141.5 Z"/></g>
<g><path style="opacity:1" fill="#f4fbfb" d="M 127.5,139.5 C 128.376,139.369 129.043,139.702 129.5,140.5C 133.999,149.503 138.999,158.169 144.5,166.5C 148.202,170.005 152.202,173.005 156.5,175.5C 161.772,179.051 167.272,179.384 173,176.5C 173.5,176.833 174,177.167 174.5,177.5C 172.319,181.873 169.653,185.873 166.5,189.5C 156.349,192.178 147.849,189.511 141,181.5C 136.718,176.718 132.885,171.718 129.5,166.5C 126.702,160.23 123.868,153.896 121,147.5C 120.421,146.072 120.588,144.738 121.5,143.5C 124.292,143.378 126.292,142.044 127.5,139.5 Z"/></g>
<g><path style="opacity:1" fill="#20b3c2" d="M 173.5,191.5 C 171.342,193.993 168.676,195.66 165.5,196.5C 164.306,195.223 162.64,194.556 160.5,194.5C 157.988,194.797 155.655,195.463 153.5,196.5C 150.351,196.585 147.684,195.585 145.5,193.5C 152.761,192.377 159.761,191.044 166.5,189.5C 169.653,185.873 172.319,181.873 174.5,177.5C 174,177.167 173.5,176.833 173,176.5C 167.272,179.384 161.772,179.051 156.5,175.5C 156.512,172.312 157.512,169.478 159.5,167C 159.167,166.167 158.833,165.333 158.5,164.5C 157.05,165.655 156.05,167.155 155.5,169C 154.207,169.49 152.873,169.657 151.5,169.5C 151.5,167.5 151.5,165.5 151.5,163.5C 152.833,163.5 154.167,163.5 155.5,163.5C 155.5,162.167 155.5,160.833 155.5,159.5C 154.5,159.5 153.5,159.5 152.5,159.5C 152.649,158.448 152.483,157.448 152,156.5C 149.693,154.216 147.86,151.716 146.5,149C 147.562,147.159 148.562,145.326 149.5,143.5C 153.336,148.609 157.336,153.776 161.5,159C 162.729,159.781 164.062,160.281 165.5,160.5C 167.516,160.484 168.516,159.484 168.5,157.5C 170.625,154.912 171.958,151.912 172.5,148.5C 173.117,148.389 173.617,148.056 174,147.5C 174.624,140.804 175.457,134.137 176.5,127.5C 177.833,132.833 177.833,138.167 176.5,143.5C 174.777,150.353 173.11,157.187 171.5,164C 172.617,165.892 174.284,166.725 176.5,166.5C 176.237,174.938 175.237,183.271 173.5,191.5 Z"/></g>
<g><path style="opacity:1" fill="#35b9aa" d="M 129.5,166.5 C 132.885,171.718 136.718,176.718 141,181.5C 147.849,189.511 156.349,192.178 166.5,189.5C 159.761,191.044 152.761,192.377 145.5,193.5C 135.986,187.316 128.986,178.983 124.5,168.5C 126.836,170.804 128.503,170.137 129.5,166.5 Z"/></g>
<g><path style="opacity:1" fill="#2eb7c3" d="M 177.5,175.5 C 178.833,175.5 180.167,175.5 181.5,175.5C 180.401,180.144 178.734,184.478 176.5,188.5C 177.2,184.202 177.533,179.869 177.5,175.5 Z"/></g>
<g><path style="opacity:1" fill="#2fb1ab" d="M 165.5,196.5 C 161.367,197.726 157.367,197.726 153.5,196.5C 155.655,195.463 157.988,194.797 160.5,194.5C 162.64,194.556 164.306,195.223 165.5,196.5 Z"/></g>
</svg>
