<svg xmlns="http://www.w3.org/2000/svg" width="131" height="130" style="shape-rendering:geometricPrecision;text-rendering:geometricPrecision;image-rendering:optimizeQuality;fill-rule:evenodd;clip-rule:evenodd"><path style="opacity:.955" fill="#272122" d="M14.5 96.5c8.93 13.983 21.597 22.817 38 26.5 4.655.499 9.322.666 14 .5 4.51.229 8.843-.438 13-2 6.53-1.601 12.53-4.267 18-8a55.546 55.546 0 0 0 13-12c4.075-5.137 7.408-10.804 10-17 3.949-13.136 3.949-26.136 0-39a5.727 5.727 0 0 0-1-3c-.826-2.985-2.159-5.651-4-8-4.212-8.215-10.212-14.882-18-20a86.638 86.638 0 0 0-11-6 63.22 63.22 0 0 0-17-4c-5.858-.322-11.525.011-17 1-2.652-.09-4.986.576-7 2-4.751 1.21-9.084 3.21-13 6C7.86 28.592-.306 49.925 8 77.5c4.118 7.29 10.285 11.623 18.5 13 6.724 1.448 13.39.782 20-2 12.865-9.092 18.032-21.425 15.5-37-3.83-2.265-7.997-3.432-12.5-3.5a3.646 3.646 0 0 1-1-1.5c1.926-1.744 4.26-2.744 7-3 3.175-.34 5.342-2.007 6.5-5 .357-4.01.19-8.01-.5-12 1.175-.219 2.175.114 3 1 1.108 2.56 2.44 4.892 4 7 1.553 2.754 3.886 3.587 7 2.5 3.694-2.178 7.36-4.345 11-6.5a45.793 45.793 0 0 1 12-1c3.592.198 6.926 1.198 10 3a26.006 26.006 0 0 1 5 7 29.23 29.23 0 0 1-1 9c-1.982 2.637-4.648 3.97-8 4v-4c1.322.17 2.489-.163 3.5-1 1.85-3.037 1.85-6.037 0-9-.671-.752-1.504-1.086-2.5-1-.953-2.11-2.619-3.277-5-3.5-7.879-1.818-14.379.348-19.5 6.5a10.1 10.1 0 0 0-1.5 6 10.123 10.123 0 0 0 1.5 4 76.251 76.251 0 0 1 6.5 6c-.387 1.22-1.22 1.886-2.5 2a15.416 15.416 0 0 0-4.5-2c-1.43-1.038-3.097-1.704-5-2-2.763.244-4.93 1.577-6.5 4a90.124 90.124 0 0 1-11 26C44.578 96.874 29.745 98.708 13.5 90 3.976 82.283-.357 72.283.5 60c1.221-22.209 11.221-39.209 30-51 18.292-9.333 37.292-11 57-5 28.84 13.197 42.34 35.697 40.5 67.5-4.236 26.23-18.736 44.064-43.5 53.5-31.608 8.024-56.774-1.143-75.5-27.5-.494-1.634-.66-3.3-.5-5 3.022-.158 5.022 1.175 6 4zm94-64a54.299 54.299 0 0 1 7 2c1.841 2.349 3.174 5.015 4 8-1.716-1.525-3.716-2.525-6-3a26.006 26.006 0 0 0-5-7zm-3 5c-3.542-.313-6.875.02-10 1-6.116 1.058-11.45 3.724-16 8a10.1 10.1 0 0 1 1.5-6c5.121-6.152 11.621-8.318 19.5-6.5 2.381.223 4.047 1.39 5 3.5z"/><path style="opacity:.716" fill="#e86965" d="M52.5 5.5c5.475-.989 11.142-1.322 17-1 .327 10.18-.006 20.18-1 30-1.56-2.108-2.892-4.44-4-7-.825-.886-1.825-1.219-3-1 .69 3.99.857 7.99.5 12-1.158 2.993-3.325 4.66-6.5 5v-38h-3z"/><path style="opacity:.58" fill="#ed867c" d="M69.5 4.5a63.22 63.22 0 0 1 17 4v22c-3.64 2.155-7.306 4.322-11 6.5-3.114 1.087-5.447.254-7-2.5.994-9.82 1.327-19.82 1-30z"/><path style="opacity:.837" fill="#e65659" d="M52.5 5.5h3v38c-2.74.256-5.074 1.256-7 3 .21.586.543 1.086 1 1.5 4.503.068 8.67 1.235 12.5 3.5 2.532 15.575-2.635 27.908-15.5 37a1640.85 1640.85 0 0 0-1-81c2.014-1.424 4.348-2.09 7-2z"/><path style="opacity:.915" fill="#e5414d" d="M45.5 7.5a1640.85 1640.85 0 0 1 1 81c-6.61 2.782-13.276 3.448-20 2h7a1482.82 1482.82 0 0 0-1-77c3.916-2.79 8.249-4.79 13-6z"/><path style="opacity:.39" fill="#f0a69a" d="M86.5 8.5a86.638 86.638 0 0 1 11 6c-.663 2.141-.997 4.475-1 7 .12 2.941.787 5.608 2 8a45.793 45.793 0 0 0-12 1v-22z"/><path style="opacity:.204" fill="#f7cdc3" d="M97.5 14.5c7.788 5.118 13.788 11.785 18 20a54.299 54.299 0 0 0-7-2c-3.074-1.802-6.408-2.802-10-3-1.213-2.392-1.88-5.059-2-8 .003-2.525.337-4.859 1-7z"/><path style="opacity:.988" fill="#e32744" d="M32.5 13.5a1482.82 1482.82 0 0 1 1 77h-7c-8.215-1.377-14.382-5.71-18.5-13-8.306-27.575-.14-48.908 24.5-64z"/><path style="opacity:.369" fill="#afb1d6" d="M95.5 38.5c3.125-.98 6.458-1.313 10-1 .996-.086 1.829.248 2.5 1 1.85 2.963 1.85 5.963 0 9-1.011.837-2.178 1.17-3.5 1v4c3.352-.03 6.018-1.363 8-4v20c-3.062-5.184-7.729-7.184-14-6-.346-8.219-1.346-16.219-3-24z"/><path style="opacity:1" fill="#e8d70d" d="M65.5 37.5c2.83 2.478 6.162 3.478 10 3a23.843 23.843 0 0 0 1 9c-3.984.183-7.15 1.85-9.5 5-1.089-3.686-3.255-6.52-6.5-8.5 3.096-2.029 4.762-4.862 5-8.5z"/><path style="opacity:1" fill="#1a190a" d="M67.5 43.5c3-.333 4.333 1 4 4h-5c-.067-1.459.266-2.792 1-4z"/><path style="opacity:.098" fill="#e9e9f2" d="M120.5 45.5c3.949 12.864 3.949 25.864 0 39-1.333-13-1.333-26 0-39z"/><path style="opacity:.694" fill="#7378b5" d="M75.5 54.5c1.903.296 3.57.962 5 2-1.808 1.418-2.475 3.418-2 6a139.867 139.867 0 0 0-5 15c1.88.27 3.213-.396 4-2 1.984 14.964 2.65 30.297 2 46-4.157 1.562-8.49 2.229-13 2 .648-13.709-.019-27.042-2-40a759.014 759.014 0 0 0 11-29z"/><path style="opacity:1" fill="#262225" d="M78.5 62.5c1.644-.214 3.144.12 4.5 1a120.55 120.55 0 0 1 5.5 14c-2.49-.925-4.99-1.925-7.5-3-1.385.014-2.551.348-3.5 1-.787 1.604-2.12 2.27-4 2a139.867 139.867 0 0 1 5-15z"/><path style="opacity:1" fill="#2b2729" d="M98.5 62.5c6.271-1.184 10.938.816 14 6 .283.79.783 1.456 1.5 2 .497-2.646.664-5.313.5-8h4v16a8.435 8.435 0 0 1-4-.5 33.685 33.685 0 0 0-4-5.5 10.526 10.526 0 0 0-2.5-3 40.911 40.911 0 0 0-.5 9c-3.679.44-7.012-.227-10-2-2.638-5.64-3.971-5.307-4 1h-4v-15h4c-.16 1.7.007 3.366.5 5a31.444 31.444 0 0 0 4.5-5z"/><path style="opacity:.369" fill="#a6a8d0" d="M102.5 63.5c1.147 4.146 1.314 8.48.5 13a22.106 22.106 0 0 1-5.5-7c1.69-2.02 3.356-4.02 5-6z"/><path style="opacity:.624" fill="#7174a5" d="M80.5 67.5c2.96 2.771 2.626 3.771-1 3a5.576 5.576 0 0 0 1-3z"/><path style="opacity:.596" fill="#898cc1" d="M95.5 38.5c1.654 7.781 2.654 15.781 3 24a31.444 31.444 0 0 1-4.5 5c-.493-1.634-.66-3.3-.5-5h-4v15h4c.029-6.307 1.362-6.64 4-1a171.63 171.63 0 0 0 0 37c-5.47 3.733-11.47 6.399-18 8 .65-15.703-.016-31.036-2-46 .949-.652 2.115-.986 3.5-1 2.51 1.075 5.01 2.075 7.5 3a120.55 120.55 0 0 0-5.5-14c-1.356-.88-2.856-1.214-4.5-1-.475-2.582.192-4.582 2-6a15.416 15.416 0 0 1 4.5 2c1.28-.114 2.113-.78 2.5-2a76.251 76.251 0 0 0-6.5-6 10.123 10.123 0 0 1-1.5-4c4.55-4.276 9.884-6.942 16-8z"/><path style="opacity:.216" fill="#cecee7" d="M113.5 39.5c2.284.475 4.284 1.475 6 3 .61.891.943 1.891 1 3-1.333 13-1.333 26 0 39-2.592 6.196-5.925 11.863-10 17a105.651 105.651 0 0 1 0-29 33.685 33.685 0 0 1 4 5.5 8.435 8.435 0 0 0 4 .5v-16h-4a32.462 32.462 0 0 1-.5 8c-.717-.544-1.217-1.21-1.5-2v-20a29.23 29.23 0 0 0 1-9z"/><path style="opacity:.412" fill="#aaabd3" d="M110.5 72.5a105.651 105.651 0 0 0 0 29 55.546 55.546 0 0 1-13 12 171.63 171.63 0 0 1 0-37c2.988 1.773 6.321 2.44 10 2a40.911 40.911 0 0 1 .5-9 10.526 10.526 0 0 1 2.5 3z"/><path style="opacity:.877" fill="#5561a9" d="M64.5 83.5c1.981 12.958 2.648 26.291 2 40a98.433 98.433 0 0 1-14-.5c-16.403-3.683-29.07-12.517-38-26.5 14.982 6.168 29.315 5.001 43-3.5 2.953-2.752 5.286-5.918 7-9.5z"/></svg>