<?xml version="1.0" encoding="UTF-8"?>
<!DOCTYPE svg PUBLIC "-//W3C//DTD SVG 1.1//EN" "http://www.w3.org/Graphics/SVG/1.1/DTD/svg11.dtd">
<svg xmlns="http://www.w3.org/2000/svg" version="1.1" width="400px" height="130px" style="shape-rendering:geometricPrecision; text-rendering:geometricPrecision; image-rendering:optimizeQuality; fill-rule:evenodd; clip-rule:evenodd" xmlns:xlink="http://www.w3.org/1999/xlink">
<g><path style="opacity:0.853" fill="#272122" d="M 14.5,96.5 C 24.4215,112.306 38.7548,121.306 57.5,123.5C 60.8333,123.5 64.1667,123.5 67.5,123.5C 71.4578,123.749 75.1244,123.082 78.5,121.5C 84.7792,120.523 90.4459,118.19 95.5,114.5C 98.5331,112.984 101.2,110.984 103.5,108.5C 107.957,105.381 111.291,101.381 113.5,96.5C 118.536,90.083 121.702,82.7497 123,74.5C 123.667,67.5 123.667,60.5 123,53.5C 122.526,49.5783 121.359,45.9116 119.5,42.5C 118.674,39.5152 117.341,36.8485 115.5,34.5C 111.288,26.2846 105.288,19.6179 97.5,14.5C 94.4846,12.3256 91.1513,10.6589 87.5,9.5C 82.8536,7.08072 77.8536,5.41406 72.5,4.5C 68.5,4.5 64.5,4.5 60.5,4.5C 54.0469,4.28259 48.0469,5.61593 42.5,8.5C 38.8487,9.65893 35.5154,11.3256 32.5,13.5C 7.86035,28.592 -0.306316,49.9254 8,77.5C 12.118,84.7899 18.2847,89.1232 26.5,90.5C 32.7071,92.0562 38.7071,91.3895 44.5,88.5C 52.1548,85.6772 57.3214,80.3439 60,72.5C 62.4539,66.3627 63.4539,60.0294 63,53.5C 62.5,51.6667 61.3333,50.5 59.5,50C 56.2473,48.9635 52.914,48.2969 49.5,48C 49.0426,47.586 48.7093,47.086 48.5,46.5C 52.6604,44.7957 56.6604,42.7957 60.5,40.5C 61.9402,39.0539 62.6068,37.2206 62.5,35C 61.9695,32.1834 61.6361,29.35 61.5,26.5C 62.675,26.281 63.675,26.6143 64.5,27.5C 65.6667,29.8333 66.8333,32.1667 68,34.5C 68.8159,35.8228 69.9826,36.4894 71.5,36.5C 71.7352,37.0967 72.2352,37.4301 73,37.5C 77.8599,35.7937 82.3599,33.4604 86.5,30.5C 90.4338,29.6403 94.4338,29.307 98.5,29.5C 102.092,29.698 105.426,30.698 108.5,32.5C 110.555,34.5549 112.221,36.8883 113.5,39.5C 113.5,41.8333 113.5,44.1667 113.5,46.5C 111.691,50.2407 108.691,52.2407 104.5,52.5C 104.5,51.1667 104.5,49.8333 104.5,48.5C 105.822,48.67 106.989,48.3366 108,47.5C 109.85,44.4632 109.85,41.4632 108,38.5C 107.329,37.7476 106.496,37.4142 105.5,37.5C 104.547,35.39 102.881,34.2233 100.5,34C 92.6215,32.1817 86.1215,34.3483 81,40.5C 79.872,42.3453 79.372,44.3453 79.5,46.5C 79.7086,47.9217 80.2086,49.255 81,50.5C 83.3031,52.393 85.4698,54.393 87.5,56.5C 87.1131,57.7199 86.2798,58.3865 85,58.5C 83.5936,57.5862 82.0936,56.9195 80.5,56.5C 79.0697,55.4625 77.403,54.7959 75.5,54.5C 72.7374,54.7438 70.5707,56.0771 69,58.5C 66.6923,67.7608 63.0256,76.4275 58,84.5C 44.5785,96.8745 29.7452,98.7079 13.5,90C 3.97641,82.2828 -0.356923,72.2828 0.5,60C 1.72116,37.791 11.7212,20.791 30.5,9C 48.7919,-0.333117 67.7919,-1.99978 87.5,4C 116.34,17.1968 129.84,39.6968 128,71.5C 123.764,97.7306 109.264,115.564 84.5,125C 52.8924,133.024 27.7258,123.857 9,97.5C 8.50649,95.8659 8.33982,94.1992 8.5,92.5C 11.5221,92.3419 13.5221,93.6752 14.5,96.5 Z M 108.5,32.5 C 110.894,33.0147 113.228,33.6814 115.5,34.5C 117.341,36.8485 118.674,39.5152 119.5,42.5C 117.784,40.9752 115.784,39.9752 113.5,39.5C 112.221,36.8883 110.555,34.5549 108.5,32.5 Z M 105.5,37.5 C 102.833,37.5 100.167,37.5 97.5,37.5C 90.602,38.7379 84.602,41.7379 79.5,46.5C 79.372,44.3453 79.872,42.3453 81,40.5C 86.1215,34.3483 92.6215,32.1817 100.5,34C 102.881,34.2233 104.547,35.39 105.5,37.5 Z"/></g>
<g><path style="opacity:0.687" fill="#ea726c" d="M 60.5,4.5 C 64.5,4.5 68.5,4.5 72.5,4.5C 73.1443,9.92159 73.4777,15.4216 73.5,21C 73.4946,26.5457 72.8279,31.7124 71.5,36.5C 69.9826,36.4894 68.8159,35.8228 68,34.5C 66.8333,32.1667 65.6667,29.8333 64.5,27.5C 63.675,26.6143 62.675,26.281 61.5,26.5C 61.6361,29.35 61.9695,32.1834 62.5,35C 62.6068,37.2206 61.9402,39.0539 60.5,40.5C 60.5,28.5 60.5,16.5 60.5,4.5 Z"/></g>
<g><path style="opacity:0.852" fill="#e75558" d="M 60.5,4.5 C 60.5,16.5 60.5,28.5 60.5,40.5C 56.6604,42.7957 52.6604,44.7957 48.5,46.5C 48.7093,47.086 49.0426,47.586 49.5,48C 52.914,48.2969 56.2473,48.9635 59.5,50C 61.3333,50.5 62.5,51.6667 63,53.5C 63.4539,60.0294 62.4539,66.3627 60,72.5C 57.3214,80.3439 52.1548,85.6772 44.5,88.5C 45.1579,61.4791 44.4912,34.8124 42.5,8.5C 48.0469,5.61593 54.0469,4.28259 60.5,4.5 Z"/></g>
<g><path style="opacity:0.524" fill="#ee8c82" d="M 72.5,4.5 C 77.8536,5.41406 82.8536,7.08072 87.5,9.5C 86.5088,16.3134 86.1755,23.3134 86.5,30.5C 82.3599,33.4604 77.8599,35.7937 73,37.5C 72.2352,37.4301 71.7352,37.0967 71.5,36.5C 72.8279,31.7124 73.4946,26.5457 73.5,21C 73.4777,15.4216 73.1443,9.92159 72.5,4.5 Z"/></g>
<g><path style="opacity:0.465" fill="#efa296" d="M 87.5,9.5 C 91.1513,10.6589 94.4846,12.3256 97.5,14.5C 96.8367,16.6413 96.5034,18.9746 96.5,21.5C 96.6205,24.4411 97.2872,27.1078 98.5,29.5C 94.4338,29.307 90.4338,29.6403 86.5,30.5C 86.1755,23.3134 86.5088,16.3134 87.5,9.5 Z"/></g>
<g><path style="opacity:0.915" fill="#e5404d" d="M 42.5,8.5 C 44.4912,34.8124 45.1579,61.4791 44.5,88.5C 38.7071,91.3895 32.7071,92.0562 26.5,90.5C 28.8333,90.5 31.1667,90.5 33.5,90.5C 33.8311,64.6612 33.4978,38.9946 32.5,13.5C 35.5154,11.3256 38.8487,9.65893 42.5,8.5 Z"/></g>
<g><path style="opacity:0.829" fill="#3d3e3d" d="M 243.5,13.5 C 245.5,13.5 247.5,13.5 249.5,13.5C 249.5,15.5 249.5,17.5 249.5,19.5C 244.5,20.5 242.5,18.5 243.5,13.5 Z"/></g>
<g><path style="opacity:0.829" fill="#3d3e3d" d="M 284.5,13.5 C 286.5,13.5 288.5,13.5 290.5,13.5C 290.5,15.5 290.5,17.5 290.5,19.5C 285.5,20.5 283.5,18.5 284.5,13.5 Z"/></g>
<g><path style="opacity:0.839" fill="#3d3e3d" d="M 367.5,13.5 C 370.187,13.3359 372.854,13.5026 375.5,14C 376.747,15.4579 376.747,16.9579 375.5,18.5C 373.883,18.6694 372.216,19.0028 370.5,19.5C 371.689,20.4287 373.022,20.762 374.5,20.5C 374.5,22.1667 374.5,23.8333 374.5,25.5C 373.167,25.5 371.833,25.5 370.5,25.5C 370.5,30.1667 370.5,34.8333 370.5,39.5C 368.5,39.5 366.5,39.5 364.5,39.5C 364.908,33.856 364.241,28.356 362.5,23C 363.654,19.4774 365.321,16.3107 367.5,13.5 Z"/></g>
<g><path style="opacity:0.877" fill="#3d3e3d" d="M 170.5,37.5 C 168.721,39.3435 166.388,40.0102 163.5,39.5C 163.509,35.6567 161.509,33.99 157.5,34.5C 153.895,34.1655 151.561,35.6655 150.5,39C 148.167,39.6667 145.833,39.6667 143.5,39C 147.532,31.4389 150.865,23.6056 153.5,15.5C 156.119,15.2317 158.619,15.565 161,16.5C 163.899,23.7278 167.065,30.7278 170.5,37.5 Z M 156.5,24.5 C 160.546,27.464 160.213,29.1307 155.5,29.5C 155.629,27.7839 155.962,26.1172 156.5,24.5 Z"/></g>
<g><path style="opacity:0.835" fill="#3d3e3d" d="M 272.5,15.5 C 274.5,15.5 276.5,15.5 278.5,15.5C 278.5,17.1667 278.5,18.8333 278.5,20.5C 279.833,20.5 281.167,20.5 282.5,20.5C 282.5,22.1667 282.5,23.8333 282.5,25.5C 281.167,25.5 279.833,25.5 278.5,25.5C 278.5,28.5 278.5,31.5 278.5,34.5C 279.93,34.5792 281.264,34.2458 282.5,33.5C 283.192,34.0253 283.692,34.6919 284,35.5C 284.499,30.5111 284.666,25.5111 284.5,20.5C 286.5,20.5 288.5,20.5 290.5,20.5C 290.5,26.8333 290.5,33.1667 290.5,39.5C 286.543,38.521 282.876,38.8543 279.5,40.5C 276.786,40.0596 274.62,38.7262 273,36.5C 272.839,31.8657 272.006,27.3657 270.5,23C 271.78,20.6403 272.447,18.1403 272.5,15.5 Z"/></g>
<g><path style="opacity:0.29" fill="#f5c4ba" d="M 97.5,14.5 C 105.288,19.6179 111.288,26.2846 115.5,34.5C 113.228,33.6814 110.894,33.0147 108.5,32.5C 105.426,30.698 102.092,29.698 98.5,29.5C 97.2872,27.1078 96.6205,24.4411 96.5,21.5C 96.5034,18.9746 96.8367,16.6413 97.5,14.5 Z"/></g>
<g><path style="opacity:0.805" fill="#3d3e3d" d="M 170.5,37.5 C 170.572,35.6891 171.405,34.3557 173,33.5C 175.402,35.2346 177.902,35.5679 180.5,34.5C 177.508,33.1127 174.675,31.4461 172,29.5C 170.877,26.0437 171.71,23.2103 174.5,21C 177.894,20.2483 181.227,20.4149 184.5,21.5C 185.666,23.3649 185.333,25.0316 183.5,26.5C 181.232,25.4557 178.899,25.289 176.5,26C 179.208,27.0695 181.875,28.2361 184.5,29.5C 185.934,31.2199 186.767,33.2199 187,35.5C 187.388,34.572 188.055,33.9054 189,33.5C 191.402,35.2346 193.902,35.5679 196.5,34.5C 193.508,33.1127 190.675,31.4461 188,29.5C 187.36,21.1705 191.193,18.3371 199.5,21C 201.917,22.6732 201.917,24.5065 199.5,26.5C 197.232,25.4557 194.899,25.289 192.5,26C 195.754,27.0269 198.754,28.5269 201.5,30.5C 203.239,36.4555 200.906,39.7888 194.5,40.5C 191.236,40.0259 188.402,38.6925 186,36.5C 181.188,41.4876 176.021,41.8209 170.5,37.5 Z"/></g>
<g><path style="opacity:0.825" fill="#3d3e3d" d="M 209.5,20.5 C 215.851,19.0568 220.685,21.0568 224,26.5C 228.171,20.1977 233.671,18.8644 240.5,22.5C 241.754,24.2592 241.421,25.7592 239.5,27C 237.632,27.0038 235.798,26.5038 234,25.5C 229.142,27.1127 228.309,29.946 231.5,34C 234.419,34.54 237.086,34.2067 239.5,33C 241.211,34.1332 241.711,35.6332 241,37.5C 233.838,42.1072 228.172,40.7739 224,33.5C 219.539,40.3199 213.706,41.8199 206.5,38C 201.799,31.0568 202.799,25.2235 209.5,20.5 Z M 211.5,25.5 C 217.263,25.7827 218.93,28.616 216.5,34C 209.413,34.5578 207.746,31.7245 211.5,25.5 Z"/></g>
<g><path style="opacity:0.843" fill="#3d3e3d" d="M 243.5,20.5 C 245.5,20.5 247.5,20.5 249.5,20.5C 249.5,26.8333 249.5,33.1667 249.5,39.5C 247.5,39.5 245.5,39.5 243.5,39.5C 243.5,33.1667 243.5,26.8333 243.5,20.5 Z"/></g>
<g><path style="opacity:0.822" fill="#3d3e3d" d="M 255.5,27.5 C 253.221,26.1316 252.554,24.2983 253.5,22C 257.765,20.2406 262.098,20.0739 266.5,21.5C 267.584,22.6651 268.417,23.9984 269,25.5C 269.499,30.1548 269.666,34.8215 269.5,39.5C 265.543,38.521 261.876,38.8543 258.5,40.5C 252.847,39.359 250.68,36.0256 252,30.5C 253.145,29.3636 254.312,28.3636 255.5,27.5 Z M 255.5,27.5 C 257.996,25.1711 260.663,25.0044 263.5,27C 260.854,27.4974 258.187,27.6641 255.5,27.5 Z M 259.5,31.5 C 264.217,31.4183 264.383,32.7516 260,35.5C 256.937,34.3248 256.77,32.9914 259.5,31.5 Z"/></g>
<g><path style="opacity:0.834" fill="#3d3e3d" d="M 298.5,20.5 C 309.324,19.156 313.824,23.8227 312,34.5C 307.332,40.9149 301.665,41.9149 295,37.5C 290.861,30.5982 292.027,24.9315 298.5,20.5 Z M 300.5,25.5 C 306.263,25.7827 307.93,28.616 305.5,34C 298.413,34.5578 296.746,31.7245 300.5,25.5 Z"/></g>
<g><path style="opacity:0.837" fill="#3d3e3d" d="M 314.5,20.5 C 318.142,21.0472 321.642,21.0472 325,20.5C 327.261,20.4391 329.261,21.1057 331,22.5C 332.404,28.0438 332.904,33.7104 332.5,39.5C 330.5,39.5 328.5,39.5 326.5,39.5C 326.666,35.1539 326.499,30.8206 326,26.5C 323.978,25.0091 322.312,25.3424 321,27.5C 320.501,31.4862 320.334,35.4862 320.5,39.5C 318.5,39.5 316.5,39.5 314.5,39.5C 314.5,33.1667 314.5,26.8333 314.5,20.5 Z"/></g>
<g><path style="opacity:0.834" fill="#3d3e3d" d="M 347.5,20.5 C 358.324,19.156 362.824,23.8227 361,34.5C 356.332,40.9149 350.665,41.9149 344,37.5C 339.861,30.5982 341.027,24.9315 347.5,20.5 Z M 349.5,25.5 C 355.263,25.7827 356.93,28.616 354.5,34C 347.413,34.5578 345.746,31.7245 349.5,25.5 Z"/></g>
<g><path style="opacity:0.988" fill="#e32744" d="M 32.5,13.5 C 33.4978,38.9946 33.8311,64.6612 33.5,90.5C 31.1667,90.5 28.8333,90.5 26.5,90.5C 18.2847,89.1232 12.118,84.7899 8,77.5C -0.306316,49.9254 7.86035,28.592 32.5,13.5 Z"/></g>
<g><path style="opacity:0.358" fill="#b0b2d6" d="M 97.5,37.5 C 100.167,37.5 102.833,37.5 105.5,37.5C 106.496,37.4142 107.329,37.7476 108,38.5C 109.85,41.4632 109.85,44.4632 108,47.5C 106.989,48.3366 105.822,48.67 104.5,48.5C 104.5,49.8333 104.5,51.1667 104.5,52.5C 108.691,52.2407 111.691,50.2407 113.5,46.5C 113.5,54.1667 113.5,61.8333 113.5,69.5C 111.852,67.5707 110.185,65.5707 108.5,63.5C 107.311,62.5713 105.978,62.238 104.5,62.5C 103.833,62.5 103.167,62.5 102.5,62.5C 101.167,62.5 99.8333,62.5 98.5,62.5C 97.5073,54.3501 97.1739,46.0168 97.5,37.5 Z"/></g>
<g><path style="opacity:1" fill="#e8d70d" d="M 65.5,37.5 C 68.3291,39.9784 71.6625,40.9784 75.5,40.5C 75.2601,43.5788 75.5934,46.5788 76.5,49.5C 72.5164,49.6826 69.3498,51.3493 67,54.5C 65.9114,50.8139 63.7447,47.9806 60.5,46C 63.5956,43.9713 65.2623,41.138 65.5,37.5 Z"/></g>
<g><path style="opacity:0.542" fill="#8a8dc2" d="M 97.5,37.5 C 97.1739,46.0168 97.5073,54.3501 98.5,62.5C 97.2073,64.2959 95.7073,65.9625 94,67.5C 93.5065,65.8659 93.3398,64.1992 93.5,62.5C 92.1667,62.5 90.8333,62.5 89.5,62.5C 89.5,67.5 89.5,72.5 89.5,77.5C 90.8333,77.5 92.1667,77.5 93.5,77.5C 93.2148,75.712 93.5481,74.0453 94.5,72.5C 95.5223,72.8555 96.189,73.5222 96.5,74.5C 95.5044,87.6562 95.1711,100.99 95.5,114.5C 90.4459,118.19 84.7792,120.523 78.5,121.5C 78.5,106.167 78.5,90.8333 78.5,75.5C 80.5,75.5 82.5,75.5 84.5,75.5C 85.287,77.1042 86.6203,77.7709 88.5,77.5C 86.9705,72.7505 85.1372,68.0838 83,63.5C 81.6439,62.6198 80.1439,62.2865 78.5,62.5C 78.0254,59.9179 78.6921,57.9179 80.5,56.5C 82.0936,56.9195 83.5936,57.5862 85,58.5C 86.2798,58.3865 87.1131,57.7199 87.5,56.5C 85.4698,54.393 83.3031,52.393 81,50.5C 80.2086,49.255 79.7086,47.9217 79.5,46.5C 84.602,41.7379 90.602,38.7379 97.5,37.5 Z"/></g>
<g><path style="opacity:0.129" fill="#dcdced" d="M 113.5,39.5 C 115.784,39.9752 117.784,40.9752 119.5,42.5C 121.359,45.9116 122.526,49.5783 123,53.5C 123.667,60.5 123.667,67.5 123,74.5C 121.702,82.7497 118.536,90.083 113.5,96.5C 113.5,90.1667 113.5,83.8333 113.5,77.5C 115.042,78.3007 116.708,78.634 118.5,78.5C 118.5,73.1667 118.5,67.8333 118.5,62.5C 117.167,62.5 115.833,62.5 114.5,62.5C 114.843,65.6533 114.51,67.9866 113.5,69.5C 113.5,61.8333 113.5,54.1667 113.5,46.5C 113.5,44.1667 113.5,41.8333 113.5,39.5 Z"/></g>
<g><path style="opacity:1" fill="#1a190a" d="M 67.5,43.5 C 70.5,43.1667 71.8333,44.5 71.5,47.5C 69.8333,47.5 68.1667,47.5 66.5,47.5C 66.4326,46.0413 66.7659,44.7079 67.5,43.5 Z"/></g>
<g><path style="opacity:0.872" fill="#3d3e3d" d="M 147.5,49.5 C 149.5,49.5 151.5,49.5 153.5,49.5C 153.336,52.1873 153.503,54.854 154,57.5C 155.812,54.7198 157.979,52.2198 160.5,50C 163.167,49.3333 165.833,49.3333 168.5,50C 165.87,53.6317 162.87,56.965 159.5,60C 162.377,64.2549 165.377,68.4216 168.5,72.5C 166.235,73.6474 163.902,73.8141 161.5,73C 159.69,70.3557 157.69,67.8557 155.5,65.5C 154.914,65.7093 154.414,66.0426 154,66.5C 153.503,68.8098 153.337,71.1432 153.5,73.5C 151.5,73.5 149.5,73.5 147.5,73.5C 147.5,65.5 147.5,57.5 147.5,49.5 Z"/></g>
<g><path style="opacity:0.834" fill="#3d3e3d" d="M 173.5,54.5 C 184.324,53.156 188.824,57.8227 187,68.5C 182.332,74.9149 176.665,75.9149 170,71.5C 165.861,64.5982 167.027,58.9315 173.5,54.5 Z M 175.5,59.5 C 181.263,59.7827 182.93,62.616 180.5,68C 173.413,68.5578 171.746,65.7245 175.5,59.5 Z"/></g>
<g><path style="opacity:0.823" fill="#3d3e3d" d="M 189.5,54.5 C 193.577,55.2431 197.577,55.2431 201.5,54.5C 201.343,55.8734 201.51,57.2068 202,58.5C 207.667,53.1667 213.333,53.1667 219,58.5C 219.497,61.146 219.664,63.8127 219.5,66.5C 215.154,66.3343 210.821,66.501 206.5,67C 209.123,70.1183 211.956,70.285 215,67.5C 216.622,67.9541 217.788,68.9541 218.5,70.5C 214.773,74.3473 210.439,75.1806 205.5,73C 200.792,69.7377 199.459,65.4043 201.5,60C 199.097,59.3698 197.263,60.2031 196,62.5C 195.501,66.1516 195.335,69.8183 195.5,73.5C 193.5,73.5 191.5,73.5 189.5,73.5C 189.5,67.1667 189.5,60.8333 189.5,54.5 Z M 208.5,59.5 C 210.429,59.2308 212.095,59.7308 213.5,61C 211.5,61.6667 209.5,61.6667 207.5,61C 208.056,60.6174 208.389,60.1174 208.5,59.5 Z"/></g>
<g><path style="opacity:0.822" fill="#3d3e3d" d="M 224.5,61.5 C 222.221,60.1316 221.554,58.2983 222.5,56C 226.765,54.2406 231.098,54.0739 235.5,55.5C 236.584,56.6651 237.417,57.9984 238,59.5C 238.499,64.1548 238.666,68.8215 238.5,73.5C 234.543,72.521 230.876,72.8543 227.5,74.5C 221.847,73.359 219.68,70.0256 221,64.5C 222.145,63.3636 223.312,62.3636 224.5,61.5 Z M 224.5,61.5 C 226.996,59.1711 229.663,59.0044 232.5,61C 229.854,61.4974 227.187,61.6641 224.5,61.5 Z M 228.5,65.5 C 233.217,65.4183 233.383,66.7516 229,69.5C 225.937,68.3248 225.77,66.9914 228.5,65.5 Z"/></g>
<g><path style="opacity:0.837" fill="#3d3e3d" d="M 240.5,54.5 C 244.142,55.0472 247.642,55.0472 251,54.5C 253.261,54.4391 255.261,55.1057 257,56.5C 258.404,62.0438 258.904,67.7104 258.5,73.5C 256.5,73.5 254.5,73.5 252.5,73.5C 252.666,69.1539 252.499,64.8206 252,60.5C 249.978,59.0091 248.312,59.3424 247,61.5C 246.501,65.4862 246.334,69.4862 246.5,73.5C 244.5,73.5 242.5,73.5 240.5,73.5C 240.5,67.1667 240.5,60.8333 240.5,54.5 Z"/></g>
<g><path style="opacity:0.675" fill="#7278b5" d="M 75.5,54.5 C 77.403,54.7959 79.0697,55.4625 80.5,56.5C 78.6921,57.9179 78.0254,59.9179 78.5,62.5C 76.6357,67.4262 74.969,72.4262 73.5,77.5C 75.9901,76.5747 78.4901,75.5747 81,74.5C 82.3847,74.5143 83.5514,74.8476 84.5,75.5C 82.5,75.5 80.5,75.5 78.5,75.5C 78.5,90.8333 78.5,106.167 78.5,121.5C 75.1244,123.082 71.4578,123.749 67.5,123.5C 67.5,108.5 67.5,93.5 67.5,78.5C 69.5715,70.2855 72.2382,62.2855 75.5,54.5 Z"/></g>
<g><path style="opacity:1" fill="#262225" d="M 78.5,62.5 C 80.1439,62.2865 81.6439,62.6198 83,63.5C 85.1372,68.0838 86.9705,72.7505 88.5,77.5C 86.6203,77.7709 85.287,77.1042 84.5,75.5C 83.5514,74.8476 82.3847,74.5143 81,74.5C 78.4901,75.5747 75.9901,76.5747 73.5,77.5C 74.969,72.4262 76.6357,67.4262 78.5,62.5 Z"/></g>
<g><path style="opacity:1" fill="#292528" d="M 98.5,62.5 C 99.8333,62.5 101.167,62.5 102.5,62.5C 102.5,62.8333 102.5,63.1667 102.5,63.5C 100.856,65.4807 99.1897,67.4807 97.5,69.5C 98.9308,72.0387 100.597,74.3721 102.5,76.5C 101.432,77.4345 100.099,77.7678 98.5,77.5C 97.8333,76.5 97.1667,75.5 96.5,74.5C 96.189,73.5222 95.5223,72.8555 94.5,72.5C 93.5481,74.0453 93.2148,75.712 93.5,77.5C 92.1667,77.5 90.8333,77.5 89.5,77.5C 89.5,72.5 89.5,67.5 89.5,62.5C 90.8333,62.5 92.1667,62.5 93.5,62.5C 93.3398,64.1992 93.5065,65.8659 94,67.5C 95.7073,65.9625 97.2073,64.2959 98.5,62.5 Z"/></g>
<g><path style="opacity:0.357" fill="#a7a9d0" d="M 102.5,63.5 C 103.833,67.8333 103.833,72.1667 102.5,76.5C 100.597,74.3721 98.9308,72.0387 97.5,69.5C 99.1897,67.4807 100.856,65.4807 102.5,63.5 Z"/></g>
<g><path style="opacity:0.549" fill="#626173" d="M 102.5,63.5 C 102.5,63.1667 102.5,62.8333 102.5,62.5C 103.167,62.5 103.833,62.5 104.5,62.5C 104.5,67.5 104.5,72.5 104.5,77.5C 105.5,77.5 106.5,77.5 107.5,77.5C 106.432,78.4345 105.099,78.7678 103.5,78.5C 101.585,78.7845 99.9187,78.4511 98.5,77.5C 100.099,77.7678 101.432,77.4345 102.5,76.5C 103.833,72.1667 103.833,67.8333 102.5,63.5 Z"/></g>
<g><path style="opacity:1" fill="#272325" d="M 104.5,62.5 C 105.978,62.238 107.311,62.5713 108.5,63.5C 110.185,65.5707 111.852,67.5707 113.5,69.5C 114.51,67.9866 114.843,65.6533 114.5,62.5C 115.833,62.5 117.167,62.5 118.5,62.5C 118.5,67.8333 118.5,73.1667 118.5,78.5C 116.708,78.634 115.042,78.3007 113.5,77.5C 111.933,74.7173 110.1,72.0507 108,69.5C 107.503,72.146 107.336,74.8127 107.5,77.5C 106.5,77.5 105.5,77.5 104.5,77.5C 104.5,72.5 104.5,67.5 104.5,62.5 Z"/></g>
<g><path style="opacity:0.626" fill="#7174a5" d="M 80.5,67.5 C 83.4595,70.2714 83.1261,71.2714 79.5,70.5C 80.1272,69.5832 80.4606,68.5832 80.5,67.5 Z"/></g>
<g><path style="opacity:0.412" fill="#a4a5d0" d="M 96.5,74.5 C 97.1667,75.5 97.8333,76.5 98.5,77.5C 99.9187,78.4511 101.585,78.7845 103.5,78.5C 103.5,88.5 103.5,98.5 103.5,108.5C 101.2,110.984 98.5331,112.984 95.5,114.5C 95.1711,100.99 95.5044,87.6562 96.5,74.5 Z"/></g>
<g><path style="opacity:0.302" fill="#babbdb" d="M 113.5,77.5 C 113.5,83.8333 113.5,90.1667 113.5,96.5C 111.291,101.381 107.957,105.381 103.5,108.5C 103.5,98.5 103.5,88.5 103.5,78.5C 105.099,78.7678 106.432,78.4345 107.5,77.5C 107.336,74.8127 107.503,72.146 108,69.5C 110.1,72.0507 111.933,74.7173 113.5,77.5 Z"/></g>
<g><path style="opacity:0.754" fill="#656db0" d="M 67.5,78.5 C 67.5,93.5 67.5,108.5 67.5,123.5C 64.1667,123.5 60.8333,123.5 57.5,123.5C 57.5,113.5 57.5,103.5 57.5,93.5C 61.5908,88.9791 64.9242,83.9791 67.5,78.5 Z"/></g>
<g><path style="opacity:0.829" fill="#3d3e3d" d="M 282.5,82.5 C 284.5,82.5 286.5,82.5 288.5,82.5C 288.5,84.5 288.5,86.5 288.5,88.5C 283.5,89.5 281.5,87.5 282.5,82.5 Z"/></g>
<g><path style="opacity:0.829" fill="#3d3e3d" d="M 345.5,82.5 C 347.5,82.5 349.5,82.5 351.5,82.5C 351.5,84.5 351.5,86.5 351.5,88.5C 346.5,89.5 344.5,87.5 345.5,82.5 Z"/></g>
<g><path style="opacity:0.861" fill="#3d3e3d" d="M 147.5,84.5 C 149.527,84.3379 151.527,84.5045 153.5,85C 156.788,89.0768 159.955,93.2435 163,97.5C 163.499,93.1794 163.666,88.8461 163.5,84.5C 165.833,84.5 168.167,84.5 170.5,84.5C 170.5,92.5 170.5,100.5 170.5,108.5C 168.143,108.663 165.81,108.497 163.5,108C 159.95,104.117 156.783,99.9507 154,95.5C 153.501,99.8206 153.334,104.154 153.5,108.5C 151.5,108.5 149.5,108.5 147.5,108.5C 147.5,100.5 147.5,92.5 147.5,84.5 Z"/></g>
<g><path style="opacity:0.831" fill="#3d3e3d" d="M 332.5,84.5 C 334.5,84.5 336.5,84.5 338.5,84.5C 338.5,86.1667 338.5,87.8333 338.5,89.5C 339.833,89.5 341.167,89.5 342.5,89.5C 342.5,91.1667 342.5,92.8333 342.5,94.5C 341.167,94.5 339.833,94.5 338.5,94.5C 338.5,97.5 338.5,100.5 338.5,103.5C 342.709,101.542 344.543,102.875 344,107.5C 339.779,110.366 336.112,109.699 333,105.5C 332.839,100.866 332.006,96.3657 330.5,92C 331.78,89.6403 332.447,87.1403 332.5,84.5 Z"/></g>
<g><path style="opacity:0.82" fill="#3d3e3d" d="M 371.5,84.5 C 373.5,84.5 375.5,84.5 377.5,84.5C 377.5,86.1667 377.5,87.8333 377.5,89.5C 378.833,89.5 380.167,89.5 381.5,89.5C 381.5,91.1667 381.5,92.8333 381.5,94.5C 380.167,94.5 378.833,94.5 377.5,94.5C 377.5,97.5 377.5,100.5 377.5,103.5C 382.071,102.734 387.071,102.734 392.5,103.5C 389.508,102.113 386.675,100.446 384,98.5C 383.36,90.1705 387.193,87.3371 395.5,90C 397.917,91.6732 397.917,93.5065 395.5,95.5C 393.232,94.4557 390.899,94.289 388.5,95C 391.754,96.0269 394.754,97.5269 397.5,99.5C 399.239,105.455 396.906,108.789 390.5,109.5C 388.303,108.934 386.136,108.268 384,107.5C 379.396,110.516 375.396,109.85 372,105.5C 371.839,100.866 371.006,96.3657 369.5,92C 370.78,89.6403 371.447,87.1403 371.5,84.5 Z"/></g>
<g><path style="opacity:0.821" fill="#3d3e3d" d="M 178.5,89.5 C 188.054,88.0582 192.387,92.0582 191.5,101.5C 187.154,101.334 182.821,101.501 178.5,102C 179.665,103.084 180.998,103.917 182.5,104.5C 185.697,101.516 188.364,101.849 190.5,105.5C 185.967,110.043 180.967,110.543 175.5,107C 170.799,100.057 171.799,94.2235 178.5,89.5 Z M 180.5,94.5 C 182.429,94.2308 184.095,94.7308 185.5,96C 183.5,96.6667 181.5,96.6667 179.5,96C 180.056,95.6174 180.389,95.1174 180.5,94.5 Z"/></g>
<g><path style="opacity:0.844" fill="#3d3e3d" d="M 193.5,89.5 C 195.5,89.5 197.5,89.5 199.5,89.5C 199.334,93.8461 199.501,98.1794 200,102.5C 201.667,103.833 203.333,103.833 205,102.5C 205.499,98.1794 205.666,93.8461 205.5,89.5C 207.5,89.5 209.5,89.5 211.5,89.5C 211.5,95.8333 211.5,102.167 211.5,108.5C 207.543,107.521 203.876,107.854 200.5,109.5C 197.786,109.06 195.62,107.726 194,105.5C 193.501,100.177 193.334,94.8437 193.5,89.5 Z"/></g>
<g><path style="opacity:0.832" fill="#3d3e3d" d="M 214.5,89.5 C 218.577,90.2431 222.577,90.2431 226.5,89.5C 226.343,90.8734 226.51,92.2068 227,93.5C 231.685,89.0721 236.851,88.4055 242.5,91.5C 246.47,96.6322 246.47,101.799 242.5,107C 235.4,110.963 229.9,109.463 226,102.5C 225.231,99.9009 225.398,97.4009 226.5,95C 224.097,94.3698 222.263,95.2031 221,97.5C 220.501,101.152 220.335,104.818 220.5,108.5C 218.5,108.5 216.5,108.5 214.5,108.5C 214.5,102.167 214.5,95.8333 214.5,89.5 Z M 233.5,94.5 C 239.263,94.7827 240.93,97.616 238.5,103C 231.413,103.558 229.746,100.724 233.5,94.5 Z"/></g>
<g><path style="opacity:0.809" fill="#3d3e3d" d="M 250.5,89.5 C 253.909,89.2493 257.242,89.5827 260.5,90.5C 261.666,92.3649 261.333,94.0316 259.5,95.5C 257.232,94.4557 254.899,94.289 252.5,95C 256.243,95.9512 259.41,97.7846 262,100.5C 263.868,89.982 269.701,86.982 279.5,91.5C 280.754,93.2592 280.421,94.7592 278.5,96C 276.632,96.0038 274.798,95.5038 273,94.5C 268.142,96.1127 267.309,98.946 270.5,103C 273.419,103.54 276.086,103.207 278.5,102C 280.211,103.133 280.711,104.633 280,106.5C 272.838,111.107 267.172,109.774 263,102.5C 259.623,109.622 254.457,111.122 247.5,107C 246.353,105.096 246.853,103.596 249,102.5C 251.402,104.235 253.902,104.568 256.5,103.5C 253.508,102.113 250.675,100.446 248,98.5C 246.927,94.9003 247.76,91.9003 250.5,89.5 Z"/></g>
<g><path style="opacity:0.843" fill="#3d3e3d" d="M 282.5,89.5 C 284.5,89.5 286.5,89.5 288.5,89.5C 288.5,95.8333 288.5,102.167 288.5,108.5C 286.5,108.5 284.5,108.5 282.5,108.5C 282.5,102.167 282.5,95.8333 282.5,89.5 Z"/></g>
<g><path style="opacity:0.821" fill="#3d3e3d" d="M 296.5,89.5 C 306.054,88.0582 310.387,92.0582 309.5,101.5C 305.154,101.334 300.821,101.501 296.5,102C 297.665,103.084 298.998,103.917 300.5,104.5C 303.697,101.516 306.364,101.849 308.5,105.5C 303.967,110.043 298.967,110.543 293.5,107C 288.799,100.057 289.799,94.2235 296.5,89.5 Z M 298.5,94.5 C 300.429,94.2308 302.095,94.7308 303.5,96C 301.5,96.6667 299.5,96.6667 297.5,96C 298.056,95.6174 298.389,95.1174 298.5,94.5 Z"/></g>
<g><path style="opacity:0.837" fill="#3d3e3d" d="M 310.5,89.5 C 314.142,90.0472 317.642,90.0472 321,89.5C 323.261,89.4391 325.261,90.1057 327,91.5C 328.404,97.0438 328.904,102.71 328.5,108.5C 326.5,108.5 324.5,108.5 322.5,108.5C 322.666,104.154 322.499,99.8206 322,95.5C 319.978,94.0091 318.312,94.3424 317,96.5C 316.501,100.486 316.334,104.486 316.5,108.5C 314.5,108.5 312.5,108.5 310.5,108.5C 310.5,102.167 310.5,95.8333 310.5,89.5 Z"/></g>
<g><path style="opacity:0.843" fill="#3d3e3d" d="M 345.5,89.5 C 347.5,89.5 349.5,89.5 351.5,89.5C 351.5,95.8333 351.5,102.167 351.5,108.5C 349.5,108.5 347.5,108.5 345.5,108.5C 345.5,102.167 345.5,95.8333 345.5,89.5 Z"/></g>
<g><path style="opacity:0.805" fill="#3d3e3d" d="M 356.5,89.5 C 359.518,89.3354 362.518,89.502 365.5,90C 367.917,91.6732 367.917,93.5065 365.5,95.5C 363.232,94.4557 360.899,94.289 358.5,95C 361.754,96.0269 364.754,97.5269 367.5,99.5C 369.239,105.455 366.906,108.789 360.5,109.5C 357.29,109.106 354.624,107.773 352.5,105.5C 352.865,104.098 353.699,103.098 355,102.5C 357.402,104.235 359.902,104.568 362.5,103.5C 359.508,102.113 356.675,100.446 354,98.5C 352.927,94.9003 353.76,91.9003 356.5,89.5 Z"/></g>
<g><path style="opacity:0.937" fill="#4c5ba5" d="M 57.5,93.5 C 57.5,103.5 57.5,113.5 57.5,123.5C 38.7548,121.306 24.4215,112.306 14.5,96.5C 29.3893,102.508 43.7227,101.508 57.5,93.5 Z"/></g>
</svg>
