<svg xmlns="http://www.w3.org/2000/svg" width="662" height="320" style="shape-rendering:geometricPrecision;text-rendering:geometricPrecision;image-rendering:optimizeQuality;fill-rule:evenodd;clip-rule:evenodd"><path style="opacity:1" fill="#fcfcfc" d="M107.5-.5h554v320h-397c-1.135-1.713-2.802-2.38-5-2v-14h5v-5c-1.983.343-3.317-.324-4-2a23.317 23.317 0 0 1 3-6c1.279-1.468 2.946-2.135 5-2v5h6v-6h-5v-4h5a96.873 96.873 0 0 1 1-16c1.593-.848 2.76-2.181 3.5-4a12.93 12.93 0 0 1 .5 5h11v-5h4l1-10h9v-6h-10v5h-5a41.73 41.73 0 0 0-1-9v-1a47.886 47.886 0 0 1 5.5-11c.498-2.982.665-5.982.5-9 1.788.285 3.455-.048 5-1 .566-2.917.566-5.917 0-9 1.788.285 3.455-.048 5-1a64.753 64.753 0 0 0 6-14 64.322 64.322 0 0 0 6-9c.876.131 1.543-.202 2-1a104.778 104.778 0 0 0 6-15h10v-5h-4c.262 1.478-.071 2.811-1 4l-1-1c-.42-1.826-.42-3.826 0-6 3.706-5.417 5.706-11.417 6-18h4a32.503 32.503 0 0 1 4-10c.543-.06.876-.393 1-1a85.021 85.021 0 0 0-26 0c.124.607.457.94 1 1 .951 1.419 1.284 3.085 1 5h-5v5c-2.97.246-4.303 1.912-4 5h4v5h-5c.031-3.776-.636-3.943-2-.5.336 1.03 1.003 1.53 2 1.5v5a9.86 9.86 0 0 0-6 1c-1.17 3.673-2.837 7.007-5 10-2.65 2.779-4.316 6.112-5 10a115.349 115.349 0 0 1-6 13.5c1.692 1.401 2.359 3.234 2 5.5h-8a358.261 358.261 0 0 0-20-39c.709-.904 1.709-1.237 3-1v-5h5v-6h-6v5h-5v-4c-1.699-.027-3.033-.694-4-2 .172-.992-.162-1.658-1-2 .841-1.879 1.175-3.879 1-6h5v-5h5v-5h5v9h10v-4h5v-6h-10v-10h-11v10h-5v5h-4v5h-5c.667-4-1-5.667-5-5v-4h5v-6h-10c-.968 2.107-1.302 4.441-1 7h-4v-12h10v-4h10v-11h-5v5h-6v4h-5v-10h-14v-4h5v-5h5v-6c-2.235-.295-4.235.039-6 1-.951 1.419-1.284 3.085-1 5h-3v-10h5v-6h-6v5c-1.915-.284-3.581.049-5 1v5h-5v5h10v5h-15v5h5v10h5c3.14 1.141 6.473 1.308 10 .5.88-1.356 1.214-2.856 1-4.5h5v8c-5.431-1.406-7.765.594-7 6-3.938.343-4.938 2.343-3 6a9.86 9.86 0 0 1-6 1v3h-5v-10h-5v5h-10c-1.075 4.438.592 6.438 5 6v5h6v-5h4v4c1.419.951 3.085 1.284 5 1v4a18.453 18.453 0 0 1 6 .5 19.602 19.602 0 0 0 2 3.5c-.709.904-1.709 1.237-3 1v6h5v5h6c2.435 2.874 3.769 6.207 4 10v9h-5v10h-4v-4h-5c-1.542-.801-3.208-1.134-5-1 .284-1.915-.049-3.581-1-5v-4h-4v-5h4v-5h5v-6h-5c.901 3.741-.432 5.741-4 6 1.075-4.438-.592-6.438-5-6v-4h4v-6h-5v-5h-19c.284-1.915-.049-3.581-1-5h-14a46.94 46.94 0 0 0-1.5-11c-.417-1.256-1.25-1.923-2.5-2 .172-.992-.162-1.658-1-2 .131-.876-.202-1.543-1-2-1.342 1.505-3.008 2.172-5 2v-10c.667-4-1-5.667-5-5v-10h5v-10h-10a16.336 16.336 0 0 0-2-5c.734-1.208 1.067-2.541 1-4-1.699-.027-3.033-.694-4-2 .172-.992-.162-1.658-1-2 1.418-1.808 3.418-2.475 6-2v-5h-5c.166 3.873-.834 4.54-3 2-.579-2.831-1.912-5.164-4-7-.709-.904-1.709-1.237-3-1 .758-2.852.758-5.519 0-8v-7h-5a40.911 40.911 0 0 0-.5-9c-1.388-1.054-2.888-1.22-4.5-.5a55.154 55.154 0 0 0-1 14.5h-4a40.911 40.911 0 0 0-.5-9c-1.699-.906-3.533-1.24-5.5-1v5h-5v-5h-4c.313-3.542-.021-6.875-1-10v-4h5v4h5v-4c5.195.32 10.195-.013 15-1 .951-1.419 1.284-3.085 1-5h-20c.284-1.915-.049-3.581-1-5-1.419-.951-3.085-1.285-5-1v-3h10v-6h-5v-5h-5v-6z"/><path style="opacity:1" fill="#c7c7c7" d="M-.5.5h2v5h5v5h-5v5h-2V.5z"/><path style="opacity:1" fill="#616161" d="M127.5.5v5h-10v-5h10z"/><path style="opacity:1" fill="#c9c9c9" d="M147.5.5h6v5h-6v-5z"/><path style="opacity:1" fill="#dadada" d="M198.5.5h11v4h4v-4h5v5h-4v5h-6v-5h-10v-5z"/><path style="opacity:1" fill="#d6d6d6" d="M213.5 30.5h5v-5h6v10h5v5h4v-5h5v-4h-5v-16h5v-4c-3.542.313-6.875-.02-10-1h10V.5h16v5h-5v5h10v5h-11v-4h-4c.667 4-1 5.667-5 5v14h4v-5h6v6h-5v4h-5c1.075 4.438-.592 6.438-5 6v5h-6v-5h-4v4h-6v-5h5v-4h-10v-6z"/><path style="opacity:1" fill="#ededed" d="M-.5.5v-1h108v1h-5v5h-4c.284-1.915-.049-3.581-1-5h-10v5h10v20h5v-9h5v3c1.915-.285 3.581.049 5 1 .951 1.419 1.284 3.085 1 5h4v5h15c-4.805.987-9.805 1.32-15 1v4h-5v-4h-5v4h-5v-5h-10v-10h-5v5h-15v6h-4v4h-2v-5h-4v-5h4c.951-1.419 1.284-3.085 1-5h9v-4h-4v-11h-5v-5h-5v5h4v9c-3.213-.31-6.213.023-9 1h-5v-5h5v-5h-11v10c-3.018.204-6.018.537-9 1v9h-6c.377-3.025.544-6.025.5-9-1.7-.906-3.533-1.24-5.5-1a104.613 104.613 0 0 1-9-1v-3h4v-6h-5v5h-5v-5h-4v-5h-8z"/><path style="opacity:1" fill="#4c4c4c" d="M87.5 5.5v5h-5v-5h5z"/><path style="opacity:1" fill="#828282" d="M26.5.5h10v5h-4v5h-6V.5z"/><path style="opacity:1" fill="#747474" d="M97.5.5v5h-10v-5h10z"/><path style="opacity:1" fill="#868686" d="M72.5 5.5v-5h5v5h-5z"/><path style="opacity:1" fill="#262626" d="M36.5.5h5v5h-5v-5z"/><path style="opacity:1" fill="#1d1d1d" d="M26.5.5v5h-5v-5h5z"/><path style="opacity:1" fill="#d6d6d6" d="M127.5.5c.951 1.419 1.284 3.085 1 5h10v15h-6a104.653 104.653 0 0 0-1-9h-3v10h-6v-16h5v-5z"/><path style="opacity:1" fill="#838383" d="M158.5 5.5h5v5-5h-5z"/><path style="opacity:1" fill="#a4a4a4" d="M178.5 10.5v-5h10v5h-10z"/><path style="opacity:1" fill="#7f7f7f" d="M1.5.5h6v5h4v5h-5v-5h-5v-5z"/><path style="opacity:1" fill="#d2d2d2" d="M57.5 15.5v1c-.904.709-1.237 1.709-1 3-2.982.463-5.982.796-9 1v-4c1.599.268 2.932-.066 4-1v-5h-5v-5h11v5h-5v5h5z"/><path style="opacity:1" fill="#b7b7b7" d="M238.5 5.5v5h-10V.5h6v5h4z"/><path style="opacity:1" fill="#777" d="M6.5 10.5v5h-5v-5h5z"/><path style="opacity:1" fill="#6f6f6f" d="M47.5 10.5h4v5h-4v-5z"/><path style="opacity:1" fill="#838383" d="M67.5 5.5h5v11h4v4h-9c.284 1.915-.049 3.581-1 5v-5h-4v-4h-5v-1h10v-10z"/><path style="opacity:1" fill="#6e6e6e" d="M107.5.5v5h5v5h-5v5h-5V.5h5z"/><path style="opacity:1" fill="#969696" d="M178.5 10.5v5h-10v-5h10z"/><path style="opacity:1" fill="#dcdcdc" d="M6.5 10.5h5v5h-5v-5z"/><path style="opacity:1" fill="#bababa" d="M67.5 5.5v10h-10c2.787-.977 5.787-1.31 9-1v-9h-4v-5h5v5z"/><path style="opacity:1" fill="#838383" d="M87.5 10.5h5v5h-5v-5z"/><path style="opacity:1" fill="#ebebeb" d="M1.5 15.5h5v10h5v-5c.934-1.068 1.268-2.401 1-4h4v9h5v5h-5v5h10c.951-1.419 1.285-3.085 1-5 4.693.04 9.36.373 14 1v4h-10v5h-5v5h-5v-4c-1.419-.951-3.085-1.285-5-1v5h-5v-4h-5v9h5v5h-10c.343-1.983-.324-3.317-2-4v-21h2v-15z"/><path style="opacity:1" fill="#767676" d="M21.5 5.5v6h-4v3c2.982.463 5.982.796 9 1v5h-10v-4h-4c.268 1.599-.066 2.932-1 4v5h-5v-10h5v-5h5v-5h5z"/><path style="opacity:1" fill="#1a1a1a" d="M11.5 20.5h-4v-4h4v4z"/><path style="opacity:1" fill="#383838" d="M12.5 11.5h4v4h-4v-4z"/><path style="opacity:1" fill="#555" d="M57.5 16.5h5v4h4v5h-4v5h-5v-5h-5v-4c4 .667 5.667-1 5-5z"/><path style="opacity:1" fill="#c5c5c5" d="M97.5.5c.951 1.419 1.284 3.085 1 5h4v10h5v-5h10v6h-15v9h-5V.5z"/><path style="opacity:1" fill="#e2e2e2" d="M339.5 15.5h11v5h-5v5h5v5h-6v-5h-5v-10z"/><path style="opacity:1" fill="#bababa" d="M26.5 15.5c1.967-.24 3.8.094 5.5 1a65.024 65.024 0 0 1-.5 9h-15v-5h10v-5z"/><path style="opacity:1" fill="#a0a0a0" d="M46.5 10.5h1v5h4c-1.068.934-2.401 1.268-4 1v4c3.018-.204 6.018-.537 9-1-.237-1.291.096-2.291 1-3 .667 4-1 5.667-5 5v4h-6v-4h-4v9h4v5h-4c.285 1.915-.049 3.581-1 5v-4h-9c.268 1.599-.066 2.932-1 4v-5h10v-4c-4.64-.627-9.307-.96-14-1 .285 1.915-.049 3.581-1 5v-5h-5v-5h16v-9c2.982-.463 5.982-.796 9-1v-5z"/><path style="opacity:1" fill="#bababa" d="M158.5 5.5v5h5v5h-5v5h5v10c-.934-1.068-1.268-2.401-1-4h-4v4h-6v-4a76.944 76.944 0 0 0-10-1v-10h6v5h4v-10h5c-.284-1.915.049-3.581 1-5z"/><path style="opacity:1" fill="#848484" d="M153.5 11.5h4v9h-4v-9z"/><path style="opacity:1" fill="#525252" d="M-.5 15.5h2v15h-2v-15z"/><path style="opacity:1" fill="#989898" d="M178.5 25.5v-5h5v5h-5z"/><path style="opacity:1" fill="#848484" d="M112.5 20.5v10h-5v-10h5z"/><path style="opacity:1" fill="#393939" d="M37.5 25.5h4v5h-4v-5z"/><path style="opacity:1" fill="#bfbfbf" d="M92.5 30.5v5c-.951-1.419-1.284-3.085-1-5h-4v-10h5v10z"/><path style="opacity:1" fill="#a7a7a7" d="M117.5 25.5h16c.284 1.915-.049 3.581-1 5v-4h-4v4h-11v-5z"/><path style="opacity:1" fill="#545454" d="M132.5 30.5h-4v-4h4v4z"/><path style="opacity:1" fill="#a7a7a7" d="M142.5 25.5c3.36.116 6.693.45 10 1v4h6v-4h4c-.268 1.599.066 2.932 1 4v5h-5v10h-5v-5h-5v-10h-10c-.951-1.419-1.284-3.085-1-5h5z"/><path style="opacity:1" fill="#b3b3b3" d="M178.5 25.5v5h-10v-10h5v5h5z"/><path style="opacity:1" fill="#cacaca" d="M213.5 30.5h-10v-5h5v-5h5v10z"/><path style="opacity:1" fill="#7c7c7c" d="M21.5 30.5v5h-5v-5h5z"/><path style="opacity:1" fill="#1b1b1b" d="M21.5 30.5h5v5h-5v-5z"/><path style="opacity:1" fill="#ececec" d="M52.5 25.5h5v5h5v5h-10v-5h-10v-9h4v4h6z"/><path style="opacity:1" fill="#8b8b8b" d="M62.5 30.5h4v5h-4v-5z"/><path style="opacity:1" fill="#555" d="M1.5 30.5h5v10h-5v-10z"/><path style="opacity:1" fill="#313131" d="M41.5 40.5h-5v5h-9v-4c1.599.268 2.932-.066 4-1 .934-1.068 1.268-2.401 1-4h9v4z"/><path style="opacity:1" fill="#4a4a4a" d="M46.5 30.5h6v10h-6v-10z"/><path style="opacity:1" fill="#9f9f9f" d="M52.5 35.5h10v5h-10v-5z"/><path style="opacity:1" fill="#727272" d="M117.5 35.5h5v6h-5v-6z"/><path style="opacity:1" fill="#040404" d="M461.5 247.5h-22a57.15 57.15 0 0 0-1-15c-.607.124-.94.457-1 1-7.277 8.435-16.277 14.269-27 17.5-13.933 2.239-26.933.073-39-6.5l4-2v-5h-5c-.79 1.109-1.29 2.442-1.5 4-.671-.752-1.504-1.086-2.5-1a46.081 46.081 0 0 0-5.5-6 24.935 24.935 0 0 1-.5-7c-1.967.239-3.801-.094-5.5-1a98.558 98.558 0 0 1-5.5-12 21.435 21.435 0 0 0 1-7h-3v-5h3v-5h-4a102.171 102.171 0 0 1 3-30 60.589 60.589 0 0 1 5-10h6c.295-2.235-.039-4.235-1-6-.438.065-.772-.101-1-.5 5.528-7.847 12.695-13.681 21.5-17.5.483.948.649 1.948.5 3h5v-5h9c-.284 1.915.049 3.581 1 5h5c.951-1.419 1.284-3.085 1-5h8c11.288 2.976 20.621 8.976 28 18-.131.876.202 1.543 1 2 1-37.661 1.333-75.327 1-113h22v209z"/><path style="opacity:1" fill="#6e6e6e" d="M462.5 37.5c.333 70.169-.001 140.169-1 210v-209h-22c.333 37.673 0 75.339-1 113-.798-.457-1.131-1.124-1-2a3137.295 3137.295 0 0 0 1-112h24z"/><path style="opacity:1" fill="#ddd" d="M462.5 37.5c.667 34.998 1 70.165 1 105.5 0 35.506-.667 70.673-2 105.5v-1c.999-69.831 1.333-139.831 1-210z"/><path style="opacity:1" fill="#a5a5a5" d="M183.5 30.5h5v6h-5v4h-10v-5h10v-5z"/><path style="opacity:1" fill="#d4d4d4" d="M46.5 35.5v5h16v5c-.934-1.068-1.268-2.401-1-4h-24v4h4v6h-9c-1.765-.961-3.765-1.295-6-1v-4c3.542.313 6.875-.02 10-1v-5h5c.951-1.419 1.285-3.085 1-5h4z"/><path style="opacity:1" fill="#9e9e9e" d="M92.5 30.5h10v5h5v1h-4v4h4c-1.068.934-2.401 1.268-4 1 .268 1.599-.066 2.932-1 4-1.419.951-3.085 1.285-5 1v-6h4v-4c-3.213.31-6.213-.023-9-1v-5z"/><path style="opacity:1" fill="#f7f7f7" d="M87.5 25.5v5h4c-.284 1.915.049 3.581 1 5 2.787.977 5.787 1.31 9 1v4h-4v6c1.915.285 3.581-.049 5-1 .934-1.068 1.268-2.401 1-4 1.599.268 2.932-.066 4-1v-5c.979 3.125 1.313 6.458 1 10h4v5h5v25h-10v10c-1.915-.284-3.581.049-5 1-.951 1.419-1.284 3.085-1 5h-3v-10h-6v10c1.419.951 3.085 1.284 5 1v9h5v-9c1.915.284 3.581-.049 5-1 .951-1.419 1.284-3.085 1-5 1.599.268 2.932-.066 4-1v-4h5v5h4c.134 1.791-.199 3.458-1 5a5.727 5.727 0 0 1-1 3l-2-3h-5v5h-5v5h5v5c.317 3.672-1.349 5.338-5 5a21.435 21.435 0 0 0 1 7c-1.23 1.797-1.896 3.797-2 6-.967 1.306-2.301 1.973-4 2v5h-5c-.032 2.576.635 4.909 2 7a47.776 47.776 0 0 0-5 12c-.617.111-1.117.444-1.5 1a12.935 12.935 0 0 1-.5-5h-5v-5h-6v5h-5c-.165 3.35.002 6.683.5 10 1.7.906 3.533 1.239 5.5 1v9h-5v-5h-10v-5h-10v-5h10c1.419.951 3.085 1.284 5 1v-6h-10v-5h14v-4h-9v-6h-20c.285-1.915-.049-3.581-1-5v-4c1.915.284 3.581-.049 5-1 1.333-1.667 1.333-3.333 0-5-2.787-.977-5.787-1.31-9-1v-3c1.599.268 2.932-.066 4-1 .951-1.419 1.285-3.085 1-5h4v5h6v-5h-5v-5h-5v-10h10v5h5v5h10v-5h5v10h5v5h5v-15h-9v-5h4v-5h-9v-5c3.41.116 4.744-1.55 4-5h-5v-5h-5v-5c4 .667 5.667-1 5-5h5v-6h-11v5h-5c-.313 3.542.02 6.875 1 10 1.068.934 2.401 1.268 4 1v9c-3.213-.31-6.213.023-9 1-.934 1.068-1.268 2.401-1 4h-4v-10h-5v-4h10v-11h-6v5h-14v-10h-5v-4h9v-6h-4v-4h24c-.268 1.599.066 2.932 1 4h5v5c4.159 2.086 6.159.752 6-4h3v4h16v-9c-3.462-.982-7.129-1.315-11-1v5h-4v-9c1.915.285 3.581-.049 5-1v-5h-5c-.951 1.419-1.284 3.085-1 5h-8v-4h4v-6h15z"/><path style="opacity:1" fill="#676767" d="M107.5 36.5v4h-4v-4h4z"/><path style="opacity:1" fill="#999" d="M77.5 30.5h5v5h-5v-5z"/><path style="opacity:1" fill="#555" d="M62.5 35.5h10a113.75 113.75 0 0 1-1 15h-4v-5h-5v-10z"/><path style="opacity:1" fill="#575757" d="M102.5 45.5h-4v-4h4v4z"/><path style="opacity:1" fill="#a7a7a7" d="M138.5 41.5h4v4h-4v-4z"/><path style="opacity:1" fill="#888" d="M21.5 41.5h-4v4h9v-5h5c-1.068.934-2.401 1.268-4 1v4h9c-3.125.98-6.458 1.313-10 1v4h-5v-4h-10v4h-5v-9h5v4h5v-5c1.915-.285 3.581.049 5 1z"/><path style="opacity:1" fill="#1c1c1c" d="M21.5 41.5v4h-4v-4h4z"/><path style="opacity:1" fill="#bbb" d="M203.5 30.5v5h-5v15h-5v-5h-5v-5h5v-5h4v-5h-4v-15h5v15h5z"/><path style="opacity:1" fill="#dadada" d="M289.5 30.5h10v11h-4v5h-6v4h6v10h4v6h-5v-6h-5v-9h-10v-11h5v5h5v-5h5v-4h-5v-6z"/><path style="opacity:1" fill="#262626" d="M51.5 46.5v4h-4v-4h4z"/><path style="opacity:1" fill="#d4d4d4" d="M77.5 30.5v5h5c-1.419.951-3.085 1.285-5 1v9h4v-5c3.871-.315 7.538.018 11 1h-5v9h-11v-4h-3c.159 4.752-1.841 6.086-6 4h4a113.75 113.75 0 0 0 1-15h4c-.284-1.915.049-3.581 1-5z"/><path style="opacity:1" fill="#585858" d="M92.5 41.5v9h-5v-9h5z"/><path style="opacity:1" fill="#e2e2e2" d="M203.5 35.5c-1.068.934-2.401 1.268-4 1v14h4v6h-5v-5h-5v4h-15v-10h15v5h5v-15h5z"/><path style="opacity:1" fill="#d1d1d1" d="M254.5 35.5h10v6h-5v4h5v6c-4.438 1.075-6.438-.592-6-5h-10v-6h6v-5z"/><path style="opacity:1" fill="#c8c8c8" d="M268.5 45.5h6v6h-6v-6z"/><path style="opacity:1" fill="#dfdfdf" d="M319.5 45.5h6v5c4-.667 5.667 1 5 5 4.408-.438 6.075 1.562 5 6h-6v-5h-5v-5h-4v5h-11v-6h10v-5z"/><path style="opacity:1" fill="#f3f3f3" d="M17.5 46.5h4v4h5v5c-1.915-.285-3.581.049-5 1h-4v-10z"/><path style="opacity:1" fill="#6f6f6f" d="M51.5 46.5c.934 1.068 1.268 2.401 1 4 1.419.951 3.085 1.285 5 1v4h-6v-4c-1.599.268-2.932-.066-4-1h4v-4z"/><path style="opacity:1" fill="#b1b1b1" d="M112.5 50.5v6h-5v-5h-5v14h10c-3.462.982-7.129 1.315-11 1v-5h-4v-11h15z"/><path style="opacity:1" fill="#9d9d9d" d="M-.5 51.5c1.676.683 2.343 2.017 2 4h10c-2.787.977-5.787 1.31-9 1 .313 3.542-.02 6.875-1 10 .569-3.83-.098-7.163-2-10v-5z"/><path style="opacity:1" fill="#ababab" d="M51.5 46.5h-4v4c1.068.934 2.401 1.268 4 1v4h6v-4c-1.915.285-3.581-.049-5-1h10v6h-15c.268 1.599-.066 2.932-1 4-1.419.951-3.085 1.285-5 1v-6h5v-10c1.915-.285 3.581.049 5 1z"/><path style="opacity:1" fill="#515151" d="M112.5 56.5v9h-10v-14h5v5h5z"/><path style="opacity:1" fill="#5f5f5f" d="M16.5 46.5v20h-4v9h4v1h-5v-11c-4.438-1.075-6.438.592-6 5h-4v5c-.342.838-1.008 1.172-2 1v-10h2c.98-3.125 1.313-6.458 1-10 3.213.31 6.213-.023 9-1v-9h5z"/><path style="opacity:1" fill="#bababa" d="M138.5 57.5c-.961-1.765-1.295-3.765-1-6h-5c-.44 3.678.227 7.012 2 10 .268 1.599-.066 2.932-1 4v-4h-5c.284 1.915-.049 3.581-1 5v-6h-9c.295 2.235-.039 4.235-1 6v-21c1.967-.24 3.801.094 5.5 1 .498 2.982.665 5.982.5 9h4a55.154 55.154 0 0 1 1-14.5c1.612-.72 3.112-.554 4.5.5.498 2.982.665 5.982.5 9h5v7z"/><path style="opacity:1" fill="#d3d3d3" d="M238.5 50.5h6a50.464 50.464 0 0 1-.5 10c-1.699.906-3.533 1.24-5.5 1v-11z"/><path style="opacity:1" fill="#f9f9f9" d="M31.5 65.5h-4v-9h4v9z"/><path style="opacity:1" fill="#484848" d="M46.5 60.5h-4v-4h4v4z"/><path style="opacity:1" fill="#848484" d="M138.5 57.5c.758 2.481.758 5.148 0 8 1.291-.237 2.291.096 3 1h-4v-5h-3c-1.773-2.988-2.44-6.322-2-10h5c-.295 2.235.039 4.235 1 6z"/><path style="opacity:1" fill="#9e9e9e" d="M223.5 55.5h5v5h-9v-4c1.599.268 2.932-.066 4-1z"/><path style="opacity:1" fill="#c2c2c2" d="M16.5 46.5h1v10h4v5c1.915.285 3.581-.049 5-1h1v5h4c-1.419.951-3.085 1.284-5 1v5h-9c.285 1.915-.049 3.581-1 5v-30z"/><path style="opacity:1" fill="#838383" d="M127.5 66.5h-5v5h-5v-5c.961-1.765 1.295-3.765 1-6h9v6z"/><path style="opacity:1" fill="#ddd" d="M-.5 56.5c1.902 2.837 2.569 6.17 2 10h-2v-10z"/><path style="opacity:1" fill="#0b0b0b" d="M134.5 61.5h3v5h4c2.088 1.836 3.421 4.169 4 7-.098 2.053.569 3.72 2 5-.683 1.677-2.017 2.343-4 2 .31-3.213-.023-6.213-1-9h-4c-.977 2.787-1.31 5.787-1 9h-4v-4h-4v-3c.838-.342 1.172-1.008 1-2h3v-6c.934-1.068 1.268-2.401 1-4z"/><path style="opacity:1" fill="#b8b8b8" d="M274.5 61.5h5v4h-5v-4z"/><path style="opacity:1" fill="#f4f4f4" d="M46.5 86.5v4h-5v6h-4v-10h5c.285-1.915-.049-3.581-1-5h-4c-.934 1.068-1.268 2.401-1 4h-10v5h-4c.268-1.599-.066-2.932-1-4h-5v5h-5v5h-5v-5c-1.419-.951-3.085-1.284-5-1 .554-3.512-.112-6.512-2-9v-5c.992.172 1.658-.162 2-1 .934-1.068 1.268-2.401 1-4h9v5h5c.951-1.419 1.285-3.085 1-5h15v-5h4v5h5v5h5v10z"/><path style="opacity:1" fill="#b6b6b6" d="M67.5 66.5v-5h-5v9c-.98-3.125-1.313-6.458-1-10h5v-5h11v6h-5c.667 4-1 5.667-5 5z"/><path style="opacity:1" fill="#3e3e3e" d="M67.5 56.5h4v4h-4v-4z"/><path style="opacity:1" fill="#646464" d="M67.5 66.5v5h-1c-1.599.268-2.932-.066-4-1v-9h5v5z"/><path style="opacity:1" fill="#656565" d="M133.5 65.5v6h-3a20.512 20.512 0 0 0 3-6z"/><path style="opacity:1" fill="#aaa" d="M213.5 65.5h5v6h-5v-6z"/><path style="opacity:1" fill="#080808" d="M499.5 67.5c16.43-1.474 22.93 5.86 19.5 22-5.643 8.021-13.143 10.188-22.5 6.5-7.094-6.056-8.76-13.39-5-22 2.256-2.764 4.923-4.931 8-6.5z"/><path style="opacity:1" fill="#9b9b9b" d="M11.5 71.5h-9c.268 1.599-.066 2.932-1 4v-5h4c-.438-4.408 1.562-6.075 6-5v6z"/><path style="opacity:1" fill="#bebebe" d="M92.5 66.5v5h-10v5c-.951-1.419-1.284-3.085-1-5h-4v-5h5v4h5v-4h5z"/><path style="opacity:1" fill="#cecece" d="M133.5 65.5a20.512 20.512 0 0 1-3 6c.172.992-.162 1.658-1 2a33.299 33.299 0 0 0-3 7c-2.316 3.643-4.316 7.31-6 11 .801-1.542 1.134-3.209 1-5h-4v-5h-5c1.419-.951 3.085-1.284 5-1v-4h-9v9h4c-1.068.934-2.401 1.268-4 1 .284 1.915-.049 3.581-1 5v-5h-5c1.419-.951 3.085-1.284 5-1v-10h10v-4h5v-5h5c.951-1.419 1.284-3.085 1-5h5v4z"/><path style="opacity:1" fill="#d1d1d1" d="M138.5 30.5h10v10h5v10c-1.419.951-3.085 1.285-5 1v9h9c.204-3.018.537-6.018 1-9 1.599.268 2.932-.066 4-1v-4c-1.599.268-2.932-.066-4-1h5v20h4v-5h11v5h10v-4h-5v-6h5v5h5v5h5v-5h5v6h-4v5h-6v-5h-5v5h-10v-5h-10v5h-5v4h5v6h-6v-5h-4v-6h4v-4h-5v-5h-10v-11h5v-9h-5v-10c-3.213.31-6.213-.023-9-1z"/><path style="opacity:1" fill="#a3a3a3" d="M153.5 50.5h9c-1.068.934-2.401 1.268-4 1a104.653 104.653 0 0 0-1 9h-9v-9c1.915.285 3.581-.049 5-1z"/><path style="opacity:1" fill="#6e6e6e" d="M153.5 45.5h5c1.068.934 2.401 1.268 4 1v4h-9v-5z"/><path style="opacity:1" fill="#272727" d="M16.5 66.5v9h-4v-9h4z"/><path style="opacity:1" fill="#a8a8a8" d="M26.5 50.5c2.235-.295 4.235.039 6 1v4h5v10h14v-5h6v11h-10v4h5v10h4c-.268-1.599.066-2.932 1-4 2.787-.977 5.787-1.31 9-1h6v6h-15v5h-6v-5h-5v-10h-5v-5h-5v-5h-4v5h-6v-5c1.915.284 3.581-.049 5-1v-9h-4v4h-1c-1.419.951-3.085 1.285-5 1v-5c1.419-.951 3.085-1.285 5-1v-5z"/><path style="opacity:1" fill="#666" d="M32.5 60.5h4v5h-4v-5z"/><path style="opacity:1" fill="#636363" d="M26.5 60.5h-4v-4h4v4z"/><path style="opacity:1" fill="#525252" d="M27.5 51.5h4v4h-4v-4z"/><path style="opacity:1" fill="#9b9b9b" d="M67.5 71.5h5v5h-5v-5z"/><path style="opacity:1" fill="#858585" d="M87.5 71.5v4h10v1h-15v-5h5z"/><path style="opacity:1" fill="#525252" d="M92.5 66.5h5v9h-10v-4h5v-5z"/><path style="opacity:1" fill="#c2c2c2" d="M97.5 66.5c.934 1.068 1.268 2.401 1 4h4v6h-5v-10z"/><path style="opacity:1" fill="#a2a2a2" d="M147.5 78.5c-1.431-1.28-2.098-2.947-2-5 2.166 2.54 3.166 1.873 3-2h5v5c-2.582-.475-4.582.192-6 2z"/><path style="opacity:1" fill="#5d5d5d" d="M142.5 71.5c.977 2.787 1.31 5.787 1 9 1.983.343 3.317-.323 4-2 .838.342 1.172 1.008 1 2-1.765.961-3.765 1.295-6 1v-10z"/><path style="opacity:1" fill="#6f6f6f" d="M163.5 76.5h4v4h-4v-4z"/><path style="opacity:1" fill="silver" d="M234.5 71.5h4v9h-4v-9z"/><path style="opacity:1" fill="#d6d6d6" d="M294.5 91.5h-6v-4h-4v-6h-5v5h-4v5h-6v-10h-6v-5h-4v5h-16v-5h15c-1-5 1-7 6-6v5c3.35-.165 6.683.002 10 .5.88 1.356 1.214 2.856 1 4.5h3v-4h6v4h5v5h5v6z"/><path style="opacity:1" fill="#737373" d="M27.5 76.5h4v4h-4v-4z"/><path style="opacity:1" fill="#585858" d="M47.5 76.5h4v5h-4v-5z"/><path style="opacity:1" fill="#696969" d="M138.5 71.5v10h-5v4h9v1h-10v-5a19.24 19.24 0 0 1-6-1 33.299 33.299 0 0 1 3-7v3h4v4h4c-.31-3.213.023-6.213 1-9z"/><path style="opacity:1" fill="#c6c6c6" d="M213.5 81.5h-4v4h4c-1.419.951-3.085 1.284-5 1v10h-15v-5h5v-5h-5v-6h5v-4h5v5h-4v4h9v-5c1.915-.284 3.581.049 5 1z"/><path style="opacity:1" fill="#696969" d="M112.5 81.5v4h-4v-9h9v4c-1.915-.284-3.581.049-5 1z"/><path style="opacity:1" fill="#0c0c0c" d="M126.5 80.5a19.24 19.24 0 0 0 6 1v5h10v5h-4c-.979 3.125-1.313 6.458-1 10h-15v10h10c1.679-.215 2.679.452 3 2-.838.342-1.172 1.008-1 2a65.75 65.75 0 0 1-3 7c-1.793 1.926-2.793 4.259-3 7-1.174 1.014-1.84 2.347-2 4a44.093 44.093 0 0 0-2 3 112.33 112.33 0 0 0-2-5h-10v5c3.125.979 6.458 1.313 10 1v5c-1.236 2.149-2.236 4.482-3 7-.838.342-1.172 1.008-1 2-8.184.326-16.184-.008-24-1a47.776 47.776 0 0 1 5-12c2.592-1.536 3.592-3.869 3-7h5a21.435 21.435 0 0 0-1-7c.104-2.203.77-4.203 2-6 .967-1.306 2.301-1.973 4-2v-5h5v-5c-.421-4.242.246-8.242 2-12a5.727 5.727 0 0 0 1-3c1.684-3.69 3.684-7.357 6-11z"/><path style="opacity:1" fill="#474747" d="M6.5 81.5h5v5h-5v-5z"/><path style="opacity:1" fill="#454545" d="M57.5 81.5h10v4h-10v-4z"/><path style="opacity:1" fill="#dadada" d="M138.5 71.5h4v14h-9v-4h5v-10z"/><path style="opacity:1" fill="#939393" d="M183.5 81.5h5v5h-5v-5z"/><path style="opacity:1" fill="#8c8c8c" d="M213.5 81.5v4h-4v-4h4z"/><path style="opacity:1" fill="#505050" d="M52.5 86.5h4v4h-4v-4z"/><path style="opacity:1" fill="#676767" d="M92.5 86.5h5v5h-5v-5z"/><path style="opacity:1" fill="#a6a6a6" d="M-.5 81.5c1.888 2.488 2.554 5.488 2 9 1.915-.284 3.581.049 5 1h-5v5l-2-5v-10z"/><path style="opacity:1" fill="#898989" d="M102.5 86.5h5v5h-5v-5z"/><path style="opacity:1" fill="#5a5a5a" d="M21.5 86.5v5h5v5h-15v-5h5v-5h5z"/><path style="opacity:1" fill="#d4d4d4" d="M102.5 86.5v5h5c-1.419.951-3.085 1.284-5 1v9h-5v-9c-1.915.284-3.581-.049-5-1h5v-5h-5v-5h6v10h3c-.284-1.915.049-3.581 1-5z"/><path style="opacity:1" fill="#151515" d="M148.5 86.5h3a16.336 16.336 0 0 1 2 5v10h-5v-15z"/><path style="opacity:1" fill="#363636" d="M6.5 91.5v5h-5v-5h5z"/><path style="opacity:1" fill="#5a5a5a" d="M57.5 91.5h5v5-5h-5z"/><path style="opacity:1" fill="#e2e2e2" d="M66.5 71.5h1v5h10c.744 3.45-.59 5.116-4 5v5h9v5h-4v5h4v5h-5v-10h-5v5h-10v-5h-5v-5h15v-6h-6v-9z"/><path style="opacity:1" fill="#616161" d="M117.5 91.5v5h-5v-5h5z"/><path style="opacity:1" fill="#5c5c5c" d="M127.5 91.5h6v5h-6v-5z"/><path style="opacity:1" fill="#b3b3b3" d="M148.5 80.5c.967 1.306 2.301 1.973 4 2 .067 1.459-.266 2.792-1 4h-8a19.372 19.372 0 0 1-1 8c-1.189.929-2.522 1.262-4 1v-4h4v-10c2.235.295 4.235-.039 6-1z"/><path style="opacity:1" fill="#d8d8d8" d="M147.5 86.5v15h-9v-6c1.478.262 2.811-.071 4-1a19.372 19.372 0 0 0 1-8h4z"/><path style="opacity:1" fill="#a0a0a0" d="M183.5 96.5h-15v-5h-5v-5h10v5h10v5z"/><path style="opacity:1" fill="#b0b0b0" d="M218.5 86.5h5v10h-10v-5h5v-5z"/><path style="opacity:1" fill="#bdbdbd" d="M229.5 96.5c-.951-1.419-1.284-3.085-1-5 1.765-.961 3.765-1.295 6-1v6h-5z"/><path style="opacity:1" fill="#aaa" d="M238.5 91.5h5v5h-5v-5z"/><path style="opacity:1" fill="#d3d3d3" d="M294.5 91.5h5v15h-5v-5h-10v-5h10v-5z"/><path style="opacity:1" fill="#818181" d="M77.5 96.5h-5v-5h5v5z"/><path style="opacity:1" fill="#f8f8f8" d="m-.5 91.5 2 5h5v5h5v10h5c-.313 3.542.02 6.875 1 10h4v5c1.419.951 3.085 1.284 5 1v9h-5v9h-4c.268-1.599-.066-2.932-1-4h-4v-4c1.599.268 2.932-.066 4-1v-4c-3.125-.979-6.458-1.313-10-1v-10h-7v-30z"/><path style="opacity:1" fill="#282828" d="M6.5 96.5h5v5h-5v-5z"/><path style="opacity:1" fill="#f7f7f7" d="M11.5 96.5h15v5h-15v-5z"/><path style="opacity:1" fill="#bfbfbf" d="M37.5 81.5v4h4v-4c.951 1.419 1.285 3.085 1 5h-5v10h4v5h-4v5h4v5h5c-1.068.934-2.401 1.268-4 1v3c3.213-.31 6.213.023 9 1h-9v5h9c-1.419.951-3.085 1.284-5 1v4h-5v-10h-4v-5h-5c1.068-.934 2.401-1.268 4-1v-14h-9c.285 1.915-.049 3.581-1 5v-10h-5v-5c.934 1.068 1.268 2.401 1 4h4v-5h10c-.268-1.599.066-2.932 1-4z"/><path style="opacity:1" fill="#636363" d="M27.5 86.5h9v5a104.613 104.613 0 0 0-9-1v-4z"/><path style="opacity:1" fill="#232323" d="M37.5 81.5h4v4h-4v-4z"/><path style="opacity:1" fill="#575757" d="M41.5 101.5v-5c.951-1.419 1.285-3.085 1-5h4v10h-5z"/><path style="opacity:1" fill="#737373" d="M62.5 96.5h10v5h-10v-5z"/><path style="opacity:1" fill="#cfcfcf" d="m117.5 91.5 2 3c-1.754 3.758-2.421 7.758-2 12h-5v-5h-5v-5h10v-5z"/><path style="opacity:1" fill="#8e8e8e" d="M147.5 86.5h1v15h5v-10h10v10h-5v5h-11v-20z"/><path style="opacity:1" fill="#9d9d9d" d="M183.5 96.5h5v10h-10v-5h5v-5z"/><path style="opacity:1" fill="#b5b5b5" d="M263.5 96.5h6v5h-5v5h-5v-5h4v-5z"/><path style="opacity:1" fill="#868686" d="M11.5 101.5h1v9h4v-9h10v5h-5v5h5v4c-1.791-.134-3.458.199-5 1v-4h-4v9c-.98-3.125-1.313-6.458-1-10h-5v-10z"/><path style="opacity:1" fill="#5b5b5b" d="M41.5 101.5v5h-4v-5h4z"/><path style="opacity:1" fill="#a9a9a9" d="M82.5 96.5h5v15h-5v-5h-5v-5h5v-5z"/><path style="opacity:1" fill="#b1b1b1" d="M137.5 101.5v5h-15v-5h15z"/><path style="opacity:1" fill="#0d0d0d" d="M138.5 101.5h9v5h11v5h-5c-.951 1.419-1.284 3.085-1 5h-4v-5h-5c.284-1.915-.049-3.581-1-5h-4v-5z"/><path style="opacity:1" fill="#626262" d="M32.5 96.5v10h-6v-5c.951-1.419 1.285-3.085 1-5h5z"/><path style="opacity:1" fill="#f6f6f6" d="M32.5 96.5h4v14c-1.599-.268-2.932.066-4 1-.951 1.419-1.285 3.085-1 5h-4v-10h5v-10z"/><path style="opacity:1" fill="#7e7e7e" d="M138.5 91.5v15h4v1h-4c-.529 2.284-1.529 4.284-3 6-.321-1.548-1.321-2.215-3-2-1.419-.951-3.085-1.284-5-1v-4h10v-5c-.313-3.542.021-6.875 1-10z"/><path style="opacity:1" fill="#8e8e8e" d="M1.5 106.5h5v5h-5v-5z"/><path style="opacity:1" fill="#232323" d="M12.5 101.5h4v9h-4v-9z"/><path style="opacity:1" fill="#4d4d4d" d="M41.5 106.5h5v5-5h-5z"/><path style="opacity:1" fill="#cecece" d="M46.5 86.5h5v5h-4v10h5v5h5v5h-6v-5h-4c.285 1.915-.049 3.581-1 5v-5h-5v-5h5v-10h-4c.285 1.915-.049 3.581-1 5v-6h5v-4z"/><path style="opacity:1" fill="#525252" d="M122.5 106.5h5v4c1.915-.284 3.581.049 5 1h-10v-5z"/><path style="opacity:1" fill="#d8d8d8" d="M188.5 106.5h11v10h9v5h-5v5h-10v-15h-15c3.125-.979 6.458-1.313 10-1v-4z"/><path style="opacity:1" fill="#363636" d="M26.5 106.5v5h-5v-5h5z"/><path style="opacity:1" fill="#2b2b2b" d="M21.5 116.5v5h-4v-9h4v4z"/><path style="opacity:1" fill="#c5c5c5" d="M26.5 106.5h1v10h4c-.285-1.915.049-3.581 1-5h5v5c-1.419.951-3.085 1.284-5 1v4h-11v-5c1.542-.801 3.209-1.134 5-1v-9z"/><path style="opacity:1" fill="#5b5b5b" d="M32.5 111.5h5v5h-5v-5z"/><path style="opacity:1" fill="#939393" d="M112.5 106.5h5v5h-5v5c-1.699.027-3.033.694-4 2a21.435 21.435 0 0 1-1-7c3.651.338 5.317-1.328 5-5z"/><path style="opacity:1" fill="#4c4c4c" d="M142.5 106.5c.951 1.419 1.284 3.085 1 5h5v5h4c-.284-1.915.049-3.581 1-5v10h-6v-5h-4v6a109.898 109.898 0 0 0-4-11h3v-5z"/><path style="opacity:1" fill="#ededed" d="M153.5 112.5h4v4h-4v-4z"/><path style="opacity:1" fill="#0c0c0c" d="M158.5 111.5c4-.667 5.667 1 5 5-.979 3.125-1.313 6.458-1 10h-4v5h-5v-5h-6c.237 1.291-.096 2.291-1 3-1.431-1.28-2.098-2.947-2-5 .172-.992-.162-1.658-1-2v-6h4v5h11v-10z"/><path style="opacity:1" fill="#9f9f9f" d="M178.5 111.5h10v5h-10v-5z"/><path style="opacity:1" fill="#e6e6e6" d="M228.5 91.5c-.284 1.915.049 3.581 1 5v5h-5v4h14v10h5v-4h6v-5h5v11h-10v4h-10v12h4c-.302-2.559.032-4.893 1-7 .306 2.885-.027 5.552-1 8h-5v7a104.618 104.618 0 0 0-9-1v-6c-1.788-.285-3.455.048-5 1 .124.607.457.94 1 1a5.727 5.727 0 0 0 1 3 31.106 31.106 0 0 0 3 5c1.1 1.105 1.767 2.438 2 4v2a19.602 19.602 0 0 1-2-3.5 18.453 18.453 0 0 0-6-.5v-4c-1.915.284-3.581-.049-5-1h5v-8a9.86 9.86 0 0 0 6-1c-1.938-3.657-.938-5.657 3-6-.765-5.406 1.569-7.406 7-6v-8h-5c.214 1.644-.12 3.144-1 4.5-3.527.808-6.86.641-10-.5h-5v-10h-5v-5h15v-15h-5c1.419-.951 3.085-1.284 5-1v-5h6v6h-5v10h3c-.284-1.915.049-3.581 1-5z"/><path style="opacity:1" fill="#b3b3b3" d="M218.5 116.5v-5h5v-5h11c.214 1.644-.12 3.144-1 4.5a70.523 70.523 0 0 1-9 1.5v4h-6z"/><path style="opacity:1" fill="#a5a5a5" d="M168.5 106.5h5v10h-5v-10z"/><path style="opacity:1" fill="#b6b6b6" d="M82.5 111.5v5h-10v15c-.98-3.125-1.313-6.458-1-10h-4v-10h15z"/><path style="opacity:1" fill="#646464" d="M134.5 115.5c.321 1.548 1.321 2.215 3 2v4c-2.121-.175-4.121.159-6 1a65.75 65.75 0 0 0 3-7z"/><path style="opacity:1" fill="#fbfbfb" d="M37.5 116.5h4v10h-4v-5h-5v-4c1.915.284 3.581-.049 5-1z"/><path style="opacity:1" fill="#797979" d="M51.5 116.5c1.333 1.667 1.333 3.333 0 5h-9v-5h9z"/><path style="opacity:1" fill="#7d7d7d" d="M57.5 116.5h5v10h-5v-10z"/><path style="opacity:1" fill="#6b6b6b" d="M122.5 126.5v-10h6v5h-5c.284 1.915-.049 3.581-1 5z"/><path style="opacity:1" fill="#8d8d8d" d="M153.5 112.5v-1h5v10h-5v-5h4v-4h-4z"/><path style="opacity:1" fill="#515151" d="M21.5 121.5h16v10h-6v-5h-10v-5z"/><path style="opacity:1" fill="#757575" d="M72.5 121.5h5v5h5v5h-10v-10z"/><path style="opacity:1" fill="#cfcfcf" d="M112.5 116.5h5v5h5v5h-10v-10z"/><path style="opacity:1" fill="#dbdbdb" d="M142.5 107.5v4h-3a109.898 109.898 0 0 1 4 11c.838.342 1.172 1.008 1 2-1.703-1.16-2.369-.493-2 2h-4v5h-5c-2.281.423-3.948-.244-5-2 .207-2.741 1.207-5.074 3-7 1.879-.841 3.879-1.175 6-1v-4c-1.679.215-2.679-.452-3-2-.172-.992.162-1.658 1-2 1.471-1.716 2.471-3.716 3-6h4z"/><path style="opacity:1" fill="#858585" d="M173.5 121.5h5v5h-5v-5z"/><path style="opacity:1" fill="#cacaca" d="M299.5 121.5h10v5h-10v-5z"/><path style="opacity:1" fill="#f2f2f2" d="M144.5 124.5c-.098 2.053.569 3.72 2 5 .16 1.653.826 2.986 2 4v8c1.459-.067 2.792.266 4 1a26.335 26.335 0 0 0 2 5c0 .667.333 1 1 1 .734 1.208 1.067 2.541 1 4v4h-3v-5c-4.982.553-9.982.887-15 1v4h9v5h-10v5h-4c-1.044-4.682-1.211-9.349-.5-14-4.864-.324-9.364-1.324-13.5-3 .764-2.518 1.764-4.851 3-7h10v4h10v-9h-5v4h-4v-10h5v-5h4c-.369-2.493.297-3.16 2-2z"/><path style="opacity:1" fill="#646464" d="M106.5 124.5a21.435 21.435 0 0 1 1 7h-5v-5c1.699-.027 3.033-.694 4-2z"/><path style="opacity:1" fill="#d2d2d2" d="M82.5 131.5v-5h9v-4h-4v-10h5v8h5v7h-5v4h-10z"/><path style="opacity:1" fill="#797979" d="M163.5 116.5v10c1.992.172 3.658-.495 5-2 .798.457 1.131 1.124 1 2-.951 1.419-1.284 3.085-1 5h-5v5h-5v-10h4c-.313-3.542.021-6.875 1-10z"/><path style="opacity:1" fill="#909090" d="M213.5 131.5h-5v-5h5v5z"/><path style="opacity:1" fill="#171717" d="M169.5 126.5c.838.342 1.172 1.008 1 2-.086.996.248 1.829 1 2.5a4.934 4.934 0 0 1-3 .5c-.284-1.915.049-3.581 1-5z"/><path style="opacity:1" fill="#383838" d="M388.5 131.5c7-1.333 14-1.333 21 0h-8c.284 1.915-.049 3.581-1 5v-5h-5v5c-.951-1.419-1.284-3.085-1-5h-6z"/><path style="opacity:1" fill="#585858" d="M6.5 126.5v5c3.542-.313 6.875.021 10 1h-10v4h-5v-10h5z"/><path style="opacity:1" fill="#d9d9d9" d="M208.5 131.5h5v6h-4v5h-6v-5c-4.408.438-6.075-1.562-5-6h10z"/><path style="opacity:1" fill="#030303" d="M647.5 168.5v79h-21c.331-22.506-.003-44.84-1-67 .762-22.724-10.238-32.224-33-28.5-7.487 1.828-12.654 6.328-15.5 13.5a80.563 80.563 0 0 0-3 15c-.5 22.331-.667 44.664-.5 67h-23v-112h22c-.317 4.202.017 8.202 1 12a70.851 70.851 0 0 1 10-10c2.467-.255 4.467-1.255 6-3 5.586-3.405 11.753-4.739 18.5-4 25.114.281 38.281 12.948 39.5 38z"/><path style="opacity:1" fill="#fcfcfc" d="M37.5 141.5c-1.915-.284-3.581.049-5 1-.977 2.787-1.31 5.787-1 9h-9v-4c1.644.214 3.144-.12 4.5-1 .498-2.982.665-5.982.5-9 4 .667 5.667-1 5-5h5v9z"/><path style="opacity:1" fill="#c6c6c6" d="M21.5 126.5h10v5h6v-5h4v5h5v-5c.951 1.419 1.285 3.085 1 5h10v5c-4.438-1.075-6.438.592-6 5h6v1h-5v4c-.934-1.068-1.268-2.401-1-4h-4v-6c-.934-1.068-1.268-2.401-1-4h-8v3h3v6h-4v-9h-5c.667 4-1 5.667-5 5a40.939 40.939 0 0 1-.5 9c-1.356.88-2.856 1.214-4.5 1v4h-1v-4c-1.419-.951-3.085-1.284-5-1v-5c.934 1.068 1.268 2.401 1 4h4v-9h5v-9c-1.915.284-3.581-.049-5-1z"/><path style="opacity:1" fill="#3f3f3f" d="M41.5 126.5h5v5h-5v-5z"/><path style="opacity:1" fill="#282828" d="M47.5 136.5v-4h4v4h-4z"/><path style="opacity:1" fill="gray" d="M102.5 131.5c.592 3.131-.408 5.464-3 7-1.365-2.091-2.032-4.424-2-7h5z"/><path style="opacity:1" fill="#868686" d="M122.5 131.5v1h-5v4h-5v-5h10z"/><path style="opacity:1" fill="#cacaca" d="M122.5 132.5v4h-5v-4h5z"/><path style="opacity:1" fill="#151515" d="M168.5 131.5v5h-5v-5h5z"/><path style="opacity:1" fill="#c1c1c1" d="M239.5 126.5h10v6h-5v4c4-.667 5.667 1 5 5h-11v-7c.973-2.448 1.306-5.115 1-8z"/><path style="opacity:1" fill="#cbcbcb" d="M400.5 136.5h-5v-5h5v5z"/><path style="opacity:1" fill="#585858" d="M342.5 136.5c-8-1.333-16-1.333-24 0-.543-.06-.876-.393-1-1a85.021 85.021 0 0 1 26 0c-.124.607-.457.94-1 1z"/><path style="opacity:1" fill="#6c6c6c" d="M573.5 147.5c-.983-3.798-1.317-7.798-1-12h-22v112a3193.616 3193.616 0 0 1-1-113h24v13z"/><path style="opacity:1" fill="#4a4a4a" d="M57.5 131.5h5v5h-5v-5z"/><path style="opacity:1" fill="silver" d="M153.5 131.5h5v5h-5v-5z"/><path style="opacity:1" fill="#222" d="M221.5 139.5a5.727 5.727 0 0 1-1-3c.709-.904 1.709-1.237 3-1a12.93 12.93 0 0 1-.5 5c-.383-.556-.883-.889-1.5-1z"/><path style="opacity:1" fill="#090909" d="M238.5 135.5v6c3.125.979 6.458 1.313 10 1v4c1.459-.067 2.792.266 4 1 0 .667.333 1 1 1v13c-1.599-.268-2.932.066-4 1-.979 3.125-1.313 6.458-1 10h6v-10h5l2 1a358.261 358.261 0 0 1 20 39h-7v10h5v-5h5v-5h5c.359-2.266-.308-4.099-2-5.5a115.349 115.349 0 0 0 6-13.5c.934 1.068 1.268 2.401 1 4h5a68.206 68.206 0 0 0-1-14c2.163-2.993 3.83-6.327 5-10a9.86 9.86 0 0 1 6-1v-5c1.915.284 3.581-.049 5-1v-5h-4c-.303-3.088 1.03-4.754 4-5 .934-1.068 1.268-2.401 1-4 1.599.268 2.932-.066 4-1 .284-1.915-.049-3.581-1-5 8-1.333 16-1.333 24 0a32.503 32.503 0 0 0-4 10h-4c-.294 6.583-2.294 12.583-6 18-.838.342-1.172 1.008-1 2h-8v5c-3.542-.313-6.875.021-10 1v5a72.367 72.367 0 0 1 12 .5 50.473 50.473 0 0 0-5 10.5 64.322 64.322 0 0 1-6 9 64.753 64.753 0 0 1-6 14c-1.545.952-3.212 1.285-5 1 .566 3.083.566 6.083 0 9-1.545.952-3.212 1.285-5 1a40.914 40.914 0 0 1-.5 9 47.886 47.886 0 0 0-5.5 11h-19a57.403 57.403 0 0 0-2-9c3.546-2.896 3.88-6.23 1-10a11.988 11.988 0 0 0 1-6h-5a104.788 104.788 0 0 0-1-15h-4a8.43 8.43 0 0 1-.5 4 61.858 61.858 0 0 1-4.5-9h5v-5h4v5h6v-11c-3.542-.313-6.875.021-10 1-.951 1.419-1.284 3.085-1 5h-4v-6h-5v-4h5v-6c-1.915-.284-3.581.049-5 1-.934 1.068-1.268 2.401-1 4h-4c.31-3.213-.023-6.213-1-9h-5c-.231-3.793-1.565-7.126-4-10v-10c1.599.268 2.932-.066 4-1 .951-1.419 1.284-3.085 1-5h-5v-11h4z"/><path style="opacity:1" fill="#3a3a3a" d="M515.5 247.5v-112h-21v112a3193.616 3193.616 0 0 1-1-113h23c.332 37.837-.002 75.504-1 113z"/><path style="opacity:1" d="M515.5 247.5h-21v-112h21v112z"/><path style="opacity:1" fill="#cacaca" d="M269.5 141.5v-9h-5v5h-5v5h-5c.175 2.121-.159 4.121-1 6-.667 0-1-.333-1-1 .801-1.542 1.134-3.208 1-5-1.599.268-2.932-.066-4-1h5v-5h4v-5h5v-10h11v10h10v6h-5v4h-10z"/><path style="opacity:1" fill="#515151" d="M589.5 134.5c-1.533 1.745-3.533 2.745-6 3 1.533-1.745 3.533-2.745 6-3z"/><path style="opacity:1" fill="#272727" d="M16.5 132.5v4h-5v5h-10v-5h5v-4h10z"/><path style="opacity:1" fill="#f3f3f3" d="M57.5 136.5c1.419.951 3.085 1.284 5 1v4h-11c-.438-4.408 1.562-6.075 6-5z"/><path style="opacity:1" fill="#999" d="M62.5 131.5h5v6h9v4h-14v-4c-1.915.284-3.581-.049-5-1h5v-5z"/><path style="opacity:1" fill="#595959" d="M122.5 131.5a112.33 112.33 0 0 1 2 5 44.093 44.093 0 0 1 2-3c-.219 1.175.114 2.175 1 3 .929-1.189 1.262-2.522 1-4h4v9h-10v-4c-3.542.313-6.875-.021-10-1h10v-5z"/><path style="opacity:1" fill="#9d9d9d" d="M213.5 136.5h5v5h-5v-5z"/><path style="opacity:1" fill="#191919" d="M168.5 136.5h4v5h-4v-5z"/><path style="opacity:1" fill="#a2a2a2" d="M128.5 129.5c1.052 1.756 2.719 2.423 5 2v10h4v-4h5v9h-10v-4h-10v-1h10v-9h-4c.262 1.478-.071 2.811-1 4-.886-.825-1.219-1.825-1-3 .16-1.653.826-2.986 2-4z"/><path style="opacity:1" fill="#f4f4f4" d="M-.5 142.5h12v4h-5v5c4.805.987 9.805 1.321 15 1v4h-5v5h-5v5H.5c-.667-4 1-5.667 5-5v-4a19.222 19.222 0 0 1-6-1v-14z"/><path style="opacity:1" fill="#888" d="M-.5 121.5h7v5h-5v15h10v-5h5c-1.068.934-2.401 1.268-4 1v4h4v5c1.915-.284 3.581.049 5 1h-5v4h-10v-5h5v-4h-12v-21z"/><path style="opacity:1" fill="#e6e6e6" d="M47.5 136.5v6h4c-.268 1.599.066 2.932 1 4 1.068.934 2.401 1.268 4 1v4h-10v-4a104.653 104.653 0 0 1-9-1v-5h4v-6h-3v-3h8c-.268 1.599.066 2.932 1 4z"/><path style="opacity:1" fill="#9e9e9e" d="M112.5 141.5h5v6h-5v-6z"/><path style="opacity:1" fill="#a3a4a4" d="M152.5 142.5h5v4c-1.291-.237-2.291.096-3 1a26.335 26.335 0 0 1-2-5z"/><path style="opacity:1" fill="#9e9e9e" d="M233.5 141.5v5h-4c-.934-1.068-1.268-2.401-1-4-1.983-.343-3.317.324-4 2a31.106 31.106 0 0 1-3-5c.617.111 1.117.444 1.5 1a12.93 12.93 0 0 0 .5-5c-1.291-.237-2.291.096-3 1-.543-.06-.876-.393-1-1 1.545-.952 3.212-1.285 5-1v6c3.018.204 6.018.537 9 1z"/><path style="opacity:1" fill="#838383" d="M238.5 141.5h11c1.068.934 2.401 1.268 4 1 .134 1.792-.199 3.458-1 5-1.208-.734-2.541-1.067-4-1v-4c-3.542.313-6.875-.021-10-1z"/><path style="opacity:1" fill="#c6c6c6" d="M269.5 141.5v6c-5 1-7-1-6-6h6z"/><path style="opacity:1" fill="#525252" d="M319.5 141.5c-1.068.934-2.401 1.268-4 1 .268 1.599-.066 2.932-1 4v-5h5z"/><path style="opacity:1" fill="gray" d="M188.5 142.5v4h-10v-4h10z"/><path style="opacity:1" fill="#5a5a5a" d="M238.5 134.5v1h-4v11h5c.284 1.915-.049 3.581-1 5-1.068.934-2.401 1.268-4 1v10h-1v-10c-1.915.284-3.581-.049-5-1h5v-4c-1.599.268-2.932-.066-4-1h4v-12h5z"/><path style="opacity:1" fill="#4a4a4a" d="M21.5 147.5v4h-5v-4h5z"/><path style="opacity:1" fill="#070707" d="M181.5 152.5c.838.342 1.172 1.008 1 2l1 2h-6v5h-4v-5h-5v-5h-5v-4h9c-.214 1.644.12 3.144 1 4.5 2.646.497 5.313.664 8 .5z"/><path style="opacity:1" fill="#5e5e5e" d="M153.5 131.5v5h15v5c-.934-1.068-1.268-2.401-1-4h-4v9c5.027.003 10.027.336 15 1v4h3v1a32.462 32.462 0 0 1-8-.5c-.88-1.356-1.214-2.856-1-4.5h-9v4h5v10h-1v-4c-1.599.268-2.932-.066-4-1-.934-1.068-1.268-2.401-1-4-1.599.268-2.932-.066-4-1a71.254 71.254 0 0 1-2-4c-.607.124-.94.457-1 1-.667 0-1-.333-1-1 .709-.904 1.709-1.237 3-1v-4h-5c-1.208-.734-2.541-1.067-4-1v-8c-1.174-1.014-1.84-2.347-2-4 .904-.709 1.237-1.709 1-3h6v5z"/><path style="opacity:1" fill="#e1e2e1" d="M158.5 151.5v-4h4v4h-4z"/><path style="opacity:1" fill="#030303" d="M153.5 137.5h9v9h-4v-5h-5v-4z"/><path style="opacity:1" fill="#0d0d0d" d="M148.5 133.5c.683-1.676 2.017-2.343 4-2v5h-3c.237-1.291-.096-2.291-1-3z"/><path style="opacity:1" fill="#a8a8a8" d="M170.5 128.5c1.25.077 2.083.744 2.5 2a46.94 46.94 0 0 1 1.5 11h14v1h-10v4h10c-1.419.951-3.085 1.284-5 1 .343 1.983-.324 3.317-2 4h-3v-4a113.727 113.727 0 0 0-15-1v-9h4c-.268 1.599.066 2.932 1 4h4v-5h-4v-5a4.934 4.934 0 0 0 3-.5c-.752-.671-1.086-1.504-1-2.5z"/><path style="opacity:1" fill="#070707" d="M229.5 146.5c1.068.934 2.401 1.268 4 1v4h-5c.073-1.527-.594-2.527-2-3-.233-1.562-.9-2.895-2-4 .683-1.676 2.017-2.343 4-2-.268 1.599.066 2.932 1 4z"/><path style="opacity:1" fill="#c1c1c1" d="M238.5 151.5h-4v-4h4v4z"/><path style="opacity:1" fill="#b1b1b1" d="M32.5 142.5v5h4c-.667 4 1 5.667 5 5v4h11v5h5v6c-.951-1.419-1.285-3.085-1-5h-4c.313 3.542-.02 6.875-1 10v-10h-5v10h-9v5h-5v4c3.018.204 6.018.537 9 1v5h-9v14h5v-4h4v5h-4v4c1.599-.268 2.932.066 4 1h-5v-5h-4c-.98-3.125-1.313-6.458-1-10v-5h-10v-5c.934 1.068 1.268 2.401 1 4h4c.204-3.018.537-6.018 1-9h4v-15h-5v-5h-4c.268 1.599-.066 2.932-1 4v-9c-5.195.321-10.195-.013-15-1h25c-.31-3.213.023-6.213 1-9z"/><path style="opacity:1" fill="#8d8d8d" d="M37.5 141.5v5c2.982.463 5.982.796 9 1v4h10v-4c-1.599.268-2.932-.066-4-1h9v-4h-4v-1h5v5h10v6c-1.915.284-3.581-.049-5-1h-10v5c-.934-1.068-1.268-2.401-1-4h-10v4h-5v-4c-4 .667-5.667-1-5-5h-4v-5c1.419-.951 3.085-1.284 5-1z"/><path style="opacity:1" fill="#373737" d="M67.5 151.5v-4h4v4h-4z"/><path style="opacity:1" fill="#313131" d="M57.5 142.5h4v4h-4v-4z"/><path style="opacity:1" fill="#6f6f6f" d="M57.5 142.5v4h-5v-4h5z"/><path style="opacity:1" fill="#f2f2f2" d="M188.5 141.5c.951 1.419 1.284 3.085 1 5h19v10h-5v5h5c-.268-1.599.066-2.932 1-4v4c4.408-.438 6.075 1.562 5 6 3.568-.259 4.901-2.259 4-6h5v6h-5v5h-4v5h4v4h-5v-10h-5v16h10v5h-5v5h-10v4h-4v-4c1.333 0 2-.667 2-2 1.276-2.836 1.942-5.836 2-9h-6a24.558 24.558 0 0 1-3-6c-.121-2.605-1.121-4.605-3-6a104.041 104.041 0 0 1-7-18h4v-4c-2.386-.241-4.386.425-6 2 .172-.992-.162-1.658-1-2v-1c1.676-.683 2.343-2.017 2-4 1.915.284 3.581-.049 5-1v-5z"/><path style="opacity:1" fill="#acacac" d="M193.5 147.5h10v4h-10v-4z"/><path style="opacity:1" fill="#757575" d="M329.5 156.5c-1.419.951-3.085 1.284-5 1v-6h6c.284 1.915-.049 3.581-1 5z"/><path style="opacity:1" fill="#fdfdfd" d="M32.5 152.5h4v9h-4v-9z"/><path style="opacity:1" fill="#737373" d="M87.5 146.5h5c-.16 1.699.007 3.366.5 5 .383-.556.883-.889 1.5-1 7.816.992 15.816 1.326 24 1 1.068.934 2.401 1.268 4 1v4h-5v-4h-5v4h-4v5h4c-1.419.951-3.085 1.284-5 1h-4v4h4c-1.419.951-3.085 1.284-5 1v-6h5v-9h-5v4c-3.77.256-7.436-.077-11-1 .304-.65.637-1.317 1-2-1.545-.952-3.212-1.285-5-1v-6z"/><path style="opacity:1" fill="#030303" d="M158.5 151.5c1.068.934 2.401 1.268 4 1-.268 1.599.066 2.932 1 4 1.068.934 2.401 1.268 4 1v4h-7c.237-1.291-.096-2.291-1-3-.492-2.319-1.492-4.319-3-6 .067-1.459-.266-2.792-1-4 .06-.543.393-.876 1-1a71.254 71.254 0 0 0 2 4z"/><path style="opacity:1" fill="#cfcfcf" d="M254.5 150.5c.967 1.306 2.301 1.973 4 2v4h5v-5h6v6h-5v5c-1.291-.237-2.291.096-3 1l-2-1c-1.419-.951-3.085-1.284-5-1v-11z"/><path style="opacity:1" fill="#fbfbfb" d="M371.5 207.5c.131-.876-.202-1.543-1-2a9.108 9.108 0 0 1-5 1v-4a12.93 12.93 0 0 0 5-.5c-.88-1.356-1.214-2.856-1-4.5h-4c-.934 1.068-1.268 2.401-1 4h-4v-9h8v-5c1.939-3.869 2.939-8.203 3-13 2.29-6.273 5.957-11.773 11-16.5-1.75-1.754-2.417-3.921-2-6.5h5a8.43 8.43 0 0 0 .5 4c17.387-8.825 32.72-6.159 46 8 8.352 14.948 9.685 30.615 4 47-10.127 19.786-25.96 25.953-47.5 18.5-8.105-5.268-13.772-12.435-17-21.5z"/><path style="opacity:1" fill="#494949" d="M22.5 152.5h9v4h-9v-4z"/><path style="opacity:1" fill="#424242" d="M57.5 156.5c2.787.977 5.787 1.31 9 1v4h-5v5h-4v-5h-5v-5h-6v-4h10c-.268 1.599.066 2.932 1 4z"/><path style="opacity:1" fill="#d3d3d3" d="M107.5 156.5h-5v-4h5v4z"/><path style="opacity:1" fill="#8d8d8d" d="M163.5 156.5v-4h4v4h-4z"/><path style="opacity:1" fill="#9fa0a0" d="M188.5 156.5h-5l-1-2c1.614-1.575 3.614-2.241 6-2v4z"/><path style="opacity:1" fill="#b7b7b7" d="M226.5 148.5c1.406.473 2.073 1.473 2 3 1.419.951 3.085 1.284 5 1v10h-5v-5h-5v-6c1.291.237 2.291-.096 3-1v-2z"/><path style="opacity:1" fill="#f1f1f1" d="M329.5 156.5h-4v-4h4v4z"/><path style="opacity:1" fill="#535353" d="M314.5 156.5c-1.419.951-3.085 1.284-5 1-.997.03-1.664-.47-2-1.5 1.364-3.443 2.031-3.276 2 .5h5z"/><path style="opacity:1" fill="#5d5d5d" d="M359.5 151.5c.961 1.765 1.295 3.765 1 6h-6c1.419-.951 3.085-1.284 5-1v-5z"/><path style="opacity:1" fill="#676767" d="M41.5 156.5v15h-5a89.367 89.367 0 0 0 1-15h4z"/><path style="opacity:1" fill="#fcfcfc" d="M42.5 157.5h9v4h-9v-4z"/><path style="opacity:1" fill="#0f0f0f" d="M91.5 155.5c3.564.923 7.23 1.256 11 1h5v5h-5v6c1.915.284 3.581-.049 5-1v-4c1.915.284 3.581-.049 5-1v-5c1.679-.215 2.679.452 3 2a43.355 43.355 0 0 0-3 7l-3 6c-1.713 1.135-2.38 2.802-2 5a5.727 5.727 0 0 0-1 3c-.904.709-1.237 1.709-1 3h-7v4h-6v-4h5v-10h-10v-5h5v-6h-3c.104-2.203.77-4.203 2-6z"/><path style="opacity:1" fill="#b5b5b5" d="M208.5 151.5h5v6h-4c-.934 1.068-1.268 2.401-1 4h-5v-5h5v-5z"/><path style="opacity:1" fill="#161616" d="M21.5 157.5v4h-4v-4h4z"/><path style="opacity:1" fill="#e7e7e7" d="M112.5 156.5v5h-4v-5h4z"/><path style="opacity:1" fill="#f3f3f3" d="M122.5 167.5c-3.829.569-7.163-.098-10-2a43.355 43.355 0 0 1 3-7c2.217-.869 4.55-1.202 7-1v10z"/><path style="opacity:1" fill="#999" d="M188.5 156.5h5v6h-5v-6z"/><path style="opacity:1" fill="#0f0f0f" d="M183.5 156.5h1a104.041 104.041 0 0 0 7 18v1c-.709.904-1.709 1.237-3 1v-4h-5v-16z"/><path style="opacity:1" fill="#8d8d8d" d="M57.5 156.5h10v5h5v6h-6v-5h-4v5h-5v-1h4v-5h5v-4c-3.213.31-6.213-.023-9-1z"/><path style="opacity:1" fill="#747474" d="M51.5 172.5h-5v-10h5v10z"/><path style="opacity:1" fill="#fafafa" d="M57.5 167.5h5v-5h4v5h10v9c-1.599-.268-2.932.066-4 1-.934 1.068-1.268 2.401-1 4h-9v-4h5v-5h-5v4c-3.542-.313-6.875.021-10 1v5c-5 1-7-1-6-6h-5v6a104.653 104.653 0 0 0-9-1v-4h5v-5h14c.98-3.125 1.313-6.458 1-10h4c-.285 1.915.049 3.581 1 5z"/><path style="opacity:1" fill="#626262" d="M89.5 161.5h3v6h-5c-.241-2.386.425-4.386 2-6z"/><path style="opacity:1" fill="#cdcdcd" d="M107.5 162.5v4h-4v-4h4z"/><path style="opacity:1" fill="#d4d4d4" d="M168.5 156.5h5v10h-5v-10z"/><path style="opacity:1" fill="#b2b2b2" d="M119.5 149.5c4.136 1.676 8.636 2.676 13.5 3-.711 4.651-.544 9.318.5 14h4v-5h10v-5h-9v-4a170.744 170.744 0 0 0 15-1v5h3v-4c1.508 1.681 2.508 3.681 3 6a41.73 41.73 0 0 0-1 9c-.951-1.419-1.284-3.085-1-5h-9v4c4-.667 5.667 1 5 5h9v-4c.951 1.419 1.284 3.085 1 5h-10v5h-6c1.419-.951 3.085-1.284 5-1v-4h-5v-5h-9v5h-6v-5h-10v-10c-2.45-.202-4.783.131-7 1-.321-1.548-1.321-2.215-3-2v-4h5v4h5v-4c-1.599.268-2.932-.066-4-1-.172-.992.162-1.658 1-2z"/><path style="opacity:1" fill="#797979" d="M138.5 162.5h9v4h-9v-4z"/><path style="opacity:1" fill="#f7f7f7" d="M158.5 167.5h4v4h-9c.667-4-1-5.667-5-5v-4h9c-.284 1.915.049 3.581 1 5z"/><path style="opacity:1" fill="#686868" d="M123.5 156.5h4c-1.075 4.438.592 6.438 5 6v4h-9v-10z"/><path style="opacity:1" fill="#818181" d="M183.5 156.5v16c-1.915.284-3.581-.049-5-1h4v-14h-4v10h-10v5h-5c.284-1.915-.049-3.581-1-5h-4a41.73 41.73 0 0 1 1-9c.904.709 1.237 1.709 1 3h8v5h5v-5h4v-5h6z"/><path style="opacity:1" fill="#c8c8c8" d="M178.5 171.5v-14h4v14h-4z"/><path style="opacity:1" fill="#626262" d="M-.5 167.5h12v4c-1.915-.284-3.581.049-5 1v4h-7v-9z"/><path style="opacity:1" fill="#929292" d="M-.5 156.5c1.935.65 3.935.983 6 1v4c-4-.667-5.667 1-5 5h11v-5h5v-5h5v1h-4v4h4c-1.419.951-3.085 1.284-5 1v4c1.915-.284 3.581.049 5 1h-5v5h-4v4h4c-1.068.934-2.401 1.268-4 1v4c3.213-.31 6.213.023 9 1h-10v-5h-4v9c3.213-.31 6.213.023 9 1h-10v-10h-5c.343 1.983-.324 3.317-2 4v-5h12v-4h-5c1.419-.951 3.085-1.284 5-1v-4h-12v-11z"/><path style="opacity:1" fill="#363636" d="M21.5 167.5v5h-5v-5h5z"/><path style="opacity:1" fill="#9e9e9e" d="M83.5 173.5c.172.992-.162 1.658-1 2l-2 4v-3h-3v-9h5c-.295 2.235.039 4.235 1 6z"/><path style="opacity:1" fill="#cfcfcf" d="M112.5 165.5c2.837 1.902 6.171 2.569 10 2h1v5h-10v4h14v-4h6v5h-5v3c-.904-.709-1.237-1.709-1-3h-15v3h-6v-1a5.727 5.727 0 0 1 1-3h5v-4c-1.291.237-2.291-.096-3-1l3-6z"/><path style="opacity:1" fill="#fbfbfb" d="M123.5 167.5h9v5h-5v4h-14v-4h10v-5zM147.5 177.5h-4c.237 1.291-.096 2.291-1 3h-14v-3h5v-5h5v-5h9v5h5v4c-1.915-.284-3.581.049-5 1z"/><path style="opacity:1" fill="#0d0d0d" d="M178.5 167.5v4c1.419.951 3.085 1.284 5 1v4h-10c.268-1.599-.066-2.932-1-4h-4v-5h10z"/><path style="opacity:1" fill="#f0f0f0" d="M21.5 182.5c-2.787-.977-5.787-1.31-9-1v-4c1.599.268 2.932-.066 4-1h10v-4h-4c.285-1.915-.049-3.581-1-5-1.419-.951-3.085-1.284-5-1v-4c1.915.284 3.581-.049 5-1 .934-1.068 1.268-2.401 1-4h4v5h5v15h-4a104.578 104.578 0 0 0-1 9h-4c.268-1.599-.066-2.932-1-4z"/><path style="opacity:1" fill="#6d6d6d" d="M253.5 148.5c.838.342 1.172 1.008 1 2v11c1.915-.284 3.581.049 5 1h-5v10h-6c-.313-3.542.021-6.875 1-10 1.068-.934 2.401-1.268 4-1v-13z"/><path style="opacity:1" fill="#d0d0d0" d="M249.5 162.5h4v9h-4v-9z"/><path style="opacity:1" fill="#585858" d="M327.5 166.5c-2.107.968-4.441 1.302-7 1v5h-11c3.125-.979 6.458-1.313 10-1v-5h8z"/><path style="opacity:1" fill="#868686" d="M360.5 167.5c1.419-.951 3.085-1.284 5-1v6h-6c-.284-1.915.049-3.581 1-5z"/><path style="opacity:1" fill="#f4f4f4" d="M360.5 167.5h4v4h-4v-4z"/><path style="opacity:1" fill="#f2f2f2" d="M6.5 172.5h5v4h-5v-4z"/><path style="opacity:1" fill="#1c1c1c" d="M16.5 172.5v4h-4v-4h4z"/><path style="opacity:1" fill="#b7b7b7" d="M21.5 167.5c.951 1.419 1.285 3.085 1 5h4v4h-10v-4h5v-5z"/><path style="opacity:1" fill="#070707" d="M87.5 172.5v4c-1.915.284-3.581-.049-5-1 .838-.342 1.172-1.008 1-2 1.208-.734 2.541-1.067 4-1z"/><path style="opacity:1" fill="#464646" d="M109.5 171.5c.709.904 1.709 1.237 3 1v4h-5c-.38-2.198.287-3.865 2-5z"/><path style="opacity:1" fill="#e5e5e5" d="M289.5 167.5h5v5h-5v5h-10v5h-6v-6h6v-4l10-1v-4z"/><path style="opacity:1" fill="#d9d9d9" d="M328.5 164.5c-.42 2.174-.42 4.174 0 6l1 1c.929-1.189 1.262-2.522 1-4h4v5h-10a104.778 104.778 0 0 1-6 15c-.457.798-1.124 1.131-2 1a50.473 50.473 0 0 1 5-10.5 72.367 72.367 0 0 0-12-.5v-5h11v-5c2.559.302 4.893-.032 7-1-.172-.992.162-1.658 1-2z"/><path style="opacity:1" fill="#aeaeae" d="M62.5 181.5c-.934-1.068-1.268-2.401-1-4h-9c3.125-.979 6.458-1.313 10-1v-4h5v5h-5v4z"/><path style="opacity:1" fill="#9d9d9d" d="M87.5 172.5h10v10h-5v-6h-5v-4z"/><path style="opacity:1" fill="#868686" d="M243.5 172.5c.977 2.787 1.31 5.787 1 9h-5v-4h4v-5z"/><path style="opacity:1" fill="#eee" d="M6.5 187.5h-7v-6c1.676-.683 2.343-2.017 2-4h5v10z"/><path style="opacity:1" fill="#5c5c5c" d="M52.5 177.5h9c-.268 1.599.066 2.932 1 4 2.773 1.157 5.773 1.824 9 2v3c-4.863-.319-9.53.014-14 1-.934 1.068-1.268 2.401-1 4-1.599-.268-2.932.066-4 1h-6c-.285-1.915.049-3.581 1-5v4h4v-4c.951-1.419 1.285-3.085 1-5v-5z"/><path style="opacity:1" fill="#6d6d6d" d="M183.5 172.5h5v4c1.291.237 2.291-.096 3-1 .543.06.876.393 1 1-1.189.929-2.522 1.262-4 1h-5v4h10c-1.419.951-3.085 1.284-5 1h-15v5h-6v-6c.934-1.068 1.268-2.401 1-4h4c-.268 1.599.066 2.932 1 4h5v-5h5v-4z"/><path style="opacity:1" fill="#d6d6d6" d="M178.5 177.5v4h-5v-4h5z"/><path style="opacity:1" fill="#050505" d="M188.5 177.5v4h-5v-4h5z"/><path style="opacity:1" fill="#aeaeae" d="M191.5 175.5v-1c1.879 1.395 2.879 3.395 3 6-.667 0-1 .333-1 1h-5v-4c1.478.262 2.811-.071 4-1-.124-.607-.457-.94-1-1z"/><path style="opacity:1" fill="#5e5e5e" d="M254.5 192.5v5l-3-4c1.22-1.782 1.886-3.782 2-6h-5v-5c-1.291.237-2.291-.096-3-1h3c-.268-1.599.066-2.932 1-4 1.419-.951 3.085-1.284 5-1v6h-5v4h5v6z"/><path style="opacity:1" fill="#e3e3e3" d="M249.5 177.5h4v4h-4v-4z"/><path style="opacity:1" fill="#adadad" d="M259.5 177.5h4v4h-4v-4z"/><path style="opacity:1" fill="#0f0f0f" d="M92.5 192.5h-10v-5h-5c.296-1.903.963-3.57 2-5 2.524-.457 5.19-.457 8 0v5h5v5z"/><path style="opacity:1" fill="#bebebe" d="M238.5 172.5h5v5h-4v4h6c.709.904 1.709 1.237 3 1v5h-5v-4l-5-2v-9z"/><path style="opacity:1" fill="#c2c2c2" d="M298.5 173.5a68.206 68.206 0 0 1 1 14h-5c.268-1.599-.066-2.932-1-4 .684-3.888 2.35-7.221 5-10z"/><path style="opacity:1" fill="#a2a2a2" d="M349.5 167.5a102.171 102.171 0 0 0-3 30h-1c-.166-8.007 0-16.007.5-24 .586-2.519 1.753-4.519 3.5-6z"/><path style="opacity:1" fill="#a7a7a7" d="M371.5 174.5c-.061 4.797-1.061 9.131-3 13-.376-4.761.624-9.095 3-13z"/><path style="opacity:1" fill="#0c0c0c" d="M167.5 181.5v6h6v-5h10v10h5v5h-10v5h-5v-5h-5c.284-1.915-.049-3.581-1-5h-4v-11h4z"/><path style="opacity:1" fill="#0d0d0d" d="M194.5 180.5a24.558 24.558 0 0 0 3 6c.55 3.427 1.884 6.427 4 9 0 1.333-.667 2-2 2-.951 1.419-1.284 3.085-1 5 2.45-.202 4.783.131 7 1a86.177 86.177 0 0 0 7 16c-.172.992.162 1.658 1 2-.315 3.871.018 7.538 1 11 2.054-.135 3.721.532 5 2a5.727 5.727 0 0 0 1 3c.958 5.931.291 6.264-2 1-3.125-.979-6.458-1.313-10-1v10h-9c0-.667-.333-1-1-1v-3c1.915.284 3.581-.049 5-1v-5h-5v-5h10v-5h-10v-10h-5v5h-5c-3.061-4.473-4.727-9.473-5-15-2.97-.246-4.303-1.912-4-5h9v-5h5v-10h-5v-5c1.915.284 3.581-.049 5-1 0-.667.333-1 1-1z"/><path style="opacity:1" fill="#474747" d="M21.5 182.5v5h10v5h-15v-5c-2.787-.977-5.787-1.31-9-1v-9h4v5h10z"/><path style="opacity:1" fill="#868686" d="M72.5 177.5h4v5h-4v5h-15c4.47-.986 9.137-1.319 14-1v-3c-3.227-.176-6.227-.843-9-2h9c-.268-1.599.066-2.932 1-4z"/><path style="opacity:1" fill="#bebebe" d="M218.5 181.5c.951 1.419 1.284 3.085 1 5 1.792-.134 3.458.199 5 1v5h-6v-5h-10v-16h5v10h5z"/><path style="opacity:1" fill="#7a7a7a" d="M52.5 182.5c.285 1.915-.049 3.581-1 5h-4c-.951 1.419-1.285 3.085-1 5h-5v-16h5c-1 5 1 7 6 6z"/><path style="opacity:1" fill="#424242" d="M82.5 175.5c1.419.951 3.085 1.284 5 1h5v10h6v-4h7c-.237-1.291.096-2.291 1-3v1c0 .667.333 1 1 1v5h15v-4c-3.542.313-6.875-.021-10-1h11v6h-6v5h-10v-5h-9v4c1.599-.268 2.932.066 4 1h-10v-5h-5v-5c-2.81-.457-5.476-.457-8 0a5.728 5.728 0 0 1 1-3l2-4z"/><path style="opacity:1" fill="#060606" d="M107.5 181.5h5c3.125.979 6.458 1.313 10 1v4h-15v-5z"/><path style="opacity:1" fill="#020202" d="M87.5 177.5h4v4h-4v-4z"/><path style="opacity:1" fill="#b5b5b5" d="M183.5 182.5h5v5h5v5h-10v-10z"/><path style="opacity:1" fill="#373737" d="M-.5 187.5h7v5h-7v-5z"/><path style="opacity:1" fill="#f6f6f6" d="M7.5 187.5h9v5h-9v-5z"/><path style="opacity:1" fill="#181818" d="M21.5 187.5v4h-4v-4h4z"/><path style="opacity:1" fill="#252525" d="M47.5 187.5h4v4h-4v-4z"/><path style="opacity:1" fill="#d5d5d5" d="M87.5 146.5v6c1.788-.285 3.455.048 5 1-.363.683-.696 1.35-1 2-1.23 1.797-1.896 3.797-2 6-1.575 1.614-2.241 3.614-2 6v5c-1.459-.067-2.792.266-4 1-.961-1.765-1.295-3.765-1-6h-5v9h3v3a5.728 5.728 0 0 0-1 3c-1.037 1.43-1.704 3.097-2 5v5h-10v10c-.951-1.419-1.284-3.085-1-5h-4v-5h-5v5h-5c1.068-.934 2.401-1.268 4-1v-4h-4c1.068-.934 2.401-1.268 4-1-.268-1.599.066-2.932 1-4h15v-5h4v-5h-4c1.068-.934 2.401-1.268 4-1v-9h-4v-6h5v5h5v-9c-1.967.239-3.8-.094-5.5-1a50.442 50.442 0 0 1-.5-10h5v-5h6v5z"/><path style="opacity:1" fill="#ababab" d="M77.5 187.5h5v15h-5v-5c-1.419-.951-3.085-1.284-5-1v-4h5v-5z"/><path style="opacity:1" fill="#0f0f0f" d="M117.5 192.5h5v5h-5v5h-5v-5h-5v5h-5v-10c-1.068-.934-2.401-1.268-4-1v-4h9v5h10z"/><path style="opacity:1" fill="#959595" d="M108.5 187.5h4v4h-4v-4z"/><path style="opacity:1" fill="#0a0a0a" d="M133.5 187.5h4v5h10v5h-5v5h-20v-5h6v-5h5v-5z"/><path style="opacity:1" fill="#858585" d="M163.5 172.5v4h-5v4h9v-4h5v-4c.934 1.068 1.268 2.401 1 4h5v1h-5v4c-.934-1.068-1.268-2.401-1-4h-4c.268 1.599-.066 2.932-1 4h-4v11c-.979-3.125-1.313-6.458-1-10h-4v5h-1c-1.068-.934-2.401-1.268-4-1v-5c-1.915-.284-3.581.049-5 1v4c1.068.934 2.401 1.268 4 1v9h15v-4c.951 1.419 1.284 3.085 1 5h-20c.284-1.915-.049-3.581-1-5h-10v-5h-4c1.068-.934 2.401-1.268 4-1v-4h-10a104.618 104.618 0 0 1-1 9h-3v5h4c-.268-1.599.066-2.932 1-4v5h-6v-5h-5v-5h6v-6h-16c-.667 0-1-.333-1-1h6v-3h15c-.237 1.291.096 2.291 1 3h14v1h-4v5h4c-1.068.934-2.401 1.268-4 1v4h5v-3h4v-11h6v-5h10z"/><path style="opacity:1" fill="#b7b7b7" d="M147.5 177.5v11h-4v3h-5v-4c1.599.268 2.932-.066 4-1v-6c.904-.709 1.237-1.709 1-3h4z"/><path style="opacity:1" fill="#3c3c3c" d="M148.5 182.5c1.419-.951 3.085-1.284 5-1v5c1.599-.268 2.932.066 4 1h1v5h-6v-5c-1.599.268-2.932-.066-4-1h4v-4h-4z"/><path style="opacity:1" fill="#040404" d="M148.5 182.5h4v4h-4v-4z"/><path style="opacity:1" fill="#c7c7c7" d="M133.5 187.5v5h-5c-.934 1.068-1.268 2.401-1 4h-4v-5h3c.463-2.982.796-5.982 1-9h10v4c-1.599-.268-2.932.066-4 1z"/><path style="opacity:1" fill="#070707" d="M142.5 181.5v5h-4v-5h4z"/><path style="opacity:1" fill="#d6d6d6" d="M163.5 172.5h9v4h-5v4h-9v-4h5v-4z"/><path style="opacity:1" fill="#040404" d="M157.5 187.5v4h-4v-4h4z"/><path style="opacity:1" fill="#b3b3b3" d="M197.5 186.5h6c-.058 3.164-.724 6.164-2 9-2.116-2.573-3.45-5.573-4-9z"/><path style="opacity:1" fill="#ddd" d="m238.5 181.5 5 2h-4v8h5v11h5v5h-6v-5h-5v-10h-4v5h-5v5h-6v-5h-5v-5h6v-5h5v4h4v-10h5z"/><path style="opacity:1" fill="#ababab" d="M249.5 187.5h4c-.114 2.218-.78 4.218-2 6-1.78-1.49-2.446-3.49-2-6z"/><path style="opacity:1" fill="#c1c1c1" d="M259.5 187.5h9v9h-4c.268-1.599-.066-2.932-1-4h-4v-5z"/><path style="opacity:1" fill="#f7f7f7" d="M243.5 183.5v4h6c-.446 2.51.22 4.51 2 6l3 4a61.858 61.858 0 0 0 4.5 9 8.43 8.43 0 0 0 .5-4h4v5h-4c-.285 1.788.048 3.455 1 5a335.278 335.278 0 0 0 4 5h5a11.988 11.988 0 0 1-1 6c2.88 3.77 2.546 7.104-1 10-.838.342-1.172 1.008-1 2-.904.709-1.237 1.709-1 3h-6v4h-11v5h-4v-10h-5v-5h-6v6h5v9h-5v6h5v5h5v5h6v-6h4v4c-.838.342-1.172 1.008-1 2-.838.342-1.172 1.008-1 2-.904.709-1.237 1.709-1 3h3v9c-3.829-.569-7.163.098-10 2a68.505 68.505 0 0 0-4.5 8 18.453 18.453 0 0 0-.5 6c-1.175-.219-2.175.114-3 1a59.19 59.19 0 0 0-6 12c-1.406.473-2.073 1.473-2 3-.934 1.068-1.268 2.401-1 4h23v5c3.213-.31 6.213.023 9 1h-40c1.765-.961 3.765-1.295 6-1v-11h-11v5h-4v-8h4v-7h-5v-4h-5v-5h-5a76.926 76.926 0 0 0-1-10h-3v-6h-6v11h5v10h5v5h10v5h-5v10h-10v6h-5v-7h-10v-9h-6v10h5v4h-8c.268-1.599-.066-2.932-1-4h-5v6h-15c1.419-.951 3.085-1.284 5-1v-10h-10v-5h15v-5h-16v-5c-1.068-.934-2.401-1.268-4-1v-4h5c.313-3.542-.021-6.875-1-10-2.827-.868-5.827-.868-9 0v4h-5v-9c3.018-.204 6.018-.537 9-1v-4h-5c-.284-1.915.049-3.581 1-5h15v-5h4v10h6v-11h-5v-10h-6v10h-5v-5c.979-3.125 1.313-6.458 1-10h-11v15h-4v-10h-6v15h-9c.284-1.915-.049-3.581-1-5h-4c.284-1.915-.049-3.581-1-5v-5h-10v-5l10 1v-6h-5v-10h5c.934-1.068 1.268-2.401 1-4h13c-.268 1.599.066 2.932 1 4h11v-11h-5v-9h-6v4h-10v-9h10c3.125.979 6.458 1.313 10 1-.31 3.213.023 6.213 1 9h14c.977-2.787 1.31-5.787 1-9h20v9h5c-.712-3.425-.712-6.758 0-10h5v-5h5v5h-4c-.303 3.088 1.03 4.754 4 5 .273 5.527 1.939 10.527 5 15-.423 2.281.244 3.948 2 5l1 4c-.709.904-1.709 1.237-3 1v5c2.45-.202 4.783.131 7 1v1a23.142 23.142 0 0 0-2 8h6c8.484.993 17.151 1.326 26 1a100.71 100.71 0 0 0-3-8c.073-1.527-.594-2.527-2-3a5.727 5.727 0 0 1-1-3v-12h4v-5c-4.002-.464-7.669.202-11 2a86.177 86.177 0 0 1-7-16c2.448-.973 5.115-1.306 8-1v-5h10v5h6v-5h5v-5h4v10h5v5h6v-5h-5v-11h-5v-8h4z"/><path style="opacity:1" fill="#b0b0b0" d="M163.5 192.5h4v4h-15v-4h6v-10h4c-.313 3.542.021 6.875 1 10z"/><path style="opacity:1" fill="#676767" d="M259.5 187.5c3.125-.979 6.458-1.313 10-1v11h-6v-5c.934 1.068 1.268 2.401 1 4h4v-9h-9z"/><path style="opacity:1" fill="#ededed" d="M41.5 187.5v5h15v4c-1.599-.268-2.932.066-4 1v10h5v-10h9c-.284 1.915.049 3.581 1 5 .992-.172 1.658.162 2 1-.934 1.068-1.268 2.401-1 4 .709.904 1.709 1.237 3 1v8h-3v-6c-1.679-.215-2.679.452-3 2-.16 1.653-.826 2.986-2 4-.934-1.068-1.268-2.401-1-4h-11v5h-14v-5h4v-5c-1.068-.934-2.401-1.268-4-1v-4h9v-5h-9v4h-5v-14h9z"/><path style="opacity:1" fill="#6a6a6a" d="M72.5 192.5v4c1.915-.284 3.581.049 5 1h-5c.413 2.82-.587 4.82-3 6-.342-.838-1.008-1.172-2-1v-10h5z"/><path style="opacity:1" fill="#6c6c6c" d="M82.5 192.5h10v5h-10v-5z"/><path style="opacity:1" fill="#a2a2a2" d="M92.5 192.5h10v5h-4v9h3c-.268-1.599.066-2.932 1-4v5h-5v-10h-5v-5z"/><path style="opacity:1" fill="#6f6f6f" d="M188.5 192.5h5v5h-5v-5z"/><path style="opacity:1" fill="#9b9b9b" d="M218.5 192.5v5h-5v-5h5z"/><path style="opacity:1" fill="#909090" d="M259.5 187.5v10h-5v-5h4c-.284-1.915.049-3.581 1-5z"/><path style="opacity:1" fill="#474747" d="M62.5 197.5h-5v-5h5v5z"/><path style="opacity:1" fill="#383838" d="M41.5 197.5h5v5h-5v-5z"/><path style="opacity:1" fill="#050505" d="M76.5 197.5v9h-7v-3c2.413-1.18 3.413-3.18 3-6h4z"/><path style="opacity:1" fill="#fbfbfb" d="M82.5 197.5h10v4h-10v-4z"/><path style="opacity:1" fill="#6c6c6c" d="M102.5 197.5v5c-.934 1.068-1.268 2.401-1 4h-3v-9h4z"/><path style="opacity:1" fill="#828282" d="M122.5 197.5v5h-5v-5h5z"/><path style="opacity:1" fill="#7d7d7d" d="M183.5 197.5h5v5h-5v-5z"/><path style="opacity:1" fill="#959595" d="M199.5 197.5v4h4v-4h10v5c-2.885-.306-5.552.027-8 1-2.217-.869-4.55-1.202-7-1-.284-1.915.049-3.581 1-5z"/><path style="opacity:1" fill="#1f1f1f" d="M365.5 197.5h4c-.214 1.644.12 3.144 1 4.5a12.93 12.93 0 0 1-5 .5v-5z"/><path style="opacity:1" fill="#404040" d="M147.5 192.5c.951 1.419 1.284 3.085 1 5v4h19v-4h1v5h-21v-10z"/><path style="opacity:1" fill="#d7d7d7" d="M345.5 197.5h5v5h-3v5h3a21.435 21.435 0 0 1-1 7c-1.235-.221-2.235-.888-3-2a57.15 57.15 0 0 1-1-15z"/><path style="opacity:1" fill="#bfbfbf" d="M6.5 187.5h1v5h14v10h5v4c1.915-.284 3.581.049 5 1h-9c.285 1.915-.049 3.581-1 5v-5c-1.419-.951-3.085-1.284-5-1v-4c-4.438 1.075-6.438-.592-6-5h-9v5h5v5h-5v5h5c-1.419.951-3.085 1.284-5 1 .343 1.983-.324 3.317-2 4v-25h7v-5z"/><path style="opacity:1" fill="#868686" d="M21.5 207.5h-15v-5h-5v-5h9c-.438 4.408 1.562 6.075 6 5v4c1.915-.284 3.581.049 5 1z"/><path style="opacity:1" fill="#979797" d="M52.5 197.5h5v10h-5v-10z"/><path style="opacity:1" fill="#080808" d="M82.5 202.5h5v15h-5v5h4c-.17 2.704-1.503 4.371-4 5h-5v-10c-1.068-.934-2.401-1.268-4-1v-3h4v-6h5v-5z"/><path style="opacity:1" fill="#222" d="M92.5 202.5c1.175-.219 2.175.114 3 1a5.577 5.577 0 0 0-1 3c-1.677-.683-2.343-2.017-2-4z"/><path style="opacity:1" fill="#707070" d="M112.5 202.5v4h-4v-4h4z"/><path style="opacity:1" fill="silver" d="M147.5 197.5v5h21v-5h5v5c-.712 3.242-.712 6.575 0 10h-5v-9h-20c.31 3.213-.023 6.213-1 9v-5h-14v5c-.977-2.787-1.31-5.787-1-9-3.542.313-6.875-.021-10-1h20v-5h5z"/><path style="opacity:1" d="M148.5 197.5h19v4h-19v-4z"/><path style="opacity:1" fill="#cecece" d="M281.5 202.5h3v5h-5v5h-5v-10h7z"/><path style="opacity:1" fill="#3d3d3d" d="M76.5 197.5h1v5h5v5h-5v6h-4v3c1.599-.268 2.932.066 4 1h-5v-6h4v-3l-8-1c-.268-1.599.066-2.932 1-4v3h7v-9z"/><path style="opacity:1" fill="#8a8a8a" d="M360.5 192.5v9h4c-.268-1.599.066-2.932 1-4v9a9.108 9.108 0 0 0 5-1c.798.457 1.131 1.124 1 2h-7v-5h-4v5h-6c-.284-1.915.049-3.581 1-5 1.068-.934 2.401-1.268 4-1-.31-3.213.023-6.213 1-9z"/><path style="opacity:1" fill="#f3f3f3" d="M355.5 202.5h4v4h-4v-4z"/><path style="opacity:1" fill="#505050" d="M32.5 202.5h4v5h5v5h-4c-.951 1.419-1.285 3.085-1 5h-4v-15z"/><path style="opacity:1" fill="#f1f1f1" d="M16.5 212.5v4c-1.915-.284-3.581.049-5 1v5h-5v5h10v5h-5v5h5v5h-5v5h-5v-5h-5v-5h-2v-10c1.15-.291 1.816-1.124 2-2.5-.184-1.376-.85-2.209-2-2.5v-5c1.676-.683 2.343-2.017 2-4 1.915.284 3.581-.049 5-1 .934-1.068 1.268-2.401 1-4h4v4h5z"/><path style="opacity:1" fill="#373737" d="M16.5 207.5h5v5h-5v-5z"/><path style="opacity:1" fill="#777" d="M87.5 202.5h5c-.343 1.983.323 3.317 2 4-1.575 1.614-2.241 3.614-2 6h-5v-10z"/><path style="opacity:1" fill="#656565" d="M147.5 212.5h-14v-5h14v5z"/><path style="opacity:1" fill="#909090" d="M188.5 202.5h5v10h-5v-10z"/><path style="opacity:1" fill="#9e9e9e" d="M263.5 202.5a104.788 104.788 0 0 1 1 15 335.278 335.278 0 0 1-4-5c-.952-1.545-1.285-3.212-1-5h4v-5z"/><path style="opacity:1" fill="#e1e1e1" d="M314.5 207.5h20v5h-4v5h-6v-5h-10v-5z"/><path style="opacity:1" fill="#5a5a5a" d="M6.5 207.5v5h-5v-5h5z"/><path style="opacity:1" fill="#b3b3b3" d="M6.5 207.5h10v5h-5v-4h-4c.268 1.599-.066 2.932-1 4v-5z"/><path style="opacity:1" fill="#6a6a6a" d="M102.5 207.5h5v5h-5v-5z"/><path style="opacity:1" fill="#cbcbcb" d="M112.5 202.5h-4v4h4v5h10v-4h6v9h5v11h-6v-5h-5v5c-.934-1.068-1.268-2.401-1-4h-13c.268 1.599-.066 2.932-1 4v-5h10v-5h5v-5h-10v5h-5v-4c-1.915.284-3.581-.049-5-1h5v-5h-5v-5h5v-5h5v5z"/><path style="opacity:1" fill="#868686" d="M21.5 192.5h10c-.313 3.542.02 6.875 1 10v30c-.987-4.805-1.32-9.805-1-15h-5v-5h5v-5c-1.419-.951-3.085-1.284-5-1v-4h-5v-10z"/><path style="opacity:1" fill="#737373" d="M359.5 217.5v-4h-4v4c-.951-1.419-1.284-3.085-1-5h6c.284 1.915-.049 3.581-1 5z"/><path style="opacity:1" fill="#d1d1d1" d="M359.5 217.5h-4v-4h4v4z"/><path style="opacity:1" fill="#111" d="M72.5 217.5v5h-5v5h10v5c1.983-.343 3.317.324 4 2a5.728 5.728 0 0 0-1 3h-3v5h-5v-5h-5v-5h-5a75.414 75.414 0 0 1 1-16c1.174-1.014 1.84-2.347 2-4 .617-.111 1.117-.444 1.5-1 .496 1.973.662 3.973.5 6h5z"/><path style="opacity:1" fill="#9e9e9e" d="m68.5 207.5 8 1v3h-4v6h-5a18.437 18.437 0 0 0-.5-6c-.383.556-.883.889-1.5 1 .321-1.548 1.321-2.215 3-2v6h3v-8c-1.291.237-2.291-.096-3-1z"/><path style="opacity:1" fill="#b6b6b6" d="M223.5 222.5h5v-5h5v-5h10v6h-9v4h-5v5h-6v-5z"/><path style="opacity:1" fill="#b9b9b9" d="M284.5 212.5h10v5h-10v-5z"/><path style="opacity:1" fill="#bcbcbc" d="M16.5 212.5h5v5h-4v5h-1v-4c-1.419-.951-3.085-1.284-5-1 1.419-.951 3.085-1.284 5-1v-4z"/><path style="opacity:1" fill="#e7e7e7" d="M92.5 197.5h5v10h5v5c1.419.951 3.085 1.284 5 1v4h-15v10h-5v10h5v5h-5v5h-5v-4h-4c-.241-2.386.425-4.386 2-6a5.728 5.728 0 0 1 1-3c.968-2.107 1.302-4.441 1-7 2.497-.629 3.83-2.296 4-5 1.1-1.348 2.1-2.848 3-4.5a2.429 2.429 0 0 0-2-.5v-5h5c-.241-2.386.425-4.386 2-6a5.577 5.577 0 0 1 1-3c-.825-.886-1.825-1.219-3-1h-10v-1h10v-4z"/><path style="opacity:1" fill="#464646" d="M16.5 218.5v4h-4v-4h4z"/><path style="opacity:1" fill="#5b5b5b" d="M87.5 217.5a2.429 2.429 0 0 1 2 .5c-.9 1.652-1.9 3.152-3 4.5h-4v-5h5z"/><path style="opacity:1" fill="#717171" d="M107.5 227.5h-5v-5h-10v-5h20v-5h10v5h-5v5h-10v5z"/><path style="opacity:1" fill="#6d6d6d" d="M128.5 217.5h4v5h-4v-5z"/><path style="opacity:1" fill="#d3d3d3" d="M223.5 222.5h-4v12c-1.279-1.468-2.946-2.135-5-2v-5h4v-5c-1.792.134-3.458-.199-5-1-.838-.342-1.172-1.008-1-2 3.331-1.798 6.998-2.464 11-2v5z"/><path style="opacity:1" fill="#757575" d="M148.5 217.5h4v5h-4v-5z"/><path style="opacity:1" fill="#7a7a7a" d="M11.5 217.5c1.915-.284 3.581.049 5 1h-4v4h9v10h-5v-5h-10v-5h5v-5z"/><path style="opacity:1" fill="#b4b4b4" d="M72.5 217.5h5v10h-10v-5h5v-5z"/><path style="opacity:1" fill="#c9c9c9" d="M198.5 227.5h-8c-1.756-1.052-2.423-2.719-2-5h5v-5h5v10z"/><path style="opacity:1" fill="#737373" d="M-.5 222.5c1.15.291 1.816 1.124 2 2.5-.184 1.376-.85 2.209-2 2.5v-5z"/><path style="opacity:1" fill="#b0b0b0" d="M92.5 222.5h10v15h-5v-10h-5v-5z"/><path style="opacity:1" fill="#6d6d6d" d="M127.5 227.5h-5v-5h5v5z"/><path style="opacity:1" fill="#858585" d="M163.5 227.5h-10v-5h5v-10h5v15z"/><path style="opacity:1" fill="#a3a3a3" d="M213.5 221.5c1.542.801 3.208 1.134 5 1v5h-4v5c-.982-3.462-1.315-7.129-1-11z"/><path style="opacity:1" fill="#f8f8f8" d="M31.5 207.5v5h-5v5h5c-.32 5.195.013 10.195 1 15 4.47.986 9.137 1.319 14 1v9h-5v10c1.419.951 3.085 1.284 5 1v9h-9v-15h-20v-5h4v-20h-4v-5h4v-5c.951-1.419 1.285-3.085 1-5h9z"/><path style="opacity:1" fill="#e1e1e1" d="M370.5 222.5h5v10h-5v-10z"/><path style="opacity:1" fill="#848484" d="M77.5 227.5h5c.302 2.559-.032 4.893-1 7-.683-1.676-2.017-2.343-4-2v-5z"/><path style="opacity:1" fill="#9c9c9c" d="M92.5 227.5v10h-5v-10h5z"/><path style="opacity:1" fill="#f8f8f8" d="M92.5 227.5h5v10h-5v-10z"/><path style="opacity:1" fill="#141414" d="M190.5 227.5h8v5c-2.45.202-4.783-.131-7-1l-1-4z"/><path style="opacity:1" fill="#424242" d="M32.5 227.5h9v5h-9v-5z"/><path style="opacity:1" fill="#ababab" d="M163.5 227.5h15v5h-15v-5z"/><path style="opacity:1" fill="#b1b1b1" d="M198.5 227.5h10v5h-10v-5z"/><path style="opacity:1" fill="#4c4c4c" d="M1.5 237.5v-5h5v5h-5z"/><path style="opacity:1" fill="#7a7a7a" d="M16.5 232.5v5h-5v-5h5z"/><path style="opacity:1" fill="#1e1e1e" d="M16.5 232.5h5v5h-5v-5z"/><path style="opacity:1" fill="#a9a9a9" d="M46.5 227.5v5h6c-1.419.951-3.085 1.284-5 1v14c.285 1.915-.049 3.581-1 5v-4h-4v4h-1v-10h5v-9c-4.863.319-9.53-.014-14-1h9c.951-1.419 1.285-3.085 1-5h4z"/><path style="opacity:1" fill="#868686" d="M112.5 232.5h5v5h-5v-5z"/><path style="opacity:1" fill="#a9a9a9" d="M147.5 232.5c-1.068.934-2.401 1.268-4 1v4h-21v-5h16v-10h4v5h6c.284 1.915-.049 3.581-1 5z"/><path style="opacity:1" fill="#6b6b6b" d="M147.5 232.5h-4v-4h4v4z"/><path style="opacity:1" fill="#a9a9a9" d="M152.5 232.5h6v6c-5 1-7-1-6-6z"/><path style="opacity:1" fill="#8a8a8a" d="M191.5 231.5c2.217.869 4.55 1.202 7 1v5c-1.291-.237-2.291.096-3 1-2.217-.869-4.55-1.202-7-1v-5c1.291.237 2.291-.096 3-1z"/><path style="opacity:1" fill="#a5a5a5" d="M284.5 232.5h5v5h-5v-5z"/><path style="opacity:1" fill="#9b9b9b" d="M32.5 242.5c-.951-1.419-1.285-3.085-1-5h6v6c-1.915.284-3.581-.049-5-1z"/><path style="opacity:1" fill="#393939" d="M32.5 242.5v-4h4v4h-4z"/><path style="opacity:1" fill="#696969" d="M37.5 212.5v5h14v-5h11c-.268 1.599.066 2.932 1 4a75.414 75.414 0 0 0-1 16h5v10c1.068.934 2.401 1.268 4 1v4c-1.599-.268-2.932.066-4 1v4h-15v-5h-5v-14c1.915.284 3.581-.049 5-1h9v-10h-15v5h-4c.285 1.915-.049 3.581-1 5v-10h-4v5h-5v-10h4c-.285-1.915.049-3.581 1-5z"/><path style="opacity:1" fill="#141414" d="M57.5 237.5v-4h5v4h-5z"/><path style="opacity:1" fill="#f1f1f1" d="M57.5 232.5v-5h-5v5h-6v-10h15v10h-4z"/><path style="opacity:1" fill="#8f8f8f" d="M57.5 232.5h-5v-5h5v5z"/><path style="opacity:1" fill="#b6b6b6" d="M41.5 227.5h-4v-5h4v5z"/><path style="opacity:1" fill="#e8e8e8" d="M67.5 238.5h4v4h-4v-4z"/><path style="opacity:1" fill="#909090" d="M92.5 237.5h15v6l-10-1v5h-10v-5h5v-5z"/><path style="opacity:1" fill="#a9a9a9" d="M198.5 237.5h5v5h-5v-5z"/><path style="opacity:1" fill="#656565" d="M267.5 233.5a57.403 57.403 0 0 1 2 9v10c-.977-2.787-1.31-5.787-1-9h-4v5h-4c.709-.904 1.709-1.237 3-1v-5h5a29.753 29.753 0 0 0-2-7c-.172-.992.162-1.658 1-2z"/><path style="opacity:1" fill="#dbdbdb" d="M370.5 237.5h5v5h-5v-5z"/><path style="opacity:1" fill="#ccc" d="M218.5 238.5v4h-5c-.284 1.915.049 3.581 1 5h4c.934-1.068 1.268-2.401 1-4h3v-3a100.71 100.71 0 0 1 3 8c-8.849.326-17.516-.007-26-1h9v-10c3.542-.313 6.875.021 10 1z"/><path style="opacity:1" fill="#4d4d4d" d="M198.5 237.5v5h5c-1.419.951-3.085 1.284-5 1v3a60.379 60.379 0 0 0-3-7v-1c.709-.904 1.709-1.237 3-1z"/><path style="opacity:1" fill="#5d5d5d" d="M220.5 237.5c1.406.473 2.073 1.473 2 3v3h-3c.268 1.599-.066 2.932-1 4v-4h-4v4c-.951-1.419-1.284-3.085-1-5h5v-4c2.291 5.264 2.958 4.931 2-1z"/><path style="opacity:1" fill="#d3d3d3" d="M266.5 235.5a29.753 29.753 0 0 1 2 7h-5v5c-1.291-.237-2.291.096-3 1-1.1 1.105-1.767 2.438-2 4v10c-1.792.134-3.458-.199-5-1v-4h-4v6h-6v-5h-5v-5h-5v-6h5v-9h-5v-6h6v5h5v10h4v-5h11v-4h6c-.237-1.291.096-2.291 1-3z"/><path style="opacity:1" fill="#a6a6a6" d="M269.5 242.5h19v1h-18v4h3v5h-4v-10z"/><path style="opacity:1" fill="#eaeaea" d="M324.5 232.5h15v6h-5v10a41.73 41.73 0 0 1-9-1v11h-11v-6h5v-5h5c-.667-4 1-5.667 5-5v-4h-5v-6z"/><path style="opacity:1" fill="#5d5d5d" d="M370.5 237.5v5h5l-4 2c-2.254-.624-3.921-1.957-5-4 .996-.086 1.829.248 2.5 1 .21-1.558.71-2.891 1.5-4z"/><path style="opacity:1" fill="#707070" d="M-.5 237.5h2v5h5v5h5c-1.419.951-3.085 1.284-5 1v4h-5c.554-3.512-.112-6.512-2-9v-6z"/><path style="opacity:1" fill="#c2c2c2" d="M57.5 237.5v5c-.951 1.419-1.285 3.085-1 5h-4v-10h5z"/><path style="opacity:1" fill="#1c1c1c" d="M57.5 242.5h5v-4h4v9h-9v-5z"/><path style="opacity:1" fill="#828282" d="M178.5 242.5h5v5-5h-5z"/><path style="opacity:1" fill="#919191" d="M195.5 239.5a60.379 60.379 0 0 1 3 7c.667 0 1 .333 1 1h-6c.193-2.808.86-5.475 2-8z"/><path style="opacity:1" fill="#050505" d="M218.5 247.5h-4v-4h4v4z"/><path style="opacity:1" fill="#030303" d="M269.5 252.5c1.419.951 3.085 1.284 5 1v-5h10a246.121 246.121 0 0 1-9 19c-1.174 1.014-1.84 2.347-2 4-3.853.186-5.519 2.186-5 6h-4v-5c-1.967-.239-3.801.094-5.5 1a40.914 40.914 0 0 0-.5 9h-4v-15c-1.679.215-2.679-.452-3-2-.172-.992.162-1.658 1-2h7c.315-3.871-.018-7.538-1-11 .233-1.562.9-2.895 2-4h4v-5h4c-.31 3.213.023 6.213 1 9z"/><path style="opacity:1" fill="#c7c7c7" d="M178.5 242.5v5h5c-1.419.951-3.085 1.284-5 1v4h5v10h-5a104.618 104.618 0 0 0-1-9c-4.408.438-6.075-1.562-5-6h5c-.284-1.915.049-3.581 1-5z"/><path style="opacity:1" fill="#616161" d="M273.5 247.5c3.871-.315 7.538.018 11 1h-10v5c-1.915.284-3.581-.049-5-1h4v-5z"/><path style="opacity:1" fill="#939393" d="M437.5 233.5c.06-.543.393-.876 1-1a57.15 57.15 0 0 1 1 15h22v1h-23c.321-5.195-.013-10.195-1-15z"/><path style="opacity:1" fill="#767676" d="M647.5 168.5a1600.65 1600.65 0 0 1 1 80h-23v-68c.997 22.16 1.331 44.494 1 67h21v-79z"/><path style="opacity:1" fill="#272727" d="M11.5 247.5h5v5h-10v-4c1.915.284 3.581-.049 5-1z"/><path style="opacity:1" fill="#474747" d="M46.5 252.5h-4v-4h4v4z"/><path style="opacity:1" fill="#cacaca" d="M47.5 247.5h5v5h10v5h-11v-4h-4v5h4v4h-5v-9c-1.915.284-3.581-.049-5-1h5c.951-1.419 1.285-3.085 1-5z"/><path style="opacity:1" fill="#c4c4c4" d="M67.5 238.5v-1h5v5h5v-5h3c-1.575 1.614-2.241 3.614-2 6h4v4h-5v5h-5v-4h-5c1.068-.934 2.401-1.268 4-1v-4c-1.599.268-2.932-.066-4-1h4v-4h-4z"/><path style="opacity:1" fill="#6e6e6e" d="M82.5 247.5v5h-5v-5h5z"/><path style="opacity:1" fill="#f8f8f8" d="M82.5 247.5h5c2.787.977 5.787 1.31 9 1v4h-9v6h14v4c-3.213-.31-6.213.023-9 1v5h5v25h5v5h-10v-5h-5v-11h-4v-4c3.213.31 6.213-.023 9-1v-4c-1.419-.951-3.085-1.284-5-1v-9c-4.805-.987-9.805-1.321-15-1v-5h-10v-5h5v-4h5v4h10v-5z"/><path style="opacity:1" fill="#858585" d="M158.5 243.5h9v14h-4v-5h-5v-9z"/><path style="opacity:1" fill="#e2e2e2" d="M-.5 243.5c1.888 2.488 2.554 5.488 2 9v5h4v-4h11v4h-10v20h-6c.284 1.915-.049 3.581-1 5v-9c1.287-1.371 1.954-3.205 2-5.5-.046-2.295-.713-4.129-2-5.5v-19z"/><path style="opacity:1" fill="#aaa" d="M16.5 237.5h5v5h-4v5h4v6h-4c.268 1.599-.066 2.932-1 4v-4h-11v4h-4v-5h15v-9h-4v4h-1v-5h5v-5z"/><path style="opacity:1" fill="#6c6c6c" d="M16.5 247.5h-4v-4h4v4z"/><path style="opacity:1" fill="#bababa" d="M142.5 252.5v5h5v-10h6v10h5v11h-6v-10h-4v5h-15v-1h4c.951-1.419 1.284-3.085 1-5h-6v-15h11c.313 3.542-.021 6.875-1 10z"/><path style="opacity:1" fill="#7f7f7f" d="M142.5 252.5h-9v-9h9v9z"/><path style="opacity:1" fill="#e9e9e9" d="M288.5 243.5a41.73 41.73 0 0 1 1 9h5v-5h10v6h-9l-1 10h-4v5h-11a12.93 12.93 0 0 0-.5-5c-.74 1.819-1.907 3.152-3.5 4a246.121 246.121 0 0 0 9-19c-3.462-.982-7.129-1.315-11-1h-3v-4h18z"/><path style="opacity:1" fill="#989898" d="M218.5 253.5h5v4h-5v-4z"/><path style="opacity:1" fill="#969696" d="M128.5 257.5h10c.284 1.915-.049 3.581-1 5v-4h-9v4h5v1c-.951 1.419-1.284 3.085-1 5h-4c1.075-4.438-.592-6.438-5-6v-10h4c-.284 1.915.049 3.581 1 5z"/><path style="opacity:1" fill="#d6d6d6" d="M208.5 263.5h-15c3.125-.979 6.458-1.313 10-1v-4h-5v-6h6v5h4v6z"/><path style="opacity:1" fill="#666" d="M137.5 262.5h-9v-4h9v4z"/><path style="opacity:1" fill="#515151" d="M258.5 252.5c.982 3.462 1.315 7.129 1 11h-7c-.172-.992.162-1.658 1-2 1.542.801 3.208 1.134 5 1v-10z"/><path style="opacity:1" fill="#f9f9f9" d="M57.5 263.5h14v4c-1.599-.268-2.932.066-4 1v5h4v5h-9v-11h-5v-4z"/><path style="opacity:1" fill="#717171" d="M87.5 263.5v5h-5v-5h5z"/><path style="opacity:1" fill="#969696" d="M92.5 263.5h10v10h-5v-5h-5v-5z"/><path style="opacity:1" fill="#ababab" d="M158.5 243.5c3.125-.979 6.458-1.313 10-1v15h5v11h-5l-1-10c-1.599.268-2.932-.066-4-1h4v-14h-9z"/><path style="opacity:1" fill="#b2b2b2" d="M193.5 263.5h15v5h-15v-5z"/><path style="opacity:1" fill="#e1e1e1" d="M21.5 247.5h16v5h-1v-4h-10v20h-4v4h4v5h-15v-15c4.438-1.075 6.438.592 6 5h4v-20z"/><path style="opacity:1" fill="#d2d2d2" d="M87.5 247.5h10v10h5c.951 1.419 1.284 3.085 1 5 1.599-.268 2.932.066 4 1v5h5v4h10v-9h-10v-6c.951 1.419 1.284 3.085 1 5h9v-15h6v10c-.951-1.419-1.284-3.085-1-5h-4v10c4.408-.438 6.075 1.562 5 6v4h4v-4h5v4c-2.982.463-5.982.796-9 1v9c-1.542.801-3.208 1.134-5 1v4c1.599-.268 2.932.066 4 1h-10v-6c1.542.801 3.208 1.134 5 1v-10h-19v9h5v10c4.863-.319 9.53.014 14 1h-10v4h-5v-14h-5v-6h-5v-4h5v-10h-10c2.787-.977 5.787-1.31 9-1v-4h-14v-6h9v-4c-3.213.31-6.213-.023-9-1z"/><path style="opacity:1" fill="#959595" d="M107.5 263.5c.934 1.068 1.268 2.401 1 4h4v-4h10v9h-10v-4h-5v-5z"/><path style="opacity:1" fill="#747474" d="M107.5 252.5c.951 1.419 1.284 3.085 1 5h4v10h-4c.268-1.599-.066-2.932-1-4-1.068-.934-2.401-1.268-4-1 .284-1.915-.049-3.581-1-5v-5h5z"/><path style="opacity:1" fill="#828282" d="M112.5 247.5h5v5h-5v-5z"/><path style="opacity:1" fill="#9b9b9b" d="M97.5 247.5h10v5h-5v5h-5v-10z"/><path style="opacity:1" fill="#444" d="M-.5 262.5c1.287 1.371 1.954 3.205 2 5.5-.046 2.295-.713 4.129-2 5.5v-11z"/><path style="opacity:1" fill="#f7f7f7" d="M46.5 268.5v4h-15v-4h15z"/><path style="opacity:1" fill="#c1c1c1" d="M57.5 263.5v4h5v11h-10c.268 1.599-.066 2.932-1 4v-4c0-.667.333-1 1-1h9v-4a89.416 89.416 0 0 0-15-1v-4h10c-.285-1.915.049-3.581 1-5z"/><path style="opacity:1" fill="#595959" d="M128.5 268.5h4v4h-4v-4z"/><path style="opacity:1" fill="#b9b9b9" d="M223.5 263.5h5v5h-4v4h5v6h5v10h-11v-5h-5v10h-5v-21h5v-4h5v-5z"/><path style="opacity:1" fill="#2e2e2e" d="M41.5 273.5h11v4c-.667 0-1 .333-1 1h-9c-.8-1.542-1.134-3.208-1-5z"/><path style="opacity:1" fill="#747474" d="M41.5 273.5v-1h5a89.416 89.416 0 0 1 15 1v4h-9v-4h-11z"/><path style="opacity:1" fill="#8c8c8c" d="M92.5 273.5v4h-5v-4h5z"/><path style="opacity:1" fill="#909090" d="M251.5 265.5c.321 1.548 1.321 2.215 3 2v15h4a40.914 40.914 0 0 1 .5-9c1.699-.906 3.533-1.239 5.5-1v5h4c-.519-3.814 1.147-5.814 5-6-.321 1.548-1.321 2.215-3 2 .214 1.644-.12 3.144-1 4.5-3.317.498-6.65.665-10 .5v5h-10v4c1.915-.284 3.581.049 5 1h-11v-5h5v-5c-1.792-.134-3.458.199-5 1 2.837-1.902 6.171-2.569 10-2v-9h-3c-.237-1.291.096-2.291 1-3z"/><path style="opacity:1" fill="#dcdcdc" d="M289.5 272.5c5-1 7 1 6 6h-6v4h-5v-5h5v-5z"/><path style="opacity:1" fill="#a8a8a8" d="M198.5 272.5h10v6h-10v-6z"/><path style="opacity:1" fill="#848484" d="M67.5 268.5h5v4c3.018.204 6.018.537 9 1v9h-4v-4h-5c.284-1.915-.049-3.581-1-5h-4v-5z"/><path style="opacity:1" fill="#838383" d="M97.5 277.5h5v6h-5v-6z"/><path style="opacity:1" fill="#979797" d="M36.5 252.5h1v10h14v-4h-4v-5h4v4h21v5c-5.195-.321-10.195.013-15 1-.951 1.419-1.285 3.085-1 5h-25v4h10v1c-.134 1.792.2 3.458 1 5v4h9c-3.125.979-6.458 1.313-10 1v-5h-14v4h10v5c1.599-.268 2.932.066 4 1v4c-2.982.463-5.982.796-9 1 1.068-.934 2.401-1.268 4-1v-5h-4v-4h-5v5h-1v-5h-5v5h-4c.268 1.599-.066 2.932-1 4v1h-5v-11l-10 1v5h5v5h-7v-11c.951-1.419 1.284-3.085 1-5h6v-20h10c.934-1.068 1.268-2.401 1-4h4v14h-4c.438-4.408-1.562-6.075-6-5v-4h-4v19h19v-5h-4v-4h4v-20h10v4z"/><path style="opacity:1" fill="#383838" d="M27.5 273.5h4v4h-4v-4z"/><path style="opacity:1" fill="#464646" d="M11.5 262.5v15h-4v-19h4v4z"/><path style="opacity:1" fill="#696969" d="M41.5 263.5h10v4h-10v-4z"/><path style="opacity:1" fill="#333" d="M36.5 252.5v11h-9v-6h4v-5h5z"/><path style="opacity:1" fill="#212121" d="M16.5 278.5v14h-4v-14h4z"/><path style="opacity:1" fill="#505050" d="M16.5 278.5h10v4h-10v-4z"/><path style="opacity:1" fill="#fbfbfb" d="M51.5 282.5c.934-1.068 1.268-2.401 1-4h10v4c-1.915-.284-3.581.049-5 1-.934 1.068-1.268 2.401-1 4-3.542-.313-6.875.021-10 1h-5c-1.068-.934-2.401-1.268-4-1v-5h-10v-4h14v5c3.542.313 6.875-.021 10-1z"/><path style="opacity:1" fill="#717171" d="M42.5 278.5h9v4h-9v-4z"/><path style="opacity:1" fill="#d8d8d8" d="M71.5 273.5c.951 1.419 1.284 3.085 1 5v10h-6v4h-9v-4h5v-5h-5c1.419-.951 3.085-1.284 5-1v-4h9v-5z"/><path style="opacity:1" fill="#afafaf" d="M81.5 273.5c.98 3.125 1.313 6.458 1 10h-5v5h-5v-10h5v4h4v-9zM198.5 288.5h-5v-5h-5v-11h6v6h3c.551 3.307.884 6.64 1 10z"/><path style="opacity:1" fill="#d1d1d1" d="M275.5 267.5a96.873 96.873 0 0 0-1 16h-5v4h5v6h-6v-5c-2.054-.135-3.721.532-5 2-.683-1.676-2.017-2.343-4-2h-5c-1.419-.951-3.085-1.284-5-1v-4h10v-5c3.35.165 6.683-.002 10-.5.88-1.356 1.214-2.856 1-4.5 1.679.215 2.679-.452 3-2 .16-1.653.826-2.986 2-4z"/><path style="opacity:1" fill="#111" d="M254.5 288.5v5h5v-5c1.983-.343 3.317.324 4 2a23.317 23.317 0 0 0-3 6c-.667 0-1 .333-1 1h-10c.268-1.599-.066-2.932-1-4h-10a18.453 18.453 0 0 1 .5-6 68.505 68.505 0 0 1 4.5-8c1.542-.801 3.208-1.134 5-1v5h-5v5h11z"/><path style="opacity:1" fill="#f3f3f3" d="M16.5 293.5h5v4h-10v11h5v5h-5v5c-1.915-.284-3.581.049-5 1h-7v-1c1.756-1.052 2.423-2.719 2-5h5v-5h-7v-15h7v-5h-5v-5l10-1v11h5z"/><path style="opacity:1" fill="#454545" d="M57.5 283.5h5v5h-5v-5z"/><path style="opacity:1" fill="#5d5d5d" d="M117.5 282.5v6h-5v-6h5z"/><path style="opacity:1" fill="#a8a8a8" d="M142.5 278.5v5h-9v5h-6c-1.068-.934-2.401-1.268-4-1v-4c1.792.134 3.458-.199 5-1h5v-4c3.173-.868 6.173-.868 9 0z"/><path style="opacity:1" fill="#575757" d="M128.5 283.5h4v4h-4v-4z"/><path style="opacity:1" fill="#8b8b8b" d="M163.5 278.5h4v9h-4v-9z"/><path style="opacity:1" fill="#c3c3c3" d="M147.5 282.5h6v6h-6v-6z"/><path style="opacity:1" fill="#5a5a5a" d="M32.5 293.5h-6v-5h1v-5h5v4h4v5c-1.599-.268-2.932.066-4 1z"/><path style="opacity:1" fill="#686868" d="M87.5 288.5v5h-5v-5h5z"/><path style="opacity:1" fill="#ababab" d="M97.5 283.5h10v14h5v-4h10v15h-5v-5h-5v-5h-10v-5h-5v-10z"/><path style="opacity:1" fill="#949494" d="M254.5 288.5h5v5h-5v-5z"/><path style="opacity:1" fill="#f9f9f9" d="M117.5 282.5h-5v6h21v4c-2.235-.295-4.235.039-6 1v5h6v-5h4v9c-1.644-.214-3.144.12-4.5 1a50.464 50.464 0 0 0-.5 10h-5v5c-1.915-.284-3.581.049-5 1h-40c1.419-.951 3.085-1.284 5-1v-10h10c.934-1.068 1.268-2.401 1-4h9v3c-1.915-.284-3.581.049-5 1v10h5c.951-1.419 1.284-3.085 1-5h4v-10h5v5h5v-15c-4.47-.986-9.137-1.319-14-1v-10h-5v-9h19v10c-1.792.134-3.458-.199-5-1z"/><path style="opacity:1" fill="#bdbdbd" d="M26.5 288.5v5h6c3.018-.204 6.018-.537 9-1v-4h5v5h-4a104.578 104.578 0 0 1-1 9h-4c.268-1.599-.066-2.932-1-4h-24v9h4v1h-5v-11h10v-4h-5v-1c.934-1.068 1.268-2.401 1-4h4v-5h5v5z"/><path style="opacity:1" fill="#181818" d="M27.5 288.5h4v4h-4v-4z"/><path style="opacity:1" fill="#929292" d="M57.5 283.5v9h9v-4h6v5h-5v5h-10v-5h-5v15h5v5h5v-5h5v4h4v-9h1c-.901 3.741.432 5.741 4 6v4h-9v5c1.915-.284 3.581.049 5 1h-6c-3.125-.979-6.458-1.313-10-1v-5h-5v-20h-4c.32 5.195-.013 10.195-1 15v-5h-9v5c-.951-1.419-1.285-3.085-1-5h-14v5h4v5h6v5h10v-4h4v5h-25v-6h-5v-5h5v-6h15v-4c.934 1.068 1.268 2.401 1 4h4c.463-2.982.796-5.982 1-9h4v-5c3.125-.979 6.458-1.313 10-1-.268-1.599.066-2.932 1-4z"/><path style="opacity:1" fill="#606060" d="M57.5 298.5v10h-5v-15h5v5z"/><path style="opacity:1" fill="#f5f5f5" d="M72.5 293.5v10h-5v5h-5v5h-5v-15h10v-5h5z"/><path style="opacity:1" fill="#a6a6a6" d="M72.5 293.5h5v5h-5v-5z"/><path style="opacity:1" fill="#e8e8e8" d="M57.5 263.5c4.805-.987 9.805-1.321 15-1 5.195-.321 10.195.013 15 1h-5v5h5v4c1.915-.284 3.581.049 5 1h-5v4h5c-2.787.977-5.787 1.31-9 1v4h4v6h-5v5h5v5h-5v5h-5v-10h-5v-5h5v-5h5c.313-3.542-.02-6.875-1-10a104.653 104.653 0 0 0-9-1v-4h-5c1.068-.934 2.401-1.268 4-1v-4h-14z"/><path style="opacity:1" fill="#888" d="M72.5 268.5v-5h5v5h-5z"/><path style="opacity:1" fill="#767676" d="M87.5 293.5h5v5h-5v-5z"/><path style="opacity:1" fill="#717171" d="M127.5 293.5h6v5h-6v-5z"/><path style="opacity:1" fill="#bbb" d="M168.5 293.5v4h9c-.268-1.599.066-2.932 1-4v5h-10v5h-6v-5h-4v-10h5v5h5z"/><path style="opacity:1" fill="#a2a2a2" d="M178.5 293.5c-.934 1.068-1.268 2.401-1 4h-9v-4c1.419-.951 3.085-1.284 5-1v-10h5v-4h5v5h-5v10z"/><path style="opacity:1" fill="#9f9f9f" d="M223.5 293.5h6v5h-6v-5z"/><path style="opacity:1" fill="#0b0b0b" d="M238.5 293.5v5h10v4c-1.599-.268-2.932.066-4 1-.951 1.419-1.284 3.085-1 5h-5v3h-10a20.69 20.69 0 0 1 1-5 59.19 59.19 0 0 1 6-12c.825-.886 1.825-1.219 3-1z"/><path style="opacity:1" fill="#aeaeae" d="M238.5 293.5h10v5h-10v-5z"/><path style="opacity:1" fill="#e5e5e5" d="M314.5 282.5h5v6h6v5h-6v5h-15v-5h10v-11z"/><path style="opacity:1" fill="#9f9f9f" d="M142.5 293.5v5h16v5h-15v5h-5v5h-5v-6h4a82.73 82.73 0 0 0 1-14h4z"/><path style="opacity:1" fill="#2c2c2c" d="M16.5 298.5h5v10h-5v-10z"/><path style="opacity:1" fill="#545454" d="M21.5 298.5h15v4h-15v-4z"/><path style="opacity:1" fill="#757575" d="M102.5 298.5h10v5h-10v-5z"/><path style="opacity:1" fill="#666" d="M72.5 298.5h5v5h-5v-5z"/><path style="opacity:1" fill="#7c7c7c" d="M16.5 298.5v9h-4v-9h4z"/><path style="opacity:1" fill="#383838" d="M46.5 308.5h-9v-5h9v5z"/><path style="opacity:1" fill="#828282" d="M87.5 298.5v4h10v6h-10v5h-5v-5h-5v-5h5v-5h5z"/><path style="opacity:1" fill="#414141" d="M248.5 293.5c.934 1.068 1.268 2.401 1 4h10c-3.125.979-6.458 1.313-10 1v5h5c.432 3.377-.235 6.377-2 9h-9v-3c-2.054-.135-3.721.532-5 2v-3h5c-.284-1.915.049-3.581 1-5 1.068-.934 2.401-1.268 4-1v-9z"/><path style="opacity:1" fill="#080808" d="M244.5 308.5h4c.934-1.068 1.268-2.401 1-4h3v7h-8v-3z"/><path style="opacity:1" fill="#c2c2c2" d="M244.5 303.5h4v5h-4v-5z"/><path style="opacity:1" fill="#c9c9c9" d="M268.5 303.5h6v5h-6v-5z"/><path style="opacity:1" fill="#f0f0f0" d="M66.5 319.5h-19v-6h-6v-5h5c.987-4.805 1.32-9.805 1-15h4v20h5v5c3.542-.313 6.875.021 10 1z"/><path style="opacity:1" fill="#cacaca" d="M183.5 303.5h10v5h-10v-5z"/><path style="opacity:1" fill="#abacac" d="M208.5 303.5v10h-5v-10h5z"/><path style="opacity:1" fill="#dfdfdf" d="M260.5 296.5c.683 1.676 2.017 2.343 4 2v5h-5v14c2.198-.38 3.865.287 5 2h-6c-2.787-.977-5.787-1.31-9-1v-5c1.291.237 2.291-.096 3-1 1.765-2.623 2.432-5.623 2-9h-5v-5c3.542.313 6.875-.021 10-1 0-.667.333-1 1-1z"/><path style="opacity:1" fill="#212121" d="M-.5 308.5h7v5h-5c.423 2.281-.244 3.948-2 5v-10z"/><path style="opacity:1" fill="#515151" d="M71.5 303.5v9h-4v-9h4z"/><path style="opacity:1" fill="#c6c6c6" d="M87.5 298.5h15v5h10v10h-4c.284 1.915-.049 3.581-1 5v-10h-5c1.419-.951 3.085-1.284 5-1v-3h-9c.268 1.599-.066 2.932-1 4v-6h-10v-4z"/><path style="opacity:1" fill="#d3d3d3" d="M188.5 319.5h-20v-6c.934 1.068 1.268 2.401 1 4h8v-4h-5v-10h6v9h10v7z"/><path style="opacity:1" fill="#4c4c4c" d="M229.5 306.5a20.69 20.69 0 0 0-1 5h10c-3.462.982-7.129 1.315-11 1v-3c-.073-1.527.594-2.527 2-3z"/><path style="opacity:1" fill="#afafaf" d="M37.5 308.5h4v5h6v6h-1v-5h-4v4h-5v-10z"/><path style="opacity:1" fill="#d9d9d9" d="M142.5 278.5c.979 3.125 1.313 6.458 1 10h-5v4c1.599-.268 2.932.066 4 1h-4a82.73 82.73 0 0 1-1 14h-4v6h5v-5h15v5h-6v5c-1.599-.268-2.932.066-4 1h-21c1.419-.951 3.085-1.284 5-1v-5h5c-.165-3.35.002-6.683.5-10 1.356-.88 2.856-1.214 4.5-1v-9h-10c1.765-.961 3.765-1.295 6-1v-9h9v-5z"/><path style="opacity:1" fill="#dcdcdc" d="M193.5 288.5h10v5h5v4h5v7h-4v8h4v-5h11v11c-2.235-.295-4.235.039-6 1h-25v-6h5v5h5v-5h5v-15h-10v-5h-5v-5z"/><path style="opacity:1" fill="#b4b4b4" d="M227.5 309.5v3c3.871.315 7.538-.018 11-1 1.279-1.468 2.946-2.135 5-2v3h9c-.709.904-1.709 1.237-3 1h-23c-.268-1.599.066-2.932 1-4z"/><path style="opacity:1" fill="#ebebeb" d="M37.5 308.5v10h-5v-5h-6v-5h-4v-5h14c-.285 1.915.049 3.581 1 5z"/><path style="opacity:1" fill="#7f7f7f" d="M16.5 313.5h5v6h-15c1.419-.951 3.085-1.284 5-1v-5h5z"/><path style="opacity:1" fill="#f2f2f2" d="M16.5 313.5h5v5h-5v-5z"/><path style="opacity:1" fill="#c9c9c9" d="M72.5 303.5h5v5h5v5h5v5c-1.915-.284-3.581.049-5 1h-10c-1.419-.951-3.085-1.284-5-1v-5h9v-4c-3.568-.259-4.901-2.259-4-6z"/><path style="opacity:1" fill="#fcfcfc" d="M77.5 309.5h4v8h-4v-8z"/><path style="opacity:1" fill="#6d6d6d" d="M102.5 308.5h5v10h-5v-10z"/><path style="opacity:1" fill="#a0a0a0" d="M168.5 313.5v6h-5v-6h5z"/><path style="opacity:1" fill="#9a9a9a" d="M198.5 313.5h5v5h-5v-5z"/><path style="opacity:1" fill="#949494" d="M208.5 313.5h5v5h-5v-5z"/><path style="opacity:1" fill="#898989" d="M153.5 313.5v5c-1.915-.284-3.581.049-5 1h-5c1.068-.934 2.401-1.268 4-1v-5h6z"/></svg>