<svg xmlns="http://www.w3.org/2000/svg" width="152" height="152" style="shape-rendering:geometricPrecision;text-rendering:geometricPrecision;image-rendering:optimizeQuality;fill-rule:evenodd;clip-rule:evenodd"><path style="opacity:.978" fill="#fd9204" d="M28.5-.5h94c13.145 2.136 22.145 9.47 27 22-11.005-.166-22.005 0-33 .5 12.659 9.398 20.325 21.565 23 36.5-10.453-31.11-32.119-47.443-65-49-32.24 2.58-53.24 19.246-63 50-1.059-2.226-.892-4.56.5-7l6.5-13c-6.389-1.29-12.722-1.29-19 0v-12c3.783-15.45 13.45-24.784 29-28z"/><path style="opacity:1" fill="#17120e" d="M139.5 58.5a68.047 68.047 0 0 1 2 13c.354 12.23-1.979 23.897-7 35a104.83 104.83 0 0 1-19 23c-27.841 17.992-55.175 17.325-82-2-10.008-8.68-17.008-19.347-21-32a129.097 129.097 0 0 0-3-14c.01-7.413.676-14.747 2-22 9.76-30.754 30.76-47.42 63-50 32.881 1.557 54.547 17.89 65 49z"/><path style="opacity:1" fill="#fafafa" d="M65.5 12.5c38.307-2.117 62.474 15.216 72.5 52 3.165 35.45-11.669 59.617-44.5 72.5-35.346 7.41-60.846-5.09-76.5-37.5C5.935 61.324 18.102 33.49 53.5 16a119.82 119.82 0 0 0 12-3.5z"/><path style="opacity:.994" fill="#fe890e" d="M149.5 21.5c.375 2.198 1.042 4.198 2 6v42h-8a50.464 50.464 0 0 1-.5 10c-.183-2.865-.683-5.531-1.5-8a68.047 68.047 0 0 0-2-13c-2.675-14.935-10.341-27.102-23-36.5 10.995-.5 21.995-.666 33-.5z"/><path style="opacity:1" fill="#737374" d="M101.5 44.5a29.413 29.413 0 0 0-7-2c-4.747-2.605-9.914-4.272-15.5-5a613.35 613.35 0 0 1-20 0c-7.582 1.715-14.749 4.381-21.5 8a25.15 25.15 0 0 1 4-4.5A365.865 365.865 0 0 1 59 35.5c8.766.232 17.6.732 26.5 1.5 3.59 1.53 7.257 2.864 11 4 2.084.697 3.751 1.864 5 3.5z"/><path style="opacity:1" fill="#5b5757" d="M101.5 44.5c1.527-.073 2.527.594 3 2-1.527.073-2.527-.594-3-2z"/><path style="opacity:1" fill="#686869" d="M56.5 48.5c1.3-1.382 2.134-3.048 2.5-5 .818 3.095 2.818 5.095 6 6a18.78 18.78 0 0 1 5.5-4.5c-2.329-2.829-5.329-3.995-9-3.5-4.635.075-8.968 1.242-13 3.5l3 1c-4.51.31-8.844.977-13 2a241.981 241.981 0 0 1 19-8c4.732-1.036 9.066-.203 13 2.5a32.386 32.386 0 0 1 7-3c2.305.837 4.638 1.004 7 .5-2.034 3.014-4.368 3.18-7 .5a26.86 26.86 0 0 0-6 3.5l2 1c-5.784 2.06-8.618 5.893-8.5 11.5-1.165-2.076-1.665-4.243-1.5-6.5-2.178-1.202-4.51-1.702-7-1.5z"/><path style="opacity:1" fill="#525561" d="M37.5 45.5a10.521 10.521 0 0 1-2.5 3c-.52-1.99.314-2.99 2.5-3z"/><path style="opacity:1" fill="#868688" d="M94.5 42.5c1.59 1.734 3.59 2.9 6 3.5-1.333 1-1.333 2 0 3-1.687-.193-3.02-1.193-4-3-6.065-1.373-10.731.46-14 5.5 0-.667-.333-1-1-1 2-2.171 3.834-4.504 5.5-7 2.784 1.454 5.284 1.12 7.5-1z"/><path style="opacity:1" fill="#635e63" d="M104.5 46.5c2 0 3 1 3 3a6.544 6.544 0 0 1-3-3z"/><path style="opacity:1" fill="#58595d" d="M56.5 48.5c-.762 1.762-2.096 2.762-4 3 .762-1.762 2.096-2.762 4-3z"/><path style="opacity:1" fill="#807e7c" d="M48.5 52.5c.172.992-.162 1.658-1 2-.792-1.757-2.125-3.09-4-4l1-1a171.62 171.62 0 0 1 4 3z"/><path style="opacity:1" fill="#929292" d="m74.5 50.5 1 2a8.434 8.434 0 0 1-4-.5c.958-1.148.625-2.148-1-3 1.64-.348 2.973.152 4 1.5z"/><path style="opacity:1" fill="#212327" d="M52.5 51.5c-1.085 2.087-2.751 3.42-5 4v-1c.838-.342 1.172-1.008 1-2l4-1z"/><path style="opacity:1" fill="#2b2b2d" d="M74.5 50.5a18.166 18.166 0 0 1 5.5 2c.717-.544 1.217-1.21 1.5-2 .667 0 1 .333 1 1-.86 1.606-1.026 3.273-.5 5-1.312-2.739-3.478-4.072-6.5-4l-1-2z"/><path style="opacity:1" fill="#fc8215" d="M11.5 59.5a123.127 123.127 0 0 0-2 22 8.434 8.434 0 0 1-.5 4c-1.584-6.32-1.75-12.653-.5-19h-8c.237 1.291-.096 2.291-1 3v-30c6.278-1.29 12.611-1.29 19 0l-6.5 13c-1.392 2.44-1.559 4.774-.5 7z"/><path style="opacity:1" fill="#767577" d="M93.5 51.5c.574 1.028.907 2.028 1 3 2.942-2.727 5.609-2.56 8 .5-4.197-1.236-7.697-.07-10.5 3.5.011-2.385.511-4.718 1.5-7z"/><path style="opacity:1" fill="#a1a2a2" d="M33.5 52.5a30.139 30.139 0 0 0 3.5-3l.5 1c-1.419 2.459-2.419 5.125-3 8-.557-2.146-.89-4.146-1-6z"/><path style="opacity:1" fill="#6c6a6b" d="M107.5 49.5c1.954 4.225 4.62 7.892 8 11a494.818 494.818 0 0 1-4-3c-.177 2.578-1.343 2.578-3.5 0-1.688-3.025-3.021-6.025-4-9a14.584 14.584 0 0 1 4 6c.384-1.697.218-3.363-.5-5z"/><path style="opacity:1" fill="#787677" d="M47.5 54.5v1a21.904 21.904 0 0 0-6.5 4c-.507-1.496-.007-2.663 1.5-3.5a42.618 42.618 0 0 1 5-1.5z"/><path style="opacity:1" fill="#555659" d="M102.5 59.5a46.127 46.127 0 0 0 8 1.5c1.921 1.24 2.254 2.74 1 4.5-.838-3.754-3.504-4.921-8-3.5a20.495 20.495 0 0 1-2.5 3.5c-.322-2.189.178-4.189 1.5-6z"/><path style="opacity:1" fill="#8c8a89" d="M54.5 71.5c-1.517-.01-2.684-.677-3.5-2-1.358-2.36-2.358-4.693-3-7 2.176 3.03 4.343 6.03 6.5 9z"/><path style="opacity:1" fill="#919396" d="M88.5 65.5c1.679-1.675 3.679-2.508 6-2.5-1.658 1.662-3.658 2.496-6 2.5z"/><path style="opacity:1" fill="#302e2f" d="M85.5 65.5h3c.754 2.591 2.421 4.424 5 5.5-1 .667-2 .667-3 0a19.568 19.568 0 0 0-4-3.5l-1-2z"/><path style="opacity:1" fill="#585859" d="m85.5 65.5 1 2c-4.016-.6-7.516.4-10.5 3-3.65-.952-6.817.048-9.5 3-.793-.855-.46-1.689 1-2.5-3.055-.634-6.055-.468-9 .5.558-1.29 1.558-2.123 3-2.5l11-1c1.182-1.678 2.348-1.512 3.5.5 2.576-.957 4.576-2.624 6-5 .71 1.473 1.876 2.14 3.5 2z"/><path style="opacity:1" fill="#2f2e2f" d="M33.5 52.5c-3.651 3.445-4.485 7.445-2.5 12 1.011.837 2.178 1.17 3.5 1 .276 3.219 1.61 5.885 4 8a2.428 2.428 0 0 1-2-.5 51.095 51.095 0 0 1-4-5.5c-.886.825-1.219 1.825-1 3-.712-3.444-2.045-6.778-4-10a67.193 67.193 0 0 1 4.5-10c.278.916.778 1.583 1.5 2z"/><path style="opacity:1" fill="#868589" d="M103.5 66.5h3c.127 2.745-1.04 4.745-3.5 6 .135-1.925.302-3.925.5-6z"/><path style="opacity:1" fill="#8c8a8c" d="M115.5 60.5c7.004 6.688 9.337 14.688 7 24 .31-3.213-.023-6.213-1-9a48.22 48.22 0 0 0-4.5-8l-1.5 9h-2c1.273-4.668 1.273-9.335 0-14 .346-1.196.846-1.196 1.5 0a2.429 2.429 0 0 0 .5-2z"/><path style="opacity:1" fill="#413f41" d="M38.5 73.5c1.256-.039 2.256.461 3 1.5-1.498.585-2.498.085-3-1.5z"/><path style="opacity:1" fill="#49494e" d="M31.5 70.5c2.87 2.035 5.203 4.535 7 7.5 2.525 1.719 5.192 2.886 8 3.5-.838.342-1.172 1.008-1 2-6.6-2.266-11.266-6.6-14-13z"/><path style="opacity:1" fill="#48494b" d="M54.5 71.5h4c-2.333 3-5 5.667-8 8-.333-1.333-.667-1.333-1 0-2.955-.48-5.288-1.98-7-4.5.02-2.969.186-6.135.5-9.5.173 4.208 1.34 8.04 3.5 11.5 3.98 1.048 6.98-.285 9-4-.556-.383-.89-.883-1-1.5z"/><path style="opacity:1" fill="#656669" d="M113.5 76.5v2c-.958-.453-1.792-1.12-2.5-2a51.073 51.073 0 0 1-9 8c1.949-2.973 4.449-5.806 7.5-8.5 1.428-.58 2.762-.412 4 .5z"/><path style="opacity:1" fill="#717173" d="M66.5 76.5c1.648 1.31 3.314 2.643 5 4a42.41 42.41 0 0 0 11-4c1.196.346 1.196.846 0 1.5a16.228 16.228 0 0 0 3.5 1.5 86.94 86.94 0 0 0 11.5-.5l-3 2.5c.826.951.992 1.951.5 3-2.019-3.382-5.019-4.716-9-4l-5.5.5c1.711 1.133 2.211 2.633 1.5 4.5-2.694-5.666-6.694-6.666-12-3l1 5c-4.144-5.251-7.978-4.918-11.5 1-.468-1.613.199-3.113 2-4.5a12.8 12.8 0 0 0-6-3c2.805-.442 5.472.058 8 1.5a11.58 11.58 0 0 0 5-2c-1.13-1.122-1.797-2.456-2-4z"/><path style="opacity:1" fill="#131010" d="M50.5 79.5c.127 2.415.293 4.749.5 7-1.264-2.107-3.097-3.107-5.5-3-.172-.992.162-1.658 1-2 1.527.073 2.527-.594 3-2 .333-1.333.667-1.333 1 0z"/><path style="opacity:1" fill="#fa7521" d="M9.5 81.5a129.097 129.097 0 0 1 3 14c-1.703 1.16-2.37.493-2-2-4.002-.464-7.67.202-11 2v-26c.904-.709 1.237-1.709 1-3h8c-1.25 6.347-1.084 12.68.5 19a8.434 8.434 0 0 0 .5-4z"/><path style="opacity:1" fill="#fa7522" d="M151.5 69.5v26c-3.331-1.798-6.998-2.464-11-2-.817 2.979-1.651 5.979-2.5 9-.498 2.044-1.665 3.378-3.5 4 5.021-11.103 7.354-22.77 7-35 .817 2.469 1.317 5.135 1.5 8 .498-3.317.665-6.65.5-10h8z"/><path style="opacity:1" fill="#716f72" d="M113.5 78.5c.547 2.018 1.547 3.851 3 5.5a15.252 15.252 0 0 0-1.5 4.5c-.48-1.633-1.313-2.966-2.5-4 .841-1.88 1.175-3.88 1-6z"/><path style="opacity:1" fill="#dddddc" d="M121.5 75.5c1.371 7.73-.963 13.897-7 18.5-1.634.493-3.301.66-5 .5v-3c3.425.133 3.758-.534 1-2 .596-1.435.596-3.102 0-5h2c1.187 1.034 2.02 2.367 2.5 4a15.252 15.252 0 0 1 1.5-4.5c-1.453-1.649-2.453-3.482-3-5.5v-2h2l1.5-9a48.22 48.22 0 0 1 4.5 8z"/><path style="opacity:1" fill="#797778" d="M115.5 76.5c2.76 1.896 3.594 4.563 2.5 8a39.973 39.973 0 0 0-2.5-8z"/><path style="opacity:1" fill="#848484" d="M110.5 84.5c.596 1.898.596 3.565 0 5-.634-1.447-1.801-2.113-3.5-2a22.19 22.19 0 0 0-6 2c-9.754-1.275-19.254-.275-28.5 3l-3-1a124.649 124.649 0 0 1 21-4.5l1.5-1.5a34.002 34.002 0 0 1 9 3 225.594 225.594 0 0 1 9.5-4z"/><path style="opacity:1" fill="#3d3837" d="M56.5 92.5c-1.946-.754-2.78-2.088-2.5-4 1.481.97 2.315 2.304 2.5 4z"/><path style="opacity:1" fill="#939393" d="M61.5 93.5c5.249.147 10.249 1.147 15 3-5.394 1.405-10.394.405-15-3z"/><path style="opacity:1" fill="#0b0b0b" d="M98.5 93.5c2.469.817 5.135 1.317 8 1.5-1.558.21-2.891.71-4 1.5-1.274.69-1.274 1.523 0 2.5-.916.278-1.582.778-2 1.5-3.564.923-7.23 1.256-11 1 1.348-.686 2.515-1.686 3.5-3 .383.556.883.89 1.5 1 1.984.117 3.65-.55 5-2-2.167-.327-4.5-.994-7-2l-6 1-1-2c4.431.27 8.765-.064 13-1z"/><path style="opacity:1" fill="#fb6d2a" d="M12.5 95.5c3.992 12.653 10.992 23.32 21 32-7.03-4.532-12.53-10.532-16.5-18a70.904 70.904 0 0 1-16.5 1v13h-1v-28c3.33-1.798 6.998-2.464 11-2-.37 2.493.297 3.16 2 2z"/><path style="opacity:1" fill="#2e2d2d" d="M56.5 92.5c1.617.538 3.284.871 5 1 4.606 3.405 9.606 4.405 15 3 2.836-1.275 5.836-1.942 9-2l1 2h-5c-.17 1.322.163 2.489 1 3.5a52.55 52.55 0 0 0 7 1.5 13.216 13.216 0 0 1 2 5c3.213-.31 6.213.023 9 1-3.852 1.144-7.852 1.144-12 0l-2 1c-1.704-3.552-4.038-6.719-7-9.5-1.667-.667-3.333-.667-5 0 1.537 1.11 2.204 2.61 2 4.5a32.58 32.58 0 0 1-4-4.5c-5.98-.831-11.313-2.998-16-6.5z"/><path style="opacity:1" fill="#727272" d="M98.5 93.5c3.542-.313 6.875.02 10 1-1.05.405-1.05 1.071 0 2-2.079 2.606-4.079 2.606-6 0 1.109-.79 2.442-1.29 4-1.5-2.865-.183-5.531-.683-8-1.5z"/><path style="opacity:1" fill="#9b9b9c" d="M92.5 95.5c1.1 1.105 1.767 2.438 2 4-.617-.11-1.117-.444-1.5-1-.985 1.314-2.152 2.314-3.5 3a52.55 52.55 0 0 1-7-1.5c-.837-1.011-1.17-2.178-1-3.5h5l6-1z"/><path style="opacity:1" fill="#5c5a5a" d="M92.5 95.5c2.5 1.006 4.833 1.673 7 2-1.35 1.45-3.016 2.117-5 2-.233-1.562-.9-2.895-2-4z"/><path style="opacity:1" fill="#2a292a" d="M121.5 75.5c.977 2.787 1.31 5.787 1 9-.567 5.734-3.567 9.567-9 11.5a31.997 31.997 0 0 0-5.5 7.5 11.105 11.105 0 0 1-4.5 3c-.283-.716-.616-1.549-1-2.5 1.921-.36 3.588-1.194 5-2.5a13.116 13.116 0 0 0-7-1c.418-.722 1.084-1.222 2-1.5-1.274-.977-1.274-1.81 0-2.5 1.921 2.606 3.921 2.606 6 0-1.05-.929-1.05-1.595 0-2h1c1.699.16 3.366-.007 5-.5 6.037-4.603 8.371-10.77 7-18.5z"/><path style="opacity:1" fill="#e9e9e9" d="M86.5 108.5c0 .667-.333 1-1 1-.01-1.517-.677-2.684-2-3.5a18.834 18.834 0 0 1-7-2.5c.204-1.89-.463-3.39-2-4.5 1.667-.667 3.333-.667 5 0 2.962 2.781 5.296 5.948 7 9.5z"/><path style="opacity:1" fill="#a5a5a5" d="M100.5 100.5a13.116 13.116 0 0 1 7 1c-1.412 1.306-3.079 2.14-5 2.5.384.951.717 1.784 1 2.5-.709.904-1.709 1.237-3 1-2.787-.977-5.787-1.31-9-1a13.216 13.216 0 0 0-2-5c3.77.256 7.436-.077 11-1z"/><path style="opacity:1" fill="#838284" d="M76.5 103.5a18.834 18.834 0 0 0 7 2.5c1.323.816 1.99 1.983 2 3.5-2.264-2.04-4.764-2.707-7.5-2a10.122 10.122 0 0 1-1.5-4z"/><path style="opacity:1" fill="#fd6b2e" d="M151.5 95.5v28h-1c-3.776-1.325-7.943-1.991-12.5-2l-12.5.5c-2.857 3.248-6.19 5.748-10 7.5a104.83 104.83 0 0 0 19-23c1.835-.622 3.002-1.956 3.5-4 .849-3.021 1.683-6.021 2.5-9 4.002-.464 7.669.202 11 2z"/><path style="opacity:1" fill="#797776" d="M88.5 107.5c1.017 3.894 1.017 7.727 0 11.5-1.917-.027-3.584-.861-5-2.5l.5-1c2.198 2.449 3.698 2.283 4.5-.5-.363-2.192-1.363-4.026-3-5.5.667 0 1-.333 1-1l2-1z"/><path style="opacity:.98" fill="#fe6136" d="M33.5 127.5c26.825 19.325 54.159 19.992 82 2 3.81-1.752 7.143-4.252 10-7.5l12.5-.5c4.557.009 8.724.675 12.5 2-2.904 15.237-11.904 24.571-27 28h-95c-15.635-2.968-24.968-12.301-28-28v-13a70.904 70.904 0 0 0 16.5-1c3.97 7.468 9.47 13.468 16.5 18z"/></svg>