<svg xmlns="http://www.w3.org/2000/svg" width="398" height="278" style="shape-rendering:geometricPrecision;text-rendering:geometricPrecision;image-rendering:optimizeQuality;fill-rule:evenodd;clip-rule:evenodd"><path style="opacity:1" fill="#fefdfe" d="M-.5-.5h398v278H-.5V-.5z"/><path style="opacity:1" fill="#191919" d="M160.5 55.5h5a38.626 38.626 0 0 1 9 4h-3c-4.667-1.333-9.333-1.333-14 0-4.82 1.404-9.487 3.404-14 6-1.35-1.45-3.016-2.117-5-2l22-8z"/><path style="opacity:1" fill="#131313" d="m141.5 68.5-2 1c-1.172-1.205-2.505-1.205-4 0-.963-.47-.963-1.136 0-2l2-2c2.093-1.473 3.76-.973 5 1.5-.556.383-.889.883-1 1.5z"/><path style="opacity:1" fill="#7e7e7e" d="M157.5 59.5a93.678 93.678 0 0 1-16 9c.111-.617.444-1.117 1-1.5-1.24-2.473-2.907-2.973-5-1.5l1-2c1.984-.117 3.65.55 5 2 4.513-2.596 9.18-4.596 14-6z"/><path style="opacity:1" fill="#858585" d="m160.5 55.5-22 8c-2.657.435-4.991 1.435-7 3a62.506 62.506 0 0 0-20 7c-.476 2.684-1.476 5.017-3 7-1.299-.59-2.132-1.59-2.5-3a32.97 32.97 0 0 1-8.5 4 2.428 2.428 0 0 1-2-.5 145.625 145.625 0 0 0 10.5-4.5c1.057 1.127 2.223 1.627 3.5 1.5-.88-1.356-1.214-2.856-1-4.5 2.385-1.763 5.052-3.263 8-4.5a233.093 233.093 0 0 1 44-13.5z"/><path style="opacity:1" fill="#0a0a0a" d="M131.5 66.5a4263.409 4263.409 0 0 0-10 6c-4.612.286-7.279 2.62-8 7h3v1a243.631 243.631 0 0 0-26 14c-1.04-1.875-2.54-3.208-4.5-4a151.466 151.466 0 0 0-11.5 6c-1.459.067-2.792-.266-4-1-.13-.876.203-1.543 1-2 4.88-2.607 9.88-4.94 15-7 3.92 4.136 5.587 3.136 5-3 2.398.24 4.398-.426 6-2a32.97 32.97 0 0 0 8.5-4c.368 1.41 1.201 2.41 2.5 3 1.524-1.983 2.524-4.316 3-7a62.506 62.506 0 0 1 20-7z"/><path style="opacity:1" fill="#939293" d="M135.5 67.5c-.963.864-.963 1.53 0 2 1.495-1.205 2.828-1.205 4 0-1.84 2.169-4.174 3.502-7 4-1.1-1.058-2.434-1.892-4-2.5a17.345 17.345 0 0 1 7-3.5z"/><path style="opacity:1" fill="#4a4a4a" d="m138.5 63.5-1 2-2 2a17.345 17.345 0 0 0-7 3.5c1.566.608 2.9 1.442 4 2.5-1.105 1.1-2.438 1.767-4 2a66.019 66.019 0 0 0-12 5v-1a30.968 30.968 0 0 0-2-2c1.46-1.922 3.127-2.59 5-2-1.006.896-1.006 1.562 0 2a120.288 120.288 0 0 1 8-3.5c-.43-.92-.764-1.753-1-2.5a8.908 8.908 0 0 0-4 3c-.798-.457-1.131-1.124-1-2 3.301-1.987 6.634-3.987 10-6 2.009-1.565 4.343-2.565 7-3z"/><path style="opacity:1" fill="#7b7b7b" d="M165.5 55.5c8.895.91 16.895 4.076 24 9.5a183.839 183.839 0 0 1 10.5 7.5c.631 3.084-.202 5.75-2.5 8-8.131-7.812-16.798-14.812-26-21h3a38.626 38.626 0 0 0-9-4z"/><path style="opacity:1" fill="#101010" d="M174.5 59.5c2.516.255 4.85 1.089 7 2.5a179.568 179.568 0 0 0 15 10c2.348 1.688 2.515 3.522.5 5.5-6.931-6.86-14.431-12.86-22.5-18z"/><path style="opacity:1" fill="#a2a1a2" d="M116.5 79.5h-3c.721-4.38 3.388-6.714 8-7-.131.876.202 1.543 1 2a8.908 8.908 0 0 1 4-3c.236.747.57 1.58 1 2.5a120.288 120.288 0 0 0-8 3.5c-1.006-.438-1.006-1.104 0-2-1.873-.59-3.54.078-5 2a30.968 30.968 0 0 1 2 2z"/><path style="opacity:1" fill="#888788" d="M91.5 83.5c.587 6.136-1.08 7.136-5 3a153.059 153.059 0 0 0-15 7c-.797.457-1.13 1.124-1 2-.722-.418-1.222-1.084-1.5-2-.6 1.859-1.434 2.192-2.5 1a224.943 224.943 0 0 1 18-8.5c1.612-.72 3.112-.554 4.5.5.236-1.62 1.069-2.62 2.5-3z"/><path style="opacity:1" fill="#272727" d="M108.5 73.5c-.214 1.644.12 3.144 1 4.5-1.277.127-2.443-.373-3.5-1.5A145.625 145.625 0 0 1 95.5 81a2.428 2.428 0 0 0 2 .5c-1.602 1.574-3.602 2.24-6 2-1.431.38-2.264 1.38-2.5 3-1.388-1.054-2.888-1.22-4.5-.5a224.943 224.943 0 0 0-18 8.5c-1.7.16-3.366-.007-5-.5 15.658-6.828 31.324-13.662 47-20.5z"/><path style="opacity:1" fill="#e8e7e8" d="M86.5 95.5c-1.647 1.826-3.647 3.16-6 4-1.256.039-2.256-.461-3-1.5a21.52 21.52 0 0 0 6-5c2.972-.854 3.972-.02 3 2.5z"/><path style="opacity:1" fill="#7d7c7d" d="M337.5 94.5c-.992-.172-1.658.162-2 1h-4c.634-1.447 1.801-2.113 3.5-2 1.07.028 1.903.361 2.5 1z"/><path style="opacity:1" fill="#2a2a2a" d="M86.5 95.5c1 .333 1.667 1 2 2a11.741 11.741 0 0 0-5 3c-1.696 1.629-2.696 1.296-3-1 2.353-.84 4.353-2.174 6-4z"/><path style="opacity:1" fill="#7e7d7e" d="M128.5 75.5a767.605 767.605 0 0 1-40 22c-.333-1-1-1.667-2-2 .972-2.52-.028-3.354-3-2.5a21.52 21.52 0 0 1-6 5c.744 1.039 1.744 1.539 3 1.5.304 2.296 1.304 2.629 3 1a1006.586 1006.586 0 0 0 29 16 243.928 243.928 0 0 1-38-17 2.428 2.428 0 0 0 2-.5c-.88-.708-1.547-1.542-2-2.5a151.466 151.466 0 0 1 11.5-6c1.96.792 3.46 2.125 4.5 4a243.631 243.631 0 0 1 26-14 66.019 66.019 0 0 1 12-5z"/><path style="opacity:1" fill="#717171" d="M331.5 95.5a47.423 47.423 0 0 1-13 10 47.436 47.436 0 0 1 13-10z"/><path style="opacity:1" fill="#1c1c1c" d="M337.5 94.5c1.703 6.443 2.203 13.109 1.5 20a29.927 29.927 0 0 0-2-9c-.12 3.455-.62 6.122-1.5 8a98.432 98.432 0 0 0-.5-14c-.717.544-1.217 1.211-1.5 2l-24 25c-.838-.342-1.172-1.008-1-2 1.431-1.689 2.264-3.689 2.5-6a809.555 809.555 0 0 0 24.5-23c.342-.838 1.008-1.172 2-1z"/><path style="opacity:1" fill="#5e5d5e" d="M80.5 105.5c4.35 1.508 8.35 3.508 12 6a20.691 20.691 0 0 1-5-1 16.336 16.336 0 0 1-5-2c-1.406-.473-2.073-1.473-2-3z"/><path style="opacity:1" fill="#fcfbfc" d="M75.5 107.5a549.338 549.338 0 0 0 28 14.5c6.779 3.112 11.945 7.945 15.5 14.5a68.328 68.328 0 0 1 .5 26 32.462 32.462 0 0 1-8-.5 60.869 60.869 0 0 0-10-3.5 41.176 41.176 0 0 0-10-7 60.2 60.2 0 0 0-9.5-11l-7.5-15a183.753 183.753 0 0 1-3-13v-5h4z"/><path style="opacity:1" fill="#b9b8b9" d="m335.5 113.5-2-12c.283-.789.783-1.456 1.5-2 .499 4.655.666 9.321.5 14z"/><path style="opacity:1" fill="#2a2a2a" d="M66.5 113.5c1.186 1.461 1.186 2.795 0 4a64.837 64.837 0 0 1-6-18l1-2 4 3-3 2a32.412 32.412 0 0 1 1.5 6 3.647 3.647 0 0 1 1.5-1 9.864 9.864 0 0 1 1 6z"/><path style="opacity:1" fill="#6c6c6c" d="M318.5 105.5c-1.943 2.971-4.609 4.971-8 6a27.68 27.68 0 0 1 8-6z"/><path style="opacity:1" fill="#696969" d="M75.5 107.5h-4v5c-1.701-.711-2.701-2.045-3-4 1.392-4.734 3.726-5.067 7-1z"/><path style="opacity:1" fill="#5c5c5c" d="M310.5 111.5c-.473 1.406-1.473 2.073-3 2 .473-1.406 1.473-2.073 3-2z"/><path style="opacity:1" fill="#0c0c0c" d="M74.5 99.5a243.928 243.928 0 0 0 38 17c4.623 2.325 9.289 4.658 14 7 2.112 2.563 4.779 4.396 8 5.5 9.06 1.27 18.06 2.77 27 4.5 13.866 3.657 27.866 7.323 42 11 5.178 3.055 10.845 5.055 17 6 3.979.997 7.979 1.997 12 3 1.82 1.961 3.82 2.294 6 1 6.687-3.016 7.354-2.35 2 2-.826 4.482-1.326 9.149-1.5 14-3.31 1.819-5.643 4.486-7 8a75.716 75.716 0 0 1-6.5 22.5c-4.623 1.921-9.456 2.755-14.5 2.5a91.364 91.364 0 0 1-17.5-2h-1a264.308 264.308 0 0 1-27-14.5c-11.276-10.045-19.443-22.211-24.5-36.5-1.886-2.742-4.386-4.409-7.5-5a308.607 308.607 0 0 0-4-3c-2.074-3.296-3.407-6.963-4-11 1.082-.249 2.415-.415 4-.5-1.785-1.163-3.785-1.83-6-2-3.013-4.789-4.179-4.289-3.5 1.5a175.679 175.679 0 0 0 3.5 10 39.107 39.107 0 0 1 4 10v4c-.802-1.452-1.302-3.118-1.5-5a130.406 130.406 0 0 1-1.5 7c-.247 1.213-.914 1.88-2 2v-7c.375-8.474-1.792-16.141-6.5-23a431.475 431.475 0 0 0-28.5-18c1.617.538 3.284.871 5 1-3.65-2.492-7.65-4.492-12-6a39.754 39.754 0 0 1-15-7.5c-1.196-.654-1.196-1.154 0-1.5a71.237 71.237 0 0 0 9 3z"/><path style="opacity:1" fill="#3b3b3b" d="M68.5 108.5c.299 1.955 1.299 3.289 3 4a183.753 183.753 0 0 0 3 13h-1a27.162 27.162 0 0 1-3-5 60.206 60.206 0 0 1-3-7c-.284-1.915.049-3.581 1-5z"/><path style="opacity:1" fill="#575757" d="M307.5 113.5c-.901 2.227-2.567 3.227-5 3 1.399-1.39 3.066-2.39 5-3z"/><path style="opacity:1" fill="#b3b2b3" d="M92.5 111.5a74.716 74.716 0 0 1 15 6.5c-5.708-.52-10.708-2.687-15-6.5z"/><path style="opacity:1" fill="#868586" d="M75.5 107.5c2.177.086 4.177.753 6 2 .607-.124.94-.457 1-1a16.336 16.336 0 0 0 5 2c9.689 5.6 19.189 11.6 28.5 18 4.708 6.859 6.875 14.526 6.5 23a141.917 141.917 0 0 1-2.5 12 97.56 97.56 0 0 0-8 3c-1.07-.028-1.903-.361-2.5-1a4.934 4.934 0 0 0 3-.5l-13-5.5c-1.196.346-1.196.846 0 1.5a785.54 785.54 0 0 1 7 4.5c5.285 3.986 10.619 3.986 16 0-.843 1.673-2.176 2.84-4 3.5-11.652-.158-21.318-4.658-29-13.5 2.6 1.419 5.1 3.085 7.5 5l1.5-3c.891.61 1.891.943 3 1a60.869 60.869 0 0 1 10 3.5c2.646.497 5.313.664 8 .5a68.328 68.328 0 0 0-.5-26c-3.555-6.555-8.721-11.388-15.5-14.5a549.338 549.338 0 0 1-28-14.5z"/><path style="opacity:1" fill="#797979" d="M112.5 116.5c5.516.758 10.183 3.091 14 7a3381.654 3381.654 0 0 1-14-7z"/><path style="opacity:1" fill="#7c7c7c" d="M66.5 113.5h1a60.206 60.206 0 0 0 3 7v5a57.68 57.68 0 0 1-4-8c1.186-1.205 1.186-2.539 0-4z"/><path style="opacity:1" fill="#6f6e6f" d="M302.5 116.5c-4.051 3.694-8.717 6.36-14 8 4.333-3.169 9-5.836 14-8z"/><path style="opacity:1" fill="#f1f0f1" d="M331.5 95.5h4a809.555 809.555 0 0 1-24.5 23c-.236 2.311-1.069 4.311-2.5 6-.967 1.306-2.301 1.973-4 2 .067 1.459-.266 2.792-1 4a117.312 117.312 0 0 0-21 14c-4.183 1.587-7.85 3.921-11 7a112.63 112.63 0 0 0-21 13c0 1.333-.667 2-2 2-.06-.543-.393-.876-1-1a18.33 18.33 0 0 0-6 4 43.117 43.117 0 0 1-1-13c5.354-4.35 4.687-5.016-2-2-.543-.06-.876-.393-1-1a21.662 21.662 0 0 0 4-3c1.459-.067 2.792.266 4 1v2a25.879 25.879 0 0 0 1 10 222.825 222.825 0 0 1 4-12c4.665-1.328 8.665-3.661 12-7 6.071-.838 11.404-3.172 16-7 5.858-1.428 10.525-4.594 14-9.5a113.192 113.192 0 0 0 17-11.5 274.899 274.899 0 0 0-18 9.5c-1.657.725-2.657.225-3-1.5 5.283-1.64 9.949-4.306 14-8 2.433.227 4.099-.773 5-3 1.527.073 2.527-.594 3-2 3.391-1.029 6.057-3.029 8-6a47.423 47.423 0 0 0 13-10z"/><path style="opacity:1" fill="#343434" d="M309.5 116.5c.502-1.585 1.502-2.085 3-1.5-.744 1.039-1.744 1.539-3 1.5z"/><path style="opacity:1" fill="#404040" d="M305.5 121.5c2.434.854 2.267 1.854-.5 3-.47-1.077-.303-2.077.5-3z"/><path style="opacity:1" fill="#777" d="M308.5 124.5c-.172.992.162 1.658 1 2-1.302 2.322-3.302 3.655-6 4 .734-1.208 1.067-2.541 1-4 1.699-.027 3.033-.694 4-2z"/><path style="opacity:1" fill="#cccbcc" d="M129.5 142.5c-.689 1.274-1.523 1.274-2.5 0a108.15 108.15 0 0 0-4-11c-.154 2.563.346 5.063 1.5 7.5-.07.765-.403 1.265-1 1.5a175.679 175.679 0 0 1-3.5-10c-.679-5.789.487-6.289 3.5-1.5 2.215.17 4.215.837 6 2-1.585.085-2.918.251-4 .5.593 4.037 1.926 7.704 4 11z"/><path style="opacity:1" fill="#908f90" d="M126.5 123.5a50.656 50.656 0 0 1 8 3.5c8.635.563 16.968 2.063 25 4.5-.438-.065-.772.101-1 .5 1.237.232 2.237.732 3 1.5-8.94-1.73-17.94-3.23-27-4.5-3.221-1.104-5.888-2.937-8-5.5z"/><path style="opacity:1" fill="#1d1d1d" d="M309.5 116.5a113.192 113.192 0 0 1-17 11.5c-3.475 4.906-8.142 8.072-14 9.5 2.637-1.991 5.304-3.991 8-6l-.5-1a21.659 21.659 0 0 1-6.5 4l-1-2-5 2.5c-1.196.654-1.196 1.154 0 1.5.951-.826 1.951-.992 3-.5-2.247 1.277-4.247 2.777-6 4.5a4.934 4.934 0 0 1-3-.5c3.777-1.714 3.777-2.381 0-2a354.376 354.376 0 0 0-22 13.5c-1.208-.734-2.541-1.067-4-1l2-2c14.997-7.995 29.997-15.995 45-24 .343 1.725 1.343 2.225 3 1.5a274.899 274.899 0 0 1 18-9.5z"/><path style="opacity:1" fill="#131313" d="M70.5 120.5a27.162 27.162 0 0 0 3 5 579.01 579.01 0 0 1 7.5 18c8.51 8.579 8.176 8.913-1 1l-9.5-19v-5z"/><path style="opacity:1" fill="#757575" d="m278.5 137.5-8 3c1.753-1.723 3.753-3.223 6-4.5-1.049-.492-2.049-.326-3 .5-1.196-.346-1.196-.846 0-1.5l5-2.5 1 2a21.659 21.659 0 0 0 6.5-4l.5 1a1587.275 1587.275 0 0 0-8 6z"/><path style="opacity:1" fill="#bcbbbc" d="M138.5 130.5a1368.708 1368.708 0 0 1 39 9.5c-13.675-1.17-26.675-4.336-39-9.5z"/><path style="opacity:1" fill="#737373" d="M159.5 131.5a7616.814 7616.814 0 0 1 68 16.5c5.323.499 10.656.666 16 .5l-2 2a21.662 21.662 0 0 1-4 3c.124.607.457.94 1 1-2.18 1.294-4.18.961-6-1 1.923-.295 3.59-1.128 5-2.5a240.381 240.381 0 0 1-13.5-2.5c-1.699-.113-2.866.553-3.5 2-6.155-.945-11.822-2.945-17-6a12940.958 12940.958 0 0 1-42-11c-.763-.768-1.763-1.268-3-1.5.228-.399.562-.565 1-.5z"/><path style="opacity:1" fill="#4b4b4b" d="M303.5 130.5a111.99 111.99 0 0 1-21 14 117.312 117.312 0 0 1 21-14z"/><path style="opacity:1" fill="#fcfbfc" d="M198.5 151.5a16.339 16.339 0 0 1 5 2 109.224 109.224 0 0 1 13 6.5 111.781 111.781 0 0 0 7 8.5c1.657 9.288 1.323 18.455-1 27.5a17.899 17.899 0 0 1-7.5 1.5 168.68 168.68 0 0 1-20.5-3c0-.667-.333-1-1-1a100.826 100.826 0 0 1-18-6c-1.705-1.692-3.705-3.025-6-4-.342-.838-1.008-1.172-2-1-4.292-4.277-7.292-9.277-9-15-.892-8.779-4.225-16.446-10-23v-3c3.35-.165 6.683.002 10 .5a436.483 436.483 0 0 1 40 9.5z"/><path style="opacity:1" fill="#706f70" d="M129.5 142.5a308.607 308.607 0 0 1 4 3h-5c.284 1.915-.049 3.581-1 5a39.107 39.107 0 0 0-4-10c.597-.235.93-.735 1-1.5-1.154-2.437-1.654-4.937-1.5-7.5a108.15 108.15 0 0 1 4 11c.977 1.274 1.811 1.274 2.5 0z"/><path style="opacity:1" fill="#2d2d2d" d="M278.5 137.5c-4.596 3.828-9.929 6.162-16 7 2.43-1.881 5.096-3.215 8-4l8-3z"/><path style="opacity:1" fill="#838283" d="m70.5 125.5 9.5 19c9.176 7.913 9.51 7.579 1-1a579.01 579.01 0 0 0-7.5-18h1l7.5 15a60.2 60.2 0 0 1 9.5 11c-1.604.787-2.27 2.12-2 4-10.003-7.673-16.336-17.673-19-30z"/><path style="opacity:1" fill="#868586" d="M270.5 140.5c-2.904.785-5.57 2.119-8 4a33.512 33.512 0 0 0-12 7 16.339 16.339 0 0 0-5 2v-2a354.376 354.376 0 0 1 22-13.5c3.777-.381 3.777.286 0 2a4.934 4.934 0 0 0 3 .5z"/><path style="opacity:1" fill="#878687" d="M198.5 151.5a436.483 436.483 0 0 0-40-9.5 50.464 50.464 0 0 0-10-.5v3c-.722-.418-1.222-1.084-1.5-2a17.65 17.65 0 0 0 .5 6c-4.329-5.747-2.662-8.747 5-9a892.814 892.814 0 0 1 29 5.5c5.961 1.704 11.628 3.871 17 6.5z"/><path style="opacity:1" fill="#636363" d="M282.5 144.5c-3.15 3.079-6.817 5.413-11 7 3.15-3.079 6.817-5.413 11-7z"/><path style="opacity:1" fill="#1c1c1c" d="M148.5 144.5c5.775 6.554 9.108 14.221 10 23v2a445.071 445.071 0 0 0-11-21 17.65 17.65 0 0 1-.5-6c.278.916.778 1.582 1.5 2z"/><path style="opacity:1" fill="#eae9ea" d="M232.5 153.5c-4.021-1.003-8.021-2.003-12-3 .634-1.447 1.801-2.113 3.5-2 4.476.962 8.976 1.795 13.5 2.5-1.41 1.372-3.077 2.205-5 2.5z"/><path style="opacity:1" fill="#303030" d="M262.5 144.5c-3.335 3.339-7.335 5.672-12 7a33.512 33.512 0 0 1 12-7z"/><path style="opacity:1" fill="#464546" d="M91.5 151.5a41.176 41.176 0 0 1 10 7 5.727 5.727 0 0 1-3-1c-2.932-1.3-5.266-3.3-7-6z"/><path style="opacity:1" fill="#f2f1f2" d="M91.5 151.5c1.734 2.7 4.068 4.7 7 6l-1.5 3a51.772 51.772 0 0 0-7.5-5c-.27-1.88.396-3.213 2-4z"/><path style="opacity:1" fill="#d5d4d5" d="M147.5 148.5a445.071 445.071 0 0 1 11 21v3a119.499 119.499 0 0 1-8.5-14c-1.727-3.118-2.561-6.451-2.5-10z"/><path style="opacity:1" fill="#232323" d="M250.5 151.5a222.825 222.825 0 0 0-4 12 25.879 25.879 0 0 1-1-10 16.339 16.339 0 0 1 5-2z"/><path style="opacity:1" fill="#727272" d="M271.5 151.5a112.63 112.63 0 0 1-21 13 112.63 112.63 0 0 1 21-13z"/><path style="opacity:1" fill="#efeeef" d="M122.5 151.5v7c1.046 2.382 1.046 4.715 0 7-5.381 3.986-10.715 3.986-16 0h3c.597.639 1.43.972 2.5 1a97.56 97.56 0 0 1 8-3 141.917 141.917 0 0 0 2.5-12z"/><path style="opacity:1" fill="#807f80" d="M127.5 154.5c-.346 4.353-2.013 8.02-5 11 1.046-2.285 1.046-4.618 0-7 1.086-.12 1.753-.787 2-2a130.406 130.406 0 0 0 1.5-7c.198 1.882.698 3.548 1.5 5z"/><path style="opacity:1" fill="#1a1a1a" d="M109.5 165.5h-3a785.54 785.54 0 0 0-7-4.5c-1.196-.654-1.196-1.154 0-1.5l13 5.5a4.934 4.934 0 0 1-3 .5z"/><path style="opacity:1" fill="#6a696a" d="M223.5 168.5a111.781 111.781 0 0 1-7-8.5 109.224 109.224 0 0 0-13-6.5c8.19.703 14.69 4.703 19.5 12 .483.948.649 1.948.5 3z"/><path style="opacity:1" fill="#9c9b9c" d="M234.5 162.5c-1.604.787-2.271 2.12-2 4h-3c-1.301-1.384-1.301-2.884 0-4.5 1.887-.78 3.554-.613 5 .5z"/><path style="opacity:1" fill="#5f5e5f" d="M234.5 162.5c1.301 1.384 1.301 2.884 0 4.5-1.887.78-3.554.613-5-.5h3c-.271-1.88.396-3.213 2-4z"/><path style="opacity:1" fill="#747474" d="M240.5 156.5a43.117 43.117 0 0 0 1 13 18.33 18.33 0 0 1 6-4c.607.124.94.457 1 1a76.494 76.494 0 0 0-14.5 11 108.497 108.497 0 0 0-4 18c-1.518 5.857-5.352 9.024-11.5 9.5-8.843 1.437-17.176.27-25-3.5a91.364 91.364 0 0 0 17.5 2c5.044.255 9.877-.579 14.5-2.5a75.716 75.716 0 0 0 6.5-22.5c1.357-3.514 3.69-6.181 7-8 .174-4.851.674-9.518 1.5-14z"/><path style="opacity:1" fill="#6e6d6e" d="M158.5 167.5c1.708 5.723 4.708 10.723 9 15-1.871-.359-3.371-1.359-4.5-3a2.428 2.428 0 0 0-.5 2c-3.37-2.293-4.703-5.293-4-9v-5z"/><path style="opacity:1" fill="#6a6a6a" d="M223.5 168.5c3.819 9.438 3.985 19.105.5 29l-1.5 1.5c-4.188.176-8.188.676-12 1.5-2.86.416-5.026-.584-6.5-3-1.722.111-1.888.611-.5 1.5-1.574.699-2.907.365-4-1l2-1c-2.691-.156-5.024-.989-7-2.5a168.68 168.68 0 0 0 20.5 3c2.63.036 5.13-.464 7.5-1.5 2.323-9.045 2.657-18.212 1-27.5z"/><path style="opacity:1" fill="#5b5b5b" d="M169.5 183.5c2.295.975 4.295 2.308 6 4-2.64-.454-4.973-1.621-7-3.5.228-.399.562-.565 1-.5z"/><path style="opacity:1" fill="#d7d6d7" d="M167.5 182.5c.992-.172 1.658.162 2 1-.438-.065-.772.101-1 .5 2.027 1.879 4.36 3.046 7 3.5 5.448 4.261 11.448 6.261 18 6 .667 0 1 .333 1 1 1.976 1.511 4.309 2.344 7 2.5l-2 1c1.093 1.365 2.426 1.699 4 1-1.388-.889-1.222-1.389.5-1.5 1.474 2.416 3.64 3.416 6.5 3-3.476 1.143-7.142 1.31-11 .5l-4-4a87.169 87.169 0 0 1-14-3 160.999 160.999 0 0 0-15-8 25.14 25.14 0 0 1-4-4.5 2.428 2.428 0 0 1 .5-2c1.129 1.641 2.629 2.641 4.5 3z"/><path style="opacity:1" fill="#515151" d="M175.5 187.5a100.826 100.826 0 0 0 18 6c-6.552.261-12.552-1.739-18-6z"/><path style="opacity:1" fill="#7f7e7f" d="M133.5 145.5c3.114.591 5.614 2.258 7.5 5 5.057 14.289 13.224 26.455 24.5 36.5a264.308 264.308 0 0 0 27 14.5c-16.326-4.247-29.826-12.914-40.5-26a530.457 530.457 0 0 1-13-24c-1.36-2.523-3.193-4.523-5.5-6z"/></svg>