<?xml version="1.0" encoding="UTF-8"?>
<!DOCTYPE svg PUBLIC "-//W3C//DTD SVG 1.1//EN" "http://www.w3.org/Graphics/SVG/1.1/DTD/svg11.dtd">
<svg xmlns="http://www.w3.org/2000/svg" version="1.1" width="398px" height="278px" style="shape-rendering:geometricPrecision; text-rendering:geometricPrecision; image-rendering:optimizeQuality; fill-rule:evenodd; clip-rule:evenodd" xmlns:xlink="http://www.w3.org/1999/xlink">
<g><path style="opacity:1" fill="#fefdfe" d="M -0.5,-0.5 C 132.167,-0.5 264.833,-0.5 397.5,-0.5C 397.5,92.1667 397.5,184.833 397.5,277.5C 264.833,277.5 132.167,277.5 -0.5,277.5C -0.5,184.833 -0.5,92.1667 -0.5,-0.5 Z"/></g>
<g><path style="opacity:1" fill="#191919" d="M 160.5,55.5 C 162.167,55.5 163.833,55.5 165.5,55.5C 168.655,56.4423 171.655,57.7757 174.5,59.5C 173.5,59.5 172.5,59.5 171.5,59.5C 166.833,58.1667 162.167,58.1667 157.5,59.5C 152.68,60.904 148.013,62.904 143.5,65.5C 142.15,64.0499 140.484,63.3832 138.5,63.5C 145.833,60.8333 153.167,58.1667 160.5,55.5 Z"/></g>
<g><path style="opacity:1" fill="#131313" d="M 141.5,68.5 C 140.833,68.8333 140.167,69.1667 139.5,69.5C 138.328,68.2947 136.995,68.2947 135.5,69.5C 134.537,69.0302 134.537,68.3635 135.5,67.5C 136.167,66.8333 136.833,66.1667 137.5,65.5C 139.593,64.0274 141.26,64.5274 142.5,67C 141.944,67.3826 141.611,67.8826 141.5,68.5 Z"/></g>
<g><path style="opacity:1" fill="#7e7e7e" d="M 157.5,59.5 C 152.498,63.0031 147.165,66.0031 141.5,68.5C 141.611,67.8826 141.944,67.3826 142.5,67C 141.26,64.5274 139.593,64.0274 137.5,65.5C 137.833,64.8333 138.167,64.1667 138.5,63.5C 140.484,63.3832 142.15,64.0499 143.5,65.5C 148.013,62.904 152.68,60.904 157.5,59.5 Z"/></g>
<g><path style="opacity:1" fill="#858585" d="M 160.5,55.5 C 153.167,58.1667 145.833,60.8333 138.5,63.5C 135.843,63.9348 133.509,64.9348 131.5,66.5C 124.449,67.6902 117.782,70.0236 111.5,73.5C 111.024,76.1841 110.024,78.5175 108.5,80.5C 107.201,79.91 106.368,78.91 106,77.5C 103.337,79.2489 100.503,80.5822 97.5,81.5C 96.7611,81.631 96.0944,81.4643 95.5,81C 99.058,79.6377 102.558,78.1377 106,76.5C 107.057,77.6274 108.223,78.1274 109.5,78C 108.62,76.6439 108.286,75.1439 108.5,73.5C 110.885,71.7373 113.552,70.2373 116.5,69C 130.74,63.0427 145.407,58.5427 160.5,55.5 Z"/></g>
<g><path style="opacity:1" fill="#0a0a0a" d="M 131.5,66.5 C 128.134,68.5133 124.801,70.5133 121.5,72.5C 116.888,72.7863 114.221,75.1196 113.5,79.5C 114.5,79.5 115.5,79.5 116.5,79.5C 116.5,79.8333 116.5,80.1667 116.5,80.5C 107.542,84.6455 98.8751,89.3121 90.5,94.5C 89.4597,92.6251 87.9597,91.2918 86,90.5C 81.9936,92.3814 78.1603,94.3814 74.5,96.5C 73.0413,96.5674 71.7079,96.2341 70.5,95.5C 70.3691,94.6236 70.7025,93.9569 71.5,93.5C 76.3797,90.8933 81.3797,88.56 86.5,86.5C 90.4203,90.6363 92.087,89.6363 91.5,83.5C 93.8984,83.7406 95.8984,83.0739 97.5,81.5C 100.503,80.5822 103.337,79.2489 106,77.5C 106.368,78.91 107.201,79.91 108.5,80.5C 110.024,78.5175 111.024,76.1841 111.5,73.5C 117.782,70.0236 124.449,67.6902 131.5,66.5 Z"/></g>
<g><path style="opacity:1" fill="#939293" d="M 135.5,67.5 C 134.537,68.3635 134.537,69.0302 135.5,69.5C 136.995,68.2947 138.328,68.2947 139.5,69.5C 137.66,71.6689 135.326,73.0023 132.5,73.5C 131.4,72.4415 130.066,71.6082 128.5,71C 130.577,69.295 132.91,68.1283 135.5,67.5 Z"/></g>
<g><path style="opacity:1" fill="#4a4a4a" d="M 138.5,63.5 C 138.167,64.1667 137.833,64.8333 137.5,65.5C 136.833,66.1667 136.167,66.8333 135.5,67.5C 132.91,68.1283 130.577,69.295 128.5,71C 130.066,71.6082 131.4,72.4415 132.5,73.5C 131.395,74.6005 130.062,75.2671 128.5,75.5C 124.304,76.785 120.304,78.4517 116.5,80.5C 116.5,80.1667 116.5,79.8333 116.5,79.5C 115.909,78.8485 115.243,78.1818 114.5,77.5C 115.96,75.5776 117.627,74.9109 119.5,75.5C 118.494,76.3957 118.494,77.0623 119.5,77.5C 122.125,76.2361 124.792,75.0695 127.5,74C 127.07,73.0805 126.736,72.2472 126.5,71.5C 124.884,72.1152 123.551,73.1152 122.5,74.5C 121.702,74.0431 121.369,73.3764 121.5,72.5C 124.801,70.5133 128.134,68.5133 131.5,66.5C 133.509,64.9348 135.843,63.9348 138.5,63.5 Z"/></g>
<g><path style="opacity:1" fill="#7b7b7b" d="M 165.5,55.5 C 174.395,56.4095 182.395,59.5761 189.5,65C 193.088,67.3773 196.588,69.8773 200,72.5C 200.631,75.5836 199.798,78.2503 197.5,80.5C 189.369,72.6879 180.702,65.6879 171.5,59.5C 172.5,59.5 173.5,59.5 174.5,59.5C 171.655,57.7757 168.655,56.4423 165.5,55.5 Z"/></g>
<g><path style="opacity:1" fill="#101010" d="M 174.5,59.5 C 177.016,59.7553 179.35,60.5886 181.5,62C 186.328,65.5814 191.328,68.9148 196.5,72C 198.848,73.6884 199.015,75.5217 197,77.5C 190.069,70.6395 182.569,64.6395 174.5,59.5 Z"/></g>
<g><path style="opacity:1" fill="#a2a1a2" d="M 116.5,79.5 C 115.5,79.5 114.5,79.5 113.5,79.5C 114.221,75.1196 116.888,72.7863 121.5,72.5C 121.369,73.3764 121.702,74.0431 122.5,74.5C 123.551,73.1152 124.884,72.1152 126.5,71.5C 126.736,72.2472 127.07,73.0805 127.5,74C 124.792,75.0695 122.125,76.2361 119.5,77.5C 118.494,77.0623 118.494,76.3957 119.5,75.5C 117.627,74.9109 115.96,75.5776 114.5,77.5C 115.243,78.1818 115.909,78.8485 116.5,79.5 Z"/></g>
<g><path style="opacity:1" fill="#888788" d="M 91.5,83.5 C 92.087,89.6363 90.4203,90.6363 86.5,86.5C 81.3797,88.56 76.3797,90.8933 71.5,93.5C 70.7025,93.9569 70.3691,94.6236 70.5,95.5C 69.7784,95.0825 69.2784,94.4158 69,93.5C 68.3992,95.3588 67.5659,95.6921 66.5,94.5C 72.283,91.4443 78.283,88.611 84.5,86C 86.1124,85.2797 87.6124,85.4464 89,86.5C 89.2355,84.8807 90.0689,83.8807 91.5,83.5 Z"/></g>
<g><path style="opacity:1" fill="#272727" d="M 108.5,73.5 C 108.286,75.1439 108.62,76.6439 109.5,78C 108.223,78.1274 107.057,77.6274 106,76.5C 102.558,78.1377 99.058,79.6377 95.5,81C 96.0944,81.4643 96.7611,81.631 97.5,81.5C 95.8984,83.0739 93.8984,83.7406 91.5,83.5C 90.0689,83.8807 89.2355,84.8807 89,86.5C 87.6124,85.4464 86.1124,85.2797 84.5,86C 78.283,88.611 72.283,91.4443 66.5,94.5C 64.8008,94.6602 63.1341,94.4935 61.5,94C 77.1578,87.1717 92.8244,80.3384 108.5,73.5 Z"/></g>
<g><path style="opacity:1" fill="#e8e7e8" d="M 86.5,95.5 C 84.8525,97.3264 82.8525,98.6597 80.5,99.5C 79.2438,99.5386 78.2438,99.0386 77.5,98C 79.792,96.7101 81.792,95.0435 83.5,93C 86.472,92.1458 87.472,92.9792 86.5,95.5 Z"/></g>
<g><path style="opacity:1" fill="#7d7c7d" d="M 337.5,94.5 C 336.508,94.3284 335.842,94.6618 335.5,95.5C 334.167,95.5 332.833,95.5 331.5,95.5C 332.134,94.0532 333.301,93.3866 335,93.5C 336.07,93.528 336.903,93.8614 337.5,94.5 Z"/></g>
<g><path style="opacity:1" fill="#2a2a2a" d="M 86.5,95.5 C 87.5,95.8333 88.1667,96.5 88.5,97.5C 86.5887,98.075 84.922,99.075 83.5,100.5C 81.8041,102.129 80.8041,101.796 80.5,99.5C 82.8525,98.6597 84.8525,97.3264 86.5,95.5 Z"/></g>
<g><path style="opacity:1" fill="#7e7d7e" d="M 128.5,75.5 C 115.442,83.1983 102.109,90.5317 88.5,97.5C 88.1667,96.5 87.5,95.8333 86.5,95.5C 87.472,92.9792 86.472,92.1458 83.5,93C 81.792,95.0435 79.792,96.7101 77.5,98C 78.2438,99.0386 79.2438,99.5386 80.5,99.5C 80.8041,101.796 81.8041,102.129 83.5,100.5C 93.0552,105.979 102.722,111.313 112.5,116.5C 99.2722,111.882 86.6055,106.215 74.5,99.5C 75.2389,99.631 75.9056,99.4643 76.5,99C 75.6195,98.2917 74.9528,97.4584 74.5,96.5C 78.1603,94.3814 81.9936,92.3814 86,90.5C 87.9597,91.2918 89.4597,92.6251 90.5,94.5C 98.8751,89.3121 107.542,84.6455 116.5,80.5C 120.304,78.4517 124.304,76.785 128.5,75.5 Z"/></g>
<g><path style="opacity:1" fill="#717171" d="M 331.5,95.5 C 327.742,99.5922 323.409,102.926 318.5,105.5C 322.258,101.408 326.591,98.0745 331.5,95.5 Z"/></g>
<g><path style="opacity:1" fill="#1c1c1c" d="M 337.5,94.5 C 339.203,100.943 339.703,107.609 339,114.5C 338.794,111.377 338.127,108.377 337,105.5C 336.88,108.955 336.38,111.622 335.5,113.5C 335.666,108.821 335.499,104.155 335,99.5C 334.283,100.044 333.783,100.711 333.5,101.5C 325.5,109.833 317.5,118.167 309.5,126.5C 308.662,126.158 308.328,125.492 308.5,124.5C 309.931,122.811 310.764,120.811 311,118.5C 319.364,110.967 327.531,103.3 335.5,95.5C 335.842,94.6618 336.508,94.3284 337.5,94.5 Z"/></g>
<g><path style="opacity:1" fill="#5e5d5e" d="M 80.5,105.5 C 84.8491,107.008 88.8491,109.008 92.5,111.5C 90.7839,111.371 89.1172,111.038 87.5,110.5C 85.7162,110.107 84.0495,109.441 82.5,108.5C 81.0937,108.027 80.427,107.027 80.5,105.5 Z"/></g>
<g><path style="opacity:1" fill="#fcfbfc" d="M 75.5,107.5 C 84.5837,112.544 93.9171,117.377 103.5,122C 110.279,125.112 115.445,129.945 119,136.5C 120.831,145.139 120.998,153.806 119.5,162.5C 116.813,162.664 114.146,162.497 111.5,162C 108.242,160.533 104.908,159.367 101.5,158.5C 98.5249,155.677 95.1916,153.344 91.5,151.5C 88.814,147.492 85.6473,143.825 82,140.5C 79.4541,135.408 76.9541,130.408 74.5,125.5C 73.3436,121.207 72.3436,116.874 71.5,112.5C 71.5,110.833 71.5,109.167 71.5,107.5C 72.8333,107.5 74.1667,107.5 75.5,107.5 Z"/></g>
<g><path style="opacity:1" fill="#b9b8b9" d="M 335.5,113.5 C 334.833,109.5 334.167,105.5 333.5,101.5C 333.783,100.711 334.283,100.044 335,99.5C 335.499,104.155 335.666,108.821 335.5,113.5 Z"/></g>
<g><path style="opacity:1" fill="#2a2a2a" d="M 66.5,113.5 C 67.6857,114.961 67.6857,116.295 66.5,117.5C 63.6276,111.825 61.6276,105.825 60.5,99.5C 60.8333,98.8333 61.1667,98.1667 61.5,97.5C 62.8333,98.5 64.1667,99.5 65.5,100.5C 64.5,101.167 63.5,101.833 62.5,102.5C 63.1892,104.444 63.6892,106.444 64,108.5C 64.414,108.043 64.914,107.709 65.5,107.5C 66.4656,109.396 66.7989,111.396 66.5,113.5 Z"/></g>
<g><path style="opacity:1" fill="#6c6c6c" d="M 318.5,105.5 C 316.557,108.471 313.891,110.471 310.5,111.5C 312.8,109.016 315.467,107.016 318.5,105.5 Z"/></g>
<g><path style="opacity:1" fill="#696969" d="M 75.5,107.5 C 74.1667,107.5 72.8333,107.5 71.5,107.5C 71.5,109.167 71.5,110.833 71.5,112.5C 69.7986,111.789 68.7986,110.455 68.5,108.5C 69.8923,103.766 72.2256,103.433 75.5,107.5 Z"/></g>
<g><path style="opacity:1" fill="#5c5c5c" d="M 310.5,111.5 C 310.027,112.906 309.027,113.573 307.5,113.5C 307.973,112.094 308.973,111.427 310.5,111.5 Z"/></g>
<g><path style="opacity:1" fill="#0c0c0c" d="M 74.5,99.5 C 86.6055,106.215 99.2722,111.882 112.5,116.5C 117.123,118.825 121.789,121.158 126.5,123.5C 128.612,126.063 131.279,127.896 134.5,129C 143.56,130.27 152.56,131.77 161.5,133.5C 175.366,137.157 189.366,140.823 203.5,144.5C 208.678,147.555 214.345,149.555 220.5,150.5C 224.479,151.497 228.479,152.497 232.5,153.5C 234.32,155.461 236.32,155.794 238.5,154.5C 245.187,151.484 245.854,152.15 240.5,156.5C 239.674,160.982 239.174,165.649 239,170.5C 235.69,172.319 233.357,174.986 232,178.5C 230.995,186.356 228.828,193.856 225.5,201C 220.877,202.921 216.044,203.755 211,203.5C 205.088,203.395 199.255,202.729 193.5,201.5C 193.167,201.5 192.833,201.5 192.5,201.5C 183.275,197.219 174.275,192.385 165.5,187C 154.224,176.955 146.057,164.789 141,150.5C 139.114,147.758 136.614,146.091 133.5,145.5C 132.205,144.512 130.872,143.512 129.5,142.5C 127.426,139.204 126.093,135.537 125.5,131.5C 126.582,131.251 127.915,131.085 129.5,131C 127.715,129.837 125.715,129.17 123.5,129C 120.487,124.211 119.321,124.711 120,130.5C 121.075,133.894 122.242,137.228 123.5,140.5C 125.287,143.631 126.621,146.964 127.5,150.5C 127.5,151.833 127.5,153.167 127.5,154.5C 126.698,153.048 126.198,151.382 126,149.5C 125.564,151.847 125.064,154.181 124.5,156.5C 124.253,157.713 123.586,158.38 122.5,158.5C 122.5,156.167 122.5,153.833 122.5,151.5C 122.875,143.026 120.708,135.359 116,128.5C 106.689,122.1 97.1888,116.1 87.5,110.5C 89.1172,111.038 90.7839,111.371 92.5,111.5C 88.8491,109.008 84.8491,107.008 80.5,105.5C 74.9754,104.071 69.9754,101.571 65.5,98C 64.3044,97.3457 64.3044,96.8457 65.5,96.5C 68.4496,97.7054 71.4496,98.7054 74.5,99.5 Z"/></g>
<g><path style="opacity:1" fill="#3b3b3b" d="M 68.5,108.5 C 68.7986,110.455 69.7986,111.789 71.5,112.5C 72.3436,116.874 73.3436,121.207 74.5,125.5C 74.1667,125.5 73.8333,125.5 73.5,125.5C 72.3127,123.928 71.3127,122.261 70.5,120.5C 69.3485,118.221 68.3485,115.888 67.5,113.5C 67.2155,111.585 67.5489,109.919 68.5,108.5 Z"/></g>
<g><path style="opacity:1" fill="#575757" d="M 307.5,113.5 C 306.599,115.727 304.933,116.727 302.5,116.5C 303.899,115.11 305.566,114.11 307.5,113.5 Z"/></g>
<g><path style="opacity:1" fill="#b3b2b3" d="M 92.5,111.5 C 97.7313,113.115 102.731,115.282 107.5,118C 101.792,117.48 96.7921,115.313 92.5,111.5 Z"/></g>
<g><path style="opacity:1" fill="#868586" d="M 75.5,107.5 C 77.677,107.586 79.677,108.253 81.5,109.5C 82.1067,109.376 82.44,109.043 82.5,108.5C 84.0495,109.441 85.7162,110.107 87.5,110.5C 97.1888,116.1 106.689,122.1 116,128.5C 120.708,135.359 122.875,143.026 122.5,151.5C 121.862,155.427 121.029,159.427 120,163.5C 117.319,164.372 114.653,165.372 112,166.5C 110.93,166.472 110.097,166.139 109.5,165.5C 110.552,165.649 111.552,165.483 112.5,165C 108.167,163.167 103.833,161.333 99.5,159.5C 98.3044,159.846 98.3044,160.346 99.5,161C 101.898,162.524 104.231,164.024 106.5,165.5C 111.785,169.486 117.119,169.486 122.5,165.5C 121.657,167.173 120.324,168.34 118.5,169C 106.848,168.842 97.1816,164.342 89.5,155.5C 92.1004,156.919 94.6004,158.585 97,160.5C 97.5133,159.473 98.0133,158.473 98.5,157.5C 99.391,158.11 100.391,158.443 101.5,158.5C 104.908,159.367 108.242,160.533 111.5,162C 114.146,162.497 116.813,162.664 119.5,162.5C 120.998,153.806 120.831,145.139 119,136.5C 115.445,129.945 110.279,125.112 103.5,122C 93.9171,117.377 84.5837,112.544 75.5,107.5 Z"/></g>
<g><path style="opacity:1" fill="#797979" d="M 112.5,116.5 C 118.016,117.258 122.683,119.591 126.5,123.5C 121.789,121.158 117.123,118.825 112.5,116.5 Z"/></g>
<g><path style="opacity:1" fill="#7c7c7c" d="M 66.5,113.5 C 66.8333,113.5 67.1667,113.5 67.5,113.5C 68.3485,115.888 69.3485,118.221 70.5,120.5C 70.5,122.167 70.5,123.833 70.5,125.5C 68.9886,122.995 67.6553,120.328 66.5,117.5C 67.6857,116.295 67.6857,114.961 66.5,113.5 Z"/></g>
<g><path style="opacity:1" fill="#6f6e6f" d="M 302.5,116.5 C 298.449,120.194 293.783,122.86 288.5,124.5C 292.833,121.331 297.5,118.664 302.5,116.5 Z"/></g>
<g><path style="opacity:1" fill="#f1f0f1" d="M 331.5,95.5 C 332.833,95.5 334.167,95.5 335.5,95.5C 327.531,103.3 319.364,110.967 311,118.5C 310.764,120.811 309.931,122.811 308.5,124.5C 307.533,125.806 306.199,126.473 304.5,126.5C 304.567,127.959 304.234,129.292 303.5,130.5C 295.976,134.425 288.976,139.092 282.5,144.5C 278.317,146.087 274.65,148.421 271.5,151.5C 263.989,155.085 256.989,159.418 250.5,164.5C 250.5,165.833 249.833,166.5 248.5,166.5C 248.44,165.957 248.107,165.624 247.5,165.5C 245.228,166.441 243.228,167.774 241.5,169.5C 240.508,165.217 240.174,160.884 240.5,156.5C 245.854,152.15 245.187,151.484 238.5,154.5C 237.957,154.44 237.624,154.107 237.5,153.5C 239.007,152.611 240.34,151.611 241.5,150.5C 242.959,150.433 244.292,150.766 245.5,151.5C 245.5,152.167 245.5,152.833 245.5,153.5C 245.18,156.898 245.513,160.232 246.5,163.5C 247.741,159.399 249.074,155.399 250.5,151.5C 255.165,150.172 259.165,147.839 262.5,144.5C 268.571,143.662 273.904,141.328 278.5,137.5C 284.358,136.072 289.025,132.906 292.5,128C 298.578,124.639 304.245,120.805 309.5,116.5C 303.389,119.441 297.389,122.608 291.5,126C 289.843,126.725 288.843,126.225 288.5,124.5C 293.783,122.86 298.449,120.194 302.5,116.5C 304.933,116.727 306.599,115.727 307.5,113.5C 309.027,113.573 310.027,112.906 310.5,111.5C 313.891,110.471 316.557,108.471 318.5,105.5C 323.409,102.926 327.742,99.5922 331.5,95.5 Z"/></g>
<g><path style="opacity:1" fill="#343434" d="M 309.5,116.5 C 310.002,114.915 311.002,114.415 312.5,115C 311.756,116.039 310.756,116.539 309.5,116.5 Z"/></g>
<g><path style="opacity:1" fill="#404040" d="M 305.5,121.5 C 307.934,122.354 307.767,123.354 305,124.5C 304.53,123.423 304.697,122.423 305.5,121.5 Z"/></g>
<g><path style="opacity:1" fill="#777777" d="M 308.5,124.5 C 308.328,125.492 308.662,126.158 309.5,126.5C 308.198,128.822 306.198,130.155 303.5,130.5C 304.234,129.292 304.567,127.959 304.5,126.5C 306.199,126.473 307.533,125.806 308.5,124.5 Z"/></g>
<g><path style="opacity:1" fill="#cccbcc" d="M 129.5,142.5 C 128.811,143.774 127.977,143.774 127,142.5C 125.864,138.757 124.53,135.09 123,131.5C 122.846,134.063 123.346,136.563 124.5,139C 124.43,139.765 124.097,140.265 123.5,140.5C 122.242,137.228 121.075,133.894 120,130.5C 119.321,124.711 120.487,124.211 123.5,129C 125.715,129.17 127.715,129.837 129.5,131C 127.915,131.085 126.582,131.251 125.5,131.5C 126.093,135.537 127.426,139.204 129.5,142.5 Z"/></g>
<g><path style="opacity:1" fill="#908f90" d="M 126.5,123.5 C 129.269,124.437 131.936,125.604 134.5,127C 143.135,127.563 151.468,129.063 159.5,131.5C 159.062,131.435 158.728,131.601 158.5,132C 159.737,132.232 160.737,132.732 161.5,133.5C 152.56,131.77 143.56,130.27 134.5,129C 131.279,127.896 128.612,126.063 126.5,123.5 Z"/></g>
<g><path style="opacity:1" fill="#1d1d1d" d="M 309.5,116.5 C 304.245,120.805 298.578,124.639 292.5,128C 289.025,132.906 284.358,136.072 278.5,137.5C 281.137,135.509 283.804,133.509 286.5,131.5C 286.333,131.167 286.167,130.833 286,130.5C 284.084,132.209 281.918,133.543 279.5,134.5C 279.167,133.833 278.833,133.167 278.5,132.5C 276.833,133.333 275.167,134.167 273.5,135C 272.304,135.654 272.304,136.154 273.5,136.5C 274.451,135.674 275.451,135.508 276.5,136C 274.253,137.277 272.253,138.777 270.5,140.5C 269.448,140.649 268.448,140.483 267.5,140C 271.277,138.286 271.277,137.619 267.5,138C 259.936,142.274 252.602,146.774 245.5,151.5C 244.292,150.766 242.959,150.433 241.5,150.5C 242.167,149.833 242.833,149.167 243.5,148.5C 258.497,140.505 273.497,132.505 288.5,124.5C 288.843,126.225 289.843,126.725 291.5,126C 297.389,122.608 303.389,119.441 309.5,116.5 Z"/></g>
<g><path style="opacity:1" fill="#131313" d="M 70.5,120.5 C 71.3127,122.261 72.3127,123.928 73.5,125.5C 76.0915,131.435 78.5915,137.435 81,143.5C 89.5091,152.079 89.1757,152.413 80,144.5C 76.7874,138.075 73.6207,131.741 70.5,125.5C 70.5,123.833 70.5,122.167 70.5,120.5 Z"/></g>
<g><path style="opacity:1" fill="#757575" d="M 278.5,137.5 C 275.833,138.5 273.167,139.5 270.5,140.5C 272.253,138.777 274.253,137.277 276.5,136C 275.451,135.508 274.451,135.674 273.5,136.5C 272.304,136.154 272.304,135.654 273.5,135C 275.167,134.167 276.833,133.333 278.5,132.5C 278.833,133.167 279.167,133.833 279.5,134.5C 281.918,133.543 284.084,132.209 286,130.5C 286.167,130.833 286.333,131.167 286.5,131.5C 283.804,133.509 281.137,135.509 278.5,137.5 Z"/></g>
<g><path style="opacity:1" fill="#bcbbbc" d="M 138.5,130.5 C 151.547,133.476 164.547,136.643 177.5,140C 163.825,138.83 150.825,135.664 138.5,130.5 Z"/></g>
<g><path style="opacity:1" fill="#737373" d="M 159.5,131.5 C 182.184,136.894 204.851,142.394 227.5,148C 232.823,148.499 238.156,148.666 243.5,148.5C 242.833,149.167 242.167,149.833 241.5,150.5C 240.34,151.611 239.007,152.611 237.5,153.5C 237.624,154.107 237.957,154.44 238.5,154.5C 236.32,155.794 234.32,155.461 232.5,153.5C 234.423,153.205 236.09,152.372 237.5,151C 232.976,150.295 228.476,149.462 224,148.5C 222.301,148.387 221.134,149.053 220.5,150.5C 214.345,149.555 208.678,147.555 203.5,144.5C 189.366,140.823 175.366,137.157 161.5,133.5C 160.737,132.732 159.737,132.232 158.5,132C 158.728,131.601 159.062,131.435 159.5,131.5 Z"/></g>
<g><path style="opacity:1" fill="#4b4b4b" d="M 303.5,130.5 C 297.049,135.944 290.049,140.61 282.5,144.5C 288.976,139.092 295.976,134.425 303.5,130.5 Z"/></g>
<g><path style="opacity:1" fill="#fcfbfc" d="M 198.5,151.5 C 200.284,151.893 201.95,152.559 203.5,153.5C 207.878,155.328 212.211,157.495 216.5,160C 218.733,162.996 221.066,165.829 223.5,168.5C 225.157,177.788 224.823,186.955 222.5,196C 220.13,197.036 217.63,197.536 215,197.5C 208.091,196.918 201.258,195.918 194.5,194.5C 194.5,193.833 194.167,193.5 193.5,193.5C 187.291,192.059 181.291,190.059 175.5,187.5C 173.795,185.808 171.795,184.475 169.5,183.5C 169.158,182.662 168.492,182.328 167.5,182.5C 163.208,178.223 160.208,173.223 158.5,167.5C 157.608,158.721 154.275,151.054 148.5,144.5C 148.5,143.5 148.5,142.5 148.5,141.5C 151.85,141.335 155.183,141.502 158.5,142C 172.015,144.546 185.349,147.713 198.5,151.5 Z"/></g>
<g><path style="opacity:1" fill="#706f70" d="M 129.5,142.5 C 130.872,143.512 132.205,144.512 133.5,145.5C 131.833,145.5 130.167,145.5 128.5,145.5C 128.784,147.415 128.451,149.081 127.5,150.5C 126.621,146.964 125.287,143.631 123.5,140.5C 124.097,140.265 124.43,139.765 124.5,139C 123.346,136.563 122.846,134.063 123,131.5C 124.53,135.09 125.864,138.757 127,142.5C 127.977,143.774 128.811,143.774 129.5,142.5 Z"/></g>
<g><path style="opacity:1" fill="#2d2d2d" d="M 278.5,137.5 C 273.904,141.328 268.571,143.662 262.5,144.5C 264.93,142.619 267.596,141.285 270.5,140.5C 273.167,139.5 275.833,138.5 278.5,137.5 Z"/></g>
<g><path style="opacity:1" fill="#838283" d="M 70.5,125.5 C 73.6207,131.741 76.7874,138.075 80,144.5C 89.1757,152.413 89.5091,152.079 81,143.5C 78.5915,137.435 76.0915,131.435 73.5,125.5C 73.8333,125.5 74.1667,125.5 74.5,125.5C 76.9541,130.408 79.4541,135.408 82,140.5C 85.6473,143.825 88.814,147.492 91.5,151.5C 89.8958,152.287 89.2291,153.62 89.5,155.5C 79.4973,147.827 73.164,137.827 70.5,125.5 Z"/></g>
<g><path style="opacity:1" fill="#868586" d="M 270.5,140.5 C 267.596,141.285 264.93,142.619 262.5,144.5C 258.003,146 254.003,148.333 250.5,151.5C 248.716,151.893 247.05,152.559 245.5,153.5C 245.5,152.833 245.5,152.167 245.5,151.5C 252.602,146.774 259.936,142.274 267.5,138C 271.277,137.619 271.277,138.286 267.5,140C 268.448,140.483 269.448,140.649 270.5,140.5 Z"/></g>
<g><path style="opacity:1" fill="#878687" d="M 198.5,151.5 C 185.349,147.713 172.015,144.546 158.5,142C 155.183,141.502 151.85,141.335 148.5,141.5C 148.5,142.5 148.5,143.5 148.5,144.5C 147.778,144.082 147.278,143.416 147,142.5C 146.82,144.488 146.986,146.488 147.5,148.5C 143.171,142.753 144.838,139.753 152.5,139.5C 162.191,141.172 171.857,143.006 181.5,145C 187.461,146.704 193.128,148.871 198.5,151.5 Z"/></g>
<g><path style="opacity:1" fill="#636363" d="M 282.5,144.5 C 279.35,147.579 275.683,149.913 271.5,151.5C 274.65,148.421 278.317,146.087 282.5,144.5 Z"/></g>
<g><path style="opacity:1" fill="#1c1c1c" d="M 148.5,144.5 C 154.275,151.054 157.608,158.721 158.5,167.5C 158.5,168.167 158.5,168.833 158.5,169.5C 155.024,162.411 151.358,155.411 147.5,148.5C 146.986,146.488 146.82,144.488 147,142.5C 147.278,143.416 147.778,144.082 148.5,144.5 Z"/></g>
<g><path style="opacity:1" fill="#eae9ea" d="M 232.5,153.5 C 228.479,152.497 224.479,151.497 220.5,150.5C 221.134,149.053 222.301,148.387 224,148.5C 228.476,149.462 232.976,150.295 237.5,151C 236.09,152.372 234.423,153.205 232.5,153.5 Z"/></g>
<g><path style="opacity:1" fill="#303030" d="M 262.5,144.5 C 259.165,147.839 255.165,150.172 250.5,151.5C 254.003,148.333 258.003,146 262.5,144.5 Z"/></g>
<g><path style="opacity:1" fill="#464546" d="M 91.5,151.5 C 95.1916,153.344 98.5249,155.677 101.5,158.5C 100.391,158.443 99.391,158.11 98.5,157.5C 95.5677,156.2 93.2344,154.2 91.5,151.5 Z"/></g>
<g><path style="opacity:1" fill="#f2f1f2" d="M 91.5,151.5 C 93.2344,154.2 95.5677,156.2 98.5,157.5C 98.0133,158.473 97.5133,159.473 97,160.5C 94.6004,158.585 92.1004,156.919 89.5,155.5C 89.2291,153.62 89.8958,152.287 91.5,151.5 Z"/></g>
<g><path style="opacity:1" fill="#d5d4d5" d="M 147.5,148.5 C 151.358,155.411 155.024,162.411 158.5,169.5C 158.5,170.5 158.5,171.5 158.5,172.5C 155.404,168.122 152.57,163.455 150,158.5C 148.273,155.382 147.439,152.049 147.5,148.5 Z"/></g>
<g><path style="opacity:1" fill="#232323" d="M 250.5,151.5 C 249.074,155.399 247.741,159.399 246.5,163.5C 245.513,160.232 245.18,156.898 245.5,153.5C 247.05,152.559 248.716,151.893 250.5,151.5 Z"/></g>
<g><path style="opacity:1" fill="#727272" d="M 271.5,151.5 C 265.011,156.582 258.011,160.915 250.5,164.5C 256.989,159.418 263.989,155.085 271.5,151.5 Z"/></g>
<g><path style="opacity:1" fill="#efeeef" d="M 122.5,151.5 C 122.5,153.833 122.5,156.167 122.5,158.5C 123.546,160.882 123.546,163.215 122.5,165.5C 117.119,169.486 111.785,169.486 106.5,165.5C 107.5,165.5 108.5,165.5 109.5,165.5C 110.097,166.139 110.93,166.472 112,166.5C 114.653,165.372 117.319,164.372 120,163.5C 121.029,159.427 121.862,155.427 122.5,151.5 Z"/></g>
<g><path style="opacity:1" fill="#807f80" d="M 127.5,154.5 C 127.154,158.853 125.487,162.52 122.5,165.5C 123.546,163.215 123.546,160.882 122.5,158.5C 123.586,158.38 124.253,157.713 124.5,156.5C 125.064,154.181 125.564,151.847 126,149.5C 126.198,151.382 126.698,153.048 127.5,154.5 Z"/></g>
<g><path style="opacity:1" fill="#1a1a1a" d="M 109.5,165.5 C 108.5,165.5 107.5,165.5 106.5,165.5C 104.231,164.024 101.898,162.524 99.5,161C 98.3044,160.346 98.3044,159.846 99.5,159.5C 103.833,161.333 108.167,163.167 112.5,165C 111.552,165.483 110.552,165.649 109.5,165.5 Z"/></g>
<g><path style="opacity:1" fill="#6a696a" d="M 223.5,168.5 C 221.066,165.829 218.733,162.996 216.5,160C 212.211,157.495 207.878,155.328 203.5,153.5C 211.69,154.203 218.19,158.203 223,165.5C 223.483,166.448 223.649,167.448 223.5,168.5 Z"/></g>
<g><path style="opacity:1" fill="#9c9b9c" d="M 234.5,162.5 C 232.896,163.287 232.229,164.62 232.5,166.5C 231.5,166.5 230.5,166.5 229.5,166.5C 228.199,165.116 228.199,163.616 229.5,162C 231.387,161.22 233.054,161.387 234.5,162.5 Z"/></g>
<g><path style="opacity:1" fill="#5f5e5f" d="M 234.5,162.5 C 235.801,163.884 235.801,165.384 234.5,167C 232.613,167.78 230.946,167.613 229.5,166.5C 230.5,166.5 231.5,166.5 232.5,166.5C 232.229,164.62 232.896,163.287 234.5,162.5 Z"/></g>
<g><path style="opacity:1" fill="#747474" d="M 240.5,156.5 C 240.174,160.884 240.508,165.217 241.5,169.5C 243.228,167.774 245.228,166.441 247.5,165.5C 248.107,165.624 248.44,165.957 248.5,166.5C 243.259,169.567 238.426,173.233 234,177.5C 232.157,183.383 230.823,189.383 230,195.5C 228.482,201.357 224.648,204.524 218.5,205C 209.657,206.437 201.324,205.27 193.5,201.5C 199.255,202.729 205.088,203.395 211,203.5C 216.044,203.755 220.877,202.921 225.5,201C 228.828,193.856 230.995,186.356 232,178.5C 233.357,174.986 235.69,172.319 239,170.5C 239.174,165.649 239.674,160.982 240.5,156.5 Z"/></g>
<g><path style="opacity:1" fill="#6e6d6e" d="M 158.5,167.5 C 160.208,173.223 163.208,178.223 167.5,182.5C 165.629,182.141 164.129,181.141 163,179.5C 162.536,180.094 162.369,180.761 162.5,181.5C 159.13,179.207 157.797,176.207 158.5,172.5C 158.5,171.5 158.5,170.5 158.5,169.5C 158.5,168.833 158.5,168.167 158.5,167.5 Z"/></g>
<g><path style="opacity:1" fill="#6a6a6a" d="M 223.5,168.5 C 227.319,177.938 227.485,187.605 224,197.5C 223.5,198 223,198.5 222.5,199C 218.312,199.176 214.312,199.676 210.5,200.5C 207.64,200.916 205.474,199.916 204,197.5C 202.278,197.611 202.112,198.111 203.5,199C 201.926,199.699 200.593,199.365 199.5,198C 200.167,197.667 200.833,197.333 201.5,197C 198.809,196.844 196.476,196.011 194.5,194.5C 201.258,195.918 208.091,196.918 215,197.5C 217.63,197.536 220.13,197.036 222.5,196C 224.823,186.955 225.157,177.788 223.5,168.5 Z"/></g>
<g><path style="opacity:1" fill="#5b5b5b" d="M 169.5,183.5 C 171.795,184.475 173.795,185.808 175.5,187.5C 172.86,187.046 170.527,185.879 168.5,184C 168.728,183.601 169.062,183.435 169.5,183.5 Z"/></g>
<g><path style="opacity:1" fill="#d7d6d7" d="M 167.5,182.5 C 168.492,182.328 169.158,182.662 169.5,183.5C 169.062,183.435 168.728,183.601 168.5,184C 170.527,185.879 172.86,187.046 175.5,187.5C 180.948,191.761 186.948,193.761 193.5,193.5C 194.167,193.5 194.5,193.833 194.5,194.5C 196.476,196.011 198.809,196.844 201.5,197C 200.833,197.333 200.167,197.667 199.5,198C 200.593,199.365 201.926,199.699 203.5,199C 202.112,198.111 202.278,197.611 204,197.5C 205.474,199.916 207.64,200.916 210.5,200.5C 207.024,201.643 203.358,201.81 199.5,201C 198.167,199.667 196.833,198.333 195.5,197C 190.747,196.383 186.08,195.383 181.5,194C 176.659,191.079 171.659,188.412 166.5,186C 164.959,184.629 163.625,183.129 162.5,181.5C 162.369,180.761 162.536,180.094 163,179.5C 164.129,181.141 165.629,182.141 167.5,182.5 Z"/></g>
<g><path style="opacity:1" fill="#515151" d="M 175.5,187.5 C 181.291,190.059 187.291,192.059 193.5,193.5C 186.948,193.761 180.948,191.761 175.5,187.5 Z"/></g>
<g><path style="opacity:1" fill="#7f7e7f" d="M 133.5,145.5 C 136.614,146.091 139.114,147.758 141,150.5C 146.057,164.789 154.224,176.955 165.5,187C 174.275,192.385 183.275,197.219 192.5,201.5C 176.174,197.253 162.674,188.586 152,175.5C 147.488,167.662 143.155,159.662 139,151.5C 137.64,148.977 135.807,146.977 133.5,145.5 Z"/></g>
</svg>
