<?xml version="1.0" encoding="UTF-8"?>
<!DOCTYPE svg PUBLIC "-//W3C//DTD SVG 1.1//EN" "http://www.w3.org/Graphics/SVG/1.1/DTD/svg11.dtd">
<svg xmlns="http://www.w3.org/2000/svg" version="1.1" width="1278px" height="274px" style="shape-rendering:geometricPrecision; text-rendering:geometricPrecision; image-rendering:optimizeQuality; fill-rule:evenodd; clip-rule:evenodd" xmlns:xlink="http://www.w3.org/1999/xlink">
<g><path style="opacity:1" fill="#fefefe" d="M -0.5,-0.5 C 425.5,-0.5 851.5,-0.5 1277.5,-0.5C 1277.5,90.8333 1277.5,182.167 1277.5,273.5C 851.5,273.5 425.5,273.5 -0.5,273.5C -0.5,182.167 -0.5,90.8333 -0.5,-0.5 Z"/></g>
<g><path style="opacity:1" fill="#030303" d="M 80.5,97.5 C 82.8333,97.5 85.1667,97.5 87.5,97.5C 87.3338,103.842 87.5005,110.175 88,116.5C 93.6901,111.309 100.19,110.142 107.5,113C 109.333,114.167 110.833,115.667 112,117.5C 113.438,129.424 113.938,141.424 113.5,153.5C 111.167,153.5 108.833,153.5 106.5,153.5C 106.666,143.494 106.5,133.494 106,123.5C 102.726,118.262 98.2262,117.096 92.5,120C 90.1898,121.637 88.6898,123.804 88,126.5C 87.5002,135.494 87.3336,144.494 87.5,153.5C 85.1667,153.5 82.8333,153.5 80.5,153.5C 80.5,134.833 80.5,116.167 80.5,97.5 Z"/></g>
<g><path style="opacity:1" fill="#000000" d="M 506.5,97.5 C 508.833,97.5 511.167,97.5 513.5,97.5C 513.5,100.167 513.5,102.833 513.5,105.5C 511.167,105.5 508.833,105.5 506.5,105.5C 506.5,102.833 506.5,100.167 506.5,97.5 Z"/></g>
<g><path style="opacity:1" fill="#080808" d="M 743.5,97.5 C 745.833,97.5 748.167,97.5 750.5,97.5C 750.5,116.167 750.5,134.833 750.5,153.5C 748.5,153.5 746.5,153.5 744.5,153.5C 744.66,151.801 744.494,150.134 744,148.5C 742.125,151.187 739.625,153.021 736.5,154C 721.853,155.026 714.52,148.026 714.5,133C 714.461,118.035 721.795,111.035 736.5,112C 739.102,112.883 741.269,114.383 743,116.5C 743.5,110.175 743.666,103.842 743.5,97.5 Z"/></g>
<g><path style="opacity:1" fill="#000000" d="M 781.5,97.5 C 783.833,97.5 786.167,97.5 788.5,97.5C 788.5,116.167 788.5,134.833 788.5,153.5C 786.167,153.5 783.833,153.5 781.5,153.5C 781.5,134.833 781.5,116.167 781.5,97.5 Z"/></g>
<g><path style="opacity:1" fill="#000000" d="M 1121.5,97.5 C 1123.83,97.5 1126.17,97.5 1128.5,97.5C 1128.5,116.167 1128.5,134.833 1128.5,153.5C 1126.17,153.5 1123.83,153.5 1121.5,153.5C 1121.5,134.833 1121.5,116.167 1121.5,97.5 Z"/></g>
<g><path style="opacity:1" fill="#0a0a0a" d="M 1180.5,97.5 C 1182.83,97.5 1185.17,97.5 1187.5,97.5C 1187.33,103.842 1187.5,110.175 1188,116.5C 1193.67,111.272 1200.17,110.105 1207.5,113C 1214.25,117.499 1217.25,123.833 1216.5,132C 1216.89,147.947 1209.22,155.28 1193.5,154C 1191.38,152.878 1189.54,151.378 1188,149.5C 1187.51,150.793 1187.34,152.127 1187.5,153.5C 1185.17,153.5 1182.83,153.5 1180.5,153.5C 1180.5,134.833 1180.5,116.167 1180.5,97.5 Z"/></g>
<g><path style="opacity:1" fill="#050505" d="M 60.5,101.5 C 62.8333,101.5 65.1667,101.5 67.5,101.5C 67.185,105.371 67.5184,109.038 68.5,112.5C 70.5,112.5 72.5,112.5 74.5,112.5C 74.5,114.5 74.5,116.5 74.5,118.5C 72.1667,118.5 69.8333,118.5 67.5,118.5C 67.3336,127.506 67.5002,136.506 68,145.5C 69.7889,147.229 71.9556,147.896 74.5,147.5C 74.8795,153.996 71.8795,156.162 65.5,154C 63.3333,153.167 61.8333,151.667 61,149.5C 60.5002,139.172 60.3335,128.839 60.5,118.5C 58.8333,118.5 57.1667,118.5 55.5,118.5C 55.5,116.5 55.5,114.5 55.5,112.5C 57.1667,112.5 58.8333,112.5 60.5,112.5C 60.5,108.833 60.5,105.167 60.5,101.5 Z"/></g>
<g><path style="opacity:1" fill="#898989" d="M 60.5,101.5 C 62.9479,100.527 65.6146,100.194 68.5,100.5C 68.5,104.5 68.5,108.5 68.5,112.5C 67.5184,109.038 67.185,105.371 67.5,101.5C 65.1667,101.5 62.8333,101.5 60.5,101.5 Z"/></g>
<g><path style="opacity:1" fill="#050505" d="M 421.5,101.5 C 423.833,101.5 426.167,101.5 428.5,101.5C 428.185,105.371 428.518,109.038 429.5,112.5C 431.5,112.5 433.5,112.5 435.5,112.5C 435.5,114.5 435.5,116.5 435.5,118.5C 433.167,118.5 430.833,118.5 428.5,118.5C 428.334,127.506 428.5,136.506 429,145.5C 430.789,147.229 432.956,147.896 435.5,147.5C 435.88,153.996 432.88,156.162 426.5,154C 424.333,153.167 422.833,151.667 422,149.5C 421.5,139.172 421.334,128.839 421.5,118.5C 419.833,118.5 418.167,118.5 416.5,118.5C 416.5,116.5 416.5,114.5 416.5,112.5C 418.167,112.5 419.833,112.5 421.5,112.5C 421.5,108.833 421.5,105.167 421.5,101.5 Z"/></g>
<g><path style="opacity:1" fill="#898989" d="M 421.5,101.5 C 423.948,100.527 426.615,100.194 429.5,100.5C 429.5,104.5 429.5,108.5 429.5,112.5C 428.518,109.038 428.185,105.371 428.5,101.5C 426.167,101.5 423.833,101.5 421.5,101.5 Z"/></g>
<g><path style="opacity:1" fill="#050505" d="M 485.5,101.5 C 487.833,101.5 490.167,101.5 492.5,101.5C 492.185,105.371 492.518,109.038 493.5,112.5C 495.5,112.5 497.5,112.5 499.5,112.5C 499.5,114.5 499.5,116.5 499.5,118.5C 497.167,118.5 494.833,118.5 492.5,118.5C 492.334,127.506 492.5,136.506 493,145.5C 494.789,147.229 496.956,147.896 499.5,147.5C 499.88,153.996 496.88,156.162 490.5,154C 488.333,153.167 486.833,151.667 486,149.5C 485.5,139.172 485.334,128.839 485.5,118.5C 483.833,118.5 482.167,118.5 480.5,118.5C 480.5,116.5 480.5,114.5 480.5,112.5C 482.167,112.5 483.833,112.5 485.5,112.5C 485.5,108.833 485.5,105.167 485.5,101.5 Z"/></g>
<g><path style="opacity:1" fill="#898989" d="M 485.5,101.5 C 487.948,100.527 490.615,100.194 493.5,100.5C 493.5,104.5 493.5,108.5 493.5,112.5C 492.518,109.038 492.185,105.371 492.5,101.5C 490.167,101.5 487.833,101.5 485.5,101.5 Z"/></g>
<g><path style="opacity:1" fill="#0a0a0a" d="M 198.5,111.5 C 208.36,109.35 215.527,112.683 220,121.5C 220.494,123.134 220.66,124.801 220.5,126.5C 215.368,127.477 212.202,125.477 211,120.5C 199.296,116.332 193.463,120.665 193.5,133.5C 192.678,141.217 195.844,146.217 203,148.5C 208.7,147.801 212.2,144.635 213.5,139C 215.81,138.503 218.143,138.337 220.5,138.5C 218.386,151.575 210.719,156.742 197.5,154C 191.06,151.227 187.226,146.394 186,139.5C 183.465,126.921 187.631,117.588 198.5,111.5 Z"/></g>
<g><path style="opacity:1" fill="#090909" d="M 237.5,111.5 C 256.164,110.33 264.331,118.997 262,137.5C 259.46,151.868 250.96,157.368 236.5,154C 227.862,149.732 223.862,142.732 224.5,133C 224.399,123.017 228.732,115.851 237.5,111.5 Z"/></g>
<g><path style="opacity:1" fill="#090909" d="M 334.5,169.5 C 334.5,150.833 334.5,132.167 334.5,113.5C 336.5,113.5 338.5,113.5 340.5,113.5C 340.281,114.675 340.614,115.675 341.5,116.5C 352.158,108.627 360.991,110.294 368,121.5C 370.685,131.263 369.685,140.596 365,149.5C 360.034,154.089 354.2,155.589 347.5,154C 345.152,153.654 343.319,152.487 342,150.5C 341.5,156.825 341.334,163.158 341.5,169.5C 339.167,169.5 336.833,169.5 334.5,169.5 Z"/></g>
<g><path style="opacity:1" fill="#0c0c0c" d="M 451.5,111.5 C 459.172,110.263 466.005,111.93 472,116.5C 473.286,126.735 473.952,137.068 474,147.5C 475.356,148.38 476.856,148.714 478.5,148.5C 478.562,153.984 475.895,155.817 470.5,154C 468.667,152.833 467.167,151.333 466,149.5C 459.48,154.548 452.313,155.715 444.5,153C 439.421,147.972 438.255,142.139 441,135.5C 443.408,133.044 446.241,131.211 449.5,130C 455.307,130.041 460.807,128.875 466,126.5C 466.717,120.399 463.883,117.732 457.5,118.5C 451.961,117.753 448.961,120.086 448.5,125.5C 446.167,125.5 443.833,125.5 441.5,125.5C 441.062,122.107 441.895,119.107 444,116.5C 446.479,114.686 448.979,113.019 451.5,111.5 Z"/></g>
<g><path style="opacity:1" fill="#090909" d="M 533.5,111.5 C 552.164,110.33 560.331,118.997 558,137.5C 555.46,151.868 546.96,157.368 532.5,154C 523.862,149.732 519.862,142.732 520.5,133C 520.399,123.017 524.732,115.851 533.5,111.5 Z"/></g>
<g><path style="opacity:1" fill="#0c0c0c" d="M 641.5,111.5 C 649.172,110.263 656.005,111.93 662,116.5C 663.286,126.735 663.952,137.068 664,147.5C 665.356,148.38 666.856,148.714 668.5,148.5C 668.562,153.984 665.895,155.817 660.5,154C 658.667,152.833 657.167,151.333 656,149.5C 649.48,154.548 642.313,155.715 634.5,153C 629.421,147.972 628.255,142.139 631,135.5C 633.408,133.044 636.241,131.211 639.5,130C 645.307,130.041 650.807,128.875 656,126.5C 656.717,120.399 653.883,117.732 647.5,118.5C 641.961,117.753 638.961,120.086 638.5,125.5C 636.167,125.5 633.833,125.5 631.5,125.5C 631.062,122.107 631.895,119.107 634,116.5C 636.479,114.686 638.979,113.019 641.5,111.5 Z"/></g>
<g><path style="opacity:1" fill="#0c0c0c" d="M 808.5,111.5 C 816.172,110.263 823.005,111.93 829,116.5C 830.286,126.735 830.952,137.068 831,147.5C 832.356,148.38 833.856,148.714 835.5,148.5C 835.562,153.984 832.895,155.817 827.5,154C 825.667,152.833 824.167,151.333 823,149.5C 816.48,154.548 809.313,155.715 801.5,153C 796.421,147.972 795.255,142.139 798,135.5C 800.408,133.044 803.241,131.211 806.5,130C 812.307,130.041 817.807,128.875 823,126.5C 823.717,120.399 820.883,117.732 814.5,118.5C 808.961,117.753 805.961,120.086 805.5,125.5C 803.167,125.5 800.833,125.5 798.5,125.5C 798.062,122.107 798.895,119.107 801,116.5C 803.479,114.686 805.979,113.019 808.5,111.5 Z"/></g>
<g><path style="opacity:1" fill="#0c0c0c" d="M 980.5,111.5 C 988.172,110.263 995.005,111.93 1001,116.5C 1002.29,126.735 1002.95,137.068 1003,147.5C 1004.36,148.38 1005.86,148.714 1007.5,148.5C 1007.56,153.984 1004.9,155.817 999.5,154C 997.667,152.833 996.167,151.333 995,149.5C 988.48,154.548 981.313,155.715 973.5,153C 968.421,147.972 967.255,142.139 970,135.5C 972.408,133.044 975.241,131.211 978.5,130C 984.307,130.041 989.807,128.875 995,126.5C 995.717,120.399 992.883,117.732 986.5,118.5C 980.961,117.753 977.961,120.086 977.5,125.5C 975.167,125.5 972.833,125.5 970.5,125.5C 970.062,122.107 970.895,119.107 973,116.5C 975.479,114.686 977.979,113.019 980.5,111.5 Z"/></g>
<g><path style="opacity:1" fill="#0c0c0c" d="M 1148.5,111.5 C 1156.17,110.263 1163.01,111.93 1169,116.5C 1170.29,126.735 1170.95,137.068 1171,147.5C 1172.36,148.38 1173.86,148.714 1175.5,148.5C 1175.56,153.984 1172.9,155.817 1167.5,154C 1165.67,152.833 1164.17,151.333 1163,149.5C 1156.48,154.548 1149.31,155.715 1141.5,153C 1136.42,147.972 1135.25,142.139 1138,135.5C 1140.41,133.044 1143.24,131.211 1146.5,130C 1152.31,130.041 1157.81,128.875 1163,126.5C 1163.72,120.399 1160.88,117.732 1154.5,118.5C 1148.96,117.753 1145.96,120.086 1145.5,125.5C 1143.17,125.5 1140.83,125.5 1138.5,125.5C 1138.06,122.107 1138.9,119.107 1141,116.5C 1143.48,114.686 1145.98,113.019 1148.5,111.5 Z"/></g>
<g><path style="opacity:1" fill="#090909" d="M 135.5,111.5 C 151.936,110.938 159.603,118.938 158.5,135.5C 148.833,135.5 139.167,135.5 129.5,135.5C 129.676,146.426 135.009,150.259 145.5,147C 147.543,145.292 149.21,143.292 150.5,141C 152.81,140.503 155.143,140.337 157.5,140.5C 156.167,147.335 152.167,151.835 145.5,154C 134.543,156.438 126.71,152.605 122,142.5C 121.333,137.167 121.333,131.833 122,126.5C 123.573,118.765 128.073,113.765 135.5,111.5 Z"/></g>
<g><path style="opacity:1" fill="#0c0c0c" d="M 284.5,111.5 C 291.108,110.115 296.275,112.115 300,117.5C 307.419,109.932 315.086,109.598 323,116.5C 323.667,117.833 324.333,119.167 325,120.5C 325.5,131.495 325.667,142.495 325.5,153.5C 322.833,153.5 320.167,153.5 317.5,153.5C 317.667,142.828 317.5,132.161 317,121.5C 310.914,116.904 305.914,117.904 302,124.5C 301.5,134.161 301.334,143.828 301.5,153.5C 298.833,153.5 296.167,153.5 293.5,153.5C 293.667,142.828 293.5,132.161 293,121.5C 286.553,116.671 281.553,118.005 278,125.5C 277.5,134.827 277.334,144.161 277.5,153.5C 275.167,153.5 272.833,153.5 270.5,153.5C 270.5,139.833 270.5,126.167 270.5,112.5C 272.833,112.5 275.167,112.5 277.5,112.5C 277.34,114.199 277.506,115.866 278,117.5C 279.872,115.153 282.039,113.153 284.5,111.5 Z"/></g>
<g><path style="opacity:1" fill="#0c0c0c" d="M 377.5,112.5 C 379.833,112.5 382.167,112.5 384.5,112.5C 384.334,122.839 384.5,133.172 385,143.5C 386.135,146.859 388.468,148.192 392,147.5C 396.2,147.902 399.2,146.235 401,142.5C 402.395,132.566 402.895,122.566 402.5,112.5C 405.167,112.5 407.833,112.5 410.5,112.5C 410.5,126.167 410.5,139.833 410.5,153.5C 408.167,153.5 405.833,153.5 403.5,153.5C 403.66,151.801 403.494,150.134 403,148.5C 398.219,153.49 392.386,155.323 385.5,154C 382.898,153.117 380.731,151.617 379,149.5C 377.561,137.242 377.061,124.909 377.5,112.5 Z"/></g>
<g><path style="opacity:1" fill="#040404" d="M 581.5,111.5 C 589.367,110.054 595.201,112.721 599,119.5C 599.5,130.828 599.667,142.162 599.5,153.5C 597.167,153.5 594.833,153.5 592.5,153.5C 592.666,143.494 592.5,133.494 592,123.5C 588.726,118.262 584.226,117.096 578.5,120C 576.622,121.543 575.122,123.376 574,125.5C 573.5,134.827 573.334,144.161 573.5,153.5C 571.167,153.5 568.833,153.5 566.5,153.5C 566.5,139.833 566.5,126.167 566.5,112.5C 568.833,112.5 571.167,112.5 573.5,112.5C 573.343,113.873 573.51,115.207 574,116.5C 576.426,114.548 578.926,112.881 581.5,111.5 Z"/></g>
<g><path style="opacity:1" fill="#040404" d="M 689.5,111.5 C 697.367,110.054 703.201,112.721 707,119.5C 707.5,130.828 707.667,142.162 707.5,153.5C 705.167,153.5 702.833,153.5 700.5,153.5C 700.666,143.494 700.5,133.494 700,123.5C 696.726,118.262 692.226,117.096 686.5,120C 684.622,121.543 683.122,123.376 682,125.5C 681.5,134.827 681.334,144.161 681.5,153.5C 679.167,153.5 676.833,153.5 674.5,153.5C 674.5,139.833 674.5,126.167 674.5,112.5C 676.833,112.5 679.167,112.5 681.5,112.5C 681.343,113.873 681.51,115.207 682,116.5C 684.426,114.548 686.926,112.881 689.5,111.5 Z"/></g>
<g><path style="opacity:1" fill="#040404" d="M 856.5,111.5 C 864.367,110.054 870.201,112.721 874,119.5C 874.5,130.828 874.667,142.162 874.5,153.5C 872.167,153.5 869.833,153.5 867.5,153.5C 867.666,143.494 867.5,133.494 867,123.5C 863.726,118.262 859.226,117.096 853.5,120C 851.622,121.543 850.122,123.376 849,125.5C 848.5,134.827 848.334,144.161 848.5,153.5C 846.167,153.5 843.833,153.5 841.5,153.5C 841.5,139.833 841.5,126.167 841.5,112.5C 843.833,112.5 846.167,112.5 848.5,112.5C 848.343,113.873 848.51,115.207 849,116.5C 851.426,114.548 853.926,112.881 856.5,111.5 Z"/></g>
<g><path style="opacity:1" fill="#0c0c0c" d="M 894.5,111.5 C 900.652,110.408 905.818,112.075 910,116.5C 910.49,115.207 910.657,113.873 910.5,112.5C 912.833,112.5 915.167,112.5 917.5,112.5C 917.667,127.504 917.5,142.504 917,157.5C 915.601,163.9 911.767,168.066 905.5,170C 898.463,171.465 891.963,170.298 886,166.5C 883.895,163.893 883.062,160.893 883.5,157.5C 885.833,157.5 888.167,157.5 890.5,157.5C 892.208,163.526 896.208,165.693 902.5,164C 909.047,161.399 911.547,156.565 910,149.5C 908.421,151.041 906.587,152.208 904.5,153C 889.178,155.353 881.511,148.687 881.5,133C 881.399,123.017 885.732,115.851 894.5,111.5 Z"/></g>
<g><path style="opacity:1" fill="#0c0c0c" d="M 927.5,112.5 C 929.833,112.5 932.167,112.5 934.5,112.5C 934.334,122.839 934.5,133.172 935,143.5C 936.135,146.859 938.468,148.192 942,147.5C 946.2,147.902 949.2,146.235 951,142.5C 952.395,132.566 952.895,122.566 952.5,112.5C 955.167,112.5 957.833,112.5 960.5,112.5C 960.5,126.167 960.5,139.833 960.5,153.5C 958.167,153.5 955.833,153.5 953.5,153.5C 953.66,151.801 953.494,150.134 953,148.5C 948.219,153.49 942.386,155.323 935.5,154C 932.898,153.117 930.731,151.617 929,149.5C 927.561,137.242 927.061,124.909 927.5,112.5 Z"/></g>
<g><path style="opacity:1" fill="#0c0c0c" d="M 1023.5,111.5 C 1029.65,110.408 1034.82,112.075 1039,116.5C 1039.49,115.207 1039.66,113.873 1039.5,112.5C 1041.83,112.5 1044.17,112.5 1046.5,112.5C 1046.67,127.504 1046.5,142.504 1046,157.5C 1044.6,163.9 1040.77,168.066 1034.5,170C 1027.46,171.465 1020.96,170.298 1015,166.5C 1012.9,163.893 1012.06,160.893 1012.5,157.5C 1014.83,157.5 1017.17,157.5 1019.5,157.5C 1021.21,163.526 1025.21,165.693 1031.5,164C 1038.05,161.399 1040.55,156.565 1039,149.5C 1037.42,151.041 1035.59,152.208 1033.5,153C 1018.18,155.353 1010.51,148.687 1010.5,133C 1010.4,123.017 1014.73,115.851 1023.5,111.5 Z"/></g>
<g><path style="opacity:1" fill="#090909" d="M 1068.5,111.5 C 1084.94,110.938 1092.6,118.938 1091.5,135.5C 1081.83,135.5 1072.17,135.5 1062.5,135.5C 1062.68,146.426 1068.01,150.259 1078.5,147C 1080.54,145.292 1082.21,143.292 1083.5,141C 1085.81,140.503 1088.14,140.337 1090.5,140.5C 1089.17,147.335 1085.17,151.835 1078.5,154C 1067.54,156.438 1059.71,152.605 1055,142.5C 1054.33,137.167 1054.33,131.833 1055,126.5C 1056.57,118.765 1061.07,113.765 1068.5,111.5 Z"/></g>
<g><path style="opacity:1" fill="#272727" d="M 340.5,113.5 C 338.5,113.5 336.5,113.5 334.5,113.5C 334.5,132.167 334.5,150.833 334.5,169.5C 333.503,150.674 333.17,131.674 333.5,112.5C 336.059,112.198 338.393,112.532 340.5,113.5 Z"/></g>
<g><path style="opacity:1" fill="#010101" d="M 506.5,112.5 C 508.833,112.5 511.167,112.5 513.5,112.5C 513.5,126.167 513.5,139.833 513.5,153.5C 511.167,153.5 508.833,153.5 506.5,153.5C 506.5,139.833 506.5,126.167 506.5,112.5 Z"/></g>
<g><path style="opacity:1" fill="#f7f7f7" d="M 135.5,118.5 C 144.74,116.605 149.74,120.271 150.5,129.5C 143.5,129.5 136.5,129.5 129.5,129.5C 129.677,124.811 131.677,121.144 135.5,118.5 Z"/></g>
<g><path style="opacity:1" fill="#fafafa" d="M 240.5,117.5 C 246.957,116.975 251.457,119.642 254,125.5C 255.011,132.024 254.345,138.357 252,144.5C 247.8,148.714 242.966,149.548 237.5,147C 235.106,145.048 233.606,142.548 233,139.5C 230.405,130.229 232.905,122.896 240.5,117.5 Z"/></g>
<g><path style="opacity:1" fill="#f6f6f6" d="M 347.5,118.5 C 355.163,117.076 359.996,120.076 362,127.5C 362.914,133.03 362.247,138.363 360,143.5C 351.32,151.215 344.987,149.548 341,138.5C 339.307,130.415 341.473,123.748 347.5,118.5 Z"/></g>
<g><path style="opacity:1" fill="#fafafa" d="M 536.5,117.5 C 542.957,116.975 547.457,119.642 550,125.5C 551.011,132.024 550.345,138.357 548,144.5C 543.8,148.714 538.966,149.548 533.5,147C 531.106,145.048 529.606,142.548 529,139.5C 526.405,130.229 528.905,122.896 536.5,117.5 Z"/></g>
<g><path style="opacity:1" fill="#fafafa" d="M 729.5,118.5 C 735.739,117.536 740.239,119.869 743,125.5C 744.081,132.054 743.414,138.388 741,144.5C 732.759,150.988 726.759,149.321 723,139.5C 720.66,130.869 722.827,123.869 729.5,118.5 Z"/></g>
<g><path style="opacity:1" fill="#fbfbfb" d="M 896.5,118.5 C 903.247,117.566 907.747,120.232 910,126.5C 911.301,132.958 910.301,138.958 907,144.5C 902,148.5 897,148.5 892,144.5C 888.714,137.193 888.714,129.86 892,122.5C 893.397,120.93 894.897,119.596 896.5,118.5 Z"/></g>
<g><path style="opacity:1" fill="#fbfbfb" d="M 1025.5,118.5 C 1032.25,117.566 1036.75,120.232 1039,126.5C 1040.3,132.958 1039.3,138.958 1036,144.5C 1031,148.5 1026,148.5 1021,144.5C 1017.71,137.193 1017.71,129.86 1021,122.5C 1022.4,120.93 1023.9,119.596 1025.5,118.5 Z"/></g>
<g><path style="opacity:1" fill="#f7f7f7" d="M 1068.5,118.5 C 1077.74,116.605 1082.74,120.271 1083.5,129.5C 1076.5,129.5 1069.5,129.5 1062.5,129.5C 1062.68,124.811 1064.68,121.144 1068.5,118.5 Z"/></g>
<g><path style="opacity:1" fill="#f9f9f9" d="M 1194.5,118.5 C 1202.12,117.06 1206.96,120.06 1209,127.5C 1210.35,134.948 1208.51,141.448 1203.5,147C 1195.23,149.711 1190.06,146.877 1188,138.5C 1185.71,130.18 1187.88,123.513 1194.5,118.5 Z"/></g>
<g><path style="opacity:1" fill="#f2f2f2" d="M 463.5,133.5 C 464.5,133.5 465.5,133.5 466.5,133.5C 467.5,142.499 463.5,147.499 454.5,148.5C 448.631,148.135 446.464,145.135 448,139.5C 449.214,137.951 450.714,136.785 452.5,136C 456.347,135.367 460.014,134.533 463.5,133.5 Z"/></g>
<g><path style="opacity:1" fill="#f2f2f2" d="M 653.5,133.5 C 654.5,133.5 655.5,133.5 656.5,133.5C 657.5,142.499 653.5,147.499 644.5,148.5C 638.631,148.135 636.464,145.135 638,139.5C 639.214,137.951 640.714,136.785 642.5,136C 646.347,135.367 650.014,134.533 653.5,133.5 Z"/></g>
<g><path style="opacity:1" fill="#f2f2f2" d="M 820.5,133.5 C 821.5,133.5 822.5,133.5 823.5,133.5C 824.5,142.499 820.5,147.499 811.5,148.5C 805.631,148.135 803.464,145.135 805,139.5C 806.214,137.951 807.714,136.785 809.5,136C 813.347,135.367 817.014,134.533 820.5,133.5 Z"/></g>
<g><path style="opacity:1" fill="#f2f2f2" d="M 992.5,133.5 C 993.5,133.5 994.5,133.5 995.5,133.5C 996.5,142.499 992.5,147.499 983.5,148.5C 977.631,148.135 975.464,145.135 977,139.5C 978.214,137.951 979.714,136.785 981.5,136C 985.347,135.367 989.014,134.533 992.5,133.5 Z"/></g>
<g><path style="opacity:1" fill="#f2f2f2" d="M 1160.5,133.5 C 1161.5,133.5 1162.5,133.5 1163.5,133.5C 1164.5,142.499 1160.5,147.499 1151.5,148.5C 1145.63,148.135 1143.46,145.135 1145,139.5C 1146.21,137.951 1147.71,136.785 1149.5,136C 1153.35,135.367 1157.01,134.533 1160.5,133.5 Z"/></g>
<g><path style="opacity:1" fill="#5c5c5c" d="M 369.5,178.5 C 370.833,178.5 372.167,178.5 373.5,178.5C 373.335,181.518 373.502,184.518 374,187.5C 376.841,185.496 380.007,184.996 383.5,186C 384.701,186.903 385.535,188.069 386,189.5C 386.499,194.823 386.666,200.156 386.5,205.5C 385.167,205.5 383.833,205.5 382.5,205.5C 382.666,200.489 382.499,195.489 382,190.5C 378.988,187.75 376.321,188.083 374,191.5C 373.501,196.155 373.334,200.821 373.5,205.5C 372.167,205.5 370.833,205.5 369.5,205.5C 369.5,196.5 369.5,187.5 369.5,178.5 Z"/></g>
<g><path style="opacity:1" fill="#575757" d="M 422.5,178.5 C 423.833,178.5 425.167,178.5 426.5,178.5C 426.334,185.175 426.5,191.842 427,198.5C 429.053,202.292 432.219,203.458 436.5,202C 437.333,201.167 438.167,200.333 439,199.5C 439.5,192.508 439.666,185.508 439.5,178.5C 440.833,178.5 442.167,178.5 443.5,178.5C 443.901,186.585 443.401,194.585 442,202.5C 436.889,207.134 431.389,207.634 425.5,204C 424.54,202.581 423.707,201.081 423,199.5C 422.5,192.508 422.334,185.508 422.5,178.5 Z"/></g>
<g><path style="opacity:1" fill="#5c5c5c" d="M 620.5,177.5 C 621.833,177.5 623.167,177.5 624.5,177.5C 624.5,178.833 624.5,180.167 624.5,181.5C 623.5,181.5 622.5,181.5 621.5,181.5C 621.5,182.833 621.5,184.167 621.5,185.5C 622.5,185.5 623.5,185.5 624.5,185.5C 624.5,186.5 624.5,187.5 624.5,188.5C 623.5,188.5 622.5,188.5 621.5,188.5C 621.5,194.167 621.5,199.833 621.5,205.5C 620.167,205.5 618.833,205.5 617.5,205.5C 617.5,199.833 617.5,194.167 617.5,188.5C 616.5,188.5 615.5,188.5 614.5,188.5C 614.5,187.5 614.5,186.5 614.5,185.5C 615.5,185.5 616.5,185.5 617.5,185.5C 617.144,182.224 618.144,179.557 620.5,177.5 Z"/></g>
<g><path style="opacity:1" fill="#5b5b5b" d="M 644.5,177.5 C 649.765,176.571 654.265,177.904 658,181.5C 659.009,183.025 659.509,184.692 659.5,186.5C 658.022,186.762 656.689,186.429 655.5,185.5C 652.813,181.686 649.147,180.52 644.5,182C 642.951,183.214 641.785,184.714 641,186.5C 640.333,190.167 640.333,193.833 641,197.5C 645.171,203.729 649.837,204.062 655,198.5C 655.483,197.552 655.649,196.552 655.5,195.5C 656.833,195.5 658.167,195.5 659.5,195.5C 658.078,203.892 653.078,207.392 644.5,206C 640.763,204.719 638.263,202.219 637,198.5C 635.89,192.574 636.556,186.908 639,181.5C 640.812,180.023 642.645,178.69 644.5,177.5 Z"/></g>
<g><path style="opacity:1" fill="#595959" d="M 684.5,178.5 C 685.833,178.5 687.167,178.5 688.5,178.5C 688.5,187.5 688.5,196.5 688.5,205.5C 687.167,205.5 685.833,205.5 684.5,205.5C 684.5,196.5 684.5,187.5 684.5,178.5 Z"/></g>
<g><path style="opacity:1" fill="#5c5c5c" d="M 705.5,177.5 C 706.833,177.5 708.167,177.5 709.5,177.5C 709.5,178.833 709.5,180.167 709.5,181.5C 708.5,181.5 707.5,181.5 706.5,181.5C 706.5,182.833 706.5,184.167 706.5,185.5C 707.5,185.5 708.5,185.5 709.5,185.5C 709.5,186.5 709.5,187.5 709.5,188.5C 708.5,188.5 707.5,188.5 706.5,188.5C 706.5,194.167 706.5,199.833 706.5,205.5C 705.167,205.5 703.833,205.5 702.5,205.5C 702.5,199.833 702.5,194.167 702.5,188.5C 701.5,188.5 700.5,188.5 699.5,188.5C 699.5,187.5 699.5,186.5 699.5,185.5C 700.5,185.5 701.5,185.5 702.5,185.5C 702.144,182.224 703.144,179.557 705.5,177.5 Z"/></g>
<g><path style="opacity:1" fill="#545454" d="M 816.5,178.5 C 821.844,178.334 827.177,178.501 832.5,179C 836.074,182.524 836.407,186.358 833.5,190.5C 837.466,195.036 837.466,199.536 833.5,204C 827.928,205.351 822.262,205.851 816.5,205.5C 816.5,196.5 816.5,187.5 816.5,178.5 Z"/></g>
<g><path style="opacity:1" fill="#5b5b5b" d="M 873.5,178.5 C 874.833,178.5 876.167,178.5 877.5,178.5C 877.334,183.179 877.501,187.845 878,192.5C 880.167,190.333 882.333,188.167 884.5,186C 886.167,185.333 887.833,185.333 889.5,186C 887.167,188.333 884.833,190.667 882.5,193C 884.919,197.172 887.585,201.172 890.5,205C 888.833,205.667 887.167,205.667 885.5,205C 883.611,202.041 881.611,199.208 879.5,196.5C 878.914,196.709 878.414,197.043 878,197.5C 877.503,200.146 877.336,202.813 877.5,205.5C 876.167,205.5 874.833,205.5 873.5,205.5C 873.5,196.5 873.5,187.5 873.5,178.5 Z"/></g>
<g><path style="opacity:1" fill="#595959" d="M 912.5,178.5 C 913.833,178.5 915.167,178.5 916.5,178.5C 916.5,187.5 916.5,196.5 916.5,205.5C 915.167,205.5 913.833,205.5 912.5,205.5C 912.5,196.5 912.5,187.5 912.5,178.5 Z"/></g>
<g><path style="opacity:1" fill="#5f5f5f" d="M 339.5,179.5 C 340.833,179.5 342.167,179.5 343.5,179.5C 343.5,181.5 343.5,183.5 343.5,185.5C 344.5,185.5 345.5,185.5 346.5,185.5C 346.5,186.5 346.5,187.5 346.5,188.5C 345.5,188.5 344.5,188.5 343.5,188.5C 343.5,193.167 343.5,197.833 343.5,202.5C 344.5,202.5 345.5,202.5 346.5,202.5C 346.5,203.5 346.5,204.5 346.5,205.5C 344.208,205.756 342.041,205.423 340,204.5C 339.501,199.177 339.334,193.844 339.5,188.5C 338.5,188.5 337.5,188.5 336.5,188.5C 336.5,187.5 336.5,186.5 336.5,185.5C 337.5,185.5 338.5,185.5 339.5,185.5C 339.5,183.5 339.5,181.5 339.5,179.5 Z"/></g>
<g><path style="opacity:1" fill="#5f5f5f" d="M 359.5,179.5 C 360.833,179.5 362.167,179.5 363.5,179.5C 363.5,181.5 363.5,183.5 363.5,185.5C 364.5,185.5 365.5,185.5 366.5,185.5C 366.5,186.5 366.5,187.5 366.5,188.5C 365.5,188.5 364.5,188.5 363.5,188.5C 363.5,193.167 363.5,197.833 363.5,202.5C 364.5,202.5 365.5,202.5 366.5,202.5C 366.5,203.5 366.5,204.5 366.5,205.5C 364.208,205.756 362.041,205.423 360,204.5C 359.501,199.177 359.334,193.844 359.5,188.5C 358.5,188.5 357.5,188.5 356.5,188.5C 356.5,187.5 356.5,186.5 356.5,185.5C 357.5,185.5 358.5,185.5 359.5,185.5C 359.5,183.5 359.5,181.5 359.5,179.5 Z"/></g>
<g><path style="opacity:1" fill="#5c5c5c" d="M 468.5,178.5 C 469.833,178.5 471.167,178.5 472.5,178.5C 472.5,179.833 472.5,181.167 472.5,182.5C 471.167,182.5 469.833,182.5 468.5,182.5C 468.5,181.167 468.5,179.833 468.5,178.5 Z"/></g>
<g><path style="opacity:1" fill="#5c5c5c" d="M 547.5,178.5 C 548.833,178.5 550.167,178.5 551.5,178.5C 551.5,179.833 551.5,181.167 551.5,182.5C 550.167,182.5 548.833,182.5 547.5,182.5C 547.5,181.167 547.5,179.833 547.5,178.5 Z"/></g>
<g><path style="opacity:1" fill="#5c5c5c" d="M 692.5,178.5 C 693.833,178.5 695.167,178.5 696.5,178.5C 696.5,179.833 696.5,181.167 696.5,182.5C 695.167,182.5 693.833,182.5 692.5,182.5C 692.5,181.167 692.5,179.833 692.5,178.5 Z"/></g>
<g><path style="opacity:1" fill="#5c5c5c" d="M 765.5,178.5 C 766.833,178.5 768.167,178.5 769.5,178.5C 769.5,179.833 769.5,181.167 769.5,182.5C 768.167,182.5 766.833,182.5 765.5,182.5C 765.5,181.167 765.5,179.833 765.5,178.5 Z"/></g>
<g><path style="opacity:1" fill="#adadad" d="M 829.5,182.5 C 826.5,182.5 823.5,182.5 820.5,182.5C 820.5,184.833 820.5,187.167 820.5,189.5C 819.527,187.052 819.194,184.385 819.5,181.5C 823.042,181.187 826.375,181.521 829.5,182.5 Z"/></g>
<g><path style="opacity:1" fill="#fdfdfd" d="M 829.5,182.5 C 832.134,184.54 832.134,186.707 829.5,189C 826.518,189.498 823.518,189.665 820.5,189.5C 820.5,187.167 820.5,184.833 820.5,182.5C 823.5,182.5 826.5,182.5 829.5,182.5 Z"/></g>
<g><path style="opacity:1" fill="#595959" d="M 321.5,185.5 C 324.518,185.335 327.518,185.502 330.5,186C 331.333,186.833 332.167,187.667 333,188.5C 333.142,194.326 333.975,199.992 335.5,205.5C 333.234,205.859 331.401,205.192 330,203.5C 321.922,208.913 317.589,206.913 317,197.5C 320.069,194.193 323.902,192.693 328.5,193C 330.166,189.869 329.166,188.369 325.5,188.5C 323.003,189.219 320.669,190.219 318.5,191.5C 318.028,188.642 319.028,186.642 321.5,185.5 Z"/></g>
<g><path style="opacity:1" fill="#5b5b5b" d="M 394.5,185.5 C 403.506,183.847 407.839,187.514 407.5,196.5C 402.833,196.5 398.167,196.5 393.5,196.5C 393.89,201.534 396.556,203.367 401.5,202C 402.52,200.444 403.853,199.278 405.5,198.5C 406.167,198.833 406.833,199.167 407.5,199.5C 403.843,206.967 398.676,208.3 392,203.5C 387.867,196.691 388.7,190.691 394.5,185.5 Z"/></g>
<g><path style="opacity:1" fill="#5d5d5d" d="M 448.5,185.5 C 453.08,185.857 457.747,186.024 462.5,186C 463,186.5 463.5,187 464,187.5C 465.41,193.379 465.91,199.379 465.5,205.5C 464.167,205.5 462.833,205.5 461.5,205.5C 461.666,200.489 461.499,195.489 461,190.5C 458.034,187.735 455.367,188.068 453,191.5C 452.501,196.155 452.334,200.821 452.5,205.5C 451.167,205.5 449.833,205.5 448.5,205.5C 448.5,198.833 448.5,192.167 448.5,185.5 Z"/></g>
<g><path style="opacity:1" fill="#5b5b5b" d="M 499.5,185.5 C 508.506,183.847 512.839,187.514 512.5,196.5C 507.833,196.5 503.167,196.5 498.5,196.5C 498.89,201.534 501.556,203.367 506.5,202C 507.52,200.444 508.853,199.278 510.5,198.5C 511.167,198.833 511.833,199.167 512.5,199.5C 508.843,206.967 503.676,208.3 497,203.5C 492.867,196.691 493.7,190.691 499.5,185.5 Z"/></g>
<g><path style="opacity:1" fill="#5b5b5b" d="M 516.5,185.5 C 518.451,185.227 519.951,185.893 521,187.5C 522.444,185.845 524.278,185.178 526.5,185.5C 526.5,186.833 526.5,188.167 526.5,189.5C 524.278,189.178 522.444,189.845 521,191.5C 520.501,196.155 520.334,200.821 520.5,205.5C 519.167,205.5 517.833,205.5 516.5,205.5C 516.5,198.833 516.5,192.167 516.5,185.5 Z"/></g>
<g><path style="opacity:1" fill="#5c5c5c" d="M 532.5,185.5 C 535.518,185.335 538.518,185.502 541.5,186C 543.607,187.264 544.607,189.097 544.5,191.5C 541.68,190.804 539.013,189.804 536.5,188.5C 534.681,188.342 533.348,189.009 532.5,190.5C 536.065,192.97 539.899,194.97 544,196.5C 545.458,200.781 544.292,203.947 540.5,206C 533.622,207.741 529.622,205.241 528.5,198.5C 529.833,198.5 531.167,198.5 532.5,198.5C 532.33,199.822 532.663,200.989 533.5,202C 535.833,202.667 538.167,202.667 540.5,202C 541.022,201.439 541.355,200.772 541.5,200C 537.864,197.949 534.031,196.115 530,194.5C 528.93,190.858 529.764,187.858 532.5,185.5 Z"/></g>
<g><path style="opacity:1" fill="#5c5c5c" d="M 599.5,185.5 C 610.603,184.449 614.77,189.449 612,200.5C 609.647,205.426 605.814,207.26 600.5,206C 598,204.833 596.167,203 595,200.5C 593.254,194.342 594.754,189.342 599.5,185.5 Z"/></g>
<g><path style="opacity:1" fill="#595959" d="M 667.5,185.5 C 670.518,185.335 673.518,185.502 676.5,186C 677.333,186.833 678.167,187.667 679,188.5C 679.142,194.326 679.975,199.992 681.5,205.5C 679.234,205.859 677.401,205.192 676,203.5C 667.922,208.913 663.589,206.913 663,197.5C 666.069,194.193 669.902,192.693 674.5,193C 676.166,189.869 675.166,188.369 671.5,188.5C 669.003,189.219 666.669,190.219 664.5,191.5C 664.028,188.642 665.028,186.642 667.5,185.5 Z"/></g>
<g><path style="opacity:1" fill="#5c5c5c" d="M 715.5,185.5 C 726.603,184.449 730.77,189.449 728,200.5C 725.647,205.426 721.814,207.26 716.5,206C 714,204.833 712.167,203 711,200.5C 709.254,194.342 710.754,189.342 715.5,185.5 Z"/></g>
<g><path style="opacity:1" fill="#5b5b5b" d="M 732.5,185.5 C 734.451,185.227 735.951,185.893 737,187.5C 738.444,185.845 740.278,185.178 742.5,185.5C 742.5,186.833 742.5,188.167 742.5,189.5C 740.278,189.178 738.444,189.845 737,191.5C 736.501,196.155 736.334,200.821 736.5,205.5C 735.167,205.5 733.833,205.5 732.5,205.5C 732.5,198.833 732.5,192.167 732.5,185.5 Z"/></g>
<g><path style="opacity:1" fill="#5d5d5d" d="M 744.5,185.5 C 749.08,185.857 753.747,186.024 758.5,186C 759,186.5 759.5,187 760,187.5C 761.41,193.379 761.91,199.379 761.5,205.5C 760.167,205.5 758.833,205.5 757.5,205.5C 757.666,200.489 757.499,195.489 757,190.5C 754.034,187.735 751.367,188.068 749,191.5C 748.501,196.155 748.334,200.821 748.5,205.5C 747.167,205.5 745.833,205.5 744.5,205.5C 744.5,198.833 744.5,192.167 744.5,185.5 Z"/></g>
<g><path style="opacity:1" fill="#595959" d="M 777.5,185.5 C 780.518,185.335 783.518,185.502 786.5,186C 787.333,186.833 788.167,187.667 789,188.5C 789.142,194.326 789.975,199.992 791.5,205.5C 789.234,205.859 787.401,205.192 786,203.5C 777.922,208.913 773.589,206.913 773,197.5C 776.069,194.193 779.902,192.693 784.5,193C 786.166,189.869 785.166,188.369 781.5,188.5C 779.003,189.219 776.669,190.219 774.5,191.5C 774.028,188.642 775.028,186.642 777.5,185.5 Z"/></g>
<g><path style="opacity:1" fill="#5b5b5b" d="M 844.5,185.5 C 853.506,183.847 857.839,187.514 857.5,196.5C 852.833,196.5 848.167,196.5 843.5,196.5C 843.89,201.534 846.556,203.367 851.5,202C 852.52,200.444 853.853,199.278 855.5,198.5C 856.167,198.833 856.833,199.167 857.5,199.5C 853.843,206.967 848.676,208.3 842,203.5C 837.867,196.691 838.7,190.691 844.5,185.5 Z"/></g>
<g><path style="opacity:1" fill="#5b5b5b" d="M 861.5,185.5 C 863.451,185.227 864.951,185.893 866,187.5C 867.444,185.845 869.278,185.178 871.5,185.5C 871.5,186.833 871.5,188.167 871.5,189.5C 869.278,189.178 867.444,189.845 866,191.5C 865.501,196.155 865.334,200.821 865.5,205.5C 864.167,205.5 862.833,205.5 861.5,205.5C 861.5,198.833 861.5,192.167 861.5,185.5 Z"/></g>
<g><path style="opacity:1" fill="#5b5b5b" d="M 896.5,185.5 C 905.506,183.847 909.839,187.514 909.5,196.5C 904.833,196.5 900.167,196.5 895.5,196.5C 895.89,201.534 898.556,203.367 903.5,202C 904.52,200.444 905.853,199.278 907.5,198.5C 908.167,198.833 908.833,199.167 909.5,199.5C 905.843,206.967 900.676,208.3 894,203.5C 889.867,196.691 890.7,190.691 896.5,185.5 Z"/></g>
<g><path style="opacity:1" fill="#5b5b5b" d="M 925.5,185.5 C 934.506,183.847 938.839,187.514 938.5,196.5C 933.833,196.5 929.167,196.5 924.5,196.5C 924.89,201.534 927.556,203.367 932.5,202C 933.52,200.444 934.853,199.278 936.5,198.5C 937.167,198.833 937.833,199.167 938.5,199.5C 934.843,206.967 929.676,208.3 923,203.5C 918.867,196.691 919.7,190.691 925.5,185.5 Z"/></g>
<g><path style="opacity:1" fill="#5b5b5b" d="M 468.5,185.5 C 469.833,185.5 471.167,185.5 472.5,185.5C 472.5,192.167 472.5,198.833 472.5,205.5C 471.167,205.5 469.833,205.5 468.5,205.5C 468.5,198.833 468.5,192.167 468.5,185.5 Z"/></g>
<g><path style="opacity:1" fill="#5a5a5a" d="M 475.5,185.5 C 477.167,185.5 478.833,185.5 480.5,185.5C 481.105,190.481 482.605,195.148 485,199.5C 486.401,195.129 487.901,190.796 489.5,186.5C 490.689,185.571 492.022,185.238 493.5,185.5C 491.641,191.91 489.474,198.243 487,204.5C 484.978,205.991 483.312,205.658 482,203.5C 479.728,197.515 477.561,191.515 475.5,185.5 Z"/></g>
<g><path style="opacity:1" fill="#5b5b5b" d="M 547.5,185.5 C 548.833,185.5 550.167,185.5 551.5,185.5C 551.5,192.167 551.5,198.833 551.5,205.5C 550.167,205.5 548.833,205.5 547.5,205.5C 547.5,198.833 547.5,192.167 547.5,185.5 Z"/></g>
<g><path style="opacity:1" fill="#5d5d5d" d="M 557.5,179.5 C 558.833,179.5 560.167,179.5 561.5,179.5C 561.5,181.5 561.5,183.5 561.5,185.5C 564.167,185.5 566.833,185.5 569.5,185.5C 570.69,190.571 572.19,195.571 574,200.5C 575.199,195.735 576.699,191.069 578.5,186.5C 579.689,185.571 581.022,185.238 582.5,185.5C 580.033,194.4 576.866,203.066 573,211.5C 571.211,213.229 569.044,213.896 566.5,213.5C 566.5,212.167 566.5,210.833 566.5,209.5C 569.524,209.825 571.191,208.492 571.5,205.5C 569.827,199.315 567.661,193.315 565,187.5C 563.989,188.337 562.822,188.67 561.5,188.5C 561.5,193.167 561.5,197.833 561.5,202.5C 562.5,202.5 563.5,202.5 564.5,202.5C 564.5,203.5 564.5,204.5 564.5,205.5C 562.208,205.756 560.041,205.423 558,204.5C 557.501,199.177 557.334,193.844 557.5,188.5C 556.5,188.5 555.5,188.5 554.5,188.5C 554.5,187.5 554.5,186.5 554.5,185.5C 555.5,185.5 556.5,185.5 557.5,185.5C 557.5,183.5 557.5,181.5 557.5,179.5 Z"/></g>
<g><path style="opacity:1" fill="#5b5b5b" d="M 692.5,185.5 C 693.833,185.5 695.167,185.5 696.5,185.5C 696.5,192.167 696.5,198.833 696.5,205.5C 695.167,205.5 693.833,205.5 692.5,205.5C 692.5,198.833 692.5,192.167 692.5,185.5 Z"/></g>
<g><path style="opacity:1" fill="#5b5b5b" d="M 765.5,185.5 C 766.833,185.5 768.167,185.5 769.5,185.5C 769.5,192.167 769.5,198.833 769.5,205.5C 768.167,205.5 766.833,205.5 765.5,205.5C 765.5,198.833 765.5,192.167 765.5,185.5 Z"/></g>
<g><path style="opacity:1" fill="#5b5b5b" d="M 939.5,186.5 C 940.919,185.549 942.585,185.216 944.5,185.5C 945.69,190.571 947.19,195.571 949,200.5C 950.199,195.735 951.699,191.069 953.5,186.5C 954.689,185.571 956.022,185.238 957.5,185.5C 955.033,194.4 951.866,203.066 948,211.5C 946.211,213.229 944.044,213.896 941.5,213.5C 941.5,212.167 941.5,210.833 941.5,209.5C 944.524,209.825 946.191,208.492 946.5,205.5C 944.729,198.843 942.396,192.509 939.5,186.5 Z"/></g>
<g><path style="opacity:1" fill="#f6f6f6" d="M 396.5,188.5 C 400.851,187.533 403.185,189.2 403.5,193.5C 400.5,193.5 397.5,193.5 394.5,193.5C 394.392,191.486 395.058,189.82 396.5,188.5 Z"/></g>
<g><path style="opacity:1" fill="#f6f6f6" d="M 501.5,188.5 C 505.851,187.533 508.185,189.2 508.5,193.5C 505.5,193.5 502.5,193.5 499.5,193.5C 499.392,191.486 500.058,189.82 501.5,188.5 Z"/></g>
<g><path style="opacity:1" fill="#fafafa" d="M 601.5,188.5 C 604.044,188.104 606.211,188.771 608,190.5C 608.667,193.833 608.667,197.167 608,200.5C 604.528,203.418 601.528,203.085 599,199.5C 597.812,195.259 598.645,191.592 601.5,188.5 Z"/></g>
<g><path style="opacity:1" fill="#fafafa" d="M 717.5,188.5 C 720.044,188.104 722.211,188.771 724,190.5C 724.667,193.833 724.667,197.167 724,200.5C 720.528,203.418 717.528,203.085 715,199.5C 713.812,195.259 714.645,191.592 717.5,188.5 Z"/></g>
<g><path style="opacity:1" fill="#f6f6f6" d="M 846.5,188.5 C 850.851,187.533 853.185,189.2 853.5,193.5C 850.5,193.5 847.5,193.5 844.5,193.5C 844.392,191.486 845.058,189.82 846.5,188.5 Z"/></g>
<g><path style="opacity:1" fill="#f6f6f6" d="M 898.5,188.5 C 902.851,187.533 905.185,189.2 905.5,193.5C 902.5,193.5 899.5,193.5 896.5,193.5C 896.392,191.486 897.058,189.82 898.5,188.5 Z"/></g>
<g><path style="opacity:1" fill="#f6f6f6" d="M 927.5,188.5 C 931.851,187.533 934.185,189.2 934.5,193.5C 931.5,193.5 928.5,193.5 925.5,193.5C 925.392,191.486 926.058,189.82 927.5,188.5 Z"/></g>
<g><path style="opacity:1" fill="#eaeaea" d="M 820.5,192.5 C 824.308,192.163 827.974,192.663 831.5,194C 833.257,197.732 832.257,200.399 828.5,202C 819.76,204.132 817.094,200.965 820.5,192.5 Z"/></g>
<g><path style="opacity:1" fill="#f0f0f0" d="M 322.5,196.5 C 324.833,196.5 327.167,196.5 329.5,196.5C 329.217,202.263 326.384,203.93 321,201.5C 320.387,199.505 320.887,197.838 322.5,196.5 Z"/></g>
<g><path style="opacity:1" fill="#f0f0f0" d="M 668.5,196.5 C 670.833,196.5 673.167,196.5 675.5,196.5C 675.217,202.263 672.384,203.93 667,201.5C 666.387,199.505 666.887,197.838 668.5,196.5 Z"/></g>
<g><path style="opacity:1" fill="#f0f0f0" d="M 778.5,196.5 C 780.833,196.5 783.167,196.5 785.5,196.5C 785.217,202.263 782.384,203.93 777,201.5C 776.387,199.505 776.887,197.838 778.5,196.5 Z"/></g>
<g><path style="opacity:1" fill="#535353" d="M 795.5,201.5 C 796.833,201.5 798.167,201.5 799.5,201.5C 799.663,203.857 799.497,206.19 799,208.5C 795.283,210.945 794.783,210.279 797.5,206.5C 795.995,205.158 795.328,203.492 795.5,201.5 Z"/></g>
</svg>
