<?xml version="1.0" encoding="UTF-8"?>
<!DOCTYPE svg PUBLIC "-//W3C//DTD SVG 1.1//EN" "http://www.w3.org/Graphics/SVG/1.1/DTD/svg11.dtd">
<svg xmlns="http://www.w3.org/2000/svg" version="1.1" width="57px" height="57px" style="shape-rendering:geometricPrecision; text-rendering:geometricPrecision; image-rendering:optimizeQuality; fill-rule:evenodd; clip-rule:evenodd" xmlns:xlink="http://www.w3.org/1999/xlink">
<g><path style="opacity:0.905" fill="#60a7e5" d="M 20.5,-0.5 C 24.8333,-0.5 29.1667,-0.5 33.5,-0.5C 33.8333,0.833333 34.1667,0.833333 34.5,-0.5C 34.8333,-0.5 35.1667,-0.5 35.5,-0.5C 46.1929,2.8595 53.1929,9.8595 56.5,20.5C 56.5,25.5 56.5,30.5 56.5,35.5C 52.874,46.448 45.5407,53.448 34.5,56.5C 33.1667,56.5 31.8333,56.5 30.5,56.5C 30.1667,53.8333 29.8333,53.8333 29.5,56.5C 26.5,56.5 23.5,56.5 20.5,56.5C 12.7923,53.8096 6.79227,48.9762 2.5,42C 3.16667,41.6667 3.83333,41.3333 4.5,41C 1.78506,40.0391 0.118391,38.2058 -0.5,35.5C -0.5,34.1667 -0.5,32.8333 -0.5,31.5C 0.833333,31.1667 0.833333,30.8333 -0.5,30.5C -0.5,27.1667 -0.5,23.8333 -0.5,20.5C 1.55484,16.5607 3.72151,12.5607 6,8.5C 10.5164,4.84613 15.3498,1.84613 20.5,-0.5 Z M 19.5,29.5 C 25.5565,28.6607 29.2231,25.3274 30.5,19.5C 32.7855,16.5373 34.6188,13.204 36,9.5C 34.9088,15.3776 32.9088,21.0443 30,26.5C 29.3333,29.8333 29.3333,33.1667 30,36.5C 30.9078,38.4386 32.4078,39.4386 34.5,39.5C 34.6495,40.552 34.4828,41.552 34,42.5C 31.5967,41.2192 29.7633,39.3858 28.5,37C 26.7444,36.7978 25.0777,36.2978 23.5,35.5C 22.039,33.4832 20.7057,31.4832 19.5,29.5 Z M 48.5,21.5 C 51.0009,21.5109 51.1676,22.1776 49,23.5C 48.5357,22.9056 48.369,22.2389 48.5,21.5 Z M 19.5,41.5 C 19.7828,40.7109 20.2828,40.0442 21,39.5C 21.5281,40.816 21.0281,41.4827 19.5,41.5 Z"/></g>
</svg>
