<?xml version="1.0" encoding="UTF-8"?>
<!DOCTYPE svg PUBLIC "-//W3C//DTD SVG 1.1//EN" "http://www.w3.org/Graphics/SVG/1.1/DTD/svg11.dtd">
<svg xmlns="http://www.w3.org/2000/svg" version="1.1" width="308px" height="288px" style="shape-rendering:geometricPrecision; text-rendering:geometricPrecision; image-rendering:optimizeQuality; fill-rule:evenodd; clip-rule:evenodd" xmlns:xlink="http://www.w3.org/1999/xlink">
<g><path style="opacity:1" fill="#6fa5e0" d="M -0.5,-0.5 C 102.167,-0.5 204.833,-0.5 307.5,-0.5C 307.5,95.5 307.5,191.5 307.5,287.5C 204.833,287.5 102.167,287.5 -0.5,287.5C -0.5,191.5 -0.5,95.5 -0.5,-0.5 Z"/></g>
<g><path style="opacity:1" fill="#7fafe3" d="M 167.5,10.5 C 166.167,10.5 164.833,10.5 163.5,10.5C 153.985,9.29286 144.319,9.29286 134.5,10.5C 139.119,9.1725 144.119,8.50583 149.5,8.5C 154.5,8.66667 159.5,8.83333 164.5,9C 165.737,9.23209 166.737,9.73209 167.5,10.5 Z"/></g>
<g><path style="opacity:1" fill="#a8c9ec" d="M 163.5,10.5 C 164.833,10.5 166.167,10.5 167.5,10.5C 170.553,10.1107 173.22,10.7773 175.5,12.5C 171.316,12.1491 167.316,11.4824 163.5,10.5 Z"/></g>
<g><path style="opacity:1" fill="#f7fafd" d="M 163.5,10.5 C 167.316,11.4824 171.316,12.1491 175.5,12.5C 177.565,12.5172 179.565,12.8505 181.5,13.5C 182.209,14.404 183.209,14.7373 184.5,14.5C 187.008,16.554 190.008,17.554 193.5,17.5C 195.216,17.6287 196.883,17.962 198.5,18.5C 199.183,20.1765 200.517,20.8432 202.5,20.5C 205.634,22.2927 208.967,23.626 212.5,24.5C 212.973,25.9063 213.973,26.573 215.5,26.5C 222.085,30.4097 228.418,34.7431 234.5,39.5C 235.167,40.8333 236.167,41.8333 237.5,42.5C 241.482,44.8169 244.815,47.8169 247.5,51.5C 247.427,53.0269 248.094,54.0269 249.5,54.5C 252.185,57.1897 254.518,60.1897 256.5,63.5C 257.01,66.6743 258.677,69.0077 261.5,70.5C 261.427,72.0269 262.094,73.0269 263.5,73.5C 264.674,74.5137 265.34,75.847 265.5,77.5C 265.427,79.0269 266.094,80.0269 267.5,80.5C 267.5,80.8333 267.5,81.1667 267.5,81.5C 267.427,83.0269 268.094,84.0269 269.5,84.5C 271.352,87.5507 272.686,90.884 273.5,94.5C 273.833,95.8333 274.167,97.1667 274.5,98.5C 275.256,102.767 276.589,106.767 278.5,110.5C 280.136,114.21 280.802,118.21 280.5,122.5C 281.706,135.513 281.706,148.513 280.5,161.5C 280.384,164.86 280.051,168.193 279.5,171.5C 279.5,172.5 279.5,173.5 279.5,174.5C 278.307,174.97 277.64,175.97 277.5,177.5C 277.003,179.818 276.67,182.152 276.5,184.5C 276.5,184.833 276.5,185.167 276.5,185.5C 274.643,187.282 273.643,189.615 273.5,192.5C 273.5,192.833 273.5,193.167 273.5,193.5C 271.952,193.821 271.285,194.821 271.5,196.5C 271.167,197.167 270.833,197.833 270.5,198.5C 268.755,200.033 267.755,202.033 267.5,204.5C 265.75,205.659 264.75,207.326 264.5,209.5C 262.75,210.659 261.75,212.326 261.5,214.5C 259.115,217.223 257.115,220.223 255.5,223.5C 252.81,225.193 250.81,227.527 249.5,230.5C 248.167,231.167 247.167,232.167 246.5,233.5C 245.167,234.167 244.167,235.167 243.5,236.5C 241.861,237.473 240.527,238.806 239.5,240.5C 236.216,242.117 233.549,244.45 231.5,247.5C 229.973,247.427 228.973,248.094 228.5,249.5C 225.802,249.845 223.802,251.178 222.5,253.5C 220.973,253.427 219.973,254.094 219.5,255.5C 217.5,256.5 215.5,257.5 213.5,258.5C 206.542,261.14 199.876,264.14 193.5,267.5C 192.833,267.5 192.167,267.5 191.5,267.5C 189.199,268.06 186.866,268.56 184.5,269C 183.944,269.383 183.611,269.883 183.5,270.5C 181.708,270.366 180.042,270.699 178.5,271.5C 175.813,271.336 173.146,271.503 170.5,272C 169.584,272.278 168.918,272.778 168.5,273.5C 157.844,274.099 147.177,274.433 136.5,274.5C 135.791,273.596 134.791,273.263 133.5,273.5C 133.389,272.883 133.056,272.383 132.5,272C 129.854,271.503 127.187,271.336 124.5,271.5C 122.708,271.634 121.042,271.301 119.5,270.5C 118.365,268.787 116.698,268.12 114.5,268.5C 110.147,268.089 106.147,266.756 102.5,264.5C 102.167,264.5 101.833,264.5 101.5,264.5C 99.9674,262.755 97.9674,261.755 95.5,261.5C 95.1667,261.5 94.8333,261.5 94.5,261.5C 94.0269,260.094 93.0269,259.427 91.5,259.5C 77.4627,252.468 65.1293,243.135 54.5,231.5C 51.8046,228.474 49.1379,225.474 46.5,222.5C 36.0942,207.776 28.4276,191.776 23.5,174.5C 23.5905,171.848 22.9238,169.515 21.5,167.5C 21.8064,164.615 21.4731,161.948 20.5,159.5C 20.246,146.803 20.5794,134.137 21.5,121.5C 21.5,120.5 21.5,119.5 21.5,118.5C 23.2132,117.365 23.8799,115.698 23.5,113.5C 23.8333,111.5 24.1667,109.5 24.5,107.5C 26.2132,106.365 26.8799,104.698 26.5,102.5C 26.8333,101.167 27.1667,99.8333 27.5,98.5C 27.5,98.1667 27.5,97.8333 27.5,97.5C 30.9369,91.5416 33.9369,85.2083 36.5,78.5C 38.047,77.2318 39.047,75.5652 39.5,73.5C 39.6596,71.847 40.3263,70.5137 41.5,69.5C 43.543,68.4206 44.8763,66.754 45.5,64.5C 46.9744,63.5637 47.9744,62.2303 48.5,60.5C 50.2624,59.7377 51.2624,58.4044 51.5,56.5C 51.5,55.8333 51.8333,55.5 52.5,55.5C 57.2148,51.4519 61.5481,47.1186 65.5,42.5C 66.5274,40.8058 67.8608,39.4725 69.5,38.5C 74.3234,37.0622 78.3234,34.3955 81.5,30.5C 84.1473,30.0713 86.1473,28.7379 87.5,26.5C 89.3797,26.7709 90.713,26.1042 91.5,24.5C 95.0389,22.521 98.7056,20.6876 102.5,19C 103.793,18.51 105.127,18.3433 106.5,18.5C 108.967,18.2451 110.967,17.2451 112.5,15.5C 114.565,15.4828 116.565,15.1495 118.5,14.5C 120.898,14.7406 122.898,14.0739 124.5,12.5C 127.833,11.8333 131.167,11.1667 134.5,10.5C 144.319,9.29286 153.985,9.29286 163.5,10.5 Z"/></g>
<g><path style="opacity:1" fill="#c6dbf2" d="M 124.5,12.5 C 122.898,14.0739 120.898,14.7406 118.5,14.5C 120.102,12.9261 122.102,12.2594 124.5,12.5 Z"/></g>
<g><path style="opacity:1" fill="#a0c4ea" d="M 181.5,13.5 C 183.527,13.3379 185.527,13.5045 187.5,14C 188.056,14.3826 188.389,14.8826 188.5,15.5C 187.167,15.1667 185.833,14.8333 184.5,14.5C 183.209,14.7373 182.209,14.404 181.5,13.5 Z"/></g>
<g><path style="opacity:1" fill="#91bae6" d="M 169.5,15.5 C 170.5,16.1667 171.5,16.8333 172.5,17.5C 158.826,16.2092 145.16,16.2092 131.5,17.5C 132.5,16.8333 133.5,16.1667 134.5,15.5C 146.157,14.2492 157.824,14.2492 169.5,15.5 Z"/></g>
<g><path style="opacity:1" fill="#c7dcf2" d="M 112.5,15.5 C 110.967,17.2451 108.967,18.2451 106.5,18.5C 108.033,16.7549 110.033,15.7549 112.5,15.5 Z"/></g>
<g><path style="opacity:1" fill="#70a5e0" d="M 172.5,17.5 C 174.292,17.366 175.958,17.6993 177.5,18.5C 181.783,24.623 186.283,30.623 191,36.5C 191.139,39.5752 190.639,42.5752 189.5,45.5C 187.621,46.8952 186.621,48.8952 186.5,51.5C 186.025,53.7837 185.025,55.7837 183.5,57.5C 182.094,57.9731 181.427,58.9731 181.5,60.5C 179.552,62.3204 178.552,64.6538 178.5,67.5C 177.962,69.1172 177.629,70.7839 177.5,72.5C 175.759,74.3949 174.759,76.7282 174.5,79.5C 174.5,79.8333 174.5,80.1667 174.5,80.5C 173.15,81.4831 172.15,82.8164 171.5,84.5C 169.993,89.2502 168.326,93.9169 166.5,98.5C 166.5,99.1667 166.5,99.8333 166.5,100.5C 165.167,99.5 163.833,98.5 162.5,97.5C 161.274,93.38 159.274,89.7133 156.5,86.5C 156.573,84.9731 155.906,83.9731 154.5,83.5C 153.833,82.5 153.167,81.5 152.5,80.5C 151.44,77.2314 149.107,75.5647 145.5,75.5C 145.167,75.5 144.833,75.5 144.5,75.5C 142.833,73.1667 140.833,71.1667 138.5,69.5C 137.833,68.5 137.167,67.5 136.5,66.5C 134.037,62.6998 130.704,60.0332 126.5,58.5C 125.71,57.2058 124.71,56.0391 123.5,55C 118.967,53.2398 114.967,50.7398 111.5,47.5C 109.57,43.8998 106.903,40.8998 103.5,38.5C 101.167,35.8333 98.8333,33.1667 96.5,30.5C 96.369,29.7611 96.5357,29.0944 97,28.5C 98.98,27.2509 100.813,25.9176 102.5,24.5C 103.167,24.5 103.833,24.5 104.5,24.5C 107.947,23.917 110.947,22.5837 113.5,20.5C 115.527,20.6621 117.527,20.4955 119.5,20C 120.056,19.6174 120.389,19.1174 120.5,18.5C 120.833,18.5 121.167,18.5 121.5,18.5C 124.807,17.9492 128.14,17.6159 131.5,17.5C 145.16,16.2092 158.826,16.2092 172.5,17.5 Z"/></g>
<g><path style="opacity:1" fill="#c5dbf2" d="M 169.5,15.5 C 172.811,15.3072 175.478,16.3072 177.5,18.5C 175.958,17.6993 174.292,17.366 172.5,17.5C 171.5,16.8333 170.5,16.1667 169.5,15.5 Z"/></g>
<g><path style="opacity:1" fill="#d7e6f6" d="M 184.5,14.5 C 185.833,14.8333 187.167,15.1667 188.5,15.5C 190.553,15.4021 192.22,16.0687 193.5,17.5C 190.008,17.554 187.008,16.554 184.5,14.5 Z"/></g>
<g><path style="opacity:1" fill="#b1cfee" d="M 134.5,15.5 C 133.5,16.1667 132.5,16.8333 131.5,17.5C 128.14,17.6159 124.807,17.9492 121.5,18.5C 121.918,17.7784 122.584,17.2784 123.5,17C 127.17,16.4518 130.837,15.9518 134.5,15.5 Z"/></g>
<g><path style="opacity:1" fill="#9bc1e9" d="M 120.5,18.5 C 120.389,19.1174 120.056,19.6174 119.5,20C 117.527,20.4955 115.527,20.6621 113.5,20.5C 115.657,19.5933 117.99,18.9267 120.5,18.5 Z"/></g>
<g><path style="opacity:1" fill="#c6dbf2" d="M 198.5,18.5 C 200.153,18.6596 201.486,19.3263 202.5,20.5C 200.517,20.8432 199.183,20.1765 198.5,18.5 Z"/></g>
<g><path style="opacity:1" fill="#9ac0e9" d="M 113.5,20.5 C 110.947,22.5837 107.947,23.917 104.5,24.5C 107.053,22.4163 110.053,21.083 113.5,20.5 Z"/></g>
<g><path style="opacity:1" fill="#7fafe3" d="M 200.5,27.5 C 199.341,28.4558 198.174,29.4558 197,30.5C 195.697,30.0217 194.531,29.355 193.5,28.5C 192.585,26.2459 191.252,24.2459 189.5,22.5C 190.167,22.1667 190.833,21.8333 191.5,21.5C 194.675,23.0911 198.009,24.0911 201.5,24.5C 201.737,25.791 201.404,26.791 200.5,27.5 Z"/></g>
<g><path style="opacity:1" fill="#c3daf2" d="M 91.5,24.5 C 90.713,26.1042 89.3797,26.7709 87.5,26.5C 88.5137,25.3263 89.847,24.6596 91.5,24.5 Z"/></g>
<g><path style="opacity:1" fill="#a4c6ea" d="M 212.5,24.5 C 214.027,24.427 215.027,25.0937 215.5,26.5C 213.973,26.573 212.973,25.9063 212.5,24.5 Z"/></g>
<g><path style="opacity:1" fill="#aecced" d="M 102.5,24.5 C 100.813,25.9176 98.98,27.2509 97,28.5C 96.5357,29.0944 96.369,29.7611 96.5,30.5C 94.5354,30.0517 94.2021,29.0517 95.5,27.5C 97.5771,25.9182 99.9104,24.9182 102.5,24.5 Z"/></g>
<g><path style="opacity:1" fill="#c1d8f1" d="M 87.5,26.5 C 86.1473,28.7379 84.1473,30.0713 81.5,30.5C 83.0337,28.631 85.0337,27.2977 87.5,26.5 Z"/></g>
<g><path style="opacity:1" fill="#deeaf7" d="M 200.5,27.5 C 200.337,30.1829 199.004,31.8495 196.5,32.5C 194.532,31.8999 193.532,30.5666 193.5,28.5C 194.531,29.355 195.697,30.0217 197,30.5C 198.174,29.4558 199.341,28.4558 200.5,27.5 Z"/></g>
<g><path style="opacity:1" fill="#a4c6ea" d="M 217.5,33.5 C 215.45,33.0388 213.45,32.3721 211.5,31.5C 210.378,32.6302 209.044,33.2969 207.5,33.5C 208.249,31.7538 209.583,30.7538 211.5,30.5C 213.987,30.7587 215.987,31.7587 217.5,33.5 Z"/></g>
<g><path style="opacity:1" fill="#d4e5f5" d="M 89.5,33.5 C 88.1667,33.5 86.8333,33.5 85.5,33.5C 85.62,32.4138 86.2867,31.7472 87.5,31.5C 88.7133,31.7472 89.38,32.4138 89.5,33.5 Z"/></g>
<g><path style="opacity:1" fill="#70a5e0" d="M 217.5,33.5 C 224.992,37.8389 231.659,43.1722 237.5,49.5C 237.973,50.9063 238.973,51.573 240.5,51.5C 241.5,52.8333 242.5,54.1667 243.5,55.5C 244.757,58.4274 246.757,60.7607 249.5,62.5C 255.741,69.3047 260.741,76.9713 264.5,85.5C 264.755,87.9674 265.755,89.9674 267.5,91.5C 269.06,93.9535 270.06,96.6202 270.5,99.5C 271.219,101.764 271.552,104.097 271.5,106.5C 270.167,106.5 268.833,106.5 267.5,106.5C 264.998,106.749 262.498,107.083 260,107.5C 258.319,107.608 257.152,108.275 256.5,109.5C 254.102,109.259 252.102,109.926 250.5,111.5C 245.203,112.275 239.87,112.608 234.5,112.5C 230.983,111.38 227.316,111.38 223.5,112.5C 215.178,113.692 206.845,113.692 198.5,112.5C 196.565,111.85 194.565,111.517 192.5,111.5C 191.5,111.5 190.5,111.5 189.5,111.5C 187.485,110.076 185.152,109.41 182.5,109.5C 178.828,109.817 177.162,108.151 177.5,104.5C 178.117,104.389 178.617,104.056 179,103.5C 179.739,100.454 180.572,97.4535 181.5,94.5C 182.345,93.3285 183.011,91.9952 183.5,90.5C 185.113,86.2683 186.446,81.9349 187.5,77.5C 189.065,75.4907 190.065,73.1573 190.5,70.5C 191.674,69.4863 192.34,68.153 192.5,66.5C 193.075,62.3778 194.075,58.3778 195.5,54.5C 197.088,52.8867 198.088,50.8867 198.5,48.5C 198.263,47.209 198.596,46.209 199.5,45.5C 200.793,43.1917 202.126,40.8583 203.5,38.5C 204.5,38.5 205.5,38.5 206.5,38.5C 206.629,36.7839 206.962,35.1172 207.5,33.5C 209.044,33.2969 210.378,32.6302 211.5,31.5C 213.45,32.3721 215.45,33.0388 217.5,33.5 Z"/></g>
<g><path style="opacity:1" fill="#70a5e0" d="M 85.5,33.5 C 86.8333,33.5 88.1667,33.5 89.5,33.5C 93.489,39.1548 98.1556,44.1548 103.5,48.5C 103.772,51.7322 105.438,53.7322 108.5,54.5C 112.052,56.7518 115.718,58.9185 119.5,61C 123.036,64.7039 126.702,68.2039 130.5,71.5C 130.5,73.5 131.5,74.5 133.5,74.5C 133.5,76.5 134.5,77.5 136.5,77.5C 147.399,84.4206 155.066,94.0873 159.5,106.5C 160.686,108.792 160.686,111.126 159.5,113.5C 157.802,115.561 156.468,117.895 155.5,120.5C 154.094,120.973 153.427,121.973 153.5,123.5C 151.81,125.519 150.144,127.519 148.5,129.5C 145.527,130.81 143.193,132.81 141.5,135.5C 139.326,135.75 137.659,136.75 136.5,138.5C 134.847,138.66 133.514,139.326 132.5,140.5C 131.329,141.345 129.995,142.011 128.5,142.5C 121.5,143.833 114.5,143.833 107.5,142.5C 99.2485,140.472 91.0818,138.138 83,135.5C 80.9549,133.625 79.1215,131.625 77.5,129.5C 77.0269,128.094 76.0269,127.427 74.5,127.5C 71.8449,125.851 69.1783,124.184 66.5,122.5C 62.793,117.469 58.793,112.802 54.5,108.5C 54.0269,107.094 53.0269,106.427 51.5,106.5C 47.1908,101.256 42.8574,95.9225 38.5,90.5C 38.3379,88.4727 38.5045,86.4727 39,84.5C 40.9473,82.9366 42.114,80.9366 42.5,78.5C 44.0248,76.7837 45.0248,74.7837 45.5,72.5C 46.9063,72.0269 47.573,71.0269 47.5,69.5C 49.2624,68.7377 50.2624,67.4044 50.5,65.5C 50.8333,64.5 51.5,63.8333 52.5,63.5C 55.5907,61.0775 57.924,58.0775 59.5,54.5C 60.1667,54.5 60.5,54.1667 60.5,53.5C 63.6987,53.2384 65.6987,51.5717 66.5,48.5C 69.4474,47.2195 71.7807,45.2195 73.5,42.5C 76.4735,40.8532 79.1401,38.8532 81.5,36.5C 82.2114,34.7986 83.5447,33.7986 85.5,33.5 Z"/></g>
<g><path style="opacity:1" fill="#cee1f4" d="M 81.5,30.5 C 78.3234,34.3955 74.3234,37.0622 69.5,38.5C 73.1477,35.3401 77.1477,32.6735 81.5,30.5 Z"/></g>
<g><path style="opacity:1" fill="#a7c8eb" d="M 81.5,36.5 C 79.1401,38.8532 76.4735,40.8532 73.5,42.5C 75.2683,39.4101 77.9349,37.4101 81.5,36.5 Z"/></g>
<g><path style="opacity:1" fill="#91bae6" d="M 207.5,33.5 C 206.962,35.1172 206.629,36.7839 206.5,38.5C 205.5,38.5 204.5,38.5 203.5,38.5C 204.604,36.6115 205.937,34.9448 207.5,33.5 Z"/></g>
<g><path style="opacity:1" fill="#c5dbf2" d="M 103.5,38.5 C 106.903,40.8998 109.57,43.8998 111.5,47.5C 108.097,45.1002 105.43,42.1002 103.5,38.5 Z"/></g>
<g><path style="opacity:1" fill="#a3c6eb" d="M 234.5,39.5 C 236.5,39.5 237.5,40.5 237.5,42.5C 236.167,41.8333 235.167,40.8333 234.5,39.5 Z"/></g>
<g><path style="opacity:1" fill="#bdd6f0" d="M 203.5,38.5 C 202.126,40.8583 200.793,43.1917 199.5,45.5C 199.149,42.1884 200.482,39.855 203.5,38.5 Z"/></g>
<g><path style="opacity:1" fill="#c6dbf2" d="M 65.5,42.5 C 61.5481,47.1186 57.2148,51.4519 52.5,55.5C 55.8121,50.1879 60.1454,45.8546 65.5,42.5 Z"/></g>
<g><path style="opacity:1" fill="#97bee8" d="M 73.5,42.5 C 71.7807,45.2195 69.4474,47.2195 66.5,48.5C 68.1935,45.8103 70.5268,43.8103 73.5,42.5 Z"/></g>
<g><path style="opacity:1" fill="#b8d3ef" d="M 237.5,49.5 C 239.027,49.427 240.027,50.0937 240.5,51.5C 238.973,51.573 237.973,50.9063 237.5,49.5 Z"/></g>
<g><path style="opacity:1" fill="#b4d0ee" d="M 189.5,45.5 C 189.088,47.8867 188.088,49.8867 186.5,51.5C 186.621,48.8952 187.621,46.8952 189.5,45.5 Z"/></g>
<g><path style="opacity:1" fill="#93bbe7" d="M 66.5,48.5 C 65.6987,51.5717 63.6987,53.2384 60.5,53.5C 62.2274,51.4333 64.2274,49.7666 66.5,48.5 Z"/></g>
<g><path style="opacity:1" fill="#94bce7" d="M 103.5,48.5 C 105.156,50.4602 106.823,52.4602 108.5,54.5C 105.438,53.7322 103.772,51.7322 103.5,48.5 Z"/></g>
<g><path style="opacity:1" fill="#bad4ef" d="M 247.5,51.5 C 248.906,51.9731 249.573,52.9731 249.5,54.5C 248.094,54.0269 247.427,53.0269 247.5,51.5 Z"/></g>
<g><path style="opacity:1" fill="#b8d3ef" d="M 198.5,48.5 C 198.088,50.8867 197.088,52.8867 195.5,54.5C 195.621,51.8952 196.621,49.8952 198.5,48.5 Z"/></g>
<g><path style="opacity:1" fill="#94bce7" d="M 243.5,55.5 C 246.243,57.2393 248.243,59.5726 249.5,62.5C 246.757,60.7607 244.757,58.4274 243.5,55.5 Z"/></g>
<g><path style="opacity:1" fill="#9bc1e9" d="M 59.5,54.5 C 57.924,58.0775 55.5907,61.0775 52.5,63.5C 54.1108,59.9485 56.4442,56.9485 59.5,54.5 Z"/></g>
<g><path style="opacity:1" fill="#c7dcf3" d="M 51.5,56.5 C 51.2624,58.4044 50.2624,59.7377 48.5,60.5C 48.7376,58.5956 49.7376,57.2623 51.5,56.5 Z"/></g>
<g><path style="opacity:1" fill="#97bee8" d="M 126.5,58.5 C 130.704,60.0332 134.037,62.6998 136.5,66.5C 132.873,64.2065 129.539,61.5398 126.5,58.5 Z"/></g>
<g><path style="opacity:1" fill="#bcd5f0" d="M 183.5,57.5 C 183.204,59.403 182.537,61.0697 181.5,62.5C 181.5,61.8333 181.5,61.1667 181.5,60.5C 181.427,58.9731 182.094,57.9731 183.5,57.5 Z"/></g>
<g><path style="opacity:1" fill="#c4daf2" d="M 48.5,60.5 C 47.9744,62.2303 46.9744,63.5637 45.5,64.5C 45.5544,62.368 46.5544,61.0347 48.5,60.5 Z"/></g>
<g><path style="opacity:1" fill="#93bce7" d="M 181.5,60.5 C 181.5,61.1667 181.5,61.8333 181.5,62.5C 180.687,64.2608 179.687,65.9275 178.5,67.5C 178.552,64.6538 179.552,62.3204 181.5,60.5 Z"/></g>
<g><path style="opacity:1" fill="#afcded" d="M 50.5,65.5 C 50.2624,67.4044 49.2624,68.7377 47.5,69.5C 47.7376,67.5956 48.7376,66.2623 50.5,65.5 Z"/></g>
<g><path style="opacity:1" fill="#bad4ef" d="M 45.5,64.5 C 44.8763,66.754 43.543,68.4206 41.5,69.5C 42.1355,67.2054 43.4689,65.5387 45.5,64.5 Z"/></g>
<g><path style="opacity:1" fill="#d7e6f6" d="M 256.5,63.5 C 258.547,65.5496 260.214,67.883 261.5,70.5C 258.677,69.0077 257.01,66.6743 256.5,63.5 Z"/></g>
<g><path style="opacity:1" fill="#b7d2ef" d="M 192.5,66.5 C 192.34,68.153 191.674,69.4863 190.5,70.5C 190.157,68.5168 190.824,67.1834 192.5,66.5 Z"/></g>
<g><path style="opacity:1" fill="#d0e2f4" d="M 138.5,69.5 C 140.833,71.1667 142.833,73.1667 144.5,75.5C 141.5,74.5 139.5,72.5 138.5,69.5 Z"/></g>
<g><path style="opacity:1" fill="#b2d0ee" d="M 47.5,69.5 C 47.573,71.0269 46.9063,72.0269 45.5,72.5C 45.427,70.9731 46.0937,69.9731 47.5,69.5 Z"/></g>
<g><path style="opacity:1" fill="#a7c8eb" d="M 130.5,71.5 C 131.833,72.1667 132.833,73.1667 133.5,74.5C 131.5,74.5 130.5,73.5 130.5,71.5 Z"/></g>
<g><path style="opacity:1" fill="#bfd7f1" d="M 261.5,70.5 C 262.906,70.9731 263.573,71.9731 263.5,73.5C 262.094,73.0269 261.427,72.0269 261.5,70.5 Z"/></g>
<g><path style="opacity:1" fill="#bad5ef" d="M 45.5,72.5 C 45.0248,74.7837 44.0248,76.7837 42.5,78.5C 42.1667,78.5 41.8333,78.5 41.5,78.5C 42.3403,76.1475 43.6736,74.1475 45.5,72.5 Z"/></g>
<g><path style="opacity:1" fill="#a2c5ea" d="M 133.5,74.5 C 134.833,75.1667 135.833,76.1667 136.5,77.5C 134.5,77.5 133.5,76.5 133.5,74.5 Z"/></g>
<g><path style="opacity:1" fill="#d6e5f6" d="M 190.5,70.5 C 190.065,73.1573 189.065,75.4907 187.5,77.5C 187.464,74.539 188.464,72.2057 190.5,70.5 Z"/></g>
<g><path style="opacity:1" fill="#c5dbf2" d="M 39.5,73.5 C 39.047,75.5652 38.047,77.2318 36.5,78.5C 36.5923,76.1523 37.5923,74.4856 39.5,73.5 Z"/></g>
<g><path style="opacity:1" fill="#a1c5ea" d="M 145.5,75.5 C 149.107,75.5647 151.44,77.2314 152.5,80.5C 150.224,78.6489 147.891,76.9823 145.5,75.5 Z"/></g>
<g><path style="opacity:1" fill="#c2d9f1" d="M 177.5,72.5 C 177.357,75.3852 176.357,77.7185 174.5,79.5C 174.759,76.7282 175.759,74.3949 177.5,72.5 Z"/></g>
<g><path style="opacity:1" fill="#c3daf1" d="M 265.5,77.5 C 266.906,77.9731 267.573,78.9731 267.5,80.5C 266.094,80.0269 265.427,79.0269 265.5,77.5 Z"/></g>
<g><path style="opacity:1" fill="#c6dcf2" d="M 267.5,81.5 C 268.906,81.9731 269.573,82.9731 269.5,84.5C 268.094,84.0269 267.427,83.0269 267.5,81.5 Z"/></g>
<g><path style="opacity:1" fill="#c7dcf3" d="M 154.5,83.5 C 155.906,83.9731 156.573,84.9731 156.5,86.5C 155.094,86.0269 154.427,85.0269 154.5,83.5 Z"/></g>
<g><path style="opacity:1" fill="#afcded" d="M 36.5,78.5 C 33.9369,85.2083 30.9369,91.5416 27.5,97.5C 28.0604,95.1992 28.5604,92.8659 29,90.5C 30.7882,85.8949 33.2882,81.8949 36.5,78.5 Z"/></g>
<g><path style="opacity:1" fill="#8fb9e6" d="M 174.5,80.5 C 172.463,84.5972 171.129,88.9306 170.5,93.5C 169.025,95.0066 167.691,96.6732 166.5,98.5C 168.326,93.9169 169.993,89.2502 171.5,84.5C 172.15,82.8164 173.15,81.4831 174.5,80.5 Z"/></g>
<g><path style="opacity:1" fill="#a6c8eb" d="M 41.5,78.5 C 41.8333,78.5 42.1667,78.5 42.5,78.5C 42.114,80.9366 40.9473,82.9366 39,84.5C 38.5045,86.4727 38.3379,88.4727 38.5,90.5C 37.5222,90.189 36.8555,89.5223 36.5,88.5C 37.3795,84.663 39.0462,81.3296 41.5,78.5 Z"/></g>
<g><path style="opacity:1" fill="#b6d2ef" d="M 264.5,85.5 C 266.245,87.0326 267.245,89.0326 267.5,91.5C 265.755,89.9674 264.755,87.9674 264.5,85.5 Z"/></g>
<g><path style="opacity:1" fill="#c5dbf2" d="M 183.5,90.5 C 183.011,91.9952 182.345,93.3285 181.5,94.5C 181.157,92.5168 181.824,91.1834 183.5,90.5 Z"/></g>
<g><path style="opacity:1" fill="#cde0f3" d="M 35.5,98.5 C 33.8041,96.871 32.8041,97.2043 32.5,99.5C 32.5,100.167 32.1667,100.5 31.5,100.5C 31.5,99.1667 31.5,97.8333 31.5,96.5C 33.4832,96.1568 34.8166,96.8235 35.5,98.5 Z"/></g>
<g><path style="opacity:1" fill="#8eb9e6" d="M 273.5,94.5 C 277.052,97.5403 278.719,101.54 278.5,106.5C 277.359,103.746 276.025,101.079 274.5,98.5C 274.167,97.1667 273.833,95.8333 273.5,94.5 Z"/></g>
<g><path style="opacity:1" fill="#aacaec" d="M 162.5,97.5 C 163.833,98.5 165.167,99.5 166.5,100.5C 166.158,101.338 165.492,101.672 164.5,101.5C 163.326,100.486 162.66,99.153 162.5,97.5 Z"/></g>
<g><path style="opacity:1" fill="#ddeaf7" d="M 170.5,93.5 C 169.77,96.6184 168.77,99.6184 167.5,102.5C 166.209,102.737 165.209,102.404 164.5,101.5C 165.492,101.672 166.158,101.338 166.5,100.5C 166.5,99.8333 166.5,99.1667 166.5,98.5C 167.691,96.6732 169.025,95.0066 170.5,93.5 Z"/></g>
<g><path style="opacity:1" fill="#71a6e0" d="M 32.5,99.5 C 34.1667,100.167 35.8333,100.833 37.5,101.5C 38.5,101.833 39.1667,102.5 39.5,103.5C 39.427,105.027 40.0937,106.027 41.5,106.5C 44.5,110.167 47.8333,113.5 51.5,116.5C 52.8333,118.5 54.5,120.167 56.5,121.5C 60.4033,126.974 65.4033,131.307 71.5,134.5C 71.7031,136.044 72.3698,137.378 73.5,138.5C 72.2299,139.288 71.2299,140.288 70.5,141.5C 69.391,141.557 68.391,141.89 67.5,142.5C 61.9772,142.931 56.6439,142.264 51.5,140.5C 49.735,137.551 47.4017,136.885 44.5,138.5C 38.6871,139.106 33.0204,139.439 27.5,139.5C 26.2132,138.129 25.5465,136.295 25.5,134C 26.0278,128.474 26.6944,122.974 27.5,117.5C 27.5,116.5 27.5,115.5 27.5,114.5C 28.1174,114.389 28.6174,114.056 29,113.5C 29.3951,110.793 29.8951,108.127 30.5,105.5C 30.6287,103.784 30.962,102.117 31.5,100.5C 32.1667,100.5 32.5,100.167 32.5,99.5 Z"/></g>
<g><path style="opacity:1" fill="#92bbe7" d="M 35.5,98.5 C 36.1667,99.5 36.8333,100.5 37.5,101.5C 35.8333,100.833 34.1667,100.167 32.5,99.5C 32.8041,97.2043 33.8041,96.871 35.5,98.5 Z"/></g>
<g><path style="opacity:1" fill="#cbdff3" d="M 181.5,94.5 C 180.572,97.4535 179.739,100.454 179,103.5C 178.617,104.056 178.117,104.389 177.5,104.5C 177.938,100.687 179.271,97.3538 181.5,94.5 Z"/></g>
<g><path style="opacity:1" fill="#aacaec" d="M 27.5,98.5 C 27.1667,99.8333 26.8333,101.167 26.5,102.5C 26.1667,102.5 25.8333,102.5 25.5,102.5C 25.1568,100.517 25.8235,99.1834 27.5,98.5 Z"/></g>
<g><path style="opacity:1" fill="#deebf7" d="M 274.5,98.5 C 276.025,101.079 277.359,103.746 278.5,106.5C 278.5,107.833 278.5,109.167 278.5,110.5C 276.589,106.767 275.256,102.767 274.5,98.5 Z"/></g>
<g><path style="opacity:1" fill="#a6c8eb" d="M 39.5,103.5 C 40.9063,103.973 41.573,104.973 41.5,106.5C 40.0937,106.027 39.427,105.027 39.5,103.5 Z"/></g>
<g><path style="opacity:1" fill="#d3e3f5" d="M 25.5,102.5 C 25.8333,102.5 26.1667,102.5 26.5,102.5C 26.8799,104.698 26.2132,106.365 24.5,107.5C 24.366,105.708 24.6993,104.042 25.5,102.5 Z"/></g>
<g><path style="opacity:1" fill="#a3c5ea" d="M 51.5,106.5 C 53.0269,106.427 54.0269,107.094 54.5,108.5C 52.9731,108.573 51.9731,107.906 51.5,106.5 Z"/></g>
<g><path style="opacity:1" fill="#d3e3f5" d="M 270.5,99.5 C 272.397,101.698 273.397,104.364 273.5,107.5C 271.5,107.5 269.5,107.5 267.5,107.5C 267.5,107.167 267.5,106.833 267.5,106.5C 268.833,106.5 270.167,106.5 271.5,106.5C 271.552,104.097 271.219,101.764 270.5,99.5 Z"/></g>
<g><path style="opacity:1" fill="#89b5e5" d="M 267.5,106.5 C 267.5,106.833 267.5,107.167 267.5,107.5C 265.565,108.15 263.565,108.483 261.5,108.5C 259.883,109.038 258.216,109.371 256.5,109.5C 257.152,108.275 258.319,107.608 260,107.5C 262.498,107.083 264.998,106.749 267.5,106.5 Z"/></g>
<g><path style="opacity:1" fill="#b8d3ef" d="M 182.5,109.5 C 185.152,109.41 187.485,110.076 189.5,111.5C 186.848,111.59 184.515,110.924 182.5,109.5 Z"/></g>
<g><path style="opacity:1" fill="#bfd7f1" d="M 261.5,108.5 C 261.389,109.117 261.056,109.617 260.5,110C 257.173,110.61 253.839,111.11 250.5,111.5C 252.102,109.926 254.102,109.259 256.5,109.5C 258.216,109.371 259.883,109.038 261.5,108.5 Z"/></g>
<g><path style="opacity:1" fill="#aecded" d="M 234.5,112.5 C 231.941,112.198 229.607,112.532 227.5,113.5C 226.167,113.5 224.833,113.5 223.5,113.5C 223.5,113.167 223.5,112.833 223.5,112.5C 227.316,111.38 230.983,111.38 234.5,112.5 Z"/></g>
<g><path style="opacity:1" fill="#a9c9ec" d="M 30.5,105.5 C 29.8951,108.127 29.3951,110.793 29,113.5C 28.6174,114.056 28.1174,114.389 27.5,114.5C 27.59,112.304 27.9233,110.137 28.5,108C 28.6842,106.624 29.3509,105.791 30.5,105.5 Z"/></g>
<g><path style="opacity:1" fill="#d1e2f5" d="M 159.5,106.5 C 160.725,107.152 161.392,108.319 161.5,110C 161.392,111.681 160.725,112.848 159.5,113.5C 160.686,111.126 160.686,108.792 159.5,106.5 Z"/></g>
<g><path style="opacity:1" fill="#c4daf2" d="M 192.5,111.5 C 194.565,111.517 196.565,111.85 198.5,112.5C 198.5,112.833 198.5,113.167 198.5,113.5C 196.102,113.741 194.102,113.074 192.5,111.5 Z"/></g>
<g><path style="opacity:1" fill="#ccdff3" d="M 250.5,111.5 C 250.082,112.222 249.416,112.722 248.5,113C 241.508,113.5 234.508,113.666 227.5,113.5C 229.607,112.532 231.941,112.198 234.5,112.5C 239.87,112.608 245.203,112.275 250.5,111.5 Z"/></g>
<g><path style="opacity:1" fill="#8eb8e6" d="M 198.5,113.5 C 198.5,113.167 198.5,112.833 198.5,112.5C 206.845,113.692 215.178,113.692 223.5,112.5C 223.5,112.833 223.5,113.167 223.5,113.5C 215.203,115.845 206.87,115.845 198.5,113.5 Z"/></g>
<g><path style="opacity:1" fill="#c1d8f1" d="M 184.5,117.5 C 181.183,116.779 177.849,116.612 174.5,117C 173.837,118.518 172.837,119.685 171.5,120.5C 171.751,118.83 172.418,117.33 173.5,116C 177.477,115.121 181.144,115.621 184.5,117.5 Z"/></g>
<g><path style="opacity:1" fill="#72a7e0" d="M 274.5,114.5 C 275.047,119.355 275.047,124.022 274.5,128.5C 272.579,127.637 270.579,126.971 268.5,126.5C 265.181,123.742 261.514,121.242 257.5,119C 258.056,118.617 258.389,118.117 258.5,117.5C 262.417,117.024 266.084,116.024 269.5,114.5C 271.167,113.167 272.833,113.167 274.5,114.5 Z"/></g>
<g><path style="opacity:1" fill="#c2d9f1" d="M 51.5,116.5 C 54.1667,117.167 55.8333,118.833 56.5,121.5C 54.5,120.167 52.8333,118.5 51.5,116.5 Z"/></g>
<g><path style="opacity:1" fill="#6fa5e0" d="M 184.5,117.5 C 185.167,117.5 185.833,117.5 186.5,117.5C 190.2,119.245 194.2,120.245 198.5,120.5C 199.5,120.5 200.5,120.5 201.5,120.5C 203.102,122.074 205.102,122.741 207.5,122.5C 208.167,122.5 208.833,122.5 209.5,122.5C 210.312,123.993 211.645,124.66 213.5,124.5C 216.84,123.57 219.84,122.237 222.5,120.5C 232.477,118.137 241.811,119.47 250.5,124.5C 250.973,125.906 251.973,126.573 253.5,126.5C 254.167,126.833 254.833,127.167 255.5,127.5C 255.973,128.906 256.973,129.573 258.5,129.5C 264.477,133.322 270.81,136.322 277.5,138.5C 277.683,145.868 277.35,153.201 276.5,160.5C 276.5,162.167 276.5,163.833 276.5,165.5C 275.076,167.515 274.41,169.848 274.5,172.5C 273.781,174.764 273.448,177.097 273.5,179.5C 271.307,181.522 270.307,184.189 270.5,187.5C 268.621,188.895 267.621,190.895 267.5,193.5C 267.5,193.833 267.5,194.167 267.5,194.5C 265.896,195.287 265.229,196.62 265.5,198.5C 264.599,199.29 263.932,200.29 263.5,201.5C 262.094,201.973 261.427,202.973 261.5,204.5C 257.03,205.486 252.363,205.819 247.5,205.5C 237.498,204.574 227.498,203.574 217.5,202.5C 215.236,201.781 212.903,201.448 210.5,201.5C 205.777,199.775 200.777,198.775 195.5,198.5C 187.342,198.964 180.009,196.964 173.5,192.5C 173.027,191.094 172.027,190.427 170.5,190.5C 167.453,187.455 164.787,184.122 162.5,180.5C 161.914,174.366 161.248,168.366 160.5,162.5C 160.173,154.392 160.84,146.392 162.5,138.5C 162.5,138.167 162.5,137.833 162.5,137.5C 164.25,136.341 165.25,134.674 165.5,132.5C 165.5,132.167 165.5,131.833 165.5,131.5C 167.245,129.967 168.245,127.967 168.5,125.5C 170.408,124.514 171.408,122.848 171.5,120.5C 172.837,119.685 173.837,118.518 174.5,117C 177.849,116.612 181.183,116.779 184.5,117.5 Z"/></g>
<g><path style="opacity:1" fill="#a9caec" d="M 269.5,114.5 C 266.084,116.024 262.417,117.024 258.5,117.5C 257.833,117.5 257.167,117.5 256.5,117.5C 256.918,116.778 257.584,116.278 258.5,116C 262.17,115.452 265.837,114.952 269.5,114.5 Z"/></g>
<g><path style="opacity:1" fill="#bdd6f0" d="M 23.5,113.5 C 23.8799,115.698 23.2132,117.365 21.5,118.5C 21.1201,116.302 21.7868,114.635 23.5,113.5 Z"/></g>
<g><path style="opacity:1" fill="#b8d3ef" d="M 186.5,117.5 C 190.163,117.952 193.83,118.452 197.5,119C 198.056,119.383 198.389,119.883 198.5,120.5C 194.2,120.245 190.2,119.245 186.5,117.5 Z"/></g>
<g><path style="opacity:1" fill="#c8ddf3" d="M 155.5,120.5 C 155.573,122.027 154.906,123.027 153.5,123.5C 153.427,121.973 154.094,120.973 155.5,120.5 Z"/></g>
<g><path style="opacity:1" fill="#a7c8eb" d="M 201.5,120.5 C 203.898,120.259 205.898,120.926 207.5,122.5C 205.102,122.741 203.102,122.074 201.5,120.5 Z"/></g>
<g><path style="opacity:1" fill="#8eb8e6" d="M 256.5,117.5 C 257.167,117.5 257.833,117.5 258.5,117.5C 258.389,118.117 258.056,118.617 257.5,119C 261.514,121.242 265.181,123.742 268.5,126.5C 263.082,124.865 258.415,122.032 254.5,118C 255.094,117.536 255.761,117.369 256.5,117.5 Z"/></g>
<g><path style="opacity:1" fill="#89b5e5" d="M 222.5,120.5 C 219.84,122.237 216.84,123.57 213.5,124.5C 211.645,124.66 210.312,123.993 209.5,122.5C 213.924,122.348 218.257,121.681 222.5,120.5 Z"/></g>
<g><path style="opacity:1" fill="#a5c7eb" d="M 171.5,120.5 C 171.408,122.848 170.408,124.514 168.5,125.5C 168.75,123.326 169.75,121.659 171.5,120.5 Z"/></g>
<g><path style="opacity:1" fill="#c8ddf2" d="M 250.5,124.5 C 252.027,124.427 253.027,125.094 253.5,126.5C 251.973,126.573 250.973,125.906 250.5,124.5 Z"/></g>
<g><path style="opacity:1" fill="#87b4e4" d="M 274.5,114.5 C 275.913,117.219 276.58,120.219 276.5,123.5C 276.975,126.082 276.308,128.082 274.5,129.5C 274.5,129.167 274.5,128.833 274.5,128.5C 275.047,124.022 275.047,119.355 274.5,114.5 Z"/></g>
<g><path style="opacity:1" fill="#a9caec" d="M 21.5,121.5 C 20.5794,134.137 20.246,146.803 20.5,159.5C 19.3401,147.34 19.1735,135.007 20,122.5C 20.3826,121.944 20.8826,121.611 21.5,121.5 Z"/></g>
<g><path style="opacity:1" fill="#a3c6ea" d="M 74.5,127.5 C 76.0269,127.427 77.0269,128.094 77.5,129.5C 75.9731,129.573 74.9731,128.906 74.5,127.5 Z"/></g>
<g><path style="opacity:1" fill="#d2e3f5" d="M 153.5,123.5 C 153.238,126.699 151.572,128.699 148.5,129.5C 150.144,127.519 151.81,125.519 153.5,123.5 Z"/></g>
<g><path style="opacity:1" fill="#c3daf2" d="M 255.5,127.5 C 257.027,127.427 258.027,128.094 258.5,129.5C 256.973,129.573 255.973,128.906 255.5,127.5 Z"/></g>
<g><path style="opacity:1" fill="#a7c9eb" d="M 268.5,126.5 C 270.579,126.971 272.579,127.637 274.5,128.5C 274.5,128.833 274.5,129.167 274.5,129.5C 272.033,129.245 270.033,128.245 268.5,126.5 Z"/></g>
<g><path style="opacity:1" fill="#b7d3ef" d="M 276.5,123.5 C 277.468,125.607 277.802,127.941 277.5,130.5C 276.209,130.737 275.209,130.404 274.5,129.5C 276.308,128.082 276.975,126.082 276.5,123.5 Z"/></g>
<g><path style="opacity:1" fill="#a5c7eb" d="M 168.5,125.5 C 168.245,127.967 167.245,129.967 165.5,131.5C 165.755,129.033 166.755,127.033 168.5,125.5 Z"/></g>
<g><path style="opacity:1" fill="#aecded" d="M 27.5,117.5 C 26.6944,122.974 26.0278,128.474 25.5,134C 25.5465,136.295 26.2132,138.129 27.5,139.5C 27.5,139.833 27.5,140.167 27.5,140.5C 26.5,140.5 25.5,140.5 24.5,140.5C 24.334,135.156 24.5006,129.823 25,124.5C 25.3903,121.896 26.2237,119.562 27.5,117.5 Z"/></g>
<g><path style="opacity:1" fill="#cbdff3" d="M 148.5,129.5 C 146.781,132.219 144.447,134.219 141.5,135.5C 143.193,132.81 145.527,130.81 148.5,129.5 Z"/></g>
<g><path style="opacity:1" fill="#9bc0e9" d="M 71.5,134.5 C 74.0442,135.708 75.3775,137.708 75.5,140.5C 73.7839,140.629 72.1172,140.962 70.5,141.5C 71.2299,140.288 72.2299,139.288 73.5,138.5C 72.3698,137.378 71.7031,136.044 71.5,134.5 Z"/></g>
<g><path style="opacity:1" fill="#9ec2e9" d="M 165.5,132.5 C 165.25,134.674 164.25,136.341 162.5,137.5C 162.592,135.152 163.592,133.486 165.5,132.5 Z"/></g>
<g><path style="opacity:1" fill="#c4daf2" d="M 141.5,135.5 C 140.341,137.25 138.674,138.25 136.5,138.5C 137.659,136.75 139.326,135.75 141.5,135.5 Z"/></g>
<g><path style="opacity:1" fill="#ccdff3" d="M 44.5,138.5 C 44.0825,139.222 43.4158,139.722 42.5,140C 37.4149,140.147 32.4149,140.314 27.5,140.5C 27.5,140.167 27.5,139.833 27.5,139.5C 33.0204,139.439 38.6871,139.106 44.5,138.5 Z"/></g>
<g><path style="opacity:1" fill="#b6d1ef" d="M 136.5,138.5 C 135.713,140.104 134.38,140.771 132.5,140.5C 133.514,139.326 134.847,138.66 136.5,138.5 Z"/></g>
<g><path style="opacity:1" fill="#e0ebf8" d="M 280.5,122.5 C 282.43,126.373 283.097,130.706 282.5,135.5C 282.5,143.5 282.5,151.5 282.5,159.5C 281.833,160.167 281.167,160.833 280.5,161.5C 281.706,148.513 281.706,135.513 280.5,122.5 Z"/></g>
<g><path style="opacity:1" fill="#98bfe8" d="M 51.5,140.5 C 56.6439,142.264 61.9772,142.931 67.5,142.5C 63.9976,143.306 60.331,143.973 56.5,144.5C 54.2385,143.905 52.5719,142.571 51.5,140.5 Z"/></g>
<g><path style="opacity:1" fill="#92bbe7" d="M 107.5,142.5 C 114.5,143.833 121.5,143.833 128.5,142.5C 121.469,146.399 114.469,146.399 107.5,142.5 Z"/></g>
<g><path style="opacity:1" fill="#c3daf2" d="M 35.5,146.5 C 33.0504,146.298 30.717,146.631 28.5,147.5C 29.1522,146.275 30.3189,145.608 32,145.5C 33.3847,145.514 34.5514,145.848 35.5,146.5 Z"/></g>
<g><path style="opacity:1" fill="#a0c4ea" d="M 42.5,145.5 C 44.099,145.232 45.4324,145.566 46.5,146.5C 44.7839,146.629 43.1172,146.962 41.5,147.5C 41.8333,146.833 42.1667,146.167 42.5,145.5 Z"/></g>
<g><path style="opacity:1" fill="#abcbec" d="M 84.5,145.5 C 84.5,145.833 84.5,146.167 84.5,146.5C 81.4299,146.368 78.4299,146.701 75.5,147.5C 77.9878,145.612 80.9878,144.945 84.5,145.5 Z"/></g>
<g><path style="opacity:1" fill="#d3e3f5" d="M 42.5,145.5 C 42.1667,146.167 41.8333,146.833 41.5,147.5C 39.2646,147.795 37.2646,147.461 35.5,146.5C 37.9029,146.552 40.2362,146.219 42.5,145.5 Z"/></g>
<g><path style="opacity:1" fill="#73a7e0" d="M 35.5,146.5 C 37.2646,147.461 39.2646,147.795 41.5,147.5C 43.1172,146.962 44.7839,146.629 46.5,146.5C 48.5,147.833 50.1667,149.5 51.5,151.5C 56.8999,152.761 62.2333,152.428 67.5,150.5C 68.4916,150.672 69.1583,150.338 69.5,149.5C 71.698,149.88 73.3646,149.213 74.5,147.5C 74.8333,147.5 75.1667,147.5 75.5,147.5C 78.4299,146.701 81.4299,146.368 84.5,146.5C 86.0418,147.301 87.7085,147.634 89.5,147.5C 91.5,148.167 93.5,148.833 95.5,149.5C 98.0076,151.554 101.008,152.554 104.5,152.5C 106.311,152.572 107.644,153.405 108.5,155C 108.164,156.03 107.497,156.53 106.5,156.5C 103.99,156.927 101.657,157.593 99.5,158.5C 97.0948,159.768 94.4282,160.435 91.5,160.5C 86.6339,160.464 82.3006,161.797 78.5,164.5C 75.7628,164.599 73.0961,164.265 70.5,163.5C 69.8333,163.167 69.1667,162.833 68.5,162.5C 66.9674,160.755 64.9674,159.755 62.5,159.5C 60.8984,157.926 58.8984,157.259 56.5,157.5C 53.5,156.833 50.5,156.167 47.5,155.5C 43.6836,154.518 39.6836,153.851 35.5,153.5C 34.8333,153.5 34.1667,153.5 33.5,153.5C 33.3893,152.883 33.056,152.383 32.5,152C 30.0995,151.814 27.7662,151.314 25.5,150.5C 26.1925,149.482 26.8592,148.482 27.5,147.5C 27.8333,147.5 28.1667,147.5 28.5,147.5C 30.717,146.631 33.0504,146.298 35.5,146.5 Z"/></g>
<g><path style="opacity:1" fill="#d2e3f5" d="M 84.5,146.5 C 84.5,146.167 84.5,145.833 84.5,145.5C 86.698,145.12 88.3646,145.787 89.5,147.5C 87.7085,147.634 86.0418,147.301 84.5,146.5 Z"/></g>
<g><path style="opacity:1" fill="#d7e6f6" d="M 69.5,148.5 C 69.5,148.833 69.5,149.167 69.5,149.5C 69.1583,150.338 68.4916,150.672 67.5,150.5C 66.5,150.5 65.5,150.5 64.5,150.5C 65.6354,148.787 67.302,148.12 69.5,148.5 Z"/></g>
<g><path style="opacity:1" fill="#9ec3ea" d="M 74.5,147.5 C 73.3646,149.213 71.698,149.88 69.5,149.5C 69.5,149.167 69.5,148.833 69.5,148.5C 71.2161,148.371 72.8828,148.038 74.5,147.5 Z"/></g>
<g><path style="opacity:1" fill="#95bde7" d="M 95.5,149.5 C 98.8112,149.883 101.811,150.883 104.5,152.5C 101.008,152.554 98.0076,151.554 95.5,149.5 Z"/></g>
<g><path style="opacity:1" fill="#8eb9e6" d="M 162.5,138.5 C 160.84,146.392 160.173,154.392 160.5,162.5C 159.515,158.366 159.182,154.032 159.5,149.5C 159.572,146.807 159.905,144.14 160.5,141.5C 160.64,139.97 161.307,138.97 162.5,138.5 Z"/></g>
<g><path style="opacity:1" fill="#accced" d="M 27.5,147.5 C 26.8592,148.482 26.1925,149.482 25.5,150.5C 27.7662,151.314 30.0995,151.814 32.5,152C 33.056,152.383 33.3893,152.883 33.5,153.5C 30.5176,153.037 27.5176,152.704 24.5,152.5C 23.9162,149.715 24.9162,148.048 27.5,147.5 Z"/></g>
<g><path style="opacity:1" fill="#90bae6" d="M 64.5,150.5 C 65.5,150.5 66.5,150.5 67.5,150.5C 62.2333,152.428 56.8999,152.761 51.5,151.5C 55.8244,151.073 60.1578,150.739 64.5,150.5 Z"/></g>
<g><path style="opacity:1" fill="#ddeaf7" d="M 159.5,149.5 C 159.182,154.032 159.515,158.366 160.5,162.5C 160.5,167.5 160.5,172.5 160.5,177.5C 158.89,168.692 158.057,159.692 158,150.5C 158.383,149.944 158.883,149.611 159.5,149.5 Z"/></g>
<g><path style="opacity:1" fill="#d7e6f6" d="M 35.5,153.5 C 39.6836,153.851 43.6836,154.518 47.5,155.5C 43.8183,155.665 40.1516,155.499 36.5,155C 35.944,154.617 35.6107,154.117 35.5,153.5 Z"/></g>
<g><path style="opacity:1" fill="#bcd6f0" d="M 277.5,138.5 C 278.654,144.987 278.821,151.654 278,158.5C 277.722,159.416 277.222,160.082 276.5,160.5C 277.35,153.201 277.683,145.868 277.5,138.5 Z"/></g>
<g><path style="opacity:1" fill="#8cb7e5" d="M 282.5,135.5 C 283.809,137.571 284.475,140.071 284.5,143C 284.367,148.709 283.701,154.209 282.5,159.5C 282.5,151.5 282.5,143.5 282.5,135.5 Z"/></g>
<g><path style="opacity:1" fill="#a1c5ea" d="M 56.5,157.5 C 58.8984,157.259 60.8984,157.926 62.5,159.5C 60.1016,159.741 58.1016,159.074 56.5,157.5 Z"/></g>
<g><path style="opacity:1" fill="#c1d9f1" d="M 106.5,156.5 C 106.389,157.117 106.056,157.617 105.5,158C 103.527,158.495 101.527,158.662 99.5,158.5C 101.657,157.593 103.99,156.927 106.5,156.5 Z"/></g>
<g><path style="opacity:1" fill="#72a6e0" d="M 26.5,160.5 C 32.7748,161.418 39.1082,161.751 45.5,161.5C 47.9791,162.795 50.6458,163.795 53.5,164.5C 55.6975,166.397 58.3642,167.397 61.5,167.5C 66.9271,168.315 67.5938,170.315 63.5,173.5C 61.2573,174.474 58.924,174.808 56.5,174.5C 53.2244,175.122 51.8911,177.122 52.5,180.5C 52.1301,184.774 51.1301,188.774 49.5,192.5C 47.847,192.66 46.5137,193.326 45.5,194.5C 43.0722,196.043 40.4056,197.043 37.5,197.5C 36.7833,194.763 35.4499,192.43 33.5,190.5C 33.5,190.167 33.5,189.833 33.5,189.5C 33.2041,187.597 32.5375,185.93 31.5,184.5C 30.0066,179.525 28.6732,174.525 27.5,169.5C 27.0371,166.518 26.7038,163.518 26.5,160.5 Z"/></g>
<g><path style="opacity:1" fill="#a3c6ea" d="M 26.5,160.5 C 26.5,160.167 26.5,159.833 26.5,159.5C 32.992,159.994 39.3253,160.661 45.5,161.5C 39.1082,161.751 32.7748,161.418 26.5,160.5 Z"/></g>
<g><path style="opacity:1" fill="#b7d2ef" d="M 62.5,159.5 C 64.9674,159.755 66.9674,160.755 68.5,162.5C 66.0326,162.245 64.0326,161.245 62.5,159.5 Z"/></g>
<g><path style="opacity:1" fill="#94bce7" d="M 91.5,160.5 C 87.4163,162.326 83.083,163.66 78.5,164.5C 82.3006,161.797 86.6339,160.464 91.5,160.5 Z"/></g>
<g><path style="opacity:1" fill="#9dc2e9" d="M 70.5,163.5 C 73.0961,164.265 75.7628,164.599 78.5,164.5C 77.5514,165.152 76.3847,165.486 75,165.5C 72.9919,165.693 71.4919,165.026 70.5,163.5 Z"/></g>
<g><path style="opacity:1" fill="#70a5e0" d="M 115.5,165.5 C 119.003,165.129 122.003,166.129 124.5,168.5C 124.5,173.167 124.5,177.833 124.5,182.5C 123.596,183.209 123.263,184.209 123.5,185.5C 121.554,186.035 120.554,187.368 120.5,189.5C 117.723,191.951 115.723,194.951 114.5,198.5C 108.804,198.834 103.471,200.167 98.5,202.5C 96.302,202.12 94.6354,202.787 93.5,204.5C 93.1667,204.5 92.8333,204.5 92.5,204.5C 88.2474,204.782 85.2474,206.782 83.5,210.5C 82.0937,210.973 81.427,211.973 81.5,213.5C 79.1223,215.878 77.1223,218.545 75.5,221.5C 73.8845,223.738 72.5512,226.071 71.5,228.5C 70.0762,230.515 69.4095,232.848 69.5,235.5C 69.5,235.833 69.5,236.167 69.5,236.5C 68.1667,236.167 66.8333,235.833 65.5,235.5C 61.5271,232.194 57.8604,228.527 54.5,224.5C 53.9688,222.456 52.8022,220.789 51,219.5C 50.3224,217.402 50.4891,215.402 51.5,213.5C 53.5475,211.45 55.2141,209.117 56.5,206.5C 57.4454,201.595 57.7787,196.595 57.5,191.5C 58.1174,191.389 58.6174,191.056 59,190.5C 58.1728,184.628 60.6728,181.795 66.5,182C 70.763,178.219 75.0964,174.719 79.5,171.5C 80.1667,171.5 80.8333,171.5 81.5,171.5C 83.403,171.204 85.0697,170.537 86.5,169.5C 88.8056,169.007 91.139,168.674 93.5,168.5C 96.1522,168.59 98.4855,167.924 100.5,166.5C 100.842,165.662 101.508,165.328 102.5,165.5C 106.833,164.167 111.167,164.167 115.5,165.5 Z"/></g>
<g><path style="opacity:1" fill="#b3d0ee" d="M 115.5,165.5 C 111.167,164.167 106.833,164.167 102.5,165.5C 102.611,164.883 102.944,164.383 103.5,164C 107.167,163.333 110.833,163.333 114.5,164C 115.056,164.383 115.389,164.883 115.5,165.5 Z"/></g>
<g><path style="opacity:1" fill="#b6d1ef" d="M 282.5,159.5 C 282.342,163.841 281.342,167.841 279.5,171.5C 280.051,168.193 280.384,164.86 280.5,161.5C 281.167,160.833 281.833,160.167 282.5,159.5 Z"/></g>
<g><path style="opacity:1" fill="#95bde7" d="M 53.5,164.5 C 55.8008,165.06 58.1341,165.56 60.5,166C 61.056,166.383 61.3893,166.883 61.5,167.5C 58.3642,167.397 55.6975,166.397 53.5,164.5 Z"/></g>
<g><path style="opacity:1" fill="#c9def3" d="M 26.5,159.5 C 26.5,159.833 26.5,160.167 26.5,160.5C 26.7038,163.518 27.0371,166.518 27.5,169.5C 26.8826,169.389 26.3826,169.056 26,168.5C 25.1955,165.304 25.3622,162.304 26.5,159.5 Z"/></g>
<g><path style="opacity:1" fill="#92bbe7" d="M 100.5,166.5 C 98.4855,167.924 96.1522,168.59 93.5,168.5C 95.5145,167.076 97.8478,166.41 100.5,166.5 Z"/></g>
<g><path style="opacity:1" fill="#a1c5ea" d="M 160.5,162.5 C 161.248,168.366 161.914,174.366 162.5,180.5C 161.094,180.027 160.427,179.027 160.5,177.5C 160.5,172.5 160.5,167.5 160.5,162.5 Z"/></g>
<g><path style="opacity:1" fill="#c5dbf2" d="M 86.5,169.5 C 85.0697,170.537 83.403,171.204 81.5,171.5C 82.6354,169.787 84.302,169.12 86.5,169.5 Z"/></g>
<g><path style="opacity:1" fill="#bad4f0" d="M 276.5,165.5 C 276.59,168.152 275.924,170.485 274.5,172.5C 274.41,169.848 275.076,167.515 276.5,165.5 Z"/></g>
<g><path style="opacity:1" fill="#a7c8eb" d="M 21.5,167.5 C 22.9238,169.515 23.5905,171.848 23.5,174.5C 22.0762,172.485 21.4095,170.152 21.5,167.5 Z"/></g>
<g><path style="opacity:1" fill="#b7d2ee" d="M 124.5,168.5 C 126.017,170.462 126.684,172.795 126.5,175.5C 126.684,178.205 126.017,180.538 124.5,182.5C 124.5,177.833 124.5,173.167 124.5,168.5 Z"/></g>
<g><path style="opacity:1" fill="#aacaec" d="M 56.5,174.5 C 54.7104,176.272 53.3771,178.272 52.5,180.5C 51.8911,177.122 53.2244,175.122 56.5,174.5 Z"/></g>
<g><path style="opacity:1" fill="#aacaec" d="M 79.5,171.5 C 75.0964,174.719 70.763,178.219 66.5,182C 60.6728,181.795 58.1728,184.628 59,190.5C 58.6174,191.056 58.1174,191.389 57.5,191.5C 57.7233,188.216 58.3899,185.049 59.5,182C 65.7088,180.888 70.7088,177.721 74.5,172.5C 76.0709,171.691 77.7376,171.357 79.5,171.5 Z"/></g>
<g><path style="opacity:1" fill="#b0ceee" d="M 279.5,174.5 C 279.13,178.137 278.13,181.47 276.5,184.5C 276.67,182.152 277.003,179.818 277.5,177.5C 277.64,175.97 278.307,174.97 279.5,174.5 Z"/></g>
<g><path style="opacity:1" fill="#b4d1ee" d="M 144.5,183.5 C 147.167,183.5 149.833,183.5 152.5,183.5C 152.629,185.216 152.962,186.883 153.5,188.5C 151.896,187.713 151.229,186.38 151.5,184.5C 148.941,184.802 146.607,184.468 144.5,183.5 Z"/></g>
<g><path style="opacity:1" fill="#cbdef3" d="M 273.5,179.5 C 273.097,182.486 272.097,185.152 270.5,187.5C 270.307,184.189 271.307,181.522 273.5,179.5 Z"/></g>
<g><path style="opacity:1" fill="#72a7e0" d="M 142.5,183.5 C 143.167,183.5 143.833,183.5 144.5,183.5C 146.607,184.468 148.941,184.802 151.5,184.5C 151.229,186.38 151.896,187.713 153.5,188.5C 153.5,188.833 153.5,189.167 153.5,189.5C 153.427,191.027 154.094,192.027 155.5,192.5C 160.526,199.382 167.192,204.382 175.5,207.5C 175.5,211.5 175.5,215.5 175.5,219.5C 174.85,221.435 174.517,223.435 174.5,225.5C 174.5,226.167 174.5,226.833 174.5,227.5C 172.992,229.181 171.992,231.181 171.5,233.5C 170.577,234.303 169.577,234.47 168.5,234C 166.63,231.96 164.63,230.127 162.5,228.5C 162.573,226.973 161.906,225.973 160.5,225.5C 158.11,224.109 156.443,222.109 155.5,219.5C 155.5,218.167 154.833,217.5 153.5,217.5C 153.245,215.033 152.245,213.033 150.5,211.5C 150.5,211.167 150.5,210.833 150.5,210.5C 150.573,208.973 149.906,207.973 148.5,207.5C 147.833,206.5 147.167,205.5 146.5,204.5C 145.415,202.413 143.749,201.08 141.5,200.5C 141.167,199.5 140.5,198.833 139.5,198.5C 139.706,193.228 140.706,188.228 142.5,183.5 Z"/></g>
<g><path style="opacity:1" fill="#c0d8f1" d="M 31.5,184.5 C 32.5375,185.93 33.2041,187.597 33.5,189.5C 31.7868,188.365 31.1201,186.698 31.5,184.5 Z"/></g>
<g><path style="opacity:1" fill="#9dc2e9" d="M 131.5,190.5 C 131.5,189.167 130.833,188.5 129.5,188.5C 129.75,187.078 130.583,186.078 132,185.5C 132.78,187.387 132.613,189.054 131.5,190.5 Z"/></g>
<g><path style="opacity:1" fill="#b5d2ee" d="M 123.5,185.5 C 122.974,187.23 121.974,188.564 120.5,189.5C 120.554,187.368 121.554,186.035 123.5,185.5 Z"/></g>
<g><path style="opacity:1" fill="#9dc2e9" d="M 170.5,190.5 C 172.027,190.427 173.027,191.094 173.5,192.5C 171.973,192.573 170.973,191.906 170.5,190.5 Z"/></g>
<g><path style="opacity:1" fill="#7bace2" d="M 129.5,188.5 C 130.833,188.5 131.5,189.167 131.5,190.5C 131.795,192.735 131.461,194.735 130.5,196.5C 128.801,196.66 127.134,196.494 125.5,196C 127.666,194.322 128.999,192.155 129.5,189.5C 129.5,189.167 129.5,188.833 129.5,188.5 Z"/></g>
<g><path style="opacity:1" fill="#accbec" d="M 153.5,189.5 C 154.906,189.973 155.573,190.973 155.5,192.5C 154.094,192.027 153.427,191.027 153.5,189.5 Z"/></g>
<g><path style="opacity:1" fill="#a7c8eb" d="M 276.5,185.5 C 276.241,188.272 275.241,190.605 273.5,192.5C 273.643,189.615 274.643,187.282 276.5,185.5 Z"/></g>
<g><path style="opacity:1" fill="#b4d0ee" d="M 270.5,187.5 C 270.088,189.887 269.088,191.887 267.5,193.5C 267.621,190.895 268.621,188.895 270.5,187.5 Z"/></g>
<g><path style="opacity:1" fill="#b5d1ee" d="M 49.5,192.5 C 48.713,194.104 47.3797,194.771 45.5,194.5C 46.5137,193.326 47.847,192.66 49.5,192.5 Z"/></g>
<g><path style="opacity:1" fill="#c7dcf2" d="M 120.5,189.5 C 119.575,193.272 117.575,196.272 114.5,198.5C 115.723,194.951 117.723,191.951 120.5,189.5 Z"/></g>
<g><path style="opacity:1" fill="#c7dcf2" d="M 273.5,193.5 C 273.068,194.71 272.401,195.71 271.5,196.5C 271.285,194.821 271.952,193.821 273.5,193.5 Z"/></g>
<g><path style="opacity:1" fill="#a5c7eb" d="M 33.5,190.5 C 35.4499,192.43 36.7833,194.763 37.5,197.5C 40.4056,197.043 43.0722,196.043 45.5,194.5C 43.4157,197.706 40.4157,199.039 36.5,198.5C 35.3438,195.921 34.3438,193.255 33.5,190.5 Z"/></g>
<g><path style="opacity:1" fill="#90bae6" d="M 142.5,183.5 C 140.706,188.228 139.706,193.228 139.5,198.5C 138.344,193.956 138.511,189.289 140,184.5C 140.671,183.748 141.504,183.414 142.5,183.5 Z"/></g>
<g><path style="opacity:1" fill="#b4d1ee" d="M 267.5,194.5 C 267.34,196.153 266.674,197.486 265.5,198.5C 265.229,196.62 265.896,195.287 267.5,194.5 Z"/></g>
<g><path style="opacity:1" fill="#a3c6ea" d="M 129.5,189.5 C 128.999,192.155 127.666,194.322 125.5,196C 127.134,196.494 128.801,196.66 130.5,196.5C 128.474,198.502 126.141,198.836 123.5,197.5C 125.235,194.459 127.235,191.792 129.5,189.5 Z"/></g>
<g><path style="opacity:1" fill="#c4dbf2" d="M 49.5,204.5 C 49.6567,203.127 49.49,201.793 49,200.5C 48.3292,201.252 47.4959,201.586 46.5,201.5C 47.287,199.896 48.6203,199.229 50.5,199.5C 50.7845,201.415 50.4511,203.081 49.5,204.5 Z"/></g>
<g><path style="opacity:1" fill="#a1c5ea" d="M 141.5,200.5 C 143.749,201.08 145.415,202.413 146.5,204.5C 144.251,203.92 142.585,202.587 141.5,200.5 Z"/></g>
<g><path style="opacity:1" fill="#b9d3ef" d="M 195.5,198.5 C 200.777,198.775 205.777,199.775 210.5,201.5C 205.064,201.396 200.064,200.396 195.5,198.5 Z"/></g>
<g><path style="opacity:1" fill="#a7c8eb" d="M 270.5,198.5 C 270.245,200.967 269.245,202.967 267.5,204.5C 267.755,202.033 268.755,200.033 270.5,198.5 Z"/></g>
<g><path style="opacity:1" fill="#7cade2" d="M 49.5,204.5 C 48.5,204.833 47.8333,205.5 47.5,206.5C 46.0937,206.973 45.427,207.973 45.5,209.5C 44.5084,209.672 43.8417,209.338 43.5,208.5C 43.2525,206.142 43.9192,204.142 45.5,202.5C 45.5,201.833 45.8333,201.5 46.5,201.5C 47.4959,201.586 48.3292,201.252 49,200.5C 49.49,201.793 49.6567,203.127 49.5,204.5 Z"/></g>
<g><path style="opacity:1" fill="#abcbec" d="M 98.5,202.5 C 97.0697,203.537 95.403,204.204 93.5,204.5C 94.6354,202.787 96.302,202.12 98.5,202.5 Z"/></g>
<g><path style="opacity:1" fill="#b5d1ee" d="M 134.5,203.5 C 131.482,203.704 128.482,204.037 125.5,204.5C 126.946,203.06 128.779,202.393 131,202.5C 132.385,202.514 133.551,202.848 134.5,203.5 Z"/></g>
<g><path style="opacity:1" fill="#70a5e0" d="M 134.5,203.5 C 135.5,205.167 136.833,206.5 138.5,207.5C 138.525,210.179 139.858,211.512 142.5,211.5C 142.622,215.746 144.289,219.079 147.5,221.5C 152.462,227.797 157.795,233.797 163.5,239.5C 163.67,240.822 163.337,241.989 162.5,243C 157.857,243.83 153.19,244.497 148.5,245C 147.944,245.383 147.611,245.883 147.5,246.5C 147.5,247.167 147.5,247.833 147.5,248.5C 145.643,250.282 144.643,252.615 144.5,255.5C 144.385,257.947 143.385,259.947 141.5,261.5C 139.247,262.743 137.247,264.41 135.5,266.5C 133.604,267.466 131.604,267.799 129.5,267.5C 123.717,266.638 118.05,265.304 112.5,263.5C 109.869,260.663 106.535,259.33 102.5,259.5C 100.483,258.471 98.4832,257.471 96.5,256.5C 94.8333,255.833 93.1667,255.167 91.5,254.5C 91.0269,253.094 90.0269,252.427 88.5,252.5C 88.0269,251.094 87.0269,250.427 85.5,250.5C 84.8333,250.167 84.1667,249.833 83.5,249.5C 83.8333,248.167 84.1667,246.833 84.5,245.5C 85.9744,244.564 86.9744,243.23 87.5,241.5C 89.1042,240.713 89.7709,239.38 89.5,237.5C 89.8333,237.5 90.1667,237.5 90.5,237.5C 94.8052,232.859 99.1386,228.193 103.5,223.5C 105.89,222.109 107.557,220.109 108.5,217.5C 110.262,216.738 111.262,215.404 111.5,213.5C 113.262,212.738 114.262,211.404 114.5,209.5C 115.906,209.027 116.573,208.027 116.5,206.5C 119.152,206.59 121.485,205.924 123.5,204.5C 124.167,204.5 124.833,204.5 125.5,204.5C 128.482,204.037 131.482,203.704 134.5,203.5 Z"/></g>
<g><path style="opacity:1" fill="#d0e2f4" d="M 134.5,203.5 C 136.749,204.08 138.415,205.413 139.5,207.5C 139.167,207.5 138.833,207.5 138.5,207.5C 136.833,206.5 135.5,205.167 134.5,203.5 Z"/></g>
<g><path style="opacity:1" fill="#92bbe7" d="M 217.5,202.5 C 227.498,203.574 237.498,204.574 247.5,205.5C 237.282,207.119 227.282,206.119 217.5,202.5 Z"/></g>
<g><path style="opacity:1" fill="#b5d1ef" d="M 263.5,201.5 C 263.573,203.027 262.906,204.027 261.5,204.5C 261.427,202.973 262.094,201.973 263.5,201.5 Z"/></g>
<g><path style="opacity:1" fill="#b1ceed" d="M 45.5,202.5 C 43.9192,204.142 43.2525,206.142 43.5,208.5C 42.3871,207.054 42.2204,205.387 43,203.5C 43.6708,202.748 44.5041,202.414 45.5,202.5 Z"/></g>
<g><path style="opacity:1" fill="#a8c9eb" d="M 123.5,204.5 C 121.485,205.924 119.152,206.59 116.5,206.5C 118.515,205.076 120.848,204.41 123.5,204.5 Z"/></g>
<g><path style="opacity:1" fill="#c4dbf2" d="M 47.5,206.5 C 47.573,208.027 46.9063,209.027 45.5,209.5C 45.427,207.973 46.0937,206.973 47.5,206.5 Z"/></g>
<g><path style="opacity:1" fill="#afceed" d="M 116.5,206.5 C 116.573,208.027 115.906,209.027 114.5,209.5C 114.427,207.973 115.094,206.973 116.5,206.5 Z"/></g>
<g><path style="opacity:1" fill="#a5c7eb" d="M 216.5,209.5 C 213.272,209.701 210.105,209.367 207,208.5C 205.97,208.836 205.47,209.503 205.5,210.5C 198.983,210.059 192.983,208.226 187.5,205C 188.167,204.833 188.833,204.667 189.5,204.5C 198.574,206.365 207.574,208.032 216.5,209.5 Z"/></g>
<g><path style="opacity:1" fill="#aecced" d="M 102.5,213.5 C 102.539,212.417 102.873,211.417 103.5,210.5C 102.675,209.614 101.675,209.281 100.5,209.5C 102.201,207.577 104.201,207.243 106.5,208.5C 105.388,210.419 104.054,212.086 102.5,213.5 Z"/></g>
<g><path style="opacity:1" fill="#9dc1e9" d="M 267.5,204.5 C 267.408,206.848 266.408,208.514 264.5,209.5C 264.75,207.326 265.75,205.659 267.5,204.5 Z"/></g>
<g><path style="opacity:1" fill="#b0ceed" d="M 56.5,206.5 C 55.2141,209.117 53.5475,211.45 51.5,213.5C 52.0102,210.326 53.6769,207.992 56.5,206.5 Z"/></g>
<g><path style="opacity:1" fill="#c1d8f1" d="M 148.5,207.5 C 149.906,207.973 150.573,208.973 150.5,210.5C 149.094,210.027 148.427,209.027 148.5,207.5 Z"/></g>
<g><path style="opacity:1" fill="#dce9f7" d="M 92.5,204.5 C 89.3542,206.922 86.3542,209.588 83.5,212.5C 83.5,211.833 83.5,211.167 83.5,210.5C 85.2474,206.782 88.2474,204.782 92.5,204.5 Z"/></g>
<g><path style="opacity:1" fill="#b5d1ef" d="M 83.5,210.5 C 83.5,211.167 83.5,211.833 83.5,212.5C 82.8333,212.833 82.1667,213.167 81.5,213.5C 81.427,211.973 82.0937,210.973 83.5,210.5 Z"/></g>
<g><path style="opacity:1" fill="#c1d9f1" d="M 94.5,211.5 C 93.3285,212.345 91.9952,213.011 90.5,213.5C 91.1834,211.824 92.5168,211.157 94.5,211.5 Z"/></g>
<g><path style="opacity:1" fill="#76a9e1" d="M 100.5,209.5 C 101.675,209.281 102.675,209.614 103.5,210.5C 102.873,211.417 102.539,212.417 102.5,213.5C 100.856,213.81 99.8564,214.81 99.5,216.5C 98.1667,217.167 97.1667,218.167 96.5,219.5C 95.0937,219.973 94.427,220.973 94.5,222.5C 93.8333,222.5 93.5,222.833 93.5,223.5C 91.9731,223.427 90.9731,224.094 90.5,225.5C 88.7376,226.262 87.7376,227.596 87.5,229.5C 85.5544,230.035 84.5544,231.368 84.5,233.5C 82.5544,234.035 81.5544,235.368 81.5,237.5C 79.8372,239.373 78.1706,241.373 76.5,243.5C 75.5481,241.955 75.2148,240.288 75.5,238.5C 77.1782,234.136 79.1782,229.803 81.5,225.5C 83.2624,224.738 84.2624,223.404 84.5,221.5C 86.5869,220.415 87.9202,218.749 88.5,216.5C 89.9063,216.027 90.573,215.027 90.5,213.5C 91.9952,213.011 93.3285,212.345 94.5,211.5C 96.5786,211.029 98.5786,210.363 100.5,209.5 Z"/></g>
<g><path style="opacity:1" fill="#a5c7ea" d="M 114.5,209.5 C 114.262,211.404 113.262,212.738 111.5,213.5C 111.738,211.596 112.738,210.262 114.5,209.5 Z"/></g>
<g><path style="opacity:1" fill="#acccec" d="M 264.5,209.5 C 264.25,211.674 263.25,213.341 261.5,214.5C 261.75,212.326 262.75,210.659 264.5,209.5 Z"/></g>
<g><path style="opacity:1" fill="#a2c5ea" d="M 175.5,207.5 C 177.751,211.233 178.084,215.233 176.5,219.5C 176.167,219.5 175.833,219.5 175.5,219.5C 175.5,215.5 175.5,211.5 175.5,207.5 Z"/></g>
<g><path style="opacity:1" fill="#c3daf2" d="M 186.5,212.5 C 185.1,213.1 184.1,214.1 183.5,215.5C 183.5,214.167 183.5,212.833 183.5,211.5C 184.791,211.263 185.791,211.596 186.5,212.5 Z"/></g>
<g><path style="opacity:1" fill="#78aae1" d="M 216.5,209.5 C 218.379,210.341 220.379,210.675 222.5,210.5C 226.542,212.237 230.876,213.237 235.5,213.5C 238.833,213.5 242.167,213.5 245.5,213.5C 249.042,213.187 252.375,213.521 255.5,214.5C 255.167,215.167 254.833,215.833 254.5,216.5C 251.444,218.949 249.111,221.949 247.5,225.5C 246.833,225.5 246.5,225.833 246.5,226.5C 244.708,226.634 243.042,226.301 241.5,225.5C 238.083,222.745 234.417,220.412 230.5,218.5C 229.07,217.463 227.403,216.796 225.5,216.5C 218.816,214.496 212.149,212.496 205.5,210.5C 205.47,209.503 205.97,208.836 207,208.5C 210.105,209.367 213.272,209.701 216.5,209.5 Z"/></g>
<g><path style="opacity:1" fill="#c9ddf3" d="M 222.5,210.5 C 226.163,210.952 229.83,211.452 233.5,212C 234.416,212.278 235.082,212.778 235.5,213.5C 230.876,213.237 226.542,212.237 222.5,210.5 Z"/></g>
<g><path style="opacity:1" fill="#c4daf2" d="M 245.5,213.5 C 249.019,212.192 252.685,212.192 256.5,213.5C 256.376,214.107 256.043,214.44 255.5,214.5C 252.375,213.521 249.042,213.187 245.5,213.5 Z"/></g>
<g><path style="opacity:1" fill="#abcbec" d="M 90.5,213.5 C 90.573,215.027 89.9063,216.027 88.5,216.5C 88.427,214.973 89.0937,213.973 90.5,213.5 Z"/></g>
<g><path style="opacity:1" fill="#71a6e0" d="M 186.5,212.5 C 190.057,214.854 194.057,216.187 198.5,216.5C 201.969,216.547 205.302,217.213 208.5,218.5C 211.008,220.554 214.008,221.554 217.5,221.5C 219.153,221.66 220.486,222.326 221.5,223.5C 223.657,224.407 225.99,225.073 228.5,225.5C 231.76,227.69 235.093,229.69 238.5,231.5C 238.649,232.552 238.483,233.552 238,234.5C 234.397,237.186 231.231,240.186 228.5,243.5C 226.973,243.427 225.973,244.094 225.5,245.5C 223.973,245.427 222.973,246.094 222.5,247.5C 220.973,247.427 219.973,248.094 219.5,249.5C 216.594,250.108 214.26,251.441 212.5,253.5C 210.973,253.427 209.973,254.094 209.5,255.5C 207.02,256.242 204.687,257.242 202.5,258.5C 199.904,259.265 197.237,259.599 194.5,259.5C 190.424,259.436 187.424,257.769 185.5,254.5C 185.573,252.973 184.906,251.973 183.5,251.5C 181.984,247.458 179.818,243.791 177,240.5C 176.421,239.072 176.588,237.738 177.5,236.5C 179.446,235.965 180.446,234.632 180.5,232.5C 180.5,232.167 180.5,231.833 180.5,231.5C 182.213,230.365 182.88,228.698 182.5,226.5C 182.401,223.763 182.735,221.096 183.5,218.5C 183.5,217.5 183.5,216.5 183.5,215.5C 184.1,214.1 185.1,213.1 186.5,212.5 Z"/></g>
<g><path style="opacity:1" fill="#bbd5f0" d="M 186.5,212.5 C 190.167,213.167 193.833,213.833 197.5,214.5C 197.833,215.167 198.167,215.833 198.5,216.5C 194.057,216.187 190.057,214.854 186.5,212.5 Z"/></g>
<g><path style="opacity:1" fill="#bfd7f1" d="M 102.5,213.5 C 102.144,215.19 101.144,216.19 99.5,216.5C 99.8564,214.81 100.856,213.81 102.5,213.5 Z"/></g>
<g><path style="opacity:1" fill="#a0c4ea" d="M 111.5,213.5 C 111.262,215.404 110.262,216.738 108.5,217.5C 108.738,215.596 109.738,214.262 111.5,213.5 Z"/></g>
<g><path style="opacity:1" fill="#deebf7" d="M 197.5,214.5 C 202.228,214.886 206.561,216.219 210.5,218.5C 209.833,218.5 209.167,218.5 208.5,218.5C 205.302,217.213 201.969,216.547 198.5,216.5C 198.167,215.833 197.833,215.167 197.5,214.5 Z"/></g>
<g><path style="opacity:1" fill="#cfe1f4" d="M 150.5,211.5 C 152.245,213.033 153.245,215.033 153.5,217.5C 151.755,215.967 150.755,213.967 150.5,211.5 Z"/></g>
<g><path style="opacity:1" fill="#d0e2f4" d="M 81.5,213.5 C 80.6472,217.02 78.6472,219.687 75.5,221.5C 77.1223,218.545 79.1223,215.878 81.5,213.5 Z"/></g>
<g><path style="opacity:1" fill="#8bb6e5" d="M 138.5,207.5 C 138.833,207.5 139.167,207.5 139.5,207.5C 143.46,211.327 146.126,215.994 147.5,221.5C 144.289,219.079 142.622,215.746 142.5,211.5C 139.858,211.512 138.525,210.179 138.5,207.5 Z"/></g>
<g><path style="opacity:1" fill="#c7dcf2" d="M 225.5,216.5 C 227.403,216.796 229.07,217.463 230.5,218.5C 228.302,218.88 226.635,218.213 225.5,216.5 Z"/></g>
<g><path style="opacity:1" fill="#c2d9f1" d="M 99.5,216.5 C 99.5,218.5 98.5,219.5 96.5,219.5C 97.1667,218.167 98.1667,217.167 99.5,216.5 Z"/></g>
<g><path style="opacity:1" fill="#a8c9eb" d="M 153.5,217.5 C 154.833,217.5 155.5,218.167 155.5,219.5C 154.167,219.5 153.5,218.833 153.5,217.5 Z"/></g>
<g><path style="opacity:1" fill="#cadef3" d="M 51.5,213.5 C 50.4891,215.402 50.3224,217.402 51,219.5C 52.8022,220.789 53.9688,222.456 54.5,224.5C 49.3536,221.671 48.3536,218.004 51.5,213.5 Z"/></g>
<g><path style="opacity:1" fill="#a4c7eb" d="M 88.5,216.5 C 87.9202,218.749 86.5869,220.415 84.5,221.5C 85.0798,219.251 86.4131,217.585 88.5,216.5 Z"/></g>
<g><path style="opacity:1" fill="#c1d9f1" d="M 96.5,219.5 C 96.573,221.027 95.9063,222.027 94.5,222.5C 94.427,220.973 95.0937,219.973 96.5,219.5 Z"/></g>
<g><path style="opacity:1" fill="#9dc2e9" d="M 208.5,218.5 C 209.167,218.5 209.833,218.5 210.5,218.5C 212.888,219.349 215.221,220.349 217.5,221.5C 214.008,221.554 211.008,220.554 208.5,218.5 Z"/></g>
<g><path style="opacity:1" fill="#91bae6" d="M 261.5,214.5 C 260.947,218.539 258.947,221.539 255.5,223.5C 257.115,220.223 259.115,217.223 261.5,214.5 Z"/></g>
<g><path style="opacity:1" fill="#adccec" d="M 108.5,217.5 C 107.557,220.109 105.89,222.109 103.5,223.5C 104.473,220.865 106.14,218.865 108.5,217.5 Z"/></g>
<g><path style="opacity:1" fill="#d2e3f5" d="M 254.5,216.5 C 253.306,220.363 250.973,223.363 247.5,225.5C 249.111,221.949 251.444,218.949 254.5,216.5 Z"/></g>
<g><path style="opacity:1" fill="#a4c7eb" d="M 84.5,221.5 C 84.2624,223.404 83.2624,224.738 81.5,225.5C 81.7376,223.596 82.7376,222.262 84.5,221.5 Z"/></g>
<g><path style="opacity:1" fill="#c4daf2" d="M 93.5,223.5 C 93.0269,224.906 92.0269,225.573 90.5,225.5C 90.9731,224.094 91.9731,223.427 93.5,223.5 Z"/></g>
<g><path style="opacity:1" fill="#d0e2f4" d="M 175.5,219.5 C 175.833,219.5 176.167,219.5 176.5,219.5C 176.741,221.898 176.074,223.898 174.5,225.5C 174.517,223.435 174.85,221.435 175.5,219.5 Z"/></g>
<g><path style="opacity:1" fill="#b7d2ef" d="M 221.5,223.5 C 223.527,223.338 225.527,223.505 227.5,224C 228.056,224.383 228.389,224.883 228.5,225.5C 225.99,225.073 223.657,224.407 221.5,223.5 Z"/></g>
<g><path style="opacity:1" fill="#8eb9e6" d="M 46.5,222.5 C 49.1379,225.474 51.8046,228.474 54.5,231.5C 50.4351,229.767 47.7684,226.767 46.5,222.5 Z"/></g>
<g><path style="opacity:1" fill="#bdd6f0" d="M 183.5,218.5 C 182.735,221.096 182.401,223.763 182.5,226.5C 182.167,226.5 181.833,226.5 181.5,226.5C 180.964,223.302 181.631,220.635 183.5,218.5 Z"/></g>
<g><path style="opacity:1" fill="#b8d3ef" d="M 160.5,225.5 C 161.906,225.973 162.573,226.973 162.5,228.5C 161.094,228.027 160.427,227.027 160.5,225.5 Z"/></g>
<g><path style="opacity:1" fill="#bad4ef" d="M 241.5,225.5 C 243.042,226.301 244.708,226.634 246.5,226.5C 245.903,227.139 245.07,227.472 244,227.5C 242.624,227.316 241.791,226.649 241.5,225.5 Z"/></g>
<g><path style="opacity:1" fill="#a6c7eb" d="M 255.5,223.5 C 254.219,226.447 252.219,228.781 249.5,230.5C 250.81,227.527 252.81,225.193 255.5,223.5 Z"/></g>
<g><path style="opacity:1" fill="#c6dcf2" d="M 90.5,225.5 C 90.2624,227.404 89.2624,228.738 87.5,229.5C 87.7376,227.596 88.7376,226.262 90.5,225.5 Z"/></g>
<g><path style="opacity:1" fill="#abcbec" d="M 103.5,223.5 C 99.1386,228.193 94.8052,232.859 90.5,237.5C 93.4481,231.552 97.7815,226.885 103.5,223.5 Z"/></g>
<g><path style="opacity:1" fill="#98bfe8" d="M 181.5,226.5 C 181.833,226.5 182.167,226.5 182.5,226.5C 182.88,228.698 182.213,230.365 180.5,231.5C 180.366,229.708 180.699,228.042 181.5,226.5 Z"/></g>
<g><path style="opacity:1" fill="#c3daf1" d="M 81.5,225.5 C 79.1782,229.803 77.1782,234.136 75.5,238.5C 75.6808,233.148 77.6808,228.814 81.5,225.5 Z"/></g>
<g><path style="opacity:1" fill="#c8ddf2" d="M 87.5,229.5 C 86.9744,231.23 85.9744,232.564 84.5,233.5C 84.5544,231.368 85.5544,230.035 87.5,229.5 Z"/></g>
<g><path style="opacity:1" fill="#d1e2f4" d="M 174.5,227.5 C 174.975,230.313 173.975,232.313 171.5,233.5C 171.992,231.181 172.992,229.181 174.5,227.5 Z"/></g>
<g><path style="opacity:1" fill="#cbdff3" d="M 71.5,228.5 C 71.6621,230.527 71.4955,232.527 71,234.5C 70.6174,235.056 70.1174,235.389 69.5,235.5C 69.4095,232.848 70.0762,230.515 71.5,228.5 Z"/></g>
<g><path style="opacity:1" fill="#afcded" d="M 180.5,232.5 C 180.446,234.632 179.446,235.965 177.5,236.5C 178.026,234.77 179.026,233.436 180.5,232.5 Z"/></g>
<g><path style="opacity:1" fill="#9ec2e9" d="M 246.5,233.5 C 246.5,235.5 245.5,236.5 243.5,236.5C 244.167,235.167 245.167,234.167 246.5,233.5 Z"/></g>
<g><path style="opacity:1" fill="#9ec3e9" d="M 65.5,235.5 C 66.8333,235.833 68.1667,236.167 69.5,236.5C 67.8716,237.853 66.5383,237.519 65.5,235.5 Z"/></g>
<g><path style="opacity:1" fill="#c0d8f1" d="M 84.5,233.5 C 83.9744,235.23 82.9744,236.564 81.5,237.5C 81.5544,235.368 82.5544,234.035 84.5,233.5 Z"/></g>
<g><path style="opacity:1" fill="#a5c7eb" d="M 89.5,237.5 C 89.7709,239.38 89.1042,240.713 87.5,241.5C 87.6596,239.847 88.3263,238.514 89.5,237.5 Z"/></g>
<g><path style="opacity:1" fill="#cee0f4" d="M 238.5,231.5 C 239.598,232.601 239.765,233.934 239,235.5C 235.74,238.54 232.24,241.206 228.5,243.5C 231.231,240.186 234.397,237.186 238,234.5C 238.483,233.552 238.649,232.552 238.5,231.5 Z"/></g>
<g><path style="opacity:1" fill="#d4e4f5" d="M 163.5,239.5 C 164.451,240.919 164.784,242.585 164.5,244.5C 158.805,245.048 153.138,245.714 147.5,246.5C 147.611,245.883 147.944,245.383 148.5,245C 153.19,244.497 157.857,243.83 162.5,243C 163.337,241.989 163.67,240.822 163.5,239.5 Z"/></g>
<g><path style="opacity:1" fill="#b1ceee" d="M 87.5,241.5 C 86.9744,243.23 85.9744,244.564 84.5,245.5C 84.5544,243.368 85.5544,242.035 87.5,241.5 Z"/></g>
<g><path style="opacity:1" fill="#c7ddf3" d="M 228.5,243.5 C 228.027,244.906 227.027,245.573 225.5,245.5C 225.973,244.094 226.973,243.427 228.5,243.5 Z"/></g>
<g><path style="opacity:1" fill="#9ec3ea" d="M 239.5,240.5 C 237.477,243.52 234.81,245.854 231.5,247.5C 233.549,244.45 236.216,242.117 239.5,240.5 Z"/></g>
<g><path style="opacity:1" fill="#c1d9f1" d="M 225.5,245.5 C 225.027,246.906 224.027,247.573 222.5,247.5C 222.973,246.094 223.973,245.427 225.5,245.5 Z"/></g>
<g><path style="opacity:1" fill="#acccec" d="M 84.5,245.5 C 84.1667,246.833 83.8333,248.167 83.5,249.5C 82.1472,247.872 82.4805,246.538 84.5,245.5 Z"/></g>
<g><path style="opacity:1" fill="#73a7e0" d="M 172.5,246.5 C 172.427,248.027 173.094,249.027 174.5,249.5C 174.755,251.967 175.755,253.967 177.5,255.5C 178.338,255.842 178.672,256.508 178.5,257.5C 179.63,260.137 179.63,262.803 178.5,265.5C 177.01,267.28 175.01,267.946 172.5,267.5C 170.139,267.674 167.806,268.007 165.5,268.5C 165.5,266.5 165.5,264.5 165.5,262.5C 165.5,261.833 165.5,261.167 165.5,260.5C 166.834,255.878 168.168,251.212 169.5,246.5C 170.5,245.167 171.5,245.167 172.5,246.5 Z"/></g>
<g><path style="opacity:1" fill="#a1c5ea" d="M 172.5,246.5 C 173.906,246.973 174.573,247.973 174.5,249.5C 173.094,249.027 172.427,248.027 172.5,246.5 Z"/></g>
<g><path style="opacity:1" fill="#bcd6f0" d="M 222.5,247.5 C 222.027,248.906 221.027,249.573 219.5,249.5C 219.973,248.094 220.973,247.427 222.5,247.5 Z"/></g>
<g><path style="opacity:1" fill="#9fc3e9" d="M 85.5,250.5 C 87.0269,250.427 88.0269,251.094 88.5,252.5C 86.9731,252.573 85.9731,251.906 85.5,250.5 Z"/></g>
<g><path style="opacity:1" fill="#b5d1ee" d="M 228.5,249.5 C 226.853,251.326 224.853,252.66 222.5,253.5C 223.802,251.178 225.802,249.845 228.5,249.5 Z"/></g>
<g><path style="opacity:1" fill="#9cc1e9" d="M 219.5,249.5 C 217.65,251.572 215.317,252.905 212.5,253.5C 214.26,251.441 216.594,250.108 219.5,249.5 Z"/></g>
<g><path style="opacity:1" fill="#91bbe7" d="M 153.5,252.5 C 155.265,251.539 157.265,251.205 159.5,251.5C 159.5,253.5 159.5,255.5 159.5,257.5C 159.167,257.5 158.833,257.5 158.5,257.5C 158.5,255.833 158.5,254.167 158.5,252.5C 156.833,252.5 155.167,252.5 153.5,252.5 Z"/></g>
<g><path style="opacity:1" fill="#b2cfee" d="M 88.5,252.5 C 90.0269,252.427 91.0269,253.094 91.5,254.5C 89.9731,254.573 88.9731,253.906 88.5,252.5 Z"/></g>
<g><path style="opacity:1" fill="#71a6e0" d="M 153.5,252.5 C 155.167,252.5 156.833,252.5 158.5,252.5C 158.5,254.167 158.5,255.833 158.5,257.5C 157.518,260.962 157.185,264.629 157.5,268.5C 153.351,269.08 149.684,268.414 146.5,266.5C 151.002,264.852 153.002,261.518 152.5,256.5C 152.433,255.041 152.766,253.708 153.5,252.5 Z"/></g>
<g><path style="opacity:1" fill="#9ec3e9" d="M 174.5,249.5 C 176.245,251.033 177.245,253.033 177.5,255.5C 175.755,253.967 174.755,251.967 174.5,249.5 Z"/></g>
<g><path style="opacity:1" fill="#c1d9f1" d="M 183.5,251.5 C 184.906,251.973 185.573,252.973 185.5,254.5C 184.094,254.027 183.427,253.027 183.5,251.5 Z"/></g>
<g><path style="opacity:1" fill="#bad4ef" d="M 147.5,248.5 C 147.241,251.272 146.241,253.605 144.5,255.5C 144.643,252.615 145.643,250.282 147.5,248.5 Z"/></g>
<g><path style="opacity:1" fill="#c2d9f1" d="M 212.5,253.5 C 212.027,254.906 211.027,255.573 209.5,255.5C 209.973,254.094 210.973,253.427 212.5,253.5 Z"/></g>
<g><path style="opacity:1" fill="#a5c7eb" d="M 222.5,253.5 C 222.027,254.906 221.027,255.573 219.5,255.5C 219.973,254.094 220.973,253.427 222.5,253.5 Z"/></g>
<g><path style="opacity:1" fill="#b2cfee" d="M 169.5,246.5 C 168.168,251.212 166.834,255.878 165.5,260.5C 165.999,256.51 166.499,252.51 167,248.5C 167.708,247.619 168.542,246.953 169.5,246.5 Z"/></g>
<g><path style="opacity:1" fill="#cde0f3" d="M 96.5,256.5 C 98.4832,257.471 100.483,258.471 102.5,259.5C 102.5,259.833 102.5,260.167 102.5,260.5C 99.8021,260.155 97.8021,258.822 96.5,256.5 Z"/></g>
<g><path style="opacity:1" fill="#c2d9f1" d="M 202.5,258.5 C 201.508,260.026 200.008,260.693 198,260.5C 196.615,260.486 195.449,260.152 194.5,259.5C 197.237,259.599 199.904,259.265 202.5,258.5 Z"/></g>
<g><path style="opacity:1" fill="#c0d8f1" d="M 91.5,259.5 C 93.0269,259.427 94.0269,260.094 94.5,261.5C 92.9731,261.573 91.9731,260.906 91.5,259.5 Z"/></g>
<g><path style="opacity:1" fill="#9bc0e8" d="M 102.5,260.5 C 102.5,260.167 102.5,259.833 102.5,259.5C 106.535,259.33 109.869,260.663 112.5,263.5C 109.183,262.512 105.849,261.512 102.5,260.5 Z"/></g>
<g><path style="opacity:1" fill="#c3daf1" d="M 95.5,261.5 C 97.9674,261.755 99.9674,262.755 101.5,264.5C 99.0326,264.245 97.0326,263.245 95.5,261.5 Z"/></g>
<g><path style="opacity:1" fill="#8ab6e5" d="M 152.5,256.5 C 153.002,261.518 151.002,264.852 146.5,266.5C 149.17,263.5 151.17,260.167 152.5,256.5 Z"/></g>
<g><path style="opacity:1" fill="#b8d3ef" d="M 178.5,257.5 C 179.993,258.312 180.66,259.645 180.5,261.5C 180.66,263.355 179.993,264.688 178.5,265.5C 179.63,262.803 179.63,260.137 178.5,257.5 Z"/></g>
<g><path style="opacity:1" fill="#b6d2ee" d="M 213.5,258.5 C 207.42,262.645 200.754,265.645 193.5,267.5C 199.876,264.14 206.542,261.14 213.5,258.5 Z"/></g>
<g><path style="opacity:1" fill="#d7e6f6" d="M 141.5,261.5 C 140.026,264.249 138.026,266.582 135.5,268.5C 132.952,270.185 130.952,269.852 129.5,267.5C 131.604,267.799 133.604,267.466 135.5,266.5C 137.247,264.41 139.247,262.743 141.5,261.5 Z"/></g>
<g><path style="opacity:1" fill="#b6d2ee" d="M 158.5,257.5 C 158.833,257.5 159.167,257.5 159.5,257.5C 159.192,261.36 158.525,265.026 157.5,268.5C 157.185,264.629 157.518,260.962 158.5,257.5 Z"/></g>
<g><path style="opacity:1" fill="#92bae6" d="M 102.5,264.5 C 106.147,266.756 110.147,268.089 114.5,268.5C 114.5,268.833 114.5,269.167 114.5,269.5C 109.54,269.719 105.54,268.052 102.5,264.5 Z"/></g>
<g><path style="opacity:1" fill="#9bc1e9" d="M 146.5,266.5 C 149.684,268.414 153.351,269.08 157.5,268.5C 157.5,269.167 157.167,269.5 156.5,269.5C 152.029,270.089 148.029,269.423 144.5,267.5C 145.167,267.167 145.833,266.833 146.5,266.5 Z"/></g>
<g><path style="opacity:1" fill="#cce0f3" d="M 165.5,262.5 C 165.5,264.5 165.5,266.5 165.5,268.5C 167.806,268.007 170.139,267.674 172.5,267.5C 169.829,269.118 166.829,269.785 163.5,269.5C 162.99,266.612 163.656,264.279 165.5,262.5 Z"/></g>
<g><path style="opacity:1" fill="#cadef3" d="M 114.5,269.5 C 114.5,269.167 114.5,268.833 114.5,268.5C 116.698,268.12 118.365,268.787 119.5,270.5C 117.708,270.634 116.042,270.301 114.5,269.5 Z"/></g>
<g><path style="opacity:1" fill="#d3e4f5" d="M 144.5,267.5 C 148.029,269.423 152.029,270.089 156.5,269.5C 152.366,270.485 148.032,270.818 143.5,270.5C 143.263,269.209 143.596,268.209 144.5,267.5 Z"/></g>
<g><path style="opacity:1" fill="#c3daf1" d="M 191.5,267.5 C 191.389,268.117 191.056,268.617 190.5,269C 188.134,269.44 185.801,269.94 183.5,270.5C 183.611,269.883 183.944,269.383 184.5,269C 186.866,268.56 189.199,268.06 191.5,267.5 Z"/></g>
<g><path style="opacity:1" fill="#c8ddf2" d="M 124.5,271.5 C 127.187,271.336 129.854,271.503 132.5,272C 133.056,272.383 133.389,272.883 133.5,273.5C 130.273,273.324 127.273,272.657 124.5,271.5 Z"/></g>
<g><path style="opacity:1" fill="#c0d8f0" d="M 178.5,271.5 C 178.158,272.338 177.492,272.672 176.5,272.5C 173.833,272.833 171.167,273.167 168.5,273.5C 168.918,272.778 169.584,272.278 170.5,272C 173.146,271.503 175.813,271.336 178.5,271.5 Z"/></g>
<g><path style="opacity:1" fill="#90bae6" d="M 176.5,272.5 C 176.082,273.222 175.416,273.722 174.5,274C 161.693,275.635 149.026,275.801 136.5,274.5C 147.177,274.433 157.844,274.099 168.5,273.5C 171.167,273.167 173.833,272.833 176.5,272.5 Z"/></g>
</svg>
