<?xml version="1.0" encoding="UTF-8"?>
<!DOCTYPE svg PUBLIC "-//W3C//DTD SVG 1.1//EN" "http://www.w3.org/Graphics/SVG/1.1/DTD/svg11.dtd">
<svg xmlns="http://www.w3.org/2000/svg" version="1.1" width="524px" height="160px" style="shape-rendering:geometricPrecision; text-rendering:geometricPrecision; image-rendering:optimizeQuality; fill-rule:evenodd; clip-rule:evenodd" xmlns:xlink="http://www.w3.org/1999/xlink">
<g><path style="opacity:1" fill="#fdfdfd" d="M -0.5,-0.5 C 174.167,-0.5 348.833,-0.5 523.5,-0.5C 523.5,52.8333 523.5,106.167 523.5,159.5C 348.833,159.5 174.167,159.5 -0.5,159.5C -0.5,106.167 -0.5,52.8333 -0.5,-0.5 Z"/></g>
<g><path style="opacity:1" fill="#292c31" d="M 92.5,27.5 C 92.5,30.1667 92.5,32.8333 92.5,35.5C 91.209,35.2627 90.209,35.596 89.5,36.5C 69.8668,38.9652 57.0334,49.6318 51,68.5C 47.608,91.4167 56.108,108.25 76.5,119C 81.6557,120.962 86.989,121.795 92.5,121.5C 92.5,124.5 92.5,127.5 92.5,130.5C 68.8333,130.5 45.1667,130.5 21.5,130.5C 21.5,96.1667 21.5,61.8333 21.5,27.5C 45.1667,27.5 68.8333,27.5 92.5,27.5 Z"/></g>
<g><path style="opacity:1" fill="#c0c1c3" d="M 92.5,27.5 C 93.4731,29.9479 93.8064,32.6146 93.5,35.5C 95.4147,35.2155 97.0813,35.5489 98.5,36.5C 96.5,36.5 94.5,36.5 92.5,36.5C 91.5,36.5 90.5,36.5 89.5,36.5C 90.209,35.596 91.209,35.2627 92.5,35.5C 92.5,32.8333 92.5,30.1667 92.5,27.5 Z"/></g>
<g><path style="opacity:1" fill="#2e3136" d="M 178.5,27.5 C 186.174,27.3336 193.841,27.5003 201.5,28C 208.948,31.7177 210.448,37.2177 206,44.5C 204.581,45.4601 203.081,46.2935 201.5,47C 210.723,50.0965 212.889,55.9298 208,64.5C 206.421,66.0412 204.587,67.2078 202.5,68C 194.507,68.4997 186.507,68.6664 178.5,68.5C 178.5,54.8333 178.5,41.1667 178.5,27.5 Z"/></g>
<g><path style="opacity:1" fill="#282c30" d="M 213.5,27.5 C 214.5,27.5 215.5,27.5 216.5,27.5C 216.5,41.1667 216.5,54.8333 216.5,68.5C 215.5,68.5 214.5,68.5 213.5,68.5C 213.5,54.8333 213.5,41.1667 213.5,27.5 Z"/></g>
<g><path style="opacity:1" fill="#383a3f" d="M 274.5,27.5 C 275.833,27.5 277.167,27.5 278.5,27.5C 278.334,35.84 278.5,44.1733 279,52.5C 284.167,48 289.333,43.5 294.5,39C 296.167,38.3333 297.833,38.3333 299.5,39C 295.019,42.3143 291.019,46.1476 287.5,50.5C 291.5,56.1667 295.5,61.8333 299.5,67.5C 298.277,68.6139 296.944,68.7805 295.5,68C 291.667,62.8333 287.833,57.6667 284,52.5C 279.124,56.5992 277.291,61.9325 278.5,68.5C 277.167,68.5 275.833,68.5 274.5,68.5C 274.5,54.8333 274.5,41.1667 274.5,27.5 Z"/></g>
<g><path style="opacity:1" fill="#303338" d="M 371.5,27.5 C 372.5,27.5 373.5,27.5 374.5,27.5C 374.334,36.1731 374.5,44.8397 375,53.5C 380.262,48.7826 385.429,43.9493 390.5,39C 392.167,38.3333 393.833,38.3333 395.5,39C 391.5,42.6667 387.5,46.3333 383.5,50C 387.588,56.1767 391.922,62.1767 396.5,68C 394.741,68.7975 393.074,68.6309 391.5,67.5C 388.078,62.3224 384.411,57.3224 380.5,52.5C 374.906,56.3091 372.906,61.6424 374.5,68.5C 373.5,68.5 372.5,68.5 371.5,68.5C 371.5,54.8333 371.5,41.1667 371.5,27.5 Z"/></g>
<g><path style="opacity:1" fill="#c1c2c3" d="M 198.5,31.5 C 193.167,31.5 187.833,31.5 182.5,31.5C 182.5,36.1667 182.5,40.8333 182.5,45.5C 181.513,40.6946 181.179,35.6946 181.5,30.5C 187.358,30.1778 193.025,30.5111 198.5,31.5 Z"/></g>
<g><path style="opacity:1" fill="#fdfdfd" d="M 198.5,31.5 C 204.095,32.5601 205.929,35.8935 204,41.5C 203.167,42.3333 202.333,43.1667 201.5,44C 195.258,45.3696 188.925,45.8696 182.5,45.5C 182.5,40.8333 182.5,36.1667 182.5,31.5C 187.833,31.5 193.167,31.5 198.5,31.5 Z"/></g>
<g><path style="opacity:1" fill="#fdfdfd" d="M 89.5,36.5 C 90.5,36.5 91.5,36.5 92.5,36.5C 92.5,64.8333 92.5,93.1667 92.5,121.5C 86.989,121.795 81.6557,120.962 76.5,119C 56.108,108.25 47.608,91.4167 51,68.5C 57.0334,49.6318 69.8668,38.9652 89.5,36.5 Z"/></g>
<g><path style="opacity:1" fill="#2a2d32" d="M 92.5,36.5 C 94.5,36.5 96.5,36.5 98.5,36.5C 120.839,41.3089 133.172,55.1422 135.5,78C 133.313,104.687 118.979,119.187 92.5,121.5C 92.5,93.1667 92.5,64.8333 92.5,36.5 Z"/></g>
<g><path style="opacity:1" fill="#35383c" d="M 226.5,38.5 C 230.182,38.3347 233.848,38.5014 237.5,39C 240.333,39.8333 242.167,41.6667 243,44.5C 243.5,51.4921 243.666,58.4921 243.5,65.5C 244.5,65.5 245.5,65.5 246.5,65.5C 246.5,66.5 246.5,67.5 246.5,68.5C 242.169,69.5489 240.003,67.8822 240,63.5C 236.268,69.0461 231.101,70.8794 224.5,69C 219.776,66.5647 218.276,62.7314 220,57.5C 220.465,56.0692 221.299,54.9025 222.5,54C 227.306,52.131 232.306,51.131 237.5,51C 240.311,47.7065 239.978,44.7065 236.5,42C 230.039,39.826 225.705,41.826 223.5,48C 222.552,48.4828 221.552,48.6495 220.5,48.5C 220.469,43.8868 222.469,40.5535 226.5,38.5 Z"/></g>
<g><path style="opacity:1" fill="#373a3f" d="M 254.5,38.5 C 263.907,36.1943 269.907,39.5276 272.5,48.5C 271.167,48.5 269.833,48.5 268.5,48.5C 266.681,41.8531 262.348,39.6864 255.5,42C 251.511,44.8129 249.844,48.6462 250.5,53.5C 250.261,64.4438 255.261,68.2771 265.5,65C 267.451,63.2658 268.451,61.0991 268.5,58.5C 269.833,58.5 271.167,58.5 272.5,58.5C 270.469,67.5287 264.802,71.0287 255.5,69C 250.664,67.1814 247.831,63.6814 247,58.5C 244.796,49.9322 247.296,43.2656 254.5,38.5 Z"/></g>
<g><path style="opacity:1" fill="#36393e" d="M 321.5,38.5 C 338.065,37.5878 344.231,45.2545 340,61.5C 336.158,68.4526 330.325,70.9526 322.5,69C 314.807,64.2703 311.974,57.437 314,48.5C 315.317,44.1633 317.817,40.8299 321.5,38.5 Z"/></g>
<g><path style="opacity:1" fill="#35383d" d="M 351.5,38.5 C 356.449,37.9589 361.116,38.7922 365.5,41C 367.202,43.2354 368.202,45.7354 368.5,48.5C 367.448,48.6495 366.448,48.4828 365.5,48C 363.136,41.9868 358.802,39.9868 352.5,42C 348.278,44.6086 346.278,48.4419 346.5,53.5C 346.553,62.3906 350.886,66.5572 359.5,66C 362.363,64.6365 364.363,62.4698 365.5,59.5C 366.325,58.6143 367.325,58.281 368.5,58.5C 366.7,67.9582 361.033,71.4582 351.5,69C 342.286,62.7723 340.119,54.6056 345,44.5C 347.063,42.2659 349.229,40.2659 351.5,38.5 Z"/></g>
<g><path style="opacity:1" fill="#626468" d="M 305.5,43.5 C 305.217,44.2891 304.717,44.9558 304,45.5C 303.808,43.4233 303.308,41.4233 302.5,39.5C 301.502,49.1437 301.168,58.8104 301.5,68.5C 300.506,58.6806 300.173,48.6806 300.5,38.5C 301.833,38.5 303.167,38.5 304.5,38.5C 304.216,40.4147 304.549,42.0813 305.5,43.5 Z"/></g>
<g><path style="opacity:1" fill="#303338" d="M 301.5,68.5 C 301.168,58.8104 301.502,49.1437 302.5,39.5C 303.308,41.4233 303.808,43.4233 304,45.5C 304.717,44.9558 305.217,44.2891 305.5,43.5C 307.935,40.0703 311.269,38.4037 315.5,38.5C 315.5,39.8333 315.5,41.1667 315.5,42.5C 310.579,42.0429 307.079,44.0429 305,48.5C 304.5,55.1583 304.334,61.825 304.5,68.5C 303.5,68.5 302.5,68.5 301.5,68.5 Z"/></g>
<g><path style="opacity:1" fill="#fbfbfb" d="M 322.5,41.5 C 329.445,39.7747 334.278,42.108 337,48.5C 339.143,56.085 336.976,61.9183 330.5,66C 324.533,67.3787 320.367,65.2121 318,59.5C 316.226,52.5231 317.726,46.5231 322.5,41.5 Z"/></g>
<g><path style="opacity:1" fill="#a3a5a7" d="M 199.5,49.5 C 193.833,49.5 188.167,49.5 182.5,49.5C 182.5,54.8333 182.5,60.1667 182.5,65.5C 181.511,60.0247 181.178,54.358 181.5,48.5C 187.69,48.1771 193.69,48.5104 199.5,49.5 Z"/></g>
<g><path style="opacity:1" fill="#fbfbfc" d="M 199.5,49.5 C 207.618,52.6867 208.618,57.52 202.5,64C 195.95,65.4204 189.284,65.9204 182.5,65.5C 182.5,60.1667 182.5,54.8333 182.5,49.5C 188.167,49.5 193.833,49.5 199.5,49.5 Z"/></g>
<g><path style="opacity:1" fill="#f4f5f5" d="M 238.5,52.5 C 240.829,62.3478 236.829,66.8478 226.5,66C 221.751,63.0301 221.418,59.6968 225.5,56C 229.897,54.6282 234.231,53.4615 238.5,52.5 Z"/></g>
<g><path style="opacity:1" fill="#a1a2a5" d="M 189.5,79.5 C 185.833,79.5 182.167,79.5 178.5,79.5C 178.5,96.5 178.5,113.5 178.5,130.5C 177.503,113.341 177.17,96.008 177.5,78.5C 181.702,78.1832 185.702,78.5166 189.5,79.5 Z"/></g>
<g><path style="opacity:1" fill="#2a2d32" d="M 189.5,79.5 C 196.264,90.7056 203.264,101.706 210.5,112.5C 211.499,102.249 211.832,91.2491 211.5,79.5C 214.833,79.5 218.167,79.5 221.5,79.5C 221.5,96.5 221.5,113.5 221.5,130.5C 217.445,130.824 213.445,130.491 209.5,129.5C 202.667,118.5 195.833,107.5 189,96.5C 188.5,107.828 188.333,119.162 188.5,130.5C 185.167,130.5 181.833,130.5 178.5,130.5C 178.5,113.5 178.5,96.5 178.5,79.5C 182.167,79.5 185.833,79.5 189.5,79.5 Z"/></g>
<g><path style="opacity:1" fill="#8b8d90" d="M 221.5,79.5 C 218.167,79.5 214.833,79.5 211.5,79.5C 211.832,91.2491 211.499,102.249 210.5,112.5C 210.5,101.167 210.5,89.8333 210.5,78.5C 214.371,78.185 218.038,78.5184 221.5,79.5 Z"/></g>
<g><path style="opacity:1" fill="#2a2d32" d="M 464.5,79.5 C 467.833,79.5 471.167,79.5 474.5,79.5C 474.334,85.8421 474.5,92.1754 475,98.5C 475.717,97.9558 476.217,97.2891 476.5,96.5C 483.236,91.2584 490.069,91.2584 497,96.5C 497.862,98.087 498.529,99.7536 499,101.5C 499.5,111.161 499.666,120.828 499.5,130.5C 496.167,130.5 492.833,130.5 489.5,130.5C 489.666,121.827 489.5,113.16 489,104.5C 486.487,100.788 482.987,99.6218 478.5,101C 476.513,102.319 475.346,104.152 475,106.5C 474.5,114.493 474.334,122.493 474.5,130.5C 471.167,130.5 467.833,130.5 464.5,130.5C 464.5,113.5 464.5,96.5 464.5,79.5 Z"/></g>
<g><path style="opacity:1" fill="#b7b7b9" d="M 464.5,79.5 C 467.962,78.5184 471.629,78.185 475.5,78.5C 475.177,84.69 475.51,90.69 476.5,96.5C 476.217,97.2891 475.717,97.9558 475,98.5C 474.5,92.1754 474.334,85.8421 474.5,79.5C 471.167,79.5 467.833,79.5 464.5,79.5 Z"/></g>
<g><path style="opacity:1" fill="#85878a" d="M 380.5,93.5 C 379.518,90.0381 379.185,86.3714 379.5,82.5C 376.5,82.5 373.5,82.5 370.5,82.5C 370.815,86.3714 370.482,90.0381 369.5,93.5C 369.5,89.5 369.5,85.5 369.5,81.5C 373.167,81.5 376.833,81.5 380.5,81.5C 380.5,85.5 380.5,89.5 380.5,93.5 Z"/></g>
<g><path style="opacity:1" fill="#2d3035" d="M 380.5,93.5 C 382.833,93.5 385.167,93.5 387.5,93.5C 387.5,95.8333 387.5,98.1667 387.5,100.5C 385.167,100.5 382.833,100.5 380.5,100.5C 380.169,107.863 380.503,115.197 381.5,122.5C 383.409,123.348 385.409,123.682 387.5,123.5C 387.5,126.167 387.5,128.833 387.5,131.5C 381.939,132.198 376.773,131.198 372,128.5C 370.887,119.09 370.053,109.757 369.5,100.5C 368.081,99.5489 366.415,99.2155 364.5,99.5C 364.5,97.5 364.5,95.5 364.5,93.5C 366.167,93.5 367.833,93.5 369.5,93.5C 370.482,90.0381 370.815,86.3714 370.5,82.5C 373.5,82.5 376.5,82.5 379.5,82.5C 379.185,86.3714 379.518,90.0381 380.5,93.5 Z"/></g>
<g><path style="opacity:1" fill="#2e3136" d="M 237.5,92.5 C 254.201,90.5393 262.201,97.8726 261.5,114.5C 252.833,114.5 244.167,114.5 235.5,114.5C 236.192,122.672 240.526,125.506 248.5,123C 251.878,120.076 255.878,118.909 260.5,119.5C 259.187,124.987 255.853,128.82 250.5,131C 230.894,133.026 222.728,124.193 226,104.5C 228.691,99.3111 232.524,95.3111 237.5,92.5 Z"/></g>
<g><path style="opacity:1" fill="#2c2f34" d="M 321.5,92.5 C 323.5,92.5 325.5,92.5 327.5,92.5C 327.5,95.5 327.5,98.5 327.5,101.5C 320.769,100.448 316.269,103.114 314,109.5C 313.5,116.492 313.334,123.492 313.5,130.5C 310.167,130.5 306.833,130.5 303.5,130.5C 303.5,118.167 303.5,105.833 303.5,93.5C 306.833,93.5 310.167,93.5 313.5,93.5C 313.338,95.5273 313.505,97.5273 314,99.5C 315.742,96.2543 318.242,93.921 321.5,92.5 Z"/></g>
<g><path style="opacity:1" fill="#303338" d="M 338.5,92.5 C 359.657,91.5065 367.49,101.173 362,121.5C 360.098,126.4 356.598,129.567 351.5,131C 331.028,132.86 322.862,123.693 327,103.5C 329.412,98.2523 333.246,94.5857 338.5,92.5 Z"/></g>
<g><path style="opacity:1" fill="#2d3035" d="M 399.5,92.5 C 415.993,90.6632 424.326,97.9966 424.5,114.5C 415.5,114.5 406.5,114.5 397.5,114.5C 398.207,122.691 402.541,125.524 410.5,123C 414.215,119.69 418.548,118.69 423.5,120C 418.592,130.117 410.592,133.784 399.5,131C 389.322,125.499 385.489,116.999 388,105.5C 390.3,99.7063 394.133,95.373 399.5,92.5 Z"/></g>
<g><path style="opacity:1" fill="#2e3136" d="M 437.5,92.5 C 446.35,90.9142 453.85,93.2475 460,99.5C 461.202,101.677 461.702,104.011 461.5,106.5C 458.482,106.665 455.482,106.498 452.5,106C 450.057,100.843 446.057,99.1761 440.5,101C 433.833,108.333 433.833,115.667 440.5,123C 446.667,125.087 450.667,123.087 452.5,117C 455.482,116.502 458.482,116.335 461.5,116.5C 461.622,123.092 458.622,127.592 452.5,130C 433.396,133.901 424.563,126.067 426,106.5C 427.873,100.136 431.706,95.4691 437.5,92.5 Z"/></g>
<g><path style="opacity:1" fill="#2b2e33" d="M 264.5,93.5 C 267.833,93.5 271.167,93.5 274.5,93.5C 274.334,101.507 274.5,109.507 275,117.5C 276.953,123.532 280.787,125.032 286.5,122C 287.701,121.097 288.535,119.931 289,118.5C 289.5,110.173 289.666,101.84 289.5,93.5C 292.833,93.5 296.167,93.5 299.5,93.5C 299.5,105.833 299.5,118.167 299.5,130.5C 296.167,130.5 292.833,130.5 289.5,130.5C 289.657,129.127 289.49,127.793 289,126.5C 284.078,131.202 278.245,132.702 271.5,131C 267.973,128.784 265.806,125.617 265,121.5C 264.5,112.173 264.334,102.839 264.5,93.5 Z"/></g>
<g><path style="opacity:1" fill="#6e7073" d="M 364.5,93.5 C 364.5,95.5 364.5,97.5 364.5,99.5C 366.415,99.2155 368.081,99.5489 369.5,100.5C 367.5,100.5 365.5,100.5 363.5,100.5C 363.198,97.9407 363.532,95.6074 364.5,93.5 Z"/></g>
<g><path style="opacity:1" fill="#fafafa" d="M 239.5,100.5 C 242.978,100.184 246.312,100.684 249.5,102C 250.861,103.584 251.528,105.418 251.5,107.5C 246.167,107.5 240.833,107.5 235.5,107.5C 235.961,104.697 237.295,102.363 239.5,100.5 Z"/></g>
<g><path style="opacity:1" fill="#fcfcfc" d="M 340.5,100.5 C 343.518,100.335 346.518,100.502 349.5,101C 351.049,102.214 352.215,103.714 353,105.5C 353.667,109.833 353.667,114.167 353,118.5C 352.215,120.286 351.049,121.786 349.5,123C 346.5,123.667 343.5,123.667 340.5,123C 338.951,121.786 337.785,120.286 337,118.5C 336.333,114.167 336.333,109.833 337,105.5C 337.997,103.677 339.164,102.01 340.5,100.5 Z"/></g>
<g><path style="opacity:1" fill="#fafafa" d="M 413.5,106.5 C 408.36,107.488 403.026,107.821 397.5,107.5C 399.382,100.858 403.715,98.6918 410.5,101C 412.16,102.488 413.16,104.321 413.5,106.5 Z"/></g>
<g><path style="opacity:1" fill="#888a8d" d="M 413.5,106.5 C 414.043,106.56 414.376,106.893 414.5,107.5C 408.68,108.816 403.013,108.816 397.5,107.5C 403.026,107.821 408.36,107.488 413.5,106.5 Z"/></g>
</svg>
