<svg xmlns="http://www.w3.org/2000/svg" width="200" height="200" style="shape-rendering:geometricPrecision;text-rendering:geometricPrecision;image-rendering:optimizeQuality;fill-rule:evenodd;clip-rule:evenodd"><path style="opacity:1" fill="#040a55" d="M-.5-.5h200v200H-.5V-.5z"/><path style="opacity:1" fill="#62bfeb" d="M60.5 22.5v38c-1.915.285-3.581-.049-5-1v-37h5z"/><path style="opacity:1" fill="#66b7e7" d="M118.5 40.5v8h-5c1.068-.934 2.401-1.268 4-1 .892-5.007-.441-6.007-4-3 .268-1.599-.066-2.932-1-4-2.444-2.956-5.444-3.623-9-2l-1.5-3c-1.673 2.289-3.507 4.289-5.5 6 .9-5.864 4.233-8.53 10-8 5.934-.708 9.934 1.626 12 7z"/><path style="opacity:1" fill="#528fc6" d="M89.5 33.5c.993 8.818 1.327 17.818 1 27-2.235.295-4.235-.039-6-1h5v-26z"/><path style="opacity:1" fill="#2e669f" d="M60.5 22.5h-5v37a342.839 342.839 0 0 1-1-37c2-1.333 4-1.333 6 0z"/><path style="opacity:1" fill="#091356" d="M112.5 40.5v4h-10v-4l1-2c3.556-1.623 6.556-.956 9 2z"/><path style="opacity:1" fill="#4480b7" d="M102.5 40.5v4h10v-4c.934 1.068 1.268 2.401 1 4-3.798.983-7.798 1.317-12 1-.284-1.915.049-3.581 1-5z"/><path style="opacity:1" fill="#3f7eb5" d="M118.5 40.5c1.333 3 1.333 6 0 9h-16v4c-.951-1.419-1.284-3.085-1-5h17v-8z"/><path style="opacity:1" fill="#5fbce8" d="M89.5 33.5v26h-5c-9.531 3.832-15.031.832-16.5-9-.5-5.657-.666-11.324-.5-17h6a83.48 83.48 0 0 0 1.5 21c3.112 1.073 6.28 1.073 9.5 0v-21h5z"/><path style="opacity:1" fill="#5fb8e6" d="m103.5 38.5-1 2c-.951 1.419-1.284 3.085-1 5 4.202.317 8.202-.017 12-1 3.559-3.007 4.892-2.007 4 3-1.599-.268-2.932.066-4 1h-12c-.284 1.915.049 3.581 1 5 .789.283 1.456.783 2 1.5 4.655.5 9.321.666 14 .5v4a61.094 61.094 0 0 1-17 .5c-2.814-2.32-4.814-5.154-6-8.5-.247-3.439.086-6.772 1-10 1.993-1.711 3.827-3.711 5.5-6l1.5 3z"/><path style="opacity:1" fill="#040e55" d="M54.5 22.5a342.839 342.839 0 0 0 1 37c1.419.951 3.085 1.285 5 1 .082 1.752-.75 2.752-2.5 3a22.56 22.56 0 0 0-7-4c-2.079 5.785-5.912 7.285-11.5 4.5l7-1c1.196-.654 1.196-1.154 0-1.5a190.205 190.205 0 0 1-27 1c1.269-13.118 1.269-26.118 0-39h3v37c6.342.166 12.675 0 19-.5 6.19-2.864 8.356-7.697 6.5-14.5a19.894 19.894 0 0 0-3.5-4c2.825-3.892 3.659-8.225 2.5-13-.69-1.85-1.856-3.184-3.5-4 1.951.273 3.451-.393 4.5-2l3 3c.72-1.556 1.887-2.556 3.5-3z"/><path style="opacity:1" fill="#62bbe8" d="M22.5 23.5c7.057-.26 14.057.073 21 1 1.644.816 2.81 2.15 3.5 4 1.159 4.775.325 9.108-2.5 13a19.894 19.894 0 0 1 3.5 4c1.856 6.803-.31 11.636-6.5 14.5-6.325.5-12.658.666-19 .5v-37z"/><path style="opacity:1" fill="#050d54" d="M28.5 44.5a60.94 60.94 0 0 1 11 .5c3.466 2.661 3.8 5.661 1 9a72.444 72.444 0 0 1-12 .5v-10z"/><path style="opacity:1" fill="#070c54" d="M39.5 29.5c1.493.812 2.16 2.145 2 4 .064 2.057-.602 3.723-2 5-8.012 2.011-11.345-.989-10-9h10z"/><path style="opacity:1" fill="#0d306c" d="M39.5 29.5h-10c-1.345 8.011 1.988 11.011 10 9-3.462.982-7.129 1.315-11 1v-11c3.871-.315 7.538.018 11 1z"/><path style="opacity:1" fill="#031457" d="M118.5 49.5c-.418.722-1.084 1.222-2 1.5l-10 1c4.598 1.06 9.265 2.06 14 3 2.027 1.396 2.36 3.062 1 5A59.035 59.035 0 0 1 99 61.5c-1.658.175-2.991.842-4 2 .017-3.975.184-7.975.5-12 1.186 3.346 3.186 6.18 6 8.5 5.695.626 11.362.46 17-.5v-4c-4.679.166-9.345 0-14-.5-.544-.717-1.211-1.217-2-1.5v-4h16z"/><path style="opacity:1" fill="#67b4e7" d="M107.5 76.5v6h-6v-6h6z"/><path style="opacity:1" fill="#6aafe4" d="M44.5 79.5c-4.36-.923-8.694-.923-13 0 2.72 1.61 5.72 2.444 9 2.5 3.126 2.529 3.46 5.029 1 7.5.396-2.544-.271-4.711-2-6.5a60.94 60.94 0 0 0-11-.5v-3h-5c-.166 9.006 0 18.006.5 27a14.729 14.729 0 0 0 1.5 5 45.209 45.209 0 0 0 16 .5c1.4-1.438 3.067-2.271 5-2.5l-2 3c-7.17 1.796-14.503 2.463-22 2v-37c6.342-.166 12.675 0 19 .5 1.237.232 2.237.732 3 1.5z"/><path style="opacity:1" fill="#5f9ed5" d="M79.5 87.5c3.574-1.274 7.24-1.107 11 .5 2.219 1.6 3.552 3.767 4 6.5-.434 6.883.233 13.55 2 20-1.915.284-3.581-.049-5-1 4.2.058 4.7-.942 1.5-3a223.074 223.074 0 0 0-2-21l-1 1c-3.15-1.868-6.65-2.868-10.5-3z"/><path style="opacity:1" fill="#63acdf" d="M123.5 86.5c5.636-.748 9.803 1.252 12.5 6 .5 7.326.666 14.659.5 22h-6v-19c.99 5.81 1.323 11.81 1 18 1.624.14 2.79-.527 3.5-2a64.218 64.218 0 0 0 0-16c-1.396-5.65-4.896-7.65-10.5-6 .363.683.696 1.35 1 2-.992-.172-1.658.162-2 1h-3c.905-1.202.905-2.536 0-4 1.21-.432 2.21-1.099 3-2z"/><path style="opacity:1" fill="#63bfeb" d="M114.5 87.5c2.121-.175 4.121.159 6 1 .905 1.464.905 2.798 0 4a116.802 116.802 0 0 0-1 21h-5v-26z"/><path style="opacity:1" fill="#13407a" d="M123.5 92.5c.342-.838 1.008-1.172 2-1 2.132.054 3.465 1.054 4 3a31.686 31.686 0 0 0-6-2z"/><path style="opacity:1" fill="#041257" d="M93.5 87.5c2.045 2.197 2.378 4.53 1 7-.448-2.733-1.781-4.9-4-6.5-3.76-1.607-7.426-1.774-11-.5-1.915-.284-3.581.049-5 1-.934 1.068-1.268 2.401-1 4h12c2.584.548 3.584 2.215 3 5-5.706-.828-10.706.505-15 4-1.833 5.044-.833 9.377 3 13-2.327.253-4.327-.414-6-2a11.47 11.47 0 0 0 1-2.5 23.938 23.938 0 0 0-4.5-4.5 24.365 24.365 0 0 1-1.5-10h-3c.166 6.342 0 12.675-.5 19-2.675 3.815-5.175 3.815-7.5 0a7.468 7.468 0 0 1-3-2c1.062-2.603 1.228-5.27.5-8-.978 4.143-3.478 6.81-7.5 8l2-3c3.127-5.282 2.46-10.115-2-14.5.663-1.519 1.663-2.685 3-3.5.17 1.322-.163 2.489-1 3.5 2.97 1.086 4.637 3.252 5 6.5a43.51 43.51 0 0 0 2-15c5.348.999 10.515.665 15.5-1a9.265 9.265 0 0 1 2.5 2c7.383-2.564 14.716-2.564 22 0z"/><path style="opacity:1" fill="#235892" d="M74.5 88.5v3c3.871-.315 7.538.018 11 1h-12c-.268-1.599.066-2.932 1-4z"/><path style="opacity:1" fill="#63bdeb" d="M60.5 95.5c-.99 5.81-1.323 11.81-1 18h-4v-25c1.791-.134 3.458.2 5 1 2.803-1.428 5.803-2.095 9-2v5a23.955 23.955 0 0 0-9 3z"/><path style="opacity:1" fill="#2d6ea4" d="M114.5 87.5v26h5c-1.765.961-3.765 1.295-6 1-.327-9.182.007-18.182 1-27z"/><path style="opacity:1" fill="#5fc1ec" d="M130.5 95.5c0-.667-.333-1-1-1-.535-1.946-1.868-2.946-4-3a44.147 44.147 0 0 0-1-2c5.604-1.65 9.104.35 10.5 6a64.218 64.218 0 0 1 0 16c-.71 1.473-1.876 2.14-3.5 2 .323-6.19-.01-12.19-1-18z"/><path style="opacity:1" fill="#69a8df" d="M60.5 89.5c-1.542-.8-3.209-1.134-5-1v25h4c-.323-6.19.01-12.19 1-18v19h-6v-27c2.582-.475 4.582.192 6 2z"/><path style="opacity:1" fill="#60bde9" d="M44.5 79.5c1.29.558 2.123 1.558 2.5 3 .498 2.982.665 5.982.5 9-1.337.815-2.337 1.981-3 3.5 4.46 4.385 5.127 9.218 2 14.5-1.933.229-3.6 1.062-5 2.5a45.209 45.209 0 0 1-16-.5 14.729 14.729 0 0 1-1.5-5c-.5-8.994-.666-17.994-.5-27h5v13a60.94 60.94 0 0 0 11-.5c.88-.708 1.547-1.542 2-2.5 2.46-2.471 2.126-4.971-1-7.5-3.28-.056-6.28-.89-9-2.5 4.306-.923 8.64-.923 13 0z"/><path style="opacity:1" fill="#060d54" d="M28.5 98.5a72.444 72.444 0 0 1 12 .5c2.8 3.339 2.466 6.339-1 9a60.93 60.93 0 0 1-11 .5v-10z"/><path style="opacity:1" fill="#040f54" d="M28.5 82.5a60.94 60.94 0 0 1 11 .5c1.729 1.789 2.396 3.956 2 6.5-.453.958-1.12 1.792-2 2.5a60.94 60.94 0 0 1-11 .5v-10z"/><path style="opacity:1" fill="#61bfeb" d="M79.5 87.5c3.85.132 7.35 1.132 10.5 3l1-1a223.074 223.074 0 0 1 2 21c3.2 2.058 2.7 3.058-1.5 3a11.114 11.114 0 0 0-2.5-1 28.423 28.423 0 0 1-12.5 2c-3.833-3.623-4.833-7.956-3-13 4.294-3.495 9.294-4.828 15-4 .584-2.785-.416-4.452-3-5-3.462-.982-7.129-1.315-11-1v-3c1.419-.951 3.085-1.284 5-1z"/><path style="opacity:1" fill="#091257" d="M81.5 101.5h7c1.01 7.172-1.99 9.672-9 7.5-1.66-3.223-.994-5.723 2-7.5z"/><path style="opacity:1" fill="#050d56" d="M107.5 76.5c1.25.077 2.083.744 2.5 2a108.484 108.484 0 0 1 2 9c3.643-2.257 7.476-2.59 11.5-1-.79.901-1.79 1.568-3 2-1.879-.841-3.879-1.175-6-1-.993 8.818-1.327 17.818-1 27 2.235.295 4.235-.039 6-1a116.802 116.802 0 0 1 1-21h3a31.686 31.686 0 0 1 6 2c.667 0 1 .333 1 1v19h6c-.548 2.032-1.881 3.032-4 3a9.108 9.108 0 0 0 1 5c-1.333 2-3 3.667-5 5-1.083.865-1.249 1.865-.5 3 4.413-1.132 8.913-1.299 13.5-.5a4.457 4.457 0 0 1 2 1.5c6.691.702 13.357 1.368 20 2 3.049-1.966 6.382-2.466 10-1.5-.556.383-.889.883-1 1.5h-6c-.968 2.107-1.302 4.441-1 7h-3v6h3c-.321 5.195.013 10.195 1 15 1.279 6.876 5.279 8.876 12 6 .952-1.545 1.285-3.212 1-5 1.859-.039 3.192.794 4 2.5a65.066 65.066 0 0 1-7 6.5 47.161 47.161 0 0 0-10-3 61.897 61.897 0 0 1-3.5-12c-2.123 3.47-3.29 3.47-3.5 0a18.453 18.453 0 0 1-6-.5c-.837-1.011-1.17-2.178-1-3.5h7v-4a60.931 60.931 0 0 0-11 .5c-.956 3.394-1.289 6.894-1 10.5-.977-2.787-1.31-5.787-1-9a5.576 5.576 0 0 1 1-3 36.875 36.875 0 0 1 12-1v-5c-16.478-3.348-22.645 3.319-18.5 20l2.5 5c-.617.111-1.117.444-1.5 1a31.168 31.168 0 0 0-4.5-4 29.825 29.825 0 0 0-2 5c-6.325 2.086-12.658 2.253-19 .5a9.175 9.175 0 0 1-2-4.5c-.996.086-1.829-.248-2.5-1-1.144-8.09-.311-15.59 2.5-22.5-2.067-.536-3.901-.036-5.5 1.5a156.422 156.422 0 0 0 0 25l1-4a168.167 168.167 0 0 1 1.5 8c-1.478-.262-2.811.071-4 1-1.929 5.771-5.596 8.104-11 7 3.115-.055 5.448-1.388 7-4 1.745-1.533 2.745-3.533 3-6 .994-9.486 1.327-19.152 1-29h-5c.067-1.459-.266-2.792-1-4 1.915.284 3.581-.049 5-1v-5c-1.419-.951-3.085-1.284-5-1-1.163-2.482-3.163-3.816-6-4v-4c-5.333-1.333-10.667-1.333-16 0v3a24.935 24.935 0 0 1-7-.5c-1.333-.667-1.333-1.333 0-2 3.164-.387 5.998-1.554 8.5-3.5 5.988 1.409 11.821.909 17.5-1.5-1.256-.417-1.923-1.25-2-2.5-1.767-6.45-2.434-13.117-2-20 1.378-2.47 1.045-4.803-1-7 1.756-1.052 2.423-2.719 2-5a101.96 101.96 0 0 1-14-2.5c5.06.1 10.06-.068 15-.5 1 10.653 2 21.319 3 32 .667-8.157 1.333-16.157 2-24a30.968 30.968 0 0 1 2-2 184.223 184.223 0 0 1-2-3h6v-6z"/><path style="opacity:1" fill="#2b689f" d="M106.5 87.5c.993 8.818 1.327 17.818 1 27-2.235.295-4.235-.039-6-1h5v-26z"/><path style="opacity:1" fill="#66c0ed" d="M101.5 87.5h5v26h-5v-26z"/><path style="opacity:1" fill="#3d6ba9" d="M101.5 129.5c1.915-.284 3.581.049 5 1h-5v5h5c-1.419.951-3.085 1.284-5 1-1.333-2.333-1.333-4.667 0-7z"/><path style="opacity:1" fill="#69bdee" d="M106.5 130.5v5h-5v-5h5z"/><path style="opacity:1" fill="#5188c2" d="M172.5 140.5h7v6h-7c1.765-.961 3.765-1.295 6-1v-4c-2.235.295-4.235-.039-6-1z"/><path style="opacity:1" fill="#275591" d="M102.5 140.5h5c.327 9.848-.006 19.514-1 29v-28h-5c.327 9.515-.006 18.848-1 28v-26c-.215-1.679.452-2.679 2-3z"/><path style="opacity:1" fill="#30619b" d="M166.5 133.5v8h-3v4h3v16c-.987-4.805-1.321-9.805-1-15h-3v-6h3c-.302-2.559.032-4.893 1-7z"/><path style="opacity:1" fill="#5fb9e6" d="M146.5 150.5c-1.309 3.851-1.309 7.851 0 12a46.755 46.755 0 0 0 13 1v4c-5.504 1.605-10.838 1.272-16-1l-2.5-5c-4.145-16.681 2.022-23.348 18.5-20v5a36.875 36.875 0 0 0-12 1 5.576 5.576 0 0 0-1 3z"/><path style="opacity:1" fill="#5fb7e5" d="M166.5 133.5h6v7c1.765.961 3.765 1.295 6 1v4c-2.235-.295-4.235.039-6 1v16h7c.285 1.788-.048 3.455-1 5-6.721 2.876-10.721.876-12-6v-16h-3v-4h3v-8z"/><path style="opacity:1" fill="#123e7a" d="M135.5 156.5c-5.577.356-10.91 1.356-16 3-.904-.709-1.237-1.709-1-3h17z"/><path style="opacity:1" fill="#030e55" d="M53.5 140.5v27h6a91.123 91.123 0 0 1 1-19 18.073 18.073 0 0 1 8-2v-6a184.261 184.261 0 0 0 20-4c3.915 2.077 6.415 1.077 7.5-3a400.657 400.657 0 0 1 2.5 26c.667-5.485 1.334-10.819 2-16v28l-2 1v-9c-3.315.472-5.649 2.305-7 5.5-2.538.796-4.872.629-7-.5 5.808-.319 9.308-3.319 10.5-9a30.499 30.499 0 0 0 0-11c-.374-1.991-1.207-3.658-2.5-5h-1c-5.792-3.959-11.626-3.959-17.5 0a10.122 10.122 0 0 0-1.5 4c-.977 2.787-1.31 5.787-1 9-.722-.418-1.222-1.084-1.5-2-1.64 3.113-3.14 6.28-4.5 9.5a165.819 165.819 0 0 0 7.5 11.5c-1.645-.193-3.479-.36-5.5-.5l-3.5-3.5a10.255 10.255 0 0 1-1.5 4 13.118 13.118 0 0 1-1-7c-2.7 1.016-5.366 1.016-8 0l-2-25c-.516 2.685-1.85 4.685-4 6 2.01-6.131 1.01-11.631-3-16.5-1.525-1.009-3.192-1.509-5-1.5-5.475-.989-11.142-1.322-17-1v37h6v-11h1v12a21.128 21.128 0 0 1-9-1 10.31 10.31 0 0 1-1-3 159.468 159.468 0 0 0 1-22.5c-1.997-4.334-1.997-8.501 0-12.5a435.61 435.61 0 0 0 20.5-1 38.82 38.82 0 0 0 8.5 2 40.939 40.939 0 0 0 .5 9 12 12 0 0 1 3.5 1z"/><path style="opacity:1" fill="#69a7de" d="M39.5 131.5a62.792 62.792 0 0 0-15.5 1c.145 11.029.145 22.029 0 33 1.011.837 2.178 1.17 3.5 1-.313-3.542.02-6.875 1-10v11h-6v-37c5.858-.322 11.525.011 17 1z"/><path style="opacity:1" fill="#61bbe8" d="M53.5 140.5h6c-.219 1.175.114 2.175 1 3 2.48-1.576 5.146-2.576 8-3v6c-2.813.048-5.48.715-8 2a91.123 91.123 0 0 0-1 19h-6v-27z"/><path style="opacity:1" fill="#67b3e6" d="M91.5 143.5h-3l1 6c-2.792-3.862-6.46-4.862-11-3v-3h-3c.009 1.808-.491 3.475-1.5 5-.383-.556-.883-.889-1.5-1a10.122 10.122 0 0 1 1.5-4c5.874-3.959 11.708-3.959 17.5 0z"/><path style="opacity:1" fill="#60bbe8" d="M39.5 131.5c1.808-.009 3.475.491 5 1.5 4.01 4.869 5.01 10.369 3 16.5-.778 2.612-2.444 4.445-5 5.5a36.129 36.129 0 0 1-13 1.5h-1c-.98 3.125-1.313 6.458-1 10-1.322.17-2.489-.163-3.5-1 .145-10.971.145-21.971 0-33a62.792 62.792 0 0 1 15.5-1z"/><path style="opacity:1" fill="#041054" d="M28.5 136.5a60.93 60.93 0 0 1 11 .5c3.809 4.227 3.809 8.56 0 13a60.93 60.93 0 0 1-11 .5v-14z"/><path style="opacity:1" fill="#64b8e7" d="M135.5 156.5h-17c-.237 1.291.096 2.291 1 3-.073 1.527.594 2.527 2 3 4.134.985 8.468 1.318 13 1v3c-7.09 3.291-13.756 2.624-20-2-2.826-6.743-2.659-13.41.5-20 4.841-4.379 10.341-5.212 16.5-2.5a11.532 11.532 0 0 1 3.5 4.5c.498 3.317.665 6.65.5 10z"/><path style="opacity:1" fill="#57c5eb" d="M129.5 152.5c.433-2.759 2.1-4.092 5-4v7h-5v-3z"/><path style="opacity:1" fill="#051759" d="M129.5 152.5h-11c-.492-4.506 1.508-6.839 6-7 4.313.326 5.98 2.659 5 7z"/><path style="opacity:1" fill="#4e8ac1" d="M146.5 150.5c-.31 3.213.023 6.213 1 9-.086.996.248 1.829 1 2.5 3.856.177 7.523.677 11 1.5a46.755 46.755 0 0 1-13-1c-1.309-4.149-1.309-8.149 0-12z"/><path style="opacity:1" fill="#61c1ec" d="M106.5 169.5c-.255 2.467-1.255 4.467-3 6h-3v-6c.994-9.152 1.327-18.485 1-28h5v28z"/><path style="opacity:1" fill="#21518c" d="M121.5 162.5h14c.268 1.599-.066 2.932-1 4v-3c-4.532.318-8.866-.015-13-1z"/><path style="opacity:1" fill="#5fb8e6" d="M78.5 146.5v2c-1.145 3.811-1.312 7.811-.5 12 3.543 3.92 7.043 3.92 10.5 0a4.932 4.932 0 0 0 .5 3c1.011-.837 2.178-1.17 3.5-1a47.518 47.518 0 0 0 0-19c1.293 1.342 2.126 3.009 2.5 5a30.499 30.499 0 0 1 0 11c-1.192 5.681-4.692 8.681-10.5 9-8.206.125-12.54-3.875-13-12-.31-3.213.023-6.213 1-9 .617.111 1.117.444 1.5 1 1.009-1.525 1.509-3.192 1.5-5h3v3z"/><path style="opacity:1" fill="#061c5c" d="M89.5 149.5c.256 3.769-.077 7.436-1 11-3.457 3.92-6.957 3.92-10.5 0-.812-4.189-.645-8.189.5-12v-2c4.54-1.862 8.208-.862 11 3z"/><path style="opacity:1" fill="#090854" d="M78.5 148.5c.617-.111 1.117-.444 1.5-1l7 2c.824 3.382.657 6.716-.5 10-2.381 2.269-4.881 2.269-7.5 0a60.94 60.94 0 0 1-.5-11z"/><path style="opacity:1" fill="#5dc3ec" d="M91.5 143.5h1a47.518 47.518 0 0 1 0 19c-1.322-.17-2.489.163-3.5 1a4.932 4.932 0 0 1-.5-3c.923-3.564 1.256-7.231 1-11l-1-6h3z"/><path style="opacity:1" fill="#68ace2" d="M100.5 171.5v4h3c-1.552 2.612-3.885 3.945-7 4a5.577 5.577 0 0 0-1-3 494.818 494.818 0 0 0 3-4l2-1z"/></svg>