<?xml version="1.0" encoding="UTF-8"?>
<!DOCTYPE svg PUBLIC "-//W3C//DTD SVG 1.1//EN" "http://www.w3.org/Graphics/SVG/1.1/DTD/svg11.dtd">
<svg xmlns="http://www.w3.org/2000/svg" version="1.1" width="200px" height="200px" style="shape-rendering:geometricPrecision; text-rendering:geometricPrecision; image-rendering:optimizeQuality; fill-rule:evenodd; clip-rule:evenodd" xmlns:xlink="http://www.w3.org/1999/xlink">
<g><path style="opacity:1" fill="#040a55" d="M -0.5,-0.5 C 66.1667,-0.5 132.833,-0.5 199.5,-0.5C 199.5,66.1667 199.5,132.833 199.5,199.5C 132.833,199.5 66.1667,199.5 -0.5,199.5C -0.5,132.833 -0.5,66.1667 -0.5,-0.5 Z"/></g>
<g><path style="opacity:1" fill="#62bfeb" d="M 60.5,22.5 C 60.5,35.1667 60.5,47.8333 60.5,60.5C 58.5853,60.7845 56.9187,60.4511 55.5,59.5C 55.5,47.1667 55.5,34.8333 55.5,22.5C 57.1667,22.5 58.8333,22.5 60.5,22.5 Z"/></g>
<g><path style="opacity:1" fill="#66b7e7" d="M 118.5,40.5 C 118.5,43.1667 118.5,45.8333 118.5,48.5C 116.833,48.5 115.167,48.5 113.5,48.5C 114.568,47.5655 115.901,47.2322 117.5,47.5C 118.392,42.4935 117.059,41.4935 113.5,44.5C 113.768,42.901 113.434,41.5676 112.5,40.5C 110.056,37.5437 107.056,36.877 103.5,38.5C 103.013,37.5266 102.513,36.5266 102,35.5C 100.327,37.7889 98.4934,39.7889 96.5,41.5C 97.4001,35.6363 100.733,32.9697 106.5,33.5C 112.434,32.7923 116.434,35.1257 118.5,40.5 Z"/></g>
<g><path style="opacity:1" fill="#528fc6" d="M 89.5,33.5 C 90.4933,42.3178 90.8266,51.3178 90.5,60.5C 88.2646,60.7947 86.2646,60.4614 84.5,59.5C 86.1667,59.5 87.8333,59.5 89.5,59.5C 89.5,50.8333 89.5,42.1667 89.5,33.5 Z"/></g>
<g><path style="opacity:1" fill="#2e669f" d="M 60.5,22.5 C 58.8333,22.5 57.1667,22.5 55.5,22.5C 55.5,34.8333 55.5,47.1667 55.5,59.5C 54.5048,47.3446 54.1714,35.0113 54.5,22.5C 56.5,21.1667 58.5,21.1667 60.5,22.5 Z"/></g>
<g><path style="opacity:1" fill="#091356" d="M 112.5,40.5 C 112.5,41.8333 112.5,43.1667 112.5,44.5C 109.167,44.5 105.833,44.5 102.5,44.5C 102.5,43.1667 102.5,41.8333 102.5,40.5C 102.833,39.8333 103.167,39.1667 103.5,38.5C 107.056,36.877 110.056,37.5437 112.5,40.5 Z"/></g>
<g><path style="opacity:1" fill="#4480b7" d="M 102.5,40.5 C 102.5,41.8333 102.5,43.1667 102.5,44.5C 105.833,44.5 109.167,44.5 112.5,44.5C 112.5,43.1667 112.5,41.8333 112.5,40.5C 113.434,41.5676 113.768,42.901 113.5,44.5C 109.702,45.4834 105.702,45.8168 101.5,45.5C 101.216,43.5853 101.549,41.9187 102.5,40.5 Z"/></g>
<g><path style="opacity:1" fill="#3f7eb5" d="M 118.5,40.5 C 119.833,43.5 119.833,46.5 118.5,49.5C 113.167,49.5 107.833,49.5 102.5,49.5C 102.5,50.8333 102.5,52.1667 102.5,53.5C 101.549,52.0813 101.216,50.4147 101.5,48.5C 105.5,48.5 109.5,48.5 113.5,48.5C 115.167,48.5 116.833,48.5 118.5,48.5C 118.5,45.8333 118.5,43.1667 118.5,40.5 Z"/></g>
<g><path style="opacity:1" fill="#5fbce8" d="M 89.5,33.5 C 89.5,42.1667 89.5,50.8333 89.5,59.5C 87.8333,59.5 86.1667,59.5 84.5,59.5C 74.9686,63.332 69.4686,60.332 68,50.5C 67.5006,44.8431 67.3339,39.1764 67.5,33.5C 69.5,33.5 71.5,33.5 73.5,33.5C 73.1156,40.5888 73.6156,47.5888 75,54.5C 78.1124,55.5732 81.2791,55.5732 84.5,54.5C 84.5,47.5 84.5,40.5 84.5,33.5C 86.1667,33.5 87.8333,33.5 89.5,33.5 Z"/></g>
<g><path style="opacity:1" fill="#5fb8e6" d="M 103.5,38.5 C 103.167,39.1667 102.833,39.8333 102.5,40.5C 101.549,41.9187 101.216,43.5853 101.5,45.5C 105.702,45.8168 109.702,45.4834 113.5,44.5C 117.059,41.4935 118.392,42.4935 117.5,47.5C 115.901,47.2322 114.568,47.5655 113.5,48.5C 109.5,48.5 105.5,48.5 101.5,48.5C 101.216,50.4147 101.549,52.0813 102.5,53.5C 103.289,53.7828 103.956,54.2828 104.5,55C 109.155,55.4992 113.821,55.6658 118.5,55.5C 118.5,56.8333 118.5,58.1667 118.5,59.5C 112.862,60.4591 107.195,60.6258 101.5,60C 98.6857,57.6793 96.6857,54.846 95.5,51.5C 95.2529,48.0613 95.5863,44.728 96.5,41.5C 98.4934,39.7889 100.327,37.7889 102,35.5C 102.513,36.5266 103.013,37.5266 103.5,38.5 Z"/></g>
<g><path style="opacity:1" fill="#040e55" d="M 54.5,22.5 C 54.1714,35.0113 54.5048,47.3446 55.5,59.5C 56.9187,60.4511 58.5853,60.7845 60.5,60.5C 60.5824,62.2517 59.7491,63.2517 58,63.5C 55.9141,61.7505 53.5808,60.4172 51,59.5C 48.9214,65.285 45.088,66.785 39.5,64C 41.8333,63.6667 44.1667,63.3333 46.5,63C 47.6956,62.3457 47.6956,61.8457 46.5,61.5C 37.5542,62.4722 28.5542,62.8056 19.5,62.5C 20.769,49.3823 20.769,36.3823 19.5,23.5C 20.5,23.5 21.5,23.5 22.5,23.5C 22.5,35.8333 22.5,48.1667 22.5,60.5C 28.8421,60.6662 35.1754,60.4995 41.5,60C 47.6891,57.136 49.8558,52.3027 48,45.5C 47.0197,44.0186 45.853,42.6853 44.5,41.5C 47.3255,37.6084 48.1588,33.2751 47,28.5C 46.3103,26.6498 45.1436,25.3164 43.5,24.5C 45.451,24.7733 46.951,24.1066 48,22.5C 49,23.5 50,24.5 51,25.5C 51.7202,23.9443 52.8868,22.9443 54.5,22.5 Z"/></g>
<g><path style="opacity:1" fill="#62bbe8" d="M 22.5,23.5 C 29.557,23.24 36.557,23.5733 43.5,24.5C 45.1436,25.3164 46.3103,26.6498 47,28.5C 48.1588,33.2751 47.3255,37.6084 44.5,41.5C 45.853,42.6853 47.0197,44.0186 48,45.5C 49.8558,52.3027 47.6891,57.136 41.5,60C 35.1754,60.4995 28.8421,60.6662 22.5,60.5C 22.5,48.1667 22.5,35.8333 22.5,23.5 Z"/></g>
<g><path style="opacity:1" fill="#050d54" d="M 28.5,44.5 C 32.1817,44.3347 35.8484,44.5014 39.5,45C 42.9661,47.6612 43.2994,50.6612 40.5,54C 36.5138,54.4988 32.5138,54.6655 28.5,54.5C 28.5,51.1667 28.5,47.8333 28.5,44.5 Z"/></g>
<g><path style="opacity:1" fill="#070c54" d="M 39.5,29.5 C 40.9931,30.3121 41.6598,31.6455 41.5,33.5C 41.5643,35.5566 40.8976,37.2233 39.5,38.5C 31.4879,40.5114 28.1546,37.5114 29.5,29.5C 32.8333,29.5 36.1667,29.5 39.5,29.5 Z"/></g>
<g><path style="opacity:1" fill="#0d306c" d="M 39.5,29.5 C 36.1667,29.5 32.8333,29.5 29.5,29.5C 28.1546,37.5114 31.4879,40.5114 39.5,38.5C 36.0381,39.4816 32.3714,39.815 28.5,39.5C 28.5,35.8333 28.5,32.1667 28.5,28.5C 32.3714,28.185 36.0381,28.5184 39.5,29.5 Z"/></g>
<g><path style="opacity:1" fill="#031457" d="M 118.5,49.5 C 118.082,50.2216 117.416,50.7216 116.5,51C 113.167,51.3333 109.833,51.6667 106.5,52C 111.098,53.0609 115.765,54.0609 120.5,55C 122.527,56.3957 122.86,58.0624 121.5,60C 114.098,61.9456 106.598,62.4456 99,61.5C 97.3419,61.6752 96.0086,62.3418 95,63.5C 95.0172,59.5246 95.1839,55.5246 95.5,51.5C 96.6857,54.846 98.6857,57.6793 101.5,60C 107.195,60.6258 112.862,60.4591 118.5,59.5C 118.5,58.1667 118.5,56.8333 118.5,55.5C 113.821,55.6658 109.155,55.4992 104.5,55C 103.956,54.2828 103.289,53.7828 102.5,53.5C 102.5,52.1667 102.5,50.8333 102.5,49.5C 107.833,49.5 113.167,49.5 118.5,49.5 Z"/></g>
<g><path style="opacity:1" fill="#67b4e7" d="M 107.5,76.5 C 107.5,78.5 107.5,80.5 107.5,82.5C 105.5,82.5 103.5,82.5 101.5,82.5C 101.5,80.5 101.5,78.5 101.5,76.5C 103.5,76.5 105.5,76.5 107.5,76.5 Z"/></g>
<g><path style="opacity:1" fill="#6aafe4" d="M 44.5,79.5 C 40.1394,78.5766 35.8061,78.5766 31.5,79.5C 34.2198,81.1107 37.2198,81.944 40.5,82C 43.626,84.5289 43.9593,87.0289 41.5,89.5C 41.8957,86.9556 41.229,84.7889 39.5,83C 35.8484,82.5014 32.1817,82.3347 28.5,82.5C 28.5,81.5 28.5,80.5 28.5,79.5C 26.8333,79.5 25.1667,79.5 23.5,79.5C 23.3336,88.5062 23.5002,97.5062 24,106.5C 24.2022,108.256 24.7022,109.922 25.5,111.5C 30.7798,112.618 36.1131,112.784 41.5,112C 42.9003,110.562 44.567,109.729 46.5,109.5C 45.8333,110.5 45.1667,111.5 44.5,112.5C 37.3305,114.296 29.9972,114.963 22.5,114.5C 22.5,102.167 22.5,89.8333 22.5,77.5C 28.8421,77.3338 35.1754,77.5005 41.5,78C 42.7375,78.2321 43.7375,78.7321 44.5,79.5 Z"/></g>
<g><path style="opacity:1" fill="#5f9ed5" d="M 79.5,87.5 C 83.0742,86.2262 86.7409,86.3929 90.5,88C 92.7186,89.6006 94.0519,91.7672 94.5,94.5C 94.0664,101.383 94.7331,108.05 96.5,114.5C 94.5853,114.784 92.9187,114.451 91.5,113.5C 95.7009,113.558 96.2009,112.558 93,110.5C 92.6643,103.467 91.9977,96.4665 91,89.5C 90.6667,89.8333 90.3333,90.1667 90,90.5C 86.8494,88.632 83.3494,87.632 79.5,87.5 Z"/></g>
<g><path style="opacity:1" fill="#63acdf" d="M 123.5,86.5 C 129.136,85.7524 133.303,87.7524 136,92.5C 136.5,99.8258 136.666,107.159 136.5,114.5C 134.5,114.5 132.5,114.5 130.5,114.5C 130.5,108.167 130.5,101.833 130.5,95.5C 131.49,101.31 131.823,107.31 131.5,113.5C 133.124,113.64 134.29,112.973 135,111.5C 135.667,106.167 135.667,100.833 135,95.5C 133.604,89.8507 130.104,87.8507 124.5,89.5C 124.863,90.1835 125.196,90.8501 125.5,91.5C 124.508,91.3284 123.842,91.6618 123.5,92.5C 122.5,92.5 121.5,92.5 120.5,92.5C 121.405,91.2976 121.405,89.9643 120.5,88.5C 121.71,88.0679 122.71,87.4013 123.5,86.5 Z"/></g>
<g><path style="opacity:1" fill="#63bfeb" d="M 114.5,87.5 C 116.621,87.3253 118.621,87.6586 120.5,88.5C 121.405,89.9643 121.405,91.2976 120.5,92.5C 119.538,99.4122 119.205,106.412 119.5,113.5C 117.833,113.5 116.167,113.5 114.5,113.5C 114.5,104.833 114.5,96.1667 114.5,87.5 Z"/></g>
<g><path style="opacity:1" fill="#13407a" d="M 123.5,92.5 C 123.842,91.6618 124.508,91.3284 125.5,91.5C 127.632,91.5544 128.965,92.5544 129.5,94.5C 127.579,93.6373 125.579,92.9707 123.5,92.5 Z"/></g>
<g><path style="opacity:1" fill="#041257" d="M 93.5,87.5 C 95.5446,89.6965 95.8779,92.0298 94.5,94.5C 94.0519,91.7672 92.7186,89.6006 90.5,88C 86.7409,86.3929 83.0742,86.2262 79.5,87.5C 77.5853,87.2155 75.9187,87.5489 74.5,88.5C 73.5655,89.5676 73.2322,90.901 73.5,92.5C 77.5,92.5 81.5,92.5 85.5,92.5C 88.0838,93.0483 89.0838,94.715 88.5,97.5C 82.7942,96.6721 77.7942,98.0054 73.5,101.5C 71.6674,106.544 72.6674,110.877 76.5,114.5C 74.1727,114.753 72.1727,114.086 70.5,112.5C 70.9312,111.707 71.2645,110.873 71.5,110C 70.2335,108.333 68.7335,106.833 67,105.5C 65.8011,102.274 65.3011,98.941 65.5,95.5C 64.5,95.5 63.5,95.5 62.5,95.5C 62.6662,101.842 62.4995,108.175 62,114.5C 59.325,118.315 56.825,118.315 54.5,114.5C 53.3569,114.092 52.3569,113.425 51.5,112.5C 52.5617,109.897 52.7284,107.23 52,104.5C 51.0218,108.643 48.5218,111.31 44.5,112.5C 45.1667,111.5 45.8333,110.5 46.5,109.5C 49.6268,104.218 48.9602,99.385 44.5,95C 45.1634,93.4815 46.1634,92.3149 47.5,91.5C 47.67,92.8221 47.3366,93.9887 46.5,95C 49.4707,96.0857 51.1374,98.2524 51.5,101.5C 53.042,96.6229 53.7087,91.6229 53.5,86.5C 58.848,87.4985 64.0147,87.1652 69,85.5C 69.9503,86.0223 70.7836,86.689 71.5,87.5C 78.8826,84.9364 86.2159,84.9364 93.5,87.5 Z"/></g>
<g><path style="opacity:1" fill="#235892" d="M 74.5,88.5 C 74.5,89.5 74.5,90.5 74.5,91.5C 78.3714,91.185 82.0381,91.5184 85.5,92.5C 81.5,92.5 77.5,92.5 73.5,92.5C 73.2322,90.901 73.5655,89.5676 74.5,88.5 Z"/></g>
<g><path style="opacity:1" fill="#63bdeb" d="M 60.5,95.5 C 59.5104,101.31 59.1771,107.31 59.5,113.5C 58.1667,113.5 56.8333,113.5 55.5,113.5C 55.5,105.167 55.5,96.8333 55.5,88.5C 57.2915,88.366 58.9582,88.6993 60.5,89.5C 63.3033,88.0721 66.3033,87.4054 69.5,87.5C 69.5,89.1667 69.5,90.8333 69.5,92.5C 66.2854,92.9049 63.2854,93.9049 60.5,95.5 Z"/></g>
<g><path style="opacity:1" fill="#2d6ea4" d="M 114.5,87.5 C 114.5,96.1667 114.5,104.833 114.5,113.5C 116.167,113.5 117.833,113.5 119.5,113.5C 117.735,114.461 115.735,114.795 113.5,114.5C 113.173,105.318 113.507,96.3178 114.5,87.5 Z"/></g>
<g><path style="opacity:1" fill="#5fc1ec" d="M 130.5,95.5 C 130.5,94.8333 130.167,94.5 129.5,94.5C 128.965,92.5544 127.632,91.5544 125.5,91.5C 125.196,90.8501 124.863,90.1835 124.5,89.5C 130.104,87.8507 133.604,89.8507 135,95.5C 135.667,100.833 135.667,106.167 135,111.5C 134.29,112.973 133.124,113.64 131.5,113.5C 131.823,107.31 131.49,101.31 130.5,95.5 Z"/></g>
<g><path style="opacity:1" fill="#69a8df" d="M 60.5,89.5 C 58.9582,88.6993 57.2915,88.366 55.5,88.5C 55.5,96.8333 55.5,105.167 55.5,113.5C 56.8333,113.5 58.1667,113.5 59.5,113.5C 59.1771,107.31 59.5104,101.31 60.5,95.5C 60.5,101.833 60.5,108.167 60.5,114.5C 58.5,114.5 56.5,114.5 54.5,114.5C 54.5,105.5 54.5,96.5 54.5,87.5C 57.0821,87.0254 59.0821,87.6921 60.5,89.5 Z"/></g>
<g><path style="opacity:1" fill="#60bde9" d="M 44.5,79.5 C 45.7899,80.0577 46.6232,81.0577 47,82.5C 47.498,85.4816 47.6646,88.4816 47.5,91.5C 46.1634,92.3149 45.1634,93.4815 44.5,95C 48.9602,99.385 49.6268,104.218 46.5,109.5C 44.567,109.729 42.9003,110.562 41.5,112C 36.1131,112.784 30.7798,112.618 25.5,111.5C 24.7022,109.922 24.2022,108.256 24,106.5C 23.5002,97.5062 23.3336,88.5062 23.5,79.5C 25.1667,79.5 26.8333,79.5 28.5,79.5C 28.5,80.5 28.5,81.5 28.5,82.5C 28.5,85.8333 28.5,89.1667 28.5,92.5C 32.1817,92.6653 35.8484,92.4986 39.5,92C 40.3805,91.2917 41.0472,90.4584 41.5,89.5C 43.9593,87.0289 43.626,84.5289 40.5,82C 37.2198,81.944 34.2198,81.1107 31.5,79.5C 35.8061,78.5766 40.1394,78.5766 44.5,79.5 Z"/></g>
<g><path style="opacity:1" fill="#060d54" d="M 28.5,98.5 C 32.5138,98.3345 36.5138,98.5012 40.5,99C 43.2994,102.339 42.9661,105.339 39.5,108C 35.8484,108.499 32.1817,108.665 28.5,108.5C 28.5,105.167 28.5,101.833 28.5,98.5 Z"/></g>
<g><path style="opacity:1" fill="#040f54" d="M 28.5,82.5 C 32.1817,82.3347 35.8484,82.5014 39.5,83C 41.229,84.7889 41.8957,86.9556 41.5,89.5C 41.0472,90.4584 40.3805,91.2917 39.5,92C 35.8484,92.4986 32.1817,92.6653 28.5,92.5C 28.5,89.1667 28.5,85.8333 28.5,82.5 Z"/></g>
<g><path style="opacity:1" fill="#61bfeb" d="M 79.5,87.5 C 83.3494,87.632 86.8494,88.632 90,90.5C 90.3333,90.1667 90.6667,89.8333 91,89.5C 91.9977,96.4665 92.6643,103.467 93,110.5C 96.2009,112.558 95.7009,113.558 91.5,113.5C 90.7354,113.077 89.9021,112.743 89,112.5C 84.9878,114.106 80.8211,114.772 76.5,114.5C 72.6674,110.877 71.6674,106.544 73.5,101.5C 77.7942,98.0054 82.7942,96.6721 88.5,97.5C 89.0838,94.715 88.0838,93.0483 85.5,92.5C 82.0381,91.5184 78.3714,91.185 74.5,91.5C 74.5,90.5 74.5,89.5 74.5,88.5C 75.9187,87.5489 77.5853,87.2155 79.5,87.5 Z"/></g>
<g><path style="opacity:1" fill="#091257" d="M 81.5,101.5 C 83.8333,101.5 86.1667,101.5 88.5,101.5C 89.5104,108.672 86.5104,111.172 79.5,109C 77.8397,105.777 78.5064,103.277 81.5,101.5 Z"/></g>
<g><path style="opacity:1" fill="#050d56" d="M 107.5,76.5 C 108.75,76.5774 109.583,77.244 110,78.5C 110.794,81.4715 111.461,84.4715 112,87.5C 115.643,85.2427 119.476,84.9093 123.5,86.5C 122.71,87.4013 121.71,88.0679 120.5,88.5C 118.621,87.6586 116.621,87.3253 114.5,87.5C 113.507,96.3178 113.173,105.318 113.5,114.5C 115.735,114.795 117.735,114.461 119.5,113.5C 119.205,106.412 119.538,99.4122 120.5,92.5C 121.5,92.5 122.5,92.5 123.5,92.5C 125.579,92.9707 127.579,93.6373 129.5,94.5C 130.167,94.5 130.5,94.8333 130.5,95.5C 130.5,101.833 130.5,108.167 130.5,114.5C 132.5,114.5 134.5,114.5 136.5,114.5C 135.952,116.532 134.619,117.532 132.5,117.5C 132.357,119.262 132.691,120.929 133.5,122.5C 132.167,124.5 130.5,126.167 128.5,127.5C 127.417,128.365 127.251,129.365 128,130.5C 132.413,129.368 136.913,129.201 141.5,130C 142.308,130.308 142.975,130.808 143.5,131.5C 150.191,132.202 156.857,132.868 163.5,133.5C 166.549,131.534 169.882,131.034 173.5,132C 172.944,132.383 172.611,132.883 172.5,133.5C 170.5,133.5 168.5,133.5 166.5,133.5C 165.532,135.607 165.198,137.941 165.5,140.5C 164.5,140.5 163.5,140.5 162.5,140.5C 162.5,142.5 162.5,144.5 162.5,146.5C 163.5,146.5 164.5,146.5 165.5,146.5C 165.179,151.695 165.513,156.695 166.5,161.5C 167.779,168.376 171.779,170.376 178.5,167.5C 179.452,165.955 179.785,164.288 179.5,162.5C 181.359,162.461 182.692,163.294 183.5,165C 181.343,167.322 179.01,169.489 176.5,171.5C 173.295,170.135 169.961,169.135 166.5,168.5C 164.937,164.647 163.77,160.647 163,156.5C 160.877,159.97 159.71,159.97 159.5,156.5C 157.473,156.662 155.473,156.495 153.5,156C 152.663,154.989 152.33,153.822 152.5,152.5C 154.833,152.5 157.167,152.5 159.5,152.5C 159.5,151.167 159.5,149.833 159.5,148.5C 155.818,148.335 152.152,148.501 148.5,149C 147.544,152.394 147.211,155.894 147.5,159.5C 146.523,156.713 146.19,153.713 146.5,150.5C 146.539,149.417 146.873,148.417 147.5,147.5C 151.445,146.509 155.445,146.176 159.5,146.5C 159.5,144.833 159.5,143.167 159.5,141.5C 143.022,138.152 136.855,144.819 141,161.5C 141.847,163.193 142.68,164.86 143.5,166.5C 142.883,166.611 142.383,166.944 142,167.5C 140.649,166.039 139.149,164.706 137.5,163.5C 136.682,165.108 136.015,166.775 135.5,168.5C 129.175,170.586 122.842,170.753 116.5,169C 115.418,167.67 114.751,166.17 114.5,164.5C 113.504,164.586 112.671,164.252 112,163.5C 110.856,155.41 111.689,147.91 114.5,141C 112.433,140.464 110.599,140.964 109,142.5C 108.333,150.833 108.333,159.167 109,167.5C 109.333,166.167 109.667,164.833 110,163.5C 110.567,166.168 111.067,168.834 111.5,171.5C 110.022,171.238 108.689,171.571 107.5,172.5C 105.571,178.271 101.904,180.604 96.5,179.5C 99.6145,179.445 101.948,178.112 103.5,175.5C 105.245,173.967 106.245,171.967 106.5,169.5C 107.494,160.014 107.827,150.348 107.5,140.5C 105.833,140.5 104.167,140.5 102.5,140.5C 102.567,139.041 102.234,137.708 101.5,136.5C 103.415,136.784 105.081,136.451 106.5,135.5C 106.5,133.833 106.5,132.167 106.5,130.5C 105.081,129.549 103.415,129.216 101.5,129.5C 100.337,127.018 98.3373,125.684 95.5,125.5C 95.5,124.167 95.5,122.833 95.5,121.5C 90.1667,120.167 84.8333,120.167 79.5,121.5C 79.5,122.5 79.5,123.5 79.5,124.5C 77.1432,124.663 74.8098,124.497 72.5,124C 71.1667,123.333 71.1667,122.667 72.5,122C 75.6643,121.613 78.4977,120.446 81,118.5C 86.9878,119.909 92.8211,119.409 98.5,117C 97.244,116.583 96.5774,115.75 96.5,114.5C 94.7331,108.05 94.0664,101.383 94.5,94.5C 95.8779,92.0298 95.5446,89.6965 93.5,87.5C 95.256,86.4479 95.9227,84.7812 95.5,82.5C 90.7774,81.9929 86.1107,81.1596 81.5,80C 86.5605,80.0991 91.5605,79.9324 96.5,79.5C 97.4992,90.1528 98.4992,100.819 99.5,111.5C 100.167,103.343 100.833,95.3433 101.5,87.5C 102.091,86.8485 102.757,86.1818 103.5,85.5C 102.807,84.4822 102.141,83.4822 101.5,82.5C 103.5,82.5 105.5,82.5 107.5,82.5C 107.5,80.5 107.5,78.5 107.5,76.5 Z"/></g>
<g><path style="opacity:1" fill="#2b689f" d="M 106.5,87.5 C 107.493,96.3178 107.827,105.318 107.5,114.5C 105.265,114.795 103.265,114.461 101.5,113.5C 103.167,113.5 104.833,113.5 106.5,113.5C 106.5,104.833 106.5,96.1667 106.5,87.5 Z"/></g>
<g><path style="opacity:1" fill="#66c0ed" d="M 101.5,87.5 C 103.167,87.5 104.833,87.5 106.5,87.5C 106.5,96.1667 106.5,104.833 106.5,113.5C 104.833,113.5 103.167,113.5 101.5,113.5C 101.5,104.833 101.5,96.1667 101.5,87.5 Z"/></g>
<g><path style="opacity:1" fill="#3d6ba9" d="M 101.5,129.5 C 103.415,129.216 105.081,129.549 106.5,130.5C 104.833,130.5 103.167,130.5 101.5,130.5C 101.5,132.167 101.5,133.833 101.5,135.5C 103.167,135.5 104.833,135.5 106.5,135.5C 105.081,136.451 103.415,136.784 101.5,136.5C 100.167,134.167 100.167,131.833 101.5,129.5 Z"/></g>
<g><path style="opacity:1" fill="#69bdee" d="M 106.5,130.5 C 106.5,132.167 106.5,133.833 106.5,135.5C 104.833,135.5 103.167,135.5 101.5,135.5C 101.5,133.833 101.5,132.167 101.5,130.5C 103.167,130.5 104.833,130.5 106.5,130.5 Z"/></g>
<g><path style="opacity:1" fill="#5188c2" d="M 172.5,140.5 C 174.833,140.5 177.167,140.5 179.5,140.5C 179.5,142.5 179.5,144.5 179.5,146.5C 177.167,146.5 174.833,146.5 172.5,146.5C 174.265,145.539 176.265,145.205 178.5,145.5C 178.5,144.167 178.5,142.833 178.5,141.5C 176.265,141.795 174.265,141.461 172.5,140.5 Z"/></g>
<g><path style="opacity:1" fill="#275591" d="M 102.5,140.5 C 104.167,140.5 105.833,140.5 107.5,140.5C 107.827,150.348 107.494,160.014 106.5,169.5C 106.5,160.167 106.5,150.833 106.5,141.5C 104.833,141.5 103.167,141.5 101.5,141.5C 101.827,151.015 101.494,160.348 100.5,169.5C 100.5,160.833 100.5,152.167 100.5,143.5C 100.285,141.821 100.952,140.821 102.5,140.5 Z"/></g>
<g><path style="opacity:1" fill="#30619b" d="M 166.5,133.5 C 166.5,136.167 166.5,138.833 166.5,141.5C 165.5,141.5 164.5,141.5 163.5,141.5C 163.5,142.833 163.5,144.167 163.5,145.5C 164.5,145.5 165.5,145.5 166.5,145.5C 166.5,150.833 166.5,156.167 166.5,161.5C 165.513,156.695 165.179,151.695 165.5,146.5C 164.5,146.5 163.5,146.5 162.5,146.5C 162.5,144.5 162.5,142.5 162.5,140.5C 163.5,140.5 164.5,140.5 165.5,140.5C 165.198,137.941 165.532,135.607 166.5,133.5 Z"/></g>
<g><path style="opacity:1" fill="#5fb9e6" d="M 146.5,150.5 C 145.191,154.351 145.191,158.351 146.5,162.5C 150.765,163.439 155.098,163.772 159.5,163.5C 159.5,164.833 159.5,166.167 159.5,167.5C 153.996,169.105 148.662,168.772 143.5,166.5C 142.68,164.86 141.847,163.193 141,161.5C 136.855,144.819 143.022,138.152 159.5,141.5C 159.5,143.167 159.5,144.833 159.5,146.5C 155.445,146.176 151.445,146.509 147.5,147.5C 146.873,148.417 146.539,149.417 146.5,150.5 Z"/></g>
<g><path style="opacity:1" fill="#5fb7e5" d="M 166.5,133.5 C 168.5,133.5 170.5,133.5 172.5,133.5C 172.5,135.833 172.5,138.167 172.5,140.5C 174.265,141.461 176.265,141.795 178.5,141.5C 178.5,142.833 178.5,144.167 178.5,145.5C 176.265,145.205 174.265,145.539 172.5,146.5C 172.5,151.833 172.5,157.167 172.5,162.5C 174.833,162.5 177.167,162.5 179.5,162.5C 179.785,164.288 179.452,165.955 178.5,167.5C 171.779,170.376 167.779,168.376 166.5,161.5C 166.5,156.167 166.5,150.833 166.5,145.5C 165.5,145.5 164.5,145.5 163.5,145.5C 163.5,144.167 163.5,142.833 163.5,141.5C 164.5,141.5 165.5,141.5 166.5,141.5C 166.5,138.833 166.5,136.167 166.5,133.5 Z"/></g>
<g><path style="opacity:1" fill="#123e7a" d="M 135.5,156.5 C 129.923,156.856 124.59,157.856 119.5,159.5C 118.596,158.791 118.263,157.791 118.5,156.5C 124.167,156.5 129.833,156.5 135.5,156.5 Z"/></g>
<g><path style="opacity:1" fill="#030e55" d="M 53.5,140.5 C 53.5,149.5 53.5,158.5 53.5,167.5C 55.5,167.5 57.5,167.5 59.5,167.5C 59.1703,161.132 59.5037,154.798 60.5,148.5C 63.0205,147.215 65.6872,146.548 68.5,146.5C 68.5,144.5 68.5,142.5 68.5,140.5C 75.2793,139.528 81.9459,138.195 88.5,136.5C 92.4146,138.577 94.9146,137.577 96,133.5C 97.1107,142.085 97.944,150.752 98.5,159.5C 99.1668,154.015 99.8335,148.681 100.5,143.5C 100.5,152.167 100.5,160.833 100.5,169.5C 100.5,170.167 100.5,170.833 100.5,171.5C 99.8333,171.833 99.1667,172.167 98.5,172.5C 98.5,169.5 98.5,166.5 98.5,163.5C 95.1847,163.972 92.8514,165.805 91.5,169C 88.9615,169.796 86.6282,169.629 84.5,168.5C 90.3085,168.181 93.8085,165.181 95,159.5C 95.6667,155.833 95.6667,152.167 95,148.5C 94.6264,146.509 93.793,144.842 92.5,143.5C 92.1667,143.5 91.8333,143.5 91.5,143.5C 85.7077,139.541 79.8744,139.541 74,143.5C 73.2086,144.745 72.7086,146.078 72.5,147.5C 71.5233,150.287 71.19,153.287 71.5,156.5C 70.7784,156.082 70.2784,155.416 70,154.5C 68.3597,157.613 66.8597,160.78 65.5,164C 67.9352,168.081 70.4352,171.914 73,175.5C 71.3547,175.307 69.5213,175.14 67.5,175C 66.3333,173.833 65.1667,172.667 64,171.5C 63.7811,172.938 63.2811,174.271 62.5,175.5C 61.5258,173.257 61.1924,170.924 61.5,168.5C 58.8004,169.516 56.1337,169.516 53.5,168.5C 52.8333,160.167 52.1667,151.833 51.5,143.5C 50.9836,146.185 49.6503,148.185 47.5,149.5C 49.5091,143.369 48.5091,137.869 44.5,133C 42.9751,131.991 41.3084,131.491 39.5,131.5C 34.0247,130.511 28.358,130.178 22.5,130.5C 22.5,142.833 22.5,155.167 22.5,167.5C 24.5,167.5 26.5,167.5 28.5,167.5C 28.5,163.833 28.5,160.167 28.5,156.5C 28.8333,156.5 29.1667,156.5 29.5,156.5C 29.5,160.5 29.5,164.5 29.5,168.5C 26.4281,168.817 23.4281,168.484 20.5,167.5C 20.0133,166.554 19.6799,165.554 19.5,164.5C 20.3613,157.076 20.6946,149.576 20.5,142C 18.5026,137.666 18.5026,133.499 20.5,129.5C 27.372,129.326 34.2053,128.993 41,128.5C 43.7383,129.482 46.5716,130.148 49.5,130.5C 49.3354,133.518 49.502,136.518 50,139.5C 51.2087,139.653 52.3754,139.986 53.5,140.5 Z"/></g>
<g><path style="opacity:1" fill="#69a7de" d="M 39.5,131.5 C 34.2384,131.195 29.0717,131.529 24,132.5C 24.145,143.529 24.145,154.529 24,165.5C 25.0113,166.337 26.1779,166.67 27.5,166.5C 27.1872,162.958 27.5206,159.625 28.5,156.5C 28.5,160.167 28.5,163.833 28.5,167.5C 26.5,167.5 24.5,167.5 22.5,167.5C 22.5,155.167 22.5,142.833 22.5,130.5C 28.358,130.178 34.0247,130.511 39.5,131.5 Z"/></g>
<g><path style="opacity:1" fill="#61bbe8" d="M 53.5,140.5 C 55.5,140.5 57.5,140.5 59.5,140.5C 59.281,141.675 59.6143,142.675 60.5,143.5C 62.9793,141.924 65.646,140.924 68.5,140.5C 68.5,142.5 68.5,144.5 68.5,146.5C 65.6872,146.548 63.0205,147.215 60.5,148.5C 59.5037,154.798 59.1703,161.132 59.5,167.5C 57.5,167.5 55.5,167.5 53.5,167.5C 53.5,158.5 53.5,149.5 53.5,140.5 Z"/></g>
<g><path style="opacity:1" fill="#67b3e6" d="M 91.5,143.5 C 90.5,143.5 89.5,143.5 88.5,143.5C 88.8333,145.5 89.1667,147.5 89.5,149.5C 86.7076,145.638 83.0409,144.638 78.5,146.5C 78.5,145.5 78.5,144.5 78.5,143.5C 77.5,143.5 76.5,143.5 75.5,143.5C 75.5086,145.308 75.0086,146.975 74,148.5C 73.6174,147.944 73.1174,147.611 72.5,147.5C 72.7086,146.078 73.2086,144.745 74,143.5C 79.8744,139.541 85.7077,139.541 91.5,143.5 Z"/></g>
<g><path style="opacity:1" fill="#60bbe8" d="M 39.5,131.5 C 41.3084,131.491 42.9751,131.991 44.5,133C 48.5091,137.869 49.5091,143.369 47.5,149.5C 46.7225,152.112 45.0559,153.945 42.5,155C 38.2695,156.29 33.9362,156.79 29.5,156.5C 29.1667,156.5 28.8333,156.5 28.5,156.5C 27.5206,159.625 27.1872,162.958 27.5,166.5C 26.1779,166.67 25.0113,166.337 24,165.5C 24.145,154.529 24.145,143.529 24,132.5C 29.0717,131.529 34.2384,131.195 39.5,131.5 Z"/></g>
<g><path style="opacity:1" fill="#041054" d="M 28.5,136.5 C 32.1817,136.335 35.8484,136.501 39.5,137C 43.3087,141.227 43.3087,145.56 39.5,150C 35.8484,150.499 32.1817,150.665 28.5,150.5C 28.5,145.833 28.5,141.167 28.5,136.5 Z"/></g>
<g><path style="opacity:1" fill="#64b8e7" d="M 135.5,156.5 C 129.833,156.5 124.167,156.5 118.5,156.5C 118.263,157.791 118.596,158.791 119.5,159.5C 119.427,161.027 120.094,162.027 121.5,162.5C 125.634,163.485 129.968,163.818 134.5,163.5C 134.5,164.5 134.5,165.5 134.5,166.5C 127.41,169.791 120.744,169.124 114.5,164.5C 111.674,157.757 111.841,151.09 115,144.5C 119.841,140.121 125.341,139.288 131.5,142C 133.049,143.214 134.215,144.714 135,146.5C 135.498,149.817 135.665,153.15 135.5,156.5 Z"/></g>
<g><path style="opacity:1" fill="#57c5eb" d="M 129.5,152.5 C 129.933,149.741 131.6,148.408 134.5,148.5C 134.5,150.833 134.5,153.167 134.5,155.5C 132.833,155.5 131.167,155.5 129.5,155.5C 129.5,154.5 129.5,153.5 129.5,152.5 Z"/></g>
<g><path style="opacity:1" fill="#051759" d="M 129.5,152.5 C 125.833,152.5 122.167,152.5 118.5,152.5C 118.008,147.994 120.008,145.661 124.5,145.5C 128.813,145.826 130.48,148.159 129.5,152.5 Z"/></g>
<g><path style="opacity:1" fill="#4e8ac1" d="M 146.5,150.5 C 146.19,153.713 146.523,156.713 147.5,159.5C 147.414,160.496 147.748,161.329 148.5,162C 152.356,162.177 156.023,162.677 159.5,163.5C 155.098,163.772 150.765,163.439 146.5,162.5C 145.191,158.351 145.191,154.351 146.5,150.5 Z"/></g>
<g><path style="opacity:1" fill="#61c1ec" d="M 106.5,169.5 C 106.245,171.967 105.245,173.967 103.5,175.5C 102.5,175.5 101.5,175.5 100.5,175.5C 100.5,174.167 100.5,172.833 100.5,171.5C 100.5,170.833 100.5,170.167 100.5,169.5C 101.494,160.348 101.827,151.015 101.5,141.5C 103.167,141.5 104.833,141.5 106.5,141.5C 106.5,150.833 106.5,160.167 106.5,169.5 Z"/></g>
<g><path style="opacity:1" fill="#21518c" d="M 121.5,162.5 C 126.167,162.5 130.833,162.5 135.5,162.5C 135.768,164.099 135.434,165.432 134.5,166.5C 134.5,165.5 134.5,164.5 134.5,163.5C 129.968,163.818 125.634,163.485 121.5,162.5 Z"/></g>
<g><path style="opacity:1" fill="#5fb8e6" d="M 78.5,146.5 C 78.5,147.167 78.5,147.833 78.5,148.5C 77.3547,152.311 77.1881,156.311 78,160.5C 81.5425,164.42 85.0425,164.42 88.5,160.5C 88.3505,161.552 88.5172,162.552 89,163.5C 90.0113,162.663 91.1779,162.33 92.5,162.5C 93.7791,156.174 93.7791,149.841 92.5,143.5C 93.793,144.842 94.6264,146.509 95,148.5C 95.6667,152.167 95.6667,155.833 95,159.5C 93.8085,165.181 90.3085,168.181 84.5,168.5C 76.2939,168.625 71.9605,164.625 71.5,156.5C 71.19,153.287 71.5233,150.287 72.5,147.5C 73.1174,147.611 73.6174,147.944 74,148.5C 75.0086,146.975 75.5086,145.308 75.5,143.5C 76.5,143.5 77.5,143.5 78.5,143.5C 78.5,144.5 78.5,145.5 78.5,146.5 Z"/></g>
<g><path style="opacity:1" fill="#061c5c" d="M 89.5,149.5 C 89.756,153.269 89.4227,156.936 88.5,160.5C 85.0425,164.42 81.5425,164.42 78,160.5C 77.1881,156.311 77.3547,152.311 78.5,148.5C 78.5,147.833 78.5,147.167 78.5,146.5C 83.0409,144.638 86.7076,145.638 89.5,149.5 Z"/></g>
<g><path style="opacity:1" fill="#090854" d="M 78.5,148.5 C 79.1174,148.389 79.6174,148.056 80,147.5C 82.3333,148.167 84.6667,148.833 87,149.5C 87.8236,152.882 87.657,156.216 86.5,159.5C 84.1187,161.769 81.6187,161.769 79,159.5C 78.5014,155.848 78.3347,152.182 78.5,148.5 Z"/></g>
<g><path style="opacity:1" fill="#5dc3ec" d="M 91.5,143.5 C 91.8333,143.5 92.1667,143.5 92.5,143.5C 93.7791,149.841 93.7791,156.174 92.5,162.5C 91.1779,162.33 90.0113,162.663 89,163.5C 88.5172,162.552 88.3505,161.552 88.5,160.5C 89.4227,156.936 89.756,153.269 89.5,149.5C 89.1667,147.5 88.8333,145.5 88.5,143.5C 89.5,143.5 90.5,143.5 91.5,143.5 Z"/></g>
<g><path style="opacity:1" fill="#68ace2" d="M 100.5,171.5 C 100.5,172.833 100.5,174.167 100.5,175.5C 101.5,175.5 102.5,175.5 103.5,175.5C 101.948,178.112 99.6145,179.445 96.5,179.5C 96.4606,178.417 96.1272,177.417 95.5,176.5C 96.5244,175.148 97.5244,173.815 98.5,172.5C 99.1667,172.167 99.8333,171.833 100.5,171.5 Z"/></g>
</svg>
