<svg xmlns="http://www.w3.org/2000/svg" width="243" height="346" style="shape-rendering:geometricPrecision;text-rendering:geometricPrecision;image-rendering:optimizeQuality;fill-rule:evenodd;clip-rule:evenodd"><path style="opacity:1" fill="#040404" d="M141.5 147.5c.311.978.978 1.645 2 2 3.747-1.372 7.413-2.372 11-3-.237 1.291.096 2.291 1 3a49.369 49.369 0 0 1 11-1 31.147 31.147 0 0 0 2-2c1.939 2.118 4.106 2.451 6.5 1 1.848 2.188 3.348 2.188 4.5 0 .996.086 1.829-.248 2.5-1 .225 3.97 1.559 4.637 4 2 2.913.5 5.913.167 9-1 2.728.264 5.061 1.264 7 3 2.868-3.44 5.868-3.44 9 0 1.898-2.63 3.731-2.963 5.5-1a49.863 49.863 0 0 1 5.5-1l1 2a20.528 20.528 0 0 1 4.5-3 200.6 200.6 0 0 1 6 1h4c.998.087 2.165.42 3.5 1 .5 18.33.667 36.664.5 55-44.054-14.245-84.721-7.745-122 19.5-7.847 5.837-13.347 13.337-16.5 22.5-4.04 14.78-5.374 29.78-4 45a610.053 610.053 0 0 0-16 29c-.978 3.169-.478 6.003 1.5 8.5a60.93 60.93 0 0 0 11 .5 53.796 53.796 0 0 0 2 8v7h-31v-21H.5c-.167-58.668 0-117.334.5-176 2.494 2.401 4.827 2.401 7 0 2.04.923 4.207 1.256 6.5 1-.13.876.203 1.543 1 2 .765-1.112 1.765-1.779 3-2-.04 1.724.294 2.057 1 1 3.079-.24 6.079.093 9 1 1.022-.355 1.689-1.022 2-2 .06-.543.393-.876 1-1a20.477 20.477 0 0 0 5.5 3 87.539 87.539 0 0 0 5-3c.667 1.333 1.333 1.333 2 0a6.544 6.544 0 0 1 3 3c3.183-2.379 6.516-2.379 10 0 1.676-.561 3.01-1.561 4-3l2 2c.388-.928 1.055-1.595 2-2a18.181 18.181 0 0 0 3.5 2c3.677-.83 7.177-.83 10.5 0l2-2c.924 1.995 2.09 2.328 3.5 1 6.966.517 14.466.517 22.5 0 .388-.928 1.055-1.595 2-2a16.252 16.252 0 0 0 4.5 2c1.147-.318 1.981-.984 2.5-2 1.729 2.579 3.562 2.579 5.5 0 1.017 2.528 2.184 2.528 3.5 0 .483.948.649 1.948.5 3 1.7-.126 3.2-.793 4.5-2 .945.405 1.612 1.072 2 2 3.003-.303 6.17-.969 9.5-2z"/><path style="opacity:1" fill="#c7c6c6" d="M-.5-.5h243v346h-175v-1h30v-7c.814 2.131 1.314 4.464 1.5 7 .493-1.634.66-3.301.5-5h1v5h119c-1.335-6.482-.668-6.649 2-.5 4.655.499 9.321.666 14 .5h6c.608-5.444-.058-10.444-2-15-.667 0-1-.333-1-1h3c.327-9.848-.006-19.514-1-29 1.531-1.425 1.198-2.091-1-2 2.889-4.56 2.556-8.893-1-13 .363-.683.696-1.35 1-2-.876.131-1.543-.202-2-1a66.028 66.028 0 0 1 4-7.5l-3-4.5a7.47 7.47 0 0 0-2 3 2.428 2.428 0 0 1-2-.5c1.514-1.439 1.847-2.939 1-4.5a16.332 16.332 0 0 0-2 4l-2-1c-2.262-2.044-1.596-3.544 2-4.5a8.43 8.43 0 0 0-4-.5c.453-.958 1.119-1.792 2-2.5-3.878-.949-3.878-2.115 0-3.5l-3-2c1.898-.496 2.898-1.163 3-2-.963-.863-.963-1.53 0-2a5.576 5.576 0 0 0 3 1c.172-.992-.162-1.658-1-2v-2h2c.06.543.393.876 1 1a6.802 6.802 0 0 0 1.5-3l2.5 3a111.148 111.148 0 0 0 1-21v-20c-2.995.206-5.662-.46-8-2 2.42-.208 4.753.126 7 1 .886-.825 1.219-1.825 1-3v-2c.167-18.336 0-36.67-.5-55-1.335-.58-2.502-.913-3.5-1-1.333-1-1.333-2 0-3 .167-47.995.667-47.995 1.5 0a3.647 3.647 0 0 1 1.5-1c1-47.995 1.333-95.995 1-144H.5c-.333 23.343 0 46.676 1 70 1.35 1.45 3.016 2.117 5 2 .204-1.89-.463-3.39-2-4.5 1.869-1.602 3.869-2.602 6-3 1.035 3.611 2.702 4.111 5 1.5l-1-2a13.117 13.117 0 0 1 7-1c-.384 2.165.283 3.832 2 5 2.04-4.887 4.708-5.054 8-.5-.544.717-1.21 1.217-2 1.5-.085 1.495.581 2.495 2 3 1.12-1.333 2.453-1.833 4-1.5a32.367 32.367 0 0 0 3 4.5c-2.43.86-3.764 2.527-4 5a6.845 6.845 0 0 0 4-1 13.117 13.117 0 0 1 1 7c-1.788-.285-3.455.048-5 1 3.98 2.72 3.98 5.387 0 8-1.12-1.333-2.453-1.833-4-1.5v6a28.907 28.907 0 0 0-4 1.5c-1.195-1.797-2.862-2.797-5-3v5h-7c.332-5.701-1.168-6.368-4.5-2a14.764 14.764 0 0 1-5.5-3c2.667-4.667 1.667-5.667-3-3-1.513 21.101-1.513 32.767 0 35a206.99 206.99 0 0 0 3 14c-.172.992.162 1.658 1 2 1.291.237 2.291-.096 3-1 .167-47.995.667-47.995 1.5 0 .835-46.652 2.001-46.652 3.5 0a614.704 614.704 0 0 0 1.5-35c1.166 46.662 2 46.662 2.5 0h3c-.166 12.005 0 24.005.5 36 1.563-2.544 3.063-2.544 4.5 0a4.451 4.451 0 0 0 1.5-2c.5-11.328.666-22.662.5-34l2 34c.184 2.425.85 2.425 2 0a3.647 3.647 0 0 1 1.5 1c.667-48 1.333-48 2 0 1.333 1.333 2.667 1.333 4 0l1-36 1 35c2.701-1.028 5.201-1.028 7.5 0h1v1a67.862 67.862 0 0 0 7 2l2-1c1.44-.863 2.774-.863 4 0 1.25-1.975 2.75-2.309 4.5-1 .5-8.66.666-17.327.5-26l2-2a211.12 211.12 0 0 0 1 29c.683-.363 1.35-.696 2-1 1.318-10.235 1.318-20.569 0-31a5.727 5.727 0 0 1 3 1v1c-1.323 9.841-1.323 19.841 0 30 .607-.124.94-.457 1-1h2c.69 1.274 1.523 1.274 2.5 0l.5-17c-.044-6.241-.711-12.241-2-18h3c.167 47.995.667 47.995 1.5 0-.15 12.043.684 23.71 2.5 35-.282 1.278-.949 2.278-2 3-1.41 1.328-2.576.995-3.5-1l-2 2c-3.323-.83-6.823-.83-10.5 0a18.181 18.181 0 0 1-3.5-2c-.945.405-1.612 1.072-2 2l-2-2c-.99 1.439-2.324 2.439-4 3-3.484-2.379-6.817-2.379-10 0a6.544 6.544 0 0 0-3-3c-.667 1.333-1.333 1.333-2 0a87.539 87.539 0 0 1-5 3 20.477 20.477 0 0 1-5.5-3c-.607.124-.94.457-1 1-3.728-.707-7.395-.374-11 1-.706 1.057-1.04.724-1-1a2.427 2.427 0 0 0-.5-2 18.476 18.476 0 0 1-3.5 2c-2.293.256-4.46-.077-6.5-1-2.173 2.401-4.506 2.401-7 0-.5 58.666-.667 117.332-.5 176h-1V-.5z"/><path style="opacity:1" fill="#646464" d="M18.5 148.5c-1.235.221-2.235.888-3 2-.797-.457-1.13-1.124-1-2a18.476 18.476 0 0 0 3.5-2c.464.594.631 1.261.5 2z"/><path style="opacity:1" fill="#707070" d="M157.5 146.5c2.73 1.317 5.563 1.317 8.5 0 .464.594.631 1.261.5 2a49.369 49.369 0 0 0-11 1c.432-1.21 1.099-2.21 2-3z"/><path style="opacity:1" fill="#3c3c3c" d="M30.5 148.5c-.311.978-.978 1.645-2 2a23.833 23.833 0 0 0-9-1c3.605-1.374 7.272-1.707 11-1z"/><path style="opacity:1" fill="#d9d9d9" d="M177.5 110.5h1c-.167 12.005 0 24.005.5 36 .717-.544 1.217-1.211 1.5-2 .667 0 1-.333 1-1h1l2 1c.283.789.783 1.456 1.5 2 .951-.384 1.784-.717 2.5-1h1c1.598-.11 3.265-.443 5-1 .617-.111 1.117-.444 1.5-1l1-33 1 34a37.138 37.138 0 0 0 4.5 2c1.226-1.778 2.893-2.778 5-3 .582 1.431 1.415 2.764 2.5 4 .5-12.329.667-24.662.5-37 .995 11.488 1.328 23.155 1 35 2.52-.136 5.186.198 8 1 .06.543.393.876 1 1 .765-1.112 1.765-1.779 3-2 2.782-.437 5.449-.437 8 0h1c.763.768 1.763 1.268 3 1.5-.916.278-1.582.778-2 1.5a200.6 200.6 0 0 0-6-1 20.528 20.528 0 0 0-4.5 3l-1-2a49.863 49.863 0 0 0-5.5 1c-1.769-1.963-3.602-1.63-5.5 1-3.132-3.44-6.132-3.44-9 0-1.939-1.736-4.272-2.736-7-3-3.087 1.167-6.087 1.5-9 1-2.441 2.637-3.775 1.97-4-2-.671.752-1.504 1.086-2.5 1-1.808.009-3.475-.491-5-1.5.916-.278 1.582-.778 2-1.5.995-11.154 1.328-22.488 1-34z"/><path style="opacity:1" fill="#c7c7c7" d="M145.5 110.5a570.642 570.642 0 0 1 1.5 34c.5-11.328.667-22.662.5-34h3a289.882 289.882 0 0 0 1 34 3.647 3.647 0 0 0 1.5-1 547.383 547.383 0 0 1 1.5-33c.607.124.94.457 1 1-.677 11.069-1.343 22.235-2 33.5.556.383.889.883 1 1.5-3.587.628-7.253 1.628-11 3-1.022-.355-1.689-1.022-2-2 1.527.073 2.527-.594 3-2 .995-11.488 1.328-23.155 1-35z"/><path style="opacity:1" fill="#bcbcbc" d="M166.5 110.5c-.167 11.671 0 23.338.5 35 .717-.544 1.217-1.211 1.5-2 .817-2.469 1.317-5.135 1.5-8 .5-8.327.666-16.66.5-25a570.642 570.642 0 0 1 1.5 34c.5-10.995.667-21.995.5-33a506.426 506.426 0 0 1 1.5 32l1-22a260.63 260.63 0 0 0 1.5 23c-.418.722-1.084 1.222-2 1.5 1.525 1.009 3.192 1.509 5 1.5-1.152 2.188-2.652 2.188-4.5 0-2.394 1.451-4.561 1.118-6.5-1a31.147 31.147 0 0 1-2 2 2.428 2.428 0 0 0-.5-2c-2.937 1.317-5.77 1.317-8.5 0a12.93 12.93 0 0 0 5-.5c-.916-.278-1.582-.778-2-1.5a570.642 570.642 0 0 0 1.5-34c.667 45.333 1.333 45.333 2 0l1 35a604.989 604.989 0 0 1 1.5-35z"/><path style="opacity:1" fill="#d1d1d1" d="M100.5 144.5c.342.838 1.008 1.172 2 1l2-35c-.167 12.005 0 24.005.5 36 .278-.916.778-1.582 1.5-2h4a289.882 289.882 0 0 1 1-34c.624 12.369 1.29 23.369 2 33l2 1c.995-11.154 1.328-22.488 1-34a640.343 640.343 0 0 1 1.5 36 757.939 757.939 0 0 0 2.5-36c.667 42.667 1.333 42.667 2 0l2 33a31.147 31.147 0 0 1 2 2 307.162 307.162 0 0 0 1-35 570.642 570.642 0 0 1 1.5 34c.671-.752 1.504-1.086 2.5-1 0 1.333.667 2 2 2 .6-1.4 1.6-2.4 3-3 .763-7.978 1.43-18.645 2-32 .667 11.826 1.333 23.493 2 35l1 2c-3.33 1.031-6.497 1.697-9.5 2-.388-.928-1.055-1.595-2-2-1.3 1.207-2.8 1.874-4.5 2a4.934 4.934 0 0 0-.5-3c-1.316 2.528-2.483 2.528-3.5 0-1.938 2.579-3.771 2.579-5.5 0-.519 1.016-1.353 1.682-2.5 2a16.252 16.252 0 0 1-4.5-2c-.945.405-1.612 1.072-2 2-8.034.517-15.534.517-22.5 0 1.051-.722 1.718-1.722 2-3h1c.438 1.006 1.104 1.006 2 0 1.279 1.215 2.279.882 3-1 .722.418 1.222 1.084 1.5 2 .399-.228.565-.562.5-1h1c1.21-.432 2.21-1.099 3-2a538.095 538.095 0 0 0 1.5-33c.5 11.328.667 22.662.5 34z"/><path style="opacity:1" fill="#676767" d="M70.5 113.5c-.607 10.923.06 21.59 2 32-.65.304-1.317.637-2 1a211.12 211.12 0 0 1-1-29c-.268-1.599.066-2.932 1-4z"/><path style="opacity:1" fill="#f6f6f6" d="M155.5 111.5c-.328 11.179.005 22.179 1 33h4c.418.722 1.084 1.222 2 1.5a12.93 12.93 0 0 1-5 .5c-.901.79-1.568 1.79-2 3-.904-.709-1.237-1.709-1-3-.111-.617-.444-1.117-1-1.5.657-11.265 1.323-22.431 2-33.5z"/><path style="opacity:1" fill="#ededed" d="M144.5 145.5c-.473 1.406-1.473 2.073-3 2l-1-2v-18c.667-5.181 1.333-10.515 2-16a945.068 945.068 0 0 1 2 34z"/><path style="opacity:1" fill="#5f5f5f" d="M210.5 110.5c.167 12.338 0 24.671-.5 37-1.085-1.236-1.918-2.569-2.5-4 .617.111 1.117.444 1.5 1a570.642 570.642 0 0 1 1.5-34z"/><path style="opacity:1" fill="#767676" d="M223.5 145.5c-1.235.221-2.235.888-3 2-.607-.124-.94-.457-1-1 .722-.418 1.222-1.084 1.5-2a581.022 581.022 0 0 1 1.5-34 307.162 307.162 0 0 1 1 35z"/><path style="opacity:1" fill="#a4a4a4" d="M234.5 110.5a305.436 305.436 0 0 0 3 35c-1.333 1-1.333 2 0 3h-4c.418-.722 1.084-1.222 2-1.5-1.237-.232-2.237-.732-3-1.5 1.978-11.285 2.645-22.952 2-35z"/><path style="opacity:1" fill="#474747" d="M75.5 116.5c-.327 9.848.006 19.514 1 29-.06.543-.393.876-1 1-1.323-10.159-1.323-20.159 0-30z"/><path style="opacity:1" fill="#9e9e9e" d="M77.5 109.5c.667 0 1 .333 1 1v35h-2a334.232 334.232 0 0 0 1-36z"/><path style="opacity:1" fill="#979797" d="M47.5 110.5c1.392-1.022 2.725-.689 4 1-1.924 1.465-2.257 3.132-1 5-.994 9.152-1.327 18.485-1 28h-1c.328-11.512-.005-22.846-1-34z"/><path style="opacity:1" fill="#939393" d="M57.5 114.5c-.995 10.821-1.328 21.821-1 33a67.862 67.862 0 0 1-7-2h4c.327-10.181-.006-20.181-1-30 1.495-1.845 3.162-2.178 5-1z"/><path style="opacity:1" fill="#212121" d="M78.5 110.5h1c1.289 5.759 1.956 11.759 2 18l-.5 17c-.977 1.274-1.81 1.274-2.5 0v-35z"/><path style="opacity:1" fill="#090909" d="M77.5 109.5c.312 12.08-.021 24.08-1 36-.994-9.486-1.327-19.152-1-29v-1c1.015-.96 1.015-2.127 0-3.5.139-1.301.805-2.134 2-2.5z"/><path style="opacity:1" fill="#6e6e6e" d="M57.5 114.5v4h3c-1.93 9.07-2.597 18.403-2 28l-2 1c-.328-11.179.005-22.179 1-33z"/><path style="opacity:1" fill="#0a0a0a" d="M70.5 113.5c.992-.172 1.658.162 2 1 1.318 10.431 1.318 20.765 0 31-1.94-10.41-2.607-21.077-2-32z"/><path style="opacity:1" fill="#0d0d0d" d="M52.5 115.5c.994 9.819 1.327 19.819 1 30h-4v-1c-.327-9.515.006-18.848 1-28 .992.172 1.658-.162 2-1z"/><path style="opacity:1" fill="#050505" d="M67.5 119.5c.166 8.673 0 17.34-.5 26-1.75-1.309-3.25-.975-4.5 1-1.226-.863-2.56-.863-4 0-.597-9.597.07-18.93 2-28v-2c3.28-1.416 5.613-.416 7 3z"/><path style="opacity:1" fill="#1c1c1c" d="M85.5 104.5c.506 1.929 1.506 3.595 3 5-.825.886-1.825 1.219-3 1-.612 11.919.054 23.586 2 35h-1c-1.816-11.29-2.65-22.957-2.5-35-.833 47.995-1.333 47.995-1.5 0a325.352 325.352 0 0 0-2-5l1-2a6.845 6.845 0 0 0 4 1z"/><path style="opacity:1" fill="#e1e1e1" d="M68.5 83.5h2c-6.335 9.954-3.335 14.62 9 14-.577-4.483-2.243-8.483-5-12 1.322-.17 2.489.163 3.5 1 .278-.916.778-1.582 1.5-2 .44 2.969 1.94 3.635 4.5 2 3.38 1.507 3.213 2.84-.5 4-.886.825-1.219 1.825-1 3 3.45-.744 5.116.59 5 4h-5c-.333 3 1 4.333 4 4 .237 1.291-.096 2.291-1 3a6.845 6.845 0 0 1-4-1l-1 2a325.352 325.352 0 0 1 2 5h-4c0-.667-.333-1-1-1-1.195.366-1.861 1.199-2 2.5 1.015 1.373 1.015 2.54 0 3.5a5.727 5.727 0 0 0-3-1c-.342-.838-1.008-1.172-2-1-.934 1.068-1.268 2.401-1 4l-2 2c-1.387-3.416-3.72-4.416-7-3-.214-1.644.12-3.144 1-4.5-1.237-.232-2.237-.732-3-1.5h5c.033-3.336-.634-6.503-2-9.5L57 99.5a137.833 137.833 0 0 1-8.5 4c-1.051-.722-1.718-1.722-2-3 5.486.518 9.153-1.982 11-7.5-2.27-2.782-4.937-4.949-8-6.5l2-2a46.142 46.142 0 0 1 6 5.5c2.402.814 4.735.647 7-.5 1.16-2.21 2.493-4.21 4-6z"/><path style="opacity:1" fill="#0e0e0e" d="M58.5 110.5c-4.387-.858-7.72-3.191-10-7a137.833 137.833 0 0 0 8.5-4l4.5 1.5c1.366 2.997 2.033 6.164 2 9.5h-5z"/><path style="opacity:1" fill="#0d0d0d" d="M67.5 97.5c11.847-.225 13.514 3.275 5 10.5-1.85.837-3.684 1.671-5.5 2.5-.897-2.99-1.73-5.99-2.5-9 1.788-.783 2.788-2.116 3-4z"/><path style="opacity:1" fill="#131313" d="M59.5 92.5a10.1 10.1 0 0 1 6 1.5c1.15 4.186-.517 5.852-5 5-2.184-1.898-2.517-4.064-1-6.5z"/><path style="opacity:1" fill="#0c0c0c" d="M39.5 86.5c-1.454 2.9-.454 4.233 3 4v4h-5v3h5v4c-4.041.074-4.708 1.407-2 4 1.542-1.247 3.042-1.247 4.5 0a49.673 49.673 0 0 0-1.5 6c1.459.067 2.792-.266 4-1 .995 11.154 1.328 22.488 1 34-2.299-1.028-4.799-1.028-7.5 0l-1-35-1 36c-1.333 1.333-2.667 1.333-4 0-.667-48-1.333-48-2 0a3.647 3.647 0 0 0-1.5-1c-1.15 2.425-1.816 2.425-2 0a307.139 307.139 0 0 0-1-35c-.607.124-.94.457-1 1 .166 11.338 0 22.672-.5 34a4.451 4.451 0 0 1-1.5 2c-1.437-2.544-2.937-2.544-4.5 0a648.437 648.437 0 0 1-.5-36h-3c-.5 46.662-1.334 46.662-2.5 0a614.704 614.704 0 0 1-1.5 35c-1.499-46.652-2.665-46.652-3.5 0-.833-47.995-1.333-47.995-1.5 0-.667-11.507-1.333-23.174-2-35a324.881 324.881 0 0 0-1 36c-.838-.342-1.172-1.008-1-2v-34h-3v20c-1.513-2.233-1.513-13.899 0-35 4.667-2.667 5.667-1.667 3 3a14.764 14.764 0 0 0 5.5 3c3.332-4.368 4.832-3.701 4.5 2h7v-5c2.138.203 3.805 1.203 5 3a28.907 28.907 0 0 1 4-1.5v-6c1.547-.333 2.88.167 4 1.5 3.98-2.613 3.98-5.28 0-8 1.545-.952 3.212-1.285 5-1z"/><path style="opacity:1" fill="#3e3e3e" d="M27.5 110.5c.06-.543.393-.876 1-1a307.139 307.139 0 0 1 1 35l-2-34z"/><path style="opacity:1" fill="#b1b1b1" d="M4.5 144.5a206.99 206.99 0 0 1-3-14v-20h3v34z"/><path style="opacity:1" fill="#656565" d="M8.5 145.5c-.709.904-1.709 1.237-3 1a324.881 324.881 0 0 1 1-36c.667 11.826 1.333 23.493 2 35z"/><path style="opacity:1" fill="#101010" d="M49.5 86.5c3.063 1.551 5.73 3.718 8 6.5-1.847 5.518-5.514 8.018-11 7.5-1.796-5.358-.796-10.025 3-14z"/><path style="opacity:1" fill="#0a0b0c" d="M29.5 69.5c-.79.283-1.456.783-2 1.5 1.872 3.635 4.206 4.135 7 1.5a11.383 11.383 0 0 1 2 2.5c-3.688 1.133-4.688 3.3-3 6.5h5v3h-5a6.845 6.845 0 0 1-1 4c2.668 1.015 3.334 2.682 2 5a18.088 18.088 0 0 1-3.5-2L27.5 95c1.812 1.627 1.979 3.127.5 4.5a283.046 283.046 0 0 1-4.5-3c-2.992.31-4.325 1.976-4 5h-3v-4l-6-1v3h-3c1.805-3.41.972-6.076-2.5-8-1.11 1.537-2.61 2.204-4.5 2a20.813 20.813 0 0 1 3-6c-.425-1.88-1.425-3.38-3-4.5a11.796 11.796 0 0 0 3-5C1.702 76.907.868 75.407 1 73.5l1-1c2.864 2.826 5.03 2.326 6.5-1.5-.26-1.261-.926-2.261-2-3 2.244-2.303 3.91-1.97 5 1 3.666.823 5.333-.677 5-4.5h3c-.67 3.09.497 4.757 3.5 5 1.887-.469 3.387-1.469 4.5-3 1.419.505 2.085 1.505 2 3z"/><path style="opacity:1" fill="#1e2628" d="M19.5 77.5c2.104 1.872 3.437 4.205 4 7 .17 1.322-.163 2.489-1 3.5-5.854 2.739-9.854 1.072-12-5 1.321-5.23 4.321-7.064 9-5.5z"/><path style="opacity:1" fill="#111" d="M70.5 83.5c1.562.233 2.895.9 4 2 2.757 3.517 4.423 7.517 5 12-12.335.62-15.335-4.046-9-14z"/><path style="opacity:1" fill="#eee" d="M79.5 84.5c-.722.418-1.222 1.084-1.5 2-1.011-.837-2.178-1.17-3.5-1-1.105-1.1-2.438-1.767-4-2h-2c-.077-1.25-.744-2.083-2-2.5-5.725-1.323-10.725-.157-15 3.5l-2 2c-3.796 3.975-4.796 8.642-3 14 .282 1.278.949 2.278 2 3 2.28 3.809 5.613 6.142 10 7 .763.768 1.763 1.268 3 1.5-.88 1.356-1.214 2.856-1 4.5v2h-3v-4c-1.838-1.178-3.505-.845-5 1-.342.838-1.008 1.172-2 1-1.257-1.868-.924-3.535 1-5-1.275-1.689-2.608-2.022-4-1-1.208.734-2.541 1.067-4 1 .405-2.15.905-4.15 1.5-6-1.458-1.247-2.958-1.247-4.5 0-2.708-2.593-2.041-3.926 2-4v-4h-5v-3h5v-4c-3.454.233-4.454-1.1-3-4 1.617.538 3.284.871 5 1l-2-7c2.15.405 4.15.905 6 1.5.833-2.081.833-4.248 0-6.5 2.423-.076 4.256.924 5.5 3 2.48-.452 2.98-1.619 1.5-3.5.114-1.28.78-2.113 2-2.5 1.633 2.003 3.633 3.336 6 4-.333-3 1-4.333 4-4v6a38.112 38.112 0 0 1 8-3c.204 1.89-.463 3.39-2 4.5l1 1c2.297.018 4.63-.149 7-.5-.027 1.7-.694 3.033-2 4z"/><path style="opacity:1" fill="#101010" d="M68.5 83.5c-1.507 1.79-2.84 3.79-4 6-2.265 1.147-4.598 1.314-7 .5a46.142 46.142 0 0 0-6-5.5c4.275-3.657 9.275-4.823 15-3.5 1.256.417 1.923 1.25 2 2.5z"/><path style="opacity:1" fill="#485153" d="M19.5 77.5c3.195.013 4.862 1.68 5 5-.043.916-.376 1.583-1 2-.563-2.795-1.896-5.128-4-7z"/><path style="opacity:1" fill="#070707" d="M237.5 145.5a305.436 305.436 0 0 1-3-35 327.754 327.754 0 0 1-3 35c-2.551-.437-5.218-.437-8 0a307.162 307.162 0 0 0-1-35 581.022 581.022 0 0 0-1.5 34c-.278.916-.778 1.582-1.5 2-.283-.789-.783-1.456-1.5-2-.835-45.319-2.001-45.319-3.5 0a5.576 5.576 0 0 1-3 1c.328-11.845-.005-23.512-1-35a570.642 570.642 0 0 0-1.5 34c-.383-.556-.883-.889-1.5-1-2.107.222-3.774 1.222-5 3a37.138 37.138 0 0 1-4.5-2l-1-34-1 33c-.383.556-.883.889-1.5 1-.709-.904-1.709-1.237-3-1 .332-11.02-.001-22.02-1-33a307.162 307.162 0 0 0-1 35h-1v-35h-3c.328 11.512-.005 22.846-1 34v-34h-3v33c0 .667-.333 1-1 1a3985.788 3985.788 0 0 0-2-34h-1c-1.915-.284-3.581.049-5 1 .167 11.005 0 22.005-.5 33a570.642 570.642 0 0 0-1.5-34c-1.977 10.616-2.644 21.616-2 33l-2-33a604.989 604.989 0 0 0-1.5 35l-1-35c-.667 45.333-1.333 45.333-2 0a570.642 570.642 0 0 1-1.5 34h-1v-33c-.709-.904-1.709-1.237-3-1v34c-.995-10.821-1.328-21.821-1-33-.06-.543-.393-.876-1-1a547.383 547.383 0 0 0-1.5 33 3.647 3.647 0 0 1-1.5 1 289.882 289.882 0 0 1-1-34h-3c.167 11.338 0 22.672-.5 34a570.642 570.642 0 0 0-1.5-34h-5v35c-.667-11.507-1.333-23.174-2-35-.57 13.355-1.237 24.022-2 32v-32h-3c-1.977 10.616-2.644 21.616-2 33-.996-.086-1.829.248-2.5 1a570.642 570.642 0 0 0-1.5-34h-3v33l-2-33h-2a757.939 757.939 0 0 1-2.5 36 640.343 640.343 0 0 0-1.5-36h-2c-.995 10.821-1.328 21.821-1 33-.71-9.631-1.376-20.631-2-33a289.882 289.882 0 0 0-1 34h-4a7508.078 7508.078 0 0 0-2-34c-1-1.333-2-1.333-3 0 .328 11.512-.005 22.846-1 34 .167-11.338 0-22.672-.5-34a538.095 538.095 0 0 1-1.5 33v-33h-3v35h-1v-36c-1.599-.268-2.932.066-4 1 .328 11.845-.005 23.512-1 35-.896 1.006-1.562 1.006-2 0-1.946-11.414-2.612-23.081-2-35 1.175.219 2.175-.114 3-1-1.494-1.405-2.494-3.071-3-5 .904-.709 1.237-1.709 1-3-3 .333-4.333-1-4-4h5c.116-3.41-1.55-4.744-5-4-.219-1.175.114-2.175 1-3 3.713-1.16 3.88-2.493.5-4-2.56 1.635-4.06.969-4.5-2 1.306-.967 1.973-2.3 2-4-2.37.351-4.703.518-7 .5l-1-1c1.537-1.11 2.204-2.61 2-4.5a38.112 38.112 0 0 0-8 3v-6c-3-.333-4.333 1-4 4-2.367-.664-4.367-1.997-6-4-1.22.387-1.886 1.22-2 2.5 1.48 1.881.98 3.048-1.5 3.5-1.244-2.076-3.077-3.076-5.5-3 .833 2.252.833 4.419 0 6.5a49.692 49.692 0 0 0-6-1.5l2 7a20.677 20.677 0 0 1-5-1 13.117 13.117 0 0 0-1-7 6.845 6.845 0 0 1-4 1c.236-2.473 1.57-4.14 4-5a32.367 32.367 0 0 1-3-4.5c-1.547-.333-2.88.167-4 1.5-1.419-.505-2.085-1.505-2-3 .79-.283 1.456-.783 2-1.5-3.292-4.554-5.96-4.387-8 .5-1.717-1.168-2.384-2.835-2-5a13.117 13.117 0 0 0-7 1l1 2c-2.298 2.611-3.965 2.111-5-1.5-2.131.398-4.131 1.398-6 3 1.537 1.11 2.204 2.61 2 4.5-1.984.117-3.65-.55-5-2C.5 47.176.167 23.843.5.5h241c.333 48.005 0 96.005-1 144a3.647 3.647 0 0 0-1.5 1c-.833-47.995-1.333-47.995-1.5 0z"/><path style="opacity:1" fill="#b0b0b0" d="M133.5 110.5v35c-1.333 0-2-.667-2-2-.644-11.384.023-22.384 2-33z"/><path style="opacity:1" fill="#676767" d="m166.5 110.5 2 33c-.283.789-.783 1.456-1.5 2a612.388 612.388 0 0 1-.5-35z"/><path style="opacity:1" fill="#767676" d="M172.5 111.5c1.419-.951 3.085-1.284 5-1 .328 11.512-.005 22.846-1 34a260.63 260.63 0 0 1-1.5-23l-1 22a506.426 506.426 0 0 0-1.5-32z"/><path style="opacity:1" fill="#353535" d="M101.5 110.5c1-1.333 2-1.333 3 0l-2 35c.328-11.845-.005-23.512-1-35z"/><path style="opacity:1" fill="#bcbcbc" d="M159.5 111.5v33h-3v-1c1.658-10.461 2.658-21.128 3-32z"/><path style="opacity:1" fill="#717171" d="M219.5 146.5c-2.814-.802-5.48-1.136-8-1a5.576 5.576 0 0 0 3-1c1.499-45.319 2.665-45.319 3.5 0 .717.544 1.217 1.211 1.5 2z"/><path style="opacity:1" fill="#545454" d="M234.5 110.5c.645 12.048-.022 23.715-2 35h-1a327.754 327.754 0 0 0 3-35z"/><path style="opacity:1" fill="#979797" d="M188.5 145.5c-.716.283-1.549.616-2.5 1-.717-.544-1.217-1.211-1.5-2 .995-11.154 1.328-22.488 1-34h3v35z"/><path style="opacity:1" fill="#adadad" d="M184.5 119.5v25l-2-1c-.167-10.672 0-21.339.5-32 .183 2.865.683 5.531 1.5 8z"/><path style="opacity:1" fill="#696969" d="M178.5 110.5a3985.788 3985.788 0 0 1 2 34c-.283.789-.783 1.456-1.5 2a647.854 647.854 0 0 1-.5-36z"/><path style="opacity:1" fill="#7c7c7c" d="M194.5 144.5c-1.735.557-3.402.89-5 1a307.162 307.162 0 0 1 1-35 273.104 273.104 0 0 1 1 33c1.291-.237 2.291.096 3 1z"/><path style="opacity:1" fill="#656565" d="M120.5 110.5h2c-.667 42.667-1.333 42.667-2 0z"/><path style="opacity:1" fill="#797979" d="m90.5 110.5 2 34c-.721 1.882-1.721 2.215-3 1 .995-11.488 1.328-23.155 1-35z"/><path style="opacity:1" fill="#575757" d="M90.5 110.5c1.068-.934 2.401-1.268 4-1v36c.065.438-.101.772-.5 1-.278-.916-.778-1.582-1.5-2l-2-34z"/><path style="opacity:1" fill="#434343" d="M104.5 110.5a7508.078 7508.078 0 0 1 2 34c-.722.418-1.222 1.084-1.5 2a647.854 647.854 0 0 1-.5-36z"/><path style="opacity:1" fill="#343434" d="M114.5 110.5h2c.328 11.512-.005 22.846-1 34a350.15 350.15 0 0 0-1-34z"/><path style="opacity:1" fill="#6e6e6e" d="M114.5 110.5a350.15 350.15 0 0 1 1 34l-2-1c-.328-11.179.005-22.179 1-33z"/><path style="opacity:1" fill="#656565" d="M170.5 110.5c.166 8.34 0 16.673-.5 25-.183 2.865-.683 5.531-1.5 8-.644-11.384.023-22.384 2-33z"/><path style="opacity:1" fill="#7e7e7e" d="M184.5 119.5c-.817-2.469-1.317-5.135-1.5-8a511.925 511.925 0 0 0-.5 32h-1v-33h3v9z"/><path style="opacity:1" fill="#979797" d="M145.5 110.5c.328 11.845-.005 23.512-1 35a945.068 945.068 0 0 0-2-34 2298.005 2298.005 0 0 1-2 16v-17h5z"/><path style="opacity:1" fill="#838383" d="M133.5 110.5h3v32c-1.4.6-2.4 1.6-3 3v-35z"/><path style="opacity:1" fill="#929292" d="M101.5 110.5c.995 11.488 1.328 23.155 1 35-.992.172-1.658-.162-2-1 .995-11.154 1.328-22.488 1-34z"/><path style="opacity:1" fill="#939393" d="M98.5 143.5c-.79.901-1.79 1.568-3 2v-35h3v33z"/><path style="opacity:1" fill="#8c8c8c" d="M159.5 111.5c-.342 10.872-1.342 21.539-3 32v-33c1.291-.237 2.291.096 3 1z"/><path style="opacity:1" fill="#424242" d="M127.5 110.5a307.162 307.162 0 0 1-1 35 31.147 31.147 0 0 0-2-2v-33h3z"/><path style="opacity:1" fill="#7e7e7e" d="M173.5 87.5c.979 3.125 1.313 6.458 1 10h3c-1.068.934-2.401 1.268-4 1v-11z"/><path style="opacity:1" fill="#858585" d="M169.5 87.5v11c-1.599.268-2.932-.066-4-1h3c-.313-3.542.021-6.875 1-10z"/><path style="opacity:1" fill="#dfdfdf" d="M161.5 87.5v10h-3c.065-.438-.101-.772-.5-1-6.769 3.4-9.269 1.4-7.5-6 2.458-1.419 5.125-2.419 8-3-2.534-1.277-5.034-1.277-7.5 0a8.43 8.43 0 0 1-.5-4 40.939 40.939 0 0 1 9 .5c1.323.816 1.989 1.983 2 3.5z"/><path style="opacity:1" fill="#181818" d="M153.5 91.5c5.918-.148 6.418 1.186 1.5 4-2.5-.658-3-1.99-1.5-4z"/><path style="opacity:1" fill="#7c7c7c" d="M161.5 87.5c.982 3.462 1.315 7.129 1 11-1.599.268-2.932-.066-4-1h3v-10z"/><path style="opacity:1" fill="#f0f0f0" d="M177.5 97.5h-3c.313-3.542-.021-6.875-1-10-1.333-1.333-2.667-1.333-4 0-.979 3.125-1.313 6.458-1 10h-3v-14c2.509 1.175 5.009 1.175 7.5 0 1.812-.007 3.312.66 4.5 2 2.43-2.071 5.097-2.404 8-1a53.775 53.775 0 0 1 1 14h-4v-12c-1.644-.213-3.144.12-4.5 1a50.464 50.464 0 0 0-.5 10z"/><path style="opacity:1" fill="#e6e6e6" d="M116.5 83.5c1.478-.262 2.811.071 4 1 1.069 3.04 2.235 6.04 3.5 9a56.435 56.435 0 0 0 2.5-10c1.478-.262 2.811.071 4 1l-5.5 15c-1.33 3.507-3.83 5.173-7.5 5v-3c2.135.353 3.468-.48 4-2.5a282.161 282.161 0 0 1-5-15.5z"/><path style="opacity:1" fill="#dedede" d="M132.5 83.5c3.975.36 7.975.693 12 1a4.458 4.458 0 0 1 1.5 2 60.93 60.93 0 0 1 .5 11h-4a50.464 50.464 0 0 0-.5-10c-1.938-1.36-3.604-1.027-5 1a40.911 40.911 0 0 0-.5 9h-4v-14z"/><path style="opacity:1" fill="#797979" d="M98.5 78.5v19h7c-2.448.973-5.115 1.306-8 1-.324-6.854.01-13.521 1-20z"/><path style="opacity:1" fill="#dedede" d="M199.5 83.5h8v3c-6.939-.289-8.606 2.545-5 8.5 1.634.493 3.301.66 5 .5v3c-6.491 1.172-10.158-1.495-11-8 .195-2.718 1.195-5.051 3-7z"/><path style="opacity:1" fill="#e0e0e0" d="M189.5 83.5h4v14h-4v-14z"/><path style="opacity:1" fill="#e2e2e2" d="M211.5 83.5h7v3c-1.788-.285-3.455.048-5 1a51.104 51.104 0 0 1 5.5 4c1.042 3.304-.125 5.47-3.5 6.5a18.437 18.437 0 0 1-6 .5v-3h6c.219-1.175-.114-2.175-1-3-5.314-1.54-6.314-4.54-3-9z"/><path style="opacity:1" fill="#e6e6e6" d="M98.5 78.5c13.812-1.375 18.312 4.292 13.5 17-1.897 1.516-4.064 2.183-6.5 2h-7v-19z"/><path style="opacity:1" fill="#0f0f0f" d="M102.5 81.5c4.83-.426 7.497 1.741 8 6.5-.721 4.554-3.388 6.72-8 6.5v-13z"/><path style="opacity:1" fill="#dcdcdc" d="M189.5 77.5h4v3h-4v-3z"/><path style="opacity:1" fill="#e3e3e3" d="M138.5 57.5h4v11c1.644.213 3.144-.12 4.5-1 .498-3.317.665-6.65.5-10h4v14a128.125 128.125 0 0 1-12.5-1 84.9 84.9 0 0 1-.5-13z"/><path style="opacity:1" fill="#e1e1e1" d="M214.5 50.5h4v21h-4v-21z"/><path style="opacity:1" fill="#e5e5e5" d="M125.5 56.5c6.517-.482 9.85 2.518 10 9a25.87 25.87 0 0 0-10 1c.77 1.772 2.103 2.772 4 3a20.227 20.227 0 0 1 5-1v3c-9.253 2.56-13.42-.773-12.5-10a27.248 27.248 0 0 1 3.5-5z"/><path style="opacity:1" fill="#e3e3e3" d="M201.5 56.5c3.045-.158 5.879.508 8.5 2 1.367 4.2 1.867 8.533 1.5 13-2.762-.853-5.429-.853-8 0-4.682-.394-6.016-2.728-4-7 2.458-1.419 5.125-2.419 8-3-1.815-2.194-3.982-2.528-6.5-1-.579-1.428-.412-2.762.5-4z"/><path style="opacity:1" fill="#212121" d="M203.5 64.5h4c0 3.333-1.667 5-5 5-.134-1.791.199-3.458 1-5z"/><path style="opacity:1" fill="#ebebeb" d="M168.5 57.5c11.265-.571 13.931 3.929 8 13.5-8.361 2.028-12.195-1.139-11.5-9.5.69-1.85 1.856-3.184 3.5-4z"/><path style="opacity:1" fill="#6d6d6d" d="M130.5 60.5c.904.709 1.237 1.709 1 3-2.235.295-4.235-.039-6-1 2.281.423 3.948-.244 5-2z"/><path style="opacity:1" fill="#f4f4f4" d="M155.5 57.5c2.562.871 5.228.871 8 0v3c-1.89-.203-3.39.463-4.5 2a40.911 40.911 0 0 0-.5 9h-3v-14z"/><path style="opacity:1" fill="#070707" d="M130.5 60.5c-1.052 1.756-2.719 2.423-5 2 1.135-1.713 2.802-2.38 5-2z"/><path style="opacity:1" fill="#131313" d="M170.5 59.5c4.883.965 6.217 3.799 4 8.5-5.17.865-7.003-1.301-5.5-6.5.717-.544 1.217-1.21 1.5-2z"/><path style="opacity:1" fill="#e4e4e4" d="M182.5 57.5c4.101.123 8.268.456 12.5 1a84.9 84.9 0 0 1 .5 13h-4a60.93 60.93 0 0 0-.5-11c-1.587-1.227-2.921-.894-4 1a50.464 50.464 0 0 0-.5 10h-4v-14z"/><path style="opacity:1" fill="#969696" d="M118.5 52.5h-3a49.87 49.87 0 0 1-1 14c-.798-.457-1.131-1.124-1-2 .985-4.134 1.318-8.468 1-13 1.599-.268 2.932.066 4 1z"/><path style="opacity:1" fill="#eaeaea" d="M113.5 64.5c-.131.876.202 1.543 1 2a49.87 49.87 0 0 0 1-14h3v19c-1.788.285-3.455-.048-5-1a103.639 103.639 0 0 0-6.5-12 84.9 84.9 0 0 0-.5 13h-4v-20c1.788-.285 3.455.048 5 1a50.502 50.502 0 0 1 6 12z"/><path style="opacity:1" fill="#203842" d="M200.5 40.5c-3.125.98-6.458 1.313-10 1-.188-1.603.312-2.937 1.5-4 .556 2.095 1.056 2.262 1.5.5-.405-.945-1.072-1.612-2-2 2.954.56 5.954.394 9-.5v5z"/><path style="opacity:1" fill="#25414a" d="M201.5 33.5c1.225.652 1.892 1.819 2 3.5-.108 1.681-.775 2.848-2 3.5v-7z"/><path style="opacity:1" fill="#2f515e" d="M213.5 33.5c1.431.38 2.264 1.38 2.5 3 .718-.95 1.551-1.117 2.5-.5-.717 1.652-1.05 3.152-1 4.5a396.405 396.405 0 0 0-7-.5c1.388-.89 1.222-1.39-.5-1.5-.945.405-1.612 1.072-2 2-1-4-2-4-3 0a12.93 12.93 0 0 1-.5-5c1.951-.273 3.451.393 4.5 2 .71-1.473 1.876-2.14 3.5-2a4.934 4.934 0 0 0 .5 3c.494-1.634.66-3.3.5-5z"/><path style="opacity:1" fill="#2a4857" d="M79.5 33.5c2.222-.322 4.056.345 5.5 2a4.452 4.452 0 0 1 1.5-2c1.393 1.363 3.06 2.196 5 2.5-2.457 1.512-2.457 2.846 0 4a4.932 4.932 0 0 1-3 .5 2.428 2.428 0 0 0-.5-2c-1.916 2.533-3.916 2.533-6 0a4.452 4.452 0 0 1-1.5 2 13.117 13.117 0 0 1-1-7z"/><path style="opacity:1" fill="#070d12" d="M93.5 24.5c1.734 1.062 3.4 1.062 5 0 .19 5.378 2.189 6.21 6 2.5a4.451 4.451 0 0 0-2-1.5c-.169.897-.502 1.897-1 3-2.875-2.872-2.209-4.706 2-5.5a4.932 4.932 0 0 0-3-.5c.417-.624 1.084-.957 2-1a68.682 68.682 0 0 0 7 3h-4v5h4c.193-3.949.693-3.949 1.5 0 .636-4.37 2.136-4.87 4.5-1.5l-2 1a8.435 8.435 0 0 0 4 .5c-.406-1.61-.406-2.942 0-4 .929 1.189 1.262 2.522 1 4 2.738.535 4.572-.465 5.5-3a6.802 6.802 0 0 0 1.5 3c.952-1.545 1.285-3.212 1-5h-5c.262 1.478-.071 2.811-1 4a28.712 28.712 0 0 0-1-5c-2.143 1.254-4.143 1.254-6 0 9.289-.744 18.289-1.077 27-1 .491 2.51 1.491 4.844 3 7l2.5-3c.595 3.582 1.929 3.916 4 1 1.133 1.711 2.633 2.211 4.5 1.5l-2-1c1.399-.595 2.732-.428 4 .5 1.783-3.903 2.95-3.57 3.5 1a32.058 32.058 0 0 0 2.5-4c1.487 5.157 2.153 4.824 2-1-5.307.526-10.307-.14-15-2 10.888-.08 21.888-.08 33 0 .188 1.603-.312 2.937-1.5 4a12.409 12.409 0 0 0-2.5-4c-1.147 2.265-1.314 4.598-.5 7l1-3c1.333 4 2.667 4 4 0a6.802 6.802 0 0 0 1.5 3 9.86 9.86 0 0 0 1-6l6 1c-.285 1.788.048 3.455 1 5 1.365-1.307 2.698-1.307 4 0 2.357-.163 4.69.003 7 .5-1.237.232-2.237.732-3 1.5a40.939 40.939 0 0 0-9 .5 24.365 24.365 0 0 0 10 1.5v7h-1v-5c-3.046.894-6.046 1.06-9 .5.928.388 1.595 1.055 2 2-.444 1.762-.944 1.595-1.5-.5-1.188 1.063-1.688 2.397-1.5 4-2.086 1.523-3.752 1.19-5-1-1.202-.905-2.536-.905-4 0v-5a31.12 31.12 0 0 0-11 1c-1.306 2.43-2.306 2.097-3-1-.929 1.189-1.262 2.522-1 4h-3a12.93 12.93 0 0 0-.5-5 18.452 18.452 0 0 0-.5 6 31.12 31.12 0 0 1-2-2 31.12 31.12 0 0 1-2 2 13.115 13.115 0 0 0-1-7c-2.604 2.655-5.604 3.489-9 2.5-.88 1.356-1.214 2.856-1 4.5h-1c-3.195 1.53-6.695 2.196-10.5 2-2.929-.025-5.429-.691-7.5-2h10a24.935 24.935 0 0 0-.5-7c-1.337 1.504-3.004 2.504-5 3l-1-1a10.256 10.256 0 0 1-1.5 4c-.886-.825-1.219-1.825-1-3-4.392-2.181-6.725-.848-7 4h4c-.325 1.632-1.325 2.632-3 3-2.622-.524-5.289-1.524-8-3 1.25-.077 2.083-.744 2.5-2 2.119 2.977 3.286 2.644 3.5-1-.201-3.924-.701-3.924-1.5 0-.949-1.593-2.115-2.926-3.5-4-1.734 1.062-3.401 1.062-5 0-2.282 2.544-4.949 3.21-8 2-.16 1.7.006 3.366.5 5a7.292 7.292 0 0 0 2-3c.928 2.535 2.762 3.535 5.5 3l-18 1.5a11.362 11.362 0 0 0-1.5 3.5c-.67-2.09-1.836-3.757-3.5-5a4.932 4.932 0 0 0 3-.5c-2.457-1.154-2.457-2.488 0-4-1.94-.304-3.607-1.137-5-2.5a4.452 4.452 0 0 0-1.5 2c-1.444-1.655-3.278-2.322-5.5-2-.086-.996.248-1.83 1-2.5-2.04-1.242-3.207-3.075-3.5-5.5l-1 4c-1.035-2.391-1.201-4.724-.5-7l2-1c5.568.479 10.901 1.479 16 3z"/><path style="opacity:1" fill="#2f4b55" d="M181.5 40.5c-1.294-3.723-2.461-3.723-3.5 0-1.114-3.956-1.947-3.956-2.5 0-4.556.245-8.89.245-13 0a18.452 18.452 0 0 1 .5-6c.494 1.634.66 3.3.5 5h3c-.262-1.478.071-2.811 1-4 .694 3.097 1.694 3.43 3 1a31.12 31.12 0 0 1 11-1v5z"/><path style="opacity:1" fill="#2c4953" d="M158.5 40.5c-2.576.766-4.909.766-7 0a10.256 10.256 0 0 1-1.5-4 51.239 51.239 0 0 0-2.5 4c-.214-1.644.12-3.144 1-4.5 3.396.989 6.396.155 9-2.5a13.115 13.115 0 0 1 1 7z"/><path style="opacity:1" fill="#375962" d="M146.5 40.5h-4v-5c3.41-.116 4.744 1.55 4 5z"/><path style="opacity:1" fill="#2f5158" d="M128.5 40.5c-.438-1.006-1.104-1.006-2 0h-4c.275-4.848 2.608-6.181 7-4-.219 1.175.114 2.175 1 3a10.256 10.256 0 0 0 1.5-4l1 1c1.996-.496 3.663-1.496 5-3 .497 2.31.663 4.643.5 7h-10z"/><path style="opacity:1" fill="#304e5c" d="M92.5 33.5c2.67 1.587 5.67 2.42 9 2.5.88 1.356 1.214 2.856 1 4.5h-7c-.553-3.956-1.386-3.956-2.5 0a24.939 24.939 0 0 1-.5-7z"/><path style="opacity:1" fill="#365864" d="M116.5 33.5c1.385 1.074 2.551 2.407 3.5 4 .799-3.924 1.299-3.924 1.5 0-.214 3.644-1.381 3.977-3.5 1-.417 1.256-1.25 1.923-2.5 2-.202-2.45.131-4.783 1-7z"/><path style="opacity:1" fill="#2d4f5d" d="M111.5 33.5v7c-2.738.535-4.572-.465-5.5-3a7.292 7.292 0 0 1-2 3 12.93 12.93 0 0 1-.5-5c3.051 1.21 5.718.544 8-2z"/><path style="opacity:1" fill="#3a5161" d="M185.5 40.5v-7h4v5c-1.699.027-3.033.694-4 2z"/><path style="opacity:1" fill="#101f27" d="M208.5 21.5a13.115 13.115 0 0 1-1 7l-2-5c-2.074 4.339-.741 6.339 4 6v-7c2.71.616 5.71 1.45 9 2.5-1.054 1.388-1.22 2.888-.5 4.5 1.813-1.11 2.646-.442 2.5 2-2.222.322-4.056-.345-5.5-2-4.518 1.907-9.352 2.574-14.5 2 .763-.768 1.763-1.268 3-1.5a24.939 24.939 0 0 0-7-.5c-1.046-2.285-1.046-4.618 0-7l12-1z"/><path style="opacity:1" fill="#365a65" d="M208.5 21.5c.667 0 1 .333 1 1v7c-4.741.339-6.074-1.661-4-6l2 5a13.115 13.115 0 0 0 1-7z"/><path style="opacity:1" fill="#506b74" d="M100.5 22.5a4.932 4.932 0 0 1 3 .5c-4.209.794-4.875 2.628-2 5.5.498-1.103.831-2.103 1-3a4.451 4.451 0 0 1 2 1.5c-3.811 3.71-5.81 2.878-6-2.5.333-1 1-1.667 2-2z"/><path style="opacity:1" fill="#304b55" d="M71.5 22.5c1.844 1.779 2.51 4.112 2 7-2.377.285-4.544.285-6.5 0-.667-1.667-.667-3.333 0-5a6.807 6.807 0 0 0 1.5 3 29.744 29.744 0 0 0 3-5z"/><path style="opacity:1" fill="#315760" d="M196.5 22.5c-1.046 2.382-1.046 4.715 0 7-1.302-1.307-2.635-1.307-4 0-.952-1.545-1.285-3.212-1-5 .595-2.613 1.429-2.613 2.5 0 .708-.88 1.542-1.547 2.5-2z"/><path style="opacity:1" fill="#2b4952" d="M165.5 24.5a32.438 32.438 0 0 1 8 .5 54.48 54.48 0 0 1-2 4.5c-1.032-1.54-2.365-2.04-4-1.5l2 1a8.435 8.435 0 0 1-4 .5v-5z"/><path style="opacity:1" fill="#39586b" d="M128.5 23.5c3.35.878 3.683 2.378 1 4.5l2 1c-3.963.118-4.963-1.716-3-5.5z"/><path style="opacity:1" fill="#3a5b67" d="M182.5 22.5c1.291-.237 2.291.096 3 1a9.86 9.86 0 0 1-1 6 6.802 6.802 0 0 1-1.5-3c-1.333 4-2.667 4-4 0l-1 3c-.814-2.402-.647-4.735.5-7a12.409 12.409 0 0 1 2.5 4c1.188-1.063 1.688-2.397 1.5-4z"/><path style="opacity:1" fill="#2c535c" d="M140.5 22.5c1.593.848 2.76 2.181 3.5 4 .936-5.113 2.269-5.113 4 0 .21-1.558.71-2.892 1.5-4 4.693 1.86 9.693 2.526 15 2 .153 5.824-.513 6.157-2 1a32.058 32.058 0 0 1-2.5 4c-.55-4.57-1.717-4.903-3.5-1-1.268-.928-2.601-1.095-4-.5l2 1c-1.867.711-3.367.211-4.5-1.5-2.071 2.916-3.405 2.582-4-1l-2.5 3c-1.509-2.156-2.509-4.49-3-7z"/><path style="opacity:1" fill="#3b555f" d="M93.5 24.5c-1.225 1.437-2.225 3.104-3 5a10.253 10.253 0 0 1-1.5-4 10.253 10.253 0 0 1-1.5 4c-1.826-.42-3.826-.42-6 0v-3c3.098.087 3.432-.413 1-1.5 3.48-.074 7.147-.24 11-.5z"/><path style="opacity:1" fill="#2f585c" d="M56.5 22.5c1.059 1.1 1.892 2.434 2.5 4 .29-1.544.956-2.877 2-4 2.616 1.864 3.45 4.197 2.5 7-1.47-.88-2.304-2.214-2.5-4-.29 1.544-.956 2.877-2 4-1.903-1.941-2.736-4.274-2.5-7z"/><path style="opacity:1" fill="#355462" d="M113.5 23.5c1.857 1.254 3.857 1.254 6 0a28.712 28.712 0 0 1 1 5c.929-1.189 1.262-2.522 1-4h5c.285 1.788-.048 3.455-1 5a6.802 6.802 0 0 1-1.5-3c-.928 2.535-2.762 3.535-5.5 3 .262-1.478-.071-2.811-1-4-.406 1.058-.406 2.39 0 4a8.435 8.435 0 0 1-4-.5l2-1c-2.364-3.37-3.864-2.87-4.5 1.5-.807-3.949-1.307-3.949-1.5 0h-4v-5h4c-.065.438.101.772.5 1a18.489 18.489 0 0 1 3.5-2z"/><path style="opacity:1" fill="#535353" d="M115.5 8.5c3.047.49 6.38.824 10 1v3c-2.948.277-5.781-.056-8.5-1-3.307 3.093-5.141 2.426-5.5-2 1.599.268 2.932-.066 4-1z"/><path style="opacity:1" fill="#494949" d="M143.5 8.5c1.676.683 2.343 2.017 2 4h-10v-3c2.885.306 5.552-.027 8-1z"/><path style="opacity:1" fill="#606060" d="M126.5 8.5c1.951-.273 3.451.393 4.5 2 2.946-3.043 4.112-2.376 3.5 2-2.646-.392-5.146-.392-7.5 0a8.43 8.43 0 0 1-.5-4z"/><path style="opacity:1" fill="#646464" d="M101.5 9.5c2.847.282 5.513.282 8 0 1.127 1.77.627 3.103-1.5 4l-1-2a35.244 35.244 0 0 1-4.5 1c-.886-.825-1.219-1.825-1-3z"/><path style="opacity:1" fill="#d6f9fb" d="M41.5 162.5c-.321 1.548-1.321 2.215-3 2v-3c1.291-.237 2.291.096 3 1z"/><path style="opacity:1" fill="#efeff2" d="M48.5 161.5v3h-3v-3h3z"/><path style="opacity:1" fill="#e7e6f4" d="M55.5 166.5c-1.868 1.174-2.868.507-3-2 .709-.904 1.709-1.237 3-1v3z"/><path style="opacity:1" fill="#7e7e7e" d="M133.5 167.5c.617.111 1.117.444 1.5 1l1-5c.814 2.402.647 4.735-.5 7-1.419-.505-2.085-1.505-2-3z"/><path style="opacity:1" fill="#c7d3db" d="M35.5 165.5c-.709.904-1.709 1.237-3 1-.904-.709-1.237-1.709-1-3 1.88-.271 3.213.396 4 2z"/><path style="opacity:1" fill="#8a8a8a" d="M91.5 165.5h7c.008 5.708-.492 6.041-1.5 1-1.044 1.123-1.71 2.456-2 4-1-5.333-2-5.333-3 0a12.935 12.935 0 0 1-.5-5z"/><path style="opacity:1" fill="#909090" d="M133.5 167.5c-.617-.111-1.117-.444-1.5-1l-1 4c-.814-2.402-.647-4.735.5-7 1.205 1.077 1.872 2.41 2 4z"/><path style="opacity:1" fill="#6a6a6a" d="M138.5 165.5h5c.532 5.297 1.366 5.297 2.5 0 1.425.712 2.925.879 4.5.5-.88 1.356-1.214 2.856-1 4.5-1.56.019-3.06.352-4.5 1a12.21 12.21 0 0 1-4-3c-1.563.602-1.396 1.435.5 2.5-3.963.118-4.963-1.716-3-5.5z"/><path style="opacity:1" fill="#717171" d="M152.5 166.5c1.41-1.328 2.576-.995 3.5 1 .519-1.016 1.353-1.682 2.5-2 1.667 1.333 3.333 1.333 5 0l2 .5c-2.528 1.017-2.528 2.184 0 3.5-.848 1.783-2.181 2.283-4 1.5-1.429-5.495-2.929-5.662-4.5-.5l-1-1c-3.774 2.697-4.274 2.197-1.5-1.5-.336-1.03-1.003-1.53-2-1.5z"/><path style="opacity:1" fill="#a6a6a6" d="M78.5 163.5c4.54-.169 4.874.498 1 2a4.458 4.458 0 0 0 2 1.5 6.977 6.977 0 0 0-2.5 3.5 24.939 24.939 0 0 1-.5-7z"/><path style="opacity:1" fill="#848484" d="M85.5 166.5c-1.826 5.407-2.826 5.074-3-1 1.291-.237 2.291.096 3 1z"/><path style="opacity:1" fill="#8e8e8e" d="M103.5 163.5c3.297-.171 3.631.495 1 2 1.707 3.636 2.874 3.636 3.5 0 1.12 4.18-.38 6.014-4.5 5.5a4.457 4.457 0 0 0 2-1.5l-3-4c.363-.683.696-1.35 1-2z"/><path style="opacity:1" fill="#898989" d="M119.5 171.5a112.33 112.33 0 0 1-2-5 71.254 71.254 0 0 1-2 4c-.31-1.238-.81-1.238-1.5 0-1.352-5.202-2.518-5.202-3.5 0-.952-1.545-1.285-3.212-1-5 3.333 1.333 6.667 1.333 10 0v6z"/><path style="opacity:1" fill="#9e9e9e" d="M192.5 164.5a41.653 41.653 0 0 1 2 6l-1 1a13.116 13.116 0 0 1-1-7z"/><path style="opacity:1" fill="#7f7f7f" d="M201.5 168.5c1.392-2.893 3.559-3.56 6.5-2 1.996-.496 3.663-1.496 5-3l1 3c1.726-1.076 3.559-1.243 5.5-.5l-1 1c2.808 2.214 2.475 3.714-1 4.5-1.529-.029-2.696-.696-3.5-2l-1 1c-1.105-5.128-2.438-5.128-4 0-.667-1.333-1.333-1.333-2 0-.547-4.848-1.88-5.182-4-1-.383-.556-.883-.889-1.5-1z"/><path style="opacity:1" fill="#5e5e5e" d="M123.5 165.5h3v6c-3.944-.384-4.944-2.384-3-6z"/><path style="opacity:1" fill="#a5a5a5" d="M182.5 166.5c-.79 1.109-1.29 2.442-1.5 4a12.494 12.494 0 0 1 0-7c1.039.744 1.539 1.744 1.5 3z"/><path style="opacity:1" fill="#939393" d="M182.5 166.5c1.592 1.102 2.425.435 2.5-2 .808 2.079.641 4.079-.5 6-1.205-1.077-1.872-2.41-2-4z"/><path style="opacity:1" fill="#737373" d="M187.5 165.5c2.666-.434 3.833.566 3.5 3-.92.43-1.753.764-2.5 1a6.802 6.802 0 0 0 3 1.5c-4.368.439-5.701-1.394-4-5.5z"/><path style="opacity:1" fill="#898989" d="M201.5 168.5c-.275 2.342-1.108 2.342-2.5 0-1.575 4.064-2.742 3.897-3.5-.5.444-1.762.944-1.595 1.5.5a7.293 7.293 0 0 1 2-3c.377 1.442 1.21 2.442 2.5 3z"/><path style="opacity:1" fill="#cbe5e9" d="M29.5 168.5c-.321 1.548-1.321 2.215-3 2a44.043 44.043 0 0 0-1-2c1.458-1.282 2.792-1.282 4 0z"/><path style="opacity:1" fill="#cedee5" d="M59.5 171.5c-1.406-.473-2.073-1.473-2-3 1.208-.734 2.541-1.067 4-1 .27 1.88-.396 3.213-2 4z"/><path style="opacity:1" fill="#797979" d="M171.5 170.5c-.972 1.251-1.639.918-2-1-.946-1.758-.946-3.425 0-5a168.522 168.522 0 0 0 2 6z"/><path style="opacity:1" fill="#7a7a7a" d="M175.5 166.5c1.76 4.24.427 5.574-4 4-.661-4.017.672-5.351 4-4z"/><path style="opacity:1" fill="#101010" d="M175.5 166.5c-.148 4.055-1.148 4.555-3 1.5.744-1.039 1.744-1.539 3-1.5z"/><path style="opacity:1" fill="#111" d="M215.5 166.5c2.228.822 2.895 2.155 2 4-2.296-.868-2.963-2.202-2-4z"/><path style="opacity:1" fill="#606060" d="M85.5 166.5c4.081-1.756 5.581-.423 4.5 4-3.67 1.509-5.17.176-4.5-4z"/><path style="opacity:1" fill="#4d4d4d" d="M119.5 171.5c-.814 1.773-2.148 2.273-4 1.5l2-1c-.916-.278-1.582-.778-2-1.5a71.254 71.254 0 0 0 2-4 112.33 112.33 0 0 0 2 5z"/><path style="opacity:1" fill="#dcf0f3" d="M22.5 173.5c3.067-.379 4.067.621 3 3-2 0-3-1-3-3z"/><path style="opacity:1" fill="#c3c8cb" d="M63.5 176.5c-1.527.073-2.527-.594-3-2 1.542-.801 3.209-1.134 5-1 .215 1.679-.452 2.679-2 3z"/><path style="opacity:1" fill="#288eab" d="M48.5 161.5a51.19 51.19 0 0 0 2.5 4c.383-.556.883-.889 1.5-1 .132 2.507 1.132 3.174 3 2 0 1.333.667 2 2 2-.073 1.527.594 2.527 2 3a5.728 5.728 0 0 0 1 3c.473 1.406 1.473 2.073 3 2-.304.65-.637 1.317-1 2a44.293 44.293 0 0 1 3 2h-3v6c-.904.709-1.237 1.709-1 3-1.333 0-2 .667-2 2-1.406.473-2.073 1.473-2 3-1.333 0-2 .667-2 2-1.868-1.174-2.868-.507-3 2a44.147 44.147 0 0 1-2-1 70.915 70.915 0 0 1-2 4v-3h-3c-1.459-.067-2.792.266-4 1-.709-.904-1.709-1.237-3-1a5.727 5.727 0 0 0-3-1c-.473-1.406-1.473-2.073-3-2-.473-1.406-1.473-2.073-3-2 0-1.333-.667-2-2-2 .237-1.291-.096-2.291-1-3 .237-1.291-.096-2.291-1-3 .237-1.291-.096-2.291-1-3v-3c.904-.709 1.237-1.709 1-3 1.067-2.379.067-3.379-3-3 1.72-.522 3.052-1.522 4-3 1.679.215 2.679-.452 3-2 1.527.073 2.527-.594 3-2 1.291.237 2.291-.096 3-1a5.727 5.727 0 0 0 3-1c1.679.215 2.679-.452 3-2 .967 1.306 2.3 1.973 4 2h3v-3z"/><path style="opacity:1" fill="#06080e" d="M37.5 168.5c9.735-1.387 16.568 2.279 20.5 11 .432 5.639-1.734 10.139-6.5 13.5-9.48 3.914-16.647 1.414-21.5-7.5-1.375-7.436 1.125-13.103 7.5-17z"/><path style="opacity:1" fill="#7c7c7c" d="M128.5 175.5c1.869 2.135 2.536 4.802 2 8-4.177.658-5.677-1.008-4.5-5 1.417-.578 2.25-1.578 2.5-3z"/><path style="opacity:1" fill="#646464" d="M148.5 179.5v3c-2.642 1.673-4.642 1.173-6-1.5 1.302-3.832 3.302-4.332 6-1.5z"/><path style="opacity:1" fill="#aaa" d="M139.5 179.5c-.039-1.256.461-2.256 1.5-3a12.494 12.494 0 0 1 0 7c-.21-1.558-.71-2.891-1.5-4z"/><path style="opacity:1" fill="#828282" d="M162.5 177.5c.876-.131 1.543.202 2 1-.552 1.503-.552 3.169 0 5-3.098.087-3.432-.413-1-1.5-2.048-1.226-2.381-2.726-1-4.5z"/><path style="opacity:1" fill="#727272" d="M174.5 175.5a2.428 2.428 0 0 1 2 .5 261.12 261.12 0 0 1-2 7.5 4.457 4.457 0 0 1-1.5-2c-1.067 1.783-2.567 2.283-4.5 1.5-1.446-2.493-.779-4.327 2-5.5 2.37 2.562 3.703 1.895 4-2z"/><path style="opacity:1" fill="#6c6c6c" d="M210.5 177.5c1.89-.203 3.39.463 4.5 2 1.133-1.711 2.633-2.211 4.5-1.5 1.26 1.814 1.26 3.647 0 5.5-1.425-5.23-2.591-5.23-3.5 0l-1-2c-4.833 3.01-6.333 1.677-4.5-4z"/><path style="opacity:1" fill="#d3dddf" d="M24.5 179.5v3c-1.846.278-3.18-.389-4-2 1.189-.929 2.522-1.262 4-1z"/><path style="opacity:1" fill="gray" d="M180.5 176.5a8.43 8.43 0 0 1 4 .5c-3.162.854-4.329 2.688-3.5 5.5-1.8-1.865-1.966-3.865-.5-6z"/><path style="opacity:1" fill="#7d7d7d" d="M187.5 177.5c1.517.011 2.684.677 3.5 2 .739-1.074 1.739-1.741 3-2 2.025.328 4.191.494 6.5.5 1.076 1.726 1.243 3.559.5 5.5a10.258 10.258 0 0 0-1.5-4c-1.235 4.106-3.902 5.939-8 5.5l3-1a6.978 6.978 0 0 1-3.5-2.5c-2.128 2.674-3.961 2.507-5.5-.5a11.803 11.803 0 0 1 2-3.5z"/><path style="opacity:1" fill="#141414" d="M192.5 179.5c3.048-.006 3.548.994 1.5 3-1.039-.744-1.539-1.744-1.5-3z"/><path style="opacity:1" fill="#dbe5e6" d="M65.5 180.5c.904.709 1.237 1.709 1 3h-4v-3h3z"/><path style="opacity:1" fill="#818181" d="M116.5 177.5c.996-.086 1.829.248 2.5 1a12.93 12.93 0 0 1 .5 5h-4c-.14-1.624.527-2.79 2-3.5-.752-.671-1.086-1.504-1-2.5z"/><path style="opacity:1" fill="#949494" d="M121.5 177.5c.996-.086 1.829.248 2.5 1 .667 1.667.667 3.333 0 5-1-5.333-2-5.333-3 0-.678-2.098-.511-4.098.5-6z"/><path style="opacity:1" fill="#909090" d="M149.5 182.5h-1v-3a32.6 32.6 0 0 1 4.5-4l1 4c2.869-2.818 4.369-2.152 4.5 2-3.098-.087-3.432.413-1 1.5l-1.5.5a26.997 26.997 0 0 1-6.5-1z"/><path style="opacity:1" fill="#1d1d1d" d="M149.5 182.5v-3c3.81.746 3.81 1.746 0 3z"/><path style="opacity:1" fill="#707070" d="M204.5 177.5c1.617 1.089 2.45 2.756 2.5 5 1.008-5.041 1.508-4.708 1.5 1h-4v-6z"/><path style="opacity:1" fill="#a0a0a0" d="M139.5 179.5c-.381 4.588-1.547 4.922-3.5 1l-1 3c-.731-7.618.269-8.285 3-2 .278-.916.778-1.582 1.5-2z"/><path style="opacity:1" fill="#b9d9e1" d="M25.5 185.5c.904.709 1.237 1.709 1 3-4.81-.186-5.143-1.186-1-3z"/><path style="opacity:1" fill="#d4dbda" d="M62.5 186.5c4.143 1.814 3.81 2.814-1 3-.237-1.291.096-2.291 1-3z"/><path style="opacity:1" fill="#c2d4d8" d="M27.5 191.5c1.333 0 2 .667 2 2-1.294 2.64-2.627 2.64-4 0 .355-1.022 1.022-1.689 2-2z"/><path style="opacity:1" fill="#c8e5eb" d="M59.5 191.5c1.306.967 1.973 2.301 2 4-1.459.067-2.792-.266-4-1-.073-1.527.594-2.527 2-3z"/><path style="opacity:1" fill="#d3d2db" d="M32.5 195.5c1.527-.073 2.527.594 3 2-.787 1.604-2.12 2.271-4 2-.067-1.459.266-2.792 1-4z"/><path style="opacity:1" fill="#dae6f1" d="M55.5 196.5v3c-1.291.237-2.291-.096-3-1 .132-2.507 1.132-3.174 3-2z"/><path style="opacity:1" fill="#e6f5f0" d="M38.5 198.5c1.291-.237 2.291.096 3 1-.321 1.548-1.321 2.215-3 2v-3z"/><path style="opacity:1" fill="#d8e5e8" d="M45.5 198.5h3v3h-3v-3z"/><path style="opacity:1" fill="#929292" d="M207.5 204.5c-8.363-.876-16.363.29-24 3.5 2.404.508 3.071 1.675 2 3.5-5.064-3.591-10.731-4.924-17-4 4.039-2.514 8.205-2.514 12.5 0 8.505-5.199 17.338-6.199 26.5-3z"/><path style="opacity:1" fill="#a0a0a0" d="M209.5 204.5c4.964-1.623 9.63-.79 14 2.5 3.525.179 6.859.679 10 1.5-3.757-.429-7.257.237-10.5 2a11.333 11.333 0 0 0-1.5-3.5c-3.753-1.989-7.753-2.822-12-2.5z"/><path style="opacity:1" fill="#dedfde" d="M61.5 216.5c-.709-.904-1.709-1.237-3-1-.215-1.679.452-2.679 2-3 .543-.06.876-.393 1-1-1.54-1.032-2.04-2.365-1.5-4 1.333-1.333 2.667-1.333 4 0 .684-1.284.517-2.451-.5-3.5 2.038-2.58 4.038-2.746 6-.5 2.333-2.667 4.667-2.667 7 0 1.36-2.348 3.027-2.515 5-.5 1.14.741 1.14 1.575 0 2.5a54.48 54.48 0 0 0 4.5 2c.54 1.635.04 2.968-1.5 4 1.189.929 2.522 1.262 4 1 .383 2.962-.617 3.962-3 3-.886.825-1.219 1.825-1 3 3.407-.375 3.907.625 1.5 3-1.113 1.211-2.28 1.211-3.5 0-1.211.774-1.211 1.607 0 2.5-2.534 3.164-4.534 2.998-6-.5-.929 1.189-1.262 2.522-1 4h-5c.03-3.273-1.304-3.94-4-2-1.237-.056-2.237-.556-3-1.5 1.482-3.757.816-4.257-2-1.5a23.602 23.602 0 0 0-3-3.5 81.819 81.819 0 0 0 3-2.5z"/><path style="opacity:1" fill="#101010" d="M70.5 204.5c6.905-.225 11.238 2.942 13 9.5-1.302 5.797-4.97 8.964-11 9.5-8.182-1.642-11.015-6.309-8.5-14 1.805-2.326 3.972-3.992 6.5-5z"/><path style="opacity:1" fill="#111" d="M241.5 206.5c.219 1.175-.114 2.175-1 3a15.418 15.418 0 0 0-7-1c-3.141-.821-6.475-1.321-10-1.5-4.37-3.29-9.036-4.123-14-2.5h-2c-9.162-3.199-17.995-2.199-26.5 3-4.295-2.514-8.461-2.514-12.5 0-6.967 1.321-13.3 3.988-19 8-1.653.16-2.986.826-4 2-6.108 2.112-11.442 5.445-16 10-3.391 1.029-6.057 3.029-8 6l-2 1c-1.028-1.287-.695-2.454 1-3.5l-.5-1.5c-1.011.837-2.178 1.17-3.5 1a136.621 136.621 0 0 1 19-14.5c26.827-14.931 55.493-19.931 86-15a220.993 220.993 0 0 1 20 5.5z"/><path style="opacity:1" fill="#939393" d="M168.5 207.5a161.199 161.199 0 0 1-19 8c5.7-4.012 12.033-6.679 19-8z"/><path style="opacity:1" fill="#858585" d="M60.5 212.5c-1.548.321-2.215 1.321-2 3 1.291-.237 2.291.096 3 1h-4v-5c1.291-.237 2.291.096 3 1z"/><path style="opacity:1" fill="#eaeaea" d="M71.5 212.5h3v3h-3v-3z"/><path style="opacity:1" fill="#adadad" d="M149.5 215.5c-.787 1.604-2.12 2.271-4 2 1.014-1.174 2.347-1.84 4-2z"/><path style="opacity:1" fill="#eeeff0" d="M218.5 226.5c-.321 1.548-1.321 2.215-3 2 .395 3.023-.605 4.023-3 3-1.022.355-1.689 1.022-2 2-1.544-.203-2.878-.87-4-2l-2 1c-.726-2.893-2.559-4.559-5.5-5a204.7 204.7 0 0 1-9.5 23 31.147 31.147 0 0 0-2 2 812.705 812.705 0 0 0-2-11c-1.239-7.143-4.572-13.143-10-18a6.802 6.802 0 0 1 3-1.5 242.43 242.43 0 0 1 22-.5c-1.984-3.361-.984-5.028 3-5v-3c2.327.253 4.327-.414 6-2 1.673 1.586 3.673 2.253 6 2v3h4a6.846 6.846 0 0 1-1 4l2 2c-1.353 1.024-2.02 2.357-2 4z"/><path style="opacity:1" fill="#989997" d="M145.5 217.5a125.71 125.71 0 0 1-16 10c4.558-4.555 9.892-7.888 16-10z"/><path style="opacity:1" fill="#2c8eab" d="M145.5 220.5c-.491 4.736.843 5.736 4 3h2c1.983.343 3.317-.324 4-2l2 2h5c.342.838 1.008 1.172 2 1 1.165 1.609 2.499 1.943 4 1-.172.992.162 1.658 1 2a8.941 8.941 0 0 0 4 3c0 .667.333 1 1 1 .054 2.132 1.054 3.465 3 4 0 .667.333 1 1 1-1.206 1.937-.873 3.604 1 5v2c-.268 1.599.066 2.932 1 4v2c-1.676.683-2.343 2.017-2 4h4l-4 2c-1.873 1.396-2.206 3.063-1 5-.992-.172-1.658.162-2 1a6.547 6.547 0 0 0-3 3c-.838.342-1.172 1.008-1 2-1.88-.271-3.213.396-4 2-.904.709-1.237 1.709-1 3-1.699-2.651-3.366-2.651-5 0l-2 2c-.683-1.676-2.017-2.343-4-2h-7c0-.667-.333-1-1-1 .734-1.208 1.067-2.541 1-4 13.967 3.873 16.633.039 8-11.5-2.254-1.15-4.587-1.484-7-1a93.56 93.56 0 0 0-8 8.5c-2.155 1.052-2.488.386-1-2-1.458-1.282-2.792-1.282-4 0-1.034-1.187-2.367-2.02-4-2.5 2.274-1.355 2.274-2.855 0-4.5v-2c-.16-1.653-.826-2.986-2-4l1-2c.951-1.419 1.284-3.085 1-5 1.006-.438 1.006-1.104 0-2 2.12-.903 2.454-2.237 1-4 .992.172 1.658-.162 2-1 1.762-.762 2.762-2.096 3-4 .667 0 1-.333 1-1 2.473.412 3.806-.588 4-3l2-5z"/><path style="opacity:1" fill="#5d6d72" d="M241.5 224.5v6c-3.85-.201-4.85-2.034-3-5.5a4.934 4.934 0 0 1 3-.5z"/><path style="opacity:1" fill="#030303" d="M119.5 234.5a54.032 54.032 0 0 0-7 12c-2.039 1.411-3.039 3.411-3 6-1.234 1.701-1.901 3.701-2 6 .657 6.492.991 12.826 1 19-.172.992.162 1.658 1 2a43.53 43.53 0 0 1 3.5 8c1.129 1.641 2.629 2.641 4.5 3 4.333 1.333 8.667 1.333 13 0 5.604-.314 11.271-.48 17-.5a14.444 14.444 0 0 0 5.5-2.5l1 7 9.5 9.5 6 1c1.614 2.127 3.614 3.627 6 4.5 2.478 3.172 5.812 4.839 10 5a40.097 40.097 0 0 0 11.5-3 27.648 27.648 0 0 1 4.5 2c.6-1.4 1.6-2.4 3-3 3.016-.341 5.682-1.507 8-3.5 3.856-.177 7.523-.677 11-1.5 6.225-.622 11.892-2.622 17-6 .994 9.486 1.327 19.152 1 29h-3a12.93 12.93 0 0 0-5 .5c-.601 5.244.065 10.411 2 15.5a98.432 98.432 0 0 1-14-.5c-2.668-6.149-3.335-5.982-2 .5h-119v-5c.955-2.21 2.455-2.543 4.5-1 2.51-.609 4.51-1.942 6-4 4.518 1.907 9.352 2.574 14.5 2v-3c-3.777 1.11-7.61 1.11-11.5 0-2.302.1-4.302.767-6 2-.839-1.124-2.006-1.791-3.5-2a22.18 22.18 0 0 0-5 2 272.59 272.59 0 0 0-2-8.5h-12a6.291 6.291 0 0 1-1-3 168.412 168.412 0 0 1 15.5-28.5c3.06-7.063 3.226-14.23.5-21.5.97-8.926 2.47-17.759 4.5-26.5 2.36-6.737 6.193-12.404 11.5-17 1.322.17 2.489-.163 3.5-1l.5 1.5c-1.695 1.046-2.028 2.213-1 3.5z"/><path style="opacity:1" fill="#81817c" d="M129.5 227.5c.086.996-.248 1.829-1 2.5a46.428 46.428 0 0 0-7 3.5c1.943-2.971 4.609-4.971 8-6z"/><path style="opacity:1" fill="#0b0f12" d="M210.5 233.5c-.14 1.624.527 2.79 2 3.5a17.808 17.808 0 0 0-5 3.5c1.018 1.352 2.351 2.352 4 3-.825.886-1.825 1.219-3 1-.584 2.785.416 4.452 3 5-2.017 2.46-3.85 2.127-5.5-1a20.499 20.499 0 0 0-2.5 3.5c-1.284.684-2.451.517-3.5-.5.379 1.575.212 3.075-.5 4.5 7.423 2.711 7.757 5.877 1 9.5a43.836 43.836 0 0 0-2-1c-.077-1.25-.744-2.083-2-2.5 2.162-2.522 2.495-5.355 1-8.5a103.265 103.265 0 0 0-5-3c-1.034 2.625-2.034 2.625-3 0a204.7 204.7 0 0 0 9.5-23c2.941.441 4.774 2.107 5.5 5l2-1c1.122 1.13 2.456 1.797 4 2z"/><path style="opacity:1" fill="#24343c" d="M218.5 226.5a173.55 173.55 0 0 1 3 4 11.988 11.988 0 0 1 6-1v4a28.926 28.926 0 0 0-3.5 5c-.545-9.133-1.545-9.133-3 0-3.521-5.437-4.021-5.271-1.5.5a21.438 21.438 0 0 1-5 0l3 2.5c-1.832.557-3.165 1.557-4 3a7.47 7.47 0 0 0-3 2 55.78 55.78 0 0 1 4 1c.06.543.393.876 1 1 1.578-1.14 3.244-1.64 5-1.5a9.175 9.175 0 0 0-2 4.5 20.69 20.69 0 0 1-5 1c.215-1.679-.452-2.679-2-3-2.584-.548-3.584-2.215-3-5 1.175.219 2.175-.114 3-1-1.649-.648-2.982-1.648-4-3a17.808 17.808 0 0 1 5-3.5c-1.473-.71-2.14-1.876-2-3.5.311-.978.978-1.645 2-2 2.395 1.023 3.395.023 3-3 1.679.215 2.679-.452 3-2z"/><path style="opacity:1" fill="#494949" d="M92.5 227.5c6.504-.362 8.171 2.138 5 7.5-5.712.433-7.378-2.067-5-7.5z"/><path style="opacity:1" fill="#d4d4d4" d="M94.5 230.5c1.837.139 2.17.806 1 2-.797-.457-1.13-1.124-1-2z"/><path style="opacity:1" fill="#9e9e9e" d="M121.5 233.5a71.35 71.35 0 0 0-5.5 10c-.759 1.563-1.926 2.563-3.5 3a54.032 54.032 0 0 1 7-12l2-1z"/><path style="opacity:1" fill="#0b0b12" d="M136.5 239.5c4.58.378 8.413 2.378 11.5 6 .687 2.068.52 4.068-.5 6a983.77 983.77 0 0 0-8 7c-2.203-1.795-3.369-4.129-3.5-7-.762-4.087-.596-8.087.5-12z"/><path style="opacity:1" fill="#0d0d0e" d="M207.5 204.5c-.724 3.949-.058 3.949 2 0 4.247-.322 8.247.511 12 2.5a11.333 11.333 0 0 1 1.5 3.5c3.243-1.763 6.743-2.429 10.5-2 2.338 1.54 5.005 2.206 8 2v14a4.934 4.934 0 0 0-3 .5c-1.85 3.466-.85 5.299 3 5.5.33 7.032-.003 14.032-1 21l-2.5-3a6.802 6.802 0 0 1-1.5 3c-.607-.124-.94-.457-1-1-.453-.958-1.119-1.792-2-2.5 5.19-.991 5.856-2.991 2-6 1.711-1.133 2.211-2.633 1.5-4.5a35.193 35.193 0 0 0-4.5-1 7.248 7.248 0 0 1 2-2.5c-2.663.152-4.33 1.652-5 4.5-.996-.086-1.829.248-2.5 1-.536-2.067-.036-3.901 1.5-5.5-.228-.399-.562-.565-1-.5v-4a11.988 11.988 0 0 0-6 1 173.55 173.55 0 0 0-3-4c-.02-1.643.647-2.976 2-4l-2-2a6.846 6.846 0 0 0 1-4h-4v-3c-2.327.253-4.327-.414-6-2-1.673 1.586-3.673 2.253-6 2v3c-3.984-.028-4.984 1.639-3 5a242.43 242.43 0 0 0-22 .5 6.802 6.802 0 0 0-3 1.5c5.428 4.857 8.761 10.857 10 18 .317 4.202-.017 8.202-1 12a2.428 2.428 0 0 0-.5-2 19.602 19.602 0 0 1-3.5-2v-2c2.679-.025 4.012-1.358 4-4h-5v-2c2.227-.901 3.227-2.567 3-5h-4c-.667 0-1-.333-1-1 1.442-1.32 2.108-2.986 2-5-1.792-.134-3.458.199-5 1-.667 0-1-.333-1-1a20.69 20.69 0 0 0 1-5c-2.053-.098-3.72.569-5 2-.838-.342-1.172-1.008-1-2v-4c-2.473-.412-3.806.588-4 3-.992.172-1.658-.162-2-1v-4h-4c.067 1.459-.266 2.792-1 4l-2-2c-.184-2.673-1.351-3.34-3.5-2a8.43 8.43 0 0 0-.5 4h-2c-.762-1.762-2.096-2.762-4-3l-2 5c-1.32-1.442-2.986-2.108-5-2a20.69 20.69 0 0 0 1 5c0 .667-.333 1-1 1-1.542-.801-3.208-1.134-5-1-.108 2.014.558 3.68 2 5-.342.838-1.008 1.172-2 1h-4c-.032 2.119.968 3.452 3 4 1.006.896 1.006 1.562 0 2-3.45-.744-5.116.59-5 4 1.459-.067 2.792.266 4 1l-1 2c-2.89.027-3.89 1.193-3 3.5a12.93 12.93 0 0 0 5 .5v2c-1.7.516-3.033 1.516-4 3a21.614 21.614 0 0 0 5 4l-2 3c.124.607.457.94 1 1-5.251 2.357-5.251 5.024 0 8a253.979 253.979 0 0 0 6-3l2-1c.992-.172 1.658.162 2 1-.997-.03-1.664.47-2 1.5.556 1.011 1.222 1.844 2 2.5 1.88.271 3.213-.396 4-2 .667 0 1-.333 1-1 .667 0 1 .333 1 1 .43 3.362-.57 6.195-3 8.5.752.671 1.086 1.504 1 2.5-3.934-1.567-5.767-.234-5.5 4 3.274 2.946 5.441 2.28 6.5-2 2.386-.001 4.72-1.001 7-3 2.284 2.63 3.951 2.13 5-1.5-.362-1.434-1.028-2.601-2-3.5 1.406-.473 2.073-1.473 2-3l2-2c.874 2.19 2.541 3.19 5 3v-3c-.237-1.291.096-2.291 1-3 .453.958 1.119 1.792 2 2.5-2.546 1.521-2.546 3.021 0 4.5 0 1.333-.667 2-2 2-1.478-.262-2.811.071-4 1 .355 1.022 1.022 1.689 2 2 1.993.972 2.326 2.305 1 4-1.478-.262-2.811.071-4 1 .82 1.611 2.154 2.278 4 2 .904.709 1.237 1.709 1 3h-3v3h4c1 .333 1.667 1 2 2-1.604.787-2.271 2.12-2 4 1.459.067 2.792-.266 4-1 1.527-.073 2.527.594 3 2-3.091 2.744-6.758 3.577-11 2.5a70.588 70.588 0 0 1-9.5-10.5c-.54-2.919-.207-5.586 1-8a41.393 41.393 0 0 1-9.5 4.5 80.805 80.805 0 0 0-18 .5h-11a120.332 120.332 0 0 1-8-10c-.838-.342-1.172-1.008-1-2a12.93 12.93 0 0 1 .5-5c.654 1.196 1.154 1.196 1.5 0a106.21 106.21 0 0 1-1-20c1.508-1.681 2.508-3.681 3-6 1.574-.437 2.741-1.437 3.5-3a71.35 71.35 0 0 1 5.5-10 46.428 46.428 0 0 1 7-3.5c.752-.671 1.086-1.504 1-2.5a125.71 125.71 0 0 0 16-10c1.88.271 3.213-.396 4-2a161.199 161.199 0 0 0 19-8c6.269-.924 11.936.409 17 4 1.071-1.825.404-2.992-2-3.5 7.637-3.21 15.637-4.376 24-3.5z"/><path style="opacity:1" fill="#071214" d="M213.5 244.5c6.199-.388 6.533.612 1 3a55.78 55.78 0 0 0-4-1 7.47 7.47 0 0 1 3-2z"/><path style="opacity:1" fill="#0c111b" d="M156.5 247.5a5.727 5.727 0 0 0-1-3c3.494-1.335 4.66-.001 3.5 4l-1 1c-.278-.916-.778-1.582-1.5-2z"/><path style="opacity:1" fill="#2b5471" d="M155.5 244.5c.61.891.943 1.891 1 3a71.254 71.254 0 0 0-2 4c-1.022-.355-1.689-1.022-2-2 1.086-.12 1.753-.787 2-2-.376-2.303-1.376-2.637-3-1 .337-2.836 1.671-3.502 4-2z"/><path style="opacity:1" fill="#031711" d="M152.5 249.5a5.727 5.727 0 0 1-1-3c1.624-1.637 2.624-1.303 3 1-.247 1.213-.914 1.88-2 2z"/><path style="opacity:1" fill="#0a1318" d="M230.5 243.5c6.108.243 6.775 1.243 2 3-1.59-.128-2.923-.795-4-2 .457-.798 1.124-1.131 2-1z"/><path style="opacity:1" fill="#dbe8e7" d="M179.5 243.5h5c.012 2.642-1.321 3.975-4 4-.934-1.068-1.268-2.401-1-4z"/><path style="opacity:1" fill="#d9e8e4" d="M132.5 240.5c.284 1.915-.049 3.581-1 5-1.208-.734-2.541-1.067-4-1-.116-3.41 1.55-4.744 5-4z"/><path style="opacity:1" fill="#141314" d="M229.5 238.5a18.453 18.453 0 0 1 6 .5 10.515 10.515 0 0 1-3 2.5 12.93 12.93 0 0 1-5-.5c.881-.708 1.547-1.542 2-2.5z"/><path style="opacity:1" fill="#b4b4b4" d="M227.5 233.5c.438-.065.772.101 1 .5-1.536 1.599-2.036 3.433-1.5 5.5.671-.752 1.504-1.086 2.5-1-.453.958-1.119 1.792-2 2.5a12.93 12.93 0 0 0 5 .5l-2 2c-.876-.131-1.543.202-2 1 1.077 1.205 2.41 1.872 4 2 0 .667-.333 1-1 1-4.89-1.974-5.89-.974-3 3 0 .667-.333 1-1 1-.526-1.73-1.526-3.064-3-4h-2c-1.474.936-2.474 2.27-3 4h-1a9.175 9.175 0 0 1 2-4.5c-1.756-.14-3.422.36-5 1.5-.607-.124-.94-.457-1-1 5.533-2.388 5.199-3.388-1-3 .835-1.443 2.168-2.443 4-3l-3-2.5c1.626.195 3.293.195 5 0-2.521-5.771-2.021-5.937 1.5-.5 1.455-9.133 2.455-9.133 3 0a28.926 28.926 0 0 1 3.5-5z"/><path style="opacity:1" fill="#4d6d76" d="M221.5 239.5c4.966.429 5.966 2.596 3 6.5-5.118-.176-6.118-2.342-3-6.5z"/><path style="opacity:1" fill="#0b0e17" d="M161.5 230.5a28.906 28.906 0 0 1 8 3c3.308 2.95 5.308 6.616 6 11a84.902 84.902 0 0 1-13-.5c-3.479-4.126-3.812-8.626-1-13.5z"/><path style="opacity:1" fill="#cae1e9" d="M178.5 236.5h4c.227 2.433-.773 4.099-3 5-1.873-1.396-2.206-3.063-1-5z"/><path style="opacity:1" fill="#090c14" d="M148.5 227.5h9a52.016 52.016 0 0 1-1.5 10 12.17 12.17 0 0 1-4.5 3.5c-1 .667-2 .667-3 0a73.43 73.43 0 0 1-8-4.5 4.934 4.934 0 0 1 .5-3 125.763 125.763 0 0 1 7.5-6z"/><path style="opacity:1" fill="#e1ebe2" d="M133.5 234.5c1.454 1.763 1.12 3.097-1 4-2.032-.548-3.032-1.881-3-4h4z"/><path style="opacity:1" fill="#d2e6e5" d="M177.5 235.5c-1.946-.535-2.946-1.868-3-4 1.542-.801 3.208-1.134 5-1 .108 2.014-.558 3.68-2 5z"/><path style="opacity:1" fill="#e6ebf0" d="M138.5 229.5c-.238 1.904-1.238 3.238-3 4-1.442-1.32-2.108-2.986-2-5 1.792-.134 3.458.199 5 1z"/><path style="opacity:1" fill="#101435" d="M169.5 233.5a28.906 28.906 0 0 0-8-3c.343-1.725 1.343-2.225 3-1.5 2.192 1.067 3.858 2.567 5 4.5z"/><path style="opacity:1" fill="#daf1ee" d="M173.5 230.5a8.941 8.941 0 0 1-4-3c1.28-1.431 2.947-2.098 5-2a20.69 20.69 0 0 1-1 5z"/><path style="opacity:1" fill="#d8eaef" d="M143.5 225.5c-.194 2.412-1.527 3.412-4 3a20.69 20.69 0 0 1-1-5c2.014-.108 3.68.558 5 2z"/><path style="opacity:1" fill="#e7e3e4" d="M168.5 225.5c-1.501.943-2.835.609-4-1 .194-2.412 1.527-3.412 4-3v4z"/><path style="opacity:1" fill="#e1e1e1" d="M162.5 223.5h-5c.734-1.208 1.067-2.541 1-4h4v4z"/><path style="opacity:1" fill="#eeeff6" d="M145.5 220.5c1.904.238 3.238 1.238 4 3-3.157 2.736-4.491 1.736-4-3z"/><path style="opacity:1" fill="#ececec" d="M155.5 221.5c-.683 1.676-2.017 2.343-4 2a8.43 8.43 0 0 1 .5-4c2.149-1.34 3.316-.673 3.5 2z"/><path style="opacity:1" fill="#939393" d="M223.5 214.5c4.506-.973 6.672.694 6.5 5-6.024 3.242-8.191 1.575-6.5-5z"/><path style="opacity:1" fill="#505050" d="M224.5 215.5c4.461.548 4.961 2.215 1.5 5-2.509-1.153-3.009-2.82-1.5-5z"/><path style="opacity:1" fill="#161515" d="M206.5 215.5c7.647-.187 10.814 3.48 9.5 11-4.654 5.385-9.154 5.218-13.5-.5a40.914 40.914 0 0 1 9-.5v-5c-3.029.318-5.695 1.151-8 2.5-1.054-1.388-1.22-2.888-.5-4.5 1.518-.663 2.685-1.663 3.5-3z"/><path style="opacity:1" fill="#959595" d="M207.5 204.5h2c-2.058 3.949-2.724 3.949-2 0z"/><path style="opacity:1" fill="#5c5c5c" d="M118.5 244.5c5.394-.946 7.061 1.054 5 6-6.467 1.704-8.133-.296-5-6z"/><path style="opacity:1" fill="#a6a6a6" d="M112.5 246.5c-.492 2.319-1.492 4.319-3 6-.039-2.589.961-4.589 3-6z"/><path style="opacity:1" fill="#0a1215" d="m231.5 247.5 2 3v2c-1.32-1.442-2.986-2.108-5-2-2.89-3.974-1.89-4.974 3-3z"/><path style="opacity:1" fill="#3b5661" d="M235.5 250.5h-2l-2-3c.667 0 1-.333 1-1 4.775-1.757 4.108-2.757-2-3l2-2a10.515 10.515 0 0 0 3-2.5 18.453 18.453 0 0 0-6-.5c.67-2.848 2.337-4.348 5-4.5a7.248 7.248 0 0 0-2 2.5c1.467.223 2.967.556 4.5 1 .711 1.867.211 3.367-1.5 4.5 3.856 3.009 3.19 5.009-2 6 .881.708 1.547 1.542 2 2.5z"/><path style="opacity:1" fill="#d9e8e1" d="M130.5 247.5c1.174 1.014 1.84 2.347 2 4a12.93 12.93 0 0 1-5-.5c-.89-2.307.11-3.473 3-3.5z"/><path style="opacity:1" fill="#100c13" d="M222.5 247.5c.352 2.573-.148 4.906-1.5 7-.278-.916-.778-1.582-1.5-2v-1c.526-1.73 1.526-3.064 3-4z"/><path style="opacity:1" fill="#081217" d="M224.5 247.5c1.474.936 2.474 2.27 3 4 1.015 3.457.181 3.79-2.5 1a12.93 12.93 0 0 1-.5-5z"/><path style="opacity:1" fill="#090b11" d="M168.5 247.5h7c-.098 7.197-3.098 12.863-9 17-3.151-3.227-5.151-7.06-6-11.5-.061-1.711.606-3.044 2-4 2.208-.191 4.208-.691 6-1.5z"/><path style="opacity:1" fill="#d4dee0" d="M180.5 249.5a19.602 19.602 0 0 0 3.5 2c.464.594.631 1.261.5 2h-6c-.343-1.983.324-3.317 2-4z"/><path style="opacity:1" fill="#bac3c4" d="M185.5 241.5a812.705 812.705 0 0 1 2 11 31.147 31.147 0 0 1 2-2c.966 2.625 1.966 2.625 3 0 1.558.871 3.225 1.871 5 3 1.495 3.145 1.162 5.978-1 8.5 1.256.417 1.923 1.25 2 2.5-1.89.203-3.39-.463-4.5-2-3.467 1.704-6.3.87-8.5-2.5l1-1c-1.238.077-2.238-.089-3-.5a9.108 9.108 0 0 0 1-5c.983-3.798 1.317-7.798 1-12z"/><path style="opacity:1" fill="#141418" d="M189.5 253.5c7.188-.464 8.855 2.036 5 7.5-6.348.458-8.015-2.042-5-7.5z"/><path style="opacity:1" fill="#445961" d="M222.5 247.5h2a12.93 12.93 0 0 0 .5 5c2.681 2.79 3.515 2.457 2.5-1 .667 0 1-.333 1-1 2.014-.108 3.68.558 5 2 .838.342 1.172 1.008 1 2a5.576 5.576 0 0 1-3-1c-.963.47-.963 1.137 0 2a9.108 9.108 0 0 0-5 1c-1.822-3.602-2.822-3.602-3 0-1.599.268-2.932-.066-4-1v-3c.722.418 1.222 1.084 1.5 2 1.352-2.094 1.852-4.427 1.5-7z"/><path style="opacity:1" fill="#1e1d18" d="M239.5 256.5c-.934-1.068-1.268-2.401-1-4h3c-.027 1.699-.694 3.033-2 4z"/><path style="opacity:1" fill="#d8e2e8" d="M132.5 253.5c2.274 1.645 2.274 3.145 0 4.5 1.633.48 2.966 1.313 4 2.5v3a5.727 5.727 0 0 1-3 1h-1c-.543-.06-.876-.393-1-1l2-3a21.614 21.614 0 0 1-5-4c.967-1.484 2.3-2.484 4-3z"/><path style="opacity:1" fill="#0f1212" d="M231.5 255.5c-.102.837-1.102 1.504-3 2l3 2c-3.878 1.385-3.878 2.551 0 3.5-.881.708-1.547 1.542-2 2.5h-1c-1.262 2.571-2.595 2.571-4 0-.713 1.935-1.713 2.268-3 1a15.414 15.414 0 0 0-2-4.5 9.258 9.258 0 0 1 2-2.5 19.887 19.887 0 0 1-4-3.5 2.428 2.428 0 0 1 2-.5c1.068.934 2.401 1.268 4 1 .178-3.602 1.178-3.602 3 0a9.108 9.108 0 0 1 5-1z"/><path style="opacity:1" fill="#b5b5b5" d="M117.5 260.5v-3h-4c.87-2.099 2.203-2.432 4-1 1.282 1.458 1.282 2.792 0 4z"/><path style="opacity:1" fill="#9bb7a5" d="M191.5 256.5c1.837.139 2.17.806 1 2-.798-.457-1.131-1.124-1-2z"/><path style="opacity:1" fill="#171415" d="M234.5 254.5c1.324-1.35 2.324-1.183 3 .5a66.87 66.87 0 0 0-1.5 5.5c-2.479-1.588-2.979-3.588-1.5-6z"/><path style="opacity:1" fill="#141413" d="M239.5 256.5c1.844 1.779 2.51 4.112 2 7-1.459.067-2.792-.266-4-1-.247-2.358.419-4.358 2-6z"/><path style="opacity:1" fill="#dfe9f0" d="M178.5 255.5c2.19.874 3.19 2.541 3 5h-4c-1.206-1.937-.873-3.604 1-5z"/><path style="opacity:1" fill="#535353" d="M113.5 257.5h4v3c-2.473.412-3.806-.588-4-3z"/><path style="opacity:1" fill="#5ab9bc" d="M141.5 262.5c1.89 2.078 4.224 3.411 7 4 .067 1.459-.266 2.792-1 4 0 .667-.333 1-1 1-.337-2.836-1.671-3.502-4-2-.342-.838-1.008-1.172-2-1 .929-1.822.262-3.155-2-4-.342-.838-1.008-1.172-2-1v-3c1.208-1.282 2.542-1.282 4 0-1.488 2.386-1.155 3.052 1 2z"/><path style="opacity:1" fill="#0a0b12" d="M148.5 266.5c-2.776-.589-5.11-1.922-7-4a93.56 93.56 0 0 1 8-8.5c2.413-.484 4.746-.15 7 1 8.633 11.539 5.967 15.373-8 11.5z"/><path style="opacity:1" fill="#bababa" d="M113.5 257.5c.194 2.412 1.527 3.412 4 3-2.204 2.598-3.871 2.098-5-1.5.07-.765.403-1.265 1-1.5z"/><path style="opacity:1" fill="#9a9d9a" d="M126.5 263.5c-.764-4.175.903-5.009 5-2.5-1.284.684-2.451.517-3.5-.5-.232 1.237-.732 2.237-1.5 3z"/><path style="opacity:1" fill="#131416" d="M182.5 253.5h2a9.108 9.108 0 0 1-1 5c.762.411 1.762.577 3 .5l-1 1c2.2 3.37 5.033 4.204 8.5 2.5 1.11 1.537 2.61 2.203 4.5 2 1.08 1.545 1.08 3.045 0 4.5l1 1.5c.951-.826 1.951-.992 3-.5 1.238.69 1.238 1.19 0 1.5a5.727 5.727 0 0 0-3 1c-1.527.073-2.527-.594-3-2 1.184-1.188 1.184-2.355 0-3.5-1.498-.585-2.498-.085-3 1.5-1.395 1.315-2.395.981-3-1v-3h-3c-.934 1.068-1.268 2.401-1 4h-3c.278-1.846-.389-3.18-2-4-1.419.505-2.085 1.505-2 3-.321 1.548-1.321 2.215-3 2-1.226-1.687-.892-3.187 1-4.5a11.803 11.803 0 0 0-2-3.5c.342-.838 1.008-1.172 2-1h4c.19-2.459-.81-4.126-3-5l4-2z"/><path style="opacity:1" fill="#131313" d="M237.5 262.5c.282 1.278.949 2.278 2 3-4.698 1.147-6.865-.853-6.5-6 1.129 1.641 2.629 2.641 4.5 3z"/><path style="opacity:1" fill="#deeae3" d="M175.5 261.5a11.803 11.803 0 0 1 2 3.5c-1.892 1.313-2.226 2.813-1 4.5a5.727 5.727 0 0 1-3 1 6.846 6.846 0 0 1 1-4 31.147 31.147 0 0 1-2-2 6.547 6.547 0 0 1 3-3z"/><path style="opacity:1" fill="#0b120e" d="M136.5 263.5c.992-.172 1.658.162 2 1-.838.342-1.172 1.008-1 2-1.653-.16-2.986-.826-4-2a5.727 5.727 0 0 0 3-1z"/><path style="opacity:1" fill="#c9d8e0" d="M183.5 268.5c-1.459.067-2.792-.266-4-1-.085-1.495.581-2.495 2-3 1.611.82 2.278 2.154 2 4z"/><path style="opacity:1" fill="#d5dee4" d="M187.5 264.5h3v3c-2.379 1.067-3.379.067-3-3z"/><path style="opacity:1" fill="#4c7c88" d="M211.5 249.5c1.548.321 2.215 1.321 2 3a20.69 20.69 0 0 0 5-1h1v4a2.428 2.428 0 0 0-2 .5 19.887 19.887 0 0 0 4 3.5 9.258 9.258 0 0 0-2 2.5 15.414 15.414 0 0 1 2 4.5c-2.473-.412-3.806.588-4 3-.992-.172-1.658.162-2 1-2.162.397-3.495 1.731-4 4-.749-1.512-1.916-2.512-3.5-3a44.053 44.053 0 0 1-5.5 3v-3c1.238-.31 1.238-.81 0-1.5-1.049-.492-2.049-.326-3 .5l-1-1.5c1.08-1.455 1.08-2.955 0-4.5.65.304 1.317.637 2 1 6.757-3.623 6.423-6.789-1-9.5.712-1.425.879-2.925.5-4.5 1.049 1.017 2.216 1.184 3.5.5a20.499 20.499 0 0 1 2.5-3.5c1.65 3.127 3.483 3.46 5.5 1z"/><path style="opacity:1" fill="#090e1f" d="M212.5 253.5c2.864 1.523 4.531 3.857 5 7-5.747.629-7.414-1.705-5-7z"/><path style="opacity:1" fill="#051522" d="M205.5 252.5c5.532-.565 6.532 1.268 3 5.5-2.594.449-4.594-.551-6-3a81.316 81.316 0 0 0 3-2.5z"/><path style="opacity:1" fill="#081726" d="M204.5 264.5c3.985-.06 5.652 1.94 5 6-3.255.486-5.922-.514-8-3 .84-1.235 1.84-2.235 3-3z"/><path style="opacity:1" fill="#05171f" d="M211.5 262.5c6.769-.406 7.769 1.761 3 6.5-3.869-.508-4.869-2.675-3-6.5z"/><path style="opacity:1" fill="#252423" d="M239.5 265.5c1.548.321 2.215 1.321 2 3-3.873.166-4.54-.834-2-3z"/><path style="opacity:1" fill="#9e9e9e" d="M109.5 252.5a106.21 106.21 0 0 0 1 20c-.346 1.196-.846 1.196-1.5 0a12.93 12.93 0 0 0-.5 5c-.009-6.174-.343-12.508-1-19 .099-2.299.766-4.299 2-6z"/><path style="opacity:1" fill="#585655" d="M132.5 264.5h1c1.014 1.174 2.347 1.84 4 2-1.629 1.696-1.296 2.696 1 3a253.979 253.979 0 0 1-6 3c-5.251-2.976-5.251-5.643 0-8z"/><path style="opacity:1" fill="#f2f1f5" d="M138.5 264.5c2.262.845 2.929 2.178 2 4l-2 1c-2.296-.304-2.629-1.304-1-3-.172-.992.162-1.658 1-2z"/><path style="opacity:1" fill="#45474a" d="M172.5 264.5a31.147 31.147 0 0 0 2 2 6.846 6.846 0 0 0-1 4c0 1.333-.667 2-2 2 1.188-1.509 1.188-3.509 0-6-.172-.992.162-1.658 1-2z"/><path style="opacity:1" fill="#2c2c36" d="M221.5 266.5a4.934 4.934 0 0 1-.5 3c-.893-1.211-1.726-1.211-2.5 0a3.647 3.647 0 0 0 1 1.5c-1.316.528-1.983.028-2-1.5.194-2.412 1.527-3.412 4-3z"/><path style="opacity:1" fill="#cfdae3" d="M196.5 270.5c-1.679.215-2.679-.452-3-2 .502-1.585 1.502-2.085 3-1.5 1.184 1.145 1.184 2.312 0 3.5z"/><path style="opacity:1" fill="#0e0f0f" d="M227.5 268.5c.734 1.208 1.067 2.541 1 4-2.358.247-4.358-.419-6-2 1.28-1.431 2.947-2.098 5-2z"/><path style="opacity:1" fill="#d9eae9" d="M166.5 271.5v3c-2.459.19-4.126-.81-5-3 1.634-2.651 3.301-2.651 5 0z"/><path style="opacity:1" fill="#e1dbde" d="M171.5 266.5c1.188 2.491 1.188 4.491 0 6 .073 1.527-.594 2.527-2 3-2.546-1.479-2.546-2.979 0-4.5-.881-.708-1.547-1.542-2-2.5.787-1.604 2.12-2.271 4-2z"/><path style="opacity:1" fill="#7a7f7c" d="M220.5 271.5c.342-.838 1.008-1.172 2-1 1.642 1.581 3.642 2.247 6 2v2c-1.325 1.453-2.158 1.119-2.5-1a25.14 25.14 0 0 1-4.5 4c.203-1.544.87-2.878 2-4-.505-1.419-1.505-2.085-3-2z"/><path style="opacity:1" fill="#555" d="M228.5 265.5h1a8.43 8.43 0 0 1 4 .5c-3.596.956-4.262 2.456-2 4.5l-3 2c.067-1.459-.266-2.792-1-4 .904-.709 1.237-1.709 1-3z"/><path style="opacity:1" fill="#d8cfd0" d="M146.5 271.5c-.787 1.604-2.12 2.271-4 2-.778-.656-1.444-1.489-2-2.5.336-1.03 1.003-1.53 2-1.5 2.329-1.502 3.663-.836 4 2z"/><path style="opacity:1" fill="#f5f5f5" d="M155.5 271.5c1.983-.343 3.317.324 4 2 .073 1.527-.594 2.527-2 3 0-.667-.333-1-1-1l-1-4z"/><path style="opacity:1" fill="#e5e5e5" d="M149.5 271.5h4a16.339 16.339 0 0 1-2 5c-1.756-1.052-2.423-2.719-2-5z"/><path style="opacity:1" fill="#161616" d="M153.5 271.5h2l1 4-2 3h-2c.172-.992-.162-1.658-1-2a16.339 16.339 0 0 0 2-5z"/><path style="opacity:1" fill="#f0f8f6" d="M202.5 271.5v3h-1c-1.333 0-2-.667-2-2a5.727 5.727 0 0 1 3-1z"/><path style="opacity:1" fill="#0c1010" d="M215.5 270.5a30.233 30.233 0 0 0 3 3.5c-2.667 1-2.667 2 0 3a36.078 36.078 0 0 0-4.5 3.5 4.934 4.934 0 0 1-.5-3h-4c.369 2.493-.297 3.16-2 2-.683-1.676-2.017-2.343-4-2-1.548-.321-2.215-1.321-2-3h1a44.053 44.053 0 0 0 5.5-3c1.584.488 2.751 1.488 3.5 3 .505-2.269 1.838-3.603 4-4z"/><path style="opacity:1" fill="#0d0f0e" d="M220.5 271.5c1.495-.085 2.495.581 3 2-1.13 1.122-1.797 2.456-2 4-1.086-.12-1.753-.787-2-2a343.58 343.58 0 0 0 1-4z"/><path style="opacity:1" fill="#101012" d="m231.5 270.5 2 1v4c-1.792.134-3.458-.199-5-1v-2l3-2z"/><path style="opacity:1" fill="#7a7a7a" d="M113.5 270.5c5.658-.821 7.325 1.346 5 6.5-5.374.762-7.041-1.405-5-6.5z"/><path style="opacity:1" fill="#2d90a8" d="M187.5 264.5c-.379 3.067.621 4.067 3 3 .605 1.981 1.605 2.315 3 1 .321 1.548 1.321 2.215 3 2 .473 1.406 1.473 2.073 3 2 0 1.333.667 2 2 2-.215 1.679.452 2.679 2 3-.215 1.679.452 2.679 2 3-.418.722-1.084 1.222-2 1.5l2 1c-1.291 1.292-1.291 2.458 0 3.5-.734 1.208-1.067 2.541-1 4-.789.283-1.456.783-2 1.5 1.098.77 1.098 1.603 0 2.5-.667 0-1 .333-1 1-1 .333-1.667 1-2 2-1.406.473-2.073 1.473-2 3-1.291-.237-2.291.096-3 1-1.291-.237-2.291.096-3 1-1.291-.237-2.291.096-3 1-1.333-1.333-2.667-1.333-4 0-.709-.904-1.709-1.237-3-1v3c-.904-.709-1.237-1.709-1-3h-3c0-1.333-.667-2-2-2-.473-1.406-1.473-2.073-3-2 .073-1.527-.594-2.527-2-3-.333-1-1-1.667-2-2 .237-1.291-.096-2.291-1-3 .237-1.291-.096-2.291-1-3v-3c1.326-1.695.993-3.028-1-4 2.507-.132 3.174-1.132 2-3 1.333 0 2-.667 2-2 1.406-.473 2.073-1.473 2-3 1.333 0 2-.667 2-2a5.727 5.727 0 0 0 3-1c1.679.215 2.679-.452 3-2 1.208.734 2.541 1.067 4 1h3c-.268-1.599.066-2.932 1-4z"/><path style="opacity:1" fill="#0e1119" d="M185.5 280.5h-4c-6.071-5.615-4.904-8.615 3.5-9 2.389-.018 4.556.649 6.5 2-1.797 1.631-2.964 3.631-3.5 6-.671.752-1.504 1.086-2.5 1z"/><path style="opacity:1" fill="#8f8f8f" d="M126.5 263.5c-.418.722-1.084 1.222-2 1.5 1.291 2.09.624 3.424-2 4 2.675 1.836 4.508 4.336 5.5 7.5 2.454-1.513 4.121-.846 5 2 .576-2.624 1.91-3.291 4-2 .928-2.535 2.762-3.535 5.5-3-.206 2.049-1.039 2.383-2.5 1-.174 3.371-1.674 4.371-4.5 3-2.345 2.721-4.178 2.388-5.5-1-.677 2.189-1.844 2.522-3.5 1-1.211-.774-1.211-1.607 0-2.5-3.487.833-4.487-.501-3-4-1.016-.519-1.682-1.353-2-2.5a43.145 43.145 0 0 1 1.5-5c1.145-1.184 2.312-1.184 3.5 0z"/><path style="opacity:1" fill="#041e3a" d="M176.5 278.5c-3.51 1.821-4.843 4.821-4 9h5l-4 3c-3.998-3.958-3.998-8.125 0-12.5 1.249-.74 2.249-.573 3 .5z"/><path style="opacity:1" fill="#5c5c5c" d="M148.5 271.5h1c-.423 2.281.244 3.948 2 5 .838.342 1.172 1.008 1 2h2c-1.333 1-1.333 2 0 3-2.28 1.999-4.614 2.999-7 3-.838-.342-1.172-1.008-1-2 .086-.996-.248-1.829-1-2.5 2.43-2.305 3.43-5.138 3-8.5z"/><path style="opacity:1" fill="#1b1b1b" d="M152.5 278.5c.15 3.661-1.35 4.661-4.5 3-.74-1.249-.573-2.249.5-3 1.205-1.186 2.539-1.186 4 0z"/><path style="opacity:1" fill="#e1dbe8" d="M167.5 277.5c1.174 1.868.507 2.868-2 3-.978-.311-1.645-.978-2-2 1.189-.929 2.522-1.262 4-1z"/><path style="opacity:1" fill="#e5e8f0" d="M203.5 277.5c1.983-.343 3.317.324 4 2-.992-.172-1.658.162-2 1-1.548-.321-2.215-1.321-2-3z"/><path style="opacity:1" fill="#c3c3c3" d="M119.5 279.5c5.86-1.426 7.86.574 6 6-6.366 2.301-8.366.301-6-6z"/><path style="opacity:1" fill="#b7b7b7" d="M148.5 278.5c2.793.24 3.293 1.24 1.5 3-1.039-.744-1.539-1.744-1.5-3z"/><path style="opacity:1" fill="#9e9e9e" d="M109.5 279.5a120.332 120.332 0 0 0 8 10v1c-1.871-.359-3.371-1.359-4.5-3a43.53 43.53 0 0 0-3.5-8z"/><path style="opacity:1" fill="#191717" d="M233.5 277.5c-.901 4.022-2.734 4.689-5.5 2a6.802 6.802 0 0 1-1.5 3 5.576 5.576 0 0 0-3-1c-.086-.996.248-1.829 1-2.5 2.28-.233 4.28-1.066 6-2.5a5.576 5.576 0 0 0 3 1z"/><path style="opacity:1" fill="#161513" d="M239.5 282.5c.791-1.556 1.124-2.89 1-4 1.141 1.921 1.308 3.921.5 6-.278-.916-.778-1.582-1.5-2z"/><path style="opacity:1" fill="#a0a0a0" d="M156.5 275.5c.667 0 1 .333 1 1 .972.899 1.638 2.066 2 3.5-1.049 3.63-2.716 4.13-5 1.5-1.333-1-1.333-2 0-3l2-3z"/><path style="opacity:1" fill="#7c7b7b" d="m236.5 272.5-1 2c-.901.79-1.568 1.79-2 3a5.576 5.576 0 0 1-3-1c-1.72 1.434-3.72 2.267-6 2.5-.752.671-1.086 1.504-1 2.5-1.152 1.125-2.152 1.125-3 0 2.494-2.68 5.161-5.014 8-7 1.542.801 3.208 1.134 5 1v-4a16.332 16.332 0 0 1 2-4c.847 1.561.514 3.061-1 4.5a2.428 2.428 0 0 0 2 .5z"/><path style="opacity:1" fill="#2c2c2c" d="M121.5 280.5c4.516 1.125 4.85 2.792 1 5-3.36-1.291-3.694-2.957-1-5z"/><path style="opacity:1" fill="#9d9d9d" d="M146.5 282.5c-.172.992.162 1.658 1 2-1.059 4.28-3.226 4.946-6.5 2-.267-4.234 1.566-5.567 5.5-4z"/><path style="opacity:1" fill="#0e0811" d="M176.5 278.5a12.066 12.066 0 0 0 4 3 12.93 12.93 0 0 1-.5 5c-.671.752-1.504 1.086-2.5 1h-5c-.843-4.179.49-7.179 4-9z"/><path style="opacity:1" fill="#afb2b2" d="M235.5 274.5c2.613.595 2.613 1.429 0 2.5 2.501 1.418 2.168 2.418-1 3 1.363 2.129 1.029 2.629-1 1.5-.642 3.297-1.809 3.631-3.5 1a8.43 8.43 0 0 0-.5 4h-2c.171-3.297-.495-3.631-2-1a6.802 6.802 0 0 1-1.5-3l-3.5 3.5c1.237.232 2.237.732 3 1.5v3c-.578 1.047-1.244.88-2-.5 1.383-1.461 1.049-2.294-1-2.5a44.093 44.093 0 0 1-2-3c-.896 1.006-1.562 1.006-2 0a514.367 514.367 0 0 1 4-3c.848 1.125 1.848 1.125 3 0a5.576 5.576 0 0 1 3 1 6.802 6.802 0 0 0 1.5-3c2.766 2.689 4.599 2.022 5.5-2 .432-1.21 1.099-2.21 2-3z"/><path style="opacity:1" fill="#121316" d="M239.5 282.5c-.304.65-.637 1.317-1 2 3.556 4.107 3.889 8.44 1 13a8.43 8.43 0 0 1-4-.5l2-1v-5c-1.349-.772-2.182-1.939-2.5-3.5-1-1.333-2-1.333-3 0-.342-2.119-1.175-2.453-2.5-1a8.43 8.43 0 0 1 .5-4c1.691 2.631 2.858 2.297 3.5-1 2.029 1.129 2.363.629 1-1.5 3.168-.582 3.501-1.582 1-3 2.613-1.071 2.613-1.905 0-2.5l1-2a7.47 7.47 0 0 1 2-3l3 4.5a66.028 66.028 0 0 0-4 7.5c.457.798 1.124 1.131 2 1z"/><path style="opacity:1" fill="#0d161e" d="M193.5 286.5c-2.307-1.263-3.641-3.263-4-6 2.437-7.536 5.603-7.87 9.5-1a17.758 17.758 0 0 1 1.5 7h-7z"/><path style="opacity:1" fill="#ded6d9" d="M166.5 284.5v3c-1.846.278-3.18-.389-4-2 1.189-.929 2.522-1.262 4-1z"/><path style="opacity:1" fill="#16191d" d="M227.5 286.5c-1.25.077-2.083.744-2.5 2-.383-.556-.883-.889-1.5-1-.763-.768-1.763-1.268-3-1.5l3.5-3.5a6.802 6.802 0 0 0 1.5 3c1.505-2.631 2.171-2.297 2 1z"/><path style="opacity:1" fill="#397a93" d="M181.5 280.5h4c1.205 1.186 2.539 1.186 4 0 .359 2.737 1.693 4.737 4 6v1c-1.951-.273-3.451.393-4.5 2-.736 3.092-.569 6.092.5 9h-3c.771-7.374-2.396-10.04-9.5-8-1.595.856-2.428 2.189-2.5 4-.934-1.068-1.268-2.401-1-4l4-3c.996.086 1.829-.248 2.5-1a12.93 12.93 0 0 0 .5-5c.667 0 1-.333 1-1z"/><path style="opacity:1" fill="#0b1120" d="M183.5 282.5c4.659-.485 5.992 1.348 4 5.5-4.789.845-6.123-.989-4-5.5z"/><path style="opacity:1" fill="#131313" d="M228.5 274.5c-2.839 1.986-5.506 4.32-8 7a514.367 514.367 0 0 0-4 3c.438 1.006 1.104 1.006 2 0a44.093 44.093 0 0 0 2 3c-1.126 2-1.293 4-.5 6-1.113-1.211-2.28-1.211-3.5 0a20.2 20.2 0 0 1-1.5-6c-1.076 5.511.424 10.177 4.5 14a53.768 53.768 0 0 0-10 2c-1.425 1.531-2.091 1.198-2-1 1.497-1.79 2.164-3.956 2-6.5a56.714 56.714 0 0 0-1-7 18.713 18.713 0 0 1 6-6.5 26.175 26.175 0 0 0 7-5 25.14 25.14 0 0 0 4.5-4c.342 2.119 1.175 2.453 2.5 1z"/><path style="opacity:1" fill="#545454" d="M117.5 289.5h11c.342.838 1.008 1.172 2 1-4.333 1.333-8.667 1.333-13 0v-1z"/><path style="opacity:1" fill="#a2a3a3" d="M175.5 300.5c1.333 0 2 .667 2 2-1.403 1.431-3.069 2.598-5 3.5a14.698 14.698 0 0 1 3 3.5c-2.386-.873-4.386-2.373-6-4.5l-6-1-9.5-9.5-1-7a14.444 14.444 0 0 1-5.5 2.5c-5.729.02-11.396.186-17 .5-.992.172-1.658-.162-2-1a80.805 80.805 0 0 1 18-.5 41.393 41.393 0 0 0 9.5-4.5c-1.207 2.414-1.54 5.081-1 8a70.588 70.588 0 0 0 9.5 10.5c4.242 1.077 7.909.244 11-2.5z"/><path style="opacity:1" fill="#271d20" d="M205.5 286.5c1.676.683 2.343 2.017 2 4h-3c-.067-1.459.266-2.792 1-4z"/><path style="opacity:1" fill="#d7e2e3" d="M167.5 290.5c.904.709 1.237 1.709 1 3h-4v-3h3z"/><path style="opacity:1" fill="#110f1a" d="M193.5 287.5c1.879.841 3.879 1.175 6 1-.949 5.616-4.282 8.949-10 10-1.069-2.908-1.236-5.908-.5-9 1.049-1.607 2.549-2.273 4.5-2z"/><path style="opacity:1" fill="#091016" d="M186.5 298.5c-4.366.519-8.366-.814-12-4 .072-1.811.905-3.144 2.5-4 7.104-2.04 10.271.626 9.5 8z"/><path style="opacity:1" fill="#aeafb1" d="M228.5 265.5c.237 1.291-.096 2.291-1 3-2.053-.098-3.72.569-5 2-.992-.172-1.658.162-2 1a343.58 343.58 0 0 1-1 4c.247 1.213.914 1.88 2 2a26.175 26.175 0 0 1-7 5 18.713 18.713 0 0 0-6 6.5 56.714 56.714 0 0 1 1 7c.164 2.544-.503 4.71-2 6.5a6.846 6.846 0 0 1 1-4l-4-2c1.109-1.714.442-2.381-2-2 1.098-.897 1.098-1.73 0-2.5.544-.717 1.211-1.217 2-1.5h3c.343-1.983-.324-3.317-2-4-1.291-1.042-1.291-2.208 0-3.5l-2-1c.916-.278 1.582-.778 2-1.5.342-.838 1.008-1.172 2-1 1.703 1.16 2.369.493 2-2h4a4.934 4.934 0 0 0 .5 3 36.078 36.078 0 0 1 4.5-3.5c-2.667-1-2.667-2 0-3a30.233 30.233 0 0 1-3-3.5c.342-.838 1.008-1.172 2-1 .017 1.528.684 2.028 2 1.5a3.647 3.647 0 0 1-1-1.5c.774-1.211 1.607-1.211 2.5 0a4.934 4.934 0 0 0 .5-3c1.287 1.268 2.287.935 3-1 1.405 2.571 2.738 2.571 4 0z"/><path style="opacity:1" fill="#121216" d="M207.5 292.5c1.297 1.349 1.13 2.682-.5 4-.579-1.428-.412-2.762.5-4z"/><path style="opacity:1" fill="#1d1617" d="M214.5 282.5c-2.179.34-4.012 1.34-5.5 3-2.055-1.172-2.722-2.839-2-5 1.751 1.309 3.251.975 4.5-1l3 3z"/><path style="opacity:1" fill="#cde6ee" d="M170.5 295.5c1.406.473 2.073 1.473 2 3-1.208.734-2.541 1.067-4 1-.271-1.88.396-3.213 2-4z"/><path style="opacity:1" fill="#dae0dd" d="M201.5 295.5c1.604.787 2.271 2.12 2 4-1.88.271-3.213-.396-4-2 .333-1 1-1.667 2-2z"/><path style="opacity:1" fill="#718890" d="M239.5 297.5c2.198-.091 2.531.575 1 2-5.108 3.378-10.775 5.378-17 6-1.915.284-3.581-.049-5-1 4.912.437 9.578-.396 14-2.5-1.167-.5-2-1.333-2.5-2.5a4.934 4.934 0 0 0-.5 3c-1.459-.067-2.792.266-4 1l-2-2a8.43 8.43 0 0 0 4-.5 19.887 19.887 0 0 1-4-3.5c-1.211-1.22-1.211-2.387 0-3.5a29.812 29.812 0 0 0-5 .5c-.247 2.358.419 4.358 2 6 0 .667-.333 1-1 1-4.076-3.823-5.576-8.489-4.5-14a20.2 20.2 0 0 0 1.5 6c1.22-1.211 2.387-1.211 3.5 0-.793-2-.626-4 .5-6 2.049.206 2.383 1.039 1 2.5.756 1.38 1.422 1.547 2 .5.668 2.745 2.001 5.245 4 7.5 3.079 1.09 5.412.257 7-2.5-3.811-1.238-3.811-1.904 0-2 .363-2.411-.637-3.911-3-4.5a18.163 18.163 0 0 0-8 .5v-2c.617.111 1.117.444 1.5 1 .417-1.256 1.25-1.923 2.5-2h2c1.325-1.453 2.158-1.119 2.5 1 1-1.333 2-1.333 3 0 .318 1.561 1.151 2.728 2.5 3.5v5l-2 1a8.43 8.43 0 0 0 4 .5z"/><path style="opacity:1" fill="#101717" d="M223.5 301.5a5.727 5.727 0 0 1-3-1c-1.581-1.642-2.247-3.642-2-6a29.812 29.812 0 0 1 5-.5c-1.211 1.113-1.211 2.28 0 3.5a19.887 19.887 0 0 0 4 3.5 8.43 8.43 0 0 1-4 .5z"/><path style="opacity:1" fill="#1a3a4d" d="M223.5 290.5v-1a18.163 18.163 0 0 1 8-.5c2.363.589 3.363 2.089 3 4.5-3.811.096-3.811.762 0 2-1.588 2.757-3.921 3.59-7 2.5-1.999-2.255-3.332-4.755-4-7.5z"/><path style="opacity:1" fill="#e8e7ea" d="M197.5 300.5c.904.709 1.237 1.709 1 3-1.88.271-3.213-.396-4-2 .709-.904 1.709-1.237 3-1z"/><path style="opacity:1" fill="#adaeae" d="M220.5 300.5c.891.61 1.891.943 3 1l2 2h-11l-4 2c-.798-.457-1.131-1.124-1-2a53.768 53.768 0 0 1 10-2c.667 0 1-.333 1-1z"/><path style="opacity:1" fill="#0c0d0d" d="M201.5 295.5c0-.667.333-1 1-1 2.442-.381 3.109.286 2 2l4 2a6.846 6.846 0 0 0-1 4c-.838.342-1.172 1.008-1 2a19.552 19.552 0 0 0-4 3.5c-.949.617-1.782.451-2.5-.5-7.775 5.829-15.942 6.495-24.5 2a14.698 14.698 0 0 0-3-3.5c1.931-.902 3.597-2.069 5-3.5h3c-.237 1.291.096 2.291 1 3 .709.904 1.709 1.237 3 1v-3c1.333-1.333 2.667-1.333 4 0v3h3v-4c.709-.904 1.709-1.237 3-1 .787 1.604 2.12 2.271 4 2 .237-1.291-.096-2.291-1-3-.073-1.527.594-2.527 2-3 .787 1.604 2.12 2.271 4 2 .271-1.88-.396-3.213-2-4z"/><path style="opacity:1" fill="#e3eeed" d="M184.5 303.5v3c-1.291.237-2.291-.096-3-1v-3c1.291-.237 2.291.096 3 1z"/><path style="opacity:1" fill="#dde0e3" d="M191.5 302.5v4h-3v-3c.709-.904 1.709-1.237 3-1z"/><path style="opacity:1" fill="#2d2f2e" d="M218.5 304.5c-1.599.268-2.932-.066-4-1h11c1.208-.734 2.541-1.067 4-1a4.934 4.934 0 0 1 .5-3c.5 1.167 1.333 2 2.5 2.5-4.422 2.104-9.088 2.937-14 2.5z"/><path style="opacity:1" fill="#666" d="M207.5 302.5c-.091 2.198.575 2.531 2 1-.131.876.202 1.543 1 2l4-2c1.068.934 2.401 1.268 4 1 1.419.951 3.085 1.284 5 1-3.477.823-7.144 1.323-11 1.5-2.318 1.993-4.984 3.159-8 3.5a8.43 8.43 0 0 1-4-.5l6-2c.671-.986.671-2.153 0-3.5-.172-.992.162-1.658 1-2z"/><path style="opacity:1" fill="#959595" d="M206.5 304.5c.671 1.347.671 2.514 0 3.5l-6 2a8.43 8.43 0 0 0 4 .5c-1.4.6-2.4 1.6-3 3a27.648 27.648 0 0 0-4.5-2 40.097 40.097 0 0 1-11.5 3c-4.188-.161-7.522-1.828-10-5 8.558 4.495 16.725 3.829 24.5-2 .718.951 1.551 1.117 2.5.5a19.552 19.552 0 0 1 4-3.5z"/><path style="opacity:1" fill="#b1b1b1" d="M201.5 313.5c1.406.473 2.073 1.473 2 3-1.406-.473-2.073-1.473-2-3z"/><path style="opacity:1" fill="#8a8a8a" d="M203.5 316.5c4.408 3.239 6.908 7.573 7.5 13 1.061 3.062 2.894 5.562 5.5 7.5-1.887.163-3.387-.671-4.5-2.5a25.653 25.653 0 0 1-4-11c-2.02-2.051-3.52-4.384-4.5-7z"/><path style="opacity:1" fill="#1a697e" d="M.5 324.5v-1h66v21h-1v-20H.5z"/><path style="opacity:1" fill="#d2d2d2" d="M241.5 204.5v2a220.993 220.993 0 0 0-20-5.5c-30.507-4.931-59.173.069-86 15a136.621 136.621 0 0 0-19 14.5c-5.307 4.596-9.14 10.263-11.5 17a224.022 224.022 0 0 0-4.5 26.5c2.726 7.27 2.56 14.437-.5 21.5A168.412 168.412 0 0 0 84.5 324a6.291 6.291 0 0 0 1 3h12a272.59 272.59 0 0 1 2 8.5v4a12.935 12.935 0 0 1-.5 5c-.186-2.536-.686-4.869-1.5-7a53.796 53.796 0 0 1-2-8 60.93 60.93 0 0 1-11-.5c-1.978-2.497-2.478-5.331-1.5-8.5a610.053 610.053 0 0 1 16-29c-1.374-15.22-.04-30.22 4-45 3.153-9.163 8.653-16.663 16.5-22.5 37.279-27.245 77.946-33.745 122-19.5z"/><path style="opacity:1" fill="#109dc4" d="M.5 324.5h1c2.682 1.58 5.682 2.746 9 3.5-2.12 3.125-1.953 6.292.5 9.5 1.921-3.391 2.755-6.891 2.5-10.5a3050.05 3050.05 0 0 0 26-1.5 289.16 289.16 0 0 0 24 1v7h-6c1.587-2.119 1.254-3.786-1-5l-8 2c-7.352-1.165-14.519-1.165-21.5 0-1 3.737-2.332 3.737-4 0l-1 1c-1.418-1.863-3.251-2.363-5.5-1.5-1.333 1.667-1.333 3.333 0 5 12.662.5 25.329.667 38 .5h9v6a576.951 576.951 0 0 0-48 1c16.162.667 32.162 1.333 48 2H.5v-20z"/><path style="opacity:1" fill="#7d7d7d" d="M238.5 328.5c0 .667.333 1 1 1-1.419.951-3.085 1.284-5 1a152.1 152.1 0 0 0 2 14h-1c-1.935-5.089-2.601-10.256-2-15.5a12.93 12.93 0 0 1 5-.5z"/><path style="opacity:1" fill="#050404" d="M239.5 329.5c1.942 4.556 2.608 9.556 2 15h-5a152.1 152.1 0 0 1-2-14c1.915.284 3.581-.049 5-1z"/><path style="opacity:1" fill="#525252" d="M143.5 332.5c1.676.683 2.343 2.017 2 4-2.07.051-3.903-.615-5.5-2-1.3 1.207-2.8 1.874-4.5 2v-3c2.885.306 5.552-.027 8-1z"/><path style="opacity:1" fill="#575757" d="M126.5 332.5c1.951-.273 3.451.393 4.5 2 1.011-.837 2.178-1.17 3.5-1v3h-8v-4z"/><path style="opacity:1" fill="#414141" d="M100.5 339.5h-1v-4a22.18 22.18 0 0 1 5-2c1.494.209 2.661.876 3.5 2 1.698-1.233 3.698-1.9 6-2 3.89 1.11 7.723 1.11 11.5 0v3c-5.148.574-9.982-.093-14.5-2-1.49 2.058-3.49 3.391-6 4-2.045-1.543-3.545-1.21-4.5 1z"/><path style="opacity:1" fill="#0da6bb" d="M1.5 324.5h64v20h-2c-15.838-.667-31.838-1.333-48-2a576.951 576.951 0 0 1 48-1v-6h-9l3-2h6v-7a289.16 289.16 0 0 1-24-1 3050.05 3050.05 0 0 1-26 1.5c.255 3.609-.579 7.109-2.5 10.5-2.453-3.208-2.62-6.375-.5-9.5-3.318-.754-6.318-1.92-9-3.5z"/><path style="opacity:1" fill="#3db8cd" d="m57.5 333.5-3 2c-12.671.167-25.338 0-38-.5-1.333-1.667-1.333-3.333 0-5 2.249-.863 4.082-.363 5.5 1.5l1-1c1.668 3.737 3 3.737 4 0 6.981-1.165 14.148-1.165 21.5 0l8-2c2.254 1.214 2.587 2.881 1 5z"/><path style="opacity:1" fill="#a2dbf8" d="M-.5 323.5h1v21h67v1h-68v-22z"/></svg>