<svg xmlns="http://www.w3.org/2000/svg" width="460" height="448" style="shape-rendering:geometricPrecision;text-rendering:geometricPrecision;image-rendering:optimizeQuality;fill-rule:evenodd;clip-rule:evenodd"><path style="opacity:.524" fill="#1d376c" d="M167.5 7.5c17.984.05 34.15 5.384 48.5 16a620.873 620.873 0 0 1-.5 61l-2-60c-29.089-20.105-58.089-19.939-87 .5a116.693 116.693 0 0 0-15 16.5c-44.108 8.44-66.442 35.108-67 80-23.028 13.9-35.028 34.4-36 61.5a151.661 151.661 0 0 0 3 21.5c-7.89 35.538 3.11 63.538 33 84-14.674 33.462-8.674 62.628 18 87.5 9.62 7.142 20.287 12.142 32 15 20.029 39.677 51.362 53.01 94 40 9.899-4.232 18.399-10.398 25.5-18.5.167-19.342.667-38.675 1.5-58a580.852 580.852 0 0 1 .5 59c-21.474 22.496-47.307 29.662-77.5 21.5-20.898-7.396-35.898-21.23-45-41.5-44.767-14.195-63.6-44.529-56.5-91a55.896 55.896 0 0 1 5.5-13.5c-30.233-20.677-41.233-49.01-33-85-8.034-35.916 3.133-64.082 33.5-84.5.961-44.798 23.461-71.464 67.5-80 14.25-19.288 33.25-29.955 57-32z"/><path style="opacity:.53" fill="#1d376c" d="M285.5 7.5c26.371.351 47.371 11.018 63 32 44.014 8.514 66.514 35.18 67.5 80 30.411 20.721 41.245 49.054 32.5 85 8.727 35.667-1.939 63.834-32 84.5 5.266 9.992 7.599 20.659 7 32-1.97 37.919-21.303 61.919-58 72-16.775 34.057-44.108 48.724-82 44-16.384-3.101-29.884-10.934-40.5-23.5a580.852 580.852 0 0 1 .5-59 1684.386 1684.386 0 0 1 1.5 58c18.264 19.865 40.764 27.365 67.5 22.5 24.222-6.1 41.222-20.6 51-43.5 41.94-11.879 61.107-39.545 57.5-83a100.19 100.19 0 0 0-6.5-20 192.085 192.085 0 0 0 21.5-20c13.941-19.645 17.441-40.978 10.5-64 9.004-35.332-1.663-62.998-32-83-.518-45.01-22.851-71.51-67-79.5-22.05-29.682-50.717-38.682-86-27a93.814 93.814 0 0 0-16 9c-.661 20.102-1.328 40.269-2 60.5a620.873 620.873 0 0 1-.5-61c12.599-9.725 26.766-15.059 42.5-16z"/><path style="opacity:.97" fill="#1d376c" d="M168.5 17.5c13.425.105 25.758 3.772 37 11a641.383 641.383 0 0 1 .5 62 2947.448 2947.448 0 0 1-42.5 29.5c-2.082-.607-4.249-1.44-6.5-2.5-8.439 2.549-15.772 6.883-22 13a161.582 161.582 0 0 1-6 13 430.36 430.36 0 0 1-20.5 14 581.022 581.022 0 0 0-1.5 34c-9.538-3.292-18.705-2.459-27.5 2.5-13.914 10.075-22.247 23.575-25 40.5.676 5.672 3.343 7.005 8 4 1.647-17.809 10.314-30.976 26-39.5 6.32-.873 12.486-.373 18.5 1.5.832 9.684.665 19.351-.5 29a54.72 54.72 0 0 0-10.5 11 193.981 193.981 0 0 1-18 28c-5.588 9.271-7.588 19.271-6 30 2.459 2.6 4.959 2.6 7.5 0a324.376 324.376 0 0 1 2.5-19l25-39 1 47a52.02 52.02 0 0 0 10 14c2.087 4.82 1.754 9.487-1 14l-6 8a26.724 26.724 0 0 1-1.5 7c-12.8 5.563-15.633 14.23-8.5 26 6 8.667 13.333 16 22 22 3.528-1.173 4.861-3.506 4-7-9.376-6.703-16.543-15.203-21.5-25.5a11.295 11.295 0 0 1 2-4c8.021-2.676 12.188-8.176 12.5-16.5 11.633-12.387 11.3-24.387-1-36-.667-.667-.667-1.333 0-2a3901.226 3901.226 0 0 1 87 60 960.77 960.77 0 0 1 0 62c-17.731 16.975-38.564 22.475-62.5 16.5-21.24-6.906-35.573-20.906-43-42-34.558-6.89-53.224-27.89-56-63 .42-13.015 4.086-25.015 11-36-32.614-17.817-44.28-44.817-35-81-9.36-35.433 1.973-61.933 34-79.5-3.822-36.868 11.845-61.034 47-72.5a201.56 201.56 0 0 1 14-2c12.077-20.035 29.744-30.868 53-32.5zm-15 36c3.599-.562 5.599.938 6 4.5a589.63 589.63 0 0 1-5.5 9.5c-.667 1-.667 2 0 3 9.056 3.053 14.556 9.22 16.5 18.5a35.932 35.932 0 0 1-3 9.5c-3.749 2.918-6.415 2.085-8-2.5 3.789-9.097.789-14.763-9-17-5.561-4.014-7.061-9.181-4.5-15.5a37.04 37.04 0 0 1 7.5-10zm-27 12c4.165-.006 5.999 1.994 5.5 6a171.303 171.303 0 0 0-12 11 10.256 10.256 0 0 0-1.5 4c1.824 4.978 4.657 9.311 8.5 13 1.209 6.386.209 12.386-3 18l-12 14a76.892 76.892 0 0 0-5 13c-2.244 2.494-4.577 2.494-7 0-.359-7.306 1.641-13.973 6-20l11-12c1.504-3.539 1.837-7.205 1-11-8.179-6.82-9.846-14.82-5-24 4.099-4.608 8.599-8.608 13.5-12zm-40 53c3.49-.349 5.823 1.151 7 4.5a48.792 48.792 0 0 1-8.5 8.5 11.357 11.357 0 0 1-1.5 3.5c3.042 10.146.709 18.813-7 26-9.86 5.197-15.694 13.363-17.5 24.5-2.667 4-5.333 4-8 0 1.29-14.968 8.623-25.968 22-33 2.664-5.794 3.164-11.794 1.5-18 2.136-6.793 6.136-12.127 12-16zm58 206c3.022-.072 5.188 1.262 6.5 4 6.644 8.594 9.644 18.26 9 29a222.331 222.331 0 0 1-6.5 12.5 58.578 58.578 0 0 1 5 14c-2.451 6.335-5.618 6.835-9.5 1.5a41.185 41.185 0 0 0-4.5-15.5 50.478 50.478 0 0 1 6.5-13.5c.809-4.863.142-9.53-2-14a267.365 267.365 0 0 1-7.5-13.5c.457-1.94 1.457-3.44 3-4.5zM286.5 17.5c25.028.507 44.028 11.34 57 32.5 34.426 3.094 54.926 21.594 61.5 55.5.266 6.742.432 13.409.5 20 31.012 17.718 42.012 44.052 33 79 8.854 35.951-2.813 62.951-35 81 10.749 18.308 12.916 37.641 6.5 58-9.837 23.33-27.337 36.664-52.5 40-9.659 28.522-29.659 43.522-60 45-17.434-.473-32.268-6.806-44.5-19a960.77 960.77 0 0 1 0-62 7732.16 7732.16 0 0 1 86.5-60c1.021.502 1.188 1.168.5 2-12.251 11.865-12.584 24.199-1 37 .324 7.009 3.824 11.842 10.5 14.5 1.857 1.182 2.857 2.849 3 5a24.979 24.979 0 0 1-4.5 9.5 98.058 98.058 0 0 1-15.5 15c-2.377 6.125-.377 8.291 6 6.5 10.881-8.371 18.881-18.871 24-31.5-1.869-7.369-6.369-12.369-13.5-15l-1-6-7-11c-1.913-4.029-1.913-8.029 0-12 4.54-4.205 7.874-9.205 10-15a498.455 498.455 0 0 1 .5-46c8.153 12.297 16.32 24.63 24.5 37a75.176 75.176 0 0 1 3 21c3.012 2.75 5.679 2.417 8-1 1.028-9.501-.639-18.501-5-27a251.018 251.018 0 0 1-20-31c-3-4.333-6.667-8-11-11a131.26 131.26 0 0 1 .5-28c7.778-2.798 15.445-2.631 23 .5 13.073 9.082 20.24 21.582 21.5 37.5 4.209 3.096 7.042 2.096 8.5-3-3.183-21.338-14.516-36.505-34-45.5-6.453-.85-12.786-.35-19 1.5a581.022 581.022 0 0 1-1.5-34l-21-15c-1.497-6.498-4.663-11.998-9.5-16.5a74.178 74.178 0 0 0-18-8.5 18.924 18.924 0 0 0-5 3 1486.396 1486.396 0 0 1-43-29 662.227 662.227 0 0 1-.5-63c10.307-6.603 21.474-10.27 33.5-11zm15 36c3.647.122 6.481 1.788 8.5 5 4.358 5.346 5.025 11.013 2 17a96.475 96.475 0 0 1-13 9c-1.826 3.89-1.66 7.723.5 11.5-1.856 4.67-4.69 5.503-8.5 2.5-4.227-9.258-2.394-17.092 5.5-23.5a103.138 103.138 0 0 0 8.5-4.5c.257-2.517-.41-4.85-2-7-4.748-3.029-5.248-6.362-1.5-10zm28 12c10.047 3.715 16.714 10.715 20 21-1.282 5.9-4.115 10.9-8.5 15-.837 3.795-.504 7.461 1 11a77.742 77.742 0 0 0 10 11c4.927 6.273 7.094 13.273 6.5 21-2.842 2.783-5.342 2.45-7.5-1-1.954-9.909-6.954-17.909-15-24-4.31-6.22-5.643-12.886-4-20a168.77 168.77 0 0 0 8.5-13c-2.973-6.14-7.473-10.806-13.5-14-1.084-3.159-.25-5.492 2.5-7zm39 53c12.364 3.383 17.03 11.383 14 24 .411 7.915 4.411 13.081 12 15.5 7.397 6.957 12.064 15.457 14 25.5-2.015 5.119-4.849 5.785-8.5 2-1.027-5.421-3.027-10.421-6-15a82.081 82.081 0 0 0-16-14c-3.931-7.585-5.264-15.585-4-24a201.387 201.387 0 0 0-8.5-9.5c.457-1.94 1.457-3.44 3-4.5zm-58 206c3.502-.333 5.836 1.167 7 4.5-5.124 7.079-8.457 14.913-10 23.5l.5 5a33.666 33.666 0 0 1 6.5 12.5 53.901 53.901 0 0 0-5.5 17.5c-4.492 2.675-7.325 1.342-8.5-4a104.953 104.953 0 0 1 4-13.5 179.422 179.422 0 0 0-5.5-11.5c-.666-12.837 3.168-24.17 11.5-34z"/><path style="opacity:1" fill="#fef46d" d="m281.5 124.5-52 36-53-36a4089.326 4089.326 0 0 1 52.5-36 878.893 878.893 0 0 1 52.5 36z"/><path style="opacity:1" fill="#b2599e" d="m176.5 124.5 53 36v3c.065.438-.101.772-.5 1a1439.083 1439.083 0 0 0-51.5-35.5c-.88-1.356-1.214-2.856-1-4.5z"/><path style="opacity:1" fill="#54c4c4" d="M281.5 124.5c1.282 1.208 1.282 2.542 0 4a1113.53 1113.53 0 0 1-52 35v-3l52-36z"/><path style="opacity:1" fill="#fef46d" d="M224.5 164.5a2328.896 2328.896 0 0 0-53 36l-52-37c17.267-11.978 34.6-23.978 52-36a752.718 752.718 0 0 1 53 37z"/><path style="opacity:1" fill="#fef46c" d="m339.5 164.5-53 36a719.372 719.372 0 0 0-53-36 2165.164 2165.164 0 0 1 53-37 736.784 736.784 0 0 1 53 37z"/><path style="opacity:1" fill="#5dbdc4" d="M224.5 164.5c.262 1.478-.071 2.811-1 4l-48 33a1202.356 1202.356 0 0 0-1.5 49c-.671.752-1.504 1.086-2.5 1v-51a2328.896 2328.896 0 0 1 53-36z"/><path style="opacity:1" fill="#ab4699" d="m119.5 163.5 52 37v51a2706.324 2706.324 0 0 1-52.5-36c-.829-17.505-.662-34.838.5-52z"/><path style="opacity:1" fill="#b1559e" d="M233.5 164.5a719.372 719.372 0 0 1 53 36v51c-.996.086-1.829-.248-2.5-1l-1-49a1219.23 1219.23 0 0 0-47.5-32.5c-1.537-1.11-2.203-2.61-2-4.5z"/><path style="opacity:.991" fill="#40c0c6" d="M339.5 164.5c.167 17.337 0 34.67-.5 52a1514.84 1514.84 0 0 1-52.5 35v-51l53-36z"/><path style="opacity:1" fill="#fef46c" d="m281.5 203.5-52 36a1084.408 1084.408 0 0 1-52-36 1406.883 1406.883 0 0 1 51.5-36 878.752 878.752 0 0 1 52.5 36z"/><path style="opacity:.994" fill="#3fc1c6" d="M281.5 203.5c1.162 17.162 1.329 34.495.5 52a1519.23 1519.23 0 0 1-52.5 36v-52l52-36z"/><path style="opacity:1" fill="#ab4799" d="M177.5 203.5a1084.408 1084.408 0 0 0 52 36v52a1547.602 1547.602 0 0 1-52.5-36c-.829-17.505-.662-34.838.5-52z"/><path style="opacity:1" fill="#fbef74" d="M174.5 257.5a5.727 5.727 0 0 0-3 1l-52-37c1.238-.912 2.572-1.079 4-.5l50 34c.752.671 1.086 1.504 1 2.5z"/><path style="opacity:1" fill="#f9f06d" d="m339.5 222.5-53 36c-1-.333-1.667-1-2-2a878.752 878.752 0 0 1 52.5-36c1.301.139 2.134.805 2.5 2z"/><path style="opacity:.988" fill="#ab4599" d="m119.5 221.5 52 37v52a80465.044 80465.044 0 0 0-52-36c-1.327-17.829-1.327-35.495 0-53z"/><path style="opacity:.991" fill="#40c0c6" d="M339.5 222.5c.167 17.337 0 34.67-.5 52a2706.324 2706.324 0 0 1-52.5 36v-52l53-36z"/><path style="opacity:1" fill="#5cb5c2" d="M174.5 257.5c.167 17.337 0 34.67-.5 52-.671.752-1.504 1.086-2.5 1v-52a5.727 5.727 0 0 1 3-1z"/><path style="opacity:1" fill="#ad4c9c" d="M284.5 256.5c.333 1 1 1.667 2 2v52a43.836 43.836 0 0 1-2-1c-1.327-17.829-1.327-35.495 0-53z"/><path style="opacity:1" fill="#faf06e" d="M281.5 261.5a1506.973 1506.973 0 0 1-44 31.5c-2.786 2.06-5.786 3.56-9 4.5a708.206 708.206 0 0 1-51-36c1.101-1.098 2.434-1.265 4-.5a765.923 765.923 0 0 0 48 32.5 1920.277 1920.277 0 0 0 48-32.5c1.566-.765 2.899-.598 4 .5z"/><path style="opacity:.99" fill="#3fc1c6" d="M281.5 261.5c1.327 17.505 1.327 35.171 0 53a28593.537 28593.537 0 0 1-52 35 690.266 690.266 0 0 0-1-52c3.214-.94 6.214-2.44 9-4.5a1506.973 1506.973 0 0 0 44-31.5z"/><path style="opacity:.989" fill="#aa4799" d="M177.5 261.5a708.206 708.206 0 0 0 51 36 690.266 690.266 0 0 1 1 52 1113.53 1113.53 0 0 1-52-35c-1.327-17.829-1.327-35.495 0-53z"/></svg>