<svg xmlns="http://www.w3.org/2000/svg" width="288" height="272" style="shape-rendering:geometricPrecision;text-rendering:geometricPrecision;image-rendering:optimizeQuality;fill-rule:evenodd;clip-rule:evenodd"><path style="opacity:1" d="M-.5-.5h288v272H-.5V-.5z"/><path style="opacity:1" fill="#5f5f62" d="M178.5 41.5h3v3h-3v-3z"/><path style="opacity:1" fill="#626465" d="M130.5 48.5c1.837.14 2.17.806 1 2-.798-.457-1.131-1.124-1-2z"/><path style="opacity:1" fill="#9b9c9c" d="M172.5 49.5c1.837.14 2.17.806 1 2-.798-.457-1.131-1.124-1-2z"/><path style="opacity:1" fill="#b9b9bd" d="M156.5 50.5c1.837.14 2.17.806 1 2-.798-.457-1.131-1.124-1-2z"/><path style="opacity:1" fill="#6d7070" d="M179.5 52.5c1.837.14 2.17.806 1 2-.798-.457-1.131-1.124-1-2z"/><path style="opacity:1" fill="#1b1f27" d="M155.5 55.5c-1.886 2.6-4.552 3.6-8 3v5h-4c.262-1.478-.071-2.811-1-4l-11-4c-1.09.891-1.09 1.891 0 3-.438 1.006-1.104 1.006-2 0a14.72 14.72 0 0 0-1.5 5c-.216-1.884-.883-3.55-2-5l-5 11c.457-4.77 1.957-9.27 4.5-13.5a148.33 148.33 0 0 0-22 2.5c7.797-2.727 15.963-4.393 24.5-5a60.394 60.394 0 0 1 12.5 3.5c3.986.499 7.986.666 12 .5v-4c1.679-.215 2.679.452 3 2z"/><path style="opacity:1" fill="#a5a5af" d="M187.5 56.5h-3c1-2.667 2-2.667 3 0z"/><path style="opacity:1" fill="#8b8b8d" d="M196.5 54.5c1.837.14 2.17.806 1 2-.798-.457-1.131-1.124-1-2z"/><path style="opacity:1" fill="#2a3652" d="M166.5 54.5c2.955.659 5.955.992 9 1 5.298 5.819 11.965 9.319 20 10.5l-1 1c.916.278 1.582.778 2 1.5-3.741-1.875-7.741-3.041-12-3.5a19.897 19.897 0 0 0-4-3.5c-1.104 1.131-.771 1.965 1 2.5-2.004 1.59-4.004 1.424-6-.5v-5a231.548 231.548 0 0 1-15 2l-1-1a81.732 81.732 0 0 1 7-2c1.062-.925 1.062-1.925 0-3z"/><path style="opacity:1" fill="#9da7b7" d="M144.5 60.5c1.837.14 2.17.806 1 2-.798-.457-1.131-1.124-1-2z"/><path style="opacity:1" fill="#040509" d="M175.5 63.5c.027 2.89 1.193 3.89 3.5 3l2 2c.062 7.431 3.562 10.098 10.5 8v3c-3.649.14-6.816 1.473-9.5 4a117.751 117.751 0 0 0-4-15 242.204 242.204 0 0 0 2.5 17l-1 4c-3.14.59-6.14 1.256-9 2h-2c-2.588-2.125-5.588-3.458-9-4a4.934 4.934 0 0 0-.5-3c-.816 1.323-1.983 1.99-3.5 2 .233-1.562.9-2.895 2-4a30.968 30.968 0 0 0-2-2 36.872 36.872 0 0 0-12-1c-.268-2.62.065-5.12 1-7.5a161.61 161.61 0 0 0 15-8c5.475-.32 10.809-.486 16-.5z"/><path style="opacity:1" fill="#04050b" d="M143.5 63.5c-2.294 1.365-3.961 3.365-5 6-1.464 2.13-3.464 3.463-6 4-.992-.172-1.658.162-2 1a39.743 39.743 0 0 0-5 10.5c-3.267 1.82-6.6 1.986-10 .5.514-2.012.68-4.012.5-6a39.43 39.43 0 0 0-3.5 8 12.412 12.412 0 0 1-4 2.5c-.752.67-1.086 1.504-1 2.5-3.463.6-6.796 1.6-10 3h-3a11.989 11.989 0 0 1 1-6c-1.13-1.122-1.797-2.456-2-4 .172-.992-.162-1.658-1-2-1.168-5.328-2-10.66-2.5-16a123.39 123.39 0 0 0 9 16l.5-1.5a391.68 391.68 0 0 0-9-16.5c5.482.317 11.148 2.15 17 5.5 2.321.837 4.655 1.17 7 1a118.084 118.084 0 0 0-19-7.5v-4c2.995.206 5.662-.46 8-2a148.33 148.33 0 0 1 22-2.5c-2.543 4.23-4.043 8.73-4.5 13.5l5-11c1.117 1.45 1.784 3.116 2 5a14.72 14.72 0 0 1 1.5-5c.896 1.006 1.562 1.006 2 0-1.09-1.109-1.09-2.109 0-3l11 4c.929 1.189 1.262 2.522 1 4z"/><path style="opacity:1" fill="#1c2333" d="M175.5 55.5c2.107.8 4.274 1.467 6.5 2 1.07-.028 1.903-.361 2.5-1h3c-1.062 1.075-1.062 2.075 0 3a203.22 203.22 0 0 0 30 13.5l14 1a72.442 72.442 0 0 1-12 .5c-.285 1.788.048 3.455 1 5 2.538.757 3.205 2.09 2 4-.667-2.667-1.333-2.667-2 0v3c-.958-.453-1.792-1.12-2.5-2a20.428 20.428 0 0 0-1.5-5.5 12.8 12.8 0 0 1-6-3 24.939 24.939 0 0 0-7-.5c-4.776-.289-6.942 2.044-6.5 7-1.745-2.342-1.579-4.675.5-7a46.649 46.649 0 0 1 8-1.5c-3.365-1.344-6.365-3.177-9-5.5-.418-.722-1.084-1.222-2-1.5l1-1c-8.035-1.181-14.702-4.681-20-10.5z"/><path style="opacity:1" fill="#131720" d="M103.5 58.5c-2.338 1.54-5.005 2.206-8 2v4a118.084 118.084 0 0 1 19 7.5c-2.345.17-4.679-.163-7-1-5.852-3.35-11.518-5.183-17-5.5a391.68 391.68 0 0 1 9 16.5l-.5 1.5a123.39 123.39 0 0 1-9-16c.5 5.34 1.332 10.672 2.5 16-1.257 1.123-.924 1.79 1 2 .203 1.544.87 2.878 2 4a11.989 11.989 0 0 0-1 6h3a58.35 58.35 0 0 1-9 5c-3.173.868-6.173.868-9 0a49.762 49.762 0 0 0 13-5c-1.83-2.057-3.497-4.557-5-7.5 1.036-1.775 1.036-3.609 0-5.5.624-.417.957-1.084 1-2-.673-2.351-1.34-4.684-2-7 0-1.333-.667-2-2-2 1.484-3.805 2.484-7.805 3-12 5.222.074 10.556-.259 16-1z"/><path style="opacity:1" fill="#111626" d="M166.5 54.5c1.062 1.075 1.062 2.075 0 3a81.732 81.732 0 0 0-7 2l1 1a231.548 231.548 0 0 0 15-2v5c-5.191.014-10.525.18-16 .5a161.61 161.61 0 0 1-15 8c-.935 2.38-1.268 4.88-1 7.5 4.055-.324 8.055.01 12 1a30.968 30.968 0 0 1 2 2 15.42 15.42 0 0 1-7-1c-3.947 1.685-8.113 2.685-12.5 3-7.179-4.04-7.012-8.04.5-12 2.338 1.51 3.004 1.177 2-1a72.532 72.532 0 0 0 10-7.5 205.166 205.166 0 0 1-12 5.5c1.039-2.635 2.706-4.635 5-6h4v-5c3.448.6 6.114-.4 8-3a185.59 185.59 0 0 0 11-1z"/><path style="opacity:1" fill="#979ea4" d="M84.5 71.5c1.333 0 2 .667 2 2h-2v-2z"/><path style="opacity:1" fill="#0f121f" d="M196.5 68.5c2.635 2.323 5.635 4.156 9 5.5-2.724.27-5.391.77-8 1.5-2.079 2.325-2.245 4.658-.5 7-.442-4.956 1.724-7.289 6.5-7-.709.904-1.709 1.237-3 1 .897 3.247 2.23 6.247 4 9-1.333 0-2 .667-2 2a14.694 14.694 0 0 1-3.5-3c-.605 1.981-1.605 2.315-3 1a18.452 18.452 0 0 0-.5 6c-1.088-3.628-2.922-6.961-5.5-10-2.353 1.318-2.853 2.985-1.5 5-1.765.961-3.765 1.295-6 1a41.541 41.541 0 0 1 1 8c1.599-.268 2.932.066 4 1a12.935 12.935 0 0 1-5-.5c-3.256-3.46-7.256-4.96-12-4.5 2.86-.744 5.86-1.41 9-2l1-4a242.204 242.204 0 0 1-2.5-17 117.751 117.751 0 0 1 4 15c2.684-2.527 5.851-3.86 9.5-4v-3c-6.938 2.098-10.438-.569-10.5-8l-2-2c-2.307.89-3.473-.11-3.5-3 1.996 1.924 3.996 2.09 6 .5-1.771-.535-2.104-1.369-1-2.5a19.897 19.897 0 0 1 4 3.5c4.259.459 8.259 1.625 12 3.5z"/><path style="opacity:1" fill="#9196a6" d="M188.5 71.5c1.965.448 2.298 1.448 1 3-.886-.825-1.219-1.825-1-3z"/><path style="opacity:1" fill="#858998" d="M132.5 73.5c-.211 1.924-.877 2.257-2 1 .342-.838 1.008-1.172 2-1z"/><path style="opacity:1" fill="#4c4f5f" d="M139.5 75.5c3.81 1.254 3.81 2.254 0 3v-3z"/><path style="opacity:1" fill="#1d232f" d="M84.5 73.5h2c.66 2.316 1.327 4.649 2 7-.043.916-.376 1.583-1 2v-3h-3c-1.506 10.617-2.006 10.617-1.5 0a67.713 67.713 0 0 1-10 12 59.427 59.427 0 0 0-3.5 10 10.984 10.984 0 0 0-3.5-1c-2.936.893-5.77 1.893-8.5 3 1.048-2.034 2.715-3.367 5-4 .929-1.189 1.262-2.522 1-4 2.785.584 4.452-.416 5-3 1.679.215 2.679-.452 3-2 5.476-4.808 9.81-10.474 13-17z"/><path style="opacity:1" fill="#04060e" d="M87.5 82.5c1.036 1.891 1.036 3.725 0 5.5 1.503 2.943 3.17 5.443 5 7.5a49.762 49.762 0 0 1-13 5 6.845 6.845 0 0 1-4-1c-.797.457-1.13 1.124-1 2 .667 4-1 5.667-5 5v-5a59.427 59.427 0 0 1 3.5-10 67.713 67.713 0 0 0 10-12c-.506 10.617-.006 10.617 1.5 0h3v3z"/><path style="opacity:1" fill="#aaafbc" d="M222.5 83.5h-2c.667-2.667 1.333-2.667 2 0z"/><path style="opacity:1" fill="#939497" d="M227.5 81.5c1.837.14 2.17.806 1 2-.798-.457-1.131-1.124-1-2z"/><path style="opacity:1" fill="#868b9d" d="M92.5 83.5c.838.342 1.172 1.008 1 2-1.924-.21-2.257-.877-1-2z"/><path style="opacity:1" fill="#151d2e" d="M195.5 91.5a82.863 82.863 0 0 1 6.5 15c.741 1.141 1.575 1.141 2.5 0 1.79 1.816 3.79 3.149 6 4-1.235.221-2.235.888-3 2-2.771-3.048-6.104-5.048-10-6 .271-1.88-.396-3.213-2-4a4.934 4.934 0 0 0-.5-3c-1.652-.9-3.152-1.9-4.5-3 1.134-2.466 1.301-5.133.5-8-.708-.88-1.542-1.547-2.5-2-1.353-2.015-.853-3.682 1.5-5 2.578 3.039 4.412 6.372 5.5 10z"/><path style="opacity:1" fill="#172034" d="M157.5 82.5c-1.1 1.105-1.767 2.438-2 4-14.921.7-29.587 2.367-44 5-1.459-.067-2.792.266-4 1-.086-.996.248-1.83 1-2.5a12.412 12.412 0 0 0 4-2.5 39.43 39.43 0 0 1 3.5-8c.18 1.988.014 3.988-.5 6 3.4 1.486 6.733 1.32 10-.5a39.743 39.743 0 0 1 5-10.5c1.123 1.257 1.789.924 2-1 2.536-.537 4.536-1.87 6-4 4.193-1.766 8.193-3.6 12-5.5a72.532 72.532 0 0 1-10 7.5c1.004 2.177.338 2.51-2 1-7.512 3.96-7.679 7.96-.5 12 4.387-.315 8.553-1.315 12.5-3a15.42 15.42 0 0 0 7 1z"/><path style="opacity:1" fill="#8c929e" d="M204.5 85.5v2h-2c0-1.333.667-2 2-2z"/><path style="opacity:1" fill="#040308" d="M188.5 86.5c.958.453 1.792 1.12 2.5 2 .801 2.867.634 5.534-.5 8h-3c-1.068-.934-2.401-1.268-4-1a41.541 41.541 0 0 0-1-8c2.235.295 4.235-.039 6-1z"/><path style="opacity:1" fill="#5f748e" d="M168.5 91.5c0 .667-.333 1-1 1-3.356-1.88-7.023-2.38-11-1.5-.556.383-.889.883-1 1.5-3.082-1.681-6.415-2.348-10-2 1.359-1.51.859-2.176-1.5-2-1.812-.007-3.312.66-4.5 2-3.273-1.085-6.606-1.252-10-.5-1.563 1.947-3.563 3.114-6 3.5-.086-.996.248-1.83 1-2.5a37.978 37.978 0 0 0-10 1c-.556.383-.889.883-1 1.5l-2-2c14.413-2.633 29.079-4.3 44-5 1.517-.01 2.684-.677 3.5-2 .483.948.649 1.948.5 3 3.412.542 6.412 1.875 9 4z"/><path style="opacity:1" fill="#a1a7b3" d="M71.5 90.5c-.321 1.548-1.321 2.215-3 2v-3c1.291-.237 2.291.096 3 1z"/><path style="opacity:1" fill="#253751" d="M145.5 90.5a1283.666 1283.666 0 0 1-20 5 12.935 12.935 0 0 1-5-.5c.744-1.039 1.744-1.539 3-1.5 2.437-.386 4.437-1.553 6-3.5 3.394-.752 6.727-.585 10 .5 1.188-1.34 2.688-2.007 4.5-2 2.359-.176 2.859.49 1.5 2z"/><path style="opacity:1" fill="#6f8cae" d="M145.5 90.5c3.585-.348 6.918.319 10 2-1.419.951-3.085 1.284-5 1-2.573-1.055-5.239-1.222-8-.5a525.27 525.27 0 0 1-18 4.5l1-2c6.559-1.583 13.226-3.25 20-5z"/><path style="opacity:1" fill="#0e1522" d="M167.5 92.5a6.544 6.544 0 0 0-3 3c-3.503.371-6.503-.629-9-3 .111-.617.444-1.117 1-1.5 3.977-.88 7.644-.38 11 1.5z"/><path style="opacity:1" fill="#1f2637" d="M204.5 87.5c3.399 1.888 6.399 4.388 9 7.5 2.599.769 5.099.602 7.5-.5 1.802 1.29 2.969 2.956 3.5 5-.982-.64-1.982-1.308-3-2-1.5 2.286-1.833 4.619-1 7a25.866 25.866 0 0 0-3 5l-1-1.5a55.7 55.7 0 0 0 3-8.5 28.736 28.736 0 0 0-5-1 12.799 12.799 0 0 0-6 3l-1.5-9c-1.372-1.41-2.205-3.077-2.5-5z"/><path style="opacity:1" fill="#2e425d" d="M150.5 93.5c1.792.81 3.792 1.31 6 1.5 1.066 1.159.733 1.992-1 2.5-.111-.617-.444-1.117-1-1.5a89.306 89.306 0 0 1-12-1.5c-1.526.494-2.859 1.161-4 2-1.847-.266-2.514.067-2 1a11.99 11.99 0 0 0 6 1c-.289 3.852-1.623 7.186-4 10h-7a49.83 49.83 0 0 1 7-2.5c2.579-1.612 2.579-3.112 0-4.5a6.802 6.802 0 0 0-1.5 3c-1.011-.837-2.178-1.17-3.5-1 .73-1.212 1.73-2.212 3-3-3.149-2.606-6.316-2.606-9.5 0-1.011-.556-1.844-1.222-2.5-2v-1a525.27 525.27 0 0 0 18-4.5c2.761-.722 5.427-.555 8 .5z"/><path style="opacity:1" fill="#5f7ca1" d="m111.5 91.5 2 2c.438-.065.772.101 1 .5-1.237.232-2.237.732-3 1.5-1.042 1.291-2.208 1.291-3.5 0a60.815 60.815 0 0 1-5.5 3 4.451 4.451 0 0 0 2 1.5c-2.81.782-5.477 1.616-8 2.5-1.653.16-2.986.826-4 2-2.342-.275-2.342-1.108 0-2.5-2.006.15-4.006.65-6 1.5l2-3a58.35 58.35 0 0 0 9-5c3.204-1.4 6.537-2.4 10-3 1.208-.734 2.541-1.067 4-1z"/><path style="opacity:1" fill="#132033" d="M155.5 97.5a18.489 18.489 0 0 0-3.5 2c-4.225-2.079-8.725-3.079-13.5-3 1.141-.839 2.474-1.506 4-2a89.306 89.306 0 0 0 12 1.5c.556.383.889.883 1 1.5z"/><path style="opacity:1" fill="#070910" d="M203.5 75.5c2.357-.163 4.69.003 7 .5a12.8 12.8 0 0 0 6 3 20.428 20.428 0 0 1 1.5 5.5c.708.88 1.542 1.547 2.5 2-.239 1.967.094 3.8 1 5.5 2.99.847 4.324-.32 4-3.5h2c3.489-.44 6.822-2.107 10-5 1.841 2.012 2.841 4.345 3 7 1.574.437 2.741 1.437 3.5 3 .236 2.311 1.069 4.311 2.5 6-1.847 3.725-3.181 7.725-4 12-4.887-.702-6.721-3.369-5.5-8l-3 3c-2.781-2.962-5.948-5.296-9.5-7-.531-2.044-1.698-3.71-3.5-5-2.401 1.102-4.901 1.269-7.5.5-2.601-3.112-5.601-5.612-9-7.5v-2c-1.77-2.753-3.103-5.753-4-9 1.291.237 2.291-.096 3-1z"/><path style="opacity:1" fill="#8f9096" d="M240.5 90.5c-.139 1.837-.806 2.17-2 1 .457-.797 1.124-1.13 2-1z"/><path style="opacity:1" fill="#7f8088" d="M227.5 88.5h-2c.667-2.667 1.333-2.667 2 0z"/><path style="opacity:1" fill="#7b9dc1" d="M168.5 91.5h2c4.744-.46 8.744 1.04 12 4.5 1.634.493 3.301.66 5 .5h3c1.348 1.1 2.848 2.1 4.5 3 .483.948.649 1.948.5 3a43.836 43.836 0 0 1-2-1 44.887 44.887 0 0 1-13 3h-6c-1.879.107-2.212-.393-1-1.5a8.43 8.43 0 0 1 4-.5 13.116 13.116 0 0 0 7-1c-.505-1.419-1.505-2.085-3-2-7.998-3.148-15.664-2.482-23 2l-1-1c1.99-.998 3.99-1.998 6-3 .798-.457 1.131-1.124 1-2a6.544 6.544 0 0 1 3-3c.667 0 1-.333 1-1z"/><path style="opacity:1" fill="#1b2e43" d="M169.5 92.5c2.982-.396 5.649.271 8 2-3.435 2.158-7.101 2.492-11 1 1.27-.788 2.27-1.788 3-3z"/><path style="opacity:1" fill="#101f34" d="M124.5 98.5c.656.778 1.489 1.444 2.5 2 3.184-2.606 6.351-2.606 9.5 0-1.27.788-2.27 1.788-3 3a50.135 50.135 0 0 0-13-2.5c.971-1.481 2.304-2.315 4-2.5z"/><path style="opacity:1" fill="#1e324f" d="M181.5 99.5c1.495-.085 2.495.581 3 2a13.116 13.116 0 0 1-7 1c-2.01-1.193-4.176-1.193-6.5 0-1.28-.113-2.113-.78-2.5-2 2.827-2.141 5.493-2.141 8 0a17.903 17.903 0 0 0 5-1z"/><path style="opacity:1" fill="#1d293e" d="M111.5 95.5c1.699-.16 3.366.007 5 .5-1.771.535-2.104 1.369-1 2.5 1.932-1.02 3.932-1.187 6-.5-.916.278-1.582.778-2 1.5a54.283 54.283 0 0 0-7 2l-6 2c-2.975-.474-6.308-.807-10-1 2.523-.884 5.19-1.718 8-2.5a4.451 4.451 0 0 1-2-1.5 60.815 60.815 0 0 0 5.5-3c1.292 1.291 2.458 1.291 3.5 0z"/><path style="opacity:1" fill="#293450" d="M79.5 100.5c2.827.868 5.827.868 9 0l-2 3a46.537 46.537 0 0 0-8 5c-1.291-1.042-1.291-2.208 0-3.5a20.682 20.682 0 0 1-4-3.5c-.13-.876.203-1.543 1-2a6.845 6.845 0 0 0 4 1z"/><path style="opacity:1" fill="#111823" d="M142.5 98.5a18.437 18.437 0 0 1 6 .5c1.141.741 1.141 1.575 0 2.5.774 1.211 1.607 1.211 2.5 0 .667 2 .667 4 0 6-1.813-1.109-2.646-.442-2.5 2l-10-1c2.377-2.814 3.711-6.148 4-10z"/><path style="opacity:1" fill="#a6b2ca" d="M79.5 102.5c1.837.139 2.17.806 1 2-.797-.457-1.13-1.124-1-2z"/><path style="opacity:1" fill="#0f172a" d="M96.5 102.5c3.692.193 7.025.526 10 1a3849.664 3849.664 0 0 0-16 7l-2 1c-2.198.38-3.865-.287-5-2h1c2.433-1.308 5.1-2.975 8-5 1.014-1.174 2.347-1.84 4-2z"/><path style="opacity:1" fill="#324863" d="M92.5 104.5c-2.9 2.025-5.567 3.692-8 5v-3c4.922-.297 5.588-1.297 2-3 1.994-.85 3.994-1.35 6-1.5-2.342 1.392-2.342 2.225 0 2.5z"/><path style="opacity:1" fill="#7c98c1" d="M119.5 99.5c-1.3 1.327-2.633 2.66-4 4 1.617.169 3.284.503 5 1a247.331 247.331 0 0 0-12 4c-.342-.838-1.008-1.172-2-1 1.378-1.558 3.711-2.558 7-3a5.576 5.576 0 0 1-1-3 54.283 54.283 0 0 1 7-2z"/><path style="opacity:1" fill="#3b516f" d="M195.5 102.5c1.604.787 2.271 2.12 2 4-1.599-.268-2.932.066-4 1-1.968 1.319-3.968 1.319-6 0-1.45 1.35-2.117 3.016-2 5 2.235-.295 4.235.039 6 1h-7c-.545 3.672-.878 3.338-1-1h-3c-3.672-.545-3.338-.878 1-1 1.621-.287 2.621-1.287 3-3-1.367-1.34-2.7-2.673-4-4a44.887 44.887 0 0 0 13-3c.683.363 1.35.696 2 1z"/><path style="opacity:1" fill="#7994b5" d="M197.5 106.5c3.896.952 7.229 2.952 10 6 .765-1.112 1.765-1.779 3-2a5.576 5.576 0 0 1-1 3 514.367 514.367 0 0 1 3 4h-5c.216-2.181-.617-3.847-2.5-5-.626 2.491-1.459 2.491-2.5 0-.798.457-1.131 1.124-1 2l-2-1c-.111-.617-.444-1.117-1-1.5a7.293 7.293 0 0 0 3-2 20.532 20.532 0 0 0-4.5-2.5c-1.292 1.291-2.458 1.291-3.5 0 1.068-.934 2.401-1.268 4-1z"/><path style="opacity:1" fill="#34455c" d="M112.5 101.5a5.576 5.576 0 0 0 1 3c-3.289.442-5.622 1.442-7 3-1.714 1.238-3.714 1.905-6 2a16.993 16.993 0 0 0-6.5 2 14.102 14.102 0 0 0-3.5-1c5.261-2.316 10.595-4.65 16-7l6-2z"/><path style="opacity:1" fill="#6b8eb5" d="M157.5 103.5a28.264 28.264 0 0 1-4 8c-.876.131-1.543-.202-2-1 .226-3.6 1.892-6.266 5-8 .607.124.94.457 1 1z"/><path style="opacity:1" fill="#0a111c" d="M106.5 107.5c.992-.172 1.658.162 2 1-1.474.936-2.474 2.27-3 4-1.25.077-2.083.744-2.5 2-1.878-.553-3.378-1.553-4.5-3l2-2c2.286-.095 4.286-.762 6-2z"/><path style="opacity:1" fill="#182740" d="M131.5 108.5c-2.344 1.568-4.344 1.235-6-1-.886.825-1.219 1.825-1 3a4.934 4.934 0 0 0-3 .5l6 1-7 3.5c.17-1.322-.163-2.489-1-3.5-3.374-1.227-6.708-1.394-10-.5a31.116 31.116 0 0 1-1 11 43.836 43.836 0 0 0-2-1c-.972-5.948 1.028-10.448 6-13.5a552.274 552.274 0 0 0 21-4.5c1.322-.17 2.489.163 3.5 1a6.802 6.802 0 0 1 1.5-3c2.579 1.388 2.579 2.888 0 4.5a49.83 49.83 0 0 0-7 2.5z"/><path style="opacity:1" fill="#202d41" d="M174.5 104.5h6c1.3 1.327 2.633 2.66 4 4-.379 1.713-1.379 2.713-3 3 1.126-1.358 1.126-2.692 0-4a19.372 19.372 0 0 0-8-1 21.631 21.631 0 0 1-4 7.5c3.217 1.715 5.55 4.215 7 7.5-.899 1.494-.565 2.994 1 4.5-1.288.239-2.288-.261-3-1.5a867.75 867.75 0 0 0-7-5.5 12.992 12.992 0 0 0 1-5.5c-3.281-.08-6.281.587-9 2-2.512-1.428-5.178-1.928-8-1.5a18.924 18.924 0 0 1-5 3c.881.708 1.547 1.542 2 2.5h-8v-4a18.453 18.453 0 0 0 6-.5c1.473-.71 2.14-1.876 2-3.5 2.444 1.375 4.111 1.375 5 0a28.264 28.264 0 0 0 4-8 43.521 43.521 0 0 1 10-3c.14 1.624-.527 2.79-2 3.5 3.123 1.351 6.123 1.518 9 .5z"/><path style="opacity:1" fill="#020306" d="M66.5 120.5c.172.992-.162 1.658-1 2a18.452 18.452 0 0 1-6-.5 19.17 19.17 0 0 0-5-2.5v-1a344.95 344.95 0 0 0 11.5-17c1.44 1.43 1.774 3.097 1 5-1.845.55-3.345 1.55-4.5 3 .21.586.543 1.086 1 1.5 1.973.495 3.973.662 6 .5a49.845 49.845 0 0 1-3 9z"/><path style="opacity:1" fill="#0d1019" d="M69.5 101.5v5c4 .667 5.667-1 5-5a20.682 20.682 0 0 0 4 3.5c-1.291 1.292-1.291 2.458 0 3.5a42.712 42.712 0 0 1-6 4.5 68.826 68.826 0 0 1-6 7.5 49.845 49.845 0 0 0 3-9 18.452 18.452 0 0 1-6-.5 3.646 3.646 0 0 1-1-1.5c1.155-1.45 2.655-2.45 4.5-3 .774-1.903.44-3.57-1-5a344.95 344.95 0 0 1-11.5 17c-1.291-.237-2.291.096-3 1-1.208.734-2.541 1.067-4 1a18.437 18.437 0 0 0 .5 6 3.944 3.944 0 0 1 2-1 14.72 14.72 0 0 0 6.5 2.5c4.28 4.94 2.947 7.107-4 6.5-3.812.219-7.146-.781-10-3-1.333 0-2 .667-2 2 1.052 1.756 2.719 2.423 5 2-.215 1.679.452 2.679 2 3 .222 2.576 1.555 3.41 4 2.5-.638-1.707-.638-3.54 0-5.5a18.452 18.452 0 0 1 6 .5c1.473.71 2.14 1.876 2 3.5-2.536.537-4.536 1.87-6 4-2.484-1.281-4.818-.947-7 1 .363.683.696 1.35 1 2-.311 3.67-1.978 6.67-5 9a184.223 184.223 0 0 0-3-2c-2.194-1.721-3.361-4.055-3.5-7-1.356-.88-2.856-1.214-4.5-1a16.868 16.868 0 0 1 1-8c2.635-.394 3.301-1.561 2-3.5 2.487-2.268 1.82-3.601-2-4 .23-6.156 1.396-12.323 3.5-18.5.772-1.349 1.94-2.182 3.5-2.5-1.77-.535-2.104-1.369-1-2.5 1.823 1.247 3.823 1.914 6 2 1.172-1.205 2.505-1.205 4 0a60.03 60.03 0 0 1 9-5 100.301 100.301 0 0 1 8.5-3c1.256.148 2.423.482 3.5 1z"/><path style="opacity:1" fill="#7c8392" d="M44.5 108.5c1.837.139 2.17.806 1 2-.797-.457-1.13-1.124-1-2z"/><path style="opacity:1" fill="#485b75" d="M155.5 92.5c2.497 2.371 5.497 3.371 9 3 .131.876-.202 1.543-1 2-2.01 1.002-4.01 2.002-6 3l1 1c7.336-4.482 15.002-5.148 23-2a17.903 17.903 0 0 1-5 1c-2.507-2.141-5.173-2.141-8 0 .387 1.22 1.22 1.887 2.5 2 2.324-1.193 4.49-1.193 6.5 0a8.43 8.43 0 0 0-4 .5c-1.212 1.107-.879 1.607 1 1.5-2.877 1.018-5.877.851-9-.5 1.473-.71 2.14-1.876 2-3.5a43.521 43.521 0 0 0-10 3c-.06-.543-.393-.876-1-1-3.108 1.734-4.774 4.4-5 8 .457.798 1.124 1.131 2 1-.889 1.375-2.556 1.375-5 0-3.562-.938-7.062-1.271-10.5-1-3.96.409-7.46 1.742-10.5 4-4.2 1.535-6.534 4.535-7 9h3c-1.068.934-2.401 1.268-4 1-.836-3.039-.502-6.039 1-9l7-3.5-6-1a4.934 4.934 0 0 1 3-.5c-.219-1.175.114-2.175 1-3 1.656 2.235 3.656 2.568 6 1h7l10 1c-.146-2.442.687-3.109 2.5-2 .667-2 .667-4 0-6-.893 1.211-1.726 1.211-2.5 0 1.141-.925 1.141-1.759 0-2.5a18.437 18.437 0 0 0-6-.5 11.99 11.99 0 0 1-6-1c-.514-.933.153-1.266 2-1 4.775-.079 9.275.921 13.5 3a18.489 18.489 0 0 1 3.5-2c1.733-.508 2.066-1.341 1-2.5-2.208-.19-4.208-.69-6-1.5 1.915.284 3.581-.049 5-1z"/><path style="opacity:1" fill="#0b100e" d="M157.5 107.5c2.357-.163 4.69.003 7 .5.837 1.011 1.17 2.178 1 3.5h-9c-.067-1.459.266-2.792 1-4z"/><path style="opacity:1" fill="#59769a" d="M193.5 107.5c1.042 1.291 2.208 1.291 3.5 0a20.532 20.532 0 0 1 4.5 2.5 7.293 7.293 0 0 1-3 2c.556.383.889.883 1 1.5a31.505 31.505 0 0 0-4.5-2c-1.434.362-2.601 1.028-3.5 2-1.765-.961-3.765-1.295-6-1-.117-1.984.55-3.65 2-5 2.032 1.319 4.032 1.319 6 0z"/><path style="opacity:1" fill="#070810" d="M202.5 87.5h2c.295 1.923 1.128 3.59 2.5 5l1.5 9a12.799 12.799 0 0 1 6-3c1.617.17 3.284.503 5 1a55.7 55.7 0 0 1-3 8.5l1 1.5a25.866 25.866 0 0 1 3-5c-.833-2.381-.5-4.714 1-7 1.018.692 2.018 1.36 3 2a69.825 69.825 0 0 0 7.5 8 8.43 8.43 0 0 1 .5 4c2.627-.207 4.293.96 5 3.5a46.022 46.022 0 0 1-6 5.5 5.576 5.576 0 0 0-3 1 4.457 4.457 0 0 1-1.5-2c-1.639 4.377-4.806 6.044-9.5 5-.851-2.382-2.184-4.382-4-6 0-.667-.333-1-1-1a514.367 514.367 0 0 0-3-4 5.576 5.576 0 0 0 1-3c-2.21-.851-4.21-2.184-6-4-.925 1.141-1.759 1.141-2.5 0a82.863 82.863 0 0 0-6.5-15 18.452 18.452 0 0 1 .5-6c1.395 1.315 2.395.981 3-1a14.694 14.694 0 0 0 3.5 3z"/><path style="opacity:1" fill="#090e17" d="M148.5 111.5c.14 1.624-.527 2.79-2 3.5a18.453 18.453 0 0 1-6 .5v4c-2.235-.295-4.235.039-6 1h-1l-7 2a41.541 41.541 0 0 0 1-8c3.04-2.258 6.54-3.591 10.5-4 3.438-.271 6.938.062 10.5 1z"/><path style="opacity:1" fill="#5a7494" d="m100.5 109.5-2 2a531.375 531.375 0 0 0-11 5 10.51 10.51 0 0 1-2.5 3c-.318-1.561-1.15-2.728-2.5-3.5 2.461-.971 4.461-2.471 6-4.5l2-1c1.195.178 2.362.511 3.5 1a16.993 16.993 0 0 1 6.5-2z"/><path style="opacity:1" fill="#070e1c" d="M159.5 115.5v1a308.607 308.607 0 0 1-4 3h-7c-.453-.958-1.119-1.792-2-2.5a18.924 18.924 0 0 0 5-3c2.822-.428 5.488.072 8 1.5z"/><path style="opacity:1" fill="#1c2b44" d="M163.5 121.5c-2.83-.463-5.497-1.129-8-2a308.607 308.607 0 0 0 4-3 18.163 18.163 0 0 1 8-.5 54.7 54.7 0 0 0-4 5.5z"/><path style="opacity:1" fill="#101725" d="M181.5 111.5c-4.338.122-4.672.455-1 1a71.254 71.254 0 0 1-4 2 9.86 9.86 0 0 0 6 1c.478 2.778-.522 4.778-3 6 1.481 1.444 1.148 2.111-1 2-1-.333-1.667-1-2-2-1.45-3.285-3.783-5.785-7-7.5a21.631 21.631 0 0 0 4-7.5 19.372 19.372 0 0 1 8 1c1.126 1.308 1.126 2.642 0 4z"/><path style="opacity:1" fill="#12141c" d="M224.5 99.5c3.552 1.704 6.719 4.038 9.5 7l3-3c-1.221 4.631.613 7.298 5.5 8 .819-4.275 2.153-8.275 4-12 .597.235.93.735 1 1.5a67.935 67.935 0 0 0-4 12 14.692 14.692 0 0 0 1 4.5c-1.617-1.089-2.45-2.756-2.5-5-3.207 3.295-2.54 5.962 2 8 .483.948.649 1.948.5 3-1.478-.262-2.811.071-4 1a3.647 3.647 0 0 0 1 1.5 123.945 123.945 0 0 0-10 8.5c-.723-1.664-.39-3.331 1-5a579.57 579.57 0 0 1-6-5c1.919-1.112 3.586-2.446 5-4a46.022 46.022 0 0 0 6-5.5c-.707-2.54-2.373-3.707-5-3.5a8.43 8.43 0 0 0-.5-4 69.825 69.825 0 0 1-7.5-8z"/><path style="opacity:1" fill="#6a87a9" d="M86.5 103.5c3.588 1.703 2.922 2.703-2 3v3h-1c-2.05.206-2.382 1.039-1 2.5-3.62.284-6.12 2.117-7.5 5.5l-1-3c-.943 2.609-2.61 4.609-5 6-1.187 1.544-1.52 3.211-1 5 2.694-1.709 4.694-4.043 6-7 .483.948.65 1.948.5 3-2.615 3.509-3.615 7.509-3 12-3.457.46-5.124 2.46-5 6 .351 2.541.018 4.208-1 5a39.61 39.61 0 0 0-1-11.5c1.529-1.582 2.029-3.415 1.5-5.5a7.292 7.292 0 0 0-2 3 296.526 296.526 0 0 1-.5 9l-1 1a13.118 13.118 0 0 1-1-7 75.883 75.883 0 0 0 4-11c.838-.342 1.172-1.008 1-2a68.826 68.826 0 0 0 6-7.5 42.712 42.712 0 0 0 6-4.5 46.537 46.537 0 0 1 8-5z"/><path style="opacity:1" fill="#3a506e" d="M83.5 109.5c1.135 1.713 2.802 2.38 5 2-1.539 2.029-3.539 3.529-6 4.5 1.35.772 2.182 1.939 2.5 3.5a10.51 10.51 0 0 0 2.5-3c2.582-.475 4.582.192 6 2-5.285.933-7.285 3.933-6 9-1.29-.558-2.123-1.558-2.5-3-.64 1.765-.473 3.432.5 5-1.75-1.242-3.417-2.742-5-4.5 2.324-2.13 2.99-4.63 2-7.5-2.138.929-3.305 2.596-3.5 5a7.292 7.292 0 0 1-2-3c-.708.881-1.542 1.547-2.5 2a4.932 4.932 0 0 0-.5-3c-1.306 2.957-3.306 5.291-6 7-.52-1.789-.187-3.456 1-5 2.39-1.391 4.057-3.391 5-6l1 3c1.38-3.383 3.88-5.216 7.5-5.5-1.382-1.461-1.05-2.294 1-2.5z"/><path style="opacity:1" fill="#5c7da9" d="M212.5 117.5c.667 0 1 .333 1 1v5c-1.205 1.172-1.205 2.505 0 4-1.282-.412-2.282.254-3 2a2.428 2.428 0 0 0-.5-2c-.69-1.238-1.19-1.238-1.5 0-.997.03-1.664-.47-2-1.5 1.376-3.736.376-6.569-3-8.5-.901-.79-1.568-1.79-2-3-.131-.876.202-1.543 1-2 1.041 2.491 1.874 2.491 2.5 0 1.883 1.153 2.716 2.819 2.5 5h5z"/><path style="opacity:1" fill="#707686" d="M54.5 118.5v1c-.76 2.485-1.76 2.485-3 0 .709-.904 1.709-1.237 3-1z"/><path style="opacity:1" fill="#1e2a40" d="M98.5 111.5c1.122 1.447 2.622 2.447 4.5 3 .417-1.256 1.25-1.923 2.5-2a37.398 37.398 0 0 1-4 8c-1.635-1.315-3.301-1.315-5 0-.765-1.112-1.765-1.779-3-2-1.418-1.808-3.418-2.475-6-2a531.375 531.375 0 0 1 11-5z"/><path style="opacity:1" fill="#8e97a9" d="M97.5 115.5c1.837.139 2.17.806 1 2-.797-.457-1.13-1.124-1-2z"/><path style="opacity:1" fill="#4a6281" d="M123.5 93.5c-1.256-.039-2.256.461-3 1.5 1.634.493 3.301.66 5 .5l-1 2v1c-1.696.185-3.029 1.019-4 2.5a50.135 50.135 0 0 1 13 2.5 552.274 552.274 0 0 1-21 4.5c-4.972 3.052-6.972 7.552-6 13.5a89.821 89.821 0 0 1-6.5 4c-.399-.228-.565-.562-.5-1 1.1-1.105 1.767-2.438 2-4a37.398 37.398 0 0 0 4-8c.526-1.73 1.526-3.064 3-4a247.331 247.331 0 0 1 12-4 28.718 28.718 0 0 0-5-1c1.367-1.34 2.7-2.673 4-4 .418-.722 1.084-1.222 2-1.5-2.068-.687-4.068-.52-6 .5-1.104-1.131-.771-1.965 1-2.5a12.935 12.935 0 0 0-5-.5c.763-.768 1.763-1.268 3-1.5-.228-.399-.562-.565-1-.5.111-.617.444-1.117 1-1.5a37.978 37.978 0 0 1 10-1c-.752.67-1.086 1.504-1 2.5z"/><path style="opacity:1" fill="#142035" d="M127.5 114.5a41.541 41.541 0 0 1-1 8c-.709.904-1.709 1.237-3 1h-3c.466-4.465 2.8-7.465 7-9z"/><path style="opacity:1" fill="#3f5168" d="M174.5 124.5a9.108 9.108 0 0 1-5-1c-1.342 1.505-3.008 2.172-5 2v-2c2.165-.562 1.832-1.229-1-2a54.7 54.7 0 0 1 4-5.5 18.163 18.163 0 0 0-8 .5v-1c2.719-1.413 5.719-2.08 9-2a12.992 12.992 0 0 1-1 5.5 867.75 867.75 0 0 1 7 5.5z"/><path style="opacity:1" fill="#24324b" d="m199.5 113.5 2 1c.432 1.21 1.099 2.21 2 3 .653 3.76 1.653 7.593 3 11.5-3.138.723-3.805 2.557-2 5.5-.14 1.53-.807 2.53-2 3 .437-3.955-.896-7.121-4-9.5 1.545-1.641 1.211-2.807-1-3.5a31.147 31.147 0 0 1-2 2c-.14-1.624.527-2.79 2-3.5-1.162-.827-2.329-1.66-3.5-2.5l-1.5.5c1.306 3.802 1.306 7.635 0 11.5 2.214 1.738 2.547 3.738 1 6l-2 1v-25h-5a12.992 12.992 0 0 0 1 5.5c-.405.945-1.072 1.612-2 2l2 1c-2.804 2.601-2.471 4.101 1 4.5-.399 3.471-1.899 3.804-4.5 1l-1.5 3c-2.373-2.079-3.706-4.746-4-8 2.148.111 2.481-.556 1-2 2.478-1.222 3.478-3.222 3-6a9.86 9.86 0 0 1-6-1 71.254 71.254 0 0 0 4-2h3c.122 4.338.455 4.672 1 1h7c.899-.972 2.066-1.638 3.5-2a31.505 31.505 0 0 1 4.5 2z"/><path style="opacity:1" fill="#0d111d" d="M93.5 118.5c1.235.221 2.235.888 3 2 1.699-1.315 3.365-1.315 5 0-.233 1.562-.9 2.895-2 4a80.67 80.67 0 0 1-11 5l-1-2c-1.285-5.067.715-8.067 6-9z"/><path style="opacity:1" fill="#8ba3c5" d="M133.5 120.5h4v4h-5l1-4z"/><path style="opacity:1" fill="#0c111a" d="M120.5 115.5c-1.502 2.961-1.836 5.961-1 9-2.441.25-4.441 1.25-6 3h-7v-6c.65.304 1.317.637 2 1a31.116 31.116 0 0 0 1-11c3.292-.894 6.626-.727 10 .5.837 1.011 1.17 2.178 1 3.5z"/><path style="opacity:1" fill="#304871" d="M132.5 124.5h5c2.324.162 3.991 1.328 5 3.5-5.184.174-10.184.674-15 1.5-2.545.349-4.545-.484-6-2.5a97.512 97.512 0 0 1 11-2.5z"/><path style="opacity:1" fill="#0c182e" d="M202.5 137.5c-1.664-1.449-2.498-3.449-2.5-6a8.43 8.43 0 0 0-.5 4h-3c.268-1.599-.066-2.932-1-4v-5a31.147 31.147 0 0 0 2-2c2.211.693 2.545 1.859 1 3.5 3.104 2.379 4.437 5.545 4 9.5z"/><path style="opacity:1" fill="#5d7699" d="m133.5 120.5-1 4a97.512 97.512 0 0 0-11 2.5c1.455 2.016 3.455 2.849 6 2.5a170.922 170.922 0 0 1-9.5 5c-.795-2.883.371-4.383 3.5-4.5l-2-1c.913-1.414.913-2.914 0-4.5 1.599.268 2.932-.066 4-1 1.291.237 2.291-.096 3-1l7-2z"/><path style="opacity:1" fill="#2f3d54" d="M106.5 121.5v6h7c-2.202.701-4.035 2.034-5.5 4l-1.5-.5c2.73-1.232 2.563-2.065-.5-2.5-1.376.184-2.209.851-2.5 2-.617-1.821-.784-3.821-.5-6a56.576 56.576 0 0 0-5.5 4 10.256 10.256 0 0 0 4 1.5c-1.825 1.466-2.325 3.299-1.5 5.5 1.076 2.579 2.909 4.246 5.5 5-2.512 1.367-4.845 1.034-7-1 .628-3.964-.538-7.631-3.5-11a30.818 30.818 0 0 0-4.5 3l-2-2a80.67 80.67 0 0 0 11-5c-.065.438.101.772.5 1a89.821 89.821 0 0 0 6.5-4z"/><path style="opacity:1" fill="#384963" d="M213.5 123.5c2.012 2.852 3.679 6.019 5 9.5-.3 2.024-1.133 2.524-2.5 1.5-.789 2.212-.622 4.212.5 6a57.692 57.692 0 0 1-4 8 109.897 109.897 0 0 1 2-13c.117-3.308-.55-3.641-2-1a31.283 31.283 0 0 1-2-5c.718-1.746 1.718-2.412 3-2-1.205-1.495-1.205-2.828 0-4z"/><path style="opacity:1" fill="#536e90" d="M134.5 120.5c1.765-.961 3.765-1.295 6-1h15c2.503.871 5.17 1.537 8 2 2.832.771 3.165 1.438 1 2a173.272 173.272 0 0 0-15.5-3 30.758 30.758 0 0 0-7.5 2 325.902 325.902 0 0 0 10.5 3c2.291-.811 4.125.023 5.5 2.5a52.56 52.56 0 0 0 7 1.5v-4c1.992.172 3.658-.495 5-2a9.108 9.108 0 0 0 5 1c.712 1.239 1.712 1.739 3 1.5-1.565-1.506-1.899-3.006-1-4.5.333 1 1 1.667 2 2 .294 3.254 1.627 5.921 4 8a26.002 26.002 0 0 0 5 7c.912 1.238 1.079 2.572.5 4-.278-.916-.778-1.582-1.5-2-.526-1.73-1.526-3.064-3-4-.709-.904-1.709-1.237-3-1-4.998-1-10.164-1-15.5 0-2.302-.1-4.302-.767-6-2-.236 1.619-1.069 2.619-2.5 3v-1c1.385-1.447 1.052-2.447-1-3 .203-1.89-.463-3.39-2-4.5a27.624 27.624 0 0 0-10-2.5v3c2.357-.163 4.69.003 7 .5a6.802 6.802 0 0 0-3 1.5c1.279 1.646 2.945 2.813 5 3.5a16.597 16.597 0 0 1-7-.5c-.524 3.81 1.143 5.81 5 6h4c.03.997-.47 1.664-1.5 2-1.465-.83-2.965-.996-4.5-.5.556.383.889.883 1 1.5-1.347-.528-2.681-.695-4-.5-2.45 3.126-5.45 5.459-9 7-1.323.816-1.989 1.983-2 3.5l-2 1c-3.829.549-6.496 2.549-8 6-1.495.489-2.829 1.155-4 2a29.01 29.01 0 0 1-3-4.5 4.934 4.934 0 0 0-3-.5v-4h-7a20.69 20.69 0 0 0-1-5v-4c-.065-.438.101-.772.5-1 .232 1.237.732 2.237 1.5 3 .311.978.978 1.645 2 2 1.823-1.247 3.823-1.914 6-2a4.934 4.934 0 0 1 .5-3 7.293 7.293 0 0 0 2 3c-.652 6.859 2.181 9.525 8.5 8a64.881 64.881 0 0 0 8-5.5 6.978 6.978 0 0 0 2.5-3.5c1.297 1.284 2.464 1.117 3.5-.5a72.367 72.367 0 0 0-12-.5v-3c7.887 1.883 8.887.216 3-5-.835-1.443-2.168-2.443-4-3l.5-1a34.041 34.041 0 0 1 7.5-1.5 40.914 40.914 0 0 0-9-.5c4.816-.826 9.816-1.326 15-1.5-1.009-2.172-2.676-3.338-5-3.5v-4h-3z"/><path style="opacity:1" fill="#1d2e47" d="M164.5 123.5v6a52.56 52.56 0 0 1-7-1.5c-1.375-2.477-3.209-3.311-5.5-2.5a325.902 325.902 0 0 1-10.5-3 30.758 30.758 0 0 1 7.5-2c5.241.77 10.407 1.77 15.5 3z"/><path style="opacity:1" fill="#19263d" d="M85.5 129.5c2.416 2.205 2.416 4.205 0 6v-3c-3.738-.579-7.404-.579-11 0 2.538 2.059 5.538 3.059 9 3-4.253 1.486-8.253.819-12-2-.615-4.491.385-8.491 3-12 .958-.453 1.792-1.119 2.5-2a7.292 7.292 0 0 0 2 3c.195-2.404 1.362-4.071 3.5-5 .99 2.87.324 5.37-2 7.5 1.583 1.758 3.25 3.258 5 4.5z"/><path style="opacity:1" fill="#8893a5" d="M78.5 127.5c1.965.448 2.298 1.448 1 3-.886-.825-1.219-1.825-1-3z"/><path style="opacity:1" fill="#132641" d="M167.5 127.5a27.393 27.393 0 0 1 11 4c-4.495 1.619-8.495.786-12-2.5.556-.383.889-.883 1-1.5z"/><path style="opacity:1" fill="#afb5c7" d="M42.5 131.5c0 1.333-.667 2-2 2 0-1.333.667-2 2-2z"/><path style="opacity:1" fill="#060d18" d="M85.5 135.5h-2c-3.462.059-6.462-.941-9-3 3.596-.579 7.262-.579 11 0v3z"/><path style="opacity:1" fill="#0e1b30" d="M103.5 130.5a124.15 124.15 0 0 0 3 3.5 14.093 14.093 0 0 0-1 3.5v3c-2.591-.754-4.424-2.421-5.5-5-.825-2.201-.325-4.034 1.5-5.5a10.256 10.256 0 0 1-4-1.5 56.576 56.576 0 0 1 5.5-4c-.284 2.179-.117 4.179.5 6z"/><path style="opacity:1" fill="#16233b" d="M135.5 133.5h8c-.954 8.815-3.954 9.315-9 1.5.556-.383.889-.883 1-1.5z"/><path style="opacity:1" fill="#172d4f" d="M155.5 132.5c2.052.553 2.385 1.553 1 3-3.148-.64-3.481-1.64-1-3z"/><path style="opacity:1" fill="#435876" d="M203.5 117.5c3.376 1.931 4.376 4.764 3 8.5.336 1.03 1.003 1.53 2 1.5a15.414 15.414 0 0 1-2 4.5c1.302 3.656.969 7.156-1 10.5a29.555 29.555 0 0 0-3-5c1.193-.47 1.86-1.47 2-3-1.805-2.943-1.138-4.777 2-5.5-1.347-3.907-2.347-7.74-3-11.5z"/><path style="opacity:1" fill="#131d2e" d="M98.5 139.5c-3.636-.271-6.47-1.937-8.5-5-.74-1.249-.573-2.249.5-3a30.818 30.818 0 0 1 4.5-3c2.962 3.369 4.128 7.036 3.5 11z"/><path style="opacity:1" fill="#354d66" d="M155.5 132.5c-2.481 1.36-2.148 2.36 1 3v1a6.846 6.846 0 0 1-4-1c-1.611.82-2.278 2.154-2 4-3.857-.19-5.524-2.19-5-6 2.319.667 4.653.834 7 .5-2.055-.687-3.721-1.854-5-3.5a6.802 6.802 0 0 1 3-1.5 24.935 24.935 0 0 0-7-.5v-3a27.624 27.624 0 0 1 10 2.5c1.537 1.11 2.203 2.61 2 4.5z"/><path style="opacity:1" fill="#576984" d="M195.5 126.5v5c-.236 3.109.097 6.109 1 9h-1c-1.333 0-2-.667-2-2 1.547-2.262 1.214-4.262-1-6 1.306-3.865 1.306-7.698 0-11.5l1.5-.5c1.171.84 2.338 1.673 3.5 2.5-1.473.71-2.14 1.876-2 3.5z"/><path style="opacity:1" fill="#0f1723" d="M210.5 129.5a31.283 31.283 0 0 0 2 5c1.45-2.641 2.117-2.308 2 1a109.897 109.897 0 0 0-2 13c-1.917.616-3.084 1.95-3.5 4l-1-4a46.052 46.052 0 0 1-1.5 8c-1.459.067-2.792-.266-4-1-.667 0-1-.333-1-1-.758-4.771.575-8.771 4-12 1.969-3.344 2.302-6.844 1-10.5a15.414 15.414 0 0 0 2-4.5c.31-1.238.81-1.238 1.5 0 .464.594.631 1.261.5 2z"/><path style="opacity:1" fill="#4b6079" d="M213.5 118.5c1.816 1.618 3.149 3.618 4 6a81.844 81.844 0 0 1 4 15.5c.184 1.376.851 2.209 2 2.5-.709.904-1.709 1.237-3 1v5c-1.931 3.266-3.431 6.933-4.5 11a34.041 34.041 0 0 0-1.5-7.5c1.349-.772 2.182-1.939 2.5-3.5.804-3.458.637-6.125-.5-8-1.122-1.788-1.289-3.788-.5-6 1.367 1.024 2.2.524 2.5-1.5-1.321-3.481-2.988-6.648-5-9.5v-5z"/><path style="opacity:1" fill="#3d5473" d="M119.5 124.5c.913 1.586.913 3.086 0 4.5l2 1c-3.129.117-4.295 1.617-3.5 4.5a170.922 170.922 0 0 0 9.5-5 40.914 40.914 0 0 1 9 .5 34.041 34.041 0 0 0-7.5 1.5l-.5 1c1.832.557 3.165 1.557 4 3-.967 1.306-2.301 1.973-4 2-.237 1.291.096 2.291 1 3v3c-.679 2.314-2.012 2.647-4 1-1.01 3.318-.343 6.318 2 9-6.319 1.525-9.152-1.141-8.5-8a7.293 7.293 0 0 1-2-3 4.934 4.934 0 0 0-.5 3c-2.177.086-4.177.753-6 2-1.022-.355-1.689-1.022-2-2-.17-1.322.163-2.489 1-3.5-1.546-1.44-2.379-3.273-2.5-5.5-.383.556-.883.889-1.5 1a14.093 14.093 0 0 1 1-3.5 124.15 124.15 0 0 1-3-3.5c.291-1.149 1.124-1.816 2.5-2 3.063.435 3.23 1.268.5 2.5l1.5.5c1.465-1.966 3.298-3.299 5.5-4 1.559-1.75 3.559-2.75 6-3z"/><path style="opacity:1" fill="#192843" d="M132.5 135.5c5.887 5.216 4.887 6.883-3 5-.904-.709-1.237-1.709-1-3 1.699-.027 3.033-.694 4-2z"/><path style="opacity:1" fill="#152940" d="M156.5 136.5c-.282 1.278-.949 2.278-2 3h-4c-.278-1.846.389-3.18 2-4a6.846 6.846 0 0 0 4 1z"/><path style="opacity:1" fill="#1d253a" d="M51.5 119.5c1.24 2.485 2.24 2.485 3 0a19.17 19.17 0 0 1 5 2.5c1.973.495 3.973.662 6 .5a75.883 75.883 0 0 1-4 11c-1.2 3.198-1.2 6.531 0 10-3.285-.29-6.285.377-9 2l1-2c1.464-2.13 3.464-3.463 6-4 .14-1.624-.527-2.79-2-3.5a18.452 18.452 0 0 0-6-.5c-.638 1.96-.638 3.793 0 5.5-2.445.91-3.778.076-4-2.5-1.548-.321-2.215-1.321-2-3-2.281.423-3.948-.244-5-2 1.333 0 2-.667 2-2 2.854 2.219 6.188 3.219 10 3 6.947.607 8.28-1.56 4-6.5a14.72 14.72 0 0 1-6.5-2.5 3.944 3.944 0 0 0-2 1 18.437 18.437 0 0 1-.5-6c1.459.067 2.792-.266 4-1z"/><path style="opacity:1" fill="#9ea7c3" d="M47.5 138.5c.14-1.837.806-2.17 2-1-.457.798-1.124 1.131-2 1z"/><path style="opacity:1" fill="#131c28" d="M191.5 139.5c-.06.543-.393.876-1 1-.765-1.112-1.765-1.779-3-2a26.002 26.002 0 0 1-5-7l1.5-3c2.601 2.804 4.101 2.471 4.5-1-3.471-.399-3.804-1.899-1-4.5l-2-1c.928-.388 1.595-1.055 2-2a12.992 12.992 0 0 1-1-5.5h5v25z"/><path style="opacity:1" fill="#0e1b2f" d="M183.5 136.5c1.474.936 2.474 2.27 3 4-.82 2.312-1.653 4.646-2.5 7-3.144-3.572-3.31-7.238-.5-11z"/><path style="opacity:1" fill="#536886" d="m87.5 127.5 1 2 2 2c-1.073.751-1.24 1.751-.5 3 2.03 3.063 4.864 4.729 8.5 5 2.155 2.034 4.488 2.367 7 1v-3c.617-.111 1.117-.444 1.5-1 .121 2.227.954 4.06 2.5 5.5-.837 1.011-1.17 2.178-1 3.5-.768-.763-1.268-1.763-1.5-3-.399.228-.565.562-.5 1a19.372 19.372 0 0 1-8-1c-.963.47-.963 1.137 0 2-.992-.172-1.658.162-2 1l-2-5c-3.768-4.359-8.101-5.025-13-2-3.218.151-3.552.984-1 2.5-3.488.324-5.488 2.158-6 5.5 1.175-.219 2.175.114 3 1l-1 1c-2.087-.815-3.753-.815-5 0 .181-3.053.348-6.053.5-9a14.984 14.984 0 0 1-3.5-3 44.093 44.093 0 0 1-2 3c-.124-3.54 1.543-5.54 5-6 3.747 2.819 7.747 3.486 12 2h2c2.416-1.795 2.416-3.795 0-6-.973-1.568-1.14-3.235-.5-5 .377 1.442 1.21 2.442 2.5 3z"/><path style="opacity:1" fill="#0e1623" d="M94.5 140.5c-.059 2.222-1.225 3.222-3.5 3-2.951-1.414-6.118-2.247-9.5-2.5 1.098-.77 1.098-1.603 0-2.5 4.899-3.025 9.232-2.359 13 2z"/><path style="opacity:1" fill="#7a96ba" d="M180.5 135.5c-4.504-.609-9.004.058-13.5 2-2.928-1.641-5.428-1.307-7.5 1a49.742 49.742 0 0 1-8 5c-.342-.838-1.008-1.172-2-1-.111-.617-.444-1.117-1-1.5 1.535-.496 3.035-.33 4.5.5 1.03-.336 1.53-1.003 1.5-2 1.051-.722 1.718-1.722 2-3 1.431-.381 2.264-1.381 2.5-3 1.698 1.233 3.698 1.9 6 2 5.336-1 10.502-1 15.5 0z"/><path style="opacity:1" fill="#202e42" d="M169.5 148.5c-3.223-.838-3.556-2.172-1-4-3.866-.502-7.533-1.502-11-3a7.293 7.293 0 0 0-2 3l7 4.5c.837 1.011 1.17 2.178 1 3.5a4.934 4.934 0 0 0-3 .5l3.5 3.5c.939-2.515 2.439-3.182 4.5-2 .529 3.104-.471 5.437-3 7a31.147 31.147 0 0 0-2-2h-1c-2.22-3.265-3.386-6.932-3.5-11-2.824-1.318-5.324-2.985-7.5-5a49.742 49.742 0 0 0 8-5c1.548.321 2.215 1.321 2 3 4.62.686 8.287-.814 11-4.5a4.934 4.934 0 0 1 3-.5v3c1.175-.219 2.175.114 3 1a32.444 32.444 0 0 1 1.5 6c.667-1.333 1.333-1.333 2 0a12.93 12.93 0 0 1 .5 5c-4.464.068-8.464-1.266-12-4-.607.124-.94.457-1 1z"/><path style="opacity:1" fill="#394b62" d="M180.5 135.5c1.291-.237 2.291.096 3 1-2.81 3.762-2.644 7.428.5 11 .847-2.354 1.68-4.688 2.5-7 .722.418 1.222 1.084 1.5 2 .579-1.428.412-2.762-.5-4 1.235.221 2.235.888 3 2 .607-.124.94-.457 1-1l2-1c0 1.333.667 2 2 2-2.436 1.579-3.769 3.912-4 7a24.257 24.257 0 0 0 3 5.5c-2.964 2.579-5.964 2.412-9-.5a54.968 54.968 0 0 0-12 1c-.193 3.949-.693 3.949-1.5 0-.671-.752-1.504-1.086-2.5-1v-4c.06-.543.393-.876 1-1 3.536 2.734 7.536 4.068 12 4a12.93 12.93 0 0 0-.5-5c-.667-1.333-1.333-1.333-2 0a32.444 32.444 0 0 0-1.5-6c-.825-.886-1.825-1.219-3-1v-3a4.934 4.934 0 0 0-3 .5c-2.713 3.686-6.38 5.186-11 4.5.215-1.679-.452-2.679-2-3 2.072-2.307 4.572-2.641 7.5-1 4.496-1.942 8.996-2.609 13.5-2z"/><path style="opacity:1" fill="#0c1622" d="M195.5 140.5h4a24.935 24.935 0 0 1-.5 7c-.72 1.556-1.887 2.556-3.5 3l-4-3c.231-3.088 1.564-5.421 4-7z"/><path style="opacity:1" fill="#1c2a43" d="M71.5 148.5c-1.951-.273-3.451.393-4.5 2a19.897 19.897 0 0 1-3.5-4c.355-1.022 1.022-1.689 2-2 1.018-.792 1.351-2.459 1-5a44.093 44.093 0 0 0 2-3 14.984 14.984 0 0 0 3.5 3c-.152 2.947-.319 5.947-.5 9z"/><path style="opacity:1" fill="#2d3b53" d="M195.5 131.5c.934 1.068 1.268 2.401 1 4h3a8.43 8.43 0 0 1 .5-4c.002 2.551.836 4.551 2.5 6a29.555 29.555 0 0 1 3 5c-3.425 3.229-4.758 7.229-4 12-2.698-.345-4.698-1.678-6-4 1.613-.444 2.78-1.444 3.5-3 .497-2.31.663-4.643.5-7h-3c-.903-2.891-1.236-5.891-1-9z"/><path style="opacity:1" fill="#4c5568" d="m53.5 143.5-1 2c-.667 0-1 .333-1 1h-4a44.043 44.043 0 0 0-1-2c2.182-1.947 4.516-2.281 7-1z"/><path style="opacity:1" fill="#071526" d="M185.5 152.5c-.236-3.329.597-6.329 2.5-9 2.143 3.738 1.31 6.738-2.5 9z"/><path style="opacity:1" fill="#131722" d="M244.5 117.5a319.364 319.364 0 0 0 2 5c-3.352 4.749-5.019 10.083-5 16-.722.418-1.222 1.084-1.5 2a72.786 72.786 0 0 1-3 19c.32-2.96.32-5.96 0-9-.805 2.401-1.638 2.234-2.5-.5-3.98-2.676-6.98-1.843-9 2.5 2.645 2.423 3.312 5.256 2 8.5.459 2.355 1.292 4.521 2.5 6.5.424-3.69 1.258-3.857 2.5-.5-2.544 2.222-2.544 4.389 0 6.5a11.456 11.456 0 0 0-1 2.5c1.378 4.216 2.711 8.383 4 12.5a4.934 4.934 0 0 1-.5 3 22.981 22.981 0 0 1-2-5 66.75 66.75 0 0 0-2.5 13c-1.112-2.099-1.779-4.433-2-7v-2c-1.068-.934-2.401-1.268-4-1v-3c-1.679.215-2.679-.452-3-2a84.05 84.05 0 0 1 4-18 43.836 43.836 0 0 1-1-2c.313-3.542-.021-6.875-1-10a30.334 30.334 0 0 1-.5-10c1.156 1.493 1.99 1.326 2.5-.5-.336-1.03-1.003-1.53-2-1.5-1.149-.291-1.816-1.124-2-2.5a81.844 81.844 0 0 0-4-15.5c4.694 1.044 7.861-.623 9.5-5a4.457 4.457 0 0 0 1.5 2 5.576 5.576 0 0 1 3-1c-1.414 1.554-3.081 2.888-5 4a579.57 579.57 0 0 0 6 5c-1.39 1.669-1.723 3.336-1 5a123.945 123.945 0 0 1 10-8.5 3.647 3.647 0 0 1-1-1.5c1.189-.929 2.522-1.262 4-1a4.934 4.934 0 0 0-.5-3c-4.54-2.038-5.207-4.705-2-8 .05 2.244.883 3.911 2.5 5z"/><path style="opacity:1" fill="#b3bcd1" d="M238.5 132.5c1.837.139 2.17.806 1 2-.798-.457-1.131-1.124-1-2z"/><path style="opacity:1" fill="#1f3049" d="M106.5 143.5v4a21.435 21.435 0 0 1-7-1c.172-.992-.162-1.658-1-2-.963-.863-.963-1.53 0-2a19.372 19.372 0 0 0 8 1z"/><path style="opacity:1" fill="#142135" d="M129.5 143.5a72.367 72.367 0 0 1 12 .5c-1.036 1.617-2.203 1.784-3.5.5a6.978 6.978 0 0 1-2.5 3.5 64.881 64.881 0 0 1-8 5.5c-2.343-2.682-3.01-5.682-2-9 1.988 1.647 3.321 1.314 4-1z"/><path style="opacity:1" fill="#111b2b" d="M169.5 148.5v4l-1 2c-2.061-1.182-3.561-.515-4.5 2l-3.5-3.5a4.934 4.934 0 0 1 3-.5c.17-1.322-.163-2.489-1-3.5l-7-4.5a7.293 7.293 0 0 1 2-3c3.467 1.498 7.134 2.498 11 3-2.556 1.828-2.223 3.162 1 4z"/><path style="opacity:1" fill="#8aa2c7" d="M98.5 144.5c.838.342 1.172 1.008 1 2-.543.06-.876.393-1 1a32.367 32.367 0 0 1 3 4.5c-.228.399-.562.565-1 .5-2.442-1.621-3.775-3.954-4-7 .342-.838 1.008-1.172 2-1z"/><path style="opacity:1" fill="#2b3a54" d="M65.5 144.5c-.978.311-1.645.978-2 2a19.897 19.897 0 0 0 3.5 4c1.049-1.607 2.549-2.273 4.5-2 1.247-.815 2.913-.815 5 0l1-1c-.825-.886-1.825-1.219-3-1 .512-3.342 2.512-5.176 6-5.5-2.552-1.516-2.218-2.349 1-2.5 1.098.897 1.098 1.73 0 2.5 3.382.253 6.549 1.086 9.5 2.5 2.275.222 3.441-.778 3.5-3l2 5c.225 3.046 1.558 5.379 4 7a11.743 11.743 0 0 0 3 5c-.754 5.858-3.42 7.192-8 4 5.903.182 6.903-1.485 3-5-2.064-2.478-4.064-2.478-6 0a6.845 6.845 0 0 0-4-1v3c-5.21.201-9.877-1.133-14-4 1.644.214 3.144-.12 4.5-1 3.537 4.034 6.704 3.867 9.5-.5a14.694 14.694 0 0 1-3-3.5l3-3c-2-2.667-4-2.667-6 0 .627.917.96 1.917 1 3-.206 2.049-1.04 2.383-2.5 1l-2 2c-2.064-1.091-4.23-1.258-6.5-.5.752.671 1.086 1.504 1 2.5-1.703-1.16-2.37-.493-2 2-4.838-3.172-8.17-7.505-10-13-1.2-3.469-1.2-6.802 0-10a13.118 13.118 0 0 0 1 7l1-1c.207-2.896.373-5.896.5-9a7.292 7.292 0 0 1 2-3c.529 2.085.029 3.918-1.5 5.5a39.61 39.61 0 0 1 1 11.5z"/><path style="opacity:1" fill="#607ea1" d="M85.5 149.5h-2a5.577 5.577 0 0 0-1-3c2-2.667 4-2.667 6 0l-3 3z"/><path style="opacity:1" fill="#141d2e" d="M149.5 142.5c.992-.172 1.658.162 2 1 2.176 2.015 4.676 3.682 7.5 5 .114 4.068 1.28 7.735 3.5 11h-5c0-.667-.333-1-1-1v-3c-1.643-.02-2.976.647-4 2-4.116-3.349-8.783-4.849-14-4.5l-2 1c4.262-.02 8.095 1.147 11.5 3.5l.5 1c-4.333 1.333-8.667 1.333-13 0-2.235-1.656-2.568-3.656-1-6 .011-1.517.677-2.684 2-3.5 3.55-1.541 6.55-3.874 9-7 1.319-.195 2.653-.028 4 .5z"/><path style="opacity:1" fill="#131926" d="M47.5 146.5h4a196.647 196.647 0 0 1-3 5c.67 2.698.337 5.365-1 8-2.644.34-4.977-.327-7-2-.607.124-.94.457-1 1-1.637-.718-3.303-.884-5-.5a90.134 90.134 0 0 0 7 6.5c-4.821-.219-7.821-2.553-9-7 .21-1.494.876-2.661 2-3.5l-3-3c2.458 1.038 5.125 1.871 8 2.5.982.641 1.982 1.307 3 2 3.022-2.33 4.689-5.33 5-9z"/><path style="opacity:1" fill="#0f1625" d="M83.5 149.5h2a14.694 14.694 0 0 0 3 3.5c-2.796 4.367-5.963 4.534-9.5.5-1.356.88-2.856 1.214-4.5 1h-1c.086-.996-.248-1.829-1-2.5 2.27-.758 4.436-.591 6.5.5l2-2c1.46 1.383 2.294 1.049 2.5-1z"/><path style="opacity:1" fill="#090c14" d="M61.5 143.5c1.83 5.495 5.162 9.828 10 13 2.319.492 4.319 1.492 6 3 .11.617.444 1.117 1 1.5-6.325.5-12.658.666-19 .5-.553-2.052-1.553-2.385-3-1h-9v-1c1.337-2.635 1.67-5.302 1-8a196.647 196.647 0 0 0 3-5c0-.667.333-1 1-1 2.715-1.623 5.715-2.29 9-2z"/><path style="opacity:1" fill="#48617f" d="m191.5 147.5 4 3c1.302 2.322 3.302 3.655 6 4 0 .667.333 1 1 1-.235.597-.735.93-1.5 1-1.567-1.356-3.4-2.023-5.5-2a4.934 4.934 0 0 1-.5 3 68.077 68.077 0 0 0-6.5-1c-1.152 1.897-.819 3.564 1 5-1.548.321-2.215 1.321-2 3-1.459.067-2.792-.266-4-1v-1c1.246-1.523.746-2.523-1.5-3-1.876 1.119-2.709 2.786-2.5 5 0 .667-.333 1-1 1-1.479-1.006-3.146-1.006-5 0-1.683-1.963-3.349-2.13-5-.5l2 1a15.256 15.256 0 0 0-4.5 1.5c-.692.937-.525 1.603.5 2 0 .667-.333 1-1 1-.997.03-1.664-.47-2-1.5.29-3.377.29-6.544 0-9.5a31.147 31.147 0 0 1 2 2c2.529-1.563 3.529-3.896 3-7l1-2c.996-.086 1.829.248 2.5 1 .807 3.949 1.307 3.949 1.5 0a54.968 54.968 0 0 1 12-1c3.036 2.912 6.036 3.079 9 .5a24.257 24.257 0 0 1-3-5.5z"/><path style="opacity:1" fill="#0f1625" d="M95.5 161.5a17.043 17.043 0 0 1-7-3v-3a6.845 6.845 0 0 1 4 1c1.936-2.478 3.936-2.478 6 0 3.903 3.515 2.903 5.182-3 5z"/><path style="opacity:1" fill="#374f71" d="M99.5 146.5a21.435 21.435 0 0 0 7 1 20.69 20.69 0 0 1 1 5h7v4a4.934 4.934 0 0 1 3 .5 29.01 29.01 0 0 0 3 4.5c-1.551 2.482-2.884 2.148-4-1a173.55 173.55 0 0 0-4-3c-1.673 1.586-3.673 2.253-6 2-1.278-.282-2.278-.949-3-2a11.743 11.743 0 0 1-3-5c.438.065.772-.101 1-.5a32.367 32.367 0 0 0-3-4.5c.124-.607.457-.94 1-1z"/><path style="opacity:1" fill="#6481a1" d="M223.5 142.5c.997-.03 1.664.47 2 1.5-.51 1.826-1.344 1.993-2.5.5a30.334 30.334 0 0 0 .5 10c.285 1.788-.048 3.455-1 5a43.836 43.836 0 0 0-2-1v-15c1.291.237 2.291-.096 3-1z"/><path style="opacity:1" fill="#586c88" d="M73.5 154.5h1c4.123 2.867 8.79 4.201 14 4a17.043 17.043 0 0 0 7 3c4.58 3.192 7.246 1.858 8-4 .722 1.051 1.722 1.718 3 2a45.296 45.296 0 0 0-.5 7c.604-2.186 1.77-2.352 3.5-.5-.916.278-1.582.778-2 1.5-1.7.516-3.033 1.516-4 3 1.333 1 1.333 2 0 3 .355 1.022 1.022 1.689 2 2-.333 1-1 1.667-2 2l-1-4a16.873 16.873 0 0 0-1-8 214.061 214.061 0 0 1-24-6c-1.681-1.508-3.681-2.508-6-3-.37-2.493.297-3.16 2-2z"/><path style="opacity:1" fill="#6785aa" d="M132.5 153.5v3c-3.407-.375-3.907.625-1.5 3 3.703 3.336 7.703 3.67 12 1 2.793-.195 5.293.471 7.5 2 .7-2.515 2.033-3.182 4-2a31.147 31.147 0 0 1 2-2c.667 0 1 .333 1 1-.734 1.208-1.067 2.541-1 4a4.934 4.934 0 0 1 3 .5c-.334 2.444-1.834 4.611-4.5 6.5a45.296 45.296 0 0 1 .5-7 29.356 29.356 0 0 0-9 2c-.886-.825-1.219-1.825-1-3a24.935 24.935 0 0 0-7 .5c1.931.902 3.597 2.069 5 3.5a32.462 32.462 0 0 1-8-.5c1.333-.667 1.333-1.333 0-2a28.224 28.224 0 0 1-7.5-4.5 19.359 19.359 0 0 0-4.5 4l1-4c1.504-3.451 4.171-5.451 8-6z"/><path style="opacity:1" fill="#385071" d="M134.5 152.5c-1.568 2.344-1.235 4.344 1 6 4.333 1.333 8.667 1.333 13 0l-.5-1c-3.405-2.353-7.238-3.52-11.5-3.5l2-1c5.217-.349 9.884 1.151 14 4.5 1.024-1.353 2.357-2.02 4-2v3a31.147 31.147 0 0 0-2 2c-1.967-1.182-3.3-.515-4 2-2.207-1.529-4.707-2.195-7.5-2-4.297 2.67-8.297 2.336-12-1-2.407-2.375-1.907-3.375 1.5-3v-3l2-1z"/><path style="opacity:1" fill="#6994c1" d="M183.5 162.5c-1.562.233-2.895.9-4 2-.209-2.214.624-3.881 2.5-5 2.246.477 2.746 1.477 1.5 3z"/><path style="opacity:1" fill="#8a9dc1" d="M47.5 159.5v1l-1 2c-.709.904-1.709 1.237-3 1v-3c-1.983.343-3.317-.324-4-2 .06-.543.393-.876 1-1 2.023 1.673 4.356 2.34 7 2z"/><path style="opacity:1" fill="#1d2e45" d="M202.5 155.5c1.208.734 2.541 1.067 4 1-.593 3.3-1.26 6.634-2 10a7.293 7.293 0 0 0-3-2c-1.364.543-2.697.71-4 .5a34.198 34.198 0 0 1-3-6.5c-1.047 1.422-1.047 2.922 0 4.5-.336 1.03-1.003 1.53-2 1.5a6.547 6.547 0 0 1-3-3c-1.819-1.436-2.152-3.103-1-5 2.171.227 4.338.56 6.5 1a4.934 4.934 0 0 0 .5-3c2.1-.023 3.933.644 5.5 2 .765-.07 1.265-.403 1.5-1z"/><path style="opacity:1" fill="#111b2c" d="M220.5 148.5v10c.175 2.121-.159 4.121-1 6-2.667 1-2.667 2 0 3-.313 3.542.021 6.875 1 10-.579 3.206-1.579 6.206-3 9a78.289 78.289 0 0 1-.5-11c-.628 3.454-1.795 3.787-3.5 1l-3-4c3.688-3.186 5.188-7.186 4.5-12-.36 1.921-1.194 3.588-2.5 5a6.846 6.846 0 0 0-4-1 347.15 347.15 0 0 1 4-16 57.692 57.692 0 0 0 4-8c1.137 1.875 1.304 4.542.5 8-.318 1.561-1.151 2.728-2.5 3.5a34.041 34.041 0 0 1 1.5 7.5c1.069-4.067 2.569-7.734 4.5-11z"/><path style="opacity:1" fill="#2f4461" d="M143.5 166.5c-1.533 1.745-3.533 2.745-6 3 .111-.617.444-1.117 1-1.5-3.711-.825-7.378-.659-11 .5 2.433 1.554 5.1 2.22 8 2l-1 2c-5.895.443-9.561-2.224-11-8v-1a19.359 19.359 0 0 1 4.5-4 28.224 28.224 0 0 0 7.5 4.5c1.333.667 1.333 1.333 0 2 2.646.497 5.313.664 8 .5z"/><path style="opacity:1" fill="#3e536c" d="M223.5 154.5c.979 3.125 1.313 6.458 1 10-.617-.111-1.117-.444-1.5-1-.584 5.274-1.418 9.94-2.5 14-.979-3.125-1.313-6.458-1-10 1.125-.848 1.125-1.848 0-3 .841-1.879 1.175-3.879 1-6 .65.304 1.317.637 2 1 .952-1.545 1.285-3.212 1-5z"/><path style="opacity:1" fill="#1a253a" d="M39.5 158.5c.683 1.676 2.017 2.343 4 2v3c1.291.237 2.291-.096 3-1 3.65-.142 7.15.525 10.5 2 .147-1.122.98-2.122 2.5-3 6.342.166 12.675 0 19-.5-.556-.383-.89-.883-1-1.5a214.061 214.061 0 0 0 24 6 16.873 16.873 0 0 1 1 8 205.278 205.278 0 0 1-13-8c-3.689 1.255-7.355 1.255-11 0a20.085 20.085 0 0 1-10 2c-9.16-1.569-18.16-2.569-27-3a90.134 90.134 0 0 1-7-6.5c1.697-.384 3.363-.218 5 .5z"/><path style="opacity:1" fill="#b6c2d3" d="M68.5 163.5c1.837.139 2.17.806 1 2-.797-.457-1.13-1.124-1-2z"/><path style="opacity:1" fill="#384461" d="M47.5 160.5h9c.709.904 1.709 1.237 3 1-1.52.878-2.353 1.878-2.5 3a23.465 23.465 0 0 0-10.5-2l1-2z"/><path style="opacity:1" fill="#a2aebc" d="M59.5 161.5c-1.291.237-2.291-.096-3-1 1.447-1.385 2.447-1.052 3 1z"/><path style="opacity:1" fill="#779ed1" d="m124.5 159.5-1 4v1c-.597.235-.93.735-1 1.5 1.207 1.3 1.874 2.8 2 4.5h-3a592.183 592.183 0 0 0-8-3c-.111-.617-.444-1.117-1-1.5 3.713-1.163 3.713-2.663 0-4.5 1.189-.929 2.522-1.262 4-1 1.116 3.148 2.449 3.482 4 1 1.171-.845 2.505-1.511 4-2z"/><path style="opacity:1" fill="#1f344d" d="M178.5 165.5c-.111.617-.444 1.117-1 1.5a66.227 66.227 0 0 1-11 2.5c-1.025-.397-1.192-1.063-.5-2a15.256 15.256 0 0 1 4.5-1.5l-2-1c1.651-1.63 3.317-1.463 5 .5 1.854-1.006 3.521-1.006 5 0z"/><path style="opacity:1" fill="#3b506a" d="M212.5 148.5a347.15 347.15 0 0 0-4 16 6.846 6.846 0 0 1 4 1c1.306-1.412 2.14-3.079 2.5-5 .688 4.814-.812 8.814-4.5 12-3.981-1.135-7.981-3.135-12-6l-1 1a514.367 514.367 0 0 0 4 3c.215 1.679-.452 2.679-2 3 .215-1.679-.452-2.679-2-3-2.36-1.365-4.027-3.365-5-6 .997.03 1.664-.47 2-1.5-1.047-1.578-1.047-3.078 0-4.5a34.198 34.198 0 0 0 3 6.5c1.303.21 2.636.043 4-.5a7.293 7.293 0 0 1 3 2c.74-3.366 1.407-6.7 2-10a46.052 46.052 0 0 0 1.5-8l1 4c.416-2.05 1.583-3.384 3.5-4z"/><path style="opacity:1" fill="#9fabbd" d="M219.5 164.5c1.125 1.152 1.125 2.152 0 3-2.667-1-2.667-2 0-3z"/><path style="opacity:1" fill="#6081a8" d="M116.5 160.5c-1.478-.262-2.811.071-4 1 3.713 1.837 3.713 3.337 0 4.5.556.383.889.883 1 1.5-2.112.775-4.112.775-6 0 .418-.722 1.084-1.222 2-1.5-1.73-1.852-2.896-1.686-3.5.5a45.296 45.296 0 0 1 .5-7c2.327.253 4.327-.414 6-2a173.55 173.55 0 0 1 4 3z"/><path style="opacity:1" fill="#6a85a2" d="M189.5 161.5a6.547 6.547 0 0 0 3 3c.973 2.635 2.64 4.635 5 6-3.099.408-5.433-.759-7-3.5a24.935 24.935 0 0 0-7-.5v-3c1.208.734 2.541 1.067 4 1-.215-1.679.452-2.679 2-3z"/><path style="opacity:1" fill="#384b67" d="M107.5 167.5c1.888.775 3.888.775 6 0a592.183 592.183 0 0 1 8 3v1c-4.272-1.411-6.272.256-6 5h-4v3c-1.322.17-2.489-.163-3.5-1-.417 1.256-1.25 1.923-2.5 2-.282-1.278-.949-2.278-2-3 1-.333 1.667-1 2-2 2.181-.414 4.515-.581 7-.5 1.231-1.183 1.231-2.349 0-3.5-2.276.702-4.609.535-7-.5l3-1c-.752-.671-1.086-1.504-1-2.5z"/><path style="opacity:1" fill="#0b1824" d="m137.5 169.5-2 1c-2.9.22-5.567-.446-8-2 3.622-1.159 7.289-1.325 11-.5-.556.383-.889.883-1 1.5z"/><path style="opacity:1" fill="#5e7b9e" d="M123.5 164.5c1.439 5.776 5.105 8.443 11 8l-5 2c-8.314-3.157-9.314-1.323-3 5.5.949.617 1.782.451 2.5-.5.483.948.649 1.948.5 3-2.706-.188-5.039-1.188-7-3l-1-8v-1h3c-.126-1.7-.793-3.2-2-4.5.07-.765.403-1.265 1-1.5z"/><path style="opacity:1" fill="#7a9fc7" d="M146.5 174.5h-5c-1.816 1.941-3.816 2.608-6 2-1.49-1.78-3.49-2.446-6-2l5-2 1-2 2-1c2.467-.255 4.467-1.255 6-3 3.087-.043 6.087-.21 9-.5a84.193 84.193 0 0 0-13 7c2.536.186 4.869.686 7 1.5z"/><path style="opacity:1" fill="#405d83" d="M157.5 159.5h4a24.362 24.362 0 0 1-1.5 10 37.138 37.138 0 0 1-4.5 2c-.798.457-1.131 1.124-1 2-1.56.019-3.06.352-4.5 1-.945-.405-1.612-1.072-2-2-.278.916-.778 1.582-1.5 2-2.131-.814-4.464-1.314-7-1.5a84.193 84.193 0 0 1 13-7c-2.913.29-5.913.457-9 .5-1.403-1.431-3.069-2.598-5-3.5a24.935 24.935 0 0 1 7-.5c-.219 1.175.114 2.175 1 3a29.356 29.356 0 0 1 9-2 45.296 45.296 0 0 0-.5 7c2.666-1.889 4.166-4.056 4.5-6.5a4.934 4.934 0 0 0-3-.5c-.067-1.459.266-2.792 1-4z"/><path style="opacity:1" fill="#6285aa" d="M161.5 159.5h2c.29 2.956.29 6.123 0 9.5.336 1.03 1.003 1.53 2 1.5a19.348 19.348 0 0 0-5 3c.03-.997-.47-1.664-1.5-2a27.648 27.648 0 0 0-4.5 2c-.131-.876.202-1.543 1-2a37.138 37.138 0 0 0 4.5-2 24.362 24.362 0 0 0 1.5-10z"/><path style="opacity:1" fill="#95bdd4" d="M183.5 162.5v4c-2.792.122-4.792 1.456-6 4a22.836 22.836 0 0 1-4 3 58.53 58.53 0 0 1-3-2c-1.671.168-3.004.835-4 2-2.549-.113-4.882.554-7 2-.9-.857-.566-1.524 1-2a19.348 19.348 0 0 1 5-3c.667 0 1-.333 1-1a66.227 66.227 0 0 0 11-2.5c.556-.383.889-.883 1-1.5.667 0 1-.333 1-1 1.105-1.1 2.438-1.767 4-2z"/><path style="opacity:1" fill="#1a273f" d="M107.5 167.5c-.086.996.248 1.829 1 2.5l-3 1c2.391 1.035 4.724 1.202 7 .5 1.231 1.151 1.231 2.317 0 3.5-2.485-.081-4.819.086-7 .5-.978-.311-1.645-.978-2-2 1.333-1 1.333-2 0-3 .967-1.484 2.3-2.484 4-3z"/><path style="opacity:1" fill="#141f30" d="m121.5 171.5 1 8c-.399 4.556 1.601 7.222 6 8-.652 1.225-1.819 1.892-3.5 2a36.39 36.39 0 0 1-5.5-1c-.453-.958-1.119-1.792-2-2.5a101.453 101.453 0 0 1-10.5-4.5c-.399.228-.565.562-.5 1-.838-.342-1.172-1.008-1-2 1.25-.077 2.083-.744 2.5-2 1.011.837 2.178 1.17 3.5 1v-3h4c-.272-4.744 1.728-6.411 6-5z"/><path style="opacity:1" fill="#637d9c" d="m210.5 172.5 3 4v2c-1.324-2.154-3.157-3.821-5.5-5-.945.405-1.612 1.072-2 2a32.864 32.864 0 0 0-4.5-5 514.367 514.367 0 0 1-4-3l1-1c4.019 2.865 8.019 4.865 12 6z"/><path style="opacity:1" fill="#2b3e59" d="M173.5 173.5c2.512-.077 4.512.923 6 3-3.838.441-7.172 1.774-10 4-1.052-1.756-2.719-2.423-5-2a16.339 16.339 0 0 1 2-5c.996-1.165 2.329-1.832 4-2a58.53 58.53 0 0 0 3 2z"/><path style="opacity:1" fill="#0d0f17" d="M235.5 188.5a1051.683 1051.683 0 0 0-4-12.5c.235-.873.569-1.707 1-2.5-2.544-2.111-2.544-4.278 0-6.5-1.242-3.357-2.076-3.19-2.5.5-1.208-1.979-2.041-4.145-2.5-6.5 1.312-3.244.645-6.077-2-8.5 2.02-4.343 5.02-5.176 9-2.5.862 2.734 1.695 2.901 2.5.5.32 3.04.32 6.04 0 9a72.786 72.786 0 0 0 3-19c.278-.916.778-1.582 1.5-2-.175 4.041-.342 8.041-.5 12a27.221 27.221 0 0 0 10.5 3 247.822 247.822 0 0 1-3.5-26 247.524 247.524 0 0 1 5.5 28 34.404 34.404 0 0 1-3 11c1.789 1.123 2.122 2.456 1 4a3.647 3.647 0 0 1-1.5-1c-.603-3.156-.103-6.156 1.5-9l-2-1a56.978 56.978 0 0 0-13 7c-.42 7.446-.753 14.78-1 22z"/><path style="opacity:1" fill="#22334e" d="M154.5 173.5c.086.996-.248 1.829-1 2.5a8.43 8.43 0 0 0 4 .5v4a8.43 8.43 0 0 0-4 .5c4.248.969 4.581 1.802 1 2.5-1.874.11-3.374-.556-4.5-2a4.934 4.934 0 0 0-.5 3h-1c-1.414-1.554-3.081-2.888-5-4a199.63 199.63 0 0 0 3-6c.722-.418 1.222-1.084 1.5-2 .388.928 1.055 1.595 2 2 1.44-.648 2.94-.981 4.5-1z"/><path style="opacity:1" fill="#0f1622" d="M183.5 166.5c2.357-.163 4.69.003 7 .5 1.567 2.741 3.901 3.908 7 3.5 1.548.321 2.215 1.321 2 3-.453.958-1.119 1.792-2 2.5-2.441.036-4.441.869-6 2.5 1.507 1.239 2.674.905 3.5-1a52.56 52.56 0 0 1 1.5 7 6.846 6.846 0 0 1-4-1c-1.624-3.982-4.624-5.648-9-5v-2c-3.022-1.022-5.022-3.022-6-6 1.208-2.544 3.208-3.878 6-4z"/><path style="opacity:1" fill="#384963" d="M183.5 176.5c1.098-.897 1.098-1.73 0-2.5 1.921-.36 3.588-1.194 5-2.5a20.035 20.035 0 0 0 6 3 144.189 144.189 0 0 1-11 2z"/><path style="opacity:1" fill="#334a6a" d="M141.5 174.5h5a199.63 199.63 0 0 1-3 6c1.919 1.112 3.586 2.446 5 4-.803.923-.97 1.923-.5 3 4.369-.694 4.536.473.5 3.5-4.196 1.051-7.863.217-11-2.5-.17-1.322.163-2.489 1-3.5 7.72-1.394 7.386-2.228-1-2.5-.303-3.088 1.03-4.754 4-5v-3z"/><path style="opacity:1" fill="#0b1929" d="M162.5 178.5h2c2.281-.423 3.948.244 5 2-2.677 1.114-5.344 1.114-8 0 .363-.683.696-1.35 1-2z"/><path style="opacity:1" fill="#7d8693" d="M116.5 179.5c1.837.139 2.17.806 1 2-.798-.457-1.131-1.124-1-2z"/><path style="opacity:1" fill="#717378" d="M247.5 179.5c1.837.139 2.17.806 1 2-.798-.457-1.131-1.124-1-2z"/><path style="opacity:1" fill="#2b405a" d="M162.5 178.5c-.304.65-.637 1.317-1 2 2.656 1.114 5.323 1.114 8 0 .763.768 1.763 1.268 3 1.5-2.363.589-3.363 2.089-3 4.5a13.139 13.139 0 0 0-6 2 10.014 10.014 0 0 1-3-1v-3c1.808.009 3.475-.491 5-1.5-1.881.096-3.547-.071-5-.5-.343-1.983.324-3.317 2-4z"/><path style="opacity:1" fill="#23334b" d="M129.5 174.5c2.51-.446 4.51.22 6 2-1.771 2.654-3.105 5.654-4 9a44.093 44.093 0 0 0-3 2c-4.399-.778-6.399-3.444-6-8 1.961 1.812 4.294 2.812 7 3a4.934 4.934 0 0 0-.5-3c-.718.951-1.551 1.117-2.5.5-6.314-6.823-5.314-8.657 3-5.5z"/><path style="opacity:1" fill="#4f6a89" d="M177.5 170.5c.978 2.978 2.978 4.978 6 6v2l6 9c-3.136-.521-5.47.479-7 3-2.356-1.075-4.689-1.075-7 0 5.044 2.461 9.711 5.127 14 8h-4c-1.872-2.104-4.205-3.437-7-4-2.886-1.379-5.386-3.379-7.5-6-3.446 2.323-7.279 3.657-11.5 4a2.428 2.428 0 0 1-2-.5c5.032-.404 5.699-1.571 2-3.5.667 0 1-.333 1-1 .916.482 1.916.815 3 1a13.139 13.139 0 0 1 6-2c-.363-2.411.637-3.911 3-4.5-1.237-.232-2.237-.732-3-1.5 2.828-2.226 6.162-3.559 10-4-1.488-2.077-3.488-3.077-6-3a22.836 22.836 0 0 0 4-3z"/><path style="opacity:1" fill="#445e7c" d="M160.5 173.5c-1.566.476-1.9 1.143-1 2 2.118-1.446 4.451-2.113 7-2a16.339 16.339 0 0 0-2 5h-2c-1.676.683-2.343 2.017-2 4-3.331 1.798-6.998 2.464-11 2a4.934 4.934 0 0 1 .5-3c1.126 1.444 2.626 2.11 4.5 2 3.581-.698 3.248-1.531-1-2.5a8.43 8.43 0 0 1 4-.5v-4a8.43 8.43 0 0 1-4-.5c.752-.671 1.086-1.504 1-2.5a27.648 27.648 0 0 1 4.5-2c1.03.336 1.53 1.003 1.5 2z"/><path style="opacity:1" fill="#59687a" d="M119.5 188.5a29.417 29.417 0 0 0-7-2c-2.295-.975-4.295-2.308-6-4-.065-.438.101-.772.5-1a101.453 101.453 0 0 0 10.5 4.5c.881.708 1.547 1.542 2 2.5z"/><path style="opacity:1" fill="#577395" d="M141.5 174.5v3c-2.97.246-4.303 1.912-4 5 8.386.272 8.72 1.106 1 2.5-.837 1.011-1.17 2.178-1 3.5a8.43 8.43 0 0 0-4 .5c.752.671 1.086 1.504 1 2.5-2.177-2.561-4.344-2.561-6.5 0-1.356-.88-2.856-1.214-4.5-1-1.88.271-3.213-.396-4-2a36.39 36.39 0 0 0 5.5 1c1.681-.108 2.848-.775 3.5-2a44.093 44.093 0 0 1 3-2c.895-3.346 2.229-6.346 4-9 2.184.608 4.184-.059 6-2z"/><path style="opacity:1" fill="#202f44" d="M201.5 170.5a32.864 32.864 0 0 1 4.5 5c.388-.928 1.055-1.595 2-2 2.343 1.179 4.176 2.846 5.5 5a11.988 11.988 0 0 0 1 6c-1.25 2.549-3.25 3.882-6 4v-4h-3a12.93 12.93 0 0 0-.5-5c-.974 2.378-1.641 2.044-2-1a82.5 82.5 0 0 0-2.5 7.5c-3.062.741-6.062.575-9-.5a31.147 31.147 0 0 1-2 2l-6-9c4.376-.648 7.376 1.018 9 5a6.846 6.846 0 0 0 4 1 52.56 52.56 0 0 0-1.5-7c-.826 1.905-1.993 2.239-3.5 1 1.559-1.631 3.559-2.464 6-2.5.881-.708 1.547-1.542 2-2.5 1.548-.321 2.215-1.321 2-3z"/><path style="opacity:1" fill="#101e2f" d="M215.5 189.5a579.57 579.57 0 0 0-5 6c-.876.131-1.543-.202-2-1 1.211-1.22 1.211-2.387 0-3.5a76.716 76.716 0 0 0 6-3.5c.798.457 1.131 1.124 1 2z"/><path style="opacity:1" fill="#b5bccb" d="M228.5 190.5v2c-4-.667-4-1.333 0-2z"/><path style="opacity:1" fill="#33486b" d="M134.5 191.5c.971 1.462.638 2.795-1 4-3.07-2.021-6.403-2.355-10-1v-4c1.644-.214 3.144.12 4.5 1 2.156-2.561 4.323-2.561 6.5 0z"/><path style="opacity:1" fill="#3e5573" d="m217.5 186.5-2 3c.131-.876-.202-1.543-1-2a76.716 76.716 0 0 1-6 3.5c1.211 1.113 1.211 2.28 0 3.5.457.798 1.124 1.131 2 1-.755 1.966-1.921 2.3-3.5 1l-1 2a78.993 78.993 0 0 1-6.5-3c-2.629-.629-4.296-2.295-5-5a4.457 4.457 0 0 0-1.5 2c-1.669-1.346-2.836-3.013-3.5-5a31.147 31.147 0 0 0 2-2c2.938 1.075 5.938 1.241 9 .5a82.5 82.5 0 0 1 2.5-7.5c.359 3.044 1.026 3.378 2 1a12.93 12.93 0 0 1 .5 5h3v4c2.75-.118 4.75-1.451 6-4a11.988 11.988 0 0 1-1-6v-2c1.705 2.787 2.872 2.454 3.5-1a78.289 78.289 0 0 0 .5 11z"/><path style="opacity:1" fill="#304865" d="M182.5 190.5a42.47 42.47 0 0 1 5 1.5 82.358 82.358 0 0 0 10 6.5l2 5a31.283 31.283 0 0 1-5-2 3.647 3.647 0 0 1 1-1.5c-2.208-.191-4.208-.691-6-1.5-4.289-2.873-8.956-5.539-14-8 2.311-1.075 4.644-1.075 7 0z"/><path style="opacity:1" fill="#6884a9" d="M160.5 182.5c1.453.429 3.119.596 5 .5-1.525 1.009-3.192 1.509-5 1.5v3c0 .667-.333 1-1 1-.311-.978-.978-1.645-2-2a6.846 6.846 0 0 1-4 1c.117 1.984-.55 3.65-2 5a89.957 89.957 0 0 0-9 3.5c.566.995 1.233 1.828 2 2.5.79.901 1.79 1.568 3 2a51.22 51.22 0 0 1 4 2.5c-1.172.353-2.338.187-3.5-.5-1.011.556-1.844 1.222-2.5 2-2.141-2.972-4.808-5.472-8-7.5-.937-.692-1.603-.525-2 .5-1-.333-1.667-1-2-2 1.638-1.205 1.971-2.538 1-4 .086-.996-.248-1.829-1-2.5a8.43 8.43 0 0 1 4-.5c3.137 2.717 6.804 3.551 11 2.5 4.036-3.027 3.869-4.194-.5-3.5-.47-1.077-.303-2.077.5-3h1c4.002.464 7.669-.202 11-2z"/><path style="opacity:1" fill="#81a8cd" d="M189.5 187.5c.664 1.987 1.831 3.654 3.5 5a4.457 4.457 0 0 1 1.5-2c.704 2.705 2.371 4.371 5 5-.282 1.278-.949 2.278-2 3a82.358 82.358 0 0 1-10-6.5 42.47 42.47 0 0 0-5-1.5c1.53-2.521 3.864-3.521 7-3z"/><path style="opacity:1" fill="#111f35" d="M147.5 200.5c-1.21-.432-2.21-1.099-3-2 1.051-3.708 2.384-3.541 4 .5-.07.765-.403 1.265-1 1.5z"/><path style="opacity:1" fill="#0d1527" d="M156.5 193.5c.295 2.235-.039 4.235-1 6-1.325-1.453-2.158-1.119-2.5 1-2.148-1.305-3.648-3.138-4.5-5.5a4.934 4.934 0 0 1 3-.5c-.219 1.175.114 2.175 1 3 1.231-1.151 1.231-2.317 0-3.5a8.43 8.43 0 0 1 4-.5z"/><path style="opacity:1" fill="#243350" d="M145.5 204.5a5.727 5.727 0 0 0 1 3c-4.229-2.556-7.896-5.889-11-10 .397-1.025 1.063-1.192 2-.5 3.192 2.028 5.859 4.528 8 7.5z"/><path style="opacity:1" fill="#6e85a0" d="M224.5 164.5c.304.65.637 1.317 1 2a84.05 84.05 0 0 0-4 18c-2.42 3.6-5.086 7.1-8 10.5 1.473.71 2.14 1.876 2 3.5-1.517-.011-2.684-.677-3.5-2l-4.5 4.5c-2.919.54-5.586.207-8-1 3.081 2.814 4.747 6.314 5 10.5v5c-.934-1.068-1.268-2.401-1-4h-3c2.295-2.847 1.961-5.514-1-8l-2-5c1.051-.722 1.718-1.722 2-3a78.993 78.993 0 0 0 6.5 3l1-2c1.579 1.3 2.745.966 3.5-1a579.57 579.57 0 0 1 5-6l2-3c1.421-2.794 2.421-5.794 3-9 1.082-4.06 1.916-8.726 2.5-14 .383.556.883.889 1.5 1z"/><path style="opacity:1" fill="#141927" d="M112.5 186.5a29.417 29.417 0 0 1 7 2c.787 1.604 2.12 2.271 4 2v4c3.597-1.355 6.93-1.021 10 1 .333 1 1 1.667 2 2 3.104 4.111 6.771 7.444 11 10v1c-3.007.934-5.507-.066-7.5-3-4.336 1.771-3.836 2.938 1.5 3.5a7.248 7.248 0 0 1 2 2.5c-3.389.685-6.722 1.018-10 1a66.615 66.615 0 0 1-6-2.5c1.211-.893 1.211-1.726 0-2.5-1.936 2.478-3.936 2.478-6 0-2.651 1.915-2.317 3.415 1 4.5l-1 1c1.558.21 2.891.71 4 1.5-3.476-.006-5.476 1.66-6 5-1.542.641-2.876 1.641-4 3a74.079 74.079 0 0 0 21 .5c1.771-.535 2.104-1.369 1-2.5-3.323-1.485-6.323-3.152-9-5 5.533-.622 11.033.045 16.5 2 4.786 3.088 4.452 4.088-1 3-.698 1.191-1.531 2.191-2.5 3a157.252 157.252 0 0 1-31 3c-.267-11.236.4-22.403 2-33.5l-2-3a124.15 124.15 0 0 0 3-3.5z"/><path style="opacity:1" fill="#9399a0" d="M115.5 189.5c1.837.139 2.17.806 1 2-.798-.457-1.131-1.124-1-2z"/><path style="opacity:1" fill="#070911" d="M178.5 194.5c2.795.563 5.128 1.896 7 4v3c-3.316.997-6.649 1.997-10 3-3.134-.756-5.634-2.422-7.5-5-1.367 1.024-2.2.524-2.5-1.5.07-.765.403-1.265 1-1.5a51.22 51.22 0 0 1 2.5-4c2.826 1.84 5.993 2.506 9.5 2z"/><path style="opacity:1" fill="#7e8080" d="M170.5 197.5c1.837.139 2.17.806 1 2-.798-.457-1.131-1.124-1-2z"/><path style="opacity:1" fill="#808c97" d="M221.5 201.5c2.667.667 2.667 1.333 0 2v-2z"/><path style="opacity:1" fill="#425673" d="M159.5 188.5c3.699 1.929 3.032 3.096-2 3.5a2.428 2.428 0 0 0 2 .5c-.709.904-1.709 1.237-3 1a8.43 8.43 0 0 0-4 .5c1.231 1.183 1.231 2.349 0 3.5-.886-.825-1.219-1.825-1-3a4.934 4.934 0 0 0-3 .5c.852 2.362 2.352 4.195 4.5 5.5.342-2.119 1.175-2.453 2.5-1a55.403 55.403 0 0 1 4 5.5l-5 1a2.428 2.428 0 0 0 2 .5 5.727 5.727 0 0 0-1 3 14.698 14.698 0 0 1-3.5-3c-.789 3.591-.622 7.091.5 10.5a167.912 167.912 0 0 0-2 7.5c8.371.836 8.704 1.836 1 3-.809 1.792-1.309 3.792-1.5 6-1.039-.744-1.539-1.744-1.5-3v-2c.17-1.322-.163-2.489-1-3.5a62.065 62.065 0 0 0 1.5-10.5c.654 1.196 1.154 1.196 1.5 0-.825-.886-1.825-1.219-3-1 .284-1.915-.049-3.581-1-5v-1a5.727 5.727 0 0 1-1-3c.656-.778 1.489-1.444 2.5-2 1.162.687 2.328.853 3.5.5a51.22 51.22 0 0 0-4-2.5c.597-.235.93-.735 1-1.5-1.616-4.041-2.949-4.208-4-.5-.767-.672-1.434-1.505-2-2.5a89.957 89.957 0 0 1 9-3.5c1.45-1.35 2.117-3.016 2-5a6.846 6.846 0 0 0 4-1c1.022.355 1.689 1.022 2 2z"/><path style="opacity:1" fill="#0e1727" d="M166.5 196.5c-.597.235-.93.735-1 1.5.3 2.024 1.133 2.524 2.5 1.5 1.866 2.578 4.366 4.244 7.5 5 3.351-1.003 6.684-2.003 10-3-1.564 3.955-4.564 5.622-9 5l-5-.5c-2.687-1.049-5.02-2.549-7-4.5a104.618 104.618 0 0 0-1-9h3v4z"/><path style="opacity:1" fill="#9ca7ad" d="M221.5 204.5c1.257 1.123.924 1.789-1 2-.172-.992.162-1.658 1-2z"/><path style="opacity:1" fill="#2c3b51" d="M199.5 203.5c2.961 2.486 3.295 5.153 1 8v1c-.806-1.368-1.806-2.701-3-4 1.505-1.342 2.172-3.008 2-5z"/><path style="opacity:1" fill="#1f2d47" d="M178.5 194.5c-3.507.506-6.674-.16-9.5-2a51.22 51.22 0 0 0-2.5 4v-4h-3c.463 2.982.796 5.982 1 9-.934-1.068-1.268-2.401-1-4h-3c.433 2.666.933 5.332 1.5 8a4.457 4.457 0 0 1 1.5-2c.929 1.189 1.262 2.522 1 4h3l1 6c-4.823.173-6.823-2.161-6-7h-6a2.428 2.428 0 0 1-2-.5l5-1a55.403 55.403 0 0 0-4-5.5c.961-1.765 1.295-3.765 1-6 1.291.237 2.291-.096 3-1 4.221-.343 8.054-1.677 11.5-4 2.114 2.621 4.614 4.621 7.5 6z"/><path style="opacity:1" fill="#151a2b" d="M185.5 198.5h4c1.792.809 3.792 1.309 6 1.5a3.647 3.647 0 0 0-1 1.5 31.283 31.283 0 0 0 5 2c.172 1.992-.495 3.658-2 5 1.194 1.299 2.194 2.632 3 4 2.21.955 2.543 2.455 1 4.5-2.174.877-3.841.377-5-1.5a64.37 64.37 0 0 0-13-5c1.803-2.21 3.136-4.71 4-7.5-.336-1.03-1.003-1.53-2-1.5v-3z"/><path style="opacity:1" fill="#828c96" d="M187.5 206.5c1.725.343 2.225 1.343 1.5 3-1.039-.744-1.539-1.744-1.5-3z"/><path style="opacity:1" fill="#445c7d" d="M164.5 201.5c1.98 1.951 4.313 3.451 7 4.5l5 .5c4.436.622 7.436-1.045 9-5 .997-.03 1.664.47 2 1.5-.864 2.79-2.197 5.29-4 7.5-1.966.755-2.3 1.921-1 3.5a80.654 80.654 0 0 1 9.5 3.5 9.175 9.175 0 0 1 4.5-2c1.159 1.877 2.826 2.377 5 1.5 1.543-2.045 1.21-3.545-1-4.5v-1h3c-.268 1.599.066 2.932 1 4-.667 2.667-2.333 4.333-5 5-3.854-1.475-7.854-1.975-12-1.5-3.746-1.2-6.746-3.366-9-6.5-3.346.324-6.68.657-10 1l-1-6h-3c.262-1.478-.071-2.811-1-4a4.457 4.457 0 0 0-1.5 2 168.167 168.167 0 0 1-1.5-8h3c-.268 1.599.066 2.932 1 4z"/><path style="opacity:1" fill="#0d1019" d="M221.5 201.5v3c-.838.342-1.172 1.008-1 2 1.068.934 2.401 1.268 4 1v9c-1.624-.14-2.79.527-3.5 2a101.245 101.245 0 0 0-7.5-9 514.367 514.367 0 0 1-4-3c-.886.825-1.219 1.825-1 3-.959 4.587-2.293 4.921-4 1-.253-4.186-1.919-7.686-5-10.5 2.414 1.207 5.081 1.54 8 1l4.5-4.5c.816 1.323 1.983 1.989 3.5 2 .598-3.215 1.932-6.215 4-9 1.189-.929 2.522-1.262 4-1v5h-3c-.086 2.177-.753 4.177-2 6a44.093 44.093 0 0 1 3 2z"/><path style="opacity:1" fill="#5d667f" d="M213.5 209.5c.131.876-.202 1.543-1 2-1.024-1.353-2.357-2.02-4-2-.219-1.175.114-2.175 1-3a514.367 514.367 0 0 0 4 3z"/><path style="opacity:1" fill="#1c2436" d="M221.5 184.5c.321 1.548 1.321 2.215 3 2v3c1.599-.268 2.932.066 4 1-4 .667-4 1.333 0 2 .221 2.567.888 4.901 2 7a19.51 19.51 0 0 1 7 3.5c-2.283.291-4.45-.209-6.5-1.5-.945.405-1.612 1.072-2 2-1.011-.837-2.178-1.17-3.5-1v8h4c.237 1.291-.096 2.291-1 3 .237 1.291-.096 2.291-1 3-1.249 1.636-2.916 2.803-5 3.5.457.414.791.914 1 1.5-1.697.864-2.863 2.197-3.5 4-.368-1.41-1.201-2.41-2.5-3a20.2 20.2 0 0 0-1.5 6c-.417 1.256-1.25 1.923-2.5 2-.531-5.322-2.197-10.155-5-14.5a8.43 8.43 0 0 0-4-.5v-5c1.707 3.921 3.041 3.587 4-1 1.643-.02 2.976.647 4 2 .798-.457 1.131-1.124 1-2 2.636 2.81 5.136 5.81 7.5 9 .71-1.473 1.876-2.14 3.5-2v-9c-1.599.268-2.932-.066-4-1 1.924-.211 2.257-.877 1-2v-1c2.667-.667 2.667-1.333 0-2a44.093 44.093 0 0 0-3-2c1.247-1.823 1.914-3.823 2-6h3v-5c-1.478-.262-2.811.071-4 1-2.068 2.785-3.402 5.785-4 9 .14-1.624-.527-2.79-2-3.5 2.914-3.4 5.58-6.9 8-10.5z"/><path style="opacity:1" fill="#b5bbc3" d="M228.5 213.5c-1.837-.139-2.17-.806-1-2 .798.457 1.131 1.124 1 2z"/><path style="opacity:1" fill="#6d88ae" d="M156.5 206.5h6c-.823 4.839 1.177 7.173 6 7 3.32-.343 6.654-.676 10-1 2.254 3.134 5.254 5.3 9 6.5 4.146-.475 8.146.025 12 1.5-1.333 0-2 .667-2 2-.06.543-.393.876-1 1a30.29 30.29 0 0 0-12-4c-3.466-1.592-7.133-2.258-11-2-1.685-2.318-4.019-3.318-7-3h-3a29.555 29.555 0 0 1-5-3l-3-2a5.727 5.727 0 0 1 1-3z"/><path style="opacity:1" fill="#202b42" d="M146.5 208.5c.951 1.419 1.284 3.085 1 5 1.175-.219 2.175.114 3 1-.346 1.196-.846 1.196-1.5 0a62.065 62.065 0 0 1-1.5 10.5c.837 1.011 1.17 2.178 1 3.5-2.584-.548-3.584-2.215-3-5h-5c.969-.809 1.802-1.809 2.5-3 5.452 1.088 5.786.088 1-3-5.467-1.955-10.967-2.622-16.5-2a5.727 5.727 0 0 0-3-1c-1.109-.79-2.442-1.29-4-1.5l1-1c-3.317-1.085-3.651-2.585-1-4.5 2.064 2.478 4.064 2.478 6 0 1.211.774 1.211 1.607 0 2.5a66.615 66.615 0 0 0 6 2.5c3.278.018 6.611-.315 10-1a7.248 7.248 0 0 0-2-2.5c-5.336-.562-5.836-1.729-1.5-3.5 1.993 2.934 4.493 3.934 7.5 3z"/><path style="opacity:1" fill="#222f50" d="M183.5 210.5a64.37 64.37 0 0 1 13 5 9.175 9.175 0 0 0-4.5 2 80.654 80.654 0 0 0-9.5-3.5c-1.3-1.579-.966-2.745 1-3.5z"/><path style="opacity:1" fill="#7d848e" d="M227.5 216.5c-1.837-.139-2.17-.806-1-2 .798.457 1.131 1.124 1 2z"/><path style="opacity:1" fill="#030207" d="M124.5 214.5a5.727 5.727 0 0 1 3 1c2.677 1.848 5.677 3.515 9 5 1.104 1.131.771 1.965-1 2.5a74.079 74.079 0 0 1-21-.5c1.124-1.359 2.458-2.359 4-3 .524-3.34 2.524-5.006 6-5z"/><path style="opacity:1" fill="#94969e" d="M118.5 219.5h-3v-3h3v3z"/><path style="opacity:1" fill="#3e4d68" d="M158.5 211.5a29.555 29.555 0 0 0 5 3c.172.992-.162 1.658-1 2 .683 1.676 2.017 2.343 4 2-1.513 1.01-3.847 1.343-7 1v4a66.23 66.23 0 0 0 10-1.5 31.236 31.236 0 0 1-10 3.5 13.116 13.116 0 0 1-1-7 8.43 8.43 0 0 1-4-.5 22.162 22.162 0 0 0 4-6.5z"/><path style="opacity:1" fill="#202b45" d="m155.5 209.5 3 2a22.162 22.162 0 0 1-4 6.5 8.43 8.43 0 0 0 4 .5 13.116 13.116 0 0 0 1 7 31.236 31.236 0 0 0 10-3.5 66.23 66.23 0 0 1-10 1.5v-4c3.153.343 5.487.01 7-1 1.333-1.333 1.333-2.667 0-4 2.981-.318 5.315.682 7 3a2.428 2.428 0 0 0-2 .5c1.063 1.188 2.397 1.688 4 1.5v3c-1.788-.285-3.455.048-5 1a52.141 52.141 0 0 0 10 1.5c-2.937.1-5.604.933-8 2.5a46.755 46.755 0 0 0-13-1c-.134 1.792.199 3.458 1 5-1.877.4-3.377 1.4-4.5 3l-1.5-.5a7.248 7.248 0 0 0 2-2.5 23.72 23.72 0 0 0-5-4c7.704-1.164 7.371-2.164-1-3a167.912 167.912 0 0 1 2-7.5c-1.122-3.409-1.289-6.909-.5-10.5a14.698 14.698 0 0 0 3.5 3z"/><path style="opacity:1" fill="#0e1320" d="M163.5 214.5h3c1.333 1.333 1.333 2.667 0 4-1.983.343-3.317-.324-4-2 .838-.342 1.172-1.008 1-2z"/><path style="opacity:1" fill="#b8ccd6" d="M162.5 216.5c-1.837-.139-2.17-.806-1-2 .798.457 1.131 1.124 1 2z"/><path style="opacity:1" fill="#12182b" d="M204.5 215.5a8.43 8.43 0 0 1 4 .5c2.803 4.345 4.469 9.178 5 14.5l-2 2a17.423 17.423 0 0 0-3.5-6c-2.333-.913-4.166-2.413-5.5-4.5-1.697-.384-3.363-.218-5 .5 0-1.333.667-2 2-2 2.667-.667 4.333-2.333 5-5z"/><path style="opacity:1" fill="#0a0d15" d="m102.5 173.5 1 4c1.051.722 1.718 1.722 2 3-.172.992.162 1.658 1 2 1.705 1.692 3.705 3.025 6 4a124.15 124.15 0 0 1-3 3.5l2 3a200.898 200.898 0 0 0-2 33.5 157.252 157.252 0 0 0 31-3h5c-.584 2.785.416 4.452 3 5v2a19.177 19.177 0 0 1-5-2.5l-16-.5c-5.841.047-11.508.714-17 2a25.513 25.513 0 0 0-4-4.5c1.141-5.75 1.307-11.584.5-17.5-2.009-3.022-3.176-6.356-3.5-10 1.576-4.203 2.076-8.536 1.5-13a86.641 86.641 0 0 1-6-11c-2.958-2.197-6.125-3.03-9.5-2.5 1.333-.667 1.333-1.333 0-2a216.81 216.81 0 0 1-21-1.5c3.507.193 6.84-.473 10-2 3.645 1.255 7.311 1.255 11 0a205.278 205.278 0 0 0 13 8z"/><path style="opacity:1" fill="#24304b" d="M184.5 219.5a30.29 30.29 0 0 1 12 4c.607-.124.94-.457 1-1 1.637-.718 3.303-.884 5-.5 1.334 2.087 3.167 3.587 5.5 4.5a17.423 17.423 0 0 1 3.5 6c-2.265.842-4.598.509-7-1l-1 1c2.988 2.6 2.654 4.6-1 6-1.992-3.079-4.325-5.746-7-8-.969-.809-1.802-1.809-2.5-3-.417 1.256-1.25 1.923-2.5 2a81.019 81.019 0 0 0-9-4.5c2.177-1.186 3.177-3.019 3-5.5z"/><path style="opacity:1" fill="#131825" d="M173.5 217.5c3.867-.258 7.534.408 11 2 .177 2.481-.823 4.314-3 5.5a81.019 81.019 0 0 1 9 4.5c-.876-.131-1.543.202-2 1a59.503 59.503 0 0 0-3 7 457.13 457.13 0 0 0-19-2.5c-2.525-.424-4.525-1.59-6-3.5-.801-1.542-1.134-3.208-1-5a46.755 46.755 0 0 1 13 1c2.396-1.567 5.063-2.4 8-2.5a52.141 52.141 0 0 1-10-1.5c1.545-.952 3.212-1.285 5-1v-3c-1.603.188-2.937-.312-4-1.5a2.428 2.428 0 0 1 2-.5z"/><path style="opacity:1" fill="#181f2c" d="M195.5 230.5c-.897 1.098-1.73 1.098-2.5 0-.096 3.699.404 7.366 1.5 11l-1 2c-1.547-1.268-2.547-2.935-3-5 1.077-2.974 1.077-5.974 0-9 1.25-.077 2.083-.744 2.5-2 .698 1.191 1.531 2.191 2.5 3z"/></svg>