<svg xmlns="http://www.w3.org/2000/svg" width="200" height="200" style="shape-rendering:geometricPrecision;text-rendering:geometricPrecision;image-rendering:optimizeQuality;fill-rule:evenodd;clip-rule:evenodd"><path style="opacity:.999" fill="#2f2f2f" d="M56.5 31.5c-2.333.333-3.667 1.667-4 4-19.713 21.718-25.213 46.718-16.5 75 11.532 28.693 32.699 44.693 63.5 48-.271-6.699 2.729-8.699 9-6 1.45 1.35 2.117 3.016 2 5 10.35-.781 19.683-4.114 28-10 .617.111 1.117.444 1.5 1 1.627-1.032 2.793-2.366 3.5-4 6.834-4.668 12.501-10.501 17-17.5 5.681-1.3 8.848.866 9.5 6.5-5.697 7.529-12.197 14.196-19.5 20-2.433-.227-4.099.773-5 3-10.832 6.277-22.498 9.944-35 11-.985 4.134-1.318 8.468-1 13h-10v-12c-34.774-2.958-59.274-20.291-73.5-52-11.487-34.037-4.987-64.037 19.5-90 2.333-.333 3.667-1.667 4-4 8.525-6.68 18.025-11.68 28.5-15l4.5 4.5c-.906 1.7-1.24 3.533-1 5.5-9.398 2.863-17.731 7.53-25 14z"/><path style="opacity:.997" fill="#919191" d="M49.5 22.5c-.333 2.333-1.667 3.667-4 4a24.089 24.089 0 0 1-6.5-7c-3.563-3.573-2.896-6.24 2-8a130.926 130.926 0 0 1 8.5 11z"/><path style="opacity:.998" fill="#959494" d="M56.5 31.5a68.499 68.499 0 0 1 7 9c-.282 1.278-.949 2.278-2 3-.432 1.21-1.099 2.21-2 3v-1a41.936 41.936 0 0 1-7-10c.333-2.333 1.667-3.667 4-4z"/><path style="opacity:.408" fill="#2d2823" d="M87.5 48.5c-4.872-5.103-10.872-8.103-18-9-2.725.176-4.392 1.51-5 4h-3c1.051-.722 1.718-1.722 2-3 7.522-2.79 14.522-1.623 21 3.5 1.641 1.129 2.641 2.629 3 4.5z"/><path style="opacity:.148" fill="#090808" d="M87.5 48.5a26.87 26.87 0 0 0 8 3h-8v-3z"/><path style="opacity:.362" fill="#221e1b" d="M59.5 45.5v1a72.046 72.046 0 0 0-1 11c-1.323-4.098-.99-8.098 1-12z"/><path style="opacity:.788" fill="#3f3932" d="M97.5 52.5v-1c4.233.039 8.233.705 12 2a73.248 73.248 0 0 1-12-1z"/><path style="opacity:1" fill="#92816a" d="M87.5 51.5h10v1c-4.87-.468-9.536.198-14 2-1.196-.346-1.196-.846 0-1.5a10.123 10.123 0 0 1 4-1.5z"/><path style="opacity:.549" fill="#211f1d" d="M109.5 53.5c2.053-.098 3.72.569 5 2-2.053.098-3.72-.569-5-2z"/><path style="opacity:.039" fill="#1a1917" d="M118.5 57.5c1.527-.073 2.527.594 3 2-1.527.073-2.527-.594-3-2z"/><path style="opacity:.02" fill="#23201d" d="M121.5 59.5c2.249.58 3.915 1.913 5 4-2.249-.58-3.915-1.913-5-4z"/><path style="opacity:1" fill="#fad9ad" d="M87.5 48.5v3a10.123 10.123 0 0 0-4 1.5c-1.196.654-1.196 1.154 0 1.5 4.464-1.802 9.13-2.468 14-2 3.966.662 7.966.995 12 1 1.28 1.431 2.947 2.098 5 2 1.653.16 2.986.826 4 2 .473 1.406 1.473 2.073 3 2 1.085 2.087 2.751 3.42 5 4a119.66 119.66 0 0 0 13 13c-.073 1.527.594 2.527 2 3a40.85 40.85 0 0 1 2 12 5.727 5.727 0 0 1-1 3c-1 .333-1.667 1-2 2a120.447 120.447 0 0 1-23.5 4c-5.265.422-9.598-1.244-13-5 .9 2.078 1.4 4.411 1.5 7-.337 2.676-.67 5.343-1 8-1.846 3.04-3.179 6.373-4 10-1.174 1.014-1.84 2.347-2 4a1205.948 1205.948 0 0 0-6 8 34.163 34.163 0 0 1-10-1c-1.41-2.414-3.41-4.081-6-5a26.162 26.162 0 0 0-5-7c-1.841-2.349-3.174-5.015-4-8-1.096-4.632-2.763-8.966-5-13 .001-8.017.334-16.017 1-24-.268-1.599.066-2.932 1-4 1.073-.75 1.24-1.75.5-3-2.95-2.92-5.117-6.254-6.5-10a72.046 72.046 0 0 1 1-11c.901-.79 1.568-1.79 2-3h3c.608-2.49 2.275-3.824 5-4 7.128.897 13.128 3.897 18 9z"/><path style="opacity:1" fill="#9b886e" d="M77.5 61.5c-3.495-.21-6.495.623-9 2.5a20.899 20.899 0 0 1 8-5.5c.886.825 1.219 1.825 1 3z"/><path style="opacity:1" fill="#8b7963" d="M64.5 43.5c2.257 1.062 3.423 2.728 3.5 5-1.802-1.29-2.969-2.956-3.5-5z"/><path style="opacity:.71" fill="#342e28" d="M58.5 57.5c1.383 3.746 3.55 7.08 6.5 10 .74 1.25.573 2.25-.5 3a88.252 88.252 0 0 1-5.5-9 8.434 8.434 0 0 1-.5-4z"/><path style="opacity:1" fill="#99866c" d="M77.5 61.5c2.257 1.062 3.423 2.728 3.5 5-1.802-1.29-2.969-2.956-3.5-5z"/><path style="opacity:.004" fill="#2f2b26" d="M126.5 63.5c5.355 3.355 9.688 7.688 13 13a119.66 119.66 0 0 1-13-13z"/><path style="opacity:1" fill="#9e8a6f" d="M87.5 74.5c2.257 1.062 3.423 2.728 3.5 5-1.802-1.29-2.969-2.956-3.5-5z"/><path style="opacity:.463" fill="#1d1b19" d="M139.5 76.5c1.406.473 2.073 1.473 2 3-1.406-.473-2.073-1.473-2-3z"/><path style="opacity:.969" fill="#50483d" d="M141.5 79.5c2.614 3.468 3.614 7.468 3 12h-1a40.85 40.85 0 0 0-2-12z"/><path style="opacity:.905" fill="#403930" d="M63.5 74.5a289.276 289.276 0 0 0-1 24c-.665-2.814-.998-5.814-1-9-.108-5.245.558-10.245 2-15z"/><path style="opacity:1" fill="#fbc18e" d="M142.5 94.5c2.955-.676 5.122.657 6.5 4 .849 5.839.183 11.505-2 17a40.204 40.204 0 0 0-6 11 63.707 63.707 0 0 0-6.5 7c-1.21.432-2.21 1.099-3 2-1.73.526-3.064 1.526-4 3a114.485 114.485 0 0 1-24 5c-2.719-1.413-5.719-2.08-9-2-2.205-1.863-3.539-4.197-4-7 1-.333 1.667-1 2-2 2.012-2.705 4.012-5.372 6-8a42.992 42.992 0 0 0 10-1c3-1 5-3 6-6 .891-.761 1.558-1.761 2-3 2.245-.708 4.245-1.708 6-3 7.246-.659 10.246-4.659 9-12 3.416-.028 6.416-1.028 9-3 .333-1 1-1.667 2-2z"/><path style="opacity:.122" fill="#201d1a" d="M62.5 98.5c2.237 4.034 3.904 8.368 5 13-2.635-3.895-4.301-8.228-5-13z"/><path style="opacity:1" fill="#fac08d" d="M122.5 111.5h-7l-1 6a25.658 25.658 0 0 0-6 6 18.453 18.453 0 0 1-6-.5c-1.256-.417-1.923-1.25-2-2.5.821-3.627 2.154-6.96 4-10a175.304 175.304 0 0 1 4-10 67.29 67.29 0 0 0 21 0 24.935 24.935 0 0 1-.5 7 59.803 59.803 0 0 0-6.5 4z"/><path style="opacity:1" fill="#9c8065" d="M140.5 96.5c-2.584 1.972-5.584 2.972-9 3 1.246 7.341-1.754 11.341-9 12a59.803 59.803 0 0 1 6.5-4c.497-2.31.663-4.643.5-7a67.29 67.29 0 0 1-21 0 175.304 175.304 0 0 0-4 10c.33-2.657.663-5.324 1-8-.1-2.589-.6-4.922-1.5-7 3.402 3.756 7.735 5.422 13 5 7.987-.56 15.82-1.893 23.5-4z"/><path style="opacity:1" fill="#a48264" d="M122.5 111.5c-1.755 1.292-3.755 2.292-6 3-.442 1.239-1.109 2.239-2 3l1-6h7z"/><path style="opacity:.184" fill="#221e1a" d="M143.5 91.5h1c2.244 1.43 4.077 3.43 5.5 6a42.479 42.479 0 0 1 0 13 117.669 117.669 0 0 1-8 17 54.53 54.53 0 0 1-6.5 6h-1a63.707 63.707 0 0 1 6.5-7 40.204 40.204 0 0 1 6-11c2.183-5.495 2.849-11.161 2-17-1.378-3.343-3.545-4.676-6.5-4a5.727 5.727 0 0 0 1-3z"/><path style="opacity:1" fill="#93765c" d="M114.5 117.5c-1 3-3 5-6 6a25.658 25.658 0 0 1 6-6z"/><path style="opacity:.035" fill="#24211d" d="M71.5 119.5a26.162 26.162 0 0 1 5 7c-2.823-1.492-4.49-3.826-5-7z"/><path style="opacity:1" fill="#7d6651" d="M100.5 120.5c.077 1.25.744 2.083 2 2.5 1.973.495 3.973.662 6 .5a42.992 42.992 0 0 1-10 1c.16-1.653.826-2.986 2-4z"/><path style="opacity:.773" fill="#39332c" d="M76.5 126.5c2.59.919 4.59 2.586 6 5-2.59-.919-4.59-2.586-6-5z"/><path style="opacity:.855" fill="#342f28" d="M82.5 131.5a34.163 34.163 0 0 0 10 1c-.333 1-1 1.667-2 2-2.131-.814-4.464-1.314-7-1.5-.556-.383-.89-.883-1-1.5z"/><path style="opacity:.998" fill="#989898" d="M134.5 133.5h1l8 11c-.707 1.634-1.873 2.968-3.5 4-.383-.556-.883-.889-1.5-1a41.927 41.927 0 0 1-7-10v-2c.79-.901 1.79-1.568 3-2z"/><path style="opacity:.408" fill="#1f1b18" d="M90.5 134.5c.461 2.803 1.795 5.137 4 7-4.106-1.044-5.44-3.378-4-7z"/><path style="opacity:.145" fill="#2d2825" d="M131.5 135.5v2l-4 1c.936-1.474 2.27-2.474 4-3z"/><path style="opacity:.169" fill="#1c1916" d="M127.5 138.5c-.111.617-.444 1.117-1 1.5-8.272 3.213-16.605 4.38-25 3.5h2a114.485 114.485 0 0 0 24-5z"/><path style="opacity:1" fill="#5f4c3d" d="M94.5 141.5c3.281-.08 6.281.587 9 2h-2c-2.652.09-4.986-.576-7-2z"/><path style="opacity:.998" fill="#949494" d="M150.5 153.5c2.636 2.81 5.136 5.81 7.5 9 .5 3.5-1 5-4.5 4.5a117.686 117.686 0 0 1-8-10.5c.901-2.227 2.567-3.227 5-3z"/><path style="opacity:.984" fill="#181818" d="M110.5 167.5a84.902 84.902 0 0 0 .5 13 204.36 204.36 0 0 0 16.5 5.5c.923 2.041 1.256 4.208 1 6.5h-47c-.256-2.292.077-4.459 1-6.5a502.704 502.704 0 0 1 17-5.5h10c-.318-4.532.015-8.866 1-13z"/></svg>