<svg xmlns="http://www.w3.org/2000/svg" id="logo-brainlab" class="logo-brainlab" viewBox="0 0 233.57 31.93"><path fill="#ee2375" d="M32.17 11.14c0 .2-.3.3-.6.4a20 20 0 0 1-4.3.1c.2-.6.4-1.3.7-2.2.1-.2 0-.4-.3-.5-.9-.2-3.2-.5-4.4.2a1 1 0 0 0-.5.7 7.37 7.37 0 0 0-.4 1.4c-4.9-.2-9.2.8-11.5 3.3a3.17 3.17 0 0 0-.8 2.5 3 3 0 0 0 2.8 2.3c.8.1 1.1-.2 1.1-.4-.3-.5 0-1.5 1.4-2.1 3.9-1.8 9.1-.9 12.7-.7a6 6 0 0 0 4.5-1c1-.8 1.6-2.5.6-3.5-.6-.7-.9-.7-1-.5m-3.7 8.7c-.1.5-1.4.4-2.4.4h-1.3c.3-.9.5-1.7.6-2.1.1-.2 0-.4-.3-.5-.9-.2-3.2-.5-4.4.2a1.48 1.48 0 0 0-.5.7 10.38 10.38 0 0 0-.3 1.2c-4.2-.2-7.7.7-10.8 5.1-2.3 3.4-3.3 7.1-7.7 5.8a7.93 7.93 0 0 1-.9-.4c-.2-.1-.4 0-.4.1s-.1.3.1.5a4.68 4.68 0 0 0 1.5.8c4 1 6.2-.6 8.8-4 .7-.9 2.3-3.6 8.1-3.6-.5 1.6-.9 3.2-1.2 4.3-.1.2 0 .4.3.5.9.2 3.2.5 4.4-.2a1.48 1.48 0 0 0 .5-.7c.3-.9.6-2.1 1-3.3a10.28 10.28 0 0 0 1.8.1 5.16 5.16 0 0 0 3.6-1.1c.8-.8 1.4-2.3.4-3.3-.5-.7-.9-.7-.9-.5m15.7-15.6a14.66 14.66 0 0 0-6.8-2.1 6.75 6.75 0 0 0-3.4.8 3.63 3.63 0 0 1-1.9.1 18.32 18.32 0 0 0-2.1-.2q.3-.9.6-2.1c0-.2 0-.4-.3-.5-.9-.2-3.2-.5-4.4.2a1 1 0 0 0-.5.7c-.1.5-.3.9-.4 1.3a14.23 14.23 0 0 0-7.7 2.1 4 4 0 0 0-1.9 2.9c-.1 1.5 1.3 2.6 2.8 2.8.8.1 1.1-.2 1-.4a1.4 1.4 0 0 1 .7-1.6c1.6-1.1 5.7-1.7 9.3-1.2 3.9.5 6.3 1.5 9 1.5a14.36 14.36 0 0 0 5.9-1.6 2.05 2.05 0 0 0 .8-1.4c.1-.4.1-.9-.7-1.3m-6.9.4c-1.7-.3-.8-1.4.1-1.4a3.18 3.18 0 0 1 2.5.9c.1.2-.6.8-2.6.5m32.8 12.2a4.77 4.77 0 0 0 3.1-4.8 5.1 5.1 0 0 0-1.7-4.2 8 8 0 0 0-5.3-1.5h-12.5v22.6H67c4.9 0 7.2-3.3 7.2-6.6a5.27 5.27 0 0 0-4.1-5.5m-3.9-1.2h-9v-6.2H66c2.7 0 3.7 1.1 3.7 3.1 0 1.8-1.1 3.1-3.5 3.1m-9 10.3v-7.2h9.2c3.3 0 4.3 1.8 4.3 3.5 0 1.9-.9 3.7-4.6 3.7zm40.6-3.1c-.1-2.5-1.2-4.4-3.1-4.8a5.58 5.58 0 0 0 3.6-5.5 6.19 6.19 0 0 0-1.4-4.1 6 6 0 0 0-4.8-1.9h-14v22.6h3.5v-9.5h8.6c2.7 0 4 1.1 4.2 5.1.2 2.7.1 3.6.7 4.3h3.8l-.2-.2c-.6-.8-.8-1.8-.9-6m-16.2-6.4v-6.9h9.3c2.6 0 3.8 1.4 3.8 3.5 0 1.5-.7 3.4-3.9 3.4zm30.5-10L101.87 29h3.8l2.9-6.5h10.8l2.9 6.5h4l-10.2-22.6zm6 13h-8.2l4-9.5zm12.1-13h3.5V29h-3.5V6.44zm27 0h3.5V29h-4l-14.3-17.7V29h-3.5V6.44h4l14.3 17.7zm12 19.5h13.6V29h-17.1V6.44h3.5zm26.5-19.5L185.47 29h3.8l2.9-6.5H203l2.9 6.5h4L199.7 6.4zm6 13h-8.2l4-9.5zm27.9-2.6a4.72 4.72 0 0 0 3.1-4.7 5.1 5.1 0 0 0-1.7-4.2 8 8 0 0 0-5.3-1.5h-12.6V29h13.3c4.9 0 7.2-3.3 7.2-6.6s-1.6-5-4-5.6m-4-1.2h-9V9.44h8.8c2.7 0 3.7 1.1 3.7 3.1 0 1.8-1.1 3-3.5 3.1m-9 10.2v-7.2h9.2c3.3 0 4.3 1.8 4.3 3.5 0 1.9-.9 3.7-4.6 3.7z"/></svg>
