<svg xmlns="http://www.w3.org/2000/svg" width="714" height="212" style="shape-rendering:geometricPrecision;text-rendering:geometricPrecision;image-rendering:optimizeQuality;fill-rule:evenodd;clip-rule:evenodd"><path style="opacity:1" fill="#fdfdfd" d="M-.5-.5h714v212H-.5V-.5z"/><path style="opacity:1" fill="#e7e7e7" d="M333.5 51.5c-.934-1.068-1.268-2.401-1-4h-4v24c-1.234-14.18-1.234-28.513 0-43h4a156.332 156.332 0 0 1 1 23z"/><path style="opacity:1" fill="#b3d9f8" d="M374.5 30.5h4a350.15 350.15 0 0 1 1 34h-6a966.05 966.05 0 0 1 1-34z"/><path style="opacity:1" fill="#badeba" d="M363.5 48.5h-5v-16h5v16z"/><path style="opacity:1" fill="#9dd5de" d="M313.5 39.5c1.624-.14 2.79.527 3.5 2 .5 7.326.666 14.66.5 22h-5a159.11 159.11 0 0 1 1-24z"/><path style="opacity:1" fill="#7dbff5" d="M374.5 48.5h4v15h-4v-15z"/><path style="opacity:1" fill="#cacaca" d="M333.5 51.5a313 313 0 0 1-.5 25 31.473 31.473 0 0 1-4.5-5v-24h4c-.268 1.599.066 2.932 1 4z"/><path style="opacity:1" fill="#9dc3d4" d="M343.5 34.5h5c.167 19.003 0 38.003-.5 57l-4-4c-.5-17.663-.667-35.33-.5-53z"/><path style="opacity:1" fill="silver" d="M425.5 69.5c12.079-1.754 23.079.746 33 7.5a28.54 28.54 0 0 1 7 8.5 18.95 18.95 0 0 1-5 3c-8.369-10.63-19.369-15.13-33-13.5-17.421 4.433-24.921 15.6-22.5 33.5 5.806 17.752 17.972 24.585 36.5 20.5 11.863-3.023 18.53-10.523 20-22.5h-33v-6h39v33h-6a60.931 60.931 0 0 0-.5-11c-7.111 8.886-16.444 13.219-28 13-24.835-1.834-36.502-15.167-35-40 4.249-14.087 13.415-22.754 27.5-26z"/><path style="opacity:1" fill="#d7d7d7" d="M585.5 76.5c8.484-.993 17.151-1.326 26-1v-4h-60v4h28v58a813 813 0 0 1-1-57h-28v-6h62v6h-27z"/><path style="opacity:1" fill="#919191" d="M89.5 71.5h-53v62a992.813 992.813 0 0 1-1-63c18.174-.33 36.174.003 54 1z"/><path style="opacity:1" fill="#090909" d="M89.5 71.5c5.93 1.598 9.93 5.264 12 11 1.552 8.375-1.448 14.375-9 18 3.474.902 6.474 2.568 9 5 5.118 7.112 5.285 14.445.5 22-2.407 2.456-5.24 4.289-8.5 5.5-18.997.5-37.997.667-57 .5v-62h53z"/><path style="opacity:1" fill="#3f3f3f" d="M174.5 71.5h-50v62a992.738 992.738 0 0 1-1-63c17.175-.33 34.175.003 51 1z"/><path style="opacity:1" fill="#0b0b0b" d="M174.5 71.5c11.837 2.653 16.337 9.987 13.5 22-1.01 4.343-3.51 7.51-7.5 9.5a51.596 51.596 0 0 1-13 3.5c7.689 8.686 15.356 17.353 23 26-2.107.968-4.441 1.302-7 1a476.108 476.108 0 0 0-25-27c-9.486-.994-19.152-1.327-29-1v28h-5v-62h50z"/><path style="opacity:1" fill="#0e0e0e" d="M234.5 70.5c2.619-.268 5.119.065 7.5 1l30.5 61c-2.195 1.269-4.361 1.269-6.5 0a94.256 94.256 0 0 0-7.5-14.5 280.701 280.701 0 0 0-41 .5l-7 14c-2 1.333-4 1.333-6 0 9.979-20.627 19.979-41.293 30-62z"/><path style="opacity:1" fill="#5a5a5a" d="M293.5 71.5h-5v62a992.738 992.738 0 0 1-1-63c2.235-.295 4.235.039 6 1z"/><path style="opacity:1" d="M293.5 71.5v62h-5v-62h5z"/><path style="opacity:1" fill="#868686" d="M318.5 71.5h-6v62a992.738 992.738 0 0 1-1-63c2.559-.302 4.893.032 7 1z"/><path style="opacity:1" fill="#080808" d="M318.5 71.5c18.28 17.945 36.613 35.945 55 54a729.545 729.545 0 0 0 1-54h4v61h-6l-53-52c-.06-.543-.393-.876-1-1a729.561 729.561 0 0 0-1 54h-5v-62h6z"/><path style="opacity:1" fill="#1e1e1e" d="M372.5 132.5h6v-61h-4a729.545 729.545 0 0 1-1 54v-55h6v63c-2.559.302-4.893-.032-7-1z"/><path style="opacity:1" fill="silver" d="M513.5 70.5c2.619-.268 5.119.065 7.5 1a2648.175 2648.175 0 0 1 30.5 62 9.86 9.86 0 0 1-6-1 73.35 73.35 0 0 1-7-15 441.814 441.814 0 0 0-42 1l-7 14a9.86 9.86 0 0 1-6 1 2728.108 2728.108 0 0 1 30-63z"/><path style="opacity:1" fill="#bfbfbf" d="M585.5 76.5v58c-2.235.295-4.235-.039-6-1v-58h-28v-4h60v4c-8.849-.326-17.516.007-26 1zM693.5 133.5h-63v-63h60v6h-54v22h50v5h-50v25h57v5z"/><path style="opacity:1" fill="#fafafa" d="M42.5 76.5c15.67-.167 31.337 0 47 .5 6.13 4.073 7.63 9.573 4.5 16.5a26.06 26.06 0 0 1-7.5 4.5c-14.663.5-29.33.667-44 .5v-22z"/><path style="opacity:1" fill="#fcfcfc" d="M130.5 76.5a379.728 379.728 0 0 1 47 1.5c6.577 6.591 6.577 13.258 0 20-2.177 1.202-4.511 1.702-7 1.5h-40v-23z"/><path style="opacity:1" fill="#7fc27b" d="M358.5 48.5h5c.167 19.336 0 38.67-.5 58l-4-4c-.5-17.997-.667-35.997-.5-54z"/><path style="opacity:1" fill="#f6f6f6" d="M237.5 77.5c7.005 10.67 13.005 22.003 18 34a204.664 204.664 0 0 1-35 .5 2270.203 2270.203 0 0 1 17-34.5z"/><path style="opacity:1" fill="gray" d="m319.5 80.5-2 53c-.333-18.012 0-36.012 1-54 .607.124.94.457 1 1z"/><path style="opacity:1" fill="#fbfbfb" d="M516.5 77.5c.958.453 1.792 1.12 2.5 2a1991.813 1991.813 0 0 0 15.5 32 289.882 289.882 0 0 1-34 1 818.46 818.46 0 0 1 16-35z"/><path style="opacity:1" fill="#d2d2d2" d="M101.5 82.5c.928 7.501.928 15.168 0 23-2.526-2.432-5.526-4.098-9-5 7.552-3.625 10.552-9.625 9-18zM130.5 76.5v23h40a420.766 420.766 0 0 1-41 1c-.326-8.184.008-16.184 1-24z"/><path style="opacity:1" fill="#c3c3c3" d="M328.5 99.5c1.871.359 3.371 1.359 4.5 3a353.91 353.91 0 0 1-1 51c-1.011.837-2.178 1.17-3.5 1v-55z"/><path style="opacity:1" fill="#fbfbfb" d="M42.5 103.5c15.004-.167 30.004 0 45 .5 10.211 2.236 13.711 8.403 10.5 18.5-2.076 3.088-4.909 4.921-8.5 5.5-15.663.5-31.33.667-47 .5v-25z"/><path style="opacity:1" fill="#b8b8b8" d="M158.5 106.5h-28c.327 9.182-.007 18.182-1 27v-28c9.848-.327 19.514.006 29 1z"/><path style="opacity:1" fill="#91bccf" d="M343.5 113.5a25.14 25.14 0 0 1 4.5 4c.5 10.661.667 21.328.5 32h-5v-36z"/><path style="opacity:1" fill="#8cc989" d="M363.5 152.5h-5c-.166-8.007 0-16.007.5-24l4 4c.5 6.658.666 13.325.5 20z"/><path style="opacity:1" fill="#a4a4a4" d="M190.5 132.5c.543.06.876.393 1 1-2.809 1.3-5.476 1.3-8 0 2.559.302 4.893-.032 7-1z"/><path style="opacity:1" fill="#e7e7e7" d="M630.5 133.5h63a284.057 284.057 0 0 1-24 1.5 128.987 128.987 0 0 1 1.5 15.5c4.876-4.159 8.042-2.993 9.5 3.5-1.903 7.517-5.403 8.351-10.5 2.5a26.724 26.724 0 0 1-1.5 7c-.886-.825-1.219-1.825-1-3h-3l2-26c-12.178.328-24.178-.005-36-1z"/><path style="opacity:1" fill="#d6d6d6" d="M422.5 148.5c2.747-.313 5.414.02 8 1 1.365 2.251 1.031 4.251-1 6 2.17 6.315 1.503 6.481-2 .5a4.934 4.934 0 0 0-3-.5c.285 1.788-.048 3.455-1 5a36.875 36.875 0 0 1-1-12z"/><path style="opacity:1" fill="#cecece" d="M471.5 147.5c2.778-.478 4.778.522 6 3-1.978-.65-4.145-.65-6.5 0a12.494 12.494 0 0 0 0 7c2.2 1.49 4.034 1.157 5.5-1a6.802 6.802 0 0 0-3-1.5 12.93 12.93 0 0 1 5-.5 9.86 9.86 0 0 1-1 6 390.752 390.752 0 0 0-7-.5c-2.902-4.499-2.568-8.665 1-12.5z"/><path style="opacity:1" fill="#cacaca" d="M551.5 148.5c1.676.683 2.343 2.017 2 4h5c-.262-1.478.071-2.811 1-4 1.333 4 1.333 8 0 12a9.86 9.86 0 0 1-1-6h-5a9.86 9.86 0 0 1-1 6 36.875 36.875 0 0 1-1-12z"/><path style="opacity:1" fill="#fbfbfb" d="M673.5 149.5c1.644-.214 3.144.12 4.5 1 .769 2.599.602 5.099-.5 7.5-1.612.72-3.112.554-4.5-.5-.722-2.761-.555-5.427.5-8z"/><path style="opacity:1" fill="#cacaca" d="M684.5 148.5c1.517.011 2.684.677 3.5 2 2.773 6.434 4.273 5.767 4.5-2 1.333 4 1.333 8 0 12a78.697 78.697 0 0 1-6.5-10l-1 10a72.367 72.367 0 0 1-.5-12z"/><path style="opacity:1" fill="#cdcdcd" d="M588.5 148.5c1.517.011 2.684.677 3.5 2 2.773 6.434 4.273 5.767 4.5-2 1.333 4 1.333 8 0 12a1640.606 1640.606 0 0 1-6.5-9l-1 9a72.367 72.367 0 0 1-.5-12z"/><path style="opacity:1" fill="#ccc" d="M515.5 147.5c5.874 1.497 7.54 5.163 5 11-5.198 3.343-8.198 1.843-9-4.5.222-2.962 1.556-5.129 4-6.5z"/><path style="opacity:1" fill="#fbfbfb" d="M514.5 149.5c1.644-.214 3.144.12 4.5 1 .769 2.599.602 5.099-.5 7.5-1.612.72-3.112.554-4.5-.5-.602-2.721-.435-5.387.5-8z"/><path style="opacity:1" fill="#ccc" d="M541.5 147.5c2.584.069 4.584 1.235 6 3.5-1.678-.112-3.345-.612-5-1.5l-2 1c-2.554 5.621-.887 8.287 5 8v-3a4.934 4.934 0 0 1-3-.5 12.93 12.93 0 0 1 5-.5v6c-7.775 1.058-10.942-2.275-9.5-10a30.233 30.233 0 0 1 3.5-3z"/><path style="opacity:1" fill="#aedce4" d="M312.5 140.5h5v30h-5v-30z"/><path style="opacity:1" fill="#c3e3c3" d="M358.5 152.5h5v17h-5v-17z"/><path style="opacity:1" fill="#c6e3fa" d="M374.5 140.5v20h4v-20c1.254 11.186 1.254 22.519 0 34h-4c-.985-11.497-.985-22.831 0-34z"/><path style="opacity:1" fill="#8fc8f7" d="M374.5 140.5h4v20h-4v-20z"/><path style="opacity:1" fill="#deebf1" d="M343.5 113.5v36h5v29h-5c-1.306-21.807-1.306-43.473 0-65z"/></svg>