<svg xmlns="http://www.w3.org/2000/svg" width="348" height="102" style="shape-rendering:geometricPrecision;text-rendering:geometricPrecision;image-rendering:optimizeQuality;fill-rule:evenodd;clip-rule:evenodd"><path style="opacity:1" fill="#db3c75" d="M-.5-.5h348v102H-.5V-.5z"/><path style="opacity:1" fill="#fef8fa" d="M56.5 31.5h6v4c6.5-1.998 12.667-1.332 18.5 2 .658 1.608.158 2.775-1.5 3.5a23.814 23.814 0 0 1-8 1.5 60.446 60.446 0 0 0-20-1.5 8.905 8.905 0 0 0-4 3c-3.957.162-4.957-1.672-3-5.5 3.206-2.602 6.872-4.102 11-4.5.752-.67 1.086-1.504 1-2.5z"/><path style="opacity:1" fill="#e3678f" d="M70.5 35.5c1.929-.27 3.595.23 5 1.5l-2.5.5c-1.376-.184-2.209-.85-2.5-2z"/><path style="opacity:1" fill="#fdf4f7" d="M93.5 39.5a87.099 87.099 0 0 1 22 1.5c3.586 3.867 3.92 8.033 1 12.5 5.288 4.794 5.288 9.628 0 14.5a98.735 98.735 0 0 1-23 1.5v-30zM125.5 40.5c7.341-.166 14.674 0 22 .5a6.977 6.977 0 0 1 3.5 2.5 16.242 16.242 0 0 1 0 8c-.5 1.833-1.667 3-3.5 3.5l3.5 3.5c.207 3.59.707 7.09 1.5 10.5-1.941.743-3.774.576-5.5-.5l-1-9-1.5-1.5a98.432 98.432 0 0 0-14-.5v12h-5v-29z"/><path style="opacity:1" fill="#fdf3f6" d="M170.5 39.5c1.788-.285 3.455.048 5 1a1084.813 1084.813 0 0 1 13 28.5c-5.303.686-7.969-1.814-8-7.5h-16c-.031 5.686-2.697 8.186-8 7.5a1184.408 1184.408 0 0 0 14-29.5z"/><path style="opacity:1" fill="#f2bbcf" d="M198.5 40.5h-4v29c-.994-9.82-1.327-19.82-1-30 1.915-.285 3.581.049 5 1z"/><path style="opacity:1" fill="#fefbfc" d="M198.5 40.5v29h-4v-29h4z"/><path style="opacity:1" fill="#e5749c" d="M210.5 40.5h-5v29c-.994-9.82-1.327-19.82-1-30 2.235-.295 4.235.039 6 1z"/><path style="opacity:1" fill="#fefbfc" d="m210.5 40.5 18 21c.999-6.242 1.333-13.242 1-21h4v29a12.935 12.935 0 0 1-5-.5 652.015 652.015 0 0 0-17-20.5c-.283-.79-.783-1.456-1.5-2-.5 7.66-.666 15.326-.5 23h-4v-29h5z"/><path style="opacity:1" fill="#e77ca2" d="M233.5 69.5v-29h-4c.333 7.758-.001 14.758-1 21v-22h6c.327 10.18-.006 20.18-1 30z"/><path style="opacity:1" fill="#fefefe" d="M240.5 40.5h4c-.326 8.517.007 16.85 1 25h17v4h-22v-29z"/><path style="opacity:1" fill="#ed9fbb" d="M240.5 40.5c1.419-.951 3.085-1.285 5-1v26c-.993-8.15-1.326-16.483-1-25h-4z"/><path style="opacity:1" fill="#fdf2f6" d="M279.5 39.5a9.864 9.864 0 0 1 6 1 366.233 366.233 0 0 0 13 28.5 18.437 18.437 0 0 1-6 .5c-.164-6.994-3.664-9.66-10.5-8l-7.5 1-3 6c-1.574 1.13-3.241 1.297-5 .5a1153.41 1153.41 0 0 0 13-29.5z"/><path style="opacity:1" fill="#fdf3f6" d="M302.5 39.5c6.675-.166 13.342 0 20 .5 6.665 3.15 7.665 7.65 3 13.5 5.288 4.794 5.288 9.628 0 14.5a98.735 98.735 0 0 1-23 1.5v-30z"/><path style="opacity:1" fill="#fdf5f8" d="M52.5 43.5h7v3c2.357-.163 4.69.003 7 .5 1.103 1.68.77 3.18-1 4.5-6.95.798-13.95 1.298-21 1.5a43.591 43.591 0 0 0-5 3.5 4.938 4.938 0 0 1-2.5-1c-.743-1.94-.576-3.774.5-5.5 4.516-3.008 9.516-4.174 15-3.5v-3z"/><path style="opacity:1" fill="#ec9cb9" d="M111.5 44.5h-13v7h13c-4.47.986-9.137 1.32-14 1v-9c4.863-.32 9.53.014 14 1z"/><path style="opacity:1" fill="#db3f76" d="M111.5 44.5c1.984-.016 2.984.984 3 3-.061 2.153-1.061 3.486-3 4h-13v-7h13zM130.5 44.5c5.011-.166 10.011 0 15 .5 2.806 2.937 2.473 5.437-1 7.5h-14v-8z"/><path style="opacity:1" fill="#f1b3c9" d="M321.5 44.5h-14v7c-.973-2.448-1.306-5.115-1-8 5.195-.32 10.195.013 15 1z"/><path style="opacity:1" fill="#db3e76" d="M321.5 44.5c2.187 1.782 2.52 3.949 1 6.5-4.989.5-9.989.666-15 .5v-7h14z"/><path style="opacity:1" fill="#dc457a" d="M286.5 55.5c-2.787.977-5.787 1.31-9 1a39.337 39.337 0 0 1 4.5-11 22.717 22.717 0 0 1 4.5 10z"/><path style="opacity:1" fill="#df5483" d="M171.5 45.5c.876-.13 1.543.203 2 1a74.443 74.443 0 0 1 4 11h-10c1.326-3.99 2.66-7.99 4-12z"/><path style="opacity:1" fill="#e77fa4" d="m211.5 48.5-2 21c-.166-7.674 0-15.34.5-23 .717.544 1.217 1.21 1.5 2z"/><path style="opacity:1" fill="#ec98b6" d="M130.5 44.5v8h14c-4.805.987-9.805 1.32-15 1-.31-3.213.023-6.213 1-9z"/><path style="opacity:1" fill="#fdf3f7" d="M50.5 54.5h5v4a9.106 9.106 0 0 0 5-1c2.605 1.736 2.605 3.57 0 5.5-2.31.497-4.643.663-7 .5-.046 5.362-2.713 7.362-8 6l1-6c-2.49-.202-4.822.298-7 1.5a51.045 51.045 0 0 1-9 8c-2.553.851-4.886.518-7-1l6-1 9-11a35.712 35.712 0 0 1 11-3.5c.363-.684.696-1.35 1-2z"/><path style="opacity:1" fill="#db3d75" d="M98.5 56.5c5.011-.166 10.011 0 15 .5 2.899 3.156 2.565 5.822-1 8-4.655.5-9.321.666-14 .5v-9z"/><path style="opacity:1" fill="#eb97b5" d="M286.5 55.5c.543.06.876.393 1 1-3.48 1.306-6.813 1.306-10 0 3.213.31 6.213-.023 9-1z"/><path style="opacity:1" fill="#f2b9cd" d="M321.5 56.5h-14v9c-.979-3.125-1.313-6.458-1-10 5.195-.32 10.195.013 15 1z"/><path style="opacity:1" fill="#db3f77" d="M321.5 56.5c.996-.086 1.829.248 2.5 1 .758 2.27.591 4.436-.5 6.5-5.208 1.397-10.541 1.897-16 1.5v-9h14z"/></svg>