<svg version="1.1" id="Layer_1" xmlns="http://www.w3.org/2000/svg" xmlns:xlink="http://www.w3.org/1999/xlink" x="0px" y="0px"
	 viewBox="0 0 399.5 280.5" style="enable-background:new 0 0 399.5 280.5;" xml:space="preserve">
<style type="text/css">
	.st0{display:none;fill:#01172D;}
	.st1{fill:#00C8FF;}
	.st2{fill:#FFFFFF;}
	.st3{fill:#FFFFFF;stroke:#FFFFFF;stroke-width:1.1232;stroke-miterlimit:10;}
	.st4{fill:none;}
	.st5{font-family:'Arial-Rounded';}
	.st6{font-size:38px;}
	.st7{letter-spacing:6.1;}
	.st8{fill:none;stroke:#FFFFFF;stroke-miterlimit:10;}
</style>
<rect x="-9.3" y="-9.8" class="st0" width="414.5" height="294.2"/>
<path class="st1" d="M278.9,45.4H292c1.8,0,3.2-1.4,3.2-3.2S293.8,39,292,39h-13.1c-1.8,0-3.2,1.4-3.2,3.2
	C275.7,44,277.1,45.4,278.9,45.4z"/>
<path class="st1" d="M292,114.1h-13.1c-1.8,0-3.2,1.4-3.2,3.2c0,1.8,1.4,3.2,3.2,3.2H292c1.8,0,3.2-1.4,3.2-3.2
	S293.8,114.1,292,114.1z"/>
<path class="st1" d="M283.1,51.1c-0.7,0.6-1.1,1.5-1,2.5V106c-0.1,0.9,0.3,1.9,1,2.5c1.3,1.2,3.2,1.2,4.4,0c0.7-0.6,1.1-1.5,1-2.5
	V53.5c0.1-0.9-0.3-1.9-1-2.5C286.3,49.9,284.4,49.9,283.1,51.1z"/>
<path class="st1" d="M246.1,115.9l-31-75.3c-0.3-1.3-1.5-2.1-2.8-2.2c-1.4,0-2.8,0.8-3.3,2.2l-31.1,75.3c-0.2,0.5-0.3,1-0.2,1.5
	c0.1,1.8,1.6,3.2,3.4,3.1c1.2-0.1,2.3-0.8,2.8-1.9l7.4-17.7l2.6-6.5L212,50.5l18.2,43.8h-28.6c-1.8-0.2-3.4,1.2-3.6,3
	c-0.2,1.8,1.2,3.4,3,3.6c0.2,0,0.4,0,0.6,0h31.1l7.4,17.7c0.5,1.2,1.7,1.9,3,2c1.8,0.1,3.3-1.3,3.3-3.1l0,0
	C246.4,116.9,246.3,116.4,246.1,115.9z"/>
<path class="st2" d="M381,203.8H16.1c-1.4,0-2.5,1.1-2.5,2.5s1.1,2.5,2.5,2.5H381c1.4,0,2.5-1.1,2.5-2.5
	C383.5,204.9,382.4,203.8,381,203.8z"/>
<path class="st2" d="M381,8.2H16.1c-1.4,0-2.5,1.1-2.5,2.5s1.1,2.5,2.5,2.5H381c1.4,0,2.5-1.1,2.5-2.5S382.4,8.2,381,8.2z"/>
<path class="st2" d="M17.8,148.8c-1.2,0-2.3,1-2.3,2.2l0,0v24.2c0,1.2,1.1,2.2,2.3,2.2l0,0c1.2,0,2.2-1,2.3-2.2V151
	C20,149.8,19,148.8,17.8,148.8L17.8,148.8z"/>
<path class="st2" d="M171.8,235.4c-1.2,0-2.3,1-2.3,2.2l0,0v24.2c0,1.2,1.1,2.2,2.3,2.2l0,0c1.2,0,2.2-1,2.3-2.2v-24.2
	C174.1,236.4,173.1,235.4,171.8,235.4L171.8,235.4z"/>
<path class="st2" d="M68.2,148.8c-1.2,0-2.1,0.9-2.2,2.1l0,0v18.6L50.7,150c-0.5-0.7-1.3-1.2-2.2-1.2c-1.4-0.1-2.5,1-2.6,2.3
	c0,0.1,0,0.1,0,0.2v23.9c0.1,1.2,1.2,2.1,2.4,2c1-0.1,1.8-0.9,2-2v-18.5l15.3,19.5c0.5,0.7,1.4,1.2,2.3,1.2c1.4,0.1,2.5-1,2.6-2.3
	c0-0.1,0-0.1,0-0.2v-24c0-1.2-1-2.1-2.2-2.1C68.2,148.8,68.2,148.8,68.2,148.8z"/>
<path class="st2" d="M260.2,236.1c-1.2,0-2.1,0.9-2.2,2.1l0,0v18.6l-15.3-19.4c-0.5-0.7-1.3-1.2-2.2-1.2c-1.4-0.1-2.5,1-2.6,2.3
	c0,0.1,0,0.1,0,0.2v23.9c0.1,1.2,1.2,2.1,2.4,2c1-0.1,1.8-0.9,2-2v-18.5l15.3,19.5c0.5,0.7,1.4,1.2,2.3,1.2c1.4,0.1,2.5-1,2.6-2.3
	c0-0.1,0-0.1,0-0.2v-24c0-1.2-1-2.1-2.2-2.1C260.3,236.1,260.2,236.1,260.2,236.1z"/>
<path class="st2" d="M98.5,148.8c-1.2,0-2.3,1-2.3,2.2l0,0v24.2c0,1.2,1.1,2.2,2.3,2.2l0,0c1.2,0,2.2-1,2.3-2.2V151
	C100.8,149.8,99.8,148.8,98.5,148.8C98.6,148.8,98.5,148.8,98.5,148.8z"/>
<path class="st2" d="M145.5,149.1h-19.8c-1.1,0-2,1-2,2c0,1.1,0.9,2,2,2h7.6v22c0,1.2,1.1,2.2,2.3,2.2l0,0c1.2,0,2.2-1,2.2-2.2v-22
	h7.6c1.1,0,2-0.9,2-2C147.5,150.1,146.7,149.2,145.5,149.1z"/>
<path class="st2" d="M172.8,148.8c-1.2,0-2.3,1-2.3,2.2l0,0v24.2c0,1.2,1.1,2.2,2.3,2.2l0,0c1.2,0,2.2-1,2.3-2.2V151
	C175,149.8,174,148.8,172.8,148.8L172.8,148.8z"/>
<path class="st2" d="M213.9,151.1c-0.3-1.5-1.7-2.5-3.2-2.5c-1.5-0.1-2.9,1-3.2,2.5l-8.9,23.1c-0.1,0.4-0.2,0.7-0.2,1.1
	c0,1.1,0.9,2,2,2.1c0.1,0,0.1,0,0.2,0c1.1,0.1,2-0.6,2.3-1.6l1.9-5.1h11.6l2,5.1c0.2,1,1.2,1.7,2.2,1.6c1.1,0.1,2.2-0.7,2.3-1.8
	c0-0.1,0-0.2,0-0.4c0-0.4-0.1-0.7-0.2-1.1L213.9,151.1z M205.9,167l4.7-12.3l4.7,12.3H205.9z"/>
<path class="st2" d="M67.4,237.8c-0.3-1.5-1.7-2.5-3.2-2.5c-1.5-0.1-2.9,1-3.2,2.5l-8.9,23.1c-0.1,0.4-0.2,0.7-0.2,1.1
	c0,1.1,0.9,2,2,2.1c0.1,0,0.1,0,0.2,0c1.1,0.1,2-0.6,2.3-1.6l1.9-5.1h11.6l2,5.1c0.2,1,1.2,1.7,2.2,1.6c1.1,0.1,2.2-0.7,2.3-1.8
	c0-0.1,0-0.2,0-0.4c0-0.4-0.1-0.7-0.2-1.1L67.4,237.8z M59.5,253.8l4.7-12.3l4.7,12.3H59.5z"/>
<path class="st2" d="M210.3,238.5c-0.3-1.5-1.7-2.5-3.2-2.5c-1.5-0.1-2.9,1-3.2,2.5l-8.9,23.1c-0.1,0.4-0.2,0.7-0.2,1.1
	c0,1.1,0.9,2,2,2.1c0.1,0,0.1,0,0.2,0c1.1,0.1,2-0.6,2.3-1.6l1.9-5.1h11.6l2,5.1c0.2,1,1.2,1.7,2.2,1.6c1.1,0.1,2.2-0.7,2.3-1.8
	c0-0.1,0-0.2,0-0.4c0-0.4-0.1-0.7-0.2-1.1L210.3,238.5z M202.4,254.5l4.7-12.3l4.7,12.3H202.4z"/>
<path class="st2" d="M262,149.1h-19.8c-1.1,0-2,1-2,2c0,1.1,0.9,2,2,2h7.6v22c0,1.2,1.1,2.2,2.3,2.2l0,0c1.2,0,2.3-1,2.3-2.2v-22
	h7.6c1.1,0,2-0.9,2-2C264.1,150,263.2,149.1,262,149.1L262,149.1z"/>
<path class="st2" d="M289.2,148.8c-1.2,0-2.3,1-2.3,2.2l0,0v24.2c0,1.2,1.1,2.2,2.3,2.2l0,0c1.2,0,2.3-1,2.3-2.2V151
	C291.5,149.8,290.5,148.8,289.2,148.8C289.3,148.8,289.3,148.8,289.2,148.8z"/>
<path class="st2" d="M337.6,148.8c-1,0-1.9,0.6-2.3,1.6l-8.1,21.1l-7.9-21c-0.3-1-1.2-1.6-2.2-1.6c-1.3-0.1-2.4,0.9-2.5,2.1v0.1
	c0,0.3,0.1,0.6,0.2,0.9l9.1,23.1c0.4,1.5,1.7,2.5,3.3,2.5c1.5,0,2.8-1,3.2-2.5l9.2-23.1c0.1-0.3,0.2-0.6,0.2-0.9
	c0.1-1.2-0.9-2.2-2.1-2.3C337.8,148.8,337.7,148.8,337.6,148.8z"/>
<path class="st2" d="M382.2,172.9h-14.4V165h12.3c1.1,0,2-0.9,2-2s-0.9-2-2-2h-12.3v-7.8h14.4c1.1,0,2-0.9,2-2l0,0
	c0-1.1-0.8-2-1.9-2l0,0h-16.7c-1.2,0-2.3,1-2.3,2.2l0,0v23.4c0,1.2,1.1,2.2,2.3,2.2l0,0h16.7c1.1-0.2,1.9-1.2,1.7-2.3
	C383.8,173.7,383.1,173.1,382.2,172.9z"/>
<path class="st2" d="M343.9,259.9h-14.4V252h12.3c1.1,0,2-0.9,2-2s-0.9-2-2-2h-12.3v-7.8h14.4c1.1,0,2-0.9,2-2l0,0
	c0-1.1-0.8-2-1.9-2l0,0h-16.7c-1.2,0-2.3,1-2.3,2.2l0,0v23.4c0,1.2,1.1,2.2,2.3,2.2l0,0H344c1.1-0.2,1.9-1.2,1.7-2.3
	C345.5,260.8,344.8,260.1,343.9,259.9z"/>
<path class="st1" d="M69.9,84.2c-2.4-3.7-5.8-6.7-9.9-8.5c2.5-1.9,4.5-4.3,5.9-7.1c1.4-2.8,2.2-6,2.1-9.2c0-2.7-0.5-5.4-1.6-7.9
	c-1-2.4-2.5-4.6-4.3-6.5c-1.9-1.9-4.1-3.4-6.5-4.4c-2.5-1.1-5.2-1.6-8-1.6H17.2c-0.9-0.1-1.9,0.3-2.5,1c-1.1,1.3-1.1,3.2,0,4.4
	c0.6,0.7,1.5,1.1,2.5,1h30.5c1.9,0,3.7,0.4,5.4,1.1c1.7,0.7,3.2,1.7,4.5,3s2.3,2.8,3,4.5s1.1,3.6,1.1,5.5c0,1.8-0.4,3.7-1.1,5.3
	c-0.7,1.7-1.8,3.2-3.1,4.4c-1.3,1.2-2.7,2.2-4.3,3c-1.7,0.7-15.9,1.1-17.8,1.1h-7.2c-0.9-0.1-1.9,0.3-2.5,1c-1.1,1.3-1.1,3.2,0,4.4
	c0.6,0.7,1.5,1.1,2.5,1h22.2c6.8,0,13,4,15.7,10.3c1.7,4.2,1.7,8.9,0,13.1c-2.6,6.3-8.8,10.4-15.7,10.3H20.2V62.9
	c0.1-0.9-0.3-1.9-1-2.5c-1.2-1.1-3.1-1.1-4.3,0c-0.7,0.6-1.1,1.5-1,2.5V117c0.1,1.8,1.5,3.2,3.2,3.2h33.1c3.1,0,6.2-0.6,9.1-1.8
	c5.6-2.3,10-6.8,12.3-12.3c1.2-2.9,1.8-6,1.8-9.1C73.6,92.4,72.3,88,69.9,84.2z"/>
<path class="st1" d="M155.5,115.5l-17.4-24.9c-0.5-0.9-1.5-1.4-2.5-1.4c-1.8,0.1-3.3,1.5-3.5,3.3c0,0.5,0.2,1.1,0.5,1.5l0,0l0.4,0.5
	l0,0v0.2l17,24.3c0.5,0.9,1.5,1.4,2.5,1.4c1.9,0,3.4-1.5,3.6-3.3C156.1,116.5,155.9,115.9,155.5,115.5L155.5,115.5L155.5,115.5z"/>
<path class="st1" d="M157.5,62.2c0-12.8-10.4-23.1-23.2-23.1h-0.1h-21.5c-0.9-0.1-1.9,0.3-2.5,1c-1.1,1.3-1.1,3.1,0,4.4
	c0.6,0.7,1.5,1.1,2.5,1h21.6c9.2-0.4,17,6.8,17.4,16.1c0.4,9.2-6.8,17-16.1,17.4c-0.4,0-0.9,0-1.3,0h-21.5c-0.9-0.1-1.9,0.3-2.5,1
	c-1.1,1.3-1.1,3.1,0,4.4c0.6,0.7,1.5,1.1,2.5,1h0.9h13.2h8.2C147.6,84.9,157.4,74.7,157.5,62.2z"/>
<path class="st1" d="M104.8,42.4c0.1-0.9-0.3-1.9-1-2.5c-1.3-1.2-3.2-1.2-4.4,0c-0.7,0.6-1.1,1.5-1,2.5v74.9c0.2,1.8,1.7,3.1,3.6,3
	c1.6-0.1,2.8-1.4,3-3v-73l0,0L104.8,42.4L104.8,42.4z"/>
<path class="st1" d="M379.5,38.3c-1.8,0-3.2,1.4-3.2,3.2l0,0V107l-10.6-15.8c-0.5-0.9-1.4-1.5-2.5-1.5c-1.9,0-3.5,1.4-3.7,3.2
	c0,0.8,0.2,1.5,0.7,2.1l14.8,22.1l0,0l1.3,1.9c0.6,0.9,1.7,1.5,2.8,1.4c1.8,0.1,3.4-1.4,3.5-3.2v-0.1V41.5
	C382.7,39.7,381.3,38.3,379.5,38.3z"/>
<path class="st1" d="M359,81.8l-14.6-21.6l0,0l-0.3-0.5l0,0l-0.8-1.2l0,0l-12-17.7c-0.6-1-1.6-1.7-2.8-1.9c-1.7-0.2-3.2,0.9-3.4,2.6
	c0,0.1,0,0.2,0,0.3v75.4c0.2,1.8,1.7,3.1,3.6,3c1.6-0.1,2.8-1.4,3-3v-64l4.3,6.2l17.7,26.2c0.5,0.9,1.4,1.5,2.5,1.5
	c1.9,0,3.5-1.4,3.7-3.2C359.8,83.1,359.5,82.4,359,81.8z"/>
<path class="st3" d="M112.9,260.7c-0.4-0.3-0.8-0.4-1.4-0.4h-10.8V238c0-1.3-0.5-1.9-1.6-1.9c-0.5,0-0.9,0.2-1.2,0.5
	c-0.3,0.3-0.5,0.7-0.5,1.3v23.5c0,0.8,0.2,1.3,0.5,1.6c0.3,0.3,0.7,0.5,1.1,0.5h13c0.2,0,0.5-0.1,0.9-0.3c0.4-0.2,0.5-0.7,0.5-1.3
	C113.4,261.3,113.2,260.9,112.9,260.7z"/>
<path class="st3" d="M149.1,260.7c-0.4-0.3-0.8-0.4-1.4-0.4H137V238c0-1.3-0.5-1.9-1.6-1.9c-0.5,0-0.9,0.2-1.2,0.5s-0.5,0.7-0.5,1.3
	v23.5c0,0.8,0.2,1.3,0.5,1.6c0.3,0.3,0.7,0.5,1.1,0.5h13.1c0.2,0,0.5-0.1,0.9-0.3c0.4-0.2,0.5-0.7,0.5-1.3
	C149.7,261.3,149.5,260.9,149.1,260.7z"/>
<rect x="271.7" y="234.2" class="st4" width="42.4" height="36.4"/>
<text transform="matrix(1.14 0 0 1 280.0771 263.5674)" class="st2 st5 st6 st7">C</text>
<text transform="matrix(1.14 0 0 1 280.0771 263.5674)" class="st8 st5 st6 st7">C</text>
</svg>
