<svg version="1.1" id="Layer_1" xmlns="http://www.w3.org/2000/svg" x="0" y="0" viewBox="0 0 399.5 280.5" style="enable-background:new 0 0 399.5 280.5" xml:space="preserve"><style>.st1{fill:#00c8ff}.st2,.st3{fill:#fff}.st3{stroke:#fff;stroke-width:1.1232;stroke-miterlimit:10}.st5{font-family:&apos;Arial-Rounded&apos;}.st6{font-size:38px}.st7{letter-spacing:6.1}</style><path class="st1" d="M278.9 45.4H292c1.8 0 3.2-1.4 3.2-3.2S293.8 39 292 39h-13.1c-1.8 0-3.2 1.4-3.2 3.2 0 1.8 1.4 3.2 3.2 3.2zM292 114.1h-13.1c-1.8 0-3.2 1.4-3.2 3.2 0 1.8 1.4 3.2 3.2 3.2H292c1.8 0 3.2-1.4 3.2-3.2s-1.4-3.2-3.2-3.2zM283.1 51.1c-.7.6-1.1 1.5-1 2.5V106c-.1.9.3 1.9 1 2.5 1.3 1.2 3.2 1.2 4.4 0 .7-.6 1.1-1.5 1-2.5V53.5c.1-.9-.3-1.9-1-2.5-1.2-1.1-3.1-1.1-4.4.1zM246.1 115.9l-31-75.3c-.3-1.3-1.5-2.1-2.8-2.2-1.4 0-2.8.8-3.3 2.2l-31.1 75.3c-.2.5-.3 1-.2 1.5.1 1.8 1.6 3.2 3.4 3.1 1.2-.1 2.3-.8 2.8-1.9l7.4-17.7 2.6-6.5L212 50.5l18.2 43.8h-28.6c-1.8-.2-3.4 1.2-3.6 3-.2 1.8 1.2 3.4 3 3.6H232.7l7.4 17.7c.5 1.2 1.7 1.9 3 2 1.8.1 3.3-1.3 3.3-3.1 0-.6-.1-1.1-.3-1.6z"/><path class="st2" d="M381 203.8H16.1c-1.4 0-2.5 1.1-2.5 2.5s1.1 2.5 2.5 2.5H381c1.4 0 2.5-1.1 2.5-2.5s-1.1-2.5-2.5-2.5zM381 8.2H16.1c-1.4 0-2.5 1.1-2.5 2.5s1.1 2.5 2.5 2.5H381c1.4 0 2.5-1.1 2.5-2.5s-1.1-2.5-2.5-2.5zM17.8 148.8c-1.2 0-2.3 1-2.3 2.2v24.2c0 1.2 1.1 2.2 2.3 2.2 1.2 0 2.2-1 2.3-2.2V151c-.1-1.2-1.1-2.2-2.3-2.2zM171.8 235.4c-1.2 0-2.3 1-2.3 2.2v24.2c0 1.2 1.1 2.2 2.3 2.2 1.2 0 2.2-1 2.3-2.2v-24.2c0-1.2-1-2.2-2.3-2.2zM68.2 148.8c-1.2 0-2.1.9-2.2 2.1v18.6L50.7 150c-.5-.7-1.3-1.2-2.2-1.2-1.4-.1-2.5 1-2.6 2.3V175.2c.1 1.2 1.2 2.1 2.4 2 1-.1 1.8-.9 2-2v-18.5l15.3 19.5c.5.7 1.4 1.2 2.3 1.2 1.4.1 2.5-1 2.6-2.3v-24.2c0-1.2-1-2.1-2.2-2.1h-.1zM260.2 236.1c-1.2 0-2.1.9-2.2 2.1v18.6l-15.3-19.4c-.5-.7-1.3-1.2-2.2-1.2-1.4-.1-2.5 1-2.6 2.3V262.6c.1 1.2 1.2 2.1 2.4 2 1-.1 1.8-.9 2-2v-18.5l15.3 19.5c.5.7 1.4 1.2 2.3 1.2 1.4.1 2.5-1 2.6-2.3v-24.2c0-1.2-1-2.1-2.2-2.1 0-.1-.1-.1-.1-.1zM98.5 148.8c-1.2 0-2.3 1-2.3 2.2v24.2c0 1.2 1.1 2.2 2.3 2.2 1.2 0 2.2-1 2.3-2.2V151c0-1.2-1-2.2-2.3-2.2.1 0 0 0 0 0zM145.5 149.1h-19.8c-1.1 0-2 1-2 2 0 1.1.9 2 2 2h7.6v22c0 1.2 1.1 2.2 2.3 2.2 1.2 0 2.2-1 2.2-2.2v-22h7.6c1.1 0 2-.9 2-2 .1-1-.7-1.9-1.9-2zM172.8 148.8c-1.2 0-2.3 1-2.3 2.2v24.2c0 1.2 1.1 2.2 2.3 2.2 1.2 0 2.2-1 2.3-2.2V151c-.1-1.2-1.1-2.2-2.3-2.2zM213.9 151.1c-.3-1.5-1.7-2.5-3.2-2.5-1.5-.1-2.9 1-3.2 2.5l-8.9 23.1c-.1.4-.2.7-.2 1.1 0 1.1.9 2 2 2.1h.2c1.1.1 2-.6 2.3-1.6l1.9-5.1h11.6l2 5.1c.2 1 1.2 1.7 2.2 1.6 1.1.1 2.2-.7 2.3-1.8v-.4c0-.4-.1-.7-.2-1.1l-8.8-23zm-8 15.9 4.7-12.3 4.7 12.3h-9.4zM67.4 237.8c-.3-1.5-1.7-2.5-3.2-2.5-1.5-.1-2.9 1-3.2 2.5l-8.9 23.1c-.1.4-.2.7-.2 1.1 0 1.1.9 2 2 2.1h.2c1.1.1 2-.6 2.3-1.6l1.9-5.1h11.6l2 5.1c.2 1 1.2 1.7 2.2 1.6 1.1.1 2.2-.7 2.3-1.8v-.4c0-.4-.1-.7-.2-1.1l-8.8-23zm-7.9 16 4.7-12.3 4.7 12.3h-9.4zM210.3 238.5c-.3-1.5-1.7-2.5-3.2-2.5-1.5-.1-2.9 1-3.2 2.5l-8.9 23.1c-.1.4-.2.7-.2 1.1 0 1.1.9 2 2 2.1h.2c1.1.1 2-.6 2.3-1.6l1.9-5.1h11.6l2 5.1c.2 1 1.2 1.7 2.2 1.6 1.1.1 2.2-.7 2.3-1.8v-.4c0-.4-.1-.7-.2-1.1l-8.8-23zm-7.9 16 4.7-12.3 4.7 12.3h-9.4zM262 149.1h-19.8c-1.1 0-2 1-2 2 0 1.1.9 2 2 2h7.6v22c0 1.2 1.1 2.2 2.3 2.2 1.2 0 2.3-1 2.3-2.2v-22h7.6c1.1 0 2-.9 2-2 .1-1.1-.8-2-2-2zM289.2 148.8c-1.2 0-2.3 1-2.3 2.2v24.2c0 1.2 1.1 2.2 2.3 2.2 1.2 0 2.3-1 2.3-2.2V151c0-1.2-1-2.2-2.3-2.2.1 0 .1 0 0 0zM337.6 148.8c-1 0-1.9.6-2.3 1.6l-8.1 21.1-7.9-21c-.3-1-1.2-1.6-2.2-1.6-1.3-.1-2.4.9-2.5 2.1v.1c0 .3.1.6.2.9l9.1 23.1c.4 1.5 1.7 2.5 3.3 2.5 1.5 0 2.8-1 3.2-2.5l9.2-23.1c.1-.3.2-.6.2-.9.1-1.2-.9-2.2-2.1-2.3h-.1zM382.2 172.9h-14.4V165h12.3c1.1 0 2-.9 2-2s-.9-2-2-2h-12.3v-7.8h14.4c1.1 0 2-.9 2-2s-.8-2-1.9-2h-16.7c-1.2 0-2.3 1-2.3 2.2v23.4c0 1.2 1.1 2.2 2.3 2.2h16.7c1.1-.2 1.9-1.2 1.7-2.3-.2-1-.9-1.6-1.8-1.8zM343.9 259.9h-14.4V252h12.3c1.1 0 2-.9 2-2s-.9-2-2-2h-12.3v-7.8h14.4c1.1 0 2-.9 2-2s-.8-2-1.9-2h-16.7c-1.2 0-2.3 1-2.3 2.2v23.4c0 1.2 1.1 2.2 2.3 2.2H344c1.1-.2 1.9-1.2 1.7-2.3-.2-.9-.9-1.6-1.8-1.8z"/><path class="st1" d="M69.9 84.2c-2.4-3.7-5.8-6.7-9.9-8.5 2.5-1.9 4.5-4.3 5.9-7.1 1.4-2.8 2.2-6 2.1-9.2 0-2.7-.5-5.4-1.6-7.9-1-2.4-2.5-4.6-4.3-6.5-1.9-1.9-4.1-3.4-6.5-4.4-2.5-1.1-5.2-1.6-8-1.6H17.2c-.9-.1-1.9.3-2.5 1-1.1 1.3-1.1 3.2 0 4.4.6.7 1.5 1.1 2.5 1h30.5c1.9 0 3.7.4 5.4 1.1 1.7.7 3.2 1.7 4.5 3s2.3 2.8 3 4.5 1.1 3.6 1.1 5.5c0 1.8-.4 3.7-1.1 5.3-.7 1.7-1.8 3.2-3.1 4.4-1.3 1.2-2.7 2.2-4.3 3-1.7.7-15.9 1.1-17.8 1.1h-7.2c-.9-.1-1.9.3-2.5 1-1.1 1.3-1.1 3.2 0 4.4.6.7 1.5 1.1 2.5 1h22.2c6.8 0 13 4 15.7 10.3 1.7 4.2 1.7 8.9 0 13.1-2.6 6.3-8.8 10.4-15.7 10.3H20.2V62.9c.1-.9-.3-1.9-1-2.5-1.2-1.1-3.1-1.1-4.3 0-.7.6-1.1 1.5-1 2.5V117c.1 1.8 1.5 3.2 3.2 3.2h33.1c3.1 0 6.2-.6 9.1-1.8 5.6-2.3 10-6.8 12.3-12.3 1.2-2.9 1.8-6 1.8-9.1.2-4.6-1.1-9-3.5-12.8zM155.5 115.5l-17.4-24.9c-.5-.9-1.5-1.4-2.5-1.4-1.8.1-3.3 1.5-3.5 3.3 0 .5.2 1.1.5 1.5l.4.5v.2l17 24.3c.5.9 1.5 1.4 2.5 1.4 1.9 0 3.4-1.5 3.6-3.3 0-.6-.2-1.2-.6-1.6zM157.5 62.2c0-12.8-10.4-23.1-23.2-23.1h-21.6c-.9-.1-1.9.3-2.5 1-1.1 1.3-1.1 3.1 0 4.4.6.7 1.5 1.1 2.5 1h21.6c9.2-.4 17 6.8 17.4 16.1.4 9.2-6.8 17-16.1 17.4h-22.8c-.9-.1-1.9.3-2.5 1-1.1 1.3-1.1 3.1 0 4.4.6.7 1.5 1.1 2.5 1H135.1c12.5-.5 22.3-10.7 22.4-23.2zM104.8 42.4c.1-.9-.3-1.9-1-2.5-1.3-1.2-3.2-1.2-4.4 0-.7.6-1.1 1.5-1 2.5v74.9c.2 1.8 1.7 3.1 3.6 3 1.6-.1 2.8-1.4 3-3v-73l-.2-1.9zM379.5 38.3c-1.8 0-3.2 1.4-3.2 3.2V107l-10.6-15.8c-.5-.9-1.4-1.5-2.5-1.5-1.9 0-3.5 1.4-3.7 3.2 0 .8.2 1.5.7 2.1l14.8 22.1 1.3 1.9c.6.9 1.7 1.5 2.8 1.4 1.8.1 3.4-1.4 3.5-3.2V41.5c.1-1.8-1.3-3.2-3.1-3.2zM359 81.8l-14.6-21.6-.3-.5-.8-1.2-12-17.7c-.6-1-1.6-1.7-2.8-1.9-1.7-.2-3.2.9-3.4 2.6v75.7c.2 1.8 1.7 3.1 3.6 3 1.6-.1 2.8-1.4 3-3v-64l4.3 6.2 17.7 26.2c.5.9 1.4 1.5 2.5 1.5 1.9 0 3.5-1.4 3.7-3.2-.1-.8-.4-1.5-.9-2.1z"/><path class="st3" d="M112.9 260.7c-.4-.3-.8-.4-1.4-.4h-10.8V238c0-1.3-.5-1.9-1.6-1.9-.5 0-.9.2-1.2.5-.3.3-.5.7-.5 1.3v23.5c0 .8.2 1.3.5 1.6.3.3.7.5 1.1.5h13c.2 0 .5-.1.9-.3.4-.2.5-.7.5-1.3 0-.6-.2-1-.5-1.2zM149.1 260.7c-.4-.3-.8-.4-1.4-.4H137V238c0-1.3-.5-1.9-1.6-1.9-.5 0-.9.2-1.2.5s-.5.7-.5 1.3v23.5c0 .8.2 1.3.5 1.6.3.3.7.5 1.1.5h13.1c.2 0 .5-.1.9-.3.4-.2.5-.7.5-1.3-.1-.6-.3-1-.7-1.2z"/><path style="fill:none" d="M271.7 234.2h42.4v36.4h-42.4z"/><text transform="matrix(1.14 0 0 1 280.077 263.567)" class="st2 st5 st6 st7">C</text><text transform="matrix(1.14 0 0 1 280.077 263.567)" class="st5 st6 st7" style="fill:none;stroke:#fff;stroke-miterlimit:10">C</text></svg>