<svg xmlns="http://www.w3.org/2000/svg" width="360" height="108" style="shape-rendering:geometricPrecision;text-rendering:geometricPrecision;image-rendering:optimizeQuality;fill-rule:evenodd;clip-rule:evenodd"><path style="opacity:1" fill="#111211" d="M-.5-.5h360v2H-.5v-2z"/><path style="opacity:1" fill="#272727" d="M-.5 1.5h360v106H-.5V1.5z"/><path style="opacity:1" fill="#e0e0e0" d="M160.5 45.5h4v21h-4v-21z"/><path style="opacity:1" fill="#efefef" d="M192.5 45.5h3v21a96.223 96.223 0 0 0-10-.5c-3.303-3.795-3.803-7.962-1.5-12.5 2.209-2.206 4.709-2.54 7.5-1a13.115 13.115 0 0 0 1-7z"/><path style="opacity:1" fill="#e0e0e0" d="M255.5 45.5h4v21h-4v-21z"/><path style="opacity:1" fill="#efefef" d="M291.5 45.5h5v3c-1.846-.278-3.18.389-4 2 .825.886 1.825 1.219 3 1v3h-3v12h-3v-12h-3v-3h3c-.247-2.358.419-4.358 2-6z"/><path style="opacity:1" fill="#e0e0e0" d="M59.5 46.5h4v3c-2.473.412-3.806-.588-4-3z"/><path style="opacity:1" fill="#e7e7e7" d="M16.5 46.5a60.94 60.94 0 0 1 11 .5c3.478 2.706 3.811 5.706 1 9 4.229 3.843 3.895 7.176-1 10a60.94 60.94 0 0 1-11 .5v-20z"/><path style="opacity:1" fill="#eaeaea" d="M90.5 46.5h4a32.437 32.437 0 0 0 .5 8 36.546 36.546 0 0 1 6.5-7.5c1.333-.667 2.667-.667 4 0a84.848 84.848 0 0 1-7 8.5 121.886 121.886 0 0 0 8 10.5c-1.759.797-3.426.63-5-.5a22.112 22.112 0 0 0-5.5-7c-1.375 2.437-1.875 5.103-1.5 8h-4v-20z"/><path style="opacity:1" fill="#e5e5e5" d="M237.5 46.5a60.94 60.94 0 0 1 11 .5c3.792 2.053 4.958 5.22 3.5 9.5-2.984 2.6-6.484 3.6-10.5 3v7h-4v-20z"/><path style="opacity:1" fill="#ededed" d="M279.5 48.5h3v3h3v3h-3v9h3v3c-1.788.285-3.455-.048-5-1a34.302 34.302 0 0 1-1-11h-3v-3h3v-3z"/><path style="opacity:1" fill="#2f2f2f" d="M20.5 49.5a18.436 18.436 0 0 1 6 .5c1.333 1.333 1.333 2.667 0 4a18.436 18.436 0 0 1-6 .5v-5z"/><path style="opacity:1" fill="#2e2e2e" d="M241.5 49.5a18.437 18.437 0 0 1 6 .5c2.667 2 2.667 4 0 6a18.437 18.437 0 0 1-6 .5v-7z"/><path style="opacity:1" fill="#eaeaea" d="M46.5 51.5c3.102-.346 5.935.32 8.5 2 .2 4.253.7 8.42 1.5 12.5-3.513.06-7.18.06-11 0-2.765-2.966-2.432-5.633 1-8a18.436 18.436 0 0 1 6-.5v-3c-2.809.193-5.475.86-8 2-.108-2.014.558-3.68 2-5z"/><path style="opacity:1" fill="#f2f2f2" d="M67.5 51.5c3.184.333 6.517.5 10 .5l1.5 1.5c.499 4.32.666 8.654.5 13h-3a50.441 50.441 0 0 0-.5-10c-1.312-2.158-2.978-2.49-5-1a60.94 60.94 0 0 0-.5 11h-3v-15z"/><path style="opacity:1" fill="#ebebeb" d="M107.5 51.5c2.509 1.175 5.009 1.175 7.5 0 1.711-.06 3.044.606 4 2a84.9 84.9 0 0 1 .5 13h-3a60.93 60.93 0 0 0-.5-11c-1.356-.88-2.856-1.214-4.5-1v12h-4v-15z"/><path style="opacity:1" fill="#ececec" d="M126.5 51.5c8.605-.492 11.772 3.508 9.5 12-4 4-8 4-12 0-1.227-4.562-.393-8.562 2.5-12z"/><path style="opacity:1" fill="#e4e4e4" d="M171.5 51.5c6.667-.667 9.667 2.333 9 9a21.12 21.12 0 0 0-9 1c.671 1.446 1.838 2.112 3.5 2 2.068-1.17 3.901-1.004 5.5.5-4.65 3.622-8.817 3.122-12.5-1.5-1.338-4.54-.171-8.207 3.5-11zM218.5 51.5c6.667-.667 9.667 2.333 9 9a21.12 21.12 0 0 0-9 1c.671 1.446 1.838 2.112 3.5 2 2.068-1.17 3.901-1.004 5.5.5-4.65 3.622-8.817 3.122-12.5-1.5-1.338-4.54-.171-8.207 3.5-11z"/><path style="opacity:1" fill="#eaeaea" d="M265.5 51.5c3.102-.346 5.935.32 8.5 2 .2 4.253.7 8.42 1.5 12.5-3.513.06-7.179.06-11 0-2.765-2.966-2.432-5.633 1-8a18.437 18.437 0 0 1 6-.5v-3c-2.808.193-5.475.86-8 2-.108-2.014.558-3.68 2-5z"/><path style="opacity:1" fill="#e5e5e5" d="M301.5 51.5c7.155-.347 10.321 2.986 9.5 10-3.872 6.256-8.205 6.59-13 1-1.338-4.54-.171-8.207 3.5-11z"/><path style="opacity:1" fill="#f9f9f9" d="M314.5 51.5c2.333 1.333 4.667 1.333 7 0v3c-1.322-.17-2.489.163-3.5 1a60.93 60.93 0 0 0-.5 11h-3v-15z"/><path style="opacity:1" fill="#f0f0f0" d="M324.5 51.5c2.509 1.175 5.009 1.175 7.5 0 1.812-.007 3.312.66 4.5 2 2.871-2.613 5.705-2.613 8.5 0a84.9 84.9 0 0 1 .5 13h-3a60.93 60.93 0 0 0-.5-11c-1.667-1.333-3.333-1.333-5 0a60.93 60.93 0 0 0-.5 11h-3a60.93 60.93 0 0 0-.5-11c-1.356-.88-2.856-1.214-4.5-1v12h-4v-15z"/><path style="opacity:1" fill="#e5e5e5" d="M34.5 51.5c2.667 1.333 5.333 1.333 8 0v3c-1.322-.17-2.489.163-3.5 1a60.94 60.94 0 0 0-.5 11h-4v-15z"/><path style="opacity:1" fill="#bababa" d="M62.5 66.5c-.667-18.667-1.333-18.667-2 0-.987-4.805-1.32-9.805-1-15h4c.32 5.195-.013 10.195-1 15z"/><path style="opacity:1" fill="#fefffe" d="M62.5 66.5h-2c.667-18.667 1.333-18.667 2 0z"/><path style="opacity:1" fill="#e7e7e7" d="M138.5 51.5c1.322-.17 2.489.163 3.5 1 1.609 10.278 3.109 9.944 4.5-1 1.322-.17 2.489.163 3.5 1 2.17 9.12 3.67 8.787 4.5-1 1.478-.262 2.811.071 4 1a54.836 54.836 0 0 0-4 14c-1.175.219-2.175-.114-3-1-2.887-9.332-4.887-8.998-6 1-1.624.14-2.79-.527-3.5-2a185.805 185.805 0 0 0-3.5-13z"/><path style="opacity:1" fill="#e9e9e9" d="M201.5 51.5c3.493.498 6.826.498 10 0 .166 6.01-.001 12.01-.5 18-3.918 3.962-7.751 3.962-11.5 0a36.266 36.266 0 0 1 7-.5c1.658-.725 2.158-1.892 1.5-3.5-7.909 1.63-10.909-1.704-9-10a16.578 16.578 0 0 1 2.5-4z"/><path style="opacity:1" fill="#2e2e2e" d="M127.5 54.5c5.673-.002 7.34 2.665 5 8-1.667 1.333-3.333 1.333-5 0-1.203-2.66-1.203-5.327 0-8z"/><path style="opacity:1" fill="#323232" d="M172.5 54.5c2.165-.384 3.832.283 5 2-2 1.333-4 1.333-6 0 .363-.684.696-1.35 1-2z"/><path style="opacity:1" fill="#2f2f2f" d="M187.5 54.5c1.644-.214 3.144.12 4.5 1 .769 2.6.602 5.1-.5 7.5-1.612.72-3.112.554-4.5-.5-.722-2.76-.555-5.427.5-8z"/><path style="opacity:1" fill="#2c2c2c" d="M203.5 54.5c1.644-.214 3.144.12 4.5 1 .769 2.6.602 5.1-.5 7.5-1.612.72-3.112.554-4.5-.5-.722-2.76-.555-5.427.5-8z"/><path style="opacity:1" fill="#323232" d="M219.5 54.5c2.165-.384 3.832.283 5 2-2 1.333-4 1.333-6 0 .363-.684.696-1.35 1-2z"/><path style="opacity:1" fill="#292929" d="M302.5 54.5c1.644-.214 3.144.12 4.5 1 .769 2.6.602 5.1-.5 7.5-1.612.72-3.112.554-4.5-.5-.722-2.76-.555-5.427.5-8z"/><path style="opacity:1" fill="#2a2a2a" d="M20.5 57.5c3.14-.592 5.474.408 7 3a4.938 4.938 0 0 1-1 2.5 18.436 18.436 0 0 1-6 .5v-6z"/><path style="opacity:1" fill="#2b2b2b" d="M48.5 59.5h4c.116 3.41-1.55 4.744-5 4-.067-1.459.266-2.792 1-4zM267.5 59.5h4c.116 3.41-1.55 4.744-5 4-.067-1.459.266-2.792 1-4z"/></svg>