<svg xmlns="http://www.w3.org/2000/svg" width="358" height="280" style="shape-rendering:geometricPrecision;text-rendering:geometricPrecision;image-rendering:optimizeQuality;fill-rule:evenodd;clip-rule:evenodd"><path style="opacity:1" fill="#07182b" d="M-.5-.5h358v280H-.5V-.5z"/><path style="opacity:1" fill="#f2f3f4" d="M40.5 45.5h276v4h-276v-4z"/><path style="opacity:1" fill="#55bcef" d="M187.5 68.5c1.322-.17 2.489.163 3.5 1l23 56c1.174 4.161-.159 5.495-4 4l-5.5-13c-8.559-.68-17.059-1.347-25.5-2-.684-1.284-.517-2.451.5-3.5l23-1a1818.504 1818.504 0 0 0-14-31.5 429434.06 429434.06 0 0 1-21.5 51c-2.085 1.147-3.585.48-4.5-2a2354.729 2354.729 0 0 1 25-59z"/><path style="opacity:1" fill="#5be" d="M41.5 68.5c9.006-.166 18.006 0 27 .5C78.644 72.172 82.477 79.005 80 89.5c-.883 2.602-2.383 4.77-4.5 6.5 9.44 6.91 11.606 15.743 6.5 26.5a25.558 25.558 0 0 1-6.5 5.5 218.317 218.317 0 0 1-35 1.5c-.167-14.67 0-29.337.5-44 1.333-1.333 2.667-1.333 4 0 .5 12.996.667 25.996.5 39 9.747.42 19.414-.08 29-1.5 8.326-7.856 7.992-15.189-1-22a168.857 168.857 0 0 0-24-2c-1.333-1.333-1.333-2.667 0-4 7.438-.07 14.772-.737 22-2 7.485-8.245 6.151-14.578-4-19l-26-1c-1.228-1.49-1.228-2.99 0-4.5z"/><path style="opacity:1" fill="#57bff3" d="M104.5 68.5c1.322-.17 2.489.163 3.5 1a870.065 870.065 0 0 1 0 59c-1.333 1.333-2.667 1.333-4 0a607.96 607.96 0 0 1 .5-60z"/><path style="opacity:1" fill="#54b9ec" d="M113.5 68.5c7.008-.166 14.008 0 21 .5 11.846 4.86 15.679 13.36 11.5 25.5a20.233 20.233 0 0 1-7.5 7.5 129.006 129.006 0 0 1-26 1.5c-.214-1.644.12-3.144 1-4.5 8.103-.063 16.103-.73 24-2 6.354-5.129 7.52-11.296 3.5-18.5a11.529 11.529 0 0 0-4.5-3.5 106.872 106.872 0 0 0-24-1.5c-.134-1.791.199-3.458 1-5z"/><path style="opacity:1" fill="#53b7ea" d="M237.5 68.5a72.442 72.442 0 0 1 12 .5c.88 1.356 1.214 2.856 1 4.5a84.94 84.94 0 0 1-13-.5c-1.228-1.49-1.228-2.99 0-4.5z"/><path style="opacity:1" fill="#56bdf1" d="M274.5 68.5c1.871.359 3.371 1.359 4.5 3a964.518 964.518 0 0 1 20.5 31c-1.286 2.071-2.953 2.404-5 1l-15.5-23-1 48c-1.333 1.333-2.667 1.333-4 0a607.96 607.96 0 0 1 .5-60z"/><path style="opacity:1" fill="#5be" d="M312.5 68.5c1.322-.17 2.489.163 3.5 1a870.065 870.065 0 0 1 0 59c-1.667 2.667-3.333 2.667-5 0a179.617 179.617 0 0 0-10-15 10.098 10.098 0 0 1-1.5-6 8.43 8.43 0 0 1 4 .5 183.542 183.542 0 0 1 7.5 10.5c.181-16.74.681-33.407 1.5-50z"/><path style="opacity:1" fill="#59c3f8" d="M241.5 77.5h4v44h-4v-44z"/><path style="opacity:1" fill="#5be" d="M130.5 106.5c1.871.359 3.371 1.359 4.5 3a131.744 131.744 0 0 0 11 16 8.43 8.43 0 0 1 .5 4 8.43 8.43 0 0 1-4-.5 170.369 170.369 0 0 1-12.5-17.5c-.64-1.765-.473-3.432.5-5z"/><path style="opacity:1" fill="#53b7e9" d="M237.5 125.5h13c.214 1.644-.12 3.144-1 4.5-4 .667-8 .667-12 0-1.228-1.49-1.228-2.99 0-4.5z"/><path style="opacity:1" fill="#e6e7e9" d="M186.5 151.5c1.322-.17 2.489.163 3.5 1a81.329 81.329 0 0 1 6.5 20c-2.09.05-3.423-.95-4-3a25.879 25.879 0 0 0-10-1c.333 3-1 4.333-4 4a94.819 94.819 0 0 1 8-21z"/><path style="opacity:1" fill="#e1e3e5" d="M42.5 151.5c.996-.086 1.83.248 2.5 1a90.496 90.496 0 0 1 0 19c-1.011.837-2.178 1.17-3.5 1a116.746 116.746 0 0 1 1-21z"/><path style="opacity:1" fill="#f5f6f7" d="M64.5 151.5c2.403-.107 4.237.893 5.5 3a78.703 78.703 0 0 0 9 12c.5-4.989.666-9.989.5-15h3v21c-2.763-.244-4.93-1.577-6.5-4a102.223 102.223 0 0 1-8-11c-.5 4.989-.666 9.989-.5 15h-3v-21z"/><path style="opacity:1" fill="#e1e3e6" d="M102.5 151.5c.996-.086 1.829.248 2.5 1 .5 6.658.666 13.325.5 20-1.322.17-2.489-.163-3.5-1-.792-6.747-.626-13.414.5-20z"/><path style="opacity:1" fill="#e3e5e7" d="M123.5 151.5c5.344-.166 10.677.001 16 .5 1.333.667 1.333 1.333 0 2a18.453 18.453 0 0 1-6 .5 145.053 145.053 0 0 1-.5 17c-1.011.837-2.178 1.17-3.5 1v-18a13.116 13.116 0 0 1-7-1c.363-.683.696-1.35 1-2z"/><path style="opacity:1" fill="#e1e3e5" d="M158.5 151.5c.996-.086 1.829.248 2.5 1a90.455 90.455 0 0 1 0 19c-1.011.837-2.178 1.17-3.5 1a116.8 116.8 0 0 1 1-21z"/><path style="opacity:1" fill="#e6e7e9" d="M210.5 151.5h17v3h-7v18c-1.322.17-2.489-.163-3.5-1a145.053 145.053 0 0 1-.5-17h-6v-3z"/><path style="opacity:1" fill="#e0e2e4" d="M245.5 151.5c.996-.086 1.829.248 2.5 1 .5 6.658.666 13.325.5 20h-4a116.8 116.8 0 0 1 1-21z"/><path style="opacity:1" fill="#eaebed" d="M266.5 151.5c.996-.086 1.829.248 2.5 1a205.566 205.566 0 0 0 6 15 205.566 205.566 0 0 1 6-15c1.545-1.321 2.711-.988 3.5 1a620.996 620.996 0 0 1-8 18.5c-1.933.783-3.433.283-4.5-1.5a523.513 523.513 0 0 0-6.5-17c.363-.683.696-1.35 1-2z"/><path style="opacity:1" fill="#e7e9ea" d="M302.5 151.5h15v3h-12v6h10v3h-10v6a60.931 60.931 0 0 1 11 .5c.457.414.791.914 1 1.5-5.219 1.304-10.386 1.304-15.5 0-.792-6.747-.626-13.414.5-20z"/><path style="opacity:1" fill="#222f41" d="M187.5 157.5c2.085 2.184 3.085 4.851 3 8h-6c.222-3.004 1.222-5.671 3-8z"/><path style="opacity:1" fill="#eff0f1" d="M41.5 192.5h275v4h-276c-.067-1.459.266-2.792 1-4z"/><path style="opacity:1" fill="#e6e7e9" d="M76.5 216.5c2.412-.363 3.912.637 4.5 3l6.5 17c-.333 1-1 1.667-2 2-1.45-1.155-2.45-2.655-3-4.5-3-.667-6-.667-9 0-.55 1.845-1.55 3.345-3 4.5-1-.333-1.667-1-2-2a360.099 360.099 0 0 1 8-20z"/><path style="opacity:1" fill="#eaebed" d="M103.5 216.5c1.953 5.574 2.62 11.574 2 18a40.914 40.914 0 0 1 9 .5c1.333 1 1.333 2 0 3-3.923.793-7.756.626-11.5-.5-.795-7.08-.628-14.08.5-21z"/><path style="opacity:1" fill="#dbdee1" d="M130.5 216.5c.996-.086 1.829.248 2.5 1 .499 5.657.666 11.324.5 17a32.462 32.462 0 0 1 8 .5c1.333 1 1.333 2 0 3-3.923.793-7.756.626-11.5-.5-.795-7.08-.628-14.08.5-21z"/><path style="opacity:1" fill="#dfe1e4" d="M157.5 216.5c.996-.086 1.829.248 2.5 1 .5 6.658.666 13.325.5 20h-4a116.8 116.8 0 0 1 1-21z"/><path style="opacity:1" fill="#ecedef" d="M183.5 217.5c1.322-.17 2.489.163 3.5 1a103.559 103.559 0 0 1 7.5 20c-2.821.184-4.488-1.149-5-4-4.851-1.954-8.517-.787-11 3.5a4.934 4.934 0 0 1-3 .5 99.983 99.983 0 0 1 8-21z"/><path style="opacity:1" fill="#f4f5f5" d="M221.5 230.5c.283.789.783 1.456 1.5 2 .499-4.655.666-9.321.5-14 .709-.904 1.709-1.237 3-1 .166 6.675 0 13.342-.5 20a3.647 3.647 0 0 1-1.5 1 252.098 252.098 0 0 1-12.5-14l-1 13a3.647 3.647 0 0 1-1.5 1 111.148 111.148 0 0 1-1-21 4.934 4.934 0 0 1 3 .5 174.328 174.328 0 0 1 10 12.5z"/><path style="opacity:1" fill="#dcdee1" d="M273.5 217.5h15v3h-12v5c3.35-.165 6.683.002 10 .5 1.333 1 1.333 2 0 3-3.317.498-6.65.665-10 .5v5a60.931 60.931 0 0 1 11 .5c.837 1.011 1.17 2.178 1 3.5a55.155 55.155 0 0 1-14.5-1c-.5-6.658-.666-13.325-.5-20z"/><path style="opacity:1" fill="#e7e9eb" d="M248.5 217.5c4.066.346 7.899.679 11.5 1 1.111 7.818-.389 8.652-4.5 2.5-9.701-.779-12.701 3.387-9 12.5 4.255 3.867 8.588 3.867 13 0 1.021.502 1.188 1.168.5 2-6.947 4.524-13.28 3.858-19-2-2.58-7.773-.08-13.106 7.5-16z"/><path style="opacity:1" fill="#68727e" d="M223.5 218.5a98.432 98.432 0 0 1-.5 14c-.717-.544-1.217-1.211-1.5-2l2-12z"/><path style="opacity:1" fill="#1b293b" d="M77.5 221.5a55.669 55.669 0 0 1 4 8c-2.333 1.333-4.667 1.333-7 0 1.4-2.535 2.4-5.202 3-8z"/><path style="opacity:1" fill="#142235" d="M187.5 229.5c-1.667 1.333-3.333 1.333-5 0 1.667-9.333 3.333-9.333 5 0z"/><path style="opacity:1" fill="#8c949c" d="M182.5 229.5c1.667 1.333 3.333 1.333 5 0 .543.06.876.393 1 1-2.333 1.333-4.667 1.333-7 0 .124-.607.457-.94 1-1z"/></svg>