<svg xmlns="http://www.w3.org/2000/svg" width="300" height="300" style="shape-rendering:geometricPrecision;text-rendering:geometricPrecision;image-rendering:optimizeQuality;fill-rule:evenodd;clip-rule:evenodd"><path style="opacity:1" fill="#231f20" d="M-.5-.5h134c-.996 1.165-2.329 1.832-4 2-5.086-1.49-10.086-1.324-15 .5 4.371.172 8.704.672 13 1.5a165.984 165.984 0 0 1-21 1l1 2 20 2a75.637 75.637 0 0 0-16 1c-5.321.656-9.987 2.656-14 6-4.438 2.857-7.438 6.857-9 12-5.302.83-10.636 1.33-16 1.5-6.833 1.247-12.166 4.748-16 10.5 1.189.929 2.522 1.262 4 1v2c-10.894 3.464-13.894 10.464-9 21v1c-18.698 6.404-27.032 19.404-25 39h-3c-15.17.032-21.003 7.365-17.5 22 2.294 4.039 5.46 7.039 9.5 9-1.643-.02-2.976.647-4 2a22.132 22.132 0 0 0-6-3c2.415-1.509 2.581-3.176.5-5-.589 2.363-2.089 3.363-4.5 3 .215-1.679-.452-2.679-2-3V-.5z"/><path style="opacity:1" fill="#231f20" d="M133.5-.5h166v192c-2.62 4.278-6.287 7.611-11 10-1.334 2.318-.668 3.985 2 5-.825.886-1.825 1.219-3 1-2.021-5.338-.521-9.671 4.5-13 5.275-9.675 6.942-20.009 5-31-4.302-6.98-8.635-13.98-13-21a178.34 178.34 0 0 1 1.5-16.5c-.33-11.492-4.83-20.992-13.5-28.5.81-10.918-3.023-19.752-11.5-26.5a133.86 133.86 0 0 0-9.5-5.5 10.414 10.414 0 0 1-1.5-5c2.327-13.872-3.007-23.705-16-29.5a126.691 126.691 0 0 0-23-3.5c-3.319-8.488-9.319-13.988-18-16.5-17.206-4.153-31.706.347-43.5 13.5-9.967-11.23-22.467-16.23-37.5-15a75.637 75.637 0 0 1 16-1l-20-2-1-2c6.949.114 13.949-.22 21-1a86.703 86.703 0 0 0-13-1.5c4.914-1.824 9.914-1.99 15-.5 1.671-.168 3.004-.835 4-2z"/><path style="opacity:1" fill="#cbf9f8" d="M111.5 9.5c15.033-1.23 27.533 3.77 37.5 15 11.794-13.153 26.294-17.653 43.5-13.5 8.681 2.512 14.681 8.012 18 16.5a126.691 126.691 0 0 1 23 3.5c12.993 5.795 18.327 15.628 16 29.5a10.414 10.414 0 0 0 1.5 5 133.86 133.86 0 0 1 9.5 5.5c8.477 6.748 12.31 15.582 11.5 26.5 8.67 7.508 13.17 17.008 13.5 28.5a178.34 178.34 0 0 0-1.5 16.5c4.365 7.02 8.698 14.02 13 21 1.942 10.991.275 21.325-5 31-5.021 3.329-6.521 7.662-4.5 13 1.044 10.053-2.29 18.219-10 24.5a20.093 20.093 0 0 1-6 1.5c.498 18.804-8.502 30.304-27 34.5-3.317.498-6.65.665-10 .5-1.484 6.005-4.818 10.838-10 14.5-6.09 3.262-12.424 5.429-19 6.5-19.87 2.374-37.203-2.959-52-16 4.663 1.003 9.163 1.003 13.5 0a2.428 2.428 0 0 0 .5-2 104.272 104.272 0 0 0 17 6.5c6.658.5 13.325.666 20 .5 1.291.237 2.291-.096 3-1a28.322 28.322 0 0 0 10-3c.886-.825 1.219-1.825 1-3 1.291.237 2.291-.096 3-1a148.31 148.31 0 0 0 4.5-10c1.995-2.247 4.495-3.247 7.5-3h3c18.503-1.281 27.003-11.281 25.5-30 2.875-2.963 6.375-4.796 10.5-5.5a15.83 15.83 0 0 0 3.5-5.5c.073-5.671.073-11.338 0-17 1.847-5.708 4.68-10.708 8.5-15v-3c1.431-.381 2.264-1.381 2.5-3 1.546-9.902-1.62-17.902-9.5-24l-2-3c-.104-2.203-.77-4.203-2-6v-12c1.242-1.889 1.242-3.889 0-6 .904-.709 1.237-1.709 1-3a30.84 30.84 0 0 0-3.5-12c-8.652-7.277-12.652-16.61-12-28a43.368 43.368 0 0 0-13.5-9.5c-6.361-5.92-8.361-13.087-6-21.5-1.415-7.25-5.749-11.75-13-13.5-5.849-.818-11.515-.652-17 .5-5.727-4.394-10.393-9.727-14-16-4.169-3.216-9.002-4.55-14.5-4-6.189-.436-11.689 1.23-16.5 5-1.69.356-2.69 1.356-3 3l-4 3h-1a525.313 525.313 0 0 1-10-2c-1.355.688-2.355 1.688-3 3-5.065-5.219-11.065-9.052-18-11.5-7.501-1.01-14.835-.51-22 1.5-.17-1.322.163-2.489 1-3.5l7-1c-.825-1.688-1.825-1.855-3-.5-3.45-1.724-7.117-2.39-11-2 4.013-3.344 8.679-5.344 14-6z"/><path style="opacity:1" fill="#242020" d="M143.5 32.5c.333 76.835-.001 153.502-1 230 .167-24.336 0-48.669-.5-73a6.547 6.547 0 0 1-3-3 88.715 88.715 0 0 0-3.5-11h-4a89.313 89.313 0 0 1 5 16h-4a12.93 12.93 0 0 0-.5-5c-1.052 3.687.115 6.354 3.5 8-1.505 1.342-2.172 3.008-2 5-3.475-11.477-10.808-19.477-22-24-2.405-1.268-5.072-1.935-8-2h-1l4-31v-4c17.27-1.101 24.103-10.101 20.5-27-4.908-9.341-12.408-13.007-22.5-11-2.741.207-5.074 1.207-7 3-2.97 1.943-4.97 4.609-6 8-3.29 8.999-1.29 16.832 6 23.5a23.42 23.42 0 0 0 6 2.5 17.11 17.11 0 0 1 1 5 657.292 657.292 0 0 0-4 31c-11.847.172-21.013 5.172-27.5 15l-8.5-6.5a19.209 19.209 0 0 0 3-6.5c2.054-6.106.721-11.44-4-16-11.9-9.216-21.734-7.216-29.5 6-1.813 16.854 5.688 24.354 22.5 22.5l7-3.5a53.286 53.286 0 0 1 7.5 5c-6.457 20.394-.624 36.061 17.5 47a6.845 6.845 0 0 1-4-1 32.367 32.367 0 0 1-4.5 3 15.252 15.252 0 0 0-4.5-1.5 52.011 52.011 0 0 1-4-8.5h-3a6.846 6.846 0 0 0 1 4c-.825.886-1.825 1.219-3 1-8.722-11.849-19.889-14.849-33.5-9-5.629.039-9.295-2.628-11-8a35.633 35.633 0 0 1 .5-13c-.174-7.015-3.008-12.682-8.5-17-2.368-6.478-3.035-13.145-2-20a307.543 307.543 0 0 0 12.5-20c17.65-5.621 24.817-17.621 21.5-36a36.679 36.679 0 0 0-8-12c-2.219-10.564 1.614-17.897 11.5-22 14.403 6.475 25.903 3.142 34.5-10 4.158-9.581 2.992-18.415-3.5-26.5 5.011.095 9.678-1.072 14-3.5 3.01-4.695 6.011-9.362 9-14 7.165-2.01 14.499-2.51 22-1.5 6.935 2.448 12.935 6.281 18 11.5z"/><path style="opacity:1" fill="#231f20" d="M195.5 24.5c-.163 2.357.003 4.69.5 7a466.906 466.906 0 0 0 18.5 18c-.404 1.256-1.071 2.423-2 3.5l1 1.5 2-2a88.844 88.844 0 0 1 0 26c-3.573 7.278-1.239 10.11 7 8.5.556-.383.889-.883 1-1.5 1.333 2.333 1.333 4.667 0 7-1.277-1.398-2.943-2.064-5-2-1.855-.16-3.188.507-4 2-1.193.47-1.86 1.47-2 3a94.906 94.906 0 0 0 1 5.5c-.637 19.489-1.304 38.989-2 58.5a311.753 311.753 0 0 1 0-49.5c-.13-1.059-.63-1.892-1.5-2.5l-1 4c-.667 16-.667 32 0 48 1.487.655 2.653 1.655 3.5 3-1.859-.388-3.859-.388-6 0-2.358-1.787-5.025-2.787-8-3 .388-2.185 1.388-4.018 3-5.5a3.943 3.943 0 0 0-1-2c-3.237.059-6.237.892-9 2.5-2.932-1.3-5.266-3.3-7-6-.167-10.672 0-21.339.5-32 .717-.544 1.217-1.211 1.5-2 1.581-1.642 2.247-3.642 2-6 .088-3.023 1.088-5.69 3-8-.825-.886-1.825-1.219-3-1 .408-3.1-.759-5.433-3.5-7l-1-29-19-19c-.5-6.325-.666-12.658-.5-19 4.811-3.77 10.311-5.436 16.5-5 5.498-.55 10.331.784 14.5 4z"/><path style="opacity:1" fill="#e5bf66" d="M164.5 25.5c-.166 6.342 0 12.675.5 19l19 19 1 29c2.741 1.567 3.908 3.9 3.5 7-2.4 2.74-5.4 3.573-9 2.5-1.516-1.897-2.183-4.064-2-6.5.765-1.16 1.765-2.16 3-3 1.323-9.825 1.323-19.492 0-29a6.544 6.544 0 0 0-3-3h-1a302.147 302.147 0 0 0-14.5-15 145.05 145.05 0 0 1-.5-17c.31-1.644 1.31-2.644 3-3z"/><path style="opacity:1" fill="#242020" d="M274.5 124.5a63.707 63.707 0 0 1-7-6.5l-7-1c-.556-.383-.889-.883-1-1.5-3.547-1.87-6.547-4.537-9-8 1.552-2.211 3.052-1.878 4.5 1 .684-1.284.517-2.451-.5-3.5 2.112-.906 2.945-2.406 2.5-4.5-2.388-.61-4.888-1.443-7.5-2.5l3.5 3.5c.688.832.521 1.498-.5 2-2.077-2.738-4.743-4.738-8-6-.683.363-1.35.696-2 1a54.547 54.547 0 0 1-6.5-6c.538-6.467-2.296-8.967-8.5-7.5-2.559 2.925-2.559 5.925 0 9l7 1 10.5 10.5c1.216 5.532.383 10.532-2.5 15-2.219 1.565-2.552 3.565-1 6a13.116 13.116 0 0 1-7 1c1.147 3 1.313 6 .5 9 2.307 1.954 4.307 1.954 6 0a11.803 11.803 0 0 1 3.5 2 289.73 289.73 0 0 1 12 15.5c6.992.5 13.992.666 21 .5 7.88 6.098 11.046 14.098 9.5 24-.236 1.619-1.069 2.619-2.5 3a66.803 66.803 0 0 1-18.5 0c-1.885.362-2.719 1.529-2.5 3.5 1.132 4.256 3.132 4.589 6 1a68.766 68.766 0 0 1 15-1.5c-3.82 4.292-6.653 9.292-8.5 15 .073 5.662.073 11.329 0 17a15.83 15.83 0 0 1-3.5 5.5c-4.125.704-7.625 2.537-10.5 5.5 1.503 18.719-6.997 28.719-25.5 30a2449.238 2449.238 0 0 1 19.5-64c5.258-1.368 6.758-4.534 4.5-9.5a10.258 10.258 0 0 0-4-1.5c-1.655.728-3.321.895-5 .5a487.096 487.096 0 0 0-25-16c-1.504-1.491-2.337-3.324-2.5-5.5-.816-1.323-1.983-1.989-3.5-2-.167-19.669 0-39.336.5-59 3.325-1.979 4.158-4.645 2.5-8 1.333-2.333 1.333-4.667 0-7 1.669-2.989 1.003-5.322-2-7a394.262 394.262 0 0 1-1.5-28 49.876 49.876 0 0 1-10.5-10c5.485-1.152 11.151-1.318 17-.5 7.251 1.75 11.585 6.25 13 13.5-2.361 8.413-.361 15.58 6 21.5a43.368 43.368 0 0 1 13.5 9.5c-.652 11.39 3.348 20.723 12 28a30.84 30.84 0 0 1 3.5 12z"/><path style="opacity:1" fill="#f3c567" d="M60.5 42.5c12.478 1.332 16.644 7.999 12.5 20-6.87 7.58-14.037 7.913-21.5 1-4.894-10.536-1.894-17.536 9-21z"/><path style="opacity:1" fill="#ac955e" d="M63.5 46.5c-1.585.974-2.585 2.474-3 4.5-2.34.748-4.34.248-6-1.5.79-.901 1.79-1.568 3-2-.219 1.175.114 2.175 1 3 .929-1.189 1.262-2.522 1-4 1.461-1.186 2.795-1.186 4 0z"/><path style="opacity:1" fill="#442315" d="M59.5 46.5c.262 1.478-.071 2.811-1 4-.886-.825-1.219-1.825-1-3 .342-.838 1.008-1.172 2-1z"/><path style="opacity:1" fill="#292020" d="M63.5 46.5c1.617 1.09 2.45 2.756 2.5 5 .604-4.72 2.104-4.72 4.5 0v4c-1.322-.17-2.489.163-3.5 1a24.939 24.939 0 0 0-.5 7h-1c-1.869-2.135-2.536-4.802-2-8-1.603-.188-2.937.312-4 1.5 1.791 2.106 2.458 4.606 2 7.5-2.053.098-3.72-.569-5-2v-7h-3v-3a5.728 5.728 0 0 1 1-3c1.66 1.748 3.66 2.248 6 1.5.415-2.026 1.415-3.526 3-4.5z"/><path style="opacity:1" fill="#424d50" d="M156.5 31.5h1a258.688 258.688 0 0 0-1 31c-1.318-10.235-1.318-20.569 0-31z"/><path style="opacity:1" fill="#826d3f" d="M70.5 51.5c1.443 4.884.11 8.884-4 12-.163-2.357.003-4.69.5-7 1.011-.837 2.178-1.17 3.5-1v-4z"/><path style="opacity:1" fill="#927c46" d="M53.5 52.5v3h3v7c-3.758-2.603-4.758-5.936-3-10z"/><path style="opacity:1" fill="#241f1e" d="M161.5 28.5a145.05 145.05 0 0 0 .5 17 302.147 302.147 0 0 1 14.5 15 360.496 360.496 0 0 1-4 10l-1.5 1c-3.681-1.438-4.181-3.438-1.5-6a3.647 3.647 0 0 0-1-1.5h4c-1.168-1.406-.835-2.572 1-3.5l-1.5-1a99.649 99.649 0 0 1-6.5 4l1 2c-1.353 1.024-2.02 2.357-2 4a35.079 35.079 0 0 0-8-6v-1a258.688 258.688 0 0 1 1-31l4-3z"/><path style="opacity:1" fill="#9a7e4b" d="M65.5 63.5c-1.068.934-2.401 1.268-4 1 .458-2.894-.209-5.394-2-7.5 1.063-1.188 2.397-1.688 4-1.5-.536 3.198.131 5.865 2 8z"/><path style="opacity:1" fill="#3c3a2b" d="M60.5 40.5c12.567 1.725 17.4 8.725 14.5 21-4.255 7.04-10.422 9.54-18.5 7.5-2.16-.996-3.827-2.496-5-4.5v-1c7.463 6.913 14.63 6.58 21.5-1 4.144-12.001-.022-18.668-12.5-20v-2z"/><path style="opacity:1" fill="#2b1f0d" d="M214.5 49.5c.958.453 1.792 1.12 2.5 2 .667 8.667.667 17.333 0 26-.383.556-.883.89-1.5 1a88.844 88.844 0 0 0 0-26l-2 2-1-1.5c.929-1.077 1.596-2.244 2-3.5z"/><path style="opacity:1" fill="#271f15" d="M177.5 60.5a6.544 6.544 0 0 1 3 3c-1.65 8.63-2.65 17.63-3 27a117.304 117.304 0 0 1 0-30z"/><path style="opacity:1" fill="#251d24" d="M176.5 60.5h1a117.304 117.304 0 0 0 0 30c.35-9.37 1.35-18.37 3-27 1.323 9.508 1.323 19.175 0 29-1.235.84-2.235 1.84-3 3-.79 1.109-1.29 2.442-1.5 4l-2-4a217.94 217.94 0 0 0-1.5-18 279.003 279.003 0 0 0 3-4.5l-1-1.5c-1.926 3.035-3.926 3.368-6 1l-4-3c-.02-1.643.647-2.976 2-4l-1-2a99.649 99.649 0 0 0 6.5-4l1.5 1c-1.835.928-2.168 2.094-1 3.5h-4c.457.414.791.914 1 1.5-2.681 2.562-2.181 4.562 1.5 6l1.5-1a360.496 360.496 0 0 0 4-10z"/><path style="opacity:1" fill="#eac364" d="M195.5 24.5c3.607 6.273 8.273 11.606 14 16a49.876 49.876 0 0 0 10.5 10c.168 9.351.668 18.684 1.5 28 3.003 1.678 3.669 4.011 2 7-.111.617-.444 1.117-1 1.5-8.239 1.61-10.573-1.222-7-8.5.617-.11 1.117-.444 1.5-1 .667-8.667.667-17.333 0-26-.708-.88-1.542-1.547-2.5-2a466.906 466.906 0 0 1-18.5-18 24.935 24.935 0 0 1-.5-7z"/><path style="opacity:1" fill="#ddb865" d="M156.5 63.5a35.079 35.079 0 0 1 8 6l4 3v31a284.047 284.047 0 0 1-1.5-24l-1 26a25.14 25.14 0 0 1-4.5 4 11.743 11.743 0 0 1 3-5c1.159-10.158 1.325-20.492.5-31a90.524 90.524 0 0 0-9.5-7c-.237-1.291.096-2.291 1-3z"/><path style="opacity:1" fill="#ecc266" d="M242.5 98.5a46.081 46.081 0 0 0 5.5 6l1 13c4.006 2.539 4.506 5.706 1.5 9.5-5.831 1.666-8.498-.501-8-6.5 2.883-4.468 3.716-9.468 2.5-15L234.5 95l-7-1c-2.559-3.075-2.559-6.075 0-9 6.204-1.467 9.038 1.033 8.5 7.5a54.547 54.547 0 0 0 6.5 6z"/><path style="opacity:1" fill="#3c3623" d="M23.5 103.5h3c8.802 4.597 11.802 11.597 9 21 1.387-10.24-2.613-17.24-12-21z"/><path style="opacity:1" fill="#eec266" d="M23.5 103.5c9.387 3.76 13.387 10.76 12 21-2.194 1.702-3.86 3.869-5 6.5-4.553 3.008-9.553 4.174-15 3.5-4.04-1.961-7.206-4.961-9.5-9-3.503-14.635 2.33-21.968 17.5-22z"/><path style="opacity:1" fill="#9c885f" d="M23.5 107.5c1.21.432 2.21 1.099 3 2-1.288 1.535-1.288 3.201 0 5 .929-1.189 1.262-2.522 1-4 .667 0 1 .333 1 1v4c-1.51 1.228-3.01 1.228-4.5 0a32.438 32.438 0 0 1-.5-8z"/><path style="opacity:1" fill="#252018" d="M214.5 92.5c-1.263 3.18-.429 5.847 2.5 8 .5 19.664.667 39.331.5 59h-1c.333-19.345 0-38.678-1-58-1.328 19.496-1.328 38.829 0 58-2.615 2.76-2.615 5.593 0 8.5 5.435-.405 10.102 1.095 14 4.5-.996-.086-1.829.248-2.5 1-.576-2.624-1.91-3.291-4-2-1.009-1.158-2.342-1.825-4-2-1.385.014-2.551.348-3.5 1-2.761-2.485-6.094-3.652-10-3.5a255.48 255.48 0 0 1-14-12.5c2.763-1.608 5.763-2.441 9-2.5a3.943 3.943 0 0 1 1 2c-1.612 1.482-2.612 3.315-3 5.5 2.975.213 5.642 1.213 8 3 2.141-.388 4.141-.388 6 0-.847-1.345-2.013-2.345-3.5-3-.667-16-.667-32 0-48l1-4c.87.608 1.37 1.441 1.5 2.5a311.753 311.753 0 0 0 0 49.5c.696-19.511 1.363-39.011 2-58.5a94.906 94.906 0 0 1-1-5.5c.14-1.53.807-2.53 2-3z"/><path style="opacity:1" fill="#1e1f28" d="M216.5 159.5h-1c-1.328-19.171-1.328-38.504 0-58 1 19.322 1.333 38.655 1 58z"/><path style="opacity:1" fill="#dfb965" d="M223.5 92.5c1.658 3.355.825 6.021-2.5 8-.5 19.664-.667 39.331-.5 59a1726.672 1726.672 0 0 1-1.5-59 1726.672 1726.672 0 0 1-1.5 59c.167-19.669 0-39.336-.5-59-2.929-2.153-3.763-4.82-2.5-8 .812-1.493 2.145-2.16 4-2 2.057-.064 3.723.602 5 2z"/><path style="opacity:1" fill="#927c4f" d="M13.5 109.5a13.118 13.118 0 0 1-1 7 111.488 111.488 0 0 0-2-5c.79-.901 1.79-1.568 3-2z"/><path style="opacity:1" fill="#391f03" d="M26.5 109.5c.667 0 1 .333 1 1 .262 1.478-.071 2.811-1 4-1.288-1.799-1.288-3.465 0-5z"/><path style="opacity:1" fill="#4b391b" d="M28.5 111.5c1.474.936 2.474 2.27 3 4h-3v-4z"/><path style="opacity:1" fill="#aa915f" d="M23.5 107.5a4.934 4.934 0 0 0-3 .5c1.102 2.401 1.269 4.901.5 7.5-1.333 1.333-2.667 1.333-4 0-.722-2.761-.555-5.427.5-8 2-1.333 4-1.333 6 0z"/><path style="opacity:1" fill="#26211b" d="M177.5 95.5c-.183 2.436.484 4.603 2 6.5 3.6 1.073 6.6.24 9-2.5 1.175-.219 2.175.114 3 1-1.912 2.31-2.912 4.977-3 8-2.4-2.74-5.4-3.573-9-2.5-2.855 3.222-2.521 6.056 1 8.5a225.771 225.771 0 0 1 1 30 2740.153 2740.153 0 0 1-2-17 267.06 267.06 0 0 0-1.5 23 7.293 7.293 0 0 1-2 3c.327-6.106.16-12.273-.5-18.5-.211-4.069.456-7.902 2-11.5a43.145 43.145 0 0 0-1.5-5c-.626 2.491-1.459 2.491-2.5 0-.798.457-1.131 1.124-1 2-4.659-4.468-8.326-3.801-11 2a343.58 343.58 0 0 1 1 4h-3c-.166 5.676.001 11.343.5 17 .171-5.364.671-10.698 1.5-16 1.294 6.359 1.294 12.692 0 19a20.992 20.992 0 0 0 2.5 6c.108-8.176.275-16.509.5-25 1.321 8.509 1.321 17.175 0 26-3.962 3.077-3.962 6.244 0 9.5 2.356.155 4.689.155 7 0a496.935 496.935 0 0 1 20 16.5c-2.458-.322-4.625-1.322-6.5-3-2.341.507-2.841 1.674-1.5 3.5 2.924.683 5.258 2.183 7 4.5-5.576 2.485-8.576.818-9-5a4.934 4.934 0 0 1-3-.5 14.705 14.705 0 0 0-4-5c2.831-6.529 2.165-7.029-2-1.5-1.842-6.604-5.342-7.604-10.5-3a8.43 8.43 0 0 0-.5 4c-.79-1.109-1.29-2.442-1.5-4-.667 24-.667 48 0 72-.158-22.356.675-44.356 2.5-66-.333 22.676 0 45.343 1 68 1-22.323 1.333-44.657 1-67a1190.252 1190.252 0 0 1 1 69c-4.764 1.471-6.931 4.804-6.5 10-.667-59-.667-118 0-177l1 17c1.31 3.315 2.81 6.315 4.5 9a11.743 11.743 0 0 0-3 5c1.118 4.754 4.118 6.254 9 4.5a9.201 9.201 0 0 0 2-4.5c-.991-2.307-2.324-4.307-4-6v-31c2.074 2.368 4.074 2.035 6-1l1 1.5a279.003 279.003 0 0 1-3 4.5 217.94 217.94 0 0 1 1.5 18l2 4c.21-1.558.71-2.891 1.5-4z"/><path style="opacity:1" fill="#f6cb65" d="M168.5 103.5c1.676 1.693 3.009 3.693 4 6a9.201 9.201 0 0 1-2 4.5c-4.882 1.754-7.882.254-9-4.5a25.14 25.14 0 0 0 4.5-4l1-26c.171 8.177.671 16.177 1.5 24z"/><path style="opacity:1" fill="#e8c168" d="M259.5 115.5c.111.617.444 1.117 1 1.5l7 1a63.707 63.707 0 0 0 7 6.5c.237 1.291-.096 2.291-1 3a63.707 63.707 0 0 1-7-6.5 72.645 72.645 0 0 0-11 0c-1.992-4.152-.659-5.985 4-5.5z"/><path style="opacity:1" fill="#a08856" d="M30.5 124.5a6.544 6.544 0 0 1-3 3 9.864 9.864 0 0 0-1-6c-1.293 2.136-1.293 4.136 0 6 .172.992-.162 1.658-1 2-1.89-2.336-2.39-5.002-1.5-8 3.505-1.755 5.672-.755 6.5 3z"/><path style="opacity:1" fill="#3f2b17" d="M27.5 127.5h-1c-1.293-1.864-1.293-3.864 0-6a9.864 9.864 0 0 1 1 6z"/><path style="opacity:1" fill="#72592b" d="M186.5 114.5c-.283.789-.783 1.456-1.5 2a511.925 511.925 0 0 0-.5 32c-1.159-10.826-1.326-21.826-.5-33 .671-.752 1.504-1.086 2.5-1z"/><path style="opacity:1" fill="#4d3921" d="M13.5 121.5c.319 2.25-.181 4.25-1.5 6-2.29-2.844-1.79-4.844 1.5-6z"/><path style="opacity:1" fill="#2b221a" d="M17.5 107.5c-1.055 2.573-1.222 5.239-.5 8 1.333 1.333 2.667 1.333 4 0 .769-2.599.602-5.099-.5-7.5a4.934 4.934 0 0 1 3-.5 32.438 32.438 0 0 0 .5 8c1.49 1.228 2.99 1.228 4.5 0h3c.236 3.109-.098 6.109-1 9-.828-3.755-2.995-4.755-6.5-3-.89 2.998-.39 5.664 1.5 8-3.636 1.327-7.303 1.327-11 0a24.78 24.78 0 0 0-1-8c-2.165-1.435-3.665-.769-4.5 2-.92-4.231-.42-8.231 1.5-12 .664 1.542 1.33 3.209 2 5a13.118 13.118 0 0 0 1-7c1.014-1.174 2.347-1.84 4-2z"/><path style="opacity:1" fill="#a38d5c" d="M17.5 120.5h3c-.386 10.541-1.386 10.541-3 0z"/><path style="opacity:1" fill="#452710" d="M18.5 109.5c1.15.291 1.816 1.124 2 2.5l-1 2.5c-.952-1.545-1.285-3.212-1-5z"/><path style="opacity:1" fill="#1f1f29" d="m162.5 126.5 2 1c-.225 8.491-.392 16.824-.5 25a20.992 20.992 0 0 1-2.5-6c1.294-6.308 1.294-12.641 0-19a130.373 130.373 0 0 0-1.5 16 145.053 145.053 0 0 1-.5-17h3z"/><path style="opacity:1" fill="#eac165" d="M172.5 120.5c.408 3.099-.759 5.433-3.5 7a113.23 113.23 0 0 0 .5 26 7.248 7.248 0 0 1 2.5 2 20.2 20.2 0 0 0 1.5 6 187.25 187.25 0 0 1 21.5 18 475.672 475.672 0 0 1 3 23c4.727 2.178 5.561 5.344 2.5 9.5-5.347 1.616-8.18-.217-8.5-5.5.81-1.806 1.976-3.306 3.5-4.5a1222.513 1222.513 0 0 1-4-22.5 496.935 496.935 0 0 0-20-16.5 52.745 52.745 0 0 1-7 0c-3.962-3.256-3.962-6.423 0-9.5 1.321-8.825 1.321-17.491 0-26l-2-1a343.58 343.58 0 0 0-1-4c2.674-5.801 6.341-6.468 11-2z"/><path style="opacity:1" fill="#2b241e" d="M259.5 115.5c-4.659-.485-5.992 1.348-4 5.5a72.645 72.645 0 0 1 11 0 63.707 63.707 0 0 0 7 6.5c1.242 2.111 1.242 4.111 0 6-6.63-.645-11.63-3.812-15-9.5-1.284-.684-2.451-.517-3.5.5-.743 1.941-.576 3.774.5 5.5 5.644 2.153 11.311 4.319 17 6.5.295 2.235-.039 4.235-1 6-9.066.458-15.066-3.709-18-12.5-1.667-.667-3.333-.667-5 0-1.261 3.446.072 5.446 4 6 3.254 2.747 5.92 5.914 8 9.5.02 1.643-.647 2.976-2 4a43.117 43.117 0 0 0 13 1c.058-4.201-.942-4.701-3-1.5-2 .667-4 .667-6 0 1.323-.816 1.989-1.983 2-3.5h9c1.23 1.797 1.896 3.797 2 6a81.883 81.883 0 0 1-18-1c-5.766-6.377-10.099-13.544-13-21.5-2.737-1.08-4.404-.246-5 2.5a40.731 40.731 0 0 1 5 7 11.803 11.803 0 0 0-3.5-2c-1.693 1.954-3.693 1.954-6 0 .813-3 .647-6-.5-9a13.116 13.116 0 0 0 7-1c-1.552-2.435-1.219-4.435 1-6-.498 5.999 2.169 8.166 8 6.5 3.006-3.794 2.506-6.961-1.5-9.5l-1-13a46.081 46.081 0 0 1-5.5-6c.65-.304 1.317-.637 2-1 3.257 1.262 5.923 3.262 8 6 1.021-.502 1.188-1.168.5-2l-3.5-3.5c2.612 1.057 5.112 1.89 7.5 2.5.445 2.094-.388 3.594-2.5 4.5 1.017 1.049 1.184 2.216.5 3.5-1.448-2.878-2.948-3.211-4.5-1 2.453 3.463 5.453 6.13 9 8z"/><path style="opacity:1" fill="#e8be67" d="M273.5 133.5v3h-1c-5.689-2.181-11.356-4.347-17-6.5-1.076-1.726-1.243-3.559-.5-5.5 1.049-1.017 2.216-1.184 3.5-.5 3.37 5.688 8.37 8.855 15 9.5z"/><path style="opacity:1" fill="#403a2e" d="M35.5 124.5c-3.422 9.057-10.089 13.057-20 12v-2c5.447.674 10.447-.492 15-3.5 1.14-2.631 2.806-4.798 5-6.5z"/><path style="opacity:1" fill="#e4be66" d="M271.5 142.5c.342.838 1.008 1.172 2 1v2h-13c-2.08-3.586-4.746-6.753-8-9.5-3.928-.554-5.261-2.554-4-6 1.667-.667 3.333-.667 5 0 2.934 8.791 8.934 12.958 18 12.5z"/><path style="opacity:1" fill="#cbfaf9" d="M97.5 15.5c3.883-.39 7.55.276 11 2 1.175-1.355 2.175-1.188 3 .5l-7 1c-.837 1.011-1.17 2.178-1 3.5-2.989 4.638-5.99 9.305-9 14-4.322 2.428-8.989 3.595-14 3.5 6.492 8.085 7.658 16.919 3.5 26.5-8.597 13.142-20.097 16.475-34.5 10-9.886 4.103-13.719 11.436-11.5 22a36.679 36.679 0 0 1 8 12c3.317 18.379-3.85 30.379-21.5 36a307.543 307.543 0 0 1-12.5 20c-1.035 6.855-.368 13.522 2 20 5.492 4.318 8.326 9.985 8.5 17a35.633 35.633 0 0 0-.5 13c1.705 5.372 5.371 8.039 11 8 13.611-5.849 24.778-2.849 33.5 9 2.932 7.815 2.599 15.482-1 23 6.64 2.27 10.14 6.936 10.5 14 2.559 3.031 5.726 5.198 9.5 6.5 21.785 5.45 40.785.617 57-14.5.999-76.498 1.333-153.165 1-230 .645-1.312 1.645-2.312 3-3 3.351.704 6.684 1.37 10 2-1.318 10.431-1.318 20.765 0 31v1c-.904.709-1.237 1.709-1 3-.167 65.001 0 130.001.5 195 3.438 3.941 7.271 7.275 11.5 10a2.428 2.428 0 0 1-.5 2c-4.337 1.003-8.837 1.003-13.5 0-1.871-.359-3.371-1.359-4.5-3-22.783 20.165-47.95 23.998-75.5 11.5-4.386-3.212-7.386-7.378-9-12.5a42.418 42.418 0 0 1-13-3.5c-2.43-2.305-3.43-5.138-3-8.5 10.523-4.811 12.69-12.144 6.5-22-3.83-3.628-8.33-4.795-13.5-3.5a37.04 37.04 0 0 0-10 7.5c-1.679-1.5-3.012-3.333-4-5.5-10.294-3.405-15.628-10.571-16-21.5 2.585-7.138 1.085-13.138-4.5-18-5.275-9.675-6.942-20.009-5-31a60.162 60.162 0 0 1 10-15c2.285-3.687 3.452-7.687 3.5-12 9.911 1.057 16.578-2.943 20-12 2.802-9.403-.198-16.403-9-21-2.032-19.596 6.302-32.596 25-39 1.173 2.004 2.84 3.504 5 4.5 8.078 2.04 14.245-.46 18.5-7.5 2.9-12.275-1.933-19.275-14.5-21-1.478.262-2.811-.071-4-1 3.834-5.752 9.167-9.253 16-10.5 5.364-.17 10.698-.67 16-1.5 1.562-5.143 4.562-9.143 9-12z"/><path style="opacity:1" fill="#edc165" d="M104.5 100.5c10.092-2.007 17.592 1.659 22.5 11 3.603 16.899-3.23 25.899-20.5 27v4c-.472-2.031-1.472-3.698-3-5a23.42 23.42 0 0 1-6-2.5c-7.29-6.668-9.29-14.501-6-23.5 1.677.683 2.343 2.017 2 4v6c-.237 1.291.096 2.291 1 3 .95 3.913 3.283 6.58 7 8l2 1c.342.838 1.008 1.172 2 1 2.333 1.333 4.667 1.333 7 0 .667 0 1-.333 1-1 1.291.237 2.291-.096 3-1h1a6.547 6.547 0 0 0 3-3 81.316 81.316 0 0 0 2.5-3c.539-5.366.372-10.366-.5-15-1.525-4.188-4.525-6.521-9-7-.709-.904-1.709-1.237-3-1-.667 9.333-1.333 9.333-2 0h-4a345.94 345.94 0 0 1 8-2 16.873 16.873 0 0 0-8-1z"/><path style="opacity:1" fill="#9e8a56" d="M120.5 129.5a6.547 6.547 0 0 1-3 3c.262-1.478-.071-2.811-1-4-1.282 1.458-1.282 2.792 0 4-.709.904-1.709 1.237-3 1v-5c.366-1.195 1.199-1.861 2.5-2 1.94.457 3.44 1.457 4.5 3z"/><path style="opacity:1" fill="#371e1a" d="M117.5 132.5h-1c-1.282-1.208-1.282-2.542 0-4 .929 1.189 1.262 2.522 1 4z"/><path style="opacity:1" fill="#ac925c" d="M112.5 134.5c-2.333 1.333-4.667 1.333-7 0h3a15.418 15.418 0 0 0-1-7c.825-.886 1.825-1.219 3-1-.536 3.198.131 5.865 2 8z"/><path style="opacity:1" fill="#95834a" d="M103.5 126.5v7l-2-1c.273-1.951-.393-3.451-2-4.5 1.063-1.188 2.397-1.688 4-1.5z"/><path style="opacity:1" fill="#292214" d="M113.5 128.5v5c0 .667-.333 1-1 1-1.869-2.135-2.536-4.802-2-8-1.175-.219-2.175.114-3 1a15.418 15.418 0 0 1 1 7h-3c-.992.172-1.658-.162-2-1v-7a168.522 168.522 0 0 1 2 6c1.206-1.984 1.206-3.984 0-6a168.028 168.028 0 0 1 6.5-2c.595 1.399.428 2.732-.5 4 .47.963 1.137.963 2 0z"/><path style="opacity:1" fill="#29221e" d="M104.5 103.5h4c.667 9.333 1.333 9.333 2 0 1.291-.237 2.291.096 3 1-1.037 5.137.796 6.803 5.5 5a11.803 11.803 0 0 1 3.5 2c.872 4.634 1.039 9.634.5 15a81.316 81.316 0 0 1-2.5 3c-1.06-1.543-2.56-2.543-4.5-3-1.301.139-2.134.805-2.5 2-.863.963-1.53.963-2 0 .928-1.268 1.095-2.601.5-4a168.028 168.028 0 0 0-6.5 2c1.206 2.016 1.206 4.016 0 6a168.522 168.522 0 0 0-2-6c-1.603-.188-2.937.312-4 1.5 1.607 1.049 2.273 2.549 2 4.5-3.717-1.42-6.05-4.087-7-8 1.803-1.504 2.803-3.504 3-6-.907-2.44-1.74-4.773-2.5-7a19.897 19.897 0 0 0 3.5-4c.788 1.27 1.788 2.27 3 3 .996.086 1.829-.248 2.5-1a12.93 12.93 0 0 0 .5-5v-1z"/><path style="opacity:1" fill="#a07f50" d="M100.5 114.5h3c-.386 10.541-1.386 10.541-3 0z"/><path style="opacity:1" fill="#b2915f" d="M114.5 114.5h3c-.386 10.541-1.386 10.541-3 0z"/><path style="opacity:1" fill="#b09b5f" d="M107.5 114.5h4v8c-1.644.214-3.144-.12-4.5-1-.703-2.429-.537-4.762.5-7z"/><path style="opacity:1" fill="#4b351f" d="M108.5 115.5c2.476 1.621 2.642 3.621.5 6a18.453 18.453 0 0 1-.5-6z"/><path style="opacity:1" fill="#312d1e" d="M93.5 115.5c1.194.47 1.86 1.47 2 3-.14 1.53-.806 2.53-2 3v-6z"/><path style="opacity:1" fill="#887f49" d="M104.5 104.5a12.93 12.93 0 0 1-.5 5c-.671.752-1.504 1.086-2.5 1l-1-4c.787-1.604 2.12-2.271 4-2z"/><path style="opacity:1" fill="#7d6840" d="M113.5 104.5c4.475.479 7.475 2.812 9 7a11.803 11.803 0 0 0-3.5-2c-4.704 1.803-6.537.137-5.5-5z"/><path style="opacity:1" fill="#cfac68" d="M97.5 103.5v3h3l1 4c-1.212-.73-2.212-1.73-3-3a19.897 19.897 0 0 1-3.5 4c.76 2.227 1.593 4.56 2.5 7-.197 2.496-1.197 4.496-3 6-.904-.709-1.237-1.709-1-3 1.194-.47 1.86-1.47 2-3-.14-1.53-.806-2.53-2-3 .343-1.983-.323-3.317-2-4 1.03-3.391 3.03-6.057 6-8z"/><path style="opacity:1" fill="#f5c962" d="M104.5 100.5c2.747-.313 5.414.02 8 1a345.94 345.94 0 0 0-8 2v1c-1.88-.271-3.213.396-4 2h-3v-3c1.926-1.793 4.259-2.793 7-3z"/><path style="opacity:1" fill="#8e9e95" d="M272.5 136.5h1v7c-.992.172-1.658-.162-2-1 .961-1.765 1.295-3.765 1-6z"/><path style="opacity:1" fill="#221c2c" d="M260.5 145.5h4c-.011 1.517-.677 2.684-2 3.5 2 .667 4 .667 6 0 2.058-3.201 3.058-2.701 3 1.5a43.117 43.117 0 0 1-13-1c1.353-1.024 2.02-2.357 2-4z"/><path style="opacity:1" fill="#e0bb65" d="m275.5 151.5 2 3c-7.008.166-14.008 0-21-.5a289.73 289.73 0 0 0-12-15.5 40.731 40.731 0 0 0-5-7c.596-2.746 2.263-3.58 5-2.5 2.901 7.956 7.234 15.123 13 21.5a81.883 81.883 0 0 0 18 1z"/><path style="opacity:1" fill="#cfab68" d="M103.5 137.5c1.528 1.302 2.528 2.969 3 5l-4 31h-2a657.292 657.292 0 0 1 4-31 17.11 17.11 0 0 0-1-5z"/><path style="opacity:1" fill="#ecc466" d="M188.5 108.5c.247 2.358-.419 4.358-2 6-.996-.086-1.829.248-2.5 1-.826 11.174-.659 22.174.5 33 1.734 2.7 4.068 4.7 7 6a255.48 255.48 0 0 0 14 12.5c3.906-.152 7.239 1.015 10 3.5.408 3.099-.759 5.433-3.5 7a74.079 74.079 0 0 0 .5 21c3.521 2.444 3.855 5.278 1 8.5-4.533 1.628-7.533.295-9-4 3.835-7.926 5.001-16.426 3.5-25.5-2.788-1.912-4.121-4.579-4-8a468.17 468.17 0 0 0-22-19 18.453 18.453 0 0 1-.5-6 225.771 225.771 0 0 0-1-30c-3.521-2.444-3.855-5.278-1-8.5 3.6-1.073 6.6-.24 9 2.5z"/><path style="opacity:1" fill="#9e8e69" d="M45.5 158.5c1.055 2.573 1.222 5.239.5 8-1.292 1.291-2.458 1.291-3.5 0 1.808-1.418 2.475-3.418 2-6-.172-.992.162-1.658 1-2z"/><path style="opacity:1" fill="#523d13" d="M44.5 160.5c.475 2.582-.192 4.582-2 6-.475-2.582.192-4.582 2-6z"/><path style="opacity:1" fill="#ceab61" d="M56.5 158.5c2.163 1.932 4.497 2.265 7 1 4.721 4.56 6.054 9.894 4 16-1.133-13.24-1.966-13.24-2.5 0-1.405 1.231-2.571 2.564-3.5 4 .417-2.579-.25-4.746-2-6.5 1.063-1.188 2.397-1.688 4-1.5a4.932 4.932 0 0 0 .5 3c1.332-5.053.165-9.386-3.5-13l-2 6a168.724 168.724 0 0 0-2-6v-3z"/><path style="opacity:1" fill="#2b231d" d="M56.5 161.5a168.724 168.724 0 0 1 2 6l2-6c3.665 3.614 4.832 7.947 3.5 13a4.932 4.932 0 0 1-.5-3c-1.603-.188-2.937.312-4 1.5 1.75 1.754 2.417 3.921 2 6.5-1 1.667-2.333 3-4 4-1.418-1.808-3.418-2.475-6-2-.31-3.213.023-6.213 1-9-.163 2.357.003 4.69.5 7 1.183 1.231 2.35 1.231 3.5 0 1.044-2.268 1.211-4.601.5-7-1.011-.837-2.178-1.17-3.5-1 .709-.904 1.709-1.237 3-1v-9z"/><path style="opacity:1" fill="#32271c" d="M53.5 158.5h-6c-.163 2.357.003 4.69.5 7 .19-2.208.69-4.208 1.5-6 1.614 10.541 2.614 10.541 3 0 1.025.874 1.692 2.041 2 3.5-1.195 1.533-1.195 3.033 0 4.5-2.334 2.487-4.834 2.487-7.5 0-1.93 1.577-1.763 2.91.5 4-.79.283-1.456.783-2 1.5 1.492 1.991 2.492 4.158 3 6.5-.06.543-.393.876-1 1-1.342-7.978-2.675-7.978-4 0 .693 1.018 1.36 2.018 2 3-1.562-.233-2.895-.9-4-2 .968-2.945 1.134-5.945.5-9-1.333-1.333-2.667-1.333-4 0a8.435 8.435 0 0 1-.5-4c.454-2.64 1.62-4.973 3.5-7 .198 1.882.698 3.548 1.5 5 1.042 1.291 2.208 1.291 3.5 0 .722-2.761.555-5.427-.5-8 2.772-1.267 5.439-1.267 8 0z"/><path style="opacity:1" fill="#9d8a59" d="M49.5 159.5h3c-.386 10.541-1.386 10.541-3 0z"/><path style="opacity:1" fill="#cba464" d="M103.5 173.5c2.928.065 5.595.732 8 2a2.428 2.428 0 0 0-2 .5c.881.708 1.547 1.542 2 2.5h-3c-.172 9.31-.672 9.31-1.5 0-1.699-.906-3.533-1.239-5.5-1-.153 9.804-1.153 10.138-3 1-.825-.886-1.825-1.219-3-1 3.52-.666 7.187-1.333 11-2a44.093 44.093 0 0 1-3-2z"/><path style="opacity:1" fill="#241f24" d="M53.5 158.5h3v12c-1.291-.237-2.291.096-3 1-.667 0-1 .333-1 1-.977 2.787-1.31 5.787-1 9 2.582-.475 4.582.192 6 2-4.133 1.226-8.133 1.226-12 0-.64-.982-1.307-1.982-2-3 1.325-7.978 2.658-7.978 4 0 .607-.124.94-.457 1-1 .306-2.885-.027-5.552-1-8-2.263-1.09-2.43-2.423-.5-4 2.666 2.487 5.166 2.487 7.5 0-1.195-1.467-1.195-2.967 0-4.5-.308-1.459-.975-2.626-2-3.5h-3c-.81 1.792-1.31 3.792-1.5 6a24.939 24.939 0 0 1-.5-7h6z"/><path style="opacity:1" fill="#212218" d="M241.5 179.5a802.777 802.777 0 0 0 5 4c-4.53.372-9.197.539-14 .5-1.307-2.324-3.307-3.657-6-4-1.43-1.88-1.096-3.38 1-4.5 2.276 2.449 4.942 4.282 8 5.5l3 .5c1.53-.14 2.53-.807 3-2z"/><path style="opacity:1" fill="#e6bf62" d="M284.5 181.5v3a68.766 68.766 0 0 0-15 1.5c-2.868 3.589-4.868 3.256-6-1-.219-1.971.615-3.138 2.5-3.5a66.803 66.803 0 0 0 18.5 0z"/><path style="opacity:1" fill="#ecc067" d="M63.5 159.5c-2.503 1.265-4.837.932-7-1h-3c-2.561-1.267-5.228-1.267-8 0-.838.342-1.172 1.008-1 2-1.808 1.418-2.475 3.418-2 6-.802-1.452-1.302-3.118-1.5-5-1.88 2.027-3.046 4.36-3.5 7-1.39 3.383-.722 6.383 2 9v1c.432 1.21 1.099 2.21 2 3 1.105 1.1 2.438 1.767 4 2 3.867 1.226 7.867 1.226 12 0 1.667-1 3-2.333 4-4 .929-1.436 2.095-2.769 3.5-4 .534-13.24 1.367-13.24 2.5 0a19.209 19.209 0 0 1-3 6.5l8.5 6.5c6.487-9.828 15.653-14.828 27.5-15h3a44.093 44.093 0 0 0 3 2c-3.813.667-7.48 1.334-11 2l-2 1h-1c-1.291-.237-2.291.096-3 1-.996-.086-1.83.248-2.5 1-.464 5.675-1.13 6.008-2 1a63.697 63.697 0 0 0-6.5 7c-.667 0-1 .333-1 1-.838.342-1.172 1.008-1 2-1.406.473-2.073 1.473-2 3-1.037 1.43-1.704 3.097-2 5-1.148 4.481-1.315 9.148-.5 14 .383.556.883.889 1.5 1 .838 3.013 2.338 5.68 4.5 8 .845-2.63.345-4.964-1.5-7 .825-.886 1.825-1.219 3-1a60.94 60.94 0 0 0 .5 11c1.451 1.964 3.284 3.297 5.5 4 .79.901 1.79 1.568 3 2 .342.838 1.008 1.172 2 1l2 1h4c.171-1.992-.495-3.658-2-5 .825-.886 1.825-1.219 3-1v7h5c.992.172 1.658-.162 2-1h2c1.62-1.341 2.62-3.174 3-5.5 1.249-.74 2.249-.573 3 .5.768.763 1.268 1.763 1.5 3a89.868 89.868 0 0 0 8.5-7c1.406-.473 2.073-1.473 2-3 1.508-1.681 2.508-3.681 3-6v-1c2.213-5.459 2.547-11.126 1-17-.342-.838-1.008-1.172-2-1 .284-1.915-.049-3.581-1-5-.432-1.21-1.099-2.21-2-3-1.333-2-3-3.667-5-5-.79-.901-1.79-1.568-3-2-.342-.838-1.008-1.172-2-1l-2-1v-1c-.453-.958-1.119-1.792-2-2.5a2.428 2.428 0 0 1 2-.5c11.192 4.523 18.525 12.523 22 24-.907 29.579-15.907 41.912-45 37-18.124-10.939-23.957-26.606-17.5-47a53.286 53.286 0 0 0-7.5-5l-7 3.5c-16.813 1.854-24.313-5.646-22.5-22.5 7.766-13.216 17.6-15.216 29.5-6z"/><path style="opacity:1" fill="#a0895f" d="m111.5 179.5 2 1c-.262 1.478.071 2.811 1 4 .886-.825 1.219-1.825 1-3 1.21.432 2.21 1.099 3 2-5.039 3.486-7.373 2.153-7-4z"/><path style="opacity:1" fill="#40280d" d="M113.5 180.5c.992-.172 1.658.162 2 1 .219 1.175-.114 2.175-1 3-.929-1.189-1.262-2.522-1-4z"/><path style="opacity:1" fill="#ad935b" d="M95.5 177.5v8a8.43 8.43 0 0 1-4-.5 61.284 61.284 0 0 0-2-5.5c.709-.904 1.709-1.237 3-1-.285 1.788.048 3.455 1 5 1.166-1.667 1.166-3.334 0-5l2-1z"/><path style="opacity:1" fill="#382c18" d="M92.5 178.5h1c1.166 1.666 1.166 3.333 0 5-.952-1.545-1.285-3.212-1-5z"/><path style="opacity:1" fill="#372511" d="M39.5 178.5v-1c-.262-1.478.071-2.811 1-4l1 2.5c-.184 1.376-.85 2.209-2 2.5z"/><path style="opacity:1" fill="#a28c5b" d="M53.5 171.5c1.322-.17 2.489.163 3.5 1 .711 2.399.544 4.732-.5 7-1.15 1.231-2.317 1.231-3.5 0a24.939 24.939 0 0 1-.5-7c0-.667.333-1 1-1z"/><path style="opacity:1" fill="#332115" d="M53.5 173.5c1.15.291 1.816 1.124 2 2.5l-1 2.5c-.952-1.545-1.285-3.212-1-5z"/><path style="opacity:1" fill="#cca65a" d="M47.5 171.5c.973 2.448 1.306 5.115 1 8-.508-2.342-1.508-4.509-3-6.5.544-.717 1.21-1.217 2-1.5z"/><path style="opacity:1" fill="#a38b53" d="M37.5 168.5a8.435 8.435 0 0 0 .5 4c1.333-1.333 2.667-1.333 4 0 .634 3.055.468 6.055-.5 9-.901-.79-1.568-1.79-2-3 1.15-.291 1.816-1.124 2-2.5l-1-2.5c-.929 1.189-1.262 2.522-1 4-2.722-2.617-3.39-5.617-2-9z"/><path style="opacity:1" fill="#251d25" d="M215.5 170.5c.949-.652 2.115-.986 3.5-1 1.658.175 2.991.842 4 2 2.09-1.291 3.424-.624 4 2 .671-.752 1.504-1.086 2.5-1l12 7c-.47 1.193-1.47 1.86-3 2l-3-.5c-3.058-1.218-5.724-3.051-8-5.5-2.096 1.12-2.43 2.62-1 4.5 2.693.343 4.693 1.676 6 4 4.803.039 9.47-.128 14-.5 1.562.233 2.895.9 4 2-.189 4.871-2.523 6.538-7 5 1.189-.929 2.522-1.262 4-1 .221-4.295-1.112-4.962-4-2a7.293 7.293 0 0 1-3-2c-.288 1.785-.288 3.452 0 5-5.561-2.205-11.228-2.538-17-1v-3h4v-4c-1.951.273-3.451-.393-4.5-2a62.744 62.744 0 0 1-1.5 11 63.276 63.276 0 0 1 0-16 4.934 4.934 0 0 0 3-.5c-1.712-1.751-3.712-2.418-6-2 1.109 1.813.442 2.646-2 2.5.284-1.915-.049-3.581-1-5z"/><path style="opacity:1" fill="#2a231d" d="M95.5 177.5c1.175-.219 2.175.114 3 1 1.847 9.138 2.847 8.804 3-1 1.967-.239 3.801.094 5.5 1 .828 9.31 1.328 9.31 1.5 0h3v1c-.373 6.153 1.961 7.486 7 4 2 1.333 3.667 3 5 5-.935 2.613-1.102 5.279-.5 8 1.488 2.33 3.321 2.664 5.5 1 1.547 5.874 1.213 11.541-1 17-.605-1.526-1.771-2.526-3.5-3a24.935 24.935 0 0 1-.5-7c1.664 1.449 2.498 3.449 2.5 6 .497-2.646.664-5.313.5-8-1.291-.237-2.291.096-3 1-.543-.06-.876-.393-1-1l3-2c-1.571-1.915-3.571-2.915-6-3v-8c-1.175-.219-2.175.114-3 1a19.372 19.372 0 0 1 1 8l-4-1c-1.089 1.617-2.756 2.45-5 2.5 1.372.402 2.705.902 4 1.5a25.879 25.879 0 0 1 1 10h-3v3h3c1.468-1.279 2.135-2.946 2-5 1.542.801 3.208 1.134 5 1v-7a255.81 255.81 0 0 1 2 11c-2.45.374-3.45 1.874-3 4.5-.38 2.703.62 4.537 3 5.5a89.868 89.868 0 0 1-8.5 7c-.232-1.237-.732-2.237-1.5-3-.751-1.073-1.751-1.24-3-.5-.38 2.326-1.38 4.159-3 5.5 1.075-4.438-.592-6.438-5-6v7h-4v-7c-1.175-.219-2.175.114-3 1 1.505 1.342 2.171 3.008 2 5h-4c.373-6.153-1.96-7.486-7-4-2.216-.703-4.049-2.036-5.5-4a60.94 60.94 0 0 1-.5-11c-1.175-.219-2.175.114-3 1 1.845 2.036 2.345 4.37 1.5 7-2.162-2.32-3.662-4.987-4.5-8-.718-1.637-.885-3.303-.5-5 1.356.88 2.856 1.214 4.5 1v-8c-1.644-.214-3.144.12-4.5 1a8.435 8.435 0 0 1-.5-4h1c1.644.214 3.144-.12 4.5-1 .498-3.317.665-6.65.5-10a63.697 63.697 0 0 1 6.5-7c.87 5.008 1.536 4.675 2-1 .67-.752 1.504-1.086 2.5-1a61.284 61.284 0 0 1 2 5.5 8.43 8.43 0 0 0 4 .5v-8z"/><path style="opacity:1" fill="#dfb764" d="M164.5 176.5v-1c1.99 22.976 2.657 46.309 2 70h-1c.331-23.173-.002-46.173-1-69z"/><path style="opacity:1" fill="#cbab65" d="M169.5 175.5v1a1156.835 1156.835 0 0 0-1 68c-.667-11.328-1-22.828-1-34.5.001-11.853.668-23.353 2-34.5z"/><path style="opacity:1" fill="#aa8e59" d="M80.5 189.5c1.322-.17 2.489.163 3.5 1a12.5 12.5 0 0 1 0 7c-1.333 1.333-2.667 1.333-4 0-.722-2.761-.555-5.427.5-8z"/><path style="opacity:1" fill="#efc666" d="M220.5 159.5c1.517.011 2.684.677 3.5 2 .163 2.176.996 4.009 2.5 5.5a487.096 487.096 0 0 1 25 16c1.679.395 3.345.228 5-.5 1.438.219 2.771.719 4 1.5 2.258 4.966.758 8.132-4.5 9.5a2449.238 2449.238 0 0 0-19.5 64h-3a7100.447 7100.447 0 0 1 20-64.5c-1.311-2.462-2.311-4.962-3-7.5-1.105-1.1-2.438-1.767-4-2a802.777 802.777 0 0 1-5-4l-12-7c-3.898-3.405-8.565-4.905-14-4.5-2.615-2.907-2.615-5.74 0-8.5h2a1726.672 1726.672 0 0 0 1.5-59c.168 19.838.668 39.504 1.5 59z"/><path style="opacity:1" fill="#241f1f" d="M181.5 144.5a18.453 18.453 0 0 0 .5 6 468.17 468.17 0 0 1 22 19c-.121 3.421 1.212 6.088 4 8 1.501 9.074.335 17.574-3.5 25.5 1.467 4.295 4.467 5.628 9 4 2.855-3.222 2.521-6.056-1-8.5a74.079 74.079 0 0 1-.5-21c2.741-1.567 3.908-3.901 3.5-7 .951 1.419 1.284 3.085 1 5 2.442.146 3.109-.687 2-2.5 2.288-.418 4.288.249 6 2a4.934 4.934 0 0 1-3 .5 63.276 63.276 0 0 0 0 16 62.744 62.744 0 0 0 1.5-11c1.049 1.607 2.549 2.273 4.5 2v4h-4v3c5.772-1.538 11.439-1.205 17 1-.288-1.548-.288-3.215 0-5a7.293 7.293 0 0 0 3 2c2.888-2.962 4.221-2.295 4 2-1.478-.262-2.811.071-4 1 4.477 1.538 6.811-.129 7-5 .689 2.538 1.689 5.038 3 7.5a7100.447 7100.447 0 0 0-20 64.5c-3.005-.247-5.505.753-7.5 3a148.31 148.31 0 0 1-4.5 10 120.087 120.087 0 0 1-9.5-9 420.29 420.29 0 0 1 0-41c5.834-7.435 4.001-10.602-5.5-9.5-2.958 3.307-2.625 6.141 1 8.5a926.125 926.125 0 0 1 1.5 43 120.087 120.087 0 0 0 9.5 9c.219 1.175-.114 2.175-1 3a28.322 28.322 0 0 1-10 3 926.612 926.612 0 0 0-39-33c-.331-22.839.003-45.506 1-68-.167 21.336 0 42.669.5 64a274.038 274.038 0 0 0 1.5-33c0-10.839-.333-21.505-1-32l2-3c4.165-5.529 4.831-5.029 2 1.5a14.705 14.705 0 0 1 4 5 4.934 4.934 0 0 0 3 .5c.424 5.818 3.424 7.485 9 5-1.742-2.317-4.076-3.817-7-4.5-1.341-1.826-.841-2.993 1.5-3.5 1.875 1.678 4.042 2.678 6.5 3a1222.513 1222.513 0 0 0 4 22.5c-1.524 1.194-2.69 2.694-3.5 4.5.32 5.283 3.153 7.116 8.5 5.5 3.061-4.156 2.227-7.322-2.5-9.5a475.672 475.672 0 0 0-3-23 187.25 187.25 0 0 0-21.5-18 20.2 20.2 0 0 1-1.5-6 7.248 7.248 0 0 0-2.5-2 113.23 113.23 0 0 1-.5-26c2.741-1.567 3.908-3.901 3.5-7-.131-.876.202-1.543 1-2 1.041 2.491 1.874 2.491 2.5 0a43.145 43.145 0 0 1 1.5 5c-1.544 3.598-2.211 7.431-2 11.5.66 6.227.827 12.394.5 18.5a7.293 7.293 0 0 0 2-3 267.06 267.06 0 0 1 1.5-23c.667 5.819 1.333 11.486 2 17z"/><path style="opacity:1" fill="#ba9e65" d="M113.5 196.5c-.951-1.419-1.284-3.085-1-5h-3c.284 1.915-.049 3.581-1 5a18.453 18.453 0 0 1 .5-6c1.333-1.333 2.667-1.333 4 0 .495 1.973.662 3.973.5 6z"/><path style="opacity:1" fill="#1f1d2b" d="M161.5 173.5c.838.342 1.172 1.008 1 2-1.825 21.644-2.658 43.644-2.5 66-.667-24-.667-48 0-72 .21 1.558.71 2.891 1.5 4z"/><path style="opacity:1" fill="#1f1e2a" d="M162.5 175.5h2v1c.333 22.343 0 44.677-1 67-1-22.657-1.333-45.324-1-68z"/><path style="opacity:1" fill="#231e27" d="M169.5 175.5h1c.667 10.495 1 21.161 1 32a274.038 274.038 0 0 1-1.5 33 2047.17 2047.17 0 0 1-.5-64v-1z"/><path style="opacity:1" fill="#3e2d18" d="M78.5 188.5a50.442 50.442 0 0 1-.5 10c-1.356.88-2.856 1.214-4.5 1a19.588 19.588 0 0 1 3.5-2c.497-2.646.664-5.313.5-8 0-.667.333-1 1-1z"/><path style="opacity:1" fill="#907849" d="M102.5 189.5h3a21.127 21.127 0 0 1-1 9c-.504-2.799-1.504-5.299-3-7.5.556-.383.889-.883 1-1.5z"/><path style="opacity:1" fill="#573c19" d="M76.5 191.5c.285 1.788-.048 3.455-1 5-.797-.457-1.13-1.124-1-2-.073-1.527.594-2.527 2-3z"/><path style="opacity:1" fill="#9f8c61" d="M87.5 189.5c4.816.667 6.149 3.333 4 8-1.806 1.359-3.306 1.025-4.5-1-.703-2.429-.537-4.762.5-7z"/><path style="opacity:1" fill="#3b2c1c" d="M81.5 191.5c1.15.291 1.816 1.124 2 2.5l-1 2.5c-.952-1.545-1.285-3.212-1-5z"/><path style="opacity:1" fill="#311d04" d="M88.5 191.5c1.15.291 1.816 1.124 2 2.5l-1 2.5c-.952-1.545-1.285-3.212-1-5z"/><path style="opacity:1" fill="#a78d58" d="M119.5 197.5c-.342.838-1.008 1.172-2 1a19.372 19.372 0 0 0-1-8c.825-.886 1.825-1.219 3-1v8z"/><path style="opacity:1" fill="#2f1e10" d="M125.5 191.5c.951 1.419 1.284 3.085 1 5-1.149-.291-1.816-1.124-2-2.5.028-1.07.361-1.903 1-2.5z"/><path style="opacity:1" fill="#baa378" d="M95.5 189.5c1.265 1.014 1.931 2.514 2 4.5l-.5 4.5c-.029-2.867-.862-5.367-2.5-7.5.556-.383.89-.883 1-1.5z"/><path style="opacity:1" fill="#a48c5a" d="M77.5 189.5a32.438 32.438 0 0 1-.5 8 19.588 19.588 0 0 0-3.5 2h-1c.296-1.903.963-3.57 2-5-.13.876.203 1.543 1 2 .952-1.545 1.285-3.212 1-5-.172-.992.162-1.658 1-2z"/><path style="opacity:1" fill="#7e6a43" d="M113.5 196.5v1c-2.086 1.523-3.752 1.19-5-1 .951-1.419 1.284-3.085 1-5h3c-.284 1.915.049 3.581 1 5z"/><path style="opacity:1" fill="#a08b59" d="M123.5 188.5c.901.79 1.568 1.79 2 3-.639.597-.972 1.43-1 2.5.184 1.376.851 2.209 2 2.5.992-.172 1.658.162 2 1-2.179 1.664-4.012 1.33-5.5-1-.602-2.721-.435-5.387.5-8z"/><path style="opacity:1" fill="#231f20" d="M-.5 128.5c1.548.321 2.215 1.321 2 3 2.411.363 3.911-.637 4.5-3 2.081 1.824 1.915 3.491-.5 5a22.132 22.132 0 0 1 6 3c1.024-1.353 2.357-2.02 4-2v2c-.048 4.313-1.215 8.313-3.5 12a60.162 60.162 0 0 0-10 15c-1.942 10.991-.275 21.325 5 31 5.585 4.862 7.085 10.862 4.5 18 .372 10.929 5.706 18.095 16 21.5.988 2.167 2.321 4 4 5.5a141.46 141.46 0 0 0 2 9 20.295 20.295 0 0 0 8 7 31.638 31.638 0 0 1 5 3c.684-.363 1.35-.696 2-1-.43 3.362.57 6.195 3 8.5a42.418 42.418 0 0 0 13 3.5c1.614 5.122 4.614 9.288 9 12.5 27.55 12.498 52.717 8.665 75.5-11.5 1.129 1.641 2.629 2.641 4.5 3 14.797 13.041 32.13 18.374 52 16 1.548.321 2.215 1.321 2 3h-32v4c2.82-.252 5.486.248 8 1.5-1.558.21-2.891.71-4 1.5H-.5v-171z"/><path style="opacity:1" fill="#221e26" d="m113.5 197.5 4 1c.992.172 1.658-.162 2-1 2.429.085 4.429 1.085 6 3l-3 2c.124.607.457.94 1 1v1c-.163 2.357.003 4.69.5 7 1.729.474 2.895 1.474 3.5 3v1c-1.208-.734-2.541-1.067-4-1h-1a255.81 255.81 0 0 0-2-11c-1.419-.951-3.085-1.284-5-1v7c.135 2.054-.532 3.721-2 5h-3v-3h3a25.879 25.879 0 0 0-1-10 28.931 28.931 0 0 0-4-1.5c2.244-.05 3.911-.883 5-2.5z"/><path style="opacity:1" fill="#b09662" d="M120.5 203.5v7c-1.792.134-3.458-.199-5-1v-7c1.915-.284 3.581.049 5 1z"/><path style="opacity:1" fill="#231f20" d="M299.5 191.5v108h-120c1.109-.79 2.442-1.29 4-1.5-2.514-1.252-5.18-1.752-8-1.5v-4h32c.215-1.679-.452-2.679-2-3 6.576-1.071 12.91-3.238 19-6.5 5.182-3.662 8.516-8.495 10-14.5 3.35.165 6.683-.002 10-.5 18.498-4.196 27.498-15.696 27-34.5a20.093 20.093 0 0 0 6-1.5c7.71-6.281 11.044-14.447 10-24.5 1.175.219 2.175-.114 3-1-2.668-1.015-3.334-2.682-2-5 4.713-2.389 8.38-5.722 11-10z"/><path style="opacity:1" fill="#b59a67" d="M94.5 202.5c3.43-.745 5.097.589 5 4 .097 3.411-1.57 4.745-5 4v-8z"/><path style="opacity:1" fill="#c1a26c" d="M123.5 204.5v-1c.709-.904 1.709-1.237 3-1a32.462 32.462 0 0 1-.5 8c-.002-2.551-.836-4.551-2.5-6z"/><path style="opacity:1" fill="#332913" d="M95.5 203.5c1.194.47 1.86 1.47 2 3l-1 3a9.864 9.864 0 0 1-1-6z"/><path style="opacity:1" fill="#422f18" d="M117.5 203.5c1.193.47 1.86 1.47 2 3l-1 3a9.86 9.86 0 0 1-1-6z"/><path style="opacity:1" fill="#a8915a" d="M80.5 202.5h3c-.386 10.541-1.386 10.541-3 0z"/><path style="opacity:1" fill="#a08e64" d="M87.5 202.5c1.644-.214 3.144.12 4.5 1 .758 2.269.591 4.436-.5 6.5-1.612.72-3.112.554-4.5-.5-.703-2.429-.537-4.762.5-7z"/><path style="opacity:1" fill="#3e2405" d="M88.5 203.5c1.194.47 1.86 1.47 2 3l-1 3a9.864 9.864 0 0 1-1-6z"/><path style="opacity:1" fill="#af996d" d="M101.5 202.5c3.43-.745 5.097.589 5 4 .097 3.411-1.57 4.745-5 4v-8z"/><path style="opacity:1" fill="#4b3617" d="M103.5 203.5c1.293 1.864 1.293 3.864 0 6-1.194-2.016-1.194-4.016 0-6z"/><path style="opacity:1" fill="#b59c61" d="M72.5 199.5a8.435 8.435 0 0 0 .5 4c1.356-.88 2.856-1.214 4.5-1v8c-1.644.214-3.144-.12-4.5-1-.385 1.697-.218 3.363.5 5-.617-.111-1.117-.444-1.5-1-.815-4.852-.648-9.519.5-14z"/><path style="opacity:1" fill="#402c0a" d="M74.5 203.5c2.424 1.728 2.59 3.728.5 6a18.437 18.437 0 0 1-.5-6z"/><path style="opacity:1" fill="#a68b4a" d="M109.5 202.5h3c-.386 10.541-1.386 10.541-3 0z"/><path style="opacity:1" fill="#a18a5b" d="M84.5 214.5c1.322-.17 2.489.163 3.5 1a12.5 12.5 0 0 1 0 7c-1.333 1.333-2.667 1.333-4 0-.722-2.761-.555-5.427.5-8z"/><path style="opacity:1" fill="#988151" d="M91.5 214.5h3c-.376 11.882-1.376 11.882-3 0z"/><path style="opacity:1" fill="#30280b" d="M123.5 214.5c1.459-.067 2.792.266 4 1-.492 2.319-1.492 4.319-3 6 .202-2.45-.131-4.783-1-7z"/><path style="opacity:1" fill="#8f7a43" d="M99.5 214.5c1.265 1.014 1.931 2.514 2 4.5l-1 4.5c-1.349-3.041-1.682-6.041-1-9z"/><path style="opacity:1" fill="#a58a5f" d="M105.5 214.5c4.883.966 6.217 3.799 4 8.5-1.867.711-3.367.211-4.5-1.5-.703-2.429-.537-4.762.5-7z"/><path style="opacity:1" fill="#391b04" d="M106.5 216.5c1.149.291 1.816 1.124 2 2.5l-1 2.5c-.952-1.545-1.285-3.212-1-5z"/><path style="opacity:1" fill="#3b2918" d="M84.5 216.5c1.15.291 1.816 1.124 2 2.5l-1 2.5c-.952-1.545-1.285-3.212-1-5z"/><path style="opacity:1" fill="#bea374" d="M113.5 214.5c1.265 1.014 1.931 2.514 2 4.5l-.5 4.5c-.029-2.867-.862-5.367-2.5-7.5.556-.383.889-.883 1-1.5z"/><path style="opacity:1" fill="#998457" d="M122.5 214.5h1c.869 2.217 1.202 4.55 1 7 .073 1.527-.594 2.527-2 3-2.38-.963-3.38-2.797-3-5.5-.45-2.626.55-4.126 3-4.5z"/><path style="opacity:1" fill="#231f20" d="M142.5 262.5c-16.215 15.117-35.215 19.95-57 14.5-3.774-1.302-6.941-3.469-9.5-6.5-.36-7.064-3.86-11.73-10.5-14 3.599-7.518 3.932-15.185 1-23 1.175.219 2.175-.114 3-1a6.846 6.846 0 0 1-1-4h3a52.011 52.011 0 0 0 4 8.5c1.601.273 3.101.773 4.5 1.5a32.367 32.367 0 0 0 4.5-3 6.845 6.845 0 0 0 4 1c29.093 4.912 44.093-7.421 45-37-.172-1.992.495-3.658 2-5-3.385-1.646-4.552-4.313-3.5-8a12.93 12.93 0 0 1 .5 5h4a89.313 89.313 0 0 0-5-16h4a88.715 88.715 0 0 1 3.5 11 6.547 6.547 0 0 0 3 3c.5 24.331.667 48.664.5 73z"/><path style="opacity:1" fill="#43300a" d="M90.5 232.5c-.992.172-1.658-.162-2-1-.219-1.175.114-2.175 1-3 .929 1.189 1.262 2.522 1 4z"/><path style="opacity:1" fill="#a69262" d="m92.5 233.5-2-1c.262-1.478-.071-2.811-1-4-.886.825-1.219 1.825-1 3-1.21-.432-2.21-1.099-3-2 5.04-3.486 7.373-2.153 7 4z"/><path style="opacity:1" fill="#9c8c62" d="M106.5 233.5h-2c-.731-6.317-1.398-5.983-2 1h-1v-7c4.408-.438 6.075 1.562 5 6z"/><path style="opacity:1" fill="#56391e" d="M112.5 228.5v4h-3c-.412-2.473.588-3.806 3-4z"/><path style="opacity:1" fill="#412c0f" d="M104.5 233.5c-.342.838-1.008 1.172-2 1 .602-6.983 1.269-7.317 2-1z"/><path style="opacity:1" fill="#352f27" d="M48.5 257.5c-.65.304-1.316.637-2 1a31.638 31.638 0 0 0-5-3c11.483.678 15.983-4.655 13.5-16-7.495-8.268-14.495-7.934-21 1a32.438 32.438 0 0 0-.5 8 141.46 141.46 0 0 1-2-9 37.04 37.04 0 0 1 10-7.5c5.17-1.295 9.67-.128 13.5 3.5 6.19 9.856 4.023 17.189-6.5 22z"/><path style="opacity:1" fill="#e8bf62" d="M221.5 270.5c-.709.904-1.709 1.237-3 1a120.087 120.087 0 0 1-9.5-9 926.125 926.125 0 0 0-1.5-43c-3.625-2.359-3.958-5.193-1-8.5 9.501-1.102 11.334 2.065 5.5 9.5a420.29 420.29 0 0 0 0 41 120.087 120.087 0 0 0 9.5 9z"/><path style="opacity:1" fill="#eec269" d="M41.5 255.5a20.295 20.295 0 0 1-8-7 32.438 32.438 0 0 1 .5-8c6.505-8.934 13.505-9.268 21-1 2.483 11.345-2.017 16.678-13.5 16z"/><path style="opacity:1" fill="#38291e" d="M41.5 237.5c7.66-.837 11.16 2.496 10.5 10-4.252 6.153-8.919 6.486-14 1-1.482-4.726-.315-8.393 3.5-11z"/><path style="opacity:1" fill="#a89161" d="M47.5 240.5c1.265 1.014 1.931 2.514 2 4.5l-.5 4.5a36.737 36.737 0 0 1-2.5-7.5c.556-.383.89-.883 1-1.5z"/><path style="opacity:1" fill="#af9b6e" d="M39.5 240.5c1.322-.17 2.489.163 3.5 1 .497 2.31.663 4.643.5 7-1.644.214-3.144-.12-4.5-1-.703-2.429-.537-4.762.5-7z"/><path style="opacity:1" fill="#3d270f" d="M40.5 242.5c1.15.291 1.816 1.124 2 2.5l-1 2.5c-.952-1.545-1.285-3.212-1-5z"/><path style="opacity:1" fill="#282325" d="M155.5 66.5a90.524 90.524 0 0 1 9.5 7c.825 10.508.659 20.842-.5 31-1.69-2.685-3.19-5.685-4.5-9l-1-17c-.667 59-.667 118 0 177-.431-5.196 1.736-8.529 6.5-10h1l38 33c-6.675.166-13.342 0-20-.5a104.272 104.272 0 0 1-17-6.5c-4.229-2.725-8.062-6.059-11.5-10-.5-64.999-.667-129.999-.5-195z"/><path style="opacity:1" fill="#eec666" d="m172.5 172.5-2 3h-1c-1.332 11.147-1.999 22.647-2 34.5 0 11.672.333 23.172 1 34.5a926.612 926.612 0 0 1 39 33c-.709.904-1.709 1.237-3 1l-38-33c.657-23.691-.01-47.024-2-70h-2c.172-.992-.162-1.658-1-2a8.43 8.43 0 0 1 .5-4c5.158-4.604 8.658-3.604 10.5 3z"/></svg>