<svg xmlns="http://www.w3.org/2000/svg" width="500" height="264" style="shape-rendering:geometricPrecision;text-rendering:geometricPrecision;image-rendering:optimizeQuality;fill-rule:evenodd;clip-rule:evenodd"><path style="opacity:.106" fill="#010000" d="M46.5-.5h20a4286.432 4286.432 0 0 0 61 9.5c10.565 1.847 19.899 6.18 28 13a288.385 288.385 0 0 1 27.5-3.5 894.75 894.75 0 0 0 19.5 1.5c13.964 1.439 27.964 3.772 42 7a132.216 132.216 0 0 1 21 8c8.001.358 16.001.19 24-.5 12.305-.172 23.972 2.328 35 7.5 1.465 3.567 4.132 5.4 8 5.5 22.99-6.029 44.823-3.362 65.5 8a73.802 73.802 0 0 1 24.5-1.5 138.948 138.948 0 0 1 27 6 117.755 117.755 0 0 1 33 4c6.705 3.901 10.538 9.734 11.5 17.5 2.2 40.143 4.034 80.143 5.5 120v33c-.984 12.82-7.984 19.987-21 21.5-76.311.715-152.644 2.215-229 4.5a399.275 399.275 0 0 0-22.5-1 3565.505 3565.505 0 0 1-42 2 2442.918 2442.918 0 0 0-47-2 865.226 865.226 0 0 1-33.5 4h-69a137.153 137.153 0 0 1-27-7.5 36.558 36.558 0 0 1-6.5-7.5c-.535-3.538-1.368-6.872-2.5-10v-36A29762.3 29762.3 0 0 1 6 55.5a248.345 248.345 0 0 1 4-15 452.76 452.76 0 0 1 19-32c4.882-5.094 10.715-8.094 17.5-9z"/><path style="opacity:.996" fill="#fdfd04" d="M75.5 27.5a5212.793 5212.793 0 0 1 69 10.5c7.855 4.023 13.855 9.857 18 17.5 1.388 4.08 2.721 8.08 4 12 4.315 18.869 2.149 36.869-6.5 54-3.747 4.254-7.914 7.921-12.5 11 15.287 9.216 23.454 22.882 24.5 41 1.414 17.368-1.253 34.034-8 50a115.977 115.977 0 0 1-8.5 12c-7.441 4.031-15.441 6.531-24 7.5-7.993.5-15.993.666-24 .5-14.337.167-28.67 0-43-.5a320.266 320.266 0 0 1-1-35.5c.334-20.012 1-40.012 2-60a731.137 731.137 0 0 0 2-64v-20c.904-.709 1.237-1.709 1-3 .995-10.82 1.328-21.82 1-33h6z"/><path style="opacity:.957" fill="#785604" d="M71.5 24.5a1285.157 1285.157 0 0 1 74 11.5c7.114 3.447 12.614 8.614 16.5 15.5a8.43 8.43 0 0 1 .5 4c-4.145-7.643-10.145-13.477-18-17.5a5212.793 5212.793 0 0 0-69-10.5c-2.107-.968-4.44-1.302-7-1v34c.237 1.291-.096 2.291-1 3v-38c1.599.268 2.932-.066 4-1z"/><path style="opacity:.984" fill="#785804" d="M194.5 43.5a675.105 675.105 0 0 1 59 8.5c5.739.7 10.406 3.2 14 7.5-5.646-2.971-11.646-5.138-18-6.5a1390.518 1390.518 0 0 1-52-7.5l-3-2z"/><path style="opacity:.996" fill="#fdfd06" d="M197.5 45.5a1390.518 1390.518 0 0 0 52 7.5c6.354 1.362 12.354 3.529 18 6.5 3.47 3.128 6.136 6.795 8 11 5.426 14.807 7.426 30.141 6 46a300.134 300.134 0 0 1-1 13 129.237 129.237 0 0 1-8.5 18c-2.901 3.525-6.401 6.192-10.5 8-1.59.128-2.923.795-4 2a146.925 146.925 0 0 1 10.5 10 238.027 238.027 0 0 1 8 20l13.5 54h-29a51.632 51.632 0 0 0-4-16 938.746 938.746 0 0 0-16.5-58 14.698 14.698 0 0 0-3.5-3c-3.531-3.503-7.864-4.837-13-4v82h-28v-15a2874.708 2874.708 0 0 0 2-129v-53z"/><path style="opacity:.997" fill="#e7d11e" d="M75.5 27.5h-6c.328 11.18-.005 22.18-1 33v-34c2.56-.302 4.893.032 7 1z"/><path style="opacity:.996" fill="#fdfb07" d="M326.5 83.5v48c-.326 36.406.007 72.739 1 109h-22a1190.252 1190.252 0 0 1-1-69v-110a309.356 309.356 0 0 1 22 3v19z"/><path style="opacity:1" fill="#8a5500" d="M71.5 24.5c-1.068.934-2.401 1.268-4 1v58a805.235 805.235 0 0 0-2 48c-1.466.847-2.3 2.18-2.5 4-.176 4.188-.676 8.188-1.5 12a3710.136 3710.136 0 0 1 4-115c-.003-2.525-.337-4.859-1-7 1.857-2.345 4.19-2.678 7-1z"/><path style="opacity:1" fill="#d19301" d="M193.5 75.5v36c-.79 1.109-1.29 2.442-1.5 4-5.355-7.57-8.855-15.903-10.5-25-.166-5.831.834-11.665 3-17.5-1.329-3.213-.662-6.046 2-8.5 1.542-1.247 3.042-1.247 4.5 0 .918 3.78 1.751 7.446 2.5 11z"/><path style="opacity:.999" fill="#6a4801" d="M127.5 72.5c5.11 2.53 8.61 6.53 10.5 12 .76 7.05.593 14.05-.5 21-.897-1.098-1.73-1.098-2.5 0a2.428 2.428 0 0 1-.5-2c1.097-4.82 1.097-9.487 0-14-.218-10.273-3.718-11.606-10.5-4-.595 1.399-.428 2.732.5 4-3.093.498-5.926 1.498-8.5 3-.031 3.986-1.031 7.652-3 11-3.353.241-6.52 1.574-9.5 4v-35a126.518 126.518 0 0 1 24 3.5c1.043 1.976 2.377 2.476 4 1.5-1.904-1.266-3.237-2.933-4-5z"/><path style="opacity:.996" fill="#fdfb06" d="M393.5 74.5a52.882 52.882 0 0 1 2 13 4751.607 4751.607 0 0 1 19 102 1132.972 1132.972 0 0 1 9 50h-20a575.289 575.289 0 0 0-4-29h-31a344.479 344.479 0 0 0-3 30h-22a21674.646 21674.646 0 0 1 26.5-167c.674-1.078 1.674-1.745 3-2a247.591 247.591 0 0 0 20.5 3z"/><path style="opacity:.999" fill="#e4a003" d="M359.5 72.5a81.216 81.216 0 0 1-3 2.5c2.433 2.348 2.433 4.515 0 6.5a52.141 52.141 0 0 0-1.5 10c-12.37 12.96-14.87 27.627-7.5 44h-4c-.165 3.35.002 6.683.5 10 .833 1.5 2 2.667 3.5 3.5a8.43 8.43 0 0 1-4 .5 53.957 53.957 0 0 0-2 17 8.43 8.43 0 0 1 4 .5c1.157 1.621 1.99 3.455 2.5 5.5l1-5c.278.916.778 1.582 1.5 2a8313.567 8313.567 0 0 0-11 73c-3.125.979-6.458 1.313-10 1v-1a4436.373 4436.373 0 0 1-1-97c-.166-10.339 0-20.672.5-31 2.897-4.875 4.23-10.208 4-16l4.5-4.5a163.092 163.092 0 0 1-4-11c1.626.195 3.293.195 5 0 1.333-.667 1.333-1.333 0-2 2.379-.716 4.379-1.883 6-3.5a148.146 148.146 0 0 1 15-5z"/><path style="opacity:.995" fill="#fcfb08" d="M447.5 82.5a54.269 54.269 0 0 1 2 7 1170.967 1170.967 0 0 1 17.5 58 112.27 112.27 0 0 0 6.5 17 243.585 243.585 0 0 0 3.5 15 3389.647 3389.647 0 0 0-2.5-92c5.018.113 10.018.447 15 1h1c.27 13.335.603 26.669 1 40-.321 5.195.013 10.195 1 15a47029.14 47029.14 0 0 1 3 95 64.873 64.873 0 0 1-16-1 3388.452 3388.452 0 0 1-27-85 49.174 49.174 0 0 0-3.5-11 2945.457 2945.457 0 0 0 2.5 70v27h-17a1135.346 1135.346 0 0 0-1-43v-16c-.254-17.507-.921-34.84-2-52-.306-15.667-.639-31.334-1-47a590.642 590.642 0 0 1 17 2z"/><path style="opacity:.999" fill="#ce9302" d="M344.5 77.5c-1.621 1.617-3.621 2.784-6 3.5 1.333.667 1.333 1.333 0 2a21.405 21.405 0 0 1-5 0 163.092 163.092 0 0 0 4 11l-4.5 4.5c.23 5.792-1.103 11.125-4 16a481.165 481.165 0 0 0-.5 31h-1c.319-4.863-.014-9.53-1-14v-48h1a182.319 182.319 0 0 1 17-6z"/><path style="opacity:1" fill="#875d00" d="M299.5 59.5c.417-.624 1.084-.957 2-1a244.927 244.927 0 0 0 26 4v21h-1v-19a309.356 309.356 0 0 0-22-3v110c-.824-3.812-1.324-7.812-1.5-12-.21 1.558-.71 2.891-1.5 4 0-.667-.333-1-1-1v-15c.331-29.505-.002-58.838-1-88z"/><path style="opacity:.999" fill="#694902" d="M248.5 92.5c-3.75.911-6.75 2.911-9 6-8.698.151-13.031 4.485-13 13h-1c.666-7.983.999-15.983 1-24a87.963 87.963 0 0 1 19 1.5 14.696 14.696 0 0 1 3 3.5z"/><path style="opacity:.999" fill="#c68d02" d="M471.5 84.5a2849.056 2849.056 0 0 1 2 80 112.27 112.27 0 0 1-6.5-17 1170.967 1170.967 0 0 0-17.5-58 131.391 131.391 0 0 0 22-5z"/><path style="opacity:1" fill="#4c3101" d="M253.5 92.5c.219 1.175-.114 2.175-1 3a494.818 494.818 0 0 0-4-3 14.696 14.696 0 0 0-3-3.5 87.963 87.963 0 0 0-19-1.5 288.978 288.978 0 0 1-1 24c.321 5.526-.012 10.86-1 16v-44c8.625.012 16.958 1.512 25 4.5a25.154 25.154 0 0 1 4 4.5z"/><path style="opacity:1" fill="#875c01" d="m471.5 84.5 15 2c1.53.14 2.53.806 3 2a170.705 170.705 0 0 0-15-1 3389.647 3389.647 0 0 1 2.5 92 243.585 243.585 0 0 1-3.5-15 2849.056 2849.056 0 0 0-2-80z"/><path style="opacity:.999" fill="#4f2e01" d="M127.5 72.5c.763 2.067 2.096 3.734 4 5-1.623.976-2.957.476-4-1.5a126.518 126.518 0 0 0-24-3.5v35c-.809 1.792-1.309 3.792-1.5 6-.5-8.66-.666-17.327-.5-26a91.124 91.124 0 0 1 1-19 258.235 258.235 0 0 1 25 4z"/><path style="opacity:1" fill="#bf8804" d="M134.5 89.5c1.097 4.513 1.097 9.18 0 14-1.701 8.543-7.034 12.209-16 11-.163-2.357.003-4.69.5-7a70.83 70.83 0 0 0 9-11l1 1c-.273-4.212 1.56-6.879 5.5-8z"/><path style="opacity:.999" fill="#bb8401" d="M192.5 44.5c.994 10.153 1.328 20.487 1 31a369.754 369.754 0 0 0-2.5-11c-1.458-1.247-2.958-1.247-4.5 0-2.662 2.454-3.329 5.287-2 8.5-2.166 5.835-3.166 11.669-3 17.5 1.645 9.097 5.145 17.43 10.5 25 .21-1.558.71-2.891 1.5-4a827.093 827.093 0 0 0-1 52c-.467 26.998-.8 53.998-1 81v1a163.147 163.147 0 0 1-18-1c-1.976-1.511-4.309-2.344-7-2.5-1.074-.739-1.741-1.739-2-3a17.712 17.712 0 0 1 4.5-5.5c.498-3.317.665-6.65.5-10 1.322.17 2.489-.163 3.5-1 3.437-3.955 4.103-8.288 2-13l-1-47c-2.324-6.885-2.824-13.885-1.5-21 1.316-2.528 2.483-2.528 3.5 0a42.11 42.11 0 0 1 .5-11l-2-6c2.137-1.238 3.471-3.071 4-5.5a20.156 20.156 0 0 0-5.5-8.5 153.84 153.84 0 0 1-1-33c.605-2.806 1.938-5.14 4-7 .648-4.704.481-9.37-.5-14a237.172 237.172 0 0 1 17-12z"/><path style="opacity:1" fill="#875600" d="M192.5 44.5c.342-.838 1.008-1.172 2-1l3 2v53l-2 81c.167-10.672 0-21.339-.5-32l-1-2a159.141 159.141 0 0 1-1.5 18 827.093 827.093 0 0 1 1-52v-36c.328-10.513-.006-20.847-1-31z"/><path style="opacity:.999" fill="#896202" d="M134.5 89.5c-3.94 1.121-5.773 3.788-5.5 8l-1-1a70.83 70.83 0 0 1-9 11 24.935 24.935 0 0 0-.5 7c8.966 1.209 14.299-2.457 16-11a2.428 2.428 0 0 0 .5 2c.77-1.098 1.603-1.098 2.5 0-2.153 8.144-7.486 12.144-16 12a402.517 402.517 0 0 0-20-1.5c-1.328-9.598-1.328-19.098 0-28.5-.166 8.673 0 17.34.5 26 .191-2.208.691-4.208 1.5-6 2.98-2.426 6.147-3.759 9.5-4 1.969-3.348 2.969-7.014 3-11 2.574-1.502 5.407-2.502 8.5-3-.928-1.268-1.095-2.601-.5-4 6.782-7.606 10.282-6.273 10.5 4z"/><path style="opacity:1" fill="#5d4001" d="M283.5 101.5v12c-.357 5.582-1.357 10.915-3 16 .427-4.324.761-8.658 1-13l2-15z"/><path style="opacity:.999" fill="#9f7203" d="M162.5 55.5a778.377 778.377 0 0 1 4.5 7 72.603 72.603 0 0 1 8.5-6 40.423 40.423 0 0 1 .5 14c-2.062 1.86-3.395 4.194-4 7a153.84 153.84 0 0 0 1 33 20.156 20.156 0 0 1 5.5 8.5c-.529 2.429-1.863 4.262-4 5.5l2 6a42.11 42.11 0 0 0-.5 11c-1.017-2.528-2.184-2.528-3.5 0-1.324 7.115-.824 14.115 1.5 21l1 47c2.103 4.712 1.437 9.045-2 13-1.011.837-2.178 1.17-3.5 1a50.464 50.464 0 0 1-.5 10 17.712 17.712 0 0 0-4.5 5.5c.259 1.261.926 2.261 2 3 2.691.156 5.024.989 7 2.5a2175.756 2175.756 0 0 0-24-2 31.538 31.538 0 0 0 8-7c3.352-3.195 6.185-6.862 8.5-11 7.163-19.032 9.496-38.699 7-59a236.718 236.718 0 0 0-4-13 111.488 111.488 0 0 1-7.5-12 39.068 39.068 0 0 1-9-7.5c7.799-6.416 12.966-14.582 15.5-24.5 3.517-14.476 3.184-28.81-1-43a2.429 2.429 0 0 0-.5 2c-1.279-3.92-2.612-7.92-4-12z"/><path style="opacity:.997" fill="#e8d218" d="M67.5 83.5a731.137 731.137 0 0 1-2 64v-16a805.235 805.235 0 0 1 2-48z"/><path style="opacity:1" fill="#885b00" d="M248.5 92.5c1.315.976 2.648 1.976 4 3 .886-.825 1.219-1.825 1-3 5.099 10.135 5.266 20.468.5 31-2.626 2.731-5.793 4.564-9.5 5.5-6.918.929-13.585.429-20-1.5.988-5.14 1.321-10.474 1-16h1c-.031-8.515 4.302-12.849 13-13 2.25-3.089 5.25-5.089 9-6z"/><path style="opacity:.999" fill="#cf9302" d="M253.5 103.5c.782 7.049-.385 13.716-3.5 20-5.31 3.977-11.144 4.977-17.5 3 .453-.958 1.119-1.792 2-2.5a4.933 4.933 0 0 1-1-2.5c1.564-2.806 2.23-5.806 2-9 4.954-1.769 9.287-4.602 13-8.5a12.93 12.93 0 0 1 5-.5z"/><path style="opacity:1" fill="#ab7702" d="M253.5 103.5a12.93 12.93 0 0 0-5 .5c-3.713 3.898-8.046 6.731-13 8.5.23 3.194-.436 6.194-2 9a4.933 4.933 0 0 0 1 2.5c-.881.708-1.547 1.542-2 2.5h-6v-15c.722.418 1.222 1.084 1.5 2a36.167 36.167 0 0 1 2.5-8 34.616 34.616 0 0 1 11-2.5 21.53 21.53 0 0 0 5-6 18.437 18.437 0 0 1 6-.5 51.56 51.56 0 0 1 1 7z"/><path style="opacity:1" fill="#825500" d="M426.5 78.5c.06-.543.393-.876 1-1a91.162 91.162 0 0 0 16 2.5c1.937.122 3.27.955 4 2.5a590.642 590.642 0 0 0-17-2c.361 15.666.694 31.333 1 47-.167 13.337 0 26.671.5 40 .176 4.188.676 8.188 1.5 12v16a51.22 51.22 0 0 0-2.5-4 4.934 4.934 0 0 0-.5 3c-.995-11.488-1.328-23.155-1-35a5673.134 5673.134 0 0 0-3-81z"/><path style="opacity:.999" fill="#b47f02" d="M64.5 25.5c.663 2.141.997 4.475 1 7a3710.136 3710.136 0 0 0-4 115c.317 4.202-.017 8.202-1 12v-24c-1.322-.17-2.489.163-3.5 1a273.867 273.867 0 0 0-.5 50.5c-4.538 18.756-5.204 37.589-2 56.5a4.934 4.934 0 0 0-3 .5 23.791 23.791 0 0 0 6 2.5c-.324-6.522.01-12.855 1-19v20c-2.45.202-4.783-.131-7-1-3.055-.434-5.221-2.101-6.5-5-3.008-11.316-3.008-22.65 0-34a3110.851 3110.851 0 0 0 4.5-67c-1.392-6.49-2.058-13.156-2-20 .243-6.343.576-12.677 1-19h3a8.435 8.435 0 0 1 .5-4c2.364-2.134 3.864-4.801 4.5-8-2.387-3.417-3.387-7.25-3-11.5a87.168 87.168 0 0 1 2-15 6.288 6.288 0 0 0-1-3c-5.459-.961-6.292-3.461-2.5-7.5a82.024 82.024 0 0 0 3.5-12 108.282 108.282 0 0 1 9-15z"/><path style="opacity:.999" fill="#f4ac03" d="M363.5 70.5h3a1578.428 1578.428 0 0 0-7.5 55 3239.953 3239.953 0 0 0-8.5 44c-.722-.418-1.222-1.084-1.5-2l-1 5c-.51-2.045-1.343-3.879-2.5-5.5a8.43 8.43 0 0 0-4-.5 53.957 53.957 0 0 1 2-17 8.43 8.43 0 0 0 4-.5c-1.5-.833-2.667-2-3.5-3.5a50.464 50.464 0 0 1-.5-10h4c-7.37-16.373-4.87-31.04 7.5-44a52.141 52.141 0 0 1 1.5-10c2.433-1.985 2.433-4.152 0-6.5a81.216 81.216 0 0 0 3-2.5c1.014-1.174 2.347-1.84 4-2z"/><path style="opacity:.999" fill="#c28901" d="M426.5 78.5a5673.134 5673.134 0 0 1 3 81 80.9 80.9 0 0 1-4-9c-1.898-1.234-3.565-.901-5 1-4.521 8.421-6.354 17.421-5.5 27 1.356.88 2.856 1.214 4.5 1v6c-1.175-.219-2.175.114-3 1-.442 1.239-1.109 2.239-2 3a4751.607 4751.607 0 0 0-19-102 358.03 358.03 0 0 1 31-9z"/><path style="opacity:.059" fill="#848a1f" d="M491.5 128.5c.767.672 1.434 1.505 2 2.5-.586 3.932-.92 8.099-1 12.5-.987-4.805-1.321-9.805-1-15z"/><path style="opacity:1" fill="#8a6004" d="M49.5 50.5a1446.829 1446.829 0 0 1-4.5 54c-3.238 12.36-3.904 25.027-2 38 3.212 3.965 3.212 7.965 0 12a239.682 239.682 0 0 1-3.5 40 361.096 361.096 0 0 1 .5 44 28.233 28.233 0 0 1-1.5 4c-.997.03-1.664-.47-2-1.5a536.499 536.499 0 0 0 1-45.5v-8c1.23-4.794 2.063-9.794 2.5-15 .404-37.364 1.57-74.697 3.5-112 1.5-3.673 3.5-7.006 6-10z"/><path style="opacity:.999" fill="#9b6c01" d="M55.5 40.5a82.024 82.024 0 0 1-3.5 12c-3.792 4.039-2.959 6.539 2.5 7.5a6.288 6.288 0 0 1 1 3 87.168 87.168 0 0 0-2 15c-.387 4.25.613 8.083 3 11.5-.636 3.199-2.136 5.866-4.5 8a8.435 8.435 0 0 0-.5 4h-3a663.763 663.763 0 0 0-1 19c-.058 6.844.608 13.51 2 20a3110.851 3110.851 0 0 1-4.5 67c-3.008 11.35-3.008 22.684 0 34 1.279 2.899 3.445 4.566 6.5 5a38.354 38.354 0 0 1-12-2l-1-2a28.233 28.233 0 0 0 1.5-4 361.096 361.096 0 0 0-.5-44 239.682 239.682 0 0 0 3.5-40c3.212-4.035 3.212-8.035 0-12-1.904-12.973-1.238-25.64 2-38 1.84-18.004 3.34-36.004 4.5-54 1.5-3.673 3.5-7.006 6-10z"/><path style="opacity:.999" fill="#bc8604" d="M380.5 115.5a831.202 831.202 0 0 1 10 61 160.278 160.278 0 0 0-17-1 1136.762 1136.762 0 0 1 7-60z"/><path style="opacity:.999" fill="#835600" d="M373.5 175.5c5.689.032 11.355.366 17 1a831.202 831.202 0 0 0-10-61 66.755 66.755 0 0 1 1.5-14 6386.463 6386.463 0 0 1 12.5 77 118.273 118.273 0 0 1-16-1c-2.14-.056-3.806-.723-5-2z"/><path style="opacity:.999" fill="#8e7400" d="M431.5 127.5a1077.654 1077.654 0 0 1 2 52c-.824-3.812-1.324-7.812-1.5-12a799.793 799.793 0 0 1-.5-40z"/><path style="opacity:1" fill="#422500" d="M111.5 151.5c2.805.819 5.805 1.319 9 1.5l-1 1c-5.991.499-11.991.666-18 .5a754.589 754.589 0 0 1 0 39v2c-.79 1.109-1.29 2.442-1.5 4a800.393 800.393 0 0 1-.5-40v-8h12z"/><path style="opacity:1" fill="#573702" d="M280.5 129.5c-1.472 13.285-8.139 22.952-20 29l-1-.5c.881-.708 1.547-1.542 2-2.5 4.099-1.808 7.599-4.475 10.5-8a129.237 129.237 0 0 0 8.5-18z"/><path style="opacity:1" fill="#cb9002" d="M300.5 147.5v92l-6-1a358.463 358.463 0 0 1-1.5-10 20.79 20.79 0 0 0-2.5-1 91.455 91.455 0 0 1 1-9c-4.942-1.446-7.609-4.779-8-10a53.638 53.638 0 0 0-2-10 18.346 18.346 0 0 0 2-9h4c-.165-3.35.002-6.683.5-10 4.997-4.65 3.83-8.65-3.5-12-.952-3.661-.785-7.328.5-11a56.405 56.405 0 0 0 3.5-10l6-5c1.656 1.522 2.823 1.189 3.5-1a49.83 49.83 0 0 0 2.5 7z"/><path style="opacity:1" fill="#5f4303" d="M111.5 151.5c8.371-.987 16.038.68 23 5a16.076 16.076 0 0 0 2 5l-1 1c-1.932-1.02-3.932-1.187-6-.5a40.442 40.442 0 0 1-16 6 36.176 36.176 0 0 0-6.5 3.5c-.391 6.984-1.891 13.651-4.5 20 .172.992-.162 1.658-1 2a754.589 754.589 0 0 0 0-39c6.009.166 12.009-.001 18-.5l1-1c-3.195-.181-6.195-.681-9-1.5z"/><path style="opacity:1" fill="#e8d527" d="M197.5 98.5c.296 43.178-.371 86.178-2 129v-48l2-81z"/><path style="opacity:1" fill="#71520f" d="M43.5 60.5a2741.993 2741.993 0 0 0-3.5 112c-.437 5.206-1.27 10.206-2.5 15l3.5-96c.206-10.536 1.039-20.87 2.5-31z"/><path style="opacity:.999" fill="#b88204" d="M299.5 59.5a1937.241 1937.241 0 0 1 1 88 49.83 49.83 0 0 1-2.5-7c-.677 2.189-1.844 2.522-3.5 1l-6 5a56.405 56.405 0 0 1-3.5 10c-1.285 3.672-1.452 7.339-.5 11 7.33 3.35 8.497 7.35 3.5 12a50.464 50.464 0 0 0-.5 10h-4a18.346 18.346 0 0 1-2 9 53.638 53.638 0 0 1 2 10c.391 5.221 3.058 8.554 8 10a91.455 91.455 0 0 0-1 9c.747.236 1.58.57 2.5 1 .455 3.354.955 6.687 1.5 10l6 1v-77c.667 0 1 .333 1 1v80h-9l-3-2-13.5-54a238.027 238.027 0 0 0-8-20 146.925 146.925 0 0 0-10.5-10c1.077-1.205 2.41-1.872 4-2-.453.958-1.119 1.792-2 2.5l1 .5c11.861-6.048 18.528-15.715 20-29 1.643-5.085 2.643-10.418 3-16 4.247-.306 8.247.361 12 2 .273 7.152 1.44 7.486 3.5 1 .5-17.997.667-35.997.5-54-5.86-.304-8.527 2.529-8 8.5 2.754 4.252 2.587 8.419-.5 12.5a4.458 4.458 0 0 0-1.5-2 10.256 10.256 0 0 0-1.5 4c-.284-2.386-1.284-3.052-3-2a67.63 67.63 0 0 0-1.5 18l-2 15c1.426-15.859-.574-31.193-6-46a274.439 274.439 0 0 1 24-11z"/><path style="opacity:.999" fill="#d49303" d="M283.5 113.5v-12a67.63 67.63 0 0 1 1.5-18c1.716-1.052 2.716-.386 3 2a10.256 10.256 0 0 1 1.5-4 4.458 4.458 0 0 1 1.5 2c3.087-4.081 3.254-8.248.5-12.5-.527-5.971 2.14-8.804 8-8.5.167 18.003 0 36.003-.5 54-2.06 6.486-3.227 6.152-3.5-1-3.753-1.639-7.753-2.306-12-2z"/><path style="opacity:.997" fill="#eee216" d="M326.5 131.5c.986 4.47 1.319 9.137 1 14 .243 31.84.243 63.507 0 95a3000.126 3000.126 0 0 1-1-109z"/><path style="opacity:.999" fill="#c78d04" d="M60.5 159.5a6948.681 6948.681 0 0 1-2 68c-.99 6.145-1.324 12.478-1 19a23.791 23.791 0 0 1-6-2.5 4.934 4.934 0 0 1 3-.5c-3.204-18.911-2.538-37.744 2-56.5a273.867 273.867 0 0 1 .5-50.5c1.011-.837 2.178-1.17 3.5-1v24z"/><path style="opacity:.999" fill="#704900" d="M304.5 171.5c-.331 23.173.002 46.173 1 69v1c-1.459-.067-2.792.266-4 1v-79c.79-1.109 1.29-2.442 1.5-4 .176 4.188.676 8.188 1.5 12z"/><path style="opacity:.998" fill="#764c00" d="M65.5 131.5v16c-1 19.988-1.666 39.988-2 60a342.838 342.838 0 0 0-1 37h9c-4.156.949-8.49 1.616-13 2v-19c.778-22.663 1.444-45.33 2-68 .983-3.798 1.317-7.798 1-12 .824-3.812 1.324-7.812 1.5-12 .2-1.82 1.034-3.153 2.5-4z"/><path style="opacity:.999" fill="#825901" d="M134.5 156.5c2.635 2.579 4.801 5.579 6.5 9a90.455 90.455 0 0 1 0 19c-.778 8.731-5.278 14.564-13.5 17.5-9.994.5-19.994.666-30 .5.314-14.506.98-28.839 2-43-.167 13.337 0 26.671.5 40 .21-1.558.71-2.891 1.5-4v4h13c13.253 2.385 20.92-2.948 23-16 1.637-6.073 1.137-12.073-1.5-18-2.305-1.439-4.138-.939-5.5 1.5-2.42-.988-4.753-.655-7 1a121.805 121.805 0 0 1-12 7.5 1812.725 1812.725 0 0 0-3 12 4.934 4.934 0 0 0-3 .5c-.474 1.729-1.474 2.895-3 3.5 2.609-6.349 4.109-13.016 4.5-20a36.176 36.176 0 0 1 6.5-3.5 40.442 40.442 0 0 0 16-6c2.068-.687 4.068-.52 6 .5l1-1a16.076 16.076 0 0 1-2-5z"/><path style="opacity:.999" fill="#9d6d02" d="M137.5 183.5v-12c-.761-.891-1.761-1.558-3-2-4.19.924-7.524 3.09-10 6.5-1.964.624-3.631.124-5-1.5a3.647 3.647 0 0 0-1.5 1l-1 6c-4.241 3.978-7.074 8.811-8.5 14.5.362 1.434 1.028 2.601 2 3.5h-9v-6c.838-.342 1.172-1.008 1-2 1.526-.605 2.526-1.771 3-3.5a4.934 4.934 0 0 1 3-.5c.979-3.974 1.979-7.974 3-12a121.805 121.805 0 0 0 12-7.5c2.247-1.655 4.58-1.988 7-1 1.362-2.439 3.195-2.939 5.5-1.5 2.637 5.927 3.137 11.927 1.5 18z"/><path style="opacity:1" fill="#850" d="M363.5 70.5c3.811-1.145 7.811-1.312 12-.5l15 2.5c1.53.14 2.53.806 3 2a247.591 247.591 0 0 1-20.5-3c-1.326.255-2.326.922-3 2a21674.646 21674.646 0 0 0-26.5 167l-1 2h-3c3.56-24.36 7.227-48.693 11-73a3239.953 3239.953 0 0 1 8.5-44c2.18-18.395 4.68-36.728 7.5-55h-3z"/><path style="opacity:.999" fill="#b47f01" d="M137.5 171.5c-2 3.35-3.5 7.016-4.5 11-1.972.805-3.472 2.139-4.5 4a17.54 17.54 0 0 0-6 3 3.647 3.647 0 0 1-1.5-1c-1.476 4.287-4.309 7.287-8.5 9a31.147 31.147 0 0 1 2 2h-4c-.972-.899-1.638-2.066-2-3.5 1.426-5.689 4.259-10.522 8.5-14.5l1-6a3.647 3.647 0 0 1 1.5-1c1.369 1.624 3.036 2.124 5 1.5 2.476-3.41 5.81-5.576 10-6.5 1.239.442 2.239 1.109 3 2z"/><path style="opacity:1" fill="#d79805" d="M137.5 171.5v12c-2.08 13.052-9.747 18.385-23 16a31.147 31.147 0 0 0-2-2c4.191-1.713 7.024-4.713 8.5-9 .414.457.914.791 1.5 1a17.54 17.54 0 0 1 6-3c1.028-1.861 2.528-3.195 4.5-4 1-3.984 2.5-7.65 4.5-11z"/><path style="opacity:.999" fill="#d09303" d="M429.5 159.5c-.328 11.845.005 23.512 1 35a1280.35 1280.35 0 0 1 1 46c-2.107.968-4.441 1.302-7 1 .172-.992-.162-1.658-1-2a1132.972 1132.972 0 0 0-9-50c.891-.761 1.558-1.761 2-3 .825-.886 1.825-1.219 3-1v-6c-1.644.214-3.144-.12-4.5-1-.854-9.579.979-18.579 5.5-27 1.435-1.901 3.102-2.234 5-1a80.9 80.9 0 0 0 4 9z"/><path style="opacity:.999" fill="#8b5f01" d="M225.5 195.5c.768.763 1.268 1.763 1.5 3 3.206-1.624 5.872-.958 8 2a20.64 20.64 0 0 0 2 6c3.897 3.791 6.064 8.124 6.5 13-3.258-2.448-6.425-2.115-9.5 1-1.987-.654-3.32-1.987-4-4l-1 3c-.74-1.819-1.907-3.152-3.5-4v-20z"/><path style="opacity:.999" fill="#996d02" d="M452.5 152.5c-1.149.291-1.816 1.124-2 2.5a10634.277 10634.277 0 0 1 18 60.5v4c-3.933.304-6.933-1.196-9-4.5a36.621 36.621 0 0 1-8-3.5 2945.457 2945.457 0 0 1-2.5-70 49.174 49.174 0 0 1 3.5 11z"/><path style="opacity:.999" fill="#9f7103" d="M243.5 219.5c-.436-4.876-2.603-9.209-6.5-13a20.64 20.64 0 0 1-2-6c-2.128-2.958-4.794-3.624-8-2-.232-1.237-.732-2.237-1.5-3v-25c2.502-.249 5.002-.583 7.5-1 2.255.11 3.922 1.11 5 3a667.85 667.85 0 0 1 14.5 55c-3.585-1.913-6.585-4.58-9-8z"/><path style="opacity:1" fill="#774500" d="M195.5 179.5v13a791.918 791.918 0 0 0-1.5 40c-.528 4.199-1.361 8.199-2.5 12 .2-27.002.533-54.002 1-81a159.141 159.141 0 0 0 1.5-18l1 2c.5 10.661.667 21.328.5 32z"/><path style="opacity:.999" fill="#5f4303" d="M423.5 239.5c.838.342 1.172 1.008 1 2-27.33.2-54.663.534-82 1l1-2h22a344.479 344.479 0 0 1 3-30h31a575.289 575.289 0 0 1 4 29h20z"/><path style="opacity:.999" fill="#836002" d="M451.5 211.5a36.621 36.621 0 0 0 8 3.5c2.067 3.304 5.067 4.804 9 4.5v-4c2.267 5.046 3.934 10.379 5 16a2.428 2.428 0 0 1-.5 2 72.028 72.028 0 0 1-12.5-7.5 32.462 32.462 0 0 0-8-.5v14c-6.19.323-12.19-.01-18-1h17v-27z"/><path style="opacity:1" fill="#553602" d="M157.5 235.5h-2a115.977 115.977 0 0 0 8.5-12c6.747-15.966 9.414-32.632 8-50-1.046-18.118-9.213-31.784-24.5-41 4.586-3.079 8.753-6.746 12.5-11 8.649-17.131 10.815-35.131 6.5-54a2.429 2.429 0 0 1 .5-2c4.184 14.19 4.517 28.524 1 43-2.534 9.918-7.701 18.084-15.5 24.5a39.068 39.068 0 0 0 9 7.5 111.488 111.488 0 0 0 7.5 12c1.459 4.3 2.793 8.633 4 13 2.496 20.301.163 39.968-7 59-2.315 4.138-5.148 7.805-8.5 11z"/><path style="opacity:.999" fill="#6e4b01" d="M236.5 164.5c1.294.79 2.461 1.79 3.5 3a938.746 938.746 0 0 1 16.5 58c-1.752-.082-2.752.751-3 2.5a584.308 584.308 0 0 1 4 14.5 556.03 556.03 0 0 1-32 0v-27c1.593.848 2.76 2.181 3.5 4l1-3c.68 2.013 2.013 3.346 4 4 3.075-3.115 6.242-3.448 9.5-1 2.415 3.42 5.415 6.087 9 8a667.85 667.85 0 0 0-14.5-55c-1.078-1.89-2.745-2.89-5-3-2.498.417-4.998.751-7.5 1v-7c3.766.215 7.1 1.549 10 4 .017-.894.351-1.894 1-3z"/><path style="opacity:.999" fill="#563602" d="M452.5 152.5a3388.452 3388.452 0 0 0 27 85 64.873 64.873 0 0 0 16 1v2c-8.164.955-16.164.955-24 0h4c.08-3.281-.587-6.281-2-9-1.066-5.621-2.733-10.954-5-16a10634.277 10634.277 0 0 0-18-60.5c.184-1.376.851-2.209 2-2.5z"/><path style="opacity:1" fill="#503403" d="M236.5 164.5c-.649 1.106-.983 2.106-1 3-2.9-2.451-6.234-3.785-10-4v79a556.03 556.03 0 0 0 32 0 584.308 584.308 0 0 0-4-14.5c.248-1.749 1.248-2.582 3-2.5a51.632 51.632 0 0 1 4 16h29l3 2c-19.003 1.191-38.17 1.191-57.5 0-14.332 1.757-28.832 2.424-43.5 2v-1c1.139-3.801 1.972-7.801 2.5-12 .169-13.506.669-26.84 1.5-40v50h28v-82c5.136-.837 9.469.497 13 4z"/><path style="opacity:1" fill="#856100" d="M327.5 145.5h1c-.02 32.338.313 64.671 1 97a151.198 151.198 0 0 0-24-1v-1h22c.243-31.493.243-63.16 0-95z"/><path style="opacity:1" fill="#725101" d="M387.5 214.5h9c1.005 8.679 2.005 17.346 3 26-7.92.315-15.753-.018-23.5-1l-.5-1.5c3.592-1.986 3.759-4.153.5-6.5a126.33 126.33 0 0 0-2-12 23.65 23.65 0 0 1 3.5-3 624.355 624.355 0 0 0 10-2z"/><path style="opacity:.999" fill="#6b4801" d="M433.5 195.5c.605 14.326.938 28.659 1 43 5.81.99 11.81 1.323 18 1v-14a32.462 32.462 0 0 1 8 .5 72.028 72.028 0 0 0 12.5 7.5 2.428 2.428 0 0 0 .5-2c1.413 2.719 2.08 5.719 2 9h-44a1280.35 1280.35 0 0 0-1-46 4.934 4.934 0 0 1 .5-3 51.22 51.22 0 0 1 2.5 4z"/><path style="opacity:.996" fill="#decf2b" d="M63.5 207.5a320.266 320.266 0 0 0 1 35.5c14.33.5 28.663.667 43 .5-11.822.995-23.822 1.328-36 1h-9a342.838 342.838 0 0 1 1-37z"/><path style="opacity:1" fill="#624810" d="M37.5 195.5a536.499 536.499 0 0 1-1 45.5c.336 1.03 1.003 1.53 2 1.5l1 2a5.575 5.575 0 0 1-3-1l-1-8a1549.01 1549.01 0 0 1 2-40z"/><path style="opacity:1" fill="#472706" d="M305.5 241.5c8.086-.301 16.086.033 24 1v1h-28v-1c1.208-.734 2.541-1.067 4-1z"/><path style="opacity:1" fill="#402702" d="M155.5 235.5h2a31.538 31.538 0 0 1-8 7 120.922 120.922 0 0 1-30 4.5c-20.33.5-40.664.667-61 .5v-1c4.51-.384 8.844-1.051 13-2 12.178.328 24.178-.005 36-1 8.007.166 16.007 0 24-.5 8.559-.969 16.559-3.469 24-7.5z"/></svg>