<?xml version="1.0" encoding="UTF-8"?>
<!DOCTYPE svg PUBLIC "-//W3C//DTD SVG 1.1//EN" "http://www.w3.org/Graphics/SVG/1.1/DTD/svg11.dtd">
<svg xmlns="http://www.w3.org/2000/svg" version="1.1" width="384px" height="60px" style="shape-rendering:geometricPrecision; text-rendering:geometricPrecision; image-rendering:optimizeQuality; fill-rule:evenodd; clip-rule:evenodd" xmlns:xlink="http://www.w3.org/1999/xlink">
<g><path style="opacity:1" fill="#f9f9f9" d="M -0.5,-0.5 C 127.5,-0.5 255.5,-0.5 383.5,-0.5C 383.5,19.5 383.5,39.5 383.5,59.5C 255.5,59.5 127.5,59.5 -0.5,59.5C -0.5,39.5 -0.5,19.5 -0.5,-0.5 Z"/></g>
<g><path style="opacity:1" fill="#070707" d="M 136.5,4.5 C 131.821,4.33418 127.155,4.50085 122.5,5C 126.688,5.17618 130.688,5.67618 134.5,6.5C 130.5,6.5 126.5,6.5 122.5,6.5C 121.672,12.3193 121.172,18.3193 121,24.5C 120.667,18.5 120.333,12.5 120,6.5C 119.5,21.4963 119.333,36.4963 119.5,51.5C 124.5,51.5 129.5,51.5 134.5,51.5C 129.36,52.4881 124.026,52.8214 118.5,52.5C 118.5,35.8333 118.5,19.1667 118.5,2.5C 123.844,2.33398 129.177,2.50065 134.5,3C 135.416,3.27842 136.082,3.77842 136.5,4.5 Z"/></g>
<g><path style="opacity:1" fill="#141414" d="M 262.5,2.5 C 262.5,19.1667 262.5,35.8333 262.5,52.5C 261.5,52.5 260.5,52.5 259.5,52.5C 259.5,35.8333 259.5,19.1667 259.5,2.5C 260.5,2.5 261.5,2.5 262.5,2.5 Z"/></g>
<g><path style="opacity:1" fill="#1c1b1b" d="M 240.5,2.5 C 242.527,2.33788 244.527,2.50454 246.5,3C 244.167,5.33333 241.833,7.66667 239.5,10C 238.5,10.6667 237.5,10.6667 236.5,10C 238.494,7.84248 239.828,5.34248 240.5,2.5 Z"/></g>
<g><path style="opacity:1" fill="#c1c1c1" d="M 262.5,2.5 C 263.167,12.8333 263.833,23.1667 264.5,33.5C 264.5,34.5 264.5,35.5 264.5,36.5C 263.833,41.8333 263.167,47.1667 262.5,52.5C 262.5,35.8333 262.5,19.1667 262.5,2.5 Z"/></g>
<g><path style="opacity:1" fill="#1f1e1e" d="M 286.5,2.5 C 287.833,2.5 289.167,2.5 290.5,2.5C 290.5,4.16667 290.5,5.83333 290.5,7.5C 289.167,7.5 287.833,7.5 286.5,7.5C 286.5,5.83333 286.5,4.16667 286.5,2.5 Z"/></g>
<g><path style="opacity:1" fill="#4d6f9f" d="M 55.5,8.5 C 56.8734,8.34332 58.2068,8.50999 59.5,9C 61.1989,11.3099 63.1989,13.1433 65.5,14.5C 67.4474,12.2829 69.614,10.2829 72,8.5C 74.2833,10.1179 75.7833,12.2846 76.5,15C 79.3037,15.1293 81.9703,14.796 84.5,14C 85.2638,16.0693 85.7638,18.236 86,20.5C 88,23.8333 90,27.1667 92,30.5C 92.7805,31.9437 92.6139,33.277 91.5,34.5C 88.7377,27.9786 85.7377,21.6452 82.5,15.5C 80.3684,17.1174 78.0351,17.6174 75.5,17C 74.792,14.4114 73.4587,12.2447 71.5,10.5C 69.8539,11.7786 68.6872,13.4453 68,15.5C 67.2753,16.0585 66.4419,16.3918 65.5,16.5C 62.5736,15.0779 60.0736,13.0779 58,10.5C 57.228,10.6448 56.5613,10.9781 56,11.5C 56.0366,16.1318 53.8699,18.2985 49.5,18C 48.2748,16.437 46.7748,15.2703 45,14.5C 42.7281,16.2125 40.5614,18.0458 38.5,20C 34.7125,20.1596 31.0458,20.8263 27.5,22C 21.5651,26.0976 16.8984,31.2642 13.5,37.5C 14.0096,39.0879 15.0096,40.2545 16.5,41C 28.6741,41.5986 40.8408,41.4319 53,40.5C 56.1667,40.6667 59.3333,40.8333 62.5,41C 64.7148,41.1705 66.7148,41.8372 68.5,43C 64.0612,42.5178 59.5612,42.0178 55,41.5C 42.872,43.1148 30.7053,43.6148 18.5,43C 12.3922,41.6383 10.8922,38.1383 14,32.5C 19.7241,23.4243 27.8908,18.591 38.5,18C 39.8333,16.6667 41.1667,15.3333 42.5,14C 46.1418,13.731 49.4751,14.3977 52.5,16C 53.9913,13.6922 54.9913,11.1922 55.5,8.5 Z"/></g>
<g><path style="opacity:1" fill="#7a7979" d="M 152.5,17.5 C 151.5,17.5 150.5,17.5 149.5,17.5C 149.5,26.8333 149.5,36.1667 149.5,45.5C 148.506,36.0144 148.173,26.3478 148.5,16.5C 150.099,16.2322 151.432,16.5655 152.5,17.5 Z"/></g>
<g><path style="opacity:1" fill="#1d1d1d" d="M 152.5,17.5 C 152.334,27.1724 152.5,36.8391 153,46.5C 157,50.5 161,50.5 165,46.5C 165.5,36.8391 165.666,27.1724 165.5,17.5C 166.5,17.5 167.5,17.5 168.5,17.5C 168.5,29.1667 168.5,40.8333 168.5,52.5C 167.685,51.5707 166.852,50.5707 166,49.5C 158.458,55.8884 152.958,54.5551 149.5,45.5C 149.5,36.1667 149.5,26.8333 149.5,17.5C 150.5,17.5 151.5,17.5 152.5,17.5 Z"/></g>
<g><path style="opacity:1" fill="#757474" d="M 290.5,17.5 C 289.5,17.5 288.5,17.5 287.5,17.5C 287.5,29.1667 287.5,40.8333 287.5,52.5C 286.505,40.6783 286.172,28.6783 286.5,16.5C 288.099,16.2322 289.432,16.5655 290.5,17.5 Z"/></g>
<g><path style="opacity:1" fill="#1f1e1e" d="M 290.5,17.5 C 290.5,29.1667 290.5,40.8333 290.5,52.5C 289.5,52.5 288.5,52.5 287.5,52.5C 287.5,40.8333 287.5,29.1667 287.5,17.5C 288.5,17.5 289.5,17.5 290.5,17.5 Z"/></g>
<g><path style="opacity:1" fill="#727171" d="M 165.5,17.5 C 166.568,16.5655 167.901,16.2322 169.5,16.5C 169.828,28.6783 169.495,40.6783 168.5,52.5C 168.5,40.8333 168.5,29.1667 168.5,17.5C 167.5,17.5 166.5,17.5 165.5,17.5 Z"/></g>
<g><path style="opacity:1" fill="#9e9d9d" d="M 195.5,17.5 C 189.167,17.5 182.833,17.5 176.5,17.5C 176.5,18.5 176.5,19.5 176.5,20.5C 181.214,20.1734 185.88,20.5067 190.5,21.5C 190.376,22.1067 190.043,22.44 189.5,22.5C 185.03,21.5139 180.363,21.1805 175.5,21.5C 175.5,19.8333 175.5,18.1667 175.5,16.5C 182.354,16.176 189.021,16.5093 195.5,17.5 Z"/></g>
<g><path style="opacity:1" fill="#1f1f1f" d="M 236.5,32.5 C 240.167,32.5 243.833,32.5 247.5,32.5C 247.806,29.6146 247.473,26.9479 246.5,24.5C 246.489,22.9826 245.823,21.8159 244.5,21C 241.833,20.3333 239.167,20.3333 236.5,21C 234.771,22.7889 234.104,24.9556 234.5,27.5C 233.167,27.5 231.833,27.5 230.5,27.5C 231.673,17.4115 237.006,14.2449 246.5,18C 248.049,19.214 249.215,20.714 250,22.5C 250.667,32.5 250.667,42.5 250,52.5C 247.864,48.7614 245.697,48.928 243.5,53C 233.03,53.8531 228.863,49.0197 231,38.5C 232.331,36.0038 234.164,34.0038 236.5,32.5 Z"/></g>
<g><path style="opacity:1" fill="#6f87ad" d="M 60.5,19.5 C 61.29,20.6085 61.79,21.9419 62,23.5C 63.8303,19.8564 65.4969,20.1898 67,24.5C 68.813,23.3909 69.6463,24.0576 69.5,26.5C 72.2257,26.2639 74.559,27.0972 76.5,29C 74.7445,29.1405 73.0778,28.6405 71.5,27.5C 70.0944,28.6682 68.9277,28.3348 68,26.5C 67.6924,27.3081 67.1924,27.9747 66.5,28.5C 65.5745,27.3595 64.7412,27.3595 64,28.5C 63.0855,24.8149 62.4189,25.1482 62,29.5C 61.6667,28.1667 61.3333,26.8333 61,25.5C 59.4969,29.8102 57.8303,30.1436 56,26.5C 54.5823,29.001 53.5823,28.6677 53,25.5C 52.3611,28.2277 51.1944,28.7277 49.5,27C 43.3527,25.9828 37.8527,27.4828 33,31.5C 32.3123,30.6683 32.479,30.0016 33.5,29.5C 38.7229,25.8583 44.3896,24.525 50.5,25.5C 51.3333,24.5 52.1667,23.5 53,22.5C 54.2682,22.6158 55.6015,22.9491 57,23.5C 57.5823,20.3323 58.5823,19.999 60,22.5C 60.4828,21.552 60.6495,20.552 60.5,19.5 Z"/></g>
<g><path style="opacity:1" fill="#1a1a1a" d="M 56.5,0.5 C 67.854,-0.354185 78.854,1.14582 89.5,5C 97.1849,11.5185 100.518,19.6851 99.5,29.5C 98.3624,20.7254 94.6957,13.2254 88.5,7C 86.2827,5.72457 83.9494,4.72457 81.5,4C 57.066,0.482458 35.066,6.14912 15.5,21C 10.8134,25.5427 6.98005,30.7094 4,36.5C 3.03439,42.8827 5.86772,46.3827 12.5,47C 28.8393,46.7762 45.1727,46.4429 61.5,46C 64.7536,46.2503 67.7536,47.2503 70.5,49C 78.3307,58.2094 80.164,57.0428 76,45.5C 73.7437,40.2425 69.9104,36.7425 64.5,35C 57.0426,34.6215 49.7093,34.4548 42.5,34.5C 43.7287,33.7189 45.062,33.2189 46.5,33C 52.8333,32.3333 59.1667,32.3333 65.5,33C 76.45,37.9065 81.1167,46.2398 79.5,58C 78.5,58.6667 77.5,58.6667 76.5,58C 72.925,53.0849 68.2584,49.7515 62.5,48C 46.1727,48.4429 29.8393,48.7762 13.5,49C 3.2141,48.3861 -0.285897,43.2194 3,33.5C 6.02843,27.4658 10.1951,22.2991 15.5,18C 28.231,9.70955 41.8977,3.87622 56.5,0.5 Z"/></g>
<g><path style="opacity:1" fill="#292828" d="M 136.5,4.5 C 139.452,5.35885 141.285,7.35885 142,10.5C 143.235,16.6256 141.735,21.9589 137.5,26.5C 143.213,33.1469 144.046,40.4802 140,48.5C 138.736,50.607 136.903,51.607 134.5,51.5C 129.5,51.5 124.5,51.5 119.5,51.5C 119.333,36.4963 119.5,21.4963 120,6.5C 120.333,12.5 120.667,18.5 121,24.5C 121.172,18.3193 121.672,12.3193 122.5,6.5C 122.5,12.5 122.5,18.5 122.5,24.5C 134.647,27.1783 139.814,22.5117 138,10.5C 136.624,9.29493 135.458,7.9616 134.5,6.5C 130.688,5.67618 126.688,5.17618 122.5,5C 127.155,4.50085 131.821,4.33418 136.5,4.5 Z"/></g>
<g><path style="opacity:1" fill="#f6f6f6" d="M 122.5,6.5 C 126.5,6.5 130.5,6.5 134.5,6.5C 135.458,7.9616 136.624,9.29493 138,10.5C 139.814,22.5117 134.647,27.1783 122.5,24.5C 122.5,18.5 122.5,12.5 122.5,6.5 Z"/></g>
<g><path style="opacity:1" fill="#fbfbfb" d="M 122.5,28.5 C 135.66,26.1594 140.827,31.4928 138,44.5C 136.833,45.6667 135.667,46.8333 134.5,48C 130.514,48.4988 126.514,48.6655 122.5,48.5C 122.5,41.8333 122.5,35.1667 122.5,28.5 Z"/></g>
<g><path style="opacity:1" fill="#a0a0a0" d="M 246.5,24.5 C 247.473,26.9479 247.806,29.6146 247.5,32.5C 243.833,32.5 240.167,32.5 236.5,32.5C 239.625,31.5206 242.958,31.1872 246.5,31.5C 246.5,29.1667 246.5,26.8333 246.5,24.5 Z"/></g>
<g><path style="opacity:1" fill="#222222" d="M 264.5,36.5 C 264.5,35.5 264.5,34.5 264.5,33.5C 267.904,29.0352 271.071,24.3685 274,19.5C 275.555,17.4848 277.389,17.1515 279.5,18.5C 275.622,23.8744 271.955,29.3744 268.5,35C 272.096,40.9334 276.096,46.6 280.5,52C 278.833,52.6667 277.167,52.6667 275.5,52C 271.689,46.8544 268.022,41.6877 264.5,36.5 Z"/></g>
<g><path style="opacity:1" fill="#212020" d="M 208.5,16.5 C 215.643,15.0662 220.31,17.7329 222.5,24.5C 222.167,26.1667 221.167,27.1667 219.5,27.5C 218.63,20.8979 214.964,18.7312 208.5,21C 205.833,24.3333 205.833,27.6667 208.5,31C 213.532,32.5982 218.032,35.0982 222,38.5C 223.854,49.9792 219.021,54.8125 207.5,53C 203.507,50.1806 201.84,46.3473 202.5,41.5C 203.5,41.5 204.5,41.5 205.5,41.5C 205.666,48.8085 209.333,51.3085 216.5,49C 220.092,46.0293 220.425,42.696 217.5,39C 212.468,37.4018 207.968,34.9018 204,31.5C 201.392,25.1631 202.892,20.1631 208.5,16.5 Z"/></g>
<g><path style="opacity:1" fill="#eeeeee" d="M 236.5,35.5 C 240.167,35.5 243.833,35.5 247.5,35.5C 247.665,38.8499 247.498,42.1832 247,45.5C 245.982,48.6829 243.815,50.0162 240.5,49.5C 234.628,48.7856 232.462,45.4523 234,39.5C 234.662,38.0161 235.496,36.6828 236.5,35.5 Z"/></g>
<g><path style="opacity:1" fill="#51739f" d="M 339.5,16.5 C 345.21,15.2746 349.71,16.9413 353,21.5C 353.667,31.8333 353.667,42.1667 353,52.5C 352.311,51.6433 351.478,50.9767 350.5,50.5C 340.613,56.223 334.946,53.3897 333.5,42C 333.595,38.1447 335.262,35.1447 338.5,33C 342.486,32.5012 346.486,32.3345 350.5,32.5C 351.154,28.1606 350.154,24.3273 347.5,21C 341.317,19.0385 337.984,21.2052 337.5,27.5C 336.167,27.5 334.833,27.5 333.5,27.5C 333.677,22.8106 335.677,19.144 339.5,16.5 Z"/></g>
<g><path style="opacity:1" fill="#f7f8fa" d="M 340.5,35.5 C 343.833,35.5 347.167,35.5 350.5,35.5C 350.665,38.8499 350.498,42.1832 350,45.5C 347.947,49.2916 344.781,50.4582 340.5,49C 336.541,44.5015 336.541,40.0015 340.5,35.5 Z"/></g>
<g><path style="opacity:1" fill="#879bb8" d="M 81.5,35.5 C 84.0368,37.5731 85.2035,40.2398 85,43.5C 83.5462,40.9289 82.3795,38.2622 81.5,35.5 Z"/></g>
<g><path style="opacity:1" fill="#1d1c1c" d="M 195.5,17.5 C 191.09,27.3196 186.423,36.9863 181.5,46.5C 180.596,47.209 180.263,48.209 180.5,49.5C 185.5,49.5 190.5,49.5 195.5,49.5C 195.5,50.5 195.5,51.5 195.5,52.5C 188.833,52.5 182.167,52.5 175.5,52.5C 180.144,42.5416 184.811,32.5416 189.5,22.5C 190.043,22.44 190.376,22.1067 190.5,21.5C 185.88,20.5067 181.214,20.1734 176.5,20.5C 176.5,19.5 176.5,18.5 176.5,17.5C 182.833,17.5 189.167,17.5 195.5,17.5 Z"/></g>
<g><path style="opacity:1" fill="#757575" d="M 181.5,46.5 C 185.913,48.1384 190.579,49.1384 195.5,49.5C 190.5,49.5 185.5,49.5 180.5,49.5C 180.263,48.209 180.596,47.209 181.5,46.5 Z"/></g>
<g><path style="opacity:1" fill="#5576a1" d="M 308.5,2.5 C 309.833,2.5 311.167,2.5 312.5,2.5C 312.5,17.8333 312.5,33.1667 312.5,48.5C 317.833,48.5 323.167,48.5 328.5,48.5C 328.5,49.8333 328.5,51.1667 328.5,52.5C 321.833,52.5 315.167,52.5 308.5,52.5C 308.5,35.8333 308.5,19.1667 308.5,2.5 Z"/></g>
<g><path style="opacity:1" fill="#51739f" d="M 361.5,2.5 C 362.5,2.5 363.5,2.5 364.5,2.5C 364.334,8.17645 364.501,13.8431 365,19.5C 368.257,16.5715 372.091,15.7382 376.5,17C 378.378,18.5429 379.878,20.3762 381,22.5C 381.667,30.1667 381.667,37.8333 381,45.5C 378.832,52.8358 373.999,55.3358 366.5,53C 364.622,51.4571 363.122,49.6238 362,47.5C 361.5,32.5037 361.333,17.5037 361.5,2.5 Z"/></g>
<g><path style="opacity:1" fill="#f9f9fb" d="M 367.5,20.5 C 371.007,19.9935 374.174,20.6602 377,22.5C 377.667,30.5 377.667,38.5 377,46.5C 376.5,47.6667 375.667,48.5 374.5,49C 370.219,50.4582 367.053,49.2916 365,45.5C 364.333,38.5 364.333,31.5 365,24.5C 365.662,23.0161 366.496,21.6828 367.5,20.5 Z"/></g>
</svg>
