<?xml version="1.0" encoding="UTF-8"?>
<!DOCTYPE svg PUBLIC "-//W3C//DTD SVG 1.1//EN" "http://www.w3.org/Graphics/SVG/1.1/DTD/svg11.dtd">
<svg xmlns="http://www.w3.org/2000/svg" version="1.1" width="1042px" height="1042px" style="shape-rendering:geometricPrecision; text-rendering:geometricPrecision; image-rendering:optimizeQuality; fill-rule:evenodd; clip-rule:evenodd" xmlns:xlink="http://www.w3.org/1999/xlink">
<g><path style="opacity:1" fill="#fefefe" d="M -0.5,-0.5 C 346.833,-0.5 694.167,-0.5 1041.5,-0.5C 1041.5,346.833 1041.5,694.167 1041.5,1041.5C 694.167,1041.5 346.833,1041.5 -0.5,1041.5C -0.5,694.167 -0.5,346.833 -0.5,-0.5 Z"/></g>
<g><path style="opacity:1" fill="#060909" d="M 683.5,118.5 C 718.832,115.347 742.665,130.347 755,163.5C 757.379,170.393 759.379,177.393 761,184.5C 762.476,195.538 764.643,206.371 767.5,217C 778.533,221.067 789.533,225.234 800.5,229.5C 808.276,222.569 816.276,215.736 824.5,209C 859.687,187.789 891.854,191.622 921,220.5C 934.774,238.813 942.441,259.48 944,282.5C 945.094,301.579 944.427,320.579 942,339.5C 935.839,351.332 927.172,360.999 916,368.5C 915.587,371.232 914.92,373.899 914,376.5C 902.336,394.835 887.836,410.668 870.5,424C 842.475,444.768 811.975,461.268 779,473.5C 779.258,482.389 777.258,490.722 773,498.5C 773.03,508.067 771.197,517.233 767.5,526C 775.907,532.653 781.407,541.153 784,551.5C 784.667,562.5 784.667,573.5 784,584.5C 781.575,596.868 775.075,606.368 764.5,613C 757.905,616.532 750.905,618.865 743.5,620C 731.5,620.667 719.5,620.667 707.5,620C 699.047,619.239 691.38,616.405 684.5,611.5C 679.96,615.939 674.627,619.106 668.5,621C 638.167,621.667 607.833,621.667 577.5,621C 571.437,619.469 566.103,616.636 561.5,612.5C 538.507,611.334 515.507,611.167 492.5,612C 487.783,616.027 482.449,619.027 476.5,621C 446.167,621.667 415.833,621.667 385.5,621C 369.415,616.026 359.915,605.193 357,588.5C 356.501,583.177 356.334,577.844 356.5,572.5C 333.622,569.93 312.955,561.763 294.5,548C 287.373,542.541 280.539,536.708 274,530.5C 258.02,509.262 247.02,485.596 241,459.5C 233.414,422.033 240.914,388.033 263.5,357.5C 268.945,353.229 274.945,352.396 281.5,355C 283,356.5 284.5,358 286,359.5C 293.846,378.708 304.346,396.208 317.5,412C 322.983,410.114 328.65,408.448 334.5,407C 347.714,403.955 357.88,408.122 365,419.5C 368.666,425.83 371.499,432.497 373.5,439.5C 375.923,419.93 386.09,406.263 404,398.5C 418.012,393.758 430.345,396.425 441,406.5C 443.774,405.464 446.607,404.631 449.5,404C 453.884,371.296 472.217,358.63 504.5,366C 514.157,370.825 520.824,378.325 524.5,388.5C 526.79,376.771 528.457,364.938 529.5,353C 526.59,342.528 523.757,332.028 521,321.5C 515.679,300.92 516.346,280.586 523,260.5C 526.848,252.12 531.681,244.453 537.5,237.5C 533.379,218.797 533.546,200.13 538,181.5C 548.591,153.592 568.758,137.425 598.5,133C 616.739,130.314 633.406,134.147 648.5,144.5C 657.392,131.921 669.058,123.254 683.5,118.5 Z"/></g>
<g><path style="opacity:1" fill="#60be85" d="M 652.5,328.5 C 652.362,337.961 654.862,346.961 660,355.5C 667.333,365.5 674.667,375.5 682,385.5C 696.095,407.404 699.095,430.738 691,455.5C 686.763,466.072 679.93,474.572 670.5,481C 661.864,485.487 653.197,489.653 644.5,493.5C 637.457,493.28 630.457,493.614 623.5,494.5C 623.401,507.818 629.068,517.652 640.5,524C 646.994,524.068 653.327,525.068 659.5,527C 662.728,528.563 664.895,531.063 666,534.5C 666.667,550.833 666.667,567.167 666,583.5C 665.104,586.14 663.604,588.307 661.5,590C 635.5,590.667 609.5,590.667 583.5,590C 581.951,588.786 580.785,587.286 580,585.5C 579.667,571.833 579.333,558.167 579,544.5C 573.111,532.966 564.611,530.466 553.5,537C 551.877,539.08 550.377,541.246 549,543.5C 548.5,555.829 548.333,568.162 548.5,580.5C 534.167,580.5 519.833,580.5 505.5,580.5C 505.667,563.497 505.5,546.497 505,529.5C 499.192,508.363 485.358,496.53 463.5,494C 452.839,493.5 442.172,493.333 431.5,493.5C 432.716,516.215 444.716,527.382 467.5,527C 470.728,528.563 472.895,531.063 474,534.5C 474.667,550.833 474.667,567.167 474,583.5C 473.205,585.901 472.038,588.068 470.5,590C 444.167,590.667 417.833,590.667 391.5,590C 390.333,588.833 389.167,587.667 388,586.5C 387.667,572.833 387.333,559.167 387,545.5C 381.836,533.184 373.336,530.35 361.5,537C 359.791,538.916 358.457,541.082 357.5,543.5C 352.072,543.987 346.739,543.153 341.5,541C 308.693,529.526 286.526,507.359 275,474.5C 265.062,449.81 264.062,424.81 272,399.5C 272.718,398.549 273.551,398.383 274.5,399C 301.167,426.333 327.833,453.667 354.5,481C 359.657,483.168 364.657,482.835 369.5,480C 393.123,458.179 420.456,442.512 451.5,433C 490.674,421.483 530.674,415.483 571.5,415C 578.067,410.979 580.567,405.146 579,397.5C 564.753,368.759 554.087,338.759 547,307.5C 543.787,292.883 545.453,278.883 552,265.5C 555.736,260.095 560.403,255.761 566,252.5C 568.072,249.068 568.738,245.402 568,241.5C 562.055,224.425 561.055,207.091 565,189.5C 571.731,173.78 583.565,164.28 600.5,161C 612.135,159.126 622.802,161.46 632.5,168C 636.868,172.033 640.868,176.366 644.5,181C 645.737,181.232 646.737,181.732 647.5,182.5C 644.482,182.665 641.482,182.498 638.5,182C 619.232,174.711 604.732,180.211 595,198.5C 585.225,220.908 586.558,242.575 599,263.5C 603.299,268.805 608.466,272.972 614.5,276C 620.08,277.517 625.747,277.851 631.5,277C 632.416,276.722 633.082,276.222 633.5,275.5C 636.936,276.782 640.269,276.782 643.5,275.5C 657.171,273.672 666.671,266.339 672,253.5C 677.15,238.726 677.816,223.726 674,208.5C 669.347,196.352 661.181,187.685 649.5,182.5C 653.41,182.737 657.077,181.904 660.5,180C 664.711,173.747 668.545,167.247 672,160.5C 682.636,145.514 696.136,142.347 712.5,151C 721.65,157.143 726.817,165.643 728,176.5C 716.872,163.496 707.538,164.496 700,179.5C 696.41,197.988 701.243,213.822 714.5,227C 726.175,232.835 733.842,229.335 737.5,216.5C 738.686,221.598 740.186,226.598 742,231.5C 743.459,234.756 745.626,237.423 748.5,239.5C 766.357,246.175 784.024,253.342 801.5,261C 805.594,261.767 809.594,261.434 813.5,260C 819.933,252.477 826.6,245.144 833.5,238C 854.904,218.966 876.404,218.799 898,237.5C 906.213,247.785 911.546,259.452 914,272.5C 917.281,292.527 917.281,312.527 914,332.5C 903.644,343.269 891.478,351.435 877.5,357C 843.574,371.099 808.241,377.432 771.5,376C 761.499,374.653 754.332,369.486 750,360.5C 749.037,352.151 748.037,343.817 747,335.5C 740.974,326.755 733.474,325.255 724.5,331C 718.626,341.27 709.96,345.604 698.5,344C 686.06,330.97 676.227,316.136 669,299.5C 662.803,293.896 655.969,293.063 648.5,297C 643.913,301.228 642.413,306.394 644,312.5C 646.606,318.05 649.439,323.384 652.5,328.5 Z"/></g>
<g><path style="opacity:1" fill="#fafbfa" d="M 647.5,182.5 C 648.167,182.5 648.833,182.5 649.5,182.5C 661.181,187.685 669.347,196.352 674,208.5C 677.816,223.726 677.15,238.726 672,253.5C 666.671,266.339 657.171,273.672 643.5,275.5C 635.95,272.72 633.45,267.387 636,259.5C 641.632,253.209 647.632,252.876 654,258.5C 655.275,260.717 656.275,263.051 657,265.5C 666.163,247.918 667.83,229.584 662,210.5C 658.931,200.494 653.097,192.66 644.5,187C 632.784,183.105 623.95,186.605 618,197.5C 612.996,206.686 610.829,216.519 611.5,227C 610.911,241.817 614.744,255.317 623,267.5C 625.901,271.025 629.401,273.692 633.5,275.5C 633.082,276.222 632.416,276.722 631.5,277C 625.747,277.851 620.08,277.517 614.5,276C 608.466,272.972 603.299,268.805 599,263.5C 586.558,242.575 585.225,220.908 595,198.5C 604.732,180.211 619.232,174.711 638.5,182C 641.482,182.498 644.482,182.665 647.5,182.5 Z"/></g>
<g><path style="opacity:1" fill="#07090a" d="M 643.5,275.5 C 640.269,276.782 636.936,276.782 633.5,275.5C 629.401,273.692 625.901,271.025 623,267.5C 614.744,255.317 610.911,241.817 611.5,227C 610.829,216.519 612.996,206.686 618,197.5C 623.95,186.605 632.784,183.105 644.5,187C 653.097,192.66 658.931,200.494 662,210.5C 667.83,229.584 666.163,247.918 657,265.5C 656.275,263.051 655.275,260.717 654,258.5C 647.632,252.876 641.632,253.209 636,259.5C 633.45,267.387 635.95,272.72 643.5,275.5 Z"/></g>
<g><path style="opacity:1" fill="#070b0b" d="M 880.5,250.5 C 889.262,250.747 895.095,255.081 898,263.5C 898.667,268.5 898.667,273.5 898,278.5C 894.875,287.719 889.042,289.885 880.5,285C 872.195,276.376 870.362,266.543 875,255.5C 876.73,253.598 878.563,251.931 880.5,250.5 Z"/></g>
<g><path style="opacity:1" fill="#060a0a" d="M 842.5,253.5 C 853.667,253.168 859,258.668 858.5,270C 858.31,279.917 854.643,288.25 847.5,295C 841.535,298.732 836.035,298.232 831,293.5C 824.285,277.013 828.118,263.68 842.5,253.5 Z"/></g>
<g><path style="opacity:1" fill="#faf0ce" d="M 652.5,328.5 C 660.055,343.224 670.055,356.057 682.5,367C 695.463,375.149 708.796,375.649 722.5,368.5C 730.117,386.616 743.45,398.116 762.5,403C 775.805,404.443 789.138,404.777 802.5,404C 820.68,401.628 838.68,398.628 856.5,395C 826.236,418.971 792.57,436.971 755.5,449C 749.041,451.456 745.707,456.122 745.5,463C 747.203,469.065 747.703,475.232 747,481.5C 740.6,487.805 738.767,495.305 741.5,504C 741.477,506.925 740.977,509.759 740,512.5C 736.794,516.281 733.128,519.615 729,522.5C 726.625,529.365 724.625,536.365 723,543.5C 717.507,554.838 708.674,561.838 696.5,564.5C 696.667,552.162 696.5,539.829 696,527.5C 690.823,509.48 678.989,498.647 660.5,495C 655.192,494.17 649.859,493.67 644.5,493.5C 653.197,489.653 661.864,485.487 670.5,481C 679.93,474.572 686.763,466.072 691,455.5C 699.095,430.738 696.095,407.404 682,385.5C 674.667,375.5 667.333,365.5 660,355.5C 654.862,346.961 652.362,337.961 652.5,328.5 Z"/></g>
<g><path style="opacity:1" fill="#5fbb83" d="M 752.5,551.5 C 754.411,551.574 755.578,552.574 756,554.5C 756.949,564.6 756.615,574.6 755,584.5C 752.072,588.381 748.239,590.881 743.5,592C 733.5,592.667 723.5,592.667 713.5,592C 732.473,584.195 745.473,570.695 752.5,551.5 Z"/></g>
<g><path style="opacity:1" fill="#080a0b" d="M 173.5,686.5 C 201.138,683.74 225.805,690.907 247.5,708C 251.548,711.712 255.215,715.712 258.5,720C 254.057,726.114 249.224,731.947 244,737.5C 230.85,721.342 214.016,711.509 193.5,708C 174.28,706.296 157.28,711.629 142.5,724C 110.668,754.161 103.835,789.327 122,829.5C 140.476,862.489 168.31,875.655 205.5,869C 221.246,863.88 234.079,854.713 244,841.5C 248.667,846.833 253.333,852.167 258,857.5C 258.667,858.5 258.667,859.5 258,860.5C 236.811,884.998 209.977,895.498 177.5,892C 132.712,885.548 103.546,860.714 90,817.5C 79.0838,769.23 93.5838,730.73 133.5,702C 145.95,694.264 159.284,689.097 173.5,686.5 Z"/></g>
<g><path style="opacity:1" fill="#0b0d0e" d="M 423.5,691.5 C 432.117,690.056 437.95,693.389 441,701.5C 442.429,714.738 436.595,720.572 423.5,719C 415.878,715.167 413.045,709.001 415,700.5C 416.252,698.999 417.252,697.332 418,695.5C 420.015,694.303 421.849,692.97 423.5,691.5 Z"/></g>
<g><path style="opacity:1" fill="#080a0b" d="M 389.5,794.5 C 389.5,826.5 389.5,858.5 389.5,890.5C 382.167,890.5 374.833,890.5 367.5,890.5C 367.826,886.116 367.492,881.783 366.5,877.5C 365.893,877.624 365.56,877.957 365.5,878.5C 358.212,886.144 349.212,890.644 338.5,892C 319.041,895.765 302.208,890.932 288,877.5C 275.401,857.472 276.901,838.638 292.5,821C 300.801,814.517 310.134,810.184 320.5,808C 335.797,806.641 351.131,806.141 366.5,806.5C 367.803,782.969 356.803,772.135 333.5,774C 323.8,776.682 315.134,781.182 307.5,787.5C 302.532,785.013 297.866,782.013 293.5,778.5C 292.269,777.349 292.269,776.183 293.5,775C 309.471,759.851 328.471,752.851 350.5,754C 374.176,757.164 387.176,770.664 389.5,794.5 Z"/></g>
<g><path style="opacity:1" fill="#060809" d="M 675.5,802.5 C 675.5,831.833 675.5,861.167 675.5,890.5C 668.167,890.5 660.833,890.5 653.5,890.5C 653.831,861.995 653.498,833.662 652.5,805.5C 649.715,784.885 637.882,774.219 617,773.5C 596.986,774.403 585.819,784.737 583.5,804.5C 582.502,832.995 582.169,861.662 582.5,890.5C 575.167,890.5 567.833,890.5 560.5,890.5C 560.831,862.328 560.498,834.328 559.5,806.5C 557.326,785.827 545.826,774.827 525,773.5C 506.023,774.312 494.523,783.979 490.5,802.5C 489.502,831.662 489.169,860.995 489.5,890.5C 481.833,890.5 474.167,890.5 466.5,890.5C 466.5,845.5 466.5,800.5 466.5,755.5C 474.167,755.5 481.833,755.5 489.5,755.5C 489.334,762.175 489.5,768.842 490,775.5C 504.083,757.131 522.583,750.297 545.5,755C 559.799,758.301 570.299,766.467 577,779.5C 592.214,757.141 613.047,749.307 639.5,756C 661.909,763.27 673.909,778.77 675.5,802.5 Z"/></g>
<g><path style="opacity:1" fill="#07090a" d="M 806.5,890.5 C 798.833,890.5 791.167,890.5 783.5,890.5C 783.826,886.116 783.492,881.783 782.5,877.5C 781.893,877.624 781.56,877.957 781.5,878.5C 775.598,884.958 768.265,889.124 759.5,891C 738.953,896.486 720.786,892.319 705,878.5C 696.981,867.056 694.314,854.389 697,840.5C 702.487,824.807 713.32,814.64 729.5,810C 734.469,808.841 739.469,807.841 744.5,807C 757.162,806.5 769.829,806.333 782.5,806.5C 783.791,779.956 771.458,769.456 745.5,775C 737.521,778.172 730.187,782.339 723.5,787.5C 718.19,784.506 713.19,781.006 708.5,777C 731.579,753.226 758.245,747.893 788.5,761C 799.504,770.176 805.337,782.009 806,796.5C 806.5,827.832 806.667,859.165 806.5,890.5 Z"/></g>
<g><path style="opacity:1" fill="#07090a" d="M 855.5,755.5 C 855.334,762.508 855.5,769.508 856,776.5C 856.717,775.956 857.217,775.289 857.5,774.5C 874.286,756.296 894.952,749.796 919.5,755C 940.943,761.459 952.443,775.959 954,798.5C 954.5,829.498 954.667,860.498 954.5,891.5C 946.5,891.5 938.5,891.5 930.5,891.5C 930.944,861.134 930.444,830.801 929,800.5C 923.566,781.852 911.066,773.185 891.5,774.5C 870.38,774.784 858.547,785.451 856,806.5C 855.5,834.831 855.333,863.165 855.5,891.5C 847.5,891.5 839.5,891.5 831.5,891.5C 831.5,846.167 831.5,800.833 831.5,755.5C 839.5,755.5 847.5,755.5 855.5,755.5 Z"/></g>
<g><path style="opacity:1" fill="#040707" d="M 439.5,755.5 C 439.5,800.5 439.5,845.5 439.5,890.5C 431.833,890.5 424.167,890.5 416.5,890.5C 416.5,845.5 416.5,800.5 416.5,755.5C 424.167,755.5 431.833,755.5 439.5,755.5 Z"/></g>
<g><path style="opacity:1" fill="#b9b9b9" d="M 855.5,755.5 C 856.167,761.833 856.833,768.167 857.5,774.5C 857.217,775.289 856.717,775.956 856,776.5C 855.5,769.508 855.334,762.508 855.5,755.5 Z"/></g>
<g><path style="opacity:1" fill="#474849" d="M 389.5,794.5 C 390.498,826.662 390.832,858.996 390.5,891.5C 382.5,891.5 374.5,891.5 366.5,891.5C 366.818,886.968 366.485,882.634 365.5,878.5C 365.56,877.957 365.893,877.624 366.5,877.5C 367.492,881.783 367.826,886.116 367.5,890.5C 374.833,890.5 382.167,890.5 389.5,890.5C 389.5,858.5 389.5,826.5 389.5,794.5 Z"/></g>
<g><path style="opacity:1" fill="#565758" d="M 583.5,804.5 C 583.5,833.5 583.5,862.5 583.5,891.5C 575.5,891.5 567.5,891.5 559.5,891.5C 559.5,863.167 559.5,834.833 559.5,806.5C 560.498,834.328 560.831,862.328 560.5,890.5C 567.833,890.5 575.167,890.5 582.5,890.5C 582.169,861.662 582.502,832.995 583.5,804.5 Z"/></g>
<g><path style="opacity:1" fill="#464748" d="M 675.5,802.5 C 676.498,831.995 676.831,861.662 676.5,891.5C 668.5,891.5 660.5,891.5 652.5,891.5C 652.5,862.833 652.5,834.167 652.5,805.5C 653.498,833.662 653.831,861.995 653.5,890.5C 660.833,890.5 668.167,890.5 675.5,890.5C 675.5,861.167 675.5,831.833 675.5,802.5 Z"/></g>
<g><path style="opacity:1" fill="#a7a7a7" d="M 749.5,830.5 C 760.654,829.505 771.988,829.172 783.5,829.5C 783.823,836.022 783.49,842.355 782.5,848.5C 782.5,842.5 782.5,836.5 782.5,830.5C 771.5,830.5 760.5,830.5 749.5,830.5 Z"/></g>
<g><path style="opacity:1" fill="#fbfbfb" d="M 330.5,829.5 C 342.5,829.5 354.5,829.5 366.5,829.5C 366.666,836.508 366.5,843.508 366,850.5C 363.945,860.222 358.112,866.389 348.5,869C 335.837,872.987 323.504,872.321 311.5,867C 304.477,861.098 301.977,853.598 304,844.5C 307.065,837.773 312.231,833.606 319.5,832C 323.312,831.205 326.979,830.371 330.5,829.5 Z"/></g>
<g><path style="opacity:1" fill="#fcfcfc" d="M 749.5,830.5 C 760.5,830.5 771.5,830.5 782.5,830.5C 782.5,836.5 782.5,842.5 782.5,848.5C 780.348,860.818 773.014,867.984 760.5,870C 749.919,872.526 739.585,871.86 729.5,868C 719.477,860.925 716.977,851.759 722,840.5C 729.646,833.258 738.813,829.924 749.5,830.5 Z"/></g>
<g><path style="opacity:1" fill="#5f6061" d="M 439.5,755.5 C 440.499,800.664 440.832,845.997 440.5,891.5C 432.316,891.826 424.316,891.492 416.5,890.5C 424.167,890.5 431.833,890.5 439.5,890.5C 439.5,845.5 439.5,800.5 439.5,755.5 Z"/></g>
<g><path style="opacity:1" fill="#5e5f60" d="M 490.5,802.5 C 490.5,832.167 490.5,861.833 490.5,891.5C 482.316,891.826 474.316,891.492 466.5,890.5C 474.167,890.5 481.833,890.5 489.5,890.5C 489.169,860.995 489.502,831.662 490.5,802.5 Z"/></g>
<g><path style="opacity:1" fill="#545556" d="M 781.5,878.5 C 781.56,877.957 781.893,877.624 782.5,877.5C 783.492,881.783 783.826,886.116 783.5,890.5C 791.167,890.5 798.833,890.5 806.5,890.5C 798.684,891.492 790.684,891.826 782.5,891.5C 782.818,886.968 782.485,882.634 781.5,878.5 Z"/></g>
</svg>
