<?xml version="1.0" encoding="UTF-8"?>
<!DOCTYPE svg PUBLIC "-//W3C//DTD SVG 1.1//EN" "http://www.w3.org/Graphics/SVG/1.1/DTD/svg11.dtd">
<svg xmlns="http://www.w3.org/2000/svg" version="1.1" width="300px" height="61px" style="shape-rendering:geometricPrecision; text-rendering:geometricPrecision; image-rendering:optimizeQuality; fill-rule:evenodd; clip-rule:evenodd" xmlns:xlink="http://www.w3.org/1999/xlink">
<g><path style="opacity:0.922" fill="#c4dee3" d="M 16.5,-0.5 C 17.1667,-0.5 17.8333,-0.5 18.5,-0.5C 19.6935,0.271873 20.6935,1.27187 21.5,2.5C 20.4168,2.46056 19.4168,2.12723 18.5,1.5C 17.4822,2.19251 16.4822,2.85917 15.5,3.5C 15.4326,2.04125 15.7659,0.707917 16.5,-0.5 Z"/></g>
<g><path style="opacity:1" fill="#26a7c5" d="M 21.5,2.5 C 22.287,4.10422 23.6203,4.77089 25.5,4.5C 26.842,5.79305 28.5087,6.62638 30.5,7C 34.211,7.17472 37.8776,7.67472 41.5,8.5C 40.0541,10.6179 39.3874,12.9512 39.5,15.5C 39.0586,21.7744 40.0586,27.7744 42.5,33.5C 42.5106,35.0174 43.1772,36.1841 44.5,37C 43.552,37.4828 42.552,37.6495 41.5,37.5C 39.7085,37.634 38.0418,37.3007 36.5,36.5C 32.0189,35.3516 27.3522,35.1849 22.5,36C 18.2131,36.81 14.5464,38.6433 11.5,41.5C 9.97306,41.427 8.97306,42.0937 8.5,43.5C 7.56552,42.4324 7.23219,41.099 7.5,39.5C 9.27508,33.4744 7.94175,28.1411 3.5,23.5C 3.26242,21.5956 2.26242,20.2623 0.5,19.5C 0.833333,18.8333 1.16667,18.1667 1.5,17.5C 2.51369,16.3263 3.84702,15.6596 5.5,15.5C 9.16667,13.8333 11.8333,11.1667 13.5,7.5C 15.1042,6.71304 15.7709,5.3797 15.5,3.5C 16.4822,2.85917 17.4822,2.19251 18.5,1.5C 19.4168,2.12723 20.4168,2.46056 21.5,2.5 Z M 20.5,19.5 C 20.366,17.7085 20.6993,16.0418 21.5,14.5C 25.2752,12.7256 27.9419,13.7256 29.5,17.5C 27.4284,21.851 24.4284,22.5177 20.5,19.5 Z"/></g>
<g><path style="opacity:0.737" fill="#01a3c3" d="M 59.5,2.5 C 64.0373,2.83271 68.2039,4.16604 72,6.5C 72.4955,8.4727 72.6621,10.4727 72.5,12.5C 56.4965,4.43216 49.3298,9.43216 51,27.5C 52.585,32.299 55.9183,34.9656 61,35.5C 64.8343,34.4992 68.3343,32.8325 71.5,30.5C 72.8333,32.8333 72.8333,35.1667 71.5,37.5C 50.6275,44.1408 41.7942,36.4741 45,14.5C 47.3192,7.33868 52.1525,3.33868 59.5,2.5 Z"/></g>
<g><path style="opacity:0.803" fill="#01a3c3" d="M 122.5,2.5 C 124.167,2.5 125.833,2.5 127.5,2.5C 127.334,6.51383 127.501,10.5138 128,14.5C 133.315,10.2198 138.315,10.5531 143,15.5C 144.401,23.4148 144.901,31.4148 144.5,39.5C 142.5,39.5 140.5,39.5 138.5,39.5C 138.666,32.825 138.5,26.1583 138,19.5C 134.911,16.9566 131.744,16.9566 128.5,19.5C 127.503,26.1335 127.17,32.8002 127.5,39.5C 125.833,39.5 124.167,39.5 122.5,39.5C 122.5,27.1667 122.5,14.8333 122.5,2.5 Z"/></g>
<g><path style="opacity:0.735" fill="#363334" d="M 149.5,2.5 C 151.5,2.5 153.5,2.5 155.5,2.5C 155.5,14.8333 155.5,27.1667 155.5,39.5C 153.5,39.5 151.5,39.5 149.5,39.5C 149.5,27.1667 149.5,14.8333 149.5,2.5 Z"/></g>
<g><path style="opacity:0.743" fill="#363334" d="M 185.5,2.5 C 187.5,2.5 189.5,2.5 191.5,2.5C 191.177,6.22605 191.511,9.89272 192.5,13.5C 201.338,9.33598 206.838,12.0027 209,21.5C 210.647,29.4646 208.147,35.6312 201.5,40C 196.172,40.1688 190.838,40.0021 185.5,39.5C 185.5,27.1667 185.5,14.8333 185.5,2.5 Z M 194.5,17.5 C 202.394,17.565 205.227,21.565 203,29.5C 200.97,35.0954 197.136,36.7621 191.5,34.5C 191.334,29.4889 191.501,24.4889 192,19.5C 192.995,18.9341 193.828,18.2674 194.5,17.5 Z"/></g>
<g><path style="opacity:0.486" fill="#d5e3e6" d="M 21.5,2.5 C 23.153,2.6596 24.4863,3.32627 25.5,4.5C 23.6203,4.77089 22.287,4.10422 21.5,2.5 Z"/></g>
<g><path style="opacity:0.556" fill="#363334" d="M 299.5,39.5 C 299.5,40.5 299.5,41.5 299.5,42.5C 294.845,41.1051 290.345,41.4385 286,43.5C 281.903,38.7169 278.57,33.3835 276,27.5C 274.443,37.1292 273.276,46.7958 272.5,56.5C 270.549,56.7733 269.049,56.1066 268,54.5C 267.223,47.1767 266.556,39.8434 266,32.5C 265.667,37.1667 265.333,41.8333 265,46.5C 263.32,47.6034 261.82,47.2701 260.5,45.5C 257.665,47.9629 254.665,48.1296 251.5,46C 247.286,41.4545 243.453,36.6212 240,31.5C 237.643,41.092 235.81,50.7586 234.5,60.5C 233.5,60.5 232.5,60.5 231.5,60.5C 230.004,51.5892 229.171,42.5892 229,33.5C 228.964,35.9412 228.131,37.9412 226.5,39.5C 225.108,37.1079 223.108,35.4412 220.5,34.5C 218.313,35.3222 216.647,36.8222 215.5,39C 213.423,39.1922 211.423,39.6922 209.5,40.5C 208.076,42.7178 206.076,44.2178 203.5,45C 184.836,45.4999 166.17,45.6666 147.5,45.5C 147.5,44.5 147.5,43.5 147.5,42.5C 165.836,42.6666 184.17,42.4999 202.5,42C 205.167,40.6667 207.167,38.6667 208.5,36C 210.235,35.3486 211.902,35.5153 213.5,36.5C 214.701,34.0905 216.367,32.0905 218.5,30.5C 220.709,31.1062 222.876,31.7728 225,32.5C 225.834,22.822 226.667,13.1553 227.5,3.5C 228.5,3.5 229.5,3.5 230.5,3.5C 231.296,19.1548 232.129,34.8215 233,50.5C 233.815,44.7969 234.815,39.1302 236,33.5C 236.58,29.574 238.747,28.074 242.5,29C 245.561,34.8089 249.561,39.8089 254.5,44C 257.033,43.3889 259.7,42.8889 262.5,42.5C 262.825,32.124 263.658,21.7906 265,11.5C 266.147,10.5419 267.147,10.8753 268,12.5C 269.042,23.4751 269.709,34.4751 270,45.5C 271.331,38.1854 272.497,30.8521 273.5,23.5C 275.144,23.2865 276.644,23.6198 278,24.5C 280.567,30.0693 283.567,35.4026 287,40.5C 288.438,39.2815 290.105,38.6148 292,38.5C 294.462,39.1595 296.962,39.4928 299.5,39.5 Z"/></g>
<g><path style="opacity:0.545" fill="#d4e3e6" d="M 15.5,3.5 C 15.7709,5.3797 15.1042,6.71304 13.5,7.5C 13.6596,5.84702 14.3263,4.51369 15.5,3.5 Z"/></g>
<g><path style="opacity:0.435" fill="#dbe5e8" d="M 25.5,4.5 C 31.467,5.63076 37.467,6.63076 43.5,7.5C 42.1207,10.2585 40.7874,12.9252 39.5,15.5C 39.3874,12.9512 40.0541,10.6179 41.5,8.5C 37.8776,7.67472 34.211,7.17472 30.5,7C 28.5087,6.62638 26.842,5.79305 25.5,4.5 Z"/></g>
<g><path style="opacity:0.747" fill="#01a3c3" d="M 79.5,11.5 C 85.0389,10.6384 89.8722,11.9718 94,15.5C 95.4352,23.3888 95.9352,31.3888 95.5,39.5C 93.2075,39.7564 91.0408,39.4231 89,38.5C 77.8198,43.0849 72.8198,39.4183 74,27.5C 74.4652,26.0692 75.2986,24.9025 76.5,24C 80.6205,22.1015 84.9538,21.2681 89.5,21.5C 89.4869,18.3049 87.8202,16.6382 84.5,16.5C 81.5212,17.3284 78.5212,17.9951 75.5,18.5C 75.5,16.5 75.5,14.5 75.5,12.5C 77.099,12.7678 78.4324,12.4345 79.5,11.5 Z M 83.5,26.5 C 85.5,26.5 87.5,26.5 89.5,26.5C 90.2052,33.4653 87.2052,36.1319 80.5,34.5C 78.5825,30.5004 79.5825,27.8338 83.5,26.5 Z"/></g>
<g><path style="opacity:0.728" fill="#01a3c3" d="M 106.5,11.5 C 110.342,11.2391 114.009,11.9058 117.5,13.5C 118.833,15.5 118.833,17.5 117.5,19.5C 114.983,18.1053 112.316,17.1053 109.5,16.5C 104.333,17.1378 103.5,19.1378 107,22.5C 113.504,22.4829 117.671,25.4829 119.5,31.5C 119.184,35.9839 116.85,38.8173 112.5,40C 108.004,40.8523 103.67,40.3523 99.5,38.5C 98.5344,36.604 98.2011,34.604 98.5,32.5C 101.822,33.4919 105.155,34.4919 108.5,35.5C 112.499,35.359 113.832,33.5257 112.5,30C 109.117,29.1245 105.784,28.1245 102.5,27C 96.869,20.0838 98.2023,14.9172 106.5,11.5 Z"/></g>
<g><path style="opacity:0.767" fill="#363334" d="M 165.5,11.5 C 170.364,11.0011 174.864,12.0011 179,14.5C 180.438,22.7233 180.938,31.0567 180.5,39.5C 178.234,39.8588 176.401,39.1922 175,37.5C 170.585,41.051 165.918,41.3843 161,38.5C 156.882,32.0123 158.048,26.8456 164.5,23C 168.114,22.0551 171.781,21.3884 175.5,21C 174.432,18.2954 172.432,16.7954 169.5,16.5C 166.521,17.3284 163.521,17.9951 160.5,18.5C 160.5,16.5 160.5,14.5 160.5,12.5C 162.415,12.7845 164.081,12.4511 165.5,11.5 Z M 168.5,26.5 C 170.833,26.5 173.167,26.5 175.5,26.5C 176.649,31.8552 174.483,34.8552 169,35.5C 163.218,32.9143 163.052,29.9143 168.5,26.5 Z"/></g>
<g><path style="opacity:0.631" fill="#cfe2e6" d="M 13.5,7.5 C 11.8333,11.1667 9.16667,13.8333 5.5,15.5C 7.83333,12.5 10.5,9.83333 13.5,7.5 Z"/></g>
<g><path style="opacity:0.071" fill="#cde1e5" d="M 20.5,19.5 C 24.4284,22.5177 27.4284,21.851 29.5,17.5C 27.9419,13.7256 25.2752,12.7256 21.5,14.5C 23.8415,12.0325 26.5082,11.8658 29.5,14C 31.5339,21.1784 28.8672,23.6784 21.5,21.5C 20.7025,21.0431 20.3691,20.3764 20.5,19.5 Z"/></g>
<g><path style="opacity:0.239" fill="#e8eaea" d="M -0.5,17.5 C 0.166667,17.5 0.833333,17.5 1.5,17.5C 1.16667,18.1667 0.833333,18.8333 0.5,19.5C 0.166667,19.5 -0.166667,19.5 -0.5,19.5C -0.5,18.8333 -0.5,18.1667 -0.5,17.5 Z"/></g>
<g><path style="opacity:0.008" fill="#dee6e8" d="M 0.5,19.5 C 2.26242,20.2623 3.26242,21.5956 3.5,23.5C 1.73758,22.7377 0.737579,21.4044 0.5,19.5 Z"/></g>
<g><path style="opacity:0.192" fill="#c8dfe4" d="M 3.5,23.5 C 7.94175,28.1411 9.27508,33.4744 7.5,39.5C 7.5,39.1667 7.5,38.8333 7.5,38.5C 7.12214,33.2177 5.78881,28.2177 3.5,23.5 Z"/></g>
<g><path style="opacity:0.225" fill="#d4e3e6" d="M 36.5,36.5 C 27.6618,35.7943 19.3285,37.4609 11.5,41.5C 14.5464,38.6433 18.2131,36.81 22.5,36C 27.3522,35.1849 32.0189,35.3516 36.5,36.5 Z"/></g>
<g><path style="opacity:0.898" fill="#dee6e8" d="M 42.5,33.5 C 45.1946,34.8842 46.1946,36.8842 45.5,39.5C 43.9745,39.0057 42.6412,38.339 41.5,37.5C 42.552,37.6495 43.552,37.4828 44.5,37C 43.1772,36.1841 42.5106,35.0174 42.5,33.5 Z"/></g>
<g><path style="opacity:0.031" fill="#dce6e8" d="M 11.5,41.5 C 11.0269,42.9063 10.0269,43.573 8.5,43.5C 8.97306,42.0937 9.97306,41.427 11.5,41.5 Z"/></g>
<g><path style="opacity:0.534" fill="#01a3c2" d="M 147.5,42.5 C 147.5,43.5 147.5,44.5 147.5,45.5C 114.16,45.8332 80.8267,45.4999 47.5,44.5C 47.7093,43.914 48.0426,43.414 48.5,43C 81.4983,42.5 114.498,42.3334 147.5,42.5 Z"/></g>
<g><path style="opacity:0.598" fill="#e4e8e9" d="M 7.5,38.5 C 7.5,38.8333 7.5,39.1667 7.5,39.5C 7.23219,41.099 7.56552,42.4324 8.5,43.5C 7.85953,45.332 6.85953,45.6653 5.5,44.5C 6.05045,42.3432 6.71712,40.3432 7.5,38.5 Z"/></g>
<g><path style="opacity:0.442" fill="#4a4a4c" d="M 55.5,50.5 C 59.6352,50.8317 63.6352,49.8317 67.5,47.5C 68.1924,48.0253 68.6924,48.6919 69,49.5C 69.7096,48.0267 70.8762,47.3601 72.5,47.5C 72.3505,48.552 72.5172,49.552 73,50.5C 76.563,50.0399 80.2296,50.0399 84,50.5C 84.2492,49.376 84.7492,48.376 85.5,47.5C 86.487,50.7683 86.8204,54.1016 86.5,57.5C 79.621,57.4528 72.9543,57.1194 66.5,56.5C 65.9017,55.2054 65.4017,53.8721 65,52.5C 64.9024,54.6193 64.0691,56.286 62.5,57.5C 58.3375,57.5071 54.0041,57.3404 49.5,57C 47.5561,54.8471 47.0561,52.3471 48,49.5C 49.8083,47.6041 51.975,47.1041 54.5,48C 55.2524,48.6708 55.5858,49.5041 55.5,50.5 Z M 55.5,50.5 C 54.6072,55.9131 52.6072,56.5797 49.5,52.5C 50.7945,49.5131 52.7945,48.8464 55.5,50.5 Z M 57.5,51.5 C 59.4759,52.4271 59.8092,53.7605 58.5,55.5C 56.2997,54.6754 55.9663,53.3421 57.5,51.5 Z M 75.5,51.5 C 79.063,53.1236 78.7296,54.457 74.5,55.5C 74.4326,54.0413 74.7659,52.7079 75.5,51.5 Z"/></g>
<g><path style="opacity:0.447" fill="#4a4a4c" d="M 203.5,60.5 C 202.833,60.5 202.167,60.5 201.5,60.5C 202.895,57.6625 202.562,54.9958 200.5,52.5C 199.548,54.0453 199.215,55.712 199.5,57.5C 193.001,57.3124 186.334,57.3124 179.5,57.5C 179.807,55.5542 179.807,53.8875 179.5,52.5C 178.548,54.0453 178.215,55.712 178.5,57.5C 169.502,57.0923 160.169,57.0923 150.5,57.5C 150.18,54.1016 150.513,50.7683 151.5,47.5C 152.48,50.0865 152.813,52.7531 152.5,55.5C 156.068,55.2407 157.401,53.2407 156.5,49.5C 158.467,49.2606 160.301,49.5939 162,50.5C 162.29,48.9559 162.956,47.6226 164,46.5C 165.542,48.3039 167.209,49.9706 169,51.5C 169.804,50.1955 170.971,49.5288 172.5,49.5C 176.6,49.3786 180.767,49.7119 185,50.5C 185.833,49.5 186.667,48.5 187.5,47.5C 188.519,48.6872 189.686,49.6872 191,50.5C 194.622,50.0674 198.456,49.9007 202.5,50C 203.191,51.0674 203.691,52.2341 204,53.5C 204.196,51.7139 205.029,50.3805 206.5,49.5C 206.582,53.2833 205.582,56.9499 203.5,60.5 Z M 171.5,51.5 C 173.476,52.4271 173.809,53.7605 172.5,55.5C 171.571,54.3112 171.238,52.9778 171.5,51.5 Z M 192.5,51.5 C 194.476,52.4271 194.809,53.7605 193.5,55.5C 192.571,54.3112 192.238,52.9778 192.5,51.5 Z M 165.5,52.5 C 167.76,53.2376 167.927,54.2376 166,55.5C 165.517,54.552 165.351,53.552 165.5,52.5 Z"/></g>
<g><path style="opacity:0.438" fill="#4a4a4c" d="M 143.5,60.5 C 142.833,60.5 142.167,60.5 141.5,60.5C 141.33,59.1779 141.663,58.0113 142.5,57C 141.809,55.9326 141.309,54.7659 141,53.5C 140.847,56.1506 140.013,58.4839 138.5,60.5C 137.167,60.5 135.833,60.5 134.5,60.5C 134.657,59.1266 134.49,57.7932 134,56.5C 129.687,56.7907 125.354,57.124 121,57.5C 119.674,57.2451 118.674,56.5784 118,55.5C 115.544,57.3213 112.711,57.988 109.5,57.5C 109.649,56.448 109.483,55.448 109,54.5C 108.187,56.4357 107.687,58.4357 107.5,60.5C 106.5,60.5 105.5,60.5 104.5,60.5C 105.218,58.8632 105.384,57.1966 105,55.5C 104.29,56.9733 103.124,57.6399 101.5,57.5C 101.167,49.5 100.833,49.5 100.5,57.5C 99.5,57.5 98.5,57.5 97.5,57.5C 97.6567,56.1266 97.49,54.7932 97,53.5C 95.9887,54.3366 94.8221,54.67 93.5,54.5C 93.6463,56.9424 92.813,57.6091 91,56.5C 90.2228,53.5706 90.3895,50.7372 91.5,48C 93.4406,47.2571 95.2739,47.4238 97,48.5C 98.3159,45.972 99.4826,45.972 100.5,48.5C 102.078,49.2978 103.744,49.7978 105.5,50C 106.191,51.0674 106.691,52.2341 107,53.5C 107.309,52.2341 107.809,51.0674 108.5,50C 111.437,49.8999 114.104,49.0666 116.5,47.5C 117.308,47.8076 117.975,48.3076 118.5,49C 117.549,49.7175 117.383,50.5509 118,51.5C 119.733,49.3985 121.733,49.0652 124,50.5C 125.333,45.1667 126.667,45.1667 128,50.5C 130.267,49.0652 132.267,49.3985 134,51.5C 137.13,48.8901 140.296,48.8901 143.5,51.5C 144.532,49.9604 145.865,49.4604 147.5,50C 146.067,53.4679 144.733,56.9679 143.5,60.5 Z M 93.5,49.5 C 95.7602,50.2376 95.9269,51.2376 94,52.5C 93.5172,51.552 93.3505,50.552 93.5,49.5 Z M 120.5,51.5 C 122.476,52.4271 122.809,53.7605 121.5,55.5C 120.571,54.3112 120.238,52.9778 120.5,51.5 Z M 130.5,51.5 C 131.782,52.7082 131.782,54.0416 130.5,55.5C 129.374,54.1916 129.374,52.8583 130.5,51.5 Z"/></g>
</svg>
