<?xml version="1.0" encoding="UTF-8"?>
<!DOCTYPE svg PUBLIC "-//W3C//DTD SVG 1.1//EN" "http://www.w3.org/Graphics/SVG/1.1/DTD/svg11.dtd">
<svg xmlns="http://www.w3.org/2000/svg" version="1.1" width="94px" height="91px" style="shape-rendering:geometricPrecision; text-rendering:geometricPrecision; image-rendering:optimizeQuality; fill-rule:evenodd; clip-rule:evenodd" xmlns:xlink="http://www.w3.org/1999/xlink">
<g><path style="opacity:0.929" fill="#2a358d" d="M 37.5,2.5 C 40.6491,1.83493 43.9825,1.5016 47.5,1.5C 52.4371,1.30021 57.1038,1.96688 61.5,3.5C 53.5288,2.67704 45.5288,2.34371 37.5,2.5 Z"/></g>
<g><path style="opacity:1" fill="#8086bc" d="M 37.5,2.5 C 45.5288,2.34371 53.5288,2.67704 61.5,3.5C 62.5511,4.22235 63.2178,5.22235 63.5,6.5C 44.987,0.601948 28.6537,4.26861 14.5,17.5C 14.5,16.8333 14.5,16.1667 14.5,15.5C 14.5,14.8333 14.8333,14.5 15.5,14.5C 17.7488,13.9202 19.4154,12.5869 20.5,10.5C 22.8525,9.65974 24.8525,8.3264 26.5,6.5C 29.6599,4.00003 33.3266,2.6667 37.5,2.5 Z"/></g>
<g><path style="opacity:0.051" fill="#0e157e" d="M 68.5,6.5 C 70.674,6.74973 72.3406,7.74973 73.5,9.5C 71.326,9.25027 69.6594,8.25027 68.5,6.5 Z"/></g>
<g><path style="opacity:0.871" fill="#1d2281" d="M 26.5,6.5 C 24.8525,8.3264 22.8525,9.65974 20.5,10.5C 21.8021,8.17823 23.8021,6.8449 26.5,6.5 Z"/></g>
<g><path style="opacity:1" fill="#a1a7ce" d="M 65.5,7.5 C 66.209,6.59603 67.209,6.26269 68.5,6.5C 69.6594,8.25027 71.326,9.25027 73.5,9.5C 74.2899,10.7942 75.2899,11.9609 76.5,13C 72.9834,11.2417 69.3167,9.40836 65.5,7.5 Z"/></g>
<g><path style="opacity:1" fill="#5156a1" d="M 61.5,3.5 C 64.2406,3.70732 66.5739,4.70732 68.5,6.5C 67.209,6.26269 66.209,6.59603 65.5,7.5C 64.7109,7.78281 64.0442,8.28281 63.5,9C 65.1012,9.27338 66.6012,9.77338 68,10.5C 68.4561,11.7441 67.9561,12.5774 66.5,13C 66.8333,13.3333 67.1667,13.6667 67.5,14C 65.7002,14.2362 64.0335,13.7362 62.5,12.5C 63.5063,11.6043 63.5063,10.9377 62.5,10.5C 60.5637,12.9779 58.5637,12.9779 56.5,10.5C 56.8333,9.83333 57.1667,9.16667 57.5,8.5C 59.5417,8.57686 61.5417,7.9102 63.5,6.5C 63.2178,5.22235 62.5511,4.22235 61.5,3.5 Z"/></g>
<g><path style="opacity:1" fill="#2f308a" d="M 20.5,10.5 C 19.4154,12.5869 17.7488,13.9202 15.5,14.5C 16.5846,12.4131 18.2512,11.0798 20.5,10.5 Z"/></g>
<g><path style="opacity:0.847" fill="#1d2081" d="M 14.5,15.5 C 14.5,16.1667 14.5,16.8333 14.5,17.5C 13.1667,18.5 11.8333,19.5 10.5,20.5C 11.0798,18.2512 12.4131,16.5846 14.5,15.5 Z"/></g>
<g><path style="opacity:0.902" fill="#0e187d" d="M 82.5,17.5 C 83.9063,17.9731 84.573,18.9731 84.5,20.5C 83.0937,20.0269 82.427,19.0269 82.5,17.5 Z"/></g>
<g><path style="opacity:1" fill="#a2abd1" d="M 14.5,17.5 C 13.9202,19.7488 12.5869,21.4154 10.5,22.5C 10.5,21.8333 10.5,21.1667 10.5,20.5C 11.8333,19.5 13.1667,18.5 14.5,17.5 Z"/></g>
<g><path style="opacity:1" fill="#a2abd0" d="M 82.5,17.5 C 82.427,19.0269 83.0937,20.0269 84.5,20.5C 84.5,21.1667 84.5,21.8333 84.5,22.5C 82.6614,21.4923 81.3281,19.9923 80.5,18C 81.0944,17.5357 81.7611,17.369 82.5,17.5 Z"/></g>
<g><path style="opacity:0.914" fill="#1f2383" d="M 10.5,20.5 C 10.5,21.1667 10.5,21.8333 10.5,22.5C 9.83333,22.8333 9.16667,23.1667 8.5,23.5C 8.42702,21.9731 9.09368,20.9731 10.5,20.5 Z"/></g>
<g><path style="opacity:1" fill="#9da8ce" d="M 10.5,22.5 C 9.83333,24.5 9.16667,26.5 8.5,28.5C 6.79734,29.6602 6.13068,28.9935 6.5,26.5C 7.90632,26.0269 8.57298,25.0269 8.5,23.5C 9.16667,23.1667 9.83333,22.8333 10.5,22.5 Z"/></g>
<g><path style="opacity:0.671" fill="#14187b" d="M 8.5,23.5 C 8.57298,25.0269 7.90632,26.0269 6.5,26.5C 6.42702,24.9731 7.09368,23.9731 8.5,23.5 Z"/></g>
<g><path style="opacity:1" fill="#182383" d="M 63.5,6.5 C 61.5417,7.9102 59.5417,8.57686 57.5,8.5C 57.1667,9.16667 56.8333,9.83333 56.5,10.5C 58.5637,12.9779 60.5637,12.9779 62.5,10.5C 63.5063,10.9377 63.5063,11.6043 62.5,12.5C 64.0335,13.7362 65.7002,14.2362 67.5,14C 67.1667,13.6667 66.8333,13.3333 66.5,13C 67.9561,12.5774 68.4561,11.7441 68,10.5C 66.6012,9.77338 65.1012,9.27338 63.5,9C 64.0442,8.28281 64.7109,7.78281 65.5,7.5C 69.3167,9.40836 72.9834,11.2417 76.5,13C 75.2899,11.9609 74.2899,10.7942 73.5,9.5C 77.1002,11.4302 80.1002,14.0969 82.5,17.5C 81.7611,17.369 81.0944,17.5357 80.5,18C 81.3281,19.9923 82.6614,21.4923 84.5,22.5C 84.5,21.8333 84.5,21.1667 84.5,20.5C 88.1207,24.0707 90.454,28.404 91.5,33.5C 90.4415,32.3998 89.6082,31.0664 89,29.5C 88.8333,30.1667 88.6667,30.8333 88.5,31.5C 93.2762,45.7372 91.9428,59.4038 84.5,72.5C 82.7376,73.2623 81.7376,74.5956 81.5,76.5C 78.4744,79.1954 75.4744,81.8621 72.5,84.5C 67.5352,86.8239 62.5352,88.8239 57.5,90.5C 50.5,90.5 43.5,90.5 36.5,90.5C 29.4764,88.1507 23.1431,84.484 17.5,79.5C 17.1667,79.6667 16.8333,79.8333 16.5,80C 18.0414,81.3712 19.3747,82.8712 20.5,84.5C 16.1667,82.1667 12.8333,78.8333 10.5,74.5C 11.7942,75.2899 12.9609,76.2899 14,77.5C 13.2527,75.0245 11.9194,72.6911 10,70.5C 3.24709,57.6379 1.91376,44.3046 6,30.5C 5.61742,31.056 5.11742,31.3893 4.5,31.5C 4.40206,29.4471 5.06873,27.7804 6.5,26.5C 6.13068,28.9935 6.79734,29.6602 8.5,28.5C 9.16667,26.5 9.83333,24.5 10.5,22.5C 12.5869,21.4154 13.9202,19.7488 14.5,17.5C 28.6537,4.26861 44.987,0.601948 63.5,6.5 Z"/></g>
<g><path style="opacity:1" fill="#6c78b4" d="M 14.5,21.5 C 17.0838,22.0483 18.0838,23.715 17.5,26.5C 12.7873,26.5124 11.7873,24.8457 14.5,21.5 Z"/></g>
<g><path style="opacity:1" fill="#a2acd1" d="M 84.5,22.5 C 86.4161,23.6653 87.2494,25.332 87,27.5C 85.6283,26.0899 84.795,24.4233 84.5,22.5 Z"/></g>
<g><path style="opacity:1" fill="#737fb8" d="M 78.5,21.5 C 83.4052,22.9996 83.5719,24.9996 79,27.5C 78.5348,26.0692 77.7014,24.9025 76.5,24C 77.3805,23.2917 78.0472,22.4584 78.5,21.5 Z"/></g>
<g><path style="opacity:1" fill="#9ba5cd" d="M 74.5,16.5 C 78.8871,17.7661 79.2204,19.4327 75.5,21.5C 74.354,20.8551 73.354,20.0217 72.5,19C 73.756,18.5831 74.4226,17.7498 74.5,16.5 Z"/></g>
<g><path style="opacity:1" fill="#8b95c4" d="M 22.5,18.5 C 21.5542,19.9308 20.3875,21.2642 19,22.5C 15.6236,20.241 15.7903,18.241 19.5,16.5C 20.2652,17.6119 21.2652,18.2786 22.5,18.5 Z"/></g>
<g><path style="opacity:1" fill="#8f99c6" d="M 22.5,18.5 C 20.6682,14.986 21.6682,13.486 25.5,14C 26.4872,16.5522 25.4872,18.0522 22.5,18.5 Z"/></g>
<g><path style="opacity:1" fill="#98a2cb" d="M 69.5,13.5 C 74.2359,13.8853 74.5693,15.2186 70.5,17.5C 68.3576,16.5629 68.0243,15.2296 69.5,13.5 Z"/></g>
<g><path style="opacity:1" fill="#747fb7" d="M 28.5,9.5 C 30.2517,9.41755 31.2517,10.2509 31.5,12C 30.4655,12.2526 29.4655,13.086 28.5,14.5C 26.0155,12.6308 26.0155,10.9641 28.5,9.5 Z"/></g>
<g><path style="opacity:1" fill="#8c96c4" d="M 33.5,7.5 C 34.5,7.5 35.5,7.5 36.5,7.5C 36.5,8.83333 36.5,10.1667 36.5,11.5C 33.0464,11.7332 32.0464,10.3999 33.5,7.5 Z"/></g>
<g><path style="opacity:1" fill="#8490c1" d="M 51.5,6.5 C 52.8333,6.5 54.1667,6.5 55.5,6.5C 55.5,7.83333 55.5,9.16667 55.5,10.5C 54.1667,10.5 52.8333,10.5 51.5,10.5C 51.5,9.16667 51.5,7.83333 51.5,6.5 Z"/></g>
<g><path style="opacity:1" fill="#929dc8" d="M 45.5,5.5 C 46.8333,5.5 48.1667,5.5 49.5,5.5C 49.5,6.83333 49.5,8.16667 49.5,9.5C 48.1667,9.5 46.8333,9.5 45.5,9.5C 45.5,8.16667 45.5,6.83333 45.5,5.5 Z"/></g>
<g><path style="opacity:1" fill="#7683b9" d="M 39.5,6.5 C 40.2216,6.91753 40.7216,7.5842 41,8.5C 41.3173,6.69923 41.984,6.36589 43,7.5C 43.7494,8.63505 43.5827,9.63505 42.5,10.5C 40.4501,9.9234 39.4501,8.59007 39.5,6.5 Z"/></g>
<g><path style="opacity:1" fill="#808bbe" d="M 82.5,26.5 C 84.1344,27.2066 85.4677,28.3732 86.5,30C 83.3579,33.0714 81.3579,32.738 80.5,29C 81.0556,27.9889 81.7222,27.1556 82.5,26.5 Z"/></g>
<g><path style="opacity:1" fill="#6b71b1" d="M 8.5,28.5 C 14.1056,26.7484 15.1056,27.7484 11.5,31.5C 9.7869,31.1207 8.7869,30.1207 8.5,28.5 Z"/></g>
<g><path style="opacity:1" fill="#8b96c4" d="M 7.5,32.5 C 12.1765,32.4573 13.1765,34.1239 10.5,37.5C 8.22748,36.6249 7.22748,34.9582 7.5,32.5 Z"/></g>
<g><path style="opacity:1" fill="#7986bb" d="M 83.5,32.5 C 87.1612,32.3501 88.1612,33.8501 86.5,37C 84.2266,36.6834 83.2266,35.1834 83.5,32.5 Z"/></g>
<g><path style="opacity:0.953" fill="#2a308f" d="M 4.5,31.5 C 2.28292,41.0815 1.94959,50.7482 3.5,60.5C 2.73209,59.7375 2.23209,58.7375 2,57.5C 1.33333,50.8333 1.33333,44.1667 2,37.5C 2.24013,35.1484 3.07346,33.1484 4.5,31.5 Z"/></g>
<g><path style="opacity:1" fill="#8a95c4" d="M 6.5,39.5 C 7.5,39.5 8.5,39.5 9.5,39.5C 9.77784,41.3464 9.11118,42.6798 7.5,43.5C 6.57131,42.3112 6.23798,40.9778 6.5,39.5 Z"/></g>
<g><path style="opacity:1" fill="#9099c6" d="M 10.5,74.5 C 10.573,72.9731 9.90632,71.9731 8.5,71.5C 7.67433,68.5152 6.341,65.8485 4.5,63.5C 3.59603,62.791 3.26269,61.791 3.5,60.5C 1.94959,50.7482 2.28292,41.0815 4.5,31.5C 5.11742,31.3893 5.61742,31.056 6,30.5C 1.91376,44.3046 3.24709,57.6379 10,70.5C 11.9194,72.6911 13.2527,75.0245 14,77.5C 12.9609,76.2899 11.7942,75.2899 10.5,74.5 Z"/></g>
<g><path style="opacity:1" fill="#8c94c3" d="M 91.5,33.5 C 92.4345,34.5676 92.7678,35.901 92.5,37.5C 93.1401,47.3737 92.1401,57.0404 89.5,66.5C 89.6716,67.4916 89.3382,68.1583 88.5,68.5C 87.0937,68.9731 86.427,69.9731 86.5,71.5C 85.8333,71.8333 85.1667,72.1667 84.5,72.5C 91.9428,59.4038 93.2762,45.7372 88.5,31.5C 88.6667,30.8333 88.8333,30.1667 89,29.5C 89.6082,31.0664 90.4415,32.3998 91.5,33.5 Z"/></g>
<g><path style="opacity:1" fill="#6470af" d="M 42.5,11.5 C 66.5587,11.3951 80.2254,23.2285 83.5,47C 81.3511,69.1489 69.1845,81.3155 47,83.5C 25.567,80.9007 13.7336,68.9007 11.5,47.5C 13.4795,28.1582 23.8128,16.1582 42.5,11.5 Z"/></g>
<g><path style="opacity:1" fill="#f7f7fb" d="M 39.5,14.5 C 67.8316,12.9989 81.3316,26.3322 80,54.5C 75.4841,71.2717 64.4841,79.9384 47,80.5C 31.9208,79.7414 21.5875,72.4081 16,58.5C 11.19,36.8661 19.0234,22.1995 39.5,14.5 Z"/></g>
<g><path style="opacity:1" fill="#f3f4f9" d="M 52.5,71.5 C 51.1779,71.67 50.0113,71.3366 49,70.5C 48.3333,65.1667 48.3333,59.8333 49,54.5C 49.3826,53.944 49.8826,53.6107 50.5,53.5C 51.4834,57.2984 51.8168,61.2984 51.5,65.5C 51.9483,67.4646 52.9483,67.7979 54.5,66.5C 53.5524,61.5649 53.219,56.5649 53.5,51.5C 54.1174,51.3893 54.6174,51.056 55,50.5C 55.4986,54.1516 55.6653,57.8183 55.5,61.5C 55.9522,64.6741 56.9522,65.0075 58.5,62.5C 57.3897,57.8887 57.2231,53.222 58,48.5C 58.6667,47.1667 59.3333,47.1667 60,48.5C 60.711,50.8991 60.5443,53.2324 59.5,55.5C 60.5,58.1667 61.5,58.1667 62.5,55.5C 61.8333,52.5 61.1667,49.5 60.5,46.5C 62.1353,45.3192 63.802,45.3192 65.5,46.5C 68.1667,45.5 68.1667,44.5 65.5,43.5C 60.0679,44.5929 54.4012,44.5929 48.5,43.5C 52.8279,42.988 56.8279,41.6547 60.5,39.5C 61.2482,36.5027 61.9149,33.5027 62.5,30.5C 61.675,29.6143 60.675,29.281 59.5,29.5C 60.1587,32.4552 60.4921,35.4552 60.5,38.5C 59.5,38.5 58.5,38.5 57.5,38.5C 57.2065,34.5633 57.5399,30.73 58.5,27C 57.3325,25.2156 56.3325,25.2156 55.5,27C 56.419,31.7812 56.7523,36.6145 56.5,41.5C 55.5,41.5 54.5,41.5 53.5,41.5C 53.2065,37.5633 53.5399,33.73 54.5,30C 52.494,27.9524 51.494,28.4524 51.5,31.5C 51.5,34.5 51.5,37.5 51.5,40.5C 50.5,40.5 49.5,40.5 48.5,40.5C 48.5,35.5 48.5,30.5 48.5,25.5C 48.8844,22.9504 50.3844,21.6171 53,21.5C 62.1085,23.2573 66.7751,28.5906 67,37.5C 65.3221,38.4658 64.6554,39.7991 65,41.5C 68.9651,37.5302 71.4651,38.5302 72.5,44.5C 71.6614,47.6745 69.9947,50.3411 67.5,52.5C 68.7366,53.2807 69.7366,54.2807 70.5,55.5C 66.669,63.3341 60.669,68.6675 52.5,71.5 Z"/></g>
<g><path style="opacity:1" fill="#5d69ab" d="M 70.5,32.5 C 70.5,30.5 70.5,28.5 70.5,26.5C 68.8333,26.5 67.1667,26.5 65.5,26.5C 64.8333,26.5 64.5,26.1667 64.5,25.5C 67.2585,23.9521 69.7585,24.2854 72,26.5C 72.7385,28.8805 72.2385,30.8805 70.5,32.5 Z"/></g>
<g><path style="opacity:1" fill="#1e1e79" d="M 64.5,25.5 C 64.5,26.1667 64.8333,26.5 65.5,26.5C 66.7197,28.9811 68.3863,30.9811 70.5,32.5C 68.7951,35.8886 69.6284,38.5553 73,40.5C 74.1136,44.9498 73.2803,48.9498 70.5,52.5C 71.5202,54.4325 71.6869,56.4325 71,58.5C 66.7638,65.2437 60.9304,69.9103 53.5,72.5C 52.8333,72.5 52.5,72.1667 52.5,71.5C 60.669,68.6675 66.669,63.3341 70.5,55.5C 69.7366,54.2807 68.7366,53.2807 67.5,52.5C 69.9947,50.3411 71.6614,47.6745 72.5,44.5C 71.4651,38.5302 68.9651,37.5302 65,41.5C 64.6554,39.7991 65.3221,38.4658 67,37.5C 66.7751,28.5906 62.1085,23.2573 53,21.5C 50.3844,21.6171 48.8844,22.9504 48.5,25.5C 47.8333,25.5 47.1667,25.5 46.5,25.5C 46.1156,22.9504 44.6156,21.6171 42,21.5C 32.7871,23.5436 27.6204,29.2103 26.5,38.5C 22.7094,40.9956 21.7094,44.3289 23.5,48.5C 23.5,48.8333 23.5,49.1667 23.5,49.5C 20.4811,45.1257 20.9811,41.1257 25,37.5C 26.6395,28.0278 32.1395,22.3611 41.5,20.5C 43.808,20.3647 45.808,21.0314 47.5,22.5C 48.9285,21.065 50.5952,20.065 52.5,19.5C 57.0799,20.4566 61.0799,22.4566 64.5,25.5 Z"/></g>
<g><path style="opacity:1" fill="#edeff7" d="M 65.5,26.5 C 67.1667,26.5 68.8333,26.5 70.5,26.5C 70.5,28.5 70.5,30.5 70.5,32.5C 68.3863,30.9811 66.7197,28.9811 65.5,26.5 Z"/></g>
<g><path style="opacity:1" fill="#f3f4f9" d="M 46.5,25.5 C 45.2529,27.178 43.5862,28.5113 41.5,29.5C 41.6667,29.8333 41.8333,30.1667 42,30.5C 43.0852,29.7069 44.2519,29.0402 45.5,28.5C 46.8042,37.8931 46.8042,47.2265 45.5,56.5C 44.8826,56.6107 44.3826,56.944 44,57.5C 42.2359,55.6107 40.7359,53.6107 39.5,51.5C 38.6618,51.1583 38.3284,50.4916 38.5,49.5C 38.5852,48.0047 37.9185,47.0047 36.5,46.5C 35.9854,50.4529 35.8187,54.4529 36,58.5C 33.706,59.4217 31.5394,60.4217 29.5,61.5C 26.1403,59.9432 24.807,57.4432 25.5,54C 28.0968,53.719 30.4301,53.5523 32.5,53.5C 29.351,52.1902 26.351,50.5236 23.5,48.5C 21.7094,44.3289 22.7094,40.9956 26.5,38.5C 27.6204,29.2103 32.7871,23.5436 42,21.5C 44.6156,21.6171 46.1156,22.9504 46.5,25.5 Z"/></g>
<g><path style="opacity:1" fill="#29308a" d="M 34.5,32.5 C 34.56,31.9569 34.8933,31.6236 35.5,31.5C 35.8333,32.6667 36.1667,33.8333 36.5,35C 34.1636,39.0055 35.1636,41.5055 39.5,42.5C 44.5811,39.5207 45.2477,40.0207 41.5,44C 42.731,45.1827 42.731,46.3493 41.5,47.5C 40.5713,46.3112 40.238,44.9778 40.5,43.5C 38.0637,43.683 35.897,43.0163 34,41.5C 32.2627,43.6246 30.096,44.458 27.5,44C 33.6218,42.1179 35.9552,38.2846 34.5,32.5 Z"/></g>
<g><path style="opacity:1" fill="#29348b" d="M 46.5,25.5 C 47.1667,25.5 47.8333,25.5 48.5,25.5C 48.5,30.5 48.5,35.5 48.5,40.5C 49.5676,41.4345 50.901,41.7678 52.5,41.5C 52.8128,37.9581 52.4794,34.6248 51.5,31.5C 51.494,28.4524 52.494,27.9524 54.5,30C 53.5399,33.73 53.2065,37.5633 53.5,41.5C 54.5,41.5 55.5,41.5 56.5,41.5C 56.7523,36.6145 56.419,31.7812 55.5,27C 56.3325,25.2156 57.3325,25.2156 58.5,27C 57.5399,30.73 57.2065,34.5633 57.5,38.5C 58.5,38.5 59.5,38.5 60.5,38.5C 60.4921,35.4552 60.1587,32.4552 59.5,29.5C 60.675,29.281 61.675,29.6143 62.5,30.5C 61.9149,33.5027 61.2482,36.5027 60.5,39.5C 56.8279,41.6547 52.8279,42.988 48.5,43.5C 54.4012,44.5929 60.0679,44.5929 65.5,43.5C 68.1667,44.5 68.1667,45.5 65.5,46.5C 63.802,45.3192 62.1353,45.3192 60.5,46.5C 61.1667,49.5 61.8333,52.5 62.5,55.5C 61.5,58.1667 60.5,58.1667 59.5,55.5C 60.5443,53.2324 60.711,50.8991 60,48.5C 59.3333,47.1667 58.6667,47.1667 58,48.5C 57.2231,53.222 57.3897,57.8887 58.5,62.5C 56.9522,65.0075 55.9522,64.6741 55.5,61.5C 56.8095,57.6493 56.8095,53.6493 55.5,49.5C 53.2534,48.6258 50.9201,48.2924 48.5,48.5C 48.5,49.5 48.5,50.5 48.5,51.5C 50.4752,51.1778 52.1418,51.1778 53.5,51.5C 53.219,56.5649 53.5524,61.5649 54.5,66.5C 52.9483,67.7979 51.9483,67.4646 51.5,65.5C 52.8111,61.3171 52.8111,56.9838 51.5,52.5C 50.8933,52.6236 50.56,52.9569 50.5,53.5C 49.8826,53.6107 49.3826,53.944 49,54.5C 48.3333,59.8333 48.3333,65.1667 49,70.5C 50.0113,71.3366 51.1779,71.67 52.5,71.5C 52.5,72.1667 52.8333,72.5 53.5,72.5C 51.3945,73.8189 49.3945,73.4856 47.5,71.5C 45.8087,73.2562 43.8087,73.7562 41.5,73C 35.7768,71.139 31.1101,67.8057 27.5,63C 26.3284,62.6466 25.1618,62.8132 24,63.5C 22.699,63.3613 21.8656,62.6946 21.5,61.5C 26.2129,61.1307 26.5462,59.464 22.5,56.5C 22.7031,54.9557 23.3698,53.6223 24.5,52.5C 23.8728,51.5832 23.5394,50.5832 23.5,49.5C 23.5,49.1667 23.5,48.8333 23.5,48.5C 26.351,50.5236 29.351,52.1902 32.5,53.5C 30.4301,53.5523 28.0968,53.719 25.5,54C 24.807,57.4432 26.1403,59.9432 29.5,61.5C 29.5,61.8333 29.5,62.1667 29.5,62.5C 31.1992,65.1963 33.5326,67.1963 36.5,68.5C 38.1161,67.8848 39.4495,66.8848 40.5,65.5C 40.8333,65.8333 41.1667,66.1667 41.5,66.5C 40.7366,67.7193 39.7366,68.7193 38.5,69.5C 45.4477,73.3954 47.9477,71.3954 46,63.5C 44.1741,61.9262 42.0075,61.0929 39.5,61C 41.7106,59.161 43.8773,59.3276 46,61.5C 46.7796,59.6131 46.6129,57.9464 45.5,56.5C 46.8042,47.2265 46.8042,37.8931 45.5,28.5C 44.2519,29.0402 43.0852,29.7069 42,30.5C 41.8333,30.1667 41.6667,29.8333 41.5,29.5C 43.5862,28.5113 45.2529,27.178 46.5,25.5 Z"/></g>
<g><path style="opacity:1" fill="#f5f6fa" d="M 38.5,49.5 C 38.3284,50.4916 38.6618,51.1583 39.5,51.5C 39.5011,54.8434 41.0011,57.1767 44,58.5C 45.0299,58.1639 45.5299,57.4972 45.5,56.5C 46.6129,57.9464 46.7796,59.6131 46,61.5C 43.8773,59.3276 41.7106,59.161 39.5,61C 42.0075,61.0929 44.1741,61.9262 46,63.5C 47.9477,71.3954 45.4477,73.3954 38.5,69.5C 39.7366,68.7193 40.7366,67.7193 41.5,66.5C 41.1667,66.1667 40.8333,65.8333 40.5,65.5C 39.4495,66.8848 38.1161,67.8848 36.5,68.5C 33.5326,67.1963 31.1992,65.1963 29.5,62.5C 38.3634,61.6433 40.6967,57.31 36.5,49.5C 36.9698,48.537 37.6365,48.537 38.5,49.5 Z"/></g>
<g><path style="opacity:1" fill="#e9ebf4" d="M 48.5,45.5 C 51.8499,45.335 55.1832,45.5017 58.5,46C 56.884,47.0771 55.0507,47.5771 53,47.5C 51.0145,47.4313 49.5145,46.7647 48.5,45.5 Z"/></g>
<g><path style="opacity:1" fill="#8995c4" d="M 51.5,31.5 C 52.4794,34.6248 52.8128,37.9581 52.5,41.5C 50.901,41.7678 49.5676,41.4345 48.5,40.5C 49.5,40.5 50.5,40.5 51.5,40.5C 51.5,37.5 51.5,34.5 51.5,31.5 Z"/></g>
<g><path style="opacity:1" fill="#99a1cb" d="M 55.5,61.5 C 55.6653,57.8183 55.4986,54.1516 55,50.5C 54.6174,51.056 54.1174,51.3893 53.5,51.5C 52.1418,51.1778 50.4752,51.1778 48.5,51.5C 48.5,50.5 48.5,49.5 48.5,48.5C 50.9201,48.2924 53.2534,48.6258 55.5,49.5C 56.8095,53.6493 56.8095,57.6493 55.5,61.5 Z"/></g>
<g><path style="opacity:1" fill="#6372b0" d="M 8.5,58.5 C 7.421,56.5851 6.421,54.5851 5.5,52.5C 6.46265,50.5104 7.79599,50.1771 9.5,51.5C 8.83333,51.8333 8.16667,52.1667 7.5,52.5C 10.5347,54.4262 10.868,56.4262 8.5,58.5 Z"/></g>
<g><path style="opacity:0.408" fill="#202888" d="M 92.5,37.5 C 92.8333,37.5 93.1667,37.5 93.5,37.5C 93.5,44.1667 93.5,50.8333 93.5,57.5C 92.5577,60.6552 91.2243,63.6552 89.5,66.5C 92.1401,57.0404 93.1401,47.3737 92.5,37.5 Z"/></g>
<g><path style="opacity:1" fill="#a1aad0" d="M 50.5,53.5 C 50.56,52.9569 50.8933,52.6236 51.5,52.5C 52.8111,56.9838 52.8111,61.3171 51.5,65.5C 51.8168,61.2984 51.4834,57.2984 50.5,53.5 Z"/></g>
<g><path style="opacity:1" fill="#dfe2ef" d="M 22.5,56.5 C 26.5462,59.464 26.2129,61.1307 21.5,61.5C 21.6287,59.7839 21.962,58.1172 22.5,56.5 Z"/></g>
<g><path style="opacity:1" fill="#424b9a" d="M 39.5,51.5 C 40.7359,53.6107 42.2359,55.6107 44,57.5C 44.3826,56.944 44.8826,56.6107 45.5,56.5C 45.5299,57.4972 45.0299,58.1639 44,58.5C 41.0011,57.1767 39.5011,54.8434 39.5,51.5 Z"/></g>
<g><path style="opacity:1" fill="#304295" d="M 22.5,56.5 C 21.962,58.1172 21.6287,59.7839 21.5,61.5C 20.0698,59.5453 20.4031,57.8786 22.5,56.5 Z"/></g>
<g><path style="opacity:1" fill="#6471b0" d="M 87.5,50.5 C 89.3442,51.2039 89.8442,52.5372 89,54.5C 88.3456,57.0076 87.179,59.1742 85.5,61C 85.9574,61.414 86.2907,61.914 86.5,62.5C 85.1971,64.9676 83.6971,67.301 82,69.5C 78.6667,68.1667 78.6667,66.8333 82,65.5C 84.2513,60.5521 86.0847,55.5521 87.5,50.5 Z"/></g>
<g><path style="opacity:1" fill="#545ea5" d="M 38.5,49.5 C 37.6365,48.537 36.9698,48.537 36.5,49.5C 40.6967,57.31 38.3634,61.6433 29.5,62.5C 29.5,62.1667 29.5,61.8333 29.5,61.5C 31.5394,60.4217 33.706,59.4217 36,58.5C 35.8187,54.4529 35.9854,50.4529 36.5,46.5C 37.9185,47.0047 38.5852,48.0047 38.5,49.5 Z"/></g>
<g><path style="opacity:0.459" fill="#141c7f" d="M 4.5,63.5 C 6.341,65.8485 7.67433,68.5152 8.5,71.5C 6.12695,69.4208 4.79362,66.7541 4.5,63.5 Z"/></g>
<g><path style="opacity:1" fill="#7481b9" d="M 8.5,58.5 C 9.67504,58.281 10.675,58.6143 11.5,59.5C 10.8333,59.8333 10.1667,60.1667 9.5,60.5C 11.7855,62.6131 13.4522,65.1131 14.5,68C 13.451,68.4922 12.451,68.3256 11.5,67.5C 10.8956,64.7367 9.56228,62.4034 7.5,60.5C 7.86273,59.8165 8.19607,59.1499 8.5,58.5 Z"/></g>
<g><path style="opacity:0.094" fill="#12187e" d="M 88.5,68.5 C 88.573,70.0269 87.9063,71.0269 86.5,71.5C 86.427,69.9731 87.0937,68.9731 88.5,68.5 Z"/></g>
<g><path style="opacity:1" fill="#6f7db6" d="M 14.5,69.5 C 16.1207,69.7869 17.1207,70.7869 17.5,72.5C 14.1446,73.8113 13.1446,72.8113 14.5,69.5 Z"/></g>
<g><path style="opacity:0.161" fill="#13187c" d="M 8.5,71.5 C 9.90632,71.9731 10.573,72.9731 10.5,74.5C 9.09368,74.0269 8.42702,73.0269 8.5,71.5 Z"/></g>
<g><path style="opacity:0.227" fill="#1a1c7f" d="M 86.5,71.5 C 86.573,73.0269 85.9063,74.0269 84.5,74.5C 84.5,73.8333 84.5,73.1667 84.5,72.5C 85.1667,72.1667 85.8333,71.8333 86.5,71.5 Z"/></g>
<g><path style="opacity:1" fill="#717eb7" d="M 79.5,69.5 C 80.4778,69.811 81.1445,70.4777 81.5,71.5C 80.5,73.1667 79.1667,74.5 77.5,75.5C 76.7542,76.7362 76.4208,78.0695 76.5,79.5C 70.9209,81.6229 65.5876,84.2896 60.5,87.5C 60.1667,87 59.8333,86.5 59.5,86C 64.7041,82.1529 70.0375,78.4863 75.5,75C 76.965,73.2258 78.2983,71.3925 79.5,69.5 Z"/></g>
<g><path style="opacity:1" fill="#959cc8" d="M 39.5,74.5 C 45.1667,74.5 50.8333,74.5 56.5,74.5C 56.762,75.9778 56.4287,77.3112 55.5,78.5C 54.8076,77.9747 54.3076,77.3081 54,76.5C 51.7875,77.7595 49.2875,78.4262 46.5,78.5C 44.1667,78.3333 41.8333,78.1667 39.5,78C 38.3157,76.8545 38.3157,75.6879 39.5,74.5 Z"/></g>
<g><path style="opacity:1" fill="#aeb7d7" d="M 84.5,72.5 C 84.5,73.1667 84.5,73.8333 84.5,74.5C 83.5,75.1667 82.5,75.8333 81.5,76.5C 81.7376,74.5956 82.7376,73.2623 84.5,72.5 Z"/></g>
<g><path style="opacity:1" fill="#7a86bc" d="M 18.5,73.5 C 20.3786,73.3932 20.7119,73.8932 19.5,75C 23.0296,77.6955 26.6963,80.1955 30.5,82.5C 31.8333,83.5 31.8333,84.5 30.5,85.5C 25.8499,82.9612 21.1832,79.6278 16.5,75.5C 17.2427,74.8182 17.9094,74.1515 18.5,73.5 Z"/></g>
<g><path style="opacity:1" fill="#5b53a0" d="M 84.5,74.5 C 81.4463,79.8871 77.113,83.8871 71.5,86.5C 71.8333,85.8333 72.1667,85.1667 72.5,84.5C 75.4744,81.8621 78.4744,79.1954 81.5,76.5C 82.5,75.8333 83.5,75.1667 84.5,74.5 Z"/></g>
<g><path style="opacity:0.484" fill="#14197e" d="M 20.5,84.5 C 22.0269,84.427 23.0269,85.0937 23.5,86.5C 21.9731,86.573 20.9731,85.9063 20.5,84.5 Z"/></g>
<g><path style="opacity:0.922" fill="#141f80" d="M 23.5,86.5 C 26.4848,87.3257 29.1515,88.659 31.5,90.5C 30.5,90.5 29.5,90.5 28.5,90.5C 26.6508,89.407 24.9842,88.0737 23.5,86.5 Z"/></g>
<g><path style="opacity:1" fill="#979ec9" d="M 36.5,90.5 C 34.8333,90.5 33.1667,90.5 31.5,90.5C 29.1515,88.659 26.4848,87.3257 23.5,86.5C 23.0269,85.0937 22.0269,84.427 20.5,84.5C 19.3747,82.8712 18.0414,81.3712 16.5,80C 16.8333,79.8333 17.1667,79.6667 17.5,79.5C 23.1431,84.484 29.4764,88.1507 36.5,90.5 Z"/></g>
<g><path style="opacity:1" fill="#6470af" d="M 36.5,84.5 C 43.8767,86.2362 51.2101,86.5695 58.5,85.5C 58.5,86.5 58.5,87.5 58.5,88.5C 51.3388,89.0595 44.3388,89.0595 37.5,88.5C 36.5713,87.3112 36.238,85.9778 36.5,84.5 Z"/></g>
<g><path style="opacity:1" fill="#949cc8" d="M 72.5,84.5 C 72.1667,85.1667 71.8333,85.8333 71.5,86.5C 68.5152,87.3257 65.8485,88.659 63.5,90.5C 61.5,90.5 59.5,90.5 57.5,90.5C 62.5352,88.8239 67.5352,86.8239 72.5,84.5 Z"/></g>
<g><path style="opacity:0.082" fill="#131c80" d="M 71.5,86.5 C 70.0158,88.0737 68.3492,89.407 66.5,90.5C 65.5,90.5 64.5,90.5 63.5,90.5C 65.8485,88.659 68.5152,87.3257 71.5,86.5 Z"/></g>
</svg>
