<svg xmlns="http://www.w3.org/2000/svg" width="94" height="91" style="shape-rendering:geometricPrecision;text-rendering:geometricPrecision;image-rendering:optimizeQuality;fill-rule:evenodd;clip-rule:evenodd"><path style="opacity:.929" fill="#2a358d" d="M37.5 2.5c3.15-.665 6.483-.998 10-1 4.937-.2 9.604.467 14 2a196.282 196.282 0 0 0-24-1z"/><path style="opacity:1" fill="#8086bc" d="M37.5 2.5c8.029-.156 16.029.177 24 1 1.051.722 1.718 1.722 2 3-18.513-5.898-34.846-2.231-49 11v-2c0-.667.333-1 1-1 2.249-.58 3.915-1.913 5-4 2.352-.84 4.352-2.174 6-4 3.16-2.5 6.827-3.833 11-4z"/><path style="opacity:.051" fill="#0e157e" d="M68.5 6.5c2.174.25 3.84 1.25 5 3-2.174-.25-3.84-1.25-5-3z"/><path style="opacity:.871" fill="#1d2281" d="M26.5 6.5c-1.648 1.826-3.648 3.16-6 4 1.302-2.322 3.302-3.655 6-4z"/><path style="opacity:1" fill="#a1a7ce" d="M65.5 7.5c.709-.904 1.709-1.237 3-1 1.16 1.75 2.826 2.75 5 3 .79 1.294 1.79 2.46 3 3.5l-11-5.5z"/><path style="opacity:1" fill="#5156a1" d="M61.5 3.5c2.74.207 5.074 1.207 7 3-1.291-.237-2.291.096-3 1-.79.283-1.456.783-2 1.5 1.601.273 3.101.773 4.5 1.5.456 1.244-.044 2.077-1.5 2.5l1 1c-1.8.236-3.466-.264-5-1.5 1.006-.896 1.006-1.562 0-2-1.936 2.478-3.936 2.478-6 0l1-2c2.042.077 4.042-.59 6-2-.282-1.278-.949-2.278-2-3z"/><path style="opacity:1" fill="#2f308a" d="M20.5 10.5c-1.085 2.087-2.751 3.42-5 4 1.085-2.087 2.751-3.42 5-4z"/><path style="opacity:.847" fill="#1d2081" d="M14.5 15.5v2l-4 3c.58-2.249 1.913-3.915 4-5z"/><path style="opacity:.902" fill="#0e187d" d="M82.5 17.5c1.406.473 2.073 1.473 2 3-1.406-.473-2.073-1.473-2-3z"/><path style="opacity:1" fill="#a2abd1" d="M14.5 17.5c-.58 2.249-1.913 3.915-4 5v-2l4-3z"/><path style="opacity:1" fill="#a2abd0" d="M82.5 17.5c-.073 1.527.594 2.527 2 3v2c-1.839-1.008-3.172-2.508-4-4.5a2.428 2.428 0 0 1 2-.5z"/><path style="opacity:.914" fill="#1f2383" d="M10.5 20.5v2l-2 1c-.073-1.527.594-2.527 2-3z"/><path style="opacity:1" fill="#9da8ce" d="m10.5 22.5-2 6c-1.703 1.16-2.37.494-2-2 1.406-.473 2.073-1.473 2-3l2-1z"/><path style="opacity:.671" fill="#14187b" d="M8.5 23.5c.073 1.527-.594 2.527-2 3-.073-1.527.594-2.527 2-3z"/><path style="opacity:1" fill="#182383" d="M63.5 6.5c-1.958 1.41-3.958 2.077-6 2l-1 2c2.064 2.478 4.064 2.478 6 0 1.006.438 1.006 1.104 0 2 1.534 1.236 3.2 1.736 5 1.5l-1-1c1.456-.423 1.956-1.256 1.5-2.5A15.274 15.274 0 0 0 63.5 9c.544-.717 1.21-1.217 2-1.5l11 5.5a14.692 14.692 0 0 1-3-3.5c3.6 1.93 6.6 4.597 9 8a2.428 2.428 0 0 0-2 .5c.828 1.992 2.161 3.492 4 4.5v-2c3.62 3.57 5.954 7.904 7 13-1.058-1.1-1.892-2.434-2.5-4l-.5 2c4.776 14.237 3.443 27.904-4 41-1.762.762-2.762 2.096-3 4a5393.859 5393.859 0 0 1-9 8 138.729 138.729 0 0 1-15 6h-21c-7.024-2.35-13.357-6.016-19-11l-1 .5a25.15 25.15 0 0 1 4 4.5c-4.333-2.333-7.667-5.667-10-10 1.294.79 2.46 1.79 3.5 3-.747-2.475-2.08-4.809-4-7-6.753-12.862-8.086-26.195-4-40-.383.556-.883.89-1.5 1-.098-2.053.569-3.72 2-5-.37 2.494.297 3.16 2 2l2-6c2.087-1.085 3.42-2.751 4-5C28.654 4.269 44.987.602 63.5 6.5z"/><path style="opacity:1" fill="#6c78b4" d="M14.5 21.5c2.584.548 3.584 2.215 3 5-4.713.012-5.713-1.654-3-5z"/><path style="opacity:1" fill="#a2acd1" d="M84.5 22.5c1.916 1.165 2.75 2.832 2.5 5-1.372-1.41-2.205-3.077-2.5-5z"/><path style="opacity:1" fill="#737fb8" d="M78.5 21.5c4.905 1.5 5.072 3.5.5 6a6.975 6.975 0 0 0-2.5-3.5c.88-.708 1.547-1.542 2-2.5z"/><path style="opacity:1" fill="#9ba5cd" d="M74.5 16.5c4.387 1.266 4.72 2.933 1 5a10.76 10.76 0 0 1-3-2.5c1.256-.417 1.923-1.25 2-2.5z"/><path style="opacity:1" fill="#8b95c4" d="M22.5 18.5c-.946 1.43-2.113 2.764-3.5 4-3.376-2.259-3.21-4.259.5-6 .765 1.112 1.765 1.779 3 2z"/><path style="opacity:1" fill="#8f99c6" d="M22.5 18.5c-1.832-3.514-.832-5.014 3-4.5.987 2.552-.013 4.052-3 4.5z"/><path style="opacity:1" fill="#98a2cb" d="M69.5 13.5c4.736.385 5.07 1.719 1 4-2.142-.937-2.476-2.27-1-4z"/><path style="opacity:1" fill="#747fb7" d="M28.5 9.5c1.752-.082 2.752.75 3 2.5-1.035.253-2.035 1.086-3 2.5-2.485-1.87-2.485-3.536 0-5z"/><path style="opacity:1" fill="#8c96c4" d="M33.5 7.5h3v4c-3.454.233-4.454-1.1-3-4z"/><path style="opacity:1" fill="#8490c1" d="M51.5 6.5h4v4h-4v-4z"/><path style="opacity:1" fill="#929dc8" d="M45.5 5.5h4v4h-4v-4z"/><path style="opacity:1" fill="#7683b9" d="M39.5 6.5c.722.418 1.222 1.084 1.5 2 .317-1.8.984-2.134 2-1 .75 1.135.583 2.135-.5 3-2.05-.577-3.05-1.91-3-4z"/><path style="opacity:1" fill="#808bbe" d="M82.5 26.5c1.634.707 2.968 1.873 4 3.5-3.142 3.071-5.142 2.738-6-1 .556-1.011 1.222-1.844 2-2.5z"/><path style="opacity:1" fill="#6b71b1" d="M8.5 28.5c5.606-1.752 6.606-.752 3 3-1.713-.38-2.713-1.38-3-3z"/><path style="opacity:1" fill="#8b96c4" d="M7.5 32.5c4.677-.043 5.677 1.624 3 5-2.273-.875-3.273-2.542-3-5z"/><path style="opacity:1" fill="#7986bb" d="M83.5 32.5c3.661-.15 4.661 1.35 3 4.5-2.273-.317-3.273-1.817-3-4.5z"/><path style="opacity:.953" fill="#2a308f" d="M4.5 31.5c-2.217 9.581-2.55 19.248-1 29-.768-.763-1.268-1.763-1.5-3a100.25 100.25 0 0 1 0-20c.24-2.352 1.073-4.352 2.5-6z"/><path style="opacity:1" fill="#8a95c4" d="M6.5 39.5h3c.278 1.846-.389 3.18-2 4-.929-1.189-1.262-2.522-1-4z"/><path style="opacity:1" fill="#9099c6" d="M10.5 74.5c.073-1.527-.594-2.527-2-3-.826-2.985-2.159-5.651-4-8-.904-.709-1.237-1.709-1-3-1.55-9.752-1.217-19.419 1-29 .617-.11 1.117-.444 1.5-1-4.086 13.805-2.753 27.138 4 40 1.92 2.191 3.253 4.525 4 7a14.692 14.692 0 0 0-3.5-3z"/><path style="opacity:1" fill="#8c94c3" d="M91.5 33.5c.934 1.068 1.268 2.401 1 4 .64 9.874-.36 19.54-3 29 .172.992-.162 1.658-1 2-1.406.473-2.073 1.473-2 3l-2 1c7.443-13.096 8.776-26.763 4-41l.5-2c.608 1.566 1.442 2.9 2.5 4z"/><path style="opacity:1" fill="#6470af" d="M42.5 11.5c24.059-.105 37.725 11.729 41 35.5C81.351 69.149 69.184 81.316 47 83.5c-21.433-2.6-33.266-14.6-35.5-36 1.98-19.342 12.313-31.342 31-36z"/><path style="opacity:1" fill="#f7f7fb" d="M39.5 14.5c28.332-1.501 41.832 11.832 40.5 40-4.516 16.772-15.516 25.438-33 26-15.08-.759-25.413-8.092-31-22-4.81-21.634 3.023-36.3 23.5-44z"/><path style="opacity:1" fill="#f3f4f9" d="M52.5 71.5c-1.322.17-2.489-.163-3.5-1a64.247 64.247 0 0 1 0-16c.383-.556.883-.89 1.5-1 .983 3.798 1.317 7.798 1 12 .448 1.965 1.448 2.298 3 1a61.254 61.254 0 0 1-1-15c.617-.11 1.117-.444 1.5-1a60.94 60.94 0 0 1 .5 11c.452 3.174 1.452 3.507 3 1-1.11-4.611-1.277-9.278-.5-14 .667-1.333 1.333-1.333 2 0 .711 2.4.544 4.732-.5 7 1 2.667 2 2.667 3 0l-2-9c1.635-1.18 3.302-1.18 5 0 2.667-1 2.667-2 0-3-5.432 1.093-11.099 1.093-17 0 4.328-.512 8.328-1.845 12-4a176.684 176.684 0 0 0 2-9c-.825-.886-1.825-1.219-3-1a41.744 41.744 0 0 1 1 9h-3c-.294-3.937.04-7.77 1-11.5-1.167-1.784-2.167-1.784-3 0a60.114 60.114 0 0 1 1 14.5h-3c-.294-3.937.04-7.77 1-11.5-2.006-2.048-3.006-1.548-3 1.5v9h-3v-15c.384-2.55 1.884-3.883 4.5-4 9.108 1.757 13.775 7.09 14 16-1.678.966-2.345 2.3-2 4 3.965-3.97 6.465-2.97 7.5 3-.839 3.175-2.505 5.841-5 8a9.427 9.427 0 0 1 3 3c-3.831 7.834-9.831 13.168-18 16z"/><path style="opacity:1" fill="#5d69ab" d="M70.5 32.5v-6h-5c-.667 0-1-.333-1-1 2.758-1.548 5.258-1.215 7.5 1 .739 2.38.239 4.38-1.5 6z"/><path style="opacity:1" fill="#1e1e79" d="M64.5 25.5c0 .667.333 1 1 1 1.22 2.481 2.886 4.481 5 6-1.705 3.389-.872 6.055 2.5 8 1.114 4.45.28 8.45-2.5 12 1.02 1.932 1.187 3.932.5 6-4.236 6.744-10.07 11.41-17.5 14-.667 0-1-.333-1-1 8.169-2.832 14.169-8.166 18-16a9.427 9.427 0 0 0-3-3c2.495-2.159 4.161-4.825 5-8-1.035-5.97-3.535-6.97-7.5-3-.345-1.7.322-3.034 2-4-.225-8.91-4.892-14.243-14-16-2.616.117-4.116 1.45-4.5 4h-2c-.384-2.55-1.884-3.883-4.5-4-9.213 2.044-14.38 7.71-15.5 17-3.79 2.496-4.79 5.829-3 10v1c-3.019-4.374-2.519-8.374 1.5-12 1.64-9.472 7.14-15.139 16.5-17 2.308-.135 4.308.531 6 2a11.621 11.621 0 0 1 5-3c4.58.957 8.58 2.957 12 6z"/><path style="opacity:1" fill="#edeff7" d="M65.5 26.5h5v6c-2.114-1.519-3.78-3.519-5-6z"/><path style="opacity:1" fill="#f3f4f9" d="M46.5 25.5c-1.247 1.678-2.914 3.011-5 4l.5 1a18.088 18.088 0 0 1 3.5-2c1.304 9.393 1.304 18.727 0 28-.617.11-1.117.444-1.5 1a33.857 33.857 0 0 1-4.5-6c-.838-.342-1.172-1.008-1-2 .085-1.495-.581-2.495-2-3a68.897 68.897 0 0 0-.5 12 68.667 68.667 0 0 0-6.5 3c-3.36-1.557-4.693-4.057-4-7.5 2.597-.281 4.93-.448 7-.5a46.108 46.108 0 0 1-9-5c-1.79-4.171-.79-7.504 3-10 1.12-9.29 6.287-14.956 15.5-17 2.616.117 4.116 1.45 4.5 4z"/><path style="opacity:1" fill="#29308a" d="M34.5 32.5c.06-.543.393-.876 1-1l1 3.5c-2.336 4.005-1.336 6.505 3 7.5 5.081-2.98 5.748-2.48 2 1.5 1.231 1.183 1.231 2.35 0 3.5-.929-1.189-1.262-2.522-1-4-2.436.183-4.603-.484-6.5-2-1.737 2.125-3.904 2.958-6.5 2.5 6.122-1.882 8.455-5.715 7-11.5z"/><path style="opacity:1" fill="#29348b" d="M46.5 25.5h2v15c1.068.934 2.401 1.268 4 1 .313-3.542-.02-6.875-1-10-.006-3.048.994-3.548 3-1.5-.96 3.73-1.294 7.563-1 11.5h3a60.114 60.114 0 0 0-1-14.5c.833-1.784 1.833-1.784 3 0-.96 3.73-1.294 7.563-1 11.5h3a41.744 41.744 0 0 0-1-9c1.175-.219 2.175.114 3 1a176.684 176.684 0 0 1-2 9c-3.672 2.155-7.672 3.488-12 4 5.901 1.093 11.568 1.093 17 0 2.667 1 2.667 2 0 3-1.698-1.18-3.365-1.18-5 0l2 9c-1 2.667-2 2.667-3 0 1.044-2.268 1.211-4.6.5-7-.667-1.333-1.333-1.333-2 0-.777 4.722-.61 9.389.5 14-1.548 2.507-2.548 2.174-3-1 1.31-3.85 1.31-7.85 0-12a15.42 15.42 0 0 0-7-1v3c1.975-.322 3.642-.322 5 0a61.254 61.254 0 0 0 1 15c-1.552 1.298-2.552.965-3-1 1.311-4.183 1.311-8.516 0-13-.607.124-.94.457-1 1-.617.11-1.117.444-1.5 1a64.247 64.247 0 0 0 0 16c1.011.837 2.178 1.17 3.5 1 0 .667.333 1 1 1-2.105 1.319-4.105.986-6-1-1.691 1.756-3.691 2.256-6 1.5-5.723-1.861-10.39-5.194-14-10-1.172-.353-2.338-.187-3.5.5-1.301-.139-2.134-.805-2.5-2 4.713-.37 5.046-2.036 1-5 .203-1.544.87-2.878 2-4a5.576 5.576 0 0 1-1-3v-1a46.108 46.108 0 0 0 9 5c-2.07.052-4.403.219-7 .5-.693 3.443.64 5.943 4 7.5v1c1.7 2.696 4.033 4.696 7 6a8.905 8.905 0 0 0 4-3l1 1a9.427 9.427 0 0 1-3 3c6.948 3.895 9.448 1.895 7.5-6-1.826-1.574-3.992-2.407-6.5-2.5 2.21-1.839 4.377-1.672 6.5.5.78-1.887.613-3.554-.5-5 1.304-9.273 1.304-18.607 0-28a18.088 18.088 0 0 0-3.5 2l-.5-1c2.086-.989 3.753-2.322 5-4z"/><path style="opacity:1" fill="#f5f6fa" d="M38.5 49.5c-.172.992.162 1.658 1 2 .001 3.343 1.501 5.677 4.5 7 1.03-.336 1.53-1.003 1.5-2 1.113 1.446 1.28 3.113.5 5-2.123-2.172-4.29-2.339-6.5-.5 2.508.093 4.674.926 6.5 2.5 1.948 7.895-.552 9.895-7.5 6a9.427 9.427 0 0 0 3-3l-1-1a8.905 8.905 0 0 1-4 3c-2.967-1.304-5.3-3.304-7-6 8.863-.857 11.197-5.19 7-13 .47-.963 1.136-.963 2 0z"/><path style="opacity:1" fill="#e9ebf4" d="M48.5 45.5c3.35-.165 6.683.002 10 .5-1.616 1.077-3.45 1.577-5.5 1.5-1.986-.069-3.486-.735-4.5-2z"/><path style="opacity:1" fill="#8995c4" d="M51.5 31.5c.98 3.125 1.313 6.458 1 10-1.599.268-2.932-.066-4-1h3v-9z"/><path style="opacity:1" fill="#99a1cb" d="M55.5 61.5a60.94 60.94 0 0 0-.5-11c-.383.556-.883.89-1.5 1-1.358-.322-3.025-.322-5 0v-3a15.42 15.42 0 0 1 7 1c1.31 4.15 1.31 8.15 0 12z"/><path style="opacity:1" fill="#6372b0" d="M8.5 58.5a69.021 69.021 0 0 1-3-6c.963-1.99 2.296-2.323 4-1l-2 1c3.035 1.926 3.368 3.926 1 6z"/><path style="opacity:.408" fill="#202888" d="M92.5 37.5h1v20a38.619 38.619 0 0 1-4 9c2.64-9.46 3.64-19.126 3-29z"/><path style="opacity:1" fill="#a1aad0" d="M50.5 53.5c.06-.543.393-.876 1-1 1.311 4.484 1.311 8.817 0 13 .317-4.202-.017-8.202-1-12z"/><path style="opacity:1" fill="#dfe2ef" d="M22.5 56.5c4.046 2.964 3.713 4.63-1 5a20.677 20.677 0 0 1 1-5z"/><path style="opacity:1" fill="#424b9a" d="M39.5 51.5a33.857 33.857 0 0 0 4.5 6c.383-.556.883-.89 1.5-1 .03.997-.47 1.664-1.5 2-2.999-1.323-4.499-3.657-4.5-7z"/><path style="opacity:1" fill="#304295" d="M22.5 56.5a20.677 20.677 0 0 0-1 5c-1.43-1.955-1.097-3.621 1-5z"/><path style="opacity:1" fill="#6471b0" d="M87.5 50.5c1.844.704 2.344 2.037 1.5 4-.654 2.508-1.821 4.674-3.5 6.5.457.414.79.914 1 1.5a48.498 48.498 0 0 1-4.5 7c-3.333-1.333-3.333-2.667 0-4a103.808 103.808 0 0 0 5.5-15z"/><path style="opacity:1" fill="#545ea5" d="M38.5 49.5c-.864-.963-1.53-.963-2 0 4.197 7.81 1.863 12.143-7 13v-1a68.667 68.667 0 0 1 6.5-3 68.897 68.897 0 0 1 .5-12c1.419.505 2.085 1.505 2 3z"/><path style="opacity:.459" fill="#141c7f" d="M4.5 63.5c1.841 2.349 3.174 5.015 4 8-2.373-2.08-3.706-4.746-4-8z"/><path style="opacity:1" fill="#7481b9" d="M8.5 58.5c1.175-.219 2.175.114 3 1l-2 1c2.286 2.113 3.952 4.613 5 7.5-1.049.492-2.049.326-3-.5-.604-2.763-1.938-5.097-4-7 .363-.684.696-1.35 1-2z"/><path style="opacity:.094" fill="#12187e" d="M88.5 68.5c.073 1.527-.594 2.527-2 3-.073-1.527.594-2.527 2-3z"/><path style="opacity:1" fill="#6f7db6" d="M14.5 69.5c1.62.287 2.62 1.287 3 3-3.355 1.311-4.355.311-3-3z"/><path style="opacity:.161" fill="#13187c" d="M8.5 71.5c1.406.473 2.073 1.473 2 3-1.406-.473-2.073-1.473-2-3z"/><path style="opacity:.227" fill="#1a1c7f" d="M86.5 71.5c.073 1.527-.594 2.527-2 3v-2l2-1z"/><path style="opacity:1" fill="#717eb7" d="M79.5 69.5c.978.311 1.644.978 2 2-1 1.667-2.333 3-4 4a6.845 6.845 0 0 0-1 4 89.672 89.672 0 0 0-16 8l-1-1.5a283.304 283.304 0 0 1 16-11 54.619 54.619 0 0 0 4-5.5z"/><path style="opacity:1" fill="#959cc8" d="M39.5 74.5h17c.262 1.478-.071 2.811-1 4a4.452 4.452 0 0 1-1.5-2c-2.212 1.26-4.712 1.926-7.5 2l-7-.5c-1.184-1.145-1.184-2.312 0-3.5z"/><path style="opacity:1" fill="#aeb7d7" d="M84.5 72.5v2l-3 2c.238-1.904 1.238-3.238 3-4z"/><path style="opacity:1" fill="#7a86bc" d="M18.5 73.5c1.879-.107 2.212.393 1 1.5a123.833 123.833 0 0 0 11 7.5c1.333 1 1.333 2 0 3-4.65-2.539-9.317-5.872-14-10a30.943 30.943 0 0 0 2-2z"/><path style="opacity:1" fill="#5b53a0" d="M84.5 74.5c-3.054 5.387-7.387 9.387-13 12l1-2c2.974-2.638 5.974-5.305 9-8l3-2z"/><path style="opacity:.484" fill="#14197e" d="M20.5 84.5c1.527-.073 2.527.594 3 2-1.527.073-2.527-.594-3-2z"/><path style="opacity:.922" fill="#141f80" d="M23.5 86.5c2.985.826 5.651 2.159 8 4h-3a22.763 22.763 0 0 1-5-4z"/><path style="opacity:1" fill="#979ec9" d="M36.5 90.5h-5c-2.349-1.841-5.015-3.174-8-4-.473-1.406-1.473-2.073-3-2a25.15 25.15 0 0 0-4-4.5l1-.5c5.643 4.984 11.976 8.65 19 11z"/><path style="opacity:1" fill="#6470af" d="M36.5 84.5c7.377 1.736 14.71 2.07 22 1v3c-7.161.56-14.161.56-21 0-.929-1.189-1.262-2.522-1-4z"/><path style="opacity:1" fill="#949cc8" d="m72.5 84.5-1 2c-2.985.826-5.651 2.159-8 4h-6a138.729 138.729 0 0 0 15-6z"/><path style="opacity:.082" fill="#131c80" d="M71.5 86.5a22.763 22.763 0 0 1-5 4h-3c2.349-1.841 5.015-3.174 8-4z"/></svg>