<?xml version="1.0" encoding="UTF-8"?>
<!DOCTYPE svg PUBLIC "-//W3C//DTD SVG 1.1//EN" "http://www.w3.org/Graphics/SVG/1.1/DTD/svg11.dtd">
<svg xmlns="http://www.w3.org/2000/svg" version="1.1" width="453px" height="301px" style="shape-rendering:geometricPrecision; text-rendering:geometricPrecision; image-rendering:optimizeQuality; fill-rule:evenodd; clip-rule:evenodd" xmlns:xlink="http://www.w3.org/1999/xlink">
<g><path style="opacity:0.2" fill="#000000" d="M 452.5,14.5 C 452.5,20.5 452.5,26.5 452.5,32.5C 451.167,32.8333 451.167,33.1667 452.5,33.5C 452.5,34.1667 452.5,34.8333 452.5,35.5C 451.167,35.8333 451.167,36.1667 452.5,36.5C 452.5,38.5 452.5,40.5 452.5,42.5C 451.167,42.8333 451.167,43.1667 452.5,43.5C 452.5,44.1667 452.5,44.8333 452.5,45.5C 451.167,45.8333 451.167,46.1667 452.5,46.5C 452.5,47.1667 452.5,47.8333 452.5,48.5C 451.167,48.8333 451.167,49.1667 452.5,49.5C 452.5,76.8333 452.5,104.167 452.5,131.5C 451.167,131.833 451.167,132.167 452.5,132.5C 452.5,134.5 452.5,136.5 452.5,138.5C 451.167,138.833 451.167,139.167 452.5,139.5C 452.5,140.167 452.5,140.833 452.5,141.5C 451.167,141.833 451.167,142.167 452.5,142.5C 452.5,143.167 452.5,143.833 452.5,144.5C 451.167,144.833 451.167,145.167 452.5,145.5C 452.5,146.5 452.5,147.5 452.5,148.5C 451.167,148.833 451.167,149.167 452.5,149.5C 452.5,150.167 452.5,150.833 452.5,151.5C 451.167,151.833 451.167,152.167 452.5,152.5C 452.5,196.833 452.5,241.167 452.5,285.5C 451.811,292.356 448.144,296.856 441.5,299C 297.833,299.667 154.167,299.667 10.5,299C 4.15273,297.109 0.486063,292.943 -0.5,286.5C -0.5,195.833 -0.5,105.167 -0.5,14.5C 0.189035,7.64356 3.8557,3.14356 10.5,1C 154.167,0.333333 297.833,0.333333 441.5,1C 448.144,3.14356 451.811,7.64356 452.5,14.5 Z"/></g>
<g><path style="opacity:1" fill="#1f2023" d="M 75.5,9.5 C 197.332,8.50046 319.332,8.16712 441.5,8.5C 441.821,13.6946 441.487,18.6946 440.5,23.5C 440.5,21.1667 440.5,18.8333 440.5,16.5C 319.668,15.5005 198.668,15.1671 77.5,15.5C 76.8333,13.5 76.1667,11.5 75.5,9.5 Z"/></g>
<g><path style="opacity:1" fill="#292c30" d="M 77.5,15.5 C 198.668,15.1671 319.668,15.5005 440.5,16.5C 433.978,16.1765 427.645,16.5098 421.5,17.5C 417.499,17.1672 413.499,16.8339 409.5,16.5C 404.489,16.3341 399.489,16.5007 394.5,17C 396.527,18.3957 396.86,20.0624 395.5,22C 296.833,22.6667 198.167,22.6667 99.5,22C 105.552,21.8309 111.552,20.9976 117.5,19.5C 110.945,18.8157 104.445,18.149 98,17.5C 96.6667,18.1667 95.3333,18.8333 94,19.5C 84.8956,19.8058 75.5623,19.4725 66,18.5C 65.5,18.8333 65,19.1667 64.5,19.5C 70.2956,21.4985 76.129,21.8318 82,20.5C 83.3988,21.2266 84.8988,21.7266 86.5,22C 73.1667,22.6667 59.8333,22.6667 46.5,22C 50.0252,21.8213 53.3586,21.3213 56.5,20.5C 58.924,20.8076 61.2573,20.4742 63.5,19.5C 62.1667,19.1667 60.8333,18.8333 59.5,18.5C 56.3138,19.6856 53.1471,19.6856 50,18.5C 48.3189,18.6083 47.1522,19.2749 46.5,20.5C 44.8624,19.343 43.1957,18.1764 41.5,17C 53.6737,16.8307 65.6737,16.3307 77.5,15.5 Z"/></g>
<g><path style="opacity:1" fill="#363a3e" d="M 75.5,9.5 C 76.1667,11.5 76.8333,13.5 77.5,15.5C 65.6737,16.3307 53.6737,16.8307 41.5,17C 43.1957,18.1764 44.8624,19.343 46.5,20.5C 49.8333,20.5 53.1667,20.5 56.5,20.5C 53.3586,21.3213 50.0252,21.8213 46.5,22C 59.8333,22.6667 73.1667,22.6667 86.5,22C 84.8988,21.7266 83.3988,21.2266 82,20.5C 76.129,21.8318 70.2956,21.4985 64.5,19.5C 65,19.1667 65.5,18.8333 66,18.5C 75.5623,19.4725 84.8956,19.8058 94,19.5C 95.3333,18.8333 96.6667,18.1667 98,17.5C 104.445,18.149 110.945,18.8157 117.5,19.5C 111.552,20.9976 105.552,21.8309 99.5,22C 198.167,22.6667 296.833,22.6667 395.5,22C 396.86,20.0624 396.527,18.3957 394.5,17C 399.489,16.5007 404.489,16.3341 409.5,16.5C 411.803,19.3217 414.637,19.9883 418,18.5C 418.417,19.756 419.25,20.4226 420.5,20.5C 421.5,23.1667 422.5,23.1667 423.5,20.5C 422.833,19.5 422.167,18.5 421.5,17.5C 427.645,16.5098 433.978,16.1765 440.5,16.5C 440.5,18.8333 440.5,21.1667 440.5,23.5C 297.5,23.5 154.5,23.5 11.5,23.5C 11.5,21.1667 11.5,18.8333 11.5,16.5C 16.5111,16.6659 21.5111,16.4993 26.5,16C 27.4231,13.9592 27.7564,11.7925 27.5,9.5C 43.5,9.5 59.5,9.5 75.5,9.5 Z"/></g>
<g><path style="opacity:1" fill="#dd6030" d="M 420.5,20.5 C 421.5,20.5 422.5,20.5 423.5,20.5C 422.5,23.1667 421.5,23.1667 420.5,20.5 Z"/></g>
<g><path style="opacity:1" fill="#699ae9" d="M 411.5,20.5 C 413.288,20.2148 414.955,20.5481 416.5,21.5C 415.667,21.8333 414.833,22.1667 414,22.5C 412.624,22.3158 411.791,21.6491 411.5,20.5 Z"/></g>
<g><path style="opacity:1" fill="#aa56b9" d="M 428.5,17.5 C 429.5,17.5 430.5,17.5 431.5,17.5C 431.5,18.8333 431.5,20.1667 431.5,21.5C 428.046,21.7332 427.046,20.3999 428.5,17.5 Z"/></g>
<g><path style="opacity:1" fill="#5e6165" d="M 56.5,20.5 C 53.1667,20.5 49.8333,20.5 46.5,20.5C 47.1522,19.2749 48.3189,18.6083 50,18.5C 53.1471,19.6856 56.3138,19.6856 59.5,18.5C 60.8333,18.8333 62.1667,19.1667 63.5,19.5C 61.2573,20.4742 58.924,20.8076 56.5,20.5 Z"/></g>
<g><path style="opacity:1" fill="#625a4a" d="M 409.5,16.5 C 413.499,16.8339 417.499,17.1672 421.5,17.5C 422.167,18.5 422.833,19.5 423.5,20.5C 422.5,20.5 421.5,20.5 420.5,20.5C 419.25,20.4226 418.417,19.756 418,18.5C 414.637,19.9883 411.803,19.3217 409.5,16.5 Z"/></g>
<g><path style="opacity:1" fill="#262626" d="M 441.5,8.5 C 319.332,8.16712 197.332,8.50046 75.5,9.5C 59.5,9.5 43.5,9.5 27.5,9.5C 27.7564,11.7925 27.4231,13.9592 26.5,16C 21.5111,16.4993 16.5111,16.6659 11.5,16.5C 11.5,18.8333 11.5,21.1667 11.5,23.5C 154.5,23.5 297.5,23.5 440.5,23.5C 440.5,27.5 440.5,31.5 440.5,35.5C 438.076,35.1924 435.743,35.5258 433.5,36.5C 435.364,41.9975 433.364,45.3308 427.5,46.5C 421.969,44.9843 419.969,41.3176 421.5,35.5C 418.5,35.5 415.5,35.5 412.5,35.5C 278.833,35.5 145.167,35.5 11.5,35.5C 11.5,39.5 11.5,43.5 11.5,47.5C 11.1667,47.5 10.8333,47.5 10.5,47.5C 10.177,33.9208 10.5103,20.4208 11.5,7C 154.5,6.33333 297.5,6.33333 440.5,7C 441.056,7.38258 441.389,7.88258 441.5,8.5 Z"/></g>
<g><path style="opacity:1" fill="#4eb22a" d="M 22.5,10.5 C 24.337,10.6395 24.6704,11.3061 23.5,12.5C 22.7025,12.0431 22.3691,11.3764 22.5,10.5 Z"/></g>
<g><path style="opacity:1" fill="#c4aa2b" d="M 17.5,10.5 C 18.675,10.281 19.675,10.6143 20.5,11.5C 18.9483,12.7979 17.9483,12.4646 17.5,10.5 Z"/></g>
<g><path style="opacity:1" fill="#ce534b" d="M 13.5,10.5 C 14.675,10.281 15.675,10.6143 16.5,11.5C 14.9483,12.7979 13.9483,12.4646 13.5,10.5 Z"/></g>
<g><path style="opacity:1" fill="#d4d4d4" d="M 20.5,26.5 C 26.5548,25.9421 27.8881,28.1088 24.5,33C 19.7915,33.082 18.4582,30.9154 20.5,26.5 Z"/></g>
<g><path style="opacity:1" fill="#515151" d="M 286.5,28.5 C 289.167,28.5 291.833,28.5 294.5,28.5C 294.5,29.5 294.5,30.5 294.5,31.5C 287.85,30.8899 281.184,30.3899 274.5,30C 278.688,29.8238 282.688,29.3238 286.5,28.5 Z"/></g>
<g><path style="opacity:1" fill="#676767" d="M 313.5,28.5 C 317.119,29.1805 320.786,29.6805 324.5,30C 323.892,30.8699 323.059,31.3699 322,31.5C 318.67,31.2792 315.836,30.2792 313.5,28.5 Z"/></g>
<g><path style="opacity:1" fill="#303030" d="M 412.5,35.5 C 412.5,39.5 412.5,43.5 412.5,47.5C 278.833,47.5 145.167,47.5 11.5,47.5C 11.5,43.5 11.5,39.5 11.5,35.5C 145.167,35.5 278.833,35.5 412.5,35.5 Z"/></g>
<g><path style="opacity:1" fill="#4c4c4c" d="M 412.5,35.5 C 415.5,35.5 418.5,35.5 421.5,35.5C 419.969,41.3176 421.969,44.9843 427.5,46.5C 433.364,45.3308 435.364,41.9975 433.5,36.5C 435.743,35.5258 438.076,35.1924 440.5,35.5C 440.5,44.1667 440.5,52.8333 440.5,61.5C 432.833,61.5 425.167,61.5 417.5,61.5C 417.5,125.5 417.5,189.5 417.5,253.5C 416.167,253.5 414.833,253.5 413.5,253.5C 413.832,189.331 413.499,125.331 412.5,61.5C 309.833,61.5 207.167,61.5 104.5,61.5C 104.167,61.5 103.833,61.5 103.5,61.5C 72.8333,61.5 42.1667,61.5 11.5,61.5C 11.5,57.1667 11.5,52.8333 11.5,48.5C 145.334,48.8329 279.001,48.4996 412.5,47.5C 412.5,43.5 412.5,39.5 412.5,35.5 Z"/></g>
<g><path style="opacity:1" fill="#471b4b" d="M 423.5,35.5 C 426.862,35.0695 429.695,36.0695 432,38.5C 432.263,44.5114 429.93,45.8448 425,42.5C 423.798,40.3225 423.298,37.9892 423.5,35.5 Z"/></g>
<g><path style="opacity:1" fill="#7c959f" d="M 426.5,38.5 C 428.532,39.0478 429.532,40.3812 429.5,42.5C 426.046,42.7332 425.046,41.3999 426.5,38.5 Z"/></g>
<g><path style="opacity:1" fill="#9b9b9b" d="M 167.5,54.5 C 168.097,53.8614 168.93,53.528 170,53.5C 174.132,54.3824 174.299,55.3824 170.5,56.5C 169.5,56.3333 168.5,56.1667 167.5,56C 168.738,55.31 168.738,54.81 167.5,54.5 Z"/></g>
<g><path style="opacity:1" fill="#aeaeae" d="M 174.5,53.5 C 178.487,54.1039 182.82,54.6039 187.5,55C 183.518,56.4063 179.518,56.9063 175.5,56.5C 174.614,55.675 174.281,54.675 174.5,53.5 Z"/></g>
<g><path style="opacity:1" fill="#909090" d="M 256.5,54.5 C 266.138,54.2533 276.138,54.5866 286.5,55.5C 280.848,56.3084 275.181,56.975 269.5,57.5C 264.711,57.3532 260.378,56.3532 256.5,54.5 Z"/></g>
<g><path style="opacity:1" fill="#3b3b3b" d="M 440.5,35.5 C 441.833,108.167 441.833,180.833 440.5,253.5C 432.833,253.5 425.167,253.5 417.5,253.5C 417.5,189.5 417.5,125.5 417.5,61.5C 425.167,61.5 432.833,61.5 440.5,61.5C 440.5,52.8333 440.5,44.1667 440.5,35.5 Z"/></g>
<g><path style="opacity:1" fill="#4e4e4e" d="M 103.5,63.5 C 103.5,66.8333 103.5,70.1667 103.5,73.5C 72.8333,73.5 42.1667,73.5 11.5,73.5C 11.5,70.1667 11.5,66.8333 11.5,63.5C 42.1667,63.5 72.8333,63.5 103.5,63.5 Z"/></g>
<g><path style="opacity:1" fill="#8e8e8e" d="M 20.5,66.5 C 37.7493,68.1455 37.7493,69.1455 20.5,69.5C 20.5,68.5 20.5,67.5 20.5,66.5 Z"/></g>
<g><path style="opacity:1" fill="#4e4e4e" d="M 103.5,178.5 C 103.5,181.833 103.5,185.167 103.5,188.5C 72.8333,188.5 42.1667,188.5 11.5,188.5C 11.5,185.167 11.5,181.833 11.5,178.5C 42.1667,178.5 72.8333,178.5 103.5,178.5 Z"/></g>
<g><path style="opacity:1" fill="#999999" d="M 20.5,182.5 C 29.3816,182.426 38.0482,182.76 46.5,183.5C 39.2769,184.183 32.1102,184.849 25,185.5C 22.9737,185.085 21.4737,184.085 20.5,182.5 Z"/></g>
<g><path style="opacity:0.999" fill="#222223" d="M 103.5,61.5 C 103.833,61.5 104.167,61.5 104.5,61.5C 104.5,125.5 104.5,189.5 104.5,253.5C 109.875,253.828 115.208,253.495 120.5,252.5C 122.005,249.869 122.671,250.203 122.5,253.5C 219.167,253.5 315.833,253.5 412.5,253.5C 412.5,189.5 412.5,125.5 412.5,61.5C 413.499,125.331 413.832,189.331 413.5,253.5C 414.833,253.5 416.167,253.5 417.5,253.5C 425.167,253.5 432.833,253.5 440.5,253.5C 440.5,264.167 440.5,274.833 440.5,285.5C 297.5,285.667 154.5,285.5 11.5,285C 10.5134,274.582 10.1801,264.082 10.5,253.5C 41.5,253.5 72.5,253.5 103.5,253.5C 103.5,231.833 103.5,210.167 103.5,188.5C 103.5,185.167 103.5,181.833 103.5,178.5C 103.5,143.5 103.5,108.5 103.5,73.5C 103.5,70.1667 103.5,66.8333 103.5,63.5C 103.5,62.8333 103.5,62.1667 103.5,61.5 Z"/></g>
<g><path style="opacity:1" fill="#040300" d="M 104.5,61.5 C 207.167,61.5 309.833,61.5 412.5,61.5C 412.5,125.5 412.5,189.5 412.5,253.5C 315.833,253.5 219.167,253.5 122.5,253.5C 122.671,250.203 122.005,249.869 120.5,252.5C 115.208,253.495 109.875,253.828 104.5,253.5C 104.5,189.5 104.5,125.5 104.5,61.5 Z"/></g>
<g><path style="opacity:1" fill="#8f7201" d="M 338.5,184.5 C 339.376,184.369 340.043,184.702 340.5,185.5C 338.833,186.833 337.167,188.167 335.5,189.5C 335.167,189.167 334.833,188.833 334.5,188.5C 336.188,187.479 337.521,186.145 338.5,184.5 Z"/></g>
<g><path style="opacity:1" fill="#9e7c00" d="M 312.5,182.5 C 313.222,182.918 313.722,183.584 314,184.5C 314.333,184.167 314.667,183.833 315,183.5C 315.273,185.101 315.773,186.601 316.5,188C 314.112,188.865 312.612,188.032 312,185.5C 311.333,186.167 310.667,186.833 310,187.5C 309.751,185.332 310.584,183.665 312.5,182.5 Z"/></g>
<g><path style="opacity:1" fill="#755d01" d="M 305.5,186.5 C 307.337,186.639 307.67,187.306 306.5,188.5C 305.702,188.043 305.369,187.376 305.5,186.5 Z"/></g>
<g><path style="opacity:1" fill="#725c01" d="M 320.5,186.5 C 323.797,186.329 324.131,186.995 321.5,188.5C 320.702,188.043 320.369,187.376 320.5,186.5 Z"/></g>
<g><path style="opacity:1" fill="#211704" d="M 259.5,173.5 C 259.833,173.5 260.167,173.5 260.5,173.5C 260.5,173.833 260.5,174.167 260.5,174.5C 258.849,177.568 259.515,179.902 262.5,181.5C 260.894,182.359 259.227,182.526 257.5,182C 255.826,183.506 254.826,185.339 254.5,187.5C 251.995,187.98 249.662,188.98 247.5,190.5C 246.818,189.757 246.151,189.091 245.5,188.5C 246.016,186.8 247.016,185.467 248.5,184.5C 249.192,185.025 249.692,185.692 250,186.5C 252.644,181.704 255.81,177.37 259.5,173.5 Z"/></g>
<g><path style="opacity:1" fill="#866601" d="M 231.5,170.5 C 232.404,171.209 232.737,172.209 232.5,173.5C 231.883,173.611 231.383,173.944 231,174.5C 230.728,177.254 230.228,179.921 229.5,182.5C 228.596,183.209 228.263,184.209 228.5,185.5C 228.5,187.167 228.5,188.833 228.5,190.5C 227.186,192.895 227.186,195.395 228.5,198C 227.692,198.308 227.025,198.808 226.5,199.5C 228.396,200.466 230.396,200.799 232.5,200.5C 232.69,198.041 231.69,196.374 229.5,195.5C 230.057,193.765 230.39,192.098 230.5,190.5C 231.496,190.414 232.329,190.748 233,191.5C 233.708,190.619 234.542,189.953 235.5,189.5C 236.964,190.16 238.631,190.493 240.5,190.5C 242.64,190.444 244.306,189.777 245.5,188.5C 246.151,189.091 246.818,189.757 247.5,190.5C 249.662,188.98 251.995,187.98 254.5,187.5C 254.826,185.339 255.826,183.506 257.5,182C 259.227,182.526 260.894,182.359 262.5,181.5C 262.938,181.435 263.272,181.601 263.5,182C 261.937,183.736 260.27,185.236 258.5,186.5C 255.026,188.318 251.693,190.318 248.5,192.5C 249.025,193.192 249.692,193.692 250.5,194C 249.09,194.368 248.09,195.201 247.5,196.5C 250.626,196.618 251.959,198.618 251.5,202.5C 249.058,202.646 248.391,201.813 249.5,200C 248.584,199.626 247.75,199.126 247,198.5C 246.506,200.134 246.34,201.801 246.5,203.5C 245.178,203.33 244.011,203.663 243,204.5C 241.335,202.429 239.835,200.929 238.5,200C 240.164,198.233 241.331,198.733 242,201.5C 243.667,199.167 245.333,196.833 247,194.5C 247.688,193.668 247.521,193.002 246.5,192.5C 243.491,195.675 239.825,197.842 235.5,199C 232.619,201.279 230.619,204.112 229.5,207.5C 228.761,207.631 228.094,207.464 227.5,207C 228.517,205.951 228.684,204.784 228,203.5C 225.031,201.617 224.364,199.284 226,196.5C 226.667,194.5 226.667,192.5 226,190.5C 224.256,191.649 224.089,192.983 225.5,194.5C 222.826,195.672 220.826,194.839 219.5,192C 220.536,190.383 221.703,190.216 223,191.5C 223.692,190.975 224.192,190.308 224.5,189.5C 222.738,188.741 220.738,187.741 218.5,186.5C 218.351,185.448 218.517,184.448 219,183.5C 224.097,188.486 226.93,187.486 227.5,180.5C 226.127,180.343 224.793,180.51 223.5,181C 224.167,181.333 224.833,181.667 225.5,182C 224.069,182.465 222.903,183.299 222,184.5C 221.261,181.898 219.595,180.231 217,179.5C 216.692,180.308 216.192,180.975 215.5,181.5C 210.347,177.727 210.347,176.727 215.5,178.5C 217.055,178.278 218.389,177.611 219.5,176.5C 219.669,177.397 220.002,178.397 220.5,179.5C 222.741,178.871 224.741,177.871 226.5,176.5C 227.167,176.5 227.5,176.167 227.5,175.5C 229.054,174.086 230.388,172.419 231.5,170.5 Z"/></g>
<g><path style="opacity:1" fill="#695000" d="M 206.5,184.5 C 211.8,185.484 211.8,186.484 206.5,187.5C 205.833,187.167 205.167,186.833 204.5,186.5C 205.243,185.818 205.909,185.151 206.5,184.5 Z"/></g>
<g><path style="opacity:1" fill="#5d4605" d="M 171.5,180.5 C 174.671,180.649 177.004,182.149 178.5,185C 177.681,186.319 176.681,187.485 175.5,188.5C 175.12,186.979 174.954,185.313 175,183.5C 174,182.167 173,182.167 172,183.5C 171.517,182.552 171.351,181.552 171.5,180.5 Z"/></g>
<g><path style="opacity:1" fill="#8c7101" d="M 330.5,180.5 C 330.806,182.318 330.806,184.318 330.5,186.5C 329.77,185.066 328.77,183.9 327.5,183C 328.571,182.148 329.571,181.315 330.5,180.5 Z"/></g>
<g><path style="opacity:1" fill="#375566" d="M 269.5,157.5 C 270.404,158.209 270.737,159.209 270.5,160.5C 269.957,160.56 269.624,160.893 269.5,161.5C 270.934,163.22 271.767,165.22 272,167.5C 273.835,170.122 275.668,172.789 277.5,175.5C 276.048,176.94 275.048,178.606 274.5,180.5C 273.791,181.404 272.791,181.737 271.5,181.5C 271.5,182.5 271.5,183.5 271.5,184.5C 272.5,184.5 273.5,184.5 274.5,184.5C 274.631,185.239 274.464,185.906 274,186.5C 273.107,185.289 272.274,185.289 271.5,186.5C 272.325,187.386 273.325,187.719 274.5,187.5C 274.5,188.833 274.5,190.167 274.5,191.5C 272.089,191.863 270.589,190.863 270,188.5C 267.606,189.136 265.106,189.136 262.5,188.5C 261.833,188.5 261.167,188.5 260.5,188.5C 259.167,188.5 258.5,187.833 258.5,186.5C 260.27,185.236 261.937,183.736 263.5,182C 263.272,181.601 262.938,181.435 262.5,181.5C 259.515,179.902 258.849,177.568 260.5,174.5C 261.151,175.091 261.818,175.757 262.5,176.5C 263.622,175.37 264.956,174.703 266.5,174.5C 266.149,176.869 265.982,179.203 266,181.5C 266.71,180.027 267.876,179.36 269.5,179.5C 271.796,179.196 272.129,178.196 270.5,176.5C 271.239,176.631 271.906,176.464 272.5,176C 271.748,175.329 271.414,174.496 271.5,173.5C 271.918,172.778 272.584,172.278 273.5,172C 272.906,171.536 272.239,171.369 271.5,171.5C 271.005,169.518 270.505,167.518 270,165.5C 266.366,167.796 263.2,170.462 260.5,173.5C 260.167,173.5 259.833,173.5 259.5,173.5C 259.167,173.5 258.833,173.5 258.5,173.5C 257.911,171.648 257.244,169.815 256.5,168C 257.833,168 259.167,168 260.5,168C 257.833,166.667 257.833,165.333 260.5,164C 258.565,164.058 256.898,164.891 255.5,166.5C 255.859,164.629 256.859,163.129 258.5,162C 256.699,161.683 256.366,161.016 257.5,160C 259.856,160.003 262.189,160.503 264.5,161.5C 266.786,160.867 268.452,159.534 269.5,157.5 Z"/></g>
<g><path style="opacity:1" fill="#a89f46" d="M 267.5,185.5 C 269.337,185.639 269.67,186.306 268.5,187.5C 267.702,187.043 267.369,186.376 267.5,185.5 Z"/></g>
<g><path style="opacity:1" fill="#715502" d="M 209.5,183.5 C 210.946,182.387 212.613,182.22 214.5,183C 216.664,184.78 217.83,186.947 218,189.5C 217.586,189.043 217.086,188.709 216.5,188.5C 215.38,189.833 214.047,190.333 212.5,190C 213.641,189.259 213.641,188.425 212.5,187.5C 213.025,186.808 213.692,186.308 214.5,186C 213.874,185.25 213.374,184.416 213,183.5C 211.855,184.684 210.688,184.684 209.5,183.5 Z"/></g>
<g><path style="opacity:1" fill="#796826" d="M 274.5,180.5 C 279.846,180.626 279.846,181.959 274.5,184.5C 273.5,184.5 272.5,184.5 271.5,184.5C 271.5,183.5 271.5,182.5 271.5,181.5C 272.791,181.737 273.791,181.404 274.5,180.5 Z"/></g>
<g><path style="opacity:1" fill="#634b00" d="M 204.5,179.5 C 206.972,180.749 207.139,182.415 205,184.5C 204.552,182.776 203.718,182.109 202.5,182.5C 203.193,181.482 203.859,180.482 204.5,179.5 Z"/></g>
<g><path style="opacity:1" fill="#7d6001" d="M 192.5,180.5 C 193.766,181.09 195.099,181.59 196.5,182C 193.729,185.654 192.395,185.154 192.5,180.5 Z"/></g>
<g><path style="opacity:1" fill="#846503" d="M 179.5,176.5 C 184.717,178.662 187.383,182.329 187.5,187.5C 181.726,189.829 181.059,188.495 185.5,183.5C 183.93,183.306 182.43,183.306 181,183.5C 180.383,182.551 180.549,181.718 181.5,181C 178.985,180.061 178.318,178.561 179.5,176.5 Z"/></g>
<g><path style="opacity:1" fill="#735907" d="M 285.5,173.5 C 286.954,174.52 287.287,175.687 286.5,177C 289.768,177.936 292.101,179.936 293.5,183C 292.552,183.483 291.552,183.649 290.5,183.5C 290.911,180.724 290.078,180.057 288,181.5C 286.989,181.108 286.489,180.441 286.5,179.5C 283.876,180.547 283.042,182.213 284,184.5C 282.989,185.337 281.822,185.67 280.5,185.5C 279.463,183.262 279.297,180.929 280,178.5C 280.414,178.957 280.914,179.291 281.5,179.5C 283.316,177.71 284.649,175.71 285.5,173.5 Z"/></g>
<g><path style="opacity:1" fill="#6f5202" d="M 258.5,173.5 C 258.833,173.5 259.167,173.5 259.5,173.5C 255.81,177.37 252.644,181.704 250,186.5C 249.692,185.692 249.192,185.025 248.5,184.5C 247.016,185.467 246.016,186.8 245.5,188.5C 242.416,186.986 242.083,185.153 244.5,183C 244,182.5 243.5,182 243,181.5C 241.656,183.342 240.156,185.008 238.5,186.5C 238.977,187.478 239.643,188.311 240.5,189C 238.773,188.474 237.106,188.641 235.5,189.5C 234.542,189.953 233.708,190.619 233,191.5C 232.329,190.748 231.496,190.414 230.5,190.5C 231.434,188.313 230.767,186.646 228.5,185.5C 228.263,184.209 228.596,183.209 229.5,182.5C 230.007,183.859 231.007,184.859 232.5,185.5C 231.371,187.529 231.871,187.863 234,186.5C 234.465,185.069 235.299,183.903 236.5,183C 235.09,182.632 234.09,181.799 233.5,180.5C 234.967,180.277 236.467,179.944 238,179.5C 238.115,177.893 237.615,176.393 236.5,175C 237.604,173.18 239.104,171.68 241,170.5C 241.492,169.451 241.326,168.451 240.5,167.5C 241.498,164.972 242.331,164.972 243,167.5C 243.718,166.549 244.551,166.383 245.5,167C 244.289,167.893 244.289,168.726 245.5,169.5C 246.451,168.674 247.451,168.508 248.5,169C 247.549,169.718 247.383,170.551 248,171.5C 250.03,170.953 252.197,169.953 254.5,168.5C 255.105,169.587 254.772,170.754 253.5,172C 254.775,174.324 256.442,174.824 258.5,173.5 Z"/></g>
<g><path style="opacity:1" fill="#13110d" d="M 251.5,173.5 C 253.703,174.052 254.536,175.385 254,177.5C 252.478,180.224 250.311,182.224 247.5,183.5C 247.167,183.333 246.833,183.167 246.5,183C 249.044,181.437 249.044,179.937 246.5,178.5C 247.716,177.904 249.049,177.737 250.5,178C 249.419,176.289 249.752,174.789 251.5,173.5 Z"/></g>
<g><path style="opacity:1" fill="#816400" d="M 293.5,177.5 C 294.386,176.224 295.386,176.224 296.5,177.5C 295.575,178.562 294.575,178.562 293.5,177.5 Z"/></g>
<g><path style="opacity:1" fill="#d1ae24" d="M 270.5,176.5 C 272.129,178.196 271.796,179.196 269.5,179.5C 266.662,177.694 266.995,176.694 270.5,176.5 Z"/></g>
<g><path style="opacity:1" fill="#6e7042" d="M 266.5,174.5 C 268.153,174.66 269.486,175.326 270.5,176.5C 266.995,176.694 266.662,177.694 269.5,179.5C 267.876,179.36 266.71,180.027 266,181.5C 265.982,179.203 266.149,176.869 266.5,174.5 Z"/></g>
<g><path style="opacity:1" fill="#132430" d="M 271.5,171.5 C 266.371,171.719 266.371,172.386 271.5,173.5C 271.414,174.496 271.748,175.329 272.5,176C 271.906,176.464 271.239,176.631 270.5,176.5C 269.486,175.326 268.153,174.66 266.5,174.5C 264.956,174.703 263.622,175.37 262.5,176.5C 261.818,175.757 261.151,175.091 260.5,174.5C 260.5,174.167 260.5,173.833 260.5,173.5C 263.2,170.462 266.366,167.796 270,165.5C 270.505,167.518 271.005,169.518 271.5,171.5 Z"/></g>
<g><path style="opacity:1" fill="#181101" d="M 242.5,170.5 C 243.5,170.5 244.5,170.5 245.5,170.5C 245.152,174.194 243.485,177.194 240.5,179.5C 239.756,178.009 239.09,176.509 238.5,175C 239.325,173.312 240.325,173.145 241.5,174.5C 242.429,173.311 242.762,171.978 242.5,170.5 Z"/></g>
<g><path style="opacity:1" fill="#674f03" d="M 317.5,169.5 C 320.662,169.911 323.662,170.745 326.5,172C 324.866,172.494 323.199,172.66 321.5,172.5C 321.719,173.675 321.386,174.675 320.5,175.5C 318.018,174.103 315.352,173.269 312.5,173C 313.833,172.667 315.167,172.333 316.5,172C 317.252,171.329 317.586,170.496 317.5,169.5 Z"/></g>
<g><path style="opacity:1" fill="#5586a2" d="M 270.5,160.5 C 271.873,160.343 273.207,160.51 274.5,161C 274.501,162.399 274.835,163.899 275.5,165.5C 275.957,166.298 276.624,166.631 277.5,166.5C 279.062,166.733 280.395,167.4 281.5,168.5C 282.833,169.833 284.167,171.167 285.5,172.5C 285.5,172.833 285.5,173.167 285.5,173.5C 284.649,175.71 283.316,177.71 281.5,179.5C 280.914,179.291 280.414,178.957 280,178.5C 279.297,180.929 279.463,183.262 280.5,185.5C 280.81,187.144 281.81,188.144 283.5,188.5C 283.119,189.931 282.119,190.764 280.5,191C 281.056,191.383 281.389,191.883 281.5,192.5C 280.764,194.229 279.43,195.229 277.5,195.5C 277.611,194.883 277.944,194.383 278.5,194C 276.187,193.338 273.854,192.838 271.5,192.5C 269.833,192.5 268.167,192.5 266.5,192.5C 264.703,191.607 263.37,190.274 262.5,188.5C 265.106,189.136 267.606,189.136 270,188.5C 270.589,190.863 272.089,191.863 274.5,191.5C 274.5,190.167 274.5,188.833 274.5,187.5C 273.325,187.719 272.325,187.386 271.5,186.5C 272.274,185.289 273.107,185.289 274,186.5C 274.464,185.906 274.631,185.239 274.5,184.5C 279.846,181.959 279.846,180.626 274.5,180.5C 275.048,178.606 276.048,176.94 277.5,175.5C 275.668,172.789 273.835,170.122 272,167.5C 271.767,165.22 270.934,163.22 269.5,161.5C 269.624,160.893 269.957,160.56 270.5,160.5 Z"/></g>
<g><path style="opacity:1" fill="#b29111" d="M 271.5,171.5 C 272.239,171.369 272.906,171.536 273.5,172C 272.584,172.278 271.918,172.778 271.5,173.5C 266.371,172.386 266.371,171.719 271.5,171.5 Z"/></g>
<g><path style="opacity:1" fill="#9b7900" d="M 199.5,172.5 C 194.769,173.926 194.436,173.26 198.5,170.5C 199.298,170.957 199.631,171.624 199.5,172.5 Z"/></g>
<g><path style="opacity:1" fill="#9e7f00" d="M 346.5,170.5 C 347.043,170.56 347.376,170.893 347.5,171.5C 346.52,172.981 345.353,174.315 344,175.5C 343.833,175 343.667,174.5 343.5,174C 344.544,172.826 345.544,171.659 346.5,170.5 Z"/></g>
<g><path style="opacity:1" fill="#766100" d="M 300.5,170.5 C 302.337,170.639 302.67,171.306 301.5,172.5C 300.702,172.043 300.369,171.376 300.5,170.5 Z"/></g>
<g><path style="opacity:1" fill="#594404" d="M 199.5,172.5 C 200.239,172.631 200.906,172.464 201.5,172C 201.057,170.482 201.724,169.315 203.5,168.5C 204.731,169.651 204.731,170.817 203.5,172C 207.998,173.172 209.832,176.006 209,180.5C 207.763,178.896 206.597,177.229 205.5,175.5C 203.533,176.682 202.2,176.015 201.5,173.5C 201.002,174.603 200.669,175.603 200.5,176.5C 199.571,175.311 199.238,173.978 199.5,172.5 Z"/></g>
<g><path style="opacity:1" fill="#907300" d="M 295.5,167.5 C 296.239,167.369 296.906,167.536 297.5,168C 296.547,169.955 295.213,171.622 293.5,173C 293.957,173.414 294.291,173.914 294.5,174.5C 292.796,175.823 291.463,175.49 290.5,173.5C 291.952,171.304 293.619,169.304 295.5,167.5 Z"/></g>
<g><path style="opacity:1" fill="#ab8900" d="M 309.5,166.5 C 309.322,172.724 307.989,173.057 305.5,167.5C 306.959,167.567 308.292,167.234 309.5,166.5 Z"/></g>
<g><path style="opacity:1" fill="#18140c" d="M 226.5,156.5 C 228.403,156.796 230.07,157.463 231.5,158.5C 231.324,162.569 231.324,166.569 231.5,170.5C 230.388,172.419 229.054,174.086 227.5,175.5C 226.923,169.152 226.59,162.818 226.5,156.5 Z"/></g>
<g><path style="opacity:1" fill="#7b5d01" d="M 218.5,156.5 C 220.525,158.726 221.191,161.226 220.5,164C 221.5,164.833 222.5,165.667 223.5,166.5C 222.675,167.386 221.675,167.719 220.5,167.5C 219.996,171.335 218.996,171.335 217.5,167.5C 217.167,168 216.833,168.5 216.5,169C 217.34,170.767 218.673,172.101 220.5,173C 219.397,175.969 218.064,176.136 216.5,173.5C 216.089,174.262 215.923,175.262 216,176.5C 214.983,174.624 214.149,172.624 213.5,170.5C 212.41,171.391 212.41,172.391 213.5,173.5C 212.726,174.711 211.893,174.711 211,173.5C 211.379,171.925 211.212,170.425 210.5,169C 213.167,167.333 215.833,165.667 218.5,164C 217.167,163.333 215.833,162.667 214.5,162C 215.056,161.617 215.389,161.117 215.5,160.5C 216.789,159.363 217.789,158.03 218.5,156.5 Z"/></g>
<g><path style="opacity:1" fill="#553f05" d="M 233.5,159.5 C 235.05,158.559 236.716,157.893 238.5,157.5C 238.826,161.684 237.159,164.851 233.5,167C 234.079,169.054 234.412,171.054 234.5,173C 233.906,173.464 233.239,173.631 232.5,173.5C 232.737,172.209 232.404,171.209 231.5,170.5C 231.324,166.569 231.324,162.569 231.5,158.5C 232.925,156.969 233.591,157.302 233.5,159.5 Z"/></g>
<g><path style="opacity:1" fill="#a98600" d="M 338.5,166.5 C 339.234,167.708 339.567,169.041 339.5,170.5C 337.946,169.086 336.612,167.419 335.5,165.5C 335.667,165.167 335.833,164.833 336,164.5C 336.708,165.381 337.542,166.047 338.5,166.5 Z"/></g>
<g><path style="opacity:1" fill="#826601" d="M 178.5,163.5 C 179.873,163.343 181.207,163.51 182.5,164C 180.361,164.037 178.528,165.204 177,167.5C 176.5,167.167 176,166.833 175.5,166.5C 176.34,165.265 177.34,164.265 178.5,163.5 Z"/></g>
<g><path style="opacity:1" fill="#614b03" d="M 347.5,159.5 C 348.167,159.833 348.833,160.167 349.5,160.5C 347.512,162.465 346.012,164.798 345,167.5C 344.833,166.667 344.667,165.833 344.5,165C 345.562,163.159 346.562,161.326 347.5,159.5 Z"/></g>
<g><path style="opacity:1" fill="#5f4702" d="M 224.5,156.5 C 225.167,156.5 225.833,156.5 226.5,156.5C 226.59,162.818 226.923,169.152 227.5,175.5C 227.5,176.167 227.167,176.5 226.5,176.5C 226.149,173.762 225.482,171.096 224.5,168.5C 226.087,166.554 225.754,165.054 223.5,164C 224.672,163.581 225.672,162.915 226.5,162C 225.551,161.383 224.718,161.549 224,162.5C 223.82,160.512 223.986,158.512 224.5,156.5 Z"/></g>
<g><path style="opacity:1" fill="#775a00" d="M 208.5,157.5 C 209.774,158.189 209.774,159.023 208.5,160C 209.563,161.188 210.897,161.688 212.5,161.5C 213.21,164.86 211.876,166.693 208.5,167C 209.747,168.494 209.747,169.994 208.5,171.5C 206.876,170.131 206.376,168.464 207,166.5C 208.609,165.853 210.109,165.02 211.5,164C 206.76,163.17 205.76,161.004 208.5,157.5 Z"/></g>
<g><path style="opacity:1" fill="#685202" d="M 314.5,159.5 C 314.938,159.435 315.272,159.601 315.5,160C 313.032,162.228 311.865,165.062 312,168.5C 311.292,167.619 310.458,166.953 309.5,166.5C 309.733,164.938 310.4,163.605 311.5,162.5C 311.563,159.805 312.563,158.805 314.5,159.5 Z"/></g>
<g><path style="opacity:1" fill="#bd9700" d="M 350.5,162.5 C 352.048,162.821 352.715,163.821 352.5,165.5C 349.752,165.598 349.086,164.598 350.5,162.5 Z"/></g>
<g><path style="opacity:1" fill="#876900" d="M 309.5,161.5 C 307.741,162.871 305.741,163.871 303.5,164.5C 302.566,162.905 302.566,161.239 303.5,159.5C 304.75,159.577 305.583,160.244 306,161.5C 307.426,157.569 308.593,157.569 309.5,161.5 Z"/></g>
<g><path style="opacity:1" fill="#705601" d="M 203.5,160.5 C 205.134,161.207 206.468,162.373 207.5,164C 206.07,165.44 204.403,165.774 202.5,165C 203.38,163.644 203.714,162.144 203.5,160.5 Z"/></g>
<g><path style="opacity:1" fill="#100901" d="M 233.5,159.5 C 234.528,160.074 235.528,160.407 236.5,160.5C 233.575,165.571 232.575,165.238 233.5,159.5 Z"/></g>
<g><path style="opacity:1" fill="#917200" d="M 197.5,160.5 C 198.774,161.189 198.774,162.023 197.5,163C 195.854,164.401 194.187,164.568 192.5,163.5C 194.36,162.675 196.026,161.675 197.5,160.5 Z"/></g>
<g><path style="opacity:1" fill="#6b5405" d="M 288.5,159.5 C 288.5,160.833 288.5,162.167 288.5,163.5C 290.292,163.634 291.958,163.301 293.5,162.5C 293.489,164.017 292.823,165.184 291.5,166C 292.167,166.333 292.833,166.667 293.5,167C 291.91,168.046 290.41,169.213 289,170.5C 290.114,167.337 289.281,164.67 286.5,162.5C 285.92,164.637 284.92,166.47 283.5,168C 284.047,168.925 284.713,169.758 285.5,170.5C 286.396,169.494 287.062,169.494 287.5,170.5C 286.757,171.182 286.091,171.849 285.5,172.5C 284.167,171.167 282.833,169.833 281.5,168.5C 283.351,167.134 283.684,165.467 282.5,163.5C 284.536,162.115 286.536,160.782 288.5,159.5 Z"/></g>
<g><path style="opacity:1" fill="#151007" d="M 238.5,157.5 C 239.5,157.5 240.5,157.5 241.5,157.5C 241.574,162.908 244.241,166.241 249.5,167.5C 251.657,166.874 253.657,166.54 255.5,166.5C 256.898,164.891 258.565,164.058 260.5,164C 257.833,165.333 257.833,166.667 260.5,168C 259.167,168 257.833,168 256.5,168C 257.244,169.815 257.911,171.648 258.5,173.5C 256.442,174.824 254.775,174.324 253.5,172C 254.772,170.754 255.105,169.587 254.5,168.5C 252.197,169.953 250.03,170.953 248,171.5C 247.383,170.551 247.549,169.718 248.5,169C 247.451,168.508 246.451,168.674 245.5,169.5C 244.289,168.726 244.289,167.893 245.5,167C 244.551,166.383 243.718,166.549 243,167.5C 242.331,164.972 241.498,164.972 240.5,167.5C 241.326,168.451 241.492,169.451 241,170.5C 239.104,171.68 237.604,173.18 236.5,175C 237.615,176.393 238.115,177.893 238,179.5C 236.467,179.944 234.967,180.277 233.5,180.5C 234.09,181.799 235.09,182.632 236.5,183C 235.299,183.903 234.465,185.069 234,186.5C 231.871,187.863 231.371,187.529 232.5,185.5C 231.007,184.859 230.007,183.859 229.5,182.5C 230.228,179.921 230.728,177.254 231,174.5C 231.383,173.944 231.883,173.611 232.5,173.5C 233.239,173.631 233.906,173.464 234.5,173C 234.412,171.054 234.079,169.054 233.5,167C 237.159,164.851 238.826,161.684 238.5,157.5 Z"/></g>
<g><path style="opacity:1" fill="#ddb100" d="M 347.5,159.5 C 348.5,158.167 349.5,158.167 350.5,159.5C 349.833,159.5 349.5,159.833 349.5,160.5C 348.833,160.167 348.167,159.833 347.5,159.5 Z"/></g>
<g><path style="opacity:1" fill="#7d6414" d="M 271.5,152.5 C 271.833,152.5 272.167,152.5 272.5,152.5C 274.062,154.372 275.062,156.705 275.5,159.5C 276.518,160.193 277.518,160.859 278.5,161.5C 279.223,163.164 278.89,164.831 277.5,166.5C 276.624,166.631 275.957,166.298 275.5,165.5C 274.835,163.899 274.501,162.399 274.5,161C 273.207,160.51 271.873,160.343 270.5,160.5C 270.737,159.209 270.404,158.209 269.5,157.5C 269.831,155.678 270.498,154.011 271.5,152.5 Z"/></g>
<g><path style="opacity:1" fill="#3f3306" d="M 350.5,159.5 C 349.5,158.167 348.5,158.167 347.5,159.5C 346.957,159.44 346.624,159.107 346.5,158.5C 347.689,157.571 349.022,157.238 350.5,157.5C 350.281,156.325 350.614,155.325 351.5,154.5C 354.219,157.087 353.886,158.754 350.5,159.5 Z"/></g>
<g><path style="opacity:1" fill="#8b6a01" d="M 368.5,148.5 C 370.125,151.65 370.458,154.983 369.5,158.5C 368.167,157.833 367.167,156.833 366.5,155.5C 367.577,153.271 368.244,150.937 368.5,148.5 Z"/></g>
<g><path style="opacity:1" fill="#6f5803" d="M 339.5,170.5 C 339.567,169.041 339.234,167.708 338.5,166.5C 338.461,165.417 338.127,164.417 337.5,163.5C 341.865,159.117 341.198,155.617 335.5,153C 337.534,151.795 339.534,151.628 341.5,152.5C 340.167,155.167 340.833,155.833 343.5,154.5C 344.711,155.274 344.711,156.107 343.5,157C 344.167,157.333 344.833,157.667 345.5,158C 343.092,159.115 341.092,160.782 339.5,163C 340.308,163.308 340.975,163.808 341.5,164.5C 340.95,166.657 340.283,168.657 339.5,170.5 Z"/></g>
<g><path style="opacity:1" fill="#8c6b00" d="M 218.5,156.5 C 217.789,158.03 216.789,159.363 215.5,160.5C 213.282,158.359 210.949,156.192 208.5,154C 210.09,152.954 211.59,151.787 213,150.5C 213.617,151.449 213.451,152.282 212.5,153C 213.549,153.492 214.549,153.326 215.5,152.5C 216.711,153.274 216.711,154.107 215.5,155C 216.737,155.232 217.737,155.732 218.5,156.5 Z"/></g>
<g><path style="opacity:1" fill="#907201" d="M 329.5,152.5 C 330.643,152.908 331.643,153.575 332.5,154.5C 330.604,155.639 329.604,154.973 329.5,152.5 Z"/></g>
<g><path style="opacity:1" fill="#ae8c00" d="M 314.5,149.5 C 314.81,150.738 315.31,150.738 316,149.5C 316.667,150.833 316.667,152.167 316,153.5C 314.841,152.434 314.008,152.767 313.5,154.5C 312.533,155.806 311.199,156.473 309.5,156.5C 309.167,153.5 310.5,152.167 313.5,152.5C 313.263,151.209 313.596,150.209 314.5,149.5 Z"/></g>
<g><path style="opacity:1" fill="#ad8800" d="M 285.5,132.5 C 285.5,133.167 285.833,133.5 286.5,133.5C 286.351,134.552 286.517,135.552 287,136.5C 287.333,136.167 287.667,135.833 288,135.5C 288.308,136.308 288.808,136.975 289.5,137.5C 292.139,135.648 294.805,134.982 297.5,135.5C 294.997,136.759 292.497,138.092 290,139.5C 289.228,139.355 288.561,139.022 288,138.5C 287.004,140.744 285.504,142.577 283.5,144C 283.957,144.414 284.291,144.914 284.5,145.5C 283.24,146.382 282.074,147.382 281,148.5C 280.149,152.979 279.316,157.312 278.5,161.5C 277.518,160.859 276.518,160.193 275.5,159.5C 275.062,156.705 274.062,154.372 272.5,152.5C 270.822,150.148 268.489,148.814 265.5,148.5C 266.531,147.751 267.698,147.085 269,146.5C 269.333,147.167 269.667,147.833 270,148.5C 270.667,147.167 271.333,147.167 272,148.5C 272.464,147.906 272.631,147.239 272.5,146.5C 273.117,146.611 273.617,146.944 274,147.5C 274.39,144.896 275.224,142.562 276.5,140.5C 276.302,142.575 276.135,144.575 276,146.5C 279.309,143.007 279.809,139.341 277.5,135.5C 276.5,134.833 275.5,134.167 274.5,133.5C 275.531,132.751 276.698,132.085 278,131.5C 280.381,132.435 282.881,132.768 285.5,132.5 Z"/></g>
<g><path style="opacity:1" fill="#7e6000" d="M 205.5,153.5 C 207.337,153.639 207.67,154.306 206.5,155.5C 201.586,156.869 201.253,156.203 205.5,153.5 Z"/></g>
<g><path style="opacity:1" fill="#6e5301" d="M 201.5,151.5 C 203.885,152.867 203.552,154.201 200.5,155.5C 200.167,155.333 199.833,155.167 199.5,155C 200.305,153.887 200.972,152.721 201.5,151.5 Z"/></g>
<g><path style="opacity:1" fill="#9a8f42" d="M 224.5,155.5 C 224.5,154.5 224.5,153.5 224.5,152.5C 228.357,151.986 228.357,152.986 224.5,155.5 Z"/></g>
<g><path style="opacity:1" fill="#6d540d" d="M 223.5,151.5 C 223.5,151.833 223.5,152.167 223.5,152.5C 221.694,155.338 220.694,155.005 220.5,151.5C 221.5,151.5 222.5,151.5 223.5,151.5 Z"/></g>
<g><path style="opacity:1" fill="#5a4704" d="M 347.5,151.5 C 347.631,152.376 347.298,153.043 346.5,153.5C 344.861,152.084 344.027,150.417 344,148.5C 345.359,149.365 346.526,150.365 347.5,151.5 Z"/></g>
<g><path style="opacity:1" fill="#2d1f04" d="M 265.5,148.5 C 268.489,148.814 270.822,150.148 272.5,152.5C 272.167,152.5 271.833,152.5 271.5,152.5C 269.416,153.248 267.416,153.248 265.5,152.5C 264.614,153.325 264.281,154.325 264.5,155.5C 263.07,155.421 261.736,155.754 260.5,156.5C 259.702,156.043 259.369,155.376 259.5,154.5C 260.833,154.5 262.167,154.5 263.5,154.5C 263.595,152.214 264.262,150.214 265.5,148.5 Z"/></g>
<g><path style="opacity:1" fill="#695101" d="M 347.5,151.5 C 347.506,147.985 346.006,146.652 343,147.5C 341.941,147.37 341.108,146.87 340.5,146C 342.049,146.522 343.549,146.355 345,145.5C 347.038,147.705 349.538,149.205 352.5,150C 351.333,150.5 350.5,151.333 350,152.5C 349.329,151.748 348.496,151.414 347.5,151.5 Z"/></g>
<g><path style="opacity:1" fill="#795b03" d="M 272.5,146.5 C 272.631,147.239 272.464,147.906 272,148.5C 271.333,147.167 270.667,147.167 270,148.5C 269.667,147.833 269.333,147.167 269,146.5C 267.698,147.085 266.531,147.751 265.5,148.5C 264.262,150.214 263.595,152.214 263.5,154.5C 262.167,154.5 260.833,154.5 259.5,154.5C 257.302,154.591 256.969,153.925 258.5,152.5C 260.625,150.297 263.291,147.964 266.5,145.5C 268.766,145.859 270.599,145.192 272,143.5C 272.483,144.448 272.649,145.448 272.5,146.5 Z"/></g>
<g><path style="opacity:1" fill="#785b00" d="M 204.5,146.5 C 206.337,146.639 206.67,147.306 205.5,148.5C 204.702,148.043 204.369,147.376 204.5,146.5 Z"/></g>
<g><path style="opacity:1" fill="#9c7f01" d="M 361.5,141.5 C 363.114,143.456 364.781,145.456 366.5,147.5C 364.328,148.205 362.328,149.205 360.5,150.5C 360.167,150.167 359.833,149.833 359.5,149.5C 360.833,148.5 362.167,147.5 363.5,146.5C 362.05,145.15 361.383,143.484 361.5,141.5 Z"/></g>
<g><path style="opacity:1" fill="#a28000" d="M 222.5,139.5 C 225.002,141.61 225.002,143.61 222.5,145.5C 212.651,151.154 211.485,149.821 219,141.5C 219.249,142.624 219.749,143.624 220.5,144.5C 221.17,142.709 221.837,141.042 222.5,139.5 Z"/></g>
<g><path style="opacity:1" fill="#d5af00" d="M 351.5,142.5 C 353.337,142.639 353.67,143.306 352.5,144.5C 351.702,144.043 351.369,143.376 351.5,142.5 Z"/></g>
<g><path style="opacity:1" fill="#5a460d" d="M 224.5,136.5 C 224.833,136.5 225.167,136.5 225.5,136.5C 225.427,138.027 226.094,139.027 227.5,139.5C 226.167,140.833 226.167,142.167 227.5,143.5C 225.9,145.703 224.567,148.036 223.5,150.5C 222.761,150.631 222.094,150.464 221.5,150C 223.548,148.774 223.881,147.274 222.5,145.5C 225.002,143.61 225.002,141.61 222.5,139.5C 223.167,138.5 223.833,137.5 224.5,136.5 Z"/></g>
<g><path style="opacity:1" fill="#1a1100" d="M 277.5,135.5 C 279.809,139.341 279.309,143.007 276,146.5C 276.135,144.575 276.302,142.575 276.5,140.5C 276.167,139.833 275.833,139.167 275.5,138.5C 275.932,137.29 276.599,136.29 277.5,135.5 Z"/></g>
<g><path style="opacity:1" fill="#3e300d" d="M 273.5,138.5 C 273.013,139.473 272.513,140.473 272,141.5C 269.689,142.397 267.856,143.73 266.5,145.5C 263.291,147.964 260.625,150.297 258.5,152.5C 258.389,151.883 258.056,151.383 257.5,151C 258.973,150.29 259.64,149.124 259.5,147.5C 263.262,146.738 264.262,144.571 262.5,141C 263.056,139.989 263.722,139.156 264.5,138.5C 266.961,139.974 269.294,139.807 271.5,138C 269.494,137.917 268.494,137.417 268.5,136.5C 270.782,135.61 273.115,135.444 275.5,136C 274.619,136.708 273.953,137.542 273.5,138.5 Z"/></g>
<g><path style="opacity:1" fill="#436d84" d="M 242.5,118.5 C 242.833,118.5 243.167,118.5 243.5,118.5C 243.5,118.833 243.5,119.167 243.5,119.5C 242.482,121.352 241.149,123.019 239.5,124.5C 239.833,124.833 240.167,125.167 240.5,125.5C 242.185,124.047 243.851,122.714 245.5,121.5C 245.5,121.833 245.5,122.167 245.5,122.5C 245.325,124.621 245.659,126.621 246.5,128.5C 244.974,129.105 243.974,130.271 243.5,132C 244,132.5 244.5,133 245,133.5C 245.2,131.68 246.034,130.347 247.5,129.5C 248.306,130.728 249.306,131.728 250.5,132.5C 250.881,133.931 251.881,134.764 253.5,135C 252.288,136.107 252.621,136.607 254.5,136.5C 255.574,138.216 257.241,139.216 259.5,139.5C 260.736,138.754 262.07,138.421 263.5,138.5C 263.833,138.5 264.167,138.5 264.5,138.5C 263.722,139.156 263.056,139.989 262.5,141C 264.262,144.571 263.262,146.738 259.5,147.5C 259.64,149.124 258.973,150.29 257.5,151C 258.056,151.383 258.389,151.883 258.5,152.5C 256.969,153.925 257.302,154.591 259.5,154.5C 259.369,155.376 259.702,156.043 260.5,156.5C 261.736,155.754 263.07,155.421 264.5,155.5C 264.281,154.325 264.614,153.325 265.5,152.5C 267.416,153.248 269.416,153.248 271.5,152.5C 270.498,154.011 269.831,155.678 269.5,157.5C 268.452,159.534 266.786,160.867 264.5,161.5C 262.189,160.503 259.856,160.003 257.5,160C 256.366,161.016 256.699,161.683 258.5,162C 256.859,163.129 255.859,164.629 255.5,166.5C 253.657,166.54 251.657,166.874 249.5,167.5C 244.241,166.241 241.574,162.908 241.5,157.5C 240.5,157.5 239.5,157.5 238.5,157.5C 236.716,157.893 235.05,158.559 233.5,159.5C 233.591,157.302 232.925,156.969 231.5,158.5C 230.07,157.463 228.403,156.796 226.5,156.5C 225.833,156.5 225.167,156.5 224.5,156.5C 224.5,156.167 224.5,155.833 224.5,155.5C 228.357,152.986 228.357,151.986 224.5,152.5C 224.167,152.5 223.833,152.5 223.5,152.5C 223.5,152.167 223.5,151.833 223.5,151.5C 223.5,151.167 223.5,150.833 223.5,150.5C 224.567,148.036 225.9,145.703 227.5,143.5C 229.203,144.66 229.869,143.993 229.5,141.5C 230.167,141.167 230.833,140.833 231.5,140.5C 235.5,139.833 235.5,139.167 231.5,138.5C 231.5,137.167 230.833,136.5 229.5,136.5C 229.527,134.801 230.194,133.467 231.5,132.5C 231.5,132.167 231.5,131.833 231.5,131.5C 232.222,131.082 232.722,130.416 233,129.5C 236.404,130.821 239.571,130.321 242.5,128C 239.354,128.547 236.354,128.381 233.5,127.5C 234.401,126.71 235.068,125.71 235.5,124.5C 237.179,123 238.512,121.167 239.5,119C 240.448,118.517 241.448,118.351 242.5,118.5 Z"/></g>
<g><path style="opacity:1" fill="#958e3e" d="M 247.5,152.5 C 249.337,152.639 249.67,153.306 248.5,154.5C 247.702,154.043 247.369,153.376 247.5,152.5 Z"/></g>
<g><path style="opacity:1" fill="#1c2a31" d="M 231.5,144.5 C 233.963,146.142 236.463,147.809 239,149.5C 240.584,149.012 241.751,148.012 242.5,146.5C 244.408,148.385 246.408,149.051 248.5,148.5C 247.252,150.459 245.585,151.959 243.5,153C 243.833,153.333 244.167,153.667 244.5,154C 242.453,156.766 240.12,157.099 237.5,155C 238.93,153.12 238.596,151.62 236.5,150.5C 235.319,151.515 234.319,152.681 233.5,154C 233.905,154.945 234.572,155.612 235.5,156C 229.356,156.225 228.356,154.225 232.5,150C 232.018,148.992 231.852,147.825 232,146.5C 226.279,147.705 226.113,147.039 231.5,144.5 Z"/></g>
<g><path style="opacity:1" fill="#c9a10e" d="M 227.5,139.5 C 228.167,140.167 228.833,140.833 229.5,141.5C 229.869,143.993 229.203,144.66 227.5,143.5C 226.167,142.167 226.167,140.833 227.5,139.5 Z"/></g>
<g><path style="opacity:1" fill="#947500" d="M 211.5,138.5 C 213.398,139.089 215.398,139.256 217.5,139C 214.649,141.214 211.315,142.38 207.5,142.5C 206.833,142.167 206.167,141.833 205.5,141.5C 207.745,140.792 209.745,139.792 211.5,138.5 Z"/></g>
<g><path style="opacity:1" fill="#856800" d="M 330.5,138.5 C 331.552,138.351 332.552,138.517 333.5,139C 332.069,139.465 330.903,140.299 330,141.5C 329.53,140.423 329.697,139.423 330.5,138.5 Z"/></g>
<g><path style="opacity:1" fill="#c79e00" d="M 273.5,138.5 C 274.167,138.5 274.833,138.5 275.5,138.5C 275.833,139.167 276.167,139.833 276.5,140.5C 275.224,142.562 274.39,144.896 274,147.5C 273.617,146.944 273.117,146.611 272.5,146.5C 272.649,145.448 272.483,144.448 272,143.5C 270.599,145.192 268.766,145.859 266.5,145.5C 267.856,143.73 269.689,142.397 272,141.5C 272.513,140.473 273.013,139.473 273.5,138.5 Z"/></g>
<g><path style="opacity:1" fill="#ae9734" d="M 231.5,138.5 C 235.5,139.167 235.5,139.833 231.5,140.5C 231.5,139.833 231.5,139.167 231.5,138.5 Z"/></g>
<g><path style="opacity:1" fill="#1e1603" d="M 225.5,136.5 C 226.833,136.5 228.167,136.5 229.5,136.5C 230.833,136.5 231.5,137.167 231.5,138.5C 231.5,139.167 231.5,139.833 231.5,140.5C 230.833,140.833 230.167,141.167 229.5,141.5C 228.833,140.833 228.167,140.167 227.5,139.5C 226.094,139.027 225.427,138.027 225.5,136.5 Z"/></g>
<g><path style="opacity:1" fill="#8b6e00" d="M 319.5,138.5 C 320.528,139.074 321.528,139.407 322.5,139.5C 322.121,141.213 321.121,142.213 319.5,142.5C 318.442,140.251 317.109,138.085 315.5,136C 316.355,134.549 316.522,133.049 316,131.5C 316.903,132.701 318.069,133.535 319.5,134C 317.123,135.47 317.123,136.97 319.5,138.5 Z"/></g>
<g><path style="opacity:1" fill="#ba9400" d="M 266.5,131.5 C 266.196,132.15 265.863,132.817 265.5,133.5C 266.993,134.141 267.993,135.141 268.5,136.5C 268.494,137.417 269.494,137.917 271.5,138C 269.294,139.807 266.961,139.974 264.5,138.5C 264.167,138.5 263.833,138.5 263.5,138.5C 260.894,137.15 260.894,135.65 263.5,134C 262.181,133.805 260.847,133.972 259.5,134.5C 258.833,134.5 258.167,134.5 257.5,134.5C 256.494,133.604 256.494,132.938 257.5,132.5C 259.923,133.356 262.089,132.689 264,130.5C 264.671,131.252 265.504,131.586 266.5,131.5 Z"/></g>
<g><path style="opacity:1" fill="#886d16" d="M 246.5,135.5 C 248.636,136.719 250.969,137.552 253.5,138C 251.238,138.642 249.071,139.475 247,140.5C 246.5,139.333 245.667,138.5 244.5,138C 245.381,137.292 246.047,136.458 246.5,135.5 Z"/></g>
<g><path style="opacity:1" fill="#9d7e0e" d="M 229.5,136.5 C 230.833,136.5 231.5,137.167 231.5,138.5C 230.167,138.5 229.5,137.833 229.5,136.5 Z"/></g>
<g><path style="opacity:1" fill="#715a00" d="M 224.5,136.5 C 218.498,137.958 218.165,137.292 223.5,134.5C 224.298,134.957 224.631,135.624 224.5,136.5 Z"/></g>
<g><path style="opacity:1" fill="#7d6007" d="M 263.5,138.5 C 262.07,138.421 260.736,138.754 259.5,139.5C 257.241,139.216 255.574,138.216 254.5,136.5C 257.09,138.255 258.757,137.588 259.5,134.5C 260.847,133.972 262.181,133.805 263.5,134C 260.894,135.65 260.894,137.15 263.5,138.5 Z"/></g>
<g><path style="opacity:1" fill="#140d00" d="M 257.5,134.5 C 258.167,134.5 258.833,134.5 259.5,134.5C 258.757,137.588 257.09,138.255 254.5,136.5C 254.973,135.094 255.973,134.427 257.5,134.5 Z"/></g>
<g><path style="opacity:1" fill="#5b4805" d="M 325.5,134.5 C 326.492,134.672 327.158,134.338 327.5,133.5C 327.783,132.711 328.283,132.044 329,131.5C 331.28,132.086 333.447,132.92 335.5,134C 333.321,135.987 331.488,135.82 330,133.5C 329.241,135.635 327.741,136.968 325.5,137.5C 324.438,136.575 324.438,135.575 325.5,134.5 Z"/></g>
<g><path style="opacity:1" fill="#896a00" d="M 271.5,124.5 C 272.791,124.263 273.791,124.596 274.5,125.5C 273.394,126.73 272.394,127.896 271.5,129C 271.957,129.414 272.291,129.914 272.5,130.5C 268.614,133.093 269.281,134.093 274.5,133.5C 275.5,134.167 276.5,134.833 277.5,135.5C 276.599,136.29 275.932,137.29 275.5,138.5C 274.833,138.5 274.167,138.5 273.5,138.5C 273.953,137.542 274.619,136.708 275.5,136C 273.115,135.444 270.782,135.61 268.5,136.5C 267.993,135.141 266.993,134.141 265.5,133.5C 265.863,132.817 266.196,132.15 266.5,131.5C 267.222,131.918 267.722,132.584 268,133.5C 268.374,132.584 268.874,131.75 269.5,131C 265.633,129.013 265.633,128.513 269.5,129.5C 270.95,128.15 271.617,126.484 271.5,124.5 Z"/></g>
<g><path style="opacity:1" fill="#8a8546" d="M 233.5,132.5 C 235.604,132.201 237.604,132.534 239.5,133.5C 240.518,134.852 241.851,135.852 243.5,136.5C 242.672,137.415 241.672,138.081 240.5,138.5C 240.511,137.559 240.011,136.892 239,136.5C 238.127,136.735 237.293,137.069 236.5,137.5C 235.289,136.726 235.289,135.893 236.5,135C 235.167,134.667 233.833,134.333 232.5,134C 233.056,133.617 233.389,133.117 233.5,132.5 Z"/></g>
<g><path style="opacity:1" fill="#715702" d="M 231.5,132.5 C 230.194,133.467 229.527,134.801 229.5,136.5C 228.167,136.5 226.833,136.5 225.5,136.5C 225.953,135.542 226.619,134.708 227.5,134C 227.167,133.667 226.833,133.333 226.5,133C 228.139,131.481 229.806,131.314 231.5,132.5 Z"/></g>
<g><path style="opacity:1" fill="#6d5700" d="M 219.5,132.5 C 220.497,131.287 221.497,131.454 222.5,133C 221.423,133.47 220.423,133.303 219.5,132.5 Z"/></g>
<g><path style="opacity:1" fill="#846802" d="M 258.5,120.5 C 260.957,121.555 262.623,123.388 263.5,126C 262.584,126.374 261.75,126.874 261,127.5C 261.079,122.883 259.246,121.716 255.5,124C 255.833,124.333 256.167,124.667 256.5,125C 255.692,125.308 255.025,125.808 254.5,126.5C 255.641,127.425 255.641,128.259 254.5,129C 255.71,130.039 256.71,131.206 257.5,132.5C 256.494,132.938 256.494,133.604 257.5,134.5C 255.973,134.427 254.973,135.094 254.5,136.5C 252.621,136.607 252.288,136.107 253.5,135C 251.881,134.764 250.881,133.931 250.5,132.5C 253.045,131.562 253.545,130.229 252,128.5C 251.549,130.929 250.715,131.096 249.5,129C 251.037,127.89 251.703,126.39 251.5,124.5C 253.833,123.167 256.167,121.833 258.5,120.5 Z"/></g>
<g><path style="opacity:1" fill="#777a4a" d="M 246.5,128.5 C 247.167,128.5 247.5,128.833 247.5,129.5C 246.034,130.347 245.2,131.68 245,133.5C 244.5,133 244,132.5 243.5,132C 243.974,130.271 244.974,129.105 246.5,128.5 Z"/></g>
<g><path style="opacity:1" fill="#4c3b07" d="M 357.5,126.5 C 360.676,124.727 362.343,125.727 362.5,129.5C 363.675,129.281 364.675,129.614 365.5,130.5C 363.192,133.007 360.525,133.674 357.5,132.5C 358.689,131.571 360.022,131.238 361.5,131.5C 361.631,128.633 360.297,126.967 357.5,126.5 Z"/></g>
<g><path style="opacity:1" fill="#6f5f02" d="M 352.5,126.5 C 353.801,128.456 353.301,130.123 351,131.5C 350.878,129.718 351.378,128.052 352.5,126.5 Z"/></g>
<g><path style="opacity:1" fill="#9f7e00" d="M 334.5,128.5 C 336.527,128.338 338.527,128.505 340.5,129C 338.324,129.163 336.491,129.996 335,131.5C 334.517,130.552 334.351,129.552 334.5,128.5 Z"/></g>
<g><path style="opacity:1" fill="#82742b" d="M 233.5,127.5 C 236.354,128.381 239.354,128.547 242.5,128C 239.571,130.321 236.404,130.821 233,129.5C 232.722,130.416 232.222,131.082 231.5,131.5C 231.279,130.265 230.612,129.265 229.5,128.5C 230.689,127.571 232.022,127.238 233.5,127.5 Z"/></g>
<g><path style="opacity:1" fill="#423507" d="M 322.5,129.5 C 322.44,130.043 322.107,130.376 321.5,130.5C 320.201,129.306 318.868,128.306 317.5,127.5C 318.397,126.402 319.23,126.402 320,127.5C 321.335,123.639 322.501,123.639 323.5,127.5C 323.137,128.183 322.804,128.85 322.5,129.5 Z"/></g>
<g><path style="opacity:1" fill="#785d00" d="M 317.5,127.5 C 316.833,127.833 316.167,128.167 315.5,128.5C 316.032,125.54 316.699,125.207 317.5,127.5 Z"/></g>
<g><path style="opacity:1" fill="#675000" d="M 307.5,124.5 C 308.833,124.5 309.5,125.167 309.5,126.5C 308.265,126.721 307.265,127.388 306.5,128.5C 306.167,128 305.833,127.5 305.5,127C 306.056,125.989 306.722,125.156 307.5,124.5 Z"/></g>
<g><path style="opacity:1" fill="#745a00" d="M 224.5,125.5 C 226.337,125.639 226.67,126.306 225.5,127.5C 224.702,127.043 224.369,126.376 224.5,125.5 Z"/></g>
<g><path style="opacity:1" fill="#a88400" d="M 328.5,123.5 C 328.596,125.119 328.596,126.785 328.5,128.5C 327.334,126.833 327.334,125.166 328.5,123.5 Z"/></g>
<g><path style="opacity:1" fill="#5a4302" d="M 218.5,123.5 C 219.774,124.189 219.774,125.023 218.5,126C 217.056,126.781 215.723,126.614 214.5,125.5C 215.274,124.289 216.107,124.289 217,125.5C 217.717,124.956 218.217,124.289 218.5,123.5 Z"/></g>
<g><path style="opacity:1" fill="#140f01" d="M 299.5,122.5 C 299.369,123.239 299.536,123.906 300,124.5C 302.329,123.834 304.829,123.834 307.5,124.5C 306.722,125.156 306.056,125.989 305.5,127C 305.833,127.5 306.167,128 306.5,128.5C 307.265,127.388 308.265,126.721 309.5,126.5C 313.373,126.334 314.04,127.334 311.5,129.5C 307.714,130.695 307.714,131.362 311.5,131.5C 311.494,134.548 312.494,135.048 314.5,133C 313.833,132.667 313.167,132.333 312.5,132C 314.426,131.578 315.426,130.411 315.5,128.5C 316.167,128.167 316.833,127.833 317.5,127.5C 318.868,128.306 320.201,129.306 321.5,130.5C 322.107,130.376 322.44,130.043 322.5,129.5C 324.167,130.833 325.833,132.167 327.5,133.5C 327.158,134.338 326.492,134.672 325.5,134.5C 324.778,134.082 324.278,133.416 324,132.5C 322.847,134.818 321.347,136.818 319.5,138.5C 317.123,136.97 317.123,135.47 319.5,134C 318.069,133.535 316.903,132.701 316,131.5C 316.522,133.049 316.355,134.549 315.5,136C 317.109,138.085 318.442,140.251 319.5,142.5C 318.199,143.882 317.366,145.548 317,147.5C 316.292,146.619 315.458,145.953 314.5,145.5C 315.85,144.176 315.683,143.176 314,142.5C 312.923,143.429 311.756,144.096 310.5,144.5C 304.282,145.045 299.616,148.045 296.5,153.5C 296.833,153.833 297.167,154.167 297.5,154.5C 298.624,153.086 299.624,151.586 300.5,150C 303.86,147.936 307.526,146.769 311.5,146.5C 312.528,149.098 313.528,149.098 314.5,146.5C 314.5,147.5 314.5,148.5 314.5,149.5C 313.596,150.209 313.263,151.209 313.5,152.5C 310.5,152.167 309.167,153.5 309.5,156.5C 311.199,156.473 312.533,155.806 313.5,154.5C 316.695,155.829 317.028,157.495 314.5,159.5C 312.563,158.805 311.563,159.805 311.5,162.5C 310.508,162.672 309.842,162.338 309.5,161.5C 308.593,157.569 307.426,157.569 306,161.5C 305.583,160.244 304.75,159.577 303.5,159.5C 303.167,159.5 302.833,159.5 302.5,159.5C 300.005,159.595 297.338,159.262 294.5,158.5C 293.224,159.614 293.224,160.614 294.5,161.5C 294.5,162.167 294.167,162.5 293.5,162.5C 291.958,163.301 290.292,163.634 288.5,163.5C 288.5,162.167 288.5,160.833 288.5,159.5C 286.536,160.782 284.536,162.115 282.5,163.5C 283.684,165.467 283.351,167.134 281.5,168.5C 280.395,167.4 279.062,166.733 277.5,166.5C 278.89,164.831 279.223,163.164 278.5,161.5C 279.316,157.312 280.149,152.979 281,148.5C 282.074,147.382 283.24,146.382 284.5,145.5C 284.291,144.914 283.957,144.414 283.5,144C 285.504,142.577 287.004,140.744 288,138.5C 288.561,139.022 289.228,139.355 290,139.5C 292.497,138.092 294.997,136.759 297.5,135.5C 294.805,134.982 292.139,135.648 289.5,137.5C 288.808,136.975 288.308,136.308 288,135.5C 287.667,135.833 287.333,136.167 287,136.5C 286.517,135.552 286.351,134.552 286.5,133.5C 287.802,132.193 289.135,132.193 290.5,133.5C 291.711,132.726 291.711,131.893 290.5,131C 293.167,130.333 293.167,129.667 290.5,129C 291.701,128.097 292.535,126.931 293,125.5C 295.149,126.84 296.316,126.173 296.5,123.5C 297.117,123.611 297.617,123.944 298,124.5C 298.278,123.584 298.778,122.918 299.5,122.5 Z"/></g>
<g><path style="opacity:1" fill="#896b00" d="M 302.5,159.5 C 299.848,161.295 297.181,161.961 294.5,161.5C 293.224,160.614 293.224,159.614 294.5,158.5C 297.338,159.262 300.005,159.595 302.5,159.5 Z"/></g>
<g><path style="opacity:1" fill="#654e03" d="M 290.5,151.5 C 291.239,151.369 291.906,151.536 292.5,152C 288.534,154.382 288.534,156.715 292.5,159C 291.207,159.49 289.873,159.657 288.5,159.5C 287.09,158.172 285.924,158.505 285,160.5C 284.5,158.667 283.333,157.5 281.5,157C 282.938,156.781 284.271,156.281 285.5,155.5C 284.5,154.167 283.5,152.833 282.5,151.5C 282.833,151.167 283.167,150.833 283.5,150.5C 285.556,153.941 287.889,154.274 290.5,151.5 Z"/></g>
<g><path style="opacity:1" fill="#8a6d01" d="M 290.5,151.5 C 289.761,151.631 289.094,151.464 288.5,151C 288.335,148.743 288.835,146.576 290,144.5C 290.333,145.833 290.667,147.167 291,148.5C 293.202,146.259 295.702,145.592 298.5,146.5C 297.066,147.23 295.9,148.23 295,149.5C 292.776,148.359 291.276,149.026 290.5,151.5 Z"/></g>
<g><path style="opacity:1" fill="#aa8a00" d="M 310.5,144.5 C 310.833,145.167 311.167,145.833 311.5,146.5C 307.526,146.769 303.86,147.936 300.5,150C 299.624,151.586 298.624,153.086 297.5,154.5C 297.167,154.167 296.833,153.833 296.5,153.5C 299.616,148.045 304.282,145.045 310.5,144.5 Z"/></g>
<g><path style="opacity:1" fill="#564508" d="M 314.5,145.5 C 314.5,145.833 314.5,146.167 314.5,146.5C 313.528,149.098 312.528,149.098 311.5,146.5C 311.167,145.833 310.833,145.167 310.5,144.5C 311.756,144.096 312.923,143.429 314,142.5C 315.683,143.176 315.85,144.176 314.5,145.5 Z"/></g>
<g><path style="opacity:1" fill="#b89500" d="M 304.5,133.5 C 305.239,133.369 305.906,133.536 306.5,134C 304.824,135.517 303.157,136.017 301.5,135.5C 302.602,134.824 303.602,134.158 304.5,133.5 Z"/></g>
<g><path style="opacity:1" fill="#665102" d="M 315.5,128.5 C 315.426,130.411 314.426,131.578 312.5,132C 313.167,132.333 313.833,132.667 314.5,133C 312.494,135.048 311.494,134.548 311.5,131.5C 307.714,131.362 307.714,130.695 311.5,129.5C 312.962,130.471 314.295,130.138 315.5,128.5 Z"/></g>
<g><path style="opacity:1" fill="#181408" d="M 245.5,122.5 C 247.421,123.363 249.421,124.029 251.5,124.5C 251.703,126.39 251.037,127.89 249.5,129C 250.715,131.096 251.549,130.929 252,128.5C 253.545,130.229 253.045,131.562 250.5,132.5C 249.306,131.728 248.306,130.728 247.5,129.5C 247.5,128.833 247.167,128.5 246.5,128.5C 245.659,126.621 245.325,124.621 245.5,122.5 Z"/></g>
<g><path style="opacity:1" fill="#5d4c08" d="M 309.5,121.5 C 310.822,121.67 311.989,121.337 313,120.5C 313.667,121.167 313.667,121.833 313,122.5C 311.052,123.109 309.218,123.776 307.5,124.5C 304.829,123.834 302.329,123.834 300,124.5C 299.536,123.906 299.369,123.239 299.5,122.5C 302.151,120.516 304.651,120.516 307,122.5C 308.07,122.472 308.903,122.139 309.5,121.5 Z"/></g>
<g><path style="opacity:1" fill="#785f01" d="M 298.5,120.5 C 297.094,120.973 296.427,121.973 296.5,123.5C 296.316,126.173 295.149,126.84 293,125.5C 292.535,126.931 291.701,128.097 290.5,129C 293.167,129.667 293.167,130.333 290.5,131C 291.711,131.893 291.711,132.726 290.5,133.5C 289.135,132.193 287.802,132.193 286.5,133.5C 285.833,133.5 285.5,133.167 285.5,132.5C 288.125,131.534 288.125,130.534 285.5,129.5C 286.274,128.289 287.107,128.289 288,129.5C 290.19,127.612 292.023,125.445 293.5,123C 291.885,122.938 290.552,122.771 289.5,122.5C 289.833,121.833 290.167,121.167 290.5,120.5C 291.93,120.421 293.264,120.754 294.5,121.5C 295.711,120.726 295.711,119.893 294.5,119C 296.463,118.156 297.796,118.656 298.5,120.5 Z"/></g>
<g><path style="opacity:1" fill="#9f7d00" d="M 234.5,122.5 C 233.425,123.562 232.425,123.562 231.5,122.5C 232.614,121.224 233.614,121.224 234.5,122.5 Z"/></g>
<g><path style="opacity:1" fill="#473806" d="M 290.5,120.5 C 290.167,121.167 289.833,121.833 289.5,122.5C 287.926,122.937 286.759,123.937 286,125.5C 285.51,124.207 285.343,122.873 285.5,121.5C 283.61,121.297 282.11,121.963 281,123.5C 280.833,123.167 280.667,122.833 280.5,122.5C 283.106,119.579 285.606,117.245 288,115.5C 288.595,116.899 288.428,118.232 287.5,119.5C 288.355,120.293 289.189,119.96 290,118.5C 290.464,119.094 290.631,119.761 290.5,120.5 Z"/></g>
<g><path style="opacity:1" fill="#5b4602" d="M 250.5,119.5 C 253.853,119.655 254.186,118.988 251.5,117.5C 252.209,116.596 253.209,116.263 254.5,116.5C 254.5,117.833 254.5,119.167 254.5,120.5C 253.5,120.5 252.5,120.5 251.5,120.5C 251.5,121.833 251.5,123.167 251.5,124.5C 249.421,124.029 247.421,123.363 245.5,122.5C 245.5,122.167 245.5,121.833 245.5,121.5C 245.5,120.167 244.833,119.5 243.5,119.5C 243.5,119.167 243.5,118.833 243.5,118.5C 243.783,117.711 244.283,117.044 245,116.5C 246.308,118.641 247.808,120.641 249.5,122.5C 250.386,121.675 250.719,120.675 250.5,119.5 Z"/></g>
<g><path style="opacity:1" fill="#b19523" d="M 243.5,119.5 C 244.833,119.5 245.5,120.167 245.5,121.5C 243.851,122.714 242.185,124.047 240.5,125.5C 240.167,125.167 239.833,124.833 239.5,124.5C 241.149,123.019 242.482,121.352 243.5,119.5 Z"/></g>
<g><path style="opacity:1" fill="#6b5c01" d="M 317.5,119.5 C 319.337,119.639 319.67,120.306 318.5,121.5C 317.702,121.043 317.369,120.376 317.5,119.5 Z"/></g>
<g><path style="opacity:1" fill="#9a7800" d="M 373.5,98.5 C 374.818,101.258 375.485,104.424 375.5,108C 375.416,111.693 374.75,115.193 373.5,118.5C 374.242,119.287 375.075,119.953 376,120.5C 376.44,124.599 377.273,128.599 378.5,132.5C 377.47,132.554 376.303,132.888 375,133.5C 374.443,137.175 373.11,140.508 371,143.5C 370.805,141.793 370.805,140.126 371,138.5C 370.667,138.167 370.333,137.833 370,137.5C 369.002,140.028 368.169,140.028 367.5,137.5C 369.433,135.205 369.766,132.705 368.5,130C 368.833,129.5 369.167,129 369.5,128.5C 370.167,129.5 370.833,130.5 371.5,131.5C 372.316,129.713 373.316,128.046 374.5,126.5C 373.149,124.981 371.649,123.648 370,122.5C 369.713,120.109 369.213,117.776 368.5,115.5C 370.946,113.349 371.613,110.849 370.5,108C 372.62,106.477 372.953,104.644 371.5,102.5C 372.853,101.476 373.52,100.143 373.5,98.5 Z"/></g>
<g><path style="opacity:1" fill="#796201" d="M 332.5,115.5 C 333.88,115.962 334.547,116.962 334.5,118.5C 332.559,120.316 331.892,122.316 332.5,124.5C 331.757,123.092 330.923,121.759 330,120.5C 329.282,121.451 328.449,121.617 327.5,121C 330.273,120.108 331.94,118.275 332.5,115.5 Z"/></g>
<g><path style="opacity:1" fill="#9f7f12" d="M 242.5,118.5 C 241.448,118.351 240.448,118.517 239.5,119C 238.512,121.167 237.179,123 235.5,124.5C 234.662,124.158 234.328,123.492 234.5,122.5C 235.434,121.432 235.768,120.099 235.5,118.5C 237.677,118.414 239.677,117.747 241.5,116.5C 242.298,116.957 242.631,117.624 242.5,118.5 Z"/></g>
<g><path style="opacity:1" fill="#c2a001" d="M 251.5,117.5 C 254.186,118.988 253.853,119.655 250.5,119.5C 250.328,118.508 250.662,117.842 251.5,117.5 Z"/></g>
<g><path style="opacity:1" fill="#8e7301" d="M 358.5,117.5 C 359.552,117.351 360.552,117.517 361.5,118C 360.354,118.645 359.354,119.478 358.5,120.5C 357.913,119.767 357.913,118.767 358.5,117.5 Z"/></g>
<g><path style="opacity:1" fill="#4e3d04" d="M 309.5,121.5 C 307.359,120.245 306.693,118.578 307.5,116.5C 308.95,117.85 309.617,119.516 309.5,121.5 Z"/></g>
<g><path style="opacity:1" fill="#4f3f04" d="M 222.5,114.5 C 223.5,114.5 224.5,114.5 225.5,114.5C 225.66,116.199 225.494,117.866 225,119.5C 224.215,117.751 223.382,116.084 222.5,114.5 Z"/></g>
<g><path style="opacity:1" fill="#bd9900" d="M 356.5,110.5 C 357.434,111.568 357.768,112.901 357.5,114.5C 356.325,114.719 355.325,114.386 354.5,113.5C 355.193,112.482 355.859,111.482 356.5,110.5 Z"/></g>
<g><path style="opacity:1" fill="#4b3b04" d="M 324.5,106.5 C 325.766,107.09 327.099,107.59 328.5,108C 327.833,108.333 327.167,108.667 326.5,109C 327.337,110.011 327.67,111.178 327.5,112.5C 328.675,112.281 329.675,112.614 330.5,113.5C 329.333,115.167 328.167,116.833 327,118.5C 326.735,116.837 327.235,115.337 328.5,114C 327.552,113.517 326.552,113.351 325.5,113.5C 325.552,111.097 325.219,108.764 324.5,106.5 Z"/></g>
<g><path style="opacity:1" fill="#664f00" d="M 318.5,110.5 C 321.747,112.738 321.747,114.071 318.5,114.5C 318.5,113.167 318.5,111.833 318.5,110.5 Z"/></g>
<g><path style="opacity:1" fill="#8a6c00" d="M 214.5,111.5 C 215.043,111.56 215.376,111.893 215.5,112.5C 214.24,113.382 213.074,114.382 212,115.5C 211.333,114.833 211.333,114.167 212,113.5C 212.995,112.934 213.828,112.267 214.5,111.5 Z"/></g>
<g><path style="opacity:1" fill="#897101" d="M 301.5,114.5 C 300.846,115.185 300.846,116.185 301.5,117.5C 301.253,118.713 300.586,119.38 299.5,119.5C 300.548,117.029 299.881,114.863 297.5,113C 298.912,109.825 300.579,109.825 302.5,113C 301.944,113.383 301.611,113.883 301.5,114.5 Z"/></g>
<g><path style="opacity:1" fill="#5e4b03" d="M 269.5,108.5 C 271.85,109.11 271.517,109.444 268.5,109.5C 268.966,111.201 268.966,112.701 268.5,114C 268,114.167 267.5,114.333 267,114.5C 265.423,113.449 263.923,112.449 262.5,111.5C 264.833,111.337 267.166,110.337 269.5,108.5 Z"/></g>
<g><path style="opacity:1" fill="#695200" d="M 309.5,107.5 C 310.712,110.665 309.379,112.332 305.5,112.5C 306.833,110.833 308.167,109.167 309.5,107.5 Z"/></g>
<g><path style="opacity:1" fill="#7f6500" d="M 332.5,108.5 C 334.476,109.427 334.809,110.76 333.5,112.5C 332.571,111.311 332.238,109.978 332.5,108.5 Z"/></g>
<g><path style="opacity:1" fill="#8a6f01" d="M 256.5,108.5 C 258.337,108.639 258.67,109.306 257.5,110.5C 256.702,110.043 256.369,109.376 256.5,108.5 Z"/></g>
<g><path style="opacity:1" fill="#524202" d="M 350.5,107.5 C 352.562,108.505 353.396,110.171 353,112.5C 351.628,111.09 350.795,109.423 350.5,107.5 Z"/></g>
<g><path style="opacity:1" fill="#927200" d="M 259.5,105.5 C 261.337,105.639 261.67,106.306 260.5,107.5C 259.702,107.043 259.369,106.376 259.5,105.5 Z"/></g>
<g><path style="opacity:1" fill="#9b7e00" d="M 338.5,105.5 C 339.386,104.224 340.386,104.224 341.5,105.5C 340.575,106.562 339.575,106.562 338.5,105.5 Z"/></g>
<g><path style="opacity:1" fill="#120d01" d="M 309.5,88.5 C 311.23,89.0256 312.564,90.0256 313.5,91.5C 311.688,91.7713 310.022,92.438 308.5,93.5C 310.207,94.8726 311.54,96.5393 312.5,98.5C 309.777,100.271 309.111,102.605 310.5,105.5C 310.167,106.167 309.833,106.833 309.5,107.5C 308.167,109.167 306.833,110.833 305.5,112.5C 304.817,114.176 303.483,114.843 301.5,114.5C 301.611,113.883 301.944,113.383 302.5,113C 300.579,109.825 298.912,109.825 297.5,113C 299.881,114.863 300.548,117.029 299.5,119.5C 299.5,120.167 299.167,120.5 298.5,120.5C 297.796,118.656 296.463,118.156 294.5,119C 295.711,119.893 295.711,120.726 294.5,121.5C 293.264,120.754 291.93,120.421 290.5,120.5C 290.631,119.761 290.464,119.094 290,118.5C 289.189,119.96 288.355,120.293 287.5,119.5C 288.428,118.232 288.595,116.899 288,115.5C 285.606,117.245 283.106,119.579 280.5,122.5C 280.667,122.833 280.833,123.167 281,123.5C 282.11,121.963 283.61,121.297 285.5,121.5C 285.343,122.873 285.51,124.207 286,125.5C 286.759,123.937 287.926,122.937 289.5,122.5C 290.552,122.771 291.885,122.938 293.5,123C 292.023,125.445 290.19,127.612 288,129.5C 287.107,128.289 286.274,128.289 285.5,129.5C 288.125,130.534 288.125,131.534 285.5,132.5C 282.881,132.768 280.381,132.435 278,131.5C 276.698,132.085 275.531,132.751 274.5,133.5C 269.281,134.093 268.614,133.093 272.5,130.5C 272.291,129.914 271.957,129.414 271.5,129C 272.394,127.896 273.394,126.73 274.5,125.5C 275.254,127.446 276.588,128.279 278.5,128C 276.604,126.935 276.437,126.102 278,125.5C 279.605,127.064 281.438,127.564 283.5,127C 281.544,125.093 279.21,123.926 276.5,123.5C 276.265,122.903 275.765,122.57 275,122.5C 272.865,123.127 270.698,123.627 268.5,124C 269.448,124.483 270.448,124.649 271.5,124.5C 271.617,126.484 270.95,128.15 269.5,129.5C 265.633,128.513 265.633,129.013 269.5,131C 268.874,131.75 268.374,132.584 268,133.5C 267.722,132.584 267.222,131.918 266.5,131.5C 265.504,131.586 264.671,131.252 264,130.5C 262.089,132.689 259.923,133.356 257.5,132.5C 256.71,131.206 255.71,130.039 254.5,129C 255.641,128.259 255.641,127.425 254.5,126.5C 255.025,125.808 255.692,125.308 256.5,125C 256.167,124.667 255.833,124.333 255.5,124C 259.246,121.716 261.079,122.883 261,127.5C 261.75,126.874 262.584,126.374 263.5,126C 262.623,123.388 260.957,121.555 258.5,120.5C 257.798,118.443 257.465,116.443 257.5,114.5C 258.8,112.949 260.467,111.949 262.5,111.5C 263.923,112.449 265.423,113.449 267,114.5C 267.5,114.333 268,114.167 268.5,114C 268.966,112.701 268.966,111.201 268.5,109.5C 271.517,109.444 271.85,109.11 269.5,108.5C 270.78,107.069 272.447,106.402 274.5,106.5C 275.398,107.158 276.398,107.824 277.5,108.5C 275.631,110.722 275.298,113.055 276.5,115.5C 277.458,115.047 278.292,114.381 279,113.5C 283.578,114.538 284.578,112.871 282,108.5C 281.51,109.793 281.343,111.127 281.5,112.5C 280.022,112.762 278.689,112.429 277.5,111.5C 278.414,109.336 279.581,107.336 281,105.5C 281.779,108.097 282.279,108.097 282.5,105.5C 284.263,106.954 285.597,106.62 286.5,104.5C 287.458,104.953 288.292,105.619 289,106.5C 294.028,105.593 298.695,103.926 303,101.5C 304.641,103.045 305.807,102.711 306.5,100.5C 305.833,100.167 305.167,99.8333 304.5,99.5C 301.135,101.187 297.802,101.853 294.5,101.5C 294.833,100.167 295.167,98.8333 295.5,97.5C 296.117,97.6107 296.617,97.944 297,98.5C 297.765,96.9343 297.598,95.6009 296.5,94.5C 296.5,94.1667 296.5,93.8333 296.5,93.5C 297.583,93.5394 298.583,93.8728 299.5,94.5C 302.811,92.3039 306.145,90.3039 309.5,88.5 Z"/></g>
<g><path style="opacity:1" fill="#534001" d="M 276.5,123.5 C 279.21,123.926 281.544,125.093 283.5,127C 281.438,127.564 279.605,127.064 278,125.5C 276.437,126.102 276.604,126.935 278.5,128C 276.588,128.279 275.254,127.446 274.5,125.5C 275.5,125.167 276.167,124.5 276.5,123.5 Z"/></g>
<g><path style="opacity:1" fill="#bc9b01" d="M 276.5,123.5 C 276.167,124.5 275.5,125.167 274.5,125.5C 273.791,124.596 272.791,124.263 271.5,124.5C 270.448,124.649 269.448,124.483 268.5,124C 270.698,123.627 272.865,123.127 275,122.5C 275.765,122.57 276.265,122.903 276.5,123.5 Z"/></g>
<g><path style="opacity:1" fill="#775f00" d="M 276.5,115.5 C 275.165,117.797 273.332,119.797 271,121.5C 270.333,120.833 270.333,120.167 271,119.5C 272.774,118.035 274.608,116.702 276.5,115.5 Z"/></g>
<g><path style="opacity:1" fill="#6c5503" d="M 265.5,119.5 C 266.742,117.75 268.242,116.083 270,114.5C 269.901,117.333 268.401,118.999 265.5,119.5 Z"/></g>
<g><path style="opacity:1" fill="#755b00" d="M 265.5,119.5 C 265.657,120.873 265.49,122.207 265,123.5C 264.042,121.376 262.875,119.376 261.5,117.5C 263.97,112.449 264.637,112.449 263.5,117.5C 263.855,118.522 264.522,119.189 265.5,119.5 Z"/></g>
<g><path style="opacity:1" fill="#785f02" d="M 292.5,109.5 C 294.465,109.948 294.798,110.948 293.5,112.5C 292.833,112.167 292.167,111.833 291.5,111.5C 290.742,112.811 289.742,113.311 288.5,113C 289.591,111.45 290.924,110.283 292.5,109.5 Z"/></g>
<g><path style="opacity:1" fill="#bb9b00" d="M 303.5,106.5 C 305.657,107.053 305.49,108.053 303,109.5C 302.53,108.423 302.697,107.423 303.5,106.5 Z"/></g>
<g><path style="opacity:1" fill="#745d03" d="M 321.5,98.5 C 322.815,99.4756 324.148,100.476 325.5,101.5C 324.5,102.833 323.5,104.167 322.5,105.5C 319.242,103.395 318.909,101.062 321.5,98.5 Z"/></g>
<g><path style="opacity:1" fill="#7b6002" d="M 294.5,101.5 C 297.802,101.853 301.135,101.187 304.5,99.5C 305.167,99.8333 305.833,100.167 306.5,100.5C 305.807,102.711 304.641,103.045 303,101.5C 298.695,103.926 294.028,105.593 289,106.5C 288.292,105.619 287.458,104.953 286.5,104.5C 286.351,103.448 286.517,102.448 287,101.5C 288.049,103.107 289.549,103.773 291.5,103.5C 291.672,99.0293 292.506,98.6959 294,102.5C 294.399,102.272 294.565,101.938 294.5,101.5 Z"/></g>
<g><path style="opacity:1" fill="#8a6e02" d="M 282.5,105.5 C 282.279,108.097 281.779,108.097 281,105.5C 279.581,107.336 278.414,109.336 277.5,111.5C 278.689,112.429 280.022,112.762 281.5,112.5C 281.343,111.127 281.51,109.793 282,108.5C 284.578,112.871 283.578,114.538 279,113.5C 278.292,114.381 277.458,115.047 276.5,115.5C 275.298,113.055 275.631,110.722 277.5,108.5C 276.398,107.824 275.398,107.158 274.5,106.5C 273.176,104.442 273.676,102.775 276,101.5C 275.298,107.338 277.131,108.005 281.5,103.5C 282.298,103.957 282.631,104.624 282.5,105.5 Z"/></g>
<g><path style="opacity:1" fill="#634f05" d="M 312.5,98.5 C 311.327,100.341 311.327,102.174 312.5,104C 312.164,105.03 311.497,105.53 310.5,105.5C 309.111,102.605 309.777,100.271 312.5,98.5 Z"/></g>
<g><path style="opacity:1" fill="#d3af01" d="M 381.5,100.5 C 383.337,100.639 383.67,101.306 382.5,102.5C 381.702,102.043 381.369,101.376 381.5,100.5 Z"/></g>
<g><path style="opacity:1" fill="#886d02" d="M 344.5,99.5 C 345.568,98.5655 346.901,98.2322 348.5,98.5C 348.5,99.5 348.5,100.5 348.5,101.5C 352.172,102.045 351.838,102.378 347.5,102.5C 347.5,101.5 347.5,100.5 347.5,99.5C 346.5,99.5 345.5,99.5 344.5,99.5 Z"/></g>
<g><path style="opacity:1" fill="#665206" d="M 336.5,94.5 C 338.316,96.1366 340.316,97.6366 342.5,99C 339.437,102.142 337.77,101.309 337.5,96.5C 334.147,96.6547 333.814,95.9881 336.5,94.5 Z"/></g>
<g><path style="opacity:1" fill="#6b5604" d="M 265.5,97.5 C 267.337,97.6395 267.67,98.3061 266.5,99.5C 265.702,99.0431 265.369,98.3764 265.5,97.5 Z"/></g>
<g><path style="opacity:1" fill="#947700" d="M 282.5,96.5 C 284.048,96.8212 284.715,97.8212 284.5,99.5C 283.178,99.33 282.011,99.6634 281,100.5C 280.626,99.5838 280.126,98.7504 279.5,98C 280.737,97.7679 281.737,97.2679 282.5,96.5 Z"/></g>
<g><path style="opacity:1" fill="#907302" d="M 313.5,91.5 C 312.566,93.2385 312.566,94.9052 313.5,96.5C 314.265,95.3881 315.265,94.7214 316.5,94.5C 316.167,96.8333 314.833,98.1667 312.5,98.5C 311.54,96.5393 310.207,94.8726 308.5,93.5C 310.022,92.438 311.688,91.7713 313.5,91.5 Z"/></g>
<g><path style="opacity:1" fill="#7a6100" d="M 304.5,96.5 C 305.386,95.2241 306.386,95.2241 307.5,96.5C 306.575,97.5624 305.575,97.5624 304.5,96.5 Z"/></g>
<g><path style="opacity:1" fill="#665301" d="M 356.5,92.5 C 358.238,94.1195 358.738,96.1195 358,98.5C 356.681,96.7505 356.181,94.7505 356.5,92.5 Z"/></g>
<g><path style="opacity:1" fill="#ad9001" d="M 296.5,94.5 C 297.598,95.6009 297.765,96.9343 297,98.5C 296.617,97.944 296.117,97.6107 295.5,97.5C 292.662,95.6941 292.995,94.6941 296.5,94.5 Z"/></g>
<g><path style="opacity:1" fill="#b79a01" d="M 360.5,94.5 C 362.337,94.6395 362.67,95.3061 361.5,96.5C 360.702,96.0431 360.369,95.3764 360.5,94.5 Z"/></g>
<g><path style="opacity:1" fill="#50420b" d="M 326.5,93.5 C 327.376,93.3691 328.043,93.7025 328.5,94.5C 326.469,96.4039 324.469,96.5706 322.5,95C 324.058,94.79 325.391,94.29 326.5,93.5 Z"/></g>
<g><path style="opacity:1" fill="#6e5702" d="M 316.5,94.5 C 317.623,91.9586 318.956,91.9586 320.5,94.5C 319.315,94.8764 317.982,94.8764 316.5,94.5 Z"/></g>
<g><path style="opacity:1" fill="#b08f00" d="M 282.5,92.5 C 282.56,91.9569 282.893,91.6236 283.5,91.5C 289.988,96.1849 289.655,96.5183 282.5,92.5 Z"/></g>
<g><path style="opacity:1" fill="#8e7701" d="M 336.5,94.5 C 336.586,93.5041 336.252,92.6708 335.5,92C 339.044,91.3211 339.377,92.1545 336.5,94.5 Z"/></g>
<g><path style="opacity:1" fill="#6a5600" d="M 325.5,90.5 C 326.043,90.56 326.376,90.8933 326.5,91.5C 325.635,92.5827 324.635,92.7494 323.5,92C 324.416,91.7216 325.082,91.2216 325.5,90.5 Z"/></g>
<g><path style="opacity:1" fill="#a48200" d="M 291.5,90.5 C 293.337,90.6395 293.67,91.3061 292.5,92.5C 291.702,92.0431 291.369,91.3764 291.5,90.5 Z"/></g>
<g><path style="opacity:1" fill="#997c00" d="M 309.5,88.5 C 306.145,90.3039 302.811,92.3039 299.5,94.5C 298.583,93.8728 297.583,93.5394 296.5,93.5C 295.761,93.631 295.094,93.4643 294.5,93C 297.572,92.2305 300.238,90.7305 302.5,88.5C 304.906,88.3547 307.239,88.3547 309.5,88.5 Z"/></g>
<g><path style="opacity:1" fill="#735f00" d="M 341.5,87.5 C 342.776,88.3864 342.776,89.3864 341.5,90.5C 340.438,89.5754 340.438,88.5754 341.5,87.5 Z"/></g>
<g><path style="opacity:1" fill="#524306" d="M 268.5,87.5 C 268.897,86.475 269.563,86.3083 270.5,87C 273.127,89.2862 275.46,91.7862 277.5,94.5C 276.998,95.521 276.332,95.6877 275.5,95C 273.667,92.0015 271.334,89.5015 268.5,87.5 Z"/></g>
<g><path style="opacity:1" fill="#8f7300" d="M 356.5,87.5 C 358.76,88.2376 358.927,89.2376 357,90.5C 356.517,89.552 356.351,88.552 356.5,87.5 Z"/></g>
<g><path style="opacity:1" fill="#8e7200" d="M 272.5,84.5 C 274.858,85.1136 277.192,85.4469 279.5,85.5C 277.807,86.2283 276.307,87.2283 275,88.5C 273.915,87.2644 273.082,85.9311 272.5,84.5 Z"/></g>
<g><path style="opacity:1" fill="#ab8f01" d="M 288.5,84.5 C 289.289,84.7828 289.956,85.2828 290.5,86C 287.58,91.8653 286.914,91.3653 288.5,84.5 Z"/></g>
<g><path style="opacity:1" fill="#624e06" d="M 347.5,79.5 C 349.641,80.7551 350.307,82.4218 349.5,84.5C 348.438,82.9783 347.771,81.3117 347.5,79.5 Z"/></g>
<g><path style="opacity:1" fill="#685a01" d="M 320.5,82.5 C 325.021,82.3262 325.355,82.9929 321.5,84.5C 320.702,84.0431 320.369,83.3764 320.5,82.5 Z"/></g>
<g><path style="opacity:1" fill="#bc9e01" d="M 284.5,80.5 C 286.337,80.6395 286.67,81.3061 285.5,82.5C 284.702,82.0431 284.369,81.3764 284.5,80.5 Z"/></g>
<g><path style="opacity:1" fill="#967d01" d="M 293.5,78.5 C 292.363,80.5344 290.696,81.701 288.5,82C 289.071,80.7949 289.738,79.6283 290.5,78.5C 291.527,79.7914 292.527,79.7914 293.5,78.5 Z"/></g>
<g><path style="opacity:1" fill="#977a00" d="M 348.5,75.5 C 350.167,75.5 351.833,75.5 353.5,75.5C 353.627,77.9154 353.793,80.2487 354,82.5C 352.383,81.1487 351.216,79.482 350.5,77.5C 348.786,78.6085 348.119,77.9418 348.5,75.5 Z"/></g>
<g><path style="opacity:1" fill="#544509" d="M 293.5,78.5 C 293.185,76.7741 293.019,75.1075 293,73.5C 295.886,75.1702 296.052,76.8369 293.5,78.5 Z"/></g>
<g><path style="opacity:1" fill="#120a00" d="M 228.5,185.5 C 230.767,186.646 231.434,188.313 230.5,190.5C 230.39,192.098 230.057,193.765 229.5,195.5C 228.549,194.081 228.216,192.415 228.5,190.5C 228.5,188.833 228.5,187.167 228.5,185.5 Z"/></g>
<g><path style="opacity:1" fill="#343434" d="M 10.5,47.5 C 10.8333,47.5 11.1667,47.5 11.5,47.5C 145.167,47.5 278.833,47.5 412.5,47.5C 279.001,48.4996 145.334,48.8329 11.5,48.5C 11.5,52.8333 11.5,57.1667 11.5,61.5C 42.1667,61.5 72.8333,61.5 103.5,61.5C 103.5,62.1667 103.5,62.8333 103.5,63.5C 72.8333,63.5 42.1667,63.5 11.5,63.5C 11.5,66.8333 11.5,70.1667 11.5,73.5C 42.1667,73.5 72.8333,73.5 103.5,73.5C 103.5,108.5 103.5,143.5 103.5,178.5C 72.8333,178.5 42.1667,178.5 11.5,178.5C 11.5,181.833 11.5,185.167 11.5,188.5C 42.1667,188.5 72.8333,188.5 103.5,188.5C 103.5,210.167 103.5,231.833 103.5,253.5C 72.5,253.5 41.5,253.5 10.5,253.5C 10.5,184.833 10.5,116.167 10.5,47.5 Z"/></g>
<g><path style="opacity:1" fill="#d7d4b4" d="M 15.5,169.5 C 16.8333,169.5 18.1667,169.5 19.5,169.5C 19.5,170.5 19.5,171.5 19.5,172.5C 18.1667,172.5 16.8333,172.5 15.5,172.5C 15.5,171.5 15.5,170.5 15.5,169.5 Z"/></g>
<g><path style="opacity:1" fill="#3a3a3a" d="M 41.5,145.5 C 41.5,146.833 41.5,148.167 41.5,149.5C 44.5,149.5 47.5,149.5 50.5,149.5C 53.8567,149.629 57.5234,149.629 61.5,149.5C 61.5,147.5 61.5,145.5 61.5,143.5C 62.0473,146.575 63.0473,149.575 64.5,152.5C 72.8068,153.498 81.1401,153.831 89.5,153.5C 89.5,156.167 89.5,158.833 89.5,161.5C 64.5,161.5 39.5,161.5 14.5,161.5C 14.5,158.833 14.5,156.167 14.5,153.5C 20.5888,153.471 20.5888,152.137 14.5,149.5C 21.1667,147.833 21.1667,146.167 14.5,144.5C 15.6888,143.571 17.0222,143.238 18.5,143.5C 18.5,142.5 18.5,141.5 18.5,140.5C 17.0222,140.762 15.6888,140.429 14.5,139.5C 16.0453,138.548 17.712,138.215 19.5,138.5C 19.5,137.167 19.5,135.833 19.5,134.5C 17.712,134.785 16.0453,134.452 14.5,133.5C 16.0064,132.253 17.5064,132.253 19,133.5C 19.49,132.207 19.6567,130.873 19.5,129.5C 17.712,129.785 16.0453,129.452 14.5,128.5C 16.0064,127.253 17.5064,127.253 19,128.5C 19.49,127.207 19.6567,125.873 19.5,124.5C 17.712,124.785 16.0453,124.452 14.5,123.5C 16.396,122.534 18.396,122.201 20.5,122.5C 20.5,131.167 20.5,139.833 20.5,148.5C 27.1667,148.5 33.8333,148.5 40.5,148.5C 40.2627,147.209 40.596,146.209 41.5,145.5 Z"/></g>
<g><path style="opacity:1" fill="#732e74" d="M 59.5,132.5 C 60.4881,137.64 60.8214,142.974 60.5,148.5C 59.5,148.5 58.5,148.5 57.5,148.5C 57.5,145.167 57.5,141.833 57.5,138.5C 57.5569,137.391 57.8902,136.391 58.5,135.5C 59.1098,134.609 59.4431,133.609 59.5,132.5 Z"/></g>
<g><path style="opacity:1" fill="#725372" d="M 61.5,143.5 C 61.5,145.5 61.5,147.5 61.5,149.5C 57.5234,149.629 53.8567,149.629 50.5,149.5C 52.6473,145.742 54.9807,142.076 57.5,138.5C 57.5,141.833 57.5,145.167 57.5,148.5C 58.5,148.5 59.5,148.5 60.5,148.5C 60.8214,142.974 60.4881,137.64 59.5,132.5C 59.5,131.5 59.5,130.5 59.5,129.5C 60.675,129.281 61.675,129.614 62.5,130.5C 61.5614,134.765 61.2281,139.098 61.5,143.5 Z"/></g>
<g><path style="opacity:1" fill="#6d6d6d" d="M 58.5,135.5 C 57.8902,136.391 57.5569,137.391 57.5,138.5C 54.9807,142.076 52.6473,145.742 50.5,149.5C 47.5,149.5 44.5,149.5 41.5,149.5C 41.5,148.167 41.5,146.833 41.5,145.5C 42.1349,138.152 42.9683,130.818 44,123.5C 44.8485,126.698 46.3485,129.531 48.5,132C 52.1803,132.348 55.5136,133.515 58.5,135.5 Z"/></g>
<g><path style="opacity:1" fill="#8195ae" d="M 15.5,109.5 C 16.8333,109.5 18.1667,109.5 19.5,109.5C 19.5,110.5 19.5,111.5 19.5,112.5C 18.1667,112.5 16.8333,112.5 15.5,112.5C 15.5,111.5 15.5,110.5 15.5,109.5 Z"/></g>
<g><path style="opacity:1" fill="#65a218" d="M 15.5,92.5 C 16.8333,92.5 18.1667,92.5 19.5,92.5C 19.5,93.5 19.5,94.5 19.5,95.5C 18.1667,95.5 16.8333,95.5 15.5,95.5C 15.5,94.5 15.5,93.5 15.5,92.5 Z"/></g>
<g><path style="opacity:1" fill="#757575" d="M 29.5,92.5 C 32.2469,92.1866 34.9135,92.52 37.5,93.5C 34.5541,94.6548 31.5541,94.8214 28.5,94C 29.056,93.6174 29.3893,93.1174 29.5,92.5 Z"/></g>
<g><path style="opacity:1" fill="#616161" d="M 26.5,79.5 C 46.4222,81.1504 46.4222,82.1504 26.5,82.5C 26.5,81.5 26.5,80.5 26.5,79.5 Z"/></g>
<g><path style="opacity:1" fill="#d1bea6" d="M 15.5,79.5 C 16.8333,79.5 18.1667,79.5 19.5,79.5C 19.5,80.5 19.5,81.5 19.5,82.5C 18.1667,82.5 16.8333,82.5 15.5,82.5C 15.5,81.5 15.5,80.5 15.5,79.5 Z"/></g>
<g><path style="opacity:1" fill="#342402" d="M 245.5,188.5 C 244.306,189.777 242.64,190.444 240.5,190.5C 238.631,190.493 236.964,190.16 235.5,189.5C 237.106,188.641 238.773,188.474 240.5,189C 239.643,188.311 238.977,187.478 238.5,186.5C 240.156,185.008 241.656,183.342 243,181.5C 243.5,182 244,182.5 244.5,183C 242.083,185.153 242.416,186.986 245.5,188.5 Z"/></g>
<g><path style="opacity:1" fill="#6a5302" d="M 297.5,187.5 C 299.984,189.028 299.818,190.694 297,192.5C 297.019,190.893 297.185,189.226 297.5,187.5 Z"/></g>
<g><path style="opacity:1" fill="#957900" d="M 327.5,190.5 C 328.675,190.281 329.675,190.614 330.5,191.5C 328.948,192.798 327.948,192.465 327.5,190.5 Z"/></g>
<g><path style="opacity:1" fill="#9a7701" d="M 260.5,188.5 C 261.167,188.5 261.833,188.5 262.5,188.5C 263.37,190.274 264.703,191.607 266.5,192.5C 265.442,193.6 264.608,194.934 264,196.5C 263.77,192.517 262.437,191.851 260,194.5C 260.135,192.575 260.302,190.575 260.5,188.5 Z"/></g>
<g><path style="opacity:1" fill="#150f01" d="M 258.5,186.5 C 258.5,187.833 259.167,188.5 260.5,188.5C 260.302,190.575 260.135,192.575 260,194.5C 262.437,191.851 263.77,192.517 264,196.5C 264.608,194.934 265.442,193.6 266.5,192.5C 268.167,192.5 269.833,192.5 271.5,192.5C 271.489,194.017 270.823,195.184 269.5,196C 272.192,196.43 274.859,196.263 277.5,195.5C 279.43,195.229 280.764,194.229 281.5,192.5C 284.021,196.667 285.854,196.333 287,191.5C 287.342,193.619 288.175,193.953 289.5,192.5C 291.121,192.787 292.121,193.787 292.5,195.5C 291.218,195.088 290.218,195.754 289.5,197.5C 289.565,197.062 289.399,196.728 289,196.5C 286.233,197.646 286.066,198.646 288.5,199.5C 288.082,200.222 287.416,200.722 286.5,201C 288.085,201.085 289.418,201.251 290.5,201.5C 288.406,202.518 286.406,203.518 284.5,204.5C 283.167,205.167 283.167,205.833 284.5,206.5C 284.672,207.492 284.338,208.158 283.5,208.5C 283.265,207.903 282.765,207.57 282,207.5C 280.016,208.339 278.183,209.339 276.5,210.5C 274.629,208.723 273.962,206.723 274.5,204.5C 273.146,206.184 271.479,206.684 269.5,206C 270.376,204.414 271.376,202.914 272.5,201.5C 271.372,200.738 270.205,200.071 269,199.5C 268.583,200.756 267.75,201.423 266.5,201.5C 266.167,200.5 265.5,199.833 264.5,199.5C 265.936,198.571 267.269,197.405 268.5,196C 267.149,194.186 266.149,194.519 265.5,197C 263.06,198.303 260.56,199.47 258,200.5C 257.5,200.167 257,199.833 256.5,199.5C 257.313,198.186 258.313,197.019 259.5,196C 258.167,195.333 256.833,195.333 255.5,196C 254.167,197 254.167,198 255.5,199C 254.5,199.333 253.5,199.667 252.5,200C 252.833,200.333 253.167,200.667 253.5,201C 252.941,205.303 251.941,209.469 250.5,213.5C 250.577,214.75 251.244,215.583 252.5,216C 251.351,217.744 250.017,217.911 248.5,216.5C 247.818,217.243 247.151,217.909 246.5,218.5C 246.013,217.527 245.513,216.527 245,215.5C 244.333,216.833 243.333,217.833 242,218.5C 241.383,217.551 241.549,216.718 242.5,216C 241.552,215.517 240.552,215.351 239.5,215.5C 240.568,214.566 241.901,214.232 243.5,214.5C 245.509,212.831 247.509,211.164 249.5,209.5C 248.311,208.571 246.978,208.238 245.5,208.5C 244.999,210.707 243.999,212.04 242.5,212.5C 240.561,212.561 238.561,212.561 236.5,212.5C 235.702,212.043 235.369,211.376 235.5,210.5C 235.67,209.178 235.337,208.011 234.5,207C 232.67,206.818 231.003,207.318 229.5,208.5C 229.5,208.167 229.5,207.833 229.5,207.5C 230.619,204.112 232.619,201.279 235.5,199C 239.825,197.842 243.491,195.675 246.5,192.5C 247.521,193.002 247.688,193.668 247,194.5C 245.333,196.833 243.667,199.167 242,201.5C 241.331,198.733 240.164,198.233 238.5,200C 239.835,200.929 241.335,202.429 243,204.5C 244.011,203.663 245.178,203.33 246.5,203.5C 246.34,201.801 246.506,200.134 247,198.5C 247.75,199.126 248.584,199.626 249.5,200C 248.391,201.813 249.058,202.646 251.5,202.5C 251.959,198.618 250.626,196.618 247.5,196.5C 248.09,195.201 249.09,194.368 250.5,194C 249.692,193.692 249.025,193.192 248.5,192.5C 251.693,190.318 255.026,188.318 258.5,186.5 Z"/></g>
<g><path style="opacity:1" fill="#44360c" d="M 289.5,192.5 C 288.175,193.953 287.342,193.619 287,191.5C 285.854,196.333 284.021,196.667 281.5,192.5C 281.389,191.883 281.056,191.383 280.5,191C 282.119,190.764 283.119,189.931 283.5,188.5C 285.549,188.294 285.883,187.461 284.5,186C 286.024,184.299 287.024,184.799 287.5,187.5C 288.325,188.386 289.325,188.719 290.5,188.5C 290.272,186.645 290.939,185.812 292.5,186C 291.588,188.251 290.588,190.417 289.5,192.5 Z"/></g>
<g><path style="opacity:1" fill="#927200" d="M 307.5,191.5 C 311.06,193.283 311.06,194.283 307.5,194.5C 307.5,193.5 307.5,192.5 307.5,191.5 Z"/></g>
<g><path style="opacity:1" fill="#403108" d="M 216.5,194.5 C 215.167,194.5 214.5,195.167 214.5,196.5C 213.438,198.879 212.105,198.879 210.5,196.5C 206.138,200.493 204.805,199.493 206.5,193.5C 208.296,191.07 209.963,191.07 211.5,193.5C 210.391,195.214 211.058,195.881 213.5,195.5C 213.351,191.999 214.351,191.666 216.5,194.5 Z"/></g>
<g><path style="opacity:1" fill="#6b5501" d="M 323.5,192.5 C 325.983,192.73 326.483,193.397 325,194.5C 323.97,194.164 323.47,193.497 323.5,192.5 Z"/></g>
<g><path style="opacity:1" fill="#6d5301" d="M 206.5,193.5 C 204.868,194.446 203.201,195.446 201.5,196.5C 199.39,196.351 197.39,196.351 195.5,196.5C 199.172,195.769 199.839,194.269 197.5,192C 197.833,191.833 198.167,191.667 198.5,191.5C 201.865,194.437 204.365,193.77 206,189.5C 206.49,190.793 206.657,192.127 206.5,193.5 Z"/></g>
<g><path style="opacity:1" fill="#2f1f01" d="M 237.5,191.5 C 238.376,191.369 239.043,191.702 239.5,192.5C 237.253,193.245 235.42,194.578 234,196.5C 232.294,195.692 231.461,194.359 231.5,192.5C 233.735,192.795 235.735,192.461 237.5,191.5 Z"/></g>
<g><path style="opacity:1" fill="#503f0b" d="M 271.5,192.5 C 273.854,192.838 276.187,193.338 278.5,194C 277.944,194.383 277.611,194.883 277.5,195.5C 274.859,196.263 272.192,196.43 269.5,196C 270.823,195.184 271.489,194.017 271.5,192.5 Z"/></g>
<g><path style="opacity:1" fill="#422f04" d="M 228.5,190.5 C 228.216,192.415 228.549,194.081 229.5,195.5C 231.69,196.374 232.69,198.041 232.5,200.5C 230.396,200.799 228.396,200.466 226.5,199.5C 227.025,198.808 227.692,198.308 228.5,198C 227.186,195.395 227.186,192.895 228.5,190.5 Z"/></g>
<g><path style="opacity:1" fill="#df9213" d="M 15.5,195.5 C 16.8333,195.5 18.1667,195.5 19.5,195.5C 19.5,196.5 19.5,197.5 19.5,198.5C 18.1667,198.5 16.8333,198.5 15.5,198.5C 15.5,197.5 15.5,196.5 15.5,195.5 Z"/></g>
<g><path style="opacity:1" fill="#806502" d="M 289.5,197.5 C 289.167,198.167 288.833,198.833 288.5,199.5C 286.066,198.646 286.233,197.646 289,196.5C 289.399,196.728 289.565,197.062 289.5,197.5 Z"/></g>
<g><path style="opacity:1" fill="#8d6d01" d="M 280.5,195.5 C 282.057,196.466 283.39,197.8 284.5,199.5C 283.675,200.386 282.675,200.719 281.5,200.5C 281.371,198.784 281.038,197.117 280.5,195.5 Z"/></g>
<g><path style="opacity:1" fill="#745901" d="M 198.5,198.5 C 203.339,202.047 203.172,205.047 198,207.5C 198.222,205.544 199.055,203.71 200.5,202C 200,201.5 199.5,201 199,200.5C 197.553,202.403 195.886,204.07 194,205.5C 193.308,204.975 192.808,204.308 192.5,203.5C 195.122,202.541 197.122,200.875 198.5,198.5 Z"/></g>
<g><path style="opacity:1" fill="#6f5501" d="M 216.5,194.5 C 216.694,196.912 218.027,197.912 220.5,197.5C 221.167,199.819 221.334,202.153 221,204.5C 215.766,206.072 215.266,204.738 219.5,200.5C 217.578,200.134 215.578,199.968 213.5,200C 215.311,198.959 215.645,197.793 214.5,196.5C 214.5,195.167 215.167,194.5 216.5,194.5 Z"/></g>
<g><path style="opacity:1" fill="#604802" d="M 264.5,199.5 C 263.761,199.369 263.094,199.536 262.5,200C 263.34,201.666 262.84,201.833 261,200.5C 258.993,201.669 256.827,202.335 254.5,202.5C 254.567,204.401 254.233,206.234 253.5,208C 253.833,208.5 254.167,209 254.5,209.5C 255.451,208.674 256.451,208.508 257.5,209C 256.289,210.113 256.289,211.28 257.5,212.5C 255.3,213.314 252.967,213.647 250.5,213.5C 251.941,209.469 252.941,205.303 253.5,201C 253.167,200.667 252.833,200.333 252.5,200C 253.5,199.667 254.5,199.333 255.5,199C 254.167,198 254.167,197 255.5,196C 256.833,195.333 258.167,195.333 259.5,196C 258.313,197.019 257.313,198.186 256.5,199.5C 257,199.833 257.5,200.167 258,200.5C 260.56,199.47 263.06,198.303 265.5,197C 266.149,194.519 267.149,194.186 268.5,196C 267.269,197.405 265.936,198.571 264.5,199.5 Z"/></g>
<g><path style="opacity:1" fill="#6e5701" d="M 314.5,197.5 C 315.268,198.263 315.768,199.263 316,200.5C 317.516,197.949 318.349,198.282 318.5,201.5C 314.935,201.799 313.602,200.465 314.5,197.5 Z"/></g>
<g><path style="opacity:1" fill="#b79500" d="M 320.5,199.5 C 322.625,200.368 322.791,201.368 321,202.5C 319.317,201.824 319.15,200.824 320.5,199.5 Z"/></g>
<g><path style="opacity:1" fill="#9d8000" d="M 301.5,201.5 C 302.833,201.5 304.167,201.5 305.5,201.5C 305.719,202.675 305.386,203.675 304.5,204.5C 302.787,204.121 301.787,203.121 301.5,201.5 Z"/></g>
<g><path style="opacity:1" fill="#4c3b05" d="M 184.5,202.5 C 188.31,203.754 188.31,204.754 184.5,205.5C 184.5,204.5 184.5,203.5 184.5,202.5 Z"/></g>
<g><path style="opacity:1" fill="#8c6e00" d="M 284.5,204.5 C 287.167,205.167 287.167,205.833 284.5,206.5C 283.167,205.833 283.167,205.167 284.5,204.5 Z"/></g>
<g><path style="opacity:1" fill="#6a5002" d="M 263.5,204.5 C 264.391,205.261 265.058,206.261 265.5,207.5C 264.391,209.385 263.557,211.385 263,213.5C 261.049,211.863 261.216,210.363 263.5,209C 262.833,208.667 262.167,208.333 261.5,208C 262.823,207.184 263.489,206.017 263.5,204.5 Z"/></g>
<g><path style="opacity:1" fill="#513e07" d="M 276.5,210.5 C 273.888,209.629 271.221,208.963 268.5,208.5C 268.688,210.103 268.188,211.437 267,212.5C 266.54,209.696 267.04,207.029 268.5,204.5C 267.807,203.482 267.141,202.482 266.5,201.5C 267.75,201.423 268.583,200.756 269,199.5C 270.205,200.071 271.372,200.738 272.5,201.5C 271.376,202.914 270.376,204.414 269.5,206C 271.479,206.684 273.146,206.184 274.5,204.5C 273.962,206.723 274.629,208.723 276.5,210.5 Z"/></g>
<g><path style="opacity:1" fill="#604801" d="M 235.5,210.5 C 233.126,209.314 230.792,209.314 228.5,210.5C 228.328,209.508 228.662,208.842 229.5,208.5C 231.003,207.318 232.67,206.818 234.5,207C 235.337,208.011 235.67,209.178 235.5,210.5 Z"/></g>
<g><path style="opacity:1" fill="#785c00" d="M 243.5,214.5 C 243.672,213.508 243.338,212.842 242.5,212.5C 243.999,212.04 244.999,210.707 245.5,208.5C 246.978,208.238 248.311,208.571 249.5,209.5C 247.509,211.164 245.509,212.831 243.5,214.5 Z"/></g>
<g><path style="opacity:1" fill="#836600" d="M 228.5,210.5 C 227.199,211.882 226.366,213.548 226,215.5C 225.184,216.823 224.017,217.489 222.5,217.5C 223.357,214.08 225.357,211.746 228.5,210.5 Z"/></g>
<g><path style="opacity:1" fill="#654e01" d="M 283.5,208.5 C 282.791,209.404 281.791,209.737 280.5,209.5C 280.321,211.606 279.321,213.272 277.5,214.5C 275.521,213.794 273.854,213.794 272.5,214.5C 273.549,212.784 274.882,211.451 276.5,210.5C 278.183,209.339 280.016,208.339 282,207.5C 282.765,207.57 283.265,207.903 283.5,208.5 Z"/></g>
<g><path style="opacity:1" fill="#aa8700" d="M 307.5,214.5 C 308.848,215.527 309.348,216.86 309,218.5C 306.628,217.683 306.128,216.35 307.5,214.5 Z"/></g>
<g><path style="opacity:1" fill="#896c01" d="M 259.5,218.5 C 258.261,215.118 258.927,214.785 261.5,217.5C 261.043,218.298 260.376,218.631 259.5,218.5 Z"/></g>
<g><path style="opacity:1" fill="#614902" d="M 228.5,214.5 C 229.497,214.47 230.164,214.97 230.5,216C 230.122,217.635 229.456,219.135 228.5,220.5C 227.769,218.599 227.769,216.599 228.5,214.5 Z"/></g>
<g><path style="opacity:1" fill="#7b5c00" d="M 233.5,215.5 C 234.776,216.386 234.776,217.386 233.5,218.5C 232.438,217.575 232.438,216.575 233.5,215.5 Z"/></g>
<g><path style="opacity:1" fill="#5c4602" d="M 259.5,218.5 C 257.872,221.148 256.206,221.148 254.5,218.5C 254.833,217.5 255.5,216.833 256.5,216.5C 256.911,217.262 257.077,218.262 257,219.5C 257.671,218.748 258.504,218.414 259.5,218.5 Z"/></g>
<g><path style="opacity:1" fill="#715800" d="M 222.5,217.5 C 222.872,220.022 222.039,222.022 220,223.5C 219.762,221.044 220.596,219.044 222.5,217.5 Z"/></g>
<g><path style="opacity:1" fill="#513f06" d="M 200.5,218.5 C 204.366,221.288 204.032,222.621 199.5,222.5C 199.433,221.041 199.766,219.708 200.5,218.5 Z"/></g>
<g><path style="opacity:1" fill="#866700" d="M 211.5,220.5 C 212.774,221.189 212.774,222.023 211.5,223C 210.365,223.749 209.365,223.583 208.5,222.5C 209.602,221.824 210.602,221.158 211.5,220.5 Z"/></g>
<g><path style="opacity:1" fill="#6e6d6e" d="M 59.5,225.5 C 59.5,230.167 59.5,234.833 59.5,239.5C 45.7737,239.535 32.107,239.535 18.5,239.5C 19.2861,234.219 19.7861,228.885 20,223.5C 22.0693,224.264 24.236,224.764 26.5,225C 37.495,225.5 48.495,225.667 59.5,225.5 Z"/></g>
<g><path style="opacity:1" fill="#916f00" d="M 242.5,225.5 C 242.666,223.075 244.166,221.075 247,219.5C 247.402,220.872 247.902,222.205 248.5,223.5C 246.565,224.563 244.899,225.897 243.5,227.5C 242.702,227.043 242.369,226.376 242.5,225.5 Z"/></g>
<g><path style="opacity:1" fill="#4c3a07" d="M 253.5,221.5 C 254.995,221.415 255.995,222.081 256.5,223.5C 255.948,225.333 255.115,227 254,228.5C 253.801,226.598 252.967,225.098 251.5,224C 252.381,223.292 253.047,222.458 253.5,221.5 Z"/></g>
<g><path style="opacity:1" fill="#714f71" d="M 61.5,239.5 C 61.824,232.646 61.4907,225.979 60.5,219.5C 60.5,217.167 60.5,214.833 60.5,212.5C 61.675,212.281 62.675,212.614 63.5,213.5C 62.8595,222.296 62.1928,230.962 61.5,239.5 Z"/></g>
<g><path style="opacity:1" fill="#816400" d="M 233.5,229.5 C 231.383,230.934 229.716,230.434 228.5,228C 228.833,227.5 229.167,227 229.5,226.5C 231.483,226.815 232.816,227.815 233.5,229.5 Z"/></g>
<g><path style="opacity:1" fill="#745e02" d="M 288.5,227.5 C 290.465,227.948 290.798,228.948 289.5,230.5C 288.614,229.675 288.281,228.675 288.5,227.5 Z"/></g>
<g><path style="opacity:1" fill="#836400" d="M 239.5,215.5 C 240.552,215.351 241.552,215.517 242.5,216C 241.549,216.718 241.383,217.551 242,218.5C 243.333,217.833 244.333,216.833 245,215.5C 245.513,216.527 246.013,217.527 246.5,218.5C 244.254,218.936 242.087,219.603 240,220.5C 239.294,222.955 240.127,224.622 242.5,225.5C 238.646,227.206 238.813,228.873 243,230.5C 243.667,231.5 243.667,232.5 243,233.5C 239.382,231.068 235.882,231.401 232.5,234.5C 232.167,234.333 231.833,234.167 231.5,234C 233.037,232.89 233.703,231.39 233.5,229.5C 235.799,230.932 237.465,230.266 238.5,227.5C 237.253,225.958 237.253,224.458 238.5,223C 236.744,222.798 235.078,222.298 233.5,221.5C 235.029,220.716 236.696,219.716 238.5,218.5C 239.386,217.675 239.719,216.675 239.5,215.5 Z"/></g>
<g><path style="opacity:1" fill="#7d6302" d="M 295.5,227.5 C 297.103,230.768 296.603,233.768 294,236.5C 294.061,233.469 294.561,230.469 295.5,227.5 Z"/></g>
<g><path style="opacity:1" fill="#624a00" d="M 225.5,229.5 C 227.842,229.775 227.842,230.608 225.5,232C 224.275,232.563 223.275,232.23 222.5,231C 223.737,230.768 224.737,230.268 225.5,229.5 Z"/></g>
<g><path style="opacity:1" fill="#793579" d="M 60.5,219.5 C 61.4907,225.979 61.824,232.646 61.5,239.5C 60.8333,239.5 60.1667,239.5 59.5,239.5C 59.5,234.833 59.5,230.167 59.5,225.5C 59.5172,223.435 59.8505,221.435 60.5,219.5 Z"/></g>
<g><path style="opacity:1" fill="#7e5f00" d="M 221.5,235.5 C 219.014,236.777 218.347,236.111 219.5,233.5C 220.522,233.855 221.189,234.522 221.5,235.5 Z"/></g>
<g><path style="opacity:1" fill="#7c7c7c" d="M 134.5,237.5 C 137.687,236.194 141.02,236.194 144.5,237.5C 141.26,237.976 137.927,237.976 134.5,237.5 Z"/></g>
<g><path style="opacity:1" fill="#787878" d="M 145.5,236.5 C 149.226,236.177 152.893,236.511 156.5,237.5C 154.667,237.833 152.833,238.167 151,238.5C 148.705,238.453 146.871,237.787 145.5,236.5 Z"/></g>
<g><path style="opacity:1" fill="#5e5e5e" d="M 132.5,235.5 C 133.774,236.189 133.774,237.023 132.5,238C 128.459,238.827 124.459,238.66 120.5,237.5C 124.647,236.833 128.647,236.166 132.5,235.5 Z"/></g>
<g><path style="opacity:1" fill="#8a6900" d="M 221.5,235.5 C 223.973,235.736 225.64,237.069 226.5,239.5C 223.325,240.387 221.658,239.054 221.5,235.5 Z"/></g>
<g><path style="opacity:1" fill="#4f4f4f" d="M 397.5,237.5 C 401.5,237.5 405.5,237.5 409.5,237.5C 409.5,241.833 409.5,246.167 409.5,250.5C 405.5,250.5 401.5,250.5 397.5,250.5C 397.5,246.167 397.5,241.833 397.5,237.5 Z"/></g>
<g><path style="opacity:1" fill="#4c4c4c" d="M 131.5,240.5 C 158.804,241.833 186.137,241.833 213.5,240.5C 214.386,241.325 214.719,242.325 214.5,243.5C 186.831,243.667 159.165,243.5 131.5,243C 130.402,242.23 130.402,241.397 131.5,240.5 Z"/></g>
<g><path style="opacity:1" fill="#614b04" d="M 267.5,237.5 C 268.785,238.785 270.119,240.119 271.5,241.5C 273.516,240.294 275.516,240.294 277.5,241.5C 275.18,242.157 272.513,242.323 269.5,242C 267.963,240.89 267.297,239.39 267.5,237.5 Z"/></g>
<g><path style="opacity:1" fill="#5d5d5d" d="M 130.5,245.5 C 158.597,246.496 186.597,246.829 214.5,246.5C 200.5,246.833 186.5,247.167 172.5,247.5C 158.15,247.499 144.15,246.833 130.5,245.5 Z"/></g>
<g><path style="opacity:1" fill="#3a3a3a" d="M 223.5,245.5 C 231.5,245.5 239.5,245.5 247.5,245.5C 247.5,247.5 247.5,249.5 247.5,251.5C 239.5,251.5 231.5,251.5 223.5,251.5C 223.5,249.5 223.5,247.5 223.5,245.5 Z"/></g>
<g><path style="opacity:1" fill="#6a6a6a" d="M 131.5,249.5 C 158.833,250.825 186.167,250.825 213.5,249.5C 214.833,250.5 214.833,251.5 213.5,252.5C 186.304,251.17 159.137,251.17 132,252.5C 130.272,251.648 130.105,250.648 131.5,249.5 Z"/></g>
<g><path style="opacity:1" fill="#171717" d="M 260.5,273.5 C 280.833,273.5 301.167,273.5 321.5,273.5C 321.5,276.167 321.5,278.833 321.5,281.5C 301.167,281.5 280.833,281.5 260.5,281.5C 260.343,280.127 260.51,278.793 261,277.5C 264.125,278.787 267.291,278.787 270.5,277.5C 267.893,276.682 265.226,276.182 262.5,276C 261.244,275.583 260.577,274.75 260.5,273.5 Z"/></g>
<g><path style="opacity:1" fill="#233d52" d="M 212.5,275.5 C 224.376,275.658 236.376,275.992 248.5,276.5C 242.5,276.833 236.5,277.167 230.5,277.5C 224.128,277.496 218.128,276.829 212.5,275.5 Z"/></g>
</svg>
