<svg xmlns="http://www.w3.org/2000/svg" width="74" height="69" style="shape-rendering:geometricPrecision;text-rendering:geometricPrecision;image-rendering:optimizeQuality;fill-rule:evenodd;clip-rule:evenodd"><path style="opacity:.93" fill="#e84e50" d="M42.5 2.5c7.846.194 9.846 3.694 6 10.5-5.192 1.872-8.192.205-9-5 .363-2.192 1.363-4.026 3-5.5z"/><path style="opacity:.922" fill="#e84e50" d="M53.5 9.5c8.716-.963 11.05 2.37 7 10-8.468 1.183-10.801-2.15-7-10z"/><path style="opacity:.921" fill="#e74e4f" d="M49.5 24.5h-1c-.667 0-1 .333-1 1h-5a29.512 29.512 0 0 1-3-5c1.444-6.206 4.944-7.539 10.5-4 .722 2.76.555 5.427-.5 8z"/><path style="opacity:.919" fill="#e84e50" d="M62.5 19.5c8.118-.118 10.118 3.382 6 10.5-6.334 1.329-9.167-1.171-8.5-7.5.698-1.19 1.531-2.19 2.5-3z"/><path style="opacity:.893" fill="#607da6" d="M15.5 24.5v2c-.807 5.737-3.807 7.237-9 4.5-3.217-4.966-2.05-8.466 3.5-10.5 2.505.494 4.339 1.828 5.5 4z"/><path style="opacity:.665" fill="#070707" d="M39.5 20.5a29.512 29.512 0 0 0 3 5 205.581 205.581 0 0 0-16 18c-.904-.709-1.237-1.709-1-3a274.846 274.846 0 0 0 13-14.5 254.904 254.904 0 0 0-27 13.5l-1-2c8.973-4.82 17.973-9.654 27-14.5-7.332.833-14.666 2-22 3.5v-2a754.69 754.69 0 0 1 24-4z"/><path style="opacity:.94" fill="#e84e50" d="M48.5 24.5c.333 1.333.667 1.333 1 0 7.493-.671 9.826 2.495 7 9.5-7.914 2.589-10.914-.245-9-8.5 0-.667.333-1 1-1z"/><path style="opacity:.916" fill="#607ca6" d="m10.5 37.5 1 2c.722 5.757-1.945 7.924-8 6.5-3.867-3.249-3.867-6.582 0-10 2-.667 4-.667 6 0 .556.383.89.883 1 1.5z"/><path style="opacity:.912" fill="#607ca6" d="M25.5 40.5c-.237 1.291.096 2.291 1 3-.372 3.705-2.372 5.705-6 6h-3c-3.199-2.478-3.699-5.478-1.5-9 3.161-2.586 6.328-2.586 9.5 0z"/><path style="opacity:.928" fill="#1b9d7d" d="M44.5 38.5c4.93-1.195 7.93.638 9 5.5-2.586 6.239-6.42 7.072-11.5 2.5-.982-3.275-.148-5.941 2.5-8z"/><path style="opacity:.898" fill="#1b9d7d" d="M53.5 48.5c7.99-1.183 10.656 1.984 8 9.5-9.263 2.566-11.93-.601-8-9.5z"/><path style="opacity:.908" fill="#607ca6" d="M16.5 50.5c.333 1 1 1.667 2 2 1.411 7.754-1.589 10.254-9 7.5-2.996-6.806-.662-9.973 7-9.5z"/><path style="opacity:.659" fill="#040606" d="M17.5 49.5h3l-2 3c-1-.333-1.667-1-2-2 .667 0 1-.333 1-1z"/></svg>