<svg xmlns="http://www.w3.org/2000/svg" width="81" height="81" style="shape-rendering:geometricPrecision;text-rendering:geometricPrecision;image-rendering:optimizeQuality;fill-rule:evenodd;clip-rule:evenodd"><path style="opacity:1" fill="#fafbfe" d="M-.5-.5h81v81h-81v-81z"/><path style="opacity:1" fill="#386fe2" d="M10.5 4.5a32.437 32.437 0 0 1 8 .5 275.261 275.261 0 0 1 9 7.5 67.83 67.83 0 0 0 6-6.5c7.4-3.414 12.733-1.414 16 6 3.726.96 5.892-.54 6.5-4.5 5-4 10-4 15 0 2 4 2 8 0 12a6.975 6.975 0 0 1-3.5 2.5c-13.477.811-19.977 7.978-19.5 21.5a11.529 11.529 0 0 1-3.5 4.5l-13 3-2 2c9.031 6.758 16.864 5.59 23.5-3.5a68.898 68.898 0 0 0 2-14c5.505-6.488 11.172-6.488 17 0 2.002 6.185.17 10.685-5.5 13.5-8.944.455-14.944 4.788-18 13 .267 3.164 1.933 4.164 5 3 2.653-6.312 7.32-8.645 14-7 4.655 2.897 6.155 7.063 4.5 12.5-6.749 8.325-12.915 7.825-18.5-1.5-1.759-.797-3.425-.63-5 .5-6.495 9.475-12.828 9.309-19-.5-1.667-.667-3.333-.667-5 0-4.79 8.76-10.623 9.594-17.5 2.5-2.868-5.96-1.368-10.46 4.5-13.5 5.187-.284 9.854-1.95 14-5a8.905 8.905 0 0 0-4-3C10.584 51.739 5.417 47.239 6 36.5c3.748-5.225 8.915-7.391 15.5-6.5 4.874-2.053 7.874-5.72 9-11-.558-2.058-1.891-3.225-4-3.5-2.413 1.89-4.746 4.056-7 6.5-7.854 2.3-12.52-.533-14-8.5.404-3.729 2.07-6.729 5-9z"/><path style="opacity:1" fill="#f3f6fd" d="M37.5 7.5c5.803.31 7.97 3.31 6.5 9-3.745 4.066-7.078 3.733-10-1-.72-3.554.446-6.22 3.5-8z"/><path style="opacity:1" fill="#f5f7fd" d="M48.5 15.5c4.569-.417 6.069 1.583 4.5 6-1.105 3.437-3.272 5.937-6.5 7.5-11.9-.1-17.734 5.734-17.5 17.5a6.807 6.807 0 0 1-1.5 3c-5.131-6.39-5.298-13.057-.5-20 5.162-4.946 11.329-7.78 18.5-8.5a24.282 24.282 0 0 0 3-5.5z"/><path style="opacity:1" fill="#fafbfe" d="M12.5 34.5c7.522.17 9.522 3.503 6 10-6.626 2.205-9.459-.128-8.5-7a10.521 10.521 0 0 0 2.5-3z"/><path style="opacity:1" fill="#f3f6fd" d="M60.5 34.5c4.92-.716 7.92 1.284 9 6-1.368 4.578-4.368 6.078-9 4.5-3.786-3.411-3.786-6.911 0-10.5z"/><path style="opacity:1" fill="#f0f3fd" d="M26.5 55.5c3.668 1.856 4.834 4.856 3.5 9-3.424 1.767-5.59.767-6.5-3 .484-2.3 1.484-4.3 3-6z"/><path style="opacity:1" fill="#f6f8fd" d="M36.5 61.5c6.5-1.001 9 1.665 7.5 8-6.588 5.01-9.922 3.342-10-5 .698-1.19 1.531-2.19 2.5-3z"/></svg>