<svg xmlns="http://www.w3.org/2000/svg" width="309" height="400" style="shape-rendering:geometricPrecision;text-rendering:geometricPrecision;image-rendering:optimizeQuality;fill-rule:evenodd;clip-rule:evenodd"><path style="opacity:1" fill="#4e2317" d="M-.5-.5h243v169c-2.308.414-4.642.747-7 1-13.454-1.987-27.121-1.987-41 0a314.297 314.297 0 0 0-18-2c-5.438 1.888-11.105 2.554-17 2a8.43 8.43 0 0 0-.5-4c-6.188 2.668-12.688 4.002-19.5 4a1140.266 1140.266 0 0 0-44 0v118a128.532 128.532 0 0 0 32 0 49.369 49.369 0 0 0 11-1c-6.526 4.532-13.693 6.199-21.5 5a42.593 42.593 0 0 0-8.5 2 59.197 59.197 0 0 0-13-2v16c.418.722 1.084 1.222 2 1.5 20.573.173 41.073.673 61.5 1.5a300.7 300.7 0 0 1 49 0 9.201 9.201 0 0 1 4.5-2c8.857.122 17.857.455 27 1a10.515 10.515 0 0 0 2.5 3c.5 28.998.667 57.998.5 87H-.5V-.5z"/><path style="opacity:1" fill="#d8b687" d="M244.5-.5h64v400h-62a2093.981 2093.981 0 0 1-1-91 342.787 342.787 0 0 0 37-1v-138h-38V-.5z"/><path style="opacity:1" fill="#4b260d" d="M242.5-.5h2v170c-.709.904-1.709 1.237-3 1l1-2V-.5z"/><path style="opacity:1" fill="#c78561" d="M154.5 50.5h1l1 2c-1.628 1.353-2.962 1.02-4-1 .992.172 1.658-.162 2-1z"/><path style="opacity:1" fill="#e29c3c" d="M183.5 58.5c0-.667-.333-1-1-1a46.428 46.428 0 0 0 3.5-7c1.011-.837 2.178-1.17 3.5-1 .33 6.7-.003 13.367-1 20a114.674 114.674 0 0 1-1.5-15c-.949 1.593-2.115 2.926-3.5 4z"/><path style="opacity:1" fill="#dea24d" d="M209.5 51.5h-12v7h11c-3.184 1.914-6.851 2.58-11 2v7h12c-4.215 1.936-8.881 2.603-14 2v-20c5.119-.603 9.785.064 14 2z"/><path style="opacity:1" fill="#651d18" d="M100.5 52.5a8.434 8.434 0 0 0-4 .5l1 1c-1.473.71-2.14 1.876-2 3.5-2.176-1.213-2.51-2.88-1-5 2.136-1.293 4.136-1.293 6 0z"/><path style="opacity:1" fill="#d5994c" d="M134.5 49.5c.33 6.7-.003 13.367-1 20-1.709-2.376-3.709-4.376-6-6 .073-1.527-.594-2.527-2-3a32.318 32.318 0 0 0-4.5-6c.118 5.432-.715 10.433-2.5 15-.623-6.755.044-13.088 2-19a164.988 164.988 0 0 1 11.5 14c-.118-5.432.715-10.432 2.5-15z"/><path style="opacity:1" fill="#53280d" d="M152.5 51.5c1.038 2.02 2.372 2.353 4 1h3v3c-4.875.585-9.542 1.585-14 3-.997-.03-1.664.47-2 1.5a17.722 17.722 0 0 1 3 5.5c1.667 1.333 3.333 1.333 5 0a3.647 3.647 0 0 0-1-1.5c1.558-.21 2.891-.71 4-1.5l-5-2h6v6c-11.729 2.608-15.729-1.725-12-13 2.693-1.77 5.693-2.437 9-2z"/><path style="opacity:1" fill="#502709" d="M93.5 49.5c-1.89 2.336-2.39 5.002-1.5 8 2.82 2.169 5.986 3.669 9.5 4.5 1.926 3.79.76 5.623-3.5 5.5-2.442.018-4.609-.649-6.5-2 .558-1.29 1.558-2.123 3-2.5l-1-1c-1.925.135-3.925.302-6 .5a68.72 68.72 0 0 1-2-11c.897-1.098 1.73-1.098 2.5 0 1.787 6.628 2.787 6.294 3-1 .67-.752 1.504-1.086 2.5-1z"/><path style="opacity:1" fill="#5e2b05" d="M209.5 51.5a809.596 809.596 0 0 1-11 2c3.791.936 7.125 2.603 10 5h-11v-7h12z"/><path style="opacity:1" fill="#c28844" d="M112.5 49.5v20h-3v-20h3z"/><path style="opacity:1" fill="#dc9d54" d="M48.5 49.5c1.888 2.488 2.554 5.488 2 9h11v-9h2c.166 4.678 0 9.345-.5 14-.232-1.237-.732-2.237-1.5-3h-11a21.12 21.12 0 0 1-1 9c-.997-6.633-1.33-13.3-1-20z"/><path style="opacity:1" fill="#502317" d="M41.5 53.5c1.765.961 3.765 1.295 6 1v11a4.932 4.932 0 0 1-3-.5c-1.333-.667-1.333-1.333 0-2-1.634-.493-3.3-.66-5-.5-.53 3.28-2.53 4.613-6 4-1.91-.074-3.078-1.074-3.5-3-1.985-10.529 1.848-13.862 11.5-10z"/><path style="opacity:1" fill="#d1944b" d="M217.5 50.5a103.485 103.485 0 0 1 10 14c.06.543.393.876 1 1a64.875 64.875 0 0 0 1-16c1.959 6.25 2.626 12.916 2 20-4.909-4.242-9.576-8.909-14-14-.717 3.937-1.384 8.604-2 14a50.512 50.512 0 0 1 0-20c.683.363 1.35.696 2 1z"/><path style="opacity:1" fill="#b06931" d="M229.5 49.5a64.875 64.875 0 0 1-1 16c-.607-.124-.94-.457-1-1l2-15z"/><path style="opacity:1" fill="#ca9744" d="M41.5 53.5c-9.652-3.862-13.485-.529-11.5 10 .422 1.926 1.59 2.926 3.5 3 3.02 1.339 6.02 1.006 9-1 1.021.502 1.188 1.168.5 2a19.606 19.606 0 0 0-3.5 2c-9.928.477-14.095-4.19-12.5-14a16.569 16.569 0 0 1 2.5-4c3.738-1.917 7.738-2.417 12-1.5 2.427 1.554 2.427 2.721 0 3.5z"/><path style="opacity:1" fill="#d3994b" d="M84.5 59.5a20.677 20.677 0 0 0 1 5c-.438 1.006-1.104 1.006-2 0a31.121 31.121 0 0 0-11 1l-3 4-1-1a27.355 27.355 0 0 0 4-11 53.96 53.96 0 0 1 5.5-8 80.93 80.93 0 0 1 6.5 10z"/><path style="opacity:1" fill="#5e2813" d="M77.5 52.5c1.878 2.745 3.545 5.745 5 9-3 1.333-6 1.333-9 0a53.812 53.812 0 0 0 4-9z"/><path style="opacity:1" fill="#c79342" d="M182.5 57.5c.667 0 1 .333 1 1-.664 1.987-1.831 3.654-3.5 5a64.735 64.735 0 0 1-6-9 112.97 112.97 0 0 0-.5 15h-3v-20c1.322-.17 2.489.163 3.5 1a64.735 64.735 0 0 0 6 9c.708-.88 1.542-1.547 2.5-2z"/><path style="opacity:1" fill="#572606" d="M208.5 58.5c1.098 1.1 1.265 2.434.5 4a3.646 3.646 0 0 0-1.5-1 28.043 28.043 0 0 1-5 1.5l1 1c-4.769.91-4.935 1.743-.5 2.5 2.199-.947 4.032-1.947 5.5-3-.067 1.459.266 2.792 1 4h-12v-7c4.149.58 7.816-.086 11-2z"/><path style="opacity:1" fill="#501f2a" d="M85.5 51.5a68.72 68.72 0 0 0 2 11c2.075-.198 4.075-.365 6-.5l1 1c-1.442.377-2.442 1.21-3 2.5-3.1-1.172-5.434-3.172-7-6l-2-9c1.291-.237 2.291.096 3 1z"/><path style="opacity:1" fill="#5b2907" d="M48.5 49.5c-.33 6.7.003 13.367 1 20a21.12 21.12 0 0 0 1-9h11v9c-2.187-1.782-2.52-3.948-1-6.5-2.671.806-5.338.64-8-.5a32.437 32.437 0 0 1-.5 8c-1.356.88-2.856 1.213-4.5 1v-3a41.58 41.58 0 0 1-8 1 19.606 19.606 0 0 1 3.5-2c.688-.832.521-1.498-.5-2-2.98 2.006-5.98 2.339-9 1 3.47.613 5.47-.72 6-4 1.7-.16 3.366.007 5 .5-1.333.667-1.333 1.333 0 2 .948.483 1.948.65 3 .5v-11c-2.235.295-4.235-.039-6-1 2.427-.779 2.427-1.946 0-3.5-4.262-.917-8.262-.417-12 1.5-.262-1.478.071-2.811 1-4 3.333 1.333 6.667 1.333 10 0 2.18 2.879 4.848 3.545 8 2z"/><path style="opacity:1" fill="#b78251" d="M63.5 49.5a50.501 50.501 0 0 1 0 20h-2v-9c.768.763 1.268 1.763 1.5 3 .5-4.655.666-9.322.5-14z"/><path style="opacity:1" fill="#d09c44" d="M93.5 49.5c4.044-.542 7.711.291 11 2.5a8.435 8.435 0 0 1-4 .5c-1.864-1.293-3.864-1.293-6 0-1.51 2.12-1.176 3.787 1 5 3.202.547 6.202 1.547 9 3 .977 8.508-2.69 11.341-11 8.5-1.323-.816-1.99-1.983-2-3.5 1.891 1.351 4.058 2.018 6.5 2 4.26.123 5.426-1.71 3.5-5.5-3.514-.831-6.68-2.331-9.5-4.5-.89-2.998-.39-5.664 1.5-8z"/><path style="opacity:1" fill="#935820" d="M120.5 49.5v1c-1.956 5.912-2.623 12.245-2 19-.991-6.479-1.324-13.146-1-20h3z"/><path style="opacity:1" fill="#d3994f" d="M154.5 50.5c-.342.838-1.008 1.172-2 1-3.307-.437-6.307.23-9 2-3.729 11.275.271 15.608 12 13v-6h-6c2.135-1.869 4.802-2.536 8-2 .927 9.57-3.406 13.07-13 10.5-6.215-5.708-6.548-11.708-1-18 3.625-1.747 7.292-1.914 11-.5z"/><path style="opacity:1" fill="#54240c" d="M72.5 57.5a27.355 27.355 0 0 1-4 11l1 1 3-4a31.121 31.121 0 0 1 11-1c.548 1.894 1.548 3.56 3 5 1.134-1.939.8-3.605-1-5a20.677 20.677 0 0 1-1-5c1.566 2.828 3.9 4.828 7 6 .01 1.517.677 2.684 2 3.5 8.31 2.841 11.977.008 11-8.5.809.969 1.809 1.802 3 2.5-1.572 2.038-2.572 4.371-3 7-3.539.282-7.04.782-10.5 1.5a27.319 27.319 0 0 0-3.5-1l-6 3c-1.675-.368-2.675-1.368-3-3 .734-1.208 1.067-2.541 1-4-2.222.886-4.388.886-6.5 0a24.775 24.775 0 0 1-5 5 41.666 41.666 0 0 0-6.5 0c-.797-.457-1.13-1.124-1-2a50.501 50.501 0 0 0 0-20h-2c.814-1.773 2.148-2.273 4-1.5 1.729 1.789 2.396 3.956 2 6.5h3c-.215 1.679.452 2.679 2 3z"/><path style="opacity:1" fill="#c58d67" d="M83.5 64.5c.896 1.006 1.562 1.006 2 0 1.8 1.395 2.134 3.061 1 5-1.452-1.44-2.452-3.106-3-5z"/><path style="opacity:1" fill="#541d40" d="M95.5 63.5c1.419-.951 3.085-1.285 5-1v4h-3c.215-1.679-.452-2.679-2-3z"/><path style="opacity:1" fill="#512004" d="M120.5 49.5h-3c-.324 6.854.009 13.521 1 20 1.785-4.567 2.618-9.568 2.5-15a32.318 32.318 0 0 1 4.5 6c-1.517-.01-2.684-.677-3.5-2l-1 14c-1.011.837-2.178 1.17-3.5 1a44.87 44.87 0 0 1-1-10h-3c.295 2.235-.039 4.235-1 6v-20c.666 3.852 1.333 7.852 2 12a3.646 3.646 0 0 0 1.5-1c.767-4.057.6-8.057-.5-12l2.5-1c1.376.184 2.209.85 2.5 2z"/><path style="opacity:1" fill="#582405" d="M217.5 50.5a44.043 44.043 0 0 1-2-1 50.512 50.512 0 0 0 0 20c.616-5.396 1.283-10.063 2-14 .42 5.012.587 10.012.5 15-1.241 1.92-2.741 2.254-4.5 1a102.628 102.628 0 0 1-1.5-13c-1.895-1.935-1.562-3.602 1-5 .494-1.634.66-3.3.5-5 1.983-.343 3.317.324 4 2z"/><path style="opacity:1" fill="#551a29" d="M191.5 57.5h3c.262 1.478-.071 2.811-1 4a3.646 3.646 0 0 1-1.5-1 40.911 40.911 0 0 0-.5 9c4 .667 4 1.333 0 2-1.316-2.664-1.316-7.33 0-14z"/><path style="opacity:1" fill="#4e221b" d="M61.5 69.5h2c-.13.876.203 1.543 1 2 2.249-.17 4.416-.17 6.5 0a24.775 24.775 0 0 0 5-5c2.112.886 4.278.886 6.5 0 .067 1.459-.266 2.792-1 4-1.431.38-2.264 1.38-2.5 3-1.356-.88-2.856-1.213-4.5-1v7h-3c.613 5.77-.054 11.104-2 16 .166-6.342 0-12.675-.5-19-.605-1.981-1.605-2.315-3-1-1.295 2.505-1.461 5.172-.5 8v1c-1.276 2.063-2.11 4.396-2.5 7-2.068-3.57-4.901-6.237-8.5-8-.32-3.584-1.487-4.25-3.5-2a340.149 340.149 0 0 1-1.5 26 379.352 379.352 0 0 1-2-13.5 38.463 38.463 0 0 0 .5-14.5 64.394 64.394 0 0 0-7.5 4h-2a246.13 246.13 0 0 0-7-2 36.265 36.265 0 0 1 7-.5c1.333-.667 1.333-1.333 0-2a98.847 98.847 0 0 1 9-2.5c-10.075-.962-10.075-2.629 0-5 1.644.213 3.144-.12 4.5-1 .497-2.646.664-5.313.5-8 2.662 1.14 5.329 1.306 8 .5-1.52 2.552-1.187 4.718 1 6.5z"/><path style="opacity:1" fill="#daa13c" d="M143.5 83.5v2h-12v16h12c-4.215 1.936-8.881 2.603-14 2v-20h14z"/><path style="opacity:1" fill="#d09553" d="M53.5 83.5h1a103.476 103.476 0 0 0 10 14c.06.543.393.876 1 1a57.124 57.124 0 0 0 1-15c1.32 2.928 1.986 6.261 2 10l-1 10c-2.382-1.715-4.382-3.715-6-6-.333-1-1-1.667-2-2a35.26 35.26 0 0 0-6-8v-4z"/><path style="opacity:1" fill="#8c5617" d="M65.5 83.5h1a57.124 57.124 0 0 1-1 15c-.607-.124-.94-.457-1-1 .985-4.134 1.318-8.468 1-13v-1z"/><path style="opacity:1" fill="#561f05" d="M54.5 83.5c3.599 1.763 6.432 4.43 8.5 8 .39-2.604 1.224-4.938 2.5-7 .318 4.532-.015 8.866-1 13a103.476 103.476 0 0 1-10-14z"/><path style="opacity:1" fill="#613504" d="M143.5 85.5c-3.462.982-7.129 1.315-11 1v5c3.542-.313 6.875.02 10 1h-11v-7h12z"/><path style="opacity:1" fill="#ac7142" d="M108.5 83.5h1c-.623 6.755.044 13.088 2 19-.709.904-1.709 1.237-3 1v-20z"/><path style="opacity:1" fill="#d5905a" d="M131.5 92.5h11c-2.837 1.902-6.171 2.569-10 2h-1v-2z"/><path style="opacity:1" fill="#df974f" d="M109.5 83.5a60.94 60.94 0 0 1 11 .5c3.604 1.334 4.771 3.834 3.5 7.5-.791 2.104-2.291 3.437-4.5 4a40.935 40.935 0 0 1 5 7c-.502 1.021-1.168 1.188-2 .5a30.233 30.233 0 0 1-3-3.5c-1.35-3.595-4.017-4.928-8-4v7c-1.956-5.912-2.623-12.245-2-19z"/><path style="opacity:1" fill="#51260d" d="M111.5 85.5a32.438 32.438 0 0 1 8 .5c3.537 1.826 3.871 4.16 1 7a40.939 40.939 0 0 1-9 .5v-8z"/><path style="opacity:1" fill="#d9a339" d="M53.5 83.5v4a64.875 64.875 0 0 1-1 16l-1-10c.014-3.739.68-7.072 2-10z"/><path style="opacity:1" fill="#532406" d="M69.5 95.5c.321 1.548 1.321 2.215 3 2-.277 5.596-3.277 7.929-9 7l-2-7c1.618 2.285 3.618 4.285 6 6l1-10c-.014-3.739-.68-7.072-2-10h-1c-.961-2.828-.795-5.495.5-8 1.395-1.315 2.395-.981 3 1 .5 6.325.666 12.658.5 19z"/><path style="opacity:1" fill="#4c250f" d="M108.5 83.5v20c1.291.237 2.291-.096 3-1v-7c3.983-.928 6.65.405 8 4-5.252-1.538-6.085-.205-2.5 4a8.43 8.43 0 0 1 .5 4h-6v4h-4a194.526 194.526 0 0 0-1-22c.039-2.452.706-4.452 2-6z"/><path style="opacity:1" fill="#773b0a" d="M131.5 94.5h1v6c3.871-.315 7.538.018 11 1h-12v-7z"/><path style="opacity:1" fill="#52250c" d="M95.5 92.5h-11v-7c4.055.324 8.055-.01 12-1a49.873 49.873 0 0 0-14-1c-.33 6.7.003 13.367 1 20a21.12 21.12 0 0 0 1-9h11c-2.787.977-5.787 1.31-9 1v10c-1.644.214-3.144-.12-4.5-1-.17-6.36-.67-12.693-1.5-19a3.646 3.646 0 0 0-1.5 1 12.5 12.5 0 0 1 0-7c1.114 3.956 1.947 3.956 2.5 0h4v3c3.937.293 7.77-.04 11.5-1a22.948 22.948 0 0 1 2 5c.383-.556.883-.89 1.5-1v18h3v-20h-3l1-8c-5.693-.884-6.693.282-3 3.5l-1.5.5c-2.172-2.018-4.505-2.352-7-1-1.617-1.036-1.784-2.203-.5-3.5l10-2.5c3.098 1.52 6.431 2.354 10 2.5 1.473.71 2.14 1.876 2 3.5a18.437 18.437 0 0 0-6 .5 4.932 4.932 0 0 0-1 2.5c.1 10.047.1 20.047 0 30-1.333-6.667-2.667-6.667-4 0a290.188 290.188 0 0 1-1.5-24 127.62 127.62 0 0 1-7.5 3 70.679 70.679 0 0 1 4 2z"/><path style="opacity:1" fill="#c18831" d="M100.5 83.5h3v20h-3v-20z"/><path style="opacity:1" fill="#da9a51" d="M95.5 92.5v2h-11a21.12 21.12 0 0 1-1 9c-.997-6.633-1.33-13.3-1-20 4.714-.327 9.38.007 14 1a36.874 36.874 0 0 1-12 1v7h11z"/><path style="opacity:1" fill="#4e2512" d="M155.5 50.5h-1c-3.708-1.414-7.375-1.247-11 .5-5.548 6.292-5.215 12.292 1 18 9.594 2.57 13.927-.93 13-10.5 2.079 3.546 3.579 7.546 4.5 12 .821 3.054.655 6.054-.5 9a4.458 4.458 0 0 1-1.5-2c-2.213 1.26-4.713 1.926-7.5 2a37.772 37.772 0 0 1-8-1c-3.728 1.906-7.728 3.072-12 3.5 3.856.177 7.523.677 11 1.5h-14v20c-.821-3.141-1.321-6.475-1.5-10-6.081.68-6.748 2.68-2 6a54.874 54.874 0 0 0 2.5 10c4.541.822 9.208.822 14 0l2 6a94.443 94.443 0 0 1 6.5-2c2.025.328 4.191.494 6.5.5l-1 1a4.457 4.457 0 0 1 2 1.5c-.891 1.09-1.891 1.09-3 0-1.645.536-1.978 1.203-1 2-.888 2.554-1.221 5.221-1 8-1.208.734-2.541 1.067-4 1a18.453 18.453 0 0 0-.5-6 13.315 13.315 0 0 1-4.5-3 21.127 21.127 0 0 0-1 9h-2c1.179-2.007.679-2.34-1.5-1-2-1.667-2-3.333 0-5 .811 1.46 1.645 1.793 2.5 1-1.12-2.096-2.62-2.43-4.5-1-.678 2.098-.511 4.098.5 6h-4c.145-2.552.645-4.885 1.5-7-2.103 1.803-2.936 4.136-2.5 7h-4c-1.076-3.248-.41-3.581 2-1 1.131-1.574 1.298-3.241.5-5-1.635-1.349-3.135-1.182-4.5.5 1.238-.077 2.238.089 3 .5-.825.886-1.825 1.219-3 1v4h-3c.111-.617.444-1.117 1-1.5-5.008-.869-4.675-1.536 1-2-4.063-5.031-6.063-4.198-6 2.5-.342.838-1.008 1.172-2 1 .912-1.238 1.079-2.572.5-4a32.367 32.367 0 0 1-4.5-3c3.874-1.502 3.541-2.169-1-2a8.43 8.43 0 0 0 .5 4 20.532 20.532 0 0 1 4.5 2.5 9.454 9.454 0 0 0-2.5 1.5c-3.528-2.661-4.028-2.327-1.5 1a19.22 19.22 0 0 1-6-1c-1.109-.79-2.442-1.29-4-1.5 5.883-.317 6.383-1.817 1.5-4.5-2.713 1.718-3.213 4.052-1.5 7-.992.172-1.658-.162-2-1 .82-3.779-.513-6.112-4-7 1.25-.077 2.083-.744 2.5-2 2.733 1.605 5.733 2.605 9 3 1.319-1.987 3.152-3.154 5.5-3.5l-4-1c2.437-1.006 4.937-1.506 7.5-1.5a240.024 240.024 0 0 0-.5-6 8.43 8.43 0 0 1 4 .5c1.272 2.261 2.938 2.761 5 1.5a135.384 135.384 0 0 1-7.5-8 4.934 4.934 0 0 1-.5-3 30.233 30.233 0 0 0 3 3.5c.832.688 1.498.521 2-.5a40.935 40.935 0 0 0-5-7c2.209-.563 3.709-1.896 4.5-4 1.271-3.666.104-6.166-3.5-7.5a60.94 60.94 0 0 0-11-.5 10.136 10.136 0 0 1 1.5-4c.483.948.649 1.948.5 3 5.701.116 11.368.282 17 .5.42-2.277 1.087-4.777 2-7.5h-3c-.661-2.988-1.328-5.988-2-9 .14-1.53.807-2.53 2-3 2.291 1.624 4.291 3.624 6 6 .997-6.633 1.33-13.3 1-20 .967-1.306 2.301-1.973 4-2v3a14.828 14.828 0 0 0 7.5-3c3.641.228 6.808 1.228 9.5 3z"/><path style="opacity:1" fill="#4e2122" d="M158.5 68.5c1.288 1.535 1.288 3.201 0 5-3.89-1.554-7.557-1.22-11 1l9 2a3.647 3.647 0 0 1-1 1.5c-4.176.68-8.176.18-12-1.5.023-2.1-.644-3.933-2-5.5l1-1.5a9.264 9.264 0 0 0 2.5 2 96.346 96.346 0 0 1 11.5-1.5c.916-.278 1.582-.778 2-1.5z"/><path style="opacity:1" fill="#521e2b" d="M145.5 58.5c1.526.605 2.526 1.771 3 3.5 1.973.495 3.973.662 6 .5-1.109.79-2.442 1.29-4 1.5.457.414.791.914 1 1.5-1.667 1.333-3.333 1.333-5 0a17.722 17.722 0 0 0-3-5.5c.336-1.03 1.003-1.53 2-1.5z"/><path style="opacity:1" fill="#4f2613" d="M47.5 71.5c-10.075 2.371-10.075 4.038 0 5a98.847 98.847 0 0 0-9 2.5c1.333.667 1.333 1.333 0 2a36.265 36.265 0 0 0-7 .5 246.13 246.13 0 0 1 7 2c-10.371.203-13.871 5.203-10.5 15 6.413 6.865 12.413 6.531 18-1 1.975-6.323.142-10.99-5.5-14a64.394 64.394 0 0 1 7.5-4 38.463 38.463 0 0 1-.5 14.5c.584 4.501 1.25 9.001 2 13.5a340.149 340.149 0 0 0 1.5-26c2.013-2.25 3.18-1.584 3.5 2h-1c-1.32 2.928-1.986 6.261-2 10l1 10a64.875 64.875 0 0 0 1-16 35.26 35.26 0 0 1 6 8 134.39 134.39 0 0 0-1.5 13c-.36 1.921-1.194 3.588-2.5 5 1.434.73 2.6 1.73 3.5 3l4-2c-.558 2.067-.058 4.067 1.5 6-3.823-.333-5.323 1.334-4.5 5 .589-2.363 2.089-3.363 4.5-3 .19 2.459-.81 4.126-3 5-1-1.333-2-1.333-3 0-1.123-2.018-1.123-4.018 0-6a4.451 4.451 0 0 0-1.5-2c-.722 2.761-.555 5.427.5 8-1.291.237-2.291-.096-3-1 .237-1.291-.096-2.291-1-3-.76 3.46-2.26 3.793-4.5 1-.47 1.077-.303 2.077.5 3-1.915.284-3.581-.049-5-1-1.637.205-3.304-.295-5-1.5a14.72 14.72 0 0 0 5-1.5c-3.1-4.032-5.267-3.365-6.5 2a12.935 12.935 0 0 1-.5-5c-1.644.214-3.144-.12-4.5-1a12.5 12.5 0 0 0 0 7 8.435 8.435 0 0 0 .5-4h3v5h-7c-.39-2.966.277-5.632 2-8-1.921-1.141-3.921-1.308-6-.5 1.821 2.456 2.488 5.289 2 8.5-1.478.262-2.811-.071-4-1 .237-6.305.237-12.638 0-19a20.088 20.088 0 0 0 6-1.5c-2.226-1.227-3.726-3.061-4.5-5.5a111.432 111.432 0 0 0-2.5-21h3c-.45 2.478.218 4.478 2 6 2.104-2.083 2.438-4.416 1-7 1.544-1.122 2.877-.789 4 1 1.45-1.35 2.117-3.016 2-5-3.922-.617-3.922-1.284 0-2a61.17 61.17 0 0 1 13-1z"/><path style="opacity:1" fill="#511d2f" d="M31.5 104.5a18.452 18.452 0 0 1 6 .5c.457.414.79.914 1 1.5-2.994 1.333-5.328.666-7-2z"/><path style="opacity:1" fill="#d09755" d="M38.5 83.5h2c5.642 3.01 7.475 7.677 5.5 14-5.587 7.531-11.587 7.865-18 1-3.371-9.797.129-14.797 10.5-15z"/><path style="opacity:1" fill="#55250e" d="M39.5 86.5c-2.477-.45-4.477.218-6 2 1.921 1.141 3.921 1.308 6 .5.752-.67 1.086-1.504 1-2.5 4.871 4.089 5.205 8.589 1 13.5-9.762 3.243-13.596-.257-11.5-10.5 2.367-3.803 5.533-4.803 9.5-3z"/><path style="opacity:1" fill="#4e2029" d="M39.5 90.5h3v3c-4.173-.544-8.007.123-11.5 2a8.434 8.434 0 0 1-.5-4c3.213.31 6.213-.023 9-1z"/><path style="opacity:1" fill="#521d24" d="M39.5 86.5h1c.086.996-.248 1.83-1 2.5-2.079.808-4.079.641-6-.5 1.523-1.782 3.523-2.45 6-2z"/><path style="opacity:1" fill="#99745f" d="M149.5 127.5c-1.499-1.178-2.499-2.845-3-5-.501 2.155-1.501 3.822-3 5a21.127 21.127 0 0 1 1-9 13.315 13.315 0 0 0 4.5 3c.495 1.973.662 3.973.5 6z"/><path style="opacity:1" fill="#bd9583" d="M206.5 120.5c1.962-2.652 3.962-2.652 6 0-1.645-1.005-3.645-1.005-6 0z"/><path style="opacity:1" fill="#ba9480" d="M118.5 127.5h-4c-2.528-3.327-2.028-3.661 1.5-1a9.454 9.454 0 0 1 2.5-1.5 20.532 20.532 0 0 0-4.5-2.5 8.43 8.43 0 0 1-.5-4c4.541-.169 4.874.498 1 2a32.367 32.367 0 0 0 4.5 3c.579 1.428.412 2.762-.5 4z"/><path style="opacity:1" fill="#b8917e" d="M53.5 123.5c-3.638.763-5.138-.57-4.5-4 1.388-1.054 2.888-1.22 4.5-.5.95.718 1.117 1.551.5 2.5-1.363-2.284-2.863-2.451-4.5-.5 1.566.608 2.9 1.442 4 2.5z"/><path style="opacity:1" fill="#ac8772" d="M93.5 119.5c1.248.834 1.915 2.167 2 4l-.5 4c-1.375-2.437-1.875-5.103-1.5-8z"/><path style="opacity:1" fill="#be9984" d="M98.5 119.5c3.487.888 4.82 3.221 4 7-.934-1.068-1.268-2.401-1-4h-3c-.981 5.181-.981 4.181 0-3z"/><path style="opacity:1" fill="#c7a28d" d="M134.5 127.5h-1c-.436-2.864.397-5.197 2.5-7-.855 2.115-1.355 4.448-1.5 7z"/><path style="opacity:1" fill="#9d7863" d="M154.5 118.5c1.879-.107 2.212.393 1 1.5a4.457 4.457 0 0 0 2 1.5c4.585-1.519 6.085.148 4.5 5-3.652 1.495-5.652.161-6-4l-1 4c-.69 1.238-1.19 1.238-1.5 0-.221-2.779.112-5.446 1-8z"/><path style="opacity:1" fill="#98745e" d="M197.5 120.5c1.322-.17 2.489.163 3.5 1 .808 2.079.641 4.079-.5 6-1.333-6.667-2.667-6.667-4 0-1.333-2.638-1-4.971 1-7z"/><path style="opacity:1" fill="#a8836e" d="M206.5 120.5c-.601 4.409 1.066 5.742 5 4a4.457 4.457 0 0 0-2-1.5c2.752-.212 5.252-1.045 7.5-2.5 2.02.532 2.853 1.865 2.5 4-5.294.182-5.294.682 0 1.5-1.978 2.015-3.812 1.848-5.5-.5-1.77 1.918-3.937 2.418-6.5 1.5-2.108-2.016-2.442-4.183-1-6.5z"/><path style="opacity:1" fill="#4d2817" d="M216.5 121.5c2.637 1.654 2.303 2.154-1 1.5.556-.383.889-.883 1-1.5z"/><path style="opacity:1" fill="#af8875" d="M29.5 127.5h-2c.488-3.211-.179-6.044-2-8.5 2.079-.808 4.079-.641 6 .5-1.723 2.368-2.39 5.034-2 8z"/><path style="opacity:1" fill="#a9846f" d="M44.5 126.5a37.599 37.599 0 0 1-8 1v-5h-3a8.435 8.435 0 0 1-.5 4 12.5 12.5 0 0 1 0-7c1.356.88 2.856 1.214 4.5 1-.16 1.699.007 3.366.5 5 1.233-5.365 3.4-6.032 6.5-2a14.72 14.72 0 0 1-5 1.5c1.696 1.205 3.363 1.705 5 1.5z"/><path style="opacity:1" fill="#b08a78" d="M66.5 120.5c1.491.401 3.158.568 5 .5 1.226 5.601.726 5.768-1.5.5-1.87 1.497-2.87 3.497-3 6a24.939 24.939 0 0 1-.5-7z"/><path style="opacity:1" fill="#8b6651" d="M87.5 118.5a2.429 2.429 0 0 1 2 .5c-.625 2.8-1.292 5.634-2 8.5a14.729 14.729 0 0 1-1.5-5c.15 4.37-1.684 5.703-5.5 4-1.26-4.572.407-6.405 5-5.5.88-.708 1.547-1.542 2-2.5z"/><path style="opacity:1" fill="#a47f6a" d="M108.5 126.5c-1.068.934-2.401 1.268-4 1-1.713-2.948-1.213-5.282 1.5-7 4.883 2.683 4.383 4.183-1.5 4.5 1.558.21 2.891.71 4 1.5z"/><path style="opacity:1" fill="#a8836e" d="M124.5 127.5c-1.459.067-2.792-.266-4-1-.063-6.698 1.937-7.531 6-2.5-5.675.464-6.008 1.131-1 2-.556.383-.889.883-1 1.5z"/><path style="opacity:1" fill="#af8a74" d="M129.5 127.5h-2v-4c1.175.219 2.175-.114 3-1-.762-.411-1.762-.577-3-.5 1.365-1.682 2.865-1.849 4.5-.5.798 1.759.631 3.426-.5 5-2.41-2.581-3.076-2.248-2 1z"/><path style="opacity:1" fill="#4d2915" d="M158.5 122.5h3v3c-2.994.354-3.994-.646-3-3z"/><path style="opacity:1" fill="#b6917c" d="M171.5 120.5h4a18.453 18.453 0 0 1-.5 6 4.457 4.457 0 0 0-1.5-2c-1.211.774-1.211 1.607 0 2.5a4.934 4.934 0 0 1-3 .5c-.28-2.888 1.053-4.388 4-4.5-.753-1.487-1.586-1.654-2.5-.5a2.428 2.428 0 0 1-.5-2z"/><path style="opacity:1" fill="#d2ac98" d="M185.5 122.5c-1.068.934-2.401 1.268-4 1a8.43 8.43 0 0 1-.5 4 40.914 40.914 0 0 1-.5-9 12.93 12.93 0 0 1 5 .5c1.291 1.292 1.291 2.458 0 3.5z"/><path style="opacity:1" fill="#562f1d" d="M185.5 122.5h-4v-3c2.473-.412 3.806.588 4 3z"/><path style="opacity:1" fill="#b6917a" d="M220.5 120.5h5a18.453 18.453 0 0 1-.5 6 8.43 8.43 0 0 1-.5-4h-3a8.43 8.43 0 0 1-.5 4 18.453 18.453 0 0 1-.5-6z"/><path style="opacity:1" fill="#c6a28c" d="M163.5 121.5a2.428 2.428 0 0 1 2 .5c-1.377 7.342-2.044 7.176-2-.5z"/><path style="opacity:1" fill="#a8826d" d="M188.5 120.5c1.322-.17 2.489.163 3.5 1 .667 2 .667 4 0 6l-2.5-3c-.498 1.103-.831 2.103-1 3-.929-1.189-1.262-2.522-1-4 1.175.219 2.175-.114 3-1-.762-.411-1.762-.577-3-.5.556-.383.889-.883 1-1.5z"/><path style="opacity:1" fill="#c39f89" d="M58.5 127.5h-1c-1.055-2.573-1.222-5.239-.5-8a4.451 4.451 0 0 1 1.5 2c-1.123 1.982-1.123 3.982 0 6z"/><path style="opacity:1" fill="#b38f79" d="M53.5 123.5c.904.709 1.237 1.709 1 3-1.542.801-3.209 1.134-5 1-.803-.923-.97-1.923-.5-3 2.24 2.793 3.74 2.46 4.5-1z"/><path style="opacity:1" fill="#ac8672" d="M64.5 120.5c2.048 3.904 1.048 6.238-3 7 2.19-.874 3.19-2.541 3-5-2.411-.363-3.911.637-4.5 3-.823-3.666.677-5.333 4.5-5z"/><path style="opacity:1" fill="#af8a75" d="M141.5 127.5h-3c-1.011-1.902-1.178-3.902-.5-6 1.88-1.43 3.38-1.096 4.5 1-.855.793-1.689.46-2.5-1-2 1.667-2 3.333 0 5 2.179-1.34 2.679-1.007 1.5 1z"/><path style="opacity:1" fill="#a9836d" d="M227.5 121.5c1.184 1.91 2.684 2.243 4.5 1l.5 1a10.258 10.258 0 0 1-4 1.5c1.072 1.284 2.405 1.617 4 1-1.978 2.015-3.812 1.848-5.5-.5-.195-1.319-.028-2.653.5-4z"/><path style="opacity:1" fill="#462614" d="m242.5 168.5-1 2h-145v117h-1v-118c14.725-.283 29.392-.283 44 0 6.812.002 13.312-1.332 19.5-4a8.43 8.43 0 0 1 .5 4c5.895.554 11.562-.112 17-2 5.838.474 11.838 1.14 18 2 13.879-1.987 27.546-1.987 41 0 2.358-.253 4.692-.586 7-1z"/><path style="opacity:1" fill="#604a33" d="M244.5 169.5h38v22h-1v-19a68.206 68.206 0 0 0-14-1 96.254 96.254 0 0 0-19 1c-2.873-.302-5.539-.969-8-2h1c1.291.237 2.291-.096 3-1z"/><path style="opacity:1" fill="#a48b69" d="M191.5 171.5a529.904 529.904 0 0 1 46 1c3.257 1.262 5.923 3.262 8 6-1.853 1.26-3.686 1.26-5.5 0a150.32 150.32 0 0 1-9 4l-2.5-2.5a66.214 66.214 0 0 1-10-3.5 88.736 88.736 0 0 0 4 7c2.998 1.657 5.331 3.99 7 7-3.279.992-6.612 1.159-10 .5a41.107 41.107 0 0 0-8.5-6.5l-1 1c-2.079-2.983-2.913-6.317-2.5-10-4.905.614-10.238.614-16 0v-4z"/><path style="opacity:1" fill="#5c5045" d="M156.5 170.5h16c.473 1.406 1.473 2.073 3 2v1a112.97 112.97 0 0 0-15 .5c.88 1.356 1.214 2.856 1 4.5 3.242 2.219 6.908 3.386 11 3.5 3.771 4.189 6.271 8.689 7.5 13.5a14.51 14.51 0 0 1 4.5 4.5c2.068.687 4.068.52 6-.5a514.367 514.367 0 0 1 3 4v4c-7.953-.991-13.286-5.325-16-13a319.052 319.052 0 0 1-13.5-10 142.027 142.027 0 0 1-7.5-14z"/><path style="opacity:1" fill="#6e5c4d" d="M267.5 171.5c.111.617.444 1.117 1 1.5-4.737.112-9.404.278-14 .5l-1 1c1.761 1.417 3.094 3.083 4 5a20.69 20.69 0 0 0-5-1c-1.098-.897-1.098-1.73 0-2.5a14.72 14.72 0 0 1-5-1.5c.363-.683.696-1.35 1-2a96.254 96.254 0 0 1 19-1z"/><path style="opacity:1" fill="#544c47" d="M267.5 171.5a68.206 68.206 0 0 1 14 1v9a97.332 97.332 0 0 1-10.5-6c-2.265 1.416-3.431 3.416-3.5 6 1.478-.262 2.811.071 4 1a60 60 0 0 1 5 9 100.586 100.586 0 0 0-19-12c-.906-1.917-2.239-3.583-4-5l1-1c4.596-.222 9.263-.388 14-.5-.556-.383-.889-.883-1-1.5z"/><path style="opacity:1" fill="#333239" d="M281.5 181.5v10h-5a60 60 0 0 0-5-9c-1.189-.929-2.522-1.262-4-1 .069-2.584 1.235-4.584 3.5-6a97.332 97.332 0 0 0 10.5 6z"/><path style="opacity:1" fill="#44403d" d="M175.5 173.5c1.278.282 2.278.949 3 2 3.78 7.706 9.78 12.872 18 15.5a93.637 93.637 0 0 1 10 9.5c-1 .333-1.667 1-2 2-2.73 1.481-5.23 1.147-7.5-1a11.803 11.803 0 0 0-3.5 2 514.367 514.367 0 0 0-3-4c-1.932 1.02-3.932 1.187-6 .5a14.51 14.51 0 0 0-4.5-4.5c-1.229-4.811-3.729-9.311-7.5-13.5-4.092-.114-7.758-1.281-11-3.5.214-1.644-.12-3.144-1-4.5a112.97 112.97 0 0 1 15-.5z"/><path style="opacity:1" fill="#8d7558" d="M172.5 170.5h68c2.461 1.031 5.127 1.698 8 2-.304.65-.637 1.317-1 2a14.72 14.72 0 0 0 5 1.5c-1.098.77-1.098 1.603 0 2.5a29.812 29.812 0 0 0-5-.5 7.293 7.293 0 0 0 3 2c-3.242.283-3.576 1.117-1 2.5-.438 1.006-1.104 1.006-2 0-.886.825-1.219 1.825-1 3-1.395-1.554-2.061-1.221-2 1a43.765 43.765 0 0 1 3 7.5 10.258 10.258 0 0 1-4 1.5 552.537 552.537 0 0 0-14-5c-1.669-3.01-4.002-5.343-7-7a88.736 88.736 0 0 1-4-7 66.214 66.214 0 0 0 10 3.5l2.5 2.5a150.32 150.32 0 0 0 9-4c1.814 1.26 3.647 1.26 5.5 0-2.077-2.738-4.743-4.738-8-6a529.904 529.904 0 0 0-46-1c-5.526-.321-10.86.012-16 1-1.527.073-2.527-.594-3-2z"/><path style="opacity:1" fill="#78654c" d="M100.5 175.5c2.131 3.758 5.464 6.091 10 7a47.943 47.943 0 0 1 6 10 29.937 29.937 0 0 1 5 5c2.592 3.971 6.259 6.471 11 7.5a895.38 895.38 0 0 1 7 6.5c-.59 1.597-1.59 2.931-3 4 4.11 2.965 3.443 4.299-2 4-.282-1.278-.949-2.278-2-3-.06-.543-.393-.876-1-1-.952 1.545-1.285 3.212-1 5h-3a50.464 50.464 0 0 0-.5-10c-1.868 1.172-3.702 1.005-5.5-.5-5.331-3.339-9.998-7.339-14-12a7.248 7.248 0 0 0 2-2.5c-1.729-2.351-2.396-5.018-2-8h-3c.423-.765.757-1.598 1-2.5a73.514 73.514 0 0 1-5-9.5z"/><path style="opacity:1" fill="#938170" d="M191.5 171.5v4c1.974 2.859 4.307 5.526 7 8 3.592 1.445 6.592 3.778 9 7a68.94 68.94 0 0 1 12 8c.886.825 1.219 1.825 1 3h3v6c-3.078-1.906-5.744-4.406-8-7.5-2.803-.678-5.303-1.844-7.5-3.5l-1 1a286.52 286.52 0 0 1-7.5-10c-2.343-2.07-5.009-3.403-8-4-.065 3.498-1.399 3.998-4 1.5-1.333-.667-1.333-1.333 0-2a232.344 232.344 0 0 1-9-7.5c-.722-1.051-1.722-1.718-3-2v-1c5.14-.988 10.474-1.321 16-1z"/><path style="opacity:1" fill="#857361" d="M252.5 178.5a20.69 20.69 0 0 1 5 1 100.586 100.586 0 0 1 19 12h5v24c-4.144-3.068-8.811-5.068-14-6-2.754-2.928-6.087-4.762-10-5.5 1.493-1.156 1.326-1.99-.5-2.5a57.553 57.553 0 0 1-6.5-3c-1.67-3.758-2.503-7.758-2.5-12-.383-.556-.883-.889-1.5-1-.219-1.175.114-2.175 1-3 .896 1.006 1.562 1.006 2 0-2.576-1.383-2.242-2.217 1-2.5a7.293 7.293 0 0 1-3-2c1.607.019 3.274.185 5 .5z"/><path style="opacity:1" fill="#987656" d="M207.5 207.5h5v4h-5v-4z"/><path style="opacity:1" fill="#756351" d="M156.5 170.5a142.027 142.027 0 0 0 7.5 14 319.052 319.052 0 0 0 13.5 10c2.714 7.675 8.047 12.009 16 13v-4a11.803 11.803 0 0 1 3.5-2c2.27 2.147 4.77 2.481 7.5 1a117.417 117.417 0 0 1-7 17l-6-2c-2.191-.791-4.191-.791-6 0-2.284-.475-4.284-1.475-6-3-2.364-2.793-4.03-6.127-5-10-2.49-2.725-5.49-4.725-9-6-1.827-1.987-2.827-4.321-3-7h-3c.302-2.559-.032-4.893-1-7-1.648-1.956-2.315-4.289-2-7-3.457-.46-5.123-2.46-5-6h-51v4a73.514 73.514 0 0 0 5 9.5 11.123 11.123 0 0 1-1 2.5 46.755 46.755 0 0 0 1 13c-1.32 1.77-2.82 2.103-4.5 1l-.5 3a284.439 284.439 0 0 0 6.5 15c.821 3.054.655 6.054-.5 9-2.256-.921-3.256-2.588-3-5h-7v-53h60z"/><path style="opacity:1" fill="#8a7764" d="M158.5 184.5c.968 2.107 1.302 4.441 1 7h3c.173 2.679 1.173 5.013 3 7 3.51 1.275 6.51 3.275 9 6 .97 3.873 2.636 7.207 5 10a34.119 34.119 0 0 1-10-1c-5.212-1.161-9.879-3.161-14-6-.322 2.222.345 4.056 2 5.5l-1 1c-3.905.751-7.571.251-11-1.5-1.765-.961-3.765-1.295-6-1a895.38 895.38 0 0 0-7-6.5c-4.741-1.029-8.408-3.529-11-7.5 1.79-1.497 3.956-2.164 6.5-2a85.81 85.81 0 0 1 7.5 1v-3c3.149.289 6.149-.211 9-1.5-1.154-.914-.987-1.747.5-2.5a9.201 9.201 0 0 0 4.5 2c3.625-1.636 6.625-3.97 9-7z"/><path style="opacity:1" fill="#8f765a" d="M158.5 184.5c-2.375 3.03-5.375 5.364-9 7a9.201 9.201 0 0 1-4.5-2c-1.487.753-1.654 1.586-.5 2.5-2.851 1.289-5.851 1.789-9 1.5v3a85.81 85.81 0 0 0-7.5-1c-2.544-.164-4.71.503-6.5 2a29.937 29.937 0 0 0-5-5 47.943 47.943 0 0 0-6-10c-4.536-.909-7.869-3.242-10-7v-4h51c-.123 3.54 1.543 5.54 5 6-.315 2.711.352 5.044 2 7z"/><path style="opacity:1" fill="#885630" d="M206.5 200.5c.667 0 1 .333 1 1v1c-.958.453-1.792 1.119-2.5 2l-1 8c-2.454 1.941-4.287 4.275-5.5 7h-1a117.417 117.417 0 0 0 7-17c.333-1 1-1.667 2-2z"/><path style="opacity:1" fill="#554e46" d="M207.5 201.5a124.807 124.807 0 0 1 19 13.5 91.05 91.05 0 0 0 12 4.5c1.231 1.151 1.231 2.317 0 3.5a144.8 144.8 0 0 1 5 4.5c-1.517.011-2.684.677-3.5 2-.283-3.242-1.117-3.576-2.5-1-.886-.825-1.219-1.825-1-3-3.596.416-5.596-.751-6-3.5-2.027-1.879-4.36-3.046-7-3.5-2.726-1.801-4.392-1.134-5 2l-2-4h-1c.584-2.785-.416-4.452-3-5v-4h-5v-6z"/><path style="opacity:1" fill="#cc672a" d="M207.5 213.5a31.147 31.147 0 0 1 2 2c1.503-.552 3.169-.552 5 0-.237 1.291.096 2.291 1 3a95.62 95.62 0 0 0 0 21h-3c-.624-.417-.957-1.084-1-2a87.99 87.99 0 0 1 3-14c-.011-1.545-.344-2.878-1-4-.25-1.422-1.083-2.422-2.5-3-1.011.837-2.178 1.17-3.5 1v-4z"/><path style="opacity:1" fill="#a2896c" d="M191.5 175.5c5.762.614 11.095.614 16 0-.413 3.683.421 7.017 2.5 10l1-1a41.107 41.107 0 0 1 8.5 6.5c3.388.659 6.721.492 10-.5a552.537 552.537 0 0 1 14 5 10.258 10.258 0 0 0 4-1.5 43.765 43.765 0 0 0-3-7.5c-.061-2.221.605-2.554 2-1 .617.111 1.117.444 1.5 1-.003 4.242.83 8.242 2.5 12a57.553 57.553 0 0 0 6.5 3c1.826.51 1.993 1.344.5 2.5 3.913.738 7.246 2.572 10 5.5 5.189.932 9.856 2.932 14 6v24h-10c.741-6.771-2.259-10.937-9-12.5-.719-2.556-2.386-3.723-5-3.5-1.499-1.178-2.499-2.845-3-5a115.134 115.134 0 0 0-13-6c-1.505-1.342-2.172-3.008-2-5a9.86 9.86 0 0 0-6 1c1.626 1.49 3.292 2.99 5 4.5a2.428 2.428 0 0 1-2 .5 78.32 78.32 0 0 0-13-6v-6h-3c.219-1.175-.114-2.175-1-3a68.94 68.94 0 0 0-12-8c-2.408-3.222-5.408-5.555-9-7-2.693-2.474-5.026-5.141-7-8z"/><path style="opacity:1" fill="#a78f73" d="M179.5 214.5c1.716 1.525 3.716 2.525 6 3-7.14 4.401-14.807 8.067-23 11a54.273 54.273 0 0 1-12-5 20.2 20.2 0 0 1-1.5-6c-1.852-1.195-3.019-2.862-3.5-5 3.429 1.751 7.095 2.251 11 1.5l1-1c-1.655-1.444-2.322-3.278-2-5.5 4.121 2.839 8.788 4.839 14 6a34.119 34.119 0 0 0 10 1z"/><path style="opacity:1" fill="#b3613b" d="M207.5 211.5h5c2.584.548 3.584 2.215 3 5v2c-.904-.709-1.237-1.709-1-3-1.831-.552-3.497-.552-5 0a31.147 31.147 0 0 0-2-2v-2z"/><path style="opacity:1" fill="#7f736a" d="M178.5 175.5a232.344 232.344 0 0 0 9 7.5c-1.333.667-1.333 1.333 0 2 2.601 2.498 3.935 1.998 4-1.5 2.991.597 5.657 1.93 8 4a286.52 286.52 0 0 0 7.5 10l1-1c2.197 1.656 4.697 2.822 7.5 3.5 2.256 3.094 4.922 5.594 8 7.5a78.32 78.32 0 0 1 13 6c.304.65.637 1.317 1 2 6.311 1.982 10.645 5.982 13 12 .131.876-.202 1.543-1 2l-3-2c-.806 2.862-2.139 3.362-4 1.5.556-.383.889-.883 1-1.5a144.8 144.8 0 0 0-5-4.5c1.231-1.183 1.231-2.349 0-3.5a91.05 91.05 0 0 1-12-4.5 124.807 124.807 0 0 0-19-13.5c0-.667-.333-1-1-1a93.637 93.637 0 0 0-10-9.5c-8.22-2.628-14.22-7.794-18-15.5z"/><path style="opacity:1" fill="#80705f" d="M104.5 187.5h3c-.396 2.982.271 5.649 2 8a7.248 7.248 0 0 1-2 2.5c4.002 4.661 8.669 8.661 14 12 1.798 1.505 3.632 1.672 5.5.5.498 3.317.665 6.65.5 10h3c-.285-1.788.048-3.455 1-5 .607.124.94.457 1 1-1.073 1.847-1.073 3.847 0 6a49.79 49.79 0 0 1-5 11 18.924 18.924 0 0 1 3 5c-1.544 1.122-2.877.789-4-1-1.024 1.353-2.357 2.02-4 2a16.873 16.873 0 0 1-1 8c-2.12-1.372-3.12-.705-3 2-1.175.219-2.175-.114-3-1-1.669-4.01-3.336-8.01-5-12-2.928-1.421-4.262-.421-4 3a4.934 4.934 0 0 0-3 .5 55.747 55.747 0 0 0 4.5 5.5c.497 2.31.663 4.643.5 7-2.092-.061-3.592-1.061-4.5-3a411.544 411.544 0 0 1-2-18 109.041 109.041 0 0 0-3.5-8h5c-.256 2.412.744 4.079 3 5 1.155-2.946 1.321-5.946.5-9a284.439 284.439 0 0 1-6.5-15l.5-3c1.68 1.103 3.18.77 4.5-1a46.755 46.755 0 0 1-1-13z"/><path style="opacity:1" fill="#907c69" d="M257.5 223.5c.975 2.748 2.808 4.748 5.5 6 .997 3.169.33 5.836-2 8-1.312-2.158-2.978-2.491-5-1-.026-4.176-1.859-7.176-5.5-9-2.355-6.018-6.689-10.018-13-12a43.836 43.836 0 0 1-1-2 2.428 2.428 0 0 0 2-.5 377.167 377.167 0 0 1-5-4.5 9.86 9.86 0 0 1 6-1c-.172 1.992.495 3.658 2 5 4.479 1.74 8.812 3.74 13 6 .501 2.155 1.501 3.822 3 5z"/><path style="opacity:1" fill="#896f52" d="M139.5 211.5c2.235-.295 4.235.039 6 1 .481 2.138 1.648 3.805 3.5 5a20.2 20.2 0 0 0 1.5 6 54.273 54.273 0 0 0 12 5 72.667 72.667 0 0 0-7.5 7c-.74 1.249-.573 2.249.5 3v1a5.727 5.727 0 0 1-3 1c.841-1.879 1.175-3.879 1-6-3.67-.173-6.17 1.493-7.5 5a120.23 120.23 0 0 0-11.5-20c5.443.299 6.11-1.035 2-4 1.41-1.069 2.41-2.403 3-4z"/><path style="opacity:1" fill="#c27534" d="M207.5 202.5v11c-6.325 1.888-8.825 6.222-7.5 13l-4 8c.102 4.456-.732 8.456-2.5 12a131.722 131.722 0 0 0 1.5-15 15.39 15.39 0 0 1 3-6c.495-1.973.662-3.973.5-6 1.213-2.725 3.046-5.059 5.5-7l1-8c.708-.881 1.542-1.547 2.5-2z"/><path style="opacity:1" fill="#6e3917" d="M191.5 217.5c.34 2.179 1.34 4.012 3 5.5l-8 1c-2.525.424-4.525 1.59-6 3.5a106.562 106.562 0 0 0-17 4.5c-3.436 1.274-6.103 3.441-8 6.5-1.073-.751-1.24-1.751-.5-3a72.667 72.667 0 0 1 7.5-7c8.193-2.933 15.86-6.599 23-11 1.809-.791 3.809-.791 6 0z"/><path style="opacity:1" fill="#b0845b" d="m191.5 217.5 6 2h1a18.453 18.453 0 0 1-.5 6 15.39 15.39 0 0 0-3 6 131.722 131.722 0 0 1-1.5 15h-2c-.23-3.194.436-6.194 2-9a33.74 33.74 0 0 0-2-7 8.905 8.905 0 0 0-4 3l-2-1c-1.72 1.455-3.72 2.288-6 2.5a9.175 9.175 0 0 1 2 4.5c-3.208-1.574-4.542-4.241-4-8 4.04 1.987 7.04.987 9-3a9.86 9.86 0 0 0-6-1c1.475-1.91 3.475-3.076 6-3.5l8-1c-1.66-1.488-2.66-3.321-3-5.5z"/><path style="opacity:1" fill="#ad9376" d="M132.5 216.5c1.051.722 1.718 1.722 2 3a120.23 120.23 0 0 1 11.5 20c1.33-3.507 3.83-5.173 7.5-5 .175 2.121-.159 4.121-1 6-1.564 2.415-3.398 4.748-5.5 7a44.26 44.26 0 0 1-3 15 24.935 24.935 0 0 1-.5-7h-8a25.567 25.567 0 0 1-4 8.5c1.951 4.729 3.451 4.562 4.5-.5a22.981 22.981 0 0 1 2 5c1.557-.705 2.723-.039 3.5 2-3.086 3.41-2.42 5.41 2 6v3c-.617.111-1.117.444-1.5 1a47.655 47.655 0 0 1-9-7c-.893 1.211-1.726 1.211-2.5 0a3.647 3.647 0 0 1 1-1.5 122.604 122.604 0 0 1-6-21c-.881-4.46.619-5.96 4.5-4.5 1.895-.115 3.562-.782 5-2 .472-5.323-.694-10.156-3.5-14.5-.061-2.279.605-4.279 2-6-.07-.765-.403-1.265-1-1.5-1.073-2.153-1.073-4.153 0-6z"/><path style="opacity:1" fill="#674a28" d="M281.5 191.5h1v105c-1.291.237-2.291-.096-3-1 1.869-2.135 2.536-4.802 2-8v-96z"/><path style="opacity:1" fill="#9f866c" d="m216.5 216.5 2 4v21c-.809-1.792-1.309-3.792-1.5-6-.5-6.325-.666-12.658-.5-19z"/><path style="opacity:1" fill="#24180f" d="M223.5 218.5v66a6.846 6.846 0 0 0-4 1 9.86 9.86 0 0 1-1-6v-1c.722-.418 1.222-1.084 1.5-2 .821-7.179.655-14.179-.5-21a76.926 76.926 0 0 0-1-10v-25c.608-3.134 2.274-3.801 5-2z"/><path style="opacity:1" fill="#b57c58" d="M215.5 216.5h1c-.166 6.342 0 12.675.5 19 .191 2.208.691 4.208 1.5 6v4l-2-3c.237-1.291-.096-2.291-1-3a95.62 95.62 0 0 1 0-21v-2z"/><path style="opacity:1" fill="#e3822d" d="M207.5 213.5v4c1.322.17 2.489-.163 3.5-1 1.417.578 2.25 1.578 2.5 3-7.432-1.878-11.265 1.122-11.5 9a10.515 10.515 0 0 0-2.5 3c-.617.111-1.117.444-1.5 1a50.464 50.464 0 0 0-.5 10 183.266 183.266 0 0 1-.5 18c2.32 3.24 4.487 6.574 6.5 10 1.189.929 2.522 1.262 4 1h1c1.044 2.343 2.71 4.01 5 5-6.132-.115-10.465-2.782-13-8-.473-1.406-1.473-2.073-3-2-.531-2.044-1.698-3.711-3.5-5-.222-3.556-1.056-6.889-2.5-10v-5h2c1.768-3.544 2.602-7.544 2.5-12l4-8c-1.325-6.778 1.175-11.112 7.5-13z"/><path style="opacity:1" fill="#f0821e" d="M199.5 231.5a358.463 358.463 0 0 1 1.5 10c2.041.923 4.208 1.256 6.5 1a23.795 23.795 0 0 0 2 10c-1.413 5.486-1.246 10.82.5 16 .278-.916.778-1.582 1.5-2v5h-4c.166-7.008 0-14.008-.5-21-3.243-.908-5.577-2.908-7-6l-1 3c-.198-1.882-.698-3.548-1.5-5-.165-3.35.002-6.683.5-10 .383-.556.883-.889 1.5-1z"/><path style="opacity:1" fill="#957a60" d="M191.5 246.5v5h-4c.135-2.054-.532-3.721-2-5a22.455 22.455 0 0 0-4-7 9.175 9.175 0 0 0-2-4.5c2.28-.212 4.28-1.045 6-2.5l2 1a8.905 8.905 0 0 1 4-3 33.74 33.74 0 0 1 2 7c-1.564 2.806-2.23 5.806-2 9z"/><path style="opacity:1" fill="#9e8667" d="M281.5 256.5v15a8.43 8.43 0 0 1-4-.5c-1.528-3.517-4.028-4.683-7.5-3.5a34.367 34.367 0 0 1-7.5-3c-.886-.825-1.219-1.825-1-3-2.235.295-4.235-.039-6-1a233.853 233.853 0 0 0-12-5.5c-.776-2.987-2.443-3.82-5-2.5a14.972 14.972 0 0 1-3.5-3c-2.373 2.804-4.206 2.471-5.5-1a7.293 7.293 0 0 1 2-3 82.206 82.206 0 0 0-6.5-5 42.479 42.479 0 0 1 0-13 123.76 123.76 0 0 0 14.5 5v4c5.617-.143 9.117 2.523 10.5 8l1-1a418.88 418.88 0 0 0 7 4c5.315-1.443 9.149.39 11.5 5.5a15.91 15.91 0 0 1 4.5 2.5l3-1a15.414 15.414 0 0 0 4.5 2z"/><path style="opacity:1" fill="#8d765b" d="M223.5 218.5c2.64.454 4.973 1.621 7 3.5.404 2.749 2.404 3.916 6 3.5-.219 1.175.114 2.175 1 3 1.383-2.576 2.217-2.242 2.5 1 .816-1.323 1.983-1.989 3.5-2-.111.617-.444 1.117-1 1.5 1.861 1.862 3.194 1.362 4-1.5l3 2c.798-.457 1.131-1.124 1-2 3.641 1.824 5.474 4.824 5.5 9 2.022-1.491 3.688-1.158 5 1 2.33-2.164 2.997-4.831 2-8-2.692-1.252-4.525-3.252-5.5-6 2.614-.223 4.281.944 5 3.5 6.741 1.563 9.741 5.729 9 12.5h10v17a15.414 15.414 0 0 1-4.5-2l-3 1a15.91 15.91 0 0 0-4.5-2.5c-2.351-5.11-6.185-6.943-11.5-5.5a418.88 418.88 0 0 1-7-4l-1 1c-1.383-5.477-4.883-8.143-10.5-8v-4a123.76 123.76 0 0 1-14.5-5 42.479 42.479 0 0 0 0 13 82.206 82.206 0 0 1 6.5 5 7.293 7.293 0 0 0-2 3c1.294 3.471 3.127 3.804 5.5 1a14.972 14.972 0 0 0 3.5 3c2.557-1.32 4.224-.487 5 2.5a233.853 233.853 0 0 1 12 5.5c-2.744 1.01-5.077.676-7-1a11.38 11.38 0 0 0-2 2.5 13.92 13.92 0 0 1 3 4c2.379.716 4.379 1.883 6 3.5a12.93 12.93 0 0 1-5-.5 4298.936 4298.936 0 0 0-8.5-6.5c-2.02.532-2.853 1.865-2.5 4-4.148-.031-7.148-1.031-9-3v-4a15.057 15.057 0 0 1-6-3c.302-2.559-.032-4.893-1-7v-31z"/><path style="opacity:1" fill="#f09025" d="M197.5 242.5c.802 1.452 1.302 3.118 1.5 5l1-3c1.423 3.092 3.757 5.092 7 6 .5 6.992.666 13.992.5 21-1.478.262-2.811-.071-4-1a132.232 132.232 0 0 0-6.5-10c.465-6.121.632-12.121.5-18z"/><path style="opacity:1" fill="#cc5429" d="M215.5 239.5c.904.709 1.237 1.709 1 3a178.492 178.492 0 0 1 2 29v5h-4c1.512-5.188 2.178-10.522 2-16-.303-7.006-.637-14.006-1-21z"/><path style="opacity:1" fill="#d09e67" d="M180.5 227.5a9.86 9.86 0 0 1 6 1c-1.96 3.987-4.96 4.987-9 3-.542 3.759.792 6.426 4 8a22.455 22.455 0 0 1 4 7c-5.956 2.646-11.956 2.646-18 0-.916.043-1.583.376-2 1-2.441 2.77-3.774 6.103-4 10-4.223 10.116-1.89 12.116 7 6l-2-2a140.089 140.089 0 0 1 7.5-12c3.468 1.303 6.968 1.303 10.5 0l1 1c-2.256.921-3.256 2.588-3 5h-4c-2.464 6.835-5.631 13.502-9.5 20-5.056 6.23-11.556 8.896-19.5 8-.077-1.25-.744-2.083-2-2.5.685-9.697 1.519-19.53 2.5-29.5a32.779 32.779 0 0 0 5.5-12v-1c1.897-3.059 4.564-5.226 8-6.5a106.562 106.562 0 0 1 17-4.5z"/><path style="opacity:1" fill="#ee9427" d="M213.5 219.5c.656 1.122.989 2.455 1 4a87.99 87.99 0 0 0-3 14c.043.916.376 1.583 1 2a585.884 585.884 0 0 1-1 27c-.722.418-1.222 1.084-1.5 2-1.746-5.18-1.913-10.514-.5-16a23.795 23.795 0 0 1-2-10c-2.292.256-4.459-.077-6.5-1a358.463 358.463 0 0 0-1.5-10 10.515 10.515 0 0 1 2.5-3c.235-7.878 4.068-10.878 11.5-9z"/><path style="opacity:1" fill="#856035" d="M165.5 247.5h3a8.43 8.43 0 0 1-.5 4 35.061 35.061 0 0 0-6 8 2.428 2.428 0 0 1-.5-2c.226-3.897 1.559-7.23 4-10z"/><path style="opacity:1" fill="#9a8368" d="M132.5 222.5c.597.235.93.735 1 1.5-1.395 1.721-2.061 3.721-2 6 2.806 4.344 3.972 9.177 3.5 14.5-1.438 1.218-3.105 1.885-5 2-3.881-1.46-5.381.04-4.5 4.5a122.604 122.604 0 0 0 6 21 3.647 3.647 0 0 0-1 1.5c.774 1.211 1.607 1.211 2.5 0a47.655 47.655 0 0 0 9 7c.383-.556.883-.889 1.5-1v3l6 1v1a126.86 126.86 0 0 0-11 2 49.369 49.369 0 0 1-11 1c-6.675.166-13.342 0-20-.5a18.924 18.924 0 0 1 5-3c-.964-4.066-1.297-8.233-1-12.5-2.164-.221-3.83-1.221-5-3a80.561 80.561 0 0 1-8.5-17c-.278.916-.778 1.582-1.5 2v-30h2a109.041 109.041 0 0 1 3.5 8 411.544 411.544 0 0 0 2 18c.908 1.939 2.408 2.939 4.5 3a24.935 24.935 0 0 0-.5-7 55.747 55.747 0 0 1-4.5-5.5 4.934 4.934 0 0 1 3-.5c-.262-3.421 1.072-4.421 4-3 1.664 3.99 3.331 7.99 5 12 .825.886 1.825 1.219 3 1-.12-2.705.88-3.372 3-2a16.873 16.873 0 0 0 1-8c1.643.02 2.976-.647 4-2 1.123 1.789 2.456 2.122 4 1a18.924 18.924 0 0 0-3-5 49.79 49.79 0 0 0 5-11z"/><path style="opacity:1" fill="#b89673" d="M155.5 239.5a32.779 32.779 0 0 1-5.5 12c-.981 9.97-1.815 19.803-2.5 29.5 1.256.417 1.923 1.25 2 2.5l-6-1v-6c-4.42-.59-5.086-2.59-2-6-.777-2.039-1.943-2.705-3.5-2a22.981 22.981 0 0 0-2-5c-1.049 5.062-2.549 5.229-4.5.5a25.567 25.567 0 0 0 4-8.5h8c-.163 2.357.003 4.69.5 7a44.26 44.26 0 0 0 3-15c2.102-2.252 3.936-4.585 5.5-7a5.727 5.727 0 0 0 3-1z"/><path style="opacity:1" fill="#ed7326" d="M212.5 239.5h3c.363 6.994.697 13.994 1 21 .178 5.478-.488 10.812-2 16h-1c-2.29-.99-3.956-2.657-5-5h3v-5c.541-8.991.874-17.991 1-27z"/><path style="opacity:1" fill="#736354" d="M106.5 268.5c.273 1.951-.393 3.451-2 4.5.84 1.666.34 1.833-1.5.5-2.099 1.987-3.266 4.487-3.5 7.5 2.975 3.879 1.975 6.046-3 6.5v-34c.722-.418 1.222-1.084 1.5-2a80.561 80.561 0 0 0 8.5 17z"/><path style="opacity:1" fill="#a84a2d" d="m216.5 242.5 2 3c.551 3.307.884 6.64 1 10 .321 5.526-.012 10.86-1 16a178.492 178.492 0 0 0-2-29z"/><path style="opacity:1" fill="#826f5d" d="M255.5 260.5c1.765.961 3.765 1.295 6 1-.219 1.175.114 2.175 1 3a34.367 34.367 0 0 0 7.5 3c3.472-1.183 5.972-.017 7.5 3.5a8.43 8.43 0 0 0 4 .5v16c-6.134-4.808-12.801-8.974-20-12.5-1.975-2.092-3.975-3.925-6-5.5-1.621-1.617-3.621-2.784-6-3.5a13.92 13.92 0 0 0-3-4 11.38 11.38 0 0 1 2-2.5c1.923 1.676 4.256 2.01 7 1z"/><path style="opacity:1" fill="#bf9261" d="M165.5 247.5c.417-.624 1.084-.957 2-1 6.044 2.646 12.044 2.646 18 0 1.468 1.279 2.135 2.946 2 5h4c1.444 3.111 2.278 6.444 2.5 10 1.802 1.289 2.969 2.956 3.5 5-1.553 1.885-3.553 2.885-6 3-1.322.17-2.489-.163-3.5-1a147.974 147.974 0 0 1-3.5-9l-2-1c-5.23 2.794-7.563 7.128-7 13h-3c-.086 2.177-.753 4.177-2 6a43.986 43.986 0 0 1-7 5c-4.248 3.115-8.914 3.782-14 2v-1c7.944.896 14.444-1.77 19.5-8 3.869-6.498 7.036-13.165 9.5-20h4c-.256-2.412.744-4.079 3-5l-1-1c-3.532 1.303-7.032 1.303-10.5 0a140.089 140.089 0 0 0-7.5 12l2 2c-8.89 6.116-11.223 4.116-7-6a2.428 2.428 0 0 0 .5 2 35.061 35.061 0 0 1 6-8 8.43 8.43 0 0 0 .5-4h-3z"/><path style="opacity:1" fill="#472412" d="M197.5 266.5c1.527-.073 2.527.594 3 2a5.727 5.727 0 0 1-1 3 2057.83 2057.83 0 0 0-8 5c-1.084 1.474-2.418 2.307-4 2.5.944-2.719 1.277-5.552 1-8.5 1.291.237 2.291-.096 3-1 2.447-.115 4.447-1.115 6-3z"/><path style="opacity:1" fill="#987e61" d="M191.5 269.5c-.709.904-1.709 1.237-3 1 .277 2.948-.056 5.781-1 8.5 1.582-.193 2.916-1.026 4-2.5v5c-1.155.078-2.488.412-4 1a31.147 31.147 0 0 1 2 2c-8.511-1.812-17.178-2.479-26-2a43.986 43.986 0 0 0 7-5c1.247-1.823 1.914-3.823 2-6h3c-.563-5.872 1.77-10.206 7-13l2 1a147.974 147.974 0 0 0 3.5 9c1.011.837 2.178 1.17 3.5 1z"/><path style="opacity:1" fill="#461709" d="M219.5 255.5c1.155 6.821 1.321 13.821.5 21-.278.916-.778 1.582-1.5 2v-7c.988-5.14 1.321-10.474 1-16z"/><path style="opacity:1" fill="#846a53" d="M106.5 268.5c1.17 1.779 2.836 2.779 5 3-.297 4.267.036 8.434 1 12.5a18.924 18.924 0 0 0-5 3c6.658.5 13.325.666 20 .5a128.532 128.532 0 0 1-32 0h1c4.975-.454 5.975-2.621 3-6.5.234-3.013 1.401-5.513 3.5-7.5 1.84 1.333 2.34 1.166 1.5-.5 1.607-1.049 2.273-2.549 2-4.5z"/><path style="opacity:1" fill="#c89b6e" d="M199.5 271.5a11.988 11.988 0 0 1-1 6 64.873 64.873 0 0 0 16 1c-2.198 1.897-4.864 2.897-8 3-4.895.354-9.895.354-15 0v-5a2057.83 2057.83 0 0 1 8-5z"/><path style="opacity:1" fill="#d3935b" d="M200.5 268.5c2.535 5.218 6.868 7.885 13 8h5v3l-4-1a64.873 64.873 0 0 1-16-1 11.988 11.988 0 0 0 1-6 5.727 5.727 0 0 0 1-3z"/><path style="opacity:1" fill="#af9173" d="M224.5 258.5c.821 3.141 1.321 6.475 1.5 10l1-1c5.258 3.309 10.925 5.976 17 8l1.5-1c-2.739-2.231-4.405-5.064-5-8.5l1.5-1.5c1.684 2.206 3.851 3.706 6.5 4.5a3.647 3.647 0 0 0-1 1.5 10.756 10.756 0 0 1 2.5 3 67.396 67.396 0 0 1 10.5 8.5l-7 7c-1.719-1.153-4.386-1.653-8-1.5a89.604 89.604 0 0 1-21-2v-27z"/><path style="opacity:1" fill="#664a34" d="M191.5 281.5c5.105.354 10.105.354 15 0a10.515 10.515 0 0 1-2.5 3c-1-1.333-2-1.333-3 0a4.457 4.457 0 0 0-1.5-2c-1.195 1.797-2.862 2.797-5 3-.553 3.956-1.386 3.956-2.5 0a3.647 3.647 0 0 1-1.5 1c-.287-.7-.62-1.367-1-2a31.147 31.147 0 0 0-2-2c1.512-.588 2.845-.922 4-1z"/><path style="opacity:1" fill="#a18466" d="M224.5 256.5a15.057 15.057 0 0 0 6 3v4c1.852 1.969 4.852 2.969 9 3-.353-2.135.48-3.468 2.5-4 2.822 2.153 5.656 4.319 8.5 6.5a12.93 12.93 0 0 0 5 .5c2.025 1.575 4.025 3.408 6 5.5 7.199 3.526 13.866 7.692 20 12.5.536 3.198-.131 5.865-2 8h-3c-4.432-1.802-9.099-3.302-14-4.5a24.935 24.935 0 0 0-7-.5c-3.878.476-7.212-.524-10-3 3.614-.153 6.281.347 8 1.5l7-7a67.396 67.396 0 0 0-10.5-8.5 10.756 10.756 0 0 0-2.5-3 3.647 3.647 0 0 1 1-1.5c-2.649-.794-4.816-2.294-6.5-4.5l-1.5 1.5c.595 3.436 2.261 6.269 5 8.5l-1.5 1c-6.075-2.024-11.742-4.691-17-8l-1 1c-.179-3.525-.679-6.859-1.5-10v-2z"/><path style="opacity:1" fill="#643d24" d="M223.5 249.5c.968 2.107 1.302 4.441 1 7v29a89.604 89.604 0 0 0 21 2c2.788 2.476 6.122 3.476 10 3v1c-1.56.019-3.06.352-4.5 1a38.094 38.094 0 0 0-9.5-3.5c-6.206-.382-12.206-1.215-18-2.5v-37z"/><path style="opacity:1" fill="#865f44" d="M255.5 291.5v-1c2.357-.163 4.69.003 7 .5 4.901 1.198 9.568 2.698 14 4.5a99.357 99.357 0 0 1-21-4z"/><path style="opacity:1" fill="#1d140f" d="M227.5 297.5c1 2.313 2.334 4.313 4 6h-8c-10.236-3.547-20.903-5.213-32-5a289.97 289.97 0 0 0-24 2v5a144.841 144.841 0 0 1-24-1c1.189-.929 2.522-1.262 4-1 .209-2.214-.624-3.881-2.5-5a40.893 40.893 0 0 1-9.5-2.5c5.217-2.574 9.884-1.907 14 2 3.527.808 6.86.641 10-.5 3.437-.052 6.437-1.219 9-3.5a214.134 214.134 0 0 1 39-1 105.521 105.521 0 0 0 20 4.5z"/><path style="opacity:1" fill="#3a2015" d="m214.5 278.5 4 1a9.86 9.86 0 0 0 1 6 6.846 6.846 0 0 1 4-1v2c-1.539 2.029-3.539 3.529-6 4.5l2 1c11.76-.197 23.094 1.637 34 5.5a163.093 163.093 0 0 1 18-1v4c1.967.239 3.801-.094 5.5-1a10.515 10.515 0 0 1 2.5 3 790.352 790.352 0 0 1-28-2 58.16 58.16 0 0 0-6.5 1c-5.912-.157-11.745-1.491-17.5-4a105.521 105.521 0 0 1-20-4.5 214.134 214.134 0 0 0-39 1c-2.563 2.281-5.563 3.448-9 3.5a16.873 16.873 0 0 1-8-1 1070.905 1070.905 0 0 0-10-5 46.104 46.104 0 0 1-10 .5c-1.029 1.698-2.529 2.532-4.5 2.5a56.714 56.714 0 0 0-7-1c-7.872 2.079-15.706 2.745-23.5 2 .306 2.885-.027 5.552-1 8v-12c4.4.183 8.734.849 13 2a42.593 42.593 0 0 1 8.5-2c7.807 1.199 14.974-.468 21.5-5a126.86 126.86 0 0 1 11-2c5.086 1.782 9.752 1.115 14-2 8.822-.479 17.489.188 26 2 .38.633.713 1.3 1 2a3.647 3.647 0 0 0 1.5-1c1.114 3.956 1.947 3.956 2.5 0 2.138-.203 3.805-1.203 5-3a4.457 4.457 0 0 1 1.5 2c1-1.333 2-1.333 3 0a10.515 10.515 0 0 0 2.5-3c3.136-.103 5.802-1.103 8-3z"/><path style="opacity:1" fill="#4d2312" d="M223.5 286.5c5.794 1.285 11.794 2.118 18 2.5 3.32.743 6.487 1.91 9.5 3.5 1.44-.648 2.94-.981 4.5-1a99.357 99.357 0 0 0 21 4h3c.709.904 1.709 1.237 3 1v10a4.934 4.934 0 0 1-3-.5c1.184-1.145 1.184-2.312 0-3.5a10.515 10.515 0 0 0-2.5-3c-1.699.906-3.533 1.239-5.5 1v-4c-6.016.001-12.016.335-18 1-10.906-3.863-22.24-5.697-34-5.5l-2-1c2.461-.971 4.461-2.471 6-4.5z"/><path style="opacity:1" fill="#301b12" d="M159.5 297.5c-3.14 1.141-6.473 1.308-10 .5-4.116-3.907-8.783-4.574-14-2a40.893 40.893 0 0 0 9.5 2.5c1.876 1.119 2.709 2.786 2.5 5-1.478-.262-2.811.071-4 1a144.841 144.841 0 0 0 24 1v-5a289.97 289.97 0 0 1 24-2c11.097-.213 21.764 1.453 32 5a203.672 203.672 0 0 0-16-2v4a84.029 84.029 0 0 1-16-1v3h-96v-4c.973-2.448 1.306-5.115 1-8 7.794.745 15.628.079 23.5-2 2.355.188 4.688.521 7 1 1.971.032 3.471-.802 4.5-2.5 3.382.195 6.715.028 10-.5 3.316 1.636 6.649 3.303 10 5a16.873 16.873 0 0 0 8 1z"/><path style="opacity:1" fill="#462518" d="M223.5 303.5h8c2.747-.313 5.414.02 8 1 2.384.511 4.384 1.511 6 3h-1c-2.281-.423-3.948.244-5 2a590.472 590.472 0 0 0-27-1 9.201 9.201 0 0 0-4.5 2 300.7 300.7 0 0 0-49 0 1919.142 1919.142 0 0 0-61.5-1.5c-.916-.278-1.582-.778-2-1.5h96v-3a84.029 84.029 0 0 0 16 1v-4a203.672 203.672 0 0 1 16 2z"/><path style="opacity:1" fill="#2a170f" d="M227.5 297.5c5.755 2.509 11.588 3.843 17.5 4a58.16 58.16 0 0 1 6.5-1 790.352 790.352 0 0 0 28 2c1.184 1.188 1.184 2.355 0 3.5a4.934 4.934 0 0 0 3 .5v1h-37c-1.616-1.489-3.616-2.489-6-3a16.873 16.873 0 0 0-8-1c-1.666-1.687-3-3.687-4-6z"/><path style="opacity:1" fill="#c29b87" d="M33.5 336.5c1.868 1.898 2.035 4.231.5 7-1.047-2.421-1.214-4.754-.5-7z"/><path style="opacity:1" fill="#ab846e" d="M38.5 337.5c2.032.548 3.032 1.881 3 4-5.294.182-5.294.682 0 1.5-2.835 2.277-4.502 1.61-5-2 .362-1.434 1.029-2.601 2-3.5z"/><path style="opacity:1" fill="#b9927d" d="M50.5 335.5v3h3c.153 5.824-.513 6.157-2 1l-2 5a4.451 4.451 0 0 1-1.5-2c-1.08 1.894-2.413 2.227-4 1-.232 1.237-.732 2.237-1.5 3a16.868 16.868 0 0 1 1-8c1.806-1.359 3.306-1.025 4.5 1 .122-1.937.955-3.27 2.5-4z"/><path style="opacity:1" fill="#431e0c" d="M43.5 339.5h3v3h-3v-3z"/><path style="opacity:1" fill="#b18a75" d="M26.5 335.5a4.934 4.934 0 0 1 3 .5 7.292 7.292 0 0 0-3 2 20.509 20.509 0 0 0 4.5 2.5c.611 3.588-.889 4.754-4.5 3.5a3.646 3.646 0 0 1-1-1.5c1.41-.154 3.076-.321 5-.5a20.509 20.509 0 0 0-4.5-2.5c-.58-1.428-.412-2.762.5-4z"/><path style="opacity:1" fill="#4c260d" d="M244.5 307.5v92h-2c.167-29.002 0-58.002-.5-87a10.515 10.515 0 0 1-2.5-3c1.052-1.756 2.719-2.423 5-2z"/><path style="opacity:1" fill="#c4a180" d="M244.5 307.5h38a342.787 342.787 0 0 1-37 1c-.325 30.407.008 60.74 1 91h-2v-92z"/><path style="opacity:1" fill="#4d2615" d="M50.5 335.5c7.184.402 14.518.402 22 0-2.601 2.837-2.601 5.67 0 8.5 3.666.823 5.333-.677 5-4.5-3.098-.087-3.432.413-1 1.5-3.362 2.329-4.862 1.496-4.5-2.5 1.458-1.247 2.958-1.247 4.5 0 .963-.47.963-1.137 0-2 2.107-.968 4.44-1.302 7-1a22.39 22.39 0 0 0 2.5 8c1.64-3.84 3.14-3.84 4.5 0l2.5-3c.1 2.935 1.6 4.269 4.5 4 1.874.11 3.374-.556 4.5-2l2 2c-.51-1.88-.343-3.713.5-5.5-1.325.148-2.492-.018-3.5-.5-.617.949-.451 1.782.5 2.5a4.457 4.457 0 0 1-2 1.5 10.255 10.255 0 0 1-1.5-4c-1.113-1.211-2.28-1.211-3.5 0-.886-.825-1.219-1.825-1-3 2.082-.028 3.916.639 5.5 2 2.93-2.41 6.097-2.577 9.5-.5-.916.278-1.582.778-2 1.5-1.293 1.864-1.293 3.864 0 6l2-5a10.258 10.258 0 0 1 1.5 4c1-5.333 2-5.333 3 0a12.93 12.93 0 0 0 .5-5h2c.763.768 1.763 1.268 3 1.5-2.605.026-3.771 1.193-3.5 3.5.718.951 1.551 1.117 2.5.5-1.211-.893-1.211-1.726 0-2.5a4.457 4.457 0 0 1 1.5 2c.399-.228.565-.562.5-1l2-4c1.765-.961 3.765-1.295 6-1a22.908 22.908 0 0 1-3 9.5c-1.608.658-2.775.158-3.5-1.5-1.888 2.773-3.888 3.106-6 1l-1 3a88.665 88.665 0 0 0-18.5-1v3c-11.24-.481-22.074-.481-32.5 0l-1-3c-.368 1.41-1.201 2.41-2.5 3a85.54 85.54 0 0 0-10 0c-3.112-.851-3.446-2.017-1-3.5-2.208-.191-4.208-.691-6-1.5.768-.763 1.268-1.763 1.5-3 1.587 1.227 2.92.894 4-1a4.451 4.451 0 0 0 1.5 2l2-5c1.487 5.157 2.153 4.824 2-1h-3v-3z"/><path style="opacity:1" fill="#98725b" d="M83.5 335.5c1.567 1.181 2.4 2.847 2.5 5 1.676-5.317 3.343-5.317 5 0 .1-2.153.933-3.819 2.5-5-.219 1.175.114 2.175 1 3 1.22-1.211 2.387-1.211 3.5 0a10.255 10.255 0 0 0 1.5 4 4.457 4.457 0 0 0 2-1.5c-.951-.718-1.117-1.551-.5-2.5 1.008.482 2.175.648 3.5.5-.843 1.787-1.01 3.62-.5 5.5l-2-2c-1.126 1.444-2.626 2.11-4.5 2-2.9.269-4.4-1.065-4.5-4l-2.5 3c-1.36-3.84-2.86-3.84-4.5 0a22.39 22.39 0 0 1-2.5-8z"/><path style="opacity:1" fill="#b08a76" d="M72.5 335.5c1.459-.067 2.792.266 4 1 .963.863.963 1.53 0 2-1.542-1.247-3.042-1.247-4.5 0-.362 3.996 1.138 4.829 4.5 2.5-2.432-1.087-2.098-1.587 1-1.5.333 3.823-1.334 5.323-5 4.5-2.601-2.83-2.601-5.663 0-8.5z"/><path style="opacity:1" fill="#c09a84" d="M121.5 338.5h4c.153 5.824-.513 6.157-2 1-1.487 5.157-2.153 4.824-2-1z"/><path style="opacity:1" fill="#b48e77" d="M119.5 342.5c.065.438-.101.772-.5 1a4.457 4.457 0 0 0-1.5-2c-1.211.774-1.211 1.607 0 2.5-.949.617-1.782.451-2.5-.5-.271-2.307.895-3.474 3.5-3.5-1.237-.232-2.237-.732-3-1.5 3.401-1.273 4.734.06 4 4z"/><path style="opacity:1" fill="#c09983" d="M106.5 338.5h7a12.93 12.93 0 0 1-.5 5c-1-5.333-2-5.333-3 0a10.258 10.258 0 0 0-1.5-4l-2 5c-1.293-2.136-1.293-4.136 0-6z"/><path style="opacity:1" fill="#ab8571" d="M61.5 338.5h5c-.098 5.873-1.098 6.206-3 1-1.487 5.157-2.153 4.824-2-1z"/><path style="opacity:1" fill="#a07a66" d="M55.5 338.5c2.216-.225 3.883.608 5 2.5l-4 1a6.802 6.802 0 0 1 3 1.5c-4.173.818-5.506-.848-4-5z"/><path style="opacity:1" fill="#7c5542" d="M48.5 365.5c-.202-.864-.536-1.864-1-3a6.807 6.807 0 0 0-1.5 3c-.626-2.491-1.46-2.491-2.5 0-1.04-2.491-1.874-2.491-2.5 0-1.298-1.446-1.465-2.779-.5-4-.065.438.101.772.5 1 .758-2.41 2.425-3.41 5-3 3.768.266 5.6 2.266 5.5 6h-3z"/><path style="opacity:1" fill="#a27c69" d="M35.5 361.5c.897 1.098 1.73 1.098 2.5 0 .456 1.244-.044 2.077-1.5 2.5 2.38 1.247 2.047 1.58-1 1-.752-.671-1.086-1.504-1-2.5.667 0 1-.333 1-1z"/><path style="opacity:1" fill="#ad8674" d="M55.5 359.5c.961 1.765 1.295 3.765 1 6h-4c-.262-1.478.071-2.811 1-4 .17.897.502 1.897 1 3 .952-1.545 1.285-3.212 1-5z"/><path style="opacity:1" fill="#956e5c" d="M62.5 360.5c3.694 1.379 4.528 3.712 2.5 7 .98-1.779.646-3.445-1-5a4.932 4.932 0 0 0-.5 3c-1.599.268-2.932-.066-4-1-.16-1.699.007-3.366.5-5 .67.752 1.504 1.086 2.5 1z"/><path style="opacity:1" fill="#916958" d="M34.5 362.5c-.768.763-1.268 1.763-1.5 3-1.299-.466-2.799-.466-4.5 0-.768-.763-1.268-1.763-1.5-3l-1 3c-.808-2.079-.641-4.079.5-6 .697 1.885 1.697 2.218 3 1 1.529 1.816 3.196 2.483 5 2z"/><path style="opacity:1" fill="#4e2717" d="M113.5 361.5h-3c-.237 1.291.096 2.291 1 3 .709.904 1.709 1.237 3 1v-3h1v3h3c.88-2.111.88-4.111 0-6 1.32 1.442 2.986 2.108 5 2-.354 2.267-.021 3.601 1 4a44.093 44.093 0 0 0 2-3c.886.825 1.219 1.825 1 3h7a4.934 4.934 0 0 1 .5-3c3.199 5.602 4.033 5.269 2.5-1a2.428 2.428 0 0 1 .5-2c1.73.009 3.563.342 5.5 1-1.333 1.667-1.333 3.333 0 5-1.264 1.368-3.598 2.034-7 2-.219 1.175.114 2.175 1 3 2.3-.368 4.467-.368 6.5 0a10.94 10.94 0 0 1 4.5-3c1.09.891 1.09 1.891 0 3 .865 1.083 1.865 1.249 3 .5l-1-1c2.18-.419 4.346-.252 6.5.5a26.765 26.765 0 0 0 5.5-3c4.724-.563 9.39.103 14 2a7.293 7.293 0 0 1 3-2c1.363.698 2.529.698 3.5 0 2.139 1.125 3.306 2.458 3.5 4a9.425 9.425 0 0 1 3-3c1.094 2.336 2.427 2.336 4 0a9.86 9.86 0 0 1 6-1c-.649 1.977-.649 3.81 0 5.5-.601 1.605-1.601 2.938-3 4 1.238-.077 2.238.089 3 .5.151 2.256-.182 4.256-1 6a181.988 181.988 0 0 0-37 0c.415-2.448-.585-3.781-3-4a36.16 36.16 0 0 1-7 4c-2.985-.455-5.818-.455-8.5 0-.456-1.244.044-2.077 1.5-2.5a16.2 16.2 0 0 0-3.5-1.5c-5.133.819-10.3.819-15.5 0a4.934 4.934 0 0 1-.5 3 37.829 37.829 0 0 0-3.5-4c.734-1.208 1.067-2.541 1-4h-2c-1.302-1.426-2.802-2.759-4.5-4a18.453 18.453 0 0 0-.5 6c-1.182 1.6-2.515 1.933-4 1-4.593 3.928-8.593 3.595-12-1v-4c-1.967.239-3.8-.094-5.5-1-.667 1.667-.667 3.333 0 5 .882-3.542 1.715-3.208 2.5 1-3.142.299-5.309 1.966-6.5 5-1.263-2.297-3.097-3.13-5.5-2.5.457.414.79.914 1 1.5-1.219-.391-2.052.276-2.5 2-3.103-.279-4.937-2.279-5.5-6 1.322-.17 2.489.163 3.5 1a39.459 39.459 0 0 0 2.5-5 12 12 0 0 0-3.5-1c-.807 3.949-1.307 3.949-1.5 0a18.452 18.452 0 0 0-6 .5l2 1c-1.525 1.009-3.192 1.509-5 1.5.262-1.478-.071-2.811-1-4-1.26 1.853-1.26 3.686 0 5.5 2.561-.401 5.228-.235 8 .5.13.876-.203 1.543-1 2-3.679-.735-7.679-.235-12 1.5-3.67 3.617-6.17 2.784-7.5-2.5-.813 2.766-2.646 4.433-5.5 5-3.228-1.226-6.395-1.226-9.5 0l-1.5-.5a6.977 6.977 0 0 0 3.5-2.5c1.05 1.017 2.216 1.184 3.5.5l-3.5-3.5-1 2c-1-1.333-2-1.333-3 0a2.427 2.427 0 0 1-.5-2c3.904-.735 4.738-2.735 2.5-6-1.113 1.26-1.28 2.427-.5 3.5-1.498.585-2.498.085-3-1.5a203.159 203.159 0 0 0 5-5.5c-1.867-.711-3.367-.211-4.5 1.5-3.266-2.525-4.766-1.858-4.5 2a5.727 5.727 0 0 0-3-1c-2.674-.999-3.34-2.666-2-5 1.701-.466 3.201-.466 4.5 0 .232-1.237.732-2.237 1.5-3-.086.996.248 1.829 1 2.5 3.047.58 3.38.247 1-1 1.456-.423 1.956-1.256 1.5-2.5-.77 1.098-1.603 1.098-2.5 0 1.667-1.333 3.333-1.333 5 0-.965 1.221-.798 2.554.5 4 .626-2.491 1.46-2.491 2.5 0 1.04-2.491 1.874-2.491 2.5 0a6.807 6.807 0 0 1 1.5-3c.464 1.136.798 2.136 1 3 2.124 6.142 4.957 6.475 8.5 1l1 1c.232-1.237.732-2.237 1.5-3 1.068.934 2.401 1.268 4 1a4.932 4.932 0 0 1 .5-3c1.646 1.555 1.98 3.221 1 5 2.028-3.288 1.194-5.621-2.5-7 3.345-.819 6.678-1.152 10-1a12.935 12.935 0 0 1-.5 5c-.718-.951-1.55-1.117-2.5-.5 1.063 1.188 2.397 1.688 4 1.5v-6l2 1c-.8 1.542-1.134 3.208-1 5h5c.553-3.956 1.386-3.956 2.5 0 .483-.948.65-1.948.5-3 .6 1.4 1.6 2.4 3 3 3.098.087 3.432-.413 1-1.5l1.5-.5c1.678 1.782 3.511 2.115 5.5 1-1.14-.925-1.14-1.759 0-2.5-.744-1.039-1.744-1.539-3-1.5 4.753-1.484 9.753-2.318 15-2.5a4.457 4.457 0 0 1 2-1.5c2.337 1.343 4.337 3.01 6 5z"/><path style="opacity:1" fill="#a17b68" d="M72.5 359.5h1v6c-1.603.188-2.937-.312-4-1.5.95-.617 1.782-.451 2.5.5.493-1.634.66-3.301.5-5z"/><path style="opacity:1" fill="#906a57" d="M137.5 361.5c1.533 6.269.699 6.602-2.5 1a4.934 4.934 0 0 0-.5 3h-7c.219-1.175-.114-2.175-1-3a44.093 44.093 0 0 1-2 3v-4c1.951-.273 3.451.393 4.5 2a4.934 4.934 0 0 0 .5-3c2.633.396 5.3.729 8 1z"/><path style="opacity:1" fill="#8d6654" d="M90.5 360.5c1.256-.039 2.256.461 3 1.5-1.14.741-1.14 1.575 0 2.5-1.989 1.115-3.822.782-5.5-1l-1.5.5c2.432 1.087 2.098 1.587-1 1.5v-4c1.915.284 3.581-.049 5-1z"/><path style="opacity:1" fill="#956f5c" d="M75.5 360.5c2.51.427 4.843 1.093 7 2a4.932 4.932 0 0 1-.5 3c-1.114-3.956-1.947-3.956-2.5 0h-5c-.134-1.792.2-3.458 1-5z"/><path style="opacity:1" fill="#ab8572" d="M118.5 359.5c.88 1.889.88 3.889 0 6h-3v-3a2.428 2.428 0 0 1 .5-2l1 4c.198-1.882.698-3.548 1.5-5z"/><path style="opacity:1" fill="#a37d6a" d="M113.5 361.5c.667 0 1 .333 1 1v3c-1.291.237-2.291-.096-3-1-.904-.709-1.237-1.709-1-3h3z"/><path style="opacity:1" fill="#401a0a" d="M111.5 364.5c.139-1.837.806-2.17 2-1-.457.798-1.124 1.131-2 1z"/><path style="opacity:1" fill="#936d5a" d="M96.5 359.5c4.338.122 4.672.455 1 1v4c2.763.955 1.763 1.122-3 .5a71.93 71.93 0 0 0 2-5.5z"/><path style="opacity:1" fill="#ae8775" d="M105.5 359.5h4a18.453 18.453 0 0 1-.5 6c-.605-1.981-1.605-2.315-3-1a12.93 12.93 0 0 1-.5-5z"/><path style="opacity:1" fill="#441d0e" d="M106.5 360.5c1.837.139 2.17.806 1 2-.798-.457-1.131-1.124-1-2z"/><path style="opacity:1" fill="#8c6553" d="M30.5 370.5a5.727 5.727 0 0 1 3 1c1.426 4.731.76 5.064-2 1a6.807 6.807 0 0 0-1.5 3c-.451-2.429-1.285-2.596-2.5-.5 1.402 1.342 1.069 2.176-1 2.5l-2-1a14.962 14.962 0 0 1 3-3.5l-2-1c1.652-1.066 3.319-1.566 5-1.5z"/><path style="opacity:1" fill="#8a6450" d="M122.5 374.5a43.623 43.623 0 0 1 5.5-4c1.778 3.181 4.112 3.181 7 0l1 3a35.877 35.877 0 0 0 7.5-1c1.494.209 2.661.876 3.5 2l1-2c.442 2.184-.058 4.184-1.5 6 .31-1.701-.19-3.368-1.5-5 .266 3.401-1.234 5.067-4.5 5-.575-1.702-1.408-3.369-2.5-5-1.487.753-1.654 1.586-.5 2.5-1.608.658-2.775.158-3.5-1.5-1.667 4-3.333 4-5 0-.347 1.68-1.347 2.68-3 3-1.641-1.014-2.808-2.014-3.5-3z"/><path style="opacity:1" fill="#835d49" d="M83.5 373.5a39.459 39.459 0 0 1-2.5 5c-1.011-.837-2.178-1.17-3.5-1-.333-1.333-.667-1.333-1 0-2.772-.735-5.439-.901-8-.5-1.26-1.814-1.26-3.647 0-5.5.929 1.189 1.262 2.522 1 4 1.808.009 3.475-.491 5-1.5l-2-1a18.452 18.452 0 0 1 6-.5c.193 3.949.693 3.949 1.5 0a12 12 0 0 1 3.5 1z"/><path style="opacity:1" fill="#ac8673" d="M110.5 371.5c1.241 2.431 2.408 2.431 3.5 0 .483.948.649 1.948.5 3-1.624-.14-2.79.527-3.5 2a12.93 12.93 0 0 1-.5-5z"/><path style="opacity:1" fill="#a67f6c" d="M120.5 374.5c-.722.418-1.222 1.084-1.5 2-1.039-3.723-2.206-3.723-3.5 0a18.453 18.453 0 0 1 .5-6c1.698 1.241 3.198 2.574 4.5 4z"/><path style="opacity:1" fill="#88624d" d="M63.5 370.5c1.808 1.418 2.475 3.418 2 6-2.589.938-5.089 1.271-7.5 1 .263-1.451.096-2.784-.5-4-.886.825-1.219 1.825-1 3l-6 1v-5a6.845 6.845 0 0 1 4 1l1-2c3.15 1.689 5.816 1.356 8-1z"/><path style="opacity:1" fill="#8d6652" d="M99.5 376.5a5.727 5.727 0 0 1-3 1c-.785-4.208-1.618-4.542-2.5-1-.667-1.667-.667-3.333 0-5 1.7.906 3.533 1.239 5.5 1v4z"/><path style="opacity:1" fill="#89624d" d="M175.5 370.5c1.624-.14 2.79.527 3.5 2 3.452-2.315 6.785-1.982 10 1 1.011-.837 2.178-1.17 3.5-1 .043 4.393-.457 4.726-1.5 1l-1 3c-.667-1.333-1.333-1.333-2 0-1.114-3.956-1.947-3.956-2.5 0-8.55-.432-16.383-.432-23.5 0-.667-1.667-.667-3.333 0-5a7.293 7.293 0 0 1 2 3c.981-3.189 2.314-3.522 4-1 1.333-1.333 2.667-1.333 4 0 1.729-.474 2.895-1.474 3.5-3z"/><path style="opacity:1" fill="#88614d" d="M37.5 373.5c.502 1.585 1.502 2.085 3 1.5-.78-1.073-.613-2.24.5-3.5 2.238 3.265 1.404 5.265-2.5 6-.709-.904-1.709-1.237-3-1-.16-1.699.007-3.366.5-5 .278.916.778 1.582 1.5 2z"/><path style="opacity:1" fill="#835c48" d="M44.5 371.5c1.91.074 3.078 1.074 3.5 3l1-3c.495 1.973.662 3.973.5 6-3.946.012-5.613-1.988-5-6z"/><path style="opacity:1" fill="#79523e" d="M83.5 373.5a46.752 46.752 0 0 1 8-.5c.88 1.356 1.213 2.856 1 4.5-3 1.333-6 1.333-9 0v-4z"/><path style="opacity:1" fill="#9c7562" d="M120.5 374.5h2c.067 1.459-.266 2.792-1 4a2.428 2.428 0 0 1-2-.5c.837-1.011 1.17-2.178 1-3.5z"/></svg>