<svg xmlns="http://www.w3.org/2000/svg" width="101" height="108" style="shape-rendering:geometricPrecision;text-rendering:geometricPrecision;image-rendering:optimizeQuality;fill-rule:evenodd;clip-rule:evenodd"><path style="opacity:.742" fill="#f8f9fc" d="M39.5 7.5c28.328-3.429 47.161 8.238 56.5 35 3.917 28.346-7.583 47.179-34.5 56.5-28.346 3.917-47.179-7.583-56.5-34.5-3.794-28.433 7.706-47.433 34.5-57z"/><path style="opacity:1" fill="#fafbfc" d="M92.5 46.5v14a167.569 167.569 0 0 1-4 14c-14.463 20.204-33.463 26.037-57 17.5a97.042 97.042 0 0 1-15-11.5c-5.069-8.037-8.068-16.87-9-26.5.493-7.47 2.16-14.637 5-21.5C30.869 8.271 52.869 4.438 78.5 21c7.425 7.019 12.092 15.519 14 25.5z"/><path style="opacity:1" fill="#456fb0" d="M93.5 44.5c.172.992-.162 1.658-1 2-1.908-9.981-6.575-18.481-14-25.5-25.631-16.562-47.631-12.729-66 11.5 9.758-17.546 24.758-25.046 45-22.5 19.363 3.864 31.363 15.364 36 34.5z"/><path style="opacity:1" fill="#7c9dc9" d="M54.5 14.5c1.701.466 3.201.466 4.5 0a15.276 15.276 0 0 0 1.5 4.5c-1.167.5-2 1.333-2.5 2.5-.85-3.112-2.017-3.446-3.5-1a4.452 4.452 0 0 1-2-1.5c-.158-1.587.509-3.087 2-4.5z"/><path style="opacity:1" fill="#89a6ce" d="M43.5 14.5h3c.214 1.644-.12 3.144-1 4.5l2 1a17.759 17.759 0 0 1-7 1.5c-.59-3.175.41-5.509 3-7z"/><path style="opacity:1" fill="#7b9cc8" d="M67.5 18.5c4.125.223 4.791 1.723 2 4.5l1 1a28.83 28.83 0 0 0-4 1.5c.44-1.453-.227-2.62-2-3.5.865-1.359 1.865-2.526 3-3.5z"/><path style="opacity:1" fill="#799bc7" d="M30.5 19.5c1.068-.934 2.401-1.268 4-1 .127 2.415.293 4.749.5 7a7.253 7.253 0 0 0-2.5-2c-1.196.346-1.196.846 0 1.5-3.465-.057-4.631-1.89-3.5-5.5 1.652 1.226 2.152 1.226 1.5 0z"/><path style="opacity:1" fill="#8ea3c8" d="M73.5 42.5h-1c-1.498-2.83-3.832-4.498-7-5 .27 1.88-.396 3.213-2 4 2.003-5.357.003-8.024-6-8 .384 2.165-.283 3.831-2 5 .706-1.354.706-3.021 0-5l-4-1a65.406 65.406 0 0 0-14 3c1.773-1.392 3.773-2.559 6-3.5 9.361-1.801 18.028-.135 26 5 1.964 1.451 3.297 3.284 4 5.5z"/><path style="opacity:1" fill="#80a0cb" d="M76.5 27.5c4.795-.608 6.295 1.058 4.5 5-1.016-1.134-1.683-.8-2 1a15.276 15.276 0 0 0-4.5-1.5c2.391-.691 2.391-1.691 0-3 .916-.278 1.582-.778 2-1.5z"/><path style="opacity:1" fill="#84a3cc" d="M20.5 26.5a14.706 14.706 0 0 1 6 4c-1.667 1-3 2.333-4 4-4.291-1.884-4.958-4.55-2-8z"/><path style="opacity:1" fill="#f2f2f6" d="M63.5 41.5c1.604-.787 2.27-2.12 2-4 3.168.502 5.502 2.17 7 5-1.599-.268-2.932.066-4 1-2.043 1.08-3.376 2.746-4 5-5.16-2.255-5.16-3.088 0-2.5-3.055-3.31-6.388-3.81-10-1.5a58.672 58.672 0 0 1 9 5 6.845 6.845 0 0 1-1 4c.47.963 1.136.963 2 0a31.705 31.705 0 0 1-2 6h-6c.905-1.202.905-2.536 0-4h-3c-.762-4.285-2.095-8.285-4-12-1-2.667-2-2.667-3 0-.472 2.031-1.472 3.698-3 5 .006-3.048-.994-3.548-3-1.5l2 1c-2.423.732-3.59 2.232-3.5 4.5 1.129-1.641 2.629-2.641 4.5-3l-2 3a69.27 69.27 0 0 1-16 1 18.436 18.436 0 0 1 .5-6 43.865 43.865 0 0 0 4.5-7c1.871-.359 3.371-1.359 4.5-3l1 4a15.58 15.58 0 0 0 1.5-6 65.406 65.406 0 0 1 14-3l4 1c.706 1.979.706 3.646 0 5 1.717-1.169 2.384-2.835 2-5 6.003-.024 8.003 2.643 6 8z"/><path style="opacity:1" fill="#879dc5" d="M37.5 35.5a15.58 15.58 0 0 1-1.5 6l-1-4c-1.129 1.641-2.629 2.641-4.5 3 1.492-2.823 3.826-4.49 7-5z"/><path style="opacity:1" fill="#97a9cc" d="M63.5 41.5c-1.764 1.212-3.43.879-5-1l1-1c1.122 1.13 2.456 1.797 4 2z"/><path style="opacity:1" fill="#8ca9cf" d="M14.5 38.5a40.566 40.566 0 0 1 6 4.5 52.55 52.55 0 0 1-7 1.5c.17-1.322-.163-2.489-1-3.5 1.256-.417 1.923-1.25 2-2.5z"/><path style="opacity:1" fill="#ee9990" d="M68.5 43.5c1.068-.934 2.401-1.268 4-1h1c1.175-.219 2.175.114 3 1-.124.607-.457.94-1 1-2.107-.968-4.44-1.302-7-1z"/><path style="opacity:1" fill="#7fa0ca" d="M82.5 38.5c2.196.065 4.196.732 6 2-1.306 1.412-2.14 3.079-2.5 5-1.397-1.377-2.897-2.21-4.5-2.5a3.943 3.943 0 0 0-1-2c1.256-.417 1.923-1.25 2-2.5z"/><path style="opacity:1" fill="#d74638" d="M68.5 43.5c2.56-.302 4.893.032 7 1v3c-2.618-.401-5.284.099-8 1.5-1.641 1.129-2.641 2.629-3 4.5-.864.963-1.53.963-2 0a6.845 6.845 0 0 0 1-4c.667 0 1-.333 1-1 .624-2.254 1.957-3.92 4-5z"/><path style="opacity:1" fill="#9badce" d="M64.5 48.5c0 .667-.333 1-1 1a58.672 58.672 0 0 0-9-5c3.612-2.31 6.945-1.81 10 1.5-5.16-.588-5.16.245 0 2.5z"/><path style="opacity:1" fill="#8ea3c9" d="M60.5 50.5a109.208 109.208 0 0 0-8-3.5c3.516-.741 6.183.425 8 3.5z"/><path style="opacity:1" fill="#eeb9b5" d="M75.5 47.5v3h-1c-1.788-1.123-3.788-1.29-6-.5a19.568 19.568 0 0 1-4 3.5c.359-1.871 1.359-3.371 3-4.5 2.716-1.401 5.382-1.901 8-1.5z"/><path style="opacity:1" fill="#d74639" d="M74.5 50.5c-.841 1.88-1.175 3.88-1 6a24.939 24.939 0 0 0-7 .5c-2.128 2.273-3.795 4.773-5 7.5a20.677 20.677 0 0 1 1-5 31.705 31.705 0 0 0 2-6 19.568 19.568 0 0 0 4-3.5c2.212-.79 4.212-.623 6 .5z"/><path style="opacity:1" fill="#889ec6" d="M30.5 40.5a43.865 43.865 0 0 1-4.5 7 18.436 18.436 0 0 0-.5 6c-1.877-1.16-2.377-2.826-1.5-5 1.274-3.436 3.44-6.103 6.5-8z"/><path style="opacity:1" fill="#829dc8" d="M43.5 48.5v1c-1.871.359-3.371 1.359-4.5 3-.09-2.268 1.077-3.768 3.5-4.5l-2-1c2.006-2.048 3.006-1.548 3 1.5z"/><path style="opacity:1" fill="#f2bab5" d="M49.5 43.5a46.521 46.521 0 0 0 6 18.5c1.759.797 3.425.63 5-.5a44.293 44.293 0 0 1-3-2h5a20.677 20.677 0 0 0-1 5c-.132 2.507-1.132 3.174-3 2 .11-.617.444-1.117 1-1.5a14.437 14.437 0 0 1-5.5-2.5 61.924 61.924 0 0 1-6-18c-.383-.556-.883-.89-1.5-1 1-2.667 2-2.667 3 0z"/><path style="opacity:1" fill="#6481b5" d="M60.5 50.5c.934 1.068 1.268 2.401 1 4-1.791-.134-3.458.2-5 1-.086-.996.248-1.83 1-2.5-3.607.592-3.774-.241-.5-2.5l2.5 3c.886-.825 1.219-1.825 1-3z"/><path style="opacity:1" fill="#da4f40" d="M41.5 52.5c.438-.065.772.101 1 .5a8.905 8.905 0 0 1-4 3c-4.32.499-8.654.666-13 .5v-3a69.27 69.27 0 0 0 16-1z"/><path style="opacity:1" fill="#dfdae3" d="M47.5 46.5a69.932 69.932 0 0 0 2 15c-2.772.871-5.438.871-8 0a27.364 27.364 0 0 0 4-11c.489-1.495 1.155-2.828 2-4z"/><path style="opacity:1" fill="#b2a0b6" d="M53.5 55.5h3c.905 1.464.905 2.798 0 4-1.474-.936-2.474-2.27-3-4z"/><path style="opacity:1" fill="#eeada7" d="M46.5 43.5a5.728 5.728 0 0 0 1 3c-.845 1.172-1.511 2.505-2 4-1.187 2.84-3.187 5.006-6 6.5a50.476 50.476 0 0 1-15 1.5l1-2c4.346.166 8.68-.001 13-.5a8.905 8.905 0 0 0 4-3c-.228-.399-.562-.565-1-.5l2-3v-1c1.528-1.302 2.528-2.969 3-5z"/><path style="opacity:1" fill="#d64033" d="M45.5 50.5a27.364 27.364 0 0 1-4 11c-1.527-.073-2.527.594-3 2a32.593 32.593 0 0 1-15 0 9.106 9.106 0 0 0 1-5c5.08.25 10.08-.25 15-1.5 2.813-1.494 4.813-3.66 6-6.5z"/><path style="opacity:1" fill="#96a9cd" d="M75.5 46.5c4.287 5.322 3.953 10.322-1 15 2.17 5.827.837 10.66-4 14.5a66.96 66.96 0 0 0-5.5 1.5c-1.394 1.888-3.227 3.22-5.5 4-1.355-.688-2.355-1.688-3-3 1.347.528 2.68.695 4 .5a200.405 200.405 0 0 1-4-10.5h1a23.99 23.99 0 0 1 2.5 6c.464-5.675 1.13-6.008 2-1 4.445-2.508 4.611-2.008.5 1.5 1.667.667 3.333.667 5 0-1.211-.893-1.211-1.726 0-2.5 1.154 2.356 2.487 2.523 4 .5-3.674-2.157-3.007-2.99 2-2.5.351-2.37.518-4.703.5-7-1.008-.482-2.175-.648-3.5-.5 1.402-1.343 1.069-2.176-1-2.5-1.147.318-1.98.984-2.5 2a4.932 4.932 0 0 1-.5-3c2.966.39 5.632-.277 8-2 .586.21 1.086.543 1.5 1 .8-2.867.634-5.534-.5-8v-4z"/><path style="opacity:1" fill="#7393c3" d="M93.5 44.5c1.333 6 1.333 12 0 18 .172-.992-.162-1.658-1-2v-14c.838-.342 1.172-1.008 1-2z"/><path style="opacity:1" fill="#db4e3f" d="M49.5 43.5c1.905 3.715 3.238 7.715 4 12 .526 1.73 1.526 3.064 3 4h1a44.293 44.293 0 0 0 3 2c-1.575 1.13-3.241 1.297-5 .5a46.521 46.521 0 0 1-6-18.5z"/><path style="opacity:1" fill="#f4f4f7" d="M74.5 50.5h1c1.134 2.466 1.3 5.133.5 8a3.646 3.646 0 0 0-1.5-1c-2.368 1.723-5.034 2.39-8 2a4.932 4.932 0 0 0 .5 3c.52-1.016 1.353-1.682 2.5-2 2.069.324 2.402 1.157 1 2.5 1.325-.148 2.492.018 3.5.5a45.312 45.312 0 0 1-.5 7c-5.007-.49-5.674.343-2 2.5-1.513 2.023-2.846 1.856-4-.5-1.211.774-1.211 1.607 0 2.5-1.667.667-3.333.667-5 0 4.111-3.508 3.945-4.008-.5-1.5-.87-5.008-1.536-4.675-2 1a23.99 23.99 0 0 0-2.5-6l1-2c1.868 1.174 2.868.507 3-2 1.205-2.727 2.872-5.227 5-7.5a24.939 24.939 0 0 1 7-.5c-.175-2.12.159-4.12 1-6z"/><path style="opacity:1" fill="#d74235" d="M46.5 43.5c.617.11 1.117.444 1.5 1a61.924 61.924 0 0 0 6 18 14.437 14.437 0 0 0 5.5 2.5c-.556.383-.89.883-1 1.5l-1 2h-1c-2.447-.115-4.447-1.115-6-3l-1-4a69.932 69.932 0 0 1-2-15 5.728 5.728 0 0 1-1-3z"/><path style="opacity:1" fill="#93a3c7" d="M41.5 61.5c2.562.871 5.228.871 8 0l1 4a18.436 18.436 0 0 0 .5 6 19.568 19.568 0 0 1 3.5 4c-1.871-.359-3.371-1.359-4.5-3a103.015 103.015 0 0 1-2.5-10c-1.611.82-2.278 2.154-2 4a4.932 4.932 0 0 1-3-.5c-1.333-.667-1.333-1.333 0-2a8.434 8.434 0 0 0-4-.5c.473-1.406 1.473-2.073 3-2z"/><path style="opacity:1" fill="#416cae" d="M92.5 60.5c.838.342 1.172 1.008 1 2-.522 4.588-2.188 8.588-5 12a167.569 167.569 0 0 0 4-14z"/><path style="opacity:1" fill="#f9f7f8" d="M50.5 65.5c1.553 1.885 3.553 2.885 6 3a200.405 200.405 0 0 0 4 10.5c-1.32.195-2.653.028-4-.5.073-1.527-.594-2.527-2-3a19.568 19.568 0 0 0-3.5-4 18.436 18.436 0 0 1-.5-6z"/><path style="opacity:1" fill="#a2b9d8" d="M16.5 71.5c-2.987-.448-3.987-1.948-3-4.5 2.09-.268 3.424.732 4 3-.556.383-.89.883-1 1.5z"/><path style="opacity:1" fill="#4771b1" d="M12.5 32.5c-2.84 6.863-4.507 14.03-5 21.5.932 9.63 3.931 18.463 9 26.5-5.538-5.414-8.705-12.08-9.5-20-1.274-8.626-.274-16.96 3-25 .377-1.442 1.21-2.442 2.5-3z"/><path style="opacity:1" fill="#93aed2" d="M16.5 71.5c3.69 3.184 7.358 6.684 11 10.5L25 84.5a42.716 42.716 0 0 1-9.5-11c.363-.683.696-1.35 1-2z"/><path style="opacity:1" fill="#a5bbda" d="M84.5 67.5c3.833 1.31 3.833 2.477 0 3.5 2.267 1.081 2.434 2.581.5 4.5l-10 10c-1.632-1.527-1.8-3.193-.5-5 4.55-3.454 7.884-7.787 10-13z"/><path style="opacity:1" fill="#768ebc" d="M54.5 75.5c1.406.473 2.073 1.473 2 3-1.406-.473-2.073-1.473-2-3z"/><path style="opacity:1" fill="#4570b0" d="M88.5 74.5c-6.47 12.611-16.802 20.111-31 22.5-12.952 1.903-24.619-1.097-35-9-2.618-2.106-4.618-4.606-6-7.5a97.042 97.042 0 0 0 15 11.5c23.537 8.537 42.537 2.704 57-17.5z"/><path style="opacity:1" fill="#99b3d5" d="M32.5 85.5c3.05.38 5.55 1.712 7.5 4h21c1.603-2.156 3.77-3.49 6.5-4a7.291 7.291 0 0 1 2 3 638.268 638.268 0 0 0-16 5c-2.422-.245-4.755-.245-7 0-3.474-1.562-7.14-2.395-11-2.5a20.473 20.473 0 0 0-3.5-2.5c-.47-1.077-.303-2.077.5-3z"/></svg>