<?xml version="1.0" encoding="UTF-8"?>
<!DOCTYPE svg PUBLIC "-//W3C//DTD SVG 1.1//EN" "http://www.w3.org/Graphics/SVG/1.1/DTD/svg11.dtd">
<svg xmlns="http://www.w3.org/2000/svg" version="1.1" width="147px" height="104px" style="shape-rendering:geometricPrecision; text-rendering:geometricPrecision; image-rendering:optimizeQuality; fill-rule:evenodd; clip-rule:evenodd" xmlns:xlink="http://www.w3.org/1999/xlink">
<g><path style="opacity:1" fill="#fdfefd" d="M -0.5,-0.5 C 48.5,-0.5 97.5,-0.5 146.5,-0.5C 146.5,34.1667 146.5,68.8333 146.5,103.5C 97.5,103.5 48.5,103.5 -0.5,103.5C -0.5,68.8333 -0.5,34.1667 -0.5,-0.5 Z"/></g>
<g><path style="opacity:1" fill="#c5e3f1" d="M 63.5,3.5 C 59.8183,3.3347 56.1516,3.50137 52.5,4C 48.6686,7.41892 44.3353,10.0856 39.5,12C 35.7583,14.9864 32.5916,18.4864 30,22.5C 29.6582,20.3808 28.8249,20.0474 27.5,21.5C 34.8677,6.1136 46.8677,0.113597 63.5,3.5 Z"/></g>
<g><path style="opacity:1" fill="#b1d8ee" d="M 109.5,21.5 C 103.758,21.4702 98.9248,23.4702 95,27.5C 92.262,23.6574 90.0953,23.824 88.5,28C 87.5509,28.6172 86.7175,28.4506 86,27.5C 85.7104,29.0441 85.0437,30.3774 84,31.5C 84.9076,28.0305 85.4076,24.3638 85.5,20.5C 93.7679,17.5271 101.768,17.8605 109.5,21.5 Z"/></g>
<g><path style="opacity:1" fill="#a5d1ee" d="M 63.5,3.5 C 73.7967,5.47748 81.1301,11.1441 85.5,20.5C 85.4076,24.3638 84.9076,28.0305 84,31.5C 85.0437,30.3774 85.7104,29.0441 86,27.5C 86.7175,28.4506 87.5509,28.6172 88.5,28C 90.0953,23.824 92.262,23.6574 95,27.5C 98.9248,23.4702 103.758,21.4702 109.5,21.5C 118.44,26.0383 122.773,33.3716 122.5,43.5C 125.807,44.2875 128.807,45.7875 131.5,48C 134.2,49.8567 135.866,52.3567 136.5,55.5C 135.518,54.8592 134.518,54.1925 133.5,53.5C 132.682,56.9053 133.348,60.072 135.5,63C 134.703,66.7454 134.203,70.5787 134,74.5C 133.667,74.1667 133.333,73.8333 133,73.5C 130.061,78.7767 125.894,82.6101 120.5,85C 113.452,85.2388 106.452,85.7388 99.5,86.5C 100.406,85.0351 101.739,84.0351 103.5,83.5C 104.825,71.3398 104.825,59.3398 103.5,47.5C 99.2276,43.5296 94.2276,40.863 88.5,39.5C 88.5,38.8333 88.1667,38.5 87.5,38.5C 83.1115,35.307 78.4448,32.6403 73.5,30.5C 68.67,32.0166 64.3367,34.3499 60.5,37.5C 57.2655,35.966 54.0988,34.2994 51,32.5C 46.864,32.659 43.6973,34.4923 41.5,38C 39.913,38.8624 38.2464,39.5291 36.5,40C 35.1747,45.9323 35.1747,51.7657 36.5,57.5C 39.328,59.7481 42.328,61.7481 45.5,63.5C 43.8212,63.2852 42.8212,63.9519 42.5,65.5C 42.1703,71.8682 42.5037,78.2015 43.5,84.5C 45.0255,84.9943 46.3588,85.661 47.5,86.5C 39.5251,85.8011 31.5251,85.3011 23.5,85C 20.0948,83.5484 16.9281,81.7151 14,79.5C 13.5,79.8333 13,80.1667 12.5,80.5C 13.9524,81.9397 14.9524,83.6064 15.5,85.5C 6.53035,78.9095 3.19702,70.2428 5.5,59.5C 6.5,59.5 7.5,59.5 8.5,59.5C 8.28649,57.8561 8.61983,56.3561 9.5,55C 12.4433,53.3929 15.11,51.3929 17.5,49C 20.8756,47.4967 24.209,45.9967 27.5,44.5C 26.3881,43.7348 25.7214,42.7348 25.5,41.5C 25.334,36.1563 25.5006,30.8229 26,25.5C 26.21,23.9419 26.71,22.6085 27.5,21.5C 28.8249,20.0474 29.6582,20.3808 30,22.5C 32.5916,18.4864 35.7583,14.9864 39.5,12C 44.3353,10.0856 48.6686,7.41892 52.5,4C 56.1516,3.50137 59.8183,3.3347 63.5,3.5 Z"/></g>
<g><path style="opacity:1" fill="#47bced" d="M 60.5,37.5 C 62.2202,38.3077 63.8869,39.3077 65.5,40.5C 65.5,40.8333 65.5,41.1667 65.5,41.5C 61.9256,42.6205 58.5922,44.2872 55.5,46.5C 53.4496,46.9612 51.4496,47.6279 49.5,48.5C 45.5261,46.1701 41.5261,43.8368 37.5,41.5C 36.5052,46.7921 36.1718,52.1254 36.5,57.5C 35.1747,51.7657 35.1747,45.9323 36.5,40C 38.2464,39.5291 39.913,38.8624 41.5,38C 43.6973,34.4923 46.864,32.659 51,32.5C 54.0988,34.2994 57.2655,35.966 60.5,37.5 Z"/></g>
<g><path style="opacity:1" fill="#fbfcfc" d="M 88.5,39.5 C 94.2276,40.863 99.2276,43.5296 103.5,47.5C 98.6175,51.1239 93.2842,53.7905 87.5,55.5C 83.8516,52.8581 80.1849,50.1914 76.5,47.5C 80.2229,44.4485 84.2229,41.7819 88.5,39.5 Z"/></g>
<g><path style="opacity:1" fill="#f8fbfb" d="M 87.5,38.5 C 82.8272,40.8441 78.1605,43.1774 73.5,45.5C 69.7561,45.3074 67.0894,43.6407 65.5,40.5C 63.8869,39.3077 62.2202,38.3077 60.5,37.5C 64.3367,34.3499 68.67,32.0166 73.5,30.5C 78.4448,32.6403 83.1115,35.307 87.5,38.5 Z"/></g>
<g><path style="opacity:1" fill="#1891ca" d="M 65.5,41.5 C 65.5,45.1667 65.5,48.8333 65.5,52.5C 63.6508,53.593 61.9842,54.9263 60.5,56.5C 60.1667,56.5 59.8333,56.5 59.5,56.5C 59.0925,60.1706 57.0925,62.5039 53.5,63.5C 52.5,63.5 51.5,63.5 50.5,63.5C 49.6473,58.859 49.8139,54.1923 51,49.5C 52.8778,48.9473 54.3778,47.9473 55.5,46.5C 58.5922,44.2872 61.9256,42.6205 65.5,41.5 Z"/></g>
<g><path style="opacity:1" fill="#c3e3f3" d="M 25.5,41.5 C 25.7214,42.7348 26.3881,43.7348 27.5,44.5C 24.209,45.9967 20.8756,47.4967 17.5,49C 15.11,51.3929 12.4433,53.3929 9.5,55C 8.61983,56.3561 8.28649,57.8561 8.5,59.5C 7.5,59.5 6.5,59.5 5.5,59.5C 8.40353,49.2607 15.0702,43.2607 25.5,41.5 Z"/></g>
<g><path style="opacity:1" fill="#fbfcfb" d="M 87.5,55.5 C 83.9282,59.9673 79.2615,62.9673 73.5,64.5C 68.3705,63.1031 64.0372,60.4365 60.5,56.5C 61.9842,54.9263 63.6508,53.593 65.5,52.5C 68.1401,51.1799 70.8068,49.8466 73.5,48.5C 77.9099,51.3716 82.5765,53.7049 87.5,55.5 Z"/></g>
<g><path style="opacity:1" fill="#d5d7d8" d="M 87.5,38.5 C 88.1667,38.5 88.5,38.8333 88.5,39.5C 84.2229,41.7819 80.2229,44.4485 76.5,47.5C 80.1849,50.1914 83.8516,52.8581 87.5,55.5C 82.5765,53.7049 77.9099,51.3716 73.5,48.5C 70.8068,49.8466 68.1401,51.1799 65.5,52.5C 65.5,48.8333 65.5,45.1667 65.5,41.5C 65.5,41.1667 65.5,40.8333 65.5,40.5C 67.0894,43.6407 69.7561,45.3074 73.5,45.5C 78.1605,43.1774 82.8272,40.8441 87.5,38.5 Z"/></g>
<g><path style="opacity:1" fill="#239fd7" d="M 55.5,46.5 C 54.3778,47.9473 52.8778,48.9473 51,49.5C 49.8139,54.1923 49.6473,58.859 50.5,63.5C 51.5,63.5 52.5,63.5 53.5,63.5C 53.1344,64.6946 52.301,65.3613 51,65.5C 49.1997,64.6805 47.3664,64.0138 45.5,63.5C 42.328,61.7481 39.328,59.7481 36.5,57.5C 36.1718,52.1254 36.5052,46.7921 37.5,41.5C 41.5261,43.8368 45.5261,46.1701 49.5,48.5C 51.4496,47.6279 53.4496,46.9612 55.5,46.5 Z"/></g>
<g><path style="opacity:1" fill="#a2cce2" d="M 136.5,55.5 C 138.782,58.524 139.782,62.024 139.5,66C 139.7,68.8655 139.033,71.3655 137.5,73.5C 137.575,67.4707 137.241,61.4707 136.5,55.5 Z"/></g>
<g><path style="opacity:1" fill="#e9e8e8" d="M 59.5,56.5 C 59.8333,56.5 60.1667,56.5 60.5,56.5C 64.0372,60.4365 68.3705,63.1031 73.5,64.5C 73.8288,70.2055 73.4954,75.8722 72.5,81.5C 71.1502,80.0499 69.4835,79.3832 67.5,79.5C 65.5187,77.6969 63.352,76.0303 61,74.5C 59.6392,68.5933 59.1392,62.5933 59.5,56.5 Z"/></g>
<g><path style="opacity:1" fill="#c9cdce" d="M 59.5,56.5 C 59.1392,62.5933 59.6392,68.5933 61,74.5C 63.352,76.0303 65.5187,77.6969 67.5,79.5C 64.634,78.2407 61.634,77.2407 58.5,76.5C 58.8195,81.3633 58.4861,86.03 57.5,90.5C 57.8288,84.7945 57.4954,79.1278 56.5,73.5C 51.4802,71.3272 46.8135,68.6606 42.5,65.5C 42.8212,63.9519 43.8212,63.2852 45.5,63.5C 47.3664,64.0138 49.1997,64.6805 51,65.5C 52.301,65.3613 53.1344,64.6946 53.5,63.5C 57.0925,62.5039 59.0925,60.1706 59.5,56.5 Z"/></g>
<g><path style="opacity:1" fill="#c9caca" d="M 103.5,47.5 C 104.825,59.3398 104.825,71.3398 103.5,83.5C 101.739,84.0351 100.406,85.0351 99.5,86.5C 97.5447,86.7986 96.2114,87.7986 95.5,89.5C 90.6482,89.5049 86.6482,91.3382 83.5,95C 80.2635,96.7862 76.9302,98.2862 73.5,99.5C 73.8282,94.1254 73.4948,88.7921 72.5,83.5C 70.2145,82.8671 68.5478,81.5338 67.5,79.5C 69.4835,79.3832 71.1502,80.0499 72.5,81.5C 73.4954,75.8722 73.8288,70.2055 73.5,64.5C 79.2615,62.9673 83.9282,59.9673 87.5,55.5C 93.2842,53.7905 98.6175,51.1239 103.5,47.5 Z"/></g>
<g><path style="opacity:1" fill="#e6e8e9" d="M 42.5,65.5 C 46.8135,68.6606 51.4802,71.3272 56.5,73.5C 57.4954,79.1278 57.8288,84.7945 57.5,90.5C 55.5648,89.8505 53.5648,89.5172 51.5,89.5C 50.9653,87.5544 49.632,86.5544 47.5,86.5C 46.3588,85.661 45.0255,84.9943 43.5,84.5C 42.5037,78.2015 42.1703,71.8682 42.5,65.5 Z"/></g>
<g><path style="opacity:1" fill="#e8e8e8" d="M 67.5,79.5 C 68.5478,81.5338 70.2145,82.8671 72.5,83.5C 73.4948,88.7921 73.8282,94.1254 73.5,99.5C 67.5429,97.5237 62.2096,94.5237 57.5,90.5C 58.4861,86.03 58.8195,81.3633 58.5,76.5C 61.634,77.2407 64.634,78.2407 67.5,79.5 Z"/></g>
<g><path style="opacity:1" fill="#96c8e9" d="M 47.5,86.5 C 49.632,86.5544 50.9653,87.5544 51.5,89.5C 42.1607,89.6665 32.8274,89.4998 23.5,89C 20.5989,88.1249 17.9323,86.9582 15.5,85.5C 14.9524,83.6064 13.9524,81.9397 12.5,80.5C 13,80.1667 13.5,79.8333 14,79.5C 16.9281,81.7151 20.0948,83.5484 23.5,85C 31.5251,85.3011 39.5251,85.8011 47.5,86.5 Z"/></g>
<g><path style="opacity:1" fill="#94c7e8" d="M 136.5,55.5 C 137.241,61.4707 137.575,67.4707 137.5,73.5C 134.441,82.0575 128.441,87.2242 119.5,89C 111.507,89.4997 103.507,89.6664 95.5,89.5C 96.2114,87.7986 97.5447,86.7986 99.5,86.5C 106.452,85.7388 113.452,85.2388 120.5,85C 125.894,82.6101 130.061,78.7767 133,73.5C 133.333,73.8333 133.667,74.1667 134,74.5C 134.203,70.5787 134.703,66.7454 135.5,63C 133.348,60.072 132.682,56.9053 133.5,53.5C 134.518,54.1925 135.518,54.8592 136.5,55.5 Z"/></g>
</svg>
