<?xml version="1.0" encoding="UTF-8"?>
<!DOCTYPE svg PUBLIC "-//W3C//DTD SVG 1.1//EN" "http://www.w3.org/Graphics/SVG/1.1/DTD/svg11.dtd">
<svg xmlns="http://www.w3.org/2000/svg" version="1.1" width="200px" height="200px" style="shape-rendering:geometricPrecision; text-rendering:geometricPrecision; image-rendering:optimizeQuality; fill-rule:evenodd; clip-rule:evenodd" xmlns:xlink="http://www.w3.org/1999/xlink">
<g><path style="opacity:1" fill="#010101" d="M -0.5,-0.5 C 66.1667,-0.5 132.833,-0.5 199.5,-0.5C 199.5,66.1667 199.5,132.833 199.5,199.5C 132.833,199.5 66.1667,199.5 -0.5,199.5C -0.5,132.833 -0.5,66.1667 -0.5,-0.5 Z"/></g>
<g><path style="opacity:1" fill="#767676" d="M 154.5,27.5 C 174.14,25.6263 179.974,33.6263 172,51.5C 167.577,57.9275 162.41,63.7608 156.5,69C 163.492,69.4996 170.492,69.6663 177.5,69.5C 177.5,71.5 177.5,73.5 177.5,75.5C 167.917,75.8184 158.417,75.4851 149,74.5C 148.333,72.8333 148.333,71.1667 149,69.5C 153.633,63.8651 158.633,58.5318 164,53.5C 168.306,48.5693 169.972,42.9026 169,36.5C 162.94,31.2684 156.773,31.2684 150.5,36.5C 149.167,34.5 149.167,32.5 150.5,30.5C 151.901,29.4793 153.235,28.4793 154.5,27.5 Z"/></g>
<g><path style="opacity:1" fill="#ededed" d="M 19.5,44.5 C 28.9903,46.5762 38.3237,49.2428 47.5,52.5C 47.7394,54.4672 47.4061,56.3005 46.5,58C 37.2562,56.9244 28.2562,54.5911 19.5,51C 18.3947,48.8797 18.3947,46.7131 19.5,44.5 Z"/></g>
<g><path style="opacity:1" fill="#2db5b5" d="M 87.5,54.5 C 82.4635,54.4126 77.4635,54.746 72.5,55.5C 75.1864,54.0092 78.1864,53.3425 81.5,53.5C 83.6965,53.5046 85.6965,53.838 87.5,54.5 Z"/></g>
<g><path style="opacity:1" fill="#3df7f7" d="M 87.5,54.5 C 99.5202,58.5426 105.02,66.8759 104,79.5C 101.398,82.3829 98.2315,84.0496 94.5,84.5C 96.6809,72.1944 91.6809,66.3611 79.5,67C 60.396,76.2788 59.5627,86.4455 77,97.5C 71,104.167 65,104.167 59,97.5C 49.366,86.3024 49.1994,75.1357 58.5,64C 62.7231,60.3906 67.3898,57.5572 72.5,55.5C 77.4635,54.746 82.4635,54.4126 87.5,54.5 Z"/></g>
<g><path style="opacity:1" fill="#ededed" d="M 15.5,58.5 C 24.6044,60.4771 33.6044,62.9771 42.5,66C 44.0746,68.8703 43.4079,71.037 40.5,72.5C 32.4086,70.3029 24.4086,67.8029 16.5,65C 14.1762,63.1755 13.8428,61.0088 15.5,58.5 Z"/></g>
<g><path style="opacity:1" fill="#a579c3" d="M 132.5,84.5 C 134.981,84.3234 136.814,85.3234 138,87.5C 138.837,89.8383 139.67,92.1716 140.5,94.5C 140.392,95.4419 140.059,96.2753 139.5,97C 118.167,105.667 96.8333,114.333 75.5,123C 74.2161,123.684 73.0495,123.517 72,122.5C 69.1256,118.98 68.2922,115.147 69.5,111C 90.6412,102.239 111.641,93.4056 132.5,84.5 Z"/></g>
<g><path style="opacity:1" fill="#eed094" d="M 137.5,118.5 C 146.995,118.303 150.329,122.803 147.5,132C 137.1,136.624 132.6,133.124 134,121.5C 135.145,120.364 136.312,119.364 137.5,118.5 Z"/></g>
<g><path style="opacity:1" fill="#f4d598" d="M 92.5,144.5 C 89.8478,144.41 87.5145,145.076 85.5,146.5C 82.6735,147.974 80.1735,147.64 78,145.5C 76.7235,141.903 76.3901,138.236 77,134.5C 91.1159,130.95 105.283,127.45 119.5,124C 124.683,122.181 127.516,124.014 128,129.5C 128.758,131.769 128.591,133.936 127.5,136C 115.864,138.992 104.198,141.826 92.5,144.5 Z"/></g>
<g><path style="opacity:1" fill="#41392a" d="M 92.5,144.5 C 90.4855,145.924 88.1522,146.59 85.5,146.5C 87.5145,145.076 89.8478,144.41 92.5,144.5 Z"/></g>
<g><path style="opacity:1" fill="#f3f3f3" d="M 62.5,149.5 C 65.5,149.5 68.5,149.5 71.5,149.5C 71.154,152.602 71.8207,155.435 73.5,158C 90.5246,158.525 107.525,158.025 124.5,156.5C 126.5,156.667 128.5,156.833 130.5,157C 132.774,160.918 133.107,165.085 131.5,169.5C 113.852,170.793 96.1851,171.793 78.5,172.5C 67.1317,173.129 61.1317,167.796 60.5,156.5C 60.3187,153.837 60.9854,151.503 62.5,149.5 Z"/></g>
<g><path style="opacity:1" fill="#e9e9e9" d="M 141.5,154.5 C 152.86,153.71 156.193,158.543 151.5,169C 143.612,172.607 139.279,170.107 138.5,161.5C 138.695,158.782 139.695,156.449 141.5,154.5 Z"/></g>
</svg>
