<svg xmlns="http://www.w3.org/2000/svg" width="257" height="257" style="shape-rendering:geometricPrecision;text-rendering:geometricPrecision;image-rendering:optimizeQuality;fill-rule:evenodd;clip-rule:evenodd"><path style="opacity:1" fill="#414e58" d="M197.5 21.5a14.068 14.068 0 0 1-3.5-1 2400.097 2400.097 0 0 0-82.5 29c-17.298-2.264-33.631.569-49 8.5-10.791 8.08-16.458 18.913-17 32.5a1639.315 1639.315 0 0 0-43 15c7.902-42.072 30.902-72.905 69-92.5 40.639-17.77 80.639-16.437 120 4 2.247 1.277 4.247 2.777 6 4.5z"/><path style="opacity:1" fill="#3d4a53" d="M197.5 21.5c23.628 14.97 40.295 35.637 50 62-1.568-.973-3.235-1.14-5-.5a509.97 509.97 0 0 0-38 13.5 447.166 447.166 0 0 0-31-4c-14.704-23.053-35.37-37.386-62-43a2400.097 2400.097 0 0 1 82.5-29c1.138.49 2.305.823 3.5 1z"/><path style="opacity:1" fill="#fcfcfc" d="M111.5 49.5c26.63 5.614 47.296 19.947 62 43a447.166 447.166 0 0 1 31 4c5.517 1.347 9.35 4.68 11.5 10a503.64 503.64 0 0 1 9.5 34.5c-.732 8.297-3.565 15.797-8.5 22.5-5.4 6.902-11.567 12.902-18.5 18a104.391 104.391 0 0 0-12 6.5c-26.11 8.556-50.444 20.556-73 36A393.677 393.677 0 0 1 72 240.5c-1.03.336-1.53 1.003-1.5 2-4.82-1.574-9.153-3.907-13-7 .283-.716.616-1.549 1-2.5 18.81-5.171 35.478-14.171 50-27a514.233 514.233 0 0 0-30 .5 587.898 587.898 0 0 1-36-2c-5.683.182-11.35.516-17 1-2.45-2.129-4.117-4.796-5-8a4413.972 4413.972 0 0 0 59-5.5 246.069 246.069 0 0 0-59 4.5c-2.577-1.106-4.244-3.106-5-6 .761-.891 1.761-1.558 3-2a313.865 313.865 0 0 0 48-13c-19.576-5.36-39.243-6.36-59-3a87.997 87.997 0 0 1-4-10 206.083 206.083 0 0 1 51-4.5 718.879 718.879 0 0 0 37 7c12.195 1.182 24.195.182 36-3a199.584 199.584 0 0 1-35 1 292.097 292.097 0 0 1-37-7l-11.5-.5a295.364 295.364 0 0 0-40.5 4c-1.298-3.964-2.298-8.13-3-12.5.028-1.07.361-1.903 1-2.5 35.203 8.171 70.37 7.838 105.5-1 8.368 1.977 16.868 2.477 25.5 1.5a289.172 289.172 0 0 1-55.5-9.5c-8.885-2.273-16.551-6.606-23-13-5.648-9.924-8.48-20.59-8.5-32 .542-13.587 6.209-24.42 17-32.5 15.369-7.931 31.702-10.764 49-8.5z"/><path style="opacity:1" fill="#3c4951" d="M78.5 62.5a47.352 47.352 0 0 1 17.5 2c9.926-4.132 18.092-1.965 24.5 6.5 10.024-1.114 17.857 2.386 23.5 10.5.728 2.73.562 5.397-.5 8 4.635 4.139 7.301 9.306 8 15.5.004 3.827-1.663 6.66-5 8.5-1.089 6.923-5.089 11.09-12 12.5a30.485 30.485 0 0 1-11 0 88.712 88.712 0 0 1-13.5-7.5c-13.586 2.138-25.086-1.695-34.5-11.5-10.078-.98-14.244-6.48-12.5-16.5a35.163 35.163 0 0 1 5-10 50.35 50.35 0 0 1 2-11c2.441-2.954 5.275-5.287 8.5-7z"/><path style="opacity:1" fill="#3d4951" d="M45.5 90.5c.02 11.41 2.852 22.076 8.5 32 6.449 6.394 14.115 10.727 23 13a289.172 289.172 0 0 0 55.5 9.5c-8.632.977-17.132.477-25.5-1.5-35.13 8.838-70.297 9.171-105.5 1a144.628 144.628 0 0 1-1-16.5c-.184-7.728.483-15.228 2-22.5a1639.315 1639.315 0 0 1 43-15z"/><path style="opacity:1" fill="#3d484f" d="M193.5 117.5c4.103-.731 7.603.269 10.5 3 .795 2.883-.371 4.383-3.5 4.5-8.407 2.438-10.741-.062-7-7.5z"/><path style="opacity:1" fill="#363f46" d="M247.5 83.5c10.209 28.323 10.543 56.657 1 85 .219-1.175-.114-2.175-1-3a1048.51 1048.51 0 0 1-49 16c6.933-5.098 13.1-11.098 18.5-18 4.935-6.703 7.768-14.203 8.5-22.5a503.64 503.64 0 0 0-9.5-34.5c-2.15-5.32-5.983-8.653-11.5-10a509.97 509.97 0 0 1 38-13.5c1.765-.64 3.432-.473 5 .5z"/><path style="opacity:1" fill="#4e575e" d="M3.5 162.5c1.333-1 1.333-2 0-3a295.364 295.364 0 0 1 40.5-4l11.5.5a292.097 292.097 0 0 0 37 7c11.743.691 23.41.357 35-1-11.805 3.182-23.805 4.182-36 3a718.879 718.879 0 0 1-37-7c-17.186-.62-34.186.88-51 4.5z"/><path style="opacity:1" fill="#2f363b" d="M248.5 168.5c-15.966 45.126-47.299 73.293-94 84.5-29.206 5.683-57.207 2.183-84-10.5-.03-.997.47-1.664 1.5-2a393.677 393.677 0 0 0 41.5-16.5c22.556-15.444 46.89-27.444 73-36 3.867-2.433 7.867-4.6 12-6.5a1048.51 1048.51 0 0 0 49-16c.886.825 1.219 1.825 1 3z"/><path style="opacity:.996" fill="#f4f5f5" d="M13.5 186.5c-2.092-2.588-3.425-5.588-4-9v-3a393.772 393.772 0 0 0 24.5-3 148.2 148.2 0 0 1 25.5 4.5c-15.273 5.158-30.606 8.658-46 10.5z"/><path style="opacity:1" fill="#4b555c" d="M15.5 190.5c-.845-1.171-1.511-2.505-2-4 15.394-1.842 30.727-5.342 46-10.5a148.2 148.2 0 0 0-25.5-4.5 393.772 393.772 0 0 1-24.5 3v3c-1.922-1.46-2.59-3.127-2-5 19.757-3.36 39.424-2.36 59 3a313.865 313.865 0 0 1-48 13c-1.239.442-2.239 1.109-3 2z"/><path style="opacity:1" fill="#4f585e" d="M20.5 197.5v-1a246.069 246.069 0 0 1 59-4.5 4413.972 4413.972 0 0 1-59 5.5z"/><path style="opacity:1" fill="#485056" d="M57.5 235.5a65.566 65.566 0 0 1-7-5c1.467.394 2.967.727 4.5 1a177.806 177.806 0 0 0 20.5-5.5 581.707 581.707 0 0 0 27-18c-11.318.127-22.65.461-34 1a247.243 247.243 0 0 1-25 15.5 10.162 10.162 0 0 0-3-3c9.226-2.447 17.559-6.781 25-13a168.17 168.17 0 0 0-31-1.5c-2.084.697-3.751 1.864-5 3.5-.63-2.207-1.964-3.874-4-5 5.65-.484 11.317-.818 17-1a587.898 587.898 0 0 0 36 2 514.233 514.233 0 0 1 30-.5c-14.522 12.829-31.19 21.829-50 27-.384.951-.717 1.784-1 2.5z"/><path style="opacity:1" fill="#f9f9f9" d="M40.5 221.5c-.992.172-1.658-.162-2-1-1.28-2.993-3.614-5.66-7-8-1-.333-1.667-1-2-2 1.249-1.636 2.916-2.803 5-3.5a168.17 168.17 0 0 1 31 1.5c-7.441 6.219-15.774 10.553-25 13z"/><path style="opacity:1" fill="#f8f8f8" d="M50.5 230.5c-2.947-1.281-5.28-3.281-7-6a247.243 247.243 0 0 0 25-15.5 938.676 938.676 0 0 1 34-1 581.707 581.707 0 0 1-27 18 177.806 177.806 0 0 1-20.5 5.5 53.543 53.543 0 0 1-4.5-1z"/><path style="opacity:.063" fill="#7c7c7c" d="M31.5 212.5c3.386 2.34 5.72 5.007 7 8-3.072-2.069-5.406-4.736-7-8z"/></svg>