<?xml version="1.0" encoding="UTF-8"?>
<!DOCTYPE svg PUBLIC "-//W3C//DTD SVG 1.1//EN" "http://www.w3.org/Graphics/SVG/1.1/DTD/svg11.dtd">
<svg xmlns="http://www.w3.org/2000/svg" version="1.1" width="155px" height="99px" style="shape-rendering:geometricPrecision; text-rendering:geometricPrecision; image-rendering:optimizeQuality; fill-rule:evenodd; clip-rule:evenodd" xmlns:xlink="http://www.w3.org/1999/xlink">
<g><path style="opacity:0.953" fill="#b0aed2" d="M 0.5,0.5 C 0.5,0.166667 0.5,-0.166667 0.5,-0.5C 33.5,-0.5 66.5,-0.5 99.5,-0.5C 99.5,0.166667 99.5,0.833333 99.5,1.5C 93.4094,1.029 87.4094,0.695667 81.5,0.5C 81.1667,7.16667 80.8333,7.16667 80.5,0.5C 75.3351,1.14872 70.1684,1.48206 65,1.5C 64.2571,3.44058 64.4238,5.27391 65.5,7C 69.1516,7.49863 72.8183,7.6653 76.5,7.5C 76.1583,8.33825 75.4916,8.67158 74.5,8.5C 68.691,9.12422 63.0244,9.12422 57.5,8.5C 57.8294,11.2282 57.1628,13.5615 55.5,15.5C 55.5,13.1667 55.5,10.8333 55.5,8.5C 53.1667,8.5 50.8333,8.5 48.5,8.5C 48.5,10.8333 48.5,13.1667 48.5,15.5C 48.1667,15.5 47.8333,15.5 47.5,15.5C 47.5,13.1667 47.5,10.8333 47.5,8.5C 45.1667,8.5 42.8333,8.5 40.5,8.5C 40.5,10.8333 40.5,13.1667 40.5,15.5C 40.1667,15.5 39.8333,15.5 39.5,15.5C 39.5,13.1667 39.5,10.8333 39.5,8.5C 37.5,8.5 35.5,8.5 33.5,8.5C 33.5,10.8333 33.5,13.1667 33.5,15.5C 32.8333,15.5 32.1667,15.5 31.5,15.5C 31.5,13.1667 31.5,10.8333 31.5,8.5C 29.5,8.5 27.5,8.5 25.5,8.5C 25.5,10.8333 25.5,13.1667 25.5,15.5C 24.8333,15.5 24.1667,15.5 23.5,15.5C 23.5,13.1667 23.5,10.8333 23.5,8.5C 21.1667,8.5 18.8333,8.5 16.5,8.5C 16.5,10.8333 16.5,13.1667 16.5,15.5C 16.1667,15.5 15.8333,15.5 15.5,15.5C 15.5,13.1667 15.5,10.8333 15.5,8.5C 13.1667,8.5 10.8333,8.5 8.5,8.5C 8.5,8.16667 8.5,7.83333 8.5,7.5C 8.16667,7.5 7.83333,7.5 7.5,7.5C 7.5,5.16667 7.5,2.83333 7.5,0.5C 5.16667,0.5 2.83333,0.5 0.5,0.5 Z"/></g>
<g><path style="opacity:1" fill="#fcfcfd" d="M 0.5,0.5 C 2.83333,0.5 5.16667,0.5 7.5,0.5C 7.5,2.83333 7.5,5.16667 7.5,7.5C 5.16667,7.5 2.83333,7.5 0.5,7.5C 0.5,5.16667 0.5,2.83333 0.5,0.5 Z"/></g>
<g><path style="opacity:1" fill="#eff0f0" d="M 8.5,7.5 C 8.5,5.16667 8.5,2.83333 8.5,0.5C 10.8333,0.5 13.1667,0.5 15.5,0.5C 15.5,2.83333 15.5,5.16667 15.5,7.5C 13.1667,7.5 10.8333,7.5 8.5,7.5 Z"/></g>
<g><path style="opacity:1" fill="#eff0ef" d="M 16.5,0.5 C 18.8333,0.5 21.1667,0.5 23.5,0.5C 23.5,2.83333 23.5,5.16667 23.5,7.5C 21.1667,7.5 18.8333,7.5 16.5,7.5C 16.5,5.16667 16.5,2.83333 16.5,0.5 Z"/></g>
<g><path style="opacity:1" fill="#f1f2f1" d="M 25.5,0.5 C 27.5,0.5 29.5,0.5 31.5,0.5C 31.5,2.83333 31.5,5.16667 31.5,7.5C 29.5,7.5 27.5,7.5 25.5,7.5C 25.5,5.16667 25.5,2.83333 25.5,0.5 Z"/></g>
<g><path style="opacity:1" fill="#f6f7f8" d="M 48.5,0.5 C 50.8333,0.5 53.1667,0.5 55.5,0.5C 55.5,2.83333 55.5,5.16667 55.5,7.5C 53.1667,7.5 50.8333,7.5 48.5,7.5C 48.5,5.16667 48.5,2.83333 48.5,0.5 Z"/></g>
<g><path style="opacity:1" fill="#f6f7f8" d="M 57.5,0.5 C 59.5,0.5 61.5,0.5 63.5,0.5C 63.5,2.83333 63.5,5.16667 63.5,7.5C 61.5,7.5 59.5,7.5 57.5,7.5C 57.5,5.16667 57.5,2.83333 57.5,0.5 Z"/></g>
<g><path style="opacity:0.335" fill="#d7dad9" d="M 99.5,1.5 C 99.369,2.23891 99.5357,2.90558 100,3.5C 101.738,2.87289 103.571,2.53956 105.5,2.5C 110.855,3.07464 116.188,3.7413 121.5,4.5C 122.5,4.83333 123.167,5.5 123.5,6.5C 122.9,7.90018 121.9,8.90018 120.5,9.5C 117.587,8.75895 114.587,8.25895 111.5,8C 110.944,7.61742 110.611,7.11742 110.5,6.5C 109.892,3.36558 108.226,2.69891 105.5,4.5C 99.8333,4.5 94.1667,4.5 88.5,4.5C 86.4017,3.0857 85.4017,3.75236 85.5,6.5C 84.7784,6.08247 84.2784,5.4158 84,4.5C 81.8063,6.17783 79.3063,7.17783 76.5,7.5C 72.8183,7.6653 69.1516,7.49863 65.5,7C 64.4238,5.27391 64.2571,3.44058 65,1.5C 70.1684,1.48206 75.3351,1.14872 80.5,0.5C 80.8333,7.16667 81.1667,7.16667 81.5,0.5C 87.4094,0.695667 93.4094,1.029 99.5,1.5 Z"/></g>
<g><path style="opacity:1" fill="#818d75" d="M 51.5,2.5 C 53.9701,3.36026 54.1368,4.69359 52,6.5C 51.51,5.20677 51.3433,3.87344 51.5,2.5 Z"/></g>
<g><path style="opacity:1" fill="#838f78" d="M 59.5,2.5 C 60.5862,2.61998 61.2528,3.28665 61.5,4.5C 61.1667,5.16667 60.8333,5.83333 60.5,6.5C 59.5713,5.31116 59.238,3.97782 59.5,2.5 Z"/></g>
<g><path style="opacity:1" fill="#74816a" d="M 67.5,2.5 C 69.9701,3.36026 70.1368,4.69359 68,6.5C 67.51,5.20677 67.3433,3.87344 67.5,2.5 Z"/></g>
<g><path style="opacity:1" fill="#0d0b76" d="M 88.5,4.5 C 88.6107,5.11742 88.944,5.61742 89.5,6C 88.2068,6.49001 86.8734,6.65668 85.5,6.5C 85.4017,3.75236 86.4017,3.0857 88.5,4.5 Z"/></g>
<g><path style="opacity:1" fill="#1a157a" d="M 110.5,6.5 C 108.447,6.59794 106.78,5.93127 105.5,4.5C 108.226,2.69891 109.892,3.36558 110.5,6.5 Z"/></g>
<g><path style="opacity:1" fill="#241d7e" d="M 121.5,2.5 C 122.833,2.5 124.167,2.5 125.5,2.5C 124.221,5.63747 124.555,8.63747 126.5,11.5C 125.833,11.5 125.167,11.5 124.5,11.5C 124.371,9.7839 124.038,8.11723 123.5,6.5C 123.167,5.5 122.5,4.83333 121.5,4.5C 121.5,3.83333 121.5,3.16667 121.5,2.5 Z"/></g>
<g><path style="opacity:1" fill="#f9faf9" d="M 85.5,6.5 C 88.1667,9.5 88.1667,12.5 85.5,15.5C 84.5084,15.3284 83.8417,15.6618 83.5,16.5C 79.9734,17.2603 76.64,18.5936 73.5,20.5C 72.8076,19.9747 72.3076,19.3081 72,18.5C 70.8868,21.7814 68.7201,23.7814 65.5,24.5C 64.6618,24.8417 64.3284,25.5084 64.5,26.5C 64.5,27.8333 64.5,29.1667 64.5,30.5C 63.8761,30.9169 63.5427,31.5836 63.5,32.5C 63.7472,33.7133 64.4138,34.38 65.5,34.5C 67.8371,41.8442 70.1705,49.1776 72.5,56.5C 71.8333,56.5 71.5,56.8333 71.5,57.5C 68.91,58.1283 66.5766,59.295 64.5,61C 62.0709,61.7033 59.7375,61.5366 57.5,60.5C 57.1667,60.5 56.8333,60.5 56.5,60.5C 53.8951,58.2571 51.8951,55.5904 50.5,52.5C 50.5,53.5 50.5,54.5 50.5,55.5C 44.0019,55.7177 37.6685,54.8843 31.5,53C 28.8101,49.7585 27.8101,45.9252 28.5,41.5C 29.1667,41.5 29.5,41.1667 29.5,40.5C 30.9845,34.495 34.3178,29.6617 39.5,26C 46.1433,22.33 52.4767,18.33 58.5,14C 63.6701,11.3476 69.0035,9.51428 74.5,8.5C 75.4916,8.67158 76.1583,8.33825 76.5,7.5C 79.3063,7.17783 81.8063,6.17783 84,4.5C 84.2784,5.4158 84.7784,6.08247 85.5,6.5 Z"/></g>
<g><path style="opacity:1" fill="#e7e8ed" d="M 33.5,0.5 C 38.1667,0.5 42.8333,0.5 47.5,0.5C 47.5,2.83333 47.5,5.16667 47.5,7.5C 45.1667,7.5 42.8333,7.5 40.5,7.5C 40.1667,-0.5 39.8333,-0.5 39.5,7.5C 37.5,7.5 35.5,7.5 33.5,7.5C 33.5,5.16667 33.5,2.83333 33.5,0.5 Z"/></g>
<g><path style="opacity:1" fill="#85917a" d="M 44.5,1.5 C 45.4345,2.56764 45.7678,3.90097 45.5,5.5C 44.448,5.64945 43.448,5.48278 42.5,5C 43.305,3.88732 43.9717,2.72065 44.5,1.5 Z"/></g>
<g><path style="opacity:1" fill="#efeff0" d="M 7.5,8.5 C 7.5,10.8333 7.5,13.1667 7.5,15.5C 5.16667,15.5 2.83333,15.5 0.5,15.5C 0.5,13.1667 0.5,10.8333 0.5,8.5C 2.83333,8.5 5.16667,8.5 7.5,8.5 Z"/></g>
<g><path style="opacity:1" fill="#f9f9fb" d="M 8.5,8.5 C 10.8333,8.5 13.1667,8.5 15.5,8.5C 15.5,10.8333 15.5,13.1667 15.5,15.5C 13.1667,15.5 10.8333,15.5 8.5,15.5C 8.5,13.1667 8.5,10.8333 8.5,8.5 Z"/></g>
<g><path style="opacity:1" fill="#f2f2f2" d="M 23.5,15.5 C 21.1667,15.5 18.8333,15.5 16.5,15.5C 16.5,13.1667 16.5,10.8333 16.5,8.5C 18.8333,8.5 21.1667,8.5 23.5,8.5C 23.5,10.8333 23.5,13.1667 23.5,15.5 Z"/></g>
<g><path style="opacity:1" fill="#eeefed" d="M 31.5,15.5 C 29.5,15.5 27.5,15.5 25.5,15.5C 25.5,13.1667 25.5,10.8333 25.5,8.5C 27.5,8.5 29.5,8.5 31.5,8.5C 31.5,10.8333 31.5,13.1667 31.5,15.5 Z"/></g>
<g><path style="opacity:1" fill="#e5e7e3" d="M 39.5,15.5 C 37.5,15.5 35.5,15.5 33.5,15.5C 33.5,13.1667 33.5,10.8333 33.5,8.5C 35.5,8.5 37.5,8.5 39.5,8.5C 39.5,10.8333 39.5,13.1667 39.5,15.5 Z"/></g>
<g><path style="opacity:1" fill="#f9f9f9" d="M 55.5,15.5 C 53.5,15.5 51.5,15.5 49.5,15.5C 49.1667,15.5 48.8333,15.5 48.5,15.5C 48.5,13.1667 48.5,10.8333 48.5,8.5C 50.8333,8.5 53.1667,8.5 55.5,8.5C 55.5,10.8333 55.5,13.1667 55.5,15.5 Z"/></g>
<g><path style="opacity:1" fill="#dcdde2" d="M 47.5,15.5 C 45.1667,15.5 42.8333,15.5 40.5,15.5C 40.5,13.1667 40.5,10.8333 40.5,8.5C 42.8333,8.5 45.1667,8.5 47.5,8.5C 47.5,10.8333 47.5,13.1667 47.5,15.5 Z"/></g>
<g><path style="opacity:1" fill="#261d80" d="M 133.5,8.5 C 134.167,8.5 134.833,8.5 135.5,8.5C 135.634,10.2915 135.301,11.9582 134.5,13.5C 133.833,13.1667 133.167,12.8333 132.5,12.5C 132.833,11.1667 133.167,9.83333 133.5,8.5 Z"/></g>
<g><path style="opacity:1" fill="#f7f8f7" d="M 101.5,11.5 C 102.765,12.4793 104.099,13.4793 105.5,14.5C 103.092,20.7239 101.092,27.0572 99.5,33.5C 96.8333,33.8333 94.1667,34.1667 91.5,34.5C 90.1796,27.9451 89.5129,21.2784 89.5,14.5C 93.1691,11.6363 97.1691,10.6363 101.5,11.5 Z"/></g>
<g><path style="opacity:1" fill="#8a957e" d="M 51.5,10.5 C 52.5862,10.62 53.2528,11.2867 53.5,12.5C 53.1667,13.1667 52.8333,13.8333 52.5,14.5C 51.5713,13.3112 51.238,11.9778 51.5,10.5 Z"/></g>
<g><path style="opacity:1" fill="#8f8ebe" d="M 88.5,4.5 C 94.1667,4.5 99.8333,4.5 105.5,4.5C 106.78,5.93127 108.447,6.59794 110.5,6.5C 110.611,7.11742 110.944,7.61742 111.5,8C 114.587,8.25895 117.587,8.75895 120.5,9.5C 120.5,9.83333 120.5,10.1667 120.5,10.5C 117.859,9.73688 115.192,9.57022 112.5,10C 114.098,14.4031 117.098,17.2364 121.5,18.5C 121.5,18.8333 121.5,19.1667 121.5,19.5C 120.448,19.3505 119.448,19.5172 118.5,20C 119.823,20.8159 120.489,21.9826 120.5,23.5C 118.5,22.024 116.833,20.1906 115.5,18C 112.65,16.8289 109.816,15.6623 107,14.5C 104.545,20.3229 102.712,26.3229 101.5,32.5C 100.833,32.5 100.5,32.8333 100.5,33.5C 100.167,33.5 99.8333,33.5 99.5,33.5C 101.092,27.0572 103.092,20.7239 105.5,14.5C 104.099,13.4793 102.765,12.4793 101.5,11.5C 97.1691,10.6363 93.1691,11.6363 89.5,14.5C 88.2921,15.2341 86.9587,15.5674 85.5,15.5C 88.1667,12.5 88.1667,9.5 85.5,6.5C 86.8734,6.65668 88.2068,6.49001 89.5,6C 88.944,5.61742 88.6107,5.11742 88.5,4.5 Z"/></g>
<g><path style="opacity:1" fill="#f0f1f3" d="M 108.5,7.5 C 110.636,9.81227 112.636,12.3123 114.5,15C 108.555,15.5458 106.555,13.0458 108.5,7.5 Z"/></g>
<g><path style="opacity:1" fill="#f3f3f8" d="M 101.5,11.5 C 101.082,10.7784 100.416,10.2784 99.5,10C 101.594,8.64849 103.927,8.14849 106.5,8.5C 106.762,9.97782 106.429,11.3112 105.5,12.5C 104.264,11.7542 102.93,11.4208 101.5,11.5 Z"/></g>
<g><path style="opacity:1" fill="#f8f8fb" d="M 88.5,7.5 C 97.8333,9.16667 97.8333,10.8333 88.5,12.5C 88.5,10.8333 88.5,9.16667 88.5,7.5 Z"/></g>
<g><path style="opacity:1" fill="#cecee1" d="M 95.5,5.5 C 104.975,5.01084 105.475,6.01084 97,8.5C 95.3732,8.37485 93.8732,7.87485 92.5,7C 93.7375,6.76791 94.7375,6.26791 95.5,5.5 Z"/></g>
<g><path style="opacity:1" fill="#eff0ee" d="M 120.5,10.5 C 121.693,10.9704 122.36,11.9704 122.5,13.5C 122.272,15.2073 121.938,16.874 121.5,18.5C 117.098,17.2364 114.098,14.4031 112.5,10C 115.192,9.57022 117.859,9.73688 120.5,10.5 Z"/></g>
<g><path style="opacity:1" fill="#2e2481" d="M 73.5,12.5 C 74.5862,12.62 75.2528,13.2867 75.5,14.5C 74.6964,16.9573 73.6964,16.9573 72.5,14.5C 72.8627,13.8165 73.1961,13.1499 73.5,12.5 Z"/></g>
<g><path style="opacity:1" fill="#fbfbfc" d="M 120.5,23.5 C 120.5,24.1667 120.5,24.8333 120.5,25.5C 120.5,27.1667 120.5,28.8333 120.5,30.5C 119.833,30.5 119.167,30.5 118.5,30.5C 118.804,29.8501 119.137,29.1835 119.5,28.5C 112.634,26.3269 106.634,27.6602 101.5,32.5C 102.712,26.3229 104.545,20.3229 107,14.5C 109.816,15.6623 112.65,16.8289 115.5,18C 116.833,20.1906 118.5,22.024 120.5,23.5 Z"/></g>
<g><path style="opacity:1" fill="#e0e0ea" d="M 89.5,14.5 C 89.5129,21.2784 90.1796,27.9451 91.5,34.5C 90.5,34.5 89.5,34.5 88.5,34.5C 84.7859,30.117 81.4525,25.4503 78.5,20.5C 79.9842,18.9263 81.6508,17.593 83.5,16.5C 83.8417,15.6618 84.5084,15.3284 85.5,15.5C 86.9587,15.5674 88.2921,15.2341 89.5,14.5 Z"/></g>
<g><path style="opacity:1" fill="#c6c6d7" d="M 133.5,8.5 C 133.167,9.83333 132.833,11.1667 132.5,12.5C 131.011,15.478 129.511,18.478 128,21.5C 126.667,20.8333 125.333,20.1667 124,19.5C 123.199,16.633 123.366,13.9664 124.5,11.5C 124.523,13.9267 125.023,16.26 126,18.5C 127.415,16.1565 127.582,13.8232 126.5,11.5C 124.555,8.63747 124.221,5.63747 125.5,2.5C 124.167,2.5 122.833,2.5 121.5,2.5C 122.204,0.655786 123.537,0.155786 125.5,1C 126.871,4.3801 129.038,7.21343 132,9.5C 132.383,8.94404 132.883,8.61071 133.5,8.5 Z"/></g>
<g><path style="opacity:1" fill="#8988ba" d="M 124.5,11.5 C 125.167,11.5 125.833,11.5 126.5,11.5C 127.582,13.8232 127.415,16.1565 126,18.5C 125.023,16.26 124.523,13.9267 124.5,11.5 Z"/></g>
<g><path style="opacity:1" fill="#f7f7f7" d="M 78.5,20.5 C 81.4525,25.4503 84.7859,30.117 88.5,34.5C 88.5,34.8333 88.5,35.1667 88.5,35.5C 79.8117,41.2604 73.3117,39.2604 69,29.5C 69.2828,23.731 72.4495,20.731 78.5,20.5 Z"/></g>
<g><path style="opacity:1" fill="#d0d4d0" d="M 121.5,19.5 C 121.768,21.099 121.434,22.4324 120.5,23.5C 120.489,21.9826 119.823,20.8159 118.5,20C 119.448,19.5172 120.448,19.3505 121.5,19.5 Z"/></g>
<g><path style="opacity:1" fill="#c0bfd7" d="M 135.5,8.5 C 136.944,11.4022 138.444,14.4022 140,17.5C 141.101,19.3939 142.434,20.0606 144,19.5C 144.627,21.9273 145.794,23.9273 147.5,25.5C 143.821,25.2756 140.154,24.9422 136.5,24.5C 135.292,23.7659 133.959,23.4326 132.5,23.5C 132.5,24.5 132.5,25.5 132.5,26.5C 131.883,26.3893 131.383,26.056 131,25.5C 130.751,26.624 130.251,27.624 129.5,28.5C 128.682,26.8917 128.015,25.2251 127.5,23.5C 128.274,22.2888 129.107,22.2888 130,23.5C 129.333,20.4065 130.333,17.7398 133,15.5C 134.029,21.1167 134.862,21.45 135.5,16.5C 134.596,15.791 134.263,14.791 134.5,13.5C 135.301,11.9582 135.634,10.2915 135.5,8.5 Z"/></g>
<g><path style="opacity:1" fill="#c1c2d1" d="M 74.5,8.5 C 69.0035,9.51428 63.6701,11.3476 58.5,14C 52.4767,18.33 46.1433,22.33 39.5,26C 34.3178,29.6617 30.9845,34.495 29.5,40.5C 28.1667,40.5 26.8333,40.5 25.5,40.5C 25.5,37.8333 25.5,35.1667 25.5,32.5C 22.8333,32.5 20.1667,32.5 17.5,32.5C 16.5119,27.3595 16.1786,22.0262 16.5,16.5C 24.1667,16.5 31.8333,16.5 39.5,16.5C 39.4561,24.1755 40.1228,24.3422 41.5,17C 43.4727,16.5045 45.4727,16.3379 47.5,16.5C 47.3505,17.552 47.5172,18.552 48,19.5C 48.4101,18.0993 48.9101,16.766 49.5,15.5C 51.5,15.5 53.5,15.5 55.5,15.5C 57.1628,13.5615 57.8294,11.2282 57.5,8.5C 63.0244,9.12422 68.691,9.12422 74.5,8.5 Z"/></g>
<g><path style="opacity:1" fill="#150f78" d="M 136.5,24.5 C 136.167,25.1667 135.833,25.8333 135.5,26.5C 134.5,26.5 133.5,26.5 132.5,26.5C 132.5,25.5 132.5,24.5 132.5,23.5C 133.959,23.4326 135.292,23.7659 136.5,24.5 Z"/></g>
<g><path style="opacity:1" fill="#100e76" d="M 65.5,24.5 C 67.4646,24.9483 67.7979,25.9483 66.5,27.5C 65.8165,27.1373 65.1499,26.8039 64.5,26.5C 64.3284,25.5084 64.6618,24.8417 65.5,24.5 Z"/></g>
<g><path style="opacity:1" fill="#817eb7" d="M 136.5,24.5 C 140.154,24.9422 143.821,25.2756 147.5,25.5C 149.048,25.8212 149.715,26.8212 149.5,28.5C 149.167,28.5 148.833,28.5 148.5,28.5C 147.5,25.8333 146.5,25.8333 145.5,28.5C 143.134,26.4539 140.467,26.1206 137.5,27.5C 138.999,28.9038 138.666,29.5704 136.5,29.5C 135.833,29.3333 135.167,29.1667 134.5,29C 136.359,28.3992 136.692,27.5659 135.5,26.5C 135.833,25.8333 136.167,25.1667 136.5,24.5 Z"/></g>
<g><path style="opacity:1" fill="#a3ac9b" d="M 118.5,30.5 C 117.791,31.404 116.791,31.7373 115.5,31.5C 118.233,29.6127 117.733,28.6127 114,28.5C 110.199,28.5924 107.032,29.9257 104.5,32.5C 103.833,32.8333 103.167,33.1667 102.5,33.5C 101.833,33.5 101.167,33.5 100.5,33.5C 100.5,32.8333 100.833,32.5 101.5,32.5C 106.634,27.6602 112.634,26.3269 119.5,28.5C 119.137,29.1835 118.804,29.8501 118.5,30.5 Z"/></g>
<g><path style="opacity:1" fill="#f1f2f3" d="M 115.5,31.5 C 111.846,31.9422 108.179,32.2756 104.5,32.5C 107.032,29.9257 110.199,28.5924 114,28.5C 117.733,28.6127 118.233,29.6127 115.5,31.5 Z"/></g>
<g><path style="opacity:1" fill="#bab9d8" d="M 126.5,24.5 C 127.21,26.7463 127.71,29.0796 128,31.5C 129.813,30.3909 130.646,31.0576 130.5,33.5C 129.167,33.5 127.833,33.5 126.5,33.5C 126.06,28.6705 124.06,27.6705 120.5,30.5C 120.5,28.8333 120.5,27.1667 120.5,25.5C 121.222,25.9175 121.722,26.5842 122,27.5C 122.399,27.2716 122.565,26.9382 122.5,26.5C 123.117,26.6107 123.617,26.944 124,27.5C 124.377,26.0577 125.21,25.0577 126.5,24.5 Z"/></g>
<g><path style="opacity:1" fill="#dbdaea" d="M 132.5,26.5 C 133.5,26.5 134.5,26.5 135.5,26.5C 136.692,27.5659 136.359,28.3992 134.5,29C 135.167,29.1667 135.833,29.3333 136.5,29.5C 138.666,29.5704 138.999,28.9038 137.5,27.5C 140.467,26.1206 143.134,26.4539 145.5,28.5C 145.714,30.1439 145.38,31.6439 144.5,33C 142.19,33.4966 139.857,33.6633 137.5,33.5C 135.5,33.5 133.5,33.5 131.5,33.5C 131.993,31.1944 132.326,28.861 132.5,26.5 Z"/></g>
<g><path style="opacity:1" fill="#c2c8bb" d="M 44.5,29.5 C 50.1764,29.3339 55.8431,29.5006 61.5,30C 56.9217,31.8228 52.255,31.9894 47.5,30.5C 45.9446,30.722 44.6113,31.3887 43.5,32.5C 43.1667,32.3333 42.8333,32.1667 42.5,32C 43.3805,31.2917 44.0472,30.4584 44.5,29.5 Z"/></g>
<g><path style="opacity:1" fill="#352c87" d="M 64.5,30.5 C 67.4124,31.5783 67.7458,32.9117 65.5,34.5C 64.4138,34.38 63.7472,33.7133 63.5,32.5C 63.5427,31.5836 63.8761,30.9169 64.5,30.5 Z"/></g>
<g><path style="opacity:1" fill="#cdcedb" d="M 17.5,33.5 C 19.5,33.5 21.5,33.5 23.5,33.5C 23.5,35.8333 23.5,38.1667 23.5,40.5C 21.5,40.5 19.5,40.5 17.5,40.5C 16.1667,38.1667 16.1667,35.8333 17.5,33.5 Z"/></g>
<g><path style="opacity:1" fill="#a09fc5" d="M 118.5,30.5 C 119.167,30.5 119.833,30.5 120.5,30.5C 120.405,32.7857 119.738,34.7857 118.5,36.5C 112.69,35.5104 106.69,35.1771 100.5,35.5C 101.167,34.8333 101.833,34.1667 102.5,33.5C 103.167,33.1667 103.833,32.8333 104.5,32.5C 108.179,32.2756 111.846,31.9422 115.5,31.5C 116.791,31.7373 117.791,31.404 118.5,30.5 Z"/></g>
<g><path style="opacity:1" fill="#5f5ba3" d="M 123.5,6.5 C 124.038,8.11723 124.371,9.7839 124.5,11.5C 123.366,13.9664 123.199,16.633 124,19.5C 125.333,20.1667 126.667,20.8333 128,21.5C 129.511,18.478 131.011,15.478 132.5,12.5C 133.167,12.8333 133.833,13.1667 134.5,13.5C 134.263,14.791 134.596,15.791 135.5,16.5C 134.862,21.45 134.029,21.1167 133,15.5C 130.333,17.7398 129.333,20.4065 130,23.5C 129.107,22.2888 128.274,22.2888 127.5,23.5C 128.015,25.2251 128.682,26.8917 129.5,28.5C 130.251,27.624 130.751,26.624 131,25.5C 131.383,26.056 131.883,26.3893 132.5,26.5C 132.326,28.861 131.993,31.1944 131.5,33.5C 133.5,33.5 135.5,33.5 137.5,33.5C 137.842,34.3382 138.508,34.6716 139.5,34.5C 139.378,38.8383 139.045,39.1716 138.5,35.5C 135.752,35.4017 135.086,36.4017 136.5,38.5C 135.833,38.5 135.167,38.5 134.5,38.5C 134.316,35.8269 133.149,35.1602 131,36.5C 131.792,38.8462 131.625,41.1795 130.5,43.5C 129.794,44.5573 129.461,44.2239 129.5,42.5C 129.5,42.1667 129.5,41.8333 129.5,41.5C 129.5,40.8333 129.5,40.1667 129.5,39.5C 129.573,37.9731 128.906,36.9731 127.5,36.5C 127.119,35.0689 126.119,34.2355 124.5,34C 125.993,32.8438 125.826,32.0104 124,31.5C 121.797,32.8771 120.297,34.8771 119.5,37.5C 118.893,37.3764 118.56,37.0431 118.5,36.5C 119.738,34.7857 120.405,32.7857 120.5,30.5C 124.06,27.6705 126.06,28.6705 126.5,33.5C 127.833,33.5 129.167,33.5 130.5,33.5C 130.646,31.0576 129.813,30.3909 128,31.5C 127.71,29.0796 127.21,26.7463 126.5,24.5C 126.5,23.5 126.5,22.5 126.5,21.5C 125.178,21.67 124.011,21.3366 123,20.5C 122.505,22.4727 122.338,24.4727 122.5,26.5C 122.565,26.9382 122.399,27.2716 122,27.5C 121.722,26.5842 121.222,25.9175 120.5,25.5C 120.5,24.8333 120.5,24.1667 120.5,23.5C 121.434,22.4324 121.768,21.099 121.5,19.5C 121.5,19.1667 121.5,18.8333 121.5,18.5C 121.938,16.874 122.272,15.2073 122.5,13.5C 122.36,11.9704 121.693,10.9704 120.5,10.5C 120.5,10.1667 120.5,9.83333 120.5,9.5C 121.9,8.90018 122.9,7.90018 123.5,6.5 Z"/></g>
<g><path style="opacity:1" fill="#f4f4f9" d="M 126.5,24.5 C 125.21,25.0577 124.377,26.0577 124,27.5C 123.617,26.944 123.117,26.6107 122.5,26.5C 122.338,24.4727 122.505,22.4727 123,20.5C 124.011,21.3366 125.178,21.67 126.5,21.5C 126.5,22.5 126.5,23.5 126.5,24.5 Z"/></g>
<g><path style="opacity:1" fill="#2c2484" d="M 148.5,28.5 C 147.305,28.8656 146.639,29.699 146.5,31C 147.608,32.6773 147.608,34.1773 146.5,35.5C 145.833,35.5 145.167,35.5 144.5,35.5C 143.081,34.5489 141.415,34.2155 139.5,34.5C 138.508,34.6716 137.842,34.3382 137.5,33.5C 139.857,33.6633 142.19,33.4966 144.5,33C 145.38,31.6439 145.714,30.1439 145.5,28.5C 146.5,25.8333 147.5,25.8333 148.5,28.5 Z"/></g>
<g><path style="opacity:1" fill="#f7f8f8" d="M 148.5,28.5 C 148.833,28.5 149.167,28.5 149.5,28.5C 149.5,29.5 149.5,30.5 149.5,31.5C 148.903,31.7352 148.57,32.2352 148.5,33C 151.578,40.8786 153.078,49.0453 153,57.5C 152.667,57.8333 152.333,58.1667 152,58.5C 150.274,56.7721 148.941,54.7721 148,52.5C 147.329,51.7476 146.496,51.4142 145.5,51.5C 145.569,46.1463 145.902,40.813 146.5,35.5C 147.608,34.1773 147.608,32.6773 146.5,31C 146.639,29.699 147.305,28.8656 148.5,28.5 Z"/></g>
<g><path style="opacity:1" fill="#f7f7fb" d="M 74.5,40.5 C 74.5,41.5 74.5,42.5 74.5,43.5C 74.8158,46.9783 74.3158,50.3117 73,53.5C 71.1667,48 69.3333,42.5 67.5,37C 67.8333,36.5 68.1667,36 68.5,35.5C 70.5193,37.1897 72.5193,38.8564 74.5,40.5 Z"/></g>
<g><path style="opacity:1" fill="#f3f4f4" d="M 100.5,35.5 C 106.69,35.1771 112.69,35.5104 118.5,36.5C 113.11,36.8404 107.777,37.507 102.5,38.5C 101.5,38.5 100.5,38.5 99.5,38.5C 99.2627,37.209 99.596,36.209 100.5,35.5 Z"/></g>
<g><path style="opacity:1" fill="#efeff6" d="M 139.5,34.5 C 141.415,34.2155 143.081,34.5489 144.5,35.5C 143.106,37.9514 142.272,40.6181 142,43.5C 140.956,42.3774 140.29,41.0441 140,39.5C 139.667,40.8333 139.333,42.1667 139,43.5C 138.283,42.9558 137.783,42.2891 137.5,41.5C 137.737,40.209 137.404,39.209 136.5,38.5C 135.086,36.4017 135.752,35.4017 138.5,35.5C 139.045,39.1716 139.378,38.8383 139.5,34.5 Z"/></g>
<g><path style="opacity:1" fill="#efeff6" d="M 127.5,36.5 C 128.906,36.9731 129.573,37.9731 129.5,39.5C 126.763,39.4013 124.096,39.7347 121.5,40.5C 121.5,40.1667 121.5,39.8333 121.5,39.5C 122.607,37.0311 124.607,36.0311 127.5,36.5 Z"/></g>
<g><path style="opacity:1" fill="#8c8abd" d="M 127.5,36.5 C 124.607,36.0311 122.607,37.0311 121.5,39.5C 120.105,38.1854 119.105,38.5188 118.5,40.5C 117.833,40.5 117.167,40.5 116.5,40.5C 115.666,39.2521 114.333,38.5854 112.5,38.5C 109.183,39.0531 105.85,39.3865 102.5,39.5C 102.5,39.1667 102.5,38.8333 102.5,38.5C 107.777,37.507 113.11,36.8404 118.5,36.5C 118.56,37.0431 118.893,37.3764 119.5,37.5C 120.297,34.8771 121.797,32.8771 124,31.5C 125.826,32.0104 125.993,32.8438 124.5,34C 126.119,34.2355 127.119,35.0689 127.5,36.5 Z"/></g>
<g><path style="opacity:1" fill="#d4d5dc" d="M 92.5,35.5 C 94.604,35.2011 96.604,35.5344 98.5,36.5C 98.1667,37.1667 97.8333,37.8333 97.5,38.5C 92.6732,40.243 87.6732,40.9097 82.5,40.5C 85.8649,38.64 89.1982,36.9733 92.5,35.5 Z"/></g>
<g><path style="opacity:1" fill="#635fa5" d="M 99.5,33.5 C 99.8333,33.5 100.167,33.5 100.5,33.5C 101.167,33.5 101.833,33.5 102.5,33.5C 101.833,34.1667 101.167,34.8333 100.5,35.5C 99.596,36.209 99.2627,37.209 99.5,38.5C 100.5,38.5 101.5,38.5 102.5,38.5C 102.5,38.8333 102.5,39.1667 102.5,39.5C 104.395,40.6296 109.062,40.9629 116.5,40.5C 117.167,40.5 117.833,40.5 118.5,40.5C 118.833,41.1667 119.167,41.8333 119.5,42.5C 119.167,42.5 118.833,42.5 118.5,42.5C 115.833,45.5 113.167,48.5 110.5,51.5C 111.116,50.2022 111.116,49.2022 110.5,48.5C 112.144,46.5193 113.81,44.5193 115.5,42.5C 109.872,41.5046 104.206,41.1712 98.5,41.5C 97.8333,42.1667 97.1667,42.8333 96.5,43.5C 96.3893,42.8826 96.056,42.3826 95.5,42C 91.446,41.3064 87.446,41.4731 83.5,42.5C 83.1667,41.8333 82.8333,41.1667 82.5,40.5C 87.6732,40.9097 92.6732,40.243 97.5,38.5C 97.8333,37.8333 98.1667,37.1667 98.5,36.5C 96.604,35.5344 94.604,35.2011 92.5,35.5C 91.0387,36.6857 89.7054,36.6857 88.5,35.5C 88.5,35.1667 88.5,34.8333 88.5,34.5C 89.5,34.5 90.5,34.5 91.5,34.5C 94.1667,34.1667 96.8333,33.8333 99.5,33.5 Z"/></g>
<g><path style="opacity:1" fill="#e8e8ef" d="M 116.5,40.5 C 109.062,40.9629 104.395,40.6296 102.5,39.5C 105.85,39.3865 109.183,39.0531 112.5,38.5C 114.333,38.5854 115.666,39.2521 116.5,40.5 Z"/></g>
<g><path style="opacity:1" fill="#1a1479" d="M 134.5,38.5 C 135.167,38.5 135.833,38.5 136.5,38.5C 137.404,39.209 137.737,40.209 137.5,41.5C 137.167,41.5 136.833,41.5 136.5,41.5C 134.952,41.1788 134.285,40.1788 134.5,38.5 Z"/></g>
<g><path style="opacity:1" fill="#0d0a74" d="M 121.5,39.5 C 121.5,39.8333 121.5,40.1667 121.5,40.5C 121.167,41.5 120.5,42.1667 119.5,42.5C 119.167,41.8333 118.833,41.1667 118.5,40.5C 119.105,38.5188 120.105,38.1854 121.5,39.5 Z"/></g>
<g><path style="opacity:1" fill="#d4d4e2" d="M 17.5,41.5 C 19.5,41.5 21.5,41.5 23.5,41.5C 23.5,43.8333 23.5,46.1667 23.5,48.5C 21.1667,48.5 18.8333,48.5 16.5,48.5C 16.1984,45.9407 16.5318,43.6074 17.5,41.5 Z"/></g>
<g><path style="opacity:1" fill="#292081" d="M 74.5,40.5 C 76.8568,40.3367 79.1902,40.5034 81.5,41C 80.2625,41.2321 79.2625,41.7321 78.5,42.5C 77.8333,42.5 77.5,42.8333 77.5,43.5C 76.5,43.5 75.5,43.5 74.5,43.5C 74.5,42.5 74.5,41.5 74.5,40.5 Z"/></g>
<g><path style="opacity:1" fill="#9b99c6" d="M 83.5,16.5 C 81.6508,17.593 79.9842,18.9263 78.5,20.5C 72.4495,20.731 69.2828,23.731 69,29.5C 73.3117,39.2604 79.8117,41.2604 88.5,35.5C 89.7054,36.6857 91.0387,36.6857 92.5,35.5C 89.1982,36.9733 85.8649,38.64 82.5,40.5C 82.8333,41.1667 83.1667,41.8333 83.5,42.5C 81.8333,42.5 80.1667,42.5 78.5,42.5C 79.2625,41.7321 80.2625,41.2321 81.5,41C 79.1902,40.5034 76.8568,40.3367 74.5,40.5C 72.5193,38.8564 70.5193,37.1897 68.5,35.5C 68.1667,36 67.8333,36.5 67.5,37C 69.3333,42.5 71.1667,48 73,53.5C 74.3158,50.3117 74.8158,46.9783 74.5,43.5C 75.5,43.5 76.5,43.5 77.5,43.5C 78.7658,45.2962 78.4325,45.6295 76.5,44.5C 75.833,48.6475 75.1663,52.6475 74.5,56.5C 73.794,55.4427 73.4607,55.7761 73.5,57.5C 72.8333,57.5 72.5,57.1667 72.5,56.5C 70.1705,49.1776 67.8371,41.8442 65.5,34.5C 67.7458,32.9117 67.4124,31.5783 64.5,30.5C 64.5,29.1667 64.5,27.8333 64.5,26.5C 65.1499,26.8039 65.8165,27.1373 66.5,27.5C 67.7979,25.9483 67.4646,24.9483 65.5,24.5C 68.7201,23.7814 70.8868,21.7814 72,18.5C 72.3076,19.3081 72.8076,19.9747 73.5,20.5C 76.64,18.5936 79.9734,17.2603 83.5,16.5 Z"/></g>
<g><path style="opacity:1" fill="#f9f8fb" d="M 129.5,41.5 C 129.5,41.8333 129.5,42.1667 129.5,42.5C 128.9,43.9002 127.9,44.9002 126.5,45.5C 125.71,44.2058 124.71,43.0391 123.5,42C 125.473,41.5045 127.473,41.3379 129.5,41.5 Z"/></g>
<g><path style="opacity:1" fill="#f3f4f6" d="M 98.5,41.5 C 104.206,41.1712 109.872,41.5046 115.5,42.5C 113.81,44.5193 112.144,46.5193 110.5,48.5C 108.771,49.1175 107.271,50.1175 106,51.5C 103.584,48.9116 101.084,46.5782 98.5,44.5C 98.5,43.5 98.5,42.5 98.5,41.5 Z"/></g>
<g><path style="opacity:1" fill="#e8e7f2" d="M 134.5,38.5 C 134.285,40.1788 134.952,41.1788 136.5,41.5C 137.34,43.8525 138.674,45.8525 140.5,47.5C 140.5,48.1667 140.167,48.5 139.5,48.5C 137.408,48.4386 135.908,47.4386 135,45.5C 134.508,46.549 134.674,47.549 135.5,48.5C 134.675,49.3857 133.675,49.719 132.5,49.5C 132.405,47.2143 131.738,45.2143 130.5,43.5C 131.625,41.1795 131.792,38.8462 131,36.5C 133.149,35.1602 134.316,35.8269 134.5,38.5 Z"/></g>
<g><path style="opacity:1" fill="#efeff5" d="M 118.5,42.5 C 117.626,45.7893 116.959,49.1226 116.5,52.5C 114.097,52.448 111.764,52.7814 109.5,53.5C 108.5,53.5 107.5,53.5 106.5,53.5C 107.617,50.7209 108.783,50.3876 110,52.5C 110.399,52.2716 110.565,51.9382 110.5,51.5C 113.167,48.5 115.833,45.5 118.5,42.5 Z"/></g>
<g><path style="opacity:1" fill="#8582b9" d="M 129.5,39.5 C 129.5,40.1667 129.5,40.8333 129.5,41.5C 127.473,41.3379 125.473,41.5045 123.5,42C 124.71,43.0391 125.71,44.2058 126.5,45.5C 127.9,44.9002 128.9,43.9002 129.5,42.5C 129.461,44.2239 129.794,44.5573 130.5,43.5C 131.738,45.2143 132.405,47.2143 132.5,49.5C 133.675,49.719 134.675,49.3857 135.5,48.5C 134.674,47.549 134.508,46.549 135,45.5C 135.908,47.4386 137.408,48.4386 139.5,48.5C 138.737,49.2679 137.737,49.7679 136.5,50C 137.056,50.3826 137.389,50.8826 137.5,51.5C 136.662,51.8417 136.328,52.5084 136.5,53.5C 133.908,55.0361 132.908,57.3695 133.5,60.5C 135.167,60.5 136.833,60.5 138.5,60.5C 138.5,59.5 138.5,58.5 138.5,57.5C 139.29,56.3915 139.79,55.0581 140,53.5C 141.803,57.5116 142.803,57.1782 143,52.5C 144.269,53.9047 144.769,55.5714 144.5,57.5C 142.824,58.1834 142.157,59.5168 142.5,61.5C 141.015,60.0651 139.682,60.2317 138.5,62C 139.167,62.3333 139.833,62.6667 140.5,63C 138.513,64.3189 137.346,66.1523 137,68.5C 136.667,67.8333 136.333,67.1667 136,66.5C 135.023,67.7736 134.189,67.7736 133.5,66.5C 133.331,61.9593 133.998,61.626 135.5,65.5C 137.111,64.6798 137.778,63.3464 137.5,61.5C 133.988,60.9455 130.988,61.6122 128.5,63.5C 127.209,63.2627 126.209,63.596 125.5,64.5C 124.262,63.5876 122.928,63.4209 121.5,64C 119.76,65.517 118.094,67.017 116.5,68.5C 115.167,69.1667 114.167,70.1667 113.5,71.5C 111.766,70.438 110.099,70.438 108.5,71.5C 109.904,69.7454 110.904,67.7454 111.5,65.5C 112.167,65.5 112.833,65.5 113.5,65.5C 112.697,66.4232 112.53,67.4232 113,68.5C 115.167,67 117.333,65.5 119.5,64C 118.207,63.51 116.873,63.3433 115.5,63.5C 115.5,63.1667 115.5,62.8333 115.5,62.5C 118.342,60.4396 121.342,58.6063 124.5,57C 122.5,57 120.5,57 118.5,57C 120.025,55.9914 121.692,55.4914 123.5,55.5C 123.5,54.5 123.5,53.5 123.5,52.5C 120.435,52.2407 117.935,53.2407 116,55.5C 115.692,54.6919 115.192,54.0253 114.5,53.5C 111.79,54.0269 110.123,55.0269 109.5,56.5C 109.5,55.5 109.5,54.5 109.5,53.5C 111.764,52.7814 114.097,52.448 116.5,52.5C 116.959,49.1226 117.626,45.7893 118.5,42.5C 118.833,42.5 119.167,42.5 119.5,42.5C 120.5,42.1667 121.167,41.5 121.5,40.5C 124.096,39.7347 126.763,39.4013 129.5,39.5 Z M 132.5,66.5 C 130.957,68.5567 129.957,68.5567 129.5,66.5C 130.798,65.8843 131.798,65.8843 132.5,66.5 Z"/></g>
<g><path style="opacity:1" fill="#f9f9fc" d="M 119.5,43.5 C 121.267,45.7916 122.267,48.4582 122.5,51.5C 120.801,51.6602 119.134,51.4935 117.5,51C 118.867,48.6985 119.534,46.1985 119.5,43.5 Z"/></g>
<g><path style="opacity:1" fill="#f6f6fa" d="M 126.5,45.5 C 127.942,46.8195 128.608,48.4862 128.5,50.5C 126.833,50.5 125.167,50.5 123.5,50.5C 122.859,47.779 122.359,45.1123 122,42.5C 123.129,44.1412 124.629,45.1412 126.5,45.5 Z"/></g>
<g><path style="opacity:1" fill="#211d80" d="M 137.5,51.5 C 137.389,50.8826 137.056,50.3826 136.5,50C 137.737,49.7679 138.737,49.2679 139.5,48.5C 140.167,48.5 140.5,48.1667 140.5,47.5C 141.189,46.2264 142.023,46.2264 143,47.5C 143.667,48.5 143.667,49.5 143,50.5C 141.253,50.3874 139.42,50.7207 137.5,51.5 Z"/></g>
<g><path style="opacity:1" fill="#bec5b6" d="M 50.5,52.5 C 49.3557,50.0728 47.3557,49.0728 44.5,49.5C 41.3946,49.9394 38.3946,50.4394 35.5,51C 38.681,49.3672 42.0143,48.0339 45.5,47C 43.1955,46.1048 40.8622,45.2715 38.5,44.5C 44.7632,43.6389 48.7632,46.3055 50.5,52.5 Z"/></g>
<g><path style="opacity:1" fill="#b9b8d7" d="M 7.5,8.5 C 7.83333,8.5 8.16667,8.5 8.5,8.5C 8.5,10.8333 8.5,13.1667 8.5,15.5C 10.8333,15.5 13.1667,15.5 15.5,15.5C 15.5,15.8333 15.5,16.1667 15.5,16.5C 13.1667,16.5 10.8333,16.5 8.5,16.5C 8.5,21.8333 8.5,27.1667 8.5,32.5C 10.8333,32.5 13.1667,32.5 15.5,32.5C 15.5,32.8333 15.5,33.1667 15.5,33.5C 13.1667,33.5 10.8333,33.5 8.5,33.5C 8.5,35.8333 8.5,38.1667 8.5,40.5C 10.8333,40.5 13.1667,40.5 15.5,40.5C 15.5,40.8333 15.5,41.1667 15.5,41.5C 13.1667,41.5 10.8333,41.5 8.5,41.5C 8.5,43.8333 8.5,46.1667 8.5,48.5C 10.8333,48.5 13.1667,48.5 15.5,48.5C 15.5,48.8333 15.5,49.1667 15.5,49.5C 13.1667,49.5 10.8333,49.5 8.5,49.5C 8.5,51.8333 8.5,54.1667 8.5,56.5C 10.8333,56.5 13.1667,56.5 15.5,56.5C 15.5,56.8333 15.5,57.1667 15.5,57.5C 13.1667,57.5 10.8333,57.5 8.5,57.5C 8.5,59.8333 8.5,62.1667 8.5,64.5C 10.8333,64.5 13.1667,64.5 15.5,64.5C 15.5,65.1667 15.5,65.8333 15.5,66.5C 13.283,65.6314 10.9496,65.298 8.5,65.5C 8.5,68.1667 8.5,70.8333 8.5,73.5C 10.8333,73.5 13.1667,73.5 15.5,73.5C 15.5,73.8333 15.5,74.1667 15.5,74.5C 13.1667,74.5 10.8333,74.5 8.5,74.5C 8.5,76.5 8.5,78.5 8.5,80.5C 10.8333,80.5 13.1667,80.5 15.5,80.5C 15.5,81.1667 15.5,81.8333 15.5,82.5C 13.1667,82.5 10.8333,82.5 8.5,82.5C 8.5,84.5 8.5,86.5 8.5,88.5C 10.8333,88.5 13.1667,88.5 15.5,88.5C 15.5,89.1667 15.5,89.8333 15.5,90.5C 13.1667,90.5 10.8333,90.5 8.5,90.5C 8.5,92.8333 8.5,95.1667 8.5,97.5C 8.16667,97.5 7.83333,97.5 7.5,97.5C 7.5,95.1667 7.5,92.8333 7.5,90.5C 5.16667,90.5 2.83333,90.5 0.5,90.5C 0.5,89.8333 0.5,89.1667 0.5,88.5C 2.83333,88.5 5.16667,88.5 7.5,88.5C 7.5,86.5 7.5,84.5 7.5,82.5C 5.16667,82.5 2.83333,82.5 0.5,82.5C 0.5,81.8333 0.5,81.1667 0.5,80.5C 2.83333,80.5 5.16667,80.5 7.5,80.5C 7.5,78.5 7.5,76.5 7.5,74.5C 5.16667,74.5 2.83333,74.5 0.5,74.5C 0.5,74.1667 0.5,73.8333 0.5,73.5C 2.83333,73.5 5.16667,73.5 7.5,73.5C 9.23821,67.0729 6.90488,64.4062 0.5,65.5C 0.5,65.1667 0.5,64.8333 0.5,64.5C 2.83333,64.5 5.16667,64.5 7.5,64.5C 7.5,62.1667 7.5,59.8333 7.5,57.5C 5.16667,57.5 2.83333,57.5 0.5,57.5C 0.5,57.1667 0.5,56.8333 0.5,56.5C 2.83333,56.5 5.16667,56.5 7.5,56.5C 7.5,54.1667 7.5,51.8333 7.5,49.5C 5.16667,49.5 2.83333,49.5 0.5,49.5C 0.5,49.1667 0.5,48.8333 0.5,48.5C 2.83333,48.5 5.16667,48.5 7.5,48.5C 7.5,46.1667 7.5,43.8333 7.5,41.5C 5.16667,41.5 2.83333,41.5 0.5,41.5C 0.5,41.1667 0.5,40.8333 0.5,40.5C 2.83333,40.5 5.16667,40.5 7.5,40.5C 7.5,38.1667 7.5,35.8333 7.5,33.5C 5.16667,33.5 2.83333,33.5 0.5,33.5C 0.5,33.1667 0.5,32.8333 0.5,32.5C 2.83333,32.5 5.16667,32.5 7.5,32.5C 7.5,27.1667 7.5,21.8333 7.5,16.5C 5.16667,16.5 2.83333,16.5 0.5,16.5C 0.5,16.1667 0.5,15.8333 0.5,15.5C 2.83333,15.5 5.16667,15.5 7.5,15.5C 7.5,13.1667 7.5,10.8333 7.5,8.5 Z"/></g>
<g><path style="opacity:1" fill="#eeeff0" d="M 100.5,60.5 C 99.7611,60.631 99.0944,60.4643 98.5,60C 99.6956,59.3457 99.6956,58.8457 98.5,58.5C 96.1831,60.316 94.0165,62.316 92,64.5C 91.51,63.2068 91.3433,61.8734 91.5,60.5C 93.0088,56.8745 94.6755,53.2079 96.5,49.5C 98.9962,50.5804 101.33,51.9138 103.5,53.5C 102.687,54.8139 101.687,55.9805 100.5,57C 101.167,57.3333 101.833,57.6667 102.5,58C 101.619,58.7083 100.953,59.5416 100.5,60.5 Z"/></g>
<g><path style="opacity:1" fill="#9a99c3" d="M 98.5,41.5 C 98.5,42.5 98.5,43.5 98.5,44.5C 101.084,46.5782 103.584,48.9116 106,51.5C 107.271,50.1175 108.771,49.1175 110.5,48.5C 111.116,49.2022 111.116,50.2022 110.5,51.5C 110.565,51.9382 110.399,52.2716 110,52.5C 108.783,50.3876 107.617,50.7209 106.5,53.5C 106.5,54.5 106.5,55.5 106.5,56.5C 107.5,56.5 108.5,56.5 109.5,56.5C 106.221,57.0985 103.221,58.4319 100.5,60.5C 100.953,59.5416 101.619,58.7083 102.5,58C 101.833,57.6667 101.167,57.3333 100.5,57C 101.687,55.9805 102.687,54.8139 103.5,53.5C 101.33,51.9138 98.9962,50.5804 96.5,49.5C 94.6755,53.2079 93.0088,56.8745 91.5,60.5C 91.6085,56.6087 92.6085,52.942 94.5,49.5C 93.3947,48.1076 92.0614,46.941 90.5,46C 91.6716,45.6466 92.8382,45.8132 94,46.5C 95.3102,45.8699 96.1435,44.8699 96.5,43.5C 97.1667,42.8333 97.8333,42.1667 98.5,41.5 Z"/></g>
<g><path style="opacity:1" fill="#f1f1f2" d="M 98.5,44.5 C 99.2279,46.7346 100.561,48.5679 102.5,50C 100.033,50.1002 98.0332,49.1002 96.5,47C 96.6387,45.699 97.3054,44.8656 98.5,44.5 Z"/></g>
<g><path style="opacity:1" fill="#dddceb" d="M 125.5,51.5 C 126.675,51.281 127.675,51.6143 128.5,52.5C 127.811,54.444 127.311,56.444 127,58.5C 126.474,56.45 125.641,54.6166 124.5,53C 125.056,52.6174 125.389,52.1174 125.5,51.5 Z"/></g>
<g><path style="opacity:1" fill="#a6a4cd" d="M 144.5,35.5 C 145.167,35.5 145.833,35.5 146.5,35.5C 145.902,40.813 145.569,46.1463 145.5,51.5C 145.5,53.8333 145.5,56.1667 145.5,58.5C 144.833,58.5 144.5,58.1667 144.5,57.5C 144.769,55.5714 144.269,53.9047 143,52.5C 142.803,57.1782 141.803,57.5116 140,53.5C 139.79,55.0581 139.29,56.3915 138.5,57.5C 138.267,55.9382 137.6,54.6049 136.5,53.5C 136.328,52.5084 136.662,51.8417 137.5,51.5C 139.42,50.7207 141.253,50.3874 143,50.5C 143.667,49.5 143.667,48.5 143,47.5C 142.023,46.2264 141.189,46.2264 140.5,47.5C 138.674,45.8525 137.34,43.8525 136.5,41.5C 136.833,41.5 137.167,41.5 137.5,41.5C 137.783,42.2891 138.283,42.9558 139,43.5C 139.333,42.1667 139.667,40.8333 140,39.5C 140.29,41.0441 140.956,42.3774 142,43.5C 142.272,40.6181 143.106,37.9514 144.5,35.5 Z"/></g>
<g><path style="opacity:1" fill="#d3d3e1" d="M 16.5,49.5 C 18.8333,49.5 21.1667,49.5 23.5,49.5C 23.5,51.8333 23.5,54.1667 23.5,56.5C 21.1667,56.5 18.8333,56.5 16.5,56.5C 16.5,54.1667 16.5,51.8333 16.5,49.5 Z"/></g>
<g><path style="opacity:1" fill="#d6dad0" d="M 149.5,31.5 C 152.073,34.3988 153.739,37.7321 154.5,41.5C 154.5,47.8333 154.5,54.1667 154.5,60.5C 150.827,63.0033 146.827,65.0033 142.5,66.5C 142.629,64.7839 142.962,63.1172 143.5,61.5C 144.5,61.5 145.5,61.5 146.5,61.5C 146.737,60.209 146.404,59.209 145.5,58.5C 145.5,56.1667 145.5,53.8333 145.5,51.5C 146.496,51.4142 147.329,51.7476 148,52.5C 148.941,54.7721 150.274,56.7721 152,58.5C 152.333,58.1667 152.667,57.8333 153,57.5C 153.078,49.0453 151.578,40.8786 148.5,33C 148.57,32.2352 148.903,31.7352 149.5,31.5 Z"/></g>
<g><path style="opacity:1" fill="#f1f1f7" d="M 136.5,53.5 C 137.6,54.6049 138.267,55.9382 138.5,57.5C 138.5,58.5 138.5,59.5 138.5,60.5C 136.833,60.5 135.167,60.5 133.5,60.5C 132.908,57.3695 133.908,55.0361 136.5,53.5 Z"/></g>
<g><path style="opacity:1" fill="#120d76" d="M 106.5,53.5 C 107.5,53.5 108.5,53.5 109.5,53.5C 109.5,54.5 109.5,55.5 109.5,56.5C 108.5,56.5 107.5,56.5 106.5,56.5C 106.5,55.5 106.5,54.5 106.5,53.5 Z"/></g>
<g><path style="opacity:1" fill="#c5c8ca" d="M 28.5,41.5 C 27.8101,45.9252 28.8101,49.7585 31.5,53C 37.6685,54.8843 44.0019,55.7177 50.5,55.5C 50.5,54.5 50.5,53.5 50.5,52.5C 51.8951,55.5904 53.8951,58.2571 56.5,60.5C 55.5655,61.5676 55.2322,62.901 55.5,64.5C 53.1667,64.5 50.8333,64.5 48.5,64.5C 48.6621,62.4727 48.4955,60.4727 48,58.5C 47.0565,59.263 46.5565,60.263 46.5,61.5C 47.3619,65.4526 47.6952,69.4526 47.5,73.5C 45.5,73.5 43.5,73.5 41.5,73.5C 41.8266,68.7863 41.4933,64.1196 40.5,59.5C 39.5481,61.0453 39.2148,62.712 39.5,64.5C 37.5,64.5 35.5,64.5 33.5,64.5C 32.8333,60.5 32.1667,60.5 31.5,64.5C 29.5,64.5 27.5,64.5 25.5,64.5C 25.5,62.1667 25.5,59.8333 25.5,57.5C 27.1667,57.5 28.8333,57.5 30.5,57.5C 30.7692,55.5714 30.2692,53.9047 29,52.5C 28.6667,53.1667 28.3333,53.8333 28,54.5C 27.1864,49.9796 27.353,45.6463 28.5,41.5 Z"/></g>
<g><path style="opacity:1" fill="#dcdbeb" d="M 115.5,62.5 C 115.167,62.5 114.833,62.5 114.5,62.5C 114.574,60.5891 115.574,59.4224 117.5,59C 114.631,56.775 113.131,57.6083 113,61.5C 112.692,60.6919 112.192,60.0253 111.5,59.5C 108.231,60.4685 105.231,61.8019 102.5,63.5C 100.488,64.0138 98.4884,64.1805 96.5,64C 98.0931,63.0513 99.4264,61.8846 100.5,60.5C 103.221,58.4319 106.221,57.0985 109.5,56.5C 110.123,55.0269 111.79,54.0269 114.5,53.5C 115.192,54.0253 115.692,54.6919 116,55.5C 117.935,53.2407 120.435,52.2407 123.5,52.5C 123.5,53.5 123.5,54.5 123.5,55.5C 121.692,55.4914 120.025,55.9914 118.5,57C 120.5,57 122.5,57 124.5,57C 121.342,58.6063 118.342,60.4396 115.5,62.5 Z"/></g>
<g><path style="opacity:1" fill="#f7f6fa" d="M 131.5,56.5 C 132.434,57.5676 132.768,58.901 132.5,60.5C 131.022,60.762 129.689,60.4287 128.5,59.5C 129.77,58.7124 130.77,57.7124 131.5,56.5 Z"/></g>
<g><path style="opacity:1" fill="#231d7c" d="M 74.5,56.5 C 75.038,58.1172 75.3713,59.7839 75.5,61.5C 74.5,61.5 73.5,61.5 72.5,61.5C 72.4326,60.0413 72.7659,58.7079 73.5,57.5C 73.4607,55.7761 73.794,55.4427 74.5,56.5 Z"/></g>
<g><path style="opacity:1" fill="#807eb7" d="M 114.5,62.5 C 113.391,62.5569 112.391,62.8902 111.5,63.5C 111.53,62.5028 111.03,61.8361 110,61.5C 107.681,62.8713 105.181,63.5379 102.5,63.5C 105.231,61.8019 108.231,60.4685 111.5,59.5C 112.192,60.0253 112.692,60.6919 113,61.5C 113.131,57.6083 114.631,56.775 117.5,59C 115.574,59.4224 114.574,60.5891 114.5,62.5 Z"/></g>
<g><path style="opacity:1" fill="#2f2886" d="M 144.5,57.5 C 144.5,58.1667 144.833,58.5 145.5,58.5C 146.404,59.209 146.737,60.209 146.5,61.5C 145.5,61.5 144.5,61.5 143.5,61.5C 143.167,61.5 142.833,61.5 142.5,61.5C 142.157,59.5168 142.824,58.1834 144.5,57.5 Z"/></g>
<g><path style="opacity:1" fill="#9fa994" d="M 71.5,57.5 C 68.7928,59.8432 66.1261,62.1765 63.5,64.5C 61.5,63.1667 59.5,61.8333 57.5,60.5C 59.7375,61.5366 62.0709,61.7033 64.5,61C 66.5766,59.295 68.91,58.1283 71.5,57.5 Z"/></g>
<g><path style="opacity:1" fill="#d2d2e0" d="M 16.5,57.5 C 18.8333,57.5 21.1667,57.5 23.5,57.5C 23.5,59.8333 23.5,62.1667 23.5,64.5C 21.1667,64.5 18.8333,64.5 16.5,64.5C 16.5,62.1667 16.5,59.8333 16.5,57.5 Z"/></g>
<g><path style="opacity:1" fill="#1b157b" d="M 114.5,62.5 C 114.833,62.5 115.167,62.5 115.5,62.5C 115.5,62.8333 115.5,63.1667 115.5,63.5C 114.833,64.1667 114.167,64.8333 113.5,65.5C 112.833,65.5 112.167,65.5 111.5,65.5C 111.5,64.8333 111.5,64.1667 111.5,63.5C 112.391,62.8902 113.391,62.5569 114.5,62.5 Z"/></g>
<g><path style="opacity:1" fill="#f2f2f2" d="M 111.5,63.5 C 111.5,64.1667 111.5,64.8333 111.5,65.5C 110.904,67.7454 109.904,69.7454 108.5,71.5C 108.167,71.5 107.833,71.5 107.5,71.5C 106.833,70.1667 106.167,70.1667 105.5,71.5C 105.167,71.5 104.833,71.5 104.5,71.5C 101.454,72.062 98.454,72.7287 95.5,73.5C 95.1667,73.5 94.8333,73.5 94.5,73.5C 93.205,72.5116 91.8717,71.5116 90.5,70.5C 90.5,69.8333 90.5,69.1667 90.5,68.5C 94.783,67.3539 98.783,65.6872 102.5,63.5C 105.181,63.5379 107.681,62.8713 110,61.5C 111.03,61.8361 111.53,62.5028 111.5,63.5 Z"/></g>
<g><path style="opacity:1" fill="#d9dbdc" d="M 133.5,66.5 C 133.167,66.5 132.833,66.5 132.5,66.5C 131.798,65.8843 130.798,65.8843 129.5,66.5C 129.443,65.391 129.11,64.391 128.5,63.5C 130.988,61.6122 133.988,60.9455 137.5,61.5C 137.778,63.3464 137.111,64.6798 135.5,65.5C 133.998,61.626 133.331,61.9593 133.5,66.5 Z"/></g>
<g><path style="opacity:1" fill="#eff0f1" d="M 96.5,43.5 C 96.1435,44.8699 95.3102,45.8699 94,46.5C 92.8382,45.8132 91.6716,45.6466 90.5,46C 92.0614,46.941 93.3947,48.1076 94.5,49.5C 92.6085,52.942 91.6085,56.6087 91.5,60.5C 90.4415,61.6002 89.6082,62.9336 89,64.5C 86,58.8333 83,53.1667 80,47.5C 81.981,54.2659 84.481,60.9326 87.5,67.5C 85.9557,67.2969 84.6223,66.6302 83.5,65.5C 83.1667,66.1667 82.8333,66.8333 82.5,67.5C 78.5081,66.7604 74.5081,66.0937 70.5,65.5C 69.2921,64.7659 67.9587,64.4326 66.5,64.5C 66.5,65.5 66.5,66.5 66.5,67.5C 67.5,67.5 68.5,67.5 69.5,67.5C 76.961,69.4314 84.2943,71.7648 91.5,74.5C 92.4033,76.6204 93.7367,76.9538 95.5,75.5C 96.1667,75.5 96.8333,75.5 97.5,75.5C 97.5,77.1667 97.5,78.8333 97.5,80.5C 95.5,80.5 93.5,80.5 91.5,80.5C 87.767,82.3933 83.767,83.2266 79.5,83C 80.5,82 81.5,81 82.5,80C 80.0566,80.0861 78.3899,81.4194 77.5,84C 74.438,84.7415 71.438,84.5748 68.5,83.5C 67.5713,84.6888 67.238,86.0222 67.5,87.5C 69.6361,87.4621 70.9694,86.7954 71.5,85.5C 71.4142,86.4959 71.7476,87.3292 72.5,88C 70.1902,88.4966 67.8568,88.6633 65.5,88.5C 64.0216,80.9543 63.355,73.2877 63.5,65.5C 63.5,65.1667 63.5,64.8333 63.5,64.5C 66.1261,62.1765 68.7928,59.8432 71.5,57.5C 71.5,56.8333 71.8333,56.5 72.5,56.5C 72.5,57.1667 72.8333,57.5 73.5,57.5C 72.7659,58.7079 72.4326,60.0413 72.5,61.5C 73.5,61.5 74.5,61.5 75.5,61.5C 75.3713,59.7839 75.038,58.1172 74.5,56.5C 75.1663,52.6475 75.833,48.6475 76.5,44.5C 78.4325,45.6295 78.7658,45.2962 77.5,43.5C 77.5,42.8333 77.8333,42.5 78.5,42.5C 80.1667,42.5 81.8333,42.5 83.5,42.5C 87.446,41.4731 91.446,41.3064 95.5,42C 96.056,42.3826 96.3893,42.8826 96.5,43.5 Z"/></g>
<g><path style="opacity:1" fill="#211b7e" d="M 70.5,65.5 C 70.1667,66.1667 69.8333,66.8333 69.5,67.5C 68.5,67.5 67.5,67.5 66.5,67.5C 66.5,66.5 66.5,65.5 66.5,64.5C 67.9587,64.4326 69.2921,64.7659 70.5,65.5 Z"/></g>
<g><path style="opacity:1" fill="#342d85" d="M 128.5,63.5 C 129.11,64.391 129.443,65.391 129.5,66.5C 128.609,67.1098 127.609,67.4431 126.5,67.5C 125.89,66.609 125.557,65.609 125.5,64.5C 126.209,63.596 127.209,63.2627 128.5,63.5 Z"/></g>
<g><path style="opacity:1" fill="#acabcf" d="M 17.5,33.5 C 17.5,33.1667 17.5,32.8333 17.5,32.5C 20.1667,32.5 22.8333,32.5 25.5,32.5C 25.5,35.1667 25.5,37.8333 25.5,40.5C 26.8333,40.5 28.1667,40.5 29.5,40.5C 29.5,41.1667 29.1667,41.5 28.5,41.5C 27.353,45.6463 27.1864,49.9796 28,54.5C 28.3333,53.8333 28.6667,53.1667 29,52.5C 30.2692,53.9047 30.7692,55.5714 30.5,57.5C 28.8333,57.5 27.1667,57.5 25.5,57.5C 25.5,59.8333 25.5,62.1667 25.5,64.5C 27.5,64.5 29.5,64.5 31.5,64.5C 32.1667,60.5 32.8333,60.5 33.5,64.5C 35.5,64.5 37.5,64.5 39.5,64.5C 39.2148,62.712 39.5481,61.0453 40.5,59.5C 41.4933,64.1196 41.8266,68.7863 41.5,73.5C 40.8333,73.5 40.1667,73.5 39.5,73.5C 39.5,70.8333 39.5,68.1667 39.5,65.5C 37.5,65.5 35.5,65.5 33.5,65.5C 33.5,68.1667 33.5,70.8333 33.5,73.5C 33.5,73.8333 33.5,74.1667 33.5,74.5C 32.8333,82.5 32.1667,82.5 31.5,74.5C 23.5,74.1667 23.5,73.8333 31.5,73.5C 31.5,70.8333 31.5,68.1667 31.5,65.5C 29.2075,65.2436 27.0408,65.5769 25,66.5C 24.6667,68.8333 24.3333,71.1667 24,73.5C 23.5026,70.854 23.3359,68.1873 23.5,65.5C 21.1667,65.5 18.8333,65.5 16.5,65.5C 16.5,65.1667 16.5,64.8333 16.5,64.5C 18.8333,64.5 21.1667,64.5 23.5,64.5C 23.5,62.1667 23.5,59.8333 23.5,57.5C 21.1667,57.5 18.8333,57.5 16.5,57.5C 16.5,57.1667 16.5,56.8333 16.5,56.5C 18.8333,56.5 21.1667,56.5 23.5,56.5C 23.5,54.1667 23.5,51.8333 23.5,49.5C 21.1667,49.5 18.8333,49.5 16.5,49.5C 16.5,49.1667 16.5,48.8333 16.5,48.5C 18.8333,48.5 21.1667,48.5 23.5,48.5C 23.5,46.1667 23.5,43.8333 23.5,41.5C 21.5,41.5 19.5,41.5 17.5,41.5C 17.5,41.1667 17.5,40.8333 17.5,40.5C 19.5,40.5 21.5,40.5 23.5,40.5C 23.5,38.1667 23.5,35.8333 23.5,33.5C 21.5,33.5 19.5,33.5 17.5,33.5 Z"/></g>
<g><path style="opacity:1" fill="#8f8ebf" d="M 91.5,60.5 C 91.3433,61.8734 91.51,63.2068 92,64.5C 94.0165,62.316 96.1831,60.316 98.5,58.5C 99.6956,58.8457 99.6956,59.3457 98.5,60C 99.0944,60.4643 99.7611,60.631 100.5,60.5C 99.4264,61.8846 98.0931,63.0513 96.5,64C 98.4884,64.1805 100.488,64.0138 102.5,63.5C 98.783,65.6872 94.783,67.3539 90.5,68.5C 90.6495,67.448 90.4828,66.448 90,65.5C 89.5831,66.756 88.7498,67.4226 87.5,67.5C 84.481,60.9326 81.981,54.2659 80,47.5C 83,53.1667 86,58.8333 89,64.5C 89.6082,62.9336 90.4415,61.6002 91.5,60.5 Z"/></g>
<g><path style="opacity:1" fill="#dcdde0" d="M 115.5,63.5 C 116.873,63.3433 118.207,63.51 119.5,64C 117.333,65.5 115.167,67 113,68.5C 112.53,67.4232 112.697,66.4232 113.5,65.5C 114.167,64.8333 114.833,64.1667 115.5,63.5 Z"/></g>
<g><path style="opacity:0.82" fill="#c5cbbd" d="M 125.5,64.5 C 125.557,65.609 125.89,66.609 126.5,67.5C 126.5,68.1667 126.167,68.5 125.5,68.5C 122.656,67.4489 119.656,67.4489 116.5,68.5C 118.094,67.017 119.76,65.517 121.5,64C 122.928,63.4209 124.262,63.5876 125.5,64.5 Z"/></g>
<g><path style="opacity:1" fill="#2a2283" d="M 90.5,68.5 C 90.5,69.1667 90.5,69.8333 90.5,70.5C 87.4331,70.8795 86.4331,69.8795 87.5,67.5C 88.7498,67.4226 89.5831,66.756 90,65.5C 90.4828,66.448 90.6495,67.448 90.5,68.5 Z"/></g>
<g><path style="opacity:1" fill="#a7a5cd" d="M 142.5,61.5 C 142.833,61.5 143.167,61.5 143.5,61.5C 142.962,63.1172 142.629,64.7839 142.5,66.5C 141.512,67.795 140.512,69.1283 139.5,70.5C 137.896,71.287 137.229,72.6203 137.5,74.5C 135.444,73.839 133.444,74.1723 131.5,75.5C 129.265,75.7947 127.265,75.4614 125.5,74.5C 126.5,74.5 127.5,74.5 128.5,74.5C 128.5,73.5 128.5,72.5 128.5,71.5C 125.625,72.6229 122.625,73.4562 119.5,74C 121.058,74.21 122.391,74.71 123.5,75.5C 118.5,75.5 113.5,75.5 108.5,75.5C 106.031,74.6829 103.365,74.1829 100.5,74C 102.167,73.6667 103.833,73.3333 105.5,73C 104.944,72.6174 104.611,72.1174 104.5,71.5C 104.833,71.5 105.167,71.5 105.5,71.5C 105.833,71.5 106.167,71.5 106.5,71.5C 107.688,72.3636 108.855,73.3636 110,74.5C 111.145,73.3636 112.312,72.3636 113.5,71.5C 117.182,71.6653 120.848,71.4986 124.5,71C 125.252,70.3292 125.586,69.4959 125.5,68.5C 126.167,68.5 126.5,68.1667 126.5,67.5C 127.609,67.4431 128.609,67.1098 129.5,66.5C 129.957,68.5567 130.957,68.5567 132.5,66.5C 132.833,66.5 133.167,66.5 133.5,66.5C 134.189,67.7736 135.023,67.7736 136,66.5C 136.333,67.1667 136.667,67.8333 137,68.5C 137.346,66.1523 138.513,64.3189 140.5,63C 139.833,62.6667 139.167,62.3333 138.5,62C 139.682,60.2317 141.015,60.0651 142.5,61.5 Z M 132.5,69.5 C 133.598,70.6009 133.765,71.9343 133,73.5C 132.25,72.8742 131.416,72.3742 130.5,72C 131.381,71.2917 132.047,70.4584 132.5,69.5 Z"/></g>
<g><path style="opacity:1" fill="#b6b5d5" d="M 70.5,65.5 C 74.5081,66.0937 78.5081,66.7604 82.5,67.5C 82.8333,66.8333 83.1667,66.1667 83.5,65.5C 84.6223,66.6302 85.9557,67.2969 87.5,67.5C 86.4331,69.8795 87.4331,70.8795 90.5,70.5C 91.8717,71.5116 93.205,72.5116 94.5,73.5C 93.209,73.2627 92.209,73.596 91.5,74.5C 84.2943,71.7648 76.961,69.4314 69.5,67.5C 69.8333,66.8333 70.1667,66.1667 70.5,65.5 Z"/></g>
<g><path style="opacity:1" fill="#201b7f" d="M 113.5,71.5 C 112.312,72.3636 111.145,73.3636 110,74.5C 108.855,73.3636 107.688,72.3636 106.5,71.5C 106.833,71.5 107.167,71.5 107.5,71.5C 107.833,71.5 108.167,71.5 108.5,71.5C 110.099,70.438 111.766,70.438 113.5,71.5 Z"/></g>
<g><path style="opacity:1" fill="#241d7e" d="M 94.5,73.5 C 94.8333,73.5 95.1667,73.5 95.5,73.5C 95.5,74.1667 95.5,74.8333 95.5,75.5C 93.7367,76.9538 92.4033,76.6204 91.5,74.5C 92.209,73.596 93.209,73.2627 94.5,73.5 Z"/></g>
<g><path style="opacity:1" fill="#2f2b87" d="M 125.5,74.5 C 124.833,74.8333 124.167,75.1667 123.5,75.5C 122.391,74.71 121.058,74.21 119.5,74C 122.625,73.4562 125.625,72.6229 128.5,71.5C 128.5,72.5 128.5,73.5 128.5,74.5C 127.5,74.5 126.5,74.5 125.5,74.5 Z"/></g>
<g><path style="opacity:1" fill="#9d9cc7" d="M -0.5,-0.5 C -0.166667,-0.5 0.166667,-0.5 0.5,-0.5C 0.5,-0.166667 0.5,0.166667 0.5,0.5C 0.5,2.83333 0.5,5.16667 0.5,7.5C 2.83333,7.5 5.16667,7.5 7.5,7.5C 7.83333,7.5 8.16667,7.5 8.5,7.5C 8.5,7.83333 8.5,8.16667 8.5,8.5C 8.16667,8.5 7.83333,8.5 7.5,8.5C 5.16667,8.5 2.83333,8.5 0.5,8.5C 0.5,10.8333 0.5,13.1667 0.5,15.5C 0.5,15.8333 0.5,16.1667 0.5,16.5C 0.5,21.8333 0.5,27.1667 0.5,32.5C 0.5,32.8333 0.5,33.1667 0.5,33.5C 0.5,35.8333 0.5,38.1667 0.5,40.5C 0.5,40.8333 0.5,41.1667 0.5,41.5C 0.5,43.8333 0.5,46.1667 0.5,48.5C 0.5,48.8333 0.5,49.1667 0.5,49.5C 0.5,51.8333 0.5,54.1667 0.5,56.5C 0.5,56.8333 0.5,57.1667 0.5,57.5C 0.5,59.8333 0.5,62.1667 0.5,64.5C 0.5,64.8333 0.5,65.1667 0.5,65.5C 0.5,68.1667 0.5,70.8333 0.5,73.5C 0.5,73.8333 0.5,74.1667 0.5,74.5C 0.5,76.5 0.5,78.5 0.5,80.5C 0.5,81.1667 0.5,81.8333 0.5,82.5C 0.5,84.5 0.5,86.5 0.5,88.5C 0.5,89.1667 0.5,89.8333 0.5,90.5C 2.83333,90.5 5.16667,90.5 7.5,90.5C 7.5,92.8333 7.5,95.1667 7.5,97.5C 7.83333,97.5 8.16667,97.5 8.5,97.5C 10.8333,97.5 13.1667,97.5 15.5,97.5C 15.5,95.1667 15.5,92.8333 15.5,90.5C 15.5,89.8333 15.5,89.1667 15.5,88.5C 15.5,86.5 15.5,84.5 15.5,82.5C 15.5,81.8333 15.5,81.1667 15.5,80.5C 15.5,78.5 15.5,76.5 15.5,74.5C 15.5,74.1667 15.5,73.8333 15.5,73.5C 15.5,71.1667 15.5,68.8333 15.5,66.5C 15.5,65.8333 15.5,65.1667 15.5,64.5C 15.5,62.1667 15.5,59.8333 15.5,57.5C 15.5,57.1667 15.5,56.8333 15.5,56.5C 15.5,54.1667 15.5,51.8333 15.5,49.5C 15.5,49.1667 15.5,48.8333 15.5,48.5C 15.5,46.1667 15.5,43.8333 15.5,41.5C 15.5,41.1667 15.5,40.8333 15.5,40.5C 15.5,38.1667 15.5,35.8333 15.5,33.5C 15.5,33.1667 15.5,32.8333 15.5,32.5C 15.5,27.1667 15.5,21.8333 15.5,16.5C 15.5,16.1667 15.5,15.8333 15.5,15.5C 15.8333,15.5 16.1667,15.5 16.5,15.5C 18.8333,15.5 21.1667,15.5 23.5,15.5C 24.1667,15.5 24.8333,15.5 25.5,15.5C 27.5,15.5 29.5,15.5 31.5,15.5C 32.1667,15.5 32.8333,15.5 33.5,15.5C 35.5,15.5 37.5,15.5 39.5,15.5C 39.8333,15.5 40.1667,15.5 40.5,15.5C 42.8333,15.5 45.1667,15.5 47.5,15.5C 47.8333,15.5 48.1667,15.5 48.5,15.5C 48.8333,15.5 49.1667,15.5 49.5,15.5C 48.9101,16.766 48.4101,18.0993 48,19.5C 47.5172,18.552 47.3505,17.552 47.5,16.5C 45.4727,16.3379 43.4727,16.5045 41.5,17C 40.1228,24.3422 39.4561,24.1755 39.5,16.5C 31.8333,16.5 24.1667,16.5 16.5,16.5C 16.1786,22.0262 16.5119,27.3595 17.5,32.5C 17.5,32.8333 17.5,33.1667 17.5,33.5C 16.1667,35.8333 16.1667,38.1667 17.5,40.5C 17.5,40.8333 17.5,41.1667 17.5,41.5C 16.5318,43.6074 16.1984,45.9407 16.5,48.5C 16.5,48.8333 16.5,49.1667 16.5,49.5C 16.5,51.8333 16.5,54.1667 16.5,56.5C 16.5,56.8333 16.5,57.1667 16.5,57.5C 16.5,59.8333 16.5,62.1667 16.5,64.5C 16.5,64.8333 16.5,65.1667 16.5,65.5C 16.9495,73.0202 16.9495,80.6868 16.5,88.5C 16.5,89.1667 16.5,89.8333 16.5,90.5C 16.5,92.8333 16.5,95.1667 16.5,97.5C 18.8333,97.5 21.1667,97.5 23.5,97.5C 24.1667,97.5 24.8333,97.5 25.5,97.5C 27.5,97.5 29.5,97.5 31.5,97.5C 32.1667,97.5 32.8333,97.5 33.5,97.5C 35.5,97.5 37.5,97.5 39.5,97.5C 42.1667,97.5 44.8333,97.5 47.5,97.5C 47.8254,89.6484 47.492,81.9818 46.5,74.5C 42.1667,74.5 37.8333,74.5 33.5,74.5C 33.5,74.1667 33.5,73.8333 33.5,73.5C 35.5,73.5 37.5,73.5 39.5,73.5C 40.1667,73.5 40.8333,73.5 41.5,73.5C 43.5,73.5 45.5,73.5 47.5,73.5C 47.6952,69.4526 47.3619,65.4526 46.5,61.5C 46.5565,60.263 47.0565,59.263 48,58.5C 48.4955,60.4727 48.6621,62.4727 48.5,64.5C 50.8333,64.5 53.1667,64.5 55.5,64.5C 55.2322,62.901 55.5655,61.5676 56.5,60.5C 56.8333,60.5 57.1667,60.5 57.5,60.5C 59.5,61.8333 61.5,63.1667 63.5,64.5C 63.5,64.8333 63.5,65.1667 63.5,65.5C 61.5,65.5 59.5,65.5 57.5,65.5C 57.5,68.1667 57.5,70.8333 57.5,73.5C 57.6834,74.8817 54.6834,75.215 48.5,74.5C 48.5,82.1667 48.5,89.8333 48.5,97.5C 61.8333,97.5 75.1667,97.5 88.5,97.5C 88.5,92.8333 88.5,88.1667 88.5,83.5C 88.8333,83.5 89.1667,83.5 89.5,83.5C 89.5,85.1667 89.5,86.8333 89.5,88.5C 92.1667,88.5 94.8333,88.5 97.5,88.5C 97.5,86.5 97.5,84.5 97.5,82.5C 95.5,82.5 93.5,82.5 91.5,82.5C 91.5,81.8333 91.5,81.1667 91.5,80.5C 93.5,80.5 95.5,80.5 97.5,80.5C 97.5,78.8333 97.5,77.1667 97.5,75.5C 98.1667,75.5 98.8333,75.5 99.5,75.5C 99.5,83.1667 99.5,90.8333 99.5,98.5C 66.1667,98.5 32.8333,98.5 -0.5,98.5C -0.5,65.5 -0.5,32.5 -0.5,-0.5 Z"/></g>
<g><path style="opacity:1" fill="#e2e5e0" d="M 15.5,74.5 C 15.5,76.5 15.5,78.5 15.5,80.5C 13.1667,80.5 10.8333,80.5 8.5,80.5C 8.5,78.5 8.5,76.5 8.5,74.5C 10.8333,74.5 13.1667,74.5 15.5,74.5 Z"/></g>
<g><path style="opacity:1" fill="#cac9de" d="M 16.5,65.5 C 18.8333,65.5 21.1667,65.5 23.5,65.5C 23.3359,68.1873 23.5026,70.854 24,73.5C 24.3333,71.1667 24.6667,68.8333 25,66.5C 27.0408,65.5769 29.2075,65.2436 31.5,65.5C 31.5,68.1667 31.5,70.8333 31.5,73.5C 23.5,73.8333 23.5,74.1667 31.5,74.5C 32.1667,82.5 32.8333,82.5 33.5,74.5C 37.8333,74.5 42.1667,74.5 46.5,74.5C 46.5,76.5 46.5,78.5 46.5,80.5C 39.8333,81.1667 39.8333,81.8333 46.5,82.5C 46.5,84.5 46.5,86.5 46.5,88.5C 36.5,88.5 26.5,88.5 16.5,88.5C 16.9495,80.6868 16.9495,73.0202 16.5,65.5 Z"/></g>
<g><path style="opacity:1" fill="#d2d1e2" d="M 48.5,65.5 C 50.8333,65.5 53.1667,65.5 55.5,65.5C 55.5,68.1667 55.5,70.8333 55.5,73.5C 53.1667,73.5 50.8333,73.5 48.5,73.5C 48.5,70.8333 48.5,68.1667 48.5,65.5 Z"/></g>
<g><path style="opacity:1" fill="#d9d8ea" d="M 39.5,73.5 C 37.5,73.5 35.5,73.5 33.5,73.5C 33.5,70.8333 33.5,68.1667 33.5,65.5C 35.5,65.5 37.5,65.5 39.5,65.5C 39.5,68.1667 39.5,70.8333 39.5,73.5 Z"/></g>
<g><path style="opacity:1" fill="#6a7667" d="M 34.5,67.5 C 35.5862,67.62 36.2528,68.2867 36.5,69.5C 36.1667,70.1667 35.8333,70.8333 35.5,71.5C 34.5713,70.3112 34.238,68.9778 34.5,67.5 Z"/></g>
<g><path style="opacity:1" fill="#e9ebea" d="M 15.5,66.5 C 15.5,68.8333 15.5,71.1667 15.5,73.5C 13.1667,73.5 10.8333,73.5 8.5,73.5C 8.5,70.8333 8.5,68.1667 8.5,65.5C 10.9496,65.298 13.283,65.6314 15.5,66.5 Z"/></g>
<g><path style="opacity:1" fill="#f9f9fb" d="M 0.5,65.5 C 6.90488,64.4062 9.23821,67.0729 7.5,73.5C 5.16667,73.5 2.83333,73.5 0.5,73.5C 0.5,70.8333 0.5,68.1667 0.5,65.5 Z"/></g>
<g><path style="opacity:1" fill="#88947c" d="M 3.5,67.5 C 4.58617,67.62 5.25284,68.2867 5.5,69.5C 5.16667,70.1667 4.83333,70.8333 4.5,71.5C 3.57131,70.3112 3.23798,68.9778 3.5,67.5 Z"/></g>
<g><path style="opacity:1" fill="#eff0ef" d="M 15.5,57.5 C 15.5,59.8333 15.5,62.1667 15.5,64.5C 13.1667,64.5 10.8333,64.5 8.5,64.5C 8.5,62.1667 8.5,59.8333 8.5,57.5C 10.8333,57.5 13.1667,57.5 15.5,57.5 Z"/></g>
<g><path style="opacity:1" fill="#f1f1f1" d="M 0.5,57.5 C 2.83333,57.5 5.16667,57.5 7.5,57.5C 7.5,59.8333 7.5,62.1667 7.5,64.5C 5.16667,64.5 2.83333,64.5 0.5,64.5C 0.5,62.1667 0.5,59.8333 0.5,57.5 Z"/></g>
<g><path style="opacity:1" fill="#f6f6f7" d="M 15.5,49.5 C 15.5,51.8333 15.5,54.1667 15.5,56.5C 13.1667,56.5 10.8333,56.5 8.5,56.5C 8.5,54.1667 8.5,51.8333 8.5,49.5C 10.8333,49.5 13.1667,49.5 15.5,49.5 Z"/></g>
<g><path style="opacity:1" fill="#89957a" d="M 10.5,50.5 C 11.5862,50.62 12.2528,51.2867 12.5,52.5C 12.1667,53.1667 11.8333,53.8333 11.5,54.5C 10.5713,53.3112 10.238,51.9778 10.5,50.5 Z"/></g>
<g><path style="opacity:1" fill="#f9f9fb" d="M 0.5,49.5 C 2.83333,49.5 5.16667,49.5 7.5,49.5C 7.5,51.8333 7.5,54.1667 7.5,56.5C 5.16667,56.5 2.83333,56.5 0.5,56.5C 0.5,54.1667 0.5,51.8333 0.5,49.5 Z"/></g>
<g><path style="opacity:1" fill="#88947c" d="M 3.5,50.5 C 4.58617,50.62 5.25284,51.2867 5.5,52.5C 5.16667,53.1667 4.83333,53.8333 4.5,54.5C 3.57131,53.3112 3.23798,51.9778 3.5,50.5 Z"/></g>
<g><path style="opacity:1" fill="#f8f8f9" d="M 0.5,41.5 C 2.83333,41.5 5.16667,41.5 7.5,41.5C 7.5,43.8333 7.5,46.1667 7.5,48.5C 5.16667,48.5 2.83333,48.5 0.5,48.5C 0.5,46.1667 0.5,43.8333 0.5,41.5 Z"/></g>
<g><path style="opacity:1" fill="#79866c" d="M 3.5,42.5 C 4.58617,42.62 5.25284,43.2867 5.5,44.5C 5.16667,45.1667 4.83333,45.8333 4.5,46.5C 3.57131,45.3112 3.23798,43.9778 3.5,42.5 Z"/></g>
<g><path style="opacity:1" fill="#f8f8fa" d="M 15.5,41.5 C 15.5,43.8333 15.5,46.1667 15.5,48.5C 13.1667,48.5 10.8333,48.5 8.5,48.5C 8.5,46.1667 8.5,43.8333 8.5,41.5C 10.8333,41.5 13.1667,41.5 15.5,41.5 Z"/></g>
<g><path style="opacity:1" fill="#8c9880" d="M 10.5,42.5 C 11.5862,42.62 12.2528,43.2867 12.5,44.5C 12.1667,45.1667 11.8333,45.8333 11.5,46.5C 10.5713,45.3112 10.238,43.9778 10.5,42.5 Z"/></g>
<g><path style="opacity:1" fill="#ebedeb" d="M 15.5,33.5 C 15.5,35.8333 15.5,38.1667 15.5,40.5C 13.1667,40.5 10.8333,40.5 8.5,40.5C 8.5,38.1667 8.5,35.8333 8.5,33.5C 10.8333,33.5 13.1667,33.5 15.5,33.5 Z"/></g>
<g><path style="opacity:1" fill="#ecedec" d="M 0.5,33.5 C 2.83333,33.5 5.16667,33.5 7.5,33.5C 7.5,35.8333 7.5,38.1667 7.5,40.5C 5.16667,40.5 2.83333,40.5 0.5,40.5C 0.5,38.1667 0.5,35.8333 0.5,33.5 Z"/></g>
<g><path style="opacity:1" fill="#e7e7eb" d="M 15.5,16.5 C 15.5,21.8333 15.5,27.1667 15.5,32.5C 13.1667,32.5 10.8333,32.5 8.5,32.5C 8.5,27.1667 8.5,21.8333 8.5,16.5C 10.8333,16.5 13.1667,16.5 15.5,16.5 Z"/></g>
<g><path style="opacity:1" fill="#e5e6ea" d="M 0.5,16.5 C 2.83333,16.5 5.16667,16.5 7.5,16.5C 7.5,21.8333 7.5,27.1667 7.5,32.5C 5.16667,32.5 2.83333,32.5 0.5,32.5C 0.5,27.1667 0.5,21.8333 0.5,16.5 Z"/></g>
<g><path style="opacity:1" fill="#8a957c" d="M 10.5,18.5 C 12.4759,19.4271 12.8092,20.7605 11.5,22.5C 10.5713,21.3112 10.238,19.9778 10.5,18.5 Z"/></g>
<g><path style="opacity:1" fill="#6b6aa5" d="M 104.5,71.5 C 104.611,72.1174 104.944,72.6174 105.5,73C 103.833,73.3333 102.167,73.6667 100.5,74C 103.365,74.1829 106.031,74.6829 108.5,75.5C 105.5,75.5 102.5,75.5 99.5,75.5C 98.8333,75.5 98.1667,75.5 97.5,75.5C 96.8333,75.5 96.1667,75.5 95.5,75.5C 95.5,74.8333 95.5,74.1667 95.5,73.5C 98.454,72.7287 101.454,72.062 104.5,71.5 Z"/></g>
<g><path style="opacity:1" fill="#281f80" d="M 137.5,74.5 C 137.53,75.4972 137.03,76.1639 136,76.5C 134.869,75.6647 134.036,75.6647 133.5,76.5C 132.833,76.1667 132.167,75.8333 131.5,75.5C 133.444,74.1723 135.444,73.839 137.5,74.5 Z"/></g>
<g><path style="opacity:1" fill="#6b766a" d="M 34.5,75.5 C 35.5862,75.62 36.2528,76.2867 36.5,77.5C 36.1667,78.1667 35.8333,78.8333 35.5,79.5C 34.5713,78.3112 34.238,76.9778 34.5,75.5 Z"/></g>
<g><path style="opacity:1" fill="#dde0db" d="M 0.5,74.5 C 2.83333,74.5 5.16667,74.5 7.5,74.5C 7.5,76.5 7.5,78.5 7.5,80.5C 5.16667,80.5 2.83333,80.5 0.5,80.5C 0.5,78.5 0.5,76.5 0.5,74.5 Z"/></g>
<g><path style="opacity:1" fill="#6f7a6d" d="M 27.5,75.5 C 28.782,76.7082 28.782,78.0416 27.5,79.5C 26.3744,78.1916 26.3744,76.8583 27.5,75.5 Z"/></g>
<g><path style="opacity:0.322" fill="#dfdeec" d="M 139.5,70.5 C 138.82,72.3901 138.653,74.3901 139,76.5C 136.91,79.0168 135.077,79.0168 133.5,76.5C 134.036,75.6647 134.869,75.6647 136,76.5C 137.03,76.1639 137.53,75.4972 137.5,74.5C 137.229,72.6203 137.896,71.287 139.5,70.5 Z"/></g>
<g><path style="opacity:1" fill="#c3c3d8" d="M 63.5,65.5 C 63.355,73.2877 64.0216,80.9543 65.5,88.5C 67.8568,88.6633 70.1902,88.4966 72.5,88C 71.7476,87.3292 71.4142,86.4959 71.5,85.5C 73.4918,85.3285 75.1585,85.9951 76.5,87.5C 77.5904,86.273 78.9238,85.4396 80.5,85C 83.2538,84.7276 85.9205,84.2276 88.5,83.5C 88.5,88.1667 88.5,92.8333 88.5,97.5C 75.1667,97.5 61.8333,97.5 48.5,97.5C 48.5,89.8333 48.5,82.1667 48.5,74.5C 54.6834,75.215 57.6834,74.8817 57.5,73.5C 57.5,70.8333 57.5,68.1667 57.5,65.5C 59.5,65.5 61.5,65.5 63.5,65.5 Z"/></g>
<g><path style="opacity:1" fill="#fdfdfd" d="M 0.5,82.5 C 2.83333,82.5 5.16667,82.5 7.5,82.5C 7.5,84.5 7.5,86.5 7.5,88.5C 5.16667,88.5 2.83333,88.5 0.5,88.5C 0.5,86.5 0.5,84.5 0.5,82.5 Z"/></g>
<g><path style="opacity:1" fill="#fcfcfd" d="M 15.5,82.5 C 15.5,84.5 15.5,86.5 15.5,88.5C 13.1667,88.5 10.8333,88.5 8.5,88.5C 8.5,86.5 8.5,84.5 8.5,82.5C 10.8333,82.5 13.1667,82.5 15.5,82.5 Z"/></g>
<g><path style="opacity:1" fill="#a2a9a0" d="M 91.5,80.5 C 91.5,81.1667 91.5,81.8333 91.5,82.5C 90.8333,82.8333 90.1667,83.1667 89.5,83.5C 89.1667,83.5 88.8333,83.5 88.5,83.5C 85.9205,84.2276 83.2538,84.7276 80.5,85C 78.9238,85.4396 77.5904,86.273 76.5,87.5C 75.1585,85.9951 73.4918,85.3285 71.5,85.5C 70.9694,86.7954 69.6361,87.4621 67.5,87.5C 67.238,86.0222 67.5713,84.6888 68.5,83.5C 71.438,84.5748 74.438,84.7415 77.5,84C 78.3899,81.4194 80.0566,80.0861 82.5,80C 81.5,81 80.5,82 79.5,83C 83.767,83.2266 87.767,82.3933 91.5,80.5 Z"/></g>
<g><path style="opacity:1" fill="#cfd0dd" d="M 91.5,82.5 C 93.5,82.5 95.5,82.5 97.5,82.5C 97.5,84.5 97.5,86.5 97.5,88.5C 94.8333,88.5 92.1667,88.5 89.5,88.5C 89.5,86.8333 89.5,85.1667 89.5,83.5C 90.1667,83.1667 90.8333,82.8333 91.5,82.5 Z"/></g>
<g><path style="opacity:1" fill="#f1f2f1" d="M 0.5,90.5 C 2.83333,90.5 5.16667,90.5 7.5,90.5C 7.5,92.8333 7.5,95.1667 7.5,97.5C 5.16667,97.5 2.83333,97.5 0.5,97.5C 0.5,95.1667 0.5,92.8333 0.5,90.5 Z"/></g>
<g><path style="opacity:1" fill="#ecedea" d="M 15.5,90.5 C 15.5,92.8333 15.5,95.1667 15.5,97.5C 13.1667,97.5 10.8333,97.5 8.5,97.5C 8.5,95.1667 8.5,92.8333 8.5,90.5C 10.8333,90.5 13.1667,90.5 15.5,90.5 Z"/></g>
<g><path style="opacity:1" fill="#d5d5e2" d="M 16.5,90.5 C 18.8333,90.5 21.1667,90.5 23.5,90.5C 23.5,92.8333 23.5,95.1667 23.5,97.5C 23.5,95.1667 23.5,92.8333 23.5,90.5C 21.1667,90.5 18.8333,90.5 16.5,90.5 Z"/></g>
<g><path style="opacity:1" fill="#b4b3d3" d="M 46.5,74.5 C 47.492,81.9818 47.8254,89.6484 47.5,97.5C 44.8333,97.5 42.1667,97.5 39.5,97.5C 39.5,95.1667 39.5,92.8333 39.5,90.5C 37.5,90.5 35.5,90.5 33.5,90.5C 33.5,92.8333 33.5,95.1667 33.5,97.5C 32.8333,97.5 32.1667,97.5 31.5,97.5C 31.5,95.1667 31.5,92.8333 31.5,90.5C 29.5,90.5 27.5,90.5 25.5,90.5C 25.5,92.8333 25.5,95.1667 25.5,97.5C 24.8333,97.5 24.1667,97.5 23.5,97.5C 23.5,95.1667 23.5,92.8333 23.5,90.5C 21.1667,90.5 18.8333,90.5 16.5,90.5C 16.5,89.8333 16.5,89.1667 16.5,88.5C 26.5,88.5 36.5,88.5 46.5,88.5C 46.5,86.5 46.5,84.5 46.5,82.5C 39.8333,81.8333 39.8333,81.1667 46.5,80.5C 46.5,78.5 46.5,76.5 46.5,74.5 Z"/></g>
<g><path style="opacity:1" fill="#dddcea" d="M 39.5,97.5 C 37.5,97.5 35.5,97.5 33.5,97.5C 33.5,95.1667 33.5,92.8333 33.5,90.5C 35.5,90.5 37.5,90.5 39.5,90.5C 39.5,92.8333 39.5,95.1667 39.5,97.5 Z"/></g>
<g><path style="opacity:1" fill="#dcdbeb" d="M 89.5,90.5 C 92.1667,90.5 94.8333,90.5 97.5,90.5C 97.5,92.8333 97.5,95.1667 97.5,97.5C 94.8333,97.5 92.1667,97.5 89.5,97.5C 89.5,95.1667 89.5,92.8333 89.5,90.5 Z"/></g>
<g><path style="opacity:1" fill="#d9d9e7" d="M 31.5,97.5 C 29.5,97.5 27.5,97.5 25.5,97.5C 25.5,95.1667 25.5,92.8333 25.5,90.5C 27.5,90.5 29.5,90.5 31.5,90.5C 31.5,92.8333 31.5,95.1667 31.5,97.5 Z"/></g>
<g><path style="opacity:1" fill="#6d7969" d="M 34.5,92.5 C 36.3442,93.2039 36.8442,94.5372 36,96.5C 34.8118,95.4366 34.3118,94.1033 34.5,92.5 Z"/></g>
</svg>
