<svg xmlns="http://www.w3.org/2000/svg" width="155" height="99" style="shape-rendering:geometricPrecision;text-rendering:geometricPrecision;image-rendering:optimizeQuality;fill-rule:evenodd;clip-rule:evenodd"><path style="opacity:.953" fill="#b0aed2" d="M.5.5v-1h99v2c-6.09-.471-12.09-.804-18-1-.333 6.667-.667 6.667-1 0-5.165.649-10.332.982-15.5 1-.743 1.94-.576 3.774.5 5.5 3.652.499 7.318.665 11 .5-.342.838-1.008 1.172-2 1-5.809.624-11.476.624-17 0 .33 2.728-.337 5.062-2 7v-7h-7v7h-1v-7h-7v7h-1v-7h-6v7h-2v-7h-6v7h-2v-7h-7v7h-1v-7h-7v-1h-1v-7h-7z"/><path style="opacity:1" fill="#fcfcfd" d="M.5.5h7v7h-7v-7z"/><path style="opacity:1" fill="#eff0f0" d="M8.5 7.5v-7h7v7h-7z"/><path style="opacity:1" fill="#eff0ef" d="M16.5.5h7v7h-7v-7z"/><path style="opacity:1" fill="#f1f2f1" d="M25.5.5h6v7h-6v-7z"/><path style="opacity:1" fill="#f6f7f8" d="M48.5.5h7v7h-7v-7zM57.5.5h6v7h-6v-7z"/><path style="opacity:.335" fill="#d7dad9" d="M99.5 1.5a2.428 2.428 0 0 0 .5 2 17.127 17.127 0 0 1 5.5-1 461.096 461.096 0 0 1 16 2c1 .333 1.667 1 2 2-.6 1.4-1.6 2.4-3 3a55.135 55.135 0 0 0-9-1.5c-.556-.383-.889-.883-1-1.5-.608-3.134-2.274-3.801-5-2h-17c-2.098-1.414-3.098-.748-3 2-.722-.418-1.222-1.084-1.5-2-2.194 1.678-4.694 2.678-7.5 3a60.937 60.937 0 0 1-11-.5c-1.076-1.726-1.243-3.56-.5-5.5a127.825 127.825 0 0 0 15.5-1c.333 6.667.667 6.667 1 0 5.91.196 11.91.529 18 1z"/><path style="opacity:1" fill="#818d75" d="M51.5 2.5c2.47.86 2.637 2.194.5 4a8.434 8.434 0 0 1-.5-4z"/><path style="opacity:1" fill="#838f78" d="M59.5 2.5c1.086.12 1.753.787 2 2l-1 2c-.929-1.189-1.262-2.522-1-4z"/><path style="opacity:1" fill="#74816a" d="M67.5 2.5c2.47.86 2.637 2.194.5 4a8.434 8.434 0 0 1-.5-4z"/><path style="opacity:1" fill="#0d0b76" d="M88.5 4.5c.11.617.444 1.117 1 1.5a8.434 8.434 0 0 1-4 .5c-.098-2.748.902-3.414 3-2z"/><path style="opacity:1" fill="#1a157a" d="M110.5 6.5c-2.053.098-3.72-.569-5-2 2.726-1.801 4.392-1.134 5 2z"/><path style="opacity:1" fill="#241d7e" d="M121.5 2.5h4c-1.279 3.137-.945 6.137 1 9h-2a20.692 20.692 0 0 0-1-5c-.333-1-1-1.667-2-2v-2z"/><path style="opacity:1" fill="#f9faf9" d="M85.5 6.5c2.667 3 2.667 6 0 9-.992-.172-1.658.162-2 1a32.242 32.242 0 0 0-10 4 4.452 4.452 0 0 1-1.5-2c-1.113 3.281-3.28 5.281-6.5 6-.838.342-1.172 1.008-1 2v4c-.624.417-.957 1.084-1 2 .247 1.213.914 1.88 2 2l7 22c-.667 0-1 .333-1 1a17.343 17.343 0 0 0-7 3.5c-2.43.703-4.763.537-7-.5h-1c-2.605-2.243-4.605-4.91-6-8v3a57.951 57.951 0 0 1-19-2.5c-2.69-3.242-3.69-7.075-3-11.5.667 0 1-.333 1-1 1.485-6.005 4.818-10.838 10-14.5a189.49 189.49 0 0 0 19-12c5.17-2.652 10.504-4.486 16-5.5.992.172 1.658-.162 2-1 2.806-.322 5.306-1.322 7.5-3 .278.916.778 1.582 1.5 2z"/><path style="opacity:1" fill="#e7e8ed" d="M33.5.5h14v7h-7c-.333-8-.667-8-1 0h-6v-7z"/><path style="opacity:1" fill="#85917a" d="M44.5 1.5c.934 1.068 1.268 2.401 1 4a4.932 4.932 0 0 1-3-.5 18.49 18.49 0 0 0 2-3.5z"/><path style="opacity:1" fill="#efeff0" d="M7.5 8.5v7h-7v-7h7z"/><path style="opacity:1" fill="#f9f9fb" d="M8.5 8.5h7v7h-7v-7z"/><path style="opacity:1" fill="#f2f2f2" d="M23.5 15.5h-7v-7h7v7z"/><path style="opacity:1" fill="#eeefed" d="M31.5 15.5h-6v-7h6v7z"/><path style="opacity:1" fill="#e5e7e3" d="M39.5 15.5h-6v-7h6v7z"/><path style="opacity:1" fill="#f9f9f9" d="M55.5 15.5h-7v-7h7v7z"/><path style="opacity:1" fill="#dcdde2" d="M47.5 15.5h-7v-7h7v7z"/><path style="opacity:1" fill="#261d80" d="M133.5 8.5h2c.134 1.791-.199 3.458-1 5l-2-1 1-4z"/><path style="opacity:1" fill="#f7f8f7" d="M101.5 11.5c1.265.98 2.599 1.98 4 3a156.943 156.943 0 0 0-6 19l-8 1a102.017 102.017 0 0 1-2-20c3.67-2.864 7.67-3.864 12-3z"/><path style="opacity:1" fill="#8a957e" d="M51.5 10.5c1.086.12 1.753.787 2 2l-1 2c-.929-1.189-1.262-2.522-1-4z"/><path style="opacity:1" fill="#8f8ebe" d="M88.5 4.5h17c1.28 1.431 2.947 2.098 5 2 .111.617.444 1.117 1 1.5 3.087.259 6.087.759 9 1.5v1a18.164 18.164 0 0 0-8-.5c1.598 4.403 4.598 7.236 9 8.5v1a4.932 4.932 0 0 0-3 .5c1.323.816 1.989 1.983 2 3.5-2-1.476-3.667-3.31-5-5.5-2.85-1.171-5.684-2.338-8.5-3.5a91.62 91.62 0 0 0-5.5 18c-.667 0-1 .333-1 1h-1a156.943 156.943 0 0 1 6-19 171.832 171.832 0 0 1-4-3c-4.33-.864-8.33.136-12 3-1.208.734-2.541 1.067-4 1 2.667-3 2.667-6 0-9a8.434 8.434 0 0 0 4-.5c-.556-.383-.89-.883-1-1.5z"/><path style="opacity:1" fill="#f0f1f3" d="M108.5 7.5a68.88 68.88 0 0 1 6 7.5c-5.945.546-7.945-1.954-6-7.5z"/><path style="opacity:1" fill="#f3f3f8" d="M101.5 11.5c-.418-.722-1.084-1.222-2-1.5 2.094-1.352 4.427-1.852 7-1.5.262 1.478-.071 2.811-1 4a6.846 6.846 0 0 0-4-1z"/><path style="opacity:1" fill="#f8f8fb" d="M88.5 7.5c9.333 1.667 9.333 3.333 0 5v-5z"/><path style="opacity:1" fill="#cecee1" d="M95.5 5.5c9.475-.49 9.975.51 1.5 3A9.625 9.625 0 0 1 92.5 7c1.237-.232 2.237-.732 3-1.5z"/><path style="opacity:1" fill="#eff0ee" d="M120.5 10.5c1.193.47 1.86 1.47 2 3a39.103 39.103 0 0 1-1 5c-4.402-1.264-7.402-4.097-9-8.5a18.164 18.164 0 0 1 8 .5z"/><path style="opacity:1" fill="#2e2481" d="M73.5 12.5c1.086.12 1.753.787 2 2-.804 2.457-1.804 2.457-3 0 .363-.684.696-1.35 1-2z"/><path style="opacity:1" fill="#fbfbfc" d="M120.5 23.5v7h-2c.304-.65.637-1.317 1-2-6.866-2.173-12.866-.84-18 4a91.62 91.62 0 0 1 5.5-18c2.816 1.162 5.65 2.329 8.5 3.5 1.333 2.19 3 4.024 5 5.5z"/><path style="opacity:1" fill="#e0e0ea" d="M89.5 14.5c.013 6.778.68 13.445 2 20h-3a104.095 104.095 0 0 1-10-14 22.763 22.763 0 0 1 5-4c.342-.838 1.008-1.172 2-1 1.459.067 2.792-.266 4-1z"/><path style="opacity:1" fill="#c6c6d7" d="m133.5 8.5-1 4-4.5 9-4-2c-.801-2.867-.634-5.534.5-8 .023 2.427.523 4.76 1.5 7 1.415-2.343 1.582-4.677.5-7-1.945-2.863-2.279-5.863-1-9h-4c.704-1.844 2.037-2.344 4-1.5 1.371 3.38 3.538 6.213 6.5 8.5.383-.556.883-.89 1.5-1z"/><path style="opacity:1" fill="#8988ba" d="M124.5 11.5h2c1.082 2.323.915 4.657-.5 7a17.759 17.759 0 0 1-1.5-7z"/><path style="opacity:1" fill="#f7f7f7" d="M78.5 20.5a104.095 104.095 0 0 0 10 14v1c-8.688 5.76-15.188 3.76-19.5-6 .283-5.769 3.45-8.769 9.5-9z"/><path style="opacity:1" fill="#d0d4d0" d="M121.5 19.5c.268 1.599-.066 2.932-1 4-.011-1.517-.677-2.684-2-3.5a4.932 4.932 0 0 1 3-.5z"/><path style="opacity:1" fill="#c0bfd7" d="M135.5 8.5c1.444 2.902 2.944 5.902 4.5 9 1.101 1.894 2.434 2.56 4 2 .627 2.427 1.794 4.427 3.5 6a185.59 185.59 0 0 1-11-1c-1.208-.734-2.541-1.067-4-1v3c-.617-.11-1.117-.444-1.5-1a6.802 6.802 0 0 1-1.5 3 29.831 29.831 0 0 1-2-5c.774-1.211 1.607-1.211 2.5 0-.667-3.093.333-5.76 3-8 1.029 5.617 1.862 5.95 2.5 1-.904-.709-1.237-1.709-1-3 .801-1.542 1.134-3.209 1-5z"/><path style="opacity:1" fill="#c1c2d1" d="M74.5 8.5c-5.496 1.014-10.83 2.848-16 5.5a189.49 189.49 0 0 1-19 12c-5.182 3.662-8.515 8.495-10 14.5h-4v-8h-8c-.988-5.14-1.321-10.474-1-16h23c-.044 7.675.623 7.842 2 .5a18.436 18.436 0 0 1 6-.5 4.932 4.932 0 0 0 .5 3c.41-1.4.91-2.734 1.5-4h6c1.663-1.938 2.33-4.272 2-7 5.524.624 11.191.624 17 0z"/><path style="opacity:1" fill="#150f78" d="m136.5 24.5-1 2h-3v-3c1.459-.067 2.792.266 4 1z"/><path style="opacity:1" fill="#100e76" d="M65.5 24.5c1.965.448 2.298 1.448 1 3a44.358 44.358 0 0 0-2-1c-.172-.992.162-1.658 1-2z"/><path style="opacity:1" fill="#817eb7" d="M136.5 24.5c3.654.442 7.321.776 11 1 1.548.321 2.215 1.321 2 3h-1c-1-2.667-2-2.667-3 0-2.366-2.046-5.033-2.38-8-1 1.499 1.404 1.166 2.07-1 2l-2-.5c1.859-.6 2.192-1.434 1-2.5l1-2z"/><path style="opacity:1" fill="#a3ac9b" d="M118.5 30.5c-.709.904-1.709 1.237-3 1 2.733-1.887 2.233-2.887-1.5-3-3.801.092-6.968 1.426-9.5 4l-2 1h-2c0-.667.333-1 1-1 5.134-4.84 11.134-6.173 18-4-.363.683-.696 1.35-1 2z"/><path style="opacity:1" fill="#f1f2f3" d="M115.5 31.5a185.59 185.59 0 0 1-11 1c2.532-2.574 5.699-3.908 9.5-4 3.733.113 4.233 1.113 1.5 3z"/><path style="opacity:1" fill="#bab9d8" d="M126.5 24.5c.71 2.246 1.21 4.58 1.5 7 1.813-1.11 2.646-.442 2.5 2h-4c-.44-4.83-2.44-5.83-6-3v-5c.722.418 1.222 1.084 1.5 2 .399-.228.565-.562.5-1 .617.11 1.117.444 1.5 1 .377-1.442 1.21-2.442 2.5-3z"/><path style="opacity:1" fill="#dbdaea" d="M132.5 26.5h3c1.192 1.066.859 1.9-1 2.5l2 .5c2.166.07 2.499-.596 1-2 2.967-1.38 5.634-1.046 8 1 .214 1.644-.12 3.144-1 4.5-2.31.497-4.643.663-7 .5h-6a51.56 51.56 0 0 0 1-7z"/><path style="opacity:1" fill="#c2c8bb" d="M44.5 29.5c5.676-.166 11.343 0 17 .5-4.578 1.823-9.245 1.99-14 .5a6.893 6.893 0 0 0-4 2l-1-.5c.88-.708 1.547-1.542 2-2.5z"/><path style="opacity:1" fill="#352c87" d="M64.5 30.5c2.912 1.078 3.246 2.412 1 4-1.086-.12-1.753-.787-2-2 .043-.916.376-1.583 1-2z"/><path style="opacity:1" fill="#cdcedb" d="M17.5 33.5h6v7h-6c-1.333-2.333-1.333-4.667 0-7z"/><path style="opacity:1" fill="#a09fc5" d="M118.5 30.5h2c-.095 2.286-.762 4.286-2 6-5.81-.99-11.81-1.323-18-1l2-2 2-1a185.59 185.59 0 0 0 11-1c1.291.237 2.291-.096 3-1z"/><path style="opacity:1" fill="#5f5ba3" d="M123.5 6.5a20.692 20.692 0 0 1 1 5c-1.134 2.466-1.301 5.133-.5 8l4 2 4.5-9 2 1c-.237 1.291.096 2.291 1 3-.638 4.95-1.471 4.617-2.5-1-2.667 2.24-3.667 4.907-3 8-.893-1.211-1.726-1.211-2.5 0a29.831 29.831 0 0 0 2 5 6.802 6.802 0 0 0 1.5-3c.383.556.883.89 1.5 1a51.56 51.56 0 0 1-1 7h6c.342.838 1.008 1.172 2 1-.122 4.338-.455 4.672-1 1-2.748-.098-3.414.902-2 3h-2c-.184-2.673-1.351-3.34-3.5-2 .792 2.346.625 4.68-.5 7-.706 1.057-1.039.724-1-1v-3c.073-1.527-.594-2.527-2-3-.381-1.431-1.381-2.264-3-2.5 1.493-1.156 1.326-1.99-.5-2.5-2.203 1.377-3.703 3.377-4.5 6-.607-.124-.94-.457-1-1 1.238-1.714 1.905-3.714 2-6 3.56-2.83 5.56-1.83 6 3h4c.146-2.442-.687-3.11-2.5-2-.29-2.42-.79-4.754-1.5-7v-3c-1.322.17-2.489-.163-3.5-1a18.452 18.452 0 0 0-.5 6c.065.438-.101.772-.5 1-.278-.916-.778-1.582-1.5-2v-2c.934-1.068 1.268-2.401 1-4v-1a39.103 39.103 0 0 0 1-5c-.14-1.53-.807-2.53-2-3v-1c1.4-.6 2.4-1.6 3-3z"/><path style="opacity:1" fill="#f4f4f9" d="M126.5 24.5c-1.29.558-2.123 1.558-2.5 3-.383-.556-.883-.89-1.5-1a18.452 18.452 0 0 1 .5-6c1.011.837 2.178 1.17 3.5 1v3z"/><path style="opacity:1" fill="#2c2484" d="M148.5 28.5c-1.195.366-1.861 1.199-2 2.5 1.108 1.677 1.108 3.177 0 4.5h-2c-1.419-.951-3.085-1.285-5-1-.992.172-1.658-.162-2-1 2.357.163 4.69-.003 7-.5.88-1.356 1.214-2.856 1-4.5 1-2.667 2-2.667 3 0z"/><path style="opacity:1" fill="#f7f8f8" d="M148.5 28.5h1v3c-.597.235-.93.735-1 1.5a65.073 65.073 0 0 1 4.5 24.5l-1 1a18.329 18.329 0 0 1-4-6c-.671-.752-1.504-1.086-2.5-1a161.58 161.58 0 0 1 1-16c1.108-1.323 1.108-2.823 0-4.5.139-1.301.805-2.134 2-2.5z"/><path style="opacity:1" fill="#f7f7fb" d="M74.5 40.5v3c.316 3.478-.184 6.812-1.5 10L67.5 37l1-1.5c2.02 1.69 4.02 3.356 6 5z"/><path style="opacity:1" fill="#f3f4f4" d="M100.5 35.5c6.19-.323 12.19.01 18 1-5.39.34-10.723 1.007-16 2h-3c-.237-1.291.096-2.291 1-3z"/><path style="opacity:1" fill="#efeff6" d="M139.5 34.5c1.915-.285 3.581.049 5 1-1.394 2.451-2.228 5.118-2.5 8-1.044-1.123-1.71-2.456-2-4l-1 4c-.717-.544-1.217-1.21-1.5-2 .237-1.291-.096-2.291-1-3-1.414-2.098-.748-3.098 2-3 .545 3.672.878 3.338 1-1zM127.5 36.5c1.406.473 2.073 1.473 2 3a24.93 24.93 0 0 0-8 1v-1c1.107-2.469 3.107-3.469 6-3z"/><path style="opacity:1" fill="#8c8abd" d="M127.5 36.5c-2.893-.469-4.893.531-6 3-1.395-1.315-2.395-.981-3 1h-2c-.834-1.248-2.167-1.915-4-2-3.317.553-6.65.886-10 1v-1c5.277-.993 10.61-1.66 16-2 .06.543.393.876 1 1 .797-2.623 2.297-4.623 4.5-6 1.826.51 1.993 1.344.5 2.5 1.619.236 2.619 1.069 3 2.5z"/><path style="opacity:1" fill="#d4d5dc" d="M92.5 35.5a9.864 9.864 0 0 1 6 1l-1 2c-4.827 1.743-9.827 2.41-15 2a131.198 131.198 0 0 1 10-5z"/><path style="opacity:1" fill="#635fa5" d="M99.5 33.5h3l-2 2c-.904.709-1.237 1.709-1 3h3v1c1.895 1.13 6.562 1.463 14 1h2l1 2h-1l-8 9c.616-1.298.616-2.298 0-3 1.644-1.98 3.31-3.98 5-6a73.122 73.122 0 0 0-17-1l-2 2c-.11-.617-.444-1.117-1-1.5a28.222 28.222 0 0 0-12 .5l-1-2c5.173.41 10.173-.257 15-2l1-2a9.864 9.864 0 0 0-6-1c-1.461 1.186-2.795 1.186-4 0v-1h3l8-1z"/><path style="opacity:1" fill="#e8e8ef" d="M116.5 40.5c-7.438.463-12.105.13-14-1a76.476 76.476 0 0 0 10-1c1.833.085 3.166.752 4 2z"/><path style="opacity:1" fill="#1a1479" d="M134.5 38.5h2c.904.709 1.237 1.709 1 3h-1c-1.548-.321-2.215-1.321-2-3z"/><path style="opacity:1" fill="#0d0a74" d="M121.5 39.5v1c-.333 1-1 1.667-2 2l-1-2c.605-1.981 1.605-2.315 3-1z"/><path style="opacity:1" fill="#d4d4e2" d="M17.5 41.5h6v7h-7c-.302-2.56.032-4.893 1-7z"/><path style="opacity:1" fill="#292081" d="M74.5 40.5c2.357-.163 4.69.003 7 .5-1.237.232-2.237.732-3 1.5-.667 0-1 .333-1 1h-3v-3z"/><path style="opacity:1" fill="#9b99c6" d="M83.5 16.5a22.763 22.763 0 0 0-5 4c-6.05.231-9.217 3.231-9.5 9 4.312 9.76 10.812 11.76 19.5 6 1.205 1.186 2.539 1.186 4 0a131.198 131.198 0 0 0-10 5l1 2h-5c.763-.768 1.763-1.268 3-1.5a24.939 24.939 0 0 0-7-.5c-1.98-1.644-3.98-3.31-6-5l-1 1.5L73 53.5c1.316-3.188 1.816-6.522 1.5-10h3c1.266 1.796.933 2.13-1 1-.667 4.148-1.334 8.148-2 12-.706-1.057-1.04-.724-1 1-.667 0-1-.333-1-1l-7-22c2.246-1.588 1.912-2.922-1-4v-4c.65.304 1.317.637 2 1 1.298-1.552.965-2.552-1-3 3.22-.719 5.387-2.719 6.5-6a4.452 4.452 0 0 0 1.5 2 32.242 32.242 0 0 1 10-4z"/><path style="opacity:1" fill="#f9f8fb" d="M129.5 41.5v1c-.6 1.4-1.6 2.4-3 3a14.696 14.696 0 0 0-3-3.5 18.437 18.437 0 0 1 6-.5z"/><path style="opacity:1" fill="#f3f4f6" d="M98.5 41.5a73.122 73.122 0 0 1 17 1c-1.69 2.02-3.356 4.02-5 6a11.115 11.115 0 0 0-4.5 3 72.021 72.021 0 0 0-7.5-7v-3z"/><path style="opacity:1" fill="#e8e7f2" d="M134.5 38.5c-.215 1.679.452 2.679 2 3 .84 2.352 2.174 4.352 4 6 0 .667-.333 1-1 1-2.092-.061-3.592-1.061-4.5-3-.492 1.049-.326 2.049.5 3-.825.886-1.825 1.219-3 1-.095-2.286-.762-4.286-2-6 1.125-2.32 1.292-4.654.5-7 2.149-1.34 3.316-.673 3.5 2z"/><path style="opacity:1" fill="#efeff5" d="M118.5 42.5a81.798 81.798 0 0 0-2 10 21.445 21.445 0 0 0-7 1h-3c1.117-2.78 2.283-3.112 3.5-1 .399-.228.565-.562.5-1l8-9z"/><path style="opacity:1" fill="#8582b9" d="M129.5 39.5v2a18.437 18.437 0 0 0-6 .5 14.696 14.696 0 0 1 3 3.5c1.4-.6 2.4-1.6 3-3-.039 1.724.294 2.057 1 1 1.238 1.714 1.905 3.714 2 6 1.175.219 2.175-.114 3-1-.826-.951-.992-1.951-.5-3 .908 1.939 2.408 2.939 4.5 3-.763.768-1.763 1.268-3 1.5.556.383.889.883 1 1.5-.838.342-1.172 1.008-1 2-2.592 1.536-3.592 3.87-3 7h5v-3c.79-1.108 1.29-2.442 1.5-4 1.803 4.012 2.803 3.678 3-1 1.269 1.405 1.769 3.071 1.5 5-1.676.683-2.343 2.017-2 4-1.485-1.435-2.818-1.268-4 .5l2 1c-1.987 1.319-3.154 3.152-3.5 5.5l-1-2c-.977 1.274-1.811 1.274-2.5 0-.169-4.54.498-4.874 2-1 1.611-.82 2.278-2.154 2-4-3.512-.554-6.512.112-9 2-1.291-.237-2.291.096-3 1-1.238-.912-2.572-1.08-4-.5a208.311 208.311 0 0 0-5 4.5 6.544 6.544 0 0 0-3 3c-1.734-1.062-3.401-1.062-5 0 1.404-1.755 2.404-3.755 3-6h2c-.803.923-.97 1.923-.5 3l6.5-4.5a8.435 8.435 0 0 0-4-.5v-1a67.252 67.252 0 0 1 9-5.5h-6c1.525-1.009 3.192-1.509 5-1.5v-3c-3.065-.26-5.565.74-7.5 3a4.458 4.458 0 0 0-1.5-2c-2.71.527-4.377 1.527-5 3v-3a21.445 21.445 0 0 1 7-1 81.798 81.798 0 0 1 2-10h1c1-.333 1.667-1 2-2a24.93 24.93 0 0 1 8-1zm3 27c-1.543 2.057-2.543 2.057-3 0 1.298-.616 2.298-.616 3 0z"/><path style="opacity:1" fill="#f9f9fc" d="M119.5 43.5c1.767 2.292 2.767 4.958 3 8a12.935 12.935 0 0 1-5-.5c1.367-2.301 2.034-4.801 2-7.5z"/><path style="opacity:1" fill="#f6f6fa" d="M126.5 45.5c1.442 1.32 2.108 2.986 2 5h-5a85.911 85.911 0 0 1-1.5-8c1.129 1.641 2.629 2.641 4.5 3z"/><path style="opacity:1" fill="#211d80" d="M137.5 51.5c-.111-.617-.444-1.117-1-1.5 1.237-.232 2.237-.732 3-1.5.667 0 1-.333 1-1 .689-1.274 1.523-1.274 2.5 0 .667 1 .667 2 0 3-1.747-.113-3.58.22-5.5 1z"/><path style="opacity:1" fill="#bec5b6" d="M50.5 52.5c-1.144-2.427-3.144-3.427-6-3-3.105.44-6.105.94-9 1.5a57.903 57.903 0 0 1 10-4 135.541 135.541 0 0 0-7-2.5c6.263-.861 10.263 1.806 12 8z"/><path style="opacity:1" fill="#b9b8d7" d="M7.5 8.5h1v7h7v1h-7v16h7v1h-7v7h7v1h-7v7h7v1h-7v7h7v1h-7v7h7v2c-2.217-.869-4.55-1.202-7-1v8h7v1h-7v6h7v2h-7v6h7v2h-7v7h-1v-7h-7v-2h7v-6h-7v-2h7v-6h-7v-1h7c1.738-6.427-.595-9.094-7-8v-1h7v-7h-7v-1h7v-7h-7v-1h7v-7h-7v-1h7v-7h-7v-1h7v-16h-7v-1h7v-7z"/><path style="opacity:1" fill="#eeeff0" d="M100.5 60.5a2.428 2.428 0 0 1-2-.5c1.196-.654 1.196-1.154 0-1.5a55.098 55.098 0 0 0-6.5 6 8.434 8.434 0 0 1-.5-4 192.143 192.143 0 0 1 5-11 36.164 36.164 0 0 1 7 4 14.984 14.984 0 0 1-3 3.5l2 1c-.881.708-1.547 1.542-2 2.5z"/><path style="opacity:1" fill="#9a99c3" d="M98.5 41.5v3a72.021 72.021 0 0 1 7.5 7 11.115 11.115 0 0 1 4.5-3c.616.702.616 1.702 0 3 .065.438-.101.772-.5 1-1.217-2.112-2.383-1.78-3.5 1v3h3c-3.279.599-6.279 1.932-9 4 .453-.958 1.119-1.792 2-2.5l-2-1a14.984 14.984 0 0 0 3-3.5 36.164 36.164 0 0 0-7-4 192.143 192.143 0 0 0-5 11c.109-3.891 1.109-7.558 3-11a14.832 14.832 0 0 0-4-3.5c1.172-.353 2.338-.187 3.5.5 1.31-.63 2.144-1.63 2.5-3l2-2z"/><path style="opacity:1" fill="#f1f1f2" d="M98.5 44.5c.728 2.235 2.061 4.068 4 5.5-2.467.1-4.467-.9-6-3 .139-1.301.805-2.134 2-2.5z"/><path style="opacity:1" fill="#dddceb" d="M125.5 51.5c1.175-.219 2.175.114 3 1a32.444 32.444 0 0 0-1.5 6c-.526-2.05-1.359-3.883-2.5-5.5.556-.383.889-.883 1-1.5z"/><path style="opacity:1" fill="#a6a4cd" d="M144.5 35.5h2a161.58 161.58 0 0 0-1 16v7c-.667 0-1-.333-1-1 .269-1.929-.231-3.595-1.5-5-.197 4.678-1.197 5.012-3 1-.21 1.558-.71 2.892-1.5 4-.233-1.562-.9-2.895-2-4-.172-.992.162-1.658 1-2 1.92-.78 3.753-1.113 5.5-1 .667-1 .667-2 0-3-.977-1.274-1.811-1.274-2.5 0-1.826-1.648-3.16-3.648-4-6h1c.283.79.783 1.456 1.5 2l1-4c.29 1.544.956 2.877 2 4 .272-2.882 1.106-5.549 2.5-8z"/><path style="opacity:1" fill="#d3d3e1" d="M16.5 49.5h7v7h-7v-7z"/><path style="opacity:1" fill="#d6dad0" d="M149.5 31.5c2.573 2.899 4.239 6.232 5 10v19c-3.673 2.503-7.673 4.503-12 6a20.691 20.691 0 0 1 1-5h3c.237-1.291-.096-2.291-1-3v-7c.996-.086 1.829.248 2.5 1a18.329 18.329 0 0 0 4 6l1-1a65.073 65.073 0 0 0-4.5-24.5c.07-.765.403-1.265 1-1.5z"/><path style="opacity:1" fill="#f1f1f7" d="M136.5 53.5c1.1 1.105 1.767 2.438 2 4v3h-5c-.592-3.13.408-5.464 3-7z"/><path style="opacity:1" fill="#120d76" d="M106.5 53.5h3v3h-3v-3z"/><path style="opacity:1" fill="#c5c8ca" d="M28.5 41.5c-.69 4.425.31 8.258 3 11.5a57.951 57.951 0 0 0 19 2.5v-3c1.395 3.09 3.395 5.757 6 8-.934 1.068-1.268 2.401-1 4h-7a18.436 18.436 0 0 0-.5-6c-.944.763-1.444 1.763-1.5 3a45.74 45.74 0 0 1 1 12h-6a49.873 49.873 0 0 0-1-14c-.952 1.545-1.285 3.212-1 5h-6c-.667-4-1.333-4-2 0h-6v-7h5c.27-1.929-.23-3.595-1.5-5l-1 2c-.814-4.52-.647-8.854.5-13z"/><path style="opacity:1" fill="#dcdbeb" d="M115.5 62.5h-1c.074-1.91 1.074-3.078 3-3.5-2.869-2.225-4.369-1.392-4.5 2.5a4.458 4.458 0 0 0-1.5-2c-3.269.968-6.269 2.302-9 4-2.012.514-4.012.68-6 .5 1.593-.949 2.926-2.115 4-3.5 2.721-2.068 5.721-3.401 9-4 .623-1.473 2.29-2.473 5-3a4.458 4.458 0 0 1 1.5 2c1.935-2.26 4.435-3.26 7.5-3v3c-1.808-.009-3.475.491-5 1.5h6a67.252 67.252 0 0 0-9 5.5z"/><path style="opacity:1" fill="#f7f6fa" d="M131.5 56.5c.934 1.068 1.268 2.401 1 4-1.478.262-2.811-.071-4-1 1.27-.788 2.27-1.788 3-3z"/><path style="opacity:1" fill="#231d7c" d="M74.5 56.5a20.677 20.677 0 0 1 1 5h-3c-.067-1.459.266-2.792 1-4-.04-1.724.294-2.057 1-1z"/><path style="opacity:1" fill="#807eb7" d="M114.5 62.5a5.728 5.728 0 0 0-3 1c.03-.997-.47-1.664-1.5-2a14.077 14.077 0 0 1-7.5 2c2.731-1.698 5.731-3.032 9-4a4.458 4.458 0 0 1 1.5 2c.131-3.892 1.631-4.725 4.5-2.5-1.926.422-2.926 1.59-3 3.5z"/><path style="opacity:1" fill="#2f2886" d="M144.5 57.5c0 .667.333 1 1 1 .904.709 1.237 1.709 1 3h-4c-.343-1.983.324-3.317 2-4z"/><path style="opacity:1" fill="#9fa994" d="M71.5 57.5a976.333 976.333 0 0 0-8 7l-6-4c2.237 1.037 4.57 1.203 7 .5a17.343 17.343 0 0 1 7-3.5z"/><path style="opacity:1" fill="#d2d2e0" d="M16.5 57.5h7v7h-7v-7z"/><path style="opacity:1" fill="#1b157b" d="M114.5 62.5h1v1l-2 2h-2v-2a5.728 5.728 0 0 1 3-1z"/><path style="opacity:1" fill="#f2f2f2" d="M111.5 63.5v2c-.596 2.245-1.596 4.245-3 6h-1c-.667-1.333-1.333-1.333-2 0h-1a126.374 126.374 0 0 0-9 2h-1a303.438 303.438 0 0 0-4-3v-2c4.283-1.146 8.283-2.813 12-5a14.077 14.077 0 0 0 7.5-2c1.03.336 1.53 1.003 1.5 2z"/><path style="opacity:1" fill="#d9dbdc" d="M133.5 66.5h-1c-.702-.616-1.702-.616-3 0a5.727 5.727 0 0 0-1-3c2.488-1.888 5.488-2.554 9-2 .278 1.846-.389 3.18-2 4-1.502-3.874-2.169-3.54-2 1z"/><path style="opacity:1" fill="#eff0f1" d="M96.5 43.5c-.356 1.37-1.19 2.37-2.5 3-1.162-.687-2.328-.853-3.5-.5a14.832 14.832 0 0 1 4 3.5c-1.891 3.442-2.891 7.109-3 11-1.058 1.1-1.892 2.434-2.5 4l-9-17a146.198 146.198 0 0 0 7.5 20c-1.544-.203-2.878-.87-4-2l-1 2a336.594 336.594 0 0 0-12-2c-1.208-.734-2.541-1.067-4-1v3h3a210.821 210.821 0 0 1 22 7c.903 2.12 2.237 2.454 4 1h2v5h-6c-3.733 1.893-7.733 2.727-12 2.5l3-3c-2.443.086-4.11 1.42-5 4-3.062.742-6.062.575-9-.5-.929 1.189-1.262 2.522-1 4 2.136-.038 3.47-.705 4-2-.086.996.248 1.83 1 2.5-2.31.497-4.643.663-7 .5a108.754 108.754 0 0 1-2-23v-1a976.333 976.333 0 0 1 8-7c0-.667.333-1 1-1 0 .667.333 1 1 1-.734 1.208-1.067 2.541-1 4h3a20.677 20.677 0 0 0-1-5c.666-3.852 1.333-7.852 2-12 1.933 1.13 2.266.796 1-1 0-.667.333-1 1-1h5a28.222 28.222 0 0 1 12-.5c.556.383.89.883 1 1.5z"/><path style="opacity:1" fill="#211b7e" d="m70.5 65.5-1 2h-3v-3c1.459-.067 2.792.266 4 1z"/><path style="opacity:1" fill="#342d85" d="M128.5 63.5c.61.891.943 1.891 1 3a5.728 5.728 0 0 1-3 1 5.727 5.727 0 0 1-1-3c.709-.904 1.709-1.237 3-1z"/><path style="opacity:1" fill="#acabcf" d="M17.5 33.5v-1h8v8h4c0 .667-.333 1-1 1-1.147 4.146-1.314 8.48-.5 13l1-2c1.27 1.405 1.77 3.071 1.5 5h-5v7h6c.667-4 1.333-4 2 0h6c-.285-1.788.048-3.455 1-5a49.873 49.873 0 0 1 1 14h-2v-8h-6v9c-.667 8-1.333 8-2 0-8-.333-8-.667 0-1v-8c-2.293-.256-4.46.077-6.5 1l-1 7a32.437 32.437 0 0 1-.5-8h-7v-1h7v-7h-7v-1h7v-7h-7v-1h7v-7h-6v-1h6v-7h-6z"/><path style="opacity:1" fill="#8f8ebf" d="M91.5 60.5a8.434 8.434 0 0 0 .5 4 55.098 55.098 0 0 1 6.5-6c1.196.346 1.196.846 0 1.5a2.428 2.428 0 0 0 2 .5c-1.074 1.385-2.407 2.551-4 3.5 1.988.18 3.988.014 6-.5-3.717 2.187-7.717 3.854-12 5a4.932 4.932 0 0 0-.5-3c-.417 1.256-1.25 1.923-2.5 2a146.198 146.198 0 0 1-7.5-20l9 17c.608-1.566 1.442-2.9 2.5-4z"/><path style="opacity:1" fill="#dcdde0" d="M115.5 63.5a8.435 8.435 0 0 1 4 .5l-6.5 4.5c-.47-1.077-.303-2.077.5-3l2-2z"/><path style="opacity:.82" fill="#c5cbbd" d="M125.5 64.5a5.727 5.727 0 0 0 1 3c0 .667-.333 1-1 1-2.844-1.051-5.844-1.051-9 0a208.311 208.311 0 0 1 5-4.5c1.428-.58 2.762-.412 4 .5z"/><path style="opacity:1" fill="#2a2283" d="M90.5 68.5v2c-3.067.38-4.067-.62-3-3 1.25-.077 2.083-.744 2.5-2 .483.948.65 1.948.5 3z"/><path style="opacity:1" fill="#a7a5cd" d="M142.5 61.5h1a20.691 20.691 0 0 0-1 5 310.678 310.678 0 0 0-3 4c-1.604.787-2.271 2.12-2 4-2.056-.661-4.056-.328-6 1-2.235.295-4.235-.039-6-1h3v-3a46.657 46.657 0 0 1-9 2.5c1.558.21 2.891.71 4 1.5h-15c-2.469-.817-5.135-1.317-8-1.5l5-1c-.556-.383-.889-.883-1-1.5h2a30.155 30.155 0 0 1 3.5 3 30.155 30.155 0 0 1 3.5-3 60.94 60.94 0 0 0 11-.5c.752-.67 1.086-1.504 1-2.5.667 0 1-.333 1-1a5.728 5.728 0 0 0 3-1c.457 2.057 1.457 2.057 3 0h1c.689 1.274 1.523 1.274 2.5 0l1 2c.346-2.348 1.513-4.181 3.5-5.5l-2-1c1.182-1.768 2.515-1.935 4-.5zm-10 8c1.098 1.1 1.265 2.434.5 4a9.465 9.465 0 0 0-2.5-1.5c.881-.708 1.547-1.542 2-2.5z"/><path style="opacity:1" fill="#b6b5d5" d="M70.5 65.5c4.008.594 8.008 1.26 12 2l1-2c1.122 1.13 2.456 1.797 4 2-1.067 2.38-.067 3.38 3 3a303.438 303.438 0 0 1 4 3c-1.291-.237-2.291.096-3 1a210.821 210.821 0 0 0-22-7l1-2z"/><path style="opacity:1" fill="#201b7f" d="M113.5 71.5a30.155 30.155 0 0 0-3.5 3 30.155 30.155 0 0 0-3.5-3h2c1.599-1.062 3.266-1.062 5 0z"/><path style="opacity:1" fill="#241d7e" d="M94.5 73.5h1v2c-1.763 1.454-3.097 1.12-4-1 .709-.904 1.709-1.237 3-1z"/><path style="opacity:1" fill="#2f2b87" d="m125.5 74.5-2 1c-1.109-.79-2.442-1.29-4-1.5a46.657 46.657 0 0 0 9-2.5v3h-3z"/><path style="opacity:1" fill="#9d9cc7" d="M-.5-.5h1v8h8v1h-8v82h7v7h8v-82h34c-.59 1.266-1.09 2.6-1.5 4a4.932 4.932 0 0 1-.5-3 18.436 18.436 0 0 0-6 .5c-1.377 7.342-2.044 7.175-2-.5h-23c-.321 5.526.012 10.86 1 16v1c-1.333 2.333-1.333 4.667 0 7v1c-.968 2.107-1.302 4.44-1 7v17c.45 7.52.45 15.187 0 23v9h31c.325-7.852-.008-15.518-1-23h-13v-1h14a45.74 45.74 0 0 0-1-12c.056-1.237.556-2.237 1.5-3 .495 1.973.662 3.973.5 6h7c-.268-1.599.066-2.932 1-4h1l6 4v1h-6v8c.183 1.382-2.817 1.715-9 1v23h40v-14h1v5h8v-6h-6v-2h6v-5h2v23H-.5v-99z"/><path style="opacity:1" fill="#e2e5e0" d="M15.5 74.5v6h-7v-6h7z"/><path style="opacity:1" fill="#cac9de" d="M16.5 65.5h7a32.437 32.437 0 0 0 .5 8l1-7c2.04-.923 4.207-1.256 6.5-1v8c-8 .333-8 .667 0 1 .667 8 1.333 8 2 0h13v6c-6.667.667-6.667 1.333 0 2v6h-30c.45-7.813.45-15.48 0-23z"/><path style="opacity:1" fill="#d2d1e2" d="M48.5 65.5h7v8h-7v-8z"/><path style="opacity:1" fill="#d9d8ea" d="M39.5 73.5h-6v-8h6v8z"/><path style="opacity:1" fill="#6a7667" d="M34.5 67.5c1.086.12 1.753.787 2 2l-1 2c-.929-1.189-1.262-2.522-1-4z"/><path style="opacity:1" fill="#e9ebea" d="M15.5 66.5v7h-7v-8c2.45-.202 4.783.131 7 1z"/><path style="opacity:1" fill="#f9f9fb" d="M.5 65.5c6.405-1.094 8.738 1.573 7 8h-7v-8z"/><path style="opacity:1" fill="#88947c" d="M3.5 67.5c1.086.12 1.753.787 2 2l-1 2c-.929-1.189-1.262-2.522-1-4z"/><path style="opacity:1" fill="#eff0ef" d="M15.5 57.5v7h-7v-7h7z"/><path style="opacity:1" fill="#f1f1f1" d="M.5 57.5h7v7h-7v-7z"/><path style="opacity:1" fill="#f6f6f7" d="M15.5 49.5v7h-7v-7h7z"/><path style="opacity:1" fill="#89957a" d="M10.5 50.5c1.086.12 1.753.787 2 2l-1 2c-.929-1.189-1.262-2.522-1-4z"/><path style="opacity:1" fill="#f9f9fb" d="M.5 49.5h7v7h-7v-7z"/><path style="opacity:1" fill="#88947c" d="M3.5 50.5c1.086.12 1.753.787 2 2l-1 2c-.929-1.189-1.262-2.522-1-4z"/><path style="opacity:1" fill="#f8f8f9" d="M.5 41.5h7v7h-7v-7z"/><path style="opacity:1" fill="#79866c" d="M3.5 42.5c1.086.12 1.753.787 2 2l-1 2c-.929-1.189-1.262-2.522-1-4z"/><path style="opacity:1" fill="#f8f8fa" d="M15.5 41.5v7h-7v-7h7z"/><path style="opacity:1" fill="#8c9880" d="M10.5 42.5c1.086.12 1.753.787 2 2l-1 2c-.929-1.189-1.262-2.522-1-4z"/><path style="opacity:1" fill="#ebedeb" d="M15.5 33.5v7h-7v-7h7z"/><path style="opacity:1" fill="#ecedec" d="M.5 33.5h7v7h-7v-7z"/><path style="opacity:1" fill="#e7e7eb" d="M15.5 16.5v16h-7v-16h7z"/><path style="opacity:1" fill="#e5e6ea" d="M.5 16.5h7v16h-7v-16z"/><path style="opacity:1" fill="#8a957c" d="M10.5 18.5c1.976.927 2.31 2.26 1 4-.929-1.189-1.262-2.522-1-4z"/><path style="opacity:1" fill="#6b6aa5" d="M104.5 71.5c.111.617.444 1.117 1 1.5l-5 1c2.865.183 5.531.683 8 1.5h-13v-2a126.374 126.374 0 0 1 9-2z"/><path style="opacity:1" fill="#281f80" d="M137.5 74.5c.03.997-.47 1.664-1.5 2-1.131-.835-1.964-.835-2.5 0l-2-1c1.944-1.328 3.944-1.661 6-1z"/><path style="opacity:1" fill="#6b766a" d="M34.5 75.5c1.086.12 1.753.787 2 2l-1 2c-.929-1.189-1.262-2.522-1-4z"/><path style="opacity:1" fill="#dde0db" d="M.5 74.5h7v6h-7v-6z"/><path style="opacity:1" fill="#6f7a6d" d="M27.5 75.5c1.282 1.208 1.282 2.542 0 4-1.126-1.308-1.126-2.642 0-4z"/><path style="opacity:.322" fill="#dfdeec" d="M139.5 70.5c-.68 1.89-.847 3.89-.5 6-2.09 2.517-3.923 2.517-5.5 0 .536-.835 1.369-.835 2.5 0 1.03-.336 1.53-1.003 1.5-2-.271-1.88.396-3.213 2-4z"/><path style="opacity:1" fill="#c3c3d8" d="M63.5 65.5a108.754 108.754 0 0 0 2 23c2.357.163 4.69-.003 7-.5-.752-.67-1.086-1.504-1-2.5 1.992-.171 3.659.495 5 2a8.19 8.19 0 0 1 4-2.5 46.14 46.14 0 0 0 8-1.5v14h-40v-23c6.183.715 9.183.382 9-1v-8h6z"/><path style="opacity:1" fill="#fdfdfd" d="M.5 82.5h7v6h-7v-6z"/><path style="opacity:1" fill="#fcfcfd" d="M15.5 82.5v6h-7v-6h7z"/><path style="opacity:1" fill="#a2a9a0" d="M91.5 80.5v2l-2 1h-1a46.14 46.14 0 0 1-8 1.5 8.19 8.19 0 0 0-4 2.5c-1.341-1.505-3.008-2.171-5-2-.53 1.295-1.864 1.962-4 2-.262-1.478.071-2.811 1-4 2.938 1.075 5.938 1.242 9 .5.89-2.58 2.557-3.914 5-4l-3 3c4.267.227 8.267-.607 12-2.5z"/><path style="opacity:1" fill="#cfd0dd" d="M91.5 82.5h6v6h-8v-5l2-1z"/><path style="opacity:1" fill="#f1f2f1" d="M.5 90.5h7v7h-7v-7z"/><path style="opacity:1" fill="#ecedea" d="M15.5 90.5v7h-7v-7h7z"/><path style="opacity:1" fill="#d5d5e2" d="M16.5 90.5h7v7-7h-7z"/><path style="opacity:1" fill="#b4b3d3" d="M46.5 74.5c.992 7.482 1.325 15.148 1 23h-8v-7h-6v7h-2v-7h-6v7h-2v-7h-7v-2h30v-6c-6.667-.667-6.667-1.333 0-2v-6z"/><path style="opacity:1" fill="#dddcea" d="M39.5 97.5h-6v-7h6v7z"/><path style="opacity:1" fill="#dcdbeb" d="M89.5 90.5h8v7h-8v-7z"/><path style="opacity:1" fill="#d9d9e7" d="M31.5 97.5h-6v-7h6v7z"/><path style="opacity:1" fill="#6d7969" d="M34.5 92.5c1.844.704 2.344 2.037 1.5 4-1.188-1.063-1.688-2.397-1.5-4z"/></svg>