<?xml version="1.0" encoding="UTF-8"?>
<!DOCTYPE svg PUBLIC "-//W3C//DTD SVG 1.1//EN" "http://www.w3.org/Graphics/SVG/1.1/DTD/svg11.dtd">
<svg xmlns="http://www.w3.org/2000/svg" version="1.1" width="337px" height="124px" style="shape-rendering:geometricPrecision; text-rendering:geometricPrecision; image-rendering:optimizeQuality; fill-rule:evenodd; clip-rule:evenodd" xmlns:xlink="http://www.w3.org/1999/xlink">
<g><path style="opacity:0.462" fill="#0d0702" d="M 53.5,-0.5 C 72.1667,-0.5 90.8333,-0.5 109.5,-0.5C 165.662,1.01107 221.995,2.01107 278.5,2.5C 270.494,3.27526 262.328,3.94193 254,4.5C 252.14,4.30581 250.307,3.97247 248.5,3.5C 247.287,3.74716 246.62,4.41383 246.5,5.5C 186.463,5.26786 126.463,3.93452 66.5,1.5C 62.4809,1.3542 58.4809,1.02087 54.5,0.5C 53.8333,0.5 53.5,0.166667 53.5,-0.5 Z"/></g>
<g><path style="opacity:0.663" fill="#d2bd9d" d="M 34.5,-0.5 C 40.1667,-0.5 45.8333,-0.5 51.5,-0.5C 49.3636,3.15094 46.6969,3.48427 43.5,0.5C 40.9407,0.198448 38.6074,0.531782 36.5,1.5C 33.4021,1.75556 30.4021,2.42222 27.5,3.5C 29.612,1.79447 31.9453,0.461133 34.5,-0.5 Z"/></g>
<g><path style="opacity:0.914" fill="#46301a" d="M 54.5,0.5 C 58.4809,1.02087 62.4809,1.3542 66.5,1.5C 65.2067,2.15818 63.7067,2.49152 62,2.5C 59.1789,2.59222 56.6789,1.92555 54.5,0.5 Z"/></g>
<g><path style="opacity:1" fill="#9a7836" d="M 43.5,0.5 C 44.1667,1.83333 44.8333,3.16667 45.5,4.5C 44.8333,4.5 44.5,4.83333 44.5,5.5C 43.1667,5.5 41.8333,5.5 40.5,5.5C 39.3684,4.6457 38.035,4.6457 36.5,5.5C 36.5,4.16667 36.5,2.83333 36.5,1.5C 38.6074,0.531782 40.9407,0.198448 43.5,0.5 Z"/></g>
<g><path style="opacity:1" fill="#cfa978" d="M 51.5,-0.5 C 51.8333,-0.5 52.1667,-0.5 52.5,-0.5C 52.4142,0.495904 52.7476,1.32924 53.5,2C 55.2464,2.47093 56.913,3.13759 58.5,4C 54.1794,4.49902 49.8461,4.66568 45.5,4.5C 44.8333,3.16667 44.1667,1.83333 43.5,0.5C 46.6969,3.48427 49.3636,3.15094 51.5,-0.5 Z"/></g>
<g><path style="opacity:1" fill="#b88a4a" d="M 52.5,-0.5 C 52.8333,-0.5 53.1667,-0.5 53.5,-0.5C 53.5,0.166667 53.8333,0.5 54.5,0.5C 56.6789,1.92555 59.1789,2.59222 62,2.5C 63.7067,2.49152 65.2067,2.15818 66.5,1.5C 126.463,3.93452 186.463,5.26786 246.5,5.5C 247.167,5.5 247.5,5.83333 247.5,6.5C 195.628,8.24443 143.795,7.57776 92,4.5C 90.5,4.66667 89,4.83333 87.5,5C 86.7476,5.67076 86.4142,6.5041 86.5,7.5C 86.1667,8.5 85.5,9.16667 84.5,9.5C 84.5,8.16667 84.5,6.83333 84.5,5.5C 71.1667,5.5 57.8333,5.5 44.5,5.5C 44.5,4.83333 44.8333,4.5 45.5,4.5C 49.8461,4.66568 54.1794,4.49902 58.5,4C 56.913,3.13759 55.2464,2.47093 53.5,2C 52.7476,1.32924 52.4142,0.495904 52.5,-0.5 Z"/></g>
<g><path style="opacity:1" fill="#e38947" d="M 44.5,6.5 C 44.5,6.16667 44.5,5.83333 44.5,5.5C 57.8333,5.5 71.1667,5.5 84.5,5.5C 84.5,6.83333 84.5,8.16667 84.5,9.5C 84.1667,9.5 83.8333,9.5 83.5,9.5C 83.5,8.5 83.5,7.5 83.5,6.5C 71.8333,6.5 60.1667,6.5 48.5,6.5C 47.1667,6.5 45.8333,6.5 44.5,6.5 Z"/></g>
<g><path style="opacity:1" fill="#b5804c" d="M 278.5,2.5 C 283.363,2.18054 288.03,2.51388 292.5,3.5C 291.448,3.35055 290.448,3.51722 289.5,4C 290.337,5.01127 290.67,6.17793 290.5,7.5C 289.833,8.83333 288.833,9.83333 287.5,10.5C 288.15,8.56475 288.483,6.56475 288.5,4.5C 274.862,5.64421 261.195,6.31088 247.5,6.5C 247.5,5.83333 247.167,5.5 246.5,5.5C 246.62,4.41383 247.287,3.74716 248.5,3.5C 250.307,3.97247 252.14,4.30581 254,4.5C 262.328,3.94193 270.494,3.27526 278.5,2.5 Z"/></g>
<g><path style="opacity:0.98" fill="#b8562e" d="M 292.5,3.5 C 294.5,3.5 296.5,3.5 298.5,3.5C 299.096,5.39796 299.096,7.06462 298.5,8.5C 295.794,8.4249 293.127,8.09157 290.5,7.5C 290.67,6.17793 290.337,5.01127 289.5,4C 290.448,3.51722 291.448,3.35055 292.5,3.5 Z"/></g>
<g><path style="opacity:1" fill="#200f02" d="M 40.5,5.5 C 41.8333,5.5 43.1667,5.5 44.5,5.5C 44.5,5.83333 44.5,6.16667 44.5,6.5C 47.9271,7.95588 51.5938,8.95588 55.5,9.5C 55.8333,9.83333 56.1667,10.1667 56.5,10.5C 54.3691,11.1687 52.3691,11.8354 50.5,12.5C 46.6286,12.185 42.9619,12.5184 39.5,13.5C 37.8333,13.5 36.1667,13.5 34.5,13.5C 36.0409,10.6069 38.0409,7.94028 40.5,5.5 Z"/></g>
<g><path style="opacity:1" fill="#d0ae73" d="M 247.5,6.5 C 261.195,6.31088 274.862,5.64421 288.5,4.5C 288.483,6.56475 288.15,8.56475 287.5,10.5C 286.22,11.9313 284.553,12.5979 282.5,12.5C 282.5,12.1667 282.5,11.8333 282.5,11.5C 282.423,10.2502 281.756,9.41691 280.5,9C 266.821,8.16726 253.154,8.33393 239.5,9.5C 238.643,10.4252 237.643,11.0919 236.5,11.5C 236.5,10.5 236.5,9.5 236.5,8.5C 218.894,9.09253 201.394,10.4259 184,12.5C 182.667,11.8333 181.333,11.1667 180,10.5C 175.517,12.1242 170.85,11.7908 166,9.5C 162.813,10.881 159.48,11.5477 156,11.5C 132.722,11.0181 109.555,9.68475 86.5,7.5C 86.4142,6.5041 86.7476,5.67076 87.5,5C 89,4.83333 90.5,4.66667 92,4.5C 143.795,7.57776 195.628,8.24443 247.5,6.5 Z"/></g>
<g><path style="opacity:1" fill="#a27f53" d="M 298.5,3.5 C 300.735,3.20528 302.735,3.53862 304.5,4.5C 303.624,4.36912 302.957,4.70245 302.5,5.5C 304.711,6.65951 306.711,7.99285 308.5,9.5C 304.958,9.81277 301.625,9.47944 298.5,8.5C 299.096,7.06462 299.096,5.39796 298.5,3.5 Z"/></g>
<g><path style="opacity:1" fill="#d75716" d="M 48.5,6.5 C 60.1667,6.5 71.8333,6.5 83.5,6.5C 83.5,7.5 83.5,8.5 83.5,9.5C 81.7721,11.2255 79.7721,12.5589 77.5,13.5C 76.8279,11.3321 75.3279,9.99879 73,9.5C 71.072,9.9335 69.2387,10.6002 67.5,11.5C 65.1436,10.4569 62.8103,9.45694 60.5,8.5C 56.3164,8.14909 52.3164,7.48242 48.5,6.5 Z"/></g>
<g><path style="opacity:1" fill="#e99f62" d="M 282.5,11.5 C 274.465,9.96723 266.298,9.30056 258,9.5C 251.99,9.5005 246.157,9.83384 240.5,10.5C 240.5,10.8333 240.5,11.1667 240.5,11.5C 239.833,11.5 239.5,11.8333 239.5,12.5C 238.272,13.3065 237.272,14.3065 236.5,15.5C 235.662,15.8417 235.328,16.5084 235.5,17.5C 246.993,18.3307 258.659,18.8307 270.5,19C 272.247,19.3519 273.914,19.8519 275.5,20.5C 275.5,20.8333 275.5,21.1667 275.5,21.5C 274.652,22.625 273.652,22.625 272.5,21.5C 270.369,20.6862 268.036,20.1862 265.5,20C 255.167,19.6667 244.833,19.3333 234.5,19C 233.577,16.9592 233.244,14.7925 233.5,12.5C 234.791,12.7373 235.791,12.404 236.5,11.5C 237.643,11.0919 238.643,10.4252 239.5,9.5C 253.154,8.33393 266.821,8.16726 280.5,9C 281.756,9.41691 282.423,10.2502 282.5,11.5 Z"/></g>
<g><path style="opacity:0.999" fill="#090503" d="M 290.5,7.5 C 293.127,8.09157 295.794,8.4249 298.5,8.5C 301.625,9.47944 304.958,9.81277 308.5,9.5C 312.84,13.5069 316.84,17.8402 320.5,22.5C 322.965,25.614 324.965,28.9473 326.5,32.5C 327.734,37.883 329.734,42.883 332.5,47.5C 332.557,48.609 332.89,49.609 333.5,50.5C 333.519,52.0603 333.852,53.5603 334.5,55C 333.727,61.1294 333.227,67.2961 333,73.5C 332.339,76.9457 331.505,80.2791 330.5,83.5C 328.578,95.1767 323.578,105.343 315.5,114C 306.727,120.729 297.06,122.563 286.5,119.5C 284.97,117.654 282.97,116.654 280.5,116.5C 268.14,115.187 255.64,115.187 243,116.5C 240.324,114.323 237.824,111.99 235.5,109.5C 236.694,108.223 238.36,107.556 240.5,107.5C 249.488,108.181 258.488,108.681 267.5,109C 269.63,109.967 271.63,111.134 273.5,112.5C 274.167,112.167 274.833,111.833 275.5,111.5C 274.95,109.343 274.283,107.343 273.5,105.5C 272.921,102.669 271.588,100.336 269.5,98.5C 269.167,97.5 268.5,96.8333 267.5,96.5C 266.699,92.7653 265.699,89.0986 264.5,85.5C 264.5,85.1667 264.5,84.8333 264.5,84.5C 264.737,83.209 264.404,82.209 263.5,81.5C 263.806,78.6146 263.473,75.9479 262.5,73.5C 262.672,72.5084 262.338,71.8417 261.5,71.5C 261.5,66.8333 261.5,62.1667 261.5,57.5C 261.833,56.8333 262.167,56.1667 262.5,55.5C 263.404,54.791 263.737,53.791 263.5,52.5C 264.485,48.3656 264.818,44.0323 264.5,39.5C 266.893,37.3703 268.56,34.7036 269.5,31.5C 269.833,31.5 270.167,31.5 270.5,31.5C 272.912,31.6941 273.912,33.0274 273.5,35.5C 271.345,39.1391 269.178,42.8057 267,46.5C 267.03,52.1484 267.197,57.8151 267.5,63.5C 266.167,67.5 266.167,71.5 267.5,75.5C 267.338,77.5273 267.505,79.5273 268,81.5C 268.383,82.056 268.883,82.3893 269.5,82.5C 269.833,83.1667 270.167,83.8333 270.5,84.5C 272.168,90.8327 274.002,97.166 276,103.5C 278.179,104.116 280.012,105.283 281.5,107C 282.793,107.49 284.127,107.657 285.5,107.5C 290.742,107.977 295.742,107.144 300.5,105C 308.85,98.3219 314.35,89.8219 317,79.5C 319.164,67.1021 318.83,54.7687 316,42.5C 314.476,40.1019 312.976,37.7686 311.5,35.5C 311.5,34.8333 311.167,34.5 310.5,34.5C 305.764,22.7618 297.098,16.4284 284.5,15.5C 282.167,16.8322 280.834,18.8322 280.5,21.5C 279.833,22.1667 279.167,22.8333 278.5,23.5C 277.833,23.5 277.167,23.5 276.5,23.5C 276.672,22.5084 276.338,21.8417 275.5,21.5C 275.5,21.1667 275.5,20.8333 275.5,20.5C 275.557,19.391 275.89,18.391 276.5,17.5C 276.5,17.1667 276.5,16.8333 276.5,16.5C 277.71,16.0679 278.71,15.4013 279.5,14.5C 280.222,13.4489 281.222,12.7822 282.5,12.5C 284.553,12.5979 286.22,11.9313 287.5,10.5C 288.833,9.83333 289.833,8.83333 290.5,7.5 Z"/></g>
<g><path style="opacity:1" fill="#5e2103" d="M 44.5,6.5 C 45.8333,6.5 47.1667,6.5 48.5,6.5C 52.3164,7.48242 56.3164,8.14909 60.5,8.5C 61.0906,9.15149 61.7573,9.81815 62.5,10.5C 58.6804,12.1448 54.6804,12.8115 50.5,12.5C 52.3691,11.8354 54.3691,11.1687 56.5,10.5C 56.1667,10.1667 55.8333,9.83333 55.5,9.5C 51.5938,8.95588 47.9271,7.95588 44.5,6.5 Z"/></g>
<g><path style="opacity:1" fill="#ee8546" d="M 240.5,10.5 C 246.157,9.83384 251.99,9.5005 258,9.5C 266.298,9.30056 274.465,9.96723 282.5,11.5C 282.5,11.8333 282.5,12.1667 282.5,12.5C 281.222,12.7822 280.222,13.4489 279.5,14.5C 278.426,12.716 276.76,11.5494 274.5,11C 263.172,10.5001 251.838,10.3335 240.5,10.5 Z"/></g>
<g><path style="opacity:1" fill="#ddc08c" d="M 86.5,7.5 C 109.555,9.68475 132.722,11.0181 156,11.5C 159.48,11.5477 162.813,10.881 166,9.5C 170.85,11.7908 175.517,12.1242 180,10.5C 181.333,11.1667 182.667,11.8333 184,12.5C 201.394,10.4259 218.894,9.09253 236.5,8.5C 236.5,9.5 236.5,10.5 236.5,11.5C 235.791,12.404 234.791,12.7373 233.5,12.5C 233.244,14.7925 233.577,16.9592 234.5,19C 244.833,19.3333 255.167,19.6667 265.5,20C 268.036,20.1862 270.369,20.6862 272.5,21.5C 259.512,20.8391 246.512,20.3391 233.5,20C 232.833,19.6667 232.167,19.3333 231.5,19C 232.76,17.1862 232.76,15.3529 231.5,13.5C 229.12,17.1318 226.286,17.4652 223,14.5C 221.715,14.9504 220.548,15.6171 219.5,16.5C 217.141,28.2192 215.808,28.2192 215.5,16.5C 212.5,16.5 209.5,16.5 206.5,16.5C 206.777,19.4475 206.444,22.2809 205.5,25C 206.308,25.3076 206.975,25.8076 207.5,26.5C 204.419,28.4149 202.253,31.0815 201,34.5C 199.282,32.7979 199.115,30.9645 200.5,29C 198.965,29.6609 197.298,29.9942 195.5,30C 194.833,28 193.5,26.6667 191.5,26C 192.554,24.6124 192.72,23.1124 192,21.5C 191.259,20.3595 190.425,20.3595 189.5,21.5C 187.981,19.0539 186.314,16.7205 184.5,14.5C 179.198,13.3372 173.864,13.1705 168.5,14C 167.057,15.0672 165.724,16.2338 164.5,17.5C 163.304,17.1543 163.304,16.6543 164.5,16C 161.783,14.967 159.949,15.8003 159,18.5C 158.035,21.3627 158.702,23.696 161,25.5C 161.772,25.3552 162.439,25.0219 163,24.5C 163.026,28.1083 163.859,31.4417 165.5,34.5C 169.055,30.8283 171.722,26.495 173.5,21.5C 175.834,22.482 178.168,22.6487 180.5,22C 183.457,24.6877 184.457,27.8543 183.5,31.5C 184.808,34.7302 185.808,38.0636 186.5,41.5C 186.669,40.6034 187.002,39.6034 187.5,38.5C 189.834,39.8408 191.501,39.1741 192.5,36.5C 192.833,37 193.167,37.5 193.5,38C 192.128,41.0261 191.462,44.1927 191.5,47.5C 190.178,47.33 189.011,47.6634 188,48.5C 187.508,47.451 187.674,46.451 188.5,45.5C 187.675,44.6143 186.675,44.281 185.5,44.5C 185.719,48.5274 184.552,49.1941 182,46.5C 180.301,47.4061 178.467,47.7394 176.5,47.5C 176.5,48.5 176.5,49.5 176.5,50.5C 174.599,50.2465 173.933,50.5798 174.5,51.5C 174.621,54.5409 173.121,56.2076 170,56.5C 168.159,55.8834 166.159,55.8834 164,56.5C 162.284,56.2517 160.784,55.585 159.5,54.5C 156.687,57.1438 153.354,58.6438 149.5,59C 148.696,60.7713 147.529,62.2713 146,63.5C 145.031,61.2661 143.698,59.2661 142,57.5C 139.539,58.2181 137.039,58.8847 134.5,59.5C 131.943,58.5933 129.443,57.5933 127,56.5C 125.244,60.3204 123.077,63.9871 120.5,67.5C 120.542,69.1877 120.542,70.8543 120.5,72.5C 108.527,73.1612 96.5275,73.1612 84.5,72.5C 81.5308,70.9937 78.6975,71.327 76,73.5C 74.3814,71.0441 73.8814,68.5441 74.5,66C 72.3362,65.6296 70.3362,64.7962 68.5,63.5C 67.3503,60.2532 66.517,56.9199 66,53.5C 65.6667,56.8333 65.3333,60.1667 65,63.5C 64.5,64 64,64.5 63.5,65C 59.3112,65.8119 55.3112,65.6453 51.5,64.5C 55.3714,64.815 59.0381,64.4816 62.5,63.5C 63.4849,59.3656 63.8182,55.0323 63.5,50.5C 63.3893,49.8826 63.056,49.3826 62.5,49C 49.1708,48.5001 35.8375,48.3334 22.5,48.5C 21.5,48.5 20.5,48.5 19.5,48.5C 19.1667,48.5 18.8333,48.5 18.5,48.5C 20.5706,47.1914 23.0706,46.5248 26,46.5C 38.8236,47.5051 51.657,47.6718 64.5,47C 64.9553,44.4497 65.2886,41.6163 65.5,38.5C 53.2954,38.1963 41.1287,38.5297 29,39.5C 26.6828,38.588 24.5161,37.588 22.5,36.5C 37.3432,36.8936 52.0099,36.8936 66.5,36.5C 67.8333,33.1667 69.1667,29.8333 70.5,26.5C 70.5,25.5 70.5,24.5 70.5,23.5C 57.8333,23.5 45.1667,23.5 32.5,23.5C 30.7354,22.5386 28.7354,22.2053 26.5,22.5C 24.9826,22.5106 23.8159,23.1772 23,24.5C 21.4383,28.0145 20.605,31.6811 20.5,35.5C 19.6981,34.0484 19.1981,32.3817 19,30.5C 18.6667,30.8333 18.3333,31.1667 18,31.5C 17.7216,30.5842 17.2216,29.9175 16.5,29.5C 17.2186,27.2362 17.552,24.9029 17.5,22.5C 18.8333,22.5 20.1667,22.5 21.5,22.5C 21.6287,20.7839 21.962,19.1172 22.5,17.5C 23.5676,16.5655 24.901,16.2322 26.5,16.5C 27.4959,16.5858 28.3292,16.2524 29,15.5C 30.9421,10.1567 31.7755,10.49 31.5,16.5C 47.1423,17.0893 62.809,16.756 78.5,15.5C 80.8272,13.8394 82.8272,11.8394 84.5,9.5C 85.5,9.16667 86.1667,8.5 86.5,7.5 Z"/></g>
<g><path style="opacity:1" fill="#554421" d="M 36.5,1.5 C 36.5,2.83333 36.5,4.16667 36.5,5.5C 34.0071,6.79673 31.3404,7.79673 28.5,8.5C 27.7025,8.95689 27.3691,9.62356 27.5,10.5C 24.9748,11.0482 22.6415,12.0482 20.5,13.5C 17.8575,18.2498 15.6908,23.2498 14,28.5C 12.4301,29.614 11.0968,30.9474 10,32.5C 8.95776,41.6389 7.7911,50.6389 6.5,59.5C 6.37728,51.1302 6.87728,42.7969 8,34.5C 8.55731,32.3853 9.39064,30.3853 10.5,28.5C 10.0431,27.7025 9.37644,27.3691 8.5,27.5C 9.80079,24.977 10.8008,22.3103 11.5,19.5C 17.3243,14.3425 22.6576,9.00921 27.5,3.5C 30.4021,2.42222 33.4021,1.75556 36.5,1.5 Z"/></g>
<g><path style="opacity:1" fill="#933506" d="M 60.5,8.5 C 62.8103,9.45694 65.1436,10.4569 67.5,11.5C 69.2387,10.6002 71.072,9.9335 73,9.5C 75.3279,9.99879 76.8279,11.3321 77.5,13.5C 77.1667,13.5 76.8333,13.5 76.5,13.5C 64.1667,13.5 51.8333,13.5 39.5,13.5C 42.9619,12.5184 46.6286,12.185 50.5,12.5C 54.6804,12.8115 58.6804,12.1448 62.5,10.5C 61.7573,9.81815 61.0906,9.15149 60.5,8.5 Z"/></g>
<g><path style="opacity:0.325" fill="#d0c29b" d="M 22.5,6.5 C 19.1667,10.5 15.5,14.1667 11.5,17.5C 14.1667,12.8333 17.8333,9.16667 22.5,6.5 Z"/></g>
<g><path style="opacity:1" fill="#d39145" d="M 40.5,5.5 C 38.0409,7.94028 36.0409,10.6069 34.5,13.5C 36.1667,13.5 37.8333,13.5 39.5,13.5C 51.8333,13.5 64.1667,13.5 76.5,13.5C 62.0095,14.496 47.3428,14.8293 32.5,14.5C 32.5,13.1667 32.5,11.8333 32.5,10.5C 31.448,10.3505 30.448,10.5172 29.5,11C 28.7772,13.0183 27.7772,14.8516 26.5,16.5C 24.901,16.2322 23.5676,16.5655 22.5,17.5C 21.5416,17.9528 20.7083,18.6195 20,19.5C 19.3333,18.8333 19.3333,18.1667 20,17.5C 23.0455,15.6169 25.5455,13.2836 27.5,10.5C 27.3691,9.62356 27.7025,8.95689 28.5,8.5C 31.3404,7.79673 34.0071,6.79673 36.5,5.5C 38.035,4.6457 39.3684,4.6457 40.5,5.5 Z"/></g>
<g><path style="opacity:1" fill="#f56f28" d="M 240.5,11.5 C 240.5,11.1667 240.5,10.8333 240.5,10.5C 251.838,10.3335 263.172,10.5001 274.5,11C 276.76,11.5494 278.426,12.716 279.5,14.5C 278.71,15.4013 277.71,16.0679 276.5,16.5C 275.571,15.6851 274.571,14.8518 273.5,14C 268.069,13.7572 262.736,12.9239 257.5,11.5C 256.584,11.5427 255.917,11.8761 255.5,12.5C 253.116,12.4433 250.782,12.7766 248.5,13.5C 246.098,11.951 243.432,11.2843 240.5,11.5 Z"/></g>
<g><path style="opacity:1" fill="#7d2d04" d="M 239.5,12.5 C 241.645,12.7377 243.312,13.7377 244.5,15.5C 241.691,16.8003 239.024,16.8003 236.5,15.5C 237.272,14.3065 238.272,13.3065 239.5,12.5 Z"/></g>
<g><path style="opacity:0.333" fill="#e4cab5" d="M 304.5,4.5 C 307.167,4.5 309.833,4.5 312.5,4.5C 312.351,5.55198 312.517,6.55198 313,7.5C 322.703,16.7309 329.203,27.8975 332.5,41C 333.512,43.2427 334.845,45.0761 336.5,46.5C 336.5,55.8333 336.5,65.1667 336.5,74.5C 336.167,74.5 335.833,74.5 335.5,74.5C 336.134,66.0968 335.467,58.0968 333.5,50.5C 332.89,49.609 332.557,48.609 332.5,47.5C 331.266,42.117 329.266,37.117 326.5,32.5C 326.741,29.2065 325.908,26.2065 324,23.5C 322.989,22.6634 321.822,22.33 320.5,22.5C 316.84,17.8402 312.84,13.5069 308.5,9.5C 306.711,7.99285 304.711,6.65951 302.5,5.5C 302.957,4.70245 303.624,4.36912 304.5,4.5 Z"/></g>
<g><path style="opacity:1" fill="#e6ba7e" d="M 83.5,9.5 C 83.8333,9.5 84.1667,9.5 84.5,9.5C 82.8272,11.8394 80.8272,13.8394 78.5,15.5C 62.809,16.756 47.1423,17.0893 31.5,16.5C 31.7755,10.49 30.9421,10.1567 29,15.5C 28.3292,16.2524 27.4959,16.5858 26.5,16.5C 27.7772,14.8516 28.7772,13.0183 29.5,11C 30.448,10.5172 31.448,10.3505 32.5,10.5C 32.5,11.8333 32.5,13.1667 32.5,14.5C 47.3428,14.8293 62.0095,14.496 76.5,13.5C 76.8333,13.5 77.1667,13.5 77.5,13.5C 79.7721,12.5589 81.7721,11.2255 83.5,9.5 Z"/></g>
<g><path style="opacity:1" fill="#a53b05" d="M 239.5,12.5 C 239.5,11.8333 239.833,11.5 240.5,11.5C 243.432,11.2843 246.098,11.951 248.5,13.5C 250.782,12.7766 253.116,12.4433 255.5,12.5C 258.702,12.5367 260.368,14.2033 260.5,17.5C 252.167,17.5 243.833,17.5 235.5,17.5C 235.328,16.5084 235.662,15.8417 236.5,15.5C 239.024,16.8003 241.691,16.8003 244.5,15.5C 243.312,13.7377 241.645,12.7377 239.5,12.5 Z"/></g>
<g><path style="opacity:1" fill="#dd5006" d="M 255.5,12.5 C 255.917,11.8761 256.584,11.5427 257.5,11.5C 262.736,12.9239 268.069,13.7572 273.5,14C 274.571,14.8518 275.571,15.6851 276.5,16.5C 276.5,16.8333 276.5,17.1667 276.5,17.5C 271.347,17.6816 266.014,17.6816 260.5,17.5C 260.368,14.2033 258.702,12.5367 255.5,12.5 Z"/></g>
<g><path style="opacity:1" fill="#dfc38f" d="M 272.5,21.5 C 273.652,22.625 274.652,22.625 275.5,21.5C 276.338,21.8417 276.672,22.5084 276.5,23.5C 274.117,24.8851 272.45,26.8851 271.5,29.5C 271.167,29.5 270.833,29.5 270.5,29.5C 266.386,28.1739 261.886,27.5073 257,27.5C 247.165,26.8953 237.331,26.7286 227.5,27C 225.612,29.1896 223.445,31.0229 221,32.5C 220.667,34.1667 220.333,35.8333 220,37.5C 218.325,38.5955 217.158,40.0955 216.5,42C 218.319,44.0563 218.985,46.2229 218.5,48.5C 221.429,49.6486 221.929,51.3153 220,53.5C 217.629,50.6275 215.796,50.9608 214.5,54.5C 215.325,55.3857 216.325,55.719 217.5,55.5C 217.221,60.5947 217.555,65.5947 218.5,70.5C 218.56,74.4851 216.56,76.1518 212.5,75.5C 210.801,75.6602 209.134,75.4935 207.5,75C 206,72.8333 204.167,71 202,69.5C 201.386,67.6866 201.719,67.3533 203,68.5C 203.13,63.9446 202.13,63.6113 200,67.5C 199.08,64.8987 198.413,62.2321 198,59.5C 196.992,64.5409 196.492,64.2076 196.5,58.5C 193.447,58.0893 190.447,57.4226 187.5,56.5C 186.719,55.2713 186.219,53.938 186,52.5C 184.984,53.6341 184.317,53.3008 184,51.5C 182.526,53.9154 180.86,53.9154 179,51.5C 177.437,52.7221 175.937,52.7221 174.5,51.5C 173.933,50.5798 174.599,50.2465 176.5,50.5C 176.5,49.5 176.5,48.5 176.5,47.5C 178.467,47.7394 180.301,47.4061 182,46.5C 184.552,49.1941 185.719,48.5274 185.5,44.5C 186.675,44.281 187.675,44.6143 188.5,45.5C 187.674,46.451 187.508,47.451 188,48.5C 189.011,47.6634 190.178,47.33 191.5,47.5C 191.462,44.1927 192.128,41.0261 193.5,38C 193.167,37.5 192.833,37 192.5,36.5C 191.501,39.1741 189.834,39.8408 187.5,38.5C 187.002,39.6034 186.669,40.6034 186.5,41.5C 185.808,38.0636 184.808,34.7302 183.5,31.5C 184.457,27.8543 183.457,24.6877 180.5,22C 178.168,22.6487 175.834,22.482 173.5,21.5C 171.722,26.495 169.055,30.8283 165.5,34.5C 163.859,31.4417 163.026,28.1083 163,24.5C 162.439,25.0219 161.772,25.3552 161,25.5C 158.702,23.696 158.035,21.3627 159,18.5C 159.949,15.8003 161.783,14.967 164.5,16C 163.304,16.6543 163.304,17.1543 164.5,17.5C 165.724,16.2338 167.057,15.0672 168.5,14C 173.864,13.1705 179.198,13.3372 184.5,14.5C 186.314,16.7205 187.981,19.0539 189.5,21.5C 190.425,20.3595 191.259,20.3595 192,21.5C 192.72,23.1124 192.554,24.6124 191.5,26C 193.5,26.6667 194.833,28 195.5,30C 197.298,29.9942 198.965,29.6609 200.5,29C 199.115,30.9645 199.282,32.7979 201,34.5C 202.253,31.0815 204.419,28.4149 207.5,26.5C 206.975,25.8076 206.308,25.3076 205.5,25C 206.444,22.2809 206.777,19.4475 206.5,16.5C 209.5,16.5 212.5,16.5 215.5,16.5C 215.808,28.2192 217.141,28.2192 219.5,16.5C 220.548,15.6171 221.715,14.9504 223,14.5C 226.286,17.4652 229.12,17.1318 231.5,13.5C 232.76,15.3529 232.76,17.1862 231.5,19C 232.167,19.3333 232.833,19.6667 233.5,20C 246.512,20.3391 259.512,20.8391 272.5,21.5 Z"/></g>
<g><path style="opacity:1" fill="#ea8043" d="M 235.5,17.5 C 243.833,17.5 252.167,17.5 260.5,17.5C 266.014,17.6816 271.347,17.6816 276.5,17.5C 275.89,18.391 275.557,19.391 275.5,20.5C 273.914,19.8519 272.247,19.3519 270.5,19C 258.659,18.8307 246.993,18.3307 235.5,17.5 Z"/></g>
<g><path style="opacity:0.549" fill="#826f41" d="M 27.5,3.5 C 22.6576,9.00921 17.3243,14.3425 11.5,19.5C 11.5,18.8333 11.5,18.1667 11.5,17.5C 15.5,14.1667 19.1667,10.5 22.5,6.5C 23.6594,4.74973 25.326,3.74973 27.5,3.5 Z"/></g>
<g><path style="opacity:1" fill="#9b9086" d="M 310.5,34.5 C 306.629,29.4435 302.296,24.7769 297.5,20.5C 295.021,19.3267 292.521,19.3267 290,20.5C 288.88,18.9252 287.38,17.9252 285.5,17.5C 283.423,18.3228 281.756,19.6561 280.5,21.5C 280.834,18.8322 282.167,16.8322 284.5,15.5C 297.098,16.4284 305.764,22.7618 310.5,34.5 Z"/></g>
<g><path style="opacity:0.498" fill="#ba9f76" d="M 11.5,17.5 C 11.5,18.1667 11.5,18.8333 11.5,19.5C 10.8008,22.3103 9.80079,24.977 8.5,27.5C 7.16667,28.8333 5.83333,30.1667 4.5,31.5C 5.79857,26.2361 8.1319,21.5694 11.5,17.5 Z"/></g>
<g><path style="opacity:0.784" fill="#dc9883" d="M 320.5,22.5 C 321.822,22.33 322.989,22.6634 324,23.5C 325.908,26.2065 326.741,29.2065 326.5,32.5C 324.965,28.9473 322.965,25.614 320.5,22.5 Z"/></g>
<g><path style="opacity:1" fill="#c15e19" d="M 26.5,22.5 C 28.7354,22.2053 30.7354,22.5386 32.5,23.5C 29.2118,23.0156 26.5452,24.0156 24.5,26.5C 24.7329,24.9382 25.3995,23.6049 26.5,22.5 Z"/></g>
<g><path style="opacity:1" fill="#190901" d="M 32.5,23.5 C 32.5,24.1667 32.8333,24.5 33.5,24.5C 33.6085,26.5138 32.9418,28.1805 31.5,29.5C 26.8897,29.5959 26.5564,30.5959 30.5,32.5C 28.2573,33.4742 25.924,33.8076 23.5,33.5C 23.6741,31.139 24.0074,28.8056 24.5,26.5C 26.5452,24.0156 29.2118,23.0156 32.5,23.5 Z"/></g>
<g><path style="opacity:1" fill="#89390f" d="M 32.5,23.5 C 45.1667,23.5 57.8333,23.5 70.5,23.5C 70.5,24.5 70.5,25.5 70.5,26.5C 70.1667,26.5 69.8333,26.5 69.5,26.5C 66.3601,25.3592 63.0267,25.1925 59.5,26C 57.0688,27.4318 57.0688,28.9318 59.5,30.5C 55.6506,30.4027 51.8173,30.0694 48,29.5C 46.0145,29.4313 44.5145,28.7647 43.5,27.5C 47.0186,28.6256 50.3519,28.1256 53.5,26C 46.8883,24.7896 40.2217,24.2896 33.5,24.5C 32.8333,24.5 32.5,24.1667 32.5,23.5 Z"/></g>
<g><path style="opacity:1" fill="#1a0800" d="M 69.5,26.5 C 68.0582,27.8195 67.3915,29.4862 67.5,31.5C 66.5,31.5 65.5,31.5 64.5,31.5C 63.0813,30.5489 61.4147,30.2155 59.5,30.5C 57.0688,28.9318 57.0688,27.4318 59.5,26C 63.0267,25.1925 66.3601,25.3592 69.5,26.5 Z"/></g>
<g><path style="opacity:1" fill="#a78643" d="M 27.5,10.5 C 25.5455,13.2836 23.0455,15.6169 20,17.5C 19.3333,18.1667 19.3333,18.8333 20,19.5C 20.7083,18.6195 21.5416,17.9528 22.5,17.5C 21.962,19.1172 21.6287,20.7839 21.5,22.5C 20.1667,22.5 18.8333,22.5 17.5,22.5C 17.552,24.9029 17.2186,27.2362 16.5,29.5C 14.8868,29.9443 13.7202,30.9443 13,32.5C 11.9165,38.2937 11.0832,44.1271 10.5,50C 10.5948,53.364 11.2615,56.5306 12.5,59.5C 11.2147,62.0205 10.5481,64.6872 10.5,67.5C 9.5041,67.5858 8.67076,67.2524 8,66.5C 7.02304,64.26 6.52304,61.9267 6.5,59.5C 7.7911,50.6389 8.95776,41.6389 10,32.5C 11.0968,30.9474 12.4301,29.614 14,28.5C 15.6908,23.2498 17.8575,18.2498 20.5,13.5C 22.6415,12.0482 24.9748,11.0482 27.5,10.5 Z"/></g>
<g><path style="opacity:1" fill="#461801" d="M 33.5,24.5 C 40.2217,24.2896 46.8883,24.7896 53.5,26C 50.3519,28.1256 47.0186,28.6256 43.5,27.5C 40.9339,27.6556 38.4339,27.3223 36,26.5C 34.9701,26.8361 34.4701,27.5028 34.5,28.5C 33.609,29.1098 32.609,29.4431 31.5,29.5C 32.9418,28.1805 33.6085,26.5138 33.5,24.5 Z"/></g>
<g><path style="opacity:1" fill="#963204" d="M 43.5,27.5 C 44.5145,28.7647 46.0145,29.4313 48,29.5C 51.8173,30.0694 55.6506,30.4027 59.5,30.5C 61.4147,30.2155 63.0813,30.5489 64.5,31.5C 62.076,31.1924 59.7427,31.5258 57.5,32.5C 60.1667,33.1667 62.8333,33.8333 65.5,34.5C 61.5546,35.4909 57.5546,35.8242 53.5,35.5C 53.1667,35.5 52.8333,35.5 52.5,35.5C 51.9094,34.8485 51.2427,34.1818 50.5,33.5C 50.7093,32.914 51.0426,32.414 51.5,32C 48.0924,32.8468 44.0924,33.1802 39.5,33C 41.0368,31.8904 41.7035,30.3904 41.5,28.5C 39.1667,28.5 36.8333,28.5 34.5,28.5C 34.4701,27.5028 34.9701,26.8361 36,26.5C 38.4339,27.3223 40.9339,27.6556 43.5,27.5 Z"/></g>
<g><path style="opacity:1" fill="#f1a062" d="M 242.5,28.5 C 251.852,28.4343 261.185,28.7676 270.5,29.5C 270.833,29.5 271.167,29.5 271.5,29.5C 271.167,30.1667 270.833,30.8333 270.5,31.5C 270.167,31.5 269.833,31.5 269.5,31.5C 264.881,30.6864 260.214,30.3531 255.5,30.5C 251.167,29.8333 246.833,29.1667 242.5,28.5 Z"/></g>
<g><path style="opacity:1" fill="#5a4c39" d="M 276.5,23.5 C 277.167,23.5 277.833,23.5 278.5,23.5C 278.5,25.8333 278.5,28.1667 278.5,30.5C 276.605,31.973 274.939,33.6397 273.5,35.5C 273.912,33.0274 272.912,31.6941 270.5,31.5C 270.833,30.8333 271.167,30.1667 271.5,29.5C 272.45,26.8851 274.117,24.8851 276.5,23.5 Z"/></g>
<g><path style="opacity:1" fill="#541e04" d="M 31.5,29.5 C 31.4142,30.4959 31.7476,31.3292 32.5,32C 33.8333,32.3333 35.1667,32.6667 36.5,33C 34.9419,33.21 33.6085,33.71 32.5,34.5C 29.2869,34.81 26.2869,34.4767 23.5,33.5C 25.924,33.8076 28.2573,33.4742 30.5,32.5C 26.5564,30.5959 26.8897,29.5959 31.5,29.5 Z"/></g>
<g><path style="opacity:1" fill="#c44d13" d="M 69.5,26.5 C 69.8333,26.5 70.1667,26.5 70.5,26.5C 69.1667,29.8333 67.8333,33.1667 66.5,36.5C 61.9677,36.8182 57.6344,36.4849 53.5,35.5C 57.5546,35.8242 61.5546,35.4909 65.5,34.5C 62.8333,33.8333 60.1667,33.1667 57.5,32.5C 59.7427,31.5258 62.076,31.1924 64.5,31.5C 65.5,31.5 66.5,31.5 67.5,31.5C 67.3915,29.4862 68.0582,27.8195 69.5,26.5 Z"/></g>
<g><path style="opacity:1" fill="#9d3904" d="M 254.5,30.5 C 254.833,30.5 255.167,30.5 255.5,30.5C 260.214,30.3531 264.881,30.6864 269.5,31.5C 268.56,34.7036 266.893,37.3703 264.5,39.5C 260.5,39.5 256.5,39.5 252.5,39.5C 253.01,36.4606 253.677,33.4606 254.5,30.5 Z"/></g>
<g><path style="opacity:1" fill="#af3a05" d="M 34.5,28.5 C 36.8333,28.5 39.1667,28.5 41.5,28.5C 41.7035,30.3904 41.0368,31.8904 39.5,33C 44.0924,33.1802 48.0924,32.8468 51.5,32C 51.0426,32.414 50.7093,32.914 50.5,33.5C 51.2427,34.1818 51.9094,34.8485 52.5,35.5C 50.5,35.5 48.5,35.5 46.5,35.5C 42.03,34.5139 37.3633,34.1805 32.5,34.5C 33.6085,33.71 34.9419,33.21 36.5,33C 35.1667,32.6667 33.8333,32.3333 32.5,32C 31.7476,31.3292 31.4142,30.4959 31.5,29.5C 32.609,29.4431 33.609,29.1098 34.5,28.5 Z"/></g>
<g><path style="opacity:1" fill="#662807" d="M 233.5,29.5 C 237.5,29.8333 241.5,30.1667 245.5,30.5C 243.631,31.1646 241.631,31.8313 239.5,32.5C 240.689,33.4287 242.022,33.762 243.5,33.5C 243.051,35.9775 243.717,37.9775 245.5,39.5C 246.452,37.9547 246.785,36.288 246.5,34.5C 248.199,34.6602 249.866,34.4935 251.5,34C 250.552,33.5172 249.552,33.3505 248.5,33.5C 248.5,32.5 248.5,31.5 248.5,30.5C 250.5,30.5 252.5,30.5 254.5,30.5C 253.677,33.4606 253.01,36.4606 252.5,39.5C 256.5,39.5 260.5,39.5 264.5,39.5C 264.818,44.0323 264.485,48.3656 263.5,52.5C 263.81,49.2869 263.477,46.2869 262.5,43.5C 262.389,42.8826 262.056,42.3826 261.5,42C 255.175,41.5005 248.842,41.3338 242.5,41.5C 241.081,40.5489 239.415,40.2155 237.5,40.5C 241.275,40.3843 242.942,38.3843 242.5,34.5C 240.328,35.8011 237.995,36.8011 235.5,37.5C 235.142,34.7334 234.475,32.0667 233.5,29.5 Z"/></g>
<g><path style="opacity:1" fill="#d76127" d="M 24.5,26.5 C 24.0074,28.8056 23.6741,31.139 23.5,33.5C 26.2869,34.4767 29.2869,34.81 32.5,34.5C 37.3633,34.1805 42.03,34.5139 46.5,35.5C 38.4931,35.6664 30.4931,35.4997 22.5,35C 21.6033,31.8452 22.27,29.0119 24.5,26.5 Z"/></g>
<g><path style="opacity:1" fill="#e8a775" d="M 26.5,22.5 C 25.3995,23.6049 24.7329,24.9382 24.5,26.5C 22.27,29.0119 21.6033,31.8452 22.5,35C 30.4931,35.4997 38.4931,35.6664 46.5,35.5C 48.5,35.5 50.5,35.5 52.5,35.5C 52.8333,35.5 53.1667,35.5 53.5,35.5C 57.6344,36.4849 61.9677,36.8182 66.5,36.5C 52.0099,36.8936 37.3432,36.8936 22.5,36.5C 21.8333,36.1667 21.1667,35.8333 20.5,35.5C 20.605,31.6811 21.4383,28.0145 23,24.5C 23.8159,23.1772 24.9826,22.5106 26.5,22.5 Z"/></g>
<g><path style="opacity:1" fill="#190900" d="M 232.5,29.5 C 232.579,30.9305 232.246,32.2638 231.5,33.5C 233.086,35.1727 233.753,37.1727 233.5,39.5C 231.265,39.2053 229.265,39.5386 227.5,40.5C 226.5,40.5 225.5,40.5 224.5,40.5C 225.648,37.2653 226.815,33.932 228,30.5C 229.356,29.6198 230.856,29.2865 232.5,29.5 Z"/></g>
<g><path style="opacity:1" fill="#451701" d="M 232.5,29.5 C 232.833,29.5 233.167,29.5 233.5,29.5C 234.475,32.0667 235.142,34.7334 235.5,37.5C 237.995,36.8011 240.328,35.8011 242.5,34.5C 242.942,38.3843 241.275,40.3843 237.5,40.5C 234.167,40.5 230.833,40.5 227.5,40.5C 229.265,39.5386 231.265,39.2053 233.5,39.5C 233.753,37.1727 233.086,35.1727 231.5,33.5C 232.246,32.2638 232.579,30.9305 232.5,29.5 Z"/></g>
<g><path style="opacity:1" fill="#842b01" d="M 245.5,30.5 C 246.5,30.5 247.5,30.5 248.5,30.5C 248.5,31.5 248.5,32.5 248.5,33.5C 249.552,33.3505 250.552,33.5172 251.5,34C 249.866,34.4935 248.199,34.6602 246.5,34.5C 246.785,36.288 246.452,37.9547 245.5,39.5C 243.717,37.9775 243.051,35.9775 243.5,33.5C 242.022,33.762 240.689,33.4287 239.5,32.5C 241.631,31.8313 243.631,31.1646 245.5,30.5 Z"/></g>
<g><path style="opacity:0.333" fill="#c3b186" d="M 4.5,31.5 C 4.88934,34.5533 4.22267,37.22 2.5,39.5C 2.29379,36.5049 2.96046,33.8383 4.5,31.5 Z"/></g>
<g><path style="opacity:1" fill="#be5819" d="M 242.5,28.5 C 246.833,29.1667 251.167,29.8333 255.5,30.5C 255.167,30.5 254.833,30.5 254.5,30.5C 252.5,30.5 250.5,30.5 248.5,30.5C 247.5,30.5 246.5,30.5 245.5,30.5C 241.5,30.1667 237.5,29.8333 233.5,29.5C 233.167,29.5 232.833,29.5 232.5,29.5C 230.856,29.2865 229.356,29.6198 228,30.5C 226.815,33.932 225.648,37.2653 224.5,40.5C 225.5,40.5 226.5,40.5 227.5,40.5C 230.833,40.5 234.167,40.5 237.5,40.5C 239.415,40.2155 241.081,40.5489 242.5,41.5C 236.167,41.5 229.833,41.5 223.5,41.5C 223.538,36.9461 224.871,32.7794 227.5,29C 232.489,28.5007 237.489,28.3341 242.5,28.5 Z"/></g>
<g><path style="opacity:1" fill="#d4be92" d="M 16.5,29.5 C 17.2216,29.9175 17.7216,30.5842 18,31.5C 18.3333,31.1667 18.6667,30.8333 19,30.5C 19.1981,32.3817 19.6981,34.0484 20.5,35.5C 21.1667,35.8333 21.8333,36.1667 22.5,36.5C 24.5161,37.588 26.6828,38.588 29,39.5C 41.1287,38.5297 53.2954,38.1963 65.5,38.5C 65.2886,41.6163 64.9553,44.4497 64.5,47C 51.657,47.6718 38.8236,47.5051 26,46.5C 23.0706,46.5248 20.5706,47.1914 18.5,48.5C 15.9015,53.7892 15.9015,59.1225 18.5,64.5C 22.5,65.1667 26.5,65.8333 30.5,66.5C 31.7468,68.0421 31.7468,69.5421 30.5,71C 28.6667,71.1667 26.8333,71.3333 25,71.5C 22.4605,71.0378 20.1271,71.0378 18,71.5C 16.2111,69.771 14.0444,69.1043 11.5,69.5C 11.1667,69.5 10.8333,69.5 10.5,69.5C 10.5,68.8333 10.5,68.1667 10.5,67.5C 10.5481,64.6872 11.2147,62.0205 12.5,59.5C 11.2615,56.5306 10.5948,53.364 10.5,50C 11.0832,44.1271 11.9165,38.2937 13,32.5C 13.7202,30.9443 14.8868,29.9443 16.5,29.5 Z"/></g>
<g><path style="opacity:0.808" fill="#bb977a" d="M 326.5,32.5 C 329.266,37.117 331.266,42.117 332.5,47.5C 329.734,42.883 327.734,37.883 326.5,32.5 Z"/></g>
<g><path style="opacity:1" fill="#e68f51" d="M 223.5,41.5 C 229.833,41.5 236.167,41.5 242.5,41.5C 248.842,41.3338 255.175,41.5005 261.5,42C 262.056,42.3826 262.389,42.8826 262.5,43.5C 249.338,43.0031 236.338,42.3364 223.5,41.5 Z"/></g>
<g><path style="opacity:1" fill="#a2998a" d="M 278.5,30.5 C 278.563,34.4895 276.729,37.1562 273,38.5C 272.616,41.0602 271.783,43.3936 270.5,45.5C 268.489,49.6089 268.156,53.9422 269.5,58.5C 274.955,59.3918 279.288,62.0585 282.5,66.5C 282.157,68.2252 281.157,68.7252 279.5,68C 277.144,63.4889 273.477,60.6556 268.5,59.5C 268.768,61.099 268.434,62.4324 267.5,63.5C 267.197,57.8151 267.03,52.1484 267,46.5C 269.178,42.8057 271.345,39.1391 273.5,35.5C 274.939,33.6397 276.605,31.973 278.5,30.5 Z"/></g>
<g><path style="opacity:1" fill="#dbb782" d="M 270.5,29.5 C 261.185,28.7676 251.852,28.4343 242.5,28.5C 237.489,28.3341 232.489,28.5007 227.5,29C 224.871,32.7794 223.538,36.9461 223.5,41.5C 236.338,42.3364 249.338,43.0031 262.5,43.5C 263.477,46.2869 263.81,49.2869 263.5,52.5C 263.737,53.791 263.404,54.791 262.5,55.5C 249.511,54.8338 236.511,54.5004 223.5,54.5C 222.5,54.5 221.5,54.5 220.5,54.5C 220.5,59.1667 220.5,63.8333 220.5,68.5C 219.833,69.1667 219.167,69.8333 218.5,70.5C 217.555,65.5947 217.221,60.5947 217.5,55.5C 216.325,55.719 215.325,55.3857 214.5,54.5C 215.796,50.9608 217.629,50.6275 220,53.5C 221.929,51.3153 221.429,49.6486 218.5,48.5C 218.985,46.2229 218.319,44.0563 216.5,42C 217.158,40.0955 218.325,38.5955 220,37.5C 220.333,35.8333 220.667,34.1667 221,32.5C 223.445,31.0229 225.612,29.1896 227.5,27C 237.331,26.7286 247.165,26.8953 257,27.5C 261.886,27.5073 266.386,28.1739 270.5,29.5 Z"/></g>
<g><path style="opacity:1" fill="#e69361" d="M 22.5,49.5 C 22.5,49.1667 22.5,48.8333 22.5,48.5C 35.8375,48.3334 49.1708,48.5001 62.5,49C 63.056,49.3826 63.3893,49.8826 63.5,50.5C 50.859,49.6018 38.1924,49.2685 25.5,49.5C 24.5,49.5 23.5,49.5 22.5,49.5 Z"/></g>
<g><path style="opacity:1" fill="#682405" d="M 22.5,49.5 C 23.5,49.5 24.5,49.5 25.5,49.5C 26.4293,50.3149 27.4293,51.1482 28.5,52C 27.944,52.3826 27.6107,52.8826 27.5,53.5C 26.8333,53.5 26.5,53.8333 26.5,54.5C 24.2776,54.178 22.4443,54.8446 21,56.5C 20.8333,55.3333 20.6667,54.1667 20.5,53C 20.6083,51.3189 21.2749,50.1522 22.5,49.5 Z"/></g>
<g><path style="opacity:1" fill="#a93d0b" d="M 25.5,49.5 C 38.1924,49.2685 50.859,49.6018 63.5,50.5C 63.8182,55.0323 63.4849,59.3656 62.5,63.5C 54.1597,63.309 45.8263,62.9756 37.5,62.5C 37.5,62.1667 37.5,61.8333 37.5,61.5C 39.451,61.7733 40.951,61.1066 42,59.5C 43.0495,60.5171 44.2161,60.6838 45.5,60C 46.3279,59.0853 47.3279,58.4186 48.5,58C 47.552,57.5172 46.552,57.3505 45.5,57.5C 45.5,56.5 45.5,55.5 45.5,54.5C 43.3537,54.8782 41.187,55.2115 39,55.5C 35.3898,53.9583 31.5564,53.2916 27.5,53.5C 27.6107,52.8826 27.944,52.3826 28.5,52C 27.4293,51.1482 26.4293,50.3149 25.5,49.5 Z"/></g>
<g><path style="opacity:1" fill="#7d2c06" d="M 54.5,52.5 C 55.8221,52.33 56.9887,52.6634 58,53.5C 58.5288,55.5847 58.0288,57.418 56.5,59C 56.7355,59.8732 57.0688,60.7065 57.5,61.5C 54.8333,62.8333 52.1667,62.8333 49.5,61.5C 52.0938,59.2385 52.0938,57.0719 49.5,55C 51.3146,54.2432 52.9812,53.4098 54.5,52.5 Z"/></g>
<g><path style="opacity:1" fill="#e48f54" d="M 223.5,55.5 C 223.5,55.1667 223.5,54.8333 223.5,54.5C 236.511,54.5004 249.511,54.8338 262.5,55.5C 262.167,56.1667 261.833,56.8333 261.5,57.5C 261.167,57.5 260.833,57.5 260.5,57.5C 257.236,56.6758 253.902,56.3424 250.5,56.5C 241.494,56.2996 232.494,55.9662 223.5,55.5 Z"/></g>
<g><path style="opacity:1" fill="#c94105" d="M 27.5,53.5 C 31.5564,53.2916 35.3898,53.9583 39,55.5C 41.187,55.2115 43.3537,54.8782 45.5,54.5C 45.5,55.5 45.5,56.5 45.5,57.5C 46.552,57.3505 47.552,57.5172 48.5,58C 47.3279,58.4186 46.3279,59.0853 45.5,60C 44.2161,60.6838 43.0495,60.5171 42,59.5C 40.951,61.1066 39.451,61.7733 37.5,61.5C 33.9244,60.5147 30.2577,59.848 26.5,59.5C 26.5,57.8333 26.5,56.1667 26.5,54.5C 26.5,53.8333 26.8333,53.5 27.5,53.5 Z"/></g>
<g><path style="opacity:1" fill="#d7bb89" d="M 174.5,51.5 C 175.937,52.7221 177.437,52.7221 179,51.5C 180.86,53.9154 182.526,53.9154 184,51.5C 184.317,53.3008 184.984,53.6341 186,52.5C 186.219,53.938 186.719,55.2713 187.5,56.5C 190.447,57.4226 193.447,58.0893 196.5,58.5C 196.492,64.2076 196.992,64.5409 198,59.5C 198.413,62.2321 199.08,64.8987 200,67.5C 202.13,63.6113 203.13,63.9446 203,68.5C 201.719,67.3533 201.386,67.6866 202,69.5C 204.167,71 206,72.8333 207.5,75C 209.134,75.4935 210.801,75.6602 212.5,75.5C 212.5,75.8333 212.5,76.1667 212.5,76.5C 209.017,77.0841 206.017,76.2508 203.5,74C 197.322,73.531 191.322,72.3643 185.5,70.5C 185.777,67.5525 185.444,64.7191 184.5,62C 187.193,58.3695 186.526,57.3695 182.5,59C 182.833,59.3333 183.167,59.6667 183.5,60C 181.893,61.049 181.227,62.549 181.5,64.5C 180.167,64.5 178.833,64.5 177.5,64.5C 177.719,63.325 177.386,62.325 176.5,61.5C 176.002,64.5926 175.002,67.4259 173.5,70C 171.674,70.2917 169.841,70.125 168,69.5C 166.301,69.3866 165.134,70.0532 164.5,71.5C 163.778,71.0825 163.278,70.4158 163,69.5C 162.617,70.056 162.117,70.3893 161.5,70.5C 160.216,64.726 158.549,64.3926 156.5,69.5C 155.675,70.3857 154.675,70.719 153.5,70.5C 153.787,75.4949 152.12,76.4949 148.5,73.5C 149.325,72.6143 150.325,72.281 151.5,72.5C 151.5,71.5 151.5,70.5 151.5,69.5C 148.813,69.3359 146.146,69.5026 143.5,70C 144.337,71.0113 144.67,72.1779 144.5,73.5C 139.031,70.8677 133.531,70.8677 128,73.5C 125.566,72.6777 123.066,72.3444 120.5,72.5C 120.542,70.8543 120.542,69.1877 120.5,67.5C 123.077,63.9871 125.244,60.3204 127,56.5C 129.443,57.5933 131.943,58.5933 134.5,59.5C 137.039,58.8847 139.539,58.2181 142,57.5C 143.698,59.2661 145.031,61.2661 146,63.5C 147.529,62.2713 148.696,60.7713 149.5,59C 153.354,58.6438 156.687,57.1438 159.5,54.5C 160.784,55.585 162.284,56.2517 164,56.5C 166.159,55.8834 168.159,55.8834 170,56.5C 173.121,56.2076 174.621,54.5409 174.5,51.5 Z"/></g>
<g><path style="opacity:1" fill="#86370e" d="M 223.5,54.5 C 223.5,54.8333 223.5,55.1667 223.5,55.5C 232.494,55.9662 241.494,56.2996 250.5,56.5C 250.5,56.8333 250.5,57.1667 250.5,57.5C 247.167,57.5 243.833,57.5 240.5,57.5C 240.039,59.9165 238.706,61.7498 236.5,63C 238.125,65.1365 237.792,66.8032 235.5,68C 238.793,68.8256 242.126,69.3256 245.5,69.5C 250.363,69.1805 255.03,69.5139 259.5,70.5C 246.833,70.5 234.167,70.5 221.5,70.5C 221.167,69.8333 220.833,69.1667 220.5,68.5C 220.5,63.8333 220.5,59.1667 220.5,54.5C 221.5,54.5 222.5,54.5 223.5,54.5 Z"/></g>
<g><path style="opacity:1" fill="#ceccc4" d="M 291.5,41.5 C 292.778,41.2178 293.778,40.5511 294.5,39.5C 295.552,39.3505 296.552,39.5172 297.5,40C 299.52,42.3751 301.187,44.8751 302.5,47.5C 302.833,48.5 303.5,49.1667 304.5,49.5C 304.938,51.126 305.272,52.7927 305.5,54.5C 303.819,58.6015 303.152,62.9348 303.5,67.5C 302.167,67.5 300.833,67.5 299.5,67.5C 299.331,69.912 299.997,72.0786 301.5,74C 301.263,77.253 299.929,79.753 297.5,81.5C 296.265,81.7214 295.265,82.3881 294.5,83.5C 292.833,82.1667 291.167,80.8333 289.5,79.5C 288.702,81.0777 288.202,82.7444 288,84.5C 287.329,85.2524 286.496,85.5858 285.5,85.5C 284.5,85.5 283.5,85.5 282.5,85.5C 281.833,85.5 281.167,85.5 280.5,85.5C 282.515,84.0762 284.848,83.4095 287.5,83.5C 287.5,81.8333 287.5,80.1667 287.5,78.5C 290.5,78.5 293.5,78.5 296.5,78.5C 297.158,75.8445 297.825,73.1778 298.5,70.5C 298.21,68.9559 297.544,67.6226 296.5,66.5C 300.607,62.7948 302.94,58.1281 303.5,52.5C 301.152,52.6695 298.818,53.0029 296.5,53.5C 293.991,52.1569 291.324,51.6569 288.5,52C 287.15,53.7183 285.983,55.5516 285,57.5C 283.333,56.5 281.667,55.5 280,54.5C 279.505,52.5273 279.338,50.5273 279.5,48.5C 277.738,48.6427 276.071,48.3094 274.5,47.5C 273.13,50.5621 272.13,53.7287 271.5,57C 274.722,57.3505 277.388,58.6838 279.5,61C 281.607,62.2635 282.607,64.0968 282.5,66.5C 279.288,62.0585 274.955,59.3918 269.5,58.5C 268.156,53.9422 268.489,49.6089 270.5,45.5C 272.639,43.5571 274.972,42.8904 277.5,43.5C 278.711,42.7261 278.711,41.8928 277.5,41C 278.448,40.5172 279.448,40.3505 280.5,40.5C 280.182,45.0323 280.515,49.3656 281.5,53.5C 282.568,54.4345 283.901,54.7678 285.5,54.5C 285.5,52.8333 285.5,51.1667 285.5,49.5C 289.73,47.8487 293.563,48.5153 297,51.5C 297.5,51.1667 298,50.8333 298.5,50.5C 297.316,48.9539 296.316,47.2873 295.5,45.5C 292.897,46.5617 290.23,46.7284 287.5,46C 286.027,45.2904 285.36,44.1238 285.5,42.5C 285.5,40.8333 285.5,39.1667 285.5,37.5C 283.459,37.1459 281.626,37.1459 280,37.5C 279.833,36.6667 279.667,35.8333 279.5,35C 280.709,32.6808 281.542,30.1808 282,27.5C 283.699,26.5939 285.533,26.2606 287.5,26.5C 286.964,29.6646 287.797,32.3312 290,34.5C 290.186,37.0356 290.686,39.369 291.5,41.5 Z"/></g>
<g><path style="opacity:1" fill="#857f74" d="M 285.5,42.5 C 285.36,44.1238 286.027,45.2904 287.5,46C 290.23,46.7284 292.897,46.5617 295.5,45.5C 296.316,47.2873 297.316,48.9539 298.5,50.5C 298,50.8333 297.5,51.1667 297,51.5C 293.563,48.5153 289.73,47.8487 285.5,49.5C 285.5,51.1667 285.5,52.8333 285.5,54.5C 283.901,54.7678 282.568,54.4345 281.5,53.5C 281.331,51.088 281.997,48.9214 283.5,47C 282.394,45.1178 282.394,43.2844 283.5,41.5C 284.183,41.8627 284.85,42.1961 285.5,42.5 Z"/></g>
<g><path style="opacity:1" fill="#2e2717" d="M 8.5,27.5 C 9.37644,27.3691 10.0431,27.7025 10.5,28.5C 9.39064,30.3853 8.55731,32.3853 8,34.5C 6.87728,42.7969 6.37728,51.1302 6.5,59.5C 5.56552,60.5676 5.23219,61.901 5.5,63.5C 4.83072,60.0001 4.66406,56.3334 5,52.5C 4.66667,52.1667 4.33333,51.8333 4,51.5C 3.2917,52.3805 2.45837,53.0472 1.5,53.5C 2.38331,48.8969 2.71664,44.2303 2.5,39.5C 4.22267,37.22 4.88934,34.5533 4.5,31.5C 5.83333,30.1667 7.16667,28.8333 8.5,27.5 Z"/></g>
<g><path style="opacity:1" fill="#d75110" d="M 250.5,57.5 C 250.5,57.1667 250.5,56.8333 250.5,56.5C 253.902,56.3424 257.236,56.6758 260.5,57.5C 260.5,58.8333 260.5,60.1667 260.5,61.5C 257.238,63.9867 253.904,63.9867 250.5,61.5C 250.709,60.914 251.043,60.414 251.5,60C 259.22,58.6058 258.886,57.7724 250.5,57.5 Z"/></g>
<g><path style="opacity:0.598" fill="#bda68d" d="M 333.5,50.5 C 335.467,58.0968 336.134,66.0968 335.5,74.5C 335.371,76.2161 335.038,77.8828 334.5,79.5C 333,80.6252 331.667,81.9586 330.5,83.5C 331.505,80.2791 332.339,76.9457 333,73.5C 333.227,67.2961 333.727,61.1294 334.5,55C 333.852,53.5603 333.519,52.0603 333.5,50.5 Z"/></g>
<g><path style="opacity:1" fill="#84360e" d="M 19.5,48.5 C 20.5,48.5 21.5,48.5 22.5,48.5C 22.5,48.8333 22.5,49.1667 22.5,49.5C 21.2749,50.1522 20.6083,51.3189 20.5,53C 20.6667,54.1667 20.8333,55.3333 21,56.5C 22.4443,54.8446 24.2776,54.178 26.5,54.5C 26.5,56.1667 26.5,57.8333 26.5,59.5C 30.2577,59.848 33.9244,60.5147 37.5,61.5C 37.5,61.8333 37.5,62.1667 37.5,62.5C 31.8236,62.6661 26.1569,62.4994 20.5,62C 19.5333,57.5986 19.2,53.0986 19.5,48.5 Z"/></g>
<g><path style="opacity:0.333" fill="#b09f7a" d="M 2.5,39.5 C 2.71664,44.2303 2.38331,48.8969 1.5,53.5C 1.18178,58.0323 1.51511,62.3656 2.5,66.5C 2.5,70.1667 2.5,73.8333 2.5,77.5C 1.0447,71.9104 0.0447045,66.2438 -0.5,60.5C -0.5,59.1667 -0.5,57.8333 -0.5,56.5C 0.116792,50.7725 1.11679,45.1058 2.5,39.5 Z"/></g>
<g><path style="opacity:1" fill="#19150d" d="M 5.5,63.5 C 5.5,64.8333 5.5,66.1667 5.5,67.5C 5.7989,69.604 5.46557,71.604 4.5,73.5C 3.83195,71.0312 3.16528,68.6979 2.5,66.5C 1.51511,62.3656 1.18178,58.0323 1.5,53.5C 2.45837,53.0472 3.2917,52.3805 4,51.5C 4.33333,51.8333 4.66667,52.1667 5,52.5C 4.66406,56.3334 4.83072,60.0001 5.5,63.5 Z"/></g>
<g><path style="opacity:1" fill="#d68953" d="M 18.5,48.5 C 18.8333,48.5 19.1667,48.5 19.5,48.5C 19.2,53.0986 19.5333,57.5986 20.5,62C 26.1569,62.4994 31.8236,62.6661 37.5,62.5C 45.8263,62.9756 54.1597,63.309 62.5,63.5C 59.0381,64.4816 55.3714,64.815 51.5,64.5C 46.1667,64.1667 40.8333,63.8333 35.5,63.5C 30.1563,63.666 24.8229,63.4994 19.5,63C 18.5308,58.2633 18.1975,53.43 18.5,48.5 Z"/></g>
<g><path style="opacity:1" fill="#341405" d="M 223.5,55.5 C 224.568,56.4345 225.901,56.7678 227.5,56.5C 227.5,58.1667 227.5,59.8333 227.5,61.5C 225.897,61.3118 224.563,61.8118 223.5,63C 224.955,65.0162 226.955,65.8495 229.5,65.5C 229.5,66.5 229.5,67.5 229.5,68.5C 226.833,68.5 224.167,68.5 221.5,68.5C 220.903,63.706 221.57,59.3727 223.5,55.5 Z"/></g>
<g><path style="opacity:1" fill="#511d06" d="M 250.5,57.5 C 250.53,58.4972 250.03,59.1639 249,59.5C 247.527,59.9031 246.194,60.5697 245,61.5C 243.844,60.0072 243.01,60.1739 242.5,62C 243.371,63.3638 244.371,64.5305 245.5,65.5C 246.833,66.8333 246.833,68.1667 245.5,69.5C 242.126,69.3256 238.793,68.8256 235.5,68C 237.792,66.8032 238.125,65.1365 236.5,63C 238.706,61.7498 240.039,59.9165 240.5,57.5C 243.833,57.5 247.167,57.5 250.5,57.5 Z"/></g>
<g><path style="opacity:1" fill="#bbb7ad" d="M 310.5,34.5 C 311.167,34.5 311.5,34.8333 311.5,35.5C 311.46,38.4245 312.293,41.0912 314,43.5C 314.742,55.5291 314.409,67.5291 313,79.5C 312.434,81.7226 311.6,83.7226 310.5,85.5C 310.762,84.0222 310.429,82.6888 309.5,81.5C 308.459,83.9913 307.626,83.9913 307,81.5C 308.184,87.8042 305.684,90.8042 299.5,90.5C 299.71,87.248 299.044,84.248 297.5,81.5C 299.929,79.753 301.263,77.253 301.5,74C 299.997,72.0786 299.331,69.912 299.5,67.5C 300.833,67.5 302.167,67.5 303.5,67.5C 303.152,62.9348 303.819,58.6015 305.5,54.5C 305.272,52.7927 304.938,51.126 304.5,49.5C 305.67,51.2785 307.336,52.2785 309.5,52.5C 309.59,49.8478 308.924,47.5145 307.5,45.5C 306.768,41.8243 304.768,40.8243 301.5,42.5C 301.863,43.1835 302.196,43.8501 302.5,44.5C 302.5,45.5 302.5,46.5 302.5,47.5C 301.187,44.8751 299.52,42.3751 297.5,40C 296.552,39.5172 295.552,39.3505 294.5,39.5C 295.999,36.9925 295.332,35.8259 292.5,36C 291.594,37.6995 291.261,39.5328 291.5,41.5C 290.686,39.369 290.186,37.0356 290,34.5C 287.797,32.3312 286.964,29.6646 287.5,26.5C 285.533,26.2606 283.699,26.5939 282,27.5C 281.542,30.1808 280.709,32.6808 279.5,35C 279.667,35.8333 279.833,36.6667 280,37.5C 281.626,37.1459 283.459,37.1459 285.5,37.5C 285.5,39.1667 285.5,40.8333 285.5,42.5C 284.85,42.1961 284.183,41.8627 283.5,41.5C 282.394,43.2844 282.394,45.1178 283.5,47C 281.997,48.9214 281.331,51.088 281.5,53.5C 280.515,49.3656 280.182,45.0323 280.5,40.5C 279.448,40.3505 278.448,40.5172 277.5,41C 278.711,41.8928 278.711,42.7261 277.5,43.5C 274.972,42.8904 272.639,43.5571 270.5,45.5C 271.783,43.3936 272.616,41.0602 273,38.5C 276.729,37.1562 278.563,34.4895 278.5,30.5C 278.5,28.1667 278.5,25.8333 278.5,23.5C 279.167,22.8333 279.833,22.1667 280.5,21.5C 281.756,19.6561 283.423,18.3228 285.5,17.5C 287.38,17.9252 288.88,18.9252 290,20.5C 292.521,19.3267 295.021,19.3267 297.5,20.5C 302.296,24.7769 306.629,29.4435 310.5,34.5 Z"/></g>
<g><path style="opacity:1" fill="#6d695e" d="M 302.5,44.5 C 303.885,45.6138 305.385,46.6138 307,47.5C 307.464,46.9056 307.631,46.2389 307.5,45.5C 308.924,47.5145 309.59,49.8478 309.5,52.5C 307.336,52.2785 305.67,51.2785 304.5,49.5C 303.5,49.1667 302.833,48.5 302.5,47.5C 302.5,46.5 302.5,45.5 302.5,44.5 Z"/></g>
<g><path style="opacity:1" fill="#171614" d="M 307.5,45.5 C 307.631,46.2389 307.464,46.9056 307,47.5C 305.385,46.6138 303.885,45.6138 302.5,44.5C 302.196,43.8501 301.863,43.1835 301.5,42.5C 304.768,40.8243 306.768,41.8243 307.5,45.5 Z"/></g>
<g><path style="opacity:1" fill="#161513" d="M 294.5,39.5 C 293.778,40.5511 292.778,41.2178 291.5,41.5C 291.261,39.5328 291.594,37.6995 292.5,36C 295.332,35.8259 295.999,36.9925 294.5,39.5 Z"/></g>
<g><path style="opacity:1" fill="#90360a" d="M 250.5,57.5 C 258.886,57.7724 259.22,58.6058 251.5,60C 251.043,60.414 250.709,60.914 250.5,61.5C 253.904,63.9867 257.238,63.9867 260.5,61.5C 260.808,63.924 260.474,66.2573 259.5,68.5C 258.784,67.689 257.95,67.0223 257,66.5C 254.991,66.9949 252.824,66.9949 250.5,66.5C 250.5,65.5 250.5,64.5 250.5,63.5C 248.678,63.8308 247.011,64.4975 245.5,65.5C 244.371,64.5305 243.371,63.3638 242.5,62C 243.01,60.1739 243.844,60.0072 245,61.5C 246.194,60.5697 247.527,59.9031 249,59.5C 250.03,59.1639 250.53,58.4972 250.5,57.5 Z"/></g>
<g><path style="opacity:1" fill="#6b2b0c" d="M 260.5,57.5 C 260.833,57.5 261.167,57.5 261.5,57.5C 261.5,62.1667 261.5,66.8333 261.5,71.5C 260.833,71.1667 260.167,70.8333 259.5,70.5C 255.03,69.5139 250.363,69.1805 245.5,69.5C 246.833,68.1667 246.833,66.8333 245.5,65.5C 247.011,64.4975 248.678,63.8308 250.5,63.5C 250.5,64.5 250.5,65.5 250.5,66.5C 252.824,66.9949 254.991,66.9949 257,66.5C 257.95,67.0223 258.784,67.689 259.5,68.5C 260.474,66.2573 260.808,63.924 260.5,61.5C 260.5,60.1667 260.5,58.8333 260.5,57.5 Z"/></g>
<g><path style="opacity:1" fill="#1b1a18" d="M 308.5,69.5 C 308.5,70.8333 308.5,72.1667 308.5,73.5C 306.517,73.8432 305.183,73.1765 304.5,71.5C 305.226,68.9873 306.559,68.3207 308.5,69.5 Z"/></g>
<g><path style="opacity:1" fill="#d29c65" d="M 221.5,70.5 C 234.167,70.5 246.833,70.5 259.5,70.5C 260.167,70.8333 260.833,71.1667 261.5,71.5C 262.338,71.8417 262.672,72.5084 262.5,73.5C 248.73,72.5928 235.064,71.5928 221.5,70.5 Z"/></g>
<g><path style="opacity:1" fill="#cba77c" d="M 18.5,48.5 C 18.1975,53.43 18.5308,58.2633 19.5,63C 24.8229,63.4994 30.1563,63.666 35.5,63.5C 35.5,65.5 35.5,67.5 35.5,69.5C 42.9341,70.6779 50.2674,71.6779 57.5,72.5C 44.7982,72.2081 32.1315,72.7081 19.5,74C 18.8778,75.5691 18.5445,77.2358 18.5,79C 18.336,81.5437 19.0027,83.7103 20.5,85.5C 23.0545,86.388 25.7212,86.7214 28.5,86.5C 30.1667,86.5 31.8333,86.5 33.5,86.5C 44.6688,87.2966 55.6688,87.2966 66.5,86.5C 68.1765,85.8166 68.8432,84.4832 68.5,82.5C 69.4614,84.2646 69.7947,86.2646 69.5,88.5C 53.542,88.5587 37.7086,88.5587 22,88.5C 21.7613,89.788 22.2613,90.788 23.5,91.5C 20.4775,91.8948 19.4775,90.8948 20.5,88.5C 19.6721,87.5853 18.6721,86.9186 17.5,86.5C 16.1805,80.542 14.1805,74.8753 11.5,69.5C 14.0444,69.1043 16.2111,69.771 18,71.5C 20.1271,71.0378 22.4605,71.0378 25,71.5C 26.8333,71.3333 28.6667,71.1667 30.5,71C 31.7468,69.5421 31.7468,68.0421 30.5,66.5C 26.5,65.8333 22.5,65.1667 18.5,64.5C 15.9015,59.1225 15.9015,53.7892 18.5,48.5 Z"/></g>
<g><path style="opacity:1" fill="#dbd9d1" d="M 280.5,85.5 C 278.801,85.6602 277.134,85.4935 275.5,85C 274.941,84.2753 274.608,83.4419 274.5,82.5C 275.584,79.912 277.251,77.7454 279.5,76C 278.144,74.4329 277.477,72.5996 277.5,70.5C 280.475,70.3069 282.975,71.3069 285,73.5C 286.087,70.3861 285.254,68.0528 282.5,66.5C 282.607,64.0968 281.607,62.2635 279.5,61C 277.388,58.6838 274.722,57.3505 271.5,57C 272.13,53.7287 273.13,50.5621 274.5,47.5C 276.071,48.3094 277.738,48.6427 279.5,48.5C 279.338,50.5273 279.505,52.5273 280,54.5C 281.667,55.5 283.333,56.5 285,57.5C 285.983,55.5516 287.15,53.7183 288.5,52C 291.324,51.6569 293.991,52.1569 296.5,53.5C 298.818,53.0029 301.152,52.6695 303.5,52.5C 302.94,58.1281 300.607,62.7948 296.5,66.5C 297.544,67.6226 298.21,68.9559 298.5,70.5C 297.825,73.1778 297.158,75.8445 296.5,78.5C 293.5,78.5 290.5,78.5 287.5,78.5C 287.5,80.1667 287.5,81.8333 287.5,83.5C 284.848,83.4095 282.515,84.0762 280.5,85.5 Z"/></g>
<g><path style="opacity:1" fill="#d99060" d="M 57.5,72.5 C 60.431,73.0075 63.0977,74.0075 65.5,75.5C 56.8616,74.6602 48.195,74.3268 39.5,74.5C 33.642,74.1778 27.9753,74.5111 22.5,75.5C 21.5,75.5 20.5,75.5 19.5,75.5C 20.2071,78.7861 20.5405,82.1194 20.5,85.5C 19.0027,83.7103 18.336,81.5437 18.5,79C 18.5445,77.2358 18.8778,75.5691 19.5,74C 32.1315,72.7081 44.7982,72.2081 57.5,72.5 Z"/></g>
<g><path style="opacity:1" fill="#bc440f" d="M 22.5,75.5 C 27.9753,74.5111 33.642,74.1778 39.5,74.5C 40.9355,76.083 42.6022,77.583 44.5,79C 39.7401,81.7929 36.5734,80.6262 35,75.5C 33.9783,76.354 33.1449,77.354 32.5,78.5C 33.3928,81.0841 33.7261,83.7508 33.5,86.5C 31.8333,86.5 30.1667,86.5 28.5,86.5C 28.5,85.5 28.5,84.5 28.5,83.5C 24.8284,83.8174 23.1617,82.1507 23.5,78.5C 25.5,78.8333 27.5,79.1667 29.5,79.5C 29.67,78.1779 29.3366,77.0113 28.5,76C 26.5273,75.5045 24.5273,75.3379 22.5,75.5 Z"/></g>
<g><path style="opacity:1" fill="#625d52" d="M 308.5,69.5 C 310.686,74.6243 309.353,78.6243 304.5,81.5C 303.646,80.0521 302.646,78.7187 301.5,77.5C 302.801,75.556 303.801,73.556 304.5,71.5C 305.183,73.1765 306.517,73.8432 308.5,73.5C 308.5,72.1667 308.5,70.8333 308.5,69.5 Z"/></g>
<g><path style="opacity:1" fill="#b8985f" d="M 212.5,76.5 C 213.5,76.5 214.5,76.5 215.5,76.5C 215.528,79.2514 216.528,81.5847 218.5,83.5C 217.833,84.8333 216.833,85.8333 215.5,86.5C 214.935,84.4904 213.935,82.8237 212.5,81.5C 211.289,82.2739 211.289,83.1072 212.5,84C 210.919,84.7065 209.419,85.5399 208,86.5C 206.62,83.352 204.12,81.852 200.5,82C 201.997,78.8283 200.997,76.995 197.5,76.5C 197.702,78.9892 197.202,81.3225 196,83.5C 195.014,84.1712 193.847,84.1712 192.5,83.5C 191.763,81.6954 190.763,80.0287 189.5,78.5C 188.833,78.8333 188.167,79.1667 187.5,79.5C 185.338,77.9802 183.005,76.9802 180.5,76.5C 181.031,79.7794 183.031,81.1128 186.5,80.5C 187.057,82.9491 187.057,85.2825 186.5,87.5C 184.273,86.9475 181.939,86.9475 179.5,87.5C 179.5,85.1667 179.5,82.8333 179.5,80.5C 178.167,80.5 176.833,80.5 175.5,80.5C 175.33,79.1779 175.663,78.0113 176.5,77C 174.552,73.8821 172.719,74.0487 171,77.5C 169.259,75.5457 167.092,74.5457 164.5,74.5C 164.5,73.5 164.5,72.5 164.5,71.5C 165.134,70.0532 166.301,69.3866 168,69.5C 169.841,70.125 171.674,70.2917 173.5,70C 175.002,67.4259 176.002,64.5926 176.5,61.5C 177.386,62.325 177.719,63.325 177.5,64.5C 178.833,64.5 180.167,64.5 181.5,64.5C 181.227,62.549 181.893,61.049 183.5,60C 183.167,59.6667 182.833,59.3333 182.5,59C 186.526,57.3695 187.193,58.3695 184.5,62C 185.444,64.7191 185.777,67.5525 185.5,70.5C 191.322,72.3643 197.322,73.531 203.5,74C 206.017,76.2508 209.017,77.0841 212.5,76.5 Z"/></g>
<g><path style="opacity:1" fill="#544c3a" d="M 267.5,75.5 C 268.612,77.5994 269.279,79.9327 269.5,82.5C 268.883,82.3893 268.383,82.056 268,81.5C 267.505,79.5273 267.338,77.5273 267.5,75.5 Z"/></g>
<g><path style="opacity:1" fill="#42331e" d="M 326.5,64.5 C 327.458,64.9528 328.292,65.6195 329,66.5C 329.296,69.7058 329.796,72.8725 330.5,76C 328.899,79.1066 326.565,81.2733 323.5,82.5C 323.383,80.5165 324.05,78.8498 325.5,77.5C 326.492,73.2172 326.826,68.8839 326.5,64.5 Z"/></g>
<g><path style="opacity:1" fill="#a9400f" d="M 39.5,74.5 C 48.195,74.3268 56.8616,74.6602 65.5,75.5C 66.1098,76.391 66.4431,77.391 66.5,78.5C 64.1643,76.6093 61.4976,76.1093 58.5,77C 57.6634,78.0113 57.33,79.1779 57.5,80.5C 59.8695,80.1489 62.2028,79.9822 64.5,80C 65.1172,82.277 65.7839,84.4437 66.5,86.5C 55.6688,87.2966 44.6688,87.2966 33.5,86.5C 33.7261,83.7508 33.3928,81.0841 32.5,78.5C 33.1449,77.354 33.9783,76.354 35,75.5C 36.5734,80.6262 39.7401,81.7929 44.5,79C 42.6022,77.583 40.9355,76.083 39.5,74.5 Z"/></g>
<g><path style="opacity:1" fill="#883f16" d="M 66.5,78.5 C 67.3446,79.6715 68.0113,81.0048 68.5,82.5C 68.8432,84.4832 68.1765,85.8166 66.5,86.5C 65.7839,84.4437 65.1172,82.277 64.5,80C 62.2028,79.9822 59.8695,80.1489 57.5,80.5C 57.33,79.1779 57.6634,78.0113 58.5,77C 61.4976,76.1093 64.1643,76.6093 66.5,78.5 Z"/></g>
<g><path style="opacity:1" fill="#c2a87b" d="M 220.5,68.5 C 220.833,69.1667 221.167,69.8333 221.5,70.5C 235.064,71.5928 248.73,72.5928 262.5,73.5C 263.473,75.9479 263.806,78.6146 263.5,81.5C 250.34,82.331 237.006,82.831 223.5,83C 222.374,86.7436 222.207,90.577 223,94.5C 224.214,96.0488 225.714,97.2155 227.5,98C 239.829,98.4999 252.162,98.6665 264.5,98.5C 266.167,98.5 267.833,98.5 269.5,98.5C 271.588,100.336 272.921,102.669 273.5,105.5C 273.5,105.833 273.5,106.167 273.5,106.5C 260.003,105.476 246.67,105.476 233.5,106.5C 225.768,107.364 219.601,104.697 215,98.5C 214.667,100.167 214.333,101.833 214,103.5C 210.047,104.959 206.547,104.126 203.5,101C 200.854,100.503 198.187,100.336 195.5,100.5C 195.5,101.833 195.5,103.167 195.5,104.5C 193.801,104.66 192.134,104.494 190.5,104C 189.77,101.846 189.103,99.6794 188.5,97.5C 187.232,96.213 187.565,95.213 189.5,94.5C 189.5,91.2528 189.333,87.9195 189,84.5C 190.011,83.6634 191.178,83.33 192.5,83.5C 193.847,84.1712 195.014,84.1712 196,83.5C 197.202,81.3225 197.702,78.9892 197.5,76.5C 200.997,76.995 201.997,78.8283 200.5,82C 204.12,81.852 206.62,83.352 208,86.5C 209.419,85.5399 210.919,84.7065 212.5,84C 211.289,83.1072 211.289,82.2739 212.5,81.5C 213.935,82.8237 214.935,84.4904 215.5,86.5C 216.833,85.8333 217.833,84.8333 218.5,83.5C 216.528,81.5847 215.528,79.2514 215.5,76.5C 214.5,76.5 213.5,76.5 212.5,76.5C 212.5,76.1667 212.5,75.8333 212.5,75.5C 216.56,76.1518 218.56,74.4851 218.5,70.5C 219.167,69.8333 219.833,69.1667 220.5,68.5 Z"/></g>
<g><path style="opacity:1" fill="#999891" d="M 311.5,35.5 C 312.976,37.7686 314.476,40.1019 316,42.5C 318.83,54.7687 319.164,67.1021 317,79.5C 314.35,89.8219 308.85,98.3219 300.5,105C 295.742,107.144 290.742,107.977 285.5,107.5C 285.5,107.167 285.5,106.833 285.5,106.5C 288.5,106.5 291.5,106.5 294.5,106.5C 294.5,105.167 294.5,103.833 294.5,102.5C 299.453,102.638 303.287,100.638 306,96.5C 306.634,92.419 308.134,88.7523 310.5,85.5C 311.6,83.7226 312.434,81.7226 313,79.5C 314.409,67.5291 314.742,55.5291 314,43.5C 312.293,41.0912 311.46,38.4245 311.5,35.5 Z"/></g>
<g><path style="opacity:1" fill="#78320f" d="M 22.5,75.5 C 24.5273,75.3379 26.5273,75.5045 28.5,76C 29.3366,77.0113 29.67,78.1779 29.5,79.5C 27.5,79.1667 25.5,78.8333 23.5,78.5C 23.1617,82.1507 24.8284,83.8174 28.5,83.5C 28.5,84.5 28.5,85.5 28.5,86.5C 25.7212,86.7214 23.0545,86.388 20.5,85.5C 20.5405,82.1194 20.2071,78.7861 19.5,75.5C 20.5,75.5 21.5,75.5 22.5,75.5 Z"/></g>
<g><path style="opacity:1" fill="#d57f49" d="M 230.5,83.5 C 241.848,83.4451 253.181,83.7784 264.5,84.5C 264.5,84.8333 264.5,85.1667 264.5,85.5C 260.65,85.7556 256.65,85.7556 252.5,85.5C 252.167,85.5 251.833,85.5 251.5,85.5C 246.36,84.5119 241.026,84.1786 235.5,84.5C 233.585,84.7845 231.919,84.4511 230.5,83.5 Z"/></g>
<g><path style="opacity:1" fill="#b69a63" d="M 161.5,70.5 C 161.5,71.5 161.5,72.5 161.5,73.5C 160.127,73.3433 158.793,73.51 157.5,74C 158.67,75.7547 160.337,76.7547 162.5,77C 161.707,78.0852 161.04,79.2519 160.5,80.5C 162.766,81.3142 165.1,81.8142 167.5,82C 169.223,82.5232 170.556,83.5232 171.5,85C 171.167,85.5 170.833,86 170.5,86.5C 169.377,85.4563 168.044,84.7896 166.5,84.5C 164.662,85.1123 162.995,85.1123 161.5,84.5C 159.869,86.0588 159.036,88.0588 159,90.5C 157.989,89.6634 156.822,89.33 155.5,89.5C 155.884,87.3352 155.217,85.6685 153.5,84.5C 151.849,86.5994 149.682,87.9328 147,88.5C 146.5,88.1667 146,87.8333 145.5,87.5C 146.987,82.8017 145.153,80.4684 140,80.5C 134.737,79.9309 132.237,82.2642 132.5,87.5C 138.853,87.8192 139.02,89.1525 133,91.5C 131.989,90.6634 130.822,90.33 129.5,90.5C 130.167,87.1667 130.833,83.8333 131.5,80.5C 129.712,80.2148 128.045,80.5481 126.5,81.5C 128.027,83.3304 127.527,84.3304 125,84.5C 123.175,84.0566 121.342,83.7233 119.5,83.5C 119.643,81.7376 119.309,80.0709 118.5,78.5C 116.257,77.5258 113.924,77.1924 111.5,77.5C 111.917,82.0685 109.917,83.5685 105.5,82C 106.022,81.4387 106.355,80.772 106.5,80C 104.019,72.904 102.019,72.904 100.5,80C 98.3415,80.912 96.1748,81.7454 94,82.5C 92.7241,85.3663 92.5574,88.1997 93.5,91C 95.3289,91.2735 96.8289,92.1068 98,93.5C 98.7614,89.7493 99.9281,89.5826 101.5,93C 101.167,93.3333 100.833,93.6667 100.5,94C 102.873,96.7743 105.207,96.9409 107.5,94.5C 106.687,93.1861 105.687,92.0195 104.5,91C 105.068,89.3964 106.068,88.7297 107.5,89C 108.536,92.901 110.202,96.401 112.5,99.5C 110.958,98.6993 109.292,98.366 107.5,98.5C 107.567,99.9587 107.234,101.292 106.5,102.5C 103.011,102.863 99.511,103.196 96,103.5C 93.6209,103.346 91.4542,102.68 89.5,101.5C 87.0816,105.339 85.4149,104.839 84.5,100C 82.5273,99.5045 80.5273,99.3379 78.5,99.5C 78.1667,98.8333 77.8333,98.1667 77.5,97.5C 80.7877,97.927 83.7877,97.2603 86.5,95.5C 87.1667,96.5 87.8333,97.5 88.5,98.5C 89.2164,97.689 90.0497,97.0223 91,96.5C 93.4369,97.6542 95.9369,98.1542 98.5,98C 97.1941,94.8609 94.8607,93.0276 91.5,92.5C 91.0234,91.069 90.3567,89.7357 89.5,88.5C 86.2573,89.0148 83.4239,90.3481 81,92.5C 80.5,92 80,91.5 79.5,91C 80.523,88.2258 80.523,85.3925 79.5,82.5C 80.5,82.5 81.5,82.5 82.5,82.5C 82.5,83.8333 82.5,85.1667 82.5,86.5C 83.5,86.5 84.5,86.5 85.5,86.5C 85.5,85.1667 85.5,83.8333 85.5,82.5C 87.5753,82.6984 89.5753,82.8651 91.5,83C 91.1667,82.6667 90.8333,82.3333 90.5,82C 92.019,80.6487 93.3523,79.1487 94.5,77.5C 91.5662,76.2014 89.0662,76.8681 87,79.5C 86.1529,77.1457 85.3195,74.8123 84.5,72.5C 96.5275,73.1612 108.527,73.1612 120.5,72.5C 123.066,72.3444 125.566,72.6777 128,73.5C 133.531,70.8677 139.031,70.8677 144.5,73.5C 144.67,72.1779 144.337,71.0113 143.5,70C 146.146,69.5026 148.813,69.3359 151.5,69.5C 151.5,70.5 151.5,71.5 151.5,72.5C 150.325,72.281 149.325,72.6143 148.5,73.5C 152.12,76.4949 153.787,75.4949 153.5,70.5C 154.675,70.719 155.675,70.3857 156.5,69.5C 158.549,64.3926 160.216,64.726 161.5,70.5 Z"/></g>
<g><path style="opacity:1" fill="#783111" d="M 235.5,84.5 C 241.026,84.1786 246.36,84.5119 251.5,85.5C 250.022,85.238 248.689,85.5713 247.5,86.5C 246.359,87.4255 246.359,88.2588 247.5,89C 245.699,89.3173 245.366,89.984 246.5,91C 244.905,90.3829 243.572,90.7163 242.5,92C 243.337,93.0113 243.67,94.1779 243.5,95.5C 240.833,95.5 238.167,95.5 235.5,95.5C 242.77,95.1017 243.104,93.6017 236.5,91C 235.549,90.2825 235.383,89.4491 236,88.5C 238.8,87.8747 241.634,87.208 244.5,86.5C 241.358,85.8326 238.358,85.166 235.5,84.5 Z"/></g>
<g><path style="opacity:0.224" fill="#cfbea5" d="M 3.5,82.5 C 5.74808,85.328 7.74808,88.328 9.5,91.5C 9.5,92.5 9.5,93.5 9.5,94.5C 6.99222,90.8178 4.99222,86.8178 3.5,82.5 Z"/></g>
<g><path style="opacity:1" fill="#491f0b" d="M 227.5,83.5 C 228.5,83.5 229.5,83.5 230.5,83.5C 231.919,84.4511 233.585,84.7845 235.5,84.5C 238.358,85.166 241.358,85.8326 244.5,86.5C 241.634,87.208 238.8,87.8747 236,88.5C 235.383,89.4491 235.549,90.2825 236.5,91C 243.104,93.6017 242.77,95.1017 235.5,95.5C 232.833,95.5 230.167,95.5 227.5,95.5C 227.5,94.8333 227.5,94.1667 227.5,93.5C 229.717,94.3686 232.05,94.702 234.5,94.5C 234.5,93.5 234.5,92.5 234.5,91.5C 230.299,91.5742 228.965,89.7409 230.5,86C 229.429,85.1482 228.429,84.3149 227.5,83.5 Z"/></g>
<g><path style="opacity:1" fill="#6d3113" d="M 252.5,85.5 C 256.65,85.7556 260.65,85.7556 264.5,85.5C 265.699,89.0986 266.699,92.7653 267.5,96.5C 259.981,96.825 252.648,96.4916 245.5,95.5C 248.85,95.665 252.183,95.4983 255.5,95C 254.584,94.7216 253.918,94.2216 253.5,93.5C 256.833,93.5001 259.5,92.1668 261.5,89.5C 260.758,88.7132 259.925,88.0465 259,87.5C 257.246,89.25 255.079,89.9167 252.5,89.5C 252.5,88.1667 252.5,86.8333 252.5,85.5 Z"/></g>
<g><path style="opacity:1" fill="#c6ab7b" d="M 164.5,71.5 C 164.5,72.5 164.5,73.5 164.5,74.5C 167.092,74.5457 169.259,75.5457 171,77.5C 172.719,74.0487 174.552,73.8821 176.5,77C 175.663,78.0113 175.33,79.1779 175.5,80.5C 176.833,80.5 178.167,80.5 179.5,80.5C 179.5,82.8333 179.5,85.1667 179.5,87.5C 181.939,86.9475 184.273,86.9475 186.5,87.5C 187.057,85.2825 187.057,82.9491 186.5,80.5C 183.031,81.1128 181.031,79.7794 180.5,76.5C 183.005,76.9802 185.338,77.9802 187.5,79.5C 188.167,79.1667 188.833,78.8333 189.5,78.5C 190.763,80.0287 191.763,81.6954 192.5,83.5C 191.178,83.33 190.011,83.6634 189,84.5C 189.333,87.9195 189.5,91.2528 189.5,94.5C 187.565,95.213 187.232,96.213 188.5,97.5C 187.094,97.9731 186.427,98.9731 186.5,100.5C 186.5,101.167 186.167,101.5 185.5,101.5C 182.78,100.058 179.946,98.7246 177,97.5C 175.715,97.9504 174.548,98.6171 173.5,99.5C 172.264,98.7542 170.93,98.4208 169.5,98.5C 169.5,99.5 169.5,100.5 169.5,101.5C 161.634,102.044 153.801,102.044 146,101.5C 144.5,101.167 143,100.833 141.5,100.5C 140.572,94.6969 138.572,94.1969 135.5,99C 131.312,99.1762 127.312,99.6762 123.5,100.5C 123.083,101.124 122.416,101.457 121.5,101.5C 118.326,101.009 115.326,100.343 112.5,99.5C 110.202,96.401 108.536,92.901 107.5,89C 106.068,88.7297 105.068,89.3964 104.5,91C 105.687,92.0195 106.687,93.1861 107.5,94.5C 105.207,96.9409 102.873,96.7743 100.5,94C 100.833,93.6667 101.167,93.3333 101.5,93C 99.9281,89.5826 98.7614,89.7493 98,93.5C 96.8289,92.1068 95.3289,91.2735 93.5,91C 92.5574,88.1997 92.7241,85.3663 94,82.5C 96.1748,81.7454 98.3415,80.912 100.5,80C 102.019,72.904 104.019,72.904 106.5,80C 106.355,80.772 106.022,81.4387 105.5,82C 109.917,83.5685 111.917,82.0685 111.5,77.5C 113.924,77.1924 116.257,77.5258 118.5,78.5C 119.309,80.0709 119.643,81.7376 119.5,83.5C 121.342,83.7233 123.175,84.0566 125,84.5C 127.527,84.3304 128.027,83.3304 126.5,81.5C 128.045,80.5481 129.712,80.2148 131.5,80.5C 130.833,83.8333 130.167,87.1667 129.5,90.5C 130.822,90.33 131.989,90.6634 133,91.5C 139.02,89.1525 138.853,87.8192 132.5,87.5C 132.237,82.2642 134.737,79.9309 140,80.5C 145.153,80.4684 146.987,82.8017 145.5,87.5C 146,87.8333 146.5,88.1667 147,88.5C 149.682,87.9328 151.849,86.5994 153.5,84.5C 155.217,85.6685 155.884,87.3352 155.5,89.5C 156.822,89.33 157.989,89.6634 159,90.5C 159.036,88.0588 159.869,86.0588 161.5,84.5C 162.995,85.1123 164.662,85.1123 166.5,84.5C 168.044,84.7896 169.377,85.4563 170.5,86.5C 170.833,86 171.167,85.5 171.5,85C 170.556,83.5232 169.223,82.5232 167.5,82C 165.1,81.8142 162.766,81.3142 160.5,80.5C 161.04,79.2519 161.707,78.0852 162.5,77C 160.337,76.7547 158.67,75.7547 157.5,74C 158.793,73.51 160.127,73.3433 161.5,73.5C 161.5,72.5 161.5,71.5 161.5,70.5C 162.117,70.3893 162.617,70.056 163,69.5C 163.278,70.4158 163.778,71.0825 164.5,71.5 Z"/></g>
<g><path style="opacity:1" fill="#54230d" d="M 251.5,85.5 C 251.833,85.5 252.167,85.5 252.5,85.5C 252.5,86.8333 252.5,88.1667 252.5,89.5C 246.177,90.9428 246.51,92.2761 253.5,93.5C 253.918,94.2216 254.584,94.7216 255.5,95C 252.183,95.4983 248.85,95.665 245.5,95.5C 244.833,95.5 244.167,95.5 243.5,95.5C 243.67,94.1779 243.337,93.0113 242.5,92C 243.572,90.7163 244.905,90.3829 246.5,91C 245.366,89.984 245.699,89.3173 247.5,89C 246.359,88.2588 246.359,87.4255 247.5,86.5C 248.689,85.5713 250.022,85.238 251.5,85.5 Z"/></g>
<g><path style="opacity:1" fill="#200f04" d="M 227.5,83.5 C 228.429,84.3149 229.429,85.1482 230.5,86C 228.965,89.7409 230.299,91.5742 234.5,91.5C 234.5,92.5 234.5,93.5 234.5,94.5C 232.05,94.702 229.717,94.3686 227.5,93.5C 225.92,90.3408 224.92,87.0075 224.5,83.5C 225.5,83.5 226.5,83.5 227.5,83.5 Z"/></g>
<g><path style="opacity:1" fill="#8a3611" d="M 253.5,93.5 C 246.51,92.2761 246.177,90.9428 252.5,89.5C 255.079,89.9167 257.246,89.25 259,87.5C 259.925,88.0465 260.758,88.7132 261.5,89.5C 259.5,92.1668 256.833,93.5001 253.5,93.5 Z"/></g>
<g><path style="opacity:1" fill="#635432" d="M 6.5,59.5 C 6.52304,61.9267 7.02304,64.26 8,66.5C 8.67076,67.2524 9.5041,67.5858 10.5,67.5C 10.5,68.1667 10.5,68.8333 10.5,69.5C 12.3326,75.8324 14.166,82.1657 16,88.5C 16.9705,91.8206 19.1372,93.4873 22.5,93.5C 22.2587,95.8863 22.9254,97.8863 24.5,99.5C 23.1667,99.5 21.8333,99.5 20.5,99.5C 20.5,97.8333 20.5,96.1667 20.5,94.5C 17.5794,94.8541 15.2461,93.8541 13.5,91.5C 11.2747,85.7267 9.94132,79.7267 9.5,73.5C 7.98326,71.6035 6.64992,69.6035 5.5,67.5C 5.5,66.1667 5.5,64.8333 5.5,63.5C 5.23219,61.901 5.56552,60.5676 6.5,59.5 Z"/></g>
<g><path style="opacity:1" fill="#c5ae82" d="M 84.5,72.5 C 85.3195,74.8123 86.1529,77.1457 87,79.5C 89.0662,76.8681 91.5662,76.2014 94.5,77.5C 93.3523,79.1487 92.019,80.6487 90.5,82C 90.8333,82.3333 91.1667,82.6667 91.5,83C 89.5753,82.8651 87.5753,82.6984 85.5,82.5C 85.5,83.8333 85.5,85.1667 85.5,86.5C 84.5,86.5 83.5,86.5 82.5,86.5C 82.5,85.1667 82.5,83.8333 82.5,82.5C 81.5,82.5 80.5,82.5 79.5,82.5C 80.523,85.3925 80.523,88.2258 79.5,91C 80,91.5 80.5,92 81,92.5C 83.4239,90.3481 86.2573,89.0148 89.5,88.5C 90.3567,89.7357 91.0234,91.069 91.5,92.5C 94.8607,93.0276 97.1941,94.8609 98.5,98C 95.9369,98.1542 93.4369,97.6542 91,96.5C 90.0497,97.0223 89.2164,97.689 88.5,98.5C 87.8333,97.5 87.1667,96.5 86.5,95.5C 83.7877,97.2603 80.7877,97.927 77.5,97.5C 63.1667,97.5 48.8333,97.5 34.5,97.5C 32.8333,97.5 31.1667,97.5 29.5,97.5C 25.7507,97.3827 23.7507,95.3827 23.5,91.5C 22.2613,90.788 21.7613,89.788 22,88.5C 37.7086,88.5587 53.542,88.5587 69.5,88.5C 69.7947,86.2646 69.4614,84.2646 68.5,82.5C 68.0113,81.0048 67.3446,79.6715 66.5,78.5C 66.4431,77.391 66.1098,76.391 65.5,75.5C 63.0977,74.0075 60.431,73.0075 57.5,72.5C 50.2674,71.6779 42.9341,70.6779 35.5,69.5C 35.5,67.5 35.5,65.5 35.5,63.5C 40.8333,63.8333 46.1667,64.1667 51.5,64.5C 55.3112,65.6453 59.3112,65.8119 63.5,65C 64,64.5 64.5,64 65,63.5C 65.3333,60.1667 65.6667,56.8333 66,53.5C 66.517,56.9199 67.3503,60.2532 68.5,63.5C 70.3362,64.7962 72.3362,65.6296 74.5,66C 73.8814,68.5441 74.3814,71.0441 76,73.5C 78.6975,71.327 81.5308,70.9937 84.5,72.5 Z"/></g>
<g><path style="opacity:1" fill="#9a7342" d="M 321.5,97.5 C 320.833,96.8333 320.167,96.1667 319.5,95.5C 319.5,93.1667 319.5,90.8333 319.5,88.5C 325.277,90.3838 325.944,93.3838 321.5,97.5 Z"/></g>
<g><path style="opacity:1" fill="#2e2719" d="M 2.5,66.5 C 3.16528,68.6979 3.83195,71.0312 4.5,73.5C 5.46557,71.604 5.7989,69.604 5.5,67.5C 6.64992,69.6035 7.98326,71.6035 9.5,73.5C 9.94132,79.7267 11.2747,85.7267 13.5,91.5C 15.2461,93.8541 17.5794,94.8541 20.5,94.5C 20.5,96.1667 20.5,97.8333 20.5,99.5C 21.8333,99.5 23.1667,99.5 24.5,99.5C 26.1033,99.3118 27.4366,99.8118 28.5,101C 27.2528,102.494 27.2528,103.994 28.5,105.5C 30.3198,106.883 32.3198,107.883 34.5,108.5C 34.8333,109.167 35.1667,109.833 35.5,110.5C 34.1825,110.821 32.8492,111.154 31.5,111.5C 28.6443,109.956 25.6443,108.956 22.5,108.5C 21.7377,106.738 20.4044,105.738 18.5,105.5C 15.6998,100.634 12.6998,95.9673 9.5,91.5C 7.74808,88.328 5.74808,85.328 3.5,82.5C 2.69929,80.9582 2.36596,79.2915 2.5,77.5C 2.5,73.8333 2.5,70.1667 2.5,66.5 Z"/></g>
<g><path style="opacity:1" fill="#c17944" d="M 227.5,95.5 C 230.167,95.5 232.833,95.5 235.5,95.5C 238.167,95.5 240.833,95.5 243.5,95.5C 244.167,95.5 244.833,95.5 245.5,95.5C 252.648,96.4916 259.981,96.825 267.5,96.5C 268.5,96.8333 269.167,97.5 269.5,98.5C 267.833,98.5 266.167,98.5 264.5,98.5C 252.16,97.5996 239.827,96.5996 227.5,95.5 Z"/></g>
<g><path style="opacity:1" fill="#c3bfb6" d="M 282.5,66.5 C 285.254,68.0528 286.087,70.3861 285,73.5C 282.975,71.3069 280.475,70.3069 277.5,70.5C 277.477,72.5996 278.144,74.4329 279.5,76C 277.251,77.7454 275.584,79.912 274.5,82.5C 274.608,83.4419 274.941,84.2753 275.5,85C 277.134,85.4935 278.801,85.6602 280.5,85.5C 281.167,85.5 281.833,85.5 282.5,85.5C 281.235,86.4793 279.901,87.4793 278.5,88.5C 278.833,88.8333 279.167,89.1667 279.5,89.5C 281.191,87.7438 283.191,87.2438 285.5,88C 287.293,89.7799 288.96,91.6132 290.5,93.5C 291.385,89.3613 289.718,86.6947 285.5,85.5C 286.496,85.5858 287.329,85.2524 288,84.5C 288.202,82.7444 288.702,81.0777 289.5,79.5C 291.167,80.8333 292.833,82.1667 294.5,83.5C 295.265,82.3881 296.265,81.7214 297.5,81.5C 299.044,84.248 299.71,87.248 299.5,90.5C 305.684,90.8042 308.184,87.8042 307,81.5C 307.626,83.9913 308.459,83.9913 309.5,81.5C 310.429,82.6888 310.762,84.0222 310.5,85.5C 308.134,88.7523 306.634,92.419 306,96.5C 303.287,100.638 299.453,102.638 294.5,102.5C 294.5,103.833 294.5,105.167 294.5,106.5C 291.5,106.5 288.5,106.5 285.5,106.5C 282.311,105.486 279.478,103.82 277,101.5C 275.266,95.476 273.1,89.8094 270.5,84.5C 270.167,83.8333 269.833,83.1667 269.5,82.5C 269.279,79.9327 268.612,77.5994 267.5,75.5C 266.167,71.5 266.167,67.5 267.5,63.5C 268.434,62.4324 268.768,61.099 268.5,59.5C 273.477,60.6556 277.144,63.4889 279.5,68C 281.157,68.7252 282.157,68.2252 282.5,66.5 Z"/></g>
<g><path style="opacity:1" fill="#807b70" d="M 282.5,85.5 C 283.5,85.5 284.5,85.5 285.5,85.5C 289.718,86.6947 291.385,89.3613 290.5,93.5C 288.96,91.6132 287.293,89.7799 285.5,88C 283.191,87.2438 281.191,87.7438 279.5,89.5C 279.167,89.1667 278.833,88.8333 278.5,88.5C 279.901,87.4793 281.235,86.4793 282.5,85.5 Z"/></g>
<g><path style="opacity:1" fill="#c78254" d="M 34.5,97.5 C 48.8333,97.5 63.1667,97.5 77.5,97.5C 77.8333,98.1667 78.1667,98.8333 78.5,99.5C 77.8333,99.5 77.1667,99.5 76.5,99.5C 62.5,98.8333 48.5,98.1667 34.5,97.5 Z"/></g>
<g><path style="opacity:1" fill="#ca9766" d="M 263.5,81.5 C 264.404,82.209 264.737,83.209 264.5,84.5C 253.181,83.7784 241.848,83.4451 230.5,83.5C 229.5,83.5 228.5,83.5 227.5,83.5C 226.5,83.5 225.5,83.5 224.5,83.5C 224.92,87.0075 225.92,90.3408 227.5,93.5C 227.5,94.1667 227.5,94.8333 227.5,95.5C 239.827,96.5996 252.16,97.5996 264.5,98.5C 252.162,98.6665 239.829,98.4999 227.5,98C 225.714,97.2155 224.214,96.0488 223,94.5C 222.207,90.577 222.374,86.7436 223.5,83C 237.006,82.831 250.34,82.331 263.5,81.5 Z"/></g>
<g><path style="opacity:1" fill="#947646" d="M 10.5,69.5 C 10.8333,69.5 11.1667,69.5 11.5,69.5C 14.1805,74.8753 16.1805,80.542 17.5,86.5C 18.6721,86.9186 19.6721,87.5853 20.5,88.5C 19.4775,90.8948 20.4775,91.8948 23.5,91.5C 23.7507,95.3827 25.7507,97.3827 29.5,97.5C 29.0882,99.9726 30.0882,101.306 32.5,101.5C 33.1429,103.076 34.1429,104.41 35.5,105.5C 40.2895,106.725 45.2895,107.392 50.5,107.5C 50.5299,108.497 50.0299,109.164 49,109.5C 44.2188,108.581 39.3855,108.248 34.5,108.5C 32.3198,107.883 30.3198,106.883 28.5,105.5C 27.2528,103.994 27.2528,102.494 28.5,101C 27.4366,99.8118 26.1033,99.3118 24.5,99.5C 22.9254,97.8863 22.2587,95.8863 22.5,93.5C 19.1372,93.4873 16.9705,91.8206 16,88.5C 14.166,82.1657 12.3326,75.8324 10.5,69.5 Z"/></g>
<g><path style="opacity:1" fill="#5b4224" d="M 319.5,95.5 C 320.167,96.1667 320.833,96.8333 321.5,97.5C 320.64,100.632 319.64,103.632 318.5,106.5C 318.721,103.721 318.388,101.054 317.5,98.5C 319.048,98.1788 319.715,97.1788 319.5,95.5 Z"/></g>
<g><path style="opacity:0.667" fill="#897e61" d="M 9.5,91.5 C 12.6998,95.9673 15.6998,100.634 18.5,105.5C 14.3954,102.73 11.3954,99.0628 9.5,94.5C 9.5,93.5 9.5,92.5 9.5,91.5 Z"/></g>
<g><path style="opacity:1" fill="#4c1e09" d="M 39.5,99.5 C 51.5,99.5 63.5,99.5 75.5,99.5C 75.5,100.5 75.5,101.5 75.5,102.5C 73.706,100.06 71.706,100.06 69.5,102.5C 67.7638,101.575 65.9305,100.908 64,100.5C 56.1864,101.549 48.3531,101.716 40.5,101C 39.944,100.617 39.6107,100.117 39.5,99.5 Z"/></g>
<g><path style="opacity:1" fill="#8c4925" d="M 29.5,97.5 C 31.1667,97.5 32.8333,97.5 34.5,97.5C 48.5,98.1667 62.5,98.8333 76.5,99.5C 77.8121,101.479 79.4788,103.145 81.5,104.5C 80.0606,106.553 78.0606,107.553 75.5,107.5C 76.7199,105.716 76.7199,104.05 75.5,102.5C 75.5,101.5 75.5,100.5 75.5,99.5C 63.5,99.5 51.5,99.5 39.5,99.5C 37.0799,99.7076 34.7466,99.3742 32.5,98.5C 31.4376,99.4246 31.4376,100.425 32.5,101.5C 30.0882,101.306 29.0882,99.9726 29.5,97.5 Z"/></g>
<g><path style="opacity:1" fill="#b19259" d="M 185.5,101.5 C 185.461,102.583 185.127,103.583 184.5,104.5C 181.934,105.547 179.267,106.214 176.5,106.5C 170.791,105.169 165.124,103.835 159.5,102.5C 156.924,103.883 157.258,104.717 160.5,105C 157.722,106.392 154.722,106.892 151.5,106.5C 150.167,105.5 148.833,104.5 147.5,103.5C 143.751,102.917 140.084,102.917 136.5,103.5C 131.848,103.295 127.515,102.295 123.5,100.5C 127.312,99.6762 131.312,99.1762 135.5,99C 138.572,94.1969 140.572,94.6969 141.5,100.5C 143,100.833 144.5,101.167 146,101.5C 153.801,102.044 161.634,102.044 169.5,101.5C 169.5,100.5 169.5,99.5 169.5,98.5C 170.93,98.4208 172.264,98.7542 173.5,99.5C 174.548,98.6171 175.715,97.9504 177,97.5C 179.946,98.7246 182.78,100.058 185.5,101.5 Z"/></g>
<g><path style="opacity:1" fill="#846f40" d="M 112.5,99.5 C 115.326,100.343 118.326,101.009 121.5,101.5C 122.416,101.457 123.083,101.124 123.5,100.5C 127.515,102.295 131.848,103.295 136.5,103.5C 140.084,102.917 143.751,102.917 147.5,103.5C 146.737,104.268 145.737,104.768 144.5,105C 138.829,105.531 133.162,106.031 127.5,106.5C 127.101,103.029 125.601,102.696 123,105.5C 121.422,101.857 119.589,101.691 117.5,105C 116.333,105.167 115.167,105.333 114,105.5C 111.182,105.088 108.682,104.088 106.5,102.5C 107.234,101.292 107.567,99.9587 107.5,98.5C 109.292,98.366 110.958,98.6993 112.5,99.5 Z"/></g>
<g><path style="opacity:1" fill="#b49579" d="M 270.5,84.5 C 273.1,89.8094 275.266,95.476 277,101.5C 279.478,103.82 282.311,105.486 285.5,106.5C 285.5,106.833 285.5,107.167 285.5,107.5C 284.127,107.657 282.793,107.49 281.5,107C 280.012,105.283 278.179,104.116 276,103.5C 274.002,97.166 272.168,90.8327 270.5,84.5 Z"/></g>
<g><path style="opacity:1" fill="#b68d59" d="M 317.5,98.5 C 318.388,101.054 318.721,103.721 318.5,106.5C 313.686,108.083 309.686,110.916 306.5,115C 304.19,115.497 301.857,115.663 299.5,115.5C 299.5,114.5 299.5,113.5 299.5,112.5C 305.898,109.96 311.065,105.627 315,99.5C 315.671,98.7476 316.504,98.4142 317.5,98.5 Z"/></g>
<g><path style="opacity:1" fill="#1c0b02" d="M 39.5,99.5 C 39.6107,100.117 39.944,100.617 40.5,101C 48.3531,101.716 56.1864,101.549 64,100.5C 65.9305,100.908 67.7638,101.575 69.5,102.5C 71.706,100.06 73.706,100.06 75.5,102.5C 75.5,103.5 75.5,104.5 75.5,105.5C 62.1414,106.048 48.8081,106.048 35.5,105.5C 34.1429,104.41 33.1429,103.076 32.5,101.5C 31.4376,100.425 31.4376,99.4246 32.5,98.5C 34.7466,99.3742 37.0799,99.7076 39.5,99.5 Z"/></g>
<g><path style="opacity:1" fill="#c08556" d="M 233.5,106.5 C 246.67,105.476 260.003,105.476 273.5,106.5C 260.663,107.549 247.663,107.549 234.5,106.5C 234.167,106.5 233.833,106.5 233.5,106.5 Z"/></g>
<g><path style="opacity:0.286" fill="#c5b992" d="M 18.5,105.5 C 20.4044,105.738 21.7377,106.738 22.5,108.5C 20.5956,108.262 19.2623,107.262 18.5,105.5 Z"/></g>
<g><path style="opacity:1" fill="#5d351b" d="M 75.5,102.5 C 76.7199,104.05 76.7199,105.716 75.5,107.5C 67.1667,107.5 58.8333,107.5 50.5,107.5C 45.2895,107.392 40.2895,106.725 35.5,105.5C 48.8081,106.048 62.1414,106.048 75.5,105.5C 75.5,104.5 75.5,103.5 75.5,102.5 Z"/></g>
<g><path style="opacity:1" fill="#635332" d="M 76.5,99.5 C 77.1667,99.5 77.8333,99.5 78.5,99.5C 80.5273,99.3379 82.5273,99.5045 84.5,100C 85.4149,104.839 87.0816,105.339 89.5,101.5C 91.4542,102.68 93.6209,103.346 96,103.5C 99.511,103.196 103.011,102.863 106.5,102.5C 108.682,104.088 111.182,105.088 114,105.5C 115.167,105.333 116.333,105.167 117.5,105C 119.589,101.691 121.422,101.857 123,105.5C 125.601,102.696 127.101,103.029 127.5,106.5C 133.162,106.031 138.829,105.531 144.5,105C 145.737,104.768 146.737,104.268 147.5,103.5C 148.833,104.5 150.167,105.5 151.5,106.5C 153.5,107.167 155.5,107.833 157.5,108.5C 139.232,108.02 120.899,107.52 102.5,107C 101,106.5 99.5,106 98,105.5C 93.2054,106.254 88.372,106.754 83.5,107C 83.1667,107.333 82.8333,107.667 82.5,108C 84.4913,108.374 86.158,109.207 87.5,110.5C 70.1667,110.5 52.8333,110.5 35.5,110.5C 35.1667,109.833 34.8333,109.167 34.5,108.5C 39.3855,108.248 44.2188,108.581 49,109.5C 50.0299,109.164 50.5299,108.497 50.5,107.5C 58.8333,107.5 67.1667,107.5 75.5,107.5C 78.0606,107.553 80.0606,106.553 81.5,104.5C 79.4788,103.145 77.8121,101.479 76.5,99.5 Z"/></g>
<g><path style="opacity:1" fill="#806a3e" d="M 186.5,100.5 C 188.256,101.552 188.923,103.219 188.5,105.5C 191.518,105.665 194.518,105.498 197.5,105C 196.483,103.951 196.316,102.784 197,101.5C 198.667,102.833 200.333,102.833 202,101.5C 202.249,102.624 202.749,103.624 203.5,104.5C 206.373,105.775 209.373,106.608 212.5,107C 213.056,107.383 213.389,107.883 213.5,108.5C 208.869,106.974 204.369,107.308 200,109.5C 198.739,109.241 197.739,108.574 197,107.5C 196.097,108.701 194.931,109.535 193.5,110C 187.817,109.431 182.15,109.598 176.5,110.5C 172.653,110.127 168.987,109.127 165.5,107.5C 162.934,109.599 160.267,109.932 157.5,108.5C 155.5,107.833 153.5,107.167 151.5,106.5C 154.722,106.892 157.722,106.392 160.5,105C 157.258,104.717 156.924,103.883 159.5,102.5C 165.124,103.835 170.791,105.169 176.5,106.5C 179.267,106.214 181.934,105.547 184.5,104.5C 185.127,103.583 185.461,102.583 185.5,101.5C 186.167,101.5 186.5,101.167 186.5,100.5 Z"/></g>
<g><path style="opacity:1" fill="#947a49" d="M 188.5,97.5 C 189.103,99.6794 189.77,101.846 190.5,104C 192.134,104.494 193.801,104.66 195.5,104.5C 195.5,103.167 195.5,101.833 195.5,100.5C 198.187,100.336 200.854,100.503 203.5,101C 206.547,104.126 210.047,104.959 214,103.5C 214.333,101.833 214.667,100.167 215,98.5C 219.601,104.697 225.768,107.364 233.5,106.5C 233.833,106.5 234.167,106.5 234.5,106.5C 234.263,107.791 234.596,108.791 235.5,109.5C 235.703,111.044 236.37,112.378 237.5,113.5C 237.167,113.833 236.833,114.167 236.5,114.5C 235.209,112.903 233.709,111.57 232,110.5C 230.856,110.911 229.689,111.244 228.5,111.5C 223.312,110.766 218.312,109.766 213.5,108.5C 213.389,107.883 213.056,107.383 212.5,107C 209.373,106.608 206.373,105.775 203.5,104.5C 202.749,103.624 202.249,102.624 202,101.5C 200.333,102.833 198.667,102.833 197,101.5C 196.316,102.784 196.483,103.951 197.5,105C 194.518,105.498 191.518,105.665 188.5,105.5C 188.923,103.219 188.256,101.552 186.5,100.5C 186.427,98.9731 187.094,97.9731 188.5,97.5 Z"/></g>
<g><path style="opacity:1" fill="#2e2718" d="M 157.5,108.5 C 160.267,109.932 162.934,109.599 165.5,107.5C 168.987,109.127 172.653,110.127 176.5,110.5C 176.5,110.833 176.5,111.167 176.5,111.5C 166.919,111.879 157.419,111.213 148,109.5C 146.112,109.796 144.278,110.296 142.5,111C 143.416,111.278 144.082,111.778 144.5,112.5C 138.5,112.5 132.5,112.5 126.5,112.5C 122.833,112.5 119.167,112.5 115.5,112.5C 106.153,111.862 96.8197,111.195 87.5,110.5C 86.158,109.207 84.4913,108.374 82.5,108C 82.8333,107.667 83.1667,107.333 83.5,107C 88.372,106.754 93.2054,106.254 98,105.5C 99.5,106 101,106.5 102.5,107C 120.899,107.52 139.232,108.02 157.5,108.5 Z"/></g>
<g><path style="opacity:1" fill="#5e3016" d="M 273.5,105.5 C 274.283,107.343 274.95,109.343 275.5,111.5C 274.833,111.833 274.167,112.167 273.5,112.5C 271.63,111.134 269.63,109.967 267.5,109C 258.488,108.681 249.488,108.181 240.5,107.5C 238.36,107.556 236.694,108.223 235.5,109.5C 234.596,108.791 234.263,107.791 234.5,106.5C 247.663,107.549 260.663,107.549 273.5,106.5C 273.5,106.167 273.5,105.833 273.5,105.5 Z"/></g>
<g><path style="opacity:0.689" fill="#9d8f6a" d="M 22.5,108.5 C 25.6443,108.956 28.6443,109.956 31.5,111.5C 32.8492,111.154 34.1825,110.821 35.5,110.5C 52.8333,110.5 70.1667,110.5 87.5,110.5C 96.8197,111.195 106.153,111.862 115.5,112.5C 87.657,112.246 59.657,112.246 31.5,112.5C 27.8355,112.498 24.8355,111.165 22.5,108.5 Z"/></g>
<g><path style="opacity:0.675" fill="#9c8c64" d="M 126.5,112.5 C 132.5,112.5 138.5,112.5 144.5,112.5C 146.5,113.167 148.5,113.833 150.5,114.5C 142.257,114.935 134.257,114.269 126.5,112.5 Z"/></g>
<g><path style="opacity:1" fill="#15120b" d="M 176.5,111.5 C 195.285,111.877 213.951,112.21 232.5,112.5C 232.635,114.554 231.968,116.221 230.5,117.5C 229.167,117.5 227.833,117.5 226.5,117.5C 218.056,115.863 209.389,115.197 200.5,115.5C 198.5,115.5 196.5,115.5 194.5,115.5C 180.677,114.504 166.677,114.171 152.5,114.5C 151.833,114.5 151.167,114.5 150.5,114.5C 148.5,113.833 146.5,113.167 144.5,112.5C 144.082,111.778 143.416,111.278 142.5,111C 144.278,110.296 146.112,109.796 148,109.5C 157.419,111.213 166.919,111.879 176.5,111.5 Z"/></g>
<g><path style="opacity:1" fill="#6a6041" d="M 152.5,114.5 C 166.677,114.171 180.677,114.504 194.5,115.5C 193.209,115.263 192.209,115.596 191.5,116.5C 178.322,116.291 165.322,115.624 152.5,114.5 Z"/></g>
<g><path style="opacity:0.333" fill="#ddd5c2" d="M 115.5,112.5 C 119.167,112.5 122.833,112.5 126.5,112.5C 134.257,114.269 142.257,114.935 150.5,114.5C 151.167,114.5 151.833,114.5 152.5,114.5C 165.322,115.624 178.322,116.291 191.5,116.5C 199.816,117.185 208.149,117.518 216.5,117.5C 216.833,117.5 217.167,117.5 217.5,117.5C 228.004,118.35 238.671,119.017 249.5,119.5C 251.833,119.5 254.167,119.5 256.5,119.5C 263.143,120.212 269.809,120.546 276.5,120.5C 280.971,119.911 284.971,120.577 288.5,122.5C 202.806,118.463 117.139,115.129 31.5,112.5C 59.657,112.246 87.657,112.246 115.5,112.5 Z"/></g>
<g><path style="opacity:1" fill="#3d3622" d="M 200.5,115.5 C 209.389,115.197 218.056,115.863 226.5,117.5C 223.5,117.5 220.5,117.5 217.5,117.5C 217.167,117.5 216.833,117.5 216.5,117.5C 211.167,116.833 205.833,116.167 200.5,115.5 Z"/></g>
<g><path style="opacity:1" fill="#4d3e26" d="M 213.5,108.5 C 218.312,109.766 223.312,110.766 228.5,111.5C 229.689,111.244 230.856,110.911 232,110.5C 233.709,111.57 235.209,112.903 236.5,114.5C 236.833,114.167 237.167,113.833 237.5,113.5C 236.37,112.378 235.703,111.044 235.5,109.5C 237.824,111.99 240.324,114.323 243,116.5C 255.64,115.187 268.14,115.187 280.5,116.5C 275.821,116.334 271.155,116.501 266.5,117C 263.166,118.084 259.832,118.918 256.5,119.5C 254.167,119.5 251.833,119.5 249.5,119.5C 243.416,117.823 237.082,117.156 230.5,117.5C 231.968,116.221 232.635,114.554 232.5,112.5C 213.951,112.21 195.285,111.877 176.5,111.5C 176.5,111.167 176.5,110.833 176.5,110.5C 182.15,109.598 187.817,109.431 193.5,110C 194.931,109.535 196.097,108.701 197,107.5C 197.739,108.574 198.739,109.241 200,109.5C 204.369,107.308 208.869,106.974 213.5,108.5 Z"/></g>
<g><path style="opacity:0.762" fill="#908254" d="M 191.5,116.5 C 192.209,115.596 193.209,115.263 194.5,115.5C 196.5,115.5 198.5,115.5 200.5,115.5C 205.833,116.167 211.167,116.833 216.5,117.5C 208.149,117.518 199.816,117.185 191.5,116.5 Z"/></g>
<g><path style="opacity:1" fill="#a99771" d="M 217.5,117.5 C 220.5,117.5 223.5,117.5 226.5,117.5C 227.833,117.5 229.167,117.5 230.5,117.5C 237.082,117.156 243.416,117.823 249.5,119.5C 238.671,119.017 228.004,118.35 217.5,117.5 Z"/></g>
<g><path style="opacity:0.667" fill="#9e7750" d="M 280.5,116.5 C 282.97,116.654 284.97,117.654 286.5,119.5C 282.958,119.187 279.625,119.521 276.5,120.5C 269.809,120.546 263.143,120.212 256.5,119.5C 259.832,118.918 263.166,118.084 266.5,117C 271.155,116.501 275.821,116.334 280.5,116.5 Z"/></g>
<g><path style="opacity:0.169" fill="#dac5b1" d="M 334.5,79.5 C 332.268,87.5088 329.602,95.3422 326.5,103C 327.973,103.71 328.64,104.876 328.5,106.5C 327.127,106.343 325.793,106.51 324.5,107C 322.415,111.919 319.081,115.752 314.5,118.5C 309.731,120.234 305.065,121.9 300.5,123.5C 298.833,123.5 297.167,123.5 295.5,123.5C 293.393,122.532 291.059,122.198 288.5,122.5C 284.971,120.577 280.971,119.911 276.5,120.5C 279.625,119.521 282.958,119.187 286.5,119.5C 297.06,122.563 306.727,120.729 315.5,114C 323.578,105.343 328.578,95.1767 330.5,83.5C 331.667,81.9586 333,80.6252 334.5,79.5 Z"/></g>
</svg>
