<svg xmlns="http://www.w3.org/2000/svg" width="200" height="200" style="shape-rendering:geometricPrecision;text-rendering:geometricPrecision;image-rendering:optimizeQuality;fill-rule:evenodd;clip-rule:evenodd"><path style="opacity:1" fill="#fdfdfd" d="M-.5-.5h200v200H-.5V-.5z"/><path style="opacity:1" fill="#3d3b5e" d="M147.5 45.5a70.523 70.523 0 0 1-9-1.5c-1.079-2.043-2.746-3.376-5-4-28.409-10.728-56.076-9.062-83 5-1.634.493-3.3.66-5 .5 28.832-16.165 58.831-18.331 90-6.5 4.278 1.904 8.278 4.07 12 6.5z"/><path style="opacity:1" fill="#353263" d="M147.5 45.5a53.63 53.63 0 0 1 12 7v3c3.853.845 6.519 3.179 8 7l-2 1c-2.143-2.276-4.81-3.61-8-4a16.331 16.331 0 0 0-5-2 10.162 10.162 0 0 0-3-3 642.816 642.816 0 0 0-6-6 43.496 43.496 0 0 1-13-5.5 40.939 40.939 0 0 0-9-.5c-1.599.268-2.932-.066-4-1-2.051-2.903-4.718-3.57-8-2a280.782 280.782 0 0 0-21-1.5c-4.016-3.736-7.016-3.236-9 1.5a53.785 53.785 0 0 1-16 2v3c-1.7-.16-3.366.007-5 .5-.752.67-1.086 1.504-1 2.5-1 .333-1.667 1-2 2a104.89 104.89 0 0 0-21 11h-6c.676-3.215 2.676-5.382 6-6.5 1.323-.816 1.99-1.983 2-3.5 2.508-2.424 5.508-4.09 9-5 1.7.16 3.366-.007 5-.5 26.924-14.062 54.591-15.728 83-5 2.254.624 3.921 1.957 5 4a70.523 70.523 0 0 0 9 1.5z"/><path style="opacity:1" fill="#3b385d" d="M117.5 41.5c-20.605-4.036-40.605-2.036-60 6-.086-.996.248-1.83 1-2.5 1.634-.493 3.3-.66 5-.5v-3c5.446.136 10.78-.53 16-2 1.984-4.736 4.984-5.236 9-1.5 7.029.238 14.029.738 21 1.5 3.282-1.57 5.949-.903 8 2z"/><path style="opacity:1" fill="#474563" d="M121.5 42.5a40.939 40.939 0 0 1 9 .5 43.496 43.496 0 0 0 13 5.5 642.816 642.816 0 0 1 6 6c-9.023-4.998-18.356-8.998-28-12z"/><path style="opacity:1" fill="#e8e9f0" d="M117.5 41.5c1.068.934 2.401 1.268 4 1 9.644 3.002 18.977 7.002 28 12a10.162 10.162 0 0 1 3 3 46.624 46.624 0 0 1-10.5-4 3.942 3.942 0 0 0-2 1c-1.066-1.6-2.566-2.6-4.5-3-1.062.925-1.062 1.925 0 3-11.541-7.402-24.208-11.402-38-12h-4c-5.9-.153-11.567.847-17 3-11.144 4.072-20.81 10.406-29 19-.009-1.808.491-3.475 1.5-5l1 1c1.438-1.4 2.271-3.067 2.5-5 3.257-1.3 6.257-3.134 9-5.5-1.902-1.796-3.902-1.963-6-.5.333-1 1-1.667 2-2 19.395-8.036 39.395-10.036 60-6z"/><path style="opacity:1" fill="#4e2e42" d="M93.5 42.5h4c2.7 1.734 4.7 4.068 6 7 .973 2.448 1.306 5.115 1 8l-2-2c-.299-3.605-1.465-6.939-3.5-10-2-1.333-4-1.333-6 0a420.183 420.183 0 0 0-3.5 12l-2 3a48.806 48.806 0 0 1 2-8.5 14.972 14.972 0 0 0-1-4.5c.825-.886 1.825-1.219 3-1 .027-1.7.694-3.033 2-4z"/><path style="opacity:1" fill="#3a395e" d="M76.5 45.5c-1.817 1.512-2.817 3.512-3 6-4.807-.173-9.14 1.16-13 4-1.398 2.398-3.398 4.065-6 5-1.247 1.823-1.914 3.823-2 6a20.677 20.677 0 0 1-5-1v-1c8.19-8.594 17.856-14.928 29-19z"/><path style="opacity:1" fill="#343362" d="M97.5 42.5c13.792.598 26.459 4.598 38 12a118.153 118.153 0 0 1 12 14c-3.663-.452-7.33-.952-11-1.5a25.534 25.534 0 0 1-4-4.5c-2-1.333-4-1.333-6 0a37.937 37.937 0 0 0-9-4c-.21-3.88-2.21-5.547-6-5 .319 2.25-.181 4.25-1.5 6a89.477 89.477 0 0 0-1.5-12l1-2c-2.265-1.147-4.598-1.314-7-.5.88 1.356 1.214 2.856 1 4.5-1.3-2.932-3.3-5.266-6-7z"/><path style="opacity:1" fill="#d67e37" d="M102.5 55.5c.253 3.54.919 6.873 2 10 .667 0 1 .333 1 1v6c-1.459.067-2.792-.266-4-1a57.489 57.489 0 0 0-3-18c-.027-2.89-1.194-3.89-3.5-3a74.495 74.495 0 0 0-2.5 15v1a70.679 70.679 0 0 0-2 4 21.12 21.12 0 0 1-1-9v-4a420.183 420.183 0 0 1 3.5-12c2-1.333 4-1.333 6 0 2.035 3.061 3.201 6.395 3.5 10z"/><path style="opacity:1" fill="#833e21" d="M98.5 53.5h-1c-1.424-1.531-2.091-1.198-2 1a41.593 41.593 0 0 1-3 11 74.495 74.495 0 0 1 2.5-15c2.306-.89 3.473.11 3.5 3z"/><path style="opacity:1" fill="#5a3135" d="M97.5 53.5h1a57.489 57.489 0 0 1 3 18 121.65 121.65 0 0 0-3.5-11 24.939 24.939 0 0 1-.5-7z"/><path style="opacity:1" fill="#9d5436" d="m102.5 55.5 2 2v8c-1.081-3.127-1.747-6.46-2-10z"/><path style="opacity:1" fill="#343265" d="M93.5 42.5c-1.306.967-1.973 2.3-2 4-1.175-.219-2.175.114-3 1a14.972 14.972 0 0 1 1 4.5 48.806 48.806 0 0 0-2 8.5v13c-4.07-.266-8.07.067-12 1-1.875 4.797-.209 7.13 5 7a27.425 27.425 0 0 0 2 11l-.5 3c-2.453-3.769-2.953-3.269-1.5 1.5a18.033 18.033 0 0 0-3 5 24.48 24.48 0 0 1 2 11.5h-10c.507-4.492-1.493-6.826-6-7-1.833.085-3.166.752-4 2h-1c.166-11.338 0-22.672-.5-34-3.156-2.899-5.822-2.566-8 1a722.369 722.369 0 0 0-.5 38 24.09 24.09 0 0 1-6.5-7c-2.19 2.749-3.857 2.415-5-1a64.247 64.247 0 0 1 0-16c1.727-3.118 2.56-6.451 2.5-10 1.929.27 3.595-.23 5-1.5-.602-1.904-.102-3.737 1.5-5.5.497-2.31.663-4.643.5-7 1.617.538 3.284.871 5 1 .086-2.177.753-4.177 2-6 2.602-.935 4.602-2.602 6-5 3.86-2.84 8.193-4.173 13-4 .183-2.488 1.183-4.488 3-6 5.433-2.153 11.1-3.153 17-3z"/><path style="opacity:1" fill="#5b3033" d="M89.5 57.5v4c-.98 3.125-1.313 6.458-1 10h-1v-11l2-3z"/><path style="opacity:1" fill="#353264" d="M147.5 68.5c5.179 6.028 8.513 13.028 10 21a5.728 5.728 0 0 0-3 1h-5c.134-1.791-.199-3.458-1-5-.038-6.217-3.038-10.384-9-12.5-16.131-1.877-22.297 4.956-18.5 20.5a32.008 32.008 0 0 0 7.5 5.5c4.925.862 9.425 2.695 13.5 5.5 1.335 4.108.168 7.108-3.5 9-.99-5.634-3.99-7.301-9-5-1 .333-1.667 1-2 2-1.225-1.437-2.225-3.104-3-5-5.584-1.84-7.417.16-5.5 6 1.026 2.739 2.526 5.072 4.5 7a5.727 5.727 0 0 0-1 3h-1c-.65.304-1.317.637-2 1-.438 2.795-1.438 5.128-3 7-1.157-2.773-1.824-5.773-2-9 .285-3.329-.382-6.329-2-9-.973-2.448-1.306-5.115-1-8a1439.524 1439.524 0 0 1-1.5-16c-.383-.556-.883-.89-1.5-1 .237-1.291-.096-2.291-1-3v-2c2.747.313 5.414-.02 8-1 1.507-2.469 1.173-4.635-1-6.5a24.939 24.939 0 0 0-7-.5c.456-5.108-.544-9.774-3-14v-2c.306-2.885-.027-5.552-1-8 .214-1.644-.12-3.144-1-4.5 2.402-.814 4.735-.647 7 .5l-1 2a89.477 89.477 0 0 1 1.5 12c1.319-1.75 1.819-3.75 1.5-6 3.79-.547 5.79 1.12 6 5a37.937 37.937 0 0 1 9 4c2-1.333 4-1.333 6 0a25.534 25.534 0 0 0 4 4.5c3.67.548 7.337 1.048 11 1.5z"/><path style="opacity:1" fill="#3c3960" d="M159.5 52.5a176.718 176.718 0 0 1 20 16c-2.512-1.428-5.178-1.928-8-1.5.833 1.5 2 2.667 3.5 3.5.483.948.649 1.948.5 3a185.526 185.526 0 0 1-18-14c3.19.39 5.857 1.724 8 4l2-1c-1.481-3.821-4.147-6.155-8-7v-3z"/><path style="opacity:1" fill="#4c2d45" d="M104.5 59.5c2.456 4.226 3.456 8.892 3 14h-1c.302-2.56-.032-4.893-1-7 0-.667-.333-1-1-1v-6z"/><path style="opacity:1" fill="#37365e" d="M36.5 50.5c-.01 1.517-.677 2.684-2 3.5-3.324 1.118-5.324 3.285-6 6.5h6c-8.393 5.555-15.726 12.388-22 20.5-4.477.165-5.977-2.002-4.5-6.5 8.201-9.715 17.701-17.715 28.5-24z"/><path style="opacity:1" fill="#b56e3b" d="M89.5 61.5a21.12 21.12 0 0 0 1 9 70.679 70.679 0 0 1 2-4c.175 2.12-.159 4.12-1 6-1.291.237-2.291-.096-3-1-.313-3.542.02-6.875 1-10z"/><path style="opacity:1" fill="#462e49" d="M95.5 54.5a59.72 59.72 0 0 0 1 13.5l-.5 2.5-1-4a24.939 24.939 0 0 0-.5 7h-3v-1c.841-1.88 1.175-3.88 1-6v-1a41.593 41.593 0 0 0 3-11z"/><path style="opacity:1" fill="#373064" d="M97.5 53.5c-.163 2.357.003 4.69.5 7a121.65 121.65 0 0 1 3.5 11v2h-7c-.163-2.357.003-4.69.5-7l1 4 .5-2.5a59.72 59.72 0 0 1-1-13.5c-.091-2.198.576-2.531 2-1z"/><path style="opacity:1" fill="#835149" d="M105.5 66.5c.968 2.107 1.302 4.44 1 7h-5v-2c1.208.734 2.541 1.067 4 1v-6z"/><path style="opacity:1" fill="#323163" d="M179.5 68.5a4.934 4.934 0 0 0 .5 3 11.826 11.826 0 0 1 4.5 3.5c-.113 1.28-.78 2.113-2 2.5-1.803-.637-3.136-1.803-4-3.5a4.932 4.932 0 0 0-3-.5 4.934 4.934 0 0 0-.5-3c-1.5-.833-2.667-2-3.5-3.5 2.822-.428 5.488.072 8 1.5z"/><path style="opacity:1" fill="#a37477" d="M87.5 71.5h1c.709.904 1.709 1.237 3 1v1c-1.333 1.333-2.667 1.333-4 0v-2z"/><path style="opacity:1" fill="#9d8bac" d="M100.5 73.5h6c.888 2.555 1.221 5.221 1 8v2c-1.208-.734-2.541-1.067-4-1v-1c.356-3.276-.644-5.943-3-8z"/><path style="opacity:1" fill="#908dc2" d="M106.5 73.5h1c2.357-.163 4.69.003 7 .5 2.173 1.865 2.507 4.031 1 6.5a16.868 16.868 0 0 1-8 1c.221-2.779-.112-5.445-1-8z"/><path style="opacity:1" fill="#3d3c5b" d="M179.5 68.5c1.648 1.31 3.314 2.643 5 4 1.141 1.921 1.308 3.921.5 6-4.284.96-7.451-.707-9.5-5a4.932 4.932 0 0 1 3 .5c.864 1.697 2.197 2.863 4 3.5 1.22-.387 1.887-1.22 2-2.5a11.826 11.826 0 0 0-4.5-3.5 4.934 4.934 0 0 1-.5-3z"/><path style="opacity:1" fill="#9693c7" d="M58.5 108.5c-.24 1.967.094 3.801 1 5.5 3.092.736 6.092.569 9-.5h14a21.445 21.445 0 0 1-1 7h-1c-2.885-.306-5.552.027-8 1-1.291-.237-2.291.096-3 1h-1c-3.125-.979-6.458-1.313-10-1h-3c-4.58-.594-6.58-3.26-6-8-.167-12.671 0-25.338.5-38 2.178-3.566 4.844-3.899 8-1 .5 11.328.666 22.662.5 34z"/><path style="opacity:1" fill="#9490c4" d="M148.5 85.5c-.901.79-1.568 1.79-2 3a4.932 4.932 0 0 1-3-.5c-1.646-3.31-3.98-5.977-7-8-5.255-1.808-8.589-.14-10 5 .143 2.151 1.143 3.818 3 5 6.39 1.699 12.39 4.199 18 7.5 5.201 9.239 3.535 16.906-5 23-1.459-.067-2.792.266-4 1-4.1.263-8.1-.07-12-1-.473-1.406-1.473-2.073-3-2-1.974-1.928-3.474-4.261-4.5-7-1.917-5.84-.084-7.84 5.5-6 .775 1.896 1.775 3.563 3 5v3c2.121-.175 4.121.159 6 1 2.018 1.433 3.685 1.099 5-1 3.668-1.892 4.835-4.892 3.5-9-4.075-2.805-8.575-4.638-13.5-5.5a32.008 32.008 0 0 1-7.5-5.5c-3.797-15.544 2.369-22.377 18.5-20.5 5.962 2.116 8.962 6.283 9 12.5z"/><path style="opacity:1" fill="#9492c6" d="M87.5 73.5c1.333 1.333 2.667 1.333 4 0h9c2.356 2.057 3.356 4.724 3 8h-3c.167 12.671 0 25.338-.5 38-2.665 2.103-5.499 2.436-8.5 1a233.734 233.734 0 0 1-1-30c.306-2.885-.027-5.552-1-8-.709-.904-1.709-1.237-3-1h-6c-5.209.13-6.875-2.203-5-7a40.285 40.285 0 0 1 12-1z"/><path style="opacity:1" fill="#a96438" d="M103.5 82.5c1.459-.067 2.792.266 4 1 .904.709 1.237 1.709 1 3 .463 2.982.796 5.982 1 9-1.165-3.61-2.332-7.276-3.5-11a60.93 60.93 0 0 0-.5 11c-1.209-4.118-1.876-8.451-2-13z"/><path style="opacity:1" fill="#874c3b" d="M86.5 81.5c1.291-.237 2.291.096 3 1-.996-.086-1.83.248-2.5 1-.19 2.208-.69 4.208-1.5 6-.221-2.779.112-5.445 1-8z"/><path style="opacity:1" fill="#363368" d="M146.5 88.5c-.023 2.1.644 3.933 2 5.5a14.102 14.102 0 0 0-1 3.5c-5.61-3.301-11.61-5.801-18-7.5-1.857-1.182-2.857-2.849-3-5 1.411-5.14 4.745-6.808 10-5 3.02 2.023 5.354 4.69 7 8 .948.483 1.948.65 3 .5z"/><path style="opacity:1" fill="#de8c39" d="M175.5 88.5h3v4a523.345 523.345 0 0 0-20 2c-1.193.47-1.86 1.47-2 3-.16 1.855.507 3.188 2 4v1c1.517 1.235 3.184 1.235 5 0 1.022.355 1.689 1.022 2 2a53.76 53.76 0 0 0-8 2h-2c-.629-2.897-1.629-5.564-3-8v-1c-.334-2.688.332-5.021 2-7a5.728 5.728 0 0 1 3-1c6.19.323 12.19-.01 18-1z"/><path style="opacity:1" fill="#f5d7a9" d="M175.5 86.5c4.476.3 5.81 2.467 4 6.5a83.48 83.48 0 0 1-21 1.5 523.345 523.345 0 0 1 20-2v-4h-3v-2z"/><path style="opacity:1" fill="#37315b" d="M80.5 81.5h6c-.888 2.555-1.221 5.221-1 8-2.102 7.728-3.102 15.728-3 24h-3a24.48 24.48 0 0 0-2-11.5 18.033 18.033 0 0 1 3-5c-1.453-4.769-.953-5.269 1.5-1.5l.5-3a27.425 27.425 0 0 1-2-11z"/><path style="opacity:1" fill="#fcf9ed" d="M175.5 86.5c2.06-1.311 4.226-1.311 6.5 0a30.463 30.463 0 0 1 1.5 9 32.438 32.438 0 0 0-8 .5c.916.278 1.582.778 2 1.5-1.915-.284-3.581.049-5 1-4.388 1.934-9.055 3.267-14 4v-8a83.48 83.48 0 0 0 21-1.5c1.81-4.033.476-6.2-4-6.5z"/><path style="opacity:1" fill="#773c30" d="M85.5 89.5c-.76 7.992-1.427 15.992-2 24h-1c-.102-8.272.898-16.272 3-24z"/><path style="opacity:1" fill="#773e28" d="M89.5 92.5c-.086 6.537-.753 12.87-2 19h-1a161.53 161.53 0 0 1 3-19z"/><path style="opacity:1" fill="#734136" d="M152.5 90.5h2c-1.668 1.979-2.334 4.312-2 7-1.256-2.226-1.256-4.559 0-7z"/><path style="opacity:1" fill="#6d4642" d="M158.5 94.5v7c-1.493-.812-2.16-2.145-2-4 .14-1.53.807-2.53 2-3z"/><path style="opacity:1" fill="#fde7c0" d="M172.5 98.5c1.419-.951 3.085-1.284 5-1 3.046-.317 4.713 1.016 5 4-2.829-2.478-6.162-3.478-10-3z"/><path style="opacity:1" fill="#e08232" d="M109.5 95.5v4a34.119 34.119 0 0 0 1 10c-.247 1.213-.914 1.88-2 2-.641-5.525-1.641-10.858-3-16a60.93 60.93 0 0 1 .5-11c1.168 3.724 2.335 7.39 3.5 11z"/><path style="opacity:1" fill="#783d34" d="M152.5 98.5c1.371 2.436 2.371 5.103 3 8-2.155-2.117-3.155-4.784-3-8z"/><path style="opacity:1" fill="#5b3030" d="M108.5 86.5c.617.11 1.117.444 1.5 1 .471 5.344.971 10.678 1.5 16l-2-4v-4a104.653 104.653 0 0 0-1-9z"/><path style="opacity:1" fill="#fbdeae" d="M178.5 111.5c1.751-6.607-.582-9.107-7-7.5a557.935 557.935 0 0 1-14 3.5v-1a53.76 53.76 0 0 1 8-2c4.182-1.731 8.516-2.231 13-1.5 1.317 2.937 1.317 5.77 0 8.5z"/><path style="opacity:1" fill="#e29543" d="M172.5 98.5c3.838-.478 7.171.522 10 3 2.842 8.983-.158 14.983-9 18h-18c4.147-.825 8.481-1.325 13-1.5a53.069 53.069 0 0 0-14-1.5c.342-.838 1.008-1.172 2-1h19c-.032-2.119.968-3.452 3-4 1.317-2.73 1.317-5.563 0-8.5-4.484-.731-8.818-.231-13 1.5-.311-.978-.978-1.645-2-2-1.816 1.235-3.483 1.235-5 0 4.945-.733 9.612-2.066 14-4z"/><path style="opacity:1" fill="#38345e" d="M47.5 65.5a24.939 24.939 0 0 1-.5 7c-1.602 1.763-2.102 3.596-1.5 5.5-1.405 1.27-3.071 1.77-5 1.5.06 3.549-.773 6.882-2.5 10a64.247 64.247 0 0 0 0 16c1.143 3.415 2.81 3.749 5 1a24.09 24.09 0 0 0 6.5 7c-.58 4.74 1.42 7.406 6 8-1.459-.067-2.792.266-4 1h-4c-1.085-2.087-2.751-3.42-5-4-1.459-.067-2.792.266-4 1-6.452-19.713-3.452-37.713 9-54z"/><path style="opacity:1" fill="#faf9f1" d="M178.5 111.5c-2.032.548-3.032 1.881-3 4h-19v-1c.869-2.217 1.202-4.55 1-7a557.935 557.935 0 0 0 14-3.5c6.418-1.607 8.751.893 7 7.5z"/><path style="opacity:1" fill="#4c2c4a" d="M69.5 113.5h-1c.073-1.527-.594-2.527-2-3-1.49-1.78-3.49-2.446-6-2h-1c.834-1.248 2.167-1.915 4-2 4.507.174 6.507 2.508 6 7z"/><path style="opacity:1" fill="#7b4b47" d="M129.5 108.5c5.01-2.301 8.01-.634 9 5-1.315 2.099-2.982 2.433-5 1v-1c1.175.219 2.175-.114 3-1-.124-.607-.457-.94-1-1 .086-.996-.248-1.829-1-2.5a12.93 12.93 0 0 0-5-.5z"/><path style="opacity:1" fill="#d57c38" d="M89.5 82.5c.973 2.448 1.306 5.115 1 8-.838.342-1.172 1.008-1 2a161.53 161.53 0 0 0-3 19c.067 1.459-.266 2.792-1 4-1.333 0-2-.667-2-2 .573-8.008 1.24-16.008 2-24 .81-1.792 1.31-3.792 1.5-6 .67-.752 1.504-1.086 2.5-1z"/><path style="opacity:1" fill="#6a372f" d="M105.5 95.5c1.359 5.142 2.359 10.475 3 16 .204 3.018.537 6.018 1 9l-3-6a333.668 333.668 0 0 0-1-19z"/><path style="opacity:1" fill="#3d325b" d="M148.5 85.5c.801 1.542 1.134 3.209 1 5h3c-1.256 2.441-1.256 4.774 0 7v1c-.155 3.216.845 5.883 3 8h2v1c.202 2.45-.131 4.783-1 7-3.212.212-5.212 1.879-6 5a10.515 10.515 0 0 0-3 2.5c-1.566.765-2.899.598-4-.5 0-.667-.333-1-1-1 8.535-6.094 10.201-13.761 5-23a14.102 14.102 0 0 1 1-3.5c-1.356-1.567-2.023-3.4-2-5.5.432-1.21 1.099-2.21 2-3z"/><path style="opacity:1" fill="#c97f4a" d="M60.5 108.5c2.51-.446 4.51.22 6 2-1.779 1.844-4.112 2.51-7 2-.067-1.459.266-2.792 1-4z"/><path style="opacity:1" fill="#ae6c49" d="M129.5 108.5a12.93 12.93 0 0 1 5 .5c.752.671 1.086 1.504 1 2.5-2.203-2.304-4.537-2.47-7-.5 2.153.099 3.819.933 5 2.5v1c-1.879-.841-3.879-1.175-6-1v-3c.333-1 1-1.667 2-2z"/><path style="opacity:1" fill="#df832d" d="M135.5 111.5c.543.06.876.393 1 1-.825.886-1.825 1.219-3 1-1.181-1.567-2.847-2.401-5-2.5 2.463-1.97 4.797-1.804 7 .5z"/><path style="opacity:1" fill="#fdf2da" d="M182.5 101.5c.996-.086 1.829.248 2.5 1l1 8c1.183-1.231 2.349-1.231 3.5 0a125.304 125.304 0 0 0-11 8.5 12.93 12.93 0 0 1-5 .5c8.842-3.017 11.842-9.017 9-18z"/><path style="opacity:1" fill="#bf7039" d="m109.5 99.5 2 4c-.306 2.885.027 5.552 1 8v6c-.768-.763-1.268-1.763-1.5-3a40.477 40.477 0 0 0 .5 13c-1.844-1.779-2.51-4.112-2-7a104.618 104.618 0 0 1-1-9c1.086-.12 1.753-.787 2-2a34.119 34.119 0 0 1-1-10z"/><path style="opacity:1" fill="#9f757c" d="M58.5 108.5h2c-.734 1.208-1.067 2.541-1 4 2.888.51 5.221-.156 7-2 1.406.473 2.073 1.473 2 3-2.908 1.069-5.908 1.236-9 .5-.906-1.699-1.24-3.533-1-5.5z"/><path style="opacity:1" fill="#dd8133" d="M154.5 116.5a53.069 53.069 0 0 1 14 1.5c-4.519.175-8.853.675-13 1.5-.667 0-1 .333-1 1-1.839 1.008-3.172 2.508-4 4.5-2.53 1.422-5.197 1.755-8 1-1.537-1.11-2.203-2.61-2-4.5h3c1.101 1.098 2.434 1.265 4 .5a10.515 10.515 0 0 1 3-2.5l4-3z"/><path style="opacity:1" fill="#5b333d" d="M86.5 111.5h1a286.942 286.942 0 0 1-2.5 20c-.708.881-1.542 1.547-2.5 2l2-13c.951-1.419 1.284-3.085 1-5 .734-1.208 1.067-2.541 1-4z"/><path style="opacity:1" fill="#582e32" d="M112.5 111.5c1.618 2.671 2.285 5.671 2 9l-2-3v-6z"/><path style="opacity:1" fill="#522d2b" d="M42.5 118.5c2.249.58 3.915 1.913 5 4-2.249-.58-3.915-1.913-5-4z"/><path style="opacity:1" fill="#a57a74" d="M82.5 113.5h1c0 1.333.667 2 2 2 .284 1.915-.049 3.581-1 5-.848-1.125-1.848-1.125-3 0a21.445 21.445 0 0 0 1-7z"/><path style="opacity:1" fill="#a2613e" d="M156.5 114.5v1c-.992-.172-1.658.162-2 1l-4 3c.788-3.121 2.788-4.788 6-5z"/><path style="opacity:1" fill="#a36e60" d="M123.5 118.5c1.527-.073 2.527.594 3 2v2h-1c-.304-2.296-1.304-2.629-3-1a5.727 5.727 0 0 1 1-3z"/><path style="opacity:1" fill="#fde8bf" d="M155.5 119.5h15a777.189 777.189 0 0 1-16 2v-1c0-.667.333-1 1-1z"/><path style="opacity:1" fill="#d07837" d="m112.5 117.5 2 3c.176 3.227.843 6.227 2 9 .709.904 1.709 1.237 3 1a46.86 46.86 0 0 0 2-9h1c1.696-1.629 2.696-1.296 3 1a51.082 51.082 0 0 1-5 13c-2 1.333-4 1.333-6 0h-1a18.974 18.974 0 0 1-2-8c.979-3.125 1.313-6.458 1-10z"/><path style="opacity:1" fill="#603a2f" d="M40.5 123.5c2.249.58 3.915 1.913 5 4h-3c-1.174-1.014-1.84-2.347-2-4z"/><path style="opacity:1" fill="#d37e3d" d="M42.5 118.5c1.085 2.087 2.751 3.42 5 4 .12 1.086.787 1.753 2 2 1.213-.247 1.88-.914 2-2 1.208-.734 2.541-1.067 4-1h1c-.222 2.107-1.222 3.774-3 5a16.874 16.874 0 0 1-8 1c-1.085-2.087-2.751-3.42-5-4-1.174-1.014-1.84-2.347-2-4 1.208-.734 2.541-1.067 4-1z"/><path style="opacity:1" fill="#773a1c" d="M47.5 122.5h4c-.12 1.086-.787 1.753-2 2-1.213-.247-1.88-.914-2-2z"/><path style="opacity:1" fill="#733e28" d="M68.5 122.5h1a21.445 21.445 0 0 0 1 7c-1.844-1.779-2.51-4.112-2-7z"/><path style="opacity:1" fill="#43315a" d="M72.5 121.5c2.448-.973 5.115-1.306 8-1-.923 3.862-2.59 7.196-5 10a45.733 45.733 0 0 1-3-9z"/><path style="opacity:1" fill="#e6842b" d="M112.5 117.5c.313 3.542-.021 6.875-1 10a40.477 40.477 0 0 1-.5-13c.232 1.237.732 2.237 1.5 3z"/><path style="opacity:1" fill="#744333" d="M142.5 120.5c.667 0 1 .333 1 1h-3c-.203 1.89.463 3.39 2 4.5 2.803.755 5.47.422 8-1 .828-1.992 2.161-3.492 4-4.5v1a18.924 18.924 0 0 0-3 5 24.93 24.93 0 0 1-8 1c-3.419-.542-5.086-2.542-5-6 1.208-.734 2.541-1.067 4-1z"/><path style="opacity:1" fill="#653031" d="M80.5 120.5h1a34.839 34.839 0 0 1-3 10c-1.114 1.276-2.114 1.276-3 0 2.41-2.804 4.077-6.138 5-10z"/><path style="opacity:1" fill="#443756" d="M151.5 126.5c-1.18 3.04-2.847 5.706-5 8v-4h-3v-3a24.93 24.93 0 0 0 8-1z"/><path style="opacity:1" fill="#3b3250" d="M58.5 121.5c3.542-.313 6.875.021 10 1-.51 2.888.156 5.221 2 7v1a19.24 19.24 0 0 0 1 6h-3a185.59 185.59 0 0 1-1-11c-1.992.172-3.658-.495-5-2a6.845 6.845 0 0 1-4 1v-3z"/><path style="opacity:1" fill="#462c49" d="m106.5 114.5 3 6c-.51 2.888.156 5.221 2 7 .084 2.827.75 5.494 2 8h-2c-.185-1.696-1.019-3.029-2.5-4a121.329 121.329 0 0 0-2.5-17z"/><path style="opacity:1" fill="#4a354d" d="M56.5 121.5h1c-.177 3.337-1.177 6.337-3 9h-7v4c-2.4-1.796-4.067-4.13-5-7h3c2.747.313 5.413-.02 8-1 1.778-1.226 2.778-2.893 3-5z"/><path style="opacity:1" fill="#d47c3a" d="m84.5 120.5-2 13a36.12 36.12 0 0 1-5.5 4c-3.067-1.565-5.234-3.898-6.5-7v-1a21.445 21.445 0 0 1-1-7c.709-.904 1.709-1.237 3-1a45.733 45.733 0 0 0 3 9c.886 1.276 1.886 1.276 3 0a34.839 34.839 0 0 0 3-10c1.152-1.125 2.152-1.125 3 0z"/><path style="opacity:1" fill="#39375f" d="M170.5 139.5c-1.273-5.168-3.939-5.335-8-.5a20.093 20.093 0 0 1-6 1.5 206.515 206.515 0 0 0 26-22 4.933 4.933 0 0 1 2.5 1c.667 2 .667 4 0 6a284.889 284.889 0 0 1-14.5 14z"/><path style="opacity:1" fill="#343265" d="M103.5 81.5v1c.124 4.549.791 8.882 2 13 .514 6.322.847 12.655 1 19a121.329 121.329 0 0 1 2.5 17c1.481.971 2.315 2.304 2.5 4a13.116 13.116 0 0 1-1 7 40.282 40.282 0 0 1-12 1c-.026-3.451-1.526-6.118-4.5-8a12.935 12.935 0 0 1-.5-5c-2.333-1.333-4.667-1.333-7 0v-3c1.175.219 2.175-.114 3-1l-2-5c.502-1.021 1.168-1.188 2-.5.227 1.135.56 2.302 1 3.5.929-1.189 1.262-2.522 1-4 3.001 1.436 5.835 1.103 8.5-1 .5-12.662.667-25.329.5-38h3z"/><path style="opacity:1" fill="#673533" d="M70.5 130.5c1.266 3.102 3.433 5.435 6.5 7a36.12 36.12 0 0 0 5.5-4v2c-3.35 3.602-7.017 3.935-11 1a19.24 19.24 0 0 1-1-6z"/><path style="opacity:1" fill="#343260" d="M90.5 90.5a233.734 233.734 0 0 0 1 30c.262 1.478-.071 2.811-1 4a23.625 23.625 0 0 1-1-3.5c-.832-.688-1.498-.521-2 .5l2 5c-.825.886-1.825 1.219-3 1v3c2.333-1.333 4.667-1.333 7 0-.16 1.699.007 3.366.5 5 2.974 1.882 4.474 4.549 4.5 8a40.282 40.282 0 0 0 12-1 13.116 13.116 0 0 0 1-7h3a5.727 5.727 0 0 0 1 3c2.785.584 4.452-.416 5-3a18.473 18.473 0 0 0 3.5-2 34.455 34.455 0 0 0 2.5-11v-2c3.9.93 7.9 1.263 12 1-.086 3.458 1.581 5.458 5 6v3h3v4c-6.225 8.557-14.225 14.89-24 19a102.904 102.904 0 0 1-11 3 452.5 452.5 0 0 1-34-1h-1c-2.1-1.988-4.6-3.655-7.5-5a8.435 8.435 0 0 1-.5-4c-2.56.302-4.893-.032-7-1a41.538 41.538 0 0 0 9-1c2.775 1.515 5.775 2.849 9 4 5.554 1.306 11.054 1.306 16.5 0 8.714.43 17.214 1.763 25.5 4v-4a357.103 357.103 0 0 1-13.5-3 292.024 292.024 0 0 0-28.5-1c.512-2.851 2.179-4.184 5-4v3c1.175.219 2.175-.114 3-1a176.541 176.541 0 0 0-2-9 184.223 184.223 0 0 1-3 2v-2c.958-.453 1.792-1.119 2.5-2a286.942 286.942 0 0 0 2.5-20c1.247-6.13 1.914-12.463 2-19-.172-.992.162-1.658 1-2z"/><path style="opacity:1" fill="#5b3438" d="M114.5 135.5c2 1.333 4 1.333 6 0-.548 2.584-2.215 3.584-5 3a5.727 5.727 0 0 1-1-3z"/><path style="opacity:1" fill="#583230" d="M125.5 122.5h1a34.455 34.455 0 0 1-2.5 11 18.473 18.473 0 0 1-3.5 2 51.082 51.082 0 0 0 5-13z"/><path style="opacity:1" fill="#4e313b" d="M121.5 121.5a46.86 46.86 0 0 1-2 9c-1.291.237-2.291-.096-3-1 1.562-1.872 2.562-4.205 3-7 .683-.363 1.35-.696 2-1z"/><path style="opacity:1" fill="#32306a" d="M115.5 138.5a81.316 81.316 0 0 0 3 2.5c-2.145.743-2.311 1.576-.5 2.5 1.597-1.385 3.43-2.051 5.5-2-.262-1.478.071-2.811 1-4 1.224 2.328 1.224 4.661 0 7-2.946 1.155-5.946 1.321-9 .5-3.983-2.466-3.983-4.632 0-6.5z"/><path style="opacity:1" fill="#333064" d="m170.5 139.5-2 1a6.846 6.846 0 0 0-4 1 57.258 57.258 0 0 1-8 5.5c-.752.671-1.086 1.504-1 2.5a51.569 51.569 0 0 1-7 1c.531-3.279 2.531-4.613 6-4l2-6a20.093 20.093 0 0 0 6-1.5c4.061-4.835 6.727-4.668 8 .5z"/><path style="opacity:1" fill="#3c3d5e" d="M168.5 140.5c-3.501 4.162-7.835 7.162-13 9-.086-.996.248-1.829 1-2.5a57.258 57.258 0 0 0 8-5.5 6.846 6.846 0 0 1 4-1z"/><path style="opacity:1" fill="#333166" d="M57.5 121.5h1v3a6.845 6.845 0 0 0 4-1c1.342 1.505 3.008 2.172 5 2a185.59 185.59 0 0 0 1 11h3c3.983 2.935 7.65 2.602 11-1 .982-.641 1.982-1.307 3-2a176.541 176.541 0 0 1 2 9c-.825.886-1.825 1.219-3 1v-3c-2.821-.184-4.488 1.149-5 4 9.477-.132 18.977.201 28.5 1a357.103 357.103 0 0 0 13.5 3v4c-8.286-2.237-16.786-3.57-25.5-4-5.446 1.306-10.946 1.306-16.5 0-3.225-1.151-6.225-2.485-9-4a41.538 41.538 0 0 1-9 1c-1.548-.321-2.215-1.321-2-3h-5c-3.072-2.069-5.406-4.736-7-8v-4h7c1.823-2.663 2.823-5.663 3-9z"/><path style="opacity:1" fill="#3f3d5e" d="M54.5 142.5h5c-.215 1.679.452 2.679 2 3 2.107.968 4.44 1.302 7 1a8.435 8.435 0 0 0 .5 4c2.9 1.345 5.4 3.012 7.5 5a5.727 5.727 0 0 1-3-1c-7.407-2.427-13.74-6.427-19-12z"/><path style="opacity:1" fill="#383561" d="M71.5 156.5a46.712 46.712 0 0 0 8 3c-5.357-1.054-10.69-1.054-16 0a76.923 76.923 0 0 1-10-1c-15.808-7.634-30.141-17.468-43-29.5a25.264 25.264 0 0 1-3-5.5c.275-2.109 1.442-3.442 3.5-4 14.229 13.883 30.395 25.049 48.5 33.5a263.153 263.153 0 0 1 12 3.5z"/><path style="opacity:1" fill="#3b3860" d="m156.5 140.5-2 6c-3.469-.613-5.469.721-6 4a51.569 51.569 0 0 0 7-1c-18.386 12.126-38.72 18.459-61 19-5.495.179-10.829-.488-16-2l-3-2a288.602 288.602 0 0 0 40 .5 84.028 84.028 0 0 1 14-4l2-2c-1.444-1.064-3.111-1.564-5-1.5a51.55 51.55 0 0 1-15 2 126.507 126.507 0 0 0 12-4 115.374 115.374 0 0 0 33-15z"/><path style="opacity:1" fill="#cbcbdc" d="M122.5 153.5c-1.531 1.425-1.198 2.091 1 2a126.507 126.507 0 0 1-12 4 135.922 135.922 0 0 1-32 0 46.712 46.712 0 0 1-8-3c1.333 0 2-.667 2-2 .891.61 1.891.943 3 1h1c5.63 2.397 11.63 3.397 18 3 5.577.132 10.91-.535 16-2 3.723-.797 7.39-1.797 11-3z"/><path style="opacity:1" fill="#3e3b5c" d="M77.5 155.5a452.5 452.5 0 0 0 34 1c-5.09 1.465-10.423 2.132-16 2-6.37.397-12.37-.603-18-3z"/><path style="opacity:1" fill="#444362" d="M53.5 158.5c3.307.551 6.64.884 10 1-.03.997.47 1.664 1.5 2 3.645.949 7.145 1.949 10.5 3l3 2c-8.933-1.09-17.266-3.757-25-8z"/><path style="opacity:1" fill="#333163" d="M75.5 164.5a223.672 223.672 0 0 0-10.5-3c-1.03-.336-1.53-1.003-1.5-2 5.31-1.054 10.643-1.054 16 0a135.922 135.922 0 0 0 32 0 51.55 51.55 0 0 0 15-2c1.889-.064 3.556.436 5 1.5l-2 2a84.028 84.028 0 0 0-14 4 288.602 288.602 0 0 1-40-.5z"/></svg>