<?xml version="1.0" encoding="UTF-8"?>
<!DOCTYPE svg PUBLIC "-//W3C//DTD SVG 1.1//EN" "http://www.w3.org/Graphics/SVG/1.1/DTD/svg11.dtd">
<svg xmlns="http://www.w3.org/2000/svg" version="1.1" width="420px" height="86px" style="shape-rendering:geometricPrecision; text-rendering:geometricPrecision; image-rendering:optimizeQuality; fill-rule:evenodd; clip-rule:evenodd" xmlns:xlink="http://www.w3.org/1999/xlink">
<g><path style="opacity:1" fill="#333333" d="M -0.5,-0.5 C 139.5,-0.5 279.5,-0.5 419.5,-0.5C 419.5,28.1667 419.5,56.8333 419.5,85.5C 279.5,85.5 139.5,85.5 -0.5,85.5C -0.5,56.8333 -0.5,28.1667 -0.5,-0.5 Z"/></g>
<g><path style="opacity:1" fill="#757575" d="M 69.5,16.5 C 68.5,16.5 67.5,16.5 66.5,16.5C 64.1667,16.5 61.8333,16.5 59.5,16.5C 58.5,16.5 57.5,16.5 56.5,16.5C 52.9682,16.31 49.6348,16.9767 46.5,18.5C 45.5,18.5 44.5,18.5 43.5,18.5C 42.391,18.5569 41.391,18.8902 40.5,19.5C 41.6782,18.0014 43.3449,17.0014 45.5,16.5C 53.6572,15.1796 61.6572,15.1796 69.5,16.5 Z"/></g>
<g><path style="opacity:1" fill="#5c5c5c" d="M 381.5,16.5 C 377.833,16.5 374.167,16.5 370.5,16.5C 366.452,16.3946 362.452,16.7279 358.5,17.5C 361.938,16.1768 365.771,15.5102 370,15.5C 374.015,15.5012 377.849,15.8345 381.5,16.5 Z"/></g>
<g><path style="opacity:1" fill="#b6b6b6" d="M 59.5,16.5 C 61.8333,16.5 64.1667,16.5 66.5,16.5C 66.5,17.5 66.5,18.5 66.5,19.5C 67.5,19.5 68.5,19.5 69.5,19.5C 69.5,18.5 69.5,17.5 69.5,16.5C 70.1667,16.8333 70.8333,17.1667 71.5,17.5C 72.2623,19.2624 73.5956,20.2624 75.5,20.5C 76.8333,21.1667 78.1667,21.8333 79.5,22.5C 79.5,22.8333 79.5,23.1667 79.5,23.5C 74.57,23.1975 69.7367,23.5308 65,24.5C 62.9618,21.964 61.1285,19.2973 59.5,16.5 Z"/></g>
<g><path style="opacity:1" fill="#656565" d="M 71.5,17.5 C 73.4044,17.7376 74.7377,18.7376 75.5,20.5C 73.5956,20.2624 72.2623,19.2624 71.5,17.5 Z"/></g>
<g><path style="opacity:1" fill="#808080" d="M 370.5,16.5 C 363.375,17.5205 356.375,19.1871 349.5,21.5C 351.591,18.4698 354.591,17.1365 358.5,17.5C 362.452,16.7279 366.452,16.3946 370.5,16.5 Z"/></g>
<g><path style="opacity:1" fill="#e2e2e2" d="M 66.5,16.5 C 67.5,16.5 68.5,16.5 69.5,16.5C 69.5,17.5 69.5,18.5 69.5,19.5C 68.5,19.5 67.5,19.5 66.5,19.5C 66.5,18.5 66.5,17.5 66.5,16.5 Z"/></g>
<g><path style="opacity:1" fill="#dfdfdf" d="M 56.5,16.5 C 57.5,16.5 58.5,16.5 59.5,16.5C 61.1285,19.2973 62.9618,21.964 65,24.5C 69.7367,23.5308 74.57,23.1975 79.5,23.5C 79.5,23.8333 79.5,24.1667 79.5,24.5C 79.5,24.8333 79.5,25.1667 79.5,25.5C 74.9592,25.0522 70.6259,25.7189 66.5,27.5C 65.3745,31.3631 63.0412,32.3631 59.5,30.5C 58.4324,29.5655 57.099,29.2322 55.5,29.5C 55.5,30.8333 55.5,32.1667 55.5,33.5C 54.1667,33.5 52.8333,33.5 51.5,33.5C 52.641,27.6411 54.3076,21.9745 56.5,16.5 Z"/></g>
<g><path style="opacity:1" fill="#7c7c7c" d="M 79.5,22.5 C 81.2624,23.2623 82.2624,24.5956 82.5,26.5C 81.5,25.8333 80.5,25.1667 79.5,24.5C 79.5,24.1667 79.5,23.8333 79.5,23.5C 79.5,23.1667 79.5,22.8333 79.5,22.5 Z"/></g>
<g><path style="opacity:1" fill="#b3b3b3" d="M 79.5,24.5 C 80.5,25.1667 81.5,25.8333 82.5,26.5C 83.5846,28.5869 85.2512,29.9202 87.5,30.5C 87.8333,30.5 88.1667,30.5 88.5,30.5C 88.5,30.8333 88.5,31.1667 88.5,31.5C 89.0149,33.7512 90.0149,35.7512 91.5,37.5C 91.8925,39.2838 92.5592,40.9505 93.5,42.5C 91.8007,42.4729 90.4674,41.8062 89.5,40.5C 87.2841,40.2746 85.6174,41.1079 84.5,43C 83.1667,43.6667 81.8333,43.6667 80.5,43C 82.1066,41.951 82.7733,40.451 82.5,38.5C 80.8333,38.5 79.1667,38.5 77.5,38.5C 77.8957,41.0444 77.229,43.2111 75.5,45C 72.5,45.3333 69.5,45.6667 66.5,46C 65.0842,48.2645 63.0842,49.4312 60.5,49.5C 60.5,49.1667 60.5,48.8333 60.5,48.5C 60.5,48.1667 60.5,47.8333 60.5,47.5C 61.1667,47.1667 61.8333,46.8333 62.5,46.5C 67.205,44.7995 69.5383,41.4661 69.5,36.5C 67.5,36.5 65.5,36.5 63.5,36.5C 65.4026,34.2602 66.4026,31.5936 66.5,28.5C 70.9115,27.402 75.2448,26.402 79.5,25.5C 79.5,25.1667 79.5,24.8333 79.5,24.5 Z"/></g>
<g><path style="opacity:1" fill="#626262" d="M 82.5,26.5 C 84.7488,27.0798 86.4154,28.4131 87.5,30.5C 85.2512,29.9202 83.5846,28.5869 82.5,26.5 Z"/></g>
<g><path style="opacity:1" fill="#b4b4b4" d="M 43.5,18.5 C 41.6236,23.2554 39.457,27.9221 37,32.5C 34.268,33.6648 31.768,34.9981 29.5,36.5C 27.955,35.7703 27.1216,34.437 27,32.5C 26.3292,31.7476 25.4959,31.4142 24.5,31.5C 26.6281,28.8697 28.9614,26.3697 31.5,24C 34.9454,23.1903 37.9454,21.6903 40.5,19.5C 41.391,18.8902 42.391,18.5569 43.5,18.5 Z"/></g>
<g><path style="opacity:1" fill="#525252" d="M 349.5,21.5 C 348.855,22.8118 347.855,23.8118 346.5,24.5C 345.334,37.1535 345.167,49.8202 346,62.5C 347.045,63.3734 347.878,64.3734 348.5,65.5C 346.983,65.4894 345.816,64.8228 345,63.5C 344.167,50.1542 344.334,36.8208 345.5,23.5C 346.622,22.3698 347.956,21.7031 349.5,21.5 Z"/></g>
<g><path style="opacity:1" fill="#545454" d="M 396.5,20.5 C 398.394,21.0476 400.06,22.0476 401.5,23.5C 402.833,36.8333 402.833,50.1667 401.5,63.5C 400.817,63.8627 400.15,64.1961 399.5,64.5C 401.583,51.6746 402.083,38.6746 401,25.5C 399.293,23.9625 397.793,22.2959 396.5,20.5 Z"/></g>
<g><path style="opacity:1" fill="#d9d9d9" d="M 33.5,25.5 C 36.5,25.1667 37.8333,26.5 37.5,29.5C 35.8333,29.5 34.1667,29.5 32.5,29.5C 32.4326,28.0413 32.7659,26.7079 33.5,25.5 Z"/></g>
<g><path style="opacity:1" fill="#717171" d="M 146.5,29.5 C 144.5,29.5 142.5,29.5 140.5,29.5C 139.391,29.5569 138.391,29.8902 137.5,30.5C 138.514,29.2353 140.014,28.5687 142,28.5C 143.707,28.5085 145.207,28.8418 146.5,29.5 Z"/></g>
<g><path style="opacity:1" fill="#717171" d="M 238.5,28.5 C 238.5,28.8333 238.5,29.1667 238.5,29.5C 236.5,29.5 234.5,29.5 232.5,29.5C 231.391,29.5569 230.391,29.8902 229.5,30.5C 231.988,28.6122 234.988,27.9455 238.5,28.5 Z"/></g>
<g><path style="opacity:1" fill="#666666" d="M 286.5,32.5 C 285.833,32.1667 285.167,31.8333 284.5,31.5C 283.833,31.5 283.167,31.5 282.5,31.5C 279.229,29.1576 275.562,28.8243 271.5,30.5C 273.048,29.2057 275.048,28.5391 277.5,28.5C 281.65,27.712 284.65,29.0454 286.5,32.5 Z"/></g>
<g><path style="opacity:1" fill="#6d6d6d" d="M 291.5,29.5 C 293.966,28.3659 296.633,28.1993 299.5,29C 301.834,32.7961 303.167,36.9627 303.5,41.5C 302.833,41.1667 302.167,40.8333 301.5,40.5C 300.496,37.1253 299.496,33.7919 298.5,30.5C 296.393,29.5318 294.059,29.1984 291.5,29.5 Z"/></g>
<g><path style="opacity:1" fill="#b0b0b0" d="M 206.5,29.5 C 211.5,29.5 216.5,29.5 221.5,29.5C 221.5,31.1667 221.5,32.8333 221.5,34.5C 218.167,34.5 214.833,34.5 211.5,34.5C 213.948,33.5269 216.615,33.1936 219.5,33.5C 219.5,32.5 219.5,31.5 219.5,30.5C 215.069,30.2307 210.735,30.564 206.5,31.5C 206.5,30.8333 206.5,30.1667 206.5,29.5 Z"/></g>
<g><path style="opacity:1" fill="#b6b6b6" d="M 265.5,29.5 C 265.5,31.1667 265.5,32.8333 265.5,34.5C 263.5,34.5 261.5,34.5 259.5,34.5C 260.919,33.5489 262.585,33.2155 264.5,33.5C 264.5,32.5 264.5,31.5 264.5,30.5C 259.167,30.5 253.833,30.5 248.5,30.5C 248.5,31.5 248.5,32.5 248.5,33.5C 250.099,33.2322 251.432,33.5655 252.5,34.5C 250.833,34.5 249.167,34.5 247.5,34.5C 247.5,32.8333 247.5,31.1667 247.5,29.5C 253.5,29.5 259.5,29.5 265.5,29.5 Z"/></g>
<g><path style="opacity:1" fill="#c7c7c7" d="M 282.5,31.5 C 278.85,30.3252 275.183,30.3252 271.5,31.5C 271.5,31.1667 271.5,30.8333 271.5,30.5C 275.562,28.8243 279.229,29.1576 282.5,31.5 Z"/></g>
<g><path style="opacity:1" fill="#cccccc" d="M 72.5,28.5 C 76.938,27.4251 78.938,29.0917 78.5,33.5C 76.5,33.5 74.5,33.5 72.5,33.5C 72.5,31.8333 72.5,30.1667 72.5,28.5 Z"/></g>
<g><path style="opacity:1" fill="#d1d1d1" d="M 125.5,29.5 C 125.833,30.1667 126.167,30.8333 126.5,31.5C 121.847,30.9992 117.514,31.6658 113.5,33.5C 113.5,32.8333 113.5,32.1667 113.5,31.5C 113.918,30.7784 114.584,30.2784 115.5,30C 118.817,29.5017 122.15,29.335 125.5,29.5 Z"/></g>
<g><path style="opacity:1" fill="#686868" d="M 125.5,29.5 C 127.5,29.5 128.5,30.5 128.5,32.5C 127.833,32.1667 127.167,31.8333 126.5,31.5C 126.167,30.8333 125.833,30.1667 125.5,29.5 Z"/></g>
<g><path style="opacity:1" fill="#989898" d="M 146.5,29.5 C 148.027,29.427 149.027,30.0937 149.5,31.5C 147.973,31.573 146.973,30.9063 146.5,29.5 Z"/></g>
<g><path style="opacity:1" fill="#5a5a5a" d="M 170.5,29.5 C 170.666,33.5138 170.499,37.5138 170,41.5C 169.292,40.6195 168.458,39.9528 167.5,39.5C 167.5,38.8333 167.5,38.1667 167.5,37.5C 168.117,37.6107 168.617,37.944 169,38.5C 169.181,35.3054 169.681,32.3054 170.5,29.5 Z"/></g>
<g><path style="opacity:1" fill="#646464" d="M 170.5,29.5 C 171.449,28.8476 172.615,28.5143 174,28.5C 175.973,28.3094 177.473,28.976 178.5,30.5C 177.528,39.4458 177.194,48.4458 177.5,57.5C 175.265,57.7947 173.265,57.4614 171.5,56.5C 172.833,56.5 174.167,56.5 175.5,56.5C 175.5,47.5 175.5,38.5 175.5,29.5C 174.167,29.5 172.833,29.5 171.5,29.5C 171.167,29.5 170.833,29.5 170.5,29.5 Z"/></g>
<g><path style="opacity:1" fill="#535353" d="M 181.5,29.5 C 181.334,38.5062 181.5,47.5062 182,56.5C 183.699,57.4061 185.533,57.7394 187.5,57.5C 185.44,58.8112 183.274,58.8112 181,57.5C 180.176,47.9908 180.342,38.6575 181.5,29.5 Z"/></g>
<g><path style="opacity:1" fill="#535353" d="M 205.5,29.5 C 205.334,38.5062 205.5,47.5062 206,56.5C 211.072,57.4714 216.238,57.8047 221.5,57.5C 216.099,58.8248 210.599,58.8248 205,57.5C 204.176,47.9908 204.342,38.6575 205.5,29.5 Z"/></g>
<g><path style="opacity:1" fill="#989898" d="M 238.5,29.5 C 240.027,29.427 241.027,30.0937 241.5,31.5C 239.973,31.573 238.973,30.9063 238.5,29.5 Z"/></g>
<g><path style="opacity:1" fill="#5d5d5d" d="M 238.5,29.5 C 238.5,29.1667 238.5,28.8333 238.5,28.5C 240.492,28.3285 242.158,28.9951 243.5,30.5C 247.478,28.9438 251.645,28.2771 256,28.5C 259.352,28.5018 262.518,28.8351 265.5,29.5C 259.5,29.5 253.5,29.5 247.5,29.5C 247.5,31.1667 247.5,32.8333 247.5,34.5C 249.167,34.5 250.833,34.5 252.5,34.5C 252.833,34.5 253.167,34.5 253.5,34.5C 253.5,41.8333 253.5,49.1667 253.5,56.5C 252.509,49.6866 252.175,42.6866 252.5,35.5C 250.5,35.5 248.5,35.5 246.5,35.5C 246.67,36.8221 246.337,37.9887 245.5,39C 242.961,39.7958 240.628,39.6291 238.5,38.5C 238.833,38.5 239.167,38.5 239.5,38.5C 241.167,38.5 242.833,38.5 244.5,38.5C 244.834,35.509 243.834,33.1757 241.5,31.5C 241.027,30.0937 240.027,29.427 238.5,29.5 Z"/></g>
<g><path style="opacity:1" fill="#c5c5c5" d="M 79.5,25.5 C 75.2448,26.402 70.9115,27.402 66.5,28.5C 66.4026,31.5936 65.4026,34.2602 63.5,36.5C 59.9319,36.2407 58.5985,34.2407 59.5,30.5C 63.0412,32.3631 65.3745,31.3631 66.5,27.5C 70.6259,25.7189 74.9592,25.0522 79.5,25.5 Z"/></g>
<g><path style="opacity:1" fill="#e9e9e9" d="M 140.5,29.5 C 142.5,29.5 144.5,29.5 146.5,29.5C 146.973,30.9063 147.973,31.573 149.5,31.5C 150.5,31.8333 151.167,32.5 151.5,33.5C 151.666,40.175 151.5,46.8417 151,53.5C 150.617,54.056 150.117,54.3893 149.5,54.5C 146.752,54.5983 146.086,53.5983 147.5,51.5C 148.117,45.4018 147.45,39.7351 145.5,34.5C 143.643,33.2463 141.643,33.2463 139.5,34.5C 138.184,40.3204 138.184,45.9871 139.5,51.5C 139.5,52.1667 139.833,52.5 140.5,52.5C 142.167,53.8333 143.833,55.1667 145.5,56.5C 143.265,56.7947 141.265,56.4614 139.5,55.5C 138.828,54.7326 137.995,54.0659 137,53.5C 136.5,46.8417 136.334,40.175 136.5,33.5C 137.625,32.0001 138.959,30.6668 140.5,29.5 Z"/></g>
<g><path style="opacity:1" fill="#b7b7b7" d="M 157.5,29.5 C 159.5,29.5 161.5,29.5 163.5,29.5C 163.5,30.1667 163.5,30.8333 163.5,31.5C 161.274,29.82 159.607,30.1534 158.5,32.5C 157.868,40.5729 158.535,48.2395 160.5,55.5C 161.166,50.6511 161.833,45.6511 162.5,40.5C 163.425,41.3569 164.092,42.3569 164.5,43.5C 162.57,47.3727 161.903,51.706 162.5,56.5C 160.958,57.3007 159.292,57.634 157.5,57.5C 157.5,48.1667 157.5,38.8333 157.5,29.5 Z"/></g>
<g><path style="opacity:1" fill="#737373" d="M 163.5,29.5 C 164.906,29.9731 165.573,30.9731 165.5,32.5C 164.833,32.1667 164.167,31.8333 163.5,31.5C 163.5,30.8333 163.5,30.1667 163.5,29.5 Z"/></g>
<g><path style="opacity:1" fill="#8d8d8d" d="M 170.5,29.5 C 170.833,29.5 171.167,29.5 171.5,29.5C 171.5,34.1667 171.5,38.8333 171.5,43.5C 169.167,43.1667 167.833,41.8333 167.5,39.5C 168.458,39.9528 169.292,40.6195 170,41.5C 170.499,37.5138 170.666,33.5138 170.5,29.5 Z"/></g>
<g><path style="opacity:1" fill="#cccccc" d="M 171.5,29.5 C 172.833,29.5 174.167,29.5 175.5,29.5C 175.5,38.5 175.5,47.5 175.5,56.5C 174.167,56.5 172.833,56.5 171.5,56.5C 170.094,56.0269 169.427,55.0269 169.5,53.5C 169.443,52.391 169.11,51.391 168.5,50.5C 169.925,52.2939 171.592,53.9605 173.5,55.5C 174.833,47.1667 174.833,38.8333 173.5,30.5C 172.833,34.9822 172.166,39.3155 171.5,43.5C 171.5,38.8333 171.5,34.1667 171.5,29.5 Z"/></g>
<g><path style="opacity:1" fill="#9d9d9d" d="M 181.5,29.5 C 183.5,29.5 185.5,29.5 187.5,29.5C 187.5,29.8333 187.5,30.1667 187.5,30.5C 185.856,30.2865 184.356,30.6198 183,31.5C 182.177,39.6775 182.344,47.6775 183.5,55.5C 184.209,56.404 185.209,56.7373 186.5,56.5C 186.334,52.1539 186.501,47.8206 187,43.5C 188.461,42.1175 189.294,42.4508 189.5,44.5C 187.57,48.3727 186.903,52.706 187.5,57.5C 185.533,57.7394 183.699,57.4061 182,56.5C 181.5,47.5062 181.334,38.5062 181.5,29.5 Z"/></g>
<g><path style="opacity:1" fill="#d3d3d3" d="M 198.5,31.5 C 199.493,39.6499 199.826,47.9832 199.5,56.5C 198.167,57.8333 196.833,57.8333 195.5,56.5C 195.443,55.391 195.11,54.391 194.5,53.5C 195.583,53.5394 196.583,53.8728 197.5,54.5C 198.497,46.8622 198.831,39.1955 198.5,31.5 Z"/></g>
<g><path style="opacity:1" fill="#afafaf" d="M 195.5,29.5 C 197.167,29.5 198.833,29.5 200.5,29.5C 200.5,38.5 200.5,47.5 200.5,56.5C 200.167,56.5 199.833,56.5 199.5,56.5C 199.826,47.9832 199.493,39.6499 198.5,31.5C 198.44,30.9569 198.107,30.6236 197.5,30.5C 196.833,34.6475 196.166,38.6475 195.5,42.5C 195.5,38.1667 195.5,33.8333 195.5,29.5 Z"/></g>
<g><path style="opacity:1" fill="#757575" d="M 195.5,29.5 C 197.5,28.1667 199.5,28.1667 201.5,29.5C 201.827,38.6822 201.493,47.6822 200.5,56.5C 200.5,47.5 200.5,38.5 200.5,29.5C 198.833,29.5 197.167,29.5 195.5,29.5 Z"/></g>
<g><path style="opacity:1" fill="#4f4f4f" d="M 201.5,29.5 C 202.658,38.6575 202.824,47.9908 202,57.5C 199.599,58.6023 197.099,58.769 194.5,58C 192.626,54.9549 190.96,51.7883 189.5,48.5C 188.833,51.6417 188.166,54.6417 187.5,57.5C 186.903,52.706 187.57,48.3727 189.5,44.5C 189.5,45.1667 189.833,45.5 190.5,45.5C 191.234,46.7079 191.567,48.0413 191.5,49.5C 191.427,51.0269 192.094,52.0269 193.5,52.5C 193.5,52.8333 193.5,53.1667 193.5,53.5C 193.427,55.0269 194.094,56.0269 195.5,56.5C 196.833,57.8333 198.167,57.8333 199.5,56.5C 199.833,56.5 200.167,56.5 200.5,56.5C 201.493,47.6822 201.827,38.6822 201.5,29.5 Z"/></g>
<g><path style="opacity:1" fill="#e2e2e2" d="M 282.5,31.5 C 283.167,31.5 283.833,31.5 284.5,31.5C 284.557,32.609 284.89,33.609 285.5,34.5C 285.666,39.5111 285.499,44.5111 285,49.5C 284.751,50.624 284.251,51.624 283.5,52.5C 282.893,52.3764 282.56,52.0431 282.5,51.5C 282.666,45.8236 282.499,40.1569 282,34.5C 279.726,33.1888 277.56,33.1888 275.5,34.5C 273.55,39.7351 272.883,45.4018 273.5,51.5C 274.562,52.5754 274.562,53.5754 273.5,54.5C 272.583,53.8728 271.583,53.5394 270.5,53.5C 269.833,53.1667 269.167,52.8333 268.5,52.5C 268.5,46.1667 268.5,39.8333 268.5,33.5C 269.5,32.8333 270.5,32.1667 271.5,31.5C 275.183,30.3252 278.85,30.3252 282.5,31.5 Z"/></g>
<g><path style="opacity:1" fill="#bbbbbb" d="M 291.5,29.5 C 294.059,29.1984 296.393,29.5318 298.5,30.5C 296.265,30.2053 294.265,30.5386 292.5,31.5C 291.866,39.9032 292.533,47.9032 294.5,55.5C 294.833,55.5 295.167,55.5 295.5,55.5C 295.5,55.8333 295.5,56.1667 295.5,56.5C 295.5,56.8333 295.5,57.1667 295.5,57.5C 294.167,57.5 292.833,57.5 291.5,57.5C 291.5,48.1667 291.5,38.8333 291.5,29.5 Z"/></g>
<g><path style="opacity:1" fill="#5b5b5b" d="M 309.5,29.5 C 309.5,30.1667 309.5,30.8333 309.5,31.5C 308.289,34.2658 306.956,36.9325 305.5,39.5C 305.981,36.4776 306.647,33.4776 307.5,30.5C 308.183,30.1373 308.85,29.8039 309.5,29.5 Z"/></g>
<g><path style="opacity:1" fill="#a0a0a0" d="M 309.5,29.5 C 312.167,29.5 314.833,29.5 317.5,29.5C 317.5,38.8333 317.5,48.1667 317.5,57.5C 315.585,57.7845 313.919,57.4511 312.5,56.5C 313.108,51.0557 312.442,46.0557 310.5,41.5C 310.908,40.3569 311.575,39.3569 312.5,38.5C 313.496,44.4632 313.829,50.4632 313.5,56.5C 314.5,56.5 315.5,56.5 316.5,56.5C 316.826,47.9832 316.493,39.6499 315.5,31.5C 313.611,30.2584 311.611,30.2584 309.5,31.5C 309.5,30.8333 309.5,30.1667 309.5,29.5 Z"/></g>
<g><path style="opacity:1" fill="#4a4a4a" d="M 321.5,29.5 C 321.173,38.6822 321.507,47.6822 322.5,56.5C 327.305,57.4872 332.305,57.8205 337.5,57.5C 332.099,58.8248 326.599,58.8248 321,57.5C 320.176,47.9908 320.342,38.6575 321.5,29.5 Z"/></g>
<g><path style="opacity:1" fill="#747474" d="M 337.5,29.5 C 332.5,29.5 327.5,29.5 322.5,29.5C 322.5,38.5 322.5,47.5 322.5,56.5C 321.507,47.6822 321.173,38.6822 321.5,29.5C 326.833,28.1667 332.167,28.1667 337.5,29.5 Z"/></g>
<g><path style="opacity:1" fill="#a9a9a9" d="M 337.5,29.5 C 337.5,31.1667 337.5,32.8333 337.5,34.5C 334.5,34.5 331.5,34.5 328.5,34.5C 330.948,33.5269 333.615,33.1936 336.5,33.5C 336.5,32.5 336.5,31.5 336.5,30.5C 332.486,30.3345 328.486,30.5012 324.5,31C 323.167,39.3333 323.167,47.6667 324.5,56C 328.821,56.499 333.154,56.6657 337.5,56.5C 337.5,56.8333 337.5,57.1667 337.5,57.5C 332.305,57.8205 327.305,57.4872 322.5,56.5C 322.5,47.5 322.5,38.5 322.5,29.5C 327.5,29.5 332.5,29.5 337.5,29.5 Z"/></g>
<g><path style="opacity:1" fill="#e1e1e1" d="M 328.5,34.5 C 327.539,36.2646 327.205,38.2646 327.5,40.5C 326.834,37.9723 326.168,35.3056 325.5,32.5C 324.503,39.8032 324.169,47.1365 324.5,54.5C 325.552,54.6495 326.552,54.4828 327.5,54C 326.182,50.7312 326.182,47.5645 327.5,44.5C 327.5,47.1667 327.5,49.8333 327.5,52.5C 330.833,52.5 334.167,52.5 337.5,52.5C 337.5,53.8333 337.5,55.1667 337.5,56.5C 333.154,56.6657 328.821,56.499 324.5,56C 323.167,47.6667 323.167,39.3333 324.5,31C 328.486,30.5012 332.486,30.3345 336.5,30.5C 336.5,31.5 336.5,32.5 336.5,33.5C 333.615,33.1936 330.948,33.5269 328.5,34.5 Z"/></g>
<g><path style="opacity:1" fill="#a5a5a5" d="M 140.5,29.5 C 138.959,30.6668 137.625,32.0001 136.5,33.5C 136.167,33.5 135.833,33.5 135.5,33.5C 135.5,32.8333 135.5,32.1667 135.5,31.5C 135.842,30.6618 136.508,30.3284 137.5,30.5C 138.391,29.8902 139.391,29.5569 140.5,29.5 Z"/></g>
<g><path style="opacity:1" fill="#f4f4f4" d="M 158.5,32.5 C 163.168,31.8394 165.168,33.8394 164.5,38.5C 163.167,38.5 161.833,38.5 160.5,38.5C 160.5,44.1667 160.5,49.8333 160.5,55.5C 158.535,48.2395 157.868,40.5729 158.5,32.5 Z"/></g>
<g><path style="opacity:1" fill="#f3f3f3" d="M 168.5,50.5 C 168.5,50.1667 168.5,49.8333 168.5,49.5C 168.5,48.5 168.5,47.5 168.5,46.5C 169.5,46.5 170.5,46.5 171.5,46.5C 171.5,45.5 171.5,44.5 171.5,43.5C 172.166,39.3155 172.833,34.9822 173.5,30.5C 174.833,38.8333 174.833,47.1667 173.5,55.5C 171.592,53.9605 169.925,52.2939 168.5,50.5 Z"/></g>
<g><path style="opacity:1" fill="#e5e5e5" d="M 187.5,30.5 C 188.155,33.9639 189.155,37.2973 190.5,40.5C 188.833,40.5 187.167,40.5 185.5,40.5C 186.108,45.9443 185.442,50.9443 183.5,55.5C 182.344,47.6775 182.177,39.6775 183,31.5C 184.356,30.6198 185.856,30.2865 187.5,30.5 Z"/></g>
<g><path style="opacity:1" fill="#efefef" d="M 198.5,31.5 C 198.831,39.1955 198.497,46.8622 197.5,54.5C 196.583,53.8728 195.583,53.5394 194.5,53.5C 194.167,53.5 193.833,53.5 193.5,53.5C 193.5,53.1667 193.5,52.8333 193.5,52.5C 193.573,50.9731 192.906,49.9731 191.5,49.5C 191.567,48.0413 191.234,46.7079 190.5,45.5C 190.238,44.0222 190.571,42.6888 191.5,41.5C 192.386,42.325 192.719,43.325 192.5,44.5C 194.179,44.7148 195.179,44.0481 195.5,42.5C 196.166,38.6475 196.833,34.6475 197.5,30.5C 198.107,30.6236 198.44,30.9569 198.5,31.5 Z"/></g>
<g><path style="opacity:1" fill="#d9d9d9" d="M 211.5,34.5 C 211.5,36.5 211.5,38.5 211.5,40.5C 210.834,37.9723 210.168,35.3056 209.5,32.5C 208.503,39.8032 208.169,47.1365 208.5,54.5C 209.5,54.5 210.5,54.5 211.5,54.5C 211.5,53.5 211.5,52.5 211.5,51.5C 214.833,51.5 218.167,51.5 221.5,51.5C 221.5,53.1667 221.5,54.8333 221.5,56.5C 216.57,56.8025 211.737,56.4692 207,55.5C 206.5,47.5069 206.334,39.5069 206.5,31.5C 210.735,30.564 215.069,30.2307 219.5,30.5C 219.5,31.5 219.5,32.5 219.5,33.5C 216.615,33.1936 213.948,33.5269 211.5,34.5 Z"/></g>
<g><path style="opacity:1" fill="#efefef" d="M 211.5,40.5 C 213.369,41.1646 215.369,41.8313 217.5,42.5C 215.369,43.1687 213.369,43.8354 211.5,44.5C 211.5,45.1667 211.5,45.8333 211.5,46.5C 211.5,48.1667 211.5,49.8333 211.5,51.5C 211.5,52.5 211.5,53.5 211.5,54.5C 210.5,54.5 209.5,54.5 208.5,54.5C 208.169,47.1365 208.503,39.8032 209.5,32.5C 210.168,35.3056 210.834,37.9723 211.5,40.5 Z"/></g>
<g><path style="opacity:1" fill="#a5a5a5" d="M 232.5,29.5 C 230.862,30.8322 229.196,32.1655 227.5,33.5C 227.5,32.8333 227.5,32.1667 227.5,31.5C 227.842,30.6618 228.508,30.3284 229.5,30.5C 230.391,29.8902 231.391,29.5569 232.5,29.5 Z"/></g>
<g><path style="opacity:1" fill="#eeeeee" d="M 259.5,34.5 C 257.539,41.0869 256.872,48.0869 257.5,55.5C 256.5,55.5 255.5,55.5 254.5,55.5C 254.825,48.3134 254.491,41.3134 253.5,34.5C 253.167,34.5 252.833,34.5 252.5,34.5C 251.432,33.5655 250.099,33.2322 248.5,33.5C 248.5,32.5 248.5,31.5 248.5,30.5C 253.833,30.5 259.167,30.5 264.5,30.5C 264.5,31.5 264.5,32.5 264.5,33.5C 262.585,33.2155 260.919,33.5489 259.5,34.5 Z"/></g>
<g><path style="opacity:1" fill="#f3f3f3" d="M 292.5,31.5 C 294.5,31.5 296.5,31.5 298.5,31.5C 298.5,33.1667 298.5,34.8333 298.5,36.5C 297.167,36.5 295.833,36.5 294.5,36.5C 294.5,42.8333 294.5,49.1667 294.5,55.5C 292.533,47.9032 291.866,39.9032 292.5,31.5 Z"/></g>
<g><path style="opacity:1" fill="#f4f4f4" d="M 327.5,40.5 C 329.698,41.1653 332.031,41.8319 334.5,42.5C 332.031,43.1681 329.698,43.8347 327.5,44.5C 326.182,47.5645 326.182,50.7312 327.5,54C 326.552,54.4828 325.552,54.6495 324.5,54.5C 324.169,47.1365 324.503,39.8032 325.5,32.5C 326.168,35.3056 326.834,37.9723 327.5,40.5 Z"/></g>
<g><path style="opacity:1" fill="#d4d4d4" d="M 88.5,31.5 C 88.5,32.8333 88.5,34.1667 88.5,35.5C 85.5,35.8333 84.1667,34.5 84.5,31.5C 85.8333,31.5 87.1667,31.5 88.5,31.5 Z"/></g>
<g><path style="opacity:1" fill="#585858" d="M 187.5,30.5 C 187.5,30.1667 187.5,29.8333 187.5,29.5C 188.5,29.5 189.5,29.5 190.5,29.5C 190.917,32.3433 191.917,35.01 193.5,37.5C 194.168,34.6944 194.834,32.0277 195.5,29.5C 195.5,33.8333 195.5,38.1667 195.5,42.5C 194.167,42.5 193.5,41.8333 193.5,40.5C 193.5,39.1667 192.833,38.5 191.5,38.5C 191.13,35.2901 189.797,32.6235 187.5,30.5 Z"/></g>
<g><path style="opacity:1" fill="#ececec" d="M 232.5,29.5 C 234.5,29.5 236.5,29.5 238.5,29.5C 238.973,30.9063 239.973,31.573 241.5,31.5C 242.519,33.5405 242.519,35.5405 241.5,37.5C 240.824,36.3984 240.158,35.3984 239.5,34.5C 238.833,34.5 238.167,34.5 237.5,34.5C 235.643,33.2463 233.643,33.2463 231.5,34.5C 230.184,40.3204 230.184,45.9871 231.5,51.5C 231.5,52.1667 231.833,52.5 232.5,52.5C 234.167,53.8333 235.833,55.1667 237.5,56.5C 234.763,56.5987 232.096,56.2653 229.5,55.5C 228.833,55.5 228.167,55.5 227.5,55.5C 227.5,54.8333 227.5,54.1667 227.5,53.5C 226.209,46.8202 226.209,40.1535 227.5,33.5C 229.196,32.1655 230.862,30.8322 232.5,29.5 Z"/></g>
<g><path style="opacity:1" fill="#dfdfdf" d="M 43.5,18.5 C 44.5,18.5 45.5,18.5 46.5,18.5C 46.6567,19.8734 46.49,21.2068 46,22.5C 42.6735,25.4822 41.3402,29.1489 42,33.5C 43.0113,34.3366 44.1779,34.67 45.5,34.5C 46.8595,36.0093 46.3595,36.676 44,36.5C 40.803,35.3235 37.6364,35.3235 34.5,36.5C 32.1377,39.192 29.8044,41.8587 27.5,44.5C 27.1667,44.1667 26.8333,43.8333 26.5,43.5C 27.3195,41.0262 28.3195,38.6929 29.5,36.5C 31.768,34.9981 34.268,33.6648 37,32.5C 39.457,27.9221 41.6236,23.2554 43.5,18.5 Z"/></g>
<g><path style="opacity:1" fill="#686868" d="M 205.5,29.5 C 210.975,28.5111 216.642,28.1778 222.5,28.5C 222.5,30.8333 222.5,33.1667 222.5,35.5C 219.167,35.5 215.833,35.5 212.5,35.5C 212.5,36.8333 212.5,38.1667 212.5,39.5C 214.857,39.3367 217.19,39.5034 219.5,40C 220.767,41.7959 220.767,43.6293 219.5,45.5C 217.257,46.4742 214.924,46.8076 212.5,46.5C 214.5,45.8333 216.5,45.1667 218.5,44.5C 218.5,43.1667 218.5,41.8333 218.5,40.5C 216.167,40.5 213.833,40.5 211.5,40.5C 211.5,38.5 211.5,36.5 211.5,34.5C 214.833,34.5 218.167,34.5 221.5,34.5C 221.5,32.8333 221.5,31.1667 221.5,29.5C 216.5,29.5 211.5,29.5 206.5,29.5C 206.167,29.5 205.833,29.5 205.5,29.5 Z"/></g>
<g><path style="opacity:1" fill="#ececec" d="M 315.5,31.5 C 315.666,39.1739 315.5,46.8406 315,54.5C 314.667,48.8333 314.333,43.1667 314,37.5C 313.282,36.5494 312.449,36.3828 311.5,37C 310.789,38.2547 309.956,39.4214 309,40.5C 308.699,37.4929 308.865,34.4929 309.5,31.5C 311.611,30.2584 313.611,30.2584 315.5,31.5 Z"/></g>
<g><path style="opacity:1" fill="#747474" d="M 88.5,31.5 C 88.5,31.1667 88.5,30.8333 88.5,30.5C 90.357,32.2815 91.357,34.6148 91.5,37.5C 90.0149,35.7512 89.0149,33.7512 88.5,31.5 Z"/></g>
<g><path style="opacity:1" fill="#606060" d="M 113.5,31.5 C 113.5,32.1667 113.5,32.8333 113.5,33.5C 113.167,33.5 112.833,33.5 112.5,33.5C 111.509,39.979 111.176,46.6457 111.5,53.5C 110.181,46.656 110.181,39.656 111.5,32.5C 112.183,32.1373 112.85,31.8039 113.5,31.5 Z"/></g>
<g><path style="opacity:1" fill="#343434" d="M 123.5,35.5 C 123.5,36.8333 123.5,38.1667 123.5,39.5C 125.5,39.5 127.5,39.5 129.5,39.5C 130.496,39.5858 131.329,39.2524 132,38.5C 132.667,41.1667 132.667,43.8333 132,46.5C 129.263,45.3895 126.429,45.2228 123.5,46C 122.594,47.6995 122.261,49.5328 122.5,51.5C 121.167,51.5 119.833,51.5 118.5,51.5C 118.5,46.1667 118.5,40.8333 118.5,35.5C 120.167,35.5 121.833,35.5 123.5,35.5 Z"/></g>
<g><path style="opacity:1" fill="#505050" d="M 135.5,31.5 C 135.5,32.1667 135.5,32.8333 135.5,33.5C 134.182,36.2575 133.515,39.4242 133.5,43C 133.667,46.1667 133.833,49.3333 134,52.5C 134.383,53.056 134.883,53.3893 135.5,53.5C 135.5,54.1667 135.5,54.8333 135.5,55.5C 133.39,54.5475 132.223,52.8808 132,50.5C 131.722,51.4158 131.222,52.0825 130.5,52.5C 130.5,50.5 130.5,48.5 130.5,46.5C 128.473,46.3379 126.473,46.5045 124.5,47C 123.62,48.3561 123.286,49.8561 123.5,51.5C 123.167,51.5 122.833,51.5 122.5,51.5C 122.261,49.5328 122.594,47.6995 123.5,46C 126.429,45.2228 129.263,45.3895 132,46.5C 132.667,43.8333 132.667,41.1667 132,38.5C 131.329,39.2524 130.496,39.5858 129.5,39.5C 129.5,39.1667 129.5,38.8333 129.5,38.5C 129.5,36.8333 129.5,35.1667 129.5,33.5C 130.458,33.9528 131.292,34.6195 132,35.5C 132.416,33.4497 133.583,32.1164 135.5,31.5 Z"/></g>
<g><path style="opacity:1" fill="#3c3c3c" d="M 145.5,34.5 C 146.452,40.0748 146.786,45.7414 146.5,51.5C 146.167,51.5 145.833,51.5 145.5,51.5C 143.833,51.5 142.167,51.5 140.5,51.5C 140.5,46.1667 140.5,40.8333 140.5,35.5C 142.042,34.6993 143.708,34.366 145.5,34.5 Z"/></g>
<g><path style="opacity:1" fill="#8e8e8e" d="M 165.5,34.5 C 166.906,34.9731 167.573,35.9731 167.5,37.5C 166.094,37.0269 165.427,36.0269 165.5,34.5 Z"/></g>
<g><path style="opacity:1" fill="#535353" d="M 227.5,31.5 C 227.5,32.1667 227.5,32.8333 227.5,33.5C 226.182,36.2575 225.515,39.4242 225.5,43C 225.667,46.1667 225.833,49.3333 226,52.5C 226.383,53.056 226.883,53.3893 227.5,53.5C 227.5,54.1667 227.5,54.8333 227.5,55.5C 226.542,55.0472 225.708,54.3805 225,53.5C 224.169,46.4763 224.336,39.4763 225.5,32.5C 226.183,32.1373 226.85,31.8039 227.5,31.5 Z"/></g>
<g><path style="opacity:1" fill="#cbcbcb" d="M 253.5,34.5 C 254.491,41.3134 254.825,48.3134 254.5,55.5C 255.5,55.5 256.5,55.5 257.5,55.5C 256.872,48.0869 257.539,41.0869 259.5,34.5C 259.5,34.8333 259.5,35.1667 259.5,35.5C 258.509,42.3134 258.175,49.3134 258.5,56.5C 256.833,56.5 255.167,56.5 253.5,56.5C 253.5,49.1667 253.5,41.8333 253.5,34.5 Z"/></g>
<g><path style="opacity:1" fill="#9b9b9b" d="M 259.5,35.5 C 259.5,42.8333 259.5,50.1667 259.5,57.5C 257.265,57.7947 255.265,57.4614 253.5,56.5C 255.167,56.5 256.833,56.5 258.5,56.5C 258.175,49.3134 258.509,42.3134 259.5,35.5 Z"/></g>
<g><path style="opacity:1" fill="#515151" d="M 286.5,32.5 C 287.821,35.5982 288.488,39.0982 288.5,43C 288.499,46.6833 288.165,50.1833 287.5,53.5C 287.795,46.4122 287.462,39.4122 286.5,32.5 Z"/></g>
<g><path style="opacity:1" fill="#828282" d="M 328.5,34.5 C 331.5,34.5 334.5,34.5 337.5,34.5C 334.713,35.4767 331.713,35.81 328.5,35.5C 328.366,37.2915 328.699,38.9582 329.5,40.5C 328.833,40.5 328.167,40.5 327.5,40.5C 327.205,38.2646 327.539,36.2646 328.5,34.5 Z"/></g>
<g><path style="opacity:1" fill="#bcbcbc" d="M 145.5,34.5 C 143.708,34.366 142.042,34.6993 140.5,35.5C 139.512,40.6405 139.179,45.9738 139.5,51.5C 138.184,45.9871 138.184,40.3204 139.5,34.5C 141.643,33.2463 143.643,33.2463 145.5,34.5 Z"/></g>
<g><path style="opacity:1" fill="#bcbcbc" d="M 237.5,34.5 C 235.901,34.2322 234.568,34.5655 233.5,35.5C 233.167,35.5 232.833,35.5 232.5,35.5C 231.512,40.6405 231.179,45.9738 231.5,51.5C 230.184,45.9871 230.184,40.3204 231.5,34.5C 233.643,33.2463 235.643,33.2463 237.5,34.5 Z"/></g>
<g><path style="opacity:1" fill="#868686" d="M 233.5,35.5 C 234.568,34.5655 235.901,34.2322 237.5,34.5C 238.167,34.5 238.833,34.5 239.5,34.5C 239.5,35.8333 239.5,37.1667 239.5,38.5C 239.167,38.5 238.833,38.5 238.5,38.5C 238.5,37.5 238.5,36.5 238.5,35.5C 236.833,35.5 235.167,35.5 233.5,35.5 Z"/></g>
<g><path style="opacity:1" fill="#c3c3c3" d="M 275.5,34.5 C 277.56,33.1888 279.726,33.1888 282,34.5C 282.499,40.1569 282.666,45.8236 282.5,51.5C 282.167,51.5 281.833,51.5 281.5,51.5C 281.821,45.9738 281.488,40.6405 280.5,35.5C 279.081,34.5489 277.415,34.2155 275.5,34.5 Z"/></g>
<g><path style="opacity:1" fill="#d6d6d6" d="M 292.5,31.5 C 294.265,30.5386 296.265,30.2053 298.5,30.5C 299.496,33.7919 300.496,37.1253 301.5,40.5C 301.427,42.0269 302.094,43.0269 303.5,43.5C 303.5,44.1667 303.5,44.8333 303.5,45.5C 302.85,45.1961 302.183,44.8627 301.5,44.5C 300.548,46.0453 300.215,47.712 300.5,49.5C 299.236,45.6011 297.903,41.6011 296.5,37.5C 295.504,43.4632 295.171,49.4632 295.5,55.5C 295.167,55.5 294.833,55.5 294.5,55.5C 294.5,49.1667 294.5,42.8333 294.5,36.5C 295.833,36.5 297.167,36.5 298.5,36.5C 298.5,34.8333 298.5,33.1667 298.5,31.5C 296.5,31.5 294.5,31.5 292.5,31.5 Z"/></g>
<g><path style="opacity:1" fill="#b2b2b2" d="M 56.5,16.5 C 54.3076,21.9745 52.641,27.6411 51.5,33.5C 52.8333,33.5 54.1667,33.5 55.5,33.5C 55.5,32.1667 55.5,30.8333 55.5,29.5C 57.099,29.2322 58.4324,29.5655 59.5,30.5C 58.5985,34.2407 59.9319,36.2407 63.5,36.5C 63.5,36.8333 63.5,37.1667 63.5,37.5C 61.2933,40.0666 58.6266,41.7333 55.5,42.5C 55.5,43.1667 55.5,43.8333 55.5,44.5C 52.3201,44.6614 49.6535,45.6614 47.5,47.5C 44.8333,47.5 42.1667,47.5 39.5,47.5C 39.5,47.1667 39.5,46.8333 39.5,46.5C 38.4324,45.5655 37.099,45.2322 35.5,45.5C 34.4107,43.8829 32.744,43.0496 30.5,43C 33.2146,42.1253 34.5479,40.2919 34.5,37.5C 39.2142,37.3531 43.8809,37.6864 48.5,38.5C 48.5,39.5 48.5,40.5 48.5,41.5C 52.938,42.5749 54.938,40.9083 54.5,36.5C 51.3356,36.4422 48.3356,35.7755 45.5,34.5C 44.1779,34.67 43.0113,34.3366 42,33.5C 41.3402,29.1489 42.6735,25.4822 46,22.5C 46.49,21.2068 46.6567,19.8734 46.5,18.5C 49.6348,16.9767 52.9682,16.31 56.5,16.5 Z"/></g>
<g><path style="opacity:1" fill="#dfdfdf" d="M 45.5,25.5 C 46.8333,25.5 48.1667,25.5 49.5,25.5C 49.5,26.8333 49.5,28.1667 49.5,29.5C 48.1667,29.5 46.8333,29.5 45.5,29.5C 45.5,28.1667 45.5,26.8333 45.5,25.5 Z"/></g>
<g><path style="opacity:1" fill="#b8b8b8" d="M 112.5,33.5 C 112.5,39.5 112.5,45.5 112.5,51.5C 113.11,52.391 113.443,53.391 113.5,54.5C 112.833,54.1667 112.167,53.8333 111.5,53.5C 111.176,46.6457 111.509,39.979 112.5,33.5 Z"/></g>
<g><path style="opacity:1" fill="#eeeeee" d="M 126.5,31.5 C 127.167,31.8333 127.833,32.1667 128.5,32.5C 128.785,34.288 128.452,35.9547 127.5,37.5C 126.717,35.7118 125.384,34.7118 123.5,34.5C 123.209,33.3509 122.376,32.6842 121,32.5C 119.301,32.3866 118.134,33.0532 117.5,34.5C 116.174,40.9013 116.174,47.4013 117.5,54C 116.552,54.4828 115.552,54.6495 114.5,54.5C 114.715,52.8212 114.048,51.8212 112.5,51.5C 112.5,45.5 112.5,39.5 112.5,33.5C 112.833,33.5 113.167,33.5 113.5,33.5C 117.514,31.6658 121.847,30.9992 126.5,31.5 Z"/></g>
<g><path style="opacity:1" fill="#bebebe" d="M 123.5,34.5 C 121.5,34.5 119.5,34.5 117.5,34.5C 118.134,33.0532 119.301,32.3866 121,32.5C 122.376,32.6842 123.209,33.3509 123.5,34.5 Z"/></g>
<g><path style="opacity:1" fill="#636363" d="M 117.5,34.5 C 119.5,34.5 121.5,34.5 123.5,34.5C 123.5,34.8333 123.5,35.1667 123.5,35.5C 121.833,35.5 120.167,35.5 118.5,35.5C 118.5,40.8333 118.5,46.1667 118.5,51.5C 119.833,51.5 121.167,51.5 122.5,51.5C 122.833,51.5 123.167,51.5 123.5,51.5C 121.735,52.4614 119.735,52.7947 117.5,52.5C 117.5,46.5 117.5,40.5 117.5,34.5 Z"/></g>
<g><path style="opacity:1" fill="#c8c8c8" d="M 128.5,32.5 C 129.167,32.5 129.5,32.8333 129.5,33.5C 129.5,35.1667 129.5,36.8333 129.5,38.5C 126.642,38.9717 124.642,37.9717 123.5,35.5C 123.5,35.1667 123.5,34.8333 123.5,34.5C 125.384,34.7118 126.717,35.7118 127.5,37.5C 128.452,35.9547 128.785,34.288 128.5,32.5 Z"/></g>
<g><path style="opacity:1" fill="#9a9a9a" d="M 135.5,33.5 C 134.209,40.1535 134.209,46.8202 135.5,53.5C 134.883,53.3893 134.383,53.056 134,52.5C 133.833,49.3333 133.667,46.1667 133.5,43C 133.515,39.4242 134.182,36.2575 135.5,33.5 Z"/></g>
<g><path style="opacity:1" fill="#dedede" d="M 135.5,33.5 C 135.833,33.5 136.167,33.5 136.5,33.5C 136.334,40.175 136.5,46.8417 137,53.5C 137.995,54.0659 138.828,54.7326 139.5,55.5C 138.833,55.5 138.167,55.5 137.5,55.5C 136.833,55.5 136.167,55.5 135.5,55.5C 135.5,54.8333 135.5,54.1667 135.5,53.5C 134.209,46.8202 134.209,40.1535 135.5,33.5 Z"/></g>
<g><path style="opacity:1" fill="#6c6c6c" d="M 140.5,35.5 C 140.5,40.8333 140.5,46.1667 140.5,51.5C 142.167,51.5 143.833,51.5 145.5,51.5C 144.081,52.4511 142.415,52.7845 140.5,52.5C 139.833,52.5 139.5,52.1667 139.5,51.5C 139.179,45.9738 139.512,40.6405 140.5,35.5 Z"/></g>
<g><path style="opacity:1" fill="#8d8d8d" d="M 145.5,34.5 C 147.45,39.7351 148.117,45.4018 147.5,51.5C 147.167,51.5 146.833,51.5 146.5,51.5C 146.786,45.7414 146.452,40.0748 145.5,34.5 Z"/></g>
<g><path style="opacity:1" fill="#919191" d="M 151.5,33.5 C 151.833,33.5 152.167,33.5 152.5,33.5C 153.795,39.8027 153.795,46.1361 152.5,52.5C 152.5,54.5 151.5,55.5 149.5,55.5C 149.5,55.1667 149.5,54.8333 149.5,54.5C 150.117,54.3893 150.617,54.056 151,53.5C 151.5,46.8417 151.666,40.175 151.5,33.5 Z"/></g>
<g><path style="opacity:1" fill="#4a4a4a" d="M 152.5,33.5 C 153.816,36.0866 154.483,39.0866 154.5,42.5C 154.333,45.5 154.167,48.5 154,51.5C 153.617,52.056 153.117,52.3893 152.5,52.5C 153.795,46.1361 153.795,39.8027 152.5,33.5 Z"/></g>
<g><path style="opacity:1" fill="#9a9a9a" d="M 227.5,33.5 C 226.209,40.1535 226.209,46.8202 227.5,53.5C 226.883,53.3893 226.383,53.056 226,52.5C 225.833,49.3333 225.667,46.1667 225.5,43C 225.515,39.4242 226.182,36.2575 227.5,33.5 Z"/></g>
<g><path style="opacity:1" fill="#6c6c6c" d="M 232.5,35.5 C 232.5,40.5 232.5,45.5 232.5,50.5C 233.919,51.4511 235.585,51.7845 237.5,51.5C 236.081,52.4511 234.415,52.7845 232.5,52.5C 231.833,52.5 231.5,52.1667 231.5,51.5C 231.179,45.9738 231.512,40.6405 232.5,35.5 Z"/></g>
<g><path style="opacity:1" fill="#c4c4c4" d="M 241.5,31.5 C 243.834,33.1757 244.834,35.509 244.5,38.5C 242.833,38.5 241.167,38.5 239.5,38.5C 239.5,37.1667 239.5,35.8333 239.5,34.5C 240.158,35.3984 240.824,36.3984 241.5,37.5C 242.519,35.5405 242.519,33.5405 241.5,31.5 Z"/></g>
<g><path style="opacity:1" fill="#585858" d="M 265.5,29.5 C 266.302,30.9516 266.802,32.6183 267,34.5C 267.383,33.944 267.883,33.6107 268.5,33.5C 268.5,39.8333 268.5,46.1667 268.5,52.5C 267.883,52.3893 267.383,52.056 267,51.5C 266.501,46.1771 266.334,40.8437 266.5,35.5C 264.5,35.5 262.5,35.5 260.5,35.5C 260.825,43.0191 260.492,50.3524 259.5,57.5C 259.5,50.1667 259.5,42.8333 259.5,35.5C 259.5,35.1667 259.5,34.8333 259.5,34.5C 261.5,34.5 263.5,34.5 265.5,34.5C 265.5,32.8333 265.5,31.1667 265.5,29.5 Z"/></g>
<g><path style="opacity:1" fill="#8b8b8b" d="M 275.5,34.5 C 274.167,40.1667 274.167,45.8333 275.5,51.5C 274.833,51.5 274.167,51.5 273.5,51.5C 272.883,45.4018 273.55,39.7351 275.5,34.5 Z"/></g>
<g><path style="opacity:1" fill="#565656" d="M 275.5,34.5 C 277.415,34.2155 279.081,34.5489 280.5,35.5C 281.488,40.6405 281.821,45.9738 281.5,51.5C 281.167,51.5 280.833,51.5 280.5,51.5C 278.833,51.5 277.167,51.5 275.5,51.5C 274.167,45.8333 274.167,40.1667 275.5,34.5 Z"/></g>
<g><path style="opacity:1" fill="#333333" d="M 280.5,35.5 C 280.5,40.5 280.5,45.5 280.5,50.5C 279.167,50.5 277.833,50.5 276.5,50.5C 276.5,45.5 276.5,40.5 276.5,35.5C 277.833,35.5 279.167,35.5 280.5,35.5 Z"/></g>
<g><path style="opacity:1" fill="#969696" d="M 284.5,31.5 C 285.167,31.8333 285.833,32.1667 286.5,32.5C 287.462,39.4122 287.795,46.4122 287.5,53.5C 287.167,53.5 286.833,53.5 286.5,53.5C 286.823,46.9779 286.49,40.6446 285.5,34.5C 284.89,33.609 284.557,32.609 284.5,31.5 Z"/></g>
<g><path style="opacity:1" fill="#858585" d="M 91.5,37.5 C 92.7281,38.3065 93.7281,39.3065 94.5,40.5C 94.8333,41.1667 95.1667,41.8333 95.5,42.5C 94.8333,42.5 94.1667,42.5 93.5,42.5C 92.5592,40.9505 91.8925,39.2838 91.5,37.5 Z"/></g>
<g><path style="opacity:1" fill="#6c6c6c" d="M 123.5,35.5 C 124.642,37.9717 126.642,38.9717 129.5,38.5C 129.5,38.8333 129.5,39.1667 129.5,39.5C 127.5,39.5 125.5,39.5 123.5,39.5C 123.5,38.1667 123.5,36.8333 123.5,35.5 Z"/></g>
<g><path style="opacity:1" fill="#8f8f8f" d="M 191.5,38.5 C 192.833,38.5 193.5,39.1667 193.5,40.5C 192.167,40.5 191.5,39.8333 191.5,38.5 Z"/></g>
<g><path style="opacity:1" fill="#4c4c4c" d="M 94.5,40.5 C 96.0174,40.5106 97.1841,41.1772 98,42.5C 98.2695,45.2241 98.7695,47.8908 99.5,50.5C 99.229,53.0473 98.229,55.0473 96.5,56.5C 96.8333,55.1667 97.1667,53.8333 97.5,52.5C 97.5,50.8333 97.5,49.1667 97.5,47.5C 97.8799,45.302 97.2132,43.6354 95.5,42.5C 95.1667,41.8333 94.8333,41.1667 94.5,40.5 Z"/></g>
<g><path style="opacity:1" fill="#cdcdcd" d="M 187.5,30.5 C 189.797,32.6235 191.13,35.2901 191.5,38.5C 191.5,39.8333 192.167,40.5 193.5,40.5C 193.5,41.8333 194.167,42.5 195.5,42.5C 195.179,44.0481 194.179,44.7148 192.5,44.5C 192.719,43.325 192.386,42.325 191.5,41.5C 190.571,42.6888 190.238,44.0222 190.5,45.5C 189.833,45.5 189.5,45.1667 189.5,44.5C 189.294,42.4508 188.461,42.1175 187,43.5C 186.501,47.8206 186.334,52.1539 186.5,56.5C 185.209,56.7373 184.209,56.404 183.5,55.5C 185.442,50.9443 186.108,45.9443 185.5,40.5C 187.167,40.5 188.833,40.5 190.5,40.5C 189.155,37.2973 188.155,33.9639 187.5,30.5 Z"/></g>
<g><path style="opacity:1" fill="#cecece" d="M 309.5,31.5 C 308.865,34.4929 308.699,37.4929 309,40.5C 309.956,39.4214 310.789,38.2547 311.5,37C 312.449,36.3828 313.282,36.5494 314,37.5C 314.333,43.1667 314.667,48.8333 315,54.5C 315.5,46.8406 315.666,39.1739 315.5,31.5C 316.493,39.6499 316.826,47.9832 316.5,56.5C 315.5,56.5 314.5,56.5 313.5,56.5C 313.829,50.4632 313.496,44.4632 312.5,38.5C 311.575,39.3569 310.908,40.3569 310.5,41.5C 309.566,42.5676 309.232,43.901 309.5,45.5C 309.167,45.5 308.833,45.5 308.5,45.5C 308.719,44.325 308.386,43.325 307.5,42.5C 306.571,43.6888 306.238,45.0222 306.5,46.5C 305.209,46.7373 304.209,46.404 303.5,45.5C 304.833,45.5 305.5,44.8333 305.5,43.5C 305.5,42.1667 305.5,40.8333 305.5,39.5C 306.956,36.9325 308.289,34.2658 309.5,31.5 Z"/></g>
<g><path style="opacity:1" fill="#707071" d="M 63.5,37.5 C 62.413,41.5727 59.7464,43.2394 55.5,42.5C 58.6266,41.7333 61.2933,40.0666 63.5,37.5 Z"/></g>
<g><path style="opacity:1" fill="#838383" d="M 300.5,49.5 C 301.15,51.4352 301.483,53.4352 301.5,55.5C 299.528,52.9164 298.528,49.9164 298.5,46.5C 298.44,45.9569 298.107,45.6236 297.5,45.5C 296.833,49.3125 296.166,52.9792 295.5,56.5C 295.5,56.1667 295.5,55.8333 295.5,55.5C 295.171,49.4632 295.504,43.4632 296.5,37.5C 297.903,41.6011 299.236,45.6011 300.5,49.5 Z"/></g>
<g><path style="opacity:1" fill="#c4c4c4" d="M 327.5,40.5 C 328.167,40.5 328.833,40.5 329.5,40.5C 331.5,40.5 333.5,40.5 335.5,40.5C 335.5,41.8333 335.5,43.1667 335.5,44.5C 332.833,44.5 330.167,44.5 327.5,44.5C 329.698,43.8347 332.031,43.1681 334.5,42.5C 332.031,41.8319 329.698,41.1653 327.5,40.5 Z"/></g>
<g><path style="opacity:1" fill="#989898" d="M 301.5,40.5 C 302.167,40.8333 302.833,41.1667 303.5,41.5C 303.5,42.1667 303.5,42.8333 303.5,43.5C 302.094,43.0269 301.427,42.0269 301.5,40.5 Z"/></g>
<g><path style="opacity:1" fill="#777878" d="M 63.5,37.5 C 63.5,37.1667 63.5,36.8333 63.5,36.5C 65.5,36.5 67.5,36.5 69.5,36.5C 69.5383,41.4661 67.205,44.7995 62.5,46.5C 64.1271,44.3702 65.9604,42.3702 68,40.5C 68.4828,39.552 68.6495,38.552 68.5,37.5C 66.8333,37.5 65.1667,37.5 63.5,37.5 Z"/></g>
<g><path style="opacity:1" fill="#cacaca" d="M 211.5,40.5 C 213.833,40.5 216.167,40.5 218.5,40.5C 218.5,41.8333 218.5,43.1667 218.5,44.5C 216.167,44.5 213.833,44.5 211.5,44.5C 213.369,43.8354 215.369,43.1687 217.5,42.5C 215.369,41.8313 213.369,41.1646 211.5,40.5 Z"/></g>
<g><path style="opacity:1" fill="#7a7a7a" d="M 95.5,42.5 C 97.2132,43.6354 97.8799,45.302 97.5,47.5C 96.4625,46.0697 95.7959,44.403 95.5,42.5 Z"/></g>
<g><path style="opacity:1" fill="#9b9b9b" d="M 211.5,44.5 C 213.833,44.5 216.167,44.5 218.5,44.5C 216.5,45.1667 214.5,45.8333 212.5,46.5C 212.167,46.5 211.833,46.5 211.5,46.5C 211.5,45.8333 211.5,45.1667 211.5,44.5 Z"/></g>
<g><path style="opacity:1" fill="#7c7c7c" d="M 303.5,43.5 C 304.167,43.5 304.833,43.5 305.5,43.5C 305.5,44.8333 304.833,45.5 303.5,45.5C 303.5,44.8333 303.5,44.1667 303.5,43.5 Z"/></g>
<g><path style="opacity:1" fill="#b5b5b5" d="M 22.5,33.5 C 22.1667,36.5 23.5,37.8333 26.5,37.5C 26.1667,40.1667 25.8333,42.8333 25.5,45.5C 24.5,45.5 23.5,45.5 22.5,45.5C 22.5,47.1667 22.5,48.8333 22.5,50.5C 26.8306,51.5489 28.9973,49.8822 29,45.5C 29.4828,46.448 29.6495,47.448 29.5,48.5C 30.8333,48.5 32.1667,48.5 33.5,48.5C 33.1667,49.1667 32.8333,49.8333 32.5,50.5C 31.8342,53.1829 33.1675,54.5162 36.5,54.5C 36.6349,57.4175 35.9682,60.0842 34.5,62.5C 24.0456,63.5702 17.0456,59.0702 13.5,49C 15.0706,45.2398 16.5706,41.4064 18,37.5C 19.3712,35.9586 20.8712,34.6253 22.5,33.5 Z"/></g>
<g><path style="opacity:1" fill="#656566" d="M 35.5,45.5 C 37.099,45.2322 38.4324,45.5655 39.5,46.5C 38.0413,46.4326 36.7079,46.7659 35.5,47.5C 35.5,46.8333 35.5,46.1667 35.5,45.5 Z"/></g>
<g><path style="opacity:1" fill="#5c5c5d" d="M 55.5,44.5 C 55.3893,45.1174 55.056,45.6174 54.5,46C 52.0796,46.2904 49.7463,46.7904 47.5,47.5C 49.6535,45.6614 52.3201,44.6614 55.5,44.5 Z"/></g>
<g><path style="opacity:1" fill="#e1e1e1" d="M 163.5,31.5 C 164.167,31.8333 164.833,32.1667 165.5,32.5C 165.5,33.1667 165.5,33.8333 165.5,34.5C 165.427,36.0269 166.094,37.0269 167.5,37.5C 167.5,38.1667 167.5,38.8333 167.5,39.5C 167.833,41.8333 169.167,43.1667 171.5,43.5C 171.5,44.5 171.5,45.5 171.5,46.5C 170.5,46.5 169.5,46.5 168.5,46.5C 168.5,47.5 168.5,48.5 168.5,49.5C 167.9,48.0998 166.9,47.0998 165.5,46.5C 165.5,46.1667 165.5,45.8333 165.5,45.5C 165.672,44.5084 165.338,43.8417 164.5,43.5C 164.092,42.3569 163.425,41.3569 162.5,40.5C 161.833,45.6511 161.166,50.6511 160.5,55.5C 160.5,49.8333 160.5,44.1667 160.5,38.5C 161.833,38.5 163.167,38.5 164.5,38.5C 165.168,33.8394 163.168,31.8394 158.5,32.5C 159.607,30.1534 161.274,29.82 163.5,31.5 Z"/></g>
<g><path style="opacity:1" fill="#515151" d="M 244.5,53.5 C 244.756,51.2075 244.423,49.0408 243.5,47C 239.508,45.8228 237.842,47.3228 238.5,51.5C 238.167,51.5 237.833,51.5 237.5,51.5C 235.585,51.7845 233.919,51.4511 232.5,50.5C 233.833,50.5 235.167,50.5 236.5,50.5C 236.238,49.0222 236.571,47.6888 237.5,46.5C 245.902,43.5632 248.235,45.8966 244.5,53.5 Z"/></g>
<g><path style="opacity:1" fill="#7d7d7d" d="M 164.5,43.5 C 165.338,43.8417 165.672,44.5084 165.5,45.5C 164.883,45.3893 164.383,45.056 164,44.5C 163.824,48.6877 163.324,52.6877 162.5,56.5C 161.903,51.706 162.57,47.3727 164.5,43.5 Z"/></g>
<g><path style="opacity:1" fill="#535353" d="M 157.5,29.5 C 157.5,38.8333 157.5,48.1667 157.5,57.5C 159.292,57.634 160.958,57.3007 162.5,56.5C 163.324,52.6877 163.824,48.6877 164,44.5C 164.383,45.056 164.883,45.3893 165.5,45.5C 165.5,45.8333 165.5,46.1667 165.5,46.5C 165.5,47.1667 165.5,47.8333 165.5,48.5C 164.681,51.3054 164.181,54.3054 164,57.5C 161.619,58.435 159.119,58.7683 156.5,58.5C 156.173,48.6522 156.506,38.9856 157.5,29.5 Z"/></g>
<g><path style="opacity:1" fill="#4c4c4c" d="M 312.5,56.5 C 313.919,57.4511 315.585,57.7845 317.5,57.5C 315.712,58.6225 313.712,58.7891 311.5,58C 310.877,55.3927 310.21,52.8927 309.5,50.5C 309.5,48.8333 309.5,47.1667 309.5,45.5C 310.117,45.3893 310.617,45.056 311,44.5C 311.176,48.6877 311.676,52.6877 312.5,56.5 Z"/></g>
<g><path style="opacity:1" fill="#808080" d="M 310.5,41.5 C 312.442,46.0557 313.108,51.0557 312.5,56.5C 311.676,52.6877 311.176,48.6877 311,44.5C 310.617,45.056 310.117,45.3893 309.5,45.5C 309.232,43.901 309.566,42.5676 310.5,41.5 Z"/></g>
<g><path style="opacity:1" fill="#4c4d4e" d="M 60.5,47.5 C 60.5,47.8333 60.5,48.1667 60.5,48.5C 57.9039,49.2653 55.2372,49.5987 52.5,49.5C 54.6353,47.631 57.3019,46.9644 60.5,47.5 Z"/></g>
<g><path style="opacity:1" fill="#dedede" d="M 89.5,40.5 C 89.762,41.9778 89.4287,43.3112 88.5,44.5C 85.7523,45.8129 82.919,46.8129 80,47.5C 79.51,48.7932 79.3433,50.1266 79.5,51.5C 80.5,51.5 81.5,51.5 82.5,51.5C 82.5,52.5 82.5,53.5 82.5,54.5C 81.0222,54.762 79.6888,54.4287 78.5,53.5C 78.0576,52.2613 77.3909,51.2613 76.5,50.5C 72.7412,48.3175 68.7412,48.1509 64.5,50C 63.6634,51.0113 63.33,52.1779 63.5,53.5C 62.1667,53.5 60.8333,53.5 59.5,53.5C 59.5,52.5 59.5,51.5 59.5,50.5C 59.5,49.8333 59.8333,49.5 60.5,49.5C 63.0842,49.4312 65.0842,48.2645 66.5,46C 69.5,45.6667 72.5,45.3333 75.5,45C 77.229,43.2111 77.8957,41.0444 77.5,38.5C 79.1667,38.5 80.8333,38.5 82.5,38.5C 82.7733,40.451 82.1066,41.951 80.5,43C 81.8333,43.6667 83.1667,43.6667 84.5,43C 85.6174,41.1079 87.2841,40.2746 89.5,40.5 Z"/></g>
<g><path style="opacity:1" fill="#8f8f8f" d="M 165.5,46.5 C 166.9,47.0998 167.9,48.0998 168.5,49.5C 168.5,49.8333 168.5,50.1667 168.5,50.5C 169.11,51.391 169.443,52.391 169.5,53.5C 167.818,52.1727 166.485,50.5061 165.5,48.5C 165.5,47.8333 165.5,47.1667 165.5,46.5 Z"/></g>
<g><path style="opacity:1" fill="#a0a0a0" d="M 244.5,53.5 C 244.167,53.5 243.833,53.5 243.5,53.5C 243.5,51.8333 243.5,50.1667 243.5,48.5C 242.167,48.5 240.833,48.5 239.5,48.5C 239.737,49.791 239.404,50.791 238.5,51.5C 237.842,47.3228 239.508,45.8228 243.5,47C 244.423,49.0408 244.756,51.2075 244.5,53.5 Z"/></g>
<g><path style="opacity:1" fill="#ececec" d="M 308.5,45.5 C 308.5,46.1667 308.5,46.8333 308.5,47.5C 307.883,47.6107 307.383,47.944 307,48.5C 306.505,50.4727 306.338,52.4727 306.5,54.5C 305.167,54.5 303.833,54.5 302.5,54.5C 302.88,52.302 302.213,50.6354 300.5,49.5C 300.215,47.712 300.548,46.0453 301.5,44.5C 302.183,44.8627 302.85,45.1961 303.5,45.5C 304.209,46.404 305.209,46.7373 306.5,46.5C 306.238,45.0222 306.571,43.6888 307.5,42.5C 308.386,43.325 308.719,44.325 308.5,45.5 Z"/></g>
<g><path style="opacity:1" fill="#1e1f21" d="M 63.5,37.5 C 65.1667,37.5 66.8333,37.5 68.5,37.5C 68.6495,38.552 68.4828,39.552 68,40.5C 65.9604,42.3702 64.1271,44.3702 62.5,46.5C 61.8333,46.8333 61.1667,47.1667 60.5,47.5C 57.3019,46.9644 54.6353,47.631 52.5,49.5C 50.8007,49.5271 49.4674,50.1938 48.5,51.5C 45.7332,52.0507 43.3999,53.3841 41.5,55.5C 39.439,53.4369 37.1056,51.7703 34.5,50.5C 35.1272,49.5832 35.4606,48.5832 35.5,47.5C 36.7079,46.7659 38.0413,46.4326 39.5,46.5C 39.5,46.8333 39.5,47.1667 39.5,47.5C 39.9704,48.6935 40.9704,49.3601 42.5,49.5C 44.5566,49.5643 46.2233,48.8976 47.5,47.5C 49.7463,46.7904 52.0796,46.2904 54.5,46C 55.056,45.6174 55.3893,45.1174 55.5,44.5C 55.5,43.8333 55.5,43.1667 55.5,42.5C 59.7464,43.2394 62.413,41.5727 63.5,37.5 Z"/></g>
<g><path style="opacity:1" fill="#787879" d="M 39.5,47.5 C 42.1667,47.5 44.8333,47.5 47.5,47.5C 46.2233,48.8976 44.5566,49.5643 42.5,49.5C 40.9704,49.3601 39.9704,48.6935 39.5,47.5 Z"/></g>
<g><path style="opacity:1" fill="#b3b3b3" d="M 76.5,50.5 C 76.5,52.1667 76.5,53.8333 76.5,55.5C 79.461,55.4642 81.7943,56.4642 83.5,58.5C 79.8333,58.5 76.1667,58.5 72.5,58.5C 73.4161,54.0122 71.5828,52.6789 67,54.5C 66.51,55.7932 66.3433,57.1266 66.5,58.5C 68.1667,58.5 69.8333,58.5 71.5,58.5C 71.1667,59.1667 70.8333,59.8333 70.5,60.5C 69.8333,60.8333 69.1667,61.1667 68.5,61.5C 64.9173,61.7297 61.9173,63.063 59.5,65.5C 59.1583,66.3382 58.4916,66.6716 57.5,66.5C 54.8333,67.1667 52.1667,67.8333 49.5,68.5C 46.1174,69.8891 43.1174,69.2224 40.5,66.5C 40.7076,64.0799 40.3742,61.7466 39.5,59.5C 41.0217,58.438 42.6883,57.7713 44.5,57.5C 45.5521,59.256 47.2188,59.9227 49.5,59.5C 49.5,58.1667 49.5,56.8333 49.5,55.5C 48.5,55.5 47.5,55.5 46.5,55.5C 47.5511,54.7777 48.2178,53.7777 48.5,52.5C 51.9863,51.0475 55.653,50.3808 59.5,50.5C 59.5,51.5 59.5,52.5 59.5,53.5C 60.8333,53.5 62.1667,53.5 63.5,53.5C 63.33,52.1779 63.6634,51.0113 64.5,50C 68.7412,48.1509 72.7412,48.3175 76.5,50.5 Z"/></g>
<g><path style="opacity:1" fill="#7e7e7e" d="M 130.5,52.5 C 130.167,52.5 129.833,52.5 129.5,52.5C 129.5,50.8333 129.5,49.1667 129.5,47.5C 127.901,47.2322 126.568,47.5655 125.5,48.5C 124.833,49.5 124.167,50.5 123.5,51.5C 123.286,49.8561 123.62,48.3561 124.5,47C 126.473,46.5045 128.473,46.3379 130.5,46.5C 130.5,48.5 130.5,50.5 130.5,52.5 Z"/></g>
<g><path style="opacity:1" fill="#565656" d="M 298.5,46.5 C 298.125,50.4425 297.125,54.1091 295.5,57.5C 295.5,57.1667 295.5,56.8333 295.5,56.5C 296.166,52.9792 296.833,49.3125 297.5,45.5C 298.107,45.6236 298.44,45.9569 298.5,46.5 Z"/></g>
<g><path style="opacity:1" fill="#cacaca" d="M 24.5,31.5 C 25.4959,31.4142 26.3292,31.7476 27,32.5C 27.1216,34.437 27.955,35.7703 29.5,36.5C 28.3195,38.6929 27.3195,41.0262 26.5,43.5C 26.8333,43.8333 27.1667,44.1667 27.5,44.5C 29.8044,41.8587 32.1377,39.192 34.5,36.5C 37.6364,35.3235 40.803,35.3235 44,36.5C 46.3595,36.676 46.8595,36.0093 45.5,34.5C 48.3356,35.7755 51.3356,36.4422 54.5,36.5C 54.938,40.9083 52.938,42.5749 48.5,41.5C 48.5,40.5 48.5,39.5 48.5,38.5C 43.8809,37.6864 39.2142,37.3531 34.5,37.5C 34.5479,40.2919 33.2146,42.1253 30.5,43C 32.744,43.0496 34.4107,43.8829 35.5,45.5C 35.5,46.1667 35.5,46.8333 35.5,47.5C 35.1667,47.5 34.8333,47.5 34.5,47.5C 34.5,48.1667 34.1667,48.5 33.5,48.5C 32.1667,48.5 30.8333,48.5 29.5,48.5C 29.6495,47.448 29.4828,46.448 29,45.5C 28.9973,49.8822 26.8306,51.5489 22.5,50.5C 22.5,48.8333 22.5,47.1667 22.5,45.5C 23.5,45.5 24.5,45.5 25.5,45.5C 25.8333,42.8333 26.1667,40.1667 26.5,37.5C 23.5,37.8333 22.1667,36.5 22.5,33.5C 22.5,32.1667 23.1667,31.5 24.5,31.5 Z"/></g>
<g><path style="opacity:1" fill="#ebebeb" d="M 34.5,47.5 C 33.5,47.5 32.5,47.5 31.5,47.5C 31.5,46.5 31.5,45.5 31.5,44.5C 32.5,44.5 33.5,44.5 34.5,44.5C 34.5,45.5 34.5,46.5 34.5,47.5 Z"/></g>
<g><path style="opacity:1" fill="#8c8d8d" d="M 60.5,48.5 C 60.5,48.8333 60.5,49.1667 60.5,49.5C 59.8333,49.5 59.5,49.8333 59.5,50.5C 55.653,50.3808 51.9863,51.0475 48.5,52.5C 48.5,52.1667 48.5,51.8333 48.5,51.5C 49.4674,50.1938 50.8007,49.5271 52.5,49.5C 55.2372,49.5987 57.9039,49.2653 60.5,48.5 Z"/></g>
<g><path style="opacity:1" fill="#bfbfbf" d="M 125.5,48.5 C 126.568,47.5655 127.901,47.2322 129.5,47.5C 129.5,49.1667 129.5,50.8333 129.5,52.5C 129.5,52.8333 129.5,53.1667 129.5,53.5C 129.167,53.5 128.833,53.5 128.5,53.5C 128.5,51.8333 128.5,50.1667 128.5,48.5C 127.5,48.5 126.5,48.5 125.5,48.5 Z"/></g>
<g><path style="opacity:1" fill="#4b4b4b" d="M 335.5,45.5 C 334.081,46.4511 332.415,46.7845 330.5,46.5C 330.5,47.8333 330.5,49.1667 330.5,50.5C 333.059,50.1984 335.393,50.5318 337.5,51.5C 334.5,51.5 331.5,51.5 328.5,51.5C 328.5,49.5 328.5,47.5 328.5,45.5C 330.833,45.5 333.167,45.5 335.5,45.5 Z"/></g>
<g><path style="opacity:1" fill="#8c8c8c" d="M 191.5,49.5 C 192.906,49.9731 193.573,50.9731 193.5,52.5C 192.094,52.0269 191.427,51.0269 191.5,49.5 Z"/></g>
<g><path style="opacity:1" fill="#949494" d="M 327.5,44.5 C 330.167,44.5 332.833,44.5 335.5,44.5C 335.5,44.8333 335.5,45.1667 335.5,45.5C 333.167,45.5 330.833,45.5 328.5,45.5C 328.5,47.5 328.5,49.5 328.5,51.5C 331.5,51.5 334.5,51.5 337.5,51.5C 337.5,51.8333 337.5,52.1667 337.5,52.5C 334.167,52.5 330.833,52.5 327.5,52.5C 327.5,49.8333 327.5,47.1667 327.5,44.5 Z"/></g>
<g><path style="opacity:1" fill="#d9d9d9" d="M 285.5,34.5 C 286.49,40.6446 286.823,46.9779 286.5,53.5C 285.5,54.5 284.5,55.5 283.5,56.5C 279.434,56.693 275.434,56.3597 271.5,55.5C 271.167,54.8333 270.833,54.1667 270.5,53.5C 271.583,53.5394 272.583,53.8728 273.5,54.5C 274.562,53.5754 274.562,52.5754 273.5,51.5C 274.167,51.5 274.833,51.5 275.5,51.5C 277.038,54.0479 278.704,54.0479 280.5,51.5C 280.833,51.5 281.167,51.5 281.5,51.5C 281.833,51.5 282.167,51.5 282.5,51.5C 282.56,52.0431 282.893,52.3764 283.5,52.5C 284.251,51.624 284.751,50.624 285,49.5C 285.499,44.5111 285.666,39.5111 285.5,34.5 Z"/></g>
<g><path style="opacity:1" fill="#9d9d9d" d="M 275.5,51.5 C 277.167,51.5 278.833,51.5 280.5,51.5C 278.704,54.0479 277.038,54.0479 275.5,51.5 Z"/></g>
<g><path style="opacity:1" fill="#7d7d7d" d="M 308.5,45.5 C 308.833,45.5 309.167,45.5 309.5,45.5C 309.5,47.1667 309.5,48.8333 309.5,50.5C 309.068,51.7095 308.401,52.7095 307.5,53.5C 307.517,51.4352 307.85,49.4352 308.5,47.5C 308.5,46.8333 308.5,46.1667 308.5,45.5 Z"/></g>
<g><path style="opacity:1" fill="#bfbfbf" d="M 89.5,40.5 C 90.4674,41.8062 91.8007,42.4729 93.5,42.5C 94.1667,42.5 94.8333,42.5 95.5,42.5C 95.7959,44.403 96.4625,46.0697 97.5,47.5C 97.5,49.1667 97.5,50.8333 97.5,52.5C 97.1667,52.5 96.8333,52.5 96.5,52.5C 96.4157,47.5331 95.0823,47.1997 92.5,51.5C 91.5713,50.3112 91.238,48.9778 91.5,47.5C 90.1667,47.5 88.8333,47.5 87.5,47.5C 87.2471,49.8273 87.9137,51.8273 89.5,53.5C 88.3112,54.4287 86.9778,54.762 85.5,54.5C 85.5,55.8333 85.5,57.1667 85.5,58.5C 84.8333,58.5 84.1667,58.5 83.5,58.5C 81.7943,56.4642 79.461,55.4642 76.5,55.5C 76.5,53.8333 76.5,52.1667 76.5,50.5C 77.3909,51.2613 78.0576,52.2613 78.5,53.5C 79.6888,54.4287 81.0222,54.762 82.5,54.5C 82.5,53.5 82.5,52.5 82.5,51.5C 81.5,51.5 80.5,51.5 79.5,51.5C 79.3433,50.1266 79.51,48.7932 80,47.5C 82.919,46.8129 85.7523,45.8129 88.5,44.5C 89.4287,43.3112 89.762,41.9778 89.5,40.5 Z"/></g>
<g><path style="opacity:1" fill="#d2d2d2" d="M 117.5,34.5 C 117.5,40.5 117.5,46.5 117.5,52.5C 119.735,52.7947 121.735,52.4614 123.5,51.5C 124.167,50.5 124.833,49.5 125.5,48.5C 126.5,48.5 127.5,48.5 128.5,48.5C 128.5,50.1667 128.5,51.8333 128.5,53.5C 127.833,54.1667 127.167,54.8333 126.5,55.5C 122.5,56.8333 118.5,56.8333 114.5,55.5C 113.833,55.5 113.5,55.1667 113.5,54.5C 113.443,53.391 113.11,52.391 112.5,51.5C 114.048,51.8212 114.715,52.8212 114.5,54.5C 115.552,54.6495 116.552,54.4828 117.5,54C 116.174,47.4013 116.174,40.9013 117.5,34.5 Z"/></g>
<g><path style="opacity:1" fill="#d1d1d1" d="M 145.5,51.5 C 145.833,51.5 146.167,51.5 146.5,51.5C 146.833,51.5 147.167,51.5 147.5,51.5C 146.086,53.5983 146.752,54.5983 149.5,54.5C 149.5,54.8333 149.5,55.1667 149.5,55.5C 148.508,55.3284 147.842,55.6618 147.5,56.5C 146.833,56.5 146.167,56.5 145.5,56.5C 143.833,55.1667 142.167,53.8333 140.5,52.5C 142.415,52.7845 144.081,52.4511 145.5,51.5 Z"/></g>
<g><path style="opacity:1" fill="#d8d8d8" d="M 243.5,53.5 C 242.128,54.5116 240.795,55.5116 239.5,56.5C 238.833,56.5 238.167,56.5 237.5,56.5C 235.833,55.1667 234.167,53.8333 232.5,52.5C 234.415,52.7845 236.081,52.4511 237.5,51.5C 237.833,51.5 238.167,51.5 238.5,51.5C 239.404,50.791 239.737,49.791 239.5,48.5C 240.833,48.5 242.167,48.5 243.5,48.5C 243.5,50.1667 243.5,51.8333 243.5,53.5 Z"/></g>
<g><path style="opacity:1" fill="#5b5b5b" d="M 337.5,51.5 C 338.693,51.9704 339.36,52.9704 339.5,54.5C 339.36,56.0296 338.693,57.0296 337.5,57.5C 337.5,57.1667 337.5,56.8333 337.5,56.5C 337.5,55.1667 337.5,53.8333 337.5,52.5C 337.5,52.1667 337.5,51.8333 337.5,51.5 Z"/></g>
<g><path style="opacity:1" fill="#dbdbdb" d="M 20.5,53.5 C 22.1667,53.5 23.8333,53.5 25.5,53.5C 25.5,54.8333 25.5,56.1667 25.5,57.5C 22.0504,58.2436 20.3838,56.9103 20.5,53.5 Z"/></g>
<g><path style="opacity:1" fill="#8f8f8f" d="M 193.5,53.5 C 193.833,53.5 194.167,53.5 194.5,53.5C 195.11,54.391 195.443,55.391 195.5,56.5C 194.094,56.0269 193.427,55.0269 193.5,53.5 Z"/></g>
<g><path style="opacity:1" fill="#c3c3c3" d="M 308.5,47.5 C 307.85,49.4352 307.517,51.4352 307.5,53.5C 306.287,57.6295 304.287,58.2961 301.5,55.5C 301.483,53.4352 301.15,51.4352 300.5,49.5C 302.213,50.6354 302.88,52.302 302.5,54.5C 303.833,54.5 305.167,54.5 306.5,54.5C 306.338,52.4727 306.505,50.4727 307,48.5C 307.383,47.944 307.883,47.6107 308.5,47.5 Z"/></g>
<g><path style="opacity:1" fill="#464748" d="M 34.5,47.5 C 34.8333,47.5 35.1667,47.5 35.5,47.5C 35.4606,48.5832 35.1272,49.5832 34.5,50.5C 37.1056,51.7703 39.439,53.4369 41.5,55.5C 43.3999,53.3841 45.7332,52.0507 48.5,51.5C 48.5,51.8333 48.5,52.1667 48.5,52.5C 45.8508,54.14 43.1841,55.8067 40.5,57.5C 38.3816,54.3711 35.7149,52.0378 32.5,50.5C 32.8333,49.8333 33.1667,49.1667 33.5,48.5C 34.1667,48.5 34.5,48.1667 34.5,47.5 Z"/></g>
<g><path style="opacity:1" fill="#c9c9c9" d="M 72.5,58.5 C 72.1667,58.5 71.8333,58.5 71.5,58.5C 69.8333,58.5 68.1667,58.5 66.5,58.5C 66.3433,57.1266 66.51,55.7932 67,54.5C 71.5828,52.6789 73.4161,54.0122 72.5,58.5 Z"/></g>
<g><path style="opacity:1" fill="#dbdbdb" d="M 96.5,52.5 C 95.0164,58.0338 91.3498,60.0338 85.5,58.5C 85.5,57.1667 85.5,55.8333 85.5,54.5C 86.9778,54.762 88.3112,54.4287 89.5,53.5C 87.9137,51.8273 87.2471,49.8273 87.5,47.5C 88.8333,47.5 90.1667,47.5 91.5,47.5C 91.238,48.9778 91.5713,50.3112 92.5,51.5C 95.0823,47.1997 96.4157,47.5331 96.5,52.5 Z"/></g>
<g><path style="opacity:1" fill="#555555" d="M 268.5,52.5 C 269.167,52.8333 269.833,53.1667 270.5,53.5C 270.833,54.1667 271.167,54.8333 271.5,55.5C 271.833,56.1667 272.167,56.8333 272.5,57.5C 269.516,57.2132 268.183,55.5465 268.5,52.5 Z"/></g>
<g><path style="opacity:1" fill="#9c9c9c" d="M 32.5,50.5 C 35.7149,52.0378 38.3816,54.3711 40.5,57.5C 43.1841,55.8067 45.8508,54.14 48.5,52.5C 48.2178,53.7777 47.5511,54.7777 46.5,55.5C 45.5,55.8333 44.8333,56.5 44.5,57.5C 42.6883,57.7713 41.0217,58.438 39.5,59.5C 40.3742,61.7466 40.7076,64.0799 40.5,66.5C 40.1667,66.5 39.8333,66.5 39.5,66.5C 39.5,64.8333 39.5,63.1667 39.5,61.5C 37.7085,61.366 36.0418,61.6993 34.5,62.5C 35.9682,60.0842 36.6349,57.4175 36.5,54.5C 33.1675,54.5162 31.8342,53.1829 32.5,50.5 Z"/></g>
<g><path style="opacity:1" fill="#a1a1a1" d="M 114.5,56.5 C 114.5,56.1667 114.5,55.8333 114.5,55.5C 118.5,56.8333 122.5,56.8333 126.5,55.5C 126.389,56.1174 126.056,56.6174 125.5,57C 121.745,57.7554 118.078,57.5887 114.5,56.5 Z"/></g>
<g><path style="opacity:1" fill="#a8a8a8" d="M 137.5,55.5 C 138.167,55.5 138.833,55.5 139.5,55.5C 141.265,56.4614 143.265,56.7947 145.5,56.5C 146.167,56.5 146.833,56.5 147.5,56.5C 147.5,56.8333 147.5,57.1667 147.5,57.5C 144.482,57.6646 141.482,57.498 138.5,57C 137.944,56.6174 137.611,56.1174 137.5,55.5 Z"/></g>
<g><path style="opacity:1" fill="#696969" d="M 149.5,55.5 C 149.5,56.8333 148.833,57.5 147.5,57.5C 147.5,57.1667 147.5,56.8333 147.5,56.5C 147.842,55.6618 148.508,55.3284 149.5,55.5 Z"/></g>
<g><path style="opacity:1" fill="#999999" d="M 205.5,29.5 C 205.833,29.5 206.167,29.5 206.5,29.5C 206.5,30.1667 206.5,30.8333 206.5,31.5C 206.334,39.5069 206.5,47.5069 207,55.5C 211.737,56.4692 216.57,56.8025 221.5,56.5C 221.5,56.8333 221.5,57.1667 221.5,57.5C 216.238,57.8047 211.072,57.4714 206,56.5C 205.5,47.5062 205.334,38.5062 205.5,29.5 Z"/></g>
<g><path style="opacity:1" fill="#a8a8a8" d="M 229.5,55.5 C 232.096,56.2653 234.763,56.5987 237.5,56.5C 238.167,56.5 238.833,56.5 239.5,56.5C 239.5,56.8333 239.5,57.1667 239.5,57.5C 236.482,57.6646 233.482,57.498 230.5,57C 229.944,56.6174 229.611,56.1174 229.5,55.5 Z"/></g>
<g><path style="opacity:1" fill="#636363" d="M 243.5,53.5 C 243.833,53.5 244.167,53.5 244.5,53.5C 243.871,55.9971 242.204,57.3304 239.5,57.5C 239.5,57.1667 239.5,56.8333 239.5,56.5C 240.795,55.5116 242.128,54.5116 243.5,53.5 Z"/></g>
<g><path style="opacity:1" fill="#9e9e9e" d="M 271.5,55.5 C 275.434,56.3597 279.434,56.693 283.5,56.5C 280.038,57.4816 276.371,57.815 272.5,57.5C 272.167,56.8333 271.833,56.1667 271.5,55.5 Z"/></g>
<g><path style="opacity:1" fill="#4f4f4f" d="M 128.5,53.5 C 128.833,53.5 129.167,53.5 129.5,53.5C 128.134,57.8941 125.134,59.5608 120.5,58.5C 118.048,58.4609 116.048,57.7943 114.5,56.5C 118.078,57.5887 121.745,57.7554 125.5,57C 126.056,56.6174 126.389,56.1174 126.5,55.5C 127.167,54.8333 127.833,54.1667 128.5,53.5 Z"/></g>
<g><path style="opacity:1" fill="#d0d0d0" d="M 29.5,55.5 C 31.5,55.5 33.5,55.5 35.5,55.5C 35.5,56.8333 35.5,58.1667 35.5,59.5C 33.5,59.5 31.5,59.5 29.5,59.5C 29.5,58.1667 29.5,56.8333 29.5,55.5 Z"/></g>
<g><path style="opacity:1" fill="#d8d8d8" d="M 46.5,55.5 C 47.5,55.5 48.5,55.5 49.5,55.5C 49.5,56.8333 49.5,58.1667 49.5,59.5C 47.2188,59.9227 45.5521,59.256 44.5,57.5C 44.8333,56.5 45.5,55.8333 46.5,55.5 Z"/></g>
<g><path style="opacity:1" fill="#d9d9d9" d="M 56.5,55.5 C 59.5,55.1667 60.8333,56.5 60.5,59.5C 58.8333,59.5 57.1667,59.5 55.5,59.5C 55.4326,58.0413 55.7659,56.7079 56.5,55.5 Z"/></g>
<g><path style="opacity:1" fill="#878787" d="M 96.5,52.5 C 96.8333,52.5 97.1667,52.5 97.5,52.5C 97.1667,53.8333 96.8333,55.1667 96.5,56.5C 95.5994,58.7271 93.9328,59.7271 91.5,59.5C 87.5,59.5 83.5,59.5 79.5,59.5C 76.4299,59.3677 73.4299,59.701 70.5,60.5C 70.8333,59.8333 71.1667,59.1667 71.5,58.5C 71.8333,58.5 72.1667,58.5 72.5,58.5C 76.1667,58.5 79.8333,58.5 83.5,58.5C 84.1667,58.5 84.8333,58.5 85.5,58.5C 91.3498,60.0338 95.0164,58.0338 96.5,52.5 Z"/></g>
<g><path style="opacity:1" fill="#575757" d="M 79.5,59.5 C 83.5,59.5 87.5,59.5 91.5,59.5C 90.5081,61.0265 89.0081,61.6932 87,61.5C 84.2402,61.3538 81.7402,60.6872 79.5,59.5 Z"/></g>
<g><path style="opacity:1" fill="#6c6c6c" d="M 40.5,19.5 C 37.9454,21.6903 34.9454,23.1903 31.5,24C 28.9614,26.3697 26.6281,28.8697 24.5,31.5C 23.1667,31.5 22.5,32.1667 22.5,33.5C 20.8712,34.6253 19.3712,35.9586 18,37.5C 16.5706,41.4064 15.0706,45.2398 13.5,49C 17.0456,59.0702 24.0456,63.5702 34.5,62.5C 36.0418,61.6993 37.7085,61.366 39.5,61.5C 39.5,63.1667 39.5,64.8333 39.5,66.5C 38.7326,65.828 38.0659,64.9947 37.5,64C 28.4842,65.1529 20.9842,62.6529 15,56.5C 12.0358,52.0939 11.7025,47.4272 14,42.5C 18.1945,34.9762 23.6945,28.4762 30.5,23C 33.7961,21.4893 37.1294,20.3226 40.5,19.5 Z"/></g>
<g><path style="opacity:1" fill="#d6d6d6" d="M 49.5,68.5 C 48.1667,68.5 46.8333,68.5 45.5,68.5C 45.5,67.1667 45.5,65.8333 45.5,64.5C 47.1667,64.5 48.8333,64.5 50.5,64.5C 50.5674,65.9587 50.2341,67.2921 49.5,68.5 Z"/></g>
<g><path style="opacity:1" fill="#666666" d="M 68.5,61.5 C 67.0975,62.9312 65.4308,64.0978 63.5,65C 62.2068,65.49 60.8734,65.6567 59.5,65.5C 61.9173,63.063 64.9173,61.7297 68.5,61.5 Z"/></g>
<g><path style="opacity:1" fill="#9a9a9a" d="M 370.5,16.5 C 374.167,16.5 377.833,16.5 381.5,16.5C 386.931,16.6718 391.931,18.0051 396.5,20.5C 397.793,22.2959 399.293,23.9625 401,25.5C 402.083,38.6746 401.583,51.6746 399.5,64.5C 397.101,66.3661 394.435,67.6994 391.5,68.5C 388.848,68.4095 386.515,69.0762 384.5,70.5C 376.833,70.5 369.167,70.5 361.5,70.5C 359.898,68.9261 357.898,68.2594 355.5,68.5C 352.794,68.3122 350.461,67.3122 348.5,65.5C 347.878,64.3734 347.045,63.3734 346,62.5C 345.167,49.8202 345.334,37.1535 346.5,24.5C 347.855,23.8118 348.855,22.8118 349.5,21.5C 356.375,19.1871 363.375,17.5205 370.5,16.5 Z"/></g>
<g><path style="opacity:1" fill="#6e6e6e" d="M 354.5,64.5 C 364.041,66.2761 373.707,66.9427 383.5,66.5C 380.45,67.9352 377.117,68.6019 373.5,68.5C 368.161,68.0661 362.827,67.5661 357.5,67C 356.429,66.1482 355.429,65.3149 354.5,64.5 Z"/></g>
<g><path style="opacity:1" fill="#686868" d="M 391.5,64.5 C 389.898,66.0739 387.898,66.7406 385.5,66.5C 387.102,64.9261 389.102,64.2594 391.5,64.5 Z"/></g>
<g><path style="opacity:1" fill="#4d4d4d" d="M 350.5,25.5 C 350.333,37.1714 350.5,48.8381 351,60.5C 352.045,61.3734 352.878,62.3734 353.5,63.5C 351.983,63.4894 350.816,62.8228 350,61.5C 349.174,49.3262 349.34,37.3262 350.5,25.5 Z"/></g>
<g><path style="opacity:1" fill="#5a5a5a" d="M 392.5,64.5 C 393.315,63.1634 394.482,62.1634 396,61.5C 396.667,49.8333 396.667,38.1667 396,26.5C 395.5,26 395,25.5 394.5,25C 385.403,20.824 375.736,19.4907 365.5,21C 360.319,22.079 355.319,23.579 350.5,25.5C 352.741,22.6188 355.741,20.9522 359.5,20.5C 368.167,19.1667 376.833,19.1667 385.5,20.5C 390.032,20.6828 393.865,22.3495 397,25.5C 397.667,37.8333 397.667,50.1667 397,62.5C 395.67,63.5822 394.17,64.2488 392.5,64.5 Z"/></g>
<g><path style="opacity:1" fill="#353535" d="M 392.5,64.5 C 392.167,64.5 391.833,64.5 391.5,64.5C 389.102,64.2594 387.102,64.9261 385.5,66.5C 384.833,66.5 384.167,66.5 383.5,66.5C 373.707,66.9427 364.041,66.2761 354.5,64.5C 353.833,64.5 353.5,64.1667 353.5,63.5C 352.878,62.3734 352.045,61.3734 351,60.5C 350.5,48.8381 350.333,37.1714 350.5,25.5C 355.319,23.579 360.319,22.079 365.5,21C 375.736,19.4907 385.403,20.824 394.5,25C 395,25.5 395.5,26 396,26.5C 396.667,38.1667 396.667,49.8333 396,61.5C 394.482,62.1634 393.315,63.1634 392.5,64.5 Z"/></g>
<g><path style="opacity:1" fill="#949494" d="M 368.5,31.5 C 369.493,39.6499 369.826,47.9832 369.5,56.5C 366.629,56.6545 363.629,56.9878 360.5,57.5C 358.696,57.0135 357.029,56.3468 355.5,55.5C 355.5,50.1667 355.5,44.8333 355.5,39.5C 355.427,37.9731 356.094,36.9731 357.5,36.5C 360.167,36.5 362.833,36.5 365.5,36.5C 365.5,37.8333 365.5,39.1667 365.5,40.5C 366.166,45.0166 366.833,49.6833 367.5,54.5C 368.497,46.8622 368.831,39.1955 368.5,31.5 Z"/></g>
<g><path style="opacity:1" fill="#535353" d="M 355.5,39.5 C 355.5,44.8333 355.5,50.1667 355.5,55.5C 354.009,52.8136 353.343,49.8136 353.5,46.5C 353.667,44.5 353.833,42.5 354,40.5C 354.383,39.944 354.883,39.6107 355.5,39.5 Z"/></g>
<g><path style="opacity:1" fill="#4a4a4a" d="M 391.5,38.5 C 392.65,43.3158 392.816,48.3158 392,53.5C 391.617,54.056 391.117,54.3893 390.5,54.5C 390.5,53.8333 390.5,53.1667 390.5,52.5C 391.486,48.03 391.819,43.3633 391.5,38.5 Z"/></g>
<g><path style="opacity:1" fill="#6e6e6e" d="M 361.5,39.5 C 362.791,39.2627 363.791,39.596 364.5,40.5C 363.178,40.33 362.011,40.6634 361,41.5C 360.502,44.8168 360.335,48.1501 360.5,51.5C 360.167,51.5 359.833,51.5 359.5,51.5C 359.335,47.8183 359.501,44.1516 360,40.5C 360.383,39.944 360.883,39.6107 361.5,39.5 Z"/></g>
<g><path style="opacity:1" fill="#7a7a7a" d="M 387.5,35.5 C 388.926,36.3412 390.26,37.3412 391.5,38.5C 391.819,43.3633 391.486,48.03 390.5,52.5C 390.879,47.7027 390.379,43.036 389,38.5C 386.619,37.565 384.119,37.2317 381.5,37.5C 380.833,37.5 380.5,37.1667 380.5,36.5C 382.806,36.0074 385.139,35.6741 387.5,35.5 Z"/></g>
<g><path style="opacity:1" fill="#9f9f9f" d="M 381.5,37.5 C 384.119,37.2317 386.619,37.565 389,38.5C 390.379,43.036 390.879,47.7027 390.5,52.5C 390.5,53.1667 390.5,53.8333 390.5,54.5C 388.455,56.9844 385.788,57.9844 382.5,57.5C 382.179,55.9519 381.179,55.2852 379.5,55.5C 379.179,50.3054 379.513,45.3054 380.5,40.5C 380.334,44.5138 380.501,48.5138 381,52.5C 382.356,53.3802 383.856,53.7135 385.5,53.5C 385.5,49.1667 385.5,44.8333 385.5,40.5C 384.552,39.0221 383.219,38.0221 381.5,37.5 Z"/></g>
<g><path style="opacity:1" fill="#4f4f4f" d="M 380.5,40.5 C 382.167,40.5 383.833,40.5 385.5,40.5C 385.5,44.8333 385.5,49.1667 385.5,53.5C 383.856,53.7135 382.356,53.3802 381,52.5C 380.501,48.5138 380.334,44.5138 380.5,40.5 Z"/></g>
<g><path style="opacity:1" fill="#333333" d="M 382.5,41.5 C 383.787,42.8714 384.453,44.7047 384.5,47C 384.167,48.8333 383.833,50.6667 383.5,52.5C 382.511,48.8927 382.177,45.226 382.5,41.5 Z"/></g>
<g><path style="opacity:1" fill="#575757" d="M 364.5,40.5 C 364.833,40.5 365.167,40.5 365.5,40.5C 365.5,44.8333 365.5,49.1667 365.5,53.5C 363.901,53.7678 362.568,53.4345 361.5,52.5C 362.5,52.5 363.5,52.5 364.5,52.5C 364.5,48.5 364.5,44.5 364.5,40.5 Z"/></g>
<g><path style="opacity:1" fill="#3b3b3b" d="M 364.5,40.5 C 364.5,44.5 364.5,48.5 364.5,52.5C 363.5,52.5 362.5,52.5 361.5,52.5C 360.833,52.5 360.5,52.1667 360.5,51.5C 360.335,48.1501 360.502,44.8168 361,41.5C 362.011,40.6634 363.178,40.33 364.5,40.5 Z"/></g>
<g><path style="opacity:1" fill="#adadad" d="M 361.5,39.5 C 360.883,39.6107 360.383,39.944 360,40.5C 359.501,44.1516 359.335,47.8183 359.5,51.5C 359.756,53.7761 361.09,54.9428 363.5,55C 361.364,57.1121 359.364,56.9454 357.5,54.5C 356.337,49.1977 356.171,43.8643 357,38.5C 359.064,37.4086 361.231,37.2419 363.5,38C 362.584,38.2784 361.918,38.7784 361.5,39.5 Z"/></g>
<g><path style="opacity:1" fill="#525252" d="M 365.5,29.5 C 365.5,31.8333 365.5,34.1667 365.5,36.5C 362.833,36.5 360.167,36.5 357.5,36.5C 359.193,34.2336 361.36,33.9003 364,35.5C 364.191,33.2922 364.691,31.2922 365.5,29.5 Z"/></g>
<g><path style="opacity:1" fill="#afafaf" d="M 380.5,40.5 C 379.513,45.3054 379.179,50.3054 379.5,55.5C 378.5,55.5 377.5,55.5 376.5,55.5C 376.169,47.1401 376.502,38.8068 377.5,30.5C 378.135,34.0228 379.135,37.3561 380.5,40.5 Z"/></g>
<g><path style="opacity:1" fill="#8f8f8f" d="M 375.5,29.5 C 377.167,29.5 378.833,29.5 380.5,29.5C 380.5,31.8333 380.5,34.1667 380.5,36.5C 380.5,37.1667 380.833,37.5 381.5,37.5C 383.219,38.0221 384.552,39.0221 385.5,40.5C 383.833,40.5 382.167,40.5 380.5,40.5C 379.135,37.3561 378.135,34.0228 377.5,30.5C 376.502,38.8068 376.169,47.1401 376.5,55.5C 377.5,55.5 378.5,55.5 379.5,55.5C 378.432,56.4345 377.099,56.7678 375.5,56.5C 375.5,47.5 375.5,38.5 375.5,29.5 Z"/></g>
<g><path style="opacity:1" fill="#545454" d="M 375.5,29.5 C 375.5,38.5 375.5,47.5 375.5,56.5C 377.099,56.7678 378.432,56.4345 379.5,55.5C 381.179,55.2852 382.179,55.9519 382.5,57.5C 379.833,57.5 377.167,57.5 374.5,57.5C 374.173,47.985 374.506,38.6517 375.5,29.5 Z"/></g>
<g><path style="opacity:1" fill="#797979" d="M 365.5,29.5 C 367.5,29.5 369.5,29.5 371.5,29.5C 372.138,38.8955 371.471,47.8955 369.5,56.5C 369.826,47.9832 369.493,39.6499 368.5,31.5C 368.44,30.9569 368.107,30.6236 367.5,30.5C 366.831,32.6309 366.165,34.6309 365.5,36.5C 365.5,34.1667 365.5,31.8333 365.5,29.5 Z"/></g>
<g><path style="opacity:1" fill="#b1b1b1" d="M 368.5,31.5 C 368.831,39.1955 368.497,46.8622 367.5,54.5C 366.833,49.6833 366.166,45.0166 365.5,40.5C 365.5,39.1667 365.5,37.8333 365.5,36.5C 366.165,34.6309 366.831,32.6309 367.5,30.5C 368.107,30.6236 368.44,30.9569 368.5,31.5 Z"/></g>
<g><path style="opacity:1" fill="#4d4d4d" d="M 380.5,29.5 C 382.256,30.5521 382.923,32.2188 382.5,34.5C 384.415,34.2155 386.081,34.5489 387.5,35.5C 385.139,35.6741 382.806,36.0074 380.5,36.5C 380.5,34.1667 380.5,31.8333 380.5,29.5 Z"/></g>
<g><path style="opacity:1" fill="#6f6f6f" d="M 39.5,66.5 C 39.8333,66.5 40.1667,66.5 40.5,66.5C 43.1174,69.2224 46.1174,69.8891 49.5,68.5C 52.1667,67.8333 54.8333,67.1667 57.5,66.5C 52.5405,70.78 46.8738,71.6133 40.5,69C 39.7476,68.3292 39.4142,67.4959 39.5,66.5 Z"/></g>
<g><path style="opacity:1" fill="#737373" d="M 355.5,68.5 C 357.898,68.2594 359.898,68.9261 361.5,70.5C 359.102,70.7406 357.102,70.0739 355.5,68.5 Z"/></g>
<g><path style="opacity:1" fill="#6f6f6f" d="M 391.5,68.5 C 391.5,69.1667 391.167,69.5 390.5,69.5C 388.565,70.1495 386.565,70.4828 384.5,70.5C 386.515,69.0762 388.848,68.4095 391.5,68.5 Z"/></g>
<g><path style="opacity:1" fill="#505050" d="M 390.5,69.5 C 389.129,70.7868 387.295,71.4535 385,71.5C 380.839,71.9044 376.672,72.2377 372.5,72.5C 368.553,72.6371 364.886,71.9704 361.5,70.5C 369.167,70.5 376.833,70.5 384.5,70.5C 386.565,70.4828 388.565,70.1495 390.5,69.5 Z"/></g>
</svg>
