<?xml version="1.0" encoding="UTF-8"?>
<!DOCTYPE svg PUBLIC "-//W3C//DTD SVG 1.1//EN" "http://www.w3.org/Graphics/SVG/1.1/DTD/svg11.dtd">
<svg xmlns="http://www.w3.org/2000/svg" version="1.1" width="200px" height="200px" style="shape-rendering:geometricPrecision; text-rendering:geometricPrecision; image-rendering:optimizeQuality; fill-rule:evenodd; clip-rule:evenodd" xmlns:xlink="http://www.w3.org/1999/xlink">
<g><path style="opacity:1" fill="#fdfdfd" d="M -0.5,-0.5 C 66.1667,-0.5 132.833,-0.5 199.5,-0.5C 199.5,66.1667 199.5,132.833 199.5,199.5C 132.833,199.5 66.1667,199.5 -0.5,199.5C -0.5,132.833 -0.5,66.1667 -0.5,-0.5 Z"/></g>
<g><path style="opacity:1" fill="#3d3b5e" d="M 147.5,45.5 C 144.478,45.196 141.478,44.696 138.5,44C 137.421,41.957 135.754,40.6237 133.5,40C 105.091,29.2717 77.4243,30.9384 50.5,45C 48.8659,45.4935 47.1992,45.6602 45.5,45.5C 74.3315,29.3354 104.331,27.1688 135.5,39C 139.778,40.9041 143.778,43.0708 147.5,45.5 Z"/></g>
<g><path style="opacity:1" fill="#353263" d="M 147.5,45.5 C 151.836,47.332 155.836,49.6654 159.5,52.5C 159.5,53.5 159.5,54.5 159.5,55.5C 163.353,56.3454 166.019,58.6787 167.5,62.5C 166.833,62.8333 166.167,63.1667 165.5,63.5C 163.357,61.2235 160.69,59.8901 157.5,59.5C 155.95,58.5592 154.284,57.8925 152.5,57.5C 151.694,56.2719 150.694,55.2719 149.5,54.5C 147.533,52.5066 145.533,50.5066 143.5,48.5C 138.873,47.377 134.54,45.5437 130.5,43C 127.518,42.502 124.518,42.3354 121.5,42.5C 119.901,42.7678 118.568,42.4345 117.5,41.5C 115.449,38.5971 112.782,37.9305 109.5,39.5C 102.529,38.7382 95.5289,38.2382 88.5,38C 84.4836,34.2638 81.4836,34.7638 79.5,39.5C 74.2796,40.9691 68.9462,41.6358 63.5,41.5C 63.5,42.5 63.5,43.5 63.5,44.5C 61.8008,44.3398 60.1341,44.5065 58.5,45C 57.7476,45.6708 57.4142,46.5041 57.5,47.5C 56.5,47.8333 55.8333,48.5 55.5,49.5C 48.0537,52.3891 41.0537,56.0558 34.5,60.5C 32.5,60.5 30.5,60.5 28.5,60.5C 29.1761,57.2847 31.1761,55.118 34.5,54C 35.8228,53.1841 36.4894,52.0174 36.5,50.5C 39.0078,48.0764 42.0078,46.4097 45.5,45.5C 47.1992,45.6602 48.8659,45.4935 50.5,45C 77.4243,30.9384 105.091,29.2717 133.5,40C 135.754,40.6237 137.421,41.957 138.5,44C 141.478,44.696 144.478,45.196 147.5,45.5 Z"/></g>
<g><path style="opacity:1" fill="#3b385d" d="M 117.5,41.5 C 96.8949,37.4635 76.8949,39.4635 57.5,47.5C 57.4142,46.5041 57.7476,45.6708 58.5,45C 60.1341,44.5065 61.8008,44.3398 63.5,44.5C 63.5,43.5 63.5,42.5 63.5,41.5C 68.9462,41.6358 74.2796,40.9691 79.5,39.5C 81.4836,34.7638 84.4836,34.2638 88.5,38C 95.5289,38.2382 102.529,38.7382 109.5,39.5C 112.782,37.9305 115.449,38.5971 117.5,41.5 Z"/></g>
<g><path style="opacity:1" fill="#474563" d="M 121.5,42.5 C 124.518,42.3354 127.518,42.502 130.5,43C 134.54,45.5437 138.873,47.377 143.5,48.5C 145.533,50.5066 147.533,52.5066 149.5,54.5C 140.477,49.5018 131.144,45.5018 121.5,42.5 Z"/></g>
<g><path style="opacity:1" fill="#e8e9f0" d="M 117.5,41.5 C 118.568,42.4345 119.901,42.7678 121.5,42.5C 131.144,45.5018 140.477,49.5018 149.5,54.5C 150.694,55.2719 151.694,56.2719 152.5,57.5C 148.856,56.5965 145.356,55.2632 142,53.5C 141.228,53.6448 140.561,53.9781 140,54.5C 138.934,52.9005 137.434,51.9005 135.5,51.5C 134.438,52.4246 134.438,53.4246 135.5,54.5C 123.959,47.0982 111.292,43.0982 97.5,42.5C 96.1667,42.5 94.8333,42.5 93.5,42.5C 87.5994,42.3475 81.9327,43.3475 76.5,45.5C 65.3563,49.5723 55.6896,55.9056 47.5,64.5C 47.4914,62.6916 47.9914,61.0249 49,59.5C 49.3333,59.8333 49.6667,60.1667 50,60.5C 51.4381,59.0997 52.2714,57.433 52.5,55.5C 55.7567,54.1995 58.7567,52.3662 61.5,50C 59.5983,48.2041 57.5983,48.0374 55.5,49.5C 55.8333,48.5 56.5,47.8333 57.5,47.5C 76.8949,39.4635 96.8949,37.4635 117.5,41.5 Z"/></g>
<g><path style="opacity:1" fill="#4e2e42" d="M 93.5,42.5 C 94.8333,42.5 96.1667,42.5 97.5,42.5C 100.2,44.2344 102.2,46.5677 103.5,49.5C 104.473,51.9479 104.806,54.6146 104.5,57.5C 103.833,56.8333 103.167,56.1667 102.5,55.5C 102.201,51.8945 101.035,48.5612 99,45.5C 97,44.1667 95,44.1667 93,45.5C 91.768,49.5027 90.6013,53.5027 89.5,57.5C 88.8333,58.5 88.1667,59.5 87.5,60.5C 87.9157,57.5941 88.5824,54.7607 89.5,52C 89.3968,50.4385 89.0634,48.9385 88.5,47.5C 89.325,46.6143 90.325,46.281 91.5,46.5C 91.5271,44.8007 92.1938,43.4674 93.5,42.5 Z"/></g>
<g><path style="opacity:1" fill="#3a395e" d="M 76.5,45.5 C 74.6833,47.0122 73.6833,49.0122 73.5,51.5C 68.6928,51.3271 64.3594,52.6605 60.5,55.5C 59.1025,57.8982 57.1025,59.5649 54.5,60.5C 53.2528,62.323 52.5861,64.323 52.5,66.5C 50.7839,66.3713 49.1172,66.038 47.5,65.5C 47.5,65.1667 47.5,64.8333 47.5,64.5C 55.6896,55.9056 65.3563,49.5723 76.5,45.5 Z"/></g>
<g><path style="opacity:1" fill="#343362" d="M 97.5,42.5 C 111.292,43.0982 123.959,47.0982 135.5,54.5C 139.897,58.8918 143.897,63.5584 147.5,68.5C 143.837,68.0482 140.17,67.5482 136.5,67C 134.981,65.6487 133.648,64.1487 132.5,62.5C 130.5,61.1667 128.5,61.1667 126.5,62.5C 123.695,60.785 120.695,59.4517 117.5,58.5C 117.29,54.6199 115.29,52.9532 111.5,53.5C 111.819,55.7505 111.319,57.7505 110,59.5C 109.768,55.4452 109.268,51.4452 108.5,47.5C 108.833,46.8333 109.167,46.1667 109.5,45.5C 107.235,44.3526 104.902,44.1859 102.5,45C 103.38,46.3561 103.714,47.8561 103.5,49.5C 102.2,46.5677 100.2,44.2344 97.5,42.5 Z"/></g>
<g><path style="opacity:1" fill="#d67e37" d="M 102.5,55.5 C 102.753,59.0399 103.419,62.3733 104.5,65.5C 105.167,65.5 105.5,65.8333 105.5,66.5C 105.5,68.5 105.5,70.5 105.5,72.5C 104.041,72.5674 102.708,72.2341 101.5,71.5C 101.457,65.3322 100.457,59.3322 98.5,53.5C 98.4732,50.6097 97.3065,49.6097 95,50.5C 93.6552,55.4134 92.8219,60.4134 92.5,65.5C 92.5,65.8333 92.5,66.1667 92.5,66.5C 91.8386,67.7175 91.1719,69.0508 90.5,70.5C 89.5159,67.5719 89.1826,64.5719 89.5,61.5C 89.5,60.1667 89.5,58.8333 89.5,57.5C 90.6013,53.5027 91.768,49.5027 93,45.5C 95,44.1667 97,44.1667 99,45.5C 101.035,48.5612 102.201,51.8945 102.5,55.5 Z"/></g>
<g><path style="opacity:1" fill="#833e21" d="M 98.5,53.5 C 98.1667,53.5 97.8333,53.5 97.5,53.5C 96.0755,51.9689 95.4088,52.3023 95.5,54.5C 95.0035,58.3097 94.0035,61.9763 92.5,65.5C 92.8219,60.4134 93.6552,55.4134 95,50.5C 97.3065,49.6097 98.4732,50.6097 98.5,53.5 Z"/></g>
<g><path style="opacity:1" fill="#5a3135" d="M 97.5,53.5 C 97.8333,53.5 98.1667,53.5 98.5,53.5C 100.457,59.3322 101.457,65.3322 101.5,71.5C 100.527,67.8402 99.3607,64.1735 98,60.5C 97.5034,58.1902 97.3367,55.8568 97.5,53.5 Z"/></g>
<g><path style="opacity:1" fill="#9d5436" d="M 102.5,55.5 C 103.167,56.1667 103.833,56.8333 104.5,57.5C 104.5,58.1667 104.5,58.8333 104.5,59.5C 104.5,61.5 104.5,63.5 104.5,65.5C 103.419,62.3733 102.753,59.0399 102.5,55.5 Z"/></g>
<g><path style="opacity:1" fill="#343265" d="M 93.5,42.5 C 92.1938,43.4674 91.5271,44.8007 91.5,46.5C 90.325,46.281 89.325,46.6143 88.5,47.5C 89.0634,48.9385 89.3968,50.4385 89.5,52C 88.5824,54.7607 87.9157,57.5941 87.5,60.5C 87.5,64.1667 87.5,67.8333 87.5,71.5C 87.5,72.1667 87.5,72.8333 87.5,73.5C 83.4295,73.2338 79.4295,73.5672 75.5,74.5C 73.6247,79.2974 75.2914,81.6307 80.5,81.5C 80.4138,85.3176 81.0805,88.9843 82.5,92.5C 82.3333,93.5 82.1667,94.5 82,95.5C 79.5474,91.731 79.0474,92.231 80.5,97C 79.244,98.4788 78.244,100.145 77.5,102C 79.0944,105.674 79.761,109.508 79.5,113.5C 76.1667,113.5 72.8333,113.5 69.5,113.5C 70.0072,109.008 68.0072,106.674 63.5,106.5C 61.6672,106.585 60.3339,107.252 59.5,108.5C 59.1667,108.5 58.8333,108.5 58.5,108.5C 58.6665,97.1618 58.4999,85.8284 58,74.5C 54.8442,71.6012 52.1775,71.9345 50,75.5C 49.5001,88.1623 49.3334,100.829 49.5,113.5C 46.8852,111.621 44.7186,109.288 43,106.5C 40.81,109.249 39.1433,108.915 38,105.5C 37.3333,100.167 37.3333,94.8333 38,89.5C 39.7275,86.3821 40.5608,83.0487 40.5,79.5C 42.4286,79.7692 44.0953,79.2692 45.5,78C 44.8984,76.096 45.3984,74.2627 47,72.5C 47.4966,70.1902 47.6633,67.8568 47.5,65.5C 49.1172,66.038 50.7839,66.3713 52.5,66.5C 52.5861,64.323 53.2528,62.323 54.5,60.5C 57.1025,59.5649 59.1025,57.8982 60.5,55.5C 64.3594,52.6605 68.6928,51.3271 73.5,51.5C 73.6833,49.0122 74.6833,47.0122 76.5,45.5C 81.9327,43.3475 87.5994,42.3475 93.5,42.5 Z"/></g>
<g><path style="opacity:1" fill="#5b3033" d="M 89.5,57.5 C 89.5,58.8333 89.5,60.1667 89.5,61.5C 88.5206,64.6248 88.1872,67.9581 88.5,71.5C 88.1667,71.5 87.8333,71.5 87.5,71.5C 87.5,67.8333 87.5,64.1667 87.5,60.5C 88.1667,59.5 88.8333,58.5 89.5,57.5 Z"/></g>
<g><path style="opacity:1" fill="#353264" d="M 147.5,68.5 C 152.679,74.5285 156.013,81.5285 157.5,89.5C 156.391,89.5569 155.391,89.8902 154.5,90.5C 153.833,90.5 153.167,90.5 152.5,90.5C 151.5,90.5 150.5,90.5 149.5,90.5C 149.634,88.7085 149.301,87.0418 148.5,85.5C 148.462,79.2829 145.462,75.1162 139.5,73C 123.369,71.1228 117.203,77.9561 121,93.5C 123.234,95.6998 125.734,97.5331 128.5,99C 133.425,99.8621 137.925,101.695 142,104.5C 143.335,108.608 142.168,111.608 138.5,113.5C 137.51,107.866 134.51,106.199 129.5,108.5C 128.5,108.833 127.833,109.5 127.5,110.5C 126.275,109.063 125.275,107.396 124.5,105.5C 118.916,103.66 117.083,105.66 119,111.5C 120.026,114.239 121.526,116.572 123.5,118.5C 122.89,119.391 122.557,120.391 122.5,121.5C 122.167,121.5 121.833,121.5 121.5,121.5C 120.85,121.804 120.183,122.137 119.5,122.5C 119.062,125.295 118.062,127.628 116.5,129.5C 115.343,126.727 114.676,123.727 114.5,120.5C 114.785,117.171 114.118,114.171 112.5,111.5C 111.527,109.052 111.194,106.385 111.5,103.5C 110.971,98.1777 110.471,92.8443 110,87.5C 109.617,86.944 109.117,86.6107 108.5,86.5C 108.737,85.209 108.404,84.209 107.5,83.5C 107.5,82.8333 107.5,82.1667 107.5,81.5C 110.247,81.8134 112.914,81.48 115.5,80.5C 117.007,78.0314 116.673,75.8647 114.5,74C 112.19,73.5034 109.857,73.3367 107.5,73.5C 107.956,68.3925 106.956,63.7259 104.5,59.5C 104.5,58.8333 104.5,58.1667 104.5,57.5C 104.806,54.6146 104.473,51.9479 103.5,49.5C 103.714,47.8561 103.38,46.3561 102.5,45C 104.902,44.1859 107.235,44.3526 109.5,45.5C 109.167,46.1667 108.833,46.8333 108.5,47.5C 109.268,51.4452 109.768,55.4452 110,59.5C 111.319,57.7505 111.819,55.7505 111.5,53.5C 115.29,52.9532 117.29,54.6199 117.5,58.5C 120.695,59.4517 123.695,60.785 126.5,62.5C 128.5,61.1667 130.5,61.1667 132.5,62.5C 133.648,64.1487 134.981,65.6487 136.5,67C 140.17,67.5482 143.837,68.0482 147.5,68.5 Z"/></g>
<g><path style="opacity:1" fill="#3c3960" d="M 159.5,52.5 C 166.571,57.3636 173.238,62.6969 179.5,68.5C 176.988,67.0721 174.322,66.5721 171.5,67C 172.333,68.5 173.5,69.6667 175,70.5C 175.483,71.448 175.649,72.448 175.5,73.5C 169.19,69.1846 163.19,64.5179 157.5,59.5C 160.69,59.8901 163.357,61.2235 165.5,63.5C 166.167,63.1667 166.833,62.8333 167.5,62.5C 166.019,58.6787 163.353,56.3454 159.5,55.5C 159.5,54.5 159.5,53.5 159.5,52.5 Z"/></g>
<g><path style="opacity:1" fill="#4c2d45" d="M 104.5,59.5 C 106.956,63.7259 107.956,68.3925 107.5,73.5C 107.167,73.5 106.833,73.5 106.5,73.5C 106.802,70.9407 106.468,68.6074 105.5,66.5C 105.5,65.8333 105.167,65.5 104.5,65.5C 104.5,63.5 104.5,61.5 104.5,59.5 Z"/></g>
<g><path style="opacity:1" fill="#37365e" d="M 36.5,50.5 C 36.4894,52.0174 35.8228,53.1841 34.5,54C 31.1761,55.118 29.1761,57.2847 28.5,60.5C 30.5,60.5 32.5,60.5 34.5,60.5C 26.1073,66.0545 18.774,72.8878 12.5,81C 8.0233,81.1645 6.5233,78.9978 8,74.5C 16.2015,64.7852 25.7015,56.7852 36.5,50.5 Z"/></g>
<g><path style="opacity:1" fill="#b56e3b" d="M 89.5,61.5 C 89.1826,64.5719 89.5159,67.5719 90.5,70.5C 91.1719,69.0508 91.8386,67.7175 92.5,66.5C 92.6747,68.6208 92.3414,70.6208 91.5,72.5C 90.209,72.7373 89.209,72.404 88.5,71.5C 88.1872,67.9581 88.5206,64.6248 89.5,61.5 Z"/></g>
<g><path style="opacity:1" fill="#462e49" d="M 95.5,54.5 C 95.3218,59.0395 95.6551,63.5395 96.5,68C 96.3333,68.8333 96.1667,69.6667 96,70.5C 95.6667,69.1667 95.3333,67.8333 95,66.5C 94.5034,68.8098 94.3367,71.1432 94.5,73.5C 93.5,73.5 92.5,73.5 91.5,73.5C 91.5,73.1667 91.5,72.8333 91.5,72.5C 92.3414,70.6208 92.6747,68.6208 92.5,66.5C 92.5,66.1667 92.5,65.8333 92.5,65.5C 94.0035,61.9763 95.0035,58.3097 95.5,54.5 Z"/></g>
<g><path style="opacity:1" fill="#373064" d="M 97.5,53.5 C 97.3367,55.8568 97.5034,58.1902 98,60.5C 99.3607,64.1735 100.527,67.8402 101.5,71.5C 101.5,72.1667 101.5,72.8333 101.5,73.5C 101.167,73.5 100.833,73.5 100.5,73.5C 98.5,73.5 96.5,73.5 94.5,73.5C 94.3367,71.1432 94.5034,68.8098 95,66.5C 95.3333,67.8333 95.6667,69.1667 96,70.5C 96.1667,69.6667 96.3333,68.8333 96.5,68C 95.6551,63.5395 95.3218,59.0395 95.5,54.5C 95.4088,52.3023 96.0755,51.9689 97.5,53.5 Z"/></g>
<g><path style="opacity:1" fill="#835149" d="M 105.5,66.5 C 106.468,68.6074 106.802,70.9407 106.5,73.5C 104.833,73.5 103.167,73.5 101.5,73.5C 101.5,72.8333 101.5,72.1667 101.5,71.5C 102.708,72.2341 104.041,72.5674 105.5,72.5C 105.5,70.5 105.5,68.5 105.5,66.5 Z"/></g>
<g><path style="opacity:1" fill="#323163" d="M 179.5,68.5 C 179.351,69.552 179.517,70.552 180,71.5C 181.803,72.3134 183.303,73.4801 184.5,75C 184.387,76.2798 183.72,77.1131 182.5,77.5C 180.697,76.8632 179.364,75.6965 178.5,74C 177.552,73.5172 176.552,73.3505 175.5,73.5C 175.649,72.448 175.483,71.448 175,70.5C 173.5,69.6667 172.333,68.5 171.5,67C 174.322,66.5721 176.988,67.0721 179.5,68.5 Z"/></g>
<g><path style="opacity:1" fill="#a37477" d="M 87.5,71.5 C 87.8333,71.5 88.1667,71.5 88.5,71.5C 89.209,72.404 90.209,72.7373 91.5,72.5C 91.5,72.8333 91.5,73.1667 91.5,73.5C 90.1667,74.8333 88.8333,74.8333 87.5,73.5C 87.5,72.8333 87.5,72.1667 87.5,71.5 Z"/></g>
<g><path style="opacity:1" fill="#9d8bac" d="M 100.5,73.5 C 100.833,73.5 101.167,73.5 101.5,73.5C 103.167,73.5 104.833,73.5 106.5,73.5C 107.388,76.0545 107.721,78.7212 107.5,81.5C 107.5,82.1667 107.5,82.8333 107.5,83.5C 106.292,82.7659 104.959,82.4326 103.5,82.5C 103.5,82.1667 103.5,81.8333 103.5,81.5C 103.856,78.224 102.856,75.5573 100.5,73.5 Z"/></g>
<g><path style="opacity:1" fill="#908dc2" d="M 106.5,73.5 C 106.833,73.5 107.167,73.5 107.5,73.5C 109.857,73.3367 112.19,73.5034 114.5,74C 116.673,75.8647 117.007,78.0314 115.5,80.5C 112.914,81.48 110.247,81.8134 107.5,81.5C 107.721,78.7212 107.388,76.0545 106.5,73.5 Z"/></g>
<g><path style="opacity:1" fill="#3d3c5b" d="M 179.5,68.5 C 181.148,69.8098 182.814,71.1431 184.5,72.5C 185.641,74.4213 185.808,76.4213 185,78.5C 180.716,79.4599 177.549,77.7932 175.5,73.5C 176.552,73.3505 177.552,73.5172 178.5,74C 179.364,75.6965 180.697,76.8632 182.5,77.5C 183.72,77.1131 184.387,76.2798 184.5,75C 183.303,73.4801 181.803,72.3134 180,71.5C 179.517,70.552 179.351,69.552 179.5,68.5 Z"/></g>
<g><path style="opacity:1" fill="#9693c7" d="M 58.5,108.5 C 58.2606,110.467 58.5939,112.301 59.5,114C 62.592,114.736 65.592,114.569 68.5,113.5C 68.8333,113.5 69.1667,113.5 69.5,113.5C 72.8333,113.5 76.1667,113.5 79.5,113.5C 80.5,113.5 81.5,113.5 82.5,113.5C 82.552,115.903 82.2186,118.236 81.5,120.5C 81.1667,120.5 80.8333,120.5 80.5,120.5C 77.6146,120.194 74.9479,120.527 72.5,121.5C 71.209,121.263 70.209,121.596 69.5,122.5C 69.1667,122.5 68.8333,122.5 68.5,122.5C 65.3752,121.521 62.0419,121.187 58.5,121.5C 58.1667,121.5 57.8333,121.5 57.5,121.5C 57.1667,121.5 56.8333,121.5 56.5,121.5C 56.1667,121.5 55.8333,121.5 55.5,121.5C 50.9207,120.906 48.9207,118.24 49.5,113.5C 49.3334,100.829 49.5001,88.1623 50,75.5C 52.1775,71.9345 54.8442,71.6012 58,74.5C 58.4999,85.8284 58.6665,97.1618 58.5,108.5 Z"/></g>
<g><path style="opacity:1" fill="#9490c4" d="M 148.5,85.5 C 147.599,86.2905 146.932,87.2905 146.5,88.5C 145.448,88.6495 144.448,88.4828 143.5,88C 141.854,84.6898 139.52,82.0232 136.5,80C 131.245,78.1925 127.911,79.8591 126.5,85C 126.643,87.151 127.643,88.8176 129.5,90C 135.89,91.699 141.89,94.199 147.5,97.5C 152.701,106.739 151.035,114.406 142.5,120.5C 141.041,120.433 139.708,120.766 138.5,121.5C 134.4,121.763 130.4,121.43 126.5,120.5C 126.027,119.094 125.027,118.427 123.5,118.5C 121.526,116.572 120.026,114.239 119,111.5C 117.083,105.66 118.916,103.66 124.5,105.5C 125.275,107.396 126.275,109.063 127.5,110.5C 127.5,111.5 127.5,112.5 127.5,113.5C 129.621,113.325 131.621,113.659 133.5,114.5C 135.518,115.933 137.185,115.599 138.5,113.5C 142.168,111.608 143.335,108.608 142,104.5C 137.925,101.695 133.425,99.8621 128.5,99C 125.734,97.5331 123.234,95.6998 121,93.5C 117.203,77.9561 123.369,71.1228 139.5,73C 145.462,75.1162 148.462,79.2829 148.5,85.5 Z"/></g>
<g><path style="opacity:1" fill="#9492c6" d="M 87.5,73.5 C 88.8333,74.8333 90.1667,74.8333 91.5,73.5C 92.5,73.5 93.5,73.5 94.5,73.5C 96.5,73.5 98.5,73.5 100.5,73.5C 102.856,75.5573 103.856,78.224 103.5,81.5C 102.5,81.5 101.5,81.5 100.5,81.5C 100.667,94.1711 100.5,106.838 100,119.5C 97.3347,121.603 94.5014,121.936 91.5,120.5C 90.5259,110.582 90.1926,100.582 90.5,90.5C 90.8064,87.6146 90.4731,84.9479 89.5,82.5C 88.791,81.596 87.791,81.2627 86.5,81.5C 84.5,81.5 82.5,81.5 80.5,81.5C 75.2914,81.6307 73.6247,79.2974 75.5,74.5C 79.4295,73.5672 83.4295,73.2338 87.5,73.5 Z"/></g>
<g><path style="opacity:1" fill="#a96438" d="M 103.5,82.5 C 104.959,82.4326 106.292,82.7659 107.5,83.5C 108.404,84.209 108.737,85.209 108.5,86.5C 108.963,89.4824 109.296,92.4824 109.5,95.5C 108.335,91.8908 107.168,88.2242 106,84.5C 105.501,88.1516 105.335,91.8183 105.5,95.5C 104.291,91.3819 103.624,87.0485 103.5,82.5 Z"/></g>
<g><path style="opacity:1" fill="#874c3b" d="M 86.5,81.5 C 87.791,81.2627 88.791,81.596 89.5,82.5C 88.5041,82.4142 87.6708,82.7476 87,83.5C 86.8091,85.7078 86.3091,87.7078 85.5,89.5C 85.2786,86.7212 85.612,84.0545 86.5,81.5 Z"/></g>
<g><path style="opacity:1" fill="#363368" d="M 146.5,88.5 C 146.477,90.5996 147.144,92.4329 148.5,94C 148.011,95.1385 147.678,96.3052 147.5,97.5C 141.89,94.199 135.89,91.699 129.5,90C 127.643,88.8176 126.643,87.151 126.5,85C 127.911,79.8591 131.245,78.1925 136.5,80C 139.52,82.0232 141.854,84.6898 143.5,88C 144.448,88.4828 145.448,88.6495 146.5,88.5 Z"/></g>
<g><path style="opacity:1" fill="#de8c39" d="M 175.5,88.5 C 176.5,88.5 177.5,88.5 178.5,88.5C 178.5,89.8333 178.5,91.1667 178.5,92.5C 171.686,93.0521 165.019,93.7188 158.5,94.5C 157.307,94.9704 156.64,95.9704 156.5,97.5C 156.34,99.3545 157.007,100.688 158.5,101.5C 158.5,101.833 158.5,102.167 158.5,102.5C 160.017,103.735 161.684,103.735 163.5,102.5C 164.522,102.855 165.189,103.522 165.5,104.5C 162.779,104.963 160.112,105.629 157.5,106.5C 156.833,106.5 156.167,106.5 155.5,106.5C 154.871,103.603 153.871,100.936 152.5,98.5C 152.5,98.1667 152.5,97.8333 152.5,97.5C 152.166,94.812 152.832,92.4786 154.5,90.5C 155.391,89.8902 156.391,89.5569 157.5,89.5C 163.69,89.8229 169.69,89.4896 175.5,88.5 Z"/></g>
<g><path style="opacity:1" fill="#f5d7a9" d="M 175.5,86.5 C 179.976,86.8003 181.31,88.9669 179.5,93C 172.589,94.3844 165.589,94.8844 158.5,94.5C 165.019,93.7188 171.686,93.0521 178.5,92.5C 178.5,91.1667 178.5,89.8333 178.5,88.5C 177.5,88.5 176.5,88.5 175.5,88.5C 175.5,87.8333 175.5,87.1667 175.5,86.5 Z"/></g>
<g><path style="opacity:1" fill="#37315b" d="M 80.5,81.5 C 82.5,81.5 84.5,81.5 86.5,81.5C 85.612,84.0545 85.2786,86.7212 85.5,89.5C 83.3983,97.2279 82.3983,105.228 82.5,113.5C 81.5,113.5 80.5,113.5 79.5,113.5C 79.761,109.508 79.0944,105.674 77.5,102C 78.244,100.145 79.244,98.4788 80.5,97C 79.0474,92.231 79.5474,91.731 82,95.5C 82.1667,94.5 82.3333,93.5 82.5,92.5C 81.0805,88.9843 80.4138,85.3176 80.5,81.5 Z"/></g>
<g><path style="opacity:1" fill="#fcf9ed" d="M 175.5,86.5 C 177.56,85.1888 179.726,85.1888 182,86.5C 182.953,89.4318 183.453,92.4318 183.5,95.5C 180.813,95.3359 178.146,95.5026 175.5,96C 176.416,96.2784 177.082,96.7784 177.5,97.5C 175.585,97.2155 173.919,97.5489 172.5,98.5C 168.112,100.434 163.445,101.767 158.5,102.5C 158.5,102.167 158.5,101.833 158.5,101.5C 158.5,99.1667 158.5,96.8333 158.5,94.5C 165.589,94.8844 172.589,94.3844 179.5,93C 181.31,88.9669 179.976,86.8003 175.5,86.5 Z"/></g>
<g><path style="opacity:1" fill="#773c30" d="M 85.5,89.5 C 84.7393,97.4916 84.0727,105.492 83.5,113.5C 83.1667,113.5 82.8333,113.5 82.5,113.5C 82.3983,105.228 83.3983,97.2279 85.5,89.5 Z"/></g>
<g><path style="opacity:1" fill="#773e28" d="M 89.5,92.5 C 89.4138,99.0365 88.7472,105.37 87.5,111.5C 87.1667,111.5 86.8333,111.5 86.5,111.5C 87.1428,104.979 88.1428,98.6461 89.5,92.5 Z"/></g>
<g><path style="opacity:1" fill="#734136" d="M 152.5,90.5 C 153.167,90.5 153.833,90.5 154.5,90.5C 152.832,92.4786 152.166,94.812 152.5,97.5C 151.244,95.2743 151.244,92.941 152.5,90.5 Z"/></g>
<g><path style="opacity:1" fill="#6d4642" d="M 158.5,94.5 C 158.5,96.8333 158.5,99.1667 158.5,101.5C 157.007,100.688 156.34,99.3545 156.5,97.5C 156.64,95.9704 157.307,94.9704 158.5,94.5 Z"/></g>
<g><path style="opacity:1" fill="#fde7c0" d="M 172.5,98.5 C 173.919,97.5489 175.585,97.2155 177.5,97.5C 180.546,97.1826 182.213,98.5159 182.5,101.5C 179.671,99.0216 176.338,98.0216 172.5,98.5 Z"/></g>
<g><path style="opacity:1" fill="#e08232" d="M 109.5,95.5 C 109.5,96.8333 109.5,98.1667 109.5,99.5C 109.34,102.884 109.673,106.217 110.5,109.5C 110.253,110.713 109.586,111.38 108.5,111.5C 107.859,105.975 106.859,100.642 105.5,95.5C 105.335,91.8183 105.501,88.1516 106,84.5C 107.168,88.2242 108.335,91.8908 109.5,95.5 Z"/></g>
<g><path style="opacity:1" fill="#783d34" d="M 152.5,98.5 C 153.871,100.936 154.871,103.603 155.5,106.5C 153.345,104.383 152.345,101.716 152.5,98.5 Z"/></g>
<g><path style="opacity:1" fill="#5b3030" d="M 108.5,86.5 C 109.117,86.6107 109.617,86.944 110,87.5C 110.471,92.8443 110.971,98.1777 111.5,103.5C 110.833,102.167 110.167,100.833 109.5,99.5C 109.5,98.1667 109.5,96.8333 109.5,95.5C 109.296,92.4824 108.963,89.4824 108.5,86.5 Z"/></g>
<g><path style="opacity:1" fill="#fbdeae" d="M 178.5,111.5 C 180.251,104.893 177.918,102.393 171.5,104C 166.816,105.235 162.149,106.402 157.5,107.5C 157.5,107.167 157.5,106.833 157.5,106.5C 160.112,105.629 162.779,104.963 165.5,104.5C 169.682,102.769 174.016,102.269 178.5,103C 179.817,105.937 179.817,108.77 178.5,111.5 Z"/></g>
<g><path style="opacity:1" fill="#e29543" d="M 172.5,98.5 C 176.338,98.0216 179.671,99.0216 182.5,101.5C 185.342,110.483 182.342,116.483 173.5,119.5C 172.5,119.5 171.5,119.5 170.5,119.5C 165.5,119.5 160.5,119.5 155.5,119.5C 159.647,118.675 163.981,118.175 168.5,118C 163.898,116.878 159.232,116.378 154.5,116.5C 154.842,115.662 155.508,115.328 156.5,115.5C 162.833,115.5 169.167,115.5 175.5,115.5C 175.468,113.381 176.468,112.048 178.5,111.5C 179.817,108.77 179.817,105.937 178.5,103C 174.016,102.269 169.682,102.769 165.5,104.5C 165.189,103.522 164.522,102.855 163.5,102.5C 161.684,103.735 160.017,103.735 158.5,102.5C 163.445,101.767 168.112,100.434 172.5,98.5 Z"/></g>
<g><path style="opacity:1" fill="#38345e" d="M 47.5,65.5 C 47.6633,67.8568 47.4966,70.1902 47,72.5C 45.3984,74.2627 44.8984,76.096 45.5,78C 44.0953,79.2692 42.4286,79.7692 40.5,79.5C 40.5608,83.0487 39.7275,86.3821 38,89.5C 37.3333,94.8333 37.3333,100.167 38,105.5C 39.1433,108.915 40.81,109.249 43,106.5C 44.7186,109.288 46.8852,111.621 49.5,113.5C 48.9207,118.24 50.9207,120.906 55.5,121.5C 54.0413,121.433 52.7079,121.766 51.5,122.5C 50.1667,122.5 48.8333,122.5 47.5,122.5C 46.4154,120.413 44.7488,119.08 42.5,118.5C 41.0413,118.433 39.7079,118.766 38.5,119.5C 32.0484,99.7871 35.0484,81.7871 47.5,65.5 Z"/></g>
<g><path style="opacity:1" fill="#faf9f1" d="M 178.5,111.5 C 176.468,112.048 175.468,113.381 175.5,115.5C 169.167,115.5 162.833,115.5 156.5,115.5C 156.5,115.167 156.5,114.833 156.5,114.5C 157.369,112.283 157.702,109.95 157.5,107.5C 162.149,106.402 166.816,105.235 171.5,104C 177.918,102.393 180.251,104.893 178.5,111.5 Z"/></g>
<g><path style="opacity:1" fill="#4c2c4a" d="M 69.5,113.5 C 69.1667,113.5 68.8333,113.5 68.5,113.5C 68.573,111.973 67.9063,110.973 66.5,110.5C 65.0101,108.72 63.0101,108.054 60.5,108.5C 60.1667,108.5 59.8333,108.5 59.5,108.5C 60.3339,107.252 61.6672,106.585 63.5,106.5C 68.0072,106.674 70.0072,109.008 69.5,113.5 Z"/></g>
<g><path style="opacity:1" fill="#7b4b47" d="M 129.5,108.5 C 134.51,106.199 137.51,107.866 138.5,113.5C 137.185,115.599 135.518,115.933 133.5,114.5C 133.5,114.167 133.5,113.833 133.5,113.5C 134.675,113.719 135.675,113.386 136.5,112.5C 136.376,111.893 136.043,111.56 135.5,111.5C 135.586,110.504 135.252,109.671 134.5,109C 132.866,108.506 131.199,108.34 129.5,108.5 Z"/></g>
<g><path style="opacity:1" fill="#d57c38" d="M 89.5,82.5 C 90.4731,84.9479 90.8064,87.6146 90.5,90.5C 89.6618,90.8417 89.3284,91.5084 89.5,92.5C 88.1428,98.6461 87.1428,104.979 86.5,111.5C 86.5674,112.959 86.2341,114.292 85.5,115.5C 84.1667,115.5 83.5,114.833 83.5,113.5C 84.0727,105.492 84.7393,97.4916 85.5,89.5C 86.3091,87.7078 86.8091,85.7078 87,83.5C 87.6708,82.7476 88.5041,82.4142 89.5,82.5 Z"/></g>
<g><path style="opacity:1" fill="#6a372f" d="M 105.5,95.5 C 106.859,100.642 107.859,105.975 108.5,111.5C 108.704,114.518 109.037,117.518 109.5,120.5C 108.5,118.5 107.5,116.5 106.5,114.5C 106.347,108.155 106.014,101.822 105.5,95.5 Z"/></g>
<g><path style="opacity:1" fill="#3d325b" d="M 148.5,85.5 C 149.301,87.0418 149.634,88.7085 149.5,90.5C 150.5,90.5 151.5,90.5 152.5,90.5C 151.244,92.941 151.244,95.2743 152.5,97.5C 152.5,97.8333 152.5,98.1667 152.5,98.5C 152.345,101.716 153.345,104.383 155.5,106.5C 156.167,106.5 156.833,106.5 157.5,106.5C 157.5,106.833 157.5,107.167 157.5,107.5C 157.702,109.95 157.369,112.283 156.5,114.5C 153.288,114.712 151.288,116.379 150.5,119.5C 149.373,120.122 148.373,120.955 147.5,122C 145.934,122.765 144.601,122.598 143.5,121.5C 143.5,120.833 143.167,120.5 142.5,120.5C 151.035,114.406 152.701,106.739 147.5,97.5C 147.678,96.3052 148.011,95.1385 148.5,94C 147.144,92.4329 146.477,90.5996 146.5,88.5C 146.932,87.2905 147.599,86.2905 148.5,85.5 Z"/></g>
<g><path style="opacity:1" fill="#c97f4a" d="M 60.5,108.5 C 63.0101,108.054 65.0101,108.72 66.5,110.5C 64.7211,112.344 62.3878,113.01 59.5,112.5C 59.4326,111.041 59.7659,109.708 60.5,108.5 Z"/></g>
<g><path style="opacity:1" fill="#ae6c49" d="M 129.5,108.5 C 131.199,108.34 132.866,108.506 134.5,109C 135.252,109.671 135.586,110.504 135.5,111.5C 133.297,109.196 130.963,109.03 128.5,111C 130.653,111.099 132.319,111.933 133.5,113.5C 133.5,113.833 133.5,114.167 133.5,114.5C 131.621,113.659 129.621,113.325 127.5,113.5C 127.5,112.5 127.5,111.5 127.5,110.5C 127.833,109.5 128.5,108.833 129.5,108.5 Z"/></g>
<g><path style="opacity:1" fill="#df832d" d="M 135.5,111.5 C 136.043,111.56 136.376,111.893 136.5,112.5C 135.675,113.386 134.675,113.719 133.5,113.5C 132.319,111.933 130.653,111.099 128.5,111C 130.963,109.03 133.297,109.196 135.5,111.5 Z"/></g>
<g><path style="opacity:1" fill="#fdf2da" d="M 182.5,101.5 C 183.496,101.414 184.329,101.748 185,102.5C 185.333,105.167 185.667,107.833 186,110.5C 187.183,109.269 188.349,109.269 189.5,110.5C 185.737,113.083 182.07,115.916 178.5,119C 176.866,119.494 175.199,119.66 173.5,119.5C 182.342,116.483 185.342,110.483 182.5,101.5 Z"/></g>
<g><path style="opacity:1" fill="#bf7039" d="M 109.5,99.5 C 110.167,100.833 110.833,102.167 111.5,103.5C 111.194,106.385 111.527,109.052 112.5,111.5C 112.5,113.5 112.5,115.5 112.5,117.5C 111.732,116.737 111.232,115.737 111,114.5C 110.466,118.859 110.632,123.192 111.5,127.5C 109.656,125.721 108.99,123.388 109.5,120.5C 109.037,117.518 108.704,114.518 108.5,111.5C 109.586,111.38 110.253,110.713 110.5,109.5C 109.673,106.217 109.34,102.884 109.5,99.5 Z"/></g>
<g><path style="opacity:1" fill="#9f757c" d="M 58.5,108.5 C 58.8333,108.5 59.1667,108.5 59.5,108.5C 59.8333,108.5 60.1667,108.5 60.5,108.5C 59.7659,109.708 59.4326,111.041 59.5,112.5C 62.3878,113.01 64.7211,112.344 66.5,110.5C 67.9063,110.973 68.573,111.973 68.5,113.5C 65.592,114.569 62.592,114.736 59.5,114C 58.5939,112.301 58.2606,110.467 58.5,108.5 Z"/></g>
<g><path style="opacity:1" fill="#dd8133" d="M 154.5,116.5 C 159.232,116.378 163.898,116.878 168.5,118C 163.981,118.175 159.647,118.675 155.5,119.5C 154.833,119.5 154.5,119.833 154.5,120.5C 152.661,121.508 151.328,123.008 150.5,125C 147.97,126.422 145.303,126.755 142.5,126C 140.963,124.89 140.297,123.39 140.5,121.5C 141.5,121.5 142.5,121.5 143.5,121.5C 144.601,122.598 145.934,122.765 147.5,122C 148.373,120.955 149.373,120.122 150.5,119.5C 151.833,118.5 153.167,117.5 154.5,116.5 Z"/></g>
<g><path style="opacity:1" fill="#5b333d" d="M 86.5,111.5 C 86.8333,111.5 87.1667,111.5 87.5,111.5C 86.9019,118.188 86.0686,124.854 85,131.5C 84.2917,132.381 83.4584,133.047 82.5,133.5C 83.1667,129.167 83.8333,124.833 84.5,120.5C 85.4511,119.081 85.7845,117.415 85.5,115.5C 86.2341,114.292 86.5674,112.959 86.5,111.5 Z"/></g>
<g><path style="opacity:1" fill="#582e32" d="M 112.5,111.5 C 114.118,114.171 114.785,117.171 114.5,120.5C 113.833,119.5 113.167,118.5 112.5,117.5C 112.5,115.5 112.5,113.5 112.5,111.5 Z"/></g>
<g><path style="opacity:1" fill="#522d2b" d="M 42.5,118.5 C 44.7488,119.08 46.4154,120.413 47.5,122.5C 45.2512,121.92 43.5846,120.587 42.5,118.5 Z"/></g>
<g><path style="opacity:1" fill="#a57a74" d="M 82.5,113.5 C 82.8333,113.5 83.1667,113.5 83.5,113.5C 83.5,114.833 84.1667,115.5 85.5,115.5C 85.7845,117.415 85.4511,119.081 84.5,120.5C 83.6522,119.375 82.6522,119.375 81.5,120.5C 82.2186,118.236 82.552,115.903 82.5,113.5 Z"/></g>
<g><path style="opacity:1" fill="#a2613e" d="M 156.5,114.5 C 156.5,114.833 156.5,115.167 156.5,115.5C 155.508,115.328 154.842,115.662 154.5,116.5C 153.167,117.5 151.833,118.5 150.5,119.5C 151.288,116.379 153.288,114.712 156.5,114.5 Z"/></g>
<g><path style="opacity:1" fill="#a36e60" d="M 123.5,118.5 C 125.027,118.427 126.027,119.094 126.5,120.5C 126.5,121.167 126.5,121.833 126.5,122.5C 126.167,122.5 125.833,122.5 125.5,122.5C 125.196,120.204 124.196,119.871 122.5,121.5C 122.557,120.391 122.89,119.391 123.5,118.5 Z"/></g>
<g><path style="opacity:1" fill="#fde8bf" d="M 155.5,119.5 C 160.5,119.5 165.5,119.5 170.5,119.5C 165.268,120.21 159.935,120.877 154.5,121.5C 154.5,121.167 154.5,120.833 154.5,120.5C 154.5,119.833 154.833,119.5 155.5,119.5 Z"/></g>
<g><path style="opacity:1" fill="#d07837" d="M 112.5,117.5 C 113.167,118.5 113.833,119.5 114.5,120.5C 114.676,123.727 115.343,126.727 116.5,129.5C 117.209,130.404 118.209,130.737 119.5,130.5C 120.461,127.574 121.127,124.574 121.5,121.5C 121.833,121.5 122.167,121.5 122.5,121.5C 124.196,119.871 125.196,120.204 125.5,122.5C 124.416,127.09 122.749,131.424 120.5,135.5C 118.5,136.833 116.5,136.833 114.5,135.5C 114.167,135.5 113.833,135.5 113.5,135.5C 112.25,132.994 111.584,130.327 111.5,127.5C 112.479,124.375 112.813,121.042 112.5,117.5 Z"/></g>
<g><path style="opacity:1" fill="#603a2f" d="M 40.5,123.5 C 42.7488,124.08 44.4154,125.413 45.5,127.5C 44.5,127.5 43.5,127.5 42.5,127.5C 41.3263,126.486 40.6596,125.153 40.5,123.5 Z"/></g>
<g><path style="opacity:1" fill="#d37e3d" d="M 42.5,118.5 C 43.5846,120.587 45.2512,121.92 47.5,122.5C 47.62,123.586 48.2867,124.253 49.5,124.5C 50.7133,124.253 51.38,123.586 51.5,122.5C 52.7079,121.766 54.0413,121.433 55.5,121.5C 55.8333,121.5 56.1667,121.5 56.5,121.5C 56.2779,123.607 55.2779,125.274 53.5,126.5C 50.9135,127.48 48.2469,127.813 45.5,127.5C 44.4154,125.413 42.7488,124.08 40.5,123.5C 39.3263,122.486 38.6596,121.153 38.5,119.5C 39.7079,118.766 41.0413,118.433 42.5,118.5 Z"/></g>
<g><path style="opacity:1" fill="#773a1c" d="M 47.5,122.5 C 48.8333,122.5 50.1667,122.5 51.5,122.5C 51.38,123.586 50.7133,124.253 49.5,124.5C 48.2867,124.253 47.62,123.586 47.5,122.5 Z"/></g>
<g><path style="opacity:1" fill="#733e28" d="M 68.5,122.5 C 68.8333,122.5 69.1667,122.5 69.5,122.5C 69.448,124.903 69.7814,127.236 70.5,129.5C 68.6565,127.721 67.9898,125.388 68.5,122.5 Z"/></g>
<g><path style="opacity:1" fill="#43315a" d="M 72.5,121.5 C 74.9479,120.527 77.6146,120.194 80.5,120.5C 79.5768,124.362 77.9101,127.696 75.5,130.5C 74.184,127.592 73.184,124.592 72.5,121.5 Z"/></g>
<g><path style="opacity:1" fill="#e6842b" d="M 112.5,117.5 C 112.813,121.042 112.479,124.375 111.5,127.5C 110.632,123.192 110.466,118.859 111,114.5C 111.232,115.737 111.732,116.737 112.5,117.5 Z"/></g>
<g><path style="opacity:1" fill="#744333" d="M 142.5,120.5 C 143.167,120.5 143.5,120.833 143.5,121.5C 142.5,121.5 141.5,121.5 140.5,121.5C 140.297,123.39 140.963,124.89 142.5,126C 145.303,126.755 147.97,126.422 150.5,125C 151.328,123.008 152.661,121.508 154.5,120.5C 154.5,120.833 154.5,121.167 154.5,121.5C 153.248,123.001 152.248,124.668 151.5,126.5C 148.904,127.265 146.237,127.599 143.5,127.5C 140.081,126.958 138.414,124.958 138.5,121.5C 139.708,120.766 141.041,120.433 142.5,120.5 Z"/></g>
<g><path style="opacity:1" fill="#653031" d="M 80.5,120.5 C 80.8333,120.5 81.1667,120.5 81.5,120.5C 81.0037,123.979 80.0037,127.313 78.5,130.5C 77.3864,131.776 76.3864,131.776 75.5,130.5C 77.9101,127.696 79.5768,124.362 80.5,120.5 Z"/></g>
<g><path style="opacity:1" fill="#443756" d="M 151.5,126.5 C 150.32,129.54 148.653,132.206 146.5,134.5C 146.5,133.167 146.5,131.833 146.5,130.5C 145.5,130.5 144.5,130.5 143.5,130.5C 143.5,129.5 143.5,128.5 143.5,127.5C 146.237,127.599 148.904,127.265 151.5,126.5 Z"/></g>
<g><path style="opacity:1" fill="#3b3250" d="M 58.5,121.5 C 62.0419,121.187 65.3752,121.521 68.5,122.5C 67.9898,125.388 68.6565,127.721 70.5,129.5C 70.5,129.833 70.5,130.167 70.5,130.5C 70.5172,132.565 70.8505,134.565 71.5,136.5C 70.5,136.5 69.5,136.5 68.5,136.5C 68.0578,132.846 67.7244,129.179 67.5,125.5C 65.5082,125.672 63.8415,125.005 62.5,123.5C 61.2638,124.246 59.9305,124.579 58.5,124.5C 58.5,123.5 58.5,122.5 58.5,121.5 Z"/></g>
<g><path style="opacity:1" fill="#462c49" d="M 106.5,114.5 C 107.5,116.5 108.5,118.5 109.5,120.5C 108.99,123.388 109.656,125.721 111.5,127.5C 111.584,130.327 112.25,132.994 113.5,135.5C 112.833,135.5 112.167,135.5 111.5,135.5C 111.315,133.804 110.481,132.471 109,131.5C 108.566,125.759 107.733,120.092 106.5,114.5 Z"/></g>
<g><path style="opacity:1" fill="#4a354d" d="M 56.5,121.5 C 56.8333,121.5 57.1667,121.5 57.5,121.5C 57.3227,124.837 56.3227,127.837 54.5,130.5C 52.1667,130.5 49.8333,130.5 47.5,130.5C 47.5,131.833 47.5,133.167 47.5,134.5C 45.1,132.704 43.4333,130.37 42.5,127.5C 43.5,127.5 44.5,127.5 45.5,127.5C 48.2469,127.813 50.9135,127.48 53.5,126.5C 55.2779,125.274 56.2779,123.607 56.5,121.5 Z"/></g>
<g><path style="opacity:1" fill="#d47c3a" d="M 84.5,120.5 C 83.8333,124.833 83.1667,129.167 82.5,133.5C 80.8563,134.96 79.0229,136.293 77,137.5C 73.9329,135.935 71.7662,133.602 70.5,130.5C 70.5,130.167 70.5,129.833 70.5,129.5C 69.7814,127.236 69.448,124.903 69.5,122.5C 70.209,121.596 71.209,121.263 72.5,121.5C 73.184,124.592 74.184,127.592 75.5,130.5C 76.3864,131.776 77.3864,131.776 78.5,130.5C 80.0037,127.313 81.0037,123.979 81.5,120.5C 82.6522,119.375 83.6522,119.375 84.5,120.5 Z"/></g>
<g><path style="opacity:1" fill="#39375f" d="M 170.5,139.5 C 169.227,134.332 166.561,134.165 162.5,139C 160.564,139.813 158.564,140.313 156.5,140.5C 165.811,133.85 174.477,126.517 182.5,118.5C 183.442,118.608 184.275,118.941 185,119.5C 185.667,121.5 185.667,123.5 185,125.5C 180.298,130.37 175.465,135.037 170.5,139.5 Z"/></g>
<g><path style="opacity:1" fill="#343265" d="M 103.5,81.5 C 103.5,81.8333 103.5,82.1667 103.5,82.5C 103.624,87.0485 104.291,91.3819 105.5,95.5C 106.014,101.822 106.347,108.155 106.5,114.5C 107.733,120.092 108.566,125.759 109,131.5C 110.481,132.471 111.315,133.804 111.5,135.5C 111.808,137.924 111.474,140.257 110.5,142.5C 106.571,143.433 102.571,143.766 98.5,143.5C 98.4737,140.049 96.9737,137.382 94,135.5C 93.5065,133.866 93.3398,132.199 93.5,130.5C 91.1667,129.167 88.8333,129.167 86.5,130.5C 86.5,129.5 86.5,128.5 86.5,127.5C 87.675,127.719 88.675,127.386 89.5,126.5C 88.8333,124.833 88.1667,123.167 87.5,121.5C 88.0016,120.479 88.6683,120.312 89.5,121C 89.727,122.135 90.0604,123.302 90.5,124.5C 91.4287,123.311 91.762,121.978 91.5,120.5C 94.5014,121.936 97.3347,121.603 100,119.5C 100.5,106.838 100.667,94.1711 100.5,81.5C 101.5,81.5 102.5,81.5 103.5,81.5 Z"/></g>
<g><path style="opacity:1" fill="#673533" d="M 70.5,130.5 C 71.7662,133.602 73.9329,135.935 77,137.5C 79.0229,136.293 80.8563,134.96 82.5,133.5C 82.5,134.167 82.5,134.833 82.5,135.5C 79.1491,139.102 75.4825,139.435 71.5,136.5C 70.8505,134.565 70.5172,132.565 70.5,130.5 Z"/></g>
<g><path style="opacity:1" fill="#343260" d="M 90.5,90.5 C 90.1926,100.582 90.5259,110.582 91.5,120.5C 91.762,121.978 91.4287,123.311 90.5,124.5C 90.0604,123.302 89.727,122.135 89.5,121C 88.6683,120.312 88.0016,120.479 87.5,121.5C 88.1667,123.167 88.8333,124.833 89.5,126.5C 88.675,127.386 87.675,127.719 86.5,127.5C 86.5,128.5 86.5,129.5 86.5,130.5C 88.8333,129.167 91.1667,129.167 93.5,130.5C 93.3398,132.199 93.5065,133.866 94,135.5C 96.9737,137.382 98.4737,140.049 98.5,143.5C 102.571,143.766 106.571,143.433 110.5,142.5C 111.474,140.257 111.808,137.924 111.5,135.5C 112.167,135.5 112.833,135.5 113.5,135.5C 113.833,135.5 114.167,135.5 114.5,135.5C 114.557,136.609 114.89,137.609 115.5,138.5C 118.285,139.084 119.952,138.084 120.5,135.5C 121.721,134.972 122.887,134.305 124,133.5C 125.44,129.959 126.274,126.292 126.5,122.5C 126.5,121.833 126.5,121.167 126.5,120.5C 130.4,121.43 134.4,121.763 138.5,121.5C 138.414,124.958 140.081,126.958 143.5,127.5C 143.5,128.5 143.5,129.5 143.5,130.5C 144.5,130.5 145.5,130.5 146.5,130.5C 146.5,131.833 146.5,133.167 146.5,134.5C 140.275,143.057 132.275,149.39 122.5,153.5C 118.89,154.703 115.223,155.703 111.5,156.5C 100.15,156.593 88.8169,156.259 77.5,155.5C 77.1667,155.5 76.8333,155.5 76.5,155.5C 74.3995,153.512 71.8995,151.845 69,150.5C 68.51,149.207 68.3433,147.873 68.5,146.5C 65.9407,146.802 63.6074,146.468 61.5,145.5C 64.5318,145.495 67.5318,145.162 70.5,144.5C 73.2746,146.015 76.2746,147.349 79.5,148.5C 85.0538,149.806 90.5538,149.806 96,148.5C 104.714,148.93 113.214,150.263 121.5,152.5C 121.5,151.167 121.5,149.833 121.5,148.5C 117.016,147.595 112.516,146.595 108,145.5C 98.4774,144.701 88.9774,144.368 79.5,144.5C 80.0121,141.649 81.6787,140.316 84.5,140.5C 84.5,141.5 84.5,142.5 84.5,143.5C 85.675,143.719 86.675,143.386 87.5,142.5C 86.9149,139.497 86.2482,136.497 85.5,133.5C 84.4822,134.193 83.4822,134.859 82.5,135.5C 82.5,134.833 82.5,134.167 82.5,133.5C 83.4584,133.047 84.2917,132.381 85,131.5C 86.0686,124.854 86.9019,118.188 87.5,111.5C 88.7472,105.37 89.4138,99.0365 89.5,92.5C 89.3284,91.5084 89.6618,90.8417 90.5,90.5 Z"/></g>
<g><path style="opacity:1" fill="#5b3438" d="M 114.5,135.5 C 116.5,136.833 118.5,136.833 120.5,135.5C 119.952,138.084 118.285,139.084 115.5,138.5C 114.89,137.609 114.557,136.609 114.5,135.5 Z"/></g>
<g><path style="opacity:1" fill="#583230" d="M 125.5,122.5 C 125.833,122.5 126.167,122.5 126.5,122.5C 126.274,126.292 125.44,129.959 124,133.5C 122.887,134.305 121.721,134.972 120.5,135.5C 122.749,131.424 124.416,127.09 125.5,122.5 Z"/></g>
<g><path style="opacity:1" fill="#4e313b" d="M 121.5,121.5 C 121.127,124.574 120.461,127.574 119.5,130.5C 118.209,130.737 117.209,130.404 116.5,129.5C 118.062,127.628 119.062,125.295 119.5,122.5C 120.183,122.137 120.85,121.804 121.5,121.5 Z"/></g>
<g><path style="opacity:1" fill="#32306a" d="M 115.5,138.5 C 116.429,139.315 117.429,140.148 118.5,141C 116.355,141.743 116.189,142.576 118,143.5C 119.597,142.115 121.43,141.449 123.5,141.5C 123.238,140.022 123.571,138.689 124.5,137.5C 125.724,139.828 125.724,142.161 124.5,144.5C 121.554,145.655 118.554,145.821 115.5,145C 111.517,142.534 111.517,140.368 115.5,138.5 Z"/></g>
<g><path style="opacity:1" fill="#333064" d="M 170.5,139.5 C 169.833,139.833 169.167,140.167 168.5,140.5C 167.07,140.421 165.736,140.754 164.5,141.5C 161.92,143.607 159.253,145.441 156.5,147C 155.748,147.671 155.414,148.504 155.5,149.5C 153.194,149.993 150.861,150.326 148.5,150.5C 149.031,147.221 151.031,145.887 154.5,146.5C 155.167,144.5 155.833,142.5 156.5,140.5C 158.564,140.313 160.564,139.813 162.5,139C 166.561,134.165 169.227,134.332 170.5,139.5 Z"/></g>
<g><path style="opacity:1" fill="#3c3d5e" d="M 168.5,140.5 C 164.999,144.662 160.665,147.662 155.5,149.5C 155.414,148.504 155.748,147.671 156.5,147C 159.253,145.441 161.92,143.607 164.5,141.5C 165.736,140.754 167.07,140.421 168.5,140.5 Z"/></g>
<g><path style="opacity:1" fill="#333166" d="M 57.5,121.5 C 57.8333,121.5 58.1667,121.5 58.5,121.5C 58.5,122.5 58.5,123.5 58.5,124.5C 59.9305,124.579 61.2638,124.246 62.5,123.5C 63.8415,125.005 65.5082,125.672 67.5,125.5C 67.7244,129.179 68.0578,132.846 68.5,136.5C 69.5,136.5 70.5,136.5 71.5,136.5C 75.4825,139.435 79.1491,139.102 82.5,135.5C 83.4822,134.859 84.4822,134.193 85.5,133.5C 86.2482,136.497 86.9149,139.497 87.5,142.5C 86.675,143.386 85.675,143.719 84.5,143.5C 84.5,142.5 84.5,141.5 84.5,140.5C 81.6787,140.316 80.0121,141.649 79.5,144.5C 88.9774,144.368 98.4774,144.701 108,145.5C 112.516,146.595 117.016,147.595 121.5,148.5C 121.5,149.833 121.5,151.167 121.5,152.5C 113.214,150.263 104.714,148.93 96,148.5C 90.5538,149.806 85.0538,149.806 79.5,148.5C 76.2746,147.349 73.2746,146.015 70.5,144.5C 67.5318,145.162 64.5318,145.495 61.5,145.5C 59.9519,145.179 59.2852,144.179 59.5,142.5C 57.8333,142.5 56.1667,142.5 54.5,142.5C 51.4275,140.431 49.0941,137.764 47.5,134.5C 47.5,133.167 47.5,131.833 47.5,130.5C 49.8333,130.5 52.1667,130.5 54.5,130.5C 56.3227,127.837 57.3227,124.837 57.5,121.5 Z"/></g>
<g><path style="opacity:1" fill="#3f3d5e" d="M 54.5,142.5 C 56.1667,142.5 57.8333,142.5 59.5,142.5C 59.2852,144.179 59.9519,145.179 61.5,145.5C 63.6074,146.468 65.9407,146.802 68.5,146.5C 68.3433,147.873 68.51,149.207 69,150.5C 71.8995,151.845 74.3995,153.512 76.5,155.5C 75.391,155.443 74.391,155.11 73.5,154.5C 66.0931,152.073 59.7598,148.073 54.5,142.5 Z"/></g>
<g><path style="opacity:1" fill="#383561" d="M 71.5,156.5 C 74.0873,157.749 76.754,158.749 79.5,159.5C 74.1433,158.446 68.8099,158.446 63.5,159.5C 60.1401,159.384 56.8067,159.051 53.5,158.5C 37.692,150.866 23.3586,141.032 10.5,129C 9.26037,127.27 8.26037,125.437 7.5,123.5C 7.77531,121.391 8.94197,120.058 11,119.5C 25.2287,133.383 41.3954,144.549 59.5,153C 63.6083,154.095 67.6083,155.262 71.5,156.5 Z"/></g>
<g><path style="opacity:1" fill="#3b3860" d="M 156.5,140.5 C 155.833,142.5 155.167,144.5 154.5,146.5C 151.031,145.887 149.031,147.221 148.5,150.5C 150.861,150.326 153.194,149.993 155.5,149.5C 137.114,161.626 116.78,167.959 94.5,168.5C 89.0048,168.679 83.6715,168.012 78.5,166.5C 77.5,165.833 76.5,165.167 75.5,164.5C 88.8075,165.592 102.141,165.758 115.5,165C 120.044,163.264 124.71,161.93 129.5,161C 130.167,160.333 130.833,159.667 131.5,159C 130.056,157.936 128.389,157.436 126.5,157.5C 121.605,158.904 116.605,159.57 111.5,159.5C 115.558,158.37 119.558,157.036 123.5,155.5C 135.301,152.234 146.301,147.234 156.5,140.5 Z"/></g>
<g><path style="opacity:1" fill="#cbcbdc" d="M 122.5,153.5 C 120.969,154.925 121.302,155.591 123.5,155.5C 119.558,157.036 115.558,158.37 111.5,159.5C 100.829,160.76 90.1622,160.76 79.5,159.5C 76.754,158.749 74.0873,157.749 71.5,156.5C 72.8333,156.5 73.5,155.833 73.5,154.5C 74.391,155.11 75.391,155.443 76.5,155.5C 76.8333,155.5 77.1667,155.5 77.5,155.5C 83.1298,157.897 89.1298,158.897 95.5,158.5C 101.077,158.632 106.41,157.965 111.5,156.5C 115.223,155.703 118.89,154.703 122.5,153.5 Z"/></g>
<g><path style="opacity:1" fill="#3e3b5c" d="M 77.5,155.5 C 88.8169,156.259 100.15,156.593 111.5,156.5C 106.41,157.965 101.077,158.632 95.5,158.5C 89.1298,158.897 83.1298,157.897 77.5,155.5 Z"/></g>
<g><path style="opacity:1" fill="#444362" d="M 53.5,158.5 C 56.8067,159.051 60.1401,159.384 63.5,159.5C 63.4701,160.497 63.9701,161.164 65,161.5C 68.6449,162.449 72.1449,163.449 75.5,164.5C 76.5,165.167 77.5,165.833 78.5,166.5C 69.567,165.41 61.2337,162.743 53.5,158.5 Z"/></g>
<g><path style="opacity:1" fill="#333163" d="M 75.5,164.5 C 72.1449,163.449 68.6449,162.449 65,161.5C 63.9701,161.164 63.4701,160.497 63.5,159.5C 68.8099,158.446 74.1433,158.446 79.5,159.5C 90.1622,160.76 100.829,160.76 111.5,159.5C 116.605,159.57 121.605,158.904 126.5,157.5C 128.389,157.436 130.056,157.936 131.5,159C 130.833,159.667 130.167,160.333 129.5,161C 124.71,161.93 120.044,163.264 115.5,165C 102.141,165.758 88.8075,165.592 75.5,164.5 Z"/></g>
</svg>
