<svg xmlns="http://www.w3.org/2000/svg" width="440" height="440" style="shape-rendering:geometricPrecision;text-rendering:geometricPrecision;image-rendering:optimizeQuality;fill-rule:evenodd;clip-rule:evenodd"><path style="opacity:1" fill="#0e1d47" d="M-.5-.5h440v133H-.5V-.5z"/><path style="opacity:1" fill="#131e3f" d="M159.5 47.5v3a24.939 24.939 0 0 1-7-.5c-3.2-1.477-6.2-2.977-9-4.5 4.994.687 7.994-1.313 9-6 .987-4.805 1.321-9.805 1-15h-3v15c-1.756 4.139-4.422 4.806-8 2a69.234 69.234 0 0 1-1-16c1.612 3.244 2.612 6.911 3 11a101.855 101.855 0 0 0 3.5-14c2.333-1.333 4.667-1.333 7 0 1.977 8.203 1.81 16.37-.5 24.5 1.634.493 3.301.66 5 .5z"/><path style="opacity:1" fill="#e1eff6" d="M212.5 25.5h10l-8 2v6c10.667.667 10.667 1.333 0 2v7h9v2h-11v-19z"/><path style="opacity:1" fill="#8d9cb0" d="M222.5 25.5c.838.342 1.172 1.008 1 2h-9l8-2z"/><path style="opacity:1" fill="#6d7a94" d="M141.5 25.5c-1.942 4.556-2.608 9.556-2 15-.988-5.14-1.321-10.474-1-16 1.291-.237 2.291.096 3 1z"/><path style="opacity:1" fill="#9fa9c3" d="M152.5 39.5a98.433 98.433 0 0 0-.5-14c-.174 4.851-.674 9.518-1.5 14 .826-4.482 1.326-9.149 1.5-14 .499 4.655.666 9.322.5 14z"/><path style="opacity:1" fill="#d8e4ef" d="M303.5 28.5c-3.642 4.634-5.642 9.967-6 16-.442-6.538-2.775-12.205-7-17 .448-1.965 1.448-2.298 3-1a36.168 36.168 0 0 0 4 7 107.892 107.892 0 0 0 5-8.5c2.328.222 2.662 1.388 1 3.5z"/><path style="opacity:1" fill="#d7e1ee" d="M323.5 24.5c10.366-.125 14.199 4.875 11.5 15-5.333 8-10.667 8-16 0a25.238 25.238 0 0 1 0-10 31.473 31.473 0 0 0 4.5-5z"/><path style="opacity:1" fill="#1e2946" d="M204.5 25.5c.709-.904 1.709-1.237 3-1a25.878 25.878 0 0 0 1 10l2-1a346.069 346.069 0 0 1 2-8v19h11c-.763.768-1.763 1.268-3 1.5 1.196.654 1.196 1.154 0 1.5a82.083 82.083 0 0 1-13-3v-3h4c.092-3.571-1.574-4.738-5-3.5-2.05 1.636-3.05 3.802-3 6.5h-3a285.053 285.053 0 0 1 6-18c-.457-.797-1.124-1.13-2-1z"/><path style="opacity:1" fill="#e3edf8" d="M273.5 26.5c2.141-.663 4.475-.997 7-1 2.769.029 5.103.695 7 2h-6c.617 6.098-.05 11.765-2 17v-18h-6z"/><path style="opacity:1" fill="#16243e" d="M287.5 27.5v3h-3v17a12.935 12.935 0 0 1-5-.5c-.752-.67-1.086-1.504-1-2.5h1c1.95-5.235 2.617-10.902 2-17h6z"/><path style="opacity:1" fill="#1d2441" d="M325.5 26.5c6.452.892 8.952 4.559 7.5 11-1.449 4.718-4.615 6.218-9.5 4.5-4.478-5.947-3.812-11.114 2-15.5z"/><path style="opacity:1" fill="#0f1b48" d="M324.5 28.5c1.967-.24 3.801.094 5.5 1 .617.95.451 1.782-.5 2.5 2.956 3.547 2.456 6.38-1.5 8.5-3.039-.04-4.872-1.54-5.5-4.5a124.63 124.63 0 0 0 2-7.5z"/><path style="opacity:1" fill="#17243d" d="M214.5 27.5h8c-1.336 1.807-3.003 3.307-5 4.5 1.973.495 3.973.662 6 .5v5h-8v4c2.885-.306 5.552.027 8 1h-9v-7c10.667-.667 10.667-1.333 0-2v-6z"/><path style="opacity:1" fill="#828ba9" d="M265.5 25.5c.709-.904 1.709-1.237 3-1v1c.323 6.522-.01 12.855-1 19 .623-6.755-.044-13.088-2-19z"/><path style="opacity:1" fill="#ddeaf5" d="M342.5 25.5a25.87 25.87 0 0 1 10 1 16.868 16.868 0 0 1-8 1v6c2.747-.313 5.414.02 8 1a13.118 13.118 0 0 1-7 1 468.079 468.079 0 0 0-2 9 91.124 91.124 0 0 1-1-19z"/><path style="opacity:1" fill="#cfdae9" d="M204.5 25.5c.876-.13 1.543.203 2 1a285.053 285.053 0 0 0-6 18h-4a343.218 343.218 0 0 0-6-20h3a53.412 53.412 0 0 0 5.5 16c1.94-4.99 3.774-9.99 5.5-15z"/><path style="opacity:1" fill="#172242" d="M290.5 27.5c4.225 4.795 6.558 10.462 7 17 .358-6.033 2.358-11.366 6-16 .04 2.924-.793 5.591-2.5 8a60.93 60.93 0 0 0-.5 11c-2.331-.002-4.331.831-6 2.5-2.31.497-4.643.663-7 .5-.163-2.357.003-4.69.5-7a8.43 8.43 0 0 1 .5 4h6a69.747 69.747 0 0 1-4-20z"/><path style="opacity:1" fill="#bcc4db" d="M182.5 24.5h3v21h-3v-21z"/><path style="opacity:1" fill="#1a2441" d="M160.5 25.5c-.623 6.755.044 13.088 2 19l2-13c2.322 3.972 4.655 7.972 7 12 .825.886 1.825 1.219 3 1v-19c.992 7.148 1.325 14.48 1 22-3.469.613-5.469-.72-6-4-1.808-.009-3.475.491-5 1.5.457.414.791.914 1 1.5a9.864 9.864 0 0 1-6 1c-.325-7.52.008-14.852 1-22z"/><path style="opacity:1" fill="#d9e3f1" d="M160.5 25.5h3a150.993 150.993 0 0 0 8.5 14c.499-4.655.666-9.322.5-14h2v19c-1.175.219-2.175-.114-3-1a8199.434 8199.434 0 0 0-7-12c-.283-.79-.783-1.456-1.5-2a112.97 112.97 0 0 0-.5 15c-1.956-5.912-2.623-12.245-2-19z"/><path style="opacity:1" fill="#5c677d" d="m164.5 31.5-2 13a112.97 112.97 0 0 1 .5-15c.717.544 1.217 1.21 1.5 2z"/><path style="opacity:1" fill="#192440" d="M163.5 25.5a16.062 16.062 0 0 1 5 2 4.458 4.458 0 0 0 1.5-2c.77 1.098 1.603 1.098 2.5 0a98.433 98.433 0 0 1-.5 14 150.993 150.993 0 0 1-8.5-14z"/><path style="opacity:1" fill="#67708b" d="M273.5 26.5h6v18h-1v-17c-1.915.285-3.581-.049-5-1z"/><path style="opacity:1" fill="#d8e2f0" d="M141.5 25.5a69.234 69.234 0 0 0 1 16c3.578 2.806 6.244 2.139 8-2 .826-4.482 1.326-9.149 1.5-14 .499 4.655.666 9.322.5 14-1.006 4.687-4.006 6.687-9 6-2.055-1.059-3.389-2.725-4-5-.608-5.444.058-10.444 2-15z"/><path style="opacity:1" fill="#313c52" d="M342.5 25.5a91.124 91.124 0 0 0 1 19 468.079 468.079 0 0 1 2-9v12h-4c-.325-7.52.008-14.852 1-22z"/><path style="opacity:1" fill="#142144" d="M257.5 25.5c-6.787-2.367-9.954-.034-9.5 7a28.4 28.4 0 0 0 7.5 4.5c1.333 1.667 1.333 3.333 0 5-2.599.769-5.099.602-7.5-.5.045 3.028 1.712 4.362 5 4 4.893-.441 6.893-3.108 6-8a129.332 129.332 0 0 1-9.5-7.5c.259-1.261.926-2.261 2-3 2.528.105 4.862-.062 7-.5 2.517 1.577 2.517 3.41 0 5.5a9.457 9.457 0 0 1 1.5 2.5c.5-1.167 1.333-2 2.5-2.5-1.134-1.016-.801-1.683 1-2 .089-1.716-.244-3.55-1-5.5 1.142-2.9 1.808-5.9 2-9 1.322-.17 2.489.163 3.5 1 .287 2.39.787 4.724 1.5 7-.124.607-.457.94-1 1-1.291-.237-2.291.096-3 1-.623 6.755.044 13.088 2 19 .99-6.145 1.323-12.478 1-19 1.1 1.777 1.934 3.777 2.5 6a289.713 289.713 0 0 0 2 16c-1.133 1.711-2.633 2.211-4.5 1.5-2.813-1.323-5.146-3.156-7-5.5-3.569 1.09-5.569 3.423-6 7h-16c-1.185-3.702-3.352-6.702-6.5-9 .534 4.967-1.633 6.967-6.5 6a28.461 28.461 0 0 0-2-10c.118-2.855 1.118-5.355 3-7.5-.856-1.595-2.189-2.428-4-2.5.172-.992-.162-1.658-1-2h-10v-3c4.259-.497 8.259.17 12 2a39.918 39.918 0 0 1 15-.5c2.268 1.558 3.434 3.724 3.5 6.5 1.011.837 2.178 1.17 3.5 1a28.818 28.818 0 0 1 1-10c3.897-.773 6.897-2.773 9-6 1.672 3.299 2.005 6.632 1 10z"/><path style="opacity:1" fill="#e5ebf8" d="M265.5 25.5c1.956 5.912 2.623 12.245 2 19-1.956-5.912-2.623-12.245-2-19z"/><path style="opacity:1" fill="#cfdae9" d="M229.5 25.5c3.606-.29 7.106.044 10.5 1 2.154 3.558 1.654 6.725-1.5 9.5a80.406 80.406 0 0 1 4 7.5c-.825.886-1.825 1.219-3 1-.053-5.518-2.719-8.185-8-8a16.874 16.874 0 0 1-1 8 91.124 91.124 0 0 1-1-19z"/><path style="opacity:1" fill="#1d253e" d="M231.5 27.5a18.437 18.437 0 0 1 6 .5c1.434 4.854-.566 7.02-6 6.5v-7z"/><path style="opacity:1" fill="#cbd8e4" d="M257.5 25.5c.667 0 1 .333 1 1-2.138.438-4.472.605-7 .5-1.074.739-1.741 1.739-2 3a129.332 129.332 0 0 0 9.5 7.5c.893 4.892-1.107 7.559-6 8-3.288.362-4.955-.972-5-4 2.401 1.102 4.901 1.269 7.5.5 1.333-1.667 1.333-3.333 0-5a28.4 28.4 0 0 1-7.5-4.5c-.454-7.034 2.713-9.367 9.5-7z"/><path style="opacity:1" fill="#182344" d="M270.5 72.5c-2.924 7.877-2.591 15.543 1 23-1.644.213-3.144-.12-4.5-1a180.915 180.915 0 0 0-1.5-18.5c-2.388-.865-3.888-.032-4.5 2.5l-1 13a14.838 14.838 0 0 1-3.5 4 16.874 16.874 0 0 1-1-8 72.045 72.045 0 0 1-11-1c-.27 4.856 1.064 9.189 4 13a3.647 3.647 0 0 1-1 1.5h4c-1.076 1.726-1.243 3.559-.5 5.5a11.333 11.333 0 0 1 1.5-3.5c.832-.688 1.498-.521 2 .5.15 2.466.483 5.132 1 8a12.93 12.93 0 0 1-5-.5c1.141-.741 1.141-1.575 0-2.5a406.24 406.24 0 0 0-20-2 12.93 12.93 0 0 1 .5-5c.77-1.098 1.603-1.098 2.5 0 2.235-10.815 2.568-21.815 1-33a612.617 612.617 0 0 1-3.5-3c-2.901.936-3.068 2.103-.5 3.5l-2 .5c-2.038-1.162-3.372-2.828-4-5-2.071-1.309-4.571-1.975-7.5-2l-7.5 1c.124.607.457.94 1 1a7.468 7.468 0 0 1 3 2c-2.287 4.608-5.287 8.608-9 12a91.83 91.83 0 0 1 5-11.5l-1.5-1.5c-2.518 1.528-4.685 1.195-6.5-1a9.864 9.864 0 0 1 6-1v-4c6.947-1.649 13.78-1.316 20.5 1a567.788 567.788 0 0 1 29-3c2.641.403 4.974 1.403 7 3 .377 3.644 1.543 7.31 3.5 11 .825.886 1.825 1.219 3 1z"/><path style="opacity:1" fill="#a5b4d6" d="M198.5 62.5c1.333.667 1.333 1.333 0 2-5.667-1.333-11.333-1.333-17 0-.543-.06-.876-.393-1-1a81.87 81.87 0 0 1 18-1z"/><path style="opacity:1" fill="#aab9db" d="M224.5 64.5h-1c-4.333-1.333-8.667-1.333-13 0-.543-.06-.876-.393-1-1l7.5-1c2.929.025 5.429.691 7.5 2z"/><path style="opacity:1" fill="#a5b3d4" d="M385.5 62.5c1.291-.237 2.291.096 3 1h-2c-7.852-.325-15.518.008-23 1-.543-.06-.876-.393-1-1a133.125 133.125 0 0 1 23-1z"/><path style="opacity:1" fill="#132042" d="M46.5 15.5c-24.571 15.381-31.571 36.715-21 64h-7a122.436 122.436 0 0 0-1-19.5c.866-7.496 1.7-14.996 2.5-22.5a66.658 66.658 0 0 1 5.5-9c-1.161-1.724-.995-3.39.5-5 1.707.638 3.54.638 5.5 0-.395-3.023.605-4.023 3-3a15.653 15.653 0 0 1 4-2.5c-1.8-.317-2.134-.984-1-2a40.936 40.936 0 0 1 9-.5z"/><path style="opacity:1" fill="#e7eef3" d="M244.5 82.5h11v-3a31.12 31.12 0 0 0 2-2c1.333 4.333 1.333 8.667 0 13a15.265 15.265 0 0 0-3-5.5 60.94 60.94 0 0 0-11-.5 145.05 145.05 0 0 0 .5 17c1.825.603 3.659 1.27 5.5 2-6 1.333-12 1.333-18 0a31.147 31.147 0 0 0 2-2h4v-36a10.776 10.776 0 0 1-6-2 241.136 241.136 0 0 1 31-1 31.117 31.117 0 0 1-1 11 192.75 192.75 0 0 0-4-8.5 98.432 98.432 0 0 0-14-.5c-.323 6.19.01 12.19 1 18z"/><path style="opacity:1" fill="#121f44" d="M198.5 62.5a81.87 81.87 0 0 0-18 1c.124.607.457.94 1 1 1.422.209 2.755.709 4 1.5a206.95 206.95 0 0 1 11 13.5c-2.568.094-4.068 1.428-4.5 4-2.075-1.395-3.908-1.062-5.5 1-.952-1.545-1.285-3.212-1-5h-5c.25 5.08-.25 10.08-1.5 15-1.011.837-2.178 1.17-3.5 1 7.267-22.739-1.066-33.739-25-33 .256-2.276 1.59-3.443 4-3.5l-3-1c5.383-.762 10.049-1.595 14-2.5a4.451 4.451 0 0 1 2 1.5c.007 1.583-.326 3.25-1 5 1.75 1.319 3.75 1.819 6 1.5-.381 2.442.286 3.109 2 2a9.86 9.86 0 0 0 1-6h16c-.05-2.09.95-3.423 3-4 2.116 1.9 3.449 4.233 4 7z"/><path style="opacity:1" fill="#d5dcef" d="M338.5 63.5a128.43 128.43 0 0 0-16 .5c1.329 11.265 1.329 22.431 0 33.5v-32a10.776 10.776 0 0 1-6-2c7.49-1.32 14.823-1.32 22 0z"/><path style="opacity:1" fill="#101b47" d="M255.5 79.5v3h-11c-.256-2.293.077-4.46 1-6.5a45.309 45.309 0 0 1 7 .5c.15-3.661-1.35-4.661-4.5-3-3.356-1.719-4.022-4.052-2-7 2.553 2.229 5.386 2.562 8.5 1l3 4.5c-1.611 2.21-2.278 4.71-2 7.5z"/><path style="opacity:1" fill="#edf2f5" d="M338.5 63.5c10.961 1.253 14.128 6.92 9.5 17a28.4 28.4 0 0 1-7.5 4.5 235.023 235.023 0 0 1 12 14.5 49.497 49.497 0 0 0 7 4c-3.622 1.159-7.289 1.325-11 .5l-14-18a18.437 18.437 0 0 0-6-.5v10c-.295 2.235.039 4.235 1 6-1.548 1.294-3.548 1.961-6 2-2.196-.005-4.196-.338-6-1 1.542-.801 3.208-1.134 5-1v-4c1.329-11.069 1.329-22.235 0-33.5a128.43 128.43 0 0 1 16-.5z"/><path style="opacity:1" fill="#1e2846" d="M328.5 64.5c13.856-.668 17.856 5.166 12 17.5-3.863 1.354-7.863 1.854-12 1.5v-19z"/><path style="opacity:1" fill="#0c1c48" d="M330.5 66.5c.999 1.818 2.332 3.485 4 5a14.72 14.72 0 0 0 1.5-5 33.317 33.317 0 0 1 5 7c.495 1.973.662 3.973.5 6h-3c.216-2.18-.617-3.847-2.5-5-.863 2.249-.363 4.082 1.5 5.5-2.667 2-5.333 2-8 0 .967-4.401 1.3-8.901 1-13.5z"/><path style="opacity:1" fill="#e6ebef" d="M181.5 64.5c5.667-1.333 11.333-1.333 17 0h-4a4.934 4.934 0 0 0 .5 3l9 12c.399-.228.565-.562.5-1 3.713-3.392 6.713-7.392 9-12a7.468 7.468 0 0 0-3-2c4.333-1.333 8.667-1.333 13 0-2.491.329-4.657 1.329-6.5 3A55.958 55.958 0 0 0 206.5 82a347.997 347.997 0 0 0 13 18.5 22.136 22.136 0 0 0 6 3c-6 1.333-12 1.333-18 0l4-3a47.208 47.208 0 0 0-7-9c-.548-1.894-1.548-3.56-3-5a242.112 242.112 0 0 0-11 14.5c1.063 1.188 2.397 1.688 4 1.5.543.06.876.393 1 1a57.15 57.15 0 0 1-15 1c1.155-2.325 3.155-3.492 6-3.5 1.939-1.432 3.272-3.265 4-5.5a126.435 126.435 0 0 0 8.5-10c.667-1 .667-2 0-3a10.526 10.526 0 0 1-2.5-3 206.95 206.95 0 0 0-11-13.5 10.122 10.122 0 0 0-4-1.5z"/><path style="opacity:1" fill="#101d49" d="M196.5 79.5a10.526 10.526 0 0 0 2.5 3c.667 1 .667 2 0 3a126.435 126.435 0 0 1-8.5 10 83.377 83.377 0 0 1-5-4c-.658 1.937-.991 3.77-1 5.5-2.851 1.289-5.851 1.789-9 1.5v-3c1.322.17 2.489-.163 3.5-1 1.25-4.92 1.75-9.92 1.5-15h5c-.285 1.788.048 3.455 1 5 1.592-2.062 3.425-2.395 5.5-1 .432-2.572 1.932-3.906 4.5-4z"/><path style="opacity:1" fill="#1b2641" d="M204.5 91.5c-3.45-.744-5.116.59-5 4h-3c.032 2.576-.635 4.909-2 7-1.603.188-2.937-.312-4-1.5 3.506-5 7.173-9.832 11-14.5 1.452 1.44 2.452 3.106 3 5z"/><path style="opacity:1" fill="#e9eef3" d="M299.5 63.5c13.086 8.74 15.586 20.074 7.5 34a32.612 32.612 0 0 0-4.5 4c-9.31 4.43-18.31 3.93-27-1.5a25.154 25.154 0 0 1-4-4.5c-3.591-7.457-3.924-15.123-1-23 7.348-9.782 17.015-12.782 29-9z"/><path style="opacity:1" fill="#101d46" d="M286.5 64.5c8.743-1.042 14.576 2.625 17.5 11 .667 5 .667 10 0 15-.754 3.184-2.254 5.851-4.5 8-3.737 1.659-7.237 1.326-10.5-1a9.264 9.264 0 0 0-2.5 2c-2.113-2.285-4.613-3.952-7.5-5-1.609-6.636-1.776-13.303-.5-20a30.326 30.326 0 0 1 7-6c.929-1.189 1.262-2.522 1-4z"/><path style="opacity:1" fill="#e7ecf2" d="M150.5 62.5c23.934-.739 32.267 10.261 25 33-6.677 8.281-15.344 11.114-26 8.5a48.531 48.531 0 0 1-11-7.5c-7.243-15.483-3.243-26.817 12-34z"/><path style="opacity:1" fill="#152042" d="M162.5 65.5c4.408 1.914 7.241 5.248 8.5 10 1.034 6.867.367 13.533-2 20-4.017 6.638-9.85 8.804-17.5 6.5-2.909-1.406-4.909-3.572-6-6.5a4.932 4.932 0 0 1 3 .5c2.24 1.513 3.74 3.013 4.5 4.5 3.193-1.091 6.359-1.258 9.5-.5a24.932 24.932 0 0 0 2-7.5 31.985 31.985 0 0 1-2-13c2.415.126 4.749.293 7 .5-.74-3.646-2.407-6.813-5-9.5a3.647 3.647 0 0 1 1-1.5l-4-2c.556-.383.889-.883 1-1.5z"/><path style="opacity:1" fill="#18233f" d="M157.5 64.5c.086.996-.248 1.83-1 2.5-7.226.582-9.726 4.415-7.5 11.5 2.048-2.336 3.882-2.336 5.5 0l-3.5 1a165.685 165.685 0 0 0-7.5-3v13c-3.356-10.098-.689-18.265 8-24.5a18.437 18.437 0 0 1 6-.5z"/><path style="opacity:1" fill="#0e1c48" d="M157.5 64.5c1.792-.134 3.458.2 5 1-.111.617-.444 1.117-1 1.5l4 2a3.647 3.647 0 0 0-1 1.5c2.593 2.687 4.26 5.854 5 9.5a178.835 178.835 0 0 0-7-.5 31.985 31.985 0 0 0 2 13 24.932 24.932 0 0 1-2 7.5c-3.141-.758-6.307-.591-9.5.5-.76-1.487-2.26-2.987-4.5-4.5a4.932 4.932 0 0 0-3-.5c-1.574-1.602-2.241-3.602-2-6v-13c2.49.925 4.99 1.925 7.5 3l3.5-1c-1.618-2.336-3.452-2.336-5.5 0-2.226-7.085.274-10.918 7.5-11.5.752-.67 1.086-1.504 1-2.5z"/><path style="opacity:1" fill="#17223e" d="M286.5 64.5c.262 1.478-.071 2.811-1 4a30.326 30.326 0 0 0-7 6c-1.276 6.697-1.109 13.364.5 20 2.887 1.048 5.387 2.715 7.5 5a9.264 9.264 0 0 1 2.5-2c3.263 2.326 6.763 2.659 10.5 1-7.101 5.656-13.934 5.323-20.5-1-4.577-9.375-4.577-18.708 0-28 2.128-2.308 4.628-3.974 7.5-5z"/><path style="opacity:1" fill="#b7c4da" d="M25.5 79.5c-10.571-27.285-3.571-48.619 21-64 25.14-9.593 45.64-3.592 61.5 18 13.162 30.847 4.995 54.347-24.5 70.5a34.026 34.026 0 0 1-8 1.5v5h-3v3c1.322.17 2.489-.163 3.5-1-.36 7.273-4.193 10.44-11.5 9.5-6.067-3.192-6.733-6.692-2-10.5-.825-.886-1.825-1.219-3-1 .552-1.831.552-3.497 0-5a122.582 122.582 0 0 1-14-2.5c-4.719-5.725-9.886-11.225-15.5-16.5a787.31 787.31 0 0 0-4.5-7z"/><path style="opacity:1" fill="#162143" d="M75.5 96.5c.709.904 1.709 1.237 3 1 4.42.033 8.754-.133 13-.5-9.202 6.909-19.535 9.243-31 7-5.512-1.176-10.345-3.676-14.5-7.5-.78-1.444-.614-2.777.5-4 1.987 1.827 4.32 2.827 7 3 .219-1.175-.114-2.175-1-3-6.116-1.849-6.283-3.516-.5-5A248.386 248.386 0 0 1 65.5 94a33.547 33.547 0 0 0 10 2.5z"/><path style="opacity:1" fill="#738099" d="M72.5 98.5c3.81 1.254 3.81 2.254 0 3v-3z"/><path style="opacity:1" fill="#aabddb" d="M61.5 97.5c1.837.14 2.17.806 1 2-.797-.457-1.13-1.124-1-2z"/><path style="opacity:1" fill="#333c50" d="M42.5 89.5c.251 6.464 3.584 10.964 10 13.5-8.221-.542-11.555-5.042-10-13.5z"/><path style="opacity:1" fill="#6e798f" d="M76.5 95.5h10l-8 2c-1.291.237-2.291-.096-3-1 .667 0 1-.333 1-1z"/><path style="opacity:1" fill="#1d2a38" d="M66.5 90.5h7c.353 2.135-.48 3.468-2.5 4a40.778 40.778 0 0 1-5.5-2.5c.556-.383.89-.883 1-1.5z"/><path style="opacity:1" fill="#192542" d="M89.5 95.5c.612-3.197 2.612-4.53 6-4v-6c3.67.803 6.336-.364 8-3.5a39.375 39.375 0 0 1-6-4.5c-2.478 1.222-3.478 3.222-3 6a8.434 8.434 0 0 0-4 .5 55.495 55.495 0 0 1-13 8.5c-.886.825-1.219 1.825-1 3-.997.03-1.664-.47-2-1.5.648-1.44.98-2.94 1-4.5 20.998-7.66 28.498-22.327 22.5-44C86.79 25.098 70.624 19.93 49.5 30 35.519 40.417 31.352 53.917 37 70.5a36.638 36.638 0 0 0 9.5 13c-1.631 1.797-3.631 2.964-6 3.5 1.09 2.279.756 4.446-1 6.5-17.093-15.135-21.593-33.468-13.5-55C43.257 11.245 66.09 5.412 94.5 21c19.649 17.416 23.482 37.916 11.5 61.5-3.933 6.445-9.433 10.778-16.5 13z"/><path style="opacity:1" fill="#0e1c48" d="m94.5 83.5 1 2v6c-3.388-.53-5.388.803-6 4h-13c-.219-1.175.114-2.175 1-3a55.495 55.495 0 0 0 13-8.5 8.434 8.434 0 0 1 4-.5z"/><path style="opacity:1" fill="#242e3c" d="M47.5 84.5c4.044-.542 7.711.291 11 2.5-2.313-.15-4.647-.65-7-1.5a12.8 12.8 0 0 0-6 3l-1-1c.84-1.235 1.84-2.235 3-3z"/><path style="opacity:1" fill="#acb6d2" d="m95.5 85.5-1-2c-.478-2.778.522-4.778 3-6a39.375 39.375 0 0 0 6 4.5c-1.664 3.136-4.33 4.303-8 3.5z"/><path style="opacity:1" fill="#202745" d="M96.5 79.5c2.797.467 4.131 2.133 4 5-3.755-.063-5.088-1.73-4-5z"/><path style="opacity:1" fill="#b3bed8" d="M34.5 76.5c2.448-.49 4.115.343 5 2.5-1.199 2.885-3.199 4.552-6 5 1.727-1.39 3.06-3.056 4-5l-1-1.5c-1.74 1.71-3.74 2.544-6 2.5 1.23-1.405 2.564-2.571 4-3.5z"/><path style="opacity:1" fill="#b0bad4" d="M100.5 69.5c2.058 1.433 4.392 2.1 7 2 .585 2.76-.415 4.427-3 5a23.6 23.6 0 0 0-6-2.5 10.255 10.255 0 0 0 4-1.5c-1.112-.765-1.779-1.765-2-3z"/><path style="opacity:1" fill="#2f3956" d="M103.5 73.5c3.297-.171 3.631.495 1 2-.798-.457-1.131-1.124-1-2z"/><path style="opacity:1" fill="#abb6ca" d="M29.5 67.5c4.295-.221 4.962 1.112 2 4l1 1c.951-.826 1.951-.992 3-.5-2.451 2.211-5.118 3.044-8 2.5l3-4c-1.52-.38-3.187-.546-5-.5 1.566-.608 2.9-1.442 4-2.5z"/><path style="opacity:1" fill="#adb9d3" d="M103.5 60.5c5.172-.935 7.339 1.065 6.5 6-2.064 1.091-4.231 1.258-6.5.5-2.561-2.156-2.561-4.323 0-6.5z"/><path style="opacity:1" fill="#18243e" d="M104.5 61.5c3.661-.15 4.661 1.35 3 4.5-3.459.145-4.459-1.355-3-4.5z"/><path style="opacity:1" fill="#abb5d5" d="M26.5 62.5c7.15-.133 7.482.534 1 2l-3-.5c.916-.278 1.582-.778 2-1.5z"/><path style="opacity:1" fill="#b1bcd9" d="M24.5 52.5c10.791 3.34 10.458 5.507-1 6.5a34.071 34.071 0 0 1 6-3c-2.26-.55-3.926-1.716-5-3.5z"/><path style="opacity:1" fill="#c1d0e1" d="M102.5 52.5h8c.169 4.54-.498 4.874-2 1a6.802 6.802 0 0 0-1.5 3c-1.698-1.24-3.198-2.574-4.5-4z"/><path style="opacity:1" fill="#b3bdd7" d="M26.5 43.5c.79 1.108 1.29 2.442 1.5 4 1.69-2.63 2.858-2.297 3.5 1l2-3c.552 1.503.552 3.17 0 5a21.034 21.034 0 0 1-7-2c-.934-1.595-.934-3.261 0-5z"/><path style="opacity:1" fill="#0f1c47" d="M87.5 34.5c8.313 6.583 11.98 15.25 11 26-.897-1.098-1.73-1.098-2.5 0a40.936 40.936 0 0 0-.5 9c-2.436-.183-4.603.484-6.5 2l-1-26c-1.627-1.032-2.793-2.366-3.5-4v-3l1-2c1-.333 1.667-1 2-2z"/><path style="opacity:1" fill="#b3c0d3" d="M105.5 42.5c2.148-.11 2.481.556 1 2l3 2c-2.963-.726-5.463.274-7.5 3-.507-1.496-.007-2.663 1.5-3.5-5.394-2.204-5.227-2.704.5-1.5 1.03-.336 1.53-1.003 1.5-2z"/><path style="opacity:1" fill="#1a2446" d="M87.5 34.5c-.333 1-1 1.667-2 2-.397-1.025-1.063-1.192-2-.5a20.473 20.473 0 0 1-2.5 3.5 76.832 76.832 0 0 0-3.5-6 22.121 22.121 0 0 0-3 6c-4.46-5.6-5.46-5.267-3 1 .548 1.188.88 2.355 1 3.5 3.761.738 7.428.405 11-1-1.212-1.107-.879-1.607 1-1.5.707 1.634 1.873 2.968 3.5 4l1 26c1.897-1.516 4.064-2.183 6.5-2a40.936 40.936 0 0 1 .5-9c.77-1.098 1.603-1.098 2.5 0-3.63 20.79-15.963 29.956-37 27.5-3.474-4.693-8.14-6.693-14-6C35.836 70.617 33.336 57.45 40 42.5 49.895 27.646 63.395 23.146 80.5 29c2.766 1.371 5.1 3.204 7 5.5z"/><path style="opacity:1" fill="#999fb9" d="M62.5 83.5h10c-.11.617-.444 1.117-1 1.5-3.464.817-6.798.483-10-1 .228-.399.562-.565 1-.5z"/><path style="opacity:1" fill="#697285" d="M60.5 80.5c4.667 1.333 9.333 1.333 14 0-.282 1.278-.949 2.278-2 3h-10c-1.051-.722-1.718-1.722-2-3z"/><path style="opacity:1" fill="#d4dee9" d="M74.5 80.5c-4.667 1.333-9.333 1.333-14 0-.534-5.108.633-5.108 3.5 0 .191-2.151 1.358-4.151 3.5-6 2.142 1.849 3.309 3.849 3.5 6 2.868-5.108 4.034-5.108 3.5 0z"/><path style="opacity:1" fill="#c6d1e3" d="M47.5 48.5a125.6 125.6 0 0 1 3 21 145.004 145.004 0 0 0 34 0c-.33-7.032.003-14.032 1-21a121.87 121.87 0 0 1 1 22c-6.56-.532-12.893.135-19 2-1.237-.056-2.237-.556-3-1.5A145.29 145.29 0 0 1 48 69.5c-.893 1.211-1.726 1.211-2.5 0l3-2c-.897-.17-1.897-.502-3-1l3-2.5c-4-1-4-2 0-3-4-1-4-2 0-3-3.878-.949-3.878-2.115 0-3.5l-3-2c1.103-.498 2.103-.83 3-1l-3-2c.457-.797 1.124-1.13 2-1z"/><path style="opacity:1" fill="#606671" d="M66.5 50.5h2c-.322 5.858.011 11.525 1 17-1.333 2.667-2.667 2.667-4 0 .989-5.475 1.322-11.142 1-17z"/><path style="opacity:1" fill="#f0f5fa" d="M82.5 47.5v19c-4.532-.318-8.866.015-13 1-.989-5.475-1.322-11.142-1-17-.086-.996.248-1.83 1-2.5a84.938 84.938 0 0 1 13-.5z"/><path style="opacity:1" fill="#7b8190" d="M82.5 47.5c.99 6.479 1.324 13.146 1 20h-14c4.134-.985 8.468-1.318 13-1v-19z"/><path style="opacity:1" fill="#9094a0" d="M71.5 60.5c2.505.08 5.005.08 7.5 0 .374.916.874 1.75 1.5 2.5a40.936 40.936 0 0 1-9 .5v-3z"/><path style="opacity:1" fill="#f0f4f9" d="M66.5 50.5c.322 5.858-.011 11.525-1 17-4.134-.985-8.468-1.318-13-1v-19c4.346-.166 8.68.001 13 .5.752.67 1.086 1.504 1 2.5z"/><path style="opacity:1" fill="#9a9ea4" d="M54.5 60.5a21.12 21.12 0 0 1 9 1c-.998 2.528-1.831 2.528-2.5 0-1.754 1.75-3.92 2.417-6.5 2v-3z"/><path style="opacity:1" fill="#0e1c47" d="M42.5 46.5a174.16 174.16 0 0 1 1 18.5c-.063 2.28-.897 4.114-2.5 5.5-2.09-7.568-2.59-15.235-1.5-23 1.291.237 2.291-.096 3-1z"/><path style="opacity:1" fill="#878fa1" d="M47.5 48.5h3v21a125.6 125.6 0 0 0-3-21z"/><path style="opacity:1" fill="#9ea2a8" d="M55.5 55.5h8c-.15 3.218-.984 3.551-2.5 1-1.066 1.783-2.566 2.283-4.5 1.5-.752-.67-1.086-1.504-1-2.5z"/><path style="opacity:1" fill="#92979a" d="M72.5 55.5h7v3c-1.701-.466-3.201-.466-4.5 0-.667-2.667-1.333-2.667-2 0a4.932 4.932 0 0 1-.5-3z"/><path style="opacity:1" fill="#9a9fa2" d="M70.5 50.5c3.169.055 6.336.055 9.5 0a4.452 4.452 0 0 1 1.5 2c-3.438.39-7.105.723-11 1v-3z"/><path style="opacity:1" fill="#91959c" d="M53.5 50.5c.722.417 1.222 1.084 1.5 2 1-2.667 2-2.667 3 0 1.754-1.75 3.92-2.417 6.5-2v3h-11v-3z"/><path style="opacity:1" fill="#888e9e" d="M84.5 38.5v3c-1.879-.107-2.212.393-1 1.5-3.572 1.405-7.239 1.738-11 1-.12-1.145-.452-2.312-1-3.5 4.653.5 8.987-.166 13-2z"/><path style="opacity:1" fill="#8d95a3" d="M50.5 39.5a46.797 46.797 0 0 0 13 1c-.304.65-.637 1.316-1 2-3.622 1.159-7.289 1.325-11 .5l1-1c-1.256-.417-1.923-1.25-2-2.5z"/><path style="opacity:1" fill="#d9e2ee" d="M63.5 40.5a46.797 46.797 0 0 1-13-1c-.57-5.18.43-5.18 3 0 .56-1.877 1.727-3.877 3.5-6 1.748 1.635 2.915 3.635 3.5 6 4.46-5.6 5.46-5.267 3 1z"/><path style="opacity:1" fill="#dfe3ef" d="m85.5 36.5-1 2c-4.013 1.834-8.347 2.5-13 2-2.46-6.267-1.46-6.6 3-1a22.121 22.121 0 0 1 3-6 76.832 76.832 0 0 1 3.5 6 20.473 20.473 0 0 0 2.5-3.5c.937-.692 1.603-.525 2 .5z"/><path style="opacity:1" fill="#b5c0d9" d="M99.5 32.5c2.744-.3 4.411.867 5 3.5-.944 4.332-3.444 5.498-7.5 3.5-1.084-3.159-.25-5.492 2.5-7z"/><path style="opacity:1" fill="#202b44" d="M99.5 34.5c5.145.982 5.312 2.649.5 5-3.073-1.248-3.24-2.915-.5-5z"/><path style="opacity:1" fill="#aeb9d0" d="M30.5 35.5c2.51.49 4.844 1.49 7 3a10.253 10.253 0 0 1-4 1.5 7.291 7.291 0 0 1 3 2c-2.769.21-5.269-.623-7.5-2.5-.3-1.566.2-2.899 1.5-4z"/><path style="opacity:1" fill="#1c263e" d="M31.5 36.5c1.074.75 1.24 1.75.5 3-1.728-.852-1.895-1.852-.5-3z"/><path style="opacity:1" fill="#adbad2" d="M34.5 28.5c2.136 1.219 4.47 2.052 7 2.5 1.566 2.677.9 4.01-2 4 1.231-1.183 1.231-2.35 0-3.5-3.35 1.774-5.016.774-5-3z"/><path style="opacity:1" fill="#91a0b3" d="M93.5 28.5c1.837.14 2.17.806 1 2-.797-.457-1.13-1.124-1-2z"/><path style="opacity:1" fill="#afbeda" d="M40.5 24.5c.397-1.025 1.063-1.192 2-.5a14.505 14.505 0 0 1 4 5c-.667.667-1.333.667-2 0-.828-1.992-2.161-3.492-4-4.5z"/><path style="opacity:1" fill="#b6c4df" d="M87.5 19.5c4.268 1.815 4.601 2.482 1 2v4a3.646 3.646 0 0 1-1.5-1c-.837 1.507-2.004 2.007-3.5 1.5a38.632 38.632 0 0 0 4-6.5z"/><path style="opacity:1" fill="#9babb8" d="M58.5 15.5c2.115 9.346.782 10.012-4 2 1.596.544 2.929-.123 4-2z"/><path style="opacity:1" fill="#beccf4" d="M66.5 17.5c1.837.14 2.17.806 1 2-.797-.457-1.13-1.124-1-2z"/><path style="opacity:1" fill="#aab9cc" d="M47.5 18.5c2.442-.38 3.108.286 2 2 1.941 1.816 2.608 3.816 2 6-1.04-2.94-3.04-4.774-6-5.5.88-.708 1.547-1.542 2-2.5z"/><path style="opacity:1" fill="#a8b4d0" d="M77.5 15.5c4.476.322 5.976 2.656 4.5 7-3.493 3.002-5.993 2.335-7.5-2 .257-2.192 1.257-3.86 3-5z"/><path style="opacity:1" fill="#192242" d="M77.5 17.5c1.859-.04 3.192.794 4 2.5-1.117 1.892-2.784 2.725-5 2.5-.134-1.791.2-3.458 1-5z"/><path style="opacity:1" fill="#152141" d="M190.5 95.5c-.728 2.235-2.061 4.068-4 5.5-2.845.008-4.845 1.175-6 3.5-1.213-1.075-2.713-1.741-4.5-2-2.761.956-5.261 2.456-7.5 4.5a70.523 70.523 0 0 1-9 1.5v-3c-5.407.74-10.74.74-16 0 .17-1.322-.163-2.489-1-3.5-4.39.132-5.723-1.701-4-5.5a48.531 48.531 0 0 0 11 7.5c10.656 2.614 19.323-.219 26-8.5v3c3.149.289 6.149-.211 9-1.5.009-1.73.342-3.563 1-5.5a83.377 83.377 0 0 0 5 4z"/><path style="opacity:1" fill="#1d2743" d="M299.5 63.5a13.118 13.118 0 0 1 7 1 89.705 89.705 0 0 1 8 16 867.192 867.192 0 0 0-4.5 18l-5 5c-.417-1.256-1.25-1.923-2.5-2a32.612 32.612 0 0 1 4.5-4c8.086-13.926 5.586-25.26-7.5-34z"/><path style="opacity:1" fill="#c3cbe1" d="M329.5 101.5a20.81 20.81 0 0 1 6 2 45.636 45.636 0 0 1-19 0c.124-.607.457-.94 1-1 1.804.662 3.804.995 6 1 2.452-.039 4.452-.706 6-2z"/><path style="opacity:1" fill="#142042" d="M385.5 62.5c-7.696-.33-15.362.002-23 1 .124.607.457.94 1 1 1.542.8 3.208 1.134 5 1v36a20.69 20.69 0 0 0-5 1c-.543.06-.876.393-1 1a113.23 113.23 0 0 0 26 .5c14.531-3.541 20.031-12.708 16.5-27.5-2.353-6.185-6.52-10.518-12.5-13 4.104.384 7.771 1.884 11 4.5a32.787 32.787 0 0 1 3.5 5.5 121.19 121.19 0 0 1 0 22 100.922 100.922 0 0 1-12.5 11.5c3.106 2.423 6.439 3.257 10 2.5 1.567-.023 2.9.477 4 1.5-7.421.291-14.755.458-22 .5-1.544-.29-2.877-.956-4-2-2.023 1.673-4.356 2.34-7 2v-3h-6c.219 1.175-.114 2.175-1 3-.929-1.189-1.262-2.522-1-4a4.934 4.934 0 0 1-3-.5c1.388-.889 1.222-1.389-.5-1.5a44.7 44.7 0 0 1-17.5 1.5c-.955-3.814-3.288-5.981-7-6.5.987-6.593-1.679-10.093-8-10.5-.38 2.326-1.38 4.16-3 5.5v-10a18.437 18.437 0 0 1 6 .5l14 18c3.711.825 7.378.659 11-.5a49.497 49.497 0 0 1-7-4c2.363-1.502 4.53-1.168 6.5 1 2.67-.724 4.17-2.39 4.5-5h4v-27c-4.191.468-7.524-.865-10-4a65.823 65.823 0 0 1 5.5-8 38.963 38.963 0 0 0 4.5 4.5c6.181.172 12.181.672 18 1.5z"/><path style="opacity:1" fill="#182240" d="M377.5 65.5a281.603 281.603 0 0 0-1 33c2.825.338 4.992-.662 6.5-3 .483.948.649 1.948.5 3 4.219.586 7.886-.414 11-3a89.06 89.06 0 0 0 3-16 13.118 13.118 0 0 1-7-1c1.324-1.435 2.99-2.435 5-3a32.36 32.36 0 0 0-4-5.5 1003.539 1003.539 0 0 0-11-4.5h6c4.956.119 8.456 2.452 10.5 7 2.193 8.104 1.86 16.104-1 24-5.944 5.666-12.777 7.333-20.5 5-.646-12.38.021-24.38 2-36z"/><path style="opacity:1" fill="#707887" d="M386.5 64.5v1h-9c-1.979 11.62-2.646 23.62-2 36h-1v-37h12z"/><path style="opacity:1" fill="#e7ecf1" d="M386.5 63.5h6c5.98 2.482 10.147 6.815 12.5 13 3.531 14.792-1.969 23.959-16.5 27.5a113.23 113.23 0 0 1-26-.5c.124-.607.457-.94 1-1 1.634.661 3.467.994 5.5 1 2.295-.047 4.129-.713 5.5-2h1c7.723 2.333 14.556.666 20.5-5 2.86-7.896 3.193-15.896 1-24-2.044-4.548-5.544-6.881-10.5-7v-2z"/><path style="opacity:1" fill="#eff3f4" d="M363.5 64.5c7.482-.992 15.148-1.325 23-1v1h-12v37c-1.371 1.287-3.205 1.953-5.5 2-2.033-.006-3.866-.339-5.5-1a20.69 20.69 0 0 1 5-1v-36c-1.792.134-3.458-.2-5-1z"/><path style="opacity:1" fill="#0e1c48" d="M377.5 65.5h3c3.572 1.436 7.239 2.936 11 4.5a32.36 32.36 0 0 1 4 5.5c-2.01.565-3.676 1.565-5 3a13.118 13.118 0 0 0 7 1 89.06 89.06 0 0 1-3 16c-3.114 2.586-6.781 3.586-11 3a4.934 4.934 0 0 0-.5-3c-1.508 2.338-3.675 3.338-6.5 3a281.603 281.603 0 0 1 1-33z"/><path style="opacity:1" fill="#142143" d="M62.5 105.5c3.63.6 7.296 1.267 11 2-4.31 3.375-3.976 6.042 1 8-5.292 8.016-9.958 7.683-14-1 2.135.353 3.468-.48 4-2.5a19.933 19.933 0 0 0-3-4.5c.363-.683.696-1.35 1-2z"/><path style="opacity:1" fill="#0c1d3c" d="M-.5 132.5h440v2H-.5v-2z"/><path style="opacity:1" fill="#fcfdfd" d="M-.5 135.5h439v304H-.5v-304z"/><path style="opacity:1" fill="#ccd1d8" d="M-.5 135.5v-1h440v305h-1v-304H-.5z"/><path style="opacity:1" fill="#101e46" d="M126.5 179.5c-.768.763-1.268 1.763-1.5 3 .057 25.622-.109 51.289-.5 77-2.054.135-3.721-.532-5-2 .167-26.002 0-52.002-.5-78-10.836-5.013-13.836-13.013-9-24 6.131-6.596 13.298-7.763 21.5-3.5 6.972 6.751 7.806 14.251 2.5 22.5a100.813 100.813 0 0 1-7.5 5z"/><path style="opacity:1" fill="#0f1d47" d="M413.5 152.5c6.102 2.342 9.435 6.842 10 13.5-.684 7.241-4.35 12.074-11 14.5a81.316 81.316 0 0 0-2.5 3 48.493 48.493 0 0 1-4.5-7 16.873 16.873 0 0 0-8-1 56.895 56.895 0 0 0-2-9.5c1.655-2.247 1.988-4.58 1-7a22.508 22.508 0 0 1 7-2c-1.333-1-1.333-2 0-3 2.547-.66 5.047-.493 7.5.5.355-1.009 1.188-1.676 2.5-2z"/><path style="opacity:1" fill="#212b46" d="M198.5 184.5c-3.646-.962-4.813-3.295-3.5-7 1.789-1.729 3.956-2.396 6.5-2v-4c2.161-.326 3.994-1.326 5.5-3 .27-2.724.77-5.391 1.5-8a15.69 15.69 0 0 0-2-4 71.083 71.083 0 0 1-8-5.5c-3-.667-6-.667-9 0a227.624 227.624 0 0 0-7.5 6.5c-.667 3-.667 6 0 9 1.362 1.936 3.195 3.269 5.5 4 3.962 7.95 4.962 16.283 3 25a162.597 162.597 0 0 0-.5-18c-11.087-6.59-13.087-15.257-6-26 10.136-6.586 18.469-4.92 25 5 2.879 9.909-.454 16.909-10 21a24.935 24.935 0 0 0-.5 7z"/><path style="opacity:1" fill="#1b243c" d="M329.5 149.5c-3.852 4.68-5.352 10.013-4.5 16a10.258 10.258 0 0 0 1.5 4c2.1 1.281 3.766 2.948 5 5 1.189.929 2.522 1.262 4 1v24c-.992-7.482-1.325-15.148-1-23-5.688-.511-9.521-3.511-11.5-9-1.068-5.268-.401-10.268 2-15 1.129-1.641 2.629-2.641 4.5-3z"/><path style="opacity:1" fill="#101d46" d="M343.5 175.5h-5c-.526 7.052-.193 14.218 1 21.5-.215 1.908-1.215 3.074-3 3.5-.667 0-1-.333-1-1v-24c-1.478.262-2.811-.071-4-1-1.234-2.052-2.9-3.719-5-5a10.258 10.258 0 0 1-1.5-4c-.852-5.987.648-11.32 4.5-16 10.12-4.751 17.62-2.084 22.5 8 1.649 8.257-1.184 14.257-8.5 18z"/><path style="opacity:1" fill="#1b243f" d="M381.5 171.5c-1.289 1.001-2.622.834-4-.5a12.494 12.494 0 0 0-7 0 68.626 68.626 0 0 0-10 4.5v16c5.061 3.36 10.727 5.36 17 6-13.86 2.315-20.36-3.685-19.5-18 3.379-9.108 9.879-12.608 19.5-10.5 1.566.608 2.9 1.442 4 2.5z"/><path style="opacity:1" fill="#131f47" d="M198.5 184.5c.111.617.444 1.117 1 1.5 9 .667 18 .667 27 0 2.672-2.951 6.005-4.117 10-3.5v4a1012.624 1012.624 0 0 1-10 5h-29v8a184.114 184.114 0 0 1-20 19.5 84.902 84.902 0 0 1-13 .5 9.175 9.175 0 0 0-4.5 2c-.383-.556-.883-.889-1.5-1-1.419-.951-3.085-1.284-5-1-8.474-2.006-17.141-2.34-26-1v-3a40.282 40.282 0 0 0 12-1c.65-3.426.65-6.926 0-10.5a57.915 57.915 0 0 1 4-11.5c2.421-2.123 2.588-4.456.5-7-2.885-12.105 1.782-19.105 14-21 12.783 2.241 17.45 9.575 14 22-4.965 7.322-11.798 10.155-20.5 8.5l-7.5 7.5a50.464 50.464 0 0 0-.5 10 256.827 256.827 0 0 0 32-1c5.022-5.354 10.022-10.687 15-16 1.962-8.717.962-17.05-3-25-2.305-.731-4.138-2.064-5.5-4-.667-3-.667-6 0-9a227.624 227.624 0 0 1 7.5-6.5c3-.667 6-.667 9 0a71.083 71.083 0 0 0 8 5.5 15.69 15.69 0 0 1 2 4 46.745 46.745 0 0 0-1.5 8c-1.506 1.674-3.339 2.674-5.5 3v4c-2.544-.396-4.711.271-6.5 2-1.313 3.705-.146 6.038 3.5 7z"/><path style="opacity:1" fill="#0f1d48" d="M381.5 171.5c2.414 1.411 4.081 3.411 5 6-.824 3.812-1.324 7.812-1.5 12-1.121 3.65-3.621 5.483-7.5 5.5 2.119.342 2.453 1.175 1 2.5h-1c-6.273-.64-11.939-2.64-17-6v-16a68.626 68.626 0 0 1 10-4.5 12.494 12.494 0 0 1 7 0c1.378 1.334 2.711 1.501 4 .5z"/><path style="opacity:1" fill="#1a2442" d="M247.5 159.5c-.763.768-1.763 1.268-3 1.5.335 1.503.335 2.836 0 4-7.077.739-9.911 4.573-8.5 11.5 2.268 2.585 3.434 5.585 3.5 9 5.953 2.567 11.953 2.401 18-.5.619-3.57 2.286-6.57 5-9-1.743-2.853-2.91-6.019-3.5-9.5a401.014 401.014 0 0 0-6.5-7c11.926 5.442 14.592 13.775 8 25-3.151 3.609-7.151 5.275-12 5a42.4 42.4 0 0 1-12-3v-4c-3.995-.617-7.328.549-10 3.5-9 .667-18 .667-27 0-.556-.383-.889-.883-1-1.5 8.673.166 17.34 0 26-.5a67.702 67.702 0 0 0 8.5-4.5c-.337-6.857 1.83-12.691 6.5-17.5 2.409-1.707 5.075-2.54 8-2.5z"/><path style="opacity:1" fill="#0e1d49" d="M247.5 159.5h5c2.15 2.26 4.317 4.593 6.5 7 .59 3.481 1.757 6.647 3.5 9.5-2.714 2.43-4.381 5.43-5 9-6.047 2.901-12.047 3.067-18 .5-.066-3.415-1.232-6.415-3.5-9-1.411-6.927 1.423-10.761 8.5-11.5.335-1.164.335-2.497 0-4 1.237-.232 2.237-.732 3-1.5z"/><path style="opacity:1" fill="#172345" d="M413.5 152.5c-1.312.324-2.145.991-2.5 2-2.453-.993-4.953-1.16-7.5-.5-1.333 1-1.333 2 0 3-2.452.29-4.785.956-7 2 .988 2.42.655 4.753-1 7a56.895 56.895 0 0 1 2 9.5c2.747-.313 5.414.02 8 1a48.493 48.493 0 0 0 4.5 7 81.316 81.316 0 0 1 2.5-3c.167 26.669 0 53.335-.5 80L378.5 294l-93 1a221.591 221.591 0 0 0-6.5 12.5 240.38 240.38 0 0 0 0 31 107.125 107.125 0 0 1 8.5 9 12.93 12.93 0 0 1-5-.5c-.928-3.764-3.261-5.93-7-6.5.065 2.986-1.102 5.32-3.5 7a24.935 24.935 0 0 1-.5-7c1.322.17 2.489-.163 3.5-1 2.162-9.413 1.995-18.746-.5-28a7.248 7.248 0 0 0-2.5 2 12.93 12.93 0 0 1-.5-5c-3.692.529-4.358 2.029-2 4.5-1.475 4.083-3.475 4.416-6 1 .923-2.041 1.256-4.208 1-6.5a10.776 10.776 0 0 0-6 2 16.229 16.229 0 0 1 2 5c.007 8.929-.16 17.929-.5 27a45.59 45.59 0 0 0-9 7 68.77 68.77 0 0 1-6.5 13c-1.458 1.282-2.792 1.282-4 0 4.5-8.313 10-15.98 16.5-23 .667-9.333.667-18.667 0-28a192.147 192.147 0 0 0-10.5-16c-31.539-.681-63.206-1.348-95-2a1372.374 1372.374 0 0 1-31.5-31 8.43 8.43 0 0 1-.5-4c1.279 1.468 2.946 2.135 5 2 .391-25.711.557-51.378.5-77 .232-1.237.732-2.237 1.5-3v33c3.462.982 7.129 1.315 11 1v-15a25.619 25.619 0 0 0 6-6 57.915 57.915 0 0 0-4 11.5c.65 3.574.65 7.074 0 10.5a40.282 40.282 0 0 1-12 1v3c8.859-1.34 17.526-1.006 26 1h-27c-1.16 13.16-1.327 26.494-.5 40 .383-.556.883-.889 1.5-1a495.07 495.07 0 0 1 29 29.5c13.663.5 27.329.667 41 .5-2.013-10.675.487-20.008 7.5-28l1-28 11.5-15.5c8.66-.5 17.327-.666 26-.5.207-2.741 1.207-5.074 3-7 .862 3.417-.138 6.417-3 9-7.973.638-15.973 1.304-24 2-1.372 2.12-.705 3.12 2 3a159.201 159.201 0 0 1-9.5 12c-.5 7.659-.666 15.326-.5 23h35c1.951-7.448 6.784-11.448 14.5-12 3.241.134 6.075 1.134 8.5 3-4.699-.841-9.366-.841-14 0-3.324.659-4.657 2.659-4 6h-3v4h-30v4c9.703.025 19.37-.141 29-.5 1.814 2.481 2.48 5.315 2 8.5-1.225-1.437-2.225-3.104-3-5a181.045 181.045 0 0 0-38 0 10.502 10.502 0 0 1-3.5 5 145.053 145.053 0 0 0-.5 17 576.95 576.95 0 0 1 48 1l9 16c3.88 1.295 7.714 1.295 11.5 0a166.424 166.424 0 0 1 6.5-16 484.862 484.862 0 0 1 44-1 145.053 145.053 0 0 0-.5-17 362.119 362.119 0 0 1-22-13 1059.732 1059.732 0 0 0-1.5-46c-8.405-4.709-11.238-11.709-8.5-21 .708-.881 1.542-1.547 2.5-2-2.883 6.005-2.55 11.839 1 17.5a12.93 12.93 0 0 0 5 .5v4a4.934 4.934 0 0 1 3 .5l-1 1c1.394.956 2.061 2.289 2 4a160.111 160.111 0 0 0 1 38.5 2350.026 2350.026 0 0 0 2-45h7c-1.602 1.574-3.602 2.241-6 2-.167 14.004 0 28.004.5 42a224.965 224.965 0 0 1 21.5 13v21c15.509.33 30.842-.004 46-1l30-31a361.608 361.608 0 0 0 1-38c-11.179-.328-22.179.005-33 1v24c10.712 2.771 14.712 9.437 12 20a59.685 59.685 0 0 0-2-13h-4c.17-1.322-.163-2.489-1-3.5-2.254-1.15-4.587-1.484-7-1-2.226 6.032-3.726 5.866-4.5-.5-1.393 2.625-2.559 2.625-3.5 0 1.171-.845 2.505-1.511 4-2 .405 1.05 1.071 1.05 2 0a26.585 26.585 0 0 0 2-3.5 2159.536 2159.536 0 0 1-2-17.5c1.994-2.316 2.994-4.982 3-8-3.767-1.104-7.433-.937-11 .5 2.316 1.298 4.316 2.798 6 4.5a84.902 84.902 0 0 1-13-.5 468.225 468.225 0 0 1-18-18.5c1.785-.426 2.785-1.592 3-3.5-1.193-7.282-1.526-14.448-1-21.5h5c-.709.904-1.709 1.237-3 1-.166 6.675 0 13.342.5 20l15.5 15.5c10.328.5 20.661.666 31 .5 1.134-2.466 1.301-5.133.5-8-.383-.556-.883-.889-1.5-1-1.943-2.971-4.609-4.971-8-6 1.453-1.325 1.119-2.158-1-2.5 3.879-.017 6.379-1.85 7.5-5.5.176-4.188.676-8.188 1.5-12 1.492 4.928 1.158 9.761-1 14.5a56.975 56.975 0 0 0 8.5 9.5c.499 3.652.665 7.318.5 11h11v-32c-10.129-2.23-14.296-8.563-12.5-19 4.26-9.559 11.094-12.559 20.5-9z"/><path style="opacity:1" fill="#92a2b9" d="M329.5 267.5c.991 6.479 1.324 13.146 1 20h45a529.493 529.493 0 0 1-46 1v-21z"/><path style="opacity:1" fill="#1d253d" d="M175.5 251.5c4.035 12.846-.799 20.18-14.5 22-2.221.107-4.054-.56-5.5-2a72.367 72.367 0 0 0 12-.5 20.532 20.532 0 0 1 2.5-4.5l1 1c.45-2.606 1.95-3.939 4.5-4v-12z"/><path style="opacity:1" fill="#121e48" d="M269.5 249.5c5.724 3.307 7.891 8.307 6.5 15-3.444 10.476-10.611 14.309-21.5 11.5a208.311 208.311 0 0 1-5-4.5c.48-3.185-.186-6.019-2-8.5-9.63.359-19.297.525-29 .5v-4h30v-4h3c-.657-3.341.676-5.341 4-6 4.634-.841 9.301-.841 14 0z"/><path style="opacity:1" fill="#111d46" d="M363.5 245.5c.941 2.625 2.107 2.625 3.5 0 .774 6.366 2.274 6.532 4.5.5 2.413-.484 4.746-.15 7 1 .837 1.011 1.17 2.178 1 3.5h4a59.685 59.685 0 0 1 2 13c-5.125 9.881-12.791 12.381-23 7.5-6.076-5.773-7.576-12.606-4.5-20.5a38.47 38.47 0 0 1 5.5-5z"/><path style="opacity:1" fill="#7c8395" d="M373.5 219.5c10.821-.995 21.821-1.328 33-1a361.608 361.608 0 0 1-1 38v-37h-32z"/><path style="opacity:1" fill="#0e1d48" d="M175.5 251.5v12c-2.55.061-4.05 1.394-4.5 4l-1-1a20.532 20.532 0 0 0-2.5 4.5 72.367 72.367 0 0 1-12 .5c-.992.172-1.658-.162-2-1a1400.008 1400.008 0 0 1-5-11.5 40.281 40.281 0 0 1 1.5-7.5c3.482-1.83 6.982-3.664 10.5-5.5a130.161 130.161 0 0 1-1-22.5h4v21c3.933.752 6.933 2.919 9 6.5a4.934 4.934 0 0 0 3 .5z"/><path style="opacity:1" fill="#445064" d="M126.5 219.5v1a371.687 371.687 0 0 0 1 38c-.617.111-1.117.444-1.5 1-.827-13.506-.66-26.84.5-40z"/><path style="opacity:1" fill="#abb1c5" d="M126.5 220.5v-1h27c1.915-.284 3.581.049 5 1 .325 7.852-.008 15.518-1 23v-23h-31z"/><path style="opacity:1" fill="#18223c" d="M164.5 219.5v24c4.946.967 8.612 3.634 11 8a4.934 4.934 0 0 1-3-.5c-2.067-3.581-5.067-5.748-9-6.5v-21h-4a130.161 130.161 0 0 0 1 22.5c-3.518 1.836-7.018 3.67-10.5 5.5a40.281 40.281 0 0 0-1.5 7.5c1.645 3.831 3.312 7.664 5 11.5-5.649-4.672-7.482-10.672-5.5-18 1.722-4.556 4.889-7.556 9.5-9 .992-7.482 1.325-15.148 1-23 .617.111 1.117.444 1.5 1a9.175 9.175 0 0 1 4.5-2z"/><path style="opacity:1" fill="#0e1c49" d="M367.5 243.5v-24c-1.684-1.702-3.684-3.202-6-4.5 3.567-1.437 7.233-1.604 11-.5-.006 3.018-1.006 5.684-3 8 .646 5.865 1.313 11.698 2 17.5a26.585 26.585 0 0 1-2 3.5c-.929 1.05-1.595 1.05-2 0z"/><path style="opacity:1" fill="#6c798a" d="M137.5 198.5v15c-3.871.315-7.538-.018-11-1h10c-.319-4.863.014-9.53 1-14z"/><path style="opacity:1" fill="#202944" d="M271.5 225.5a36.875 36.875 0 0 0-1-12c-2.177-1.176-3.511-3.01-4-5.5a31.144 31.144 0 0 1-8.5-2.5c-2.679 1.395-5.512 2.061-8.5 2 .558-1.29 1.558-2.123 3-2.5 14.49-2.173 21.323 3.993 20.5 18.5-.278.916-.778 1.582-1.5 2z"/><path style="opacity:1" fill="#969cb3" d="M386.5 203.5c.617.111 1.117.444 1.5 1 .801 2.867.634 5.534-.5 8a29.23 29.23 0 0 0-1-9z"/><path style="opacity:1" fill="#111f48" d="M271.5 225.5c-2.754 6.137-7.587 9.137-14.5 9-6.521-.85-11.021-4.35-13.5-10.5a242.43 242.43 0 0 0-22-.5c-2.705.12-3.372-.88-2-3 8.027-.696 16.027-1.362 24-2 2.862-2.583 3.862-5.583 3-9 .473-1.406 1.473-2.073 3-2 2.988.061 5.821-.605 8.5-2a31.144 31.144 0 0 0 8.5 2.5c.489 2.49 1.823 4.324 4 5.5a36.875 36.875 0 0 1 1 12z"/><path style="opacity:1" fill="#111e48" d="M313.5 210.5h-7a2350.026 2350.026 0 0 1-2 45 160.111 160.111 0 0 1-1-38.5c.061-1.711-.606-3.044-2-4l1-1a4.934 4.934 0 0 0-3-.5v-4a12.93 12.93 0 0 1-5-.5c-3.55-5.661-3.883-11.495-1-17.5.011-1.517.677-2.684 2-3.5 10.766-5.392 18.933-2.892 24.5 7.5 1.456 7.143-.711 12.81-6.5 17z"/><path style="opacity:1" fill="#797b81" d="M226.5 191.5c-9.152.994-18.485 1.327-28 1 .302 2.559-.032 4.893-1 7v-8h29z"/><path style="opacity:1" fill="#3a485f" d="M151.5 292.5c31.794.652 63.461 1.319 95 2-31.335.167-62.668 0-94-.5-.556-.383-.889-.883-1-1.5z"/><path style="opacity:1" fill="#0f1d48" d="M287.5 347.5c7.364 8.393 12.364 18.059 15 29-.481 8.797-3.481 16.464-9 23-3.301.292-5.301 1.959-6 5-4.744-.46-8.744 1.04-12 4.5a221.237 221.237 0 0 0-18 .5c-17.783-8.567-24.616-22.567-20.5-42 .941-2.227 2.108-4.227 3.5-6 1.208 1.282 2.542 1.282 4 0a68.77 68.77 0 0 0 6.5-13 45.59 45.59 0 0 1 9-7c.34-9.071.507-18.071.5-27a16.229 16.229 0 0 0-2-5 10.776 10.776 0 0 1 6-2c.256 2.292-.077 4.459-1 6.5 2.525 3.416 4.525 3.083 6-1-2.358-2.471-1.692-3.971 2-4.5a12.93 12.93 0 0 0 .5 5 7.248 7.248 0 0 1 2.5-2c2.495 9.254 2.662 18.587.5 28-1.011.837-2.178 1.17-3.5 1-.163 2.357.003 4.69.5 7 2.398-1.68 3.565-4.014 3.5-7 3.739.57 6.072 2.736 7 6.5a12.93 12.93 0 0 0 5 .5z"/><path style="opacity:1" fill="#1e2743" d="M35.5 357.5c3.925-.304 7.258.863 10 3.5-.167 1.5-1 2.333-2.5 2.5-11.314-2.417-14.98 1.916-11 13 1.648 1.528 3.648 2.195 6 2a85.8 85.8 0 0 0 7.5-1c.214 1.644-.12 3.144-1 4.5-15.652 3.345-21.485-2.821-17.5-18.5 2.234-3.101 5.068-5.101 8.5-6z"/><path style="opacity:1" fill="#8f97a7" d="M93.5 364.5c-.934-1.068-1.268-2.401-1-4h-4v5h-3v3h3v11c-.98-3.125-1.313-6.458-1-10h-3v-5h3v-5h6v5z"/><path style="opacity:1" fill="#1e2642" d="M106.5 364.5c8.051-.616 11.718 3.051 11 11h-11c-.17 1.322.163 2.489 1 3.5 2.399.711 4.732.544 7-.5 1 .333 1.667 1 2 2-4.453 3.931-8.953 3.931-13.5 0-2.842-6.407-1.675-11.74 3.5-16z"/><path style="opacity:1" fill="#888c9b" d="M208.5 364.5c-.934-1.068-1.268-2.401-1-4h-4v5h-3v3c-.934-1.068-1.268-2.401-1-4h3v-5h6v5z"/><path style="opacity:1" fill="#273047" d="M75.5 370.5v-3h-4v15c-.99-5.81-1.323-11.81-1-18 1.992-.172 3.659.495 5 2 2.01-1.671 4.343-2.338 7-2v4c-2.688-.334-5.021.332-7 2z"/><path style="opacity:1" fill="#14203e" d="M93.5 364.5c1.068.934 2.401 1.268 4 1v3h-5c-.313 3.542.02 6.875 1 10 1.542.801 3.209 1.134 5 1 .263 3.234-1.237 4.568-4.5 4-2.833-.037-4.666-1.371-5.5-4v-11h-3v-3h3v-5h4c-.268 1.599.066 2.932 1 4z"/><path style="opacity:1" fill="#e9f2f9" d="M112.5 369.5c-.47 1.193-1.47 1.86-3 2-1.53-.14-2.53-.807-3-2 2.111-1.242 4.111-1.242 6 0z"/><path style="opacity:1" fill="#1b2441" d="M151.5 357.5c3.925-.304 7.258.863 10 3.5-.167 1.5-1 2.333-2.5 2.5-10.168-2.379-14.168 1.621-12 12l1.5 1.5c4.181 1.427 8.347 1.927 12.5 1.5.45 2.564-.716 4.064-3.5 4.5-7.243 1.628-12.409-.872-15.5-7.5-2.286-9.103.88-15.103 9.5-18z"/><path style="opacity:1" fill="#6a7487" d="M93.5 364.5h5v5h-5v9c-.98-3.125-1.313-6.458-1-10h5v-3c-1.599.268-2.932-.066-4-1z"/><path style="opacity:1" fill="#6a7891" d="M106.5 369.5c.47 1.193 1.47 1.86 3 2 1.53-.14 2.53-.807 3-2 .904.709 1.237 1.709 1 3h-8c-.237-1.291.096-2.291 1-3z"/><path style="opacity:1" fill="#0d1b41" d="M75.5 370.5v12h-4v-15h4v3z"/><path style="opacity:1" fill="#141f45" d="M208.5 364.5c1.068.934 2.401 1.268 4 1v3h-5c-.313 3.542.021 6.875 1 10 1.419.951 3.085 1.284 5 1 .17 1.322-.163 2.489-1 3.5-3.463 1.035-6.296.202-8.5-2.5a72.367 72.367 0 0 1-.5-12h-3v-3h3v-5h4c-.268 1.599.066 2.932 1 4z"/><path style="opacity:1" fill="#656a78" d="M208.5 364.5h5v5h-5v9c-.979-3.125-1.313-6.458-1-10h5v-3c-1.599.268-2.932-.066-4-1z"/><path style="opacity:1" fill="#1e2a45" d="M120.5 364.5a12.93 12.93 0 0 1 5 .5c2.251 5.496 4.584 5.662 7 .5 1.667-1.333 3.333-1.333 5 0a65.823 65.823 0 0 0-5 8.5 30.382 30.382 0 0 0 5 7.5c-1.574 1.131-3.241 1.298-5 .5a12.14 12.14 0 0 0-3.5-4.5 12.14 12.14 0 0 0-3.5 4.5c-1.759.798-3.426.631-5-.5a30.382 30.382 0 0 0 5-7.5 129.97 129.97 0 0 1-5-9.5z"/><path style="opacity:1" fill="#1c2543" d="M187.5 364.5c3.307-.437 6.307.23 9 2a4.457 4.457 0 0 1-1.5 2c-1.699-.906-3.533-1.239-5.5-1a4.934 4.934 0 0 0 .5 3 64.501 64.501 0 0 1 6.5 4c1.863 6.321-.637 9.321-7.5 9-2.348.242-4.182-.592-5.5-2.5a11.38 11.38 0 0 1 2-2.5 15.418 15.418 0 0 0 7 1c.219-1.175-.114-2.175-1-3-7.475-2.071-8.808-6.071-4-12z"/><path style="opacity:1" fill="#1a2343" d="M54.5 364.5c9.679-.822 13.512 3.511 11.5 13-2.633 5.232-6.8 7.065-12.5 5.5-6.879-6.65-6.545-12.817 1-18.5z"/><path style="opacity:1" fill="#f0f3f1" d="M55.5 368.5c4.319-.646 6.319 1.187 6 5.5-.251 4.371-2.418 5.871-6.5 4.5-2.128-3.525-1.961-6.858.5-10z"/><path style="opacity:1" fill="#1d2643" d="M169.5 364.5c3.383-.243 6.549.424 9.5 2 1.397 5.208 1.897 10.541 1.5 16a35.98 35.98 0 0 0-9.5 1c-5.305-1.464-6.805-4.797-4.5-10 2.776-1.63 5.776-2.297 9-2v-3h-9v-3c1.291.237 2.291-.096 3-1z"/><path style="opacity:1" fill="#e3eef6" d="M170.5 374.5h5c.485 4.659-1.348 5.992-5.5 4-.579-1.428-.412-2.762.5-4z"/><path style="opacity:1" fill="#1f2642" d="M293.5 399.5c-3.05 4.878-7.383 8.044-13 9.5-7.697 2.843-15.364 3.01-23 .5a221.237 221.237 0 0 1 18-.5c3.256-3.46 7.256-4.96 12-4.5.699-3.041 2.699-4.708 6-5z"/></svg>