<?xml version="1.0" encoding="UTF-8"?>
<!DOCTYPE svg PUBLIC "-//W3C//DTD SVG 1.1//EN" "http://www.w3.org/Graphics/SVG/1.1/DTD/svg11.dtd">
<svg xmlns="http://www.w3.org/2000/svg" version="1.1" width="558px" height="170px" style="shape-rendering:geometricPrecision; text-rendering:geometricPrecision; image-rendering:optimizeQuality; fill-rule:evenodd; clip-rule:evenodd" xmlns:xlink="http://www.w3.org/1999/xlink">
<g><path style="opacity:1" fill="#fdfefe" d="M -0.5,-0.5 C 185.5,-0.5 371.5,-0.5 557.5,-0.5C 557.5,56.1667 557.5,112.833 557.5,169.5C 371.5,169.5 185.5,169.5 -0.5,169.5C -0.5,112.833 -0.5,56.1667 -0.5,-0.5 Z"/></g>
<g><path style="opacity:1" fill="#365da0" d="M 98.5,149.5 C 97.5318,151.607 97.1984,153.941 97.5,156.5C 89.1667,156.5 80.8333,156.5 72.5,156.5C 72.7947,154.265 72.4614,152.265 71.5,150.5C 57.9658,146.888 46.2991,139.888 36.5,129.5C 34.9991,130.752 33.3325,131.752 31.5,132.5C 26.1023,126.053 21.4356,119.053 17.5,111.5C 19.7913,109.877 21.7913,108.043 23.5,106C 20.6123,95.629 19.9457,85.129 21.5,74.5C 19.3193,74.7163 17.6526,73.883 16.5,72C 20.3727,64.4206 24.3727,56.9206 28.5,49.5C 29.891,50.6446 31.2243,50.6446 32.5,49.5C 42.5171,35.1624 56.1838,26.4957 73.5,23.5C 73.5,21.5 73.5,19.5 73.5,17.5C 81.1667,17.5 88.8333,17.5 96.5,17.5C 95.1945,23.3618 97.5279,25.8618 103.5,25C 117.848,30.0124 129.515,38.6791 138.5,51C 140.101,51.2734 141.601,51.7734 143,52.5C 145.833,58.8333 148.667,65.1667 151.5,71.5C 149.256,72.0034 147.922,73.3368 147.5,75.5C 148.905,85.2166 148.572,94.8833 146.5,104.5C 148.05,106.622 150.05,108.289 152.5,109.5C 149.294,116.078 145.961,122.578 142.5,129C 140.154,128.921 137.987,128.088 136,126.5C 126.094,138.371 113.594,146.037 98.5,149.5 Z"/></g>
<g><path style="opacity:1" fill="#fbfbfd" d="M 68.5,28.5 C 70.1667,28.5 71.8333,28.5 73.5,28.5C 73.5,30.1667 73.5,31.8333 73.5,33.5C 81.1667,33.5 88.8333,33.5 96.5,33.5C 96.5,31.8333 96.5,30.1667 96.5,28.5C 111.98,31.7347 124.314,39.7347 133.5,52.5C 129.105,54.6866 124.438,56.1866 119.5,57C 93.693,60.8841 68.0263,60.2174 42.5,55C 40.2746,54.4389 38.2746,53.4389 36.5,52C 44.8177,40.8326 55.4843,32.9992 68.5,28.5 Z"/></g>
<g><path style="opacity:1" fill="#fdfdfe" d="M 75.5,63.5 C 80.1547,64.1659 84.9881,64.4993 90,64.5C 97.3958,64.6733 104.562,64.0066 111.5,62.5C 116.262,62.4674 120.929,61.8007 125.5,60.5C 126.833,60.8333 128.167,61.1667 129.5,61.5C 132.22,67.8415 135.22,74.0082 138.5,80C 136.734,85.7694 133.4,90.4361 128.5,94C 101.975,112.005 72.6413,120.172 40.5,118.5C 37.4681,113.965 34.6347,109.298 32,104.5C 30.6439,103.62 29.1439,103.286 27.5,103.5C 25.5235,94.8986 25.1902,86.2319 26.5,77.5C 27.8498,78.9501 29.5165,79.6168 31.5,79.5C 33.7795,72.2743 37.1128,65.6076 41.5,59.5C 52.6462,62.2816 63.9795,63.6149 75.5,63.5 Z"/></g>
<g><path style="opacity:1" fill="#c7d2e4" d="M 111.5,62.5 C 104.562,64.0066 97.3958,64.6733 90,64.5C 84.9881,64.4993 80.1547,64.1659 75.5,63.5C 87.5164,63.6105 99.5164,63.2771 111.5,62.5 Z"/></g>
<g><path style="opacity:1" fill="#26448d" d="M 268.5,71.5 C 269.821,74.5982 270.488,78.0982 270.5,82C 270.488,85.9018 269.821,89.4018 268.5,92.5C 268.5,85.5 268.5,78.5 268.5,71.5 Z"/></g>
<g><path style="opacity:1" fill="#375094" d="M 296.5,77.5 C 304.112,76.2815 307.279,79.6148 306,87.5C 305.654,89.8477 304.487,91.6811 302.5,93C 299.064,93.018 295.731,93.1847 292.5,93.5C 292.169,86.1365 292.503,78.8032 293.5,71.5C 294.167,73.8333 294.833,76.1667 295.5,78.5C 296.107,78.3764 296.44,78.0431 296.5,77.5 Z"/></g>
<g><path style="opacity:1" fill="#798bb8" d="M 193.5,71.5 C 192.179,74.5982 191.512,78.0982 191.5,82C 191.512,85.9018 192.179,89.4018 193.5,92.5C 192.791,93.404 191.791,93.7373 190.5,93.5C 190.5,85.8333 190.5,78.1667 190.5,70.5C 191.791,70.2627 192.791,70.596 193.5,71.5 Z"/></g>
<g><path style="opacity:1" fill="#5f75ab" d="M 268.5,71.5 C 269.209,70.596 270.209,70.2627 271.5,70.5C 271.5,78.1667 271.5,85.8333 271.5,93.5C 270.209,93.7373 269.209,93.404 268.5,92.5C 269.821,89.4018 270.488,85.9018 270.5,82C 270.488,78.0982 269.821,74.5982 268.5,71.5 Z"/></g>
<g><path style="opacity:1" fill="#acb8d3" d="M 296.5,77.5 C 296.44,78.0431 296.107,78.3764 295.5,78.5C 294.833,76.1667 294.167,73.8333 293.5,71.5C 292.503,78.8032 292.169,86.1365 292.5,93.5C 291.508,86.0182 291.175,78.3516 291.5,70.5C 292.833,70.5 294.167,70.5 295.5,70.5C 295.198,73.0593 295.532,75.3926 296.5,77.5 Z"/></g>
<g><path style="opacity:1" fill="#8697bf" d="M 186.5,79.5 C 185.129,78.2132 183.295,77.5465 181,77.5C 178.705,77.5465 176.871,78.2132 175.5,79.5C 174.596,78.791 174.263,77.791 174.5,76.5C 178.833,76.5 183.167,76.5 187.5,76.5C 187.737,77.791 187.404,78.791 186.5,79.5 Z"/></g>
<g><path style="opacity:1" fill="#435a9a" d="M 186.5,79.5 C 184.049,83.1235 181.383,86.6235 178.5,90C 181.482,90.498 184.482,90.6646 187.5,90.5C 187.5,91.5 187.5,92.5 187.5,93.5C 182.833,93.5 178.167,93.5 173.5,93.5C 173.351,92.448 173.517,91.448 174,90.5C 176.833,87 179.667,83.5 182.5,80C 180.19,79.5034 177.857,79.3367 175.5,79.5C 176.871,78.2132 178.705,77.5465 181,77.5C 183.295,77.5465 185.129,78.2132 186.5,79.5 Z"/></g>
<g><path style="opacity:1" fill="#3d5597" d="M 193.5,71.5 C 193.337,73.8568 193.503,76.1902 194,78.5C 197.619,75.6572 200.952,75.9905 204,79.5C 204.499,84.1548 204.666,88.8215 204.5,93.5C 203.5,93.5 202.5,93.5 201.5,93.5C 201.666,89.1539 201.499,84.8206 201,80.5C 198.368,77.8076 196.034,78.141 194,81.5C 193.501,85.1516 193.335,88.8183 193.5,92.5C 192.179,89.4018 191.512,85.9018 191.5,82C 191.512,78.0982 192.179,74.5982 193.5,71.5 Z"/></g>
<g><path style="opacity:1" fill="#3e5598" d="M 210.5,76.5 C 213.93,76.1065 217.096,76.7732 220,78.5C 219.969,83.3971 220.803,88.0637 222.5,92.5C 220.653,93.8304 219.153,93.497 218,91.5C 214.595,94.0768 211.262,94.0768 208,91.5C 207.506,84.8404 210.673,82.1737 217.5,83.5C 217.5,82.1667 217.5,80.8333 217.5,79.5C 214.336,79.5578 211.336,80.2245 208.5,81.5C 208.392,79.4862 209.058,77.8195 210.5,76.5 Z"/></g>
<g><path style="opacity:1" fill="#c6cee1" d="M 229.5,77.5 C 228.687,78.6527 227.687,78.6527 226.5,77.5C 225.506,82.456 225.173,87.456 225.5,92.5C 225.5,92.8333 225.5,93.1667 225.5,93.5C 224.511,88.0247 224.178,82.358 224.5,76.5C 226.292,76.366 227.958,76.6993 229.5,77.5 Z"/></g>
<g><path style="opacity:1" fill="#3a5296" d="M 228.5,81.5 C 228.125,85.4425 227.125,89.1091 225.5,92.5C 225.173,87.456 225.506,82.456 226.5,77.5C 227.687,78.6527 228.687,78.6527 229.5,77.5C 232.501,76.0642 235.335,76.3975 238,78.5C 238.499,83.4889 238.666,88.4889 238.5,93.5C 237.5,93.5 236.5,93.5 235.5,93.5C 235.5,88.8333 235.5,84.1667 235.5,79.5C 233.473,79.3379 231.473,79.5045 229.5,80C 228.944,80.3826 228.611,80.8826 228.5,81.5 Z"/></g>
<g><path style="opacity:1" fill="#405798" d="M 245.5,76.5 C 248.833,76.8333 252.167,77.1667 255.5,77.5C 255.666,83.8421 255.5,90.1754 255,96.5C 251.975,100.701 248.141,101.535 243.5,99C 242.269,97.8173 242.269,96.6507 243.5,95.5C 245.867,97.3952 248.534,97.8952 251.5,97C 252.747,95.5064 252.747,94.0064 251.5,92.5C 243.419,93.57 240.252,89.9034 242,81.5C 242.997,79.6769 244.164,78.0103 245.5,76.5 Z"/></g>
<g><path style="opacity:1" fill="#3b5496" d="M 278.5,76.5 C 282.192,75.9712 285.358,76.9712 288,79.5C 288.226,83.8874 288.726,88.2207 289.5,92.5C 287.741,93.754 286.241,93.4206 285,91.5C 282.503,93.4782 279.669,93.9782 276.5,93C 273.389,89.1114 274.056,86.1114 278.5,84C 280.81,83.5034 283.143,83.3367 285.5,83.5C 285.845,80.512 284.512,79.1787 281.5,79.5C 275.44,82.4801 274.44,81.4801 278.5,76.5 Z"/></g>
<g><path style="opacity:1" fill="#f7f8fa" d="M 245.5,79.5 C 247.792,79.2436 249.959,79.5769 252,80.5C 252.741,83.562 252.575,86.562 251.5,89.5C 249.5,90.8333 247.5,90.8333 245.5,89.5C 244.174,86.1361 244.174,82.8028 245.5,79.5 Z"/></g>
<g><path style="opacity:1" fill="#f7f8fa" d="M 296.5,79.5 C 302.996,79.1205 305.162,82.1205 303,88.5C 301.174,92.0374 298.84,92.3707 296,89.5C 295.253,86.0764 295.42,82.7431 296.5,79.5 Z"/></g>
<g><path style="opacity:1" fill="#f9fafc" d="M 142.5,82.5 C 143.485,86.6344 143.818,90.9677 143.5,95.5C 143.162,97.854 142.662,100.187 142,102.5C 140.127,101.911 138.46,102.578 137,104.5C 133.882,110.401 131.049,116.401 128.5,122.5C 107.833,123.833 87.1667,123.833 66.5,122.5C 86.2382,119.643 104.905,113.476 122.5,104C 131.797,99.2057 138.464,92.039 142.5,82.5 Z"/></g>
<g><path style="opacity:1" fill="#aebdd8" d="M 143.5,95.5 C 143.818,90.9677 143.485,86.6344 142.5,82.5C 142.461,81.2438 142.961,80.2438 144,79.5C 144.817,85.0164 144.651,90.3497 143.5,95.5 Z"/></g>
<g><path style="opacity:1" fill="#7689b7" d="M 228.5,81.5 C 228.5,85.5 228.5,89.5 228.5,93.5C 227.5,93.5 226.5,93.5 225.5,93.5C 225.5,93.1667 225.5,92.8333 225.5,92.5C 227.125,89.1091 228.125,85.4425 228.5,81.5 Z"/></g>
<g><path style="opacity:1" fill="#ebeef4" d="M 212.5,85.5 C 214.167,85.5 215.833,85.5 217.5,85.5C 217.836,90.0001 215.836,91.8334 211.5,91C 210.156,88.8564 210.49,87.0231 212.5,85.5 Z"/></g>
<g><path style="opacity:1" fill="#e8ebf3" d="M 279.5,85.5 C 281.5,85.5 283.5,85.5 285.5,85.5C 286.041,89.2947 284.375,91.2947 280.5,91.5C 276.854,90.1999 276.52,88.1999 279.5,85.5 Z"/></g>
<g><path style="opacity:1" fill="#3b5396" d="M 268.5,108.5 C 269.5,108.5 270.5,108.5 271.5,108.5C 271.334,112.514 271.501,116.514 272,120.5C 273.833,118.667 275.667,116.833 277.5,115C 278.5,114.333 279.5,114.333 280.5,115C 278.443,116.719 276.776,118.719 275.5,121C 277.093,124.262 279.093,127.262 281.5,130C 280.056,130.781 278.723,130.614 277.5,129.5C 273.509,119.844 271.509,120.177 271.5,130.5C 270.5,130.5 269.5,130.5 268.5,130.5C 268.5,123.167 268.5,115.833 268.5,108.5 Z"/></g>
<g><path style="opacity:1" fill="#2c488f" d="M 334.5,108.5 C 336.465,108.948 336.798,109.948 335.5,111.5C 334.614,110.675 334.281,109.675 334.5,108.5 Z"/></g>
<g><path style="opacity:1" fill="#3e5497" d="M 521.5,108.5 C 522.5,108.5 523.5,108.5 524.5,108.5C 524.5,115.833 524.5,123.167 524.5,130.5C 523.5,130.5 522.5,130.5 521.5,130.5C 521.5,123.167 521.5,115.833 521.5,108.5 Z"/></g>
<g><path style="opacity:1" fill="#adb8d2" d="M 541.5,108.5 C 542.822,111.768 543.489,115.435 543.5,119.5C 543.489,123.565 542.822,127.232 541.5,130.5C 541.5,123.167 541.5,115.833 541.5,108.5 Z"/></g>
<g><path style="opacity:1" fill="#7285b5" d="M 377.5,108.5 C 378.167,110.833 378.833,113.167 379.5,115.5C 379.44,116.043 379.107,116.376 378.5,116.5C 377.52,113.914 377.187,111.247 377.5,108.5 Z"/></g>
<g><path style="opacity:1" fill="#24438c" d="M 210.5,110.5 C 212.176,111.183 212.843,112.517 212.5,114.5C 216.5,115.167 216.5,115.833 212.5,116.5C 212.5,120.5 212.5,124.5 212.5,128.5C 213.675,128.281 214.675,128.614 215.5,129.5C 213.994,130.747 212.494,130.747 211,129.5C 211.031,124.603 210.197,119.936 208.5,115.5C 210.005,114.158 210.672,112.492 210.5,110.5 Z"/></g>
<g><path style="opacity:1" fill="#5267a2" d="M 283.5,108.5 C 284.5,108.5 285.5,108.5 286.5,108.5C 286.5,109.5 286.5,110.5 286.5,111.5C 285.5,111.5 284.5,111.5 283.5,111.5C 283.5,110.5 283.5,109.5 283.5,108.5 Z"/></g>
<g><path style="opacity:1" fill="#25448c" d="M 367.5,128.5 C 367.904,123.601 367.237,118.934 365.5,114.5C 366.943,113.665 367.943,112.332 368.5,110.5C 369.429,111.689 369.762,113.022 369.5,114.5C 373.5,115.167 373.5,115.833 369.5,116.5C 369.5,120.5 369.5,124.5 369.5,128.5C 370.675,128.281 371.675,128.614 372.5,129.5C 370.418,130.894 368.751,130.561 367.5,128.5 Z"/></g>
<g><path style="opacity:1" fill="#425899" d="M 175.5,114.5 C 179.014,114.764 182.681,114.931 186.5,115C 187,115.5 187.5,116 188,116.5C 188.499,121.155 188.666,125.821 188.5,130.5C 187.5,130.5 186.5,130.5 185.5,130.5C 185.666,126.154 185.499,121.821 185,117.5C 182.733,116.065 180.733,116.398 179,118.5C 178.501,122.486 178.334,126.486 178.5,130.5C 177.5,130.5 176.5,130.5 175.5,130.5C 175.5,125.167 175.5,119.833 175.5,114.5 Z"/></g>
<g><path style="opacity:1" fill="#3e5698" d="M 195.5,114.5 C 202.976,113.053 206.643,116.053 206.5,123.5C 202.5,123.5 198.5,123.5 194.5,123.5C 194.822,127.976 197.156,129.476 201.5,128C 202.713,125.674 204.046,125.341 205.5,127C 201.987,132.299 197.821,132.799 193,128.5C 190.421,123.077 191.255,118.41 195.5,114.5 Z"/></g>
<g><path style="opacity:1" fill="#3f5698" d="M 217.5,114.5 C 218.5,114.5 219.5,114.5 220.5,114.5C 222.143,129.118 223.81,129.118 225.5,114.5C 226.833,114.5 228.167,114.5 229.5,114.5C 230.017,118.222 230.85,121.888 232,125.5C 233.02,121.598 234.52,117.932 236.5,114.5C 236.833,115.167 237.167,115.833 237.5,116.5C 236.027,120.753 234.86,125.086 234,129.5C 232.286,130.925 230.953,130.592 230,128.5C 229.355,125.441 228.522,122.441 227.5,119.5C 226.249,122.756 225.249,126.09 224.5,129.5C 223.5,130.833 222.5,130.833 221.5,129.5C 219.745,124.575 218.412,119.575 217.5,114.5 Z"/></g>
<g><path style="opacity:1" fill="#42599a" d="M 244.5,113.5 C 254.01,114.508 256.843,119.508 253,128.5C 247.198,133.26 242.864,132.26 240,125.5C 238.474,120.239 239.974,116.239 244.5,113.5 Z"/></g>
<g><path style="opacity:1" fill="#3e5597" d="M 257.5,114.5 C 259.124,114.36 260.29,115.027 261,116.5C 262.241,114.579 263.741,114.246 265.5,115.5C 263.807,116.228 262.307,117.228 261,118.5C 260.501,122.486 260.334,126.486 260.5,130.5C 259.5,130.5 258.5,130.5 257.5,130.5C 257.5,125.167 257.5,119.833 257.5,114.5 Z"/></g>
<g><path style="opacity:1" fill="#455a9a" d="M 283.5,114.5 C 284.5,114.5 285.5,114.5 286.5,114.5C 286.5,119.833 286.5,125.167 286.5,130.5C 285.5,130.5 284.5,130.5 283.5,130.5C 283.5,125.167 283.5,119.833 283.5,114.5 Z"/></g>
<g><path style="opacity:1" fill="#3e5598" d="M 290.5,114.5 C 294.654,114.604 298.821,114.937 303,115.5C 304.388,120.372 304.888,125.372 304.5,130.5C 303.5,130.5 302.5,130.5 301.5,130.5C 301.666,126.154 301.499,121.821 301,117.5C 298.408,116.018 296.075,116.352 294,118.5C 293.501,122.486 293.334,126.486 293.5,130.5C 292.5,130.5 291.5,130.5 290.5,130.5C 290.5,125.167 290.5,119.833 290.5,114.5 Z"/></g>
<g><path style="opacity:1" fill="#24428c" d="M 334.5,114.5 C 335.812,116.743 336.478,119.41 336.5,122.5C 336.167,125.167 335.833,127.833 335.5,130.5C 334.505,125.208 334.172,119.875 334.5,114.5 Z"/></g>
<g><path style="opacity:1" fill="#405798" d="M 340.5,114.5 C 342.124,114.36 343.29,115.027 344,116.5C 347.333,113.833 350.667,113.833 354,116.5C 354.499,121.155 354.666,125.821 354.5,130.5C 353.5,130.5 352.5,130.5 351.5,130.5C 351.666,126.154 351.499,121.821 351,117.5C 348.408,116.018 346.075,116.352 344,118.5C 343.501,122.486 343.334,126.486 343.5,130.5C 342.5,130.5 341.5,130.5 340.5,130.5C 340.5,125.167 340.5,119.833 340.5,114.5 Z"/></g>
<g><path style="opacity:1" fill="#405798" d="M 377.5,108.5 C 377.187,111.247 377.52,113.914 378.5,116.5C 379.107,116.376 379.44,116.043 379.5,115.5C 382.59,112.637 385.423,112.971 388,116.5C 388.499,121.155 388.666,125.821 388.5,130.5C 387.5,130.5 386.5,130.5 385.5,130.5C 385.666,126.154 385.499,121.821 385,117.5C 383.204,116.233 381.371,116.233 379.5,117.5C 378.508,121.783 378.174,126.116 378.5,130.5C 377.5,130.5 376.5,130.5 375.5,130.5C 374.87,122.757 375.537,115.424 377.5,108.5 Z"/></g>
<g><path style="opacity:1" fill="#3f5799" d="M 397.5,113.5 C 403.982,113.65 406.982,116.983 406.5,123.5C 402.5,123.5 398.5,123.5 394.5,123.5C 394.822,127.976 397.156,129.476 401.5,128C 402.713,125.674 404.046,125.341 405.5,127C 401.987,132.299 397.821,132.799 393,128.5C 389.894,121.953 391.394,116.953 397.5,113.5 Z"/></g>
<g><path style="opacity:1" fill="#405798" d="M 428.5,114.5 C 432.408,114.838 436.408,115.005 440.5,115C 441,115.5 441.5,116 442,116.5C 442.499,121.155 442.666,125.821 442.5,130.5C 441.5,130.5 440.5,130.5 439.5,130.5C 439.666,126.154 439.499,121.821 439,117.5C 436.408,116.018 434.075,116.352 432,118.5C 431.501,122.486 431.334,126.486 431.5,130.5C 430.5,130.5 429.5,130.5 428.5,130.5C 428.5,125.167 428.5,119.833 428.5,114.5 Z"/></g>
<g><path style="opacity:1" fill="#455a9b" d="M 450.5,113.5 C 453.675,113.503 456.508,114.503 459,116.5C 459.336,121.532 459.836,126.532 460.5,131.5C 458.516,131.617 456.85,130.95 455.5,129.5C 448.808,132.967 445.642,130.967 446,123.5C 449.112,121.345 452.612,120.345 456.5,120.5C 456.923,117.757 455.756,116.424 453,116.5C 450.83,117.522 448.664,118.522 446.5,119.5C 446.657,116.682 447.991,114.682 450.5,113.5 Z"/></g>
<g><path style="opacity:1" fill="#395295" d="M 517.5,113.5 C 519.048,113.821 519.715,114.821 519.5,116.5C 517.61,116.297 516.11,116.963 515,118.5C 514.501,122.486 514.334,126.486 514.5,130.5C 513.5,130.5 512.5,130.5 511.5,130.5C 511.5,125.167 511.5,119.833 511.5,114.5C 512.822,114.33 513.989,114.663 515,115.5C 515.995,114.934 516.828,114.267 517.5,113.5 Z"/></g>
<g><path style="opacity:1" fill="#354f93" d="M 541.5,108.5 C 541.5,115.833 541.5,123.167 541.5,130.5C 540.417,130.461 539.417,130.127 538.5,129.5C 531.761,132.614 528.094,130.281 527.5,122.5C 528.128,115.354 531.794,113.021 538.5,115.5C 538.938,112.705 539.938,110.372 541.5,108.5 Z"/></g>
<g><path style="opacity:1" fill="#3e5798" d="M 423.5,113.5 C 424.5,113.5 425.5,113.5 426.5,113.5C 426.5,114.5 426.5,115.5 426.5,116.5C 424.61,116.297 423.11,116.963 422,118.5C 421.501,122.486 421.334,126.486 421.5,130.5C 420.5,130.5 419.5,130.5 418.5,130.5C 418.5,125.167 418.5,119.833 418.5,114.5C 419.822,114.33 420.989,114.663 422,115.5C 422.717,114.956 423.217,114.289 423.5,113.5 Z"/></g>
<g><path style="opacity:1" fill="#3b5396" d="M 498.5,113.5 C 507.926,115.018 510.426,120.018 506,128.5C 498.807,133.65 494.641,131.816 493.5,123C 493.228,118.706 494.895,115.54 498.5,113.5 Z"/></g>
<g><path style="opacity:1" fill="#375194" d="M 310.5,114.5 C 314.329,114.927 317.996,114.927 321.5,114.5C 321.666,120.842 321.5,127.175 321,133.5C 316.652,138.599 312.152,138.766 307.5,134C 310.293,135.082 313.293,135.415 316.5,135C 318.515,133.445 318.848,131.611 317.5,129.5C 313.779,131.243 310.612,130.576 308,127.5C 306.743,122.617 307.576,118.284 310.5,114.5 Z"/></g>
<g><path style="opacity:1" fill="#f2f3f8" d="M 311.5,116.5 C 317.997,116.18 320.164,119.18 318,125.5C 313.63,129.877 310.797,128.877 309.5,122.5C 309.977,120.403 310.643,118.403 311.5,116.5 Z"/></g>
<g><path style="opacity:1" fill="#f2f3f8" d="M 498.5,116.5 C 504.501,116.457 506.668,119.457 505,125.5C 503.06,128.608 500.394,129.275 497,127.5C 494.604,123.338 495.104,119.671 498.5,116.5 Z"/></g>
<g><path style="opacity:1" fill="#eef0f6" d="M 532.5,116.5 C 535.044,116.104 537.211,116.771 539,118.5C 540.004,121.993 539.504,125.159 537.5,128C 534.472,129.14 532.305,128.306 531,125.5C 530.068,122.177 530.568,119.177 532.5,116.5 Z"/></g>
<g><path style="opacity:1" fill="#f8f9fb" d="M 202.5,118.5 C 200.365,120.369 197.698,121.036 194.5,120.5C 195.462,116.854 197.795,115.687 201.5,117C 202.056,117.383 202.389,117.883 202.5,118.5 Z"/></g>
<g><path style="opacity:1" fill="#f8f9fb" d="M 244.5,116.5 C 247.044,116.104 249.211,116.771 251,118.5C 252.004,121.993 251.504,125.159 249.5,128C 246.975,128.896 244.808,128.396 243,126.5C 242.037,122.851 242.537,119.518 244.5,116.5 Z"/></g>
<g><path style="opacity:1" fill="#afbbd5" d="M 365.5,114.5 C 367.237,118.934 367.904,123.601 367.5,128.5C 366.978,124.33 365.978,120.163 364.5,116C 364.57,115.235 364.903,114.735 365.5,114.5 Z"/></g>
<g><path style="opacity:1" fill="#e3e6f0" d="M 396.5,116.5 C 400.851,115.533 403.185,117.2 403.5,121.5C 400.5,121.5 397.5,121.5 394.5,121.5C 394.392,119.486 395.058,117.82 396.5,116.5 Z"/></g>
<g><path style="opacity:1" fill="#3b5396" d="M 470.5,115.5 C 471.386,114.224 472.386,114.224 473.5,115.5C 475.602,127.156 477.602,126.823 479.5,114.5C 480.833,114.5 482.167,114.5 483.5,114.5C 485.149,129.13 486.815,129.13 488.5,114.5C 489.5,114.5 490.5,114.5 491.5,114.5C 489.558,119.663 488.225,124.997 487.5,130.5C 486.167,130.5 484.833,130.5 483.5,130.5C 481.853,114.539 480.186,114.539 478.5,130.5C 477.167,130.5 475.833,130.5 474.5,130.5C 473.536,125.294 472.203,120.294 470.5,115.5 Z"/></g>
<g><path style="opacity:1" fill="#9aa8c9" d="M 202.5,118.5 C 203.404,119.209 203.737,120.209 203.5,121.5C 200.287,121.81 197.287,121.477 194.5,120.5C 197.698,121.036 200.365,120.369 202.5,118.5 Z"/></g>
<g><path style="opacity:1" fill="#6583b6" d="M 66.5,122.5 C 87.1667,123.833 107.833,123.833 128.5,122.5C 129.043,122.56 129.376,122.893 129.5,123.5C 106.507,124.666 83.5072,124.833 60.5,124C 62.3453,122.872 64.3453,122.372 66.5,122.5 Z"/></g>
<g><path style="opacity:1" fill="#e9ecf4" d="M 454.5,122.5 C 457.017,124.077 457.017,125.91 454.5,128C 452.527,128.495 450.527,128.662 448.5,128.5C 448.343,127.127 448.51,125.793 449,124.5C 450.948,123.891 452.782,123.224 454.5,122.5 Z"/></g>
<g><path style="opacity:1" fill="#fafbfd" d="M 42.5,129.5 C 70.3303,128.336 98.3303,128.17 126.5,129C 118.776,137.029 109.443,142.196 98.5,144.5C 98.5,143.5 98.5,142.5 98.5,141.5C 89.5,141.5 80.5,141.5 71.5,141.5C 71.5,142.5 71.5,143.5 71.5,144.5C 60.3045,142.403 50.6379,137.403 42.5,129.5 Z"/></g>
<g><path style="opacity:1" fill="#8ba1c8" d="M 98.5,149.5 C 98.5,152.167 98.5,154.833 98.5,157.5C 89.5,157.5 80.5,157.5 71.5,157.5C 71.5,155.167 71.5,152.833 71.5,150.5C 72.4614,152.265 72.7947,154.265 72.5,156.5C 80.8333,156.5 89.1667,156.5 97.5,156.5C 97.1984,153.941 97.5318,151.607 98.5,149.5 Z"/></g>
</svg>
