<?xml version="1.0" encoding="UTF-8"?>
<!DOCTYPE svg PUBLIC "-//W3C//DTD SVG 1.1//EN" "http://www.w3.org/Graphics/SVG/1.1/DTD/svg11.dtd">
<svg xmlns="http://www.w3.org/2000/svg" version="1.1" width="200px" height="200px" style="shape-rendering:geometricPrecision; text-rendering:geometricPrecision; image-rendering:optimizeQuality; fill-rule:evenodd; clip-rule:evenodd" xmlns:xlink="http://www.w3.org/1999/xlink">
<g><path style="opacity:0.998" fill="#e38d22" d="M 60.5,75.5 C 60.8333,76.5 61.5,77.1667 62.5,77.5C 63.7942,78.2899 64.9609,79.2899 66,80.5C 67.5437,83.1705 68.7103,86.0039 69.5,89C 79.4819,90.8631 89.4819,92.1965 99.5,93C 92.0143,86.0146 84.681,78.848 77.5,71.5C 70.8372,71.9271 64.1706,71.4271 57.5,70C 45.0985,64.0325 39.9319,54.1991 42,40.5C 47.3038,25.5362 57.8038,19.3696 73.5,22C 78.8254,23.3285 83.1587,26.1619 86.5,30.5C 87.5,30.8333 88.5,31.1667 89.5,31.5C 100.508,28.832 111.508,26.1654 122.5,23.5C 125.624,8.42123 134.958,1.25456 150.5,2C 169.515,7.37362 176.015,19.5403 170,38.5C 165.519,47.3221 158.352,51.9888 148.5,52.5C 145.73,62.7491 142.73,72.9157 139.5,83C 150.386,91.6967 153.886,102.863 150,116.5C 148.114,120.44 145.614,123.94 142.5,127C 146.034,133.041 149.368,139.207 152.5,145.5C 174.137,147.309 183.304,158.975 180,180.5C 173.363,194.063 162.53,199.23 147.5,196C 133.301,189.098 128.134,177.931 132,162.5C 133.064,159.436 134.897,156.936 137.5,155C 133.304,148.572 129.97,141.739 127.5,134.5C 120.762,134.751 114.596,133.085 109,129.5C 105.26,132.951 101.427,136.285 97.5,139.5C 97.2265,150.07 91.8932,156.07 81.5,157.5C 67.0205,154.54 62.5205,146.207 68,132.5C 72.5131,127.07 78.1798,125.07 85,126.5C 89,122.833 93,119.167 97,115.5C 96.9813,113.893 96.8146,112.226 96.5,110.5C 86.5341,109.866 76.7007,108.532 67,106.5C 56.4586,120.774 43.6253,123.441 28.5,114.5C 18.3187,103.981 16.8187,92.3143 24,79.5C 32.9419,69.1865 43.7752,66.6865 56.5,72C 58.0931,72.9487 59.4264,74.1154 60.5,75.5 Z M 130.5,51.5 C 129.388,53.5994 128.721,55.9327 128.5,58.5C 126.207,64.9874 124.207,71.6541 122.5,78.5C 118.768,79.0844 115.102,79.5844 111.5,80C 104.167,72.3333 96.8333,64.6667 89.5,57C 90.6687,54.9935 91.3354,52.8268 91.5,50.5C 92.7095,50.0679 93.7095,49.4013 94.5,48.5C 104.465,46.1947 114.465,43.8614 124.5,41.5C 127.251,43.0795 129.584,45.2462 131.5,48C 131.011,49.1385 130.678,50.3052 130.5,51.5 Z"/></g>
<g><path style="opacity:0.078" fill="#362109" d="M 94.5,48.5 C 93.7095,49.4013 92.7095,50.0679 91.5,50.5C 91.8212,48.9519 92.8212,48.2852 94.5,48.5 Z"/></g>
<g><path style="opacity:0.451" fill="#704714" d="M 130.5,51.5 C 130.829,54.2282 130.163,56.5615 128.5,58.5C 128.721,55.9327 129.388,53.5994 130.5,51.5 Z"/></g>
<g><path style="opacity:0.008" fill="#38240d" d="M 60.5,75.5 C 61.8333,75.5 62.5,76.1667 62.5,77.5C 61.5,77.1667 60.8333,76.5 60.5,75.5 Z"/></g>
</svg>
