<?xml version="1.0" encoding="UTF-8"?>
<!DOCTYPE svg PUBLIC "-//W3C//DTD SVG 1.1//EN" "http://www.w3.org/Graphics/SVG/1.1/DTD/svg11.dtd">
<svg xmlns="http://www.w3.org/2000/svg" version="1.1" width="1500px" height="601px" style="shape-rendering:geometricPrecision; text-rendering:geometricPrecision; image-rendering:optimizeQuality; fill-rule:evenodd; clip-rule:evenodd" xmlns:xlink="http://www.w3.org/1999/xlink">
<g><path style="opacity:1" fill="#fefefe" d="M -0.5,-0.5 C 499.5,-0.5 999.5,-0.5 1499.5,-0.5C 1499.5,199.833 1499.5,400.167 1499.5,600.5C 999.5,600.5 499.5,600.5 -0.5,600.5C -0.5,400.167 -0.5,199.833 -0.5,-0.5 Z"/></g>
<g><path style="opacity:1" fill="#030303" d="M 344.5,91.5 C 346.515,92.9238 348.848,93.5905 351.5,93.5C 405.944,108.794 450.777,138.461 486,182.5C 528.135,242.491 537.135,307.158 513,376.5C 488.859,433.974 448.026,474.808 390.5,499C 341.356,518.464 290.356,526.13 237.5,522C 225.784,521.577 214.117,520.577 202.5,519C 196.365,516.104 193.698,511.271 194.5,504.5C 195.779,501.888 197.445,499.555 199.5,497.5C 204.07,496.559 208.737,496.226 213.5,496.5C 214.209,497.404 215.209,497.737 216.5,497.5C 216.5,492.5 216.5,487.5 216.5,482.5C 217.494,472.681 217.827,462.681 217.5,452.5C 218.229,437.511 218.562,422.511 218.5,407.5C 218.5,405.833 218.5,404.167 218.5,402.5C 219.495,391.346 219.828,380.012 219.5,368.5C 219.588,347.828 219.921,327.162 220.5,306.5C 220.5,304.5 220.5,302.5 220.5,300.5C 220.5,298.833 220.5,297.167 220.5,295.5C 221.494,286.348 221.827,277.015 221.5,267.5C 221.5,263.833 221.5,260.167 221.5,256.5C 221.5,254.833 221.5,253.167 221.5,251.5C 221.5,250.167 221.5,248.833 221.5,247.5C 222.496,232.342 222.83,217.009 222.5,201.5C 222.5,197.5 222.5,193.5 222.5,189.5C 222.5,187.167 222.5,184.833 222.5,182.5C 222.5,180.167 222.5,177.833 222.5,175.5C 223.497,158.008 223.83,140.341 223.5,122.5C 223.5,117.167 223.5,111.833 223.5,106.5C 223.5,105.5 223.5,104.5 223.5,103.5C 215.519,104.443 207.519,104.61 199.5,104C 197.677,103.003 196.01,101.836 194.5,100.5C 194.34,98.847 193.674,97.5137 192.5,96.5C 191.634,90.7308 193.634,86.2308 198.5,83C 206.346,81.0747 214.346,80.0747 222.5,80C 263.757,77.967 304.423,81.8003 344.5,91.5 Z"/></g>
<g><path style="opacity:1" fill="#acacac" d="M 344.5,91.5 C 347.152,91.4095 349.485,92.0762 351.5,93.5C 348.848,93.5905 346.515,92.9238 344.5,91.5 Z"/></g>
<g><path style="opacity:1" fill="#8a8a8a" d="M 192.5,96.5 C 193.674,97.5137 194.34,98.847 194.5,100.5C 183.014,103.327 171.681,106.994 160.5,111.5C 145.44,121.027 130.107,130.027 114.5,138.5C 131.707,125.176 150.374,114.009 170.5,105C 176.053,102.927 181.72,101.26 187.5,100C 189.76,99.4506 191.426,98.284 192.5,96.5 Z"/></g>
<g><path style="opacity:1" fill="#787474" d="M 194.5,100.5 C 196.01,101.836 197.677,103.003 199.5,104C 207.519,104.61 215.519,104.443 223.5,103.5C 223.5,104.5 223.5,105.5 223.5,106.5C 208.516,104.273 193.849,105.44 179.5,110C 169.927,113.786 160.593,118.12 151.5,123C 143.168,128.835 134.501,134.168 125.5,139C 111.615,150.65 106.448,165.483 110,183.5C 76.4039,194.347 61.7372,217.347 66,252.5C 52.8936,266.391 48.2269,282.724 52,301.5C 54.1794,307.187 56.3461,312.854 58.5,318.5C 55.1379,325.233 52.3046,332.233 50,339.5C 48.0289,353.981 51.0289,367.315 59,379.5C 64.419,386.184 70.419,392.184 77,397.5C 76.2072,428.089 90.0406,448.923 118.5,460C 131.928,479.716 150.595,490.049 174.5,491C 182.751,493.472 191.084,495.639 199.5,497.5C 197.445,499.555 195.779,501.888 194.5,504.5C 178.896,500.77 163.229,497.27 147.5,494C 133.953,488.067 122.953,479.067 114.5,467C 84.3203,454.789 69.1536,432.289 69,399.5C 48.6563,384.799 39.6563,364.799 42,339.5C 43.7209,332.057 46.5543,325.057 50.5,318.5C 37.7609,294.01 40.2609,271.343 58,250.5C 54.4283,217.465 67.595,193.965 97.5,180C 99.1341,179.506 100.801,179.34 102.5,179.5C 99.6795,163.647 103.679,149.98 114.5,138.5C 130.107,130.027 145.44,121.027 160.5,111.5C 171.681,106.994 183.014,103.327 194.5,100.5 Z"/></g>
<g><path style="opacity:1" fill="#f6ecf0" d="M 223.5,106.5 C 223.5,111.833 223.5,117.167 223.5,122.5C 216.183,117.77 208.183,116.27 199.5,118C 187.334,120.611 175.667,124.611 164.5,130C 173.672,134.006 181.505,139.839 188,147.5C 194.517,157.278 192.017,162.112 180.5,162C 172.25,147.709 159.916,141.709 143.5,144C 126.239,150.688 120.406,162.855 126,180.5C 126.903,181.701 128.069,182.535 129.5,183C 156.092,187.351 172.592,202.518 179,228.5C 179.867,232.956 179.534,237.289 178,241.5C 173.212,245.808 168.878,245.475 165,240.5C 164.076,216.576 151.91,202.076 128.5,197C 107.402,194.466 91.9023,202.633 82,221.5C 80.1326,225.619 79.2993,229.952 79.5,234.5C 80.8278,241.465 81.6611,248.465 82,255.5C 77.6667,260.5 73.3333,265.5 69,270.5C 61.2624,288.482 64.0957,304.649 77.5,319C 86.52,326.23 96.8533,329.896 108.5,330C 115.059,334.245 115.059,338.578 108.5,343C 93.6886,344.063 80.5219,339.896 69,330.5C 59.1774,349.651 62.344,366.484 78.5,381C 82.6682,383.25 86.6682,385.75 90.5,388.5C 86.9065,419.833 99.9065,440.666 129.5,451C 138.149,466.321 151.149,475.321 168.5,478C 179.199,478.738 189.866,478.404 200.5,477C 206.553,475.226 211.72,472.059 216,467.5C 216.499,472.489 216.666,477.489 216.5,482.5C 216.138,487.421 215.138,492.087 213.5,496.5C 208.737,496.226 204.07,496.559 199.5,497.5C 191.084,495.639 182.751,493.472 174.5,491C 150.595,490.049 131.928,479.716 118.5,460C 90.0406,448.923 76.2072,428.089 77,397.5C 70.419,392.184 64.419,386.184 59,379.5C 51.0289,367.315 48.0289,353.981 50,339.5C 52.3046,332.233 55.1379,325.233 58.5,318.5C 56.3461,312.854 54.1794,307.187 52,301.5C 48.2269,282.724 52.8936,266.391 66,252.5C 61.7372,217.347 76.4039,194.347 110,183.5C 106.448,165.483 111.615,150.65 125.5,139C 134.501,134.168 143.168,128.835 151.5,123C 160.593,118.12 169.927,113.786 179.5,110C 193.849,105.44 208.516,104.273 223.5,106.5 Z"/></g>
<g><path style="opacity:1" fill="#bb2830" d="M 378.5,128.5 C 380.657,130.412 382.991,132.079 385.5,133.5C 378.298,134.232 370.965,134.899 363.5,135.5C 360.167,134.167 356.833,132.833 353.5,131.5C 334.9,124.499 315.567,119.833 295.5,117.5C 293.09,116.937 290.757,116.437 288.5,116C 293.344,120.219 297.344,125.053 300.5,130.5C 296.239,132.274 291.573,133.274 286.5,133.5C 279.94,125.556 271.94,119.556 262.5,115.5C 262.5,111.5 262.5,107.5 262.5,103.5C 302.805,104.548 341.471,112.881 378.5,128.5 Z"/></g>
<g><path style="opacity:1" fill="#fbfbfb" d="M 262.5,115.5 C 271.94,119.556 279.94,125.556 286.5,133.5C 293.279,141.724 297.945,151.057 300.5,161.5C 301.883,166.416 302.883,171.416 303.5,176.5C 303.911,190.106 302.245,203.439 298.5,216.5C 296.009,222.563 294.009,228.896 292.5,235.5C 291.419,238.627 290.753,241.96 290.5,245.5C 288.102,259.538 289.768,273.205 295.5,286.5C 297.221,292.274 299.221,297.94 301.5,303.5C 297.103,307.959 293.436,312.959 290.5,318.5C 286.156,323.847 282.823,329.847 280.5,336.5C 277.531,341.399 275.531,346.733 274.5,352.5C 271.578,359.425 269.912,366.759 269.5,374.5C 268.513,379.305 268.179,384.305 268.5,389.5C 268.12,397.607 269.453,405.273 272.5,412.5C 276.213,422.928 281.213,432.595 287.5,441.5C 292.435,449.169 293.435,457.169 290.5,465.5C 280.289,475.108 268.622,482.441 255.5,487.5C 258.937,363.521 261.271,239.521 262.5,115.5 Z"/></g>
<g><path style="opacity:1" fill="#fdfdfd" d="M 295.5,117.5 C 309.915,123.873 324.249,130.539 338.5,137.5C 347.996,143.423 356.996,150.09 365.5,157.5C 370.719,162.264 375.719,167.264 380.5,172.5C 388.045,182.919 394.045,194.253 398.5,206.5C 400.668,214.678 401.668,223.012 401.5,231.5C 401.442,239.521 401.776,247.521 402.5,255.5C 403.212,266.439 405.212,277.106 408.5,287.5C 411.63,296.352 414.297,305.352 416.5,314.5C 417.482,317.763 418.149,321.097 418.5,324.5C 419.282,335.913 417.615,346.913 413.5,357.5C 409.93,364.309 406.597,371.309 403.5,378.5C 399.406,384.351 396.073,390.685 393.5,397.5C 389.868,404.387 387.202,411.721 385.5,419.5C 382.654,428.17 379.488,436.836 376,445.5C 373.062,451.054 369.896,456.387 366.5,461.5C 363.141,464.529 359.808,467.529 356.5,470.5C 333.43,484.067 308.43,490.234 281.5,489C 287.191,485.487 292.524,481.487 297.5,477C 301.085,473.922 304.085,470.422 306.5,466.5C 316.689,455.472 324.356,442.805 329.5,428.5C 333.644,418.998 336.477,408.998 338,398.5C 348.608,382.068 359.774,366.068 371.5,350.5C 376.838,343.834 381.171,336.501 384.5,328.5C 387.628,323.233 389.961,317.566 391.5,311.5C 393.366,305.974 394.7,300.307 395.5,294.5C 396.85,286.117 396.517,277.784 394.5,269.5C 392.882,262.94 390.216,256.94 386.5,251.5C 381.572,242.573 374.906,235.24 366.5,229.5C 356.542,219.842 346.542,210.176 336.5,200.5C 330.465,194.463 324.131,188.796 317.5,183.5C 317.067,173.115 315.067,163.115 311.5,153.5C 309.15,145.136 305.483,137.469 300.5,130.5C 297.344,125.053 293.344,120.219 288.5,116C 290.757,116.437 293.09,116.937 295.5,117.5 Z"/></g>
<g><path style="opacity:1" fill="#7a7475" d="M 223.5,122.5 C 223.83,140.341 223.497,158.008 222.5,175.5C 222.667,159.83 222.5,144.163 222,128.5C 214.054,122.407 205.221,120.907 195.5,124C 189.234,125.477 183.234,127.644 177.5,130.5C 185.597,135.766 191.764,142.766 196,151.5C 197.166,164.327 191.333,169.494 178.5,167C 174.473,163.634 171.14,159.634 168.5,155C 155.275,145.393 143.109,146.56 132,158.5C 128.261,164.154 127.594,170.154 130,176.5C 138.243,179.278 146.41,182.445 154.5,186C 175.501,198.171 185.334,216.338 184,240.5C 179.436,249.68 172.603,251.847 163.5,247C 159.136,241.296 157.302,234.796 158,227.5C 153.149,213.321 143.316,204.821 128.5,202C 108.805,199.765 94.6387,207.599 86,225.5C 83.9749,232.907 84.3083,240.24 87,247.5C 87.6667,250.833 87.6667,254.167 87,257.5C 83.7019,261.8 80.0352,265.8 76,269.5C 65.5579,287.263 68.0579,303.096 83.5,317C 86.3388,318.92 89.3388,320.587 92.5,322C 99.5594,323.522 106.559,325.189 113.5,327C 120.089,333.258 120.089,339.591 113.5,346C 106.023,348.921 98.3564,349.254 90.5,347C 83.2214,344.689 76.2214,341.855 69.5,338.5C 66.5784,352.988 70.2451,365.488 80.5,376C 85.9261,379.129 91.0928,382.629 96,386.5C 91.0842,416.522 102.917,436.356 131.5,446C 136.167,451.667 140.833,457.333 145.5,463C 150.706,466.873 156.372,469.873 162.5,472C 174.167,472.667 185.833,472.667 197.5,472C 201.905,471.236 205.905,469.569 209.5,467C 213.023,462.56 215.689,457.727 217.5,452.5C 217.827,462.681 217.494,472.681 216.5,482.5C 216.666,477.489 216.499,472.489 216,467.5C 211.72,472.059 206.553,475.226 200.5,477C 189.866,478.404 179.199,478.738 168.5,478C 151.149,475.321 138.149,466.321 129.5,451C 99.9065,440.666 86.9065,419.833 90.5,388.5C 86.6682,385.75 82.6682,383.25 78.5,381C 62.344,366.484 59.1774,349.651 69,330.5C 80.5219,339.896 93.6886,344.063 108.5,343C 115.059,338.578 115.059,334.245 108.5,330C 96.8533,329.896 86.52,326.23 77.5,319C 64.0957,304.649 61.2624,288.482 69,270.5C 73.3333,265.5 77.6667,260.5 82,255.5C 81.6611,248.465 80.8278,241.465 79.5,234.5C 79.2993,229.952 80.1326,225.619 82,221.5C 91.9023,202.633 107.402,194.466 128.5,197C 151.91,202.076 164.076,216.576 165,240.5C 168.878,245.475 173.212,245.808 178,241.5C 179.534,237.289 179.867,232.956 179,228.5C 172.592,202.518 156.092,187.351 129.5,183C 128.069,182.535 126.903,181.701 126,180.5C 120.406,162.855 126.239,150.688 143.5,144C 159.916,141.709 172.25,147.709 180.5,162C 192.017,162.112 194.517,157.278 188,147.5C 181.505,139.839 173.672,134.006 164.5,130C 175.667,124.611 187.334,120.611 199.5,118C 208.183,116.27 216.183,117.77 223.5,122.5 Z"/></g>
<g><path style="opacity:1" fill="#f6bad4" d="M 222.5,175.5 C 222.5,177.833 222.5,180.167 222.5,182.5C 213.545,178.676 204.211,176.842 194.5,177C 185.346,182.745 184.346,189.412 191.5,197C 198.663,199.461 205.996,201.128 213.5,202C 216.667,203.833 219.167,206.333 221,209.5C 221.5,222.162 221.667,234.829 221.5,247.5C 221.5,248.833 221.5,250.167 221.5,251.5C 201.713,255.456 190.213,267.456 187,287.5C 175.629,292.373 167.462,300.373 162.5,311.5C 164.565,321.199 170.232,324.033 179.5,320C 183.99,313.176 189.99,308.176 197.5,305C 205.392,302.686 213.059,303.186 220.5,306.5C 219.921,327.162 219.588,347.828 219.5,368.5C 218.511,373.975 218.178,379.642 218.5,385.5C 212.848,384.698 207.182,384.531 201.5,385C 193.654,391.076 193.654,397.409 201.5,404C 207.141,405.248 212.808,406.414 218.5,407.5C 218.562,422.511 218.229,437.511 217.5,452.5C 215.689,457.727 213.023,462.56 209.5,467C 205.905,469.569 201.905,471.236 197.5,472C 185.833,472.667 174.167,472.667 162.5,472C 156.372,469.873 150.706,466.873 145.5,463C 140.833,457.333 136.167,451.667 131.5,446C 102.917,436.356 91.0842,416.522 96,386.5C 91.0928,382.629 85.9261,379.129 80.5,376C 70.2451,365.488 66.5784,352.988 69.5,338.5C 76.2214,341.855 83.2214,344.689 90.5,347C 98.3564,349.254 106.023,348.921 113.5,346C 120.089,339.591 120.089,333.258 113.5,327C 106.559,325.189 99.5594,323.522 92.5,322C 89.3388,320.587 86.3388,318.92 83.5,317C 68.0579,303.096 65.5579,287.263 76,269.5C 80.0352,265.8 83.7019,261.8 87,257.5C 87.6667,254.167 87.6667,250.833 87,247.5C 84.3083,240.24 83.9749,232.907 86,225.5C 94.6387,207.599 108.805,199.765 128.5,202C 143.316,204.821 153.149,213.321 158,227.5C 157.302,234.796 159.136,241.296 163.5,247C 172.603,251.847 179.436,249.68 184,240.5C 185.334,216.338 175.501,198.171 154.5,186C 146.41,182.445 138.243,179.278 130,176.5C 127.594,170.154 128.261,164.154 132,158.5C 143.109,146.56 155.275,145.393 168.5,155C 171.14,159.634 174.473,163.634 178.5,167C 191.333,169.494 197.166,164.327 196,151.5C 191.764,142.766 185.597,135.766 177.5,130.5C 183.234,127.644 189.234,125.477 195.5,124C 205.221,120.907 214.054,122.407 222,128.5C 222.5,144.163 222.667,159.83 222.5,175.5 Z"/></g>
<g><path style="opacity:1" fill="#b63831" d="M 295.5,117.5 C 315.567,119.833 334.9,124.499 353.5,131.5C 354.527,133.194 355.861,134.527 357.5,135.5C 351.3,136.243 344.966,136.91 338.5,137.5C 324.249,130.539 309.915,123.873 295.5,117.5 Z"/></g>
<g><path style="opacity:1" fill="#d8cccb" d="M 378.5,128.5 C 384.587,130.378 390.254,133.045 395.5,136.5C 394.508,136.328 393.842,136.662 393.5,137.5C 390.833,136.167 388.167,134.833 385.5,133.5C 382.991,132.079 380.657,130.412 378.5,128.5 Z"/></g>
<g><path style="opacity:1" fill="#ecc6c0" d="M 353.5,131.5 C 356.833,132.833 360.167,134.167 363.5,135.5C 363.5,135.833 363.5,136.167 363.5,136.5C 362.508,136.328 361.842,136.662 361.5,137.5C 360.395,136.4 359.062,135.733 357.5,135.5C 355.861,134.527 354.527,133.194 353.5,131.5 Z"/></g>
<g><path style="opacity:1" fill="#fcfcfc" d="M 361.5,137.5 C 361.842,136.662 362.508,136.328 363.5,136.5C 377.137,142.648 389.803,150.314 401.5,159.5C 407.843,165.842 414.509,171.842 421.5,177.5C 425.476,182.481 429.476,187.481 433.5,192.5C 440.676,202.193 447.343,212.193 453.5,222.5C 456.324,229.659 459.324,236.659 462.5,243.5C 465.3,252.364 467.633,261.364 469.5,270.5C 470.43,277.132 471.097,283.798 471.5,290.5C 471.5,296.167 471.5,301.833 471.5,307.5C 470.919,317.224 469.919,326.89 468.5,336.5C 465.854,345.062 463.187,353.729 460.5,362.5C 457.836,369.162 455.169,375.829 452.5,382.5C 448.251,389.329 444.251,396.329 440.5,403.5C 429.988,418.685 417.655,432.352 403.5,444.5C 397.5,448.833 391.5,453.167 385.5,457.5C 390.695,446.248 394.695,434.581 397.5,422.5C 400.516,414.121 403.849,405.788 407.5,397.5C 411.085,391.332 414.418,384.999 417.5,378.5C 420.072,374.361 422.405,370.027 424.5,365.5C 430.757,357.399 437.257,349.399 444,341.5C 446.358,338.778 448.191,335.778 449.5,332.5C 453.485,327.527 456.152,321.86 457.5,315.5C 460.167,306.167 460.167,296.833 457.5,287.5C 456.796,282.71 455.129,278.376 452.5,274.5C 450.841,269.173 448.174,264.507 444.5,260.5C 442.262,255.929 439.262,251.929 435.5,248.5C 432.514,244.183 429.18,240.183 425.5,236.5C 421.824,232.459 418.157,228.459 414.5,224.5C 414.209,215.768 412.542,207.434 409.5,199.5C 406.184,189.205 401.184,179.872 394.5,171.5C 391.026,164.904 386.359,159.238 380.5,154.5C 374.773,148.14 368.44,142.473 361.5,137.5 Z"/></g>
<g><path style="opacity:1" fill="#f9f9f9" d="M 395.5,136.5 C 456.43,167.938 491.93,217.605 502,285.5C 506.134,365.414 473.968,425.581 405.5,466C 395.823,471.341 385.823,475.841 375.5,479.5C 384.508,474.331 393.175,468.664 401.5,462.5C 408.109,458.224 414.109,453.224 419.5,447.5C 434.141,434.516 446.141,419.516 455.5,402.5C 459.594,396.649 462.927,390.315 465.5,383.5C 469.623,375.572 472.956,367.239 475.5,358.5C 478.236,351.147 480.236,343.48 481.5,335.5C 482.447,329.534 483.114,323.534 483.5,317.5C 484.833,305.167 484.833,292.833 483.5,280.5C 483.844,275.878 483.177,271.545 481.5,267.5C 480.377,257.003 477.71,247.003 473.5,237.5C 471.786,231.006 469.12,225.006 465.5,219.5C 460.685,208.709 454.685,198.709 447.5,189.5C 444.21,183.913 440.21,178.913 435.5,174.5C 429.5,167.833 423.167,161.5 416.5,155.5C 408.976,149.248 401.309,143.248 393.5,137.5C 393.842,136.662 394.508,136.328 395.5,136.5 Z"/></g>
<g><path style="opacity:1" fill="#b24137" d="M 357.5,135.5 C 359.062,135.733 360.395,136.4 361.5,137.5C 368.44,142.473 374.773,148.14 380.5,154.5C 380.414,155.496 380.748,156.329 381.5,157C 376.177,157.499 370.844,157.666 365.5,157.5C 356.996,150.09 347.996,143.423 338.5,137.5C 344.966,136.91 351.3,136.243 357.5,135.5 Z"/></g>
<g><path style="opacity:1" fill="#b53e3d" d="M 300.5,130.5 C 305.483,137.469 309.15,145.136 311.5,153.5C 311.963,156.482 312.296,159.482 312.5,162.5C 308.434,162.693 304.434,162.36 300.5,161.5C 297.945,151.057 293.279,141.724 286.5,133.5C 291.573,133.274 296.239,132.274 300.5,130.5 Z"/></g>
<g><path style="opacity:1" fill="#b63e3d" d="M 385.5,133.5 C 388.167,134.833 390.833,136.167 393.5,137.5C 401.309,143.248 408.976,149.248 416.5,155.5C 416.414,156.496 416.748,157.329 417.5,158C 412.085,158.215 406.752,158.715 401.5,159.5C 389.803,150.314 377.137,142.648 363.5,136.5C 363.5,136.167 363.5,135.833 363.5,135.5C 370.965,134.899 378.298,134.232 385.5,133.5 Z"/></g>
<g><path style="opacity:1" fill="#ae4b3f" d="M 380.5,154.5 C 386.359,159.238 391.026,164.904 394.5,171.5C 390.03,172.486 385.363,172.819 380.5,172.5C 375.719,167.264 370.719,162.264 365.5,157.5C 370.844,157.666 376.177,157.499 381.5,157C 380.748,156.329 380.414,155.496 380.5,154.5 Z"/></g>
<g><path style="opacity:1" fill="#b04945" d="M 416.5,155.5 C 423.167,161.5 429.5,167.833 435.5,174.5C 431.2,176.218 426.533,177.218 421.5,177.5C 414.509,171.842 407.843,165.842 401.5,159.5C 406.752,158.715 412.085,158.215 417.5,158C 416.748,157.329 416.414,156.496 416.5,155.5 Z"/></g>
<g><path style="opacity:1" fill="#030303" d="M 1183.5,194.5 C 1183.5,192.5 1183.5,190.5 1183.5,188.5C 1176.83,188.5 1170.17,188.5 1163.5,188.5C 1161.79,183.628 1161.29,178.628 1162,173.5C 1162.83,172.667 1163.67,171.833 1164.5,171C 1192.51,170.167 1220.51,170.333 1248.5,171.5C 1251.42,177.269 1251.09,182.769 1247.5,188C 1240.17,188.5 1232.84,188.666 1225.5,188.5C 1224.23,256.496 1224.23,324.496 1225.5,392.5C 1253.79,393.649 1281.79,391.482 1309.5,386C 1315.39,384.369 1321.23,382.535 1327,380.5C 1329.59,381.661 1331.26,383.661 1332,386.5C 1334.17,392.679 1334.83,399.012 1334,405.5C 1330.52,412.683 1324.69,416.183 1316.5,416C 1265.5,416.5 1214.5,416.667 1163.5,416.5C 1162.92,412.663 1162.25,408.83 1161.5,405C 1161.44,402.739 1162.11,400.739 1163.5,399C 1170.05,397.58 1176.72,397.08 1183.5,397.5C 1184.77,329.83 1184.77,262.163 1183.5,194.5 Z"/></g>
<g><path style="opacity:1" fill="#ad4f4a" d="M 311.5,153.5 C 315.067,163.115 317.067,173.115 317.5,183.5C 316.532,185.607 316.198,187.941 316.5,190.5C 312.413,188.828 308.579,189.161 305,191.5C 304.826,186.316 304.326,181.316 303.5,176.5C 302.883,171.416 301.883,166.416 300.5,161.5C 304.434,162.36 308.434,162.693 312.5,162.5C 312.296,159.482 311.963,156.482 311.5,153.5 Z"/></g>
<g><path style="opacity:1" fill="#ab514c" d="M 435.5,174.5 C 440.21,178.913 444.21,183.913 447.5,189.5C 443.239,191.274 438.573,192.274 433.5,192.5C 429.476,187.481 425.476,182.481 421.5,177.5C 426.533,177.218 431.2,176.218 435.5,174.5 Z"/></g>
<g><path style="opacity:1" fill="#797173" d="M 222.5,182.5 C 222.5,184.833 222.5,187.167 222.5,189.5C 215.482,184.785 207.649,182.118 199,181.5C 193.455,182.578 191.455,185.911 193,191.5C 198.817,194.265 204.984,195.765 211.5,196C 215.499,197.333 219.166,199.166 222.5,201.5C 222.83,217.009 222.496,232.342 221.5,247.5C 221.667,234.829 221.5,222.162 221,209.5C 219.167,206.333 216.667,203.833 213.5,202C 205.996,201.128 198.663,199.461 191.5,197C 184.346,189.412 185.346,182.745 194.5,177C 204.211,176.842 213.545,178.676 222.5,182.5 Z"/></g>
<g><path style="opacity:1" fill="#f2e9ec" d="M 222.5,189.5 C 222.5,193.5 222.5,197.5 222.5,201.5C 219.166,199.166 215.499,197.333 211.5,196C 204.984,195.765 198.817,194.265 193,191.5C 191.455,185.911 193.455,182.578 199,181.5C 207.649,182.118 215.482,184.785 222.5,189.5 Z"/></g>
<g><path style="opacity:1" fill="#a85348" d="M 394.5,171.5 C 401.184,179.872 406.184,189.205 409.5,199.5C 409.5,200.833 409.5,202.167 409.5,203.5C 406.167,203.5 402.833,203.5 399.5,203.5C 399.737,204.791 399.404,205.791 398.5,206.5C 394.045,194.253 388.045,182.919 380.5,172.5C 385.363,172.819 390.03,172.486 394.5,171.5 Z"/></g>
<g><path style="opacity:1" fill="#838383" d="M 1163.5,188.5 C 1170.17,188.5 1176.83,188.5 1183.5,188.5C 1183.5,190.5 1183.5,192.5 1183.5,194.5C 1182.55,193.081 1182.22,191.415 1182.5,189.5C 1175.98,189.823 1169.64,189.49 1163.5,188.5 Z"/></g>
<g><path style="opacity:1" fill="#bc383a" d="M 317.5,183.5 C 324.131,188.796 330.465,194.463 336.5,200.5C 336.624,202.582 337.624,204.082 339.5,205C 337.19,205.497 334.857,205.663 332.5,205.5C 327.205,201.54 322.205,197.207 317.5,192.5C 317.167,191.833 316.833,191.167 316.5,190.5C 316.198,187.941 316.532,185.607 317.5,183.5 Z"/></g>
<g><path style="opacity:1" fill="#fcfcfc" d="M 317.5,192.5 C 322.205,197.207 327.205,201.54 332.5,205.5C 338.806,211.14 344.806,217.14 350.5,223.5C 345.65,227.676 341.983,232.676 339.5,238.5C 337.076,241.008 335.41,244.008 334.5,247.5C 332.194,251.085 330.861,255.085 330.5,259.5C 328.896,263.9 328.229,268.566 328.5,273.5C 328.218,278.927 328.551,284.26 329.5,289.5C 329.152,293.085 329.819,296.418 331.5,299.5C 332.389,303.837 334.056,307.837 336.5,311.5C 342.518,322.873 348.518,334.206 354.5,345.5C 355.859,349.253 357.193,352.919 358.5,356.5C 352.51,365.138 346.51,373.804 340.5,382.5C 339.833,377.833 339.167,373.167 338.5,368.5C 338.675,366.379 338.341,364.379 337.5,362.5C 336.155,350.807 332.822,339.807 327.5,329.5C 324.344,321.192 320.677,313.192 316.5,305.5C 313.146,297.091 309.813,288.758 306.5,280.5C 305.264,274.716 303.931,269.049 302.5,263.5C 302.062,255.35 302.729,247.35 304.5,239.5C 306.504,232.488 308.504,225.488 310.5,218.5C 313.051,209.815 315.385,201.149 317.5,192.5 Z"/></g>
<g><path style="opacity:1" fill="#a35c57" d="M 303.5,176.5 C 304.326,181.316 304.826,186.316 305,191.5C 308.579,189.161 312.413,188.828 316.5,190.5C 316.833,191.167 317.167,191.833 317.5,192.5C 315.385,201.149 313.051,209.815 310.5,218.5C 306.029,219.089 302.029,218.423 298.5,216.5C 302.245,203.439 303.911,190.106 303.5,176.5 Z"/></g>
<g><path style="opacity:1" fill="#a35c57" d="M 447.5,189.5 C 454.685,198.709 460.685,208.709 465.5,219.5C 461.885,221.223 457.885,222.223 453.5,222.5C 447.343,212.193 440.676,202.193 433.5,192.5C 438.573,192.274 443.239,191.274 447.5,189.5 Z"/></g>
<g><path style="opacity:1" fill="#b14c48" d="M 336.5,200.5 C 346.542,210.176 356.542,219.842 366.5,229.5C 364.393,230.468 362.059,230.802 359.5,230.5C 358.395,229.4 357.062,228.733 355.5,228.5C 354.833,225.833 353.167,224.167 350.5,223.5C 344.806,217.14 338.806,211.14 332.5,205.5C 334.857,205.663 337.19,205.497 339.5,205C 337.624,204.082 336.624,202.582 336.5,200.5 Z"/></g>
<g><path style="opacity:1" fill="#7a7475" d="M 114.5,219.5 C 118.131,219.16 121.464,219.994 124.5,222C 132.349,229.531 137.182,238.698 139,249.5C 160.503,258.176 168.337,273.509 162.5,295.5C 156.718,299.898 151.551,299.232 147,293.5C 146.034,288.066 144.701,282.732 143,277.5C 141.333,275.833 139.667,274.167 138,272.5C 129.978,296.253 113.478,308.42 88.5,309C 81.5103,304.918 79.677,299.085 83,291.5C 87.1877,288.134 92.0211,286.634 97.5,287C 114.606,280.298 121.44,267.798 118,249.5C 115.997,244.154 112.997,239.487 109,235.5C 106.011,228.483 107.844,223.15 114.5,219.5 Z"/></g>
<g><path style="opacity:1" fill="#9d6056" d="M 409.5,199.5 C 412.542,207.434 414.209,215.768 414.5,224.5C 414.5,227.833 414.5,231.167 414.5,234.5C 414.5,236.5 414.5,238.5 414.5,240.5C 410.908,238.289 407.075,237.956 403,239.5C 402.817,236.635 402.317,233.969 401.5,231.5C 401.668,223.012 400.668,214.678 398.5,206.5C 399.404,205.791 399.737,204.791 399.5,203.5C 402.833,203.5 406.167,203.5 409.5,203.5C 409.5,202.167 409.5,200.833 409.5,199.5 Z"/></g>
<g><path style="opacity:1" fill="#f5ebef" d="M 114.5,225.5 C 117.602,225.154 120.435,225.821 123,227.5C 129.15,235.136 133.15,243.803 135,253.5C 152.884,259.383 161.217,271.717 160,290.5C 157.847,292.444 155.347,292.944 152.5,292C 150.922,287.853 149.922,283.519 149.5,279C 146.882,271.883 141.882,267.383 134.5,265.5C 131.487,278.367 124.821,288.867 114.5,297C 106.458,301.844 97.7912,303.844 88.5,303C 85.6572,299.381 85.9905,296.048 89.5,293C 107.075,292.143 118.242,283.31 123,266.5C 126.032,253.756 123.032,242.756 114,233.5C 113.278,230.739 113.445,228.073 114.5,225.5 Z"/></g>
<g><path style="opacity:1" fill="#9a6561" d="M 465.5,219.5 C 469.12,225.006 471.786,231.006 473.5,237.5C 473.698,239.575 473.865,241.575 474,243.5C 470.168,242.2 466.334,242.2 462.5,243.5C 459.324,236.659 456.324,229.659 453.5,222.5C 457.885,222.223 461.885,221.223 465.5,219.5 Z"/></g>
<g><path style="opacity:1" fill="#fdfdfd" d="M 355.5,228.5 C 357.062,228.733 358.395,229.4 359.5,230.5C 367.23,238.226 374.563,246.226 381.5,254.5C 384.326,260.86 386.993,267.193 389.5,273.5C 389.5,276.167 389.5,278.833 389.5,281.5C 389.624,290.965 388.624,300.298 386.5,309.5C 383.345,315.155 380.678,321.155 378.5,327.5C 373.919,334.324 369.586,341.324 365.5,348.5C 364.833,348.833 364.167,349.167 363.5,349.5C 363.011,348.005 362.345,346.671 361.5,345.5C 355.926,333.346 349.592,321.679 342.5,310.5C 340.48,305.424 338.48,300.424 336.5,295.5C 336.198,292.627 335.531,289.961 334.5,287.5C 334.5,283.167 334.5,278.833 334.5,274.5C 334.572,270.374 335.239,266.374 336.5,262.5C 337.003,258.96 338.003,255.627 339.5,252.5C 341.243,248.016 343.243,243.683 345.5,239.5C 348.6,235.644 351.933,231.977 355.5,228.5 Z"/></g>
<g><path style="opacity:1" fill="#bb3b3c" d="M 350.5,223.5 C 353.167,224.167 354.833,225.833 355.5,228.5C 351.933,231.977 348.6,235.644 345.5,239.5C 343.265,239.795 341.265,239.461 339.5,238.5C 341.983,232.676 345.65,227.676 350.5,223.5 Z"/></g>
<g><path style="opacity:1" fill="#050505" d="M 1367.5,256.5 C 1366.51,261.975 1366.18,267.642 1366.5,273.5C 1368.7,273.88 1370.36,273.213 1371.5,271.5C 1384.9,266.035 1398.24,266.202 1411.5,272C 1419.24,277.085 1423.74,284.251 1425,293.5C 1427.93,311.658 1424.93,328.658 1416,344.5C 1399.53,360.811 1380.36,364.811 1358.5,356.5C 1353.23,360.409 1348.06,360.409 1343,356.5C 1342.67,321.5 1342.33,286.5 1342,251.5C 1340.17,246.823 1336.67,244.489 1331.5,244.5C 1329.89,240.085 1330.23,235.918 1332.5,232C 1342.83,231.333 1353.17,231.333 1363.5,232C 1364.83,232.667 1366.17,233.333 1367.5,234C 1368,241.416 1368,248.916 1367.5,256.5 Z"/></g>
<g><path style="opacity:1" fill="#996460" d="M 298.5,216.5 C 302.029,218.423 306.029,219.089 310.5,218.5C 308.504,225.488 306.504,232.488 304.5,239.5C 300.5,239.5 296.5,239.5 292.5,239.5C 292.5,238.167 292.5,236.833 292.5,235.5C 294.009,228.896 296.009,222.563 298.5,216.5 Z"/></g>
<g><path style="opacity:1" fill="#a85e59" d="M 366.5,229.5 C 374.906,235.24 381.572,242.573 386.5,251.5C 385.395,253.223 383.728,254.223 381.5,254.5C 374.563,246.226 367.23,238.226 359.5,230.5C 362.059,230.802 364.393,230.468 366.5,229.5 Z"/></g>
<g><path style="opacity:1" fill="#b7403f" d="M 414.5,224.5 C 418.157,228.459 421.824,232.459 425.5,236.5C 423.626,237.285 421.626,237.952 419.5,238.5C 418.167,237.5 416.833,236.5 415.5,235.5C 415.5,234.833 415.167,234.5 414.5,234.5C 414.5,231.167 414.5,227.833 414.5,224.5 Z"/></g>
<g><path style="opacity:1" fill="#fcfcfc" d="M 415.5,235.5 C 416.833,236.5 418.167,237.5 419.5,238.5C 422.457,242.792 425.79,246.792 429.5,250.5C 432.5,254.5 435.5,258.5 438.5,262.5C 441.417,266.666 444.084,270.999 446.5,275.5C 448.898,281.027 450.898,286.693 452.5,292.5C 452.5,298.833 452.5,305.167 452.5,311.5C 450.404,317.698 447.737,323.698 444.5,329.5C 440.53,334.476 436.53,339.476 432.5,344.5C 431.527,342.052 431.194,339.385 431.5,336.5C 431.935,328.257 431.269,320.257 429.5,312.5C 428.005,303.686 425.338,295.352 421.5,287.5C 420.32,281.119 418.82,274.785 417,268.5C 415.752,257.536 415.252,246.536 415.5,235.5 Z"/></g>
<g><path style="opacity:1" fill="#b14f4a" d="M 425.5,236.5 C 429.18,240.183 432.514,244.183 435.5,248.5C 434.082,250.308 432.082,250.975 429.5,250.5C 425.79,246.792 422.457,242.792 419.5,238.5C 421.626,237.952 423.626,237.285 425.5,236.5 Z"/></g>
<g><path style="opacity:1" fill="#b14f4a" d="M 339.5,238.5 C 341.265,239.461 343.265,239.795 345.5,239.5C 343.243,243.683 341.243,248.016 339.5,252.5C 337.658,253.075 335.658,252.909 333.5,252C 334.38,250.644 334.714,249.144 334.5,247.5C 335.41,244.008 337.076,241.008 339.5,238.5 Z"/></g>
<g><path style="opacity:1" fill="#946861" d="M 401.5,231.5 C 402.317,233.969 402.817,236.635 403,239.5C 407.075,237.956 410.908,238.289 414.5,240.5C 414.666,246.176 414.499,251.843 414,257.5C 410.17,256.801 406.337,256.134 402.5,255.5C 401.776,247.521 401.442,239.521 401.5,231.5 Z"/></g>
<g><path style="opacity:1" fill="#7a7475" d="M 221.5,251.5 C 221.5,253.167 221.5,254.833 221.5,256.5C 203.421,260.586 193.421,271.919 191.5,290.5C 182.652,294.851 175.152,300.851 169,308.5C 167.5,315 170,317.5 176.5,316C 187.37,300.209 202.037,295.043 220.5,300.5C 220.5,302.5 220.5,304.5 220.5,306.5C 213.059,303.186 205.392,302.686 197.5,305C 189.99,308.176 183.99,313.176 179.5,320C 170.232,324.033 164.565,321.199 162.5,311.5C 167.462,300.373 175.629,292.373 187,287.5C 190.213,267.456 201.713,255.456 221.5,251.5 Z"/></g>
<g><path style="opacity:1" fill="#a45d58" d="M 435.5,248.5 C 439.262,251.929 442.262,255.929 444.5,260.5C 442.698,261.458 440.698,262.125 438.5,262.5C 435.5,258.5 432.5,254.5 429.5,250.5C 432.082,250.975 434.082,250.308 435.5,248.5 Z"/></g>
<g><path style="opacity:1" fill="#f5ebef" d="M 221.5,256.5 C 221.5,260.167 221.5,263.833 221.5,267.5C 210.515,270.156 204.515,277.156 203.5,288.5C 209.189,288.532 214.855,288.866 220.5,289.5C 220.5,291.5 220.5,293.5 220.5,295.5C 220.5,297.167 220.5,298.833 220.5,300.5C 202.037,295.043 187.37,300.209 176.5,316C 170,317.5 167.5,315 169,308.5C 175.152,300.851 182.652,294.851 191.5,290.5C 193.421,271.919 203.421,260.586 221.5,256.5 Z"/></g>
<g><path style="opacity:1" fill="#a7625d" d="M 334.5,247.5 C 334.714,249.144 334.38,250.644 333.5,252C 335.658,252.909 337.658,253.075 339.5,252.5C 338.003,255.627 337.003,258.96 336.5,262.5C 335.778,262.918 335.278,263.584 335,264.5C 334.047,262.408 332.714,262.075 331,263.5C 330.51,262.207 330.343,260.873 330.5,259.5C 330.861,255.085 332.194,251.085 334.5,247.5 Z"/></g>
<g><path style="opacity:1" fill="#8f6b69" d="M 292.5,235.5 C 292.5,236.833 292.5,238.167 292.5,239.5C 296.5,239.5 300.5,239.5 304.5,239.5C 302.729,247.35 302.062,255.35 302.5,263.5C 302.586,264.496 302.252,265.329 301.5,266C 297.909,266.789 294.409,266.622 291,265.5C 290.5,258.842 290.334,252.175 290.5,245.5C 290.753,241.96 291.419,238.627 292.5,235.5 Z"/></g>
<g><path style="opacity:1" fill="#906e6d" d="M 473.5,237.5 C 477.71,247.003 480.377,257.003 481.5,267.5C 481.66,269.199 481.494,270.866 481,272.5C 477.17,271.801 473.337,271.134 469.5,270.5C 467.633,261.364 465.3,252.364 462.5,243.5C 466.334,242.2 470.168,242.2 474,243.5C 473.865,241.575 473.698,239.575 473.5,237.5 Z"/></g>
<g><path style="opacity:1" fill="#3b3b3b" d="M 1367.5,256.5 C 1367.17,261.875 1367.51,267.208 1368.5,272.5C 1369.42,271.873 1370.42,271.539 1371.5,271.5C 1370.36,273.213 1368.7,273.88 1366.5,273.5C 1366.18,267.642 1366.51,261.975 1367.5,256.5 Z"/></g>
<g><path style="opacity:1" fill="#996a67" d="M 386.5,251.5 C 390.216,256.94 392.882,262.94 394.5,269.5C 394.706,273.576 393.039,274.909 389.5,273.5C 386.993,267.193 384.326,260.86 381.5,254.5C 383.728,254.223 385.395,253.223 386.5,251.5 Z"/></g>
<g><path style="opacity:1" fill="#3f3e3e" d="M 779.5,268.5 C 772.465,268.326 765.465,268.659 758.5,269.5C 762.203,267.945 766.203,267.278 770.5,267.5C 773.686,267.502 776.686,267.835 779.5,268.5 Z"/></g>
<g><path style="opacity:1" fill="#7a7475" d="M 221.5,267.5 C 221.827,277.015 221.494,286.348 220.5,295.5C 220.5,293.5 220.5,291.5 220.5,289.5C 214.855,288.866 209.189,288.532 203.5,288.5C 204.515,277.156 210.515,270.156 221.5,267.5 Z"/></g>
<g><path style="opacity:1" fill="#050505" d="M 779.5,268.5 C 794.849,269.351 803.682,277.351 806,292.5C 807.126,300.045 806.46,307.379 804,314.5C 802.961,315.71 801.794,316.71 800.5,317.5C 798.199,318.06 795.866,318.56 793.5,319C 780.504,319.5 767.504,319.667 754.5,319.5C 754.216,321.415 754.549,323.081 755.5,324.5C 755.617,333.245 759.617,339.412 767.5,343C 779.47,344.876 790.803,343.042 801.5,337.5C 804.568,338.289 806.235,340.289 806.5,343.5C 806.5,345.833 806.5,348.167 806.5,350.5C 802.906,354.8 798.239,357.3 792.5,358C 780.18,359.756 767.846,359.923 755.5,358.5C 753.485,357.076 751.152,356.41 748.5,356.5C 739.712,354.213 733.546,348.88 730,340.5C 722.053,319.473 724.386,299.806 737,281.5C 742.875,275.111 750.042,271.111 758.5,269.5C 765.465,268.659 772.465,268.326 779.5,268.5 Z"/></g>
<g><path style="opacity:1" fill="#040404" d="M 808.5,353.5 C 808.5,351.833 808.5,350.167 808.5,348.5C 808.953,347.542 809.619,346.708 810.5,346C 813.817,345.502 817.15,345.335 820.5,345.5C 820.822,326.474 820.322,307.474 819,288.5C 817.189,284.345 814.023,282.345 809.5,282.5C 809.086,280.192 808.753,277.858 808.5,275.5C 808.326,273.307 808.993,271.473 810.5,270C 816.157,269.501 821.824,269.334 827.5,269.5C 831.5,269.5 835.5,269.5 839.5,269.5C 839.5,272.5 839.5,275.5 839.5,278.5C 840.791,278.737 841.791,278.404 842.5,277.5C 854.987,269.102 868.654,266.269 883.5,269C 887.533,270.917 891.033,273.417 894,276.5C 902.92,271.082 912.586,268.082 923,267.5C 931.168,267.221 938.168,269.888 944,275.5C 945.75,278.246 946.75,281.246 947,284.5C 947.112,303.197 947.778,321.863 949,340.5C 950.038,344.591 952.704,346.591 957,346.5C 957.667,349.5 957.667,352.5 957,355.5C 956.097,356.701 954.931,357.535 953.5,358C 944.833,358.667 936.167,358.667 927.5,358C 926.069,357.535 924.903,356.701 924,355.5C 922.706,337.232 922.039,318.899 922,300.5C 921.086,288.916 914.92,284.083 903.5,286C 901.291,287.873 899.458,290.04 898,292.5C 896.555,310.111 896.055,327.777 896.5,345.5C 900.226,345.177 903.893,345.511 907.5,346.5C 908.585,349.773 908.752,353.106 908,356.5C 907.25,357.126 906.416,357.626 905.5,358C 891.821,358.833 878.154,358.666 864.5,357.5C 862.9,353.412 863.234,349.578 865.5,346C 867.473,345.505 869.473,345.338 871.5,345.5C 871.806,329.138 871.306,312.805 870,296.5C 867.541,287.516 861.708,284.016 852.5,286C 848.675,288.488 846.508,291.988 846,296.5C 845.5,312.83 845.333,329.163 845.5,345.5C 853.184,344.492 856.018,347.826 854,355.5C 853.167,356.333 852.333,357.167 851.5,358C 837.5,358.667 823.5,358.667 809.5,358C 808.62,356.644 808.286,355.144 808.5,353.5 Z"/></g>
<g><path style="opacity:1" fill="#070607" d="M 665.5,290.5 C 664.076,292.515 663.41,294.848 663.5,297.5C 663.5,313.5 663.5,329.5 663.5,345.5C 667.437,345.207 671.27,345.54 675,346.5C 675.667,349.833 675.667,353.167 675,356.5C 674.5,357 674,357.5 673.5,358C 657.837,358.5 642.17,358.667 626.5,358.5C 626.509,356.692 626.009,355.025 625,353.5C 623.269,355.617 621.102,357.117 618.5,358C 613.545,359.218 608.545,359.551 603.5,359C 600.03,357.345 597.03,355.178 594.5,352.5C 586.922,355.304 579.255,357.804 571.5,360C 544.708,362.618 534.542,350.785 541,324.5C 545.844,316.154 553.011,311.154 562.5,309.5C 572.338,309.128 582.005,308.461 591.5,307.5C 592.585,290.081 584.585,282.581 567.5,285C 566.312,287.724 564.645,290.057 562.5,292C 558.221,293.244 553.888,293.577 549.5,293C 544.581,287.348 542.414,280.848 543,273.5C 543.383,272.944 543.883,272.611 544.5,272.5C 547.152,272.59 549.485,271.924 551.5,270.5C 566.792,268.156 582.125,267.989 597.5,270C 606.827,271.995 612.993,277.495 616,286.5C 616.333,304.5 616.667,322.5 617,340.5C 617.707,342.081 618.54,343.581 619.5,345C 621.78,345.212 623.78,346.045 625.5,347.5C 629.217,345.656 633.217,344.989 637.5,345.5C 637.667,327.83 637.5,310.164 637,292.5C 636.88,285.546 633.38,282.212 626.5,282.5C 626.086,280.192 625.753,277.858 625.5,275.5C 625.326,273.307 625.993,271.473 627.5,270C 637.495,269.324 647.495,268.824 657.5,268.5C 657.18,271.898 657.513,275.232 658.5,278.5C 659.107,278.376 659.44,278.043 659.5,277.5C 673.681,268.168 689.014,265.668 705.5,270C 711.926,274.009 715.426,279.843 716,287.5C 716.333,305.167 716.667,322.833 717,340.5C 718.038,344.591 720.704,346.591 725,346.5C 726.262,350.909 725.428,354.743 722.5,358C 713.5,358.667 704.5,358.667 695.5,358C 694.069,357.535 692.903,356.701 692,355.5C 690.706,337.232 690.039,318.899 690,300.5C 688.893,288.392 682.393,283.558 670.5,286C 668.34,286.996 666.673,288.496 665.5,290.5 Z"/></g>
<g><path style="opacity:1" fill="#060606" d="M 963.5,272.5 C 965.898,272.741 967.898,272.074 969.5,270.5C 985.138,268.181 1000.81,268.014 1016.5,270C 1027.16,272.323 1033.32,278.823 1035,289.5C 1035.33,306.5 1035.67,323.5 1036,340.5C 1036.66,344.157 1038.82,345.991 1042.5,346C 1043.53,349.057 1044.86,349.057 1046.5,346C 1049.82,345.502 1053.15,345.335 1056.5,345.5C 1056.67,327.83 1056.5,310.164 1056,292.5C 1055.51,285.839 1052.01,282.506 1045.5,282.5C 1045.09,280.192 1044.75,277.858 1044.5,275.5C 1044.33,273.307 1044.99,271.473 1046.5,270C 1056.49,269.324 1066.49,268.824 1076.5,268.5C 1076.5,271.5 1076.5,274.5 1076.5,277.5C 1082.33,274.755 1088.33,272.255 1094.5,270C 1103.06,267.173 1111.73,266.84 1120.5,269C 1128.57,271.072 1133.07,276.239 1134,284.5C 1134.11,303.197 1134.78,321.863 1136,340.5C 1136.84,344.502 1139.34,346.502 1143.5,346.5C 1144.57,349.438 1144.74,352.438 1144,355.5C 1143.1,356.701 1141.93,357.535 1140.5,358C 1131.83,358.667 1123.17,358.667 1114.5,358C 1112.71,357.215 1111.21,356.049 1110,354.5C 1109.67,336.5 1109.33,318.5 1109,300.5C 1107.14,287.487 1099.97,282.987 1087.5,287C 1085.62,288.543 1084.12,290.376 1083,292.5C 1081.57,310.119 1081.07,327.786 1081.5,345.5C 1085.55,345.176 1089.55,345.509 1093.5,346.5C 1094.57,349.438 1094.74,352.438 1094,355.5C 1093.5,356.667 1092.67,357.5 1091.5,358C 1076.17,358.5 1060.84,358.667 1045.5,358.5C 1045.51,356.692 1045.01,355.025 1044,353.5C 1042.27,355.617 1040.1,357.117 1037.5,358C 1031.89,359.384 1026.22,359.717 1020.5,359C 1018.29,356.622 1015.96,354.455 1013.5,352.5C 1005.66,355.501 997.663,358.001 989.5,360C 966.205,363.038 955.705,352.872 958,329.5C 961.68,318.488 969.18,311.654 980.5,309C 990.455,307.705 1000.46,307.205 1010.5,307.5C 1011.57,290.065 1003.57,282.565 986.5,285C 985.324,287.686 983.657,290.019 981.5,292C 977.221,293.244 972.888,293.577 968.5,293C 962.592,286.836 960.925,280.003 963.5,272.5 Z"/></g>
<g><path style="opacity:1" fill="#050505" d="M 1324.5,286.5 C 1324.33,303.17 1324.5,319.837 1325,336.5C 1325.21,338.058 1325.71,339.391 1326.5,340.5C 1326.99,344.554 1329.32,346.554 1333.5,346.5C 1335.76,352.438 1333.76,356.271 1327.5,358C 1321.47,359.785 1315.47,359.785 1309.5,358C 1308.25,355.295 1306.25,353.462 1303.5,352.5C 1295.92,355.304 1288.26,357.804 1280.5,360C 1271.09,361.803 1262.42,360.137 1254.5,355C 1251.8,351.425 1249.8,347.592 1248.5,343.5C 1248.39,338.13 1248.73,332.797 1249.5,327.5C 1251.92,319.246 1257.25,313.746 1265.5,311C 1276.92,307.856 1288.59,306.689 1300.5,307.5C 1300.92,300.432 1299.25,293.932 1295.5,288C 1289.59,284.503 1283.26,283.67 1276.5,285.5C 1275.04,287.583 1273.71,289.75 1272.5,292C 1263.95,295.906 1257.78,293.739 1254,285.5C 1251.83,281.511 1251.33,277.511 1252.5,273.5C 1255.4,272.871 1258.06,271.871 1260.5,270.5C 1276.14,268.149 1291.8,267.983 1307.5,270C 1314.01,271.659 1319.17,275.159 1323,280.5C 1323.81,282.436 1324.31,284.436 1324.5,286.5 Z"/></g>
<g><path style="opacity:1" fill="#996b67" d="M 444.5,260.5 C 448.174,264.507 450.841,269.173 452.5,274.5C 452.631,275.239 452.464,275.906 452,276.5C 450.301,275.594 448.467,275.261 446.5,275.5C 444.084,270.999 441.417,266.666 438.5,262.5C 440.698,262.125 442.698,261.458 444.5,260.5 Z"/></g>
<g><path style="opacity:1" fill="#888989" d="M 657.5,268.5 C 658.167,271.5 658.833,274.5 659.5,277.5C 659.44,278.043 659.107,278.376 658.5,278.5C 657.513,275.232 657.18,271.898 657.5,268.5 Z"/></g>
<g><path style="opacity:1" fill="#373737" d="M 827.5,269.5 C 831.634,268.515 835.968,268.182 840.5,268.5C 839.945,272.012 840.612,275.012 842.5,277.5C 841.791,278.404 840.791,278.737 839.5,278.5C 839.5,275.5 839.5,272.5 839.5,269.5C 835.5,269.5 831.5,269.5 827.5,269.5 Z"/></g>
<g><path style="opacity:1" fill="#996a67" d="M 330.5,259.5 C 330.343,260.873 330.51,262.207 331,263.5C 332.714,262.075 334.047,262.408 335,264.5C 335.278,263.584 335.778,262.918 336.5,262.5C 335.239,266.374 334.572,270.374 334.5,274.5C 332.379,274.675 330.379,274.341 328.5,273.5C 328.229,268.566 328.896,263.9 330.5,259.5 Z"/></g>
<g><path style="opacity:1" fill="#4b4a4a" d="M 551.5,270.5 C 549.485,271.924 547.152,272.59 544.5,272.5C 546.515,271.076 548.848,270.41 551.5,270.5 Z"/></g>
<g><path style="opacity:1" fill="#4c4c4c" d="M 969.5,270.5 C 967.898,272.074 965.898,272.741 963.5,272.5C 965.102,270.926 967.102,270.259 969.5,270.5 Z"/></g>
<g><path style="opacity:1" fill="#494848" d="M 1260.5,270.5 C 1258.06,271.871 1255.4,272.871 1252.5,273.5C 1254.62,271.345 1257.28,270.345 1260.5,270.5 Z"/></g>
<g><path style="opacity:1" fill="#f1b8d0" d="M 217.5,273.5 C 218.5,273.5 219.5,273.5 220.5,273.5C 220.5,277.167 220.5,280.833 220.5,284.5C 217.214,283.793 213.881,283.46 210.5,283.5C 210.491,281.692 210.991,280.025 212,278.5C 213.812,276.7 215.645,275.033 217.5,273.5 Z"/></g>
<g><path style="opacity:1" fill="#897576" d="M 290.5,245.5 C 290.334,252.175 290.5,258.842 291,265.5C 294.409,266.622 297.909,266.789 301.5,266C 302.252,265.329 302.586,264.496 302.5,263.5C 303.931,269.049 305.264,274.716 306.5,280.5C 306.286,282.144 306.62,283.644 307.5,285C 303.415,285.233 299.415,285.733 295.5,286.5C 289.768,273.205 288.102,259.538 290.5,245.5 Z"/></g>
<g><path style="opacity:1" fill="#8d7370" d="M 414.5,234.5 C 415.167,234.5 415.5,234.833 415.5,235.5C 415.252,246.536 415.752,257.536 417,268.5C 418.82,274.785 420.32,281.119 421.5,287.5C 417.167,287.5 412.833,287.5 408.5,287.5C 405.212,277.106 403.212,266.439 402.5,255.5C 406.337,256.134 410.17,256.801 414,257.5C 414.499,251.843 414.666,246.176 414.5,240.5C 414.5,238.5 414.5,236.5 414.5,234.5 Z"/></g>
<g><path style="opacity:1" fill="#877172" d="M 328.5,273.5 C 330.379,274.341 332.379,274.675 334.5,274.5C 334.5,278.833 334.5,283.167 334.5,287.5C 332.972,288.309 331.306,288.976 329.5,289.5C 328.551,284.26 328.218,278.927 328.5,273.5 Z"/></g>
<g><path style="opacity:1" fill="#8c7373" d="M 394.5,269.5 C 396.517,277.784 396.85,286.117 395.5,294.5C 394.064,294.755 392.564,295.088 391,295.5C 390.826,290.649 390.326,285.982 389.5,281.5C 389.5,278.833 389.5,276.167 389.5,273.5C 393.039,274.909 394.706,273.576 394.5,269.5 Z"/></g>
<g><path style="opacity:1" fill="#837476" d="M 481.5,267.5 C 483.177,271.545 483.844,275.878 483.5,280.5C 483.5,284.5 483.5,288.5 483.5,292.5C 479.894,292.211 476.394,292.544 473,293.5C 472.768,292.263 472.268,291.263 471.5,290.5C 471.097,283.798 470.43,277.132 469.5,270.5C 473.337,271.134 477.17,271.801 481,272.5C 481.494,270.866 481.66,269.199 481.5,267.5 Z"/></g>
<g><path style="opacity:1" fill="#f7f7f7" d="M 763.5,283.5 C 777.682,283.479 783.015,290.479 779.5,304.5C 778.5,305 777.5,305.5 776.5,306C 769.174,306.5 761.841,306.666 754.5,306.5C 753.183,296.939 756.183,289.273 763.5,283.5 Z"/></g>
<g><path style="opacity:1" fill="#f9f9f9" d="M 1377.5,283.5 C 1387.8,282.628 1393.97,287.295 1396,297.5C 1398.48,311.352 1397.81,325.019 1394,338.5C 1386.34,345.777 1378.01,346.444 1369,340.5C 1368.33,325.167 1368.33,309.833 1369,294.5C 1370.55,289.788 1373.39,286.121 1377.5,283.5 Z"/></g>
<g><path style="opacity:1" fill="#877779" d="M 452.5,274.5 C 455.129,278.376 456.796,282.71 457.5,287.5C 457.5,288.833 457.5,290.167 457.5,291.5C 455.708,291.366 454.042,291.699 452.5,292.5C 450.898,286.693 448.898,281.027 446.5,275.5C 448.467,275.261 450.301,275.594 452,276.5C 452.464,275.906 452.631,275.239 452.5,274.5 Z"/></g>
<g><path style="opacity:1" fill="#2e2d2d" d="M 1324.5,286.5 C 1325.25,304.345 1325.92,322.345 1326.5,340.5C 1325.71,339.391 1325.21,338.058 1325,336.5C 1324.5,319.837 1324.33,303.17 1324.5,286.5 Z"/></g>
<g><path style="opacity:1" fill="#777e85" d="M 334.5,287.5 C 335.531,289.961 336.198,292.627 336.5,295.5C 336.5,296.833 336.5,298.167 336.5,299.5C 334.833,299.5 333.167,299.5 331.5,299.5C 329.819,296.418 329.152,293.085 329.5,289.5C 331.306,288.976 332.972,288.309 334.5,287.5 Z"/></g>
<g><path style="opacity:1" fill="#ababab" d="M 665.5,290.5 C 665.59,293.152 664.924,295.485 663.5,297.5C 663.41,294.848 664.076,292.515 665.5,290.5 Z"/></g>
<g><path style="opacity:1" fill="#7c7a7f" d="M 306.5,280.5 C 309.813,288.758 313.146,297.091 316.5,305.5C 316.5,306.833 316.5,308.167 316.5,309.5C 312.629,309.185 308.962,309.518 305.5,310.5C 305.167,310.5 304.833,310.5 304.5,310.5C 303.736,307.982 302.736,305.649 301.5,303.5C 299.221,297.94 297.221,292.274 295.5,286.5C 299.415,285.733 303.415,285.233 307.5,285C 306.62,283.644 306.286,282.144 306.5,280.5 Z"/></g>
<g><path style="opacity:1" fill="#7b7b80" d="M 483.5,280.5 C 484.833,292.833 484.833,305.167 483.5,317.5C 483.643,315.738 483.309,314.071 482.5,312.5C 479.291,311.213 476.125,311.213 473,312.5C 472.802,310.618 472.302,308.952 471.5,307.5C 471.5,301.833 471.5,296.167 471.5,290.5C 472.268,291.263 472.768,292.263 473,293.5C 476.394,292.544 479.894,292.211 483.5,292.5C 483.5,288.5 483.5,284.5 483.5,280.5 Z"/></g>
<g><path style="opacity:1" fill="#827f83" d="M 389.5,281.5 C 390.326,285.982 390.826,290.649 391,295.5C 392.564,295.088 394.064,294.755 395.5,294.5C 394.7,300.307 393.366,305.974 391.5,311.5C 389.99,310.272 388.49,310.272 387,311.5C 386.536,310.906 386.369,310.239 386.5,309.5C 388.624,300.298 389.624,290.965 389.5,281.5 Z"/></g>
<g><path style="opacity:1" fill="#807a7c" d="M 408.5,287.5 C 412.833,287.5 417.167,287.5 421.5,287.5C 425.338,295.352 428.005,303.686 429.5,312.5C 428.962,314.117 428.629,315.784 428.5,317.5C 423.927,318.231 419.927,317.231 416.5,314.5C 414.297,305.352 411.63,296.352 408.5,287.5 Z"/></g>
<g><path style="opacity:1" fill="#353535" d="M 591.5,307.5 C 582.005,308.461 572.338,309.128 562.5,309.5C 564.292,308.691 566.292,308.191 568.5,308C 576.159,307.5 583.826,307.334 591.5,307.5 Z"/></g>
<g><path style="opacity:1" fill="#bc373a" d="M 301.5,303.5 C 302.736,305.649 303.736,307.982 304.5,310.5C 301.833,313.5 299.167,316.5 296.5,319.5C 294.265,319.795 292.265,319.461 290.5,318.5C 293.436,312.959 297.103,307.959 301.5,303.5 Z"/></g>
<g><path style="opacity:1" fill="#678b98" d="M 336.5,295.5 C 338.48,300.424 340.48,305.424 342.5,310.5C 340.735,311.461 338.735,311.795 336.5,311.5C 334.056,307.837 332.389,303.837 331.5,299.5C 333.167,299.5 334.833,299.5 336.5,299.5C 336.5,298.167 336.5,296.833 336.5,295.5 Z"/></g>
<g><path style="opacity:1" fill="#728b95" d="M 457.5,287.5 C 460.167,296.833 460.167,306.167 457.5,315.5C 457.5,314.167 457.5,312.833 457.5,311.5C 455.833,311.5 454.167,311.5 452.5,311.5C 452.5,305.167 452.5,298.833 452.5,292.5C 454.042,291.699 455.708,291.366 457.5,291.5C 457.5,290.167 457.5,288.833 457.5,287.5 Z"/></g>
<g><path style="opacity:1" fill="#fdfdfd" d="M 304.5,310.5 C 304.833,310.5 305.167,310.5 305.5,310.5C 307.989,317.472 310.989,324.139 314.5,330.5C 319.397,342.249 323.063,354.249 325.5,366.5C 325.5,375.5 325.5,384.5 325.5,393.5C 323.466,404.963 320.466,416.297 316.5,427.5C 312.274,436.948 306.774,445.614 300,453.5C 298.638,449.233 296.805,445.233 294.5,441.5C 293.038,437.243 291.038,433.243 288.5,429.5C 293.916,420.92 296.916,411.586 297.5,401.5C 298.164,398.854 298.498,396.021 298.5,393C 298.714,388.867 298.048,385.034 296.5,381.5C 296.025,377.916 295.025,374.583 293.5,371.5C 292.674,368.515 291.341,365.849 289.5,363.5C 287.784,359.397 285.117,356.064 281.5,353.5C 282.253,348.663 283.586,343.996 285.5,339.5C 289.163,332.841 292.83,326.174 296.5,319.5C 299.167,316.5 301.833,313.5 304.5,310.5 Z"/></g>
<g><path style="opacity:1" fill="#738189" d="M 316.5,305.5 C 320.677,313.192 324.344,321.192 327.5,329.5C 325.254,328.893 322.921,328.56 320.5,328.5C 318.048,328.539 316.048,329.206 314.5,330.5C 310.989,324.139 307.989,317.472 305.5,310.5C 308.962,309.518 312.629,309.185 316.5,309.5C 316.5,308.167 316.5,306.833 316.5,305.5 Z"/></g>
<g><path style="opacity:1" fill="#cbcbcb" d="M 800.5,317.5 C 798.974,319.13 796.974,319.963 794.5,320C 781.504,320.5 768.504,320.667 755.5,320.5C 755.5,321.833 755.5,323.167 755.5,324.5C 754.549,323.081 754.216,321.415 754.5,319.5C 767.504,319.667 780.504,319.5 793.5,319C 795.866,318.56 798.199,318.06 800.5,317.5 Z"/></g>
<g><path style="opacity:1" fill="#70858f" d="M 386.5,309.5 C 386.369,310.239 386.536,310.906 387,311.5C 388.49,310.272 389.99,310.272 391.5,311.5C 389.961,317.566 387.628,323.233 384.5,328.5C 382.735,327.539 380.735,327.205 378.5,327.5C 380.678,321.155 383.345,315.155 386.5,309.5 Z"/></g>
<g><path style="opacity:1" fill="#f5f5f5" d="M 572.5,320.5 C 578.851,320.557 585.185,320.89 591.5,321.5C 591.784,327.659 590.951,333.659 589,339.5C 583.958,343.843 578.125,345.343 571.5,344C 565.725,339.6 563.891,333.767 566,326.5C 567.436,323.558 569.603,321.558 572.5,320.5 Z"/></g>
<g><path style="opacity:1" fill="#f5f5f5" d="M 991.5,320.5 C 997.851,320.557 1004.18,320.89 1010.5,321.5C 1011.14,328.51 1009.81,335.01 1006.5,341C 990.235,348.451 983.068,343.284 985,325.5C 986.805,323.174 988.972,321.508 991.5,320.5 Z"/></g>
<g><path style="opacity:1" fill="#f5f5f5" d="M 1282.5,320.5 C 1288.52,320.593 1294.52,320.926 1300.5,321.5C 1301.13,327.762 1300.29,333.762 1298,339.5C 1292.63,344.624 1286.46,345.791 1279.5,343C 1274.85,338.464 1273.35,332.964 1275,326.5C 1276.71,323.41 1279.21,321.41 1282.5,320.5 Z"/></g>
<g><path style="opacity:1" fill="#3c95ae" d="M 452.5,311.5 C 454.167,311.5 455.833,311.5 457.5,311.5C 457.5,312.833 457.5,314.167 457.5,315.5C 456.152,321.86 453.485,327.527 449.5,332.5C 447.473,332.662 445.473,332.495 443.5,332C 444.252,331.329 444.586,330.496 444.5,329.5C 447.737,323.698 450.404,317.698 452.5,311.5 Z"/></g>
<g><path style="opacity:1" fill="#6d828c" d="M 471.5,307.5 C 472.302,308.952 472.802,310.618 473,312.5C 476.125,311.213 479.291,311.213 482.5,312.5C 483.309,314.071 483.643,315.738 483.5,317.5C 483.114,323.534 482.447,329.534 481.5,335.5C 477.379,337.744 473.046,338.077 468.5,336.5C 469.919,326.89 470.919,317.224 471.5,307.5 Z"/></g>
<g><path style="opacity:1" fill="#707f86" d="M 429.5,312.5 C 431.269,320.257 431.935,328.257 431.5,336.5C 427.566,337.36 423.566,337.693 419.5,337.5C 419.818,332.968 419.485,328.634 418.5,324.5C 418.149,321.097 417.482,317.763 416.5,314.5C 419.927,317.231 423.927,318.231 428.5,317.5C 428.629,315.784 428.962,314.117 429.5,312.5 Z"/></g>
<g><path style="opacity:1" fill="#329bba" d="M 342.5,310.5 C 349.592,321.679 355.926,333.346 361.5,345.5C 360.085,344.711 358.585,344.044 357,343.5C 355.699,343.639 354.866,344.305 354.5,345.5C 348.518,334.206 342.518,322.873 336.5,311.5C 338.735,311.795 340.735,311.461 342.5,310.5 Z"/></g>
<g><path style="opacity:1" fill="#af4f4a" d="M 290.5,318.5 C 292.265,319.461 294.265,319.795 296.5,319.5C 292.83,326.174 289.163,332.841 285.5,339.5C 283.272,339.223 281.605,338.223 280.5,336.5C 282.823,329.847 286.156,323.847 290.5,318.5 Z"/></g>
<g><path style="opacity:1" fill="#a8a7a7" d="M 1249.5,327.5 C 1248.73,332.797 1248.39,338.13 1248.5,343.5C 1247.84,341.527 1247.5,339.361 1247.5,337C 1247.33,333.523 1247.99,330.356 1249.5,327.5 Z"/></g>
<g><path style="opacity:1" fill="#7a7475" d="M 190.5,335.5 C 207.344,331.846 213.844,338.179 210,354.5C 205.498,358.935 199.998,360.768 193.5,360C 178.471,366.678 171.305,378.178 172,394.5C 193.575,409.569 201.575,429.902 196,455.5C 189.924,461.137 184.257,460.804 179,454.5C 179.06,438.127 173.227,424.294 161.5,413C 154.293,408.043 146.293,405.71 137.5,406C 129.493,405.113 122.327,402.279 116,397.5C 113.378,391.082 115.211,386.248 121.5,383C 126.167,382.333 130.833,382.333 135.5,383C 140.418,384.806 145.418,386.306 150.5,387.5C 153.058,361.638 166.391,344.305 190.5,335.5 Z"/></g>
<g><path style="opacity:1" fill="#f5ecef" d="M 192.5,340.5 C 196.182,340.335 199.848,340.501 203.5,341C 207.689,345.678 207.356,350.011 202.5,354C 180.334,356 168.334,368.167 166.5,390.5C 166.667,392.5 166.833,394.5 167,396.5C 175.419,402.917 182.419,410.584 188,419.5C 193.121,430.088 194.454,441.088 192,452.5C 189.253,455.034 186.587,455.034 184,452.5C 183.79,434.581 176.956,419.748 163.5,408C 154.407,402.309 144.407,399.642 133.5,400C 128.784,398.554 124.284,396.721 120,394.5C 119.78,389.059 122.447,386.726 128,387.5C 137.17,389.346 146.336,391.012 155.5,392.5C 156.308,366.729 168.641,349.395 192.5,340.5 Z"/></g>
<g><path style="opacity:1" fill="#5b8e9f" d="M 378.5,327.5 C 380.735,327.205 382.735,327.539 384.5,328.5C 381.171,336.501 376.838,343.834 371.5,350.5C 370.082,348.692 368.082,348.025 365.5,348.5C 369.586,341.324 373.919,334.324 378.5,327.5 Z"/></g>
<g><path style="opacity:1" fill="#1fa4cd" d="M 444.5,329.5 C 444.586,330.496 444.252,331.329 443.5,332C 445.473,332.495 447.473,332.662 449.5,332.5C 448.191,335.778 446.358,338.778 444,341.5C 437.257,349.399 430.757,357.399 424.5,365.5C 424.878,363.079 425.545,360.746 426.5,358.5C 428.122,355.021 429.289,351.355 430,347.5C 431.045,346.627 431.878,345.627 432.5,344.5C 436.53,339.476 440.53,334.476 444.5,329.5 Z"/></g>
<g><path style="opacity:1" fill="#a3605b" d="M 280.5,336.5 C 281.605,338.223 283.272,339.223 285.5,339.5C 283.586,343.996 282.253,348.663 281.5,353.5C 280.596,354.209 280.263,355.209 280.5,356.5C 279.833,356.5 279.5,356.833 279.5,357.5C 277.883,356.962 276.216,356.629 274.5,356.5C 274.5,355.167 274.5,353.833 274.5,352.5C 275.531,346.733 277.531,341.399 280.5,336.5 Z"/></g>
<g><path style="opacity:1" fill="#658793" d="M 418.5,324.5 C 419.485,328.634 419.818,332.968 419.5,337.5C 423.566,337.693 427.566,337.36 431.5,336.5C 431.194,339.385 431.527,342.052 432.5,344.5C 431.878,345.627 431.045,346.627 430,347.5C 429.289,351.355 428.122,355.021 426.5,358.5C 422.265,357.564 417.931,357.231 413.5,357.5C 417.615,346.913 419.282,335.913 418.5,324.5 Z"/></g>
<g><path style="opacity:1" fill="#608997" d="M 327.5,329.5 C 332.822,339.807 336.155,350.807 337.5,362.5C 333.563,362.793 329.73,362.46 326,361.5C 325.506,363.134 325.34,364.801 325.5,366.5C 323.063,354.249 319.397,342.249 314.5,330.5C 316.048,329.206 318.048,328.539 320.5,328.5C 322.921,328.56 325.254,328.893 327.5,329.5 Z"/></g>
<g><path style="opacity:1" fill="#27acdf" d="M 361.5,345.5 C 362.345,346.671 363.011,348.005 363.5,349.5C 362.567,352.37 360.9,354.704 358.5,356.5C 357.193,352.919 355.859,349.253 354.5,345.5C 354.866,344.305 355.699,343.639 357,343.5C 358.585,344.044 360.085,344.711 361.5,345.5 Z"/></g>
<g><path style="opacity:1" fill="#797979" d="M 806.5,343.5 C 807.167,345.167 807.833,346.833 808.5,348.5C 808.5,350.167 808.5,351.833 808.5,353.5C 807.833,352.5 807.167,351.5 806.5,350.5C 806.5,348.167 806.5,345.833 806.5,343.5 Z"/></g>
<g><path style="opacity:1" fill="#5f8a9a" d="M 481.5,335.5 C 480.236,343.48 478.236,351.147 475.5,358.5C 471.922,357.411 468.255,357.245 464.5,358C 463.08,359.492 461.746,360.992 460.5,362.5C 463.187,353.729 465.854,345.062 468.5,336.5C 473.046,338.077 477.379,337.744 481.5,335.5 Z"/></g>
<g><path style="opacity:1" fill="#575656" d="M 748.5,356.5 C 751.152,356.41 753.485,357.076 755.5,358.5C 752.848,358.59 750.515,357.924 748.5,356.5 Z"/></g>
<g><path style="opacity:1" fill="#fbfbfb" d="M 280.5,356.5 C 282.603,359.72 284.936,362.72 287.5,365.5C 288.561,368.622 289.895,371.622 291.5,374.5C 292.167,377.167 292.833,379.833 293.5,382.5C 294.407,388.106 294.74,393.773 294.5,399.5C 293.772,408.852 290.938,417.518 286,425.5C 283.233,420.965 280.733,416.299 278.5,411.5C 276.306,404.338 274.973,397.005 274.5,389.5C 274.437,384.797 274.771,380.13 275.5,375.5C 276.706,369.467 278.04,363.467 279.5,357.5C 279.5,356.833 279.833,356.5 280.5,356.5 Z"/></g>
<g><path style="opacity:1" fill="#b74c48" d="M 281.5,353.5 C 285.117,356.064 287.784,359.397 289.5,363.5C 289.5,364.833 288.833,365.5 287.5,365.5C 284.936,362.72 282.603,359.72 280.5,356.5C 280.263,355.209 280.596,354.209 281.5,353.5 Z"/></g>
<g><path style="opacity:1" fill="#ab5f59" d="M 289.5,363.5 C 291.341,365.849 292.674,368.515 293.5,371.5C 293.715,373.179 293.048,374.179 291.5,374.5C 289.895,371.622 288.561,368.622 287.5,365.5C 288.833,365.5 289.5,364.833 289.5,363.5 Z"/></g>
<g><path style="opacity:1" fill="#578d9e" d="M 413.5,357.5 C 417.931,357.231 422.265,357.564 426.5,358.5C 425.545,360.746 424.878,363.079 424.5,365.5C 422.405,370.027 420.072,374.361 417.5,378.5C 417.631,377.761 417.464,377.094 417,376.5C 412.503,377.194 408.003,377.861 403.5,378.5C 406.597,371.309 409.93,364.309 413.5,357.5 Z"/></g>
<g><path style="opacity:1" fill="#4a8fa4" d="M 475.5,358.5 C 472.956,367.239 469.623,375.572 465.5,383.5C 463.952,382.206 461.952,381.539 459.5,381.5C 457.079,381.56 454.746,381.893 452.5,382.5C 455.169,375.829 457.836,369.162 460.5,362.5C 461.746,360.992 463.08,359.492 464.5,358C 468.255,357.245 471.922,357.411 475.5,358.5 Z"/></g>
<g><path style="opacity:1" fill="#907272" d="M 274.5,352.5 C 274.5,353.833 274.5,355.167 274.5,356.5C 276.216,356.629 277.883,356.962 279.5,357.5C 278.04,363.467 276.706,369.467 275.5,375.5C 272.988,377.179 270.988,376.845 269.5,374.5C 269.912,366.759 271.578,359.425 274.5,352.5 Z"/></g>
<g><path style="opacity:1" fill="#98c1ce" d="M 338.5,368.5 C 339.167,373.167 339.833,377.833 340.5,382.5C 340.158,383.338 339.492,383.672 338.5,383.5C 338.5,378.5 338.5,373.5 338.5,368.5 Z"/></g>
<g><path style="opacity:1" fill="#9b6f6c" d="M 293.5,371.5 C 295.025,374.583 296.025,377.916 296.5,381.5C 296.196,383.796 295.196,384.129 293.5,382.5C 292.833,379.833 292.167,377.167 291.5,374.5C 293.048,374.179 293.715,373.179 293.5,371.5 Z"/></g>
<g><path style="opacity:1" fill="#7d7c80" d="M 269.5,374.5 C 270.988,376.845 272.988,377.179 275.5,375.5C 274.771,380.13 274.437,384.797 274.5,389.5C 272.5,389.5 270.5,389.5 268.5,389.5C 268.179,384.305 268.513,379.305 269.5,374.5 Z"/></g>
<g><path style="opacity:1" fill="#7b7375" d="M 219.5,368.5 C 219.828,380.012 219.495,391.346 218.5,402.5C 218.5,404.167 218.5,405.833 218.5,407.5C 212.808,406.414 207.141,405.248 201.5,404C 193.654,397.409 193.654,391.076 201.5,385C 207.182,384.531 212.848,384.698 218.5,385.5C 218.178,379.642 218.511,373.975 219.5,368.5 Z"/></g>
<g><path style="opacity:1" fill="#928c90" d="M 296.5,381.5 C 298.048,385.034 298.714,388.867 298.5,393C 298.498,396.021 298.164,398.854 297.5,401.5C 297.813,398.753 297.48,396.086 296.5,393.5C 295.831,395.631 295.165,397.631 294.5,399.5C 294.74,393.773 294.407,388.106 293.5,382.5C 295.196,384.129 296.196,383.796 296.5,381.5 Z"/></g>
<g><path style="opacity:1" fill="#4192a9" d="M 337.5,362.5 C 338.341,364.379 338.675,366.379 338.5,368.5C 338.5,373.5 338.5,378.5 338.5,383.5C 338.726,386.249 338.393,388.916 337.5,391.5C 333.955,392.791 330.455,392.791 327,391.5C 326.841,393.343 326.341,394.009 325.5,393.5C 325.5,384.5 325.5,375.5 325.5,366.5C 325.34,364.801 325.506,363.134 326,361.5C 329.73,362.46 333.563,362.793 337.5,362.5 Z"/></g>
<g><path style="opacity:1" fill="#f3eaee" d="M 218.5,402.5 C 213.972,401.051 209.305,400.217 204.5,400C 201.71,397.79 200.877,394.956 202,391.5C 207.043,388.976 212.209,388.976 217.5,391.5C 218.489,395.107 218.823,398.774 218.5,402.5 Z"/></g>
<g><path style="opacity:1" fill="#4393aa" d="M 417.5,378.5 C 414.418,384.999 411.085,391.332 407.5,397.5C 402.934,396.203 398.267,396.203 393.5,397.5C 396.073,390.685 399.406,384.351 403.5,378.5C 408.003,377.861 412.503,377.194 417,376.5C 417.464,377.094 417.631,377.761 417.5,378.5 Z"/></g>
<g><path style="opacity:1" fill="#2e95b0" d="M 465.5,383.5 C 462.927,390.315 459.594,396.649 455.5,402.5C 450.353,400.971 445.353,401.304 440.5,403.5C 444.251,396.329 448.251,389.329 452.5,382.5C 454.746,381.893 457.079,381.56 459.5,381.5C 461.952,381.539 463.952,382.206 465.5,383.5 Z"/></g>
<g><path style="opacity:1" fill="#618997" d="M 268.5,389.5 C 270.5,389.5 272.5,389.5 274.5,389.5C 274.973,397.005 276.306,404.338 278.5,411.5C 277.213,410.472 276.046,410.805 275,412.5C 273.869,411.665 273.036,411.665 272.5,412.5C 269.453,405.273 268.12,397.607 268.5,389.5 Z"/></g>
<g><path style="opacity:1" fill="#269aba" d="M 365.5,348.5 C 368.082,348.025 370.082,348.692 371.5,350.5C 359.774,366.068 348.608,382.068 338,398.5C 336.477,408.998 333.644,418.998 329.5,428.5C 328.129,427.213 326.295,426.547 324,426.5C 321.449,426.625 318.949,426.958 316.5,427.5C 320.466,416.297 323.466,404.963 325.5,393.5C 326.341,394.009 326.841,393.343 327,391.5C 330.455,392.791 333.955,392.791 337.5,391.5C 338.393,388.916 338.726,386.249 338.5,383.5C 339.492,383.672 340.158,383.338 340.5,382.5C 346.51,373.804 352.51,365.138 358.5,356.5C 360.9,354.704 362.567,352.37 363.5,349.5C 364.167,349.167 364.833,348.833 365.5,348.5 Z"/></g>
<g><path style="opacity:1" fill="#2198b6" d="M 407.5,397.5 C 403.849,405.788 400.516,414.121 397.5,422.5C 393.5,422.5 389.5,422.5 385.5,422.5C 385.5,421.5 385.5,420.5 385.5,419.5C 387.202,411.721 389.868,404.387 393.5,397.5C 398.267,396.203 402.934,396.203 407.5,397.5 Z"/></g>
<g><path style="opacity:1" fill="#309ebe" d="M 297.5,401.5 C 296.916,411.586 293.916,420.92 288.5,429.5C 291.038,433.243 293.038,437.243 294.5,441.5C 292.059,440.244 289.726,440.244 287.5,441.5C 281.213,432.595 276.213,422.928 272.5,412.5C 273.036,411.665 273.869,411.665 275,412.5C 276.046,410.805 277.213,410.472 278.5,411.5C 280.733,416.299 283.233,420.965 286,425.5C 290.938,417.518 293.772,408.852 294.5,399.5C 295.165,397.631 295.831,395.631 296.5,393.5C 297.48,396.086 297.813,398.753 297.5,401.5 Z"/></g>
<g><path style="opacity:1" fill="#159fc6" d="M 455.5,402.5 C 446.141,419.516 434.141,434.516 419.5,447.5C 414.519,445.787 409.186,444.787 403.5,444.5C 417.655,432.352 429.988,418.685 440.5,403.5C 445.353,401.304 450.353,400.971 455.5,402.5 Z"/></g>
<g><path style="opacity:1" fill="#12a6d7" d="M 403.5,444.5 C 409.186,444.787 414.519,445.787 419.5,447.5C 414.109,453.224 408.109,458.224 401.5,462.5C 389.528,459.786 378.195,461.62 367.5,468C 363.867,469.049 360.201,469.882 356.5,470.5C 359.808,467.529 363.141,464.529 366.5,461.5C 370.846,461.666 375.179,461.499 379.5,461C 381.727,460.059 383.727,458.892 385.5,457.5C 391.5,453.167 397.5,448.833 403.5,444.5 Z"/></g>
<g><path style="opacity:1" fill="#15a5d3" d="M 329.5,428.5 C 324.356,442.805 316.689,455.472 306.5,466.5C 301.36,465.512 296.026,465.179 290.5,465.5C 293.435,457.169 292.435,449.169 287.5,441.5C 289.726,440.244 292.059,440.244 294.5,441.5C 296.805,445.233 298.638,449.233 300,453.5C 306.774,445.614 312.274,436.948 316.5,427.5C 318.949,426.958 321.449,426.625 324,426.5C 326.295,426.547 328.129,427.213 329.5,428.5 Z"/></g>
<g><path style="opacity:1" fill="#14a2cc" d="M 385.5,419.5 C 385.5,420.5 385.5,421.5 385.5,422.5C 389.5,422.5 393.5,422.5 397.5,422.5C 394.695,434.581 390.695,446.248 385.5,457.5C 383.727,458.892 381.727,460.059 379.5,461C 375.179,461.499 370.846,461.666 366.5,461.5C 369.896,456.387 373.062,451.054 376,445.5C 379.488,436.836 382.654,428.17 385.5,419.5 Z"/></g>
<g><path style="opacity:1" fill="#13abe6" d="M 401.5,462.5 C 393.175,468.664 384.508,474.331 375.5,479.5C 351.024,489.808 325.358,495.975 298.5,498C 284.185,499.063 269.852,499.563 255.5,499.5C 255.5,495.5 255.5,491.5 255.5,487.5C 268.622,482.441 280.289,475.108 290.5,465.5C 296.026,465.179 301.36,465.512 306.5,466.5C 304.085,470.422 301.085,473.922 297.5,477C 292.524,481.487 287.191,485.487 281.5,489C 308.43,490.234 333.43,484.067 356.5,470.5C 360.201,469.882 363.867,469.049 367.5,468C 378.195,461.62 389.528,459.786 401.5,462.5 Z"/></g>
<g><path style="opacity:1" fill="#a6a1a4" d="M 216.5,482.5 C 216.5,487.5 216.5,492.5 216.5,497.5C 215.209,497.737 214.209,497.404 213.5,496.5C 215.138,492.087 216.138,487.421 216.5,482.5 Z"/></g>
</svg>
