<?xml version="1.0" encoding="UTF-8"?>
<!DOCTYPE svg PUBLIC "-//W3C//DTD SVG 1.1//EN" "http://www.w3.org/Graphics/SVG/1.1/DTD/svg11.dtd">
<svg xmlns="http://www.w3.org/2000/svg" version="1.1" width="834px" height="607px" style="shape-rendering:geometricPrecision; text-rendering:geometricPrecision; image-rendering:optimizeQuality; fill-rule:evenodd; clip-rule:evenodd" xmlns:xlink="http://www.w3.org/1999/xlink">
<g><path style="opacity:0.915" fill="#000000" d="M 689.5,245.5 C 687.938,247.372 686.938,249.705 686.5,252.5C 685.513,255.768 685.18,259.102 685.5,262.5C 684.5,262.5 683.5,262.5 682.5,262.5C 681.395,270.79 680.728,279.124 680.5,287.5C 679.5,287.5 678.5,287.5 677.5,287.5C 677.5,307.5 677.5,327.5 677.5,347.5C 675.234,347.859 673.401,347.192 672,345.5C 670.114,334.019 669.281,322.352 669.5,310.5C 670.069,297.481 670.902,284.481 672,271.5C 672.308,270.692 672.808,270.025 673.5,269.5C 674.754,262.183 675.754,254.849 676.5,247.5C 677.5,247.5 678.5,247.5 679.5,247.5C 679.808,245.076 679.474,242.743 678.5,240.5C 677.614,241.325 677.281,242.325 677.5,243.5C 671.06,243.721 664.726,244.721 658.5,246.5C 658.291,247.086 657.957,247.586 657.5,248C 649.479,249.506 641.479,251.006 633.5,252.5C 633.5,253.5 633.5,254.5 633.5,255.5C 630.167,256.167 626.833,256.833 623.5,257.5C 623.5,258.5 623.5,259.5 623.5,260.5C 620.167,261.167 616.833,261.833 613.5,262.5C 612.82,266.322 610.487,267.989 606.5,267.5C 606.167,270.5 604.5,272.167 601.5,272.5C 601.719,273.675 601.386,274.675 600.5,275.5C 596.447,277.206 594.447,280.206 594.5,284.5C 593.5,284.5 592.5,284.5 591.5,284.5C 590.357,292.044 588.69,299.377 586.5,306.5C 587.5,306.5 588.5,306.5 589.5,306.5C 589.409,312.279 590.075,317.946 591.5,323.5C 592.5,323.5 593.5,323.5 594.5,323.5C 594.808,327.573 595.475,331.573 596.5,335.5C 597.5,335.5 598.5,335.5 599.5,335.5C 600.64,338.025 601.307,340.692 601.5,343.5C 602.5,343.5 603.5,343.5 604.5,343.5C 606.19,347.372 607.523,351.372 608.5,355.5C 609.5,355.5 610.5,355.5 611.5,355.5C 612.449,357.737 613.116,360.071 613.5,362.5C 614.5,362.5 615.5,362.5 616.5,362.5C 616.833,365.5 618.5,367.167 621.5,367.5C 623.833,370.833 626.167,374.167 628.5,377.5C 630.737,378.449 633.071,379.116 635.5,379.5C 635.5,380.5 635.5,381.5 635.5,382.5C 638.025,383.64 640.692,384.307 643.5,384.5C 643.831,386.322 644.498,387.989 645.5,389.5C 641.5,389.5 637.5,389.5 633.5,389.5C 633.5,390.5 633.5,391.5 633.5,392.5C 632.5,392.5 631.5,392.5 630.5,392.5C 629.244,392.904 628.077,393.571 627,394.5C 623.354,392.687 620.521,390.021 618.5,386.5C 617.675,385.614 616.675,385.281 615.5,385.5C 613.167,382.167 610.833,378.833 608.5,375.5C 605.5,375.167 603.833,373.5 603.5,370.5C 601.833,370.5 600.167,370.5 598.5,370.5C 598.167,367.5 596.5,365.833 593.5,365.5C 593.719,364.325 593.386,363.325 592.5,362.5C 589.167,360.5 586.5,357.833 584.5,354.5C 583.675,353.614 582.675,353.281 581.5,353.5C 581.167,350.5 579.5,348.833 576.5,348.5C 576.167,345.5 574.5,343.833 571.5,343.5C 569.167,340.167 566.833,336.833 564.5,333.5C 561.5,333.167 559.833,331.5 559.5,328.5C 556.167,326.167 552.833,323.833 549.5,321.5C 549.167,318.5 547.5,316.833 544.5,316.5C 542.167,313.167 539.833,309.833 537.5,306.5C 534.5,306.167 532.833,304.5 532.5,301.5C 529.5,301.167 527.833,299.5 527.5,296.5C 523.926,295.04 520.592,293.04 517.5,290.5C 516.147,289.476 515.48,288.143 515.5,286.5C 512.167,284.167 508.833,281.833 505.5,279.5C 505.167,276.5 503.5,274.833 500.5,274.5C 499.414,270.988 497.081,268.655 493.5,267.5C 495.532,263.075 496.866,258.408 497.5,253.5C 497.244,249.628 496.244,245.961 494.5,242.5C 493.476,241.147 492.143,240.48 490.5,240.5C 490.5,239.5 490.5,238.5 490.5,237.5C 486.884,236.73 483.217,236.064 479.5,235.5C 475.783,236.064 472.116,236.73 468.5,237.5C 468.5,238.5 468.5,239.5 468.5,240.5C 466.678,240.831 465.011,241.498 463.5,242.5C 463.179,240.952 462.179,240.285 460.5,240.5C 459.167,237.833 457.833,235.167 456.5,232.5C 453.5,232.167 451.833,230.5 451.5,227.5C 448.167,225.167 444.833,222.833 441.5,220.5C 441.719,219.325 441.386,218.325 440.5,217.5C 435.838,214.668 432.838,210.668 431.5,205.5C 428.167,203.167 424.833,200.833 421.5,198.5C 419.167,195.167 416.833,191.833 414.5,188.5C 411.167,186.167 407.833,183.833 404.5,181.5C 404.167,178.5 402.5,176.833 399.5,176.5C 399.167,173.5 397.5,171.833 394.5,171.5C 394.167,168.5 392.5,166.833 389.5,166.5C 389.719,165.325 389.386,164.325 388.5,163.5C 385.167,161.5 382.5,158.833 380.5,155.5C 379.675,154.614 378.675,154.281 377.5,154.5C 377.167,151.5 375.5,149.833 372.5,149.5C 372.169,147.678 371.502,146.011 370.5,144.5C 372.452,136.922 372.785,129.256 371.5,121.5C 369.658,119.828 367.658,118.494 365.5,117.5C 365.5,116.5 365.5,115.5 365.5,114.5C 358.833,114.5 352.167,114.5 345.5,114.5C 345.5,115.5 345.5,116.5 345.5,117.5C 341.935,118.324 339.935,120.657 339.5,124.5C 338.122,130.64 338.455,136.64 340.5,142.5C 337.897,144.78 335.564,147.447 333.5,150.5C 332.675,151.386 331.675,151.719 330.5,151.5C 330.5,153.167 330.5,154.833 330.5,156.5C 327.167,158.833 323.833,161.167 320.5,163.5C 319.999,166.178 318.499,168.178 316,169.5C 315.144,171.868 314.31,174.202 313.5,176.5C 310.167,178.833 306.833,181.167 303.5,183.5C 303.5,185.167 303.5,186.833 303.5,188.5C 302.325,188.281 301.325,188.614 300.5,189.5C 298.686,191.721 297.019,194.054 295.5,196.5C 294.476,197.853 293.143,198.52 291.5,198.5C 291.5,200.167 291.5,201.833 291.5,203.5C 288.5,203.833 286.833,205.5 286.5,208.5C 282.678,209.18 281.011,211.513 281.5,215.5C 278.5,215.833 276.833,217.5 276.5,220.5C 273.167,222.833 269.833,225.167 266.5,227.5C 266.307,230.308 265.64,232.975 264.5,235.5C 261.5,235.833 259.833,237.5 259.5,240.5C 255.678,241.18 254.011,243.513 254.5,247.5C 253.325,247.281 252.325,247.614 251.5,248.5C 248.656,253.562 244.656,257.229 239.5,259.5C 239.5,261.167 239.5,262.833 239.5,264.5C 235.98,266.109 233.314,268.776 231.5,272.5C 230.476,273.853 229.143,274.52 227.5,274.5C 227.5,276.167 227.5,277.833 227.5,279.5C 224.167,281.833 220.833,284.167 217.5,286.5C 217.5,288.167 217.5,289.833 217.5,291.5C 212.456,291.173 207.456,291.506 202.5,292.5C 201.757,293.182 201.091,293.849 200.5,294.5C 199.498,296.011 198.831,297.678 198.5,299.5C 197.5,299.5 196.5,299.5 195.5,299.5C 194.972,302.667 194.305,305.834 193.5,309C 194.421,313.185 195.421,317.352 196.5,321.5C 200.614,325.026 205.28,327.359 210.5,328.5C 212.851,334.176 215.184,339.843 217.5,345.5C 218.5,345.5 219.5,345.5 220.5,345.5C 221.589,352.22 222.922,358.887 224.5,365.5C 225.5,365.5 226.5,365.5 227.5,365.5C 231.155,376.29 235.155,386.957 239.5,397.5C 240.5,397.5 241.5,397.5 242.5,397.5C 243.223,401.536 244.223,405.536 245.5,409.5C 248.204,416.352 251.204,423.018 254.5,429.5C 253.816,431.185 252.483,432.185 250.5,432.5C 249.571,433.689 249.238,435.022 249.5,436.5C 248.5,436.5 247.5,436.5 246.5,436.5C 246.715,438.179 246.048,439.179 244.5,439.5C 244.82,436.102 244.487,432.768 243.5,429.5C 241.774,425.656 240.441,421.656 239.5,417.5C 237.857,417.52 236.524,416.853 235.5,415.5C 232.791,411.108 230.125,406.775 227.5,402.5C 224.5,402.167 222.833,400.5 222.5,397.5C 221.5,397.5 220.5,397.5 219.5,397.5C 219.116,395.071 218.449,392.737 217.5,390.5C 213.678,389.82 212.011,387.487 212.5,383.5C 211.5,383.5 210.5,383.5 209.5,383.5C 209.167,380.5 207.5,378.833 204.5,378.5C 203.523,374.372 202.19,370.372 200.5,366.5C 199.5,366.5 198.5,366.5 197.5,366.5C 196.36,363.975 195.693,361.308 195.5,358.5C 191.678,357.82 190.011,355.487 190.5,351.5C 189.5,351.5 188.5,351.5 187.5,351.5C 186.833,348.833 186.167,346.167 185.5,343.5C 184.5,343.5 183.5,343.5 182.5,343.5C 179.84,337.316 177.506,330.983 175.5,324.5C 174.5,324.5 173.5,324.5 172.5,324.5C 171.439,319.342 169.773,314.342 167.5,309.5C 164.29,310.715 161.29,312.215 158.5,314C 153.873,315.157 149.207,315.99 144.5,316.5C 144.5,317.5 144.5,318.5 144.5,319.5C 141.167,320.167 137.833,320.833 134.5,321.5C 134.5,322.5 134.5,323.5 134.5,324.5C 131.167,325.167 127.833,325.833 124.5,326.5C 124.5,327.5 124.5,328.5 124.5,329.5C 121.167,330.167 117.833,330.833 114.5,331.5C 114.52,333.143 113.853,334.476 112.5,335.5C 109.833,336.634 107.167,337.634 104.5,338.5C 104.5,339.5 104.5,340.5 104.5,341.5C 102.071,341.884 99.7373,342.551 97.5,343.5C 97.5,344.5 97.5,345.5 97.5,346.5C 93.513,346.011 91.1797,347.678 90.5,351.5C 87.5,351.833 85.8333,353.5 85.5,356.5C 77.5,359.833 71.8333,365.5 68.5,373.5C 65.5,373.833 63.8333,375.5 63.5,378.5C 62.5,378.5 61.5,378.5 60.5,378.5C 60.9886,382.487 59.322,384.82 55.5,385.5C 54.8333,388.833 54.1667,392.167 53.5,395.5C 52.5,395.5 51.5,395.5 50.5,395.5C 47.6475,405.458 45.3142,415.458 43.5,425.5C 45.3139,434.812 47.6473,444.145 50.5,453.5C 51.5,453.5 52.5,453.5 53.5,453.5C 53.6933,456.308 54.36,458.975 55.5,461.5C 56.5,461.5 57.5,461.5 58.5,461.5C 58.8844,463.929 59.551,466.263 60.5,468.5C 63.5,468.833 65.1667,470.5 65.5,473.5C 68.5,473.833 70.1667,475.5 70.5,478.5C 74.0743,479.96 77.4077,481.96 80.5,484.5C 81.8532,485.524 82.5198,486.857 82.5,488.5C 88.1694,489.831 93.1694,492.497 97.5,496.5C 99.0453,497.452 100.712,497.785 102.5,497.5C 102.5,498.5 102.5,499.5 102.5,500.5C 108.415,502.342 114.081,504.675 119.5,507.5C 119.5,508.5 119.5,509.5 119.5,510.5C 123.923,510.69 128.256,511.357 132.5,512.5C 132.5,513.5 132.5,514.5 132.5,515.5C 136.37,516.799 140.37,517.466 144.5,517.5C 144.5,518.5 144.5,519.5 144.5,520.5C 155.891,523.544 167.224,526.544 178.5,529.5C 178.5,530.5 178.5,531.5 178.5,532.5C 183.526,533.007 188.526,533.674 193.5,534.5C 193.5,535.5 193.5,536.5 193.5,537.5C 206.608,539.454 219.608,541.787 232.5,544.5C 232.5,545.5 232.5,546.5 232.5,547.5C 243.862,548.671 255.195,550.171 266.5,552C 266.957,552.414 267.291,552.914 267.5,553.5C 286.001,556.844 304.668,559.677 323.5,562C 324.308,562.308 324.975,562.808 325.5,563.5C 337.798,565.066 350.131,566.233 362.5,567C 362.957,567.414 363.291,567.914 363.5,568.5C 377.803,570.058 392.137,571.225 406.5,572C 406.957,572.414 407.291,572.914 407.5,573.5C 427.8,575.273 448.133,576.439 468.5,577C 470.808,578.936 473.475,579.769 476.5,579.5C 477.015,586.351 474.349,588.351 468.5,585.5C 442.837,584.222 417.171,583.056 391.5,582C 390.692,581.692 390.025,581.192 389.5,580.5C 373.171,579.247 356.838,578.081 340.5,577C 339.692,576.692 339.025,576.192 338.5,575.5C 318.713,573.74 299.046,571.907 279.5,570C 279.043,569.586 278.709,569.086 278.5,568.5C 259.475,566.746 240.808,564.079 222.5,560.5C 222.5,559.5 222.5,558.5 222.5,557.5C 215.09,557.399 207.756,556.565 200.5,555C 190.443,552.388 180.443,549.555 170.5,546.5C 164.856,545.237 159.189,544.237 153.5,543.5C 153.5,542.5 153.5,541.5 153.5,540.5C 148.433,540.151 143.433,539.318 138.5,538C 131.782,535.022 125.116,532.189 118.5,529.5C 116.257,528.526 113.924,528.192 111.5,528.5C 111.5,527.5 111.5,526.5 111.5,525.5C 108.167,524.833 104.833,524.167 101.5,523.5C 101.5,522.5 101.5,521.5 101.5,520.5C 98.1667,519.833 94.8333,519.167 91.5,518.5C 91.5,517.5 91.5,516.5 91.5,515.5C 86.8333,514.167 82.1667,512.833 77.5,511.5C 77.5,510.5 77.5,509.5 77.5,508.5C 74.9752,507.36 72.3085,506.693 69.5,506.5C 68.8203,502.678 66.487,501.011 62.5,501.5C 62.5,500.5 62.5,499.5 62.5,498.5C 59.5,498.167 57.8333,496.5 57.5,493.5C 55.1667,492.833 52.8333,492.167 50.5,491.5C 50.5,490.5 50.5,489.5 50.5,488.5C 47.8333,487.167 45.1667,485.833 42.5,484.5C 40.1524,480.158 37.819,475.825 35.5,471.5C 34.5,471.5 33.5,471.5 32.5,471.5C 32.9886,467.513 31.322,465.18 27.5,464.5C 25.6829,458.954 24.3495,453.288 23.5,447.5C 22.5,447.5 21.5,447.5 20.5,447.5C 19.5727,438.703 18.906,429.87 18.5,421C 18.906,412.13 19.5727,403.297 20.5,394.5C 21.5,394.5 22.5,394.5 23.5,394.5C 24.3495,388.712 25.6829,383.046 27.5,377.5C 28.5,377.5 29.5,377.5 30.5,377.5C 31.1667,374.167 31.8333,370.833 32.5,367.5C 33.5,367.5 34.5,367.5 35.5,367.5C 35.0114,363.513 36.678,361.18 40.5,360.5C 40.6933,357.692 41.36,355.025 42.5,352.5C 46.322,351.82 47.9886,349.487 47.5,345.5C 50.8333,343.167 54.1667,340.833 57.5,338.5C 57.8333,335.5 59.5,333.833 62.5,333.5C 62.8333,330.5 64.5,328.833 67.5,328.5C 67.8333,325.5 69.5,323.833 72.5,323.5C 72.8333,320.5 74.5,318.833 77.5,318.5C 78.9515,314.304 81.9515,311.971 86.5,311.5C 86.5,310.5 86.5,309.5 86.5,308.5C 89.5,308.167 91.1667,306.5 91.5,303.5C 94.3085,303.307 96.9752,302.64 99.5,301.5C 99.5,300.5 99.5,299.5 99.5,298.5C 101.737,297.551 104.071,296.884 106.5,296.5C 106.5,295.5 106.5,294.5 106.5,293.5C 110.171,293.798 112.837,292.298 114.5,289C 119.024,286.955 123.691,285.455 128.5,284.5C 128.5,283.5 128.5,282.5 128.5,281.5C 131.658,280.124 134.991,279.458 138.5,279.5C 138.5,278.5 138.5,277.5 138.5,276.5C 141.833,275.833 145.167,275.167 148.5,274.5C 148.5,273.5 148.5,272.5 148.5,271.5C 150.167,271.5 151.833,271.5 153.5,271.5C 153.936,268.636 153.103,266.303 151,264.5C 147.693,240.163 147.693,215.83 151,191.5C 151.414,191.043 151.914,190.709 152.5,190.5C 154.644,182.238 157.311,174.238 160.5,166.5C 161.5,166.5 162.5,166.5 163.5,166.5C 164.167,163.167 164.833,159.833 165.5,156.5C 166.5,156.5 167.5,156.5 168.5,156.5C 170.363,153.431 171.697,150.098 172.5,146.5C 173.5,146.5 174.5,146.5 175.5,146.5C 179.816,142.154 183.483,137.154 186.5,131.5C 188.179,129.896 190.179,129.229 192.5,129.5C 192.5,128.5 192.5,127.5 192.5,126.5C 195.5,126.167 197.167,124.5 197.5,121.5C 200.5,121.167 202.167,119.5 202.5,116.5C 204.737,115.551 207.071,114.884 209.5,114.5C 209.5,113.5 209.5,112.5 209.5,111.5C 212.167,110.634 214.833,109.634 217.5,108.5C 218.853,107.476 219.52,106.143 219.5,104.5C 222.833,103.833 226.167,103.167 229.5,102.5C 229.5,101.5 229.5,100.5 229.5,99.5C 235.735,96.0546 242.402,93.7212 249.5,92.5C 249.5,91.5 249.5,90.5 249.5,89.5C 254.474,88.6737 259.474,88.0071 264.5,87.5C 264.5,86.5 264.5,85.5 264.5,84.5C 279.645,83.069 294.811,81.7357 310,80.5C 330.17,81.9879 350.336,83.4879 370.5,85C 371.308,85.3076 371.975,85.8076 372.5,86.5C 385.455,88.1862 398.455,89.3529 411.5,90C 412.308,90.3076 412.975,90.8076 413.5,91.5C 425.148,92.4989 436.814,92.8322 448.5,92.5C 448.5,91.1667 448.5,89.8333 448.5,88.5C 447.5,88.5 446.5,88.5 445.5,88.5C 445.605,83.2423 444.938,78.0756 443.5,73C 445.024,67.2595 445.691,61.4262 445.5,55.5C 446.5,55.5 447.5,55.5 448.5,55.5C 449.167,52.1667 449.833,48.8333 450.5,45.5C 451.5,45.5 452.5,45.5 453.5,45.5C 453.884,43.0706 454.551,40.7373 455.5,38.5C 456.5,38.5 457.5,38.5 458.5,38.5C 458.833,35.5 460.5,33.8333 463.5,33.5C 463.5,32.5 463.5,31.5 463.5,30.5C 466.925,29.9452 469.925,28.4452 472.5,26C 491.92,18.4651 509.587,21.2984 525.5,34.5C 526.853,35.5237 527.52,36.857 527.5,38.5C 531.322,39.1797 532.989,41.513 532.5,45.5C 533.5,45.5 534.5,45.5 535.5,45.5C 537.928,51.3344 541.595,56.3344 546.5,60.5C 547.452,62.0453 547.785,63.712 547.5,65.5C 551.487,65.0114 553.82,66.678 554.5,70.5C 557.856,70.8505 560.856,70.0171 563.5,68C 583.5,67.3333 603.5,67.3333 623.5,68C 639.388,70.8885 655.055,74.0552 670.5,77.5C 670.5,78.5 670.5,79.5 670.5,80.5C 677.833,81.8333 685.167,83.1667 692.5,84.5C 692.5,85.5 692.5,86.5 692.5,87.5C 696.573,87.8079 700.573,88.4746 704.5,89.5C 704.5,90.5 704.5,91.5 704.5,92.5C 707.247,92.1866 709.914,92.52 712.5,93.5C 717.911,96.1972 723.577,98.1972 729.5,99.5C 729.5,100.5 729.5,101.5 729.5,102.5C 732.833,103.167 736.167,103.833 739.5,104.5C 739.5,105.5 739.5,106.5 739.5,107.5C 744.238,108.596 748.905,109.929 753.5,111.5C 753.5,112.5 753.5,113.5 753.5,114.5C 756.025,115.64 758.692,116.307 761.5,116.5C 761.5,117.5 761.5,118.5 761.5,119.5C 763.929,119.884 766.263,120.551 768.5,121.5C 768.5,122.5 768.5,123.5 768.5,124.5C 772.567,125.341 775.901,127.341 778.5,130.5C 779.325,131.386 780.325,131.719 781.5,131.5C 782.833,134.167 784.167,136.833 785.5,139.5C 787.143,139.48 788.476,140.147 789.5,141.5C 790.474,143.743 790.808,146.076 790.5,148.5C 791.5,148.5 792.5,148.5 793.5,148.5C 793.5,152.167 793.5,155.833 793.5,159.5C 792.5,159.5 791.5,159.5 790.5,159.5C 790.989,163.487 789.322,165.82 785.5,166.5C 783.716,172.069 781.383,177.402 778.5,182.5C 786.003,186 793.003,190.333 799.5,195.5C 800.386,196.325 800.719,197.325 800.5,198.5C 805.506,198.612 808.839,200.946 810.5,205.5C 814.487,205.011 816.82,206.678 817.5,210.5C 820.5,210.833 822.167,212.5 822.5,215.5C 823.978,215.238 825.311,215.571 826.5,216.5C 827.374,218.747 827.708,221.08 827.5,223.5C 822.892,221.648 818.558,219.315 814.5,216.5C 814.5,215.5 814.5,214.5 814.5,213.5C 810.513,213.989 808.18,212.322 807.5,208.5C 804.975,207.36 802.308,206.693 799.5,206.5C 799.5,205.5 799.5,204.5 799.5,203.5C 795.513,203.989 793.18,202.322 792.5,198.5C 789.167,197.833 785.833,197.167 782.5,196.5C 782.5,195.5 782.5,194.5 782.5,193.5C 779.979,193.56 777.646,192.894 775.5,191.5C 774.833,191.833 774.167,192.167 773.5,192.5C 778.36,196.184 783.36,199.518 788.5,202.5C 788.833,205.5 790.5,207.167 793.5,207.5C 793.833,210.5 795.5,212.167 798.5,212.5C 798.833,215.5 800.5,217.167 803.5,217.5C 803.833,220.5 805.5,222.167 808.5,222.5C 810.739,225.427 812.072,228.761 812.5,232.5C 807.494,232.388 804.161,230.054 802.5,225.5C 797.291,222.964 792.957,219.298 789.5,214.5C 787.242,213.201 784.908,212.201 782.5,211.5C 781.82,207.678 779.487,206.011 775.5,206.5C 775.5,205.5 775.5,204.5 775.5,203.5C 767.386,199.282 766.72,200.282 773.5,206.5C 774.325,207.386 775.325,207.719 776.5,207.5C 777.64,210.025 778.307,212.692 778.5,215.5C 783.054,217.161 785.388,220.494 785.5,225.5C 789.322,226.18 790.989,228.513 790.5,232.5C 794.34,233.542 794.174,234.542 790,235.5C 787.237,234.907 785.737,233.24 785.5,230.5C 781.678,229.82 780.011,227.487 780.5,223.5C 777.5,223.167 775.833,221.5 775.5,218.5C 772.5,218.167 770.833,216.5 770.5,213.5C 767.314,211.989 764.148,210.323 761,208.5C 760.167,208.833 759.333,209.167 758.5,209.5C 762.2,210.924 763.866,213.591 763.5,217.5C 764.5,217.5 765.5,217.5 766.5,217.5C 767.167,220.833 767.833,224.167 768.5,227.5C 769.5,227.5 770.5,227.5 771.5,227.5C 772.643,231.744 773.31,236.077 773.5,240.5C 771.418,240.528 769.584,239.861 768,238.5C 766.39,236.061 765.556,233.394 765.5,230.5C 764.5,230.5 763.5,230.5 762.5,230.5C 761.167,226.5 759.833,222.5 758.5,218.5C 755.5,218.167 753.833,216.5 753.5,213.5C 751.167,213.5 748.833,213.5 746.5,213.5C 746.5,214.5 746.5,215.5 746.5,216.5C 744.833,216.5 743.167,216.5 741.5,216.5C 741.808,218.924 741.474,221.257 740.5,223.5C 739.476,224.853 738.143,225.52 736.5,225.5C 736.5,226.5 736.5,227.5 736.5,228.5C 732.513,228.011 730.18,229.678 729.5,233.5C 727.167,233.5 724.833,233.5 722.5,233.5C 723.437,248.873 724.771,264.206 726.5,279.5C 727.5,279.5 728.5,279.5 729.5,279.5C 730.326,284.474 730.993,289.474 731.5,294.5C 732.5,294.5 733.5,294.5 734.5,294.5C 734.5,296.167 734.5,297.833 734.5,299.5C 727.679,299.732 725.013,296.399 726.5,289.5C 725.5,289.5 724.5,289.5 723.5,289.5C 722.475,285.573 721.808,281.573 721.5,277.5C 720.5,277.5 719.5,277.5 718.5,277.5C 718.035,270.441 717.035,263.441 715.5,256.5C 714.914,256.291 714.414,255.957 714,255.5C 713.667,248.833 713.333,242.167 713,235.5C 712.667,238.167 712.333,240.833 712,243.5C 711.586,243.957 711.086,244.291 710.5,244.5C 709.167,257.833 709.167,271.167 710.5,284.5C 711.192,285.025 711.692,285.692 712,286.5C 712.401,296.998 714.734,306.998 719,316.5C 719.497,319.146 719.664,321.813 719.5,324.5C 718.07,324.579 716.736,324.246 715.5,323.5C 712.075,320.238 710.742,316.238 711.5,311.5C 710.5,311.5 709.5,311.5 708.5,311.5C 707.445,305.889 706.779,300.222 706.5,294.5C 705.5,294.5 704.5,294.5 703.5,294.5C 702.074,278.316 701.074,261.983 700.5,245.5C 696.184,275.863 695.851,306.196 699.5,336.5C 697.833,336.5 696.167,336.5 694.5,336.5C 694.998,333.319 694.165,330.653 692,328.5C 689.772,300.887 688.939,273.22 689.5,245.5 Z M 648.5,107.5 C 651.5,107.5 654.5,107.5 657.5,107.5C 657.44,110.021 658.106,112.354 659.5,114.5C 658.453,116.056 657.786,117.723 657.5,119.5C 655.535,120.129 653.535,120.796 651.5,121.5C 649.465,120.796 647.465,120.129 645.5,119.5C 645.5,116.5 645.5,113.5 645.5,110.5C 646.5,110.5 647.5,110.5 648.5,110.5C 648.5,109.5 648.5,108.5 648.5,107.5 Z M 689.5,245.5 C 690.148,243.914 690.648,242.247 691,240.5C 691.167,241.333 691.333,242.167 691.5,243C 691.316,244.376 690.649,245.209 689.5,245.5 Z"/></g>
<g><path style="opacity:1" fill="#552959" d="M 365.5,117.5 C 361.884,116.73 358.217,116.064 354.5,115.5C 351.378,115.851 348.378,116.518 345.5,117.5C 345.5,116.5 345.5,115.5 345.5,114.5C 352.167,114.5 358.833,114.5 365.5,114.5C 365.5,115.5 365.5,116.5 365.5,117.5 Z"/></g>
<g><path style="opacity:1" fill="#904697" d="M 365.5,117.5 C 367.658,118.494 369.658,119.828 371.5,121.5C 372.785,129.256 372.452,136.922 370.5,144.5C 368.821,144.285 367.821,144.952 367.5,146.5C 365.833,146.5 364.167,146.5 362.5,146.5C 362.5,147.5 362.5,148.5 362.5,149.5C 360.833,149.5 359.167,149.5 357.5,149.5C 355.167,149.5 352.833,149.5 350.5,149.5C 349.5,149.5 348.5,149.5 347.5,149.5C 347.5,148.5 347.5,147.5 347.5,146.5C 346.167,146.5 344.833,146.5 343.5,146.5C 343.446,144.368 342.446,143.035 340.5,142.5C 338.455,136.64 338.122,130.64 339.5,124.5C 339.935,120.657 341.935,118.324 345.5,117.5C 348.378,116.518 351.378,115.851 354.5,115.5C 358.217,116.064 361.884,116.73 365.5,117.5 Z"/></g>
<g><path style="opacity:0.956" fill="#020101" d="M 343.5,146.5 C 344.833,146.5 346.167,146.5 347.5,146.5C 347.5,147.5 347.5,148.5 347.5,149.5C 346.135,151.591 345.468,153.924 345.5,156.5C 344.5,156.5 343.5,156.5 342.5,156.5C 341.107,164.217 338.774,171.55 335.5,178.5C 334.5,178.5 333.5,178.5 332.5,178.5C 329.69,186.933 326.69,195.267 323.5,203.5C 322.5,203.5 321.5,203.5 320.5,203.5C 319.652,208.954 317.652,213.954 314.5,218.5C 313.526,220.743 313.192,223.076 313.5,225.5C 312.5,225.5 311.5,225.5 310.5,225.5C 310.532,228.076 309.865,230.409 308.5,232.5C 303.69,230.407 298.69,230.073 293.5,231.5C 292.147,232.524 291.48,233.857 291.5,235.5C 289.833,235.5 288.167,235.5 286.5,235.5C 286.727,238.438 285.727,240.771 283.5,242.5C 282.2,244.223 281.533,246.39 281.5,249C 281.533,251.61 282.2,253.777 283.5,255.5C 283.5,256.833 283.5,258.167 283.5,259.5C 284.5,259.5 285.5,259.5 286.5,259.5C 286.833,262.5 288.5,264.167 291.5,264.5C 291.5,265.5 291.5,266.5 291.5,267.5C 293.833,267.5 296.167,267.5 298.5,267.5C 300.112,277.435 302.612,287.101 306,296.5C 307.795,305.476 309.462,314.476 311,323.5C 312.982,330.929 315.149,338.263 317.5,345.5C 319.372,352.727 320.372,360.06 320.5,367.5C 321.5,367.5 322.5,367.5 323.5,367.5C 323.5,368.5 323.5,369.5 323.5,370.5C 320.167,372.167 316.833,373.833 313.5,375.5C 313.5,376.5 313.5,377.5 313.5,378.5C 310.236,380.472 308.569,383.472 308.5,387.5C 308.637,390.608 309.637,393.275 311.5,395.5C 313.131,399.121 315.465,402.121 318.5,404.5C 319.091,405.151 319.757,405.818 320.5,406.5C 324.833,407.833 329.167,407.833 333.5,406.5C 334.243,405.818 334.909,405.151 335.5,404.5C 336.675,404.719 337.675,404.386 338.5,403.5C 346.015,395.475 347.348,386.475 342.5,376.5C 341.311,375.571 339.978,375.238 338.5,375.5C 338.5,374.5 338.5,373.5 338.5,372.5C 334.256,371.357 329.923,370.69 325.5,370.5C 324.938,363.124 323.938,355.791 322.5,348.5C 319.943,339.557 317.277,330.557 314.5,321.5C 310.961,303.469 307.294,285.469 303.5,267.5C 306.438,267.727 308.771,266.727 310.5,264.5C 312.279,263.33 313.279,261.664 313.5,259.5C 315.143,259.52 316.476,258.853 317.5,257.5C 317.833,255 318.167,252.5 318.5,250C 318.048,245.767 317.381,241.6 316.5,237.5C 315.5,237.5 314.5,237.5 313.5,237.5C 313.5,236.833 313.5,236.167 313.5,235.5C 314.522,227.451 317.522,220.118 322.5,213.5C 324.11,210.316 325.11,206.983 325.5,203.5C 326.5,203.5 327.5,203.5 328.5,203.5C 328.724,197.821 330.724,192.821 334.5,188.5C 335.474,186.257 335.808,183.924 335.5,181.5C 336.5,181.5 337.5,181.5 338.5,181.5C 340.401,174.63 342.734,167.963 345.5,161.5C 346.5,161.5 347.5,161.5 348.5,161.5C 349.525,157.573 350.192,153.573 350.5,149.5C 352.833,149.5 355.167,149.5 357.5,149.5C 357.821,151.048 358.821,151.715 360.5,151.5C 361.062,158.876 362.062,166.209 363.5,173.5C 369.443,195.63 374.443,217.964 378.5,240.5C 379.491,244.445 379.824,248.445 379.5,252.5C 380.5,252.5 381.5,252.5 382.5,252.5C 386.076,266.92 388.409,281.586 389.5,296.5C 390.5,296.5 391.5,296.5 392.5,296.5C 393.007,301.526 393.674,306.526 394.5,311.5C 392.842,314.457 390.509,316.79 387.5,318.5C 384.907,323.03 383.907,328.03 384.5,333.5C 385.5,333.5 386.5,333.5 387.5,333.5C 391.663,342.927 398.996,346.927 409.5,345.5C 410.82,350.131 412.82,354.464 415.5,358.5C 416.474,360.743 416.808,363.076 416.5,365.5C 417.5,365.5 418.5,365.5 419.5,365.5C 422.076,372.787 424.743,380.12 427.5,387.5C 428.48,390.086 428.813,392.753 428.5,395.5C 429.5,395.5 430.5,395.5 431.5,395.5C 432.525,399.427 433.192,403.427 433.5,407.5C 434.5,407.5 435.5,407.5 436.5,407.5C 437.167,410.833 437.833,414.167 438.5,417.5C 439.5,417.5 440.5,417.5 441.5,417.5C 442.525,421.427 443.192,425.427 443.5,429.5C 444.5,429.5 445.5,429.5 446.5,429.5C 447.612,434.767 449.278,439.767 451.5,444.5C 451.179,446.048 450.179,446.715 448.5,446.5C 448.169,448.322 447.502,449.989 446.5,451.5C 445.849,452.091 445.182,452.757 444.5,453.5C 443.508,457.783 443.174,462.116 443.5,466.5C 444.5,466.5 445.5,466.5 446.5,466.5C 446.5,467.167 446.5,467.833 446.5,468.5C 446.833,471.5 448.5,473.167 451.5,473.5C 451.5,474.5 451.5,475.5 451.5,476.5C 455.116,477.27 458.783,477.936 462.5,478.5C 466.217,477.936 469.884,477.27 473.5,476.5C 473.5,475.5 473.5,474.5 473.5,473.5C 475.011,472.498 476.678,471.831 478.5,471.5C 479.381,467.4 480.048,463.233 480.5,459C 480.627,450.636 476.627,445.802 468.5,444.5C 468.5,443.5 468.5,442.5 468.5,441.5C 463.5,441.5 458.5,441.5 453.5,441.5C 452.475,437.573 451.808,433.573 451.5,429.5C 450.5,429.5 449.5,429.5 448.5,429.5C 446.635,421.987 444.302,414.654 441.5,407.5C 440.5,407.5 439.5,407.5 438.5,407.5C 435.477,397.468 432.477,387.468 429.5,377.5C 428.5,377.5 427.5,377.5 426.5,377.5C 425.475,373.573 424.808,369.573 424.5,365.5C 423.5,365.5 422.5,365.5 421.5,365.5C 419.635,357.987 417.302,350.654 414.5,343.5C 415.502,341.989 416.169,340.322 416.5,338.5C 418.143,338.52 419.476,337.853 420.5,336.5C 421.833,330.5 421.833,324.5 420.5,318.5C 419.476,317.147 418.143,316.48 416.5,316.5C 415.82,312.678 413.487,311.011 409.5,311.5C 409.5,310.5 409.5,309.5 409.5,308.5C 405.5,308.5 401.5,308.5 397.5,308.5C 394.743,289.566 390.576,270.9 385,252.5C 383.549,242.463 381.883,232.463 380,222.5C 376.907,214.863 375.407,206.863 375.5,198.5C 374.5,198.5 373.5,198.5 372.5,198.5C 371.995,191.805 371.162,185.138 370,178.5C 367.176,168.867 364.676,159.201 362.5,149.5C 362.5,148.5 362.5,147.5 362.5,146.5C 364.167,146.5 365.833,146.5 367.5,146.5C 367.5,147.5 367.5,148.5 367.5,149.5C 370.833,151.833 374.167,154.167 377.5,156.5C 377.833,159.5 379.5,161.167 382.5,161.5C 382.833,164.5 384.5,166.167 387.5,166.5C 389.833,169.833 392.167,173.167 394.5,176.5C 397.833,178.833 401.167,181.167 404.5,183.5C 404.833,186.5 406.5,188.167 409.5,188.5C 409.833,191.5 411.5,193.167 414.5,193.5C 414.833,196.5 416.5,198.167 419.5,198.5C 420.694,201.705 422.694,204.371 425.5,206.5C 426.799,208.758 427.799,211.092 428.5,213.5C 432.576,214.32 435.243,216.653 436.5,220.5C 439.833,222.833 443.167,225.167 446.5,227.5C 446.833,230.5 448.5,232.167 451.5,232.5C 451.833,235.5 453.5,237.167 456.5,237.5C 457.768,240.43 459.434,243.097 461.5,245.5C 460.617,250.103 460.283,254.77 460.5,259.5C 461.5,259.5 462.5,259.5 463.5,259.5C 463.693,262.308 464.36,264.975 465.5,267.5C 467.322,267.831 468.989,268.498 470.5,269.5C 470.5,270.5 470.5,271.5 470.5,272.5C 477.39,273.04 484.056,272.373 490.5,270.5C 492.056,271.547 493.723,272.214 495.5,272.5C 496.502,274.011 497.169,275.678 497.5,277.5C 500.167,278.833 502.833,280.167 505.5,281.5C 505.5,282.5 505.5,283.5 505.5,284.5C 506.978,284.238 508.311,284.571 509.5,285.5C 511.559,286.951 512.559,288.951 512.5,291.5C 513.5,291.5 514.5,291.5 515.5,291.5C 516.833,294.167 518.167,296.833 519.5,299.5C 523.576,300.32 526.243,302.653 527.5,306.5C 530.833,308.167 534.167,309.833 537.5,311.5C 537.281,312.675 537.614,313.675 538.5,314.5C 541.833,316.5 544.5,319.167 546.5,322.5C 547.325,323.386 548.325,323.719 549.5,323.5C 549.833,326.5 551.5,328.167 554.5,328.5C 554.833,331.5 556.5,333.167 559.5,333.5C 559.833,336.5 561.5,338.167 564.5,338.5C 566.833,341.833 569.167,345.167 571.5,348.5C 574.833,350.833 578.167,353.167 581.5,355.5C 581.833,358.5 583.5,360.167 586.5,360.5C 588.833,363.833 591.167,367.167 593.5,370.5C 596.5,370.833 598.167,372.5 598.5,375.5C 601.5,375.833 603.167,377.5 603.5,380.5C 605.698,381.014 607.698,382.014 609.5,383.5C 612.358,386.945 615.691,389.945 619.5,392.5C 620.386,393.325 620.719,394.325 620.5,395.5C 621.5,395.5 622.5,395.5 623.5,395.5C 623.5,397.833 623.5,400.167 623.5,402.5C 622.5,402.5 621.5,402.5 620.5,402.5C 620.5,406.5 620.5,410.5 620.5,414.5C 621.5,414.5 622.5,414.5 623.5,414.5C 624.64,417.025 625.307,419.692 625.5,422.5C 622.5,422.5 619.5,422.5 616.5,422.5C 616.5,423.5 616.5,424.5 616.5,425.5C 614.5,425.5 612.5,425.5 610.5,425.5C 610.5,424.5 610.5,423.5 610.5,422.5C 608.833,422.5 607.167,422.5 605.5,422.5C 604.454,414.394 603.121,406.394 601.5,398.5C 594.726,393.726 587.393,390.226 579.5,388C 574.076,384.676 568.076,383.176 561.5,383.5C 561.5,382.5 561.5,381.5 561.5,380.5C 551.167,380.5 540.833,380.5 530.5,380.5C 530.5,381.5 530.5,382.5 530.5,383.5C 527.102,383.18 523.768,383.513 520.5,384.5C 515.18,387.254 509.513,389.254 503.5,390.5C 503.5,391.5 503.5,392.5 503.5,393.5C 499.167,394.833 494.833,396.167 490.5,397.5C 489.167,400.167 487.833,402.833 486.5,405.5C 483.5,405.833 481.833,407.5 481.5,410.5C 480.5,410.5 479.5,410.5 478.5,410.5C 477.833,413.833 477.167,417.167 476.5,420.5C 475.5,420.5 474.5,420.5 473.5,420.5C 473.5,425.833 473.5,431.167 473.5,436.5C 476.629,439.038 479.962,441.372 483.5,443.5C 483.5,444.5 483.5,445.5 483.5,446.5C 486.833,447.167 490.167,447.833 493.5,448.5C 493.5,449.5 493.5,450.5 493.5,451.5C 498.167,451.5 502.833,451.5 507.5,451.5C 507.5,450.5 507.5,449.5 507.5,448.5C 510.167,448.5 512.833,448.5 515.5,448.5C 515.5,449.5 515.5,450.5 515.5,451.5C 519.427,452.525 523.427,453.192 527.5,453.5C 527.5,454.5 527.5,455.5 527.5,456.5C 530.247,456.187 532.914,456.52 535.5,457.5C 536.853,458.524 537.52,459.857 537.5,461.5C 544.107,464.363 548.107,469.363 549.5,476.5C 546.692,476.307 544.025,475.64 541.5,474.5C 541.5,473.5 541.5,472.5 541.5,471.5C 539.396,471.201 537.396,471.534 535.5,472.5C 534.91,473.799 533.91,474.632 532.5,475C 533.416,475.374 534.25,475.874 535,476.5C 536.557,479.666 537.39,483 537.5,486.5C 533.124,485.141 529.291,482.807 526,479.5C 522.598,480.789 518.931,481.456 515,481.5C 510.01,481.4 505.177,480.567 500.5,479C 499.126,475.59 498.459,475.757 498.5,479.5C 495.5,479.833 493.833,481.5 493.5,484.5C 491.143,484.337 488.81,484.503 486.5,485C 488.43,490.874 489.097,497.04 488.5,503.5C 486.5,503.5 484.5,503.5 482.5,503.5C 482.5,501.167 482.5,498.833 482.5,496.5C 480.167,496.5 477.833,496.5 475.5,496.5C 475.5,495.5 475.5,494.5 475.5,493.5C 473.833,493.5 472.167,493.5 470.5,493.5C 469.273,490.063 467.273,487.063 464.5,484.5C 456.874,488.12 448.874,489.12 440.5,487.5C 435.483,483.455 433.149,478.122 433.5,471.5C 433.962,466.969 434.629,462.469 435.5,458C 434.737,453.448 433.737,448.948 432.5,444.5C 431.476,443.147 430.143,442.48 428.5,442.5C 427.82,438.678 425.487,437.011 421.5,437.5C 421.5,436.5 421.5,435.5 421.5,434.5C 405.224,432.845 388.891,432.178 372.5,432.5C 372.5,431.5 372.5,430.5 372.5,429.5C 359.072,429.039 345.739,427.706 332.5,425.5C 332.5,424.5 332.5,423.5 332.5,422.5C 327.793,421.99 323.127,421.157 318.5,420C 313.672,416.899 308.672,414.066 303.5,411.5C 301.955,410.548 300.288,410.215 298.5,410.5C 298.5,409.5 298.5,408.5 298.5,407.5C 295.692,407.307 293.025,406.64 290.5,405.5C 290.5,404.5 290.5,403.5 290.5,402.5C 288.071,402.116 285.737,401.449 283.5,400.5C 283.5,399.5 283.5,398.5 283.5,397.5C 280.074,397.728 277.407,396.395 275.5,393.5C 275.167,395 274.833,396.5 274.5,398C 276.888,407.425 279.221,416.925 281.5,426.5C 282.5,426.5 283.5,426.5 284.5,426.5C 285.167,429.833 285.833,433.167 286.5,436.5C 289.025,437.64 291.692,438.307 294.5,438.5C 294.5,439.5 294.5,440.5 294.5,441.5C 300.187,442.024 305.854,442.69 311.5,443.5C 311.5,444.5 311.5,445.5 311.5,446.5C 314.833,447.167 318.167,447.833 321.5,448.5C 322.18,452.322 324.513,453.989 328.5,453.5C 328.5,454.5 328.5,455.5 328.5,456.5C 329.5,456.5 330.5,456.5 331.5,456.5C 331.652,460.469 333.152,463.803 336,466.5C 336.667,469.833 336.667,473.167 336,476.5C 334.62,479.058 333.12,479.058 331.5,476.5C 330.548,474.955 330.215,473.288 330.5,471.5C 323.33,469.729 315.996,469.062 308.5,469.5C 308.719,468.325 308.386,467.325 307.5,466.5C 306.502,474.807 306.169,483.14 306.5,491.5C 304.5,491.5 302.5,491.5 300.5,491.5C 300.542,487.991 299.876,484.658 298.5,481.5C 293.882,481.677 289.382,481.01 285,479.5C 282.7,479.678 280.866,480.678 279.5,482.5C 280.694,484.623 281.36,486.957 281.5,489.5C 281.149,492.622 280.482,495.622 279.5,498.5C 277.857,498.48 276.524,499.147 275.5,500.5C 275.167,500.167 274.833,499.833 274.5,499.5C 273.561,495.235 273.228,490.902 273.5,486.5C 269.648,486.519 265.981,485.686 262.5,484C 261.794,481.417 260.461,479.25 258.5,477.5C 254.821,476.401 251.154,475.401 247.5,474.5C 247.989,478.487 246.322,480.82 242.5,481.5C 242.52,483.143 241.853,484.476 240.5,485.5C 235.632,487.028 230.965,486.695 226.5,484.5C 224.248,486.297 223.248,488.63 223.5,491.5C 220.839,492.159 218.506,493.492 216.5,495.5C 215.808,494.975 215.308,494.308 215,493.5C 214.502,490.183 214.335,486.85 214.5,483.5C 215.5,483.5 216.5,483.5 217.5,483.5C 217.187,480.753 217.52,478.086 218.5,475.5C 219.524,474.147 220.857,473.48 222.5,473.5C 222.833,470.5 224.5,468.833 227.5,468.5C 227.89,465.017 228.89,461.684 230.5,458.5C 231.524,457.147 232.857,456.48 234.5,456.5C 234.5,455.5 234.5,454.5 234.5,453.5C 238.487,453.989 240.82,452.322 241.5,448.5C 242.5,448.5 243.5,448.5 244.5,448.5C 245.209,449.404 246.209,449.737 247.5,449.5C 249.058,452.729 250.392,456.062 251.5,459.5C 254.025,460.64 256.692,461.307 259.5,461.5C 260.694,462.777 262.36,463.444 264.5,463.5C 266.64,463.444 268.306,462.777 269.5,461.5C 273.487,461.989 275.82,460.322 276.5,456.5C 279.5,456.167 281.167,454.5 281.5,451.5C 283.931,450.393 284.931,448.393 284.5,445.5C 284.931,442.607 283.931,440.607 281.5,439.5C 281.5,437.833 281.5,436.167 281.5,434.5C 279.833,434.5 278.167,434.5 276.5,434.5C 276.5,432.833 276.5,431.167 276.5,429.5C 270.281,427.994 263.948,427.327 257.5,427.5C 257.5,426.5 257.5,425.5 257.5,424.5C 256.5,424.5 255.5,424.5 254.5,424.5C 254.728,419.964 253.395,415.964 250.5,412.5C 249.488,408.117 248.321,403.784 247,399.5C 246.02,398.019 244.853,396.685 243.5,395.5C 238.819,383.963 234.485,372.297 230.5,360.5C 229.5,360.5 228.5,360.5 227.5,360.5C 227.808,358.076 227.474,355.743 226.5,353.5C 223.348,348.954 221.348,343.954 220.5,338.5C 219.5,338.5 218.5,338.5 217.5,338.5C 217.542,334.991 216.876,331.658 215.5,328.5C 217.207,326.985 219.207,325.652 221.5,324.5C 223.033,322.711 224.033,320.711 224.5,318.5C 226.179,318.715 227.179,318.048 227.5,316.5C 228.5,316.5 229.5,316.5 230.5,316.5C 230.666,312.486 230.499,308.486 230,304.5C 229.764,302.881 228.931,301.881 227.5,301.5C 226.414,297.988 224.081,295.655 220.5,294.5C 220.5,293.5 220.5,292.5 220.5,291.5C 221.502,289.989 222.169,288.322 222.5,286.5C 225.187,285.664 227.52,284.164 229.5,282C 233.105,278.258 236.105,274.091 238.5,269.5C 239.524,268.147 240.857,267.48 242.5,267.5C 243.449,265.263 244.116,262.929 244.5,260.5C 245.5,260.5 246.5,260.5 247.5,260.5C 247.833,257.5 249.5,255.833 252.5,255.5C 253.001,252.822 254.501,250.822 257,249.5C 257.856,247.132 258.69,244.798 259.5,242.5C 262.833,240.167 266.167,237.833 269.5,235.5C 272.482,228.866 276.816,223.199 282.5,218.5C 283.749,215.582 285.415,212.915 287.5,210.5C 288.524,209.147 289.857,208.48 291.5,208.5C 291.833,205.5 293.5,203.833 296.5,203.5C 296.5,201.833 296.5,200.167 296.5,198.5C 299.833,196.167 303.167,193.833 306.5,191.5C 307.64,188.975 308.307,186.308 308.5,183.5C 311.5,183.167 313.167,181.5 313.5,178.5C 315.143,178.52 316.476,177.853 317.5,176.5C 320.04,173.408 322.04,170.074 323.5,166.5C 325.143,166.52 326.476,165.853 327.5,164.5C 330.955,160.577 333.622,156.244 335.5,151.5C 338.5,151.167 340.167,149.5 340.5,146.5C 341.5,146.5 342.5,146.5 343.5,146.5 Z"/></g>
<g><path style="opacity:1" fill="#8c8b8b" d="M 347.5,149.5 C 348.5,149.5 349.5,149.5 350.5,149.5C 350.192,153.573 349.525,157.573 348.5,161.5C 347.5,161.5 346.5,161.5 345.5,161.5C 342.734,167.963 340.401,174.63 338.5,181.5C 337.5,181.5 336.5,181.5 335.5,181.5C 335.808,183.924 335.474,186.257 334.5,188.5C 330.724,192.821 328.724,197.821 328.5,203.5C 327.5,203.5 326.5,203.5 325.5,203.5C 325.11,206.983 324.11,210.316 322.5,213.5C 317.522,220.118 314.522,227.451 313.5,235.5C 311.585,235.784 309.919,235.451 308.5,234.5C 308.5,233.833 308.5,233.167 308.5,232.5C 309.865,230.409 310.532,228.076 310.5,225.5C 311.5,225.5 312.5,225.5 313.5,225.5C 313.192,223.076 313.526,220.743 314.5,218.5C 317.652,213.954 319.652,208.954 320.5,203.5C 321.5,203.5 322.5,203.5 323.5,203.5C 326.69,195.267 329.69,186.933 332.5,178.5C 333.5,178.5 334.5,178.5 335.5,178.5C 338.774,171.55 341.107,164.217 342.5,156.5C 343.5,156.5 344.5,156.5 345.5,156.5C 345.468,153.924 346.135,151.591 347.5,149.5 Z"/></g>
<g><path style="opacity:1" fill="#8f8f8f" d="M 370.5,144.5 C 371.502,146.011 372.169,147.678 372.5,149.5C 375.5,149.833 377.167,151.5 377.5,154.5C 378.675,154.281 379.675,154.614 380.5,155.5C 382.5,158.833 385.167,161.5 388.5,163.5C 389.386,164.325 389.719,165.325 389.5,166.5C 392.5,166.833 394.167,168.5 394.5,171.5C 397.5,171.833 399.167,173.5 399.5,176.5C 402.5,176.833 404.167,178.5 404.5,181.5C 407.833,183.833 411.167,186.167 414.5,188.5C 416.833,191.833 419.167,195.167 421.5,198.5C 424.833,200.833 428.167,203.167 431.5,205.5C 432.838,210.668 435.838,214.668 440.5,217.5C 441.386,218.325 441.719,219.325 441.5,220.5C 444.833,222.833 448.167,225.167 451.5,227.5C 451.833,230.5 453.5,232.167 456.5,232.5C 457.833,235.167 459.167,237.833 460.5,240.5C 462.179,240.285 463.179,240.952 463.5,242.5C 463.5,243.5 463.5,244.5 463.5,245.5C 462.833,245.5 462.167,245.5 461.5,245.5C 459.434,243.097 457.768,240.43 456.5,237.5C 453.5,237.167 451.833,235.5 451.5,232.5C 448.5,232.167 446.833,230.5 446.5,227.5C 443.167,225.167 439.833,222.833 436.5,220.5C 435.243,216.653 432.576,214.32 428.5,213.5C 427.799,211.092 426.799,208.758 425.5,206.5C 422.694,204.371 420.694,201.705 419.5,198.5C 416.5,198.167 414.833,196.5 414.5,193.5C 411.5,193.167 409.833,191.5 409.5,188.5C 406.5,188.167 404.833,186.5 404.5,183.5C 401.167,181.167 397.833,178.833 394.5,176.5C 392.167,173.167 389.833,169.833 387.5,166.5C 384.5,166.167 382.833,164.5 382.5,161.5C 379.5,161.167 377.833,159.5 377.5,156.5C 374.167,154.167 370.833,151.833 367.5,149.5C 367.5,148.5 367.5,147.5 367.5,146.5C 367.821,144.952 368.821,144.285 370.5,144.5 Z"/></g>
<g><path style="opacity:1" fill="#8e4f1b" d="M 308.5,232.5 C 308.5,233.167 308.5,233.833 308.5,234.5C 302.657,232.866 296.991,233.199 291.5,235.5C 291.48,233.857 292.147,232.524 293.5,231.5C 298.69,230.073 303.69,230.407 308.5,232.5 Z"/></g>
<g><path style="opacity:1" fill="#e7802c" d="M 308.5,234.5 C 309.919,235.451 311.585,235.784 313.5,235.5C 313.5,236.167 313.5,236.833 313.5,237.5C 316.097,244.874 316.097,252.207 313.5,259.5C 313.279,261.664 312.279,263.33 310.5,264.5C 306.605,264.706 302.771,265.373 299,266.5C 296.397,266.035 293.897,265.368 291.5,264.5C 288.5,264.167 286.833,262.5 286.5,259.5C 285.5,259.5 284.5,259.5 283.5,259.5C 283.5,258.167 283.5,256.833 283.5,255.5C 283.5,251.167 283.5,246.833 283.5,242.5C 285.727,240.771 286.727,238.438 286.5,235.5C 288.167,235.5 289.833,235.5 291.5,235.5C 296.991,233.199 302.657,232.866 308.5,234.5 Z"/></g>
<g><path style="opacity:1" fill="#898988" d="M 357.5,149.5 C 359.167,149.5 360.833,149.5 362.5,149.5C 364.676,159.201 367.176,168.867 370,178.5C 371.162,185.138 371.995,191.805 372.5,198.5C 373.5,198.5 374.5,198.5 375.5,198.5C 375.407,206.863 376.907,214.863 380,222.5C 381.883,232.463 383.549,242.463 385,252.5C 390.576,270.9 394.743,289.566 397.5,308.5C 397.5,309.5 397.5,310.5 397.5,311.5C 396.5,311.5 395.5,311.5 394.5,311.5C 393.674,306.526 393.007,301.526 392.5,296.5C 391.5,296.5 390.5,296.5 389.5,296.5C 388.409,281.586 386.076,266.92 382.5,252.5C 381.5,252.5 380.5,252.5 379.5,252.5C 379.824,248.445 379.491,244.445 378.5,240.5C 374.443,217.964 369.443,195.63 363.5,173.5C 362.062,166.209 361.062,158.876 360.5,151.5C 358.821,151.715 357.821,151.048 357.5,149.5 Z"/></g>
<g><path style="opacity:1" fill="#20998f" d="M 493.5,267.5 C 491.821,267.285 490.821,267.952 490.5,269.5C 483.815,272.059 477.148,272.059 470.5,269.5C 468.989,268.498 467.322,267.831 465.5,267.5C 464.36,264.975 463.693,262.308 463.5,259.5C 463.5,254.833 463.5,250.167 463.5,245.5C 463.5,244.5 463.5,243.5 463.5,242.5C 465.011,241.498 466.678,240.831 468.5,240.5C 468.5,239.5 468.5,238.5 468.5,237.5C 472.116,236.73 475.783,236.064 479.5,235.5C 483.217,236.064 486.884,236.73 490.5,237.5C 490.5,238.5 490.5,239.5 490.5,240.5C 492.143,240.48 493.476,241.147 494.5,242.5C 496.244,245.961 497.244,249.628 497.5,253.5C 496.866,258.408 495.532,263.075 493.5,267.5 Z"/></g>
<g><path style="opacity:1" fill="#8f8f8f" d="M 340.5,142.5 C 342.446,143.035 343.446,144.368 343.5,146.5C 342.5,146.5 341.5,146.5 340.5,146.5C 340.167,149.5 338.5,151.167 335.5,151.5C 333.622,156.244 330.955,160.577 327.5,164.5C 326.476,165.853 325.143,166.52 323.5,166.5C 322.04,170.074 320.04,173.408 317.5,176.5C 316.476,177.853 315.143,178.52 313.5,178.5C 313.167,181.5 311.5,183.167 308.5,183.5C 308.307,186.308 307.64,188.975 306.5,191.5C 303.167,193.833 299.833,196.167 296.5,198.5C 296.5,200.167 296.5,201.833 296.5,203.5C 293.5,203.833 291.833,205.5 291.5,208.5C 289.857,208.48 288.524,209.147 287.5,210.5C 285.415,212.915 283.749,215.582 282.5,218.5C 276.816,223.199 272.482,228.866 269.5,235.5C 266.167,237.833 262.833,240.167 259.5,242.5C 258.69,244.798 257.856,247.132 257,249.5C 254.501,250.822 253.001,252.822 252.5,255.5C 249.5,255.833 247.833,257.5 247.5,260.5C 246.5,260.5 245.5,260.5 244.5,260.5C 244.116,262.929 243.449,265.263 242.5,267.5C 240.857,267.48 239.524,268.147 238.5,269.5C 236.105,274.091 233.105,278.258 229.5,282C 227.52,284.164 225.187,285.664 222.5,286.5C 222.169,288.322 221.502,289.989 220.5,291.5C 219.5,291.5 218.5,291.5 217.5,291.5C 217.5,289.833 217.5,288.167 217.5,286.5C 220.833,284.167 224.167,281.833 227.5,279.5C 227.5,277.833 227.5,276.167 227.5,274.5C 229.143,274.52 230.476,273.853 231.5,272.5C 233.314,268.776 235.98,266.109 239.5,264.5C 239.5,262.833 239.5,261.167 239.5,259.5C 244.656,257.229 248.656,253.562 251.5,248.5C 252.325,247.614 253.325,247.281 254.5,247.5C 254.011,243.513 255.678,241.18 259.5,240.5C 259.833,237.5 261.5,235.833 264.5,235.5C 265.64,232.975 266.307,230.308 266.5,227.5C 269.833,225.167 273.167,222.833 276.5,220.5C 276.833,217.5 278.5,215.833 281.5,215.5C 281.011,211.513 282.678,209.18 286.5,208.5C 286.833,205.5 288.5,203.833 291.5,203.5C 291.5,201.833 291.5,200.167 291.5,198.5C 293.143,198.52 294.476,197.853 295.5,196.5C 297.019,194.054 298.686,191.721 300.5,189.5C 301.325,188.614 302.325,188.281 303.5,188.5C 303.5,186.833 303.5,185.167 303.5,183.5C 306.833,181.167 310.167,178.833 313.5,176.5C 314.31,174.202 315.144,171.868 316,169.5C 318.499,168.178 319.999,166.178 320.5,163.5C 323.833,161.167 327.167,158.833 330.5,156.5C 330.5,154.833 330.5,153.167 330.5,151.5C 331.675,151.719 332.675,151.386 333.5,150.5C 335.564,147.447 337.897,144.78 340.5,142.5 Z"/></g>
<g><path style="opacity:1" fill="#864a19" d="M 283.5,242.5 C 283.5,246.833 283.5,251.167 283.5,255.5C 282.2,253.777 281.533,251.61 281.5,249C 281.533,246.39 282.2,244.223 283.5,242.5 Z"/></g>
<g><path style="opacity:1" fill="#8c4e1b" d="M 313.5,237.5 C 314.5,237.5 315.5,237.5 316.5,237.5C 317.381,241.6 318.048,245.767 318.5,250C 318.167,252.5 317.833,255 317.5,257.5C 316.476,258.853 315.143,259.52 313.5,259.5C 316.097,252.207 316.097,244.874 313.5,237.5 Z"/></g>
<g><path style="opacity:1" fill="#0e3c38" d="M 461.5,245.5 C 462.167,245.5 462.833,245.5 463.5,245.5C 463.5,250.167 463.5,254.833 463.5,259.5C 462.5,259.5 461.5,259.5 460.5,259.5C 460.283,254.77 460.617,250.103 461.5,245.5 Z"/></g>
<g><path style="opacity:1" fill="#955420" d="M 291.5,264.5 C 293.897,265.368 296.397,266.035 299,266.5C 302.771,265.373 306.605,264.706 310.5,264.5C 308.771,266.727 306.438,267.727 303.5,267.5C 301.833,267.5 300.167,267.5 298.5,267.5C 296.167,267.5 293.833,267.5 291.5,267.5C 291.5,266.5 291.5,265.5 291.5,264.5 Z"/></g>
<g><path style="opacity:1" fill="#153e3a" d="M 470.5,269.5 C 477.148,272.059 483.815,272.059 490.5,269.5C 492.664,269.721 494.33,270.721 495.5,272.5C 493.723,272.214 492.056,271.547 490.5,270.5C 484.056,272.373 477.39,273.04 470.5,272.5C 470.5,271.5 470.5,270.5 470.5,269.5 Z"/></g>
<g><path style="opacity:1" fill="#878787" d="M 298.5,267.5 C 300.167,267.5 301.833,267.5 303.5,267.5C 307.294,285.469 310.961,303.469 314.5,321.5C 317.277,330.557 319.943,339.557 322.5,348.5C 323.938,355.791 324.938,363.124 325.5,370.5C 324.833,370.5 324.167,370.5 323.5,370.5C 323.5,369.5 323.5,368.5 323.5,367.5C 322.5,367.5 321.5,367.5 320.5,367.5C 320.372,360.06 319.372,352.727 317.5,345.5C 315.149,338.263 312.982,330.929 311,323.5C 309.462,314.476 307.795,305.476 306,296.5C 302.612,287.101 300.112,277.435 298.5,267.5 Z"/></g>
<g><path style="opacity:1" fill="#803b5c" d="M 217.5,291.5 C 218.5,291.5 219.5,291.5 220.5,291.5C 220.5,292.5 220.5,293.5 220.5,294.5C 217.622,293.518 214.622,292.851 211.5,292.5C 207.783,293.064 204.116,293.73 200.5,294.5C 201.091,293.849 201.757,293.182 202.5,292.5C 207.456,291.506 212.456,291.173 217.5,291.5 Z"/></g>
<g><path style="opacity:1" fill="#e1569a" d="M 220.5,294.5 C 224.081,295.655 226.414,297.988 227.5,301.5C 227.5,306.5 227.5,311.5 227.5,316.5C 227.179,318.048 226.179,318.715 224.5,318.5C 224.033,320.711 223.033,322.711 221.5,324.5C 219.207,325.652 217.207,326.985 215.5,328.5C 213.833,328.5 212.167,328.5 210.5,328.5C 205.28,327.359 200.614,325.026 196.5,321.5C 195.421,317.352 194.421,313.185 193.5,309C 194.305,305.834 194.972,302.667 195.5,299.5C 196.5,299.5 197.5,299.5 198.5,299.5C 198.831,297.678 199.498,296.011 200.5,294.5C 204.116,293.73 207.783,293.064 211.5,292.5C 214.622,292.851 217.622,293.518 220.5,294.5 Z"/></g>
<g><path style="opacity:1" fill="#7a2e53" d="M 227.5,301.5 C 228.931,301.881 229.764,302.881 230,304.5C 230.499,308.486 230.666,312.486 230.5,316.5C 229.5,316.5 228.5,316.5 227.5,316.5C 227.5,311.5 227.5,306.5 227.5,301.5 Z"/></g>
<g><path style="opacity:1" fill="#4b5120" d="M 397.5,308.5 C 401.5,308.5 405.5,308.5 409.5,308.5C 409.5,309.5 409.5,310.5 409.5,311.5C 405.5,311.5 401.5,311.5 397.5,311.5C 397.5,310.5 397.5,309.5 397.5,308.5 Z"/></g>
<g><path style="opacity:1" fill="#9aa737" d="M 394.5,311.5 C 395.5,311.5 396.5,311.5 397.5,311.5C 401.5,311.5 405.5,311.5 409.5,311.5C 413.487,311.011 415.82,312.678 416.5,316.5C 418.143,316.48 419.476,317.147 420.5,318.5C 421.833,324.5 421.833,330.5 420.5,336.5C 419.476,337.853 418.143,338.52 416.5,338.5C 416.169,340.322 415.502,341.989 414.5,343.5C 412.678,343.831 411.011,344.498 409.5,345.5C 398.996,346.927 391.663,342.927 387.5,333.5C 387.5,328.5 387.5,323.5 387.5,318.5C 390.509,316.79 392.842,314.457 394.5,311.5 Z"/></g>
<g><path style="opacity:1" fill="#8f9090" d="M 493.5,267.5 C 497.081,268.655 499.414,270.988 500.5,274.5C 503.5,274.833 505.167,276.5 505.5,279.5C 508.833,281.833 512.167,284.167 515.5,286.5C 515.48,288.143 516.147,289.476 517.5,290.5C 520.592,293.04 523.926,295.04 527.5,296.5C 527.833,299.5 529.5,301.167 532.5,301.5C 532.833,304.5 534.5,306.167 537.5,306.5C 539.833,309.833 542.167,313.167 544.5,316.5C 547.5,316.833 549.167,318.5 549.5,321.5C 552.833,323.833 556.167,326.167 559.5,328.5C 559.833,331.5 561.5,333.167 564.5,333.5C 566.833,336.833 569.167,340.167 571.5,343.5C 574.5,343.833 576.167,345.5 576.5,348.5C 579.5,348.833 581.167,350.5 581.5,353.5C 582.675,353.281 583.675,353.614 584.5,354.5C 586.5,357.833 589.167,360.5 592.5,362.5C 593.386,363.325 593.719,364.325 593.5,365.5C 596.5,365.833 598.167,367.5 598.5,370.5C 600.167,370.5 601.833,370.5 603.5,370.5C 603.833,373.5 605.5,375.167 608.5,375.5C 610.833,378.833 613.167,382.167 615.5,385.5C 616.675,385.281 617.675,385.614 618.5,386.5C 620.521,390.021 623.354,392.687 627,394.5C 628.077,393.571 629.244,392.904 630.5,392.5C 630.5,393.5 630.5,394.5 630.5,395.5C 628.833,395.5 627.167,395.5 625.5,395.5C 626.01,398.388 625.344,400.721 623.5,402.5C 623.5,400.167 623.5,397.833 623.5,395.5C 622.5,395.5 621.5,395.5 620.5,395.5C 620.719,394.325 620.386,393.325 619.5,392.5C 615.691,389.945 612.358,386.945 609.5,383.5C 607.698,382.014 605.698,381.014 603.5,380.5C 603.167,377.5 601.5,375.833 598.5,375.5C 598.167,372.5 596.5,370.833 593.5,370.5C 591.167,367.167 588.833,363.833 586.5,360.5C 583.5,360.167 581.833,358.5 581.5,355.5C 578.167,353.167 574.833,350.833 571.5,348.5C 569.167,345.167 566.833,341.833 564.5,338.5C 561.5,338.167 559.833,336.5 559.5,333.5C 556.5,333.167 554.833,331.5 554.5,328.5C 551.5,328.167 549.833,326.5 549.5,323.5C 548.325,323.719 547.325,323.386 546.5,322.5C 544.5,319.167 541.833,316.5 538.5,314.5C 537.614,313.675 537.281,312.675 537.5,311.5C 534.167,309.833 530.833,308.167 527.5,306.5C 526.243,302.653 523.576,300.32 519.5,299.5C 518.167,296.833 516.833,294.167 515.5,291.5C 514.5,291.5 513.5,291.5 512.5,291.5C 512.559,288.951 511.559,286.951 509.5,285.5C 508.311,284.571 506.978,284.238 505.5,284.5C 505.5,283.5 505.5,282.5 505.5,281.5C 502.833,280.167 500.167,278.833 497.5,277.5C 497.169,275.678 496.502,274.011 495.5,272.5C 494.33,270.721 492.664,269.721 490.5,269.5C 490.821,267.952 491.821,267.285 493.5,267.5 Z"/></g>
<g><path style="opacity:1" fill="#3a3f14" d="M 387.5,318.5 C 387.5,323.5 387.5,328.5 387.5,333.5C 386.5,333.5 385.5,333.5 384.5,333.5C 383.907,328.03 384.907,323.03 387.5,318.5 Z"/></g>
<g><path style="opacity:1" fill="#eac39e" d="M 323.5,370.5 C 324.167,370.5 324.833,370.5 325.5,370.5C 329.923,370.69 334.256,371.357 338.5,372.5C 338.5,373.5 338.5,374.5 338.5,375.5C 339.978,375.238 341.311,375.571 342.5,376.5C 347.348,386.475 346.015,395.475 338.5,403.5C 337.675,404.386 336.675,404.719 335.5,404.5C 329.833,404.5 324.167,404.5 318.5,404.5C 315.465,402.121 313.131,399.121 311.5,395.5C 311.266,389.692 311.933,384.026 313.5,378.5C 313.5,377.5 313.5,376.5 313.5,375.5C 316.833,373.833 320.167,372.167 323.5,370.5 Z"/></g>
<g><path style="opacity:1" fill="#6f5c4b" d="M 313.5,378.5 C 311.933,384.026 311.266,389.692 311.5,395.5C 309.637,393.275 308.637,390.608 308.5,387.5C 308.569,383.472 310.236,380.472 313.5,378.5 Z"/></g>
<g><path style="opacity:0.502" fill="#214b47" d="M 645.5,389.5 C 647.167,389.5 648.833,389.5 650.5,389.5C 650.5,390.5 650.5,391.5 650.5,392.5C 644.833,392.5 639.167,392.5 633.5,392.5C 633.5,391.5 633.5,390.5 633.5,389.5C 637.5,389.5 641.5,389.5 645.5,389.5 Z"/></g>
<g><path style="opacity:1" fill="#8a8a8a" d="M 210.5,328.5 C 212.167,328.5 213.833,328.5 215.5,328.5C 216.876,331.658 217.542,334.991 217.5,338.5C 218.5,338.5 219.5,338.5 220.5,338.5C 221.348,343.954 223.348,348.954 226.5,353.5C 227.474,355.743 227.808,358.076 227.5,360.5C 228.5,360.5 229.5,360.5 230.5,360.5C 234.485,372.297 238.819,383.963 243.5,395.5C 244.853,396.685 246.02,398.019 247,399.5C 248.321,403.784 249.488,408.117 250.5,412.5C 253.395,415.964 254.728,419.964 254.5,424.5C 255.5,424.5 256.5,424.5 257.5,424.5C 257.5,425.5 257.5,426.5 257.5,427.5C 257.179,429.048 256.179,429.715 254.5,429.5C 251.204,423.018 248.204,416.352 245.5,409.5C 244.223,405.536 243.223,401.536 242.5,397.5C 241.5,397.5 240.5,397.5 239.5,397.5C 235.155,386.957 231.155,376.29 227.5,365.5C 226.5,365.5 225.5,365.5 224.5,365.5C 222.922,358.887 221.589,352.22 220.5,345.5C 219.5,345.5 218.5,345.5 217.5,345.5C 215.184,339.843 212.851,334.176 210.5,328.5 Z"/></g>
<g><path style="opacity:0.996" fill="#55bfb9" d="M 630.5,392.5 C 631.5,392.5 632.5,392.5 633.5,392.5C 639.167,392.5 644.833,392.5 650.5,392.5C 651.502,394.011 652.169,395.678 652.5,397.5C 653.5,397.5 654.5,397.5 655.5,397.5C 656.27,401.116 656.936,404.783 657.5,408.5C 656.936,412.217 656.27,415.884 655.5,419.5C 654.5,419.5 653.5,419.5 652.5,419.5C 651.82,423.322 649.487,424.989 645.5,424.5C 640.5,424.5 635.5,424.5 630.5,424.5C 630.5,425.5 630.5,426.5 630.5,427.5C 627.665,426.931 625.999,425.264 625.5,422.5C 625.307,419.692 624.64,417.025 623.5,414.5C 623.5,410.5 623.5,406.5 623.5,402.5C 625.344,400.721 626.01,398.388 625.5,395.5C 627.167,395.5 628.833,395.5 630.5,395.5C 630.5,394.5 630.5,393.5 630.5,392.5 Z"/></g>
<g><path style="opacity:0.88" fill="#050505" d="M 650.5,392.5 C 653.394,392.556 656.061,393.39 658.5,395C 662.271,396.935 665.271,399.768 667.5,403.5C 671.104,404.685 674.438,406.351 677.5,408.5C 685.833,409.167 694.167,409.833 702.5,410.5C 703.853,411.524 704.52,412.857 704.5,414.5C 707.5,414.833 709.167,416.5 709.5,419.5C 710.5,419.5 711.5,419.5 712.5,419.5C 713.449,421.737 714.116,424.071 714.5,426.5C 715.5,426.5 716.5,426.5 717.5,426.5C 718.14,430.447 719.807,433.781 722.5,436.5C 721.287,437.952 721.62,439.286 723.5,440.5C 717.833,441.833 712.167,441.833 706.5,440.5C 705.147,439.476 704.48,438.143 704.5,436.5C 700.909,436.055 697.576,435.055 694.5,433.5C 693.833,432.167 693.167,432.167 692.5,433.5C 692.68,437.893 693.347,442.226 694.5,446.5C 694.167,448.167 693.833,449.833 693.5,451.5C 690.101,449.688 686.434,449.021 682.5,449.5C 682.5,448.5 682.5,447.5 682.5,446.5C 681.5,446.5 680.5,446.5 679.5,446.5C 679.192,442.427 678.525,438.427 677.5,434.5C 675.833,434.5 674.167,434.5 672.5,434.5C 667.394,434.523 662.394,435.189 657.5,436.5C 657.5,437.5 657.5,438.5 657.5,439.5C 656.135,441.591 655.468,443.924 655.5,446.5C 654.5,446.5 653.5,446.5 652.5,446.5C 652.5,447.5 652.5,448.5 652.5,449.5C 650.409,450.865 648.076,451.532 645.5,451.5C 645.5,453.167 645.5,454.833 645.5,456.5C 644.5,456.5 643.5,456.5 642.5,456.5C 643.123,449.745 642.456,443.412 640.5,437.5C 640.5,436.5 640.5,435.5 640.5,434.5C 638.336,434.279 636.67,433.279 635.5,431.5C 634.5,430.167 633.5,428.833 632.5,427.5C 636.833,427.5 641.167,427.5 645.5,427.5C 645.5,426.5 645.5,425.5 645.5,424.5C 649.487,424.989 651.82,423.322 652.5,419.5C 653.5,419.5 654.5,419.5 655.5,419.5C 656.27,415.884 656.936,412.217 657.5,408.5C 656.936,404.783 656.27,401.116 655.5,397.5C 654.5,397.5 653.5,397.5 652.5,397.5C 652.169,395.678 651.502,394.011 650.5,392.5 Z"/></g>
<g><path style="opacity:1" fill="#705e4c" d="M 318.5,404.5 C 324.167,404.5 329.833,404.5 335.5,404.5C 334.909,405.151 334.243,405.818 333.5,406.5C 329.167,407.833 324.833,407.833 320.5,406.5C 319.757,405.818 319.091,405.151 318.5,404.5 Z"/></g>
<g><path style="opacity:1" fill="#2d6663" d="M 623.5,402.5 C 623.5,406.5 623.5,410.5 623.5,414.5C 622.5,414.5 621.5,414.5 620.5,414.5C 620.5,410.5 620.5,406.5 620.5,402.5C 621.5,402.5 622.5,402.5 623.5,402.5 Z"/></g>
<g><path style="opacity:1" fill="#858584" d="M 414.5,343.5 C 417.302,350.654 419.635,357.987 421.5,365.5C 422.5,365.5 423.5,365.5 424.5,365.5C 424.808,369.573 425.475,373.573 426.5,377.5C 427.5,377.5 428.5,377.5 429.5,377.5C 432.477,387.468 435.477,397.468 438.5,407.5C 439.5,407.5 440.5,407.5 441.5,407.5C 444.302,414.654 446.635,421.987 448.5,429.5C 449.5,429.5 450.5,429.5 451.5,429.5C 451.808,433.573 452.475,437.573 453.5,441.5C 453.5,442.5 453.5,443.5 453.5,444.5C 452.833,444.5 452.167,444.5 451.5,444.5C 449.278,439.767 447.612,434.767 446.5,429.5C 445.5,429.5 444.5,429.5 443.5,429.5C 443.192,425.427 442.525,421.427 441.5,417.5C 440.5,417.5 439.5,417.5 438.5,417.5C 437.833,414.167 437.167,410.833 436.5,407.5C 435.5,407.5 434.5,407.5 433.5,407.5C 433.192,403.427 432.525,399.427 431.5,395.5C 430.5,395.5 429.5,395.5 428.5,395.5C 428.813,392.753 428.48,390.086 427.5,387.5C 424.743,380.12 422.076,372.787 419.5,365.5C 418.5,365.5 417.5,365.5 416.5,365.5C 416.808,363.076 416.474,360.743 415.5,358.5C 412.82,354.464 410.82,350.131 409.5,345.5C 411.011,344.498 412.678,343.831 414.5,343.5 Z"/></g>
<g><path style="opacity:1" fill="#387e7a" d="M 645.5,424.5 C 645.5,425.5 645.5,426.5 645.5,427.5C 641.167,427.5 636.833,427.5 632.5,427.5C 631.833,427.5 631.167,427.5 630.5,427.5C 630.5,426.5 630.5,425.5 630.5,424.5C 635.5,424.5 640.5,424.5 645.5,424.5 Z"/></g>
<g><path style="opacity:1" fill="#e99cbf" d="M 257.5,427.5 C 263.948,427.327 270.281,427.994 276.5,429.5C 276.5,431.167 276.5,432.833 276.5,434.5C 278.167,434.5 279.833,434.5 281.5,434.5C 281.5,436.167 281.5,437.833 281.5,439.5C 281.5,443.5 281.5,447.5 281.5,451.5C 281.167,454.5 279.5,456.167 276.5,456.5C 275.82,460.322 273.487,461.989 269.5,461.5C 266.167,461.5 262.833,461.5 259.5,461.5C 256.692,461.307 254.025,460.64 251.5,459.5C 250.392,456.062 249.058,452.729 247.5,449.5C 247.272,444.985 247.938,440.652 249.5,436.5C 249.238,435.022 249.571,433.689 250.5,432.5C 252.483,432.185 253.816,431.185 254.5,429.5C 256.179,429.715 257.179,429.048 257.5,427.5 Z"/></g>
<g><path style="opacity:0.975" fill="#b1a8b0" d="M 635.5,431.5 C 636.67,433.279 638.336,434.279 640.5,434.5C 640.5,435.5 640.5,436.5 640.5,437.5C 640.5,439.167 640.5,440.833 640.5,442.5C 627.898,443.04 615.564,445.04 603.5,448.5C 603.5,449.5 603.5,450.5 603.5,451.5C 601.833,451.5 600.167,451.5 598.5,451.5C 598.719,452.675 598.386,453.675 597.5,454.5C 595.833,455.833 594.167,457.167 592.5,458.5C 591.167,462.833 591.167,467.167 592.5,471.5C 593.524,472.853 594.857,473.52 596.5,473.5C 596.48,475.143 597.147,476.476 598.5,477.5C 601.93,478.381 605.263,479.548 608.5,481C 619.167,481.667 629.833,481.667 640.5,481C 645.983,478.703 651.65,477.203 657.5,476.5C 657.5,475.5 657.5,474.5 657.5,473.5C 659.167,473.5 660.833,473.5 662.5,473.5C 663.757,469.653 666.424,467.32 670.5,466.5C 671.413,463.945 672.08,461.279 672.5,458.5C 672.167,456.833 671.833,455.167 671.5,453.5C 666.814,449.486 661.481,447.153 655.5,446.5C 655.468,443.924 656.135,441.591 657.5,439.5C 662.636,437.763 667.636,436.096 672.5,434.5C 674.167,434.5 675.833,434.5 677.5,434.5C 678.525,438.427 679.192,442.427 679.5,446.5C 680.5,446.5 681.5,446.5 682.5,446.5C 682.5,447.5 682.5,448.5 682.5,449.5C 686.434,449.021 690.101,449.688 693.5,451.5C 693.833,449.833 694.167,448.167 694.5,446.5C 693.347,442.226 692.68,437.893 692.5,433.5C 693.167,433.5 693.833,433.5 694.5,433.5C 697.576,435.055 700.909,436.055 704.5,436.5C 704.48,438.143 705.147,439.476 706.5,440.5C 712.167,441.833 717.833,441.833 723.5,440.5C 721.62,439.286 721.287,437.952 722.5,436.5C 746.885,436.047 771.219,436.713 795.5,438.5C 795.5,439.5 795.5,440.5 795.5,441.5C 798.308,441.693 800.975,442.36 803.5,443.5C 803.263,444.791 803.596,445.791 804.5,446.5C 802.969,447.925 803.302,448.591 805.5,448.5C 805.5,449.5 805.5,450.5 805.5,451.5C 803.871,454.319 801.538,456.652 798.5,458.5C 797.366,461.167 796.366,463.833 795.5,466.5C 793.857,466.48 792.524,467.147 791.5,468.5C 790.366,471.167 789.366,473.833 788.5,476.5C 787.5,476.5 786.5,476.5 785.5,476.5C 785.5,478.167 785.5,479.833 785.5,481.5C 784.325,481.281 783.325,481.614 782.5,482.5C 781.167,484.167 779.833,485.833 778.5,487.5C 772.198,491.149 765.532,493.816 758.5,495.5C 751.888,495.478 745.388,496.144 739,497.5C 721.875,495.844 704.708,495.178 687.5,495.5C 666.805,495.53 646.138,494.864 625.5,493.5C 616.5,493.5 607.5,493.5 598.5,493.5C 586.3,491.701 573.967,490.034 561.5,488.5C 559.952,488.179 559.285,487.179 559.5,485.5C 557.5,484.833 555.5,484.167 553.5,483.5C 553.5,480.167 553.5,476.833 553.5,473.5C 554.5,473.5 555.5,473.5 556.5,473.5C 557.365,467.41 560.699,463.41 566.5,461.5C 566.693,458.692 567.36,456.025 568.5,453.5C 572.322,452.82 573.989,450.487 573.5,446.5C 574.5,446.5 575.5,446.5 576.5,446.5C 576.5,445.5 576.5,444.5 576.5,443.5C 580.487,443.989 582.82,442.322 583.5,438.5C 587.427,437.475 591.427,436.808 595.5,436.5C 595.5,435.5 595.5,434.5 595.5,433.5C 608.775,431.949 622.108,431.282 635.5,431.5 Z"/></g>
<g><path style="opacity:1" fill="#736d73" d="M 672.5,434.5 C 667.636,436.096 662.636,437.763 657.5,439.5C 657.5,438.5 657.5,437.5 657.5,436.5C 662.394,435.189 667.394,434.523 672.5,434.5 Z"/></g>
<g><path style="opacity:0.624" fill="#774f61" d="M 249.5,436.5 C 247.938,440.652 247.272,444.985 247.5,449.5C 246.209,449.737 245.209,449.404 244.5,448.5C 244.5,445.5 244.5,442.5 244.5,439.5C 246.048,439.179 246.715,438.179 246.5,436.5C 247.5,436.5 248.5,436.5 249.5,436.5 Z"/></g>
<g><path style="opacity:1" fill="#8d9c2d" d="M 453.5,441.5 C 458.5,441.5 463.5,441.5 468.5,441.5C 468.5,442.5 468.5,443.5 468.5,444.5C 463.5,444.5 458.5,444.5 453.5,444.5C 453.5,443.5 453.5,442.5 453.5,441.5 Z"/></g>
<g><path style="opacity:1" fill="#f5f4f5" d="M 640.5,442.5 C 640.5,444.833 640.5,447.167 640.5,449.5C 634.794,449.171 629.128,449.505 623.5,450.5C 618.573,452.915 613.573,454.915 608.5,456.5C 604.301,464.844 606.635,470.178 615.5,472.5C 627.47,474.276 639.137,473.276 650.5,469.5C 650.5,468.5 650.5,467.5 650.5,466.5C 652.167,466.5 653.833,466.5 655.5,466.5C 655.5,462.5 655.5,458.5 655.5,454.5C 654.5,454.5 653.5,454.5 652.5,454.5C 652.5,452.833 652.5,451.167 652.5,449.5C 652.5,448.5 652.5,447.5 652.5,446.5C 653.5,446.5 654.5,446.5 655.5,446.5C 661.481,447.153 666.814,449.486 671.5,453.5C 671.833,455.167 672.167,456.833 672.5,458.5C 672.08,461.279 671.413,463.945 670.5,466.5C 666.424,467.32 663.757,469.653 662.5,473.5C 660.833,473.5 659.167,473.5 657.5,473.5C 657.5,474.5 657.5,475.5 657.5,476.5C 651.65,477.203 645.983,478.703 640.5,481C 629.833,481.667 619.167,481.667 608.5,481C 605.263,479.548 601.93,478.381 598.5,477.5C 597.147,476.476 596.48,475.143 596.5,473.5C 594.857,473.52 593.524,472.853 592.5,471.5C 591.167,467.167 591.167,462.833 592.5,458.5C 594.167,457.167 595.833,455.833 597.5,454.5C 598.386,453.675 598.719,452.675 598.5,451.5C 600.167,451.5 601.833,451.5 603.5,451.5C 603.5,450.5 603.5,449.5 603.5,448.5C 615.564,445.04 627.898,443.04 640.5,442.5 Z"/></g>
<g><path style="opacity:1" fill="#bad032" d="M 451.5,444.5 C 452.167,444.5 452.833,444.5 453.5,444.5C 458.5,444.5 463.5,444.5 468.5,444.5C 476.627,445.802 480.627,450.636 480.5,459C 480.048,463.233 479.381,467.4 478.5,471.5C 476.678,471.831 475.011,472.498 473.5,473.5C 469.724,474.312 465.891,474.979 462,475.5C 458.262,475.619 454.762,474.953 451.5,473.5C 448.5,473.167 446.833,471.5 446.5,468.5C 446.5,467.833 446.5,467.167 446.5,466.5C 446.5,461.5 446.5,456.5 446.5,451.5C 447.502,449.989 448.169,448.322 448.5,446.5C 450.179,446.715 451.179,446.048 451.5,444.5 Z"/></g>
<g><path style="opacity:0.004" fill="#ff3dff" d="M 804.5,446.5 C 805.338,446.842 805.672,447.508 805.5,448.5C 803.302,448.591 802.969,447.925 804.5,446.5 Z"/></g>
<g><path style="opacity:1" fill="#48303b" d="M 281.5,439.5 C 283.931,440.607 284.931,442.607 284.5,445.5C 284.931,448.393 283.931,450.393 281.5,451.5C 281.5,447.5 281.5,443.5 281.5,439.5 Z"/></g>
<g><path style="opacity:1" fill="#5c585c" d="M 640.5,437.5 C 642.456,443.412 643.123,449.745 642.5,456.5C 643.5,456.5 644.5,456.5 645.5,456.5C 645.5,458.167 645.5,459.833 645.5,461.5C 643.857,461.52 642.524,460.853 641.5,459.5C 640.513,456.232 640.18,452.898 640.5,449.5C 640.5,447.167 640.5,444.833 640.5,442.5C 640.5,440.833 640.5,439.167 640.5,437.5 Z"/></g>
<g><path style="opacity:1" fill="#b4aab3" d="M 640.5,449.5 C 640.18,452.898 640.513,456.232 641.5,459.5C 642.524,460.853 643.857,461.52 645.5,461.5C 645.5,459.833 645.5,458.167 645.5,456.5C 645.5,454.833 645.5,453.167 645.5,451.5C 648.076,451.532 650.409,450.865 652.5,449.5C 652.5,451.167 652.5,452.833 652.5,454.5C 653.5,454.5 654.5,454.5 655.5,454.5C 655.5,458.5 655.5,462.5 655.5,466.5C 653.833,466.5 652.167,466.5 650.5,466.5C 650.5,467.5 650.5,468.5 650.5,469.5C 639.137,473.276 627.47,474.276 615.5,472.5C 606.635,470.178 604.301,464.844 608.5,456.5C 613.573,454.915 618.573,452.915 623.5,450.5C 629.128,449.505 634.794,449.171 640.5,449.5 Z"/></g>
<g><path style="opacity:1" fill="#edebed" d="M 738.5,448.5 C 748.506,448.334 758.506,448.5 768.5,449C 771.094,451.072 771.094,453.239 768.5,455.5C 767.675,456.386 766.675,456.719 765.5,456.5C 765.5,457.5 765.5,458.5 765.5,459.5C 763.167,459.5 760.833,459.5 758.5,459.5C 758.5,457.833 758.5,456.167 758.5,454.5C 752.794,454.171 747.128,454.505 741.5,455.5C 743.743,456.474 746.076,456.808 748.5,456.5C 748.771,458.821 748.104,460.821 746.5,462.5C 751.12,463.493 755.786,463.827 760.5,463.5C 758.304,468.05 755.637,472.383 752.5,476.5C 751.548,478.045 751.215,479.712 751.5,481.5C 741.5,481.5 731.5,481.5 721.5,481.5C 721.5,482.833 721.5,484.167 721.5,485.5C 728.833,485.5 736.167,485.5 743.5,485.5C 743.5,486.5 743.5,487.5 743.5,488.5C 732.833,488.5 722.167,488.5 711.5,488.5C 711.5,486.833 711.5,485.167 711.5,483.5C 714.5,483.167 716.167,481.5 716.5,478.5C 720.652,476.938 724.985,476.272 729.5,476.5C 729.693,473.692 730.36,471.025 731.5,468.5C 729.833,468.5 728.167,468.5 726.5,468.5C 726.011,464.513 727.678,462.18 731.5,461.5C 731.5,459.833 731.5,458.167 731.5,456.5C 735.347,455.243 737.68,452.576 738.5,448.5 Z"/></g>
<g><path style="opacity:0.775" fill="#050404" d="M 805.5,451.5 C 805.973,459.378 805.307,467.044 803.5,474.5C 802.5,474.5 801.5,474.5 800.5,474.5C 800.989,478.487 799.322,480.82 795.5,481.5C 795.167,484.5 793.5,486.167 790.5,486.5C 790.989,490.487 789.322,492.82 785.5,493.5C 784.986,495.698 783.986,497.698 782.5,499.5C 779.689,501.144 777.356,503.31 775.5,506C 771.695,507.785 767.695,508.618 763.5,508.5C 763.5,509.5 763.5,510.5 763.5,511.5C 754.371,512.45 745.205,513.117 736,513.5C 712.263,511.751 688.43,511.085 664.5,511.5C 664.5,511.167 664.5,510.833 664.5,510.5C 666.055,507.424 667.055,504.091 667.5,500.5C 642.167,500.5 616.833,500.5 591.5,500.5C 591.5,501.5 591.5,502.5 591.5,503.5C 589.04,504.937 586.374,505.937 583.5,506.5C 579.5,506.5 575.5,506.5 571.5,506.5C 571.5,505.5 571.5,504.5 571.5,503.5C 568.167,502.833 564.833,502.167 561.5,501.5C 561.5,500.5 561.5,499.5 561.5,498.5C 557.678,497.82 556.011,495.487 556.5,491.5C 555.5,491.5 554.5,491.5 553.5,491.5C 553.5,488.833 553.5,486.167 553.5,483.5C 555.5,484.167 557.5,484.833 559.5,485.5C 559.285,487.179 559.952,488.179 561.5,488.5C 561.47,489.497 561.97,490.164 563,490.5C 574.648,493.189 586.481,494.189 598.5,493.5C 607.5,493.5 616.5,493.5 625.5,493.5C 627.915,494.814 630.748,495.481 634,495.5C 659.251,496.096 684.417,497.096 709.5,498.5C 724.182,498.833 738.848,498.499 753.5,497.5C 755.291,496.83 756.958,496.163 758.5,495.5C 765.532,493.816 772.198,491.149 778.5,487.5C 779.833,485.833 781.167,484.167 782.5,482.5C 783.325,481.614 784.325,481.281 785.5,481.5C 785.5,479.833 785.5,478.167 785.5,476.5C 786.5,476.5 787.5,476.5 788.5,476.5C 789.366,473.833 790.366,471.167 791.5,468.5C 792.524,467.147 793.857,466.48 795.5,466.5C 796.366,463.833 797.366,461.167 798.5,458.5C 801.538,456.652 803.871,454.319 805.5,451.5 Z"/></g>
<g><path style="opacity:1" fill="#734d5f" d="M 259.5,461.5 C 262.833,461.5 266.167,461.5 269.5,461.5C 268.306,462.777 266.64,463.444 264.5,463.5C 262.36,463.444 260.694,462.777 259.5,461.5 Z"/></g>
<g><path style="opacity:1" fill="#545e17" d="M 446.5,451.5 C 446.5,456.5 446.5,461.5 446.5,466.5C 445.5,466.5 444.5,466.5 443.5,466.5C 443.174,462.116 443.508,457.783 444.5,453.5C 445.182,452.757 445.849,452.091 446.5,451.5 Z"/></g>
<g><path style="opacity:1" fill="#7a8821" d="M 446.5,468.5 C 449.5,468.833 451.167,470.5 451.5,473.5C 451.167,470.5 449.5,468.833 446.5,468.5 Z"/></g>
<g><path style="opacity:1" fill="#869624" d="M 451.5,473.5 C 454.762,474.953 458.262,475.619 462,475.5C 465.891,474.979 469.724,474.312 473.5,473.5C 473.5,474.5 473.5,475.5 473.5,476.5C 469.884,477.27 466.217,477.936 462.5,478.5C 458.783,477.936 455.116,477.27 451.5,476.5C 451.5,475.5 451.5,474.5 451.5,473.5 Z"/></g>
<g><path style="opacity:1" fill="#645e64" d="M 561.5,488.5 C 573.967,490.034 586.3,491.701 598.5,493.5C 586.481,494.189 574.648,493.189 563,490.5C 561.97,490.164 561.47,489.497 561.5,488.5 Z"/></g>
<g><path style="opacity:1" fill="#3c383b" d="M 625.5,493.5 C 646.138,494.864 666.805,495.53 687.5,495.5C 695.057,495.848 702.39,496.848 709.5,498.5C 684.417,497.096 659.251,496.096 634,495.5C 630.748,495.481 627.915,494.814 625.5,493.5 Z"/></g>
<g><path style="opacity:1" fill="#6c666b" d="M 687.5,495.5 C 704.708,495.178 721.875,495.844 739,497.5C 745.388,496.144 751.888,495.478 758.5,495.5C 756.958,496.163 755.291,496.83 753.5,497.5C 738.848,498.499 724.182,498.833 709.5,498.5C 702.39,496.848 695.057,495.848 687.5,495.5 Z"/></g>
<g><path style="opacity:1" fill="#947f3b" d="M 664.5,510.5 C 662.065,508.519 662.065,506.519 664.5,504.5C 643.289,504.003 622.122,503.003 601,501.5C 597.651,501.696 594.484,502.363 591.5,503.5C 591.5,502.5 591.5,501.5 591.5,500.5C 616.833,500.5 642.167,500.5 667.5,500.5C 667.055,504.091 666.055,507.424 664.5,510.5 Z"/></g>
<g><path style="opacity:0.878" fill="#ccae51" d="M 664.5,510.5 C 664.5,510.833 664.5,511.167 664.5,511.5C 655.808,511.169 647.141,511.502 638.5,512.5C 637.5,513.167 636.5,513.833 635.5,514.5C 617.512,515.5 599.512,515.833 581.5,515.5C 581.091,512.145 581.758,509.145 583.5,506.5C 586.374,505.937 589.04,504.937 591.5,503.5C 594.484,502.363 597.651,501.696 601,501.5C 622.122,503.003 643.289,504.003 664.5,504.5C 662.065,506.519 662.065,508.519 664.5,510.5 Z"/></g>
</svg>
