<?xml version="1.0" encoding="UTF-8"?>
<!DOCTYPE svg PUBLIC "-//W3C//DTD SVG 1.1//EN" "http://www.w3.org/Graphics/SVG/1.1/DTD/svg11.dtd">
<svg xmlns="http://www.w3.org/2000/svg" version="1.1" width="240px" height="96px" style="shape-rendering:geometricPrecision; text-rendering:geometricPrecision; image-rendering:optimizeQuality; fill-rule:evenodd; clip-rule:evenodd" xmlns:xlink="http://www.w3.org/1999/xlink">
<g><path style="opacity:0.345" fill="#0e70b4" d="M 28.5,-0.5 C 29.5,-0.5 30.5,-0.5 31.5,-0.5C 31.369,0.238911 31.5357,0.905578 32,1.5C 33.3561,0.619828 34.8561,0.286495 36.5,0.5C 36.2189,4.18791 35.7189,7.85457 35,11.5C 34.0975,12.7014 32.9308,13.5348 31.5,14C 33.1341,14.4935 34.8008,14.6602 36.5,14.5C 36.846,17.6021 36.1793,20.4355 34.5,23C 35,23.5 35.5,24 36,24.5C 36.4993,29.4889 36.6659,34.4889 36.5,39.5C 33.1501,39.335 29.8168,39.5017 26.5,40C 29.5,40.3333 32.5,40.6667 35.5,41C 37.6214,45.5686 36.2881,47.9019 31.5,48C 27.3543,43.9498 22.8543,43.7831 18,47.5C 17.3333,49.5 16.6667,51.5 16,53.5C 14.6667,54.8333 13.3333,54.8333 12,53.5C 11.6667,51.1667 11.3333,48.8333 11,46.5C 9.68708,47.5728 8.18708,48.2395 6.5,48.5C 4.77658,47.4478 3.10992,47.4478 1.5,48.5C 0.42914,46.6745 1.09581,45.5079 3.5,45C -0.530739,42.7943 -0.364073,42.2943 4,43.5C 7.71946,40.9475 11.3861,40.9475 15,43.5C 18.1185,41.3851 20.9518,38.8851 23.5,36C 26.0356,35.8138 28.369,35.3138 30.5,34.5C 27.4816,34.3354 24.4816,34.502 21.5,35C 20.2454,37.7049 18.2454,39.5382 15.5,40.5C 13.9707,40.4712 12.804,39.8045 12,38.5C 11.196,39.8045 10.0293,40.4712 8.5,40.5C 6.18069,39.9361 3.84736,39.4361 1.5,39C 2.32791,38.0853 3.32791,37.4186 4.5,37C 2.77997,33.9141 3.44664,31.5808 6.5,30C 4.86029,27.2242 5.52696,25.2242 8.5,24C 5.82279,21.4864 6.32279,19.6531 10,18.5C 12.2383,19.8986 12.905,19.2319 12,16.5C 11.0862,17.6537 10.2529,17.487 9.5,16C 11.2279,14.027 13.0613,12.1937 15,10.5C 16.0437,11.6226 16.7104,12.9559 17,14.5C 17.5,13.5 18,12.5 18.5,11.5C 15.4083,7.92227 16.075,6.08894 20.5,6C 21.2106,7.25471 22.044,8.42138 23,9.5C 23.1405,7.74446 22.6405,6.07779 21.5,4.5C 23.3132,0.602335 25.1465,0.602335 27,4.5C 27.3519,2.75251 27.8519,1.08584 28.5,-0.5 Z M 25.5,6.5 C 23.9153,5.99762 23.4153,4.99762 24,3.5C 25.0386,4.24382 25.5386,5.24382 25.5,6.5 Z M 25.5,6.5 C 27.7813,7.63445 27.7813,8.96778 25.5,10.5C 25.5,9.16667 25.5,7.83333 25.5,6.5 Z M 30.5,11.5 C 30.5,9.83333 30.5,8.16667 30.5,6.5C 31.5,6.5 32.5,6.5 33.5,6.5C 33.5,8.16667 33.5,9.83333 33.5,11.5C 32.5,11.5 31.5,11.5 30.5,11.5 Z M 20.5,10.5 C 21.7079,11.2341 23.0413,11.5674 24.5,11.5C 22.5398,13.1563 20.5398,14.823 18.5,16.5C 19.6298,14.6854 20.2964,12.6854 20.5,10.5 Z M 26.5,12.5 C 27.5735,13.2506 27.7401,14.2506 27,15.5C 25.2716,14.6477 25.105,13.6477 26.5,12.5 Z M 21.5,15.5 C 22.5735,16.2506 22.7401,17.2506 22,18.5C 21,19.5 20,20.5 19,21.5C 19.4509,19.4802 20.2843,17.4802 21.5,15.5 Z M 29.5,16.5 C 30.9187,15.5489 32.5853,15.2155 34.5,15.5C 34.6621,17.5273 34.4955,19.5273 34,21.5C 33.5065,19.8659 33.3398,18.1992 33.5,16.5C 32.1667,16.5 30.8333,16.5 29.5,16.5 Z M 31.5,30.5 C 28.8495,30.0424 28.3495,29.0424 30,27.5C 30.3333,24.5 30.6667,21.5 31,18.5C 31.1992,20.4025 32.0325,21.9025 33.5,23C 31.7215,25.1354 31.0548,27.6354 31.5,30.5 Z M 16.5,19.5 C 16.5,20.5 16.5,21.5 16.5,22.5C 12.9405,20.7175 12.9405,19.7175 16.5,19.5 Z M 25.5,19.5 C 26.874,21.5167 26.7074,23.5167 25,25.5C 24.5099,23.4546 24.6765,21.4546 25.5,19.5 Z M 8.5,21.5 C 9.8488,20.2035 11.1821,20.3702 12.5,22C 11.0715,22.5791 9.7382,22.4124 8.5,21.5 Z M 22.5,21.5 C 22.7895,25.554 22.1229,26.054 20.5,23C 21.0442,22.2828 21.7109,21.7828 22.5,21.5 Z M 14.5,24.5 C 15.7181,26.3318 15.0514,27.3318 12.5,27.5C 13.1667,26.5 13.8333,25.5 14.5,24.5 Z M 33.5,25.5 C 35.6033,27.0183 35.77,28.685 34,30.5C 33.5065,28.8659 33.3398,27.1992 33.5,25.5 Z M 12.5,27.5 C 10.9652,28.7879 9.29855,28.7879 7.5,27.5C 8.88748,27.1928 10.5542,27.1928 12.5,27.5 Z M 20.5,27.5 C 21.2891,27.7828 21.9558,28.2828 22.5,29C 21.184,29.5281 20.5173,29.0281 20.5,27.5 Z M 14.5,29.5 C 13.8705,33.9905 12.2038,34.4905 9.5,31C 11.2475,30.6481 12.9142,30.1481 14.5,29.5 Z M 18.5,34.5 C 18.3398,32.8008 18.5065,31.1341 19,29.5C 19.5,30 20,30.5 20.5,31C 23.5,31.3333 26.5,31.6667 29.5,32C 25.6557,32.2363 21.989,33.0697 18.5,34.5 Z M 31.5,30.5 C 32.1239,30.9169 32.4573,31.5836 32.5,32.5C 32.2528,33.7133 31.5862,34.38 30.5,34.5C 31.2341,33.2921 31.5674,31.9587 31.5,30.5 Z M 11.5,35.5 C 8.57009,36.7875 6.23676,36.2875 4.5,34C 7.27668,32.0865 9.61001,32.5865 11.5,35.5 Z M 25.5,37.5 C 28.2281,36.7948 31.0614,36.1281 34,35.5C 34.5628,36.7248 34.2295,37.7248 33,38.5C 30.6194,37.565 28.1194,37.2317 25.5,37.5 Z M 15.5,36.5 C 17.6569,37.0533 17.4903,38.0533 15,39.5C 14.5304,38.4232 14.6971,37.4232 15.5,36.5 Z M 25.5,37.5 C 24.0484,39.7742 24.715,41.2742 27.5,42C 16.3316,45.9657 15.665,44.4657 25.5,37.5 Z M 9.5,42.5 C 11.8288,44.852 14.4955,45.6854 17.5,45C 15.9633,47.2796 14.7967,49.7796 14,52.5C 14.8138,46.1379 12.3138,44.1379 6.5,46.5C 5.69194,46.1924 5.02527,45.6924 4.5,45C 6.49131,44.6264 8.15797,43.793 9.5,42.5 Z M 28.5,43.5 C 30.2646,42.5386 32.2646,42.2053 34.5,42.5C 34.6882,44.1033 34.1882,45.4366 33,46.5C 31.871,44.8588 30.371,43.8588 28.5,43.5 Z"/></g>
<g><path style="opacity:0.452" fill="#0e70b4" d="M 239.5,40.5 C 239.5,41.1667 239.5,41.8333 239.5,42.5C 233.12,41.9051 227.12,40.0718 221.5,37C 216.699,33.201 212.199,29.0343 208,24.5C 195.761,42.2029 178.928,50.0362 157.5,48C 149.016,45.5101 141.516,41.3434 135,35.5C 127.551,41.5257 119.385,42.859 110.5,39.5C 108.58,42.039 106.246,44.039 103.5,45.5C 100.892,44.5588 98.8924,42.8921 97.5,40.5C 95.1046,43.3693 92.1046,44.536 88.5,44C 87.1387,42.4157 86.472,40.5824 86.5,38.5C 83.8135,39.6638 81.4801,41.4971 79.5,44C 77.6079,44.9734 75.6079,45.6401 73.5,46C 76.7465,69.0157 68.0799,85.5157 47.5,95.5C 46.5,95.5 45.5,95.5 44.5,95.5C 42.6998,93.9496 40.5332,92.9496 38,92.5C 37.5065,90.8659 37.3398,89.1992 37.5,87.5C 42.5388,87.5489 42.7055,86.8823 38,85.5C 37.8333,83.1667 37.6667,80.8333 37.5,78.5C 38.0841,74.4115 38.0841,70.4115 37.5,66.5C 37.5559,63.8887 38.5559,61.722 40.5,60C 39.6852,56.755 39.3518,53.5884 39.5,50.5C 37.0121,51.0248 34.6787,51.8581 32.5,53C 37.8101,55.933 37.8101,58.933 32.5,62C 33.2887,63.6255 34.2887,65.1255 35.5,66.5C 34.5,68.1667 33.1667,69.5 31.5,70.5C 32.4803,71.9814 33.647,73.3147 35,74.5C 35.6869,76.9203 35.1869,79.087 33.5,81C 36.4211,84.0381 36.0878,86.5381 32.5,88.5C 30.9121,87.9904 29.7455,86.9904 29,85.5C 27.8118,86.5634 27.3118,87.8967 27.5,89.5C 29.1992,89.3398 30.8659,89.5065 32.5,90C 33.8333,91.3333 33.8333,92.6667 32.5,94C 30.6183,94.1981 28.9516,94.6981 27.5,95.5C 25.8333,95.5 24.1667,95.5 22.5,95.5C 21.7724,92.9205 21.2724,90.2538 21,87.5C 13.8331,90.2667 10.4997,87.9334 11,80.5C 14.3644,78.7448 17.1977,76.4115 19.5,73.5C 15.308,74.5167 11.4747,76.1834 8,78.5C 2.36951,77.1934 1.20284,74.0267 4.5,69C 7.23046,68.2716 9.89713,68.4383 12.5,69.5C 13.7387,69.0576 14.7387,68.3909 15.5,67.5C 12.5371,67.8493 10.2038,66.8493 8.5,64.5C 6.96442,65.2485 5.63109,66.2485 4.5,67.5C 3.79505,63.0668 5.79505,61.5668 10.5,63C 11.7715,65.2609 13.4382,65.7609 15.5,64.5C 10.6607,58.6708 11.994,55.8374 19.5,56C 24.013,61.766 23.013,66.4326 16.5,70C 12.8333,70.3333 9.16667,70.6667 5.5,71C 4.1742,73.8676 5.00754,76.0343 8,77.5C 11.4307,73.8978 15.5974,71.3978 20.5,70C 23.7458,65.3651 24.7458,60.3651 23.5,55C 19.3629,55.2033 17.8629,53.37 19,49.5C 25.6431,44.748 29.4764,46.5814 30.5,55C 29.4492,60.3207 28.1159,65.4874 26.5,70.5C 27.4803,71.9814 28.647,73.3147 30,74.5C 30.4955,76.4727 30.6621,78.4727 30.5,80.5C 26.7974,80.1376 23.7974,78.471 21.5,75.5C 17.9878,77.7567 14.6544,80.2567 11.5,83C 12.4734,85.5474 14.3067,87.0474 17,87.5C 17.9246,86.9535 18.7579,86.2868 19.5,85.5C 16.5146,82.1229 17.1813,79.7895 21.5,78.5C 24.4576,79.3804 26.2909,81.3804 27,84.5C 29.4932,83.0545 31.3265,83.7211 32.5,86.5C 32.3749,83.0719 32.7083,79.5719 33.5,76C 31.5781,74.5805 30.2448,72.7472 29.5,70.5C 29.7814,68.2216 31.1148,67.0549 33.5,67C 29.1968,63.1148 29.5302,59.9481 34.5,57.5C 29.4832,50.9852 31.1499,48.3186 39.5,49.5C 39.0214,35.7809 38.3547,21.9475 37.5,8C 37.9764,1.75238 41.3097,-0.580957 47.5,1C 49.0037,2.4907 49.8371,4.32403 50,6.5C 51.8684,5.32806 53.7017,5.49472 55.5,7C 59.3729,9.5205 61.5396,13.0205 62,17.5C 66.3716,24.2461 70.2049,31.2461 73.5,38.5C 74.4519,40.0453 74.7852,41.712 74.5,43.5C 78.159,42.6854 80.8256,40.5187 82.5,37C 84.4406,36.2571 86.2739,36.4238 88,37.5C 89.1823,43.5336 91.6823,44.0336 95.5,39C 99.9174,37.4315 101.917,38.9315 101.5,43.5C 102.552,43.6495 103.552,43.4828 104.5,43C 106.282,38.7748 109.282,37.2748 113.5,38.5C 115.303,24.1007 116.303,24.4341 116.5,39.5C 117.833,39.5 119.167,39.5 120.5,39.5C 120.187,36.7531 120.52,34.0865 121.5,31.5C 122.474,33.7427 122.808,36.076 122.5,38.5C 123.833,38.5 125.167,38.5 126.5,38.5C 126.666,34.4862 126.499,30.4862 126,26.5C 123.24,22.5348 121.74,23.2015 121.5,28.5C 121.305,24.4982 119.805,21.1649 117,18.5C 115.672,23.5626 114.672,23.2293 114,17.5C 113,16.8333 112,16.1667 111,15.5C 110.829,20.8642 110.329,26.1975 109.5,31.5C 108.505,25.8722 108.171,20.2055 108.5,14.5C 104.976,14.1191 101.642,13.1191 98.5,11.5C 105.557,11.3439 112.224,13.1772 118.5,17C 124.302,21.8004 129.802,26.967 135,32.5C 141.522,26.9767 147.688,21.1433 153.5,15C 173.502,2.55383 191.836,4.72049 208.5,21.5C 215.538,14.7109 223.872,11.7109 233.5,12.5C 231.955,13.4519 230.288,13.7852 228.5,13.5C 228.286,31.2211 227.286,31.5545 225.5,14.5C 224.833,14.8333 224.167,15.1667 223.5,15.5C 222.833,18.1667 222.167,20.8333 221.5,23.5C 220.686,21.2338 220.186,18.9005 220,16.5C 216.985,18.188 215.818,20.8547 216.5,24.5C 216.667,26.5 216.833,28.5 217,30.5C 217.689,31.3567 218.522,32.0233 219.5,32.5C 220.167,30.5 220.833,28.5 221.5,26.5C 222.167,29.5 222.833,32.5 223.5,35.5C 224.167,35.8333 224.833,36.1667 225.5,36.5C 226.167,34.5 226.833,32.5 227.5,30.5C 228.48,33.0865 228.813,35.7531 228.5,38.5C 229.93,38.4208 231.264,38.7542 232.5,39.5C 233.992,20.8684 235.159,20.8684 236,39.5C 237.011,40.3366 238.178,40.67 239.5,40.5 Z M 50.5,7.5 C 54.8138,7.77212 55.3138,9.10545 52,11.5C 51.2086,10.255 50.7086,8.92167 50.5,7.5 Z M 46.5,8.5 C 48.6559,8.87182 48.6559,9.87182 46.5,11.5C 43.9548,10.4508 43.9548,9.45083 46.5,8.5 Z M 175.5,8.5 C 177.5,8.5 179.5,8.5 181.5,8.5C 181.172,13.8746 181.505,19.2079 182.5,24.5C 183.494,19.544 183.827,14.544 183.5,9.5C 184.93,9.42082 186.264,9.75415 187.5,10.5C 188.167,13.5 188.833,16.5 189.5,19.5C 190.318,16.8929 190.818,14.2263 191,11.5C 192.667,12.5 194.333,13.5 196,14.5C 196.176,17.8818 196.676,21.2152 197.5,24.5C 198.318,21.8929 198.818,19.2263 199,16.5C 199.75,17.1258 200.584,17.6258 201.5,18C 203.418,22.7872 202.584,26.9539 199,30.5C 198.781,29.062 198.281,27.7287 197.5,26.5C 197.628,31.3927 195.628,35.0593 191.5,37.5C 190.833,33.5 190.167,29.5 189.5,25.5C 188.672,30.1315 188.172,34.7982 188,39.5C 186.846,40.7433 185.512,41.7433 184,42.5C 183.824,39.1182 183.324,35.7848 182.5,32.5C 181.833,36.1667 181.167,39.8333 180.5,43.5C 179.167,44.1667 177.833,44.8333 176.5,45.5C 175.006,24.1975 173.839,24.1975 173,45.5C 171.301,46.4061 169.467,46.7394 167.5,46.5C 166.833,35.8333 166.167,35.8333 165.5,46.5C 163.833,46.5 162.167,46.5 160.5,46.5C 160.5,43.8333 160.5,41.1667 160.5,38.5C 159.5,38.5 158.5,38.5 157.5,38.5C 157.808,40.924 157.474,43.2573 156.5,45.5C 155.264,44.7542 153.93,44.4208 152.5,44.5C 152.5,41.1667 152.5,37.8333 152.5,34.5C 151.5,34.5 150.5,34.5 149.5,34.5C 149.664,37.1873 149.497,39.854 149,42.5C 145.482,40.715 143.982,37.715 144.5,33.5C 143.584,28.7823 145.084,25.1156 149,22.5C 149.497,24.8098 149.663,27.1432 149.5,29.5C 150.5,29.5 151.5,29.5 152.5,29.5C 152.335,25.8183 152.501,22.1516 153,18.5C 154.154,17.2567 155.488,16.2567 157,15.5C 157.499,21.4908 157.666,27.4908 157.5,33.5C 158.5,33.5 159.5,33.5 160.5,33.5C 160.334,26.825 160.5,20.1583 161,13.5C 162.085,12.7069 163.252,12.0402 164.5,11.5C 165.167,19.1667 165.833,26.8333 166.5,34.5C 167.332,26.5207 167.832,18.5207 168,10.5C 169.699,9.59391 171.533,9.26057 173.5,9.5C 173.172,14.8746 173.505,20.2079 174.5,25.5C 175.495,19.8722 175.829,14.2055 175.5,8.5 Z M 43.5,12.5 C 41.9719,12.4827 41.4719,11.816 42,10.5C 42.7172,11.0442 43.2172,11.7109 43.5,12.5 Z M 54.5,11.5 C 56.337,11.6395 56.6704,12.3061 55.5,13.5C 54.7025,13.0431 54.3691,12.3764 54.5,11.5 Z M 57.5,13.5 C 60.0118,14.2162 60.0118,15.2162 57.5,16.5C 56.913,15.7666 56.913,14.7666 57.5,13.5 Z M 40.5,16.5 C 42.7602,17.2376 42.9269,18.2376 41,19.5C 40.5172,18.552 40.3505,17.552 40.5,16.5 Z M 52.5,18.5 C 53.7733,19.0768 53.7733,19.7435 52.5,20.5C 51.537,20.0302 51.537,19.3635 52.5,18.5 Z M 56.5,20.5 C 57.8478,21.5268 58.3478,22.8602 58,24.5C 56.8118,23.4366 56.3118,22.1033 56.5,20.5 Z M 60.5,20.5 C 61.4959,20.4142 62.3292,20.7476 63,21.5C 63.3095,22.7659 63.8095,23.9326 64.5,25C 61.5073,25.2572 60.174,23.7572 60.5,20.5 Z M 212.5,20.5 C 213.725,21.1522 214.392,22.3189 214.5,24C 214.333,25.1667 214.167,26.3333 214,27.5C 210.342,25.5936 209.842,23.2603 212.5,20.5 Z M 204.5,21.5 C 206.76,22.2376 206.927,23.2376 205,24.5C 204.517,23.552 204.351,22.552 204.5,21.5 Z M 43.5,24.5 C 44.4734,24.9867 45.4734,25.4867 46.5,26C 44.8425,26.7252 43.8425,26.2252 43.5,24.5 Z M 50.5,26.5 C 54.1331,26.443 54.2998,27.443 51,29.5C 49.2716,28.6477 49.105,27.6477 50.5,26.5 Z M 55.5,33.5 C 52.4108,32.2194 52.7441,30.5527 56.5,28.5C 56.8333,28.6667 57.1667,28.8333 57.5,29C 55.9632,30.1096 55.2965,31.6096 55.5,33.5 Z M 128.5,29.5 C 130.296,30.7927 131.963,32.2927 133.5,34C 132.335,35.0836 131.002,35.9169 129.5,36.5C 128.526,34.2573 128.192,31.924 128.5,29.5 Z M 141.5,29.5 C 142.638,32.3035 142.805,35.3035 142,38.5C 140.365,37.2744 138.865,35.941 137.5,34.5C 138.857,32.8144 140.19,31.1477 141.5,29.5 Z M 43.5,32.5 C 47.373,34.1539 47.0397,34.6539 42.5,34C 43.056,33.6174 43.3893,33.1174 43.5,32.5 Z M 65.5,32.5 C 67.332,33.1405 67.6653,34.1405 66.5,35.5C 65.6143,34.675 65.281,33.675 65.5,32.5 Z M 67.5,37.5 C 67.1662,40.2748 65.8329,40.9415 63.5,39.5C 64.3202,37.8888 65.6536,37.2222 67.5,37.5 Z M 46.5,41.5 C 48.9752,41.7467 48.9752,42.4134 46.5,43.5C 45.537,43.0302 45.537,42.3635 46.5,41.5 Z M 52.5,45.5 C 55.1368,47.1538 54.8034,47.6538 51.5,47C 52.056,46.6174 52.3893,46.1174 52.5,45.5 Z M 66.5,45.5 C 67.8333,45.5 69.1667,45.5 70.5,45.5C 70.719,46.675 70.3857,47.675 69.5,48.5C 67.7869,48.1207 66.7869,47.1207 66.5,45.5 Z M 19.5,73.5 C 21.3068,72.1638 22.8068,70.4971 24,68.5C 26.0072,63.5133 26.3405,58.5133 25,53.5C 19.4513,52.6007 19.118,50.9341 24,48.5C 26.8453,49.678 28.3453,51.8447 28.5,55C 27.5373,60.291 26.204,65.4576 24.5,70.5C 25.9705,73.136 27.6372,75.636 29.5,78C 26.5724,75.9834 23.2391,74.4834 19.5,73.5 Z M 63.5,50.5 C 64.2891,50.7828 64.9558,51.2828 65.5,52C 64.184,52.5281 63.5173,52.0281 63.5,50.5 Z M 41.5,54.5 C 43.7602,55.2376 43.9269,56.2376 42,57.5C 41.5172,56.552 41.3505,55.552 41.5,54.5 Z M 56.5,54.5 C 58.337,54.6395 58.6704,55.3061 57.5,56.5C 56.7025,56.0431 56.3691,55.3764 56.5,54.5 Z M 59.5,54.5 C 61.9732,54.9473 62.1399,55.9473 60,57.5C 59.5172,56.552 59.3505,55.552 59.5,54.5 Z M 54.5,56.5 C 56.7602,57.2376 56.9269,58.2376 55,59.5C 54.5172,58.552 54.3505,57.552 54.5,56.5 Z M 70.5,56.5 C 70.8747,59.9067 69.8747,60.4067 67.5,58C 68.5266,57.4867 69.5266,56.9867 70.5,56.5 Z M 15.5,67.5 C 18.2115,64.5836 17.8782,61.9169 14.5,59.5C 17.7336,56.6392 19.7336,57.4725 20.5,62C 20.0448,64.9544 18.3781,66.7878 15.5,67.5 Z M 51.5,57.5 C 52.2891,57.7828 52.9558,58.2828 53.5,59C 52.184,59.5281 51.5173,59.0281 51.5,57.5 Z M 44.5,58.5 C 45.7733,59.0768 45.7733,59.7435 44.5,60.5C 43.537,60.0302 43.537,59.3635 44.5,58.5 Z M 60.5,60.5 C 62.337,60.6395 62.6704,61.3061 61.5,62.5C 60.7025,62.0431 60.3691,61.3764 60.5,60.5 Z M 65.5,61.5 C 66.3864,60.2241 67.3864,60.2241 68.5,61.5C 67.7666,62.087 66.7666,62.087 65.5,61.5 Z M 57.5,62.5 C 58.2891,62.7828 58.9558,63.2828 59.5,64C 58.184,64.5281 57.5173,64.0281 57.5,62.5 Z M 63.5,62.5 C 65.9752,62.7467 65.9752,63.4134 63.5,64.5C 62.537,64.0302 62.537,63.3635 63.5,62.5 Z M 45.5,64.5 C 45.5852,65.9953 44.9185,66.9953 43.5,67.5C 42.3606,65.6043 43.0272,64.6043 45.5,64.5 Z M 52.5,66.5 C 52.56,65.9569 52.8933,65.6236 53.5,65.5C 58.6185,70.1106 58.2851,70.4439 52.5,66.5 Z M 49.5,67.5 C 51.1958,67.6854 52.5291,68.5187 53.5,70C 51.3646,70.6347 49.3646,70.3014 47.5,69C 48.4158,68.7216 49.0825,68.2216 49.5,67.5 Z M 42.5,70.5 C 44.337,70.6395 44.6704,71.3061 43.5,72.5C 42.7025,72.0431 42.3691,71.3764 42.5,70.5 Z M 51.5,72.5 C 54.0009,72.5109 54.1676,73.1776 52,74.5C 51.5357,73.9056 51.369,73.2389 51.5,72.5 Z M 41.5,73.5 C 43.4411,75.0106 43.9411,77.0106 43,79.5C 41.6814,77.7505 41.1814,75.7505 41.5,73.5 Z M 44.5,76.5 C 45.8488,75.2035 47.1821,75.3702 48.5,77C 47.5838,77.3742 46.7504,77.8742 46,78.5C 45.7216,77.5842 45.2216,76.9175 44.5,76.5 Z M 40.5,84.5 C 38.233,82.3669 38.0664,80.0335 40,77.5C 40.4966,79.8098 40.6633,82.1432 40.5,84.5 Z M 50.5,77.5 C 51.8333,77.5 53.1667,77.5 54.5,77.5C 54.5,78.5 54.5,79.5 54.5,80.5C 52.8008,80.6602 51.1341,80.4935 49.5,80C 50.2524,79.3292 50.5858,78.4959 50.5,77.5 Z M 20.5,80.5 C 24.9047,81.6255 25.4047,83.6255 22,86.5C 20.4382,84.4961 19.9382,82.4961 20.5,80.5 Z M 55.5,81.5 C 59.1331,81.443 59.2998,82.443 56,84.5C 54.2716,83.6477 54.105,82.6477 55.5,81.5 Z M 25.5,86.5 C 25.6952,90.1924 27.6952,92.0258 31.5,92C 28.8569,93.4356 26.1903,93.6023 23.5,92.5C 22.4181,89.9824 23.0848,87.9824 25.5,86.5 Z M 42.5,86.5 C 44.9893,86.5394 46.4893,87.5394 47,89.5C 44.4478,90.4872 42.9478,89.4872 42.5,86.5 Z M 38.5,90.5 C 39.8488,89.2035 41.1821,89.3702 42.5,91C 41.0715,91.5791 39.7382,91.4124 38.5,90.5 Z"/></g>
<g><path style="opacity:0.319" fill="#0e70b4" d="M -0.5,59.5 C -0.5,58.5 -0.5,57.5 -0.5,56.5C 2.86908,54.8076 5.70242,55.4743 8,58.5C 9.34206,52.8249 7.67539,51.4915 3,54.5C 2.5,54.1667 2,53.8333 1.5,53.5C 8.60765,48.745 11.441,50.745 10,59.5C 9.4387,60.0219 8.77203,60.3552 8,60.5C 6.0561,59.5606 4.38944,58.2273 3,56.5C 1.9609,57.7101 0.794229,58.7101 -0.5,59.5 Z"/></g>
<g><path style="opacity:0.74" fill="#f0941e" d="M 79.5,54.5 C 83.8461,54.3343 88.1794,54.501 92.5,55C 95.4201,57.0343 97.2535,59.8677 98,63.5C 98.5,61.6667 99.6667,60.5 101.5,60C 104.167,59.3333 106.833,59.3333 109.5,60C 110.701,60.9025 111.535,62.0692 112,63.5C 114.911,59.7229 118.744,58.5563 123.5,60C 126.887,62.5359 126.887,64.5359 123.5,66C 126.379,67.6658 127.212,70.1658 126,73.5C 121.01,76.4615 116.344,76.1282 112,72.5C 107.404,76.4322 102.737,76.4322 98,72.5C 97.6667,70.8333 97.3333,69.1667 97,67.5C 96.496,71.0202 94.6626,73.5202 91.5,75C 87.5138,75.4988 83.5138,75.6655 79.5,75.5C 79.5,68.5 79.5,61.5 79.5,54.5 Z M 84.5,58.5 C 89.1272,58.1062 91.4606,60.1062 91.5,64.5C 91.664,69.3329 89.3306,71.3329 84.5,70.5C 84.5,66.5 84.5,62.5 84.5,58.5 Z M 103.5,63.5 C 105.103,63.3118 106.437,63.8118 107.5,65C 105.833,65.6667 104.167,65.6667 102.5,65C 103.056,64.6174 103.389,64.1174 103.5,63.5 Z M 112.5,69.5 C 112.351,68.448 112.517,67.448 113,66.5C 113.772,67.8491 114.939,68.6824 116.5,69C 115.207,69.49 113.873,69.6567 112.5,69.5 Z M 112.5,69.5 C 110.169,70.3173 107.669,70.9839 105,71.5C 103.941,71.3699 103.108,70.8699 102.5,70C 105.817,69.5017 109.15,69.335 112.5,69.5 Z M 117.5,69.5 C 118.922,69.7086 120.255,70.2086 121.5,71C 119.537,71.8442 118.204,71.3442 117.5,69.5 Z"/></g>
<g><path style="opacity:0.732" fill="#f0941e" d="M 143.5,54.5 C 145.167,54.5 146.833,54.5 148.5,54.5C 148.5,61.5 148.5,68.5 148.5,75.5C 146.833,75.5 145.167,75.5 143.5,75.5C 143.5,68.5 143.5,61.5 143.5,54.5 Z"/></g>
<g><path style="opacity:0.695" fill="#f0941e" d="M 196.5,54.5 C 197.833,54.5 199.167,54.5 200.5,54.5C 200.5,60.5 200.5,66.5 200.5,72.5C 203.5,72.5 206.5,72.5 209.5,72.5C 209.5,73.5 209.5,74.5 209.5,75.5C 205.167,75.5 200.833,75.5 196.5,75.5C 196.5,68.5 196.5,61.5 196.5,54.5 Z"/></g>
<g><path style="opacity:0.644" fill="#f0941e" d="M 239.5,63.5 C 239.5,66.1667 239.5,68.8333 239.5,71.5C 238.636,72.6883 237.636,73.8549 236.5,75C 228.404,75.2539 220.404,75.2539 212.5,75C 210.016,72.7162 209.849,70.2162 212,67.5C 214.841,66.5796 217.674,65.5796 220.5,64.5C 219.672,63.5853 218.672,62.9186 217.5,62.5C 215.929,64.415 213.929,65.415 211.5,65.5C 210.965,62.7615 211.965,60.9282 214.5,60C 217.303,59.245 219.97,59.5783 222.5,61C 223.136,64.7896 223.803,68.6229 224.5,72.5C 225.496,66.5368 225.829,60.5368 225.5,54.5C 226.833,54.5 228.167,54.5 229.5,54.5C 229.338,56.5273 229.505,58.5273 230,60.5C 234.172,58.6031 237.338,59.6031 239.5,63.5 Z M 231.5,62.5 C 236.013,64.1937 237.18,67.1937 235,71.5C 231.276,73.0418 229.443,71.7085 229.5,67.5C 229.437,65.4861 230.103,63.8194 231.5,62.5 Z M 217.5,68.5 C 219.355,68.272 220.188,68.9387 220,70.5C 218.556,72.1554 216.722,72.822 214.5,72.5C 214.5,71.5 214.5,70.5 214.5,69.5C 215.791,69.7373 216.791,69.404 217.5,68.5 Z"/></g>
<g><path style="opacity:0.719" fill="#f0941e" d="M 173.5,63.5 C 176.107,59.6847 179.774,58.518 184.5,60C 186.671,61.1739 187.671,63.0072 187.5,65.5C 183.757,65.4592 183.59,66.1259 187,67.5C 187.944,70.3471 187.444,72.8471 185.5,75C 182.5,75.6667 179.5,75.6667 176.5,75C 175.333,74.5 174.5,73.6667 174,72.5C 173.517,73.448 173.351,74.448 173.5,75.5C 171.208,75.7564 169.041,75.4231 167,74.5C 166.825,70.789 166.325,67.1224 165.5,63.5C 164.236,67.18 164.236,70.8466 165.5,74.5C 160.964,74.7468 156.297,74.9135 151.5,75C 150.398,72.5991 150.231,70.0991 151,67.5C 155.705,66.1177 155.539,65.4511 150.5,65.5C 150.393,63.0968 151.393,61.2635 153.5,60C 156.167,59.3333 158.833,59.3333 161.5,60C 162.667,60.5 163.5,61.3333 164,62.5C 165.413,60.3476 166.246,58.0143 166.5,55.5C 168.167,55.5 169.833,55.5 171.5,55.5C 172.167,58.1667 172.833,60.8333 173.5,63.5 Z M 156.5,63.5 C 157.376,63.3691 158.043,63.7025 158.5,64.5C 156.192,65.8734 155.525,65.5401 156.5,63.5 Z M 173.5,63.5 C 173.738,66.1483 175.072,67.9817 177.5,69C 175.559,69.3036 173.893,70.1369 172.5,71.5C 172.167,70.1667 171.833,68.8333 171.5,67.5C 171.585,65.6672 172.252,64.3339 173.5,63.5 Z M 179.5,64.5 C 180.386,63.2241 181.386,63.2241 182.5,64.5C 181.767,65.087 180.767,65.087 179.5,64.5 Z M 157.5,68.5 C 160.028,69.5179 159.861,70.5179 157,71.5C 156.5,71.1667 156,70.8333 155.5,70.5C 156.243,69.8182 156.909,69.1515 157.5,68.5 Z M 178.5,69.5 C 179.922,69.7086 181.255,70.2086 182.5,71C 180.537,71.8442 179.204,71.3442 178.5,69.5 Z"/></g>
<g><path style="opacity:0.755" fill="#f0941e" d="M 127.5,59.5 C 131.399,60.1829 135.399,60.3496 139.5,60C 140.333,60.8333 141.167,61.6667 142,62.5C 144.994,71.6475 141.827,75.9809 132.5,75.5C 132.5,77.5 132.5,79.5 132.5,81.5C 130.833,81.5 129.167,81.5 127.5,81.5C 127.5,74.1667 127.5,66.8333 127.5,59.5 Z M 134.5,63.5 C 136.89,63.6848 137.89,65.0182 137.5,67.5C 137.631,71.1657 136.131,72.1657 133,70.5C 132.167,67.829 132.667,65.4957 134.5,63.5 Z"/></g>
<g><path style="opacity:0.486" fill="#f0941e" d="M 78.5,81.5 C 82.2644,81.5883 85.7644,82.5883 89,84.5C 90.3561,83.6198 91.8561,83.2865 93.5,83.5C 93.5,86.8333 93.5,90.1667 93.5,93.5C 91.8561,93.7135 90.3561,93.3802 89,92.5C 88.8078,90.4233 88.3078,88.4233 87.5,86.5C 86.8333,88.8333 86.1667,91.1667 85.5,93.5C 84.1667,81.5 82.8333,81.5 81.5,93.5C 80.701,89.3986 79.701,85.3986 78.5,81.5 Z"/></g>
<g><path style="opacity:0.533" fill="#f0941e" d="M 107.5,81.5 C 108.794,83.0478 109.461,85.0478 109.5,87.5C 109.167,89.5 108.833,91.5 108.5,93.5C 107.509,89.5546 107.176,85.5546 107.5,81.5 Z"/></g>
<g><path style="opacity:0.415" fill="#f0941e" d="M 121.5,81.5 C 122.966,82.347 123.8,83.6803 124,85.5C 125.667,82.8333 127.333,82.8333 129,85.5C 130.168,88.8926 129.334,91.5592 126.5,93.5C 125.522,93.0233 124.689,92.3567 124,91.5C 121.731,94.0544 119.398,94.0544 117,91.5C 116.333,88.8333 116.333,86.1667 117,83.5C 118,82.1667 119,82.1667 120,83.5C 120.717,82.9558 121.217,82.2891 121.5,81.5 Z M 125.5,86.5 C 126.586,86.62 127.253,87.2867 127.5,88.5C 127.167,89.1667 126.833,89.8333 126.5,90.5C 125.571,89.3112 125.238,87.9778 125.5,86.5 Z"/></g>
<g><path style="opacity:0.533" fill="#f0941e" d="M 143.5,81.5 C 144.794,83.0478 145.461,85.0478 145.5,87.5C 145.167,89.5 144.833,91.5 144.5,93.5C 143.509,89.5546 143.176,85.5546 143.5,81.5 Z"/></g>
<g><path style="opacity:0.486" fill="#f0941e" d="M 148.5,81.5 C 150.888,82.2187 152.388,83.8854 153,86.5C 154,79.8333 155,79.8333 156,86.5C 157.03,84.2236 158.53,83.5569 160.5,84.5C 161.833,87.1667 161.833,89.8333 160.5,92.5C 158.191,93.9327 156.691,93.266 156,90.5C 155.751,91.624 155.251,92.624 154.5,93.5C 152.854,92.2214 151.687,90.5547 151,88.5C 150.798,90.2556 150.298,91.9223 149.5,93.5C 148.509,89.5546 148.176,85.5546 148.5,81.5 Z"/></g>
<g><path style="opacity:0.454" fill="#f0941e" d="M 200.5,95.5 C 198.833,95.5 197.167,95.5 195.5,95.5C 193.992,94.2536 192.492,92.9203 191,91.5C 189.373,92.5323 188.207,93.8656 187.5,95.5C 186.833,95.5 186.167,95.5 185.5,95.5C 185.5,91.5 185.5,87.5 185.5,83.5C 187.722,83.178 189.556,83.8446 191,85.5C 192.333,80.1667 193.667,80.1667 195,85.5C 196.444,83.8446 198.278,83.178 200.5,83.5C 200.5,87.5 200.5,91.5 200.5,95.5 Z M 187.5,86.5 C 188.586,86.62 189.253,87.2867 189.5,88.5C 189.167,89.1667 188.833,89.8333 188.5,90.5C 187.571,89.3112 187.238,87.9778 187.5,86.5 Z M 196.5,86.5 C 197.586,86.62 198.253,87.2867 198.5,88.5C 198.167,89.1667 197.833,89.8333 197.5,90.5C 196.571,89.3112 196.238,87.9778 196.5,86.5 Z"/></g>
<g><path style="opacity:0.455" fill="#f0941e" d="M 224.5,81.5 C 226.423,85.0293 227.089,89.0293 226.5,93.5C 224.533,93.7394 222.699,93.4061 221,92.5C 220.176,89.1177 220.343,85.7844 221.5,82.5C 223.225,84.0916 224.225,83.7583 224.5,81.5 Z M 222.5,85.5 C 223.693,85.9704 224.36,86.9704 224.5,88.5C 224.333,89.5 224.167,90.5 224,91.5C 222.681,89.7505 222.181,87.7505 222.5,85.5 Z"/></g>
<g><path style="opacity:0.457" fill="#f0941e" d="M 94.5,83.5 C 98.9126,82.9847 101.246,84.9847 101.5,89.5C 101.654,88.0909 101.821,86.4242 102,84.5C 103.113,83.2889 104.28,83.2889 105.5,84.5C 105.931,87.0479 105.931,89.7146 105.5,92.5C 103.191,93.9327 101.691,93.266 101,90.5C 100.751,91.624 100.251,92.624 99.5,93.5C 98.1667,84.1667 96.8333,84.1667 95.5,93.5C 94.513,90.2317 94.1796,86.8984 94.5,83.5 Z"/></g>
<g><path style="opacity:0.513" fill="#f0941e" d="M 111.5,83.5 C 112.833,83.5 114.167,83.5 115.5,83.5C 115.5,86.8333 115.5,90.1667 115.5,93.5C 113.856,93.7135 112.356,93.3802 111,92.5C 110.264,89.408 110.431,86.408 111.5,83.5 Z"/></g>
<g><path style="opacity:0.445" fill="#f0941e" d="M 130.5,83.5 C 133.238,82.9648 135.072,83.9648 136,86.5C 137.465,84.085 139.632,83.085 142.5,83.5C 142.5,86.8333 142.5,90.1667 142.5,93.5C 139.458,92.4589 136.458,92.4589 133.5,93.5C 133.48,84.2589 132.814,84.2589 131.5,93.5C 130.513,90.2317 130.18,86.8984 130.5,83.5 Z M 138.5,86.5 C 139.586,86.62 140.253,87.2867 140.5,88.5C 140.167,89.1667 139.833,89.8333 139.5,90.5C 138.571,89.3112 138.238,87.9778 138.5,86.5 Z"/></g>
<g><path style="opacity:0.451" fill="#f0941e" d="M 162.5,83.5 C 164.062,85.3717 165.062,87.7051 165.5,90.5C 166.474,88.2573 166.808,85.924 166.5,83.5C 168.541,83.8541 170.374,83.8541 172,83.5C 172.333,84.1667 172.667,84.8333 173,85.5C 175.276,82.9364 177.276,83.2697 179,86.5C 180.03,84.2236 181.53,83.5569 183.5,84.5C 184.833,87.1667 184.833,89.8333 183.5,92.5C 181.191,93.9327 179.691,93.266 179,90.5C 178.07,92.5453 176.57,93.3787 174.5,93C 172.926,91.1741 172.093,89.0075 172,86.5C 171.503,88.8098 171.337,91.1432 171.5,93.5C 169.876,93.6399 168.71,92.9733 168,91.5C 166.806,93.5254 165.306,93.8587 163.5,92.5C 162.516,89.5719 162.183,86.5719 162.5,83.5 Z M 174.5,86.5 C 175.586,86.62 176.253,87.2867 176.5,88.5C 176.167,89.1667 175.833,89.8333 175.5,90.5C 174.571,89.3112 174.238,87.9778 174.5,86.5 Z"/></g>
<g><path style="opacity:0.462" fill="#f0941e" d="M 203.5,83.5 C 205.113,83.9443 206.28,84.9443 207,86.5C 207.483,85.552 207.649,84.552 207.5,83.5C 209.262,83.3573 210.929,83.6906 212.5,84.5C 213.833,87.5 213.833,90.5 212.5,93.5C 211.167,84.1667 209.833,84.1667 208.5,93.5C 207.749,92.624 207.249,91.624 207,90.5C 206.309,93.266 204.809,93.9327 202.5,92.5C 201.085,89.205 201.419,86.205 203.5,83.5 Z"/></g>
<g><path style="opacity:0.514" fill="#f0941e" d="M 216.5,83.5 C 218.511,84.4166 219.511,86.0832 219.5,88.5C 217.833,95.1667 216.167,95.1667 214.5,88.5C 214.724,86.5453 215.391,84.8787 216.5,83.5 Z"/></g>
<g><path style="opacity:0.414" fill="#f0941e" d="M 239.5,85.5 C 239.5,86.1667 239.5,86.8333 239.5,87.5C 238.167,87.8333 238.167,88.1667 239.5,88.5C 239.5,89.8333 239.5,91.1667 239.5,92.5C 237.128,93.9137 234.961,93.5803 233,91.5C 229.536,94.1836 227.703,93.1836 227.5,88.5C 227.817,83.6735 229.817,82.6735 233.5,85.5C 234.5,84.8333 235.5,84.1667 236.5,83.5C 237.518,84.1925 238.518,84.8592 239.5,85.5 Z M 235.5,89.5 C 233.738,89.3573 232.071,89.6906 230.5,90.5C 229.386,89.277 229.219,87.9437 230,86.5C 232.209,86.9892 234.042,87.9892 235.5,89.5 Z"/></g>
</svg>
