<?xml version="1.0" encoding="UTF-8"?>
<!DOCTYPE svg PUBLIC "-//W3C//DTD SVG 1.1//EN" "http://www.w3.org/Graphics/SVG/1.1/DTD/svg11.dtd">
<svg xmlns="http://www.w3.org/2000/svg" version="1.1" width="962px" height="213px" style="shape-rendering:geometricPrecision; text-rendering:geometricPrecision; image-rendering:optimizeQuality; fill-rule:evenodd; clip-rule:evenodd" xmlns:xlink="http://www.w3.org/1999/xlink">
<g><path style="opacity:0.992" fill="#06549b" d="M 5.5,-0.5 C 67.5,-0.5 129.5,-0.5 191.5,-0.5C 191.5,70.5 191.5,141.5 191.5,212.5C 129.5,212.5 67.5,212.5 5.5,212.5C 5.5,141.5 5.5,70.5 5.5,-0.5 Z"/></g>
<g><path style="opacity:0.995" fill="#f4821f" d="M 191.5,-0.5 C 253.5,-0.5 315.5,-0.5 377.5,-0.5C 377.5,70.5 377.5,141.5 377.5,212.5C 315.5,212.5 253.5,212.5 191.5,212.5C 191.5,141.5 191.5,70.5 191.5,-0.5 Z"/></g>
<g><path style="opacity:1" fill="#fcfcfd" d="M 106.5,111.5 C 107.404,112.209 107.737,113.209 107.5,114.5C 106.218,118.954 103.885,122.787 100.5,126C 106.308,125.271 111.642,123.104 116.5,119.5C 116.833,119.833 117.167,120.167 117.5,120.5C 114.126,127.709 109.126,133.542 102.5,138C 110.83,136.172 118.496,132.672 125.5,127.5C 125.833,127.833 126.167,128.167 126.5,128.5C 120.689,137.478 113.355,144.978 104.5,151C 116.061,147.373 126.728,142.54 136.5,136.5C 133.133,143.368 128.466,149.201 122.5,154C 115.663,158.253 108.663,162.253 101.5,166C 117.581,162.081 132.081,154.914 145,144.5C 145.167,144.833 145.333,145.167 145.5,145.5C 142.527,149.94 139.194,154.107 135.5,158C 124.237,166.885 112.071,174.385 99,180.5C 81.6174,172.312 65.9507,161.645 52,148.5C 45.802,140.436 41.4687,131.436 39,121.5C 38.5,91.8352 38.3334,62.1685 38.5,32.5C 41.5,32.5 44.5,32.5 47.5,32.5C 47.5,34.5 47.5,36.5 47.5,38.5C 51.5,38.5 55.5,38.5 59.5,38.5C 59.5,36.5 59.5,34.5 59.5,32.5C 62.8333,32.5 66.1667,32.5 69.5,32.5C 69.5,34.5 69.5,36.5 69.5,38.5C 73.5,38.5 77.5,38.5 81.5,38.5C 81.5,36.5 81.5,34.5 81.5,32.5C 84.1667,32.5 86.8333,32.5 89.5,32.5C 89.3334,57.1689 89.5,81.8356 90,106.5C 91.5895,113.214 95.7562,115.714 102.5,114C 103.984,113.338 105.317,112.504 106.5,111.5 Z"/></g>
<g><path style="opacity:1" fill="#4e86b8" d="M 108.5,32.5 C 108.169,58.0055 108.502,83.3388 109.5,108.5C 108.952,110.626 108.285,112.626 107.5,114.5C 107.737,113.209 107.404,112.209 106.5,111.5C 107.158,85.0689 107.825,58.7355 108.5,32.5 Z"/></g>
<g><path style="opacity:1" fill="#fdfdfe" d="M 108.5,32.5 C 111.167,32.5 113.833,32.5 116.5,32.5C 116.667,53.8359 116.5,75.1693 116,96.5C 115.109,101.288 112.942,105.288 109.5,108.5C 108.502,83.3388 108.169,58.0055 108.5,32.5 Z"/></g>
<g><path style="opacity:1" fill="#f8fafc" d="M 129.5,32.5 C 132.167,32.5 134.833,32.5 137.5,32.5C 137.667,58.5021 137.5,84.5021 137,110.5C 135.806,115.888 133.306,120.555 129.5,124.5C 129.467,93.9334 129.467,63.2667 129.5,32.5 Z"/></g>
<g><path style="opacity:1" fill="#edf3f8" d="M 150.5,32.5 C 153.5,32.5 156.5,32.5 159.5,32.5C 159.667,61.1686 159.5,89.8353 159,118.5C 157.733,127.365 154.067,135.031 148,141.5C 148.76,137.952 149.426,134.285 150,130.5C 150.5,97.835 150.667,65.1684 150.5,32.5 Z"/></g>
<g><path style="opacity:1" fill="#fffaf7" d="M 225.5,32.5 C 264.167,32.5 302.833,32.5 341.5,32.5C 341.667,57.8355 341.5,83.1689 341,108.5C 335.646,143.672 316.48,167.672 283.5,180.5C 258.653,171.821 241.486,155.154 232,130.5C 228.818,122.801 226.818,114.801 226,106.5C 225.5,81.8356 225.333,57.1689 225.5,32.5 Z"/></g>
<g><path style="opacity:1" fill="#fefefe" d="M 126.5,104.5 C 125.553,109.727 123.053,114.06 119,117.5C 118.51,116.207 118.343,114.873 118.5,113.5C 119.498,89.0056 119.831,64.339 119.5,39.5C 121.833,39.5 124.167,39.5 126.5,39.5C 126.5,61.1667 126.5,82.8333 126.5,104.5 Z"/></g>
<g><path style="opacity:1" fill="#a8c4dc" d="M 126.5,104.5 C 126.5,82.8333 126.5,61.1667 126.5,39.5C 124.167,39.5 121.833,39.5 119.5,39.5C 119.831,64.339 119.498,89.0056 118.5,113.5C 118.5,88.5 118.5,63.5 118.5,38.5C 121.5,38.5 124.5,38.5 127.5,38.5C 127.831,60.673 127.497,82.673 126.5,104.5 Z"/></g>
<g><path style="opacity:1" fill="#5c90be" d="M 148.5,39.5 C 145.833,39.5 143.167,39.5 140.5,39.5C 140.831,66.6718 140.498,93.6718 139.5,120.5C 139.5,93.1667 139.5,65.8333 139.5,38.5C 142.713,38.19 145.713,38.5233 148.5,39.5 Z"/></g>
<g><path style="opacity:1" fill="#fbfcfd" d="M 148.5,39.5 C 148.667,64.5022 148.5,89.5022 148,114.5C 146.786,122.262 143.452,128.929 138,134.5C 138.983,129.962 139.483,125.295 139.5,120.5C 140.498,93.6718 140.831,66.6718 140.5,39.5C 143.167,39.5 145.833,39.5 148.5,39.5 Z"/></g>
<g><path style="opacity:1" fill="#f68a30" d="M 239.5,39.5 C 246.613,39.1072 253.613,39.7739 260.5,41.5C 268.081,39.2294 275.747,38.8961 283.5,40.5C 283.5,51.5 283.5,62.5 283.5,73.5C 267.883,74.6914 252.216,74.6914 236.5,73.5C 236.5,62.5 236.5,51.5 236.5,40.5C 237.791,40.7373 238.791,40.404 239.5,39.5 Z"/></g>
<g><path style="opacity:1" fill="#fff4eb" d="M 238.5,41.5 C 243.844,41.334 249.177,41.5006 254.5,42C 256.101,42.2734 257.601,42.7734 259,43.5C 259.5,51.4931 259.666,59.4931 259.5,67.5C 252.529,66.7103 245.529,66.3769 238.5,66.5C 238.5,58.1667 238.5,49.8333 238.5,41.5 Z"/></g>
<g><path style="opacity:1" fill="#fff4ec" d="M 266.5,41.5 C 271.762,41.1953 276.928,41.5286 282,42.5C 282.5,50.4931 282.666,58.4931 282.5,66.5C 275.457,66.2803 268.457,66.6136 261.5,67.5C 261.334,59.4931 261.5,51.4931 262,43.5C 263.622,42.9011 265.122,42.2344 266.5,41.5 Z"/></g>
<g><path style="opacity:1" fill="#f9a45f" d="M 243.5,44.5 C 248.157,43.9939 252.49,44.8272 256.5,47C 251.798,47.8283 247.131,47.6616 242.5,46.5C 242.863,45.8165 243.196,45.1499 243.5,44.5 Z"/></g>
<g><path style="opacity:1" fill="#f68e36" d="M 308.5,38.5 C 321.052,38.5347 325.885,44.5347 323,56.5C 320.356,61.0756 316.522,62.7423 311.5,61.5C 322.196,57.9562 324.196,51.7895 317.5,43C 309.955,39.8783 304.955,42.2116 302.5,50C 301.4,50.4317 300.733,49.9317 300.5,48.5C 302.079,44.2584 304.746,40.925 308.5,38.5 Z"/></g>
<g><path style="opacity:1" fill="#f89848" d="M 268.5,44.5 C 271.187,44.3359 273.854,44.5026 276.5,45C 277.308,45.3076 277.975,45.8076 278.5,46.5C 273.833,47.8333 269.167,47.8333 264.5,46.5C 265.949,45.8281 267.282,45.1614 268.5,44.5 Z"/></g>
<g><path style="opacity:1" fill="#f6903a" d="M 245.5,49.5 C 249.499,49.0912 253.166,49.9246 256.5,52C 252.495,51.3937 248.495,51.5604 244.5,52.5C 243.833,52.1667 243.167,51.8333 242.5,51.5C 243.602,50.8243 244.602,50.1577 245.5,49.5 Z"/></g>
<g><path style="opacity:1" fill="#f7933f" d="M 267.5,49.5 C 270.518,49.3354 273.518,49.502 276.5,50C 277.308,50.3076 277.975,50.8076 278.5,51.5C 274.552,51.4188 270.552,51.7521 266.5,52.5C 265.833,52.1667 265.167,51.8333 264.5,51.5C 265.602,50.8243 266.602,50.1577 267.5,49.5 Z"/></g>
<g><path style="opacity:0.967" fill="#02549a" d="M 569.5,50.5 C 577.5,50.5 585.5,50.5 593.5,50.5C 593.333,67.8365 593.5,85.1699 594,102.5C 598.971,94.6968 604.138,87.0302 609.5,79.5C 618.167,78.1667 626.833,78.1667 635.5,79.5C 628.293,88.8701 621.293,98.3701 614.5,108C 622.152,119.323 629.818,130.656 637.5,142C 627.839,142.5 618.172,142.666 608.5,142.5C 603.501,133.312 598.668,123.978 594,114.5C 593.5,123.827 593.334,133.161 593.5,142.5C 585.5,142.5 577.5,142.5 569.5,142.5C 569.5,111.833 569.5,81.1667 569.5,50.5 Z"/></g>
<g><path style="opacity:0.949" fill="#f5821e" d="M 924.5,51.5 C 934.451,51.6878 944.118,53.3545 953.5,56.5C 953.827,61.2137 953.493,65.8804 952.5,70.5C 940.69,63.5449 928.023,61.7115 914.5,65C 906.554,70.2966 906.554,75.63 914.5,81C 924.925,85.3777 935.258,90.0443 945.5,95C 957.876,102.945 962.042,114.112 958,128.5C 953.456,136.689 946.623,141.856 937.5,144C 925.837,145.967 914.17,145.967 902.5,144C 898.006,143.337 893.839,141.837 890,139.5C 889.333,134.167 889.333,128.833 890,123.5C 903.759,133.323 918.592,135.49 934.5,130C 941.406,123 940.74,116.667 932.5,111C 924.512,108.002 916.512,105.002 908.5,102C 892.219,94.1695 887.053,81.6695 893,64.5C 901.592,55.3627 912.092,51.0294 924.5,51.5 Z"/></g>
<g><path style="opacity:0.948" fill="#f5821e" d="M 709.5,54.5 C 715.842,54.3338 722.175,54.5005 728.5,55C 729.025,55.6924 729.692,56.1924 730.5,56.5C 744.912,76.3244 759.079,96.3244 773,116.5C 773.5,95.836 773.667,75.1694 773.5,54.5C 777.833,54.5 782.167,54.5 786.5,54.5C 786.5,83.8333 786.5,113.167 786.5,142.5C 779.825,142.666 773.158,142.5 766.5,142C 751.644,122.136 737.144,101.969 723,81.5C 722.5,101.831 722.333,122.164 722.5,142.5C 718.167,142.5 713.833,142.5 709.5,142.5C 709.5,113.167 709.5,83.8333 709.5,54.5 Z"/></g>
<g><path style="opacity:0.952" fill="#f5821e" d="M 802.5,54.5 C 809.167,54.5 815.833,54.5 822.5,54.5C 822.333,75.8359 822.5,97.1693 823,118.5C 825.1,128.427 831.266,133.427 841.5,133.5C 850.163,133.588 855.996,129.588 859,121.5C 860.446,99.2114 860.946,76.8781 860.5,54.5C 867.167,54.5 873.833,54.5 880.5,54.5C 880.667,74.8361 880.5,95.1694 880,115.5C 879.699,127.608 874.199,136.442 863.5,142C 856.343,144.249 849.01,145.749 841.5,146.5C 829.69,146.566 819.357,142.9 810.5,135.5C 805.96,130.388 803.46,124.388 803,117.5C 802.5,96.5026 802.333,75.5026 802.5,54.5 Z"/></g>
<g><path style="opacity:1" fill="#f89b4e" d="M 244.5,54.5 C 248.794,54.1816 252.794,55.0149 256.5,57C 251.798,57.8283 247.131,57.6616 242.5,56.5C 243.243,55.8182 243.909,55.1515 244.5,54.5 Z"/></g>
<g><path style="opacity:1" fill="#f8984a" d="M 268.5,54.5 C 272.064,54.1506 275.398,54.8173 278.5,56.5C 273.833,57.8333 269.167,57.8333 264.5,56.5C 265.949,55.8281 267.282,55.1614 268.5,54.5 Z"/></g>
<g><path style="opacity:0.953" fill="#00529b" d="M 401.5,56.5 C 415.171,56.3334 428.837,56.5001 442.5,57C 469.826,58.2224 483.159,72.3891 482.5,99.5C 483.623,123.551 472.29,137.718 448.5,142C 432.837,142.5 417.17,142.667 401.5,142.5C 401.5,113.833 401.5,85.1667 401.5,56.5 Z M 425.5,74.5 C 451.539,73.0339 462.039,85.0339 457,110.5C 454.186,117.663 449.019,122.163 441.5,124C 436.177,124.499 430.844,124.666 425.5,124.5C 425.5,107.833 425.5,91.1667 425.5,74.5 Z"/></g>
<g><path style="opacity:1" fill="#f7913c" d="M 243.5,59.5 C 248.012,59.1486 252.345,59.8152 256.5,61.5C 252.381,61.429 248.214,61.7624 244,62.5C 242.317,61.8235 242.15,60.8235 243.5,59.5 Z"/></g>
<g><path style="opacity:1" fill="#f89748" d="M 267.5,59.5 C 270.85,59.335 274.183,59.5017 277.5,60C 277.957,60.414 278.291,60.914 278.5,61.5C 273.833,62.8333 269.167,62.8333 264.5,61.5C 265.602,60.8243 266.602,60.1577 267.5,59.5 Z"/></g>
<g><path style="opacity:1" fill="#f78f39" d="M 311.5,56.5 C 310.508,59.7786 310.341,63.1119 311,66.5C 311.377,67.9423 312.21,68.9423 313.5,69.5C 318.803,73.8157 323.636,73.149 328,67.5C 329.193,62.8295 328.359,58.6629 325.5,55C 325.85,53.7425 326.517,53.4092 327.5,54C 332.978,60.5452 332.645,66.8785 326.5,73C 321.505,76.4724 316.672,76.3057 312,72.5C 305.537,76.9438 299.87,75.9438 295,69.5C 291.469,56.6998 296.302,50.8664 309.5,52C 310.766,52.3095 311.933,52.8095 313,53.5C 315.218,51.3813 317.718,51.048 320.5,52.5C 318.5,53.3333 316.5,54.1667 314.5,55C 315.594,58.9911 314.594,59.4911 311.5,56.5 Z"/></g>
<g><path style="opacity:1" fill="#f68f39" d="M 313.5,69.5 C 313.833,67.5 314.167,65.5 314.5,63.5C 315.5,63.5 316.5,63.5 317.5,63.5C 317.625,66.6082 316.292,68.6082 313.5,69.5 Z"/></g>
<g><path style="opacity:1" fill="#fff7f1" d="M 311.5,56.5 C 310.5,56.5 309.5,56.5 308.5,56.5C 306.619,61.7117 307.286,66.5451 310.5,71C 304.923,73.8232 300.423,72.6565 297,67.5C 295.18,57.9954 299.013,53.4954 308.5,54C 309.942,54.3768 310.942,55.2101 311.5,56.5 Z"/></g>
<g><path style="opacity:1" fill="#f68e37" d="M 301.5,56.5 C 303.988,55.0823 305.654,55.9156 306.5,59C 306.167,59.5 305.833,60 305.5,60.5C 303.784,59.4513 302.451,58.118 301.5,56.5 Z"/></g>
<g><path style="opacity:0.945" fill="#00529b" d="M 662.5,76.5 C 674.281,75.3118 684.448,78.6451 693,86.5C 698.802,95.9252 701.636,106.259 701.5,117.5C 686.83,117.333 672.163,117.5 657.5,118C 659.487,123.671 663.487,127.004 669.5,128C 678.26,128.958 686.594,127.458 694.5,123.5C 695.495,129.128 695.829,134.794 695.5,140.5C 680.489,145.96 665.489,145.794 650.5,140C 636.304,130.11 631.138,116.61 635,99.5C 639.806,86.5203 648.973,78.8536 662.5,76.5 Z M 664.5,92.5 C 672.731,91.2787 678.064,94.612 680.5,102.5C 672.862,103.497 665.196,103.831 657.5,103.5C 657.829,98.5139 660.163,94.8473 664.5,92.5 Z"/></g>
<g><path style="opacity:0.944" fill="#00529b" d="M 489.5,78.5 C 497.167,78.5 504.833,78.5 512.5,78.5C 512.099,91.5521 512.599,104.552 514,117.5C 517.137,124.812 522.303,126.479 529.5,122.5C 531.699,120.617 533.199,118.284 534,115.5C 534.5,103.171 534.667,90.8378 534.5,78.5C 542.5,78.5 550.5,78.5 558.5,78.5C 558.5,99.8333 558.5,121.167 558.5,142.5C 551.5,142.5 544.5,142.5 537.5,142.5C 537.665,139.482 537.498,136.482 537,133.5C 531.714,141.089 524.381,144.756 515,144.5C 500.103,144.602 491.77,137.269 490,122.5C 489.5,107.837 489.333,93.1705 489.5,78.5 Z"/></g>
<g><path style="opacity:1" fill="#f58525" d="M 233.5,82.5 C 266.833,82.5 300.167,82.5 333.5,82.5C 337.199,108.551 331.032,131.885 315,152.5C 306.187,161.823 295.687,168.49 283.5,172.5C 266.677,167.182 253.843,156.849 245,141.5C 234.717,123.141 230.883,103.474 233.5,82.5 Z"/></g>
<g><path style="opacity:1" fill="#fff5ed" d="M 321.5,106.5 C 321.082,107.222 320.416,107.722 319.5,108C 307.134,108.773 294.8,108.607 282.5,107.5C 282.186,111.839 280.186,114.839 276.5,116.5C 276.682,118.591 276.348,120.591 275.5,122.5C 274.726,123.711 273.893,123.711 273,122.5C 272.4,124.91 271.234,126.91 269.5,128.5C 268.833,128.5 268.167,128.5 267.5,128.5C 266.108,126.727 264.941,124.727 264,122.5C 262.75,123.573 261.416,123.573 260,122.5C 257.359,122.903 255.026,123.903 253,125.5C 251.196,120.577 249.696,115.577 248.5,110.5C 250.97,113.823 253.304,117.323 255.5,121C 257.134,121.494 258.801,121.66 260.5,121.5C 260.5,119.833 260.5,118.167 260.5,116.5C 259.5,116.5 258.5,116.5 257.5,116.5C 256.83,110.992 253.996,106.992 249,104.5C 248.178,101.883 247.678,99.2165 247.5,96.5C 248.958,98.9323 250.125,101.599 251,104.5C 254.717,106.945 255.217,106.279 252.5,102.5C 253.615,101.402 253.615,100.235 252.5,99C 253.871,96.6813 254.538,94.1813 254.5,91.5C 257.53,91.0924 260.53,90.4257 263.5,89.5C 267.01,90.7289 270.51,90.7289 274,89.5C 276.553,90.1941 279.053,91.0274 281.5,92C 282.127,94.3434 283.127,96.5101 284.5,98.5C 283.167,99.8333 283.167,101.167 284.5,102.5C 282.013,105.58 283.013,107.08 287.5,107C 298.855,107.717 310.189,107.551 321.5,106.5 Z"/></g>
<g><path style="opacity:1" fill="#fff6ee" d="M 303.5,96.5 C 303.5,95.1667 303.5,93.8333 303.5,92.5C 310.267,90.0066 316.934,90.5066 323.5,94C 320.624,94.4379 317.957,95.4379 315.5,97C 311.413,97.7625 307.413,97.5958 303.5,96.5 Z"/></g>
<g><path style="opacity:1" fill="#f68c34" d="M 264.5,94.5 C 268.363,94.2981 272.363,94.6315 276.5,95.5C 276.525,100.438 275.525,105.104 273.5,109.5C 272.167,109.5 270.833,109.5 269.5,109.5C 270.597,106.375 271.597,103.208 272.5,100C 271.552,99.5172 270.552,99.3505 269.5,99.5C 269.5,101.5 269.5,103.5 269.5,105.5C 268.448,105.351 267.448,105.517 266.5,106C 267.337,107.011 267.67,108.178 267.5,109.5C 266.167,109.5 264.833,109.5 263.5,109.5C 263.539,106.19 262.206,103.524 259.5,101.5C 260.248,99.5841 260.248,97.5841 259.5,95.5C 261.415,95.7845 263.081,95.4511 264.5,94.5 Z"/></g>
<g><path style="opacity:1" fill="#f5892d" d="M 247.5,96.5 C 247.678,99.2165 248.178,101.883 249,104.5C 253.996,106.992 256.83,110.992 257.5,116.5C 258.5,116.5 259.5,116.5 260.5,116.5C 260.5,118.167 260.5,119.833 260.5,121.5C 258.801,121.66 257.134,121.494 255.5,121C 253.304,117.323 250.97,113.823 248.5,110.5C 247.619,107.071 245.952,104.071 243.5,101.5C 243.19,99.7988 243.69,98.1322 245,96.5C 245.77,95.4019 246.603,95.4019 247.5,96.5 Z"/></g>
<g><path style="opacity:1" fill="#fcd5b5" d="M 247.5,96.5 C 246.603,95.4019 245.77,95.4019 245,96.5C 243.69,98.1322 243.19,99.7988 243.5,101.5C 245.952,104.071 247.619,107.071 248.5,110.5C 245.475,106.961 242.808,103.128 240.5,99C 241.376,96.8542 242.709,95.0208 244.5,93.5C 246.213,93.8793 247.213,94.8793 247.5,96.5 Z"/></g>
<g><path style="opacity:1" fill="#fccea8" d="M 303.5,92.5 C 303.5,93.8333 303.5,95.1667 303.5,96.5C 299.833,96.5 296.167,96.5 292.5,96.5C 292.366,98.2915 292.699,99.9582 293.5,101.5C 292.504,101.586 291.671,101.252 291,100.5C 290.544,101.744 291.044,102.577 292.5,103C 295.167,103.167 297.833,103.333 300.5,103.5C 308.195,102.486 315.862,101.653 323.5,101C 325.18,103.811 324.513,105.644 321.5,106.5C 324.477,103.788 323.977,102.122 320,101.5C 313.328,103.668 306.495,105.001 299.5,105.5C 296.294,105.653 293.294,104.986 290.5,103.5C 287.609,99.6815 287.943,96.1815 291.5,93C 295.486,92.5012 299.486,92.3345 303.5,92.5 Z"/></g>
<g><path style="opacity:1" fill="#fdd6b7" d="M 313.5,138.5 C 313.98,135.995 314.98,133.662 316.5,131.5C 315.139,129.972 313.972,128.305 313,126.5C 312.783,121.447 312.283,116.447 311.5,111.5C 315.527,110.395 319.527,109.229 323.5,108C 325.444,105.847 325.944,103.347 325,100.5C 323.262,99.8729 321.429,99.5396 319.5,99.5C 313.249,100.979 306.916,101.979 300.5,102.5C 297.975,102.497 295.641,102.163 293.5,101.5C 303.656,101.164 313.656,99.9973 323.5,98C 327.213,99.6912 328.379,102.525 327,106.5C 323.301,110.234 318.801,111.901 313.5,111.5C 313.334,116.179 313.501,120.845 314,125.5C 315.5,128.333 317.667,130.5 320.5,132C 318.412,134.48 316.078,136.647 313.5,138.5 Z"/></g>
<g><path style="opacity:1" fill="#f58729" d="M 313.5,138.5 C 311.981,141.021 310.314,143.521 308.5,146C 307,146.5 305.5,147 304,147.5C 302.726,146.465 301.56,145.298 300.5,144C 302.701,142.957 305.034,142.123 307.5,141.5C 308.882,138.808 309.882,135.974 310.5,133C 309.015,130.348 307.015,128.182 304.5,126.5C 302.748,122.69 300.248,119.357 297,116.5C 296.517,117.448 296.351,118.448 296.5,119.5C 290.729,120.526 285.062,122.026 279.5,124C 276.281,131.771 272.281,139.105 267.5,146C 263.472,148.645 260.472,147.812 258.5,143.5C 260.833,142.833 263.167,142.167 265.5,141.5C 266.994,137.184 268.327,132.85 269.5,128.5C 271.234,126.91 272.4,124.91 273,122.5C 273.893,123.711 274.726,123.711 275.5,122.5C 276.348,120.591 276.682,118.591 276.5,116.5C 280.186,114.839 282.186,111.839 282.5,107.5C 294.8,108.607 307.134,108.773 319.5,108C 320.416,107.722 321.082,107.222 321.5,106.5C 324.513,105.644 325.18,103.811 323.5,101C 315.862,101.653 308.195,102.486 300.5,103.5C 297.833,103.333 295.167,103.167 292.5,103C 291.044,102.577 290.544,101.744 291,100.5C 291.671,101.252 292.504,101.586 293.5,101.5C 295.641,102.163 297.975,102.497 300.5,102.5C 306.916,101.979 313.249,100.979 319.5,99.5C 321.429,99.5396 323.262,99.8729 325,100.5C 325.944,103.347 325.444,105.847 323.5,108C 319.527,109.229 315.527,110.395 311.5,111.5C 312.283,116.447 312.783,121.447 313,126.5C 313.972,128.305 315.139,129.972 316.5,131.5C 314.98,133.662 313.98,135.995 313.5,138.5 Z"/></g>
<g><path style="opacity:1" fill="#f6892e" d="M 265.5,110.5 C 267.604,110.201 269.604,110.534 271.5,111.5C 270.5,111.833 269.5,112.167 268.5,112.5C 266.97,112.36 265.97,111.693 265.5,110.5 Z"/></g>
<g><path style="opacity:1" fill="#fee7d3" d="M 304.5,126.5 C 300.585,128.198 300.585,130.198 304.5,132.5C 301.336,135.579 298.336,139.412 295.5,144C 290.025,146.879 285.691,145.879 282.5,141C 285.139,139.054 288.139,138.054 291.5,138C 292.399,135.808 293.399,133.642 294.5,131.5C 292.667,129.167 290.833,126.833 289,124.5C 287.312,126.045 285.312,127.045 283,127.5C 282.487,129.521 281.32,131.021 279.5,132C 279.957,132.414 280.291,132.914 280.5,133.5C 274.916,136.585 270.916,141.085 268.5,147C 264.915,148.675 261.248,148.842 257.5,147.5C 256.11,145.831 255.777,144.164 256.5,142.5C 259.084,141.607 261.751,141.274 264.5,141.5C 265.968,137.294 266.968,132.961 267.5,128.5C 268.167,128.5 268.833,128.5 269.5,128.5C 268.327,132.85 266.994,137.184 265.5,141.5C 263.167,142.167 260.833,142.833 258.5,143.5C 260.472,147.812 263.472,148.645 267.5,146C 272.281,139.105 276.281,131.771 279.5,124C 285.062,122.026 290.729,120.526 296.5,119.5C 296.351,118.448 296.517,117.448 297,116.5C 300.248,119.357 302.748,122.69 304.5,126.5 Z"/></g>
<g><path style="opacity:1" fill="#f5872a" d="M 294.5,121.5 C 297.596,120.907 299.929,121.907 301.5,124.5C 300.756,127.443 300.256,130.443 300,133.5C 298.08,136.339 296.413,139.339 295,142.5C 291.133,145.395 287.967,144.895 285.5,141C 287.9,140.814 290.234,140.314 292.5,139.5C 293.895,136.983 294.895,134.316 295.5,131.5C 294.436,129.041 293.102,126.708 291.5,124.5C 292.993,123.859 293.993,122.859 294.5,121.5 Z"/></g>
<g><path style="opacity:1" fill="#fdd8b9" d="M 304.5,126.5 C 307.015,128.182 309.015,130.348 310.5,133C 309.882,135.974 308.882,138.808 307.5,141.5C 305.034,142.123 302.701,142.957 300.5,144C 301.56,145.298 302.726,146.465 304,147.5C 305.5,147 307,146.5 308.5,146C 310.314,143.521 311.981,141.021 313.5,138.5C 312.467,147.022 307.8,150.022 299.5,147.5C 297.411,145.405 297.411,143.572 299.5,142C 306.69,142.146 309.523,138.646 308,131.5C 306.198,130.211 305.031,128.544 304.5,126.5 Z"/></g>
<g><path style="opacity:0.873" fill="#4c4d51" d="M 675.5,212.5 C 670.833,212.5 666.167,212.5 661.5,212.5C 656.898,209.126 654.231,204.626 653.5,199C 656.278,197.608 659.278,197.108 662.5,197.5C 662.244,202.082 664.411,204.749 669,205.5C 674.023,204.392 675.69,201.392 674,196.5C 669.897,193.573 665.397,191.407 660.5,190C 653.786,184.42 652.786,177.92 657.5,170.5C 665.034,165.191 672.534,165.191 680,170.5C 681.302,173.375 682.135,176.375 682.5,179.5C 677.913,180.378 674.58,178.878 672.5,175C 667.807,172.789 664.474,174.122 662.5,179C 663.292,180.96 664.625,182.46 666.5,183.5C 673.498,185.011 678.998,188.678 683,194.5C 684.084,202.102 681.584,208.102 675.5,212.5 Z"/></g>
<g><path style="opacity:0.894" fill="#4c4e52" d="M 447.5,212.5 C 445.167,212.5 442.833,212.5 440.5,212.5C 440.667,201.495 440.5,190.495 440,179.5C 435.684,190.421 431.517,201.421 427.5,212.5C 425.5,212.5 423.5,212.5 421.5,212.5C 417.638,201.418 413.471,190.418 409,179.5C 408.89,190.58 408.723,201.58 408.5,212.5C 406.167,212.5 403.833,212.5 401.5,212.5C 401.5,197.167 401.5,181.833 401.5,166.5C 405.925,165.81 409.759,166.81 413,169.5C 416.742,179.311 420.742,188.978 425,198.5C 429.069,188.127 433.236,177.793 437.5,167.5C 440.768,166.513 444.102,166.18 447.5,166.5C 447.5,181.833 447.5,197.167 447.5,212.5 Z"/></g>
<g><path style="opacity:0.868" fill="#4c4e52" d="M 525.5,212.5 C 523.167,212.5 520.833,212.5 518.5,212.5C 518.657,211.127 518.49,209.793 518,208.5C 516.333,209.733 514.833,211.067 513.5,212.5C 509.167,212.5 504.833,212.5 500.5,212.5C 490.087,205.537 487.587,196.203 493,184.5C 500.52,176.568 508.853,175.568 518,181.5C 518.499,176.511 518.666,171.511 518.5,166.5C 520.833,166.5 523.167,166.5 525.5,166.5C 525.5,181.833 525.5,197.167 525.5,212.5 Z M 505.5,184.5 C 516.521,185.559 520.188,191.225 516.5,201.5C 507.074,208.368 500.741,206.201 497.5,195C 498.168,189.849 500.834,186.349 505.5,184.5 Z"/></g>
<g><path style="opacity:0.789" fill="#4f5054" d="M 532.5,166.5 C 539.5,164.833 542.167,167.5 540.5,174.5C 537.833,174.5 535.167,174.5 532.5,174.5C 532.5,171.833 532.5,169.167 532.5,166.5 Z"/></g>
<g><path style="opacity:0.858" fill="#4c4e52" d="M 632.5,212.5 C 629.833,212.5 627.167,212.5 624.5,212.5C 624.5,197.167 624.5,181.833 624.5,166.5C 627.119,166.232 629.619,166.565 632,167.5C 632.5,182.496 632.667,197.496 632.5,212.5 Z"/></g>
<g><path style="opacity:0.911" fill="#4c4e52" d="M 755.5,212.5 C 752.833,212.5 750.167,212.5 747.5,212.5C 747.666,204.493 747.5,196.493 747,188.5C 740.045,182.359 735.045,183.692 732,192.5C 731.5,199.158 731.334,205.825 731.5,212.5C 729.167,212.5 726.833,212.5 724.5,212.5C 724.5,197.167 724.5,181.833 724.5,166.5C 726.833,166.5 729.167,166.5 731.5,166.5C 731.334,171.511 731.501,176.511 732,181.5C 739.272,175.967 746.272,176.3 753,182.5C 753.667,183.833 754.333,185.167 755,186.5C 755.5,195.16 755.666,203.827 755.5,212.5 Z"/></g>
<g><path style="opacity:0.962" fill="#4c4e52" d="M 846.5,212.5 C 844.167,212.5 841.833,212.5 839.5,212.5C 839.5,197.167 839.5,181.833 839.5,166.5C 841.833,166.5 844.167,166.5 846.5,166.5C 846.5,181.833 846.5,197.167 846.5,212.5 Z"/></g>
<g><path style="opacity:0.85" fill="#4d4f53" d="M 477.5,212.5 C 472.833,212.5 468.167,212.5 463.5,212.5C 453.805,206.761 450.639,198.428 454,187.5C 459.856,178.32 468.023,175.487 478.5,179C 485.596,183.52 488.263,189.854 486.5,198C 477.833,198.333 469.167,198.667 460.5,199C 463.255,204.356 467.588,206.69 473.5,206C 475.585,204.959 477.252,203.459 478.5,201.5C 481.086,200.52 483.753,200.187 486.5,200.5C 485.039,205.631 482.039,209.631 477.5,212.5 Z M 466.5,184.5 C 472.49,183.105 476.823,185.105 479.5,190.5C 473.537,191.496 467.537,191.829 461.5,191.5C 461.351,190.448 461.517,189.448 462,188.5C 463.667,187.267 465.167,185.933 466.5,184.5 Z"/></g>
<g><path style="opacity:0.861" fill="#4c4e52" d="M 569.5,212.5 C 564.833,212.5 560.167,212.5 555.5,212.5C 543.308,204.659 541.308,194.659 549.5,182.5C 558.624,175.686 567.457,176.019 576,183.5C 577.993,185.818 579.159,188.484 579.5,191.5C 574.581,192.628 570.915,191.128 568.5,187C 562.253,183.05 557.087,184.217 553,190.5C 551.076,201.91 555.743,206.576 567,204.5C 568.839,203.328 570.339,201.828 571.5,200C 574.227,199.182 576.894,199.348 579.5,200.5C 577.554,205.764 574.221,209.764 569.5,212.5 Z"/></g>
<g><path style="opacity:0.871" fill="#4c4e52" d="M 617.5,212.5 C 615.167,212.5 612.833,212.5 610.5,212.5C 610.657,211.127 610.49,209.793 610,208.5C 608.333,209.733 606.833,211.067 605.5,212.5C 601.167,212.5 596.833,212.5 592.5,212.5C 583.045,207.225 579.878,199.225 583,188.5C 589.621,177.095 598.621,174.761 610,181.5C 610.483,180.552 610.649,179.552 610.5,178.5C 612.833,178.5 615.167,178.5 617.5,178.5C 617.5,189.833 617.5,201.167 617.5,212.5 Z M 597.5,184.5 C 604.927,184.209 609.26,187.709 610.5,195C 609.718,201.309 606.218,205.142 600,206.5C 590.338,203.495 587.671,197.495 592,188.5C 593.812,187.023 595.645,185.69 597.5,184.5 Z"/></g>
<g><path style="opacity:0.861" fill="#4c4e52" d="M 710.5,212.5 C 705.833,212.5 701.167,212.5 696.5,212.5C 684.753,204.564 682.753,194.564 690.5,182.5C 700.873,175.151 710.373,176.151 719,185.5C 719.813,187.436 720.313,189.436 720.5,191.5C 715.581,192.628 711.915,191.128 709.5,187C 704.58,183.402 700.08,183.902 696,188.5C 691.725,195.573 693.225,201.073 700.5,205C 705.798,206.239 709.798,204.572 712.5,200C 715.146,199.503 717.813,199.336 720.5,199.5C 720.159,202.516 718.993,205.182 717,207.5C 714.674,209.066 712.508,210.732 710.5,212.5 Z"/></g>
<g><path style="opacity:0.876" fill="#4b4d51" d="M 785.5,212.5 C 780.833,212.5 776.167,212.5 771.5,212.5C 759.724,205.327 757.224,195.66 764,183.5C 771.374,176.807 779.541,175.807 788.5,180.5C 796.602,188.734 797.602,197.734 791.5,207.5C 789.429,209.185 787.429,210.852 785.5,212.5 Z M 775.5,184.5 C 786.179,185.686 789.679,191.353 786,201.5C 781.143,206.37 775.977,206.703 770.5,202.5C 765.747,194.682 767.413,188.682 775.5,184.5 Z"/></g>
<g><path style="opacity:0.882" fill="#4c4e51" d="M 823.5,212.5 C 818.833,212.5 814.167,212.5 809.5,212.5C 799.811,206.8 796.645,198.466 800,187.5C 807.178,177.081 816.345,174.914 827.5,181C 830.106,182.938 831.939,185.438 833,188.5C 833.667,193.167 833.667,197.833 833,202.5C 830.634,206.697 827.467,210.03 823.5,212.5 Z M 813.5,184.5 C 824.218,185.036 828.051,190.369 825,200.5C 821.13,205.563 816.296,206.73 810.5,204C 806.64,200 805.64,195.334 807.5,190C 809.375,187.955 811.375,186.122 813.5,184.5 Z"/></g>
<g><path style="opacity:0.838" fill="#4d4f53" d="M 539.5,212.5 C 537.167,212.5 534.833,212.5 532.5,212.5C 532.5,201.167 532.5,189.833 532.5,178.5C 535.167,178.5 537.833,178.5 540.5,178.5C 540.811,189.914 540.477,201.248 539.5,212.5 Z"/></g>
</svg>
