<?xml version="1.0" encoding="UTF-8"?>
<!DOCTYPE svg PUBLIC "-//W3C//DTD SVG 1.1//EN" "http://www.w3.org/Graphics/SVG/1.1/DTD/svg11.dtd">
<svg xmlns="http://www.w3.org/2000/svg" version="1.1" width="200px" height="200px" style="shape-rendering:geometricPrecision; text-rendering:geometricPrecision; image-rendering:optimizeQuality; fill-rule:evenodd; clip-rule:evenodd" xmlns:xlink="http://www.w3.org/1999/xlink">
<g><path style="opacity:1" fill="#fefefe" d="M -0.5,-0.5 C 66.1667,-0.5 132.833,-0.5 199.5,-0.5C 199.5,66.1667 199.5,132.833 199.5,199.5C 186.833,199.5 174.167,199.5 161.5,199.5C 163.5,198.833 165.5,198.167 167.5,197.5C 171.695,197.319 175.195,195.653 178,192.5C 178.827,179.66 178.66,166.993 177.5,154.5C 177.5,154.167 177.5,153.833 177.5,153.5C 178.49,147.69 178.823,141.69 178.5,135.5C 177.139,133.473 175.473,131.806 173.5,130.5C 182.578,111.616 186.744,91.6157 186,70.5C 181.873,50.4046 171.373,34.5713 154.5,23C 122.25,1.54523 88.9163,-0.121441 54.5,18C 40.3593,28.4713 29.526,41.638 22,57.5C 17.3462,67.1271 13.6795,77.1271 11,87.5C 4.30681,136.159 24.8068,166.659 72.5,179C 92.8643,183.208 112.864,182.041 132.5,175.5C 132.5,175.833 132.5,176.167 132.5,176.5C 132.212,182.229 132.546,187.896 133.5,193.5C 138.172,196.572 143.172,198.572 148.5,199.5C 98.8333,199.5 49.1667,199.5 -0.5,199.5C -0.5,132.833 -0.5,66.1667 -0.5,-0.5 Z"/></g>
<g><path style="opacity:1" fill="#ffdec8" d="M 173.5,130.5 C 173.167,130.5 172.833,130.5 172.5,130.5C 176.497,119.007 179.997,107.34 183,95.5C 187.761,66.7761 178.594,43.6094 155.5,26C 120.585,0.838965 85.2517,0.172298 49.5,24C 37.6172,34.8844 28.4506,47.7177 22,62.5C 13.379,79.8946 10.0457,98.2279 12,117.5C 15.3439,138.16 25.8439,153.993 43.5,165C 71.9327,180.964 101.599,183.798 132.5,173.5C 132.5,174.167 132.5,174.833 132.5,175.5C 112.864,182.041 92.8643,183.208 72.5,179C 24.8068,166.659 4.30681,136.159 11,87.5C 13.6795,77.1271 17.3462,67.1271 22,57.5C 29.526,41.638 40.3593,28.4713 54.5,18C 88.9163,-0.121441 122.25,1.54523 154.5,23C 171.373,34.5713 181.873,50.4046 186,70.5C 186.744,91.6157 182.578,111.616 173.5,130.5 Z"/></g>
<g><path style="opacity:1" fill="#feeddb" d="M 172.5,130.5 C 168.75,129.386 165.083,128.386 161.5,127.5C 159.5,127.5 157.5,127.5 155.5,127.5C 154.644,124.487 152.811,123.82 150,125.5C 149.517,126.448 149.351,127.448 149.5,128.5C 147.5,128.5 145.5,128.5 143.5,128.5C 142.156,123.821 140.156,123.488 137.5,127.5C 137.685,128.584 138.018,129.584 138.5,130.5C 136.246,131.124 134.579,132.457 133.5,134.5C 132.509,140.979 132.176,147.646 132.5,154.5C 132.5,156.833 132.5,159.167 132.5,161.5C 126.896,159.597 125.563,161.097 128.5,166C 129.928,166.579 131.262,166.412 132.5,165.5C 132.5,168.167 132.5,170.833 132.5,173.5C 101.599,183.798 71.9327,180.964 43.5,165C 25.8439,153.993 15.3439,138.16 12,117.5C 10.0457,98.2279 13.379,79.8946 22,62.5C 28.4506,47.7177 37.6172,34.8844 49.5,24C 85.2517,0.172298 120.585,0.838965 155.5,26C 178.594,43.6094 187.761,66.7761 183,95.5C 179.997,107.34 176.497,119.007 172.5,130.5 Z"/></g>
<g><path style="opacity:1" fill="#5a85c4" d="M 114.5,13.5 C 116.288,13.2148 117.955,13.5481 119.5,14.5C 120.553,17.953 119.219,19.453 115.5,19C 113.365,17.4443 113.032,15.6109 114.5,13.5 Z"/></g>
<g><path style="opacity:1" fill="#5080c2" d="M 72.5,23.5 C 77.1585,23.0146 78.4919,24.848 76.5,29C 71.7282,29.8104 70.3948,27.9771 72.5,23.5 Z"/></g>
<g><path style="opacity:1" fill="#6cc467" d="M 104.5,23.5 C 109.159,23.0146 110.492,24.848 108.5,29C 103.728,29.8104 102.395,27.9771 104.5,23.5 Z"/></g>
<g><path style="opacity:1" fill="#f12119" d="M 85.5,24.5 C 89.0131,25.0282 90.0131,26.8615 88.5,30C 83.2894,30.5464 82.2894,28.713 85.5,24.5 Z"/></g>
<g><path style="opacity:1" fill="#5784c3" d="M 64.5,30.5 C 68.485,30.6294 69.8183,32.4628 68.5,36C 66.8659,36.4935 65.1992,36.6602 63.5,36.5C 63.3253,34.3792 63.6586,32.3792 64.5,30.5 Z"/></g>
<g><path style="opacity:1" fill="#f1e347" d="M 89.5,30.5 C 94.4928,30.997 95.4928,33.1637 92.5,37C 87.3823,36.8242 86.3823,34.6576 89.5,30.5 Z"/></g>
<g><path style="opacity:1" fill="#5181c3" d="M 133.5,32.5 C 138.587,32.2845 139.587,34.1178 136.5,38C 132.537,38.1177 131.537,36.2843 133.5,32.5 Z"/></g>
<g><path style="opacity:1" fill="#f2291f" d="M 51.5,38.5 C 56.5867,38.2845 57.5867,40.1178 54.5,44C 50.5369,44.1177 49.5369,42.2843 51.5,38.5 Z"/></g>
<g><path style="opacity:1" fill="#e88d37" d="M 71.5,38.5 C 76.5867,38.2845 77.5867,40.1178 74.5,44C 70.5369,44.1177 69.5369,42.2843 71.5,38.5 Z"/></g>
<g><path style="opacity:1" fill="#71c56b" d="M 126.5,38.5 C 128.167,38.5 129.833,38.5 131.5,38.5C 132.322,44.2093 130.489,45.5427 126,42.5C 125.421,41.0715 125.588,39.7382 126.5,38.5 Z"/></g>
<g><path style="opacity:1" fill="#84fd2c" d="M 142.5,38.5 C 144.199,38.3398 145.866,38.5065 147.5,39C 148.813,42.692 147.48,44.3587 143.5,44C 142.594,42.3005 142.261,40.4672 142.5,38.5 Z"/></g>
<g><path style="opacity:1" fill="#5583c3" d="M 89.5,38.5 C 93.0681,38.7593 94.4015,40.7593 93.5,44.5C 87.5407,45.2222 86.2073,43.2222 89.5,38.5 Z"/></g>
<g><path style="opacity:1" fill="#e98f3a" d="M 103.5,40.5 C 108.159,40.0146 109.492,41.848 107.5,46C 103.266,46.267 101.933,44.4336 103.5,40.5 Z"/></g>
<g><path style="opacity:1" fill="#65c262" d="M 134.5,44.5 C 138.676,43.8307 140.009,45.3307 138.5,49C 136.866,49.4935 135.199,49.6602 133.5,49.5C 133.366,47.7085 133.699,46.0418 134.5,44.5 Z"/></g>
<g><path style="opacity:1" fill="#4f80c2" d="M 80.5,46.5 C 85.1585,46.0146 86.4919,47.848 84.5,52C 80.1258,52.4241 78.7925,50.5907 80.5,46.5 Z"/></g>
<g><path style="opacity:1" fill="#e88d36" d="M 95.5,47.5 C 97.1667,47.5 98.8333,47.5 100.5,47.5C 100.5,49.1667 100.5,50.8333 100.5,52.5C 95.58,53.585 93.9134,51.9183 95.5,47.5 Z"/></g>
<g><path style="opacity:1" fill="#efe239" d="M 149.5,46.5 C 153.485,46.6294 154.818,48.4628 153.5,52C 148.221,52.5848 146.888,50.7514 149.5,46.5 Z"/></g>
<g><path style="opacity:1" fill="#e88d37" d="M 33.5,49.5 C 38.1585,49.0146 39.4919,50.848 37.5,55C 33.2662,55.267 31.9329,53.4336 33.5,49.5 Z"/></g>
<g><path style="opacity:1" fill="#7dfd1d" d="M 63.5,49.5 C 68.5867,49.2845 69.5867,51.1178 66.5,55C 62.5369,55.1177 61.5369,53.2843 63.5,49.5 Z"/></g>
<g><path style="opacity:1" fill="#e85dbe" d="M 71.5,48.5 C 75.485,48.6294 76.8183,50.4628 75.5,54C 70.7282,54.8104 69.3948,52.9771 71.5,48.5 Z"/></g>
<g><path style="opacity:1" fill="#7efd21" d="M 132.5,51.5 C 137.587,51.2845 138.587,53.1178 135.5,57C 131.537,57.1177 130.537,55.2843 132.5,51.5 Z"/></g>
<g><path style="opacity:1" fill="#e85cbe" d="M 140.5,51.5 C 145.159,51.0146 146.492,52.848 144.5,57C 139.728,57.8104 138.395,55.9771 140.5,51.5 Z"/></g>
<g><path style="opacity:1" fill="#80fd25" d="M 159.5,54.5 C 164.587,54.2845 165.587,56.1178 162.5,60C 158.537,60.1177 157.537,58.2843 159.5,54.5 Z"/></g>
<g><path style="opacity:1" fill="#f9dbc8" d="M 111.5,136.5 C 110.5,136.5 109.5,136.5 108.5,136.5C 76.1064,131.399 63.273,112.732 70,80.5C 81.4125,59.4753 98.5792,52.3086 121.5,59C 136.626,66.3916 144.959,78.5583 146.5,95.5C 145.869,110.607 139.202,122.107 126.5,130C 121.285,132.03 116.285,134.196 111.5,136.5 Z"/></g>
<g><path style="opacity:1" fill="#f33125" d="M 68.5,57.5 C 72.485,57.6294 73.8183,59.4628 72.5,63C 70.8659,63.4935 69.1992,63.6602 67.5,63.5C 67.3253,61.3792 67.6586,59.3792 68.5,57.5 Z"/></g>
<g><path style="opacity:1" fill="#f33cee" d="M 57.5,58.5 C 61.4735,59.0755 62.4735,61.2421 60.5,65C 55.3823,64.8242 54.3823,62.6576 57.5,58.5 Z"/></g>
<g><path style="opacity:1" fill="#e88d36" d="M 159.5,62.5 C 163.485,62.6294 164.818,64.4628 163.5,68C 158.728,68.8104 157.395,66.9771 159.5,62.5 Z"/></g>
<g><path style="opacity:1" fill="#f2261e" d="M 27.5,65.5 C 32.5867,65.2845 33.5867,67.1178 30.5,71C 26.5369,71.1177 25.5369,69.2843 27.5,65.5 Z"/></g>
<g><path style="opacity:1" fill="#84fd2c" d="M 142.5,65.5 C 144.199,65.3398 145.866,65.5065 147.5,66C 148.813,69.692 147.48,71.3587 143.5,71C 142.594,69.3005 142.261,67.4672 142.5,65.5 Z"/></g>
<g><path style="opacity:1" fill="#4d7fc2" d="M 45.5,70.5 C 50.1585,70.0146 51.4919,71.848 49.5,76C 45.2662,76.267 43.9329,74.4336 45.5,70.5 Z"/></g>
<g><path style="opacity:1" fill="#6ac366" d="M 55.5,69.5 C 59.35,69.7007 60.35,71.5341 58.5,75C 53.2894,75.5464 52.2894,73.713 55.5,69.5 Z"/></g>
<g><path style="opacity:1" fill="#f236ee" d="M 155.5,79.5 C 160.289,81.1998 160.622,83.5332 156.5,86.5C 152.99,84.5733 152.656,82.24 155.5,79.5 Z"/></g>
<g><path style="opacity:1" fill="#80fd26" d="M 36.5,81.5 C 41.289,83.1998 41.6224,85.5332 37.5,88.5C 33.9667,86.5798 33.6334,84.2465 36.5,81.5 Z"/></g>
<g><path style="opacity:1" fill="#1e1e1e" d="M 87.5,85.5 C 96.8176,85.6546 98.8176,89.488 93.5,97C 86.6667,98.1667 83.8333,95.3333 85,88.5C 85.6979,87.3094 86.5313,86.3094 87.5,85.5 Z"/></g>
<g><path style="opacity:1" fill="#222121" d="M 119.5,84.5 C 126.369,84.5377 128.869,87.871 127,94.5C 121.344,99.1292 117.511,97.9625 115.5,91C 115.722,88.0379 117.056,85.8712 119.5,84.5 Z"/></g>
<g><path style="opacity:1" fill="#e98f3a" d="M 20.5,86.5 C 24.35,86.7007 25.35,88.5341 23.5,92C 18.2894,92.5464 17.2894,90.713 20.5,86.5 Z"/></g>
<g><path style="opacity:1" fill="#dedede" d="M 117.5,87.5 C 118.833,87.5 120.167,87.5 121.5,87.5C 121.833,90.5 120.5,91.8333 117.5,91.5C 117.5,90.1667 117.5,88.8333 117.5,87.5 Z"/></g>
<g><path style="opacity:1" fill="#e75bbe" d="M 168.5,86.5 C 172.485,86.6294 173.818,88.4628 172.5,92C 167.728,92.8104 166.395,90.9771 168.5,86.5 Z"/></g>
<g><path style="opacity:1" fill="#ebebeb" d="M 87.5,87.5 C 89.9118,87.6941 90.9118,89.0274 90.5,91.5C 89.1667,91.5 87.8333,91.5 86.5,91.5C 86.4326,90.0413 86.7659,88.7079 87.5,87.5 Z"/></g>
<g><path style="opacity:1" fill="#e75abd" d="M 45.5,89.5 C 49.5209,89.2437 50.8542,90.9104 49.5,94.5C 44.7329,95.8987 43.3996,94.232 45.5,89.5 Z"/></g>
<g><path style="opacity:1" fill="#e9913d" d="M 26.5,100.5 C 30.485,100.629 31.8183,102.463 30.5,106C 28.8659,106.494 27.1992,106.66 25.5,106.5C 25.3253,104.379 25.6586,102.379 26.5,100.5 Z"/></g>
<g><path style="opacity:1" fill="#85fd2d" d="M 167.5,104.5 C 172.587,104.284 173.587,106.118 170.5,110C 165.722,110.073 164.722,108.24 167.5,104.5 Z"/></g>
<g><path style="opacity:1" fill="#e860bf" d="M 54.5,107.5 C 56.1667,107.5 57.8333,107.5 59.5,107.5C 60.3221,113.209 58.4888,114.543 54,111.5C 53.4209,110.072 53.5876,108.738 54.5,107.5 Z"/></g>
<g><path style="opacity:1" fill="#6ac366" d="M 43.5,110.5 C 49.1755,110.86 49.8421,112.86 45.5,116.5C 42.5313,115.235 41.8646,113.235 43.5,110.5 Z"/></g>
<g><path style="opacity:1" fill="#69c366" d="M 158.5,110.5 C 164.175,110.86 164.842,112.86 160.5,116.5C 157.531,115.235 156.865,113.235 158.5,110.5 Z"/></g>
<g><path style="opacity:1" fill="#5683c3" d="M 25.5,114.5 C 27.1992,114.34 28.8659,114.506 30.5,115C 31.8133,118.692 30.4799,120.359 26.5,120C 25.5939,118.301 25.2606,116.467 25.5,114.5 Z"/></g>
<g><path style="opacity:1" fill="#e88d37" d="M 144.5,114.5 C 149.159,114.015 150.492,115.848 148.5,120C 144.266,120.267 142.933,118.434 144.5,114.5 Z"/></g>
<g><path style="opacity:1" fill="#82fd29" d="M 35.5,114.5 C 39.0681,114.759 40.4015,116.759 39.5,120.5C 33.5407,121.222 32.2073,119.222 35.5,114.5 Z"/></g>
<g><path style="opacity:1" fill="#191213" d="M 94.5,104.5 C 102.507,104.334 110.507,104.5 118.5,105C 121.253,109.873 119.92,113.54 114.5,116C 108.325,118.256 102.325,117.923 96.5,115C 93.515,111.921 92.8483,108.421 94.5,104.5 Z"/></g>
<g><path style="opacity:1" fill="#f774a2" d="M 117.5,110.5 C 116.327,112.504 114.66,114.004 112.5,115C 108.5,115.667 104.5,115.667 100.5,115C 99.5842,114.722 98.9175,114.222 98.5,113.5C 104.188,108.203 110.521,107.203 117.5,110.5 Z"/></g>
<g><path style="opacity:1" fill="#b4252a" d="M 117.5,110.5 C 110.521,107.203 104.188,108.203 98.5,113.5C 95.0746,112.107 94.0746,109.773 95.5,106.5C 102.811,105.335 110.144,105.169 117.5,106C 118.801,107.616 118.801,109.116 117.5,110.5 Z"/></g>
<g><path style="opacity:1" fill="#457bc1" d="M 55.5,121.5 C 59.35,121.701 60.35,123.534 58.5,127C 53.7217,127.073 52.7217,125.24 55.5,121.5 Z"/></g>
<g><path style="opacity:1" fill="#e9913e" d="M 161.5,127.5 C 160.659,125.621 160.325,123.621 160.5,121.5C 166.209,120.678 167.543,122.511 164.5,127C 163.552,127.483 162.552,127.649 161.5,127.5 Z"/></g>
<g><path style="opacity:1" fill="#5583c3" d="M 34.5,123.5 C 38.0681,123.759 39.4015,125.759 38.5,129.5C 32.5407,130.222 31.2073,128.222 34.5,123.5 Z"/></g>
<g><path style="opacity:1" fill="#67bc65" d="M 155.5,127.5 C 153.735,128.461 151.735,128.795 149.5,128.5C 149.351,127.448 149.517,126.448 150,125.5C 152.811,123.82 154.644,124.487 155.5,127.5 Z"/></g>
<g><path style="opacity:1" fill="#e68b35" d="M 143.5,128.5 C 142.07,129.537 140.403,130.204 138.5,130.5C 138.018,129.584 137.685,128.584 137.5,127.5C 140.156,123.488 142.156,123.821 143.5,128.5 Z"/></g>
<g><path style="opacity:1" fill="#dedfe2" d="M 155.5,127.5 C 157.5,127.5 159.5,127.5 161.5,127.5C 165.083,128.386 168.75,129.386 172.5,130.5C 172.833,130.5 173.167,130.5 173.5,130.5C 175.473,131.806 177.139,133.473 178.5,135.5C 176.235,140.491 172.235,143.324 166.5,144C 156.679,145.115 147.012,144.448 137.5,142C 134.059,140.682 132.725,138.182 133.5,134.5C 134.579,132.457 136.246,131.124 138.5,130.5C 140.403,130.204 142.07,129.537 143.5,128.5C 145.5,128.5 147.5,128.5 149.5,128.5C 151.735,128.795 153.735,128.461 155.5,127.5 Z"/></g>
<g><path style="opacity:1" fill="#f33125" d="M 67.5,129.5 C 69.1992,129.34 70.8659,129.506 72.5,130C 73.8133,133.692 72.4799,135.359 68.5,135C 67.5939,133.301 67.2606,131.467 67.5,129.5 Z"/></g>
<g><path style="opacity:1" fill="#5884c4" d="M 40.5,130.5 C 42.1992,130.34 43.8659,130.506 45.5,131C 46.8133,134.692 45.4799,136.359 41.5,136C 40.5939,134.301 40.2606,132.467 40.5,130.5 Z"/></g>
<g><path style="opacity:1" fill="#f22a20" d="M 25.5,133.5 C 29.485,133.629 30.8183,135.463 29.5,139C 24.7282,139.81 23.3948,137.977 25.5,133.5 Z"/></g>
<g><path style="opacity:1" fill="#f22d22" d="M 57.5,133.5 C 61.0681,133.759 62.4015,135.759 61.5,139.5C 55.5407,140.222 54.2073,138.222 57.5,133.5 Z"/></g>
<g><path style="opacity:1" fill="#e88d37" d="M 108.5,136.5 C 109.5,136.5 110.5,136.5 111.5,136.5C 113.173,139.142 112.673,141.142 110,142.5C 106.234,141.067 105.734,139.067 108.5,136.5 Z"/></g>
<g><path style="opacity:1" fill="#f0e23f" d="M 124.5,136.5 C 126.199,136.34 127.866,136.506 129.5,137C 130.813,140.692 129.48,142.359 125.5,142C 123.365,140.444 123.032,138.611 124.5,136.5 Z"/></g>
<g><path style="opacity:1" fill="#c6c8cb" d="M 133.5,134.5 C 132.725,138.182 134.059,140.682 137.5,142C 147.012,144.448 156.679,145.115 166.5,144C 172.235,143.324 176.235,140.491 178.5,135.5C 178.823,141.69 178.49,147.69 177.5,153.5C 171.005,158.14 163.671,160.14 155.5,159.5C 147.383,159.744 139.716,158.077 132.5,154.5C 132.176,147.646 132.509,140.979 133.5,134.5 Z"/></g>
<g><path style="opacity:1" fill="#87fd32" d="M 49.5,144.5 C 53.1838,145.372 54.1838,147.539 52.5,151C 47.3823,150.824 46.3823,148.658 49.5,144.5 Z"/></g>
<g><path style="opacity:1" fill="#efe12f" d="M 98.5,144.5 C 102.701,144.426 104.035,146.259 102.5,150C 97.7282,150.81 96.3948,148.977 98.5,144.5 Z"/></g>
<g><path style="opacity:1" fill="#8afc36" d="M 64.5,145.5 C 68.4735,146.075 69.4735,148.242 67.5,152C 62.3823,151.824 61.3823,149.658 64.5,145.5 Z"/></g>
<g><path style="opacity:1" fill="#e860bf" d="M 75.5,145.5 C 79.485,145.629 80.8183,147.463 79.5,151C 77.8659,151.494 76.1992,151.66 74.5,151.5C 74.3253,149.379 74.6586,147.379 75.5,145.5 Z"/></g>
<g><path style="opacity:1" fill="#e88c36" d="M 124.5,146.5 C 130.175,146.86 130.842,148.86 126.5,152.5C 123.531,151.235 122.865,149.235 124.5,146.5 Z"/></g>
<g><path style="opacity:1" fill="#5080c2" d="M 38.5,146.5 C 42.35,146.701 43.35,148.534 41.5,152C 36.2894,152.546 35.2894,150.713 38.5,146.5 Z"/></g>
<g><path style="opacity:1" fill="#f449ed" d="M 106.5,150.5 C 111.493,150.997 112.493,153.164 109.5,157C 104.382,156.824 103.382,154.658 106.5,150.5 Z"/></g>
<g><path style="opacity:1" fill="#6cc468" d="M 91.5,153.5 C 94.9656,154.109 95.9656,155.942 94.5,159C 92.8659,159.494 91.1992,159.66 89.5,159.5C 89.2587,157.114 89.9254,155.114 91.5,153.5 Z"/></g>
<g><path style="opacity:1" fill="#f2241b" d="M 52.5,155.5 C 57.1584,155.653 58.1584,157.486 55.5,161C 51.5369,161.118 50.5369,159.284 52.5,155.5 Z"/></g>
<g><path style="opacity:1" fill="#e85ebe" d="M 115.5,155.5 C 120.158,155.653 121.158,157.486 118.5,161C 113.722,161.073 112.722,159.24 115.5,155.5 Z"/></g>
<g><path style="opacity:1" fill="#f2e32b" d="M 60.5,156.5 C 62.1667,156.5 63.8333,156.5 65.5,156.5C 66.3221,162.209 64.4888,163.543 60,160.5C 59.4209,159.072 59.5876,157.738 60.5,156.5 Z"/></g>
<g><path style="opacity:1" fill="#8e9295" d="M 177.5,153.5 C 177.5,153.833 177.5,154.167 177.5,154.5C 177.703,156.39 177.037,157.89 175.5,159C 173.075,160.213 170.741,161.379 168.5,162.5C 160.535,163.569 152.535,163.736 144.5,163C 140.768,162.026 137.268,160.526 134,158.5C 133.333,163.5 133.333,168.5 134,173.5C 140.492,177.747 147.658,179.413 155.5,178.5C 159.882,178.438 164.216,178.105 168.5,177.5C 171.745,177.03 174.579,175.697 177,173.5C 177.667,174.833 177.667,176.167 177,177.5C 173.002,179.882 168.835,181.548 164.5,182.5C 156.114,182.787 147.781,182.287 139.5,181C 136.798,179.988 134.465,178.488 132.5,176.5C 132.5,176.167 132.5,175.833 132.5,175.5C 132.5,174.833 132.5,174.167 132.5,173.5C 132.5,170.833 132.5,168.167 132.5,165.5C 132.5,164.167 132.5,162.833 132.5,161.5C 132.5,159.167 132.5,156.833 132.5,154.5C 139.716,158.077 147.383,159.744 155.5,159.5C 163.671,160.14 171.005,158.14 177.5,153.5 Z"/></g>
<g><path style="opacity:1" fill="#e85dbe" d="M 70.5,158.5 C 74.7014,158.426 76.0347,160.259 74.5,164C 69.7282,164.81 68.3948,162.977 70.5,158.5 Z"/></g>
<g><path style="opacity:1" fill="#efe131" d="M 132.5,161.5 C 132.5,162.833 132.5,164.167 132.5,165.5C 131.262,166.412 129.928,166.579 128.5,166C 125.563,161.097 126.896,159.597 132.5,161.5 Z"/></g>
<g><path style="opacity:1" fill="#cacccf" d="M 168.5,162.5 C 168.5,167.5 168.5,172.5 168.5,177.5C 164.216,178.105 159.882,178.438 155.5,178.5C 147.658,179.413 140.492,177.747 134,173.5C 133.333,168.5 133.333,163.5 134,158.5C 137.268,160.526 140.768,162.026 144.5,163C 152.535,163.736 160.535,163.569 168.5,162.5 Z"/></g>
<g><path style="opacity:1" fill="#7ffd22" d="M 80.5,166.5 C 85.1585,166.015 86.4919,167.848 84.5,172C 80.1258,172.424 78.7925,170.591 80.5,166.5 Z"/></g>
<g><path style="opacity:1" fill="#f22a20" d="M 96.5,166.5 C 101.159,166.015 102.492,167.848 100.5,172C 95.7282,172.81 94.3948,170.977 96.5,166.5 Z"/></g>
<g><path style="opacity:1" fill="#e9903c" d="M 109.5,165.5 C 113.068,165.759 114.401,167.759 113.5,171.5C 107.541,172.222 106.207,170.222 109.5,165.5 Z"/></g>
<g><path style="opacity:1" fill="#b4b9b9" d="M 177.5,154.5 C 178.66,166.993 178.827,179.66 178,192.5C 175.195,195.653 171.695,197.319 167.5,197.5C 170.125,196.559 170.125,195.393 167.5,194C 168.46,190.27 168.793,186.437 168.5,182.5C 167.167,182.5 165.833,182.5 164.5,182.5C 168.835,181.548 173.002,179.882 177,177.5C 177.667,176.167 177.667,174.833 177,173.5C 174.579,175.697 171.745,177.03 168.5,177.5C 168.5,172.5 168.5,167.5 168.5,162.5C 170.741,161.379 173.075,160.213 175.5,159C 177.037,157.89 177.703,156.39 177.5,154.5 Z"/></g>
<g><path style="opacity:1" fill="#c8cacd" d="M 132.5,176.5 C 134.465,178.488 136.798,179.988 139.5,181C 147.781,182.287 156.114,182.787 164.5,182.5C 165.833,182.5 167.167,182.5 168.5,182.5C 168.793,186.437 168.46,190.27 167.5,194C 170.125,195.393 170.125,196.559 167.5,197.5C 165.5,198.167 163.5,198.833 161.5,199.5C 157.167,199.5 152.833,199.5 148.5,199.5C 143.172,198.572 138.172,196.572 133.5,193.5C 132.546,187.896 132.212,182.229 132.5,176.5 Z"/></g>
</svg>
