<?xml version="1.0" encoding="UTF-8"?>
<!DOCTYPE svg PUBLIC "-//W3C//DTD SVG 1.1//EN" "http://www.w3.org/Graphics/SVG/1.1/DTD/svg11.dtd">
<svg xmlns="http://www.w3.org/2000/svg" version="1.1" width="200px" height="200px" style="shape-rendering:geometricPrecision; text-rendering:geometricPrecision; image-rendering:optimizeQuality; fill-rule:evenodd; clip-rule:evenodd" xmlns:xlink="http://www.w3.org/1999/xlink">
<g><path style="opacity:1" fill="#fdfdfd" d="M -0.5,-0.5 C 66.1667,-0.5 132.833,-0.5 199.5,-0.5C 199.5,66.1667 199.5,132.833 199.5,199.5C 132.833,199.5 66.1667,199.5 -0.5,199.5C -0.5,132.833 -0.5,66.1667 -0.5,-0.5 Z"/></g>
<g><path style="opacity:1" fill="#080808" d="M 71.5,29.5 C 90.5029,29.3334 109.503,29.5001 128.5,30C 132.386,32.5257 132.386,35.1923 128.5,38C 109.5,38.6667 90.5,38.6667 71.5,38C 68.8987,35.1705 68.8987,32.3371 71.5,29.5 Z"/></g>
<g><path style="opacity:1" fill="#050505" d="M 32.5,43.5 C 77.8757,43.1719 123.209,43.5053 168.5,44.5C 169.861,46.0284 171.028,47.6951 172,49.5C 172.667,82.1667 172.667,114.833 172,147.5C 171.315,150.057 169.815,151.891 167.5,153C 122.5,153.667 77.5,153.667 32.5,153C 30.9512,151.786 29.7845,150.286 29,148.5C 28.3333,115.5 28.3333,82.5 29,49.5C 29.5637,47.1133 30.7304,45.1133 32.5,43.5 Z"/></g>
<g><path style="opacity:1" fill="#030303" d="M 15.5,71.5 C 18.0444,71.1043 20.2111,71.771 22,73.5C 22.6667,90.1667 22.6667,106.833 22,123.5C 19.7564,125.994 17.4231,125.994 15,123.5C 14.1946,106.123 14.3612,88.7894 15.5,71.5 Z"/></g>
<g><path style="opacity:1" fill="#070707" d="M 179.5,71.5 C 182.547,70.8554 184.713,71.8554 186,74.5C 186.667,90.5 186.667,106.5 186,122.5C 183.679,125.917 181.012,126.25 178,123.5C 177.333,106.833 177.333,90.1667 178,73.5C 178.717,72.9558 179.217,72.2891 179.5,71.5 Z"/></g>
<g><path style="opacity:1" fill="#f7f7f7" d="M 62.5,78.5 C 80.0002,77.8325 88.1669,86.1658 87,103.5C 81.9188,116.199 72.7521,120.699 59.5,117C 46.9171,109.641 44.0838,99.4747 51,86.5C 54.2131,82.762 58.0464,80.0953 62.5,78.5 Z"/></g>
<g><path style="opacity:1" fill="#f9f9f9" d="M 129.5,78.5 C 148.322,79.4665 155.489,89.1332 151,107.5C 139.762,121.809 128.095,122.143 116,108.5C 110.54,93.7659 115.04,83.7659 129.5,78.5 Z"/></g>
<g><path style="opacity:1" fill="#0d0d0d" d="M 72.5,158.5 C 90.8364,158.333 109.17,158.5 127.5,159C 131.19,159.69 132.357,161.857 131,165.5C 130.25,166.126 129.416,166.626 128.5,167C 109.5,167.667 90.5,167.667 71.5,167C 70.3759,166.161 69.7092,164.994 69.5,163.5C 69.7705,161.307 70.7705,159.641 72.5,158.5 Z"/></g>
</svg>
