<?xml version="1.0" encoding="UTF-8"?>
<!DOCTYPE svg PUBLIC "-//W3C//DTD SVG 1.1//EN" "http://www.w3.org/Graphics/SVG/1.1/DTD/svg11.dtd">
<svg xmlns="http://www.w3.org/2000/svg" version="1.1" width="296px" height="128px" style="shape-rendering:geometricPrecision; text-rendering:geometricPrecision; image-rendering:optimizeQuality; fill-rule:evenodd; clip-rule:evenodd" xmlns:xlink="http://www.w3.org/1999/xlink">
<g><path style="opacity:0.993" fill="#622e8b" d="M 25.5,-0.5 C 25.8333,-0.5 26.1667,-0.5 26.5,-0.5C 32.9254,10.7944 34.7587,22.7944 32,35.5C 30.9967,38.8402 29.4967,41.8402 27.5,44.5C 26.8333,33.1667 26.1667,21.8333 25.5,10.5C 25.5,6.83333 25.5,3.16667 25.5,-0.5 Z"/></g>
<g><path style="opacity:1" fill="#732e7a" d="M 25.5,10.5 C 26.1667,21.8333 26.8333,33.1667 27.5,44.5C 25.9748,47.563 23.9748,50.2297 21.5,52.5C 20.8333,44.8333 20.1667,37.1667 19.5,29.5C 21.9377,23.1925 23.9377,16.8591 25.5,10.5 Z"/></g>
<g><path style="opacity:0.989" fill="#862f67" d="M 19.5,29.5 C 20.1667,37.1667 20.8333,44.8333 21.5,52.5C 20.1891,55.1354 18.5224,57.4687 16.5,59.5C 16.2192,51.7808 16.2192,43.7808 16.5,35.5C 16.9925,33.1815 17.9925,31.1815 19.5,29.5 Z"/></g>
<g><path style="opacity:0.911" fill="#363935" d="M 67.5,31.5 C 76.1667,31.5 84.8333,31.5 93.5,31.5C 93.5,34.1667 93.5,36.8333 93.5,39.5C 87.8333,39.5 82.1667,39.5 76.5,39.5C 76.5,40.8333 76.5,42.1667 76.5,43.5C 81.5,43.5 86.5,43.5 91.5,43.5C 91.5,46.1667 91.5,48.8333 91.5,51.5C 86.5,51.5 81.5,51.5 76.5,51.5C 76.5,52.8333 76.5,54.1667 76.5,55.5C 82.1667,55.5 87.8333,55.5 93.5,55.5C 93.5,58.1667 93.5,60.8333 93.5,63.5C 84.8333,63.5 76.1667,63.5 67.5,63.5C 67.5,52.8333 67.5,42.1667 67.5,31.5 Z"/></g>
<g><path style="opacity:0.924" fill="#363935" d="M 98.5,31.5 C 104.842,31.3338 111.175,31.5005 117.5,32C 124.666,34.8341 127.166,40.0008 125,47.5C 121.238,53.5964 115.738,55.9297 108.5,54.5C 108.5,57.5 108.5,60.5 108.5,63.5C 105.167,63.5 101.833,63.5 98.5,63.5C 98.5,52.8333 98.5,42.1667 98.5,31.5 Z M 108.5,39.5 C 112.07,38.8929 114.737,40.0596 116.5,43C 114.911,46.2971 112.245,47.7971 108.5,47.5C 108.5,44.8333 108.5,42.1667 108.5,39.5 Z"/></g>
<g><path style="opacity:0.91" fill="#363935" d="M 129.5,31.5 C 132.833,31.5 136.167,31.5 139.5,31.5C 139.5,42.1667 139.5,52.8333 139.5,63.5C 136.167,63.5 132.833,63.5 129.5,63.5C 129.5,52.8333 129.5,42.1667 129.5,31.5 Z"/></g>
<g><path style="opacity:0.918" fill="#363935" d="M 144.5,31.5 C 147.833,31.5 151.167,31.5 154.5,31.5C 154.5,39.5 154.5,47.5 154.5,55.5C 159.5,55.5 164.5,55.5 169.5,55.5C 169.5,58.1667 169.5,60.8333 169.5,63.5C 161.167,63.5 152.833,63.5 144.5,63.5C 144.5,52.8333 144.5,42.1667 144.5,31.5 Z"/></g>
<g><path style="opacity:0.915" fill="#363936" d="M 173.5,31.5 C 182.167,31.5 190.833,31.5 199.5,31.5C 199.5,34.1667 199.5,36.8333 199.5,39.5C 194.167,39.5 188.833,39.5 183.5,39.5C 183.5,40.8333 183.5,42.1667 183.5,43.5C 188.5,43.5 193.5,43.5 198.5,43.5C 198.5,46.1667 198.5,48.8333 198.5,51.5C 193.5,51.5 188.5,51.5 183.5,51.5C 183.5,52.8333 183.5,54.1667 183.5,55.5C 189.167,55.5 194.833,55.5 200.5,55.5C 200.5,58.1667 200.5,60.8333 200.5,63.5C 191.5,63.5 182.5,63.5 173.5,63.5C 173.5,52.8333 173.5,42.1667 173.5,31.5 Z"/></g>
<g><path style="opacity:0.937" fill="#363935" d="M 205.5,31.5 C 211.509,31.3338 217.509,31.5005 223.5,32C 231.984,35.0878 234.484,40.9211 231,49.5C 226.432,53.9863 220.932,55.653 214.5,54.5C 214.5,57.5 214.5,60.5 214.5,63.5C 211.5,63.5 208.5,63.5 205.5,63.5C 205.5,52.8333 205.5,42.1667 205.5,31.5 Z M 214.5,39.5 C 218.325,38.7887 221.325,39.9554 223.5,43C 221.501,46.2896 218.501,47.7896 214.5,47.5C 214.5,44.8333 214.5,42.1667 214.5,39.5 Z"/></g>
<g><path style="opacity:0.94" fill="#363935" d="M 246.5,30.5 C 249.522,30.804 252.522,31.304 255.5,32C 257.813,32.6409 259.48,33.9743 260.5,36C 259.015,38.1561 257.515,40.3228 256,42.5C 252.477,39.282 248.644,38.782 244.5,41C 249.517,42.8435 254.517,44.8435 259.5,47C 263.883,57.7168 260.217,63.5502 248.5,64.5C 245.088,63.9804 241.755,63.1471 238.5,62C 236.487,61.3203 235.154,59.987 234.5,58C 235.628,55.704 237.295,53.8707 239.5,52.5C 243.603,55.9591 247.937,56.6258 252.5,54.5C 248.47,52.2254 244.136,50.392 239.5,49C 234.235,43.7402 234.235,38.4069 239.5,33C 241.927,32.0977 244.26,31.2644 246.5,30.5 Z"/></g>
<g><path style="opacity:0.921" fill="#363935" d="M 295.5,31.5 C 295.5,32.1667 295.5,32.8333 295.5,33.5C 291.524,38.7676 288.024,44.4343 285,50.5C 284.501,54.8206 284.334,59.1539 284.5,63.5C 281.167,63.5 277.833,63.5 274.5,63.5C 274.666,59.1539 274.499,54.8206 274,50.5C 270.292,44.2494 266.459,38.0827 262.5,32C 266.167,31.3333 269.833,31.3333 273.5,32C 275.125,35.4199 277.125,38.5866 279.5,41.5C 281.375,38.2489 283.375,35.0823 285.5,32C 288.817,31.5017 292.15,31.335 295.5,31.5 Z"/></g>
<g><path style="opacity:1" fill="#742e79" d="M 45.5,59.5 C 45.98,62.1656 46.98,64.6656 48.5,67C 47.944,67.3826 47.6107,67.8826 47.5,68.5C 46.8333,68.5 46.5,68.8333 46.5,69.5C 45.8333,69.5 45.5,69.8333 45.5,70.5C 44.8333,70.5 44.5,70.8333 44.5,71.5C 44.1667,71.5 43.8333,71.5 43.5,71.5C 43.81,68.2869 43.4767,65.2869 42.5,62.5C 41.8333,62.5 41.5,62.8333 41.5,63.5C 41.1667,64.1667 40.8333,64.8333 40.5,65.5C 39.8333,65.5 39.5,65.8333 39.5,66.5C 39.5,66.8333 39.5,67.1667 39.5,67.5C 39.1667,67.5 38.8333,67.5 38.5,67.5C 37.5328,59.5856 37.1995,51.5856 37.5,43.5C 38.9653,30.428 41.132,30.428 44,43.5C 44.781,48.5544 44.6143,53.5544 43.5,58.5C 43.9569,59.2975 44.6236,59.6309 45.5,59.5 Z"/></g>
<g><path style="opacity:1" fill="#912f5d" d="M 16.5,35.5 C 16.2192,43.7808 16.2192,51.7808 16.5,59.5C 16.1667,60.5 15.5,61.1667 14.5,61.5C 13.5084,54.3524 13.175,47.0191 13.5,39.5C 14.0256,37.7697 15.0256,36.4363 16.5,35.5 Z"/></g>
<g><path style="opacity:0.982" fill="#9a3054" d="M 13.5,39.5 C 13.175,47.0191 13.5084,54.3524 14.5,61.5C 13.9744,63.2303 12.9744,64.5637 11.5,65.5C 10.5088,58.6866 10.1755,51.6866 10.5,44.5C 11.1103,42.5659 12.1103,40.8993 13.5,39.5 Z"/></g>
<g><path style="opacity:0.984" fill="#822f6b" d="M 37.5,43.5 C 37.1995,51.5856 37.5328,59.5856 38.5,67.5C 37.6618,67.8417 37.3284,68.5084 37.5,69.5C 36.8333,69.5 36.5,69.8333 36.5,70.5C 35.5,70.8333 34.8333,71.5 34.5,72.5C 33.5084,65.3524 33.175,58.0191 33.5,50.5C 34.5957,47.9684 35.9291,45.6351 37.5,43.5 Z"/></g>
<g><path style="opacity:1" fill="#a53048" d="M 10.5,44.5 C 10.1755,51.6866 10.5088,58.6866 11.5,65.5C 10.0692,68.7009 8.40251,71.7009 6.5,74.5C 6.82536,66.6484 6.49203,58.9818 5.5,51.5C 6.93357,48.9528 8.60024,46.6195 10.5,44.5 Z"/></g>
<g><path style="opacity:0.978" fill="#b0313e" d="M 5.5,51.5 C 6.49203,58.9818 6.82536,66.6484 6.5,74.5C 6.46056,75.5832 6.12723,76.5832 5.5,77.5C 5.96983,78.463 6.6365,78.463 7.5,77.5C 7.5,80.8333 7.5,84.1667 7.5,87.5C 5.76967,86.9744 4.43634,85.9744 3.5,84.5C 3.82664,75.3178 3.4933,66.3178 2.5,57.5C 3.5,55.5 4.5,53.5 5.5,51.5 Z"/></g>
<g><path style="opacity:1" fill="#8f2f5f" d="M 33.5,50.5 C 33.175,58.0191 33.5084,65.3524 34.5,72.5C 32.9752,74.2163 31.9752,76.2163 31.5,78.5C 30.8333,78.5 30.1667,78.5 29.5,78.5C 28.5088,71.6866 28.1755,64.6866 28.5,57.5C 29.8109,54.8646 31.4776,52.5313 33.5,50.5 Z"/></g>
<g><path style="opacity:0.989" fill="#ba3134" d="M 2.5,57.5 C 3.4933,66.3178 3.82664,75.3178 3.5,84.5C 1.92635,83.0158 0.593015,81.3492 -0.5,79.5C -0.5,74.8333 -0.5,70.1667 -0.5,65.5C 0.48779,62.9239 1.48779,60.2572 2.5,57.5 Z"/></g>
<g><path style="opacity:0.964" fill="#602e8e" d="M 45.5,59.5 C 49.5072,57.5043 52.0072,58.8376 53,63.5C 55.554,73.5309 53.054,81.8642 45.5,88.5C 45.092,82.669 45.092,77.0023 45.5,71.5C 45.5,71.1667 45.5,70.8333 45.5,70.5C 46.1667,70.5 46.5,70.1667 46.5,69.5C 47.1667,69.5 47.5,69.1667 47.5,68.5C 47.6107,67.8826 47.944,67.3826 48.5,67C 46.98,64.6656 45.98,62.1656 45.5,59.5 Z"/></g>
<g><path style="opacity:0.968" fill="#9e304f" d="M 28.5,57.5 C 28.1755,64.6866 28.5088,71.6866 29.5,78.5C 27.1542,81.8708 24.8208,85.2041 22.5,88.5C 22.5,80.8333 22.5,73.1667 22.5,65.5C 24.016,62.4669 26.016,59.8003 28.5,57.5 Z"/></g>
<g><path style="opacity:1" fill="#892f64" d="M 42.5,62.5 C 43.4767,65.2869 43.81,68.2869 43.5,71.5C 42.609,72.1098 41.609,72.4431 40.5,72.5C 39.5489,71.0813 39.2155,69.4147 39.5,67.5C 39.5,67.1667 39.5,66.8333 39.5,66.5C 40.1667,66.5 40.5,66.1667 40.5,65.5C 40.8333,64.8333 41.1667,64.1667 41.5,63.5C 42.1667,63.5 42.5,63.1667 42.5,62.5 Z"/></g>
<g><path style="opacity:0.781" fill="#363936" d="M 67.5,71.5 C 73.2055,71.1712 78.8722,71.5046 84.5,72.5C 79.544,73.4941 74.544,73.8275 69.5,73.5C 69.5,76.5 69.5,79.5 69.5,82.5C 73.8333,82.5 78.1667,82.5 82.5,82.5C 82.5,83.5 82.5,84.5 82.5,85.5C 78.1667,85.5 73.8333,85.5 69.5,85.5C 69.8204,88.8984 69.487,92.2317 68.5,95.5C 67.5023,87.5277 67.169,79.5277 67.5,71.5 Z"/></g>
<g><path style="opacity:0.778" fill="#363935" d="M 93.5,71.5 C 106.32,70.1527 111.82,75.8194 110,88.5C 106.345,95.0702 100.845,97.2368 93.5,95C 86.6574,90.8002 84.824,84.9669 88,77.5C 89.3597,74.9774 91.193,72.9774 93.5,71.5 Z M 96.5,73.5 C 107.605,74.952 110.605,80.6187 105.5,90.5C 99.2171,95.1477 94.0504,94.1477 90,87.5C 88.1888,80.7958 90.3554,76.1291 96.5,73.5 Z"/></g>
<g><path style="opacity:0.715" fill="#363935" d="M 115.5,71.5 C 116.5,71.5 117.5,71.5 118.5,71.5C 118.334,77.5092 118.501,83.5092 119,89.5C 121.981,93.6959 125.814,94.5293 130.5,92C 131.126,91.2496 131.626,90.4162 132,89.5C 132.499,83.5092 132.666,77.5092 132.5,71.5C 133.5,71.5 134.5,71.5 135.5,71.5C 135.877,78.2569 135.377,84.9236 134,91.5C 129.53,95.8371 124.363,96.6704 118.5,94C 117.54,92.5806 116.707,91.0806 116,89.5C 115.501,83.5092 115.334,77.5092 115.5,71.5 Z"/></g>
<g><path style="opacity:0.767" fill="#363935" d="M 141.5,71.5 C 142.822,71.33 143.989,71.6634 145,72.5C 149.667,78.5 154.333,84.5 159,90.5C 159.169,84.1406 159.669,77.8072 160.5,71.5C 161.833,79.5 161.833,87.5 160.5,95.5C 155.107,89.7268 149.94,83.7268 145,77.5C 144.501,83.4908 144.334,89.4908 144.5,95.5C 143.5,95.5 142.5,95.5 141.5,95.5C 141.5,87.5 141.5,79.5 141.5,71.5 Z"/></g>
<g><path style="opacity:0.698" fill="#363935" d="M 167.5,71.5 C 173.402,70.962 179.068,71.7953 184.5,74C 189.833,80.3333 189.833,86.6667 184.5,93C 179.1,95.278 173.434,96.1113 167.5,95.5C 167.5,87.5 167.5,79.5 167.5,71.5 Z M 170.5,73.5 C 181.575,72.0769 186.408,76.7435 185,87.5C 184.535,88.9308 183.701,90.0975 182.5,91C 178.747,92.9889 174.747,93.8222 170.5,93.5C 170.5,86.8333 170.5,80.1667 170.5,73.5 Z"/></g>
<g><path style="opacity:0.751" fill="#363935" d="M 200.5,71.5 C 201.822,71.33 202.989,71.6634 204,72.5C 207.372,80.0755 210.872,87.5755 214.5,95C 213.5,95.6667 212.5,95.6667 211.5,95C 210.199,90.1067 207.032,88.2733 202,89.5C 196.968,88.2733 193.801,90.1067 192.5,95C 191.668,95.6877 191.002,95.521 190.5,94.5C 194.121,86.9286 197.454,79.262 200.5,71.5 Z M 201.5,75.5 C 203.765,78.7355 205.765,82.2355 207.5,86C 204.183,86.4983 200.85,86.665 197.5,86.5C 198.548,82.7356 199.881,79.069 201.5,75.5 Z"/></g>
<g><path style="opacity:0.656" fill="#363935" d="M 213.5,71.5 C 219.868,71.1703 226.202,71.5037 232.5,72.5C 229.914,73.48 227.247,73.8134 224.5,73.5C 224.5,80.8333 224.5,88.1667 224.5,95.5C 223.5,95.5 222.5,95.5 221.5,95.5C 221.5,88.1667 221.5,80.8333 221.5,73.5C 218.302,74.0356 215.635,73.369 213.5,71.5 Z"/></g>
<g><path style="opacity:0.786" fill="#373936" d="M 236.5,71.5 C 237.5,71.5 238.5,71.5 239.5,71.5C 239.5,79.5 239.5,87.5 239.5,95.5C 238.5,95.5 237.5,95.5 236.5,95.5C 236.5,87.5 236.5,79.5 236.5,71.5 Z"/></g>
<g><path style="opacity:0.781" fill="#373a35" d="M 251.5,71.5 C 266.371,70.9106 271.204,77.5772 266,91.5C 257.831,98.5528 250.831,97.5528 245,88.5C 242.788,81.0146 244.954,75.3479 251.5,71.5 Z M 253.5,73.5 C 262.732,73.6011 266.566,78.2678 265,87.5C 260.737,94.1569 255.403,95.1569 249,90.5C 245.105,83.358 246.605,77.6913 253.5,73.5 Z"/></g>
<g><path style="opacity:0.769" fill="#363935" d="M 295.5,71.5 C 295.5,72.8333 295.5,74.1667 295.5,75.5C 294.178,75.67 293.011,75.3366 292,74.5C 291.5,81.4921 291.334,88.4921 291.5,95.5C 290.325,95.719 289.325,95.3857 288.5,94.5C 283.907,88.3171 279.073,82.3171 274,76.5C 273.831,82.8594 273.331,89.1928 272.5,95.5C 271.502,87.5277 271.169,79.5277 271.5,71.5C 272.675,71.281 273.675,71.6143 274.5,72.5C 279.19,78.0227 283.69,83.6894 288,89.5C 288.499,83.5092 288.666,77.5092 288.5,71.5C 290.833,72.8333 293.167,72.8333 295.5,71.5 Z"/></g>
<g><path style="opacity:0.946" fill="#6c2e80" d="M 44.5,71.5 C 44.8333,71.5 45.1667,71.5 45.5,71.5C 45.092,77.0023 45.092,82.669 45.5,88.5C 45.1667,89.5 44.5,90.1667 43.5,90.5C 42.6753,86.3528 42.1753,82.0195 42,77.5C 41.1841,78.8228 40.0174,79.4894 38.5,79.5C 40.9092,77.0976 42.9092,74.4309 44.5,71.5 Z"/></g>
<g><path style="opacity:0.757" fill="#a63047" d="M 38.5,67.5 C 38.8333,67.5 39.1667,67.5 39.5,67.5C 39.2155,69.4147 39.5489,71.0813 40.5,72.5C 37.7089,74.7349 34.7089,76.7349 31.5,78.5C 31.9752,76.2163 32.9752,74.2163 34.5,72.5C 34.8333,71.5 35.5,70.8333 36.5,70.5C 37.1667,70.5 37.5,70.1667 37.5,69.5C 37.3284,68.5084 37.6618,67.8417 38.5,67.5 Z"/></g>
<g><path style="opacity:0.981" fill="#ae313f" d="M 22.5,65.5 C 22.5,73.1667 22.5,80.8333 22.5,88.5C 21.243,91.096 20.0764,93.7627 19,96.5C 18.1674,100.953 18.3341,103.953 19.5,105.5C 20.1869,110.9 20.8536,116.4 21.5,122C 21.2716,122.399 20.9382,122.565 20.5,122.5C 18.0499,120.371 16.3833,117.704 15.5,114.5C 15.8286,101.989 15.4952,89.6554 14.5,77.5C 16.1775,72.8033 18.8442,68.8033 22.5,65.5 Z"/></g>
<g><path style="opacity:1" fill="#742f79" d="M 13.5,77.5 C 13.5,77.8333 13.5,78.1667 13.5,78.5C 12.8333,78.5 12.5,78.8333 12.5,79.5C 12.5,79.8333 12.5,80.1667 12.5,80.5C 11.8333,80.5 11.5,80.8333 11.5,81.5C 11.5,82.1667 11.5,82.8333 11.5,83.5C 10.8333,83.5 10.5,83.8333 10.5,84.5C 10.5,85.1667 10.1667,85.5 9.5,85.5C 9.5,82.8333 9.5,80.1667 9.5,77.5C 10.9613,76.3143 12.2946,76.3143 13.5,77.5 Z"/></g>
<g><path style="opacity:0.99" fill="#b93135" d="M 13.5,77.5 C 13.8333,77.5 14.1667,77.5 14.5,77.5C 15.4952,89.6554 15.8286,101.989 15.5,114.5C 13.5189,111.872 12.0189,108.872 11,105.5C 9.60407,99.0105 9.10407,92.6772 9.5,86.5C 9.5,86.1667 9.5,85.8333 9.5,85.5C 10.1667,85.5 10.5,85.1667 10.5,84.5C 11.1667,84.5 11.5,84.1667 11.5,83.5C 11.5,82.8333 11.5,82.1667 11.5,81.5C 12.1667,81.5 12.5,81.1667 12.5,80.5C 12.5,80.1667 12.5,79.8333 12.5,79.5C 13.1667,79.5 13.5,79.1667 13.5,78.5C 13.5,78.1667 13.5,77.8333 13.5,77.5 Z"/></g>
<g><path style="opacity:1" fill="#93305a" d="M 7.5,77.5 C 8.16667,77.5 8.83333,77.5 9.5,77.5C 9.5,80.1667 9.5,82.8333 9.5,85.5C 9.5,85.8333 9.5,86.1667 9.5,86.5C 9.15829,87.3382 8.49162,87.6716 7.5,87.5C 7.5,84.1667 7.5,80.8333 7.5,77.5 Z"/></g>
<g><path style="opacity:0.945" fill="#772f75" d="M 43.5,90.5 C 41.8333,92.8333 39.8333,94.8333 37.5,96.5C 37.8195,91.6367 37.4861,86.97 36.5,82.5C 36.9321,81.2905 37.5987,80.2905 38.5,79.5C 40.0174,79.4894 41.1841,78.8228 42,77.5C 42.1753,82.0195 42.6753,86.3528 43.5,90.5 Z"/></g>
<g><path style="opacity:0.951" fill="#822f6b" d="M 36.5,82.5 C 37.4861,86.97 37.8195,91.6367 37.5,96.5C 37.0679,97.7095 36.4013,98.7095 35.5,99.5C 33.8651,95.427 32.8651,91.0937 32.5,86.5C 33.5,84.8333 34.8333,83.5 36.5,82.5 Z"/></g>
<g><path style="opacity:1" fill="#8f2f5f" d="M 32.5,86.5 C 32.8651,91.0937 33.8651,95.427 35.5,99.5C 33.4884,102.205 31.4884,104.872 29.5,107.5C 28.5111,102.025 28.1778,96.358 28.5,90.5C 29.5,88.8333 30.8333,87.5 32.5,86.5 Z"/></g>
<g><path style="opacity:0.985" fill="#9f304e" d="M 28.5,90.5 C 28.1778,96.358 28.5111,102.025 29.5,107.5C 25.7394,113.789 24.7394,120.455 26.5,127.5C 25.8333,127.5 25.1667,127.5 24.5,127.5C 23.1667,125.833 21.8333,124.167 20.5,122.5C 20.9382,122.565 21.2716,122.399 21.5,122C 20.8536,116.4 20.1869,110.9 19.5,105.5C 21.3151,99.708 24.3151,94.708 28.5,90.5 Z"/></g>
<g><path style="opacity:0.612" fill="#ae3040" d="M 29.5,120.5 C 29.5,121.833 29.5,123.167 29.5,124.5C 26.9781,122.998 26.9781,121.665 29.5,120.5 Z"/></g>
<g><path style="opacity:0.498" fill="#6e2e80" d="M 29.5,120.5 C 30.5862,120.62 31.2528,121.287 31.5,122.5C 31.2528,123.713 30.5862,124.38 29.5,124.5C 29.5,123.167 29.5,121.833 29.5,120.5 Z"/></g>
</svg>
