<?xml version="1.0" encoding="UTF-8"?>
<!DOCTYPE svg PUBLIC "-//W3C//DTD SVG 1.1//EN" "http://www.w3.org/Graphics/SVG/1.1/DTD/svg11.dtd">
<svg xmlns="http://www.w3.org/2000/svg" version="1.1" width="450px" height="380px" style="shape-rendering:geometricPrecision; text-rendering:geometricPrecision; image-rendering:optimizeQuality; fill-rule:evenodd; clip-rule:evenodd" xmlns:xlink="http://www.w3.org/1999/xlink">
<g><path style="opacity:1" fill="#2c5455" d="M -0.5,-0.5 C 6.16667,-0.5 12.8333,-0.5 19.5,-0.5C 18.8311,4.20814 18.6644,9.20814 19,14.5C 21.61,19.1089 24.61,23.4422 28,27.5C 28.9491,40.9509 22.7824,48.6175 9.5,50.5C 6.46459,48.699 3.13125,48.0323 -0.5,48.5C -0.5,32.1667 -0.5,15.8333 -0.5,-0.5 Z"/></g>
<g><path style="opacity:1" fill="#264d4f" d="M 19.5,-0.5 C 29.8333,-0.5 40.1667,-0.5 50.5,-0.5C 44.0214,4.46218 36.688,7.29551 28.5,8C 26.4746,9.19399 26.1413,10.694 27.5,12.5C 31.8285,13.713 36.1619,13.713 40.5,12.5C 43.1454,13.1076 45.8121,13.6076 48.5,14C 51.6634,16.202 54.4967,18.702 57,21.5C 58.2682,21.3842 59.6015,21.0509 61,20.5C 63.4457,23.6154 65.9457,26.6154 68.5,29.5C 67.6691,32.3371 66.0024,34.5038 63.5,36C 59.853,36.7745 56.1864,37.4412 52.5,38C 47.2783,42.6263 41.2783,46.293 34.5,49C 30.1128,53.1521 28.2795,58.3187 29,64.5C 26.8186,70.2128 23.6519,75.2128 19.5,79.5C 17.8872,80.4274 16.2205,81.2607 14.5,82C 9.14423,82.449 4.14423,83.2823 -0.5,84.5C -0.5,72.5 -0.5,60.5 -0.5,48.5C 3.13125,48.0323 6.46459,48.699 9.5,50.5C 22.7824,48.6175 28.9491,40.9509 28,27.5C 24.61,23.4422 21.61,19.1089 19,14.5C 18.6644,9.20814 18.8311,4.20814 19.5,-0.5 Z"/></g>
<g><path style="opacity:1" fill="#244b4c" d="M 50.5,-0.5 C 183.5,-0.5 316.5,-0.5 449.5,-0.5C 449.5,112.833 449.5,226.167 449.5,339.5C 433.081,336.625 417.415,331.458 402.5,324C 399.568,323.047 396.568,322.547 393.5,322.5C 393.666,331.839 393.5,341.173 393,350.5C 392.219,351.729 391.719,353.062 391.5,354.5C 392.857,356.801 394.69,358.801 397,360.5C 399.271,363.12 399.938,366.12 399,369.5C 396.758,368.825 394.591,369.325 392.5,371C 393.308,371.308 393.975,371.808 394.5,372.5C 393.376,373.914 392.376,375.414 391.5,377C 393.175,377.985 394.842,378.819 396.5,379.5C 291.167,379.5 185.833,379.5 80.5,379.5C 75.0649,376.611 69.7315,373.445 64.5,370C 46.3945,367.524 28.3945,364.524 10.5,361C 2.18845,356.79 2.68845,354.624 12,354.5C 17.1606,354.926 22.3273,355.259 27.5,355.5C 49.8784,353.493 72.2118,352.327 94.5,352C 94.5,349.667 94.5,347.333 94.5,345C 89.2435,339.662 84.5768,333.829 80.5,327.5C 79.3112,326.571 77.9778,326.238 76.5,326.5C 70.3229,317.155 62.1562,310.155 52,305.5C 51.6667,305.833 51.3333,306.167 51,306.5C 50.2169,302.547 48.7169,298.88 46.5,295.5C 45.4099,293.997 44.2433,293.664 43,294.5C 42.6667,292.833 42.3333,291.167 42,289.5C 40.6361,290.258 39.4695,289.758 38.5,288C 39.1667,287 39.8333,286 40.5,285C 38.1746,280.583 36.0079,276.083 34,271.5C 33.6924,272.308 33.1924,272.975 32.5,273.5C 31.6667,269.5 30.8333,265.5 30,261.5C 26.1039,258.622 23.4373,254.955 22,250.5C 21.6667,251.5 21.3333,252.5 21,253.5C 19.2002,251.683 17.0336,250.516 14.5,250C 15.448,249.517 16.448,249.351 17.5,249.5C 17.8184,245.206 16.9851,241.206 15,237.5C 14.6667,239.167 14.3333,240.833 14,242.5C 13,241.167 12,241.167 11,242.5C 10.7489,244.433 10.2489,246.266 9.5,248C 5.94457,248.056 2.61123,247.222 -0.5,245.5C -0.5,191.833 -0.5,138.167 -0.5,84.5C 4.14423,83.2823 9.14423,82.449 14.5,82C 16.2205,81.2607 17.8872,80.4274 19.5,79.5C 23.6519,75.2128 26.8186,70.2128 29,64.5C 28.2795,58.3187 30.1128,53.1521 34.5,49C 41.2783,46.293 47.2783,42.6263 52.5,38C 56.1864,37.4412 59.853,36.7745 63.5,36C 66.0024,34.5038 67.6691,32.3371 68.5,29.5C 65.9457,26.6154 63.4457,23.6154 61,20.5C 59.6015,21.0509 58.2682,21.3842 57,21.5C 54.4967,18.702 51.6634,16.202 48.5,14C 45.8121,13.6076 43.1454,13.1076 40.5,12.5C 36.1619,13.713 31.8285,13.713 27.5,12.5C 26.1413,10.694 26.4746,9.19399 28.5,8C 36.688,7.29551 44.0214,4.46218 50.5,-0.5 Z"/></g>
<g><path style="opacity:1" fill="#415d4b" d="M 365.5,154.5 C 367.114,160.399 366.448,166.065 363.5,171.5C 365.022,165.955 365.688,160.288 365.5,154.5 Z"/></g>
<g><path style="opacity:1" fill="#b3a14c" d="M 365.5,154.5 C 365.688,160.288 365.022,165.955 363.5,171.5C 356.623,187.542 344.956,198.708 328.5,205C 303.615,214.315 279.115,213.482 255,202.5C 254.055,202.905 253.388,203.572 253,204.5C 251.198,209.095 249.698,213.762 248.5,218.5C 298.978,235.129 314.812,268.463 296,318.5C 289.321,332.18 279.488,343.013 266.5,351C 241.24,368.027 213.907,372.527 184.5,364.5C 182.485,363.076 180.152,362.41 177.5,362.5C 148.025,352.69 127.692,333.357 116.5,304.5C 116.59,301.848 115.924,299.515 114.5,297.5C 114.296,294.482 113.963,291.482 113.5,288.5C 113.422,278.815 113.755,269.148 114.5,259.5C 115.924,257.485 116.59,255.152 116.5,252.5C 126.25,222.74 144.584,199.74 171.5,183.5C 171.833,182.333 172.167,181.167 172.5,180C 171.451,174.539 170.784,169.039 170.5,163.5C 162.125,164.62 154.958,162.286 149,156.5C 145.199,149.049 145.865,142.049 151,135.5C 156.706,129.73 163.206,125.063 170.5,121.5C 145.747,96.8215 141.247,68.8215 157,37.5C 175.097,13.0221 198.93,4.85543 228.5,13C 250.293,21.1256 264.96,36.1256 272.5,58C 273.5,58.6667 274.5,58.6667 275.5,58C 290.579,47.6536 306.912,44.9869 324.5,50C 342.512,59.2131 348.679,73.7131 343,93.5C 340.221,101.724 336.388,109.391 331.5,116.5C 339.7,121.184 347.534,126.517 355,132.5C 360.085,139.083 363.585,146.416 365.5,154.5 Z"/></g>
<g><path style="opacity:1" fill="#4e644b" d="M 262.5,53.5 C 265.221,57.6748 266.554,62.3414 266.5,67.5C 264.995,62.9737 263.662,58.3071 262.5,53.5 Z"/></g>
<g><path style="opacity:1" fill="#264c4c" d="M 262.5,53.5 C 263.662,58.3071 264.995,62.9737 266.5,67.5C 267.659,69.3769 269.326,69.8769 271.5,69C 282.297,59.8441 294.797,55.0107 309,54.5C 332.358,56.1851 341.358,68.5185 336,91.5C 334.529,95.5811 332.862,99.5811 331,103.5C 327.319,108.201 324.152,113.201 321.5,118.5C 321.529,120.029 322.196,121.196 323.5,122C 334.723,125.527 344.223,131.694 352,140.5C 362.238,162.46 357.071,179.96 336.5,193C 308.721,208.258 281.055,208.258 253.5,193C 244.33,185.991 235.33,178.825 226.5,171.5C 224.971,171.529 223.804,172.196 223,173.5C 223.008,179.696 220.842,184.863 216.5,189C 214.5,189.667 212.5,189.667 210.5,189C 207.769,186.374 205.936,183.207 205,179.5C 204.562,174.13 204.562,168.797 205,163.5C 201.274,161.646 198.608,162.646 197,166.5C 195.007,178.337 198.507,188.17 207.5,196C 214.353,198.607 220.186,197.107 225,191.5C 226.247,188.671 227.747,186.005 229.5,183.5C 234.987,188.076 240.653,192.409 246.5,196.5C 247.626,197.808 247.626,199.142 246.5,200.5C 244.39,204.502 243.057,208.835 242.5,213.5C 242.672,214.492 242.338,215.158 241.5,215.5C 233.929,215.157 226.596,215.823 219.5,217.5C 199.693,222.48 184.193,233.48 173,250.5C 162.662,275.143 167.495,296.31 187.5,314C 205.582,326.187 223.915,326.52 242.5,315C 258.577,301.204 263.744,284.037 258,263.5C 253.685,255.338 247.185,250.005 238.5,247.5C 237.737,246.732 236.737,246.232 235.5,246C 229.833,245.333 224.167,245.333 218.5,246C 215.524,246.705 212.858,247.871 210.5,249.5C 197.894,256.063 193.394,266.397 197,280.5C 199.641,291.395 206.474,296.228 217.5,295C 230.617,291.926 236.117,283.759 234,270.5C 225.561,265.602 223.394,267.769 227.5,277C 226.156,284.434 221.656,287.934 214,287.5C 208.078,286.911 204.744,283.578 204,277.5C 201.813,265.872 206.313,258.205 217.5,254.5C 223.13,253.708 228.797,253.375 234.5,253.5C 246.645,256.623 252.645,264.457 252.5,277C 250.174,306.011 234.507,318.678 205.5,315C 182.069,305.319 172.236,287.819 176,262.5C 188.748,234.371 210.581,221.538 241.5,224C 290.86,237.553 306.693,268.386 289,316.5C 283.117,328.103 274.617,337.27 263.5,344C 236.458,361.835 207.458,365.502 176.5,355C 151.712,345.71 134.379,328.877 124.5,304.5C 124.59,301.848 123.924,299.515 122.5,297.5C 120.439,286.07 120.105,274.736 121.5,263.5C 122.924,261.485 123.59,259.152 123.5,256.5C 130.708,234.108 143.041,214.941 160.5,199C 166.166,194.831 172.166,191.165 178.5,188C 179.573,186.687 180.24,185.187 180.5,183.5C 179.194,175.22 178.361,166.887 178,158.5C 177.5,158 177,157.5 176.5,157C 171.5,156.667 166.5,156.333 161.5,156C 153.853,153.225 152.02,148.392 156,141.5C 162.946,133.222 171.779,128.389 182.5,127C 183.576,125.274 183.743,123.441 183,121.5C 160.446,105.523 151.779,83.8568 157,56.5C 163.467,35.6993 177.3,22.866 198.5,18C 220.501,15.3338 239.001,22.1671 254,38.5C 257.87,42.9053 260.703,47.9053 262.5,53.5 Z"/></g>
<g><path style="opacity:1" fill="#7a804a" d="M 241.5,148.5 C 239.915,153.678 239.248,159.012 239.5,164.5C 238.357,161.024 238.19,157.358 239,153.5C 239.374,151.509 240.207,149.842 241.5,148.5 Z"/></g>
<g><path style="opacity:1" fill="#baa54c" d="M 281.5,124.5 C 290.185,124.464 298.851,124.797 307.5,125.5C 320.722,127.694 331.889,133.694 341,143.5C 349.618,158.632 347.784,172.466 335.5,185C 317.338,196.415 297.672,199.748 276.5,195C 262.726,191.708 251.559,184.541 243,173.5C 241.259,170.691 240.092,167.691 239.5,164.5C 239.248,159.012 239.915,153.678 241.5,148.5C 246.435,139.404 253.769,132.904 263.5,129C 269.504,126.932 275.504,125.432 281.5,124.5 Z"/></g>
<g><path style="opacity:1" fill="#5f704a" d="M 281.5,124.5 C 284.482,123.835 287.648,123.502 291,123.5C 296.734,123.415 302.234,124.082 307.5,125.5C 298.851,124.797 290.185,124.464 281.5,124.5 Z"/></g>
<g><path style="opacity:1" fill="#948f4b" d="M 299.5,114.5 C 304.193,114.54 308.859,114.873 313.5,115.5C 312.726,116.147 311.726,116.48 310.5,116.5C 306.65,116.068 302.983,115.402 299.5,114.5 Z"/></g>
<g><path style="opacity:1" fill="#928e4a" d="M 193.5,111.5 C 201.381,113.219 209.381,113.886 217.5,113.5C 211.681,114.653 205.681,114.819 199.5,114C 197.277,113.434 195.277,112.6 193.5,111.5 Z"/></g>
<g><path style="opacity:1" fill="#53684a" d="M 254.5,62.5 C 255.163,64.6413 255.497,66.9746 255.5,69.5C 255.637,73.4473 254.97,77.114 253.5,80.5C 254.22,74.8623 254.553,69.1956 254.5,63.5C 254.5,63.1667 254.5,62.8333 254.5,62.5 Z"/></g>
<g><path style="opacity:1" fill="#b8a44c" d="M 316.5,64.5 C 325.063,66.2512 329.396,71.5845 329.5,80.5C 328.185,94.1226 322.851,105.789 313.5,115.5C 308.859,114.873 304.193,114.54 299.5,114.5C 283.018,113.374 266.851,115.041 251,119.5C 248.167,119.333 246.667,117.833 246.5,115C 250.82,104.029 257.154,94.3623 265.5,86C 271.288,80.2772 277.621,75.2772 284.5,71C 288.07,69.2006 291.737,67.7006 295.5,66.5C 302.378,64.8414 309.378,64.1747 316.5,64.5 Z"/></g>
<g><path style="opacity:1" fill="#89884a" d="M 316.5,64.5 C 309.378,64.1747 302.378,64.8414 295.5,66.5C 297.277,65.3995 299.277,64.5662 301.5,64C 306.684,63.1837 311.684,63.3503 316.5,64.5 Z"/></g>
<g><path style="opacity:1" fill="#7e824b" d="M 250.5,51.5 C 252.601,54.7966 253.935,58.4632 254.5,62.5C 254.5,62.8333 254.5,63.1667 254.5,63.5C 252.589,59.767 251.256,55.767 250.5,51.5 Z"/></g>
<g><path style="opacity:1" fill="#89884b" d="M 199.5,26.5 C 197.485,27.9238 195.152,28.5905 192.5,28.5C 194.515,27.0762 196.848,26.4095 199.5,26.5 Z"/></g>
<g><path style="opacity:1" fill="#b8a44c" d="M 250.5,51.5 C 251.256,55.767 252.589,59.767 254.5,63.5C 254.553,69.1956 254.22,74.8623 253.5,80.5C 248.523,99.1435 236.523,110.144 217.5,113.5C 209.381,113.886 201.381,113.219 193.5,111.5C 174.582,103.197 164.582,88.5307 163.5,67.5C 165.231,48.4553 174.898,35.4553 192.5,28.5C 195.152,28.5905 197.485,27.9238 199.5,26.5C 222.109,23.3041 239.109,31.6375 250.5,51.5 Z"/></g>
<g><path style="opacity:1" fill="#50674a" d="M 211.5,105.5 C 212.461,107.265 212.795,109.265 212.5,111.5C 211.167,111.5 209.833,111.5 208.5,111.5C 208.5,109.167 208.5,106.833 208.5,104.5C 209.791,104.263 210.791,104.596 211.5,105.5 Z"/></g>
<g><path style="opacity:1" fill="#254b4c" d="M 211.5,105.5 C 211.785,107.288 211.452,108.955 210.5,110.5C 210.167,109.667 209.833,108.833 209.5,108C 209.684,106.624 210.351,105.791 211.5,105.5 Z"/></g>
<g><path style="opacity:1" fill="#32534c" d="M 250.5,71.5 C 251.404,72.209 251.737,73.209 251.5,74.5C 249.5,74.5 247.5,74.5 245.5,74.5C 245.5,73.5 245.5,72.5 245.5,71.5C 247.167,71.5 248.833,71.5 250.5,71.5 Z"/></g>
<g><path style="opacity:1" fill="#6f794a" d="M 250.5,71.5 C 248.833,71.5 247.167,71.5 245.5,71.5C 245.5,72.5 245.5,73.5 245.5,74.5C 244.566,73.4324 244.232,72.099 244.5,70.5C 246.735,70.2053 248.735,70.5386 250.5,71.5 Z"/></g>
<g><path style="opacity:1" fill="#37554c" d="M 167.5,68.5 C 169.833,68.5 172.167,68.5 174.5,68.5C 174.5,69.8333 174.5,71.1667 174.5,72.5C 172.167,72.5 169.833,72.5 167.5,72.5C 167.5,71.1667 167.5,69.8333 167.5,68.5 Z"/></g>
<g><path style="opacity:1" fill="#2a4e4c" d="M 221.5,48.5 C 222.586,48.62 223.253,49.2867 223.5,50.5C 221.549,58.7542 220.049,67.0875 219,75.5C 211.649,82.3523 204.149,89.019 196.5,95.5C 196.167,94.8333 195.833,94.1667 195.5,93.5C 197.396,83.8506 199.23,74.184 201,64.5C 207.733,58.9212 214.566,53.5878 221.5,48.5 Z"/></g>
<g><path style="opacity:1" fill="#a99b4c" d="M 206.5,66.5 C 213.896,66.6148 215.23,69.4481 210.5,75C 207.783,76.033 205.949,75.1997 205,72.5C 204.678,70.3111 205.178,68.3111 206.5,66.5 Z"/></g>
<g><path style="opacity:1" fill="#38574b" d="M 203.5,28.5 C 204.833,28.5 206.167,28.5 207.5,28.5C 207.5,31.1667 207.5,33.8333 207.5,36.5C 206.167,36.5 204.833,36.5 203.5,36.5C 203.5,33.8333 203.5,31.1667 203.5,28.5 Z"/></g>
<g><path style="opacity:1" fill="#777d4a" d="M 246.5,200.5 C 245.943,205.165 244.61,209.498 242.5,213.5C 243.057,208.835 244.39,204.502 246.5,200.5 Z"/></g>
<g><path style="opacity:1" fill="#727b4a" d="M 241.5,215.5 C 234.347,216.538 227.014,217.204 219.5,217.5C 226.596,215.823 233.929,215.157 241.5,215.5 Z"/></g>
<g><path style="opacity:1" fill="#274e4f" d="M 80.5,379.5 C 53.5,379.5 26.5,379.5 -0.5,379.5C -0.5,334.833 -0.5,290.167 -0.5,245.5C 2.61123,247.222 5.94457,248.056 9.5,248C 10.2489,246.266 10.7489,244.433 11,242.5C 12,241.167 13,241.167 14,242.5C 14.3333,240.833 14.6667,239.167 15,237.5C 16.9851,241.206 17.8184,245.206 17.5,249.5C 16.448,249.351 15.448,249.517 14.5,250C 17.0336,250.516 19.2002,251.683 21,253.5C 21.3333,252.5 21.6667,251.5 22,250.5C 23.4373,254.955 26.1039,258.622 30,261.5C 30.8333,265.5 31.6667,269.5 32.5,273.5C 33.1924,272.975 33.6924,272.308 34,271.5C 36.0079,276.083 38.1746,280.583 40.5,285C 39.8333,286 39.1667,287 38.5,288C 39.4695,289.758 40.6361,290.258 42,289.5C 42.3333,291.167 42.6667,292.833 43,294.5C 44.2433,293.664 45.4099,293.997 46.5,295.5C 48.7169,298.88 50.2169,302.547 51,306.5C 51.3333,306.167 51.6667,305.833 52,305.5C 62.1562,310.155 70.3229,317.155 76.5,326.5C 77.9778,326.238 79.3112,326.571 80.5,327.5C 84.5768,333.829 89.2435,339.662 94.5,345C 94.5,347.333 94.5,349.667 94.5,352C 72.2118,352.327 49.8784,353.493 27.5,355.5C 22.3273,355.259 17.1606,354.926 12,354.5C 2.68845,354.624 2.18845,356.79 10.5,361C 28.3945,364.524 46.3945,367.524 64.5,370C 69.7315,373.445 75.0649,376.611 80.5,379.5 Z"/></g>
<g><path style="opacity:1" fill="#96904b" d="M 238.5,247.5 C 228.95,245.736 219.617,246.403 210.5,249.5C 212.858,247.871 215.524,246.705 218.5,246C 224.167,245.333 229.833,245.333 235.5,246C 236.737,246.232 237.737,246.732 238.5,247.5 Z"/></g>
<g><path style="opacity:1" fill="#586b4a" d="M 234.5,253.5 C 228.797,253.375 223.13,253.708 217.5,254.5C 220.526,252.981 223.859,252.315 227.5,252.5C 230.025,252.503 232.359,252.837 234.5,253.5 Z"/></g>
<g><path style="opacity:1" fill="#6b764a" d="M 116.5,252.5 C 116.59,255.152 115.924,257.485 114.5,259.5C 114.41,256.848 115.076,254.515 116.5,252.5 Z"/></g>
<g><path style="opacity:1" fill="#53684a" d="M 123.5,256.5 C 123.59,259.152 122.924,261.485 121.5,263.5C 121.41,260.848 122.076,258.515 123.5,256.5 Z"/></g>
<g><path style="opacity:1" fill="#797f4a" d="M 114.5,259.5 C 113.755,269.148 113.422,278.815 113.5,288.5C 112.835,284.849 112.501,281.015 112.5,277C 112.341,270.926 113.007,265.092 114.5,259.5 Z"/></g>
<g><path style="opacity:1" fill="#596c4a" d="M 114.5,297.5 C 115.924,299.515 116.59,301.848 116.5,304.5C 115.076,302.485 114.41,300.152 114.5,297.5 Z"/></g>
<g><path style="opacity:1" fill="#80834b" d="M 122.5,297.5 C 123.924,299.515 124.59,301.848 124.5,304.5C 123.076,302.485 122.41,300.152 122.5,297.5 Z"/></g>
<g><path style="opacity:1" fill="#274e4f" d="M 449.5,339.5 C 449.5,352.833 449.5,366.167 449.5,379.5C 431.833,379.5 414.167,379.5 396.5,379.5C 394.842,378.819 393.175,377.985 391.5,377C 392.376,375.414 393.376,373.914 394.5,372.5C 393.975,371.808 393.308,371.308 392.5,371C 394.591,369.325 396.758,368.825 399,369.5C 399.938,366.12 399.271,363.12 397,360.5C 394.69,358.801 392.857,356.801 391.5,354.5C 391.719,353.062 392.219,351.729 393,350.5C 393.5,341.173 393.666,331.839 393.5,322.5C 396.568,322.547 399.568,323.047 402.5,324C 417.415,331.458 433.081,336.625 449.5,339.5 Z"/></g>
<g><path style="opacity:1" fill="#87874b" d="M 177.5,362.5 C 180.152,362.41 182.485,363.076 184.5,364.5C 181.848,364.59 179.515,363.924 177.5,362.5 Z"/></g>
</svg>
