<svg xmlns="http://www.w3.org/2000/svg" width="200" height="200" style="shape-rendering:geometricPrecision;text-rendering:geometricPrecision;image-rendering:optimizeQuality;fill-rule:evenodd;clip-rule:evenodd"><path style="opacity:1" fill="#17444f" d="M-.5-.5h200v105a334.866 334.866 0 0 0-36-5c.166-6.342 0-12.675-.5-19l-2.5-2.5-34-1c-4-3.333-8-3.333-12 0-7.993.5-15.993.666-24 .5-.166-7.34 0-14.674.5-22 2.167-8.833 7.667-14.333 16.5-16.5a392.04 392.04 0 0 1 53 1c4.869-3.733 5.202-7.9 1-12.5-3.735-1.681-7.069-1.181-10 1.5l-46 1C93.44 33.059 85.608 40.559 82 52.5c-.5 8.327-.666 16.66-.5 25a968.43 968.43 0 0 0-44 .5L35 80.5a180.95 180.95 0 0 0-.5 19 1888.318 1888.318 0 0 0-35 5V-.5z"/><path style="opacity:1" fill="#fa643a" d="M163.5 99.5a60.931 60.931 0 0 1-.5 11c-.5 1.833-1.667 3-3.5 3.5-13.996.5-27.996.667-42 .5-.167 15.004 0 30.004.5 45 3.167 10.167-.333 13.667-10.5 10.5l-24-1c-.88-.708-1.547-1.542-2-2.5v-80a342.839 342.839 0 0 0-37 1v17c9.182.21 18.182-.29 27-1.5 4.916 3.866 5.25 8.199 1 13a464.679 464.679 0 0 0-35-2l-2.5-2.5a72.442 72.442 0 0 1-.5-12c-.166-6.342 0-12.675.5-19l2.5-2.5a968.43 968.43 0 0 1 44-.5c-.166-8.34 0-16.673.5-25 3.608-11.941 11.44-19.441 23.5-22.5l46-1c2.931-2.681 6.265-3.181 10-1.5 4.202 4.6 3.869 8.767-1 12.5a392.04 392.04 0 0 0-53-1c-8.833 2.167-14.333 7.667-16.5 16.5a242.43 242.43 0 0 0-.5 22c8.007.166 16.007 0 24-.5 4-3.333 8-3.333 12 0l34 1 2.5 2.5c.5 6.325.666 12.658.5 19z"/><path style="opacity:1" fill="#164450" d="M44.5 87.5h36v9a294.716 294.716 0 0 0-36 2v-11z"/><path style="opacity:1" fill="#28454f" d="M153.5 97.5a679.187 679.187 0 0 0-63-2v-9c8.34-.166 16.673 0 25 .5 3.256 3.226 6.59 3.226 10 0 9.327-.5 18.661-.666 28-.5v11z"/><path style="opacity:1" fill="#325660" d="M90.5 95.5a679.187 679.187 0 0 1 63 2v7c-14.337-.167-28.671 0-43 .5l-1.5 1.5-1 52-1.5 1.5c-5.323.499-10.656.666-16 .5v-65z"/><path style="opacity:1" fill="#2d5660" d="M80.5 96.5c-.33 23.506.002 46.839 1 70 .453.958 1.12 1.792 2 2.5l24 1c10.167 3.167 13.667-.333 10.5-10.5-.5-14.996-.667-29.996-.5-45 14.004.167 28.004 0 42-.5 1.833-.5 3-1.667 3.5-3.5.499-3.652.665-7.318.5-11a334.866 334.866 0 0 1 36 5v95H-.5v-95a1888.318 1888.318 0 0 1 35-5 72.442 72.442 0 0 0 .5 12l2.5 2.5c11.836.235 23.502.901 35 2 4.25-4.801 3.916-9.134-1-13-8.818 1.21-17.818 1.71-27 1.5v-6a294.716 294.716 0 0 1 36-2z"/><path style="opacity:1" fill="#89594b" d="M44.5 87.5a342.839 342.839 0 0 1 37-1v80a1225.614 1225.614 0 0 1-1-70v-9h-36z"/></svg>