<svg xmlns="http://www.w3.org/2000/svg" width="286" height="86" style="shape-rendering:geometricPrecision;text-rendering:geometricPrecision;image-rendering:optimizeQuality;fill-rule:evenodd;clip-rule:evenodd"><path style="opacity:1" fill="#363b40" d="M-.5-.5h286v86H-.5v-86z"/><path style="opacity:1" fill="#f1f1f2" d="M23.5 28.5c4.949-.541 9.616.292 14 2.5 1.719 1.87 2.719 4.037 3 6.5-3.05.577-5.05-.59-6-3.5-11.374-2.968-16.208 1.532-14.5 13.5 2.85 6.182 7.35 8.016 13.5 5.5 1.95-1.734 2.95-3.9 3-6.5h-8v-4h12c.991 11.674-4.342 16.84-16 15.5-7.67-4.647-10.504-11.48-8.5-20.5 1.614-3.777 4.114-6.777 7.5-9z"/><path style="opacity:1" fill="#fefefe" d="M65.5 28.5h3v29h-3v-29z"/><path style="opacity:1" fill="#d8d9da" d="M65.5 28.5c1.068-.934 2.401-1.268 4-1 .327 10.18-.006 20.18-1 30v-29h-3z"/><path style="opacity:1" fill="#fefefe" d="M74.5 28.5h3v29h-3v-29z"/><path style="opacity:1" fill="#d8d9da" d="M74.5 28.5c1.068-.934 2.401-1.268 4-1 .327 10.18-.006 20.18-1 30v-29h-3z"/><path style="opacity:1" fill="#f6f6f6" d="M180.5 27.5h4a25.878 25.878 0 0 0 1 10c5.304-3.14 9.804-2.14 13.5 3 .81 4.757.476 9.424-1 14-4.145 3.479-8.478 3.812-13 1-1.049 1.607-2.549 2.273-4.5 2v-30z"/><path style="opacity:1" fill="#f7f7f7" d="M138.5 28.5h4v25h14v4h-18v-29z"/><path style="opacity:1" fill="#f6f6f6" d="M126.5 30.5h4v5h4v4h-4a84.9 84.9 0 0 0 .5 13c1.011.837 2.178 1.17 3.5 1v4c-2.865.445-5.365-.221-7.5-2a128.508 128.508 0 0 1-.5-16h-3v-3h3v-6z"/><path style="opacity:1" fill="#f0f1f1" d="M48.5 35.5c4.626-.8 8.46.534 11.5 4 .5 5.99.666 11.99.5 18-1.951.273-3.451-.393-4.5-2-3.8 2.633-7.633 2.633-11.5 0-2.29-5.085-.957-8.585 4-10.5a32.437 32.437 0 0 1 8-.5c.082-3.085-1.418-4.752-4.5-5-2.562 1.718-5.395 2.718-8.5 3a4.932 4.932 0 0 1 .5-3 32.614 32.614 0 0 0 4.5-4zM86.5 35.5c4.626-.8 8.46.534 11.5 4 .5 5.99.666 11.99.5 18-1.951.273-3.451-.393-4.5-2-3.8 2.633-7.633 2.633-11.5 0-2.29-5.085-.957-8.585 4-10.5a32.437 32.437 0 0 1 8-.5c.082-3.085-1.418-4.752-4.5-5-2.562 1.718-5.395 2.718-8.5 3a4.932 4.932 0 0 1 .5-3 32.614 32.614 0 0 0 4.5-4z"/><path style="opacity:1" fill="#eeefef" d="M103.5 35.5c1.951-.273 3.451.393 4.5 2 4.14-2.892 7.974-2.558 11.5 1a96.188 96.188 0 0 1 1 19h-4a128.508 128.508 0 0 0-.5-16c-2.667-2.667-5.333-2.667-8 0a128.508 128.508 0 0 0-.5 16h-4v-22z"/><path style="opacity:1" fill="#f0f1f1" d="M163.5 35.5c4.626-.8 8.46.534 11.5 4 .499 5.99.666 11.99.5 18-1.951.273-3.451-.393-4.5-2-3.799 2.633-7.633 2.633-11.5 0-2.291-5.085-.957-8.585 4-10.5a32.438 32.438 0 0 1 8-.5c.082-3.085-1.418-4.752-4.5-5-2.562 1.718-5.395 2.718-8.5 3a4.934 4.934 0 0 1 .5-3 32.58 32.58 0 0 0 4.5-4z"/><path style="opacity:1" fill="#f3f3f3" d="M217.5 35.5c11.526.045 15.693 5.712 12.5 17-.833 2.167-2.333 3.667-4.5 4.5-3 .667-6 .667-9 0-2.315-1.11-3.815-2.943-4.5-5.5-2.096-6.931-.263-12.264 5.5-16z"/><path style="opacity:1" fill="#eeefef" d="M234.5 35.5c1.951-.273 3.451.393 4.5 2 1.789-1.729 3.956-2.396 6.5-2v4c-2.544-.396-4.711.271-6.5 2a128.508 128.508 0 0 0-.5 16h-4v-22z"/><path style="opacity:1" fill="#f2f2f3" d="M251.5 35.5c3.307-.437 6.307.23 9 2 1.342-1.505 3.008-2.172 5-2a313 313 0 0 1-.5 25l-3.5 3.5a30.499 30.499 0 0 1-11 0c-2.107-1.264-3.107-3.097-3-5.5 3.105.282 5.938 1.282 8.5 3 4.051-.708 5.718-3.041 5-7-2.917 1.893-6.084 2.393-9.5 1.5-2.167-.833-3.667-2.333-4.5-4.5-1.79-6.427-.29-11.76 4.5-16z"/><path style="opacity:1" fill="#3c4146" d="M187.5 39.5c7.309.166 9.809 3.833 7.5 11-3.283 5.31-6.616 5.31-10 0-1.188-4.241-.355-7.908 2.5-11z"/><path style="opacity:1" fill="#3b4045" d="M218.5 39.5c7.309.166 9.809 3.833 7.5 11-3.24 5.2-6.574 5.2-10 0-1.188-4.241-.355-7.908 2.5-11z"/><path style="opacity:1" fill="#393e43" d="M253.5 39.5c6.814-.01 9.314 3.323 7.5 10-3.388 3.903-6.721 3.903-10 0-1.139-3.921-.305-7.254 2.5-10z"/><path style="opacity:1" fill="#3e4348" d="M48.5 48.5c2.747-.313 5.413.02 8 1-2.316 5.348-5.316 6.015-9 2a10.028 10.028 0 0 1 1-3zM86.5 48.5c2.747-.313 5.413.02 8 1-2.316 5.348-5.316 6.015-9 2a10.028 10.028 0 0 1 1-3zM163.5 48.5c2.747-.313 5.414.02 8 1-2.316 5.348-5.316 6.015-9 2a10.02 10.02 0 0 1 1-3z"/><path style="opacity:1" fill="#f5f6f6" d="M204.5 52.5h4c.49 2.448-.343 4.115-2.5 5-2.611-1-3.111-2.667-1.5-5z"/></svg>