<svg xmlns="http://www.w3.org/2000/svg" width="300" height="76" style="shape-rendering:geometricPrecision;text-rendering:geometricPrecision;image-rendering:optimizeQuality;fill-rule:evenodd;clip-rule:evenodd"><path style="opacity:.004" d="M231.5 9.5c1.101-1.098 2.434-1.265 4-.5a8.435 8.435 0 0 1-4 .5zM247.5 9.5c1.101-1.098 2.434-1.265 4-.5a8.435 8.435 0 0 1-4 .5z"/><path style="opacity:.004" fill="#ff4bfd" d="M30.5 11.5c2.466-1.134 5.133-1.3 8-.5a32.437 32.437 0 0 1-8 .5z"/><path style="opacity:.016" fill="#474747" d="M229.5 10.5c.973 2.448 1.306 5.115 1 8-4.338-.122-4.672-.455-1-1v-7z"/><path style="opacity:.012" fill="#ffa200" d="M43.5 34.5h-3c-.166-7.008 0-14.008.5-21-.076 7.272.757 14.272 2.5 21z"/><path style="opacity:.787" fill="#4f4f4f" d="M252.5 23.5c-.897 1.098-1.73 1.098-2.5 0l-1 4c-.21-1.558-.71-2.892-1.5-4h-11v9h-3a4.934 4.934 0 0 1-.5 3c-.232-1.237-.732-2.237-1.5-3v-9c-2.235-.295-4.235.039-6 1h-1a20.691 20.691 0 0 0 1-5h6v-9h5v9h11v-9h5v9h6v4h-6z"/><path style="opacity:.017" fill="#4a4a4a" d="M237.5 10.5c.968 2.107 1.302 4.44 1 7h7c-.163-2.357.003-4.69.5-7 .497 2.646.664 5.313.5 8h-9v-8z"/><path style="opacity:.016" fill="#484848" d="M135.5 18.5c1.101-1.098 2.434-1.265 4-.5a8.435 8.435 0 0 1-4 .5z"/><path style="opacity:.004" fill="#292929" d="M154.5 18.5c1.349-1.297 2.682-1.13 4 .5a2.427 2.427 0 0 1-2 .5c-.342-.838-1.008-1.172-2-1z"/><path style="opacity:.016" fill="#494949" d="M253.5 10.5c.968 2.107 1.302 4.44 1 7 5 .503 4.667.836-1 1v-8z"/><path style="opacity:.742" fill="#4b4b4b" d="M94.5 20.5c1.488 2.686 2.155 2.353 2-1h5v9c-.768.762-1.268 1.762-1.5 3-.284-2.386-1.284-3.052-3-2-.278-.916-.778-1.582-1.5-2h-1c0-2-1-3-3-3-2.961-2.517-5.961-2.517-9 0-.667 0-1 .333-1 1-.667 0-1 .333-1 1-1.663 1.939-2.33 4.272-2 7-1.735-.557-3.402-.89-5-1 2.122-12.445 9.122-16.445 21-12zm2-1c.155 3.353-.512 3.686-2 1l2-1zm-5 5c2 0 3 1 3 3a6.541 6.541 0 0 1-3-3z"/><path style="opacity:.004" fill="#282828" d="M125.5 19.5c.997-1.212 1.997-1.046 3 .5a2.427 2.427 0 0 1-2 .5c0-.667-.333-1-1-1z"/><path style="opacity:.779" fill="#4c4c4c" d="M154.5 18.5c.342.838 1.008 1.172 2 1 2.69 1.694 4.69 4.027 6 7a4.934 4.934 0 0 1-.5 3c-1.596.549-2.763-.118-3.5-2l-4-3c-3.299-2.546-6.632-2.546-10 0-.667 0-1 .333-1 1-2.039 1.411-3.039 3.411-3 6-1.613.444-2.78 1.444-3.5 3-.278-.916-.778-1.583-1.5-2v-13h4a8.43 8.43 0 0 0 .5 4 37.799 37.799 0 0 1 3.5-4 39.704 39.704 0 0 1 11-1zm-15 1c1.202.905 2.536.905 4 0a37.799 37.799 0 0 0-3.5 4 8.43 8.43 0 0 1-.5-4zm15 5c-2.191-.79-4.191-.79-6 0h-4c3.368-2.546 6.701-2.546 10 0z"/><path style="opacity:.779" fill="#494949" d="M189.5 19.5c0 .667.333 1 1 1a35.068 35.068 0 0 1 6 8c.486 2.882.486 5.548 0 8-.722.417-1.222 1.084-1.5 2a20.682 20.682 0 0 0-3.5-4c.368-3.544-.632-6.544-3-9 0-.667-.333-1-1-1-3.333-2.667-6.667-2.667-10 0-2 0-3 1-3 3l-2 3c-1.194-2.518-2.36-2.518-3.5 0-.278-.916-.778-1.582-1.5-2v-9h5c-.155 3.353.512 3.686 2 1 4.864-2.17 9.864-2.503 15-1zm-17 0 2 1c-1.488 2.686-2.155 2.353-2-1zm5 5a6.544 6.544 0 0 1-3 3c0-2 1-3 3-3z"/><path style="opacity:.004" fill="#282828" d="M189.5 19.5c.997-1.212 1.997-1.046 3 .5a2.427 2.427 0 0 1-2 .5c-.667 0-1-.333-1-1z"/><path style="opacity:.755" fill="#474747" d="M289.5 40.5c-.667 0-1 .333-1 1-1.188.548-2.355.88-3.5 1a4.934 4.934 0 0 1-.5-3c1.09-6.113-.577-11.28-5-15.5-4.15-2.203-7.817-1.703-11 1.5-.667 0-1 .333-1 1a23.326 23.326 0 0 0-3 6c-.768.763-1.268 1.763-1.5 3a4.934 4.934 0 0 1-.5-3h-3c3.434-13.098 11.434-16.931 24-11.5 5.398 5.358 7.398 11.858 6 19.5z"/><path style="opacity:.004" d="M223.5 19.5c1.333.667 1.333.667 0 0z"/><path style="opacity:.008" fill="#5e5e5e" d="M109.5 21.5c-.667 0-1 .333-1 1-.543-.06-.876-.393-1-1 .757-1.273 1.423-1.273 2 0z"/><path style="opacity:.005" fill="#181818" d="M133.5 28.5h-1c-1.002-2.61-.835-5.276.5-8 .497 2.646.664 5.313.5 8z"/><path style="opacity:.016" fill="#585858" d="M259.5 19.5c1.098 1.1 1.265 2.434.5 4a8.43 8.43 0 0 1-.5-4z"/><path style="opacity:.016" fill="#404040" d="M144.5 24.5h4c-1.141.839-2.474 1.506-4 2-.607-.124-.94-.457-1-1 .667 0 1-.333 1-1z"/><path style="opacity:.004" fill="#252525" d="M187.5 24.5c.667 0 1 .333 1 1a2.429 2.429 0 0 1-.5 2 6.977 6.977 0 0 0-3.5-2.5 4.932 4.932 0 0 1 3-.5z"/><path style="opacity:.016" fill="#404040" d="M225.5 24.5h5c.166 8.007 0 16.007-.5 24a267.054 267.054 0 0 0-1.5-23c-.886.825-1.219 1.825-1 3h-1c.067-1.459-.266-2.792-1-4z"/><path style="opacity:.886" fill="#fe7602" d="M43.5 34.5h3c.13.876-.203 1.543-1 2-2.733 1.758-5.567 2.09-8.5 1a100.024 100.024 0 0 0-11.5 4 6.807 6.807 0 0 0 3 1.5c-1.238.232-2.238.732-3 1.5a634.396 634.396 0 0 0-19-6.5c-.588-3.387.245-6.553 2.5-9.5a165.058 165.058 0 0 0 16 6 11.477 11.477 0 0 0 2.5-1c.83-6.642 1.33-13.308 1.5-20l1 23c.5-7.993.666-15.993.5-24 2.947-.277 5.78.056 8.5 1l1 23a19.606 19.606 0 0 0 3.5-2z"/><path style="opacity:.004" fill="#292929" d="M82.5 24.5a4.932 4.932 0 0 1 3 .5c-2.167.833-3.667 2.333-4.5 4.5a4.932 4.932 0 0 1-.5-3c.667 0 1-.333 1-1 .667 0 1-.333 1-1z"/><path style="opacity:.016" fill="#424242" d="M237.5 24.5h9c.166 8.007 0 16.007-.5 24-.5-7.66-.666-15.326-.5-23h-7v19c5 .503 4.667.836-1 1v-21z"/><path style="opacity:.016" fill="#383838" d="M253.5 24.5c5.667.164 6 .497 1 1v19c5 .503 4.667.836-1 1v-21z"/><path style="opacity:.004" fill="#feff00" d="M8.5 26.5c1.333.667 1.333.667 0 0z"/><path style="opacity:.004" fill="#161616" d="M268.5 25.5c2.157.553 1.99 1.553-.5 3a2.429 2.429 0 0 1-.5-2c.667 0 1-.333 1-1z"/><path style="opacity:.02" fill="#ff5c00" d="M57.5 29.5c-3.721-.293-3.555-.96.5-2l1.5.5c-.916.278-1.583.778-2 1.5z"/><path style="opacity:.795" fill="#383838" d="M247.5 23.5c.79 1.108 1.29 2.442 1.5 4l1-4c.77 1.098 1.603 1.098 2.5 0v23h6v5c-4.016.6-7.516-.4-10.5-3a313 313 0 0 1-.5-25z"/><path style="opacity:.012" fill="#fe8000" d="M5.5 29.5c1.025.397 1.192 1.063.5 2a2.427 2.427 0 0 1-.5-2z"/><path style="opacity:.012" fill="#3f3f3f" d="M227.5 28.5c1.333 2 1.333 4 0 6v-6z"/><path style="opacity:.012" fill="#3d3d3d" d="M133.5 28.5c1.333 2.667 1.333 5.333 0 8v-8z"/><path style="opacity:.935" fill="#fe6a02" d="M64.5 37.5c-.992-.172-1.658.162-2 1-1.291-.237-2.291.096-3 1-1.291-.237-2.291.096-3 1-1.291-.237-2.291.096-3 1-1.291-.237-2.291.096-3 1-1.291-.237-2.291.096-3 1-1.291-.237-2.291.096-3 1-1.924.21-2.257.877-1 2 0 .667.333 1 1 1a139.81 139.81 0 0 1 11 17c-.992-.172-1.658.162-2 1a399.289 399.289 0 0 1-6 3c.073-1.527-.594-2.527-2-3-.432-1.21-1.099-2.21-2-3a303.438 303.438 0 0 0-3-4c0-.667-.333-1-1-1 .073-1.527-.594-2.527-2-3-.432-1.21-1.099-2.21-2-3-.667-1.333-1.333-1.333-2 0-.838.342-1.172 1.008-1 2-.667 0-1 .333-1 1-.667 0-1 .333-1 1-.838.342-1.172 1.008-1 2-.667 0-1 .333-1 1-.838.342-1.172 1.008-1 2-.667 0-1 .333-1 1-.667 0-1 .333-1 1-.838.342-1.172 1.008-1 2-.667 0-1 .333-1 1-.667 0-1 .333-1 1-.838.342-1.172 1.008-1 2-2.947-1.144-5.613-2.81-8-5a310.856 310.856 0 0 1 12.5-17c.692-.937.525-1.603-.5-2 .762-.768 1.762-1.268 3-1.5a6.807 6.807 0 0 1-3-1.5 100.024 100.024 0 0 1 11.5-4c2.933 1.09 5.767.758 8.5-1 .797-.457 1.13-1.124 1-2 3.583-1.86 7.25-3.527 11-5 1.322.17 2.489-.163 3.5-1a150.583 150.583 0 0 1 3.5 9zm-27 17c1.406.473 2.073 1.473 2 3-1.406-.473-2.073-1.473-2-3zm8 11c1.406.473 2.073 1.473 2 3-1.406-.473-2.073-1.473-2-3z"/><path style="opacity:.004" fill="#151515" d="M71.5 27.5c.639.597.972 1.43 1 2.5L71 37.5c-.388-3.35-.22-6.683.5-10z"/><path style="opacity:.016" fill="#404040" d="M290.5 40.5a60.93 60.93 0 0 1 .5-11c.81 3.858.643 7.524-.5 11z"/><path style="opacity:.774" fill="#414141" d="M125.5 19.5c.667 0 1 .333 1 1a35.068 35.068 0 0 1 6 8v8h-23c-.722.417-1.222 1.084-1.5 2-.667-2.667-1.333-2.667-2 0-.278-.916-.778-1.583-1.5-2v-7a37.132 37.132 0 0 1 4-7c.667 0 1-.333 1-1 5.001-3.075 10.335-3.741 16-2zm0 7c1.574 1.602 2.241 3.602 2 6a81.87 81.87 0 0 1-18-1c.124-.607.457-.94 1-1 5.18 1.315 10.514 1.315 16 0-.124-.607-.457-.94-1-1v-3zm-8-2h3c2 1.333 3.667 3 5 5-4.134.985-8.468 1.318-13 1v-3c.667 0 1-.333 1-1 .667 0 1-.333 1-1 1.291.237 2.291-.096 3-1zm-3 0v1c-.667 0-1 .333-1 1h-1c0-1.333.667-2 2-2zm6-1c-1.291-.237-2.291.096-3 1h-3c1.82-1.961 3.82-2.294 6-1z"/><path style="opacity:.018" fill="#3e3e3e" d="M111.5 27.5h1v3c4.532.318 8.866-.015 13-1 .543.06.876.393 1 1-5.486 1.315-10.82 1.315-16 0 .904-.709 1.237-1.709 1-3z"/><path style="opacity:.016" fill="#343434" d="M120.5 24.5h3c0 .667.333 1 1 1 0 .667.333 1 1 1v3c-1.333-2-3-3.667-5-5z"/><path style="opacity:.778" fill="#414141" d="M224.5 24.5c.16 1.653.826 2.986 2 4-.295 2.235.039 4.235 1 6-.111.617-.444 1.117-1 1.5-7.659.5-15.326.666-23 .5-.722.417-1.222 1.084-1.5 2-.667-2.667-1.333-2.667-2 0-.278-.916-.778-1.583-1.5-2 .389-3.053-.277-5.72-2-8 .679-3.6 1.513-3.267 2.5 1 3.096-8.8 9.263-12.3 18.5-10.5 2.805 1.382 5.139 3.216 7 5.5zm-4 4c.934 1.068 1.268 2.401 1 4a81.87 81.87 0 0 1-18-1c.124-.607.457-.94 1-1 5.14.988 10.474 1.321 16 1v-3zm-9-4c3.462.026 6.129 1.359 8 4-3.873 1.93-8.206 2.597-13 2v-3c.667 0 1-.333 1-1 .667 0 1-.333 1-1 1.291.237 2.291-.096 3-1zm-3 0v1c-.667 0-1 .333-1 1h-1c0-1.333.667-2 2-2zm6-1c-1.291-.237-2.291.096-3 1h-3c1.82-1.961 3.82-2.294 6-1z"/><path style="opacity:.016" fill="#404040" d="M205.5 27.5h1v3c4.794.597 9.127-.07 13-2h1v3c-5.526.321-10.86-.012-16-1 .904-.709 1.237-1.709 1-3z"/><path style="opacity:.016" fill="#ff99fd" d="M3.5 34.5c1.073.75 1.24 1.75.5 3a4.932 4.932 0 0 1-.5-3z"/><path style="opacity:.008" fill="#fe8000" d="M65.5 37.5a2.428 2.428 0 0 1 .5-2c.692.937.525 1.603-.5 2z"/><path style="opacity:.004" fill="#feff00" d="M64.5 37.5h1c-.185.67-.519.67-1 0z"/><path style="opacity:.008" fill="#636363" d="M132.5 36.5h1c.237 1.291-.096 2.291-1 3-3.317-.665-6.817-.999-10.5-1-3.902.012-7.402.679-10.5 2h-1v-3c7.519.325 14.852-.008 22-1z"/><path style="opacity:.008" fill="#686868" d="M204.5 40.5v-3c7.341-.166 14.674 0 22 .5-7.602-.08-14.936.753-22 2.5z"/><path style="opacity:.012" fill="#ff60ff" d="M62.5 38.5h2c-2.117 2.154-4.784 3.154-8 3v-1c1.291.237 2.291-.096 3-1 1.291.237 2.291-.096 3-1z"/><path style="opacity:.016" fill="#333" d="M164.5 43.5v-3a309.56 309.56 0 0 1 1.5-21 462.27 462.27 0 0 1 0 43 177.568 177.568 0 0 0-1.5-19z"/><path style="opacity:.01" fill="#fe8000" d="M53.5 42.5v-1h3c-.709.904-1.709 1.237-3 1z"/><path style="opacity:.012" fill="#1f1f1f" d="M133.5 40.5c1.025.397 1.192 1.063.5 2a2.429 2.429 0 0 1-.5-2z"/><path style="opacity:.016" fill="#353535" d="M227.5 43.5a4.934 4.934 0 0 1 .5-3c.74 1.25.573 2.25-.5 3z"/><path style="opacity:.016" fill="#222" d="M289.5 40.5h1c.237 1.291-.096 2.291-1 3v-3z"/><path style="opacity:.012" fill="#ff6cff" d="M50.5 43.5v-1h3c-.709.904-1.709 1.237-3 1z"/><path style="opacity:.016" fill="#383838" d="M104.5 29.5c-1.333 4-1.333 8 0 12a104.964 104.964 0 0 1-2 12c-.167-11.338 0-22.672.5-34 .455 3.354.955 6.687 1.5 10z"/><path style="opacity:.012" fill="#343434" d="M198.5 40.5v3l-2 1v-2l2-2z"/><path style="opacity:.012" fill="#ffa1fe" d="M47.5 44.5v-1h3c-.709.904-1.709 1.237-3 1z"/><path style="opacity:.012" fill="#393939" d="M260.5 42.5a2.429 2.429 0 0 1-.5 2c-.692-.937-.525-1.603.5-2zM74.5 43.5a2.428 2.428 0 0 1-.5 2c-.692-.937-.525-1.603.5-2z"/><path style="opacity:.004" fill="#080808" d="M131.5 46.5v-1c.722-.417 1.222-1.084 1.5-2 .667 6 .667 12 0 18-.174-5.184-.674-10.184-1.5-15z"/><path style="opacity:.012" fill="#1f1f1f" d="M163.5 43.5h1c-.333 2.667-.667 2.667-1 0z"/><path style="opacity:.723" fill="#2a2a2a" d="M167.5 28.5c.722.418 1.222 1.084 1.5 2 1.14-2.518 2.306-2.518 3.5 0-.417 4.317.25 8.317 2 12 .467 2.797 2.133 4.13 5 4 8.712 1.292 12.712-2.708 12-12a20.682 20.682 0 0 1 3.5 4c.278-.916.778-1.583 1.5-2v6c-.838.342-1.172 1.008-1 2-.838.342-1.172 1.008-1 2-.667 0-1 .333-1 1-.667 0-1 .333-1 1-5.335 3.803-11.001 4.47-17 2 0-.667-.333-1-1-1-.283-.79-.783-1.456-1.5-2a112.97 112.97 0 0 0-.5 15h-5v-34zm7 14a813.979 813.979 0 0 0 5 4c-2.867.13-4.533-1.203-5-4z"/><path style="opacity:.016" fill="#2c2c2c" d="M198.5 43.5h1c-.333 2.667-.667 2.667-1 0z"/><path style="opacity:.834" fill="#2a2a2a" d="M198.5 36.5c.722.417 1.222 1.084 1.5 2 .667-2.667 1.333-2.667 2 0 .278-.916.778-1.583 1.5-2-.268 1.599.066 2.932 1 4 1.76 6.05 5.76 8.217 12 6.5.916-.278 1.582-.778 2-1.5.667 0 1-.333 1-1 1.431-1.28 2.098-2.947 2-5h5v4c-1.692 1.705-3.025 3.705-4 6a68.275 68.275 0 0 1-10 3c-6.007-.818-10.341-3.818-13-9 .237-1.291-.096-2.291-1-3v-4z"/><path style="opacity:.02" fill="#232323" d="M219.5 44.5c-.667 0-1 .333-1 1-2.157-.553-1.99-1.553.5-3 .464.594.631 1.261.5 2z"/><path style="opacity:.008" fill="#191919" d="M226.5 43.5h1c-.333 2.667-.667 2.667-1 0z"/><path style="opacity:.804" fill="#2c2c2c" d="M231.5 32.5c.768.763 1.268 1.763 1.5 3a4.934 4.934 0 0 0 .5-3h3v14h6v5c-4.016.6-7.516-.4-10.5-3a128.508 128.508 0 0 1-.5-16z"/><path style="opacity:.008" fill="#191919" d="M288.5 43.5h1c.172.992-.162 1.658-1 2v-2z"/><path style="opacity:.012" fill="#ff91fe" d="M44.5 44.5h3l-3 3c-.667 0-1-.333-1-1l1-2z"/><path style="opacity:.801" fill="#2d2d2d" d="M95.5 27.5c.722.418 1.222 1.084 1.5 2 1.716-1.052 2.716-.386 3 2 .232-1.238.732-2.238 1.5-3v21c-.897 1.098-1.73 1.098-2.5 0l-1 2c-.232-1.237-.732-2.237-1.5-3-.286-2.433-.952-2.433-2 0-.667 0-1 .333-1 1-.992-.172-1.658.162-2 1a54.935 54.935 0 0 1-12-1 1464.947 1464.947 0 0 1-5-6c-1.284-3.695-1.618-7.362-1-11 1.598.11 3.265.443 5 1-.864 8.792 2.803 12.792 11 12 1.88.27 3.213-.396 4-2 3.114-4.909 3.78-10.242 2-16zm-4 16h2c-.787 1.604-2.12 2.27-4 2l2-2z"/><path style="opacity:.008" fill="#141414" d="M93.5 43.5h-2c1.048-2.433 1.714-2.433 2 0z"/><path style="opacity:.823" fill="#2a2a2a" d="M104.5 36.5c.722.417 1.222 1.084 1.5 2 .667-2.667 1.333-2.667 2 0 .278-.916.778-1.583 1.5-2-.268 1.599.066 2.932 1 4-.271 1.88.396 3.213 2 4 1.531 2.18 3.698 3.18 6.5 3 2.221.107 4.054-.56 5.5-2 .667 0 1-.333 1-1 1.431-1.28 2.098-2.947 2-5h5l-1 6c-.667 0-1 .333-1 1l-6 5c-9.387 1.973-16.053-1.36-20-10v-5zm6 4h1l1 4c-1.604-.787-2.271-2.12-2-4z"/><path style="opacity:.02" fill="#2f2f2f" d="M125.5 44.5c-.667 0-1 .333-1 1-2.157-.553-1.99-1.553.5-3 .464.594.631 1.261.5 2z"/><path style="opacity:.843" fill="#2a2a2a" d="M162.5 26.5c1.711 4.38 2.377 9.047 2 14-.904.709-1.237 1.709-1 3-4.765 7.856-11.432 10.19-20 7-.672-.767-1.505-1.434-2.5-2a98.433 98.433 0 0 0-.5 14h-5v-30c.722.417 1.222 1.084 1.5 2 .72-1.556 1.887-2.556 3.5-3-.165 3.35.002 6.683.5 10 3.617 6.15 8.451 7.484 14.5 4 .667 0 1-.333 1-1 1.969-2.574 2.969-5.574 3-9-.337-2.676-.67-5.343-1-8 .737 1.882 1.904 2.549 3.5 2a4.934 4.934 0 0 0 .5-3z"/><path style="opacity:.007" fill="#191919" d="M156.5 44.5c-.667 0-1 .333-1 1-2.157-.553-1.99-1.553.5-3 .464.594.631 1.261.5 2z"/><path style="opacity:.004" fill="#191919" d="M195.5 44.5h1c.172.992-.162 1.658-1 2v-2z"/><path style="opacity:.829" fill="#2a2a2a" d="M259.5 32.5h3a4.934 4.934 0 0 0 .5 3c.232-1.237.732-2.237 1.5-3-.853 7.996 2.48 12.996 10 15 2.057.064 3.723-.602 5-2 1.333 0 2-.667 2-2a9.82 9.82 0 0 0 3-4 4.934 4.934 0 0 0 .5 3c1.145-.12 2.312-.452 3.5-1v2c-.838.342-1.172 1.008-1 2a6.544 6.544 0 0 0-3 3c-.667 0-1 .333-1 1-.667 0-1 .333-1 1-9.59 3.438-16.924.772-22-8a44.87 44.87 0 0 1-1-10zm22 11c0 1.333-.667 2-2 2 .333-1 1-1.667 2-2z"/><path style="opacity:.016" fill="#3f403f" d="M287.5 45.5h1c-.185.67-.519.67-1 0z"/><path style="opacity:.006" d="M130.5 46.5h1c-.333 2.667-.667 2.667-1 0z"/><path style="opacity:.016" fill="#3f403f" d="M194.5 46.5h1c-.185.67-.519.67-1 0zM193.5 47.5h1c-.185.67-.519.67-1 0z"/><path style="opacity:.016" fill="#2c2c2c" d="M243.5 46.5c1.113 1.446 1.28 3.113.5 5a12.93 12.93 0 0 1-.5-5z"/><path style="opacity:.016" fill="#3f403f" d="M192.5 48.5h1c-.185.67-.519.67-1 0z"/><path style="opacity:.016" fill="#373737" d="M259.5 47.5c1.098 1.1 1.265 2.434.5 4a8.43 8.43 0 0 1-.5-4z"/><path style="opacity:.004" fill="#151515" d="M284.5 48.5c2.293.801 1.96 1.468-1 2v-1c.667 0 1-.333 1-1z"/><path style="opacity:.016" fill="#3f403f" d="M79.5 49.5v1c-.67-.481-.67-.815 0-1z"/><path style="opacity:.012" d="M222.5 49.5c1.333.667 1.333.667 0 0z"/><path style="opacity:.008" d="M78.5 50.5c-1.1 1.098-2.434 1.265-4 .5a8.434 8.434 0 0 1 4-.5z"/><path style="opacity:.016" fill="#2c2c2c" d="M79.5 50.5a2.428 2.428 0 0 1 2 .5c-.937.692-1.603.525-2-.5z"/><path style="opacity:.012" d="M91.5 51.5v-1h2c-.342.838-1.008 1.172-2 1z"/><path style="opacity:.008" fill="#1a1a1a" d="M94.5 48.5c.934 1.068 1.268 2.401 1 4l-2-2v-1c.667 0 1-.333 1-1z"/><path style="opacity:.016" fill="#3f403f" d="M282.5 50.5h1c-.185.67-.519.67-1 0z"/><path style="opacity:.008" fill="#ff7000" d="M33.5 51.5h2c0 1.333-.667 2-2 2v-2z"/><path style="opacity:.01" fill="#171717" d="M91.5 51.5c-2.803 1.138-5.803 1.304-9 .5a40.936 40.936 0 0 1 9-.5z"/><path style="opacity:.008" fill="#040404" d="M143.5 50.5a76.423 76.423 0 0 0-1.5 11l-.5-5.5c.047-2.295.713-4.129 2-5.5z"/><path style="opacity:.016" fill="#2b2b2b" d="M174.5 49.5c.667 0 1 .333 1 1a88.601 88.601 0 0 0-1.5 12c-.814-4.52-.647-8.854.5-13z"/><path style="opacity:.005" fill="#040404" d="M124.5 51.5c1.879-.107 2.212.393 1 1.5-2.942 1.124-5.942 1.458-9 1 2.879-.546 5.546-1.38 8-2.5z"/><path style="opacity:.005" fill="#090909" d="M214.5 52.5c1.699-.16 3.366.007 5 .5-2.942 1.124-5.942 1.458-9 1 1.558-.21 2.891-.71 4-1.5z"/><path style="opacity:.016" fill="#fe8000" d="M32.5 53.5h1c-.185.67-.519.67-1 0z"/><path style="opacity:.009" d="M73.5 57.5c-1.098-1.1-1.265-2.434-.5-4a8.434 8.434 0 0 1 .5 4z"/><path style="opacity:.791" fill="#1d1d1d" d="M96.5 48.5c.768.763 1.268 1.763 1.5 3l1-2c.77 1.098 1.603 1.098 2.5 0v4c-.904.709-1.237 1.709-1 3-.838.342-1.172 1.008-1 2-.667 0-1 .333-1 1-.667 0-1 .333-1 1-.667 0-1 .333-1 1-.992-.172-1.658.162-2 1-1.291-.237-2.291.096-3 1-7.06 1.044-12.56-1.29-16.5-7a8.434 8.434 0 0 1-.5-4h5c-.227 2.433.773 4.1 3 5 3.333 1.333 6.667 1.333 10 0 .667 0 1-.333 1-1 1.604-.787 2.27-2.12 2-4 .934-1.068 1.268-2.401 1-4z"/><path style="opacity:.016" fill="#222" d="M101.5 53.5h1c.237 1.291-.096 2.291-1 3v-3z"/><path style="opacity:.004" fill="#ff3900" d="M31.5 54.5h1c.073 1.527-.594 2.527-2 3v-2c.667 0 1-.333 1-1z"/><path style="opacity:.011" fill="#030303" d="M93.5 56.5c-.667 0-1 .333-1 1h-10a182.323 182.323 0 0 1 10-2c.607.124.94.457 1 1z"/><path style="opacity:.01" d="M100.5 56.5h1c.172.992-.162 1.658-1 2v-2z"/><path style="opacity:.02" fill="#fe6600" d="M29.5 57.5h1c-.185.67-.519.67-1 0z"/><path style="opacity:.016" d="M73.5 57.5c1.333.667 1.333.667 0 0z"/><path style="opacity:.012" d="M99.5 58.5h1c-.185.67-.519.67-1 0z"/><path style="opacity:.004" fill="#ffcbfb" d="M28.5 58.5h1c.172.992-.162 1.658-1 2v-2z"/><path style="opacity:.008" fill="#ff7200" d="M40.5 58.5a2.428 2.428 0 0 1-.5 2c-.692-.937-.525-1.603.5-2z"/><path style="opacity:.016" d="M98.5 59.5h1c-.185.67-.519.67-1 0z"/><path style="opacity:.012" fill="#fe5500" d="M27.5 60.5h1c-.185.67-.519.67-1 0z"/><path style="opacity:.016" d="M97.5 60.5h1c-.185.67-.519.67-1 0z"/><path style="opacity:.02" fill="#fe6600" d="M26.5 61.5h1c-.185.67-.519.67-1 0z"/><path style="opacity:.016" d="M96.5 61.5h1c-.185.67-.519.67-1 0z"/><path style="opacity:.012" d="M94.5 63.5v-1h2c-.342.838-1.008 1.172-2 1z"/><path style="opacity:.004" fill="#ffc7f9" d="M11.5 62.5c1.025.397 1.192 1.063.5 2a2.428 2.428 0 0 1-.5-2z"/><path style="opacity:.008" fill="#ff7200" d="M25.5 62.5h1c.172.992-.162 1.658-1 2v-2z"/><path style="opacity:.012" fill="#ff6400" d="M43.5 62.5a2.428 2.428 0 0 1-.5 2c-.692-.937-.525-1.603.5-2z"/><path style="opacity:.004" fill="#ff2e00" d="M56.5 64.5a2.428 2.428 0 0 1 .5-2c.692.937.525 1.603-.5 2z"/><path style="opacity:.012" d="M91.5 64.5v-1h3c-.709.904-1.709 1.237-3 1zM135.5 64.5c1.101-1.098 2.434-1.265 4-.5a8.435 8.435 0 0 1-4 .5z"/><path style="opacity:.01" d="M167.5 64.5c1.446-1.113 3.113-1.28 5-.5-1.634.493-3.301.66-5 .5z"/><path style="opacity:.016" fill="#fe8000" d="M24.5 64.5h1c-.185.67-.519.67-1 0z"/><path style="opacity:.008" fill="#fe8000" d="M55.5 64.5h1c-.185.67-.519.67-1 0z"/><path style="opacity:.008" d="M91.5 64.5c-2.466 1.134-5.133 1.3-8 .5a32.437 32.437 0 0 1 8-.5z"/><path style="opacity:.008" fill="#ff7200" d="M53.5 65.5h2c-.667 1.333-1.333 1.333-2 0z"/><path style="opacity:.004" fill="#ff41ff" d="M23.5 65.5h1c.073 1.527-.594 2.527-2 3v-2c.667 0 1-.333 1-1z"/><path style="opacity:.008" fill="#fe8000" d="M21.5 68.5h1c-.185.67-.519.67-1 0z"/><path style="opacity:.008" fill="#ff7200" d="M21.5 69.5c-.397 1.025-1.063 1.192-2 .5a2.428 2.428 0 0 1 2-.5z"/><path style="opacity:.012" fill="#ff6400" d="M47.5 70.5c.397-1.025 1.063-1.192 2-.5a2.428 2.428 0 0 1-2 .5z"/></svg>