<?xml version="1.0" encoding="UTF-8"?>
<!DOCTYPE svg PUBLIC "-//W3C//DTD SVG 1.1//EN" "http://www.w3.org/Graphics/SVG/1.1/DTD/svg11.dtd">
<svg xmlns="http://www.w3.org/2000/svg" version="1.1" width="300px" height="76px" style="shape-rendering:geometricPrecision; text-rendering:geometricPrecision; image-rendering:optimizeQuality; fill-rule:evenodd; clip-rule:evenodd" xmlns:xlink="http://www.w3.org/1999/xlink">
<g><path style="opacity:0.004" fill="#000000" d="M 231.5,9.5 C 232.601,8.40168 233.934,8.23502 235.5,9C 234.207,9.49001 232.873,9.65668 231.5,9.5 Z"/></g>
<g><path style="opacity:0.004" fill="#000000" d="M 247.5,9.5 C 248.601,8.40168 249.934,8.23502 251.5,9C 250.207,9.49001 248.873,9.65668 247.5,9.5 Z"/></g>
<g><path style="opacity:0.004" fill="#ff4bfd" d="M 30.5,11.5 C 32.9664,10.3659 35.633,10.1993 38.5,11C 35.854,11.4974 33.1873,11.6641 30.5,11.5 Z"/></g>
<g><path style="opacity:0.016" fill="#474747" d="M 229.5,10.5 C 230.473,12.9479 230.806,15.6146 230.5,18.5C 226.162,18.3781 225.828,18.0447 229.5,17.5C 229.5,15.1667 229.5,12.8333 229.5,10.5 Z"/></g>
<g><path style="opacity:0.012" fill="#ffa200" d="M 43.5,34.5 C 42.5,34.5 41.5,34.5 40.5,34.5C 40.3337,27.4921 40.5004,20.4921 41,13.5C 40.924,20.7717 41.7573,27.7717 43.5,34.5 Z"/></g>
<g><path style="opacity:0.787" fill="#4f4f4f" d="M 252.5,23.5 C 251.603,24.5981 250.77,24.5981 250,23.5C 249.667,24.8333 249.333,26.1667 249,27.5C 248.79,25.9419 248.29,24.6085 247.5,23.5C 243.833,23.5 240.167,23.5 236.5,23.5C 236.5,26.5 236.5,29.5 236.5,32.5C 235.5,32.5 234.5,32.5 233.5,32.5C 233.649,33.552 233.483,34.552 233,35.5C 232.768,34.2625 232.268,33.2625 231.5,32.5C 231.5,29.5 231.5,26.5 231.5,23.5C 229.265,23.2053 227.265,23.5386 225.5,24.5C 225.167,24.5 224.833,24.5 224.5,24.5C 225.038,22.8828 225.371,21.2161 225.5,19.5C 227.5,19.5 229.5,19.5 231.5,19.5C 231.5,16.5 231.5,13.5 231.5,10.5C 233.167,10.5 234.833,10.5 236.5,10.5C 236.5,13.5 236.5,16.5 236.5,19.5C 240.167,19.5 243.833,19.5 247.5,19.5C 247.5,16.5 247.5,13.5 247.5,10.5C 249.167,10.5 250.833,10.5 252.5,10.5C 252.5,13.5 252.5,16.5 252.5,19.5C 254.5,19.5 256.5,19.5 258.5,19.5C 258.5,20.8333 258.5,22.1667 258.5,23.5C 256.5,23.5 254.5,23.5 252.5,23.5 Z"/></g>
<g><path style="opacity:0.017" fill="#4a4a4a" d="M 237.5,10.5 C 238.468,12.6074 238.802,14.9407 238.5,17.5C 240.833,17.5 243.167,17.5 245.5,17.5C 245.337,15.1432 245.503,12.8098 246,10.5C 246.497,13.146 246.664,15.8127 246.5,18.5C 243.5,18.5 240.5,18.5 237.5,18.5C 237.5,15.8333 237.5,13.1667 237.5,10.5 Z"/></g>
<g><path style="opacity:0.016" fill="#484848" d="M 135.5,18.5 C 136.601,17.4017 137.934,17.235 139.5,18C 138.207,18.49 136.873,18.6567 135.5,18.5 Z"/></g>
<g><path style="opacity:0.004" fill="#292929" d="M 154.5,18.5 C 155.849,17.2035 157.182,17.3702 158.5,19C 157.906,19.4643 157.239,19.631 156.5,19.5C 156.158,18.6618 155.492,18.3284 154.5,18.5 Z"/></g>
<g><path style="opacity:0.016" fill="#494949" d="M 253.5,10.5 C 254.468,12.6074 254.802,14.9407 254.5,17.5C 259.5,18.0031 259.167,18.3364 253.5,18.5C 253.5,15.8333 253.5,13.1667 253.5,10.5 Z"/></g>
<g><path style="opacity:0.742" fill="#4b4b4b" d="M 94.5,20.5 C 95.9881,23.1864 96.6547,22.8531 96.5,19.5C 98.1667,19.5 99.8333,19.5 101.5,19.5C 101.5,22.5 101.5,25.5 101.5,28.5C 100.732,29.2625 100.232,30.2625 100,31.5C 99.7165,29.1144 98.7165,28.4477 97,29.5C 96.7216,28.5842 96.2216,27.9175 95.5,27.5C 95.1667,27.5 94.8333,27.5 94.5,27.5C 94.5,25.5 93.5,24.5 91.5,24.5C 88.5389,21.983 85.5389,21.983 82.5,24.5C 81.8333,24.5 81.5,24.8333 81.5,25.5C 80.8333,25.5 80.5,25.8333 80.5,26.5C 78.8372,28.4385 78.1706,30.7718 78.5,33.5C 76.7648,32.943 75.0982,32.6097 73.5,32.5C 75.6218,20.0546 82.6218,16.0546 94.5,20.5 Z M 96.5,19.5 C 96.6547,22.8531 95.9881,23.1864 94.5,20.5C 95.1667,20.1667 95.8333,19.8333 96.5,19.5 Z M 91.5,24.5 C 93.5,24.5 94.5,25.5 94.5,27.5C 93.1667,26.8333 92.1667,25.8333 91.5,24.5 Z"/></g>
<g><path style="opacity:0.004" fill="#282828" d="M 125.5,19.5 C 126.497,18.2875 127.497,18.4542 128.5,20C 127.906,20.4643 127.239,20.631 126.5,20.5C 126.5,19.8333 126.167,19.5 125.5,19.5 Z"/></g>
<g><path style="opacity:0.779" fill="#4c4c4c" d="M 154.5,18.5 C 154.842,19.3382 155.508,19.6716 156.5,19.5C 159.19,21.1935 161.19,23.5268 162.5,26.5C 162.649,27.552 162.483,28.552 162,29.5C 160.404,30.0485 159.237,29.3818 158.5,27.5C 157.167,26.5 155.833,25.5 154.5,24.5C 151.201,21.9544 147.868,21.9544 144.5,24.5C 143.833,24.5 143.5,24.8333 143.5,25.5C 141.461,26.911 140.461,28.911 140.5,31.5C 138.887,31.9443 137.72,32.9443 137,34.5C 136.722,33.5842 136.222,32.9175 135.5,32.5C 135.5,28.1667 135.5,23.8333 135.5,19.5C 136.833,19.5 138.167,19.5 139.5,19.5C 139.343,20.8734 139.51,22.2068 140,23.5C 141.102,22.051 142.269,20.7177 143.5,19.5C 147.099,18.6561 150.766,18.3227 154.5,18.5 Z M 139.5,19.5 C 140.702,20.4054 142.036,20.4054 143.5,19.5C 142.269,20.7177 141.102,22.051 140,23.5C 139.51,22.2068 139.343,20.8734 139.5,19.5 Z M 154.5,24.5 C 152.309,23.7093 150.309,23.7093 148.5,24.5C 147.167,24.5 145.833,24.5 144.5,24.5C 147.868,21.9544 151.201,21.9544 154.5,24.5 Z"/></g>
<g><path style="opacity:0.779" fill="#494949" d="M 189.5,19.5 C 189.5,20.1667 189.833,20.5 190.5,20.5C 192.885,22.8838 194.885,25.5505 196.5,28.5C 196.986,31.3817 196.986,34.0483 196.5,36.5C 195.778,36.9175 195.278,37.5842 195,38.5C 193.968,36.9733 192.801,35.64 191.5,34.5C 191.868,30.9557 190.868,27.9557 188.5,25.5C 188.5,24.8333 188.167,24.5 187.5,24.5C 184.167,21.8333 180.833,21.8333 177.5,24.5C 175.5,24.5 174.5,25.5 174.5,27.5C 173.833,28.5 173.167,29.5 172.5,30.5C 171.306,27.9824 170.14,27.9824 169,30.5C 168.722,29.5842 168.222,28.9175 167.5,28.5C 167.5,25.5 167.5,22.5 167.5,19.5C 169.167,19.5 170.833,19.5 172.5,19.5C 172.345,22.8531 173.012,23.1864 174.5,20.5C 179.364,18.3305 184.364,17.9971 189.5,19.5 Z M 172.5,19.5 C 173.167,19.8333 173.833,20.1667 174.5,20.5C 173.012,23.1864 172.345,22.8531 172.5,19.5 Z M 177.5,24.5 C 176.833,25.8333 175.833,26.8333 174.5,27.5C 174.5,25.5 175.5,24.5 177.5,24.5 Z"/></g>
<g><path style="opacity:0.004" fill="#282828" d="M 189.5,19.5 C 190.497,18.2875 191.497,18.4542 192.5,20C 191.906,20.4643 191.239,20.631 190.5,20.5C 189.833,20.5 189.5,20.1667 189.5,19.5 Z"/></g>
<g><path style="opacity:0.755" fill="#474747" d="M 289.5,40.5 C 288.833,40.5 288.5,40.8333 288.5,41.5C 287.312,42.0476 286.145,42.3809 285,42.5C 284.517,41.552 284.351,40.552 284.5,39.5C 285.59,33.3874 283.923,28.2208 279.5,24C 275.35,21.7971 271.683,22.2971 268.5,25.5C 267.833,25.5 267.5,25.8333 267.5,26.5C 266.203,28.3713 265.203,30.3713 264.5,32.5C 263.732,33.2625 263.232,34.2625 263,35.5C 262.517,34.552 262.351,33.552 262.5,32.5C 261.5,32.5 260.5,32.5 259.5,32.5C 262.934,19.4018 270.934,15.5685 283.5,21C 288.898,26.3583 290.898,32.8583 289.5,40.5 Z"/></g>
<g><path style="opacity:0.004" fill="#000000" d="M 223.5,19.5 C 224.833,20.1667 224.833,20.1667 223.5,19.5 Z"/></g>
<g><path style="opacity:0.008" fill="#5e5e5e" d="M 109.5,21.5 C 108.833,21.5 108.5,21.8333 108.5,22.5C 107.957,22.44 107.624,22.1067 107.5,21.5C 108.257,20.2267 108.923,20.2267 109.5,21.5 Z"/></g>
<g><path style="opacity:0.005" fill="#181818" d="M 133.5,28.5 C 133.167,28.5 132.833,28.5 132.5,28.5C 131.498,25.8904 131.665,23.2237 133,20.5C 133.497,23.146 133.664,25.8127 133.5,28.5 Z"/></g>
<g><path style="opacity:0.016" fill="#585858" d="M 259.5,19.5 C 260.598,20.6009 260.765,21.9343 260,23.5C 259.51,22.2068 259.343,20.8734 259.5,19.5 Z"/></g>
<g><path style="opacity:0.016" fill="#404040" d="M 144.5,24.5 C 145.833,24.5 147.167,24.5 148.5,24.5C 147.359,25.339 146.026,26.0057 144.5,26.5C 143.893,26.3764 143.56,26.0431 143.5,25.5C 144.167,25.5 144.5,25.1667 144.5,24.5 Z"/></g>
<g><path style="opacity:0.004" fill="#252525" d="M 187.5,24.5 C 188.167,24.5 188.5,24.8333 188.5,25.5C 188.631,26.2389 188.464,26.9056 188,27.5C 187.097,26.2986 185.931,25.4652 184.5,25C 185.448,24.5172 186.448,24.3505 187.5,24.5 Z"/></g>
<g><path style="opacity:0.016" fill="#404040" d="M 225.5,24.5 C 227.167,24.5 228.833,24.5 230.5,24.5C 230.666,32.5069 230.5,40.5069 230,48.5C 229.831,40.8117 229.331,33.1451 228.5,25.5C 227.614,26.325 227.281,27.325 227.5,28.5C 227.167,28.5 226.833,28.5 226.5,28.5C 226.567,27.0413 226.234,25.7079 225.5,24.5 Z"/></g>
<g><path style="opacity:0.886" fill="#fe7602" d="M 43.5,34.5 C 44.5,34.5 45.5,34.5 46.5,34.5C 46.6309,35.3764 46.2975,36.0431 45.5,36.5C 42.7665,38.2575 39.9332,38.5908 37,37.5C 33.0657,38.6067 29.2323,39.94 25.5,41.5C 26.376,42.2508 27.376,42.7508 28.5,43C 27.2625,43.2321 26.2625,43.7321 25.5,44.5C 19.2322,42.2438 12.8989,40.0771 6.5,38C 5.91151,34.6133 6.74484,31.4466 9,28.5C 14.2088,30.7684 19.5421,32.7684 25,34.5C 25.8732,34.2645 26.7065,33.9312 27.5,33.5C 28.3309,26.8581 28.8309,20.1915 29,13.5C 29.3333,21.1667 29.6667,28.8333 30,36.5C 30.4997,28.5069 30.6664,20.5069 30.5,12.5C 33.4475,12.2229 36.2809,12.5562 39,13.5C 39.3333,21.1667 39.6667,28.8333 40,36.5C 41.3024,35.9152 42.469,35.2485 43.5,34.5 Z"/></g>
<g><path style="opacity:0.004" fill="#292929" d="M 82.5,24.5 C 83.552,24.3505 84.552,24.5172 85.5,25C 83.3333,25.8333 81.8333,27.3333 81,29.5C 80.5172,28.552 80.3505,27.552 80.5,26.5C 81.1667,26.5 81.5,26.1667 81.5,25.5C 82.1667,25.5 82.5,25.1667 82.5,24.5 Z"/></g>
<g><path style="opacity:0.016" fill="#424242" d="M 237.5,24.5 C 240.5,24.5 243.5,24.5 246.5,24.5C 246.666,32.5069 246.5,40.5069 246,48.5C 245.5,40.8406 245.334,33.1739 245.5,25.5C 243.167,25.5 240.833,25.5 238.5,25.5C 238.5,31.8333 238.5,38.1667 238.5,44.5C 243.5,45.0031 243.167,45.3364 237.5,45.5C 237.5,38.5 237.5,31.5 237.5,24.5 Z"/></g>
<g><path style="opacity:0.016" fill="#383838" d="M 253.5,24.5 C 259.167,24.6636 259.5,24.9969 254.5,25.5C 254.5,31.8333 254.5,38.1667 254.5,44.5C 259.5,45.0031 259.167,45.3364 253.5,45.5C 253.5,38.5 253.5,31.5 253.5,24.5 Z"/></g>
<g><path style="opacity:0.004" fill="#feff00" d="M 8.5,26.5 C 9.83333,27.1667 9.83333,27.1667 8.5,26.5 Z"/></g>
<g><path style="opacity:0.004" fill="#161616" d="M 268.5,25.5 C 270.657,26.0533 270.49,27.0533 268,28.5C 267.536,27.9056 267.369,27.2389 267.5,26.5C 268.167,26.5 268.5,26.1667 268.5,25.5 Z"/></g>
<g><path style="opacity:0.02" fill="#ff5c00" d="M 57.5,29.5 C 53.7787,29.2074 53.9454,28.5407 58,27.5C 58.5,27.6667 59,27.8333 59.5,28C 58.5842,28.2784 57.9175,28.7784 57.5,29.5 Z"/></g>
<g><path style="opacity:0.795" fill="#383838" d="M 247.5,23.5 C 248.29,24.6085 248.79,25.9419 249,27.5C 249.333,26.1667 249.667,24.8333 250,23.5C 250.77,24.5981 251.603,24.5981 252.5,23.5C 252.5,31.1667 252.5,38.8333 252.5,46.5C 254.5,46.5 256.5,46.5 258.5,46.5C 258.5,48.1667 258.5,49.8333 258.5,51.5C 254.484,52.1001 250.984,51.1001 248,48.5C 247.5,40.1733 247.334,31.84 247.5,23.5 Z"/></g>
<g><path style="opacity:0.012" fill="#fe8000" d="M 5.5,29.5 C 6.52502,29.8966 6.69169,30.5632 6,31.5C 5.53566,30.9056 5.36899,30.2389 5.5,29.5 Z"/></g>
<g><path style="opacity:0.012" fill="#3f3f3f" d="M 227.5,28.5 C 228.833,30.5 228.833,32.5 227.5,34.5C 227.5,32.5 227.5,30.5 227.5,28.5 Z"/></g>
<g><path style="opacity:0.012" fill="#3d3d3d" d="M 133.5,28.5 C 134.833,31.1667 134.833,33.8333 133.5,36.5C 133.5,33.8333 133.5,31.1667 133.5,28.5 Z"/></g>
<g><path style="opacity:0.935" fill="#fe6a02" d="M 64.5,37.5 C 63.5084,37.3284 62.8417,37.6618 62.5,38.5C 61.209,38.2627 60.209,38.596 59.5,39.5C 58.209,39.2627 57.209,39.596 56.5,40.5C 55.209,40.2627 54.209,40.596 53.5,41.5C 52.209,41.2627 51.209,41.596 50.5,42.5C 49.209,42.2627 48.209,42.596 47.5,43.5C 46.209,43.2627 45.209,43.596 44.5,44.5C 42.5759,44.7107 42.2426,45.3774 43.5,46.5C 43.5,47.1667 43.8333,47.5 44.5,47.5C 48.5868,52.9151 52.2535,58.5818 55.5,64.5C 54.5084,64.3284 53.8417,64.6618 53.5,65.5C 51.4832,66.5294 49.4832,67.5294 47.5,68.5C 47.573,66.9731 46.9063,65.9731 45.5,65.5C 45.0679,64.2905 44.4013,63.2905 43.5,62.5C 42.4884,61.1283 41.4884,59.795 40.5,58.5C 40.5,57.8333 40.1667,57.5 39.5,57.5C 39.573,55.9731 38.9063,54.9731 37.5,54.5C 37.0679,53.2905 36.4013,52.2905 35.5,51.5C 34.8333,50.1667 34.1667,50.1667 33.5,51.5C 32.6618,51.8417 32.3284,52.5084 32.5,53.5C 31.8333,53.5 31.5,53.8333 31.5,54.5C 30.8333,54.5 30.5,54.8333 30.5,55.5C 29.6618,55.8417 29.3284,56.5084 29.5,57.5C 28.8333,57.5 28.5,57.8333 28.5,58.5C 27.6618,58.8417 27.3284,59.5084 27.5,60.5C 26.8333,60.5 26.5,60.8333 26.5,61.5C 25.8333,61.5 25.5,61.8333 25.5,62.5C 24.6618,62.8417 24.3284,63.5084 24.5,64.5C 23.8333,64.5 23.5,64.8333 23.5,65.5C 22.8333,65.5 22.5,65.8333 22.5,66.5C 21.6618,66.8417 21.3284,67.5084 21.5,68.5C 18.5534,67.3559 15.8867,65.6893 13.5,63.5C 17.4736,57.6928 21.6403,52.0261 26,46.5C 26.6917,45.5632 26.525,44.8966 25.5,44.5C 26.2625,43.7321 27.2625,43.2321 28.5,43C 27.376,42.7508 26.376,42.2508 25.5,41.5C 29.2323,39.94 33.0657,38.6067 37,37.5C 39.9332,38.5908 42.7665,38.2575 45.5,36.5C 46.2975,36.0431 46.6309,35.3764 46.5,34.5C 50.0825,32.6396 53.7492,30.9729 57.5,29.5C 58.8221,29.67 59.9887,29.3366 61,28.5C 62.2714,31.4844 63.438,34.4844 64.5,37.5 Z M 37.5,54.5 C 38.9063,54.9731 39.573,55.9731 39.5,57.5C 38.0937,57.0269 37.427,56.0269 37.5,54.5 Z M 45.5,65.5 C 46.9063,65.9731 47.573,66.9731 47.5,68.5C 46.0937,68.0269 45.427,67.0269 45.5,65.5 Z"/></g>
<g><path style="opacity:0.004" fill="#151515" d="M 71.5,27.5 C 72.1386,28.0968 72.472,28.9302 72.5,30C 72,32.5 71.5,35 71,37.5C 70.6124,34.1508 70.7791,30.8175 71.5,27.5 Z"/></g>
<g><path style="opacity:0.016" fill="#404040" d="M 290.5,40.5 C 290.335,36.8183 290.501,33.1516 291,29.5C 291.81,33.3575 291.643,37.0242 290.5,40.5 Z"/></g>
<g><path style="opacity:0.774" fill="#414141" d="M 125.5,19.5 C 126.167,19.5 126.5,19.8333 126.5,20.5C 128.885,22.8838 130.885,25.5505 132.5,28.5C 132.5,31.1667 132.5,33.8333 132.5,36.5C 124.833,36.5 117.167,36.5 109.5,36.5C 108.778,36.9175 108.278,37.5842 108,38.5C 107.333,35.8333 106.667,35.8333 106,38.5C 105.722,37.5842 105.222,36.9175 104.5,36.5C 104.5,34.1667 104.5,31.8333 104.5,29.5C 105.551,27.0713 106.884,24.738 108.5,22.5C 109.167,22.5 109.5,22.1667 109.5,21.5C 114.501,18.4254 119.835,17.7587 125.5,19.5 Z M 125.5,26.5 C 127.074,28.1016 127.741,30.1016 127.5,32.5C 121.463,32.8293 115.463,32.4959 109.5,31.5C 109.624,30.8933 109.957,30.56 110.5,30.5C 115.68,31.8147 121.014,31.8147 126.5,30.5C 126.376,29.8933 126.043,29.56 125.5,29.5C 125.5,28.5 125.5,27.5 125.5,26.5 Z M 117.5,24.5 C 118.5,24.5 119.5,24.5 120.5,24.5C 122.5,25.8333 124.167,27.5 125.5,29.5C 121.366,30.4849 117.032,30.8182 112.5,30.5C 112.5,29.5 112.5,28.5 112.5,27.5C 113.167,27.5 113.5,27.1667 113.5,26.5C 114.167,26.5 114.5,26.1667 114.5,25.5C 115.791,25.7373 116.791,25.404 117.5,24.5 Z M 114.5,24.5 C 114.5,24.8333 114.5,25.1667 114.5,25.5C 113.833,25.5 113.5,25.8333 113.5,26.5C 113.167,26.5 112.833,26.5 112.5,26.5C 112.5,25.1667 113.167,24.5 114.5,24.5 Z M 120.5,23.5 C 119.209,23.2627 118.209,23.596 117.5,24.5C 116.5,24.5 115.5,24.5 114.5,24.5C 116.32,22.5389 118.32,22.2056 120.5,23.5 Z"/></g>
<g><path style="opacity:0.018" fill="#3e3e3e" d="M 111.5,27.5 C 111.833,27.5 112.167,27.5 112.5,27.5C 112.5,28.5 112.5,29.5 112.5,30.5C 117.032,30.8182 121.366,30.4849 125.5,29.5C 126.043,29.56 126.376,29.8933 126.5,30.5C 121.014,31.8147 115.68,31.8147 110.5,30.5C 111.404,29.791 111.737,28.791 111.5,27.5 Z"/></g>
<g><path style="opacity:0.016" fill="#343434" d="M 120.5,24.5 C 121.5,24.5 122.5,24.5 123.5,24.5C 123.5,25.1667 123.833,25.5 124.5,25.5C 124.5,26.1667 124.833,26.5 125.5,26.5C 125.5,27.5 125.5,28.5 125.5,29.5C 124.167,27.5 122.5,25.8333 120.5,24.5 Z"/></g>
<g><path style="opacity:0.778" fill="#414141" d="M 224.5,24.5 C 224.66,26.153 225.326,27.4863 226.5,28.5C 226.205,30.7354 226.539,32.7354 227.5,34.5C 227.389,35.1174 227.056,35.6174 226.5,36C 218.841,36.4997 211.174,36.6664 203.5,36.5C 202.778,36.9175 202.278,37.5842 202,38.5C 201.333,35.8333 200.667,35.8333 200,38.5C 199.722,37.5842 199.222,36.9175 198.5,36.5C 198.889,33.4467 198.223,30.78 196.5,28.5C 197.179,24.8998 198.013,25.2332 199,29.5C 202.096,20.6994 208.263,17.1994 217.5,19C 220.305,20.3823 222.639,22.2156 224.5,24.5 Z M 220.5,28.5 C 221.434,29.5676 221.768,30.901 221.5,32.5C 215.463,32.8293 209.463,32.4959 203.5,31.5C 203.624,30.8933 203.957,30.56 204.5,30.5C 209.64,31.4881 214.974,31.8214 220.5,31.5C 220.5,30.5 220.5,29.5 220.5,28.5 Z M 211.5,24.5 C 214.962,24.5257 217.629,25.859 219.5,28.5C 215.627,30.4302 211.294,31.0969 206.5,30.5C 206.5,29.5 206.5,28.5 206.5,27.5C 207.167,27.5 207.5,27.1667 207.5,26.5C 208.167,26.5 208.5,26.1667 208.5,25.5C 209.791,25.7373 210.791,25.404 211.5,24.5 Z M 208.5,24.5 C 208.5,24.8333 208.5,25.1667 208.5,25.5C 207.833,25.5 207.5,25.8333 207.5,26.5C 207.167,26.5 206.833,26.5 206.5,26.5C 206.5,25.1667 207.167,24.5 208.5,24.5 Z M 214.5,23.5 C 213.209,23.2627 212.209,23.596 211.5,24.5C 210.5,24.5 209.5,24.5 208.5,24.5C 210.32,22.5389 212.32,22.2056 214.5,23.5 Z"/></g>
<g><path style="opacity:0.016" fill="#404040" d="M 205.5,27.5 C 205.833,27.5 206.167,27.5 206.5,27.5C 206.5,28.5 206.5,29.5 206.5,30.5C 211.294,31.0969 215.627,30.4302 219.5,28.5C 219.833,28.5 220.167,28.5 220.5,28.5C 220.5,29.5 220.5,30.5 220.5,31.5C 214.974,31.8214 209.64,31.4881 204.5,30.5C 205.404,29.791 205.737,28.791 205.5,27.5 Z"/></g>
<g><path style="opacity:0.016" fill="#ff99fd" d="M 3.5,34.5 C 4.57346,35.2506 4.74012,36.2506 4,37.5C 3.51722,36.552 3.35055,35.552 3.5,34.5 Z"/></g>
<g><path style="opacity:0.008" fill="#fe8000" d="M 65.5,37.5 C 65.369,36.7611 65.5357,36.0944 66,35.5C 66.6917,36.4368 66.525,37.1034 65.5,37.5 Z"/></g>
<g><path style="opacity:0.004" fill="#feff00" d="M 64.5,37.5 C 64.8333,37.5 65.1667,37.5 65.5,37.5C 65.3147,38.1701 64.9813,38.1701 64.5,37.5 Z"/></g>
<g><path style="opacity:0.008" fill="#636363" d="M 132.5,36.5 C 132.833,36.5 133.167,36.5 133.5,36.5C 133.737,37.791 133.404,38.791 132.5,39.5C 129.183,38.8348 125.683,38.5014 122,38.5C 118.098,38.5123 114.598,39.179 111.5,40.5C 111.167,40.5 110.833,40.5 110.5,40.5C 110.5,39.5 110.5,38.5 110.5,37.5C 118.019,37.825 125.352,37.4916 132.5,36.5 Z"/></g>
<g><path style="opacity:0.008" fill="#686868" d="M 204.5,40.5 C 204.5,39.5 204.5,38.5 204.5,37.5C 211.841,37.3337 219.174,37.5003 226.5,38C 218.898,37.9194 211.564,38.7527 204.5,40.5 Z"/></g>
<g><path style="opacity:0.012" fill="#ff60ff" d="M 62.5,38.5 C 63.1667,38.5 63.8333,38.5 64.5,38.5C 62.3826,40.6545 59.716,41.6545 56.5,41.5C 56.5,41.1667 56.5,40.8333 56.5,40.5C 57.791,40.7373 58.791,40.404 59.5,39.5C 60.791,39.7373 61.791,39.404 62.5,38.5 Z"/></g>
<g><path style="opacity:0.016" fill="#333333" d="M 164.5,43.5 C 164.5,42.5 164.5,41.5 164.5,40.5C 164.754,33.5937 165.254,26.5937 166,19.5C 166.667,33.8333 166.667,48.1667 166,62.5C 165.828,55.9867 165.328,49.6534 164.5,43.5 Z"/></g>
<g><path style="opacity:0.01" fill="#fe8000" d="M 53.5,42.5 C 53.5,42.1667 53.5,41.8333 53.5,41.5C 54.5,41.5 55.5,41.5 56.5,41.5C 55.791,42.404 54.791,42.7373 53.5,42.5 Z"/></g>
<g><path style="opacity:0.012" fill="#1f1f1f" d="M 133.5,40.5 C 134.525,40.8966 134.692,41.5632 134,42.5C 133.536,41.9056 133.369,41.2389 133.5,40.5 Z"/></g>
<g><path style="opacity:0.016" fill="#353535" d="M 227.5,43.5 C 227.351,42.448 227.517,41.448 228,40.5C 228.74,41.7494 228.573,42.7494 227.5,43.5 Z"/></g>
<g><path style="opacity:0.016" fill="#222222" d="M 289.5,40.5 C 289.833,40.5 290.167,40.5 290.5,40.5C 290.737,41.791 290.404,42.791 289.5,43.5C 289.5,42.5 289.5,41.5 289.5,40.5 Z"/></g>
<g><path style="opacity:0.012" fill="#ff6cff" d="M 50.5,43.5 C 50.5,43.1667 50.5,42.8333 50.5,42.5C 51.5,42.5 52.5,42.5 53.5,42.5C 52.791,43.404 51.791,43.7373 50.5,43.5 Z"/></g>
<g><path style="opacity:0.016" fill="#383838" d="M 104.5,29.5 C 103.167,33.5 103.167,37.5 104.5,41.5C 104.044,45.6643 103.378,49.6643 102.5,53.5C 102.333,42.1618 102.5,30.8284 103,19.5C 103.455,22.8536 103.955,26.1869 104.5,29.5 Z"/></g>
<g><path style="opacity:0.012" fill="#343434" d="M 198.5,40.5 C 198.5,41.5 198.5,42.5 198.5,43.5C 197.833,43.8333 197.167,44.1667 196.5,44.5C 196.5,43.8333 196.5,43.1667 196.5,42.5C 197.167,41.8333 197.833,41.1667 198.5,40.5 Z"/></g>
<g><path style="opacity:0.012" fill="#ffa1fe" d="M 47.5,44.5 C 47.5,44.1667 47.5,43.8333 47.5,43.5C 48.5,43.5 49.5,43.5 50.5,43.5C 49.791,44.404 48.791,44.7373 47.5,44.5 Z"/></g>
<g><path style="opacity:0.012" fill="#393939" d="M 260.5,42.5 C 260.631,43.2389 260.464,43.9056 260,44.5C 259.308,43.5632 259.475,42.8966 260.5,42.5 Z"/></g>
<g><path style="opacity:0.012" fill="#393939" d="M 74.5,43.5 C 74.631,44.2389 74.4643,44.9056 74,45.5C 73.3083,44.5632 73.475,43.8966 74.5,43.5 Z"/></g>
<g><path style="opacity:0.004" fill="#080808" d="M 131.5,46.5 C 131.5,46.1667 131.5,45.8333 131.5,45.5C 132.222,45.0825 132.722,44.4158 133,43.5C 133.667,49.5 133.667,55.5 133,61.5C 132.826,56.3165 132.326,51.3165 131.5,46.5 Z"/></g>
<g><path style="opacity:0.012" fill="#1f1f1f" d="M 163.5,43.5 C 163.833,43.5 164.167,43.5 164.5,43.5C 164.167,46.1667 163.833,46.1667 163.5,43.5 Z"/></g>
<g><path style="opacity:0.723" fill="#2a2a2a" d="M 167.5,28.5 C 168.222,28.9175 168.722,29.5842 169,30.5C 170.14,27.9824 171.306,27.9824 172.5,30.5C 172.083,34.8171 172.75,38.8171 174.5,42.5C 174.967,45.2974 176.633,46.6308 179.5,46.5C 188.212,47.7925 192.212,43.7925 191.5,34.5C 192.801,35.64 193.968,36.9733 195,38.5C 195.278,37.5842 195.778,36.9175 196.5,36.5C 196.5,38.5 196.5,40.5 196.5,42.5C 195.662,42.8417 195.328,43.5084 195.5,44.5C 194.662,44.8417 194.328,45.5084 194.5,46.5C 193.833,46.5 193.5,46.8333 193.5,47.5C 192.833,47.5 192.5,47.8333 192.5,48.5C 187.165,52.3029 181.499,52.9696 175.5,50.5C 175.5,49.8333 175.167,49.5 174.5,49.5C 174.217,48.7109 173.717,48.0442 173,47.5C 172.501,52.4889 172.334,57.4889 172.5,62.5C 170.833,62.5 169.167,62.5 167.5,62.5C 167.5,51.1667 167.5,39.8333 167.5,28.5 Z M 174.5,42.5 C 176.191,43.8637 177.858,45.197 179.5,46.5C 176.633,46.6308 174.967,45.2974 174.5,42.5 Z"/></g>
<g><path style="opacity:0.016" fill="#2c2c2c" d="M 198.5,43.5 C 198.833,43.5 199.167,43.5 199.5,43.5C 199.167,46.1667 198.833,46.1667 198.5,43.5 Z"/></g>
<g><path style="opacity:0.834" fill="#2a2a2a" d="M 198.5,36.5 C 199.222,36.9175 199.722,37.5842 200,38.5C 200.667,35.8333 201.333,35.8333 202,38.5C 202.278,37.5842 202.778,36.9175 203.5,36.5C 203.232,38.099 203.566,39.4324 204.5,40.5C 206.26,46.5499 210.26,48.7165 216.5,47C 217.416,46.7216 218.082,46.2216 218.5,45.5C 219.167,45.5 219.5,45.1667 219.5,44.5C 220.931,43.2196 221.598,41.5529 221.5,39.5C 223.167,39.5 224.833,39.5 226.5,39.5C 226.5,40.8333 226.5,42.1667 226.5,43.5C 224.808,45.2048 223.475,47.2048 222.5,49.5C 219.263,50.7494 215.929,51.7494 212.5,52.5C 206.493,51.682 202.159,48.682 199.5,43.5C 199.737,42.209 199.404,41.209 198.5,40.5C 198.5,39.1667 198.5,37.8333 198.5,36.5 Z"/></g>
<g><path style="opacity:0.02" fill="#232323" d="M 219.5,44.5 C 218.833,44.5 218.5,44.8333 218.5,45.5C 216.343,44.9467 216.51,43.9467 219,42.5C 219.464,43.0944 219.631,43.7611 219.5,44.5 Z"/></g>
<g><path style="opacity:0.008" fill="#191919" d="M 226.5,43.5 C 226.833,43.5 227.167,43.5 227.5,43.5C 227.167,46.1667 226.833,46.1667 226.5,43.5 Z"/></g>
<g><path style="opacity:0.804" fill="#2c2c2c" d="M 231.5,32.5 C 232.268,33.2625 232.768,34.2625 233,35.5C 233.483,34.552 233.649,33.552 233.5,32.5C 234.5,32.5 235.5,32.5 236.5,32.5C 236.5,37.1667 236.5,41.8333 236.5,46.5C 238.5,46.5 240.5,46.5 242.5,46.5C 242.5,48.1667 242.5,49.8333 242.5,51.5C 238.484,52.1001 234.984,51.1001 232,48.5C 231.501,43.1771 231.334,37.8437 231.5,32.5 Z"/></g>
<g><path style="opacity:0.008" fill="#191919" d="M 288.5,43.5 C 288.833,43.5 289.167,43.5 289.5,43.5C 289.672,44.4916 289.338,45.1583 288.5,45.5C 288.5,44.8333 288.5,44.1667 288.5,43.5 Z"/></g>
<g><path style="opacity:0.012" fill="#ff91fe" d="M 44.5,44.5 C 45.5,44.5 46.5,44.5 47.5,44.5C 46.5,45.5 45.5,46.5 44.5,47.5C 43.8333,47.5 43.5,47.1667 43.5,46.5C 43.8333,45.8333 44.1667,45.1667 44.5,44.5 Z"/></g>
<g><path style="opacity:0.801" fill="#2d2d2d" d="M 95.5,27.5 C 96.2216,27.9175 96.7216,28.5842 97,29.5C 98.7165,28.4477 99.7165,29.1144 100,31.5C 100.232,30.2625 100.732,29.2625 101.5,28.5C 101.5,35.5 101.5,42.5 101.5,49.5C 100.603,50.5981 99.7697,50.5981 99,49.5C 98.6667,50.1667 98.3333,50.8333 98,51.5C 97.7679,50.2625 97.2679,49.2625 96.5,48.5C 96.2144,46.0673 95.5477,46.0673 94.5,48.5C 93.8333,48.5 93.5,48.8333 93.5,49.5C 92.5084,49.3284 91.8417,49.6618 91.5,50.5C 87.4517,50.6054 83.4517,50.2721 79.5,49.5C 77.8036,47.4752 76.137,45.4752 74.5,43.5C 73.2155,39.8051 72.8821,36.1384 73.5,32.5C 75.0982,32.6097 76.7648,32.943 78.5,33.5C 77.6364,42.2923 81.3031,46.2923 89.5,45.5C 91.3797,45.7709 92.713,45.1042 93.5,43.5C 96.6138,38.5913 97.2805,33.258 95.5,27.5 Z M 91.5,43.5 C 92.1667,43.5 92.8333,43.5 93.5,43.5C 92.713,45.1042 91.3797,45.7709 89.5,45.5C 90.1667,44.8333 90.8333,44.1667 91.5,43.5 Z"/></g>
<g><path style="opacity:0.008" fill="#141414" d="M 93.5,43.5 C 92.8333,43.5 92.1667,43.5 91.5,43.5C 92.5477,41.0673 93.2144,41.0673 93.5,43.5 Z"/></g>
<g><path style="opacity:0.823" fill="#2a2a2a" d="M 104.5,36.5 C 105.222,36.9175 105.722,37.5842 106,38.5C 106.667,35.8333 107.333,35.8333 108,38.5C 108.278,37.5842 108.778,36.9175 109.5,36.5C 109.232,38.099 109.566,39.4324 110.5,40.5C 110.229,42.3797 110.896,43.713 112.5,44.5C 114.031,46.6801 116.198,47.6801 119,47.5C 121.221,47.6068 123.054,46.9402 124.5,45.5C 125.167,45.5 125.5,45.1667 125.5,44.5C 126.931,43.2196 127.598,41.5529 127.5,39.5C 129.167,39.5 130.833,39.5 132.5,39.5C 132.167,41.5 131.833,43.5 131.5,45.5C 130.833,45.5 130.5,45.8333 130.5,46.5C 128.5,48.1667 126.5,49.8333 124.5,51.5C 115.113,53.4734 108.447,50.1401 104.5,41.5C 104.5,39.8333 104.5,38.1667 104.5,36.5 Z M 110.5,40.5 C 110.833,40.5 111.167,40.5 111.5,40.5C 111.833,41.8333 112.167,43.1667 112.5,44.5C 110.896,43.713 110.229,42.3797 110.5,40.5 Z"/></g>
<g><path style="opacity:0.02" fill="#2f2f2f" d="M 125.5,44.5 C 124.833,44.5 124.5,44.8333 124.5,45.5C 122.343,44.9467 122.51,43.9467 125,42.5C 125.464,43.0944 125.631,43.7611 125.5,44.5 Z"/></g>
<g><path style="opacity:0.843" fill="#2a2a2a" d="M 162.5,26.5 C 164.211,30.8807 164.877,35.5474 164.5,40.5C 163.596,41.209 163.263,42.209 163.5,43.5C 158.735,51.3558 152.068,53.6892 143.5,50.5C 142.828,49.7326 141.995,49.0659 141,48.5C 140.501,53.1548 140.334,57.8215 140.5,62.5C 138.833,62.5 137.167,62.5 135.5,62.5C 135.5,52.5 135.5,42.5 135.5,32.5C 136.222,32.9175 136.722,33.5842 137,34.5C 137.72,32.9443 138.887,31.9443 140.5,31.5C 140.335,34.8499 140.502,38.1832 141,41.5C 144.617,47.6505 149.451,48.9839 155.5,45.5C 156.167,45.5 156.5,45.1667 156.5,44.5C 158.469,41.9263 159.469,38.9263 159.5,35.5C 159.163,32.8236 158.83,30.157 158.5,27.5C 159.237,29.3818 160.404,30.0485 162,29.5C 162.483,28.552 162.649,27.552 162.5,26.5 Z"/></g>
<g><path style="opacity:0.007" fill="#191919" d="M 156.5,44.5 C 155.833,44.5 155.5,44.8333 155.5,45.5C 153.343,44.9467 153.51,43.9467 156,42.5C 156.464,43.0944 156.631,43.7611 156.5,44.5 Z"/></g>
<g><path style="opacity:0.004" fill="#191919" d="M 195.5,44.5 C 195.833,44.5 196.167,44.5 196.5,44.5C 196.672,45.4916 196.338,46.1583 195.5,46.5C 195.5,45.8333 195.5,45.1667 195.5,44.5 Z"/></g>
<g><path style="opacity:0.829" fill="#2a2a2a" d="M 259.5,32.5 C 260.5,32.5 261.5,32.5 262.5,32.5C 262.351,33.552 262.517,34.552 263,35.5C 263.232,34.2625 263.732,33.2625 264.5,32.5C 263.647,40.4965 266.98,45.4965 274.5,47.5C 276.557,47.5643 278.223,46.8976 279.5,45.5C 280.833,45.5 281.5,44.8333 281.5,43.5C 282.857,42.4097 283.857,41.0764 284.5,39.5C 284.351,40.552 284.517,41.552 285,42.5C 286.145,42.3809 287.312,42.0476 288.5,41.5C 288.5,42.1667 288.5,42.8333 288.5,43.5C 287.662,43.8417 287.328,44.5084 287.5,45.5C 286.167,46.1667 285.167,47.1667 284.5,48.5C 283.833,48.5 283.5,48.8333 283.5,49.5C 282.833,49.5 282.5,49.8333 282.5,50.5C 272.91,53.9385 265.576,51.2719 260.5,42.5C 259.793,39.2139 259.46,35.8806 259.5,32.5 Z M 281.5,43.5 C 281.5,44.8333 280.833,45.5 279.5,45.5C 279.833,44.5 280.5,43.8333 281.5,43.5 Z"/></g>
<g><path style="opacity:0.016" fill="#3f403f" d="M 287.5,45.5 C 287.833,45.5 288.167,45.5 288.5,45.5C 288.315,46.1701 287.981,46.1701 287.5,45.5 Z"/></g>
<g><path style="opacity:0.006" fill="#000000" d="M 130.5,46.5 C 130.833,46.5 131.167,46.5 131.5,46.5C 131.167,49.1667 130.833,49.1667 130.5,46.5 Z"/></g>
<g><path style="opacity:0.016" fill="#3f403f" d="M 194.5,46.5 C 194.833,46.5 195.167,46.5 195.5,46.5C 195.315,47.1701 194.981,47.1701 194.5,46.5 Z"/></g>
<g><path style="opacity:0.016" fill="#3f403f" d="M 193.5,47.5 C 193.833,47.5 194.167,47.5 194.5,47.5C 194.315,48.1701 193.981,48.1701 193.5,47.5 Z"/></g>
<g><path style="opacity:0.016" fill="#2c2c2c" d="M 243.5,46.5 C 244.613,47.9464 244.78,49.6131 244,51.5C 243.506,49.8659 243.34,48.1992 243.5,46.5 Z"/></g>
<g><path style="opacity:0.016" fill="#3f403f" d="M 192.5,48.5 C 192.833,48.5 193.167,48.5 193.5,48.5C 193.315,49.1701 192.981,49.1701 192.5,48.5 Z"/></g>
<g><path style="opacity:0.016" fill="#373737" d="M 259.5,47.5 C 260.598,48.6009 260.765,49.9343 260,51.5C 259.51,50.2068 259.343,48.8734 259.5,47.5 Z"/></g>
<g><path style="opacity:0.004" fill="#151515" d="M 284.5,48.5 C 286.793,49.3013 286.46,49.968 283.5,50.5C 283.5,50.1667 283.5,49.8333 283.5,49.5C 284.167,49.5 284.5,49.1667 284.5,48.5 Z"/></g>
<g><path style="opacity:0.016" fill="#3f403f" d="M 79.5,49.5 C 79.5,49.8333 79.5,50.1667 79.5,50.5C 78.8299,50.0187 78.8299,49.6853 79.5,49.5 Z"/></g>
<g><path style="opacity:0.012" fill="#000000" d="M 222.5,49.5 C 223.833,50.1667 223.833,50.1667 222.5,49.5 Z"/></g>
<g><path style="opacity:0.008" fill="#000000" d="M 78.5,50.5 C 77.3991,51.5983 76.0657,51.765 74.5,51C 75.7932,50.51 77.1266,50.3433 78.5,50.5 Z"/></g>
<g><path style="opacity:0.016" fill="#2c2c2c" d="M 79.5,50.5 C 80.2389,50.369 80.9056,50.5357 81.5,51C 80.5632,51.6917 79.8966,51.525 79.5,50.5 Z"/></g>
<g><path style="opacity:0.012" fill="#000000" d="M 91.5,51.5 C 91.5,51.1667 91.5,50.8333 91.5,50.5C 92.1667,50.5 92.8333,50.5 93.5,50.5C 93.1583,51.3382 92.4916,51.6716 91.5,51.5 Z"/></g>
<g><path style="opacity:0.008" fill="#1a1a1a" d="M 94.5,48.5 C 95.4345,49.5676 95.7678,50.901 95.5,52.5C 94.8333,51.8333 94.1667,51.1667 93.5,50.5C 93.5,50.1667 93.5,49.8333 93.5,49.5C 94.1667,49.5 94.5,49.1667 94.5,48.5 Z"/></g>
<g><path style="opacity:0.016" fill="#3f403f" d="M 282.5,50.5 C 282.833,50.5 283.167,50.5 283.5,50.5C 283.315,51.1701 282.981,51.1701 282.5,50.5 Z"/></g>
<g><path style="opacity:0.008" fill="#ff7000" d="M 33.5,51.5 C 34.1667,51.5 34.8333,51.5 35.5,51.5C 35.5,52.8333 34.8333,53.5 33.5,53.5C 33.5,52.8333 33.5,52.1667 33.5,51.5 Z"/></g>
<g><path style="opacity:0.01" fill="#171717" d="M 91.5,51.5 C 88.6965,52.6378 85.6965,52.8045 82.5,52C 85.4816,51.502 88.4816,51.3354 91.5,51.5 Z"/></g>
<g><path style="opacity:0.008" fill="#040404" d="M 143.5,50.5 C 142.74,54.0814 142.24,57.7481 142,61.5C 141.833,59.6667 141.667,57.8333 141.5,56C 141.547,53.7047 142.213,51.8714 143.5,50.5 Z"/></g>
<g><path style="opacity:0.016" fill="#2b2b2b" d="M 174.5,49.5 C 175.167,49.5 175.5,49.8333 175.5,50.5C 174.733,54.4155 174.233,58.4155 174,62.5C 173.186,57.9796 173.353,53.6463 174.5,49.5 Z"/></g>
<g><path style="opacity:0.005" fill="#040404" d="M 124.5,51.5 C 126.379,51.3932 126.712,51.8932 125.5,53C 122.558,54.1244 119.558,54.4577 116.5,54C 119.379,53.454 122.046,52.6206 124.5,51.5 Z"/></g>
<g><path style="opacity:0.005" fill="#090909" d="M 214.5,52.5 C 216.199,52.3398 217.866,52.5065 219.5,53C 216.558,54.1244 213.558,54.4577 210.5,54C 212.058,53.79 213.391,53.29 214.5,52.5 Z"/></g>
<g><path style="opacity:0.016" fill="#fe8000" d="M 32.5,53.5 C 32.8333,53.5 33.1667,53.5 33.5,53.5C 33.3147,54.1701 32.9813,54.1701 32.5,53.5 Z"/></g>
<g><path style="opacity:0.009" fill="#000000" d="M 73.5,57.5 C 72.4017,56.3991 72.235,55.0657 73,53.5C 73.49,54.7932 73.6567,56.1266 73.5,57.5 Z"/></g>
<g><path style="opacity:0.791" fill="#1d1d1d" d="M 96.5,48.5 C 97.2679,49.2625 97.7679,50.2625 98,51.5C 98.3333,50.8333 98.6667,50.1667 99,49.5C 99.7697,50.5981 100.603,50.5981 101.5,49.5C 101.5,50.8333 101.5,52.1667 101.5,53.5C 100.596,54.209 100.263,55.209 100.5,56.5C 99.6618,56.8417 99.3284,57.5084 99.5,58.5C 98.8333,58.5 98.5,58.8333 98.5,59.5C 97.8333,59.5 97.5,59.8333 97.5,60.5C 96.8333,60.5 96.5,60.8333 96.5,61.5C 95.5084,61.3284 94.8417,61.6618 94.5,62.5C 93.209,62.2627 92.209,62.596 91.5,63.5C 84.4391,64.5438 78.9391,62.2105 75,56.5C 74.51,55.2068 74.3433,53.8734 74.5,52.5C 76.1667,52.5 77.8333,52.5 79.5,52.5C 79.2729,54.9328 80.2729,56.5994 82.5,57.5C 85.8333,58.8333 89.1667,58.8333 92.5,57.5C 93.1667,57.5 93.5,57.1667 93.5,56.5C 95.1042,55.713 95.7709,54.3797 95.5,52.5C 96.4345,51.4324 96.7678,50.099 96.5,48.5 Z"/></g>
<g><path style="opacity:0.016" fill="#222222" d="M 101.5,53.5 C 101.833,53.5 102.167,53.5 102.5,53.5C 102.737,54.791 102.404,55.791 101.5,56.5C 101.5,55.5 101.5,54.5 101.5,53.5 Z"/></g>
<g><path style="opacity:0.004" fill="#ff3900" d="M 31.5,54.5 C 31.8333,54.5 32.1667,54.5 32.5,54.5C 32.573,56.0269 31.9063,57.0269 30.5,57.5C 30.5,56.8333 30.5,56.1667 30.5,55.5C 31.1667,55.5 31.5,55.1667 31.5,54.5 Z"/></g>
<g><path style="opacity:0.011" fill="#030303" d="M 93.5,56.5 C 92.8333,56.5 92.5,56.8333 92.5,57.5C 89.1667,57.5 85.8333,57.5 82.5,57.5C 85.6954,56.764 89.0287,56.0973 92.5,55.5C 93.1067,55.6236 93.44,55.9569 93.5,56.5 Z"/></g>
<g><path style="opacity:0.01" fill="#000000" d="M 100.5,56.5 C 100.833,56.5 101.167,56.5 101.5,56.5C 101.672,57.4916 101.338,58.1583 100.5,58.5C 100.5,57.8333 100.5,57.1667 100.5,56.5 Z"/></g>
<g><path style="opacity:0.02" fill="#fe6600" d="M 29.5,57.5 C 29.8333,57.5 30.1667,57.5 30.5,57.5C 30.3147,58.1701 29.9813,58.1701 29.5,57.5 Z"/></g>
<g><path style="opacity:0.016" fill="#000000" d="M 73.5,57.5 C 74.8333,58.1667 74.8333,58.1667 73.5,57.5 Z"/></g>
<g><path style="opacity:0.012" fill="#000000" d="M 99.5,58.5 C 99.8333,58.5 100.167,58.5 100.5,58.5C 100.315,59.1701 99.9813,59.1701 99.5,58.5 Z"/></g>
<g><path style="opacity:0.004" fill="#ffcbfb" d="M 28.5,58.5 C 28.8333,58.5 29.1667,58.5 29.5,58.5C 29.6716,59.4916 29.3382,60.1583 28.5,60.5C 28.5,59.8333 28.5,59.1667 28.5,58.5 Z"/></g>
<g><path style="opacity:0.008" fill="#ff7200" d="M 40.5,58.5 C 40.631,59.2389 40.4643,59.9056 40,60.5C 39.3083,59.5632 39.475,58.8966 40.5,58.5 Z"/></g>
<g><path style="opacity:0.016" fill="#000000" d="M 98.5,59.5 C 98.8333,59.5 99.1667,59.5 99.5,59.5C 99.3147,60.1701 98.9813,60.1701 98.5,59.5 Z"/></g>
<g><path style="opacity:0.012" fill="#fe5500" d="M 27.5,60.5 C 27.8333,60.5 28.1667,60.5 28.5,60.5C 28.3147,61.1701 27.9813,61.1701 27.5,60.5 Z"/></g>
<g><path style="opacity:0.016" fill="#000000" d="M 97.5,60.5 C 97.8333,60.5 98.1667,60.5 98.5,60.5C 98.3147,61.1701 97.9813,61.1701 97.5,60.5 Z"/></g>
<g><path style="opacity:0.02" fill="#fe6600" d="M 26.5,61.5 C 26.8333,61.5 27.1667,61.5 27.5,61.5C 27.3147,62.1701 26.9813,62.1701 26.5,61.5 Z"/></g>
<g><path style="opacity:0.016" fill="#000000" d="M 96.5,61.5 C 96.8333,61.5 97.1667,61.5 97.5,61.5C 97.3147,62.1701 96.9813,62.1701 96.5,61.5 Z"/></g>
<g><path style="opacity:0.012" fill="#000000" d="M 94.5,63.5 C 94.5,63.1667 94.5,62.8333 94.5,62.5C 95.1667,62.5 95.8333,62.5 96.5,62.5C 96.1583,63.3382 95.4916,63.6716 94.5,63.5 Z"/></g>
<g><path style="opacity:0.004" fill="#ffc7f9" d="M 11.5,62.5 C 12.525,62.8966 12.6917,63.5632 12,64.5C 11.5357,63.9056 11.369,63.2389 11.5,62.5 Z"/></g>
<g><path style="opacity:0.008" fill="#ff7200" d="M 25.5,62.5 C 25.8333,62.5 26.1667,62.5 26.5,62.5C 26.6716,63.4916 26.3382,64.1583 25.5,64.5C 25.5,63.8333 25.5,63.1667 25.5,62.5 Z"/></g>
<g><path style="opacity:0.012" fill="#ff6400" d="M 43.5,62.5 C 43.631,63.2389 43.4643,63.9056 43,64.5C 42.3083,63.5632 42.475,62.8966 43.5,62.5 Z"/></g>
<g><path style="opacity:0.004" fill="#ff2e00" d="M 56.5,64.5 C 56.369,63.7611 56.5357,63.0944 57,62.5C 57.6917,63.4368 57.525,64.1034 56.5,64.5 Z"/></g>
<g><path style="opacity:0.012" fill="#000000" d="M 91.5,64.5 C 91.5,64.1667 91.5,63.8333 91.5,63.5C 92.5,63.5 93.5,63.5 94.5,63.5C 93.791,64.404 92.791,64.7373 91.5,64.5 Z"/></g>
<g><path style="opacity:0.012" fill="#000000" d="M 135.5,64.5 C 136.601,63.4017 137.934,63.235 139.5,64C 138.207,64.49 136.873,64.6567 135.5,64.5 Z"/></g>
<g><path style="opacity:0.01" fill="#000000" d="M 167.5,64.5 C 168.946,63.3871 170.613,63.2204 172.5,64C 170.866,64.4935 169.199,64.6602 167.5,64.5 Z"/></g>
<g><path style="opacity:0.016" fill="#fe8000" d="M 24.5,64.5 C 24.8333,64.5 25.1667,64.5 25.5,64.5C 25.3147,65.1701 24.9813,65.1701 24.5,64.5 Z"/></g>
<g><path style="opacity:0.008" fill="#fe8000" d="M 55.5,64.5 C 55.8333,64.5 56.1667,64.5 56.5,64.5C 56.3147,65.1701 55.9813,65.1701 55.5,64.5 Z"/></g>
<g><path style="opacity:0.008" fill="#000000" d="M 91.5,64.5 C 89.0336,65.6341 86.367,65.8007 83.5,65C 86.146,64.5026 88.8127,64.3359 91.5,64.5 Z"/></g>
<g><path style="opacity:0.008" fill="#ff7200" d="M 53.5,65.5 C 54.1667,65.5 54.8333,65.5 55.5,65.5C 54.8333,66.8333 54.1667,66.8333 53.5,65.5 Z"/></g>
<g><path style="opacity:0.004" fill="#ff41ff" d="M 23.5,65.5 C 23.8333,65.5 24.1667,65.5 24.5,65.5C 24.573,67.0269 23.9063,68.0269 22.5,68.5C 22.5,67.8333 22.5,67.1667 22.5,66.5C 23.1667,66.5 23.5,66.1667 23.5,65.5 Z"/></g>
<g><path style="opacity:0.008" fill="#fe8000" d="M 21.5,68.5 C 21.8333,68.5 22.1667,68.5 22.5,68.5C 22.3147,69.1701 21.9813,69.1701 21.5,68.5 Z"/></g>
<g><path style="opacity:0.008" fill="#ff7200" d="M 21.5,69.5 C 21.1034,70.525 20.4368,70.6917 19.5,70C 20.0944,69.5357 20.7611,69.369 21.5,69.5 Z"/></g>
<g><path style="opacity:0.012" fill="#ff6400" d="M 47.5,70.5 C 47.8966,69.475 48.5632,69.3083 49.5,70C 48.9056,70.4643 48.2389,70.631 47.5,70.5 Z"/></g>
</svg>
