<svg xmlns="http://www.w3.org/2000/svg" width="155.14" height="73.891" viewBox="0 0 155.14 73.891">
  <g id="Group_431" data-name="Group 431" transform="translate(-308.082 -186.142)">
    <path id="Path_267" data-name="Path 267" d="M329.044,229a12.644,12.644,0,0,1,.551-1.428,7.231,7.231,0,0,1,2.427-2.754A8.43,8.43,0,0,1,336.1,223.4l.946-.069h.017l.981.069a8.49,8.49,0,0,1,4.079,1.411,7.308,7.308,0,0,1,2.409,2.754,8.572,8.572,0,0,1,.551,1.428,11.638,11.638,0,0,1,.4,1.808,10.584,10.584,0,0,1,.086,1.48,10.736,10.736,0,0,1-.568,3.6,9.14,9.14,0,0,1-1.652,3.012,7.542,7.542,0,0,1-2.651,2.082,8.04,8.04,0,0,1-3.493.775h-.258a8.009,8.009,0,0,1-3.511-.775,7.577,7.577,0,0,1-2.65-2.082,9.463,9.463,0,0,1-1.653-3.012,11.839,11.839,0,0,1-.568-3.6,14.06,14.06,0,0,1,.087-1.48,13.457,13.457,0,0,1,.4-1.808m127.325,5.163v7.659l-5.868.275a15.412,15.412,0,0,1-3.1-.275,5.185,5.185,0,0,1-2.393-1.153,3.354,3.354,0,0,1-.757-1.239,3.884,3.884,0,0,1,0-2.874,3.22,3.22,0,0,1,.757-1.239,4.663,4.663,0,0,1,2.393-1.153,14.239,14.239,0,0,1,3.1-.276Zm0-4.3-.533-.069c-2.151-.207-4.113-.327-5.938-.327a26.9,26.9,0,0,0-6.23.637,8.963,8.963,0,0,0-4.509,2.237,6.318,6.318,0,0,0-1.412,2.564,10.469,10.469,0,0,0-.568,3.494,8.7,8.7,0,0,0,.9,4.043,5.723,5.723,0,0,0,.86,1.171,6.407,6.407,0,0,0,1.119,1,12.282,12.282,0,0,0,4.94,1.687,40.389,40.389,0,0,0,6.523.465,77.8,77.8,0,0,0,8.829-.533,3.875,3.875,0,0,0,1.687-.551,3.022,3.022,0,0,0,.586-.55,2.5,2.5,0,0,0,.361-.671,6.784,6.784,0,0,0,.241-2.237V231.578c0-1.1-.017-1.962-.069-2.564a12.684,12.684,0,0,0-.6-3.27,11.136,11.136,0,0,0-1.118-2.478,10.143,10.143,0,0,0-5.507-3.942,26.72,26.72,0,0,0-8.159-1.221h-1.548a38.477,38.477,0,0,0-6.712-10.378,49.9,49.9,0,0,0-9.879-8.382,68.729,68.729,0,0,0-12.7-6.506,90.465,90.465,0,0,0-15.2-4.388,117.646,117.646,0,0,0-17.382-2.169c-1.635-.069-3.563-.12-5.766-.137-2.2.018-4.131.069-5.766.137a109.908,109.908,0,0,0-25.11,4.063,74.232,74.232,0,0,0-19.947,8.845A47.039,47.039,0,0,0,314.105,212.3a35.926,35.926,0,0,0-4.01,7.951,32.7,32.7,0,0,0-1.876,8.674,30.114,30.114,0,0,0-.137,3.081,29.307,29.307,0,0,0,2.014,11.014,24.562,24.562,0,0,0,4.062,6.747,25.862,25.862,0,0,0,5.989,5.163,34.389,34.389,0,0,0,11.583,4.423,27.387,27.387,0,0,0,10.292.344c3.579-.584,6.282-1.824,8.072-3.7a8.88,8.88,0,0,0,1.566-2.341,8.262,8.262,0,0,0,.671-2.856,7.786,7.786,0,0,0-1.188-4.682,10.772,10.772,0,0,0-3.236-3.1l.155-.137a13.245,13.245,0,0,0,3.15-4.526,14.921,14.921,0,0,0,1.136-5.852l-.018-.981a14.6,14.6,0,0,0-.878-4.251,13.022,13.022,0,0,0-2.031-3.6h.861a6,6,0,0,0,1.825-.223,1.434,1.434,0,0,0,.533-.293,1.934,1.934,0,0,0,.447-.465,2.076,2.076,0,0,0,.309-.757,4.962,4.962,0,0,0,.138-1.049,4.672,4.672,0,0,0-.138-1.05,2.32,2.32,0,0,0-.309-.775,2.033,2.033,0,0,0-.447-.482,2.2,2.2,0,0,0-.533-.276,5.8,5.8,0,0,0-1.825-.206H337.065l-1.273.052a18,18,0,0,0-5.56,1.308,15.222,15.222,0,0,0-4.32,2.857,13.487,13.487,0,0,0-2.892,4.113,14.44,14.44,0,0,0-1.2,5.095l-.034.981a14.908,14.908,0,0,0,1.136,5.852,13.227,13.227,0,0,0,3.15,4.526,14.467,14.467,0,0,0,4.819,2.944,17.563,17.563,0,0,0,6.092,1.049h.172a18.125,18.125,0,0,0,5.043-.706,5.244,5.244,0,0,1,1.876,1.36,2.961,2.961,0,0,1,.739,1.858l-.034.482v.137a3.194,3.194,0,0,1-1.256,1.876,8.306,8.306,0,0,1-3.924,1.429,20.21,20.21,0,0,1-6.247-.241,27.244,27.244,0,0,1-3.632-.809q-1.085-.362-2.168-.775a20.6,20.6,0,0,1-9.586-7.435,20.982,20.982,0,0,1-3.39-12.047c0-.827.034-1.669.12-2.548a27.952,27.952,0,0,1,4.836-13.6,37.83,37.83,0,0,1,8.21-8.709,54.987,54.987,0,0,1,11.927-7.056,80.362,80.362,0,0,1,15.283-4.957,109.413,109.413,0,0,1,18.209-2.41c1.584-.069,3.408-.138,5.421-.138s3.839.069,5.421.138a107.182,107.182,0,0,1,21.41,3.166,73.265,73.265,0,0,1,17.107,6.695,46.918,46.918,0,0,1,12.151,9.432,31.167,31.167,0,0,1,6.23,10.258h.017a1.151,1.151,0,0,0,.207.413,1.9,1.9,0,0,0,.43.465,2.084,2.084,0,0,0,.551.293,5.875,5.875,0,0,0,1.808.223l4.01-.017a10.646,10.646,0,0,1,5.575,1.291,5.607,5.607,0,0,1,1.824,1.773,6.268,6.268,0,0,1,.964,2.581Z" transform="translate(0)" fill="#001965"/>
    <path id="Path_268" data-name="Path 268" d="M468.534,240.285a12.816,12.816,0,0,0-.637,3.27c-.034.6-.051,1.48-.051,2.581v11.221a6.978,6.978,0,0,0,.258,2.237,2.06,2.06,0,0,0,.344.672,3.188,3.188,0,0,0,.6.568,3.1,3.1,0,0,0,.946.4l1.291.137,1.274-.137a2.463,2.463,0,0,0,1.549-.964,2.506,2.506,0,0,0,.362-.672,6.8,6.8,0,0,0,.241-2.237l.017-12.925a7,7,0,0,1,.826-2.856,5.587,5.587,0,0,1,1.808-1.945,10.337,10.337,0,0,1,5.765-1.429l.379.017a5.988,5.988,0,0,0,1.824-.223,1.694,1.694,0,0,0,.551-.293,2.906,2.906,0,0,0,.447-.465,2.442,2.442,0,0,0,.31-.757,5.066,5.066,0,0,0,.12-1.049,4.813,4.813,0,0,0-.12-1.05,2.761,2.761,0,0,0-.31-.774,3.173,3.173,0,0,0-.447-.482,2.743,2.743,0,0,0-.551-.276,5.788,5.788,0,0,0-1.824-.206h-.223a26.6,26.6,0,0,0-8.141,1.222,10.2,10.2,0,0,0-5.507,3.941,10.4,10.4,0,0,0-1.1,2.478" transform="translate(-49.959 -14.541)" fill="#001965"/>
    <path id="Path_269" data-name="Path 269" d="M442.268,236.525a10.448,10.448,0,0,1,.808,2.409,12.289,12.289,0,0,1,.293,2.669l.017.653a12.193,12.193,0,0,1-.137,2.065,6.2,6.2,0,0,1-.964,2.857,6.453,6.453,0,0,1-2.082,1.945,13.2,13.2,0,0,1-6.626,1.412l-4.113-.293V233.531l.344-.069a25.075,25.075,0,0,1,4.784-.533,11.577,11.577,0,0,1,4.716.878,6.027,6.027,0,0,1,2.944,2.7v.017Zm5.129-4.612a10.78,10.78,0,0,0-5.645-3.476,26.772,26.772,0,0,0-7.934-1.016l-4.6.224v-7.968a7.279,7.279,0,0,0-.258-2.238,2.609,2.609,0,0,0-.344-.654,2.338,2.338,0,0,0-.6-.551,2.41,2.41,0,0,0-.947-.4l-1.29-.173-1.274.173a2.384,2.384,0,0,0-.964.4,2.25,2.25,0,0,0-.585.551,2.623,2.623,0,0,0-.362.654,7.283,7.283,0,0,0-.258,2.238l-.017,32.029a7.033,7.033,0,0,0,.275,2.238,1.588,1.588,0,0,0,.344.654,2.6,2.6,0,0,0,.586.551,3.429,3.429,0,0,0,1.687.551l1.188.137,5.438.258,2.359-.052c5.042-.293,8.829-1.549,11.358-3.821a12.857,12.857,0,0,0,3.064-3.957,15.337,15.337,0,0,0,1.463-5.525,16.088,16.088,0,0,0,.087-1.807,17.09,17.09,0,0,0-.706-4.957,13.107,13.107,0,0,0-2.065-4.061" transform="translate(-35.723 -9.232)" fill="#001965"/>
    <path id="Path_270" data-name="Path 270" d="M397.546,234.467a7.226,7.226,0,0,0-.258,2.221v18.879l-.361.052a24.3,24.3,0,0,1-3.252.241,10.167,10.167,0,0,1-5.766-1.428,5.341,5.341,0,0,1-1.807-1.962,6.514,6.514,0,0,1-.826-2.84l-.018-.017V236.687a6.916,6.916,0,0,0-.258-2.221,2.226,2.226,0,0,0-.344-.671,3.147,3.147,0,0,0-.6-.551,2.524,2.524,0,0,0-.964-.4,4.874,4.874,0,0,0-1.273-.155l-1.274.155a2.9,2.9,0,0,0-.981.4,3.026,3.026,0,0,0-.586.551,3.463,3.463,0,0,0-.361.671,7.325,7.325,0,0,0-.241,2.221v11.255c0,1.016.034,1.876.069,2.581a13.047,13.047,0,0,0,.636,3.271,9.328,9.328,0,0,0,1.1,2.461,10.331,10.331,0,0,0,5.834,4.045,28.525,28.525,0,0,0,8.657,1.119l5.421-.258,1.2-.138a3.409,3.409,0,0,0,1.687-.551,2.563,2.563,0,0,0,.585-.551,1.831,1.831,0,0,0,.362-.653,7.114,7.114,0,0,0,.258-2.238l-.017-20.343a7.2,7.2,0,0,0-.258-2.221,2.226,2.226,0,0,0-.344-.671,2.687,2.687,0,0,0-1.548-.946l-1.291-.155-1.274.155a2.659,2.659,0,0,0-.964.4,3.018,3.018,0,0,0-.585.551,2.734,2.734,0,0,0-.361.671" transform="translate(-21.98 -14.557)" fill="#001965"/>
  </g>
</svg>
