<?xml version="1.0" encoding="UTF-8"?>
<!DOCTYPE svg PUBLIC "-//W3C//DTD SVG 1.1//EN" "http://www.w3.org/Graphics/SVG/1.1/DTD/svg11.dtd">
<svg xmlns="http://www.w3.org/2000/svg" version="1.1" width="222px" height="212px" style="shape-rendering:geometricPrecision; text-rendering:geometricPrecision; image-rendering:optimizeQuality; fill-rule:evenodd; clip-rule:evenodd" xmlns:xlink="http://www.w3.org/1999/xlink">
<g><path style="opacity:1" fill="#fdfdfd" d="M -0.5,-0.5 C 73.5,-0.5 147.5,-0.5 221.5,-0.5C 221.5,70.1667 221.5,140.833 221.5,211.5C 147.5,211.5 73.5,211.5 -0.5,211.5C -0.5,140.833 -0.5,70.1667 -0.5,-0.5 Z"/></g>
<g><path style="opacity:1" fill="#bebebe" d="M 135.5,16.5 C 134.167,16.5 132.833,16.5 131.5,16.5C 128.482,16.2962 125.482,15.9629 122.5,15.5C 115.011,14.3443 107.345,14.1777 99.5,15C 98.2625,15.2321 97.2625,15.7321 96.5,16.5C 95.1667,16.5 93.8333,16.5 92.5,16.5C 90.1016,16.2594 88.1016,16.9261 86.5,18.5C 82.4936,19.3086 78.8269,20.6419 75.5,22.5C 74.8333,22.5 74.1667,22.5 73.5,22.5C 72.391,22.5569 71.391,22.8902 70.5,23.5C 72.9174,21.1166 75.9174,19.4499 79.5,18.5C 95.3949,13.6932 111.728,12.1932 128.5,14C 130.927,14.9023 133.26,15.7356 135.5,16.5 Z"/></g>
<g><path style="opacity:1" fill="#4e4e4e" d="M 122.5,15.5 C 121.5,15.5 120.5,15.5 119.5,15.5C 111.799,15.3089 104.132,15.6423 96.5,16.5C 97.2625,15.7321 98.2625,15.2321 99.5,15C 107.345,14.1777 115.011,14.3443 122.5,15.5 Z"/></g>
<g><path style="opacity:1" fill="#030202" d="M 119.5,15.5 C 119.611,16.1174 119.944,16.6174 120.5,17C 124.152,17.4986 127.818,17.6653 131.5,17.5C 133.435,18.1495 135.435,18.4828 137.5,18.5C 138.167,18.5 138.833,18.5 139.5,18.5C 139.953,19.4584 140.619,20.2917 141.5,21C 145.462,22.3533 149.462,23.5199 153.5,24.5C 154.167,24.5 154.833,24.5 155.5,24.5C 155.973,25.9063 156.973,26.573 158.5,26.5C 160.167,27.8333 161.833,29.1667 163.5,30.5C 164.29,31.4013 165.29,32.0679 166.5,32.5C 166.833,32.5 167.167,32.5 167.5,32.5C 167.973,33.9063 168.973,34.573 170.5,34.5C 170.973,35.9063 171.973,36.573 173.5,36.5C 174.338,36.8417 174.672,37.5084 174.5,38.5C 176.833,41.5 179.5,44.1667 182.5,46.5C 184.795,50.4582 187.462,54.1248 190.5,57.5C 190.215,59.288 190.548,60.9547 191.5,62.5C 193.026,64.6227 194.692,66.6227 196.5,68.5C 196.833,68.5 197.167,68.5 197.5,68.5C 197.338,70.5273 197.505,72.5273 198,74.5C 199.058,77.7658 200.558,80.7658 202.5,83.5C 202.517,85.5648 202.85,87.5648 203.5,89.5C 203.502,95.0176 203.835,100.518 204.5,106C 203.653,116.656 201.986,127.156 199.5,137.5C 199.167,138.833 198.833,140.167 198.5,141.5C 198.5,141.833 198.5,142.167 198.5,142.5C 197.263,143.965 196.263,145.632 195.5,147.5C 192.92,150.378 190.92,153.712 189.5,157.5C 188.876,159.754 187.543,161.421 185.5,162.5C 183.983,162.511 182.816,163.177 182,164.5C 181.011,166.97 179.845,169.303 178.5,171.5C 176.973,171.427 175.973,172.094 175.5,173.5C 172.346,175.402 169.012,177.069 165.5,178.5C 164.614,179.325 164.281,180.325 164.5,181.5C 163.118,182.801 161.452,183.634 159.5,184C 158.748,184.671 158.414,185.504 158.5,186.5C 156.847,186.66 155.514,187.326 154.5,188.5C 151.455,189.279 148.789,190.613 146.5,192.5C 146.167,192.5 145.833,192.5 145.5,192.5C 143.102,192.259 141.102,192.926 139.5,194.5C 138.833,194.5 138.167,194.5 137.5,194.5C 133.181,195.035 128.848,195.535 124.5,196C 123.944,196.383 123.611,196.883 123.5,197.5C 123.167,197.5 122.833,197.5 122.5,197.5C 115.833,197.5 109.167,197.5 102.5,197.5C 99.3134,196.104 95.98,194.937 92.5,194C 89.1832,193.502 85.8499,193.335 82.5,193.5C 80.9381,192.024 79.2714,190.524 77.5,189C 73.296,188.319 69.296,187.152 65.5,185.5C 64.8333,185.5 64.5,185.167 64.5,184.5C 63.0772,182.455 61.0772,181.455 58.5,181.5C 57.8166,179.824 56.4832,179.157 54.5,179.5C 53.8333,178.5 53.1667,177.5 52.5,176.5C 51.0892,174.086 49.0892,172.419 46.5,171.5C 44.5,169.833 42.5,168.167 40.5,166.5C 40.2624,164.596 39.2624,163.262 37.5,162.5C 36.8333,162.5 36.5,162.167 36.5,161.5C 36.573,159.973 35.9063,158.973 34.5,158.5C 34.573,156.973 33.9063,155.973 32.5,155.5C 32.4431,154.391 32.1098,153.391 31.5,152.5C 30.9026,149.626 29.5693,147.292 27.5,145.5C 27.7271,143.067 26.7271,141.401 24.5,140.5C 24.7406,138.102 24.0739,136.102 22.5,134.5C 22.5,133.833 22.5,133.167 22.5,132.5C 21.8195,128.881 21.3195,125.214 21,121.5C 20.6174,120.944 20.1174,120.611 19.5,120.5C 19.3336,111.494 19.5002,102.494 20,93.5C 22.0608,85.4647 24.2275,77.4647 26.5,69.5C 26.5,68.8333 26.5,68.1667 26.5,67.5C 27.9063,67.0269 28.573,66.0269 28.5,64.5C 28.5,64.1667 28.5,63.8333 28.5,63.5C 29.9063,63.0269 30.573,62.0269 30.5,60.5C 31.9063,60.0269 32.573,59.0269 32.5,57.5C 35.9055,54.1014 38.9055,50.4347 41.5,46.5C 44.9739,45.2712 47.3072,42.9378 48.5,39.5C 52.4627,36.8715 56.1294,33.8715 59.5,30.5C 61.8477,30.4077 63.5144,29.4077 64.5,27.5C 66.9893,27.7593 68.656,26.7593 69.5,24.5C 71.3797,24.7709 72.713,24.1042 73.5,22.5C 74.1667,22.5 74.8333,22.5 75.5,22.5C 79.6564,22.1538 83.323,20.8205 86.5,18.5C 88.8984,18.7406 90.8984,18.0739 92.5,16.5C 93.8333,16.5 95.1667,16.5 96.5,16.5C 104.132,15.6423 111.799,15.3089 119.5,15.5 Z"/></g>
<g><path style="opacity:1" fill="#2c2c2c" d="M 119.5,15.5 C 120.5,15.5 121.5,15.5 122.5,15.5C 125.482,15.9629 128.482,16.2962 131.5,16.5C 131.5,16.8333 131.5,17.1667 131.5,17.5C 127.818,17.6653 124.152,17.4986 120.5,17C 119.944,16.6174 119.611,16.1174 119.5,15.5 Z"/></g>
<g><path style="opacity:1" fill="#707070" d="M 131.5,17.5 C 131.5,17.1667 131.5,16.8333 131.5,16.5C 132.833,16.5 134.167,16.5 135.5,16.5C 136.167,17.1667 136.833,17.8333 137.5,18.5C 135.435,18.4828 133.435,18.1495 131.5,17.5 Z"/></g>
<g><path style="opacity:1" fill="#515151" d="M 92.5,16.5 C 90.8984,18.0739 88.8984,18.7406 86.5,18.5C 88.1016,16.9261 90.1016,16.2594 92.5,16.5 Z"/></g>
<g><path style="opacity:1" fill="#c8c8c8" d="M 135.5,16.5 C 137.898,16.2594 139.898,16.9261 141.5,18.5C 140.833,18.5 140.167,18.5 139.5,18.5C 138.833,18.5 138.167,18.5 137.5,18.5C 136.833,17.8333 136.167,17.1667 135.5,16.5 Z"/></g>
<g><path style="opacity:1" fill="#434343" d="M 86.5,18.5 C 83.323,20.8205 79.6564,22.1538 75.5,22.5C 78.8269,20.6419 82.4936,19.3086 86.5,18.5 Z"/></g>
<g><path style="opacity:1" fill="#bababa" d="M 141.5,18.5 C 145.656,18.8462 149.323,20.1795 152.5,22.5C 149.279,21.4946 145.946,20.6613 142.5,20C 141.944,19.6174 141.611,19.1174 141.5,18.5 Z"/></g>
<g><path style="opacity:1" fill="#494949" d="M 139.5,18.5 C 140.167,18.5 140.833,18.5 141.5,18.5C 141.611,19.1174 141.944,19.6174 142.5,20C 145.946,20.6613 149.279,21.4946 152.5,22.5C 152.833,23.1667 153.167,23.8333 153.5,24.5C 149.462,23.5199 145.462,22.3533 141.5,21C 140.619,20.2917 139.953,19.4584 139.5,18.5 Z"/></g>
<g><path style="opacity:1" fill="#737373" d="M 73.5,22.5 C 72.713,24.1042 71.3797,24.7709 69.5,24.5C 69.5,24.1667 69.5,23.8333 69.5,23.5C 69.8333,23.5 70.1667,23.5 70.5,23.5C 71.391,22.8902 72.391,22.5569 73.5,22.5 Z"/></g>
<g><path style="opacity:1" fill="#d0d0d0" d="M 69.5,23.5 C 69.5,23.8333 69.5,24.1667 69.5,24.5C 67.5659,25.1103 65.8993,26.1103 64.5,27.5C 62.7162,27.8925 61.0495,28.5592 59.5,29.5C 61.2713,25.1875 64.6046,23.1875 69.5,23.5 Z"/></g>
<g><path style="opacity:1" fill="#9e9e9e" d="M 155.5,24.5 C 157.027,24.427 158.027,25.0937 158.5,26.5C 156.973,26.573 155.973,25.9063 155.5,24.5 Z"/></g>
<g><path style="opacity:1" fill="#3d3d3d" d="M 69.5,24.5 C 68.656,26.7593 66.9893,27.7593 64.5,27.5C 65.8993,26.1103 67.5659,25.1103 69.5,24.5 Z"/></g>
<g><path style="opacity:1" fill="#a2a2a2" d="M 158.5,26.5 C 161.546,26.7247 163.879,28.058 165.5,30.5C 164.833,30.5 164.167,30.5 163.5,30.5C 161.833,29.1667 160.167,27.8333 158.5,26.5 Z"/></g>
<g><path style="opacity:1" fill="#4c4c4c" d="M 64.5,27.5 C 63.5144,29.4077 61.8477,30.4077 59.5,30.5C 59.5,30.1667 59.5,29.8333 59.5,29.5C 61.0495,28.5592 62.7162,27.8925 64.5,27.5 Z"/></g>
<g><path style="opacity:1" fill="#5c5c5c" d="M 163.5,30.5 C 164.167,30.5 164.833,30.5 165.5,30.5C 166.338,30.8417 166.672,31.5084 166.5,32.5C 165.29,32.0679 164.29,31.4013 163.5,30.5 Z"/></g>
<g><path style="opacity:1" fill="#838383" d="M 167.5,32.5 C 169.027,32.427 170.027,33.0937 170.5,34.5C 168.973,34.573 167.973,33.9063 167.5,32.5 Z"/></g>
<g><path style="opacity:1" fill="#c7c7c7" d="M 54.5,32.5 C 52.8333,34.8333 50.8333,36.8333 48.5,38.5C 48.8333,34.8333 50.8333,32.8333 54.5,32.5 Z"/></g>
<g><path style="opacity:1" fill="#989898" d="M 170.5,34.5 C 172.027,34.427 173.027,35.0937 173.5,36.5C 171.973,36.573 170.973,35.9063 170.5,34.5 Z"/></g>
<g><path style="opacity:1" fill="#424242" d="M 59.5,30.5 C 56.1294,33.8715 52.4627,36.8715 48.5,39.5C 48.5,39.1667 48.5,38.8333 48.5,38.5C 50.8333,36.8333 52.8333,34.8333 54.5,32.5C 56.1667,31.8333 57.8333,31.1667 59.5,30.5 Z"/></g>
<g><path style="opacity:1" fill="#696969" d="M 174.5,38.5 C 177.764,40.0941 180.431,42.4275 182.5,45.5C 182.5,45.8333 182.5,46.1667 182.5,46.5C 179.5,44.1667 176.833,41.5 174.5,38.5 Z"/></g>
<g><path style="opacity:1" fill="#858585" d="M 48.5,38.5 C 48.5,38.8333 48.5,39.1667 48.5,39.5C 45.8333,41.5 43.5,43.8333 41.5,46.5C 38.9055,50.4347 35.9055,54.1014 32.5,57.5C 35.6395,49.3572 40.9728,43.0238 48.5,38.5 Z"/></g>
<g><path style="opacity:1" fill="#2d2d2d" d="M 48.5,39.5 C 47.3072,42.9378 44.9739,45.2712 41.5,46.5C 43.5,43.8333 45.8333,41.5 48.5,39.5 Z"/></g>
<g><path style="opacity:1" fill="#4e4e4e" d="M 182.5,46.5 C 185.907,48.9033 188.574,51.9033 190.5,55.5C 190.5,56.1667 190.5,56.8333 190.5,57.5C 187.462,54.1248 184.795,50.4582 182.5,46.5 Z"/></g>
<g><path style="opacity:1" fill="#c7c7c7" d="M 182.5,46.5 C 182.5,46.1667 182.5,45.8333 182.5,45.5C 187.053,47.2486 189.72,50.5819 190.5,55.5C 188.574,51.9033 185.907,48.9033 182.5,46.5 Z"/></g>
<g><path style="opacity:1" fill="#1d1c1a" d="M 100.5,62.5 C 97.8333,62.5 95.1667,62.5 92.5,62.5C 92.5,67.1667 92.5,71.8333 92.5,76.5C 95.1667,76.5 97.8333,76.5 100.5,76.5C 96.8384,77.3414 93.005,78.0081 89,78.5C 87.6244,78.3158 86.7911,77.6491 86.5,76.5C 87.5832,76.4606 88.5832,76.1272 89.5,75.5C 90.4922,71.2172 90.8256,66.8839 90.5,62.5C 87.8333,62.5 85.1667,62.5 82.5,62.5C 82.5,63.8333 82.5,65.1667 82.5,66.5C 81.8333,66.5 81.1667,66.5 80.5,66.5C 80.67,65.1779 80.3366,64.0113 79.5,63C 76.5184,62.502 73.5184,62.3354 70.5,62.5C 73.6414,61.6787 76.9748,61.1787 80.5,61C 81.7865,57.1779 83.7865,56.6779 86.5,59.5C 85.2713,60.2811 83.938,60.7811 82.5,61C 88.6807,61.1724 94.6807,61.6724 100.5,62.5 Z"/></g>
<g><path style="opacity:1" fill="#717171" d="M 32.5,57.5 C 32.573,59.0269 31.9063,60.0269 30.5,60.5C 30.427,58.9731 31.0937,57.9731 32.5,57.5 Z"/></g>
<g><path style="opacity:1" fill="#2b2b2b" d="M 190.5,57.5 C 191.833,57.5 192.5,58.1667 192.5,59.5C 192.427,61.0269 193.094,62.0269 194.5,62.5C 195.72,64.2821 196.386,66.2821 196.5,68.5C 194.692,66.6227 193.026,64.6227 191.5,62.5C 190.548,60.9547 190.215,59.288 190.5,57.5 Z"/></g>
<g><path style="opacity:1" fill="#797979" d="M 192.5,59.5 C 193.906,59.9731 194.573,60.9731 194.5,62.5C 193.094,62.0269 192.427,61.0269 192.5,59.5 Z"/></g>
<g><path style="opacity:1" fill="#7e7e7e" d="M 30.5,60.5 C 30.573,62.0269 29.9063,63.0269 28.5,63.5C 28.427,61.9731 29.0937,60.9731 30.5,60.5 Z"/></g>
<g><path style="opacity:1" fill="#bebebe" d="M 190.5,55.5 C 191.708,56.2341 193.041,56.5674 194.5,56.5C 197.205,63.4232 199.539,70.4232 201.5,77.5C 199.432,74.8257 198.099,71.8257 197.5,68.5C 197.167,68.5 196.833,68.5 196.5,68.5C 196.386,66.2821 195.72,64.2821 194.5,62.5C 194.573,60.9731 193.906,59.9731 192.5,59.5C 192.5,58.1667 191.833,57.5 190.5,57.5C 190.5,56.8333 190.5,56.1667 190.5,55.5 Z"/></g>
<g><path style="opacity:1" fill="#716f6d" d="M 100.5,62.5 C 100.5,63.1667 100.5,63.8333 100.5,64.5C 98.5,64.5 96.5,64.5 94.5,64.5C 94.5,65.8333 94.5,67.1667 94.5,68.5C 96.604,68.2011 98.604,68.5344 100.5,69.5C 100.376,70.1067 100.043,70.44 99.5,70.5C 97.8333,70.5 96.1667,70.5 94.5,70.5C 94.5,71.8333 94.5,73.1667 94.5,74.5C 97.0821,74.0254 99.0821,74.6921 100.5,76.5C 97.8333,76.5 95.1667,76.5 92.5,76.5C 92.5,71.8333 92.5,67.1667 92.5,62.5C 95.1667,62.5 97.8333,62.5 100.5,62.5 Z"/></g>
<g><path style="opacity:1" fill="#282826" d="M 110.5,63.5 C 111.167,63.5 111.833,63.5 112.5,63.5C 113.568,64.4345 114.901,64.7678 116.5,64.5C 115.931,68.3293 116.598,71.6627 118.5,74.5C 118.179,76.0481 117.179,76.7148 115.5,76.5C 115.5,72.8333 115.5,69.1667 115.5,65.5C 114.178,65.33 113.011,65.6634 112,66.5C 111.752,69.9194 111.252,73.2527 110.5,76.5C 109.833,76.5 109.167,76.5 108.5,76.5C 108.158,75.6618 107.492,75.3284 106.5,75.5C 106.285,73.8212 106.952,72.8212 108.5,72.5C 108.369,73.3764 108.702,74.0431 109.5,74.5C 110.489,70.8927 110.823,67.226 110.5,63.5 Z"/></g>
<g><path style="opacity:1" fill="#242321" d="M 152.5,62.5 C 155.469,60.9937 158.302,61.327 161,63.5C 161.667,67.8333 161.667,72.1667 161,76.5C 160.612,77.428 159.945,78.0946 159,78.5C 157.272,78.101 155.772,77.4343 154.5,76.5C 156.722,76.822 158.556,76.1554 160,74.5C 160.667,71.1667 160.667,67.8333 160,64.5C 157.865,62.7215 155.365,62.0548 152.5,62.5 Z"/></g>
<g><path style="opacity:1" fill="#716f6d" d="M 56.5,62.5 C 57.1667,62.5 57.8333,62.5 58.5,62.5C 58.5,64.5 58.5,66.5 58.5,68.5C 60.5,68.5 62.5,68.5 64.5,68.5C 64.5,66.5 64.5,64.5 64.5,62.5C 65.1667,62.5 65.8333,62.5 66.5,62.5C 66.8242,66.5546 66.4909,70.5546 65.5,74.5C 64.5713,73.3112 64.238,71.9778 64.5,70.5C 62.5,70.5 60.5,70.5 58.5,70.5C 58.5,71.8333 58.5,73.1667 58.5,74.5C 56.5772,70.9707 55.9106,66.9707 56.5,62.5 Z"/></g>
<g><path style="opacity:1" fill="#686563" d="M 70.5,62.5 C 73.5184,62.3354 76.5184,62.502 79.5,63C 80.3366,64.0113 80.67,65.1779 80.5,66.5C 79.8333,66.5 79.1667,66.5 78.5,66.5C 76.2067,63.9411 73.7067,63.9411 71,66.5C 70.185,69.1982 70.685,71.5315 72.5,73.5C 74.2191,74.0221 75.5525,75.0221 76.5,76.5C 74.3792,76.6747 72.3792,76.3414 70.5,75.5C 68.6764,72.1538 68.0097,68.4872 68.5,64.5C 69.5,64.1667 70.1667,63.5 70.5,62.5 Z"/></g>
<g><path style="opacity:1" fill="#737373" d="M 28.5,64.5 C 28.573,66.0269 27.9063,67.0269 26.5,67.5C 26.427,65.9731 27.0937,64.9731 28.5,64.5 Z"/></g>
<g><path style="opacity:1" fill="#474441" d="M 110.5,63.5 C 108.516,62.3058 106.516,62.3058 104.5,63.5C 105.689,64.4287 107.022,64.762 108.5,64.5C 108.5,65.8333 108.5,67.1667 108.5,68.5C 107.167,68.5 105.833,68.5 104.5,68.5C 104.5,69.5 104.5,70.5 104.5,71.5C 106.099,71.2322 107.432,71.5655 108.5,72.5C 106.952,72.8212 106.285,73.8212 106.5,75.5C 105.5,75.5 104.5,75.5 103.5,75.5C 103.5,71.1667 103.5,66.8333 103.5,62.5C 104.449,61.8476 105.615,61.5143 107,61.5C 108.681,61.6083 109.848,62.2749 110.5,63.5 Z"/></g>
<g><path style="opacity:1" fill="#22201e" d="M 112.5,62.5 C 119.005,61.5007 125.671,61.5007 132.5,62.5C 132.5,66.1667 132.5,69.8333 132.5,73.5C 130.896,70.5968 129.896,67.2634 129.5,63.5C 128.508,67.7828 128.174,72.1161 128.5,76.5C 127.662,76.1583 127.328,75.4916 127.5,74.5C 127.5,71.1667 127.5,67.8333 127.5,64.5C 125.139,64.6741 122.806,65.0074 120.5,65.5C 120.932,68.8774 120.265,71.8774 118.5,74.5C 118.5,71.1667 118.5,67.8333 118.5,64.5C 119.978,64.762 121.311,64.4287 122.5,63.5C 119.232,62.513 115.898,62.1796 112.5,62.5 Z"/></g>
<g><path style="opacity:1" fill="#6f6d6d" d="M 152.5,62.5 C 155.365,62.0548 157.865,62.7215 160,64.5C 160.667,67.8333 160.667,71.1667 160,74.5C 158.556,76.1554 156.722,76.822 154.5,76.5C 154.167,76.5 153.833,76.5 153.5,76.5C 152.559,71.9296 152.226,67.263 152.5,62.5 Z"/></g>
<g><path style="opacity:1" fill="#2d2d2d" d="M 154.5,64.5 C 155.833,64.5 157.167,64.5 158.5,64.5C 158.5,65.8333 158.5,67.1667 158.5,68.5C 157.167,68.5 155.833,68.5 154.5,68.5C 154.5,67.1667 154.5,65.8333 154.5,64.5 Z"/></g>
<g><path style="opacity:1" fill="#302d2b" d="M 58.5,62.5 C 59.4511,63.9187 59.7845,65.5853 59.5,67.5C 60.8333,67.5 62.1667,67.5 63.5,67.5C 63.2155,65.5853 63.5489,63.9187 64.5,62.5C 64.5,64.5 64.5,66.5 64.5,68.5C 62.5,68.5 60.5,68.5 58.5,68.5C 58.5,66.5 58.5,64.5 58.5,62.5 Z"/></g>
<g><path style="opacity:1" fill="#181616" d="M 100.5,64.5 C 101.748,65.3339 102.415,66.6672 102.5,68.5C 102.45,73.3783 100.117,74.7116 95.5,72.5C 96.9492,71.8281 98.2825,71.1614 99.5,70.5C 100.043,70.44 100.376,70.1067 100.5,69.5C 98.604,68.5344 96.604,68.2011 94.5,68.5C 94.5,67.1667 94.5,65.8333 94.5,64.5C 96.5,64.5 98.5,64.5 100.5,64.5 Z"/></g>
<g><path style="opacity:1" fill="#6f6d6b" d="M 110.5,63.5 C 110.823,67.226 110.489,70.8927 109.5,74.5C 108.702,74.0431 108.369,73.3764 108.5,72.5C 107.432,71.5655 106.099,71.2322 104.5,71.5C 104.5,70.5 104.5,69.5 104.5,68.5C 105.833,68.5 107.167,68.5 108.5,68.5C 108.5,67.1667 108.5,65.8333 108.5,64.5C 107.022,64.762 105.689,64.4287 104.5,63.5C 106.516,62.3058 108.516,62.3058 110.5,63.5 Z"/></g>
<g><path style="opacity:1" fill="#6a6a6a" d="M 148.5,68.5 C 146.435,68.4828 144.435,68.1495 142.5,67.5C 143.038,65.8828 143.371,64.2161 143.5,62.5C 144.833,62.5 146.167,62.5 147.5,62.5C 147.833,64.5 148.167,66.5 148.5,68.5 Z"/></g>
<g><path style="opacity:1" fill="#6a6867" d="M 112.5,62.5 C 115.898,62.1796 119.232,62.513 122.5,63.5C 121.311,64.4287 119.978,64.762 118.5,64.5C 118.5,67.8333 118.5,71.1667 118.5,74.5C 116.598,71.6627 115.931,68.3293 116.5,64.5C 114.901,64.7678 113.568,64.4345 112.5,63.5C 112.5,63.1667 112.5,62.8333 112.5,62.5 Z"/></g>
<g><path style="opacity:1" fill="#a4a4a4" d="M 26.5,67.5 C 26.5,68.1667 26.5,68.8333 26.5,69.5C 25.8333,69.8333 25.1667,70.1667 24.5,70.5C 24.427,68.9731 25.0937,67.9731 26.5,67.5 Z"/></g>
<g><path style="opacity:1" fill="#181513" d="M 78.5,66.5 C 79.9032,71.4451 77.9032,73.7784 72.5,73.5C 70.685,71.5315 70.185,69.1982 71,66.5C 73.7067,63.9411 76.2067,63.9411 78.5,66.5 Z"/></g>
<g><path style="opacity:1" fill="#6a6a69" d="M 86.5,76.5 C 85.1667,76.5 83.8333,76.5 82.5,76.5C 82.5,75.1667 82.5,73.8333 82.5,72.5C 81.3586,70.4513 81.3586,68.4513 82.5,66.5C 82.5,65.1667 82.5,63.8333 82.5,62.5C 85.1667,62.5 87.8333,62.5 90.5,62.5C 90.8256,66.8839 90.4922,71.2172 89.5,75.5C 88.5832,76.1272 87.5832,76.4606 86.5,76.5 Z"/></g>
<g><path style="opacity:1" fill="#383533" d="M 84.5,64.5 C 85.8333,64.5 87.1667,64.5 88.5,64.5C 88.5,65.8333 88.5,67.1667 88.5,68.5C 87.1667,68.5 85.8333,68.5 84.5,68.5C 84.5,67.1667 84.5,65.8333 84.5,64.5 Z"/></g>
<g><path style="opacity:1" fill="#898989" d="M 142.5,67.5 C 144.435,68.1495 146.435,68.4828 148.5,68.5C 147.082,70.3079 145.082,70.9746 142.5,70.5C 142.5,69.5 142.5,68.5 142.5,67.5 Z"/></g>
<g><path style="opacity:1" fill="#2f2d2d" d="M 66.5,62.5 C 67.1667,63.1667 67.8333,63.8333 68.5,64.5C 68.0097,68.4872 68.6764,72.1538 70.5,75.5C 68.4247,75.6984 66.4247,75.8651 64.5,76C 63.6198,74.6439 63.2865,73.1439 63.5,71.5C 62.1667,71.5 60.8333,71.5 59.5,71.5C 59.7373,72.791 59.404,73.791 58.5,74.5C 58.5,73.1667 58.5,71.8333 58.5,70.5C 60.5,70.5 62.5,70.5 64.5,70.5C 64.238,71.9778 64.5713,73.3112 65.5,74.5C 66.4909,70.5546 66.8242,66.5546 66.5,62.5 Z"/></g>
<g><path style="opacity:1" fill="#544f4c" d="M 78.5,66.5 C 79.1667,66.5 79.8333,66.5 80.5,66.5C 81.1667,66.5 81.8333,66.5 82.5,66.5C 81.3586,68.4513 81.3586,70.4513 82.5,72.5C 80.5178,73.8075 78.5178,75.1408 76.5,76.5C 75.5525,75.0221 74.2191,74.0221 72.5,73.5C 77.9032,73.7784 79.9032,71.4451 78.5,66.5 Z"/></g>
<g><path style="opacity:1" fill="#565557" d="M 142.5,67.5 C 142.5,68.5 142.5,69.5 142.5,70.5C 145.082,70.9746 147.082,70.3079 148.5,68.5C 148.833,68.5 149.167,68.5 149.5,68.5C 150.694,70.4844 150.694,72.4844 149.5,74.5C 148.824,73.3984 148.158,72.3984 147.5,71.5C 146.167,71.5 144.833,71.5 143.5,71.5C 141.67,75.6078 140.67,75.2745 140.5,70.5C 141.167,69.5 141.833,68.5 142.5,67.5 Z"/></g>
<g><path style="opacity:1" fill="#1e1d1e" d="M 56.5,62.5 C 55.9106,66.9707 56.5772,70.9707 58.5,74.5C 58.5,75.5 58.5,76.5 58.5,77.5C 55.7395,78.0853 54.0728,77.0853 53.5,74.5C 54.8999,70.4709 55.8999,66.4709 56.5,62.5 Z"/></g>
<g><path style="opacity:1" fill="#070903" d="M 127.5,74.5 C 123.683,76.6244 123.683,78.9577 127.5,81.5C 128.474,83.7427 128.808,86.076 128.5,88.5C 128.167,88.5 127.833,88.5 127.5,88.5C 126.638,80.5574 122.304,77.8907 114.5,80.5C 113.178,80.33 112.011,80.6634 111,81.5C 109.921,84.0627 109.421,86.7294 109.5,89.5C 108.348,88.1664 107.348,86.6664 106.5,85C 108.506,82.3287 110.506,79.662 112.5,77C 111.906,76.5357 111.239,76.369 110.5,76.5C 111.252,73.2527 111.752,69.9194 112,66.5C 113.011,65.6634 114.178,65.33 115.5,65.5C 115.5,69.1667 115.5,72.8333 115.5,76.5C 117.179,76.7148 118.179,76.0481 118.5,74.5C 120.265,71.8774 120.932,68.8774 120.5,65.5C 122.806,65.0074 125.139,64.6741 127.5,64.5C 127.5,67.8333 127.5,71.1667 127.5,74.5 Z"/></g>
<g><path style="opacity:1" fill="#2d292e" d="M 152.5,62.5 C 152.226,67.263 152.559,71.9296 153.5,76.5C 149.062,77.5749 147.062,75.9083 147.5,71.5C 148.158,72.3984 148.824,73.3984 149.5,74.5C 150.694,72.4844 150.694,70.4844 149.5,68.5C 151.06,66.8439 152.06,64.8439 152.5,62.5 Z"/></g>
<g><path style="opacity:1" fill="#2f3634" d="M 84.5,70.5 C 85.8333,70.5 87.1667,70.5 88.5,70.5C 88.5,71.8333 88.5,73.1667 88.5,74.5C 85.5,74.8333 84.1667,73.5 84.5,70.5 Z"/></g>
<g><path style="opacity:1" fill="#302b2d" d="M 154.5,70.5 C 155.833,70.5 157.167,70.5 158.5,70.5C 158.5,71.8333 158.5,73.1667 158.5,74.5C 157.167,74.5 155.833,74.5 154.5,74.5C 154.5,73.1667 154.5,71.8333 154.5,70.5 Z"/></g>
<g><path style="opacity:1" fill="#a7a7a7" d="M 24.5,70.5 C 24.8799,72.698 24.2132,74.3646 22.5,75.5C 22.7959,73.597 23.4625,71.9303 24.5,70.5 Z"/></g>
<g><path style="opacity:1" fill="#292829" d="M 140.5,70.5 C 140.67,75.2745 141.67,75.6078 143.5,71.5C 143.714,73.1439 143.38,74.6439 142.5,76C 137.723,77.5879 133.057,77.7546 128.5,76.5C 132.012,77.0545 135.012,76.3878 137.5,74.5C 138.978,73.5525 139.978,72.2191 140.5,70.5 Z"/></g>
<g><path style="opacity:1" fill="#424242" d="M 26.5,69.5 C 24.2275,77.4647 22.0608,85.4647 20,93.5C 19.5002,102.494 19.3336,111.494 19.5,120.5C 19.1667,120.5 18.8333,120.5 18.5,120.5C 18.5,118.833 18.5,117.167 18.5,115.5C 18.5,108.833 18.5,102.167 18.5,95.5C 19.5033,89.1633 20.8367,82.83 22.5,76.5C 22.5,76.1667 22.5,75.8333 22.5,75.5C 24.2132,74.3646 24.8799,72.698 24.5,70.5C 25.1667,70.1667 25.8333,69.8333 26.5,69.5 Z"/></g>
<g><path style="opacity:1" fill="#2a2827" d="M 100.5,62.5 C 101.5,62.5 102.5,62.5 103.5,62.5C 103.5,66.8333 103.5,71.1667 103.5,75.5C 104.5,75.5 105.5,75.5 106.5,75.5C 104.735,76.4614 102.735,76.7947 100.5,76.5C 99.0821,74.6921 97.0821,74.0254 94.5,74.5C 94.5,73.1667 94.5,71.8333 94.5,70.5C 96.1667,70.5 97.8333,70.5 99.5,70.5C 98.2825,71.1614 96.9492,71.8281 95.5,72.5C 100.117,74.7116 102.45,73.3783 102.5,68.5C 102.415,66.6672 101.748,65.3339 100.5,64.5C 100.5,63.8333 100.5,63.1667 100.5,62.5 Z"/></g>
<g><path style="opacity:1" fill="#5d5657" d="M 132.5,73.5 C 133.919,74.4511 135.585,74.7845 137.5,74.5C 135.012,76.3878 132.012,77.0545 128.5,76.5C 128.174,72.1161 128.508,67.7828 129.5,63.5C 129.896,67.2634 130.896,70.5968 132.5,73.5 Z"/></g>
<g><path style="opacity:1" fill="#3f3f3f" d="M 197.5,68.5 C 198.099,71.8257 199.432,74.8257 201.5,77.5C 202.15,79.4352 202.483,81.4352 202.5,83.5C 200.558,80.7658 199.058,77.7658 198,74.5C 197.505,72.5273 197.338,70.5273 197.5,68.5 Z"/></g>
<g><path style="opacity:1" fill="#091404" d="M 68.5,83.5 C 68.5,84.1667 68.5,84.8333 68.5,85.5C 67.8333,84.8333 67.1667,84.1667 66.5,83.5C 66.3893,82.8826 66.056,82.3826 65.5,82C 63.1902,81.5034 60.8568,81.3367 58.5,81.5C 57.5041,81.4142 56.6708,81.7476 56,82.5C 55.5045,84.4727 55.3379,86.4727 55.5,88.5C 54.8186,86.8415 53.9853,85.1749 53,83.5C 52.2025,81.7412 52.3691,80.0745 53.5,78.5C 58.3187,78.6305 63.3187,78.6305 68.5,78.5C 68.5,80.1667 68.5,81.8333 68.5,83.5 Z"/></g>
<g><path style="opacity:1" fill="#c8c8c8" d="M 22.5,76.5 C 20.8367,82.83 19.5033,89.1633 18.5,95.5C 18.1667,95.5 17.8333,95.5 17.5,95.5C 17.171,88.4942 18.8377,82.1609 22.5,76.5 Z"/></g>
<g><path style="opacity:1" fill="#1a390e" d="M 127.5,88.5 C 126.662,88.8417 126.328,89.5084 126.5,90.5C 125.143,91.5903 124.143,92.9236 123.5,94.5C 123.167,94.5 122.833,94.5 122.5,94.5C 122.5,93.8333 122.5,93.1667 122.5,92.5C 122.5,91.1667 122.5,89.8333 122.5,88.5C 123.693,88.0296 124.36,87.0296 124.5,85.5C 124.36,83.9704 123.693,82.9704 122.5,82.5C 116.459,79.8625 113.126,81.8625 112.5,88.5C 111.387,87.0536 111.22,85.3869 112,83.5C 113.045,82.6266 113.878,81.6266 114.5,80.5C 122.304,77.8907 126.638,80.5574 127.5,88.5 Z"/></g>
<g><path style="opacity:1" fill="#374125" d="M 90.5,82.5 C 93.5,82.5 96.5,82.5 99.5,82.5C 99.5,83.8333 99.5,85.1667 99.5,86.5C 99.1667,86.5 98.8333,86.5 98.5,86.5C 98.5,85.5 98.5,84.5 98.5,83.5C 95.8333,83.8333 93.1667,84.1667 90.5,84.5C 90.5,83.8333 90.5,83.1667 90.5,82.5 Z"/></g>
<g><path style="opacity:1" fill="#31681e" d="M 122.5,82.5 C 117.291,81.3961 114.291,83.3961 113.5,88.5C 113.167,88.5 112.833,88.5 112.5,88.5C 113.126,81.8625 116.459,79.8625 122.5,82.5 Z"/></g>
<g><path style="opacity:1" fill="#5fa53e" d="M 122.5,82.5 C 123.693,82.9704 124.36,83.9704 124.5,85.5C 124.36,87.0296 123.693,88.0296 122.5,88.5C 122.5,86.8333 122.5,85.1667 122.5,83.5C 115.796,83.2385 113.796,86.2385 116.5,92.5C 117.833,92.5 119.167,92.5 120.5,92.5C 120.5,93.1667 120.5,93.8333 120.5,94.5C 119.432,95.4345 118.099,95.7678 116.5,95.5C 115.105,93.3074 114.105,90.9741 113.5,88.5C 114.291,83.3961 117.291,81.3961 122.5,82.5 Z"/></g>
<g><path style="opacity:1" fill="#7d8493" d="M 77.5,83.5 C 74.6874,83.0246 72.6874,84.0246 71.5,86.5C 71.1667,86.5 70.8333,86.5 70.5,86.5C 71.6886,82.6698 74.022,81.6698 77.5,83.5 Z"/></g>
<g><path style="opacity:1" fill="#60471f" d="M 90.5,82.5 C 90.5,83.1667 90.5,83.8333 90.5,84.5C 90.5,85.5 90.5,86.5 90.5,87.5C 89.8333,87.5 89.5,87.8333 89.5,88.5C 89.1667,88.5 88.8333,88.5 88.5,88.5C 88.1667,88.5 87.8333,88.5 87.5,88.5C 88.2341,87.2921 88.5674,85.9587 88.5,84.5C 85.1667,84.5 81.8333,84.5 78.5,84.5C 78.1667,84.5 77.8333,84.5 77.5,84.5C 77.5,84.1667 77.5,83.8333 77.5,83.5C 77.8333,83.5 78.1667,83.5 78.5,83.5C 81.6205,83.4618 84.6205,82.7952 87.5,81.5C 88.7261,81.5195 89.7261,81.8529 90.5,82.5 Z"/></g>
<g><path style="opacity:1" fill="#27343a" d="M 78.5,83.5 C 78.1667,83.5 77.8333,83.5 77.5,83.5C 74.022,81.6698 71.6886,82.6698 70.5,86.5C 70.1667,86.5 69.8333,86.5 69.5,86.5C 68.8333,86.5 68.5,86.1667 68.5,85.5C 68.5,84.8333 68.5,84.1667 68.5,83.5C 70.3327,82.5367 72.3327,81.87 74.5,81.5C 76.3328,81.5854 77.6661,82.2521 78.5,83.5 Z"/></g>
<g><path style="opacity:1" fill="#9e863e" d="M 78.5,84.5 C 81.8333,84.5 85.1667,84.5 88.5,84.5C 88.5674,85.9587 88.2341,87.2921 87.5,88.5C 87.1667,88.5 86.8333,88.5 86.5,88.5C 86.5,87.5 86.5,86.5 86.5,85.5C 85.1667,85.5 83.8333,85.5 82.5,85.5C 81.1667,85.8333 79.8333,86.1667 78.5,86.5C 78.5,85.8333 78.5,85.1667 78.5,84.5 Z"/></g>
<g><path style="opacity:1" fill="#5e6d46" d="M 98.5,86.5 C 95.8333,86.8333 93.1667,87.1667 90.5,87.5C 90.5,86.5 90.5,85.5 90.5,84.5C 93.1667,84.1667 95.8333,83.8333 98.5,83.5C 98.5,84.5 98.5,85.5 98.5,86.5 Z"/></g>
<g><path style="opacity:1" fill="#071505" d="M 114.5,80.5 C 113.878,81.6266 113.045,82.6266 112,83.5C 111.22,85.3869 111.387,87.0536 112.5,88.5C 112.5,91.1667 112.5,93.8333 112.5,96.5C 112.167,96.5 111.833,96.5 111.5,96.5C 111.279,93.9327 110.612,91.5994 109.5,89.5C 109.421,86.7294 109.921,84.0627 111,81.5C 112.011,80.6634 113.178,80.33 114.5,80.5 Z"/></g>
<g><path style="opacity:1" fill="#2e5b1f" d="M 58.5,81.5 C 60.8568,81.3367 63.1902,81.5034 65.5,82C 66.056,82.3826 66.3893,82.8826 66.5,83.5C 66.5,83.8333 66.5,84.1667 66.5,84.5C 64.3035,82.4554 61.9702,82.1221 59.5,83.5C 58.1667,84.8333 58.1667,86.1667 59.5,87.5C 59.5,87.8333 59.5,88.1667 59.5,88.5C 57.5159,88.516 56.5159,87.516 56.5,85.5C 56.7517,83.9271 57.4183,82.5938 58.5,81.5 Z"/></g>
<g><path style="opacity:1" fill="#c4cbdb" d="M 77.5,83.5 C 77.5,83.8333 77.5,84.1667 77.5,84.5C 75.5,85.1667 73.5,85.8333 71.5,86.5C 72.6874,84.0246 74.6874,83.0246 77.5,83.5 Z"/></g>
<g><path style="opacity:1" fill="#dbcb66" d="M 82.5,85.5 C 83.8333,85.5 85.1667,85.5 86.5,85.5C 86.5,86.5 86.5,87.5 86.5,88.5C 85.8333,88.5 85.1667,88.5 84.5,88.5C 81.7524,88.5983 81.0857,87.5983 82.5,85.5 Z"/></g>
<g><path style="opacity:1" fill="#72df4b" d="M 122.5,88.5 C 120.824,89.1834 120.157,90.5168 120.5,92.5C 119.167,92.5 117.833,92.5 116.5,92.5C 113.796,86.2385 115.796,83.2385 122.5,83.5C 122.5,85.1667 122.5,86.8333 122.5,88.5 Z"/></g>
<g><path style="opacity:1" fill="#468233" d="M 59.5,83.5 C 61.9702,82.1221 64.3035,82.4554 66.5,84.5C 66.67,85.8221 66.3366,86.9887 65.5,88C 63.5273,88.4955 61.5273,88.6621 59.5,88.5C 59.5,88.1667 59.5,87.8333 59.5,87.5C 61.6648,87.8841 63.3315,87.2174 64.5,85.5C 63.3315,83.7826 61.6648,83.1159 59.5,83.5 Z"/></g>
<g><path style="opacity:1" fill="#343f22" d="M 98.5,86.5 C 98.3893,87.1174 98.056,87.6174 97.5,88C 94.854,88.4974 92.1873,88.6641 89.5,88.5C 89.5,87.8333 89.8333,87.5 90.5,87.5C 93.1667,87.1667 95.8333,86.8333 98.5,86.5 Z"/></g>
<g><path style="opacity:1" fill="#1f3c1a" d="M 58.5,81.5 C 57.4183,82.5938 56.7517,83.9271 56.5,85.5C 56.5159,87.516 57.5159,88.516 59.5,88.5C 61.5273,88.6621 63.5273,88.4955 65.5,88C 66.3366,86.9887 66.67,85.8221 66.5,84.5C 66.5,84.1667 66.5,83.8333 66.5,83.5C 67.1667,84.1667 67.8333,84.8333 68.5,85.5C 68.5,86.1667 68.8333,86.5 69.5,86.5C 69.5,87.8333 69.5,89.1667 69.5,90.5C 68.8761,90.9169 68.5427,91.5836 68.5,92.5C 68.7472,93.7133 69.4138,94.38 70.5,94.5C 70.5,95.1667 70.5,95.8333 70.5,96.5C 70.5,97.1667 70.5,97.8333 70.5,98.5C 70.1667,98.5 69.8333,98.5 69.5,98.5C 67.9562,95.752 67.2895,92.752 67.5,89.5C 63.3998,89.7633 59.3998,89.4299 55.5,88.5C 55.3379,86.4727 55.5045,84.4727 56,82.5C 56.6708,81.7476 57.5041,81.4142 58.5,81.5 Z"/></g>
<g><path style="opacity:1" fill="#67b14b" d="M 59.5,83.5 C 61.6648,83.1159 63.3315,83.7826 64.5,85.5C 63.3315,87.2174 61.6648,87.8841 59.5,87.5C 58.1667,86.1667 58.1667,84.8333 59.5,83.5 Z"/></g>
<g><path style="opacity:1" fill="#e8f8ed" d="M 77.5,84.5 C 78.1606,89.1679 76.1606,91.1679 71.5,90.5C 71.5,89.1667 71.5,87.8333 71.5,86.5C 73.5,85.8333 75.5,85.1667 77.5,84.5 Z"/></g>
<g><path style="opacity:1" fill="#bbcc75" d="M 82.5,85.5 C 81.0857,87.5983 81.7524,88.5983 84.5,88.5C 82.7354,89.4614 80.7354,89.7947 78.5,89.5C 78.5,88.5 78.5,87.5 78.5,86.5C 79.8333,86.1667 81.1667,85.8333 82.5,85.5 Z"/></g>
<g><path style="opacity:1" fill="#707070" d="M 202.5,83.5 C 204.074,85.1016 204.741,87.1016 204.5,89.5C 204.167,89.5 203.833,89.5 203.5,89.5C 202.85,87.5648 202.517,85.5648 202.5,83.5 Z"/></g>
<g><path style="opacity:1" fill="#a3bbac" d="M 69.5,86.5 C 69.8333,86.5 70.1667,86.5 70.5,86.5C 70.8333,86.5 71.1667,86.5 71.5,86.5C 71.5,87.8333 71.5,89.1667 71.5,90.5C 71.1667,90.5 70.8333,90.5 70.5,90.5C 70.1667,90.5 69.8333,90.5 69.5,90.5C 69.5,89.1667 69.5,87.8333 69.5,86.5 Z"/></g>
<g><path style="opacity:1" fill="#cee3af" d="M 77.5,84.5 C 77.8333,84.5 78.1667,84.5 78.5,84.5C 78.5,85.1667 78.5,85.8333 78.5,86.5C 78.5,87.5 78.5,88.5 78.5,89.5C 77.6618,89.8417 77.3284,90.5084 77.5,91.5C 75.283,92.3686 72.9496,92.702 70.5,92.5C 70.5,91.8333 70.5,91.1667 70.5,90.5C 70.8333,90.5 71.1667,90.5 71.5,90.5C 76.1606,91.1679 78.1606,89.1679 77.5,84.5 Z"/></g>
<g><path style="opacity:1" fill="#8c9a53" d="M 84.5,88.5 C 85.1667,88.5 85.8333,88.5 86.5,88.5C 86.3893,89.1174 86.056,89.6174 85.5,90C 83.1902,90.4966 80.8568,90.6633 78.5,90.5C 78.5,91.8333 78.5,93.1667 78.5,94.5C 77.596,93.791 77.2627,92.791 77.5,91.5C 77.3284,90.5084 77.6618,89.8417 78.5,89.5C 80.7354,89.7947 82.7354,89.4614 84.5,88.5 Z"/></g>
<g><path style="opacity:1" fill="#070e04" d="M 98.5,86.5 C 98.8333,86.5 99.1667,86.5 99.5,86.5C 98.6082,89.2921 96.6082,90.6254 93.5,90.5C 93.9745,94.4158 92.9745,97.7491 90.5,100.5C 88.5829,98.2549 86.2496,97.9215 83.5,99.5C 83.1667,98.6667 82.8333,97.8333 82.5,97C 83.0077,95.1074 84.0077,93.6074 85.5,92.5C 86.1667,92.5 86.5,92.1667 86.5,91.5C 87.1667,90.5 87.8333,89.5 88.5,88.5C 88.8333,88.5 89.1667,88.5 89.5,88.5C 92.1873,88.6641 94.854,88.4974 97.5,88C 98.056,87.6174 98.3893,87.1174 98.5,86.5 Z"/></g>
<g><path style="opacity:1" fill="#4c9d2d" d="M 122.5,88.5 C 122.5,89.8333 122.5,91.1667 122.5,92.5C 121.833,92.5 121.167,92.5 120.5,92.5C 120.157,90.5168 120.824,89.1834 122.5,88.5 Z"/></g>
<g><path style="opacity:1" fill="#071503" d="M 55.5,88.5 C 59.3998,89.4299 63.3998,89.7633 67.5,89.5C 67.2895,92.752 67.9562,95.752 69.5,98.5C 66.205,97.8719 64.205,95.8719 63.5,92.5C 61.2241,91.7868 58.8907,91.2868 56.5,91C 55.7476,90.3292 55.4142,89.4959 55.5,88.5 Z"/></g>
<g><path style="opacity:1" fill="#4a2b16" d="M 138.5,90.5 C 138.5,90.8333 138.5,91.1667 138.5,91.5C 134.651,91.0193 132.651,92.686 132.5,96.5C 131.833,96.1667 131.167,95.8333 130.5,95.5C 130.598,89.8063 133.265,88.1397 138.5,90.5 Z"/></g>
<g><path style="opacity:1" fill="#311b20" d="M 138.5,90.5 C 133.265,88.1397 130.598,89.8063 130.5,95.5C 129.472,95.9258 128.139,95.9258 126.5,95.5C 126.5,93.8333 126.5,92.1667 126.5,90.5C 126.328,89.5084 126.662,88.8417 127.5,88.5C 127.833,88.5 128.167,88.5 128.5,88.5C 131.833,88.1667 135.167,87.8333 138.5,87.5C 138.5,88.5 138.5,89.5 138.5,90.5 Z"/></g>
<g><path style="opacity:1" fill="#4c5922" d="M 86.5,88.5 C 86.8333,88.5 87.1667,88.5 87.5,88.5C 87.8333,88.5 88.1667,88.5 88.5,88.5C 87.8333,89.5 87.1667,90.5 86.5,91.5C 84.076,91.1924 81.7427,91.5258 79.5,92.5C 80.7537,94.6431 80.7537,96.6431 79.5,98.5C 79.7678,96.901 79.4345,95.5676 78.5,94.5C 78.5,93.1667 78.5,91.8333 78.5,90.5C 80.8568,90.6633 83.1902,90.4966 85.5,90C 86.056,89.6174 86.3893,89.1174 86.5,88.5 Z"/></g>
<g><path style="opacity:1" fill="#695822" d="M 138.5,91.5 C 138.5,91.8333 138.5,92.1667 138.5,92.5C 138.5,92.8333 138.5,93.1667 138.5,93.5C 136.027,93.0882 134.694,94.0882 134.5,96.5C 133.833,96.5 133.167,96.5 132.5,96.5C 132.651,92.686 134.651,91.0193 138.5,91.5 Z"/></g>
<g><path style="opacity:1" fill="#6c9050" d="M 69.5,90.5 C 69.8333,90.5 70.1667,90.5 70.5,90.5C 70.5,91.1667 70.5,91.8333 70.5,92.5C 70.5,93.1667 70.5,93.8333 70.5,94.5C 69.4138,94.38 68.7472,93.7133 68.5,92.5C 68.5427,91.5836 68.8761,90.9169 69.5,90.5 Z"/></g>
<g><path style="opacity:1" fill="#739b3c" d="M 138.5,92.5 C 140.698,92.1201 142.365,92.7868 143.5,94.5C 143.616,97.9103 141.95,99.2436 138.5,98.5C 138.5,96.8333 138.5,95.1667 138.5,93.5C 138.5,93.1667 138.5,92.8333 138.5,92.5 Z"/></g>
<g><path style="opacity:1" fill="#1f3814" d="M 138.5,90.5 C 141.451,90.2872 144.118,90.9539 146.5,92.5C 146.662,94.5273 146.495,96.5273 146,98.5C 145.184,99.8228 144.017,100.489 142.5,100.5C 144.475,98.6381 144.808,96.6381 143.5,94.5C 142.365,92.7868 140.698,92.1201 138.5,92.5C 138.5,92.1667 138.5,91.8333 138.5,91.5C 138.5,91.1667 138.5,90.8333 138.5,90.5 Z"/></g>
<g><path style="opacity:1" fill="#3d506e" d="M 152.5,92.5 C 153.167,93.1667 153.833,93.8333 154.5,94.5C 152.5,94.5 150.5,94.5 148.5,94.5C 148.5,95.5 148.5,96.5 148.5,97.5C 148.167,97.5 147.833,97.5 147.5,97.5C 147.5,96.1667 147.5,94.8333 147.5,93.5C 149.042,92.6993 150.708,92.366 152.5,92.5 Z"/></g>
<g><path style="opacity:1" fill="#2b3b10" d="M 86.5,91.5 C 86.5,92.1667 86.1667,92.5 85.5,92.5C 84.4168,92.5394 83.4168,92.8728 82.5,93.5C 81.6922,95.4233 81.1922,97.4233 81,99.5C 80.3292,100.252 79.4959,100.586 78.5,100.5C 78.5,100.167 78.5,99.8333 78.5,99.5C 79.1667,99.5 79.5,99.1667 79.5,98.5C 80.7537,96.6431 80.7537,94.6431 79.5,92.5C 81.7427,91.5258 84.076,91.1924 86.5,91.5 Z"/></g>
<g><path style="opacity:1" fill="#2e4d1c" d="M 112.5,88.5 C 112.833,88.5 113.167,88.5 113.5,88.5C 114.105,90.9741 115.105,93.3074 116.5,95.5C 116.573,97.0269 115.906,98.0269 114.5,98.5C 114.5,97.1667 113.833,96.5 112.5,96.5C 112.5,93.8333 112.5,91.1667 112.5,88.5 Z"/></g>
<g><path style="opacity:1" fill="#758531" d="M 138.5,93.5 C 138.5,95.1667 138.5,96.8333 138.5,98.5C 137.395,97.3995 136.062,96.7329 134.5,96.5C 134.694,94.0882 136.027,93.0882 138.5,93.5 Z"/></g>
<g><path style="opacity:1" fill="#5c611b" d="M 120.5,92.5 C 121.167,92.5 121.833,92.5 122.5,92.5C 122.5,93.1667 122.5,93.8333 122.5,94.5C 122.5,95.8333 122.5,97.1667 122.5,98.5C 121.662,98.1583 121.328,97.4916 121.5,96.5C 121.672,95.5084 121.338,94.8417 120.5,94.5C 120.5,93.8333 120.5,93.1667 120.5,92.5 Z"/></g>
<g><path style="opacity:1" fill="#1c1712" d="M 126.5,90.5 C 126.5,92.1667 126.5,93.8333 126.5,95.5C 128.139,95.9258 129.472,95.9258 130.5,95.5C 131.167,95.8333 131.833,96.1667 132.5,96.5C 132.733,98.0618 133.4,99.3951 134.5,100.5C 132.429,98.8996 130.095,98.3996 127.5,99C 125.845,100.444 125.178,102.278 125.5,104.5C 125.5,105.833 125.5,107.167 125.5,108.5C 124.883,108.389 124.383,108.056 124,107.5C 123.501,103.179 123.334,98.8461 123.5,94.5C 124.143,92.9236 125.143,91.5903 126.5,90.5 Z"/></g>
<g><path style="opacity:1" fill="#436120" d="M 143.5,94.5 C 144.808,96.6381 144.475,98.6381 142.5,100.5C 141.167,100.5 139.833,100.5 138.5,100.5C 137.737,99.7321 136.737,99.2321 135.5,99C 134.748,98.3292 134.414,97.4959 134.5,96.5C 136.062,96.7329 137.395,97.3995 138.5,98.5C 141.95,99.2436 143.616,97.9103 143.5,94.5 Z"/></g>
<g><path style="opacity:1" fill="#7f91c1" d="M 154.5,94.5 C 154.5,95.8333 154.5,97.1667 154.5,98.5C 152.435,98.4828 150.435,98.1495 148.5,97.5C 148.5,96.5 148.5,95.5 148.5,94.5C 150.5,94.5 152.5,94.5 154.5,94.5 Z"/></g>
<g><path style="opacity:1" fill="#4a587e" d="M 154.5,94.5 C 157.017,96.0771 157.017,97.9104 154.5,100C 151.706,100.972 149.706,100.139 148.5,97.5C 150.435,98.1495 152.435,98.4828 154.5,98.5C 154.5,97.1667 154.5,95.8333 154.5,94.5 Z"/></g>
<g><path style="opacity:1" fill="#b2c95a" d="M 77.5,91.5 C 77.2627,92.791 77.596,93.791 78.5,94.5C 79.4345,95.5676 79.7678,96.901 79.5,98.5C 79.5,99.1667 79.1667,99.5 78.5,99.5C 75.2118,99.9844 72.5452,98.9844 70.5,96.5C 70.5,95.8333 70.5,95.1667 70.5,94.5C 70.5,93.8333 70.5,93.1667 70.5,92.5C 72.9496,92.702 75.283,92.3686 77.5,91.5 Z"/></g>
<g><path style="opacity:1" fill="#d7f064" d="M 71.5,94.5 C 75.285,92.8322 77.285,94.1655 77.5,98.5C 76.448,98.6495 75.448,98.4828 74.5,98C 74.0257,96.2714 73.0257,95.1047 71.5,94.5 Z"/></g>
<g><path style="opacity:1" fill="#070612" d="M 108.5,76.5 C 109.167,76.5 109.833,76.5 110.5,76.5C 111.239,76.369 111.906,76.5357 112.5,77C 110.506,79.662 108.506,82.3287 106.5,85C 107.348,86.6664 108.348,88.1664 109.5,89.5C 110.612,91.5994 111.279,93.9327 111.5,96.5C 110.542,96.9528 109.708,97.6195 109,98.5C 108.204,101.039 108.371,103.372 109.5,105.5C 109.5,106.167 109.833,106.5 110.5,106.5C 110.5,107.167 110.5,107.833 110.5,108.5C 110.5,109.167 110.5,109.833 110.5,110.5C 109.167,110.5 107.833,110.5 106.5,110.5C 106.5,111.5 106.5,112.5 106.5,113.5C 98.9465,113.457 98.6131,111.957 105.5,109C 106.059,108.275 106.392,107.442 106.5,106.5C 104.624,104.952 103.624,102.952 103.5,100.5C 101.897,100.688 100.563,100.188 99.5,99C 101.657,98.9219 103.657,98.7552 105.5,98.5C 106.393,95.9159 106.726,93.2492 106.5,90.5C 105.167,90.5 103.833,90.5 102.5,90.5C 102.5,87.8333 102.5,85.1667 102.5,82.5C 105.363,81.5078 107.363,79.5078 108.5,76.5 Z"/></g>
<g><path style="opacity:1" fill="#949a48" d="M 120.5,94.5 C 121.338,94.8417 121.672,95.5084 121.5,96.5C 121.167,96.5 120.833,96.5 120.5,96.5C 119.5,96.5 118.5,96.5 117.5,96.5C 117.715,98.1788 117.048,99.1788 115.5,99.5C 115.167,99.5 114.833,99.5 114.5,99.5C 114.5,99.1667 114.5,98.8333 114.5,98.5C 115.906,98.0269 116.573,97.0269 116.5,95.5C 118.099,95.7678 119.432,95.4345 120.5,94.5 Z"/></g>
<g><path style="opacity:1" fill="#738732" d="M 70.5,96.5 C 72.5452,98.9844 75.2118,99.9844 78.5,99.5C 78.5,99.8333 78.5,100.167 78.5,100.5C 75.4867,100.893 72.8201,100.226 70.5,98.5C 70.5,97.8333 70.5,97.1667 70.5,96.5 Z"/></g>
<g><path style="opacity:1" fill="#131d36" d="M 134.5,100.5 C 135.833,100.5 137.167,100.5 138.5,100.5C 138.5,101.167 138.5,101.833 138.5,102.5C 136.139,102.326 133.806,101.993 131.5,101.5C 127.932,101.759 126.599,103.759 127.5,107.5C 126.833,106.5 126.167,105.5 125.5,104.5C 125.178,102.278 125.845,100.444 127.5,99C 130.095,98.3996 132.429,98.8996 134.5,100.5 Z"/></g>
<g><path style="opacity:1" fill="#213816" d="M 132.5,96.5 C 133.167,96.5 133.833,96.5 134.5,96.5C 134.414,97.4959 134.748,98.3292 135.5,99C 136.737,99.2321 137.737,99.7321 138.5,100.5C 137.167,100.5 135.833,100.5 134.5,100.5C 133.4,99.3951 132.733,98.0618 132.5,96.5 Z"/></g>
<g><path style="opacity:1" fill="#3c2e4e" d="M 70.5,100.5 C 70.5,101.167 70.5,101.833 70.5,102.5C 67.796,101.286 65.1293,101.286 62.5,102.5C 62.5,101.5 62.5,100.5 62.5,99.5C 65.2372,99.4013 67.9039,99.7347 70.5,100.5 Z"/></g>
<g><path style="opacity:1" fill="#151c0b" d="M 85.5,92.5 C 84.0077,93.6074 83.0077,95.1074 82.5,97C 82.8333,97.8333 83.1667,98.6667 83.5,99.5C 86.2496,97.9215 88.5829,98.2549 90.5,100.5C 90.5,101.5 90.5,102.5 90.5,103.5C 89.596,102.791 89.2627,101.791 89.5,100.5C 87.5,100.5 85.5,100.5 83.5,100.5C 83.5,101.833 83.5,103.167 83.5,104.5C 81.8333,104.5 80.1667,104.5 78.5,104.5C 78.1193,103.069 77.1193,102.236 75.5,102C 76.7375,101.768 77.7375,101.268 78.5,100.5C 79.4959,100.586 80.3292,100.252 81,99.5C 81.1922,97.4233 81.6922,95.4233 82.5,93.5C 83.4168,92.8728 84.4168,92.5394 85.5,92.5 Z"/></g>
<g><path style="opacity:1" fill="#596a6c" d="M 112.5,96.5 C 113.833,96.5 114.5,97.1667 114.5,98.5C 114.5,98.8333 114.5,99.1667 114.5,99.5C 113.209,99.2627 112.209,99.596 111.5,100.5C 110.539,102.265 110.205,104.265 110.5,106.5C 109.833,106.5 109.5,106.167 109.5,105.5C 108.924,101.888 109.924,98.8875 112.5,96.5 Z"/></g>
<g><path style="opacity:1" fill="#dbc064" d="M 120.5,96.5 C 120.5,98.8333 120.5,101.167 120.5,103.5C 119.209,103.263 118.209,103.596 117.5,104.5C 116.833,104.5 116.167,104.5 115.5,104.5C 115.5,102.833 115.5,101.167 115.5,99.5C 117.048,99.1788 117.715,98.1788 117.5,96.5C 118.5,96.5 119.5,96.5 120.5,96.5 Z"/></g>
<g><path style="opacity:1" fill="#0f1725" d="M 152.5,92.5 C 154.144,92.2865 155.644,92.6198 157,93.5C 158.079,96.0627 158.579,98.7294 158.5,101.5C 154.351,102.08 150.684,101.414 147.5,99.5C 147.5,98.8333 147.5,98.1667 147.5,97.5C 147.833,97.5 148.167,97.5 148.5,97.5C 149.706,100.139 151.706,100.972 154.5,100C 157.017,97.9104 157.017,96.0771 154.5,94.5C 153.833,93.8333 153.167,93.1667 152.5,92.5 Z"/></g>
<g><path style="opacity:1" fill="#373f2b" d="M 70.5,98.5 C 72.8201,100.226 75.4867,100.893 78.5,100.5C 77.7375,101.268 76.7375,101.768 75.5,102C 77.1193,102.236 78.1193,103.069 78.5,104.5C 78.2322,106.099 78.5655,107.432 79.5,108.5C 79.5,108.833 79.5,109.167 79.5,109.5C 78.596,110.209 78.2627,111.209 78.5,112.5C 78.5,112.833 78.5,113.167 78.5,113.5C 76.7868,112.365 76.1201,110.698 76.5,108.5C 76.8432,106.517 76.1765,105.183 74.5,104.5C 73.8166,102.824 72.4832,102.157 70.5,102.5C 70.5,101.833 70.5,101.167 70.5,100.5C 70.5,99.8333 70.5,99.1667 70.5,98.5 Z"/></g>
<g><path style="opacity:1" fill="#313c24" d="M 90.5,103.5 C 91.1667,104.167 91.8333,104.833 92.5,105.5C 91.5,105.5 90.5,105.5 89.5,105.5C 89.5,107.167 89.5,108.833 89.5,110.5C 88.7281,109.306 87.7281,108.306 86.5,107.5C 86.1898,105.856 85.1898,104.856 83.5,104.5C 83.5,103.167 83.5,101.833 83.5,100.5C 85.5,100.5 87.5,100.5 89.5,100.5C 89.2627,101.791 89.596,102.791 90.5,103.5 Z"/></g>
<g><path style="opacity:1" fill="#b6bb94" d="M 111.5,100.5 C 112.209,99.596 113.209,99.2627 114.5,99.5C 114.833,99.5 115.167,99.5 115.5,99.5C 115.5,101.167 115.5,102.833 115.5,104.5C 115.167,104.5 114.833,104.5 114.5,104.5C 114.912,102.027 113.912,100.694 111.5,100.5 Z"/></g>
<g><path style="opacity:1" fill="#1e2663" d="M 131.5,101.5 C 131.833,102.167 132.167,102.833 132.5,103.5C 131.448,103.351 130.448,103.517 129.5,104C 130.582,105.33 131.249,106.83 131.5,108.5C 130.167,108.167 128.833,107.833 127.5,107.5C 126.599,103.759 127.932,101.759 131.5,101.5 Z"/></g>
<g><path style="opacity:1" fill="#203159" d="M 131.5,101.5 C 133.806,101.993 136.139,102.326 138.5,102.5C 138.5,103.167 138.5,103.833 138.5,104.5C 138.5,105.5 138.5,106.5 138.5,107.5C 138.167,107.5 137.833,107.5 137.5,107.5C 137.616,104.09 135.95,102.756 132.5,103.5C 132.167,102.833 131.833,102.167 131.5,101.5 Z"/></g>
<g><path style="opacity:1" fill="#d3d3d3" d="M 201.5,77.5 C 202.935,78.7898 203.935,80.4565 204.5,82.5C 207.467,93.8178 208.134,105.151 206.5,116.5C 206.666,109.825 206.5,103.158 206,96.5C 205.722,95.5842 205.222,94.9175 204.5,94.5C 204.5,92.8333 204.5,91.1667 204.5,89.5C 204.741,87.1016 204.074,85.1016 202.5,83.5C 202.483,81.4352 202.15,79.4352 201.5,77.5 Z"/></g>
<g><path style="opacity:1" fill="#83699a" d="M 70.5,102.5 C 70.5,103.167 70.5,103.833 70.5,104.5C 67.8333,104.5 65.1667,104.5 62.5,104.5C 62.5,103.833 62.5,103.167 62.5,102.5C 65.1293,101.286 67.796,101.286 70.5,102.5 Z"/></g>
<g><path style="opacity:1" fill="#989fb6" d="M 70.5,102.5 C 72.4832,102.157 73.8166,102.824 74.5,104.5C 73.1667,104.5 71.8333,104.5 70.5,104.5C 70.5,103.833 70.5,103.167 70.5,102.5 Z"/></g>
<g><path style="opacity:1" fill="#293444" d="M 111.5,96.5 C 111.833,96.5 112.167,96.5 112.5,96.5C 109.924,98.8875 108.924,101.888 109.5,105.5C 108.371,103.372 108.204,101.039 109,98.5C 109.708,97.6195 110.542,96.9528 111.5,96.5 Z"/></g>
<g><path style="opacity:1" fill="#c4d6d1" d="M 111.5,100.5 C 113.912,100.694 114.912,102.027 114.5,104.5C 114.5,104.833 114.5,105.167 114.5,105.5C 113.5,105.5 112.5,105.5 111.5,105.5C 111.5,103.833 111.5,102.167 111.5,100.5 Z"/></g>
<g><path style="opacity:1" fill="#b59343" d="M 120.5,96.5 C 120.833,96.5 121.167,96.5 121.5,96.5C 121.328,97.4916 121.662,98.1583 122.5,98.5C 122.795,100.735 122.461,102.735 121.5,104.5C 120.167,104.5 118.833,104.5 117.5,104.5C 118.209,103.596 119.209,103.263 120.5,103.5C 120.5,101.167 120.5,98.8333 120.5,96.5 Z"/></g>
<g><path style="opacity:1" fill="#10160f" d="M 146.5,92.5 C 147.167,92.5 147.5,92.8333 147.5,93.5C 147.5,94.8333 147.5,96.1667 147.5,97.5C 147.5,98.1667 147.5,98.8333 147.5,99.5C 146.636,100.688 145.636,101.855 144.5,103C 145.5,103.333 146.5,103.667 147.5,104C 147.167,104.333 146.833,104.667 146.5,105C 147.473,107.635 149.14,109.635 151.5,111C 150.944,111.383 150.611,111.883 150.5,112.5C 149.761,112.631 149.094,112.464 148.5,112C 146.962,110.068 145.795,107.901 145,105.5C 144.329,104.748 143.496,104.414 142.5,104.5C 141.167,104.5 139.833,104.5 138.5,104.5C 138.5,103.833 138.5,103.167 138.5,102.5C 138.5,101.833 138.5,101.167 138.5,100.5C 139.833,100.5 141.167,100.5 142.5,100.5C 144.017,100.489 145.184,99.8228 146,98.5C 146.495,96.5273 146.662,94.5273 146.5,92.5 Z"/></g>
<g><path style="opacity:1" fill="#b2b2b2" d="M 17.5,95.5 C 17.8333,95.5 18.1667,95.5 18.5,95.5C 18.5,102.167 18.5,108.833 18.5,115.5C 18.1667,115.5 17.8333,115.5 17.5,115.5C 16.2094,108.82 16.2094,102.154 17.5,95.5 Z"/></g>
<g><path style="opacity:1" fill="#868686" d="M 204.5,94.5 C 205.222,94.9175 205.722,95.5842 206,96.5C 206.5,103.158 206.666,109.825 206.5,116.5C 205.766,117.708 205.433,119.041 205.5,120.5C 205.167,120.5 204.833,120.5 204.5,120.5C 205.645,111.82 205.645,103.153 204.5,94.5 Z"/></g>
<g><path style="opacity:1" fill="#3e4d21" d="M 92.5,105.5 C 92.8333,105.5 93.1667,105.5 93.5,105.5C 93.5,105.833 93.5,106.167 93.5,106.5C 92.5,106.5 91.5,106.5 90.5,106.5C 90.5,108.167 90.5,109.833 90.5,111.5C 91.8333,111.5 93.1667,111.5 94.5,111.5C 93.4324,112.434 92.099,112.768 90.5,112.5C 90.1667,112.5 89.8333,112.5 89.5,112.5C 89.5,111.833 89.5,111.167 89.5,110.5C 89.5,108.833 89.5,107.167 89.5,105.5C 90.5,105.5 91.5,105.5 92.5,105.5 Z"/></g>
<g><path style="opacity:1" fill="#94a2b0" d="M 111.5,100.5 C 111.5,102.167 111.5,103.833 111.5,105.5C 112.5,105.5 113.5,105.5 114.5,105.5C 114.5,105.833 114.5,106.167 114.5,106.5C 113.167,106.5 111.833,106.5 110.5,106.5C 110.205,104.265 110.539,102.265 111.5,100.5 Z"/></g>
<g><path style="opacity:1" fill="#695f45" d="M 114.5,104.5 C 114.833,104.5 115.167,104.5 115.5,104.5C 116.167,104.5 116.833,104.5 117.5,104.5C 118.833,104.5 120.167,104.5 121.5,104.5C 121.389,105.117 121.056,105.617 120.5,106C 118.527,106.495 116.527,106.662 114.5,106.5C 114.5,106.167 114.5,105.833 114.5,105.5C 114.5,105.167 114.5,104.833 114.5,104.5 Z"/></g>
<g><path style="opacity:1" fill="#7c9c79" d="M 62.5,105.5 C 65.0821,105.025 67.0821,105.692 68.5,107.5C 68.5,107.833 68.5,108.167 68.5,108.5C 66.5,108.5 64.5,108.5 62.5,108.5C 62.1667,108.5 61.8333,108.5 61.5,108.5C 61.5,108.167 61.5,107.833 61.5,107.5C 62.3382,107.158 62.6716,106.492 62.5,105.5 Z"/></g>
<g><path style="opacity:1" fill="#c5d1c9" d="M 62.5,105.5 C 62.5,105.167 62.5,104.833 62.5,104.5C 65.1667,104.5 67.8333,104.5 70.5,104.5C 71.8333,104.5 73.1667,104.5 74.5,104.5C 76.1765,105.183 76.8432,106.517 76.5,108.5C 76.1667,108.5 75.8333,108.5 75.5,108.5C 73.3926,107.532 71.0593,107.198 68.5,107.5C 67.0821,105.692 65.0821,105.025 62.5,105.5 Z"/></g>
<g><path style="opacity:1" fill="#1e0f13" d="M 78.5,104.5 C 80.1667,104.5 81.8333,104.5 83.5,104.5C 85.1898,104.856 86.1898,105.856 86.5,107.5C 84.3926,108.468 82.0593,108.802 79.5,108.5C 78.5655,107.432 78.2322,106.099 78.5,104.5 Z"/></g>
<g><path style="opacity:1" fill="#5d7745" d="M 93.5,106.5 C 95.5969,107.879 95.9302,109.545 94.5,111.5C 93.1667,111.5 91.8333,111.5 90.5,111.5C 90.5,109.833 90.5,108.167 90.5,106.5C 91.5,106.5 92.5,106.5 93.5,106.5 Z"/></g>
<g><path style="opacity:1" fill="#341d10" d="M 122.5,94.5 C 122.833,94.5 123.167,94.5 123.5,94.5C 123.334,98.8461 123.501,103.179 124,107.5C 124.383,108.056 124.883,108.389 125.5,108.5C 125.557,109.609 125.89,110.609 126.5,111.5C 126.5,113.167 126.5,114.833 126.5,116.5C 124.193,115.347 121.86,114.18 119.5,113C 121.527,111.604 121.86,109.938 120.5,108C 118.527,107.505 116.527,107.338 114.5,107.5C 114.5,107.167 114.5,106.833 114.5,106.5C 116.527,106.662 118.527,106.495 120.5,106C 121.056,105.617 121.389,105.117 121.5,104.5C 122.461,102.735 122.795,100.735 122.5,98.5C 122.5,97.1667 122.5,95.8333 122.5,94.5 Z"/></g>
<g><path style="opacity:1" fill="#304586" d="M 132.5,103.5 C 135.95,102.756 137.616,104.09 137.5,107.5C 137.5,107.833 137.5,108.167 137.5,108.5C 135.5,108.5 133.5,108.5 131.5,108.5C 131.249,106.83 130.582,105.33 129.5,104C 130.448,103.517 131.448,103.351 132.5,103.5 Z"/></g>
<g><path style="opacity:1" fill="#2c4019" d="M 138.5,104.5 C 139.833,104.5 141.167,104.5 142.5,104.5C 143.742,106.611 143.742,108.611 142.5,110.5C 142.161,105.384 140.828,104.717 138.5,108.5C 138.5,108.167 138.5,107.833 138.5,107.5C 138.5,106.5 138.5,105.5 138.5,104.5 Z"/></g>
<g><path style="opacity:1" fill="#363a46" d="M 110.5,106.5 C 111.833,106.5 113.167,106.5 114.5,106.5C 114.5,106.833 114.5,107.167 114.5,107.5C 113.432,108.434 112.099,108.768 110.5,108.5C 110.5,107.833 110.5,107.167 110.5,106.5 Z"/></g>
<g><path style="opacity:1" fill="#441910" d="M 86.5,107.5 C 87.7281,108.306 88.7281,109.306 89.5,110.5C 89.5,111.167 89.5,111.833 89.5,112.5C 89.1667,112.5 88.8333,112.5 88.5,112.5C 85.4435,111.367 82.4435,110.367 79.5,109.5C 79.5,109.167 79.5,108.833 79.5,108.5C 82.0593,108.802 84.3926,108.468 86.5,107.5 Z"/></g>
<g><path style="opacity:1" fill="#465520" d="M 142.5,110.5 C 142.5,110.833 142.5,111.167 142.5,111.5C 141.041,111.567 139.708,111.234 138.5,110.5C 138.5,109.833 138.5,109.167 138.5,108.5C 140.828,104.717 142.161,105.384 142.5,110.5 Z"/></g>
<g><path style="opacity:1" fill="#6dc45c" d="M 62.5,108.5 C 64.5,108.5 66.5,108.5 68.5,108.5C 69.4916,108.328 70.1583,108.662 70.5,109.5C 70.5,110.5 70.5,111.5 70.5,112.5C 68.1432,112.663 65.8098,112.497 63.5,112C 62.6634,110.989 62.33,109.822 62.5,108.5 Z"/></g>
<g><path style="opacity:1" fill="#79874e" d="M 75.5,108.5 C 75.8333,108.5 76.1667,108.5 76.5,108.5C 76.1201,110.698 76.7868,112.365 78.5,113.5C 79.1667,113.5 79.5,113.833 79.5,114.5C 78.1667,114.5 76.8333,114.5 75.5,114.5C 75.5,112.5 75.5,110.5 75.5,108.5 Z"/></g>
<g><path style="opacity:1" fill="#290c10" d="M 125.5,104.5 C 126.167,105.5 126.833,106.5 127.5,107.5C 128.692,109.922 130.692,110.922 133.5,110.5C 135.333,110.415 136.666,109.748 137.5,108.5C 137.5,108.167 137.5,107.833 137.5,107.5C 137.833,107.5 138.167,107.5 138.5,107.5C 138.5,107.833 138.5,108.167 138.5,108.5C 138.5,109.167 138.5,109.833 138.5,110.5C 138.5,111.5 138.5,112.5 138.5,113.5C 134.394,113.26 130.394,112.593 126.5,111.5C 125.89,110.609 125.557,109.609 125.5,108.5C 125.5,107.167 125.5,105.833 125.5,104.5 Z"/></g>
<g><path style="opacity:1" fill="#1c162f" d="M 127.5,107.5 C 128.833,107.833 130.167,108.167 131.5,108.5C 133.5,108.5 135.5,108.5 137.5,108.5C 136.666,109.748 135.333,110.415 133.5,110.5C 130.692,110.922 128.692,109.922 127.5,107.5 Z"/></g>
<g><path style="opacity:1" fill="#071202" d="M 155.5,125.5 C 154.833,125.5 154.5,125.167 154.5,124.5C 155.496,124.586 156.329,124.252 157,123.5C 157.78,121.613 157.613,119.946 156.5,118.5C 156.672,117.508 156.338,116.842 155.5,116.5C 155.167,116.5 154.833,116.5 154.5,116.5C 154.5,116.167 154.5,115.833 154.5,115.5C 153.713,113.896 152.38,113.229 150.5,113.5C 150.5,113.167 150.5,112.833 150.5,112.5C 153.119,112.768 155.619,112.435 158,111.5C 159.842,115.852 159.842,120.185 158,124.5C 157.329,125.252 156.496,125.586 155.5,125.5 Z"/></g>
<g><path style="opacity:1" fill="#468533" d="M 61.5,108.5 C 61.8333,108.5 62.1667,108.5 62.5,108.5C 62.33,109.822 62.6634,110.989 63.5,112C 65.8098,112.497 68.1432,112.663 70.5,112.5C 70.5,113.5 70.5,114.5 70.5,115.5C 68.8583,113.919 66.8583,113.253 64.5,113.5C 61.1789,112.902 60.1789,111.235 61.5,108.5 Z"/></g>
<g><path style="opacity:1" fill="#aee67f" d="M 70.5,109.5 C 71.8333,109.5 73.1667,109.5 74.5,109.5C 74.5,111.167 74.5,112.833 74.5,114.5C 73.0413,114.433 71.7079,114.766 70.5,115.5C 70.5,114.5 70.5,113.5 70.5,112.5C 70.5,111.5 70.5,110.5 70.5,109.5 Z"/></g>
<g><path style="opacity:1" fill="#2f5c1e" d="M 64.5,113.5 C 66.8583,113.253 68.8583,113.919 70.5,115.5C 70.5,115.833 70.5,116.167 70.5,116.5C 68.4561,115.492 66.4561,114.492 64.5,113.5 Z"/></g>
<g><path style="opacity:1" fill="#823525" d="M 79.5,109.5 C 82.4435,110.367 85.4435,111.367 88.5,112.5C 88.5,113.5 88.5,114.5 88.5,115.5C 86.5,115.5 84.5,115.5 82.5,115.5C 81.7377,113.738 80.4044,112.738 78.5,112.5C 78.2627,111.209 78.596,110.209 79.5,109.5 Z"/></g>
<g><path style="opacity:1" fill="#7b4d3e" d="M 88.5,112.5 C 88.8333,112.5 89.1667,112.5 89.5,112.5C 89.8333,112.5 90.1667,112.5 90.5,112.5C 90.4326,113.959 90.7659,115.292 91.5,116.5C 91.1667,116.5 90.8333,116.5 90.5,116.5C 88.2188,116.077 86.5521,116.744 85.5,118.5C 84.5,118.5 83.5,118.5 82.5,118.5C 82.5,117.833 82.5,117.167 82.5,116.5C 82.5,116.167 82.5,115.833 82.5,115.5C 84.5,115.5 86.5,115.5 88.5,115.5C 88.5,114.5 88.5,113.5 88.5,112.5 Z"/></g>
<g><path style="opacity:1" fill="#313315" d="M 93.5,106.5 C 93.5,106.167 93.5,105.833 93.5,105.5C 95.8184,105.818 97.1517,107.152 97.5,109.5C 96.7552,111.747 95.4219,113.581 93.5,115C 93.5699,115.765 93.9033,116.265 94.5,116.5C 94.5,116.833 94.5,117.167 94.5,117.5C 93.391,117.443 92.391,117.11 91.5,116.5C 90.7659,115.292 90.4326,113.959 90.5,112.5C 92.099,112.768 93.4324,112.434 94.5,111.5C 95.9302,109.545 95.5969,107.879 93.5,106.5 Z"/></g>
<g><path style="opacity:1" fill="#15340f" d="M 61.5,107.5 C 61.5,107.833 61.5,108.167 61.5,108.5C 60.1789,111.235 61.1789,112.902 64.5,113.5C 66.4561,114.492 68.4561,115.492 70.5,116.5C 70.5,116.833 70.5,117.167 70.5,117.5C 70.5,117.833 70.5,118.167 70.5,118.5C 67.5068,116.753 64.3401,115.42 61,114.5C 58.9593,111.735 59.1259,109.401 61.5,107.5 Z"/></g>
<g><path style="opacity:1" fill="#b7d998" d="M 68.5,108.5 C 68.5,108.167 68.5,107.833 68.5,107.5C 71.0593,107.198 73.3926,107.532 75.5,108.5C 75.5,110.5 75.5,112.5 75.5,114.5C 76.8333,114.5 78.1667,114.5 79.5,114.5C 80.3382,114.842 80.6716,115.508 80.5,116.5C 80.1667,117.5 79.5,118.167 78.5,118.5C 78.5,117.5 78.5,116.5 78.5,115.5C 75.7628,115.401 73.0961,115.735 70.5,116.5C 70.5,116.167 70.5,115.833 70.5,115.5C 71.7079,114.766 73.0413,114.433 74.5,114.5C 74.5,112.833 74.5,111.167 74.5,109.5C 73.1667,109.5 71.8333,109.5 70.5,109.5C 70.1583,108.662 69.4916,108.328 68.5,108.5 Z"/></g>
<g><path style="opacity:1" fill="#43140f" d="M 126.5,111.5 C 130.394,112.593 134.394,113.26 138.5,113.5C 140.277,116.23 141.611,119.23 142.5,122.5C 140.801,122.473 139.467,121.806 138.5,120.5C 138.167,119.5 137.5,118.833 136.5,118.5C 135.969,115.221 133.969,113.887 130.5,114.5C 130.848,118.258 131.515,121.924 132.5,125.5C 131.833,125.5 131.167,125.5 130.5,125.5C 129.488,122.177 128.155,119.177 126.5,116.5C 126.5,114.833 126.5,113.167 126.5,111.5 Z"/></g>
<g><path style="opacity:1" fill="#224216" d="M 150.5,113.5 C 152.38,113.229 153.713,113.896 154.5,115.5C 152.143,115.337 149.81,115.503 147.5,116C 146.272,117.49 146.272,118.99 147.5,120.5C 146.504,120.586 145.671,120.252 145,119.5C 143.84,114.848 145.673,112.848 150.5,113.5 Z"/></g>
<g><path style="opacity:1" fill="#b9e8c4" d="M 78.5,118.5 C 78.5,118.833 78.5,119.167 78.5,119.5C 75.5491,119.713 72.8825,119.046 70.5,117.5C 70.5,117.167 70.5,116.833 70.5,116.5C 73.0961,115.735 75.7628,115.401 78.5,115.5C 78.5,116.5 78.5,117.5 78.5,118.5 Z"/></g>
<g><path style="opacity:1" fill="#a17848" d="M 78.5,113.5 C 78.5,113.167 78.5,112.833 78.5,112.5C 80.4044,112.738 81.7377,113.738 82.5,115.5C 82.5,115.833 82.5,116.167 82.5,116.5C 81.8333,116.5 81.1667,116.5 80.5,116.5C 80.6716,115.508 80.3382,114.842 79.5,114.5C 79.5,113.833 79.1667,113.5 78.5,113.5 Z"/></g>
<g><path style="opacity:1" fill="#742d2a" d="M 136.5,118.5 C 133.357,120.403 132.69,123.07 134.5,126.5C 133.508,126.672 132.842,126.338 132.5,125.5C 131.515,121.924 130.848,118.258 130.5,114.5C 133.969,113.887 135.969,115.221 136.5,118.5 Z"/></g>
<g><path style="opacity:1" fill="#37230c" d="M 138.5,110.5 C 139.708,111.234 141.041,111.567 142.5,111.5C 142.691,115.262 143.358,118.929 144.5,122.5C 143.833,122.5 143.167,122.5 142.5,122.5C 141.611,119.23 140.277,116.23 138.5,113.5C 138.5,112.5 138.5,111.5 138.5,110.5 Z"/></g>
<g><path style="opacity:1" fill="#9e8989" d="M 90.5,116.5 C 90.5,116.833 90.5,117.167 90.5,117.5C 88.0274,117.088 86.6941,118.088 86.5,120.5C 86.1667,120.5 85.8333,120.5 85.5,120.5C 85.5,119.833 85.5,119.167 85.5,118.5C 86.5521,116.744 88.2188,116.077 90.5,116.5 Z"/></g>
<g><path style="opacity:1" fill="#82855a" d="M 80.5,116.5 C 81.1667,116.5 81.8333,116.5 82.5,116.5C 82.5,117.167 82.5,117.833 82.5,118.5C 80.9382,118.733 79.6049,119.4 78.5,120.5C 78.5,120.167 78.5,119.833 78.5,119.5C 78.5,119.167 78.5,118.833 78.5,118.5C 79.5,118.167 80.1667,117.5 80.5,116.5 Z"/></g>
<g><path style="opacity:1" fill="#325d1c" d="M 154.5,115.5 C 154.5,115.833 154.5,116.167 154.5,116.5C 152.5,116.5 150.5,116.5 148.5,116.5C 148.263,117.791 148.596,118.791 149.5,119.5C 150.591,122.192 152.257,122.858 154.5,121.5C 155.451,120.081 155.784,118.415 155.5,116.5C 156.338,116.842 156.672,117.508 156.5,118.5C 157.245,121.93 155.911,123.597 152.5,123.5C 150.307,123.229 148.641,122.229 147.5,120.5C 146.272,118.99 146.272,117.49 147.5,116C 149.81,115.503 152.143,115.337 154.5,115.5 Z"/></g>
<g><path style="opacity:1" fill="#387423" d="M 154.5,116.5 C 154.833,116.5 155.167,116.5 155.5,116.5C 155.784,118.415 155.451,120.081 154.5,121.5C 154.915,119.052 153.915,117.719 151.5,117.5C 150.287,117.747 149.62,118.414 149.5,119.5C 148.596,118.791 148.263,117.791 148.5,116.5C 150.5,116.5 152.5,116.5 154.5,116.5 Z"/></g>
<g><path style="opacity:1" fill="#113010" d="M 94.5,117.5 C 99.3217,118.477 100.655,121.144 98.5,125.5C 98.9227,123.219 98.256,121.552 96.5,120.5C 96.1667,120.5 95.8333,120.5 95.5,120.5C 94.8902,119.609 94.5569,118.609 94.5,117.5 Z"/></g>
<g><path style="opacity:1" fill="#190e09" d="M 114.5,107.5 C 116.527,107.338 118.527,107.505 120.5,108C 121.86,109.938 121.527,111.604 119.5,113C 121.86,114.18 124.193,115.347 126.5,116.5C 128.155,119.177 129.488,122.177 130.5,125.5C 127.68,125.087 125.68,126.087 124.5,128.5C 123.833,128.167 123.167,127.833 122.5,127.5C 120.019,127.677 118.186,126.677 117,124.5C 116.493,123.004 116.993,121.837 118.5,121C 116.382,117.053 113.715,113.553 110.5,110.5C 110.5,109.833 110.5,109.167 110.5,108.5C 112.099,108.768 113.432,108.434 114.5,107.5 Z"/></g>
<g><path style="opacity:1" fill="#7a9e9c" d="M 70.5,118.5 C 70.5,118.167 70.5,117.833 70.5,117.5C 72.8825,119.046 75.5491,119.713 78.5,119.5C 78.5,119.833 78.5,120.167 78.5,120.5C 75.4867,120.893 72.8201,120.226 70.5,118.5 Z"/></g>
<g><path style="opacity:1" fill="#639069" d="M 90.5,116.5 C 90.8333,116.5 91.1667,116.5 91.5,116.5C 92.391,117.11 93.391,117.443 94.5,117.5C 94.5569,118.609 94.8902,119.609 95.5,120.5C 94.1667,119.833 92.8333,119.167 91.5,118.5C 90.8333,118.5 90.5,118.167 90.5,117.5C 90.5,117.167 90.5,116.833 90.5,116.5 Z"/></g>
<g><path style="opacity:1" fill="#2b3421" d="M 82.5,118.5 C 83.5,118.5 84.5,118.5 85.5,118.5C 85.5,119.167 85.5,119.833 85.5,120.5C 85.1667,120.5 84.8333,120.5 84.5,120.5C 82.6208,121.341 80.6208,121.675 78.5,121.5C 78.5,121.167 78.5,120.833 78.5,120.5C 79.6049,119.4 80.9382,118.733 82.5,118.5 Z"/></g>
<g><path style="opacity:1" fill="#b2dad9" d="M 90.5,117.5 C 90.5,118.167 90.8333,118.5 91.5,118.5C 91.7678,120.099 91.4345,121.432 90.5,122.5C 89.1667,122.167 87.8333,121.833 86.5,121.5C 86.5,121.167 86.5,120.833 86.5,120.5C 86.6941,118.088 88.0274,117.088 90.5,117.5 Z"/></g>
<g><path style="opacity:1" fill="#80c696" d="M 91.5,118.5 C 92.8333,119.167 94.1667,119.833 95.5,120.5C 95.5,121.5 95.5,122.5 95.5,123.5C 93.8333,123.5 92.1667,123.5 90.5,123.5C 90.5,123.167 90.5,122.833 90.5,122.5C 91.4345,121.432 91.7678,120.099 91.5,118.5 Z"/></g>
<g><path style="opacity:1" fill="#549336" d="M 154.5,121.5 C 152.257,122.858 150.591,122.192 149.5,119.5C 149.62,118.414 150.287,117.747 151.5,117.5C 153.915,117.719 154.915,119.052 154.5,121.5 Z"/></g>
<g><path style="opacity:1" fill="#1e323c" d="M 70.5,118.5 C 72.8201,120.226 75.4867,120.893 78.5,120.5C 78.5,120.833 78.5,121.167 78.5,121.5C 78.631,122.239 78.4643,122.906 78,123.5C 76.6667,122.167 75.3333,122.167 74,123.5C 72.1978,122.211 71.0312,120.544 70.5,118.5 Z"/></g>
<g><path style="opacity:1" fill="#131a09" d="M 94.5,117.5 C 94.5,117.167 94.5,116.833 94.5,116.5C 97.7525,117.247 101.086,117.247 104.5,116.5C 104.365,119.417 105.032,122.084 106.5,124.5C 104.833,124.5 103.167,124.5 101.5,124.5C 101.5,125.5 101.5,126.5 101.5,127.5C 100.609,126.89 99.609,126.557 98.5,126.5C 98.5,126.167 98.5,125.833 98.5,125.5C 100.655,121.144 99.3217,118.477 94.5,117.5 Z"/></g>
<g><path style="opacity:1" fill="#a63b20" d="M 136.5,118.5 C 137.5,118.833 138.167,119.5 138.5,120.5C 138.5,122.5 138.5,124.5 138.5,126.5C 137.167,126.5 135.833,126.5 134.5,126.5C 132.69,123.07 133.357,120.403 136.5,118.5 Z"/></g>
<g><path style="opacity:1" fill="#54808f" d="M 86.5,121.5 C 87.8333,121.833 89.1667,122.167 90.5,122.5C 90.5,122.833 90.5,123.167 90.5,123.5C 88.5168,123.843 87.1834,123.176 86.5,121.5 Z"/></g>
<g><path style="opacity:1" fill="#262c0b" d="M 142.5,104.5 C 143.496,104.414 144.329,104.748 145,105.5C 145.795,107.901 146.962,110.068 148.5,112C 149.094,112.464 149.761,112.631 150.5,112.5C 150.5,112.833 150.5,113.167 150.5,113.5C 145.673,112.848 143.84,114.848 145,119.5C 145.671,120.252 146.504,120.586 147.5,120.5C 148.641,122.229 150.307,123.229 152.5,123.5C 155.911,123.597 157.245,121.93 156.5,118.5C 157.613,119.946 157.78,121.613 157,123.5C 156.329,124.252 155.496,124.586 154.5,124.5C 153.833,124.5 153.167,124.5 152.5,124.5C 150.5,124.5 148.5,124.5 146.5,124.5C 146.5,123.167 145.833,122.5 144.5,122.5C 143.358,118.929 142.691,115.262 142.5,111.5C 142.5,111.167 142.5,110.833 142.5,110.5C 143.742,108.611 143.742,106.611 142.5,104.5 Z"/></g>
<g><path style="opacity:1" fill="#cfcfcf" d="M 17.5,115.5 C 17.8333,115.5 18.1667,115.5 18.5,115.5C 18.5,117.167 18.5,118.833 18.5,120.5C 18.2594,122.898 18.9261,124.898 20.5,126.5C 20.5,127.833 20.5,129.167 20.5,130.5C 19.4415,129.4 18.6082,128.066 18,126.5C 17.5014,122.848 17.3347,119.182 17.5,115.5 Z"/></g>
<g><path style="opacity:1" fill="#3d3d3d" d="M 19.5,120.5 C 20.1174,120.611 20.6174,120.944 21,121.5C 21.3195,125.214 21.8195,128.881 22.5,132.5C 21.8333,132.167 21.1667,131.833 20.5,131.5C 20.5,131.167 20.5,130.833 20.5,130.5C 20.5,129.167 20.5,127.833 20.5,126.5C 20.4828,124.435 20.1495,122.435 19.5,120.5 Z"/></g>
<g><path style="opacity:1" fill="#1f3646" d="M 84.5,120.5 C 84.8333,120.5 85.1667,120.5 85.5,120.5C 85.8333,120.5 86.1667,120.5 86.5,120.5C 86.5,120.833 86.5,121.167 86.5,121.5C 87.1834,123.176 88.5168,123.843 90.5,123.5C 90.5,123.833 90.5,124.167 90.5,124.5C 90.5,124.833 90.5,125.167 90.5,125.5C 88.5,125.167 86.5,124.833 84.5,124.5C 84.5,123.167 84.5,121.833 84.5,120.5 Z"/></g>
<g><path style="opacity:1" fill="#599460" d="M 95.5,120.5 C 95.8333,120.5 96.1667,120.5 96.5,120.5C 96.5,121.833 96.5,123.167 96.5,124.5C 95.1667,124.5 93.8333,124.5 92.5,124.5C 91.8333,124.5 91.1667,124.5 90.5,124.5C 90.5,124.167 90.5,123.833 90.5,123.5C 92.1667,123.5 93.8333,123.5 95.5,123.5C 95.5,122.5 95.5,121.5 95.5,120.5 Z"/></g>
<g><path style="opacity:1" fill="#2a5222" d="M 96.5,120.5 C 98.256,121.552 98.9227,123.219 98.5,125.5C 96.2646,125.795 94.2646,125.461 92.5,124.5C 93.8333,124.5 95.1667,124.5 96.5,124.5C 96.5,123.167 96.5,121.833 96.5,120.5 Z"/></g>
<g><path style="opacity:1" fill="#2d2d2d" d="M 203.5,89.5 C 203.833,89.5 204.167,89.5 204.5,89.5C 204.5,91.1667 204.5,92.8333 204.5,94.5C 205.645,103.153 205.645,111.82 204.5,120.5C 204.5,121.5 204.5,122.5 204.5,123.5C 202.926,125.102 202.259,127.102 202.5,129.5C 202.5,130.5 202.5,131.5 202.5,132.5C 200.824,133.183 200.157,134.517 200.5,136.5C 200.5,136.833 200.5,137.167 200.5,137.5C 200.167,137.5 199.833,137.5 199.5,137.5C 201.986,127.156 203.653,116.656 204.5,106C 203.835,100.518 203.502,95.0176 203.5,89.5 Z"/></g>
<g><path style="opacity:1" fill="#673b12" d="M 146.5,125.5 C 146.5,125.167 146.5,124.833 146.5,124.5C 148.5,124.5 150.5,124.5 152.5,124.5C 152.833,125.167 153.167,125.833 153.5,126.5C 152.833,126.5 152.167,126.5 151.5,126.5C 150.081,125.549 148.415,125.216 146.5,125.5 Z"/></g>
<g><path style="opacity:1" fill="#cccccc" d="M 204.5,120.5 C 204.833,120.5 205.167,120.5 205.5,120.5C 205.664,123.187 205.497,125.854 205,128.5C 204.617,129.056 204.117,129.389 203.5,129.5C 204.15,127.565 204.483,125.565 204.5,123.5C 204.5,122.5 204.5,121.5 204.5,120.5 Z"/></g>
<g><path style="opacity:1" fill="#838383" d="M 18.5,120.5 C 18.8333,120.5 19.1667,120.5 19.5,120.5C 20.1495,122.435 20.4828,124.435 20.5,126.5C 18.9261,124.898 18.2594,122.898 18.5,120.5 Z"/></g>
<g><path style="opacity:1" fill="#192f14" d="M 90.5,125.5 C 90.5,125.167 90.5,124.833 90.5,124.5C 91.1667,124.5 91.8333,124.5 92.5,124.5C 94.2646,125.461 96.2646,125.795 98.5,125.5C 98.5,125.833 98.5,126.167 98.5,126.5C 95.5891,127.983 92.9225,127.65 90.5,125.5 Z"/></g>
<g><path style="opacity:1" fill="#81461f" d="M 138.5,120.5 C 139.467,121.806 140.801,122.473 142.5,122.5C 143.167,122.5 143.833,122.5 144.5,122.5C 145.833,122.5 146.5,123.167 146.5,124.5C 144.5,124.5 142.5,124.5 140.5,124.5C 140.229,126.38 140.896,127.713 142.5,128.5C 143.6,129.605 144.267,130.938 144.5,132.5C 143.833,132.167 143.167,131.833 142.5,131.5C 141.167,129.833 139.833,128.167 138.5,126.5C 138.5,124.5 138.5,122.5 138.5,120.5 Z"/></g>
<g><path style="opacity:1" fill="#838383" d="M 204.5,123.5 C 204.483,125.565 204.15,127.565 203.5,129.5C 203.167,129.5 202.833,129.5 202.5,129.5C 202.259,127.102 202.926,125.102 204.5,123.5 Z"/></g>
<g><path style="opacity:1" fill="#3c4258" d="M 130.5,125.5 C 130.833,126.167 131.167,126.833 131.5,127.5C 129.833,127.5 128.167,127.5 126.5,127.5C 126.5,128.5 126.5,129.5 126.5,130.5C 125.167,130.5 124.5,129.833 124.5,128.5C 125.68,126.087 127.68,125.087 130.5,125.5 Z"/></g>
<g><path style="opacity:1" fill="#b07537" d="M 146.5,124.5 C 146.5,124.833 146.5,125.167 146.5,125.5C 146.5,126.5 146.5,127.5 146.5,128.5C 145.167,128.5 143.833,128.5 142.5,128.5C 140.896,127.713 140.229,126.38 140.5,124.5C 142.5,124.5 144.5,124.5 146.5,124.5 Z"/></g>
<g><path style="opacity:1" fill="#6e7198" d="M 131.5,127.5 C 131.804,128.15 132.137,128.817 132.5,129.5C 134.291,130.17 135.958,130.837 137.5,131.5C 137.5,132.833 137.5,134.167 137.5,135.5C 134.739,134.08 131.739,133.413 128.5,133.5C 127.449,132.778 126.782,131.778 126.5,130.5C 126.5,129.5 126.5,128.5 126.5,127.5C 128.167,127.5 129.833,127.5 131.5,127.5 Z"/></g>
<g><path style="opacity:1" fill="#a34525" d="M 146.5,125.5 C 148.415,125.216 150.081,125.549 151.5,126.5C 150.647,129.59 149.647,132.59 148.5,135.5C 147.833,135.5 147.167,135.5 146.5,135.5C 145.094,135.027 144.427,134.027 144.5,132.5C 144.267,130.938 143.6,129.605 142.5,128.5C 143.833,128.5 145.167,128.5 146.5,128.5C 146.5,127.5 146.5,126.5 146.5,125.5 Z"/></g>
<g><path style="opacity:1" fill="#1d2f15" d="M 106.5,124.5 C 106.5,124.833 106.5,125.167 106.5,125.5C 107.833,125.5 109.167,125.5 110.5,125.5C 111.725,132.118 109.392,133.951 103.5,131C 102.695,129.887 102.028,128.721 101.5,127.5C 101.5,126.5 101.5,125.5 101.5,124.5C 103.167,124.5 104.833,124.5 106.5,124.5 Z"/></g>
<g><path style="opacity:1" fill="#536846" d="M 106.5,125.5 C 107.968,126.779 108.635,128.446 108.5,130.5C 104.5,131.167 102.833,129.5 103.5,125.5C 104.5,125.5 105.5,125.5 106.5,125.5 Z"/></g>
<g><path style="opacity:1" fill="#502f40" d="M 130.5,125.5 C 131.167,125.5 131.833,125.5 132.5,125.5C 132.842,126.338 133.508,126.672 134.5,126.5C 136.327,127.932 137.994,129.599 139.5,131.5C 140.325,132.386 141.325,132.719 142.5,132.5C 142.5,133.5 142.5,134.5 142.5,135.5C 141.041,135.567 139.708,135.234 138.5,134.5C 138.737,133.209 138.404,132.209 137.5,131.5C 135.958,130.837 134.291,130.17 132.5,129.5C 132.137,128.817 131.804,128.15 131.5,127.5C 131.167,126.833 130.833,126.167 130.5,125.5 Z"/></g>
<g><path style="opacity:1" fill="#622919" d="M 134.5,126.5 C 135.833,126.5 137.167,126.5 138.5,126.5C 139.833,128.167 141.167,129.833 142.5,131.5C 142.5,131.833 142.5,132.167 142.5,132.5C 141.325,132.719 140.325,132.386 139.5,131.5C 137.994,129.599 136.327,127.932 134.5,126.5 Z"/></g>
<g><path style="opacity:1" fill="#803522" d="M 151.5,126.5 C 152.167,126.5 152.833,126.5 153.5,126.5C 155.037,129.685 154.37,132.352 151.5,134.5C 150.609,135.11 149.609,135.443 148.5,135.5C 149.647,132.59 150.647,129.59 151.5,126.5 Z"/></g>
<g><path style="opacity:1" fill="#471d0d" d="M 152.5,124.5 C 153.167,124.5 153.833,124.5 154.5,124.5C 154.5,125.167 154.833,125.5 155.5,125.5C 155.5,126.167 155.5,126.833 155.5,127.5C 155.414,128.496 155.748,129.329 156.5,130C 161.706,130.006 166.039,131.839 169.5,135.5C 168.37,136.622 167.703,137.956 167.5,139.5C 167.167,139.5 166.833,139.5 166.5,139.5C 166.5,138.833 166.5,138.167 166.5,137.5C 166.737,136.209 166.404,135.209 165.5,134.5C 165.389,133.883 165.056,133.383 164.5,133C 162.167,132.333 159.833,132.333 157.5,133C 156.663,134.011 156.33,135.178 156.5,136.5C 156.167,136.5 155.833,136.5 155.5,136.5C 154.533,135.194 153.199,134.527 151.5,134.5C 154.37,132.352 155.037,129.685 153.5,126.5C 153.167,125.833 152.833,125.167 152.5,124.5 Z"/></g>
<g><path style="opacity:1" fill="#8d3d45" d="M 142.5,131.5 C 143.167,131.833 143.833,132.167 144.5,132.5C 144.427,134.027 145.094,135.027 146.5,135.5C 146.5,135.833 146.5,136.167 146.5,136.5C 146.167,136.5 145.833,136.5 145.5,136.5C 144.209,136.737 143.209,136.404 142.5,135.5C 142.5,134.5 142.5,133.5 142.5,132.5C 142.5,132.167 142.5,131.833 142.5,131.5 Z"/></g>
<g><path style="opacity:1" fill="#834925" d="M 165.5,134.5 C 166.404,135.209 166.737,136.209 166.5,137.5C 163.103,138.494 159.77,138.16 156.5,136.5C 156.33,135.178 156.663,134.011 157.5,133C 159.833,132.333 162.167,132.333 164.5,133C 165.056,133.383 165.389,133.883 165.5,134.5 Z"/></g>
<g><path style="opacity:1" fill="#ae6034" d="M 165.5,134.5 C 164.082,136.308 162.082,136.975 159.5,136.5C 159.5,135.5 159.5,134.5 159.5,133.5C 161.565,133.517 163.565,133.85 165.5,134.5 Z"/></g>
<g><path style="opacity:1" fill="#310e06" d="M 155.5,127.5 C 160.505,129.061 165.505,130.728 170.5,132.5C 171.092,135.631 170.092,137.964 167.5,139.5C 167.703,137.956 168.37,136.622 169.5,135.5C 166.039,131.839 161.706,130.006 156.5,130C 155.748,129.329 155.414,128.496 155.5,127.5 Z"/></g>
<g><path style="opacity:1" fill="#484e6d" d="M 137.5,131.5 C 138.404,132.209 138.737,133.209 138.5,134.5C 138.5,136.167 138.5,137.833 138.5,139.5C 138.5,140.5 138.5,141.5 138.5,142.5C 137.539,140.735 137.205,138.735 137.5,136.5C 134.145,136.31 131.145,135.31 128.5,133.5C 131.739,133.413 134.739,134.08 137.5,135.5C 137.5,134.167 137.5,132.833 137.5,131.5 Z"/></g>
<g><path style="opacity:1" fill="#808080" d="M 202.5,132.5 C 202.34,134.153 201.674,135.486 200.5,136.5C 200.157,134.517 200.824,133.183 202.5,132.5 Z"/></g>
<g><path style="opacity:1" fill="#4f509d" d="M 138.5,134.5 C 139.708,135.234 141.041,135.567 142.5,135.5C 143.209,136.404 144.209,136.737 145.5,136.5C 145.5,136.833 145.5,137.167 145.5,137.5C 142.918,137.025 140.918,137.692 139.5,139.5C 139.167,139.5 138.833,139.5 138.5,139.5C 138.5,137.833 138.5,136.167 138.5,134.5 Z"/></g>
<g><path style="opacity:1" fill="#bcbcbc" d="M 20.5,131.5 C 21.1667,131.833 21.8333,132.167 22.5,132.5C 22.5,133.167 22.5,133.833 22.5,134.5C 22.5,135.833 22.5,137.167 22.5,138.5C 21.5933,136.343 20.9267,134.01 20.5,131.5 Z"/></g>
<g><path style="opacity:1" fill="#787878" d="M 22.5,134.5 C 24.0739,136.102 24.7406,138.102 24.5,140.5C 23.8333,139.833 23.1667,139.167 22.5,138.5C 22.5,137.167 22.5,135.833 22.5,134.5 Z"/></g>
<g><path style="opacity:1" fill="#100f14" d="M 122.5,127.5 C 123.167,127.833 123.833,128.167 124.5,128.5C 124.5,129.833 125.167,130.5 126.5,130.5C 126.782,131.778 127.449,132.778 128.5,133.5C 131.145,135.31 134.145,136.31 137.5,136.5C 137.205,138.735 137.539,140.735 138.5,142.5C 138.5,142.833 138.5,143.167 138.5,143.5C 140.988,145.388 143.988,146.055 147.5,145.5C 147.281,146.675 147.614,147.675 148.5,148.5C 150.571,150.185 152.571,151.852 154.5,153.5C 149.921,153.251 146.587,151.085 144.5,147C 141.443,146.744 138.443,146.244 135.5,145.5C 133.09,140.756 129.424,137.423 124.5,135.5C 124.709,134.914 125.043,134.414 125.5,134C 122.968,133.381 120.635,132.381 118.5,131C 119.833,130.333 119.833,129.667 118.5,129C 120.058,128.79 121.391,128.29 122.5,127.5 Z"/></g>
<g><path style="opacity:1" fill="#5d79ce" d="M 145.5,137.5 C 147.05,140.317 146.05,141.65 142.5,141.5C 140.97,141.36 139.97,140.693 139.5,139.5C 140.918,137.692 142.918,137.025 145.5,137.5 Z"/></g>
<g><path style="opacity:1" fill="#554d31" d="M 151.5,134.5 C 153.199,134.527 154.533,135.194 155.5,136.5C 155.5,137.5 155.5,138.5 155.5,139.5C 154.833,139.5 154.5,139.833 154.5,140.5C 153.441,138.445 151.775,137.111 149.5,136.5C 148.833,136.5 148.167,136.5 147.5,136.5C 147.167,136.5 146.833,136.5 146.5,136.5C 146.5,136.167 146.5,135.833 146.5,135.5C 147.167,135.5 147.833,135.5 148.5,135.5C 149.609,135.443 150.609,135.11 151.5,134.5 Z"/></g>
<g><path style="opacity:1" fill="#503316" d="M 155.5,136.5 C 155.833,136.5 156.167,136.5 156.5,136.5C 159.77,138.16 163.103,138.494 166.5,137.5C 166.5,138.167 166.5,138.833 166.5,139.5C 163.06,140.041 159.726,140.374 156.5,140.5C 155.833,140.5 155.5,140.167 155.5,139.5C 155.5,138.5 155.5,137.5 155.5,136.5 Z"/></g>
<g><path style="opacity:1" fill="#878787" d="M 199.5,137.5 C 199.833,137.5 200.167,137.5 200.5,137.5C 200.771,139.38 200.104,140.713 198.5,141.5C 198.833,140.167 199.167,138.833 199.5,137.5 Z"/></g>
<g><path style="opacity:1" fill="#52679c" d="M 145.5,137.5 C 145.5,137.167 145.5,136.833 145.5,136.5C 145.833,136.5 146.167,136.5 146.5,136.5C 146.833,136.5 147.167,136.5 147.5,136.5C 147.739,138.467 147.406,140.301 146.5,142C 143.854,142.497 141.187,142.664 138.5,142.5C 138.5,141.5 138.5,140.5 138.5,139.5C 138.833,139.5 139.167,139.5 139.5,139.5C 139.97,140.693 140.97,141.36 142.5,141.5C 146.05,141.65 147.05,140.317 145.5,137.5 Z"/></g>
<g><path style="opacity:1" fill="#474f47" d="M 149.5,136.5 C 151.775,137.111 153.441,138.445 154.5,140.5C 154.5,141.5 154.5,142.5 154.5,143.5C 153.292,142.766 151.959,142.433 150.5,142.5C 150.675,140.379 150.341,138.379 149.5,136.5 Z"/></g>
<g><path style="opacity:1" fill="#2c1408" d="M 166.5,139.5 C 166.833,139.5 167.167,139.5 167.5,139.5C 165.633,140.76 164.3,142.427 163.5,144.5C 160.626,143.903 158.292,142.569 156.5,140.5C 159.726,140.374 163.06,140.041 166.5,139.5 Z"/></g>
<g><path style="opacity:1" fill="#415574" d="M 147.5,136.5 C 148.167,136.5 148.833,136.5 149.5,136.5C 150.341,138.379 150.675,140.379 150.5,142.5C 149.167,142.5 148.5,143.167 148.5,144.5C 145.272,143.586 141.939,143.253 138.5,143.5C 138.5,143.167 138.5,142.833 138.5,142.5C 141.187,142.664 143.854,142.497 146.5,142C 147.406,140.301 147.739,138.467 147.5,136.5 Z"/></g>
<g><path style="opacity:1" fill="#2d1e1e" d="M 155.5,139.5 C 155.5,140.167 155.833,140.5 156.5,140.5C 158.292,142.569 160.626,143.903 163.5,144.5C 165.38,144.229 166.713,144.896 167.5,146.5C 167.167,146.5 166.833,146.5 166.5,146.5C 163.272,145.586 159.939,145.253 156.5,145.5C 156.158,144.662 155.492,144.328 154.5,144.5C 154.5,144.167 154.5,143.833 154.5,143.5C 154.5,142.5 154.5,141.5 154.5,140.5C 154.5,139.833 154.833,139.5 155.5,139.5 Z"/></g>
<g><path style="opacity:1" fill="#7e8b93" d="M 150.5,142.5 C 151.959,142.433 153.292,142.766 154.5,143.5C 154.5,143.833 154.5,144.167 154.5,144.5C 153.167,144.5 151.833,144.5 150.5,144.5C 150.5,145.5 150.5,146.5 150.5,147.5C 149.094,147.027 148.427,146.027 148.5,144.5C 148.5,143.167 149.167,142.5 150.5,142.5 Z"/></g>
<g><path style="opacity:1" fill="#a4a09f" d="M 156.5,146.5 C 159.187,146.336 161.854,146.503 164.5,147C 166.155,148.444 166.822,150.278 166.5,152.5C 166.5,152.833 166.5,153.167 166.5,153.5C 163.167,153.5 159.833,153.5 156.5,153.5C 156.5,153.167 156.5,152.833 156.5,152.5C 158.167,152.5 159.833,152.5 161.5,152.5C 162.833,152.5 164.167,152.5 165.5,152.5C 165.5,149.167 163.833,147.5 160.5,147.5C 158.901,147.768 157.568,147.434 156.5,146.5 Z"/></g>
<g><path style="opacity:1" fill="#5f5a57" d="M 156.5,146.5 C 156.5,146.167 156.5,145.833 156.5,145.5C 159.939,145.253 163.272,145.586 166.5,146.5C 167.742,148.611 167.742,150.611 166.5,152.5C 166.822,150.278 166.155,148.444 164.5,147C 161.854,146.503 159.187,146.336 156.5,146.5 Z"/></g>
<g><path style="opacity:1" fill="#6b6b6b" d="M 24.5,140.5 C 26.7271,141.401 27.7271,143.067 27.5,145.5C 28.1098,146.391 28.4431,147.391 28.5,148.5C 27.1667,146.5 25.8333,144.5 24.5,142.5C 24.5,141.833 24.5,141.167 24.5,140.5 Z"/></g>
<g><path style="opacity:1" fill="#75798a" d="M 151.5,148.5 C 154.367,148.369 156.033,149.703 156.5,152.5C 154.809,151.136 153.142,149.803 151.5,148.5 Z"/></g>
<g><path style="opacity:1" fill="#cbcada" d="M 154.5,144.5 C 155.492,144.328 156.158,144.662 156.5,145.5C 156.5,145.833 156.5,146.167 156.5,146.5C 157.568,147.434 158.901,147.768 160.5,147.5C 159.791,148.404 158.791,148.737 157.5,148.5C 157.5,149.5 157.5,150.5 157.5,151.5C 159.099,151.232 160.432,151.566 161.5,152.5C 159.833,152.5 158.167,152.5 156.5,152.5C 156.033,149.703 154.367,148.369 151.5,148.5C 150.833,148.5 150.5,148.167 150.5,147.5C 150.5,146.5 150.5,145.5 150.5,144.5C 151.833,144.5 153.167,144.5 154.5,144.5 Z"/></g>
<g><path style="opacity:1" fill="#303030" d="M 27.5,145.5 C 29.5693,147.292 30.9026,149.626 31.5,152.5C 31.1667,152.5 30.8333,152.5 30.5,152.5C 29.8333,151.167 29.1667,149.833 28.5,148.5C 28.4431,147.391 28.1098,146.391 27.5,145.5 Z"/></g>
<g><path style="opacity:1" fill="#f0eef1" d="M 160.5,147.5 C 163.833,147.5 165.5,149.167 165.5,152.5C 164.167,152.5 162.833,152.5 161.5,152.5C 160.432,151.566 159.099,151.232 157.5,151.5C 157.5,150.5 157.5,149.5 157.5,148.5C 158.791,148.737 159.791,148.404 160.5,147.5 Z"/></g>
<g><path style="opacity:1" fill="#3a3e31" d="M 166.5,146.5 C 166.833,146.5 167.167,146.5 167.5,146.5C 168.5,146.833 169.167,147.5 169.5,148.5C 169.5,150.167 169.5,151.833 169.5,153.5C 168.5,153.5 167.5,153.5 166.5,153.5C 166.5,153.167 166.5,152.833 166.5,152.5C 167.742,150.611 167.742,148.611 166.5,146.5 Z"/></g>
<g><path style="opacity:1" fill="#bcbcbc" d="M 198.5,142.5 C 196.417,151.766 191.75,159.432 184.5,165.5C 184.557,164.391 184.89,163.391 185.5,162.5C 187.543,161.421 188.876,159.754 189.5,157.5C 192.417,154.787 194.417,151.454 195.5,147.5C 196.263,145.632 197.263,143.965 198.5,142.5 Z"/></g>
<g><path style="opacity:1" fill="#283141" d="M 138.5,143.5 C 141.939,143.253 145.272,143.586 148.5,144.5C 148.427,146.027 149.094,147.027 150.5,147.5C 150.5,148.167 150.833,148.5 151.5,148.5C 153.142,149.803 154.809,151.136 156.5,152.5C 156.5,152.833 156.5,153.167 156.5,153.5C 155.833,153.5 155.167,153.5 154.5,153.5C 152.571,151.852 150.571,150.185 148.5,148.5C 147.614,147.675 147.281,146.675 147.5,145.5C 143.988,146.055 140.988,145.388 138.5,143.5 Z"/></g>
<g><path style="opacity:1" fill="#535353" d="M 195.5,147.5 C 194.417,151.454 192.417,154.787 189.5,157.5C 190.92,153.712 192.92,150.378 195.5,147.5 Z"/></g>
<g><path style="opacity:1" fill="#757575" d="M 30.5,152.5 C 30.8333,152.5 31.1667,152.5 31.5,152.5C 32.1098,153.391 32.4431,154.391 32.5,155.5C 31.0937,155.027 30.427,154.027 30.5,152.5 Z"/></g>
<g><path style="opacity:1" fill="#272622" d="M 169.5,148.5 C 170.473,150.948 170.806,153.615 170.5,156.5C 166.181,155.965 161.848,155.465 157.5,155C 156.944,154.617 156.611,154.117 156.5,153.5C 159.833,153.5 163.167,153.5 166.5,153.5C 167.5,153.5 168.5,153.5 169.5,153.5C 169.5,151.833 169.5,150.167 169.5,148.5 Z"/></g>
<g><path style="opacity:1" fill="#747474" d="M 32.5,155.5 C 33.9063,155.973 34.573,156.973 34.5,158.5C 33.0937,158.027 32.427,157.027 32.5,155.5 Z"/></g>
<g><path style="opacity:1" fill="#d9d9d9" d="M 24.5,142.5 C 25.8333,144.5 27.1667,146.5 28.5,148.5C 29.1667,149.833 29.8333,151.167 30.5,152.5C 30.427,154.027 31.0937,155.027 32.5,155.5C 32.427,157.027 33.0937,158.027 34.5,158.5C 34.5,159.167 34.5,159.833 34.5,160.5C 32.7708,159.883 31.2708,158.883 30,157.5C 27.7178,152.661 25.8845,147.661 24.5,142.5 Z"/></g>
<g><path style="opacity:1" fill="#787878" d="M 34.5,158.5 C 35.9063,158.973 36.573,159.973 36.5,161.5C 35.8333,161.167 35.1667,160.833 34.5,160.5C 34.5,159.833 34.5,159.167 34.5,158.5 Z"/></g>
<g><path style="opacity:1" fill="#818181" d="M 37.5,162.5 C 39.2624,163.262 40.2624,164.596 40.5,166.5C 38.7376,165.738 37.7376,164.404 37.5,162.5 Z"/></g>
<g><path style="opacity:1" fill="#4b4b4b" d="M 185.5,162.5 C 184.89,163.391 184.557,164.391 184.5,165.5C 182.833,167.833 180.833,169.833 178.5,171.5C 179.845,169.303 181.011,166.97 182,164.5C 182.816,163.177 183.983,162.511 185.5,162.5 Z"/></g>
<g><path style="opacity:1" fill="#959595" d="M 40.5,166.5 C 42.5,168.167 44.5,169.833 46.5,171.5C 47.5,172.833 48.5,174.167 49.5,175.5C 45.5,173.5 42.5,170.5 40.5,166.5 Z"/></g>
<g><path style="opacity:1" fill="#313131" d="M 46.5,171.5 C 49.0892,172.419 51.0892,174.086 52.5,176.5C 51.391,176.443 50.391,176.11 49.5,175.5C 48.5,174.167 47.5,172.833 46.5,171.5 Z"/></g>
<g><path style="opacity:1" fill="#767676" d="M 178.5,171.5 C 177.833,172.833 176.833,173.833 175.5,174.5C 175.5,174.167 175.5,173.833 175.5,173.5C 175.973,172.094 176.973,171.427 178.5,171.5 Z"/></g>
<g><path style="opacity:1" fill="#282828" d="M 175.5,173.5 C 175.5,173.833 175.5,174.167 175.5,174.5C 174.5,174.833 173.833,175.5 173.5,176.5C 171.323,177.279 169.656,178.613 168.5,180.5C 167.391,180.557 166.391,180.89 165.5,181.5C 165.167,181.5 164.833,181.5 164.5,181.5C 164.281,180.325 164.614,179.325 165.5,178.5C 169.012,177.069 172.346,175.402 175.5,173.5 Z"/></g>
<g><path style="opacity:1" fill="#b8b8b8" d="M 49.5,175.5 C 50.391,176.11 51.391,176.443 52.5,176.5C 53.1667,177.5 53.8333,178.5 54.5,179.5C 54.5,179.833 54.5,180.167 54.5,180.5C 51.6027,180.019 49.9361,178.352 49.5,175.5 Z"/></g>
<g><path style="opacity:1" fill="#b3b3b3" d="M 173.5,176.5 C 172.556,178.688 170.889,180.021 168.5,180.5C 169.656,178.613 171.323,177.279 173.5,176.5 Z"/></g>
<g><path style="opacity:1" fill="#3e3e3e" d="M 54.5,180.5 C 54.5,180.167 54.5,179.833 54.5,179.5C 56.4832,179.157 57.8166,179.824 58.5,181.5C 57.609,180.89 56.609,180.557 55.5,180.5C 55.1667,180.5 54.8333,180.5 54.5,180.5 Z"/></g>
<g><path style="opacity:1" fill="#8a8a8a" d="M 55.5,180.5 C 56.609,180.557 57.609,180.89 58.5,181.5C 58.5,181.833 58.5,182.167 58.5,182.5C 56.9731,182.573 55.9731,181.906 55.5,180.5 Z"/></g>
<g><path style="opacity:1" fill="#333333" d="M 58.5,182.5 C 58.5,182.167 58.5,181.833 58.5,181.5C 61.0772,181.455 63.0772,182.455 64.5,184.5C 63.8333,184.5 63.1667,184.5 62.5,184.5C 61.1667,183.833 59.8333,183.167 58.5,182.5 Z"/></g>
<g><path style="opacity:1" fill="#c7c7c7" d="M 168.5,180.5 C 166.573,184.092 163.573,186.092 159.5,186.5C 161.751,185.182 163.751,183.516 165.5,181.5C 166.391,180.89 167.391,180.557 168.5,180.5 Z"/></g>
<g><path style="opacity:1" fill="#b7b7b7" d="M 58.5,182.5 C 59.8333,183.167 61.1667,183.833 62.5,184.5C 62.5,184.833 62.5,185.167 62.5,185.5C 60.3812,185.532 59.0478,184.532 58.5,182.5 Z"/></g>
<g><path style="opacity:1" fill="#707070" d="M 62.5,185.5 C 62.5,185.167 62.5,184.833 62.5,184.5C 63.1667,184.5 63.8333,184.5 64.5,184.5C 64.5,185.167 64.8333,185.5 65.5,185.5C 65.5,185.833 65.5,186.167 65.5,186.5C 64.391,186.443 63.391,186.11 62.5,185.5 Z"/></g>
<g><path style="opacity:1" fill="#5a5a5a" d="M 164.5,181.5 C 164.833,181.5 165.167,181.5 165.5,181.5C 163.751,183.516 161.751,185.182 159.5,186.5C 159.167,186.5 158.833,186.5 158.5,186.5C 158.414,185.504 158.748,184.671 159.5,184C 161.452,183.634 163.118,182.801 164.5,181.5 Z"/></g>
<g><path style="opacity:1" fill="#858585" d="M 65.5,186.5 C 67.0269,186.427 68.0269,187.094 68.5,188.5C 66.9731,188.573 65.9731,187.906 65.5,186.5 Z"/></g>
<g><path style="opacity:1" fill="#868686" d="M 158.5,186.5 C 157.713,188.104 156.38,188.771 154.5,188.5C 155.514,187.326 156.847,186.66 158.5,186.5 Z"/></g>
<g><path style="opacity:1" fill="#262626" d="M 65.5,186.5 C 65.5,186.167 65.5,185.833 65.5,185.5C 69.296,187.152 73.296,188.319 77.5,189C 79.2714,190.524 80.9381,192.024 82.5,193.5C 81.8333,193.5 81.1667,193.5 80.5,193.5C 79.791,192.596 78.791,192.263 77.5,192.5C 77.0269,191.094 76.0269,190.427 74.5,190.5C 72.5,189.833 70.5,189.167 68.5,188.5C 68.0269,187.094 67.0269,186.427 65.5,186.5 Z"/></g>
<g><path style="opacity:1" fill="#a6a6a6" d="M 154.5,188.5 C 152.469,190.755 149.802,192.088 146.5,192.5C 148.789,190.613 151.455,189.279 154.5,188.5 Z"/></g>
<g><path style="opacity:1" fill="#c7c7c7" d="M 62.5,185.5 C 63.391,186.11 64.391,186.443 65.5,186.5C 65.9731,187.906 66.9731,188.573 68.5,188.5C 70.5,189.167 72.5,189.833 74.5,190.5C 74.5,190.833 74.5,191.167 74.5,191.5C 70.514,190.511 66.514,189.511 62.5,188.5C 62.5,187.5 62.5,186.5 62.5,185.5 Z"/></g>
<g><path style="opacity:1" fill="#7b7b7b" d="M 74.5,191.5 C 74.5,191.167 74.5,190.833 74.5,190.5C 76.0269,190.427 77.0269,191.094 77.5,192.5C 76.391,192.443 75.391,192.11 74.5,191.5 Z"/></g>
<g><path style="opacity:1" fill="#939393" d="M 145.5,192.5 C 143.898,194.074 141.898,194.741 139.5,194.5C 141.102,192.926 143.102,192.259 145.5,192.5 Z"/></g>
<g><path style="opacity:1" fill="#bdbdbd" d="M 74.5,191.5 C 75.391,192.11 76.391,192.443 77.5,192.5C 78.791,192.263 79.791,192.596 80.5,193.5C 84.9848,194.784 89.6515,195.784 94.5,196.5C 94.5,196.833 94.5,197.167 94.5,197.5C 87.0562,197.458 80.3896,195.458 74.5,191.5 Z"/></g>
<g><path style="opacity:1" fill="#313131" d="M 80.5,193.5 C 81.1667,193.5 81.8333,193.5 82.5,193.5C 85.8499,193.335 89.1832,193.502 92.5,194C 95.98,194.937 99.3134,196.104 102.5,197.5C 99.8333,197.167 97.1667,196.833 94.5,196.5C 89.6515,195.784 84.9848,194.784 80.5,193.5 Z"/></g>
<g><path style="opacity:1" fill="#4b4b4b" d="M 137.5,194.5 C 135.786,195.738 133.786,196.405 131.5,196.5C 128.833,196.833 126.167,197.167 123.5,197.5C 123.611,196.883 123.944,196.383 124.5,196C 128.848,195.535 133.181,195.035 137.5,194.5 Z"/></g>
<g><path style="opacity:1" fill="#707070" d="M 94.5,197.5 C 94.5,197.167 94.5,196.833 94.5,196.5C 97.1667,196.833 99.8333,197.167 102.5,197.5C 109.167,197.5 115.833,197.5 122.5,197.5C 122.5,197.833 122.5,198.167 122.5,198.5C 113.083,198.805 103.75,198.472 94.5,197.5 Z"/></g>
<g><path style="opacity:1" fill="#9a9a9a" d="M 131.5,196.5 C 128.829,198.118 125.829,198.785 122.5,198.5C 122.5,198.167 122.5,197.833 122.5,197.5C 122.833,197.5 123.167,197.5 123.5,197.5C 126.167,197.167 128.833,196.833 131.5,196.5 Z"/></g>
</svg>
