<svg xmlns="http://www.w3.org/2000/svg" width="406" height="372" style="shape-rendering:geometricPrecision;text-rendering:geometricPrecision;image-rendering:optimizeQuality;fill-rule:evenodd;clip-rule:evenodd"><path style="opacity:1" fill="#fefefe" d="M-.5-.5h406v372H-.5V-.5z"/><path style="opacity:1" fill="#e1e1e1" d="M243.5 105.5v1c-5.526-.321-10.86.012-16 1h-55c-5.14-.988-10.474-1.321-16-1v-1c29-1.333 58-1.333 87 0z"/><path style="opacity:1" fill="#f0f0f0" d="M156.5 105.5v1a327.7 327.7 0 0 0-30 2c.763-.768 1.763-1.268 3-1.5a261.956 261.956 0 0 1 27-1.5z"/><path style="opacity:1" fill="#d7d8d8" d="M227.5 107.5c5.14-.988 10.474-1.321 16-1 10.014.562 20.014 1.229 30 2h5c-.12 1.086-.787 1.753-2 2a39.654 39.654 0 0 0-11-1 423.586 423.586 0 0 0-38-2z"/><path style="opacity:1" fill="#ececec" d="M243.5 106.5v-1c9.023.035 18.023.535 27 1.5 1.237.232 2.237.732 3 1.5a1432.234 1432.234 0 0 0-30-2z"/><path style="opacity:1" fill="#fefefe" d="M180.5 107.5h39a2238.781 2238.781 0 0 0 46 3 510.422 510.422 0 0 1 26 2 29.23 29.23 0 0 1 9 1 489.462 489.462 0 0 1 52 12.5 66.964 66.964 0 0 1 17.5 10.5c2 3.333 2 6.667 0 10-2.436 2.608-5.269 4.608-8.5 6a19.22 19.22 0 0 1-6-1c-2.198-.375-4.198-1.042-6-2a274.439 274.439 0 0 0-19-5.5c-7.676-.835-15.342-1.669-23-2.5-2.107-.968-4.441-1.302-7-1-20.054-3.318-40.387-5.151-61-5.5a1606.425 1606.425 0 0 0-104 1c-1.558.21-2.891.71-4 1.5-25.263.129-49.93 3.463-74 10-2.981-.318-5.315.682-7 3a116.175 116.175 0 0 0-12 2 32.3 32.3 0 0 1-9-7.5c-1.247-2.507-1.247-5.007 0-7.5 5.202-5.347 11.369-9.347 18.5-12 7.17-3.07 14.67-5.07 22.5-6 4.374-.002 8.374-1.002 12-3h3a243.261 243.261 0 0 0 26-4 328.344 328.344 0 0 1 15-2 890.889 890.889 0 0 0 54-3z"/><path style="opacity:1" fill="#f0f0f0" d="M219.5 107.5h8c12.701.098 25.368.764 38 2v1a2238.781 2238.781 0 0 1-46-3z"/><path style="opacity:1" fill="#dbdbdb" d="M156.5 106.5c5.526-.321 10.86.012 16 1a467.285 467.285 0 0 0-46 3 328.344 328.344 0 0 0-15 2 260.28 260.28 0 0 0-26 3v-2a370.777 370.777 0 0 1 41-5 327.7 327.7 0 0 1 30-2z"/><path style="opacity:1" fill="#e2e2e2" d="M278.5 108.5c6.15.537 12.15 1.204 18 2v1c-1.915-.284-3.581.049-5 1a510.422 510.422 0 0 0-26-2v-1c3.715-.18 7.382.154 11 1 1.213-.247 1.88-.914 2-2z"/><path style="opacity:1" fill="#f1f1f1" d="M172.5 107.5h8a890.889 890.889 0 0 1-54 3 467.285 467.285 0 0 1 46-3z"/><path style="opacity:1" fill="#f0f0f0" d="M296.5 111.5v-1c3.377-.432 6.377.235 9 2a41.73 41.73 0 0 0-9-1z"/><path style="opacity:1" fill="#f1f1f1" d="M111.5 112.5a243.261 243.261 0 0 1-26 4v-1a260.28 260.28 0 0 1 26-3z"/><path style="opacity:1" fill="#d7d7d7" d="M291.5 112.5c1.419-.951 3.085-1.284 5-1a41.73 41.73 0 0 1 9 1h3c-2.448.973-5.115 1.306-8 1a29.23 29.23 0 0 0-9-1z"/><path style="opacity:1" fill="#f0f0f0" d="M82.5 116.5c-3.626 1.998-7.626 2.998-12 3 3.74-1.602 7.74-2.602 12-3z"/><path style="opacity:1" fill="#e1e1e1" d="M85.5 113.5v3h-3c-4.26.398-8.26 1.398-12 3-7.83.93-15.33 2.93-22.5 6-7.131 2.653-13.298 6.653-18.5 12 .065-.438-.101-.772-.5-1-.708.881-1.542 1.547-2.5 2 1.043-2.556 2.71-4.723 5-6.5a52.618 52.618 0 0 1 16-9 230.485 230.485 0 0 1 38-9.5z"/><path style="opacity:1" fill="#fbf0ef" d="M300.5 140.5a1136.426 1136.426 0 0 0-169-3c1.109-.79 2.442-1.29 4-1.5a1606.425 1606.425 0 0 1 104-1c20.613.349 40.946 2.182 61 5.5z"/><path style="opacity:1" fill="#fae3e3" d="M300.5 140.5c2.559-.302 4.893.032 7 1 13.888 2.632 27.888 5.299 42 8 1.802.958 3.802 1.625 6 2 .321 1.548 1.321 2.215 3 2v1a20.69 20.69 0 0 1-5 1c-1.422-.25-2.422-1.083-3-2.5a1484.38 1484.38 0 0 1-33.5-8.5 3.943 3.943 0 0 1-2 1 514.347 514.347 0 0 0-65.5-6.5 28.043 28.043 0 0 1-5-1.5 8421.262 8421.262 0 0 0-75 2c-1.705-1.803-3.538-2.469-5.5-2a1052.468 1052.468 0 0 1-51.5 4c-8.678 1.334-17.344 2.668-26 4a11.462 11.462 0 0 0-2.5-1c-11.614 3.29-23.114 5.956-34.5 8v3c3.672.545 3.338.878-1 1l-8-2v-1c3.548-.63 6.881-1.63 10-3 1.685-2.318 4.019-3.318 7-3a939.288 939.288 0 0 1 74-10 1136.426 1136.426 0 0 1 169 3z"/><path style="opacity:1" fill="#f9e0df" d="M353.5 155.5c-2.937 2.156-6.271 3.656-10 4.5a383.79 383.79 0 0 1-75 12.5c-9.849.205-19.516.872-29 2-1.291-.237-2.291.096-3 1h-74a1002.525 1002.525 0 0 1-74-8 177.725 177.725 0 0 1-40-11c4.338-.122 4.672-.455 1-1v-3c11.386-2.044 22.886-4.71 34.5-8 .873.235 1.707.569 2.5 1 8.656-1.332 17.322-2.666 26-4 17.255-.916 34.422-2.25 51.5-4 1.962-.469 3.795.197 5.5 2a8421.262 8421.262 0 0 1 75-2 28.043 28.043 0 0 0 5 1.5 514.347 514.347 0 0 1 65.5 6.5 3.943 3.943 0 0 0 2-1 1484.38 1484.38 0 0 0 33.5 8.5c.578 1.417 1.578 2.25 3 2.5z"/><path style="opacity:1" fill="#fcefef" d="M131.5 137.5a939.288 939.288 0 0 0-74 10c24.07-6.537 48.737-9.871 74-10z"/><path style="opacity:1" fill="#ddd" d="M29.5 137.5c-1.247 2.493-1.247 4.993 0 7.5a32.3 32.3 0 0 0 9 7.5c.342.838 1.008 1.172 2 1v1c-.667 0-1 .333-1 1l-2-1a40.756 40.756 0 0 1-8.5-6c-.667 22-.667 44 0 66l1.5 3c0 .667-.333 1-1 1-.958-.453-1.792-1.119-2.5-2a3042.5 3042.5 0 0 1-.5-78c.958-.453 1.792-1.119 2.5-2 .399.228.565.562.5 1z"/><path style="opacity:1" fill="#fbeeee" d="M307.5 141.5c7.658.831 15.324 1.665 23 2.5a274.439 274.439 0 0 1 19 5.5 23554.872 23554.872 0 0 0-42-8z"/><path style="opacity:1" fill="#e0e0e0" d="M308.5 112.5c20.86 2.454 40.527 8.621 59 18.5a34.706 34.706 0 0 1 6.5 7.5 771.424 771.424 0 0 1-1 78 55.747 55.747 0 0 0-4.5 5.5c-14.645 8.247-30.311 13.747-47 16.5-3.499.944-6.832.944-10 0 3.424-1.01 6.757-2.01 10-3 8.166-.076 15.833-1.742 23-5 6.698-1.334 12.698-4.001 18-8a6.547 6.547 0 0 1 3-3h1c.827.939 1.494.605 2-1 1.29-.558 2.123-1.558 2.5-3a1121.94 1121.94 0 0 0 0-67 72.484 72.484 0 0 1-8.5 6h-4v-1c1.291.237 2.291-.096 3-1 3.231-1.392 6.064-3.392 8.5-6 2-3.333 2-6.667 0-10a66.964 66.964 0 0 0-17.5-10.5 489.462 489.462 0 0 0-52-12.5c2.885.306 5.552-.027 8-1z"/><path style="opacity:1" fill="#fcfcfc" d="M37.5 154.5a12.072 12.072 0 0 0-3 4c-1.567 1.181-2.4 2.847-2.5 5-.5 17.997-.667 35.997-.5 54h-1l-1.5-3c-.667-22-.667-44 0-66a40.756 40.756 0 0 0 8.5 6z"/><path style="opacity:1" fill="#fcfbfb" d="M368.5 218.5c.167-19.336 0-38.67-.5-58-.383-.556-.883-.889-1.5-1-2.087-1.085-3.42-2.751-4-5a72.484 72.484 0 0 0 8.5-6 1121.94 1121.94 0 0 1 0 67c-.377 1.442-1.21 2.442-2.5 3z"/><path style="opacity:1" fill="#fbf0ef" d="M50.5 150.5c-3.119 1.37-6.452 2.37-10 3-.992.172-1.658-.162-2-1a116.175 116.175 0 0 1 12-2z"/><path style="opacity:1" fill="#f9efef" d="M355.5 151.5a19.22 19.22 0 0 0 6 1c-.709.904-1.709 1.237-3 1-1.679.215-2.679-.452-3-2z"/><path style="opacity:1" fill="#f9e0e0" d="m37.5 154.5 2 1c15.919 7.01 32.585 11.843 50 14.5a438.525 438.525 0 0 0 67 6.5c5.63.792 11.297 1.125 17 1 36.244 1.877 72.578 1.044 109-2.5a78.39 78.39 0 0 1 13-2c.916-.278 1.582-.778 2-1.5a356.59 356.59 0 0 0 47-9.5c6.059-1.844 11.726-4.344 17-7.5h1c.58 2.249 1.913 3.915 4 5 1.277 19.817 1.277 39.484 0 59 .167-17.337 0-34.67-.5-52-9.629 5.572-19.796 9.572-30.5 12a474.38 474.38 0 0 1-69 8 1106.424 1106.424 0 0 1-133 0 583.298 583.298 0 0 1-53-5 2268.288 2268.288 0 0 0-30-6.5c-6.032-1.893-11.532-4.726-16.5-8.5-.5 16.997-.667 33.997-.5 51-1.162-17.162-1.328-34.495-.5-52a129.7 129.7 0 0 1 1.5-7 12.072 12.072 0 0 1 3-4z"/><path style="opacity:1" fill="#fcf5f5" d="M34.5 158.5a129.7 129.7 0 0 0-1.5 7c-.828 17.505-.662 34.838.5 52v1c-.827.939-1.494.605-2-1-.167-18.003 0-36.003.5-54 .1-2.153.933-3.819 2.5-5z"/><path style="opacity:1" fill="#d9caca" d="M358.5 154.5h3c-5.274 3.156-10.941 5.656-17 7.5a356.59 356.59 0 0 1-47 9.5 371.636 371.636 0 0 1-54 5c-2.107-.968-4.441-1.302-7-1 .709-.904 1.709-1.237 3-1 9.884.307 19.55-.36 29-2a383.79 383.79 0 0 0 75-12.5c3.729-.844 7.063-2.344 10-4.5a20.69 20.69 0 0 0 5-1z"/><path style="opacity:1" fill="#f7d2d1" d="M366.5 218.5v1h-1c.167-17.003 0-34.003-.5-51-8.932 5.861-18.765 9.195-29.5 10 10.704-2.428 20.871-6.428 30.5-12 .5 17.33.667 34.663.5 52z"/><path style="opacity:1" fill="#fcf3f3" d="M366.5 159.5c.617.111 1.117.444 1.5 1 .5 19.33.667 38.664.5 58-.506 1.605-1.173 1.939-2 1v-1c1.277-19.516 1.277-39.183 0-59z"/><path style="opacity:1" fill="#dbcccc" d="m40.5 154.5 8 2a177.725 177.725 0 0 0 40 11 1002.525 1002.525 0 0 0 74 8c-2.235-.295-4.235.039-6 1a438.525 438.525 0 0 1-67-6.5c-17.415-2.657-34.081-7.49-50-14.5 0-.667.333-1 1-1z"/><path style="opacity:1" fill="#f6cecd" d="M80.5 181.5c7.417 1.623 15.084 3.29 23 5a11.456 11.456 0 0 1 2.5-1c16.495 1.689 32.995 3.355 49.5 5 4.318-.582 8.651-.915 13-1 25.195.881 50.528 1.214 76 1 3.586-.05 6.92-.717 10-2l12-2a474.38 474.38 0 0 0 69-8c10.735-.805 20.568-4.139 29.5-10 .5 16.997.667 33.997.5 51a6.547 6.547 0 0 0-3 3 6507.02 6507.02 0 0 0-20 8c-2.45-.202-4.783.131-7 1-2.928.065-5.595.732-8 2l-6 2c-3.36.116-6.693.449-10 1-7.342.203-14.342 1.536-21 4h-3a1793.045 1793.045 0 0 1-88 4 2254.807 2254.807 0 0 1-74-3c-12.079-2.553-24.413-4.22-37-5a76.254 76.254 0 0 1-12-2c-2.67-1.618-5.67-2.285-9-2a118.355 118.355 0 0 1-28-9c-.342-.838-1.008-1.172-2-1-1-1.667-2.333-3-4-4v-1c-.167-17.003 0-34.003.5-51 4.968 3.774 10.468 6.607 16.5 8.5a2268.288 2268.288 0 0 1 30 6.5z"/><path style="opacity:1" fill="#e7d5d4" d="M268.5 172.5c-9.45 1.64-19.116 2.307-29 2a297.928 297.928 0 0 1 29-2z"/><path style="opacity:1" fill="#f0dada" d="M297.5 171.5c-.418.722-1.084 1.222-2 1.5a78.39 78.39 0 0 0-13 2c-36.422 3.544-72.756 4.377-109 2.5a1304.44 1304.44 0 0 0 70-1 371.636 371.636 0 0 0 54-5z"/><path style="opacity:1" fill="#d8cac9" d="M156.5 176.5c1.765-.961 3.765-1.295 6-1h74c2.559-.302 4.893.032 7 1a1304.44 1304.44 0 0 1-70 1c-5.703.125-11.37-.208-17-1z"/><path style="opacity:1" fill="#f7d3d2" d="M80.5 181.5a583.298 583.298 0 0 0 53 5 928.353 928.353 0 0 0 35 3c-4.349.085-8.682.418-13 1a18424.358 18424.358 0 0 1-49.5-5c-.873.235-1.707.569-2.5 1a8734.484 8734.484 0 0 1-23-5z"/><path style="opacity:1" fill="#f8dcdc" d="M133.5 186.5a1106.424 1106.424 0 0 0 133 0l-12 2c-28.66.757-57.327 1.09-86 1a928.353 928.353 0 0 1-35-3z"/><path style="opacity:1" fill="#f7d3d2" d="M254.5 188.5c-3.08 1.283-6.414 1.95-10 2-25.472.214-50.805-.119-76-1 28.673.09 57.34-.243 86-1z"/><path style="opacity:1" fill="#ccc2c2" d="M196.5 195.5a4.934 4.934 0 0 1 3 .5 95.549 95.549 0 0 1-7 3.5c-1.068-.934-2.401-1.268-4-1a49.32 49.32 0 0 0 8-3z"/><path style="opacity:1" fill="#e7c9c9" d="M196.5 195.5c1.535-1.288 3.201-1.288 5 0-2.511 3.255-5.844 4.922-10 5 0-.667.333-1 1-1a95.549 95.549 0 0 0 7-3.5 4.934 4.934 0 0 0-3-.5z"/><path style="opacity:1" fill="#e3c8c8" d="M188.5 198.5c-3.05 1.601-6.384 2.601-10 3 .47-1.193 1.47-1.86 3-2a50.881 50.881 0 0 1 7-1z"/><path style="opacity:1" fill="#c2c0c0" d="M188.5 198.5c1.599-.268 2.932.066 4 1-.667 0-1 .333-1 1a5.727 5.727 0 0 0-3 1c-1.527-.073-2.527.594-3 2-2.434.599-4.101 2.099-5 4.5.248 1.749 1.248 2.582 3 2.5 1.208.734 2.541 1.067 4 1 2.015 1.424 4.348 2.09 7 2a159.141 159.141 0 0 1-18 1.5c-.916.278-1.582.778-2 1.5-.992-.172-1.658.162-2 1-3.665 1.69-3.998 4.023-1 7-.12 1.086-.787 1.753-2 2-.916-.043-1.583-.376-2-1-.473-1.406-1.473-2.073-3-2a69.132 69.132 0 0 0-9-7c-.774-.647-1.774-.98-3-1-1.855-.16-3.188.507-4 2-2.667 1.333-4.667 3.333-6 6a514.367 514.367 0 0 0-4 3c-.792-1.2-.792-2.533 0-4 1.438-2.583 1.104-4.917-1-7l-11-2c3.887-.146 7.554-.813 11-2a32.462 32.462 0 0 0 8-.5c1.995-.924 2.328-2.09 1-3.5-2.286-.095-4.286-.762-6-2 1.068-.934 2.401-1.268 4-1 8.544 1.573 16.878 1.24 25-1 3.329.285 6.329-.382 9-2 3.616-.399 6.95-1.399 10-3z"/><path style="opacity:1" fill="#dac6c5" d="m139.5 202.5 5 2c-1.599-.268-2.932.066-4 1a63.2 63.2 0 0 1-17-4l2-1a76.1 76.1 0 0 0 14 2z"/><path style="opacity:1" fill="#e0c7c7" d="M178.5 201.5c-2.671 1.618-5.671 2.285-9 2 2.773-1.157 5.773-1.824 9-2z"/><path style="opacity:1" fill="#dcc6c6" d="M188.5 201.5c-.473 1.406-1.473 2.073-3 2 .473-1.406 1.473-2.073 3-2z"/><path style="opacity:1" fill="#e8cac9" d="M139.5 202.5a394.983 394.983 0 0 0 30 1c-8.122 2.24-16.456 2.573-25 1l-5-2z"/><path style="opacity:1" fill="#e7cac9" d="M185.5 203.5a20.987 20.987 0 0 0-3 4.5c.243.902.577 1.735 1 2.5-1.752.082-2.752-.751-3-2.5.899-2.401 2.566-3.901 5-4.5z"/><path style="opacity:1" fill="#f3f3f3" d="M160.5 210.5c3.125-.979 6.458-1.313 10-1h3v3c-1.599-.268-2.932.066-4 1-4.202.317-8.202-.017-12-1a40.842 40.842 0 0 0 14-1.5 60.931 60.931 0 0 0-11-.5z"/><path style="opacity:1" fill="#d3c4c3" d="M146.5 207.5c1.328 1.41.995 2.576-1 3.5a32.462 32.462 0 0 1-8 .5c2.331-.817 4.831-1.484 7.5-2 1.03-.336 1.53-1.003 1.5-2z"/><path style="opacity:1" fill="#e2e2e2" d="M170.5 209.5c-3.542-.313-6.875.021-10 1a4.934 4.934 0 0 0-3 .5c-1.238.69-1.238 1.19 0 1.5 3.798.983 7.798 1.317 12 1-4.481 1.148-9.148 1.315-14 .5a3.943 3.943 0 0 1-1-2c1.182-1.735 2.849-2.735 5-3 3.858-.81 7.524-.643 11 .5z"/><path style="opacity:1" fill="#fdfdfd" d="M160.5 210.5a60.931 60.931 0 0 1 11 .5 40.842 40.842 0 0 1-14 1.5c-1.238-.31-1.238-.81 0-1.5a4.934 4.934 0 0 1 3-.5z"/><path style="opacity:1" fill="#e4c8c8" d="M137.5 211.5c-3.446 1.187-7.113 1.854-11 2h-1c3.529-1.923 7.529-2.589 12-2z"/><path style="opacity:1" fill="#dac6c6" d="M187.5 211.5c2.361.174 4.694.507 7 1v1c-2.652.09-4.985-.576-7-2z"/><path style="opacity:1" fill="#eccbca" d="M194.5 213.5v-1c5.614-.427 10.947.24 16 2l-16-1z"/><path style="opacity:1" fill="#d8c5c5" d="M125.5 213.5h1l11 2h-13c-3.542.313-6.875-.021-10-1a49.369 49.369 0 0 1 11-1z"/><path style="opacity:1" fill="#cbc2c2" d="m194.5 213.5 16 1h3c.342.838 1.008 1.172 2 1-5.475.989-11.142 1.322-17 1h-24c.418-.722 1.084-1.222 2-1.5a159.141 159.141 0 0 0 18-1.5z"/><path style="opacity:1" fill="#d4c4c4" d="M155.5 216.5a21.435 21.435 0 0 0-7 1c.812-1.493 2.145-2.16 4-2 1.226.02 2.226.353 3 1z"/><path style="opacity:1" fill="#e4c8c8" d="M114.5 214.5c3.125.979 6.458 1.313 10 1-11.145 1.632-22.479 2.466-34 2.5 7.758-2.659 15.758-3.826 24-3.5z"/><path style="opacity:1" fill="#e8cac9" d="M213.5 214.5c12.235.012 24.235 1.012 36 3a873.153 873.153 0 0 1-34-2c-.992.172-1.658-.162-2-1z"/><path style="opacity:1" fill="#eae6e6" d="M30.5 217.5h1c.506 1.605 1.173 1.939 2 1 1.667 1 3 2.333 4 4-1.535-.854-2.868-.854-4 0-2.333-.333-3.667-1.667-4-4 .667 0 1-.333 1-1z"/><path style="opacity:1" fill="#d1c4c3" d="M215.5 215.5a873.153 873.153 0 0 0 34 2 69.302 69.302 0 0 0 16 1v1a12.93 12.93 0 0 0-5 .5c.916.278 1.582.778 2 1.5a6274.07 6274.07 0 0 1-64-5c5.858.322 11.525-.011 17-1z"/><path style="opacity:1" fill="#e5c9c8" d="M172.5 217.5c-.869 2.217-1.202 4.55-1 7-2.998-2.977-2.665-5.31 1-7z"/><path style="opacity:1" fill="#e2c8c8" d="M265.5 219.5v-1c12.323.638 24.656.972 37 1l8 2a2922.91 2922.91 0 0 1-45-2z"/><path style="opacity:1" fill="#f0cccb" d="M302.5 219.5c5.676-.166 11.343.001 17 .5 1.333.667 1.333 1.333 0 2a40.23 40.23 0 0 1 11 2 276.452 276.452 0 0 1-22 2.5c-2.442.381-3.109-.286-2-2l8-2c-1.189-.929-2.522-1.262-4-1l-8-2z"/><path style="opacity:1" fill="#c5c0c0" d="M265.5 219.5a2922.91 2922.91 0 0 0 45 2c-2.773 1.157-5.773 1.824-9 2v3h-4c-.111-.617-.444-1.117-1-1.5a49.555 49.555 0 0 0-13-1.5h-2c-5.146-1.051-10.479-1.718-16-2h-3c-.418-.722-1.084-1.222-2-1.5a12.93 12.93 0 0 1 5-.5z"/><path style="opacity:1" fill="#e7c9c9" d="M265.5 221.5c5.521.282 10.854.949 16 2-5.771.613-11.104-.054-16-2z"/><path style="opacity:1" fill="#dac7c5" d="M164.5 223.5c1.527-.073 2.527.594 3 2-1.527.073-2.527-.594-3-2z"/><path style="opacity:1" fill="#dec7c7" d="M283.5 223.5c4.397-.075 8.73.425 13 1.5.556.383.889.883 1 1.5-4.857-.638-9.523-1.638-14-3z"/><path style="opacity:1" fill="#e6c9c8" d="M138.5 222.5c-.792 1.467-.792 2.8 0 4a514.367 514.367 0 0 1 4-3c-.93 3.593-3.263 5.259-7 5-.039-2.589.961-4.589 3-6z"/><path style="opacity:1" fill="#e4c9c8" d="M310.5 221.5c1.478-.262 2.811.071 4 1l-8 2c-1.109 1.714-.442 2.381 2 2-1.861 1.007-4.528 1.34-8 1v4h-3v-5h4v-3c3.227-.176 6.227-.843 9-2z"/><path style="opacity:1" fill="#efdcdc" d="M362.5 222.5c-5.302 3.999-11.302 6.666-18 8h-2a6507.02 6507.02 0 0 1 20-8z"/><path style="opacity:1" fill="#ebecec" d="M37.5 225.5c3.045.779 5.711 2.113 8 4-3.221-.396-5.888-1.729-8-4z"/><path style="opacity:1" fill="#f2e0df" d="M39.5 223.5a118.355 118.355 0 0 0 28 9h-3c-9.232-.852-17.565-3.852-25-9z"/><path style="opacity:1" fill="#dddbdb" d="M33.5 222.5c1.132-.854 2.465-.854 4 0 .992-.172 1.658.162 2 1 7.435 5.148 15.768 8.148 25 9 1.963 1.031 3.297 2.031 4 3a115.384 115.384 0 0 1-13-2c-1.82-1.948-4.154-2.948-7-3a5.727 5.727 0 0 1-3-1c-2.289-1.887-4.955-3.221-8-4a12.061 12.061 0 0 1-4-3z"/><path style="opacity:1" fill="#eff0f0" d="M48.5 230.5c2.846.052 5.18 1.052 7 3-2.657-.435-4.99-1.435-7-3z"/><path style="opacity:1" fill="#f8dfde" d="M67.5 232.5c3.33-.285 6.33.382 9 2h-3a43.788 43.788 0 0 1-6-2z"/><path style="opacity:1" fill="#f8e1e1" d="M335.5 231.5c-2.338 1.54-5.005 2.206-8 2 2.405-1.268 5.072-1.935 8-2z"/><path style="opacity:1" fill="#f2e8e8" d="M342.5 230.5h2c-7.167 3.258-14.834 4.924-23 5l6-2c2.995.206 5.662-.46 8-2 2.217-.869 4.55-1.202 7-1z"/><path style="opacity:1" fill="#e9e7e7" d="M64.5 232.5h3a43.788 43.788 0 0 0 6 2v1a4.934 4.934 0 0 0-3 .5c2.604.39 4.938 1.224 7 2.5a29.492 29.492 0 0 1-6.5-1c-1.376-.184-2.209-.851-2.5-2-.703-.969-2.037-1.969-4-3z"/><path style="opacity:1" fill="#f5e9e9" d="M321.5 235.5c-3.243.99-6.576 1.99-10 3h-4l4-2a76.926 76.926 0 0 1 10-1z"/><path style="opacity:1" fill="#f5eaea" d="M73.5 235.5v-1h3a76.254 76.254 0 0 0 12 2l4 2a473.452 473.452 0 0 1-19-3z"/><path style="opacity:1" fill="#f7d4d3" d="M88.5 236.5c12.587.78 24.921 2.447 37 5l-18-1c-4.717-1.738-9.717-2.404-15-2l-4-2z"/><path style="opacity:1" fill="#f8d9d9" d="m311.5 236.5-4 2c-1.915-.284-3.581.049-5 1a54.968 54.968 0 0 1-12 1c6.658-2.464 13.658-3.797 21-4z"/><path style="opacity:1" fill="#f7e2e1" d="M92.5 238.5c5.283-.404 10.283.262 15 2-5.194-.241-10.194-.907-15-2z"/><path style="opacity:1" fill="#e9e8e8" d="M302.5 239.5c1.419-.951 3.085-1.284 5-1h4c3.168.944 6.501.944 10 0-6.974 2.609-14.308 3.942-22 4 3.128-1.132 6.462-1.965 10-2.5a24.935 24.935 0 0 0-7-.5z"/><path style="opacity:1" fill="#efefef" d="M81.5 239.5c3.958-.249 7.624.418 11 2-3.925.07-7.591-.597-11-2z"/><path style="opacity:1" fill="#dbd9d9" d="M73.5 235.5a473.452 473.452 0 0 0 19 3c4.806 1.093 9.806 1.759 15 2 10.068 2.322 20.401 3.656 31 4l1 2h-6c-6.462-1.478-13.128-2.478-20-3h-8c-4.067-1.554-8.4-2.22-13-2-3.376-1.582-7.042-2.249-11-2-1.208-.734-2.541-1.067-4-1-2.063-1.276-4.396-2.11-7-2.5a4.934 4.934 0 0 1 3-.5z"/><path style="opacity:1" fill="#eee" d="M92.5 241.5c4.6-.22 8.933.446 13 2-4.549-.124-8.882-.791-13-2z"/><path style="opacity:1" fill="#dcd7d7" d="M302.5 239.5c2.357-.163 4.69.003 7 .5-3.538.535-6.872 1.368-10 2.5h-1a866.484 866.484 0 0 1-25 2v-1c3.578-.049 6.911-.715 10-2 1.599.268 2.932-.066 4-1h3a54.968 54.968 0 0 0 12-1z"/><path style="opacity:1" fill="#f0d8d8" d="m107.5 240.5 18 1c5.1.508 10.1 1.508 15 3h-2c-10.599-.344-20.932-1.678-31-4z"/><path style="opacity:1" fill="#f1d9d8" d="M283.5 241.5c-3.089 1.285-6.422 1.951-10 2a82.73 82.73 0 0 0-14 1c.763-.768 1.763-1.268 3-1.5 7-.577 14-1.077 21-1.5z"/><path style="opacity:1" fill="#f3d0cf" d="M287.5 240.5c-1.068.934-2.401 1.268-4 1-7 .423-14 .923-21 1.5-1.237.232-2.237.732-3 1.5a1167.44 1167.44 0 0 1-78 2 265.951 265.951 0 0 1-41-2 77.869 77.869 0 0 0-15-3 2254.807 2254.807 0 0 0 74 3c29.37-.613 58.703-1.946 88-4z"/><path style="opacity:1" fill="#ededed" d="M113.5 243.5c6.872.522 13.538 1.522 20 3-5.19.059-10.357-.275-15.5-1-1.986-.069-3.486-.735-4.5-2z"/><path style="opacity:1" fill="#f0f0f0" d="M298.5 242.5c-10.371 2.562-21.037 3.895-32 4l7-2a866.484 866.484 0 0 0 25-2z"/><path style="opacity:1" fill="#dbc9c9" d="M273.5 243.5v1a673.837 673.837 0 0 0-39 3h-15a361.608 361.608 0 0 1-38-1 1167.44 1167.44 0 0 0 78-2 82.73 82.73 0 0 1 14-1z"/><path style="opacity:1" fill="#d9d5d5" d="m273.5 244.5-7 2a53.805 53.805 0 0 0-14 1h-18a673.837 673.837 0 0 1 39-3z"/><path style="opacity:1" fill="#d7d2d2" d="M138.5 244.5h2a265.951 265.951 0 0 0 41 2 361.608 361.608 0 0 0 38 1c-18.17 1.068-36.503 1.068-55 0a296.602 296.602 0 0 1-25-1l-1-2z"/><path style="opacity:1" fill="#eee" d="M164.5 247.5c18.497 1.068 36.83 1.068 55 0h33a542.681 542.681 0 0 1-52.5 2c-12.186-.001-24.019-.668-35.5-2z"/></svg>