<?xml version="1.0" encoding="UTF-8"?>
<!DOCTYPE svg PUBLIC "-//W3C//DTD SVG 1.1//EN" "http://www.w3.org/Graphics/SVG/1.1/DTD/svg11.dtd">
<svg xmlns="http://www.w3.org/2000/svg" version="1.1" width="165px" height="165px" style="shape-rendering:geometricPrecision; text-rendering:geometricPrecision; image-rendering:optimizeQuality; fill-rule:evenodd; clip-rule:evenodd" xmlns:xlink="http://www.w3.org/1999/xlink">
<g><path style="opacity:0.908" fill="#35b1e1" d="M 69.5,-0.5 C 77.8333,-0.5 86.1667,-0.5 94.5,-0.5C 133.283,7.95001 156.617,31.6167 164.5,70.5C 164.5,78.1667 164.5,85.8333 164.5,93.5C 156.509,132.824 132.842,156.491 93.5,164.5C 85.8333,164.5 78.1667,164.5 70.5,164.5C 31.1577,156.491 7.49103,132.824 -0.5,93.5C -0.5,85.8333 -0.5,78.1667 -0.5,70.5C 7.38323,31.6167 30.7166,7.95001 69.5,-0.5 Z"/></g>
<g><path style="opacity:1" fill="#063145" d="M 72.5,4.5 C 110.711,2.84164 137.878,19.175 154,53.5C 166.081,93.5952 154.914,125.429 120.5,149C 80.1164,167.861 45.9498,160.028 18,125.5C -2.85728,89.7035 0.642716,56.5369 28.5,26C 41.2545,14.7888 55.9211,7.62218 72.5,4.5 Z"/></g>
<g><path style="opacity:1" fill="#a8843d" d="M 66.5,39.5 C 63.1667,39.5 59.8333,39.5 56.5,39.5C 56.5,42.8333 56.5,46.1667 56.5,49.5C 55.5184,46.0381 55.185,42.3714 55.5,38.5C 59.3714,38.185 63.0381,38.5184 66.5,39.5 Z"/></g>
<g><path style="opacity:1" fill="#edb01b" d="M 66.5,39.5 C 66.5,42.8333 66.5,46.1667 66.5,49.5C 63.1667,49.5 59.8333,49.5 56.5,49.5C 56.5,46.1667 56.5,42.8333 56.5,39.5C 59.8333,39.5 63.1667,39.5 66.5,39.5 Z"/></g>
<g><path style="opacity:1" fill="#36b4e5" d="M 72.5,39.5 C 84.8333,39.5 97.1667,39.5 109.5,39.5C 109.5,55.8333 109.5,72.1667 109.5,88.5C 97.1667,88.5 84.8333,88.5 72.5,88.5C 72.5,83.8333 72.5,79.1667 72.5,74.5C 81.5,74.5 90.5,74.5 99.5,74.5C 99.5,66.1667 99.5,57.8333 99.5,49.5C 90.5,49.5 81.5,49.5 72.5,49.5C 72.5,46.1667 72.5,42.8333 72.5,39.5 Z"/></g>
<g><path style="opacity:1" fill="#2e82a3" d="M 72.5,39.5 C 84.989,38.5046 97.6557,38.1713 110.5,38.5C 110.5,55.5 110.5,72.5 110.5,89.5C 97.6557,89.8287 84.989,89.4954 72.5,88.5C 84.8333,88.5 97.1667,88.5 109.5,88.5C 109.5,72.1667 109.5,55.8333 109.5,39.5C 97.1667,39.5 84.8333,39.5 72.5,39.5 Z"/></g>
<g><path style="opacity:1" fill="#35b0e0" d="M 55.5,57.5 C 59.1667,57.5 62.8333,57.5 66.5,57.5C 66.5,79.8333 66.5,102.167 66.5,124.5C 62.8333,124.5 59.1667,124.5 55.5,124.5C 55.5,102.167 55.5,79.8333 55.5,57.5 Z"/></g>
<g><path style="opacity:1" fill="#36b4e5" d="M 99.5,95.5 C 102.833,95.5 106.167,95.5 109.5,95.5C 109.5,105.167 109.5,114.833 109.5,124.5C 106.167,124.5 102.833,124.5 99.5,124.5C 99.5,114.833 99.5,105.167 99.5,95.5 Z"/></g>
<g><path style="opacity:1" fill="#2e83a4" d="M 99.5,95.5 C 102.962,94.5184 106.629,94.185 110.5,94.5C 110.827,104.681 110.494,114.681 109.5,124.5C 109.5,114.833 109.5,105.167 109.5,95.5C 106.167,95.5 102.833,95.5 99.5,95.5 Z"/></g>
</svg>
