<svg xmlns="http://www.w3.org/2000/svg" width="165" height="165" style="shape-rendering:geometricPrecision;text-rendering:geometricPrecision;image-rendering:optimizeQuality;fill-rule:evenodd;clip-rule:evenodd"><path style="opacity:.908" fill="#35b1e1" d="M69.5-.5h25c38.783 8.45 62.117 32.117 70 71v23c-7.991 39.324-31.658 62.991-71 71h-23c-39.342-8.009-63.009-31.676-71-71v-23c7.883-38.883 31.217-62.55 70-71z"/><path style="opacity:1" fill="#063145" d="M72.5 4.5c38.211-1.658 65.378 14.675 81.5 49 12.081 40.095.914 71.929-33.5 95.5-40.384 18.861-74.55 11.028-102.5-23.5C-2.857 89.704.643 56.537 28.5 26c12.755-11.211 27.421-18.378 44-21.5z"/><path style="opacity:1" fill="#a8843d" d="M66.5 39.5h-10v10c-.982-3.462-1.315-7.129-1-11 3.871-.315 7.538.018 11 1z"/><path style="opacity:1" fill="#edb01b" d="M66.5 39.5v10h-10v-10h10z"/><path style="opacity:1" fill="#36b4e5" d="M72.5 39.5h37v49h-37v-14h27v-25h-27v-10z"/><path style="opacity:1" fill="#2e82a3" d="M72.5 39.5a361.579 361.579 0 0 1 38-1v51a361.579 361.579 0 0 1-38-1h37v-49h-37z"/><path style="opacity:1" fill="#35b0e0" d="M55.5 57.5h11v67h-11v-67z"/><path style="opacity:1" fill="#36b4e5" d="M99.5 95.5h10v29h-10v-29z"/><path style="opacity:1" fill="#2e83a4" d="M99.5 95.5c3.462-.982 7.129-1.315 11-1 .327 10.181-.006 20.181-1 30v-29h-10z"/></svg>