<?xml version="1.0" encoding="UTF-8"?>
<!DOCTYPE svg PUBLIC "-//W3C//DTD SVG 1.1//EN" "http://www.w3.org/Graphics/SVG/1.1/DTD/svg11.dtd">
<svg xmlns="http://www.w3.org/2000/svg" version="1.1" width="200px" height="189px" style="shape-rendering:geometricPrecision; text-rendering:geometricPrecision; image-rendering:optimizeQuality; fill-rule:evenodd; clip-rule:evenodd" xmlns:xlink="http://www.w3.org/1999/xlink">
<g><path style="opacity:0.013" fill="#626262" d="M 79.5,0.5 C 79.5,0.166667 79.5,-0.166667 79.5,-0.5C 81.1667,-0.5 82.8333,-0.5 84.5,-0.5C 83.0813,0.451145 81.4147,0.784479 79.5,0.5 Z"/></g>
<g><path style="opacity:0.975" fill="#848484" d="M 92.5,-0.5 C 104.833,-0.5 117.167,-0.5 129.5,-0.5C 136.021,0.937556 142.688,2.27089 149.5,3.5C 166.383,8.06973 180.716,16.7364 192.5,29.5C 192.5,30.1667 192.833,30.5 193.5,30.5C 194.929,33.6963 196.595,36.6963 198.5,39.5C 198.263,40.791 198.596,41.791 199.5,42.5C 199.5,46.5 199.5,50.5 199.5,54.5C 198.662,54.8417 198.328,55.5084 198.5,56.5C 197.833,56.5 197.5,56.8333 197.5,57.5C 196.833,57.5 196.5,57.8333 196.5,58.5C 195.833,58.5 195.5,58.8333 195.5,59.5C 194.833,59.5 194.5,59.8333 194.5,60.5C 193.027,61.072 191.693,61.9054 190.5,63C 192.986,63.7051 192.986,64.5384 190.5,65.5C 190.5,64.8333 190.167,64.5 189.5,64.5C 189.5,63.8333 189.167,63.5 188.5,63.5C 187.833,63.5 187.167,63.5 186.5,63.5C 180.111,57.6421 172.778,53.1421 164.5,50C 152.467,45.4859 140.134,42.3192 127.5,40.5C 126.142,36.7523 124.809,33.0857 123.5,29.5C 122.518,21.1618 126.185,18.1618 134.5,20.5C 139.228,21.2455 143.894,22.2455 148.5,23.5C 163.34,26.9182 175.673,34.4182 185.5,46C 186.167,46.6667 186.833,46.6667 187.5,46C 178.44,33.795 166.774,24.9617 152.5,19.5C 147.883,16.7344 142.883,14.7344 137.5,13.5C 135.777,11.7819 133.777,10.4486 131.5,9.5C 131.027,8.09368 130.027,7.42702 128.5,7.5C 120.145,3.6405 112.979,5.30717 107,12.5C 104.938,18.8432 105.771,24.8432 109.5,30.5C 110.263,32.3684 111.263,34.0351 112.5,35.5C 112.5,36.5 112.5,37.5 112.5,38.5C 93.7795,38.1012 75.1128,38.7678 56.5,40.5C 56.7373,39.209 56.404,38.209 55.5,37.5C 55.5,35.8333 55.5,34.1667 55.5,32.5C 55.4142,31.5041 55.7476,30.6708 56.5,30C 55.9056,29.5357 55.2389,29.369 54.5,29.5C 55.7917,26.3036 55.2917,23.3036 53,20.5C 50.8416,19.1741 49.0082,17.5075 47.5,15.5C 47.9767,14.5224 48.6433,13.6891 49.5,13C 63.1596,5.94454 77.4929,1.44454 92.5,-0.5 Z"/></g>
<g><path style="opacity:0.012" fill="#a9a9a9" d="M 79.5,0.5 C 78.3991,1.59832 77.0657,1.76498 75.5,1C 76.7932,0.50999 78.1266,0.343323 79.5,0.5 Z"/></g>
<g><path style="opacity:0.016" fill="#737373" d="M 149.5,3.5 C 150.833,2.16667 152.167,2.16667 153.5,3.5C 152.167,3.5 150.833,3.5 149.5,3.5 Z"/></g>
<g><path style="opacity:0.012" fill="#626262" d="M 153.5,3.5 C 154.239,3.36899 154.906,3.53566 155.5,4C 154.563,4.69169 153.897,4.52502 153.5,3.5 Z"/></g>
<g><path style="opacity:0.012" fill="#727272" d="M 159.5,5.5 C 158.448,5.64945 157.448,5.48278 156.5,5C 157.749,4.25988 158.749,4.42654 159.5,5.5 Z"/></g>
<g><path style="opacity:0.012" fill="#7f807f" d="M 159.5,5.5 C 160.239,5.36899 160.906,5.53566 161.5,6C 160.563,6.69169 159.897,6.52502 159.5,5.5 Z"/></g>
<g><path style="opacity:1" fill="#fae3cb" d="M 128.5,7.5 C 127.16,10.7693 125.327,13.7693 123,16.5C 119.024,21.6428 114.524,26.3094 109.5,30.5C 105.771,24.8432 104.938,18.8432 107,12.5C 112.979,5.30717 120.145,3.6405 128.5,7.5 Z"/></g>
<g><path style="opacity:0.016" fill="#d3d3d3" d="M 42.5,15.5 C 42.8966,14.475 43.5632,14.3083 44.5,15C 43.9056,15.4643 43.2389,15.631 42.5,15.5 Z"/></g>
<g><path style="opacity:0.991" fill="#dfdede" d="M 42.5,15.5 C 48.3111,18.6423 52.3111,23.309 54.5,29.5C 54.2627,30.791 54.596,31.791 55.5,32.5C 55.5,34.1667 55.5,35.8333 55.5,37.5C 54.8902,38.391 54.5569,39.391 54.5,40.5C 40.4361,42.4133 26.7694,45.9133 13.5,51C 10.7348,53.9663 11.0682,56.633 14.5,59C 27.3858,66.0539 40.7192,67.2205 54.5,62.5C 57.4751,64.8239 60.8084,65.6573 64.5,65C 69.3772,61.6239 73.3772,57.4572 76.5,52.5C 78.3464,52.2222 79.6798,52.8888 80.5,54.5C 73.2426,65.2591 65.4093,75.5924 57,85.5C 55.878,87.4068 55.0447,89.4068 54.5,91.5C 51.5475,96.4503 48.2141,101.117 44.5,105.5C 43.8166,103.824 42.4832,103.157 40.5,103.5C 39.4324,102.566 38.099,102.232 36.5,102.5C 29.6446,100.075 22.9779,97.0752 16.5,93.5C 16.5,92.8333 16.1667,92.5 15.5,92.5C 9.74424,88.0803 5.07757,82.747 1.5,76.5C 1.73731,75.209 1.40397,74.209 0.5,73.5C 0.737305,72.209 0.403972,71.209 -0.5,70.5C -0.5,64.5 -0.5,58.5 -0.5,52.5C 2.02247,45.7904 5.3558,39.4571 9.5,33.5C 10.1667,33.5 10.5,33.1667 10.5,32.5C 12.5,31.1667 14.1667,29.5 15.5,27.5C 16.1667,27.5 16.5,27.1667 16.5,26.5C 23.7381,19.55 32.4048,15.8833 42.5,15.5 Z"/></g>
<g><path style="opacity:0.024" fill="#a8a8a8" d="M 45.5,14.5 C 46.525,14.8966 46.6917,15.5632 46,16.5C 45.5357,15.9056 45.369,15.2389 45.5,14.5 Z"/></g>
<g><path style="opacity:1" fill="#df685f" d="M 137.5,13.5 C 142.883,14.7344 147.883,16.7344 152.5,19.5C 150.5,20.1667 149.167,21.5 148.5,23.5C 143.894,22.2455 139.228,21.2455 134.5,20.5C 135.758,18.3131 136.758,15.9798 137.5,13.5 Z"/></g>
<g><path style="opacity:1" fill="#f4bdaa" d="M 128.5,7.5 C 130.027,7.42702 131.027,8.09368 131.5,9.5C 127.23,15.7223 122.73,21.7223 118,27.5C 117.544,31.121 115.711,33.7877 112.5,35.5C 111.263,34.0351 110.263,32.3684 109.5,30.5C 114.524,26.3094 119.024,21.6428 123,16.5C 125.327,13.7693 127.16,10.7693 128.5,7.5 Z"/></g>
<g><path style="opacity:0.006" fill="#fefffe" d="M 16.5,26.5 C 15.8333,26.5 15.5,26.8333 15.5,27.5C 13.0248,27.2533 13.0248,26.5866 15.5,25.5C 16.1067,25.6236 16.44,25.9569 16.5,26.5 Z"/></g>
<g><path style="opacity:1" fill="#f0a696" d="M 131.5,9.5 C 133.777,10.4486 135.777,11.7819 137.5,13.5C 136.758,15.9798 135.758,18.3131 134.5,20.5C 126.185,18.1618 122.518,21.1618 123.5,29.5C 122.71,30.6085 122.21,31.9419 122,33.5C 119.302,34.6983 117.469,36.6983 116.5,39.5C 115.675,40.3857 114.675,40.719 113.5,40.5C 112.662,40.1583 112.328,39.4916 112.5,38.5C 112.5,37.5 112.5,36.5 112.5,35.5C 115.711,33.7877 117.544,31.121 118,27.5C 122.73,21.7223 127.23,15.7223 131.5,9.5 Z"/></g>
<g><path style="opacity:0.02" fill="#707070" d="M 193.5,30.5 C 192.833,30.5 192.5,30.1667 192.5,29.5C 192.747,27.0248 193.413,27.0248 194.5,29.5C 194.376,30.1067 194.043,30.44 193.5,30.5 Z"/></g>
<g><path style="opacity:0.012" fill="#a5a5a5" d="M 10.5,32.5 C 9.83333,32.5 9.5,32.8333 9.5,33.5C 8.28749,32.5029 8.45415,31.5029 10,30.5C 10.4643,31.0944 10.631,31.7611 10.5,32.5 Z"/></g>
<g><path style="opacity:1" fill="#be3432" d="M 152.5,19.5 C 166.774,24.9617 178.44,33.795 187.5,46C 186.833,46.6667 186.167,46.6667 185.5,46C 175.673,34.4182 163.34,26.9182 148.5,23.5C 149.167,21.5 150.5,20.1667 152.5,19.5 Z"/></g>
<g><path style="opacity:0.996" fill="#686868" d="M 55.5,37.5 C 56.404,38.209 56.7373,39.209 56.5,40.5C 75.1128,38.7678 93.7795,38.1012 112.5,38.5C 112.328,39.4916 112.662,40.1583 113.5,40.5C 115.327,45.867 114.66,50.867 111.5,55.5C 111.167,55.5 110.833,55.5 110.5,55.5C 108.565,51.3327 107.065,46.9994 106,42.5C 100.033,38.753 93.8668,38.5864 87.5,42C 83.3319,45.002 79.6652,48.502 76.5,52.5C 73.3772,57.4572 69.3772,61.6239 64.5,65C 60.8084,65.6573 57.4751,64.8239 54.5,62.5C 51.5706,60.2288 49.9039,57.2288 49.5,53.5C 50.3374,48.8288 52.0041,44.4955 54.5,40.5C 54.5569,39.391 54.8902,38.391 55.5,37.5 Z"/></g>
<g><path style="opacity:0.008" fill="#8d8d8d" d="M 199.5,37.5 C 199.5,38.1667 199.5,38.8333 199.5,39.5C 199.167,39.5 198.833,39.5 198.5,39.5C 198.328,38.5084 198.662,37.8417 199.5,37.5 Z"/></g>
<g><path style="opacity:0.997" fill="#b7b7b7" d="M 110.5,55.5 C 106.76,58.3667 102.76,60.7001 98.5,62.5C 96.1815,62.9925 94.1815,63.9925 92.5,65.5C 86.3078,68.0441 80.6411,71.3774 75.5,75.5C 72.9528,76.9336 70.6195,78.6002 68.5,80.5C 63.8333,84.1667 59.1667,87.8333 54.5,91.5C 55.0447,89.4068 55.878,87.4068 57,85.5C 65.4093,75.5924 73.2426,65.2591 80.5,54.5C 79.6798,52.8888 78.3464,52.2222 76.5,52.5C 79.6652,48.502 83.3319,45.002 87.5,42C 93.8668,38.5864 100.033,38.753 106,42.5C 107.065,46.9994 108.565,51.3327 110.5,55.5 Z"/></g>
<g><path style="opacity:0.998" fill="#b8b8b8" d="M 54.5,40.5 C 52.0041,44.4955 50.3374,48.8288 49.5,53.5C 49.9039,57.2288 51.5706,60.2288 54.5,62.5C 40.7192,67.2205 27.3858,66.0539 14.5,59C 11.0682,56.633 10.7348,53.9663 13.5,51C 26.7694,45.9133 40.4361,42.4133 54.5,40.5 Z"/></g>
<g><path style="opacity:0.999" fill="#6a6a6a" d="M 127.5,40.5 C 140.134,42.3192 152.467,45.4859 164.5,50C 172.778,53.1421 180.111,57.6421 186.5,63.5C 166.578,71.4326 146.578,71.4326 126.5,63.5C 127.162,59.5341 127.495,55.5341 127.5,51.5C 127.5,48.8333 127.5,46.1667 127.5,43.5C 127.5,42.5 127.5,41.5 127.5,40.5 Z"/></g>
<g><path style="opacity:0.016" fill="#d3d3d3" d="M -0.5,46.5 C 0.833333,47.1667 0.833333,47.8333 -0.5,48.5C -0.5,47.8333 -0.5,47.1667 -0.5,46.5 Z"/></g>
<g><path style="opacity:0.016" fill="#7f807f" d="M 198.5,56.5 C 198.833,56.5 199.167,56.5 199.5,56.5C 199.5,56.8333 199.5,57.1667 199.5,57.5C 199.167,57.1667 198.833,56.8333 198.5,56.5 Z"/></g>
<g><path style="opacity:0.004" fill="#696969" d="M 197.5,57.5 C 197.833,57.5 198.167,57.5 198.5,57.5C 198.058,60.3321 196.725,61.3321 194.5,60.5C 195.167,60.5 195.5,60.1667 195.5,59.5C 196.167,59.5 196.5,59.1667 196.5,58.5C 197.167,58.5 197.5,58.1667 197.5,57.5 Z"/></g>
<g><path style="opacity:0.999" fill="#ea615b" d="M 127.5,43.5 C 127.5,46.1667 127.5,48.8333 127.5,51.5C 119.856,62.7441 111.689,73.7441 103,84.5C 98.6877,88.3514 94.521,93.0181 90.5,98.5C 88.6404,99.3249 86.9738,100.325 85.5,101.5C 84.8333,101.5 84.1667,101.5 83.5,101.5C 83.1667,101.5 82.8333,101.5 82.5,101.5C 84.1396,97.5591 86.3063,93.8924 89,90.5C 96.3333,81.8333 103.667,73.1667 111,64.5C 114.797,56.3654 119.797,49.0321 126,42.5C 126.383,43.056 126.883,43.3893 127.5,43.5 Z"/></g>
<g><path style="opacity:0.982" fill="#c3c3c3" d="M 126.5,63.5 C 146.578,71.4326 166.578,71.4326 186.5,63.5C 187.167,63.5 187.833,63.5 188.5,63.5C 189.167,63.5 189.5,63.8333 189.5,64.5C 190.167,64.5 190.5,64.8333 190.5,65.5C 193.18,69.5368 195.846,73.5368 198.5,77.5C 198.263,78.791 198.596,79.791 199.5,80.5C 199.5,84.5 199.5,88.5 199.5,92.5C 198.662,92.8417 198.328,93.5084 198.5,94.5C 197.833,94.5 197.5,94.8333 197.5,95.5C 196.833,95.5 196.5,95.8333 196.5,96.5C 194.5,97.8333 192.833,99.5 191.5,101.5C 187.646,102.93 183.979,104.597 180.5,106.5C 173.257,108.032 165.924,108.698 158.5,108.5C 155.727,107.343 152.727,106.676 149.5,106.5C 145.908,104.311 141.908,103.311 137.5,103.5C 134.473,103.287 131.807,103.953 129.5,105.5C 128.508,105.328 127.842,105.662 127.5,106.5C 126.508,106.328 125.842,106.662 125.5,107.5C 124.833,107.5 124.5,107.833 124.5,108.5C 123.508,108.328 122.842,108.662 122.5,109.5C 121.833,109.5 121.5,109.833 121.5,110.5C 119.246,111.124 117.579,112.457 116.5,114.5C 114.246,115.124 112.579,116.457 111.5,118.5C 107.646,119.93 103.979,121.597 100.5,123.5C 100.167,123.5 99.8333,123.5 99.5,123.5C 100.709,120.279 102.376,117.279 104.5,114.5C 121.324,103.405 128.324,87.7381 125.5,67.5C 125.433,66.0413 125.766,64.7079 126.5,63.5 Z M 149.5,106.5 C 152.727,106.676 155.727,107.343 158.5,108.5C 155.171,108.785 152.171,108.118 149.5,106.5 Z"/></g>
<g><path style="opacity:0.016" fill="#dedede" d="M -0.5,73.5 C -0.166667,73.5 0.166667,73.5 0.5,73.5C 0.5,74.5 0.5,75.5 0.5,76.5C 0.166667,76.5 -0.166667,76.5 -0.5,76.5C -0.5,75.5 -0.5,74.5 -0.5,73.5 Z"/></g>
<g><path style="opacity:0.016" fill="#a9a9a9" d="M 199.5,75.5 C 199.5,76.1667 199.5,76.8333 199.5,77.5C 199.167,77.5 198.833,77.5 198.5,77.5C 198.328,76.5084 198.662,75.8417 199.5,75.5 Z"/></g>
<g><path style="opacity:0.004" fill="#e9e9e9" d="M 0.5,76.5 C 0.833333,76.5 1.16667,76.5 1.5,76.5C 1.16667,79.1667 0.833333,79.1667 0.5,76.5 Z"/></g>
<g><path style="opacity:1" fill="#eb534f" d="M 127.5,51.5 C 127.495,55.5341 127.162,59.5341 126.5,63.5C 125.766,64.7079 125.433,66.0413 125.5,67.5C 113.379,81.9104 100.879,97.577 88,114.5C 86.9887,115.337 85.8221,115.67 84.5,115.5C 84.5,114.5 84.5,113.5 84.5,112.5C 85.0579,109.656 85.7245,106.822 86.5,104C 86.472,102.93 86.1386,102.097 85.5,101.5C 86.9738,100.325 88.6404,99.3249 90.5,98.5C 94.521,93.0181 98.6877,88.3514 103,84.5C 111.689,73.7441 119.856,62.7441 127.5,51.5 Z"/></g>
<g><path style="opacity:1" fill="#df4342" d="M 125.5,67.5 C 128.324,87.7381 121.324,103.405 104.5,114.5C 102.376,117.279 100.709,120.279 99.5,123.5C 98.8333,124.833 98.1667,126.167 97.5,127.5C 96.8333,127.5 96.5,127.833 96.5,128.5C 95.8333,128.5 95.5,128.833 95.5,129.5C 94.8333,130.167 94.1667,130.833 93.5,131.5C 93.5792,130.07 93.2458,128.736 92.5,127.5C 92.9377,126.494 93.6043,126.494 94.5,127.5C 95.4287,126.311 95.762,124.978 95.5,123.5C 93.1667,123.5 90.8333,123.5 88.5,123.5C 88.9166,127.817 88.2499,131.817 86.5,135.5C 87.239,131.985 87.239,128.652 86.5,125.5C 85.925,123.589 84.925,121.922 83.5,120.5C 83.1936,117.615 83.5269,114.948 84.5,112.5C 84.5,113.5 84.5,114.5 84.5,115.5C 85.8221,115.67 86.9887,115.337 88,114.5C 100.879,97.577 113.379,81.9104 125.5,67.5 Z"/></g>
<g><path style="opacity:1" fill="#ec756c" d="M 123.5,29.5 C 124.809,33.0857 126.142,36.7523 127.5,40.5C 127.5,41.5 127.5,42.5 127.5,43.5C 126.883,43.3893 126.383,43.056 126,42.5C 119.797,49.0321 114.797,56.3654 111,64.5C 103.667,73.1667 96.3333,81.8333 89,90.5C 86.3063,93.8924 84.1396,97.5591 82.5,101.5C 81.2921,102.234 79.9587,102.567 78.5,102.5C 81.9993,97.4456 85.3327,92.1122 88.5,86.5C 95.8793,79.6173 102.379,71.9507 108,63.5C 109.445,60.9096 110.612,58.243 111.5,55.5C 114.66,50.867 115.327,45.867 113.5,40.5C 114.675,40.719 115.675,40.3857 116.5,39.5C 117.469,36.6983 119.302,34.6983 122,33.5C 122.21,31.9419 122.71,30.6085 123.5,29.5 Z"/></g>
<g><path style="opacity:0.02" fill="#aaaaaa" d="M 15.5,92.5 C 16.1667,92.5 16.5,92.8333 16.5,93.5C 15.5029,94.7125 14.5029,94.5458 13.5,93C 14.0944,92.5357 14.7611,92.369 15.5,92.5 Z"/></g>
<g><path style="opacity:0.012" fill="#fefffe" d="M 198.5,94.5 C 198.833,94.5 199.167,94.5 199.5,94.5C 199.5,94.8333 199.5,95.1667 199.5,95.5C 199.167,95.1667 198.833,94.8333 198.5,94.5 Z"/></g>
<g><path style="opacity:0.008" fill="#828282" d="M 197.5,95.5 C 197.833,95.5 198.167,95.5 198.5,95.5C 197.968,98.4596 197.301,98.7929 196.5,96.5C 197.167,96.5 197.5,96.1667 197.5,95.5 Z"/></g>
<g><path style="opacity:0.016" fill="#bebfbe" d="M 191.5,101.5 C 192.833,102.167 192.833,102.167 191.5,101.5 Z"/></g>
<g><path style="opacity:0.004" fill="#797979" d="M 36.5,102.5 C 37.5676,103.434 38.901,103.768 40.5,103.5C 40.5,103.833 40.5,104.167 40.5,104.5C 37.7294,104.579 35.0627,104.079 32.5,103C 33.7932,102.51 35.1266,102.343 36.5,102.5 Z"/></g>
<g><path style="opacity:0.01" fill="#f5eee3" d="M 40.5,104.5 C 41.791,104.263 42.791,104.596 43.5,105.5C 42.8333,105.5 42.5,105.833 42.5,106.5C 41.5,106.167 40.8333,105.5 40.5,104.5 Z"/></g>
<g><path style="opacity:0.008" fill="#e9e9e9" d="M 129.5,106.5 C 129.5,106.167 129.5,105.833 129.5,105.5C 132.167,105.833 132.167,106.167 129.5,106.5 Z"/></g>
<g><path style="opacity:0.004" fill="#e9e9e9" d="M 127.5,107.5 C 127.5,107.167 127.5,106.833 127.5,106.5C 128.167,106.5 128.833,106.5 129.5,106.5C 129.158,107.338 128.492,107.672 127.5,107.5 Z"/></g>
<g><path style="opacity:0.008" fill="#989898" d="M 125.5,108.5 C 125.5,108.167 125.5,107.833 125.5,107.5C 126.167,107.5 126.833,107.5 127.5,107.5C 127.158,108.338 126.492,108.672 125.5,108.5 Z"/></g>
<g><path style="opacity:0.016" fill="#a2a2a2" d="M 180.5,106.5 C 182.347,106.234 183.014,106.568 182.5,107.5C 180.902,108.485 179.235,108.651 177.5,108C 178.737,107.768 179.737,107.268 180.5,106.5 Z"/></g>
<g><path style="opacity:0.934" fill="#fab6a4" d="M 92.5,65.5 C 87.8676,73.7516 82.0343,81.0849 75,87.5C 72.2582,91.9737 69.2582,96.307 66,100.5C 63.8676,103.231 61.2009,105.231 58,106.5C 52.523,115.789 45.8563,124.122 38,131.5C 35.9771,133.769 35.1437,136.436 35.5,139.5C 35.1667,139.5 34.8333,139.5 34.5,139.5C 31.779,139.963 29.1123,140.629 26.5,141.5C 26.3433,140.127 26.51,138.793 27,137.5C 36.404,128.426 44.7373,118.426 52,107.5C 54.4878,105.257 57.1544,103.257 60,101.5C 64.0948,93.0549 69.4282,85.3883 76,78.5C 76.7401,77.2506 76.5735,76.2506 75.5,75.5C 80.6411,71.3774 86.3078,68.0441 92.5,65.5 Z"/></g>
<g><path style="opacity:0.016" fill="#bebfbe" d="M 124.5,108.5 C 124.833,108.5 125.167,108.5 125.5,108.5C 125.315,109.17 124.981,109.17 124.5,108.5 Z"/></g>
<g><path style="opacity:0.776" fill="#fd594f" d="M 82.5,101.5 C 82.8333,101.5 83.1667,101.5 83.5,101.5C 83.3921,103.783 82.5588,105.783 81,107.5C 75.2736,113.727 70.107,120.394 65.5,127.5C 63.8212,127.285 62.8212,127.952 62.5,129.5C 62.1667,129.5 61.8333,129.5 61.5,129.5C 59.8333,129.5 58.1667,129.5 56.5,129.5C 56.3433,128.127 56.51,126.793 57,125.5C 63.419,116.922 70.5857,109.255 78.5,102.5C 79.9587,102.567 81.2921,102.234 82.5,101.5 Z"/></g>
<g><path style="opacity:0.008" fill="#8d8d8d" d="M 122.5,110.5 C 122.5,110.167 122.5,109.833 122.5,109.5C 123.167,109.5 123.833,109.5 124.5,109.5C 124.158,110.338 123.492,110.672 122.5,110.5 Z"/></g>
<g><path style="opacity:0.012" fill="#bdbdbd" d="M 158.5,110.5 C 162.646,109.353 166.98,109.186 171.5,110C 167.179,110.499 162.846,110.666 158.5,110.5 Z"/></g>
<g><path style="opacity:0.945" fill="#fbc9b4" d="M 75.5,75.5 C 76.5735,76.2506 76.7401,77.2506 76,78.5C 69.4282,85.3883 64.0948,93.0549 60,101.5C 57.1544,103.257 54.4878,105.257 52,107.5C 44.7373,118.426 36.404,128.426 27,137.5C 26.51,138.793 26.3433,140.127 26.5,141.5C 25.609,142.11 24.609,142.443 23.5,142.5C 24.0447,140.407 24.878,138.407 26,136.5C 30.3597,130.974 34.5264,125.307 38.5,119.5C 41.5361,115.053 45.3694,111.387 50,108.5C 54.016,101.153 59.016,94.4861 65,88.5C 66.5023,85.9816 68.0023,83.4816 69.5,81C 69.2716,80.6012 68.9382,80.4346 68.5,80.5C 70.6195,78.6002 72.9528,76.9336 75.5,75.5 Z"/></g>
<g><path style="opacity:0.02" fill="#cbcccb" d="M 121.5,110.5 C 121.833,110.5 122.167,110.5 122.5,110.5C 122.315,111.17 121.981,111.17 121.5,110.5 Z"/></g>
<g><path style="opacity:0.862" fill="#f3887b" d="M 110.5,55.5 C 110.833,55.5 111.167,55.5 111.5,55.5C 110.612,58.243 109.445,60.9096 108,63.5C 102.379,71.9507 95.8793,79.6173 88.5,86.5C 85.3327,92.1122 81.9993,97.4456 78.5,102.5C 75.1933,103.051 71.8599,103.384 68.5,103.5C 63.7624,112.105 57.9291,120.105 51,127.5C 50.235,129.066 50.4017,130.399 51.5,131.5C 51.5,131.833 51.5,132.167 51.5,132.5C 50.8333,132.5 50.5,132.833 50.5,133.5C 49.5084,133.328 48.8417,133.662 48.5,134.5C 47.5084,134.328 46.8417,134.662 46.5,135.5C 45.1667,135.833 43.8333,136.167 42.5,136.5C 43.0464,134.697 43.8797,133.03 45,131.5C 45.3333,132.167 45.6667,132.833 46,133.5C 49.5676,126.263 53.5676,119.263 58,112.5C 65.2096,106.796 70.7096,99.7964 74.5,91.5C 75.8221,91.67 76.9887,91.3366 78,90.5C 84.7878,81.3769 91.9545,72.5435 99.5,64C 98.944,63.6174 98.6107,63.1174 98.5,62.5C 102.76,60.7001 106.76,58.3667 110.5,55.5 Z"/></g>
<g><path style="opacity:0.02" fill="#cbcccb" d="M 116.5,114.5 C 117.833,115.167 117.833,115.167 116.5,114.5 Z"/></g>
<g><path style="opacity:0.969" fill="#f2d4be" d="M 68.5,80.5 C 68.9382,80.4346 69.2716,80.6012 69.5,81C 68.0023,83.4816 66.5023,85.9816 65,88.5C 59.016,94.4861 54.016,101.153 50,108.5C 45.3694,111.387 41.5361,115.053 38.5,119.5C 34.5264,125.307 30.3597,130.974 26,136.5C 24.878,138.407 24.0447,140.407 23.5,142.5C 21.5447,142.201 20.2114,141.201 19.5,139.5C 22.0694,135.365 24.4028,131.032 26.5,126.5C 27.1667,126.5 27.5,126.167 27.5,125.5C 32.0885,118.904 37.0885,112.57 42.5,106.5C 43.1667,106.5 43.5,106.167 43.5,105.5C 43.8333,105.5 44.1667,105.5 44.5,105.5C 48.2141,101.117 51.5475,96.4503 54.5,91.5C 59.1667,87.8333 63.8333,84.1667 68.5,80.5 Z"/></g>
<g><path style="opacity:0.895" fill="#f69c8c" d="M 98.5,62.5 C 98.6107,63.1174 98.944,63.6174 99.5,64C 91.9545,72.5435 84.7878,81.3769 78,90.5C 76.9887,91.3366 75.8221,91.67 74.5,91.5C 70.7096,99.7964 65.2096,106.796 58,112.5C 53.5676,119.263 49.5676,126.263 46,133.5C 45.6667,132.833 45.3333,132.167 45,131.5C 43.8797,133.03 43.0464,134.697 42.5,136.5C 40.2872,137.773 37.9538,138.773 35.5,139.5C 35.1437,136.436 35.9771,133.769 38,131.5C 45.8563,124.122 52.523,115.789 58,106.5C 61.2009,105.231 63.8676,103.231 66,100.5C 69.2582,96.307 72.2582,91.9737 75,87.5C 82.0343,81.0849 87.8676,73.7516 92.5,65.5C 94.1815,63.9925 96.1815,62.9925 98.5,62.5 Z"/></g>
<g><path style="opacity:0.016" fill="#bebfbe" d="M 111.5,118.5 C 112.833,119.167 112.833,119.167 111.5,118.5 Z"/></g>
<g><path style="opacity:0.753" fill="#fc3a33" d="M 83.5,101.5 C 84.1667,101.5 84.8333,101.5 85.5,101.5C 86.1386,102.097 86.472,102.93 86.5,104C 85.7245,106.822 85.0579,109.656 84.5,112.5C 83.5269,114.948 83.1936,117.615 83.5,120.5C 82.7321,119.737 82.2321,118.737 82,117.5C 81.3005,119.032 80.1338,120.032 78.5,120.5C 77.6143,121.325 77.281,122.325 77.5,123.5C 79.099,123.232 80.4324,123.566 81.5,124.5C 79.4727,124.338 77.4727,124.505 75.5,125C 74.944,125.383 74.6107,125.883 74.5,126.5C 74.1667,126.5 73.8333,126.5 73.5,126.5C 70.7212,126.279 68.0545,126.612 65.5,127.5C 70.107,120.394 75.2736,113.727 81,107.5C 82.5588,105.783 83.3921,103.783 83.5,101.5 Z"/></g>
<g><path style="opacity:0.004" fill="#7e7d73" d="M 27.5,125.5 C 26.8333,125.5 26.5,125.833 26.5,126.5C 25.2875,125.503 25.4542,124.503 27,123.5C 27.4643,124.094 27.631,124.761 27.5,125.5 Z"/></g>
<g><path style="opacity:0.841" fill="#fd796c" d="M 78.5,102.5 C 70.5857,109.255 63.419,116.922 57,125.5C 56.51,126.793 56.3433,128.127 56.5,129.5C 54.597,129.796 52.9303,130.463 51.5,131.5C 50.4017,130.399 50.235,129.066 51,127.5C 57.9291,120.105 63.7624,112.105 68.5,103.5C 71.8599,103.384 75.1933,103.051 78.5,102.5 Z"/></g>
<g><path style="opacity:0.008" fill="#977971" d="M 100.5,123.5 C 104.243,123.459 104.41,124.126 101,125.5C 100.536,124.906 100.369,124.239 100.5,123.5 Z"/></g>
<g><path style="opacity:0.427" fill="#770b06" d="M 81.5,124.5 C 81.7845,126.415 81.4511,128.081 80.5,129.5C 80.5,128.167 80.5,126.833 80.5,125.5C 79.209,125.263 78.209,125.596 77.5,126.5C 76.5,126.5 75.5,126.5 74.5,126.5C 74.6107,125.883 74.944,125.383 75.5,125C 77.4727,124.505 79.4727,124.338 81.5,124.5 Z"/></g>
<g><path style="opacity:0.792" fill="#7b251e" d="M 73.5,126.5 C 73.5,126.833 73.5,127.167 73.5,127.5C 71.901,127.232 70.5676,127.566 69.5,128.5C 67.901,128.232 66.5676,128.566 65.5,129.5C 64.5,129.5 63.5,129.5 62.5,129.5C 62.8212,127.952 63.8212,127.285 65.5,127.5C 68.0545,126.612 70.7212,126.279 73.5,126.5 Z"/></g>
<g><path style="opacity:0.012" fill="#7e0d03" d="M 73.5,128.5 C 73.5,128.167 73.5,127.833 73.5,127.5C 74.8333,127.5 76.1667,127.5 77.5,127.5C 76.4324,128.434 75.099,128.768 73.5,128.5 Z"/></g>
<g><path style="opacity:0.012" fill="#bb0000" d="M 77.5,127.5 C 77.5,127.167 77.5,126.833 77.5,126.5C 79.1765,127.183 79.8432,128.517 79.5,130.5C 79.1667,130.5 78.8333,130.5 78.5,130.5C 78.7373,129.209 78.404,128.209 77.5,127.5 Z"/></g>
<g><path style="opacity:0.012" fill="#a90000" d="M 97.5,127.5 C 98.8333,128.167 98.8333,128.167 97.5,127.5 Z"/></g>
<g><path style="opacity:0.006" fill="#421306" d="M 69.5,128.5 C 70.8333,128.5 72.1667,128.5 73.5,128.5C 72.1667,129.833 70.8333,129.833 69.5,128.5 Z"/></g>
<g><path style="opacity:0.012" fill="#540000" d="M 96.5,128.5 C 96.8333,128.5 97.1667,128.5 97.5,128.5C 97.3147,129.17 96.9813,129.17 96.5,128.5 Z"/></g>
<g><path style="opacity:0.812" fill="#75322c" d="M 56.5,129.5 C 58.1667,129.5 59.8333,129.5 61.5,129.5C 61.5,129.833 61.5,130.167 61.5,130.5C 59.901,130.232 58.5676,130.566 57.5,131.5C 55.901,131.232 54.5676,131.566 53.5,132.5C 52.8333,132.5 52.1667,132.5 51.5,132.5C 51.5,132.167 51.5,131.833 51.5,131.5C 52.9303,130.463 54.597,129.796 56.5,129.5 Z"/></g>
<g><path style="opacity:0.012" fill="#922e07" d="M 65.5,130.5 C 65.5,130.167 65.5,129.833 65.5,129.5C 69.5,129.833 69.5,130.167 65.5,130.5 Z"/></g>
<g><path style="opacity:0.016" fill="#7d3015" d="M 61.5,131.5 C 61.5,131.167 61.5,130.833 61.5,130.5C 62.8333,130.5 64.1667,130.5 65.5,130.5C 64.4324,131.434 63.099,131.768 61.5,131.5 Z"/></g>
<g><path style="opacity:0.004" fill="#2f0e01" d="M 95.5,129.5 C 95.8333,129.5 96.1667,129.5 96.5,129.5C 96.1667,132.167 95.8333,132.167 95.5,129.5 Z"/></g>
<g><path style="opacity:0.016" fill="#7e302c" d="M 57.5,132.5 C 57.5,132.167 57.5,131.833 57.5,131.5C 58.8333,131.5 60.1667,131.5 61.5,131.5C 60.4324,132.434 59.099,132.768 57.5,132.5 Z"/></g>
<g><path style="opacity:0.006" fill="#402423" d="M 53.5,133.5 C 53.5,133.167 53.5,132.833 53.5,132.5C 54.8333,132.5 56.1667,132.5 57.5,132.5C 56.4324,133.434 55.099,133.768 53.5,133.5 Z"/></g>
<g><path style="opacity:0.012" fill="#672421" d="M 50.5,134.5 C 50.5,134.167 50.5,133.833 50.5,133.5C 51.5,133.5 52.5,133.5 53.5,133.5C 52.791,134.404 51.791,134.737 50.5,134.5 Z"/></g>
<g><path style="opacity:0.012" fill="#761106" d="M 78.5,130.5 C 78.5,132.167 78.5,133.833 78.5,135.5C 77.1667,133.833 77.1667,132.167 78.5,130.5 Z"/></g>
<g><path style="opacity:0.008" fill="#240800" d="M 94.5,132.5 C 95.525,132.897 95.6917,133.563 95,134.5C 94.5357,133.906 94.369,133.239 94.5,132.5 Z"/></g>
<g><path style="opacity:0.012" fill="#891b1e" d="M 48.5,135.5 C 48.5,135.167 48.5,134.833 48.5,134.5C 49.1667,134.5 49.8333,134.5 50.5,134.5C 50.1583,135.338 49.4916,135.672 48.5,135.5 Z"/></g>
<g><path style="opacity:0.553" fill="#550f03" d="M 93.5,132.5 C 93.1249,134.698 92.4582,136.698 91.5,138.5C 91.0535,135.99 91.7202,133.99 93.5,132.5 Z"/></g>
<g><path style="opacity:0.008" fill="#50221f" d="M 46.5,135.5 C 47.1667,135.5 47.8333,135.5 48.5,135.5C 47.8333,136.833 47.1667,136.833 46.5,135.5 Z"/></g>
<g><path style="opacity:0.008" fill="#6a0d02" d="M 93.5,135.5 C 94.5735,136.251 94.7401,137.251 94,138.5C 93.5172,137.552 93.3505,136.552 93.5,135.5 Z"/></g>
<g><path style="opacity:0.012" fill="#393939" d="M 16.5,139.5 C 17.525,139.897 17.6917,140.563 17,141.5C 16.5357,140.906 16.369,140.239 16.5,139.5 Z"/></g>
<g><path style="opacity:0.745" fill="#7d6057" d="M 19.5,139.5 C 20.2114,141.201 21.5447,142.201 23.5,142.5C 24.609,142.443 25.609,142.11 26.5,141.5C 29.1123,140.629 31.779,139.963 34.5,139.5C 32.9275,140.687 31.2608,141.687 29.5,142.5C 26.7965,142.955 24.1298,143.622 21.5,144.5C 18.9365,144.263 18.9365,143.763 21.5,143C 20.552,142.517 19.552,142.351 18.5,142.5C 18.2627,141.209 18.596,140.209 19.5,139.5 Z"/></g>
<g><path style="opacity:0.016" fill="#7e5c5a" d="M 29.5,143.5 C 29.5,143.167 29.5,142.833 29.5,142.5C 33.5,142.833 33.5,143.167 29.5,143.5 Z"/></g>
<g><path style="opacity:0.008" fill="#98362b" d="M 27.5,144.5 C 27.8417,143.662 28.5084,143.328 29.5,143.5C 29.1583,144.338 28.4916,144.672 27.5,144.5 Z"/></g>
<g><path style="opacity:0.614" fill="#4b1103" d="M 78.5,140.5 C 78.5,143.167 78.5,145.833 78.5,148.5C 78.1667,148.5 77.8333,148.5 77.5,148.5C 77.7373,147.209 77.404,146.209 76.5,145.5C 76.7959,143.597 77.4625,141.93 78.5,140.5 Z"/></g>
<g><path style="opacity:0.012" fill="#594a4a" d="M 24.5,145.5 C 25.209,144.596 26.209,144.263 27.5,144.5C 26.791,145.404 25.791,145.737 24.5,145.5 Z"/></g>
<g><path style="opacity:0.608" fill="#e00402" d="M 83.5,120.5 C 84.925,121.922 85.925,123.589 86.5,125.5C 85.8826,125.611 85.3826,125.944 85,126.5C 83.701,132.119 83.3677,137.786 84,143.5C 85.1882,142.437 85.6882,141.103 85.5,139.5C 85.2322,137.901 85.5655,136.568 86.5,135.5C 88.2499,131.817 88.9166,127.817 88.5,123.5C 90.8333,123.5 93.1667,123.5 95.5,123.5C 95.762,124.978 95.4287,126.311 94.5,127.5C 93.6043,126.494 92.9377,126.494 92.5,127.5C 93.2458,128.736 93.5792,130.07 93.5,131.5C 93.5,131.833 93.5,132.167 93.5,132.5C 91.7202,133.99 91.0535,135.99 91.5,138.5C 91.1667,140.5 90.8333,142.5 90.5,144.5C 89.8023,147.896 89.8023,151.229 90.5,154.5C 90.1924,155.308 89.6924,155.975 89,156.5C 87.9152,155.264 87.0819,153.931 86.5,152.5C 86.2172,151.711 85.7172,151.044 85,150.5C 84.6667,152.167 84.3333,153.833 84,155.5C 83.6411,152.456 82.9745,152.122 82,154.5C 81.6174,153.944 81.1174,153.611 80.5,153.5C 80.8432,151.517 80.1765,150.183 78.5,149.5C 78.5,149.167 78.5,148.833 78.5,148.5C 78.5,145.833 78.5,143.167 78.5,140.5C 78.5,138.833 78.5,137.167 78.5,135.5C 79.4511,134.081 79.7845,132.415 79.5,130.5C 80.1667,130.5 80.5,130.167 80.5,129.5C 81.4511,128.081 81.7845,126.415 81.5,124.5C 80.4324,123.566 79.099,123.232 77.5,123.5C 77.281,122.325 77.6143,121.325 78.5,120.5C 80.1338,120.032 81.3005,119.032 82,117.5C 82.2321,118.737 82.7321,119.737 83.5,120.5 Z M 86.5,125.5 C 87.239,128.652 87.239,131.985 86.5,135.5C 85.5655,136.568 85.2322,137.901 85.5,139.5C 84.8529,138.726 84.5195,137.726 84.5,136.5C 85.3296,132.851 85.9963,129.185 86.5,125.5 Z"/></g>
<g><path style="opacity:0.549" fill="#770c03" d="M 86.5,125.5 C 85.9963,129.185 85.3296,132.851 84.5,136.5C 84.5195,137.726 84.8529,138.726 85.5,139.5C 85.6882,141.103 85.1882,142.437 84,143.5C 83.3677,137.786 83.701,132.119 85,126.5C 85.3826,125.944 85.8826,125.611 86.5,125.5 Z"/></g>
<g><path style="opacity:0.006" fill="#23220b" d="M 24.5,145.5 C 23.7494,146.573 22.7494,146.74 21.5,146C 22.448,145.517 23.448,145.351 24.5,145.5 Z"/></g>
<g><path style="opacity:0.012" fill="#550a02" d="M 76.5,145.5 C 76.5,146.5 76.5,147.5 76.5,148.5C 75.1667,147.5 75.1667,146.5 76.5,145.5 Z"/></g>
<g><path style="opacity:0.004" fill="#000000" d="M 93.5,148.5 C 93.369,147.761 93.5357,147.094 94,146.5C 94.6917,147.437 94.525,148.103 93.5,148.5 Z"/></g>
<g><path style="opacity:0.012" fill="#670d07" d="M 76.5,148.5 C 76.8333,148.5 77.1667,148.5 77.5,148.5C 77.5,149.5 77.5,150.5 77.5,151.5C 76.596,150.791 76.2627,149.791 76.5,148.5 Z"/></g>
<g><path style="opacity:0.004" fill="#3b1103" d="M 92.5,148.5 C 92.8333,148.5 93.1667,148.5 93.5,148.5C 93.1667,151.167 92.8333,151.167 92.5,148.5 Z"/></g>
<g><path style="opacity:0.647" fill="#5e1004" d="M 78.5,149.5 C 80.1765,150.183 80.8432,151.517 80.5,153.5C 80.5,154.167 80.5,154.833 80.5,155.5C 80.1667,155.5 79.8333,155.5 79.5,155.5C 79.7678,153.901 79.4345,152.568 78.5,151.5C 78.5,150.833 78.5,150.167 78.5,149.5 Z"/></g>
<g><path style="opacity:0.012" fill="#8c0002" d="M 93.5,153.5 C 93.1667,153.5 92.8333,153.5 92.5,153.5C 92.8333,150.833 93.1667,150.833 93.5,153.5 Z"/></g>
<g><path style="opacity:0.006" fill="#421306" d="M 77.5,151.5 C 77.8333,151.5 78.1667,151.5 78.5,151.5C 78.5,152.833 78.5,154.167 78.5,155.5C 77.5655,154.432 77.2322,153.099 77.5,151.5 Z"/></g>
<g><path style="opacity:0.012" fill="#3b0800" d="M 93.5,153.5 C 94.525,153.897 94.6917,154.563 94,155.5C 93.5357,154.906 93.369,154.239 93.5,153.5 Z"/></g>
<g><path style="opacity:0.6" fill="#830d05" d="M 90.5,144.5 C 91.6737,145.514 92.3404,146.847 92.5,148.5C 89.8333,150.167 89.8333,151.833 92.5,153.5C 92.6287,155.216 92.962,156.883 93.5,158.5C 91.428,155.846 89.7613,156.18 88.5,159.5C 87.6618,159.842 87.3284,160.508 87.5,161.5C 86.5655,160.432 86.2322,159.099 86.5,157.5C 85.1667,155.833 85.1667,154.167 86.5,152.5C 87.0819,153.931 87.9152,155.264 89,156.5C 89.6924,155.975 90.1924,155.308 90.5,154.5C 89.8023,151.229 89.8023,147.896 90.5,144.5 Z"/></g>
<g><path style="opacity:0.012" fill="#550a02" d="M 78.5,155.5 C 78.8333,155.5 79.1667,155.5 79.5,155.5C 79.5,156.5 79.5,157.5 79.5,158.5C 78.596,157.791 78.2627,156.791 78.5,155.5 Z"/></g>
<g><path style="opacity:0.635" fill="#591004" d="M 80.5,156.5 C 82.3079,157.918 82.9746,159.918 82.5,162.5C 82.1667,162.5 81.8333,162.5 81.5,162.5C 81.7678,160.901 81.4345,159.568 80.5,158.5C 80.5,157.833 80.5,157.167 80.5,156.5 Z"/></g>
<g><path style="opacity:0.008" fill="#a41a0a" d="M 95.5,158.5 C 95.1667,158.5 94.8333,158.5 94.5,158.5C 94.8333,155.833 95.1667,155.833 95.5,158.5 Z"/></g>
<g><path style="opacity:0.012" fill="#8e0f05" d="M 79.5,158.5 C 79.8333,158.5 80.1667,158.5 80.5,158.5C 80.5,159.833 80.5,161.167 80.5,162.5C 79.5655,161.432 79.2322,160.099 79.5,158.5 Z"/></g>
<g><path style="opacity:0.012" fill="#3b0800" d="M 95.5,158.5 C 96.525,158.897 96.6917,159.563 96,160.5C 95.5357,159.906 95.369,159.239 95.5,158.5 Z"/></g>
<g><path style="opacity:0.086" fill="#090000" d="M 88.5,160.5 C 89.3382,160.842 89.6716,161.508 89.5,162.5C 88.8333,162.5 88.5,162.833 88.5,163.5C 87.6618,163.158 87.3284,162.492 87.5,161.5C 88.1667,161.5 88.5,161.167 88.5,160.5 Z"/></g>
<g><path style="opacity:0.006" fill="#270b00" d="M 80.5,162.5 C 80.8333,162.5 81.1667,162.5 81.5,162.5C 81.5,163.833 81.5,165.167 81.5,166.5C 80.5655,165.432 80.2322,164.099 80.5,162.5 Z"/></g>
<g><path style="opacity:0.584" fill="#4d0d02" d="M 89.5,163.5 C 92.7002,167.42 94.3669,172.087 94.5,177.5C 93.5,177.5 92.5,177.5 91.5,177.5C 90.6993,175.958 90.366,174.292 90.5,172.5C 91.2216,172.918 91.7216,173.584 92,174.5C 92.405,172.225 91.905,170.225 90.5,168.5C 90.7373,167.209 90.404,166.209 89.5,165.5C 89.5,164.833 89.5,164.167 89.5,163.5 Z"/></g>
<g><path style="opacity:0.486" fill="#4f0d01" d="M 82.5,163.5 C 85.353,168.839 86.0197,174.506 84.5,180.5C 83.609,181.11 82.609,181.443 81.5,181.5C 85.022,176.761 85.3553,171.761 82.5,166.5C 82.5,165.5 82.5,164.5 82.5,163.5 Z"/></g>
<g><path style="opacity:0.557" fill="#480d01" d="M 88.5,165.5 C 88.8333,165.5 89.1667,165.5 89.5,165.5C 89.2627,166.791 89.596,167.791 90.5,168.5C 90.5,169.833 90.5,171.167 90.5,172.5C 89.0762,170.485 88.4095,168.152 88.5,165.5 Z"/></g>
<g><path style="opacity:0.006" fill="#481105" d="M 81.5,166.5 C 81.8333,166.5 82.1667,166.5 82.5,166.5C 82.1667,173.167 81.8333,173.167 81.5,166.5 Z"/></g>
<g><path style="opacity:0.55" fill="#cb0000" d="M 86.5,152.5 C 85.1667,154.167 85.1667,155.833 86.5,157.5C 86.2322,159.099 86.5655,160.432 87.5,161.5C 87.3284,162.492 87.6618,163.158 88.5,163.5C 88.5,164.167 88.5,164.833 88.5,165.5C 88.4095,168.152 89.0762,170.485 90.5,172.5C 90.366,174.292 90.6993,175.958 91.5,177.5C 92.3984,178.158 93.3984,178.824 94.5,179.5C 94.3333,179.833 94.1667,180.167 94,180.5C 90.9531,180.071 87.7864,180.071 84.5,180.5C 86.0197,174.506 85.353,168.839 82.5,163.5C 82.5,163.167 82.5,162.833 82.5,162.5C 82.9746,159.918 82.3079,157.918 80.5,156.5C 80.5,156.167 80.5,155.833 80.5,155.5C 80.5,154.833 80.5,154.167 80.5,153.5C 81.1174,153.611 81.6174,153.944 82,154.5C 82.9745,152.122 83.6411,152.456 84,155.5C 84.3333,153.833 84.6667,152.167 85,150.5C 85.7172,151.044 86.2172,151.711 86.5,152.5 Z"/></g>
<g><path style="opacity:0.012" fill="#3b0800" d="M 102.5,174.5 C 102.167,174.5 101.833,174.5 101.5,174.5C 101.833,171.833 102.167,171.833 102.5,174.5 Z"/></g>
<g><path style="opacity:0.012" fill="#000000" d="M 102.5,174.5 C 103.833,175.167 103.833,175.167 102.5,174.5 Z"/></g>
<g><path style="opacity:0.008" fill="#460e01" d="M 116.5,175.5 C 117.946,174.387 119.613,174.22 121.5,175C 119.866,175.494 118.199,175.66 116.5,175.5 Z"/></g>
<g><path style="opacity:0.012" fill="#630502" d="M 105.5,176.5 C 108.64,175.359 111.973,175.192 115.5,176C 112.183,176.498 108.85,176.665 105.5,176.5 Z"/></g>
<g><path style="opacity:0.008" fill="#270b00" d="M 122.5,176.5 C 123.601,175.402 124.934,175.235 126.5,176C 125.207,176.49 123.873,176.657 122.5,176.5 Z"/></g>
<g><path style="opacity:0.012" fill="#4b0800" d="M 127.5,177.5 C 128.251,176.427 129.251,176.26 130.5,177C 129.552,177.483 128.552,177.649 127.5,177.5 Z"/></g>
<g><path style="opacity:0.524" fill="#550a01" d="M 101.5,176.5 C 110.173,177.053 118.84,177.387 127.5,177.5C 127.5,178.167 127.833,178.5 128.5,178.5C 128.611,179.117 128.944,179.617 129.5,180C 127.527,180.495 125.527,180.662 123.5,180.5C 122.833,180.5 122.5,180.833 122.5,181.5C 120.143,181.663 117.81,181.497 115.5,181C 118.101,180.08 120.768,179.413 123.5,179C 116.833,178.667 110.167,178.333 103.5,178C 102.584,177.722 101.918,177.222 101.5,176.5 Z"/></g>
<g><path style="opacity:0.505" fill="#a80302" d="M 93.5,158.5 C 93.8333,158.5 94.1667,158.5 94.5,158.5C 96.0711,164.23 98.4044,169.563 101.5,174.5C 101.5,175.167 101.5,175.833 101.5,176.5C 101.918,177.222 102.584,177.722 103.5,178C 110.167,178.333 116.833,178.667 123.5,179C 120.768,179.413 118.101,180.08 115.5,181C 117.81,181.497 120.143,181.663 122.5,181.5C 114.567,183.468 106.234,184.135 97.5,183.5C 96.3991,182.402 95.0657,182.235 93.5,183C 92.635,184.359 91.635,185.526 90.5,186.5C 89.8333,186.5 89.5,186.833 89.5,187.5C 88.5084,187.328 87.8417,187.662 87.5,188.5C 86.5,188.5 85.5,188.5 84.5,188.5C 84.5,187.833 84.5,187.167 84.5,186.5C 85.1667,186.5 85.5,186.167 85.5,185.5C 86.1667,184.833 86.8333,184.167 87.5,183.5C 88.2891,183.217 88.9558,182.717 89.5,182C 87.9343,181.235 86.6009,181.402 85.5,182.5C 84.8333,182.5 84.5,182.833 84.5,183.5C 83.8333,183.5 83.5,183.833 83.5,184.5C 82.8333,184.5 82.5,184.833 82.5,185.5C 81.8333,185.5 81.5,185.833 81.5,186.5C 80.5,186.5 79.5,186.5 78.5,186.5C 77.6618,186.158 77.3284,185.492 77.5,184.5C 78.2623,182.738 79.5956,181.738 81.5,181.5C 82.609,181.443 83.609,181.11 84.5,180.5C 87.7864,180.071 90.9531,180.071 94,180.5C 94.1667,180.167 94.3333,179.833 94.5,179.5C 93.3984,178.824 92.3984,178.158 91.5,177.5C 92.5,177.5 93.5,177.5 94.5,177.5C 94.3669,172.087 92.7002,167.42 89.5,163.5C 89.5,163.167 89.5,162.833 89.5,162.5C 89.6716,161.508 89.3382,160.842 88.5,160.5C 88.5,160.167 88.5,159.833 88.5,159.5C 89.7613,156.18 91.428,155.846 93.5,158.5 Z M 84.5,183.5 C 84.5,182.833 84.8333,182.5 85.5,182.5C 86.4916,182.328 87.1583,182.662 87.5,183.5C 86.8333,184.167 86.1667,184.833 85.5,185.5C 85.6716,184.508 85.3382,183.842 84.5,183.5 Z"/></g>
<g><path style="opacity:0.09" fill="#1f0200" d="M 128.5,178.5 C 130.048,178.821 130.715,179.821 130.5,181.5C 128.167,181.5 125.833,181.5 123.5,181.5C 123.5,181.167 123.5,180.833 123.5,180.5C 125.527,180.662 127.527,180.495 129.5,180C 128.944,179.617 128.611,179.117 128.5,178.5 Z"/></g>
<g><path style="opacity:0.004" fill="#000000" d="M 131.5,180.5 C 132.833,181.167 132.833,181.167 131.5,180.5 Z"/></g>
<g><path style="opacity:0.187" fill="#000000" d="M 85.5,182.5 C 86.6009,181.402 87.9343,181.235 89.5,182C 88.9558,182.717 88.2891,183.217 87.5,183.5C 87.1583,182.662 86.4916,182.328 85.5,182.5 Z"/></g>
<g><path style="opacity:0.004" fill="#000000" d="M 130.5,181.5 C 130.833,181.5 131.167,181.5 131.5,181.5C 131.315,182.17 130.981,182.17 130.5,181.5 Z"/></g>
<g><path style="opacity:0.012" fill="#310a00" d="M 130.5,182.5 C 129.054,183.613 127.387,183.78 125.5,183C 127.134,182.506 128.801,182.34 130.5,182.5 Z"/></g>
<g><path style="opacity:0.333" fill="#2d0800" d="M 122.5,181.5 C 122.833,181.5 123.167,181.5 123.5,181.5C 124.598,182.397 124.598,183.23 123.5,184C 118.418,184.219 113.418,184.719 108.5,185.5C 104.833,184.833 101.167,184.167 97.5,183.5C 106.234,184.135 114.567,183.468 122.5,181.5 Z"/></g>
<g><path style="opacity:0.012" fill="#620000" d="M 74.5,184.5 C 75.525,184.897 75.6917,185.563 75,186.5C 74.5357,185.906 74.369,185.239 74.5,184.5 Z"/></g>
<g><path style="opacity:0.012" fill="#6c0b05" d="M 84.5,183.5 C 85.3382,183.842 85.6716,184.508 85.5,185.5C 84.8333,185.5 84.5,185.833 84.5,186.5C 83.6618,186.842 83.3284,187.508 83.5,188.5C 83.1667,188.5 82.8333,188.5 82.5,188.5C 82.5,187.833 82.1667,187.5 81.5,187.5C 81.5,187.167 81.5,186.833 81.5,186.5C 82.1667,186.5 82.5,186.167 82.5,185.5C 83.1667,185.5 83.5,185.167 83.5,184.5C 84.1667,184.5 84.5,184.167 84.5,183.5 Z"/></g>
<g><path style="opacity:0.012" fill="#480d04" d="M 108.5,185.5 C 105.024,186.643 101.358,186.81 97.5,186C 101.152,185.501 104.818,185.335 108.5,185.5 Z"/></g>
<g><path style="opacity:0.012" fill="#450700" d="M 110.5,186.5 C 114.646,185.353 118.98,185.186 123.5,186C 119.179,186.499 114.846,186.666 110.5,186.5 Z"/></g>
<g><path style="opacity:0.061" fill="#1b0400" d="M 77.5,184.5 C 77.3284,185.492 77.6618,186.158 78.5,186.5C 77.6977,187.885 77.0311,187.718 76.5,186C 76.5699,185.235 76.9033,184.735 77.5,184.5 Z"/></g>
<g><path style="opacity:0.004" fill="#2f0e01" d="M 90.5,187.5 C 90.5,187.167 90.5,186.833 90.5,186.5C 93.1667,186.833 93.1667,187.167 90.5,187.5 Z"/></g>
<g><path style="opacity:0.004" fill="#240800" d="M 79.5,188.5 C 79.8417,187.662 80.5084,187.328 81.5,187.5C 81.5,187.833 81.5,188.167 81.5,188.5C 80.8333,188.5 80.1667,188.5 79.5,188.5 Z"/></g>
<g><path style="opacity:0.016" fill="#3f0000" d="M 89.5,187.5 C 89.8333,187.5 90.1667,187.5 90.5,187.5C 90.5,187.833 90.5,188.167 90.5,188.5C 90.1667,188.167 89.8333,187.833 89.5,187.5 Z"/></g>
</svg>
