<svg xmlns="http://www.w3.org/2000/svg" width="335" height="135" style="shape-rendering:geometricPrecision;text-rendering:geometricPrecision;image-rendering:optimizeQuality;fill-rule:evenodd;clip-rule:evenodd"><path style="opacity:.807" fill="#b6276b" d="M241.5-.5h2c.919 2.59 2.586 4.59 5 6-.333 1-1 1.667-2 2a25.645 25.645 0 0 0-6-6l1-2z"/><path style="opacity:.605" fill="#b4276c" d="M243.5-.5h3c1.13 1.815 1.796 3.815 2 6-2.414-1.41-4.081-3.41-5-6z"/><path style="opacity:.725" fill="#ab2772" d="M253.5-.5h5a319.835 319.835 0 0 0 2 5c.047 1.538-.62 2.538-2 3l-6-6 1-2z"/><path style="opacity:.896" fill="#a32777" d="M265.5-.5h1a74.74 74.74 0 0 1 7 9h-4c-1.333-2.667-3.333-4.667-6-6l2-3z"/><path style="opacity:.926" fill="#9f277a" d="M266.5-.5h7a25.494 25.494 0 0 0 5 7c-1.135 1.713-2.802 2.38-5 2a74.74 74.74 0 0 0-7-9z"/><path style="opacity:.734" fill="#9a277d" d="M273.5-.5h4c2.045 2.196 2.378 4.53 1 7a25.494 25.494 0 0 1-5-7z"/><path style="opacity:.857" fill="#932782" d="M284.5-.5h2c.919 2.59 2.586 4.59 5 6-.333 1-1 1.667-2 2a31.57 31.57 0 0 1-6-5 5.727 5.727 0 0 0 1-3z"/><path style="opacity:.711" fill="#902784" d="M286.5-.5h3c1.13 1.815 1.796 3.815 2 6-2.414-1.41-4.081-3.41-5-6z"/><path style="opacity:.839" fill="#ba2669" d="M240.5 1.5a25.645 25.645 0 0 1 6 6c-3.774 1.932-6.107.765-7-3.5.028-1.07.361-1.903 1-2.5z"/><path style="opacity:.794" fill="#b0276f" d="m252.5 1.5 6 6c-3.774 1.932-6.107.765-7-3.5.028-1.07.361-1.903 1-2.5z"/><path style="opacity:.915" fill="#a72775" d="M263.5 2.5c2.667 1.333 4.667 3.333 6 6-5 1-7-1-6-6z"/><path style="opacity:.744" fill="#97277f" d="M283.5 2.5a31.57 31.57 0 0 0 6 5c-3.454 1.832-5.787.832-7-3 .043-.916.376-1.583 1-2z"/><path style="opacity:.871" fill="#d1265a" d="m224.5 11.5 8 9h-8c-1.333-2-3-3.667-5-5 1.085-2.087 2.751-3.42 5-4z"/><path style="opacity:.858" fill="#cd275d" d="M224.5 11.5h3a74.739 74.739 0 0 0 7 9h-2l-8-9z"/><path style="opacity:.861" fill="#c9265f" d="M227.5 11.5h6a25.934 25.934 0 0 0 8 9h-7a74.739 74.739 0 0 1-7-9z"/><path style="opacity:.885" fill="#c52661" d="M233.5 11.5h5c0 2 1 3 3 3 0 2 1 3 3 3a5.727 5.727 0 0 0 1 3h-4a25.934 25.934 0 0 1-8-9z"/><path style="opacity:.799" fill="#c22664" d="M238.5 11.5h2c.61.891.943 1.891 1 3-2 0-3-1-3-3z"/><path style="opacity:.835" fill="#be2666" d="M240.5 11.5h7c1.333 2 3 3.667 5 5-.333 2.333-1.667 3.667-4 4-.762-1.762-2.096-2.762-4-3-2 0-3-1-3-3a5.727 5.727 0 0 0-1-3z"/><path style="opacity:.542" fill="#ba2769" d="M247.5 11.5c3 .333 4.667 2 5 5-2-1.333-3.667-3-5-5z"/><path style="opacity:.784" fill="#b2276e" d="m261.5 19.5-5-6c2.169-2.568 4.502-2.568 7 0 1.534 2.732.867 4.732-2 6z"/><path style="opacity:.816" fill="#ab2773" d="m270.5 11.5 8 9h-8c-.333-2.333-1.667-3.667-4-4 .231-2.563 1.565-4.23 4-5z"/><path style="opacity:.873" fill="#a72775" d="M270.5 11.5h3l8 9h-3l-8-9z"/><path style="opacity:.877" fill="#a32777" d="M273.5 11.5h5c2.309 2.981 4.643 5.981 7 9h-4l-8-9z"/><path style="opacity:.87" fill="#9f277a" d="M278.5 11.5h6l8 9h-7a2902.873 2902.873 0 0 1-7-9z"/><path style="opacity:.88" fill="#99277e" d="M284.5 11.5h9c1.696 2.025 3.363 4.025 5 6-1.107 2.469-3.107 3.469-6 3l-8-9z"/><path style="opacity:.637" fill="#942781" d="M293.5 11.5c4.831-.195 6.497 1.805 5 6a1498.116 1498.116 0 0 0-5-6z"/><path style="opacity:.783" fill="#8c2786" d="M308.5 19.5a29.425 29.425 0 0 1-5-6c2.678-2.723 5.178-2.39 7.5 1 .741 2.519-.092 4.185-2.5 5z"/><path style="opacity:.798" fill="#b7276b" d="m256.5 13.5 5 6c-1.989 1.387-3.822 1.053-5.5-1-.78-1.887-.613-3.554.5-5z"/><path style="opacity:.813" fill="#902784" d="M303.5 13.5a29.425 29.425 0 0 0 5 6c-1.989 1.387-3.822 1.053-5.5-1-.78-1.887-.613-3.554.5-5z"/><path style="opacity:1" fill="#c22664" d="M241.5 14.5c2 0 3 1 3 3 0-2-1-3-3-3z"/><path style="opacity:.335" fill="#d52757" d="M219.5 15.5c2 1.333 3.667 3 5 5-2.667-.667-4.333-2.333-5-5z"/><path style="opacity:.445" fill="#af2770" d="M266.5 16.5c2.333.333 3.667 1.667 4 4-1.667-1-3-2.333-4-4z"/><path style="opacity:.832" fill="#c22664" d="M244.5 17.5c1.904.238 3.238 1.238 4 3h-3a5.727 5.727 0 0 1-1-3z"/><path style="opacity:.877" fill="#dc2653" d="M221.5 23.5c2.333 3 5 5.667 8 8-1.419.951-3.085 1.285-5 1-2-2.667-4.333-5-7-7 .787-1.604 2.12-2.27 4-2z"/><path style="opacity:.88" fill="#d82755" d="M221.5 23.5h6c1.333 2 3 3.667 5 5 0 2-1 3-3 3-3-2.333-5.667-5-8-8z"/><path style="opacity:.563" fill="#d42758" d="M227.5 23.5c3.333 0 5 1.667 5 5-2-1.333-3.667-3-5-5z"/><path style="opacity:.871" fill="#cd275d" d="m238.5 23.5 8 9h-2l-7-8c0-.667.333-1 1-1z"/><path style="opacity:.875" fill="#c9265f" d="M238.5 23.5h6c2.701 3.006 5.368 6.006 8 9h-6l-8-9z"/><path style="opacity:.866" fill="#c52661" d="M244.5 23.5h6c0 1.333.667 2 2 2 0 2 1 3 3 3 .233 1.562.9 2.895 2 4h-5a1108.587 1108.587 0 0 0-8-9z"/><path style="opacity:.784" fill="#c22764" d="M250.5 23.5h2v2c-1.333 0-2-.667-2-2z"/><path style="opacity:.871" fill="#be2666" d="M252.5 23.5h7l8 9h-8c-.333-2.333-1.667-3.667-4-4-2 0-3-1-3-3v-2z"/><path style="opacity:.888" fill="#b92769" d="M259.5 23.5h4a45.584 45.584 0 0 1 7 9h-3l-8-9z"/><path style="opacity:.86" fill="#b6276b" d="M263.5 23.5h3l8 9h-4a45.584 45.584 0 0 0-7-9z"/><path style="opacity:.887" fill="#b2276e" d="M266.5 23.5h8c2.304 2.641 4.638 5.308 7 8-2.217.869-4.55 1.202-7 1l-8-9z"/><path style="opacity:.787" fill="#ac2772" d="M274.5 23.5c6.486-1.665 9.319.668 8.5 7-.383.556-.883.89-1.5 1a3669.943 3669.943 0 0 1-7-8z"/><path style="opacity:.862" fill="#a32777" d="M289.5 23.5a1833.76 1833.76 0 0 0 6 5c-.432 1.21-1.099 2.21-2 3a25.634 25.634 0 0 1-6-6c.333-1 1-1.667 2-2z"/><path style="opacity:.624" fill="#a02779" d="M289.5 23.5c3.849-.48 5.849 1.186 6 5a1833.76 1833.76 0 0 1-6-5z"/><path style="opacity:.863" fill="#98277e" d="m305.5 23.5 7 8c-2.448.973-5.115 1.306-8 1-1.561-2.473-3.561-4.473-6-6 1.536-2.592 3.869-3.592 7-3z"/><path style="opacity:.883" fill="#932781" d="M305.5 23.5h4l5 5c.073 1.527-.594 2.527-2 3l-7-8z"/><path style="opacity:.731" fill="#902784" d="M309.5 23.5c3.333 0 5 1.667 5 5l-5-5z"/><path style="opacity:.737" fill="#d0265a" d="m237.5 24.5 7 8c-4.696 1.086-7.696-.581-9-5-.047-1.538.62-2.538 2-3z"/><path style="opacity:.854" fill="#df2751" d="M216.5 26.5c0-.667.333-1 1-1 2.667 2 5 4.333 7 7h-2a25.647 25.647 0 0 0-6-6z"/><path style="opacity:1" fill="#c22664" d="M252.5 25.5c2 0 3 1 3 3 0-2-1-3-3-3z"/><path style="opacity:.788" fill="#a72775" d="M287.5 25.5a25.634 25.634 0 0 0 6 6c-5.767 1.478-7.767-.522-6-6z"/><path style="opacity:.699" fill="#e2264f" d="M216.5 26.5a25.647 25.647 0 0 1 6 6c-4.333.333-6.333-1.667-6-6z"/><path style="opacity:.684" fill="#9e277b" d="M298.5 26.5c2.439 1.527 4.439 3.527 6 6-4.306.197-6.306-1.803-6-6z"/><path style="opacity:.862" fill="#c22664" d="M255.5 28.5c2.333.333 3.667 1.667 4 4h-2c-1.1-1.105-1.767-2.438-2-4z"/><path style="opacity:.76" fill="#e4264d" d="M221.5 35.5c6.658-1.156 8.658 1.344 6 7.5-3.844 1.918-6.51.751-8-3.5l2-4z"/><path style="opacity:.852" fill="#d72656" d="M233.5 36.5c2.107-.968 4.441-1.302 7-1l8 9h-7c-1.951-3.285-4.618-5.951-8-8z"/><path style="opacity:.882" fill="#d1265a" d="M240.5 35.5h8a44.893 44.893 0 0 1 7 9h-7l-8-9z"/><path style="opacity:.851" fill="#cd275c" d="M248.5 35.5h2a50.686 50.686 0 0 1 8 9h-3a44.893 44.893 0 0 0-7-9z"/><path style="opacity:.912" fill="#c9265f" d="M250.5 35.5h6a483.2 483.2 0 0 1 6 7c-1.014 1.174-2.347 1.84-4 2a50.686 50.686 0 0 0-8-9z"/><path style="opacity:.757" fill="#c52661" d="M256.5 35.5c4.256-1.045 6.922.455 8 4.5-.139 1.301-.805 2.134-2 2.5a483.2 483.2 0 0 0-6-7z"/><path style="opacity:.812" fill="#be2666" d="M271.5 35.5a44.893 44.893 0 0 1 7 9h-7c-.582-1.431-1.415-2.764-2.5-4-.671-.752-1.504-1.086-2.5-1 .489-2.824 2.156-4.157 5-4z"/><path style="opacity:.894" fill="#b92769" d="M271.5 35.5h4a49.49 49.49 0 0 0 6 7c-.473 1.406-1.473 2.073-3 2a44.893 44.893 0 0 0-7-9z"/><path style="opacity:.925" fill="#b6276b" d="M275.5 35.5h3c1.333 2 3 3.667 5 5-.333 1-1 1.667-2 2a49.49 49.49 0 0 1-6-7z"/><path style="opacity:.732" fill="#b4286d" d="M278.5 35.5c3.333 0 5 1.667 5 5-2-1.333-3.667-3-5-5z"/><path style="opacity:.797" fill="#ac2772" d="M293.5 42.5a21.577 21.577 0 0 0-6-5c1.511-1.941 3.511-2.441 6-1.5 2.634 2.293 2.634 4.46 0 6.5z"/><path style="opacity:.864" fill="#a32777" d="M301.5 35.5a38 38 0 0 1 8 9h-4a2506.82 2506.82 0 0 1-6-7c.333-1 1-1.667 2-2z"/><path style="opacity:.892" fill="#9f277a" d="M301.5 35.5h7a25.647 25.647 0 0 0 6 6c-1.159 1.75-2.826 2.75-5 3a38 38 0 0 0-8-9z"/><path style="opacity:.782" fill="#9a277d" d="M308.5 35.5c5-1 7 1 6 6a25.647 25.647 0 0 1-6-6z"/><path style="opacity:.806" fill="#dc2653" d="M233.5 36.5c3.382 2.049 6.049 4.715 8 8-2.235.295-4.235-.039-6-1-1-1.667-2.333-3-4-4-.073-1.527.594-2.527 2-3z"/><path style="opacity:.746" fill="#b0276f" d="M287.5 37.5a21.577 21.577 0 0 1 6 5c-2.419 2.747-4.586 2.413-6.5-1-.765-1.566-.598-2.9.5-4z"/><path style="opacity:.773" fill="#a72775" d="M299.5 37.5a2506.82 2506.82 0 0 0 6 7c-5.889.47-7.889-1.863-6-7z"/><path style="opacity:.561" fill="#df2751" d="M231.5 39.5c1.667 1 3 2.333 4 4-2.333-.333-3.667-1.667-4-4z"/><path style="opacity:.567" fill="#c22664" d="M266.5 39.5c.996-.086 1.829.248 2.5 1 1.085 1.236 1.918 2.569 2.5 4-2.667-.667-4.333-2.333-5-5z"/><path style="opacity:.837" fill="#e4264d" d="M238.5 46.5a25.494 25.494 0 0 0 5 7c-.111.617-.444 1.117-1 1.5a42.498 42.498 0 0 1-13 0c-2.765-2.966-2.432-5.633 1-8a32.438 32.438 0 0 1 8-.5z"/><path style="opacity:.484" fill="#de2751" d="M238.5 46.5c4.629.584 6.295 2.917 5 7a25.494 25.494 0 0 1-5-7z"/><path style="opacity:.515" fill="#d42758" d="M250.5 47.5c3.571-.799 5.571.868 6 5l-6-5z"/><path style="opacity:.87" fill="#c9265f" d="M268.5 46.5a46.475 46.475 0 0 0 7 9h-5a888.645 888.645 0 0 1-8-8c1.765-.961 3.765-1.295 6-1z"/><path style="opacity:.875" fill="#c52661" d="M268.5 46.5h5c0 1.333.667 2 2 2 0 2 1 3 3 3a12.061 12.061 0 0 0 3 4h-6a46.475 46.475 0 0 1-7-9z"/><path style="opacity:.563" fill="#c22764" d="M273.5 46.5h2v2c-1.333 0-2-.667-2-2z"/><path style="opacity:.87" fill="#be2666" d="M275.5 46.5h7l7 8c-1.765.961-3.765 1.295-6 1-1.085-2.087-2.751-3.42-5-4-2 0-3-1-3-3v-2z"/><path style="opacity:.803" fill="#b92769" d="M282.5 46.5h4c1.644 1.98 3.31 3.98 5 6-.333 1-1 1.667-2 2l-7-8z"/><path style="opacity:.633" fill="#b7276b" d="M286.5 46.5c3.121.788 4.788 2.788 5 6-1.69-2.02-3.356-4.02-5-6z"/><path style="opacity:.533" fill="#ad2871" d="M297.5 47.5c3.571-.799 5.571.868 6 5a31.57 31.57 0 0 1-6-5z"/><path style="opacity:.671" fill="#a42777" d="M314.5 52.5z"/><path style="opacity:.829" fill="#d82655" d="m250.5 47.5 6 5a6.544 6.544 0 0 1-3 3 21.833 21.833 0 0 0-6-5c0-2 1-3 3-3z"/><path style="opacity:.904" fill="#cd275d" d="M260.5 48.5c.342-.838 1.008-1.172 2-1a888.645 888.645 0 0 0 8 8h-3c-2-2.667-4.333-5-7-7z"/><path style="opacity:.828" fill="#b2276e" d="M297.5 47.5a31.57 31.57 0 0 0 6 5c-1.553 2.754-3.886 3.587-7 2.5-1.896-1.808-2.396-3.975-1.5-6.5.671-.752 1.504-1.086 2.5-1z"/><path style="opacity:.819" fill="#a72775" d="M309.5 47.5c1.333 2 3 3.667 5 5 .073 1.527-.594 2.527-2 3a25.494 25.494 0 0 0-5-7c.342-.838 1.008-1.172 2-1z"/><path style="opacity:.838" fill="#d0265a" d="M260.5 48.5c2.667 2 5 4.333 7 7-6.597 1.274-8.93-1.06-7-7z"/><path style="opacity:1" fill="#c22664" d="M275.5 48.5c2 0 3 1 3 3 0-2-1-3-3-3z"/><path style="opacity:.809" fill="#aa2773" d="M307.5 48.5a25.494 25.494 0 0 1 5 7c-5.286.087-6.952-2.246-5-7z"/><path style="opacity:.752" fill="#db2653" d="M247.5 50.5a21.833 21.833 0 0 1 6 5c-3.849.48-5.849-1.186-6-5z"/><path style="opacity:.94" fill="#c22664" d="M278.5 51.5c2.249.58 3.915 1.913 5 4h-2a12.061 12.061 0 0 1-3-4z"/><path style="opacity:.861" fill="#dc2752" d="m257.5 58.5 7 9h-5c-2-2.667-4.333-5-7-7 1.135-1.713 2.802-2.38 5-2z"/><path style="opacity:.877" fill="#d72656" d="M257.5 58.5h6l8 9h-7l-7-9z"/><path style="opacity:.872" fill="#d1265a" d="M263.5 58.5h8l8 9h-8l-8-9z"/><path style="opacity:.844" fill="#cd275c" d="M271.5 58.5h3a40.223 40.223 0 0 0 7 8c-.342.838-1.008 1.172-2 1l-8-9z"/><path style="opacity:.839" fill="#ca265f" d="M274.5 58.5h6c.238 1.904 1.238 3.238 3 4 .271 1.88-.396 3.213-2 4a40.223 40.223 0 0 1-7-8z"/><path style="opacity:.456" fill="#c62760" d="M280.5 58.5c1.762.762 2.762 2.096 3 4-1.762-.762-2.762-2.096-3-4z"/><path style="opacity:.891" fill="#be2666" d="m294.5 58.5 7 8c-1.879.841-3.879 1.175-6 1l-7-8c1.879-.841 3.879-1.175 6-1z"/><path style="opacity:.814" fill="#b92769" d="M294.5 58.5h4c1 2.333 2.667 4 5 5-.432 1.21-1.099 2.21-2 3l-7-8z"/><path style="opacity:.59" fill="#b7276b" d="M298.5 58.5c2.667.667 4.333 2.333 5 5-2.333-1-4-2.667-5-5z"/><path style="opacity:.864" fill="#df2751" d="M251.5 61.5c0-.667.333-1 1-1 2.667 2 5 4.333 7 7h-2a25.647 25.647 0 0 0-6-6z"/><path style="opacity:.719" fill="#e2274f" d="M251.5 61.5a25.647 25.647 0 0 1 6 6c-4.333.333-6.333-1.667-6-6z"/><path style="opacity:.66" fill="#c32663" d="m288.5 59.5 7 8c-3.185.48-6.019-.186-8.5-2-.738-2.38-.238-4.38 1.5-6z"/><path style="opacity:.858" fill="#e5274c" d="M166.5 134.5h-14c-9.151-3.658-14.985-10.324-17.5-20-.667-15-.667-30 0-45 3.55-2.946 6.216-2.28 8 2l1 19c16.258-9.745 29.258-6.412 39 10 4.322 16.237-1.178 27.571-16.5 34zm-12-41c14.804-1.359 21.971 5.308 21.5 20-3.449 10.432-10.616 14.599-21.5 12.5-10.146-4.456-13.646-11.956-10.5-22.5 2.106-4.943 5.606-8.276 10.5-10z"/><path style="opacity:.738" fill="#cd275d" d="M287.5 74.5c-2-1.333-3.667-3-5-5 3.036-.31 4.703 1.357 5 5z"/><path style="opacity:.863" fill="#d1265a" d="M282.5 69.5c1.333 2 3 3.667 5 5-2.408 3.513-5.242 3.846-8.5 1-1.122-3.372.045-5.372 3.5-6z"/><path style="opacity:.903" fill="#1b1e28" d="M-.5 85.5h15a613.69 613.69 0 0 1-1 49h-5c-.333-1.333-.667-1.333-1 0h-8v-49z"/><path style="opacity:.876" fill="#1b1e28" d="M49.5 134.5h-28v-49h29a49.391 49.391 0 0 0-1 11h-13v7h13a49.393 49.393 0 0 0-1 11h-12v8h15a146.628 146.628 0 0 1-2 12z"/><path style="opacity:.878" fill="#1b1e28" d="M84.5 134.5h-28v-49h29a49.391 49.391 0 0 0-1 11h-13v7a72.368 72.368 0 0 1 12 .5c.158 3.288.158 6.788 0 10.5h-12v8h15a146.628 146.628 0 0 1-2 12z"/><path style="opacity:.88" fill="#1b1e28" d="M119.5 134.5h-28v-49a211.12 211.12 0 0 1 29 1 28.818 28.818 0 0 0-1 10h-13v7h12v11h-12v8a57.15 57.15 0 0 1 15 1c-.668 3.697-1.335 7.363-2 11z"/><path style="opacity:.858" fill="#e5274c" d="M195.5 134.5h-2c-.672-.767-1.505-1.434-2.5-2-.667-15-.667-30 0-45 3.488-2.962 6.155-2.295 8 2 7.226-4.936 14.726-5.27 22.5-1 3.09 3.64 2.423 6.306-2 8-7.435-4.677-13.935-3.677-19.5 3a302.948 302.948 0 0 0-2 33c-.995.566-1.828 1.233-2.5 2z"/><path style="opacity:.88" fill="#e5274c" d="M268.5 134.5h-1c-2.401-1.246-3.901-3.246-4.5-6-2.843 2.663-6.009 4.663-9.5 6h-13c-16.354-7.052-21.521-19.052-15.5-36 9.003-13.52 20.837-16.687 35.5-9.5 3.981 3.109 7.148 6.942 9.5 11.5a135.714 135.714 0 0 1 1 32c-.995.566-1.828 1.233-2.5 2zm-25-41c17.545.753 23.379 9.42 17.5 26-8.711 8.895-17.711 9.229-27 1-4.599-6.933-4.599-13.933 0-21 2.843-2.663 6.009-4.663 9.5-6z"/><path style="opacity:.779" fill="#e5274c" d="M283.5 134.5h-1a30.233 30.233 0 0 1-3.5-3 462.27 462.27 0 0 1 0-43c2.667-4 5.333-4 8 0a462.27 462.27 0 0 1 0 43 30.233 30.233 0 0 1-3.5 3z"/><path style="opacity:.869" fill="#e5274c" d="M334.5 99.5v33c-1.21.432-2.21 1.099-3 2h-2a10.515 10.515 0 0 0-2.5-3l-1-30c-5.254-8.626-12.088-10.126-20.5-4.5a29.555 29.555 0 0 0-2.5 4.5l-1 30a10.515 10.515 0 0 0-2.5 3h-2c-.672-.767-1.505-1.434-2.5-2-.667-15-.667-30 0-45 3.488-2.962 6.155-2.295 8 2 13.82-7.227 24.32-3.894 31.5 10z"/></svg>