<?xml version="1.0" encoding="UTF-8"?>
<!DOCTYPE svg PUBLIC "-//W3C//DTD SVG 1.1//EN" "http://www.w3.org/Graphics/SVG/1.1/DTD/svg11.dtd">
<svg xmlns="http://www.w3.org/2000/svg" version="1.1" width="335px" height="135px" style="shape-rendering:geometricPrecision; text-rendering:geometricPrecision; image-rendering:optimizeQuality; fill-rule:evenodd; clip-rule:evenodd" xmlns:xlink="http://www.w3.org/1999/xlink">
<g><path style="opacity:0.807" fill="#b6276b" d="M 241.5,-0.5 C 242.167,-0.5 242.833,-0.5 243.5,-0.5C 244.419,2.08917 246.086,4.08917 248.5,5.5C 248.167,6.5 247.5,7.16667 246.5,7.5C 244.833,5.16667 242.833,3.16667 240.5,1.5C 240.833,0.833333 241.167,0.166667 241.5,-0.5 Z"/></g>
<g><path style="opacity:0.605" fill="#b4276c" d="M 243.5,-0.5 C 244.5,-0.5 245.5,-0.5 246.5,-0.5C 247.63,1.31455 248.296,3.31455 248.5,5.5C 246.086,4.08917 244.419,2.08917 243.5,-0.5 Z"/></g>
<g><path style="opacity:0.725" fill="#ab2772" d="M 253.5,-0.5 C 255.167,-0.5 256.833,-0.5 258.5,-0.5C 259.146,1.15611 259.813,2.82277 260.5,4.5C 260.547,6.03773 259.88,7.03773 258.5,7.5C 256.5,5.5 254.5,3.5 252.5,1.5C 252.833,0.833333 253.167,0.166667 253.5,-0.5 Z"/></g>
<g><path style="opacity:0.896" fill="#a32777" d="M 265.5,-0.5 C 265.833,-0.5 266.167,-0.5 266.5,-0.5C 269.084,2.34921 271.417,5.34921 273.5,8.5C 272.167,8.5 270.833,8.5 269.5,8.5C 268.167,5.83333 266.167,3.83333 263.5,2.5C 264.167,1.5 264.833,0.5 265.5,-0.5 Z"/></g>
<g><path style="opacity:0.926" fill="#9f277a" d="M 266.5,-0.5 C 268.833,-0.5 271.167,-0.5 273.5,-0.5C 274.754,2.09343 276.42,4.42676 278.5,6.5C 277.365,8.21321 275.698,8.87988 273.5,8.5C 271.417,5.34921 269.084,2.34921 266.5,-0.5 Z"/></g>
<g><path style="opacity:0.734" fill="#9a277d" d="M 273.5,-0.5 C 274.833,-0.5 276.167,-0.5 277.5,-0.5C 279.545,1.69646 279.878,4.02979 278.5,6.5C 276.42,4.42676 274.754,2.09343 273.5,-0.5 Z"/></g>
<g><path style="opacity:0.857" fill="#932782" d="M 284.5,-0.5 C 285.167,-0.5 285.833,-0.5 286.5,-0.5C 287.419,2.08917 289.086,4.08917 291.5,5.5C 291.167,6.5 290.5,7.16667 289.5,7.5C 287.291,6.07999 285.291,4.41332 283.5,2.5C 284.11,1.60895 284.443,0.608953 284.5,-0.5 Z"/></g>
<g><path style="opacity:0.711" fill="#902784" d="M 286.5,-0.5 C 287.5,-0.5 288.5,-0.5 289.5,-0.5C 290.63,1.31455 291.296,3.31455 291.5,5.5C 289.086,4.08917 287.419,2.08917 286.5,-0.5 Z"/></g>
<g><path style="opacity:0.839" fill="#ba2669" d="M 240.5,1.5 C 242.833,3.16667 244.833,5.16667 246.5,7.5C 242.726,9.43156 240.393,8.26489 239.5,4C 239.528,2.93015 239.861,2.09682 240.5,1.5 Z"/></g>
<g><path style="opacity:0.794" fill="#b0276f" d="M 252.5,1.5 C 254.5,3.5 256.5,5.5 258.5,7.5C 254.726,9.43156 252.393,8.26489 251.5,4C 251.528,2.93015 251.861,2.09682 252.5,1.5 Z"/></g>
<g><path style="opacity:0.915" fill="#a72775" d="M 263.5,2.5 C 266.167,3.83333 268.167,5.83333 269.5,8.5C 264.5,9.5 262.5,7.5 263.5,2.5 Z"/></g>
<g><path style="opacity:0.744" fill="#97277f" d="M 283.5,2.5 C 285.291,4.41332 287.291,6.07999 289.5,7.5C 286.046,9.33239 283.713,8.33239 282.5,4.5C 282.543,3.58362 282.876,2.91695 283.5,2.5 Z"/></g>
<g><path style="opacity:0.871" fill="#d1265a" d="M 224.5,11.5 C 227.167,14.5 229.833,17.5 232.5,20.5C 229.833,20.5 227.167,20.5 224.5,20.5C 223.167,18.5 221.5,16.8333 219.5,15.5C 220.585,13.4131 222.251,12.0798 224.5,11.5 Z"/></g>
<g><path style="opacity:0.858" fill="#cd275d" d="M 224.5,11.5 C 225.5,11.5 226.5,11.5 227.5,11.5C 229.583,14.6508 231.916,17.6508 234.5,20.5C 233.833,20.5 233.167,20.5 232.5,20.5C 229.833,17.5 227.167,14.5 224.5,11.5 Z"/></g>
<g><path style="opacity:0.861" fill="#c9265f" d="M 227.5,11.5 C 229.5,11.5 231.5,11.5 233.5,11.5C 235.459,15.1261 238.126,18.1261 241.5,20.5C 239.167,20.5 236.833,20.5 234.5,20.5C 231.916,17.6508 229.583,14.6508 227.5,11.5 Z"/></g>
<g><path style="opacity:0.885" fill="#c52661" d="M 233.5,11.5 C 235.167,11.5 236.833,11.5 238.5,11.5C 238.5,13.5 239.5,14.5 241.5,14.5C 241.5,16.5 242.5,17.5 244.5,17.5C 244.557,18.609 244.89,19.609 245.5,20.5C 244.167,20.5 242.833,20.5 241.5,20.5C 238.126,18.1261 235.459,15.1261 233.5,11.5 Z"/></g>
<g><path style="opacity:0.799" fill="#c22664" d="M 238.5,11.5 C 239.167,11.5 239.833,11.5 240.5,11.5C 241.11,12.391 241.443,13.391 241.5,14.5C 239.5,14.5 238.5,13.5 238.5,11.5 Z"/></g>
<g><path style="opacity:0.835" fill="#be2666" d="M 240.5,11.5 C 242.833,11.5 245.167,11.5 247.5,11.5C 248.833,13.5 250.5,15.1667 252.5,16.5C 252.167,18.8333 250.833,20.1667 248.5,20.5C 247.738,18.7376 246.404,17.7376 244.5,17.5C 242.5,17.5 241.5,16.5 241.5,14.5C 241.443,13.391 241.11,12.391 240.5,11.5 Z"/></g>
<g><path style="opacity:0.542" fill="#ba2769" d="M 247.5,11.5 C 250.5,11.8333 252.167,13.5 252.5,16.5C 250.5,15.1667 248.833,13.5 247.5,11.5 Z"/></g>
<g><path style="opacity:0.784" fill="#b2276e" d="M 261.5,19.5 C 259.833,17.5 258.167,15.5 256.5,13.5C 258.669,10.932 261.002,10.932 263.5,13.5C 265.034,16.2321 264.367,18.2321 261.5,19.5 Z"/></g>
<g><path style="opacity:0.816" fill="#ab2773" d="M 270.5,11.5 C 273.167,14.5 275.833,17.5 278.5,20.5C 275.833,20.5 273.167,20.5 270.5,20.5C 270.167,18.1667 268.833,16.8333 266.5,16.5C 266.731,13.9368 268.065,12.2702 270.5,11.5 Z"/></g>
<g><path style="opacity:0.873" fill="#a72775" d="M 270.5,11.5 C 271.5,11.5 272.5,11.5 273.5,11.5C 276.167,14.5 278.833,17.5 281.5,20.5C 280.5,20.5 279.5,20.5 278.5,20.5C 275.833,17.5 273.167,14.5 270.5,11.5 Z"/></g>
<g><path style="opacity:0.877" fill="#a32777" d="M 273.5,11.5 C 275.167,11.5 276.833,11.5 278.5,11.5C 280.809,14.4813 283.143,17.4813 285.5,20.5C 284.167,20.5 282.833,20.5 281.5,20.5C 278.833,17.5 276.167,14.5 273.5,11.5 Z"/></g>
<g><path style="opacity:0.87" fill="#9f277a" d="M 278.5,11.5 C 280.5,11.5 282.5,11.5 284.5,11.5C 287.167,14.5 289.833,17.5 292.5,20.5C 290.167,20.5 287.833,20.5 285.5,20.5C 283.143,17.4813 280.809,14.4813 278.5,11.5 Z"/></g>
<g><path style="opacity:0.88" fill="#99277e" d="M 284.5,11.5 C 287.5,11.5 290.5,11.5 293.5,11.5C 295.196,13.5248 296.863,15.5248 298.5,17.5C 297.393,19.9689 295.393,20.9689 292.5,20.5C 289.833,17.5 287.167,14.5 284.5,11.5 Z"/></g>
<g><path style="opacity:0.637" fill="#942781" d="M 293.5,11.5 C 298.331,11.3046 299.997,13.3046 298.5,17.5C 296.863,15.5248 295.196,13.5248 293.5,11.5 Z"/></g>
<g><path style="opacity:0.783" fill="#8c2786" d="M 308.5,19.5 C 306.551,17.7031 304.884,15.7031 303.5,13.5C 306.178,10.7774 308.678,11.1107 311,14.5C 311.741,17.0186 310.908,18.6852 308.5,19.5 Z"/></g>
<g><path style="opacity:0.798" fill="#b7276b" d="M 256.5,13.5 C 258.167,15.5 259.833,17.5 261.5,19.5C 259.511,20.8866 257.678,20.5532 256,18.5C 255.22,16.6131 255.387,14.9464 256.5,13.5 Z"/></g>
<g><path style="opacity:0.813" fill="#902784" d="M 303.5,13.5 C 304.884,15.7031 306.551,17.7031 308.5,19.5C 306.511,20.8866 304.678,20.5532 303,18.5C 302.22,16.6131 302.387,14.9464 303.5,13.5 Z"/></g>
<g><path style="opacity:1" fill="#c22664" d="M 241.5,14.5 C 243.5,14.5 244.5,15.5 244.5,17.5C 244.5,15.5 243.5,14.5 241.5,14.5 Z"/></g>
<g><path style="opacity:0.335" fill="#d52757" d="M 219.5,15.5 C 221.5,16.8333 223.167,18.5 224.5,20.5C 221.833,19.8333 220.167,18.1667 219.5,15.5 Z"/></g>
<g><path style="opacity:0.445" fill="#af2770" d="M 266.5,16.5 C 268.833,16.8333 270.167,18.1667 270.5,20.5C 268.833,19.5 267.5,18.1667 266.5,16.5 Z"/></g>
<g><path style="opacity:0.832" fill="#c22664" d="M 244.5,17.5 C 246.404,17.7376 247.738,18.7376 248.5,20.5C 247.5,20.5 246.5,20.5 245.5,20.5C 244.89,19.609 244.557,18.609 244.5,17.5 Z"/></g>
<g><path style="opacity:0.877" fill="#dc2653" d="M 221.5,23.5 C 223.833,26.5 226.5,29.1667 229.5,31.5C 228.081,32.4511 226.415,32.7845 224.5,32.5C 222.5,29.8333 220.167,27.5 217.5,25.5C 218.287,23.8958 219.62,23.2291 221.5,23.5 Z"/></g>
<g><path style="opacity:0.88" fill="#d82755" d="M 221.5,23.5 C 223.5,23.5 225.5,23.5 227.5,23.5C 228.833,25.5 230.5,27.1667 232.5,28.5C 232.5,30.5 231.5,31.5 229.5,31.5C 226.5,29.1667 223.833,26.5 221.5,23.5 Z"/></g>
<g><path style="opacity:0.563" fill="#d42758" d="M 227.5,23.5 C 230.833,23.5 232.5,25.1667 232.5,28.5C 230.5,27.1667 228.833,25.5 227.5,23.5 Z"/></g>
<g><path style="opacity:0.871" fill="#cd275d" d="M 238.5,23.5 C 241.167,26.5 243.833,29.5 246.5,32.5C 245.833,32.5 245.167,32.5 244.5,32.5C 242.167,29.8333 239.833,27.1667 237.5,24.5C 237.5,23.8333 237.833,23.5 238.5,23.5 Z"/></g>
<g><path style="opacity:0.875" fill="#c9265f" d="M 238.5,23.5 C 240.5,23.5 242.5,23.5 244.5,23.5C 247.201,26.506 249.868,29.506 252.5,32.5C 250.5,32.5 248.5,32.5 246.5,32.5C 243.833,29.5 241.167,26.5 238.5,23.5 Z"/></g>
<g><path style="opacity:0.866" fill="#c52661" d="M 244.5,23.5 C 246.5,23.5 248.5,23.5 250.5,23.5C 250.5,24.8333 251.167,25.5 252.5,25.5C 252.5,27.5 253.5,28.5 255.5,28.5C 255.733,30.0618 256.4,31.3951 257.5,32.5C 255.833,32.5 254.167,32.5 252.5,32.5C 249.868,29.506 247.201,26.506 244.5,23.5 Z"/></g>
<g><path style="opacity:0.784" fill="#c22764" d="M 250.5,23.5 C 251.167,23.5 251.833,23.5 252.5,23.5C 252.5,24.1667 252.5,24.8333 252.5,25.5C 251.167,25.5 250.5,24.8333 250.5,23.5 Z"/></g>
<g><path style="opacity:0.871" fill="#be2666" d="M 252.5,23.5 C 254.833,23.5 257.167,23.5 259.5,23.5C 262.167,26.5 264.833,29.5 267.5,32.5C 264.833,32.5 262.167,32.5 259.5,32.5C 259.167,30.1667 257.833,28.8333 255.5,28.5C 253.5,28.5 252.5,27.5 252.5,25.5C 252.5,24.8333 252.5,24.1667 252.5,23.5 Z"/></g>
<g><path style="opacity:0.888" fill="#b92769" d="M 259.5,23.5 C 260.833,23.5 262.167,23.5 263.5,23.5C 266.215,26.2139 268.549,29.2139 270.5,32.5C 269.5,32.5 268.5,32.5 267.5,32.5C 264.833,29.5 262.167,26.5 259.5,23.5 Z"/></g>
<g><path style="opacity:0.86" fill="#b6276b" d="M 263.5,23.5 C 264.5,23.5 265.5,23.5 266.5,23.5C 269.167,26.5 271.833,29.5 274.5,32.5C 273.167,32.5 271.833,32.5 270.5,32.5C 268.549,29.2139 266.215,26.2139 263.5,23.5 Z"/></g>
<g><path style="opacity:0.887" fill="#b2276e" d="M 266.5,23.5 C 269.167,23.5 271.833,23.5 274.5,23.5C 276.804,26.1413 279.138,28.808 281.5,31.5C 279.283,32.3686 276.95,32.702 274.5,32.5C 271.833,29.5 269.167,26.5 266.5,23.5 Z"/></g>
<g><path style="opacity:0.787" fill="#ac2772" d="M 274.5,23.5 C 280.986,21.8346 283.819,24.168 283,30.5C 282.617,31.056 282.117,31.3893 281.5,31.5C 279.138,28.808 276.804,26.1413 274.5,23.5 Z"/></g>
<g><path style="opacity:0.862" fill="#a32777" d="M 289.5,23.5 C 291.519,25.1897 293.519,26.8564 295.5,28.5C 295.068,29.7095 294.401,30.7095 293.5,31.5C 291.194,29.8606 289.194,27.8606 287.5,25.5C 287.833,24.5 288.5,23.8333 289.5,23.5 Z"/></g>
<g><path style="opacity:0.624" fill="#a02779" d="M 289.5,23.5 C 293.349,23.0193 295.349,24.686 295.5,28.5C 293.519,26.8564 291.519,25.1897 289.5,23.5 Z"/></g>
<g><path style="opacity:0.863" fill="#98277e" d="M 305.5,23.5 C 307.833,26.1667 310.167,28.8333 312.5,31.5C 310.052,32.4731 307.385,32.8064 304.5,32.5C 302.939,30.0268 300.939,28.0268 298.5,26.5C 300.036,23.9078 302.369,22.9078 305.5,23.5 Z"/></g>
<g><path style="opacity:0.883" fill="#932781" d="M 305.5,23.5 C 306.833,23.5 308.167,23.5 309.5,23.5C 311.167,25.1667 312.833,26.8333 314.5,28.5C 314.573,30.0269 313.906,31.0269 312.5,31.5C 310.167,28.8333 307.833,26.1667 305.5,23.5 Z"/></g>
<g><path style="opacity:0.731" fill="#902784" d="M 309.5,23.5 C 312.833,23.5 314.5,25.1667 314.5,28.5C 312.833,26.8333 311.167,25.1667 309.5,23.5 Z"/></g>
<g><path style="opacity:0.737" fill="#d0265a" d="M 237.5,24.5 C 239.833,27.1667 242.167,29.8333 244.5,32.5C 239.804,33.5857 236.804,31.919 235.5,27.5C 235.453,25.9623 236.12,24.9623 237.5,24.5 Z"/></g>
<g><path style="opacity:0.854" fill="#df2751" d="M 216.5,26.5 C 216.5,25.8333 216.833,25.5 217.5,25.5C 220.167,27.5 222.5,29.8333 224.5,32.5C 223.833,32.5 223.167,32.5 222.5,32.5C 220.833,30.1667 218.833,28.1667 216.5,26.5 Z"/></g>
<g><path style="opacity:1" fill="#c22664" d="M 252.5,25.5 C 254.5,25.5 255.5,26.5 255.5,28.5C 255.5,26.5 254.5,25.5 252.5,25.5 Z"/></g>
<g><path style="opacity:0.788" fill="#a72775" d="M 287.5,25.5 C 289.194,27.8606 291.194,29.8606 293.5,31.5C 287.733,32.978 285.733,30.978 287.5,25.5 Z"/></g>
<g><path style="opacity:0.699" fill="#e2264f" d="M 216.5,26.5 C 218.833,28.1667 220.833,30.1667 222.5,32.5C 218.167,32.8333 216.167,30.8333 216.5,26.5 Z"/></g>
<g><path style="opacity:0.684" fill="#9e277b" d="M 298.5,26.5 C 300.939,28.0268 302.939,30.0268 304.5,32.5C 300.194,32.6971 298.194,30.6971 298.5,26.5 Z"/></g>
<g><path style="opacity:0.862" fill="#c22664" d="M 255.5,28.5 C 257.833,28.8333 259.167,30.1667 259.5,32.5C 258.833,32.5 258.167,32.5 257.5,32.5C 256.4,31.3951 255.733,30.0618 255.5,28.5 Z"/></g>
<g><path style="opacity:0.76" fill="#e4264d" d="M 221.5,35.5 C 228.158,34.3445 230.158,36.8445 227.5,43C 223.656,44.9181 220.99,43.7514 219.5,39.5C 220.18,38.1401 220.847,36.8068 221.5,35.5 Z"/></g>
<g><path style="opacity:0.852" fill="#d72656" d="M 233.5,36.5 C 235.607,35.5318 237.941,35.1984 240.5,35.5C 243.167,38.5 245.833,41.5 248.5,44.5C 246.167,44.5 243.833,44.5 241.5,44.5C 239.549,41.2154 236.882,38.5487 233.5,36.5 Z"/></g>
<g><path style="opacity:0.882" fill="#d1265a" d="M 240.5,35.5 C 243.167,35.5 245.833,35.5 248.5,35.5C 251.239,38.2327 253.573,41.2327 255.5,44.5C 253.167,44.5 250.833,44.5 248.5,44.5C 245.833,41.5 243.167,38.5 240.5,35.5 Z"/></g>
<g><path style="opacity:0.851" fill="#cd275c" d="M 248.5,35.5 C 249.167,35.5 249.833,35.5 250.5,35.5C 253.56,38.2225 256.227,41.2225 258.5,44.5C 257.5,44.5 256.5,44.5 255.5,44.5C 253.573,41.2327 251.239,38.2327 248.5,35.5 Z"/></g>
<g><path style="opacity:0.912" fill="#c9265f" d="M 250.5,35.5 C 252.5,35.5 254.5,35.5 256.5,35.5C 258.545,37.8408 260.545,40.1741 262.5,42.5C 261.486,43.6737 260.153,44.3404 258.5,44.5C 256.227,41.2225 253.56,38.2225 250.5,35.5 Z"/></g>
<g><path style="opacity:0.757" fill="#c52661" d="M 256.5,35.5 C 260.756,34.4545 263.422,35.9545 264.5,40C 264.361,41.301 263.695,42.1344 262.5,42.5C 260.545,40.1741 258.545,37.8408 256.5,35.5 Z"/></g>
<g><path style="opacity:0.812" fill="#be2666" d="M 271.5,35.5 C 274.239,38.2327 276.573,41.2327 278.5,44.5C 276.167,44.5 273.833,44.5 271.5,44.5C 270.918,43.0689 270.085,41.7356 269,40.5C 268.329,39.7476 267.496,39.4142 266.5,39.5C 266.989,36.676 268.656,35.3426 271.5,35.5 Z"/></g>
<g><path style="opacity:0.894" fill="#b92769" d="M 271.5,35.5 C 272.833,35.5 274.167,35.5 275.5,35.5C 277.255,37.9883 279.255,40.3216 281.5,42.5C 281.027,43.9063 280.027,44.573 278.5,44.5C 276.573,41.2327 274.239,38.2327 271.5,35.5 Z"/></g>
<g><path style="opacity:0.925" fill="#b6276b" d="M 275.5,35.5 C 276.5,35.5 277.5,35.5 278.5,35.5C 279.833,37.5 281.5,39.1667 283.5,40.5C 283.167,41.5 282.5,42.1667 281.5,42.5C 279.255,40.3216 277.255,37.9883 275.5,35.5 Z"/></g>
<g><path style="opacity:0.732" fill="#b4286d" d="M 278.5,35.5 C 281.833,35.5 283.5,37.1667 283.5,40.5C 281.5,39.1667 279.833,37.5 278.5,35.5 Z"/></g>
<g><path style="opacity:0.797" fill="#ac2772" d="M 293.5,42.5 C 291.798,40.4632 289.798,38.7966 287.5,37.5C 289.011,35.5589 291.011,35.0589 293.5,36C 296.134,38.2933 296.134,40.46 293.5,42.5 Z"/></g>
<g><path style="opacity:0.864" fill="#a32777" d="M 301.5,35.5 C 304.643,38.0727 307.31,41.0727 309.5,44.5C 308.167,44.5 306.833,44.5 305.5,44.5C 303.471,42.1415 301.471,39.8082 299.5,37.5C 299.833,36.5 300.5,35.8333 301.5,35.5 Z"/></g>
<g><path style="opacity:0.892" fill="#9f277a" d="M 301.5,35.5 C 303.833,35.5 306.167,35.5 308.5,35.5C 310.167,37.8333 312.167,39.8333 314.5,41.5C 313.341,43.2503 311.674,44.2503 309.5,44.5C 307.31,41.0727 304.643,38.0727 301.5,35.5 Z"/></g>
<g><path style="opacity:0.782" fill="#9a277d" d="M 308.5,35.5 C 313.5,34.5 315.5,36.5 314.5,41.5C 312.167,39.8333 310.167,37.8333 308.5,35.5 Z"/></g>
<g><path style="opacity:0.806" fill="#dc2653" d="M 233.5,36.5 C 236.882,38.5487 239.549,41.2154 241.5,44.5C 239.265,44.7947 237.265,44.4614 235.5,43.5C 234.5,41.8333 233.167,40.5 231.5,39.5C 231.427,37.9731 232.094,36.9731 233.5,36.5 Z"/></g>
<g><path style="opacity:0.746" fill="#b0276f" d="M 287.5,37.5 C 289.798,38.7966 291.798,40.4632 293.5,42.5C 291.081,45.2469 288.914,44.9135 287,41.5C 286.235,39.9343 286.402,38.6009 287.5,37.5 Z"/></g>
<g><path style="opacity:0.773" fill="#a72775" d="M 299.5,37.5 C 301.471,39.8082 303.471,42.1415 305.5,44.5C 299.611,44.9699 297.611,42.6366 299.5,37.5 Z"/></g>
<g><path style="opacity:0.561" fill="#df2751" d="M 231.5,39.5 C 233.167,40.5 234.5,41.8333 235.5,43.5C 233.167,43.1667 231.833,41.8333 231.5,39.5 Z"/></g>
<g><path style="opacity:0.567" fill="#c22664" d="M 266.5,39.5 C 267.496,39.4142 268.329,39.7476 269,40.5C 270.085,41.7356 270.918,43.0689 271.5,44.5C 268.833,43.8333 267.167,42.1667 266.5,39.5 Z"/></g>
<g><path style="opacity:0.837" fill="#e4264d" d="M 238.5,46.5 C 239.754,49.0934 241.42,51.4268 243.5,53.5C 243.389,54.1174 243.056,54.6174 242.5,55C 238.167,55.6667 233.833,55.6667 229.5,55C 226.735,52.0337 227.068,49.367 230.5,47C 233.146,46.5026 235.813,46.3359 238.5,46.5 Z"/></g>
<g><path style="opacity:0.484" fill="#de2751" d="M 238.5,46.5 C 243.129,47.0839 244.795,49.4172 243.5,53.5C 241.42,51.4268 239.754,49.0934 238.5,46.5 Z"/></g>
<g><path style="opacity:0.515" fill="#d42758" d="M 250.5,47.5 C 254.071,46.7011 256.071,48.3677 256.5,52.5C 254.5,50.8333 252.5,49.1667 250.5,47.5 Z"/></g>
<g><path style="opacity:0.87" fill="#c9265f" d="M 268.5,46.5 C 270.482,49.8103 272.815,52.8103 275.5,55.5C 273.833,55.5 272.167,55.5 270.5,55.5C 267.791,52.8248 265.124,50.1581 262.5,47.5C 264.265,46.5386 266.265,46.2053 268.5,46.5 Z"/></g>
<g><path style="opacity:0.875" fill="#c52661" d="M 268.5,46.5 C 270.167,46.5 271.833,46.5 273.5,46.5C 273.5,47.8333 274.167,48.5 275.5,48.5C 275.5,50.5 276.5,51.5 278.5,51.5C 279.211,53.0301 280.211,54.3634 281.5,55.5C 279.5,55.5 277.5,55.5 275.5,55.5C 272.815,52.8103 270.482,49.8103 268.5,46.5 Z"/></g>
<g><path style="opacity:0.563" fill="#c22764" d="M 273.5,46.5 C 274.167,46.5 274.833,46.5 275.5,46.5C 275.5,47.1667 275.5,47.8333 275.5,48.5C 274.167,48.5 273.5,47.8333 273.5,46.5 Z"/></g>
<g><path style="opacity:0.87" fill="#be2666" d="M 275.5,46.5 C 277.833,46.5 280.167,46.5 282.5,46.5C 284.833,49.1667 287.167,51.8333 289.5,54.5C 287.735,55.4614 285.735,55.7947 283.5,55.5C 282.415,53.4131 280.749,52.0798 278.5,51.5C 276.5,51.5 275.5,50.5 275.5,48.5C 275.5,47.8333 275.5,47.1667 275.5,46.5 Z"/></g>
<g><path style="opacity:0.803" fill="#b92769" d="M 282.5,46.5 C 283.833,46.5 285.167,46.5 286.5,46.5C 288.144,48.4807 289.81,50.4807 291.5,52.5C 291.167,53.5 290.5,54.1667 289.5,54.5C 287.167,51.8333 284.833,49.1667 282.5,46.5 Z"/></g>
<g><path style="opacity:0.633" fill="#b7276b" d="M 286.5,46.5 C 289.621,47.2876 291.288,49.2876 291.5,52.5C 289.81,50.4807 288.144,48.4807 286.5,46.5 Z"/></g>
<g><path style="opacity:0.533" fill="#ad2871" d="M 297.5,47.5 C 301.071,46.7011 303.071,48.3677 303.5,52.5C 301.291,51.08 299.291,49.4133 297.5,47.5 Z"/></g>
<g><path style="opacity:0.671" fill="#a42777" d="M 314.5,52.5 C 312.5,51.1667 310.833,49.5 309.5,47.5C 310.833,49.5 312.5,51.1667 314.5,52.5 Z"/></g>
<g><path style="opacity:0.829" fill="#d82655" d="M 250.5,47.5 C 252.5,49.1667 254.5,50.8333 256.5,52.5C 255.833,53.8333 254.833,54.8333 253.5,55.5C 251.817,53.4864 249.817,51.8198 247.5,50.5C 247.5,48.5 248.5,47.5 250.5,47.5 Z"/></g>
<g><path style="opacity:0.904" fill="#cd275d" d="M 260.5,48.5 C 260.842,47.6618 261.508,47.3284 262.5,47.5C 265.124,50.1581 267.791,52.8248 270.5,55.5C 269.5,55.5 268.5,55.5 267.5,55.5C 265.5,52.8333 263.167,50.5 260.5,48.5 Z"/></g>
<g><path style="opacity:0.828" fill="#b2276e" d="M 297.5,47.5 C 299.291,49.4133 301.291,51.08 303.5,52.5C 301.947,55.254 299.614,56.0874 296.5,55C 294.604,53.1917 294.104,51.025 295,48.5C 295.671,47.7476 296.504,47.4142 297.5,47.5 Z"/></g>
<g><path style="opacity:0.819" fill="#a72775" d="M 309.5,47.5 C 310.833,49.5 312.5,51.1667 314.5,52.5C 314.573,54.0269 313.906,55.0269 312.5,55.5C 311.246,52.9066 309.58,50.5732 307.5,48.5C 307.842,47.6618 308.508,47.3284 309.5,47.5 Z"/></g>
<g><path style="opacity:0.838" fill="#d0265a" d="M 260.5,48.5 C 263.167,50.5 265.5,52.8333 267.5,55.5C 260.903,56.774 258.57,54.4407 260.5,48.5 Z"/></g>
<g><path style="opacity:1" fill="#c22664" d="M 275.5,48.5 C 277.5,48.5 278.5,49.5 278.5,51.5C 278.5,49.5 277.5,48.5 275.5,48.5 Z"/></g>
<g><path style="opacity:0.809" fill="#aa2773" d="M 307.5,48.5 C 309.58,50.5732 311.246,52.9066 312.5,55.5C 307.214,55.587 305.548,53.2537 307.5,48.5 Z"/></g>
<g><path style="opacity:0.752" fill="#db2653" d="M 247.5,50.5 C 249.817,51.8198 251.817,53.4864 253.5,55.5C 249.651,55.9807 247.651,54.314 247.5,50.5 Z"/></g>
<g><path style="opacity:0.94" fill="#c22664" d="M 278.5,51.5 C 280.749,52.0798 282.415,53.4131 283.5,55.5C 282.833,55.5 282.167,55.5 281.5,55.5C 280.211,54.3634 279.211,53.0301 278.5,51.5 Z"/></g>
<g><path style="opacity:0.861" fill="#dc2752" d="M 257.5,58.5 C 259.833,61.5 262.167,64.5 264.5,67.5C 262.833,67.5 261.167,67.5 259.5,67.5C 257.5,64.8333 255.167,62.5 252.5,60.5C 253.635,58.7868 255.302,58.1201 257.5,58.5 Z"/></g>
<g><path style="opacity:0.877" fill="#d72656" d="M 257.5,58.5 C 259.5,58.5 261.5,58.5 263.5,58.5C 266.167,61.5 268.833,64.5 271.5,67.5C 269.167,67.5 266.833,67.5 264.5,67.5C 262.167,64.5 259.833,61.5 257.5,58.5 Z"/></g>
<g><path style="opacity:0.872" fill="#d1265a" d="M 263.5,58.5 C 266.167,58.5 268.833,58.5 271.5,58.5C 274.167,61.5 276.833,64.5 279.5,67.5C 276.833,67.5 274.167,67.5 271.5,67.5C 268.833,64.5 266.167,61.5 263.5,58.5 Z"/></g>
<g><path style="opacity:0.844" fill="#cd275c" d="M 271.5,58.5 C 272.5,58.5 273.5,58.5 274.5,58.5C 276.49,61.4883 278.823,64.1549 281.5,66.5C 281.158,67.3382 280.492,67.6716 279.5,67.5C 276.833,64.5 274.167,61.5 271.5,58.5 Z"/></g>
<g><path style="opacity:0.839" fill="#ca265f" d="M 274.5,58.5 C 276.5,58.5 278.5,58.5 280.5,58.5C 280.738,60.4044 281.738,61.7377 283.5,62.5C 283.771,64.3797 283.104,65.713 281.5,66.5C 278.823,64.1549 276.49,61.4883 274.5,58.5 Z"/></g>
<g><path style="opacity:0.456" fill="#c62760" d="M 280.5,58.5 C 282.262,59.2623 283.262,60.5956 283.5,62.5C 281.738,61.7377 280.738,60.4044 280.5,58.5 Z"/></g>
<g><path style="opacity:0.891" fill="#be2666" d="M 294.5,58.5 C 296.833,61.1667 299.167,63.8333 301.5,66.5C 299.621,67.3414 297.621,67.6747 295.5,67.5C 293.167,64.8333 290.833,62.1667 288.5,59.5C 290.379,58.6586 292.379,58.3253 294.5,58.5 Z"/></g>
<g><path style="opacity:0.814" fill="#b92769" d="M 294.5,58.5 C 295.833,58.5 297.167,58.5 298.5,58.5C 299.5,60.8333 301.167,62.5 303.5,63.5C 303.068,64.7095 302.401,65.7095 301.5,66.5C 299.167,63.8333 296.833,61.1667 294.5,58.5 Z"/></g>
<g><path style="opacity:0.59" fill="#b7276b" d="M 298.5,58.5 C 301.167,59.1667 302.833,60.8333 303.5,63.5C 301.167,62.5 299.5,60.8333 298.5,58.5 Z"/></g>
<g><path style="opacity:0.864" fill="#df2751" d="M 251.5,61.5 C 251.5,60.8333 251.833,60.5 252.5,60.5C 255.167,62.5 257.5,64.8333 259.5,67.5C 258.833,67.5 258.167,67.5 257.5,67.5C 255.833,65.1667 253.833,63.1667 251.5,61.5 Z"/></g>
<g><path style="opacity:0.719" fill="#e2274f" d="M 251.5,61.5 C 253.833,63.1667 255.833,65.1667 257.5,67.5C 253.167,67.8333 251.167,65.8333 251.5,61.5 Z"/></g>
<g><path style="opacity:0.66" fill="#c32663" d="M 288.5,59.5 C 290.833,62.1667 293.167,64.8333 295.5,67.5C 292.315,67.9804 289.481,67.3137 287,65.5C 286.262,63.1195 286.762,61.1195 288.5,59.5 Z"/></g>
<g><path style="opacity:0.858" fill="#e5274c" d="M 166.5,134.5 C 161.833,134.5 157.167,134.5 152.5,134.5C 143.349,130.842 137.515,124.176 135,114.5C 134.333,99.5 134.333,84.5 135,69.5C 138.55,66.5541 141.216,67.2207 143,71.5C 143.333,77.8333 143.667,84.1667 144,90.5C 160.258,80.7549 173.258,84.0882 183,100.5C 187.322,116.737 181.822,128.071 166.5,134.5 Z M 154.5,93.5 C 169.304,92.1411 176.471,98.8078 176,113.5C 172.551,123.932 165.384,128.099 154.5,126C 144.354,121.544 140.854,114.044 144,103.5C 146.106,98.5573 149.606,95.224 154.5,93.5 Z"/></g>
<g><path style="opacity:0.738" fill="#cd275d" d="M 287.5,74.5 C 285.5,73.1667 283.833,71.5 282.5,69.5C 285.536,69.1904 287.203,70.857 287.5,74.5 Z"/></g>
<g><path style="opacity:0.863" fill="#d1265a" d="M 282.5,69.5 C 283.833,71.5 285.5,73.1667 287.5,74.5C 285.092,78.0126 282.258,78.3459 279,75.5C 277.878,72.1284 279.045,70.1284 282.5,69.5 Z"/></g>
<g><path style="opacity:0.903" fill="#1b1e28" d="M -0.5,85.5 C 4.5,85.5 9.5,85.5 14.5,85.5C 14.8178,101.911 14.4845,118.244 13.5,134.5C 11.8333,134.5 10.1667,134.5 8.5,134.5C 8.16667,133.167 7.83333,133.167 7.5,134.5C 4.83333,134.5 2.16667,134.5 -0.5,134.5C -0.5,118.167 -0.5,101.833 -0.5,85.5 Z"/></g>
<g><path style="opacity:0.876" fill="#1b1e28" d="M 49.5,134.5 C 40.1667,134.5 30.8333,134.5 21.5,134.5C 21.5,118.167 21.5,101.833 21.5,85.5C 31.1667,85.5 40.8333,85.5 50.5,85.5C 49.7564,89.1185 49.423,92.7852 49.5,96.5C 45.1667,96.5 40.8333,96.5 36.5,96.5C 36.5,98.8333 36.5,101.167 36.5,103.5C 40.8333,103.5 45.1667,103.5 49.5,103.5C 48.7564,107.119 48.423,110.785 48.5,114.5C 44.5,114.5 40.5,114.5 36.5,114.5C 36.5,117.167 36.5,119.833 36.5,122.5C 41.5,122.5 46.5,122.5 51.5,122.5C 50.9938,126.561 50.3271,130.561 49.5,134.5 Z"/></g>
<g><path style="opacity:0.878" fill="#1b1e28" d="M 84.5,134.5 C 75.1667,134.5 65.8333,134.5 56.5,134.5C 56.5,118.167 56.5,101.833 56.5,85.5C 66.1667,85.5 75.8333,85.5 85.5,85.5C 84.7564,89.1185 84.423,92.7852 84.5,96.5C 80.1667,96.5 75.8333,96.5 71.5,96.5C 71.5,98.8333 71.5,101.167 71.5,103.5C 75.5138,103.334 79.5138,103.501 83.5,104C 83.6584,107.288 83.6584,110.788 83.5,114.5C 79.5,114.5 75.5,114.5 71.5,114.5C 71.5,117.167 71.5,119.833 71.5,122.5C 76.5,122.5 81.5,122.5 86.5,122.5C 85.9938,126.561 85.3271,130.561 84.5,134.5 Z"/></g>
<g><path style="opacity:0.88" fill="#1b1e28" d="M 119.5,134.5 C 110.167,134.5 100.833,134.5 91.5,134.5C 91.5,118.167 91.5,101.833 91.5,85.5C 101.19,85.1682 110.856,85.5016 120.5,86.5C 119.583,89.7577 119.249,93.091 119.5,96.5C 115.167,96.5 110.833,96.5 106.5,96.5C 106.5,98.8333 106.5,101.167 106.5,103.5C 110.5,103.5 114.5,103.5 118.5,103.5C 118.5,107.167 118.5,110.833 118.5,114.5C 114.5,114.5 110.5,114.5 106.5,114.5C 106.5,117.167 106.5,119.833 106.5,122.5C 111.544,122.173 116.544,122.506 121.5,123.5C 120.832,127.197 120.165,130.863 119.5,134.5 Z"/></g>
<g><path style="opacity:0.858" fill="#e5274c" d="M 195.5,134.5 C 194.833,134.5 194.167,134.5 193.5,134.5C 192.828,133.733 191.995,133.066 191,132.5C 190.333,117.5 190.333,102.5 191,87.5C 194.488,84.5385 197.155,85.2052 199,89.5C 206.226,84.5639 213.726,84.2306 221.5,88.5C 224.59,92.1396 223.923,94.8063 219.5,96.5C 212.065,91.8231 205.565,92.8231 200,99.5C 198.735,110.428 198.068,121.428 198,132.5C 197.005,133.066 196.172,133.733 195.5,134.5 Z"/></g>
<g><path style="opacity:0.88" fill="#e5274c" d="M 268.5,134.5 C 268.167,134.5 267.833,134.5 267.5,134.5C 265.099,133.254 263.599,131.254 263,128.5C 260.157,131.163 256.991,133.163 253.5,134.5C 249.167,134.5 244.833,134.5 240.5,134.5C 224.146,127.448 218.979,115.448 225,98.5C 234.003,84.9793 245.837,81.8126 260.5,89C 264.481,92.1086 267.648,95.9419 270,100.5C 271.595,111.093 271.928,121.76 271,132.5C 270.005,133.066 269.172,133.733 268.5,134.5 Z M 243.5,93.5 C 261.045,94.2533 266.879,102.92 261,119.5C 252.289,128.395 243.289,128.729 234,120.5C 229.401,113.567 229.401,106.567 234,99.5C 236.843,96.8373 240.009,94.8373 243.5,93.5 Z"/></g>
<g><path style="opacity:0.779" fill="#e5274c" d="M 283.5,134.5 C 283.167,134.5 282.833,134.5 282.5,134.5C 281.312,133.636 280.145,132.636 279,131.5C 278.333,117.167 278.333,102.833 279,88.5C 281.667,84.5 284.333,84.5 287,88.5C 287.667,102.833 287.667,117.167 287,131.5C 285.855,132.636 284.688,133.636 283.5,134.5 Z"/></g>
<g><path style="opacity:0.869" fill="#e5274c" d="M 334.5,99.5 C 334.5,110.5 334.5,121.5 334.5,132.5C 333.29,132.932 332.29,133.599 331.5,134.5C 330.833,134.5 330.167,134.5 329.5,134.5C 328.878,133.373 328.045,132.373 327,131.5C 326.667,121.5 326.333,111.5 326,101.5C 320.746,92.8738 313.912,91.3738 305.5,97C 304.54,98.4194 303.707,99.9194 303,101.5C 302.667,111.5 302.333,121.5 302,131.5C 300.955,132.373 300.122,133.373 299.5,134.5C 298.833,134.5 298.167,134.5 297.5,134.5C 296.828,133.733 295.995,133.066 295,132.5C 294.333,117.5 294.333,102.5 295,87.5C 298.488,84.5385 301.155,85.2052 303,89.5C 316.82,82.273 327.32,85.6063 334.5,99.5 Z"/></g>
</svg>
