<svg xmlns="http://www.w3.org/2000/svg" height="179.747" width="790.613" xml:space="preserve"><defs><linearGradient id="b" spreadMethod="pad" gradientTransform="matrix(2250 370 370 -2250 -59.456 624.561)" gradientUnits="userSpaceOnUse" y2="0" x2="1" y1="0" x1="0"><stop offset="0" style="stop-opacity:1;stop-color:#60c4f1"/><stop offset=".483" style="stop-opacity:1;stop-color:#3067b9"/><stop offset="1" style="stop-opacity:1;stop-color:#3143a0"/></linearGradient><linearGradient id="d" spreadMethod="pad" gradientTransform="matrix(2250 370 370 -2250 -47.795 553.653)" gradientUnits="userSpaceOnUse" y2="0" x2="1" y1="0" x1="0"><stop offset="0" style="stop-opacity:1;stop-color:#60c4f1"/><stop offset=".483" style="stop-opacity:1;stop-color:#3067b9"/><stop offset="1" style="stop-opacity:1;stop-color:#3143a0"/></linearGradient><clipPath id="a" clipPathUnits="userSpaceOnUse"><path d="M412.18 844.781c-45.61 45.602-106.242 70.711-170.735 70.711-64.492 0-125.129-25.109-170.738-70.719C25.117 799.184 0 738.547 0 674.051c0-64.52 25.117-125.156 70.703-170.723 45.59-45.613 106.235-70.73 170.742-70.73 64.504 0 125.149 25.117 170.735 70.722 45.601 45.594 70.715 106.231 70.715 170.727-.004 64.492-25.122 125.125-70.715 170.734z"/></clipPath><clipPath id="c" clipPathUnits="userSpaceOnUse"><path d="M1287.69 844.637c-45.61 45.601-106.24 70.703-170.74 70.703-1.1 0-2.2-.004-3.29-.02-50.07-.672-98.43 17.989-133.836 53.395l-.808.805c-35.403 35.41-54.067 83.77-53.391 133.83.012 1.1.023 2.2.023 3.31-.011 64.49-25.121 125.13-70.718 170.73-55.942 55.94-134.492 81.04-215.043 66.79-33.032-5.84-64.621-18.9-92.129-38.1-67.145-46.86-105.004-120.23-105.004-199.42 0-64.52 25.109-125.152 70.695-170.722 45.598-45.614 106.239-70.735 170.75-70.735 1.102 0 2.207.012 3.309.024 50.062.675 98.43-17.989 133.832-53.391l.797-.797c35.406-35.406 54.066-83.769 53.394-133.84a240.619 240.619 0 0 1-.019-3.293c0-1.105.004-2.211.019-3.312.672-50.059-17.988-98.426-53.394-133.828l-.465-.469c-35.715-35.711-84.609-53.828-135.121-53.406-16.492.136-33.25-1.387-50.098-4.68-32.984-6.434-64.41-20.012-91.668-39.668-65.094-46.934-101.726-119.203-101.726-197.082 0-64.531 25.117-125.16 70.703-170.73 55.879-55.903 134.371-81.02 214.879-66.84 33.031 5.82 64.621 18.859 92.144 38.03 67.25 46.86 105.172 120.278 105.172 199.528 0 1.102-.008 2.192-.019 3.281-.68 50.079 17.98 98.45 53.39 133.864l.445.449c35.737 35.73 84.657 53.816 135.197 53.418 16.4-.141 33.07 1.375 49.82 4.629 33 6.414 64.44 19.969 91.73 39.605 65.2 46.938 101.88 119.25 101.88 197.203 0 64.493-25.12 125.129-70.71 170.739z"/></clipPath></defs><path style="fill:#404143;fill-opacity:1;fill-rule:nonzero;stroke:none" d="M1605.27 574.559c0-19.551-15.89-35.442-35.44-35.442-19.55 0-35.44 15.891-35.44 35.442v350.082c0 19.55 15.89 35.433 35.44 35.433 19.55 0 35.44-15.883 35.44-35.433V574.559M2100.14 723.637v-152.75c0-18.321-14.66-31.77-32.99-31.77-19.55 0-32.99 13.449-32.99 31.77v140.527c0 34.824-14.05 58.652-53.77 58.652-43.99 0-61.09-23.828-61.09-58.043V570.887c0-18.321-14.66-31.77-32.99-31.77-19.55 0-33 13.449-33 31.77v140.527c0 34.824-14.05 58.652-53.76 58.652-45.82 0-61.09-26.878-61.09-62.929v-136.25c0-18.321-14.06-31.77-33-31.77-18.94 0-32.99 13.449-32.99 31.77v222.398c0 18.328 14.66 32.992 32.99 32.992 18.33 0 33-14.664 33-32.992 11.6 17.719 37.26 36.66 78.2 36.66 50.1 0 75.15-15.89 90.42-39.718 19.55 26.277 45.82 39.718 87.37 39.718 83.09 0 105.69-53.156 105.69-106.308M2323.14 646.043v17.105h-71.48c-26.88 0-41.54-12.828-41.54-34.828 0-23.215 16.49-37.265 50.7-37.265 32.39 0 62.32 20.769 62.32 54.988zm-116.69 102.031c-6.11-4.277-11-6.109-18.33-6.109-15.89 0-28.72 12.828-28.72 28.711 0 6.726 2.45 14.054 7.95 20.168 17.11 18.933 47.65 39.101 100.2 39.101 75.75 0 120.96-37.269 120.96-102.031v-156.41c0-17.719-14.66-32.387-32.37-32.387-17.72 0-32.39 14.668-32.39 32.387-16.49-26.27-43.38-35.441-80.03-35.441-59.87 0-99.59 37.277-99.59 92.257 0 56.825 45.82 86.153 98.98 86.153h80.03v10.996c0 27.492-20.16 45.824-55.59 45.824-26.89 0-45.83-12.223-61.1-23.219M2560.18 676.59c34.22 0 53.77 21.383 53.77 48.879 0 27.492-19.55 48.875-53.77 48.875-34.2 0-53.76-21.383-53.76-48.875 0-27.496 19.56-48.879 53.76-48.879zm29.95-133.192h-57.44c-23.21-4.882-35.43-18.332-35.43-31.769 0-23.211 24.44-34.219 70.87-34.219 36.66 0 69.65 11.008 69.65 36.055 0 19.551-20.16 29.933-47.65 29.933zm-29.95 77.594c-21.38 0-41.54 3.664-57.42 9.778-3.67-3.055-5.5-8.555-5.5-12.832 0-10.391 7.94-20.77 36.04-20.77h56.83c62.93 0 113.63-22.004 113.63-83.703 0-62.324-58.65-92.254-136.24-92.254-66.6 0-136.25 18.934-136.25 90.418 0 21.992 10.39 43.379 36.66 59.875-15.89 9.773-28.71 25.047-28.71 48.875 0 15.273 6.72 29.941 20.77 41.547-14.05 18.332-19.55 39.101-19.55 63.543 0 64.758 44.6 104.476 119.74 104.476 22.61 0 42.16-3.668 58.66-10.39 11.61 14.664 31.77 28.105 61.09 28.105 15.28 0 27.5-12.219 27.5-27.492 0-15.277-12.22-27.492-27.5-27.492-7.94 0-14.05-1.832-18.33-5.5 12.23-16.5 18.33-37.27 18.33-61.707 0-64.762-44.59-104.477-119.75-104.477M2816.18 572.117c0-18.332-14.66-33-32.99-33-18.33 0-32.99 14.668-32.99 33v221.168c0 18.328 14.66 32.992 32.99 32.992 18.33 0 32.99-14.664 32.99-32.992zm-72.09 325.641c0 28.105 14.05 40.328 39.1 40.328 25.66 0 39.71-12.223 39.71-40.328 0-23.828-14.05-38.488-39.71-38.488-25.05 0-39.1 14.66-39.1 38.488M3124.1 723.637v-152.75c0-18.321-14.66-31.77-32.99-31.77-19.55 0-33 13.449-33 31.77v140.527c0 34.824-14.05 58.652-53.76 58.652-45.82 0-61.09-26.878-61.09-62.929v-136.25c0-18.321-14.05-31.77-32.99-31.77s-33 13.449-33 31.77v222.398c0 18.328 14.67 32.992 33 32.992s32.99-14.664 32.99-32.992c11.61 17.719 37.27 36.66 78.2 36.66 83.09 0 102.64-53.156 102.64-106.308M3295.78 676.59c34.21 0 53.76 21.383 53.76 48.879 0 27.492-19.55 48.875-53.76 48.875-34.22 0-53.77-21.383-53.77-48.875 0-27.496 19.55-48.879 53.77-48.879zm29.93-133.192h-57.43c-23.21-4.882-35.43-18.332-35.43-31.769 0-23.211 24.43-34.219 70.87-34.219 36.66 0 69.65 11.008 69.65 36.055 0 19.551-20.16 29.933-47.66 29.933zm-29.93 77.594c-21.39 0-41.54 3.664-57.43 9.778-3.66-3.055-5.5-8.555-5.5-12.832 0-10.391 7.94-20.77 36.04-20.77h56.82c62.93 0 113.64-22.004 113.64-83.703 0-62.324-58.65-92.254-136.25-92.254-66.59 0-136.24 18.934-136.24 90.418 0 21.992 10.39 43.379 36.66 59.875-15.88 9.773-28.72 25.047-28.72 48.875 0 15.273 6.73 29.941 20.78 41.547-14.05 18.332-19.55 39.101-19.55 63.543 0 64.758 44.6 104.476 119.75 104.476 22.61 0 42.16-3.668 58.65-10.39 11.6 14.664 31.77 28.105 61.1 28.105a27.378 27.378 0 0 0 27.49-27.492 27.376 27.376 0 0 0-27.49-27.492c-7.94 0-14.06-1.832-18.33-5.5 12.21-16.5 18.33-37.27 18.33-61.707 0-64.762-44.6-104.477-119.75-104.477M3540.16 560.789h118.53c67.21 0 99.58 36.047 99.58 95.313 0 64.761-35.43 95.921-100.8 95.921h-117.31zm0 208.34h97.76c65.97 0 100.8 30.547 100.8 84.312 0 54.375-31.77 84.317-100.8 84.317h-97.76zm-9.77-225.449c-5.5 0-9.78 4.277-9.78 9.773v391.633c0 5.5 4.28 9.777 9.78 9.777h107.53c83.08 0 120.35-39.101 120.35-101.422 0-56.207-39.1-83.089-66.59-89.808 44.6-6.11 86.14-37.883 86.14-107.531 0-69.043-41.54-112.422-119.13-112.422h-128.3M3869.47 816.785V547.957c0-4.883-4.28-9.16-9.16-9.16-4.89 0-9.17 4.277-9.17 9.16v268.828c0 4.887 4.28 9.164 9.17 9.164 4.88 0 9.16-4.277 9.16-9.164zm-20.16 101.422c0 9.16 3.67 12.824 11 12.824s11-3.664 11-12.824c0-9.164-3.67-12.832-11-12.832s-11 3.668-11 12.832M4167 682.98c0 89.817-37.27 130.75-105.7 130.75s-105.7-40.933-105.7-130.75c0-91.031 37.27-131.351 105.7-131.351S4167 591.949 4167 682.98zm19.55 0c0-100.199-47.05-147.242-125.25-147.242-78.21 0-125.25 47.043-125.25 147.242 0 100.204 47.04 146.633 125.25 146.633 78.2 0 125.25-46.429 125.25-146.633M4667.37 721.473V547.957c0-4.883-4.28-9.16-9.17-9.16-4.88 0-9.16 4.277-9.16 9.16v173.516c0 49.488-19.55 92.867-90.42 92.867-64.15 0-89.21-43.379-89.21-93.477V547.957c0-4.883-4.27-9.16-9.16-9.16-4.88 0-9.16 4.277-9.16 9.16v173.516c0 49.488-16.5 92.867-88.59 92.867-64.15 0-91.04-53.766-91.04-106.305V547.957c0-4.883-4.27-9.16-9.16-9.16-4.89 0-9.17 4.277-9.17 9.16v268.828c0 4.887 4.28 9.164 9.17 9.164s9.16-4.277 9.16-9.164v-46.433c8.56 26.882 37.28 59.261 92.87 59.261 57.44 0 87.37-24.433 98.36-56.816 8.56 25.656 38.5 56.816 95.93 56.816 87.98 0 108.75-51.929 108.75-108.14M4853.1 813.73c-69.03 0-103.25-45.21-105.69-117.917h202.23s.61 12.222.61 17.109c0 48.879-18.94 100.808-97.15 100.808zm0 15.883c101.43 0 114.87-75.758 114.87-116.691 0-6.723 0-15.274-1.22-22.606-1.22-6.718-5.5-9.777-13.45-9.777h-205.89c0-87.98 40.94-128.91 112.41-128.91 45.83 0 68.43 15.879 86.16 30.547 1.82 1.222 3.05 1.828 4.88 1.828 4.28 0 7.95-3.664 7.95-7.941 0-3.055-1.84-4.883-3.67-6.719-9.78-9.168-39.11-33.606-95.32-33.606-81.25 0-131.34 43.989-131.34 147.242 0 94.704 46.42 146.633 124.62 146.633M5046.77 895.598c0 4.89 4.27 9.168 9.17 9.168 4.88 0 9.16-4.278 9.16-9.168v-74.535h54.99c4.27 0 7.94-3.668 7.94-7.946 0-4.277-3.67-7.937-7.94-7.937h-54.99V610.887c0-36.66 20.77-56.211 50.71-56.211 4.28 0 7.94-3.66 7.94-7.938 0-4.277-3.66-7.941-7.94-7.941-44.6 0-69.04 30.547-69.04 72.09V805.18h-37.88c-4.27 0-7.94 3.66-7.94 7.937 0 4.278 3.67 7.946 7.94 7.946h37.88v74.535M5211.73 816.785V756.91c12.83 40.934 47.05 72.094 104.47 72.094 4.28 0 7.95-3.664 7.95-7.941 0-4.278-3.67-7.946-7.95-7.946-70.25 0-104.47-54.375-104.47-120.969V547.957c0-4.883-4.28-9.16-9.16-9.16-4.9 0-9.17 4.277-9.17 9.16v268.828c0 4.887 4.27 9.164 9.17 9.164 4.88 0 9.16-4.277 9.16-9.164M5395.02 816.785V547.957c0-4.883-4.28-9.16-9.16-9.16-4.89 0-9.17 4.277-9.17 9.16v268.828c0 4.887 4.28 9.164 9.17 9.164 4.88 0 9.16-4.277 9.16-9.164zm-20.16 101.422c0 9.16 3.66 12.824 11 12.824 7.32 0 10.99-3.664 10.99-12.824 0-9.164-3.67-12.832-10.99-12.832-7.34 0-11 3.668-11 12.832M5586.85 829.613c60.49 0 84.32-32.988 90.43-40.933 1.22-1.832 1.83-3.668 1.83-5.496 0-4.282-3.66-7.946-7.94-7.946-3.06 0-4.89 1.227-6.72 3.664-10.39 12.223-28.72 34.828-77.6 34.828-69.03 0-105.69-40.324-105.69-130.75 0-91.644 36.66-131.351 105.69-131.351 42.16 0 65.38 17.715 81.26 29.934 1.84 1.218 3.06 1.835 4.9 1.835 4.27 0 7.94-3.671 7.94-7.953 0-1.824-.62-4.265-3.67-6.715-12.22-9.777-40.93-32.992-90.43-32.992-78.2 0-125.24 47.043-125.24 147.242 0 100.204 47.04 146.633 125.24 146.633M5754.85 761.184c0-81.254 174.74-53.149 174.74-149.68 0-51.934-43.99-75.766-100.8-75.766-51.33 0-89.21 21.996-103.87 42.16-1.84 2.442-2.44 3.665-2.44 6.106 0 4.891 4.28 7.945 7.94 7.945 1.83 0 3.66-.613 5.5-2.449 20.77-23.215 47.04-37.871 92.87-37.871 44.6 0 82.47 15.879 82.47 59.875 0 78.812-174.73 53.152-174.73 149.68 0 47.046 39.71 68.429 89.81 68.429 41.55 0 70.87-14.047 91.03-36.656 1.84-2.445 2.44-3.668 2.44-6.109 0-4.278-3.66-7.946-7.94-7.946-1.22 0-3.05 0-5.49 2.45-21.39 21.382-44.6 32.378-80.04 32.378-36.05 0-71.49-12.828-71.49-52.546" transform="matrix(.13333 0 0 -.13333 0 179.747)"/><path style="fill:#3c7ec9;fill-opacity:1;fill-rule:nonzero;stroke:none" d="M1534.23 263.738c0 37.184 18.04 55.063 48.31 55.063 14.9 0 27.77-6.43 34.83-16.313.31-.476.62-1.109.62-1.726 0-1.262-.94-2.203-2.19-2.203-.63 0-1.26.16-1.89.941-6.27 8.48-17.72 14.898-31.37 14.898-27.61 0-43.29-15.839-43.29-50.66 0-36.859 15.68-50.508 43.29-50.508 11.92 0 24 4.711 31.37 14.59.63.782 1.26.942 1.89.942 1.25 0 2.19-.942 2.19-2.203 0-.309-.15-.938-.47-1.411-6.74-10.187-20.39-16.308-34.98-16.308-30.27 0-48.31 16.16-48.31 54.898M1644 263.578h30.9c13.65 0 23.21 10.512 23.21 24.32 0 13.954-9.72 24.321-23.68 24.321H1644zm0-51.289c0-1.41-1.1-2.508-2.51-2.508a2.479 2.479 0 0 0-2.51 2.508V314.09c0 1.422 1.1 2.512 2.51 2.512h32.94c16.63 0 28.7-12.711 28.7-28.704 0-16.007-11.29-28.867-28.23-28.867h-3.76s33.88-45.801 33.41-45.172c0 0 .47-.629.47-1.57 0-1.41-1.1-2.508-2.67-2.508-.78 0-1.57.321-2.2 1.25l-34.66 48H1644v-46.742M1727.57 211.031c-1.41 0-2.51 1.11-2.51 2.508V314.09c0 1.422 1.1 2.512 2.51 2.512h53.18c1.26 0 2.19-.942 2.19-2.204 0-1.25-.93-2.179-2.19-2.179h-50.67v-45.821h39.53c1.26 0 2.2-.929 2.2-2.187 0-1.25-.94-2.191-2.2-2.191h-39.53v-46.59h52.55c1.26 0 2.2-.942 2.2-2.2 0-1.25-.94-2.199-2.2-2.199h-55.06M1839.54 310.02l-23.68-60.872h47.37zm-25.25-65.411-13.02-33.109c-.31-.941-1.26-1.719-2.51-1.719a2.479 2.479 0 0 0-2.51 2.508c0 .32.15.941.31 1.25l40.63 102.59c.31.941 1.1 1.73 2.35 1.73 1.26 0 2.2-.789 2.51-1.73l40.47-102.59c.16-.309.32-.93.32-1.25 0-1.41-1.1-2.508-2.67-2.508-1.26 0-2.04.778-2.51 1.879l-12.86 32.949h-50.51M1878.89 312.219c-1.26 0-2.2.929-2.2 2.179 0 1.262.94 2.204 2.2 2.204h69.96c1.25 0 2.19-.942 2.19-2.204 0-1.25-.94-2.179-2.19-2.179h-32.47v-99.93c0-1.41-1.1-2.508-2.51-2.508a2.472 2.472 0 0 0-2.51 2.508v99.93h-32.47M1974.7 212.289c0-1.41-1.1-2.508-2.51-2.508a2.479 2.479 0 0 0-2.51 2.508v103.063c0 1.41 1.1 2.507 2.51 2.507 1.41 0 2.51-1.097 2.51-2.507V212.289M2073.67 315.512V212.289c0-1.41-1.1-2.508-2.51-2.508-1.1 0-1.73.469-2.35 1.41l-62.75 96.629v-95.679c0-1.262-1.1-2.36-2.35-2.36-1.26 0-2.35 1.098-2.35 2.36v103.371c0 1.25 1.09 2.347 2.35 2.347.94 0 1.57-.468 1.88-.949l63.37-97.238v95.84c0 1.25 1.1 2.347 2.36 2.347 1.25 0 2.35-1.097 2.35-2.347M2175.91 228.602v27.449h-30.75c-1.26 0-2.2.949-2.2 2.199 0 1.262.94 2.199 2.2 2.199h33.26c1.09 0 2.19-.937 2.19-2.039v-29.019c0-1.262-.47-2.352-1.41-3.45-7.53-8.781-18.51-17.101-37.81-17.101-30.27 0-48.31 16.16-48.31 54.898 0 38.75 18.04 55.063 48.31 55.063 14.91 0 27.77-6.43 34.83-16.313.31-.476.62-1.109.62-1.726 0-1.262-.93-2.203-2.19-2.203-.63 0-1.25.16-1.88.941-6.28 8.48-17.73 14.898-31.38 14.898-27.13 0-43.29-14.109-43.29-50.66 0-36.859 15.69-50.508 43.29-50.508 16.95 0 28.71 7.692 34.52 15.372M2237.5 312.219c-1.26 0-2.19.929-2.19 2.179 0 1.262.93 2.204 2.19 2.204h69.96c1.25 0 2.2-.942 2.2-2.204 0-1.25-.95-2.179-2.2-2.179h-32.47v-99.93c0-1.41-1.1-2.508-2.51-2.508a2.479 2.479 0 0 0-2.51 2.508v99.93h-32.47M2333.31 262.961v-50.672c0-1.41-1.09-2.508-2.51-2.508a2.479 2.479 0 0 0-2.51 2.508v103.063c0 1.41 1.1 2.507 2.51 2.507 1.42 0 2.51-1.097 2.51-2.507v-47.84h62.75v47.84c0 1.41 1.1 2.507 2.51 2.507 1.41 0 2.51-1.097 2.51-2.507V212.289c0-1.41-1.1-2.508-2.51-2.508a2.479 2.479 0 0 0-2.51 2.508v50.672h-62.75M2431.79 211.031a2.48 2.48 0 0 0-2.51 2.508V314.09c0 1.422 1.09 2.512 2.51 2.512h53.17c1.26 0 2.2-.942 2.2-2.204 0-1.25-.94-2.179-2.2-2.179h-50.66v-45.821h39.53c1.25 0 2.19-.929 2.19-2.187 0-1.25-.94-2.191-2.19-2.191h-39.53v-46.59h52.54c1.26 0 2.2-.942 2.2-2.2 0-1.25-.94-2.199-2.2-2.199h-55.05M2576.69 314.559c-19.77 0-27.14-9.868-27.14-21.02 0-31.051 62.43-18.027 62.43-55.519 0-18.829-13.02-29.18-36.55-29.18-18.04 0-29.02 8.469-35.76 18.98-.32.469-.47.942-.47 1.41 0 1.258 1.09 2.348 2.35 2.348.94 0 1.57-.469 2.04-1.25 5.96-9.406 16-17.098 31.84-17.098 20.39 0 31.53 8 31.53 24.79 0 34.039-62.43 19.289-62.43 55.519 0 13.492 9.73 25.262 32.16 25.262 14.74 0 25.41-5.653 32.78-15.531.31-.469.47-.942.47-1.418 0-1.25-1.1-2.352-2.35-2.352-.95 0-1.41.32-1.88.949-5.34 7.063-13.03 14.11-29.02 14.11M2620.57 312.219c-1.25 0-2.19.929-2.19 2.179 0 1.262.94 2.204 2.19 2.204h69.97c1.25 0 2.19-.942 2.19-2.204 0-1.25-.94-2.179-2.19-2.179h-32.48v-99.93c0-1.41-1.09-2.508-2.5-2.508a2.472 2.472 0 0 0-2.51 2.508v99.93h-32.48M2729.89 310.02l-23.69-60.872h47.37zm-25.26-65.411-13.02-33.109c-.31-.941-1.25-1.719-2.51-1.719-1.41 0-2.5 1.098-2.5 2.508 0 .32.15.941.31 1.25l40.63 102.59c.31.941 1.09 1.73 2.35 1.73 1.25 0 2.19-.789 2.51-1.73l40.47-102.59c.16-.309.31-.93.31-1.25 0-1.41-1.1-2.508-2.66-2.508-1.26 0-2.04.778-2.51 1.879l-12.87 32.949h-50.51M2863.03 315.512V212.289c0-1.41-1.1-2.508-2.51-2.508-1.1 0-1.73.469-2.35 1.41l-62.75 96.629v-95.679c0-1.262-1.1-2.36-2.35-2.36-1.26 0-2.35 1.098-2.35 2.36v103.371c0 1.25 1.09 2.347 2.35 2.347.94 0 1.57-.468 1.88-.949l63.37-97.238v95.84c0 1.25 1.1 2.347 2.36 2.347 1.25 0 2.35-1.097 2.35-2.347M2894.68 215.43h20.86c26.67 0 43.29 11.449 43.29 48.308 0 36.551-16.62 48.481-43.29 48.481h-20.86zm20.86 101.172c29.96 0 48.31-14.114 48.31-52.864 0-38.738-18.35-52.707-48.31-52.707h-23.37c-1.41 0-2.51 1.11-2.51 2.508V314.09c0 1.422 1.1 2.512 2.51 2.512h23.37M3015.9 310.02l-23.68-60.872h47.36zm-25.26-65.411-13.01-33.109c-.32-.941-1.26-1.719-2.51-1.719a2.472 2.472 0 0 0-2.51 2.508c0 .32.15.941.31 1.25l40.62 102.59c.32.941 1.11 1.73 2.36 1.73 1.26 0 2.19-.789 2.51-1.73l40.47-102.59c.15-.309.31-.93.31-1.25 0-1.41-1.1-2.508-2.67-2.508-1.25 0-2.04.778-2.51 1.879l-12.86 32.949h-50.51M3083.32 263.578h30.9c13.65 0 23.21 10.512 23.21 24.32 0 13.954-9.72 24.321-23.68 24.321h-30.43zm0-51.289c0-1.41-1.1-2.508-2.51-2.508a2.472 2.472 0 0 0-2.51 2.508V314.09c0 1.422 1.09 2.512 2.51 2.512h32.94c16.63 0 28.7-12.711 28.7-28.704 0-16.007-11.29-28.867-28.23-28.867h-3.76s33.87-45.801 33.41-45.172c0 0 .46-.629.46-1.57 0-1.41-1.09-2.508-2.66-2.508-.78 0-1.56.321-2.2 1.25l-34.67 48h-21.48v-46.742M3169.41 215.43h20.86c26.67 0 43.29 11.449 43.29 48.308 0 36.551-16.62 48.481-43.29 48.481h-20.86zm20.86 101.172c29.96 0 48.31-14.114 48.31-52.864 0-38.738-18.35-52.707-48.31-52.707h-23.37c-1.41 0-2.51 1.11-2.51 2.508V314.09c0 1.422 1.1 2.512 2.51 2.512h23.37" transform="matrix(.13333 0 0 -.13333 0 179.747)"/><g clip-path="url(#a)" transform="matrix(.13333 0 0 -.13333 0 179.747)"><path style="fill:url(#b);fill-opacity:1;fill-rule:nonzero;stroke:none" d="M412.18 844.781c-45.61 45.602-106.242 70.711-170.735 70.711-64.492 0-125.129-25.109-170.738-70.719C25.117 799.184 0 738.547 0 674.051c0-64.52 25.117-125.156 70.703-170.723 45.59-45.613 106.235-70.73 170.742-70.73 64.504 0 125.149 25.117 170.735 70.722 45.601 45.594 70.715 106.231 70.715 170.727-.004 64.492-25.122 125.125-70.715 170.734"/></g><g clip-path="url(#c)" transform="matrix(.13333 0 0 -.13333 0 179.747)"><path style="fill:url(#d);fill-opacity:1;fill-rule:nonzero;stroke:none" d="M1287.69 844.637c-45.61 45.601-106.24 70.703-170.74 70.703-1.1 0-2.2-.004-3.29-.02-50.07-.672-98.43 17.989-133.836 53.395l-.808.805c-35.403 35.41-54.067 83.77-53.391 133.83.012 1.1.023 2.2.023 3.31-.011 64.49-25.121 125.13-70.718 170.73-55.942 55.94-134.492 81.04-215.043 66.79-33.032-5.84-64.621-18.9-92.129-38.1-67.145-46.86-105.004-120.23-105.004-199.42 0-64.52 25.109-125.152 70.695-170.722 45.598-45.614 106.239-70.735 170.75-70.735 1.102 0 2.207.012 3.309.024 50.062.675 98.43-17.989 133.832-53.391l.797-.797c35.406-35.406 54.066-83.769 53.394-133.84a240.619 240.619 0 0 1-.019-3.293c0-1.105.004-2.211.019-3.312.672-50.059-17.988-98.426-53.394-133.828l-.465-.469c-35.715-35.711-84.609-53.828-135.121-53.406-16.492.136-33.25-1.387-50.098-4.68-32.984-6.434-64.41-20.012-91.668-39.668-65.094-46.934-101.726-119.203-101.726-197.082 0-64.531 25.117-125.16 70.703-170.73 55.879-55.903 134.371-81.02 214.879-66.84 33.031 5.82 64.621 18.859 92.144 38.03 67.25 46.86 105.172 120.278 105.172 199.528 0 1.102-.008 2.192-.019 3.281-.68 50.079 17.98 98.45 53.39 133.864l.445.449c35.737 35.73 84.657 53.816 135.197 53.418 16.4-.141 33.07 1.375 49.82 4.629 33 6.414 64.44 19.969 91.73 39.605 65.2 46.938 101.88 119.25 101.88 197.203 0 64.493-25.12 125.129-70.71 170.739"/></g></svg>