<svg xmlns="http://www.w3.org/2000/svg" width="169" height="91" style="shape-rendering:geometricPrecision;text-rendering:geometricPrecision;image-rendering:optimizeQuality;fill-rule:evenodd;clip-rule:evenodd"><path style="opacity:.829" fill="#1b2674" d="M70.5 28.5h4l12 32c-1.644.214-3.144-.12-4.5-1a25.709 25.709 0 0 0-3.5-7.5 42.498 42.498 0 0 0-13 0 44.827 44.827 0 0 1-4 8c-1.444.78-2.777.614-4-.5a872.731 872.731 0 0 1 13-31zm1 6a218.767 218.767 0 0 1 6 12.5 30.499 30.499 0 0 1-11 0 41.243 41.243 0 0 0 5-12.5z"/><path style="opacity:.82" fill="#1b2673" d="M90.5 28.5c6.425-.37 12.758.13 19 1.5 3.759 3.743 4.926 8.243 3.5 13.5-1.167 2.5-3 4.333-5.5 5.5a175.97 175.97 0 0 0 7 10.5c-1.574 1.13-3.241 1.297-5 .5a88.252 88.252 0 0 0-6-9.5 21.12 21.12 0 0 0-9-1v11h-4v-32zm4 4a60.941 60.941 0 0 1 11 .5c4.821 3.601 5.154 7.601 1 12a72.443 72.443 0 0 1-12 .5v-13z"/><path style="opacity:.775" fill="#1b2573" d="M119.5 28.5h4v32h-4v-32z"/><path style="opacity:.828" fill="#1b2674" d="M136.5 28.5c5.658-.827 10.658.507 15 4a7.292 7.292 0 0 1-2 3c-3.892-2.825-8.225-3.659-13-2.5-3.417 2.321-3.75 4.988-1 8a61.456 61.456 0 0 1 15.5 5.5c3.549 9.466.215 14.466-10 15-4.378-.26-8.378-1.593-12-4-.783-1.819-.283-3.152 1.5-4 5.711 4.658 11.544 4.991 17.5 1 .825-2.2.325-4.034-1.5-5.5a189.277 189.277 0 0 0-13-4c-1.833-.5-3-1.667-3.5-3.5-1.944-6.52.223-10.854 6.5-13z"/><path style="opacity:1" fill="#1c2674" d="M11.5 28.5h4v32h-4v-32z"/><path style="opacity:.927" fill="#1c2674" d="M21.5 28.5c1.788-.285 3.455.048 5 1l11.5 19a267.415 267.415 0 0 0 11-19c1.356-.88 2.856-1.213 4.5-1v32h-4c.166-7.34 0-14.674-.5-22a221.625 221.625 0 0 1-11 17c-4.38-5.066-8.047-10.733-11-17a242.43 242.43 0 0 0-.5 22h-5v-32z"/></svg>