<svg xmlns="http://www.w3.org/2000/svg" width="590" height="214" style="shape-rendering:geometricPrecision;text-rendering:geometricPrecision;image-rendering:optimizeQuality;fill-rule:evenodd;clip-rule:evenodd"><path style="opacity:1" fill="#fefefe" d="M-.5-.5h590v214H-.5V-.5z"/><path style="opacity:1" fill="#d5dada" d="M132.5 28.5a49.845 49.845 0 0 0-9-3c-7.482-.992-15.148-1.325-23-1v47a552.845 552.845 0 0 1-1-47c8.156-1.157 16.49-1.323 25-.5a87.287 87.287 0 0 1 7 2.5c.798.457 1.131 1.124 1 2z"/><path style="opacity:1" fill="#dde0e0" d="M86.5 71.5v-47h-4a322.966 322.966 0 0 0-3 36c-1-.333-1.667-1-2-2 1.978-11.285 2.645-22.952 2-35h8a576.578 576.578 0 0 1-1 48z"/><path style="opacity:1" fill="#d0d5d5" d="M28.5 24.5v47h4v1c-2.235.295-4.235-.039-6-1-.651-16.036.016-31.702 2-47z"/><path style="opacity:1" fill="#eceded" d="M32.5 72.5v-1a552.845 552.845 0 0 0 1-47h-5c-1.984 15.298-2.651 30.964-2 47a576.578 576.578 0 0 1-1-48h9c.652 16.7-.015 33.034-2 49z"/><path style="opacity:1" fill="#dadedf" d="M52.5 24.5h-6v48c-1.985-15.966-2.652-32.3-2-49 2.885-.306 5.552.027 8 1z"/><path style="opacity:1" fill="#aab3b3" d="M52.5 24.5v1h-5v46h-1v-47h6z"/><path style="opacity:1" fill="#d3d7d7" d="M82.5 24.5v1a341.07 341.07 0 0 1-3 37v-2a322.966 322.966 0 0 1 3-36z"/><path style="opacity:1" fill="#dfe2e2" d="M99.5 24.5a552.845 552.845 0 0 0 1 47v1c-1.331-7.638-1.998-15.638-2-24 0-8.174.334-16.174 1-24z"/><path style="opacity:1" fill="#ccd1d1" d="M152.5 24.5v1a529.488 529.488 0 0 0-1 46h5v-47a576.621 576.621 0 0 1 1 48h-7c-.651-16.368.015-32.368 2-48z"/><path style="opacity:1" fill="#98a2a2" d="M52.5 25.5c1 .333 1.667 1 2 2 .238 1.904 1.238 3.238 3 4v1c.58 2.249 1.913 3.915 4 5a45.577 45.577 0 0 1 7 9c-.073 1.527.594 2.527 2 3a75.644 75.644 0 0 1 7 9c.333 1 1 1.667 2 2v2c.709.904 1.709 1.237 3 1v-38h3v45h-6c-.333-1-1-1.667-2-2 .073-1.527-.594-2.527-2-3-2.954-5.596-6.62-10.596-11-15-.238-1.904-1.238-3.238-3-4-.58-2.249-1.913-3.915-4-5a18.466 18.466 0 0 0-4-6v-1c-.709-.904-1.709-1.237-3-1v38h-3v-46h5z"/><path style="opacity:1" fill="#bec4c4" d="M82.5 25.5v38c-1.291.237-2.291-.096-3-1a341.07 341.07 0 0 0 3-37z"/><path style="opacity:1" fill="#abb3b3" d="M82.5 25.5v-1h4v47c-.949.652-2.115.986-3.5 1-1.681-.108-2.848-.775-3.5-2h6v-45h-3z"/><path style="opacity:1" fill="#aab2b2" d="M123.5 25.5h-22v45h24c-.418.722-1.084 1.222-2 1.5-7.659.5-15.326.666-23 .5v-48c7.852-.325 15.518.008 23 1z"/><path style="opacity:1" fill="#99a3a3" d="M123.5 25.5a49.845 49.845 0 0 1 9 3c.902 1.84 2.236 3.174 4 4a310.678 310.678 0 0 0 3 4 123.89 123.89 0 0 1 1 19c-.969 2.163-1.802 4.496-2.5 7-3.001 4.503-7.167 7.17-12.5 8h-24v-45h22z"/><path style="opacity:1" fill="#abb3b3" d="M28.5 24.5h5a552.845 552.845 0 0 1-1 47h-4v-47z"/><path style="opacity:1" fill="#929d9d" d="M29.5 25.5c1.33 7.136 1.997 14.636 2 22.5l-1 22.5a507.132 507.132 0 0 1-1-45z"/><path style="opacity:1" fill="#acb3b4" d="M152.5 24.5h4v47h-5c-.33-15.51.004-30.842 1-46v-1z"/><path style="opacity:1" fill="#929d9e" d="M152.5 25.5h3v45h-3v-45z"/><path style="opacity:1" fill="#dadddd" d="M132.5 28.5c2.333.333 3.667 1.667 4 4-1.764-.826-3.098-2.16-4-4z"/><path style="opacity:1" fill="#c6cccc" d="M54.5 27.5c1.762.762 2.762 2.096 3 4-1.762-.762-2.762-2.096-3-4z"/><path style="opacity:1" fill="#e0e3e3" d="M126.5 32.5a113.233 113.233 0 0 0-20-1v34h17c-5.81.99-11.81 1.323-18 1v-37c6.009-.166 12.009 0 18 .5 1.442.377 2.442 1.21 3 2.5z"/><path style="opacity:1" fill="#fdfdfd" d="M126.5 32.5c4.333 1 7 3.667 8 8v2a75.818 75.818 0 0 1-1 15c-.466 3.291-2.133 5.624-5 7-1.792-.134-3.458.2-5 1h-17v-34c6.724-.256 13.391.077 20 1z"/><path style="opacity:1" fill="#acb4b4" d="M53.5 34.5a341.07 341.07 0 0 0-3 37v-38c1.291-.237 2.291.096 3 1z"/><path style="opacity:1" fill="#d1d5d5" d="M53.5 34.5v1a342.839 342.839 0 0 0-1 37h-6v-1h4a341.07 341.07 0 0 1 3-37z"/><path style="opacity:1" fill="#b4bbbc" d="M57.5 32.5c2.087 1.085 3.42 2.751 4 5-2.087-1.085-3.42-2.751-4-5z"/><path style="opacity:1" fill="#dfe2e2" d="M57.5 41.5c2.087 1.085 3.42 2.751 4 5-2.087-1.085-3.42-2.751-4-5z"/><path style="opacity:1" fill="#bcc3c3" d="M134.5 40.5c.617.11 1.117.444 1.5 1 .815 4.852.648 9.519-.5 14 .318-4.532-.015-8.866-1-13v-2z"/><path style="opacity:1" fill="#dcdfdf" d="M134.5 42.5c.985 4.134 1.318 8.468 1 13l-2 2a75.818 75.818 0 0 0 1-15z"/><path style="opacity:1" fill="#bac1c1" d="M139.5 36.5c1.539 3.365 2.206 7.031 2 11-.003 2.855-.336 5.522-1 8a123.89 123.89 0 0 0-1-19z"/><path style="opacity:1" fill="#ccd1d1" d="M61.5 46.5c1.762.762 2.762 2.096 3 4-1.762-.762-2.762-2.096-3-4z"/><path style="opacity:1" fill="#c3c9c9" d="M68.5 46.5c1.406.473 2.073 1.473 2 3-1.406-.473-2.073-1.473-2-3z"/><path style="opacity:1" fill="#c4c9ca" d="M128.5 64.5c-.847 1.466-2.18 2.3-4 2.5-6.514.82-12.847.653-19-.5 6.19.323 12.19-.01 18-1 1.542-.8 3.208-1.134 5-1z"/><path style="opacity:1" fill="#cfd4d4" d="M75.5 65.5c1.406.473 2.073 1.473 2 3-1.406-.473-2.073-1.473-2-3z"/><path style="opacity:1" fill="#ccd1d1" d="M268.5 93.5c-.64 10.058.027 19.725 2 29-.683 1.676-2.017 2.343-4 2-.642-10.721.025-21.054 2-31z"/><path style="opacity:1" fill="#d8dcdc" d="M409.5 94.5c1.068-.934 2.401-1.268 4-1 .284 1.915-.049 3.581-1 5v-4h-3z"/><path style="opacity:1" fill="#d0d5d5" d="M25.5 94.5v1c-.638 9.395.029 18.395 2 27h1c-.683 1.676-2.017 2.343-4 2-.327-10.181.006-20.181 1-30z"/><path style="opacity:1" fill="#abb3b3" d="M180.5 94.5h4v4h-4v-4z"/><path style="opacity:1" fill="#a0aaaa" d="M268.5 93.5c1.973 9.275 2.64 18.942 2 29-1.973-9.275-2.64-18.942-2-29z"/><path style="opacity:1" fill="#b9c0c0" d="M292.5 95.5h-4v27h-1v-28c1.915-.284 3.581.049 5 1z"/><path style="opacity:1" fill="#d1d6d6" d="M309.5 94.5v1a121.862 121.862 0 0 1-1 22c-1.355-.688-2.355-1.688-3-3 .996-.086 1.829.248 2.5 1 .171-7.179.671-14.179 1.5-21z"/><path style="opacity:1" fill="#d8dcdc" d="M508.5 94.5c1.419-.951 3.085-1.284 5-1 .284 1.915-.049 3.581-1 5v-4h-4z"/><path style="opacity:1" fill="#b4bbbb" d="M25.5 95.5v-1h3v28h-1c.638-9.395-.029-18.395-2-27z"/><path style="opacity:1" fill="#b2baba" d="M309.5 95.5v-1h3v28h-1c.638-9.395-.029-18.395-2-27z"/><path style="opacity:1" fill="#a3acac" d="M25.5 95.5c1.971 8.605 2.638 17.605 2 27-1.971-8.605-2.638-17.605-2-27z"/><path style="opacity:1" fill="#a1aaab" d="M409.5 94.5h3v4h-3v-4z"/><path style="opacity:1" fill="#a8b1b1" d="M508.5 94.5h4v4h-4v-4z"/><path style="opacity:1" fill="#c1c7c8" d="M69.5 104.5c-.974-1.585-2.474-2.585-4.5-3-1.155-9.31-1.988-9.31-2.5 0h-5c1.068-.934 2.401-1.268 4-1v-7c1.644-.213 3.144.12 4.5 1 .496 1.973.662 3.973.5 6h4c.268 1.599-.066 2.932-1 4z"/><path style="opacity:1" fill="#9fa9a9" d="M69.5 104.5h-4v18h-3v-18h-5v-3h5c.512-9.31 1.345-9.31 2.5 0 2.026.415 3.526 1.415 4.5 3z"/><path style="opacity:1" fill="#d7dbdb" d="M88.5 101.5c-4.573-.731-8.573.269-12 3 .01-1.517.677-2.684 2-3.5 3.527-.808 6.86-.641 10 .5zM203.5 101.5c-3.662-.466-6.995.201-10 2 3.005-1.799 6.338-2.466 10-2z"/><path style="opacity:1" fill="#dce0e0" d="M221.5 101.5c2.804-1.138 5.804-1.305 9-.5.752.671 1.086 1.504 1 2.5-3.084-1.601-6.417-2.268-10-2z"/><path style="opacity:1" fill="#d0d4d5" d="M397.5 101.5c-10.889-.104-15.223 5.23-13 16-.958-.453-1.792-1.119-2.5-2-.741-3.062-.575-6.062.5-9 2-1.333 3.667-3 5-5 3.48-1.306 6.813-1.306 10 0z"/><path style="opacity:1" fill="#dadddd" d="M469.5 101.5c-3.662-.466-6.995.201-10 2 3.005-1.799 6.338-2.466 10-2z"/><path style="opacity:1" fill="#d5d9d9" d="M488.5 101.5c2.466-1.134 5.133-1.301 8-.5.881.708 1.547 1.542 2 2.5-3.052-1.678-6.385-2.345-10-2z"/><path style="opacity:1" fill="#b4bbbb" d="M106.5 101.5h4v3h-1c.131-.876-.202-1.543-1-2a5.576 5.576 0 0 1-3 1l1-2z"/><path style="opacity:1" fill="#dcdfe0" d="M324.5 101.5c2.804-1.138 5.804-1.305 9-.5 1.563.759 2.563 1.926 3 3.5-3.651-2.246-7.651-3.246-12-3z"/><path style="opacity:1" fill="#eeefef" d="M363.5 101.5c1.155 7.155 1.322 14.488.5 22a6.293 6.293 0 0 1-3 1 31.505 31.505 0 0 1-4.5-2c1.809-.791 3.809-.791 6 0 .991-6.813 1.325-13.813 1-21z"/><path style="opacity:1" fill="#b7bebe" d="M375.5 101.5h5c.237 1.291-.096 2.291-1 3 .03-.997-.47-1.664-1.5-2a14.093 14.093 0 0 1-3.5 1l1-2z"/><path style="opacity:1" fill="#c5cbcb" d="M445.5 101.5c-2.841.06-5.507.726-8 2-.086-.996.248-1.829 1-2.5 2.539-.796 4.872-.629 7 .5z"/><path style="opacity:1" fill="#c2c8c8" d="M561.5 101.5c.03.997-.47 1.664-1.5 2-4.178-1.294-8.345-1.294-12.5 0 1.093-2.056 2.926-3.056 5.5-3 2.59-.124 4.923.542 7 2 .383-.556.883-.889 1.5-1z"/><path style="opacity:1" fill="#e7e9e9" d="M40.5 101.5c.13.876-.203 1.543-1 2l-3-2a111.123 111.123 0 0 0-1 21c-1.963-6.924-2.63-14.257-2-22 2.45-.202 4.783.131 7 1z"/><path style="opacity:1" fill="#d7dbdb" d="m106.5 101.5-1 2-6-1v20h3c-.683 1.676-2.017 2.343-4 2-.166-7.674 0-15.341.5-23 2.394-.636 4.894-.636 7.5 0z"/><path style="opacity:1" fill="#ced3d3" d="M128.5 102.5a33.79 33.79 0 0 0-10.5 1 9.258 9.258 0 0 1-2.5-2 111.148 111.148 0 0 0-1 21c-.991-6.813-1.325-13.813-1-21 3.667.14 7.501-.193 11.5-1 1.681.108 2.848.775 3.5 2z"/><path style="opacity:1" fill="#c9cece" d="M159.5 122.5c.33-6.7-.003-13.366-1-20l-2 2c-.607-.124-.94-.457-1-1 1.279-1.468 2.946-2.135 5-2 .325 7.187-.009 14.187-1 21z"/><path style="opacity:1" fill="#e9ebeb" d="M184.5 122.5c.324-6.854-.009-13.521-1-20-.667-1.333-1.333-1.333-2 0-.991 6.479-1.324 13.146-1 20-1.155-6.821-1.321-13.821-.5-21 1.699-.906 3.533-1.239 5.5-1 .325 7.519-.008 14.852-1 22z"/><path style="opacity:1" fill="#9da7a7" d="M183.5 102.5c-.667 26.667-1.333 26.667-2 0 .667-1.333 1.333-1.333 2 0z"/><path style="opacity:1" fill="#a0aaaa" d="M203.5 101.5c2.807 1.166 4.807 3.166 6 6 1.858 11.984-3.142 16.984-15 15-6.572-4.795-7.739-10.795-3.5-18 .671-.752 1.504-1.086 2.5-1 3.005-1.799 6.338-2.466 10-2z"/><path style="opacity:1" fill="#d3d7d8" d="M221.5 101.5c-1.292 3.17-2.958 3.504-5 1-.997 6.634-1.33 13.3-1 20-.992-7.148-1.325-14.481-1-22 2.361.174 4.694.507 7 1z"/><path style="opacity:1" fill="#a3adad" d="M257.5 102.5c1.188-1.184 2.355-1.184 3.5 0 .5 6.658.666 13.325.5 20a141.539 141.539 0 0 1-18-1c-.667 0-1-.333-1-1 .073-1.527-.594-2.527-2-3-2.361-13.484 2.972-18.15 16-14 .607-.124.94-.457 1-1z"/><path style="opacity:1" fill="#e7e9e9" d="M261.5 122.5c.166-6.675 0-13.342-.5-20-1.145-1.184-2.312-1.184-3.5 0 .955-2.21 2.455-2.543 4.5-1 .821 7.179.655 14.179-.5 21z"/><path style="opacity:1" fill="#d1d6d6" d="M347.5 116.5c-.987-4.805-1.321-9.805-1-15h-3a112.97 112.97 0 0 0 .5 15c.713 2.353 1.879 4.353 3.5 6-2.55-.061-4.05-1.394-4.5-4a162.597 162.597 0 0 1-.5-18h5v16z"/><path style="opacity:1" fill="#c2c8c8" d="M359.5 101.5c1.291-.237 2.291.096 3 1h-3c.319 4.863-.014 9.53-1 14-.321-5.195.013-10.195 1-15z"/><path style="opacity:1" fill="#e0e3e3" d="m375.5 101.5-1 2c-1.815-1.13-3.815-1.796-6-2v21c-.992-7.148-1.325-14.481-1-22a24.93 24.93 0 0 1 8 1z"/><path style="opacity:1" fill="#e1e4e4" d="M412.5 122.5v-21h-3v21c-1.963-6.924-2.63-14.257-2-22h6c.325 7.519-.008 14.852-1 22z"/><path style="opacity:1" fill="#aab3b3" d="M412.5 122.5h-3v-21h3v21z"/><path style="opacity:1" fill="#e2e5e5" d="M421.5 101.5h-3v21c-.992-7.148-1.325-14.481-1-22 1.599-.268 2.932.066 4 1z"/><path style="opacity:1" fill="#d6dada" d="M476.5 122.5v-21h-3a4.934 4.934 0 0 1-.5 3c-1.729-.474-2.895-1.474-3.5-3a41.541 41.541 0 0 1 8-1c.325 7.519-.008 14.852-1 22z"/><path style="opacity:1" fill="#cbd0d0" d="M508.5 102.5h1v20h3c-.683 1.676-2.017 2.343-4 2v-22z"/><path style="opacity:1" fill="#acb4b4" d="M512.5 122.5h-3v-20c.709-.904 1.709-1.237 3-1v21z"/><path style="opacity:1" fill="#e2e5e5" d="M512.5 122.5v-21c-1.291-.237-2.291.096-3 1h-1c1.052-1.756 2.719-2.423 5-2 .325 7.519-.008 14.852-1 22z"/><path style="opacity:1" fill="#e6e8e8" d="M533.5 101.5c-3.398-.358-6.565.308-9.5 2-.765-.07-1.265-.403-1.5-1-.709-.904-1.709-1.237-3-1-.325 7.187.009 14.187 1 21h2c-1.311 2.633-2.811 2.633-4.5 0a242.43 242.43 0 0 1-.5-22c5.526-.321 10.86.012 16 1z"/><path style="opacity:1" fill="#d0d5d5" d="M561.5 101.5c1.068-.934 2.401-1.268 4-1 .326 8.517-.007 16.85-1 25v-24h-3z"/><path style="opacity:1" fill="#a1aaaa" d="M105.5 103.5a5.576 5.576 0 0 0 3-1c.798.457 1.131 1.124 1 2h-1c-2.667.667-4.333 2.333-5 5-.985 4.134-1.318 8.468-1 13h-3v-20l6 1z"/><path style="opacity:1" fill="#ebeded" d="M159.5 124.5v-2c.991-6.813 1.325-13.813 1-21-2.054-.135-3.721.532-5 2-1-.333-1.667-1-2-2a24.93 24.93 0 0 1 8-1c.634 8.403-.033 16.403-2 24z"/><path style="opacity:1" fill="#c0c6c6" d="M181.5 102.5c.667 26.667 1.333 26.667 2 0 .991 6.479 1.324 13.146 1 20-.12 1.086-.787 1.753-2 2-1.213-.247-1.88-.914-2-2-.324-6.854.009-13.521 1-20z"/><path style="opacity:1" fill="#a1aaaa" d="M221.5 101.5c3.583-.268 6.916.399 10 2 1.865 6.088 2.531 12.422 2 19h-3a128.507 128.507 0 0 0-.5-16c-.383-.556-.883-.889-1.5-1-2.441-1.256-4.774-1.256-7 0-.996-.086-1.829.248-2.5 1-.673 5.694-1.84 11.028-3.5 16-.33-6.7.003-13.366 1-20 2.042 2.504 3.708 2.17 5-1z"/><path style="opacity:1" fill="#d7dbdb" d="M359.5 101.5c1.333-1.333 2.667-1.333 4 0 .325 7.187-.009 14.187-1 21v-20c-.709-.904-1.709-1.237-3-1z"/><path style="opacity:1" fill="#9da7a7" d="M469.5 101.5c.605 1.526 1.771 2.526 3.5 3a4.934 4.934 0 0 0 .5-3h3v21c-1.898-.596-3.565-.596-5 0h-11c-1.264-1.77-2.764-3.437-4.5-5a18.453 18.453 0 0 1-.5-6 25.648 25.648 0 0 1 3-7c0-.667.333-1 1-1 3.005-1.799 6.338-2.466 10-2z"/><path style="opacity:1" fill="#c5cbcb" d="M499.5 101.5c1.068-.934 2.401-1.268 4-1 .327 9.182-.007 18.182-1 27v-26h-3z"/><path style="opacity:1" fill="#9fa9a9" d="M40.5 101.5c3.35-.165 6.683.002 10 .5 2.107 1.264 3.107 3.097 3 5.5-.503 19.989-1.336 19.989-2.5 0-.708-.881-1.542-1.547-2.5-2-2.835-1.286-5.668-1.286-8.5 0-1.404 5.544-1.904 11.21-1.5 17h-3c-.33-7.032.003-14.032 1-21l3 2c.797-.457 1.13-1.124 1-2z"/><path style="opacity:1" fill="#eceeee" d="M106.5 101.5c2.188-1.123 4.521-1.123 7 0-.325 7.187.009 14.187 1 21h3c-.955 2.21-2.455 2.543-4.5 1 .131-6.746-.702-13.079-2.5-19v-3h-4z"/><path style="opacity:1" fill="#9fa8a8" d="M176.5 104.5h-4a3213.956 3213.956 0 0 0-2 18 3213.956 3213.956 0 0 0-2-18h-4v-3h4v-7h3v7h5v3z"/><path style="opacity:1" fill="#bac1c1" d="M432.5 102.5a67.352 67.352 0 0 1-12 0c-.997 6.634-1.33 13.3-1 20h-1v-21h3c1.988-.327 3.988-.66 6-1 2.057-.064 3.723.602 5 2z"/><path style="opacity:1" fill="#9ca6a6" d="M445.5 101.5c.333 1 1 1.667 2 2 2.019 5.76 2.519 11.76 1.5 18l-1-13c-.383-.556-.883-.889-1.5-1 0-1.333-.667-2-2-2-3.218-1.684-5.885-1.017-8 2-.666 4.849-1.333 9.849-2 15a114.67 114.67 0 0 1-1.5-15c-.278-.916-.778-1.582-1.5-2-2.479-1.123-4.812-1.123-7 0-.996-.086-1.829.248-2.5 1a128.507 128.507 0 0 0-.5 16h-2c-.33-6.7.003-13.366 1-20 3.907.357 7.907.357 12 0 1.038 2.019 2.372 2.353 4 1h1c2.493-1.274 5.159-1.94 8-2z"/><path style="opacity:1" fill="#d0d4d4" d="m432.5 102.5 4 1c-1.628 1.353-2.962 1.019-4-1z"/><path style="opacity:1" fill="#e4e6e7" d="M176.5 104.5v-3h-5v-7h-3v7h-4v3h4v18c-.989-5.475-1.322-11.142-1-17h-4v-5h4v-7h6v7h4c.268 1.599-.066 2.932-1 4z"/><path style="opacity:1" fill="#c5cbcb" d="M168.5 104.5c.667 5.846 1.333 11.846 2 18 .667-6.154 1.333-12.154 2-18v20c-1.983.343-3.317-.324-4-2v-18z"/><path style="opacity:1" fill="#fafbfb" d="M204.5 106.5c1.266 3.968 1.266 7.968 0 12h-1a29.23 29.23 0 0 1-9-1h-1v-10c1.012-2.376 2.845-3.376 5.5-3 2.221-.107 4.054.56 5.5 2z"/><path style="opacity:1" fill="#f9fafa" d="M254.5 118.5a29.23 29.23 0 0 1-9-1c-1.538-4.214-1.204-8.214 1-12 9.619-2.906 13.119.76 10.5 11-.708.881-1.542 1.547-2.5 2z"/><path style="opacity:1" fill="#fcfcfc" d="M463.5 104.5c2.45-.202 4.783.131 7 1 1.592 3.466 2.258 7.133 2 11-.473 1.406-1.473 2.073-3 2-8.508.977-11.342-2.69-8.5-11a10.515 10.515 0 0 0 2.5-3z"/><path style="opacity:1" fill="#f9f9f9" d="M496.5 105.5c.492 2.319 1.492 4.319 3 6-.789 6.613-4.456 9.113-11 7.5-3.212-3.302-3.879-7.135-2-11.5.077-1.25.744-2.083 2-2.5 2.761-.722 5.427-.555 8 .5z"/><path style="opacity:1" fill="#d2d6d6" d="M108.5 104.5c-1.333 2-3 3.667-5 5 .667-2.667 2.333-4.333 5-5z"/><path style="opacity:1" fill="#9ea8a8" d="M561.5 101.5h3v24c-1.107 2.869-3.107 4.869-6 6-7.772-1.303-7.439-2.136 1-2.5.752-.671 1.086-1.504 1-2.5v-1c1.051-2.844 1.051-5.844 0-9 1.138-2.804 1.305-5.804.5-9-.708-.881-1.542-1.547-2.5-2h-1c-9-2.333-12.333 1-10 10l1 2c.453.958 1.119 1.792 2 2.5 2.865.183 5.531.683 8 1.5-3.228.914-6.561 1.247-10 1-2.667-1.993-4.334-4.66-5-8-.234-4.304 1.1-7.971 4-11 4.155-1.294 8.322-1.294 12.5 0 1.03-.336 1.53-1.003 1.5-2z"/><path style="opacity:1" fill="#fbfbfb" d="M557.5 105.5h1c1.72 3.389 2.387 7.056 2 11-3.694 3.614-7.694 3.947-12 1l-1-2c-1-7.667 2.333-11 10-10z"/><path style="opacity:1" fill="#a0a9a9" d="M128.5 102.5c2.333.333 3.667 1.667 4 4v16h-3a128.507 128.507 0 0 0-.5-16c-.383-.556-.883-.889-1.5-1h-1c-.949-.652-2.115-.986-3.5-1-2.008-.193-3.508.474-4.5 2-.768.763-1.268 1.763-1.5 3a84.902 84.902 0 0 0-.5 13h-2c-.33-7.032.003-14.032 1-21a9.258 9.258 0 0 0 2.5 2 33.79 33.79 0 0 1 10.5-1z"/><path style="opacity:1" fill="#e8eaeb" d="M126.5 105.5a11.988 11.988 0 0 0-6 1c-.366 5.729-1.366 11.063-3 16a96.873 96.873 0 0 1 1-16c.992-1.526 2.492-2.193 4.5-2 1.385.014 2.551.348 3.5 1z"/><path style="opacity:1" fill="#e0e3e3" d="M127.5 105.5c.617.111 1.117.444 1.5 1 .499 5.323.666 10.656.5 16a480.518 480.518 0 0 1-2-17z"/><path style="opacity:1" fill="#d2d7d7" d="M132.5 106.5c.99 5.81 1.323 11.81 1 18-1.983.343-3.317-.324-4-2h3v-16z"/><path style="opacity:1" fill="#e9ebeb" d="M228.5 105.5c.617.111 1.117.444 1.5 1 .499 5.323.666 10.656.5 16h4c-.955 2.21-2.455 2.543-4.5 1a216.615 216.615 0 0 0-1.5-18z"/><path style="opacity:1" fill="#c6cbcb" d="M431.5 105.5c.722.418 1.222 1.084 1.5 2a114.67 114.67 0 0 0 1.5 15c.667-5.151 1.334-10.151 2-15v15c-.683 1.676-2.017 2.343-4 2 .153-6.369-.18-12.703-1-19z"/><path style="opacity:1" fill="#e7e9e9" d="M444.5 105.5c-2.544-.396-4.711.271-6.5 2-.174 5.184-.674 10.184-1.5 15v-15c2.115-3.017 4.782-3.684 8-2z"/><path style="opacity:1" fill="#adb5b5" d="M447.5 103.5c.958.453 1.792 1.119 2.5 2 .499 5.657.666 11.324.5 17h-4v-15c.617.111 1.117.444 1.5 1l1 13c1.019-6.24.519-12.24-1.5-18z"/><path style="opacity:1" fill="#bbc1c1" d="M522.5 102.5c-1.959 6.25-2.626 12.916-2 20-.991-6.813-1.325-13.813-1-21 1.291-.237 2.291.096 3 1z"/><path style="opacity:1" fill="#c9cecf" d="M534.5 106.5c.356 5.577 1.356 10.91 3 16h1c-.683 1.676-2.017 2.343-4 2v-18z"/><path style="opacity:1" fill="#afb7b7" d="M535.5 103.5c.65.304 1.317.637 2 1a81.883 81.883 0 0 1 1 18h-1c.531-6.578-.135-12.912-2-19z"/><path style="opacity:1" fill="#c5cbcb" d="M118.5 106.5a96.873 96.873 0 0 0-1 16h-1a84.902 84.902 0 0 1 .5-13c.232-1.237.732-2.237 1.5-3z"/><path style="opacity:1" fill="#cbd0d0" d="M193.5 107.5v10c-2.546-3.368-2.546-6.701 0-10zM231.5 103.5c.65.304 1.317.637 2 1a81.883 81.883 0 0 1 1 18h-1c.531-6.578-.135-12.912-2-19z"/><path style="opacity:1" fill="#9fa9a9" d="M397.5 101.5c3.912 1.244 5.912 3.911 6 8a34.163 34.163 0 0 1-1 10c-1.73.526-3.064 1.526-4 3h-10c-2.087-1.085-3.42-2.751-4-5-2.223-10.77 2.111-16.104 13-16z"/><path style="opacity:1" fill="#fcfcfc" d="M399.5 108.5a41.73 41.73 0 0 1-1 9c-.111.617-.444 1.117-1 1.5-2.31.497-4.643.663-7 .5a6.547 6.547 0 0 1-3-3c-.799-10.575 3.201-13.242 12-8z"/><path style="opacity:1" fill="#dee1e1" d="M399.5 108.5c-8.799-5.242-12.799-2.575-12 8-3.001-9.171.332-13.005 10-11.5 1.323.816 1.989 1.983 2 3.5z"/><path style="opacity:1" fill="#bac1c1" d="M458.5 104.5a25.648 25.648 0 0 0-3 7 18.453 18.453 0 0 1 .5-6c.671-.752 1.504-1.086 2.5-1z"/><path style="opacity:1" fill="#9ea7a7" d="M533.5 101.5c.333 1 1 1.667 2 2 1.865 6.088 2.531 12.422 2 19-1.644-5.09-2.644-10.423-3-16-.111-.617-.444-1.117-1-1.5-2.867-.801-5.534-.634-8 .5-.996-.086-1.829.248-2.5 1a128.507 128.507 0 0 0-.5 16h-2c-.626-7.084.041-13.75 2-20 .235.597.735.93 1.5 1 2.935-1.692 6.102-2.358 9.5-2z"/><path style="opacity:1" fill="#c7cccc" d="M558.5 105.5c.958.453 1.792 1.119 2.5 2 .805 3.196.638 6.196-.5 9 .387-3.944-.28-7.611-2-11z"/><path style="opacity:1" fill="#c0c6c6" d="M75.5 104.5c-1.535 4.304-1.868 8.637-1 13-.617-.111-1.117-.444-1.5-1a25.249 25.249 0 0 1 0-10c.708-.881 1.542-1.547 2.5-2z"/><path style="opacity:1" fill="#a0a9a9" d="M88.5 101.5a796.928 796.928 0 0 1 5 4c1.157 2.807 1.157 5.474 0 8h-17c-.237 1.291.096 2.291 1 3 3 4.381 6.668 5.048 11 2 1.956-1.675 3.29-1.342 4 1-.762 1.762-2.096 2.762-4 3h-9c-2.644-.644-4.31-2.311-5-5-.868-4.363-.535-8.696 1-13h1c3.427-2.731 7.427-3.731 12-3z"/><path style="opacity:1" fill="#c5cbcb" d="M77.5 107.5v3h12v-3c.934 1.068 1.268 2.401 1 4h-14c-.268-1.599.066-2.932 1-4z"/><path style="opacity:1" fill="#f5f6f6" d="M89.5 107.5v3h-12v-3c1.012-2.376 2.845-3.376 5.5-3 2.802-.18 4.969.82 6.5 3z"/><path style="opacity:1" fill="#d2d6d6" d="M221.5 105.5c-.283.789-.783 1.456-1.5 2l-1 15c-1.376 2.625-2.542 2.625-3.5 0 1.66-4.972 2.827-10.306 3.5-16 .671-.752 1.504-1.086 2.5-1z"/><path style="opacity:1" fill="#dfe2e2" d="M246.5 105.5c-2.204 3.786-2.538 7.786-1 12-1.277-1.194-1.944-2.86-2-5-.488-3.111.512-5.444 3-7z"/><path style="opacity:1" fill="#dee1e1" d="M399.5 108.5c.838.342 1.172 1.008 1 2a18.453 18.453 0 0 1-.5 6c-.383.556-.883.889-1.5 1a41.73 41.73 0 0 0 1-9z"/><path style="opacity:1" fill="#d2d6d6" d="M424.5 105.5c-.283.789-.783 1.456-1.5 2-.174 5.184-.674 10.184-1.5 15-.166-5.344.001-10.677.5-16 .671-.752 1.504-1.086 2.5-1z"/><path style="opacity:1" fill="#e0e3e3" d="M463.5 104.5a10.515 10.515 0 0 1-2.5 3c-2.842 8.31-.008 11.977 8.5 11-.834 1.248-2.167 1.915-4 2-6.02-1.694-8.186-5.694-6.5-12 .748-2.251 2.248-3.584 4.5-4z"/><path style="opacity:1" fill="#d9dcdc" d="M470.5 105.5c1.29.558 2.123 1.558 2.5 3 .801 2.867.634 5.534-.5 8 .258-3.867-.408-7.534-2-11z"/><path style="opacity:1" fill="#9ea7a7" d="M488.5 101.5c3.615-.345 6.948.322 10 2 .838-.342 1.172-1.008 1-2h3v26a6.547 6.547 0 0 0-3 3c-4.333 1.333-8.667 1.333-13 0a185.977 185.977 0 0 0-2-3c.457-.798 1.124-1.131 2-1 1.374 2.459 3.54 3.459 6.5 3l4.5-.5c.752-.671 1.086-1.504 1-2.5.838-.342 1.172-1.008 1-2a90.299 90.299 0 0 0 0-15c-.238-1.904-1.238-3.238-3-4-2.573-1.055-5.239-1.222-8-.5-1.256.417-1.923 1.25-2 2.5-.617.111-1.117.444-1.5 1a42.769 42.769 0 0 1-1.5 9 31.116 31.116 0 0 1-1-11c1.073-2.736 3.073-4.403 6-5z"/><path style="opacity:1" fill="#d9dddd" d="M496.5 105.5c1.762.762 2.762 2.096 3 4v2c-1.508-1.681-2.508-3.681-3-6z"/><path style="opacity:1" fill="#d0d5d5" d="M525.5 105.5c-.283.789-.783 1.456-1.5 2-.174 5.184-.674 10.184-1.5 15-.166-5.344.001-10.677.5-16 .671-.752 1.504-1.086 2.5-1z"/><path style="opacity:1" fill="#ccd1d1" d="M547.5 103.5c-2.9 3.029-4.234 6.696-4 11-1.134-2.466-1.301-5.133-.5-8 1.129-1.641 2.629-2.641 4.5-3z"/><path style="opacity:1" fill="#d6dada" d="M204.5 106.5c2.215 1.424 3.215 3.591 3 6.5.376 2.655-.624 4.488-3 5.5 1.266-4.032 1.266-8.032 0-12z"/><path style="opacity:1" fill="#d7dada" d="M557.5 105.5c-7.667-1-11 2.333-10 10-2.333-9 1-12.333 10-10z"/><path style="opacity:1" fill="#cdd2d2" d="M93.5 113.5c-5.577.356-10.91 1.356-16 3-.904-.709-1.237-1.709-1-3h17z"/><path style="opacity:1" fill="#a0a9a9" d="M153.5 101.5c.333 1 1 1.667 2 2 .06.543.393.876 1 1l2-2c.997 6.634 1.33 13.3 1 20-4.562-.394-9.229-.394-14 0-1.495-.489-2.829-1.155-4-2-2.667-5.333-2.667-10.667 0-16 .558-1.29 1.558-2.123 3-2.5a40.914 40.914 0 0 1 9-.5z"/><path style="opacity:1" fill="#dde1e1" d="M145.5 105.5c9.689-2.129 13.189 1.871 10.5 12-.383.556-.883.889-1.5 1 3.536-9.107.536-13.441-9-13z"/><path style="opacity:1" fill="#e4e7e7" d="M145.5 105.5c-1.917 3.902-2.251 7.902-1 12-1.277-1.194-1.944-2.86-2-5-.488-3.111.512-5.444 3-7z"/><path style="opacity:1" fill="#fafafa" d="M145.5 105.5c9.536-.441 12.536 3.893 9 13-2.705 2.081-5.705 2.415-9 1a43.836 43.836 0 0 1-1-2c-1.251-4.098-.917-8.098 1-12z"/><path style="opacity:1" fill="#cbd0d0" d="M337.5 113.5c-5.577.356-10.91 1.356-16 3-.904-.709-1.237-1.709-1-3h17z"/><path style="opacity:1" fill="#f0f2f2" d="M93.5 105.5c.617.111 1.117.444 1.5 1 .963 3.649.463 6.982-1.5 10-2.281-.423-3.948.244-5 2-4.332 3.048-8 2.381-11-2 5.09-1.644 10.423-2.644 16-3 1.157-2.526 1.157-5.193 0-8z"/><path style="opacity:1" fill="#9fa8a9" d="M292.5 95.5c2.905 2.256 4.572 5.256 5 9 1.175-.219 2.175.114 3 1a35.018 35.018 0 0 1 5 9c.645 1.312 1.645 2.312 3 3a121.862 121.862 0 0 0 1-22c1.971 8.605 2.638 17.605 2 27-2.185-.204-4.185-.87-6-2v-1c-.58-2.249-1.913-3.915-4-5a44.842 44.842 0 0 0-7-10c.172-.992-.162-1.658-1-2-.321-1.548-1.321-2.215-3-2v22h-2v-27h4z"/><path style="opacity:1" fill="#e3e6e6" d="M294.5 104.5a44.842 44.842 0 0 1 7 10c-3.737-2.363-6.07-5.697-7-10z"/><path style="opacity:1" fill="#bfc5c5" d="M293.5 102.5c-.617-.111-1.117-.444-1.5-1-.5 6.992-.666 13.992-.5 21h-1v-22c1.679-.215 2.679.452 3 2z"/><path style="opacity:1" fill="#dadede" d="M301.5 114.5c2.087 1.085 3.42 2.751 4 5-2.087-1.085-3.42-2.751-4-5z"/><path style="opacity:1" fill="#a5aeae" d="M374.5 103.5a14.093 14.093 0 0 0 3.5-1c1.03.336 1.53 1.003 1.5 2-3.142.299-5.309 1.966-6.5 5a84.902 84.902 0 0 0-.5 13h-4v-21c2.185.204 4.185.87 6 2z"/><path style="opacity:1" fill="#ced2d2" d="M93.5 116.5c.237 1.291-.096 2.291-1 3-.71-2.342-2.044-2.675-4-1 1.052-1.756 2.719-2.423 5-2z"/><path style="opacity:1" fill="#ced3d3" d="M141.5 104.5c-2.667 5.333-2.667 10.667 0 16-2.751-2.049-4.084-4.882-4-8.5-.25-3.464 1.083-5.964 4-7.5z"/><path style="opacity:1" fill="#e5e8e8" d="M194.5 117.5a29.23 29.23 0 0 0 9 1c-.992 1.526-2.492 2.193-4.5 2-2.256-.047-3.756-1.047-4.5-3z"/><path style="opacity:1" fill="#e4e6e6" d="M245.5 117.5a29.23 29.23 0 0 0 9 1c-.992 1.526-2.492 2.193-4.5 2-2.256-.047-3.756-1.047-4.5-3z"/><path style="opacity:1" fill="#bdc4c4" d="M400.5 110.5c1.821 8.508-1.512 11.508-10 9 2.357.163 4.69-.003 7-.5.556-.383.889-.883 1-1.5.617-.111 1.117-.444 1.5-1 .495-1.973.662-3.973.5-6z"/><path style="opacity:1" fill="#ced3d3" d="M403.5 109.5c1.138 2.804 1.305 5.804.5 9-.383.556-.883.889-1.5 1a34.163 34.163 0 0 0 1-10z"/><path style="opacity:1" fill="#adb5b5" d="M482.5 106.5a31.116 31.116 0 0 0 1 11 42.769 42.769 0 0 0 1.5-9c.383-.556.883-.889 1.5-1-1.879 4.365-1.212 8.198 2 11.5 6.544 1.613 10.211-.887 11-7.5v-2a90.299 90.299 0 0 1 0 15c.321-3.38-.679-4.213-3-2.5a40.914 40.914 0 0 1-9 .5 33.673 33.673 0 0 0-5.5-4c-.812-4.189-.645-8.189.5-12z"/><path style="opacity:1" fill="#d0d5d5" d="M240.5 117.5c1.406.473 2.073 1.473 2 3-1.406-.473-2.073-1.473-2-3z"/><path style="opacity:1" fill="#cacfd0" d="M336.5 119.5c.131-.876-.202-1.543-1-2-3.47 2.894-7.47 3.727-12 2.5-.556-.383-.889-.883-1-1.5a36.39 36.39 0 0 0 5.5 1 63.202 63.202 0 0 1 9.5-3c.237 1.291-.096 2.291-1 3z"/><path style="opacity:1" fill="#b7bebe" d="M560.5 116.5c1.051 3.156 1.051 6.156 0 9 .343-1.983-.324-3.317-2-4-2.469-.817-5.135-1.317-8-1.5-.881-.708-1.547-1.542-2-2.5 4.306 2.947 8.306 2.614 12-1z"/><path style="opacity:1" fill="#a0a9aa" d="m347.5 116.5 1 2c.992 1.526 2.492 2.193 4.5 2 2.655.376 4.488-.624 5.5-3v-1c.986-4.47 1.319-9.137 1-14h3v20c-2.191-.791-4.191-.791-6 0h-9c-1.621-1.647-2.787-3.647-3.5-6a112.97 112.97 0 0 1-.5-15h3c-.321 5.195.013 10.195 1 15z"/><path style="opacity:1" fill="#cfd4d4" d="M358.5 117.5c-1.012 2.376-2.845 3.376-5.5 3-2.008.193-3.508-.474-4.5-2 3.556 1.485 6.889 1.152 10-1z"/><path style="opacity:1" fill="#9fa9a9" d="M324.5 101.5c4.349-.246 8.349.754 12 3 1.813 2.996 2.146 5.996 1 9h-17c-.237 1.291.096 2.291 1 3l1 2c.111.617.444 1.117 1 1.5 4.53 1.227 8.53.394 12-2.5.798.457 1.131 1.124 1 2-1.159 1.75-2.826 2.75-5 3h-8c-4.308-2.274-6.308-5.94-6-11-.601-5.485 1.733-8.818 7-10z"/><path style="opacity:1" fill="#bfc6c6" d="M322.5 106.5a5.576 5.576 0 0 1-1 3 43.117 43.117 0 0 0 13 1v-3c.934 1.068 1.268 2.401 1 4h-15c-.38-2.198.287-3.865 2-5z"/><path style="opacity:1" fill="#f4f5f5" d="M334.5 107.5v3a43.117 43.117 0 0 1-13-1 5.576 5.576 0 0 0 1-3c4.224-2.875 8.224-2.541 12 1z"/><path style="opacity:1" fill="#d1d5d5" d="M402.5 119.5c-.535 1.946-1.868 2.946-4 3 .936-1.474 2.27-2.474 4-3z"/><path style="opacity:1" fill="#dadddd" d="M305.5 120.5c1.815 1.13 3.815 1.796 6 2h1c-2.9 2.691-5.233 2.024-7-2z"/><path style="opacity:1" fill="#cad0d0" d="M348.5 122.5h8c-.652 1.225-1.819 1.892-3.5 2-2.008.193-3.508-.474-4.5-2z"/><path style="opacity:1" fill="#d0d5d5" d="M48.5 105.5c.958.453 1.792 1.119 2.5 2 1.164 19.989 1.997 19.989 2.5 0 .989 5.475 1.322 11.142 1 17h-4c.419-6.486-.248-12.819-2-19z"/><path style="opacity:1" fill="#c6cccc" d="M79.5 122.5h9c-1.277 1.398-2.943 2.064-5 2-1.855.16-3.188-.507-4-2z"/><path style="opacity:1" fill="#d6dada" d="M159.5 122.5v2c-3.177-1.177-6.343-1.177-9.5 0-2.008.193-3.508-.474-4.5-2 4.771-.394 9.438-.394 14 0z"/><path style="opacity:1" fill="#cdd2d2" d="M209.5 107.5c3.49 12.347-1.177 17.847-14 16.5-.556-.383-.889-.883-1-1.5 11.858 1.984 16.858-3.016 15-15z"/><path style="opacity:1" fill="#dee2e2" d="M243.5 121.5a141.539 141.539 0 0 0 18 1c-.12 1.086-.787 1.753-2 2-3.073-.593-6.239-.593-9.5 0l-5.5-1a43.836 43.836 0 0 1-1-2z"/><path style="opacity:1" fill="#dee1e1" d="M287.5 122.5h4c-.12 1.086-.787 1.753-2 2-1.213-.247-1.88-.914-2-2z"/><path style="opacity:1" fill="#c4caca" d="M323.5 122.5h8c-2.743 2.559-5.41 2.559-8 0z"/><path style="opacity:1" fill="#cdd2d2" d="M388.5 122.5h10c-1.194 1.277-2.86 1.944-5 2-2.14-.056-3.806-.723-5-2z"/><path style="opacity:1" fill="#dde0e0" d="M446.5 122.5h4c-.12 1.086-.787 1.753-2 2-1.213-.247-1.88-.914-2-2z"/><path style="opacity:1" fill="#cad0d0" d="M460.5 122.5h9c-.111.617-.444 1.117-1 1.5l-4 .5c-1.833-.085-3.166-.752-4-2z"/><path style="opacity:1" fill="#dee2e2" d="M471.5 122.5c1.435-.596 3.102-.596 5 0-.12 1.086-.787 1.753-2 2-1.239-.442-2.239-1.109-3-2z"/><path style="opacity:1" fill="#e0e3e3" d="M499.5 124.5c.172.992-.162 1.658-1 2h-1a88.902 88.902 0 0 0-10-4 40.914 40.914 0 0 0 9-.5c2.321-1.713 3.321-.88 3 2.5z"/><path style="opacity:1" fill="#f1f2f2" d="M558.5 121.5c1.676.683 2.343 2.017 2 4v1c-3.687 1.843-7.687 2.51-12 2v-3h-4v3c-.934-1.068-1.268-2.401-1-4 2.281.423 3.948-.244 5-2 3.439.247 6.772-.086 10-1z"/><path style="opacity:1" fill="#bbc1c1" d="M486.5 126.5c-.876-.131-1.543.202-2 1a185.977 185.977 0 0 1 2 3c-2.797-.467-4.131-2.133-4-5 1.599-.268 2.932.066 4 1z"/><path style="opacity:1" fill="#c6cccc" d="M486.5 126.5c1.892 1.351 4.058 2.018 6.5 2 2.008.193 3.508-.474 4.5-2h1c.086.996-.248 1.829-1 2.5l-4.5.5c-2.96.459-5.126-.541-6.5-3z"/><path style="opacity:1" fill="#aab2b3" d="M560.5 126.5c.086.996-.248 1.829-1 2.5-8.439.364-8.772 1.197-1 2.5-5.132 1.766-9.799.766-14-3v-3h4v3c4.313.51 8.313-.157 12-2z"/><path style="opacity:1" fill="#c6cbcb" d="M486.5 130.5c4.333 1.333 8.667 1.333 13 0-.111.617-.444 1.117-1 1.5a30.485 30.485 0 0 1-11 0c-.556-.383-.889-.883-1-1.5z"/><path style="opacity:1" fill="#e6e9e9" d="M91.5 152.5h-5v-7h-3v7h-5c1.068-.934 2.401-1.268 4-1-.163-2.357.003-4.69.5-7 1.356-.88 2.856-1.214 4.5-1v8c1.599-.268 2.932.066 4 1z"/><path style="opacity:1" fill="#dfe2e2" d="M156.5 147.5c-6.665-3.487-12.498-2.487-17.5 3a18.453 18.453 0 0 0-.5 6c-2.072-4.827-.738-8.66 4-11.5 4-.667 8-.667 12 0 .881.708 1.547 1.542 2 2.5z"/><path style="opacity:1" fill="#e6e8e8" d="M164.5 144.5c1.765-.961 3.765-1.295 6-1v8c3.213-.31 6.213.023 9 1-2.885-.306-5.552.027-8 1-.996-.086-1.829.248-2.5 1a50.464 50.464 0 0 1-.5-10h-4z"/><path style="opacity:1" fill="#c6cccc" d="M25.5 146.5c4.47-.986 9.137-1.319 14-1 1.527-.073 2.527.594 3 2a84.12 84.12 0 0 0-17-1z"/><path style="opacity:1" fill="#bec5c5" d="M164.5 144.5h4c-.165 3.35.002 6.683.5 10 .671-.752 1.504-1.086 2.5-1-.787 1.604-2.12 2.271-4 2a25.879 25.879 0 0 0-1-10 211.151 211.151 0 0 0-1 29c-.994-9.819-1.327-19.819-1-30z"/><path style="opacity:1" fill="#edefef" d="M308.5 145.5c-1.291-.237-2.291.096-3 1-.994 9.152-1.327 18.485-1 28-1.158-9.491-1.325-19.158-.5-29 1.616-1.301 3.116-1.301 4.5 0z"/><path style="opacity:1" fill="#b3baba" d="M339.5 145.5h4v4-4h-4z"/><path style="opacity:1" fill="#dbdfdf" d="M339.5 145.5c1.419-.951 3.085-1.284 5-1 .284 1.915-.049 3.581-1 5v-4h-4z"/><path style="opacity:1" fill="#95a0a0" d="M355.5 152.5c5.407 1.826 5.074 2.826-1 3v19h-1v-19h-5v-3h4c.809-1.792 1.309-3.792 1.5-6 .191 2.208.691 4.208 1.5 6z"/><path style="opacity:1" fill="#b9c0c0" d="M364.5 145.5h4v4h-4v-4z"/><path style="opacity:1" fill="#adb5b5" d="M415.5 145.5h4v4h-4v-4z"/><path style="opacity:1" fill="#e4e6e6" d="M39.5 145.5c-4.863-.319-9.53.014-14 1v28h13c-1.897 1.305-4.23 1.971-7 2a30.393 30.393 0 0 1-7.5-1c-.667-10-.667-20 0-30 5.266-1.324 10.433-1.324 15.5 0z"/><path style="opacity:1" fill="#aeb6b6" d="M355.5 145.5v7c-.809-1.792-1.309-3.792-1.5-6-.191 2.208-.691 4.208-1.5 6v-8c1.291-.237 2.291.096 3 1z"/><path style="opacity:1" fill="#dcdfdf" d="M411.5 152.5h-5a13.116 13.116 0 0 0-1-7 3.647 3.647 0 0 0-1.5 1 18.453 18.453 0 0 0-.5 6h-5c1.068-.934 2.401-1.268 4-1v-7h5v7c1.599-.268 2.932.066 4 1z"/><path style="opacity:1" fill="#c7cdcd" d="M233.5 145.5c1.068-.934 2.401-1.268 4-1v6h-5c-.284-1.915.049-3.581 1-5z"/><path style="opacity:1" fill="#9ea8a8" d="M233.5 145.5h3v3h-3v-3z"/><path style="opacity:1" fill="#c1c7c7" d="M308.5 145.5v30c-1.599.268-2.932-.066-4-1-.327-9.515.006-18.848 1-28 .709-.904 1.709-1.237 3-1z"/><path style="opacity:1" fill="#9aa4a4" d="M305.5 146.5c1.327 4.283 1.993 8.949 2 14l-1 14a196.869 196.869 0 0 1-1-28z"/><path style="opacity:1" fill="#dadddd" d="M355.5 145.5c.961 1.765 1.295 3.765 1 6 1.599-.268 2.932.066 4 1h-5v-7z"/><path style="opacity:1" fill="#a1aaab" d="M86.5 152.5c5.407 1.826 5.074 2.826-1 3v19c-1.953-5.574-2.62-11.574-2-18-3.45.744-5.116-.59-5-4h5v-7h3v7z"/><path style="opacity:1" fill="#c0c6c6" d="M224.5 153.5c1.419-.951 3.085-1.284 5-1 .343 1.983-.324 3.317-2 4 1.067-2.379.067-3.379-3-3z"/><path style="opacity:1" fill="#9ca6a6" d="M411.5 152.5v3h-5v19h-2v-19h-5v-3h4a18.453 18.453 0 0 1 .5-6 3.647 3.647 0 0 1 1.5-1 13.116 13.116 0 0 1 1 7h5z"/><path style="opacity:1" fill="#bac0c1" d="M441.5 158.5a12.93 12.93 0 0 0-.5-5c-.708.881-1.542 1.547-2.5 2 .958-.453 1.792-1.119 2.5-2a12.93 12.93 0 0 1 .5 5z"/><path style="opacity:1" fill="#a4adad" d="M171.5 153.5c2.448-.973 5.115-1.306 8-1 .667 2 2 3.333 4 4a93.307 93.307 0 0 1 1 18h-4a145.053 145.053 0 0 0-.5-17c-3.936-2.814-7.603-2.481-11 1a128.507 128.507 0 0 0-.5 16h-3c-.332-9.69.002-19.356 1-29a25.879 25.879 0 0 1 1 10c1.88.271 3.213-.396 4-2z"/><path style="opacity:1" fill="#a3acac" d="M204.5 153.5c1.703 2.361 3.37 2.361 5 0a111.148 111.148 0 0 1 1 21c-1.235-.221-2.235-.888-3-2-4.185 2.231-8.518 2.565-13 1-5.422-4.721-6.422-10.388-3-17 3.823-3.841 8.156-4.841 13-3z"/><path style="opacity:1" fill="#dfe2e2" d="M233.5 152.5v22h3v-22c1.156 7.489 1.322 15.155.5 23-1.667 1.333-3.333 1.333-5 0l-.5-11.5c.01-4.229.677-8.062 2-11.5z"/><path style="opacity:1" fill="#9aa4a5" d="M256.5 153.5h1c0 1.333.667 2 2 2 1.252 6.31 1.252 12.643 0 19a2298.005 2298.005 0 0 0-2-16c.086-.996-.248-1.829-1-2.5-9.311-1.155-9.311-1.988 0-2.5z"/><path style="opacity:1" fill="#cbd0d0" d="M390.5 174.5c1.291.237 2.291-.096 3-1 .33-6.7-.003-13.366-1-20l-3 2c-.798-.457-1.131-1.124-1-2a19.22 19.22 0 0 1 6-1v23c-1.599.268-2.932-.066-4-1z"/><path style="opacity:1" fill="#bdc3c4" d="M415.5 152.5h4v22h-4v-22z"/><path style="opacity:1" fill="#c8cdcd" d="M427.5 155.5c-.967-1.306-2.301-1.973-4-2a20.69 20.69 0 0 0 1 5c-1.78-1.49-2.446-3.49-2-6h5v3z"/><path style="opacity:1" fill="#9aa4a4" d="M74.5 152.5v22h-3v-2a5.728 5.728 0 0 0-1-3c1.09-3.485 1.09-6.819 0-10 .086-.996-.248-1.829-1-2.5.916-.278 1.582-.778 2-1.5v-3h3z"/><path style="opacity:1" fill="#c9cfcf" d="M74.5 152.5c.992 7.482 1.325 15.148 1 23-1.599.268-2.932-.066-4-1h3v-22z"/><path style="opacity:1" fill="#bcc3c3" d="M211.5 174.5h-1c.33-7.032-.003-14.032-1-21-1.63 2.361-3.297 2.361-5 0a51.569 51.569 0 0 1 7-1v22z"/><path style="opacity:1" fill="#dcdfdf" d="M217.5 152.5c.417-.624 1.084-.957 2-1 1.367.725 2.7 1.392 4 2-1 2.667-2 2.667-3 0-.709-.904-1.709-1.237-3-1z"/><path style="opacity:1" fill="#acb4b4" d="M233.5 152.5h3v22h-3v-22z"/><path style="opacity:1" fill="#9ba5a5" d="M246.5 158.5v1c-.359 5.249-1.359 10.249-3 15-.33-7.032.003-14.032 1-21a11.637 11.637 0 0 1 2 5z"/><path style="opacity:1" fill="#d2d7d7" d="M257.5 153.5c1.333 0 2 .667 2 2 0-1.333-.667-2-2-2z"/><path style="opacity:1" fill="#bec4c5" d="M328.5 153.5c-3.448-.392-6.614.275-9.5 2a9.258 9.258 0 0 1-2.5-2 111.148 111.148 0 0 0-1 21c-.992-7.148-1.325-14.481-1-22 4.756.141 9.423.474 14 1z"/><path style="opacity:1" fill="#d2d7d7" d="M367.5 174.5c-1.042 1.291-2.208 1.291-3.5 0a242.43 242.43 0 0 1-.5-22h5c.325 7.519-.008 14.852-1 22z"/><path style="opacity:1" fill="#a1aaaa" d="M367.5 174.5c-1.321-3.098-1.988-6.598-2-10.5l1-10.5a111.148 111.148 0 0 1 1 21z"/><path style="opacity:1" fill="#a4adad" d="M113.5 174.5v-3c-1.679.215-2.679-.452-3-2 1.308-3.519 1.308-7.185 0-11a185.977 185.977 0 0 0-3-2c-3.877-1.81-7.043-.81-9.5 3-.79 2.212-.623 4.212.5 6 .115 2.447 1.115 4.447 3 6 2.131.814 4.464 1.314 7 1.5-.556.383-.889.883-1 1.5-5.267 1.025-9.267-.642-12-5a34.17 34.17 0 0 1-1-10 62.359 62.359 0 0 0 4-6.5c5.74-.121 11.407-.288 17-.5.63 7.743-.037 15.076-2 22z"/><path style="opacity:1" fill="#a3adad" d="M156.5 147.5c2.472 1.142 3.472 3.142 3 6-2.584-.069-4.584-1.235-6-3.5-3.711-.825-7.378-.659-11 .5-1.806 3.605-.806 6.105 3 7.5a49.78 49.78 0 0 1 12.5 3.5c1.31.63 2.144 1.63 2.5 3a21.435 21.435 0 0 1-1 7c-1.53 1.846-3.53 2.846-6 3-5.051.458-9.717-.542-14-3-.369-2.493.297-3.16 2-2 4.106 1.945 8.439 2.445 13 1.5 4.088-3.139 3.755-5.639-1-7.5-.787-1.604-2.12-2.271-4-2-4.301-.318-7.968-1.985-11-5a18.453 18.453 0 0 1 .5-6c5.002-5.487 10.835-6.487 17.5-3z"/><path style="opacity:1" fill="#c2c8c8" d="M217.5 152.5c1.291-.237 2.291.096 3 1-1.32 2.928-1.986 6.261-2 10l1 10a1041.63 1041.63 0 0 1 2-12v13h-5c-.325-7.519.008-14.852 1-22z"/><path style="opacity:1" fill="#b5bcbc" d="M256.5 153.5c-9.311.512-9.311 1.345 0 2.5.752.671 1.086 1.504 1 2.5-3.667-2.667-7.333-2.667-11 0a11.637 11.637 0 0 0-2-5 111.148 111.148 0 0 0-1 21h-1v-22c4.756.141 9.423.474 14 1z"/><path style="opacity:1" fill="#c5cbcb" d="M342.5 174.5c-.667-28-1.333-28-2 0-.992-7.148-1.325-14.481-1-22h4c.325 7.519-.008 14.852-1 22z"/><path style="opacity:1" fill="#a2acac" d="M342.5 174.5h-2c.667-28 1.333-28 2 0z"/><path style="opacity:1" fill="#b5bdbd" d="M378.5 153.5c2.357 1.598 5.023 2.598 8 3-3.338-.435-6.338.232-9 2-.779-2.427-1.946-2.427-3.5 0a40.914 40.914 0 0 0-.5 9c-.973-2.448-1.306-5.115-1-8 1.096-2.886 3.096-4.886 6-6z"/><path style="opacity:1" fill="#a2abab" d="M416.5 153.5c1.32 2.928 1.986 6.261 2 10l-1 10c-.997-6.634-1.33-13.3-1-20z"/><path style="opacity:1" fill="#dbdedf" d="M180.5 174.5c-.827-5.151-1.327-10.484-1.5-16-3.24-1.536-6.24-1.203-9 1-.174 5.184-.674 10.184-1.5 15-.166-5.344.001-10.677.5-16 3.397-3.481 7.064-3.814 11-1 .499 5.657.666 11.324.5 17z"/><path style="opacity:1" fill="#dde0e0" d="M205.5 158.5c-3.367-1.247-6.701-1.247-10 0 3.238-3.963 6.571-3.963 10 0z"/><path style="opacity:1" fill="#a0aaaa" d="M25.5 146.5a84.12 84.12 0 0 1 17 1c3.72 1.72 6.387 4.387 8 8a34.17 34.17 0 0 1-1 10c.17 1.322-.163 2.489-1 3.5a14.506 14.506 0 0 0-5 4c-1.525 1.009-3.192 1.509-5 1.5h-13v-28z"/><path style="opacity:1" fill="#d8dcdc" d="M29.5 150.5v20a60.93 60.93 0 0 0 11-.5c2.16-1.059 3.826-2.559 5-4.5.048 2.792-1.285 4.625-4 5.5a84.9 84.9 0 0 1-13 .5c-.325-7.187.009-14.187 1-21z"/><path style="opacity:1" fill="#fcfcfc" d="M39.5 149.5c1.833.748 3.5 1.748 5 3a61.254 61.254 0 0 1 1 13c-1.174 1.941-2.84 3.441-5 4.5a60.93 60.93 0 0 1-11 .5v-20c3.125-.979 6.458-1.313 10-1z"/><path style="opacity:1" fill="#b4bcbc" d="M39.5 149.5c-3.542-.313-6.875.021-10 1-.991 6.813-1.325 13.813-1 21-1.155-7.155-1.322-14.488-.5-22 3.934-1.321 7.767-1.321 11.5 0z"/><path style="opacity:1" fill="#a6afaf" d="M71.5 155.5c-.418.722-1.084 1.222-2 1.5.752.671 1.086 1.504 1 2.5-2.388-2.576-5.388-3.576-9-3-1.517.011-2.684.677-3.5 2l-.5 5.5c.047 2.295.713 4.129 2 5.5.992 1.526 2.492 2.193 4.5 2 2.442.018 4.609-.649 6.5-2 .61.891.943 1.891 1 3-3.13 1.523-6.463 2.189-10 2-3.167-.668-5.667-2.334-7.5-5-3.302-9.629-.135-15.295 9.5-17 3.201-.159 5.868.841 8 3z"/><path style="opacity:1" fill="#fafbfb" d="M61.5 156.5c3.612-.576 6.612.424 9 3 1.09 3.181 1.09 6.515 0 10-1.891 1.351-4.058 2.018-6.5 2-2.008.193-3.508-.474-4.5-2-1.603-4.715-.936-9.049 2-13z"/><path style="opacity:1" fill="#bcc2c2" d="M86.5 152.5h5c.934 1.068 1.268 2.401 1 4h-5c.62 6.426-.047 12.426-2 18v-19c6.074-.174 6.407-1.174 1-3z"/><path style="opacity:1" fill="#fafafa" d="M107.5 156.5c.982.641 1.982 1.307 3 2 1.308 3.815 1.308 7.481 0 11-2.746 1.626-5.746 2.293-9 2-1.885-1.553-2.885-3.553-3-6 0-6 3-9 9-9zM205.5 158.5h1a24.93 24.93 0 0 1 1 8c-1.044 2.343-2.71 4.01-5 5-2.906-.457-5.572-1.457-8-3-1.138-2.804-1.305-5.804-.5-9 .383-.556.883-.889 1.5-1 3.299-1.247 6.633-1.247 10 0z"/><path style="opacity:1" fill="#aab2b2" d="M355.5 152.5h5v4h-5c.323 6.19-.01 12.19-1 18v-19c6.074-.174 6.407-1.174 1-3z"/><path style="opacity:1" fill="#e1e4e4" d="m351.5 156.5 2 18h1c.99-5.81 1.323-11.81 1-18h5c-.709.904-1.709 1.237-3 1a81.883 81.883 0 0 1-1 18 9.108 9.108 0 0 1-5 1v-20z"/><path style="opacity:1" fill="#fcfcfc" d="M388.5 158.5c.667 0 1 .333 1 1a34.163 34.163 0 0 1-1 10c-3.26 2.559-6.594 2.559-10 0-3.104-9.755.229-13.421 10-11z"/><path style="opacity:1" fill="#e7eaea" d="M398.5 156.5h5c-.323 6.19.01 12.19 1 18h2c-.683 1.676-2.017 2.343-4 2v-19c-1.599.268-2.932-.066-4-1z"/><path style="opacity:1" fill="#bac1c1" d="M398.5 152.5h1v3h5v19c-.99-5.81-1.323-11.81-1-18h-5v-4z"/><path style="opacity:1" fill="#c5cbcb" d="M44.5 152.5c2.328 1.666 3.328 3.999 3 7 .139 2.383-.528 4.383-2 6a61.254 61.254 0 0 0-1-13z"/><path style="opacity:1" fill="#d1d6d6" d="M107.5 156.5c-6 0-9 3-9 9-1.123-1.788-1.29-3.788-.5-6 2.457-3.81 5.623-4.81 9.5-3z"/><path style="opacity:1" fill="#b0b8b8" d="M348.5 155.5h5v19l-2-18c-1.291.237-2.291-.096-3-1z"/><path style="opacity:1" fill="#d2d6d6" d="M411.5 155.5c-1.068.934-2.401 1.268-4 1 .323 6.19-.01 12.19-1 18v-19h5z"/><path style="opacity:1" fill="#d9dcdd" d="M50.5 155.5c1.138 2.804 1.304 5.804.5 9-.383.556-.883.889-1.5 1a34.17 34.17 0 0 0 1-10z"/><path style="opacity:1" fill="#e8eaea" d="M183.5 156.5c.617.111 1.117.444 1.5 1 .499 5.991.666 11.991.5 18-1.915.284-3.581-.049-5-1h4a93.307 93.307 0 0 0-1-18z"/><path style="opacity:1" fill="#eaecec" d="M261.5 157.5c.617.111 1.117.444 1.5 1l.5 8c-.022 3.09-.688 5.757-2 8v-17z"/><path style="opacity:1" fill="#e7eaea" d="M266.5 159.5v9c-.617-.111-1.117-.444-1.5-1l-.5-4c.085-1.833.752-3.166 2-4z"/><path style="opacity:1" fill="#a1aaaa" d="M220.5 153.5c1 2.667 2 2.667 3 0h1c3.067-.379 4.067.621 3 3-1.175-.219-2.175.114-3 1-1.326 1.142-2.326 2.476-3 4a1041.63 1041.63 0 0 0-2 12l-1-10c.014-3.739.68-7.072 2-10z"/><path style="opacity:1" fill="#a0a9a9" d="M328.5 153.5c1.679-.215 2.679.452 3 2 1.865 6.088 2.531 12.422 2 19h-3c.321-5.526-.012-10.86-1-16l-3-2c-1.101-1.098-2.434-1.265-4-.5-1.619.236-2.619 1.069-3 2.5-.988 5.14-1.321 10.474-1 16h-3c-.33-7.032.003-14.032 1-21a9.258 9.258 0 0 0 2.5 2c2.886-1.725 6.052-2.392 9.5-2z"/><path style="opacity:1" fill="#d5d9d9" d="M326.5 156.5a21.17 21.17 0 0 0-7 2c.381-1.431 1.381-2.264 3-2.5 1.566-.765 2.899-.598 4 .5z"/><path style="opacity:1" fill="#d1d6d6" d="M329.5 158.5c.988 5.14 1.321 10.474 1 16h3c-1.068.934-2.401 1.268-4 1v-17z"/><path style="opacity:1" fill="#ced3d3" d="M331.5 155.5c.958.453 1.792 1.119 2.5 2 .818 5.849.652 11.515-.5 17 .531-6.578-.135-12.912-2-19z"/><path style="opacity:1" fill="#e4e7e7" d="M61.5 156.5c-2.936 3.951-3.603 8.285-2 13-1.287-1.371-1.953-3.205-2-5.5l.5-5.5c.816-1.323 1.983-1.989 3.5-2z"/><path style="opacity:1" fill="#a0aaaa" d="M121.5 160.5h11v3h-11v-3z"/><path style="opacity:1" fill="#bcc2c3" d="M259.5 155.5c1 .333 1.667 1 2 2v17c-1.068.934-2.401 1.268-4 1v-17c.667 5.181 1.333 10.515 2 16 1.252-6.357 1.252-12.69 0-19z"/><path style="opacity:1" fill="#e2e5e5" d="M372.5 159.5c-.306 2.885.027 5.552 1 8a16.339 16.339 0 0 1 2 5c-2.276-.256-3.443-1.59-3.5-4-.805-3.196-.638-6.196.5-9z"/><path style="opacity:1" fill="#d0d4d4" d="M94.5 159.5a34.17 34.17 0 0 0 1 10c-.617-.111-1.117-.444-1.5-1-.805-3.196-.638-6.196.5-9z"/><path style="opacity:1" fill="#cfd4d4" d="M149.5 161.5c1.88-.271 3.213.396 4 2-1.88.271-3.213-.396-4-2z"/><path style="opacity:1" fill="#dde1e1" d="M386.5 156.5c1 .333 1.667 1 2 2-9.771-2.421-13.104 1.245-10 11-3.407-3.323-3.74-6.99-1-11 2.662-1.768 5.662-2.435 9-2z"/><path style="opacity:1" fill="#a0a9a9" d="M466.5 158.5v6a145.053 145.053 0 0 0-17 .5c-.55 2.158-1.55 2.658-3 1.5-1.134-2.466-1.301-5.133-.5-8 6.956-7.983 13.79-7.983 20.5 0z"/><path style="opacity:1" fill="#c3c9c9" d="M462.5 158.5c.934 1.068 1.268 2.401 1 4-4.532.318-8.866-.015-13-1h12v-3z"/><path style="opacity:1" fill="#f6f6f6" d="M458.5 156.5c1.105 1.1 2.438 1.767 4 2v3h-12c-1.215-1.279-.882-2.279 1-3 2.058-1.433 4.392-2.1 7-2z"/><path style="opacity:1" fill="#d9dddd" d="M458.5 156.5c-2.608-.1-4.942.567-7 2 1.765-2.949 4.098-3.615 7-2z"/><path style="opacity:1" fill="#cacfcf" d="M246.5 159.5v16c-1.599.268-2.932-.066-4-1h1c1.641-4.751 2.641-9.751 3-15z"/><path style="opacity:1" fill="#c5caca" d="M206.5 158.5c1.526.992 2.193 2.492 2 4.5-.014 1.385-.348 2.551-1 3.5a24.93 24.93 0 0 0-1-8z"/><path style="opacity:1" fill="#d2d6d6" d="M440.5 162.5a598.896 598.896 0 0 1-3 6c-.475-2.813.525-4.813 3-6z"/><path style="opacity:1" fill="#a3acac" d="M268.5 179.5c.711-2.342 2.044-2.675 4-1 .992 1.526 2.492 2.193 4.5 2 1.385-.014 2.551-.348 3.5-1 2.812-1.395 4.146-3.729 4-7-3.839 1.667-7.839 2.167-12 1.5-2.523-1.36-4.523-3.193-6-5.5v-9a31.115 31.115 0 0 1 4.5-6 233.014 233.014 0 0 1 16.5-1c.166 8.673 0 17.34-.5 26-2.425 3.433-5.759 4.767-10 4l-6.5-.5c-.566-.995-1.233-1.828-2-2.5z"/><path style="opacity:1" fill="#fafbfb" d="M279.5 156.5c6.613 4.811 6.613 9.477 0 14-3.503.371-6.503-.629-9-3v-1c-.483-6.516 2.517-9.849 9-10z"/><path style="opacity:1" fill="#d5d9d9" d="M279.5 156.5c-6.483.151-9.483 3.484-9 10-1.888-4.194-.888-7.694 3-10.5 2.212-.789 4.212-.622 6 .5z"/><path style="opacity:1" fill="#9ca6a6" d="M388.5 153.5c-.131.876.202 1.543 1 2l3-2c.997 6.634 1.33 13.3 1 20-2-.667-3.333-2-4-4 1.282-3.436 1.282-6.769 0-10 0-.667-.333-1-1-1-.333-1-1-1.667-2-2-2.977-.402-5.643-1.402-8-3 3.333-1.333 6.667-1.333 10 0z"/><path style="opacity:1" fill="#afb7b7" d="M141.5 169.5c-1.703-1.16-2.369-.493-2 2-1.574-1.602-2.241-3.602-2-6h4v4z"/><path style="opacity:1" fill="#b3bbbb" d="M466.5 158.5c.968 2.107 1.302 4.441 1 7h-17v4c-.543.06-.876.393-1 1a514.367 514.367 0 0 1 3 4c-3.865-1.206-5.865-3.873-6-8 1.45 1.158 2.45.658 3-1.5a145.053 145.053 0 0 1 17-.5v-6z"/><path style="opacity:1" fill="#d8dddd" d="M389.5 159.5c1.282 3.231 1.282 6.564 0 10h-1a34.163 34.163 0 0 0 1-10z"/><path style="opacity:1" fill="#dee2e2" d="M426.5 164.5c1.713 1.135 2.38 2.802 2 5-1.713-1.135-2.38-2.802-2-5z"/><path style="opacity:1" fill="#a4adad" d="M427.5 155.5a62.881 62.881 0 0 0 5.5 13 349.379 349.379 0 0 0 5.5-13c.958-.453 1.792-1.119 2.5-2a12.93 12.93 0 0 1 .5 5c-.934 1.068-1.268 2.401-1 4-2.475 1.187-3.475 3.187-3 6-.289 3.081-1.956 5.081-5 6a4.933 4.933 0 0 1-2.5-1c-.21-1.558-.71-2.891-1.5-4 .38-2.198-.287-3.865-2-5l-2-6a20.69 20.69 0 0 1-1-5c1.699.027 3.033.694 4 2z"/><path style="opacity:1" fill="#d6dbdb" d="M160.5 164.5c.652.949.986 2.115 1 3.5-.108 1.681-.775 2.848-2 3.5 1.225-.652 1.892-1.819 2-3.5-.014-1.385-.348-2.551-1-3.5z"/><path style="opacity:1" fill="#d3d8d8" d="M194.5 168.5c2.428 1.543 5.094 2.543 8 3-3.581 1.739-6.248.739-8-3z"/><path style="opacity:1" fill="#dbdede" d="M270.5 167.5c2.497 2.371 5.497 3.371 9 3-3.933 1.843-6.933.843-9-3z"/><path style="opacity:1" fill="#9da7a7" d="M377.5 158.5c-2.74 4.01-2.407 7.677 1 11-.086.996.248 1.829 1 2.5 2.865.183 5.531.683 8 1.5-2.217.869-4.55 1.202-7 1l-5-2a16.339 16.339 0 0 0-2-5 40.914 40.914 0 0 1 .5-9c1.554-2.427 2.721-2.427 3.5 0z"/><path style="opacity:1" fill="#b6bdbd" d="M110.5 169.5c.321 1.548 1.321 2.215 3 2v3c-2-1.333-4-1.333-6 0 .111-.617.444-1.117 1-1.5-2.536-.186-4.869-.686-7-1.5 3.254.293 6.254-.374 9-2z"/><path style="opacity:1" fill="#b2b9b9" d="M378.5 169.5c3.406 2.559 6.74 2.559 10 0h1c.667 2 2 3.333 4 4-.709.904-1.709 1.237-3 1-.304-2.296-1.304-2.629-3-1-2.469-.817-5.135-1.317-8-1.5-.752-.671-1.086-1.504-1-2.5z"/><path style="opacity:1" fill="#a0a9a9" d="M453.5 174.5h-1a514.367 514.367 0 0 0-3-4c.124-.607.457-.94 1-1 3.359 1.987 7.025 2.487 11 1.5.808-1.706 2.141-2.539 4-2.5.203 1.89-.463 3.39-2 4.5a24.362 24.362 0 0 1-10 1.5z"/><path style="opacity:1" fill="#d4d9d9" d="M390.5 174.5c-3.485 1.09-6.819 1.09-10 0 2.45.202 4.783-.131 7-1 1.696-1.629 2.696-1.296 3 1z"/><path style="opacity:1" fill="#d8dcdc" d="M71.5 172.5v2c-3.486 1.09-6.819 1.09-10 0 3.537.189 6.87-.477 10-2z"/><path style="opacity:1" fill="#c2c8c8" d="M139.5 171.5c4.283 2.458 8.949 3.458 14 3-2.804 1.138-5.804 1.305-9 .5-2.381-.223-4.047-1.39-5-3.5z"/><path style="opacity:1" fill="#dfe3e3" d="M210.5 174.5h1c-4.794 1.388-9.794 1.888-15 1.5-.881-.708-1.547-1.542-2-2.5 4.482 1.565 8.815 1.231 13-1 .765 1.112 1.765 1.779 3 2z"/><path style="opacity:1" fill="#e3e5e5" d="M453.5 174.5a24.362 24.362 0 0 0 10-1.5c1.537-1.11 2.203-2.61 2-4.5-1.859-.039-3.192.794-4 2.5-3.975.987-7.641.487-11-1.5v-1c1.892 1.351 4.058 2.018 6.5 2 2.808-.341 5.308-1.341 7.5-3l3 1c-.505 2.688-1.838 4.855-4 6.5-3.527.808-6.86.641-10-.5z"/><path style="opacity:1" fill="#d8dcdc" d="M272.5 178.5c-1.956-1.675-3.289-1.342-4 1-2.903-1.745-2.57-2.745 1-3 1.53.14 2.53.807 3 2z"/><path style="opacity:1" fill="#d2d6d6" d="M272.5 178.5a24.93 24.93 0 0 0 8 1c-.949.652-2.115.986-3.5 1-2.008.193-3.508-.474-4.5-2z"/></svg>