<?xml version="1.0" encoding="UTF-8"?>
<!DOCTYPE svg PUBLIC "-//W3C//DTD SVG 1.1//EN" "http://www.w3.org/Graphics/SVG/1.1/DTD/svg11.dtd">
<svg xmlns="http://www.w3.org/2000/svg" version="1.1" width="590px" height="214px" style="shape-rendering:geometricPrecision; text-rendering:geometricPrecision; image-rendering:optimizeQuality; fill-rule:evenodd; clip-rule:evenodd" xmlns:xlink="http://www.w3.org/1999/xlink">
<g><path style="opacity:1" fill="#fefefe" d="M -0.5,-0.5 C 196.167,-0.5 392.833,-0.5 589.5,-0.5C 589.5,70.8333 589.5,142.167 589.5,213.5C 392.833,213.5 196.167,213.5 -0.5,213.5C -0.5,142.167 -0.5,70.8333 -0.5,-0.5 Z"/></g>
<g><path style="opacity:1" fill="#d5dada" d="M 132.5,28.5 C 129.594,27.2134 126.594,26.2134 123.5,25.5C 116.018,24.508 108.352,24.1746 100.5,24.5C 100.5,40.1667 100.5,55.8333 100.5,71.5C 99.5037,56.0089 99.1704,40.3422 99.5,24.5C 107.656,23.3434 115.99,23.1768 124.5,24C 126.871,24.7348 129.205,25.5682 131.5,26.5C 132.298,26.9569 132.631,27.6236 132.5,28.5 Z"/></g>
<g><path style="opacity:1" fill="#dde0e0" d="M 86.5,71.5 C 86.5,55.8333 86.5,40.1667 86.5,24.5C 85.1667,24.5 83.8333,24.5 82.5,24.5C 80.8405,36.2986 79.8405,48.2986 79.5,60.5C 78.5,60.1667 77.8333,59.5 77.5,58.5C 79.4784,47.2146 80.1451,35.5479 79.5,23.5C 82.1667,23.5 84.8333,23.5 87.5,23.5C 87.8297,39.6754 87.4964,55.6754 86.5,71.5 Z"/></g>
<g><path style="opacity:1" fill="#d0d5d5" d="M 28.5,24.5 C 28.5,40.1667 28.5,55.8333 28.5,71.5C 29.8333,71.5 31.1667,71.5 32.5,71.5C 32.5,71.8333 32.5,72.1667 32.5,72.5C 30.2646,72.7947 28.2646,72.4614 26.5,71.5C 25.8489,55.4643 26.5156,39.7977 28.5,24.5 Z"/></g>
<g><path style="opacity:1" fill="#eceded" d="M 32.5,72.5 C 32.5,72.1667 32.5,71.8333 32.5,71.5C 33.4963,56.0089 33.8296,40.3422 33.5,24.5C 31.8333,24.5 30.1667,24.5 28.5,24.5C 26.5156,39.7977 25.8489,55.4643 26.5,71.5C 25.5036,55.6754 25.1703,39.6754 25.5,23.5C 28.5,23.5 31.5,23.5 34.5,23.5C 35.1518,40.2009 34.4851,56.5342 32.5,72.5 Z"/></g>
<g><path style="opacity:1" fill="#dadedf" d="M 52.5,24.5 C 50.5,24.5 48.5,24.5 46.5,24.5C 46.5,40.1667 46.5,55.8333 46.5,71.5C 46.5,71.8333 46.5,72.1667 46.5,72.5C 44.5149,56.5342 43.8482,40.2009 44.5,23.5C 47.3854,23.1936 50.0521,23.5269 52.5,24.5 Z"/></g>
<g><path style="opacity:1" fill="#aab3b3" d="M 52.5,24.5 C 52.5,24.8333 52.5,25.1667 52.5,25.5C 50.8333,25.5 49.1667,25.5 47.5,25.5C 47.5,40.8333 47.5,56.1667 47.5,71.5C 47.1667,71.5 46.8333,71.5 46.5,71.5C 46.5,55.8333 46.5,40.1667 46.5,24.5C 48.5,24.5 50.5,24.5 52.5,24.5 Z"/></g>
<g><path style="opacity:1" fill="#d3d7d7" d="M 82.5,24.5 C 82.5,24.8333 82.5,25.1667 82.5,25.5C 82.1598,38.0338 81.1598,50.3672 79.5,62.5C 79.5,61.8333 79.5,61.1667 79.5,60.5C 79.8405,48.2986 80.8405,36.2986 82.5,24.5 Z"/></g>
<g><path style="opacity:1" fill="#dfe2e2" d="M 99.5,24.5 C 99.1704,40.3422 99.5037,56.0089 100.5,71.5C 100.5,71.8333 100.5,72.1667 100.5,72.5C 99.1689,64.8624 98.5022,56.8624 98.5,48.5C 98.5003,40.3262 98.8336,32.3262 99.5,24.5 Z"/></g>
<g><path style="opacity:1" fill="#ccd1d1" d="M 152.5,24.5 C 152.5,24.8333 152.5,25.1667 152.5,25.5C 151.504,40.6576 151.17,55.9909 151.5,71.5C 153.167,71.5 154.833,71.5 156.5,71.5C 156.5,55.8333 156.5,40.1667 156.5,24.5C 157.496,40.3246 157.83,56.3246 157.5,72.5C 155.167,72.5 152.833,72.5 150.5,72.5C 149.849,56.1317 150.515,40.1317 152.5,24.5 Z"/></g>
<g><path style="opacity:1" fill="#98a2a2" d="M 52.5,25.5 C 53.5,25.8333 54.1667,26.5 54.5,27.5C 54.7376,29.4044 55.7376,30.7377 57.5,31.5C 57.5,31.8333 57.5,32.1667 57.5,32.5C 58.0798,34.7488 59.4131,36.4154 61.5,37.5C 64.2154,40.2139 66.5488,43.2139 68.5,46.5C 68.427,48.0269 69.0937,49.0269 70.5,49.5C 73.0862,52.3579 75.4195,55.3579 77.5,58.5C 77.8333,59.5 78.5,60.1667 79.5,60.5C 79.5,61.1667 79.5,61.8333 79.5,62.5C 80.209,63.404 81.209,63.7373 82.5,63.5C 82.5,50.8333 82.5,38.1667 82.5,25.5C 83.5,25.5 84.5,25.5 85.5,25.5C 85.5,40.5 85.5,55.5 85.5,70.5C 83.5,70.5 81.5,70.5 79.5,70.5C 79.1667,69.5 78.5,68.8333 77.5,68.5C 77.573,66.9731 76.9063,65.9731 75.5,65.5C 72.5464,59.9042 68.8797,54.9042 64.5,50.5C 64.2624,48.5956 63.2624,47.2623 61.5,46.5C 60.9202,44.2512 59.5869,42.5846 57.5,41.5C 56.5514,39.2228 55.2181,37.2228 53.5,35.5C 53.5,35.1667 53.5,34.8333 53.5,34.5C 52.791,33.596 51.791,33.2627 50.5,33.5C 50.5,46.1667 50.5,58.8333 50.5,71.5C 49.5,71.5 48.5,71.5 47.5,71.5C 47.5,56.1667 47.5,40.8333 47.5,25.5C 49.1667,25.5 50.8333,25.5 52.5,25.5 Z"/></g>
<g><path style="opacity:1" fill="#bec4c4" d="M 82.5,25.5 C 82.5,38.1667 82.5,50.8333 82.5,63.5C 81.209,63.7373 80.209,63.404 79.5,62.5C 81.1598,50.3672 82.1598,38.0338 82.5,25.5 Z"/></g>
<g><path style="opacity:1" fill="#abb3b3" d="M 82.5,25.5 C 82.5,25.1667 82.5,24.8333 82.5,24.5C 83.8333,24.5 85.1667,24.5 86.5,24.5C 86.5,40.1667 86.5,55.8333 86.5,71.5C 85.5514,72.1524 84.3847,72.4857 83,72.5C 81.3189,72.3917 80.1522,71.7251 79.5,70.5C 81.5,70.5 83.5,70.5 85.5,70.5C 85.5,55.5 85.5,40.5 85.5,25.5C 84.5,25.5 83.5,25.5 82.5,25.5 Z"/></g>
<g><path style="opacity:1" fill="#aab2b2" d="M 123.5,25.5 C 116.167,25.5 108.833,25.5 101.5,25.5C 101.5,40.5 101.5,55.5 101.5,70.5C 109.5,70.5 117.5,70.5 125.5,70.5C 125.082,71.2216 124.416,71.7216 123.5,72C 115.841,72.4997 108.174,72.6664 100.5,72.5C 100.5,72.1667 100.5,71.8333 100.5,71.5C 100.5,55.8333 100.5,40.1667 100.5,24.5C 108.352,24.1746 116.018,24.508 123.5,25.5 Z"/></g>
<g><path style="opacity:1" fill="#99a3a3" d="M 123.5,25.5 C 126.594,26.2134 129.594,27.2134 132.5,28.5C 133.402,30.3407 134.736,31.674 136.5,32.5C 137.512,33.8717 138.512,35.205 139.5,36.5C 140.32,42.7974 140.653,49.1308 140.5,55.5C 139.531,57.663 138.698,59.9963 138,62.5C 134.999,67.0028 130.833,69.6695 125.5,70.5C 117.5,70.5 109.5,70.5 101.5,70.5C 101.5,55.5 101.5,40.5 101.5,25.5C 108.833,25.5 116.167,25.5 123.5,25.5 Z"/></g>
<g><path style="opacity:1" fill="#abb3b3" d="M 28.5,24.5 C 30.1667,24.5 31.8333,24.5 33.5,24.5C 33.8296,40.3422 33.4963,56.0089 32.5,71.5C 31.1667,71.5 29.8333,71.5 28.5,71.5C 28.5,55.8333 28.5,40.1667 28.5,24.5 Z"/></g>
<g><path style="opacity:1" fill="#929d9d" d="M 29.5,25.5 C 30.8308,32.6356 31.4975,40.1356 31.5,48C 31.1667,55.5 30.8333,63 30.5,70.5C 29.5007,55.5148 29.1673,40.5148 29.5,25.5 Z"/></g>
<g><path style="opacity:1" fill="#acb3b4" d="M 152.5,24.5 C 153.833,24.5 155.167,24.5 156.5,24.5C 156.5,40.1667 156.5,55.8333 156.5,71.5C 154.833,71.5 153.167,71.5 151.5,71.5C 151.17,55.9909 151.504,40.6576 152.5,25.5C 152.5,25.1667 152.5,24.8333 152.5,24.5 Z"/></g>
<g><path style="opacity:1" fill="#929d9e" d="M 152.5,25.5 C 153.5,25.5 154.5,25.5 155.5,25.5C 155.5,40.5 155.5,55.5 155.5,70.5C 154.5,70.5 153.5,70.5 152.5,70.5C 152.5,55.5 152.5,40.5 152.5,25.5 Z"/></g>
<g><path style="opacity:1" fill="#dadddd" d="M 132.5,28.5 C 134.833,28.8333 136.167,30.1667 136.5,32.5C 134.736,31.674 133.402,30.3407 132.5,28.5 Z"/></g>
<g><path style="opacity:1" fill="#c6cccc" d="M 54.5,27.5 C 56.2624,28.2623 57.2624,29.5956 57.5,31.5C 55.7376,30.7377 54.7376,29.4044 54.5,27.5 Z"/></g>
<g><path style="opacity:1" fill="#e0e3e3" d="M 126.5,32.5 C 119.891,31.5774 113.224,31.2441 106.5,31.5C 106.5,42.8333 106.5,54.1667 106.5,65.5C 112.167,65.5 117.833,65.5 123.5,65.5C 117.69,66.4896 111.69,66.8229 105.5,66.5C 105.5,54.1667 105.5,41.8333 105.5,29.5C 111.509,29.3338 117.509,29.5005 123.5,30C 124.942,30.3768 125.942,31.2101 126.5,32.5 Z"/></g>
<g><path style="opacity:1" fill="#fdfdfd" d="M 126.5,32.5 C 130.833,33.5 133.5,36.1667 134.5,40.5C 134.5,41.1667 134.5,41.8333 134.5,42.5C 134.663,47.547 134.329,52.547 133.5,57.5C 133.034,60.7911 131.367,63.1245 128.5,64.5C 126.708,64.366 125.042,64.6993 123.5,65.5C 117.833,65.5 112.167,65.5 106.5,65.5C 106.5,54.1667 106.5,42.8333 106.5,31.5C 113.224,31.2441 119.891,31.5774 126.5,32.5 Z"/></g>
<g><path style="opacity:1" fill="#acb4b4" d="M 53.5,34.5 C 51.8402,46.6328 50.8402,58.9662 50.5,71.5C 50.5,58.8333 50.5,46.1667 50.5,33.5C 51.791,33.2627 52.791,33.596 53.5,34.5 Z"/></g>
<g><path style="opacity:1" fill="#d1d5d5" d="M 53.5,34.5 C 53.5,34.8333 53.5,35.1667 53.5,35.5C 52.5048,47.6554 52.1714,59.9887 52.5,72.5C 50.5,72.5 48.5,72.5 46.5,72.5C 46.5,72.1667 46.5,71.8333 46.5,71.5C 46.8333,71.5 47.1667,71.5 47.5,71.5C 48.5,71.5 49.5,71.5 50.5,71.5C 50.8402,58.9662 51.8402,46.6328 53.5,34.5 Z"/></g>
<g><path style="opacity:1" fill="#b4bbbc" d="M 57.5,32.5 C 59.5869,33.5846 60.9202,35.2512 61.5,37.5C 59.4131,36.4154 58.0798,34.7488 57.5,32.5 Z"/></g>
<g><path style="opacity:1" fill="#dfe2e2" d="M 57.5,41.5 C 59.5869,42.5846 60.9202,44.2512 61.5,46.5C 59.4131,45.4154 58.0798,43.7488 57.5,41.5 Z"/></g>
<g><path style="opacity:1" fill="#bcc3c3" d="M 134.5,40.5 C 135.117,40.6107 135.617,40.944 136,41.5C 136.815,46.3522 136.648,51.0189 135.5,55.5C 135.818,50.9677 135.485,46.6344 134.5,42.5C 134.5,41.8333 134.5,41.1667 134.5,40.5 Z"/></g>
<g><path style="opacity:1" fill="#dcdfdf" d="M 134.5,42.5 C 135.485,46.6344 135.818,50.9677 135.5,55.5C 134.833,56.1667 134.167,56.8333 133.5,57.5C 134.329,52.547 134.663,47.547 134.5,42.5 Z"/></g>
<g><path style="opacity:1" fill="#bac1c1" d="M 139.5,36.5 C 141.039,39.8646 141.706,43.5313 141.5,47.5C 141.497,50.3555 141.164,53.0221 140.5,55.5C 140.653,49.1308 140.32,42.7974 139.5,36.5 Z"/></g>
<g><path style="opacity:1" fill="#ccd1d1" d="M 61.5,46.5 C 63.2624,47.2623 64.2624,48.5956 64.5,50.5C 62.7376,49.7377 61.7376,48.4044 61.5,46.5 Z"/></g>
<g><path style="opacity:1" fill="#c3c9c9" d="M 68.5,46.5 C 69.9063,46.9731 70.573,47.9731 70.5,49.5C 69.0937,49.0269 68.427,48.0269 68.5,46.5 Z"/></g>
<g><path style="opacity:1" fill="#c4c9ca" d="M 128.5,64.5 C 127.653,65.9663 126.32,66.7996 124.5,67C 117.986,67.82 111.653,67.6533 105.5,66.5C 111.69,66.8229 117.69,66.4896 123.5,65.5C 125.042,64.6993 126.708,64.366 128.5,64.5 Z"/></g>
<g><path style="opacity:1" fill="#cfd4d4" d="M 75.5,65.5 C 76.9063,65.9731 77.573,66.9731 77.5,68.5C 76.0937,68.0269 75.427,67.0269 75.5,65.5 Z"/></g>
<g><path style="opacity:1" fill="#ccd1d1" d="M 268.5,93.5 C 267.86,103.558 268.527,113.225 270.5,122.5C 269.817,124.176 268.483,124.843 266.5,124.5C 265.858,113.779 266.525,103.446 268.5,93.5 Z"/></g>
<g><path style="opacity:1" fill="#d8dcdc" d="M 409.5,94.5 C 410.568,93.5655 411.901,93.2322 413.5,93.5C 413.784,95.4147 413.451,97.0813 412.5,98.5C 412.5,97.1667 412.5,95.8333 412.5,94.5C 411.5,94.5 410.5,94.5 409.5,94.5 Z"/></g>
<g><path style="opacity:1" fill="#d0d5d5" d="M 25.5,94.5 C 25.5,94.8333 25.5,95.1667 25.5,95.5C 24.8623,104.895 25.5289,113.895 27.5,122.5C 27.8333,122.5 28.1667,122.5 28.5,122.5C 27.8166,124.176 26.4832,124.843 24.5,124.5C 24.1726,114.319 24.506,104.319 25.5,94.5 Z"/></g>
<g><path style="opacity:1" fill="#abb3b3" d="M 180.5,94.5 C 181.833,94.5 183.167,94.5 184.5,94.5C 184.5,95.8333 184.5,97.1667 184.5,98.5C 183.167,98.5 181.833,98.5 180.5,98.5C 180.5,97.1667 180.5,95.8333 180.5,94.5 Z"/></g>
<g><path style="opacity:1" fill="#a0aaaa" d="M 268.5,93.5 C 270.473,102.775 271.14,112.442 270.5,122.5C 268.527,113.225 267.86,103.558 268.5,93.5 Z"/></g>
<g><path style="opacity:1" fill="#b9c0c0" d="M 292.5,95.5 C 291.167,95.5 289.833,95.5 288.5,95.5C 288.5,104.5 288.5,113.5 288.5,122.5C 288.167,122.5 287.833,122.5 287.5,122.5C 287.5,113.167 287.5,103.833 287.5,94.5C 289.415,94.2155 291.081,94.5489 292.5,95.5 Z"/></g>
<g><path style="opacity:1" fill="#d1d6d6" d="M 309.5,94.5 C 309.5,94.8333 309.5,95.1667 309.5,95.5C 309.831,102.863 309.497,110.197 308.5,117.5C 307.145,116.812 306.145,115.812 305.5,114.5C 306.496,114.414 307.329,114.748 308,115.5C 308.171,108.321 308.671,101.321 309.5,94.5 Z"/></g>
<g><path style="opacity:1" fill="#d8dcdc" d="M 508.5,94.5 C 509.919,93.5489 511.585,93.2155 513.5,93.5C 513.784,95.4147 513.451,97.0813 512.5,98.5C 512.5,97.1667 512.5,95.8333 512.5,94.5C 511.167,94.5 509.833,94.5 508.5,94.5 Z"/></g>
<g><path style="opacity:1" fill="#b4bbbb" d="M 25.5,95.5 C 25.5,95.1667 25.5,94.8333 25.5,94.5C 26.5,94.5 27.5,94.5 28.5,94.5C 28.5,103.833 28.5,113.167 28.5,122.5C 28.1667,122.5 27.8333,122.5 27.5,122.5C 28.1377,113.105 27.4711,104.105 25.5,95.5 Z"/></g>
<g><path style="opacity:1" fill="#b2baba" d="M 309.5,95.5 C 309.5,95.1667 309.5,94.8333 309.5,94.5C 310.5,94.5 311.5,94.5 312.5,94.5C 312.5,103.833 312.5,113.167 312.5,122.5C 312.167,122.5 311.833,122.5 311.5,122.5C 312.138,113.105 311.471,104.105 309.5,95.5 Z"/></g>
<g><path style="opacity:1" fill="#a3acac" d="M 25.5,95.5 C 27.4711,104.105 28.1377,113.105 27.5,122.5C 25.5289,113.895 24.8623,104.895 25.5,95.5 Z"/></g>
<g><path style="opacity:1" fill="#a1aaab" d="M 409.5,94.5 C 410.5,94.5 411.5,94.5 412.5,94.5C 412.5,95.8333 412.5,97.1667 412.5,98.5C 411.5,98.5 410.5,98.5 409.5,98.5C 409.5,97.1667 409.5,95.8333 409.5,94.5 Z"/></g>
<g><path style="opacity:1" fill="#a8b1b1" d="M 508.5,94.5 C 509.833,94.5 511.167,94.5 512.5,94.5C 512.5,95.8333 512.5,97.1667 512.5,98.5C 511.167,98.5 509.833,98.5 508.5,98.5C 508.5,97.1667 508.5,95.8333 508.5,94.5 Z"/></g>
<g><path style="opacity:1" fill="#c1c7c8" d="M 69.5,104.5 C 68.5263,102.915 67.0263,101.915 65,101.5C 63.8449,92.1894 63.0116,92.1894 62.5,101.5C 60.8333,101.5 59.1667,101.5 57.5,101.5C 58.5676,100.566 59.901,100.232 61.5,100.5C 61.5,98.1667 61.5,95.8333 61.5,93.5C 63.1439,93.2865 64.6439,93.6198 66,94.5C 66.4955,96.4727 66.6621,98.4727 66.5,100.5C 67.8333,100.5 69.1667,100.5 70.5,100.5C 70.7678,102.099 70.4345,103.432 69.5,104.5 Z"/></g>
<g><path style="opacity:1" fill="#9fa9a9" d="M 69.5,104.5 C 68.1667,104.5 66.8333,104.5 65.5,104.5C 65.5,110.5 65.5,116.5 65.5,122.5C 64.5,122.5 63.5,122.5 62.5,122.5C 62.5,116.5 62.5,110.5 62.5,104.5C 60.8333,104.5 59.1667,104.5 57.5,104.5C 57.5,103.5 57.5,102.5 57.5,101.5C 59.1667,101.5 60.8333,101.5 62.5,101.5C 63.0116,92.1894 63.8449,92.1894 65,101.5C 67.0263,101.915 68.5263,102.915 69.5,104.5 Z"/></g>
<g><path style="opacity:1" fill="#d7dbdb" d="M 88.5,101.5 C 83.9275,100.769 79.9275,101.769 76.5,104.5C 76.5106,102.983 77.1772,101.816 78.5,101C 82.0267,100.192 85.3601,100.359 88.5,101.5 Z"/></g>
<g><path style="opacity:1" fill="#d7dbdb" d="M 203.5,101.5 C 199.838,101.034 196.505,101.701 193.5,103.5C 196.505,101.701 199.838,101.034 203.5,101.5 Z"/></g>
<g><path style="opacity:1" fill="#dce0e0" d="M 221.5,101.5 C 224.304,100.362 227.304,100.195 230.5,101C 231.252,101.671 231.586,102.504 231.5,103.5C 228.416,101.899 225.083,101.232 221.5,101.5 Z"/></g>
<g><path style="opacity:1" fill="#d0d4d5" d="M 397.5,101.5 C 386.611,101.396 382.277,106.73 384.5,117.5C 383.542,117.047 382.708,116.381 382,115.5C 381.259,112.438 381.425,109.438 382.5,106.5C 384.5,105.167 386.167,103.5 387.5,101.5C 390.98,100.194 394.313,100.194 397.5,101.5 Z"/></g>
<g><path style="opacity:1" fill="#dadddd" d="M 469.5,101.5 C 465.838,101.034 462.505,101.701 459.5,103.5C 462.505,101.701 465.838,101.034 469.5,101.5 Z"/></g>
<g><path style="opacity:1" fill="#d5d9d9" d="M 488.5,101.5 C 490.966,100.366 493.633,100.199 496.5,101C 497.381,101.708 498.047,102.542 498.5,103.5C 495.448,101.822 492.115,101.155 488.5,101.5 Z"/></g>
<g><path style="opacity:1" fill="#b4bbbb" d="M 106.5,101.5 C 107.833,101.5 109.167,101.5 110.5,101.5C 110.5,102.5 110.5,103.5 110.5,104.5C 110.167,104.5 109.833,104.5 109.5,104.5C 109.631,103.624 109.298,102.957 108.5,102.5C 107.583,103.127 106.583,103.461 105.5,103.5C 105.833,102.833 106.167,102.167 106.5,101.5 Z"/></g>
<g><path style="opacity:1" fill="#dcdfe0" d="M 324.5,101.5 C 327.304,100.362 330.304,100.195 333.5,101C 335.063,101.759 336.063,102.926 336.5,104.5C 332.849,102.254 328.849,101.254 324.5,101.5 Z"/></g>
<g><path style="opacity:1" fill="#eeefef" d="M 363.5,101.5 C 364.655,108.655 364.822,115.988 364,123.5C 363.107,124.081 362.107,124.415 361,124.5C 359.393,123.926 357.893,123.26 356.5,122.5C 358.309,121.709 360.309,121.709 362.5,122.5C 363.491,115.687 363.825,108.687 363.5,101.5 Z"/></g>
<g><path style="opacity:1" fill="#b7bebe" d="M 375.5,101.5 C 377.167,101.5 378.833,101.5 380.5,101.5C 380.737,102.791 380.404,103.791 379.5,104.5C 379.53,103.503 379.03,102.836 378,102.5C 376.862,102.989 375.695,103.322 374.5,103.5C 374.833,102.833 375.167,102.167 375.5,101.5 Z"/></g>
<g><path style="opacity:1" fill="#c5cbcb" d="M 445.5,101.5 C 442.659,101.56 439.993,102.226 437.5,103.5C 437.414,102.504 437.748,101.671 438.5,101C 441.039,100.204 443.372,100.371 445.5,101.5 Z"/></g>
<g><path style="opacity:1" fill="#c2c8c8" d="M 561.5,101.5 C 561.53,102.497 561.03,103.164 560,103.5C 555.822,102.206 551.655,102.206 547.5,103.5C 548.593,101.444 550.426,100.444 553,100.5C 555.59,100.376 557.923,101.042 560,102.5C 560.383,101.944 560.883,101.611 561.5,101.5 Z"/></g>
<g><path style="opacity:1" fill="#e7e9e9" d="M 40.5,101.5 C 40.6309,102.376 40.2975,103.043 39.5,103.5C 38.5,102.833 37.5,102.167 36.5,101.5C 35.503,108.468 35.1697,115.468 35.5,122.5C 33.5367,115.576 32.8701,108.243 33.5,100.5C 35.9496,100.298 38.283,100.631 40.5,101.5 Z"/></g>
<g><path style="opacity:1" fill="#d7dbdb" d="M 106.5,101.5 C 106.167,102.167 105.833,102.833 105.5,103.5C 103.5,103.167 101.5,102.833 99.5,102.5C 99.5,109.167 99.5,115.833 99.5,122.5C 100.5,122.5 101.5,122.5 102.5,122.5C 101.817,124.176 100.483,124.843 98.5,124.5C 98.3336,116.826 98.5003,109.159 99,101.5C 101.394,100.864 103.894,100.864 106.5,101.5 Z"/></g>
<g><path style="opacity:1" fill="#ced3d3" d="M 128.5,102.5 C 124.941,102.284 121.441,102.618 118,103.5C 117.05,102.978 116.216,102.311 115.5,101.5C 114.503,108.468 114.17,115.468 114.5,122.5C 113.509,115.687 113.175,108.687 113.5,101.5C 117.167,101.64 121.001,101.307 125,100.5C 126.681,100.608 127.848,101.275 128.5,102.5 Z"/></g>
<g><path style="opacity:1" fill="#c9cece" d="M 159.5,122.5 C 159.83,115.8 159.497,109.134 158.5,102.5C 157.833,103.167 157.167,103.833 156.5,104.5C 155.893,104.376 155.56,104.043 155.5,103.5C 156.779,102.032 158.446,101.365 160.5,101.5C 160.825,108.687 160.491,115.687 159.5,122.5 Z"/></g>
<g><path style="opacity:1" fill="#e9ebeb" d="M 184.5,122.5 C 184.824,115.646 184.491,108.979 183.5,102.5C 182.833,101.167 182.167,101.167 181.5,102.5C 180.509,108.979 180.176,115.646 180.5,122.5C 179.345,115.679 179.179,108.679 180,101.5C 181.699,100.594 183.533,100.261 185.5,100.5C 185.825,108.019 185.492,115.352 184.5,122.5 Z"/></g>
<g><path style="opacity:1" fill="#9da7a7" d="M 183.5,102.5 C 182.833,129.167 182.167,129.167 181.5,102.5C 182.167,101.167 182.833,101.167 183.5,102.5 Z"/></g>
<g><path style="opacity:1" fill="#a0aaaa" d="M 203.5,101.5 C 206.307,102.666 208.307,104.666 209.5,107.5C 211.358,119.484 206.358,124.484 194.5,122.5C 187.928,117.705 186.761,111.705 191,104.5C 191.671,103.748 192.504,103.414 193.5,103.5C 196.505,101.701 199.838,101.034 203.5,101.5 Z"/></g>
<g><path style="opacity:1" fill="#d3d7d8" d="M 221.5,101.5 C 220.208,104.67 218.542,105.004 216.5,102.5C 215.503,109.134 215.17,115.8 215.5,122.5C 214.508,115.352 214.175,108.019 214.5,100.5C 216.861,100.674 219.194,101.007 221.5,101.5 Z"/></g>
<g><path style="opacity:1" fill="#a3adad" d="M 257.5,102.5 C 258.688,101.316 259.855,101.316 261,102.5C 261.5,109.158 261.666,115.825 261.5,122.5C 255.542,122.553 249.542,122.219 243.5,121.5C 242.833,121.5 242.5,121.167 242.5,120.5C 242.573,118.973 241.906,117.973 240.5,117.5C 238.139,104.016 243.472,99.3491 256.5,103.5C 257.107,103.376 257.44,103.043 257.5,102.5 Z"/></g>
<g><path style="opacity:1" fill="#e7e9e9" d="M 261.5,122.5 C 261.666,115.825 261.5,109.158 261,102.5C 259.855,101.316 258.688,101.316 257.5,102.5C 258.455,100.29 259.955,99.9568 262,101.5C 262.821,108.679 262.655,115.679 261.5,122.5 Z"/></g>
<g><path style="opacity:1" fill="#d1d6d6" d="M 347.5,116.5 C 346.513,111.695 346.179,106.695 346.5,101.5C 345.5,101.5 344.5,101.5 343.5,101.5C 343.334,106.511 343.501,111.511 344,116.5C 344.713,118.853 345.879,120.853 347.5,122.5C 344.95,122.439 343.45,121.106 343,118.5C 342.501,112.509 342.334,106.509 342.5,100.5C 344.167,100.5 345.833,100.5 347.5,100.5C 347.5,105.833 347.5,111.167 347.5,116.5 Z"/></g>
<g><path style="opacity:1" fill="#c2c8c8" d="M 359.5,101.5 C 360.791,101.263 361.791,101.596 362.5,102.5C 361.5,102.5 360.5,102.5 359.5,102.5C 359.819,107.363 359.486,112.03 358.5,116.5C 358.179,111.305 358.513,106.305 359.5,101.5 Z"/></g>
<g><path style="opacity:1" fill="#e0e3e3" d="M 375.5,101.5 C 375.167,102.167 374.833,102.833 374.5,103.5C 372.685,102.37 370.685,101.704 368.5,101.5C 368.5,108.5 368.5,115.5 368.5,122.5C 367.508,115.352 367.175,108.019 367.5,100.5C 370.237,100.401 372.904,100.735 375.5,101.5 Z"/></g>
<g><path style="opacity:1" fill="#e1e4e4" d="M 412.5,122.5 C 412.5,115.5 412.5,108.5 412.5,101.5C 411.5,101.5 410.5,101.5 409.5,101.5C 409.5,108.5 409.5,115.5 409.5,122.5C 407.537,115.576 406.87,108.243 407.5,100.5C 409.5,100.5 411.5,100.5 413.5,100.5C 413.825,108.019 413.492,115.352 412.5,122.5 Z"/></g>
<g><path style="opacity:1" fill="#aab3b3" d="M 412.5,122.5 C 411.5,122.5 410.5,122.5 409.5,122.5C 409.5,115.5 409.5,108.5 409.5,101.5C 410.5,101.5 411.5,101.5 412.5,101.5C 412.5,108.5 412.5,115.5 412.5,122.5 Z"/></g>
<g><path style="opacity:1" fill="#e2e5e5" d="M 421.5,101.5 C 420.5,101.5 419.5,101.5 418.5,101.5C 418.5,108.5 418.5,115.5 418.5,122.5C 417.508,115.352 417.175,108.019 417.5,100.5C 419.099,100.232 420.432,100.566 421.5,101.5 Z"/></g>
<g><path style="opacity:1" fill="#d6dada" d="M 476.5,122.5 C 476.5,115.5 476.5,108.5 476.5,101.5C 475.5,101.5 474.5,101.5 473.5,101.5C 473.649,102.552 473.483,103.552 473,104.5C 471.271,104.026 470.105,103.026 469.5,101.5C 472.127,100.908 474.794,100.575 477.5,100.5C 477.825,108.019 477.492,115.352 476.5,122.5 Z"/></g>
<g><path style="opacity:1" fill="#cbd0d0" d="M 508.5,102.5 C 508.833,102.5 509.167,102.5 509.5,102.5C 509.5,109.167 509.5,115.833 509.5,122.5C 510.5,122.5 511.5,122.5 512.5,122.5C 511.817,124.176 510.483,124.843 508.5,124.5C 508.5,117.167 508.5,109.833 508.5,102.5 Z"/></g>
<g><path style="opacity:1" fill="#acb4b4" d="M 512.5,122.5 C 511.5,122.5 510.5,122.5 509.5,122.5C 509.5,115.833 509.5,109.167 509.5,102.5C 510.209,101.596 511.209,101.263 512.5,101.5C 512.5,108.5 512.5,115.5 512.5,122.5 Z"/></g>
<g><path style="opacity:1" fill="#e2e5e5" d="M 512.5,122.5 C 512.5,115.5 512.5,108.5 512.5,101.5C 511.209,101.263 510.209,101.596 509.5,102.5C 509.167,102.5 508.833,102.5 508.5,102.5C 509.552,100.744 511.219,100.077 513.5,100.5C 513.825,108.019 513.492,115.352 512.5,122.5 Z"/></g>
<g><path style="opacity:1" fill="#e6e8e8" d="M 533.5,101.5 C 530.102,101.142 526.935,101.808 524,103.5C 523.235,103.43 522.735,103.097 522.5,102.5C 521.791,101.596 520.791,101.263 519.5,101.5C 519.175,108.687 519.509,115.687 520.5,122.5C 521.167,122.5 521.833,122.5 522.5,122.5C 521.189,125.133 519.689,125.133 518,122.5C 517.5,115.174 517.334,107.841 517.5,100.5C 523.026,100.179 528.36,100.512 533.5,101.5 Z"/></g>
<g><path style="opacity:1" fill="#d0d5d5" d="M 561.5,101.5 C 562.568,100.566 563.901,100.232 565.5,100.5C 565.826,109.017 565.493,117.35 564.5,125.5C 564.5,117.5 564.5,109.5 564.5,101.5C 563.5,101.5 562.5,101.5 561.5,101.5 Z"/></g>
<g><path style="opacity:1" fill="#a1aaaa" d="M 105.5,103.5 C 106.583,103.461 107.583,103.127 108.5,102.5C 109.298,102.957 109.631,103.624 109.5,104.5C 109.167,104.5 108.833,104.5 108.5,104.5C 105.833,105.167 104.167,106.833 103.5,109.5C 102.515,113.634 102.182,117.968 102.5,122.5C 101.5,122.5 100.5,122.5 99.5,122.5C 99.5,115.833 99.5,109.167 99.5,102.5C 101.5,102.833 103.5,103.167 105.5,103.5 Z"/></g>
<g><path style="opacity:1" fill="#ebeded" d="M 159.5,124.5 C 159.5,123.833 159.5,123.167 159.5,122.5C 160.491,115.687 160.825,108.687 160.5,101.5C 158.446,101.365 156.779,102.032 155.5,103.5C 154.5,103.167 153.833,102.5 153.5,101.5C 156.096,100.735 158.763,100.401 161.5,100.5C 162.134,108.903 161.467,116.903 159.5,124.5 Z"/></g>
<g><path style="opacity:1" fill="#c0c6c6" d="M 181.5,102.5 C 182.167,129.167 182.833,129.167 183.5,102.5C 184.491,108.979 184.824,115.646 184.5,122.5C 184.38,123.586 183.713,124.253 182.5,124.5C 181.287,124.253 180.62,123.586 180.5,122.5C 180.176,115.646 180.509,108.979 181.5,102.5 Z"/></g>
<g><path style="opacity:1" fill="#a1aaaa" d="M 221.5,101.5 C 225.083,101.232 228.416,101.899 231.5,103.5C 233.365,109.588 234.031,115.922 233.5,122.5C 232.5,122.5 231.5,122.5 230.5,122.5C 230.666,117.156 230.499,111.823 230,106.5C 229.617,105.944 229.117,105.611 228.5,105.5C 226.059,104.244 223.726,104.244 221.5,105.5C 220.504,105.414 219.671,105.748 219,106.5C 218.327,112.194 217.16,117.528 215.5,122.5C 215.17,115.8 215.503,109.134 216.5,102.5C 218.542,105.004 220.208,104.67 221.5,101.5 Z"/></g>
<g><path style="opacity:1" fill="#d7dbdb" d="M 359.5,101.5 C 360.833,100.167 362.167,100.167 363.5,101.5C 363.825,108.687 363.491,115.687 362.5,122.5C 362.5,115.833 362.5,109.167 362.5,102.5C 361.791,101.596 360.791,101.263 359.5,101.5 Z"/></g>
<g><path style="opacity:1" fill="#9da7a7" d="M 469.5,101.5 C 470.105,103.026 471.271,104.026 473,104.5C 473.483,103.552 473.649,102.552 473.5,101.5C 474.5,101.5 475.5,101.5 476.5,101.5C 476.5,108.5 476.5,115.5 476.5,122.5C 474.602,121.904 472.935,121.904 471.5,122.5C 470.833,122.5 470.167,122.5 469.5,122.5C 466.5,122.5 463.5,122.5 460.5,122.5C 459.236,120.73 457.736,119.063 456,117.5C 455.505,115.527 455.338,113.527 455.5,111.5C 456.131,109.066 457.131,106.732 458.5,104.5C 458.5,103.833 458.833,103.5 459.5,103.5C 462.505,101.701 465.838,101.034 469.5,101.5 Z"/></g>
<g><path style="opacity:1" fill="#c5cbcb" d="M 499.5,101.5 C 500.568,100.566 501.901,100.232 503.5,100.5C 503.827,109.682 503.493,118.682 502.5,127.5C 502.5,118.833 502.5,110.167 502.5,101.5C 501.5,101.5 500.5,101.5 499.5,101.5 Z"/></g>
<g><path style="opacity:1" fill="#9fa9a9" d="M 40.5,101.5 C 43.8499,101.335 47.1832,101.502 50.5,102C 52.607,103.264 53.607,105.097 53.5,107.5C 52.9974,127.489 52.1641,127.489 51,107.5C 50.2917,106.619 49.4584,105.953 48.5,105.5C 45.6649,104.214 42.8316,104.214 40,105.5C 38.5962,111.044 38.0962,116.71 38.5,122.5C 37.5,122.5 36.5,122.5 35.5,122.5C 35.1697,115.468 35.503,108.468 36.5,101.5C 37.5,102.167 38.5,102.833 39.5,103.5C 40.2975,103.043 40.6309,102.376 40.5,101.5 Z"/></g>
<g><path style="opacity:1" fill="#eceeee" d="M 106.5,101.5 C 108.688,100.377 111.021,100.377 113.5,101.5C 113.175,108.687 113.509,115.687 114.5,122.5C 115.167,122.5 115.833,122.5 116.5,122.5C 116.833,122.5 117.167,122.5 117.5,122.5C 116.545,124.71 115.045,125.043 113,123.5C 113.131,116.754 112.298,110.421 110.5,104.5C 110.5,103.5 110.5,102.5 110.5,101.5C 109.167,101.5 107.833,101.5 106.5,101.5 Z"/></g>
<g><path style="opacity:1" fill="#9fa8a8" d="M 176.5,104.5 C 175.167,104.5 173.833,104.5 172.5,104.5C 171.833,110.346 171.167,116.346 170.5,122.5C 169.833,116.346 169.167,110.346 168.5,104.5C 167.167,104.5 165.833,104.5 164.5,104.5C 164.5,103.5 164.5,102.5 164.5,101.5C 165.833,101.5 167.167,101.5 168.5,101.5C 168.5,99.1667 168.5,96.8333 168.5,94.5C 169.5,94.5 170.5,94.5 171.5,94.5C 171.5,96.8333 171.5,99.1667 171.5,101.5C 173.167,101.5 174.833,101.5 176.5,101.5C 176.5,102.5 176.5,103.5 176.5,104.5 Z"/></g>
<g><path style="opacity:1" fill="#bac1c1" d="M 432.5,102.5 C 428.407,102.857 424.407,102.857 420.5,102.5C 419.503,109.134 419.17,115.8 419.5,122.5C 419.167,122.5 418.833,122.5 418.5,122.5C 418.5,115.5 418.5,108.5 418.5,101.5C 419.5,101.5 420.5,101.5 421.5,101.5C 423.488,101.173 425.488,100.84 427.5,100.5C 429.557,100.436 431.223,101.102 432.5,102.5 Z"/></g>
<g><path style="opacity:1" fill="#9ca6a6" d="M 445.5,101.5 C 445.833,102.5 446.5,103.167 447.5,103.5C 449.519,109.26 450.019,115.26 449,121.5C 448.667,117.167 448.333,112.833 448,108.5C 447.617,107.944 447.117,107.611 446.5,107.5C 446.5,106.167 445.833,105.5 444.5,105.5C 441.282,103.816 438.615,104.483 436.5,107.5C 435.834,112.349 435.167,117.349 434.5,122.5C 433.671,117.533 433.171,112.533 433,107.5C 432.722,106.584 432.222,105.918 431.5,105.5C 429.021,104.377 426.688,104.377 424.5,105.5C 423.504,105.414 422.671,105.748 422,106.5C 421.501,111.823 421.334,117.156 421.5,122.5C 420.833,122.5 420.167,122.5 419.5,122.5C 419.17,115.8 419.503,109.134 420.5,102.5C 424.407,102.857 428.407,102.857 432.5,102.5C 433.538,104.519 434.872,104.853 436.5,103.5C 436.833,103.5 437.167,103.5 437.5,103.5C 439.993,102.226 442.659,101.56 445.5,101.5 Z"/></g>
<g><path style="opacity:1" fill="#d0d4d4" d="M 432.5,102.5 C 433.833,102.833 435.167,103.167 436.5,103.5C 434.872,104.853 433.538,104.519 432.5,102.5 Z"/></g>
<g><path style="opacity:1" fill="#e4e6e7" d="M 176.5,104.5 C 176.5,103.5 176.5,102.5 176.5,101.5C 174.833,101.5 173.167,101.5 171.5,101.5C 171.5,99.1667 171.5,96.8333 171.5,94.5C 170.5,94.5 169.5,94.5 168.5,94.5C 168.5,96.8333 168.5,99.1667 168.5,101.5C 167.167,101.5 165.833,101.5 164.5,101.5C 164.5,102.5 164.5,103.5 164.5,104.5C 165.833,104.5 167.167,104.5 168.5,104.5C 168.5,110.5 168.5,116.5 168.5,122.5C 167.511,117.025 167.178,111.358 167.5,105.5C 166.167,105.5 164.833,105.5 163.5,105.5C 163.5,103.833 163.5,102.167 163.5,100.5C 164.833,100.5 166.167,100.5 167.5,100.5C 167.5,98.1667 167.5,95.8333 167.5,93.5C 169.5,93.5 171.5,93.5 173.5,93.5C 173.5,95.8333 173.5,98.1667 173.5,100.5C 174.833,100.5 176.167,100.5 177.5,100.5C 177.768,102.099 177.434,103.432 176.5,104.5 Z"/></g>
<g><path style="opacity:1" fill="#c5cbcb" d="M 168.5,104.5 C 169.167,110.346 169.833,116.346 170.5,122.5C 171.167,116.346 171.833,110.346 172.5,104.5C 172.5,111.167 172.5,117.833 172.5,124.5C 170.517,124.843 169.183,124.176 168.5,122.5C 168.5,116.5 168.5,110.5 168.5,104.5 Z"/></g>
<g><path style="opacity:1" fill="#fafbfb" d="M 204.5,106.5 C 205.766,110.468 205.766,114.468 204.5,118.5C 204.167,118.5 203.833,118.5 203.5,118.5C 200.43,118.632 197.43,118.299 194.5,117.5C 194.167,117.5 193.833,117.5 193.5,117.5C 193.5,114.167 193.5,110.833 193.5,107.5C 194.512,105.124 196.345,104.124 199,104.5C 201.221,104.393 203.054,105.06 204.5,106.5 Z"/></g>
<g><path style="opacity:1" fill="#f9fafa" d="M 254.5,118.5 C 251.43,118.632 248.43,118.299 245.5,117.5C 243.962,113.286 244.296,109.286 246.5,105.5C 256.119,102.594 259.619,106.26 257,116.5C 256.292,117.381 255.458,118.047 254.5,118.5 Z"/></g>
<g><path style="opacity:1" fill="#fcfcfc" d="M 463.5,104.5 C 465.95,104.298 468.283,104.631 470.5,105.5C 472.092,108.966 472.758,112.633 472.5,116.5C 472.027,117.906 471.027,118.573 469.5,118.5C 460.992,119.477 458.158,115.81 461,107.5C 462.045,106.627 462.878,105.627 463.5,104.5 Z"/></g>
<g><path style="opacity:1" fill="#f9f9f9" d="M 496.5,105.5 C 496.992,107.819 497.992,109.819 499.5,111.5C 498.711,118.113 495.044,120.613 488.5,119C 485.288,115.698 484.621,111.865 486.5,107.5C 486.577,106.25 487.244,105.417 488.5,105C 491.261,104.278 493.927,104.445 496.5,105.5 Z"/></g>
<g><path style="opacity:1" fill="#d2d6d6" d="M 108.5,104.5 C 107.167,106.5 105.5,108.167 103.5,109.5C 104.167,106.833 105.833,105.167 108.5,104.5 Z"/></g>
<g><path style="opacity:1" fill="#9ea8a8" d="M 561.5,101.5 C 562.5,101.5 563.5,101.5 564.5,101.5C 564.5,109.5 564.5,117.5 564.5,125.5C 563.393,128.369 561.393,130.369 558.5,131.5C 550.728,130.197 551.061,129.364 559.5,129C 560.252,128.329 560.586,127.496 560.5,126.5C 560.5,126.167 560.5,125.833 560.5,125.5C 561.551,122.656 561.551,119.656 560.5,116.5C 561.638,113.696 561.805,110.696 561,107.5C 560.292,106.619 559.458,105.953 558.5,105.5C 558.167,105.5 557.833,105.5 557.5,105.5C 548.5,103.167 545.167,106.5 547.5,115.5C 547.833,116.167 548.167,116.833 548.5,117.5C 548.953,118.458 549.619,119.292 550.5,120C 553.365,120.183 556.031,120.683 558.5,121.5C 555.272,122.414 551.939,122.747 548.5,122.5C 545.833,120.507 544.166,117.84 543.5,114.5C 543.266,110.196 544.6,106.529 547.5,103.5C 551.655,102.206 555.822,102.206 560,103.5C 561.03,103.164 561.53,102.497 561.5,101.5 Z"/></g>
<g><path style="opacity:1" fill="#fbfbfb" d="M 557.5,105.5 C 557.833,105.5 558.167,105.5 558.5,105.5C 560.22,108.889 560.887,112.556 560.5,116.5C 556.806,120.114 552.806,120.447 548.5,117.5C 548.167,116.833 547.833,116.167 547.5,115.5C 546.5,107.833 549.833,104.5 557.5,105.5 Z"/></g>
<g><path style="opacity:1" fill="#a0a9a9" d="M 128.5,102.5 C 130.833,102.833 132.167,104.167 132.5,106.5C 132.5,111.833 132.5,117.167 132.5,122.5C 131.5,122.5 130.5,122.5 129.5,122.5C 129.666,117.156 129.499,111.823 129,106.5C 128.617,105.944 128.117,105.611 127.5,105.5C 127.167,105.5 126.833,105.5 126.5,105.5C 125.551,104.848 124.385,104.514 123,104.5C 120.992,104.307 119.492,104.974 118.5,106.5C 117.732,107.263 117.232,108.263 117,109.5C 116.501,113.821 116.334,118.154 116.5,122.5C 115.833,122.5 115.167,122.5 114.5,122.5C 114.17,115.468 114.503,108.468 115.5,101.5C 116.216,102.311 117.05,102.978 118,103.5C 121.441,102.618 124.941,102.284 128.5,102.5 Z"/></g>
<g><path style="opacity:1" fill="#e8eaeb" d="M 126.5,105.5 C 124.409,105.318 122.409,105.652 120.5,106.5C 120.134,112.229 119.134,117.563 117.5,122.5C 117.392,117.13 117.725,111.797 118.5,106.5C 119.492,104.974 120.992,104.307 123,104.5C 124.385,104.514 125.551,104.848 126.5,105.5 Z"/></g>
<g><path style="opacity:1" fill="#e0e3e3" d="M 127.5,105.5 C 128.117,105.611 128.617,105.944 129,106.5C 129.499,111.823 129.666,117.156 129.5,122.5C 128.747,116.968 128.08,111.301 127.5,105.5 Z"/></g>
<g><path style="opacity:1" fill="#d2d7d7" d="M 132.5,106.5 C 133.49,112.31 133.823,118.31 133.5,124.5C 131.517,124.843 130.183,124.176 129.5,122.5C 130.5,122.5 131.5,122.5 132.5,122.5C 132.5,117.167 132.5,111.833 132.5,106.5 Z"/></g>
<g><path style="opacity:1" fill="#e9ebeb" d="M 228.5,105.5 C 229.117,105.611 229.617,105.944 230,106.5C 230.499,111.823 230.666,117.156 230.5,122.5C 231.5,122.5 232.5,122.5 233.5,122.5C 233.833,122.5 234.167,122.5 234.5,122.5C 233.545,124.71 232.045,125.043 230,123.5C 229.748,117.452 229.248,111.452 228.5,105.5 Z"/></g>
<g><path style="opacity:1" fill="#c6cbcb" d="M 431.5,105.5 C 432.222,105.918 432.722,106.584 433,107.5C 433.171,112.533 433.671,117.533 434.5,122.5C 435.167,117.349 435.834,112.349 436.5,107.5C 436.5,112.5 436.5,117.5 436.5,122.5C 435.817,124.176 434.483,124.843 432.5,124.5C 432.653,118.131 432.32,111.797 431.5,105.5 Z"/></g>
<g><path style="opacity:1" fill="#e7e9e9" d="M 444.5,105.5 C 441.956,105.104 439.789,105.771 438,107.5C 437.826,112.684 437.326,117.684 436.5,122.5C 436.5,117.5 436.5,112.5 436.5,107.5C 438.615,104.483 441.282,103.816 444.5,105.5 Z"/></g>
<g><path style="opacity:1" fill="#adb5b5" d="M 447.5,103.5 C 448.458,103.953 449.292,104.619 450,105.5C 450.499,111.157 450.666,116.824 450.5,122.5C 449.167,122.5 447.833,122.5 446.5,122.5C 446.5,117.5 446.5,112.5 446.5,107.5C 447.117,107.611 447.617,107.944 448,108.5C 448.333,112.833 448.667,117.167 449,121.5C 450.019,115.26 449.519,109.26 447.5,103.5 Z"/></g>
<g><path style="opacity:1" fill="#bbc1c1" d="M 522.5,102.5 C 520.541,108.75 519.874,115.416 520.5,122.5C 519.509,115.687 519.175,108.687 519.5,101.5C 520.791,101.263 521.791,101.596 522.5,102.5 Z"/></g>
<g><path style="opacity:1" fill="#c9cecf" d="M 534.5,106.5 C 534.856,112.077 535.856,117.41 537.5,122.5C 537.833,122.5 538.167,122.5 538.5,122.5C 537.817,124.176 536.483,124.843 534.5,124.5C 534.5,118.5 534.5,112.5 534.5,106.5 Z"/></g>
<g><path style="opacity:1" fill="#afb7b7" d="M 535.5,103.5 C 536.15,103.804 536.817,104.137 537.5,104.5C 538.496,110.463 538.829,116.463 538.5,122.5C 538.167,122.5 537.833,122.5 537.5,122.5C 538.031,115.922 537.365,109.588 535.5,103.5 Z"/></g>
<g><path style="opacity:1" fill="#c5cbcb" d="M 118.5,106.5 C 117.725,111.797 117.392,117.13 117.5,122.5C 117.167,122.5 116.833,122.5 116.5,122.5C 116.334,118.154 116.501,113.821 117,109.5C 117.232,108.263 117.732,107.263 118.5,106.5 Z"/></g>
<g><path style="opacity:1" fill="#cbd0d0" d="M 193.5,107.5 C 193.5,110.833 193.5,114.167 193.5,117.5C 190.954,114.132 190.954,110.799 193.5,107.5 Z"/></g>
<g><path style="opacity:1" fill="#cbd0d0" d="M 231.5,103.5 C 232.15,103.804 232.817,104.137 233.5,104.5C 234.496,110.463 234.829,116.463 234.5,122.5C 234.167,122.5 233.833,122.5 233.5,122.5C 234.031,115.922 233.365,109.588 231.5,103.5 Z"/></g>
<g><path style="opacity:1" fill="#9fa9a9" d="M 397.5,101.5 C 401.412,102.744 403.412,105.411 403.5,109.5C 403.658,112.902 403.324,116.236 402.5,119.5C 400.77,120.026 399.436,121.026 398.5,122.5C 395.167,122.5 391.833,122.5 388.5,122.5C 386.413,121.415 385.08,119.749 384.5,117.5C 382.277,106.73 386.611,101.396 397.5,101.5 Z"/></g>
<g><path style="opacity:1" fill="#fcfcfc" d="M 399.5,108.5 C 399.492,111.545 399.159,114.545 398.5,117.5C 398.389,118.117 398.056,118.617 397.5,119C 395.19,119.497 392.857,119.663 390.5,119.5C 389.167,118.833 388.167,117.833 387.5,116.5C 386.701,105.925 390.701,103.258 399.5,108.5 Z"/></g>
<g><path style="opacity:1" fill="#dee1e1" d="M 399.5,108.5 C 390.701,103.258 386.701,105.925 387.5,116.5C 384.499,107.329 387.832,103.495 397.5,105C 398.823,105.816 399.489,106.983 399.5,108.5 Z"/></g>
<g><path style="opacity:1" fill="#bac1c1" d="M 458.5,104.5 C 457.131,106.732 456.131,109.066 455.5,111.5C 455.338,109.473 455.505,107.473 456,105.5C 456.671,104.748 457.504,104.414 458.5,104.5 Z"/></g>
<g><path style="opacity:1" fill="#9ea7a7" d="M 533.5,101.5 C 533.833,102.5 534.5,103.167 535.5,103.5C 537.365,109.588 538.031,115.922 537.5,122.5C 535.856,117.41 534.856,112.077 534.5,106.5C 534.389,105.883 534.056,105.383 533.5,105C 530.633,104.199 527.966,104.366 525.5,105.5C 524.504,105.414 523.671,105.748 523,106.5C 522.501,111.823 522.334,117.156 522.5,122.5C 521.833,122.5 521.167,122.5 520.5,122.5C 519.874,115.416 520.541,108.75 522.5,102.5C 522.735,103.097 523.235,103.43 524,103.5C 526.935,101.808 530.102,101.142 533.5,101.5 Z"/></g>
<g><path style="opacity:1" fill="#c7cccc" d="M 558.5,105.5 C 559.458,105.953 560.292,106.619 561,107.5C 561.805,110.696 561.638,113.696 560.5,116.5C 560.887,112.556 560.22,108.889 558.5,105.5 Z"/></g>
<g><path style="opacity:1" fill="#c0c6c6" d="M 75.5,104.5 C 73.9652,108.804 73.6319,113.137 74.5,117.5C 73.8826,117.389 73.3826,117.056 73,116.5C 72.3333,113.167 72.3333,109.833 73,106.5C 73.7083,105.619 74.5416,104.953 75.5,104.5 Z"/></g>
<g><path style="opacity:1" fill="#a0a9a9" d="M 88.5,101.5 C 90.1423,102.803 91.8089,104.136 93.5,105.5C 94.6567,108.307 94.6567,110.974 93.5,113.5C 87.8333,113.5 82.1667,113.5 76.5,113.5C 76.2627,114.791 76.596,115.791 77.5,116.5C 80.5008,120.881 84.1675,121.548 88.5,118.5C 90.456,116.825 91.7893,117.158 92.5,119.5C 91.7377,121.262 90.4044,122.262 88.5,122.5C 85.5,122.5 82.5,122.5 79.5,122.5C 76.856,121.856 75.1894,120.189 74.5,117.5C 73.6319,113.137 73.9652,108.804 75.5,104.5C 75.8333,104.5 76.1667,104.5 76.5,104.5C 79.9275,101.769 83.9275,100.769 88.5,101.5 Z"/></g>
<g><path style="opacity:1" fill="#c5cbcb" d="M 77.5,107.5 C 77.5,108.5 77.5,109.5 77.5,110.5C 81.5,110.5 85.5,110.5 89.5,110.5C 89.5,109.5 89.5,108.5 89.5,107.5C 90.4345,108.568 90.7678,109.901 90.5,111.5C 85.8333,111.5 81.1667,111.5 76.5,111.5C 76.2322,109.901 76.5655,108.568 77.5,107.5 Z"/></g>
<g><path style="opacity:1" fill="#f5f6f6" d="M 89.5,107.5 C 89.5,108.5 89.5,109.5 89.5,110.5C 85.5,110.5 81.5,110.5 77.5,110.5C 77.5,109.5 77.5,108.5 77.5,107.5C 78.512,105.124 80.3454,104.124 83,104.5C 85.8021,104.32 87.9687,105.32 89.5,107.5 Z"/></g>
<g><path style="opacity:1" fill="#d2d6d6" d="M 221.5,105.5 C 221.217,106.289 220.717,106.956 220,107.5C 219.667,112.5 219.333,117.5 219,122.5C 217.624,125.125 216.458,125.125 215.5,122.5C 217.16,117.528 218.327,112.194 219,106.5C 219.671,105.748 220.504,105.414 221.5,105.5 Z"/></g>
<g><path style="opacity:1" fill="#dfe2e2" d="M 246.5,105.5 C 244.296,109.286 243.962,113.286 245.5,117.5C 244.223,116.306 243.556,114.64 243.5,112.5C 243.012,109.389 244.012,107.056 246.5,105.5 Z"/></g>
<g><path style="opacity:1" fill="#dee1e1" d="M 399.5,108.5 C 400.338,108.842 400.672,109.508 400.5,110.5C 400.662,112.527 400.495,114.527 400,116.5C 399.617,117.056 399.117,117.389 398.5,117.5C 399.159,114.545 399.492,111.545 399.5,108.5 Z"/></g>
<g><path style="opacity:1" fill="#d2d6d6" d="M 424.5,105.5 C 424.217,106.289 423.717,106.956 423,107.5C 422.826,112.684 422.326,117.684 421.5,122.5C 421.334,117.156 421.501,111.823 422,106.5C 422.671,105.748 423.504,105.414 424.5,105.5 Z"/></g>
<g><path style="opacity:1" fill="#e0e3e3" d="M 463.5,104.5 C 462.878,105.627 462.045,106.627 461,107.5C 458.158,115.81 460.992,119.477 469.5,118.5C 468.666,119.748 467.333,120.415 465.5,120.5C 459.48,118.806 457.314,114.806 459,108.5C 459.748,106.249 461.248,104.916 463.5,104.5 Z"/></g>
<g><path style="opacity:1" fill="#d9dcdc" d="M 470.5,105.5 C 471.79,106.058 472.623,107.058 473,108.5C 473.801,111.367 473.634,114.034 472.5,116.5C 472.758,112.633 472.092,108.966 470.5,105.5 Z"/></g>
<g><path style="opacity:1" fill="#9ea7a7" d="M 488.5,101.5 C 492.115,101.155 495.448,101.822 498.5,103.5C 499.338,103.158 499.672,102.492 499.5,101.5C 500.5,101.5 501.5,101.5 502.5,101.5C 502.5,110.167 502.5,118.833 502.5,127.5C 501.167,128.167 500.167,129.167 499.5,130.5C 495.167,131.833 490.833,131.833 486.5,130.5C 485.859,129.518 485.193,128.518 484.5,127.5C 484.957,126.702 485.624,126.369 486.5,126.5C 487.874,128.959 490.04,129.959 493,129.5C 494.5,129.333 496,129.167 497.5,129C 498.252,128.329 498.586,127.496 498.5,126.5C 499.338,126.158 499.672,125.492 499.5,124.5C 499.916,119.543 499.916,114.543 499.5,109.5C 499.262,107.596 498.262,106.262 496.5,105.5C 493.927,104.445 491.261,104.278 488.5,105C 487.244,105.417 486.577,106.25 486.5,107.5C 485.883,107.611 485.383,107.944 485,108.5C 484.821,111.553 484.321,114.553 483.5,117.5C 482.511,113.893 482.177,110.226 482.5,106.5C 483.573,103.764 485.573,102.097 488.5,101.5 Z"/></g>
<g><path style="opacity:1" fill="#d9dddd" d="M 496.5,105.5 C 498.262,106.262 499.262,107.596 499.5,109.5C 499.5,110.167 499.5,110.833 499.5,111.5C 497.992,109.819 496.992,107.819 496.5,105.5 Z"/></g>
<g><path style="opacity:1" fill="#d0d5d5" d="M 525.5,105.5 C 525.217,106.289 524.717,106.956 524,107.5C 523.826,112.684 523.326,117.684 522.5,122.5C 522.334,117.156 522.501,111.823 523,106.5C 523.671,105.748 524.504,105.414 525.5,105.5 Z"/></g>
<g><path style="opacity:1" fill="#ccd1d1" d="M 547.5,103.5 C 544.6,106.529 543.266,110.196 543.5,114.5C 542.366,112.034 542.199,109.367 543,106.5C 544.129,104.859 545.629,103.859 547.5,103.5 Z"/></g>
<g><path style="opacity:1" fill="#d6dada" d="M 204.5,106.5 C 206.715,107.924 207.715,110.091 207.5,113C 207.876,115.655 206.876,117.488 204.5,118.5C 205.766,114.468 205.766,110.468 204.5,106.5 Z"/></g>
<g><path style="opacity:1" fill="#d7dada" d="M 557.5,105.5 C 549.833,104.5 546.5,107.833 547.5,115.5C 545.167,106.5 548.5,103.167 557.5,105.5 Z"/></g>
<g><path style="opacity:1" fill="#cdd2d2" d="M 93.5,113.5 C 87.923,113.856 82.5896,114.856 77.5,116.5C 76.596,115.791 76.2627,114.791 76.5,113.5C 82.1667,113.5 87.8333,113.5 93.5,113.5 Z"/></g>
<g><path style="opacity:1" fill="#a0a9a9" d="M 153.5,101.5 C 153.833,102.5 154.5,103.167 155.5,103.5C 155.56,104.043 155.893,104.376 156.5,104.5C 157.167,103.833 157.833,103.167 158.5,102.5C 159.497,109.134 159.83,115.8 159.5,122.5C 154.938,122.106 150.271,122.106 145.5,122.5C 144.005,122.011 142.671,121.345 141.5,120.5C 138.833,115.167 138.833,109.833 141.5,104.5C 142.058,103.21 143.058,102.377 144.5,102C 147.482,101.502 150.482,101.335 153.5,101.5 Z"/></g>
<g><path style="opacity:1" fill="#dde1e1" d="M 145.5,105.5 C 155.189,103.371 158.689,107.371 156,117.5C 155.617,118.056 155.117,118.389 154.5,118.5C 158.036,109.393 155.036,105.059 145.5,105.5 Z"/></g>
<g><path style="opacity:1" fill="#e4e7e7" d="M 145.5,105.5 C 143.583,109.402 143.249,113.402 144.5,117.5C 143.223,116.306 142.556,114.64 142.5,112.5C 142.012,109.389 143.012,107.056 145.5,105.5 Z"/></g>
<g><path style="opacity:1" fill="#fafafa" d="M 145.5,105.5 C 155.036,105.059 158.036,109.393 154.5,118.5C 151.795,120.581 148.795,120.915 145.5,119.5C 145.137,118.817 144.804,118.15 144.5,117.5C 143.249,113.402 143.583,109.402 145.5,105.5 Z"/></g>
<g><path style="opacity:1" fill="#cbd0d0" d="M 337.5,113.5 C 331.923,113.856 326.59,114.856 321.5,116.5C 320.596,115.791 320.263,114.791 320.5,113.5C 326.167,113.5 331.833,113.5 337.5,113.5 Z"/></g>
<g><path style="opacity:1" fill="#f0f2f2" d="M 93.5,105.5 C 94.1174,105.611 94.6174,105.944 95,106.5C 95.963,110.149 95.463,113.482 93.5,116.5C 91.2188,116.077 89.5521,116.744 88.5,118.5C 84.1675,121.548 80.5008,120.881 77.5,116.5C 82.5896,114.856 87.923,113.856 93.5,113.5C 94.6567,110.974 94.6567,108.307 93.5,105.5 Z"/></g>
<g><path style="opacity:1" fill="#9fa8a9" d="M 292.5,95.5 C 295.405,97.756 297.072,100.756 297.5,104.5C 298.675,104.281 299.675,104.614 300.5,105.5C 302.624,108.279 304.291,111.279 305.5,114.5C 306.145,115.812 307.145,116.812 308.5,117.5C 309.497,110.197 309.831,102.863 309.5,95.5C 311.471,104.105 312.138,113.105 311.5,122.5C 309.315,122.296 307.315,121.63 305.5,120.5C 305.5,120.167 305.5,119.833 305.5,119.5C 304.92,117.251 303.587,115.585 301.5,114.5C 299.608,110.827 297.275,107.494 294.5,104.5C 294.672,103.508 294.338,102.842 293.5,102.5C 293.179,100.952 292.179,100.285 290.5,100.5C 290.5,107.833 290.5,115.167 290.5,122.5C 289.833,122.5 289.167,122.5 288.5,122.5C 288.5,113.5 288.5,104.5 288.5,95.5C 289.833,95.5 291.167,95.5 292.5,95.5 Z"/></g>
<g><path style="opacity:1" fill="#e3e6e6" d="M 294.5,104.5 C 297.275,107.494 299.608,110.827 301.5,114.5C 297.763,112.137 295.43,108.803 294.5,104.5 Z"/></g>
<g><path style="opacity:1" fill="#bfc5c5" d="M 293.5,102.5 C 292.883,102.389 292.383,102.056 292,101.5C 291.5,108.492 291.334,115.492 291.5,122.5C 291.167,122.5 290.833,122.5 290.5,122.5C 290.5,115.167 290.5,107.833 290.5,100.5C 292.179,100.285 293.179,100.952 293.5,102.5 Z"/></g>
<g><path style="opacity:1" fill="#dadede" d="M 301.5,114.5 C 303.587,115.585 304.92,117.251 305.5,119.5C 303.413,118.415 302.08,116.749 301.5,114.5 Z"/></g>
<g><path style="opacity:1" fill="#a5aeae" d="M 374.5,103.5 C 375.695,103.322 376.862,102.989 378,102.5C 379.03,102.836 379.53,103.503 379.5,104.5C 376.358,104.799 374.191,106.466 373,109.5C 372.501,113.821 372.334,118.154 372.5,122.5C 371.167,122.5 369.833,122.5 368.5,122.5C 368.5,115.5 368.5,108.5 368.5,101.5C 370.685,101.704 372.685,102.37 374.5,103.5 Z"/></g>
<g><path style="opacity:1" fill="#ced2d2" d="M 93.5,116.5 C 93.7373,117.791 93.404,118.791 92.5,119.5C 91.7893,117.158 90.456,116.825 88.5,118.5C 89.5521,116.744 91.2188,116.077 93.5,116.5 Z"/></g>
<g><path style="opacity:1" fill="#ced3d3" d="M 141.5,104.5 C 138.833,109.833 138.833,115.167 141.5,120.5C 138.749,118.451 137.416,115.618 137.5,112C 137.25,108.536 138.583,106.036 141.5,104.5 Z"/></g>
<g><path style="opacity:1" fill="#e5e8e8" d="M 194.5,117.5 C 197.43,118.299 200.43,118.632 203.5,118.5C 202.508,120.026 201.008,120.693 199,120.5C 196.744,120.453 195.244,119.453 194.5,117.5 Z"/></g>
<g><path style="opacity:1" fill="#e4e6e6" d="M 245.5,117.5 C 248.43,118.299 251.43,118.632 254.5,118.5C 253.508,120.026 252.008,120.693 250,120.5C 247.744,120.453 246.244,119.453 245.5,117.5 Z"/></g>
<g><path style="opacity:1" fill="#bdc4c4" d="M 400.5,110.5 C 402.321,119.008 398.988,122.008 390.5,119.5C 392.857,119.663 395.19,119.497 397.5,119C 398.056,118.617 398.389,118.117 398.5,117.5C 399.117,117.389 399.617,117.056 400,116.5C 400.495,114.527 400.662,112.527 400.5,110.5 Z"/></g>
<g><path style="opacity:1" fill="#ced3d3" d="M 403.5,109.5 C 404.638,112.304 404.805,115.304 404,118.5C 403.617,119.056 403.117,119.389 402.5,119.5C 403.324,116.236 403.658,112.902 403.5,109.5 Z"/></g>
<g><path style="opacity:1" fill="#adb5b5" d="M 482.5,106.5 C 482.177,110.226 482.511,113.893 483.5,117.5C 484.321,114.553 484.821,111.553 485,108.5C 485.383,107.944 485.883,107.611 486.5,107.5C 484.621,111.865 485.288,115.698 488.5,119C 495.044,120.613 498.711,118.113 499.5,111.5C 499.5,110.833 499.5,110.167 499.5,109.5C 499.916,114.543 499.916,119.543 499.5,124.5C 499.821,121.12 498.821,120.287 496.5,122C 493.518,122.498 490.518,122.665 487.5,122.5C 485.825,120.998 483.992,119.665 482,118.5C 481.188,114.311 481.355,110.311 482.5,106.5 Z"/></g>
<g><path style="opacity:1" fill="#d0d5d5" d="M 240.5,117.5 C 241.906,117.973 242.573,118.973 242.5,120.5C 241.094,120.027 240.427,119.027 240.5,117.5 Z"/></g>
<g><path style="opacity:1" fill="#cacfd0" d="M 336.5,119.5 C 336.631,118.624 336.298,117.957 335.5,117.5C 332.03,120.394 328.03,121.227 323.5,120C 322.944,119.617 322.611,119.117 322.5,118.5C 324.288,118.971 326.122,119.304 328,119.5C 331.085,118.251 334.251,117.251 337.5,116.5C 337.737,117.791 337.404,118.791 336.5,119.5 Z"/></g>
<g><path style="opacity:1" fill="#b7bebe" d="M 560.5,116.5 C 561.551,119.656 561.551,122.656 560.5,125.5C 560.843,123.517 560.176,122.183 558.5,121.5C 556.031,120.683 553.365,120.183 550.5,120C 549.619,119.292 548.953,118.458 548.5,117.5C 552.806,120.447 556.806,120.114 560.5,116.5 Z"/></g>
<g><path style="opacity:1" fill="#a0a9aa" d="M 347.5,116.5 C 347.833,117.167 348.167,117.833 348.5,118.5C 349.492,120.026 350.992,120.693 353,120.5C 355.655,120.876 357.488,119.876 358.5,117.5C 358.5,117.167 358.5,116.833 358.5,116.5C 359.486,112.03 359.819,107.363 359.5,102.5C 360.5,102.5 361.5,102.5 362.5,102.5C 362.5,109.167 362.5,115.833 362.5,122.5C 360.309,121.709 358.309,121.709 356.5,122.5C 353.833,122.5 351.167,122.5 348.5,122.5C 348.167,122.5 347.833,122.5 347.5,122.5C 345.879,120.853 344.713,118.853 344,116.5C 343.501,111.511 343.334,106.511 343.5,101.5C 344.5,101.5 345.5,101.5 346.5,101.5C 346.179,106.695 346.513,111.695 347.5,116.5 Z"/></g>
<g><path style="opacity:1" fill="#cfd4d4" d="M 358.5,117.5 C 357.488,119.876 355.655,120.876 353,120.5C 350.992,120.693 349.492,120.026 348.5,118.5C 352.056,119.985 355.389,119.652 358.5,117.5 Z"/></g>
<g><path style="opacity:1" fill="#9fa9a9" d="M 324.5,101.5 C 328.849,101.254 332.849,102.254 336.5,104.5C 338.313,107.496 338.646,110.496 337.5,113.5C 331.833,113.5 326.167,113.5 320.5,113.5C 320.263,114.791 320.596,115.791 321.5,116.5C 321.833,117.167 322.167,117.833 322.5,118.5C 322.611,119.117 322.944,119.617 323.5,120C 328.03,121.227 332.03,120.394 335.5,117.5C 336.298,117.957 336.631,118.624 336.5,119.5C 335.341,121.25 333.674,122.25 331.5,122.5C 328.833,122.5 326.167,122.5 323.5,122.5C 319.192,120.226 317.192,116.56 317.5,111.5C 316.899,106.015 319.233,102.682 324.5,101.5 Z"/></g>
<g><path style="opacity:1" fill="#bfc6c6" d="M 322.5,106.5 C 322.461,107.583 322.127,108.583 321.5,109.5C 325.783,110.492 330.116,110.826 334.5,110.5C 334.5,109.5 334.5,108.5 334.5,107.5C 335.434,108.568 335.768,109.901 335.5,111.5C 330.5,111.5 325.5,111.5 320.5,111.5C 320.12,109.302 320.787,107.635 322.5,106.5 Z"/></g>
<g><path style="opacity:1" fill="#f4f5f5" d="M 334.5,107.5 C 334.5,108.5 334.5,109.5 334.5,110.5C 330.116,110.826 325.783,110.492 321.5,109.5C 322.127,108.583 322.461,107.583 322.5,106.5C 326.724,103.625 330.724,103.959 334.5,107.5 Z"/></g>
<g><path style="opacity:1" fill="#d1d5d5" d="M 402.5,119.5 C 401.965,121.446 400.632,122.446 398.5,122.5C 399.436,121.026 400.77,120.026 402.5,119.5 Z"/></g>
<g><path style="opacity:1" fill="#dadddd" d="M 305.5,120.5 C 307.315,121.63 309.315,122.296 311.5,122.5C 311.833,122.5 312.167,122.5 312.5,122.5C 309.6,125.191 307.267,124.524 305.5,120.5 Z"/></g>
<g><path style="opacity:1" fill="#cad0d0" d="M 348.5,122.5 C 351.167,122.5 353.833,122.5 356.5,122.5C 355.848,123.725 354.681,124.392 353,124.5C 350.992,124.693 349.492,124.026 348.5,122.5 Z"/></g>
<g><path style="opacity:1" fill="#d0d5d5" d="M 48.5,105.5 C 49.4584,105.953 50.2917,106.619 51,107.5C 52.1641,127.489 52.9974,127.489 53.5,107.5C 54.4889,112.975 54.8222,118.642 54.5,124.5C 53.1667,124.5 51.8333,124.5 50.5,124.5C 50.9189,118.014 50.2523,111.681 48.5,105.5 Z"/></g>
<g><path style="opacity:1" fill="#c6cccc" d="M 79.5,122.5 C 82.5,122.5 85.5,122.5 88.5,122.5C 87.2233,123.898 85.5566,124.564 83.5,124.5C 81.6455,124.66 80.3121,123.993 79.5,122.5 Z"/></g>
<g><path style="opacity:1" fill="#d6dada" d="M 159.5,122.5 C 159.5,123.167 159.5,123.833 159.5,124.5C 156.323,123.323 153.157,123.323 150,124.5C 147.992,124.693 146.492,124.026 145.5,122.5C 150.271,122.106 154.938,122.106 159.5,122.5 Z"/></g>
<g><path style="opacity:1" fill="#cdd2d2" d="M 209.5,107.5 C 212.99,119.847 208.323,125.347 195.5,124C 194.944,123.617 194.611,123.117 194.5,122.5C 206.358,124.484 211.358,119.484 209.5,107.5 Z"/></g>
<g><path style="opacity:1" fill="#dee2e2" d="M 243.5,121.5 C 249.542,122.219 255.542,122.553 261.5,122.5C 261.38,123.586 260.713,124.253 259.5,124.5C 256.427,123.907 253.261,123.907 250,124.5C 248.167,124.167 246.333,123.833 244.5,123.5C 244.137,122.817 243.804,122.15 243.5,121.5 Z"/></g>
<g><path style="opacity:1" fill="#dee1e1" d="M 287.5,122.5 C 287.833,122.5 288.167,122.5 288.5,122.5C 289.167,122.5 289.833,122.5 290.5,122.5C 290.833,122.5 291.167,122.5 291.5,122.5C 291.38,123.586 290.713,124.253 289.5,124.5C 288.287,124.253 287.62,123.586 287.5,122.5 Z"/></g>
<g><path style="opacity:1" fill="#c4caca" d="M 323.5,122.5 C 326.167,122.5 328.833,122.5 331.5,122.5C 328.757,125.059 326.09,125.059 323.5,122.5 Z"/></g>
<g><path style="opacity:1" fill="#cdd2d2" d="M 388.5,122.5 C 391.833,122.5 395.167,122.5 398.5,122.5C 397.306,123.777 395.64,124.444 393.5,124.5C 391.36,124.444 389.694,123.777 388.5,122.5 Z"/></g>
<g><path style="opacity:1" fill="#dde0e0" d="M 446.5,122.5 C 447.833,122.5 449.167,122.5 450.5,122.5C 450.38,123.586 449.713,124.253 448.5,124.5C 447.287,124.253 446.62,123.586 446.5,122.5 Z"/></g>
<g><path style="opacity:1" fill="#cad0d0" d="M 460.5,122.5 C 463.5,122.5 466.5,122.5 469.5,122.5C 469.389,123.117 469.056,123.617 468.5,124C 467.167,124.167 465.833,124.333 464.5,124.5C 462.667,124.415 461.334,123.748 460.5,122.5 Z"/></g>
<g><path style="opacity:1" fill="#dee2e2" d="M 471.5,122.5 C 472.935,121.904 474.602,121.904 476.5,122.5C 476.38,123.586 475.713,124.253 474.5,124.5C 473.261,124.058 472.261,123.391 471.5,122.5 Z"/></g>
<g><path style="opacity:1" fill="#e0e3e3" d="M 499.5,124.5 C 499.672,125.492 499.338,126.158 498.5,126.5C 498.167,126.5 497.833,126.5 497.5,126.5C 494.33,124.998 490.997,123.664 487.5,122.5C 490.518,122.665 493.518,122.498 496.5,122C 498.821,120.287 499.821,121.12 499.5,124.5 Z"/></g>
<g><path style="opacity:1" fill="#f1f2f2" d="M 558.5,121.5 C 560.176,122.183 560.843,123.517 560.5,125.5C 560.5,125.833 560.5,126.167 560.5,126.5C 556.813,128.343 552.813,129.01 548.5,128.5C 548.5,127.5 548.5,126.5 548.5,125.5C 547.167,125.5 545.833,125.5 544.5,125.5C 544.5,126.5 544.5,127.5 544.5,128.5C 543.566,127.432 543.232,126.099 543.5,124.5C 545.781,124.923 547.448,124.256 548.5,122.5C 551.939,122.747 555.272,122.414 558.5,121.5 Z"/></g>
<g><path style="opacity:1" fill="#bbc1c1" d="M 486.5,126.5 C 485.624,126.369 484.957,126.702 484.5,127.5C 485.193,128.518 485.859,129.518 486.5,130.5C 483.703,130.033 482.369,128.367 482.5,125.5C 484.099,125.232 485.432,125.566 486.5,126.5 Z"/></g>
<g><path style="opacity:1" fill="#c6cccc" d="M 486.5,126.5 C 488.392,127.851 490.558,128.518 493,128.5C 495.008,128.693 496.508,128.026 497.5,126.5C 497.833,126.5 498.167,126.5 498.5,126.5C 498.586,127.496 498.252,128.329 497.5,129C 496,129.167 494.5,129.333 493,129.5C 490.04,129.959 487.874,128.959 486.5,126.5 Z"/></g>
<g><path style="opacity:1" fill="#aab2b3" d="M 560.5,126.5 C 560.586,127.496 560.252,128.329 559.5,129C 551.061,129.364 550.728,130.197 558.5,131.5C 553.368,133.266 548.701,132.266 544.5,128.5C 544.5,127.5 544.5,126.5 544.5,125.5C 545.833,125.5 547.167,125.5 548.5,125.5C 548.5,126.5 548.5,127.5 548.5,128.5C 552.813,129.01 556.813,128.343 560.5,126.5 Z"/></g>
<g><path style="opacity:1" fill="#c6cbcb" d="M 486.5,130.5 C 490.833,131.833 495.167,131.833 499.5,130.5C 499.389,131.117 499.056,131.617 498.5,132C 494.833,132.667 491.167,132.667 487.5,132C 486.944,131.617 486.611,131.117 486.5,130.5 Z"/></g>
<g><path style="opacity:1" fill="#e6e9e9" d="M 91.5,152.5 C 89.8333,152.5 88.1667,152.5 86.5,152.5C 86.5,150.167 86.5,147.833 86.5,145.5C 85.5,145.5 84.5,145.5 83.5,145.5C 83.5,147.833 83.5,150.167 83.5,152.5C 81.8333,152.5 80.1667,152.5 78.5,152.5C 79.5676,151.566 80.901,151.232 82.5,151.5C 82.3367,149.143 82.5034,146.81 83,144.5C 84.3561,143.62 85.8561,143.286 87.5,143.5C 87.5,146.167 87.5,148.833 87.5,151.5C 89.099,151.232 90.4324,151.566 91.5,152.5 Z"/></g>
<g><path style="opacity:1" fill="#dfe2e2" d="M 156.5,147.5 C 149.835,144.013 144.002,145.013 139,150.5C 138.505,152.473 138.338,154.473 138.5,156.5C 136.428,151.673 137.762,147.84 142.5,145C 146.5,144.333 150.5,144.333 154.5,145C 155.381,145.708 156.047,146.542 156.5,147.5 Z"/></g>
<g><path style="opacity:1" fill="#e6e8e8" d="M 164.5,144.5 C 166.265,143.539 168.265,143.205 170.5,143.5C 170.5,146.167 170.5,148.833 170.5,151.5C 173.713,151.19 176.713,151.523 179.5,152.5C 176.615,152.194 173.948,152.527 171.5,153.5C 170.504,153.414 169.671,153.748 169,154.5C 168.502,151.183 168.335,147.85 168.5,144.5C 167.167,144.5 165.833,144.5 164.5,144.5 Z"/></g>
<g><path style="opacity:1" fill="#c6cccc" d="M 25.5,146.5 C 29.97,145.514 34.6367,145.181 39.5,145.5C 41.0269,145.427 42.0269,146.094 42.5,147.5C 36.8936,146.593 31.227,146.26 25.5,146.5 Z"/></g>
<g><path style="opacity:1" fill="#bec5c5" d="M 164.5,144.5 C 165.833,144.5 167.167,144.5 168.5,144.5C 168.335,147.85 168.502,151.183 169,154.5C 169.671,153.748 170.504,153.414 171.5,153.5C 170.713,155.104 169.38,155.771 167.5,155.5C 167.82,152.102 167.487,148.768 166.5,145.5C 165.502,155.144 165.168,164.81 165.5,174.5C 164.506,164.681 164.173,154.681 164.5,144.5 Z"/></g>
<g><path style="opacity:1" fill="#edefef" d="M 308.5,145.5 C 307.209,145.263 306.209,145.596 305.5,146.5C 304.506,155.652 304.173,164.985 304.5,174.5C 303.342,165.009 303.175,155.342 304,145.5C 305.616,144.199 307.116,144.199 308.5,145.5 Z"/></g>
<g><path style="opacity:1" fill="#b3baba" d="M 339.5,145.5 C 340.833,145.5 342.167,145.5 343.5,145.5C 343.5,146.833 343.5,148.167 343.5,149.5C 343.5,148.167 343.5,146.833 343.5,145.5C 342.167,145.5 340.833,145.5 339.5,145.5 Z"/></g>
<g><path style="opacity:1" fill="#dbdfdf" d="M 339.5,145.5 C 340.919,144.549 342.585,144.216 344.5,144.5C 344.784,146.415 344.451,148.081 343.5,149.5C 343.5,148.167 343.5,146.833 343.5,145.5C 342.167,145.5 340.833,145.5 339.5,145.5 Z"/></g>
<g><path style="opacity:1" fill="#95a0a0" d="M 355.5,152.5 C 360.907,154.326 360.574,155.326 354.5,155.5C 354.5,161.833 354.5,168.167 354.5,174.5C 354.167,174.5 353.833,174.5 353.5,174.5C 353.5,168.167 353.5,161.833 353.5,155.5C 351.833,155.5 350.167,155.5 348.5,155.5C 348.5,154.5 348.5,153.5 348.5,152.5C 349.833,152.5 351.167,152.5 352.5,152.5C 353.309,150.708 353.809,148.708 354,146.5C 354.191,148.708 354.691,150.708 355.5,152.5 Z"/></g>
<g><path style="opacity:1" fill="#b9c0c0" d="M 364.5,145.5 C 365.833,145.5 367.167,145.5 368.5,145.5C 368.5,146.833 368.5,148.167 368.5,149.5C 367.167,149.5 365.833,149.5 364.5,149.5C 364.5,148.167 364.5,146.833 364.5,145.5 Z"/></g>
<g><path style="opacity:1" fill="#adb5b5" d="M 415.5,145.5 C 416.833,145.5 418.167,145.5 419.5,145.5C 419.5,146.833 419.5,148.167 419.5,149.5C 418.167,149.5 416.833,149.5 415.5,149.5C 415.5,148.167 415.5,146.833 415.5,145.5 Z"/></g>
<g><path style="opacity:1" fill="#e4e6e6" d="M 39.5,145.5 C 34.6367,145.181 29.97,145.514 25.5,146.5C 25.5,155.833 25.5,165.167 25.5,174.5C 29.8333,174.5 34.1667,174.5 38.5,174.5C 36.6028,175.805 34.2695,176.471 31.5,176.5C 28.9105,176.473 26.4105,176.139 24,175.5C 23.3333,165.5 23.3333,155.5 24,145.5C 29.266,144.176 34.4327,144.176 39.5,145.5 Z"/></g>
<g><path style="opacity:1" fill="#aeb6b6" d="M 355.5,145.5 C 355.5,147.833 355.5,150.167 355.5,152.5C 354.691,150.708 354.191,148.708 354,146.5C 353.809,148.708 353.309,150.708 352.5,152.5C 352.5,149.833 352.5,147.167 352.5,144.5C 353.791,144.263 354.791,144.596 355.5,145.5 Z"/></g>
<g><path style="opacity:1" fill="#dcdfdf" d="M 411.5,152.5 C 409.833,152.5 408.167,152.5 406.5,152.5C 406.808,150.076 406.474,147.743 405.5,145.5C 404.914,145.709 404.414,146.043 404,146.5C 403.505,148.473 403.338,150.473 403.5,152.5C 402.167,152.5 400.833,152.5 399.5,152.5C 399.167,152.5 398.833,152.5 398.5,152.5C 399.568,151.566 400.901,151.232 402.5,151.5C 402.5,149.167 402.5,146.833 402.5,144.5C 404.167,144.5 405.833,144.5 407.5,144.5C 407.5,146.833 407.5,149.167 407.5,151.5C 409.099,151.232 410.432,151.566 411.5,152.5 Z"/></g>
<g><path style="opacity:1" fill="#c7cdcd" d="M 233.5,145.5 C 234.568,144.566 235.901,144.232 237.5,144.5C 237.5,146.5 237.5,148.5 237.5,150.5C 235.833,150.5 234.167,150.5 232.5,150.5C 232.216,148.585 232.549,146.919 233.5,145.5 Z"/></g>
<g><path style="opacity:1" fill="#9ea8a8" d="M 233.5,145.5 C 234.5,145.5 235.5,145.5 236.5,145.5C 236.5,146.5 236.5,147.5 236.5,148.5C 235.5,148.5 234.5,148.5 233.5,148.5C 233.5,147.5 233.5,146.5 233.5,145.5 Z"/></g>
<g><path style="opacity:1" fill="#c1c7c7" d="M 308.5,145.5 C 308.5,155.5 308.5,165.5 308.5,175.5C 306.901,175.768 305.568,175.434 304.5,174.5C 304.173,164.985 304.506,155.652 305.5,146.5C 306.209,145.596 307.209,145.263 308.5,145.5 Z"/></g>
<g><path style="opacity:1" fill="#9aa4a4" d="M 305.5,146.5 C 306.827,150.783 307.493,155.449 307.5,160.5C 307.167,165.167 306.833,169.833 306.5,174.5C 305.502,165.19 305.168,155.857 305.5,146.5 Z"/></g>
<g><path style="opacity:1" fill="#dadddd" d="M 355.5,145.5 C 356.461,147.265 356.795,149.265 356.5,151.5C 358.099,151.232 359.432,151.566 360.5,152.5C 358.833,152.5 357.167,152.5 355.5,152.5C 355.5,150.167 355.5,147.833 355.5,145.5 Z"/></g>
<g><path style="opacity:1" fill="#a1aaab" d="M 86.5,152.5 C 91.9072,154.326 91.5739,155.326 85.5,155.5C 85.5,161.833 85.5,168.167 85.5,174.5C 83.5467,168.926 82.88,162.926 83.5,156.5C 80.0504,157.244 78.3838,155.91 78.5,152.5C 80.1667,152.5 81.8333,152.5 83.5,152.5C 83.5,150.167 83.5,147.833 83.5,145.5C 84.5,145.5 85.5,145.5 86.5,145.5C 86.5,147.833 86.5,150.167 86.5,152.5 Z"/></g>
<g><path style="opacity:1" fill="#c0c6c6" d="M 224.5,153.5 C 225.919,152.549 227.585,152.216 229.5,152.5C 229.843,154.483 229.176,155.817 227.5,156.5C 228.567,154.121 227.567,153.121 224.5,153.5 Z"/></g>
<g><path style="opacity:1" fill="#9ca6a6" d="M 411.5,152.5 C 411.5,153.5 411.5,154.5 411.5,155.5C 409.833,155.5 408.167,155.5 406.5,155.5C 406.5,161.833 406.5,168.167 406.5,174.5C 405.833,174.5 405.167,174.5 404.5,174.5C 404.5,168.167 404.5,161.833 404.5,155.5C 402.833,155.5 401.167,155.5 399.5,155.5C 399.5,154.5 399.5,153.5 399.5,152.5C 400.833,152.5 402.167,152.5 403.5,152.5C 403.338,150.473 403.505,148.473 404,146.5C 404.414,146.043 404.914,145.709 405.5,145.5C 406.474,147.743 406.808,150.076 406.5,152.5C 408.167,152.5 409.833,152.5 411.5,152.5 Z"/></g>
<g><path style="opacity:1" fill="#bac0c1" d="M 441.5,158.5 C 441.66,156.801 441.494,155.134 441,153.5C 440.292,154.381 439.458,155.047 438.5,155.5C 439.458,155.047 440.292,154.381 441,153.5C 441.494,155.134 441.66,156.801 441.5,158.5 Z"/></g>
<g><path style="opacity:1" fill="#a4adad" d="M 171.5,153.5 C 173.948,152.527 176.615,152.194 179.5,152.5C 180.167,154.5 181.5,155.833 183.5,156.5C 184.413,162.441 184.746,168.441 184.5,174.5C 183.167,174.5 181.833,174.5 180.5,174.5C 180.666,168.824 180.499,163.157 180,157.5C 176.064,154.686 172.397,155.019 169,158.5C 168.501,163.823 168.334,169.156 168.5,174.5C 167.5,174.5 166.5,174.5 165.5,174.5C 165.168,164.81 165.502,155.144 166.5,145.5C 167.487,148.768 167.82,152.102 167.5,155.5C 169.38,155.771 170.713,155.104 171.5,153.5 Z"/></g>
<g><path style="opacity:1" fill="#a3acac" d="M 204.5,153.5 C 206.203,155.861 207.87,155.861 209.5,153.5C 210.497,160.468 210.83,167.468 210.5,174.5C 209.265,174.279 208.265,173.612 207.5,172.5C 203.315,174.731 198.982,175.065 194.5,173.5C 189.078,168.779 188.078,163.112 191.5,156.5C 195.323,152.659 199.656,151.659 204.5,153.5 Z"/></g>
<g><path style="opacity:1" fill="#dfe2e2" d="M 233.5,152.5 C 233.5,159.833 233.5,167.167 233.5,174.5C 234.5,174.5 235.5,174.5 236.5,174.5C 236.5,167.167 236.5,159.833 236.5,152.5C 237.656,159.989 237.822,167.655 237,175.5C 235.333,176.833 233.667,176.833 232,175.5C 231.833,171.667 231.667,167.833 231.5,164C 231.51,159.771 232.177,155.938 233.5,152.5 Z"/></g>
<g><path style="opacity:1" fill="#9aa4a5" d="M 256.5,153.5 C 256.833,153.5 257.167,153.5 257.5,153.5C 257.5,154.833 258.167,155.5 259.5,155.5C 260.752,161.81 260.752,168.143 259.5,174.5C 258.833,169.015 258.167,163.681 257.5,158.5C 257.586,157.504 257.252,156.671 256.5,156C 247.189,154.845 247.189,154.012 256.5,153.5 Z"/></g>
<g><path style="opacity:1" fill="#cbd0d0" d="M 390.5,174.5 C 391.791,174.737 392.791,174.404 393.5,173.5C 393.83,166.8 393.497,160.134 392.5,153.5C 391.5,154.167 390.5,154.833 389.5,155.5C 388.702,155.043 388.369,154.376 388.5,153.5C 390.435,152.85 392.435,152.517 394.5,152.5C 394.5,160.167 394.5,167.833 394.5,175.5C 392.901,175.768 391.568,175.434 390.5,174.5 Z"/></g>
<g><path style="opacity:1" fill="#bdc3c4" d="M 415.5,152.5 C 416.833,152.5 418.167,152.5 419.5,152.5C 419.5,159.833 419.5,167.167 419.5,174.5C 418.167,174.5 416.833,174.5 415.5,174.5C 415.5,167.167 415.5,159.833 415.5,152.5 Z"/></g>
<g><path style="opacity:1" fill="#c8cdcd" d="M 427.5,155.5 C 426.533,154.194 425.199,153.527 423.5,153.5C 423.629,155.216 423.962,156.883 424.5,158.5C 422.72,157.01 422.054,155.01 422.5,152.5C 424.167,152.5 425.833,152.5 427.5,152.5C 427.5,153.5 427.5,154.5 427.5,155.5 Z"/></g>
<g><path style="opacity:1" fill="#9aa4a4" d="M 74.5,152.5 C 74.5,159.833 74.5,167.167 74.5,174.5C 73.5,174.5 72.5,174.5 71.5,174.5C 71.5,173.833 71.5,173.167 71.5,172.5C 71.4431,171.391 71.1098,170.391 70.5,169.5C 71.5905,166.015 71.5905,162.681 70.5,159.5C 70.5858,158.504 70.2524,157.671 69.5,157C 70.4158,156.722 71.0825,156.222 71.5,155.5C 71.5,154.5 71.5,153.5 71.5,152.5C 72.5,152.5 73.5,152.5 74.5,152.5 Z"/></g>
<g><path style="opacity:1" fill="#c9cfcf" d="M 74.5,152.5 C 75.492,159.982 75.8254,167.648 75.5,175.5C 73.901,175.768 72.5676,175.434 71.5,174.5C 72.5,174.5 73.5,174.5 74.5,174.5C 74.5,167.167 74.5,159.833 74.5,152.5 Z"/></g>
<g><path style="opacity:1" fill="#bcc3c3" d="M 211.5,174.5 C 211.167,174.5 210.833,174.5 210.5,174.5C 210.83,167.468 210.497,160.468 209.5,153.5C 207.87,155.861 206.203,155.861 204.5,153.5C 206.806,153.007 209.139,152.674 211.5,152.5C 211.5,159.833 211.5,167.167 211.5,174.5 Z"/></g>
<g><path style="opacity:1" fill="#dcdfdf" d="M 217.5,152.5 C 217.917,151.876 218.584,151.543 219.5,151.5C 220.867,152.225 222.2,152.892 223.5,153.5C 222.5,156.167 221.5,156.167 220.5,153.5C 219.791,152.596 218.791,152.263 217.5,152.5 Z"/></g>
<g><path style="opacity:1" fill="#acb4b4" d="M 233.5,152.5 C 234.5,152.5 235.5,152.5 236.5,152.5C 236.5,159.833 236.5,167.167 236.5,174.5C 235.5,174.5 234.5,174.5 233.5,174.5C 233.5,167.167 233.5,159.833 233.5,152.5 Z"/></g>
<g><path style="opacity:1" fill="#9ba5a5" d="M 246.5,158.5 C 246.5,158.833 246.5,159.167 246.5,159.5C 246.141,164.749 245.141,169.749 243.5,174.5C 243.17,167.468 243.503,160.468 244.5,153.5C 245.562,155.022 246.229,156.688 246.5,158.5 Z"/></g>
<g><path style="opacity:1" fill="#d2d7d7" d="M 257.5,153.5 C 258.833,153.5 259.5,154.167 259.5,155.5C 259.5,154.167 258.833,153.5 257.5,153.5 Z"/></g>
<g><path style="opacity:1" fill="#bec4c5" d="M 328.5,153.5 C 325.052,153.108 321.886,153.775 319,155.5C 318.05,154.978 317.216,154.311 316.5,153.5C 315.503,160.468 315.17,167.468 315.5,174.5C 314.508,167.352 314.175,160.019 314.5,152.5C 319.256,152.641 323.923,152.974 328.5,153.5 Z"/></g>
<g><path style="opacity:1" fill="#d2d7d7" d="M 367.5,174.5 C 366.458,175.791 365.292,175.791 364,174.5C 363.5,167.174 363.334,159.841 363.5,152.5C 365.167,152.5 366.833,152.5 368.5,152.5C 368.825,160.019 368.492,167.352 367.5,174.5 Z"/></g>
<g><path style="opacity:1" fill="#a1aaaa" d="M 367.5,174.5 C 366.179,171.402 365.512,167.902 365.5,164C 365.833,160.5 366.167,157 366.5,153.5C 367.497,160.468 367.83,167.468 367.5,174.5 Z"/></g>
<g><path style="opacity:1" fill="#a4adad" d="M 113.5,174.5 C 113.5,173.5 113.5,172.5 113.5,171.5C 111.821,171.715 110.821,171.048 110.5,169.5C 111.808,165.981 111.808,162.315 110.5,158.5C 109.482,157.807 108.482,157.141 107.5,156.5C 103.623,154.69 100.457,155.69 98,159.5C 97.2109,161.712 97.3775,163.712 98.5,165.5C 98.615,167.947 99.615,169.947 101.5,171.5C 103.631,172.314 105.964,172.814 108.5,173C 107.944,173.383 107.611,173.883 107.5,174.5C 102.233,175.525 98.2326,173.858 95.5,169.5C 94.6758,166.236 94.3424,162.902 94.5,159.5C 95.9477,157.445 97.281,155.278 98.5,153C 104.24,152.879 109.907,152.712 115.5,152.5C 116.13,160.243 115.463,167.576 113.5,174.5 Z"/></g>
<g><path style="opacity:1" fill="#a3adad" d="M 156.5,147.5 C 158.972,148.642 159.972,150.642 159.5,153.5C 156.916,153.431 154.916,152.265 153.5,150C 149.789,149.175 146.122,149.341 142.5,150.5C 140.694,154.105 141.694,156.605 145.5,158C 149.829,158.624 153.995,159.79 158,161.5C 159.31,162.13 160.144,163.13 160.5,164.5C 160.552,166.903 160.219,169.236 159.5,171.5C 157.97,173.346 155.97,174.346 153.5,174.5C 148.449,174.958 143.783,173.958 139.5,171.5C 139.131,169.007 139.797,168.34 141.5,169.5C 145.606,171.445 149.939,171.945 154.5,171C 158.588,167.861 158.255,165.361 153.5,163.5C 152.713,161.896 151.38,161.229 149.5,161.5C 145.199,161.182 141.532,159.515 138.5,156.5C 138.338,154.473 138.505,152.473 139,150.5C 144.002,145.013 149.835,144.013 156.5,147.5 Z"/></g>
<g><path style="opacity:1" fill="#c2c8c8" d="M 217.5,152.5 C 218.791,152.263 219.791,152.596 220.5,153.5C 219.18,156.428 218.514,159.761 218.5,163.5C 218.833,166.833 219.167,170.167 219.5,173.5C 220.167,169.353 220.834,165.353 221.5,161.5C 221.5,165.833 221.5,170.167 221.5,174.5C 219.833,174.5 218.167,174.5 216.5,174.5C 216.175,166.981 216.508,159.648 217.5,152.5 Z"/></g>
<g><path style="opacity:1" fill="#b5bcbc" d="M 256.5,153.5 C 247.189,154.012 247.189,154.845 256.5,156C 257.252,156.671 257.586,157.504 257.5,158.5C 253.833,155.833 250.167,155.833 246.5,158.5C 246.229,156.688 245.562,155.022 244.5,153.5C 243.503,160.468 243.17,167.468 243.5,174.5C 243.167,174.5 242.833,174.5 242.5,174.5C 242.5,167.167 242.5,159.833 242.5,152.5C 247.256,152.641 251.923,152.974 256.5,153.5 Z"/></g>
<g><path style="opacity:1" fill="#c5cbcb" d="M 342.5,174.5 C 341.833,146.5 341.167,146.5 340.5,174.5C 339.508,167.352 339.175,160.019 339.5,152.5C 340.833,152.5 342.167,152.5 343.5,152.5C 343.825,160.019 343.492,167.352 342.5,174.5 Z"/></g>
<g><path style="opacity:1" fill="#a2acac" d="M 342.5,174.5 C 341.833,174.5 341.167,174.5 340.5,174.5C 341.167,146.5 341.833,146.5 342.5,174.5 Z"/></g>
<g><path style="opacity:1" fill="#b5bdbd" d="M 378.5,153.5 C 380.857,155.098 383.523,156.098 386.5,156.5C 383.162,156.065 380.162,156.732 377.5,158.5C 376.721,156.073 375.554,156.073 374,158.5C 373.502,161.482 373.335,164.482 373.5,167.5C 372.527,165.052 372.194,162.385 372.5,159.5C 373.596,156.614 375.596,154.614 378.5,153.5 Z"/></g>
<g><path style="opacity:1" fill="#a2abab" d="M 416.5,153.5 C 417.82,156.428 418.486,159.761 418.5,163.5C 418.167,166.833 417.833,170.167 417.5,173.5C 416.503,166.866 416.17,160.2 416.5,153.5 Z"/></g>
<g><path style="opacity:1" fill="#dbdedf" d="M 180.5,174.5 C 179.673,169.349 179.173,164.016 179,158.5C 175.76,156.964 172.76,157.297 170,159.5C 169.826,164.684 169.326,169.684 168.5,174.5C 168.334,169.156 168.501,163.823 169,158.5C 172.397,155.019 176.064,154.686 180,157.5C 180.499,163.157 180.666,168.824 180.5,174.5 Z"/></g>
<g><path style="opacity:1" fill="#dde0e0" d="M 205.5,158.5 C 202.133,157.253 198.799,157.253 195.5,158.5C 198.738,154.537 202.071,154.537 205.5,158.5 Z"/></g>
<g><path style="opacity:1" fill="#a0aaaa" d="M 25.5,146.5 C 31.227,146.26 36.8936,146.593 42.5,147.5C 46.2202,149.22 48.8868,151.887 50.5,155.5C 50.6576,158.902 50.3242,162.236 49.5,165.5C 49.67,166.822 49.3366,167.989 48.5,169C 46.5448,169.953 44.8782,171.287 43.5,173C 41.9751,174.009 40.3084,174.509 38.5,174.5C 34.1667,174.5 29.8333,174.5 25.5,174.5C 25.5,165.167 25.5,155.833 25.5,146.5 Z"/></g>
<g><path style="opacity:1" fill="#d8dcdc" d="M 29.5,150.5 C 29.5,157.167 29.5,163.833 29.5,170.5C 33.1817,170.665 36.8484,170.499 40.5,170C 42.6592,168.941 44.3259,167.441 45.5,165.5C 45.5479,168.292 44.2146,170.125 41.5,171C 37.1794,171.499 32.8461,171.666 28.5,171.5C 28.1755,164.313 28.5088,157.313 29.5,150.5 Z"/></g>
<g><path style="opacity:1" fill="#fcfcfc" d="M 39.5,149.5 C 41.3325,150.248 42.9991,151.248 44.5,152.5C 45.2949,156.785 45.6282,161.119 45.5,165.5C 44.3259,167.441 42.6592,168.941 40.5,170C 36.8484,170.499 33.1817,170.665 29.5,170.5C 29.5,163.833 29.5,157.167 29.5,150.5C 32.6248,149.521 35.9581,149.187 39.5,149.5 Z"/></g>
<g><path style="opacity:1" fill="#b4bcbc" d="M 39.5,149.5 C 35.9581,149.187 32.6248,149.521 29.5,150.5C 28.5088,157.313 28.1755,164.313 28.5,171.5C 27.3448,164.345 27.1782,157.012 28,149.5C 31.9341,148.179 35.7674,148.179 39.5,149.5 Z"/></g>
<g><path style="opacity:1" fill="#a6afaf" d="M 71.5,155.5 C 71.0825,156.222 70.4158,156.722 69.5,157C 70.2524,157.671 70.5858,158.504 70.5,159.5C 68.1125,156.924 65.1125,155.924 61.5,156.5C 59.9826,156.511 58.8159,157.177 58,158.5C 57.8333,160.333 57.6667,162.167 57.5,164C 57.5465,166.295 58.2132,168.129 59.5,169.5C 60.4919,171.026 61.9919,171.693 64,171.5C 66.4418,171.518 68.6085,170.851 70.5,169.5C 71.1098,170.391 71.4431,171.391 71.5,172.5C 68.3703,174.023 65.037,174.689 61.5,174.5C 58.3326,173.832 55.8326,172.166 54,169.5C 50.6984,159.871 53.8651,154.205 63.5,152.5C 66.7011,152.341 69.3678,153.341 71.5,155.5 Z"/></g>
<g><path style="opacity:1" fill="#fafbfb" d="M 61.5,156.5 C 65.1125,155.924 68.1125,156.924 70.5,159.5C 71.5905,162.681 71.5905,166.015 70.5,169.5C 68.6085,170.851 66.4418,171.518 64,171.5C 61.9919,171.693 60.4919,171.026 59.5,169.5C 57.8974,164.785 58.564,160.451 61.5,156.5 Z"/></g>
<g><path style="opacity:1" fill="#bcc2c2" d="M 86.5,152.5 C 88.1667,152.5 89.8333,152.5 91.5,152.5C 92.4345,153.568 92.7678,154.901 92.5,156.5C 90.8333,156.5 89.1667,156.5 87.5,156.5C 88.12,162.926 87.4533,168.926 85.5,174.5C 85.5,168.167 85.5,161.833 85.5,155.5C 91.5739,155.326 91.9072,154.326 86.5,152.5 Z"/></g>
<g><path style="opacity:1" fill="#fafafa" d="M 107.5,156.5 C 108.482,157.141 109.482,157.807 110.5,158.5C 111.808,162.315 111.808,165.981 110.5,169.5C 107.754,171.126 104.754,171.793 101.5,171.5C 99.615,169.947 98.615,167.947 98.5,165.5C 98.5,159.5 101.5,156.5 107.5,156.5 Z"/></g>
<g><path style="opacity:1" fill="#fafafa" d="M 205.5,158.5 C 205.833,158.5 206.167,158.5 206.5,158.5C 207.265,161.096 207.599,163.763 207.5,166.5C 206.456,168.843 204.79,170.51 202.5,171.5C 199.594,171.043 196.928,170.043 194.5,168.5C 193.362,165.696 193.195,162.696 194,159.5C 194.383,158.944 194.883,158.611 195.5,158.5C 198.799,157.253 202.133,157.253 205.5,158.5 Z"/></g>
<g><path style="opacity:1" fill="#aab2b2" d="M 355.5,152.5 C 357.167,152.5 358.833,152.5 360.5,152.5C 360.5,153.833 360.5,155.167 360.5,156.5C 358.833,156.5 357.167,156.5 355.5,156.5C 355.823,162.69 355.49,168.69 354.5,174.5C 354.5,168.167 354.5,161.833 354.5,155.5C 360.574,155.326 360.907,154.326 355.5,152.5 Z"/></g>
<g><path style="opacity:1" fill="#e1e4e4" d="M 351.5,156.5 C 352.167,162.5 352.833,168.5 353.5,174.5C 353.833,174.5 354.167,174.5 354.5,174.5C 355.49,168.69 355.823,162.69 355.5,156.5C 357.167,156.5 358.833,156.5 360.5,156.5C 359.791,157.404 358.791,157.737 357.5,157.5C 357.829,163.537 357.496,169.537 356.5,175.5C 354.929,176.309 353.262,176.643 351.5,176.5C 351.5,169.833 351.5,163.167 351.5,156.5 Z"/></g>
<g><path style="opacity:1" fill="#fcfcfc" d="M 388.5,158.5 C 389.167,158.5 389.5,158.833 389.5,159.5C 389.658,162.902 389.324,166.236 388.5,169.5C 385.24,172.059 381.906,172.059 378.5,169.5C 375.396,159.745 378.729,156.079 388.5,158.5 Z"/></g>
<g><path style="opacity:1" fill="#e7eaea" d="M 398.5,156.5 C 400.167,156.5 401.833,156.5 403.5,156.5C 403.177,162.69 403.51,168.69 404.5,174.5C 405.167,174.5 405.833,174.5 406.5,174.5C 405.817,176.176 404.483,176.843 402.5,176.5C 402.5,170.167 402.5,163.833 402.5,157.5C 400.901,157.768 399.568,157.434 398.5,156.5 Z"/></g>
<g><path style="opacity:1" fill="#bac1c1" d="M 398.5,152.5 C 398.833,152.5 399.167,152.5 399.5,152.5C 399.5,153.5 399.5,154.5 399.5,155.5C 401.167,155.5 402.833,155.5 404.5,155.5C 404.5,161.833 404.5,168.167 404.5,174.5C 403.51,168.69 403.177,162.69 403.5,156.5C 401.833,156.5 400.167,156.5 398.5,156.5C 398.5,155.167 398.5,153.833 398.5,152.5 Z"/></g>
<g><path style="opacity:1" fill="#c5cbcb" d="M 44.5,152.5 C 46.8284,154.166 47.8284,156.499 47.5,159.5C 47.639,161.883 46.9723,163.883 45.5,165.5C 45.6282,161.119 45.2949,156.785 44.5,152.5 Z"/></g>
<g><path style="opacity:1" fill="#d1d6d6" d="M 107.5,156.5 C 101.5,156.5 98.5,159.5 98.5,165.5C 97.3775,163.712 97.2109,161.712 98,159.5C 100.457,155.69 103.623,154.69 107.5,156.5 Z"/></g>
<g><path style="opacity:1" fill="#b0b8b8" d="M 348.5,155.5 C 350.167,155.5 351.833,155.5 353.5,155.5C 353.5,161.833 353.5,168.167 353.5,174.5C 352.833,168.5 352.167,162.5 351.5,156.5C 350.209,156.737 349.209,156.404 348.5,155.5 Z"/></g>
<g><path style="opacity:1" fill="#d2d6d6" d="M 411.5,155.5 C 410.432,156.434 409.099,156.768 407.5,156.5C 407.823,162.69 407.49,168.69 406.5,174.5C 406.5,168.167 406.5,161.833 406.5,155.5C 408.167,155.5 409.833,155.5 411.5,155.5 Z"/></g>
<g><path style="opacity:1" fill="#d9dcdd" d="M 50.5,155.5 C 51.6378,158.304 51.8045,161.304 51,164.5C 50.6174,165.056 50.1174,165.389 49.5,165.5C 50.3242,162.236 50.6576,158.902 50.5,155.5 Z"/></g>
<g><path style="opacity:1" fill="#e8eaea" d="M 183.5,156.5 C 184.117,156.611 184.617,156.944 185,157.5C 185.499,163.491 185.666,169.491 185.5,175.5C 183.585,175.784 181.919,175.451 180.5,174.5C 181.833,174.5 183.167,174.5 184.5,174.5C 184.746,168.441 184.413,162.441 183.5,156.5 Z"/></g>
<g><path style="opacity:1" fill="#eaecec" d="M 261.5,157.5 C 262.117,157.611 262.617,157.944 263,158.5C 263.167,161.167 263.333,163.833 263.5,166.5C 263.478,169.59 262.812,172.257 261.5,174.5C 261.5,168.833 261.5,163.167 261.5,157.5 Z"/></g>
<g><path style="opacity:1" fill="#e7eaea" d="M 266.5,159.5 C 266.5,162.5 266.5,165.5 266.5,168.5C 265.883,168.389 265.383,168.056 265,167.5C 264.833,166.167 264.667,164.833 264.5,163.5C 264.585,161.667 265.252,160.334 266.5,159.5 Z"/></g>
<g><path style="opacity:1" fill="#a1aaaa" d="M 220.5,153.5 C 221.5,156.167 222.5,156.167 223.5,153.5C 223.833,153.5 224.167,153.5 224.5,153.5C 227.567,153.121 228.567,154.121 227.5,156.5C 226.325,156.281 225.325,156.614 224.5,157.5C 223.174,158.642 222.174,159.976 221.5,161.5C 220.834,165.353 220.167,169.353 219.5,173.5C 219.167,170.167 218.833,166.833 218.5,163.5C 218.514,159.761 219.18,156.428 220.5,153.5 Z"/></g>
<g><path style="opacity:1" fill="#a0a9a9" d="M 328.5,153.5 C 330.179,153.285 331.179,153.952 331.5,155.5C 333.365,161.588 334.031,167.922 333.5,174.5C 332.5,174.5 331.5,174.5 330.5,174.5C 330.821,168.974 330.488,163.64 329.5,158.5C 328.5,157.833 327.5,157.167 326.5,156.5C 325.399,155.402 324.066,155.235 322.5,156C 320.881,156.236 319.881,157.069 319.5,158.5C 318.512,163.64 318.179,168.974 318.5,174.5C 317.5,174.5 316.5,174.5 315.5,174.5C 315.17,167.468 315.503,160.468 316.5,153.5C 317.216,154.311 318.05,154.978 319,155.5C 321.886,153.775 325.052,153.108 328.5,153.5 Z"/></g>
<g><path style="opacity:1" fill="#d5d9d9" d="M 326.5,156.5 C 324.035,156.767 321.701,157.434 319.5,158.5C 319.881,157.069 320.881,156.236 322.5,156C 324.066,155.235 325.399,155.402 326.5,156.5 Z"/></g>
<g><path style="opacity:1" fill="#d1d6d6" d="M 329.5,158.5 C 330.488,163.64 330.821,168.974 330.5,174.5C 331.5,174.5 332.5,174.5 333.5,174.5C 332.432,175.434 331.099,175.768 329.5,175.5C 329.5,169.833 329.5,164.167 329.5,158.5 Z"/></g>
<g><path style="opacity:1" fill="#ced3d3" d="M 331.5,155.5 C 332.458,155.953 333.292,156.619 334,157.5C 334.818,163.349 334.652,169.015 333.5,174.5C 334.031,167.922 333.365,161.588 331.5,155.5 Z"/></g>
<g><path style="opacity:1" fill="#e4e7e7" d="M 61.5,156.5 C 58.564,160.451 57.8974,164.785 59.5,169.5C 58.2132,168.129 57.5465,166.295 57.5,164C 57.6667,162.167 57.8333,160.333 58,158.5C 58.8159,157.177 59.9826,156.511 61.5,156.5 Z"/></g>
<g><path style="opacity:1" fill="#a0aaaa" d="M 121.5,160.5 C 125.167,160.5 128.833,160.5 132.5,160.5C 132.5,161.5 132.5,162.5 132.5,163.5C 128.833,163.5 125.167,163.5 121.5,163.5C 121.5,162.5 121.5,161.5 121.5,160.5 Z"/></g>
<g><path style="opacity:1" fill="#bcc2c3" d="M 259.5,155.5 C 260.5,155.833 261.167,156.5 261.5,157.5C 261.5,163.167 261.5,168.833 261.5,174.5C 260.432,175.434 259.099,175.768 257.5,175.5C 257.5,169.833 257.5,164.167 257.5,158.5C 258.167,163.681 258.833,169.015 259.5,174.5C 260.752,168.143 260.752,161.81 259.5,155.5 Z"/></g>
<g><path style="opacity:1" fill="#e2e5e5" d="M 372.5,159.5 C 372.194,162.385 372.527,165.052 373.5,167.5C 374.441,169.05 375.107,170.716 375.5,172.5C 373.224,172.244 372.057,170.91 372,168.5C 371.195,165.304 371.362,162.304 372.5,159.5 Z"/></g>
<g><path style="opacity:1" fill="#d0d4d4" d="M 94.5,159.5 C 94.3424,162.902 94.6758,166.236 95.5,169.5C 94.8826,169.389 94.3826,169.056 94,168.5C 93.1955,165.304 93.3622,162.304 94.5,159.5 Z"/></g>
<g><path style="opacity:1" fill="#cfd4d4" d="M 149.5,161.5 C 151.38,161.229 152.713,161.896 153.5,163.5C 151.62,163.771 150.287,163.104 149.5,161.5 Z"/></g>
<g><path style="opacity:1" fill="#dde1e1" d="M 386.5,156.5 C 387.5,156.833 388.167,157.5 388.5,158.5C 378.729,156.079 375.396,159.745 378.5,169.5C 375.093,166.177 374.76,162.51 377.5,158.5C 380.162,156.732 383.162,156.065 386.5,156.5 Z"/></g>
<g><path style="opacity:1" fill="#a0a9a9" d="M 466.5,158.5 C 466.5,160.5 466.5,162.5 466.5,164.5C 460.824,164.334 455.157,164.501 449.5,165C 448.95,167.158 447.95,167.658 446.5,166.5C 445.366,164.034 445.199,161.367 446,158.5C 452.956,150.517 459.79,150.517 466.5,158.5 Z"/></g>
<g><path style="opacity:1" fill="#c3c9c9" d="M 462.5,158.5 C 463.434,159.568 463.768,160.901 463.5,162.5C 458.968,162.818 454.634,162.485 450.5,161.5C 454.5,161.5 458.5,161.5 462.5,161.5C 462.5,160.5 462.5,159.5 462.5,158.5 Z"/></g>
<g><path style="opacity:1" fill="#f6f6f6" d="M 458.5,156.5 C 459.605,157.6 460.938,158.267 462.5,158.5C 462.5,159.5 462.5,160.5 462.5,161.5C 458.5,161.5 454.5,161.5 450.5,161.5C 449.285,160.221 449.618,159.221 451.5,158.5C 453.558,157.067 455.892,156.4 458.5,156.5 Z"/></g>
<g><path style="opacity:1" fill="#d9dddd" d="M 458.5,156.5 C 455.892,156.4 453.558,157.067 451.5,158.5C 453.265,155.551 455.598,154.885 458.5,156.5 Z"/></g>
<g><path style="opacity:1" fill="#cacfcf" d="M 246.5,159.5 C 246.5,164.833 246.5,170.167 246.5,175.5C 244.901,175.768 243.568,175.434 242.5,174.5C 242.833,174.5 243.167,174.5 243.5,174.5C 245.141,169.749 246.141,164.749 246.5,159.5 Z"/></g>
<g><path style="opacity:1" fill="#c5caca" d="M 206.5,158.5 C 208.026,159.492 208.693,160.992 208.5,163C 208.486,164.385 208.152,165.551 207.5,166.5C 207.599,163.763 207.265,161.096 206.5,158.5 Z"/></g>
<g><path style="opacity:1" fill="#d2d6d6" d="M 440.5,162.5 C 439.492,164.544 438.492,166.544 437.5,168.5C 437.025,165.687 438.025,163.687 440.5,162.5 Z"/></g>
<g><path style="opacity:1" fill="#a3acac" d="M 268.5,179.5 C 269.211,177.158 270.544,176.825 272.5,178.5C 273.492,180.026 274.992,180.693 277,180.5C 278.385,180.486 279.551,180.152 280.5,179.5C 283.312,178.105 284.646,175.771 284.5,172.5C 280.661,174.167 276.661,174.667 272.5,174C 269.977,172.64 267.977,170.807 266.5,168.5C 266.5,165.5 266.5,162.5 266.5,159.5C 267.757,157.32 269.257,155.32 271,153.5C 276.527,152.969 282.027,152.636 287.5,152.5C 287.666,161.173 287.5,169.84 287,178.5C 284.575,181.933 281.241,183.267 277,182.5C 274.833,182.333 272.667,182.167 270.5,182C 269.934,181.005 269.267,180.172 268.5,179.5 Z"/></g>
<g><path style="opacity:1" fill="#fafbfb" d="M 279.5,156.5 C 286.113,161.311 286.113,165.977 279.5,170.5C 275.997,170.871 272.997,169.871 270.5,167.5C 270.5,167.167 270.5,166.833 270.5,166.5C 270.017,159.984 273.017,156.651 279.5,156.5 Z"/></g>
<g><path style="opacity:1" fill="#d5d9d9" d="M 279.5,156.5 C 273.017,156.651 270.017,159.984 270.5,166.5C 268.612,162.306 269.612,158.806 273.5,156C 275.712,155.211 277.712,155.378 279.5,156.5 Z"/></g>
<g><path style="opacity:1" fill="#9ca6a6" d="M 388.5,153.5 C 388.369,154.376 388.702,155.043 389.5,155.5C 390.5,154.833 391.5,154.167 392.5,153.5C 393.497,160.134 393.83,166.8 393.5,173.5C 391.5,172.833 390.167,171.5 389.5,169.5C 390.782,166.064 390.782,162.731 389.5,159.5C 389.5,158.833 389.167,158.5 388.5,158.5C 388.167,157.5 387.5,156.833 386.5,156.5C 383.523,156.098 380.857,155.098 378.5,153.5C 381.833,152.167 385.167,152.167 388.5,153.5 Z"/></g>
<g><path style="opacity:1" fill="#afb7b7" d="M 141.5,169.5 C 139.797,168.34 139.131,169.007 139.5,171.5C 137.926,169.898 137.259,167.898 137.5,165.5C 138.833,165.5 140.167,165.5 141.5,165.5C 141.5,166.833 141.5,168.167 141.5,169.5 Z"/></g>
<g><path style="opacity:1" fill="#b3bbbb" d="M 466.5,158.5 C 467.468,160.607 467.802,162.941 467.5,165.5C 461.833,165.5 456.167,165.5 450.5,165.5C 450.5,166.5 450.5,167.5 450.5,168.5C 450.5,168.833 450.5,169.167 450.5,169.5C 449.957,169.56 449.624,169.893 449.5,170.5C 450.524,171.852 451.524,173.185 452.5,174.5C 448.635,173.294 446.635,170.627 446.5,166.5C 447.95,167.658 448.95,167.158 449.5,165C 455.157,164.501 460.824,164.334 466.5,164.5C 466.5,162.5 466.5,160.5 466.5,158.5 Z"/></g>
<g><path style="opacity:1" fill="#d8dddd" d="M 389.5,159.5 C 390.782,162.731 390.782,166.064 389.5,169.5C 389.167,169.5 388.833,169.5 388.5,169.5C 389.324,166.236 389.658,162.902 389.5,159.5 Z"/></g>
<g><path style="opacity:1" fill="#dee2e2" d="M 426.5,164.5 C 428.213,165.635 428.88,167.302 428.5,169.5C 426.787,168.365 426.12,166.698 426.5,164.5 Z"/></g>
<g><path style="opacity:1" fill="#a4adad" d="M 427.5,155.5 C 428.849,160.048 430.682,164.381 433,168.5C 434.947,164.141 436.781,159.808 438.5,155.5C 439.458,155.047 440.292,154.381 441,153.5C 441.494,155.134 441.66,156.801 441.5,158.5C 440.566,159.568 440.232,160.901 440.5,162.5C 438.025,163.687 437.025,165.687 437.5,168.5C 437.211,171.581 435.544,173.581 432.5,174.5C 431.558,174.392 430.725,174.059 430,173.5C 429.79,171.942 429.29,170.609 428.5,169.5C 428.88,167.302 428.213,165.635 426.5,164.5C 425.833,162.5 425.167,160.5 424.5,158.5C 423.962,156.883 423.629,155.216 423.5,153.5C 425.199,153.527 426.533,154.194 427.5,155.5 Z"/></g>
<g><path style="opacity:1" fill="#d6dbdb" d="M 160.5,164.5 C 161.152,165.449 161.486,166.615 161.5,168C 161.392,169.681 160.725,170.848 159.5,171.5C 160.725,170.848 161.392,169.681 161.5,168C 161.486,166.615 161.152,165.449 160.5,164.5 Z"/></g>
<g><path style="opacity:1" fill="#d3d8d8" d="M 194.5,168.5 C 196.928,170.043 199.594,171.043 202.5,171.5C 198.919,173.239 196.252,172.239 194.5,168.5 Z"/></g>
<g><path style="opacity:1" fill="#dbdede" d="M 270.5,167.5 C 272.997,169.871 275.997,170.871 279.5,170.5C 275.567,172.343 272.567,171.343 270.5,167.5 Z"/></g>
<g><path style="opacity:1" fill="#9da7a7" d="M 377.5,158.5 C 374.76,162.51 375.093,166.177 378.5,169.5C 378.414,170.496 378.748,171.329 379.5,172C 382.365,172.183 385.031,172.683 387.5,173.5C 385.283,174.369 382.95,174.702 380.5,174.5C 378.833,173.833 377.167,173.167 375.5,172.5C 375.107,170.716 374.441,169.05 373.5,167.5C 373.335,164.482 373.502,161.482 374,158.5C 375.554,156.073 376.721,156.073 377.5,158.5 Z"/></g>
<g><path style="opacity:1" fill="#b6bdbd" d="M 110.5,169.5 C 110.821,171.048 111.821,171.715 113.5,171.5C 113.5,172.5 113.5,173.5 113.5,174.5C 111.5,173.167 109.5,173.167 107.5,174.5C 107.611,173.883 107.944,173.383 108.5,173C 105.964,172.814 103.631,172.314 101.5,171.5C 104.754,171.793 107.754,171.126 110.5,169.5 Z"/></g>
<g><path style="opacity:1" fill="#b2b9b9" d="M 378.5,169.5 C 381.906,172.059 385.24,172.059 388.5,169.5C 388.833,169.5 389.167,169.5 389.5,169.5C 390.167,171.5 391.5,172.833 393.5,173.5C 392.791,174.404 391.791,174.737 390.5,174.5C 390.196,172.204 389.196,171.871 387.5,173.5C 385.031,172.683 382.365,172.183 379.5,172C 378.748,171.329 378.414,170.496 378.5,169.5 Z"/></g>
<g><path style="opacity:1" fill="#a0a9a9" d="M 453.5,174.5 C 453.167,174.5 452.833,174.5 452.5,174.5C 451.524,173.185 450.524,171.852 449.5,170.5C 449.624,169.893 449.957,169.56 450.5,169.5C 453.859,171.487 457.525,171.987 461.5,171C 462.308,169.294 463.641,168.461 465.5,168.5C 465.703,170.39 465.037,171.89 463.5,173C 460.274,174.199 456.941,174.699 453.5,174.5 Z"/></g>
<g><path style="opacity:1" fill="#d4d9d9" d="M 390.5,174.5 C 387.015,175.59 383.681,175.59 380.5,174.5C 382.95,174.702 385.283,174.369 387.5,173.5C 389.196,171.871 390.196,172.204 390.5,174.5 Z"/></g>
<g><path style="opacity:1" fill="#d8dcdc" d="M 71.5,172.5 C 71.5,173.167 71.5,173.833 71.5,174.5C 68.0145,175.59 64.6812,175.59 61.5,174.5C 65.037,174.689 68.3703,174.023 71.5,172.5 Z"/></g>
<g><path style="opacity:1" fill="#c2c8c8" d="M 139.5,171.5 C 143.783,173.958 148.449,174.958 153.5,174.5C 150.696,175.638 147.696,175.805 144.5,175C 142.119,174.777 140.453,173.61 139.5,171.5 Z"/></g>
<g><path style="opacity:1" fill="#dfe3e3" d="M 210.5,174.5 C 210.833,174.5 211.167,174.5 211.5,174.5C 206.706,175.888 201.706,176.388 196.5,176C 195.619,175.292 194.953,174.458 194.5,173.5C 198.982,175.065 203.315,174.731 207.5,172.5C 208.265,173.612 209.265,174.279 210.5,174.5 Z"/></g>
<g><path style="opacity:1" fill="#e3e5e5" d="M 453.5,174.5 C 456.941,174.699 460.274,174.199 463.5,173C 465.037,171.89 465.703,170.39 465.5,168.5C 463.641,168.461 462.308,169.294 461.5,171C 457.525,171.987 453.859,171.487 450.5,169.5C 450.5,169.167 450.5,168.833 450.5,168.5C 452.392,169.851 454.558,170.518 457,170.5C 459.808,170.159 462.308,169.159 464.5,167.5C 465.5,167.833 466.5,168.167 467.5,168.5C 466.995,171.188 465.662,173.355 463.5,175C 459.973,175.808 456.64,175.641 453.5,174.5 Z"/></g>
<g><path style="opacity:1" fill="#d8dcdc" d="M 272.5,178.5 C 270.544,176.825 269.211,177.158 268.5,179.5C 265.597,177.755 265.93,176.755 269.5,176.5C 271.03,176.64 272.03,177.307 272.5,178.5 Z"/></g>
<g><path style="opacity:1" fill="#d2d6d6" d="M 272.5,178.5 C 275.096,179.265 277.763,179.599 280.5,179.5C 279.551,180.152 278.385,180.486 277,180.5C 274.992,180.693 273.492,180.026 272.5,178.5 Z"/></g>
</svg>
