<svg xmlns="http://www.w3.org/2000/svg" width="478" height="212" style="shape-rendering:geometricPrecision;text-rendering:geometricPrecision;image-rendering:optimizeQuality;fill-rule:evenodd;clip-rule:evenodd"><path style="opacity:1" fill="#524584" d="M-.5-.5h478v212H-.5V-.5z"/><path style="opacity:1" fill="#786e9f" d="M56.5 32.5h-1c-.458-2.81-1.791-3.476-4-2h-1c.291-1.15 1.124-1.816 2.5-2 2.756-.076 3.923 1.257 3.5 4z"/><path style="opacity:1" fill="#b8b2cc" d="M51.5 30.5c2.209-1.476 3.542-.81 4 2-1.105-1.1-2.438-1.767-4-2z"/><path style="opacity:1" fill="#b4aec9" d="M89.5 29.5c.992-.172 1.658.162 2 1-1.644.31-2.644 1.31-3 3h-1a5.728 5.728 0 0 1 1-3c0-.667.333-1 1-1z"/><path style="opacity:1" fill="#c9c6d9" d="M91.5 30.5c1.406.473 2.073 1.473 2 3-1.406-.473-2.073-1.473-2-3z"/><path style="opacity:1" fill="#786e9f" d="M89.5 29.5c1.208-1.282 2.542-1.282 4 0a199.631 199.631 0 0 1 3 6h-1c-.333-1-1-1.667-2-2 .073-1.527-.594-2.527-2-3-.342-.838-1.008-1.172-2-1z"/><path style="opacity:1" fill="#fdfdfd" d="M51.5 30.5c1.562.233 2.895.9 4 2-.073 1.527.594 2.527 2 3-.073 1.527.594 2.527 2 3-.073 1.527.594 2.527 2 3v3h4c2.442-1.62 3.775-3.954 4-7 1.333-1.333 2.667-1.333 4 0 1.593 4.438 4.26 8.105 8 11-.073 1.527.594 2.527 2 3-.073 1.527.594 2.527 2 3v1c.58 2.249 1.913 3.915 4 5-.073 1.527.594 2.527 2 3-.073 1.527.594 2.527 2 3 .968 2.6 2.3 4.934 4 7-.073 1.527.594 2.527 2 3-.073 1.527.594 2.527 2 3-.073 1.527.594 2.527 2 3 .225 3.046 1.558 5.38 4 7l2 1c.84 2.353 2.174 4.353 4 6a33.69 33.69 0 0 1 3 7.5 19.25 19.25 0 0 0-3 6.5c-1.406.473-2.073 1.473-2 3-1.406.473-2.073 1.473-2 3h-1c-6.491 7.511-11.824 15.845-16 25h-1c-1.847 1.53-2.847 3.53-3 6-2.482 1.163-3.816 3.163-4 6-2.482 1.163-3.816 3.163-4 6-2.482 1.163-3.816 3.163-4 6-1.548.321-2.215 1.321-2 3-1.235.221-2.235.888-3 2-.641-1.493-1.641-2.493-3-3-1.762-.762-2.762-2.096-3-4-.017-1.528-.684-2.028-2-1.5-2.107 1.264-3.107 3.097-3 5.5h-1c-1.39 1.399-2.39 3.066-3 5a5.728 5.728 0 0 0-1 3h-4v-1c-.231-2.563-1.565-4.23-4-5-1.141-2.049-1.141-4.049 0-6a5.728 5.728 0 0 1 1-3h1c1.406-.473 2.073-1.473 2-3 5.673-3.364 6.34-7.364 2-12-.291-1.149-1.124-1.816-2.5-2-3.78 2.872-6.613 6.539-8.5 11-3.497-.56-5.997-2.56-7.5-6-.49-2.045-.324-4.045.5-6 1.406-.473 2.073-1.473 2-3a17.91 17.91 0 0 1 4-6c1.38-.462 2.047-1.462 2-3a43.067 43.067 0 0 0-1.5-5c-.67-.752-1.504-1.086-2.5-1-1-1.333-2-1.333-3 0-2.709 2.403-4.709 5.403-6 9-1.235.221-2.235.888-3 2a29.92 29.92 0 0 1-5-8 71.224 71.224 0 0 0 3-9c1.406-.473 2.073-1.473 2-3 3.017-2.115 3.684-4.782 2-8a53.508 53.508 0 0 1-1-4.5c1.738-2.93 2.238-6.097 1.5-9.5-2.301-3.659-4.801-6.992-7.5-10-2.031-1.75-2.365-3.75-1-6a5.728 5.728 0 0 1 1-3c.901-.79 1.568-1.79 2-3h1c1.333-1.333 2.667-1.333 4 0v2c.58 2.249 1.913 3.915 4 5-.073 1.527.594 2.527 2 3 3.262 2.495 5.262 1.495 6-3 2.667-1.333 2.667-2.667 0-4 .073-1.527-.594-2.527-2-3 .073-1.527-.594-2.527-2-3a5.728 5.728 0 0 0-1-3 325.759 325.759 0 0 0-2-5 45.441 45.441 0 0 0 3-7c.65-.304 1.316-.637 2-1a493.061 493.061 0 0 0 4 3l2 1c-.073 1.527.594 2.527 2 3-.073 1.527.594 2.527 2 3-.13.876.203 1.543 1 2a6.845 6.845 0 0 1 4-1 27.217 27.217 0 0 1 2-5.5c-.028-1.07-.361-1.903-1-2.5l-1-2c-.798-2.466-2.131-4.466-4-6a81.71 81.71 0 0 0-4-7.5c.243-.902.577-1.735 1-2.5 2.442-1.62 3.775-3.954 4-7z"/><path style="opacity:1" fill="#fbfbfc" d="M91.5 30.5c-.073 1.527.594 2.527 2 3a122.206 122.206 0 0 1 2.5 9 39.355 39.355 0 0 1-4.5 6l-4-2a31.697 31.697 0 0 0-2-6 43.772 43.772 0 0 1 3-7c.356-1.69 1.356-2.69 3-3z"/><path style="opacity:1" fill="#bab5ce" d="M55.5 32.5h1c.61.891.943 1.891 1 3-1.406-.473-2.073-1.473-2-3z"/><path style="opacity:1" fill="#cecadc" d="M50.5 30.5h1c-.225 3.046-1.558 5.38-4 7 1.13-1.815 1.796-3.815 2-6 .667 0 1-.333 1-1z"/><path style="opacity:1" fill="#887faa" d="m75.5 38.5-2-1c-.12-1.086-.787-1.753-2-2-1.213.247-1.88.914-2 2h-1c.2-3.85 2.034-4.85 5.5-3a10.123 10.123 0 0 1 1.5 4z"/><path style="opacity:1" fill="#d0ccdd" d="M73.5 37.5c-1.333-1.333-2.667-1.333-4 0 .12-1.086.787-1.753 2-2 1.213.247 1.88.914 2 2z"/><path style="opacity:1" fill="#8980ab" d="M88.5 30.5a5.728 5.728 0 0 0-1 3 6.541 6.541 0 0 1-3 3c.798-2.466 2.131-4.466 4-6z"/><path style="opacity:1" fill="#bab4cd" d="M57.5 35.5c1.406.473 2.073 1.473 2 3-1.406-.473-2.073-1.473-2-3z"/><path style="opacity:1" fill="#7a70a0" d="M49.5 31.5c-.204 2.185-.87 4.185-2 6-1.15.291-1.816 1.124-2 2.5a24.321 24.321 0 0 0 2 5.5c-2.376-1.012-3.376-2.845-3-5.5 1.04-3.255 2.708-6.089 5-8.5z"/><path style="opacity:1" fill="#8077a5" d="M84.5 36.5c-1.363 3.188-1.03 6.188 1 9-2.376-1.012-3.376-2.845-3-5.5.108-1.681.775-2.848 2-3.5z"/><path style="opacity:1" fill="#887faa" d="M68.5 37.5c-.453 2.065-1.453 3.732-3 5 .092-2.348 1.092-4.014 3-5z"/><path style="opacity:1" fill="#8d84ae" d="M158.5 39.5c-2.824-1.263-5.657-1.263-8.5 0-1.03.336-1.53 1.003-1.5 2-.667 0-1 .333-1 1-1.869 2.135-2.536 4.802-2 8h-1c-1.666-7.774 1.5-12.107 9.5-13 2.008-.193 3.508.474 4.5 2z"/><path style="opacity:1" fill="#bbb6ce" d="M59.5 38.5c1.406.473 2.073 1.473 2 3-1.406-.473-2.073-1.473-2-3z"/><path style="opacity:1" fill="#d4d0e0" d="M158.5 39.5a6.544 6.544 0 0 1 3 3c.313 3.542-.021 6.875-1 10 2.224-10.547-1.776-14.214-12-11-.03-.997.47-1.664 1.5-2 2.843-1.263 5.676-1.263 8.5 0z"/><path style="opacity:1" fill="#c4c0d5" d="M47.5 37.5a11.104 11.104 0 0 0-1 2.5 81.71 81.71 0 0 1 4 7.5l-3-2a24.321 24.321 0 0 1-2-5.5c.184-1.376.85-2.209 2-2.5z"/><path style="opacity:1" fill="#c2bdd3" d="m73.5 37.5 2 1c.333 1 1 1.667 2 2-.227 2.433.773 4.1 3 5 .61.891.943 1.891 1 3-3.74-2.895-6.407-6.562-8-11z"/><path style="opacity:1" fill="#e2e0ea" d="M87.5 33.5h1a43.772 43.772 0 0 0-3 7 31.697 31.697 0 0 1 2 6l-2-1c-2.03-2.813-2.363-5.813-1-9a6.541 6.541 0 0 0 3-3z"/><path style="opacity:1" fill="#9d96ba" d="M95.5 35.5h1c1.975 1.862 2.308 3.862 1 6-.204-2.185-.87-4.185-2-6z"/><path style="opacity:1" fill="#fcfcfd" d="m160.5 52.5-1 2a44.83 44.83 0 0 1-10 1c-2.956-3.973-3.623-8.306-2-13 0-.667.333-1 1-1 10.224-3.214 14.224.453 12 11z"/><path style="opacity:1" fill="#dcd9e6" d="M68.5 37.5h1c-.225 3.046-1.558 5.38-4 7v-2c1.547-1.268 2.547-2.935 3-5z"/><path style="opacity:1" fill="#8278a6" d="M77.5 40.5c1.39 1.4 2.39 3.066 3 5-2.227-.9-3.227-2.567-3-5z"/><path style="opacity:1" fill="#b7b2cc" d="M61.5 41.5c1.208.734 2.541 1.067 4 1v2h-4v-3z"/><path style="opacity:1" fill="#cecadc" d="M93.5 33.5c1 .333 1.667 1 2 2 1.13 1.815 1.796 3.815 2 6l-4 8c-3.665 2.011-5.665 1.011-6-3l4 2a39.355 39.355 0 0 0 4.5-6 122.206 122.206 0 0 0-2.5-9z"/><path style="opacity:1" fill="#d4d1e0" d="M147.5 42.5c-1.623 4.694-.956 9.027 2 13h-2a13.224 13.224 0 0 1-2-5c-.536-3.198.131-5.865 2-8z"/><path style="opacity:1" fill="#978fb5" d="M161.5 42.5c1.493.812 2.16 2.145 2 4 .003 3.742-1.33 6.742-4 9v-1l1-2c.979-3.125 1.313-6.458 1-10z"/><path style="opacity:1" fill="#938bb2" d="m47.5 45.5 3 2c.61.891.943 1.891 1 3-2.087-1.085-3.42-2.751-4-5z"/><path style="opacity:1" fill="#b0abc7" d="M81.5 48.5c1.406.473 2.073 1.473 2 3-1.406-.473-2.073-1.473-2-3z"/><path style="opacity:1" fill="#7c72a2" d="m85.5 45.5 2 1c.335 4.011 2.335 5.011 6 3-.906 2.414-2.572 3.247-5 2.5-1.671-1.843-2.671-4.01-3-6.5z"/><path style="opacity:1" fill="#6d6297" d="M42.5 50.5c2.482 1.163 3.816 3.163 4 6h-1c.073-1.527-.594-2.527-2-3a5.728 5.728 0 0 0-1-3z"/><path style="opacity:1" fill="#8f86af" d="M42.5 50.5c.61.891.943 1.891 1 3-1.604-.787-2.27-2.12-2-4-2.642-.012-3.975 1.321-4 4a53.202 53.202 0 0 1-5 5v-1c1.629-3.79 4.129-6.79 7.5-9 1.376.184 2.209.85 2.5 2z"/><path style="opacity:1" fill="#dfdde8" d="M43.5 53.5v2a493.061 493.061 0 0 1-4-3c-.684.363-1.35.696-2 1 .025-2.679 1.358-4.012 4-4-.27 1.88.396 3.213 2 4z"/><path style="opacity:1" fill="#d6d3e2" d="M50.5 47.5c1.869 1.534 3.202 3.534 4 6h-1l-2-3a5.728 5.728 0 0 0-1-3z"/><path style="opacity:1" fill="#ada7c5" d="m83.5 51.5 2 1v2c-1.406-.473-2.073-1.473-2-3z"/><path style="opacity:1" fill="#978fb5" d="M105.5 51.5c-.923-.803-1.923-.97-3-.5-4.385 3.245-6.052 7.412-5 12.5-1.808-1.418-2.475-3.418-2-6 2.1-2.679 4.1-5.512 6-8.5a8.435 8.435 0 0 1 4-.5v3z"/><path style="opacity:1" fill="#f7f6f9" d="M105.5 51.5c-.073 1.527.594 2.527 2 3v2a53.543 53.543 0 0 1 1 4.5 29.303 29.303 0 0 0-2 6.5h-1c-.967 1.306-2.301 1.973-4 2 .073-1.527-.594-2.527-2-3 .073-1.527-.594-2.527-2-3-1.052-5.088.615-9.255 5-12.5 1.077-.47 2.077-.303 3 .5z"/><path style="opacity:1" fill="#b2acc8" d="M105.5 51.5c1.406.473 2.073 1.473 2 3-1.406-.473-2.073-1.473-2-3z"/><path style="opacity:1" fill="#7e74a3" d="M85.5 52.5c1.39 1.4 2.39 3.066 3 5l-3-2v-3z"/><path style="opacity:1" fill="#706599" d="M144.5 50.5h1c.331 1.822.998 3.49 2 5-2.584-.548-3.584-2.215-3-5z"/><path style="opacity:1" fill="#a39cbd" d="M273.5 53.5h12v1c-3.871-.315-7.538.018-11 1h-1v-2z"/><path style="opacity:1" fill="#b2acc8" d="M43.5 53.5c1.406.473 2.073 1.473 2 3l-2-1v-2z"/><path style="opacity:1" fill="#9a92b7" d="M53.5 53.5h1l1 2c.268 1.599-.066 2.932-1 4a19.242 19.242 0 0 0-1-6z"/><path style="opacity:1" fill="#6b6096" d="M108.5 54.5c5.526 4.573 5.193 8.906-1 13 .233-1.562.9-2.895 2-4 2.667-2 2.667-4 0-6a5.727 5.727 0 0 0-1-3z"/><path style="opacity:1" fill="#b4aec9" d="M107.5 54.5h1c.61.891.943 1.891 1 3l-2-1v-2z"/><path style="opacity:1" fill="#ccc8db" d="M159.5 54.5v1c-1.527-.073-2.527.594-3 2-2.888.51-5.221-.157-7-2a44.83 44.83 0 0 0 10-1z"/><path style="opacity:1" fill="#d3cfdf" d="M37.5 53.5a45.441 45.441 0 0 1-3 7 325.759 325.759 0 0 1 2 5h-1c-1.812-1.96-2.812-4.294-3-7a53.202 53.202 0 0 0 5-5z"/><path style="opacity:1" fill="#6e6297" d="m46.5 56.5 6 5c-.709.904-1.709 1.237-3 1 .073-1.527-.594-2.527-2-3a5.728 5.728 0 0 0-1-3z"/><path style="opacity:1" fill="#7f75a4" d="M159.5 55.5c-.473 1.406-1.473 2.073-3 2 .473-1.406 1.473-2.073 3-2z"/><path style="opacity:1" fill="#7b70a1" d="M273.5 53.5v22h-12c3.462-.982 7.129-1.315 11-1-.325-7.187.009-14.187 1-21z"/><path style="opacity:1" fill="#fdfcfd" d="M273.5 55.5h11c-.324 6.854.009 13.521 1 20v1c6.145.99 12.478 1.323 19 1v3a98.282 98.282 0 0 0-19.5 1 552.224 552.224 0 0 0 0 47l2 6c.816 1.323 1.983 1.989 3.5 2 .111.617.444 1.117 1 1.5 4.989.499 9.989.666 15 .5v3a93.434 93.434 0 0 1-9 3c-6.909.54-13.576-.127-20-2-.16-1.653-.826-2.986-2-4a821.756 821.756 0 0 1-1-55c.086-.996-.248-1.83-1-2.5a60.94 60.94 0 0 0-11-.5v-3c4.149.58 7.816-.086 11-2v-20z"/><path style="opacity:1" fill="#dddbe7" d="M274.5 55.5c3.462-.982 7.129-1.315 11-1v21c-.991-6.479-1.324-13.146-1-20h-10z"/><path style="opacity:1" fill="#7e75a4" d="M285.5 54.5v-1c1.961 6.587 2.628 13.587 2 21l-2-20z"/><path style="opacity:1" fill="#b5afca" d="M45.5 56.5h1c.61.891.943 1.891 1 3-1.406-.473-2.073-1.473-2-3z"/><path style="opacity:1" fill="#716699" d="M147.5 55.5h2c1.779 1.843 4.112 2.51 7 2-2.524 1.3-5.191 1.3-8 0a44.147 44.147 0 0 1-1-2z"/><path style="opacity:1" fill="#706599" d="M32.5 57.5v1c.188 2.706 1.188 5.04 3 7v1c-2.87-1.385-4.537-3.718-5-7 .247-1.213.914-1.88 2-2z"/><path style="opacity:1" fill="#b5b0ca" d="m85.5 55.5 3 2c.61.891.943 1.891 1 3-2.087-1.085-3.42-2.751-4-5z"/><path style="opacity:1" fill="#cecadc" d="M55.5 55.5c.639.597.972 1.43 1 2.5a27.217 27.217 0 0 0-2 5.5 6.845 6.845 0 0 0-4 1c-.797-.457-1.13-1.124-1-2 1.291.237 2.291-.096 3-1l2-2c.934-1.068 1.268-2.401 1-4z"/><path style="opacity:1" fill="#dbd8e5" d="m107.5 56.5 2 1c1.333 2 1.333 4 0 6-1.1 1.105-1.767 2.438-2 4h-1a29.303 29.303 0 0 1 2-6.5 53.543 53.543 0 0 0-1-4.5z"/><path style="opacity:1" fill="#a49dbe" d="M109.5 57.5c2.667 2 2.667 4 0 6 1.333-2 1.333-4 0-6z"/><path style="opacity:1" fill="#b1abc8" d="M47.5 59.5c1.406.473 2.073 1.473 2 3-1.406-.473-2.073-1.473-2-3z"/><path style="opacity:1" fill="#aaa4c3" d="M89.5 60.5c1.406.473 2.073 1.473 2 3-1.406-.473-2.073-1.473-2-3z"/><path style="opacity:1" fill="#a7a1c0" d="M91.5 63.5h1c.61.891.943 1.891 1 3-1.406-.473-2.073-1.473-2-3z"/><path style="opacity:1" fill="#a39cbd" d="M97.5 63.5c1.406.473 2.073 1.473 2 3-1.406-.473-2.073-1.473-2-3z"/><path style="opacity:1" fill="#a49cbe" d="M35.5 65.5h1c.61.891.943 1.891 1 3-1-.333-1.667-1-2-2v-1z"/><path style="opacity:1" fill="#6d6297" d="m31.5 72.5-2-1c-.12-1.086-.787-1.753-2-2-1.213.247-1.88.914-2 2h-1c.2-3.85 2.034-4.85 5.5-3a10.123 10.123 0 0 1 1.5 4z"/><path style="opacity:1" fill="#a199bc" d="M99.5 66.5c1.406.473 2.073 1.473 2 3-1.406-.473-2.073-1.473-2-3z"/><path style="opacity:1" fill="#b9b4cd" d="M29.5 71.5c-1.333-1.333-2.667-1.333-4 0 .12-1.086.787-1.753 2-2 1.213.247 1.88.914 2 2z"/><path style="opacity:1" fill="#a59ebf" d="M37.5 68.5c1.406.473 2.073 1.473 2 3-1.406-.473-2.073-1.473-2-3z"/><path style="opacity:1" fill="#645891" d="M95.5 57.5c-.475 2.582.192 4.582 2 6-.073 1.527.594 2.527 2 3-.073 1.527.594 2.527 2 3 .683 1.677 2.017 2.343 4 2-1.419.951-3.085 1.284-5 1a28.069 28.069 0 0 0 5 9c.641-1.493 1.641-2.493 3-3-1.206 1.937-.873 3.604 1 5 1 .333 1.667 1 2 2 .425 2.62 1.425 4.953 3 7-.426 1.028-.426 2.361 0 4h-1c-.345-2.698-1.678-4.698-4-6 .073-1.527-.594-2.527-2-3 .073-1.527-.594-2.527-2-3-.333-1-1-1.667-2-2 .073-1.527-.594-2.527-2-3 .073-1.527-.594-2.527-2-3 .073-1.527-.594-2.527-2-3-.225-3.046-1.558-5.38-4-7a5.728 5.728 0 0 0-1-3c1.56-1.656 2.56-3.656 3-6z"/><path style="opacity:1" fill="#aaa4c3" d="M105.5 67.5v4c-1.983.343-3.317-.323-4-2 1.699-.027 3.033-.694 4-2z"/><path style="opacity:1" fill="#7a70a0" d="M105.5 67.5h2c-.489 1.495-1.155 2.829-2 4v-4z"/><path style="opacity:1" fill="#7a6fa0" d="M117.5 69.5c-2.132.054-3.465 1.054-4 3h-1c.061-2.092 1.061-3.592 3-4.5 1.316-.528 1.983-.028 2 1.5z"/><path style="opacity:1" fill="#9a92b7" d="m117.5 69.5 2 1v2c-1.406-.473-2.073-1.473-2-3z"/><path style="opacity:1" fill="#b9b4cd" d="M93.5 66.5c2.442 1.62 3.775 3.954 4 7-1.7-2.066-3.032-4.4-4-7z"/><path style="opacity:1" fill="#7e74a3" d="M24.5 71.5c-.432 1.21-1.099 2.21-2 3-.215-1.679.452-2.679 2-3z"/><path style="opacity:1" fill="#aba4c2" d="m29.5 71.5 2 1v2l-2-1v-2z"/><path style="opacity:1" fill="#a59ebf" d="M39.5 71.5c1.406.473 2.073 1.473 2 3l-2-1v-2z"/><path style="opacity:1" fill="#f9f9fb" d="M113.5 72.5c2.953-.35 5.287.65 7 3 .901.79 1.568 1.79 2 3l-2 7c-1.5 1.088-2.833 2.42-4 4a5.577 5.577 0 0 0-3-1 5.727 5.727 0 0 0-1-3 319.756 319.756 0 0 0-2-5 28.847 28.847 0 0 0 3-8z"/><path style="opacity:1" fill="#d9d6e4" d="M117.5 69.5c-.073 1.527.594 2.527 2 3 .61.891.943 1.891 1 3-1.713-2.35-4.047-3.35-7-3 .535-1.946 1.868-2.946 4-3z"/><path style="opacity:1" fill="#746a9c" d="M239.5 77.5c-.992.172-1.658-.162-2-1-3.311-2.478-7.145-3.478-11.5-3-2.929.025-5.429.691-7.5 2h-2a5.728 5.728 0 0 0-3 1c.835-1.443 2.168-2.443 4-3 7.469-1.439 14.803-1.105 22 1v3z"/><path style="opacity:1" fill="#766c9d" d="M352.5 73.5a103.017 103.017 0 0 0-19 1c2.758-1.318 5.924-1.985 9.5-2 3.352.002 6.518.335 9.5 1z"/><path style="opacity:1" fill="#776d9f" d="m446.5 77.5-4-1-3-2c-5.234-1.302-10.567-1.302-16 0 2.415-1.314 5.248-1.98 8.5-2 4.783-.296 9.283.537 13.5 2.5.752.67 1.086 1.504 1 2.5z"/><path style="opacity:1" fill="#695e94" d="M204.5 75.5h-1c-4-1.333-8-1.333-12 0h-12a374.994 374.994 0 0 0 19-3l5 .5c.752.67 1.086 1.504 1 2.5z"/><path style="opacity:1" fill="#bab5ce" d="M237.5 76.5c-6.251-2.084-12.585-2.417-19-1 2.071-1.309 4.571-1.975 7.5-2 4.355-.478 8.189.522 11.5 3z"/><path style="opacity:1" fill="#8279a6" d="M352.5 73.5c2.398-.24 4.398.426 6 2h-4l-2-2z"/><path style="opacity:1" fill="#b6b0cb" d="M439.5 74.5a75.414 75.414 0 0 0-16 1v-1c5.433-1.302 10.766-1.302 16 0z"/><path style="opacity:1" fill="#c6c2d6" d="M97.5 73.5c1.406.473 2.073 1.473 2 3-1.406-.473-2.073-1.473-2-3z"/><path style="opacity:1" fill="#aea8c6" d="M150.5 75.5v-1h11v61a871.15 871.15 0 0 1-1-59c-3.125-.98-6.458-1.313-10-1z"/><path style="opacity:1" fill="#9d95b9" d="M191.5 75.5c4-1.333 8-1.333 12 0v1c-3.564-.923-7.231-1.256-11-1h-1z"/><path style="opacity:1" fill="#bbb6ce" d="m352.5 73.5 2 2h-2a45.795 45.795 0 0 0-12-1 34.505 34.505 0 0 0-11 3c.6-1.4 1.6-2.4 3-3h1a103.017 103.017 0 0 1 19-1z"/><path style="opacity:1" fill="#fdfdfe" d="M340.5 74.5c4.066-.193 8.066.14 12 1a118.666 118.666 0 0 1 11 5 25.227 25.227 0 0 0 2.5 8c-.155 16.032.679 31.699 2.5 47h1v2c.304.65.637 1.317 1 2l8 2c-5.027 2.505-10.36 3.505-16 3-.473-1.406-1.473-2.073-3-2l-1.5-6c-3.02-.8-3.854-2.467-2.5-5 1.157-8.49 1.324-17.157.5-26a9.454 9.454 0 0 0-2.5-1.5c.752-.671 1.086-1.504 1-2.5 3.14-7.273 2.306-14.273-2.5-21-.671-.752-1.504-1.086-2.5-1-3.118-2.398-6.784-3.565-11-3.5.916-.278 1.582-.778 2-1.5z"/><path style="opacity:1" fill="#ebe9f0" d="m439.5 74.5 3 2c-7.052-1.157-14.052-.824-21 1l1-2h1a75.414 75.414 0 0 1 16-1z"/><path style="opacity:1" fill="#7c72a2" d="M22.5 74.5a5.728 5.728 0 0 0-1 3h-1c-.215-1.679.452-2.679 2-3z"/><path style="opacity:1" fill="#a6a0c0" d="M41.5 74.5c2.667 1.333 2.667 2.667 0 4v-4z"/><path style="opacity:1" fill="#c5c0d6" d="M179.5 75.5h13v1h-12v4h3v1h-4v-6z"/><path style="opacity:1" fill="#fcfcfd" d="M237.5 76.5c.342.838 1.008 1.172 2 1 .333 1 1 1.667 2 2-.073 1.527.594 2.527 2 3v2c.64 17.128 1.306 34.128 2 51l2 1c.901 2.227 2.567 3.227 5 3 1.306.967 1.973 2.301 2 4h-30v-3c2.747.313 5.414-.02 8-1 .363-.683.696-1.35 1-2 1.161-15.495 1.328-31.161.5-47-.708-.88-1.542-1.547-2.5-2 .073-1.527-.594-2.527-2-3 0-1.333-.667-2-2-2-.453-.958-1.119-1.792-2-2.5-2.867-.8-5.534-.634-8 .5-1.459-.067-2.792.266-4 1-2.748.098-3.414-.902-2-3a21.622 21.622 0 0 0 5-4h2c6.415-1.417 12.749-1.084 19 1z"/><path style="opacity:1" fill="#b5afca" d="m285.5 54.5 2 20c6.145.99 12.478 1.323 19 1 .295 2.235-.039 4.235-1 6v-5h-20v-22z"/><path style="opacity:1" fill="#fdfcfd" d="m442.5 76.5 4 1c.667 0 1 .333 1 1v1a29.56 29.56 0 0 0 3.5 9l1 45c.278.916.778 1.582 1.5 2-.172.992.162 1.658 1 2-.086.996.248 1.829 1 2.5 1.438.219 2.771.719 4 1.5a113.23 113.23 0 0 1-26 .5c.556-.383.889-.883 1-1.5 4.101.07 6.601-1.93 7.5-6 .667-13 .667-26 0-39-.278-.916-.778-1.582-1.5-2 .475-2.813-.525-4.813-3-6-.667-2.667-2.333-4.333-5-5-1.548-1.294-3.548-1.96-6-2-2.452.04-4.452.706-6 2h-1a4.932 4.932 0 0 1-3-.5c2.118-1.05 3.784-2.55 5-4.5 6.948-1.824 13.948-2.157 21-1z"/><path style="opacity:1" fill="#d5d2e1" d="m29.5 73.5 2 1c1.1 1.105 1.767 2.438 2 4-2.087-1.085-3.42-2.751-4-5z"/><path style="opacity:1" fill="#8c83ad" d="M111.5 73.5c-1.517 3.087-2.184 6.42-2 10-1.873-1.396-2.206-3.063-1-5 .61-1.934 1.61-3.6 3-5z"/><path style="opacity:1" fill="#d1cede" d="M112.5 72.5h1a28.847 28.847 0 0 1-3 8 319.756 319.756 0 0 1 2 5h-1c-.333-1-1-1.667-2-2-.184-3.58.483-6.913 2-10 .667 0 1-.333 1-1z"/><path style="opacity:1" fill="#fcfcfd" d="M160.5 76.5a871.15 871.15 0 0 0 1 59c1 .333 1.667 1 2 2 .901 2.227 2.567 3.227 5 3 .111.617.444 1.117 1 1.5-9 .667-18 .667-27 0 .556-.383.889-.883 1-1.5a8.43 8.43 0 0 0 4-.5 20.532 20.532 0 0 1 2.5-4.5c.828-16.172.661-32.172-.5-48-.667 0-1-.333-1-1-.667-2.667-2.333-4.333-5-5h-2a19.62 19.62 0 0 0-3.5-2c-.617-.95-.451-1.782.5-2.5a242.43 242.43 0 0 1 22-.5zM192.5 76.5h9v9c2.281-.423 3.948.244 5 2-1 .333-1.667 1-2 2-1.331 7.47-1.998 15.304-2 23.5l.5 23.5c.816 1.323 1.983 1.989 3.5 2 1.49 1.78 3.49 2.446 6 2v3h-31c.194-2.412 1.527-3.412 4-3 3.308.526 5.474-.807 6.5-4a417.27 417.27 0 0 0-.5-50c-1.279-3.956-3.946-5.956-8-6h-3v-4h12z"/><path style="opacity:1" fill="#7f75a4" d="M203.5 75.5h1c-.163 2.357.003 4.69.5 7 .816-1.323 1.983-1.99 3.5-2-.901 2.227-2.567 3.227-5 3v-8z"/><path style="opacity:1" fill="#847aa8" d="M332.5 74.5c-1.4.6-2.4 1.6-3 3-1.459-.067-2.792.266-4 1 1.527-2.568 3.861-3.901 7-4z"/><path style="opacity:1" fill="#e7e6ee" d="M340.5 74.5c-.418.722-1.084 1.222-2 1.5 4.216-.065 7.882 1.102 11 3.5h-2c-3.7-1.258-7.366-1.258-11 0l-4 1c-.291-1.15-1.124-1.816-2.5-2a24.314 24.314 0 0 0-5.5 2l1-2c1.208-.734 2.541-1.067 4-1a34.505 34.505 0 0 1 11-3z"/><path style="opacity:1" fill="#8279a6" d="M358.5 75.5c3.232.272 5.232 1.938 6 5h-1a53.19 53.19 0 0 0-5-5z"/><path style="opacity:1" fill="#fbfbfc" d="M409.5 85.5c1.051.722 1.718 1.722 2 3-.838.342-1.172 1.008-1 2-1.331 7.303-1.998 14.97-2 23l1 23c.765 1.112 1.765 1.779 3 2 1.418 1.808 3.418 2.475 6 2v3h-30v-3c2.357.163 4.69-.003 7-.5 1.537-1.11 2.203-2.61 2-4.5.167-16.67 0-33.337-.5-50-1.451-1.964-3.284-3.297-5.5-4a5.728 5.728 0 0 1-3-1c-1.184-1.188-1.184-2.355 0-3.5 6.658-.5 13.325-.666 20-.5-.31 3.213.023 6.213 1 9z"/><path style="opacity:1" fill="#d3d0e0" d="M387.5 75.5h22c-.555 3.512.112 6.512 2 9-.342.838-1.008 1.172-2 1-.977-2.787-1.31-5.787-1-9-6.675-.166-13.342 0-20 .5-1.184 1.145-1.184 2.312 0 3.5-2.347-1.107-2.68-2.774-1-5z"/><path style="opacity:1" fill="#8a81ac" d="m413.5 82.5-2 2c-1.888-2.488-2.555-5.488-2-9h-24c7.828-1.156 15.828-1.656 24-1.5.944 2.72 1.277 5.552 1 8.5h3z"/><path style="opacity:1" fill="#aba4c3" d="m422.5 75.5-1 2h-2c.473-1.406 1.473-2.073 3-2z"/><path style="opacity:1" fill="#c5c1d5" d="M99.5 76.5c1.406.473 2.073 1.473 2 3-1.406-.473-2.073-1.473-2-3z"/><path style="opacity:1" fill="#dddae7" d="M352.5 75.5h6a53.19 53.19 0 0 1 5 5 118.666 118.666 0 0 0-11-5z"/><path style="opacity:1" fill="#9b94b8" d="M385.5 75.5h2c-1.68 2.226-1.347 3.893 1 5 .891.61 1.891.943 3 1v1c-5.406.765-7.406-1.569-6-7z"/><path style="opacity:1" fill="#8f87b0" d="M150.5 74.5v1a84.94 84.94 0 0 0-13 .5c-1.992 4.152-.659 5.985 4 5.5h2l1 2a99.987 99.987 0 0 0-8-1.5c-.935-2.38-1.268-4.88-1-7.5h15z"/><path style="opacity:1" fill="#bbb6ce" d="M216.5 75.5a21.622 21.622 0 0 1-5 4h-1a6.544 6.544 0 0 1 3-3 5.728 5.728 0 0 1 3-1z"/><path style="opacity:1" fill="#fafafc" d="M332.5 80.5c.063 4.95-.271 9.95-1 15h-1c-8.97 2.528-12.137-.806-9.5-10 1.039-.744 1.539-1.744 1.5-3 .333-1 1-1.667 2-2a24.314 24.314 0 0 1 5.5-2c1.376.184 2.209.85 2.5 2z"/><path style="opacity:1" fill="#7f76a4" d="M347.5 79.5v1h-11v-1c3.634-1.258 7.3-1.258 11 0z"/><path style="opacity:1" fill="#a8a1c1" d="M347.5 80.5v-1h2l1 2a5.728 5.728 0 0 1-3-1z"/><path style="opacity:1" fill="#cfcbdc" d="M33.5 78.5c1.406.473 2.073 1.473 2 3-1.406-.473-2.073-1.473-2-3z"/><path style="opacity:1" fill="#7c72a2" d="M31.5 72.5a62.14 62.14 0 0 0 6.5 8c1.732-.234 2.566-1.234 2.5-3-.346-1.35-.679-2.683-1-4l2 1v4c-.738 4.495-2.738 5.495-6 3 .073-1.527-.594-2.527-2-3-.233-1.562-.9-2.895-2-4v-2z"/><path style="opacity:1" fill="#c2bed4" d="M101.5 79.5c1.406.473 2.073 1.473 2 3-1.406-.473-2.073-1.473-2-3z"/><path style="opacity:1" fill="#8178a6" d="M119.5 70.5c2.553 2.844 4.22 6.177 5 10 .214 2.442-.786 4.109-3 5a319.756 319.756 0 0 1 2-5c-.043-.916-.376-1.583-1-2-.432-1.21-1.099-2.21-2-3a5.727 5.727 0 0 0-1-3v-2z"/><path style="opacity:1" fill="#cfcbdc" d="M150.5 75.5c3.542-.313 6.875.02 10 1a242.43 242.43 0 0 0-22 .5c-.951.718-1.117 1.55-.5 2.5a19.62 19.62 0 0 1 3.5 2c-4.659.485-5.992-1.348-4-5.5a84.94 84.94 0 0 1 13-.5z"/><path style="opacity:1" fill="#dad7e4" d="M217.5 81.5c2.466-1.134 5.133-1.3 8-.5.881.708 1.547 1.542 2 2.5h-2c-.111-.617-.444-1.117-1-1.5a24.939 24.939 0 0 0-7-.5z"/><path style="opacity:1" fill="#a8a1c1" d="M241.5 79.5c1.406.473 2.073 1.473 2 3-1.406-.473-2.073-1.473-2-3z"/><path style="opacity:1" fill="#d8d5e3" d="M261.5 75.5h12c-3.184 1.914-6.851 2.58-11 2v3a60.94 60.94 0 0 1 11 .5c.752.67 1.086 1.504 1 2.5h-1c-3.798-.983-7.798-1.317-12-1v-7z"/><path style="opacity:1" fill="#a8a1c1" d="M336.5 79.5v1c-.667 0-1 .333-1 1-1.775 3.886-2.608 8.22-2.5 13-.383.556-.883.89-1.5 1a96.272 96.272 0 0 0 1-15l4-1z"/><path style="opacity:1" fill="#9b94b8" d="M419.5 77.5a575.787 575.787 0 0 1-6 5c.768-3.062 2.768-4.728 6-5z"/><path style="opacity:1" fill="#e0dde9" d="M432.5 82.5h-2c-3.231-1.281-6.564-1.281-10 0 1.548-1.294 3.548-1.96 6-2 2.452.04 4.452.706 6 2z"/><path style="opacity:1" fill="#d8d5e3" d="M143.5 81.5c2.667.667 4.333 2.333 5 5h-1a6.544 6.544 0 0 0-3-3l-1-2z"/><path style="opacity:1" fill="#a8a1c1" d="M184.5 82.5v-1c1.527-.073 2.527.594 3 2a5.728 5.728 0 0 1-3-1z"/><path style="opacity:1" fill="#a59fbf" d="M217.5 81.5c2.357-.163 4.69.003 7 .5.556.383.889.883 1 1.5-4-1.333-8-1.333-12 0v-1c1.208-.734 2.541-1.067 4-1z"/><path style="opacity:1" fill="#7c71a1" d="M347.5 80.5c.891.61 1.891.943 3 1 4.883 5.558 6.216 11.891 4 19 .806-7.922-1.527-14.588-7-20z"/><path style="opacity:1" fill="#aaa4c3" d="M20.5 77.5h1c-1.365 2.25-1.031 4.25 1 6l1 2h-1c-2.756-2.247-3.422-4.914-2-8z"/><path style="opacity:1" fill="#c7c3d7" d="M122.5 78.5c.624.417.957 1.084 1 2a319.756 319.756 0 0 0-2 5h-1l2-7z"/><path style="opacity:1" fill="#dfdce8" d="M192.5 76.5v-1c3.769-.256 7.436.077 11 1v7c2.433.227 4.099-.773 5-3l2-1h1c-1.414 2.098-.748 3.098 2 3v1c-.992-.172-1.658.162-2 1a11.743 11.743 0 0 0-5 3c-1.052-1.756-2.719-2.423-5-2v-9h-9z"/><path style="opacity:1" fill="#7c71a1" d="M306.5 75.5c.656 1.122.989 2.455 1 4-.085 1.833-.752 3.166-2 4h-18l18-2c.961-1.765 1.295-3.765 1-6z"/><path style="opacity:1" fill="#9087b0" d="m325.5 78.5-1 2c-1 .333-1.667 1-2 2-3.067 2.516-4.401 5.849-4 10-1.889-6.623.444-11.29 7-14z"/><path style="opacity:1" fill="#a7a0c0" d="M430.5 82.5c-2.559-.302-4.893.032-7 1h-4v-1h1c3.436-1.281 6.769-1.281 10 0z"/><path style="opacity:1" fill="#7a70a0" d="M423.5 83.5c2.107-.968 4.441-1.302 7-1h2l1 2a44.83 44.83 0 0 0-10-1z"/><path style="opacity:1" fill="#695d94" d="M225.5 83.5h2c1.333 0 2 .667 2 2v2c-6.159-3.64-12.493-3.973-19-1l1-2c.342-.838 1.008-1.172 2-1 4-1.333 8-1.333 12 0z"/><path style="opacity:1" fill="#b3adc8" d="M432.5 82.5c2.667.667 4.333 2.333 5 5l-4-3-1-2z"/><path style="opacity:1" fill="#887eaa" d="M447.5 79.5v-1c.996-.086 1.829.248 2.5 1a15.024 15.024 0 0 1 2.5 8l-5-8z"/><path style="opacity:1" fill="#aea8c5" d="M227.5 83.5c1.333 0 2 .667 2 2-1.333 0-2-.667-2-2z"/><path style="opacity:1" fill="#675c93" d="M261.5 75.5v1c-.968 2.107-1.302 4.44-1 7h12a576.625 576.625 0 0 0 1 48c-.329 2.728.337 5.062 2 7-.271 1.88.396 3.213 2 4l1 2c-2.591-.754-4.424-2.421-5.5-5a559.272 559.272 0 0 1-1.5-55 72.442 72.442 0 0 1-12-.5c-.944-2.72-1.277-5.552-1-8.5h3z"/><path style="opacity:1" fill="#9088b0" d="M261.5 76.5v6c4.202-.317 8.202.017 12 1v48a576.625 576.625 0 0 1-1-48h-12c-.302-2.56.032-4.893 1-7z"/><path style="opacity:1" fill="#d6d3e2" d="M273.5 83.5h1a821.756 821.756 0 0 0 1 55c-1.663-1.938-2.329-4.272-2-7v-48z"/><path style="opacity:1" fill="#e4e2ec" d="M285.5 76.5h20v5a98.282 98.282 0 0 0-19.5 1c-.828 15.172-.661 30.172.5 45 .354 3.48 1.687 6.48 4 9-1.517-.011-2.684-.677-3.5-2l-2-6a552.224 552.224 0 0 1 0-47 98.282 98.282 0 0 1 19.5-1v-3c-6.522.323-12.855-.01-19-1z"/><path style="opacity:1" fill="#b8b2cc" d="m305.5 81.5-18 2a484.727 484.727 0 0 0-1 44c-1.161-14.828-1.328-29.828-.5-45a98.282 98.282 0 0 1 19.5-1z"/><path style="opacity:1" fill="#72679a" d="M287.5 83.5h18c-5.475.989-11.142 1.322-17 1a576.95 576.95 0 0 0 1 48 514.367 514.367 0 0 1 3 4h-2c-2.313-2.52-3.646-5.52-4-9a484.727 484.727 0 0 1 1-44z"/><path style="opacity:1" fill="#a19abc" d="M419.5 83.5c-.473 1.406-1.473 2.073-3 2 .473-1.406 1.473-2.073 3-2z"/><path style="opacity:1" fill="#9e97ba" d="M105.5 84.5c1.406.473 2.073 1.473 2 3-1.406-.473-2.073-1.473-2-3z"/><path style="opacity:1" fill="#978fb5" d="m211.5 84.5-1 2c-2.904 1.114-4.904 3.114-6 6h-1a5.727 5.727 0 0 1 1-3c.333-1 1-1.667 2-2a11.743 11.743 0 0 1 5-3z"/><path style="opacity:1" fill="#d9d6e4" d="M103.5 82.5c1 .333 1.667 1 2 2-.073 1.527.594 2.527 2 3v2c-2.442-1.62-3.775-3.954-4-7z"/><path style="opacity:1" fill="#a29bbd" d="M229.5 85.5c1.406.473 2.073 1.473 2 3h-1c0-.667-.333-1-1-1v-2z"/><path style="opacity:1" fill="#e8e7ef" d="M419.5 77.5h2c-1.216 1.95-2.882 3.45-5 4.5.948.483 1.948.65 3 .5v1c-1.527-.073-2.527.594-3 2a11.743 11.743 0 0 0-5 3c-.282-1.278-.949-2.278-2-3 .992.172 1.658-.162 2-1l2-2c2.04-1.677 4.04-3.344 6-5z"/><path style="opacity:1" fill="#7f75a4" d="M120.5 85.5h1c.073 1.527-.594 2.527-2 3a5.727 5.727 0 0 1 1-3z"/><path style="opacity:1" fill="#8177a5" d="M243.5 82.5c2.475 1.187 3.475 3.187 3 6h-1c.271-1.88-.396-3.213-2-4v-2z"/><path style="opacity:1" fill="#8e86af" d="M365.5 82.5c2.227.9 3.227 2.567 3 5a602.983 602.983 0 0 1 1 48h-1a1362.25 1362.25 0 0 1-1.5-50c-1.039-.744-1.539-1.744-1.5-3z"/><path style="opacity:1" fill="#9c94b8" d="M107.5 87.5c1.406.473 2.073 1.473 2 3l-2-1v-2z"/><path style="opacity:1" fill="#6e6397" d="M184.5 82.5c.891.61 1.891.943 3 1 1.1 1.105 1.767 2.438 2 4v48c.172.992-.162 1.658-1 2 .167-17.003 0-34.003-.5-51-1.627-1.032-2.793-2.366-3.5-4z"/><path style="opacity:1" fill="#71669a" d="M335.5 81.5a116.336 116.336 0 0 0-1.5 14 9.175 9.175 0 0 1-4.5 2l1-2h1c.617-.11 1.117-.444 1.5-1-.108-4.78.725-9.114 2.5-13z"/><path style="opacity:1" fill="#7d73a3" d="M22.5 85.5h1c.998 3.474 2.832 6.474 5.5 9 .765 1.566.598 2.9-.5 4-2.756-3.912-4.756-8.246-6-13z"/><path style="opacity:1" fill="#786e9f" d="M111.5 85.5h1c.61.891.943 1.891 1 3 .999 2.674 2.666 3.34 5 2-.683 1.677-2.017 2.343-4 2-1.575-2.047-2.575-4.38-3-7z"/><path style="opacity:1" fill="#c1bcd3" d="M120.5 85.5a5.727 5.727 0 0 0-1 3l-1 2c-2.334 1.34-4.001.674-5-2a5.577 5.577 0 0 1 3 1c1.167-1.58 2.5-2.912 4-4z"/><path style="opacity:1" fill="#706599" d="M144.5 83.5a6.544 6.544 0 0 1 3 3v49c.172.992-.162 1.658-1 2 .167-17.003 0-34.003-.5-51-1.039-.744-1.539-1.744-1.5-3z"/><path style="opacity:1" fill="#eae8f0" d="M183.5 81.5v-1c4.054.044 6.721 2.044 8 6a417.27 417.27 0 0 1 .5 50c-1.026 3.193-3.192 4.526-6.5 4v-1c1.527.073 2.527-.594 3-2 .838-.342 1.172-1.008 1-2 1.331-7.638 1.998-15.638 2-24-.002-8.362-.669-16.362-2-24-.233-1.562-.9-2.895-2-4-.473-1.406-1.473-2.073-3-2h-1z"/><path style="opacity:1" fill="#b0abc7" d="M416.5 85.5c-1 1.667-2.333 3-4 4l-2 2v-1c-.172-.992.162-1.658 1-2a11.743 11.743 0 0 1 5-3z"/><path style="opacity:1" fill="#bfbad2" d="M147.5 86.5h1c0 .667.333 1 1 1 .167 15.67 0 31.337-.5 47-.383.556-.883.889-1.5 1v-49z"/><path style="opacity:1" fill="#ecebf1" d="M149.5 87.5c1.161 15.828 1.328 31.828.5 48a20.532 20.532 0 0 0-2.5 4.5 8.43 8.43 0 0 1-4 .5v-1c1.527.073 2.527-.594 3-2 .838-.342 1.172-1.008 1-2 .617-.111 1.117-.444 1.5-1 .5-15.663.667-31.33.5-47z"/><path style="opacity:1" fill="#bdb7d0" d="M189.5 87.5c1.331 7.638 1.998 15.638 2 24-.002 8.362-.669 16.362-2 24v-48z"/><path style="opacity:1" fill="#9d96b9" d="M391.5 82.5v-1c2.216.703 4.049 2.036 5.5 4 .5 16.663.667 33.33.5 50h-2c.167-16.67 0-33.337-.5-50a14.694 14.694 0 0 0-3.5-3z"/><path style="opacity:1" fill="#cfccdd" d="M22.5 83.5c2.699 3.008 5.199 6.341 7.5 10 .738 3.403.238 6.57-1.5 9.5a53.508 53.508 0 0 0 1 4.5l-3-2c-1.333-1.333-1.333-2.667 0-4 .901-.79 1.568-1.79 2-3 1.098-1.1 1.265-2.434.5-4-2.668-2.526-4.502-5.526-5.5-9l-1-2z"/><path style="opacity:1" fill="#d9d6e4" d="M410.5 90.5v1c-.666 6.992-1 14.159-1 21.5.003 7.533.669 14.699 2 21.5v2l1 2c-1.235-.221-2.235-.888-3-2l-1-23c.002-8.03.669-15.697 2-23z"/><path style="opacity:1" fill="#928ab1" d="M109.5 90.5c2.322 1.302 3.655 3.302 4 6-1.826-1.647-3.16-3.647-4-6z"/><path style="opacity:1" fill="#655a92" d="M246.5 88.5c1.985 15.632 2.651 31.632 2 48h-1a589.47 589.47 0 0 0-1-48z"/><path style="opacity:1" fill="#62568f" d="M368.5 87.5c.617.11 1.117.444 1.5 1 .5 15.663.667 31.33.5 47h-1a602.983 602.983 0 0 0-1-48z"/><path style="opacity:1" fill="#c9c5d9" d="M204.5 89.5a5.727 5.727 0 0 0-1 3c-.167 14.337 0 28.671.5 43 .383.556.883.889 1.5 1l1 2c-1.517-.011-2.684-.677-3.5-2l-.5-23.5c.002-8.196.669-16.03 2-23.5z"/><path style="opacity:1" fill="#7a70a0" d="M203.5 92.5h1c-.3 14.715.033 29.382 1 44-.617-.111-1.117-.444-1.5-1a924.222 924.222 0 0 1-.5-43z"/><path style="opacity:1" fill="#aaa4c2" d="M245.5 88.5h1a589.47 589.47 0 0 1 1 48l-2-1v-47z"/><path style="opacity:1" fill="#d9d6e4" d="M349.5 79.5c.996-.086 1.829.248 2.5 1 4.806 6.727 5.64 13.727 2.5 21v-1c2.216-7.109.883-13.442-4-19l-1-2z"/><path style="opacity:1" fill="#e1dfea" d="M363.5 80.5h1l1 2c-.039 1.256.461 2.256 1.5 3 .195 16.71.695 33.377 1.5 50-1.821-15.301-2.655-30.968-2.5-47a25.227 25.227 0 0 1-2.5-8z"/><path style="opacity:1" fill="#776d9e" d="M412.5 89.5a579.494 579.494 0 0 0-1 45c-1.331-6.801-1.997-13.967-2-21.5 0-7.341.334-14.508 1-21.5l2-2z"/><path style="opacity:1" fill="#ccc8db" d="m447.5 79.5 5 8c.838.342 1.172 1.008 1 2v46c-.722-.418-1.222-1.084-1.5-2l-1-45a29.56 29.56 0 0 1-3.5-9z"/><path style="opacity:1" fill="#e5e2ec" d="M243.5 84.5c1.604.787 2.271 2.12 2 4v47c-.694-16.872-1.36-33.872-2-51z"/><path style="opacity:1" fill="#796fa0" d="M318.5 92.5c.719 1.591 1.719 3.091 3 4.5 2.646.497 5.313.664 8 .5-2.804 1.138-5.804 1.305-9 .5-1.655-1.444-2.322-3.278-2-5.5z"/><path style="opacity:1" fill="#cfccdd" d="M322.5 82.5c.039 1.256-.461 2.256-1.5 3-2.637 9.194.53 12.528 9.5 10l-1 2a32.438 32.438 0 0 1-8-.5c-1.281-1.409-2.281-2.909-3-4.5-.401-4.151.933-7.484 4-10z"/><path style="opacity:1" fill="#887faa" d="M230.5 88.5h1c-.039 1.256.461 2.256 1.5 3 .5 15.33.667 30.663.5 46h-2a207.7 207.7 0 0 0-1-49z"/><path style="opacity:1" fill="#d7d4e2" d="M231.5 88.5c.958.453 1.792 1.12 2.5 2 .828 15.839.661 31.505-.5 47 .167-15.337 0-30.67-.5-46-1.039-.744-1.539-1.744-1.5-3z"/><path style="opacity:1" fill="#efeef3" d="M440.5 93.5c.722.418 1.222 1.084 1.5 2 .667 13 .667 26 0 39-.899 4.07-3.399 6.07-7.5 6v-1h1c1.904-.238 3.238-1.238 4-3v-2a420.766 420.766 0 0 0 1-41z"/><path style="opacity:1" fill="#776c9e" d="M437.5 89.5c.617.11 1.117.444 1.5 1 .5 14.663.667 29.33.5 44v2h-1a578.59 578.59 0 0 0-1-47z"/><path style="opacity:1" fill="#bdb8d0" d="M437.5 87.5c2.475 1.187 3.475 3.187 3 6a420.766 420.766 0 0 1-1 41c.167-14.67 0-29.337-.5-44-.383-.556-.883-.89-1.5-1v-2z"/><path style="opacity:1" fill="#7f75a4" d="M28.5 98.5c-.432 1.21-1.099 2.21-2 3-.215-1.679.452-2.679 2-3z"/><path style="opacity:1" fill="#7c72a2" d="M354.5 100.5v1a83.453 83.453 0 0 0-16 6 51.287 51.287 0 0 0-15 5c.848-1.593 2.181-2.76 4-3.5 8.93-3.367 17.93-6.2 27-8.5z"/><path style="opacity:1" fill="#e3e1eb" d="M354.5 101.5c.086.996-.248 1.829-1 2.5.916.374 1.75.874 2.5 1.5.824 8.843.657 17.51-.5 26v-24c-1.446-1.113-3.113-1.28-5-.5-1.619.236-2.619 1.069-3 2.5h-3a31.147 31.147 0 0 1 2-2l-2-1a19.048 19.048 0 0 1-6 1 83.453 83.453 0 0 1 16-6z"/><path style="opacity:1" fill="#8e85af" d="m26.5 105.5 3 2c.285 1.915-.049 3.581-1 5 .1-2.608-.567-4.942-2-7z"/><path style="opacity:1" fill="#9b94b8" d="M113.5 96.5h1c4.31 5.114 3.977 9.78-1 14a19.25 19.25 0 0 1 3-6.5 33.69 33.69 0 0 0-3-7.5z"/><path style="opacity:1" fill="#a6a0c0" d="M355.5 107.5c-1.599-.268-2.932.066-4 1a5.727 5.727 0 0 0-3 1h-1c.381-1.431 1.381-2.264 3-2.5 1.887-.78 3.554-.613 5 .5z"/><path style="opacity:1" fill="#fafafb" d="M344.5 109.5c-1.527-.073-2.527.594-3 2a5.727 5.727 0 0 0-3 1c-1.679-.215-2.679.452-3 2-2.031 1.039-3.364 2.705-4 5-.617.111-1.117.444-1.5 1a72.367 72.367 0 0 0-.5 12c-.073 1.527.594 2.527 2 3 0 2 1 3 3 3 3.244 1.612 6.911 2.612 11 3-8.953 4.178-17.62 3.845-26-1-2.395-5.425-3.228-11.092-2.5-17a103.79 103.79 0 0 0 3.5-7c6.1-2.758 12.1-5.758 18-9a19.048 19.048 0 0 0 6-1l2 1a31.147 31.147 0 0 0-2 2z"/><path style="opacity:1" fill="#534685" d="M351.5 108.5h2a245.761 245.761 0 0 1-1 24l-6 4a72.367 72.367 0 0 1-12-.5c-1.032-1.627-2.366-2.793-4-3.5a52.392 52.392 0 0 1 1-13c2.043-1.079 3.376-2.746 4-5a5.727 5.727 0 0 1 3-1c3.776-.444 7.109-1.777 10-4a5.727 5.727 0 0 1 3-1z"/><path style="opacity:1" fill="#aaa4c3" d="M344.5 109.5c-.473 1.406-1.473 2.073-3 2 .473-1.406 1.473-2.073 3-2z"/><path style="opacity:1" fill="#8a81ac" d="M113.5 110.5a5.727 5.727 0 0 1-1 3h-1c-.073-1.527.594-2.527 2-3z"/><path style="opacity:1" fill="#dbd8e5" d="M338.5 107.5c-5.9 3.242-11.9 6.242-18 9l3-4a51.287 51.287 0 0 1 15-5z"/><path style="opacity:1" fill="#71669a" d="M344.5 109.5h4c-2.891 2.223-6.224 3.556-10 4v-1a5.727 5.727 0 0 1 3-1c1.527.073 2.527-.594 3-2z"/><path style="opacity:1" fill="#cecadc" d="M338.5 112.5v1a5.727 5.727 0 0 0-3 1c.321-1.548 1.321-2.215 3-2z"/><path style="opacity:1" fill="#7f75a4" d="M28.5 112.5a5.728 5.728 0 0 0-1 3h-1c-.215-1.679.452-2.679 2-3z"/><path style="opacity:1" fill="#cbc7da" d="M29.5 107.5c1.684 3.218 1.017 5.885-2 8a5.728 5.728 0 0 1 1-3c.951-1.419 1.285-3.085 1-5z"/><path style="opacity:1" fill="#8d84ad" d="M111.5 113.5c.073 1.527-.594 2.527-2 3-.073-1.527.594-2.527 2-3z"/><path style="opacity:1" fill="#71669a" d="M117.5 115.5c2.435.77 3.769 2.437 4 5l-2-1-2-4z"/><path style="opacity:1" fill="#948cb3" d="m323.5 112.5-3 4a23.87 23.87 0 0 0-5 6c.831-4.828 3.498-8.162 8-10z"/><path style="opacity:1" fill="#cfccdd" d="M26.5 115.5h1c.073 1.527-.594 2.527-2 3a5.728 5.728 0 0 1 1-3z"/><path style="opacity:1" fill="#dad7e4" d="m117.5 115.5 2 4v2c-.765-1.16-1.765-2.16-3-3-3.969 3.244-5.635 7.244-5 12l-2-1c-.213-2.951.454-5.618 2-8 1.406-.473 2.073-1.473 2-3 .535-1.946 1.868-2.946 4-3z"/><path style="opacity:1" fill="#a29abc" d="M335.5 114.5c-.624 2.254-1.957 3.921-4 5 .636-2.295 1.969-3.961 4-5z"/><path style="opacity:1" fill="#8f87af" d="M351.5 108.5c1.068-.934 2.401-1.268 4-1v24h-1c.325-7.852-.008-15.518-1-23h-2z"/><path style="opacity:1" fill="#887faa" d="M26.5 115.5a5.728 5.728 0 0 0-1 3 10.162 10.162 0 0 0-3 3c.184-2.837 1.518-4.837 4-6z"/><path style="opacity:1" fill="#655991" d="M111.5 113.5h1c-.131.876.202 1.543 1 2 1.495-1.205 2.828-1.205 4 0-2.132.054-3.465 1.054-4 3-1.406.473-2.073 1.473-2 3-3.286 1.892-4.286 4.558-3 8-1.35-.983-2.35-2.316-3-4-1.021 1.688-2.355 3.021-4 4 2.329-4.331 4.662-8.664 7-13h1c1.406-.473 2.073-1.473 2-3z"/><path style="opacity:1" fill="#fcfcfd" d="M119.5 121.5c.667 0 1 .333 1 1a15.414 15.414 0 0 0 2 4.5 99.692 99.692 0 0 0-4 6.5c-1.189.929-2.522 1.262-4 1 .032-2.119-.968-3.452-3-4-.635-4.756 1.031-8.756 5-12 1.235.84 2.235 1.84 3 3z"/><path style="opacity:1" fill="#655a92" d="M353.5 108.5c.992 7.482 1.325 15.148 1 23-.667 0-1 .333-1 1h-1a245.761 245.761 0 0 0 1-24z"/><path style="opacity:1" fill="#a69fbf" d="M113.5 118.5c.073 1.527-.594 2.527-2 3-.073-1.527.594-2.527 2-3z"/><path style="opacity:1" fill="#ada7c4" d="m119.5 119.5 2 1v2h-1c0-.667-.333-1-1-1v-2z"/><path style="opacity:1" fill="#c9c5d8" d="M108.5 116.5c-2.338 4.336-4.671 8.669-7 13-3.384 3.41-6.05 7.41-8 12h-1c4.176-9.155 9.509-17.489 16-25z"/><path style="opacity:1" fill="#8076a4" d="M121.5 120.5c2.924 2.556 3.59 5.556 2 9 .334-2.688-.332-5.021-2-7v-2z"/><path style="opacity:1" fill="#9890b6" d="M111.5 121.5c-1.546 2.382-2.213 5.049-2 8h-1c-1.286-3.442-.286-6.108 3-8z"/><path style="opacity:1" fill="#a29bbc" d="M39.5 124.5c-1.644.31-2.644 1.31-3 3h-1a5.728 5.728 0 0 1 1-3c1-1.333 2-1.333 3 0z"/><path style="opacity:1" fill="#b1acc7" d="M21.5 123.5c-1.333 2-1.333 4 0 6-2.667-2-2.667-4 0-6z"/><path style="opacity:1" fill="#837aa7" d="M331.5 119.5a52.392 52.392 0 0 0-1 13h-1a72.367 72.367 0 0 1 .5-12c.383-.556.883-.889 1.5-1z"/><path style="opacity:1" fill="#71669a" d="M35.5 127.5h1c-1.194 3.863-3.527 6.863-7 9a5.728 5.728 0 0 1 1-3 16.636 16.636 0 0 0 5-6z"/><path style="opacity:1" fill="#d8d5e3" d="M320.5 116.5a103.79 103.79 0 0 1-3.5 7c-.728 5.908.105 11.575 2.5 17l-2-1c-1.844-5.415-2.511-11.082-2-17a23.87 23.87 0 0 1 5-6z"/><path style="opacity:1" fill="#c2bdd4" d="M36.5 124.5a5.728 5.728 0 0 0-1 3 16.636 16.636 0 0 1-5 6c1.291-3.597 3.291-6.597 6-9z"/><path style="opacity:1" fill="#bdb9d0" d="M39.5 125.5v-1c.996-.086 1.83.248 2.5 1a43.067 43.067 0 0 1 1.5 5c.047 1.538-.62 2.538-2 3 1.18-3.126.514-5.792-2-8z"/><path style="opacity:1" fill="#867ca8" d="m109.5 129.5 2 1v2c-1.406-.473-2.073-1.473-2-3z"/><path style="opacity:1" fill="#d6d3e2" d="M25.5 118.5a71.224 71.224 0 0 1-3 9 29.92 29.92 0 0 0 5 8c.765-1.112 1.765-1.779 3-2a5.728 5.728 0 0 0-1 3c-1.857 1.265-3.524.932-5-1-.16-1.653-.826-2.986-2-4-.838-.342-1.172-1.008-1-2-1.333-2-1.333-4 0-6-.172-.992.162-1.658 1-2a10.162 10.162 0 0 1 3-3z"/><path style="opacity:1" fill="#d2cedf" d="M120.5 122.5h1c1.668 1.979 2.334 4.312 2 7-1.869 1.534-3.202 3.534-4 6-1.235.221-2.235.888-3 2a185.977 185.977 0 0 0-3-2c.073-1.527-.594-2.527-2-3v-2c2.032.548 3.032 1.881 3 4 1.478.262 2.811-.071 4-1a99.692 99.692 0 0 1 4-6.5 15.414 15.414 0 0 1-2-4.5z"/><path style="opacity:1" fill="#73699b" d="M123.5 129.5c-.429 2.647-1.762 4.647-4 6 .798-2.466 2.131-4.466 4-6z"/><path style="opacity:1" fill="#847aa7" d="M111.5 132.5c1.406.473 2.073 1.473 2 3-1.406-.473-2.073-1.473-2-3z"/><path style="opacity:1" fill="#afa9c6" d="M329.5 132.5h1c.61.891.943 1.891 1 3-1.406-.473-2.073-1.473-2-3z"/><path style="opacity:1" fill="#7a6fa0" d="M22.5 131.5c1.174 1.014 1.84 2.347 2 4-1.677-.683-2.343-2.017-2-4z"/><path style="opacity:1" fill="#675b93" d="M101.5 129.5c-.801 1.542-1.134 3.208-1 5 1.915-.284 3.581.049 5 1-1.788-.285-3.455.048-5 1-1.16 2.211-2.493 4.211-4 6-.304-2.296-1.304-2.629-3-1 1.95-4.59 4.616-8.59 8-12z"/><path style="opacity:1" fill="#857ba8" d="M39.5 125.5c2.514 2.208 3.18 4.874 2 8a17.91 17.91 0 0 0-4 6h-1c.069-2.584 1.236-4.584 3.5-6 .602-2.721.435-5.387-.5-8z"/><path style="opacity:1" fill="#9a93b7" d="M352.5 132.5h1c-1.796 2.4-4.13 4.067-7 5v-1l6-4z"/><path style="opacity:1" fill="#7f75a4" d="M315.5 122.5c-.511 5.918.156 11.585 2 17-.958-.453-1.792-1.119-2.5-2-.816-5.184-.65-10.184.5-15z"/><path style="opacity:1" fill="#72679a" d="M330.5 132.5c1.634.707 2.968 1.873 4 3.5 3.986.499 7.986.666 12 .5v1c-.992-.172-1.658.162-2 1-4.772.537-9.105-.463-13-3a5.727 5.727 0 0 0-1-3z"/><path style="opacity:1" fill="#8177a5" d="M453.5 89.5c.667 15.505 1.333 31.172 2 47 2.592 1.417 5.259 2.417 8 3 .284 1.915-.049 3.581-1 5 .268-1.599-.066-2.932-1-4a19.507 19.507 0 0 1-7-3c-.838-.342-1.172-1.008-1-2v-46z"/><path style="opacity:1" fill="#7f75a4" d="M205.5 136.5c1.527-.073 2.527.594 3 2h-2l-1-2z"/><path style="opacity:1" fill="#877da9" d="M369.5 135.5h1a31.613 31.613 0 0 0 9 3v1c-3.583.268-6.916-.399-10-2v-2z"/><path style="opacity:1" fill="#faf9fb" d="m105.5 139.5 2 1v2a53.508 53.508 0 0 1 1 4.5 29.291 29.291 0 0 0-2 6.5 13.227 13.227 0 0 1-5 2 304.993 304.993 0 0 0-3-4v-2c-.236-3.329.597-6.329 2.5-9 1.226-2.048 2.726-2.381 4.5-1z"/><path style="opacity:1" fill="#a69fc0" d="M105.5 137.5c1.406.473 2.073 1.473 2 3l-2-1v-2z"/><path style="opacity:1" fill="#74699c" d="M113.5 135.5c.982.641 1.982 1.307 3 2 .765-1.112 1.765-1.779 3-2-.734 1.208-1.067 2.541-1 4-2.867.131-4.533-1.203-5-4z"/><path style="opacity:1" fill="#8177a5" d="M146.5 137.5c-.473 1.406-1.473 2.073-3 2h-4c2.157-.907 4.49-1.573 7-2z"/><path style="opacity:1" fill="#796fa0" d="M165.5 137.5c2.198.375 4.198 1.042 6 2-2.51.446-4.51-.22-6-2z"/><path style="opacity:1" fill="#8076a5" d="M188.5 137.5c-.473 1.406-1.473 2.073-3 2h-4c2.157-.907 4.49-1.573 7-2z"/><path style="opacity:1" fill="#8278a6" d="M247.5 136.5h1a25.648 25.648 0 0 0 7 3h-3c-2.433.227-4.099-.773-5-3z"/><path style="opacity:1" fill="#cdc9db" d="M290.5 136.5h2c4.805.987 9.805 1.321 15 1v4h-1v-3a112.97 112.97 0 0 1-15-.5c-.556-.383-.889-.883-1-1.5z"/><path style="opacity:1" fill="#8177a5" d="M292.5 136.5h16c.284 1.915-.049 3.581-1 5v-4c-5.195.321-10.195-.013-15-1z"/><path style="opacity:1" fill="#bbb6cf" d="M331.5 135.5c3.895 2.537 8.228 3.537 13 3-3.231 1.282-6.564 1.282-10 0-2 0-3-1-3-3z"/><path style="opacity:1" fill="#948cb3" d="m359.5 142.5 1 2a2.428 2.428 0 0 1-2-.5 56.551 56.551 0 0 0-4-5.5 42.252 42.252 0 0 1-7 5c-.086-.996.248-1.829 1-2.5a31.25 31.25 0 0 1 6-3.5l2 .5c.553 1.878 1.553 3.378 3 4.5z"/><path style="opacity:1" fill="#8d85ae" d="M395.5 137.5c-1.135 1.713-2.802 2.38-5 2v-1a20.69 20.69 0 0 0 5-1z"/><path style="opacity:1" fill="#d9d6e4" d="M395.5 135.5h2c.203 1.89-.463 3.39-2 4.5-2.31.497-4.643.663-7 .5v-1h2c2.198.38 3.865-.287 5-2v-2z"/><path style="opacity:1" fill="#8178a6" d="M411.5 136.5a49.32 49.32 0 0 0 8 3c-2.45.202-4.783-.131-7-1l-1-2z"/><path style="opacity:1" fill="#9f98ba" d="M438.5 136.5h1c-.762 1.762-2.096 2.762-4 3a6.547 6.547 0 0 1 3-3z"/><path style="opacity:1" fill="#dbd8e5" d="M231.5 137.5h2c-.304.65-.637 1.317-1 2a16.873 16.873 0 0 1-8 1 17.042 17.042 0 0 0 7-3z"/><path style="opacity:1" fill="#b9b4cd" d="M275.5 138.5c1.174 1.014 1.84 2.347 2 4-1.604-.787-2.271-2.12-2-4z"/><path style="opacity:1" fill="#e2e0ea" d="M354.5 131.5h1c-1.354 2.533-.52 4.2 2.5 5l1.5 6c-1.447-1.122-2.447-2.622-3-4.5l-2-.5a31.25 31.25 0 0 0-6 3.5c-.752.671-1.086 1.504-1 2.5h-1c-2.715 1.623-5.715 2.29-9 2a72.367 72.367 0 0 1-12-.5c-2.514-.881-4.514-2.381-6-4.5 8.38 4.845 17.047 5.178 26 1-4.089-.388-7.756-1.388-11-3 3.436 1.282 6.769 1.282 10 0 .342-.838 1.008-1.172 2-1 2.87-.933 5.204-2.6 7-5 0-.667.333-1 1-1z"/><path style="opacity:1" fill="#cbc7da" d="M36.5 139.5h1c.073 1.527-.594 2.527-2 3a5.728 5.728 0 0 1 1-3z"/><path style="opacity:1" fill="#706499" d="M379.5 138.5c1.193.47 1.86 1.47 2 3-.162 3.826-2.162 5.493-6 5v-1c.761-.891 1.761-1.558 3-2 .929-1.189 1.262-2.522 1-4v-1z"/><path style="opacity:1" fill="#a9a2c1" d="M107.5 140.5c1.406.473 2.073 1.473 2 3l-2-1v-2z"/><path style="opacity:1" fill="#c9c5d8" d="M139.5 139.5h4v1c-2.473-.412-3.806.588-4 3-1.186-1.205-1.186-2.539 0-4z"/><path style="opacity:1" fill="#8177a5" d="M255.5 139.5c1.193.47 1.86 1.47 2 3-.14 1.53-.807 2.53-2 3v-1c1.22-1.55 1.22-3.216 0-5z"/><path style="opacity:1" fill="#8a81ab" d="M36.5 139.5a5.728 5.728 0 0 0-1 3c-1.78 1.49-2.447 3.49-2 6-.978-.311-1.645-.978-2-2 .59-3.235 2.257-5.569 5-7z"/><path style="opacity:1" fill="#edecf2" d="M143.5 140.5c-.111.617-.444 1.117-1 1.5 9 .667 18 .667 27 0-.556-.383-.889-.883-1-1.5 1.548.321 2.215 1.321 2 3h-31c.194-2.412 1.527-3.412 4-3z"/><path style="opacity:1" fill="#dbd9e5" d="M369.5 137.5c3.084 1.601 6.417 2.268 10 2 .262 1.478-.071 2.811-1 4-1.239.442-2.239 1.109-3 2-4.532.318-8.866-.015-13-1 5.64.505 10.973-.495 16-3l-8-2a43.836 43.836 0 0 1-1-2z"/><path style="opacity:1" fill="#ebe9f0" d="M454.5 137.5a19.507 19.507 0 0 0 7 3v3h-31v-3h4c-.111.617-.444 1.117-1 1.5a113.23 113.23 0 0 0 26-.5 10.258 10.258 0 0 0-4-1.5c-.752-.671-1.086-1.504-1-2.5z"/><path style="opacity:1" fill="#9991b6" d="M105.5 135.5v2c-.923-.803-1.923-.97-3-.5a66.743 66.743 0 0 0-5.5 7.5c-.877 2.174-.377 3.841 1.5 5v2l-2-1c-1.333-2.667-1.333-5.333 0-8 1.507-1.789 2.84-3.789 4-6 1.545-.952 3.212-1.285 5-1z"/><path style="opacity:1" fill="#c8c4d8" d="M163.5 137.5h2c1.49 1.78 3.49 2.446 6 2v5c-10.846.328-21.513-.006-32-1h31c.215-1.679-.452-2.679-2-3-2.433.227-4.099-.773-5-3z"/><path style="opacity:1" fill="#cac6da" d="M206.5 138.5h2c1.419.951 3.085 1.284 5 1v5c-10.846.328-21.513-.006-32-1h31v-3c-2.51.446-4.51-.22-6-2z"/><path style="opacity:1" fill="#cac5d9" d="M252.5 139.5h3c1.22 1.784 1.22 3.45 0 5h-32c-.268-1.599.066-2.932 1-4v3h30c-.027-1.699-.694-3.033-2-4z"/><path style="opacity:1" fill="#cdcadc" d="M359.5 142.5c1.527-.073 2.527.594 3 2h-2l-1-2z"/><path style="opacity:1" fill="#ccc8db" d="M412.5 138.5c2.217.869 4.55 1.202 7 1 .801 1.542 1.134 3.208 1 5h-33c-.268-1.599.066-2.932 1-4v3h30v-3c-2.582.475-4.582-.192-6-2z"/><path style="opacity:1" fill="#c4c0d5" d="M91.5 141.5c-.204 2.185-.87 4.185-2 6h-1c.153-2.47 1.153-4.47 3-6z"/><path style="opacity:1" fill="#7c72a2" d="M91.5 141.5h2c-.429 2.647-1.762 4.647-4 6 1.13-1.815 1.796-3.815 2-6z"/><path style="opacity:1" fill="#a099bc" d="M137.5 139.5h2c-1.186 1.461-1.186 2.795 0 4 10.487.994 21.154 1.328 32 1v1c-11.005.167-22.005 0-33-.5-.906-1.699-1.239-3.533-1-5.5z"/><path style="opacity:1" fill="#9d95b9" d="M231.5 137.5a17.042 17.042 0 0 1-7 3c-.934 1.068-1.268 2.401-1 4h32v1h-33c-.202-2.45.131-4.783 1-7a24.93 24.93 0 0 0 8-1z"/><path style="opacity:1" fill="#d5d2e1" d="M277.5 142.5c6.424 1.873 13.091 2.54 20 2-5.475.989-11.142 1.322-17 1l-2-1-1-2z"/><path style="opacity:1" fill="#9c95b9" d="M388.5 139.5v1c-.934 1.068-1.268 2.401-1 4h33c.134-1.792-.199-3.458-1-5 1.193.47 1.86 1.47 2 3-.14 1.53-.807 2.53-2 3h-33c-.475-2.582.192-4.582 2-6z"/><path style="opacity:1" fill="#d3d0e0" d="M35.5 142.5c-.824 1.955-.99 3.955-.5 6 1.503 3.44 4.003 5.44 7.5 6v1a30.968 30.968 0 0 0-2 2 184.223 184.223 0 0 0-3-2c.073-1.527-.594-2.527-2-3 .073-1.527-.594-2.527-2-3v-1c-.447-2.51.22-4.51 2-6z"/><path style="opacity:1" fill="#7b71a1" d="M52.5 145.5a5.727 5.727 0 0 0-3 1c.553-2.052 1.553-2.385 3-1z"/><path style="opacity:1" fill="#e3e1eb" d="M105.5 137.5v2c-1.774-1.381-3.274-1.048-4.5 1-1.903 2.671-2.736 5.671-2.5 9-1.877-1.159-2.377-2.826-1.5-5a66.743 66.743 0 0 1 5.5-7.5c1.077-.47 2.077-.303 3 .5z"/><path style="opacity:1" fill="#dcd9e6" d="m107.5 142.5 2 1c1.333 2.333 1.333 4.667 0 7-1.406.473-2.073 1.473-2 3h-1a29.291 29.291 0 0 1 2-6.5 53.508 53.508 0 0 0-1-4.5z"/><path style="opacity:1" fill="#6c6196" d="M137.5 139.5c-.239 1.967.094 3.801 1 5.5 10.995.5 21.995.667 33 .5-11.159 1.159-22.492 1.326-34 .5-1.311-2.274-1.311-4.44 0-6.5z"/><path style="opacity:1" fill="#6d6297" d="M179.5 139.5c-.239 1.967.094 3.801 1 5.5 11.174.826 22.174.659 33-.5v-5c2.266 1.693 2.6 3.86 1 6.5a306.347 306.347 0 0 1-35 0c-1.311-2.274-1.311-4.44 0-6.5z"/><path style="opacity:1" fill="#a099bb" d="M179.5 139.5h2c-1.186 1.461-1.186 2.795 0 4 10.487.994 21.154 1.328 32 1-10.826 1.159-21.826 1.326-33 .5-.906-1.699-1.239-3.533-1-5.5z"/><path style="opacity:1" fill="#c5c1d6" d="M181.5 139.5h4v1c-2.473-.412-3.806.588-4 3-1.186-1.205-1.186-2.539 0-4z"/><path style="opacity:1" fill="#6a5f95" d="M223.5 138.5c-.869 2.217-1.202 4.55-1 7h33c-11.159 1.159-22.492 1.326-34 .5-1.091-2.064-1.258-4.231-.5-6.5.671-.752 1.504-1.086 2.5-1z"/><path style="opacity:1" fill="#9890b6" d="M306.5 141.5c.131.876-.202 1.543-1 2a71.408 71.408 0 0 1-9 3h-13c-1.291.237-2.291-.096-3-1 5.858.322 11.525-.011 17-1a93.434 93.434 0 0 0 9-3z"/><path style="opacity:1" fill="#948cb3" d="m317.5 139.5 2 1c1.486 2.119 3.486 3.619 6 4.5 3.986.499 7.986.666 12 .5-1.014 1.265-2.514 1.931-4.5 2a38.838 38.838 0 0 1-6.5-1c-4.303-.75-7.303-3.084-9-7z"/><path style="opacity:1" fill="#9189b1" d="M360.5 144.5h2c4.134.985 8.468 1.318 13 1v1a98.432 98.432 0 0 1-14-.5c-.556-.383-.889-.883-1-1.5z"/><path style="opacity:1" fill="#6b6095" d="M390.5 138.5v1h-2c-1.808 1.418-2.475 3.418-2 6h33c-11.159 1.159-22.492 1.326-34 .5-2.48-5.438-.813-7.938 5-7.5z"/><path style="opacity:1" fill="#6d6297" d="M429.5 139.5v6c11.179.328 22.179-.005 33-1 .951-1.419 1.284-3.085 1-5 1.311 2.06 1.311 4.226 0 6.5-11.662.5-23.329.667-35 .5-.302-2.559.032-4.893 1-7z"/><path style="opacity:1" fill="#bdb8d0" d="M429.5 139.5h5v1h-4v3h31v-3c.934 1.068 1.268 2.401 1 4-10.821.995-21.821 1.328-33 1v-6z"/><path style="opacity:1" fill="#bab5ce" d="M53.5 145.5h-1c-1.447-1.385-2.447-1.052-3 1-1.406.473-2.073 1.473-2 3-1.826 1.647-3.16 3.647-4 6h-1v-1c1.887-4.461 4.72-8.128 8.5-11 1.376.184 2.209.851 2.5 2z"/><path style="opacity:1" fill="#655991" d="M283.5 146.5h13c-.111.617-.444 1.117-1 1.5l-6 .5c-2.452-.039-4.452-.706-6-2z"/><path style="opacity:1" fill="#685d94" d="M346.5 143.5c-.304.65-.637 1.317-1 2-5.787 2.465-11.787 3.298-18 2.5-.556-.383-.889-.883-1-1.5 2.117.514 4.284.847 6.5 1 1.986-.069 3.486-.735 4.5-2 3.285.29 6.285-.377 9-2z"/><path style="opacity:1" fill="#7d74a3" d="M88.5 147.5h1c.073 1.527-.594 2.527-2 3a5.728 5.728 0 0 1 1-3z"/><path style="opacity:1" fill="#9088b0" d="M109.5 143.5c1.447.634 2.113 1.801 2 3.5.113 1.699-.553 2.866-2 3.5 1.333-2.333 1.333-4.667 0-7z"/><path style="opacity:1" fill="#857ba8" d="M33.5 149.5c1.406.473 2.073 1.473 2 3-1.406-.473-2.073-1.473-2-3z"/><path style="opacity:1" fill="#c6c1d6" d="M88.5 147.5a5.728 5.728 0 0 0-1 3 10.162 10.162 0 0 0-3 3c.184-2.837 1.518-4.837 4-6z"/><path style="opacity:1" fill="#756a9d" d="m96.5 150.5 2 1a304.993 304.993 0 0 1 3 4v1c-2.607-1.212-4.273-3.212-5-6z"/><path style="opacity:1" fill="#8278a6" d="M109.5 150.5c.073 1.527-.594 2.527-2 3-.073-1.527.594-2.527 2-3z"/><path style="opacity:1" fill="#8e85ae" d="M54.5 148.5c1.516 2.58.849 4.58-2 6 1.13-1.815 1.796-3.815 2-6z"/><path style="opacity:1" fill="#847aa7" d="M35.5 152.5c1.406.473 2.073 1.473 2 3-1.406-.473-2.073-1.473-2-3z"/><path style="opacity:1" fill="#71669a" d="M47.5 149.5c-.345 2.698-1.678 4.698-4 6 .84-2.353 2.174-4.353 4-6z"/><path style="opacity:1" fill="#ccc8db" d="M53.5 145.5c4.34 4.636 3.673 8.636-2 12a5.728 5.728 0 0 1 1-3c2.849-1.42 3.516-3.42 2-6a5.728 5.728 0 0 1-1-3z"/><path style="opacity:1" fill="#72689b" d="M214.5 160.5a11.743 11.743 0 0 0-5-3c-.111-.617-.444-1.117-1-1.5-3.196-.805-6.196-.638-9 .5-1.495.489-2.829 1.155-4 2h-1c.507-1.359 1.507-2.359 3-3 5.729-1.748 11.063-1.082 16 2a5.576 5.576 0 0 1 1 3z"/><path style="opacity:1" fill="#6d6298" d="M303.5 157.5a107.015 107.015 0 0 0-9-2c-1.869.007-3.536.34-5 1h-2c.111-.617.444-1.117 1-1.5a28.717 28.717 0 0 1 13 .5 31.147 31.147 0 0 1 2 2z"/><path style="opacity:1" fill="#7a70a0" d="m361.5 161.5-4-3c-5.333-4-10.667-4-16 0h-1c.507-1.359 1.507-2.359 3-3 5.211-1.464 10.211-.964 15 1.5 1.641 1.129 2.641 2.629 3 4.5z"/><path style="opacity:1" fill="#6a5f95" d="M387.5 155.5a53.805 53.805 0 0 0-14 1c1.897-1.305 4.231-1.971 7-2 2.525.003 4.859.337 7 1z"/><path style="opacity:1" fill="#695d94" d="M413.5 155.5c7.155-1.155 14.488-1.322 22-.5 1.311 2.274 1.311 4.44 0 6.5.284-1.915-.049-3.581-1-5-6.813-.991-13.813-1.325-21-1z"/><path style="opacity:1" fill="#6b6096" d="M462.5 170.5h-1l-2-3c-.418-.722-1.084-1.222-2-1.5 1.82-.2 3.153-1.034 4-2.5-.264-3.257-1.93-5.257-5-6-.111-.617-.444-1.117-1-1.5-4.087-.762-8.087-.596-12 .5 1.897-1.305 4.231-1.971 7-2 6.399-.624 10.399 2.043 12 8-1.139 2.71-1.139 5.376 0 8z"/><path style="opacity:1" fill="#7a70a0" d="M52.5 154.5a5.728 5.728 0 0 0-1 3h-1c-.215-1.679.452-2.679 2-3z"/><path style="opacity:1" fill="#837aa7" d="M106.5 153.5h1c.073 1.527-.594 2.527-2 3a5.727 5.727 0 0 1 1-3z"/><path style="opacity:1" fill="#a29bbd" d="M199.5 156.5c2.804-1.138 5.804-1.305 9-.5.556.383.889.883 1 1.5a34.163 34.163 0 0 0-10-1z"/><path style="opacity:1" fill="#c8c4d8" d="M84.5 153.5c-.975 2.295-2.308 4.295-4 6 .184-2.837 1.518-4.837 4-6z"/><path style="opacity:1" fill="#9289b1" d="M88.5 155.5h1v2c-1.826 1.647-3.16 3.647-4 6h-1a22.584 22.584 0 0 1 4-8z"/><path style="opacity:1" fill="#b7b1cc" d="M106.5 153.5a5.727 5.727 0 0 0-1 3c-1.333 1.333-2.667 1.333-4 0v-1a13.227 13.227 0 0 0 5-2z"/><path style="opacity:1" fill="#bab5ce" d="M165.5 157.5c6.479-.991 13.146-1.324 20-1 1.333 1.667 1.333 3.333 0 5v-4h-20z"/><path style="opacity:1" fill="#a19abc" d="M251.5 155.5c4.969-1.191 8.303.476 10 5l-3-2c-2.107-.968-4.441-1.302-7-1v25c-1.315-8.902-1.315-17.902 0-27z"/><path style="opacity:1" fill="#8f86af" d="M287.5 156.5h2l-3 2c-.333 1-1 1.667-2 2l-2 1c1.333-2 3-3.667 5-5z"/><path style="opacity:1" fill="#c2bdd3" d="m303.5 157.5 1 2c-5.895-2.153-11.895-2.487-18-1l3-2c1.464-.66 3.131-.993 5-1 3.066.546 6.066 1.212 9 2z"/><path style="opacity:1" fill="#c5c0d6" d="M357.5 158.5c-5.333-1.333-10.667-1.333-16 0 5.333-4 10.667-4 16 0z"/><path style="opacity:1" fill="#938bb2" d="M387.5 155.5v1a72.367 72.367 0 0 0-12 .5c-1.619.236-2.619 1.069-3 2.5l-2 1-2 1c1.333-2 3-3.667 5-5a53.805 53.805 0 0 1 14-1z"/><path style="opacity:1" fill="#d2cfdf" d="M387.5 156.5a802.777 802.777 0 0 1 5 4c-.027 1.699-.694 3.033-2 4-2.728.329-5.062-.337-7-2a32.462 32.462 0 0 0 8-.5c-5.742-4.843-12.075-5.676-19-2.5.381-1.431 1.381-2.264 3-2.5a72.367 72.367 0 0 1 12-.5z"/><path style="opacity:1" fill="#bbb6cf" d="M414.5 157.5c6.479-.991 13.146-1.324 20-1 .951 1.419 1.284 3.085 1 5h-1v-4h-20z"/><path style="opacity:1" fill="#c9c4d8" d="M89.5 155.5c2.333.333 3.667 1.667 4 4-1.105-1.1-2.438-1.767-4-2v-2z"/><path style="opacity:1" fill="#74699c" d="M89.5 155.5c1.208-1.282 2.542-1.282 4 0a200.586 200.586 0 0 1 3 6l-3-2c-.333-2.333-1.667-3.667-4-4z"/><path style="opacity:1" fill="#d9d6e4" d="M159.5 157.5v4a18.453 18.453 0 0 0-6 .5c-.556.383-.889.883-1 1.5.323 6.522-.01 12.855-1 19-1.915.284-3.581-.049-5-1h4c-.166-6.342 0-12.675.5-19 2.243-1.471 4.743-2.471 7.5-3a111.148 111.148 0 0 0-21-1v3c2.235-.295 4.235.039 6 1h-7v-5a66.641 66.641 0 0 1 23 0z"/><path style="opacity:1" fill="#695d94" d="M135.5 155.5a585.47 585.47 0 0 1 50 0c-7.255-.313-14.421.02-21.5 1-.824 8.843-.657 17.51.5 26 7.148.992 14.481 1.325 22 1-7.489 1.156-15.155 1.322-23 .5-.65-6.932-1.317-13.766-2-20.5.268-2.619-.065-5.119-1-7.5-8.327-.5-16.66-.666-25-.5z"/><path style="opacity:1" fill="#d9d6e4" d="M199.5 156.5a34.163 34.163 0 0 1 10 1 11.743 11.743 0 0 1 5 3v1c.215 1.679-.452 2.679-2 3 .322-2.222-.345-4.056-2-5.5a112.97 112.97 0 0 0-15-.5c1.171-.845 2.505-1.511 4-2z"/><path style="opacity:1" fill="#665a92" d="M275.5 156.5v-1h3c.327 9.515-.006 18.848-1 28 .326-8.849-.007-17.516-1-26 0-.667-.333-1-1-1zM321.5 155.5c-2.948-.277-5.781.056-8.5 1-.824 8.843-.657 17.51.5 26 6.479.991 13.146 1.324 20 1-7.155 1.155-14.488 1.322-22 .5-.625-2.8-1.292-5.634-2-8.5-1.014 4.348-3.681 7.015-8 8 2.652-1.661 4.652-3.994 6-7v-2c.617-.111 1.117-.444 1.5-1 .659-3.388.492-6.721-.5-10 .617.111 1.117.444 1.5 1-.863-9.319 2.97-12.319 11.5-9z"/><path style="opacity:1" fill="#887faa" d="M387.5 156.5c3.046-.317 4.713 1.016 5 4a802.777 802.777 0 0 0-5-4z"/><path style="opacity:1" fill="#675b92" d="M412.5 157.5c-.326 8.517.007 16.85 1 25 7.148.992 14.481 1.325 22 1-7.735 1.327-15.568 1.327-23.5 0-.824-8.843-.657-17.51.5-26z"/><path style="opacity:1" fill="#72679b" d="M37.5 155.5c.982.641 1.982 1.307 3 2a30.968 30.968 0 0 1 2-2h1c-.734 1.208-1.067 2.541-1 4-2.867.131-4.533-1.203-5-4z"/><path style="opacity:1" fill="#7d73a2" d="M50.5 157.5a5.728 5.728 0 0 0-1 3h-1c-.215-1.679.452-2.679 2-3z"/><path style="opacity:1" fill="#c5c1d6" d="M50.5 157.5h1c.073 1.527-.594 2.527-2 3a5.728 5.728 0 0 1 1-3z"/><path style="opacity:1" fill="#675b92" d="M87.5 150.5a14.068 14.068 0 0 1-1 3.5c.336 1.03 1.003 1.53 2 1.5a22.584 22.584 0 0 0-4 8h-2c-.304-2.296-1.304-2.629-3-1a5.728 5.728 0 0 1 1-3c1.692-1.705 3.025-3.705 4-6a10.162 10.162 0 0 1 3-3z"/><path style="opacity:1" fill="#f7f6f9" d="M89.5 157.5c1.562.233 2.895.9 4 2 .185 1.696 1.019 3.029 2.5 4 .496 1.973.662 3.973.5 6h-1c-1.847 1.53-2.847 3.53-3 6-1.333 1.333-2.667 1.333-4 0-.838-.342-1.172-1.008-1-2 .073-1.527-.594-2.527-2-3-1.186-2.374-1.186-4.708 0-7 .84-2.353 2.174-4.353 4-6z"/><path style="opacity:1" fill="#fcfbfc" d="M146.5 181.5c-.351-6.565-1.351-12.899-3-19-1.765-.961-3.765-1.295-6-1v-3c7.032-.33 14.032.003 21 1-2.757.529-5.257 1.529-7.5 3-.5 6.325-.666 12.658-.5 19h-4z"/><path style="opacity:1" fill="#9088b0" d="M185.5 155.5v1c-6.854-.324-13.521.009-20 1-.993 8.15-1.326 16.483-1 25-1.157-8.49-1.324-17.157-.5-26a119.044 119.044 0 0 1 21.5-1z"/><path style="opacity:1" fill="#fdfdfd" d="M173.5 161.5c-.667 0-1 .333-1 1-1.288 1.535-1.288 3.201 0 5 3.989.607 7.989 1.273 12 2a812.705 812.705 0 0 0-11 2h-3c-.256 2.292.077 4.459 1 6.5 4.655.499 9.321.666 14 .5v3h-19v-23a81.883 81.883 0 0 1 18 1 812.705 812.705 0 0 0-11 2z"/><path style="opacity:1" fill="#f7f6f9" d="M195.5 158.5a112.97 112.97 0 0 1 15 .5c1.655 1.444 2.322 3.278 2 5.5a5085.956 5085.956 0 0 0-8.5-3c-3.133-.358-4.967.975-5.5 4-1.333 2.667-1.333 5.333 0 8-.759 3.74.741 5.407 4.5 5 2.852.157 5.018-1.01 6.5-3.5a12.93 12.93 0 0 1 5-.5 20.69 20.69 0 0 1-1 5l-3 2a45.782 45.782 0 0 1-12 1h-2a6.547 6.547 0 0 0-3-3c-1.832-5.078-2.498-10.411-2-16-.172-.992.162-1.658 1-2a6.547 6.547 0 0 0 3-3z"/><path style="opacity:1" fill="#a39cbe" d="M227.5 155.5v1c-2.559-.302-4.893.032-7 1v25h7v1h-8v-28h8z"/><path style="opacity:1" fill="#dad8e5" d="M220.5 157.5h7v8c-.968-2.107-1.302-4.441-1-7h-5v23h5c-.289-3.606.044-7.106 1-10.5 3.527-.808 6.86-.641 10 .5-3.277-.284-6.443.049-9.5 1a50.464 50.464 0 0 0-.5 10h-7v-25z"/><path style="opacity:1" fill="#fcfcfd" d="M227.5 165.5c3.333 1.333 6.667 1.333 10 0 .968-2.107 1.302-4.441 1-7h6v23h-6c.313-3.542-.021-6.875-1-10-3.14-1.141-6.473-1.308-10-.5-.956 3.394-1.289 6.894-1 10.5h-5v-23h5c-.302 2.559.032 4.893 1 7z"/><path style="opacity:1" fill="#b5b0cb" d="M220.5 157.5c2.107-.968 4.441-1.302 7-1a206.139 206.139 0 0 1 2 8.5c2.646.497 5.313.664 8 .5-3.333 1.333-6.667 1.333-10 0v-8h-7z"/><path style="opacity:1" fill="#73699c" d="M227.5 156.5v-1h3v9h6c-.302-2.559.032-4.893 1-7v8a32.462 32.462 0 0 1-8-.5 206.139 206.139 0 0 0-2-8.5z"/><path style="opacity:1" fill="#cfcbdc" d="M245.5 183.5h-8v-12c.979 3.125 1.313 6.458 1 10h6v-23h-6c.302 2.559-.032 4.893-1 7v-8c2.502-1.279 5.002-1.279 7.5 0 .5 8.66.666 17.327.5 26z"/><path style="opacity:1" fill="#8177a5" d="M245.5 183.5c.166-8.673 0-17.34-.5-26-2.498-1.279-4.998-1.279-7.5 0 2.488-1.888 5.488-2.555 9-2 .327 9.515-.006 18.848-1 28z"/><path style="opacity:1" fill="#6b6096" d="M251.5 155.5c-1.315 9.098-1.315 18.098 0 27 2.448.973 5.115 1.306 8 1a36.875 36.875 0 0 1 1-12c1.452 1.44 2.452 3.106 3 5-.958-.453-1.792-1.119-2.5-2a50.464 50.464 0 0 0-.5 10c-3.606.289-7.106-.044-10.5-1l-.5-14c.007-5.051.673-9.717 2-14z"/><path style="opacity:1" fill="#d8d6e3" d="M258.5 158.5h-6v23h5v-12c1.599-.268 2.932.066 4 1h-3v12h-7v-25c2.559-.302 4.893.032 7 1z"/><path style="opacity:1" fill="#fbfbfc" d="m258.5 158.5 3 2c-.073 1.527.594 2.527 2 3-.073 1.527.594 2.527 2 3v1c.787 1.604 2.12 2.271 4 2 .982-3.462 1.315-7.129 1-11h4v23a9.86 9.86 0 0 1-6-1c-.989-2.086-2.322-3.753-4-5-.61-1.934-1.61-3.601-3-5-1.068-.934-2.401-1.268-4-1v12h-5v-23h6z"/><path style="opacity:1" fill="#8279a6" d="M275.5 155.5v1c-2.235-.295-4.235.039-6 1-.823 3.477-1.323 7.144-1.5 11-.671-.752-1.504-1.086-2.5-1v-1c1.75-2.855 2.583-6.189 2.5-10 2.381-.935 4.881-1.268 7.5-1z"/><path style="opacity:1" fill="#aca6c4" d="M269.5 157.5v12c-1.88.271-3.213-.396-4-2 .996-.086 1.829.248 2.5 1 .177-3.856.677-7.523 1.5-11z"/><path style="opacity:1" fill="#e1dfea" d="M269.5 157.5h6v25h-8c-.233-1.562-.9-2.895-2-4a5.727 5.727 0 0 0-1-3c1.678 1.247 3.011 2.914 4 5a9.86 9.86 0 0 0 6 1v-23h-4c.315 3.871-.018 7.538-1 11v-12z"/><path style="opacity:1" fill="#b9b3cd" d="M269.5 157.5c1.765-.961 3.765-1.295 6-1 .667 0 1 .333 1 1 .326 8.517-.007 16.85-1 25v-25h-6z"/><path style="opacity:1" fill="#938bb2" d="M276.5 157.5c.993 8.484 1.326 17.151 1 26-3.542.313-6.875-.021-10-1h8c.993-8.15 1.326-16.483 1-25z"/><path style="opacity:1" fill="#f7f6f9" d="M304.5 159.5c.185 1.696 1.019 3.029 2.5 4 .499 3.652.665 7.318.5 11v2c-4.166 3.947-9.166 5.947-15 6a53.013 53.013 0 0 0-9-4v-1c-1.593-5.862-1.26-11.529 1-17 1-.333 1.667-1 2-2 6.105-1.487 12.105-1.153 18 1z"/><path style="opacity:1" fill="#9c94b8" d="M321.5 155.5v2h-8v25c-1.157-8.49-1.324-17.157-.5-26 2.719-.944 5.552-1.277 8.5-1z"/><path style="opacity:1" fill="#fbfbfc" d="M321.5 175.5v1l11 2v3h-18v-23h5c-.617 6.098.05 11.765 2 17z"/><path style="opacity:1" fill="#786d9e" d="M321.5 155.5c.99 6.145 1.323 12.478 1 19 3.871-.315 7.538.018 11 1v1h-12v-21z"/><path style="opacity:1" fill="#f9f9fb" d="m357.5 158.5 4 3v2a45.782 45.782 0 0 1 1 12c-.838.342-1.172 1.008-1 2-1.667 1-3 2.333-4 4l-4 1c-4.716.379-9.05-.621-13-3-1-.333-1.667-1-2-2v-16a6.547 6.547 0 0 0 3-3c5.333-1.333 10.667-1.333 16 0zM383.5 162.5c-2.767-1.432-5.434-1.099-8 1-1.309 4.149-1.309 8.149 0 12 1 .333 1.667 1 2 2 2.466 1.134 5.133 1.301 8 .5 1.692-1.401 2.359-3.234 2-5.5h-5v-3h10a50.464 50.464 0 0 1-.5 10c-.995.566-1.828 1.233-2.5 2h-1c-4.667 1.333-9.333 1.333-14 0h-1c-5.082-6.448-6.082-13.448-3-21l2-1c6.925-3.176 13.258-2.343 19 2.5a32.462 32.462 0 0 1-8 .5z"/><path style="opacity:1" fill="#d5d2e1" d="M407.5 182.5h-8v-25c2.502-1.279 5.002-1.279 7.5 0 .5 8.327.666 16.66.5 25z"/><path style="opacity:1" fill="#fefdfe" d="M400.5 158.5h6v23h-6v-23z"/><path style="opacity:1" fill="#8076a4" d="M407.5 183.5v-1c.166-8.34 0-16.673-.5-25-2.498-1.279-4.998-1.279-7.5 0 2.488-1.888 5.488-2.555 9-2 .327 9.515-.006 18.848-1 28z"/><path style="opacity:1" fill="#8c83ad" d="M413.5 155.5c7.187-.325 14.187.009 21 1-6.854-.324-13.521.009-20 1-.993 8.15-1.326 16.483-1 25-.993-8.15-1.326-16.483-1-25-.172-.992.162-1.658 1-2z"/><path style="opacity:1" fill="#fbfbfc" d="M421.5 161.5v5l11 2c-3.391 1.625-7.058 2.625-11 3v6c4.134.985 8.468 1.318 13 1v3h-20v-23a91.123 91.123 0 0 1 19 1 1041.63 1041.63 0 0 0-12 2z"/><path style="opacity:1" fill="#f7f7f9" d="M460.5 163.5h-7c-1.418-1.808-3.418-2.475-6-2-.951 1.419-1.284 3.085-1 5a29.23 29.23 0 0 1 9 1c1.17 1.779 2.836 2.779 5 3v9c-5.643 3.121-11.643 3.787-18 2-.667 0-1-.333-1-1a20.69 20.69 0 0 1-1-5c2.688-.334 5.021.332 7 2 2.205 2.416 4.205 2.416 6 0 1.676-.683 2.343-2.017 2-4-.453-.958-1.119-1.792-2-2.5a32.462 32.462 0 0 0-8-.5c-.342-.838-1.008-1.172-2-1-3.447-5.045-2.447-8.878 3-11.5 4.136-.671 8.136-.171 12 1.5 1.13 1.122 1.797 2.456 2 4z"/><path style="opacity:1" fill="#a59ebf" d="M194.5 158.5h1a6.547 6.547 0 0 1-3 3c-.073-1.527.594-2.527 2-3z"/><path style="opacity:1" fill="#a8a2c1" d="M340.5 158.5h1a6.547 6.547 0 0 1-3 3v-1c.333-1 1-1.667 2-2z"/><path style="opacity:1" fill="#928ab2" d="M456.5 157.5c-6.517-2.308-12.017-.975-16.5 4a12.93 12.93 0 0 0-.5 5c-1.297-2.193-1.297-4.527 0-7 1.142-1.326 2.476-2.326 4-3 3.913-1.096 7.913-1.262 12-.5.556.383.889.883 1 1.5z"/><path style="opacity:1" fill="#7b71a1" d="M48.5 160.5a5.728 5.728 0 0 0-1 3h-1c-.215-1.679.452-2.679 2-3z"/><path style="opacity:1" fill="#cecbdc" d="M159.5 157.5c1.307 1.723 1.307 3.557 0 5.5-2.31.497-4.643.663-7 .5.111-.617.444-1.117 1-1.5a18.453 18.453 0 0 1 6-.5v-4z"/><path style="opacity:1" fill="#a7a1c0" d="M173.5 161.5h12c-3.798.983-7.798 1.317-12 1v3c-.904-.709-1.237-1.709-1-3 0-.667.333-1 1-1z"/><path style="opacity:1" fill="#ada7c5" d="M261.5 160.5c1.406.473 2.073 1.473 2 3-1.406-.473-2.073-1.473-2-3z"/><path style="opacity:1" fill="#786e9f" d="M338.5 160.5v1l-2 2c-.215-1.679.452-2.679 2-3z"/><path style="opacity:1" fill="#d1cede" d="M355.5 165.5c-2.79-3.092-6.124-3.758-10-2 1.951-3.461 4.618-3.961 8-1.5 1.323.816 1.989 1.983 2 3.5z"/><path style="opacity:1" fill="#cbc7da" d="M80.5 159.5a5.728 5.728 0 0 0-1 3c-1.406.473-2.073 1.473-2 3h-1c.184-2.837 1.518-4.837 4-6z"/><path style="opacity:1" fill="#b0aac7" d="m93.5 159.5 3 2c1.967 2.512 2.3 5.179 1 8h-1a18.437 18.437 0 0 0-.5-6c-1.481-.971-2.315-2.304-2.5-4z"/><path style="opacity:1" fill="#b8b3cc" d="M383.5 162.5c-2.51-.446-4.51.22-6 2-.667 0-1 .333-1 1-.979 3.125-1.313 6.458-1 10-1.309-3.851-1.309-7.851 0-12 2.566-2.099 5.233-2.432 8-1z"/><path style="opacity:1" fill="#786e9f" d="M434.5 161.5h1v2h-13l12-2z"/><path style="opacity:1" fill="#8f87af" d="M447.5 161.5c2.582-.475 4.582.192 6 2h8c-.847 1.466-2.18 2.3-4 2.5.916.278 1.582.778 2 1.5h-4c-2.135-1.869-4.802-2.536-8-2v-4z"/><path style="opacity:1" fill="#61558e" d="M453.5 163.5c-1.685 1.344-3.352 1.177-5-.5 1.765-.64 3.432-.473 5 .5z"/><path style="opacity:1" fill="#6a5e95" d="M185.5 156.5v-1h3a8931.34 8931.34 0 0 1-3 16v-4c-3.529-1.923-7.529-2.589-12-2v-3c4.202.317 8.202-.017 12-1 1.333-1.667 1.333-3.333 0-5z"/><path style="opacity:1" fill="#7f75a4" d="M298.5 163.5c1.879 3.356 2.379 7.023 1.5 11-.995.566-1.828 1.233-2.5 2h-1c1.813-3.429 2.313-7.096 1.5-11-2.041-.923-4.208-1.256-6.5-1 .462-1.38 1.462-2.047 3-2 1.349.346 2.683.679 4 1z"/><path style="opacity:1" fill="#8076a4" d="M355.5 165.5a32.462 32.462 0 0 1-.5 8c-.383.556-.883.889-1.5 1a39.113 39.113 0 0 0 1-5c.16-1.855-.507-3.188-2-4-2-1.333-4-1.333-6 0h-1v-2c3.876-1.758 7.21-1.092 10 2z"/><path style="opacity:1" fill="#72679a" d="M383.5 162.5c1.938 1.663 4.272 2.329 7 2-4.148.624-8.482.624-13 0 1.49-1.78 3.49-2.446 6-2z"/><path style="opacity:1" fill="#948cb3" d="M392.5 160.5c.934 1.068 1.268 2.401 1 4h-3c1.306-.967 1.973-2.301 2-4z"/><path style="opacity:1" fill="#655991" d="M422.5 163.5h13v10h-13l11-2c1.333-1.667 1.333-3.333 0-5-3.942-.375-7.609-1.375-11-3z"/><path style="opacity:1" fill="#d8d5e3" d="M456.5 157.5c3.07.743 4.736 2.743 5 6h-1c-.203-1.544-.87-2.878-2-4-3.864-1.671-7.864-2.171-12-1.5-5.447 2.622-6.447 6.455-3 11.5h-2c.073-1.527-.594-2.527-2-3a12.93 12.93 0 0 1 .5-5c4.483-4.975 9.983-6.308 16.5-4z"/><path style="opacity:1" fill="#8279a6" d="M79.5 162.5c.073 1.527-.594 2.527-2 3-.073-1.527.594-2.527 2-3z"/><path style="opacity:1" fill="#6d6297" d="M135.5 163.5h8c-.166 6.342 0 12.675.5 19 2.381.935 4.881 1.268 7.5 1-2.73 1.317-5.563 1.317-8.5 0-.5-6.325-.666-12.658-.5-19-2.559.302-4.893-.032-7-1z"/><path style="opacity:1" fill="#b9b3cd" d="M135.5 157.5h1v5h7c1.649 6.101 2.649 12.435 3 19 1.419.951 3.085 1.284 5 1v1c-2.619.268-5.119-.065-7.5-1-.5-6.325-.666-12.658-.5-19h-8v-6z"/><path style="opacity:1" fill="#8a82ac" d="M135.5 155.5c8.34-.166 16.673 0 25 .5.935 2.381 1.268 4.881 1 7.5-2.448.973-5.115 1.306-8 1 .623 6.755-.044 13.088-2 19v-1c.99-6.145 1.323-12.478 1-19 2.357.163 4.69-.003 7-.5 1.307-1.943 1.307-3.777 0-5.5a66.641 66.641 0 0 0-23 0h-1v-2z"/><path style="opacity:1" fill="#bcb7cf" d="M212.5 164.5c1.548-.321 2.215-1.321 2-3 .934 1.068 1.268 2.401 1 4h-8c-.059-2.222-1.225-3.222-3.5-3-1.699-.113-2.866.553-3.5 2-.667 0-1 .333-1 1h-1c.533-3.025 2.367-4.358 5.5-4 2.833.997 5.666 1.997 8.5 3z"/><path style="opacity:1" fill="#756a9d" d="M207.5 165.5c-2.217-.869-4.55-1.202-7-1 .634-1.447 1.801-2.113 3.5-2 2.275-.222 3.441.778 3.5 3z"/><path style="opacity:1" fill="#ada6c4" d="M263.5 163.5c1.406.473 2.073 1.473 2 3-1.406-.473-2.073-1.473-2-3z"/><path style="opacity:1" fill="#544785" d="M291.5 164.5c2.292-.256 4.459.077 6.5 1 .813 3.904.313 7.571-1.5 11-2.222.322-4.056-.345-5.5-2-.747-3.424-.58-6.757.5-10z"/><path style="opacity:1" fill="#524584" d="M352.5 165.5a21.127 21.127 0 0 1-1 9c-1.333 1.333-2.667 1.333-4 0a21.127 21.127 0 0 1-1-9c2-1.333 4-1.333 6 0z"/><path style="opacity:1" fill="#bab5cd" d="M45.5 163.5h2c-1.141 1.951-1.141 3.951 0 6-1.78-1.49-2.447-3.49-2-6z"/><path style="opacity:1" fill="#c9c5d8" d="M65.5 163.5c-2.333.333-3.667 1.667-4 4h-1c-.107-2.403.893-4.236 3-5.5 1.316-.528 1.983-.028 2 1.5z"/><path style="opacity:1" fill="#7c72a2" d="M65.5 163.5c.238 1.904 1.238 3.238 3 4 .61.891.943 1.891 1 3a19.565 19.565 0 0 1-4-3.5c-1.428-.579-2.762-.412-4 .5.333-2.333 1.667-3.667 4-4z"/><path style="opacity:1" fill="#857ba8" d="M82.5 163.5h1v6c-2.154-1.658-2.487-3.658-1-6z"/><path style="opacity:1" fill="#c8c3d7" d="M83.5 163.5h2c-1.186 2.292-1.186 4.626 0 7l-2-1v-6z"/><path style="opacity:1" fill="#9d95b9" d="M173.5 165.5c4.471-.589 8.471.077 12 2a331.2 331.2 0 0 1-12-2z"/><path style="opacity:1" fill="#9e97ba" d="M421.5 161.5h13l-12 2c3.391 1.625 7.058 2.625 11 3h-12v-5z"/><path style="opacity:1" fill="#d9d7e4" d="M447.5 161.5v4c3.198-.536 5.865.131 8 2a29.23 29.23 0 0 0-9-1c-.284-1.915.049-3.581 1-5z"/><path style="opacity:1" fill="#cdcadc" d="M76.5 165.5a5.728 5.728 0 0 0-1 3h-1c-.215-1.679.452-2.679 2-3z"/><path style="opacity:1" fill="#7b71a1" d="M361.5 161.5c.958.453 1.792 1.119 2.5 2 .812 4.189.645 8.189-.5 12a60.931 60.931 0 0 0-.5-11c-.383-.556-.883-.889-1.5-1v-2z"/><path style="opacity:1" fill="#c0bbd2" d="M421.5 166.5h12c1.333 1.667 1.333 3.333 0 5 .237-1.291-.096-2.291-1-3l-11-2z"/><path style="opacity:1" fill="#847ba8" d="M76.5 165.5h1c.073 1.527-.594 2.527-2 3a5.728 5.728 0 0 1 1-3z"/><path style="opacity:1" fill="#bab5ce" d="M284.5 160.5c-2.26 5.471-2.593 11.138-1 17l-2-1c-1.582-5.172-1.248-10.172 1-15l2-1z"/><path style="opacity:1" fill="#dfdde8" d="M338.5 161.5v16h-1v-2a34.163 34.163 0 0 1-1-10v-2l2-2z"/><path style="opacity:1" fill="#e2dfea" d="M345.5 163.5v2c-1.225.652-1.892 1.819-2 3.5a36.39 36.39 0 0 0 1 5.5c-1.277-1.194-1.944-2.86-2-5l1-5c.683-.363 1.35-.696 2-1z"/><path style="opacity:1" fill="#d5d2e1" d="M355.5 165.5c1.868 4.825.868 8.991-3 12.5-2.402.814-4.735.647-7-.5a5.576 5.576 0 0 1-1-3h1c2.667 4 5.333 4 8 0 .617-.111 1.117-.444 1.5-1 .497-2.646.664-5.313.5-8z"/><path style="opacity:1" fill="#877eaa" d="M367.5 164.5a52.392 52.392 0 0 0 1 13c-1.3-1.723-1.967-3.89-2-6.5.004-2.361.337-4.527 1-6.5z"/><path style="opacity:1" fill="#cecadc" d="M370.5 160.5c-3.082 7.552-2.082 14.552 3 21-2.275-.611-3.941-1.945-5-4a52.392 52.392 0 0 1-1-13 5.727 5.727 0 0 1 1-3l2-1z"/><path style="opacity:1" fill="#8178a6" d="M439.5 166.5c1.406.473 2.073 1.473 2 3-1.406-.473-2.073-1.473-2-3z"/><path style="opacity:1" fill="#9c95b9" d="M191.5 163.5c-.498 5.589.168 10.922 2 16-1.917-.616-3.084-1.95-3.5-4a30.485 30.485 0 0 1 0-11c.383-.556.883-.889 1.5-1z"/><path style="opacity:1" fill="#a9a3c2" d="M198.5 165.5h1v8h-1c-1.333-2.667-1.333-5.333 0-8z"/><path style="opacity:1" fill="#c6c2d7" d="M298.5 163.5a343.58 343.58 0 0 1-4-1c-1.538-.047-2.538.62-3 2-1.888 2.488-2.555 5.488-2 9-1.306-3.187-1.306-6.52 0-10 3.151-2.6 6.151-2.6 9 0z"/><path style="opacity:1" fill="#a39cbe" d="M304.5 159.5c1.667 1 3 2.333 4 4 .992 3.279 1.159 6.612.5 10-.383.556-.883.889-1.5 1a60.931 60.931 0 0 0-.5-11c-1.481-.971-2.315-2.304-2.5-4z"/><path style="opacity:1" fill="#a59fbf" d="M336.5 165.5a34.163 34.163 0 0 0 1 10c-.617-.111-1.117-.444-1.5-1-.805-3.196-.638-6.196.5-9z"/><path style="opacity:1" fill="#9890b5" d="M345.5 165.5v9h-1a36.39 36.39 0 0 1-1-5.5c.108-1.681.775-2.848 2-3.5z"/><path style="opacity:1" fill="#655991" d="M345.5 165.5h1a21.127 21.127 0 0 0 1 9c1.333 1.333 2.667 1.333 4 0a21.127 21.127 0 0 0 1-9c1.493.812 2.16 2.145 2 4a39.113 39.113 0 0 1-1 5c-2.667 4-5.333 4-8 0v-9z"/><path style="opacity:1" fill="#c1bcd3" d="M361.5 163.5c.617.111 1.117.444 1.5 1 .499 3.652.665 7.318.5 11h-1a45.782 45.782 0 0 0-1-12z"/><path style="opacity:1" fill="#655991" d="M381.5 167.5c4.481-1.148 9.148-1.315 14-.5a23.256 23.256 0 0 1 1 6.5c-.039 2.452-.706 4.452-2 6v-12h-13z"/><path style="opacity:1" fill="#766c9e" d="M45.5 163.5c-.447 2.51.22 4.51 2 6v2c-3.017-2.115-3.684-4.782-2-8z"/><path style="opacity:1" fill="#dad7e5" d="M47.5 169.5c2.435.77 3.769 2.437 4 5a10.162 10.162 0 0 1-3-3h-1v-2z"/><path style="opacity:1" fill="#c5c1d6" d="M59.5 167.5c.227 2.433-.773 4.099-3 5 .61-1.934 1.61-3.601 3-5z"/><path style="opacity:1" fill="#8076a5" d="M59.5 167.5h2c-.848 3.517-2.848 6.184-6 8a5.728 5.728 0 0 1 1-3c2.227-.901 3.227-2.567 3-5z"/><path style="opacity:1" fill="#cecadc" d="M68.5 167.5c1.359.507 2.359 1.507 3 3 .765-1.112 1.765-1.779 3-2a5.728 5.728 0 0 0-1 3h-4v-1a5.728 5.728 0 0 0-1-3z"/><path style="opacity:1" fill="#847ba7" d="M74.5 168.5h1c.073 1.527-.594 2.527-2 3a5.728 5.728 0 0 1 1-3z"/><path style="opacity:1" fill="#d8d5e4" d="M172.5 162.5c-.237 1.291.096 2.291 1 3a331.2 331.2 0 0 0 12 2v4h-12a812.705 812.705 0 0 1 11-2 429.937 429.937 0 0 0-12-2c-1.288-1.799-1.288-3.465 0-5z"/><path style="opacity:1" fill="#756b9d" d="M200.5 164.5c-.165 3.35.002 6.683.5 10 1.699.906 3.533 1.239 5.5 1-1.159 1.877-2.826 2.377-5 1.5-1.323-.816-1.989-1.983-2-3.5v-8c0-.667.333-1 1-1z"/><path style="opacity:1" fill="#dad7e5" d="M432.5 168.5c.904.709 1.237 1.709 1 3h-12c3.942-.375 7.609-1.375 11-3z"/><path style="opacity:1" fill="#a39cbd" d="M443.5 169.5c.992-.172 1.658.162 2 1v1c-1.333 0-2-.667-2-2z"/><path style="opacity:1" fill="#dfdde8" d="M445.5 171.5v-1a32.462 32.462 0 0 1 8 .5c.881.708 1.547 1.542 2 2.5h-2c-2.382-1.546-5.049-2.213-8-2z"/><path style="opacity:1" fill="#b3adc9" d="M85.5 170.5c1.406.473 2.073 1.473 2 3-1.406-.473-2.073-1.473-2-3z"/><path style="opacity:1" fill="#7f76a4" d="M69.5 171.5h4c-.12 1.086-.787 1.753-2 2-1.213-.247-1.88-.914-2-2z"/><path style="opacity:1" fill="#c3bed4" d="M95.5 169.5c-.204 2.185-.87 4.185-2 6h-1c.153-2.47 1.153-4.47 3-6z"/><path style="opacity:1" fill="#7c71a1" d="M95.5 169.5h2c-.429 2.647-1.762 4.647-4 6 1.13-1.815 1.796-3.815 2-6z"/><path style="opacity:1" fill="#9087b0" d="M213.5 173.5c-2.121-.175-4.121.159-6 1 1.326-3.657 3.326-3.99 6-1z"/><path style="opacity:1" fill="#aba5c3" d="M261.5 170.5c1.39 1.399 2.39 3.066 3 5 .61.891.943 1.891 1 3-1-.333-1.667-1-2-2-.548-1.894-1.548-3.56-3-5a36.875 36.875 0 0 0-1 12c-2.885.306-5.552-.027-8-1h7v-12h3z"/><path style="opacity:1" fill="#c2bdd3" d="M381.5 167.5h13v12c-1 .333-1.667 1-2 2h-3c.672-.767 1.505-1.434 2.5-2 .498-3.317.665-6.65.5-10h-10v3h5c.359 2.266-.308 4.099-2 5.5-2.867.801-5.534.634-8-.5 2.559.302 4.893-.032 7-1 1.548-.321 2.215-1.321 2-3h-5v-6z"/><path style="opacity:1" fill="#766b9d" d="M441.5 169.5h2c0 1.333.667 2 2 2 2.951-.213 5.618.454 8 2v4h-6c-.011-1.517-.677-2.684-2-3.5a18.453 18.453 0 0 0-6-.5 44.093 44.093 0 0 1 3-2 43.836 43.836 0 0 1-1-2z"/><path style="opacity:1" fill="#6e6398" d="M336.5 163.5v2c-1.138 2.804-1.305 5.804-.5 9 .383.556.883.889 1.5 1v4c-.768-.763-1.268-1.763-1.5-3-.191 2.208-.691 4.208-1.5 6 .295-2.235-.039-4.235-1-6v-1c.369-4.268 1.369-8.268 3-12z"/><path style="opacity:1" fill="#8178a5" d="M381.5 173.5h5c.215 1.679-.452 2.679-2 3-.6-1.4-1.6-2.4-3-3z"/><path style="opacity:1" fill="#6c6196" d="M439.5 173.5v6a43.836 43.836 0 0 1-2-1 112.33 112.33 0 0 1-2 5v-6l-13-2c5.841.355 11.508-.312 17-2z"/><path style="opacity:1" fill="#dddae6" d="M455.5 167.5h4l2 3v9h-1v-9c-2.164-.221-3.83-1.221-5-3z"/><path style="opacity:1" fill="#9890b5" d="M461.5 170.5h1c1.678 2.81 1.345 5.143-1 7v-7z"/><path style="opacity:1" fill="#9189b1" d="M48.5 171.5a10.162 10.162 0 0 0 3 3v2c-2.26-.844-3.26-2.511-3-5z"/><path style="opacity:1" fill="#695d94" d="M173.5 171.5h12c.086.996-.248 1.829-1 2.5 3.963 2.266 4.963 5.432 3 9.5.295-2.235-.039-4.235-1-6h-1c-3.798-.983-7.798-1.317-12-1v-5z"/><path style="opacity:1" fill="#afa9c6" d="M237.5 171.5v2c-2.573-1.055-5.239-1.222-8-.5a285.14 285.14 0 0 1-2 9.5c-.165-3.35.002-6.683.5-10 3.057-.951 6.223-1.284 9.5-1z"/><path style="opacity:1" fill="#71669a" d="M237.5 173.5v10h8c-8.825 3.517-12.159.517-10-9h-5v9h-3v-1a285.14 285.14 0 0 0 2-9.5c2.761-.722 5.427-.555 8 .5z"/><path style="opacity:1" fill="#554886" d="M448.5 173.5c5.139 1.441 5.139 2.441 0 3v-3z"/><path style="opacity:1" fill="#c0bbd2" d="M453.5 173.5h2c.343 1.983-.324 3.317-2 4v-4z"/><path style="opacity:1" fill="#c9c5d8" d="M439.5 173.5a18.453 18.453 0 0 1 6 .5c1.323.816 1.989 1.983 2 3.5-1.979-1.668-4.312-2.334-7-2a20.69 20.69 0 0 0 1 5l-2-1v-6z"/><path style="opacity:1" fill="#c1bdd3" d="M51.5 175.5h3c-.721 1.882-1.721 2.215-3 1v-1z"/><path style="opacity:1" fill="#9f97ba" d="M88.5 175.5c1.333 1.333 2.667 1.333 4 0h1c-1.955 3.852-3.622 3.852-5 0z"/><path style="opacity:1" fill="#9b93b8" d="M173.5 172.5v4c4.202-.317 8.202.017 12 1h-13c-.284-1.915.049-3.581 1-5z"/><path style="opacity:1" fill="#9188b0" d="M291.5 164.5c-1.08 3.243-1.247 6.576-.5 10 1.444 1.655 3.278 2.322 5.5 2h1c-1.788 1.122-3.788 1.289-6 .5-1.323-.816-1.989-1.983-2-3.5-.555-3.512.112-6.512 2-9z"/><path style="opacity:1" fill="#887faa" d="M376.5 165.5a40.914 40.914 0 0 0 .5 9c2.135 1.778 4.635 2.445 7.5 2-2.107.968-4.441 1.302-7 1-.333-1-1-1.667-2-2-.313-3.542.021-6.875 1-10z"/><path style="opacity:1" fill="#948cb3" d="M421.5 171.5h12l-11 2v2l13 2h-14v-6z"/><path style="opacity:1" fill="#e0dde9" d="M165.5 157.5h20v4h-12a812.705 812.705 0 0 1 11-2 81.883 81.883 0 0 0-18-1v23h19v-3a98.432 98.432 0 0 1-14-.5c-.923-2.041-1.256-4.208-1-6.5h3v1c-.951 1.419-1.284 3.085-1 5h14v5h-21v-25z"/><path style="opacity:1" fill="#d5d1e1" d="M198.5 173.5h1c.011 1.517.677 2.684 2 3.5 2.174.877 3.841.377 5-1.5.667 0 1-.333 1-1 1.879-.841 3.879-1.175 6-1h2c.446 2.51-.22 4.51-2 6a20.69 20.69 0 0 0 1-5 12.93 12.93 0 0 0-5 .5c-1.482 2.49-3.648 3.657-6.5 3.5-3.759.407-5.259-1.26-4.5-5z"/><path style="opacity:1" fill="#766b9d" d="M215.5 173.5c1.973 5.416-.027 8.75-6 10l1-2 3-2c1.78-1.49 2.446-3.49 2-6z"/><path style="opacity:1" fill="#7e74a3" d="m281.5 176.5 2 1v2c-1.406-.473-2.073-1.473-2-3z"/><path style="opacity:1" fill="#938ab2" d="M337.5 177.5h1c.333 1 1 1.667 2 2l2 3a11.743 11.743 0 0 1-5-3v-2z"/><path style="opacity:1" fill="#c9c5d9" d="M447.5 177.5h6c-1.795 2.416-3.795 2.416-6 0z"/><path style="opacity:1" fill="#73699c" d="M362.5 175.5h1c-.092 2.348-1.092 4.014-3 5a5.727 5.727 0 0 0 1-3c-.172-.992.162-1.658 1-2z"/><path style="opacity:1" fill="#dfdce8" d="M283.5 179.5v-1c3.2 1.088 6.2 2.421 9 4h-3a5.727 5.727 0 0 0-3-1l-3-2z"/><path style="opacity:1" fill="#aca6c4" d="M361.5 177.5a5.727 5.727 0 0 1-1 3 5.727 5.727 0 0 1-3 1c1-1.667 2.333-3 4-4z"/><path style="opacity:1" fill="#887faa" d="M193.5 179.5a6.547 6.547 0 0 1 3 3c-2 0-3-1-3-3z"/><path style="opacity:1" fill="#dcd9e6" d="M321.5 157.5v18c-1.95-5.235-2.617-10.902-2-17h-5v23h18v-3c.934 1.068 1.268 2.401 1 4h-20v-25h8z"/><path style="opacity:1" fill="#d8d5e3" d="M414.5 157.5h20v4h-13a1041.63 1041.63 0 0 1 12-2 91.123 91.123 0 0 0-19-1v23h20v-3c-4.532.318-8.866-.015-13-1h14v6c-7.519.325-14.852-.008-22-1-.326-8.517.007-16.85 1-25z"/><path style="opacity:1" fill="#b3adc9" d="M165.5 157.5v25h21v-5c.961 1.765 1.295 3.765 1 6h-1c-7.519.325-14.852-.008-22-1-.326-8.517.007-16.85 1-25z"/><path style="opacity:1" fill="#c1bcd3" d="m210.5 181.5-1 2c-3.871.315-7.538-.018-11-1 4.066.193 8.066-.14 12-1z"/><path style="opacity:1" fill="#bcb7cf" d="M307.5 176.5c-1.348 3.006-3.348 5.339-6 7h-1c-3.871.315-7.538-.018-11-1h3c5.834-.053 10.834-2.053 15-6z"/><path style="opacity:1" fill="#b1abc7" d="M321.5 176.5h12c.961 1.765 1.295 3.765 1 6 0 .667-.333 1-1 1-6.854.324-13.521-.009-20-1h20c.268-1.599-.066-2.932-1-4l-11-2z"/><path style="opacity:1" fill="#cbc7da" d="M340.5 179.5c3.95 2.379 8.284 3.379 13 3-3.533 1.215-7.199 1.215-11 0l-2-3z"/><path style="opacity:1" fill="#c1bcd3" d="M374.5 181.5c4.667 1.333 9.333 1.333 14 0l-1 2a72.367 72.367 0 0 1-12-.5c-.556-.383-.889-.883-1-1.5z"/><path style="opacity:1" fill="#7d72a2" d="M388.5 181.5h4c-1.43 1.037-3.097 1.704-5 2l1-2z"/><path style="opacity:1" fill="#9e96ba" d="M399.5 157.5v25h8v1h-9c-.326-8.849.007-17.516 1-26z"/><path style="opacity:1" fill="#ada6c4" d="M460.5 179.5h1c-1.079 2.043-2.746 3.376-5 4a53.805 53.805 0 0 1-14-1v-1c6.357 1.787 12.357 1.121 18-2z"/><path style="opacity:1" fill="#786e9f" d="M196.5 182.5h2c3.462.982 7.129 1.315 11 1-3.811 1.145-7.811 1.312-12 .5-.556-.383-.889-.883-1-1.5z"/><path style="opacity:1" fill="#7c72a2" d="M286.5 181.5a5.727 5.727 0 0 1 3 1c3.462.982 7.129 1.315 11 1-3.811 1.145-7.811 1.312-12 .5-.881-.708-1.547-1.542-2-2.5z"/><path style="opacity:1" fill="#7e74a3" d="M357.5 181.5c-.077 1.25-.744 2.083-2 2.5-4 .667-8 .667-12 0-.556-.383-.889-.883-1-1.5 3.801 1.215 7.467 1.215 11 0l4-1z"/><path style="opacity:1" fill="#786e9f" d="M368.5 177.5c1.059 2.055 2.725 3.389 5 4h1c.111.617.444 1.117 1 1.5 3.986.499 7.986.666 12 .5-6.189 1.727-12.189 1.06-18-2-.929-1.189-1.262-2.522-1-4z"/><path style="opacity:1" fill="#756b9d" d="M442.5 182.5a53.805 53.805 0 0 0 14 1c-2.141.663-4.475.997-7 1-2.769-.029-5.103-.695-7-2z"/></svg>