<?xml version="1.0" encoding="UTF-8"?>
<!DOCTYPE svg PUBLIC "-//W3C//DTD SVG 1.1//EN" "http://www.w3.org/Graphics/SVG/1.1/DTD/svg11.dtd">
<svg xmlns="http://www.w3.org/2000/svg" version="1.1" width="317px" height="185px" style="shape-rendering:geometricPrecision; text-rendering:geometricPrecision; image-rendering:optimizeQuality; fill-rule:evenodd; clip-rule:evenodd" xmlns:xlink="http://www.w3.org/1999/xlink">
<g><path style="opacity:1" fill="#fafcfc" d="M -0.5,-0.5 C 105.167,-0.5 210.833,-0.5 316.5,-0.5C 316.5,61.1667 316.5,122.833 316.5,184.5C 210.833,184.5 105.167,184.5 -0.5,184.5C -0.5,122.833 -0.5,61.1667 -0.5,-0.5 Z"/></g>
<g><path style="opacity:1" fill="#567393" d="M 49.5,15.5 C 46.5,14.1667 43.5,14.1667 40.5,15.5C 39.9569,15.44 39.6236,15.1067 39.5,14.5C 43.1667,13.1667 46.8333,13.1667 50.5,14.5C 50.3764,15.1067 50.0431,15.44 49.5,15.5 Z"/></g>
<g><path style="opacity:1" fill="#23446a" d="M 30.5,23.5 C 30.7828,24.2891 31.2828,24.9558 32,25.5C 32.3333,21.8333 32.6667,18.1667 33,14.5C 33.4992,19.1548 33.6658,23.8215 33.5,28.5C 32.325,28.719 31.325,28.3857 30.5,27.5C 28.8674,24.0397 27.034,20.7064 25,17.5C 24.8253,21.211 24.3253,24.8776 23.5,28.5C 22.5059,23.544 22.1725,18.544 22.5,13.5C 26.1416,15.8331 28.8083,19.1664 30.5,23.5 Z"/></g>
<g><path style="opacity:1" fill="#7895b4" d="M 33.5,28.5 C 33.6658,23.8215 33.4992,19.1548 33,14.5C 32.6667,18.1667 32.3333,21.8333 32,25.5C 31.2828,24.9558 30.7828,24.2891 30.5,23.5C 31.4794,20.3752 31.8128,17.0419 31.5,13.5C 32.5,13.5 33.5,13.5 34.5,13.5C 34.8205,18.6946 34.4872,23.6946 33.5,28.5 Z"/></g>
<g><path style="opacity:1" fill="#2a4a71" d="M 267.5,13.5 C 269.411,13.5743 270.578,14.5743 271,16.5C 272.505,20.3502 274.005,24.1835 275.5,28C 273.066,28.3329 272.066,27.1662 272.5,24.5C 268.17,23.7318 264.837,25.0651 262.5,28.5C 263.095,23.3806 264.762,18.3806 267.5,13.5 Z"/></g>
<g><path style="opacity:1" fill="#224773" d="M 281.5,13.5 C 282.809,15.5706 283.475,18.0706 283.5,21C 283.167,23.5 282.833,26 282.5,28.5C 281.506,23.544 281.173,18.544 281.5,13.5 Z"/></g>
<g><path style="opacity:1" fill="#7d99b7" d="M 140.5,14.5 C 138.564,18.7147 137.897,23.3814 138.5,28.5C 137.513,23.6946 137.179,18.6946 137.5,13.5C 138.791,13.2627 139.791,13.596 140.5,14.5 Z"/></g>
<g><path style="opacity:1" fill="#4a6990" d="M 236.5,14.5 C 235.209,14.2627 234.209,14.596 233.5,15.5C 231.824,16.1834 231.157,17.5168 231.5,19.5C 232.833,19.5 234.167,19.5 235.5,19.5C 234.391,20.29 233.058,20.79 231.5,21C 233.058,21.21 234.391,21.71 235.5,22.5C 234.167,22.5 232.833,22.5 231.5,22.5C 231.5,23.8333 231.5,25.1667 231.5,26.5C 230.691,24.7078 230.191,22.7078 230,20.5C 229.503,23.146 229.336,25.8127 229.5,28.5C 228.513,23.6946 228.179,18.6946 228.5,13.5C 231.385,13.1936 234.052,13.5269 236.5,14.5 Z"/></g>
<g><path style="opacity:1" fill="#eef8f7" d="M 233.5,15.5 C 236.309,15.9577 236.976,17.2911 235.5,19.5C 234.167,19.5 232.833,19.5 231.5,19.5C 231.157,17.5168 231.824,16.1834 233.5,15.5 Z"/></g>
<g><path style="opacity:1" fill="#1f4169" d="M 233.5,15.5 C 234.209,14.596 235.209,14.2627 236.5,14.5C 238.719,16.0654 239.052,18.0654 237.5,20.5C 239.256,22.1913 239.756,24.1913 239,26.5C 236.096,28.2268 232.93,28.8935 229.5,28.5C 229.336,25.8127 229.503,23.146 230,20.5C 230.191,22.7078 230.691,24.7078 231.5,26.5C 233.977,26.9492 235.977,26.2825 237.5,24.5C 237.145,23.4777 236.478,22.811 235.5,22.5C 234.391,21.71 233.058,21.21 231.5,21C 233.058,20.79 234.391,20.29 235.5,19.5C 236.976,17.2911 236.309,15.9577 233.5,15.5 Z"/></g>
<g><path style="opacity:1" fill="#dae5f3" d="M 267.5,16.5 C 269.539,17.911 270.539,19.911 270.5,22.5C 269.167,22.5 267.833,22.5 266.5,22.5C 266.517,20.4352 266.85,18.4352 267.5,16.5 Z"/></g>
<g><path style="opacity:1" fill="#1d3e64" d="M 290.5,13.5 C 291.822,13.33 292.989,13.6634 294,14.5C 296.254,18.0066 298.254,21.6733 300,25.5C 300.173,21.4592 300.673,17.4592 301.5,13.5C 302.494,18.456 302.827,23.456 302.5,28.5C 301.178,28.67 300.011,28.3366 299,27.5C 296.746,23.9934 294.746,20.3267 293,16.5C 292.827,20.5408 292.327,24.5408 291.5,28.5C 290.506,23.544 290.173,18.544 290.5,13.5 Z"/></g>
<g><path style="opacity:1" fill="#264875" d="M 71.5,13.5 C 75.1916,12.9712 78.3583,13.9712 81,16.5C 81.9145,19.3434 81.0812,21.5101 78.5,23C 78.9903,24.982 79.9903,26.6487 81.5,28C 80.5,28.6667 79.5,28.6667 78.5,28C 75.6057,20.6993 73.6057,20.866 72.5,28.5C 71.5059,23.544 71.1725,18.544 71.5,13.5 Z"/></g>
<g><path style="opacity:1" fill="#e7f4f6" d="M 73.5,15.5 C 77.5,14.8333 79.1667,16.5 78.5,20.5C 76.8333,20.5 75.1667,20.5 73.5,20.5C 73.5,18.8333 73.5,17.1667 73.5,15.5 Z"/></g>
<g><path style="opacity:1" fill="#637d9b" d="M 179.5,28.5 C 179.666,23.8215 179.499,19.1548 179,14.5C 178.667,18.1667 178.333,21.8333 178,25.5C 177.283,24.9558 176.783,24.2891 176.5,23.5C 177.479,20.3752 177.813,17.0419 177.5,13.5C 178.5,13.5 179.5,13.5 180.5,13.5C 180.821,18.6946 180.487,23.6946 179.5,28.5 Z"/></g>
<g><path style="opacity:1" fill="#284870" d="M 191.5,13.5 C 192.675,13.281 193.675,13.6143 194.5,14.5C 196.265,18.6268 197.931,22.7935 199.5,27C 199.167,27.5 198.833,28 198.5,28.5C 196.508,24.9953 193.508,23.8286 189.5,25C 188.663,26.0113 188.33,27.1779 188.5,28.5C 187.448,28.6495 186.448,28.4828 185.5,28C 187.599,23.2001 189.599,18.3667 191.5,13.5 Z"/></g>
<g><path style="opacity:1" fill="#d6e9f4" d="M 192.5,16.5 C 194.074,18.1016 194.741,20.1016 194.5,22.5C 193.022,22.762 191.689,22.4287 190.5,21.5C 191.174,19.8045 191.841,18.1379 192.5,16.5 Z"/></g>
<g><path style="opacity:1" fill="#6a8baf" d="M 253.5,14.5 C 251.167,14.5 248.833,14.5 246.5,14.5C 246.5,19.1667 246.5,23.8333 246.5,28.5C 245.513,23.6946 245.179,18.6946 245.5,13.5C 248.385,13.1936 251.052,13.5269 253.5,14.5 Z"/></g>
<g><path style="opacity:1" fill="#23446e" d="M 253.5,14.5 C 254.947,15.1342 255.613,16.3009 255.5,18C 253.26,21.248 253.26,24.4147 255.5,27.5C 254.998,28.521 254.332,28.6877 253.5,28C 252.521,25.8627 251.188,24.0294 249.5,22.5C 249.036,24.9749 248.036,26.9749 246.5,28.5C 246.5,23.8333 246.5,19.1667 246.5,14.5C 248.833,14.5 251.167,14.5 253.5,14.5 Z"/></g>
<g><path style="opacity:1" fill="#ebf5f7" d="M 248.5,15.5 C 252.5,14.8333 254.167,16.5 253.5,20.5C 251.833,20.5 250.167,20.5 248.5,20.5C 248.5,18.8333 248.5,17.1667 248.5,15.5 Z"/></g>
<g><path style="opacity:1" fill="#2b4663" d="M 12.5,13.5 C 13.8086,15.5706 14.4752,18.0706 14.5,21C 14.1667,23.5 13.8333,26 13.5,28.5C 12.5059,23.544 12.1725,18.544 12.5,13.5 Z"/></g>
<g><path style="opacity:1" fill="#123c6d" d="M 40.5,15.5 C 43.5,14.1667 46.5,14.1667 49.5,15.5C 48.1667,15.5 46.8333,15.5 45.5,15.5C 44.8333,32.8333 44.1667,32.8333 43.5,15.5C 42.5,15.5 41.5,15.5 40.5,15.5 Z"/></g>
<g><path style="opacity:1" fill="#819eb8" d="M 63.5,20.5 C 64.0431,20.56 64.3764,20.8933 64.5,21.5C 62.604,22.4656 60.604,22.7989 58.5,22.5C 58.5,23.8333 58.5,25.1667 58.5,26.5C 57.5489,25.0813 57.2155,23.4147 57.5,21.5C 59.7354,21.7947 61.7354,21.4614 63.5,20.5 Z"/></g>
<g><path style="opacity:1" fill="#2e4c72" d="M 140.5,14.5 C 141.103,19.6186 140.436,24.2853 138.5,28.5C 137.897,23.3814 138.564,18.7147 140.5,14.5 Z"/></g>
<g><path style="opacity:1" fill="#24466f" d="M 91.5,18.5 C 91.2172,17.7109 90.7172,17.0442 90,16.5C 89.5012,20.4862 89.3345,24.4862 89.5,28.5C 87.5583,23.9443 86.8917,18.9443 87.5,13.5C 88.8221,13.33 89.9887,13.6634 91,14.5C 93.254,18.0066 95.254,21.6733 97,25.5C 97.1735,21.4592 97.6735,17.4592 98.5,13.5C 99.4941,18.456 99.8275,23.456 99.5,28.5C 98.1779,28.67 97.0113,28.3366 96,27.5C 94.2389,24.5889 92.7389,21.5889 91.5,18.5 Z"/></g>
<g><path style="opacity:1" fill="#1b3b66" d="M 205.5,13.5 C 207.43,17.3727 208.097,21.706 207.5,26.5C 209.924,26.1924 212.257,26.5258 214.5,27.5C 211.572,28.4841 208.572,28.8174 205.5,28.5C 205.5,23.5 205.5,18.5 205.5,13.5 Z"/></g>
<g><path style="opacity:1" fill="#1c416a" d="M 63.5,20.5 C 61.7354,21.4614 59.7354,21.7947 57.5,21.5C 57.2155,23.4147 57.5489,25.0813 58.5,26.5C 60.604,26.2011 62.604,26.5344 64.5,27.5C 61.5719,28.4841 58.5719,28.8174 55.5,28.5C 55.5,23.5 55.5,18.5 55.5,13.5C 58.5719,13.1826 61.5719,13.5159 64.5,14.5C 62.2573,15.4742 59.924,15.8076 57.5,15.5C 57.5,17.1667 57.5,18.8333 57.5,20.5C 59.5,20.5 61.5,20.5 63.5,20.5 Z"/></g>
<g><path style="opacity:1" fill="#8faac4" d="M 91.5,18.5 C 90.8333,21.8333 90.1667,25.1667 89.5,28.5C 89.3345,24.4862 89.5012,20.4862 90,16.5C 90.7172,17.0442 91.2172,17.7109 91.5,18.5 Z"/></g>
<g><path style="opacity:1" fill="#29496f" d="M 110.5,13.5 C 111.675,13.281 112.675,13.6143 113.5,14.5C 115.371,19.0742 117.371,23.5742 119.5,28C 118.552,28.4828 117.552,28.6495 116.5,28.5C 116.763,25.2657 115.263,23.9324 112,24.5C 108.904,24.0956 107.071,25.429 106.5,28.5C 106.167,28 105.833,27.5 105.5,27C 107.319,22.5335 108.986,18.0335 110.5,13.5 Z"/></g>
<g><path style="opacity:1" fill="#d1e4f2" d="M 111.5,16.5 C 113.043,17.7358 114.043,19.4024 114.5,21.5C 112.833,22.8333 111.167,22.8333 109.5,21.5C 110.456,19.9246 111.123,18.258 111.5,16.5 Z"/></g>
<g><path style="opacity:1" fill="#2a4a74" d="M 150.5,13.5 C 159.493,12.6604 162.993,16.6604 161,25.5C 158.091,28.3939 154.591,29.2272 150.5,28C 145.299,23.2929 145.299,18.4596 150.5,13.5 Z"/></g>
<g><path style="opacity:1" fill="#f5f9f9" d="M 151.5,15.5 C 159.314,15.6247 161.314,19.1247 157.5,26C 150.495,27.3236 147.995,24.4902 150,17.5C 150.717,16.9558 151.217,16.2891 151.5,15.5 Z"/></g>
<g><path style="opacity:1" fill="#234369" d="M 122.5,13.5 C 125.898,13.1796 129.232,13.513 132.5,14.5C 131.311,15.4287 129.978,15.762 128.5,15.5C 127.833,32.8333 127.167,32.8333 126.5,15.5C 124.517,15.8432 123.183,15.1765 122.5,13.5 Z"/></g>
<g><path style="opacity:1" fill="#e0f1f7" d="M 235.5,22.5 C 236.478,22.811 237.145,23.4777 237.5,24.5C 235.977,26.2825 233.977,26.9492 231.5,26.5C 231.5,25.1667 231.5,23.8333 231.5,22.5C 232.833,22.5 234.167,22.5 235.5,22.5 Z"/></g>
<g><path style="opacity:1" fill="#1d3e65" d="M 176.5,23.5 C 176.783,24.2891 177.283,24.9558 178,25.5C 178.333,21.8333 178.667,18.1667 179,14.5C 179.499,19.1548 179.666,23.8215 179.5,28.5C 177.983,28.4894 176.816,27.8228 176,26.5C 174.333,23.1667 172.667,19.8333 171,16.5C 170.827,20.5408 170.327,24.5408 169.5,28.5C 168.506,23.544 168.173,18.544 168.5,13.5C 169.675,13.281 170.675,13.6143 171.5,14.5C 173.432,17.3661 175.099,20.3661 176.5,23.5 Z"/></g>
<g><path style="opacity:1" fill="#0d3967" d="M 12.5,46.5 C 18.1667,46.5 23.8333,46.5 29.5,46.5C 29.5,76.8333 29.5,107.167 29.5,137.5C 23.8333,137.5 18.1667,137.5 12.5,137.5C 12.5,107.167 12.5,76.8333 12.5,46.5 Z"/></g>
<g><path style="opacity:1" fill="#003871" d="M 14.5,47.5 C 19.1667,47.5 23.8333,47.5 28.5,47.5C 28.5,77.1667 28.5,106.833 28.5,136.5C 26.1667,136.5 23.8333,136.5 21.5,136.5C 22.0615,126.436 20.8949,126.102 18,135.5C 17,136.833 16,136.833 15,135.5C 14.5,106.169 14.3334,76.8352 14.5,47.5 Z"/></g>
<g><path style="opacity:1" fill="#043870" d="M 50.5,46.5 C 62.8378,46.3335 75.1712,46.5001 87.5,47C 109.91,49.7573 116.744,61.5906 108,82.5C 105.933,85.07 103.433,87.07 100.5,88.5C 117.261,97.8748 120.761,110.875 111,127.5C 104.749,133.54 97.2486,136.707 88.5,137C 75.8377,137.5 63.1711,137.667 50.5,137.5C 50.5,107.167 50.5,76.8333 50.5,46.5 Z"/></g>
<g><path style="opacity:1" fill="#5f7a99" d="M 167.5,46.5 C 155.5,46.5 143.5,46.5 131.5,46.5C 131.5,76.8333 131.5,107.167 131.5,137.5C 136.833,137.5 142.167,137.5 147.5,137.5C 142.025,138.489 136.358,138.822 130.5,138.5C 130.5,107.5 130.5,76.5 130.5,45.5C 143.011,45.1714 155.345,45.5048 167.5,46.5 Z"/></g>
<g><path style="opacity:1" fill="#0d427a" d="M 251.5,44.5 C 248.785,47.2139 246.451,50.2139 244.5,53.5C 242.956,53.7031 241.622,54.3698 240.5,55.5C 239.123,52.3053 237.123,51.8053 234.5,54C 231.522,57.1309 229.189,60.6309 227.5,64.5C 224.5,65.8333 221.5,65.8333 218.5,64.5C 226.185,52.4857 237.185,45.819 251.5,44.5 Z"/></g>
<g><path style="opacity:1" fill="#46a2d8" d="M 251.5,44.5 C 252.833,44.5 254.167,44.5 255.5,44.5C 249.05,50.282 243.717,56.9486 239.5,64.5C 244.12,65.4933 248.786,65.8266 253.5,65.5C 251.429,66.8086 248.929,67.4752 246,67.5C 238.429,69.3208 236.262,66.9875 239.5,60.5C 240.779,57.8883 242.445,55.5549 244.5,53.5C 246.451,50.2139 248.785,47.2139 251.5,44.5 Z"/></g>
<g><path style="opacity:1" fill="#043870" d="M 167.5,46.5 C 192.4,48.9344 201.234,62.2677 194,86.5C 189.907,93.7563 183.74,98.0896 175.5,99.5C 182.5,112.318 190.166,124.818 198.5,137C 191.833,137.667 185.167,137.667 178.5,137C 171.85,125.517 164.85,114.35 157.5,103.5C 154.375,102.521 151.042,102.187 147.5,102.5C 147.5,114.167 147.5,125.833 147.5,137.5C 142.167,137.5 136.833,137.5 131.5,137.5C 131.5,107.167 131.5,76.8333 131.5,46.5C 143.5,46.5 155.5,46.5 167.5,46.5 Z"/></g>
<g><path style="opacity:1" fill="#19609f" d="M 255.5,44.5 C 273.077,43.4561 286.743,50.1227 296.5,64.5C 295.378,65.1558 294.045,65.4892 292.5,65.5C 290.68,65.3507 289.18,64.6841 288,63.5C 286.302,64.7407 284.802,66.074 283.5,67.5C 281.243,67.0383 279.243,66.0383 277.5,64.5C 275.281,59.3628 272.114,55.0295 268,51.5C 267.5,51.6667 267,51.8333 266.5,52C 269.977,55.9377 272.977,60.271 275.5,65C 274.552,65.4828 273.552,65.6495 272.5,65.5C 266.377,65.6032 260.044,65.6032 253.5,65.5C 248.786,65.8266 244.12,65.4933 239.5,64.5C 243.717,56.9486 249.05,50.282 255.5,44.5 Z"/></g>
<g><path style="opacity:1" fill="#1b5f9d" d="M 244.5,53.5 C 242.445,55.5549 240.779,57.8883 239.5,60.5C 238.5,60.5 237.5,60.5 236.5,60.5C 235.135,65.2541 232.135,66.5874 227.5,64.5C 229.189,60.6309 231.522,57.1309 234.5,54C 237.123,51.8053 239.123,52.3053 240.5,55.5C 241.622,54.3698 242.956,53.7031 244.5,53.5 Z"/></g>
<g><path style="opacity:1" fill="#50b2e8" d="M 283.5,67.5 C 282.391,68.29 281.058,68.79 279.5,69C 280.167,70.6667 280.833,72.3333 281.5,74C 280.552,74.4828 279.552,74.6495 278.5,74.5C 278.405,72.2143 277.738,70.2143 276.5,68.5C 274.924,67.8571 273.59,66.8571 272.5,65.5C 273.552,65.6495 274.552,65.4828 275.5,65C 272.977,60.271 269.977,55.9377 266.5,52C 267,51.8333 267.5,51.6667 268,51.5C 272.114,55.0295 275.281,59.3628 277.5,64.5C 279.243,66.0383 281.243,67.0383 283.5,67.5 Z"/></g>
<g><path style="opacity:1" fill="#f6f9fa" d="M 66.5,61.5 C 74.253,61.1039 81.9196,61.6039 89.5,63C 93.0842,64.6638 94.7508,67.4971 94.5,71.5C 94.5366,75.5947 92.8699,78.7613 89.5,81C 81.9048,82.3561 74.2382,82.8561 66.5,82.5C 66.5,75.5 66.5,68.5 66.5,61.5 Z"/></g>
<g><path style="opacity:1" fill="#fafcfc" d="M 147.5,61.5 C 155.903,61.1301 164.236,61.6301 172.5,63C 180.026,67.9462 181.526,74.4462 177,82.5C 175.421,84.0412 173.587,85.2078 171.5,86C 163.571,87.3633 155.571,87.8633 147.5,87.5C 147.5,78.8333 147.5,70.1667 147.5,61.5 Z"/></g>
<g><path style="opacity:1" fill="#1b64a4" d="M 298.5,67.5 C 301.559,72.7344 303.226,78.401 303.5,84.5C 303.5,86.5 303.5,88.5 303.5,90.5C 300.5,90.5 297.5,90.5 294.5,90.5C 290.629,90.815 286.962,90.4816 283.5,89.5C 283.663,85.2929 283.329,81.1263 282.5,77C 283.986,74.4105 284.653,71.5772 284.5,68.5C 289.13,67.7705 293.797,67.4372 298.5,67.5 Z"/></g>
<g><path style="opacity:1" fill="#053971" d="M 216.5,68.5 C 219.572,68.1826 222.572,68.5159 225.5,69.5C 224.37,70.6223 223.703,71.9557 223.5,73.5C 219.32,78.2762 217.32,83.9429 217.5,90.5C 215.5,90.5 213.5,90.5 211.5,90.5C 211.5,88.1667 211.5,85.8333 211.5,83.5C 211.798,77.9483 213.464,72.9483 216.5,68.5 Z"/></g>
<g><path style="opacity:1" fill="#2e7eb8" d="M 239.5,60.5 C 236.262,66.9875 238.429,69.3208 246,67.5C 248.929,67.4752 251.429,66.8086 253.5,65.5C 260.044,65.6032 266.377,65.6032 272.5,65.5C 273.59,66.8571 274.924,67.8571 276.5,68.5C 277.738,70.2143 278.405,72.2143 278.5,74.5C 279.552,74.6495 280.552,74.4828 281.5,74C 280.833,72.3333 280.167,70.6667 279.5,69C 281.058,68.79 282.391,68.29 283.5,67.5C 284.802,66.074 286.302,64.7407 288,63.5C 289.18,64.6841 290.68,65.3507 292.5,65.5C 294.045,65.4892 295.378,65.1558 296.5,64.5C 297.401,65.2905 298.068,66.2905 298.5,67.5C 293.797,67.4372 289.13,67.7705 284.5,68.5C 284.653,71.5772 283.986,74.4105 282.5,77C 283.329,81.1263 283.663,85.2929 283.5,89.5C 281.663,92.519 281.163,95.8524 282,99.5C 283.352,97.4062 283.852,95.0728 283.5,92.5C 286.384,91.6174 289.217,91.6174 292,92.5C 293.376,92.3158 294.209,91.6491 294.5,90.5C 297.5,90.5 300.5,90.5 303.5,90.5C 303.5,88.5 303.5,86.5 303.5,84.5C 304.833,89.5 304.833,94.5 303.5,99.5C 303.5,97.5 303.5,95.5 303.5,93.5C 301.143,93.3367 298.81,93.5034 296.5,94C 297.786,101.423 296.786,108.59 293.5,115.5C 292.833,115.5 292.5,115.167 292.5,114.5C 293.292,113.033 293.292,111.7 292.5,110.5C 288.541,111.402 284.541,111.402 280.5,110.5C 280.371,112.216 280.038,113.883 279.5,115.5C 278.5,115.5 277.5,115.5 276.5,115.5C 276.414,114.504 276.748,113.671 277.5,113C 275.782,112.654 274.115,112.154 272.5,111.5C 270.45,112.077 269.45,113.41 269.5,115.5C 268.833,115.5 268.167,115.5 267.5,115.5C 267.423,114.25 266.756,113.417 265.5,113C 268.517,112.495 270.851,110.995 272.5,108.5C 273.623,110.289 274.956,110.622 276.5,109.5C 275.477,107.105 276.477,106.105 279.5,106.5C 279.5,104.833 279.5,103.167 279.5,101.5C 277.516,101.383 275.85,102.05 274.5,103.5C 272.902,102.515 271.235,102.349 269.5,103C 268.215,105.423 266.382,107.256 264,108.5C 263.5,108.167 263,107.833 262.5,107.5C 265.365,105.969 267.698,103.803 269.5,101C 271.235,100.349 272.902,100.515 274.5,101.5C 276.063,100.055 277.396,98.3885 278.5,96.5C 272.119,94.3007 266.786,95.8007 262.5,101C 261.207,101.49 259.873,101.657 258.5,101.5C 258.5,106.167 258.5,110.833 258.5,115.5C 257.5,115.5 256.5,115.5 255.5,115.5C 256.602,111.253 256.768,106.92 256,102.5C 252.399,100.951 249.233,98.7844 246.5,96C 249.809,97.1466 253.142,98.6466 256.5,100.5C 257.363,98.2287 257.363,95.8954 256.5,93.5C 248.767,93.938 241.101,93.938 233.5,93.5C 241.388,93.1533 249.054,92.1533 256.5,90.5C 257.295,85.8507 257.461,81.1841 257,76.5C 256.111,77.8882 255.611,77.7215 255.5,76C 257.111,73.7903 257.778,71.2903 257.5,68.5C 255.857,68.4802 254.524,69.1468 253.5,70.5C 252.672,69.5853 251.672,68.9186 250.5,68.5C 246.65,68.5956 242.65,68.7622 238.5,69C 234.586,74.73 233.753,80.8967 236,87.5C 236.995,88.0659 237.828,88.7326 238.5,89.5C 236.238,91.0473 234.238,90.7139 232.5,88.5C 231.042,90.1385 230.708,91.8051 231.5,93.5C 230.757,94.1818 230.091,94.8485 229.5,95.5C 227.856,95.2865 226.356,95.6198 225,96.5C 224.517,95.552 224.351,94.552 224.5,93.5C 218.042,92.9077 217.376,93.9077 222.5,96.5C 221.609,97.5896 220.609,97.5896 219.5,96.5C 218.534,98.396 218.201,100.396 218.5,102.5C 220.144,102.286 221.644,102.62 223,103.5C 226.011,108.417 225.178,108.75 220.5,104.5C 219.386,105.723 219.219,107.056 220,108.5C 221.61,108.13 223.11,108.797 224.5,110.5C 225.086,110.291 225.586,109.957 226,109.5C 226.573,111.641 227.406,113.641 228.5,115.5C 226.738,115.643 225.071,115.309 223.5,114.5C 222.374,115.808 222.374,117.142 223.5,118.5C 221.585,118.216 219.919,118.549 218.5,119.5C 217.326,118.486 216.66,117.153 216.5,115.5C 218.288,115.785 219.955,115.452 221.5,114.5C 217.672,108.032 216.006,101.032 216.5,93.5C 214.833,93.5 213.167,93.5 211.5,93.5C 211.5,95.5 211.5,97.5 211.5,99.5C 210.167,94.1667 210.167,88.8333 211.5,83.5C 211.5,85.8333 211.5,88.1667 211.5,90.5C 213.5,90.5 215.5,90.5 217.5,90.5C 217.32,83.9429 219.32,78.2762 223.5,73.5C 223.703,71.9557 224.37,70.6223 225.5,69.5C 222.572,68.5159 219.572,68.1826 216.5,68.5C 216.66,66.847 217.326,65.5137 218.5,64.5C 221.5,65.8333 224.5,65.8333 227.5,64.5C 232.135,66.5874 235.135,65.2541 236.5,60.5C 237.5,60.5 238.5,60.5 239.5,60.5 Z"/></g>
<g><path style="opacity:1" fill="#52b3ea" d="M 259.5,90.5 C 266.5,90.5 273.5,90.5 280.5,90.5C 277.402,91.821 273.902,92.4877 270,92.5C 266.098,92.4877 262.598,91.821 259.5,90.5 Z"/></g>
<g><path style="opacity:1" fill="#023b76" d="M 220.5,80.5 C 222.549,80.7058 222.883,81.5391 221.5,83C 222.5,83.3333 223.5,83.6667 224.5,84C 224.167,84.3333 223.833,84.6667 223.5,85C 227.114,84.966 229.447,86.6327 230.5,90C 227.134,90.3301 223.801,89.9967 220.5,89C 220.173,86.3151 220.173,83.4818 220.5,80.5 Z"/></g>
<g><path style="opacity:1" fill="#033f78" d="M 223.5,73.5 C 224.117,73.3893 224.617,73.056 225,72.5C 226.375,74.3761 227.542,76.3761 228.5,78.5C 228.833,78.1667 229.167,77.8333 229.5,77.5C 228.234,74.824 227.401,72.1573 227,69.5C 228.726,68.4238 230.559,68.2571 232.5,69C 230.394,71.1118 230.727,73.1118 233.5,75C 231.872,78.6033 231.038,82.4366 231,86.5C 225.285,83.712 222.785,79.3786 223.5,73.5 Z"/></g>
<g><path style="opacity:1" fill="#105492" d="M 256.5,90.5 C 250.31,90.8229 244.31,90.4896 238.5,89.5C 237.828,88.7326 236.995,88.0659 236,87.5C 233.753,80.8967 234.586,74.73 238.5,69C 242.65,68.7622 246.65,68.5956 250.5,68.5C 251.672,68.9186 252.672,69.5853 253.5,70.5C 254.524,69.1468 255.857,68.4802 257.5,68.5C 257.778,71.2903 257.111,73.7903 255.5,76C 255.611,77.7215 256.111,77.8882 257,76.5C 257.461,81.1841 257.295,85.8507 256.5,90.5 Z"/></g>
<g><path style="opacity:1" fill="#1966a7" d="M 276.5,68.5 C 276.523,72.5417 277.689,76.2084 280,79.5C 280.499,83.1516 280.665,86.8183 280.5,90.5C 273.5,90.5 266.5,90.5 259.5,90.5C 259.5,89.1667 259.5,87.8333 259.5,86.5C 263.5,86.1667 263.5,85.8333 259.5,85.5C 259.553,79.8044 259.22,74.1377 258.5,68.5C 264.355,67.9377 270.355,67.9377 276.5,68.5 Z"/></g>
<g><path style="opacity:1" fill="#56b0e7" d="M 283.5,89.5 C 286.962,90.4816 290.629,90.815 294.5,90.5C 294.209,91.6491 293.376,92.3158 292,92.5C 289.217,91.6174 286.384,91.6174 283.5,92.5C 283.852,95.0728 283.352,97.4062 282,99.5C 281.163,95.8524 281.663,92.519 283.5,89.5 Z"/></g>
<g><path style="opacity:1" fill="#0f4d87" d="M 303.5,99.5 C 303.022,105.265 301.355,110.598 298.5,115.5C 296.833,115.5 295.167,115.5 293.5,115.5C 296.786,108.59 297.786,101.423 296.5,94C 298.81,93.5034 301.143,93.3367 303.5,93.5C 303.5,95.5 303.5,97.5 303.5,99.5 Z"/></g>
<g><path style="opacity:1" fill="#105594" d="M 288.5,94.5 C 290.833,94.5 293.167,94.5 295.5,94.5C 295.607,96.9032 294.607,98.7365 292.5,100C 289.469,102.015 286.136,103.181 282.5,103.5C 282.325,100.671 283.658,99.0045 286.5,98.5C 287.18,97.1401 287.847,95.8068 288.5,94.5 Z"/></g>
<g><path style="opacity:1" fill="#f7fafb" d="M 66.5,97.5 C 73.5079,97.3337 80.5079,97.5004 87.5,98C 96.7409,99.8987 100.241,105.399 98,114.5C 95.4909,119.577 91.3242,122.077 85.5,122C 79.1754,122.5 72.8421,122.666 66.5,122.5C 66.5,114.167 66.5,105.833 66.5,97.5 Z"/></g>
<g><path style="opacity:1" fill="#073970" d="M 216.5,115.5 C 213.657,110.633 211.991,105.3 211.5,99.5C 211.5,97.5 211.5,95.5 211.5,93.5C 213.167,93.5 214.833,93.5 216.5,93.5C 216.006,101.032 217.672,108.032 221.5,114.5C 219.955,115.452 218.288,115.785 216.5,115.5 Z"/></g>
<g><path style="opacity:1" fill="#043d76" d="M 229.5,95.5 C 230.117,95.6107 230.617,95.944 231,96.5C 231.781,99.8337 232.114,103.167 232,106.5C 230.234,103.355 227.901,100.688 225,98.5C 224.833,98.8333 224.667,99.1667 224.5,99.5C 227.582,104.076 230.582,108.409 233.5,112.5C 232.637,114.872 231.471,114.872 230,112.5C 229.383,113.449 229.549,114.282 230.5,115C 229.906,115.464 229.239,115.631 228.5,115.5C 227.406,113.641 226.573,111.641 226,109.5C 225.586,109.957 225.086,110.291 224.5,110.5C 223.11,108.797 221.61,108.13 220,108.5C 219.219,107.056 219.386,105.723 220.5,104.5C 225.178,108.75 226.011,108.417 223,103.5C 221.644,102.62 220.144,102.286 218.5,102.5C 218.201,100.396 218.534,98.396 219.5,96.5C 220.609,97.5896 221.609,97.5896 222.5,96.5C 217.376,93.9077 218.042,92.9077 224.5,93.5C 224.351,94.552 224.517,95.552 225,96.5C 226.356,95.6198 227.856,95.2865 229.5,95.5 Z"/></g>
<g><path style="opacity:1" fill="#0b4e8c" d="M 294.5,100.5 C 294.557,109.64 290.224,111.973 281.5,107.5C 285.743,104.88 290.076,102.547 294.5,100.5 Z"/></g>
<g><path style="opacity:1" fill="#04427d" d="M 233.5,93.5 C 241.101,93.938 248.767,93.938 256.5,93.5C 257.363,95.8954 257.363,98.2287 256.5,100.5C 253.142,98.6466 249.809,97.1466 246.5,96C 249.233,98.7844 252.399,100.951 256,102.5C 256.768,106.92 256.602,111.253 255.5,115.5C 254.25,115.423 253.417,114.756 253,113.5C 250.544,115.321 247.711,115.988 244.5,115.5C 244.001,111.51 243.501,107.51 243,103.5C 243.035,107.245 242.035,107.912 240,105.5C 239.655,107.201 240.322,108.534 242,109.5C 242.495,111.473 242.662,113.473 242.5,115.5C 240.856,115.714 239.356,115.38 238,114.5C 237.836,109.821 237.836,105.155 238,100.5C 234.994,99.1587 233.494,96.8254 233.5,93.5 Z"/></g>
<g><path style="opacity:1" fill="#2973ac" d="M 239.5,99.5 C 242.766,99.6294 245.766,100.629 248.5,102.5C 249.24,105.836 249.906,109.17 250.5,112.5C 249.675,113.386 248.675,113.719 247.5,113.5C 247.82,110.102 247.487,106.768 246.5,103.5C 243.721,102.602 241.388,101.269 239.5,99.5 Z"/></g>
<g><path style="opacity:1" fill="#cadbef" d="M 157.5,103.5 C 154.5,103.5 151.5,103.5 148.5,103.5C 148.828,115.012 148.495,126.346 147.5,137.5C 147.5,125.833 147.5,114.167 147.5,102.5C 151.042,102.187 154.375,102.521 157.5,103.5 Z"/></g>
<g><path style="opacity:1" fill="#0a4d8b" d="M 267.5,115.5 C 264.115,115.975 261.782,114.642 260.5,111.5C 259.269,112.651 259.269,113.817 260.5,115C 259.906,115.464 259.239,115.631 258.5,115.5C 258.5,110.833 258.5,106.167 258.5,101.5C 259.873,101.657 261.207,101.49 262.5,101C 266.786,95.8007 272.119,94.3007 278.5,96.5C 277.396,98.3885 276.063,100.055 274.5,101.5C 272.902,100.515 271.235,100.349 269.5,101C 267.698,103.803 265.365,105.969 262.5,107.5C 263,107.833 263.5,108.167 264,108.5C 266.382,107.256 268.215,105.423 269.5,103C 271.235,102.349 272.902,102.515 274.5,103.5C 275.85,102.05 277.516,101.383 279.5,101.5C 279.5,103.167 279.5,104.833 279.5,106.5C 276.477,106.105 275.477,107.105 276.5,109.5C 274.956,110.622 273.623,110.289 272.5,108.5C 270.851,110.995 268.517,112.495 265.5,113C 266.756,113.417 267.423,114.25 267.5,115.5 Z"/></g>
<g><path style="opacity:1" fill="#0a4b88" d="M 292.5,114.5 C 288.235,115.311 283.901,115.644 279.5,115.5C 280.038,113.883 280.371,112.216 280.5,110.5C 284.541,111.402 288.541,111.402 292.5,110.5C 293.292,111.7 293.292,113.033 292.5,114.5 Z"/></g>
<g><path style="opacity:1" fill="#3789c1" d="M 238.5,89.5 C 244.31,90.4896 250.31,90.8229 256.5,90.5C 249.054,92.1533 241.388,93.1533 233.5,93.5C 233.494,96.8254 234.994,99.1587 238,100.5C 237.836,105.155 237.836,109.821 238,114.5C 239.356,115.38 240.856,115.714 242.5,115.5C 242.662,113.473 242.495,111.473 242,109.5C 240.322,108.534 239.655,107.201 240,105.5C 242.035,107.912 243.035,107.245 243,103.5C 243.501,107.51 244.001,111.51 244.5,115.5C 247.711,115.988 250.544,115.321 253,113.5C 253.417,114.756 254.25,115.423 255.5,115.5C 256.5,115.5 257.5,115.5 258.5,115.5C 259.239,115.631 259.906,115.464 260.5,115C 259.269,113.817 259.269,112.651 260.5,111.5C 261.782,114.642 264.115,115.975 267.5,115.5C 268.167,115.5 268.833,115.5 269.5,115.5C 271.833,115.5 274.167,115.5 276.5,115.5C 277.5,115.5 278.5,115.5 279.5,115.5C 283.901,115.644 288.235,115.311 292.5,114.5C 292.5,115.167 292.833,115.5 293.5,115.5C 295.167,115.5 296.833,115.5 298.5,115.5C 298.068,116.71 297.401,117.71 296.5,118.5C 292.167,117.167 287.833,117.167 283.5,118.5C 282.391,118.557 281.391,118.89 280.5,119.5C 280.53,118.503 280.03,117.836 279,117.5C 277.415,118.044 275.915,118.711 274.5,119.5C 273.25,119.577 272.417,120.244 272,121.5C 271.282,120.549 270.449,120.383 269.5,121C 267.333,123.167 265.167,125.333 263,127.5C 263.019,125.893 263.185,124.226 263.5,122.5C 267.172,121.955 266.838,121.622 262.5,121.5C 264.292,120.691 266.292,120.191 268.5,120C 269.167,119.333 269.833,118.667 270.5,118C 265.167,117.672 260.167,117.839 255.5,118.5C 255.631,119.376 255.298,120.043 254.5,120.5C 253.494,120.062 253.494,119.396 254.5,118.5C 250.541,117.34 246.541,117.173 242.5,118C 240.216,119.363 240.049,120.863 242,122.5C 242.893,121.289 243.726,121.289 244.5,122.5C 243.674,123.451 243.508,124.451 244,125.5C 245.353,124.315 246.52,122.981 247.5,121.5C 251.386,122.588 251.386,123.421 247.5,124C 246.262,124.69 246.262,125.19 247.5,125.5C 247.047,126.458 246.381,127.292 245.5,128C 245.833,128.333 246.167,128.667 246.5,129C 245.054,130.298 243.721,130.465 242.5,129.5C 241.319,127.933 239.653,127.099 237.5,127C 238.833,126.667 240.167,126.333 241.5,126C 239.578,124.58 238.245,122.747 237.5,120.5C 235.397,122.88 234.23,122.213 234,118.5C 233.549,120.929 232.715,121.096 231.5,119C 229.833,118.333 228.167,118.333 226.5,119C 227.044,119.717 227.711,120.217 228.5,120.5C 230.031,121.925 229.698,122.591 227.5,122.5C 226.5,120.833 225.167,119.5 223.5,118.5C 222.374,117.142 222.374,115.808 223.5,114.5C 225.071,115.309 226.738,115.643 228.5,115.5C 229.239,115.631 229.906,115.464 230.5,115C 229.549,114.282 229.383,113.449 230,112.5C 231.471,114.872 232.637,114.872 233.5,112.5C 230.582,108.409 227.582,104.076 224.5,99.5C 224.667,99.1667 224.833,98.8333 225,98.5C 227.901,100.688 230.234,103.355 232,106.5C 232.114,103.167 231.781,99.8337 231,96.5C 230.617,95.944 230.117,95.6107 229.5,95.5C 230.091,94.8485 230.757,94.1818 231.5,93.5C 230.708,91.8051 231.042,90.1385 232.5,88.5C 234.238,90.7139 236.238,91.0473 238.5,89.5 Z"/></g>
<g><path style="opacity:1" fill="#094585" d="M 276.5,115.5 C 274.167,115.5 271.833,115.5 269.5,115.5C 269.45,113.41 270.45,112.077 272.5,111.5C 274.115,112.154 275.782,112.654 277.5,113C 276.748,113.671 276.414,114.504 276.5,115.5 Z"/></g>
<g><path style="opacity:1" fill="#06437d" d="M 255.5,118.5 C 256.449,121.029 255.782,123.362 253.5,125.5C 255.856,126.654 256.023,127.987 254,129.5C 253,126.36 250.833,125.027 247.5,125.5C 246.262,125.19 246.262,124.69 247.5,124C 251.386,123.421 251.386,122.588 247.5,121.5C 246.52,122.981 245.353,124.315 244,125.5C 243.508,124.451 243.674,123.451 244.5,122.5C 243.726,121.289 242.893,121.289 242,122.5C 240.049,120.863 240.216,119.363 242.5,118C 246.541,117.173 250.541,117.34 254.5,118.5C 253.494,119.396 253.494,120.062 254.5,120.5C 255.298,120.043 255.631,119.376 255.5,118.5 Z"/></g>
<g><path style="opacity:1" fill="#023e75" d="M 242.5,129.5 C 240.548,130.408 238.548,130.241 236.5,129C 235.076,126.899 233.742,124.733 232.5,122.5C 231.423,121.295 230.09,120.628 228.5,120.5C 227.711,120.217 227.044,119.717 226.5,119C 228.167,118.333 229.833,118.333 231.5,119C 232.715,121.096 233.549,120.929 234,118.5C 234.23,122.213 235.397,122.88 237.5,120.5C 238.245,122.747 239.578,124.58 241.5,126C 240.167,126.333 238.833,126.667 237.5,127C 239.653,127.099 241.319,127.933 242.5,129.5 Z"/></g>
<g><path style="opacity:1" fill="#3077b0" d="M 255.5,118.5 C 260.167,117.839 265.167,117.672 270.5,118C 269.833,118.667 269.167,119.333 268.5,120C 266.292,120.191 264.292,120.691 262.5,121.5C 260.926,121.063 259.759,120.063 259,118.5C 258.244,120.809 258.744,122.809 260.5,124.5C 258.473,128.7 259.806,131.034 264.5,131.5C 266.556,130.952 268.223,129.786 269.5,128C 268.376,127.751 267.376,127.251 266.5,126.5C 271.037,126.296 273.703,123.963 274.5,119.5C 275.915,118.711 277.415,118.044 279,117.5C 280.03,117.836 280.53,118.503 280.5,119.5C 279.263,121.097 277.596,122.263 275.5,123C 277.955,124.54 280.621,124.874 283.5,124C 284.552,122.284 283.886,121.284 281.5,121C 284.043,120.86 286.377,120.194 288.5,119C 286.866,118.506 285.199,118.34 283.5,118.5C 287.833,117.167 292.167,117.167 296.5,118.5C 294.473,118.338 292.473,118.505 290.5,119C 284.295,126.267 276.629,131.267 267.5,134C 266.167,135.333 264.833,136.667 263.5,138C 263.728,138.399 264.062,138.565 264.5,138.5C 258.833,139.833 253.167,139.833 247.5,138.5C 248.552,138.649 249.552,138.483 250.5,138C 248.787,136.622 247.453,134.955 246.5,133C 238.366,132.603 232.033,129.103 227.5,122.5C 229.698,122.591 230.031,121.925 228.5,120.5C 230.09,120.628 231.423,121.295 232.5,122.5C 233.742,124.733 235.076,126.899 236.5,129C 238.548,130.241 240.548,130.408 242.5,129.5C 243.721,130.465 245.054,130.298 246.5,129C 246.167,128.667 245.833,128.333 245.5,128C 246.381,127.292 247.047,126.458 247.5,125.5C 250.833,125.027 253,126.36 254,129.5C 256.023,127.987 255.856,126.654 253.5,125.5C 255.782,123.362 256.449,121.029 255.5,118.5 Z"/></g>
<g><path style="opacity:1" fill="#0b4b89" d="M 283.5,118.5 C 285.199,118.34 286.866,118.506 288.5,119C 286.377,120.194 284.043,120.86 281.5,121C 283.886,121.284 284.552,122.284 283.5,124C 280.621,124.874 277.955,124.54 275.5,123C 277.596,122.263 279.263,121.097 280.5,119.5C 281.391,118.89 282.391,118.557 283.5,118.5 Z"/></g>
<g><path style="opacity:1" fill="#05407a" d="M 262.5,121.5 C 266.838,121.622 267.172,121.955 263.5,122.5C 263.185,124.226 263.019,125.893 263,127.5C 265.167,125.333 267.333,123.167 269.5,121C 270.449,120.383 271.282,120.549 272,121.5C 272.417,120.244 273.25,119.577 274.5,119.5C 273.703,123.963 271.037,126.296 266.5,126.5C 267.376,127.251 268.376,127.751 269.5,128C 268.223,129.786 266.556,130.952 264.5,131.5C 259.806,131.034 258.473,128.7 260.5,124.5C 258.744,122.809 258.244,120.809 259,118.5C 259.759,120.063 260.926,121.063 262.5,121.5 Z"/></g>
<g><path style="opacity:1" fill="#113d73" d="M 296.5,118.5 C 289.455,130.702 278.788,137.369 264.5,138.5C 264.062,138.565 263.728,138.399 263.5,138C 264.833,136.667 266.167,135.333 267.5,134C 276.629,131.267 284.295,126.267 290.5,119C 292.473,118.505 294.473,118.338 296.5,118.5 Z"/></g>
<g><path style="opacity:1" fill="#033b75" d="M 256.5,128.5 C 258.641,130.968 261.308,132.634 264.5,133.5C 259.293,140.294 254.293,140.128 249.5,133C 252.457,132.313 254.791,130.813 256.5,128.5 Z"/></g>
<g><path style="opacity:1" fill="#0f3c71" d="M 223.5,118.5 C 225.167,119.5 226.5,120.833 227.5,122.5C 232.033,129.103 238.366,132.603 246.5,133C 247.453,134.955 248.787,136.622 250.5,138C 249.552,138.483 248.552,138.649 247.5,138.5C 235.006,136.424 225.34,130.09 218.5,119.5C 219.919,118.549 221.585,118.216 223.5,118.5 Z"/></g>
<g><path style="opacity:1" fill="#1d4068" d="M 82.5,155.5 C 86.0071,154.994 89.1737,155.66 92,157.5C 93.0904,160.579 92.2571,162.912 89.5,164.5C 91.4414,166.316 92.1081,168.316 91.5,170.5C 89.9373,169.055 88.604,167.389 87.5,165.5C 86.675,164.614 85.675,164.281 84.5,164.5C 84.7989,166.604 84.4656,168.604 83.5,170.5C 82.5059,165.544 82.1725,160.544 82.5,155.5 Z"/></g>
<g><path style="opacity:1" fill="#274873" d="M 138.5,155.5 C 146.661,154.171 150.495,157.505 150,165.5C 146.702,170.774 142.369,171.774 137,168.5C 134.639,163.729 135.139,159.396 138.5,155.5 Z"/></g>
<g><path style="opacity:1" fill="#183e6e" d="M 251.5,155.5 C 254.898,155.18 258.232,155.513 261.5,156.5C 260.311,157.429 258.978,157.762 257.5,157.5C 256.833,174.833 256.167,174.833 255.5,157.5C 253.517,157.843 252.183,157.176 251.5,155.5 Z"/></g>
<g><path style="opacity:1" fill="#294771" d="M 99.5,155.5 C 102.807,155.063 105.807,155.73 108.5,157.5C 105.998,157.621 103.332,157.788 100.5,158C 98.5218,160.497 98.0218,163.331 99,166.5C 99.956,167.894 101.289,168.561 103,168.5C 104.841,167.875 106.674,167.708 108.5,168C 101.546,172.591 97.2128,170.758 95.5,162.5C 96.0707,159.687 97.4041,157.354 99.5,155.5 Z"/></g>
<g><path style="opacity:1" fill="#294874" d="M 154.5,155.5 C 163.973,154.099 166.307,157.266 161.5,165C 162.289,166.626 163.289,168.126 164.5,169.5C 163.5,170.833 162.5,170.833 161.5,169.5C 160.05,168.15 159.383,166.484 159.5,164.5C 158.5,164.5 157.5,164.5 156.5,164.5C 156.5,166.167 156.5,167.833 156.5,169.5C 154.564,165.285 153.897,160.619 154.5,155.5 Z"/></g>
<g><path style="opacity:1" fill="#1f406d" d="M 209.5,165.5 C 209.783,166.289 210.283,166.956 211,167.5C 211.499,163.514 211.666,159.514 211.5,155.5C 211.833,155.5 212.167,155.5 212.5,155.5C 213.103,160.619 212.436,165.285 210.5,169.5C 207.856,166.227 205.689,162.56 204,158.5C 203.827,162.541 203.327,166.541 202.5,170.5C 201.506,165.544 201.173,160.544 201.5,155.5C 205.87,157.228 208.537,160.561 209.5,165.5 Z"/></g>
<g><path style="opacity:1" fill="#e0edf3" d="M 84.5,157.5 C 86.1992,157.34 87.8659,157.506 89.5,158C 90.8333,159.333 90.8333,160.667 89.5,162C 87.8659,162.494 86.1992,162.66 84.5,162.5C 84.5,160.833 84.5,159.167 84.5,157.5 Z"/></g>
<g><path style="opacity:1" fill="#edfaf8" d="M 156.5,157.5 C 158.167,157.5 159.833,157.5 161.5,157.5C 162.167,161.5 160.5,163.167 156.5,162.5C 156.5,160.833 156.5,159.167 156.5,157.5 Z"/></g>
<g><path style="opacity:1" fill="#244472" d="M 53.5,155.5 C 56.5719,155.183 59.5719,155.516 62.5,156.5C 60.2573,157.474 57.924,157.808 55.5,157.5C 55.5,158.833 55.5,160.167 55.5,161.5C 63.5,162.167 63.5,162.833 55.5,163.5C 55.5,165.167 55.5,166.833 55.5,168.5C 57.924,168.192 60.2573,168.526 62.5,169.5C 59.5719,170.484 56.5719,170.817 53.5,170.5C 53.5,165.5 53.5,160.5 53.5,155.5 Z"/></g>
<g><path style="opacity:1" fill="#f3f8f8" d="M 139.5,157.5 C 147.618,157.382 149.618,160.882 145.5,168C 138.495,169.324 135.995,166.49 138,159.5C 138.717,158.956 139.217,158.289 139.5,157.5 Z"/></g>
<g><path style="opacity:1" fill="#52789b" d="M 212.5,155.5 C 213.487,160.305 213.821,165.305 213.5,170.5C 212.209,170.737 211.209,170.404 210.5,169.5C 212.436,165.285 213.103,160.619 212.5,155.5 Z"/></g>
<g><path style="opacity:1" fill="#224470" d="M 27.5,155.5 C 30.2469,155.187 32.9135,155.52 35.5,156.5C 33.604,157.466 31.604,157.799 29.5,157.5C 29.5,158.833 29.5,160.167 29.5,161.5C 31.604,161.201 33.604,161.534 35.5,162.5C 33.2573,163.474 30.924,163.808 28.5,163.5C 28.5,165.167 28.5,166.833 28.5,168.5C 31.0593,168.198 33.3926,168.532 35.5,169.5C 32.8333,169.5 30.1667,169.5 27.5,169.5C 27.5,164.833 27.5,160.167 27.5,155.5 Z"/></g>
<g><path style="opacity:1" fill="#1b3d6b" d="M 47.5,169.5 C 44.6146,169.806 41.9479,169.473 39.5,168.5C 41.8568,168.663 44.1902,168.497 46.5,168C 47.3366,166.989 47.67,165.822 47.5,164.5C 40.8452,164.896 38.5119,162.063 40.5,156C 43.2272,155.182 45.8938,155.348 48.5,156.5C 46.2573,157.474 43.924,157.808 41.5,157.5C 41.33,158.822 41.6634,159.989 42.5,161C 44.7619,161.642 46.9285,162.475 49,163.5C 49.9411,165.989 49.4411,167.989 47.5,169.5 Z"/></g>
<g><path style="opacity:1" fill="#1a3c65" d="M 123.5,155.5 C 123.666,160.179 123.499,164.845 123,169.5C 122.809,167.292 122.309,165.292 121.5,163.5C 119.167,163.5 116.833,163.5 114.5,163.5C 113.773,172.715 113.106,172.549 112.5,163C 112.833,160.5 113.167,158 113.5,155.5C 114.466,157.396 114.799,159.396 114.5,161.5C 116.833,161.5 119.167,161.5 121.5,161.5C 121.025,158.918 121.692,156.918 123.5,155.5 Z"/></g>
<g><path style="opacity:1" fill="#8aa7c2" d="M 211.5,155.5 C 211.666,159.514 211.499,163.514 211,167.5C 210.283,166.956 209.783,166.289 209.5,165.5C 210.167,162.167 210.833,158.833 211.5,155.5 Z"/></g>
<g><path style="opacity:1" fill="#234471" d="M 234.5,169.5 C 230.671,170.069 227.337,169.402 224.5,167.5C 226.474,164.518 228.474,161.518 230.5,158.5C 228.167,157.833 225.833,157.167 223.5,156.5C 226.768,155.513 230.102,155.18 233.5,155.5C 232.097,160.134 229.764,164.301 226.5,168C 229.365,168.183 232.031,168.683 234.5,169.5 Z"/></g>
<g><path style="opacity:1" fill="#5c789c" d="M 264.5,155.5 C 265.5,155.5 266.5,155.5 267.5,155.5C 267.5,160.5 267.5,165.5 267.5,170.5C 266.5,170.5 265.5,170.5 264.5,170.5C 264.5,165.5 264.5,160.5 264.5,155.5 Z"/></g>
<g><path style="opacity:1" fill="#1f3e66" d="M 12.5,155.5 C 16.0071,154.994 19.1737,155.66 22,157.5C 23.0904,160.579 22.2571,162.912 19.5,164.5C 21.4414,166.316 22.1081,168.316 21.5,170.5C 19.9373,169.055 18.604,167.389 17.5,165.5C 16.675,164.614 15.675,164.281 14.5,164.5C 14.7989,166.604 14.4656,168.604 13.5,170.5C 12.5059,165.544 12.1725,160.544 12.5,155.5 Z"/></g>
<g><path style="opacity:1" fill="#e2edf7" d="M 14.5,157.5 C 16.1992,157.34 17.8659,157.506 19.5,158C 20.8333,159.333 20.8333,160.667 19.5,162C 17.8659,162.494 16.1992,162.66 14.5,162.5C 14.5,160.833 14.5,159.167 14.5,157.5 Z"/></g>
<g><path style="opacity:1" fill="#24456e" d="M 70.5,155.5 C 71.8333,155.5 73.1667,155.5 74.5,155.5C 76.008,160.15 77.1747,164.817 78,169.5C 75.9601,165.869 72.7935,164.536 68.5,165.5C 68.6168,167.484 67.9501,169.15 66.5,170.5C 66.1667,170 65.8333,169.5 65.5,169C 67.3192,164.533 68.9859,160.033 70.5,155.5 Z"/></g>
<g><path style="opacity:1" fill="#e1eff6" d="M 71.5,157.5 C 73.0428,158.736 74.0428,160.402 74.5,162.5C 73.3112,163.429 71.9778,163.762 70.5,163.5C 70.8333,161.5 71.1667,159.5 71.5,157.5 Z"/></g>
<g><path style="opacity:1" fill="#547397" d="M 217.5,155.5 C 218.5,155.5 219.5,155.5 220.5,155.5C 220.5,160.5 220.5,165.5 220.5,170.5C 219.5,170.5 218.5,170.5 217.5,170.5C 217.5,165.5 217.5,160.5 217.5,155.5 Z"/></g>
<g><path style="opacity:1" fill="#24466f" d="M 242.5,155.5 C 243.675,155.281 244.675,155.614 245.5,156.5C 247.922,161.071 249.256,165.738 249.5,170.5C 248.05,169.15 247.383,167.484 247.5,165.5C 245.143,165.337 242.81,165.503 240.5,166C 239.929,167.205 239.262,168.372 238.5,169.5C 238.167,169 237.833,168.5 237.5,168C 239.077,163.765 240.743,159.598 242.5,155.5 Z"/></g>
<g><path style="opacity:1" fill="#e3eef6" d="M 243.5,157.5 C 244.738,159.214 245.405,161.214 245.5,163.5C 244.022,163.762 242.689,163.429 241.5,162.5C 242.174,160.805 242.841,159.138 243.5,157.5 Z"/></g>
<g><path style="opacity:1" fill="#22446e" d="M 189.5,155.5 C 190.822,155.33 191.989,155.663 193,156.5C 194.108,160.491 195.608,164.325 197.5,168C 197.167,168.5 196.833,169 196.5,169.5C 192.833,164.167 189.167,164.167 185.5,169.5C 185.167,169.167 184.833,168.833 184.5,168.5C 186.37,164.221 188.036,159.888 189.5,155.5 Z"/></g>
<g><path style="opacity:1" fill="#dff0f0" d="M 190.5,157.5 C 192.074,159.102 192.741,161.102 192.5,163.5C 191.127,163.657 189.793,163.49 188.5,163C 189.464,161.275 190.131,159.441 190.5,157.5 Z"/></g>
<g><path style="opacity:1" fill="#6b88a6" d="M 123.5,155.5 C 124.487,160.305 124.821,165.305 124.5,170.5C 123.5,170.5 122.5,170.5 121.5,170.5C 121.5,168.167 121.5,165.833 121.5,163.5C 122.309,165.292 122.809,167.292 123,169.5C 123.499,164.845 123.666,160.179 123.5,155.5 Z"/></g>
<g><path style="opacity:1" fill="#29476d" d="M 290.5,155.5 C 291.822,155.33 292.989,155.663 294,156.5C 296.254,160.007 298.254,163.673 300,167.5C 300.173,163.459 300.673,159.459 301.5,155.5C 302.494,160.456 302.827,165.456 302.5,170.5C 301.178,170.67 300.011,170.337 299,169.5C 296.746,165.993 294.746,162.327 293,158.5C 292.827,162.541 292.327,166.541 291.5,170.5C 290.506,165.544 290.173,160.544 290.5,155.5 Z"/></g>
<g><path style="opacity:1" fill="#95b0ce" d="M 154.5,155.5 C 153.897,160.619 154.564,165.285 156.5,169.5C 155.791,170.404 154.791,170.737 153.5,170.5C 153.179,165.305 153.513,160.305 154.5,155.5 Z"/></g>
<g><path style="opacity:1" fill="#274773" d="M 178.5,167.5 C 179.434,166.432 179.768,165.099 179.5,163.5C 177.901,163.768 176.568,163.434 175.5,162.5C 177.265,161.539 179.265,161.205 181.5,161.5C 181.5,164.167 181.5,166.833 181.5,169.5C 171.366,172.524 166.866,168.857 168,158.5C 171.309,155.353 175.142,154.687 179.5,156.5C 180.833,157.167 180.833,157.833 179.5,158.5C 176.897,157.438 174.23,157.272 171.5,158C 168.575,161.696 168.908,165.029 172.5,168C 174.712,168.789 176.712,168.622 178.5,167.5 Z"/></g>
<g><path style="opacity:1" fill="#8ea2bc" d="M 175.5,162.5 C 176.568,163.434 177.901,163.768 179.5,163.5C 179.768,165.099 179.434,166.432 178.5,167.5C 178.5,166.5 178.5,165.5 178.5,164.5C 177.022,164.762 175.689,164.429 174.5,163.5C 174.624,162.893 174.957,162.56 175.5,162.5 Z"/></g>
<g><path style="opacity:1" fill="#5d7690" d="M 27.5,155.5 C 27.5,160.167 27.5,164.833 27.5,169.5C 30.1667,169.5 32.8333,169.5 35.5,169.5C 32.7131,170.477 29.7131,170.81 26.5,170.5C 26.1795,165.305 26.5128,160.305 27.5,155.5 Z"/></g>
<g><path style="opacity:1" fill="#6b849d" d="M 39.5,168.5 C 41.9479,169.473 44.6146,169.806 47.5,169.5C 44.6447,170.803 41.6447,170.803 38.5,169.5C 38.6236,168.893 38.9569,168.56 39.5,168.5 Z"/></g>
<g><path style="opacity:1" fill="#66809c" d="M 224.5,167.5 C 227.337,169.402 230.671,170.069 234.5,169.5C 231.038,170.482 227.371,170.815 223.5,170.5C 223.263,169.209 223.596,168.209 224.5,167.5 Z"/></g>
<g><path style="opacity:1" fill="#25456e" d="M 274.5,155.5 C 282.99,153.834 286.823,157.167 286,165.5C 281.748,171.653 277.081,171.986 272,166.5C 270.812,162.259 271.645,158.592 274.5,155.5 Z"/></g>
<g><path style="opacity:1" fill="#f4f9f9" d="M 275.5,157.5 C 283.618,157.382 285.618,160.882 281.5,168C 273.48,168.135 271.48,164.635 275.5,157.5 Z"/></g>
</svg>
