<svg xmlns="http://www.w3.org/2000/svg" width="317" height="185" style="shape-rendering:geometricPrecision;text-rendering:geometricPrecision;image-rendering:optimizeQuality;fill-rule:evenodd;clip-rule:evenodd"><path style="opacity:1" fill="#fafcfc" d="M-.5-.5h317v185H-.5V-.5z"/><path style="opacity:1" fill="#567393" d="M49.5 15.5c-3-1.333-6-1.333-9 0-.543-.06-.876-.393-1-1 3.667-1.333 7.333-1.333 11 0-.124.607-.457.94-1 1z"/><path style="opacity:1" fill="#23446a" d="M30.5 23.5c.283.79.783 1.456 1.5 2l1-11c.5 4.655.666 9.322.5 14-1.175.219-2.175-.114-3-1a91.67 91.67 0 0 0-5.5-10 62.692 62.692 0 0 1-1.5 11 57.124 57.124 0 0 1-1-15c3.642 2.333 6.308 5.666 8 10z"/><path style="opacity:1" fill="#7895b4" d="M33.5 28.5c.166-4.678 0-9.345-.5-14l-1 11c-.717-.544-1.217-1.21-1.5-2 .98-3.125 1.313-6.458 1-10h3c.32 5.195-.013 10.195-1 15z"/><path style="opacity:1" fill="#2a4a71" d="M267.5 13.5c1.911.074 3.078 1.074 3.5 3 1.505 3.85 3.005 7.683 4.5 11.5-2.434.333-3.434-.834-3-3.5-4.33-.768-7.663.565-10 4 .595-5.12 2.262-10.12 5-15z"/><path style="opacity:1" fill="#224773" d="M281.5 13.5c1.309 2.07 1.975 4.57 2 7.5l-1 7.5a57.15 57.15 0 0 1-1-15z"/><path style="opacity:1" fill="#7d99b7" d="M140.5 14.5c-1.936 4.215-2.603 8.881-2 14-.987-4.805-1.321-9.805-1-15 1.291-.237 2.291.096 3 1z"/><path style="opacity:1" fill="#4a6990" d="M236.5 14.5c-1.291-.237-2.291.096-3 1-1.676.683-2.343 2.017-2 4h4c-1.109.79-2.442 1.29-4 1.5 1.558.21 2.891.71 4 1.5h-4v4c-.809-1.792-1.309-3.792-1.5-6a32.462 32.462 0 0 0-.5 8c-.987-4.805-1.321-9.805-1-15 2.885-.306 5.552.027 8 1z"/><path style="opacity:1" fill="#eef8f7" d="M233.5 15.5c2.809.458 3.476 1.791 2 4h-4c-.343-1.983.324-3.317 2-4z"/><path style="opacity:1" fill="#1f4169" d="M233.5 15.5c.709-.904 1.709-1.237 3-1 2.219 1.565 2.552 3.565 1 6 1.756 1.691 2.256 3.691 1.5 6-2.904 1.727-6.07 2.393-9.5 2a32.462 32.462 0 0 1 .5-8c.191 2.208.691 4.208 1.5 6 2.477.45 4.477-.218 6-2-.355-1.022-1.022-1.689-2-2-1.109-.79-2.442-1.29-4-1.5 1.558-.21 2.891-.71 4-1.5 1.476-2.209.809-3.542-2-4z"/><path style="opacity:1" fill="#dae5f3" d="M267.5 16.5c2.039 1.411 3.039 3.411 3 6h-4c.017-2.065.35-4.065 1-6z"/><path style="opacity:1" fill="#1d3e64" d="M290.5 13.5c1.322-.17 2.489.163 3.5 1a87.443 87.443 0 0 1 6 11c.173-4.04.673-8.04 1.5-12a57.15 57.15 0 0 1 1 15c-1.322.17-2.489-.163-3.5-1a87.443 87.443 0 0 1-6-11 74.091 74.091 0 0 1-1.5 12 57.15 57.15 0 0 1-1-15z"/><path style="opacity:1" fill="#264875" d="M71.5 13.5c3.692-.529 6.858.471 9.5 3 .915 2.843.081 5.01-2.5 6.5.49 1.982 1.49 3.649 3 5-1 .667-2 .667-3 0-2.894-7.3-4.894-7.134-6 .5a57.124 57.124 0 0 1-1-15z"/><path style="opacity:1" fill="#e7f4f6" d="M73.5 15.5c4-.667 5.667 1 5 5h-5v-5z"/><path style="opacity:1" fill="#637d9b" d="M179.5 28.5a98.433 98.433 0 0 0-.5-14l-1 11c-.717-.544-1.217-1.21-1.5-2 .979-3.125 1.313-6.458 1-10h3c.321 5.195-.013 10.195-1 15z"/><path style="opacity:1" fill="#284870" d="M191.5 13.5c1.175-.219 2.175.114 3 1a285.588 285.588 0 0 1 5 12.5l-1 1.5c-1.992-3.505-4.992-4.671-9-3.5-.837 1.011-1.17 2.178-1 3.5a4.932 4.932 0 0 1-3-.5 393.73 393.73 0 0 0 6-14.5z"/><path style="opacity:1" fill="#d6e9f4" d="M192.5 16.5c1.574 1.602 2.241 3.602 2 6-1.478.262-2.811-.071-4-1 .674-1.695 1.341-3.362 2-5z"/><path style="opacity:1" fill="#6a8baf" d="M253.5 14.5h-7v14c-.987-4.805-1.321-9.805-1-15 2.885-.306 5.552.027 8 1z"/><path style="opacity:1" fill="#23446e" d="M253.5 14.5c1.447.634 2.113 1.8 2 3.5-2.24 3.248-2.24 6.415 0 9.5-.502 1.021-1.168 1.188-2 .5-.979-2.137-2.312-3.97-4-5.5-.464 2.475-1.464 4.475-3 6v-14h7z"/><path style="opacity:1" fill="#ebf5f7" d="M248.5 15.5c4-.667 5.667 1 5 5h-5v-5z"/><path style="opacity:1" fill="#2b4663" d="M12.5 13.5c1.309 2.07 1.975 4.57 2 7.5l-1 7.5a57.124 57.124 0 0 1-1-15z"/><path style="opacity:1" fill="#123c6d" d="M40.5 15.5c3-1.333 6-1.333 9 0h-4c-.667 17.333-1.333 17.333-2 0h-3z"/><path style="opacity:1" fill="#819eb8" d="M63.5 20.5c.543.06.876.393 1 1a9.864 9.864 0 0 1-6 1v4c-.951-1.419-1.285-3.085-1-5 2.235.295 4.235-.039 6-1z"/><path style="opacity:1" fill="#2e4c72" d="M140.5 14.5c.603 5.119-.064 9.785-2 14-.603-5.119.064-9.785 2-14z"/><path style="opacity:1" fill="#24466f" d="M91.5 18.5c-.283-.79-.783-1.456-1.5-2a72.444 72.444 0 0 0-.5 12c-1.942-4.556-2.608-9.556-2-15 1.322-.17 2.489.163 3.5 1a87.443 87.443 0 0 1 6 11c.174-4.04.674-8.04 1.5-12a57.124 57.124 0 0 1 1 15c-1.322.17-2.489-.163-3.5-1a61.848 61.848 0 0 1-4.5-9z"/><path style="opacity:1" fill="#1b3b66" d="M205.5 13.5c1.93 3.873 2.597 8.206 2 13a13.118 13.118 0 0 1 7 1 21.12 21.12 0 0 1-9 1v-15z"/><path style="opacity:1" fill="#1c416a" d="M63.5 20.5c-1.765.961-3.765 1.295-6 1-.285 1.915.049 3.581 1 5a9.864 9.864 0 0 1 6 1 21.12 21.12 0 0 1-9 1v-15a21.12 21.12 0 0 1 9 1 13.117 13.117 0 0 1-7 1v5h6z"/><path style="opacity:1" fill="#8faac4" d="m91.5 18.5-2 10a72.444 72.444 0 0 1 .5-12c.717.544 1.217 1.21 1.5 2z"/><path style="opacity:1" fill="#29496f" d="M110.5 13.5c1.175-.219 2.175.114 3 1a245.803 245.803 0 0 0 6 13.5 4.932 4.932 0 0 1-3 .5c.263-3.234-1.237-4.568-4.5-4-3.096-.404-4.929.929-5.5 4l-1-1.5a223.423 223.423 0 0 0 5-13.5z"/><path style="opacity:1" fill="#d1e4f2" d="M111.5 16.5c1.543 1.236 2.543 2.902 3 5-1.667 1.333-3.333 1.333-5 0a16.08 16.08 0 0 0 2-5z"/><path style="opacity:1" fill="#2a4a74" d="M150.5 13.5c8.993-.84 12.493 3.16 10.5 12-2.909 2.894-6.409 3.727-10.5 2.5-5.201-4.707-5.201-9.54 0-14.5z"/><path style="opacity:1" fill="#f5f9f9" d="M151.5 15.5c7.814.125 9.814 3.625 6 10.5-7.005 1.324-9.505-1.51-7.5-8.5.717-.544 1.217-1.21 1.5-2z"/><path style="opacity:1" fill="#234369" d="M122.5 13.5a25.87 25.87 0 0 1 10 1c-1.189.929-2.522 1.262-4 1-.667 17.333-1.333 17.333-2 0-1.983.343-3.317-.323-4-2z"/><path style="opacity:1" fill="#e0f1f7" d="M235.5 22.5c.978.311 1.645.978 2 2-1.523 1.782-3.523 2.45-6 2v-4h4z"/><path style="opacity:1" fill="#1d3e65" d="M176.5 23.5c.283.79.783 1.456 1.5 2l1-11c.499 4.655.666 9.322.5 14-1.517-.01-2.684-.677-3.5-2l-5-10a74.091 74.091 0 0 1-1.5 12 57.15 57.15 0 0 1-1-15c1.175-.219 2.175.114 3 1a59.572 59.572 0 0 1 5 9z"/><path style="opacity:1" fill="#0d3967" d="M12.5 46.5h17v91h-17v-91z"/><path style="opacity:1" fill="#003871" d="M14.5 47.5h14v89h-7c.561-10.064-.605-10.398-3.5-1-1 1.333-2 1.333-3 0-.5-29.331-.667-58.665-.5-88z"/><path style="opacity:1" fill="#043870" d="M50.5 46.5c12.338-.166 24.671 0 37 .5 22.41 2.757 29.244 14.59 20.5 35.5a21.754 21.754 0 0 1-7.5 6c16.761 9.375 20.261 22.375 10.5 39-6.251 6.04-13.751 9.207-22.5 9.5-12.662.5-25.329.667-38 .5v-91z"/><path style="opacity:1" fill="#5f7a99" d="M167.5 46.5h-36v91h16c-5.475.989-11.142 1.322-17 1v-93a342.838 342.838 0 0 1 37 1z"/><path style="opacity:1" fill="#0d427a" d="M251.5 44.5a45.584 45.584 0 0 0-7 9c-1.544.203-2.878.87-4 2-1.377-3.195-3.377-3.695-6-1.5-2.978 3.13-5.311 6.63-7 10.5-3 1.333-6 1.333-9 0 7.685-12.014 18.685-18.681 33-20z"/><path style="opacity:1" fill="#46a2d8" d="M251.5 44.5h4a77.286 77.286 0 0 0-16 20 49.874 49.874 0 0 0 14 1c-2.071 1.309-4.571 1.975-7.5 2-7.571 1.82-9.738-.513-6.5-7a26.006 26.006 0 0 1 5-7 45.584 45.584 0 0 1 7-9z"/><path style="opacity:1" fill="#043870" d="M167.5 46.5c24.9 2.434 33.734 15.768 26.5 40-4.093 7.256-10.26 11.59-18.5 13a439.203 439.203 0 0 0 23 37.5 100.2 100.2 0 0 1-20 0 560.89 560.89 0 0 0-21-33.5c-3.125-.979-6.458-1.313-10-1v35h-16v-91h36z"/><path style="opacity:1" fill="#19609f" d="M255.5 44.5c17.577-1.044 31.243 5.623 41 20-1.122.656-2.455.99-4 1-1.82-.15-3.32-.816-4.5-2-1.698 1.24-3.198 2.574-4.5 4a12.799 12.799 0 0 1-6-3c-2.219-5.137-5.386-9.47-9.5-13l-1.5.5a67.718 67.718 0 0 1 9 13 4.932 4.932 0 0 1-3 .5c-6.123.103-12.456.103-19 0a49.874 49.874 0 0 1-14-1 77.286 77.286 0 0 1 16-20z"/><path style="opacity:1" fill="#1b5f9d" d="M244.5 53.5a26.006 26.006 0 0 0-5 7h-3c-1.365 4.754-4.365 6.087-9 4 1.689-3.87 4.022-7.37 7-10.5 2.623-2.195 4.623-1.695 6 1.5 1.122-1.13 2.456-1.797 4-2z"/><path style="opacity:1" fill="#50b2e8" d="M283.5 67.5c-1.109.79-2.442 1.29-4 1.5l2 5a4.932 4.932 0 0 1-3 .5c-.095-2.286-.762-4.286-2-6a9.818 9.818 0 0 1-4-3 4.932 4.932 0 0 0 3-.5 67.718 67.718 0 0 0-9-13l1.5-.5c4.114 3.53 7.281 7.863 9.5 13a12.799 12.799 0 0 0 6 3z"/><path style="opacity:1" fill="#f6f9fa" d="M66.5 61.5a98.737 98.737 0 0 1 23 1.5c3.584 1.664 5.25 4.497 5 8.5.037 4.095-1.63 7.261-5 9.5a103.405 103.405 0 0 1-23 1.5v-21z"/><path style="opacity:1" fill="#fafcfc" d="M147.5 61.5c8.403-.37 16.736.13 25 1.5 7.526 4.946 9.026 11.446 4.5 19.5a15.83 15.83 0 0 1-5.5 3.5 111.606 111.606 0 0 1-24 1.5v-26z"/><path style="opacity:1" fill="#1b64a4" d="M298.5 67.5c3.059 5.234 4.726 10.901 5 17v6h-9c-3.871.315-7.538-.018-11-1a52.852 52.852 0 0 0-1-12.5c1.486-2.59 2.153-5.423 2-8.5a82.698 82.698 0 0 1 14-1z"/><path style="opacity:1" fill="#053971" d="M216.5 68.5a21.12 21.12 0 0 1 9 1c-1.13 1.122-1.797 2.456-2 4-4.18 4.776-6.18 10.443-6 17h-6v-7c.298-5.552 1.964-10.552 5-15z"/><path style="opacity:1" fill="#2e7eb8" d="M239.5 60.5c-3.238 6.487-1.071 8.82 6.5 7 2.929-.025 5.429-.691 7.5-2 6.544.103 12.877.103 19 0a9.818 9.818 0 0 0 4 3c1.238 1.714 1.905 3.714 2 6a4.932 4.932 0 0 0 3-.5l-2-5c1.558-.21 2.891-.71 4-1.5 1.302-1.426 2.802-2.76 4.5-4 1.18 1.184 2.68 1.85 4.5 2 1.545-.01 2.878-.344 4-1 .901.79 1.568 1.79 2 3-4.703-.063-9.37.27-14 1 .153 3.077-.514 5.91-2 8.5a52.852 52.852 0 0 1 1 12.5c-1.837 3.019-2.337 6.352-1.5 10 1.352-2.094 1.852-4.427 1.5-7 2.884-.883 5.717-.883 8.5 0 1.376-.184 2.209-.85 2.5-2h9v-6c1.333 5 1.333 10 0 15v-6a24.939 24.939 0 0 0-7 .5c1.286 7.423.286 14.59-3 21.5-.667 0-1-.333-1-1 .792-1.467.792-2.8 0-4-3.959.902-7.959.902-12 0a20.69 20.69 0 0 1-1 5h-3c-.086-.996.248-1.829 1-2.5a28.043 28.043 0 0 1-5-1.5c-2.05.577-3.05 1.91-3 4h-2c-.077-1.25-.744-2.083-2-2.5 3.017-.505 5.351-2.005 7-4.5 1.123 1.789 2.456 2.122 4 1-1.023-2.395-.023-3.395 3-3v-5c-1.984-.117-3.65.55-5 2-1.598-.985-3.265-1.151-5-.5-1.285 2.423-3.118 4.256-5.5 5.5l-1.5-1c2.865-1.531 5.198-3.697 7-6.5 1.735-.651 3.402-.485 5 .5a21.624 21.624 0 0 0 4-5c-6.381-2.2-11.714-.7-16 4.5a8.43 8.43 0 0 1-4 .5v14h-3c1.102-4.247 1.268-8.58.5-13a29.538 29.538 0 0 1-9.5-6.5c3.309 1.147 6.642 2.647 10 4.5.863-2.271.863-4.605 0-7-7.733.438-15.399.438-23 0 7.888-.347 15.554-1.347 23-3a52.3 52.3 0 0 0 .5-14c-.889 1.388-1.389 1.222-1.5-.5 1.611-2.21 2.278-4.71 2-7.5-1.643-.02-2.976.647-4 2a7.292 7.292 0 0 0-3-2c-3.85.096-7.85.262-12 .5-3.914 5.73-4.747 11.897-2.5 18.5.995.566 1.828 1.233 2.5 2-2.262 1.547-4.262 1.214-6-1-1.458 1.638-1.792 3.305-1 5a30.968 30.968 0 0 0-2 2c-1.644-.213-3.144.12-4.5 1a4.934 4.934 0 0 1-.5-3c-6.458-.592-7.124.408-2 3-.891 1.09-1.891 1.09-3 0a9.86 9.86 0 0 0-1 6c1.644-.214 3.144.12 4.5 1 3.011 4.917 2.178 5.25-2.5 1-1.114 1.223-1.281 2.556-.5 4 1.61-.37 3.11.297 4.5 2a3.647 3.647 0 0 0 1.5-1 24.004 24.004 0 0 0 2.5 6 9.108 9.108 0 0 1-5-1c-1.126 1.308-1.126 2.642 0 4-1.915-.284-3.581.049-5 1-1.174-1.014-1.84-2.347-2-4 1.788.285 3.455-.048 5-1-3.828-6.468-5.494-13.468-5-21h-5v6c-1.333-5.333-1.333-10.667 0-16v7h6c-.18-6.557 1.82-12.224 6-17 .203-1.544.87-2.878 2-4a21.12 21.12 0 0 0-9-1c.16-1.653.826-2.986 2-4 3 1.333 6 1.333 9 0 4.635 2.087 7.635.754 9-4h3z"/><path style="opacity:1" fill="#52b3ea" d="M259.5 90.5h21c-3.098 1.321-6.598 1.988-10.5 2-3.902-.012-7.402-.679-10.5-2z"/><path style="opacity:1" fill="#023b76" d="M220.5 80.5c2.049.206 2.383 1.04 1 2.5l3 1-1 1c3.614-.034 5.947 1.633 7 5-3.366.33-6.699-.003-10-1-.327-2.685-.327-5.518 0-8.5z"/><path style="opacity:1" fill="#033f78" d="M223.5 73.5c.617-.11 1.117-.444 1.5-1a33.249 33.249 0 0 1 3.5 6l1-1c-1.266-2.676-2.099-5.343-2.5-8 1.726-1.076 3.559-1.243 5.5-.5-2.106 2.112-1.773 4.112 1 6-1.628 3.603-2.462 7.437-2.5 11.5-5.715-2.788-8.215-7.121-7.5-13z"/><path style="opacity:1" fill="#105492" d="M256.5 90.5c-6.19.323-12.19-.01-18-1-.672-.767-1.505-1.434-2.5-2-2.247-6.603-1.414-12.77 2.5-18.5 4.15-.238 8.15-.404 12-.5a7.292 7.292 0 0 1 3 2c1.024-1.353 2.357-2.02 4-2 .278 2.79-.389 5.29-2 7.5.111 1.722.611 1.888 1.5.5a52.3 52.3 0 0 1-.5 14z"/><path style="opacity:1" fill="#1966a7" d="M276.5 68.5c.023 4.042 1.189 7.708 3.5 11a60.93 60.93 0 0 1 .5 11h-21v-4c4-.333 4-.667 0-1 .053-5.696-.28-11.362-1-17 5.855-.562 11.855-.562 18 0z"/><path style="opacity:1" fill="#56b0e7" d="M283.5 89.5c3.462.982 7.129 1.315 11 1-.291 1.15-1.124 1.816-2.5 2-2.783-.883-5.616-.883-8.5 0 .352 2.573-.148 4.906-1.5 7-.837-3.648-.337-6.981 1.5-10z"/><path style="opacity:1" fill="#0f4d87" d="M303.5 99.5c-.478 5.765-2.145 11.098-5 16h-5c3.286-6.91 4.286-14.077 3-21.5a24.939 24.939 0 0 1 7-.5v6z"/><path style="opacity:1" fill="#105594" d="M288.5 94.5h7c.107 2.403-.893 4.237-3 5.5a21.117 21.117 0 0 1-10 3.5c-.175-2.829 1.158-4.496 4-5l2-4z"/><path style="opacity:1" fill="#f7fafb" d="M66.5 97.5c7.008-.166 14.008 0 21 .5 9.24 1.899 12.741 7.399 10.5 16.5-2.51 5.077-6.676 7.577-12.5 7.5-6.325.5-12.658.666-19 .5v-25z"/><path style="opacity:1" fill="#073970" d="M216.5 115.5c-2.843-4.867-4.509-10.2-5-16v-6h5c-.494 7.532 1.172 14.532 5 21-1.545.952-3.212 1.285-5 1z"/><path style="opacity:1" fill="#043d76" d="M229.5 95.5c.617.11 1.117.444 1.5 1a37.972 37.972 0 0 1 1 10 25.654 25.654 0 0 0-7-8l-.5 1a589.77 589.77 0 0 0 9 13c-.863 2.372-2.029 2.372-3.5 0-.617.949-.451 1.782.5 2.5a2.428 2.428 0 0 1-2 .5 24.004 24.004 0 0 1-2.5-6 3.647 3.647 0 0 1-1.5 1c-1.39-1.703-2.89-2.37-4.5-2-.781-1.444-.614-2.777.5-4 4.678 4.25 5.511 3.917 2.5-1-1.356-.88-2.856-1.214-4.5-1a9.86 9.86 0 0 1 1-6c1.109 1.09 2.109 1.09 3 0-5.124-2.592-4.458-3.592 2-3a4.934 4.934 0 0 0 .5 3c1.356-.88 2.856-1.213 4.5-1z"/><path style="opacity:1" fill="#0b4e8c" d="M294.5 100.5c.057 9.14-4.276 11.473-13 7a123.203 123.203 0 0 1 13-7z"/><path style="opacity:1" fill="#04427d" d="M233.5 93.5c7.601.438 15.267.438 23 0 .863 2.395.863 4.729 0 7-3.358-1.853-6.691-3.353-10-4.5a29.538 29.538 0 0 0 9.5 6.5c.768 4.42.602 8.753-.5 13-1.25-.077-2.083-.744-2.5-2-2.456 1.821-5.289 2.488-8.5 2l-1.5-12c.035 3.745-.965 4.412-3 2-.345 1.701.322 3.034 2 4 .495 1.973.662 3.973.5 6-1.644.214-3.144-.12-4.5-1a199.248 199.248 0 0 1 0-14c-3.006-1.341-4.506-3.675-4.5-7z"/><path style="opacity:1" fill="#2973ac" d="M239.5 99.5c3.266.13 6.266 1.129 9 3 .74 3.336 1.406 6.67 2 10-.825.886-1.825 1.219-3 1a25.879 25.879 0 0 0-1-10c-2.779-.898-5.112-2.231-7-4z"/><path style="opacity:1" fill="#cadbef" d="M157.5 103.5h-9c.328 11.512-.005 22.846-1 34v-35c3.542-.313 6.875.021 10 1z"/><path style="opacity:1" fill="#0a4d8b" d="M267.5 115.5c-3.385.475-5.718-.858-7-4-1.231 1.151-1.231 2.317 0 3.5a2.428 2.428 0 0 1-2 .5v-14a8.43 8.43 0 0 0 4-.5c4.286-5.2 9.619-6.7 16-4.5a21.624 21.624 0 0 1-4 5c-1.598-.985-3.265-1.151-5-.5-1.802 2.803-4.135 4.969-7 6.5l1.5 1c2.382-1.244 4.215-3.077 5.5-5.5 1.735-.651 3.402-.485 5 .5 1.35-1.45 3.016-2.117 5-2v5c-3.023-.395-4.023.605-3 3-1.544 1.122-2.877.789-4-1-1.649 2.495-3.983 3.995-7 4.5 1.256.417 1.923 1.25 2 2.5z"/><path style="opacity:1" fill="#0a4b88" d="M292.5 114.5a59.047 59.047 0 0 1-13 1 20.69 20.69 0 0 0 1-5c4.041.902 8.041.902 12 0 .792 1.2.792 2.533 0 4z"/><path style="opacity:1" fill="#3789c1" d="M238.5 89.5c5.81.99 11.81 1.323 18 1-7.446 1.653-15.112 2.653-23 3-.006 3.325 1.494 5.659 4.5 7a199.248 199.248 0 0 0 0 14c1.356.88 2.856 1.214 4.5 1a18.453 18.453 0 0 0-.5-6c-1.678-.966-2.345-2.299-2-4 2.035 2.412 3.035 1.745 3-2l1.5 12c3.211.488 6.044-.179 8.5-2 .417 1.256 1.25 1.923 2.5 2h3a2.428 2.428 0 0 0 2-.5c-1.231-1.183-1.231-2.349 0-3.5 1.282 3.142 3.615 4.475 7 4h12a59.047 59.047 0 0 0 13-1c0 .667.333 1 1 1h5c-.432 1.21-1.099 2.21-2 3-4.333-1.333-8.667-1.333-13 0a5.727 5.727 0 0 0-3 1c.03-.997-.47-1.664-1.5-2a27.648 27.648 0 0 0-4.5 2c-1.25.077-2.083.744-2.5 2-.718-.951-1.551-1.117-2.5-.5l-6.5 6.5c.019-1.607.185-3.274.5-5 3.672-.545 3.338-.878-1-1 1.792-.809 3.792-1.309 6-1.5l2-2c-5.333-.328-10.333-.161-15 .5.131.876-.202 1.543-1 2-1.006-.438-1.006-1.104 0-2a24.551 24.551 0 0 0-12-.5c-2.284 1.363-2.451 2.863-.5 4.5.893-1.211 1.726-1.211 2.5 0-.826.951-.992 1.951-.5 3a19.887 19.887 0 0 0 3.5-4c3.886 1.088 3.886 1.921 0 2.5-1.238.69-1.238 1.19 0 1.5-.453.958-1.119 1.792-2 2.5l1 1c-1.446 1.298-2.779 1.465-4 .5-1.181-1.567-2.847-2.401-5-2.5l4-1c-1.922-1.42-3.255-3.253-4-5.5-2.103 2.38-3.27 1.713-3.5-2-.451 2.429-1.285 2.596-2.5.5-1.667-.667-3.333-.667-5 0 .544.717 1.211 1.217 2 1.5 1.531 1.425 1.198 2.091-1 2-1-1.667-2.333-3-4-4-1.126-1.358-1.126-2.692 0-4a9.108 9.108 0 0 0 5 1 2.428 2.428 0 0 0 2-.5c-.951-.718-1.117-1.551-.5-2.5 1.471 2.372 2.637 2.372 3.5 0a589.77 589.77 0 0 1-9-13l.5-1a25.654 25.654 0 0 1 7 8 37.972 37.972 0 0 0-1-10c-.383-.556-.883-.89-1.5-1a30.968 30.968 0 0 1 2-2c-.792-1.695-.458-3.362 1-5 1.738 2.214 3.738 2.547 6 1z"/><path style="opacity:1" fill="#094585" d="M276.5 115.5h-7c-.05-2.09.95-3.423 3-4a28.043 28.043 0 0 0 5 1.5c-.752.671-1.086 1.504-1 2.5z"/><path style="opacity:1" fill="#06437d" d="M255.5 118.5c.949 2.529.282 4.862-2 7 2.356 1.154 2.523 2.487.5 4-1-3.14-3.167-4.473-6.5-4-1.238-.31-1.238-.81 0-1.5 3.886-.579 3.886-1.412 0-2.5a19.887 19.887 0 0 1-3.5 4c-.492-1.049-.326-2.049.5-3-.774-1.211-1.607-1.211-2.5 0-1.951-1.637-1.784-3.137.5-4.5a24.551 24.551 0 0 1 12 .5c-1.006.896-1.006 1.562 0 2 .798-.457 1.131-1.124 1-2z"/><path style="opacity:1" fill="#023e75" d="M242.5 129.5c-1.952.908-3.952.741-6-.5a86.653 86.653 0 0 1-4-6.5c-1.077-1.205-2.41-1.872-4-2-.789-.283-1.456-.783-2-1.5 1.667-.667 3.333-.667 5 0 1.215 2.096 2.049 1.929 2.5-.5.23 3.713 1.397 4.38 3.5 2 .745 2.247 2.078 4.08 4 5.5l-4 1c2.153.099 3.819.933 5 2.5z"/><path style="opacity:1" fill="#3077b0" d="M255.5 118.5c4.667-.661 9.667-.828 15-.5l-2 2c-2.208.191-4.208.691-6 1.5-1.574-.437-2.741-1.437-3.5-3-.756 2.309-.256 4.309 1.5 6-2.027 4.2-.694 6.534 4 7 2.056-.548 3.723-1.714 5-3.5a6.802 6.802 0 0 1-3-1.5c4.537-.204 7.203-2.537 8-7a27.648 27.648 0 0 1 4.5-2c1.03.336 1.53 1.003 1.5 2-1.237 1.597-2.904 2.763-5 3.5 2.455 1.54 5.121 1.874 8 1 1.052-1.716.386-2.716-2-3 2.543-.14 4.877-.806 7-2a12.93 12.93 0 0 0-5-.5c4.333-1.333 8.667-1.333 13 0a18.453 18.453 0 0 0-6 .5c-6.205 7.267-13.871 12.267-23 15l-4 4c.228.399.562.565 1 .5-5.667 1.333-11.333 1.333-17 0a4.934 4.934 0 0 0 3-.5 14.506 14.506 0 0 1-4-5c-8.134-.397-14.467-3.897-19-10.5 2.198.091 2.531-.575 1-2 1.59.128 2.923.795 4 2a86.653 86.653 0 0 0 4 6.5c2.048 1.241 4.048 1.408 6 .5 1.221.965 2.554.798 4-.5l-1-1c.881-.708 1.547-1.542 2-2.5 3.333-.473 5.5.86 6.5 4 2.023-1.513 1.856-2.846-.5-4 2.282-2.138 2.949-4.471 2-7z"/><path style="opacity:1" fill="#0b4b89" d="M283.5 118.5a12.93 12.93 0 0 1 5 .5c-2.123 1.194-4.457 1.86-7 2 2.386.284 3.052 1.284 2 3-2.879.874-5.545.54-8-1 2.096-.737 3.763-1.903 5-3.5a5.727 5.727 0 0 1 3-1z"/><path style="opacity:1" fill="#05407a" d="M262.5 121.5c4.338.122 4.672.455 1 1a29.812 29.812 0 0 0-.5 5l6.5-6.5c.949-.617 1.782-.451 2.5.5.417-1.256 1.25-1.923 2.5-2-.797 4.463-3.463 6.796-8 7a6.802 6.802 0 0 0 3 1.5c-1.277 1.786-2.944 2.952-5 3.5-4.694-.466-6.027-2.8-4-7-1.756-1.691-2.256-3.691-1.5-6 .759 1.563 1.926 2.563 3.5 3z"/><path style="opacity:1" fill="#113d73" d="M296.5 118.5c-7.045 12.202-17.712 18.869-32 20-.438.065-.772-.101-1-.5l4-4c9.129-2.733 16.795-7.733 23-15a18.453 18.453 0 0 1 6-.5z"/><path style="opacity:1" fill="#033b75" d="M256.5 128.5c2.141 2.468 4.808 4.134 8 5-5.207 6.794-10.207 6.628-15-.5 2.957-.687 5.291-2.187 7-4.5z"/><path style="opacity:1" fill="#0f3c71" d="M223.5 118.5c1.667 1 3 2.333 4 4 4.533 6.603 10.866 10.103 19 10.5a14.506 14.506 0 0 0 4 5 4.934 4.934 0 0 1-3 .5c-12.494-2.076-22.16-8.41-29-19 1.419-.951 3.085-1.284 5-1z"/><path style="opacity:1" fill="#1d4068" d="M82.5 155.5c3.507-.506 6.674.16 9.5 2 1.09 3.079.257 5.412-2.5 7 1.941 1.816 2.608 3.816 2 6a21.622 21.622 0 0 1-4-5c-.825-.886-1.825-1.219-3-1a9.864 9.864 0 0 1-1 6 57.124 57.124 0 0 1-1-15z"/><path style="opacity:1" fill="#274873" d="M138.5 155.5c8.161-1.329 11.995 2.005 11.5 10-3.298 5.274-7.631 6.274-13 3-2.361-4.771-1.861-9.104 1.5-13z"/><path style="opacity:1" fill="#183e6e" d="M251.5 155.5c3.398-.32 6.732.013 10 1-1.189.929-2.522 1.262-4 1-.667 17.333-1.333 17.333-2 0-1.983.343-3.317-.324-4-2z"/><path style="opacity:1" fill="#294771" d="M99.5 155.5c3.307-.437 6.307.23 9 2a304.63 304.63 0 0 0-8 .5c-1.978 2.497-2.478 5.331-1.5 8.5.956 1.394 2.289 2.061 4 2 1.841-.625 3.674-.792 5.5-.5-6.954 4.591-11.287 2.758-13-5.5.57-2.813 1.904-5.146 4-7z"/><path style="opacity:1" fill="#294874" d="M154.5 155.5c9.473-1.401 11.807 1.766 7 9.5a19.953 19.953 0 0 0 3 4.5c-1 1.333-2 1.333-3 0-1.45-1.35-2.117-3.016-2-5h-3v5c-1.936-4.215-2.603-8.881-2-14z"/><path style="opacity:1" fill="#1f406d" d="M209.5 165.5c.283.789.783 1.456 1.5 2 .499-3.986.666-7.986.5-12h1c.603 5.119-.064 9.785-2 14-2.644-3.273-4.811-6.94-6.5-11a74.086 74.086 0 0 1-1.5 12 57.15 57.15 0 0 1-1-15c4.37 1.728 7.037 5.061 8 10z"/><path style="opacity:1" fill="#e0edf3" d="M84.5 157.5c1.7-.16 3.366.006 5 .5 1.333 1.333 1.333 2.667 0 4-1.634.494-3.3.66-5 .5v-5z"/><path style="opacity:1" fill="#edfaf8" d="M156.5 157.5h5c.667 4-1 5.667-5 5v-5z"/><path style="opacity:1" fill="#244472" d="M53.5 155.5a21.128 21.128 0 0 1 9 1 13.115 13.115 0 0 1-7 1v4c8 .667 8 1.333 0 2v5a13.115 13.115 0 0 1 7 1 21.128 21.128 0 0 1-9 1v-15z"/><path style="opacity:1" fill="#f3f8f8" d="M139.5 157.5c8.118-.118 10.118 3.382 6 10.5-7.005 1.324-9.505-1.51-7.5-8.5.717-.544 1.217-1.211 1.5-2z"/><path style="opacity:1" fill="#52789b" d="M212.5 155.5c.987 4.805 1.321 9.805 1 15-1.291.237-2.291-.096-3-1 1.936-4.215 2.603-8.881 2-14z"/><path style="opacity:1" fill="#224470" d="M27.5 155.5c2.747-.313 5.413.02 8 1a9.86 9.86 0 0 1-6 1v4a9.86 9.86 0 0 1 6 1 13.115 13.115 0 0 1-7 1v5c2.56-.302 4.893.032 7 1h-8v-14z"/><path style="opacity:1" fill="#1b3d6b" d="M47.5 169.5c-2.885.306-5.552-.027-8-1 2.357.163 4.69-.003 7-.5.837-1.011 1.17-2.178 1-3.5-6.655.396-8.988-2.437-7-8.5 2.727-.818 5.394-.652 8 .5a13.115 13.115 0 0 1-7 1c-.17 1.322.163 2.489 1 3.5a38.045 38.045 0 0 1 6.5 2.5c.941 2.489.441 4.489-1.5 6z"/><path style="opacity:1" fill="#1a3c65" d="M123.5 155.5a98.432 98.432 0 0 1-.5 14c-.191-2.208-.691-4.208-1.5-6h-7c-.727 9.215-1.394 9.049-2-.5l1-7.5a9.86 9.86 0 0 1 1 6h7c-.475-2.582.192-4.582 2-6z"/><path style="opacity:1" fill="#8aa7c2" d="M211.5 155.5a72.367 72.367 0 0 1-.5 12c-.717-.544-1.217-1.211-1.5-2l2-10z"/><path style="opacity:1" fill="#234471" d="M234.5 169.5c-3.829.569-7.163-.098-10-2 1.974-2.982 3.974-5.982 6-9l-7-2a25.879 25.879 0 0 1 10-1c-1.403 4.634-3.736 8.801-7 12.5 2.865.183 5.531.683 8 1.5z"/><path style="opacity:1" fill="#5c789c" d="M264.5 155.5h3v15h-3v-15z"/><path style="opacity:1" fill="#1f3e66" d="M12.5 155.5c3.507-.506 6.674.16 9.5 2 1.09 3.079.257 5.412-2.5 7 1.941 1.816 2.608 3.816 2 6a21.622 21.622 0 0 1-4-5c-.825-.886-1.825-1.219-3-1a9.864 9.864 0 0 1-1 6 57.124 57.124 0 0 1-1-15z"/><path style="opacity:1" fill="#e2edf7" d="M14.5 157.5c1.7-.16 3.366.006 5 .5 1.333 1.333 1.333 2.667 0 4-1.634.494-3.3.66-5 .5v-5z"/><path style="opacity:1" fill="#24456e" d="M70.5 155.5h4a103.678 103.678 0 0 1 3.5 14c-2.04-3.631-5.207-4.964-9.5-4 .117 1.984-.55 3.65-2 5l-1-1.5a223.606 223.606 0 0 0 5-13.5z"/><path style="opacity:1" fill="#e1eff6" d="M71.5 157.5c1.543 1.236 2.543 2.902 3 5-1.189.929-2.522 1.262-4 1l1-6z"/><path style="opacity:1" fill="#547397" d="M217.5 155.5h3v15h-3v-15z"/><path style="opacity:1" fill="#24466f" d="M242.5 155.5c1.175-.219 2.175.114 3 1 2.422 4.571 3.756 9.238 4 14-1.45-1.35-2.117-3.016-2-5a24.935 24.935 0 0 0-7 .5 26.585 26.585 0 0 1-2 3.5l-1-1.5a277.17 277.17 0 0 1 5-12.5z"/><path style="opacity:1" fill="#e3eef6" d="M243.5 157.5c1.238 1.714 1.905 3.714 2 6-1.478.262-2.811-.071-4-1 .674-1.695 1.341-3.362 2-5z"/><path style="opacity:1" fill="#22446e" d="M189.5 155.5c1.322-.17 2.489.163 3.5 1a60.299 60.299 0 0 0 4.5 11.5l-1 1.5c-3.667-5.333-7.333-5.333-11 0l-1-1a154.758 154.758 0 0 0 5-13z"/><path style="opacity:1" fill="#dff0f0" d="M190.5 157.5c1.574 1.602 2.241 3.602 2 6a8.43 8.43 0 0 1-4-.5 18.155 18.155 0 0 0 2-5.5z"/><path style="opacity:1" fill="#6b88a6" d="M123.5 155.5c.987 4.805 1.321 9.805 1 15h-3v-7c.809 1.792 1.309 3.792 1.5 6 .499-4.655.666-9.321.5-14z"/><path style="opacity:1" fill="#29476d" d="M290.5 155.5c1.322-.17 2.489.163 3.5 1a87.45 87.45 0 0 1 6 11 74.086 74.086 0 0 1 1.5-12 57.15 57.15 0 0 1 1 15c-1.322.17-2.489-.163-3.5-1a87.45 87.45 0 0 1-6-11 74.086 74.086 0 0 1-1.5 12 57.15 57.15 0 0 1-1-15z"/><path style="opacity:1" fill="#95b0ce" d="M154.5 155.5c-.603 5.119.064 9.785 2 14-.709.904-1.709 1.237-3 1-.321-5.195.013-10.195 1-15z"/><path style="opacity:1" fill="#274773" d="M178.5 167.5c.934-1.068 1.268-2.401 1-4-1.599.268-2.932-.066-4-1 1.765-.961 3.765-1.295 6-1v8c-10.134 3.024-14.634-.643-13.5-11 3.309-3.147 7.142-3.813 11.5-2 1.333.667 1.333 1.333 0 2-2.603-1.062-5.27-1.228-8-.5-2.925 3.696-2.592 7.029 1 10 2.212.789 4.212.622 6-.5z"/><path style="opacity:1" fill="#8ea2bc" d="M175.5 162.5c1.068.934 2.401 1.268 4 1 .268 1.599-.066 2.932-1 4v-3c-1.478.262-2.811-.071-4-1 .124-.607.457-.94 1-1z"/><path style="opacity:1" fill="#5d7690" d="M27.5 155.5v14h8c-2.787.977-5.787 1.31-9 1-.32-5.195.013-10.195 1-15z"/><path style="opacity:1" fill="#6b849d" d="M39.5 168.5c2.448.973 5.115 1.306 8 1-2.855 1.303-5.855 1.303-9 0 .124-.607.457-.94 1-1z"/><path style="opacity:1" fill="#66809c" d="M224.5 167.5c2.837 1.902 6.171 2.569 10 2-3.462.982-7.129 1.315-11 1-.237-1.291.096-2.291 1-3z"/><path style="opacity:1" fill="#25456e" d="M274.5 155.5c8.49-1.666 12.323 1.667 11.5 10-4.252 6.153-8.919 6.486-14 1-1.188-4.241-.355-7.908 2.5-11z"/><path style="opacity:1" fill="#f4f9f9" d="M275.5 157.5c8.118-.118 10.118 3.382 6 10.5-8.02.135-10.02-3.365-6-10.5z"/></svg>