<?xml version="1.0" encoding="UTF-8"?>
<!DOCTYPE svg PUBLIC "-//W3C//DTD SVG 1.1//EN" "http://www.w3.org/Graphics/SVG/1.1/DTD/svg11.dtd">
<svg xmlns="http://www.w3.org/2000/svg" version="1.1" width="440px" height="157px" style="shape-rendering:geometricPrecision; text-rendering:geometricPrecision; image-rendering:optimizeQuality; fill-rule:evenodd; clip-rule:evenodd" xmlns:xlink="http://www.w3.org/1999/xlink">
<g><path style="opacity:0.57" fill="#221814" d="M 59.5,44.5 C 60.3764,44.3691 61.0431,44.7025 61.5,45.5C 60.7062,49.7851 60.7062,54.1184 61.5,58.5C 60.448,58.6495 59.448,58.4828 58.5,58C 56.6266,55.7911 54.46,53.9578 52,52.5C 51.1455,55.4066 51.9788,57.7399 54.5,59.5C 52.5,60.8333 50.5,60.8333 48.5,59.5C 49.0253,58.8076 49.6919,58.3076 50.5,58C 49.7256,55.595 49.2256,53.095 49,50.5C 48.1667,49.6667 47.3333,48.8333 46.5,48C 48.3646,46.6986 50.3646,46.3653 52.5,47C 54.3333,48.8333 56.1667,50.6667 58,52.5C 58.7786,50.1929 58.2786,48.1929 56.5,46.5C 57.6016,45.8243 58.6016,45.1577 59.5,44.5 Z"/></g>
<g><path style="opacity:0.579" fill="#221814" d="M 65.5,50.5 C 69.2407,49.5985 71.2407,50.9319 71.5,54.5C 70.0222,54.238 68.6888,54.5713 67.5,55.5C 68.6507,56.731 69.8173,56.731 71,55.5C 70.8731,59.1533 69.0398,60.1533 65.5,58.5C 62.8477,55.7988 62.8477,53.1322 65.5,50.5 Z"/></g>
<g><path style="opacity:0.601" fill="#221814" d="M 73.5,52.5 C 76.8854,51.3426 79.8854,52.1759 82.5,55C 82.0245,56.7633 81.3578,58.43 80.5,60C 81.0253,60.6924 81.6919,61.1924 82.5,61.5C 83.3951,59.6932 84.7284,58.3599 86.5,57.5C 88.0564,58.5471 89.7231,59.2137 91.5,59.5C 91.5,60.5 91.5,61.5 91.5,62.5C 87.8444,60.9411 85.6777,62.2744 85,66.5C 82.1228,62.6944 78.2895,60.6944 73.5,60.5C 73.8051,57.586 73.8051,54.9193 73.5,52.5 Z M 77.5,53.5 C 78.844,55.1849 78.6773,56.8516 77,58.5C 77.0187,56.8925 77.1854,55.2259 77.5,53.5 Z"/></g>
<g><path style="opacity:0.585" fill="#221814" d="M 26.5,66.5 C 27.3658,59.7841 30.0325,58.9508 34.5,64C 35.1667,64.6667 35.8333,64.6667 36.5,64C 35.624,62.414 34.624,60.914 33.5,59.5C 35.4892,56.6549 38.1558,55.4882 41.5,56C 42.4664,58.099 43.7997,59.9324 45.5,61.5C 40.4025,64.2206 35.4025,67.2206 30.5,70.5C 29.3331,68.9208 27.9998,67.5875 26.5,66.5 Z M 38.5,58.5 C 40.0986,59.7985 40.5986,61.4652 40,63.5C 38.9914,61.9751 38.4914,60.3084 38.5,58.5 Z"/></g>
<g><path style="opacity:0.514" fill="#221814" d="M 133.5,68.5 C 132.306,69.7773 130.64,70.4439 128.5,70.5C 126.833,70.1667 125.167,69.8333 123.5,69.5C 125.457,66.432 125.957,63.0987 125,59.5C 123.846,61.9574 122.512,61.9574 121,59.5C 120.043,63.0987 120.543,66.432 122.5,69.5C 120.167,70.8333 117.833,70.8333 115.5,69.5C 117.457,66.432 117.957,63.0987 117,59.5C 114.448,62.1941 113.281,61.5274 113.5,57.5C 118.203,57.5628 122.87,57.2295 127.5,56.5C 127.5,58.1667 127.5,59.8333 127.5,61.5C 129.167,61.5 130.833,61.5 132.5,61.5C 132.198,64.0593 132.532,66.3926 133.5,68.5 Z M 127.5,63.5 C 130.956,64.5362 131.29,66.2029 128.5,68.5C 127.548,66.9547 127.215,65.288 127.5,63.5 Z"/></g>
<g><path style="opacity:0.512" fill="#221814" d="M 147.5,57.5 C 149.604,57.2011 151.604,57.5344 153.5,58.5C 152.746,61.777 152.246,65.1103 152,68.5C 148.835,71.4176 146.335,70.9176 144.5,67C 145.108,66.1301 145.941,65.6301 147,65.5C 148.098,66.3839 148.598,67.3839 148.5,68.5C 149.821,64.6369 149.488,60.9702 147.5,57.5 Z"/></g>
<g><path style="opacity:0.497" fill="#221814" d="M 192.5,57.5 C 194.199,57.3398 195.866,57.5065 197.5,58C 199,60.1667 200.5,62.3333 202,64.5C 202.779,62.1929 202.279,60.1929 200.5,58.5C 202.5,57.1667 204.5,57.1667 206.5,58.5C 204.986,62.303 203.986,66.303 203.5,70.5C 201.105,68.0562 198.938,65.3895 197,62.5C 196.161,65.1396 196.661,67.4729 198.5,69.5C 196.833,70.8333 195.167,70.8333 193.5,69.5C 196.296,65.1747 195.963,61.1747 192.5,57.5 Z"/></g>
<g><path style="opacity:0.405" fill="#221814" d="M 254.5,57.5 C 256.355,57.272 257.188,57.9387 257,59.5C 254.366,60.6922 253.532,60.0256 254.5,57.5 Z"/></g>
<g><path style="opacity:0.522" fill="#221814" d="M 301.5,62.5 C 302.469,63.3094 303.302,64.3094 304,65.5C 305.064,61.7054 307.564,60.5388 311.5,62C 312,62.5 312.5,63 313,63.5C 313.956,62.1059 315.289,61.4393 317,61.5C 319.123,62.5828 321.29,62.5828 323.5,61.5C 323.773,70.5174 324.773,70.684 326.5,62C 328.81,61.5034 331.143,61.3367 333.5,61.5C 333.5,60.5 333.5,59.5 333.5,58.5C 334.5,58.5 335.5,58.5 336.5,58.5C 336.5,59.5 336.5,60.5 336.5,61.5C 338.527,61.3379 340.527,61.5045 342.5,62C 341.72,63.073 341.887,64.2396 343,65.5C 343.49,64.2068 343.657,62.8734 343.5,61.5C 344.873,61.3433 346.207,61.51 347.5,62C 345.554,65.3897 343.721,68.8897 342,72.5C 340.951,73.5171 339.784,73.6838 338.5,73C 337.402,72.2303 337.402,71.397 338.5,70.5C 336.278,70.822 334.444,70.1554 333,68.5C 332.196,69.8045 331.029,70.4712 329.5,70.5C 325.167,70.5 320.833,70.5 316.5,70.5C 314.575,70.4096 313.408,69.4096 313,67.5C 309.414,71.6816 306.414,71.3483 304,66.5C 303.682,68.0609 302.849,69.2276 301.5,70C 299.527,70.4955 297.527,70.6621 295.5,70.5C 295.34,68.8008 295.506,67.1341 296,65.5C 297.44,68.3355 299.273,68.8355 301.5,67C 299.751,65.7085 297.918,64.5418 296,63.5C 295.202,61.7412 295.369,60.0745 296.5,58.5C 298.747,57.6258 301.08,57.2924 303.5,57.5C 303.923,59.7812 303.256,61.4479 301.5,62.5 Z M 301.5,62.5 C 300.005,62.5852 299.005,61.9185 298.5,60.5C 300.396,59.3606 301.396,60.0272 301.5,62.5 Z M 307.5,62.5 C 309.616,64.0881 309.949,66.0881 308.5,68.5C 307.28,68.1131 306.613,67.2798 306.5,66C 306.989,64.8615 307.322,63.6948 307.5,62.5 Z M 316.5,62.5 C 317.407,65.8045 318.907,66.1378 321,63.5C 321.667,65.1667 321.667,66.8333 321,68.5C 319.333,68.1667 317.667,67.8333 316,67.5C 315.36,65.735 315.527,64.0683 316.5,62.5 Z M 328.5,62.5 C 331.137,64.1538 330.803,64.6538 327.5,64C 328.056,63.6174 328.389,63.1174 328.5,62.5 Z M 332.5,63.5 C 333.598,64.6009 333.765,65.9343 333,67.5C 332.667,67.1667 332.333,66.8333 332,66.5C 330.388,69.0789 328.888,69.0789 327.5,66.5C 329.655,65.9986 331.322,64.9986 332.5,63.5 Z M 338.5,70.5 C 337.135,68.4091 336.468,66.0758 336.5,63.5C 337.675,63.281 338.675,63.6143 339.5,64.5C 340.167,66.1667 340.833,67.8333 341.5,69.5C 340.675,70.3857 339.675,70.719 338.5,70.5 Z"/></g>
<g><path style="opacity:0.457" fill="#221814" d="M 321.5,57.5 C 324.957,57.6672 325.29,58.6672 322.5,60.5C 321.614,59.675 321.281,58.675 321.5,57.5 Z"/></g>
<g><path style="opacity:0.454" fill="#221814" d="M 362.5,57.5 C 363.5,57.5 364.5,57.5 365.5,57.5C 364.754,61.31 363.754,61.31 362.5,57.5 Z"/></g>
<g><path style="opacity:0.59" fill="#221814" d="M 398.5,60.5 C 399.969,63.2551 401.302,66.2551 402.5,69.5C 400.5,70.8333 398.5,70.8333 396.5,69.5C 399.167,67.1667 399.167,64.8333 396.5,62.5C 397.243,61.8182 397.909,61.1515 398.5,60.5 Z"/></g>
<g><path style="opacity:0.526" fill="#221814" d="M 404.5,60.5 C 410.997,60.1799 413.164,63.1799 411,69.5C 409.587,71.4136 407.753,72.7469 405.5,73.5C 404.479,72.9984 404.312,72.3317 405,71.5C 406.255,70.7894 407.421,69.956 408.5,69C 402.438,68.3025 401.105,65.4692 404.5,60.5 Z M 406.5,62.5 C 407.586,62.62 408.253,63.2867 408.5,64.5C 407.696,66.9573 406.696,66.9573 405.5,64.5C 405.863,63.8165 406.196,63.1499 406.5,62.5 Z"/></g>
<g><path style="opacity:0.498" fill="#221814" d="M 412.5,60.5 C 415.167,60.5 417.833,60.5 420.5,60.5C 419.322,65.1906 417.322,69.524 414.5,73.5C 414.167,73 413.833,72.5 413.5,72C 414.697,69.1063 416.03,66.273 417.5,63.5C 415.741,62.246 414.241,62.5794 413,64.5C 412.51,63.2068 412.343,61.8734 412.5,60.5 Z"/></g>
<g><path style="opacity:0.595" fill="#221814" d="M 425.5,60.5 C 426.982,62.9105 428.315,65.5771 429.5,68.5C 428.248,70.0009 427.248,71.6675 426.5,73.5C 425.571,72.3112 425.238,70.9778 425.5,69.5C 423.833,69.5 422.167,69.5 420.5,69.5C 420.891,65.7793 422.558,62.7793 425.5,60.5 Z M 424.5,64.5 C 425.776,65.3864 425.776,66.3864 424.5,67.5C 423.438,66.5754 423.438,65.5754 424.5,64.5 Z"/></g>
<g><path style="opacity:0.511" fill="#221814" d="M 133.5,68.5 C 132.506,62.6748 134.839,60.5081 140.5,62C 141.337,63.0113 141.67,64.1779 141.5,65.5C 139.712,65.2148 138.045,65.5481 136.5,66.5C 137.888,69.0789 139.388,69.0789 141,66.5C 141.658,68.108 141.158,69.2747 139.5,70C 137.16,70.7484 135.16,70.2484 133.5,68.5 Z M 137.5,62.5 C 138.773,63.0768 138.773,63.7435 137.5,64.5C 136.537,64.0302 136.537,63.3635 137.5,62.5 Z"/></g>
<g><path style="opacity:0.509" fill="#221814" d="M 161.5,62.5 C 161.292,64.9201 161.626,67.2534 162.5,69.5C 159.989,69.5097 157.322,69.843 154.5,70.5C 154.141,68.2341 154.808,66.4007 156.5,65C 155.027,64.2904 154.36,63.1238 154.5,61.5C 156.95,61.298 159.283,61.6314 161.5,62.5 Z M 157.5,66.5 C 158.773,67.0768 158.773,67.7435 157.5,68.5C 156.537,68.0302 156.537,67.3635 157.5,66.5 Z"/></g>
<g><path style="opacity:0.527" fill="#221814" d="M 161.5,62.5 C 162.793,61.8418 164.293,61.5085 166,61.5C 167.981,61.6292 169.647,62.2958 171,63.5C 173.135,61.7215 175.635,61.0548 178.5,61.5C 178.192,63.924 178.526,66.2573 179.5,68.5C 180.769,66.3052 180.769,64.1385 179.5,62C 182.429,61.2228 185.263,61.3895 188,62.5C 188.287,64.8907 188.787,67.2241 189.5,69.5C 183.863,70.6632 178.196,70.8299 172.5,70C 172,69.5 171.5,69 171,68.5C 169.509,70.0037 167.676,70.8371 165.5,71C 168.351,72.8813 168.018,73.7146 164.5,73.5C 163.5,73.3333 162.5,73.1667 161.5,73C 163.504,70.1592 164.004,66.9926 163,63.5C 162.617,62.944 162.117,62.6107 161.5,62.5 Z M 174.5,62.5 C 175.289,62.7828 175.956,63.2828 176.5,64C 175.184,64.5281 174.517,64.0281 174.5,62.5 Z M 165.5,63.5 C 166.5,63.5 167.5,63.5 168.5,63.5C 168.884,65.6648 168.217,67.3315 166.5,68.5C 165.548,66.9547 165.215,65.288 165.5,63.5 Z M 183.5,63.5 C 184.649,63.7911 185.316,64.6244 185.5,66C 185.167,66.8333 184.833,67.6667 184.5,68.5C 183.548,66.9547 183.215,65.288 183.5,63.5 Z M 171.5,64.5 C 174.001,64.5109 174.168,65.1776 172,66.5C 171.536,65.9056 171.369,65.2389 171.5,64.5 Z M 174.5,66.5 C 177.001,66.5109 177.168,67.1776 175,68.5C 174.536,67.9056 174.369,67.2389 174.5,66.5 Z"/></g>
<g><path style="opacity:0.514" fill="#221814" d="M 265.5,62.5 C 268.287,61.5233 271.287,61.19 274.5,61.5C 274.198,64.0593 274.532,66.3926 275.5,68.5C 274.306,69.7773 272.64,70.4439 270.5,70.5C 263.514,69.5142 256.514,69.5142 249.5,70.5C 247.575,70.4096 246.408,69.4096 246,67.5C 245.424,69.8516 243.924,70.8516 241.5,70.5C 240.006,70.2908 238.839,69.6241 238,68.5C 236.192,70.3959 234.025,70.8959 231.5,70C 230.539,67.424 229.039,65.2574 227,63.5C 226.221,65.8071 226.721,67.8071 228.5,69.5C 224.205,70.6609 219.871,70.8275 215.5,70C 214.736,67.9307 214.236,65.764 214,63.5C 212.47,64.9202 210.637,65.9202 208.5,66.5C 209.888,69.0789 211.388,69.0789 213,66.5C 213.942,69.23 212.942,70.5633 210,70.5C 205.677,69.1759 204.677,66.5092 207,62.5C 210.557,62.1292 214.057,61.7959 217.5,61.5C 217.337,63.8568 217.503,66.1902 218,68.5C 219.788,66.6674 219.954,64.6674 218.5,62.5C 219.689,61.5713 221.022,61.238 222.5,61.5C 222.192,63.924 222.526,66.2573 223.5,68.5C 224.706,66.5159 224.706,64.5159 223.5,62.5C 224.667,62.1667 225.833,61.8333 227,61.5C 232.108,61.5359 237.274,61.5359 242.5,61.5C 243.994,61.7092 245.161,62.3759 246,63.5C 246.5,63 247,62.5 247.5,62C 250.482,61.502 253.482,61.3354 256.5,61.5C 256.773,70.5174 257.773,70.684 259.5,62C 261.598,61.3224 263.598,61.4891 265.5,62.5 Z M 209.5,62.5 C 210.773,63.0768 210.773,63.7435 209.5,64.5C 208.537,64.0302 208.537,63.3635 209.5,62.5 Z M 233.5,62.5 C 235.616,64.0881 235.949,66.0881 234.5,68.5C 232.261,66.8669 231.928,64.8669 233.5,62.5 Z M 249.5,62.5 C 250.407,65.8045 251.907,66.1378 254,63.5C 254.667,65.1667 254.667,66.8333 254,68.5C 252.333,68.1667 250.667,67.8333 249,67.5C 248.36,65.735 248.527,64.0683 249.5,62.5 Z M 261.5,62.5 C 264.137,64.1538 263.803,64.6538 260.5,64C 261.056,63.6174 261.389,63.1174 261.5,62.5 Z M 265.5,62.5 C 267.616,64.0881 267.949,66.0881 266.5,68.5C 265.808,67.9747 265.308,67.3081 265,66.5C 263.388,69.0789 261.888,69.0789 260.5,66.5C 262.045,65.5481 263.712,65.2148 265.5,65.5C 265.5,64.5 265.5,63.5 265.5,62.5 Z M 269.5,63.5 C 270.649,63.7911 271.316,64.6244 271.5,66C 271.167,66.8333 270.833,67.6667 270.5,68.5C 269.548,66.9547 269.215,65.288 269.5,63.5 Z"/></g>
<g><path style="opacity:0.548" fill="#221814" d="M 282.5,65.5 C 283.686,61.6124 286.186,60.6124 290,62.5C 290.483,63.448 290.649,64.448 290.5,65.5C 288.712,65.2148 287.045,65.5481 285.5,66.5C 286.888,69.0789 288.388,69.0789 290,66.5C 290.915,68.92 290.082,70.2534 287.5,70.5C 285.813,70.2395 284.313,69.5728 283,68.5C 280.506,71.0858 278.006,71.0858 275.5,68.5C 274.499,62.8357 276.833,60.5024 282.5,61.5C 282.5,62.8333 282.5,64.1667 282.5,65.5 Z M 282.5,65.5 C 283.538,67.1084 282.871,68.1084 280.5,68.5C 278.064,66.7369 277.897,64.7369 280,62.5C 280.236,64.1193 281.069,65.1193 282.5,65.5 Z M 286.5,62.5 C 289.137,64.1538 288.803,64.6538 285.5,64C 286.056,63.6174 286.389,63.1174 286.5,62.5 Z"/></g>
<g><path style="opacity:0.515" fill="#221814" d="M 376.5,68.5 C 374.603,69.8048 372.269,70.4714 369.5,70.5C 367.167,70.1667 364.833,69.8333 362.5,69.5C 363.964,67.0073 363.797,64.674 362,62.5C 361.626,63.4162 361.126,64.2496 360.5,65C 362.334,69.6748 360.667,71.5081 355.5,70.5C 354.905,67.6537 354.905,64.6537 355.5,61.5C 358.833,61.5 362.167,61.5 365.5,61.5C 365.192,63.924 365.526,66.2573 366.5,68.5C 367.769,66.3052 367.769,64.1385 366.5,62C 369.429,61.2228 372.263,61.3895 375,62.5C 375.191,64.7078 375.691,66.7078 376.5,68.5 Z M 370.5,63.5 C 371.649,63.7911 372.316,64.6244 372.5,66C 372.167,66.8333 371.833,67.6667 371.5,68.5C 370.548,66.9547 370.215,65.288 370.5,63.5 Z M 356.5,67.5 C 357.497,66.2875 358.497,66.4542 359.5,68C 358.423,68.4696 357.423,68.3029 356.5,67.5 Z"/></g>
<g><path style="opacity:0.518" fill="#221814" d="M 376.5,68.5 C 375.499,62.8357 377.833,60.5024 383.5,61.5C 383.459,65.2434 384.126,65.4101 385.5,62C 389.22,60.608 391.22,61.7747 391.5,65.5C 389.712,65.2148 388.045,65.5481 386.5,66.5C 387.888,69.0789 389.388,69.0789 391,66.5C 391.684,67.7839 391.517,68.9505 390.5,70C 387.975,70.8959 385.808,70.3959 384,68.5C 381.506,71.0858 379.006,71.0858 376.5,68.5 Z M 380.5,62.5 C 381.306,63.8675 382.306,65.2008 383.5,66.5C 381.383,69.3873 380.05,69.0539 379.5,65.5C 379.685,64.4163 380.018,63.4163 380.5,62.5 Z M 387.5,62.5 C 388.773,63.0768 388.773,63.7435 387.5,64.5C 386.537,64.0302 386.537,63.3635 387.5,62.5 Z"/></g>
<g><path style="opacity:0.749" fill="#006ab3" d="M 52.5,63.5 C 53.8734,63.3433 55.2068,63.51 56.5,64C 57.1122,65.3033 57.4455,66.4699 57.5,67.5C 64.4962,65.6941 71.1629,66.5275 77.5,70C 82.8667,78.6061 81.8667,86.6061 74.5,94C 76.3632,95.4178 76.8632,97.2511 76,99.5C 72.4096,101.358 68.5763,102.524 64.5,103C 58.331,106.489 52.331,110.155 46.5,114C 39.3568,114.199 32.3568,113.199 25.5,111C 18.3206,104.727 17.4873,97.5599 23,89.5C 29.442,80.4191 37.6086,73.9191 47.5,70C 49.0544,67.7131 50.7211,65.5465 52.5,63.5 Z M 53.5,70.5 C 58.9302,70.161 64.2636,70.661 69.5,72C 76.8279,76.6202 78.3279,82.7868 74,90.5C 72.0394,93.4628 69.706,96.1294 67,98.5C 63.4565,97.3118 60.2898,95.4784 57.5,93C 59.2996,89.2093 61.7996,86.0426 65,83.5C 66.1096,85.0368 67.6096,85.7035 69.5,85.5C 69.5,83.8333 69.5,82.1667 69.5,80.5C 67.8333,80.5 66.1667,80.5 64.5,80.5C 64.6633,78.1432 64.4966,75.8098 64,73.5C 62.5557,71.8446 60.7224,71.178 58.5,71.5C 58.5,72.8333 58.5,74.1667 58.5,75.5C 59.5,75.5 60.5,75.5 61.5,75.5C 61.6068,79.2865 60.1068,82.2865 57,84.5C 55.8288,79.8151 54.6621,75.1484 53.5,70.5 Z M 46.5,72.5 C 48.3442,73.2039 48.8442,74.5372 48,76.5C 47.0975,75.2986 45.9308,74.4652 44.5,74C 45.4158,73.7216 46.0825,73.2216 46.5,72.5 Z M 25.5,93.5 C 27.8531,85.1469 33.1864,79.8136 41.5,77.5C 46.9529,80.0649 49.6195,84.3982 49.5,90.5C 44.7416,89.4689 40.0749,88.3023 35.5,87C 38.2867,85.0934 38.12,83.5934 35,82.5C 31.6548,83.7195 30.8214,85.8862 32.5,89C 29.7982,90.0121 27.4649,91.5121 25.5,93.5 Z M 31.5,93.5 C 35.6049,93.2338 39.6049,93.7338 43.5,95C 47.674,96.5078 48.3407,98.8412 45.5,102C 41.2593,103.106 38.2593,105.606 36.5,109.5C 32.9697,108.485 29.8031,106.819 27,104.5C 23.0055,99.571 23.8389,97.9043 29.5,99.5C 29.2587,97.1137 29.9254,95.1137 31.5,93.5 Z M 57.5,99.5 C 59.1401,100.32 60.8068,101.153 62.5,102C 60.6667,103.167 58.8333,104.333 57,105.5C 56.8195,103.512 56.9862,101.512 57.5,99.5 Z"/></g>
<g><path style="opacity:0.617" fill="#221814" d="M 89.5,64.5 C 93.4134,64.2405 95.7468,66.0739 96.5,70C 96.2409,71.2613 95.5742,72.2613 94.5,73C 90.2367,74.539 87.5701,73.2057 86.5,69C 87.3862,67.3853 88.3862,65.8853 89.5,64.5 Z M 92.5,67.5 C 93.7736,68.1894 93.7736,69.0228 92.5,70C 91.5,70.6667 90.5,70.6667 89.5,70C 90.5707,69.1482 91.5707,68.3149 92.5,67.5 Z"/></g>
<g><path style="opacity:0.595" fill="#221814" d="M 26.5,66.5 C 27.7074,69.8142 27.7074,73.1475 26.5,76.5C 27.675,76.281 28.675,76.6143 29.5,77.5C 28.1667,78.5 26.8333,79.5 25.5,80.5C 24.5197,79.0186 23.353,77.6853 22,76.5C 19.3199,83.8484 15.8199,84.3484 11.5,78C 13.3936,72.6539 16.227,72.1539 20,76.5C 20.5,76 21,75.5 21.5,75C 16.1006,70.9697 16.7673,67.803 23.5,65.5C 24.4168,66.1272 25.4168,66.4606 26.5,66.5 Z M 21.5,70.5 C 23.0699,69.4407 24.4032,69.9407 25.5,72C 23.9343,72.2997 22.601,71.7997 21.5,70.5 Z"/></g>
<g><path style="opacity:0.427" fill="#221814" d="M 347.5,67.5 C 348.5,67.5 349.5,67.5 350.5,67.5C 350.872,70.0217 350.039,72.0217 348,73.5C 347.5,73 347,72.5 346.5,72C 347.38,70.6439 347.714,69.1439 347.5,67.5 Z"/></g>
<g><path style="opacity:0.527" fill="#221814" d="M 89.5,75.5 C 91.9729,76.3086 94.3063,76.642 96.5,76.5C 97.4656,78.396 97.7989,80.396 97.5,82.5C 95.1795,81.3751 92.8462,81.2084 90.5,82C 88.1656,80.1575 87.8323,77.9909 89.5,75.5 Z"/></g>
<g><path style="opacity:0.602" fill="#221814" d="M 4.5,77.5 C 8.52537,80.2701 12.692,82.9368 17,85.5C 17.4966,87.8098 17.6633,90.1432 17.5,92.5C 16.1667,92.5 14.8333,92.5 13.5,92.5C 13.3601,90.8762 14.0267,89.7096 15.5,89C 10.939,86.2327 6.6057,83.8994 2.5,82C 3.04389,80.415 3.71056,78.915 4.5,77.5 Z"/></g>
<g><path style="opacity:0.724" fill="#221814" d="M 164.5,83.5 C 165.919,82.5489 167.585,82.2155 169.5,82.5C 169.5,85.5 169.5,88.5 169.5,91.5C 175.206,91.1712 180.872,91.5046 186.5,92.5C 181.533,93.329 176.533,93.829 171.5,94C 175.193,101.858 180.526,108.358 187.5,113.5C 187.167,114.5 186.5,115.167 185.5,115.5C 179.144,111.311 173.977,105.977 170,99.5C 169.501,103.152 169.335,106.818 169.5,110.5C 180.167,111.167 180.167,111.833 169.5,112.5C 169.5,115.167 169.5,117.833 169.5,120.5C 168.167,120.5 166.833,120.5 165.5,120.5C 165.5,117.833 165.5,115.167 165.5,112.5C 154.833,111.833 154.833,111.167 165.5,110.5C 165.665,106.818 165.499,103.152 165,99.5C 161,106.167 155.667,111.5 149,115.5C 148.308,114.975 147.808,114.308 147.5,113.5C 154.834,108.511 159.834,101.844 162.5,93.5C 157.786,93.8266 153.12,93.4933 148.5,92.5C 154.128,91.5046 159.794,91.1712 165.5,91.5C 165.806,88.6146 165.473,85.9479 164.5,83.5 Z"/></g>
<g><path style="opacity:0.732" fill="#221814" d="M 195.5,82.5 C 197.288,82.2148 198.955,82.5481 200.5,83.5C 199.626,85.7466 199.292,88.0799 199.5,90.5C 204.493,90.0843 209.493,89.7509 214.5,89.5C 214.5,87.1667 214.5,84.8333 214.5,82.5C 215.833,82.5 217.167,82.5 218.5,82.5C 218.5,84.8333 218.5,87.1667 218.5,89.5C 220.833,89.5 223.167,89.5 225.5,89.5C 225.5,96.5 225.5,103.5 225.5,110.5C 223.167,110.5 220.833,110.5 218.5,110.5C 218.5,113.833 218.5,117.167 218.5,120.5C 217.167,120.5 215.833,120.5 214.5,120.5C 214.5,117.167 214.5,113.833 214.5,110.5C 211.833,110.5 209.167,110.5 206.5,110.5C 206.657,109.127 206.49,107.793 206,106.5C 205.586,106.957 205.086,107.291 204.5,107.5C 202.851,106.352 201.351,105.019 200,103.5C 199.501,109.157 199.334,114.824 199.5,120.5C 198.167,120.5 196.833,120.5 195.5,120.5C 195.666,115.821 195.499,111.155 195,106.5C 193.846,107.743 192.512,108.743 191,109.5C 190.308,108.975 189.808,108.308 189.5,107.5C 193.929,103.407 197.596,98.7406 200.5,93.5C 196.833,92.8333 193.167,92.1667 189.5,91.5C 191.396,90.5344 193.396,90.2011 195.5,90.5C 195.5,87.8333 195.5,85.1667 195.5,82.5 Z M 210.5,91.5 C 211.833,91.5 213.167,91.5 214.5,91.5C 214.5,93.8333 214.5,96.1667 214.5,98.5C 213.167,98.5 211.833,98.5 210.5,98.5C 210.5,96.1667 210.5,93.8333 210.5,91.5 Z M 218.5,91.5 C 219.833,91.5 221.167,91.5 222.5,91.5C 222.5,93.8333 222.5,96.1667 222.5,98.5C 221.167,98.5 219.833,98.5 218.5,98.5C 218.5,96.1667 218.5,93.8333 218.5,91.5 Z M 205.5,92.5 C 206.647,96.6463 206.814,100.98 206,105.5C 204.257,103.679 202.757,101.679 201.5,99.5C 203.616,97.6001 204.949,95.2668 205.5,92.5 Z M 210.5,100.5 C 211.833,100.5 213.167,100.5 214.5,100.5C 214.5,102.833 214.5,105.167 214.5,107.5C 213.167,107.5 211.833,107.5 210.5,107.5C 210.5,105.167 210.5,102.833 210.5,100.5 Z M 218.5,100.5 C 219.833,100.5 221.167,100.5 222.5,100.5C 222.5,102.833 222.5,105.167 222.5,107.5C 221.167,107.5 219.833,107.5 218.5,107.5C 218.5,105.167 218.5,102.833 218.5,100.5 Z"/></g>
<g><path style="opacity:0.665" fill="#221814" d="M 253.5,100.5 C 250.492,101.42 247.659,102.754 245,104.5C 244.652,106.14 245.152,107.473 246.5,108.5C 248.469,112.547 247.136,114.547 242.5,114.5C 242.603,111.781 242.269,109.115 241.5,106.5C 241.722,104.945 242.389,103.611 243.5,102.5C 242.726,101.289 241.893,101.289 241,102.5C 240.501,108.491 240.334,114.491 240.5,120.5C 239.167,120.5 237.833,120.5 236.5,120.5C 236.666,115.821 236.499,111.155 236,106.5C 235.202,109.893 234.202,113.226 233,116.5C 231.817,117.731 230.651,117.731 229.5,116.5C 231.003,112.644 231.67,108.644 231.5,104.5C 229.896,103.713 229.229,102.38 229.5,100.5C 232.99,100.849 235.323,99.3494 236.5,96C 234.402,93.146 232.069,90.4794 229.5,88C 231.24,86.173 232.907,86.3397 234.5,88.5C 236.123,86.2087 237.957,84.2087 240,82.5C 241.395,82.7804 242.562,83.4471 243.5,84.5C 241.167,86.1667 239.167,88.1667 237.5,90.5C 237.808,91.3081 238.308,91.9747 239,92.5C 240.102,90.6191 241.435,88.9525 243,87.5C 245.544,87.8214 246.544,89.1547 246,91.5C 244.833,92.6667 243.667,93.8333 242.5,95C 245.794,100.537 249.461,100.703 253.5,95.5C 252.139,93.9716 250.972,92.3049 250,90.5C 249.316,89.2161 249.483,88.0495 250.5,87C 249.062,86.7811 247.729,86.2811 246.5,85.5C 253.167,84.1667 259.833,84.1667 266.5,85.5C 264.755,89.4081 262.422,92.9081 259.5,96C 262.309,97.7411 265.309,98.9078 268.5,99.5C 268.5,100.5 268.5,101.5 268.5,102.5C 264.439,101.868 260.606,100.535 257,98.5C 255.541,98.8082 254.374,99.4749 253.5,100.5 Z M 253.5,86.5 C 261.447,85.6562 262.447,87.6562 256.5,92.5C 254.447,91.0606 253.447,89.0606 253.5,86.5 Z M 240.5,96.5 C 241.404,97.209 241.737,98.209 241.5,99.5C 240.448,99.6495 239.448,99.4828 238.5,99C 239.381,98.2917 240.047,97.4584 240.5,96.5 Z M 231.5,104.5 C 232.878,103.766 234.378,103.099 236,102.5C 236.667,103.5 236.667,104.5 236,105.5C 234.644,104.62 233.144,104.286 231.5,104.5 Z"/></g>
<g><path style="opacity:0.697" fill="#221814" d="M 284.5,82.5 C 286.384,82.7118 287.717,83.7118 288.5,85.5C 286.604,86.4656 284.604,86.7989 282.5,86.5C 282.5,88.5 282.5,90.5 282.5,92.5C 284.167,92.5 285.833,92.5 287.5,92.5C 287.5,93.5 287.5,94.5 287.5,95.5C 285.801,95.3398 284.134,95.5065 282.5,96C 283.732,99.7981 285.732,103.131 288.5,106C 285.843,107.767 284.01,106.934 283,103.5C 282.501,109.157 282.334,114.824 282.5,120.5C 281.167,120.5 279.833,120.5 278.5,120.5C 278.666,115.156 278.499,109.823 278,104.5C 276.542,106.96 274.709,109.127 272.5,111C 271.275,111.563 270.275,111.23 269.5,110C 273.314,106.21 275.98,101.71 277.5,96.5C 275.257,95.5258 272.924,95.1924 270.5,95.5C 270.5,94.5 270.5,93.5 270.5,92.5C 273.167,92.5 275.833,92.5 278.5,92.5C 278.5,90.8333 278.5,89.1667 278.5,87.5C 276.143,87.6633 273.81,87.4966 271.5,87C 271.043,86.586 270.709,86.086 270.5,85.5C 275.388,84.8929 280.054,83.8929 284.5,82.5 Z"/></g>
<g><path style="opacity:0.727" fill="#221814" d="M 298.5,83.5 C 300.517,82.126 302.517,82.2926 304.5,84C 303.19,90.4438 303.19,96.9438 304.5,103.5C 306.198,102.319 307.865,102.319 309.5,103.5C 307.821,104.782 305.987,105.782 304,106.5C 303.501,111.155 303.334,115.821 303.5,120.5C 302.167,120.5 300.833,120.5 299.5,120.5C 299.666,116.154 299.499,111.821 299,107.5C 295.556,108.927 292.056,110.26 288.5,111.5C 287.261,109.993 287.595,108.826 289.5,108C 292.72,106.648 296.053,105.814 299.5,105.5C 299.825,97.9809 299.492,90.6476 298.5,83.5 Z"/></g>
<g><path style="opacity:0.627" fill="#221814" d="M 316.5,82.5 C 320.491,85.0542 323.658,87.7209 326,90.5C 326.833,90.1667 327.667,89.8333 328.5,89.5C 327.627,87.5866 326.627,85.7533 325.5,84C 327.727,82.1645 329.56,82.6645 331,85.5C 332.009,87.0249 332.509,88.6916 332.5,90.5C 333.873,90.6567 335.207,90.49 336.5,90C 338.291,87.586 339.957,85.086 341.5,82.5C 343.23,83.0256 344.564,84.0256 345.5,85.5C 338.73,90.0699 339.73,91.7365 348.5,90.5C 348.5,93.8333 348.5,97.1667 348.5,100.5C 347.167,100.5 345.833,100.5 344.5,100.5C 344.5,98.1667 344.5,95.8333 344.5,93.5C 335.167,93.5 325.833,93.5 316.5,93.5C 316.5,95.8333 316.5,98.1667 316.5,100.5C 315.167,100.5 313.833,100.5 312.5,100.5C 312.5,97.1667 312.5,93.8333 312.5,90.5C 314.857,90.6633 317.19,90.4966 319.5,90C 317.013,87.8106 316.013,85.3106 316.5,82.5 Z"/></g>
<g><path style="opacity:0.614" fill="#221814" d="M 357.5,82.5 C 361.297,83.9594 363.631,86.6261 364.5,90.5C 366.199,90.6602 367.866,90.4935 369.5,90C 367.798,87.7646 366.798,85.2646 366.5,82.5C 370.919,83.257 373.253,85.9236 373.5,90.5C 374.978,90.762 376.311,90.4287 377.5,89.5C 378.934,86.9528 380.6,84.6195 382.5,82.5C 384.002,83.0831 385.335,83.9164 386.5,85C 384.833,86.6667 383.167,88.3333 381.5,90C 384.146,90.4974 386.813,90.6641 389.5,90.5C 389.5,93.8333 389.5,97.1667 389.5,100.5C 388.167,100.5 386.833,100.5 385.5,100.5C 385.5,98.1667 385.5,95.8333 385.5,93.5C 376.167,93.5 366.833,93.5 357.5,93.5C 357.5,95.8333 357.5,98.1667 357.5,100.5C 356.167,100.5 354.833,100.5 353.5,100.5C 353.5,97.1667 353.5,93.8333 353.5,90.5C 355.857,90.6633 358.19,90.4966 360.5,90C 357.587,88.0412 356.587,85.5412 357.5,82.5 Z"/></g>
<g><path style="opacity:0.612" fill="#221814" d="M 409.5,82.5 C 411.199,82.3398 412.866,82.5065 414.5,83C 418.464,89.1316 423.798,93.6316 430.5,96.5C 431.386,97.325 431.719,98.325 431.5,99.5C 428.421,99.1958 425.587,98.1958 423,96.5C 419.598,97.7891 415.931,98.4558 412,98.5C 408.069,98.4558 404.402,97.7891 401,96.5C 398.508,98.4971 395.675,99.4971 392.5,99.5C 392.5,98.5 392.5,97.5 392.5,96.5C 399.936,94.0709 405.603,89.4042 409.5,82.5 Z M 411.5,87.5 C 414.335,90.1653 417.335,92.6653 420.5,95C 414.833,95.6667 409.167,95.6667 403.5,95C 406.666,92.9999 409.332,90.4999 411.5,87.5 Z"/></g>
<g><path style="opacity:0.553" fill="#221814" d="M 87.5,96.5 C 89.8443,101.825 88.1776,104.492 82.5,104.5C 82.2965,102.61 82.9632,101.11 84.5,100C 83.8333,99.3333 83.1667,99.3333 82.5,100C 81.8333,101.333 80.8333,102.333 79.5,103C 84.4857,106.165 84.1524,109.165 78.5,112C 75.8882,112.741 74.2215,111.741 73.5,109C 71.0612,108.485 70.8945,108.985 73,110.5C 74.4922,115.53 72.6589,117.864 67.5,117.5C 67.5,116.5 67.5,115.5 67.5,114.5C 71.2998,114.181 71.4665,113.181 68,111.5C 65.4016,113.017 64.9016,115.017 66.5,117.5C 65.5309,120.987 63.1976,122.32 59.5,121.5C 59.1367,119.089 60.1367,117.589 62.5,117C 61.1813,115.372 59.8479,115.539 58.5,117.5C 57.6547,114.793 58.8214,113.126 62,112.5C 62.772,112.645 63.4387,112.978 64,113.5C 64.5831,111.998 65.4164,110.665 66.5,109.5C 77.0004,104.39 84.3337,95.8898 88.5,84C 94.7058,83.0436 96.7058,85.5436 94.5,91.5C 93.1054,92.8146 92.1054,92.4812 91.5,90.5C 94.2508,87.9453 93.5841,86.9453 89.5,87.5C 89.6399,89.1238 88.9733,90.2904 87.5,91C 90.0799,92.7864 92.7465,94.2864 95.5,95.5C 95.6882,97.1033 95.1882,98.4366 94,99.5C 92.1575,97.8288 89.9908,96.8288 87.5,96.5 Z M 87.5,96.5 C 85.9719,96.4827 85.4719,95.816 86,94.5C 86.7172,95.0442 87.2172,95.7109 87.5,96.5 Z M 77.5,107.5 C 75.9153,106.998 75.4153,105.998 76,104.5C 77.0386,105.244 77.5386,106.244 77.5,107.5 Z"/></g>
<g><path style="opacity:0.702" fill="#221814" d="M 113.5,84.5 C 122.5,84.5 131.5,84.5 140.5,84.5C 140.5,96.5 140.5,108.5 140.5,120.5C 131.483,117.904 122.483,117.904 113.5,120.5C 113.5,108.5 113.5,96.5 113.5,84.5 Z M 117.5,87.5 C 123.5,87.5 129.5,87.5 135.5,87.5C 135.5,91.8333 135.5,96.1667 135.5,100.5C 129.5,100.5 123.5,100.5 117.5,100.5C 117.5,96.1667 117.5,91.8333 117.5,87.5 Z M 117.5,102.5 C 123.5,102.5 129.5,102.5 135.5,102.5C 135.5,107.167 135.5,111.833 135.5,116.5C 129.5,116.5 123.5,116.5 117.5,116.5C 117.5,111.833 117.5,107.167 117.5,102.5 Z"/></g>
<g><path style="opacity:0.547" fill="#221814" d="M 290.5,85.5 C 293.075,86.5678 295.242,88.2345 297,90.5C 297.345,92.2009 296.678,93.5342 295,94.5C 293.71,92.208 292.043,90.208 290,88.5C 289.53,87.4232 289.697,86.4232 290.5,85.5 Z"/></g>
<g><path style="opacity:0.564" fill="#221814" d="M 289.5,94.5 C 291.861,95.4348 294.028,96.7682 296,98.5C 296.884,100.641 296.384,102.307 294.5,103.5C 292.62,100.909 290.62,98.4087 288.5,96C 289.056,95.6174 289.389,95.1174 289.5,94.5 Z"/></g>
<g><path style="opacity:0.545" fill="#221814" d="M 2.5,97.5 C 6.88795,98.9637 11.2213,100.63 15.5,102.5C 16.8333,103.833 16.8333,105.167 15.5,106.5C 11.7017,102.674 8.03505,103.007 4.5,107.5C 3.66968,104.179 3.00302,100.846 2.5,97.5 Z"/></g>
<g><path style="opacity:0.655" fill="#221814" d="M 318.5,97.5 C 326.528,97.169 334.528,97.5023 342.5,98.5C 339.671,101.159 336.671,103.659 333.5,106C 338.823,106.499 344.156,106.666 349.5,106.5C 349.5,107.5 349.5,108.5 349.5,109.5C 343.833,109.5 338.167,109.5 332.5,109.5C 332.665,112.85 332.498,116.183 332,119.5C 328.927,120.617 325.76,120.784 322.5,120C 322.043,119.586 321.709,119.086 321.5,118.5C 323.602,118.521 325.768,118.187 328,117.5C 328.497,114.854 328.664,112.187 328.5,109.5C 322.833,109.5 317.167,109.5 311.5,109.5C 311.5,108.5 311.5,107.5 311.5,106.5C 317.167,106.5 322.833,106.5 328.5,106.5C 328.5,105.167 328.5,103.833 328.5,102.5C 331.022,102.872 333.022,102.039 334.5,100C 328.74,100.122 323.407,99.289 318.5,97.5 Z"/></g>
<g><path style="opacity:0.665" fill="#221814" d="M 359.5,97.5 C 367.167,97.5 374.833,97.5 382.5,97.5C 380.782,101.056 378.116,103.89 374.5,106C 379.823,106.499 385.156,106.666 390.5,106.5C 390.5,107.5 390.5,108.5 390.5,109.5C 384.833,109.5 379.167,109.5 373.5,109.5C 373.665,112.85 373.498,116.183 373,119.5C 369.927,120.617 366.76,120.784 363.5,120C 363.043,119.586 362.709,119.086 362.5,118.5C 364.602,118.521 366.768,118.187 369,117.5C 369.497,114.854 369.664,112.187 369.5,109.5C 363.833,109.5 358.167,109.5 352.5,109.5C 352.5,108.5 352.5,107.5 352.5,106.5C 358.167,106.5 363.833,106.5 369.5,106.5C 369.5,105.167 369.5,103.833 369.5,102.5C 372.022,102.872 374.022,102.039 375.5,100C 369.74,100.122 364.407,99.289 359.5,97.5 Z"/></g>
<g><path style="opacity:0.666" fill="#221814" d="M 253.5,100.5 C 258.829,99.9276 260.496,101.928 258.5,106.5C 269.167,107.167 269.167,107.833 258.5,108.5C 258.5,111.167 258.5,113.833 258.5,116.5C 261.833,116.5 265.167,116.5 268.5,116.5C 268.5,117.5 268.5,118.5 268.5,119.5C 260.167,119.5 251.833,119.5 243.5,119.5C 243.5,118.5 243.5,117.5 243.5,116.5C 247.167,116.5 250.833,116.5 254.5,116.5C 254.5,113.833 254.5,111.167 254.5,108.5C 251.833,108.5 249.167,108.5 246.5,108.5C 248.635,106.631 251.302,105.964 254.5,106.5C 254.483,104.435 254.15,102.435 253.5,100.5 Z"/></g>
<g><path style="opacity:0.618" fill="#221814" d="M 393.5,103.5 C 405.833,103.5 418.167,103.5 430.5,103.5C 430.5,104.5 430.5,105.5 430.5,106.5C 424.158,106.334 417.825,106.5 411.5,107C 409.5,110 407.5,113 405.5,116C 410.455,115.838 415.455,115.505 420.5,115C 418.649,113.316 416.982,111.483 415.5,109.5C 415.833,108.5 416.5,107.833 417.5,107.5C 421.318,110.818 424.985,114.318 428.5,118C 427.333,119.167 426.167,120.333 425,121.5C 423.753,119.315 421.92,117.982 419.5,117.5C 412.3,118.318 405.133,119.318 398,120.5C 395.98,119.968 395.147,118.635 395.5,116.5C 397.199,116.66 398.866,116.494 400.5,116C 402.545,113.414 404.211,110.58 405.5,107.5C 401.555,106.509 397.555,106.176 393.5,106.5C 393.5,105.5 393.5,104.5 393.5,103.5 Z"/></g>
<g><path style="opacity:0.559" fill="#221814" d="M 10.5,105.5 C 13.3614,106.237 14.3614,107.904 13.5,110.5C 11.5855,111.709 9.75216,113.042 8,114.5C 6.36512,114.122 4.86512,113.456 3.5,112.5C 4.02527,111.808 4.69194,111.308 5.5,111C 4.28882,110.107 4.28882,109.274 5.5,108.5C 8.84971,110.274 10.5164,109.274 10.5,105.5 Z"/></g>
<g><path style="opacity:0.54" fill="#221814" d="M 13.5,114.5 C 14.8278,112.255 16.6612,111.922 19,113.5C 20.3097,117.547 18.9764,120.214 15,121.5C 10.0351,119.67 9.53513,117.337 13.5,114.5 Z M 13.5,114.5 C 14.7562,114.461 15.7562,114.961 16.5,116C 15.0024,116.585 14.0024,116.085 13.5,114.5 Z"/></g>
<g><path style="opacity:0.584" fill="#221814" d="M 20.5,115.5 C 24.6919,117.23 28.8585,118.896 33,120.5C 33.5,125.333 31.3333,127.5 26.5,127C 25.6634,125.989 25.33,124.822 25.5,123.5C 27.1238,123.36 28.2904,124.027 29,125.5C 30.1048,121.93 28.7714,119.93 25,119.5C 23.9914,121.025 23.4914,122.692 23.5,124.5C 22.1667,124.5 20.8333,124.5 19.5,124.5C 19.6646,122.173 20.3313,120.007 21.5,118C 20.7476,117.329 20.4142,116.496 20.5,115.5 Z"/></g>
<g><path style="opacity:0.566" fill="#221814" d="M 51.5,116.5 C 52.6491,116.791 53.3158,117.624 53.5,119C 53.1667,119.833 52.8333,120.667 52.5,121.5C 51.0316,119.667 49.3649,119.334 47.5,120.5C 49.1133,122.088 51.1133,123.088 53.5,123.5C 56.4939,127.853 55.3273,130.52 50,131.5C 47.2829,131.046 46.4495,129.712 47.5,127.5C 49.0935,129.66 50.7601,129.827 52.5,128C 50.2688,126.853 47.9355,125.853 45.5,125C 43.7502,119.577 45.7502,116.744 51.5,116.5 Z"/></g>
<g><path style="opacity:0.598" fill="#221814" d="M 37.5,118.5 C 43.6506,119.103 44.984,121.936 41.5,127C 35.3333,128.833 33.1667,126.667 35,120.5C 35.9947,119.934 36.828,119.267 37.5,118.5 Z M 38.5,120.5 C 39.6129,121.946 39.7796,123.613 39,125.5C 38.6258,124.584 38.1258,123.75 37.5,123C 38.2524,122.329 38.5858,121.496 38.5,120.5 Z"/></g>
<g><path style="opacity:0.536" fill="#221814" d="M 18.5,125.5 C 19.5,125.5 20.5,125.5 21.5,125.5C 21.5,126.5 21.5,127.5 21.5,128.5C 20.5,128.5 19.5,128.5 18.5,128.5C 18.5,127.5 18.5,126.5 18.5,125.5 Z"/></g>
</svg>
