<svg xmlns="http://www.w3.org/2000/svg" width="148" height="130" style="shape-rendering:geometricPrecision;text-rendering:geometricPrecision;image-rendering:optimizeQuality;fill-rule:evenodd;clip-rule:evenodd"><path style="opacity:1" fill="#fcfdfe" d="M-.5-.5h148v130H-.5V-.5z"/><path style="opacity:1" fill="#1a73ba" d="M72.5 3.5c22.442-2.277 41.609 4.39 57.5 20 14.667 20.785 15.334 42.119 2 64-23.374 33.598-54.874 45.098-94.5 34.5C11.68 108.859 1.513 88.025 7 59.5 14.088 37.174 28.255 21.007 49.5 11c7.489-3.442 15.155-5.942 23-7.5z"/><path style="opacity:1" fill="#f5f7f8" d="M82.5 10.5c18.692-2.719 34.525 2.615 47.5 16 6.444 9.516 8.11 19.85 5 31-8.503 24.506-24.67 42.006-48.5 52.5-14.396 6.351-29.396 8.684-45 7C16.59 110.752 6.09 94.92 10 69.5 19.745 44.088 37.245 26.255 62.5 16c6.597-2.596 13.264-4.429 20-5.5z"/><path style="opacity:1" fill="#282627" d="M115.5 58.5c3.096-.593 5.429.407 7 3-2.052.205-4.386.205-7 0-1.159 2.618-1.159 1.618 0-3z"/><path style="opacity:1" fill="#282626" d="M24.5 51.5c2.916 3.385 6.582 5.885 11 7.5 1.711 1.133 2.211 2.633 1.5 4.5a101.974 101.974 0 0 0-14.5-8l2-4z"/><path style="opacity:1" fill="#727272" d="m119.5 53.5-2 2c-2.959-2.54-2.626-4.04 1-4.5-1.383 1.46-1.049 2.294 1 2.5z"/><path style="opacity:1" fill="#232121" d="M35.5 52.5c1.105 1.1 2.438 1.767 4 2-2.55 2.73-3.884 2.063-4-2z"/><path style="opacity:1" fill="#1a1819" d="m123.5 50.5-1 2c-.904.709-1.237 1.709-1 3h-4l2-2c.194-2.412 1.527-3.412 4-3z"/><path style="opacity:1" fill="#706f70" d="M123.5 50.5c1.773.814 2.273 2.148 1.5 4-.718.95-1.551 1.117-2.5.5 1.274-.977 1.274-1.81 0-2.5l1-2z"/><path style="opacity:1" fill="#969696" d="M35.5 52.5c0-.667.333-1 1-1 1.617.538 3.284.871 5 1l-2 2c-1.562-.233-2.895-.9-4-2z"/><path style="opacity:1" fill="#353434" d="M32.5 50.5c1.832.64 2.165 1.64 1 3-.886-.825-1.219-1.825-1-3z"/><path style="opacity:1" fill="#252324" d="M41.5 52.5a20.677 20.677 0 0 1-5-1c-.558-1.29-1.558-2.123-3-2.5.608-.87 1.441-1.37 2.5-1.5a41.455 41.455 0 0 0 6.5 4c-.124.607-.457.94-1 1z"/><path style="opacity:1" fill="#171515" d="M121.5 42.5c.838.342 1.172 1.008 1 2-.634 1.447-1.801 2.113-3.5 2-1.699.113-2.866-.553-3.5-2 2.398.24 4.398-.426 6-2z"/><path style="opacity:1" fill="#1d70b8" d="M95.5 72.5c2.919-3.498 5.085-7.498 6.5-12 1.862-9.486-1.971-15.32-11.5-17.5-4.058-.767-8.058-.6-12 .5-1.274-.86-1.108-1.526.5-2 7.677-1.677 15.177-1.177 22.5 1.5 4.711 4.14 6.211 9.306 4.5 15.5-2.294 5.595-5.794 10.261-10.5 14z"/><path style="opacity:1" fill="#2b292a" d="M42.5 39.5c6.215.67 7.548 3.67 4 9 .88 1.47 2.214 2.304 4 2.5a10.76 10.76 0 0 1-3 2.5 57.458 57.458 0 0 0-9-9c1.357-1.686 2.69-3.352 4-5z"/><path style="opacity:1" fill="#efefef" d="M42.5 41.5c3.22.521 4.22 2.188 3 5-2.578-1.142-3.578-2.81-3-5z"/><path style="opacity:1" fill="#676666" d="M120.5 38.5c2.849 1.42 3.516 3.42 2 6 .172-.992-.162-1.658-1-2 0-1.333-.667-2-2-2l1-2z"/><path style="opacity:1" fill="#242222" d="M54.5 40.5c-.787 1.604-2.12 2.27-4 2-.219-1.175.114-2.175 1-3 .917.627 1.917.96 3 1z"/><path style="opacity:1" fill="#e5e5e5" d="M119.5 40.5c1.333 0 2 .667 2 2-1.602 1.574-3.602 2.24-6 2 .333-2.333 1.667-3.667 4-4z"/><path style="opacity:1" fill="#222121" d="m120.5 38.5-1 2c-2.333.333-3.667 1.667-4 4-2.19-4.827-.523-6.827 5-6z"/><path style="opacity:1" fill="#1e1d1d" d="m55.5 37.5 2 2c-.709.904-1.709 1.237-3 1-.631-2.755-2.298-4.588-5-5.5 3.125-2.232 5.125-1.399 6 2.5z"/><path style="opacity:1" fill="#a09fa0" d="m58.5 35.5 2 2c-.79.901-1.79 1.568-3 2l-2-2c1.679.215 2.679-.452 3-2z"/><path style="opacity:1" fill="#201d1e" d="M57.5 30.5c1.278.282 2.278.949 3 2 .203 1.544.87 2.878 2 4-.457.797-1.124 1.13-2 1l-2-2c-.01-1.517-.677-2.684-2-3.5.556-.383.89-.883 1-1.5z"/><path style="opacity:1" fill="#3d3b3c" d="M112.5 30.5c3.519-.313 4.853 1.02 4 4-3.203-1.002-5.037.331-5.5 4l-3.5-3.5c2.16-.996 3.827-2.496 5-4.5z"/><path style="opacity:1" fill="#272526" d="m100.5 23.5 3 1.5c-1.55 2.095-1.883 4.262-1 6.5a35.377 35.377 0 0 0 4-6 4.451 4.451 0 0 1 2 1.5c-1.516 1.897-2.183 4.064-2 6.5a51.648 51.648 0 0 0-7-1 41.744 41.744 0 0 1 1-9z"/><path style="opacity:1" fill="#191718" d="M60.5 28.5c4.391.462 6.058 2.795 5 7a19.228 19.228 0 0 1-3-5l-2-2z"/><path style="opacity:1" fill="#7e7c7d" d="m60.5 28.5 2 2c-1.333 0-2 .667-2 2-.722-1.051-1.722-1.718-3-2 .79-.901 1.79-1.568 3-2z"/><path style="opacity:1" fill="#1e1d1e" d="M96.5 25.5a13.213 13.213 0 0 0-5-2v3c.257 2.276 1.59 3.443 4 3.5-5.58 1.261-7.413-.906-5.5-6.5 1.726-1.076 3.56-1.243 5.5-.5.752.67 1.086 1.504 1 2.5z"/><path style="opacity:1" fill="#696869" d="M72.5 20.5c1.21.432 2.21 1.099 3 2-1.155 2.974-.822 5.974 1 9-.825.886-1.825 1.219-3 1a54.935 54.935 0 0 0-1-12z"/><path style="opacity:1" fill="#888787" d="M96.5 25.5c-1.419.951-3.085 1.285-5 1v-3c1.822.33 3.49.997 5 2z"/><path style="opacity:1" fill="#646363" d="M85.5 27.5c-1.21-.432-2.21-1.099-3-2 1.266-2.194 1.266-4.528 0-7 .535-1.601 1.535-2.101 3-1.5-.766 3.418-.766 6.918 0 10.5z"/><path style="opacity:1" fill="#232122" d="M82.5 25.5c.79.901 1.79 1.568 3 2a4.932 4.932 0 0 1-.5 3 113.562 113.562 0 0 1-9.5-8c-.79-.901-1.79-1.568-3-2-.79-.283-1.456-.783-2-1.5 1.667-.667 3.333-.667 5 0 2.407 2.183 4.74 4.35 7 6.5z"/><path style="opacity:1" fill="#373636" d="M34.5 64.5c3.048-.006 3.548.994 1.5 3-1.039-.744-1.539-1.744-1.5-3z"/><path style="opacity:1" fill="#292828" d="M121.5 63.5c1.237 1.243.904 2.243-1 3l-1-1a30.968 30.968 0 0 0 2-2z"/><path style="opacity:1" fill="#2e2c2d" d="M112.5 65.5c1.827 2.061 4.16 3.394 7 4l-1.5 3a25.706 25.706 0 0 0-7.5-3.5 18.476 18.476 0 0 0 2-3.5z"/><path style="opacity:1" fill="#373536" d="M113.5 78.5c0-1.333-.667-2-2-2-1.732-2.612-3.232-2.279-4.5 1-.333-6 2-7.333 7-4 .78 1.887.613 3.554-.5 5z"/><path style="opacity:1" fill="#100e0f" d="M120.5 71.5c1.837.14 2.17.806 1 2-.798-.457-1.131-1.124-1-2z"/><path style="opacity:1" fill="#1c72b9" d="M90.5 75.5c-3.163 1.463-6.163 1.13-9-1-1.007 2.69-2.007 5.356-3 8a82.278 82.278 0 0 0 11-5c-5.6 3.81-11.268 7.644-17 11.5-7.703 1.592-15.37 1.258-23-1-7.66-3.841-10.16-10.008-7.5-18.5a57.65 57.65 0 0 1 8-12c3.833-2.5 7-5.667 9.5-9.5 7.526-.922 13.192-4.588 17-11a8.434 8.434 0 0 1 4-.5v3h-4a32.437 32.437 0 0 0 .5 8 48.984 48.984 0 0 1 4 13c3.737-3.14 5.57-7.14 5.5-12h-3v-3c1.89-.203 3.39.463 4.5 2 .497 2.31.663 4.643.5 7 4.06-.652 6.06 1.015 6 5h-3c-.065-3.498-1.399-3.998-4-1.5a40.468 40.468 0 0 0-6 9c2.294 3.773 5.294 6.606 9 8.5z"/><path style="opacity:1" fill="#f5f8fa" d="M60.5 83.5c-1.28 1.468-2.946 2.135-5 2-8.973-3.28-12.14-9.613-9.5-19 4.134-8.445 10.634-13.612 19.5-15.5 5.955 3.41 8.622 8.576 8 15.5a69.534 69.534 0 0 0-16-3.5 3.646 3.646 0 0 1-1-1.5c1.353-1.024 2.02-2.357 2-4-3.974.575-4.974 2.742-3 6.5a35.995 35.995 0 0 0-8.5 5.5c-1.238 3.426-.071 5.092 3.5 5-.863-3.662.47-5.828 4-6.5 6.178-.995 11.678.505 16.5 4.5.667 1.333.667 2.667 0 4a167.726 167.726 0 0 0-10.5 7z"/><path style="opacity:1" fill="#eef4f8" d="M69.5 45.5h3c.285 1.788-.048 3.455-1 5a23.668 23.668 0 0 0-6-2.5c1.566-.608 2.9-1.441 4-2.5z"/><path style="opacity:1" fill="#2f77b9" d="m89.5 77.5 1-2a11.741 11.741 0 0 0 5-3c.321 1.548 1.321 2.215 3 2 .074-4.041 1.407-4.708 4-2-3.313 4.15-7.646 5.817-13 5z"/><path style="opacity:1" fill="#5e5d5e" d="M28.5 76.5c0 1.333-.667 2-2 2 .11-.617.444-1.117 1-1.5-1.634-.493-3.3-.66-5-.5a4.932 4.932 0 0 1 .5-3 87.289 87.289 0 0 0 5.5 3z"/><path style="opacity:1" fill="#e2edf4" d="m90.5 75.5-1 2a82.278 82.278 0 0 1-11 5c.993-2.644 1.993-5.31 3-8 2.837 2.13 5.837 2.463 9 1z"/><path style="opacity:1" fill="#cfd0cf" d="M111.5 76.5c1.333 0 2 .667 2 2-1.333 0-2-.667-2-2z"/><path style="opacity:1" fill="#2b2a2a" d="M111.5 76.5c0 1.333.667 2 2 2-1.294 2.64-2.627 2.64-4 0 .355-1.022 1.022-1.689 2-2z"/><path style="opacity:1" fill="#2b292a" d="M28.5 76.5c3.335.153 6.002 1.486 8 4l-1 1c-3.872-3.776-7.705-3.443-11.5 1a8.434 8.434 0 0 1-.5-4h3c1.333 0 2-.667 2-2z"/><path style="opacity:1" fill="#211f20" d="M103.5 77.5a840.12 840.12 0 0 0 5 6c-1.371 2.205-3.204 3.872-5.5 5L97.5 83a4.452 4.452 0 0 1 2-1.5c1.258 3 3.258 4 6 3a13.013 13.013 0 0 0-4-4.5c.881-.708 1.547-1.542 2-2.5z"/><path style="opacity:1" fill="#99bedb" d="M78.5 82.5c-2.496 2.214-5.496 3.38-9 3.5-4.852.815-9.519.648-14-.5 2.054.135 3.72-.532 5-2 .12 1.086.787 1.753 2 2l16-3z"/><path style="opacity:1" fill="#292828" d="M92.5 85.5c4.994-.171 6.828 2.162 5.5 7-1.24 1.92-2.74 2.254-4.5 1 .825-.886 1.825-1.219 3-1 .204-1.89-.463-3.39-2-4.5l-5 1a14.692 14.692 0 0 0 3-3.5z"/><path style="opacity:1" fill="#262425" d="M31.5 82.5c2.624 1.698 2.624 3.531 0 5.5-2.1 2.57-4.433 2.904-7 1 1.333-1 1.333-2 0-3 1.626.195 3.293.195 5 0 1.473-.71 2.14-1.876 2-3.5z"/><path style="opacity:1" fill="#191818" d="M36.5 97.5a2.428 2.428 0 0 1-2-.5 81.718 81.718 0 0 0 3-2.5c.363-2.412-.637-3.912-3-4.5 3.987-.339 5.487 1.494 4.5 5.5-.708.88-1.542 1.547-2.5 2z"/><path style="opacity:1" fill="#605f60" d="M70.5 95.5c1.765-.961 3.765-1.295 6-1a4.932 4.932 0 0 1-.5 3c-1.356-.88-2.856-1.213-4.5-1 0-.667-.333-1-1-1z"/><path style="opacity:1" fill="#616061" d="M37.5 94.5c-.93.815-1.93 1.648-3 2.5a2.428 2.428 0 0 0 2 .5c-2.72 1.342-4.386.342-5-3l1-2a16.066 16.066 0 0 0 5 2z"/><path style="opacity:1" fill="#4f4e4f" d="M85.5 89.5c4.883.966 6.217 3.799 4 8.5-5.515.474-6.182-1.026-2-4.5-1.838-.689-3.505-1.022-5-1 .84-1.235 1.84-2.235 3-3z"/><path style="opacity:1" fill="#2b2929" d="M42.5 93.5c1.495-.085 2.495.582 3 2-.523 2.433-1.69 4.433-3.5 6l-1.5-1c1.446-2.118 2.113-4.451 2-7z"/><path style="opacity:1" fill="#2e2b2c" d="M48.5 95.5c6.143.526 7.476 3.36 4 8.5-1.333.667-2.667.667-4 0-.95-.718-1.117-1.551-.5-2.5a7.253 7.253 0 0 0 2.5 2 9.864 9.864 0 0 0 1-6 8.434 8.434 0 0 1-4-.5c.556-.383.89-.883 1-1.5z"/><path style="opacity:1" fill="#222121" d="M59.5 96.5c5.484-.02 7.15 2.48 5 7.5-.667.667-1.333.667-2 0 1.528-2.518 1.194-4.685-1-6.5-2.194 1.815-2.528 3.982-1 6.5-2.97.022-4.136-1.478-3.5-4.5a10.521 10.521 0 0 0 2.5-3z"/><path style="opacity:1" fill="#222021" d="M70.5 95.5c.667 0 1 .333 1 1-1.291 1.042-1.291 2.208 0 3.5 5.71-.057 7.71 2.443 6 7.5h-1c.17-1.322-.163-2.489-1-3.5-6.825-.264-8.492-3.098-5-8.5z"/><path style="opacity:1" fill="#1c1b1b" d="M39.5 103.5c1.837.139 2.17.806 1 2-.797-.457-1.13-1.124-1-2z"/><path style="opacity:1" fill="#666565" d="M76.5 107.5h1c-1.878 2.009-4.044 2.342-6.5 1-.688-.832-.521-1.498.5-2a9.107 9.107 0 0 0 5 1z"/></svg>