<?xml version="1.0" encoding="UTF-8"?>
<!DOCTYPE svg PUBLIC "-//W3C//DTD SVG 1.1//EN" "http://www.w3.org/Graphics/SVG/1.1/DTD/svg11.dtd">
<svg xmlns="http://www.w3.org/2000/svg" version="1.1" width="148px" height="130px" style="shape-rendering:geometricPrecision; text-rendering:geometricPrecision; image-rendering:optimizeQuality; fill-rule:evenodd; clip-rule:evenodd" xmlns:xlink="http://www.w3.org/1999/xlink">
<g><path style="opacity:1" fill="#fcfdfe" d="M -0.5,-0.5 C 48.8333,-0.5 98.1667,-0.5 147.5,-0.5C 147.5,42.8333 147.5,86.1667 147.5,129.5C 98.1667,129.5 48.8333,129.5 -0.5,129.5C -0.5,86.1667 -0.5,42.8333 -0.5,-0.5 Z"/></g>
<g><path style="opacity:1" fill="#1a73ba" d="M 72.5,3.5 C 94.9425,1.22255 114.109,7.88921 130,23.5C 144.667,44.2855 145.334,65.6188 132,87.5C 108.626,121.098 77.1258,132.598 37.5,122C 11.6798,108.859 1.51313,88.0255 7,59.5C 14.0882,37.1738 28.2548,21.0072 49.5,11C 56.9885,7.55848 64.6552,5.05848 72.5,3.5 Z"/></g>
<g><path style="opacity:1" fill="#f5f7f8" d="M 82.5,10.5 C 101.192,7.78145 117.025,13.1148 130,26.5C 136.444,36.0164 138.11,46.3497 135,57.5C 126.497,82.0058 110.33,99.5058 86.5,110C 72.1037,116.351 57.1037,118.684 41.5,117C 16.5907,110.752 6.09073,94.9191 10,69.5C 19.7447,44.0884 37.2447,26.255 62.5,16C 69.0972,13.4044 75.7638,11.5711 82.5,10.5 Z"/></g>
<g><path style="opacity:1" fill="#282627" d="M 115.5,58.5 C 118.596,57.9066 120.929,58.9066 122.5,61.5C 120.448,61.7053 118.114,61.7053 115.5,61.5C 114.341,64.1185 114.341,63.1185 115.5,58.5 Z"/></g>
<g><path style="opacity:1" fill="#282626" d="M 24.5,51.5 C 27.4157,54.885 31.0824,57.385 35.5,59C 37.2112,60.1332 37.7112,61.6332 37,63.5C 32.3987,60.4486 27.5654,57.7819 22.5,55.5C 23.1799,54.1401 23.8466,52.8068 24.5,51.5 Z"/></g>
<g><path style="opacity:1" fill="#727272" d="M 119.5,53.5 C 118.833,54.1667 118.167,54.8333 117.5,55.5C 114.541,52.9594 114.874,51.4594 118.5,51C 117.117,52.4609 117.451,53.2942 119.5,53.5 Z"/></g>
<g><path style="opacity:1" fill="#232121" d="M 35.5,52.5 C 36.6049,53.6005 37.9382,54.2671 39.5,54.5C 36.9493,57.2301 35.616,56.5634 35.5,52.5 Z"/></g>
<g><path style="opacity:1" fill="#1a1819" d="M 123.5,50.5 C 123.167,51.1667 122.833,51.8333 122.5,52.5C 121.596,53.209 121.263,54.209 121.5,55.5C 120.167,55.5 118.833,55.5 117.5,55.5C 118.167,54.8333 118.833,54.1667 119.5,53.5C 119.694,51.0882 121.027,50.0882 123.5,50.5 Z"/></g>
<g><path style="opacity:1" fill="#706f70" d="M 123.5,50.5 C 125.273,51.3143 125.773,52.6476 125,54.5C 124.282,55.4506 123.449,55.6172 122.5,55C 123.774,54.0228 123.774,53.1894 122.5,52.5C 122.833,51.8333 123.167,51.1667 123.5,50.5 Z"/></g>
<g><path style="opacity:1" fill="#969696" d="M 35.5,52.5 C 35.5,51.8333 35.8333,51.5 36.5,51.5C 38.1172,52.038 39.7839,52.3713 41.5,52.5C 40.8333,53.1667 40.1667,53.8333 39.5,54.5C 37.9382,54.2671 36.6049,53.6005 35.5,52.5 Z"/></g>
<g><path style="opacity:1" fill="#353434" d="M 32.5,50.5 C 34.332,51.1405 34.6653,52.1405 33.5,53.5C 32.6143,52.675 32.281,51.675 32.5,50.5 Z"/></g>
<g><path style="opacity:1" fill="#252324" d="M 41.5,52.5 C 39.7839,52.3713 38.1172,52.038 36.5,51.5C 35.9423,50.2101 34.9423,49.3768 33.5,49C 34.1079,48.1301 34.9412,47.6301 36,47.5C 38.0301,49.0248 40.1967,50.3582 42.5,51.5C 42.3764,52.1067 42.0431,52.44 41.5,52.5 Z"/></g>
<g><path style="opacity:1" fill="#171515" d="M 121.5,42.5 C 122.338,42.8417 122.672,43.5084 122.5,44.5C 121.866,45.9468 120.699,46.6134 119,46.5C 117.301,46.6134 116.134,45.9468 115.5,44.5C 117.898,44.7406 119.898,44.0739 121.5,42.5 Z"/></g>
<g><path style="opacity:1" fill="#1d70b8" d="M 95.5,72.5 C 98.4187,69.0021 100.585,65.0021 102,60.5C 103.862,51.0142 100.029,45.1809 90.5,43C 86.4425,42.2334 82.4425,42.4001 78.5,43.5C 77.2258,42.6406 77.3925,41.9739 79,41.5C 86.6765,39.8234 94.1765,40.3234 101.5,43C 106.211,47.1396 107.711,52.3062 106,58.5C 103.706,64.0946 100.206,68.7613 95.5,72.5 Z"/></g>
<g><path style="opacity:1" fill="#2b292a" d="M 42.5,39.5 C 48.715,40.1701 50.0484,43.1701 46.5,48.5C 47.3805,49.9705 48.7139,50.8038 50.5,51C 49.646,52.0217 48.646,52.8551 47.5,53.5C 44.8333,50.1667 41.8333,47.1667 38.5,44.5C 39.8569,42.8144 41.1902,41.1477 42.5,39.5 Z"/></g>
<g><path style="opacity:1" fill="#efefef" d="M 42.5,41.5 C 45.7195,42.0211 46.7195,43.6878 45.5,46.5C 42.922,45.3576 41.922,43.6909 42.5,41.5 Z"/></g>
<g><path style="opacity:1" fill="#676666" d="M 120.5,38.5 C 123.349,39.9196 124.016,41.9196 122.5,44.5C 122.672,43.5084 122.338,42.8417 121.5,42.5C 121.5,41.1667 120.833,40.5 119.5,40.5C 119.833,39.8333 120.167,39.1667 120.5,38.5 Z"/></g>
<g><path style="opacity:1" fill="#242222" d="M 54.5,40.5 C 53.713,42.1042 52.3797,42.7709 50.5,42.5C 50.281,41.325 50.6143,40.325 51.5,39.5C 52.4168,40.1272 53.4168,40.4606 54.5,40.5 Z"/></g>
<g><path style="opacity:1" fill="#e5e5e5" d="M 119.5,40.5 C 120.833,40.5 121.5,41.1667 121.5,42.5C 119.898,44.0739 117.898,44.7406 115.5,44.5C 115.833,42.1667 117.167,40.8333 119.5,40.5 Z"/></g>
<g><path style="opacity:1" fill="#222121" d="M 120.5,38.5 C 120.167,39.1667 119.833,39.8333 119.5,40.5C 117.167,40.8333 115.833,42.1667 115.5,44.5C 113.31,39.6728 114.977,37.6728 120.5,38.5 Z"/></g>
<g><path style="opacity:1" fill="#1e1d1d" d="M 55.5,37.5 C 56.1667,38.1667 56.8333,38.8333 57.5,39.5C 56.791,40.404 55.791,40.7373 54.5,40.5C 53.8689,37.7455 52.2022,35.9122 49.5,35C 52.6248,32.7681 54.6248,33.6014 55.5,37.5 Z"/></g>
<g><path style="opacity:1" fill="#a09fa0" d="M 58.5,35.5 C 59.1667,36.1667 59.8333,36.8333 60.5,37.5C 59.7095,38.4013 58.7095,39.0679 57.5,39.5C 56.8333,38.8333 56.1667,38.1667 55.5,37.5C 57.1788,37.7148 58.1788,37.0481 58.5,35.5 Z"/></g>
<g><path style="opacity:1" fill="#201d1e" d="M 57.5,30.5 C 58.7777,30.7822 59.7777,31.4489 60.5,32.5C 60.7031,34.0443 61.3698,35.3777 62.5,36.5C 62.0431,37.2975 61.3764,37.6309 60.5,37.5C 59.8333,36.8333 59.1667,36.1667 58.5,35.5C 58.4894,33.9826 57.8228,32.8159 56.5,32C 57.056,31.6174 57.3893,31.1174 57.5,30.5 Z"/></g>
<g><path style="opacity:1" fill="#3d3b3c" d="M 112.5,30.5 C 116.019,30.1868 117.353,31.5201 116.5,34.5C 113.297,33.4982 111.463,34.8315 111,38.5C 109.833,37.3333 108.667,36.1667 107.5,35C 109.66,34.0041 111.327,32.5041 112.5,30.5 Z"/></g>
<g><path style="opacity:1" fill="#272526" d="M 100.5,23.5 C 101.473,23.9867 102.473,24.4867 103.5,25C 101.95,27.095 101.617,29.2617 102.5,31.5C 104.01,29.678 105.343,27.678 106.5,25.5C 107.308,25.8076 107.975,26.3076 108.5,27C 106.984,28.897 106.317,31.0637 106.5,33.5C 104.194,33.0074 101.861,32.6741 99.5,32.5C 99.5079,29.4552 99.8413,26.4552 100.5,23.5 Z"/></g>
<g><path style="opacity:1" fill="#191718" d="M 60.5,28.5 C 64.8914,28.962 66.5581,31.2953 65.5,35.5C 64.2371,33.9713 63.2371,32.3046 62.5,30.5C 61.8333,29.8333 61.1667,29.1667 60.5,28.5 Z"/></g>
<g><path style="opacity:1" fill="#7e7c7d" d="M 60.5,28.5 C 61.1667,29.1667 61.8333,29.8333 62.5,30.5C 61.1667,30.5 60.5,31.1667 60.5,32.5C 59.7777,31.4489 58.7777,30.7822 57.5,30.5C 58.2905,29.5987 59.2905,28.9321 60.5,28.5 Z"/></g>
<g><path style="opacity:1" fill="#1e1d1e" d="M 96.5,25.5 C 94.9891,24.4975 93.3224,23.8308 91.5,23.5C 91.5,24.5 91.5,25.5 91.5,26.5C 91.7565,28.7761 93.0898,29.9428 95.5,30C 89.9202,31.261 88.0868,29.0943 90,23.5C 91.7261,22.4238 93.5594,22.2571 95.5,23C 96.2524,23.6708 96.5858,24.5041 96.5,25.5 Z"/></g>
<g><path style="opacity:1" fill="#696869" d="M 72.5,20.5 C 73.7095,20.9321 74.7095,21.5987 75.5,22.5C 74.3452,25.4737 74.6785,28.4737 76.5,31.5C 75.675,32.3857 74.675,32.719 73.5,32.5C 73.6054,28.4517 73.2721,24.4517 72.5,20.5 Z"/></g>
<g><path style="opacity:1" fill="#888787" d="M 96.5,25.5 C 95.0813,26.4511 93.4147,26.7845 91.5,26.5C 91.5,25.5 91.5,24.5 91.5,23.5C 93.3224,23.8308 94.9891,24.4975 96.5,25.5 Z"/></g>
<g><path style="opacity:1" fill="#646363" d="M 85.5,27.5 C 84.2905,27.0679 83.2905,26.4013 82.5,25.5C 83.7665,23.3057 83.7665,20.9724 82.5,18.5C 83.0347,16.8987 84.0347,16.3987 85.5,17C 84.7343,20.4184 84.7343,23.9184 85.5,27.5 Z"/></g>
<g><path style="opacity:1" fill="#232122" d="M 82.5,25.5 C 83.2905,26.4013 84.2905,27.0679 85.5,27.5C 85.6495,28.552 85.4828,29.552 85,30.5C 81.6425,27.9688 78.4758,25.3021 75.5,22.5C 74.7095,21.5987 73.7095,20.9321 72.5,20.5C 71.7109,20.2172 71.0442,19.7172 70.5,19C 72.1667,18.3333 73.8333,18.3333 75.5,19C 77.9071,21.1831 80.2404,23.3497 82.5,25.5 Z"/></g>
<g><path style="opacity:1" fill="#373636" d="M 34.5,64.5 C 37.5476,64.494 38.0476,65.494 36,67.5C 34.9614,66.7562 34.4614,65.7562 34.5,64.5 Z"/></g>
<g><path style="opacity:1" fill="#292828" d="M 121.5,63.5 C 122.737,64.7434 122.404,65.7434 120.5,66.5C 120.167,66.1667 119.833,65.8333 119.5,65.5C 120.243,64.8182 120.909,64.1515 121.5,63.5 Z"/></g>
<g><path style="opacity:1" fill="#2e2c2d" d="M 112.5,65.5 C 114.327,67.5611 116.66,68.8944 119.5,69.5C 119,70.5 118.5,71.5 118,72.5C 115.696,70.9315 113.196,69.7648 110.5,69C 111.305,67.8873 111.972,66.7206 112.5,65.5 Z"/></g>
<g><path style="opacity:1" fill="#373536" d="M 113.5,78.5 C 113.5,77.1667 112.833,76.5 111.5,76.5C 109.768,73.8879 108.268,74.2213 107,77.5C 106.667,71.5 109,70.1667 114,73.5C 114.78,75.3869 114.613,77.0536 113.5,78.5 Z"/></g>
<g><path style="opacity:1" fill="#100e0f" d="M 120.5,71.5 C 122.337,71.6395 122.67,72.3061 121.5,73.5C 120.702,73.0431 120.369,72.3764 120.5,71.5 Z"/></g>
<g><path style="opacity:1" fill="#1c72b9" d="M 90.5,75.5 C 87.3367,76.9635 84.3367,76.6301 81.5,74.5C 80.4933,77.1897 79.4933,79.8563 78.5,82.5C 82.3163,81.0906 85.9829,79.424 89.5,77.5C 83.8991,81.3103 78.2324,85.1436 72.5,89C 64.7966,90.5916 57.1299,90.2583 49.5,88C 41.84,84.1586 39.34,77.992 42,69.5C 44.1705,65.1559 46.8372,61.1559 50,57.5C 53.8333,55 57,51.8333 59.5,48C 67.0256,47.0783 72.6923,43.4116 76.5,37C 77.7932,36.51 79.1266,36.3433 80.5,36.5C 80.5,37.5 80.5,38.5 80.5,39.5C 79.1667,39.5 77.8333,39.5 76.5,39.5C 76.3359,42.1873 76.5026,44.854 77,47.5C 78.9374,51.6457 80.2707,55.979 81,60.5C 84.7366,57.3608 86.57,53.3608 86.5,48.5C 85.5,48.5 84.5,48.5 83.5,48.5C 83.5,47.5 83.5,46.5 83.5,45.5C 85.3904,45.2965 86.8904,45.9632 88,47.5C 88.4966,49.8098 88.6633,52.1432 88.5,54.5C 92.5601,53.8482 94.5601,55.5149 94.5,59.5C 93.5,59.5 92.5,59.5 91.5,59.5C 91.4347,56.0017 90.1014,55.5017 87.5,58C 85.0926,60.7385 83.0926,63.7385 81.5,67C 83.794,70.773 86.794,73.6063 90.5,75.5 Z"/></g>
<g><path style="opacity:1" fill="#f5f8fa" d="M 60.5,83.5 C 59.2209,84.968 57.5542,85.6347 55.5,85.5C 46.5267,82.2206 43.36,75.8873 46,66.5C 50.134,58.0547 56.634,52.888 65.5,51C 71.4553,54.4092 74.122,59.5759 73.5,66.5C 68.3352,64.7097 63.0019,63.5431 57.5,63C 57.0426,62.586 56.7093,62.086 56.5,61.5C 57.8532,60.4763 58.5198,59.143 58.5,57.5C 54.5265,58.0755 53.5265,60.2421 55.5,64C 52.3974,65.4394 49.5641,67.2728 47,69.5C 45.7619,72.9257 46.9286,74.5923 50.5,74.5C 49.6371,70.8384 50.9704,68.6718 54.5,68C 60.6782,67.0054 66.1782,68.5054 71,72.5C 71.6667,73.8333 71.6667,75.1667 71,76.5C 67.3854,78.7195 63.8854,81.0528 60.5,83.5 Z"/></g>
<g><path style="opacity:1" fill="#eef4f8" d="M 69.5,45.5 C 70.5,45.5 71.5,45.5 72.5,45.5C 72.7852,47.288 72.4519,48.9547 71.5,50.5C 69.6147,49.3906 67.6147,48.5573 65.5,48C 67.0664,47.3918 68.3998,46.5585 69.5,45.5 Z"/></g>
<g><path style="opacity:1" fill="#2f77b9" d="M 89.5,77.5 C 89.8333,76.8333 90.1667,76.1667 90.5,75.5C 92.4113,74.925 94.078,73.925 95.5,72.5C 95.8212,74.0481 96.8212,74.7148 98.5,74.5C 98.5739,70.4588 99.9072,69.7921 102.5,72.5C 99.1875,76.6507 94.8542,78.3173 89.5,77.5 Z"/></g>
<g><path style="opacity:1" fill="#5e5d5e" d="M 28.5,76.5 C 28.5,77.8333 27.8333,78.5 26.5,78.5C 26.6107,77.8826 26.944,77.3826 27.5,77C 25.8659,76.5065 24.1992,76.3398 22.5,76.5C 22.3505,75.448 22.5172,74.448 23,73.5C 24.8761,74.6087 26.7095,75.6087 28.5,76.5 Z"/></g>
<g><path style="opacity:1" fill="#e2edf4" d="M 90.5,75.5 C 90.1667,76.1667 89.8333,76.8333 89.5,77.5C 85.9829,79.424 82.3163,81.0906 78.5,82.5C 79.4933,79.8563 80.4933,77.1897 81.5,74.5C 84.3367,76.6301 87.3367,76.9635 90.5,75.5 Z"/></g>
<g><path style="opacity:1" fill="#cfd0cf" d="M 111.5,76.5 C 112.833,76.5 113.5,77.1667 113.5,78.5C 112.167,78.5 111.5,77.8333 111.5,76.5 Z"/></g>
<g><path style="opacity:1" fill="#2b2a2a" d="M 111.5,76.5 C 111.5,77.8333 112.167,78.5 113.5,78.5C 112.206,81.1402 110.873,81.1402 109.5,78.5C 109.855,77.4777 110.522,76.811 111.5,76.5 Z"/></g>
<g><path style="opacity:1" fill="#2b292a" d="M 28.5,76.5 C 31.8352,76.6528 34.5019,77.9861 36.5,80.5C 36.1667,80.8333 35.8333,81.1667 35.5,81.5C 31.6285,77.7237 27.7952,78.057 24,82.5C 23.51,81.2068 23.3433,79.8734 23.5,78.5C 24.5,78.5 25.5,78.5 26.5,78.5C 27.8333,78.5 28.5,77.8333 28.5,76.5 Z"/></g>
<g><path style="opacity:1" fill="#211f20" d="M 103.5,77.5 C 105.114,79.4559 106.781,81.4559 108.5,83.5C 107.129,85.7054 105.296,87.372 103,88.5C 101.188,86.6884 99.3551,84.8551 97.5,83C 98.0253,82.3076 98.6919,81.8076 99.5,81.5C 100.758,84.4995 102.758,85.4995 105.5,84.5C 104.509,82.6769 103.176,81.1769 101.5,80C 102.381,79.2917 103.047,78.4584 103.5,77.5 Z"/></g>
<g><path style="opacity:1" fill="#99bedb" d="M 78.5,82.5 C 76.0045,84.7143 73.0045,85.8809 69.5,86C 64.6478,86.8151 59.9811,86.6484 55.5,85.5C 57.5542,85.6347 59.2209,84.968 60.5,83.5C 60.62,84.5862 61.2867,85.2528 62.5,85.5C 67.845,84.4975 73.1784,83.4975 78.5,82.5 Z"/></g>
<g><path style="opacity:1" fill="#292828" d="M 92.5,85.5 C 97.4943,85.329 99.3276,87.6624 98,92.5C 96.7592,94.4206 95.2592,94.754 93.5,93.5C 94.325,92.6143 95.325,92.281 96.5,92.5C 96.7035,90.6096 96.0368,89.1096 94.5,88C 92.8333,88.3333 91.1667,88.6667 89.5,89C 90.7101,87.9609 91.7101,86.7942 92.5,85.5 Z"/></g>
<g><path style="opacity:1" fill="#262425" d="M 31.5,82.5 C 34.1239,84.1978 34.1239,86.0312 31.5,88C 29.4008,90.5705 27.0675,90.9038 24.5,89C 25.8333,88 25.8333,87 24.5,86C 26.1261,86.1953 27.7928,86.1953 29.5,86C 30.9733,85.2904 31.6399,84.1238 31.5,82.5 Z"/></g>
<g><path style="opacity:1" fill="#191818" d="M 36.5,97.5 C 35.7611,97.631 35.0944,97.4643 34.5,97C 35.5707,96.1482 36.5707,95.3149 37.5,94.5C 37.8633,92.0885 36.8633,90.5885 34.5,90C 38.4874,89.661 39.9874,91.4943 39,95.5C 38.2917,96.3805 37.4584,97.0472 36.5,97.5 Z"/></g>
<g><path style="opacity:1" fill="#605f60" d="M 70.5,95.5 C 72.2646,94.5386 74.2646,94.2053 76.5,94.5C 76.6495,95.552 76.4828,96.552 76,97.5C 74.6439,96.6198 73.1439,96.2865 71.5,96.5C 71.5,95.8333 71.1667,95.5 70.5,95.5 Z"/></g>
<g><path style="opacity:1" fill="#616061" d="M 37.5,94.5 C 36.5707,95.3149 35.5707,96.1482 34.5,97C 35.0944,97.4643 35.7611,97.631 36.5,97.5C 33.7805,98.842 32.1138,97.842 31.5,94.5C 31.8333,93.8333 32.1667,93.1667 32.5,92.5C 34.0754,93.4565 35.742,94.1231 37.5,94.5 Z"/></g>
<g><path style="opacity:1" fill="#4f4e4f" d="M 85.5,89.5 C 90.3833,90.4655 91.7166,93.2988 89.5,98C 83.985,98.4736 83.3184,96.9736 87.5,93.5C 85.6619,92.8113 83.9952,92.4779 82.5,92.5C 83.3398,91.265 84.3398,90.265 85.5,89.5 Z"/></g>
<g><path style="opacity:1" fill="#2b2929" d="M 42.5,93.5 C 43.9953,93.4148 44.9953,94.0815 45.5,95.5C 44.977,97.9329 43.8104,99.9329 42,101.5C 41.5,101.167 41,100.833 40.5,100.5C 41.9459,98.3821 42.6126,96.0488 42.5,93.5 Z"/></g>
<g><path style="opacity:1" fill="#2e2b2c" d="M 48.5,95.5 C 54.6426,96.0262 55.9759,98.8595 52.5,104C 51.1667,104.667 49.8333,104.667 48.5,104C 47.5494,103.282 47.3828,102.449 48,101.5C 48.6891,102.357 49.5224,103.023 50.5,103.5C 51.4656,101.604 51.7989,99.604 51.5,97.5C 50.1266,97.6567 48.7932,97.49 47.5,97C 48.056,96.6174 48.3893,96.1174 48.5,95.5 Z"/></g>
<g><path style="opacity:1" fill="#222121" d="M 59.5,96.5 C 64.9836,96.4809 66.6503,98.9809 64.5,104C 63.8333,104.667 63.1667,104.667 62.5,104C 64.0278,101.482 63.6945,99.3153 61.5,97.5C 59.3055,99.3153 58.9722,101.482 60.5,104C 57.5303,104.022 56.3637,102.522 57,99.5C 58.045,98.6266 58.8783,97.6266 59.5,96.5 Z"/></g>
<g><path style="opacity:1" fill="#222021" d="M 70.5,95.5 C 71.1667,95.5 71.5,95.8333 71.5,96.5C 70.2089,97.5417 70.2089,98.7083 71.5,100C 77.2096,99.943 79.2096,102.443 77.5,107.5C 77.1667,107.5 76.8333,107.5 76.5,107.5C 76.67,106.178 76.3366,105.011 75.5,104C 68.6749,103.736 67.0083,100.902 70.5,95.5 Z"/></g>
<g><path style="opacity:1" fill="#1c1b1b" d="M 39.5,103.5 C 41.337,103.639 41.6704,104.306 40.5,105.5C 39.7025,105.043 39.3691,104.376 39.5,103.5 Z"/></g>
<g><path style="opacity:1" fill="#666565" d="M 76.5,107.5 C 76.8333,107.5 77.1667,107.5 77.5,107.5C 75.6222,109.509 73.4556,109.842 71,108.5C 70.3123,107.668 70.479,107.002 71.5,106.5C 73.0709,107.309 74.7376,107.643 76.5,107.5 Z"/></g>
</svg>
