<?xml version="1.0" encoding="UTF-8"?>
<!DOCTYPE svg PUBLIC "-//W3C//DTD SVG 1.1//EN" "http://www.w3.org/Graphics/SVG/1.1/DTD/svg11.dtd">
<svg xmlns="http://www.w3.org/2000/svg" version="1.1" width="279px" height="160px" style="shape-rendering:geometricPrecision; text-rendering:geometricPrecision; image-rendering:optimizeQuality; fill-rule:evenodd; clip-rule:evenodd" xmlns:xlink="http://www.w3.org/1999/xlink">
<g><path style="opacity:1" fill="#fefefe" d="M -0.5,-0.5 C 92.5,-0.5 185.5,-0.5 278.5,-0.5C 278.5,52.8333 278.5,106.167 278.5,159.5C 185.5,159.5 92.5,159.5 -0.5,159.5C -0.5,106.167 -0.5,52.8333 -0.5,-0.5 Z"/></g>
<g><path style="opacity:1" fill="#1a73ba" d="M 140.5,17.5 C 162.942,15.2225 182.109,21.8892 198,37.5C 212.667,58.2855 213.334,79.6188 200,101.5C 176.626,135.098 145.126,146.598 105.5,136C 79.6798,122.859 69.5131,102.025 75,73.5C 82.0882,51.1738 96.2548,35.0072 117.5,25C 124.989,21.5585 132.655,19.0585 140.5,17.5 Z"/></g>
<g><path style="opacity:1" fill="#f5f7f8" d="M 150.5,24.5 C 169.192,21.7814 185.025,27.1148 198,40.5C 204.444,50.0164 206.11,60.3497 203,71.5C 194.497,96.0058 178.33,113.506 154.5,124C 140.104,130.351 125.104,132.684 109.5,131C 84.5907,124.752 74.0907,108.919 78,83.5C 87.7447,58.0884 105.245,40.255 130.5,30C 137.097,27.4044 143.764,25.5711 150.5,24.5 Z"/></g>
<g><path style="opacity:1" fill="#282627" d="M 183.5,72.5 C 186.596,71.9066 188.929,72.9066 190.5,75.5C 188.448,75.7053 186.114,75.7053 183.5,75.5C 182.341,78.1185 182.341,77.1185 183.5,72.5 Z"/></g>
<g><path style="opacity:1" fill="#282626" d="M 92.5,65.5 C 95.4157,68.885 99.0824,71.385 103.5,73C 105.211,74.1332 105.711,75.6332 105,77.5C 100.399,74.4486 95.5654,71.7819 90.5,69.5C 91.1799,68.1401 91.8466,66.8068 92.5,65.5 Z"/></g>
<g><path style="opacity:1" fill="#727272" d="M 187.5,67.5 C 186.833,68.1667 186.167,68.8333 185.5,69.5C 182.541,66.9594 182.874,65.4594 186.5,65C 185.117,66.4609 185.451,67.2942 187.5,67.5 Z"/></g>
<g><path style="opacity:1" fill="#232121" d="M 103.5,66.5 C 104.605,67.6005 105.938,68.2671 107.5,68.5C 104.949,71.2301 103.616,70.5634 103.5,66.5 Z"/></g>
<g><path style="opacity:1" fill="#1a1819" d="M 191.5,64.5 C 191.167,65.1667 190.833,65.8333 190.5,66.5C 189.596,67.209 189.263,68.209 189.5,69.5C 188.167,69.5 186.833,69.5 185.5,69.5C 186.167,68.8333 186.833,68.1667 187.5,67.5C 187.694,65.0882 189.027,64.0882 191.5,64.5 Z"/></g>
<g><path style="opacity:1" fill="#706f70" d="M 191.5,64.5 C 193.273,65.3143 193.773,66.6476 193,68.5C 192.282,69.4506 191.449,69.6172 190.5,69C 191.774,68.0228 191.774,67.1894 190.5,66.5C 190.833,65.8333 191.167,65.1667 191.5,64.5 Z"/></g>
<g><path style="opacity:1" fill="#969696" d="M 103.5,66.5 C 103.5,65.8333 103.833,65.5 104.5,65.5C 106.117,66.038 107.784,66.3713 109.5,66.5C 108.833,67.1667 108.167,67.8333 107.5,68.5C 105.938,68.2671 104.605,67.6005 103.5,66.5 Z"/></g>
<g><path style="opacity:1" fill="#353434" d="M 100.5,64.5 C 102.332,65.1405 102.665,66.1405 101.5,67.5C 100.614,66.675 100.281,65.675 100.5,64.5 Z"/></g>
<g><path style="opacity:1" fill="#252324" d="M 109.5,66.5 C 107.784,66.3713 106.117,66.038 104.5,65.5C 103.942,64.2101 102.942,63.3768 101.5,63C 102.108,62.1301 102.941,61.6301 104,61.5C 106.03,63.0248 108.197,64.3582 110.5,65.5C 110.376,66.1067 110.043,66.44 109.5,66.5 Z"/></g>
<g><path style="opacity:1" fill="#171515" d="M 189.5,56.5 C 190.338,56.8417 190.672,57.5084 190.5,58.5C 189.866,59.9468 188.699,60.6134 187,60.5C 185.301,60.6134 184.134,59.9468 183.5,58.5C 185.898,58.7406 187.898,58.0739 189.5,56.5 Z"/></g>
<g><path style="opacity:1" fill="#1c70b8" d="M 163.5,86.5 C 166.419,83.0021 168.585,79.0021 170,74.5C 171.862,65.0142 168.029,59.1809 158.5,57C 154.442,56.2334 150.442,56.4001 146.5,57.5C 145.226,56.6406 145.392,55.9739 147,55.5C 154.677,53.8234 162.177,54.3234 169.5,57C 174.211,61.1396 175.711,66.3062 174,72.5C 171.706,78.0946 168.206,82.7613 163.5,86.5 Z"/></g>
<g><path style="opacity:1" fill="#2b292a" d="M 110.5,53.5 C 116.715,54.1701 118.048,57.1701 114.5,62.5C 115.381,63.9705 116.714,64.8038 118.5,65C 117.646,66.0217 116.646,66.8551 115.5,67.5C 112.833,64.1667 109.833,61.1667 106.5,58.5C 107.857,56.8144 109.19,55.1477 110.5,53.5 Z"/></g>
<g><path style="opacity:1" fill="#efefef" d="M 110.5,55.5 C 113.719,56.0211 114.719,57.6878 113.5,60.5C 110.922,59.3576 109.922,57.6909 110.5,55.5 Z"/></g>
<g><path style="opacity:1" fill="#676666" d="M 188.5,52.5 C 191.349,53.9196 192.016,55.9196 190.5,58.5C 190.672,57.5084 190.338,56.8417 189.5,56.5C 189.5,55.1667 188.833,54.5 187.5,54.5C 187.833,53.8333 188.167,53.1667 188.5,52.5 Z"/></g>
<g><path style="opacity:1" fill="#242222" d="M 122.5,54.5 C 121.713,56.1042 120.38,56.7709 118.5,56.5C 118.281,55.325 118.614,54.325 119.5,53.5C 120.417,54.1272 121.417,54.4606 122.5,54.5 Z"/></g>
<g><path style="opacity:1" fill="#e5e5e5" d="M 187.5,54.5 C 188.833,54.5 189.5,55.1667 189.5,56.5C 187.898,58.0739 185.898,58.7406 183.5,58.5C 183.833,56.1667 185.167,54.8333 187.5,54.5 Z"/></g>
<g><path style="opacity:1" fill="#222121" d="M 188.5,52.5 C 188.167,53.1667 187.833,53.8333 187.5,54.5C 185.167,54.8333 183.833,56.1667 183.5,58.5C 181.31,53.6728 182.977,51.6728 188.5,52.5 Z"/></g>
<g><path style="opacity:1" fill="#1e1d1d" d="M 123.5,51.5 C 124.167,52.1667 124.833,52.8333 125.5,53.5C 124.791,54.404 123.791,54.7373 122.5,54.5C 121.869,51.7455 120.202,49.9122 117.5,49C 120.625,46.7681 122.625,47.6014 123.5,51.5 Z"/></g>
<g><path style="opacity:1" fill="#a09fa0" d="M 126.5,49.5 C 127.167,50.1667 127.833,50.8333 128.5,51.5C 127.71,52.4013 126.71,53.0679 125.5,53.5C 124.833,52.8333 124.167,52.1667 123.5,51.5C 125.179,51.7148 126.179,51.0481 126.5,49.5 Z"/></g>
<g><path style="opacity:1" fill="#201d1e" d="M 125.5,44.5 C 126.778,44.7822 127.778,45.4489 128.5,46.5C 128.703,48.0443 129.37,49.3777 130.5,50.5C 130.043,51.2975 129.376,51.6309 128.5,51.5C 127.833,50.8333 127.167,50.1667 126.5,49.5C 126.489,47.9826 125.823,46.8159 124.5,46C 125.056,45.6174 125.389,45.1174 125.5,44.5 Z"/></g>
<g><path style="opacity:1" fill="#3d3b3c" d="M 180.5,44.5 C 184.019,44.1868 185.353,45.5201 184.5,48.5C 181.297,47.4982 179.463,48.8315 179,52.5C 177.833,51.3333 176.667,50.1667 175.5,49C 177.66,48.0041 179.327,46.5041 180.5,44.5 Z"/></g>
<g><path style="opacity:1" fill="#272526" d="M 168.5,37.5 C 169.473,37.9867 170.473,38.4867 171.5,39C 169.95,41.095 169.617,43.2617 170.5,45.5C 172.01,43.678 173.343,41.678 174.5,39.5C 175.308,39.8076 175.975,40.3076 176.5,41C 174.984,42.897 174.317,45.0637 174.5,47.5C 172.194,47.0074 169.861,46.6741 167.5,46.5C 167.508,43.4552 167.841,40.4552 168.5,37.5 Z"/></g>
<g><path style="opacity:1" fill="#191718" d="M 128.5,42.5 C 132.891,42.962 134.558,45.2953 133.5,49.5C 132.237,47.9713 131.237,46.3046 130.5,44.5C 129.833,43.8333 129.167,43.1667 128.5,42.5 Z"/></g>
<g><path style="opacity:1" fill="#7e7c7d" d="M 128.5,42.5 C 129.167,43.1667 129.833,43.8333 130.5,44.5C 129.167,44.5 128.5,45.1667 128.5,46.5C 127.778,45.4489 126.778,44.7822 125.5,44.5C 126.29,43.5987 127.29,42.9321 128.5,42.5 Z"/></g>
<g><path style="opacity:1" fill="#1e1d1e" d="M 164.5,39.5 C 162.989,38.4975 161.322,37.8308 159.5,37.5C 159.5,38.5 159.5,39.5 159.5,40.5C 159.756,42.7761 161.09,43.9428 163.5,44C 157.92,45.261 156.087,43.0943 158,37.5C 159.726,36.4238 161.559,36.2571 163.5,37C 164.252,37.6708 164.586,38.5041 164.5,39.5 Z"/></g>
<g><path style="opacity:1" fill="#696869" d="M 140.5,34.5 C 141.71,34.9321 142.71,35.5987 143.5,36.5C 142.345,39.4737 142.679,42.4737 144.5,45.5C 143.675,46.3857 142.675,46.719 141.5,46.5C 141.605,42.4517 141.272,38.4517 140.5,34.5 Z"/></g>
<g><path style="opacity:1" fill="#888787" d="M 164.5,39.5 C 163.081,40.4511 161.415,40.7845 159.5,40.5C 159.5,39.5 159.5,38.5 159.5,37.5C 161.322,37.8308 162.989,38.4975 164.5,39.5 Z"/></g>
<g><path style="opacity:1" fill="#646363" d="M 153.5,41.5 C 152.29,41.0679 151.29,40.4013 150.5,39.5C 151.766,37.3057 151.766,34.9724 150.5,32.5C 151.035,30.8987 152.035,30.3987 153.5,31C 152.734,34.4184 152.734,37.9184 153.5,41.5 Z"/></g>
<g><path style="opacity:1" fill="#232122" d="M 150.5,39.5 C 151.29,40.4013 152.29,41.0679 153.5,41.5C 153.649,42.552 153.483,43.552 153,44.5C 149.642,41.9688 146.476,39.3021 143.5,36.5C 142.71,35.5987 141.71,34.9321 140.5,34.5C 139.711,34.2172 139.044,33.7172 138.5,33C 140.167,32.3333 141.833,32.3333 143.5,33C 145.907,35.1831 148.24,37.3497 150.5,39.5 Z"/></g>
<g><path style="opacity:1" fill="#373636" d="M 102.5,78.5 C 105.548,78.494 106.048,79.494 104,81.5C 102.961,80.7562 102.461,79.7562 102.5,78.5 Z"/></g>
<g><path style="opacity:1" fill="#292828" d="M 189.5,77.5 C 190.737,78.7434 190.404,79.7434 188.5,80.5C 188.167,80.1667 187.833,79.8333 187.5,79.5C 188.243,78.8182 188.909,78.1515 189.5,77.5 Z"/></g>
<g><path style="opacity:1" fill="#2e2c2d" d="M 180.5,79.5 C 182.327,81.5611 184.66,82.8944 187.5,83.5C 187,84.5 186.5,85.5 186,86.5C 183.696,84.9315 181.196,83.7648 178.5,83C 179.305,81.8873 179.972,80.7206 180.5,79.5 Z"/></g>
<g><path style="opacity:1" fill="#373536" d="M 181.5,92.5 C 181.5,91.1667 180.833,90.5 179.5,90.5C 177.768,87.8879 176.268,88.2213 175,91.5C 174.667,85.5 177,84.1667 182,87.5C 182.78,89.3869 182.613,91.0536 181.5,92.5 Z"/></g>
<g><path style="opacity:1" fill="#100e0f" d="M 188.5,85.5 C 190.337,85.6395 190.67,86.3061 189.5,87.5C 188.702,87.0431 188.369,86.3764 188.5,85.5 Z"/></g>
<g><path style="opacity:1" fill="#1d72b9" d="M 158.5,89.5 C 155.337,90.9635 152.337,90.6301 149.5,88.5C 148.493,91.1897 147.493,93.8563 146.5,96.5C 150.316,95.0906 153.983,93.424 157.5,91.5C 151.899,95.3103 146.232,99.1436 140.5,103C 132.797,104.592 125.13,104.258 117.5,102C 109.84,98.1586 107.34,91.992 110,83.5C 112.171,79.1559 114.837,75.1559 118,71.5C 121.833,69 125,65.8333 127.5,62C 135.026,61.0783 140.692,57.4116 144.5,51C 145.793,50.51 147.127,50.3433 148.5,50.5C 148.5,51.5 148.5,52.5 148.5,53.5C 147.167,53.5 145.833,53.5 144.5,53.5C 144.336,56.1873 144.503,58.854 145,61.5C 146.937,65.6457 148.271,69.979 149,74.5C 152.737,71.3608 154.57,67.3608 154.5,62.5C 153.5,62.5 152.5,62.5 151.5,62.5C 151.5,61.5 151.5,60.5 151.5,59.5C 153.39,59.2965 154.89,59.9632 156,61.5C 156.497,63.8098 156.663,66.1432 156.5,68.5C 160.56,67.8482 162.56,69.5149 162.5,73.5C 161.5,73.5 160.5,73.5 159.5,73.5C 159.435,70.0017 158.101,69.5017 155.5,72C 153.093,74.7385 151.093,77.7385 149.5,81C 151.794,84.773 154.794,87.6063 158.5,89.5 Z"/></g>
<g><path style="opacity:1" fill="#f5f8fa" d="M 128.5,97.5 C 127.221,98.968 125.554,99.6347 123.5,99.5C 114.527,96.2206 111.36,89.8873 114,80.5C 118.134,72.0547 124.634,66.888 133.5,65C 139.455,68.4092 142.122,73.5759 141.5,80.5C 136.335,78.7097 131.002,77.5431 125.5,77C 125.043,76.586 124.709,76.086 124.5,75.5C 125.853,74.4763 126.52,73.143 126.5,71.5C 122.527,72.0755 121.527,74.2421 123.5,78C 120.397,79.4394 117.564,81.2728 115,83.5C 113.762,86.9257 114.929,88.5923 118.5,88.5C 117.637,84.8384 118.97,82.6718 122.5,82C 128.678,81.0054 134.178,82.5054 139,86.5C 139.667,87.8333 139.667,89.1667 139,90.5C 135.385,92.7195 131.885,95.0528 128.5,97.5 Z"/></g>
<g><path style="opacity:1" fill="#eef4f8" d="M 137.5,59.5 C 138.5,59.5 139.5,59.5 140.5,59.5C 140.785,61.288 140.452,62.9547 139.5,64.5C 137.615,63.3906 135.615,62.5573 133.5,62C 135.066,61.3918 136.4,60.5585 137.5,59.5 Z"/></g>
<g><path style="opacity:1" fill="#2f77b9" d="M 157.5,91.5 C 157.833,90.8333 158.167,90.1667 158.5,89.5C 160.411,88.925 162.078,87.925 163.5,86.5C 163.821,88.0481 164.821,88.7148 166.5,88.5C 166.574,84.4588 167.907,83.7921 170.5,86.5C 167.188,90.6507 162.854,92.3173 157.5,91.5 Z"/></g>
<g><path style="opacity:1" fill="#5e5d5e" d="M 96.5,90.5 C 96.5,91.8333 95.8333,92.5 94.5,92.5C 94.6107,91.8826 94.944,91.3826 95.5,91C 93.8659,90.5065 92.1992,90.3398 90.5,90.5C 90.3505,89.448 90.5172,88.448 91,87.5C 92.8761,88.6087 94.7095,89.6087 96.5,90.5 Z"/></g>
<g><path style="opacity:1" fill="#e2edf4" d="M 158.5,89.5 C 158.167,90.1667 157.833,90.8333 157.5,91.5C 153.983,93.424 150.316,95.0906 146.5,96.5C 147.493,93.8563 148.493,91.1897 149.5,88.5C 152.337,90.6301 155.337,90.9635 158.5,89.5 Z"/></g>
<g><path style="opacity:1" fill="#cfd0cf" d="M 179.5,90.5 C 180.833,90.5 181.5,91.1667 181.5,92.5C 180.167,92.5 179.5,91.8333 179.5,90.5 Z"/></g>
<g><path style="opacity:1" fill="#2b2a2a" d="M 179.5,90.5 C 179.5,91.8333 180.167,92.5 181.5,92.5C 180.206,95.1402 178.873,95.1402 177.5,92.5C 177.855,91.4777 178.522,90.811 179.5,90.5 Z"/></g>
<g><path style="opacity:1" fill="#2b292a" d="M 96.5,90.5 C 99.8352,90.6528 102.502,91.9861 104.5,94.5C 104.167,94.8333 103.833,95.1667 103.5,95.5C 99.6285,91.7237 95.7952,92.057 92,96.5C 91.51,95.2068 91.3433,93.8734 91.5,92.5C 92.5,92.5 93.5,92.5 94.5,92.5C 95.8333,92.5 96.5,91.8333 96.5,90.5 Z"/></g>
<g><path style="opacity:1" fill="#211f20" d="M 171.5,91.5 C 173.114,93.4559 174.781,95.4559 176.5,97.5C 175.129,99.7054 173.296,101.372 171,102.5C 169.188,100.688 167.355,98.8551 165.5,97C 166.025,96.3076 166.692,95.8076 167.5,95.5C 168.758,98.4995 170.758,99.4995 173.5,98.5C 172.509,96.6769 171.176,95.1769 169.5,94C 170.381,93.2917 171.047,92.4584 171.5,91.5 Z"/></g>
<g><path style="opacity:1" fill="#99bedb" d="M 146.5,96.5 C 144.005,98.7143 141.005,99.8809 137.5,100C 132.648,100.815 127.981,100.648 123.5,99.5C 125.554,99.6347 127.221,98.968 128.5,97.5C 128.62,98.5862 129.287,99.2528 130.5,99.5C 135.845,98.4975 141.178,97.4975 146.5,96.5 Z"/></g>
<g><path style="opacity:1" fill="#292828" d="M 160.5,99.5 C 165.494,99.329 167.328,101.662 166,106.5C 164.759,108.421 163.259,108.754 161.5,107.5C 162.325,106.614 163.325,106.281 164.5,106.5C 164.703,104.61 164.037,103.11 162.5,102C 160.833,102.333 159.167,102.667 157.5,103C 158.71,101.961 159.71,100.794 160.5,99.5 Z"/></g>
<g><path style="opacity:1" fill="#262425" d="M 99.5,96.5 C 102.124,98.1978 102.124,100.031 99.5,102C 97.4008,104.57 95.0675,104.904 92.5,103C 93.8333,102 93.8333,101 92.5,100C 94.1261,100.195 95.7928,100.195 97.5,100C 98.9733,99.2904 99.6399,98.1238 99.5,96.5 Z"/></g>
<g><path style="opacity:1" fill="#191818" d="M 104.5,111.5 C 103.761,111.631 103.094,111.464 102.5,111C 103.571,110.148 104.571,109.315 105.5,108.5C 105.863,106.089 104.863,104.589 102.5,104C 106.487,103.661 107.987,105.494 107,109.5C 106.292,110.381 105.458,111.047 104.5,111.5 Z"/></g>
<g><path style="opacity:1" fill="#605f60" d="M 138.5,109.5 C 140.265,108.539 142.265,108.205 144.5,108.5C 144.649,109.552 144.483,110.552 144,111.5C 142.644,110.62 141.144,110.286 139.5,110.5C 139.5,109.833 139.167,109.5 138.5,109.5 Z"/></g>
<g><path style="opacity:1" fill="#616061" d="M 105.5,108.5 C 104.571,109.315 103.571,110.148 102.5,111C 103.094,111.464 103.761,111.631 104.5,111.5C 101.78,112.842 100.114,111.842 99.5,108.5C 99.8333,107.833 100.167,107.167 100.5,106.5C 102.075,107.456 103.742,108.123 105.5,108.5 Z"/></g>
<g><path style="opacity:1" fill="#4f4e4f" d="M 153.5,103.5 C 158.383,104.466 159.717,107.299 157.5,112C 151.985,112.474 151.318,110.974 155.5,107.5C 153.662,106.811 151.995,106.478 150.5,106.5C 151.34,105.265 152.34,104.265 153.5,103.5 Z"/></g>
<g><path style="opacity:1" fill="#2b2929" d="M 110.5,107.5 C 111.995,107.415 112.995,108.081 113.5,109.5C 112.977,111.933 111.81,113.933 110,115.5C 109.5,115.167 109,114.833 108.5,114.5C 109.946,112.382 110.613,110.049 110.5,107.5 Z"/></g>
<g><path style="opacity:1" fill="#2e2b2c" d="M 116.5,109.5 C 122.643,110.026 123.976,112.86 120.5,118C 119.167,118.667 117.833,118.667 116.5,118C 115.549,117.282 115.383,116.449 116,115.5C 116.689,116.357 117.522,117.023 118.5,117.5C 119.466,115.604 119.799,113.604 119.5,111.5C 118.127,111.657 116.793,111.49 115.5,111C 116.056,110.617 116.389,110.117 116.5,109.5 Z"/></g>
<g><path style="opacity:1" fill="#222121" d="M 127.5,110.5 C 132.984,110.481 134.65,112.981 132.5,118C 131.833,118.667 131.167,118.667 130.5,118C 132.028,115.482 131.694,113.315 129.5,111.5C 127.306,113.315 126.972,115.482 128.5,118C 125.53,118.022 124.364,116.522 125,113.5C 126.045,112.627 126.878,111.627 127.5,110.5 Z"/></g>
<g><path style="opacity:1" fill="#222021" d="M 138.5,109.5 C 139.167,109.5 139.5,109.833 139.5,110.5C 138.209,111.542 138.209,112.708 139.5,114C 145.21,113.943 147.21,116.443 145.5,121.5C 145.167,121.5 144.833,121.5 144.5,121.5C 144.67,120.178 144.337,119.011 143.5,118C 136.675,117.736 135.008,114.902 138.5,109.5 Z"/></g>
<g><path style="opacity:1" fill="#1c1b1b" d="M 107.5,117.5 C 109.337,117.639 109.67,118.306 108.5,119.5C 107.702,119.043 107.369,118.376 107.5,117.5 Z"/></g>
<g><path style="opacity:1" fill="#666565" d="M 144.5,121.5 C 144.833,121.5 145.167,121.5 145.5,121.5C 143.622,123.509 141.456,123.842 139,122.5C 138.312,121.668 138.479,121.002 139.5,120.5C 141.071,121.309 142.738,121.643 144.5,121.5 Z"/></g>
</svg>
