<?xml version="1.0" encoding="UTF-8"?>
<!DOCTYPE svg PUBLIC "-//W3C//DTD SVG 1.1//EN" "http://www.w3.org/Graphics/SVG/1.1/DTD/svg11.dtd">
<svg xmlns="http://www.w3.org/2000/svg" version="1.1" width="1200px" height="630px" style="shape-rendering:geometricPrecision; text-rendering:geometricPrecision; image-rendering:optimizeQuality; fill-rule:evenodd; clip-rule:evenodd" xmlns:xlink="http://www.w3.org/1999/xlink">
<g><path style="opacity:1" fill="#fefefe" d="M -0.5,-0.5 C 399.5,-0.5 799.5,-0.5 1199.5,-0.5C 1199.5,209.5 1199.5,419.5 1199.5,629.5C 799.5,629.5 399.5,629.5 -0.5,629.5C -0.5,419.5 -0.5,209.5 -0.5,-0.5 Z"/></g>
<g><path style="opacity:1" fill="#ea9c41" d="M 626.5,54.5 C 623.482,54.3354 620.482,54.502 617.5,55C 611.152,59.2579 609.819,64.7579 613.5,71.5C 607.562,64.339 608.562,58.1723 616.5,53C 619.5,52.3333 622.5,52.3333 625.5,53C 626.056,53.3826 626.389,53.8826 626.5,54.5 Z"/></g>
<g><path style="opacity:1" fill="#f39127" d="M 522.5,54.5 C 533.339,53.8373 538.172,58.8373 537,69.5C 533.807,76.1234 528.64,78.2901 521.5,76C 513.257,68.4405 513.59,61.2739 522.5,54.5 Z"/></g>
<g><path style="opacity:1" fill="#f68f23" d="M 626.5,54.5 C 633.507,59.0382 634.34,64.7048 629,71.5C 624.899,74.2914 620.399,75.1247 615.5,74C 614.619,73.2917 613.953,72.4584 613.5,71.5C 609.819,64.7579 611.152,59.2579 617.5,55C 620.482,54.502 623.482,54.3354 626.5,54.5 Z"/></g>
<g><path style="opacity:1" fill="#1fb14f" d="M 661.5,57.5 C 672.381,56.2243 677.548,60.891 677,71.5C 674.37,79.0645 669.203,81.5645 661.5,79C 659,77.8333 657.167,76 656,73.5C 654.016,66.6603 655.85,61.3269 661.5,57.5 Z"/></g>
<g><path style="opacity:1" fill="#18b24c" d="M 738.5,79.5 C 738.148,82.0728 738.648,84.4062 740,86.5C 740.667,92.1667 740.667,97.8333 740,103.5C 739.482,106.023 738.148,108.023 736,109.5C 735.506,111.134 735.34,112.801 735.5,114.5C 724.717,127.085 711.717,129.918 696.5,123C 687.877,117.871 682.543,110.371 680.5,100.5C 680.268,94.3776 680.935,88.3776 682.5,82.5C 692.979,63.9588 707.979,59.1254 727.5,68C 732.045,71.0435 735.711,74.8769 738.5,79.5 Z"/></g>
<g><path style="opacity:1" fill="#f68f20" d="M 601.5,87.5 C 605.008,95.048 606.675,103.048 606.5,111.5C 606.396,113.703 605.73,115.703 604.5,117.5C 602.517,120.793 600.517,124.126 598.5,127.5C 588.382,135.436 577.049,137.603 564.5,134C 546.795,125.229 540.962,111.395 547,92.5C 558.94,72.1898 575.106,68.0232 595.5,80C 598.118,82.1057 600.118,84.6057 601.5,87.5 Z"/></g>
<g><path style="opacity:1" fill="#f7ce94" d="M 426.5,86.5 C 422.802,86.5524 419.135,86.8857 415.5,87.5C 419.044,85.4309 422.71,85.0976 426.5,86.5 Z"/></g>
<g><path style="opacity:1" fill="#33ad5d" d="M 738.5,79.5 C 744.614,91.8021 743.614,103.469 735.5,114.5C 735.34,112.801 735.506,111.134 736,109.5C 738.148,108.023 739.482,106.023 740,103.5C 740.667,97.8333 740.667,92.1667 740,86.5C 738.648,84.4062 738.148,82.0728 738.5,79.5 Z"/></g>
<g><path style="opacity:1" fill="#f58f22" d="M 426.5,86.5 C 439.579,91.1984 443.746,100.198 439,113.5C 432.15,122.893 423.317,125.393 412.5,121C 401.402,111.244 400.735,100.911 410.5,90C 412.078,88.9055 413.745,88.0722 415.5,87.5C 419.135,86.8857 422.802,86.5524 426.5,86.5 Z"/></g>
<g><path style="opacity:1" fill="#f68f20" d="M 497.5,170.5 C 472.293,175.687 454.626,166.687 444.5,143.5C 439.259,116.467 449.592,98.6341 475.5,90C 491.896,87.6868 505.73,92.5202 517,104.5C 528.804,122.967 528.137,140.967 515,158.5C 513.989,159.337 512.822,159.67 511.5,159.5C 511.719,160.675 511.386,161.675 510.5,162.5C 506.27,165.443 501.937,168.109 497.5,170.5 Z"/></g>
<g><path style="opacity:1" fill="#84d8a3" d="M 682.5,82.5 C 680.935,88.3776 680.268,94.3776 680.5,100.5C 678.853,94.2717 679.52,88.2717 682.5,82.5 Z"/></g>
<g><path style="opacity:1" fill="#1fb04f" d="M 767.5,90.5 C 778.391,89.8875 783.224,94.8875 782,105.5C 778.96,111.603 774.126,113.769 767.5,112C 760.577,108.259 758.744,102.759 762,95.5C 763.73,93.5981 765.563,91.9314 767.5,90.5 Z"/></g>
<g><path style="opacity:1" fill="#1fb24e" d="M 655.5,93.5 C 662.348,92.8353 667.514,95.502 671,101.5C 671.522,107.253 669.356,111.753 664.5,115C 652.507,117.275 647.341,112.441 649,100.5C 650.752,97.5884 652.918,95.2551 655.5,93.5 Z"/></g>
<g><path style="opacity:1" fill="#f6b25e" d="M 601.5,87.5 C 602.458,87.9528 603.292,88.6195 604,89.5C 607.316,96.6813 608.149,104.015 606.5,111.5C 606.675,103.048 605.008,95.048 601.5,87.5 Z"/></g>
<g><path style="opacity:1" fill="#f9d7a6" d="M 604.5,117.5 C 604.018,121.805 602.018,125.139 598.5,127.5C 600.517,124.126 602.517,120.793 604.5,117.5 Z"/></g>
<g><path style="opacity:1" fill="#18b24c" d="M 674.5,153.5 C 674.899,182.765 660.565,198.765 631.5,201.5C 620.669,200.785 611.336,196.785 603.5,189.5C 588.511,171.495 587.678,152.828 601,133.5C 619.024,115.595 638.524,113.762 659.5,128C 667.252,135.021 672.252,143.521 674.5,153.5 Z"/></g>
<g><path style="opacity:1" fill="#f68f20" d="M 338.5,161.5 C 337.911,154.515 337.578,147.515 337.5,140.5C 343.403,124.119 355.07,116.952 372.5,119C 388.826,122.298 397.493,132.298 398.5,149C 398.14,163.687 391.14,173.687 377.5,179C 359.522,183.854 346.522,178.021 338.5,161.5 Z"/></g>
<g><path style="opacity:1" fill="#2faf59" d="M 710.5,138.5 C 707.725,137.465 705.058,136.131 702.5,134.5C 698.555,135.268 694.555,135.768 690.5,136C 691.337,137.011 691.67,138.178 691.5,139.5C 689.176,139.995 687.009,139.995 685,139.5C 683.739,139.759 682.739,140.426 682,141.5C 679.29,147.309 678.79,153.309 680.5,159.5C 679.833,158.5 679.167,157.5 678.5,156.5C 676.65,147.037 679.65,139.537 687.5,134C 696.355,129.968 704.021,131.468 710.5,138.5 Z"/></g>
<g><path style="opacity:1" fill="#1bb24d" d="M 800.5,143.5 C 801.739,162.432 793.072,170.265 774.5,167C 772.677,166.003 771.01,164.836 769.5,163.5C 759.332,149.545 761.999,138.712 777.5,131C 788.162,129.992 795.828,134.159 800.5,143.5 Z"/></g>
<g><path style="opacity:1" fill="#f59023" d="M 540.5,136.5 C 552.518,134.758 560.685,139.424 565,150.5C 566.286,161.423 561.786,168.923 551.5,173C 538.054,174.729 530.054,168.896 527.5,155.5C 527.643,146.192 531.976,139.859 540.5,136.5 Z"/></g>
<g><path style="opacity:1" fill="#18b24c" d="M 710.5,138.5 C 714.182,141.371 715.848,145.205 715.5,150C 715.627,155.006 714.293,159.506 711.5,163.5C 699.692,172.581 689.359,171.248 680.5,159.5C 678.79,153.309 679.29,147.309 682,141.5C 682.739,140.426 683.739,139.759 685,139.5C 687.009,139.995 689.176,139.995 691.5,139.5C 691.67,138.178 691.337,137.011 690.5,136C 694.555,135.768 698.555,135.268 702.5,134.5C 705.058,136.131 707.725,137.465 710.5,138.5 Z"/></g>
<g><path style="opacity:1" fill="#eda351" d="M 337.5,140.5 C 337.578,147.515 337.911,154.515 338.5,161.5C 336.439,157.722 335.439,153.556 335.5,149C 335.36,145.85 336.027,143.017 337.5,140.5 Z"/></g>
<g><path style="opacity:1" fill="#fdfbf3" d="M 444.5,143.5 C 454.626,166.687 472.293,175.687 497.5,170.5C 497.082,171.222 496.416,171.722 495.5,172C 487.833,172.333 480.167,172.667 472.5,173C 470.645,173.422 468.811,173.922 467,174.5C 466.055,174.095 465.388,173.428 465,172.5C 463.989,173.337 462.822,173.67 461.5,173.5C 461.5,175.167 461.5,176.833 461.5,178.5C 462.833,178.5 464.167,178.5 465.5,178.5C 457.982,181.252 455.482,186.585 458,194.5C 458.66,196.324 459.827,197.657 461.5,198.5C 462.167,199.167 462.833,199.833 463.5,200.5C 460.685,199.874 458.185,198.54 456,196.5C 455.686,194.131 454.852,191.964 453.5,190C 453.646,188.273 454.313,188.106 455.5,189.5C 456.004,186.701 457.004,184.201 458.5,182C 458.067,179.828 457.734,177.661 457.5,175.5C 456.004,179.277 454.337,179.277 452.5,175.5C 451.5,176.167 450.5,176.833 449.5,177.5C 447.929,175.118 447.096,172.451 447,169.5C 446.667,171.5 446.333,173.5 446,175.5C 445.333,174.167 444.667,174.167 444,175.5C 443.366,169.866 442.866,169.532 442.5,174.5C 440.708,174.366 439.042,174.699 437.5,175.5C 444.136,167.513 445.136,158.846 440.5,149.5C 441.75,149.577 442.583,150.244 443,151.5C 444.079,148.937 444.579,146.271 444.5,143.5 Z"/></g>
<g><path style="opacity:1" fill="#f68f20" d="M 440.5,149.5 C 445.136,158.846 444.136,167.513 437.5,175.5C 435.022,176.883 432.355,177.883 429.5,178.5C 424.681,178.648 420.015,177.982 415.5,176.5C 406.242,169.817 404.076,161.151 409,150.5C 419.139,140.293 429.639,139.96 440.5,149.5 Z"/></g>
<g><path style="opacity:1" fill="#18b14c" d="M 856.5,200.5 C 843.903,217.398 828.236,220.898 809.5,211C 798.513,201.533 794.846,189.7 798.5,175.5C 799.734,171.363 801.734,167.696 804.5,164.5C 817.723,152.66 832.057,151.327 847.5,160.5C 859.882,171.557 862.882,184.89 856.5,200.5 Z"/></g>
<g><path style="opacity:1" fill="#f9fcfa" d="M 800.5,143.5 C 801.117,143.611 801.617,143.944 802,144.5C 803.008,148.771 802.508,152.771 800.5,156.5C 801.213,159.096 801.213,161.763 800.5,164.5C 801.833,164.5 803.167,164.5 804.5,164.5C 801.734,167.696 799.734,171.363 798.5,175.5C 794.846,189.7 798.513,201.533 809.5,211C 828.236,220.898 843.903,217.398 856.5,200.5C 856.349,203.738 857.682,206.071 860.5,207.5C 860.833,207 861.167,206.5 861.5,206C 860.813,204.838 860.647,203.672 861,202.5C 862.055,205.056 863.888,206.723 866.5,207.5C 862.288,217.224 865.288,223.224 875.5,225.5C 883.145,224.547 886.812,220.213 886.5,212.5C 889.087,215.01 889.087,217.677 886.5,220.5C 887.685,221.853 889.019,223.02 890.5,224C 889.328,224.419 888.328,225.085 887.5,226C 891.554,228.608 895.887,230.775 900.5,232.5C 902.608,235.157 903.941,238.157 904.5,241.5C 887.323,225.22 870.49,225.554 854,242.5C 852.906,244.078 852.072,245.745 851.5,247.5C 849.067,251.192 848.067,255.359 848.5,260C 848.349,264.112 849.016,267.946 850.5,271.5C 851.117,274.355 852.117,277.022 853.5,279.5C 851.956,279.297 850.622,278.63 849.5,277.5C 848.808,278.025 848.308,278.692 848,279.5C 847.722,278.584 847.222,277.918 846.5,277.5C 842.306,271.545 836.639,269.545 829.5,271.5C 826.263,272.248 824.097,274.248 823,277.5C 822.341,280.888 822.508,284.221 823.5,287.5C 821.94,289.156 820.94,291.156 820.5,293.5C 818.556,282.731 812.556,279.564 802.5,284C 797.567,289.565 797.234,295.398 801.5,301.5C 800.022,301.762 798.689,301.429 797.5,300.5C 798.641,299.575 798.641,298.741 797.5,298C 796.207,297.51 794.873,297.343 793.5,297.5C 794.167,299.5 794.833,301.5 795.5,303.5C 789.542,296.575 783.042,295.908 776,301.5C 771.137,313.128 774.97,319.128 787.5,319.5C 788.135,322.493 788.301,325.493 788,328.5C 787.288,326.153 786.121,324.153 784.5,322.5C 783.506,326.481 782.506,326.481 781.5,322.5C 779.936,320.397 777.936,319.564 775.5,320C 777.174,321.506 778.174,323.339 778.5,325.5C 765.478,313.562 754.311,315.228 745,330.5C 744.454,350.783 753.954,358.117 773.5,352.5C 772.097,353.931 770.431,355.098 768.5,356C 764.247,356.2 760.08,356.7 756,357.5C 755.517,356.552 755.351,355.552 755.5,354.5C 753.856,354.286 752.356,354.62 751,355.5C 750.755,353.337 749.755,351.67 748,350.5C 747.667,354.167 747.333,357.833 747,361.5C 746.929,357.313 746.262,353.313 745,349.5C 744.667,353.833 744.333,358.167 744,362.5C 743.617,363.056 743.117,363.389 742.5,363.5C 745.77,344.878 739.77,330.045 724.5,319C 700.784,307.304 681.284,312.137 666,333.5C 663.842,338.159 662.009,342.825 660.5,347.5C 660.628,341.547 659.961,341.213 658.5,346.5C 657.167,346.5 655.833,346.5 654.5,346.5C 661.032,339.965 661.032,333.465 654.5,327C 642.266,323.36 636.766,327.86 638,340.5C 639.332,342.66 640.832,344.66 642.5,346.5C 640.019,346.774 638.353,348.107 637.5,350.5C 628.091,346.09 618.424,345.423 608.5,348.5C 610.269,346.603 612.602,345.436 615.5,345C 614.833,344.667 614.167,344.333 613.5,344C 615.132,342.69 616.799,342.19 618.5,342.5C 617.332,340.783 615.665,340.116 613.5,340.5C 620.061,337.704 622.561,332.704 621,325.5C 618.239,319.869 613.739,317.536 607.5,318.5C 611.605,317.974 615.605,316.808 619.5,315C 615.486,314.089 611.486,313.422 607.5,313C 608.938,312.781 610.271,312.281 611.5,311.5C 610.873,310.583 610.539,309.583 610.5,308.5C 632.33,320.522 651.496,317.189 668,298.5C 680.889,275.954 677.389,256.454 657.5,240C 630.996,226.691 610.496,232.858 596,258.5C 594.57,261.353 593.737,264.353 593.5,267.5C 593.167,267.5 592.833,267.5 592.5,267.5C 593.085,262.816 594.419,258.316 596.5,254C 595.503,252.404 594.337,250.904 593,249.5C 592.667,250.5 592.333,251.5 592,252.5C 591.104,249.975 591.604,247.808 593.5,246C 591.893,246.019 590.226,246.185 588.5,246.5C 589.167,245.833 589.833,245.167 590.5,244.5C 605.84,233.128 609.34,218.794 601,201.5C 598.304,197.639 595.137,194.306 591.5,191.5C 593.263,192.63 595.096,192.63 597,191.5C 598.812,191.493 600.312,192.16 601.5,193.5C 602.705,192.423 603.372,191.09 603.5,189.5C 611.336,196.785 620.669,200.785 631.5,201.5C 660.565,198.765 674.899,182.765 674.5,153.5C 675.792,155.255 676.792,157.255 677.5,159.5C 678.386,158.675 678.719,157.675 678.5,156.5C 679.167,157.5 679.833,158.5 680.5,159.5C 689.359,171.248 699.692,172.581 711.5,163.5C 711.783,164.289 712.283,164.956 713,165.5C 714,164.167 715,164.167 716,165.5C 717,164.5 718,163.5 719,162.5C 719.49,163.793 719.657,165.127 719.5,166.5C 720.5,166.5 721.5,166.5 722.5,166.5C 721.306,167.272 720.306,168.272 719.5,169.5C 711.675,173.322 706.342,179.322 703.5,187.5C 700.313,192.429 698.98,197.929 699.5,204C 698.924,210.077 700.257,215.577 703.5,220.5C 714.383,242.433 731.717,249.933 755.5,243C 777.078,233.28 785.578,216.78 781,193.5C 777.608,182.965 771.442,174.632 762.5,168.5C 766.206,168.501 768.539,166.835 769.5,163.5C 771.01,164.836 772.677,166.003 774.5,167C 793.072,170.265 801.739,162.432 800.5,143.5 Z"/></g>
<g><path style="opacity:1" fill="#42b16a" d="M 751.5,164.5 C 744.825,164.334 738.158,164.5 731.5,165C 727.589,166.791 723.589,168.291 719.5,169.5C 720.306,168.272 721.306,167.272 722.5,166.5C 732.108,163.426 741.774,162.759 751.5,164.5 Z"/></g>
<g><path style="opacity:1" fill="#16b24b" d="M 751.5,164.5 C 755.167,165.833 758.833,167.167 762.5,168.5C 771.442,174.632 777.608,182.965 781,193.5C 785.578,216.78 777.078,233.28 755.5,243C 731.717,249.933 714.383,242.433 703.5,220.5C 702.244,214.553 701.244,208.553 700.5,202.5C 701.87,197.649 702.87,192.649 703.5,187.5C 706.342,179.322 711.675,173.322 719.5,169.5C 723.589,168.291 727.589,166.791 731.5,165C 738.158,164.5 744.825,164.334 751.5,164.5 Z"/></g>
<g><path style="opacity:1" fill="#eaa257" d="M 415.5,176.5 C 420.015,177.982 424.681,178.648 429.5,178.5C 424.552,180.097 419.886,179.431 415.5,176.5 Z"/></g>
<g><path style="opacity:1" fill="#ea9d47" d="M 465.5,178.5 C 472.608,178.036 477.275,181.036 479.5,187.5C 478.167,187.5 476.833,187.5 475.5,187.5C 476.009,182.146 473.509,179.813 468,180.5C 466.5,180.833 465,181.167 463.5,181.5C 462.472,183.361 460.972,184.695 459,185.5C 458.833,186.833 458.667,188.167 458.5,189.5C 458.988,192.661 459.988,195.661 461.5,198.5C 459.827,197.657 458.66,196.324 458,194.5C 455.482,186.585 457.982,181.252 465.5,178.5 Z"/></g>
<g><path style="opacity:1" fill="#f68f1f" d="M 356.5,217.5 C 356.5,224.833 356.5,232.167 356.5,239.5C 351.135,256.042 339.801,265.876 322.5,269C 294.015,269.522 278.348,255.522 275.5,227C 276.919,206.914 287.253,193.914 306.5,188C 328.591,183.964 344.758,191.797 355,211.5C 355.505,213.518 356.005,215.518 356.5,217.5 Z"/></g>
<g><path style="opacity:1" fill="#17b24c" d="M 591.5,191.5 C 595.137,194.306 598.304,197.639 601,201.5C 609.34,218.794 605.84,233.128 590.5,244.5C 585.543,245.708 580.543,246.708 575.5,247.5C 570.145,246.925 564.812,246.259 559.5,245.5C 551.8,241.819 546.633,235.819 544,227.5C 539.943,207.439 547.443,193.939 566.5,187C 575.4,185.748 583.734,187.248 591.5,191.5 Z"/></g>
<g><path style="opacity:1" fill="#f58f21" d="M 479.5,187.5 C 479.032,197.624 473.699,201.957 463.5,200.5C 462.833,199.833 462.167,199.167 461.5,198.5C 459.988,195.661 458.988,192.661 458.5,189.5C 458.667,188.167 458.833,186.833 459,185.5C 460.972,184.695 462.472,183.361 463.5,181.5C 465,181.167 466.5,180.833 468,180.5C 473.509,179.813 476.009,182.146 475.5,187.5C 476.833,187.5 478.167,187.5 479.5,187.5 Z"/></g>
<g><path style="opacity:1" fill="#4bb673" d="M 703.5,187.5 C 702.87,192.649 701.87,197.649 700.5,202.5C 701.244,208.553 702.244,214.553 703.5,220.5C 700.257,215.577 698.924,210.077 699.5,204C 698.98,197.929 700.313,192.429 703.5,187.5 Z"/></g>
<g><path style="opacity:1" fill="#1cb24d" d="M 661.5,201.5 C 673.986,199.32 682.486,203.986 687,215.5C 688.276,226.446 683.776,233.946 673.5,238C 661.712,239.685 653.879,234.852 650,223.5C 649.349,213.801 653.182,206.468 661.5,201.5 Z"/></g>
<g><path style="opacity:1" fill="#f59023" d="M 389.5,196.5 C 401.221,195.072 409.387,199.739 414,210.5C 414.937,215.403 414.27,220.07 412,224.5C 401.591,236.093 390.924,236.426 380,225.5C 374.015,212.551 377.182,202.884 389.5,196.5 Z"/></g>
<g><path style="opacity:1" fill="#f68f1f" d="M 519.5,229.5 C 521.453,237.031 522.453,244.697 522.5,252.5C 517.788,274.538 504.122,286.205 481.5,287.5C 460.644,286.304 447.644,275.637 442.5,255.5C 442.084,246.716 442.751,238.049 444.5,229.5C 454.178,210.827 469.511,202.993 490.5,206C 504.095,209.114 513.762,216.947 519.5,229.5 Z"/></g>
<g><path style="opacity:1" fill="#ec4727" d="M 886.5,212.5 C 886.812,220.213 883.145,224.547 875.5,225.5C 865.288,223.224 862.288,217.224 866.5,207.5C 872.958,201.91 879.125,202.243 885,208.5C 885.791,209.745 886.291,211.078 886.5,212.5 Z"/></g>
<g><path style="opacity:1" fill="#ec9d4d" d="M 356.5,217.5 C 357.991,220.186 358.657,223.186 358.5,226.5C 358.375,231.055 357.708,235.389 356.5,239.5C 356.5,232.167 356.5,224.833 356.5,217.5 Z"/></g>
<g><path style="opacity:1" fill="#e36145" d="M 829.5,222.5 C 826.455,222.508 823.455,222.841 820.5,223.5C 820.67,224.822 820.337,225.989 819.5,227C 817.833,227.333 816.167,227.667 814.5,228C 813.295,229.376 811.962,230.542 810.5,231.5C 814.784,223.855 821.117,220.855 829.5,222.5 Z"/></g>
<g><path style="opacity:1" fill="#026738" d="M 610.5,308.5 C 602.391,302.384 597.057,294.384 594.5,284.5C 594.822,278.642 594.489,272.975 593.5,267.5C 593.737,264.353 594.57,261.353 596,258.5C 610.496,232.858 630.996,226.691 657.5,240C 677.389,256.454 680.889,275.954 668,298.5C 651.496,317.189 632.33,320.522 610.5,308.5 Z"/></g>
<g><path style="opacity:1" fill="#ed4623" d="M 904.5,241.5 C 914.372,258.534 912.038,273.701 897.5,287C 894.516,288.271 891.516,289.438 888.5,290.5C 880.303,290.883 872.303,290.217 864.5,288.5C 860.543,285.878 856.876,282.878 853.5,279.5C 852.117,277.022 851.117,274.355 850.5,271.5C 849.022,263.421 849.356,255.421 851.5,247.5C 852.072,245.745 852.906,244.078 854,242.5C 870.49,225.554 887.323,225.22 904.5,241.5 Z"/></g>
<g><path style="opacity:1" fill="#ec4927" d="M 829.5,222.5 C 837.208,223.702 842.375,228.035 845,235.5C 846.307,249.554 839.974,257.554 826,259.5C 818.883,259.034 813.717,255.701 810.5,249.5C 810.269,245.915 811.269,242.748 813.5,240C 811.924,240.152 810.591,240.985 809.5,242.5C 808.679,239.554 808.679,236.554 809.5,233.5C 809.328,232.508 809.662,231.842 810.5,231.5C 811.962,230.542 813.295,229.376 814.5,228C 816.167,227.667 817.833,227.333 819.5,227C 820.337,225.989 820.67,224.822 820.5,223.5C 823.455,222.841 826.455,222.508 829.5,222.5 Z"/></g>
<g><path style="opacity:1" fill="#e65c41" d="M 809.5,233.5 C 808.679,236.554 808.679,239.554 809.5,242.5C 810.591,240.985 811.924,240.152 813.5,240C 811.269,242.748 810.269,245.915 810.5,249.5C 807.137,244.313 806.804,238.98 809.5,233.5 Z"/></g>
<g><path style="opacity:1" fill="#eca558" d="M 444.5,229.5 C 442.751,238.049 442.084,246.716 442.5,255.5C 439.543,246.608 440.21,237.942 444.5,229.5 Z"/></g>
<g><path style="opacity:1" fill="#ed9e4c" d="M 519.5,229.5 C 521.129,231.858 522.295,234.524 523,237.5C 523.816,242.684 523.65,247.684 522.5,252.5C 522.453,244.697 521.453,237.031 519.5,229.5 Z"/></g>
<g><path style="opacity:1" fill="#3ab162" d="M 590.5,244.5 C 589.833,245.167 589.167,245.833 588.5,246.5C 578.53,250.756 568.863,250.423 559.5,245.5C 564.812,246.259 570.145,246.925 575.5,247.5C 580.543,246.708 585.543,245.708 590.5,244.5 Z"/></g>
<g><path style="opacity:1" fill="#f68f21" d="M 351.5,287.5 C 350.659,280.535 350.326,273.535 350.5,266.5C 354.079,255.091 361.746,247.924 373.5,245C 390.424,243.378 402.591,250.212 410,265.5C 413.624,280.965 409.124,293.465 396.5,303C 379.659,311.078 365.492,307.912 354,293.5C 352.441,291.783 351.608,289.783 351.5,287.5 Z"/></g>
<g><path style="opacity:1" fill="#036739" d="M 735.5,252.5 C 754.101,250.378 766.601,258.044 773,275.5C 775.022,302.478 762.522,315.312 735.5,314C 717.341,307.521 709.507,294.688 712,275.5C 715.787,263.544 723.621,255.878 735.5,252.5 Z"/></g>
<g><path style="opacity:1" fill="#07673a" d="M 692.5,256.5 C 702.826,255.661 707.659,260.328 707,270.5C 704.426,277.148 699.593,279.648 692.5,278C 686.397,274.96 684.231,270.126 686,263.5C 687.694,260.642 689.861,258.309 692.5,256.5 Z"/></g>
<g><path style="opacity:1" fill="#30ae5c" d="M 794.5,243.5 C 783.538,240.311 778.371,244.311 779,255.5C 781.138,260.658 784.472,261.658 789,258.5C 790.766,259.233 792.599,259.567 794.5,259.5C 794.706,256.549 795.706,253.883 797.5,251.5C 796.829,248.815 796.162,246.148 795.5,243.5C 801.088,249.585 800.755,255.418 794.5,261C 781.562,264.732 776.062,259.899 778,246.5C 779.833,244.667 781.667,242.833 783.5,241C 786.5,240.333 789.5,240.333 792.5,241C 793.381,241.708 794.047,242.542 794.5,243.5 Z"/></g>
<g><path style="opacity:1" fill="#12b348" d="M 794.5,243.5 C 794.833,243.5 795.167,243.5 795.5,243.5C 796.162,246.148 796.829,248.815 797.5,251.5C 795.706,253.883 794.706,256.549 794.5,259.5C 792.599,259.567 790.766,259.233 789,258.5C 784.472,261.658 781.138,260.658 779,255.5C 778.371,244.311 783.538,240.311 794.5,243.5 Z"/></g>
<g><path style="opacity:1" fill="#d55a43" d="M 851.5,247.5 C 849.356,255.421 849.022,263.421 850.5,271.5C 849.016,267.946 848.349,264.112 848.5,260C 848.067,255.359 849.067,251.192 851.5,247.5 Z"/></g>
<g><path style="opacity:1" fill="#0f693c" d="M 570.5,264.5 C 580.618,264.451 585.451,269.451 585,279.5C 577.047,290.502 569.714,290.169 563,278.5C 562.245,275.697 562.578,273.03 564,270.5C 566.063,268.266 568.229,266.266 570.5,264.5 Z"/></g>
<g><path style="opacity:1" fill="#3c7b5d" d="M 592.5,267.5 C 592.833,267.5 593.167,267.5 593.5,267.5C 594.489,272.975 594.822,278.642 594.5,284.5C 592.795,279.097 592.128,273.43 592.5,267.5 Z"/></g>
<g><path style="opacity:1" fill="#e89c4c" d="M 350.5,266.5 C 350.326,273.535 350.659,280.535 351.5,287.5C 349.439,283.722 348.439,279.556 348.5,275C 348.36,271.85 349.027,269.017 350.5,266.5 Z"/></g>
<g><path style="opacity:1" fill="#ffe8dd" d="M 829.5,271.5 C 823.924,276.765 823.091,282.765 827,289.5C 827.816,290.823 828.983,291.489 830.5,291.5C 832.607,292.468 834.941,292.802 837.5,292.5C 831.453,294.814 826.786,293.147 823.5,287.5C 822.508,284.221 822.341,280.888 823,277.5C 824.097,274.248 826.263,272.248 829.5,271.5 Z"/></g>
<g><path style="opacity:1" fill="#0b673b" d="M 820.5,293.5 C 817.452,303.961 811.119,306.627 801.5,301.5C 797.234,295.398 797.567,289.565 802.5,284C 812.556,279.564 818.556,282.731 820.5,293.5 Z"/></g>
<g><path style="opacity:1" fill="#046739" d="M 542.5,284.5 C 560.903,283.113 573.07,291.113 579,308.5C 580.124,336.043 566.957,348.543 539.5,346C 523.029,339.899 515.529,328.065 517,310.5C 520.348,296.653 528.848,287.986 542.5,284.5 Z"/></g>
<g><path style="opacity:1" fill="#f2b361" d="M 315.5,288.5 C 312.15,288.335 308.817,288.502 305.5,289C 301.866,290.356 298.199,291.523 294.5,292.5C 300.86,287.721 307.86,286.388 315.5,288.5 Z"/></g>
<g><path style="opacity:1" fill="#f68f21" d="M 449.5,288.5 C 450.833,293.5 450.833,298.5 449.5,303.5C 444.75,312.04 437.416,315.54 427.5,314C 419.969,311.319 415.636,306.152 414.5,298.5C 414.704,295.482 415.037,292.482 415.5,289.5C 418.352,281.665 424.019,277.665 432.5,277.5C 440.565,277.581 446.232,281.248 449.5,288.5 Z"/></g>
<g><path style="opacity:1" fill="#ec4825" d="M 846.5,277.5 C 846.841,281.16 846.175,284.493 844.5,287.5C 840.582,291.063 835.915,292.396 830.5,291.5C 828.983,291.489 827.816,290.823 827,289.5C 823.091,282.765 823.924,276.765 829.5,271.5C 836.639,269.545 842.306,271.545 846.5,277.5 Z"/></g>
<g><path style="opacity:1" fill="#e35b43" d="M 864.5,288.5 C 872.303,290.217 880.303,290.883 888.5,290.5C 880.206,293.579 872.206,292.912 864.5,288.5 Z"/></g>
<g><path style="opacity:1" fill="#da6954" d="M 844.5,287.5 C 843.473,290.858 841.14,292.525 837.5,292.5C 834.941,292.802 832.607,292.468 830.5,291.5C 835.915,292.396 840.582,291.063 844.5,287.5 Z"/></g>
<g><path style="opacity:1" fill="#f5bb7a" d="M 415.5,289.5 C 415.037,292.482 414.704,295.482 414.5,298.5C 413.185,295.373 413.518,292.373 415.5,289.5 Z"/></g>
<g><path style="opacity:1" fill="#026838" d="M 676.5,301.5 C 676.205,299.265 676.539,297.265 677.5,295.5C 683.605,288.962 689.772,288.962 696,295.5C 696.167,296.833 696.333,298.167 696.5,299.5C 695.573,302.735 694.24,305.735 692.5,308.5C 688.829,307.855 685.162,307.522 681.5,307.5C 679.781,305.456 678.114,303.456 676.5,301.5 Z"/></g>
<g><path style="opacity:1" fill="#eead67" d="M 449.5,288.5 C 452.167,293.5 452.167,298.5 449.5,303.5C 450.833,298.5 450.833,293.5 449.5,288.5 Z"/></g>
<g><path style="opacity:1" fill="#f68f1f" d="M 315.5,288.5 C 323.474,289.446 329.974,293.112 335,299.5C 335.49,300.793 335.657,302.127 335.5,303.5C 336.5,303.5 337.5,303.5 338.5,303.5C 345.362,321.897 340.695,336.397 324.5,347C 321.688,348.549 318.688,349.382 315.5,349.5C 308.185,349.703 301.185,348.37 294.5,345.5C 284.557,339.846 279.557,331.18 279.5,319.5C 279.076,307.336 284.076,298.336 294.5,292.5C 298.199,291.523 301.866,290.356 305.5,289C 308.817,288.502 312.15,288.335 315.5,288.5 Z"/></g>
<g><path style="opacity:1" fill="#ed4725" d="M 918.5,310.5 C 914.867,311.543 911.534,311.543 908.5,310.5C 904.187,308.722 902.187,305.389 902.5,300.5C 902.719,298.307 903.385,296.307 904.5,294.5C 908.028,290.242 912.361,289.409 917.5,292C 925.008,297.978 925.341,304.145 918.5,310.5 Z"/></g>
<g><path style="opacity:1" fill="#df5e43" d="M 904.5,294.5 C 903.385,296.307 902.719,298.307 902.5,300.5C 902.187,305.389 904.187,308.722 908.5,310.5C 911.534,311.543 914.867,311.543 918.5,310.5C 912.847,314.744 907.681,314.077 903,308.5C 901.48,304.625 901.146,300.625 902,296.5C 902.708,295.619 903.542,294.953 904.5,294.5 Z"/></g>
<g><path style="opacity:1" fill="#09683a" d="M 795.5,303.5 C 797.552,311.392 794.885,316.725 787.5,319.5C 774.97,319.128 771.137,313.128 776,301.5C 783.042,295.908 789.542,296.575 795.5,303.5 Z"/></g>
<g><path style="opacity:1" fill="#e0533c" d="M 858.5,308.5 C 851.996,306.731 845.33,306.065 838.5,306.5C 845.615,302.181 852.281,302.848 858.5,308.5 Z"/></g>
<g><path style="opacity:1" fill="#1a6745" d="M 676.5,301.5 C 678.114,303.456 679.781,305.456 681.5,307.5C 685.162,307.522 688.829,307.855 692.5,308.5C 694.24,305.735 695.573,302.735 696.5,299.5C 696.333,298.167 696.167,296.833 696,295.5C 689.772,288.962 683.605,288.962 677.5,295.5C 680.538,288.657 685.538,286.824 692.5,290C 700.173,295.771 700.506,302.105 693.5,309C 687.713,311.582 682.546,310.749 678,306.5C 676.991,304.975 676.491,303.308 676.5,301.5 Z"/></g>
<g><path style="opacity:1" fill="#066739" d="M 479.5,308.5 C 498.671,308.821 505.838,318.154 501,336.5C 494.531,345.435 486.031,347.935 475.5,344C 465.499,336.666 463.332,327.5 469,316.5C 471.94,312.963 475.44,310.297 479.5,308.5 Z"/></g>
<g><path style="opacity:1" fill="#036739" d="M 742.5,363.5 C 734.899,386.574 718.899,397.074 694.5,395C 671.008,387.99 659.675,372.157 660.5,347.5C 662.009,342.825 663.842,338.159 666,333.5C 681.284,312.137 700.784,307.304 724.5,319C 739.77,330.045 745.77,344.878 742.5,363.5 Z"/></g>
<g><path style="opacity:1" fill="#f59023" d="M 407.5,340.5 C 404.862,343.474 402.195,346.474 399.5,349.5C 380.35,352.849 371.516,344.849 373,325.5C 377.742,315.787 385.575,311.954 396.5,314C 408.276,319.499 411.942,328.332 407.5,340.5 Z"/></g>
<g><path style="opacity:1" fill="#0d673b" d="M 607.5,318.5 C 613.739,317.536 618.239,319.869 621,325.5C 622.561,332.704 620.061,337.704 613.5,340.5C 602.7,340.531 598.2,335.198 600,324.5C 601.662,321.423 604.162,319.423 607.5,318.5 Z"/></g>
<g><path style="opacity:1" fill="#06673a" d="M 778.5,325.5 C 783.687,335.792 782.021,344.792 773.5,352.5C 753.954,358.117 744.454,350.783 745,330.5C 754.311,315.228 765.478,313.562 778.5,325.5 Z"/></g>
<g><path style="opacity:1" fill="#ec4724" d="M 838.5,306.5 C 845.33,306.065 851.996,306.731 858.5,308.5C 865.057,313.202 867.224,319.536 865,327.5C 862.797,334.19 858.297,338.524 851.5,340.5C 847.466,340.495 843.466,340.162 839.5,339.5C 828.69,333.175 825.857,324.175 831,312.5C 833.106,309.882 835.606,307.882 838.5,306.5 Z"/></g>
<g><path style="opacity:1" fill="#09673b" d="M 654.5,346.5 C 650.452,347.678 646.452,347.678 642.5,346.5C 640.832,344.66 639.332,342.66 638,340.5C 636.766,327.86 642.266,323.36 654.5,327C 661.032,333.465 661.032,339.965 654.5,346.5 Z"/></g>
<g><path style="opacity:1" fill="#e15c40" d="M 898.5,328.5 C 895.275,328.589 892.275,327.923 889.5,326.5C 887.078,326.257 885.412,327.257 884.5,329.5C 883.264,328.754 881.93,328.421 880.5,328.5C 886.471,324.568 892.471,324.568 898.5,328.5 Z"/></g>
<g><path style="opacity:1" fill="#ea4927" d="M 804.5,325.5 C 817.183,324.674 822.017,330.341 819,342.5C 811.497,349.713 804.83,349.046 799,340.5C 797.087,333.97 798.92,328.97 804.5,325.5 Z"/></g>
<g><path style="opacity:1" fill="#ed4724" d="M 898.5,328.5 C 909.138,335.237 911.305,344.237 905,355.5C 898.121,362.545 889.954,364.378 880.5,361C 871.739,354.381 869.239,345.881 873,335.5C 874.736,332.261 877.236,329.927 880.5,328.5C 881.93,328.421 883.264,328.754 884.5,329.5C 885.412,327.257 887.078,326.257 889.5,326.5C 892.275,327.923 895.275,328.589 898.5,328.5 Z"/></g>
<g><path style="opacity:1" fill="#f59024" d="M 440.5,321.5 C 447.948,319.64 453.448,321.973 457,328.5C 457.164,340.006 451.664,344.506 440.5,342C 433.87,335.168 433.87,328.335 440.5,321.5 Z"/></g>
<g><path style="opacity:1" fill="#e17764" d="M 839.5,339.5 C 843.466,340.162 847.466,340.495 851.5,340.5C 850.207,341.158 848.707,341.492 847,341.5C 844.179,341.592 841.679,340.926 839.5,339.5 Z"/></g>
<g><path style="opacity:1" fill="#0a683b" d="M 511.5,341.5 C 520.683,339.762 526.016,343.429 527.5,352.5C 526.712,359.62 522.712,363.287 515.5,363.5C 507.393,362.286 503.893,357.619 505,349.5C 506.305,346.039 508.471,343.372 511.5,341.5 Z"/></g>
<g><path style="opacity:1" fill="#fae2b8" d="M 407.5,340.5 C 406.184,344.81 403.518,347.81 399.5,349.5C 402.195,346.474 404.862,343.474 407.5,340.5 Z"/></g>
<g><path style="opacity:1" fill="#ea9d49" d="M 294.5,345.5 C 301.185,348.37 308.185,349.703 315.5,349.5C 307.81,351.612 300.81,350.279 294.5,345.5 Z"/></g>
<g><path style="opacity:1" fill="#046739" d="M 637.5,350.5 C 651.109,361.251 654.942,374.918 649,391.5C 637.485,408.838 622.318,413.004 603.5,404C 589.376,392.946 585.876,379.113 593,362.5C 597.09,356.573 602.257,351.907 608.5,348.5C 618.424,345.423 628.091,346.09 637.5,350.5 Z"/></g>
<g><path style="opacity:1" fill="#e45f44" d="M 799.5,358.5 C 796.582,357.546 793.582,356.879 790.5,356.5C 788.076,357.021 785.743,357.688 783.5,358.5C 786.171,354.83 789.838,353.663 794.5,355C 796.346,356.03 798.013,357.196 799.5,358.5 Z"/></g>
<g><path style="opacity:1" fill="#036739" d="M 468.5,357.5 C 494.731,355.023 511.565,366.357 519,391.5C 520.894,414.565 511.06,430.065 489.5,438C 465.827,442.914 448.994,434.414 439,412.5C 432.59,385.314 442.423,366.98 468.5,357.5 Z"/></g>
<g><path style="opacity:1" fill="#e05138" d="M 844.5,371.5 C 844.665,368.15 844.498,364.817 844,361.5C 843.586,361.043 843.086,360.709 842.5,360.5C 839.901,364.641 839.235,364.474 840.5,360C 838.431,359.676 838.098,358.842 839.5,357.5C 834.034,356.033 829.367,357.367 825.5,361.5C 826.254,358.909 827.921,357.076 830.5,356C 837.64,353.71 842.807,355.877 846,362.5C 846.781,365.817 846.281,368.817 844.5,371.5 Z"/></g>
<g><path style="opacity:1" fill="#056739" d="M 560.5,354.5 C 580.833,353.658 588.333,362.991 583,382.5C 573.909,393.251 563.909,394.251 553,385.5C 544.973,372.488 547.473,362.155 560.5,354.5 Z"/></g>
<g><path style="opacity:1" fill="#ee4522" d="M 799.5,358.5 C 799.5,358.833 799.5,359.167 799.5,359.5C 800.324,362.764 800.658,366.098 800.5,369.5C 794.183,371.391 788.183,370.724 782.5,367.5C 782.167,366.5 781.833,365.5 781.5,364.5C 781.719,362.307 782.385,360.307 783.5,358.5C 785.743,357.688 788.076,357.021 790.5,356.5C 793.582,356.879 796.582,357.546 799.5,358.5 Z"/></g>
<g><path style="opacity:1" fill="#d35640" d="M 825.5,361.5 C 825.53,365.618 826.197,369.618 827.5,373.5C 826.034,372.653 825.2,371.32 825,369.5C 824.199,366.633 824.366,363.966 825.5,361.5 Z"/></g>
<g><path style="opacity:1" fill="#f59023" d="M 361.5,356.5 C 380.465,355.964 387.965,364.964 384,383.5C 377.127,392.902 368.293,395.402 357.5,391C 347.979,383.348 346.146,374.182 352,363.5C 354.529,360.115 357.696,357.782 361.5,356.5 Z"/></g>
<g><path style="opacity:1" fill="#ed4723" d="M 844.5,371.5 C 840.961,377.424 835.961,378.924 829.5,376C 828.619,375.292 827.953,374.458 827.5,373.5C 826.197,369.618 825.53,365.618 825.5,361.5C 829.367,357.367 834.034,356.033 839.5,357.5C 838.098,358.842 838.431,359.676 840.5,360C 839.235,364.474 839.901,364.641 842.5,360.5C 843.086,360.709 843.586,361.043 844,361.5C 844.498,364.817 844.665,368.15 844.5,371.5 Z"/></g>
<g><path style="opacity:1" fill="#f58f21" d="M 319.5,383.5 C 319.785,381.712 319.452,380.045 318.5,378.5C 317.914,378.709 317.414,379.043 317,379.5C 316.306,375.446 316.473,371.446 317.5,367.5C 323.026,362.323 328.693,362.323 334.5,367.5C 339.414,380.405 335.081,386.238 321.5,385C 320.584,384.722 319.918,384.222 319.5,383.5 Z"/></g>
<g><path style="opacity:1" fill="#e84e31" d="M 783.5,358.5 C 782.385,360.307 781.719,362.307 781.5,364.5C 781.833,365.5 782.167,366.5 782.5,367.5C 788.183,370.724 794.183,371.391 800.5,369.5C 800.658,366.098 800.324,362.764 799.5,359.5C 803.723,365.043 803.056,370.21 797.5,375C 789.526,378.939 783.693,376.773 780,368.5C 778.755,364.235 779.922,360.902 783.5,358.5 Z"/></g>
<g><path style="opacity:1" fill="#e8a459" d="M 420.5,373.5 C 415.135,372.74 410.468,374.074 406.5,377.5C 407.359,374.548 409.359,372.715 412.5,372C 415.538,371.115 418.205,371.615 420.5,373.5 Z"/></g>
<g><path style="opacity:1" fill="#ea9b45" d="M 317.5,367.5 C 316.473,371.446 316.306,375.446 317,379.5C 317.414,379.043 317.914,378.709 318.5,378.5C 319.452,380.045 319.785,381.712 319.5,383.5C 314.881,380.366 313.381,376.032 315,370.5C 315.377,369.058 316.21,368.058 317.5,367.5 Z"/></g>
<g><path style="opacity:1" fill="#fb8d19" d="M 420.5,373.5 C 420.833,373.5 421.167,373.5 421.5,373.5C 421.5,374.5 421.5,375.5 421.5,376.5C 420.167,376.5 418.833,376.5 417.5,376.5C 417.079,379.657 418.245,381.99 421,383.5C 422.017,381.624 422.851,379.624 423.5,377.5C 424.086,377.709 424.586,378.043 425,378.5C 425.043,382.217 424.543,385.884 423.5,389.5C 422.5,389.5 421.5,389.5 420.5,389.5C 420.5,387.833 420.5,386.167 420.5,384.5C 419.5,384.5 418.5,384.5 417.5,384.5C 417.468,390.58 416.302,390.913 414,385.5C 413.833,385.167 413.667,384.833 413.5,384.5C 414.376,383.749 415.376,383.249 416.5,383C 414.826,381.494 413.826,379.661 413.5,377.5C 412.178,377.33 411.011,377.663 410,378.5C 408.439,387.496 407.272,387.163 406.5,377.5C 410.468,374.074 415.135,372.74 420.5,373.5 Z"/></g>
<g><path style="opacity:1" fill="#f2922b" d="M 421.5,373.5 C 427.713,377.732 428.88,383.065 425,389.5C 414.632,397.567 407.798,395.234 404.5,382.5C 404.436,380.443 405.102,378.777 406.5,377.5C 407.272,387.163 408.439,387.496 410,378.5C 411.011,377.663 412.178,377.33 413.5,377.5C 413.826,379.661 414.826,381.494 416.5,383C 415.376,383.249 414.376,383.749 413.5,384.5C 413.667,384.833 413.833,385.167 414,385.5C 416.302,390.913 417.468,390.58 417.5,384.5C 418.5,384.5 419.5,384.5 420.5,384.5C 420.5,386.167 420.5,387.833 420.5,389.5C 421.5,389.5 422.5,389.5 423.5,389.5C 424.543,385.884 425.043,382.217 425,378.5C 424.586,378.043 424.086,377.709 423.5,377.5C 422.851,379.624 422.017,381.624 421,383.5C 418.245,381.99 417.079,379.657 417.5,376.5C 418.833,376.5 420.167,376.5 421.5,376.5C 421.5,375.5 421.5,374.5 421.5,373.5 Z"/></g>
<g><path style="opacity:1" fill="#09683b" d="M 535.5,383.5 C 549.183,383.672 553.35,390.005 548,402.5C 542.333,406.5 536.667,406.5 531,402.5C 526.598,394.644 528.098,388.31 535.5,383.5 Z"/></g>
<g><path style="opacity:1" fill="#3e3e3e" d="M 802.5,406.5 C 805.5,406.5 808.5,406.5 811.5,406.5C 811.333,434.835 811.5,463.169 812,491.5C 824.416,474.912 839.916,471.079 858.5,480C 862.381,482.928 864.881,486.761 866,491.5C 866.5,511.831 866.667,532.164 866.5,552.5C 863.5,552.5 860.5,552.5 857.5,552.5C 857.667,533.497 857.5,514.497 857,495.5C 854.073,486.614 847.906,482.614 838.5,483.5C 824.724,484.768 815.891,492.102 812,505.5C 811.5,521.163 811.333,536.83 811.5,552.5C 808.5,552.5 805.5,552.5 802.5,552.5C 802.5,503.833 802.5,455.167 802.5,406.5 Z"/></g>
<g><path style="opacity:1" fill="#09683a" d="M 529.5,410.5 C 545.998,410.835 553.164,419.168 551,435.5C 544.623,447.935 535.123,451.102 522.5,445C 511.902,434.635 511.902,424.301 522.5,414C 524.925,412.787 527.259,411.621 529.5,410.5 Z"/></g>
<g><path style="opacity:1" fill="#0e683c" d="M 565.5,421.5 C 574.367,419.76 579.701,423.26 581.5,432C 580.301,440.772 575.301,444.439 566.5,443C 556.303,436.213 555.97,429.046 565.5,421.5 Z"/></g>
<g><path style="opacity:1" fill="#404040" d="M 345.5,443.5 C 354.088,443.398 356.421,447.064 352.5,454.5C 344.715,457.202 341.215,454.536 342,446.5C 343.145,445.364 344.312,444.364 345.5,443.5 Z"/></g>
<g><path style="opacity:1" fill="#3d3d3d" d="M 343.5,477.5 C 346.5,477.5 349.5,477.5 352.5,477.5C 352.667,504.835 352.5,532.169 352,559.5C 351.342,571.148 346.675,580.815 338,588.5C 336.167,586.667 334.333,584.833 332.5,583C 337.725,576.38 341.225,568.88 343,560.5C 343.5,532.835 343.667,505.169 343.5,477.5 Z"/></g>
<g><path style="opacity:1" fill="#919191" d="M 463.5,484.5 C 462.532,482.393 462.198,480.059 462.5,477.5C 460.167,477.5 457.833,477.5 455.5,477.5C 455.5,514.5 455.5,551.5 455.5,588.5C 454.502,551.337 454.168,514.004 454.5,476.5C 457.5,476.5 460.5,476.5 463.5,476.5C 463.5,479.167 463.5,481.833 463.5,484.5 Z"/></g>
<g><path style="opacity:1" fill="#3e3e3e" d="M 465.5,538.5 C 465.217,537.711 464.717,537.044 464,536.5C 463.5,553.83 463.333,571.163 463.5,588.5C 460.833,588.5 458.167,588.5 455.5,588.5C 455.5,551.5 455.5,514.5 455.5,477.5C 457.833,477.5 460.167,477.5 462.5,477.5C 462.198,480.059 462.532,482.393 463.5,484.5C 463.336,487.187 463.503,489.854 464,492.5C 480.453,473.557 499.62,470.391 521.5,483C 536.465,497.873 539.632,515.039 531,534.5C 520.641,549.965 506.141,556.132 487.5,553C 478.405,550.721 471.072,545.888 465.5,538.5 Z"/></g>
<g><path style="opacity:1" fill="#fcfcfc" d="M 489.5,482.5 C 514.833,482.665 527,495.331 526,520.5C 520.591,539.296 508.091,547.796 488.5,546C 470.741,540.325 462.575,528.159 464,509.5C 466.936,495.14 475.436,486.14 489.5,482.5 Z"/></g>
<g><path style="opacity:1" fill="#404040" d="M 743.5,475.5 C 755.952,474.399 767.285,477.399 777.5,484.5C 775.833,486.5 774.167,488.5 772.5,490.5C 762.838,483.402 752.171,481.569 740.5,485C 722.413,494.583 716.913,509.083 724,528.5C 733.339,544.283 746.839,549.45 764.5,544C 767.249,542.877 769.749,541.377 772,539.5C 773.833,541.333 775.667,543.167 777.5,545C 766.697,552.699 754.697,555.366 741.5,553C 718.556,544.968 709.056,528.801 713,504.5C 718.189,489.475 728.355,479.809 743.5,475.5 Z"/></g>
<g><path style="opacity:1" fill="#404040" d="M 396.5,475.5 C 407.381,474.502 417.048,477.336 425.5,484C 424.36,485.973 423.027,487.807 421.5,489.5C 412.868,482.168 403.535,481.002 393.5,486C 387.938,492.62 388.272,498.953 394.5,505C 403.618,508.814 412.618,512.814 421.5,517C 428.587,525.439 429.421,534.606 424,544.5C 420.138,549.036 415.305,551.869 409.5,553C 400.843,554.336 392.51,553.336 384.5,550C 381.689,548.356 379.356,546.19 377.5,543.5C 378.124,541.246 379.457,539.579 381.5,538.5C 391.504,547.262 402.504,548.762 414.5,543C 418.243,538.521 419.409,533.354 418,527.5C 417.044,526.421 416.211,525.255 415.5,524C 407.513,519.584 399.18,515.917 390.5,513C 381.681,507.559 378.514,499.726 381,489.5C 384.049,482.407 389.215,477.74 396.5,475.5 Z"/></g>
<g><path style="opacity:1" fill="#404040" d="M 575.5,475.5 C 584.409,474.748 592.742,476.581 600.5,481C 604.244,484.096 603.911,486.929 599.5,489.5C 591.622,483.031 582.956,481.531 573.5,485C 566.357,490.666 565.69,497 571.5,504C 580.382,508.186 589.382,512.186 598.5,516C 607.438,523.816 608.938,532.983 603,543.5C 599.517,548.636 594.684,551.803 588.5,553C 577.599,555.114 567.599,553.114 558.5,547C 557.313,545.981 556.313,544.814 555.5,543.5C 556.833,541.833 558.167,540.167 559.5,538.5C 569.02,546.796 579.687,548.629 591.5,544C 599.5,536.667 599.5,529.333 591.5,522C 583.338,519.057 575.338,515.724 567.5,512C 558.983,505.777 556.483,497.611 560,487.5C 563.659,481.435 568.826,477.435 575.5,475.5 Z"/></g>
<g><path style="opacity:1" fill="#3f3f3f" d="M 622.5,477.5 C 625.898,477.18 629.232,477.513 632.5,478.5C 641.726,499.286 651.226,519.953 661,540.5C 670.718,519.732 679.884,498.732 688.5,477.5C 691.572,477.183 694.572,477.516 697.5,478.5C 681.264,514.967 665.597,551.634 650.5,588.5C 647.102,588.82 643.768,588.487 640.5,587.5C 645.93,575.709 651.264,563.875 656.5,552C 645.064,527.184 633.731,502.351 622.5,477.5 Z"/></g>
<g><path style="opacity:1" fill="#a1a1a1" d="M 465.5,538.5 C 464.833,555.167 464.167,571.833 463.5,588.5C 463.333,571.163 463.5,553.83 464,536.5C 464.717,537.044 465.217,537.711 465.5,538.5 Z"/></g>
</svg>
