<?xml version="1.0" encoding="UTF-8"?>
<!DOCTYPE svg PUBLIC "-//W3C//DTD SVG 1.1//EN" "http://www.w3.org/Graphics/SVG/1.1/DTD/svg11.dtd">
<svg xmlns="http://www.w3.org/2000/svg" version="1.1" width="410px" height="70px" style="shape-rendering:geometricPrecision; text-rendering:geometricPrecision; image-rendering:optimizeQuality; fill-rule:evenodd; clip-rule:evenodd" xmlns:xlink="http://www.w3.org/1999/xlink">
<g><path style="opacity:1" fill="#fdfdfd" d="M 175.5,-0.5 C 253.5,-0.5 331.5,-0.5 409.5,-0.5C 409.5,22.8333 409.5,46.1667 409.5,69.5C 351.5,69.5 293.5,69.5 235.5,69.5C 237.42,68.9348 239.087,67.9348 240.5,66.5C 240.953,65.5416 241.619,64.7083 242.5,64C 246.421,63.797 250.255,63.297 254,62.5C 254.333,62.8333 254.667,63.1667 255,63.5C 254.979,57.4931 255.812,51.6598 257.5,46C 257.37,44.9412 256.87,44.1079 256,43.5C 254.841,49.1514 252.007,50.1514 247.5,46.5C 249.005,45.1585 249.672,43.4918 249.5,41.5C 250.5,41.5 251.5,41.5 252.5,41.5C 255.054,42.388 257.721,42.7214 260.5,42.5C 261.189,43.7736 262.023,43.7736 263,42.5C 264.883,43.6526 265.716,45.3193 265.5,47.5C 266.552,47.6495 267.552,47.4828 268.5,47C 269.833,46.3333 269.833,45.6667 268.5,45C 270.23,43.1476 271.396,43.3143 272,45.5C 273.518,44.8366 274.685,43.8366 275.5,42.5C 275.5,38.5 275.5,34.5 275.5,30.5C 274.167,30.5 272.833,30.5 271.5,30.5C 271.5,33.5 271.5,36.5 271.5,39.5C 270.5,39.5 269.5,39.5 268.5,39.5C 268.666,35.4862 268.499,31.4862 268,27.5C 264.93,27.6612 261.764,27.6612 258.5,27.5C 254.773,30.3947 251.44,30.0614 248.5,26.5C 247.791,25.596 246.791,25.2627 245.5,25.5C 244.833,28.1667 244.167,30.8333 243.5,33.5C 242.011,31.1949 240.511,28.8616 239,26.5C 237.989,25.6634 236.822,25.33 235.5,25.5C 233.198,29.7265 231.864,34.3932 231.5,39.5C 230.5,40.8333 229.5,40.8333 228.5,39.5C 229.822,37.1332 229.155,35.4665 226.5,34.5C 226.672,33.5084 226.338,32.8417 225.5,32.5C 225.539,31.4168 225.873,30.4168 226.5,29.5C 225.047,29.9402 223.881,29.2735 223,27.5C 220.148,28.8647 217.482,28.5314 215,26.5C 210.588,27.3257 206.088,27.3257 201.5,26.5C 201.649,25.448 201.483,24.448 201,23.5C 199.989,24.3366 198.822,24.67 197.5,24.5C 197.335,21.4816 197.502,18.4816 198,15.5C 199.356,14.6198 200.856,14.2865 202.5,14.5C 202.351,13.448 202.517,12.448 203,11.5C 203.654,12.6956 204.154,12.6956 204.5,11.5C 203.478,10.646 202.645,9.646 202,8.5C 199.724,11.0636 197.724,10.7303 196,7.5C 195.667,8.16667 195.333,8.83333 195,9.5C 193.586,8.58679 192.086,8.58679 190.5,9.5C 190.189,8.52216 189.522,7.85549 188.5,7.5C 186.765,8.05696 185.098,8.39029 183.5,8.5C 182.41,7.60862 182.41,6.60862 183.5,5.5C 181.123,4.14686 178.79,3.64686 176.5,4C 176.786,2.61229 176.452,1.11229 175.5,-0.5 Z"/></g>
<g><path style="opacity:1" fill="#5d6c87" d="M 180.5,11.5 C 178.853,14.9207 178.187,18.5874 178.5,22.5C 177.811,23.7736 176.977,23.7736 176,22.5C 175.762,18.7778 175.262,15.1111 174.5,11.5C 174.977,6.81285 177.311,5.47951 181.5,7.5C 180.5,8.16667 179.5,8.83333 178.5,9.5C 179.243,10.1818 179.909,10.8485 180.5,11.5 Z"/></g>
<g><path style="opacity:1" fill="#3888ad" d="M 43.5,6.5 C 43.8333,6.5 44.1667,6.5 44.5,6.5C 44.5,6.83333 44.5,7.16667 44.5,7.5C 39.6367,7.18054 34.97,7.51388 30.5,8.5C 28.8008,8.33982 27.1341,8.50649 25.5,9C 26.1667,9.33333 26.8333,9.66667 27.5,10C 25.8068,10.8466 24.1401,11.6799 22.5,12.5C 16.3338,12.1428 12.5005,14.8095 11,20.5C 9.17204,22.0814 7.17204,23.4147 5,24.5C 4.50031,32.1594 4.33365,39.8261 4.5,47.5C -1.85111,33.0419 1.48223,21.2086 14.5,12C 23.624,7.40873 33.2906,5.5754 43.5,6.5 Z"/></g>
<g><path style="opacity:1" fill="#0885c4" d="M 22.5,12.5 C 23.5285,13.7874 23.1952,14.9541 21.5,16C 22.385,18.1566 24.0516,18.9899 26.5,18.5C 25.5873,21.078 24.254,23.4113 22.5,25.5C 20.8079,27.2048 19.4746,29.2048 18.5,31.5C 16.8333,31.5 15.1667,31.5 13.5,31.5C 12.8872,37.2709 13.5539,42.6042 15.5,47.5C 14.2547,49.2455 12.9214,50.9122 11.5,52.5C 11.8627,53.1835 12.1961,53.8501 12.5,54.5C 9.83333,52.1667 7.16667,49.8333 4.5,47.5C 4.33365,39.8261 4.50031,32.1594 5,24.5C 7.17204,23.4147 9.17204,22.0814 11,20.5C 12.5005,14.8095 16.3338,12.1428 22.5,12.5 Z"/></g>
<g><path style="opacity:1" fill="#e4edf4" d="M 225.5,32.5 C 216.499,28.8301 213.499,31.8301 216.5,41.5C 214.872,42.4886 212.872,42.8219 210.5,42.5C 211.248,38.4224 212.248,34.4224 213.5,30.5C 212.325,30.281 211.325,30.6143 210.5,31.5C 208.456,37.9425 206.79,37.6092 205.5,30.5C 203.706,29.7671 202.039,28.7671 200.5,27.5C 200.179,25.9519 199.179,25.2852 197.5,25.5C 197.5,26.5 197.5,27.5 197.5,28.5C 196.432,29.4345 195.099,29.7678 193.5,29.5C 192.167,25.5 190.833,25.5 189.5,29.5C 188.1,28.9002 187.1,27.9002 186.5,26.5C 185.791,25.596 184.791,25.2627 183.5,25.5C 183.5,26.5 183.5,27.5 183.5,28.5C 183.5,29.1667 183.5,29.8333 183.5,30.5C 183.5,34.5 183.5,38.5 183.5,42.5C 182.834,38.6475 182.167,34.6475 181.5,30.5C 180.893,30.6236 180.56,30.9569 180.5,31.5C 180.167,31.5 179.833,31.5 179.5,31.5C 176.272,30.5863 172.939,30.2529 169.5,30.5C 169.183,34.7016 169.517,38.7016 170.5,42.5C 171.209,43.404 172.209,43.7373 173.5,43.5C 173.5,44.8333 173.5,46.1667 173.5,47.5C 176.374,47.4511 179.208,47.7844 182,48.5C 183.326,48.2451 184.326,47.5784 185,46.5C 185.833,48 187,49.1667 188.5,50C 188.272,50.3988 187.938,50.5654 187.5,50.5C 179.331,47.1256 175.665,49.7923 176.5,58.5C 175.549,57.0813 175.216,55.4147 175.5,53.5C 174.5,53.5 173.5,53.5 172.5,53.5C 172.806,56.3854 172.473,59.0521 171.5,61.5C 171.5,58.8333 171.5,56.1667 171.5,53.5C 172.568,52.5655 173.901,52.2322 175.5,52.5C 175.5,51.5 175.5,50.5 175.5,49.5C 173.167,49.5 170.833,49.5 168.5,49.5C 167.518,52.9619 167.185,56.6286 167.5,60.5C 166.833,60.5 166.167,60.5 165.5,60.5C 165.5,56.8333 165.5,53.1667 165.5,49.5C 164.167,49.5 162.833,49.5 161.5,49.5C 161.664,52.1873 161.497,54.854 161,57.5C 159.989,58.3366 158.822,58.67 157.5,58.5C 157.5,55.5 157.5,52.5 157.5,49.5C 157.5,48.8333 157.5,48.1667 157.5,47.5C 154.981,47.1523 153.147,45.8189 152,43.5C 151.667,43.8333 151.333,44.1667 151,44.5C 148.723,43.8828 146.556,43.2161 144.5,42.5C 152.571,41.9071 154.571,38.0738 150.5,31C 148.527,30.5045 146.527,30.3379 144.5,30.5C 148.182,29.7388 152.015,29.0721 156,28.5C 158.27,29.9988 160.27,29.6654 162,27.5C 163.889,28.9304 166.055,29.5971 168.5,29.5C 171.261,28.2577 173.928,27.5911 176.5,27.5C 178.173,29.0863 180.173,29.7529 182.5,29.5C 182.702,27.0108 182.202,24.6775 181,22.5C 180.23,21.4019 179.397,21.4019 178.5,22.5C 178.187,18.5874 178.853,14.9207 180.5,11.5C 181.167,11.8333 181.833,12.1667 182.5,12.5C 179.607,20.6035 182.274,24.1035 190.5,23C 194.604,15.2679 192.27,11.4346 183.5,11.5C 185.715,10.7321 188.048,10.0654 190.5,9.5C 192.086,8.58679 193.586,8.58679 195,9.5C 195.333,8.83333 195.667,8.16667 196,7.5C 197.724,10.7303 199.724,11.0636 202,8.5C 202.645,9.646 203.478,10.646 204.5,11.5C 204.154,12.6956 203.654,12.6956 203,11.5C 202.517,12.448 202.351,13.448 202.5,14.5C 200.856,14.2865 199.356,14.6198 198,15.5C 197.502,18.4816 197.335,21.4816 197.5,24.5C 198.822,24.67 199.989,24.3366 201,23.5C 201.483,24.448 201.649,25.448 201.5,26.5C 206.088,27.3257 210.588,27.3257 215,26.5C 217.482,28.5314 220.148,28.8647 223,27.5C 223.881,29.2735 225.047,29.9402 226.5,29.5C 225.873,30.4168 225.539,31.4168 225.5,32.5 Z"/></g>
<g><path style="opacity:1" fill="#505b6d" d="M 194.5,11.5 C 196.604,11.2011 198.604,11.5344 200.5,12.5C 199.311,13.4287 197.978,13.762 196.5,13.5C 196.817,16.5719 196.484,19.5719 195.5,22.5C 194.511,18.8927 194.177,15.226 194.5,11.5 Z"/></g>
<g><path style="opacity:1" fill="#5a6477" d="M 183.5,11.5 C 192.27,11.4346 194.604,15.2679 190.5,23C 182.274,24.1035 179.607,20.6035 182.5,12.5C 182.5,11.8333 182.833,11.5 183.5,11.5 Z"/></g>
<g><path style="opacity:1" fill="#e3eef4" d="M 183.5,13.5 C 185.5,13.5 187.5,13.5 189.5,13.5C 189.663,15.8568 189.497,18.1902 189,20.5C 187.333,21.8333 185.667,21.8333 184,20.5C 183.503,18.1902 183.337,15.8568 183.5,13.5 Z"/></g>
<g><path style="opacity:1" fill="#565b69" d="M 186.5,26.5 C 186.179,28.0481 185.179,28.7148 183.5,28.5C 183.5,27.5 183.5,26.5 183.5,25.5C 184.791,25.2627 185.791,25.596 186.5,26.5 Z"/></g>
<g><path style="opacity:1" fill="#5c636c" d="M 200.5,27.5 C 199.791,28.404 198.791,28.7373 197.5,28.5C 197.5,27.5 197.5,26.5 197.5,25.5C 199.179,25.2852 200.179,25.9519 200.5,27.5 Z"/></g>
<g><path style="opacity:1" fill="#dbe5f0" d="M 308.5,30.5 C 305.881,30.2317 303.381,30.565 301,31.5C 300.333,32.8333 300.333,34.1667 301,35.5C 302.932,37.0383 305.099,38.205 307.5,39C 306.975,39.6924 306.308,40.1924 305.5,40.5C 303.93,38.6212 302.264,38.2878 300.5,39.5C 298.97,40.2112 297.637,41.2112 296.5,42.5C 294.754,43.2176 294.088,44.2176 294.5,45.5C 292.556,44.8108 290.556,44.3108 288.5,44C 287.845,42.5134 286.845,41.3467 285.5,40.5C 284.378,41.6302 283.044,42.2969 281.5,42.5C 281.5,39.5 281.5,36.5 281.5,33.5C 282.833,33.5 284.167,33.5 285.5,33.5C 285.5,32.5 285.5,31.5 285.5,30.5C 282.833,30.5 280.167,30.5 277.5,30.5C 278.867,26.8359 281.034,26.5026 284,29.5C 285.685,27.0122 287.019,27.3455 288,30.5C 292.771,29.3408 297.271,28.3408 301.5,27.5C 304.176,27.9394 306.509,28.9394 308.5,30.5 Z"/></g>
<g><path style="opacity:1" fill="#2e7ba1" d="M 22.5,25.5 C 23.5,25.5 24.5,25.5 25.5,25.5C 24.5213,27.1454 23.188,28.4787 21.5,29.5C 18.9955,35.2797 20.6621,39.1131 26.5,41C 27.2524,41.6708 27.5858,42.5041 27.5,43.5C 24.5944,43.0435 21.9278,42.0435 19.5,40.5C 17.2267,37.778 16.8933,34.778 18.5,31.5C 19.4746,29.2048 20.8079,27.2048 22.5,25.5 Z"/></g>
<g><path style="opacity:1" fill="#ccdaeb" d="M 200.5,27.5 C 202.039,28.7671 203.706,29.7671 205.5,30.5C 204.209,30.2627 203.209,30.596 202.5,31.5C 201.833,35.1667 201.167,38.8333 200.5,42.5C 200.5,38.5 200.5,34.5 200.5,30.5C 199.5,30.5 198.5,30.5 197.5,30.5C 197.5,34.5 197.5,38.5 197.5,42.5C 195.389,43.7416 193.389,43.7416 191.5,42.5C 192.833,42.5 194.167,42.5 195.5,42.5C 194.871,40.5351 194.204,38.5351 193.5,36.5C 193.878,34.8651 194.544,33.3651 195.5,32C 194.944,30.9889 194.278,30.1556 193.5,29.5C 195.099,29.7678 196.432,29.4345 197.5,28.5C 198.791,28.7373 199.791,28.404 200.5,27.5 Z"/></g>
<g><path style="opacity:1" fill="#465876" d="M 381.5,32.5 C 382.11,33.391 382.443,34.391 382.5,35.5C 380.283,37.0799 377.616,38.0799 374.5,38.5C 374.833,39.5 375.5,40.1667 376.5,40.5C 377.85,39.0499 379.516,38.3832 381.5,38.5C 381.5,39.5 381.5,40.5 381.5,41.5C 380.833,41.8333 380.167,42.1667 379.5,42.5C 372.722,42.5415 370.222,39.2082 372,32.5C 375.164,29.8881 378.331,29.8881 381.5,32.5 Z"/></g>
<g><path style="opacity:1" fill="#465b80" d="M 394.5,25.5 C 401.464,25.2891 403.131,28.1224 399.5,34C 399.833,34.5 400.167,35 400.5,35.5C 401.736,34.7542 403.07,34.4208 404.5,34.5C 403.768,37.137 403.768,39.637 404.5,42C 400.603,42.466 396.603,42.2993 392.5,41.5C 389.733,38.2142 390.066,35.2142 393.5,32.5C 391.984,29.8257 392.317,27.4924 394.5,25.5 Z"/></g>
<g><path style="opacity:1" fill="#c5e3fd" d="M 396.5,28.5 C 398.337,28.6395 398.67,29.3061 397.5,30.5C 396.702,30.0431 396.369,29.3764 396.5,28.5 Z"/></g>
<g><path style="opacity:1" fill="#4a5979" d="M 144.5,30.5 C 146.527,30.3379 148.527,30.5045 150.5,31C 154.571,38.0738 152.571,41.9071 144.5,42.5C 140.256,39.7329 139.422,36.0663 142,31.5C 142.671,30.7476 143.504,30.4142 144.5,30.5 Z"/></g>
<g><path style="opacity:1" fill="#425773" d="M 179.5,31.5 C 179.82,34.8984 179.487,38.2317 178.5,41.5C 177.832,38.6944 177.166,36.0277 176.5,33.5C 175.458,32.2089 174.292,32.2089 173,33.5C 173.07,36.992 172.237,39.992 170.5,42.5C 169.517,38.7016 169.183,34.7016 169.5,30.5C 172.939,30.2529 176.272,30.5863 179.5,31.5 Z"/></g>
<g><path style="opacity:1" fill="#bac7dc" d="M 186.5,26.5 C 187.1,27.9002 188.1,28.9002 189.5,29.5C 188.89,30.391 188.557,31.391 188.5,32.5C 187.518,35.9619 187.185,39.6286 187.5,43.5C 185.901,43.7678 184.568,43.4345 183.5,42.5C 184.5,42.5 185.5,42.5 186.5,42.5C 186.5,38.5 186.5,34.5 186.5,30.5C 185.5,30.5 184.5,30.5 183.5,30.5C 183.5,29.8333 183.5,29.1667 183.5,28.5C 185.179,28.7148 186.179,28.0481 186.5,26.5 Z"/></g>
<g><path style="opacity:1" fill="#475980" d="M 235.5,25.5 C 236.822,25.33 237.989,25.6634 239,26.5C 240.511,28.8616 242.011,31.1949 243.5,33.5C 243.369,34.3764 243.702,35.0431 244.5,35.5C 245.487,32.2317 245.82,28.8984 245.5,25.5C 246.791,25.2627 247.791,25.596 248.5,26.5C 248.5,31.8333 248.5,37.1667 248.5,42.5C 247.022,42.762 245.689,42.4287 244.5,41.5C 242.914,38.6595 241.08,35.9928 239,33.5C 238.502,36.4816 238.335,39.4816 238.5,42.5C 237.5,42.5 236.5,42.5 235.5,42.5C 235.5,36.8333 235.5,31.1667 235.5,25.5 Z"/></g>
<g><path style="opacity:1" fill="#98acc5" d="M 245.5,25.5 C 245.82,28.8984 245.487,32.2317 244.5,35.5C 243.702,35.0431 243.369,34.3764 243.5,33.5C 244.167,30.8333 244.833,28.1667 245.5,25.5 Z"/></g>
<g><path style="opacity:1" fill="#506081" d="M 277.5,30.5 C 280.167,30.5 282.833,30.5 285.5,30.5C 285.5,31.5 285.5,32.5 285.5,33.5C 284.167,33.5 282.833,33.5 281.5,33.5C 281.5,36.5 281.5,39.5 281.5,42.5C 280.167,42.5 278.833,42.5 277.5,42.5C 277.5,38.5 277.5,34.5 277.5,30.5 Z"/></g>
<g><path style="opacity:1" fill="#cfdeea" d="M 309.5,30.5 C 311.5,30.5 313.5,30.5 315.5,30.5C 312.472,32.947 311.805,35.947 313.5,39.5C 312.5,40.1667 311.5,40.8333 310.5,41.5C 311.181,36.845 309.181,34.1783 304.5,33.5C 305.922,32.4528 307.422,32.4528 309,33.5C 310.683,32.8235 310.85,31.8235 309.5,30.5 Z"/></g>
<g><path style="opacity:1" fill="#a9c2e1" d="M 375.5,32.5 C 376.5,32.5 377.5,32.5 378.5,32.5C 378.5,33.5 378.5,34.5 378.5,35.5C 377.5,35.5 376.5,35.5 375.5,35.5C 375.5,34.5 375.5,33.5 375.5,32.5 Z"/></g>
<g><path style="opacity:1" fill="#0a7ec5" d="M 18.5,31.5 C 16.8933,34.778 17.2267,37.778 19.5,40.5C 18.1667,42.8333 16.8333,45.1667 15.5,47.5C 13.5539,42.6042 12.8872,37.2709 13.5,31.5C 15.1667,31.5 16.8333,31.5 18.5,31.5 Z"/></g>
<g><path style="opacity:1" fill="#deeff9" d="M 145.5,33.5 C 146.833,33.5 148.167,33.5 149.5,33.5C 150.575,37.938 148.908,39.938 144.5,39.5C 144.325,37.3792 144.659,35.3792 145.5,33.5 Z"/></g>
<g><path style="opacity:1" fill="#7e91ae" d="M 179.5,31.5 C 179.833,31.5 180.167,31.5 180.5,31.5C 180.5,35.1667 180.5,38.8333 180.5,42.5C 179.167,42.5 177.833,42.5 176.5,42.5C 176.5,39.5 176.5,36.5 176.5,33.5C 177.166,36.0277 177.832,38.6944 178.5,41.5C 179.487,38.2317 179.82,34.8984 179.5,31.5 Z"/></g>
<g><path style="opacity:1" fill="#4a5b7c" d="M 308.5,30.5 C 308.833,30.5 309.167,30.5 309.5,30.5C 310.85,31.8235 310.683,32.8235 309,33.5C 307.422,32.4528 305.922,32.4528 304.5,33.5C 309.181,34.1783 311.181,36.845 310.5,41.5C 307.592,42.5691 304.592,42.7358 301.5,42C 300.748,41.3292 300.414,40.4959 300.5,39.5C 302.264,38.2878 303.93,38.6212 305.5,40.5C 306.308,40.1924 306.975,39.6924 307.5,39C 305.099,38.205 302.932,37.0383 301,35.5C 300.333,34.1667 300.333,32.8333 301,31.5C 303.381,30.565 305.881,30.2317 308.5,30.5 Z"/></g>
<g><path style="opacity:1" fill="#4e597b" d="M 315.5,30.5 C 317.857,30.3367 320.19,30.5034 322.5,31C 323.337,32.0113 323.67,33.1779 323.5,34.5C 321.35,34.0948 319.35,33.5948 317.5,33C 316.577,35.0408 316.244,37.2075 316.5,39.5C 318.861,39.3259 321.194,38.9926 323.5,38.5C 323.27,41.4648 321.603,42.7981 318.5,42.5C 316.032,42.6773 314.365,41.6773 313.5,39.5C 311.805,35.947 312.472,32.947 315.5,30.5 Z"/></g>
<g><path style="opacity:1" fill="#45577a" d="M 342.5,33.5 C 342.5,34.8333 342.5,36.1667 342.5,37.5C 340.076,37.1924 337.743,37.5258 335.5,38.5C 337.001,40.9572 338.668,40.9572 340.5,38.5C 341.626,39.8084 341.626,41.1417 340.5,42.5C 338.5,42.5 336.5,42.5 334.5,42.5C 331.522,39.2742 330.855,35.6075 332.5,31.5C 336.466,29.6792 339.799,30.3459 342.5,33.5 Z"/></g>
<g><path style="opacity:1" fill="#9fb2d4" d="M 335.5,32.5 C 336.833,32.5 338.167,32.5 339.5,32.5C 339.5,33.5 339.5,34.5 339.5,35.5C 338.167,35.5 336.833,35.5 335.5,35.5C 335.5,34.5 335.5,33.5 335.5,32.5 Z"/></g>
<g><path style="opacity:1" fill="#47567c" d="M 329.5,30.5 C 329.5,34.5 329.5,38.5 329.5,42.5C 328.5,42.5 327.5,42.5 326.5,42.5C 326.5,38.5 326.5,34.5 326.5,30.5C 327.5,30.5 328.5,30.5 329.5,30.5 Z"/></g>
<g><path style="opacity:1" fill="#e1ecf3" d="M 381.5,32.5 C 378.331,29.8881 375.164,29.8881 372,32.5C 370.222,39.2082 372.722,42.5415 379.5,42.5C 377.708,43.3091 375.708,43.8091 373.5,44C 375.645,44.7431 375.811,45.5765 374,46.5C 372.333,45.8333 370.667,45.1667 369,44.5C 368.055,44.9054 367.388,45.572 367,46.5C 366.255,45.0096 365.088,44.0096 363.5,43.5C 362.136,44.0431 360.803,44.2098 359.5,44C 360.056,43.6174 360.389,43.1174 360.5,42.5C 362.857,42.6633 365.19,42.4966 367.5,42C 369.037,40.8904 369.703,39.3904 369.5,37.5C 367.263,38.449 364.929,39.1156 362.5,39.5C 361.172,33.3589 363.006,31.6922 368,34.5C 369.726,33.3521 369.559,32.1855 367.5,31C 358.43,29.8644 356.096,33.3644 360.5,41.5C 359.292,42.2341 357.959,42.5674 356.5,42.5C 356.665,39.1501 356.498,35.8168 356,32.5C 354.211,30.771 352.044,30.1043 349.5,30.5C 351.292,29.6909 353.292,29.1909 355.5,29C 354.304,28.3457 354.304,27.8457 355.5,27.5C 356.5,28.1667 357.5,28.8333 358.5,29.5C 359.5,28.8333 360.5,28.1667 361.5,27.5C 365.2,27.6498 368.867,27.6498 372.5,27.5C 372.833,28.1667 373.167,28.8333 373.5,29.5C 374.521,27.3811 376.021,25.7144 378,24.5C 377.923,25.7376 378.089,26.7376 378.5,27.5C 379.258,26.1886 380.258,25.6886 381.5,26C 382.166,27.9953 382.166,30.162 381.5,32.5 Z"/></g>
<g><path style="opacity:1" fill="#495d7d" d="M 193.5,29.5 C 194.278,30.1556 194.944,30.9889 195.5,32C 194.544,33.3651 193.878,34.8651 193.5,36.5C 194.204,38.5351 194.871,40.5351 195.5,42.5C 194.167,42.5 192.833,42.5 191.5,42.5C 190.018,39.3119 189.018,35.9786 188.5,32.5C 188.557,31.391 188.89,30.391 189.5,29.5C 190.833,25.5 192.167,25.5 193.5,29.5 Z"/></g>
<g><path style="opacity:1" fill="#b4c4d9" d="M 342.5,33.5 C 343.629,35.6282 343.796,37.9615 343,40.5C 342.583,41.756 341.75,42.4226 340.5,42.5C 341.626,41.1417 341.626,39.8084 340.5,38.5C 338.668,40.9572 337.001,40.9572 335.5,38.5C 337.743,37.5258 340.076,37.1924 342.5,37.5C 342.5,36.1667 342.5,34.8333 342.5,33.5 Z"/></g>
<g><path style="opacity:1" fill="#46537a" d="M 349.5,30.5 C 352.044,30.1043 354.211,30.771 356,32.5C 356.498,35.8168 356.665,39.1501 356.5,42.5C 355.5,42.5 354.5,42.5 353.5,42.5C 353.81,39.2869 353.477,36.2869 352.5,33.5C 351.458,32.2089 350.292,32.2089 349,33.5C 348.502,36.4816 348.335,39.4816 348.5,42.5C 347.5,42.5 346.5,42.5 345.5,42.5C 345.5,38.5 345.5,34.5 345.5,30.5C 346.833,30.5 348.167,30.5 349.5,30.5 Z"/></g>
<g><path style="opacity:1" fill="#a0aec7" d="M 352.5,33.5 C 351.25,33.5774 350.417,34.244 350,35.5C 349.814,38.0356 349.314,40.369 348.5,42.5C 348.335,39.4816 348.502,36.4816 349,33.5C 350.292,32.2089 351.458,32.2089 352.5,33.5 Z"/></g>
<g><path style="opacity:1" fill="#bdd0eb" d="M 382.5,35.5 C 383.484,37.5979 383.151,39.5979 381.5,41.5C 381.5,40.5 381.5,39.5 381.5,38.5C 379.516,38.3832 377.85,39.0499 376.5,40.5C 375.5,40.1667 374.833,39.5 374.5,38.5C 377.616,38.0799 380.283,37.0799 382.5,35.5 Z"/></g>
<g><path style="opacity:1" fill="#d4edfc" d="M 395.5,35.5 C 399.772,38.0345 399.439,39.3679 394.5,39.5C 394.433,38.0413 394.766,36.7079 395.5,35.5 Z"/></g>
<g><path style="opacity:1" fill="#eff5f7" d="M 235.5,25.5 C 235.5,31.1667 235.5,36.8333 235.5,42.5C 236.5,42.5 237.5,42.5 238.5,42.5C 239.29,41.3915 239.79,40.0581 240,38.5C 245.774,46.7347 243.774,49.4014 234,46.5C 232.961,47.2438 232.461,48.2438 232.5,49.5C 230.738,50.2623 229.738,51.5956 229.5,53.5C 228.833,53.1667 228.167,52.8333 227.5,52.5C 227.672,51.5084 227.338,50.8417 226.5,50.5C 223.927,49.4448 221.261,49.2782 218.5,50C 217.748,50.6708 217.414,51.5041 217.5,52.5C 216.5,52.5 215.5,52.5 214.5,52.5C 214.573,50.9731 213.906,49.9731 212.5,49.5C 211.167,49.5 209.833,49.5 208.5,49.5C 207.833,49.5 207.5,49.8333 207.5,50.5C 203.936,49.5773 200.269,49.244 196.5,49.5C 196.5,53.1667 196.5,56.8333 196.5,60.5C 195.024,62.4318 193.357,62.7652 191.5,61.5C 192.167,61.5 192.833,61.5 193.5,61.5C 194.489,56.0247 194.822,50.358 194.5,44.5C 193.167,44.5 191.833,44.5 190.5,44.5C 190.5,49.1667 190.5,53.8333 190.5,58.5C 189.5,59.1667 188.5,59.8333 187.5,60.5C 188.833,57.1667 188.833,53.8333 187.5,50.5C 187.938,50.5654 188.272,50.3988 188.5,50C 187,49.1667 185.833,48 185,46.5C 184.326,47.5784 183.326,48.2451 182,48.5C 179.208,47.7844 176.374,47.4511 173.5,47.5C 173.5,46.1667 173.5,44.8333 173.5,43.5C 173.183,40.4281 173.516,37.4281 174.5,34.5C 175.183,34.1373 175.85,33.8039 176.5,33.5C 176.5,36.5 176.5,39.5 176.5,42.5C 177.833,42.5 179.167,42.5 180.5,42.5C 180.5,38.8333 180.5,35.1667 180.5,31.5C 180.56,30.9569 180.893,30.6236 181.5,30.5C 182.167,34.6475 182.834,38.6475 183.5,42.5C 184.568,43.4345 185.901,43.7678 187.5,43.5C 187.185,39.6286 187.518,35.9619 188.5,32.5C 189.018,35.9786 190.018,39.3119 191.5,42.5C 193.389,43.7416 195.389,43.7416 197.5,42.5C 198.5,42.5 199.5,42.5 200.5,42.5C 201.167,38.8333 201.833,35.1667 202.5,31.5C 204.229,35.0205 205.562,38.6872 206.5,42.5C 207.833,42.5 209.167,42.5 210.5,42.5C 212.872,42.8219 214.872,42.4886 216.5,41.5C 219.113,42.4349 221.779,42.6015 224.5,42C 225.337,40.9887 225.67,39.8221 225.5,38.5C 223.61,38.2965 222.11,38.9632 221,40.5C 220.308,39.9747 219.808,39.3081 219.5,38.5C 221.743,37.5258 224.076,37.1924 226.5,37.5C 226.5,36.5 226.5,35.5 226.5,34.5C 229.155,35.4665 229.822,37.1332 228.5,39.5C 229.5,40.8333 230.5,40.8333 231.5,39.5C 231.864,34.3932 233.198,29.7265 235.5,25.5 Z"/></g>
<g><path style="opacity:1" fill="#465472" d="M 200.5,42.5 C 199.5,42.5 198.5,42.5 197.5,42.5C 197.5,38.5 197.5,34.5 197.5,30.5C 198.5,30.5 199.5,30.5 200.5,30.5C 200.5,34.5 200.5,38.5 200.5,42.5 Z"/></g>
<g><path style="opacity:1" fill="#4f5f81" d="M 205.5,30.5 C 206.79,37.6092 208.456,37.9425 210.5,31.5C 211.325,30.6143 212.325,30.281 213.5,30.5C 212.248,34.4224 211.248,38.4224 210.5,42.5C 209.167,42.5 207.833,42.5 206.5,42.5C 205.562,38.6872 204.229,35.0205 202.5,31.5C 203.209,30.596 204.209,30.2627 205.5,30.5 Z"/></g>
<g><path style="opacity:1" fill="#526586" d="M 225.5,32.5 C 226.338,32.8417 226.672,33.5084 226.5,34.5C 226.5,35.5 226.5,36.5 226.5,37.5C 224.076,37.1924 221.743,37.5258 219.5,38.5C 219.808,39.3081 220.308,39.9747 221,40.5C 222.11,38.9632 223.61,38.2965 225.5,38.5C 225.67,39.8221 225.337,40.9887 224.5,42C 221.779,42.6015 219.113,42.4349 216.5,41.5C 213.499,31.8301 216.499,28.8301 225.5,32.5 Z"/></g>
<g><path style="opacity:1" fill="#465c7a" d="M 183.5,30.5 C 184.5,30.5 185.5,30.5 186.5,30.5C 186.5,34.5 186.5,38.5 186.5,42.5C 185.5,42.5 184.5,42.5 183.5,42.5C 183.5,38.5 183.5,34.5 183.5,30.5 Z"/></g>
<g><path style="opacity:1" fill="#516182" d="M 268.5,39.5 C 269.5,39.5 270.5,39.5 271.5,39.5C 271.5,36.5 271.5,33.5 271.5,30.5C 272.833,30.5 274.167,30.5 275.5,30.5C 275.5,34.5 275.5,38.5 275.5,42.5C 271.894,42.7892 268.394,42.4558 265,41.5C 264.501,37.8484 264.335,34.1817 264.5,30.5C 265.5,30.5 266.5,30.5 267.5,30.5C 267.19,33.7131 267.523,36.7131 268.5,39.5 Z"/></g>
<g><path style="opacity:1" fill="#4c5c7d" d="M 296.5,42.5 C 288.912,43.9293 285.745,40.9293 287,33.5C 290.62,29.5125 294.287,29.5125 298,33.5C 298.597,36.6812 298.097,39.6812 296.5,42.5 Z"/></g>
<g><path style="opacity:1" fill="#d5ebf5" d="M 290.5,33.5 C 292.167,33.5 293.833,33.5 295.5,33.5C 296.575,37.938 294.908,39.938 290.5,39.5C 290.5,37.5 290.5,35.5 290.5,33.5 Z"/></g>
<g><path style="opacity:1" fill="#526586" d="M 157.5,47.5 C 156.859,46.5178 156.193,45.5178 155.5,44.5C 157.805,44.3076 160.138,43.9743 162.5,43.5C 154.482,42.0486 152.482,37.8819 156.5,31C 159.982,30.9998 163.316,30.8331 166.5,30.5C 166.828,35.8746 166.495,41.2079 165.5,46.5C 162.916,47.3928 160.249,47.7261 157.5,47.5 Z"/></g>
<g><path style="opacity:1" fill="#d6e9f5" d="M 158.5,33.5 C 162.909,32.899 164.242,34.5657 162.5,38.5C 161.264,39.2458 159.93,39.5792 158.5,39.5C 158.5,37.5 158.5,35.5 158.5,33.5 Z"/></g>
<g><path style="opacity:1" fill="#b1bed9" d="M 176.5,33.5 C 175.85,33.8039 175.183,34.1373 174.5,34.5C 173.516,37.4281 173.183,40.4281 173.5,43.5C 172.209,43.7373 171.209,43.404 170.5,42.5C 172.237,39.992 173.07,36.992 173,33.5C 174.292,32.2089 175.458,32.2089 176.5,33.5 Z"/></g>
<g><path style="opacity:1" fill="#dbe6ef" d="M 326.5,25.5 C 326.5,26.5 326.5,27.5 326.5,28.5C 327.5,28.5 328.5,28.5 329.5,28.5C 329.5,27.5 329.5,26.5 329.5,25.5C 330.72,27.0496 330.72,28.7163 329.5,30.5C 328.5,30.5 327.5,30.5 326.5,30.5C 326.5,34.5 326.5,38.5 326.5,42.5C 327.5,42.5 328.5,42.5 329.5,42.5C 325.031,44.3939 320.364,45.0606 315.5,44.5C 313.783,43.3315 313.116,41.6648 313.5,39.5C 314.365,41.6773 316.032,42.6773 318.5,42.5C 321.603,42.7981 323.27,41.4648 323.5,38.5C 321.194,38.9926 318.861,39.3259 316.5,39.5C 316.244,37.2075 316.577,35.0408 317.5,33C 319.35,33.5948 321.35,34.0948 323.5,34.5C 323.67,33.1779 323.337,32.0113 322.5,31C 320.19,30.5034 317.857,30.3367 315.5,30.5C 317.292,29.6909 319.292,29.1909 321.5,29C 322.634,27.984 322.301,27.3173 320.5,27C 322.518,26.4954 324.518,25.9954 326.5,25.5 Z"/></g>
<g><path style="opacity:1" fill="#545f6b" d="M 326.5,25.5 C 327.5,25.5 328.5,25.5 329.5,25.5C 329.5,26.5 329.5,27.5 329.5,28.5C 328.5,28.5 327.5,28.5 326.5,28.5C 326.5,27.5 326.5,26.5 326.5,25.5 Z"/></g>
<g><path style="opacity:1" fill="#ccdfea" d="M 329.5,30.5 C 330.391,31.1098 331.391,31.4431 332.5,31.5C 330.855,35.6075 331.522,39.2742 334.5,42.5C 332.833,42.5 331.167,42.5 329.5,42.5C 329.5,38.5 329.5,34.5 329.5,30.5 Z"/></g>
<g><path style="opacity:1" fill="#505d7c" d="M 360.5,42.5 C 360.5,42.1667 360.5,41.8333 360.5,41.5C 356.096,33.3644 358.43,29.8644 367.5,31C 369.559,32.1855 369.726,33.3521 368,34.5C 363.006,31.6922 361.172,33.3589 362.5,39.5C 364.929,39.1156 367.263,38.449 369.5,37.5C 369.703,39.3904 369.037,40.8904 367.5,42C 365.19,42.4966 362.857,42.6633 360.5,42.5 Z"/></g>
<g><path style="opacity:1" fill="#e3edf5" d="M 248.5,26.5 C 251.44,30.0614 254.773,30.3947 258.5,27.5C 261.764,27.6612 264.93,27.6612 268,27.5C 268.499,31.4862 268.666,35.4862 268.5,39.5C 267.523,36.7131 267.19,33.7131 267.5,30.5C 266.5,30.5 265.5,30.5 264.5,30.5C 264.335,34.1817 264.501,37.8484 265,41.5C 268.394,42.4558 271.894,42.7892 275.5,42.5C 274.685,43.8366 273.518,44.8366 272,45.5C 271.396,43.3143 270.23,43.1476 268.5,45C 269.833,45.6667 269.833,46.3333 268.5,47C 267.552,47.4828 266.552,47.6495 265.5,47.5C 265.716,45.3193 264.883,43.6526 263,42.5C 262.023,43.7736 261.189,43.7736 260.5,42.5C 261.234,41.2921 261.567,39.9587 261.5,38.5C 259.516,38.3832 257.85,39.0499 256.5,40.5C 255.5,40.1667 254.833,39.5 254.5,38.5C 256.743,37.5258 259.076,37.1924 261.5,37.5C 261.998,31.5008 259.331,29.3341 253.5,31C 249.842,34.1376 249.509,37.6376 252.5,41.5C 251.5,41.5 250.5,41.5 249.5,41.5C 249.672,43.4918 249.005,45.1585 247.5,46.5C 252.007,50.1514 254.841,49.1514 256,43.5C 256.87,44.1079 257.37,44.9412 257.5,46C 255.812,51.6598 254.979,57.4931 255,63.5C 254.667,63.1667 254.333,62.8333 254,62.5C 250.255,63.297 246.421,63.797 242.5,64C 241.619,64.7083 240.953,65.5416 240.5,66.5C 240.167,66.5 239.833,66.5 239.5,66.5C 241.344,61.0849 242.011,55.4183 241.5,49.5C 238.5,49.5 235.5,49.5 232.5,49.5C 232.461,48.2438 232.961,47.2438 234,46.5C 243.774,49.4014 245.774,46.7347 240,38.5C 239.79,40.0581 239.29,41.3915 238.5,42.5C 238.335,39.4816 238.502,36.4816 239,33.5C 241.08,35.9928 242.914,38.6595 244.5,41.5C 245.689,42.4287 247.022,42.762 248.5,42.5C 248.5,37.1667 248.5,31.8333 248.5,26.5 Z"/></g>
<g><path style="opacity:1" fill="#495a7c" d="M 260.5,42.5 C 257.721,42.7214 255.054,42.388 252.5,41.5C 249.509,37.6376 249.842,34.1376 253.5,31C 259.331,29.3341 261.998,31.5008 261.5,37.5C 259.076,37.1924 256.743,37.5258 254.5,38.5C 254.833,39.5 255.5,40.1667 256.5,40.5C 257.85,39.0499 259.516,38.3832 261.5,38.5C 261.567,39.9587 261.234,41.2921 260.5,42.5 Z"/></g>
<g><path style="opacity:1" fill="#a7bcda" d="M 255.5,32.5 C 256.995,32.4148 257.995,33.0815 258.5,34.5C 257.167,35.8333 255.833,35.8333 254.5,34.5C 254.863,33.8165 255.196,33.1499 255.5,32.5 Z"/></g>
<g><path style="opacity:1" fill="#e6f9fc" d="M 25.5,25.5 C 26.5,25.5 27.5,25.5 28.5,25.5C 23.8709,28.0911 21.8709,32.0911 22.5,37.5C 25.0448,37.8495 27.0448,37.0162 28.5,35C 41.8236,35.1713 41.8236,36.338 28.5,38.5C 28.4208,39.9305 28.7542,41.2638 29.5,42.5C 35.1999,42.6673 39.8666,44.8339 43.5,49C 44.7932,49.49 46.1266,49.6567 47.5,49.5C 47.6655,53.5138 47.4988,57.5138 47,61.5C 46.2917,62.3805 45.4584,63.0472 44.5,63.5C 44.5,63.1667 44.5,62.8333 44.5,62.5C 44.8226,58.774 44.4892,55.1073 43.5,51.5C 40.5737,50.7349 38.5737,49.0683 37.5,46.5C 34.6553,45.6562 31.6553,44.9896 28.5,44.5C 28.5,43.8333 28.1667,43.5 27.5,43.5C 27.5858,42.5041 27.2524,41.6708 26.5,41C 20.6621,39.1131 18.9955,35.2797 21.5,29.5C 23.188,28.4787 24.5213,27.1454 25.5,25.5 Z"/></g>
<g><path style="opacity:1" fill="#78879f" d="M 193.5,61.5 C 192.833,40.1667 192.167,40.1667 191.5,61.5C 190.596,60.791 190.263,59.791 190.5,58.5C 190.5,53.8333 190.5,49.1667 190.5,44.5C 191.833,44.5 193.167,44.5 194.5,44.5C 194.822,50.358 194.489,56.0247 193.5,61.5 Z"/></g>
<g><path style="opacity:1" fill="#0b7ab6" d="M 19.5,40.5 C 21.9278,42.0435 24.5944,43.0435 27.5,43.5C 28.1667,43.5 28.5,43.8333 28.5,44.5C 28.8333,45.1667 29.1667,45.8333 29.5,46.5C 30.5511,47.2223 31.2178,48.2223 31.5,49.5C 28.8333,49.5 26.1667,49.5 23.5,49.5C 23.0807,52.3245 24.0807,54.4912 26.5,56C 24.9052,55.3829 23.5719,55.7163 22.5,57C 25.6282,57.8412 28.6282,58.6746 31.5,59.5C 26.009,59.5831 20.6757,58.7497 15.5,57C 14.0577,56.6232 13.0577,55.7899 12.5,54.5C 12.1961,53.8501 11.8627,53.1835 11.5,52.5C 12.9214,50.9122 14.2547,49.2455 15.5,47.5C 16.8333,45.1667 18.1667,42.8333 19.5,40.5 Z"/></g>
<g><path style="opacity:1" fill="#465180" d="M 168.5,49.5 C 170.833,49.5 173.167,49.5 175.5,49.5C 175.5,50.5 175.5,51.5 175.5,52.5C 173.901,52.2322 172.568,52.5655 171.5,53.5C 170.835,55.6979 170.168,58.0312 169.5,60.5C 168.511,56.8927 168.177,53.226 168.5,49.5 Z"/></g>
<g><path style="opacity:1" fill="#f8fbfb" d="M -0.5,-0.5 C 58.1667,-0.5 116.833,-0.5 175.5,-0.5C 176.452,1.11229 176.786,2.61229 176.5,4C 178.79,3.64686 181.123,4.14686 183.5,5.5C 182.41,6.60862 182.41,7.60862 183.5,8.5C 185.098,8.39029 186.765,8.05696 188.5,7.5C 189.522,7.85549 190.189,8.52216 190.5,9.5C 188.048,10.0654 185.715,10.7321 183.5,11.5C 182.833,11.5 182.5,11.8333 182.5,12.5C 181.833,12.1667 181.167,11.8333 180.5,11.5C 179.909,10.8485 179.243,10.1818 178.5,9.5C 179.5,8.83333 180.5,8.16667 181.5,7.5C 177.311,5.47951 174.977,6.81285 174.5,11.5C 175.262,15.1111 175.762,18.7778 176,22.5C 176.977,23.7736 177.811,23.7736 178.5,22.5C 179.397,21.4019 180.23,21.4019 181,22.5C 182.202,24.6775 182.702,27.0108 182.5,29.5C 180.173,29.7529 178.173,29.0863 176.5,27.5C 173.928,27.5911 171.261,28.2577 168.5,29.5C 166.055,29.5971 163.889,28.9304 162,27.5C 160.27,29.6654 158.27,29.9988 156,28.5C 152.015,29.0721 148.182,29.7388 144.5,30.5C 143.504,30.4142 142.671,30.7476 142,31.5C 139.422,36.0663 140.256,39.7329 144.5,42.5C 146.556,43.2161 148.723,43.8828 151,44.5C 151.333,44.1667 151.667,43.8333 152,43.5C 153.147,45.8189 154.981,47.1523 157.5,47.5C 157.5,48.1667 157.5,48.8333 157.5,49.5C 156.167,49.5 154.833,49.5 153.5,49.5C 151.386,60.396 155.386,64.0626 165.5,60.5C 166.167,60.5 166.833,60.5 167.5,60.5C 168.568,61.4345 169.901,61.7678 171.5,61.5C 172.473,59.0521 172.806,56.3854 172.5,53.5C 173.5,53.5 174.5,53.5 175.5,53.5C 175.216,55.4147 175.549,57.0813 176.5,58.5C 176.953,59.4584 177.619,60.2917 178.5,61C 181.555,61.6342 184.555,61.4675 187.5,60.5C 188.5,59.8333 189.5,59.1667 190.5,58.5C 190.263,59.791 190.596,60.791 191.5,61.5C 193.357,62.7652 195.024,62.4318 196.5,60.5C 197.568,61.4345 198.901,61.7678 200.5,61.5C 200.5,58.5 200.5,55.5 200.5,52.5C 201.5,52.5 202.5,52.5 203.5,52.5C 203.5,55.5 203.5,58.5 203.5,61.5C 204.833,61.5 206.167,61.5 207.5,61.5C 207.336,58.8127 207.503,56.146 208,53.5C 208.671,52.7476 209.504,52.4142 210.5,52.5C 211.473,54.9479 211.806,57.6146 211.5,60.5C 212.209,61.404 213.209,61.7373 214.5,61.5C 219.241,64.075 224.074,64.075 229,61.5C 229.232,62.7375 229.732,63.7375 230.5,64.5C 233.145,66.2419 236.145,66.9086 239.5,66.5C 239.833,66.5 240.167,66.5 240.5,66.5C 239.087,67.9348 237.42,68.9348 235.5,69.5C 156.833,69.5 78.1667,69.5 -0.5,69.5C -0.5,60.5 -0.5,51.5 -0.5,42.5C 0.117425,42.6107 0.617425,42.944 1,43.5C 0.9802,47.7249 2.14687,51.5582 4.5,55C 4.03376,56.2988 4.03376,57.7988 4.5,59.5C 6.14297,59.4802 7.4763,60.1468 8.5,61.5C 9.16667,61.1667 9.83333,60.8333 10.5,60.5C 16.1281,61.8197 21.7948,62.8197 27.5,63.5C 33.1667,63.5 38.8333,63.5 44.5,63.5C 45.4584,63.0472 46.2917,62.3805 47,61.5C 47.4988,57.5138 47.6655,53.5138 47.5,49.5C 46.1266,49.6567 44.7932,49.49 43.5,49C 39.8666,44.8339 35.1999,42.6673 29.5,42.5C 28.7542,41.2638 28.4208,39.9305 28.5,38.5C 41.8236,36.338 41.8236,35.1713 28.5,35C 27.0448,37.0162 25.0448,37.8495 22.5,37.5C 21.8709,32.0911 23.8709,28.0911 28.5,25.5C 29.1667,25.5 29.5,25.1667 29.5,24.5C 34.858,24.7377 40.1914,24.9043 45.5,25C 46.6667,22.5 47.8333,20 49,17.5C 49.7294,25.1875 51.2294,32.6875 53.5,40C 53.604,42.1454 52.9373,43.9788 51.5,45.5C 51.6236,46.1067 51.9569,46.44 52.5,46.5C 51.6076,51.4376 51.2743,56.4376 51.5,61.5C 55.5,61.5 59.5,61.5 63.5,61.5C 65.8333,61.5 68.1667,61.5 70.5,61.5C 71.814,57.5521 73.314,57.5521 75,61.5C 75.3826,60.944 75.8826,60.6107 76.5,60.5C 82.6446,61.4902 88.9779,61.8235 95.5,61.5C 96.4968,43.6744 96.8301,25.6744 96.5,7.5C 89.8333,7.5 83.1667,7.5 76.5,7.5C 76.5,9.16667 76.5,10.8333 76.5,12.5C 74.222,9.55525 71.5553,6.88858 68.5,4.5C 66.0248,6.15905 63.8582,5.82571 62,3.5C 60.6994,3.96017 59.366,4.29351 58,4.5C 54.5339,3.5911 51.0339,2.92443 47.5,2.5C 47.5,3.83333 47.5,5.16667 47.5,6.5C 46.5,6.5 45.5,6.5 44.5,6.5C 44.1667,6.5 43.8333,6.5 43.5,6.5C 42.5081,4.9735 41.0081,4.30684 39,4.5C 31.0356,4.90543 23.2023,5.90543 15.5,7.5C 15.5,8.5 15.5,9.5 15.5,10.5C 14.1266,10.3433 12.7932,10.51 11.5,11C 6.37459,15.9171 2.37459,21.4171 -0.5,27.5C -0.5,18.1667 -0.5,8.83333 -0.5,-0.5 Z"/></g>
<g><path style="opacity:1" fill="#4a5d80" d="M 125.5,61.5 C 125.5,56.1667 125.5,50.8333 125.5,45.5C 126.5,45.5 127.5,45.5 128.5,45.5C 130.113,48.2861 131.946,50.9528 134,53.5C 134.498,50.5184 134.665,47.5184 134.5,44.5C 135.822,44.33 136.989,44.6634 138,45.5C 138.499,50.8229 138.666,56.1563 138.5,61.5C 137.127,61.6567 135.793,61.49 134.5,61C 133.04,57.9113 131.207,55.0779 129,52.5C 128.502,55.4816 128.335,58.4816 128.5,61.5C 127.5,61.5 126.5,61.5 125.5,61.5 Z"/></g>
<g><path style="opacity:1" fill="#194977" d="M 70.5,50.5 C 70.5,54.1667 70.5,57.8333 70.5,61.5C 68.1667,61.5 65.8333,61.5 63.5,61.5C 60.2033,61.11 57.2033,60.11 54.5,58.5C 58.5,58.5 62.5,58.5 66.5,58.5C 66.719,57.325 66.3857,56.325 65.5,55.5C 63.1133,55.0879 61.1133,54.0879 59.5,52.5C 62.9855,50.9064 66.6521,50.2397 70.5,50.5 Z"/></g>
<g><path style="opacity:1" fill="#8497ac" d="M 128.5,45.5 C 127.5,45.5 126.5,45.5 125.5,45.5C 125.5,50.8333 125.5,56.1667 125.5,61.5C 124.511,56.0247 124.178,50.358 124.5,44.5C 126.099,44.2322 127.432,44.5655 128.5,45.5 Z"/></g>
<g><path style="opacity:1" fill="#266188" d="M 29.5,46.5 C 32.1667,46.5 34.8333,46.5 37.5,46.5C 38.5737,49.0683 40.5737,50.7349 43.5,51.5C 44.4892,55.1073 44.8226,58.774 44.5,62.5C 44.1667,62.5 43.8333,62.5 43.5,62.5C 43.4067,58.3902 42.24,54.7236 40,51.5C 37.4355,49.8207 34.6021,49.154 31.5,49.5C 31.2178,48.2223 30.5511,47.2223 29.5,46.5 Z"/></g>
<g><path style="opacity:1" fill="#89b6cb" d="M 28.5,44.5 C 31.6553,44.9896 34.6553,45.6562 37.5,46.5C 34.8333,46.5 32.1667,46.5 29.5,46.5C 29.1667,45.8333 28.8333,45.1667 28.5,44.5 Z"/></g>
<g><path style="opacity:1" fill="#4b5a7a" d="M 130.5,29.5 C 129.883,29.6107 129.383,29.944 129,30.5C 128.223,33.4294 128.39,36.2628 129.5,39C 130.833,39.6667 132.167,39.6667 133.5,39C 134.653,37.117 136.319,36.2837 138.5,36.5C 137.51,42.0984 134.176,43.9317 128.5,42C 127.627,40.955 126.627,40.1217 125.5,39.5C 122.501,29.9379 125.835,25.4379 135.5,26C 136.687,27.0195 137.687,28.1861 138.5,29.5C 135.736,29.4029 133.07,29.4029 130.5,29.5 Z"/></g>
<g><path style="opacity:1" fill="#98a0b2" d="M 103.5,7.5 C 103.5,25.5 103.5,43.5 103.5,61.5C 109.5,61.5 115.5,61.5 121.5,61.5C 115.355,62.4902 109.022,62.8235 102.5,62.5C 102.17,43.9924 102.503,25.6591 103.5,7.5 Z"/></g>
<g><path style="opacity:1" fill="#134c85" d="M 75.5,18.5 C 75.8417,19.3382 76.5084,19.6716 77.5,19.5C 75.9397,21.1294 76.273,22.296 78.5,23C 76.3773,25.2452 74.0439,27.2452 71.5,29C 72.8333,29.6667 74.1667,30.3333 75.5,31C 74.552,31.4828 73.552,31.6495 72.5,31.5C 72.5,38.1667 72.5,44.8333 72.5,51.5C 71.8333,51.1667 71.1667,50.8333 70.5,50.5C 66.6521,50.2397 62.9855,50.9064 59.5,52.5C 61.1133,54.0879 63.1133,55.0879 65.5,55.5C 66.3857,56.325 66.719,57.325 66.5,58.5C 62.5,58.5 58.5,58.5 54.5,58.5C 52.5866,53.0557 53.7533,48.389 58,44.5C 58.1667,43 58.3333,41.5 58.5,40C 57.5228,34.6863 56.0228,29.5197 54,24.5C 53.3333,19.5 53.3333,14.5 54,9.5C 59.1089,8.69291 64.2755,8.85958 69.5,10C 70.8333,12 70.8333,14 69.5,16C 71.2166,17.5588 73.2166,18.3921 75.5,18.5 Z"/></g>
<g><path style="opacity:1" fill="#ccd7e4" d="M 150.5,6.5 C 149.883,12.5982 150.55,18.2649 152.5,23.5C 148.688,24.3238 144.688,24.8238 140.5,25C 140.279,26.7985 139.946,28.6318 139.5,30.5C 136.232,31.9362 133.232,31.6029 130.5,29.5C 133.07,29.4029 135.736,29.4029 138.5,29.5C 137.687,28.1861 136.687,27.0195 135.5,26C 125.835,25.4379 122.501,29.9379 125.5,39.5C 124.85,39.1961 124.183,38.8627 123.5,38.5C 122.833,46.3229 122.167,53.9896 121.5,61.5C 121.5,43.5 121.5,25.5 121.5,7.5C 122.329,14.989 122.829,22.6557 123,30.5C 124.741,27.8605 125.241,25.1939 124.5,22.5C 128.562,24.1757 132.229,23.8424 135.5,21.5C 136.167,20.5 136.833,19.5 137.5,18.5C 137.238,19.9778 137.571,21.3112 138.5,22.5C 141.205,23.1292 143.872,23.4626 146.5,23.5C 147.487,20.2317 147.82,16.8984 147.5,13.5C 148.319,16.3054 148.819,19.3054 149,22.5C 149.173,16.9842 149.673,11.6509 150.5,6.5 Z"/></g>
<g><path style="opacity:1" fill="#143e74" d="M 87.5,59.5 C 84.8333,59.5 82.1667,59.5 79.5,59.5C 79.5,58.1667 79.5,56.8333 79.5,55.5C 76.5,55.8333 75.1667,54.5 75.5,51.5C 74.5,51.5 73.5,51.5 72.5,51.5C 72.5,44.8333 72.5,38.1667 72.5,31.5C 73.552,31.6495 74.552,31.4828 75.5,31C 74.1667,30.3333 72.8333,29.6667 71.5,29C 74.0439,27.2452 76.3773,25.2452 78.5,23C 76.273,22.296 75.9397,21.1294 77.5,19.5C 77.5,19.1667 77.5,18.8333 77.5,18.5C 79.369,16.3647 80.0356,13.6981 79.5,10.5C 83.247,10.3924 86.9137,10.8924 90.5,12C 89.552,12.4828 88.552,12.6495 87.5,12.5C 85.7862,20.0544 84.7862,27.7211 84.5,35.5C 84.5374,39.9246 85.2041,44.0913 86.5,48C 84.579,49.7034 84.579,51.7034 86.5,54C 86.2409,55.2613 85.5742,56.2613 84.5,57C 86.1193,57.2355 87.1193,58.0689 87.5,59.5 Z"/></g>
<g><path style="opacity:1" fill="#4d5867" d="M 95.5,61.5 C 95.5,60.8333 95.5,60.1667 95.5,59.5C 95.5,42.5 95.5,25.5 95.5,8.5C 89.5,8.5 83.5,8.5 77.5,8.5C 77.5,11.8333 77.5,15.1667 77.5,18.5C 77.5,18.8333 77.5,19.1667 77.5,19.5C 76.5084,19.6716 75.8417,19.3382 75.5,18.5C 76.4614,16.7354 76.7947,14.7354 76.5,12.5C 76.5,10.8333 76.5,9.16667 76.5,7.5C 83.1667,7.5 89.8333,7.5 96.5,7.5C 96.8301,25.6744 96.4968,43.6744 95.5,61.5 Z"/></g>
<g><path style="opacity:1" fill="#163466" d="M 95.5,59.5 C 92.8333,59.5 90.1667,59.5 87.5,59.5C 87.1193,58.0689 86.1193,57.2355 84.5,57C 85.5742,56.2613 86.2409,55.2613 86.5,54C 84.579,51.7034 84.579,49.7034 86.5,48C 85.2041,44.0913 84.5374,39.9246 84.5,35.5C 84.7862,27.7211 85.7862,20.0544 87.5,12.5C 88.552,12.6495 89.552,12.4828 90.5,12C 86.9137,10.8924 83.247,10.3924 79.5,10.5C 80.0356,13.6981 79.369,16.3647 77.5,18.5C 77.5,15.1667 77.5,11.8333 77.5,8.5C 83.5,8.5 89.5,8.5 95.5,8.5C 95.5,25.5 95.5,42.5 95.5,59.5 Z"/></g>
<g><path style="opacity:1" fill="#838586" d="M 163.5,20.5 C 167.31,21.7542 167.31,22.7542 163.5,23.5C 163.5,22.5 163.5,21.5 163.5,20.5 Z"/></g>
<g><path style="opacity:1" fill="#546177" d="M 147.5,13.5 C 147.82,16.8984 147.487,20.2317 146.5,23.5C 143.872,23.4626 141.205,23.1292 138.5,22.5C 137.571,21.3112 137.238,19.9778 137.5,18.5C 137.833,17.5 138.5,16.8333 139.5,16.5C 141.199,16.6602 142.866,16.4935 144.5,16C 145.798,13.6051 144.965,12.4384 142,12.5C 140.393,13.0735 138.893,13.7402 137.5,14.5C 138.828,10.746 141.494,9.57933 145.5,11C 146.381,11.7083 147.047,12.5416 147.5,13.5 Z"/></g>
<g><path style="opacity:1" fill="#2e567a" d="M 75.5,18.5 C 73.2166,18.3921 71.2166,17.5588 69.5,16C 70.8333,14 70.8333,12 69.5,10C 64.2755,8.85958 59.1089,8.69291 54,9.5C 53.3333,14.5 53.3333,19.5 54,24.5C 56.0228,29.5197 57.5228,34.6863 58.5,40C 58.3333,41.5 58.1667,43 58,44.5C 53.7533,48.389 52.5866,53.0557 54.5,58.5C 57.2033,60.11 60.2033,61.11 63.5,61.5C 59.5,61.5 55.5,61.5 51.5,61.5C 51.2743,56.4376 51.6076,51.4376 52.5,46.5C 54.0174,46.4894 55.1841,45.8228 56,44.5C 57.6368,38.2466 56.3035,32.9133 52,28.5C 51.5004,21.5079 51.3337,14.5079 51.5,7.5C 57.8421,7.33379 64.1754,7.50046 70.5,8C 72.5793,11.3244 74.2459,14.8244 75.5,18.5 Z"/></g>
<g><path style="opacity:1" fill="#2a668c" d="M 30.5,8.5 C 34.97,7.51388 39.6367,7.18054 44.5,7.5C 44.5,12.8333 44.5,18.1667 44.5,23.5C 39.3692,22.6024 34.3692,22.9357 29.5,24.5C 29.5,25.1667 29.1667,25.5 28.5,25.5C 27.5,25.5 26.5,25.5 25.5,25.5C 26.1603,22.3514 28.1603,20.8514 31.5,21C 35.1875,20.5499 38.8542,20.7166 42.5,21.5C 43.3959,17.3871 43.2292,13.3871 42,9.5C 38.27,8.53986 34.4367,8.20653 30.5,8.5 Z"/></g>
<g><path style="opacity:1" fill="#dbe9f9" d="M 140.5,18.5 C 145.276,18.6708 145.609,19.6708 141.5,21.5C 139.197,21.1237 138.863,20.1237 140.5,18.5 Z"/></g>
<g><path style="opacity:1" fill="#0e6ba7" d="M 30.5,8.5 C 34.4367,8.20653 38.27,8.53986 42,9.5C 43.2292,13.3871 43.3959,17.3871 42.5,21.5C 38.8542,20.7166 35.1875,20.5499 31.5,21C 28.1603,20.8514 26.1603,22.3514 25.5,25.5C 24.5,25.5 23.5,25.5 22.5,25.5C 24.254,23.4113 25.5873,21.078 26.5,18.5C 24.0516,18.9899 22.385,18.1566 21.5,16C 23.1952,14.9541 23.5285,13.7874 22.5,12.5C 24.1401,11.6799 25.8068,10.8466 27.5,10C 26.8333,9.66667 26.1667,9.33333 25.5,9C 27.1341,8.50649 28.8008,8.33982 30.5,8.5 Z"/></g>
<g><path style="opacity:1" fill="#aec0cc" d="M 139.5,16.5 C 138.833,15.8333 138.167,15.1667 137.5,14.5C 138.893,13.7402 140.393,13.0735 142,12.5C 144.965,12.4384 145.798,13.6051 144.5,16C 142.866,16.4935 141.199,16.6602 139.5,16.5 Z"/></g>
<g><path style="opacity:1" fill="#1b2544" d="M 103.5,7.5 C 109.5,7.5 115.5,7.5 121.5,7.5C 121.5,25.5 121.5,43.5 121.5,61.5C 115.5,61.5 109.5,61.5 103.5,61.5C 103.5,43.5 103.5,25.5 103.5,7.5 Z"/></g>
<g><path style="opacity:1" fill="#162659" d="M 104.5,8.5 C 109.43,8.19749 114.263,8.53082 119,9.5C 119.743,11.4406 119.576,13.2739 118.5,15C 119.771,17.5539 120.438,20.3872 120.5,23.5C 119.77,35.8191 119.77,48.1524 120.5,60.5C 115.266,60.0409 110.1,59.3742 105,58.5C 104.5,41.8367 104.333,25.17 104.5,8.5 Z"/></g>
<g><path style="opacity:1" fill="#142754" d="M 113.5,15.5 C 114.833,15.5 116.167,15.5 117.5,15.5C 117.205,27.0377 117.205,38.5377 117.5,50C 117.507,51.8122 116.84,53.3122 115.5,54.5C 114.808,53.9747 114.308,53.3081 114,52.5C 113.5,40.1712 113.333,27.8378 113.5,15.5 Z"/></g>
<g><path style="opacity:1" fill="#576376" d="M 150.5,6.5 C 152.117,7.58935 152.95,9.25602 153,11.5C 157.638,10.1151 160.138,11.9484 160.5,17C 160.062,21.7372 157.395,23.9039 152.5,23.5C 150.55,18.2649 149.883,12.5982 150.5,6.5 Z"/></g>
<g><path style="opacity:1" fill="#e2eff8" d="M 153.5,13.5 C 158.068,13.0826 159.568,15.0826 158,19.5C 156.604,21.5268 154.938,21.8602 153,20.5C 152.297,18.0709 152.463,15.7375 153.5,13.5 Z"/></g>
<g><path style="opacity:1" fill="#5d687d" d="M 135.5,21.5 C 132.229,23.8424 128.562,24.1757 124.5,22.5C 124.5,17.1667 124.5,11.8333 124.5,6.5C 125.5,6.5 126.5,6.5 127.5,6.5C 127.5,11.1667 127.5,15.8333 127.5,20.5C 130.385,20.1936 133.052,20.5269 135.5,21.5 Z"/></g>
<g><path style="opacity:1" fill="#eaf7fa" d="M 76.5,12.5 C 76.7947,14.7354 76.4614,16.7354 75.5,18.5C 74.2459,14.8244 72.5793,11.3244 70.5,8C 64.1754,7.50046 57.8421,7.33379 51.5,7.5C 51.3337,14.5079 51.5004,21.5079 52,28.5C 56.3035,32.9133 57.6368,38.2466 56,44.5C 55.1841,45.8228 54.0174,46.4894 52.5,46.5C 51.9569,46.44 51.6236,46.1067 51.5,45.5C 52.9373,43.9788 53.604,42.1454 53.5,40C 51.2294,32.6875 49.7294,25.1875 49,17.5C 47.8333,20 46.6667,22.5 45.5,25C 40.1914,24.9043 34.858,24.7377 29.5,24.5C 34.3692,22.9357 39.3692,22.6024 44.5,23.5C 44.5,18.1667 44.5,12.8333 44.5,7.5C 44.5,7.16667 44.5,6.83333 44.5,6.5C 45.5,6.5 46.5,6.5 47.5,6.5C 47.5,5.16667 47.5,3.83333 47.5,2.5C 51.0339,2.92443 54.5339,3.5911 58,4.5C 59.366,4.29351 60.6994,3.96017 62,3.5C 63.8582,5.82571 66.0248,6.15905 68.5,4.5C 71.5553,6.88858 74.222,9.55525 76.5,12.5 Z"/></g>
<g><path style="opacity:1" fill="#475682" d="M 207.5,50.5 C 206.997,53.8458 206.33,57.1792 205.5,60.5C 204.832,57.6944 204.166,55.0277 203.5,52.5C 202.5,52.5 201.5,52.5 200.5,52.5C 200.5,55.5 200.5,58.5 200.5,61.5C 198.901,61.7678 197.568,61.4345 196.5,60.5C 196.5,56.8333 196.5,53.1667 196.5,49.5C 200.269,49.244 203.936,49.5773 207.5,50.5 Z"/></g>
<g><path style="opacity:1" fill="#47597a" d="M 253.5,56.5 C 251.076,56.1924 248.743,56.5258 246.5,57.5C 246.833,58.5 247.5,59.1667 248.5,59.5C 249.85,58.0499 251.516,57.3832 253.5,57.5C 253.461,58.5832 253.127,59.5832 252.5,60.5C 244.812,62.5511 241.979,59.5511 244,51.5C 247.13,48.8783 250.297,48.8783 253.5,51.5C 254.735,53.3163 254.735,54.983 253.5,56.5 Z"/></g>
<g><path style="opacity:1" fill="#c0d6f1" d="M 247.5,52.5 C 249.103,52.3118 250.437,52.8118 251.5,54C 249.537,54.8442 248.204,54.3442 247.5,52.5 Z"/></g>
<g><path style="opacity:1" fill="#e3f9fb" d="M 43.5,6.5 C 33.2906,5.5754 23.624,7.40873 14.5,12C 1.48223,21.2086 -1.85111,33.0419 4.5,47.5C 5.62944,50.9176 7.62944,53.751 10.5,56C 15.7772,59.6443 21.4438,62.1443 27.5,63.5C 21.7948,62.8197 16.1281,61.8197 10.5,60.5C 9.83333,60.8333 9.16667,61.1667 8.5,61.5C 7.4763,60.1468 6.14297,59.4802 4.5,59.5C 4.03376,57.7988 4.03376,56.2988 4.5,55C 2.14687,51.5582 0.9802,47.7249 1,43.5C 0.617425,42.944 0.117425,42.6107 -0.5,42.5C -0.5,37.5 -0.5,32.5 -0.5,27.5C 2.37459,21.4171 6.37459,15.9171 11.5,11C 12.7932,10.51 14.1266,10.3433 15.5,10.5C 15.5,9.5 15.5,8.5 15.5,7.5C 23.2023,5.90543 31.0356,4.90543 39,4.5C 41.0081,4.30684 42.5081,4.9735 43.5,6.5 Z"/></g>
<g><path style="opacity:1" fill="#d0e2ed" d="M 70.5,50.5 C 71.1667,50.8333 71.8333,51.1667 72.5,51.5C 73.5612,54.6223 74.8946,57.6223 76.5,60.5C 75.8826,60.6107 75.3826,60.944 75,61.5C 73.314,57.5521 71.814,57.5521 70.5,61.5C 70.5,57.8333 70.5,54.1667 70.5,50.5 Z"/></g>
<g><path style="opacity:1" fill="#4b5d81" d="M 151.5,56.5 C 149.076,56.1924 146.743,56.5258 144.5,57.5C 146.001,59.9572 147.668,59.9572 149.5,57.5C 150.386,58.325 150.719,59.325 150.5,60.5C 142.729,63.5715 139.563,60.9049 141,52.5C 141.374,51.5838 141.874,50.7504 142.5,50C 148.757,47.803 151.757,49.9697 151.5,56.5 Z"/></g>
<g><path style="opacity:1" fill="#aac0e3" d="M 144.5,52.5 C 145.978,52.238 147.311,52.5713 148.5,53.5C 147.833,53.8333 147.167,54.1667 146.5,54.5C 145.287,54.2528 144.62,53.5862 144.5,52.5 Z"/></g>
<g><path style="opacity:1" fill="#687d98" d="M 208.5,49.5 C 208.782,50.7777 209.449,51.7777 210.5,52.5C 209.504,52.4142 208.671,52.7476 208,53.5C 207.503,56.146 207.336,58.8127 207.5,61.5C 206.167,61.5 204.833,61.5 203.5,61.5C 203.5,58.5 203.5,55.5 203.5,52.5C 204.166,55.0277 204.832,57.6944 205.5,60.5C 206.33,57.1792 206.997,53.8458 207.5,50.5C 207.5,49.8333 207.833,49.5 208.5,49.5 Z"/></g>
<g><path style="opacity:1" fill="#a9bed8" d="M 151.5,56.5 C 151.768,58.099 151.434,59.4324 150.5,60.5C 150.719,59.325 150.386,58.325 149.5,57.5C 147.668,59.9572 146.001,59.9572 144.5,57.5C 146.743,56.5258 149.076,56.1924 151.5,56.5 Z"/></g>
<g><path style="opacity:1" fill="#3f4e70" d="M 208.5,49.5 C 209.833,49.5 211.167,49.5 212.5,49.5C 213.014,51.6175 213.347,53.7841 213.5,56C 213.431,57.9855 212.765,59.4855 211.5,60.5C 211.806,57.6146 211.473,54.9479 210.5,52.5C 209.449,51.7777 208.782,50.7777 208.5,49.5 Z"/></g>
<g><path style="opacity:1" fill="#637387" d="M 212.5,49.5 C 213.906,49.9731 214.573,50.9731 214.5,52.5C 214.5,55.5 214.5,58.5 214.5,61.5C 213.209,61.7373 212.209,61.404 211.5,60.5C 212.765,59.4855 213.431,57.9855 213.5,56C 213.347,53.7841 213.014,51.6175 212.5,49.5 Z"/></g>
<g><path style="opacity:1" fill="#a7bbdc" d="M 253.5,56.5 C 253.5,56.8333 253.5,57.1667 253.5,57.5C 251.516,57.3832 249.85,58.0499 248.5,59.5C 247.5,59.1667 246.833,58.5 246.5,57.5C 248.743,56.5258 251.076,56.1924 253.5,56.5 Z"/></g>
<g><path style="opacity:1" fill="#0f6aa6" d="M 31.5,49.5 C 34.6021,49.154 37.4355,49.8207 40,51.5C 42.24,54.7236 43.4067,58.3902 43.5,62.5C 40.8597,62.4467 38.3597,61.78 36,60.5C 34.7741,60.6448 33.6074,60.9781 32.5,61.5C 31.7025,61.0431 31.3691,60.3764 31.5,59.5C 28.6282,58.6746 25.6282,57.8412 22.5,57C 23.5719,55.7163 24.9052,55.3829 26.5,56C 24.0807,54.4912 23.0807,52.3245 23.5,49.5C 26.1667,49.5 28.8333,49.5 31.5,49.5 Z"/></g>
<g><path style="opacity:1" fill="#70849b" d="M 226.5,50.5 C 227.338,50.8417 227.672,51.5084 227.5,52.5C 227.5,55.5 227.5,58.5 227.5,61.5C 226.167,61.5 224.833,61.5 223.5,61.5C 224.209,60.596 225.209,60.2627 226.5,60.5C 226.5,57.1667 226.5,53.8333 226.5,50.5 Z"/></g>
<g><path style="opacity:1" fill="#505e82" d="M 187.5,50.5 C 188.833,53.8333 188.833,57.1667 187.5,60.5C 184.555,61.4675 181.555,61.6342 178.5,61C 177.619,60.2917 176.953,59.4584 176.5,58.5C 175.665,49.7923 179.331,47.1256 187.5,50.5 Z"/></g>
<g><path style="opacity:1" fill="#d9eff6" d="M 180.5,52.5 C 181.833,52.5 183.167,52.5 184.5,52.5C 184.66,54.1992 184.494,55.8659 184,57.5C 179.633,58.5748 178.466,56.9081 180.5,52.5 Z"/></g>
<g><path style="opacity:1" fill="#404f7b" d="M 193.5,61.5 C 192.833,61.5 192.167,61.5 191.5,61.5C 192.167,40.1667 192.833,40.1667 193.5,61.5 Z"/></g>
<g><path style="opacity:1" fill="#4f6084" d="M 232.5,49.5 C 235.5,49.5 238.5,49.5 241.5,49.5C 242.011,55.4183 241.344,61.0849 239.5,66.5C 236.145,66.9086 233.145,66.2419 230.5,64.5C 230.47,63.5028 230.97,62.8361 232,62.5C 233.766,63.2335 235.599,63.5668 237.5,63.5C 237.935,60.3873 236.935,59.7207 234.5,61.5C 230.834,60.1833 229.168,57.5166 229.5,53.5C 229.738,51.5956 230.738,50.2623 232.5,49.5 Z"/></g>
<g><path style="opacity:1" fill="#dcf2f9" d="M 233.5,52.5 C 234.833,52.5 236.167,52.5 237.5,52.5C 237.5,54.5 237.5,56.5 237.5,58.5C 236.167,58.5 234.833,58.5 233.5,58.5C 233.5,56.5 233.5,54.5 233.5,52.5 Z"/></g>
<g><path style="opacity:1" fill="#2f78a0" d="M 4.5,47.5 C 7.16667,49.8333 9.83333,52.1667 12.5,54.5C 13.0577,55.7899 14.0577,56.6232 15.5,57C 20.6757,58.7497 26.009,59.5831 31.5,59.5C 31.3691,60.3764 31.7025,61.0431 32.5,61.5C 33.6074,60.9781 34.7741,60.6448 36,60.5C 38.3597,61.78 40.8597,62.4467 43.5,62.5C 43.8333,62.5 44.1667,62.5 44.5,62.5C 44.5,62.8333 44.5,63.1667 44.5,63.5C 38.8333,63.5 33.1667,63.5 27.5,63.5C 21.4438,62.1443 15.7772,59.6443 10.5,56C 7.62944,53.751 5.62944,50.9176 4.5,47.5 Z"/></g>
<g><path style="opacity:1" fill="#56638b" d="M 157.5,49.5 C 157.5,52.5 157.5,55.5 157.5,58.5C 158.822,58.67 159.989,58.3366 161,57.5C 161.497,54.854 161.664,52.1873 161.5,49.5C 162.833,49.5 164.167,49.5 165.5,49.5C 165.5,53.1667 165.5,56.8333 165.5,60.5C 155.386,64.0626 151.386,60.396 153.5,49.5C 154.833,49.5 156.167,49.5 157.5,49.5 Z"/></g>
<g><path style="opacity:1" fill="#213957" d="M 72.5,51.5 C 73.5,51.5 74.5,51.5 75.5,51.5C 75.1667,54.5 76.5,55.8333 79.5,55.5C 79.5,56.8333 79.5,58.1667 79.5,59.5C 82.1667,59.5 84.8333,59.5 87.5,59.5C 90.1667,59.5 92.8333,59.5 95.5,59.5C 95.5,60.1667 95.5,60.8333 95.5,61.5C 88.9779,61.8235 82.6446,61.4902 76.5,60.5C 74.8946,57.6223 73.5612,54.6223 72.5,51.5 Z"/></g>
<g><path style="opacity:1" fill="#6d7898" d="M 168.5,49.5 C 168.177,53.226 168.511,56.8927 169.5,60.5C 170.168,58.0312 170.835,55.6979 171.5,53.5C 171.5,56.1667 171.5,58.8333 171.5,61.5C 169.901,61.7678 168.568,61.4345 167.5,60.5C 167.185,56.6286 167.518,52.9619 168.5,49.5 Z"/></g>
<g><path style="opacity:1" fill="#47577c" d="M 226.5,50.5 C 226.5,53.8333 226.5,57.1667 226.5,60.5C 225.209,60.2627 224.209,60.596 223.5,61.5C 220.115,62.2104 217.781,61.0437 216.5,58C 216.759,56.7387 217.426,55.7387 218.5,55C 225.156,53.065 224.822,52.2317 217.5,52.5C 217.414,51.5041 217.748,50.6708 218.5,50C 221.261,49.2782 223.927,49.4448 226.5,50.5 Z"/></g>
<g><path style="opacity:1" fill="#d5e5ef" d="M 214.5,52.5 C 215.5,52.5 216.5,52.5 217.5,52.5C 224.822,52.2317 225.156,53.065 218.5,55C 217.426,55.7387 216.759,56.7387 216.5,58C 217.781,61.0437 220.115,62.2104 223.5,61.5C 224.833,61.5 226.167,61.5 227.5,61.5C 227.5,58.5 227.5,55.5 227.5,52.5C 228.167,52.8333 228.833,53.1667 229.5,53.5C 229.168,57.5166 230.834,60.1833 234.5,61.5C 236.935,59.7207 237.935,60.3873 237.5,63.5C 235.599,63.5668 233.766,63.2335 232,62.5C 230.97,62.8361 230.47,63.5028 230.5,64.5C 229.732,63.7375 229.232,62.7375 229,61.5C 224.074,64.075 219.241,64.075 214.5,61.5C 214.5,58.5 214.5,55.5 214.5,52.5 Z"/></g>
<g><path style="opacity:1" fill="#c5d4f6" d="M 220.5,56.5 C 223.957,56.6672 224.29,57.6672 221.5,59.5C 220.614,58.675 220.281,57.675 220.5,56.5 Z"/></g>
</svg>
