<?xml version="1.0" encoding="UTF-8"?>
<!DOCTYPE svg PUBLIC "-//W3C//DTD SVG 1.1//EN" "http://www.w3.org/Graphics/SVG/1.1/DTD/svg11.dtd">
<svg xmlns="http://www.w3.org/2000/svg" version="1.1" width="324px" height="148px" style="shape-rendering:geometricPrecision; text-rendering:geometricPrecision; image-rendering:optimizeQuality; fill-rule:evenodd; clip-rule:evenodd" xmlns:xlink="http://www.w3.org/1999/xlink">
<g><path style="opacity:1" fill="#1a1a19" d="M -0.5,-0.5 C 107.5,-0.5 215.5,-0.5 323.5,-0.5C 323.5,48.8333 323.5,98.1667 323.5,147.5C 215.5,147.5 107.5,147.5 -0.5,147.5C -0.5,98.1667 -0.5,48.8333 -0.5,-0.5 Z"/></g>
<g><path style="opacity:1" fill="#9f9f9e" d="M 33.5,37.5 C 31.8333,37.5 30.1667,37.5 28.5,37.5C 28.5,44.8333 28.5,52.1667 28.5,59.5C 27.508,52.0182 27.1746,44.3516 27.5,36.5C 29.7354,36.2053 31.7354,36.5386 33.5,37.5 Z"/></g>
<g><path style="opacity:1" fill="#f3f3f3" d="M 33.5,37.5 C 33.5,43.1667 33.5,48.8333 33.5,54.5C 36.5,54.5 39.5,54.5 42.5,54.5C 42.5,56.1667 42.5,57.8333 42.5,59.5C 37.8333,59.5 33.1667,59.5 28.5,59.5C 28.5,52.1667 28.5,44.8333 28.5,37.5C 30.1667,37.5 31.8333,37.5 33.5,37.5 Z"/></g>
<g><path style="opacity:1" fill="#f1f1f1" d="M 54.5,36.5 C 58.5837,43.8275 62.5837,51.3275 66.5,59C 62.8459,60.297 60.1792,59.297 58.5,56C 57.1667,55.8333 55.8333,55.6667 54.5,55.5C 51.4901,56.2419 48.8235,57.5752 46.5,59.5C 45.5,59.1667 44.5,58.8333 43.5,58.5C 47.1799,51.1401 50.8466,43.8068 54.5,36.5 Z"/></g>
<g><path style="opacity:1" fill="#9c9c9b" d="M 78.5,37.5 C 75.5,37.5 72.5,37.5 69.5,37.5C 69.5,44.8333 69.5,52.1667 69.5,59.5C 68.508,52.0182 68.1746,44.3516 68.5,36.5C 72.0419,36.1872 75.3752,36.5206 78.5,37.5 Z"/></g>
<g><path style="opacity:1" fill="#f6f6f6" d="M 78.5,37.5 C 84.8194,38.623 86.1527,41.9564 82.5,47.5C 88.0176,51.7659 87.6842,55.5992 81.5,59C 77.5138,59.4988 73.5138,59.6655 69.5,59.5C 69.5,52.1667 69.5,44.8333 69.5,37.5C 72.5,37.5 75.5,37.5 78.5,37.5 Z"/></g>
<g><path style="opacity:1" fill="#f1f1f1" d="M 106.5,36.5 C 118.335,35.6283 123.501,40.9616 122,52.5C 117.656,60.3919 111.489,62.2253 103.5,58C 96.1524,49.6006 97.1524,42.4339 106.5,36.5 Z"/></g>
<g><path style="opacity:1" fill="#9a9a9a" d="M 139.5,37.5 C 135.167,37.5 130.833,37.5 126.5,37.5C 126.5,44.8333 126.5,52.1667 126.5,59.5C 125.508,52.0182 125.175,44.3516 125.5,36.5C 130.363,36.1805 135.03,36.5139 139.5,37.5 Z"/></g>
<g><path style="opacity:1" fill="#f9f9f9" d="M 139.5,37.5 C 139.5,38.8333 139.5,40.1667 139.5,41.5C 136.5,41.5 133.5,41.5 130.5,41.5C 130.5,43.1667 130.5,44.8333 130.5,46.5C 133.167,46.5 135.833,46.5 138.5,46.5C 138.5,47.8333 138.5,49.1667 138.5,50.5C 136.167,50.5 133.833,50.5 131.5,50.5C 131.5,53.5 131.5,56.5 131.5,59.5C 129.833,59.5 128.167,59.5 126.5,59.5C 126.5,52.1667 126.5,44.8333 126.5,37.5C 130.833,37.5 135.167,37.5 139.5,37.5 Z"/></g>
<g><path style="opacity:1" fill="#f9f9f9" d="M 167.5,48.5 C 167.56,49.0431 167.893,49.3764 168.5,49.5C 169.491,45.5546 169.824,41.5546 169.5,37.5C 170.833,37.5 172.167,37.5 173.5,37.5C 173.825,45.0191 173.492,52.3524 172.5,59.5C 168.194,55.3654 163.694,51.3654 159,47.5C 158.501,51.4862 158.334,55.4862 158.5,59.5C 156.833,59.5 155.167,59.5 153.5,59.5C 153.334,51.8261 153.5,44.1594 154,36.5C 158.694,40.3654 163.194,44.3654 167.5,48.5 Z"/></g>
<g><path style="opacity:1" fill="#9a9a99" d="M 193.5,37.5 C 188.833,37.5 184.167,37.5 179.5,37.5C 179.5,44.8333 179.5,52.1667 179.5,59.5C 178.508,52.0182 178.175,44.3516 178.5,36.5C 183.695,36.1795 188.695,36.5128 193.5,37.5 Z"/></g>
<g><path style="opacity:1" fill="#fcfcfc" d="M 193.5,37.5 C 193.5,38.8333 193.5,40.1667 193.5,41.5C 190.5,41.5 187.5,41.5 184.5,41.5C 184.5,42.8333 184.5,44.1667 184.5,45.5C 187.167,45.5 189.833,45.5 192.5,45.5C 192.5,46.8333 192.5,48.1667 192.5,49.5C 189.5,49.5 186.5,49.5 183.5,49.5C 183.5,51.5 183.5,53.5 183.5,55.5C 186.833,55.5 190.167,55.5 193.5,55.5C 193.5,56.8333 193.5,58.1667 193.5,59.5C 188.833,59.5 184.167,59.5 179.5,59.5C 179.5,52.1667 179.5,44.8333 179.5,37.5C 184.167,37.5 188.833,37.5 193.5,37.5 Z"/></g>
<g><path style="opacity:1" fill="#f8f8f8" d="M 197.5,37.5 C 199.167,37.5 200.833,37.5 202.5,37.5C 202.179,42.6946 202.513,47.6946 203.5,52.5C 204.969,56.0684 207.136,56.4017 210,53.5C 210.499,48.1771 210.666,42.8437 210.5,37.5C 212.167,37.5 213.833,37.5 215.5,37.5C 215.666,43.5092 215.499,49.5092 215,55.5C 213.127,59.0267 210.127,60.6934 206,60.5C 202.089,60.2065 199.422,58.2065 198,54.5C 197.501,48.8431 197.334,43.1764 197.5,37.5 Z"/></g>
<g><path style="opacity:1" fill="#9a9a9a" d="M 197.5,37.5 C 199.265,36.5386 201.265,36.2053 203.5,36.5C 203.5,41.8333 203.5,47.1667 203.5,52.5C 202.513,47.6946 202.179,42.6946 202.5,37.5C 200.833,37.5 199.167,37.5 197.5,37.5 Z"/></g>
<g><path style="opacity:1" fill="#f9f9f9" d="M 220.5,37.5 C 224.846,37.3343 229.179,37.501 233.5,38C 238.672,42.3788 238.672,46.8788 233.5,51.5C 234.971,54.136 236.637,56.636 238.5,59C 236.098,59.8141 233.765,59.6474 231.5,58.5C 227.296,49.0359 225.296,49.3692 225.5,59.5C 223.833,59.5 222.167,59.5 220.5,59.5C 220.5,52.1667 220.5,44.8333 220.5,37.5 Z"/></g>
<g><path style="opacity:1" fill="#f1f1f1" d="M 250.5,36.5 C 254.584,43.8275 258.584,51.3275 262.5,59C 258.846,60.297 256.179,59.297 254.5,56C 253.167,55.8333 251.833,55.6667 250.5,55.5C 247.49,56.2419 244.823,57.5752 242.5,59.5C 241.5,59.1667 240.5,58.8333 239.5,58.5C 243.18,51.1401 246.847,43.8068 250.5,36.5 Z"/></g>
<g><path style="opacity:1" fill="#9f9f9e" d="M 270.5,37.5 C 268.833,37.5 267.167,37.5 265.5,37.5C 265.5,44.8333 265.5,52.1667 265.5,59.5C 264.508,52.0182 264.175,44.3516 264.5,36.5C 266.735,36.2053 268.735,36.5386 270.5,37.5 Z"/></g>
<g><path style="opacity:1" fill="#f3f3f3" d="M 270.5,37.5 C 270.5,43.1667 270.5,48.8333 270.5,54.5C 273.5,54.5 276.5,54.5 279.5,54.5C 279.5,56.1667 279.5,57.8333 279.5,59.5C 274.833,59.5 270.167,59.5 265.5,59.5C 265.5,52.1667 265.5,44.8333 265.5,37.5C 267.167,37.5 268.833,37.5 270.5,37.5 Z"/></g>
<g><path style="opacity:1" fill="#959595" d="M 172.5,59.5 C 173.492,52.3524 173.825,45.0191 173.5,37.5C 172.167,37.5 170.833,37.5 169.5,37.5C 169.824,41.5546 169.491,45.5546 168.5,49.5C 167.893,49.3764 167.56,49.0431 167.5,48.5C 168.483,44.7016 168.817,40.7016 168.5,36.5C 170.5,36.5 172.5,36.5 174.5,36.5C 174.831,44.5277 174.498,52.5277 173.5,60.5C 172.893,60.3764 172.56,60.0431 172.5,59.5 Z"/></g>
<g><path style="opacity:1" fill="#212121" d="M 74.5,41.5 C 76.6648,41.1159 78.3315,41.7826 79.5,43.5C 78.3315,45.2174 76.6648,45.8841 74.5,45.5C 74.5,44.1667 74.5,42.8333 74.5,41.5 Z"/></g>
<g><path style="opacity:1" fill="#1f1f1f" d="M 108.5,41.5 C 115.314,41.49 117.814,44.8233 116,51.5C 111.837,55.7475 108.171,55.4141 105,50.5C 103.665,46.3919 104.832,43.3919 108.5,41.5 Z"/></g>
<g><path style="opacity:1" fill="#2d2d2c" d="M 225.5,41.5 C 229.971,40.8433 231.638,42.5099 230.5,46.5C 228.929,47.3094 227.262,47.6427 225.5,47.5C 225.5,45.5 225.5,43.5 225.5,41.5 Z"/></g>
<g><path style="opacity:1" fill="#787878" d="M 139.5,41.5 C 137.052,42.4731 134.385,42.8064 131.5,42.5C 131.5,43.5 131.5,44.5 131.5,45.5C 134.167,45.5 136.833,45.5 139.5,45.5C 139.784,47.4147 139.451,49.0813 138.5,50.5C 138.5,49.1667 138.5,47.8333 138.5,46.5C 135.833,46.5 133.167,46.5 130.5,46.5C 130.5,44.8333 130.5,43.1667 130.5,41.5C 133.5,41.5 136.5,41.5 139.5,41.5 Z"/></g>
<g><path style="opacity:1" fill="#212120" d="M 54.5,46.5 C 57.3465,48.7975 57.0132,50.1309 53.5,50.5C 53.4326,49.0413 53.7659,47.7079 54.5,46.5 Z"/></g>
<g><path style="opacity:1" fill="#212120" d="M 250.5,46.5 C 253.347,48.7975 253.013,50.1309 249.5,50.5C 249.433,49.0413 249.766,47.7079 250.5,46.5 Z"/></g>
<g><path style="opacity:1" fill="#2a2a2a" d="M 74.5,49.5 C 78.9712,48.8433 80.6379,50.5099 79.5,54.5C 77.9291,55.3094 76.2624,55.6427 74.5,55.5C 74.5,53.5 74.5,51.5 74.5,49.5 Z"/></g>
<g><path style="opacity:1" fill="#8b8b8b" d="M 192.5,45.5 C 193.451,46.9187 193.784,48.5853 193.5,50.5C 190.5,50.5 187.5,50.5 184.5,50.5C 184.5,51.8333 184.5,53.1667 184.5,54.5C 187.713,54.19 190.713,54.5233 193.5,55.5C 190.167,55.5 186.833,55.5 183.5,55.5C 183.5,53.5 183.5,51.5 183.5,49.5C 186.5,49.5 189.5,49.5 192.5,49.5C 192.5,48.1667 192.5,46.8333 192.5,45.5 Z"/></g>
<g><path style="opacity:1" fill="#a9a9a9" d="M 39.5,85.5 C 38.5084,92.6476 38.175,99.9809 38.5,107.5C 37.1801,99.9902 37.1801,92.3235 38.5,84.5C 39.1067,84.6236 39.44,84.9569 39.5,85.5 Z"/></g>
<g><path style="opacity:1" fill="#9f9f9f" d="M 33.5,85.5 C 31.8333,85.5 30.1667,85.5 28.5,85.5C 28.5,92.8333 28.5,100.167 28.5,107.5C 27.508,100.018 27.1746,92.3516 27.5,84.5C 29.7354,84.2053 31.7354,84.5386 33.5,85.5 Z"/></g>
<g><path style="opacity:1" fill="#fafafa" d="M 33.5,85.5 C 33.5,92.8333 33.5,100.167 33.5,107.5C 31.8333,107.5 30.1667,107.5 28.5,107.5C 28.5,100.167 28.5,92.8333 28.5,85.5C 30.1667,85.5 31.8333,85.5 33.5,85.5 Z"/></g>
<g><path style="opacity:1" fill="#fbfbfb" d="M 39.5,85.5 C 44.0624,89.3751 48.5624,93.3751 53,97.5C 53.4988,93.5138 53.6655,89.5138 53.5,85.5C 55.1667,85.5 56.8333,85.5 58.5,85.5C 58.6664,93.1739 58.4997,100.841 58,108.5C 53.5624,104.375 49.0624,100.375 44.5,96.5C 44.44,95.9569 44.1067,95.6236 43.5,95.5C 42.5091,99.4454 42.1758,103.445 42.5,107.5C 41.1667,107.5 39.8333,107.5 38.5,107.5C 38.175,99.9809 38.5084,92.6476 39.5,85.5 Z"/></g>
<g><path style="opacity:1" fill="#fefffe" d="M 78.5,89.5 C 76.5,89.5 74.5,89.5 72.5,89.5C 72.5,95.5 72.5,101.5 72.5,107.5C 70.8333,107.5 69.1667,107.5 67.5,107.5C 67.5,101.5 67.5,95.5 67.5,89.5C 65.5,89.5 63.5,89.5 61.5,89.5C 61.5,88.1667 61.5,86.8333 61.5,85.5C 67.1667,85.5 72.8333,85.5 78.5,85.5C 78.5,86.8333 78.5,88.1667 78.5,89.5 Z"/></g>
<g><path style="opacity:1" fill="#f7f7f7" d="M 81.5,85.5 C 86.5,85.5 91.5,85.5 96.5,85.5C 96.5,86.8333 96.5,88.1667 96.5,89.5C 93.1667,89.5 89.8333,89.5 86.5,89.5C 86.5,90.8333 86.5,92.1667 86.5,93.5C 89.5,93.5 92.5,93.5 95.5,93.5C 95.5,94.8333 95.5,96.1667 95.5,97.5C 92.5,97.5 89.5,97.5 86.5,97.5C 86.5,99.1667 86.5,100.833 86.5,102.5C 89.8333,102.5 93.1667,102.5 96.5,102.5C 96.5,104.167 96.5,105.833 96.5,107.5C 91.5,107.5 86.5,107.5 81.5,107.5C 81.5,100.167 81.5,92.8333 81.5,85.5 Z"/></g>
<g><path style="opacity:1" fill="#f9f9f9" d="M 100.5,85.5 C 104.846,85.3343 109.179,85.501 113.5,86C 118.672,90.3788 118.672,94.8788 113.5,99.5C 114.971,102.136 116.637,104.636 118.5,107C 116.098,107.814 113.765,107.647 111.5,106.5C 107.296,97.0359 105.296,97.3692 105.5,107.5C 103.833,107.5 102.167,107.5 100.5,107.5C 100.5,100.167 100.5,92.8333 100.5,85.5 Z"/></g>
<g><path style="opacity:1" fill="#f0f0f0" d="M 128.5,84.5 C 141.963,84.8068 146.463,91.1401 142,103.5C 134.216,110.625 127.216,109.958 121,101.5C 118.785,93.6005 121.285,87.9338 128.5,84.5 Z"/></g>
<g><path style="opacity:1" fill="#f2f2f2" d="M 154.5,84.5 C 161.848,82.714 165.348,85.3807 165,92.5C 161,88.5 157,88.5 153,92.5C 152.033,102.031 155.867,104.698 164.5,100.5C 165.938,102.998 165.604,105.164 163.5,107C 150.619,109.647 145.119,104.481 147,91.5C 148.767,88.228 151.267,85.8947 154.5,84.5 Z"/></g>
<g><path style="opacity:1" fill="#9a9a99" d="M 184.5,85.5 C 179.833,85.5 175.167,85.5 170.5,85.5C 170.5,92.8333 170.5,100.167 170.5,107.5C 169.508,100.018 169.175,92.3516 169.5,84.5C 174.695,84.1795 179.695,84.5128 184.5,85.5 Z"/></g>
<g><path style="opacity:1" fill="#fcfcfc" d="M 184.5,85.5 C 184.5,86.8333 184.5,88.1667 184.5,89.5C 181.5,89.5 178.5,89.5 175.5,89.5C 175.5,90.8333 175.5,92.1667 175.5,93.5C 178.167,93.5 180.833,93.5 183.5,93.5C 183.5,94.8333 183.5,96.1667 183.5,97.5C 180.5,97.5 177.5,97.5 174.5,97.5C 174.5,99.5 174.5,101.5 174.5,103.5C 177.833,103.5 181.167,103.5 184.5,103.5C 184.5,104.833 184.5,106.167 184.5,107.5C 179.833,107.5 175.167,107.5 170.5,107.5C 170.5,100.167 170.5,92.8333 170.5,85.5C 175.167,85.5 179.833,85.5 184.5,85.5 Z"/></g>
<g><path style="opacity:1" fill="#fcfcfc" d="M 189.5,85.5 C 193.514,85.3345 197.514,85.5012 201.5,86C 205.934,89.2669 206.6,93.2669 203.5,98C 200.649,99.2886 197.649,99.7886 194.5,99.5C 194.5,102.167 194.5,104.833 194.5,107.5C 192.833,107.5 191.167,107.5 189.5,107.5C 189.5,100.167 189.5,92.8333 189.5,85.5 Z"/></g>
<g><path style="opacity:1" fill="#fefffe" d="M 223.5,89.5 C 221.5,89.5 219.5,89.5 217.5,89.5C 217.5,95.5 217.5,101.5 217.5,107.5C 215.833,107.5 214.167,107.5 212.5,107.5C 212.5,101.5 212.5,95.5 212.5,89.5C 210.5,89.5 208.5,89.5 206.5,89.5C 206.5,88.1667 206.5,86.8333 206.5,85.5C 212.167,85.5 217.833,85.5 223.5,85.5C 223.5,86.8333 223.5,88.1667 223.5,89.5 Z"/></g>
<g><path style="opacity:1" fill="#9f9f9f" d="M 231.5,85.5 C 229.833,85.5 228.167,85.5 226.5,85.5C 226.5,92.8333 226.5,100.167 226.5,107.5C 225.508,100.018 225.175,92.3516 225.5,84.5C 227.735,84.2053 229.735,84.5386 231.5,85.5 Z"/></g>
<g><path style="opacity:1" fill="#fafafa" d="M 231.5,85.5 C 231.5,92.8333 231.5,100.167 231.5,107.5C 229.833,107.5 228.167,107.5 226.5,107.5C 226.5,100.167 226.5,92.8333 226.5,85.5C 228.167,85.5 229.833,85.5 231.5,85.5 Z"/></g>
<g><path style="opacity:1" fill="#f0f0f0" d="M 243.5,84.5 C 256.963,84.8068 261.463,91.1401 257,103.5C 249.216,110.625 242.216,109.958 236,101.5C 233.785,93.6005 236.285,87.9338 243.5,84.5 Z"/></g>
<g><path style="opacity:1" fill="#f9f9f9" d="M 276.5,96.5 C 276.56,97.0431 276.893,97.3764 277.5,97.5C 278.491,93.5546 278.824,89.5546 278.5,85.5C 279.833,85.5 281.167,85.5 282.5,85.5C 282.825,93.0191 282.492,100.352 281.5,107.5C 277.194,103.365 272.694,99.3654 268,95.5C 267.501,99.4862 267.334,103.486 267.5,107.5C 265.833,107.5 264.167,107.5 262.5,107.5C 262.334,99.8261 262.5,92.1594 263,84.5C 267.694,88.3654 272.194,92.3654 276.5,96.5 Z"/></g>
<g><path style="opacity:1" fill="#595958" d="M 61.5,89.5 C 63.5,89.5 65.5,89.5 67.5,89.5C 67.5,95.5 67.5,101.5 67.5,107.5C 66.5111,102.025 66.1778,96.358 66.5,90.5C 64.5853,90.7845 62.9187,90.4511 61.5,89.5 Z"/></g>
<g><path style="opacity:1" fill="#555555" d="M 78.5,89.5 C 77.0813,90.4511 75.4147,90.7845 73.5,90.5C 73.8222,96.358 73.4889,102.025 72.5,107.5C 72.5,101.5 72.5,95.5 72.5,89.5C 74.5,89.5 76.5,89.5 78.5,89.5 Z"/></g>
<g><path style="opacity:1" fill="#2d2d2c" d="M 105.5,89.5 C 109.971,88.8433 111.638,90.5099 110.5,94.5C 108.929,95.3094 107.262,95.6427 105.5,95.5C 105.5,93.5 105.5,91.5 105.5,89.5 Z"/></g>
<g><path style="opacity:1" fill="#20201f" d="M 129.5,89.5 C 136.141,89.6389 138.974,92.9722 138,99.5C 134.61,103.032 130.943,103.366 127,100.5C 125.812,96.2586 126.645,92.5919 129.5,89.5 Z"/></g>
<g><path style="opacity:1" fill="#2f2f2e" d="M 194.5,89.5 C 198.971,88.8433 200.638,90.5099 199.5,94.5C 197.929,95.3094 196.262,95.6427 194.5,95.5C 194.5,93.5 194.5,91.5 194.5,89.5 Z"/></g>
<g><path style="opacity:1" fill="#595959" d="M 206.5,89.5 C 208.5,89.5 210.5,89.5 212.5,89.5C 212.5,95.5 212.5,101.5 212.5,107.5C 211.511,102.025 211.178,96.358 211.5,90.5C 209.585,90.7845 207.919,90.4511 206.5,89.5 Z"/></g>
<g><path style="opacity:1" fill="#555555" d="M 223.5,89.5 C 222.081,90.4511 220.415,90.7845 218.5,90.5C 218.822,96.358 218.489,102.025 217.5,107.5C 217.5,101.5 217.5,95.5 217.5,89.5C 219.5,89.5 221.5,89.5 223.5,89.5 Z"/></g>
<g><path style="opacity:1" fill="#202020" d="M 244.5,89.5 C 251.141,89.6389 253.974,92.9722 253,99.5C 249.61,103.032 245.943,103.366 242,100.5C 240.812,96.2586 241.645,92.5919 244.5,89.5 Z"/></g>
<g><path style="opacity:1" fill="#9d9d9c" d="M 44.5,96.5 C 43.8333,100.167 43.1667,103.833 42.5,107.5C 42.1758,103.445 42.5091,99.4454 43.5,95.5C 44.1067,95.6236 44.44,95.9569 44.5,96.5 Z"/></g>
<g><path style="opacity:1" fill="#949493" d="M 281.5,107.5 C 282.492,100.352 282.825,93.0191 282.5,85.5C 281.167,85.5 279.833,85.5 278.5,85.5C 278.824,89.5546 278.491,93.5546 277.5,97.5C 276.893,97.3764 276.56,97.0431 276.5,96.5C 277.483,92.7016 277.817,88.7016 277.5,84.5C 279.5,84.5 281.5,84.5 283.5,84.5C 283.831,92.5277 283.498,100.528 282.5,108.5C 281.893,108.376 281.56,108.043 281.5,107.5 Z"/></g>
<g><path style="opacity:1" fill="#828282" d="M 183.5,93.5 C 184.451,94.9187 184.784,96.5853 184.5,98.5C 181.5,98.5 178.5,98.5 175.5,98.5C 175.5,99.8333 175.5,101.167 175.5,102.5C 178.833,102.5 182.167,102.5 185.5,102.5C 185.784,104.415 185.451,106.081 184.5,107.5C 184.5,106.167 184.5,104.833 184.5,103.5C 181.167,103.5 177.833,103.5 174.5,103.5C 174.5,101.5 174.5,99.5 174.5,97.5C 177.5,97.5 180.5,97.5 183.5,97.5C 183.5,96.1667 183.5,94.8333 183.5,93.5 Z"/></g>
</svg>
