<?xml version="1.0" encoding="UTF-8"?>
<!DOCTYPE svg PUBLIC "-//W3C//DTD SVG 1.1//EN" "http://www.w3.org/Graphics/SVG/1.1/DTD/svg11.dtd">
<svg xmlns="http://www.w3.org/2000/svg" version="1.1" width="160px" height="86px" style="shape-rendering:geometricPrecision; text-rendering:geometricPrecision; image-rendering:optimizeQuality; fill-rule:evenodd; clip-rule:evenodd" xmlns:xlink="http://www.w3.org/1999/xlink">
<g><path style="opacity:1" fill="#fdfdfd" d="M -0.5,-0.5 C 52.8333,-0.5 106.167,-0.5 159.5,-0.5C 159.5,28.1667 159.5,56.8333 159.5,85.5C 106.167,85.5 52.8333,85.5 -0.5,85.5C -0.5,56.8333 -0.5,28.1667 -0.5,-0.5 Z"/></g>
<g><path style="opacity:1" fill="#313131" d="M 23.5,23.5 C 25.5,23.5 27.5,23.5 29.5,23.5C 29.5,33.8333 29.5,44.1667 29.5,54.5C 32.5,54.5 35.5,54.5 38.5,54.5C 38.5,55.8333 38.5,57.1667 38.5,58.5C 33.5,58.5 28.5,58.5 23.5,58.5C 23.5,46.8333 23.5,35.1667 23.5,23.5 Z"/></g>
<g><path style="opacity:1" fill="#313131" d="M 85.5,23.5 C 87.5,23.5 89.5,23.5 91.5,23.5C 91.5,33.8333 91.5,44.1667 91.5,54.5C 94.5,54.5 97.5,54.5 100.5,54.5C 100.5,55.8333 100.5,57.1667 100.5,58.5C 95.5,58.5 90.5,58.5 85.5,58.5C 85.5,46.8333 85.5,35.1667 85.5,23.5 Z"/></g>
<g><path style="opacity:1" fill="#262626" d="M 119.5,23.5 C 121.167,23.5 122.833,23.5 124.5,23.5C 124.335,27.1817 124.501,30.8484 125,34.5C 127.401,33.3977 129.901,33.231 132.5,34C 133.126,34.7504 133.626,35.5838 134,36.5C 134.667,42.5 134.667,48.5 134,54.5C 133.535,55.9308 132.701,57.0975 131.5,58C 127.399,57.6504 123.399,57.8171 119.5,58.5C 119.5,46.8333 119.5,35.1667 119.5,23.5 Z"/></g>
<g><path style="opacity:1" fill="#282828" d="M 42.5,33.5 C 52.1674,32.5109 55.8341,36.8443 53.5,46.5C 50.5,46.5 47.5,46.5 44.5,46.5C 44.5,49.1667 44.5,51.8333 44.5,54.5C 45.8333,54.5 47.1667,54.5 48.5,54.5C 48.5,52.8333 48.5,51.1667 48.5,49.5C 50.1667,49.5 51.8333,49.5 53.5,49.5C 53.1413,58.5707 48.9747,60.904 41,56.5C 39.4137,49.9427 39.0804,43.276 40,36.5C 41.045,35.6266 41.8783,34.6266 42.5,33.5 Z"/></g>
<g><path style="opacity:1" fill="#282828" d="M 60.5,33.5 C 70.1674,32.5109 73.8341,36.8443 71.5,46.5C 68.5,46.5 65.5,46.5 62.5,46.5C 62.5,49.1667 62.5,51.8333 62.5,54.5C 63.8333,54.5 65.1667,54.5 66.5,54.5C 66.5,52.8333 66.5,51.1667 66.5,49.5C 68.1667,49.5 69.8333,49.5 71.5,49.5C 71.1413,58.5707 66.9747,60.904 59,56.5C 57.4137,49.9427 57.0804,43.276 58,36.5C 59.045,35.6266 59.8783,34.6266 60.5,33.5 Z"/></g>
<g><path style="opacity:1" fill="#2a2a2a" d="M 104.5,33.5 C 107.518,33.3354 110.518,33.502 113.5,34C 114.701,34.9025 115.535,36.0692 116,37.5C 116.5,44.4921 116.666,51.4921 116.5,58.5C 114.234,58.8588 112.401,58.1922 111,56.5C 107.528,59.418 104.528,59.0846 102,55.5C 101.333,53.1667 101.333,50.8333 102,48.5C 104.69,45.9918 107.69,43.9918 111,42.5C 112.177,38.5082 110.677,36.8416 106.5,37.5C 106.5,38.8333 106.5,40.1667 106.5,41.5C 104.833,41.5 103.167,41.5 101.5,41.5C 101.394,38.3855 102.394,35.7188 104.5,33.5 Z"/></g>
<g><path style="opacity:1" fill="#f2f2f2" d="M 44.5,37.5 C 45.8333,37.5 47.1667,37.5 48.5,37.5C 48.5,39.5 48.5,41.5 48.5,43.5C 47.1667,43.5 45.8333,43.5 44.5,43.5C 44.5,41.5 44.5,39.5 44.5,37.5 Z"/></g>
<g><path style="opacity:1" fill="#f2f2f2" d="M 62.5,37.5 C 63.8333,37.5 65.1667,37.5 66.5,37.5C 66.5,39.5 66.5,41.5 66.5,43.5C 65.1667,43.5 63.8333,43.5 62.5,43.5C 62.5,41.5 62.5,39.5 62.5,37.5 Z"/></g>
<g><path style="opacity:1" fill="#f4f4f4" d="M 125.5,37.5 C 126.833,37.5 128.167,37.5 129.5,37.5C 129.5,43.1667 129.5,48.8333 129.5,54.5C 127.856,54.7135 126.356,54.3802 125,53.5C 124.219,48.0833 124.385,42.7499 125.5,37.5 Z"/></g>
<g><path style="opacity:1" fill="#e1e1e1" d="M 109.5,46.5 C 110.693,46.9704 111.36,47.9704 111.5,49.5C 111.743,51.9215 110.743,53.5882 108.5,54.5C 107.119,54.0004 106.453,53.0004 106.5,51.5C 107.092,49.5775 108.092,47.9108 109.5,46.5 Z"/></g>
</svg>
