<?xml version="1.0" encoding="UTF-8"?>
<!DOCTYPE svg PUBLIC "-//W3C//DTD SVG 1.1//EN" "http://www.w3.org/Graphics/SVG/1.1/DTD/svg11.dtd">
<svg xmlns="http://www.w3.org/2000/svg" version="1.1" width="180px" height="173px" style="shape-rendering:geometricPrecision; text-rendering:geometricPrecision; image-rendering:optimizeQuality; fill-rule:evenodd; clip-rule:evenodd" xmlns:xlink="http://www.w3.org/1999/xlink">
<g><path style="opacity:0.985" fill="#03050b" d="M 70.5,-0.5 C 80.8333,-0.5 91.1667,-0.5 101.5,-0.5C 146.353,10.862 170.353,39.6953 173.5,86C 170.353,132.305 146.353,161.138 101.5,172.5C 91.1667,172.5 80.8333,172.5 70.5,172.5C 32.5,163.167 8.83333,139.5 -0.5,101.5C -0.5,91.1667 -0.5,80.8333 -0.5,70.5C 8.83333,32.5 32.5,8.83333 70.5,-0.5 Z M 78.5,25.5 C 124.794,25.957 143.961,48.957 136,94.5C 131.819,108.516 122.653,117.182 108.5,120.5C 102.054,119.887 98.3871,116.387 97.5,110C 99.4455,102.95 103.946,100.117 111,101.5C 120.019,98.5138 125.019,92.1805 126,82.5C 128.465,61.565 119.632,48.3983 99.5,43C 85.0889,40.0587 71.4223,42.0587 58.5,49C 46.486,60.2027 42.986,73.7027 48,89.5C 51.3728,98.0922 57.5394,101.926 66.5,101C 75.0482,104.977 76.3815,110.643 70.5,118C 63.8548,121.399 57.5215,120.732 51.5,116C 35.8961,101.77 30.3961,84.2702 35,63.5C 40.9702,41.0277 55.4702,28.361 78.5,25.5 Z M 59.5,127.5 C 66.5032,127.339 70.0032,130.672 70,137.5C 68.0892,142.418 64.5892,144.251 59.5,143C 55.1392,140.774 53.6392,137.274 55,132.5C 56.025,130.313 57.525,128.646 59.5,127.5 Z M 107.5,127.5 C 115.642,127.481 118.808,131.481 117,139.5C 111.186,145.205 106.186,144.538 102,137.5C 101.477,132.88 103.31,129.547 107.5,127.5 Z"/></g>
</svg>
