<?xml version="1.0" encoding="UTF-8"?>
<!DOCTYPE svg PUBLIC "-//W3C//DTD SVG 1.1//EN" "http://www.w3.org/Graphics/SVG/1.1/DTD/svg11.dtd">
<svg xmlns="http://www.w3.org/2000/svg" version="1.1" width="405px" height="388px" style="shape-rendering:geometricPrecision; text-rendering:geometricPrecision; image-rendering:optimizeQuality; fill-rule:evenodd; clip-rule:evenodd" xmlns:xlink="http://www.w3.org/1999/xlink">
<g><path style="opacity:0.977" fill="#b3b6b7" d="M 192.5,-0.5 C 199.5,-0.5 206.5,-0.5 213.5,-0.5C 238.817,3.82811 259.15,16.3281 274.5,37C 292.298,39.466 302.964,49.466 306.5,67C 337.663,76.5838 366.663,90.4171 393.5,108.5C 354.179,133.989 311.512,151.489 265.5,161C 276.603,165.938 284.937,173.771 290.5,184.5C 291.301,186.999 292.634,188.999 294.5,190.5C 294.389,191.117 294.056,191.617 293.5,192C 301.252,209.535 298.252,224.868 284.5,238C 270.804,247.718 258.304,246.551 247,234.5C 240.551,220.827 243.384,209.327 255.5,200C 255.272,199.601 254.938,199.435 254.5,199.5C 256.556,198.801 258.556,197.801 260.5,196.5C 258.891,193.106 256.224,191.773 252.5,192.5C 253.263,191.732 254.263,191.232 255.5,191C 252.113,188.998 250.613,186.165 251,182.5C 252.133,180.789 253.633,180.289 255.5,181C 261.626,186.916 267.293,193.249 272.5,200C 262.305,202.203 255.138,208.036 251,217.5C 249.382,226.764 252.882,233.264 261.5,237C 279.442,237.062 289.109,228.062 290.5,210C 286.891,182.224 271.224,166.724 243.5,163.5C 210.952,167.707 178.452,167.374 146,162.5C 144.833,162.667 143.667,162.833 142.5,163C 145.887,165.002 147.387,167.835 147,171.5C 145.274,172.576 143.441,172.743 141.5,172C 128.333,159.5 115.167,147 102,134.5C 101.374,132.287 101.541,130.12 102.5,128C 100.619,119.46 97.1185,118.626 92,125.5C 82.9278,118.935 73.4278,118.102 63.5,123C 61.8767,125.08 60.3767,127.246 59,129.5C 56.3701,148.075 62.8701,162.575 78.5,173C 93.5704,184.37 110.237,192.203 128.5,196.5C 117.03,196.115 105.697,194.781 94.5,192.5C 82.7555,185.863 71.9222,177.863 62,168.5C 53.8732,158.683 49.7066,147.35 49.5,134.5C 32.1997,126.855 15.8663,117.688 0.5,107C 30.2115,87.8159 62.2115,73.4825 96.5,64C 100.005,51.8286 107.672,43.4953 119.5,39C 123.824,38.1305 128.158,37.2971 132.5,36.5C 147.83,16.506 167.83,4.17267 192.5,-0.5 Z M 265.5,38.5 C 249.532,18.3504 228.532,8.01709 202.5,7.5C 178.86,7.99184 158.86,16.6585 142.5,33.5C 163.028,9.59755 189.028,0.430884 220.5,6C 239.887,11.0466 255.887,21.3799 268.5,37C 267.756,38.0386 266.756,38.5386 265.5,38.5 Z M 213.5,13.5 C 212.014,18.9137 214.014,22.7471 219.5,25C 225.123,27.2218 230.79,27.5552 236.5,26C 237.71,24.9609 238.71,23.7942 239.5,22.5C 247.418,27.0901 254.418,32.7567 260.5,39.5C 254.451,42.71 249.451,47.21 245.5,53C 237.207,52.4133 228.874,51.7467 220.5,51C 212.333,50.8333 204.167,50.6667 196,50.5C 183.426,50.3441 170.926,51.0107 158.5,52.5C 155.976,50.8099 153.976,48.6432 152.5,46C 149.93,43.9131 147.263,42.0798 144.5,40.5C 162.514,19.0005 185.514,10.0005 213.5,13.5 Z M 223.5,15.5 C 226.341,16.6693 229.341,17.6693 232.5,18.5C 232.953,19.4584 233.619,20.2917 234.5,21C 228.491,22.9982 223.158,21.8315 218.5,17.5C 219.85,16.0499 221.516,15.3832 223.5,15.5 Z M 139.5,36.5 C 139.672,37.4916 139.338,38.1583 138.5,38.5C 137.561,37.6726 137.895,37.0059 139.5,36.5 Z"/></g>
<g><path style="opacity:0.909" fill="#8a8b8b" d="M 265.5,38.5 C 264.081,39.4511 262.415,39.7845 260.5,39.5C 254.418,32.7567 247.418,27.0901 239.5,22.5C 237.434,20.8009 235.1,19.4676 232.5,18.5C 229.341,17.6693 226.341,16.6693 223.5,15.5C 220.456,13.9886 217.122,13.322 213.5,13.5C 185.514,10.0005 162.514,19.0005 144.5,40.5C 142.102,40.7406 140.102,40.0739 138.5,38.5C 139.338,38.1583 139.672,37.4916 139.5,36.5C 140.167,36.5 140.5,36.1667 140.5,35.5C 141.167,35.5 141.5,35.1667 141.5,34.5C 142.167,34.5 142.5,34.1667 142.5,33.5C 158.86,16.6585 178.86,7.99184 202.5,7.5C 228.532,8.01709 249.532,18.3504 265.5,38.5 Z M 223.5,15.5 C 226.341,16.6693 229.341,17.6693 232.5,18.5C 232.953,19.4584 233.619,20.2917 234.5,21C 228.491,22.9982 223.158,21.8315 218.5,17.5C 219.85,16.0499 221.516,15.3832 223.5,15.5 Z"/></g>
<g><path style="opacity:0.917" fill="#b4b5b5" d="M 213.5,13.5 C 217.122,13.322 220.456,13.9886 223.5,15.5C 221.516,15.3832 219.85,16.0499 218.5,17.5C 223.158,21.8315 228.491,22.9982 234.5,21C 233.619,20.2917 232.953,19.4584 232.5,18.5C 235.1,19.4676 237.434,20.8009 239.5,22.5C 238.71,23.7942 237.71,24.9609 236.5,26C 230.79,27.5552 225.123,27.2218 219.5,25C 214.014,22.7471 212.014,18.9137 213.5,13.5 Z"/></g>
<g><path style="opacity:1" fill="#f1f2f2" d="M 124.5,41.5 C 150.009,42.5005 160.509,55.5005 156,80.5C 147.059,96.814 133.892,101.647 116.5,95C 101.338,84.515 97.8379,71.015 106,54.5C 110.99,48.2747 117.157,43.9414 124.5,41.5 Z"/></g>
<g><path style="opacity:1" fill="#f1f2f2" d="M 268.5,41.5 C 291.644,41.8089 302.477,53.4756 301,76.5C 294.799,93.8523 282.633,100.686 264.5,97C 247.58,88.6545 242.08,75.4879 248,57.5C 252.748,49.3893 259.581,44.0559 268.5,41.5 Z"/></g>
<g><path style="opacity:1" fill="#040404" d="M 269.5,52.5 C 280.457,50.5612 288.29,54.5612 293,64.5C 295.004,74.0205 291.837,81.1872 283.5,86C 272.396,90.1921 264.229,87.0254 259,76.5C 256.28,65.6181 259.78,57.6181 269.5,52.5 Z"/></g>
<g><path style="opacity:1" fill="#2ba7e0" d="M 177.5,57.5 C 199.301,56.8907 220.968,58.224 242.5,61.5C 238.862,80.3931 245.862,93.5597 263.5,101C 278.32,104.424 290.487,100.257 300,88.5C 302.092,83.9793 304.425,79.646 307,75.5C 332.352,83.7605 356.518,94.5938 379.5,108C 302.787,153.424 220.453,168.424 132.5,153C 125,146.167 117.5,139.333 110,132.5C 110.754,117.564 104.087,111.898 90,115.5C 79.5095,111.002 69.3428,111.502 59.5,117C 55.8957,119.708 53.3957,123.208 52,127.5C 39.1313,121.316 26.6313,114.483 14.5,107C 40.4917,91.6692 67.9917,79.8358 97,71.5C 101.895,94.8539 116.061,104.687 139.5,101C 157.463,93.2412 164.463,79.7412 160.5,60.5C 166.164,58.9853 171.831,57.9853 177.5,57.5 Z"/></g>
<g><path style="opacity:1" fill="#0d0c0c" d="M 121.5,60.5 C 133.206,59.3584 142.873,63.1917 150.5,72C 136.173,70.9978 123.673,75.1645 113,84.5C 111.978,83.646 111.145,82.646 110.5,81.5C 119.194,73.4934 129.527,69.3267 141.5,69C 137.35,65.3437 132.516,63.8437 127,64.5C 122.179,64.1194 117.679,65.1194 113.5,67.5C 111.512,66.7112 111.179,65.5445 112.5,64C 115.459,62.3957 118.459,61.2291 121.5,60.5 Z"/></g>
<g><path style="opacity:1" fill="#d3d4d4" d="M 281.5,62.5 C 288.536,61.6026 290.203,64.1026 286.5,70C 280.797,70.4559 279.13,67.9559 281.5,62.5 Z"/></g>
<g><path style="opacity:1" fill="#080809" d="M 176.5,103.5 C 188.253,109.507 200.586,111.007 213.5,108C 216.855,106.882 220.022,105.382 223,103.5C 223.87,104.108 224.37,104.941 224.5,106C 220.553,109.498 215.886,111.498 210.5,112C 198.595,113.843 187.261,112.176 176.5,107C 175.829,106.014 175.829,104.847 176.5,103.5 Z"/></g>
<g><path style="opacity:1" fill="#2ca7e0" d="M 252.5,192.5 C 217.658,197.197 182.658,199.031 147.5,198C 141.151,197.594 134.817,197.094 128.5,196.5C 110.237,192.203 93.5704,184.37 78.5,173C 62.8701,162.575 56.3701,148.075 59,129.5C 60.3767,127.246 61.8767,125.08 63.5,123C 73.4278,118.102 82.9278,118.935 92,125.5C 97.1185,118.626 100.619,119.46 102.5,128C 101.541,130.12 101.374,132.287 102,134.5C 115.167,147 128.333,159.5 141.5,172C 143.441,172.743 145.274,172.576 147,171.5C 147.387,167.835 145.887,165.002 142.5,163C 143.667,162.833 144.833,162.667 146,162.5C 178.452,167.374 210.952,167.707 243.5,163.5C 271.224,166.724 286.891,182.224 290.5,210C 289.109,228.062 279.442,237.062 261.5,237C 252.882,233.264 249.382,226.764 251,217.5C 255.138,208.036 262.305,202.203 272.5,200C 267.293,193.249 261.626,186.916 255.5,181C 253.633,180.289 252.133,180.789 251,182.5C 250.613,186.165 252.113,188.998 255.5,191C 254.263,191.232 253.263,191.732 252.5,192.5 Z"/></g>
<g><path style="opacity:0.953" fill="#a0a1a1" d="M 219.5,387.5 C 208.833,387.5 198.167,387.5 187.5,387.5C 142.685,384.842 102.685,369.676 67.5,342C 28.4347,305.361 8.93466,260.194 9,206.5C 9.66481,190.665 17.8315,182.998 33.5,183.5C 53.9276,185.852 74.2609,188.852 94.5,192.5C 105.697,194.781 117.03,196.115 128.5,196.5C 134.817,197.094 141.151,197.594 147.5,198C 182.658,199.031 217.658,197.197 252.5,192.5C 256.224,191.773 258.891,193.106 260.5,196.5C 258.556,197.801 256.556,198.801 254.5,199.5C 231.242,202.351 207.908,204.518 184.5,206C 190.313,220.417 187.313,232.75 175.5,243C 161.126,251.319 147.626,250.153 135,239.5C 126.912,228.712 125.412,217.045 130.5,204.5C 99.9962,201.233 69.6628,196.733 39.5,191C 33.5743,189.89 27.9077,190.556 22.5,193C 20.3834,194.731 18.8834,196.898 18,199.5C 14.6015,214.216 14.9348,228.882 19,243.5C 39.5273,321.354 89.694,366.188 169.5,378C 221.251,385.04 269.918,376.04 315.5,351C 325.405,345.208 334.405,338.208 342.5,330C 325.472,336.659 313.638,331.492 307,314.5C 306.197,295.303 315.364,286.136 334.5,287C 348.912,291.648 354.745,301.481 352,316.5C 350.699,318.402 350.032,320.402 350,322.5C 380.613,285.324 393.946,242.658 390,194.5C 388.741,183.459 383.575,174.959 374.5,169C 370.833,168.333 367.167,168.333 363.5,169C 340.866,177.49 317.866,184.657 294.5,190.5C 292.634,188.999 291.301,186.999 290.5,184.5C 314.778,177.907 338.778,170.407 362.5,162C 376.972,159.487 387.139,164.987 393,178.5C 399.175,199.205 400.175,220.205 396,241.5C 382.982,310.85 342.815,356.016 275.5,377C 257.035,382.352 238.369,385.852 219.5,387.5 Z"/></g>
<g><path style="opacity:1" fill="#eeeeee" d="M 254.5,199.5 C 254.938,199.435 255.272,199.601 255.5,200C 243.384,209.327 240.551,220.827 247,234.5C 258.304,246.551 270.804,247.718 284.5,238C 298.252,224.868 301.252,209.535 293.5,192C 294.056,191.617 294.389,191.117 294.5,190.5C 317.866,184.657 340.866,177.49 363.5,169C 367.167,168.333 370.833,168.333 374.5,169C 383.575,174.959 388.741,183.459 390,194.5C 393.946,242.658 380.613,285.324 350,322.5C 350.032,320.402 350.699,318.402 352,316.5C 354.745,301.481 348.912,291.648 334.5,287C 315.364,286.136 306.197,295.303 307,314.5C 313.638,331.492 325.472,336.659 342.5,330C 334.405,338.208 325.405,345.208 315.5,351C 269.918,376.04 221.251,385.04 169.5,378C 89.694,366.188 39.5273,321.354 19,243.5C 14.9348,228.882 14.6015,214.216 18,199.5C 18.8834,196.898 20.3834,194.731 22.5,193C 27.9077,190.556 33.5743,189.89 39.5,191C 69.6628,196.733 99.9962,201.233 130.5,204.5C 125.412,217.045 126.912,228.712 135,239.5C 147.626,250.153 161.126,251.319 175.5,243C 187.313,232.75 190.313,220.417 184.5,206C 207.908,204.518 231.242,202.351 254.5,199.5 Z"/></g>
<g><path style="opacity:1" fill="#a0a2a3" d="M 61.5,203.5 C 83.3668,201.866 93.2001,211.866 91,233.5C 85.7745,246.363 76.2745,251.863 62.5,250C 46.3397,242.862 41.5064,231.028 48,214.5C 51.7018,209.748 56.2018,206.082 61.5,203.5 Z"/></g>
<g><path style="opacity:1" fill="#2da7e0" d="M 138.5,204.5 C 151.149,205.11 163.815,205.776 176.5,206.5C 183.347,218.992 181.013,229.492 169.5,238C 153.359,245.287 141.859,240.787 135,224.5C 133.648,217.309 134.814,210.642 138.5,204.5 Z"/></g>
<g><path style="opacity:1" fill="#a0a2a2" d="M 348.5,205.5 C 374.393,204.661 385.56,216.995 382,242.5C 374.627,258.194 362.46,263.694 345.5,259C 330.632,251.088 325.466,238.921 330,222.5C 333.85,214.183 340.016,208.516 348.5,205.5 Z"/></g>
<g><path style="opacity:1" fill="#2da7e0" d="M 63.5,210.5 C 81.7197,210.609 87.8864,219.275 82,236.5C 72.9665,245.746 63.9665,245.746 55,236.5C 49.3733,224.807 52.2067,216.14 63.5,210.5 Z"/></g>
<g><path style="opacity:1" fill="#2ca7e0" d="M 352.5,212.5 C 363.975,211.82 371.809,216.82 376,227.5C 377.331,246.502 368.497,255.002 349.5,253C 336.213,246.48 332.38,236.313 338,222.5C 341.652,217.272 346.485,213.939 352.5,212.5 Z"/></g>
<g><path style="opacity:1" fill="#a0a2a3" d="M 303.5,247.5 C 317.152,246.044 323.319,252.044 322,265.5C 317.56,274.296 310.727,276.796 301.5,273C 291.75,263.738 292.416,255.238 303.5,247.5 Z"/></g>
<g><path style="opacity:1" fill="#33a7e0" d="M 306.5,254.5 C 314.543,255.02 316.876,258.854 313.5,266C 304.924,269.424 301.424,266.59 303,257.5C 304.145,256.364 305.312,255.364 306.5,254.5 Z"/></g>
<g><path style="opacity:1" fill="#a0a2a2" d="M 104.5,257.5 C 121.992,257.209 129.158,265.543 126,282.5C 119.822,293.258 110.989,296.091 99.5,291C 90.758,283.432 89.258,274.598 95,264.5C 97.7901,261.535 100.957,259.202 104.5,257.5 Z"/></g>
<g><path style="opacity:1" fill="#a0a2a3" d="M 253.5,263.5 C 277.071,262.162 288.904,273.162 289,296.5C 284.162,314.642 272.329,322.476 253.5,320C 234.462,312.081 228.296,298.248 235,278.5C 239.592,271.394 245.758,266.394 253.5,263.5 Z"/></g>
<g><path style="opacity:1" fill="#31a7e0" d="M 105.5,264.5 C 117.206,264.025 121.706,269.358 119,280.5C 115.945,285.635 111.445,287.468 105.5,286C 99.8917,283.182 97.725,278.682 99,272.5C 100.305,269.039 102.471,266.372 105.5,264.5 Z"/></g>
<g><path style="opacity:1" fill="#2ca7e0" d="M 256.5,270.5 C 273.171,270.672 281.671,279.006 282,295.5C 278.025,309.249 268.858,315.082 254.5,313C 239.706,305.618 235.873,294.452 243,279.5C 246.528,274.834 251.028,271.834 256.5,270.5 Z"/></g>
<g><path style="opacity:1" fill="#a0a2a3" d="M 167.5,278.5 C 186.141,277.388 197.974,285.721 203,303.5C 204.29,328.416 192.456,340.583 167.5,340C 148.135,334.461 139.969,321.628 143,301.5C 147.112,289.385 155.279,281.719 167.5,278.5 Z"/></g>
<g><path style="opacity:1" fill="#2da7e0" d="M 168.5,285.5 C 191.16,286.98 199.66,298.646 194,320.5C 182.673,335.732 169.673,337.398 155,325.5C 144.456,306.946 148.956,293.613 168.5,285.5 Z"/></g>
<g><path style="opacity:1" fill="#2ea7e0" d="M 325.5,293.5 C 342.569,294.059 348.402,302.392 343,318.5C 334.64,327.319 325.973,327.652 317,319.5C 310.962,307.913 313.796,299.246 325.5,293.5 Z"/></g>
<g><path style="opacity:1" fill="#a0a2a3" d="M 103.5,318.5 C 117.351,316.537 125.351,322.37 127.5,336C 125.437,349.202 117.771,354.868 104.5,353C 94.7984,349.102 90.6318,341.935 92,331.5C 94.273,325.73 98.1063,321.397 103.5,318.5 Z"/></g>
<g><path style="opacity:1" fill="#30a7e0" d="M 105.5,325.5 C 116.486,324.653 120.986,329.653 119,340.5C 113.719,347.422 107.719,348.088 101,342.5C 96.7575,335.274 98.2575,329.607 105.5,325.5 Z"/></g>
<g><path style="opacity:1" fill="#a0a2a2" d="M 235.5,346.5 C 250.566,346.061 256.066,353.061 252,367.5C 247.515,373.174 241.681,375.007 234.5,373C 225.755,366.974 224.255,359.474 230,350.5C 232.015,349.303 233.849,347.97 235.5,346.5 Z"/></g>
<g><path style="opacity:1" fill="#32a7e0" d="M 237.5,353.5 C 246.515,353.654 248.848,357.654 244.5,365.5C 236.765,368.258 233.265,365.591 234,357.5C 235.376,356.295 236.542,354.962 237.5,353.5 Z"/></g>
</svg>
