<svg xmlns="http://www.w3.org/2000/svg" width="405" height="388" style="shape-rendering:geometricPrecision;text-rendering:geometricPrecision;image-rendering:optimizeQuality;fill-rule:evenodd;clip-rule:evenodd"><path style="opacity:.977" fill="#b3b6b7" d="M192.5-.5h21c25.317 4.328 45.65 16.828 61 37.5 17.798 2.466 28.464 12.466 32 30 31.163 9.584 60.163 23.417 87 41.5-39.321 25.489-81.988 42.989-128 52.5 11.103 4.938 19.437 12.771 25 23.5.801 2.499 2.134 4.499 4 6-.111.617-.444 1.117-1 1.5 7.752 17.535 4.752 32.868-9 46-13.696 9.718-26.196 8.551-37.5-3.5-6.449-13.673-3.616-25.173 8.5-34.5-.228-.399-.562-.565-1-.5 2.056-.699 4.056-1.699 6-3-1.609-3.394-4.276-4.727-8-4 .763-.768 1.763-1.268 3-1.5-3.387-2.002-4.887-4.835-4.5-8.5 1.133-1.711 2.633-2.211 4.5-1.5a174.732 174.732 0 0 1 17 19c-10.195 2.203-17.362 8.036-21.5 17.5-1.618 9.264 1.882 15.764 10.5 19.5 17.942.062 27.609-8.938 29-27-3.609-27.776-19.276-43.276-47-46.5-32.548 4.207-65.048 3.874-97.5-1l-3.5.5c3.387 2.002 4.887 4.835 4.5 8.5-1.726 1.076-3.559 1.243-5.5.5L102 134.5c-.626-2.213-.459-4.38.5-6.5-1.881-8.54-5.382-9.374-10.5-2.5-9.072-6.565-18.572-7.398-28.5-2.5a69.088 69.088 0 0 0-4.5 6.5c-2.63 18.575 3.87 33.075 19.5 43.5 15.07 11.37 31.737 19.203 50 23.5a204.372 204.372 0 0 1-34-4c-11.745-6.637-22.578-14.637-32.5-24-8.127-9.817-12.293-21.15-12.5-34-17.3-7.645-33.634-16.812-49-27.5 29.712-19.184 61.712-33.517 96-43 3.505-12.171 11.172-20.505 23-25 4.324-.87 8.658-1.703 13-2.5 15.33-19.994 35.33-32.327 60-37zm73 39c-15.968-20.15-36.968-30.483-63-31-23.64.492-43.64 9.159-60 26C163.028 9.598 189.028.43 220.5 6c19.387 5.047 35.387 15.38 48 31-.744 1.039-1.744 1.539-3 1.5zm-52-25c-1.486 5.414.514 9.247 6 11.5 5.623 2.222 11.29 2.555 17 1a14.696 14.696 0 0 0 3-3.5c7.918 4.59 14.918 10.257 21 17-6.049 3.21-11.049 7.71-15 13.5a1370.11 1370.11 0 0 1-25-2l-24.5-.5a285.08 285.08 0 0 0-37.5 2 18.679 18.679 0 0 1-6-6.5 59.683 59.683 0 0 0-8-5.5c18.014-21.5 41.014-30.5 69-27zm10 2a71.189 71.189 0 0 0 9 3c.453.958 1.119 1.792 2 2.5-6.009 1.998-11.342.831-16-3.5 1.35-1.45 3.016-2.117 5-2zm-84 21c.172.992-.162 1.658-1 2-.939-.827-.605-1.494 1-2z"/><path style="opacity:.909" fill="#8a8b8b" d="M265.5 38.5c-1.419.951-3.085 1.285-5 1-6.082-6.743-13.082-12.41-21-17-2.066-1.7-4.4-3.032-7-4a71.189 71.189 0 0 1-9-3c-3.044-1.511-6.378-2.178-10-2-27.986-3.5-50.986 5.5-69 27-2.398.24-4.398-.426-6-2 .838-.342 1.172-1.008 1-2 .667 0 1-.333 1-1 .667 0 1-.333 1-1 .667 0 1-.333 1-1 16.36-16.841 36.36-25.508 60-26 26.032.517 47.032 10.85 63 31zm-42-23a71.189 71.189 0 0 0 9 3c.453.958 1.119 1.792 2 2.5-6.009 1.998-11.342.831-16-3.5 1.35-1.45 3.016-2.117 5-2z"/><path style="opacity:.917" fill="#b4b5b5" d="M213.5 13.5c3.622-.178 6.956.489 10 2-1.984-.117-3.65.55-5 2 4.658 4.331 9.991 5.498 16 3.5-.881-.708-1.547-1.542-2-2.5 2.6.968 4.934 2.3 7 4a14.696 14.696 0 0 1-3 3.5c-5.71 1.555-11.377 1.222-17-1-5.486-2.253-7.486-6.086-6-11.5z"/><path style="opacity:1" fill="#f1f2f2" d="M124.5 41.5c25.509 1 36.009 14 31.5 39-8.941 16.314-22.108 21.147-39.5 14.5-15.162-10.485-18.662-23.985-10.5-40.5 4.99-6.225 11.157-10.559 18.5-13zM268.5 41.5c23.144.309 33.977 11.976 32.5 35-6.201 17.352-18.367 24.186-36.5 20.5-16.92-8.346-22.42-21.512-16.5-39.5 4.748-8.11 11.581-13.444 20.5-16z"/><path style="opacity:1" fill="#040404" d="M269.5 52.5c10.957-1.939 18.79 2.061 23.5 12 2.004 9.52-1.163 16.687-9.5 21.5-11.104 4.192-19.271 1.025-24.5-9.5-2.72-10.882.78-18.882 10.5-24z"/><path style="opacity:1" fill="#2ba7e0" d="M177.5 57.5c21.801-.61 43.468.724 65 4-3.638 18.893 3.362 32.06 21 39.5 14.82 3.424 26.987-.743 36.5-12.5a120.636 120.636 0 0 1 7-13 372.497 372.497 0 0 1 72.5 32.5c-76.713 45.424-159.047 60.424-247 45L110 132.5c.754-14.936-5.913-20.602-20-17-10.49-4.498-20.657-3.998-30.5 1.5-3.604 2.708-6.104 6.208-7.5 10.5A407.931 407.931 0 0 1 14.5 107 354.399 354.399 0 0 1 97 71.5c4.895 23.354 19.061 33.187 42.5 29.5 17.963-7.759 24.963-21.259 21-40.5a98.088 98.088 0 0 1 17-3z"/><path style="opacity:1" fill="#0d0c0c" d="M121.5 60.5c11.706-1.142 21.373 2.692 29 11.5-14.327-1.002-26.827 3.165-37.5 12.5a10.756 10.756 0 0 1-2.5-3c8.694-8.007 19.027-12.173 31-12.5-4.15-3.656-8.984-5.156-14.5-4.5-4.821-.38-9.321.62-13.5 3-1.988-.789-2.321-1.956-1-3.5 2.959-1.604 5.959-2.77 9-3.5z"/><path style="opacity:1" fill="#d3d4d4" d="M281.5 62.5c7.036-.897 8.703 1.603 5 7.5-5.703.456-7.37-2.044-5-7.5z"/><path style="opacity:1" fill="#080809" d="M176.5 103.5c11.753 6.007 24.086 7.507 37 4.5a43.4 43.4 0 0 0 9.5-4.5c.87.608 1.37 1.441 1.5 2.5-3.947 3.498-8.614 5.498-14 6-11.905 1.843-23.239.176-34-5-.671-.986-.671-2.153 0-3.5z"/><path style="opacity:1" fill="#2ca7e0" d="M252.5 192.5a643.447 643.447 0 0 1-105 5.5 637.533 637.533 0 0 1-19-1.5c-18.263-4.297-34.93-12.13-50-23.5-15.63-10.425-22.13-24.925-19.5-43.5a69.088 69.088 0 0 1 4.5-6.5c9.928-4.898 19.428-4.065 28.5 2.5 5.118-6.874 8.619-6.04 10.5 2.5-.959 2.12-1.126 4.287-.5 6.5l39.5 37.5c1.941.743 3.774.576 5.5-.5.387-3.665-1.113-6.498-4.5-8.5l3.5-.5c32.452 4.874 64.952 5.207 97.5 1 27.724 3.224 43.391 18.724 47 46.5-1.391 18.062-11.058 27.062-29 27-8.618-3.736-12.118-10.236-10.5-19.5 4.138-9.464 11.305-15.297 21.5-17.5a174.732 174.732 0 0 0-17-19c-1.867-.711-3.367-.211-4.5 1.5-.387 3.665 1.113 6.498 4.5 8.5-1.237.232-2.237.732-3 1.5z"/><path style="opacity:.953" fill="#a0a1a1" d="M219.5 387.5h-32c-44.815-2.658-84.815-17.824-120-45.5C28.435 305.361 8.935 260.194 9 206.5c.665-15.835 8.831-23.502 24.5-23a967.946 967.946 0 0 1 61 9 204.372 204.372 0 0 0 34 4 637.533 637.533 0 0 0 19 1.5 643.447 643.447 0 0 0 105-5.5c3.724-.727 6.391.606 8 4-1.944 1.301-3.944 2.301-6 3a1196.635 1196.635 0 0 1-70 6.5c5.813 14.417 2.813 26.75-9 37-14.374 8.319-27.874 7.153-40.5-3.5-8.088-10.788-9.588-22.455-4.5-35a1133.73 1133.73 0 0 1-91-13.5c-5.926-1.11-11.592-.444-17 2-2.117 1.731-3.617 3.898-4.5 6.5-3.399 14.716-3.065 29.382 1 44C39.527 321.354 89.694 366.188 169.5 378c51.751 7.04 100.418-1.96 146-27a129.777 129.777 0 0 0 27-21c-17.028 6.659-28.862 1.492-35.5-15.5-.803-19.197 8.364-28.364 27.5-27.5 14.412 4.648 20.245 14.481 17.5 29.5-1.301 1.902-1.968 3.902-2 6 30.613-37.176 43.946-79.842 40-128-1.259-11.041-6.425-19.541-15.5-25.5a30.485 30.485 0 0 0-11 0 634.807 634.807 0 0 1-69 21.5c-1.866-1.501-3.199-3.501-4-6a1000.083 1000.083 0 0 0 72-22.5c14.472-2.513 24.639 2.987 30.5 16.5 6.175 20.705 7.175 41.705 3 63-13.018 69.35-53.185 114.516-120.5 135.5-18.465 5.352-37.131 8.852-56 10.5z"/><path style="opacity:1" fill="#eee" d="M254.5 199.5c.438-.065.772.101 1 .5-12.116 9.327-14.949 20.827-8.5 34.5 11.304 12.051 23.804 13.218 37.5 3.5 13.752-13.132 16.752-28.465 9-46 .556-.383.889-.883 1-1.5a634.807 634.807 0 0 0 69-21.5 30.485 30.485 0 0 1 11 0c9.075 5.959 14.241 14.459 15.5 25.5 3.946 48.158-9.387 90.824-40 128 .032-2.098.699-4.098 2-6 2.745-15.019-3.088-24.852-17.5-29.5-19.136-.864-28.303 8.303-27.5 27.5 6.638 16.992 18.472 22.159 35.5 15.5a129.777 129.777 0 0 1-27 21c-45.582 25.04-94.249 34.04-146 27C89.694 366.188 39.527 321.354 19 243.5c-4.065-14.618-4.399-29.284-1-44 .883-2.602 2.383-4.769 4.5-6.5 5.408-2.444 11.074-3.11 17-2a1133.73 1133.73 0 0 0 91 13.5c-5.088 12.545-3.588 24.212 4.5 35 12.626 10.653 26.126 11.819 40.5 3.5 11.813-10.25 14.813-22.583 9-37a1196.635 1196.635 0 0 0 70-6.5z"/><path style="opacity:1" fill="#a0a2a3" d="M61.5 203.5c21.867-1.634 31.7 8.366 29.5 30-5.225 12.863-14.725 18.363-28.5 16.5-16.16-7.138-20.994-18.972-14.5-35.5 3.702-4.752 8.202-8.418 13.5-11z"/><path style="opacity:1" fill="#2da7e0" d="M138.5 204.5c12.649.61 25.315 1.276 38 2 6.847 12.492 4.513 22.992-7 31.5-16.141 7.287-27.641 2.787-34.5-13.5-1.352-7.191-.186-13.858 3.5-20z"/><path style="opacity:1" fill="#a0a2a2" d="M348.5 205.5c25.893-.839 37.06 11.495 33.5 37-7.373 15.694-19.54 21.194-36.5 16.5-14.868-7.912-20.034-20.079-15.5-36.5 3.85-8.317 10.016-13.984 18.5-17z"/><path style="opacity:1" fill="#2da7e0" d="M63.5 210.5c18.22.109 24.386 8.775 18.5 26-9.034 9.246-18.033 9.246-27 0-5.627-11.693-2.793-20.36 8.5-26z"/><path style="opacity:1" fill="#2ca7e0" d="M352.5 212.5c11.475-.68 19.309 4.32 23.5 15 1.331 19.002-7.503 27.502-26.5 25.5-13.287-6.52-17.12-16.687-11.5-30.5 3.652-5.228 8.485-8.561 14.5-10z"/><path style="opacity:1" fill="#a0a2a3" d="M303.5 247.5c13.652-1.456 19.819 4.544 18.5 18-4.44 8.796-11.273 11.296-20.5 7.5-9.75-9.262-9.084-17.762 2-25.5z"/><path style="opacity:1" fill="#33a7e0" d="M306.5 254.5c8.043.52 10.376 4.354 7 11.5-8.576 3.424-12.076.59-10.5-8.5a30.233 30.233 0 0 1 3.5-3z"/><path style="opacity:1" fill="#a0a2a2" d="M104.5 257.5c17.492-.291 24.658 8.043 21.5 25-6.178 10.758-15.011 13.591-26.5 8.5-8.742-7.568-10.242-16.402-4.5-26.5 2.79-2.965 5.957-5.298 9.5-7z"/><path style="opacity:1" fill="#a0a2a3" d="M253.5 263.5c23.571-1.338 35.404 9.662 35.5 33-4.838 18.142-16.671 25.976-35.5 23.5-19.038-7.919-25.204-21.752-18.5-41.5 4.592-7.106 10.758-12.106 18.5-15z"/><path style="opacity:1" fill="#31a7e0" d="M105.5 264.5c11.706-.475 16.206 4.858 13.5 16-3.055 5.135-7.555 6.968-13.5 5.5-5.608-2.818-7.775-7.318-6.5-13.5 1.305-3.461 3.471-6.128 6.5-8z"/><path style="opacity:1" fill="#2ca7e0" d="M256.5 270.5c16.671.172 25.171 8.506 25.5 25-3.975 13.749-13.142 19.582-27.5 17.5-14.794-7.382-18.627-18.548-11.5-33.5 3.528-4.666 8.028-7.666 13.5-9z"/><path style="opacity:1" fill="#a0a2a3" d="M167.5 278.5c18.641-1.112 30.474 7.221 35.5 25 1.29 24.916-10.544 37.083-35.5 36.5-19.365-5.539-27.531-18.372-24.5-38.5 4.112-12.115 12.279-19.781 24.5-23z"/><path style="opacity:1" fill="#2da7e0" d="M168.5 285.5c22.66 1.48 31.16 13.146 25.5 35-11.327 15.232-24.327 16.898-39 5-10.544-18.554-6.044-31.887 13.5-40z"/><path style="opacity:1" fill="#2ea7e0" d="M325.5 293.5c17.069.559 22.902 8.892 17.5 25-8.36 8.819-17.027 9.152-26 1-6.038-11.587-3.204-20.254 8.5-26z"/><path style="opacity:1" fill="#a0a2a3" d="M103.5 318.5c13.851-1.963 21.851 3.87 24 17.5-2.063 13.202-9.729 18.868-23 17-9.702-3.898-13.868-11.065-12.5-21.5 2.273-5.77 6.106-10.103 11.5-13z"/><path style="opacity:1" fill="#30a7e0" d="M105.5 325.5c10.986-.847 15.486 4.153 13.5 15-5.281 6.922-11.281 7.588-18 2-4.243-7.226-2.743-12.893 4.5-17z"/><path style="opacity:1" fill="#a0a2a2" d="M235.5 346.5c15.066-.439 20.566 6.561 16.5 21-4.485 5.674-10.319 7.507-17.5 5.5-8.745-6.026-10.245-13.526-4.5-22.5a35.524 35.524 0 0 0 5.5-4z"/><path style="opacity:1" fill="#32a7e0" d="M237.5 353.5c9.015.154 11.348 4.154 7 12-7.735 2.758-11.235.091-10.5-8a19.552 19.552 0 0 0 3.5-4z"/></svg>