<?xml version="1.0" encoding="UTF-8"?>
<!DOCTYPE svg PUBLIC "-//W3C//DTD SVG 1.1//EN" "http://www.w3.org/Graphics/SVG/1.1/DTD/svg11.dtd">
<svg xmlns="http://www.w3.org/2000/svg" version="1.1" width="220px" height="79px" style="shape-rendering:geometricPrecision; text-rendering:geometricPrecision; image-rendering:optimizeQuality; fill-rule:evenodd; clip-rule:evenodd" xmlns:xlink="http://www.w3.org/1999/xlink">
<g><path style="opacity:1" fill="#f9fbfd" d="M -0.5,-0.5 C 72.8333,-0.5 146.167,-0.5 219.5,-0.5C 219.5,25.8333 219.5,52.1667 219.5,78.5C 146.167,78.5 72.8333,78.5 -0.5,78.5C -0.5,52.1667 -0.5,25.8333 -0.5,-0.5 Z"/></g>
<g><path style="opacity:1" fill="#4b8ac3" d="M 19.5,12.5 C 18.3398,14.2027 19.0065,14.8693 21.5,14.5C 21.853,16.6348 21.0197,17.9681 19,18.5C 17.4928,17.4451 15.9928,16.4451 14.5,15.5C 15.6594,13.7497 17.326,12.7497 19.5,12.5 Z"/></g>
<g><path style="opacity:1" fill="#599bd0" d="M 170.5,14.5 C 170.5,14.8333 170.5,15.1667 170.5,15.5C 167.813,15.3359 165.146,15.5026 162.5,16C 164.708,16.1909 166.708,16.6909 168.5,17.5C 166.167,17.5 163.833,17.5 161.5,17.5C 161.5,16.5 161.5,15.5 161.5,14.5C 164.5,14.5 167.5,14.5 170.5,14.5 Z"/></g>
<g><path style="opacity:1" fill="#6ba7d4" d="M 206.5,14.5 C 205.391,14.5569 204.391,14.8902 203.5,15.5C 204.053,13.4482 205.053,13.1148 206.5,14.5 Z"/></g>
<g><path style="opacity:1" fill="#68a6d5" d="M 78.5,19.5 C 77.71,18.3915 77.21,17.0581 77,15.5C 76.3333,19.1667 76.3333,22.8333 77,26.5C 77.4478,23.9693 78.2811,21.6359 79.5,19.5C 80.0967,19.7352 80.4301,20.2352 80.5,21C 78.9972,22.9214 78.3305,25.088 78.5,27.5C 77.5,27.5 76.5,27.5 75.5,27.5C 75.5,23.1667 75.5,18.8333 75.5,14.5C 76.5,14.5 77.5,14.5 78.5,14.5C 78.5,16.1667 78.5,17.8333 78.5,19.5 Z"/></g>
<g><path style="opacity:1" fill="#0768b8" d="M 78.5,19.5 C 78.8333,19.5 79.1667,19.5 79.5,19.5C 78.2811,21.6359 77.4478,23.9693 77,26.5C 76.3333,22.8333 76.3333,19.1667 77,15.5C 77.21,17.0581 77.71,18.3915 78.5,19.5 Z"/></g>
<g><path style="opacity:1" fill="#80b5db" d="M 83.5,14.5 C 87.0293,16.4228 91.0293,17.0894 95.5,16.5C 95.5,18.1667 95.5,19.8333 95.5,21.5C 91.1667,21.5 86.8333,21.5 82.5,21.5C 86.2984,20.5166 90.2984,20.1832 94.5,20.5C 94.5,19.5 94.5,18.5 94.5,17.5C 90.5,17.5 86.5,17.5 82.5,17.5C 82.2627,16.209 82.596,15.209 83.5,14.5 Z"/></g>
<g><path style="opacity:1" fill="#69a6d5" d="M 114.5,30.5 C 115.222,30.9175 115.722,31.5842 116,32.5C 116.667,26.8333 116.667,21.1667 116,15.5C 115.824,19.6877 115.324,23.6877 114.5,27.5C 114.5,23.1667 114.5,18.8333 114.5,14.5C 115.5,14.5 116.5,14.5 117.5,14.5C 117.5,20.8333 117.5,27.1667 117.5,33.5C 116.5,33.5 115.5,33.5 114.5,33.5C 114.5,32.5 114.5,31.5 114.5,30.5 Z"/></g>
<g><path style="opacity:1" fill="#2879c0" d="M 136.5,14.5 C 137.089,18.9707 136.423,22.9707 134.5,26.5C 133.911,22.0293 134.577,18.0293 136.5,14.5 Z"/></g>
<g><path style="opacity:1" fill="#94c3e2" d="M 136.5,14.5 C 137.485,18.6344 137.818,22.9677 137.5,27.5C 136.209,27.7373 135.209,27.404 134.5,26.5C 136.423,22.9707 137.089,18.9707 136.5,14.5 Z"/></g>
<g><path style="opacity:1" fill="#8cbbdf" d="M 142.5,14.5 C 142.5,14.8333 142.5,15.1667 142.5,15.5C 144.265,16.4614 146.265,16.7947 148.5,16.5C 148.737,17.791 148.404,18.791 147.5,19.5C 146.082,17.6921 144.082,17.0254 141.5,17.5C 141.263,16.209 141.596,15.209 142.5,14.5 Z"/></g>
<g><path style="opacity:1" fill="#569ace" d="M 154.5,15.5 C 154.56,14.9569 154.893,14.6236 155.5,14.5C 156.833,17.5 156.833,20.5 155.5,23.5C 154.893,23.3764 154.56,23.0431 154.5,22.5C 155.833,20.1667 155.833,17.8333 154.5,15.5 Z"/></g>
<g><path style="opacity:1" fill="#a2cae6" d="M 170.5,14.5 C 170.865,19.0937 171.865,23.427 173.5,27.5C 172.791,28.404 171.791,28.7373 170.5,28.5C 170.5,24.1667 170.5,19.8333 170.5,15.5C 170.5,15.1667 170.5,14.8333 170.5,14.5 Z"/></g>
<g><path style="opacity:1" fill="#5398ce" d="M 184.5,14.5 C 184.735,13.9033 185.235,13.5699 186,13.5C 187.5,14.5 189,15.5 190.5,16.5C 190.376,17.1067 190.043,17.44 189.5,17.5C 187.955,16.3604 186.288,15.3604 184.5,14.5 Z"/></g>
<g><path style="opacity:1" fill="#5b9dd0" d="M 128.5,19.5 C 127.71,18.3915 127.21,17.0581 127,15.5C 126.768,16.7375 126.268,17.7375 125.5,18.5C 125.5,17.1667 125.5,15.8333 125.5,14.5C 126.5,14.5 127.5,14.5 128.5,14.5C 128.5,16.1667 128.5,17.8333 128.5,19.5 Z"/></g>
<g><path style="opacity:1" fill="#5b9dd0" d="M 142.5,15.5 C 142.5,15.1667 142.5,14.8333 142.5,14.5C 146.534,14.5045 150.534,14.8379 154.5,15.5C 153.737,16.2679 152.737,16.7679 151.5,17C 152.624,17.2492 153.624,17.7492 154.5,18.5C 154.376,19.1067 154.043,19.44 153.5,19.5C 152.295,18.3143 150.961,18.3143 149.5,19.5C 149.5,18.1667 149.5,16.8333 149.5,15.5C 147.167,15.5 144.833,15.5 142.5,15.5 Z"/></g>
<g><path style="opacity:1" fill="#77b0d8" d="M 213.5,32.5 C 214.348,14.2735 214.348,12.9402 213.5,28.5C 210.941,28.8016 208.607,28.4682 206.5,27.5C 208.5,27.5 210.5,27.5 212.5,27.5C 212.5,23.1667 212.5,18.8333 212.5,14.5C 213.5,14.5 214.5,14.5 215.5,14.5C 215.83,20.8682 215.496,27.2015 214.5,33.5C 213.893,33.3764 213.56,33.0431 213.5,32.5 Z"/></g>
<g><path style="opacity:1" fill="#337fc3" d="M 66.5,13.5 C 68.5,14.1667 70.5,14.8333 72.5,15.5C 73.6894,20.4451 72.0227,23.7784 67.5,25.5C 64.2694,23.4793 62.6027,20.4793 62.5,16.5C 64.3316,15.9432 65.6649,14.9432 66.5,13.5 Z"/></g>
<g><path style="opacity:1" fill="#d9e8f4" d="M 65.5,18.5 C 67.1667,18.5 68.8333,18.5 70.5,18.5C 70.5,19.8333 70.5,21.1667 70.5,22.5C 68.8333,22.5 67.1667,22.5 65.5,22.5C 65.5,21.1667 65.5,19.8333 65.5,18.5 Z"/></g>
<g><path style="opacity:1" fill="#136ebb" d="M 154.5,15.5 C 155.833,17.8333 155.833,20.1667 154.5,22.5C 153.602,21.8423 152.602,21.1757 151.5,20.5C 151.957,19.7025 152.624,19.3691 153.5,19.5C 154.043,19.44 154.376,19.1067 154.5,18.5C 153.624,17.7492 152.624,17.2492 151.5,17C 152.737,16.7679 153.737,16.2679 154.5,15.5 Z"/></g>
<g><path style="opacity:1" fill="#2074bd" d="M 206.5,14.5 C 206.5,14.8333 206.5,15.1667 206.5,15.5C 207.209,16.404 208.209,16.7373 209.5,16.5C 209.5,18.5 209.5,20.5 209.5,22.5C 208.075,23.922 207.075,25.5887 206.5,27.5C 208.607,28.4682 210.941,28.8016 213.5,28.5C 214.348,12.9402 214.348,14.2735 213.5,32.5C 209.576,30.8766 205.243,29.8766 200.5,29.5C 201.689,28.5713 203.022,28.238 204.5,28.5C 204.843,26.5168 204.176,25.1834 202.5,24.5C 200.732,21.8375 200.065,18.8375 200.5,15.5C 201.5,15.5 202.5,15.5 203.5,15.5C 204.391,14.8902 205.391,14.5569 206.5,14.5 Z"/></g>
<g><path style="opacity:1" fill="#cee2f1" d="M 203.5,17.5 C 207.35,17.7007 208.35,19.5341 206.5,23C 202.537,23.1177 201.537,21.2843 203.5,17.5 Z"/></g>
<g><path style="opacity:1" fill="#2c76bf" d="M 128.5,19.5 C 129.5,20.1667 130.5,20.8333 131.5,21.5C 131.5,22.8333 130.833,23.5 129.5,23.5C 128.518,22.8592 127.518,22.1925 126.5,21.5C 125.032,23.3329 123.365,23.6662 121.5,22.5C 123.216,21.4513 124.549,20.118 125.5,18.5C 126.268,17.7375 126.768,16.7375 127,15.5C 127.21,17.0581 127.71,18.3915 128.5,19.5 Z"/></g>
<g><path style="opacity:1" fill="#2273bd" d="M 142.5,15.5 C 144.833,15.5 147.167,15.5 149.5,15.5C 149.5,16.8333 149.5,18.1667 149.5,19.5C 148.473,21.1942 147.139,22.5275 145.5,23.5C 145.167,23.5 144.833,23.5 144.5,23.5C 143.167,23.5 142.5,22.8333 142.5,21.5C 144.284,21.1075 145.95,20.4408 147.5,19.5C 148.404,18.791 148.737,17.791 148.5,16.5C 146.265,16.7947 144.265,16.4614 142.5,15.5 Z"/></g>
<g><path style="opacity:1" fill="#2a79c0" d="M 184.5,14.5 C 186.288,15.3604 187.955,16.3604 189.5,17.5C 189.675,19.6208 189.341,21.6208 188.5,23.5C 186.5,23.5 184.5,23.5 182.5,23.5C 181.837,21.1964 181.17,18.8631 180.5,16.5C 181.949,15.8281 183.282,15.1614 184.5,14.5 Z"/></g>
<g><path style="opacity:1" fill="#dfecf6" d="M 184.5,17.5 C 186.912,17.6941 187.912,19.0274 187.5,21.5C 186.167,21.5 184.833,21.5 183.5,21.5C 183.433,20.0413 183.766,18.7079 184.5,17.5 Z"/></g>
<g><path style="opacity:1" fill="#2c7dc2" d="M 195.5,23.5 C 194.833,23.5 194.167,23.5 193.5,23.5C 193.183,20.4281 193.516,17.4281 194.5,14.5C 195.354,15.9479 196.354,17.2813 197.5,18.5C 195.995,19.8415 195.328,21.5082 195.5,23.5 Z"/></g>
<g><path style="opacity:1" fill="#7cb2da" d="M 206.5,15.5 C 207.833,15.5 209.167,15.5 210.5,15.5C 210.802,18.0593 210.468,20.3926 209.5,22.5C 209.5,20.5 209.5,18.5 209.5,16.5C 208.209,16.7373 207.209,16.404 206.5,15.5 Z"/></g>
<g><path style="opacity:1" fill="#2376bf" d="M 83.5,14.5 C 88.1667,14.5 92.8333,14.5 97.5,14.5C 97.5,16.5 97.5,18.5 97.5,20.5C 95.8439,22.0603 93.8439,23.0603 91.5,23.5C 91.5,24.5 91.5,25.5 91.5,26.5C 93.5,26.5 95.5,26.5 97.5,26.5C 97.7989,28.604 97.4656,30.604 96.5,32.5C 95.5713,31.3112 95.238,29.9778 95.5,28.5C 91.5,28.5 87.5,28.5 83.5,28.5C 84.9179,26.6921 86.9179,26.0254 89.5,26.5C 89.5,25.1667 89.5,23.8333 89.5,22.5C 87.1667,22.5 84.8333,22.5 82.5,22.5C 82.5,22.1667 82.5,21.8333 82.5,21.5C 86.8333,21.5 91.1667,21.5 95.5,21.5C 95.5,19.8333 95.5,18.1667 95.5,16.5C 91.0293,17.0894 87.0293,16.4228 83.5,14.5 Z"/></g>
<g><path style="opacity:1" fill="#2479c0" d="M 111.5,20.5 C 111.179,22.0481 110.179,22.7148 108.5,22.5C 108.5,24.5 108.5,26.5 108.5,28.5C 107.833,28.5 107.167,28.5 106.5,28.5C 106.5,26.5 106.5,24.5 106.5,22.5C 105.167,22.5 103.833,22.5 102.5,22.5C 102.187,19.7531 102.52,17.0865 103.5,14.5C 104.466,16.396 104.799,18.396 104.5,20.5C 106.833,20.5 109.167,20.5 111.5,20.5 Z"/></g>
<g><path style="opacity:1" fill="#62a3d2" d="M 97.5,20.5 C 98.404,21.209 98.7373,22.209 98.5,23.5C 96.1667,23.5 93.8333,23.5 91.5,23.5C 93.8439,23.0603 95.8439,22.0603 97.5,20.5 Z"/></g>
<g><path style="opacity:1" fill="#bfdaed" d="M 153.5,19.5 C 152.624,19.3691 151.957,19.7025 151.5,20.5C 152.602,21.1757 153.602,21.8423 154.5,22.5C 153.508,22.3284 152.842,22.6618 152.5,23.5C 150.379,23.3253 148.379,23.6586 146.5,24.5C 146.5,23.8333 146.167,23.5 145.5,23.5C 147.139,22.5275 148.473,21.1942 149.5,19.5C 150.961,18.3143 152.295,18.3143 153.5,19.5 Z"/></g>
<g><path style="opacity:1" fill="#81b4dc" d="M 102.5,22.5 C 103.833,22.5 105.167,22.5 106.5,22.5C 106.5,24.5 106.5,26.5 106.5,28.5C 105.127,28.3433 103.793,28.51 102.5,29C 106.688,29.1762 110.688,29.6762 114.5,30.5C 110.167,30.5 105.833,30.5 101.5,30.5C 101.5,29.5 101.5,28.5 101.5,27.5C 102.833,27.5 104.167,27.5 105.5,27.5C 105.5,26.1667 105.5,24.8333 105.5,23.5C 104.209,23.7373 103.209,23.404 102.5,22.5 Z"/></g>
<g><path style="opacity:1" fill="#9ec6e4" d="M 111.5,20.5 C 112.404,21.209 112.737,22.209 112.5,23.5C 111.5,23.5 110.5,23.5 109.5,23.5C 109.5,24.8333 109.5,26.1667 109.5,27.5C 111.167,27.5 112.833,27.5 114.5,27.5C 112.735,28.4614 110.735,28.7947 108.5,28.5C 108.5,26.5 108.5,24.5 108.5,22.5C 110.179,22.7148 111.179,22.0481 111.5,20.5 Z"/></g>
<g><path style="opacity:1" fill="#8ab8dd" d="M 131.5,21.5 C 132.404,22.209 132.737,23.209 132.5,24.5C 131.209,24.7373 130.209,24.404 129.5,23.5C 130.833,23.5 131.5,22.8333 131.5,21.5 Z"/></g>
<g><path style="opacity:1" fill="#85b7de" d="M 142.5,21.5 C 142.5,22.8333 143.167,23.5 144.5,23.5C 143.791,24.404 142.791,24.7373 141.5,24.5C 141.263,23.209 141.596,22.209 142.5,21.5 Z"/></g>
<g><path style="opacity:1" fill="#66a4d3" d="M 177.5,20.5 C 175.883,19.4107 175.05,17.744 175,15.5C 174.824,19.6877 174.324,23.6877 173.5,27.5C 173.5,23.1667 173.5,18.8333 173.5,14.5C 174.5,14.5 175.5,14.5 176.5,14.5C 176.325,16.6208 176.659,18.6208 177.5,20.5 Z"/></g>
<g><path style="opacity:1" fill="#87b7dd" d="M 177.5,20.5 C 178.097,20.7352 178.43,21.2352 178.5,22C 176.744,25.6161 176.077,29.4494 176.5,33.5C 175.5,33.5 174.5,33.5 173.5,33.5C 173.5,32.5 173.5,31.5 173.5,30.5C 173.5,31.5 173.5,32.5 173.5,33.5C 174.5,33.5 175.5,33.5 176.5,33.5C 176.077,29.4494 176.744,25.6161 178.5,22C 178.43,21.2352 178.097,20.7352 177.5,20.5 Z"/></g>
<g><path style="opacity:1" fill="#c7dfef" d="M 182.5,23.5 C 184.5,23.5 186.5,23.5 188.5,23.5C 190.167,24.8333 191.833,24.8333 193.5,23.5C 194.167,23.5 194.833,23.5 195.5,23.5C 195.167,24.1667 194.833,24.8333 194.5,25.5C 190.167,25.5 185.833,25.5 181.5,25.5C 181.833,24.8333 182.167,24.1667 182.5,23.5 Z"/></g>
<g><path style="opacity:1" fill="#82b5dc" d="M 82.5,22.5 C 84.8333,22.5 87.1667,22.5 89.5,22.5C 89.5,23.8333 89.5,25.1667 89.5,26.5C 86.9179,26.0254 84.9179,26.6921 83.5,28.5C 83.1667,28.5 82.8333,28.5 82.5,28.5C 82.5,27.5 82.5,26.5 82.5,25.5C 84.604,25.7989 86.604,25.4656 88.5,24.5C 86.3691,23.8313 84.3691,23.1646 82.5,22.5 Z"/></g>
<g><path style="opacity:1" fill="#91bbdc" d="M 50.5,25.5 C 52.0481,25.8212 52.7148,26.8212 52.5,28.5C 51.5,28.5 50.5,28.5 49.5,28.5C 49.2627,27.209 49.596,26.209 50.5,25.5 Z"/></g>
<g><path style="opacity:1" fill="#a9cde7" d="M 195.5,25.5 C 196.473,27.9479 196.806,30.6146 196.5,33.5C 195.167,33.5 193.833,33.5 192.5,33.5C 192.5,31.8333 192.5,30.1667 192.5,28.5C 188.629,28.815 184.962,28.4816 181.5,27.5C 185.5,27.5 189.5,27.5 193.5,27.5C 193.215,29.288 193.548,30.9547 194.5,32.5C 195.474,30.2573 195.808,27.924 195.5,25.5 Z"/></g>
<g><path style="opacity:1" fill="#4b8dc5" d="M 52.5,23.5 C 54.2503,24.6594 55.2503,26.326 55.5,28.5C 54.5,27.1667 53.5,27.1667 52.5,28.5C 52.7148,26.8212 52.0481,25.8212 50.5,25.5C 51.1667,24.8333 51.8333,24.1667 52.5,23.5 Z"/></g>
<g><path style="opacity:1" fill="#5190c6" d="M 7.5,22.5 C 8.65632,24.3873 10.323,25.7206 12.5,26.5C 12.5674,27.9587 12.2341,29.2921 11.5,30.5C 11.1667,30.5 10.8333,30.5 10.5,30.5C 8.65084,29.407 6.98417,28.0737 5.5,26.5C 5.6596,24.847 6.32627,23.5137 7.5,22.5 Z"/></g>
<g><path style="opacity:1" fill="#75add7" d="M 66.5,30.5 C 65.7321,29.7375 65.2321,28.7375 65,27.5C 64.5065,29.1341 64.3398,30.8008 64.5,32.5C 63.5386,30.7354 63.2053,28.7354 63.5,26.5C 64.5,26.5 65.5,26.5 66.5,26.5C 66.5,27.8333 66.5,29.1667 66.5,30.5 Z"/></g>
<g><path style="opacity:1" fill="#b9d6eb" d="M 97.5,26.5 C 98.4682,28.6074 98.8016,30.9407 98.5,33.5C 97.1667,33.5 95.8333,33.5 94.5,33.5C 94.5,32.1667 94.5,30.8333 94.5,29.5C 90.2984,29.8168 86.2984,29.4834 82.5,28.5C 82.8333,28.5 83.1667,28.5 83.5,28.5C 87.5,28.5 91.5,28.5 95.5,28.5C 95.238,29.9778 95.5713,31.3112 96.5,32.5C 97.4656,30.604 97.7989,28.604 97.5,26.5 Z"/></g>
<g><path style="opacity:1" fill="#0668b8" d="M 114.5,30.5 C 110.688,29.6762 106.688,29.1762 102.5,29C 103.793,28.51 105.127,28.3433 106.5,28.5C 107.167,28.5 107.833,28.5 108.5,28.5C 110.735,28.7947 112.735,28.4614 114.5,27.5C 115.324,23.6877 115.824,19.6877 116,15.5C 116.667,21.1667 116.667,26.8333 116,32.5C 115.722,31.5842 115.222,30.9175 114.5,30.5 Z"/></g>
<g><path style="opacity:1" fill="#1570bc" d="M 170.5,15.5 C 170.5,19.8333 170.5,24.1667 170.5,28.5C 171.791,28.7373 172.791,28.404 173.5,27.5C 174.324,23.6877 174.824,19.6877 175,15.5C 175.05,17.744 175.883,19.4107 177.5,20.5C 175.977,24.2793 175.143,28.2793 175,32.5C 174.722,31.5842 174.222,30.9175 173.5,30.5C 169.688,29.6762 165.688,29.1762 161.5,29C 162.416,28.7216 163.082,28.2216 163.5,27.5C 163.025,24.9179 163.692,22.9179 165.5,21.5C 165.5,23.8333 165.5,26.1667 165.5,28.5C 166.791,28.7373 167.791,28.404 168.5,27.5C 168.5,24.1667 168.5,20.8333 168.5,17.5C 166.708,16.6909 164.708,16.1909 162.5,16C 165.146,15.5026 167.813,15.3359 170.5,15.5 Z"/></g>
<g><path style="opacity:1" fill="#a9cde7" d="M 165.5,21.5 C 165.94,23.8439 166.94,25.8439 168.5,27.5C 167.791,28.404 166.791,28.7373 165.5,28.5C 165.5,26.1667 165.5,23.8333 165.5,21.5 Z"/></g>
<g><path style="opacity:1" fill="#67a4d4" d="M 125.5,30.5 C 124.732,29.7375 124.232,28.7375 124,27.5C 123.506,29.1341 123.34,30.8008 123.5,32.5C 122.539,30.7354 122.205,28.7354 122.5,26.5C 123.5,26.5 124.5,26.5 125.5,26.5C 125.5,27.8333 125.5,29.1667 125.5,30.5 Z"/></g>
<g><path style="opacity:1" fill="#559cd0" d="M 163.5,27.5 C 163.082,28.2216 162.416,28.7216 161.5,29C 165.688,29.1762 169.688,29.6762 173.5,30.5C 169.167,30.5 164.833,30.5 160.5,30.5C 160.5,29.5 160.5,28.5 160.5,27.5C 161.5,27.5 162.5,27.5 163.5,27.5 Z"/></g>
<g><path style="opacity:1" fill="#a9cde7" d="M 202.5,24.5 C 204.176,25.1834 204.843,26.5168 204.5,28.5C 203.022,28.238 201.689,28.5713 200.5,29.5C 205.243,29.8766 209.576,30.8766 213.5,32.5C 208.93,31.559 204.263,31.2256 199.5,31.5C 199.5,30.1667 199.5,28.8333 199.5,27.5C 202.567,27.8795 203.567,26.8795 202.5,24.5 Z"/></g>
<g><path style="opacity:1" fill="#0d67b8" d="M 66.5,30.5 C 69.977,31.3227 73.6437,31.8227 77.5,32C 73.1794,32.499 68.8461,32.6657 64.5,32.5C 64.3398,30.8008 64.5065,29.1341 65,27.5C 65.2321,28.7375 65.7321,29.7375 66.5,30.5 Z"/></g>
<g><path style="opacity:1" fill="#0f68b8" d="M 125.5,30.5 C 128.977,31.3227 132.644,31.8227 136.5,32C 132.179,32.499 127.846,32.6657 123.5,32.5C 123.34,30.8008 123.506,29.1341 124,27.5C 124.232,28.7375 124.732,29.7375 125.5,30.5 Z"/></g>
<g><path style="opacity:1" fill="#2e7ac1" d="M 152.5,23.5 C 155.332,25.4065 156.166,28.0732 155,31.5C 152,35.5 149,35.5 146,31.5C 145.297,29.0709 145.463,26.7375 146.5,24.5C 148.379,23.6586 150.379,23.3253 152.5,23.5 Z"/></g>
<g><path style="opacity:1" fill="#deecf5" d="M 148.5,25.5 C 153.159,25.0146 154.492,26.848 152.5,31C 147.728,31.8104 146.395,29.9771 148.5,25.5 Z"/></g>
<g><path style="opacity:1" fill="#2379c0" d="M 181.5,25.5 C 185.833,25.5 190.167,25.5 194.5,25.5C 194.833,25.5 195.167,25.5 195.5,25.5C 195.808,27.924 195.474,30.2573 194.5,32.5C 193.548,30.9547 193.215,29.288 193.5,27.5C 189.5,27.5 185.5,27.5 181.5,27.5C 181.5,26.8333 181.5,26.1667 181.5,25.5 Z"/></g>
<g><path style="opacity:1" fill="#75acd8" d="M 66.5,30.5 C 70.5,30.5 74.5,30.5 78.5,30.5C 78.5,31.5 78.5,32.5 78.5,33.5C 73.6367,33.8195 68.97,33.4861 64.5,32.5C 68.8461,32.6657 73.1794,32.499 77.5,32C 73.6437,31.8227 69.977,31.3227 66.5,30.5 Z"/></g>
<g><path style="opacity:1" fill="#76add8" d="M 125.5,30.5 C 129.5,30.5 133.5,30.5 137.5,30.5C 137.5,31.5 137.5,32.5 137.5,33.5C 132.637,33.8195 127.97,33.4861 123.5,32.5C 127.846,32.6657 132.179,32.499 136.5,32C 132.644,31.8227 128.977,31.3227 125.5,30.5 Z"/></g>
<g><path style="opacity:1" fill="#98bfde" d="M 55.5,28.5 C 56.9517,30.8476 57.6183,33.5143 57.5,36.5C 57.4932,38.3693 57.1599,40.036 56.5,41.5C 56.5328,37.1311 56.1995,32.7978 55.5,28.5 Z"/></g>
<g><path style="opacity:1" fill="#5699c6" d="M 140.5,40.5 C 142.827,40.2471 144.827,40.9137 146.5,42.5C 148.962,39.9469 151.295,39.9469 153.5,42.5C 152.609,43.5896 151.609,43.5896 150.5,42.5C 149.614,43.325 149.281,44.325 149.5,45.5C 154.029,45.0421 154.529,46.0421 151,48.5C 149.374,47.7113 147.874,46.7113 146.5,45.5C 140.316,48.9854 138.316,47.3187 140.5,40.5 Z"/></g>
<g><path style="opacity:1" fill="#3e8ebf" d="M 63.5,38.5 C 64.9778,38.238 66.3112,38.5713 67.5,39.5C 65.9104,49.8487 64.5771,49.5154 63.5,38.5 Z"/></g>
<g><path style="opacity:1" fill="#3a8abd" d="M 82.5,44.5 C 81.2652,44.2786 80.2652,43.6119 79.5,42.5C 78.4793,43.9014 77.4793,45.2347 76.5,46.5C 76.5,45.1667 76.5,43.8333 76.5,42.5C 77.6591,40.6231 79.3258,40.1231 81.5,41C 82.3366,42.0113 82.67,43.1779 82.5,44.5 Z"/></g>
<g><path style="opacity:1" fill="#589ac6" d="M 133.5,38.5 C 135.665,38.1159 137.332,38.7826 138.5,40.5C 137.939,42.4259 137.773,44.4259 138,46.5C 135.771,49.1562 133.938,48.8229 132.5,45.5C 133.716,44.9041 135.049,44.7374 136.5,45C 135.132,43.6598 133.799,42.3264 132.5,41C 132.743,40.0979 133.077,39.2646 133.5,38.5 Z"/></g>
<g><path style="opacity:1" fill="#5b9dc8" d="M 166.5,38.5 C 168.658,39.4944 170.658,40.8277 172.5,42.5C 173.167,41.8333 173.833,41.1667 174.5,40.5C 174.833,41 175.167,41.5 175.5,42C 174.129,44.3187 173.462,46.8187 173.5,49.5C 172.5,49.5 171.5,49.5 170.5,49.5C 170.852,46.9272 170.352,44.5938 169,42.5C 168.95,44.744 168.117,46.4107 166.5,47.5C 166.5,44.5 166.5,41.5 166.5,38.5 Z"/></g>
<g><path style="opacity:1" fill="#4892c2" d="M 164.5,42.5 C 164.5,43.5 164.5,44.5 164.5,45.5C 162.952,48.951 160.952,49.2844 158.5,46.5C 158.5,45.1667 158.5,43.8333 158.5,42.5C 160.5,39.8333 162.5,39.8333 164.5,42.5 Z"/></g>
<g><path style="opacity:1" fill="#5096c4" d="M 190.5,42.5 C 190.5,43.5 190.5,44.5 190.5,45.5C 187.726,49.5306 185.726,49.0306 184.5,44C 184.767,40.8358 186.433,39.8358 189.5,41C 190.056,41.3826 190.389,41.8826 190.5,42.5 Z"/></g>
<g><path style="opacity:1" fill="#5397c5" d="M 192.5,40.5 C 193.675,40.281 194.675,40.6143 195.5,41.5C 195.229,44.0473 194.229,46.0473 192.5,47.5C 192.5,45.1667 192.5,42.8333 192.5,40.5 Z"/></g>
<g><path style="opacity:1" fill="#5096c4" d="M 112.5,42.5 C 112.5,43.8333 112.5,45.1667 112.5,46.5C 109.625,49.3222 107.625,48.6555 106.5,44.5C 106.539,42.4128 107.539,41.0794 109.5,40.5C 111.038,40.4534 112.038,41.1201 112.5,42.5 Z"/></g>
<g><path style="opacity:1" fill="#c0dbeb" d="M 121.5,40.5 C 121.833,40.5 122.167,40.5 122.5,40.5C 121.99,43.3878 122.656,45.7211 124.5,47.5C 121.833,48.8333 119.167,48.8333 116.5,47.5C 118.167,47.5 119.833,47.5 121.5,47.5C 121.5,45.1667 121.5,42.8333 121.5,40.5 Z"/></g>
<g><path style="opacity:1" fill="#4d95c5" d="M 122.5,40.5 C 128.235,39.8213 129.902,42.1546 127.5,47.5C 125.907,40.9514 124.907,40.9514 124.5,47.5C 122.656,45.7211 121.99,43.3878 122.5,40.5 Z"/></g>
<g><path style="opacity:1" fill="#f6fafc" d="M 141.5,42.5 C 143.465,42.9483 143.798,43.9483 142.5,45.5C 141.614,44.675 141.281,43.675 141.5,42.5 Z"/></g>
<g><path style="opacity:1" fill="#f5f9fb" d="M 186.5,42.5 C 188.465,42.9483 188.798,43.9483 187.5,45.5C 186.614,44.675 186.281,43.675 186.5,42.5 Z"/></g>
<g><path style="opacity:1" fill="#4996c4" d="M 74.5,42.5 C 74.5,44.1667 74.5,45.8333 74.5,47.5C 73.0014,46.3218 72.0014,44.6551 71.5,42.5C 70.8333,44.1667 70.1667,45.8333 69.5,47.5C 68.1667,44.5 68.1667,41.5 69.5,38.5C 71.2748,39.8376 72.9414,41.171 74.5,42.5 Z"/></g>
<g><path style="opacity:1" fill="#6aa7ce" d="M 82.5,44.5 C 81.3999,48.6466 79.3999,49.3133 76.5,46.5C 77.4793,45.2347 78.4793,43.9014 79.5,42.5C 80.2652,43.6119 81.2652,44.2786 82.5,44.5 Z"/></g>
<g><path style="opacity:1" fill="#4e96c4" d="M 95.5,40.5 C 101.452,40.6091 102.786,43.1091 99.5,48C 94.6325,47.7108 93.2991,45.2108 95.5,40.5 Z"/></g>
<g><path style="opacity:1" fill="#e3eff6" d="M 96.5,42.5 C 97.5,42.5 98.5,42.5 99.5,42.5C 99.5,43.5 99.5,44.5 99.5,45.5C 98.5,45.5 97.5,45.5 96.5,45.5C 96.5,44.5 96.5,43.5 96.5,42.5 Z"/></g>
<g><path style="opacity:1" fill="#a0c9e0" d="M 112.5,42.5 C 113.167,42.8333 113.833,43.1667 114.5,43.5C 114.5,44.1667 114.5,44.8333 114.5,45.5C 113.833,45.8333 113.167,46.1667 112.5,46.5C 112.5,45.1667 112.5,43.8333 112.5,42.5 Z"/></g>
<g><path style="opacity:1" fill="#97c0dc" d="M 158.5,42.5 C 158.5,43.8333 158.5,45.1667 158.5,46.5C 157.533,47.8062 156.199,48.4729 154.5,48.5C 154.5,44.8333 154.5,41.1667 154.5,37.5C 155.5,37.5 156.5,37.5 157.5,37.5C 157.216,39.4147 157.549,41.0813 158.5,42.5 Z"/></g>
<g><path style="opacity:1" fill="#b7d5e7" d="M 166.5,38.5 C 166.5,41.5 166.5,44.5 166.5,47.5C 165.833,46.8333 165.167,46.1667 164.5,45.5C 164.5,44.5 164.5,43.5 164.5,42.5C 165.167,41.1667 165.833,39.8333 166.5,38.5 Z"/></g>
<g><path style="opacity:1" fill="#a9cee4" d="M 192.5,40.5 C 192.5,42.8333 192.5,45.1667 192.5,47.5C 191.833,46.8333 191.167,46.1667 190.5,45.5C 190.5,44.5 190.5,43.5 190.5,42.5C 191.167,41.8333 191.833,41.1667 192.5,40.5 Z"/></g>
<g><path style="opacity:1" fill="#4e97c4" d="M 87.5,38.5 C 88.7498,38.5774 89.5831,39.244 90,40.5C 90.9653,38.7397 92.132,38.4063 93.5,39.5C 90.9199,41.9556 90.9199,44.4556 93.5,47C 92.0039,47.5074 90.8373,47.0074 90,45.5C 89.6924,46.3081 89.1924,46.9747 88.5,47.5C 87.5159,44.5719 87.1826,41.5719 87.5,38.5 Z"/></g>
<g><path style="opacity:1" fill="#4591c1" d="M 180.5,38.5 C 181.765,39.5145 182.431,41.0145 182.5,43C 182.167,44.5 181.833,46 181.5,47.5C 180.516,44.5719 180.183,41.5719 180.5,38.5 Z"/></g>
<g><path style="opacity:1" fill="#aed1e5" d="M 74.5,42.5 C 75.1667,42.5 75.8333,42.5 76.5,42.5C 76.5,43.8333 76.5,45.1667 76.5,46.5C 75.8333,46.8333 75.1667,47.1667 74.5,47.5C 74.5,45.8333 74.5,44.1667 74.5,42.5 Z"/></g>
<g><path style="opacity:1" fill="#4996c3" d="M 102.5,40.5 C 103.675,40.281 104.675,40.6143 105.5,41.5C 103.636,49.3214 102.636,48.9881 102.5,40.5 Z"/></g>
<g><path style="opacity:1" fill="#3e8dbe" d="M 121.5,40.5 C 121.5,42.8333 121.5,45.1667 121.5,47.5C 119.833,47.5 118.167,47.5 116.5,47.5C 115.5,47.1667 114.833,46.5 114.5,45.5C 114.5,44.8333 114.5,44.1667 114.5,43.5C 114.414,42.5041 114.748,41.6708 115.5,41C 117.473,40.5045 119.473,40.3379 121.5,40.5 Z"/></g>
<g><path style="opacity:1" fill="#d8e9f2" d="M 116.5,42.5 C 119.861,43.2032 120.194,44.5365 117.5,46.5C 116.571,45.3112 116.238,43.9778 116.5,42.5 Z"/></g>
<g><path style="opacity:1" fill="#cee2ef" d="M 168.5,53.5 C 169.609,53.5569 170.609,53.8902 171.5,54.5C 170.314,56.8744 170.314,59.2078 171.5,61.5C 170.5,61.5 169.5,61.5 168.5,61.5C 170.057,58.8373 169.39,56.8373 166.5,55.5C 167.243,54.8182 167.909,54.1515 168.5,53.5 Z"/></g>
<g><path style="opacity:1" fill="#599bc7" d="M 62.5,52.5 C 64.1667,52.5 65.8333,52.5 67.5,52.5C 67.3801,54.7345 67.7135,56.9011 68.5,59C 67.6584,62.1726 65.825,63.0059 63,61.5C 62.502,58.5184 62.3354,55.5184 62.5,52.5 Z"/></g>
<g><path style="opacity:1" fill="#63a6cd" d="M 81.5,52.5 C 82.7647,53.5145 83.4313,55.0145 83.5,57C 83.1667,58.5 82.8333,60 82.5,61.5C 81.5159,58.5719 81.1826,55.5719 81.5,52.5 Z"/></g>
<g><path style="opacity:1" fill="#5199c5" d="M 85.5,54.5 C 87.1439,54.2865 88.6439,54.6198 90,55.5C 90.8141,57.9018 90.6474,60.2351 89.5,62.5C 88.8333,60.5 88.1667,58.5 87.5,56.5C 86.8333,58.1667 86.1667,59.8333 85.5,61.5C 84.2857,59.1413 84.2857,56.808 85.5,54.5 Z"/></g>
<g><path style="opacity:1" fill="#5297c5" d="M 122.5,52.5 C 124.662,52.8972 125.995,54.2305 126.5,56.5C 127.167,55.1667 127.833,53.8333 128.5,52.5C 129.833,55.5 129.833,58.5 128.5,61.5C 126.803,60.6364 125.637,59.3031 125,57.5C 124.798,59.2556 124.298,60.9223 123.5,62.5C 122.513,59.2317 122.18,55.8984 122.5,52.5 Z"/></g>
<g><path style="opacity:1" fill="#67a6cd" d="M 157.5,52.5 C 158.765,53.5145 159.431,55.0145 159.5,57C 159.167,58.5 158.833,60 158.5,61.5C 157.516,58.5719 157.183,55.5719 157.5,52.5 Z"/></g>
<g><path style="opacity:1" fill="#408ebf" d="M 168.5,53.5 C 167.909,54.1515 167.243,54.8182 166.5,55.5C 169.39,56.8373 170.057,58.8373 168.5,61.5C 166.907,62.8672 165.574,62.5339 164.5,60.5C 168.251,60.5662 168.418,59.2329 165,56.5C 164.339,52.9827 165.505,51.9827 168.5,53.5 Z"/></g>
<g><path style="opacity:1" fill="#4c94c3" d="M 202.5,56.5 C 201.687,57.6527 200.687,57.6527 199.5,56.5C 198.167,57.8333 198.167,59.1667 199.5,60.5C 200.687,59.3473 201.687,59.3473 202.5,60.5C 199.307,63.374 197.307,62.5407 196.5,58C 196.767,54.8358 198.433,53.8358 201.5,55C 202.056,55.3826 202.389,55.8826 202.5,56.5 Z"/></g>
<g><path style="opacity:1" fill="#246fb5" d="M 52.5,23.5 C 51.8333,24.1667 51.1667,24.8333 50.5,25.5C 49.596,26.209 49.2627,27.209 49.5,28.5C 50.5,28.5 51.5,28.5 52.5,28.5C 53.5,27.1667 54.5,27.1667 55.5,28.5C 56.1995,32.7978 56.5328,37.1311 56.5,41.5C 54.8454,53.4901 48.1787,61.1567 36.5,64.5C 31.3722,64.8885 26.3722,64.3885 21.5,63C 22.448,62.5172 23.448,62.3505 24.5,62.5C 26.717,63.3686 29.0504,63.702 31.5,63.5C 31.5,62.5 31.5,61.5 31.5,60.5C 29.1667,60.5 26.8333,60.5 24.5,60.5C 23.8333,60.1667 23.1667,59.8333 22.5,59.5C 17.4487,57.967 13.4487,54.967 10.5,50.5C 10.1667,50.8333 9.83333,51.1667 9.5,51.5C 12.2448,55.9144 15.9114,59.2477 20.5,61.5C 19.791,62.404 18.791,62.7373 17.5,62.5C 9.90643,58.3906 5.07309,52.0572 3,43.5C 1.80603,37.3855 2.63936,31.7188 5.5,26.5C 6.98417,28.0737 8.65084,29.407 10.5,30.5C 9.16667,34.8333 9.16667,39.1667 10.5,43.5C 16.5443,58.5122 26.8776,62.3455 41.5,55C 43.3734,53.2962 45.0401,51.4628 46.5,49.5C 51.19,42.6509 51.5233,35.6509 47.5,28.5C 44.7058,23.041 40.3725,19.3744 34.5,17.5C 34.5,16.8333 34.5,16.1667 34.5,15.5C 35.404,14.791 35.7373,13.791 35.5,12.5C 34.5,12.5 33.5,12.5 32.5,12.5C 32.5,13.5 32.5,14.5 32.5,15.5C 31.0536,16.6129 29.3869,16.7796 27.5,16C 28.3366,14.9887 28.67,13.8221 28.5,12.5C 27.1667,12.5 25.8333,12.5 24.5,12.5C 24.5,14.1667 24.5,15.8333 24.5,17.5C 19.7632,19.3456 16.0965,22.3456 13.5,26.5C 13.1667,26.5 12.8333,26.5 12.5,26.5C 10.323,25.7206 8.65632,24.3873 7.5,22.5C 9.5,19.8333 11.8333,17.5 14.5,15.5C 15.9928,16.4451 17.4928,17.4451 19,18.5C 21.0197,17.9681 21.853,16.6348 21.5,14.5C 19.0065,14.8693 18.3398,14.2027 19.5,12.5C 27.0771,9.8169 34.7438,9.98356 42.5,13C 46.7123,15.7111 50.0456,19.2111 52.5,23.5 Z"/></g>
<g><path style="opacity:1" fill="#78add5" d="M 13.5,41.5 C 15.0707,47.4047 18.7373,51.4047 24.5,53.5C 24.6309,54.3764 24.2975,55.0431 23.5,55.5C 16.35,53.0893 13.0167,48.4227 13.5,41.5 Z"/></g>
<g><path style="opacity:1" fill="#83b3d7" d="M 51.5,44.5 C 52.2389,44.369 52.9056,44.5357 53.5,45C 52.4621,48.2484 50.7954,51.0817 48.5,53.5C 48.1667,53.1667 47.8333,52.8333 47.5,52.5C 49.3018,50.0417 50.6351,47.3751 51.5,44.5 Z"/></g>
<g><path style="opacity:1" fill="#d0e1ee" d="M 13.5,41.5 C 13.0167,48.4227 16.35,53.0893 23.5,55.5C 24.2975,55.0431 24.6309,54.3764 24.5,53.5C 24.8333,53.5 25.1667,53.5 25.5,53.5C 25.5,54.5 25.5,55.5 25.5,56.5C 27.1667,56.5 28.8333,56.5 30.5,56.5C 32.099,56.7678 33.4324,56.4345 34.5,55.5C 39.354,54.913 43.0207,52.5797 45.5,48.5C 46.1667,48.5 46.5,48.8333 46.5,49.5C 45.0401,51.4628 43.3734,53.2962 41.5,55C 26.8776,62.3455 16.5443,58.5122 10.5,43.5C 11.1577,42.6016 11.8243,41.6016 12.5,40.5C 13.1067,40.6236 13.44,40.9569 13.5,41.5 Z"/></g>
<g><path style="opacity:1" fill="#898384" d="M 34.5,54.5 C 34.5,54.8333 34.5,55.1667 34.5,55.5C 33.4324,56.4345 32.099,56.7678 30.5,56.5C 25.2425,55.2101 25.5758,54.2101 31.5,53.5C 32.7261,53.5195 33.7261,53.8529 34.5,54.5 Z"/></g>
<g><path style="opacity:1" fill="#80b1d6" d="M 46.5,40.5 C 47.2085,43.0963 46.8752,45.763 45.5,48.5C 43.0207,52.5797 39.354,54.913 34.5,55.5C 34.5,55.1667 34.5,54.8333 34.5,54.5C 36.1667,52.8333 37.8333,51.1667 39.5,49.5C 40.8221,49.67 41.9887,49.3366 43,48.5C 43.0036,45.2084 44.1703,42.5418 46.5,40.5 Z"/></g>
<g><path style="opacity:1" fill="#d1d1d1" d="M 42.5,33.5 C 42.8333,33.5 43.1667,33.5 43.5,33.5C 42.5094,36.1446 41.0094,38.478 39,40.5C 38.1955,43.6965 38.3622,46.6965 39.5,49.5C 37.8333,51.1667 36.1667,52.8333 34.5,54.5C 33.7261,53.8529 32.7261,53.5195 31.5,53.5C 25.5758,54.2101 25.2425,55.2101 30.5,56.5C 28.8333,56.5 27.1667,56.5 25.5,56.5C 25.5,55.5 25.5,54.5 25.5,53.5C 25.5,51.8333 25.5,50.1667 25.5,48.5C 24.5,48.5 23.5,48.5 22.5,48.5C 23.5676,47.5655 24.901,47.2322 26.5,47.5C 26.5,48.8333 26.5,50.1667 26.5,51.5C 28.604,51.7989 30.604,51.4656 32.5,50.5C 29.9475,44.1686 27.6142,37.8352 25.5,31.5C 25.8923,29.8211 26.3923,28.1545 27,26.5C 28.3409,29.022 29.1743,31.6887 29.5,34.5C 30.5,34.5 31.5,34.5 32.5,34.5C 32.238,33.0222 32.5713,31.6888 33.5,30.5C 34.3857,31.325 34.719,32.325 34.5,33.5C 37.1667,33.5 39.8333,33.5 42.5,33.5 Z"/></g>
<g><path style="opacity:1" fill="#bbd3e7" d="M 47.5,28.5 C 51.5233,35.6509 51.19,42.6509 46.5,49.5C 46.5,48.8333 46.1667,48.5 45.5,48.5C 46.8752,45.763 47.2085,43.0963 46.5,40.5C 46.8212,38.9519 47.8212,38.2852 49.5,38.5C 49.938,34.0917 47.938,32.4251 43.5,33.5C 43.1667,33.5 42.8333,33.5 42.5,33.5C 42.5,32.8333 42.5,32.1667 42.5,31.5C 42.8333,31.5 43.1667,31.5 43.5,31.5C 44.8333,31.5 46.1667,31.5 47.5,31.5C 47.5,30.5 47.5,29.5 47.5,28.5 Z"/></g>
<g><path style="opacity:1" fill="#71a8d2" d="M 52.5,37.5 C 53.6491,37.7911 54.3158,38.6244 54.5,40C 54.1667,40.8333 53.8333,41.6667 53.5,42.5C 52.5481,40.9547 52.2148,39.288 52.5,37.5 Z"/></g>
<g><path style="opacity:1" fill="#76abd3" d="M 5.5,37.5 C 6.64911,37.7911 7.31577,38.6244 7.5,40C 8.00995,42.7065 8.67661,45.3731 9.5,48C 9.16667,48.5 8.83333,49 8.5,49.5C 6.3138,45.795 5.3138,41.795 5.5,37.5 Z"/></g>
<g><path style="opacity:1" fill="#f8f9fb" d="M 43.5,33.5 C 47.938,32.4251 49.938,34.0917 49.5,38.5C 47.8212,38.2852 46.8212,38.9519 46.5,40.5C 44.1703,42.5418 43.0036,45.2084 43,48.5C 41.9887,49.3366 40.8221,49.67 39.5,49.5C 38.3622,46.6965 38.1955,43.6965 39,40.5C 41.0094,38.478 42.5094,36.1446 43.5,33.5 Z"/></g>
<g><path style="opacity:1" fill="#c1c1c1" d="M 18.5,30.5 C 19.2389,30.369 19.9056,30.5357 20.5,31C 21.376,32.586 22.376,34.086 23.5,35.5C 24.1719,34.0508 24.8386,32.7175 25.5,31.5C 27.6142,37.8352 29.9475,44.1686 32.5,50.5C 30.604,51.4656 28.604,51.7989 26.5,51.5C 26.5,50.1667 26.5,48.8333 26.5,47.5C 24.901,47.2322 23.5676,47.5655 22.5,48.5C 21.5041,48.5858 20.6708,48.2524 20,47.5C 19.4454,43.9463 18.2788,40.613 16.5,37.5C 17.9371,35.4229 18.6038,33.0895 18.5,30.5 Z"/></g>
<g><path style="opacity:1" fill="#69a3d0" d="M 52.5,31.5 C 54.337,31.6395 54.6704,32.3061 53.5,33.5C 52.7025,33.0431 52.3691,32.3764 52.5,31.5 Z"/></g>
<g><path style="opacity:1" fill="#a5b2cb" d="M 25.5,21.5 C 28.0275,23.5102 29.8608,26.1769 31,29.5C 32.4363,24.6581 33.9363,24.4914 35.5,29C 37.9269,29.9023 40.2603,30.7356 42.5,31.5C 42.5,32.1667 42.5,32.8333 42.5,33.5C 39.8333,33.5 37.1667,33.5 34.5,33.5C 34.719,32.325 34.3857,31.325 33.5,30.5C 32.5713,31.6888 32.238,33.0222 32.5,34.5C 31.5,34.5 30.5,34.5 29.5,34.5C 29.1743,31.6887 28.3409,29.022 27,26.5C 26.3923,28.1545 25.8923,29.8211 25.5,31.5C 24.8386,32.7175 24.1719,34.0508 23.5,35.5C 22.376,34.086 21.376,32.586 20.5,31C 19.9056,30.5357 19.2389,30.369 18.5,30.5C 16.1667,30.5 13.8333,30.5 11.5,30.5C 12.2341,29.2921 12.5674,27.9587 12.5,26.5C 12.8333,26.5 13.1667,26.5 13.5,26.5C 14.1834,28.1765 15.5168,28.8432 17.5,28.5C 20.2385,27.9648 22.0718,28.9648 23,31.5C 24.1503,28.2321 24.9836,24.8988 25.5,21.5 Z"/></g>
<g><path style="opacity:1" fill="#eef3f7" d="M 10.5,30.5 C 10.8333,30.5 11.1667,30.5 11.5,30.5C 13.8333,30.5 16.1667,30.5 18.5,30.5C 18.6038,33.0895 17.9371,35.4229 16.5,37.5C 18.2788,40.613 19.4454,43.9463 20,47.5C 20.6708,48.2524 21.5041,48.5858 22.5,48.5C 23.5,48.5 24.5,48.5 25.5,48.5C 25.5,50.1667 25.5,51.8333 25.5,53.5C 25.1667,53.5 24.8333,53.5 24.5,53.5C 18.7373,51.4047 15.0707,47.4047 13.5,41.5C 13.44,40.9569 13.1067,40.6236 12.5,40.5C 11.8243,41.6016 11.1577,42.6016 10.5,43.5C 9.16667,39.1667 9.16667,34.8333 10.5,30.5 Z"/></g>
<g><path style="opacity:1" fill="#d7d6d5" d="M 25.5,21.5 C 24.9836,24.8988 24.1503,28.2321 23,31.5C 22.0718,28.9648 20.2385,27.9648 17.5,28.5C 18.9594,24.7026 21.6261,22.3693 25.5,21.5 Z"/></g>
<g><path style="opacity:1" fill="#d1d1d2" d="M 25.5,21.5 C 34.5296,19.1683 40.5296,22.5016 43.5,31.5C 43.1667,31.5 42.8333,31.5 42.5,31.5C 40.2603,30.7356 37.9269,29.9023 35.5,29C 33.9363,24.4914 32.4363,24.6581 31,29.5C 29.8608,26.1769 28.0275,23.5102 25.5,21.5 Z"/></g>
<g><path style="opacity:1" fill="#88b6d9" d="M 45.5,19.5 C 46.5,19.5 47.5,19.5 48.5,19.5C 48.5,20.5 48.5,21.5 48.5,22.5C 47.5,22.5 46.5,22.5 45.5,22.5C 45.5,21.5 45.5,20.5 45.5,19.5 Z"/></g>
<g><path style="opacity:1" fill="#93bddc" d="M 11.5,19.5 C 12.5,19.5 13.5,19.5 14.5,19.5C 14.5,20.5 14.5,21.5 14.5,22.5C 13.5,22.5 12.5,22.5 11.5,22.5C 11.5,21.5 11.5,20.5 11.5,19.5 Z"/></g>
<g><path style="opacity:1" fill="#edf3f8" d="M 24.5,17.5 C 27.8333,17.5 31.1667,17.5 34.5,17.5C 40.3725,19.3744 44.7058,23.041 47.5,28.5C 47.5,29.5 47.5,30.5 47.5,31.5C 46.1667,31.5 44.8333,31.5 43.5,31.5C 40.5296,22.5016 34.5296,19.1683 25.5,21.5C 21.6261,22.3693 18.9594,24.7026 17.5,28.5C 15.5168,28.8432 14.1834,28.1765 13.5,26.5C 16.0965,22.3456 19.7632,19.3456 24.5,17.5 Z"/></g>
<g><path style="opacity:1" fill="#98c0de" d="M 39.5,15.5 C 40.5,15.5 41.5,15.5 42.5,15.5C 41.7542,19.31 40.7542,19.31 39.5,15.5 Z"/></g>
<g><path style="opacity:1" fill="#468bc4" d="M 32.5,15.5 C 33.1667,15.5 33.8333,15.5 34.5,15.5C 34.5,16.1667 34.5,16.8333 34.5,17.5C 31.1667,17.5 27.8333,17.5 24.5,17.5C 24.5,15.8333 24.5,14.1667 24.5,12.5C 25.8333,12.5 27.1667,12.5 28.5,12.5C 28.67,13.8221 28.3366,14.9887 27.5,16C 29.3869,16.7796 31.0536,16.6129 32.5,15.5 Z"/></g>
<g><path style="opacity:1" fill="#8db9db" d="M 34.5,15.5 C 33.8333,15.5 33.1667,15.5 32.5,15.5C 32.5,14.5 32.5,13.5 32.5,12.5C 33.5,12.5 34.5,12.5 35.5,12.5C 35.7373,13.791 35.404,14.791 34.5,15.5 Z"/></g>
<g><path style="opacity:1" fill="#70a6d1" d="M 45.5,54.5 C 46.3764,54.3691 47.0431,54.7025 47.5,55.5C 44.0861,58.8724 40.0861,61.2057 35.5,62.5C 34.8333,62.1667 34.1667,61.8333 33.5,61.5C 37.8208,59.525 41.8208,57.1916 45.5,54.5 Z"/></g>
<g><path style="opacity:1" fill="#3789bd" d="M 77.5,54.5 C 78.0906,55.1515 78.7573,55.8182 79.5,56.5C 79.3764,57.1067 79.0431,57.44 78.5,57.5C 77.791,56.596 76.791,56.2627 75.5,56.5C 75.1205,59.5669 76.1205,60.5669 78.5,59.5C 79.0431,59.56 79.3764,59.8933 79.5,60.5C 78.3112,61.4287 76.9778,61.762 75.5,61.5C 73.6231,60.3409 73.1231,58.6742 74,56.5C 74.7096,55.0267 75.8762,54.3601 77.5,54.5 Z"/></g>
<g><path style="opacity:1" fill="#78b2d4" d="M 99.5,54.5 C 100.5,54.5 101.5,54.5 102.5,54.5C 102.5,57.1667 102.5,59.8333 102.5,62.5C 100.585,62.7845 98.9187,62.4511 97.5,61.5C 98.8333,61.5 100.167,61.5 101.5,61.5C 101.815,58.7892 101.148,56.4559 99.5,54.5 Z"/></g>
<g><path style="opacity:1" fill="#4993c2" d="M 115.5,52.5 C 117.402,55.3373 118.069,58.6707 117.5,62.5C 111.791,63.1328 109.791,60.7995 111.5,55.5C 113.332,54.9432 114.665,53.9432 115.5,52.5 Z"/></g>
<g><path style="opacity:1" fill="#e3eff6" d="M 112.5,56.5 C 113.5,56.5 114.5,56.5 115.5,56.5C 115.5,57.5 115.5,58.5 115.5,59.5C 114.5,59.5 113.5,59.5 112.5,59.5C 112.5,58.5 112.5,57.5 112.5,56.5 Z"/></g>
<g><path style="opacity:1" fill="#4993c2" d="M 131.5,54.5 C 137.452,54.6091 138.786,57.1091 135.5,62C 133.633,62.7112 132.133,62.2112 131,60.5C 130.51,58.4546 130.677,56.4546 131.5,54.5 Z"/></g>
<g><path style="opacity:1" fill="#4e95c3" d="M 151.5,54.5 C 153.167,54.5 154.833,54.5 156.5,54.5C 156.5,57.1667 156.5,59.8333 156.5,62.5C 149.741,62.7667 148.074,60.1001 151.5,54.5 Z"/></g>
<g><path style="opacity:1" fill="#e9f2f8" d="M 151.5,56.5 C 152.5,56.5 153.5,56.5 154.5,56.5C 154.5,57.5 154.5,58.5 154.5,59.5C 153.5,59.5 152.5,59.5 151.5,59.5C 151.5,58.5 151.5,57.5 151.5,56.5 Z"/></g>
<g><path style="opacity:1" fill="#4692c1" d="M 171.5,54.5 C 173.292,54.366 174.958,54.6993 176.5,55.5C 175.252,56.569 173.918,57.569 172.5,58.5C 172.833,59.1667 173.167,59.8333 173.5,60.5C 174.687,59.3473 175.687,59.3473 176.5,60.5C 175.252,62.69 173.586,63.0234 171.5,61.5C 170.314,59.2078 170.314,56.8744 171.5,54.5 Z"/></g>
<g><path style="opacity:1" fill="#cee3ef" d="M 78.5,57.5 C 78.5,58.1667 78.5,58.8333 78.5,59.5C 76.1205,60.5669 75.1205,59.5669 75.5,56.5C 76.791,56.2627 77.791,56.596 78.5,57.5 Z"/></g>
<g><path style="opacity:1" fill="#4c97c4" d="M 103.5,54.5 C 109.235,53.8213 110.902,56.1546 108.5,61.5C 107.167,54.8333 105.833,54.8333 104.5,61.5C 103.526,59.2573 103.192,56.924 103.5,54.5 Z"/></g>
<g><path style="opacity:1" fill="#4d95c3" d="M 146.5,54.5 C 147.376,54.3691 148.043,54.7025 148.5,55.5C 147.959,57.5352 147.292,59.5352 146.5,61.5C 145.286,59.1413 145.286,56.808 146.5,54.5 Z"/></g>
<g><path style="opacity:1" fill="#4c95c4" d="M 189.5,54.5 C 195.191,54.548 196.857,57.2147 194.5,62.5C 193.833,60.5 193.167,58.5 192.5,56.5C 191.893,56.6236 191.56,56.9569 191.5,57.5C 190.71,58.6085 190.21,59.9419 190,61.5C 189.503,59.1902 189.337,56.8568 189.5,54.5 Z"/></g>
<g><path style="opacity:1" fill="#4b94c2" d="M 204.5,60.5 C 204.5,59.1667 204.5,57.8333 204.5,56.5C 206.54,53.8661 208.707,53.8661 211,56.5C 212.555,54.4848 214.389,54.1515 216.5,55.5C 215.975,56.1924 215.308,56.6924 214.5,57C 216.527,58.3957 216.86,60.0624 215.5,62C 212.56,62.8856 211.56,62.0523 212.5,59.5C 213.396,60.5063 214.062,60.5063 214.5,59.5C 213.758,58.7132 212.925,58.0465 212,57.5C 210.927,62.5757 208.427,63.5757 204.5,60.5 Z"/></g>
<g><path style="opacity:1" fill="#76aad3" d="M 22.5,59.5 C 22.5,60.8333 21.8333,61.5 20.5,61.5C 15.9114,59.2477 12.2448,55.9144 9.5,51.5C 9.83333,51.1667 10.1667,50.8333 10.5,50.5C 13.4487,54.967 17.4487,57.967 22.5,59.5 Z"/></g>
<g><path style="opacity:1" fill="#6baacf" d="M 77.5,54.5 C 78.5,54.5 79.5,54.5 80.5,54.5C 80.5,57.1667 80.5,59.8333 80.5,62.5C 78.5853,62.7845 76.9187,62.4511 75.5,61.5C 76.9778,61.762 78.3112,61.4287 79.5,60.5C 79.3764,59.8933 79.0431,59.56 78.5,59.5C 78.5,58.8333 78.5,58.1667 78.5,57.5C 79.0431,57.44 79.3764,57.1067 79.5,56.5C 78.7573,55.8182 78.0906,55.1515 77.5,54.5 Z"/></g>
<g><path style="opacity:1" fill="#adcde3" d="M 181.5,56.5 C 181.5,57.8333 181.5,59.1667 181.5,60.5C 179.833,63.1667 178.167,63.1667 176.5,60.5C 175.687,59.3473 174.687,59.3473 173.5,60.5C 173.167,59.8333 172.833,59.1667 172.5,58.5C 173.918,57.569 175.252,56.569 176.5,55.5C 177.404,54.791 177.737,53.791 177.5,52.5C 178.5,52.5 179.5,52.5 180.5,52.5C 180.232,54.099 180.566,55.4324 181.5,56.5 Z"/></g>
<g><path style="opacity:1" fill="#4691c1" d="M 187.5,55.5 C 187.5,57.1667 187.5,58.8333 187.5,60.5C 185.641,63.0186 183.641,63.0186 181.5,60.5C 181.5,59.1667 181.5,57.8333 181.5,56.5C 183.099,54.2712 185.099,53.9378 187.5,55.5 Z"/></g>
<g><path style="opacity:1" fill="#afd1e5" d="M 189.5,54.5 C 189.337,56.8568 189.503,59.1902 190,61.5C 190.21,59.9419 190.71,58.6085 191.5,57.5C 191.5,59.1667 191.5,60.8333 191.5,62.5C 189.801,62.4729 188.467,61.8062 187.5,60.5C 187.5,58.8333 187.5,57.1667 187.5,55.5C 188.167,55.1667 188.833,54.8333 189.5,54.5 Z"/></g>
<g><path style="opacity:1" fill="#cde2ee" d="M 202.5,56.5 C 203.167,56.5 203.833,56.5 204.5,56.5C 204.5,57.8333 204.5,59.1667 204.5,60.5C 203.833,60.5 203.167,60.5 202.5,60.5C 201.687,59.3473 200.687,59.3473 199.5,60.5C 198.167,59.1667 198.167,57.8333 199.5,56.5C 200.687,57.6527 201.687,57.6527 202.5,56.5 Z"/></g>
<g><path style="opacity:1" fill="#4a94c3" d="M 70.5,54.5 C 71.3764,54.3691 72.0431,54.7025 72.5,55.5C 71.9588,57.5352 71.2922,59.5352 70.5,61.5C 69.2857,59.1413 69.2857,56.808 70.5,54.5 Z"/></g>
<g><path style="opacity:1" fill="#3687bb" d="M 99.5,54.5 C 101.148,56.4559 101.815,58.7892 101.5,61.5C 100.167,61.5 98.8333,61.5 97.5,61.5C 95.5589,59.9894 95.0589,57.9894 96,55.5C 97.0113,54.6634 98.1779,54.33 99.5,54.5 Z"/></g>
<g><path style="opacity:1" fill="#cae1ee" d="M 97.5,56.5 C 98.5,56.5 99.5,56.5 100.5,56.5C 100.778,58.3464 100.111,59.6798 98.5,60.5C 97.5713,59.3112 97.238,57.9778 97.5,56.5 Z"/></g>
<g><path style="opacity:1" fill="#4b93c2" d="M 138.5,54.5 C 140.036,56.0251 141.036,58.0251 141.5,60.5C 142.167,58.5 142.833,56.5 143.5,54.5C 144.777,57.0341 144.777,59.5341 143.5,62C 141.633,62.7112 140.133,62.2112 139,60.5C 138.505,58.5273 138.338,56.5273 138.5,54.5 Z"/></g>
<g><path style="opacity:1" fill="#68a1ce" d="M 24.5,60.5 C 26.8333,60.5 29.1667,60.5 31.5,60.5C 31.5,61.5 31.5,62.5 31.5,63.5C 29.0504,63.702 26.717,63.3686 24.5,62.5C 24.5,61.8333 24.5,61.1667 24.5,60.5 Z"/></g>
<g><path style="opacity:1" fill="#3f83bf" d="M 22.5,59.5 C 23.1667,59.8333 23.8333,60.1667 24.5,60.5C 24.5,61.1667 24.5,61.8333 24.5,62.5C 23.448,62.3505 22.448,62.5172 21.5,63C 26.3722,64.3885 31.3722,64.8885 36.5,64.5C 32.0189,65.6484 27.3522,65.8151 22.5,65C 20.5087,64.6264 18.842,63.793 17.5,62.5C 18.791,62.7373 19.791,62.404 20.5,61.5C 21.8333,61.5 22.5,60.8333 22.5,59.5 Z"/></g>
</svg>
