<svg xmlns="http://www.w3.org/2000/svg" width="220" height="79" style="shape-rendering:geometricPrecision;text-rendering:geometricPrecision;image-rendering:optimizeQuality;fill-rule:evenodd;clip-rule:evenodd"><path style="opacity:1" fill="#f9fbfd" d="M-.5-.5h220v79H-.5v-79z"/><path style="opacity:1" fill="#4b8ac3" d="M19.5 12.5c-1.16 1.703-.494 2.37 2 2 .353 2.135-.48 3.468-2.5 4a116.95 116.95 0 0 0-4.5-3c1.16-1.75 2.826-2.75 5-3z"/><path style="opacity:1" fill="#599bd0" d="M170.5 14.5v1a32.438 32.438 0 0 0-8 .5c2.208.19 4.208.69 6 1.5h-7v-3h9z"/><path style="opacity:1" fill="#6ba7d4" d="M206.5 14.5a5.728 5.728 0 0 0-3 1c.553-2.052 1.553-2.385 3-1z"/><path style="opacity:1" fill="#68a6d5" d="M78.5 19.5c-.79-1.108-1.29-2.442-1.5-4a30.499 30.499 0 0 0 0 11c.448-2.53 1.281-4.864 2.5-7 .597.235.93.735 1 1.5-1.503 1.921-2.17 4.088-2 6.5h-3v-13h3v5z"/><path style="opacity:1" fill="#0768b8" d="M78.5 19.5h1c-1.219 2.136-2.052 4.47-2.5 7a30.499 30.499 0 0 1 0-11c.21 1.558.71 2.892 1.5 4z"/><path style="opacity:1" fill="#80b5db" d="M83.5 14.5c3.53 1.923 7.53 2.59 12 2v5h-13c3.798-.983 7.798-1.317 12-1v-3h-12c-.237-1.291.096-2.291 1-3z"/><path style="opacity:1" fill="#69a6d5" d="M114.5 30.5c.722.418 1.222 1.084 1.5 2a72.464 72.464 0 0 0 0-17c-.176 4.188-.676 8.188-1.5 12v-13h3v19h-3v-3z"/><path style="opacity:1" fill="#2879c0" d="M136.5 14.5c.589 4.47-.077 8.47-2 12-.589-4.47.077-8.47 2-12z"/><path style="opacity:1" fill="#94c3e2" d="M136.5 14.5c.985 4.134 1.318 8.468 1 13-1.291.237-2.291-.096-3-1 1.923-3.53 2.589-7.53 2-12z"/><path style="opacity:1" fill="#8cbbdf" d="M142.5 14.5v1c1.765.961 3.765 1.295 6 1 .237 1.291-.096 2.291-1 3-1.418-1.808-3.418-2.475-6-2-.237-1.291.096-2.291 1-3z"/><path style="opacity:1" fill="#569ace" d="M154.5 15.5c.06-.543.393-.876 1-1 1.333 3 1.333 6 0 9-.607-.124-.94-.457-1-1 1.333-2.333 1.333-4.667 0-7z"/><path style="opacity:1" fill="#a2cae6" d="M170.5 14.5c.365 4.594 1.365 8.927 3 13-.709.904-1.709 1.237-3 1v-14z"/><path style="opacity:1" fill="#5398ce" d="M184.5 14.5c.235-.597.735-.93 1.5-1l4.5 3c-.124.607-.457.94-1 1a31.165 31.165 0 0 0-5-3z"/><path style="opacity:1" fill="#5b9dd0" d="M128.5 19.5c-.79-1.108-1.29-2.442-1.5-4-.232 1.238-.732 2.238-1.5 3v-4h3v5zM142.5 15.5v-1c4.034.005 8.034.338 12 1-.763.768-1.763 1.268-3 1.5 1.124.25 2.124.75 3 1.5-.124.607-.457.94-1 1-1.205-1.186-2.539-1.186-4 0v-4h-7z"/><path style="opacity:1" fill="#77b0d8" d="M213.5 32.5c.848-18.227.848-19.56 0-4-2.559.302-4.893-.032-7-1h6v-13h3a91.124 91.124 0 0 1-1 19c-.607-.124-.94-.457-1-1z"/><path style="opacity:1" fill="#337fc3" d="m66.5 13.5 6 2c1.19 4.945-.477 8.278-5 10-3.23-2.02-4.897-5.02-5-9 1.832-.557 3.165-1.557 4-3z"/><path style="opacity:1" fill="#d9e8f4" d="M65.5 18.5h5v4h-5v-4z"/><path style="opacity:1" fill="#136ebb" d="M154.5 15.5c1.333 2.333 1.333 4.667 0 7a44.093 44.093 0 0 0-3-2c.457-.797 1.124-1.13 2-1 .543-.06.876-.393 1-1a6.807 6.807 0 0 0-3-1.5c1.237-.232 2.237-.732 3-1.5z"/><path style="opacity:1" fill="#2074bd" d="M206.5 14.5v1c.709.904 1.709 1.237 3 1v6a11.741 11.741 0 0 0-3 5c2.107.968 4.441 1.302 7 1 .848-15.56.848-14.226 0 4-3.924-1.623-8.257-2.623-13-3 1.189-.929 2.522-1.262 4-1 .343-1.983-.324-3.317-2-4-1.768-2.663-2.435-5.663-2-9h3a5.728 5.728 0 0 1 3-1z"/><path style="opacity:1" fill="#cee2f1" d="M203.5 17.5c3.85.2 4.85 2.034 3 5.5-3.963.118-4.963-1.716-3-5.5z"/><path style="opacity:1" fill="#2c76bf" d="m128.5 19.5 3 2c0 1.333-.667 2-2 2-.982-.64-1.982-1.308-3-2-1.468 1.833-3.135 2.166-5 1 1.716-1.049 3.049-2.382 4-4 .768-.762 1.268-1.762 1.5-3 .21 1.558.71 2.892 1.5 4z"/><path style="opacity:1" fill="#2273bd" d="M142.5 15.5h7v4c-1.027 1.694-2.361 3.027-4 4h-1c-1.333 0-2-.667-2-2a16.331 16.331 0 0 0 5-2c.904-.709 1.237-1.709 1-3-2.235.295-4.235-.039-6-1z"/><path style="opacity:1" fill="#2a79c0" d="M184.5 14.5c1.788.86 3.455 1.86 5 3 .175 2.12-.159 4.12-1 6h-6c-.663-2.304-1.33-4.637-2-7a70.915 70.915 0 0 0 4-2z"/><path style="opacity:1" fill="#dfecf6" d="M184.5 17.5c2.412.194 3.412 1.527 3 4h-4c-.067-1.459.266-2.792 1-4z"/><path style="opacity:1" fill="#2c7dc2" d="M195.5 23.5h-2a21.128 21.128 0 0 1 1-9 22.524 22.524 0 0 0 3 4c-1.505 1.341-2.172 3.008-2 5z"/><path style="opacity:1" fill="#7cb2da" d="M206.5 15.5h4c.302 2.56-.032 4.893-1 7v-6c-1.291.237-2.291-.096-3-1z"/><path style="opacity:1" fill="#2376bf" d="M83.5 14.5h14v6c-1.656 1.56-3.656 2.56-6 3v3h6a9.864 9.864 0 0 1-1 6c-.929-1.189-1.262-2.522-1-4h-12c1.418-1.808 3.418-2.475 6-2v-4h-7v-1h13v-5c-4.47.59-8.47-.077-12-2z"/><path style="opacity:1" fill="#2479c0" d="M111.5 20.5c-.321 1.548-1.321 2.215-3 2v6h-2v-6h-4a16.874 16.874 0 0 1 1-8 9.86 9.86 0 0 1 1 6h7z"/><path style="opacity:1" fill="#62a3d2" d="M97.5 20.5c.904.709 1.237 1.709 1 3h-7c2.344-.44 4.344-1.44 6-3z"/><path style="opacity:1" fill="#bfdaed" d="M153.5 19.5c-.876-.13-1.543.203-2 1a44.093 44.093 0 0 1 3 2c-.992-.172-1.658.162-2 1-2.121-.175-4.121.159-6 1 0-.667-.333-1-1-1 1.639-.973 2.973-2.306 4-4 1.461-1.186 2.795-1.186 4 0z"/><path style="opacity:1" fill="#81b4dc" d="M102.5 22.5h4v6a8.435 8.435 0 0 0-4 .5c4.188.176 8.188.676 12 1.5h-13v-3h4v-4c-1.291.237-2.291-.096-3-1z"/><path style="opacity:1" fill="#9ec6e4" d="M111.5 20.5c.904.709 1.237 1.709 1 3h-3v4h5c-1.765.961-3.765 1.295-6 1v-6c1.679.215 2.679-.452 3-2z"/><path style="opacity:1" fill="#8ab8dd" d="M131.5 21.5c.904.709 1.237 1.709 1 3-1.291.237-2.291-.096-3-1 1.333 0 2-.667 2-2z"/><path style="opacity:1" fill="#85b7de" d="M142.5 21.5c0 1.333.667 2 2 2-.709.904-1.709 1.237-3 1-.237-1.291.096-2.291 1-3z"/><path style="opacity:1" fill="#66a4d3" d="M177.5 20.5c-1.617-1.09-2.45-2.756-2.5-5-.176 4.188-.676 8.188-1.5 12v-13h3c-.175 2.12.159 4.12 1 6z"/><path style="opacity:1" fill="#87b7dd" d="M177.5 20.5c.597.235.93.735 1 1.5-1.756 3.616-2.423 7.45-2 11.5h-3v-3 3h3c-.423-4.05.244-7.884 2-11.5-.07-.765-.403-1.265-1-1.5z"/><path style="opacity:1" fill="#c7dfef" d="M182.5 23.5h6c1.667 1.333 3.333 1.333 5 0h2l-1 2h-13l1-2z"/><path style="opacity:1" fill="#82b5dc" d="M82.5 22.5h7v4c-2.582-.475-4.582.192-6 2h-1v-3a9.864 9.864 0 0 0 6-1 168.86 168.86 0 0 1-6-2z"/><path style="opacity:1" fill="#91bbdc" d="M50.5 25.5c1.548.321 2.215 1.321 2 3h-3c-.237-1.291.096-2.291 1-3z"/><path style="opacity:1" fill="#a9cde7" d="M195.5 25.5c.973 2.448 1.306 5.115 1 8h-4v-5c-3.871.315-7.538-.018-11-1h12c-.285 1.788.048 3.455 1 5a13.115 13.115 0 0 0 1-7z"/><path style="opacity:1" fill="#4b8dc5" d="M52.5 23.5c1.75 1.16 2.75 2.826 3 5-1-1.333-2-1.333-3 0 .215-1.679-.452-2.679-2-3l2-2z"/><path style="opacity:1" fill="#5190c6" d="M7.5 22.5c1.156 1.887 2.823 3.22 5 4 .067 1.459-.266 2.792-1 4h-1a22.764 22.764 0 0 1-5-4c.16-1.653.826-2.986 2-4z"/><path style="opacity:1" fill="#75add7" d="M66.5 30.5c-.768-.762-1.268-1.762-1.5-3-.493 1.634-.66 3.3-.5 5-.961-1.765-1.295-3.765-1-6h3v4z"/><path style="opacity:1" fill="#b9d6eb" d="M97.5 26.5c.968 2.107 1.302 4.44 1 7h-4v-4c-4.202.317-8.202-.017-12-1h13c-.262 1.478.071 2.811 1 4a9.864 9.864 0 0 0 1-6z"/><path style="opacity:1" fill="#0668b8" d="M114.5 30.5c-3.812-.824-7.812-1.324-12-1.5a8.435 8.435 0 0 1 4-.5h2c2.235.295 4.235-.039 6-1 .824-3.812 1.324-7.812 1.5-12a72.464 72.464 0 0 1 0 17c-.278-.916-.778-1.582-1.5-2z"/><path style="opacity:1" fill="#1570bc" d="M170.5 15.5v13c1.291.237 2.291-.096 3-1 .824-3.812 1.324-7.812 1.5-12 .05 2.244.883 3.91 2.5 5-1.523 3.78-2.357 7.78-2.5 12-.278-.916-.778-1.582-1.5-2-3.812-.824-7.812-1.324-12-1.5.916-.278 1.582-.778 2-1.5-.475-2.582.192-4.582 2-6v7c1.291.237 2.291-.096 3-1v-10c-1.792-.81-3.792-1.31-6-1.5a32.438 32.438 0 0 1 8-.5z"/><path style="opacity:1" fill="#a9cde7" d="M165.5 21.5c.44 2.344 1.44 4.344 3 6-.709.904-1.709 1.237-3 1v-7z"/><path style="opacity:1" fill="#67a4d4" d="M125.5 30.5c-.768-.762-1.268-1.762-1.5-3a12.93 12.93 0 0 0-.5 5c-.961-1.765-1.295-3.765-1-6h3v4z"/><path style="opacity:1" fill="#559cd0" d="M163.5 27.5c-.418.722-1.084 1.222-2 1.5 4.188.176 8.188.676 12 1.5h-13v-3h3z"/><path style="opacity:1" fill="#a9cde7" d="M202.5 24.5c1.676.683 2.343 2.017 2 4-1.478-.262-2.811.071-4 1 4.743.377 9.076 1.377 13 3a53.787 53.787 0 0 0-14-1v-4c3.067.38 4.067-.62 3-3z"/><path style="opacity:1" fill="#0d67b8" d="M66.5 30.5c3.477.823 7.144 1.323 11 1.5-4.32.499-8.654.666-13 .5-.16-1.7.007-3.366.5-5 .232 1.238.732 2.238 1.5 3z"/><path style="opacity:1" fill="#0f68b8" d="M125.5 30.5c3.477.823 7.144 1.323 11 1.5a84.94 84.94 0 0 1-13 .5c-.16-1.7.006-3.366.5-5 .232 1.238.732 2.238 1.5 3z"/><path style="opacity:1" fill="#2e7ac1" d="M152.5 23.5c2.832 1.907 3.666 4.573 2.5 8-3 4-6 4-9 0-.703-2.43-.537-4.762.5-7 1.879-.841 3.879-1.175 6-1z"/><path style="opacity:1" fill="#deecf5" d="M148.5 25.5c4.659-.485 5.992 1.348 4 5.5-4.772.81-6.105-1.023-4-5.5z"/><path style="opacity:1" fill="#2379c0" d="M181.5 25.5h14a13.115 13.115 0 0 1-1 7c-.952-1.545-1.285-3.212-1-5h-12v-2z"/><path style="opacity:1" fill="#75acd8" d="M66.5 30.5h12v3c-4.863.32-9.53-.014-14-1 4.346.166 8.68-.001 13-.5-3.856-.177-7.523-.677-11-1.5z"/><path style="opacity:1" fill="#76add8" d="M125.5 30.5h12v3c-4.863.32-9.53-.014-14-1a84.94 84.94 0 0 0 13-.5c-3.856-.177-7.523-.677-11-1.5z"/><path style="opacity:1" fill="#98bfde" d="M55.5 28.5c1.452 2.348 2.118 5.014 2 8-.007 1.87-.34 3.536-1 5 .033-4.369-.3-8.702-1-13z"/><path style="opacity:1" fill="#5699c6" d="M140.5 40.5c2.327-.253 4.327.414 6 2 2.462-2.553 4.795-2.553 7 0-.891 1.09-1.891 1.09-3 0-.886.825-1.219 1.825-1 3 4.529-.458 5.029.542 1.5 3a19.933 19.933 0 0 1-4.5-3c-6.184 3.485-8.184 1.819-6-5z"/><path style="opacity:1" fill="#3e8ebf" d="M63.5 38.5c1.478-.262 2.811.071 4 1-1.59 10.349-2.923 10.015-4-1z"/><path style="opacity:1" fill="#3a8abd" d="M82.5 44.5c-1.235-.221-2.235-.888-3-2a171.62 171.62 0 0 1-3 4v-4c1.16-1.877 2.826-2.377 5-1.5.837 1.011 1.17 2.178 1 3.5z"/><path style="opacity:1" fill="#589ac6" d="M133.5 38.5c2.165-.384 3.832.283 5 2-.561 1.926-.727 3.926-.5 6-2.229 2.656-4.062 2.323-5.5-1 1.216-.596 2.549-.763 4-.5a273.269 273.269 0 0 1-4-4c.243-.902.577-1.735 1-2.5z"/><path style="opacity:1" fill="#5b9dc8" d="M166.5 38.5c2.158.994 4.158 2.328 6 4l2-2 1 1.5c-1.371 2.319-2.038 4.819-2 7.5h-3c.352-2.573-.148-4.906-1.5-7-.05 2.244-.883 3.91-2.5 5v-9z"/><path style="opacity:1" fill="#4892c2" d="M164.5 42.5v3c-1.548 3.451-3.548 3.784-6 1v-4c2-2.667 4-2.667 6 0z"/><path style="opacity:1" fill="#5096c4" d="M190.5 42.5v3c-2.774 4.03-4.774 3.53-6-1.5.267-3.164 1.933-4.164 5-3 .556.383.889.883 1 1.5z"/><path style="opacity:1" fill="#5397c5" d="M192.5 40.5c1.175-.219 2.175.114 3 1-.271 2.547-1.271 4.547-3 6v-7z"/><path style="opacity:1" fill="#5096c4" d="M112.5 42.5v4c-2.875 2.822-4.875 2.156-6-2 .039-2.087 1.039-3.42 3-4 1.538-.047 2.538.62 3 2z"/><path style="opacity:1" fill="#c0dbeb" d="M121.5 40.5h1c-.51 2.888.156 5.221 2 7-2.667 1.333-5.333 1.333-8 0h5v-7z"/><path style="opacity:1" fill="#4d95c5" d="M122.5 40.5c5.735-.679 7.402 1.655 5 7-1.593-6.549-2.593-6.549-3 0-1.844-1.779-2.51-4.112-2-7z"/><path style="opacity:1" fill="#f6fafc" d="M141.5 42.5c1.965.448 2.298 1.448 1 3-.886-.825-1.219-1.825-1-3z"/><path style="opacity:1" fill="#f5f9fb" d="M186.5 42.5c1.965.448 2.298 1.448 1 3-.886-.825-1.219-1.825-1-3z"/><path style="opacity:1" fill="#4996c4" d="M74.5 42.5v5c-1.499-1.178-2.499-2.845-3-5l-2 5c-1.333-3-1.333-6 0-9a106.465 106.465 0 0 1 5 4z"/><path style="opacity:1" fill="#6aa7ce" d="M82.5 44.5c-1.1 4.147-3.1 4.813-6 2a171.62 171.62 0 0 0 3-4c.765 1.112 1.765 1.779 3 2z"/><path style="opacity:1" fill="#4e96c4" d="M95.5 40.5c5.952.11 7.286 2.61 4 7.5-4.868-.29-6.2-2.79-4-7.5z"/><path style="opacity:1" fill="#e3eff6" d="M96.5 42.5h3v3h-3v-3z"/><path style="opacity:1" fill="#a0c9e0" d="m112.5 42.5 2 1v2l-2 1v-4z"/><path style="opacity:1" fill="#97c0dc" d="M158.5 42.5v4c-.967 1.306-2.301 1.973-4 2v-11h3c-.284 1.915.049 3.581 1 5z"/><path style="opacity:1" fill="#b7d5e7" d="M166.5 38.5v9l-2-2v-3l2-4z"/><path style="opacity:1" fill="#a9cee4" d="M192.5 40.5v7l-2-2v-3l2-2z"/><path style="opacity:1" fill="#4e97c4" d="M87.5 38.5c1.25.077 2.083.744 2.5 2 .965-1.76 2.132-2.094 3.5-1-2.58 2.456-2.58 4.956 0 7.5-1.496.507-2.663.007-3.5-1.5a4.452 4.452 0 0 1-1.5 2 21.12 21.12 0 0 1-1-9z"/><path style="opacity:1" fill="#4591c1" d="M180.5 38.5c1.265 1.014 1.931 2.514 2 4.5l-1 4.5a21.128 21.128 0 0 1-1-9z"/><path style="opacity:1" fill="#aed1e5" d="M74.5 42.5h2v4l-2 1v-5z"/><path style="opacity:1" fill="#4996c3" d="M102.5 40.5c1.175-.219 2.175.114 3 1-1.864 7.821-2.864 7.488-3-1z"/><path style="opacity:1" fill="#3e8dbe" d="M121.5 40.5v7h-5c-1-.333-1.667-1-2-2v-2c-.086-.996.248-1.83 1-2.5a18.437 18.437 0 0 1 6-.5z"/><path style="opacity:1" fill="#d8e9f2" d="M116.5 42.5c3.361.703 3.694 2.036 1 4-.929-1.189-1.262-2.522-1-4z"/><path style="opacity:1" fill="#cee2ef" d="M168.5 53.5a5.728 5.728 0 0 1 3 1c-1.186 2.374-1.186 4.708 0 7h-3c1.557-2.663.89-4.663-2-6a30.968 30.968 0 0 0 2-2z"/><path style="opacity:1" fill="#599bc7" d="M62.5 52.5h5a15.902 15.902 0 0 0 1 6.5c-.842 3.173-2.675 4.006-5.5 2.5a40.936 40.936 0 0 1-.5-9z"/><path style="opacity:1" fill="#63a6cd" d="M81.5 52.5c1.265 1.014 1.931 2.514 2 4.5l-1 4.5a21.12 21.12 0 0 1-1-9z"/><path style="opacity:1" fill="#5199c5" d="M85.5 54.5c1.644-.214 3.144.12 4.5 1 .814 2.402.647 4.735-.5 7l-2-6-2 5c-1.214-2.359-1.214-4.692 0-7z"/><path style="opacity:1" fill="#5297c5" d="M122.5 52.5c2.162.397 3.495 1.73 4 4l2-4c1.333 3 1.333 6 0 9-1.697-.864-2.863-2.197-3.5-4a14.72 14.72 0 0 1-1.5 5 25.878 25.878 0 0 1-1-10z"/><path style="opacity:1" fill="#67a6cd" d="M157.5 52.5c1.265 1.014 1.931 2.514 2 4.5l-1 4.5a21.128 21.128 0 0 1-1-9z"/><path style="opacity:1" fill="#408ebf" d="M168.5 53.5a30.968 30.968 0 0 1-2 2c2.89 1.337 3.557 3.337 2 6-1.593 1.367-2.926 1.034-4-1 3.751.066 3.918-1.267.5-4-.661-3.517.505-4.517 3.5-3z"/><path style="opacity:1" fill="#4c94c3" d="M202.5 56.5c-.813 1.153-1.813 1.153-3 0-1.333 1.333-1.333 2.667 0 4 1.187-1.153 2.187-1.153 3 0-3.193 2.874-5.193 2.04-6-2.5.267-3.164 1.933-4.164 5-3 .556.383.889.883 1 1.5z"/><path style="opacity:1" fill="#246fb5" d="m52.5 23.5-2 2c-.904.709-1.237 1.709-1 3h3c1-1.333 2-1.333 3 0a77.173 77.173 0 0 1 1 13c-1.655 11.99-8.321 19.657-20 23-5.128.388-10.128-.112-15-1.5a4.932 4.932 0 0 1 3-.5c2.217.869 4.55 1.202 7 1v-3h-7l-2-1c-5.051-1.533-9.051-4.533-12-9l-1 1c2.745 4.414 6.411 7.748 11 10-.709.904-1.709 1.237-3 1C9.906 58.39 5.073 52.057 3 43.5c-1.194-6.114-.36-11.781 2.5-17a22.764 22.764 0 0 0 5 4c-1.333 4.333-1.333 8.667 0 13 6.044 15.012 16.378 18.846 31 11.5a38.44 38.44 0 0 0 5-5.5c4.69-6.85 5.023-13.85 1-21-2.794-5.459-7.127-9.126-13-11v-2c.904-.709 1.237-1.709 1-3h-3v3c-1.446 1.113-3.113 1.28-5 .5.837-1.011 1.17-2.178 1-3.5h-4v5c-4.737 1.846-8.404 4.846-11 9h-1c-2.177-.78-3.844-2.113-5-4 2-2.667 4.333-5 7-7a116.95 116.95 0 0 1 4.5 3c2.02-.532 2.853-1.865 2.5-4-2.494.37-3.16-.297-2-2 7.577-2.683 15.244-2.516 23 .5 4.212 2.711 7.546 6.211 10 10.5z"/><path style="opacity:1" fill="#78add5" d="M13.5 41.5c1.57 5.905 5.237 9.905 11 12 .13.876-.203 1.543-1 2-7.15-2.41-10.483-7.077-10-14z"/><path style="opacity:1" fill="#83b3d7" d="M51.5 44.5a2.428 2.428 0 0 1 2 .5c-1.038 3.248-2.705 6.082-5 8.5l-1-1a26.224 26.224 0 0 0 4-8z"/><path style="opacity:1" fill="#d0e1ee" d="M13.5 41.5c-.483 6.923 2.85 11.59 10 14 .797-.457 1.13-1.124 1-2h1v3h5c1.599.268 2.932-.066 4-1 4.854-.587 8.52-2.92 11-7 .667 0 1 .333 1 1a38.44 38.44 0 0 1-5 5.5c-14.622 7.346-24.956 3.512-31-11.5a44.293 44.293 0 0 0 2-3c.607.124.94.457 1 1z"/><path style="opacity:1" fill="#898384" d="M34.5 54.5v1c-1.068.934-2.401 1.268-4 1-5.258-1.29-4.924-2.29 1-3 1.226.02 2.226.353 3 1z"/><path style="opacity:1" fill="#80b1d6" d="M46.5 40.5c.709 2.596.375 5.263-1 8-2.48 4.08-6.146 6.413-11 7v-1l5-5c1.322.17 2.489-.163 3.5-1 .004-3.292 1.17-5.958 3.5-8z"/><path style="opacity:1" fill="#d1d1d1" d="M42.5 33.5h1a19.562 19.562 0 0 1-4.5 7c-.804 3.197-.638 6.197.5 9l-5 5c-.774-.647-1.774-.98-3-1-5.924.71-6.258 1.71-1 3h-5v-8h-3c1.068-.934 2.401-1.268 4-1v4a9.864 9.864 0 0 0 6-1 331.309 331.309 0 0 1-7-19 42.618 42.618 0 0 1 1.5-5 22.388 22.388 0 0 1 2.5 8h3c-.262-1.478.071-2.811 1-4 .886.825 1.219 1.825 1 3h8z"/><path style="opacity:1" fill="#bbd3e7" d="M47.5 28.5c4.023 7.15 3.69 14.15-1 21 0-.667-.333-1-1-1 1.375-2.737 1.709-5.404 1-8 .321-1.548 1.321-2.215 3-2 .438-4.408-1.562-6.075-6-5h-1v-2h5v-3z"/><path style="opacity:1" fill="#71a8d2" d="M52.5 37.5c1.15.291 1.816 1.124 2 2.5l-1 2.5c-.952-1.545-1.285-3.212-1-5z"/><path style="opacity:1" fill="#76abd3" d="M5.5 37.5c1.15.291 1.816 1.124 2 2.5a70.152 70.152 0 0 0 2 8l-1 1.5c-2.186-3.705-3.186-7.705-3-12z"/><path style="opacity:1" fill="#f8f9fb" d="M43.5 33.5c4.438-1.075 6.438.592 6 5-1.679-.215-2.679.452-3 2-2.33 2.042-3.496 4.708-3.5 8-1.011.837-2.178 1.17-3.5 1-1.138-2.803-1.304-5.803-.5-9a19.562 19.562 0 0 0 4.5-7z"/><path style="opacity:1" fill="#c1c1c1" d="M18.5 30.5a2.428 2.428 0 0 1 2 .5 32.367 32.367 0 0 0 3 4.5 70.679 70.679 0 0 1 2-4 331.309 331.309 0 0 0 7 19 9.864 9.864 0 0 1-6 1v-4c-1.599-.268-2.932.066-4 1-.996.086-1.83-.248-2.5-1a29.003 29.003 0 0 0-3.5-10c1.437-2.077 2.104-4.41 2-7z"/><path style="opacity:1" fill="#69a3d0" d="M52.5 31.5c1.837.14 2.17.806 1 2-.797-.457-1.13-1.124-1-2z"/><path style="opacity:1" fill="#a5b2cb" d="M25.5 21.5c2.527 2.01 4.36 4.677 5.5 8 1.436-4.842 2.936-5.009 4.5-.5 2.427.902 4.76 1.736 7 2.5v2h-8c.219-1.175-.114-2.175-1-3-.929 1.189-1.262 2.522-1 4h-3a22.388 22.388 0 0 0-2.5-8 42.618 42.618 0 0 0-1.5 5 70.679 70.679 0 0 0-2 4 32.367 32.367 0 0 1-3-4.5 2.428 2.428 0 0 0-2-.5h-7c.734-1.208 1.067-2.541 1-4h1c.683 1.677 2.017 2.343 4 2 2.738-.535 4.572.465 5.5 3a54.884 54.884 0 0 0 2.5-10z"/><path style="opacity:1" fill="#eef3f7" d="M10.5 30.5h8c.104 2.59-.563 4.923-2 7a29.003 29.003 0 0 1 3.5 10c.67.752 1.504 1.086 2.5 1h3v5h-1c-5.763-2.095-9.43-6.095-11-12-.06-.543-.393-.876-1-1a44.293 44.293 0 0 1-2 3c-1.333-4.333-1.333-8.667 0-13z"/><path style="opacity:1" fill="#d7d6d5" d="M25.5 21.5a54.884 54.884 0 0 1-2.5 10c-.928-2.535-2.762-3.535-5.5-3 1.46-3.797 4.126-6.13 8-7z"/><path style="opacity:1" fill="#d1d1d2" d="M25.5 21.5c9.03-2.332 15.03 1.002 18 10h-1a275.143 275.143 0 0 1-7-2.5c-1.564-4.509-3.064-4.342-4.5.5-1.14-3.323-2.973-5.99-5.5-8z"/><path style="opacity:1" fill="#88b6d9" d="M45.5 19.5h3v3h-3v-3z"/><path style="opacity:1" fill="#93bddc" d="M11.5 19.5h3v3h-3v-3z"/><path style="opacity:1" fill="#edf3f8" d="M24.5 17.5h10c5.873 1.874 10.206 5.541 13 11v3h-4c-2.97-8.998-8.97-12.332-18-10-3.874.87-6.54 3.203-8 7-1.983.343-3.317-.323-4-2 2.596-4.154 6.263-7.154 11-9z"/><path style="opacity:1" fill="#98c0de" d="M39.5 15.5h3c-.746 3.81-1.746 3.81-3 0z"/><path style="opacity:1" fill="#468bc4" d="M32.5 15.5h2v2h-10v-5h4c.17 1.322-.163 2.489-1 3.5 1.887.78 3.554.613 5-.5z"/><path style="opacity:1" fill="#8db9db" d="M34.5 15.5h-2v-3h3c.237 1.291-.096 2.291-1 3z"/><path style="opacity:1" fill="#70a6d1" d="M45.5 54.5c.876-.13 1.543.203 2 1-3.414 3.372-7.414 5.706-12 7l-2-1c4.32-1.975 8.32-4.308 12-7z"/><path style="opacity:1" fill="#3789bd" d="M77.5 54.5c.59.651 1.257 1.318 2 2-.124.607-.457.94-1 1-.709-.904-1.709-1.237-3-1-.38 3.067.62 4.067 3 3 .543.06.876.393 1 1-1.189.929-2.522 1.262-4 1-1.877-1.16-2.377-2.826-1.5-5 .71-1.473 1.876-2.14 3.5-2z"/><path style="opacity:1" fill="#78b2d4" d="M99.5 54.5h3v8c-1.915.285-3.581-.049-5-1h4c.315-2.71-.352-5.044-2-7z"/><path style="opacity:1" fill="#4993c2" d="M115.5 52.5c1.902 2.837 2.569 6.17 2 10-5.709.633-7.709-1.7-6-7 1.832-.557 3.165-1.557 4-3z"/><path style="opacity:1" fill="#e3eff6" d="M112.5 56.5h3v3h-3v-3z"/><path style="opacity:1" fill="#4993c2" d="M131.5 54.5c5.952.11 7.286 2.61 4 7.5-1.867.711-3.367.211-4.5-1.5-.49-2.045-.323-4.045.5-6z"/><path style="opacity:1" fill="#4e95c3" d="M151.5 54.5h5v8c-6.759.267-8.426-2.4-5-8z"/><path style="opacity:1" fill="#e9f2f8" d="M151.5 56.5h3v3h-3v-3z"/><path style="opacity:1" fill="#4692c1" d="M171.5 54.5c1.792-.134 3.458.2 5 1a39.271 39.271 0 0 1-4 3l1 2c1.187-1.153 2.187-1.153 3 0-1.248 2.19-2.914 2.523-5 1-1.186-2.292-1.186-4.626 0-7z"/><path style="opacity:1" fill="#cee3ef" d="M78.5 57.5v2c-2.38 1.067-3.38.067-3-3 1.291-.237 2.291.096 3 1z"/><path style="opacity:1" fill="#4c97c4" d="M103.5 54.5c5.735-.679 7.402 1.655 5 7-1.333-6.667-2.667-6.667-4 0a13.115 13.115 0 0 1-1-7z"/><path style="opacity:1" fill="#4d95c3" d="M146.5 54.5c.876-.13 1.543.203 2 1a51.256 51.256 0 0 1-2 6c-1.214-2.359-1.214-4.692 0-7z"/><path style="opacity:1" fill="#4c95c4" d="M189.5 54.5c5.691.048 7.357 2.715 5 8l-2-6c-.607.124-.94.457-1 1-.79 1.108-1.29 2.442-1.5 4a24.935 24.935 0 0 1-.5-7z"/><path style="opacity:1" fill="#4b94c2" d="M204.5 60.5v-4c2.04-2.634 4.207-2.634 6.5 0 1.555-2.015 3.389-2.349 5.5-1a4.451 4.451 0 0 1-2 1.5c2.027 1.396 2.36 3.062 1 5-2.94.886-3.94.052-3-2.5.896 1.006 1.562 1.006 2 0a11.371 11.371 0 0 0-2.5-2c-1.073 5.076-3.573 6.076-7.5 3z"/><path style="opacity:1" fill="#76aad3" d="M22.5 59.5c0 1.333-.667 2-2 2-4.589-2.252-8.255-5.586-11-10l1-1c2.949 4.467 6.949 7.467 12 9z"/><path style="opacity:1" fill="#6baacf" d="M77.5 54.5h3v8c-1.915.285-3.581-.049-5-1 1.478.262 2.811-.071 4-1-.124-.607-.457-.94-1-1v-2c.543-.06.876-.393 1-1a30.943 30.943 0 0 1-2-2z"/><path style="opacity:1" fill="#adcde3" d="M181.5 56.5v4c-1.667 2.667-3.333 2.667-5 0-.813-1.153-1.813-1.153-3 0l-1-2a39.271 39.271 0 0 0 4-3c.904-.709 1.237-1.709 1-3h3c-.268 1.599.066 2.932 1 4z"/><path style="opacity:1" fill="#4691c1" d="M187.5 55.5v5c-1.859 2.519-3.859 2.519-6 0v-4c1.599-2.229 3.599-2.562 6-1z"/><path style="opacity:1" fill="#afd1e5" d="M189.5 54.5c-.163 2.357.003 4.69.5 7 .21-1.558.71-2.892 1.5-4v5c-1.699-.027-3.033-.694-4-2v-5l2-1z"/><path style="opacity:1" fill="#cde2ee" d="M202.5 56.5h2v4h-2c-.813-1.153-1.813-1.153-3 0-1.333-1.333-1.333-2.667 0-4 1.187 1.153 2.187 1.153 3 0z"/><path style="opacity:1" fill="#4a94c3" d="M70.5 54.5c.876-.13 1.543.203 2 1a51.256 51.256 0 0 1-2 6c-1.214-2.359-1.214-4.692 0-7z"/><path style="opacity:1" fill="#3687bb" d="M99.5 54.5c1.648 1.956 2.315 4.29 2 7h-4c-1.941-1.51-2.441-3.51-1.5-6 1.011-.837 2.178-1.17 3.5-1z"/><path style="opacity:1" fill="#cae1ee" d="M97.5 56.5h3c.278 1.846-.389 3.18-2 4-.929-1.189-1.262-2.522-1-4z"/><path style="opacity:1" fill="#4b93c2" d="M138.5 54.5c1.536 1.525 2.536 3.525 3 6l2-6c1.277 2.534 1.277 5.034 0 7.5-1.867.711-3.367.211-4.5-1.5a18.452 18.452 0 0 1-.5-6z"/><path style="opacity:1" fill="#68a1ce" d="M24.5 60.5h7v3c-2.45.202-4.783-.131-7-1v-2z"/><path style="opacity:1" fill="#3f83bf" d="m22.5 59.5 2 1v2a4.932 4.932 0 0 0-3 .5c4.872 1.388 9.872 1.888 15 1.5-4.481 1.148-9.148 1.315-14 .5-1.991-.374-3.658-1.207-5-2.5 1.291.237 2.291-.096 3-1 1.333 0 2-.667 2-2z"/></svg>