<?xml version="1.0" encoding="UTF-8"?>
<!DOCTYPE svg PUBLIC "-//W3C//DTD SVG 1.1//EN" "http://www.w3.org/Graphics/SVG/1.1/DTD/svg11.dtd">
<svg xmlns="http://www.w3.org/2000/svg" version="1.1" width="172px" height="178px" style="shape-rendering:geometricPrecision; text-rendering:geometricPrecision; image-rendering:optimizeQuality; fill-rule:evenodd; clip-rule:evenodd" xmlns:xlink="http://www.w3.org/1999/xlink">
<g><path style="opacity:1" fill="#282828" d="M -0.5,-0.5 C 56.8333,-0.5 114.167,-0.5 171.5,-0.5C 171.5,58.8333 171.5,118.167 171.5,177.5C 114.167,177.5 56.8333,177.5 -0.5,177.5C -0.5,118.167 -0.5,58.8333 -0.5,-0.5 Z"/></g>
<g><path style="opacity:1" fill="#f5f5f5" d="M 118.5,27.5 C 119.262,29.2624 120.596,30.2624 122.5,30.5C 123.933,32.5582 124.6,34.8915 124.5,37.5C 121.313,35.7207 117.98,34.054 114.5,32.5C 113.833,32.5 113.167,32.5 112.5,32.5C 111.942,31.2101 110.942,30.3768 109.5,30C 107.19,29.5034 104.857,29.3367 102.5,29.5C 97.7698,25.6527 93.1032,25.6527 88.5,29.5C 88.5,29.8333 88.5,30.1667 88.5,30.5C 85.967,31.5613 83.967,30.7279 82.5,28C 77.1478,25.7956 72.1478,26.2956 67.5,29.5C 63.8453,28.925 60.8453,29.925 58.5,32.5C 56.3936,33.7829 54.0602,34.6162 51.5,35C 50.6159,36.7198 49.2825,37.8865 47.5,38.5C 46.5655,37.4324 46.2322,36.099 46.5,34.5C 48.6403,31.7225 51.307,29.5559 54.5,28C 56.779,27.5272 58.779,26.5272 60.5,25C 62.1341,24.5065 63.8008,24.3398 65.5,24.5C 68.6425,23.0673 71.9758,22.4007 75.5,22.5C 79.383,22.7132 82.883,23.7132 86,25.5C 89.2466,23.7851 92.7466,22.7851 96.5,22.5C 103.778,24.4222 111.111,26.0889 118.5,27.5 Z"/></g>
<g><path style="opacity:1" fill="#bababa" d="M 68.5,21.5 C 74.7291,20.9777 80.7291,21.6444 86.5,23.5C 92.0129,21.5327 97.6795,21.0327 103.5,22C 108.714,23.5678 113.714,25.4011 118.5,27.5C 111.111,26.0889 103.778,24.4222 96.5,22.5C 92.7466,22.7851 89.2466,23.7851 86,25.5C 82.883,23.7132 79.383,22.7132 75.5,22.5C 71.9758,22.4007 68.6425,23.0673 65.5,24.5C 66.0998,23.1001 67.0998,22.1001 68.5,21.5 Z"/></g>
<g><path style="opacity:1" fill="#8f8f8f" d="M 68.5,21.5 C 67.0998,22.1001 66.0998,23.1001 65.5,24.5C 63.8008,24.3398 62.1341,24.5065 60.5,25C 58.779,26.5272 56.779,27.5272 54.5,28C 51.307,29.5559 48.6403,31.7225 46.5,34.5C 45.7515,35.531 45.0848,36.6976 44.5,38C 42.5,38.3333 40.5,38.6667 38.5,39C 37.61,41.3913 35.9433,42.8913 33.5,43.5C 35.2969,38.4251 38.9636,36.0918 44.5,36.5C 44.7438,33.7374 46.0771,31.5707 48.5,30C 51.6319,28.3651 54.6319,26.5318 57.5,24.5C 61.2773,23.6009 64.944,22.6009 68.5,21.5 Z"/></g>
<g><path style="opacity:1" fill="#9b9b9b" d="M 88.5,30.5 C 88.38,31.5862 87.7133,32.2528 86.5,32.5C 84.5775,31.9076 82.9108,30.9076 81.5,29.5C 77.0019,28.6246 72.3353,28.6246 67.5,29.5C 72.1478,26.2956 77.1478,25.7956 82.5,28C 83.967,30.7279 85.967,31.5613 88.5,30.5 Z"/></g>
<g><path style="opacity:1" fill="#78787e" d="M 102.5,29.5 C 104.857,29.3367 107.19,29.5034 109.5,30C 110.942,30.3768 111.942,31.2101 112.5,32.5C 109.594,32.0843 106.761,31.4176 104,30.5C 102.319,30.6083 101.152,31.2749 100.5,32.5C 99.8333,32.8333 99.1667,33.1667 98.5,33.5C 95.8333,33.5 93.1667,33.5 90.5,33.5C 90.5,33.1667 90.5,32.8333 90.5,32.5C 91.0431,32.44 91.3764,32.1067 91.5,31.5C 90.675,30.6143 89.675,30.281 88.5,30.5C 88.5,30.1667 88.5,29.8333 88.5,29.5C 93.1667,28.1667 97.8333,28.1667 102.5,29.5 Z"/></g>
<g><path style="opacity:1" fill="#9b9b9b" d="M 102.5,29.5 C 97.8333,28.1667 93.1667,28.1667 88.5,29.5C 93.1032,25.6527 97.7698,25.6527 102.5,29.5 Z"/></g>
<g><path style="opacity:1" fill="#767272" d="M 81.5,29.5 C 79.9519,29.8212 79.2852,30.8212 79.5,32.5C 76.5,32.5 73.5,32.5 70.5,32.5C 70.1788,30.9519 69.1788,30.2852 67.5,30.5C 67.5,30.1667 67.5,29.8333 67.5,29.5C 72.3353,28.6246 77.0019,28.6246 81.5,29.5 Z"/></g>
<g><path style="opacity:1" fill="#727272" d="M 118.5,27.5 C 120.372,28.5114 122.372,29.3448 124.5,30C 125.823,30.8159 126.489,31.9826 126.5,33.5C 125.167,32.5 123.833,31.5 122.5,30.5C 120.596,30.2624 119.262,29.2624 118.5,27.5 Z"/></g>
<g><path style="opacity:1" fill="#9f9f9f" d="M 67.5,29.5 C 67.5,29.8333 67.5,30.1667 67.5,30.5C 64.7387,31.9205 61.7387,32.5871 58.5,32.5C 60.8453,29.925 63.8453,28.925 67.5,29.5 Z"/></g>
<g><path style="opacity:1" fill="#433838" d="M 67.5,30.5 C 69.1788,30.2852 70.1788,30.9519 70.5,32.5C 68.1016,32.2594 66.1016,32.9261 64.5,34.5C 62.0733,34.523 59.74,35.023 57.5,36C 56.7476,36.6708 56.4142,37.5041 56.5,38.5C 56.1667,38.5 55.8333,38.5 55.5,38.5C 53.4348,38.953 51.7682,39.953 50.5,41.5C 45.4504,44.2911 41.7837,48.2911 39.5,53.5C 38.8333,54.1667 38.1667,54.8333 37.5,55.5C 37.1658,52.812 37.8325,50.4786 39.5,48.5C 41.7267,46.3932 43.7267,44.0599 45.5,41.5C 50.6438,39.6925 54.9772,36.6925 58.5,32.5C 61.7387,32.5871 64.7387,31.9205 67.5,30.5 Z"/></g>
<g><path style="opacity:1" fill="#c72a24" d="M 70.5,32.5 C 74.2315,33.1955 78.0648,33.8622 82,34.5C 82.4996,41.1583 82.6663,47.825 82.5,54.5C 81.1667,54.5 79.8333,54.5 78.5,54.5C 78.6659,49.4889 78.4993,44.4889 78,39.5C 77.3292,38.7476 76.4959,38.4142 75.5,38.5C 69.3887,38.7262 63.722,40.3928 58.5,43.5C 52.9712,46.3523 48.3046,50.3523 44.5,55.5C 42.3012,61.3021 44.3012,63.9688 50.5,63.5C 50.5,65.1667 50.5,66.8333 50.5,68.5C 46.7307,68.756 43.0641,68.4227 39.5,67.5C 38.1032,66.1806 37.4365,64.5139 37.5,62.5C 38.4698,59.5627 39.1365,56.5627 39.5,53.5C 40.8333,53.5 42.1667,53.5 43.5,53.5C 44.3882,50.757 45.5549,48.0904 47,45.5C 48.0113,44.6634 49.1779,44.33 50.5,44.5C 50.5,43.5 50.5,42.5 50.5,41.5C 53.285,42.0838 54.9517,41.0838 55.5,38.5C 55.8333,38.5 56.1667,38.5 56.5,38.5C 59.4098,37.5748 62.0764,36.2415 64.5,34.5C 66.1016,32.9261 68.1016,32.2594 70.5,32.5 Z"/></g>
<g><path style="opacity:1" fill="#80221f" d="M 64.5,34.5 C 62.0764,36.2415 59.4098,37.5748 56.5,38.5C 56.4142,37.5041 56.7476,36.6708 57.5,36C 59.74,35.023 62.0733,34.523 64.5,34.5 Z"/></g>
<g><path style="opacity:1" fill="#5e5e5e" d="M 126.5,33.5 C 128.5,34.1667 129.833,35.5 130.5,37.5C 129.833,35.5 128.5,34.1667 126.5,33.5 Z"/></g>
<g><path style="opacity:1" fill="#98382e" d="M 70.5,32.5 C 73.5,32.5 76.5,32.5 79.5,32.5C 81.3797,32.2291 82.713,32.8958 83.5,34.5C 84.4267,41.443 84.76,48.443 84.5,55.5C 82.1667,55.5 79.8333,55.5 77.5,55.5C 76.5166,51.7016 76.1832,47.7016 76.5,43.5C 76.7678,41.901 76.4345,40.5676 75.5,39.5C 75.5,39.1667 75.5,38.8333 75.5,38.5C 76.4959,38.4142 77.3292,38.7476 78,39.5C 78.4993,44.4889 78.6659,49.4889 78.5,54.5C 79.8333,54.5 81.1667,54.5 82.5,54.5C 82.6663,47.825 82.4996,41.1583 82,34.5C 78.0648,33.8622 74.2315,33.1955 70.5,32.5 Z"/></g>
<g><path style="opacity:1" fill="#bcbcbd" d="M 122.5,30.5 C 123.833,31.5 125.167,32.5 126.5,33.5C 126.833,35.8333 128.167,37.1667 130.5,37.5C 131.492,37.3284 132.158,37.6618 132.5,38.5C 130.5,38.5 128.5,38.5 126.5,38.5C 126.5,39.5 126.5,40.5 126.5,41.5C 121.929,39.2624 117.929,36.2624 114.5,32.5C 117.98,34.054 121.313,35.7207 124.5,37.5C 124.6,34.8915 123.933,32.5582 122.5,30.5 Z"/></g>
<g><path style="opacity:1" fill="#c8c8c8" d="M 46.5,34.5 C 46.2322,36.099 46.5655,37.4324 47.5,38.5C 46.8333,39.5 46.1667,40.5 45.5,41.5C 43.7267,44.0599 41.7267,46.3932 39.5,48.5C 40.6441,45.5534 42.3107,42.8867 44.5,40.5C 42.9255,39.3691 41.2588,39.2025 39.5,40C 37.0394,43.0557 34.3727,45.889 31.5,48.5C 32.1667,46.8333 32.8333,45.1667 33.5,43.5C 35.9433,42.8913 37.61,41.3913 38.5,39C 40.5,38.6667 42.5,38.3333 44.5,38C 45.0848,36.6976 45.7515,35.531 46.5,34.5 Z"/></g>
<g><path style="opacity:1" fill="#572827" d="M 83.5,34.5 C 84.1174,34.6107 84.6174,34.944 85,35.5C 85.8206,42.3464 85.654,49.013 84.5,55.5C 84.76,48.443 84.4267,41.443 83.5,34.5 Z"/></g>
<g><path style="opacity:1" fill="#f8f8f8" d="M 132.5,38.5 C 134.5,40.8333 136.5,43.1667 138.5,45.5C 140.515,49.9706 142.348,54.6373 144,59.5C 144.667,63.8333 144.667,68.1667 144,72.5C 142.457,74.3783 140.624,75.8783 138.5,77C 130.479,77.1684 122.479,77.6684 114.5,78.5C 114.137,79.1835 113.804,79.8501 113.5,80.5C 112.508,80.3284 111.842,80.6618 111.5,81.5C 110.206,82.2899 109.039,83.2899 108,84.5C 107.5,102.497 107.333,120.497 107.5,138.5C 106.167,138.5 104.833,138.5 103.5,138.5C 103.5,138.167 103.5,137.833 103.5,137.5C 103.193,119.12 103.526,100.787 104.5,82.5C 106.315,78.5212 109.315,75.6878 113.5,74C 121.167,73.6667 128.833,73.3333 136.5,73C 140.305,68.9089 141.472,64.0755 140,58.5C 138.473,56.779 137.473,54.779 137,52.5C 136.329,51.7476 135.496,51.4142 134.5,51.5C 134.5,50.1667 134.5,48.8333 134.5,47.5C 133.5,47.5 132.5,47.5 131.5,47.5C 130.581,44.9108 128.914,42.9108 126.5,41.5C 126.5,40.5 126.5,39.5 126.5,38.5C 128.5,38.5 130.5,38.5 132.5,38.5 Z"/></g>
<g><path style="opacity:1" fill="#f7f7f7" d="M 39.5,48.5 C 38.5041,48.4142 37.6708,48.7476 37,49.5C 34.5688,52.417 33.4021,55.7503 33.5,59.5C 32.0069,60.3121 31.3402,61.6455 31.5,63.5C 31.4357,65.5566 32.1024,67.2233 33.5,68.5C 33.8588,70.371 34.8588,71.871 36.5,73C 43.8333,73.3333 51.1667,73.6667 58.5,74C 60.0779,75.0945 61.7446,75.9278 63.5,76.5C 64.0312,78.5441 65.1978,80.2107 67,81.5C 67.4974,84.146 67.6641,86.8127 67.5,89.5C 67.3334,104.504 67.5001,119.504 68,134.5C 74.6877,136.106 81.1877,135.606 87.5,133C 91.8661,128.514 92.5328,123.68 89.5,118.5C 88.6618,118.158 88.3284,117.492 88.5,116.5C 87.4125,115 86.0792,113.667 84.5,112.5C 80.5,111.833 76.5,111.167 72.5,110.5C 74.6309,109.831 76.6309,109.165 78.5,108.5C 79.5,107.833 80.5,107.167 81.5,106.5C 83.0174,106.489 84.1841,105.823 85,104.5C 85.6667,100.833 85.6667,97.1667 85,93.5C 83.9609,92.2899 82.7942,91.2899 81.5,90.5C 78.3752,89.5206 75.0419,89.1872 71.5,89.5C 71.5,87.8333 71.5,86.1667 71.5,84.5C 74.8333,84.5 78.1667,84.5 81.5,84.5C 82.8333,84.8333 84.1667,85.1667 85.5,85.5C 86.8637,87.1911 88.197,88.8577 89.5,90.5C 91.2891,96.8321 90.6225,102.832 87.5,108.5C 87.5427,109.416 87.8761,110.083 88.5,110.5C 89.2997,112.682 90.7997,114.349 93,115.5C 95.8982,124.218 94.0649,131.551 87.5,137.5C 79.8333,137.5 72.1667,137.5 64.5,137.5C 64.8298,120.658 64.4965,103.992 63.5,87.5C 64.0838,84.715 63.0838,83.0483 60.5,82.5C 60.1412,80.629 59.1412,79.129 57.5,78C 50.1742,77.5003 42.8409,77.3337 35.5,77.5C 27.8685,75.3415 25.0352,70.3415 27,62.5C 28.567,58.1177 30.067,53.7844 31.5,49.5C 31.5,49.1667 31.5,48.8333 31.5,48.5C 34.3727,45.889 37.0394,43.0557 39.5,40C 41.2588,39.2025 42.9255,39.3691 44.5,40.5C 42.3107,42.8867 40.6441,45.5534 39.5,48.5 Z"/></g>
<g><path style="opacity:1" fill="#8f8f8f" d="M 58.5,32.5 C 54.9772,36.6925 50.6438,39.6925 45.5,41.5C 46.1667,40.5 46.8333,39.5 47.5,38.5C 49.2825,37.8865 50.6159,36.7198 51.5,35C 54.0602,34.6162 56.3936,33.7829 58.5,32.5 Z"/></g>
<g><path style="opacity:1" fill="#3a3134" d="M 81.5,29.5 C 82.9108,30.9076 84.5775,31.9076 86.5,32.5C 87.7133,32.2528 88.38,31.5862 88.5,30.5C 89.675,30.281 90.675,30.6143 91.5,31.5C 91.3764,32.1067 91.0431,32.44 90.5,32.5C 89.5416,32.9528 88.7083,33.6195 88,34.5C 87.3333,41.5 87.3333,48.5 88,55.5C 90.4592,56.6489 92.9592,56.6489 95.5,55.5C 95.5,56.1667 95.5,56.8333 95.5,57.5C 89.8236,57.6661 84.1569,57.4994 78.5,57C 77.944,56.6174 77.6107,56.1174 77.5,55.5C 79.8333,55.5 82.1667,55.5 84.5,55.5C 85.654,49.013 85.8206,42.3464 85,35.5C 84.6174,34.944 84.1174,34.6107 83.5,34.5C 82.713,32.8958 81.3797,32.2291 79.5,32.5C 79.2852,30.8212 79.9519,29.8212 81.5,29.5 Z"/></g>
<g><path style="opacity:1" fill="#8e201b" d="M 55.5,38.5 C 54.9517,41.0838 53.285,42.0838 50.5,41.5C 51.7682,39.953 53.4348,38.953 55.5,38.5 Z"/></g>
<g><path style="opacity:1" fill="#642f27" d="M 75.5,38.5 C 75.5,38.8333 75.5,39.1667 75.5,39.5C 69.1463,40.5068 63.1463,42.5068 57.5,45.5C 57.8333,44.8333 58.1667,44.1667 58.5,43.5C 63.722,40.3928 69.3887,38.7262 75.5,38.5 Z"/></g>
<g><path style="opacity:1" fill="#293672" d="M 90.5,32.5 C 90.5,32.8333 90.5,33.1667 90.5,33.5C 89.5379,40.4122 89.2045,47.4122 89.5,54.5C 90.8333,54.5 92.1667,54.5 93.5,54.5C 93.1934,48.9066 93.5268,43.4066 94.5,38C 96.1667,37.8333 97.8333,37.6667 99.5,37.5C 103.79,38.9707 108.123,40.4707 112.5,42C 119.388,42.8664 119.388,41.1998 112.5,37C 107.535,36.4316 102.869,35.2649 98.5,33.5C 99.1667,33.1667 99.8333,32.8333 100.5,32.5C 104.786,33.4899 109.12,34.6566 113.5,36C 118.675,39.663 124.009,43.163 129.5,46.5C 129.167,47.1667 128.833,47.8333 128.5,48.5C 131.532,51.2345 133.532,54.5678 134.5,58.5C 134.5,59.1667 134.167,59.5 133.5,59.5C 131.745,54.9798 129.245,50.9798 126,47.5C 124.416,46.1387 122.582,45.472 120.5,45.5C 120.351,46.552 120.517,47.552 121,48.5C 123.237,49.9852 124.737,51.9852 125.5,54.5C 125.167,54.5 124.833,54.5 124.5,54.5C 117.115,45.2245 107.615,40.5578 96,40.5C 95.5007,45.4889 95.3341,50.4889 95.5,55.5C 92.9592,56.6489 90.4592,56.6489 88,55.5C 87.3333,48.5 87.3333,41.5 88,34.5C 88.7083,33.6195 89.5416,32.9528 90.5,32.5 Z"/></g>
<g><path style="opacity:1" fill="#314393" d="M 90.5,33.5 C 93.1667,33.5 95.8333,33.5 98.5,33.5C 102.869,35.2649 107.535,36.4316 112.5,37C 119.388,41.1998 119.388,42.8664 112.5,42C 108.123,40.4707 103.79,38.9707 99.5,37.5C 97.8333,37.6667 96.1667,37.8333 94.5,38C 93.5268,43.4066 93.1934,48.9066 93.5,54.5C 92.1667,54.5 90.8333,54.5 89.5,54.5C 89.2045,47.4122 89.5379,40.4122 90.5,33.5 Z"/></g>
<g><path style="opacity:1" fill="#5e5e5e" d="M 132.5,38.5 C 134.948,40.2845 137.615,41.6178 140.5,42.5C 140.5,44.1667 140.5,45.8333 140.5,47.5C 139.833,46.8333 139.167,46.1667 138.5,45.5C 136.5,43.1667 134.5,40.8333 132.5,38.5 Z"/></g>
<g><path style="opacity:1" fill="#6d7e4c" d="M 67.5,43.5 C 66.5,44.1667 65.5,44.8333 64.5,45.5C 60.7542,48.5848 56.7542,51.2515 52.5,53.5C 55.7625,47.6258 60.7625,44.2925 67.5,43.5 Z"/></g>
<g><path style="opacity:1" fill="#474333" d="M 75.5,39.5 C 76.4345,40.5676 76.7678,41.901 76.5,43.5C 73.7118,40.9252 71.0451,40.9252 68.5,43.5C 68.1667,43.5 67.8333,43.5 67.5,43.5C 60.7625,44.2925 55.7625,47.6258 52.5,53.5C 50.7868,54.6354 50.1201,56.302 50.5,58.5C 49.5489,57.0813 49.2155,55.4147 49.5,53.5C 51.2295,49.9547 53.8962,47.288 57.5,45.5C 63.1463,42.5068 69.1463,40.5068 75.5,39.5 Z"/></g>
<g><path style="opacity:1" fill="#a0b764" d="M 93.5,59.5 C 94.8221,59.67 95.9887,59.3366 97,58.5C 97.3333,53.8333 97.6667,49.1667 98,44.5C 100.774,43.477 103.607,43.477 106.5,44.5C 106.833,44.5 107.167,44.5 107.5,44.5C 112.303,46.9386 116.637,50.272 120.5,54.5C 120.833,54.5 121.167,54.5 121.5,54.5C 121.5,55.8333 121.5,57.1667 121.5,58.5C 119.833,58.5 118.167,58.5 116.5,58.5C 116.167,58.5 115.833,58.5 115.5,58.5C 113.439,55.7718 111.105,53.4385 108.5,51.5C 106.183,50.0584 104.016,50.3918 102,52.5C 101.502,55.8168 101.335,59.1501 101.5,62.5C 91.5,62.5 81.5,62.5 71.5,62.5C 70.9552,59.1869 70.4552,55.8536 70,52.5C 69.6174,51.944 69.1174,51.6107 68.5,51.5C 67.7961,49.6558 66.4628,49.1558 64.5,50C 63.3774,51.0437 62.0441,51.7104 60.5,52C 59.2787,54.0337 57.9454,55.867 56.5,57.5C 55.1667,57.5 53.8333,57.5 52.5,57.5C 52.5,56.1667 52.5,54.8333 52.5,53.5C 56.7542,51.2515 60.7542,48.5848 64.5,45.5C 67.1985,45.5339 69.6985,44.8672 72,43.5C 72.171,48.5329 72.671,53.5329 73.5,58.5C 74.5,59 75.5,59.5 76.5,60C 82.3487,60.8184 88.0154,60.6517 93.5,59.5 Z"/></g>
<g><path style="opacity:1" fill="#393d39" d="M 124.5,54.5 C 124.383,56.4835 125.05,58.1502 126.5,59.5C 124.955,60.4519 123.288,60.7852 121.5,60.5C 122.742,58.3888 122.742,56.3888 121.5,54.5C 121.167,54.5 120.833,54.5 120.5,54.5C 117.906,48.9061 113.573,45.5728 107.5,44.5C 107.167,44.5 106.833,44.5 106.5,44.5C 103.562,41.2995 100.395,40.9662 97,43.5C 96.8255,48.3514 96.3255,53.0181 95.5,57.5C 95.5,56.8333 95.5,56.1667 95.5,55.5C 95.3341,50.4889 95.5007,45.4889 96,40.5C 107.615,40.5578 117.115,45.2245 124.5,54.5 Z"/></g>
<g><path style="opacity:1" fill="#8fa55d" d="M 77.5,58.5 C 82.6405,59.4881 87.9738,59.8214 93.5,59.5C 88.0154,60.6517 82.3487,60.8184 76.5,60C 75.5,59.5 74.5,59 73.5,58.5C 72.671,53.5329 72.171,48.5329 72,43.5C 69.6985,44.8672 67.1985,45.5339 64.5,45.5C 65.5,44.8333 66.5,44.1667 67.5,43.5C 67.8333,43.5 68.1667,43.5 68.5,43.5C 70.3911,42.4639 72.2245,42.4639 74,43.5C 74.3333,48.1667 74.6667,52.8333 75,57.5C 75.6708,58.2524 76.5041,58.5858 77.5,58.5 Z"/></g>
<g><path style="opacity:1" fill="#5f6140" d="M 76.5,43.5 C 76.1832,47.7016 76.5166,51.7016 77.5,55.5C 77.6107,56.1174 77.944,56.6174 78.5,57C 84.1569,57.4994 89.8236,57.6661 95.5,57.5C 89.69,58.4896 83.69,58.8229 77.5,58.5C 76.5041,58.5858 75.6708,58.2524 75,57.5C 74.6667,52.8333 74.3333,48.1667 74,43.5C 72.2245,42.4639 70.3911,42.4639 68.5,43.5C 71.0451,40.9252 73.7118,40.9252 76.5,43.5 Z"/></g>
<g><path style="opacity:1" fill="#4f5055" d="M 112.5,32.5 C 113.167,32.5 113.833,32.5 114.5,32.5C 117.929,36.2624 121.929,39.2624 126.5,41.5C 128.914,42.9108 130.581,44.9108 131.5,47.5C 132.512,48.8717 133.512,50.205 134.5,51.5C 137.591,56.0435 139.091,61.0435 139,66.5C 138.623,67.9423 137.79,68.9423 136.5,69.5C 136.5,68.1667 135.833,67.5 134.5,67.5C 134.5,67.1667 134.5,66.8333 134.5,66.5C 135.575,65.2866 136.241,63.7866 136.5,62C 136.392,60.3189 135.725,59.1522 134.5,58.5C 133.532,54.5678 131.532,51.2345 128.5,48.5C 128.833,47.8333 129.167,47.1667 129.5,46.5C 124.009,43.163 118.675,39.663 113.5,36C 109.12,34.6566 104.786,33.4899 100.5,32.5C 101.152,31.2749 102.319,30.6083 104,30.5C 106.761,31.4176 109.594,32.0843 112.5,32.5 Z"/></g>
<g><path style="opacity:1" fill="#832322" d="M 58.5,43.5 C 58.1667,44.1667 57.8333,44.8333 57.5,45.5C 53.8962,47.288 51.2295,49.9547 49.5,53.5C 48.2921,54.2341 46.9587,54.5674 45.5,54.5C 44.1397,59.7499 46.1397,62.4165 51.5,62.5C 53.5353,68.0578 51.5353,70.3911 45.5,69.5C 43.0478,69.4609 41.0478,68.7943 39.5,67.5C 43.0641,68.4227 46.7307,68.756 50.5,68.5C 50.5,66.8333 50.5,65.1667 50.5,63.5C 44.3012,63.9688 42.3012,61.3021 44.5,55.5C 48.3046,50.3523 52.9712,46.3523 58.5,43.5 Z"/></g>
<g><path style="opacity:1" fill="#ababab" d="M 131.5,47.5 C 132.5,47.5 133.5,47.5 134.5,47.5C 134.5,48.8333 134.5,50.1667 134.5,51.5C 133.512,50.205 132.512,48.8717 131.5,47.5 Z"/></g>
<g><path style="opacity:1" fill="#676767" d="M 33.5,43.5 C 32.8333,45.1667 32.1667,46.8333 31.5,48.5C 31.5,48.8333 31.5,49.1667 31.5,49.5C 29.461,50.6718 28.1276,52.3384 27.5,54.5C 27.3433,53.1266 27.51,51.7932 28,50.5C 29.5722,47.8926 31.4055,45.5593 33.5,43.5 Z"/></g>
<g><path style="opacity:1" fill="#9b2723" d="M 50.5,41.5 C 50.5,42.5 50.5,43.5 50.5,44.5C 49.1779,44.33 48.0113,44.6634 47,45.5C 45.5549,48.0904 44.3882,50.757 43.5,53.5C 42.1667,53.5 40.8333,53.5 39.5,53.5C 41.7837,48.2911 45.4504,44.2911 50.5,41.5 Z"/></g>
<g><path style="opacity:1" fill="#768551" d="M 106.5,44.5 C 103.607,43.477 100.774,43.477 98,44.5C 97.6667,49.1667 97.3333,53.8333 97,58.5C 95.9887,59.3366 94.8221,59.67 93.5,59.5C 87.9738,59.8214 82.6405,59.4881 77.5,58.5C 83.69,58.8229 89.69,58.4896 95.5,57.5C 96.3255,53.0181 96.8255,48.3514 97,43.5C 100.395,40.9662 103.562,41.2995 106.5,44.5 Z"/></g>
<g><path style="opacity:1" fill="#667246" d="M 107.5,44.5 C 113.573,45.5728 117.906,48.9061 120.5,54.5C 116.637,50.272 112.303,46.9386 107.5,44.5 Z"/></g>
<g><path style="opacity:1" fill="#809255" d="M 68.5,51.5 C 66.0733,51.523 63.74,52.023 61.5,53C 60.61,55.3913 58.9433,56.8913 56.5,57.5C 57.9454,55.867 59.2787,54.0337 60.5,52C 62.0441,51.7104 63.3774,51.0437 64.5,50C 66.4628,49.1558 67.7961,49.6558 68.5,51.5 Z"/></g>
<g><path style="opacity:1" fill="#7c7979" d="M 39.5,48.5 C 37.8325,50.4786 37.1658,52.812 37.5,55.5C 37.5,55.8333 37.5,56.1667 37.5,56.5C 36.5041,56.4142 35.6708,56.7476 35,57.5C 34.5014,61.1516 34.3347,64.8183 34.5,68.5C 34.1667,68.5 33.8333,68.5 33.5,68.5C 33.5,65.5 33.5,62.5 33.5,59.5C 33.4021,55.7503 34.5688,52.417 37,49.5C 37.6708,48.7476 38.5041,48.4142 39.5,48.5 Z"/></g>
<g><path style="opacity:1" fill="#555636" d="M 108.5,51.5 C 111.105,53.4385 113.439,55.7718 115.5,58.5C 114.199,60.456 114.699,62.1226 117,63.5C 118.568,67.9174 117.068,69.9174 112.5,69.5C 113.5,68.8333 114.5,68.1667 115.5,67.5C 115.6,64.8915 114.933,62.5582 113.5,60.5C 112.466,56.4655 109.8,54.7988 105.5,55.5C 105.5,58.8333 105.5,62.1667 105.5,65.5C 104.833,65.8333 104.167,66.1667 103.5,66.5C 101.517,66.8432 100.183,66.1765 99.5,64.5C 100.496,64.5858 101.329,64.2524 102,63.5C 102.333,60.1667 102.667,56.8333 103,53.5C 104.444,51.8446 106.278,51.178 108.5,51.5 Z"/></g>
<g><path style="opacity:1" fill="#535133" d="M 68.5,51.5 C 68.5,55.5 68.5,59.5 68.5,63.5C 69.791,63.2627 70.791,63.596 71.5,64.5C 70.8166,66.1765 69.4832,66.8432 67.5,66.5C 65.78,63.1108 65.1134,59.4441 65.5,55.5C 64.209,55.2627 63.209,55.596 62.5,56.5C 57.8628,58.6973 56.1961,62.0306 57.5,66.5C 59.612,68.2055 61.9453,69.5389 64.5,70.5C 56.4079,71.4182 53.4079,68.0849 55.5,60.5C 53.901,60.7678 52.5676,60.4345 51.5,59.5C 53.698,59.8799 55.3646,59.2132 56.5,57.5C 58.9433,56.8913 60.61,55.3913 61.5,53C 63.74,52.023 66.0733,51.523 68.5,51.5 Z"/></g>
<g><path style="opacity:1" fill="#7b8d53" d="M 52.5,53.5 C 52.5,54.8333 52.5,56.1667 52.5,57.5C 53.8333,57.5 55.1667,57.5 56.5,57.5C 55.3646,59.2132 53.698,59.8799 51.5,59.5C 51.5,58.8333 51.1667,58.5 50.5,58.5C 50.1201,56.302 50.7868,54.6354 52.5,53.5 Z"/></g>
<g><path style="opacity:1" fill="#32428e" d="M 133.5,59.5 C 133.5,61.8333 133.5,64.1667 133.5,66.5C 129.346,68.7261 125.013,69.0595 120.5,67.5C 120.167,67.5 119.833,67.5 119.5,67.5C 119.5,65.8333 119.5,64.1667 119.5,62.5C 122.167,62.5 124.833,62.5 127.5,62.5C 127.713,59.5491 127.046,56.8825 125.5,54.5C 124.737,51.9852 123.237,49.9852 121,48.5C 120.517,47.552 120.351,46.552 120.5,45.5C 122.582,45.472 124.416,46.1387 126,47.5C 129.245,50.9798 131.745,54.9798 133.5,59.5 Z"/></g>
<g><path style="opacity:1" fill="#8d7d37" d="M 113.5,60.5 C 111.637,58.2947 109.303,56.9613 106.5,56.5C 106.81,59.7131 106.477,62.7131 105.5,65.5C 105.5,62.1667 105.5,58.8333 105.5,55.5C 109.8,54.7988 112.466,56.4655 113.5,60.5 Z"/></g>
<g><path style="opacity:1" fill="#4b5139" d="M 121.5,54.5 C 122.742,56.3888 122.742,58.3888 121.5,60.5C 121.167,60.5 120.833,60.5 120.5,60.5C 118.62,60.7709 117.287,60.1042 116.5,58.5C 118.167,58.5 119.833,58.5 121.5,58.5C 121.5,57.1667 121.5,55.8333 121.5,54.5 Z"/></g>
<g><path style="opacity:1" fill="#9b8937" d="M 62.5,56.5 C 61.6267,58.8863 60.1267,60.8863 58,62.5C 57.51,63.7932 57.3433,65.1266 57.5,66.5C 56.1961,62.0306 57.8628,58.6973 62.5,56.5 Z"/></g>
<g><path style="opacity:1" fill="#292c42" d="M 124.5,54.5 C 124.833,54.5 125.167,54.5 125.5,54.5C 127.046,56.8825 127.713,59.5491 127.5,62.5C 124.833,62.5 122.167,62.5 119.5,62.5C 119.5,64.1667 119.5,65.8333 119.5,67.5C 118.102,64.993 118.436,62.6597 120.5,60.5C 120.833,60.5 121.167,60.5 121.5,60.5C 123.288,60.7852 124.955,60.4519 126.5,59.5C 125.05,58.1502 124.383,56.4835 124.5,54.5 Z"/></g>
<g><path style="opacity:1" fill="#821c18" d="M 39.5,53.5 C 39.1365,56.5627 38.4698,59.5627 37.5,62.5C 37.4365,64.5139 38.1032,66.1806 39.5,67.5C 38.5041,67.5858 37.6708,67.2524 37,66.5C 36.2534,63.0764 36.42,59.7431 37.5,56.5C 37.5,56.1667 37.5,55.8333 37.5,55.5C 38.1667,54.8333 38.8333,54.1667 39.5,53.5 Z"/></g>
<g><path style="opacity:1" fill="#91a75e" d="M 108.5,51.5 C 106.278,51.178 104.444,51.8446 103,53.5C 102.667,56.8333 102.333,60.1667 102,63.5C 101.329,64.2524 100.496,64.5858 99.5,64.5C 90.1667,64.5 80.8333,64.5 71.5,64.5C 70.791,63.596 69.791,63.2627 68.5,63.5C 68.5,59.5 68.5,55.5 68.5,51.5C 69.1174,51.6107 69.6174,51.944 70,52.5C 70.4552,55.8536 70.9552,59.1869 71.5,62.5C 81.5,62.5 91.5,62.5 101.5,62.5C 101.335,59.1501 101.502,55.8168 102,52.5C 104.016,50.3918 106.183,50.0584 108.5,51.5 Z"/></g>
<g><path style="opacity:1" fill="#5c6386" d="M 134.5,58.5 C 135.725,59.1522 136.392,60.3189 136.5,62C 136.241,63.7866 135.575,65.2866 134.5,66.5C 134.167,66.5 133.833,66.5 133.5,66.5C 133.5,64.1667 133.5,61.8333 133.5,59.5C 134.167,59.5 134.5,59.1667 134.5,58.5 Z"/></g>
<g><path style="opacity:1" fill="#9e9e9e" d="M 31.5,49.5 C 30.067,53.7844 28.567,58.1177 27,62.5C 25.0352,70.3415 27.8685,75.3415 35.5,77.5C 35.5,77.8333 35.5,78.1667 35.5,78.5C 34.5,78.5 33.5,78.5 32.5,78.5C 31.1805,77.0582 29.5138,76.3915 27.5,76.5C 24.9025,69.1263 24.9025,61.793 27.5,54.5C 28.1276,52.3384 29.461,50.6718 31.5,49.5 Z"/></g>
<g><path style="opacity:1" fill="#a7a7a7" d="M 33.5,59.5 C 33.5,62.5 33.5,65.5 33.5,68.5C 32.1024,67.2233 31.4357,65.5566 31.5,63.5C 31.3402,61.6455 32.0069,60.3121 33.5,59.5 Z"/></g>
<g><path style="opacity:1" fill="#a6a6a6" d="M 138.5,45.5 C 139.167,46.1667 139.833,46.8333 140.5,47.5C 146.189,55.296 147.689,63.9626 145,73.5C 142.643,77.0668 139.477,79.0668 135.5,79.5C 128.11,79.2363 120.777,79.5696 113.5,80.5C 113.804,79.8501 114.137,79.1835 114.5,78.5C 122.479,77.6684 130.479,77.1684 138.5,77C 140.624,75.8783 142.457,74.3783 144,72.5C 144.667,68.1667 144.667,63.8333 144,59.5C 142.348,54.6373 140.515,49.9706 138.5,45.5 Z"/></g>
<g><path style="opacity:1" fill="#2b2b2b" d="M 115.5,58.5 C 115.833,58.5 116.167,58.5 116.5,58.5C 117.287,60.1042 118.62,60.7709 120.5,60.5C 118.436,62.6597 118.102,64.993 119.5,67.5C 119.833,67.5 120.167,67.5 120.5,67.5C 120.611,68.1174 120.944,68.6174 121.5,69C 126.129,70.0216 130.462,69.5216 134.5,67.5C 135.833,67.5 136.5,68.1667 136.5,69.5C 135.662,69.8417 135.328,70.5084 135.5,71.5C 127.493,71.3336 119.493,71.5003 111.5,72C 110.619,72.7083 109.953,73.5416 109.5,74.5C 109.167,74.5 108.833,74.5 108.5,74.5C 106.972,74.4827 106.472,73.816 107,72.5C 108.719,71.1312 110.552,70.1312 112.5,69.5C 117.068,69.9174 118.568,67.9174 117,63.5C 114.699,62.1226 114.199,60.456 115.5,58.5 Z"/></g>
<g><path style="opacity:1" fill="#d4b940" d="M 67.5,66.5 C 79.5,67.8333 91.5,67.8333 103.5,66.5C 104.167,66.1667 104.833,65.8333 105.5,65.5C 106.477,62.7131 106.81,59.7131 106.5,56.5C 109.303,56.9613 111.637,58.2947 113.5,60.5C 114.933,62.5582 115.6,64.8915 115.5,67.5C 110.746,67.1813 106.746,68.6813 103.5,72C 92.1716,72.4999 80.8382,72.6665 69.5,72.5C 68.609,71.8902 67.609,71.5569 66.5,71.5C 65.8333,71.1667 65.1667,70.8333 64.5,70.5C 61.9453,69.5389 59.612,68.2055 57.5,66.5C 57.3433,65.1266 57.51,63.7932 58,62.5C 60.1267,60.8863 61.6267,58.8863 62.5,56.5C 63.209,55.596 64.209,55.2627 65.5,55.5C 65.1134,59.4441 65.78,63.1108 67.5,66.5 Z"/></g>
<g><path style="opacity:1" fill="#727643" d="M 71.5,64.5 C 80.8333,64.5 90.1667,64.5 99.5,64.5C 100.183,66.1765 101.517,66.8432 103.5,66.5C 91.5,67.8333 79.5,67.8333 67.5,66.5C 69.4832,66.8432 70.8166,66.1765 71.5,64.5 Z"/></g>
<g><path style="opacity:1" fill="#223063" d="M 133.5,66.5 C 133.833,66.5 134.167,66.5 134.5,66.5C 134.5,66.8333 134.5,67.1667 134.5,67.5C 130.462,69.5216 126.129,70.0216 121.5,69C 120.944,68.6174 120.611,68.1174 120.5,67.5C 125.013,69.0595 129.346,68.7261 133.5,66.5 Z"/></g>
<g><path style="opacity:1" fill="#2d2c2b" d="M 49.5,53.5 C 49.2155,55.4147 49.5489,57.0813 50.5,58.5C 51.1667,58.5 51.5,58.8333 51.5,59.5C 52.5676,60.4345 53.901,60.7678 55.5,60.5C 53.4079,68.0849 56.4079,71.4182 64.5,70.5C 65.1667,70.8333 65.8333,71.1667 66.5,71.5C 66.8333,72.1667 67.1667,72.8333 67.5,73.5C 67.3284,74.4916 67.6618,75.1583 68.5,75.5C 80.7014,75.8405 92.7014,76.8405 104.5,78.5C 104.5,78.8333 104.5,79.1667 104.5,79.5C 103.85,79.8039 103.183,80.1373 102.5,80.5C 101.5,100.155 101.167,119.822 101.5,139.5C 99.2568,140.812 96.5902,141.478 93.5,141.5C 90.8333,141.167 88.1667,140.833 85.5,140.5C 87.8263,139.855 89.493,138.522 90.5,136.5C 92.8847,134.116 94.8847,131.45 96.5,128.5C 97.8111,124.317 97.8111,119.984 96.5,115.5C 95.8165,115.137 95.1499,114.804 94.5,114.5C 93.5,114.167 92.8333,113.5 92.5,112.5C 91.3146,111.143 90.3146,109.643 89.5,108C 89.6387,106.699 90.3054,105.866 91.5,105.5C 92.4881,100.36 92.8214,95.0262 92.5,89.5C 91.5,89.5 90.5,89.5 89.5,89.5C 89.5,88.1667 89.5,86.8333 89.5,85.5C 88.1667,85.5 86.8333,85.5 85.5,85.5C 84.1667,85.1667 82.8333,84.8333 81.5,84.5C 77.7016,83.5166 73.7016,83.1832 69.5,83.5C 70.0838,80.715 69.0838,79.0483 66.5,78.5C 66.1667,76.1667 64.8333,74.8333 62.5,74.5C 62.0825,73.7784 61.4158,73.2784 60.5,73C 52.8333,72.6667 45.1667,72.3333 37.5,72C 36.2899,70.9609 35.2899,69.7942 34.5,68.5C 34.3347,64.8183 34.5014,61.1516 35,57.5C 35.6708,56.7476 36.5041,56.4142 37.5,56.5C 36.42,59.7431 36.2534,63.0764 37,66.5C 37.6708,67.2524 38.5041,67.5858 39.5,67.5C 41.0478,68.7943 43.0478,69.4609 45.5,69.5C 51.5353,70.3911 53.5353,68.0578 51.5,62.5C 46.1397,62.4165 44.1397,59.7499 45.5,54.5C 46.9587,54.5674 48.2921,54.2341 49.5,53.5 Z"/></g>
<g><path style="opacity:1" fill="#656565" d="M 135.5,71.5 C 128.011,72.329 120.344,72.829 112.5,73C 111.756,74.0386 110.756,74.5386 109.5,74.5C 109.953,73.5416 110.619,72.7083 111.5,72C 119.493,71.5003 127.493,71.3336 135.5,71.5 Z"/></g>
<g><path style="opacity:1" fill="#ababac" d="M 33.5,68.5 C 33.8333,68.5 34.1667,68.5 34.5,68.5C 35.2899,69.7942 36.2899,70.9609 37.5,72C 45.1667,72.3333 52.8333,72.6667 60.5,73C 61.4158,73.2784 62.0825,73.7784 62.5,74.5C 62.8333,75.1667 63.1667,75.8333 63.5,76.5C 61.7446,75.9278 60.0779,75.0945 58.5,74C 51.1667,73.6667 43.8333,73.3333 36.5,73C 34.8588,71.871 33.8588,70.371 33.5,68.5 Z"/></g>
<g><path style="opacity:1" fill="#ae993b" d="M 115.5,67.5 C 114.5,68.1667 113.5,68.8333 112.5,69.5C 108.74,68.7736 106.073,70.1069 104.5,73.5C 103.833,73.5 103.167,73.5 102.5,73.5C 91.3206,73.8279 80.3206,73.4946 69.5,72.5C 80.8382,72.6665 92.1716,72.4999 103.5,72C 106.746,68.6813 110.746,67.1813 115.5,67.5 Z"/></g>
<g><path style="opacity:1" fill="#b4b4b4" d="M 134.5,51.5 C 135.496,51.4142 136.329,51.7476 137,52.5C 137.473,54.779 138.473,56.779 140,58.5C 141.472,64.0755 140.305,68.9089 136.5,73C 128.833,73.3333 121.167,73.6667 113.5,74C 109.315,75.6878 106.315,78.5212 104.5,82.5C 104.5,81.5 104.5,80.5 104.5,79.5C 104.5,79.1667 104.5,78.8333 104.5,78.5C 106.167,77.5 107.5,76.1667 108.5,74.5C 108.833,74.5 109.167,74.5 109.5,74.5C 110.756,74.5386 111.756,74.0386 112.5,73C 120.344,72.829 128.011,72.329 135.5,71.5C 135.328,70.5084 135.662,69.8417 136.5,69.5C 137.79,68.9423 138.623,67.9423 139,66.5C 139.091,61.0435 137.591,56.0435 134.5,51.5 Z"/></g>
<g><path style="opacity:1" fill="#938137" d="M 66.5,71.5 C 67.609,71.5569 68.609,71.8902 69.5,72.5C 80.3206,73.4946 91.3206,73.8279 102.5,73.5C 90.9314,74.8195 79.2647,74.8195 67.5,73.5C 67.1667,72.8333 66.8333,72.1667 66.5,71.5 Z"/></g>
<g><path style="opacity:1" fill="#675d30" d="M 67.5,73.5 C 79.2647,74.8195 90.9314,74.8195 102.5,73.5C 103.167,73.5 103.833,73.5 104.5,73.5C 104.389,74.1174 104.056,74.6174 103.5,75C 91.8381,75.4999 80.1714,75.6665 68.5,75.5C 67.6618,75.1583 67.3284,74.4916 67.5,73.5 Z"/></g>
<g><path style="opacity:1" fill="#646464" d="M 62.5,74.5 C 64.8333,74.8333 66.1667,76.1667 66.5,78.5C 65.5,77.8333 64.5,77.1667 63.5,76.5C 63.1667,75.8333 62.8333,75.1667 62.5,74.5 Z"/></g>
<g><path style="opacity:1" fill="#413e2e" d="M 112.5,69.5 C 110.552,70.1312 108.719,71.1312 107,72.5C 106.472,73.816 106.972,74.4827 108.5,74.5C 107.5,76.1667 106.167,77.5 104.5,78.5C 92.7014,76.8405 80.7014,75.8405 68.5,75.5C 80.1714,75.6665 91.8381,75.4999 103.5,75C 104.056,74.6174 104.389,74.1174 104.5,73.5C 106.073,70.1069 108.74,68.7736 112.5,69.5 Z"/></g>
<g><path style="opacity:1" fill="#c5c5c5" d="M 35.5,78.5 C 35.5,78.1667 35.5,77.8333 35.5,77.5C 42.8409,77.3337 50.1742,77.5003 57.5,78C 59.1412,79.129 60.1412,80.629 60.5,82.5C 60.1667,82.5 59.8333,82.5 59.5,82.5C 59.5,81.8333 59.1667,81.5 58.5,81.5C 58.0472,80.5416 57.3805,79.7083 56.5,79C 49.5079,78.5004 42.5079,78.3337 35.5,78.5 Z"/></g>
<g><path style="opacity:1" fill="#808080" d="M 32.5,78.5 C 33.5,78.5 34.5,78.5 35.5,78.5C 42.5079,78.3337 49.5079,78.5004 56.5,79C 57.3805,79.7083 58.0472,80.5416 58.5,81.5C 50.6592,79.7064 42.6592,79.0397 34.5,79.5C 33.5084,79.6716 32.8417,79.3382 32.5,78.5 Z"/></g>
<g><path style="opacity:1" fill="#404040" d="M 34.5,79.5 C 42.6592,79.0397 50.6592,79.7064 58.5,81.5C 59.1667,81.5 59.5,81.8333 59.5,82.5C 59.5569,83.609 59.8902,84.609 60.5,85.5C 58.9519,85.1788 58.2852,84.1788 58.5,82.5C 56.901,82.2322 55.5676,82.5655 54.5,83.5C 52.1667,83.5 49.8333,83.5 47.5,83.5C 43.3034,82.0386 38.97,80.7053 34.5,79.5 Z"/></g>
<g><path style="opacity:1" fill="#424242" d="M 135.5,79.5 C 129.242,81.2999 122.575,82.1333 115.5,82C 116.416,82.2784 117.082,82.7784 117.5,83.5C 115.712,83.7852 114.045,83.4519 112.5,82.5C 112.863,81.8165 113.196,81.1499 113.5,80.5C 120.777,79.5696 128.11,79.2363 135.5,79.5 Z"/></g>
<g><path style="opacity:1" fill="#2b2b2b" d="M 60.5,85.5 C 61.4967,102.659 61.83,119.992 61.5,137.5C 60.5427,133.889 60.0427,127.556 60,118.5C 59.2917,117.619 58.4584,116.953 57.5,116.5C 56.5,115.167 55.5,113.833 54.5,112.5C 52.1963,110.297 52.0296,107.963 54,105.5C 54.4997,98.1742 54.6663,90.8409 54.5,83.5C 55.5676,82.5655 56.901,82.2322 58.5,82.5C 58.2852,84.1788 58.9519,85.1788 60.5,85.5 Z"/></g>
<g><path style="opacity:1" fill="#7f7f7f" d="M 113.5,80.5 C 113.196,81.1499 112.863,81.8165 112.5,82.5C 114.045,83.4519 115.712,83.7852 117.5,83.5C 120.313,83.0246 122.313,84.0246 123.5,86.5C 120.448,84.8217 117.115,84.155 113.5,84.5C 111.952,84.1788 111.285,83.1788 111.5,81.5C 111.842,80.6618 112.508,80.3284 113.5,80.5 Z"/></g>
<g><path style="opacity:1" fill="#f4f4f4" d="M 30.5,84.5 C 31.4916,91.6476 31.825,98.9809 31.5,106.5C 32.6936,107.777 34.3603,108.444 36.5,108.5C 38.8834,108.363 41.2168,108.029 43.5,107.5C 45.7157,106.797 47.549,105.464 49,103.5C 49.4995,97.1754 49.6662,90.8421 49.5,84.5C 50.8333,84.5 52.1667,84.5 53.5,84.5C 53.6662,90.5092 53.4995,96.5092 53,102.5C 52.3647,104.618 51.5314,106.618 50.5,108.5C 50.7517,110.073 51.4183,111.406 52.5,112.5C 53.1135,114.283 54.2802,115.616 56,116.5C 56.8311,123.524 56.6644,130.524 55.5,137.5C 54.6697,131.528 54.1697,125.528 54,119.5C 52.1893,115.345 49.0226,113.345 44.5,113.5C 40.03,112.514 35.3633,112.181 30.5,112.5C 30.5,121.167 30.5,129.833 30.5,138.5C 29.1667,138.5 27.8333,138.5 26.5,138.5C 26.5,138.167 26.5,137.833 26.5,137.5C 26.5,119.833 26.5,102.167 26.5,84.5C 27.8333,84.5 29.1667,84.5 30.5,84.5 Z"/></g>
<g><path style="opacity:1" fill="#4d4d4d" d="M 85.5,85.5 C 86.8333,85.5 88.1667,85.5 89.5,85.5C 89.5,86.8333 89.5,88.1667 89.5,89.5C 90.5,89.5 91.5,89.5 92.5,89.5C 92.8214,95.0262 92.4881,100.36 91.5,105.5C 91.6658,100.821 91.4992,96.1548 91,91.5C 90.6174,90.944 90.1174,90.6107 89.5,90.5C 88.197,88.8577 86.8637,87.1911 85.5,85.5 Z"/></g>
<g><path style="opacity:1" fill="#b4b4b4" d="M 25.5,83.5 C 27.4147,83.2155 29.0813,83.5489 30.5,84.5C 29.1667,84.5 27.8333,84.5 26.5,84.5C 26.5,102.167 26.5,119.833 26.5,137.5C 26.1667,137.5 25.8333,137.5 25.5,137.5C 25.5,119.5 25.5,101.5 25.5,83.5 Z"/></g>
<g><path style="opacity:1" fill="#6f6f6f" d="M 25.5,83.5 C 27.5598,82.1888 29.7265,82.1888 32,83.5C 32.4997,91.1594 32.6664,98.8261 32.5,106.5C 32.1667,106.5 31.8333,106.5 31.5,106.5C 31.825,98.9809 31.4916,91.6476 30.5,84.5C 29.0813,83.5489 27.4147,83.2155 25.5,83.5 Z"/></g>
<g><path style="opacity:1" fill="#d3d3d3" d="M 49.5,84.5 C 49.6662,90.8421 49.4995,97.1754 49,103.5C 47.549,105.464 45.7157,106.797 43.5,107.5C 43.5,107.167 43.5,106.833 43.5,106.5C 44.1667,106.5 44.5,106.167 44.5,105.5C 45.5,104.5 46.5,103.5 47.5,102.5C 48.1667,96.5 48.8333,90.5 49.5,84.5 Z"/></g>
<g><path style="opacity:1" fill="#8a8a8a" d="M 47.5,83.5 C 49.8333,83.5 52.1667,83.5 54.5,83.5C 54.6663,90.8409 54.4997,98.1742 54,105.5C 52.0296,107.963 52.1963,110.297 54.5,112.5C 53.8333,112.5 53.1667,112.5 52.5,112.5C 51.4183,111.406 50.7517,110.073 50.5,108.5C 51.5314,106.618 52.3647,104.618 53,102.5C 53.4995,96.5092 53.6662,90.5092 53.5,84.5C 52.1667,84.5 50.8333,84.5 49.5,84.5C 48.8333,90.5 48.1667,96.5 47.5,102.5C 47.5,96.5 47.5,90.5 47.5,84.5C 47.5,84.1667 47.5,83.8333 47.5,83.5 Z"/></g>
<g><path style="opacity:1" fill="#565656" d="M 145.5,83.5 C 143.533,83.2606 141.699,83.5939 140,84.5C 139.5,102.164 139.333,119.83 139.5,137.5C 139.167,137.5 138.833,137.5 138.5,137.5C 138.333,119.497 138.5,101.497 139,83.5C 141.274,82.1888 143.44,82.1888 145.5,83.5 Z"/></g>
<g><path style="opacity:1" fill="#939393" d="M 145.5,84.5 C 146.497,101.992 146.83,119.659 146.5,137.5C 146.516,139.484 145.516,140.484 143.5,140.5C 141.962,140.547 140.962,139.88 140.5,138.5C 142.167,138.5 143.833,138.5 145.5,138.5C 145.5,120.5 145.5,102.5 145.5,84.5 Z"/></g>
<g><path style="opacity:1" fill="#5c5c5c" d="M 145.5,84.5 C 145.5,84.1667 145.5,83.8333 145.5,83.5C 146.5,83.5 147.5,83.5 148.5,83.5C 148.83,101.674 148.497,119.674 147.5,137.5C 147.167,137.5 146.833,137.5 146.5,137.5C 146.83,119.659 146.497,101.992 145.5,84.5 Z"/></g>
<g><path style="opacity:1" fill="#5b5b5b" d="M 59.5,82.5 C 59.8333,82.5 60.1667,82.5 60.5,82.5C 60.7828,83.2891 61.2828,83.9558 62,84.5C 62.4999,102.164 62.6666,119.83 62.5,137.5C 62.1667,137.5 61.8333,137.5 61.5,137.5C 61.83,119.992 61.4967,102.659 60.5,85.5C 59.8902,84.609 59.5569,83.609 59.5,82.5 Z"/></g>
<g><path style="opacity:1" fill="#696969" d="M 104.5,79.5 C 104.5,80.5 104.5,81.5 104.5,82.5C 103.883,82.6107 103.383,82.944 103,83.5C 102.171,101.671 102.338,119.671 103.5,137.5C 103.5,137.833 103.5,138.167 103.5,138.5C 104.568,139.434 105.901,139.768 107.5,139.5C 105.611,140.742 103.611,140.742 101.5,139.5C 101.167,119.822 101.5,100.155 102.5,80.5C 103.183,80.1373 103.85,79.8039 104.5,79.5 Z"/></g>
<g><path style="opacity:1" fill="#bdbdbd" d="M 111.5,81.5 C 111.285,83.1788 111.952,84.1788 113.5,84.5C 112.859,85.4822 112.193,86.4822 111.5,87.5C 113.969,88.1681 116.302,88.8347 118.5,89.5C 115.212,89.927 112.212,89.2603 109.5,87.5C 108.501,104.153 108.167,120.82 108.5,137.5C 108.672,138.492 108.338,139.158 107.5,139.5C 105.901,139.768 104.568,139.434 103.5,138.5C 104.833,138.5 106.167,138.5 107.5,138.5C 107.333,120.497 107.5,102.497 108,84.5C 109.039,83.2899 110.206,82.2899 111.5,81.5 Z"/></g>
<g><path style="opacity:1" fill="#8a8a8a" d="M 118.5,89.5 C 120.833,89.8333 122.167,91.1667 122.5,93.5C 122.665,97.1817 122.499,100.848 122,104.5C 121.184,105.823 120.017,106.489 118.5,106.5C 115.922,106.98 113.588,107.98 111.5,109.5C 111.5,110.5 111.5,111.5 111.5,112.5C 116.412,112.063 121.078,112.896 125.5,115C 126.252,115.671 126.586,116.504 126.5,117.5C 125.833,117.167 125.167,116.833 124.5,116.5C 123.432,115.566 122.099,115.232 120.5,115.5C 117.25,113.975 113.75,112.975 110,112.5C 109.5,120.827 109.334,129.16 109.5,137.5C 109.167,137.5 108.833,137.5 108.5,137.5C 108.167,120.82 108.501,104.153 109.5,87.5C 112.212,89.2603 115.212,89.927 118.5,89.5 Z"/></g>
<g><path style="opacity:1" fill="#c0c0c0" d="M 145.5,83.5 C 145.5,83.8333 145.5,84.1667 145.5,84.5C 145.5,102.5 145.5,120.5 145.5,138.5C 143.833,138.5 142.167,138.5 140.5,138.5C 140.5,137.833 140.167,137.5 139.5,137.5C 139.333,119.83 139.5,102.164 140,84.5C 141.699,83.5939 143.533,83.2606 145.5,83.5 Z"/></g>
<g><path style="opacity:1" fill="#f9f9f9" d="M 141.5,85.5 C 142.5,85.5 143.5,85.5 144.5,85.5C 144.5,102.833 144.5,120.167 144.5,137.5C 143.5,137.5 142.5,137.5 141.5,137.5C 141.5,120.167 141.5,102.833 141.5,85.5 Z"/></g>
<g><path style="opacity:1" fill="#c2c2c2" d="M 104.5,82.5 C 103.526,100.787 103.193,119.12 103.5,137.5C 102.338,119.671 102.171,101.671 103,83.5C 103.383,82.944 103.883,82.6107 104.5,82.5 Z"/></g>
<g><path style="opacity:1" fill="#a4a4a4" d="M 60.5,82.5 C 63.0838,83.0483 64.0838,84.715 63.5,87.5C 63.1672,104.513 63.5005,121.513 64.5,138.5C 71.0708,138.679 77.7375,138.679 84.5,138.5C 77.6725,139.654 70.6725,140.154 63.5,140C 62.7476,139.329 62.4142,138.496 62.5,137.5C 62.6666,119.83 62.4999,102.164 62,84.5C 61.2828,83.9558 60.7828,83.2891 60.5,82.5 Z"/></g>
<g><path style="opacity:1" fill="#dfdfdf" d="M 63.5,87.5 C 64.4965,103.992 64.8298,120.658 64.5,137.5C 72.1667,137.5 79.8333,137.5 87.5,137.5C 86.791,138.404 85.791,138.737 84.5,138.5C 77.7375,138.679 71.0708,138.679 64.5,138.5C 63.5005,121.513 63.1672,104.513 63.5,87.5 Z"/></g>
<g><path style="opacity:1" fill="#2b2b2b" d="M 71.5,90.5 C 74.8333,90.5 78.1667,90.5 81.5,90.5C 81.6854,92.1958 82.5187,93.5291 84,94.5C 84.6667,97.5 84.6667,100.5 84,103.5C 83.2917,104.381 82.4584,105.047 81.5,105.5C 78.1667,105.5 74.8333,105.5 71.5,105.5C 71.5,100.5 71.5,95.5 71.5,90.5 Z"/></g>
<g><path style="opacity:1" fill="#2b2b2b" d="M 112.5,90.5 C 115.685,90.0196 118.519,90.6863 121,92.5C 121.667,96.1667 121.667,99.8333 121,103.5C 120.292,104.381 119.458,105.047 118.5,105.5C 116.167,105.5 113.833,105.5 111.5,105.5C 111.221,100.405 111.555,95.4053 112.5,90.5 Z"/></g>
<g><path style="opacity:1" fill="#565656" d="M 47.5,84.5 C 47.5,90.5 47.5,96.5 47.5,102.5C 46.5,103.5 45.5,104.5 44.5,105.5C 45.9446,98.4731 46.9446,91.4731 47.5,84.5 Z"/></g>
<g><path style="opacity:1" fill="#4e4e4e" d="M 71.5,90.5 C 71.5,95.5 71.5,100.5 71.5,105.5C 74.8333,105.5 78.1667,105.5 81.5,105.5C 81.5,105.833 81.5,106.167 81.5,106.5C 77.8333,106.5 74.1667,106.5 70.5,106.5C 70.1786,100.974 70.5119,95.6405 71.5,90.5 Z"/></g>
<g><path style="opacity:1" fill="#464646" d="M 112.5,90.5 C 111.555,95.4053 111.221,100.405 111.5,105.5C 113.833,105.5 116.167,105.5 118.5,105.5C 118.5,105.833 118.5,106.167 118.5,106.5C 115.5,106.5 112.5,106.5 109.5,106.5C 109.5,101.167 109.5,95.8333 109.5,90.5C 110.5,90.5 111.5,90.5 112.5,90.5 Z"/></g>
<g><path style="opacity:1" fill="#969696" d="M 89.5,90.5 C 90.1174,90.6107 90.6174,90.944 91,91.5C 91.4992,96.1548 91.6658,100.821 91.5,105.5C 90.3054,105.866 89.6387,106.699 89.5,108C 90.3146,109.643 91.3146,111.143 92.5,112.5C 90.9382,112.267 89.6049,111.6 88.5,110.5C 87.8761,110.083 87.5427,109.416 87.5,108.5C 90.6225,102.832 91.2891,96.8321 89.5,90.5 Z"/></g>
<g><path style="opacity:1" fill="#8c8c8c" d="M 123.5,86.5 C 124.5,86.5 125.5,86.5 126.5,86.5C 127.088,89.0631 128.088,91.3964 129.5,93.5C 129.81,96.7131 129.477,99.7131 128.5,102.5C 129.224,96.3428 127.557,91.0095 123.5,86.5 Z"/></g>
<g><path style="opacity:1" fill="#515151" d="M 129.5,93.5 C 132.159,98.6322 131.492,103.632 127.5,108.5C 128.127,109.417 128.461,110.417 128.5,111.5C 127.188,110.855 126.188,109.855 125.5,108.5C 127.415,106.929 128.415,104.929 128.5,102.5C 129.477,99.7131 129.81,96.7131 129.5,93.5 Z"/></g>
<g><path style="opacity:1" fill="#838383" d="M 81.5,90.5 C 82.7942,91.2899 83.9609,92.2899 85,93.5C 85.6667,97.1667 85.6667,100.833 85,104.5C 84.1841,105.823 83.0174,106.489 81.5,106.5C 81.5,106.167 81.5,105.833 81.5,105.5C 82.4584,105.047 83.2917,104.381 84,103.5C 84.6667,100.5 84.6667,97.5 84,94.5C 82.5187,93.5291 81.6854,92.1958 81.5,90.5 Z"/></g>
<g><path style="opacity:1" fill="#c9c9c9" d="M 122.5,93.5 C 126.808,104.203 123.142,109.537 111.5,109.5C 113.588,107.98 115.922,106.98 118.5,106.5C 120.017,106.489 121.184,105.823 122,104.5C 122.499,100.848 122.665,97.1817 122.5,93.5 Z"/></g>
<g><path style="opacity:1" fill="#ebebeb" d="M 113.5,84.5 C 117.115,84.155 120.448,84.8217 123.5,86.5C 127.557,91.0095 129.224,96.3428 128.5,102.5C 128.415,104.929 127.415,106.929 125.5,108.5C 126.188,109.855 127.188,110.855 128.5,111.5C 129.167,112.833 130.167,113.833 131.5,114.5C 133.557,121.938 134.057,129.605 133,137.5C 131.644,138.38 130.144,138.714 128.5,138.5C 127.833,131.5 127.167,124.5 126.5,117.5C 126.586,116.504 126.252,115.671 125.5,115C 121.078,112.896 116.412,112.063 111.5,112.5C 111.5,111.5 111.5,110.5 111.5,109.5C 123.142,109.537 126.808,104.203 122.5,93.5C 122.167,91.1667 120.833,89.8333 118.5,89.5C 116.302,88.8347 113.969,88.1681 111.5,87.5C 112.193,86.4822 112.859,85.4822 113.5,84.5 Z"/></g>
<g><path style="opacity:1" fill="#a0a0a0" d="M 31.5,106.5 C 31.8333,106.5 32.1667,106.5 32.5,106.5C 36.1667,106.5 39.8333,106.5 43.5,106.5C 43.5,106.833 43.5,107.167 43.5,107.5C 41.2168,108.029 38.8834,108.363 36.5,108.5C 34.3603,108.444 32.6936,107.777 31.5,106.5 Z"/></g>
<g><path style="opacity:1" fill="#848484" d="M 66.5,78.5 C 69.0838,79.0483 70.0838,80.715 69.5,83.5C 73.7016,83.1832 77.7016,83.5166 81.5,84.5C 78.1667,84.5 74.8333,84.5 71.5,84.5C 71.5,86.1667 71.5,87.8333 71.5,89.5C 75.0419,89.1872 78.3752,89.5206 81.5,90.5C 78.1667,90.5 74.8333,90.5 71.5,90.5C 70.5119,95.6405 70.1786,100.974 70.5,106.5C 74.1667,106.5 77.8333,106.5 81.5,106.5C 80.5,107.167 79.5,107.833 78.5,108.5C 76.1667,108.5 73.8333,108.5 71.5,108.5C 71.5,109.833 71.5,111.167 71.5,112.5C 75.3293,111.931 78.6627,112.598 81.5,114.5C 77.8333,114.5 74.1667,114.5 70.5,114.5C 70.5,120.167 70.5,125.833 70.5,131.5C 69.6688,117.339 69.1688,103.006 69,88.5C 68.9738,84.8609 68.1405,81.5275 66.5,78.5 Z"/></g>
<g><path style="opacity:1" fill="#d4d4d4" d="M 78.5,108.5 C 76.6309,109.165 74.6309,109.831 72.5,110.5C 76.5,111.167 80.5,111.833 84.5,112.5C 86.0792,113.667 87.4125,115 88.5,116.5C 87.2921,115.766 85.9587,115.433 84.5,115.5C 84.1667,115.5 83.8333,115.5 83.5,115.5C 83.1583,114.662 82.4916,114.328 81.5,114.5C 78.6627,112.598 75.3293,111.931 71.5,112.5C 71.5,111.167 71.5,109.833 71.5,108.5C 73.8333,108.5 76.1667,108.5 78.5,108.5 Z"/></g>
<g><path style="opacity:1" fill="#a5a5a5" d="M 63.5,76.5 C 64.5,77.1667 65.5,77.8333 66.5,78.5C 68.1405,81.5275 68.9738,84.8609 69,88.5C 69.1688,103.006 69.6688,117.339 70.5,131.5C 70.6107,132.117 70.944,132.617 71.5,133C 74.8168,133.498 78.1501,133.665 81.5,133.5C 77.4336,134.822 73.2669,134.822 69,133.5C 68.8313,118.661 68.3313,103.994 67.5,89.5C 67.6641,86.8127 67.4974,84.146 67,81.5C 65.1978,80.2107 64.0312,78.5441 63.5,76.5 Z"/></g>
<g><path style="opacity:1" fill="#d0d0d0" d="M 67.5,89.5 C 68.3313,103.994 68.8313,118.661 69,133.5C 73.2669,134.822 77.4336,134.822 81.5,133.5C 84.8967,133.349 87.23,131.682 88.5,128.5C 88.5,128.167 88.5,127.833 88.5,127.5C 90.7624,124.819 91.0957,121.819 89.5,118.5C 92.5328,123.68 91.8661,128.514 87.5,133C 81.1877,135.606 74.6877,136.106 68,134.5C 67.5001,119.504 67.3334,104.504 67.5,89.5 Z"/></g>
<g><path style="opacity:1" fill="#5d5d5d" d="M 120.5,115.5 C 117.14,115.384 113.807,115.051 110.5,114.5C 110.825,122.352 110.492,130.018 109.5,137.5C 109.334,129.16 109.5,120.827 110,112.5C 113.75,112.975 117.25,113.975 120.5,115.5 Z"/></g>
<g><path style="opacity:1" fill="#b1b1b1" d="M 44.5,113.5 C 40.1667,113.5 35.8333,113.5 31.5,113.5C 31.5,122.167 31.5,130.833 31.5,139.5C 29.5853,139.784 27.9187,139.451 26.5,138.5C 27.8333,138.5 29.1667,138.5 30.5,138.5C 30.5,129.833 30.5,121.167 30.5,112.5C 35.3633,112.181 40.03,112.514 44.5,113.5 Z"/></g>
<g><path style="opacity:1" fill="#2b2b2b" d="M 46.5,115.5 C 46.8333,115.5 47.1667,115.5 47.5,115.5C 47.9081,116.643 48.5748,117.643 49.5,118.5C 50.1668,124.988 50.8334,131.321 51.5,137.5C 51.6287,139.216 51.962,140.883 52.5,142.5C 45.4684,142.83 38.4684,142.497 31.5,141.5C 32.4722,132.554 32.8056,123.554 32.5,114.5C 37.1811,114.669 41.8478,115.002 46.5,115.5 Z"/></g>
<g><path style="opacity:1" fill="#2a2a2a" d="M 83.5,115.5 C 83.8333,115.5 84.1667,115.5 84.5,115.5C 87.9253,118.687 89.2587,122.687 88.5,127.5C 88.5,127.833 88.5,128.167 88.5,128.5C 87.0779,128.75 86.0779,129.583 85.5,131C 80.8452,131.499 76.1785,131.666 71.5,131.5C 71.5,126.167 71.5,120.833 71.5,115.5C 75.5,115.5 79.5,115.5 83.5,115.5 Z"/></g>
<g><path style="opacity:1" fill="#646464" d="M 84.5,115.5 C 85.9587,115.433 87.2921,115.766 88.5,116.5C 88.3284,117.492 88.6618,118.158 89.5,118.5C 91.0957,121.819 90.7624,124.819 88.5,127.5C 89.2587,122.687 87.9253,118.687 84.5,115.5 Z"/></g>
<g><path style="opacity:1" fill="#626262" d="M 94.5,114.5 C 95.1499,114.804 95.8165,115.137 96.5,115.5C 97.8111,119.984 97.8111,124.317 96.5,128.5C 96.8824,123.638 96.2157,118.972 94.5,114.5 Z"/></g>
<g><path style="opacity:1" fill="#818181" d="M 58.5,119.5 C 59.6533,125.653 59.82,131.986 59,138.5C 56.1358,141.402 53.9692,141.068 52.5,137.5C 54.3388,138.752 56.1722,138.752 58,137.5C 58.4995,131.509 58.6662,125.509 58.5,119.5 Z"/></g>
<g><path style="opacity:1" fill="#bebebe" d="M 88.5,110.5 C 89.6049,111.6 90.9382,112.267 92.5,112.5C 92.8333,113.5 93.5,114.167 94.5,114.5C 96.2157,118.972 96.8824,123.638 96.5,128.5C 94.8847,131.45 92.8847,134.116 90.5,136.5C 89.391,136.557 88.391,136.89 87.5,137.5C 94.0649,131.551 95.8982,124.218 93,115.5C 90.7997,114.349 89.2997,112.682 88.5,110.5 Z"/></g>
<g><path style="opacity:1" fill="#c7c7c7" d="M 52.5,112.5 C 53.1667,112.5 53.8333,112.5 54.5,112.5C 55.5,113.833 56.5,115.167 57.5,116.5C 57.5569,117.609 57.8902,118.609 58.5,119.5C 58.6662,125.509 58.4995,131.509 58,137.5C 56.1722,138.752 54.3388,138.752 52.5,137.5C 52.8774,130.743 52.3774,124.076 51,117.5C 50.1841,116.177 49.0174,115.511 47.5,115.5C 47.1667,115.5 46.8333,115.5 46.5,115.5C 45.8333,114.833 45.1667,114.167 44.5,113.5C 49.0226,113.345 52.1893,115.345 54,119.5C 54.1697,125.528 54.6697,131.528 55.5,137.5C 56.6644,130.524 56.8311,123.524 56,116.5C 54.2802,115.616 53.1135,114.283 52.5,112.5 Z"/></g>
<g><path style="opacity:1" fill="#606060" d="M 47.5,115.5 C 49.0174,115.511 50.1841,116.177 51,117.5C 52.3774,124.076 52.8774,130.743 52.5,137.5C 52.1667,137.5 51.8333,137.5 51.5,137.5C 50.8334,131.321 50.1668,124.988 49.5,118.5C 48.5748,117.643 47.9081,116.643 47.5,115.5 Z"/></g>
<g><path style="opacity:1" fill="#5b5b5b" d="M 81.5,114.5 C 82.4916,114.328 83.1583,114.662 83.5,115.5C 79.5,115.5 75.5,115.5 71.5,115.5C 71.5,120.833 71.5,126.167 71.5,131.5C 76.1785,131.666 80.8452,131.499 85.5,131C 86.0779,129.583 87.0779,128.75 88.5,128.5C 87.23,131.682 84.8967,133.349 81.5,133.5C 78.1501,133.665 74.8168,133.498 71.5,133C 70.944,132.617 70.6107,132.117 70.5,131.5C 70.5,125.833 70.5,120.167 70.5,114.5C 74.1667,114.5 77.8333,114.5 81.5,114.5 Z"/></g>
<g><path style="opacity:1" fill="#424242" d="M 120.5,115.5 C 122.099,115.232 123.432,115.566 124.5,116.5C 125.167,116.833 125.833,117.167 126.5,117.5C 127.167,124.5 127.833,131.5 128.5,138.5C 129.828,140.745 131.661,141.078 134,139.5C 134.667,131.833 134.667,124.167 134,116.5C 133.283,115.956 132.783,115.289 132.5,114.5C 133.496,114.414 134.329,114.748 135,115.5C 135.816,124.079 135.649,132.579 134.5,141C 135.793,141.49 137.127,141.657 138.5,141.5C 138.5,140.167 138.5,138.833 138.5,137.5C 138.833,137.5 139.167,137.5 139.5,137.5C 140.167,137.5 140.5,137.833 140.5,138.5C 140.962,139.88 141.962,140.547 143.5,140.5C 145.516,140.484 146.516,139.484 146.5,137.5C 146.833,137.5 147.167,137.5 147.5,137.5C 147.634,139.292 147.301,140.958 146.5,142.5C 115.167,142.5 83.8333,142.5 52.5,142.5C 51.962,140.883 51.6287,139.216 51.5,137.5C 51.8333,137.5 52.1667,137.5 52.5,137.5C 53.9692,141.068 56.1358,141.402 59,138.5C 59.82,131.986 59.6533,125.653 58.5,119.5C 57.8902,118.609 57.5569,117.609 57.5,116.5C 58.4584,116.953 59.2917,117.619 60,118.5C 60.0427,127.556 60.5427,133.889 61.5,137.5C 61.8333,137.5 62.1667,137.5 62.5,137.5C 62.4142,138.496 62.7476,139.329 63.5,140C 70.6725,140.154 77.6725,139.654 84.5,138.5C 85.791,138.737 86.791,138.404 87.5,137.5C 88.391,136.89 89.391,136.557 90.5,136.5C 89.493,138.522 87.8263,139.855 85.5,140.5C 88.1667,140.833 90.8333,141.167 93.5,141.5C 96.5902,141.478 99.2568,140.812 101.5,139.5C 103.611,140.742 105.611,140.742 107.5,139.5C 108.338,139.158 108.672,138.492 108.5,137.5C 108.833,137.5 109.167,137.5 109.5,137.5C 110.492,130.018 110.825,122.352 110.5,114.5C 113.807,115.051 117.14,115.384 120.5,115.5 Z"/></g>
<g><path style="opacity:1" fill="#848484" d="M 131.5,114.5 C 131.833,114.5 132.167,114.5 132.5,114.5C 132.783,115.289 133.283,115.956 134,116.5C 134.667,124.167 134.667,131.833 134,139.5C 131.661,141.078 129.828,140.745 128.5,138.5C 130.144,138.714 131.644,138.38 133,137.5C 134.057,129.605 133.557,121.938 131.5,114.5 Z"/></g>
<g><path style="opacity:1" fill="#282828" d="M 124.5,116.5 C 124.461,117.756 124.961,118.756 126,119.5C 126.5,126.826 126.666,134.159 126.5,141.5C 121.156,141.666 115.823,141.499 110.5,141C 111.482,132.919 111.816,124.752 111.5,116.5C 115.833,116.5 120.167,116.5 124.5,116.5 Z"/></g>
<g><path style="opacity:1" fill="#646464" d="M 44.5,113.5 C 45.1667,114.167 45.8333,114.833 46.5,115.5C 41.8478,115.002 37.1811,114.669 32.5,114.5C 32.8056,123.554 32.4722,132.554 31.5,141.5C 38.4684,142.497 45.4684,142.83 52.5,142.5C 83.8333,142.5 115.167,142.5 146.5,142.5C 146.5,142.833 146.5,143.167 146.5,143.5C 106.167,143.5 65.8333,143.5 25.5,143.5C 25.5,141.5 25.5,139.5 25.5,137.5C 25.8333,137.5 26.1667,137.5 26.5,137.5C 26.5,137.833 26.5,138.167 26.5,138.5C 27.9187,139.451 29.5853,139.784 31.5,139.5C 31.5,130.833 31.5,122.167 31.5,113.5C 35.8333,113.5 40.1667,113.5 44.5,113.5 Z"/></g>
<g><path style="opacity:1" fill="#b9b9b9" d="M 25.5,143.5 C 65.8333,143.5 106.167,143.5 146.5,143.5C 147.752,145.339 147.752,147.172 146.5,149C 106.168,149.5 65.8347,149.667 25.5,149.5C 25.5,147.5 25.5,145.5 25.5,143.5 Z"/></g>
<g><path style="opacity:1" fill="#fcfcfc" d="M 26.5,144.5 C 66.1667,144.5 105.833,144.5 145.5,144.5C 145.5,145.833 145.5,147.167 145.5,148.5C 105.833,148.5 66.1667,148.5 26.5,148.5C 26.5,147.167 26.5,145.833 26.5,144.5 Z"/></g>
</svg>
