<?xml version="1.0" encoding="UTF-8"?>
<!DOCTYPE svg PUBLIC "-//W3C//DTD SVG 1.1//EN" "http://www.w3.org/Graphics/SVG/1.1/DTD/svg11.dtd">
<svg xmlns="http://www.w3.org/2000/svg" version="1.1" width="326px" height="160px" style="shape-rendering:geometricPrecision; text-rendering:geometricPrecision; image-rendering:optimizeQuality; fill-rule:evenodd; clip-rule:evenodd" xmlns:xlink="http://www.w3.org/1999/xlink">
<g><path style="opacity:1" fill="#26355c" d="M 72.5,-0.5 C 80.5,-0.5 88.5,-0.5 96.5,-0.5C 97.017,2.85213 98.8504,5.18547 102,6.5C 103.365,6.15574 104.532,5.48907 105.5,4.5C 106.5,4.83333 107.167,5.5 107.5,6.5C 106.4,11.632 106.4,16.9653 107.5,22.5C 108.5,22.5 109.5,22.5 110.5,22.5C 110.5,23.8333 110.5,25.1667 110.5,26.5C 107.649,25.6769 104.982,24.3435 102.5,22.5C 101.205,25.0119 100.539,27.6786 100.5,30.5C 102.582,30.528 104.416,29.8613 106,28.5C 108.702,32.3721 110.035,36.7055 110,41.5C 111.097,43.0526 112.43,44.386 114,45.5C 114.494,47.1341 114.66,48.8008 114.5,50.5C 111.833,49.8333 109.167,49.1667 106.5,48.5C 107.411,51.9137 108.078,55.4137 108.5,59C 108.496,61.3608 108.163,63.5274 107.5,65.5C 107.913,59.9513 107.08,54.618 105,49.5C 102.92,46.9348 101.087,44.2682 99.5,41.5C 98.4391,39.4676 96.7724,38.1342 94.5,37.5C 93.3496,35.3912 92.0163,33.3912 90.5,31.5C 92.9631,26.3422 93.7965,21.0089 93,15.5C 94.0217,14.646 94.8551,13.646 95.5,12.5C 93.9793,12.1203 92.3126,11.9536 90.5,12C 90.4182,8.08419 88.4182,5.91752 84.5,5.5C 83.4032,3.77102 82.2365,2.10435 81,0.5C 78.791,2.70645 76.291,3.03978 73.5,1.5C 72.7025,1.04311 72.3691,0.376442 72.5,-0.5 Z"/></g>
<g><path style="opacity:1" fill="#26355c" d="M 166.5,-0.5 C 219.5,-0.5 272.5,-0.5 325.5,-0.5C 325.5,8.83333 325.5,18.1667 325.5,27.5C 323.626,25.8716 321.626,25.5382 319.5,26.5C 317.788,21.3436 314.121,18.6769 308.5,18.5C 308.299,22.35 306.466,23.35 303,21.5C 302.026,16.7153 300.026,16.382 297,20.5C 296.383,19.5509 296.549,18.7175 297.5,18C 295.369,14.7127 293.369,14.7127 291.5,18C 291.905,18.9454 292.572,19.6121 293.5,20C 292.207,20.49 290.873,20.6567 289.5,20.5C 289.231,15.4367 288.565,15.6033 287.5,21C 287.585,22.1074 287.919,23.1074 288.5,24C 286.431,25.5234 284.097,26.3568 281.5,26.5C 281.688,28.1033 281.188,29.4366 280,30.5C 278.252,28.8648 277.085,26.8648 276.5,24.5C 275.167,25.1667 274.167,26.1667 273.5,27.5C 272.311,28.4287 270.978,28.762 269.5,28.5C 269.5,29.8333 269.5,31.1667 269.5,32.5C 267.278,32.178 265.444,32.8446 264,34.5C 262.257,31.0433 261.257,27.3767 261,23.5C 260,22.5 259,21.5 258,20.5C 254.477,23.0322 250.977,25.5322 247.5,28C 245.567,28.7826 244.067,28.2826 243,26.5C 242.51,27.7932 242.343,29.1266 242.5,30.5C 241.127,30.6567 239.793,30.49 238.5,30C 237.95,28.1554 236.95,26.6554 235.5,25.5C 234.201,26.09 233.368,27.09 233,28.5C 231.176,27.2513 231.343,26.0847 233.5,25C 232.624,23.414 231.624,21.914 230.5,20.5C 230.628,22.1292 229.628,23.4625 227.5,24.5C 224.973,25.2136 222.473,25.8803 220,26.5C 218.606,24.5981 216.773,24.2647 214.5,25.5C 213.551,23.2627 212.884,20.9294 212.5,18.5C 211.325,18.281 210.325,18.6143 209.5,19.5C 211.005,20.8415 211.672,22.5082 211.5,24.5C 209.833,24.5 208.167,24.5 206.5,24.5C 206.649,23.448 206.483,22.448 206,21.5C 205.667,21.8333 205.333,22.1667 205,22.5C 202.979,19.7138 201.479,20.0472 200.5,23.5C 196.807,21.5804 196.807,20.2471 200.5,19.5C 200.684,16.6787 199.351,15.0121 196.5,14.5C 190.791,17.4576 189.458,16.1243 192.5,10.5C 189.231,9.45017 186.064,9.7835 183,11.5C 182.085,10.6721 181.419,9.67209 181,8.5C 179.383,9.53585 179.216,10.7025 180.5,12C 179.335,13.0836 178.002,13.9169 176.5,14.5C 174.809,12.5077 172.975,11.5077 171,11.5C 170.833,11.1667 170.667,10.8333 170.5,10.5C 175.74,9.41271 175.74,8.41271 170.5,7.5C 171.04,3.73097 169.706,1.0643 166.5,-0.5 Z"/></g>
<g><path style="opacity:1" fill="#212f57" d="M 96.5,-0.5 C 119.833,-0.5 143.167,-0.5 166.5,-0.5C 169.706,1.0643 171.04,3.73097 170.5,7.5C 175.74,8.41271 175.74,9.41271 170.5,10.5C 170.667,10.8333 170.833,11.1667 171,11.5C 172.975,11.5077 174.809,12.5077 176.5,14.5C 178.002,13.9169 179.335,13.0836 180.5,12C 179.216,10.7025 179.383,9.53585 181,8.5C 181.419,9.67209 182.085,10.6721 183,11.5C 186.064,9.7835 189.231,9.45017 192.5,10.5C 189.458,16.1243 190.791,17.4576 196.5,14.5C 199.351,15.0121 200.684,16.6787 200.5,19.5C 196.807,20.2471 196.807,21.5804 200.5,23.5C 201.479,20.0472 202.979,19.7138 205,22.5C 205.333,22.1667 205.667,21.8333 206,21.5C 206.483,22.448 206.649,23.448 206.5,24.5C 208.167,24.5 209.833,24.5 211.5,24.5C 211.672,22.5082 211.005,20.8415 209.5,19.5C 210.325,18.6143 211.325,18.281 212.5,18.5C 212.884,20.9294 213.551,23.2627 214.5,25.5C 216.773,24.2647 218.606,24.5981 220,26.5C 222.473,25.8803 224.973,25.2136 227.5,24.5C 229.628,23.4625 230.628,22.1292 230.5,20.5C 231.624,21.914 232.624,23.414 233.5,25C 231.343,26.0847 231.176,27.2513 233,28.5C 233.368,27.09 234.201,26.09 235.5,25.5C 236.95,26.6554 237.95,28.1554 238.5,30C 239.793,30.49 241.127,30.6567 242.5,30.5C 242.343,29.1266 242.51,27.7932 243,26.5C 244.067,28.2826 245.567,28.7826 247.5,28C 250.977,25.5322 254.477,23.0322 258,20.5C 259,21.5 260,22.5 261,23.5C 261.257,27.3767 262.257,31.0433 264,34.5C 265.444,32.8446 267.278,32.178 269.5,32.5C 269.5,31.1667 269.5,29.8333 269.5,28.5C 270.978,28.762 272.311,28.4287 273.5,27.5C 274.167,26.1667 275.167,25.1667 276.5,24.5C 277.085,26.8648 278.252,28.8648 280,30.5C 281.188,29.4366 281.688,28.1033 281.5,26.5C 284.097,26.3568 286.431,25.5234 288.5,24C 287.919,23.1074 287.585,22.1074 287.5,21C 288.565,15.6033 289.231,15.4367 289.5,20.5C 290.873,20.6567 292.207,20.49 293.5,20C 292.572,19.6121 291.905,18.9454 291.5,18C 293.369,14.7127 295.369,14.7127 297.5,18C 296.549,18.7175 296.383,19.5509 297,20.5C 300.026,16.382 302.026,16.7153 303,21.5C 306.466,23.35 308.299,22.35 308.5,18.5C 314.121,18.6769 317.788,21.3436 319.5,26.5C 321.626,25.5382 323.626,25.8716 325.5,27.5C 325.5,43.1667 325.5,58.8333 325.5,74.5C 324.5,74.5 323.5,74.5 322.5,74.5C 322.5,73.5 322.5,72.5 322.5,71.5C 318.557,71.4052 315.057,70.0719 312,67.5C 309.718,68.7115 309.218,70.3781 310.5,72.5C 309.786,74.8111 308.786,76.9777 307.5,79C 303.561,77.9687 299.561,76.802 295.5,75.5C 295.5,72.5 295.5,69.5 295.5,66.5C 295.5,65.8333 295.5,65.1667 295.5,64.5C 292.713,63.5233 289.713,63.19 286.5,63.5C 286.5,73.5 286.5,83.5 286.5,93.5C 284.557,92.9217 284.223,91.9217 285.5,90.5C 282.588,87.4623 281.588,87.7956 282.5,91.5C 279.811,93.7809 277.644,93.1143 276,89.5C 274.681,91.2495 274.181,93.2495 274.5,95.5C 272.833,94.8333 271.167,94.1667 269.5,93.5C 269.609,90.1008 270.942,87.4341 273.5,85.5C 274.162,83.6965 274.495,81.6965 274.5,79.5C 273.669,75.006 272.336,70.6727 270.5,66.5C 266.609,65.4982 262.609,64.6648 258.5,64C 250.841,63.5003 243.174,63.3336 235.5,63.5C 235.5,83.5 235.5,103.5 235.5,123.5C 234.503,103.34 234.17,83.0069 234.5,62.5C 236.924,62.8076 239.257,62.4742 241.5,61.5C 240.653,60.1552 239.487,59.1552 238,58.5C 236.506,59.7472 235.006,59.7472 233.5,58.5C 234.711,57.2798 234.711,56.1131 233.5,55C 223.255,54.4503 222.921,55.6169 232.5,58.5C 231.209,59.8248 229.876,61.1581 228.5,62.5C 227.803,60.6155 226.803,60.2822 225.5,61.5C 224.571,60.3112 224.238,58.9778 224.5,57.5C 222.143,57.3367 219.81,57.5034 217.5,58C 215.354,59.6017 213.02,60.7683 210.5,61.5C 210.5,60.1667 210.5,58.8333 210.5,57.5C 207.07,58.2447 205.403,56.9114 205.5,53.5C 208.705,48.3666 207.371,46.6999 201.5,48.5C 198.972,47.254 196.305,46.254 193.5,45.5C 191.585,43.9288 190.585,41.9288 190.5,39.5C 189.178,39.67 188.011,39.3366 187,38.5C 185.069,41.1047 183.236,41.1047 181.5,38.5C 185.046,32.261 183.38,29.0943 176.5,29C 175.663,27.9887 175.33,26.8221 175.5,25.5C 172.245,25.9864 169.578,24.9864 167.5,22.5C 161.676,28.3837 159.342,27.0504 160.5,18.5C 157.048,18.8197 153.715,18.8197 150.5,18.5C 149.295,20.1376 147.962,20.4709 146.5,19.5C 143.826,20.4991 143.159,22.1658 144.5,24.5C 143.863,26.3031 142.697,27.6364 141,28.5C 136.365,22.7441 133.199,23.4108 131.5,30.5C 130.5,30.5 129.5,30.5 128.5,30.5C 128.5,31.8333 128.5,33.1667 128.5,34.5C 129.833,34.5 131.167,34.5 132.5,34.5C 132.343,33.1266 132.51,31.7932 133,30.5C 133.5,31.6667 134.333,32.5 135.5,33C 133.913,34.8448 132.579,36.8448 131.5,39C 132.509,40.1681 133.509,41.3348 134.5,42.5C 133.675,43.3857 132.675,43.719 131.5,43.5C 130.122,49.4611 132.122,51.4611 137.5,49.5C 136.494,53.3258 135.161,56.9925 133.5,60.5C 136.089,61.1273 138.589,61.1273 141,60.5C 142.597,61.8847 144.43,62.5514 146.5,62.5C 146.5,71.1667 146.5,79.8333 146.5,88.5C 144.847,81.0542 143.847,73.3875 143.5,65.5C 141.365,63.631 138.698,62.9644 135.5,63.5C 134.833,73.6745 134.167,84.0078 133.5,94.5C 131.512,93.7112 131.179,92.5445 132.5,91C 130.983,89.3149 129.316,87.8149 127.5,86.5C 127.054,84.6318 126.721,82.7985 126.5,81C 123.629,80.8692 121.295,79.7025 119.5,77.5C 118.086,78.624 116.586,79.624 115,80.5C 114.73,77.6383 113.896,74.9716 112.5,72.5C 111.14,73.1799 109.807,73.8466 108.5,74.5C 106.393,73.5318 104.059,73.1984 101.5,73.5C 100.71,74.6085 100.21,75.9419 100,77.5C 99.3333,76.8333 98.6667,76.1667 98,75.5C 95.6667,76.8333 94.6667,76.1667 95,73.5C 98.7026,72.9121 102.203,71.7454 105.5,70C 106.582,68.6703 107.249,67.1703 107.5,65.5C 108.163,63.5274 108.496,61.3608 108.5,59C 108.078,55.4137 107.411,51.9137 106.5,48.5C 109.167,49.1667 111.833,49.8333 114.5,50.5C 114.66,48.8008 114.494,47.1341 114,45.5C 112.43,44.386 111.097,43.0526 110,41.5C 110.035,36.7055 108.702,32.3721 106,28.5C 104.416,29.8613 102.582,30.528 100.5,30.5C 100.539,27.6786 101.205,25.0119 102.5,22.5C 104.982,24.3435 107.649,25.6769 110.5,26.5C 110.5,25.1667 110.5,23.8333 110.5,22.5C 109.5,22.5 108.5,22.5 107.5,22.5C 106.4,16.9653 106.4,11.632 107.5,6.5C 107.167,5.5 106.5,4.83333 105.5,4.5C 104.532,5.48907 103.365,6.15574 102,6.5C 98.8504,5.18547 97.017,2.85213 96.5,-0.5 Z"/></g>
<g><path style="opacity:1" fill="#27375c" d="M -0.5,-0.5 C 12.8333,-0.5 26.1667,-0.5 39.5,-0.5C 39.3651,2.50705 40.3651,5.00705 42.5,7C 42.2935,8.36603 41.9602,9.69936 41.5,11C 42.7131,12.6303 43.5464,14.4636 44,16.5C 46.9941,14.6718 49.4941,12.3384 51.5,9.5C 52.6547,13.4266 53.488,17.4266 54,21.5C 56.5213,22.8807 58.3546,24.8807 59.5,27.5C 57.5,27.5 55.5,27.5 53.5,27.5C 49.8212,27.7244 46.1545,28.0578 42.5,28.5C 42.5,29.5 42.5,30.5 42.5,31.5C 37.5551,32.1174 34.5551,34.7841 33.5,39.5C 29.2848,39.0607 26.2848,40.7274 24.5,44.5C 24.5417,42.1511 23.3751,40.8178 21,40.5C 18.5007,41.0831 16.5007,42.4164 15,44.5C 14.1301,43.8921 13.6301,43.0588 13.5,42C 14.2887,40.3745 15.2887,38.8745 16.5,37.5C 19.7139,36.9561 22.7139,35.9561 25.5,34.5C 24.7303,32.7282 23.3969,31.7282 21.5,31.5C 18.5893,33.5399 15.4226,35.2066 12,36.5C 10.2908,35.4304 8.79081,34.0971 7.5,32.5C 5.00338,32.9355 3.83671,34.2688 4,36.5C 8.77956,39.0556 8.6129,40.5556 3.5,41C 1.8757,39.8829 0.875696,38.3829 0.5,36.5C 2.45336,32.6781 3.7867,28.6781 4.5,24.5C 3.5,24.5 2.5,24.5 1.5,24.5C 1.42082,23.0695 1.75415,21.7362 2.5,20.5C 1.67504,19.6143 0.675044,19.281 -0.5,19.5C -0.5,12.8333 -0.5,6.16667 -0.5,-0.5 Z"/></g>
<g><path style="opacity:1" fill="#334266" d="M 39.5,-0.5 C 50.5,-0.5 61.5,-0.5 72.5,-0.5C 72.3691,0.376442 72.7025,1.04311 73.5,1.5C 76.291,3.03978 78.791,2.70645 81,0.5C 82.2365,2.10435 83.4032,3.77102 84.5,5.5C 88.4182,5.91752 90.4182,8.08419 90.5,12C 92.3126,11.9536 93.9793,12.1203 95.5,12.5C 94.8551,13.646 94.0217,14.646 93,15.5C 93.7965,21.0089 92.9631,26.3422 90.5,31.5C 92.0163,33.3912 93.3496,35.3912 94.5,37.5C 96.7724,38.1342 98.4391,39.4676 99.5,41.5C 95.2685,40.51 92.2685,38.01 90.5,34C 82.308,27.6398 73.308,26.1398 63.5,29.5C 62.1331,28.7745 60.7997,28.1079 59.5,27.5C 58.3546,24.8807 56.5213,22.8807 54,21.5C 53.488,17.4266 52.6547,13.4266 51.5,9.5C 49.4941,12.3384 46.9941,14.6718 44,16.5C 43.5464,14.4636 42.7131,12.6303 41.5,11C 41.9602,9.69936 42.2935,8.36603 42.5,7C 40.3651,5.00705 39.3651,2.50705 39.5,-0.5 Z"/></g>
<g><path style="opacity:1" fill="#222f56" d="M -0.5,19.5 C 0.675044,19.281 1.67504,19.6143 2.5,20.5C 1.75415,21.7362 1.42082,23.0695 1.5,24.5C 2.5,24.5 3.5,24.5 4.5,24.5C 3.7867,28.6781 2.45336,32.6781 0.5,36.5C 0.875696,38.3829 1.8757,39.8829 3.5,41C 8.6129,40.5556 8.77956,39.0556 4,36.5C 3.83671,34.2688 5.00338,32.9355 7.5,32.5C 8.79081,34.0971 10.2908,35.4304 12,36.5C 15.4226,35.2066 18.5893,33.5399 21.5,31.5C 23.3969,31.7282 24.7303,32.7282 25.5,34.5C 22.7139,35.9561 19.7139,36.9561 16.5,37.5C 15.2887,38.8745 14.2887,40.3745 13.5,42C 13.6301,43.0588 14.1301,43.8921 15,44.5C 16.5007,42.4164 18.5007,41.0831 21,40.5C 23.3751,40.8178 24.5417,42.1511 24.5,44.5C 22.0032,48.4969 20.3366,52.8303 19.5,57.5C 19.3354,60.5184 19.502,63.5184 20,66.5C 20.3826,67.056 20.8826,67.3893 21.5,67.5C 21.5,68.1667 21.5,68.8333 21.5,69.5C 21.4142,70.4959 21.7476,71.3292 22.5,72C 21.2625,72.2321 20.2625,72.7321 19.5,73.5C 19.5,73.8333 19.5,74.1667 19.5,74.5C 19.5,88.1667 19.5,101.833 19.5,115.5C 19.5,116.5 19.5,117.5 19.5,118.5C 19.5,118.833 19.5,119.167 19.5,119.5C 19.5,119.833 19.5,120.167 19.5,120.5C 19.5,121.5 19.5,122.5 19.5,123.5C 48.5,123.5 77.5,123.5 106.5,123.5C 107.434,122.432 107.768,121.099 107.5,119.5C 107.5,119.167 107.5,118.833 107.5,118.5C 107.5,117.5 107.5,116.5 107.5,115.5C 108.496,102.01 108.829,88.3435 108.5,74.5C 109.807,73.8466 111.14,73.1799 112.5,72.5C 113.896,74.9716 114.73,77.6383 115,80.5C 116.586,79.624 118.086,78.624 119.5,77.5C 121.295,79.7025 123.629,80.8692 126.5,81C 126.721,82.7985 127.054,84.6318 127.5,86.5C 129.316,87.8149 130.983,89.3149 132.5,91C 131.179,92.5445 131.512,93.7112 133.5,94.5C 134.167,84.0078 134.833,73.6745 135.5,63.5C 135.17,83.6736 135.503,103.674 136.5,123.5C 138.833,123.5 141.167,123.5 143.5,123.5C 144.493,114.682 144.827,105.682 144.5,96.5C 150.869,96.347 157.203,96.6803 163.5,97.5C 163.833,97.5 164.167,97.5 164.5,97.5C 165.792,99.7019 167.626,101.369 170,102.5C 170.49,103.793 170.657,105.127 170.5,106.5C 168.956,106.297 167.622,105.63 166.5,104.5C 163.577,106.308 161.077,108.641 159,111.5C 158.51,112.793 158.343,114.127 158.5,115.5C 160.857,115.337 163.19,115.503 165.5,116C 167.784,117.363 167.951,118.863 166,120.5C 161.805,118.643 158.471,119.643 156,123.5C 156.037,127.34 154.204,129.673 150.5,130.5C 149.417,131.365 149.251,132.365 150,133.5C 152.093,134.246 154.093,134.579 156,134.5C 156.667,133.833 157.333,133.167 158,132.5C 159.275,136.471 160.609,140.471 162,144.5C 164.421,143.039 166.921,141.706 169.5,140.5C 172.287,142.966 173.954,142.133 174.5,138C 175.793,137.51 177.127,137.343 178.5,137.5C 179.122,142.032 177.122,144.198 172.5,144C 175.041,147.703 177.374,147.87 179.5,144.5C 180.736,145.246 182.07,145.579 183.5,145.5C 183.523,147.927 184.023,150.26 185,152.5C 186.544,149.736 187.711,149.903 188.5,153C 190.345,154.128 192.345,154.628 194.5,154.5C 194.34,152.801 194.506,151.134 195,149.5C 198.542,152.596 201.042,151.929 202.5,147.5C 203.184,150.616 204.184,153.616 205.5,156.5C 208.419,157.932 209.752,156.932 209.5,153.5C 211.927,153.523 214.26,154.023 216.5,155C 215.483,156.049 215.316,157.216 216,158.5C 216.414,158.043 216.914,157.709 217.5,157.5C 219.657,158.05 221.657,158.717 223.5,159.5C 148.833,159.5 74.1667,159.5 -0.5,159.5C -0.5,112.833 -0.5,66.1667 -0.5,19.5 Z"/></g>
<g><path style="opacity:1" fill="#384b8c" d="M 86.5,38.5 C 92.6827,42.008 97.016,47.008 99.5,53.5C 100.831,62.9984 96.9974,65.9984 88,62.5C 86.8228,58.5082 88.3228,56.8416 92.5,57.5C 92.313,55.4357 91.813,53.4357 91,51.5C 90.3292,50.7476 89.4959,50.4142 88.5,50.5C 86.3134,48.5784 83.9801,46.9117 81.5,45.5C 81.0472,44.5416 80.3805,43.7083 79.5,43C 76.2432,41.9571 72.9099,41.4571 69.5,41.5C 69.5,45.5 69.5,49.5 69.5,53.5C 67.8561,53.7135 66.3561,53.3802 65,52.5C 64.2665,47.1149 64.4332,41.7815 65.5,36.5C 69.1827,34.5188 73.1827,34.0188 77.5,35C 80.1893,36.9242 83.1893,38.0909 86.5,38.5 Z"/></g>
<g><path style="opacity:1" fill="#644057" d="M 53.5,33.5 C 57.0034,33.1289 60.0034,34.1289 62.5,36.5C 62.8222,42.358 62.4889,48.0247 61.5,53.5C 61.666,48.1563 61.4994,42.8229 61,37.5C 60.6174,36.944 60.1174,36.6107 59.5,36.5C 56.3601,35.3592 53.0267,35.1925 49.5,36C 44.4757,38.2545 39.8091,41.0878 35.5,44.5C 35.369,43.7611 35.5357,43.0944 36,42.5C 38.9958,40.2674 41.8292,37.9341 44.5,35.5C 47.5,34.8333 50.5,34.1667 53.5,33.5 Z"/></g>
<g><path style="opacity:1" fill="#d53832" d="M 59.5,36.5 C 60.7353,41.8132 60.7353,47.1466 59.5,52.5C 58.8329,48.6875 58.1663,45.0208 57.5,41.5C 57.1667,41.5 56.8333,41.5 56.5,41.5C 56.1667,41.5 55.8333,41.5 55.5,41.5C 55.38,40.4138 54.7133,39.7472 53.5,39.5C 46.2818,40.5763 45.9484,39.743 52.5,37C 54.8098,36.5034 57.1432,36.3367 59.5,36.5 Z"/></g>
<g><path style="opacity:1" fill="#b43739" d="M 59.5,36.5 C 60.1174,36.6107 60.6174,36.944 61,37.5C 61.4994,42.8229 61.666,48.1563 61.5,53.5C 60.1667,53.5 58.8333,53.5 57.5,53.5C 57.5,49.5 57.5,45.5 57.5,41.5C 58.1663,45.0208 58.8329,48.6875 59.5,52.5C 60.7353,47.1466 60.7353,41.8132 59.5,36.5 Z"/></g>
<g><path style="opacity:1" fill="#b2383b" d="M 59.5,36.5 C 57.1432,36.3367 54.8098,36.5034 52.5,37C 45.9484,39.743 46.2818,40.5763 53.5,39.5C 54.7133,39.7472 55.38,40.4138 55.5,41.5C 53.1432,41.3367 50.8098,41.5034 48.5,42C 47.944,42.3826 47.6107,42.8826 47.5,43.5C 45.7085,43.366 44.0418,43.6993 42.5,44.5C 42.5299,43.5028 42.0299,42.8361 41,42.5C 38.6286,44.3735 36.1286,46.0402 33.5,47.5C 33.7822,46.2223 34.4489,45.2223 35.5,44.5C 39.8091,41.0878 44.4757,38.2545 49.5,36C 53.0267,35.1925 56.3601,35.3592 59.5,36.5 Z"/></g>
<g><path style="opacity:1" fill="#96ae6e" d="M 47.5,43.5 C 50.1667,43.5 52.8333,43.5 55.5,43.5C 55.5,47.5 55.5,51.5 55.5,55.5C 60.8333,55.5 66.1667,55.5 71.5,55.5C 72.4816,52.0381 72.815,48.3714 72.5,44.5C 74.1992,44.3398 75.8659,44.5065 77.5,45C 79.7681,47.2896 82.4348,48.9562 85.5,50C 87.607,51.2635 88.607,53.0968 88.5,55.5C 87.5,55.5 86.5,55.5 85.5,55.5C 82.9842,52.2091 79.6509,50.2091 75.5,49.5C 76.069,53.3293 75.4023,56.6627 73.5,59.5C 66.8333,59.5 60.1667,59.5 53.5,59.5C 51.5977,56.6627 50.931,53.3293 51.5,49.5C 47.1902,49.4894 43.8569,51.3228 41.5,55C 40.552,55.4828 39.552,55.6495 38.5,55.5C 38.4326,54.0413 38.7659,52.7079 39.5,51.5C 41.8123,48.5211 44.4789,45.8544 47.5,43.5 Z"/></g>
<g><path style="opacity:1" fill="#363e67" d="M 62.5,36.5 C 63.5,36.5 64.5,36.5 65.5,36.5C 64.4332,41.7815 64.2665,47.1149 65,52.5C 66.3561,53.3802 67.8561,53.7135 69.5,53.5C 69.5,49.5 69.5,45.5 69.5,41.5C 72.9099,41.4571 76.2432,41.9571 79.5,43C 80.3805,43.7083 81.0472,44.5416 81.5,45.5C 78.4484,43.8217 75.1151,43.155 71.5,43.5C 70.5184,46.9619 70.185,50.6286 70.5,54.5C 67.5,54.5 64.5,54.5 61.5,54.5C 61.5,54.1667 61.5,53.8333 61.5,53.5C 62.4889,48.0247 62.8222,42.358 62.5,36.5 Z"/></g>
<g><path style="opacity:1" fill="#7a916a" d="M 71.5,43.5 C 75.1151,43.155 78.4484,43.8217 81.5,45.5C 83.9801,46.9117 86.3134,48.5784 88.5,50.5C 89.3007,52.0418 89.634,53.7085 89.5,55.5C 89.1667,55.5 88.8333,55.5 88.5,55.5C 88.607,53.0968 87.607,51.2635 85.5,50C 82.4348,48.9562 79.7681,47.2896 77.5,45C 75.8659,44.5065 74.1992,44.3398 72.5,44.5C 72.815,48.3714 72.4816,52.0381 71.5,55.5C 71.5,51.5 71.5,47.5 71.5,43.5 Z"/></g>
<g><path style="opacity:1" fill="#67374b" d="M 56.5,41.5 C 56.8333,41.5 57.1667,41.5 57.5,41.5C 57.5,45.5 57.5,49.5 57.5,53.5C 58.8333,53.5 60.1667,53.5 61.5,53.5C 61.5,53.8333 61.5,54.1667 61.5,54.5C 59.8333,54.5 58.1667,54.5 56.5,54.5C 56.5,50.1667 56.5,45.8333 56.5,41.5 Z"/></g>
<g><path style="opacity:1" fill="#5d4b64" d="M 35.5,44.5 C 34.4489,45.2223 33.7822,46.2223 33.5,47.5C 31.0178,48.6627 29.6845,50.6627 29.5,53.5C 28.8333,53.5 28.1667,53.5 27.5,53.5C 28.1051,48.5991 30.7718,45.5991 35.5,44.5 Z"/></g>
<g><path style="opacity:1" fill="#5b3e4f" d="M 47.5,43.5 C 44.4789,45.8544 41.8123,48.5211 39.5,51.5C 37.744,52.5521 37.0773,54.2188 37.5,56.5C 37.8333,57.1667 38.1667,57.8333 38.5,58.5C 36.8333,58.5 35.1667,58.5 33.5,58.5C 33.5902,52.0564 36.5902,47.3897 42.5,44.5C 44.0418,43.6993 45.7085,43.366 47.5,43.5 Z"/></g>
<g><path style="opacity:1" fill="#bdc0cc" d="M 53.5,27.5 C 48.3012,30.9127 42.6345,33.5793 36.5,35.5C 35.7379,36.6283 35.0712,37.7949 34.5,39C 35,39.1667 35.5,39.3333 36,39.5C 38.7372,37.921 41.5705,36.5877 44.5,35.5C 41.8292,37.9341 38.9958,40.2674 36,42.5C 35.5357,43.0944 35.369,43.7611 35.5,44.5C 30.7718,45.5991 28.1051,48.5991 27.5,53.5C 26.8826,53.6107 26.3826,53.944 26,54.5C 24.9766,58.3169 25.4766,61.8169 27.5,65C 32.6835,65.1739 37.6835,65.6739 42.5,66.5C 37.1563,66.666 31.8229,66.4994 26.5,66C 25.1068,64.8289 24.2735,63.3289 24,61.5C 24.0655,58.422 23.8988,55.422 23.5,52.5C 22.8658,54.7724 21.5324,56.4391 19.5,57.5C 20.3366,52.8303 22.0032,48.4969 24.5,44.5C 26.2848,40.7274 29.2848,39.0607 33.5,39.5C 34.5551,34.7841 37.5551,32.1174 42.5,31.5C 42.5,30.5 42.5,29.5 42.5,28.5C 46.1545,28.0578 49.8212,27.7244 53.5,27.5 Z"/></g>
<g><path style="opacity:1" fill="#57625a" d="M 53.5,59.5 C 53.5,60.1667 53.5,60.8333 53.5,61.5C 52.1667,61.5 50.8333,61.5 49.5,61.5C 49.5,58.8333 49.5,56.1667 49.5,53.5C 47.901,53.2322 46.5676,53.5655 45.5,54.5C 44.4489,55.2223 43.7822,56.2223 43.5,57.5C 42.3509,57.7911 41.6842,58.6244 41.5,60C 41.8333,60.8333 42.1667,61.6667 42.5,62.5C 44.3361,63.0276 46.0028,63.6942 47.5,64.5C 41.6382,65.8055 39.1382,63.4721 40,57.5C 39.3292,56.7476 38.4959,56.4142 37.5,56.5C 37.0773,54.2188 37.744,52.5521 39.5,51.5C 38.7659,52.7079 38.4326,54.0413 38.5,55.5C 39.552,55.6495 40.552,55.4828 41.5,55C 43.8569,51.3228 47.1902,49.4894 51.5,49.5C 50.931,53.3293 51.5977,56.6627 53.5,59.5 Z"/></g>
<g><path style="opacity:1" fill="#4f545d" d="M 55.5,41.5 C 55.8333,41.5 56.1667,41.5 56.5,41.5C 56.5,45.8333 56.5,50.1667 56.5,54.5C 58.1667,54.5 59.8333,54.5 61.5,54.5C 64.5,54.5 67.5,54.5 70.5,54.5C 70.185,50.6286 70.5184,46.9619 71.5,43.5C 71.5,47.5 71.5,51.5 71.5,55.5C 66.1667,55.5 60.8333,55.5 55.5,55.5C 55.5,51.5 55.5,47.5 55.5,43.5C 52.8333,43.5 50.1667,43.5 47.5,43.5C 47.6107,42.8826 47.944,42.3826 48.5,42C 50.8098,41.5034 53.1432,41.3367 55.5,41.5 Z"/></g>
<g><path style="opacity:1" fill="#c93734" d="M 42.5,44.5 C 36.5902,47.3897 33.5902,52.0564 33.5,58.5C 33.8807,59.9311 34.8807,60.7645 36.5,61C 34.1902,61.4966 31.8568,61.6633 29.5,61.5C 28.1667,58.8333 28.1667,56.1667 29.5,53.5C 29.6845,50.6627 31.0178,48.6627 33.5,47.5C 36.1286,46.0402 38.6286,44.3735 41,42.5C 42.0299,42.8361 42.5299,43.5028 42.5,44.5 Z"/></g>
<g><path style="opacity:1" fill="#95373f" d="M 27.5,53.5 C 28.1667,53.5 28.8333,53.5 29.5,53.5C 28.1667,56.1667 28.1667,58.8333 29.5,61.5C 27.631,59.3647 26.9644,56.6981 27.5,53.5 Z"/></g>
<g><path style="opacity:1" fill="#58635b" d="M 85.5,55.5 C 84.6618,55.8417 84.3284,56.5084 84.5,57.5C 82.9112,54.9203 80.5779,53.587 77.5,53.5C 77.5,56.1667 77.5,58.8333 77.5,61.5C 76.1667,61.5 74.8333,61.5 73.5,61.5C 73.5,60.8333 73.5,60.1667 73.5,59.5C 75.4023,56.6627 76.069,53.3293 75.5,49.5C 79.6509,50.2091 82.9842,52.2091 85.5,55.5 Z"/></g>
<g><path style="opacity:1" fill="#ceb241" d="M 45.5,54.5 C 46.5,54.5 47.5,54.5 48.5,54.5C 48.5,57.1667 48.5,59.8333 48.5,62.5C 46.5,62.1667 44.5,61.8333 42.5,61.5C 42.4326,60.0413 42.7659,58.7079 43.5,57.5C 43.7822,56.2223 44.4489,55.2223 45.5,54.5 Z"/></g>
<g><path style="opacity:1" fill="#ad9947" d="M 45.5,54.5 C 46.5676,53.5655 47.901,53.2322 49.5,53.5C 49.5,56.1667 49.5,58.8333 49.5,61.5C 50.8333,61.5 52.1667,61.5 53.5,61.5C 60.1667,61.5 66.8333,61.5 73.5,61.5C 74.8333,61.5 76.1667,61.5 77.5,61.5C 77.5,58.8333 77.5,56.1667 77.5,53.5C 80.5779,53.587 82.9112,54.9203 84.5,57.5C 85.6664,59.166 85.6664,60.8327 84.5,62.5C 81.7617,62.8875 79.4283,63.8875 77.5,65.5C 77.1667,65.5 76.8333,65.5 76.5,65.5C 68.1799,63.8007 59.5132,62.8007 50.5,62.5C 49.7025,62.9569 49.3691,63.6236 49.5,64.5C 48.8333,64.5 48.1667,64.5 47.5,64.5C 46.0028,63.6942 44.3361,63.0276 42.5,62.5C 42.1667,61.6667 41.8333,60.8333 41.5,60C 41.6842,58.6244 42.3509,57.7911 43.5,57.5C 42.7659,58.7079 42.4326,60.0413 42.5,61.5C 44.5,61.8333 46.5,62.1667 48.5,62.5C 48.5,59.8333 48.5,57.1667 48.5,54.5C 47.5,54.5 46.5,54.5 45.5,54.5 Z"/></g>
<g><path style="opacity:1" fill="#6f7d60" d="M 53.5,59.5 C 60.1667,59.5 66.8333,59.5 73.5,59.5C 73.5,60.1667 73.5,60.8333 73.5,61.5C 66.8333,61.5 60.1667,61.5 53.5,61.5C 53.5,60.8333 53.5,60.1667 53.5,59.5 Z"/></g>
<g><path style="opacity:1" fill="#cdb142" d="M 76.5,65.5 C 67.5301,66.8081 58.5301,66.8081 49.5,65.5C 49.5,65.1667 49.5,64.8333 49.5,64.5C 49.3691,63.6236 49.7025,62.9569 50.5,62.5C 59.5132,62.8007 68.1799,63.8007 76.5,65.5 Z"/></g>
<g><path style="opacity:1" fill="#2d3b65" d="M 88.5,50.5 C 89.4959,50.4142 90.3292,50.7476 91,51.5C 91.813,53.4357 92.313,55.4357 92.5,57.5C 88.3228,56.8416 86.8228,58.5082 88,62.5C 96.9974,65.9984 100.831,62.9984 99.5,53.5C 100.117,53.6107 100.617,53.944 101,54.5C 101.498,57.4816 101.665,60.4816 101.5,63.5C 100.391,63.5569 99.391,63.8902 98.5,64.5C 94.1539,64.6657 89.8206,64.499 85.5,64C 86.435,61.6194 86.7683,59.1194 86.5,56.5C 87.791,56.7373 88.791,56.404 89.5,55.5C 89.634,53.7085 89.3007,52.0418 88.5,50.5 Z"/></g>
<g><path style="opacity:1" fill="#a3a9ba" d="M 101.5,63.5 C 101.047,64.4584 100.381,65.2917 99.5,66C 93.4187,66.1378 87.4187,66.8044 81.5,68C 80.2949,69.3756 78.9616,70.5423 77.5,71.5C 77.5,70.8333 77.5,70.1667 77.5,69.5C 78.9616,68.5423 80.2949,67.3756 81.5,66C 87.3482,65.8272 93.0149,65.3272 98.5,64.5C 99.391,63.8902 100.391,63.5569 101.5,63.5 Z"/></g>
<g><path style="opacity:1" fill="#d0d3db" d="M 269.5,71.5 C 266.864,70.193 264.197,68.8597 261.5,67.5C 253.862,66.5025 246.196,66.1692 238.5,66.5C 238.5,85.5 238.5,104.5 238.5,123.5C 238.167,123.5 237.833,123.5 237.5,123.5C 237.5,103.833 237.5,84.1667 237.5,64.5C 246.213,64.248 254.88,64.748 263.5,66C 266.253,67.1026 268.253,68.936 269.5,71.5 Z"/></g>
<g><path style="opacity:1" fill="#e1e3e8" d="M 143.5,65.5 C 143.5,73.5 143.5,81.5 143.5,89.5C 142.508,82.0182 142.175,74.3516 142.5,66.5C 141.167,66.5 139.833,66.5 138.5,66.5C 138.5,84.8333 138.5,103.167 138.5,121.5C 139.833,121.5 141.167,121.5 142.5,121.5C 142.174,112.651 142.507,103.984 143.5,95.5C 143.5,104.833 143.5,114.167 143.5,123.5C 141.167,123.5 138.833,123.5 136.5,123.5C 136.5,103.833 136.5,84.1667 136.5,64.5C 138.95,64.298 141.283,64.6314 143.5,65.5 Z"/></g>
<g><path style="opacity:1" fill="#f7f7f9" d="M 143.5,89.5 C 149.176,89.6661 154.843,89.4994 160.5,89C 161.056,88.6174 161.389,88.1174 161.5,87.5C 163.03,86.7888 164.363,85.7888 165.5,84.5C 166.49,78.69 166.823,72.69 166.5,66.5C 167.833,66.5 169.167,66.5 170.5,66.5C 170.666,73.5079 170.5,80.5079 170,87.5C 167.11,89.5961 166.943,91.5961 169.5,93.5C 171.966,94.2977 173.966,95.631 175.5,97.5C 178.291,105.828 179.291,114.495 178.5,123.5C 176.167,123.5 173.833,123.5 171.5,123.5C 171.666,116.159 171.5,108.826 171,101.5C 169.429,99.0771 167.263,97.7438 164.5,97.5C 164.167,97.5 163.833,97.5 163.5,97.5C 162.737,96.7321 161.737,96.2321 160.5,96C 154.843,95.5006 149.176,95.3339 143.5,95.5C 142.507,103.984 142.174,112.651 142.5,121.5C 141.167,121.5 139.833,121.5 138.5,121.5C 138.5,103.167 138.5,84.8333 138.5,66.5C 139.833,66.5 141.167,66.5 142.5,66.5C 142.175,74.3516 142.508,82.0182 143.5,89.5 Z"/></g>
<g><path style="opacity:1" fill="#d7dae0" d="M 173.5,84.5 C 172.069,85.9025 170.902,87.5692 170,89.5C 169.51,90.7932 169.343,92.1266 169.5,93.5C 166.943,91.5961 167.11,89.5961 170,87.5C 170.5,80.5079 170.666,73.5079 170.5,66.5C 169.167,66.5 167.833,66.5 166.5,66.5C 166.823,72.69 166.49,78.69 165.5,84.5C 165.334,78.1579 165.5,71.8246 166,65.5C 168.333,64.1667 170.667,64.1667 173,65.5C 173.5,71.8246 173.666,78.1579 173.5,84.5 Z"/></g>
<g><path style="opacity:1" fill="#606885" d="M 273.5,85.5 C 274.399,80.0049 273.066,75.3382 269.5,71.5C 268.253,68.936 266.253,67.1026 263.5,66C 254.88,64.748 246.213,64.248 237.5,64.5C 237.5,84.1667 237.5,103.833 237.5,123.5C 236.833,123.5 236.167,123.5 235.5,123.5C 235.5,103.5 235.5,83.5 235.5,63.5C 243.174,63.3336 250.841,63.5003 258.5,64C 262.609,64.6648 266.609,65.4982 270.5,66.5C 272.336,70.6727 273.669,75.006 274.5,79.5C 274.495,81.6965 274.162,83.6965 273.5,85.5 Z"/></g>
<g><path style="opacity:1" fill="#f5f6f8" d="M 269.5,71.5 C 272.605,78.6141 271.938,85.2808 267.5,91.5C 267.747,92.7133 268.414,93.38 269.5,93.5C 271.167,94.1667 272.833,94.8333 274.5,95.5C 275.167,95.5 275.5,95.8333 275.5,96.5C 276.757,98.4222 277.923,100.422 279,102.5C 279.5,109.492 279.666,116.492 279.5,123.5C 276.833,123.5 274.167,123.5 271.5,123.5C 271.666,116.159 271.5,108.826 271,101.5C 270.292,100.619 269.458,99.9528 268.5,99.5C 266.791,97.187 264.457,95.687 261.5,95C 257.179,94.501 252.846,94.3343 248.5,94.5C 248.5,93.5 248.5,92.5 248.5,91.5C 251.059,91.8016 253.393,91.4682 255.5,90.5C 258.313,90.9754 260.313,89.9754 261.5,87.5C 263.262,86.7377 264.262,85.4044 264.5,83.5C 265.841,79.514 265.508,75.514 263.5,71.5C 261.253,70.6258 258.92,70.2924 256.5,70.5C 252.434,69.178 248.267,69.178 244,70.5C 243.5,88.1635 243.333,105.83 243.5,123.5C 241.833,123.5 240.167,123.5 238.5,123.5C 238.5,104.5 238.5,85.5 238.5,66.5C 246.196,66.1692 253.862,66.5025 261.5,67.5C 264.197,68.8597 266.864,70.193 269.5,71.5 Z"/></g>
<g><path style="opacity:1" fill="#fdfdfd" d="M 295.5,66.5 C 295.5,69.5 295.5,72.5 295.5,75.5C 295.5,78.8333 295.5,82.1667 295.5,85.5C 295.5,98.1667 295.5,110.833 295.5,123.5C 293.167,123.5 290.833,123.5 288.5,123.5C 288.5,104.5 288.5,85.5 288.5,66.5C 290.833,66.5 293.167,66.5 295.5,66.5 Z"/></g>
<g><path style="opacity:1" fill="#e2e4e9" d="M 42.5,66.5 C 43.1667,66.5 43.8333,66.5 44.5,66.5C 46.8685,68.8714 48.8685,71.5381 50.5,74.5C 51.499,86.8153 51.8324,99.1487 51.5,111.5C 50.6693,100.007 50.1693,88.3405 50,76.5C 49,74.8333 48,73.1667 47,71.5C 46.51,72.7932 46.3433,74.1266 46.5,75.5C 45.4412,73.4446 43.7746,72.1112 41.5,71.5C 36.6835,70.6739 31.6835,70.1739 26.5,70C 24.5483,69.6339 22.8816,68.8005 21.5,67.5C 20.8826,67.3893 20.3826,67.056 20,66.5C 19.502,63.5184 19.3354,60.5184 19.5,57.5C 21.5324,56.4391 22.8658,54.7724 23.5,52.5C 23.8988,55.422 24.0655,58.422 24,61.5C 24.2735,63.3289 25.1068,64.8289 26.5,66C 31.8229,66.4994 37.1563,66.666 42.5,66.5 Z"/></g>
<g><path style="opacity:1" fill="#444b57" d="M 85.5,55.5 C 86.5,55.5 87.5,55.5 88.5,55.5C 88.8333,55.5 89.1667,55.5 89.5,55.5C 88.791,56.404 87.791,56.7373 86.5,56.5C 86.7683,59.1194 86.435,61.6194 85.5,64C 89.8206,64.499 94.1539,64.6657 98.5,64.5C 93.0149,65.3272 87.3482,65.8272 81.5,66C 80.2949,67.3756 78.9616,68.5423 77.5,69.5C 68.3423,68.6701 59.009,68.1701 49.5,68C 48.695,66.8873 48.0283,65.7206 47.5,64.5C 48.1667,64.5 48.8333,64.5 49.5,64.5C 49.5,64.8333 49.5,65.1667 49.5,65.5C 49.6107,66.1174 49.944,66.6174 50.5,67C 59.1667,67.6667 67.8333,67.6667 76.5,67C 77.056,66.6174 77.3893,66.1174 77.5,65.5C 79.4283,63.8875 81.7617,62.8875 84.5,62.5C 85.6664,60.8327 85.6664,59.166 84.5,57.5C 84.3284,56.5084 84.6618,55.8417 85.5,55.5 Z"/></g>
<g><path style="opacity:1" fill="#908348" d="M 49.5,65.5 C 58.5301,66.8081 67.5301,66.8081 76.5,65.5C 76.8333,65.5 77.1667,65.5 77.5,65.5C 77.3893,66.1174 77.056,66.6174 76.5,67C 67.8333,67.6667 59.1667,67.6667 50.5,67C 49.944,66.6174 49.6107,66.1174 49.5,65.5 Z"/></g>
<g><path style="opacity:1" fill="#2b375c" d="M 27.5,53.5 C 26.9644,56.6981 27.631,59.3647 29.5,61.5C 29.6107,62.1174 29.944,62.6174 30.5,63C 32.8333,63.6667 35.1667,63.6667 37.5,63C 39.4661,61.6534 39.7994,60.1534 38.5,58.5C 38.1667,57.8333 37.8333,57.1667 37.5,56.5C 38.4959,56.4142 39.3292,56.7476 40,57.5C 39.1382,63.4721 41.6382,65.8055 47.5,64.5C 48.0283,65.7206 48.695,66.8873 49.5,68C 59.009,68.1701 68.3423,68.6701 77.5,69.5C 77.5,70.1667 77.5,70.8333 77.5,71.5C 77.1667,71.5 76.8333,71.5 76.5,71.5C 75.1693,78.4682 74.5026,85.8016 74.5,93.5C 74.5003,101.008 74.8336,108.341 75.5,115.5C 73.4294,116.809 70.9294,117.475 68,117.5C 65.3097,117.497 62.8097,117.164 60.5,116.5C 60.5,116.167 60.5,115.833 60.5,115.5C 63.4815,115.818 65.8148,114.818 67.5,112.5C 71.2651,108.515 72.2651,103.849 70.5,98.5C 68.812,97.4787 67.4787,96.1454 66.5,94.5C 68.4634,90.0871 68.9634,85.4205 68,80.5C 67.2917,79.6195 66.4584,78.9528 65.5,78.5C 64.5994,76.2729 62.9328,75.2729 60.5,75.5C 60.0825,74.7784 59.4158,74.2784 58.5,74C 55.854,73.5026 53.1873,73.3359 50.5,73.5C 49.9464,69.9452 47.9464,67.6118 44.5,66.5C 43.8333,66.5 43.1667,66.5 42.5,66.5C 37.6835,65.6739 32.6835,65.1739 27.5,65C 25.4766,61.8169 24.9766,58.3169 26,54.5C 26.3826,53.944 26.8826,53.6107 27.5,53.5 Z"/></g>
<g><path style="opacity:1" fill="#ab363a" d="M 33.5,58.5 C 35.1667,58.5 36.8333,58.5 38.5,58.5C 39.7994,60.1534 39.4661,61.6534 37.5,63C 35.1667,63.6667 32.8333,63.6667 30.5,63C 29.944,62.6174 29.6107,62.1174 29.5,61.5C 31.8568,61.6633 34.1902,61.4966 36.5,61C 34.8807,60.7645 33.8807,59.9311 33.5,58.5 Z"/></g>
<g><path style="opacity:1" fill="#dfe2e7" d="M 53.5,27.5 C 55.5,27.5 57.5,27.5 59.5,27.5C 60.7997,28.1079 62.1331,28.7745 63.5,29.5C 73.308,26.1398 82.308,27.6398 90.5,34C 92.2685,38.01 95.2685,40.51 99.5,41.5C 101.087,44.2682 102.92,46.9348 105,49.5C 107.08,54.618 107.913,59.9513 107.5,65.5C 104.953,66.9336 102.619,68.6002 100.5,70.5C 94.8236,70.3339 89.1569,70.5006 83.5,71C 81.9512,72.214 80.7845,73.714 80,75.5C 79.5001,88.8292 79.3334,102.163 79.5,115.5C 78.1667,115.5 76.8333,115.5 75.5,115.5C 75.184,100.755 75.5174,86.0884 76.5,71.5C 76.8333,71.5 77.1667,71.5 77.5,71.5C 78.9616,70.5423 80.2949,69.3756 81.5,68C 87.4187,66.8044 93.4187,66.1378 99.5,66C 100.381,65.2917 101.047,64.4584 101.5,63.5C 101.665,60.4816 101.498,57.4816 101,54.5C 100.617,53.944 100.117,53.6107 99.5,53.5C 97.016,47.008 92.6827,42.008 86.5,38.5C 84.2236,36.4165 81.557,34.9165 78.5,34C 73.3797,32.0651 68.3797,32.2318 63.5,34.5C 61.2496,33.5413 58.9162,32.8747 56.5,32.5C 55.2739,32.5195 54.2739,32.8529 53.5,33.5C 50.5,34.1667 47.5,34.8333 44.5,35.5C 41.5705,36.5877 38.7372,37.921 36,39.5C 35.5,39.3333 35,39.1667 34.5,39C 35.0712,37.7949 35.7379,36.6283 36.5,35.5C 42.6345,33.5793 48.3012,30.9127 53.5,27.5 Z"/></g>
<g><path style="opacity:1" fill="#646d8b" d="M 53.5,33.5 C 54.2739,32.8529 55.2739,32.5195 56.5,32.5C 58.9162,32.8747 61.2496,33.5413 63.5,34.5C 68.3797,32.2318 73.3797,32.0651 78.5,34C 81.557,34.9165 84.2236,36.4165 86.5,38.5C 83.1893,38.0909 80.1893,36.9242 77.5,35C 73.1827,34.0188 69.1827,34.5188 65.5,36.5C 64.5,36.5 63.5,36.5 62.5,36.5C 60.0034,34.1289 57.0034,33.1289 53.5,33.5 Z"/></g>
<g><path style="opacity:1" fill="#7b839b" d="M 21.5,67.5 C 22.8816,68.8005 24.5483,69.6339 26.5,70C 31.6835,70.1739 36.6835,70.6739 41.5,71.5C 34.6491,71.991 27.9824,71.3244 21.5,69.5C 21.5,68.8333 21.5,68.1667 21.5,67.5 Z"/></g>
<g><path style="opacity:1" fill="#b9bdc9" d="M 256.5,71.5 C 256.5,71.1667 256.5,70.8333 256.5,70.5C 258.92,70.2924 261.253,70.6258 263.5,71.5C 265.508,75.514 265.841,79.514 264.5,83.5C 264.54,80.1194 264.207,76.7861 263.5,73.5C 261.167,72.8333 258.833,72.1667 256.5,71.5 Z"/></g>
<g><path style="opacity:1" fill="#303c62" d="M 107.5,65.5 C 107.249,67.1703 106.582,68.6703 105.5,70C 102.203,71.7454 98.7026,72.9121 95,73.5C 94.6667,76.1667 95.6667,76.8333 98,75.5C 98.6667,76.1667 99.3333,76.8333 100,77.5C 100.21,75.9419 100.71,74.6085 101.5,73.5C 101.171,87.6766 101.504,101.677 102.5,115.5C 102.38,116.586 101.713,117.253 100.5,117.5C 99.8333,117.167 99.1667,116.833 98.5,116.5C 99.9092,110.133 99.7425,103.799 98,97.5C 97.3292,96.7476 96.4959,96.4142 95.5,96.5C 94.791,95.596 93.791,95.2627 92.5,95.5C 92.4003,92.8915 93.0669,90.5582 94.5,88.5C 96.8883,82.6099 95.2216,78.2766 89.5,75.5C 88.8333,75.5 88.1667,75.5 87.5,75.5C 86.9935,74.1411 85.9935,73.1411 84.5,72.5C 89.9853,71.8332 95.3187,71.1665 100.5,70.5C 102.619,68.6002 104.953,66.9336 107.5,65.5 Z"/></g>
<g><path style="opacity:1" fill="#253058" d="M 256.5,71.5 C 258.833,72.1667 261.167,72.8333 263.5,73.5C 264.207,76.7861 264.54,80.1194 264.5,83.5C 264.262,85.4044 263.262,86.7377 261.5,87.5C 256.422,89.3317 251.089,89.9984 245.5,89.5C 245.334,83.8236 245.501,78.1569 246,72.5C 249.394,71.5442 252.894,71.2108 256.5,71.5 Z"/></g>
<g><path style="opacity:1" fill="#323f67" d="M 325.5,74.5 C 325.5,80.1667 325.5,85.8333 325.5,91.5C 324.183,91.179 322.849,90.8457 321.5,90.5C 319.112,92.3605 316.446,93.6939 313.5,94.5C 307.454,91.4198 301.454,88.4198 295.5,85.5C 295.5,82.1667 295.5,78.8333 295.5,75.5C 299.561,76.802 303.561,77.9687 307.5,79C 308.786,76.9777 309.786,74.8111 310.5,72.5C 309.218,70.3781 309.718,68.7115 312,67.5C 315.057,70.0719 318.557,71.4052 322.5,71.5C 322.5,72.5 322.5,73.5 322.5,74.5C 323.5,74.5 324.5,74.5 325.5,74.5 Z"/></g>
<g><path style="opacity:1" fill="#fefefe" d="M 76.5,75.5 C 77.83,81.6307 78.4966,88.1307 78.5,95C 78.1667,101.5 77.8333,108 77.5,114.5C 76.5009,101.517 76.1675,88.5171 76.5,75.5 Z"/></g>
<g><path style="opacity:1" fill="#7d859d" d="M 89.5,75.5 C 95.2216,78.2766 96.8883,82.6099 94.5,88.5C 94.9805,83.2657 93.3139,78.9323 89.5,75.5 Z"/></g>
<g><path style="opacity:1" fill="#f9fafb" d="M 51.5,111.5 C 55.3112,112.645 59.3112,112.812 63.5,112C 67.0505,108.033 68.3838,103.533 67.5,98.5C 68.6599,100.146 69.3266,101.979 69.5,104C 68.9073,106.87 68.2407,109.703 67.5,112.5C 61.3957,114.311 55.0624,114.978 48.5,114.5C 48.6666,101.829 48.4999,89.1623 48,76.5C 47.6174,75.944 47.1174,75.6107 46.5,75.5C 46.3433,74.1266 46.51,72.7932 47,71.5C 48,73.1667 49,74.8333 50,76.5C 50.1693,88.3405 50.6693,100.007 51.5,111.5 Z"/></g>
<g><path style="opacity:1" fill="#868ea2" d="M 19.5,74.5 C 19.5,74.1667 19.5,73.8333 19.5,73.5C 21.1667,73.5 22.8333,73.5 24.5,73.5C 24.5,79.5 24.5,85.5 24.5,91.5C 27.1667,91.5 29.8333,91.5 32.5,91.5C 32.5,91.8333 32.5,92.1667 32.5,92.5C 29.5,92.5 26.5,92.5 23.5,92.5C 23.5,86.5 23.5,80.5 23.5,74.5C 22.1667,74.5 20.8333,74.5 19.5,74.5 Z"/></g>
<g><path style="opacity:1" fill="#babeca" d="M 269.5,71.5 C 273.066,75.3382 274.399,80.0049 273.5,85.5C 270.942,87.4341 269.609,90.1008 269.5,93.5C 268.414,93.38 267.747,92.7133 267.5,91.5C 271.938,85.2808 272.605,78.6141 269.5,71.5 Z"/></g>
<g><path style="opacity:1" fill="#334063" d="M 86.5,79.5 C 88.9588,80.8738 89.9588,83.0405 89.5,86C 89.3333,87.5 89.1667,89 89,90.5C 88.6174,91.056 88.1174,91.3893 87.5,91.5C 85.1667,91.5 82.8333,91.5 80.5,91.5C 80.5,87.5 80.5,83.5 80.5,79.5C 82.5,79.5 84.5,79.5 86.5,79.5 Z"/></g>
<g><path style="opacity:1" fill="#58627f" d="M 65.5,78.5 C 66.4584,78.9528 67.2917,79.6195 68,80.5C 68.9634,85.4205 68.4634,90.0871 66.5,94.5C 65.9033,94.2648 65.5699,93.7648 65.5,93C 68.1271,88.1547 68.1271,83.3214 65.5,78.5 Z"/></g>
<g><path style="opacity:1" fill="#b3b7c4" d="M 256.5,70.5 C 252.563,70.2065 248.73,70.5399 245,71.5C 244.5,88.8301 244.333,106.163 244.5,123.5C 244.167,123.5 243.833,123.5 243.5,123.5C 243.333,105.83 243.5,88.1635 244,70.5C 248.267,69.178 252.434,69.178 256.5,70.5 Z"/></g>
<g><path style="opacity:1" fill="#9097aa" d="M 60.5,79.5 C 62.9223,80.6923 63.9223,82.6923 63.5,85.5C 64.0991,88.8862 62.7658,90.8862 59.5,91.5C 59.5,91.1667 59.5,90.8333 59.5,90.5C 61.7142,89.6085 62.7142,87.9418 62.5,85.5C 62.2814,83.3069 61.6148,81.3069 60.5,79.5 Z"/></g>
<g><path style="opacity:1" fill="#cfd2db" d="M 60.5,75.5 C 62.9328,75.2729 64.5994,76.2729 65.5,78.5C 68.1271,83.3214 68.1271,88.1547 65.5,93C 65.5699,93.7648 65.9033,94.2648 66.5,94.5C 67.4787,96.1454 68.812,97.4787 70.5,98.5C 72.2651,103.849 71.2651,108.515 67.5,112.5C 68.2407,109.703 68.9073,106.87 69.5,104C 69.3266,101.979 68.6599,100.146 67.5,98.5C 68.3838,103.533 67.0505,108.033 63.5,112C 59.3112,112.812 55.3112,112.645 51.5,111.5C 55.1817,111.665 58.8484,111.499 62.5,111C 63.3805,110.292 64.0472,109.458 64.5,108.5C 65.5691,105.592 65.7358,102.592 65,99.5C 64.6174,98.944 64.1174,98.6107 63.5,98.5C 60.4928,96.8255 57.1595,96.1588 53.5,96.5C 53.5,95.1667 53.5,93.8333 53.5,92.5C 55.6208,92.6747 57.6208,92.3414 59.5,91.5C 62.7658,90.8862 64.0991,88.8862 63.5,85.5C 63.9223,82.6923 62.9223,80.6923 60.5,79.5C 59.8333,79.5 59.1667,79.5 58.5,79.5C 57.0813,78.5489 55.4147,78.2155 53.5,78.5C 53.5,77.5 53.5,76.5 53.5,75.5C 55.8333,75.5 58.1667,75.5 60.5,75.5 Z"/></g>
<g><path style="opacity:1" fill="#27345b" d="M 58.5,79.5 C 59.1667,79.5 59.8333,79.5 60.5,79.5C 61.6148,81.3069 62.2814,83.3069 62.5,85.5C 62.7142,87.9418 61.7142,89.6085 59.5,90.5C 57.1667,90.5 54.8333,90.5 52.5,90.5C 52.5,86.8333 52.5,83.1667 52.5,79.5C 54.5,79.5 56.5,79.5 58.5,79.5 Z"/></g>
<g><path style="opacity:1" fill="#656e89" d="M 143.5,65.5 C 143.847,73.3875 144.847,81.0542 146.5,88.5C 151.562,88.7257 156.562,88.3924 161.5,87.5C 161.389,88.1174 161.056,88.6174 160.5,89C 154.843,89.4994 149.176,89.6661 143.5,89.5C 143.5,81.5 143.5,73.5 143.5,65.5 Z"/></g>
<g><path style="opacity:1" fill="#69728d" d="M 101.5,73.5 C 104.059,73.1984 106.393,73.5318 108.5,74.5C 108.829,88.3435 108.496,102.01 107.5,115.5C 107.667,102.163 107.5,88.8292 107,75.5C 105.989,74.6634 104.822,74.33 103.5,74.5C 103.5,88.1667 103.5,101.833 103.5,115.5C 103.167,115.5 102.833,115.5 102.5,115.5C 101.504,101.677 101.171,87.6766 101.5,73.5 Z"/></g>
<g><path style="opacity:1" fill="#d7d9e0" d="M 107.5,115.5 C 106.167,115.5 104.833,115.5 103.5,115.5C 103.5,101.833 103.5,88.1667 103.5,74.5C 104.822,74.33 105.989,74.6634 107,75.5C 107.5,88.8292 107.667,102.163 107.5,115.5 Z"/></g>
<g><path style="opacity:1" fill="#9aa0b2" d="M 135.5,63.5 C 138.698,62.9644 141.365,63.631 143.5,65.5C 141.283,64.6314 138.95,64.298 136.5,64.5C 136.5,84.1667 136.5,103.833 136.5,123.5C 135.503,103.674 135.17,83.6736 135.5,63.5 Z"/></g>
<g><path style="opacity:1" fill="#d5d7df" d="M 39.5,89.5 C 39.5,89.8333 39.5,90.1667 39.5,90.5C 38.3054,90.8656 37.6387,91.699 37.5,93C 39.3173,94.7312 41.1507,96.5646 43,98.5C 43.4994,104.157 43.6661,109.824 43.5,115.5C 42.1667,115.5 40.8333,115.5 39.5,115.5C 39.5,110.5 39.5,105.5 39.5,100.5C 40.1665,105.017 40.8331,109.683 41.5,114.5C 42.8333,109.5 42.8333,104.5 41.5,99.5C 40.4206,97.457 38.754,96.1237 36.5,95.5C 35.6143,94.675 35.281,93.675 35.5,92.5C 34.5,92.5 33.5,92.5 32.5,92.5C 32.5,92.1667 32.5,91.8333 32.5,91.5C 33.1667,91.5 33.5,91.1667 33.5,90.5C 33.8333,89.8333 34.1667,89.1667 34.5,88.5C 35.3247,84.3528 35.8247,80.0195 36,75.5C 37.0113,74.6634 38.1779,74.33 39.5,74.5C 39.5,79.5 39.5,84.5 39.5,89.5 Z"/></g>
<g><path style="opacity:1" fill="#9198ab" d="M 100.5,70.5 C 95.3187,71.1665 89.9853,71.8332 84.5,72.5C 85.9935,73.1411 86.9935,74.1411 87.5,75.5C 81.206,75.5203 80.8727,76.8536 86.5,79.5C 84.5,79.5 82.5,79.5 80.5,79.5C 80.5,83.5 80.5,87.5 80.5,91.5C 82.8333,91.5 85.1667,91.5 87.5,91.5C 85.7354,92.4614 83.7354,92.7947 81.5,92.5C 81.5,93.8333 81.5,95.1667 81.5,96.5C 84.0593,96.1984 86.3926,96.5318 88.5,97.5C 85.8333,97.5 83.1667,97.5 80.5,97.5C 80.5,103.5 80.5,109.5 80.5,115.5C 80.1667,115.5 79.8333,115.5 79.5,115.5C 79.3334,102.163 79.5001,88.8292 80,75.5C 80.7845,73.714 81.9512,72.214 83.5,71C 89.1569,70.5006 94.8236,70.3339 100.5,70.5 Z"/></g>
<g><path style="opacity:1" fill="#dbdee4" d="M 87.5,75.5 C 88.1667,75.5 88.8333,75.5 89.5,75.5C 93.3139,78.9323 94.9805,83.2657 94.5,88.5C 93.0669,90.5582 92.4003,92.8915 92.5,95.5C 93.791,95.2627 94.791,95.596 95.5,96.5C 95.7828,97.2891 96.2828,97.9558 97,98.5C 97.4994,104.157 97.6661,109.824 97.5,115.5C 96.1667,115.5 94.8333,115.5 93.5,115.5C 93.666,110.156 93.4994,104.823 93,99.5C 91.8904,97.9632 90.3904,97.2965 88.5,97.5C 86.3926,96.5318 84.0593,96.1984 81.5,96.5C 81.5,95.1667 81.5,93.8333 81.5,92.5C 83.7354,92.7947 85.7354,92.4614 87.5,91.5C 88.1174,91.3893 88.6174,91.056 89,90.5C 89.1667,89 89.3333,87.5 89.5,86C 89.9588,83.0405 88.9588,80.8738 86.5,79.5C 80.8727,76.8536 81.206,75.5203 87.5,75.5 Z"/></g>
<g><path style="opacity:1" fill="#9095aa" d="M 256.5,70.5 C 256.5,70.8333 256.5,71.1667 256.5,71.5C 252.894,71.2108 249.394,71.5442 246,72.5C 245.501,78.1569 245.334,83.8236 245.5,89.5C 251.089,89.9984 256.422,89.3317 261.5,87.5C 260.313,89.9754 258.313,90.9754 255.5,90.5C 252.833,90.5 250.167,90.5 247.5,90.5C 247.5,92.1667 247.5,93.8333 247.5,95.5C 251.514,95.3345 255.514,95.5012 259.5,96C 260.737,96.2321 261.737,96.7321 262.5,97.5C 256.87,96.7081 251.203,96.3748 245.5,96.5C 245.5,105.5 245.5,114.5 245.5,123.5C 245.167,123.5 244.833,123.5 244.5,123.5C 244.333,106.163 244.5,88.8301 245,71.5C 248.73,70.5399 252.563,70.2065 256.5,70.5 Z"/></g>
<g><path style="opacity:1" fill="#cccfd8" d="M 255.5,90.5 C 253.393,91.4682 251.059,91.8016 248.5,91.5C 248.5,92.5 248.5,93.5 248.5,94.5C 252.846,94.3343 257.179,94.501 261.5,95C 264.457,95.687 266.791,97.187 268.5,99.5C 266.5,98.8333 264.5,98.1667 262.5,97.5C 261.737,96.7321 260.737,96.2321 259.5,96C 255.514,95.5012 251.514,95.3345 247.5,95.5C 247.5,93.8333 247.5,92.1667 247.5,90.5C 250.167,90.5 252.833,90.5 255.5,90.5 Z"/></g>
<g><path style="opacity:1" fill="#586280" d="M 295.5,64.5 C 292.881,64.2317 290.381,64.565 288,65.5C 287.5,84.8305 287.333,104.164 287.5,123.5C 286.506,113.681 286.173,103.681 286.5,93.5C 286.5,83.5 286.5,73.5 286.5,63.5C 289.713,63.19 292.713,63.5233 295.5,64.5 Z"/></g>
<g><path style="opacity:1" fill="#4c5777" d="M 21.5,69.5 C 27.9824,71.3244 34.6491,71.991 41.5,71.5C 43.7746,72.1112 45.4412,73.4446 46.5,75.5C 46.1711,89.0105 46.5044,102.344 47.5,115.5C 47.5,116.5 47.5,117.5 47.5,118.5C 38.1667,118.5 28.8333,118.5 19.5,118.5C 19.5,117.5 19.5,116.5 19.5,115.5C 20.8333,115.5 22.1667,115.5 23.5,115.5C 23.3338,109.491 23.5005,103.491 24,97.5C 28.0577,96.072 31.891,96.4054 35.5,98.5C 32.1667,98.5 28.8333,98.5 25.5,98.5C 25.7904,104.561 25.4571,110.561 24.5,116.5C 27,116.833 29.5,117.167 32,117.5C 34.9294,117.475 37.4294,116.809 39.5,115.5C 40.8333,115.5 42.1667,115.5 43.5,115.5C 43.6661,109.824 43.4994,104.157 43,98.5C 41.1507,96.5646 39.3173,94.7312 37.5,93C 37.6387,91.699 38.3054,90.8656 39.5,90.5C 39.5,91.8333 39.5,93.1667 39.5,94.5C 41.5922,94.5614 43.0922,95.5614 44,97.5C 44.8315,89.8117 44.6648,82.145 43.5,74.5C 43.1312,79.9001 42.1312,84.9001 40.5,89.5C 40.5,84.1667 40.5,78.8333 40.5,73.5C 38.8333,73.5 37.1667,73.5 35.5,73.5C 32.7131,72.5233 29.7131,72.19 26.5,72.5C 26.5,78.5 26.5,84.5 26.5,90.5C 28.8333,90.5 31.1667,90.5 33.5,90.5C 33.5,91.1667 33.1667,91.5 32.5,91.5C 29.8333,91.5 27.1667,91.5 24.5,91.5C 24.5,85.5 24.5,79.5 24.5,73.5C 22.8333,73.5 21.1667,73.5 19.5,73.5C 20.2625,72.7321 21.2625,72.2321 22.5,72C 21.7476,71.3292 21.4142,70.4959 21.5,69.5 Z"/></g>
<g><path style="opacity:1" fill="#233056" d="M 35.5,73.5 C 34.5128,78.3054 34.1795,83.3054 34.5,88.5C 34.1667,89.1667 33.8333,89.8333 33.5,90.5C 31.1667,90.5 28.8333,90.5 26.5,90.5C 26.5,84.5 26.5,78.5 26.5,72.5C 29.7131,72.19 32.7131,72.5233 35.5,73.5 Z"/></g>
<g><path style="opacity:1" fill="#767e96" d="M 35.5,73.5 C 37.1667,73.5 38.8333,73.5 40.5,73.5C 40.5,78.8333 40.5,84.1667 40.5,89.5C 40.1667,89.5 39.8333,89.5 39.5,89.5C 39.5,84.5 39.5,79.5 39.5,74.5C 38.1779,74.33 37.0113,74.6634 36,75.5C 35.8247,80.0195 35.3247,84.3528 34.5,88.5C 34.1795,83.3054 34.5128,78.3054 35.5,73.5 Z"/></g>
<g><path style="opacity:1" fill="#25325a" d="M 39.5,90.5 C 39.5,90.1667 39.5,89.8333 39.5,89.5C 39.8333,89.5 40.1667,89.5 40.5,89.5C 42.1312,84.9001 43.1312,79.9001 43.5,74.5C 44.6648,82.145 44.8315,89.8117 44,97.5C 43.0922,95.5614 41.5922,94.5614 39.5,94.5C 39.5,93.1667 39.5,91.8333 39.5,90.5 Z"/></g>
<g><path style="opacity:1" fill="#717a94" d="M 44.5,66.5 C 47.9464,67.6118 49.9464,69.9452 50.5,73.5C 53.1873,73.3359 55.854,73.5026 58.5,74C 59.4158,74.2784 60.0825,74.7784 60.5,75.5C 58.1667,75.5 55.8333,75.5 53.5,75.5C 53.5,76.5 53.5,77.5 53.5,78.5C 55.4147,78.2155 57.0813,78.5489 58.5,79.5C 56.5,79.5 54.5,79.5 52.5,79.5C 52.5,83.1667 52.5,86.8333 52.5,90.5C 54.8333,90.5 57.1667,90.5 59.5,90.5C 59.5,90.8333 59.5,91.1667 59.5,91.5C 57.6208,92.3414 55.6208,92.6747 53.5,92.5C 53.5,93.8333 53.5,95.1667 53.5,96.5C 57.1595,96.1588 60.4928,96.8255 63.5,98.5C 59.8333,98.5 56.1667,98.5 52.5,98.5C 52.5,102.5 52.5,106.5 52.5,110.5C 56.7727,110.919 60.7727,110.252 64.5,108.5C 64.0472,109.458 63.3805,110.292 62.5,111C 58.8484,111.499 55.1817,111.665 51.5,111.5C 51.8324,99.1487 51.499,86.8153 50.5,74.5C 48.8685,71.5381 46.8685,68.8714 44.5,66.5 Z"/></g>
<g><path style="opacity:1" fill="#bfc3cf" d="M 295.5,64.5 C 295.5,65.1667 295.5,65.8333 295.5,66.5C 293.167,66.5 290.833,66.5 288.5,66.5C 288.5,85.5 288.5,104.5 288.5,123.5C 288.167,123.5 287.833,123.5 287.5,123.5C 287.333,104.164 287.5,84.8305 288,65.5C 290.381,64.565 292.881,64.2317 295.5,64.5 Z"/></g>
<g><path style="opacity:1" fill="#c9cdd6" d="M 46.5,75.5 C 47.1174,75.6107 47.6174,75.944 48,76.5C 48.4999,89.1623 48.6666,101.829 48.5,114.5C 55.0624,114.978 61.3957,114.311 67.5,112.5C 65.8148,114.818 63.4815,115.818 60.5,115.5C 56.1667,115.5 51.8333,115.5 47.5,115.5C 46.5044,102.344 46.1711,89.0105 46.5,75.5 Z"/></g>
<g><path style="opacity:1" fill="#2a385e" d="M 63.5,98.5 C 64.1174,98.6107 64.6174,98.944 65,99.5C 65.7358,102.592 65.5691,105.592 64.5,108.5C 60.7727,110.252 56.7727,110.919 52.5,110.5C 52.5,106.5 52.5,102.5 52.5,98.5C 56.1667,98.5 59.8333,98.5 63.5,98.5 Z"/></g>
<g><path style="opacity:1" fill="#2f3c61" d="M 88.5,97.5 C 90.3904,97.2965 91.8904,97.9632 93,99.5C 93.4994,104.823 93.666,110.156 93.5,115.5C 91.777,116.8 89.6103,117.467 87,117.5C 84.3897,117.467 82.223,116.8 80.5,115.5C 80.5,109.5 80.5,103.5 80.5,97.5C 83.1667,97.5 85.8333,97.5 88.5,97.5 Z"/></g>
<g><path style="opacity:1" fill="#788098" d="M 143.5,95.5 C 149.176,95.3339 154.843,95.5006 160.5,96C 161.737,96.2321 162.737,96.7321 163.5,97.5C 157.203,96.6803 150.869,96.347 144.5,96.5C 144.827,105.682 144.493,114.682 143.5,123.5C 143.5,114.167 143.5,104.833 143.5,95.5 Z"/></g>
<g><path style="opacity:1" fill="#1f2b55" d="M 295.5,85.5 C 301.454,88.4198 307.454,91.4198 313.5,94.5C 316.446,93.6939 319.112,92.3605 321.5,90.5C 322.849,90.8457 324.183,91.179 325.5,91.5C 325.5,106.833 325.5,122.167 325.5,137.5C 322.797,137.952 320.13,138.619 317.5,139.5C 316.888,143.82 316.222,148.153 315.5,152.5C 313.668,153.248 312.001,154.248 310.5,155.5C 309.914,155.291 309.414,154.957 309,154.5C 308.974,150.892 308.141,147.558 306.5,144.5C 305.749,145.376 305.249,146.376 305,147.5C 304.653,145.82 303.653,144.82 302,144.5C 298.862,144.362 295.695,144.362 292.5,144.5C 290.36,143.527 288.693,142.027 287.5,140C 285.421,139.192 283.421,139.359 281.5,140.5C 282.991,141.244 284.491,141.91 286,142.5C 286.454,144.536 287.287,146.37 288.5,148C 288.37,149.059 287.87,149.892 287,150.5C 282.584,150.626 278.084,150.126 273.5,149C 272.213,147.214 270.713,147.047 269,148.5C 267.437,147.898 267.604,147.065 269.5,146C 266.357,140.521 267.191,140.354 272,145.5C 272.167,144.833 272.333,144.167 272.5,143.5C 270.975,141.2 269.809,138.867 269,136.5C 269.561,135.978 270.228,135.645 271,135.5C 272.986,136.657 274.82,137.991 276.5,139.5C 279.098,138.32 280.764,136.32 281.5,133.5C 282.324,135.748 283.324,135.914 284.5,134C 283.91,132.491 283.244,130.991 282.5,129.5C 280.167,130.833 277.833,132.167 275.5,133.5C 274.532,132.511 273.365,131.844 272,131.5C 268.736,133.3 265.236,133.8 261.5,133C 261.017,129.871 259.517,127.371 257,125.5C 255.668,127.936 254.501,127.936 253.5,125.5C 255.261,122.559 257.928,120.892 261.5,120.5C 260.653,119.155 259.487,118.155 258,117.5C 257.251,109.137 256.251,108.803 255,116.5C 254.439,117.022 253.772,117.355 253,117.5C 250.784,116.399 248.784,115.066 247,113.5C 246.821,117.025 246.321,120.359 245.5,123.5C 245.5,114.5 245.5,105.5 245.5,96.5C 251.203,96.3748 256.87,96.7081 262.5,97.5C 264.5,98.1667 266.5,98.8333 268.5,99.5C 268.461,100.756 268.961,101.756 270,102.5C 270.171,109.679 270.671,116.679 271.5,123.5C 274.167,123.5 276.833,123.5 279.5,123.5C 280.655,116.345 280.822,109.012 280,101.5C 278.956,100.377 278.29,99.0441 278,97.5C 277.329,96.7476 276.496,96.4142 275.5,96.5C 275.5,95.8333 275.167,95.5 274.5,95.5C 274.181,93.2495 274.681,91.2495 276,89.5C 277.644,93.1143 279.811,93.7809 282.5,91.5C 281.588,87.7956 282.588,87.4623 285.5,90.5C 284.223,91.9217 284.557,92.9217 286.5,93.5C 286.173,103.681 286.506,113.681 287.5,123.5C 287.833,123.5 288.167,123.5 288.5,123.5C 290.833,123.5 293.167,123.5 295.5,123.5C 295.5,110.833 295.5,98.1667 295.5,85.5 Z"/></g>
<g><path style="opacity:1" fill="#283459" d="M 35.5,98.5 C 36.1667,98.8333 36.8333,99.1667 37.5,99.5C 38.0746,104.969 38.7412,110.302 39.5,115.5C 37.4294,116.809 34.9294,117.475 32,117.5C 29.5,117.167 27,116.833 24.5,116.5C 25.4571,110.561 25.7904,104.561 25.5,98.5C 28.8333,98.5 32.1667,98.5 35.5,98.5 Z"/></g>
<g><path style="opacity:1" fill="#edeef1" d="M 19.5,74.5 C 20.8333,74.5 22.1667,74.5 23.5,74.5C 23.5,80.5 23.5,86.5 23.5,92.5C 26.5,92.5 29.5,92.5 32.5,92.5C 33.5,92.5 34.5,92.5 35.5,92.5C 35.281,93.675 35.6143,94.675 36.5,95.5C 38.754,96.1237 40.4206,97.457 41.5,99.5C 42.8333,104.5 42.8333,109.5 41.5,114.5C 40.8331,109.683 40.1665,105.017 39.5,100.5C 38.8333,100.167 38.1667,99.8333 37.5,99.5C 36.8333,99.1667 36.1667,98.8333 35.5,98.5C 31.891,96.4054 28.0577,96.072 24,97.5C 23.5005,103.491 23.3338,109.491 23.5,115.5C 22.1667,115.5 20.8333,115.5 19.5,115.5C 19.5,101.833 19.5,88.1667 19.5,74.5 Z"/></g>
<g><path style="opacity:1" fill="#626c88" d="M 76.5,71.5 C 75.5174,86.0884 75.184,100.755 75.5,115.5C 74.8336,108.341 74.5003,101.008 74.5,93.5C 74.5026,85.8016 75.1693,78.4682 76.5,71.5 Z"/></g>
<g><path style="opacity:1" fill="#777f96" d="M 37.5,99.5 C 38.1667,99.8333 38.8333,100.167 39.5,100.5C 39.5,105.5 39.5,110.5 39.5,115.5C 38.7412,110.302 38.0746,104.969 37.5,99.5 Z"/></g>
<g><path style="opacity:1" fill="#c4c7d2" d="M 175.5,97.5 C 176.5,98.1667 177.5,98.8333 178.5,99.5C 179.467,107.414 179.801,115.414 179.5,123.5C 179.167,123.5 178.833,123.5 178.5,123.5C 179.291,114.495 178.291,105.828 175.5,97.5 Z"/></g>
<g><path style="opacity:1" fill="#636b87" d="M 268.5,99.5 C 269.458,99.9528 270.292,100.619 271,101.5C 271.5,108.826 271.666,116.159 271.5,123.5C 270.671,116.679 270.171,109.679 270,102.5C 268.961,101.756 268.461,100.756 268.5,99.5 Z"/></g>
<g><path style="opacity:1" fill="#5d6684" d="M 178.5,99.5 C 179.824,103.107 180.491,107.107 180.5,111.5C 180.499,115.681 180.166,119.681 179.5,123.5C 179.801,115.414 179.467,107.414 178.5,99.5 Z"/></g>
<g><path style="opacity:1" fill="#57607e" d="M 275.5,96.5 C 276.496,96.4142 277.329,96.7476 278,97.5C 278.29,99.0441 278.956,100.377 280,101.5C 280.822,109.012 280.655,116.345 279.5,123.5C 279.666,116.492 279.5,109.492 279,102.5C 277.923,100.422 276.757,98.4222 275.5,96.5 Z"/></g>
<g><path style="opacity:1" fill="#57607e" d="M 164.5,97.5 C 167.263,97.7438 169.429,99.0771 171,101.5C 171.5,108.826 171.666,116.159 171.5,123.5C 170.511,118.025 170.178,112.358 170.5,106.5C 170.657,105.127 170.49,103.793 170,102.5C 167.626,101.369 165.792,99.7019 164.5,97.5 Z"/></g>
<g><path style="opacity:1" fill="#596381" d="M 95.5,96.5 C 96.4959,96.4142 97.3292,96.7476 98,97.5C 99.7425,103.799 99.9092,110.133 98.5,116.5C 99.1667,116.833 99.8333,117.167 100.5,117.5C 101.713,117.253 102.38,116.586 102.5,115.5C 102.833,115.5 103.167,115.5 103.5,115.5C 104.833,115.5 106.167,115.5 107.5,115.5C 107.5,116.5 107.5,117.5 107.5,118.5C 88.8214,118.833 70.1548,118.5 51.5,117.5C 54.4281,116.516 57.4281,116.183 60.5,116.5C 62.8097,117.164 65.3097,117.497 68,117.5C 70.9294,117.475 73.4294,116.809 75.5,115.5C 76.8333,115.5 78.1667,115.5 79.5,115.5C 79.8333,115.5 80.1667,115.5 80.5,115.5C 82.223,116.8 84.3897,117.467 87,117.5C 89.6103,117.467 91.777,116.8 93.5,115.5C 94.8333,115.5 96.1667,115.5 97.5,115.5C 97.6661,109.824 97.4994,104.157 97,98.5C 96.2828,97.9558 95.7828,97.2891 95.5,96.5 Z"/></g>
<g><path style="opacity:1" fill="#1f2a52" d="M 235.5,123.5 C 236.167,123.5 236.833,123.5 237.5,123.5C 237.833,123.5 238.167,123.5 238.5,123.5C 240.167,123.5 241.833,123.5 243.5,123.5C 243.833,123.5 244.167,123.5 244.5,123.5C 244.833,123.5 245.167,123.5 245.5,123.5C 246.321,120.359 246.821,117.025 247,113.5C 248.784,115.066 250.784,116.399 253,117.5C 253.772,117.355 254.439,117.022 255,116.5C 256.251,108.803 257.251,109.137 258,117.5C 259.487,118.155 260.653,119.155 261.5,120.5C 257.928,120.892 255.261,122.559 253.5,125.5C 254.501,127.936 255.668,127.936 257,125.5C 259.517,127.371 261.017,129.871 261.5,133C 265.236,133.8 268.736,133.3 272,131.5C 273.365,131.844 274.532,132.511 275.5,133.5C 277.833,132.167 280.167,130.833 282.5,129.5C 283.244,130.991 283.91,132.491 284.5,134C 283.324,135.914 282.324,135.748 281.5,133.5C 280.764,136.32 279.098,138.32 276.5,139.5C 274.82,137.991 272.986,136.657 271,135.5C 270.228,135.645 269.561,135.978 269,136.5C 269.809,138.867 270.975,141.2 272.5,143.5C 272.333,144.167 272.167,144.833 272,145.5C 267.191,140.354 266.357,140.521 269.5,146C 267.604,147.065 267.437,147.898 269,148.5C 270.713,147.047 272.213,147.214 273.5,149C 278.084,150.126 282.584,150.626 287,150.5C 287.87,149.892 288.37,149.059 288.5,148C 287.287,146.37 286.454,144.536 286,142.5C 284.491,141.91 282.991,141.244 281.5,140.5C 283.421,139.359 285.421,139.192 287.5,140C 288.693,142.027 290.36,143.527 292.5,144.5C 295.695,144.362 298.862,144.362 302,144.5C 303.653,144.82 304.653,145.82 305,147.5C 305.249,146.376 305.749,145.376 306.5,144.5C 308.141,147.558 308.974,150.892 309,154.5C 309.414,154.957 309.914,155.291 310.5,155.5C 312.001,154.248 313.668,153.248 315.5,152.5C 316.222,148.153 316.888,143.82 317.5,139.5C 320.13,138.619 322.797,137.952 325.5,137.5C 325.5,144.833 325.5,152.167 325.5,159.5C 291.5,159.5 257.5,159.5 223.5,159.5C 221.657,158.717 219.657,158.05 217.5,157.5C 216.914,157.709 216.414,158.043 216,158.5C 215.316,157.216 215.483,156.049 216.5,155C 214.26,154.023 211.927,153.523 209.5,153.5C 209.752,156.932 208.419,157.932 205.5,156.5C 204.184,153.616 203.184,150.616 202.5,147.5C 201.042,151.929 198.542,152.596 195,149.5C 194.506,151.134 194.34,152.801 194.5,154.5C 192.345,154.628 190.345,154.128 188.5,153C 187.711,149.903 186.544,149.736 185,152.5C 184.023,150.26 183.523,147.927 183.5,145.5C 182.07,145.579 180.736,145.246 179.5,144.5C 177.374,147.87 175.041,147.703 172.5,144C 177.122,144.198 179.122,142.032 178.5,137.5C 177.127,137.343 175.793,137.51 174.5,138C 173.954,142.133 172.287,142.966 169.5,140.5C 166.921,141.706 164.421,143.039 162,144.5C 160.609,140.471 159.275,136.471 158,132.5C 157.333,133.167 156.667,133.833 156,134.5C 154.093,134.579 152.093,134.246 150,133.5C 149.251,132.365 149.417,131.365 150.5,130.5C 154.204,129.673 156.037,127.34 156,123.5C 158.471,119.643 161.805,118.643 166,120.5C 167.951,118.863 167.784,117.363 165.5,116C 163.19,115.503 160.857,115.337 158.5,115.5C 158.343,114.127 158.51,112.793 159,111.5C 161.077,108.641 163.577,106.308 166.5,104.5C 167.622,105.63 168.956,106.297 170.5,106.5C 170.178,112.358 170.511,118.025 171.5,123.5C 173.833,123.5 176.167,123.5 178.5,123.5C 178.833,123.5 179.167,123.5 179.5,123.5C 180.166,119.681 180.499,115.681 180.5,111.5C 180.491,107.107 179.824,103.107 178.5,99.5C 177.5,98.8333 176.5,98.1667 175.5,97.5C 173.966,95.631 171.966,94.2977 169.5,93.5C 169.343,92.1266 169.51,90.7932 170,89.5C 170.902,87.5692 172.069,85.9025 173.5,84.5C 174.491,77.6866 174.825,70.6866 174.5,63.5C 171.167,63.5 167.833,63.5 164.5,63.5C 164.666,69.8421 164.5,76.1754 164,82.5C 163.153,84.1932 162.32,85.8599 161.5,87.5C 156.562,88.3924 151.562,88.7257 146.5,88.5C 146.5,79.8333 146.5,71.1667 146.5,62.5C 144.43,62.5514 142.597,61.8847 141,60.5C 138.589,61.1273 136.089,61.1273 133.5,60.5C 135.161,56.9925 136.494,53.3258 137.5,49.5C 132.122,51.4611 130.122,49.4611 131.5,43.5C 132.675,43.719 133.675,43.3857 134.5,42.5C 133.509,41.3348 132.509,40.1681 131.5,39C 132.579,36.8448 133.913,34.8448 135.5,33C 134.333,32.5 133.5,31.6667 133,30.5C 132.51,31.7932 132.343,33.1266 132.5,34.5C 131.167,34.5 129.833,34.5 128.5,34.5C 128.5,33.1667 128.5,31.8333 128.5,30.5C 129.5,30.5 130.5,30.5 131.5,30.5C 133.199,23.4108 136.365,22.7441 141,28.5C 142.697,27.6364 143.863,26.3031 144.5,24.5C 143.159,22.1658 143.826,20.4991 146.5,19.5C 147.962,20.4709 149.295,20.1376 150.5,18.5C 153.715,18.8197 157.048,18.8197 160.5,18.5C 159.342,27.0504 161.676,28.3837 167.5,22.5C 169.578,24.9864 172.245,25.9864 175.5,25.5C 175.33,26.8221 175.663,27.9887 176.5,29C 183.38,29.0943 185.046,32.261 181.5,38.5C 183.236,41.1047 185.069,41.1047 187,38.5C 188.011,39.3366 189.178,39.67 190.5,39.5C 190.585,41.9288 191.585,43.9288 193.5,45.5C 196.305,46.254 198.972,47.254 201.5,48.5C 207.371,46.6999 208.705,48.3666 205.5,53.5C 205.403,56.9114 207.07,58.2447 210.5,57.5C 210.5,58.8333 210.5,60.1667 210.5,61.5C 213.02,60.7683 215.354,59.6017 217.5,58C 219.81,57.5034 222.143,57.3367 224.5,57.5C 224.238,58.9778 224.571,60.3112 225.5,61.5C 226.803,60.2822 227.803,60.6155 228.5,62.5C 229.876,61.1581 231.209,59.8248 232.5,58.5C 222.921,55.6169 223.255,54.4503 233.5,55C 234.711,56.1131 234.711,57.2798 233.5,58.5C 235.006,59.7472 236.506,59.7472 238,58.5C 239.487,59.1552 240.653,60.1552 241.5,61.5C 239.257,62.4742 236.924,62.8076 234.5,62.5C 234.17,83.0069 234.503,103.34 235.5,123.5 Z"/></g>
<g><path style="opacity:1" fill="#9ea3b4" d="M 227.5,99.5 C 228.117,99.6107 228.617,99.944 229,100.5C 231.409,108.986 228.909,115.32 221.5,119.5C 227.734,114.13 229.734,107.463 227.5,99.5 Z"/></g>
<g><path style="opacity:1" fill="#cdcfd9" d="M 187.5,64.5 C 195.201,64.3089 202.868,64.6423 210.5,65.5C 212.38,65.2291 213.713,65.8958 214.5,67.5C 205.907,66.1736 197.24,65.507 188.5,65.5C 188.5,84.8333 188.5,104.167 188.5,123.5C 188.167,123.5 187.833,123.5 187.5,123.5C 187.5,103.833 187.5,84.1667 187.5,64.5 Z"/></g>
<g><path style="opacity:1" fill="#4f5778" d="M 223.5,85.5 C 223.038,87.7567 222.038,89.7567 220.5,91.5C 222.421,92.3239 223.754,93.6572 224.5,95.5C 222.833,94.8333 221.167,94.1667 219.5,93.5C 219.609,90.1008 220.942,87.4341 223.5,85.5 Z"/></g>
<g><path style="opacity:1" fill="#565e7d" d="M 207.5,63.5 C 200.646,63.176 193.979,63.5093 187.5,64.5C 187.5,84.1667 187.5,103.833 187.5,123.5C 186.168,113.856 185.501,103.856 185.5,93.5C 185.667,83.5 185.833,73.5 186,63.5C 193.265,62.1732 200.432,62.1732 207.5,63.5 Z"/></g>
<g><path style="opacity:1" fill="#b4b8c5" d="M 214.5,67.5 C 217.624,67.9429 219.957,69.6095 221.5,72.5C 223.281,76.6259 223.948,80.9592 223.5,85.5C 220.942,87.4341 219.609,90.1008 219.5,93.5C 218.414,93.38 217.747,92.7133 217.5,91.5C 223.703,82.4558 222.703,74.4558 214.5,67.5 Z"/></g>
<g><path style="opacity:1" fill="#f3f4f6" d="M 214.5,67.5 C 222.703,74.4558 223.703,82.4558 217.5,91.5C 217.747,92.7133 218.414,93.38 219.5,93.5C 221.167,94.1667 222.833,94.8333 224.5,95.5C 226.262,96.2623 227.262,97.5956 227.5,99.5C 229.734,107.463 227.734,114.13 221.5,119.5C 219.076,120.983 216.409,122.15 213.5,123C 205.173,123.5 196.84,123.666 188.5,123.5C 188.5,104.167 188.5,84.8333 188.5,65.5C 197.24,65.507 205.907,66.1736 214.5,67.5 Z"/></g>
<g><path style="opacity:1" fill="#495172" d="M 214.5,97.5 C 221.147,99.3188 223.314,103.652 221,110.5C 219.951,112.384 218.451,113.718 216.5,114.5C 215.942,115.79 214.942,116.623 213.5,117C 207.509,117.499 201.509,117.666 195.5,117.5C 195.5,117.167 195.5,116.833 195.5,116.5C 195.5,109.833 195.5,103.167 195.5,96.5C 201.869,96.347 208.203,96.6803 214.5,97.5 Z"/></g>
<g><path style="opacity:1" fill="#1e2852" d="M 216.5,114.5 C 209.984,116.269 203.317,116.936 196.5,116.5C 196.5,110.5 196.5,104.5 196.5,98.5C 203.996,98.0619 211.33,98.7286 218.5,100.5C 220.153,105.527 219.486,110.193 216.5,114.5 Z"/></g>
<g><path style="opacity:1" fill="#888ea3" d="M 197.5,95.5 C 202.844,95.334 208.177,95.5006 213.5,96C 214.056,96.3826 214.389,96.8826 214.5,97.5C 208.203,96.6803 201.869,96.347 195.5,96.5C 195.5,103.167 195.5,109.833 195.5,116.5C 194.509,109.687 194.175,102.687 194.5,95.5C 195.5,95.5 196.5,95.5 197.5,95.5 Z"/></g>
<g><path style="opacity:1" fill="#b9bdc9" d="M 194.5,71.5 C 194.177,77.69 194.51,83.69 195.5,89.5C 201.089,89.9984 206.422,89.3317 211.5,87.5C 211.196,88.1499 210.863,88.8165 210.5,89.5C 206.217,90.4922 201.884,90.8256 197.5,90.5C 197.5,92.1667 197.5,93.8333 197.5,95.5C 196.5,95.5 195.5,95.5 194.5,95.5C 194.175,102.687 194.509,109.687 195.5,116.5C 195.5,116.833 195.5,117.167 195.5,117.5C 194.169,110.197 193.502,102.53 193.5,94.5C 193.5,86.6592 193.834,78.9926 194.5,71.5 Z"/></g>
<g><path style="opacity:1" fill="#b3b7c5" d="M 213.5,73.5 C 214.15,73.8039 214.817,74.1373 215.5,74.5C 216.657,77.7844 216.824,81.1177 216,84.5C 215.092,86.4386 213.592,87.4386 211.5,87.5C 214.615,83.2525 215.282,78.5858 213.5,73.5 Z"/></g>
<g><path style="opacity:1" fill="#242e57" d="M 207.5,71.5 C 209.5,72.1667 211.5,72.8333 213.5,73.5C 215.282,78.5858 214.615,83.2525 211.5,87.5C 206.422,89.3317 201.089,89.9984 195.5,89.5C 195.334,83.8236 195.501,78.1569 196,72.5C 199.73,71.5399 203.563,71.2065 207.5,71.5 Z"/></g>
<g><path style="opacity:1" fill="#82889f" d="M 207.5,71.5 C 203.563,71.2065 199.73,71.5399 196,72.5C 195.501,78.1569 195.334,83.8236 195.5,89.5C 194.51,83.69 194.177,77.69 194.5,71.5C 194.611,70.8826 194.944,70.3826 195.5,70C 197.5,69.8333 199.5,69.6667 201.5,69.5C 203.952,69.5391 205.952,70.2057 207.5,71.5 Z"/></g>
<g><path style="opacity:1" fill="#626b86" d="M 173.5,84.5 C 173.666,78.1579 173.5,71.8246 173,65.5C 170.667,64.1667 168.333,64.1667 166,65.5C 165.5,71.8246 165.334,78.1579 165.5,84.5C 164.363,85.7888 163.03,86.7888 161.5,87.5C 162.32,85.8599 163.153,84.1932 164,82.5C 164.5,76.1754 164.666,69.8421 164.5,63.5C 167.833,63.5 171.167,63.5 174.5,63.5C 174.825,70.6866 174.491,77.6866 173.5,84.5 Z"/></g>
<g><path style="opacity:1" fill="#7a829a" d="M 187.5,64.5 C 193.979,63.5093 200.646,63.176 207.5,63.5C 208.5,64.1667 209.5,64.8333 210.5,65.5C 202.868,64.6423 195.201,64.3089 187.5,64.5 Z"/></g>
<g><path style="opacity:1" fill="#81899e" d="M 47.5,115.5 C 51.8333,115.5 56.1667,115.5 60.5,115.5C 60.5,115.833 60.5,116.167 60.5,116.5C 57.4281,116.183 54.4281,116.516 51.5,117.5C 70.1548,118.5 88.8214,118.833 107.5,118.5C 107.5,118.833 107.5,119.167 107.5,119.5C 78.1667,119.5 48.8333,119.5 19.5,119.5C 19.5,119.167 19.5,118.833 19.5,118.5C 28.8333,118.5 38.1667,118.5 47.5,118.5C 47.5,117.5 47.5,116.5 47.5,115.5 Z"/></g>
<g><path style="opacity:1" fill="#d5d7de" d="M 19.5,120.5 C 19.5,120.167 19.5,119.833 19.5,119.5C 48.8333,119.5 78.1667,119.5 107.5,119.5C 107.768,121.099 107.434,122.432 106.5,123.5C 106.5,122.5 106.5,121.5 106.5,120.5C 77.5,120.5 48.5,120.5 19.5,120.5 Z"/></g>
<g><path style="opacity:1" fill="#fefffe" d="M 19.5,120.5 C 48.5,120.5 77.5,120.5 106.5,120.5C 106.5,121.5 106.5,122.5 106.5,123.5C 77.5,123.5 48.5,123.5 19.5,123.5C 19.5,122.5 19.5,121.5 19.5,120.5 Z"/></g>
</svg>
