<svg xmlns="http://www.w3.org/2000/svg" width="314" height="320" style="shape-rendering:geometricPrecision;text-rendering:geometricPrecision;image-rendering:optimizeQuality;fill-rule:evenodd;clip-rule:evenodd"><path style="opacity:1" fill="#fefefe" d="M-.5-.5h314v320H-.5V-.5z"/><path style="opacity:1" fill="#454545" d="M120.5 27.5h-67v24c-.993-8.15-1.326-16.483-1-25 22.84-.33 45.506.003 68 1z"/><path style="opacity:1" fill="#0a0a0a" d="M120.5 198.5c1 2.667 2 2.667 3 0a54.912 54.912 0 0 1 7-7c1.406-.473 2.073-1.473 2-3 1.667-1 3-2.333 4-4 0-.667.333-1 1-1 3.734-2.731 6.734-6.064 9-10a155.934 155.934 0 0 1 16-18c2.087-1.085 3.42-2.751 4-5 .333-1 1-1.667 2-2 5.912.743 8.579-2.257 8-9l1-2c1.694-1.027 3.027-2.361 4-4 1.406-.473 2.073-1.473 2-3a9359.98 9359.98 0 0 1 10-11 34.832 34.832 0 0 1 7-7c2.087-1.085 3.42-2.751 4-5 1-1.667 2.333-3 4-4 2.087-1.085 3.42-2.751 4-5a342.838 342.838 0 0 1 37 1 279.408 279.408 0 0 0-18 22 34.807 34.807 0 0 0-7 7c-4.074 2.745-7.074 6.412-9 11-.996-.086-1.829.248-2.5 1a30.137 30.137 0 0 0-3.5 6c0 .667-.333 1-1 1-2 0-3 1-3 3-1.406.473-2.073 1.473-2 3-3 1-5 3-6 6-5.607 4.575-10.274 9.909-14 16-2.414 1.411-4.081 3.411-5 6-.904.709-1.237 1.709-1 3 .58 2.249 1.913 3.915 4 5-.073 1.527.594 2.527 2 3-.073 1.527.594 2.527 2 3-.073 1.527.594 2.527 2 3l1 2c0 2 1 3 3 3a5.727 5.727 0 0 0 1 3c.238 1.904 1.238 3.238 3 4h1a8.43 8.43 0 0 0 .5 4 35.882 35.882 0 0 0 8.5 10l1 2c.238 1.904 1.238 3.238 3 4l1 2c1.126 4.454 3.459 8.121 7 11l3 2c-.172.992.162 1.658 1 2a5.727 5.727 0 0 0 1 3 190.113 190.113 0 0 0 13 19l2 1v1a46.428 46.428 0 0 1 3.5 7c.671.752 1.504 1.086 2.5 1-.073 1.527.594 2.527 2 3-.073 1.527.594 2.527 2 3 .081 3.013 1.414 5.013 4 6 .58 2.249 1.913 3.915 4 5v1a5.576 5.576 0 0 0 1 3 289.882 289.882 0 0 1-34 1l-3-2a5.727 5.727 0 0 0-1-3c.073-1.527-.594-2.527-2-3-.238-1.904-1.238-3.238-3-4 .073-1.527-.594-2.527-2-3-.58-2.249-1.913-3.915-4-5 .073-1.527-.594-2.527-2-3 .073-1.527-.594-2.527-2-3 .073-1.527-.594-2.527-2-3-.838-.342-1.172-1.008-1-2-.238-1.904-1.238-3.238-3-4 .073-1.527-.594-2.527-2-3 0-1.333-.667-2-2-2a5.727 5.727 0 0 0-1-3c.073-1.527-.594-2.527-2-3 .032-2.119-.968-3.452-3-4-.432-1.21-1.099-2.21-2-3-.238-1.904-1.238-3.238-3-4h-1c.073-1.527-.594-2.527-2-3 .073-1.527-.594-2.527-2-3-.233-1.562-.9-2.895-2-4 .073-1.527-.594-2.527-2-3 0-1.333-.667-2-2-2-.225-3.046-1.558-5.379-4-7 .073-1.527-.594-2.527-2-3 .073-1.527-.594-2.527-2-3-.58-2.249-1.913-3.915-4-5 .172-.992-.162-1.658-1-2 .082-1.752-.751-2.752-2.5-3-1.749.248-2.582 1.248-2.5 3-5.064 3.733-9.064 8.399-12 14a26.175 26.175 0 0 0-7 5 44.684 44.684 0 0 1-7 3 103.043 103.043 0 0 1-19 1c-.342-.838-1.008-1.172-2-1h-2c-.473-1.406-1.473-2.073-3-2v-1c-.321-1.548-1.321-2.215-3-2 .215-1.679-.452-2.679-2-3l-3-2c.073-1.527-.594-2.527-2-3v-1c.073-1.527-.594-2.527-2-3v-9c.167-51.334 0-102.668-.5-154a302.66 302.66 0 0 0-34.5-1v-22h65a7227.487 7227.487 0 0 0 1 170z"/><path style="opacity:1" fill="#ccc" d="M121.5 25.5a14064.52 14064.52 0 0 1 1.5 168c.671.752 1.504 1.086 2.5 1-1.1 1.105-1.767 2.438-2 4a3655.854 3655.854 0 0 1-2-171v-2z"/><path style="opacity:1" fill="#848484" d="M51.5 25.5h70v2h-1c-22.494-.997-45.16-1.33-68-1-.326 8.517.007 16.85 1 25l34 2c-11.671.166-23.338 0-35-.5a193.29 193.29 0 0 1-1-27.5z"/><path style="opacity:1" fill="#d0d0d0" d="M51.5 25.5a193.29 193.29 0 0 0 1 27.5c11.662.5 23.329.666 35 .5v157a6084.914 6084.914 0 0 1-1-156c-11.671.166-23.338 0-35-.5-1.328-9.598-1.328-19.098 0-28.5z"/><path style="opacity:1" fill="#696969" d="M120.5 27.5h1a3655.854 3655.854 0 0 0 2 171c-1 2.667-2 2.667-3 0v-171z"/><path style="opacity:1" fill="#5b5b5b" d="m87.5 53.5 2 152v9l-2-4v-157z"/><path style="opacity:1" fill="#232323" d="M120.5 27.5v171a7227.487 7227.487 0 0 1-1-170h-65v22a302.66 302.66 0 0 1 34.5 1c.5 51.332.667 102.666.5 154l-2-152-34-2v-24h67z"/><path style="opacity:1" fill="#e0e0e0" d="m248.5 103.5 3-4c.934-1.068 1.268-2.401 1-4a380.848 380.848 0 0 0-39 1h-2c13.989-1.704 28.322-2.704 43-3 2.782.359 3.448 1.692 2 4a4.458 4.458 0 0 1-1.5-2c-.537 4.033-2.704 6.7-6.5 8z"/><path style="opacity:1" fill="#969696" d="M213.5 96.5a380.848 380.848 0 0 1 39-1c.268 1.599-.066 2.932-1 4v-3h-38z"/><path style="opacity:1" fill="#595959" d="M213.5 97.5v-1h38v3h-1c-11.955-1.98-24.288-2.646-37-2z"/><path style="opacity:1" fill="#242424" d="M212.5 98.5c0-.667.333-1 1-1 12.712-.646 25.045.02 37 2h-1a342.838 342.838 0 0 0-37-1z"/><path style="opacity:1" fill="#383838" d="M212.5 98.5c-.58 2.249-1.913 3.915-4 5 .58-2.249 1.913-3.915 4-5z"/><path style="opacity:1" fill="#757575" d="M249.5 99.5h2l-3 4a25.913 25.913 0 0 0-8 9 57.508 57.508 0 0 1-9 9 279.408 279.408 0 0 1 18-22z"/><path style="opacity:1" fill="#919191" d="M211.5 96.5h2v1c-.667 0-1 .333-1 1-2.087 1.085-3.42 2.751-4 5-1.667 1-3 2.333-4 4h-1a105.639 105.639 0 0 1 8-11z"/><path style="opacity:1" fill="#353535" d="M203.5 107.5h1c-.58 2.249-1.913 3.915-4 5a11.743 11.743 0 0 1 3-5z"/><path style="opacity:1" fill="#e0e0e0" d="M248.5 103.5c-.531 2.044-1.698 3.711-3.5 5a8.43 8.43 0 0 0-.5 4h-4a25.913 25.913 0 0 1 8-9z"/><path style="opacity:1" fill="#838383" d="M203.5 107.5a11.743 11.743 0 0 0-3 5 34.832 34.832 0 0 0-7 7c1.524-3.702 3.69-7.036 6.5-10 .816-1.323 1.983-1.989 3.5-2z"/><path style="opacity:1" fill="#818181" d="M193.5 119.5a9359.98 9359.98 0 0 0-10 11c.233-1.562.9-2.895 2-4 2.069-3.073 4.736-5.406 8-7z"/><path style="opacity:1" fill="#d0d0d0" d="M185.5 126.5c-1.1 1.105-1.767 2.438-2 4l-2 1a20.69 20.69 0 0 0 1-5h3z"/><path style="opacity:1" fill="#626262" d="M224.5 128.5a5.727 5.727 0 0 0-1 3 30.564 30.564 0 0 0-7 8h-1c1.926-4.588 4.926-8.255 9-11z"/><path style="opacity:1" fill="#9b9b9b" d="m231.5 121.5-7 10h-1a5.727 5.727 0 0 1 1-3 34.807 34.807 0 0 1 7-7z"/><path style="opacity:1" fill="#505050" d="M183.5 130.5c.073 1.527-.594 2.527-2 3v-2l2-1z"/><path style="opacity:1" fill="#ddd" d="M223.5 131.5h1c-1.348 4.015-4.015 6.681-8 8a30.564 30.564 0 0 1 7-8z"/><path style="opacity:1" fill="#737373" d="M181.5 131.5v2c-.973 1.639-2.306 2.973-4 4 .84-2.353 2.174-4.353 4-6z"/><path style="opacity:1" fill="#888" d="m177.5 137.5-1 2-3 2c.333-2.333 1.667-3.667 4-4z"/><path style="opacity:1" fill="#8d8d8d" d="M173.5 141.5c-.333 1-1 1.667-2 2 0-1.333.667-2 2-2z"/><path style="opacity:1" fill="#1b1b1b" d="M176.5 139.5c.579 6.743-2.088 9.743-8 9a18.924 18.924 0 0 1 3-5c1-.333 1.667-1 2-2l3-2z"/><path style="opacity:1" fill="#7a7a7a" d="M215.5 139.5c-1.3 2.932-3.3 5.266-6 7a30.137 30.137 0 0 1 3.5-6c.671-.752 1.504-1.086 2.5-1z"/><path style="opacity:1" fill="#646464" d="M208.5 147.5a6.547 6.547 0 0 1-3 3c0-2 1-3 3-3z"/><path style="opacity:1" fill="#828282" d="M205.5 150.5c.073 1.527-.594 2.527-2 3-.073-1.527.594-2.527 2-3z"/><path style="opacity:1" fill="#373737" d="M166.5 150.5c-.58 2.249-1.913 3.915-4 5 .58-2.249 1.913-3.915 4-5z"/><path style="opacity:1" fill="#6a6a6a" d="M203.5 153.5a25.658 25.658 0 0 1-6 6c1-3 3-5 6-6z"/><path style="opacity:1" fill="#696969" d="m197.5 159.5-7 10a25.658 25.658 0 0 0-6 6h-1c3.726-6.091 8.393-11.425 14-16z"/><path style="opacity:1" fill="#cecece" d="M190.5 169.5c-1 3-3 5-6 6a25.658 25.658 0 0 1 6-6z"/><path style="opacity:1" fill="#919191" d="M171.5 143.5a18.924 18.924 0 0 0-3 5c-1 .333-1.667 1-2 2-2.087 1.085-3.42 2.751-4 5a155.934 155.934 0 0 0-16 18c-3.734 2.731-6.734 6.064-9 10-.667 0-1 .333-1 1h-1a10.134 10.134 0 0 1 1.5-4 643.908 643.908 0 0 0 32-36c.671-.752 1.504-1.086 2.5-1z"/><path style="opacity:1" fill="#2e2e2e" d="M146.5 173.5c-2.266 3.936-5.266 7.269-9 10 2.266-3.936 5.266-7.269 9-10z"/><path style="opacity:1" fill="#858585" d="M183.5 175.5a17.902 17.902 0 0 1-4 6h-1c.919-2.589 2.586-4.589 5-6z"/><path style="opacity:1" fill="#adadad" d="M178.5 181.5h1c.204 2.185.87 4.185 2 6l-4-3c-.237-1.291.096-2.291 1-3z"/><path style="opacity:1" fill="#5b5b5b" d="M135.5 184.5h1c-1 1.667-2.333 3-4 4v-1a6.547 6.547 0 0 1 3-3z"/><path style="opacity:1" fill="#515151" d="m177.5 184.5 4 3v2c-2.087-1.085-3.42-2.751-4-5z"/><path style="opacity:1" fill="#404040" d="M132.5 188.5c.073 1.527-.594 2.527-2 3-.073-1.527.594-2.527 2-3z"/><path style="opacity:1" fill="#595959" d="m181.5 189.5 2 1v2c-1.406-.473-2.073-1.473-2-3z"/><path style="opacity:1" fill="#858585" d="M132.5 187.5v1c-1.406.473-2.073 1.473-2 3a54.912 54.912 0 0 0-7 7c.233-1.562.9-2.895 2-4 2.075-2.742 4.409-5.076 7-7z"/><path style="opacity:1" fill="#c2c1c2" d="M183.5 190.5c2.534 1.134 3.867 3.134 4 6l-2-1c.073-1.527-.594-2.527-2-3v-2z"/><path style="opacity:1" fill="#535353" d="M183.5 192.5c1.406.473 2.073 1.473 2 3-1.406-.473-2.073-1.473-2-3z"/><path style="opacity:1" fill="#505050" d="m185.5 195.5 2 1v2c-1.406-.473-2.073-1.473-2-3z"/><path style="opacity:1" fill="#9a9a9a" d="M187.5 196.5c1.39 1.399 2.39 3.066 3 5l-2-1-1-2v-2z"/><path style="opacity:1" fill="#484848" d="m188.5 200.5 2 1c.838.342 1.172 1.008 1 2-2 0-3-1-3-3z"/><path style="opacity:1" fill="#707070" d="M191.5 203.5h1c.61.891.943 1.891 1 3h-1a5.727 5.727 0 0 1-1-3z"/><path style="opacity:1" fill="#676767" d="M158.5 209.5c-1.667-1.333-3.333-1.333-5 0-.082-1.752.751-2.752 2.5-3 1.749.248 2.582 1.248 2.5 3z"/><path style="opacity:1" fill="#3b3b3b" d="M192.5 206.5h1c1.1 1.105 1.767 2.438 2 4-1.762-.762-2.762-2.096-3-4z"/><path style="opacity:1" fill="#c7c7c7" d="M192.5 203.5c1.235.221 2.235.888 3 2 2.177 3.149 3.843 6.482 5 10-2.039-1.172-3.372-2.838-4-5h-1c-.233-1.562-.9-2.895-2-4a5.727 5.727 0 0 0-1-3z"/><path style="opacity:1" fill="#7f7f7f" d="M153.5 209.5a120.776 120.776 0 0 1-12 14c2.936-5.601 6.936-10.267 12-14z"/><path style="opacity:1" fill="#434343" d="M196.5 210.5c.628 2.162 1.961 3.828 4 5 .844 3.178 2.511 5.845 5 8v1a35.882 35.882 0 0 1-8.5-10 8.43 8.43 0 0 1-.5-4z"/><path style="opacity:1" fill="#d1d1d1" d="M158.5 209.5c.838.342 1.172 1.008 1 2 .58 2.249 1.913 3.915 4 5v2h-3c-1.276-2.836-1.942-5.836-2-9z"/><path style="opacity:1" fill="#6d6d6d" d="M159.5 211.5c2.087 1.085 3.42 2.751 4 5-2.087-1.085-3.42-2.751-4-5z"/><path style="opacity:1" fill="#686868" d="M89.5 214.5c1.406.473 2.073 1.473 2 3l-2-1v-2z"/><path style="opacity:1" fill="#595959" d="M163.5 216.5c1.406.473 2.073 1.473 2 3l-2-1v-2z"/><path style="opacity:1" fill="#797979" d="M91.5 218.5c1.406.473 2.073 1.473 2 3-1.406-.473-2.073-1.473-2-3z"/><path style="opacity:1" fill="#b8b8b8" d="m163.5 218.5 2 1v2c-1.406-.473-2.073-1.473-2-3z"/><path style="opacity:1" fill="#ccc" d="m89.5 216.5 2 1v1c-.073 1.527.594 2.527 2 3v2c-3.018-1.355-4.351-3.688-4-7z"/><path style="opacity:1" fill="#606060" d="M165.5 219.5c1.406.473 2.073 1.473 2 3l-2-1v-2z"/><path style="opacity:1" fill="#e4e4e4" d="M200.5 215.5c6.392 2.873 9.725 7.539 10 14h-1l-2-3c.073-1.527-.594-2.527-2-3-2.489-2.155-4.156-4.822-5-8z"/><path style="opacity:1" fill="#757575" d="m93.5 221.5 3 2c.61.891.943 1.891 1 3l-4-3v-2z"/><path style="opacity:1" fill="#888" d="M205.5 223.5c1.406.473 2.073 1.473 2 3h-1l-1-2v-1z"/><path style="opacity:1" fill="#2d2d2d" d="M96.5 223.5c1.548.321 2.215 1.321 2 3 1.679-.215 2.679.452 3 2a5.727 5.727 0 0 0-3-1c-.667 0-1-.333-1-1a5.728 5.728 0 0 0-1-3z"/><path style="opacity:1" fill="#858585" d="M141.5 223.5a25.619 25.619 0 0 1-6 6h-1v-1a26.175 26.175 0 0 1 7-5z"/><path style="opacity:1" fill="#828282" d="M98.5 227.5a5.727 5.727 0 0 1 3 1v1c-1.527.073-2.527-.594-3-2z"/><path style="opacity:1" fill="#434343" d="M206.5 226.5h1l2 3v1c-1.762-.762-2.762-2.096-3-4z"/><path style="opacity:1" fill="#838383" d="M167.5 222.5c2.442 1.621 3.775 3.954 4 7-1.699-2.066-3.032-4.4-4-7z"/><path style="opacity:1" fill="#818181" d="M101.5 230.5v-1c1.527-.073 2.527.594 3 2a5.727 5.727 0 0 1-3-1z"/><path style="opacity:1" fill="#5e5e5e" d="M134.5 228.5v1a62.913 62.913 0 0 1-8 4l1-2a44.684 44.684 0 0 0 7-3z"/><path style="opacity:1" fill="#dedede" d="m165.5 221.5 2 1c.968 2.6 2.301 4.934 4 7v2c-2.11-.953-3.277-2.619-3.5-5-.893 1.211-1.726 1.211-2.5 0 1.035-1.628 1.035-3.295 0-5z"/><path style="opacity:1" fill="#7b7b7b" d="M171.5 229.5c1.333 0 2 .667 2 2h-2v-2z"/><path style="opacity:1" fill="#888" d="M209.5 229.5h1c.61.891.943 1.891 1 3h-1l-1-2v-1z"/><path style="opacity:1" fill="#e0e0e0" d="M210.5 229.5c3.269 1.06 4.935 3.393 5 7l-2-1-2-3a5.727 5.727 0 0 0-1-3z"/><path style="opacity:1" fill="#8b8b8b" d="M106.5 231.5c.992-.172 1.658.162 2 1v1c-1.333 0-2-.667-2-2z"/><path style="opacity:1" fill="#353535" d="m127.5 231.5-1 2h-18v-1c6.392.251 12.725-.082 19-1z"/><path style="opacity:1" fill="#717171" d="M173.5 231.5c1.406.473 2.073 1.473 2 3-1.406-.473-2.073-1.473-2-3z"/><path style="opacity:1" fill="#a5a5a5" d="M134.5 229.5h1a23.87 23.87 0 0 1-6 5 183.38 183.38 0 0 0-11 1c-3.285.053-6.285-.614-9-2h17a62.913 62.913 0 0 0 8-4z"/><path style="opacity:1" fill="#e7e8e8" d="M101.5 230.5c.891.61 1.891.943 3 1h2c0 1.333.667 2 2 2h1c2.715 1.386 5.715 2.053 9 2a183.38 183.38 0 0 1 11-1c-4.06 1.517-8.393 2.184-13 2l-9-1a164.315 164.315 0 0 1-6-5z"/><path style="opacity:1" fill="#dbdbdb" d="M172.5 231.5h1c-.073 1.527.594 2.527 2 3 1.1 1.105 1.767 2.438 2 4-3.816-.59-5.483-2.923-5-7z"/><path style="opacity:1" fill="#7e7e7e" d="m213.5 235.5 2 1c.61.891.943 1.891 1 3-1.762-.762-2.762-2.096-3-4z"/><path style="opacity:1" fill="#a6a6a6" d="M177.5 238.5c1.406.473 2.073 1.473 2 3-1.406-.473-2.073-1.473-2-3z"/><path style="opacity:1" fill="#3d3d3d" d="M210.5 232.5h1l2 3c.238 1.904 1.238 3.238 3 4 .838.342 1.172 1.008 1 2v2c-3.541-2.879-5.874-6.546-7-11z"/><path style="opacity:1" fill="#acacac" d="M179.5 241.5c1.406.473 2.073 1.473 2 3-1.406-.473-2.073-1.473-2-3z"/><path style="opacity:1" fill="#838383" d="M217.5 241.5a6.547 6.547 0 0 1 3 3v1l-3-2v-2z"/><path style="opacity:1" fill="#d4d4d4" d="M220.5 244.5a5.576 5.576 0 0 1 3 1c2.105 2.647 3.439 5.647 4 9a10.165 10.165 0 0 1-3-3c-.238-1.904-1.238-3.238-3-4-.838-.342-1.172-1.008-1-2v-1z"/><path style="opacity:1" fill="#656565" d="M182.5 244.5c1.762.762 2.762 2.096 3 4-1.762-.762-2.762-2.096-3-4z"/><path style="opacity:1" fill="#737373" d="M221.5 247.5c1.762.762 2.762 2.096 3 4l-2-1a5.727 5.727 0 0 1-1-3z"/><path style="opacity:1" fill="#bdbdbd" d="M181.5 244.5h1c.238 1.904 1.238 3.238 3 4v2c-2.825-.978-4.158-2.978-4-6z"/><path style="opacity:1" fill="#626262" d="M185.5 248.5c.901.79 1.568 1.79 2 3h-1c-.667 0-1-.333-1-1v-2z"/><path style="opacity:1" fill="#3d3d3d" d="m222.5 250.5 2 1a10.165 10.165 0 0 0 3 3c.461 2.803 1.795 5.137 4 7 .238 1.904 1.238 3.238 3 4 .838.342 1.172 1.008 1 2v2a190.113 190.113 0 0 1-13-19z"/><path style="opacity:1" fill="#383838" d="M187.5 251.5c2.032.548 3.032 1.881 3 4a8.941 8.941 0 0 1-3-4z"/><path style="opacity:1" fill="#d7d7d7" d="M186.5 251.5h1a8.941 8.941 0 0 0 3 4v4c-.996.086-1.829-.248-2.5-1a17.758 17.758 0 0 1-1.5-7z"/><path style="opacity:1" fill="#4b4b4b" d="M190.5 255.5c1.406.473 2.073 1.473 2 3l-2-1v-2z"/><path style="opacity:1" fill="#e0e0e0" d="M227.5 254.5a508.064 508.064 0 0 1 6 4c-.863 1.226-.863 2.56 0 4l-2-1c-2.205-1.863-3.539-4.197-4-7z"/><path style="opacity:1" fill="#9b9b9b" d="m190.5 257.5 2 1c.61.891.943 1.891 1 3l-3-2v-2z"/><path style="opacity:1" fill="#7a7a7a" d="M193.5 261.5c1.333 0 2 .667 2 2-1.333 0-2-.667-2-2z"/><path style="opacity:1" fill="#8c8c8c" d="m231.5 261.5 2 1c.61.891.943 1.891 1 3-1.762-.762-2.762-2.096-3-4z"/><path style="opacity:1" fill="#6e6e6e" d="M195.5 263.5c1.406.473 2.073 1.473 2 3-1.406-.473-2.073-1.473-2-3z"/><path style="opacity:1" fill="#6a6a6a" d="M197.5 266.5c1.762.762 2.762 2.096 3 4-1.762-.762-2.762-2.096-3-4z"/><path style="opacity:1" fill="#767676" d="M235.5 267.5c1.406.473 2.073 1.473 2 3l-2-1v-2z"/><path style="opacity:1" fill="#7b7b7b" d="M201.5 272.5c1.406.473 2.073 1.473 2 3-1.406-.473-2.073-1.473-2-3z"/><path style="opacity:1" fill="#666" d="M237.5 271.5c2 1.333 3.667 3 5 5 .61.891.943 1.891 1 3-.996.086-1.829-.248-2.5-1a46.428 46.428 0 0 0-3.5-7z"/><path style="opacity:1" fill="#858585" d="M203.5 275.5c1.406.473 2.073 1.473 2 3-1.406-.473-2.073-1.473-2-3z"/><path style="opacity:1" fill="#838383" d="M205.5 278.5c1.406.473 2.073 1.473 2 3-1.406-.473-2.073-1.473-2-3z"/><path style="opacity:1" fill="#6c6c6c" d="M243.5 279.5c1.406.473 2.073 1.473 2 3-1.406-.473-2.073-1.473-2-3z"/><path style="opacity:1" fill="#e2e2e2" d="m249.5 286.5-2-1c.073-1.527-.594-2.527-2-3 .073-1.527-.594-2.527-2-3a5.727 5.727 0 0 0-1-3c4.024-1.807 5.358-.641 4 3.5 1.818 1.739 2.818 3.906 3 6.5z"/><path style="opacity:1" fill="#6c6c6c" d="M207.5 281.5c2.087 1.085 3.42 2.751 4 5l-4-3v-2z"/><path style="opacity:1" fill="#696969" d="M245.5 282.5c1.406.473 2.073 1.473 2 3-1.406-.473-2.073-1.473-2-3z"/><path style="opacity:1" fill="#c2c2c2" d="m207.5 283.5 4 3v2c-2.087-1.085-3.42-2.751-4-5z"/><path style="opacity:1" fill="#5f5f5f" d="M211.5 286.5c1.406.473 2.073 1.473 2 3l-2-1v-2z"/><path style="opacity:1" fill="#606060" d="M213.5 289.5c1.762.762 2.762 2.096 3 4-1.762-.762-2.762-2.096-3-4z"/><path style="opacity:1" fill="#535353" d="m247.5 285.5 2 1a16.339 16.339 0 0 1 2 5c-2.586-.987-3.919-2.987-4-6z"/><path style="opacity:1" fill="#dbdbdb" d="m211.5 288.5 2 1c.238 1.904 1.238 3.238 3 4v4c-1.17-1.779-2.836-2.779-5-3v-6z"/><path style="opacity:1" fill="#d7d7d7" d="M249.5 286.5a195.035 195.035 0 0 1 6 6 20.81 20.81 0 0 1 2 6l-2-1v-1c-.58-2.249-1.913-3.915-4-5a16.339 16.339 0 0 0-2-5z"/><path style="opacity:1" fill="#787878" d="M251.5 291.5c2.087 1.085 3.42 2.751 4 5-2.087-1.085-3.42-2.751-4-5z"/><path style="opacity:1" fill="#575757" d="M216.5 293.5c1.406.473 2.073 1.473 2 3l-2-1v-2z"/><path style="opacity:1" fill="#a1a1a1" d="m216.5 295.5 2 1c.61.891.943 1.891 1 3l-3-2v-2z"/><path style="opacity:1" fill="#313131" d="m255.5 297.5 2 1v4c-11.845.328-23.512-.005-35-1a289.882 289.882 0 0 0 34-1 5.576 5.576 0 0 1-1-3z"/><path style="opacity:1" fill="#727272" d="m219.5 299.5 3 2c11.488.995 23.155 1.328 35 1v-3c1.604.787 2.271 2.12 2 4-12.671.167-25.338 0-38-.5-1.323-.816-1.989-1.983-2-3.5z"/></svg>