<svg xmlns="http://www.w3.org/2000/svg" width="554" height="600" style="shape-rendering:geometricPrecision;text-rendering:geometricPrecision;image-rendering:optimizeQuality;fill-rule:evenodd;clip-rule:evenodd"><path style="opacity:.832" fill="#050603" d="M143.5-.5h8c1.66 1.822 2.66 3.989 3 6.5-4.331 13.02-3.831 25.854 1.5 38.5a157.489 157.489 0 0 0 18 24 129.63 129.63 0 0 1 9 26c3.34 6.778 7.507 7.445 12.5 2a71.165 71.165 0 0 1 14-19.5 104.27 104.27 0 0 1 24-13c6.533-4.879 10.699-11.379 12.5-19.5a671.081 671.081 0 0 0 4-24c1.276-5.948 4.776-9.614 10.5-11 4.535.87 6.535 3.703 6 8.5-.669 3.5-.836 7-.5 10.5 3.282-4.549 7.282-5.549 12-3 1.098 4.005.265 7.505-2.5 10.5a52.115 52.115 0 0 0-8 5.5 116.494 116.494 0 0 0-4.5 17l-3 5A2616.56 2616.56 0 0 0 220.5 92l-6.5 6.5c-.896 2.525-.396 4.692 1.5 6.5a240.699 240.699 0 0 1 16 7l10 10a37.973 37.973 0 0 0 10-1l20-12c11.92-1.876 22.086-7.043 30.5-15.5l4-8a84.111 84.111 0 0 1 3-18c2.285-3.392 5.452-5.059 9.5-5 1.542.8 3.208 1.134 5 1 0 .667.333 1 1 1 0 .667.333 1 1 1v3c-.515 4.864-2.515 9.031-6 12.5 2.964 1.042 5.964 1.542 9 1.5 1.238 1.714 1.905 3.714 2 6a30.217 30.217 0 0 1-3 3.5c-5.032 1.598-9.532 4.098-13.5 7.5.746 1.82 2.079 3.487 4 5 1.48 5.862-.853 8.862-7 9a20.147 20.147 0 0 0-9.5-.5 80.75 80.75 0 0 1-23 9c-11.562 5.551-21.395 13.385-29.5 23.5-1.82 3.253-1.987 6.587-.5 10-.047 3.428-1.213 6.428-3.5 9-.186-2.536-.686-4.869-1.5-7a84.902 84.902 0 0 1 .5-13 205.866 205.866 0 0 0 16.5-17.5c8.29-6.477 17.624-10.811 28-13l10-5c5.51-.05 10.843-.717 16-2-5.126-2.553-6.293-6.386-3.5-11.5a323.068 323.068 0 0 1 14.5-8.5c-6.799.858-9.966-1.975-9.5-8.5l5-8c.915-2.42.082-3.753-2.5-4-2.197.348-4.03 1.348-5.5 3a391.02 391.02 0 0 1-4 21c-4.816 8.835-11.983 15.002-21.5 18.5a144.303 144.303 0 0 0-16 5 179.617 179.617 0 0 0-15 10c-5.495 2.183-11.161 2.849-17 2a93.892 93.892 0 0 1-12-11 205.566 205.566 0 0 0-15-6c-3.535-2.707-4.702-6.207-3.5-10.5 1.4-3.402 3.567-6.236 6.5-8.5A2925.961 2925.961 0 0 1 257 59.5a274.594 274.594 0 0 0 6-20c4.006-3.176 7.84-6.51 11.5-10-1.29-.908-2.623-.741-4 .5l-4 4c-1.941.743-3.774.576-5.5-.5a34.75 34.75 0 0 1 1.5-15.5l-.5-3.5c-.718-.95-1.551-1.117-2.5-.5-2.458 1.787-4.124 4.12-5 7a212.664 212.664 0 0 0-3.5 23.5c-2.343 10.334-7.843 18.501-16.5 24.5-10.742 3.449-19.909 9.282-27.5 17.5a122.618 122.618 0 0 1-10.5 15.5c-7.399 4.376-13.233 2.876-17.5-4.5-2.61-16.557-9.944-30.557-22-42-9.708-16.217-12.208-33.55-7.5-52-4.184.344-7.351 2.344-9.5 6a229.854 229.854 0 0 0-4.5 17.5c-1.612.72-3.112.554-4.5-.5a58.504 58.504 0 0 0-5-14c-1.11-1.537-2.61-2.204-4.5-2-.906 7.222.594 13.889 4.5 20l42 52c4.38 7.464 6.047 15.464 5 24a11.532 11.532 0 0 1-3.5 4.5 32.473 32.473 0 0 0-10 4 149.168 149.168 0 0 0-14 15 36.16 36.16 0 0 1-7 4 202.89 202.89 0 0 1-13 14c-13.866 6.322-27.533 5.989-41-1a208.89 208.89 0 0 1-5-4.5v-2c1.208.734 2.541 1.067 4 1l-7.5-39c-1.566-4.794-3.4-9.46-5.5-14a137.132 137.132 0 0 1-3-23c1.624-.14 2.79.527 3.5 2a7494.798 7494.798 0 0 1 16 75c5.481 4.458 11.814 6.458 19 6 11.313.513 19.647-4.154 25-14a58.317 58.317 0 0 1 10.5-7.5 110.18 110.18 0 0 1 12-13 39.748 39.748 0 0 1 15-7.5c.601-9.035-1.566-17.368-6.5-25a1156.773 1156.773 0 0 1-37-44c-5.714-8.14-8.381-17.14-8-27 3.098-5.819 7.098-6.486 12-2a45.898 45.898 0 0 1 4 10c.33-8.145 3.83-14.479 10.5-19z"/><path style="opacity:.997" fill="#90b55b" d="M243.5 157.5c-5.523-.322-10.023 1.678-13.5 6-.684 1.284-.517 2.451.5 3.5 2.347.334 4.681.167 7-.5a60.931 60.931 0 0 0 .5 11c1.588 2.468 3.422 2.634 5.5.5.663-1.518 1.663-2.685 3-3.5 5.637 7.831 13.304 12.664 23 14.5 11.56.831 23.06.331 34.5-1.5l5.5 1c-.59 1.299-1.59 2.132-3 2.5a45.984 45.984 0 0 0-10 2c-3.51 3.048-3.843 6.381-1 10a63.585 63.585 0 0 0 13 4c.951.718 1.117 1.551.5 2.5-6.221 1.2-12.388.7-18.5-1.5l-16-11a93.208 93.208 0 0 0-17-2 64.231 64.231 0 0 1-10-9 10.413 10.413 0 0 0-5-1.5c-3.229 2.219-6.896 3.385-11 3.5a188.69 188.69 0 0 0-14 14c-10.967 5.072-22.301 5.905-34 2.5-9.543 1.73-13.043 7.397-10.5 17a81.58 81.58 0 0 1 5 11 1186 1186 0 0 0 0 26 128.578 128.578 0 0 0 13 14c2.258 2.778 2.758 5.778 1.5 9a73.412 73.412 0 0 0-7-7.5c-2.525-.896-4.692-.396-6.5 1.5a186.008 186.008 0 0 0 3.5 19c.269 3.053-.564 5.72-2.5 8-1.044-1.123-1.71-2.456-2-4 1.357-12.3-1.31-23.634-8-34 .623-11.715-1.043-23.048-5-34 .172-9.014.505-18.014 1-27a47.34 47.34 0 0 0-12.5-7.5 148.31 148.31 0 0 0-14-15c-7.291-4.269-13.457-3.103-18.5 3.5-2.267 8.719-7.1 15.552-14.5 20.5l-21 1c-4.46 1.457-7.126 4.457-8 9a31.692 31.692 0 0 1 .5 12.5A98.436 98.436 0 0 0 65.5 238c-1.765.64-3.432.473-5-.5-2.431-1.568-2.431-3.068 0-4.5l9-1c3.604-1.334 4.771-3.834 3.5-7.5-1.73-2.117-3.898-3.617-6.5-4.5-5.685.173-11.352.506-17 1-3.034-1.191-4.7-3.358-5-6.5 5.667.575 11.333.742 17 .5 5.308-2.641 9.308-6.641 12-12 12.589.918 23.089-3.248 31.5-12.5 3.125-6.452 7.625-11.619 13.5-15.5a89.37 89.37 0 0 0 13-3c7.229-6.955 6.229-12.622-3-17a669.41 669.41 0 0 1-29 2.5c-9.038.599-17.372-1.567-25-6.5-9.005-7.509-19.005-13.509-30-18-4.378-3.233-6.044-7.4-5-12.5l1 .5 6 9c4.996.664 6.83-1.502 5.5-6.5a35.489 35.489 0 0 1-3.5-12c2.825-.419 4.991.581 6.5 3a99.81 99.81 0 0 0 5 17 261.783 261.783 0 0 1 19.5 11 208.89 208.89 0 0 0 5 4.5c13.467 6.989 27.134 7.322 41 1a202.89 202.89 0 0 0 13-14 36.16 36.16 0 0 0 7-4 149.168 149.168 0 0 1 14-15 32.473 32.473 0 0 1 10-4 11.532 11.532 0 0 0 3.5-4.5c1.047-8.536-.62-16.536-5-24l-42-52c-3.906-6.111-5.406-12.778-4.5-20 1.89-.204 3.39.463 4.5 2a58.504 58.504 0 0 1 5 14c1.388 1.054 2.888 1.22 4.5.5A229.854 229.854 0 0 1 140 9.5c2.149-3.656 5.316-5.656 9.5-6-4.708 18.45-2.208 35.783 7.5 52 12.056 11.443 19.39 25.443 22 42 4.267 7.376 10.101 8.876 17.5 4.5A122.618 122.618 0 0 0 207 86.5c7.591-8.218 16.758-14.051 27.5-17.5 8.657-5.999 14.157-14.166 16.5-24.5a212.664 212.664 0 0 1 3.5-23.5c.876-2.88 2.542-5.213 5-7 .949-.617 1.782-.45 2.5.5l.5 3.5a34.75 34.75 0 0 0-1.5 15.5c1.726 1.076 3.559 1.243 5.5.5l4-4c1.377-1.241 2.71-1.408 4-.5a166.667 166.667 0 0 1-11.5 10 274.594 274.594 0 0 1-6 20A2925.961 2925.961 0 0 0 215.5 90c-2.933 2.264-5.1 5.098-6.5 8.5-1.202 4.293-.035 7.793 3.5 10.5a205.566 205.566 0 0 1 15 6 93.892 93.892 0 0 0 12 11c5.839.849 11.505.183 17-2a179.617 179.617 0 0 1 15-10 144.303 144.303 0 0 1 16-5c9.517-3.498 16.684-9.665 21.5-18.5a391.02 391.02 0 0 0 4-21c1.47-1.652 3.303-2.652 5.5-3 2.582.247 3.415 1.58 2.5 4l-5 8c-.466 6.525 2.701 9.358 9.5 8.5a323.068 323.068 0 0 0-14.5 8.5c-2.793 5.114-1.626 8.947 3.5 11.5-5.157 1.283-10.49 1.95-16 2l-10 5c-10.376 2.189-19.71 6.523-28 13a205.866 205.866 0 0 1-16.5 17.5 84.902 84.902 0 0 0-.5 13zm-114 25c6.16.917 10.827 4.084 14 9.5-14.442 4.311-26.275 12.477-35.5 24.5l-4 8a171.618 171.618 0 0 1-2.5-14c6.823-.496 12.323-3.496 16.5-9a68.669 68.669 0 0 0 7-14c1.059-2.159 2.559-3.826 4.5-5z"/><path style="opacity:.871" fill="#b30000" d="M330.5 88.5c-.095-2.286-.762-4.286-2-6-.51-4.891-1.51-9.558-3-14v-3c-.667 0-1-.333-1-1-.667 0-1-.333-1-1-1.792.134-3.458-.2-5-1-1.023-2.507-.356-4.673 2-6.5l7-3.5 3 1.5a712.918 712.918 0 0 1 5.5 17.5 839.116 839.116 0 0 1 10-31c5.4-3.586 11.233-6.42 17.5-8.5 3.334-1.212 5.834-.379 7.5 2.5.624 1.965.124 3.631-1.5 5a98.036 98.036 0 0 0-16 8.5 468.265 468.265 0 0 1-16 46c-4.791 1.38-7.124-.453-7-5.5z"/><path style="opacity:.852" fill="#b30000" d="M465.5 44.5c5.475-.06 6.809 2.106 4 6.5a916.522 916.522 0 0 0-44 22 2984.244 2984.244 0 0 0-8.5 57.5c-.332 3.847-1.498 7.347-3.5 10.5-2.201.825-4.034.325-5.5-1.5l-28.5-47a194.56 194.56 0 0 0-12 11.5c-5.436.564-6.936-1.603-4.5-6.5l13-15c2.243-1.782 4.743-2.282 7.5-1.5a939.985 939.985 0 0 1 25.5 43.5l10-58a980.073 980.073 0 0 1 46.5-22z"/><path style="opacity:.996" fill="#c2c2c2" d="M70.5 88.5c2.1 4.54 3.934 9.206 5.5 14l7.5 39c-1.459.067-2.792-.266-4-1a105.22 105.22 0 0 0-8.5-6c-.188-1.561.645-2.228 2.5-2a789.795 789.795 0 0 0-6-36 62.66 62.66 0 0 0-20 3c.327 1.988.66 3.988 1 6a83.564 83.564 0 0 0-2 8.5 55.316 55.316 0 0 1 2.5 14.5 40.954 40.954 0 0 1-5-7c-2.367-3.432-5.034-3.765-8-1-.725 2.877-.225 5.543 1.5 8a3.646 3.646 0 0 1-1 1.5c-5.013 1.168-10.013 2.335-15 3.5l7 36a472.105 472.105 0 0 0 19-3 252.969 252.969 0 0 0-5-29.5l1-1.5a324.64 324.64 0 0 1 21 12c-2.108 1.444-4.441 2.11-7 2a2544.075 2544.075 0 0 1 5.5 31c.115 2.508 1.115 4.508 3 6a244.43 244.43 0 0 0 16.5-4l1-3-4-22c3.479.097 6.312 1.431 8.5 4a194.906 194.906 0 0 1 6 35c-2.228 1.613-4.728 2.28-7.5 2v-3a157.572 157.572 0 0 0-19 3 50.442 50.442 0 0 1-.5 10c-2.461 3.491-5.628 4.491-9.5 3a1548.82 1548.82 0 0 1-7-31c-6.045-.783-12.045-.283-18 1.5a9.84 9.84 0 0 0-1 4 556.495 556.495 0 0 1 6 32.5c1.7-.16 3.366.006 5 .5 1.805 2.403 4.138 4.07 7 5a133.222 133.222 0 0 0 16-1c2.313.641 3.98 1.974 5 4a3.942 3.942 0 0 1-1 2 56.733 56.733 0 0 0-6.5 1.5c-1.7-1.815-3.866-2.815-6.5-3a99.583 99.583 0 0 0-15 3 566.579 566.579 0 0 0 6 36 161.939 161.939 0 0 1 18-1.5 64.739 64.739 0 0 0-6.5 11.5c-1.789 1.729-3.956 2.396-6.5 2 .749 4.319.916 8.652.5 13a35.524 35.524 0 0 0-5.5 4c-.617-.111-1.117-.444-1.5-1a28475.133 28475.133 0 0 0-43-207c-.703-2.43-.537-4.763.5-7 12.98-5.287 26.48-8.62 40.5-10 10.97 2.898 19.803 8.898 26.5 18z"/><path style="opacity:.828" fill="#070805" d="M-.5 76.5h3c-.067 1.459.266 2.792 1 4-1.037 2.237-1.203 4.57-.5 7a28475.133 28475.133 0 0 1 43 207c.383.556.883.889 1.5 1v2c-7.846 6.537-12.846 14.87-15 25 .289 4.271 2.289 7.271 6 9 4.678-1.671 8.678-4.337 12-8h3a11.114 11.114 0 0 0-1 2.5A21688.099 21688.099 0 0 1 106 581.5c.5 1.833 1.667 3 3.5 3.5a890.774 890.774 0 0 0 31.5 11.5c2.723-1.041 5.223-2.541 7.5-4.5a373.002 373.002 0 0 1 23.5-22.5 59578.287 59578.287 0 0 0-61-299 108.394 108.394 0 0 1-2-9c-.671-.752-1.504-1.086-2.5-1-.322-1.358-.322-3.025 0-5 1.258-3.7 1.258-7.366 0-11 .111-.617.444-1.117 1-1.5a6.978 6.978 0 0 1-2.5-3.5c.083-3.811-.75-7.145-2.5-10a350.614 350.614 0 0 0-5-20 19.372 19.372 0 0 0-8-1 97.381 97.381 0 0 0 4 21l-1 2a1061.654 1061.654 0 0 1-20 4.5 30.325 30.325 0 0 1-8 5c-.837 1.011-1.17 2.178-1 3.5-.921-.43-1.421-1.764-1.5-4-2.158-.55-2.658-1.55-1.5-3 1.568.973 3.235 1.14 5 .5A98.436 98.436 0 0 1 78 227.5a31.692 31.692 0 0 0-.5-12.5c.874-4.543 3.54-7.543 8-9l21-1c7.4-4.948 12.233-11.781 14.5-20.5 5.043-6.603 11.209-7.769 18.5-3.5a148.31 148.31 0 0 1 14 15 47.34 47.34 0 0 1 12.5 7.5 751.518 751.518 0 0 0-1 27c3.957 10.952 5.623 22.285 5 34 6.69 10.366 9.357 21.7 8 34 .29 1.544.956 2.877 2 4 1.936-2.28 2.769-4.947 2.5-8a186.008 186.008 0 0 1-3.5-19c1.808-1.896 3.975-2.396 6.5-1.5a73.412 73.412 0 0 1 7 7.5c1.258-3.222.758-6.222-1.5-9a128.578 128.578 0 0 1-13-14 1186 1186 0 0 1 0-26 81.58 81.58 0 0 0-5-11c-2.543-9.603.957-15.27 10.5-17 11.699 3.405 23.033 2.572 34-2.5a188.69 188.69 0 0 1 14-14c4.104-.115 7.771-1.281 11-3.5 1.799.077 3.466.577 5 1.5a64.231 64.231 0 0 0 10 9 93.208 93.208 0 0 1 17 2l16 11c6.112 2.2 12.279 2.7 18.5 1.5.617-.949.451-1.782-.5-2.5a63.585 63.585 0 0 1-13-4c-2.843-3.619-2.51-6.952 1-10a45.984 45.984 0 0 1 10-2c1.41-.368 2.41-1.201 3-2.5l-5.5-1a149.672 149.672 0 0 1-34.5 1.5c-9.696-1.836-17.363-6.669-23-14.5.902-1.841 2.236-3.174 4-4 4.281 7.668 10.948 12.168 20 13.5a73.803 73.803 0 0 0 12.5 1.5 408.527 408.527 0 0 0 23-3c8.893.604 10.726 4.437 5.5 11.5l-14 4c4.9 2.147 9.9 4.147 15 6 2.667 3 2.667 6 0 9a20.9 20.9 0 0 1-8.5 2.5 198.688 198.688 0 0 1-15.5-3.5 176.797 176.797 0 0 0-19-12l-14-1-4-2c-2.192-3.692-5.192-6.526-9-8.5-2.704 2.851-6.037 4.351-10 4.5-11.97 17.045-27.97 22.211-48 15.5-4.667.667-7.333 3.333-8 8l6.5 17a206.507 206.507 0 0 1-1 22l3 5c4.333 3 8 6.667 11 11 1.682 4.294 1.849 8.628.5 13-2.156 2.438-4.489 2.605-7 .5a25.55 25.55 0 0 1-5.5-6.5 86.006 86.006 0 0 1 2.5 16c.697 4.854-.637 9.021-4 12.5-3.136 1.041-5.636.207-7.5-2.5a192.856 192.856 0 0 1-3-23 187.379 187.379 0 0 0-7-17c1.569-10.683.236-21.017-4-31a72.93 72.93 0 0 1 1.5-24 10.413 10.413 0 0 0-1.5-5c-2.401 11.291-8.234 20.458-17.5 27.5a134.06 134.06 0 0 1-23 14 34.033 34.033 0 0 1-8 1.5 38.892 38.892 0 0 1-2 9.5 12131.384 12131.384 0 0 0 28 129.5c3.536-1.59 7.203-2.09 11-1.5 13.521 2.509 24.688 9.009 33.5 19.5l2.5 6c18.123-1.408 30.957 6.258 38.5 23 17.079-2.649 31.413 2.684 43 16a31.041 31.041 0 0 1 4 8 109.636 109.636 0 0 1 6.5-2c18.143 2.901 32.143 12.068 42 27.5 1.525 1.009 3.192 1.509 5 1.5-2.889-8.217-.222-13.384 8-15.5 3.369-2.365 5.536-5.532 6.5-9.5a535.786 535.786 0 0 1 0-31c1.052-6.284 4.219-11.118 9.5-14.5 3.292-.936 6.292-.436 9 1.5.985 1.598 1.151 3.265.5 5a81.684 81.684 0 0 0-6.5 9c-.066 1.766.768 2.766 2.5 3 2.89-4.302 5.223-8.969 7-14 2.559-2.849 5.726-3.683 9.5-2.5 3.27 2.376 4.436 5.542 3.5 9.5l-7 9c-1.238 8.155-5.238 14.489-12 19 .165 6.992.165 13.992 0 21a11.532 11.532 0 0 1-3.5 4.5 133.182 133.182 0 0 1-12 5c-3.63 3.05-4.797 6.883-3.5 11.5a9.454 9.454 0 0 0 2.5 1.5 54.631 54.631 0 0 1 16 3c6.972 5.781 7.638 12.115 2 19-2.803.755-5.47.422-8-1a28.597 28.597 0 0 0-6.5-6.5c-4.667 2.679-9.5 3.179-14.5 1.5a76.236 76.236 0 0 0-6-6.5c-3.671 2.783-4.838 6.45-3.5 11l7 11c1.041 4.94.374 9.606-2 14a96.246 96.246 0 0 1-7.5 9l8 4c3.613 6.235 1.779 9.568-5.5 10-5.911-.121-10.245-2.788-13-8a124.591 124.591 0 0 1-2-19c-1.663 4.953-3.33 9.953-5 15-3.262 2.577-6.595 2.577-10 0-4.605-8.305-4.605-16.639 0-25a130.132 130.132 0 0 1 14-13 141.43 141.43 0 0 1 4-11 64.292 64.292 0 0 0 6.5-7c-21.664.84-37.664-8.16-48-27-8.79 2.68-17.123 1.513-25-3.5-8.795-5.459-15.462-12.792-20-22-15.334 2.76-27.501-2.406-36.5-15.5a46.928 46.928 0 0 0-4.5-8c-12.989 3.065-24.489.065-34.5-9a12774.552 12774.552 0 0 0 31.5 155l-.5 3a1559.964 1559.964 0 0 0-30.5 29h-6a1592.971 1592.971 0 0 1-35.5-15 31295.759 31295.759 0 0 1-45-217 6.807 6.807 0 0 0-1.5-3c-12.11 1.355-20.61-3.645-25.5-15-.667-4-.667-8 0-12a6.977 6.977 0 0 1 2.5-3.5c-4.651-4.536-6.151-10.036-4.5-16.5 2.052-8.443 6.386-15.443 13-21l.5-3a24035.175 24035.175 0 0 0-43-208v-9zm130 106c-1.941 1.174-3.441 2.841-4.5 5a68.669 68.669 0 0 1-7 14c-4.177 5.504-9.677 8.504-16.5 9 .638 4.69 1.471 9.356 2.5 14l4-8c9.225-12.023 21.058-20.189 35.5-24.5-3.173-5.416-7.84-8.583-14-9.5zm-80 147c3.504 6.815 2.504 7.982-3 3.5a14.694 14.694 0 0 0 3-3.5z"/><path style="opacity:1" fill="#13100e" d="M24.5 80.5h7c2.549 11.96 4.882 23.96 7 36a258.652 258.652 0 0 0-18 4 3.647 3.647 0 0 1-1.5-1 310.122 310.122 0 0 1-6.5-36c4.202-.632 8.202-1.632 12-3z"/><path style="opacity:1" fill="#0f100d" d="M179.5 115.5c21.561-.265 31.061 10.402 28.5 32-1.743 5.41-5.243 9.244-10.5 11.5-23.25 4.089-33.75-5.744-31.5-29.5 2.713-6.544 7.213-11.211 13.5-14z"/><path style="opacity:1" fill="#f8f8f8" d="M181.5 118.5c14.643-.027 22.643 7.307 24 22-.827 11.322-6.993 16.989-18.5 17-9.292-.952-15.292-5.952-18-15-2.441-9.015.059-16.181 7.5-21.5a38.715 38.715 0 0 0 5-2.5z"/><path style="opacity:.852" fill="#b30000" d="M541.5 119.5h10c.285 1.788-.048 3.455-1 5a276.53 276.53 0 0 1-24.5 8 940.954 940.954 0 0 1-24.5 69c-1.853 1.26-3.686 1.26-5.5 0a1484.34 1484.34 0 0 1-24.5-64 95.285 95.285 0 0 1-16 9c-3.726-.298-4.893-2.298-3.5-6a384.623 384.623 0 0 1 22-14 26.585 26.585 0 0 1 3.5 2 1968.748 1968.748 0 0 1 21.5 57 2267.44 2267.44 0 0 1 21.5-60 321.26 321.26 0 0 1 21-6z"/><path style="opacity:.851" fill="#b30000" d="M308.5 120.5c1.59.128 2.923.795 4 2a53229.47 53229.47 0 0 1 14.5 35c1.845-8.9 4.678-17.4 8.5-25.5a972.734 972.734 0 0 1 19-4.5c4.109 1.692 4.775 4.192 2 7.5a520.834 520.834 0 0 0-15.5 4.5 1047.776 1047.776 0 0 1-10 35c-2.333 2.667-4.667 2.667-7 0a668.229 668.229 0 0 0-16.5-43 71.744 71.744 0 0 1-17.5 12 3.943 3.943 0 0 1-2-1c-.667-1.667-.667-3.333 0-5a162.803 162.803 0 0 1 20.5-17z"/><path style="opacity:1" fill="#161413" d="M183.5 127.5c2.427.023 4.76.523 7 1.5 4.795 5.85 5.128 11.85 1 18-5.605.603-9.105-1.897-10.5-7.5-1.112-4.481-.279-8.481 2.5-12z"/><path style="opacity:1" fill="#dfdfdf" d="M186.5 134.5c1.25.077 2.083.744 2.5 2 .798 1.759.631 3.426-.5 5-1.671-2.01-2.338-4.343-2-7z"/><path style="opacity:1" fill="#110f0d" d="M79.5 140.5v2a261.783 261.783 0 0 0-19.5-11 99.81 99.81 0 0 1-5-17c-1.509-2.419-3.675-3.419-6.5-3a35.489 35.489 0 0 0 3.5 12c1.33 4.998-.504 7.164-5.5 6.5l-6-9-1-.5c-1.044 5.1.622 9.267 5 12.5 10.995 4.491 20.995 10.491 30 18 7.628 4.933 15.962 7.099 25 6.5a669.41 669.41 0 0 0 29-2.5c9.229 4.378 10.229 10.045 3 17a89.37 89.37 0 0 1-13 3c-5.875 3.881-10.375 9.048-13.5 15.5-8.411 9.252-18.911 13.418-31.5 12.5-2.692 5.359-6.692 9.359-12 12-5.667.242-11.333.075-17-.5.3 3.142 1.966 5.309 5 6.5a299.697 299.697 0 0 1 17-1c2.602.883 4.77 2.383 6.5 4.5 1.271 3.666.104 6.166-3.5 7.5l-9 1c-2.431 1.432-2.431 2.932 0 4.5-1.158 1.45-.658 2.45 1.5 3 .079 2.236.579 3.57 1.5 4a246.628 246.628 0 0 1 4.5 17 51.029 51.029 0 0 0 9-8c.497-2.31.663-4.643.5-7a224.396 224.396 0 0 0 25-5.5c.857-3.76.857-7.594 0-11.5 1.75 2.855 2.583 6.189 2.5 10a6.978 6.978 0 0 0 2.5 3.5c-.556.383-.889.883-1 1.5-2.908-1.069-5.908-1.236-9-.5-16.302 6.634-28.468 17.8-36.5 33.5-1.5 9.167 2.333 13 11.5 11.5 14.499-7.999 25.832-19.165 34-33.5-.322 1.975-.322 3.642 0 5a59.292 59.292 0 0 1-5 9 39.654 39.654 0 0 1 1 11 69.274 69.274 0 0 0-16 3.5 41.056 41.056 0 0 1-9 6c-1.444 1.126-2.11 2.626-2 4.5a130.689 130.689 0 0 1 3 14l-1 3a157.693 157.693 0 0 0-17 4.5 72.711 72.711 0 0 0-7 7.5h-3c3.157-4.304 6.324-8.637 9.5-13a74.672 74.672 0 0 0 6.5-15 4.94 4.94 0 0 0-1-2.5 20.204 20.204 0 0 0-6-1.5 50.544 50.544 0 0 0-12 6v-2a35.524 35.524 0 0 1 5.5-4 48.663 48.663 0 0 0-.5-13c2.544.396 4.711-.271 6.5-2a64.739 64.739 0 0 1 6.5-11.5c-6.002.163-12.002.663-18 1.5a566.579 566.579 0 0 1-6-36 99.583 99.583 0 0 1 15-3c2.634.185 4.8 1.185 6.5 3a56.733 56.733 0 0 1 6.5-1.5 3.942 3.942 0 0 0 1-2c-1.02-2.026-2.687-3.359-5-4-5.294.653-10.628.987-16 1-2.862-.93-5.195-2.597-7-5a12.93 12.93 0 0 0-5-.5 556.495 556.495 0 0 0-6-32.5 9.84 9.84 0 0 1 1-4c5.955-1.783 11.955-2.283 18-1.5a1548.82 1548.82 0 0 0 7 31c3.872 1.491 7.039.491 9.5-3 .498-3.317.665-6.65.5-10a157.572 157.572 0 0 1 19-3v3c2.772.28 5.272-.387 7.5-2a194.906 194.906 0 0 0-6-35c-2.188-2.569-5.021-3.903-8.5-4l4 22-1 3a244.43 244.43 0 0 1-16.5 4c-1.885-1.492-2.885-3.492-3-6a2544.075 2544.075 0 0 0-5.5-31c2.559.11 4.892-.556 7-2a324.64 324.64 0 0 0-21-12l-1 1.5a252.969 252.969 0 0 1 5 29.5 472.105 472.105 0 0 1-19 3l-7-36c4.987-1.165 9.987-2.332 15-3.5.457-.414.79-.914 1-1.5-1.725-2.457-2.225-5.123-1.5-8 2.966-2.765 5.633-2.432 8 1a40.954 40.954 0 0 0 5 7 55.316 55.316 0 0 0-2.5-14.5 83.564 83.564 0 0 1 2-8.5c-.34-2.012-.673-4.012-1-6a62.66 62.66 0 0 1 20-3 789.795 789.795 0 0 1 6 36c-1.855-.228-2.688.439-2.5 2a105.22 105.22 0 0 1 8.5 6zm44 18c5.877-.294 8.377 2.372 7.5 8a6.978 6.978 0 0 1-3.5 2.5 61.397 61.397 0 0 0-15 4A611.224 611.224 0 0 0 98 191.5a582.311 582.311 0 0 1-7.5-29.5c11.311 1.274 22.311.108 33-3.5z"/><path style="opacity:.936" fill="#b20701" d="M269.5 157.5a60.931 60.931 0 0 0-11 .5c-.556.383-.889.883-1 1.5a96.002 96.002 0 0 0-7 11c-1.764.826-3.098 2.159-4 4-1.337.815-2.337 1.982-3 3.5-2.078 2.134-3.912 1.968-5.5-.5a60.931 60.931 0 0 1-.5-11 16.597 16.597 0 0 1-7 .5c-1.017-1.049-1.184-2.216-.5-3.5 3.477-4.322 7.977-6.322 13.5-6 .814 2.131 1.314 4.464 1.5 7 2.287-2.572 3.453-5.572 3.5-9 7.735-4.906 16.069-6.406 25-4.5 2.161 4.448.828 6.615-4 6.5z"/><path style="opacity:.208" fill="#ab5853" d="M269.5 157.5c-3.816.982-7.816 1.649-12 2 .111-.617.444-1.117 1-1.5a60.931 60.931 0 0 1 11-.5z"/><path style="opacity:1" fill="#0f0e0a" d="M211.5 147.5c1.884.882 3.217 2.382 4 4.5 2.716.782 5.05 2.116 7 4-2.452 2.829-5.285 5.329-8.5 7.5-4.54 7.928-2.54 13.595 6 17 4.686-1.65 6.686.016 6 5-2.087 4.189-5.087 7.523-9 10l-1.5-1c2.748-3.521 4.914-7.188 6.5-11-4.28 4.559-9.447 7.726-15.5 9.5-17.173 1.491-26.34-6.342-27.5-23.5l2.5-2.5c13.016 1.165 24.682-2.169 35-10-4.375-1.701-6.042-4.867-5-9.5z"/><path style="opacity:.845" fill="#b30000" d="M378.5 173.5c2.179.34 4.012 1.34 5.5 3a685.656 685.656 0 0 0 20 29 241.182 241.182 0 0 1 9.5-26 39.924 39.924 0 0 1 15-.5c2.58 2.12 2.58 4.287 0 6.5a341.749 341.749 0 0 0-9.5 2 177.497 177.497 0 0 1-11.5 31.5c-2.309.756-4.309.256-6-1.5l-23-34-9 4.5c-4.167 1.167-5.667-.333-4.5-4.5 4.123-3.964 8.623-7.297 13.5-10z"/><path style="opacity:.837" fill="#b30000" d="M340.5 183.5a84.902 84.902 0 0 1 13 .5c1.825 1.466 2.325 3.299 1.5 5.5a59.915 59.915 0 0 1-13.5 3 310.947 310.947 0 0 1-12.5 17c-1.93 2.896-4.43 3.896-7.5 3-1.641-3.058-2.474-6.392-2.5-10l-6-2c-.667-1.667-.667-3.333 0-5a29.83 29.83 0 0 1 9-5c2.737 1.487 4.403 3.821 5 7a71.916 71.916 0 0 0 7-9c1.805-2.326 3.972-3.992 6.5-5z"/><path style="opacity:1" fill="#8c2e2a" d="M204.5 185.5c6.585 1.182 6.585 2.515 0 4v-4z"/><path style="opacity:1" fill="#98322d" d="M197.5 187.5c1.929-.269 3.595.231 5 1.5-2 .667-4 .667-6 0 .556-.383.889-.883 1-1.5z"/><path style="opacity:.998" fill="#91b75c" d="M145.5 196.5c3.214.94 6.214 2.44 9 4.5 1.295 3.842 1.128 7.675-.5 11.5-8.944 13.734-21.111 23.568-36.5 29.5-9.446 1.887-13.279-1.946-11.5-11.5 7.903-17.756 21.07-29.089 39.5-34z"/><path style="opacity:1" fill="#c2c2c2" d="M102.5 229.5c.857 3.906.857 7.74 0 11.5a224.396 224.396 0 0 1-25 5.5 24.939 24.939 0 0 1-.5 7 51.029 51.029 0 0 1-9 8 246.628 246.628 0 0 0-4.5-17c-.17-1.322.163-2.489 1-3.5a30.325 30.325 0 0 0 8-5 1061.654 1061.654 0 0 0 20-4.5l1-2a97.381 97.381 0 0 1-4-21c2.75-.226 5.416.107 8 1a350.614 350.614 0 0 1 5 20z"/><path style="opacity:.849" fill="#b30000" d="M262.5 220.5c5.344-.166 10.677.001 16 .5a248.863 248.863 0 0 1 23.5 29.5c1.068-4.55 2.902-8.717 5.5-12.5a50.365 50.365 0 0 1 17-1c1.825 1.466 2.325 3.299 1.5 5.5a48.791 48.791 0 0 1-12.5 3 118.718 118.718 0 0 0-7 16c-1.921 1.141-3.921 1.308-6 .5a618.67 618.67 0 0 1-25-32.5 130.373 130.373 0 0 0-16-1.5c-2.532-.612-3.365-2.112-2.5-4.5 1.719-1.369 3.552-2.369 5.5-3z"/><path style="opacity:.865" fill="#b30000" d="M553.5 233.5v7a1660.53 1660.53 0 0 0-24 2 7755.818 7755.818 0 0 0-10.5 54c-2.627 2.488-5.46 2.655-8.5.5L458 242.5c-4.089 4.762-8.756 8.762-14 12-1.622-.454-2.788-1.454-3.5-3 3.646-7.158 8.646-13.325 15-18.5 1.667-.667 3.333-.667 5 0a1908.49 1908.49 0 0 1 51.5 52.5 1974.68 1974.68 0 0 1 10-50l1.5-1.5a136.954 136.954 0 0 1 30-.5z"/><path style="opacity:.848" fill="#b30000" d="M358.5 234.5c2.865-.445 5.365.222 7.5 2a1644.658 1644.658 0 0 0 16 43 214.008 214.008 0 0 1 10.5-21.5 85.388 85.388 0 0 1 22 1c2.653 3.059 2.153 5.559-1.5 7.5-5.159-1.261-10.325-1.261-15.5 0a1402.317 1402.317 0 0 0-12.5 27c-3.096 2.853-5.763 2.52-8-1l-17-49c-3.555.215-7.222-.118-11-1-.72-1.612-.554-3.112.5-4.5a164.456 164.456 0 0 1 9-3.5z"/><path style="opacity:.998" fill="#91b75c" d="M106.5 244.5c1.258 3.634 1.258 7.3 0 11-8.168 14.335-19.501 25.501-34 33.5-9.167 1.5-13-2.333-11.5-11.5 8.032-15.7 20.198-26.866 36.5-33.5 3.092-.736 6.092-.569 9 .5z"/><path style="opacity:1" fill="#c3c3c3" d="M106.5 260.5c.996-.086 1.829.248 2.5 1a108.394 108.394 0 0 0 2 9 59578.287 59578.287 0 0 1 61 299 373.002 373.002 0 0 0-23.5 22.5c-2.277 1.959-4.777 3.459-7.5 4.5a890.774 890.774 0 0 1-31.5-11.5c-1.833-.5-3-1.667-3.5-3.5A21688.099 21688.099 0 0 0 52.5 326c.243-.902.577-1.735 1-2.5a72.711 72.711 0 0 1 7-7.5 157.693 157.693 0 0 1 17-4.5l1-3a130.689 130.689 0 0 0-3-14c-.11-1.874.556-3.374 2-4.5a41.056 41.056 0 0 0 9-6 69.274 69.274 0 0 1 16-3.5 39.654 39.654 0 0 0-1-11 59.292 59.292 0 0 0 5-9z"/><path style="opacity:.998" fill="#90b55b" d="M50.5 323.5c-3.322 3.663-7.322 6.329-12 8-3.711-1.729-5.711-4.729-6-9 2.154-10.13 7.154-18.463 15-25a50.544 50.544 0 0 1 12-6c2.077.192 4.077.692 6 1.5a4.94 4.94 0 0 1 1 2.5 74.672 74.672 0 0 1-6.5 15 4348.145 4348.145 0 0 1-9.5 13z"/><path style="opacity:1" fill="#13100f" d="M99.5 292.5c3.211-.488 6.044.179 8.5 2a221.345 221.345 0 0 1 5.5 34 157.424 157.424 0 0 1-19 3 339.842 339.842 0 0 1-6-36c3.946-.382 7.612-1.382 11-3z"/><path style="opacity:.86" fill="#b30000" d="M318.5 293.5c5.344-.166 10.677.001 16 .5a4.457 4.457 0 0 1 2 1.5 5914.94 5914.94 0 0 0 20.5 58 355.512 355.512 0 0 1 12.5-22c9.773-.351 19.44.815 29 3.5 2.148 2.075 2.482 4.408 1 7a95.44 95.44 0 0 1-22-2.5l-3 1a231.648 231.648 0 0 1-17 27.5c-3.304 1.042-5.471-.125-6.5-3.5a2310.978 2310.978 0 0 1-20.5-63 50.5 50.5 0 0 1-15-1.5c-1.755-3.505-.755-5.672 3-6.5z"/><path style="opacity:.859" fill="#b30000" d="M426.5 298.5c3.022-.072 5.188 1.262 6.5 4a3490.512 3490.512 0 0 1 39 69 477.118 477.118 0 0 0 7-39 14.293 14.293 0 0 1 2.5-6.5 135.021 135.021 0 0 1 36 5.5c1.247 1.506 1.247 3.006 0 4.5-9.048.544-18.048.044-27-1.5l-3 1a7630.05 7630.05 0 0 0-7.5 46c-.21 2.734-1.044 5.234-2.5 7.5-2.525.896-4.692.396-6.5-1.5a5838.46 5838.46 0 0 0-45.5-79 25.89 25.89 0 0 1-8.5 3c-4.082-.659-5.416-2.992-4-7l1.5-1.5a84.455 84.455 0 0 0 12-4.5z"/><path style="opacity:1" fill="#12100e" d="M75.5 323.5c2.293-.256 4.46.077 6.5 1a2719.681 2719.681 0 0 0 6.5 32c-.21 1.494-.876 2.661-2 3.5-5.624 1.766-11.29 2.266-17 1.5a325.06 325.06 0 0 1-7-35c4.577-.425 8.91-1.425 13-3z"/><path style="opacity:.998" fill="#90b65b" d="M36.5 335.5c14.763 1.77 21.43 10.103 20 25-15.126.375-22.293-6.959-21.5-22l1.5-3z"/><path style="opacity:1" fill="#13110f" d="M110.5 340.5h7a395.802 395.802 0 0 1 7 36 238.075 238.075 0 0 0-16.5 3 6.293 6.293 0 0 1-3-1 248.8 248.8 0 0 1-6.5-35 151.32 151.32 0 0 1 12-3zM87.5 371.5h5a2060.21 2060.21 0 0 1 6.5 36 73.654 73.654 0 0 1-19.5 4 541.425 541.425 0 0 0-7-35 197.456 197.456 0 0 1 15-5z"/><path style="opacity:.861" fill="#b30000" d="M398.5 380.5c2.865-.445 5.365.222 7.5 2a6352.044 6352.044 0 0 0 48.5 82 668.74 668.74 0 0 0 10.5-34c2.129-4.325 5.296-5.159 9.5-2.5a155.634 155.634 0 0 1 26 12.5c.826.951.992 1.951.5 3-2.401 1.102-4.901 1.269-7.5.5a200.132 200.132 0 0 1-21.5-8.5l-12 42c-3.263 4.049-6.263 3.716-9-1a5493.128 5493.128 0 0 0-52-85 23.179 23.179 0 0 1-10 4c-5.368-2.185-5.868-5.352-1.5-9.5 4.007-1.337 7.673-3.17 11-5.5z"/><path style="opacity:1" fill="#12100e" d="M121.5 388.5h7a289.548 289.548 0 0 0 5.5 27c.821 3.054.655 6.054-.5 9a129.02 129.02 0 0 1-18 4 1053.443 1053.443 0 0 0-7-34.5c.255-1.326.922-2.326 2-3 3.892-.419 7.558-1.252 11-2.5z"/><path style="opacity:.998" fill="#91b75c" d="M141.5 389.5c16.449-.027 29.283 6.639 38.5 20 .124 7.151-3.543 10.151-11 9-11.763-1.099-21.096-6.432-28-16a111.02 111.02 0 0 1-2.5-8 11.948 11.948 0 0 1 3-5z"/><path style="opacity:.997" fill="#91b75c" d="M186.5 414.5c13.533-.633 24.033 4.7 31.5 16 3.253 7.764.586 11.431-8 11-11.763-2.096-20.429-8.429-26-19-.982-3.275-.149-5.941 2.5-8z"/><path style="opacity:.995" fill="#8db25a" d="M350.5 417.5h3a4.934 4.934 0 0 1-.5 3c-7.037 3.85-8.203 9.017-3.5 15.5 4.28 2.477 7.78 1.644 10.5-2.5a56.016 56.016 0 0 1 5.5-13.5c1.284-.684 2.451-.517 3.5.5.667 1.667.667 3.333 0 5-5.409 4.816-8.743 10.816-10 18a553.365 553.365 0 0 0-9 9c.123 6.691.457 13.358 1 20l-2.5 3a68.289 68.289 0 0 0-13 5.5c-6.512 6.815-6.512 13.482 0 20a68.9 68.9 0 0 0 14 2c6.322 2.785 7.488 6.951 3.5 12.5a45.255 45.255 0 0 0-8.5-7.5c-4.711.015-9.378.348-14 1-8.438-10.727-14.438-9.393-18 4 1.074 6.649 3.908 12.483 8.5 17.5.677 6.317-1.656 11.317-7 15-2.997 3.439-3.163 6.939-.5 10.5a31.041 31.041 0 0 1 8 4c-5.75 2.216-9.917.383-12.5-5.5l-1-16c-1.82-5.032-4.82-6.032-9-3a79.965 79.965 0 0 0-4 14c-.423 1.456-1.256 1.956-2.5 1.5-5.417-10.541-3.417-19.541 6-27 6.33-3.136 9.83-8.303 10.5-15.5 1.667-3 4-5.333 7-7 2.222-3.445 1.722-6.445-1.5-9 1.45-1.35 2.117-3.016 2-5a23.788 23.788 0 0 0 10 .5l1.5-1.5 1-11c6.905-1.904 11.572-6.238 14-13v-32c.964-5.267 3.464-9.601 7.5-13z"/><path style="opacity:1" fill="#13110f" d="M93.5 419.5h9a289.2 289.2 0 0 0 5.5 27c.667 3 .667 6 0 9a182.28 182.28 0 0 1-18.5 4 756.042 756.042 0 0 0-7-35c.318-1.147.984-1.981 2-2.5 3.178-.66 6.178-1.493 9-2.5z"/><path style="opacity:1" fill="#13100f" d="M129.5 436.5h9a931.682 931.682 0 0 1 6 32.5l-1 3.5a106.191 106.191 0 0 1-18 3 1445.341 1445.341 0 0 0-7-34.5c.405-.945 1.072-1.612 2-2 3.242-.406 6.242-1.239 9-2.5z"/><path style="opacity:.997" fill="#90b65b" d="M226.5 436.5c13.832-.335 25.665 4.332 35.5 14 7.793 13.217 3.96 18.717-11.5 16.5-11.36-4.586-20.193-12.086-26.5-22.5-.612-3.111.221-5.777 2.5-8z"/><path style="opacity:.998" fill="#90b65c" d="M272.5 460.5c15.708.604 28.541 6.937 38.5 19 3.116 6.012 1.616 10.179-4.5 12.5-13.551.143-24.718-5.023-33.5-15.5-2.784-3.217-4.118-6.884-4-11a27.241 27.241 0 0 1 3.5-5z"/><path style="opacity:1" fill="#12100e" d="M103.5 469.5h10a681.097 681.097 0 0 1 6 36 378.666 378.666 0 0 0-17 3l-2-1a1623.884 1623.884 0 0 1-7-35c3.617-.399 6.95-1.399 10-3z"/><path style="opacity:1" fill="#13100f" d="M140.5 485.5h9a3258.254 3258.254 0 0 1 6 32.5l-1 3.5a89.347 89.347 0 0 1-18 4 541.087 541.087 0 0 1-7-35c.318-1.147.984-1.981 2-2.5 3.297-.204 6.297-1.037 9-2.5z"/><path style="opacity:.743" d="M396.5 501.5c4.596-.072 6.929 2.262 7 7-1.592 11.181-5.426 21.514-11.5 31-.863 3.539-.03 6.539 2.5 9a25.513 25.513 0 0 0 4.5-4 381.318 381.318 0 0 0 9.5-15.5c7.044-2.324 12.71-.491 17 5.5a60.232 60.232 0 0 0 11-12.5c2.847-.944 5.347-.444 7.5 1.5 3.827 6.481 5.827 13.481 6 21l5-5a93.983 93.983 0 0 1 8.5-13.5c5.812-2.309 11.146-1.476 16 2.5 6.722-7.619 14.555-8.952 23.5-4a11.333 11.333 0 0 0 1.5 3.5 76.057 76.057 0 0 0-6 17.5c4.564-.05 8.064-2.05 10.5-6a104.522 104.522 0 0 0 8.5-14.5 27.013 27.013 0 0 0-7-2.5c-1.083-.865-1.249-1.865-.5-3 3.321-1.471 6.821-2.137 10.5-2a82.093 82.093 0 0 1 3.5-12c1.224-2.973 3.224-3.64 6-2l.5 2.5c-.922 3.166-1.422 6.333-1.5 9.5 2.837-1.553 5.337-1.22 7.5 1-3.033 2.94-6.533 5.274-10.5 7-2.219 6.907-2.719 13.907-1.5 21 2.336.523 4.67.023 7-1.5a46.447 46.447 0 0 0 6.5-9.5c1.11-1.537 2.61-2.203 4.5-2 .449 15.577-6.884 22.077-22 19.5-2.973-2.448-4.473-5.614-4.5-9.5-4.374 8.437-11.208 11.937-20.5 10.5-2.667-2-4-4.667-4-8a52.21 52.21 0 0 1 5-14.5c-4.348-1.881-7.848-.881-10.5 3a8.905 8.905 0 0 1-3 4c-.582 11.921-6.749 17.421-18.5 16.5-2.833-1.5-5-3.667-6.5-6.5-7.62 8.6-15.953 9.267-25 2-1.771-2.927-2.438-5.927-2-9-3.828 1.829-6.161 4.829-7 9-3.612 5.059-8.446 7.226-14.5 6.5-2.5-1.167-4.333-3-5.5-5.5-6.843 8.245-13.177 7.912-19-1-3.489 5.327-8.323 7.827-14.5 7.5-1.803-.637-3.136-1.803-4-3.5-2.595 3.233-5.762 4.233-9.5 3-.667-.667-.667-1.333 0-2a69.242 69.242 0 0 0 14.5-19.5c2.425-.986 4.091-.319 5 2-6.861 17.935-4.361 19.101 7.5 3.5.628-11.512 3.295-22.512 8-33 1.059-2.159 2.559-3.826 4.5-5zm45 36a38.287 38.287 0 0 0-7-1.5 18.778 18.778 0 0 0 4.5-5.5c1.523 2.069 2.357 4.403 2.5 7zm27-6c6.641 2.549 6.308 3.716-1 3.5a3.647 3.647 0 0 1-1-1.5 31.147 31.147 0 0 0 2-2zm-59 10c2.954.928 5.954 1.761 9 2.5-5.134 6.566-8.134 5.732-9-2.5zm56 1a40.914 40.914 0 0 1 9 .5c-2.283 3.075-5.117 3.908-8.5 2.5a4.934 4.934 0 0 1-.5-3z"/><path style="opacity:1" fill="#13100f" d="M116.5 515.5c2.579-.417 4.746.25 6.5 2a321.167 321.167 0 0 1 6.5 35 160.496 160.496 0 0 0-17.5 3l-1.5-1a214.674 214.674 0 0 1-7-36c4.535-.637 8.868-1.637 13-3z"/><path style="opacity:.646" fill="#010000" d="M371.5 522.5h5c1.547 3.255.547 5.588-3 7-3.098-1.63-3.765-3.963-2-7z"/><path style="opacity:1" fill="#0c0a08" d="M397.5 503.5c.996-.086 1.829.248 2.5 1a25.238 25.238 0 0 1 0 10 510.391 510.391 0 0 1-10.5 28c.547 9.031 4.047 10.698 10.5 5a191.884 191.884 0 0 0 9.5-16c2.603-1.062 5.27-1.228 8-.5 2.858 1.865 5.358 4.032 7.5 6.5 1.49-.817 2.99-1.65 4.5-2.5 2.94-4.408 6.44-8.242 10.5-11.5 2.983 2.613 4.983 5.946 6 10 1.611 4.646 1.778 9.313.5 14 3.295.278 6.128-1.055 8.5-4a411.315 411.315 0 0 0 10.5-15.5c5.672-1.545 10.339-.045 14 4.5a114.77 114.77 0 0 1 8-7.5c4-.667 8-.667 12 0 1.304.804 1.971 1.971 2 3.5a134.772 134.772 0 0 0-5 15c-.012 2.381.988 4.048 3 5 5.653-1.747 10.153-5.08 13.5-10a48.588 48.588 0 0 0 7.5-17 24.935 24.935 0 0 1-7-.5c2.865-.837 5.698-1.67 8.5-2.5a76.29 76.29 0 0 1 5-13c.366 3.588-.134 7.088-1.5 10.5l1 2.5c1.598-.985 3.265-1.151 5-.5a75.95 75.95 0 0 1-7.5 3.5 114.538 114.538 0 0 0-3.5 18.5c-.023 5.653 2.644 7.987 8 7 5.481-2.083 9.315-5.916 11.5-11.5-1.133 10.456-6.966 14.956-17.5 13.5-3.221-3.47-4.888-7.636-5-12.5a179.938 179.938 0 0 1-11 11.5c-10.239 4.787-14.072 1.621-11.5-9.5a123.817 123.817 0 0 0 4.5-9.5 3.943 3.943 0 0 0-1-2 30.485 30.485 0 0 0-11 0 109.442 109.442 0 0 1-6.5 7.5c.308 10.993-4.859 16.493-15.5 16.5-3.125-2.408-5.125-5.575-6-9.5-2.878 4.042-6.545 7.209-11 9.5-4.118.203-8.118-.464-12-2-3.87-3.712-3.87-7.212 0-10.5 3.665 1.5 6.165 4.167 7.5 8 1.561-7.467.061-14.133-4.5-20a137.538 137.538 0 0 0-9 10.5c-5.338 2.007-8.504 5.841-9.5 11.5-3.447 3.899-7.614 4.899-12.5 3a17.335 17.335 0 0 1-3.5-7 121.924 121.924 0 0 1-8.5 8.5c-5.89.47-8.89-2.363-9-8.5a119.566 119.566 0 0 0-11 8.5c-5.183 1.819-8.016-.014-8.5-5.5-2.064 2.774-4.564 4.607-7.5 5.5 5.36-5.02 9.527-10.853 12.5-17.5-6.042 19.626-2.042 21.959 12 7a1099.725 1099.725 0 0 1 5-24c1.459-5.585 3.959-10.585 7.5-15zm44 34c-.143-2.597-.977-4.931-2.5-7a18.778 18.778 0 0 1-4.5 5.5c2.42.29 4.754.79 7 1.5zm27-6a31.147 31.147 0 0 1-2 2 3.647 3.647 0 0 0 1 1.5c7.308.216 7.641-.951 1-3.5zm-59 10c.866 8.232 3.866 9.066 9 2.5a140.721 140.721 0 0 1-9-2.5zm56 1a4.934 4.934 0 0 0 .5 3c3.383 1.408 6.217.575 8.5-2.5a40.914 40.914 0 0 0-9-.5z"/><path style="opacity:1" fill="#13110f" d="M151.5 532.5h7a237.711 237.711 0 0 1 6 37c-4.834.6-9.667 1.266-14.5 2-1.981-.129-3.647-.796-5-2a439.642 439.642 0 0 0-6.5-31.5 3.943 3.943 0 0 1 1-2c4.186-.95 8.186-2.116 12-3.5z"/></svg>