<svg xmlns="http://www.w3.org/2000/svg" width="200" height="200" style="shape-rendering:geometricPrecision;text-rendering:geometricPrecision;image-rendering:optimizeQuality;fill-rule:evenodd;clip-rule:evenodd"><path style="opacity:1" fill="#f3f7fa" d="M-.5-.5h8c-3.284 1.617-5.95 3.95-8 7v-7z"/><path style="opacity:1" fill="#2f7fb7" d="M7.5-.5h185a44.459 44.459 0 0 1 7 6v188c-1.948 2.972-4.614 4.972-8 6h-75v-58c17.67.167 35.336 0 53-.5 7.542-3.939 10.042-10.105 7.5-18.5-2.378-3.856-5.711-6.523-10-8a145.053 145.053 0 0 1-.5-17c6.675.166 13.342 0 20-.5 3.585-1.916 6.085-4.75 7.5-8.5.667-17 .667-34 0-51-2.496-5.337-6.662-8.004-12.5-8-1.965-1.988-4.298-3.488-7-4.5-46-.667-92-.667-138 0-3.5 1.5-6 4-7.5 7.5-.5 55.666-.667 111.332-.5 167h-22c-2.667-2-5-4.333-7-7V6.5c2.05-3.05 4.716-5.383 8-7z"/><path style="opacity:1" fill="#f2f7fa" d="M192.5-.5h7v6a44.459 44.459 0 0 0-7-6z"/><path style="opacity:1" fill="#2ed771" d="M181.5 29.5a10.136 10.136 0 0 0 1.5 4 600.2 600.2 0 0 1 0 49c-1.512 6.013-5.345 9.346-11.5 10h-20a676.57 676.57 0 0 0-52-1v19c17.508.33 34.841-.003 52-1h4c6.868 1.54 10.534 5.874 11 13-.27 5.709-2.937 9.876-8 12.5a602.33 602.33 0 0 1-59 1.5v63h-71c-.167-55.668 0-111.334.5-167 1.5-3.5 4-6 7.5-7.5 46-.667 92-.667 138 0 2.702 1.012 5.035 2.512 7 4.5z"/><path style="opacity:1" fill="#f6f9f7" d="M69.5 44.5c17.455-1.053 23.289 6.613 17.5 23-5.947 6.348-12.78 7.514-20.5 3.5-8.78-10.03-7.78-18.864 3-26.5z"/><path style="opacity:1" fill="#060606" d="M72.5 51.5c6.804-1.279 10.804 1.388 12 8-2.012 6.34-6.345 8.507-13 6.5-5.546-5.324-5.212-10.157 1-14.5z"/><path style="opacity:1" fill="#f7feed" d="M151.5 92.5v17a676.419 676.419 0 0 1-52 1v-19a676.57 676.57 0 0 1 52 1z"/><path style="opacity:1" fill="#578a80" d="M151.5 92.5h20c-6.145.99-12.478 1.323-19 1v15c1.291-.237 2.291.096 3 1h-4v-17z"/><path style="opacity:1" fill="#104454" d="M181.5 29.5c5.838-.004 10.004 2.663 12.5 8 .667 17 .667 34 0 51-1.415 3.75-3.915 6.584-7.5 8.5-6.658.5-13.325.666-20 .5-.166 5.676.001 11.343.5 17 4.289 1.477 7.622 4.144 10 8 2.542 8.395.042 14.561-7.5 18.5-17.664.5-35.33.667-53 .5v58h-17v-63a602.33 602.33 0 0 0 59-1.5c5.063-2.624 7.73-6.791 8-12.5-.466-7.126-4.132-11.46-11-13-.709-.904-1.709-1.237-3-1v-15c6.522.323 12.855-.01 19-1 6.155-.654 9.988-3.987 11.5-10a600.2 600.2 0 0 0 0-49 10.136 10.136 0 0 1-1.5-4z"/><path style="opacity:1" fill="#f5f8fb" d="M-.5 192.5c2 2.667 4.333 5 7 7h-7v-7z"/><path style="opacity:1" fill="#eff4f9" d="M199.5 193.5v6h-8c3.386-1.028 6.052-3.028 8-6z"/></svg>