<?xml version="1.0" encoding="UTF-8"?>
<!DOCTYPE svg PUBLIC "-//W3C//DTD SVG 1.1//EN" "http://www.w3.org/Graphics/SVG/1.1/DTD/svg11.dtd">
<svg xmlns="http://www.w3.org/2000/svg" version="1.1" width="200px" height="200px" style="shape-rendering:geometricPrecision; text-rendering:geometricPrecision; image-rendering:optimizeQuality; fill-rule:evenodd; clip-rule:evenodd" xmlns:xlink="http://www.w3.org/1999/xlink">
<g><path style="opacity:0.992" fill="#ffc32d" d="M 85.5,-0.5 C 94.8333,-0.5 104.167,-0.5 113.5,-0.5C 161.167,9.16667 189.833,37.8333 199.5,85.5C 199.5,94.8333 199.5,104.167 199.5,113.5C 189.833,161.167 161.167,189.833 113.5,199.5C 104.167,199.5 94.8333,199.5 85.5,199.5C 37.8333,189.833 9.16667,161.167 -0.5,113.5C -0.5,104.167 -0.5,94.8333 -0.5,85.5C 9.16667,37.8333 37.8333,9.16667 85.5,-0.5 Z"/></g>
<g><path style="opacity:1" fill="#fffcf5" d="M 87.5,35.5 C 97.9641,34.9447 108.297,35.778 118.5,38C 122.799,42.1727 122.299,45.6727 117,48.5C 116.333,54.1667 116.333,59.8333 117,65.5C 125.013,92.0365 132.513,118.703 139.5,145.5C 139.083,151.834 136.416,157.001 131.5,161C 121.253,166.709 110.253,169.209 98.5,168.5C 87.3405,169.236 77.0072,166.736 67.5,161C 60.0468,154.639 57.8801,146.806 61,137.5C 68.2025,113.559 75.2025,89.559 82,65.5C 82.6667,59.8333 82.6667,54.1667 82,48.5C 76.7008,45.6727 76.2008,42.1727 80.5,38C 82.9269,37.0977 85.2603,36.2644 87.5,35.5 Z"/></g>
<g><path style="opacity:1" fill="#ffc73f" d="M 89.5,40.5 C 97.2709,40.1312 104.938,40.7978 112.5,42.5C 104.96,44.4747 97.2931,44.9747 89.5,44C 84.4646,43.0013 84.4646,41.8347 89.5,40.5 Z"/></g>
<g><path style="opacity:1" fill="#ffc536" d="M 88.5,49.5 C 95.8082,50.7033 103.141,50.7033 110.5,49.5C 110.334,54.8437 110.501,60.1771 111,65.5C 119.049,91.8646 126.549,118.365 133.5,145C 133.371,149.925 131.371,153.925 127.5,157C 118.362,161.534 108.695,163.367 98.5,162.5C 86.8902,164.06 76.7235,161.06 68,153.5C 66.1624,150.963 65.3291,148.129 65.5,145C 72.4511,118.365 79.9511,91.8646 88,65.5C 88.4994,60.1771 88.666,54.8437 88.5,49.5 Z"/></g>
<g><path style="opacity:1" fill="#fffcf4" d="M 95.5,71.5 C 101.992,71.6582 103.658,74.4916 100.5,80C 93.4159,80.475 91.7492,77.6417 95.5,71.5 Z"/></g>
<g><path style="opacity:1" fill="#fffcf6" d="M 101.5,85.5 C 108.978,85.4849 111.811,89.1516 110,96.5C 108.179,99.9907 105.346,101.157 101.5,100C 94.8987,95.1709 94.8987,90.3376 101.5,85.5 Z"/></g>
<g><path style="opacity:1" fill="#ffebbb" d="M 99.5,109.5 C 92.7529,110.938 86.0862,110.605 79.5,108.5C 81.6345,106.967 84.1345,106.3 87,106.5C 91.5224,106.507 95.6891,107.507 99.5,109.5 Z"/></g>
<g><path style="opacity:1" fill="#fffefd" d="M 79.5,108.5 C 86.0862,110.605 92.7529,110.938 99.5,109.5C 104.111,108.515 108.777,107.848 113.5,107.5C 115.5,107.833 117.5,108.167 119.5,108.5C 122.666,119.161 125.832,129.828 129,140.5C 130.969,148.218 128.136,153.384 120.5,156C 108.956,158.432 97.289,159.098 85.5,158C 79.1995,157.102 74.0328,154.269 70,149.5C 69.3333,146.5 69.3333,143.5 70,140.5C 73.1738,129.798 76.3405,119.132 79.5,108.5 Z"/></g>
</svg>
