<svg xmlns="http://www.w3.org/2000/svg" width="408" height="205" style="shape-rendering:geometricPrecision;text-rendering:geometricPrecision;image-rendering:optimizeQuality;fill-rule:evenodd;clip-rule:evenodd"><path style="opacity:.99" fill="#2c3486" d="M153.5 21.5c0 .667.333 1 1 1 0 .667.333 1 1 1 .262 2.064 1.429 3.397 3.5 4 .483.948.649 1.948.5 3 .571 1.86.571 3.527 0 5h-1c-.333-9.333-.667-9.333-1 0-.667 0-1 .333-1 1a31.629 31.629 0 0 0-10-3 4.934 4.934 0 0 0 .5 3c2.394 1.586 4.561 3.252 6.5 5v1c-1.368 2.279-3.202 2.946-5.5 2a7.292 7.292 0 0 0-2 3 18.489 18.489 0 0 0-3.5-2c-.722.417-1.222 1.084-1.5 2a50.076 50.076 0 0 1-7.5-5c1.333-.333 1.333-.667 0-1 0-.667-.333-1-1-1-.418-.722-1.084-1.222-2-1.5-.017-3.633.15-7.467.5-11.5 3.053-7.827 8.887-10.993 17.5-9.5-.608-.87-1.441-1.37-2.5-1.5-1.465.83-2.965.996-4.5.5 3.648-1.848 7.314-1.682 11 .5a31.98 31.98 0 0 0 1 4z"/><path style="opacity:.008" fill="#15085c" d="M153.5 21.5c2.207-1.37 3.874-.703 5 2-.925 1.062-1.925 1.062-3 0-.667 0-1-.333-1-1-.667 0-1-.333-1-1z"/><path style="opacity:.983" fill="#3e5aa5" d="M262.5 24.5c6.202 4.29 7.535 9.79 4 16.5l2 2c-4.238 4.119-9.238 6.619-15 7.5-2.972-.82-5.639-2.153-8-4a32.915 32.915 0 0 0 4-9c-3.3 1.27-6.633 2.603-10 4a65.145 65.145 0 0 0 1.5-10c.69-2.696 2.19-4.863 4.5-6.5-1.366-2.439-.866-2.939 1.5-1.5 5.372-2.636 10.539-2.303 15.5 1z"/><path style="opacity:.004" fill="#00f" d="M262.5 23.5c1.333.667 1.333.667 0 0z"/><path style="opacity:.004" d="M159.5 30.5a76.345 76.345 0 0 0 15 9c1.114 1.223 1.281 2.556.5 4-.69-1.238-1.19-1.238-1.5 0-.667 0-1-.333-1-1-1.681-1.508-3.681-2.508-6-3h-3v-1c-.409-1.34-1.743-2.34-4-3 .571-1.473.571-3.14 0-5z"/><path style="opacity:.004" fill="#241180" d="M132.5 40.5c.667 0 1 .333 1 1v1c-4.579.16-4.912-.507-1-2z"/><path style="opacity:.898" fill="#7d7b98" d="M156.5 36.5c.667 0 1-.333 1-1h2c2.257.66 3.591 1.66 4 3-1.333.333-1.333.667 0 1h3l1.5 3c1.299-.466 2.799-.466 4.5 0 0 .667.333 1 1 1-.111.617-.444 1.117-1 1.5 3.974 2.65 8.307 4.317 13 5 1.333.667 1.333 1.333 0 2a2.427 2.427 0 0 0 2 .5c.35 2.953-.65 5.287-3 7-.897-1.098-1.73-1.098-2.5 0-5.597-3.914-10.93-7.58-16-11-1.049 1.017-2.216 1.184-3.5.5-.708-2.768-2.208-3.6-4.5-2.5a18.085 18.085 0 0 0-3.5-2 63.17 63.17 0 0 1-7 3.5c-1.634.493-3.301.66-5 .5v-3a18.489 18.489 0 0 1 3.5 2 7.292 7.292 0 0 1 2-3c2.298.946 4.132.279 5.5-2 1.333-.333 1.333-.667 0-1-1.939-1.748-4.106-3.414-6.5-5a4.934 4.934 0 0 1-.5-3 31.629 31.629 0 0 1 10 3z"/><path style="opacity:.004" d="M200.5 44.5c1.101-1.098 2.434-1.265 4-.5a8.435 8.435 0 0 1-4 .5z"/><path style="opacity:.985" fill="#1e3c61" d="M223.5 48.5v1c-1.903.296-3.57.962-5 2-.667 0-1 .333-1 1-1.333.333-1.333.667 0 1-.481 3.85 1.186 5.85 5 6a84.9 84.9 0 0 1-.5 13c-1.417.578-2.25 1.578-2.5 3-.667 0-1 .333-1 1-.667 0-1 .333-1 1-.667 0-1 .333-1 1-1 .333-1.667 1-2 2-.667 0-1 .333-1 1-1.333.333-1.333.667 0 1-.689 1.274-1.523 1.274-2.5 0-.333 1.547.167 2.88 1.5 4-.577 2.05-1.91 3.05-4 3v5h-2c-.277-2.948.056-5.78 1-8.5-.544-.717-1.211-1.217-2-1.5-2.629-1.214-5.296-1.214-8 0-.667 0-1 .333-1 1a18.489 18.489 0 0 1-3.5-2l-1 1c.123-1.95-.877-3.617-3-5-2.129 1.363-2.629 1.03-1.5-1a4.458 4.458 0 0 0-1.5-2c-4.191 1.096-4.691-.07-1.5-3.5-1.306-4.5-1.306-9 0-13.5 2.35-1.713 3.35-4.047 3-7 1.098-.897 1.098-1.73 0-2.5 1.26-1.113 2.427-1.28 3.5-.5.677-2.189 1.844-2.522 3.5-1 .236-.747.57-1.58 1-2.5 1.266-.31 2.433-.81 3.5-1.5l11 4c1.558-.845 2.558-.178 3 2a33.992 33.992 0 0 0 9-3c.383.556.883.89 1.5 1z"/><path style="opacity:.969" fill="#80809d" d="M245.5 46.5c-1.007 2.022-2.674 3.355-5 4-.283.79-.783 1.456-1.5 2-.667-1.333-1.333-1.333-2 0l-1-2a194.03 194.03 0 0 1-12 10c-.383-.556-.883-.89-1.5-1-3.814-.15-5.481-2.15-5-6v-1c0-.667.333-1 1-1 2.198.38 3.865-.287 5-2 2.667-.333 2.667-.667 0-1 .771-2.273 2.104-2.606 4-1 2.532-.364 4.365-1.697 5.5-4 .914 1.154 1.747.987 2.5-.5l-1-1c1.842.068 3.509-.099 5-.5 3.367-1.397 6.7-2.73 10-4a32.915 32.915 0 0 1-4 9zm-5 2v2c-2.667-.667-2.667-1.333 0-2z"/><path style="opacity:.909" fill="#291a4e" d="M239.5 62.5c7.03.505 14.03 1.339 21 2.5 3.888 2.932 3.888 5.932 0 9a104.564 104.564 0 0 1-23.5-4.5c-.414.457-.914.79-1.5 1a28.043 28.043 0 0 0-5-1.5c.837-1.011 1.17-2.178 1-3.5 2.897-1.263 5.564-2.263 8-3z"/><path style="opacity:.957" fill="#261947" d="M152.5 62.5c4.541-.448 8.874.219 13 2a7.248 7.248 0 0 0 2.5-2c2.043 1.977 4.543 2.977 7.5 3-.113 7.162-1.113 7.495-3 1l-2-1c-.249 1.082-.415 2.415-.5 4a3.646 3.646 0 0 0-1.5-1 54.866 54.866 0 0 1-10 2.5l2 1a28.043 28.043 0 0 0-5 1.5 49.722 49.722 0 0 0-5.5-1c-4.374 2.97-8.374 2.636-12-1-.718.95-1.551 1.117-2.5.5l4-5c-.84-1.666-.34-1.833 1.5-.5a187.816 187.816 0 0 1 11.5-4z"/><path style="opacity:.004" d="M219.5 75.5c1.333.667 1.333.667 0 0zM218.5 76.5h1c-.185.67-.519.67-1 0zM217.5 77.5h1c-.185.67-.519.67-1 0zM216.5 78.5h1c-.185.67-.519.67-1 0zM132.5 80.5h1c-.185.67-.519.67-1 0zM214.5 80.5c1.333.667 1.333.667 0 0zM130.5 82.5v-1h2c-.342.838-1.008 1.172-2 1zM213.5 81.5h1c-.185.67-.519.67-1 0z"/><path style="opacity:.911" fill="#84829b" d="M205.5 84.5v9a96.631 96.631 0 0 0-2 6.5c-3.43.638-4.763-.862-4-4.5h-3v-10c.667 0 1-.333 1-1 2.704-1.214 5.371-1.214 8 0z"/><path style="opacity:.95" fill="#271a4f" d="M308.5 103.5c-1.701-.466-3.201-.466-4.5 0-1.017-2.528-2.184-2.528-3.5 0l-2-2c-2.226 2.422-4.56 2.422-7 0-1.147.318-1.981.984-2.5 2-1.626-.354-3.459-.354-5.5 0 1.729-4.165 2.229-8.499 1.5-13-4.287-2.123-7.787-5.123-10.5-9-1.312.96-2.646.794-4-.5l1-1c-1.41-.368-2.41-1.201-3-2.5 7.786-3.33 15.786-3.83 24-1.5 3.467 2.997 4.8 6.83 4 11.5-7.82.984-7.82 1.817 0 2.5l-7 1c5.538.236 11.038.736 16.5 1.5.945.405 1.612 1.072 2 2 .498 2.982.665 5.982.5 9z"/><path style="opacity:.967" fill="#302683" d="M205.5 93.5c-.039 1.724.294 2.057 1 1h2c-.271 1.88.396 3.213 2 4 4.308 12.197-.026 18.03-13 17.5-2.07-.948-3.57-2.448-4.5-4.5l-1 2c-.826-5.089-.492-10.089 1-15a14.694 14.694 0 0 1 3.5-3h3c-.763 3.638.57 5.138 4 4.5a96.631 96.631 0 0 1 2-6.5z"/><path style="opacity:.004" d="M210.5 97.5c1.333.667 1.333.667 0 0z"/><path style="opacity:.982" fill="#261a4d" d="M133.5 80.5c-.333-1.333-.667-1.333-1 0-.992-.172-1.658.162-2 1-1.333.333-1.333.667 0 1a25.65 25.65 0 0 1-5.5 7c-.118 5.992 1.549 10.992 5 15l1-1a79.417 79.417 0 0 0 10 7 3.943 3.943 0 0 1 2-1c.79 1.828 2.29 2.828 4.5 3 1.453 3.486 2.119 7.153 2 11h-6c-.667-1.333-1.333-1.333-2 0-3.027.426-6.194.093-9.5-1-8.501 3.25-15.501 1.25-21-6-.819-6.332 2.014-8.665 8.5-7v-3a62.792 62.792 0 0 0-15.5 1c-4.324-3.6-5.49-8.1-3.5-13.5l-3-1 1-1a457.642 457.642 0 0 0 21-1l-10-1c2.832-1.908 2.499-2.741-1-2.5a15.417 15.417 0 0 0-1-7c.64-3.148 1.64-3.481 3-1 2.528-1.017 2.528-2.184 0-3.5 8.33-1.447 16.996-1.78 26-1-2.104.489-2.438 1.656-1 3.5-.247 1.213-.914 1.88-2 2z"/><path style="opacity:.99" fill="#25194d" d="M308.5 103.5c.722-.418 1.222-1.084 1.5-2 1.934 1.919 1.767 3.419-.5 4.5l-19 1c3.322 2.332 6.989 3.498 11 3.5-.143 4.315-2.143 7.482-6 9.5l1 1a29.517 29.517 0 0 0-4.5 2.5c-6.005-.334-12.171-.334-18.5 0l-2-.5c3.686-1.199 3.353-1.533-1-1-1.801.317-2.134.984-1 2a261.12 261.12 0 0 1-2 7.5c-3.348.585-6.348 1.918-9 4-4.495.02-9.162-.146-14-.5-4.041-3.766-8.374-4.933-13-3.5-1.418-1.808-3.418-2.475-6-2a9.86 9.86 0 0 0-1-6c-.946.487-1.946.82-3 1a181.111 181.111 0 0 0-16-1.5c-.556-.383-.889-.883-1-1.5 2.357.163 4.69-.003 7-.5l-8-1c1.444-1.064 3.111-1.564 5-1.5a106.572 106.572 0 0 0 11 3 1589.96 1589.96 0 0 1 21-2.5c-3.924-.799-3.924-1.299 0-1.5 5.34 1.543 10.673.876 16-2-1.006-.896-1.006-1.562 0-2 1.778.069 3.611.403 5.5 1 .617-.949.451-1.782-.5-2.5l3-1.5c3.762 1.003 6.595 1.003 8.5 0a9.454 9.454 0 0 1 2.5-1.5c-1.173-3.11-.673-3.277 1.5-.5a68.974 68.974 0 0 0 6.5-5c2.041-.354 3.874-.354 5.5 0 .519-1.016 1.353-1.682 2.5-2 2.44 2.422 4.774 2.422 7 0l2 2c1.316-2.528 2.483-2.528 3.5 0 1.299-.466 2.799-.466 4.5 0z"/><path style="opacity:.986" fill="#24194a" d="M147.5 112.5c2.142.19 4.475.356 7 .5a43.385 43.385 0 0 0 8 2c1.318.694 2.151 1.527 2.5 2.5 2.903-1.439 5.57-1.106 8 1 2.976-2.456 6.476-3.456 10.5-3v4c2.697 1.13 5.363 1.13 8 0-2.32 1.53-4.32 3.53-6 6a14.506 14.506 0 0 0 4 5 31.147 31.147 0 0 0-2 2 385.36 385.36 0 0 1-9.5-2 19.602 19.602 0 0 0-3.5 2c-2.685 1.745-5.685 2.745-9 3-3.518-1.022-6.685-1.022-9.5 0a135.758 135.758 0 0 1-10.5-4 16.873 16.873 0 0 1-1-8h5c.119-3.847-.547-7.514-2-11z"/><path style="opacity:.994" fill="#251a50" d="M191.5 119.5a12.93 12.93 0 0 1 5 .5l-2 1c3.317.498 6.65.665 10 .5.111.617.444 1.117 1 1.5 5.363.264 10.697.764 16 1.5a10.305 10.305 0 0 0 3-1 9.86 9.86 0 0 1 1 6c2.582-.475 4.582.192 6 2a52.016 52.016 0 0 0-10 1.5l1 1-3.5 5.5c-1.073-.78-2.24-.613-3.5.5-7.082.884-14.082.551-21-1l1-1-3-1 1-1c-1.255-2.46-3.255-3.627-6-3.5a31.147 31.147 0 0 1 2-2 14.506 14.506 0 0 1-4-5c1.68-2.47 3.68-4.47 6-6z"/><path style="opacity:.004" d="M141.5 123.5h2c-.667 2.667-1.333 2.667-2 0z"/><path style="opacity:.012" fill="#540055" d="M174.5 132.5a2.428 2.428 0 0 1 2 .5c-.937.692-1.603.525-2-.5z"/><path style="opacity:.004" d="M186.5 134.5c1.101-1.098 2.434-1.265 4-.5a8.43 8.43 0 0 1-4 .5zM56.5 152.5c-.667-1.333-.667-1.333 0 0zM61.5 151.5c1.333.667 1.333.667 0 0z"/><path style="opacity:.846" fill="#291a4c" d="M158.5 182.5c-.333-1.333-.667-1.333-1 0a28.208 28.208 0 0 1-4 1.5c-10.244.179-20.41.679-30.5 1.5l-2-2a169.166 169.166 0 0 1 0-26c.17-2.215.837-4.215 2-6a98.524 98.524 0 0 0 28 0c7.539 3.174 9.372 8.341 5.5 15.5 1.924 2.085 2.924 4.585 3 7.5-.229 3.053-.562 5.72-1 8zm-28-24c7.008-.166 14.008 0 21 .5 1.385 1.965 1.218 3.798-.5 5.5l-1-1c-6.211 1.934-12.711 2.601-19.5 2v-7z"/><path style="opacity:.004" d="M286.5 155.5c1.333.667 1.333.667 0 0zM110.5 161.5c1.333.667 1.333.667 0 0z"/><path style="opacity:.008" fill="#605773" d="M317.5 161.5c.886-1.276 1.886-1.276 3 0-.457.798-1.124 1.131-2 1 0-.667-.333-1-1-1z"/><path style="opacity:.819" fill="#5d589b" d="M334.5 165.5c-.689-1.274-1.523-1.274-2.5 0a184.29 184.29 0 0 1-1.5 18c-1.921 1.141-3.921 1.308-6 .5a166.506 166.506 0 0 1-1-25.5c2.894-.458 5.394.209 7.5 2l1.5-1.5a64.218 64.218 0 0 1 16 0c2.579 3.715 3.579 7.882 3 12.5-2.292-.256-4.459.077-6.5 1-.758-2.269-.591-4.436.5-6.5l-1.5-1.5c-3.057.951-6.223 1.284-9.5 1z"/><path style="opacity:.004" d="M110.5 163.5c1.333.667 1.333.667 0 0z"/><path style="opacity:.007" fill="#00f" d="M253.5 163.5c.722.418 1.222 1.084 1.5 2 .173 5.516.673 10.849 1.5 16-.321 1.548-1.321 2.215-3 2v-14c-1.333-2-1.333-4 0-6z"/><path style="opacity:.931" fill="#3e5ca6" d="M200.5 165.5c-2.473-.412-3.806.588-4 3-1.25-.077-2.083-.744-2.5-2l-1 18c-1.707.638-3.54.638-5.5 0 .166-6.342 0-12.675-.5-19a3.647 3.647 0 0 0-1.5-1c-4 1.333-8 1.333-12 0l-2.5 3c-.806 5.584-.639 11.084.5 16.5-2.727.818-5.394.652-8-.5 1.32-7.53 1.32-15.03 0-22.5a7.293 7.293 0 0 1 3-2 121.19 121.19 0 0 1 22 0c1.919 1.934 3.419 1.767 4.5-.5 5.358-.022 10.858.144 16.5.5a48.165 48.165 0 0 1 5 2.5c.882 7.336 1.215 15.003 1 23-2.712-.237-5.212-.237-7.5 0-1.836-1.631-1.336-2.298 1.5-2 .397-5.459-.103-10.792-1.5-16-2.381-.935-4.881-1.268-7.5-1z"/><path style="opacity:.004" d="M200.5 165.5a598.536 598.536 0 0 1-1.5 18c.118-5.433-.715-10.433-2.5-15 .194-2.412 1.527-3.412 4-3zM334.5 165.5c.418.722 1.084 1.222 2 1.5a9.454 9.454 0 0 0-2.5 1.5l-1 14a64.218 64.218 0 0 1 0-16c.383-.556.883-.889 1.5-1z"/><path style="opacity:.835" fill="#4159a1" d="M288.5 184.5c-6.017.879-10.85-.455-14.5-4-.718.951-1.551 1.117-2.5.5-1.333-.667-1.333-1.333 0-2-1.26-1.113-2.427-1.28-3.5-.5-1.346-2.749-2.68-3.083-4-1l-1-4a16.242 16.242 0 0 0 0 8 11.38 11.38 0 0 1 2.5 2 43.117 43.117 0 0 1-13 1v-15h1v14c1.679.215 2.679-.452 3-2v-32h6c-.166 6.009.001 12.009.5 18 2.374-2.27 5.207-3.603 8.5-4a4.934 4.934 0 0 1 .5-3l1 1a6.978 6.978 0 0 1 2.5-3.5 40.914 40.914 0 0 1 9-.5c.613 4.803.28 7.137-1 7-1.96.638-3.793.638-5.5 0-2.32 1.12-4.487 3.12-6.5 6 .845 2.262 2.178 2.929 4 2 1.52 1.35 2.187 2.683 2 4 1.707-3.636 2.874-3.636 3.5 0 2.582.784 4.249 2.451 5 5l1-1a10.134 10.134 0 0 1 1.5 4z"/><path style="opacity:.196" fill="#405ea3" d="M317.5 161.5c.667 0 1 .333 1 1 1.591 3.461 2.258 7.128 2 11-9.087-.332-17.42.001-25 1l2 2v1c2.393 1.45 5.06 2.117 8 2 2.644-.529 5.144-.529 7.5 0a2.428 2.428 0 0 0 .5-2l-2-1c2.107-.968 4.441-1.302 7-1 2.805 3.755 1.805 6.588-3 8.5a121.19 121.19 0 0 1-22 0c-1.561-.318-2.728-1.151-3.5-2.5a169.932 169.932 0 0 1-2.5-14c.855-5.472 4.855-8.639 12-9.5 4.657-.04 9.324.294 14 1a16.58 16.58 0 0 1 4 2.5zm-5 5a59.497 59.497 0 0 1-18 .5c1.129-2.168 2.629-2.668 4.5-1.5 1.438-1.218 3.105-1.885 5-2 3.372.109 6.206 1.109 8.5 3zm-15 11v-1h14l2 1a2.428 2.428 0 0 1-.5 2c-2.356-.529-4.856-.529-7.5 0-2.94.117-5.607-.55-8-2z"/><path style="opacity:.897" fill="#405aa6" d="M253.5 163.5c-1.333 2-1.333 4 0 6h-1c-1 4.232-1.334 9.232-1 15a1423.26 1423.26 0 0 1-28-.5c-3.382-2.019-4.716-5.019-4-9l.5-5.5 1 2c.833-1.5 2-2.667 3.5-3.5-5.867-.745-6.534-3.078-2-7l-1-1a74.602 74.602 0 0 1 23-1c1.829.273 3.329 1.107 4.5 2.5 2.245-1.295 3.745-.628 4.5 2zm-27 4 2-2c4.981-1.228 9.981-1.228 15 0 1.54 1.032 2.04 2.365 1.5 4-5.874-1.93-12.04-2.597-18.5-2z"/><path style="opacity:.004" fill="#000101" d="M152.5 172.5v1c-1.333 1-1.333 2 0 3 .086.996-.248 1.829-1 2.5-7.501.96-14.835.627-22-1 1.333-2.333 1.333-4.667 0-7 7-.667 14-.667 21 0 .544.717 1.211 1.217 2 1.5z"/><path style="opacity:.834" fill="#25194f" d="M61.5 152.5a190.217 190.217 0 0 1 1 27c4.93.303 9.763-.031 14.5-1 .833 2.5 2 2.667 3.5.5-2.186-.604-2.352-1.77-.5-3.5.893 1.211 1.726 1.211 2.5 0a64.538 64.538 0 0 0 4-6.5l-1-1c3.263-.869 3.596-2.203 1-4 .95-.617 1.782-.451 2.5.5a6.977 6.977 0 0 1 2.5-3.5c-1.29-2.09-.624-3.424 2-4-2.429-.451-2.596-1.285-.5-2.5 1.813 1.109 2.646.442 2.5-2 6.385-1.127 10.219 1.54 11.5 8 1.388-1.054 2.888-1.22 4.5-.5-.556.383-.889.883-1 1.5-.978.311-1.645.978-2 2 3.028 3.762 5.528 7.428 7.5 11l1-1a39.992 39.992 0 0 1 2.5 11 13.116 13.116 0 0 1-7-1c.31-1.701-.19-3.368-1.5-5a9681.17 9681.17 0 0 0-23.5 2 4.458 4.458 0 0 1-2 1.5l10 1a32.462 32.462 0 0 1-8 .5v8h-4c1.36-5.25-.64-7.917-6-8-7.002.875-14.336 1.209-22 1a265.228 265.228 0 0 1 1-32c1.6-1.062 3.266-1.062 5 0zm37 13h1c.558 1.29 1.558 2.123 3 2.5-1.667.667-3.333.667-5 0 .752-.671 1.086-1.504 1-2.5zm3 0h-2c1.894-2.687 2.561-2.687 2 0z"/><path style="opacity:.004" fill="#0b0b0f" d="M96.5 164.5c.342.838 1.008 1.172 2 1 .086.996-.248 1.829-1 2.5 1.667.667 3.333.667 5 0-1.442-.377-2.442-1.21-3-2.5h2l3 2c-1.333.333-1.333.667 0 1l1 2c-.667 0-1 .333-1 1a60.93 60.93 0 0 0-11 .5l12 1a98.434 98.434 0 0 1-14 .5 8.435 8.435 0 0 1 .5-4l1 1a10.122 10.122 0 0 0 1.5-4l2-2zm2 1h1c.558 1.29 1.558 2.123 3 2.5-1.667.667-3.333.667-5 0 .752-.671 1.086-1.504 1-2.5z"/><path style="opacity:.004" fill="#170e27" d="M229.5 174.5h12c.79.901 1.79 1.568 3 2v1c-.789.283-1.456.783-2 1.5-5 .667-10 .667-15 0 2.491-.626 2.491-1.459 0-2.5a31.147 31.147 0 0 0 2-2z"/><path style="opacity:.007" d="M295.5 174.5c7.852-.325 15.518.008 23 1-2.559-.302-4.893.032-7 1h-14l-2-2z"/><path style="opacity:.004" d="M157.5 182.5h1c-.333 2.667-.667 2.667-1 0zM195.5 184.5c1.333.667 1.333.667 0 0z"/><path style="opacity:.006" fill="#080111" d="M288.5 184.5a22.394 22.394 0 0 1 8 2.5c-3.039.264-5.706-.569-8-2.5z"/><path style="opacity:.004" d="M195.5 185.5c-.667.667-.667.667 0 0zM192.5 186.5c1.333.667 1.333.667 0 0zM192.5 187.5c-.667.667-.667.667 0 0z"/></svg>