<svg xmlns="http://www.w3.org/2000/svg" width="300" height="212" style="shape-rendering:geometricPrecision;text-rendering:geometricPrecision;image-rendering:optimizeQuality;fill-rule:evenodd;clip-rule:evenodd"><path style="opacity:.969" fill="#7c7c7c" d="M139.5 13.5c11.664 36.254 12.997 72.92 4 110-.172.992.162 1.658 1 2h1c.06.543.393.876 1 1a264.686 264.686 0 0 1 32-5 577.233 577.233 0 0 1 42-1 914.285 914.285 0 0 1 60 6c-.892 29.39-16.058 43.39-45.5 42-12.297.153-24.297-1.513-36-5 7.845 16.795 3.011 28.295-14.5 34.5-6.224 1.061-12.224.394-18-2l-28-20c-11.578-6.021-23.578-10.521-36-13.5 1.478.262 2.811-.071 4-1-1.684-3.112-2.35-6.446-2-10l4-10c2.976-1.179 3.309-2.513 1-4-2.529.429-4.862 1.096-7 2-12.192 2.599-23.192 7.599-33 15a100.08 100.08 0 0 0-30-1c-11.41-.156-18.243-5.822-20.5-17a100.245 100.245 0 0 1 0-20 396.248 396.248 0 0 1 27-53C54.74 52.783 64.24 42.95 74.5 34a356.872 356.872 0 0 0 14-5.5c5.069-7.236 11.735-12.403 20-15.5a191.199 191.199 0 0 1 31 .5z"/><path style="opacity:1" fill="#e5dab8" d="M139.5 13.5c12.815.586 25.148 2.92 37 7-3.452 36.826-14.452 71.16-33 103 8.997-37.08 7.664-73.746-4-110z"/><path style="opacity:1" fill="#fafafa" d="M124.5 18.5v20h12v4h-17v-24h5z"/><path style="opacity:1" fill="#9d9d9d" d="M124.5 18.5c.99 6.145 1.323 12.478 1 19 3.871-.315 7.538.018 11 1h-12v-20z"/><path style="opacity:.994" fill="#719df0" d="M176.5 20.5c17.569 4.51 33.902 11.51 49 21a802.795 802.795 0 0 1-81 84c-.838-.342-1.172-1.008-1-2 18.548-31.84 29.548-66.174 33-103z"/><path style="opacity:1" fill="#93c7bd" d="M225.5 41.5c15.297 9.299 27.963 21.299 38 36a2865.102 2865.102 0 0 1-70 24.5 1604.789 1604.789 0 0 0-48 23.5h-1a802.795 802.795 0 0 0 81-84z"/><path style="opacity:1" fill="#fbfbfb" d="M137.5 55.5v3h-13v6h12v4h-12v6c4.134.985 8.468 1.318 13 1v3h-17v-23h17z"/><path style="opacity:1" fill="#b0b0b0" d="M137.5 58.5c-3.798.983-7.798 1.317-12 1v4c3.871-.315 7.538.018 11 1h-12v-6h13z"/><path style="opacity:1" fill="#d5d5d5" d="M137.5 55.5h-17v23h17v-3c-4.532.318-8.866-.015-13-1h14v5h-19v-25c6.19-.323 12.19.01 18 1z"/><path style="opacity:.999" fill="#d29685" d="M263.5 77.5c11.815 14.107 17.481 30.441 17 49a914.285 914.285 0 0 0-60-6c-5.657-.666-11.49-.999-17.5-1-8.392-.202-16.559.465-24.5 2a264.686 264.686 0 0 0-32 5c-.607-.124-.94-.457-1-1a1604.789 1604.789 0 0 1 48-23.5 2865.102 2865.102 0 0 0 70-24.5z"/><path style="opacity:1" fill="#f3f3f3" d="M127.5 90.5c2.292-.256 4.459.077 6.5 1a920.275 920.275 0 0 1 7.5 23h-6v-4a50.464 50.464 0 0 0-10 .5c-.837 1.011-1.17 2.178-1 3.5h-5a168.88 168.88 0 0 1 8-24z"/><path style="opacity:1" fill="#8c8c8c" d="M129.5 97.5c2.067 1.818 3.4 4.151 4 7a9.86 9.86 0 0 1-6 1 53.76 53.76 0 0 1 2-8z"/><path style="opacity:1" fill="#ac8a80" d="M220.5 120.5a577.233 577.233 0 0 0-42 1c7.941-1.535 16.108-2.202 24.5-2 6.01.001 11.843.334 17.5 1z"/><path style="opacity:1" fill="#f8f8f8" d="M119.5 128.5h16v4h-16v-4z"/><path style="opacity:1" fill="#f4f4f4" d="M186.5 127.5c5.265-.929 9.765.404 13.5 4a8.43 8.43 0 0 1 .5 4c-1.788.285-3.455-.048-5-1-1.588-2.757-3.921-3.59-7-2.5-1.333 1.667-1.333 3.333 0 5a41.746 41.746 0 0 1 12 4.5c2.277 5.609.61 9.443-5 11.5-4.937 1.369-9.104.203-12.5-3.5a8.43 8.43 0 0 1-.5-4c3.458.404 6.625 1.404 9.5 3 3.944.405 5.11-1.095 3.5-4.5a56.087 56.087 0 0 0-10-3c-4.151-4.791-3.818-9.291 1-13.5z"/><path style="opacity:1" fill="#f8f8f8" d="M153.5 128.5a98.432 98.432 0 0 1 14 .5c5.652 2.749 6.318 6.249 2 10.5a11.38 11.38 0 0 0 2.5 2 16.242 16.242 0 0 1 0 8c-1.129 1.641-2.629 2.641-4.5 3h-14v-24z"/><path style="opacity:1" fill="gray" d="M165.5 133.5c2.522 1.502 2.522 2.835 0 4h-7v-4h7z"/><path style="opacity:1" fill="#f7f7f7" d="M119.5 135.5h21c.17 1.322-.163 2.489-1 3.5-6.658.5-13.325.666-20 .5v-4z"/><path style="opacity:1" fill="#a8a8a8" d="M165.5 133.5h-7v4h7c-2.448.973-5.115 1.306-8 1v-6c2.885-.306 5.552.027 8 1z"/><path style="opacity:1" fill="#d48fe1" d="M108.5 141.5c-1.418-1.808-3.418-2.475-6-2 2.138-.904 4.471-1.571 7-2 2.309 1.487 1.976 2.821-1 4z"/><path style="opacity:1" fill="#eb94fb" d="M102.5 139.5c2.582-.475 4.582.192 6 2l-4 10c-.977 2.787-1.31 5.787-1 9h-7c-3.576-2.228-7.576-3.228-12-3a188.197 188.197 0 0 1-15-3c9.808-7.401 20.808-12.401 33-15z"/><path style="opacity:1" fill="#f5f5f5" d="M119.5 142.5h21c.17 1.322-.163 2.489-1 3.5-6.658.5-13.325.666-20 .5v-4z"/><path style="opacity:1" fill="gray" d="M157.5 142.5a40.914 40.914 0 0 1 9 .5c1.333 1.667 1.333 3.333 0 5a40.914 40.914 0 0 1-9 .5v-6z"/><path style="opacity:1" fill="#ececec" d="M120.5 148.5a98.432 98.432 0 0 1 14 .5c.88 1.356 1.214 2.856 1 4.5h-16c-.134-1.792.199-3.458 1-5z"/><path style="opacity:1" fill="#c4c4c4" d="M153.5 128.5v24h14c-4.805.987-9.805 1.321-15 1-.326-8.517.007-16.85 1-25z"/><path style="opacity:1" fill="#d18ede" d="M104.5 151.5c-.35 3.554.316 6.888 2 10-1.189.929-2.522 1.262-4 1-2.198-.375-4.198-1.042-6-2h7c-.31-3.213.023-6.213 1-9z"/><path style="opacity:.206" fill="#c28acd" d="M84.5 157.5c4.424-.228 8.424.772 12 3-4.233-.473-8.233-1.473-12-3z"/></svg>