<svg xmlns="http://www.w3.org/2000/svg" width="200" height="200" style="shape-rendering:geometricPrecision;text-rendering:geometricPrecision;image-rendering:optimizeQuality;fill-rule:evenodd;clip-rule:evenodd"><path style="opacity:1" fill="#010101" d="M-.5-.5h200v200H-.5V-.5z"/><path style="opacity:1" fill="#bdb8c0" d="M44.5 49.5c-3.651-.666-7.485-.999-11.5-1-4.229.01-8.062.677-11.5 2-.904-.709-1.237-1.709-1-3 8.36-.331 16.693.002 25 1-.124.607-.457.94-1 1z"/><path style="opacity:1" fill="#f1f1f0" d="M44.5 49.5a260.805 260.805 0 0 1-8.5 20c-.5 8.994-.666 17.994-.5 27 4.678.166 9.345 0 14-.5-4.105-9.293-1.271-15.46 8.5-18.5 7.353 1.681 10.52 6.348 9.5 14a49.873 49.873 0 0 0-14 1 14.974 14.974 0 0 0 3 3.5 20.68 20.68 0 0 0 9-.5c1.779 1.844 4.112 2.51 7 2v-19h4a4.932 4.932 0 0 0 .5 3c1.942-2.455 4.442-3.788 7.5-4v6c-2.825-.338-4.992.662-6.5 3a50.441 50.441 0 0 0-.5 10h10v-18h5a4.932 4.932 0 0 0 .5 3c4.063-4.699 8.396-5.032 13-1 1.397 5.208 1.897 10.541 1.5 16 2.193 1.297 4.527 1.297 7 0-.124-.607-.457-.94-1-1-3.579-11.91.755-17.41 13-16.5 2.993 1.159 4.66 3.325 5 6.5v5h-14c-.237 1.291.096 2.291 1 3 2.912 3.072 6.412 3.738 10.5 2 2.256 1.585 4.756 2.252 7.5 2v-19h5c-.057 3.633.943 3.8 3 .5a8.435 8.435 0 0 1 4-.5v5c-2.222-.322-4.056.345-5.5 2a256.122 256.122 0 0 0 0 32c.977 1.274 1.811 1.274 2.5 0h7c.342.838 1.008 1.172 2 1 .262 1.478-.071 2.811-1 4-5.012-1.624-9.678-.957-14 2-.788-1.27-1.788-2.27-3-3a45.636 45.636 0 0 1 0-19 2809.857 2809.857 0 0 0-106-1c.328-10.846-.006-21.513-1-32a83.581 83.581 0 0 1-8-19c3.438-1.323 7.271-1.99 11.5-2 4.015.001 7.849.334 11.5 1z"/><path style="opacity:1" fill="#9dc06d" d="M28.5 52.5h8c-2.643 13.308-5.31 13.308-8 0z"/><path style="opacity:1" fill="#0e0e0e" d="M54.5 82.5c3.408-.672 6.075.328 8 3a21.12 21.12 0 0 1-9 1c-.067-1.459.266-2.792 1-4z"/><path style="opacity:1" fill="#0c0c0c" d="M101.5 86.5v10h-8c-.367-4.467.133-8.8 1.5-13 3.758-1.974 5.925-.974 6.5 3z"/><path style="opacity:1" fill="#131313" d="M119.5 82.5a18.437 18.437 0 0 1 6 .5c.837 1.011 1.17 2.178 1 3.5a40.939 40.939 0 0 1-9-.5 18.476 18.476 0 0 0 2-3.5z"/><path style="opacity:1" fill="#6a6a6a" d="M72.5 78.5v19c-2.888.51-5.221-.156-7-2 1.88.841 3.88 1.175 6 1-.323-6.19.01-12.19 1-18z"/><path style="opacity:1" fill="#848484" d="M131.5 85.5c.961 1.765 1.295 3.765 1 6-5.119-.603-9.785.064-14 2-.904-.709-1.237-1.709-1-3h14v-5z"/><path style="opacity:1" fill="gray" d="M101.5 86.5c.982 3.462 1.315 7.129 1 11-3.213.31-6.213-.023-9-1h8v-10z"/><path style="opacity:1" fill="#888" d="M113.5 95.5c.543.06.876.393 1 1-2.473 1.297-4.807 1.297-7 0 2.235.295 4.235-.039 6-1z"/><path style="opacity:1" fill="#818181" d="M29.5 69.5c.994 10.487 1.328 21.154 1 32 35.504-.332 70.837.002 106 1h-107v-33z"/><path style="opacity:1" fill="#8baf4d" d="M152.5 117.5h-7c2.833-13.196 5.166-13.196 7 0z"/><path style="opacity:1" fill="#f6f6f6" d="M98.5 137.5c3.462.982 7.129 1.315 11 1v3h-16v-27h5v23z"/><path style="opacity:1" fill="#879d67" d="M132.5 121.5h-5c-3.361-.796-3.528-1.463-.5-2 2.111.201 3.945.867 5.5 2z"/><path style="opacity:1" fill="#8bbe40" d="M127.5 121.5h7c.343 1.983-.324 3.317-2 4-2.249-.58-3.915-1.913-5-4z"/><path style="opacity:1" fill="#e9f8e5" d="M154.5 118.5a46.198 46.198 0 0 1 8.5 7c.079 5.426.246 10.76.5 16h-3a66.62 66.62 0 0 1-8 4h-9c-1.052-1.756-2.719-2.423-5-2v-2c-1.301-1.382-2.134-3.048-2.5-5a49.974 49.974 0 0 1 .5-15c1.212.73 2.212 1.73 3 3 4.322-2.957 8.988-3.624 14-2 .929-1.189 1.262-2.522 1-4z"/><path style="opacity:1" fill="#8baf51" d="m168.5 143.5-5-2a472.635 472.635 0 0 1-.5-16 46.198 46.198 0 0 0-8.5-7c8.61-10.777 10.61-10.11 6 2l3 1c3.21-1.444 6.543-1.944 10-1.5a34.614 34.614 0 0 0-8 8 82.27 82.27 0 0 0 12 3.5 44.573 44.573 0 0 0-12 4 107.015 107.015 0 0 1 9 8.5 17.65 17.65 0 0 1-6-.5z"/><path style="opacity:1" fill="#ededeb" d="M128.5 129.5c-1.186 1.461-1.186 2.795 0 4v6c-.967 1.306-2.301 1.973-4 2 .065-.438-.101-.772-.5-1-9 4.667-12.667 2-11-8 2.984-2.6 6.484-3.6 10.5-3 .14-1.624-.527-2.79-2-3.5a18.163 18.163 0 0 0-8 .5c-.14-1.624.527-2.79 2-3.5 4.072-.956 7.905-.456 11.5 1.5 1.009 1.525 1.509 3.192 1.5 5z"/><path style="opacity:1" fill="#161617" d="M118.5 132.5h5c1 5-1 7-6 6-.175-2.121.159-4.121 1-6z"/><path style="opacity:1" fill="#52b05e" d="M143.5 124.5a82.484 82.484 0 0 0-2 6.5c.559 4.277 1.226 4.444 2 .5l7-4c-.176 3.533-1.509 6.533-4 9 5.785 2.539 9.118.705 10-5.5-1.815-5.627-5.815-7.793-12-6.5 7.365-3.421 12.032-1.087 14 7-1.997 7.155-6.664 9.988-14 8.5-3.759-3.743-4.926-8.243-3.5-13.5.708-.881 1.542-1.547 2.5-2z"/><path style="opacity:1" fill="#39b74a" d="M143.5 124.5h1c6.185-1.293 10.185.873 12 6.5-.882 6.205-4.215 8.039-10 5.5 2.491-2.467 3.824-5.467 4-9l-7 4c-.774 3.944-1.441 3.777-2-.5a82.484 82.484 0 0 1 2-6.5z"/><path style="opacity:1" fill="#1f2718" d="M128.5 133.5c6.291 1.506 6.291 3.506 0 6v-6z"/><path style="opacity:1" fill="#97b956" d="M134.5 121.5h2a49.974 49.974 0 0 0-.5 15c.366 1.952 1.199 3.618 2.5 5-2.982.463-5.982.796-9 1a5.727 5.727 0 0 0-1-3c6.291-2.494 6.291-4.494 0-6-1.186-1.205-1.186-2.539 0-4 3.393.036 4.727-1.297 4-4 1.676-.683 2.343-2.017 2-4z"/><path style="opacity:1" fill="#8f8f8f" d="M98.5 137.5h12v5c-5.858.322-11.525-.011-17-1h16v-3c-3.871.315-7.538-.018-11-1z"/><path style="opacity:1" fill="#adbd96" d="M128.5 139.5c.61.891.943 1.891 1 3v1a20.69 20.69 0 0 1-5 1v-3c1.699-.027 3.033-.694 4-2z"/><path style="opacity:1" fill="#081004" d="M138.5 141.5v2c-2.526 2.429-3.359 5.429-2.5 9a25.122 25.122 0 0 0 7.5-7h2c2.859 14.494 5.192 14.494 7 0 4.046 1.792 7.546 4.459 10.5 8 .005-4.143-.829-8.143-2.5-12h3l5 2h-4c.944 4.241 1.278 8.407 1 12.5-1.052 1.119-2.219 1.619-3.5 1.5a64.603 64.603 0 0 0-7.5-6c-.705 2.589-.705 5.256 0 8a46.86 46.86 0 0 1-9-2c.258-7.632-1.908-8.632-6.5-3-1.458-1.247-2.958-1.247-4.5 0-.409-3.57-.409-7.236 0-11h-5v-1c3.018-.204 6.018-.537 9-1z"/><path style="opacity:1" fill="#87aa58" d="M138.5 143.5c2.281-.423 3.948.244 5 2a25.122 25.122 0 0 1-7.5 7c-.859-3.571-.026-6.571 2.5-9z"/><path style="opacity:1" fill="#8bb154" d="M145.5 145.5h7c-1.808 14.494-4.141 14.494-7 0z"/><path style="opacity:1" fill="#8eb15d" d="M160.5 141.5c1.671 3.857 2.505 7.857 2.5 12-2.954-3.541-6.454-6.208-10.5-8a66.62 66.62 0 0 0 8-4z"/></svg>