<svg xmlns="http://www.w3.org/2000/svg" width="700" height="503" style="shape-rendering:geometricPrecision;text-rendering:geometricPrecision;image-rendering:optimizeQuality;fill-rule:evenodd;clip-rule:evenodd"><path style="opacity:.997" fill="#15a5ff" d="M345.5-.5h2c-.317 61.66.017 122.993 1 184a3573.153 3573.153 0 0 1-38 90.5c-4.224 1.45-6.724-.05-7.5-4.5-9.513-23.688-19.013-47.355-28.5-71 .31-1.238.81-1.238 1.5 0 .5-62.666.667-125.332.5-188 22.821-5.449 45.821-9.116 69-11z"/><path style="opacity:.998" fill="#18a0ff" d="M347.5-.5h47v453c-14.597 8.12-30.264 13.12-47 15 .167-68.001 0-136.001-.5-204-.69 1.238-1.19 1.238-1.5 0a4285.402 4285.402 0 0 1 35.5-82c7.221-17.453 1.388-25.286-17.5-23.5a17.842 17.842 0 0 0-5.5 4.5c-3.181 7.026-6.348 14.026-9.5 21a8657.974 8657.974 0 0 1-1-184z"/><path style="opacity:.997" fill="#189dff" d="M394.5-.5h13c3.462.982 7.129 1.315 11 1-.66 52.383.007 104.55 2 156.5a7.293 7.293 0 0 0-3 2c.228.399.562.565 1 .5a57.09 57.09 0 0 0-5.5 7c-.667 48-.667 96 0 144 1.273 3.097 3.107 5.764 5.5 8-.438-.065-.772.101-1 .5a7.293 7.293 0 0 0 3 2 1793.87 1793.87 0 0 0-2 119.5 201.367 201.367 0 0 1-24 12V-.5z"/><path style="opacity:.997" fill="#1c99ff" d="M418.5.5a508.41 508.41 0 0 1 82 13c.167 49.334 0 98.668-.5 148a9.454 9.454 0 0 1-2.5 1.5c.228.399.562.565 1 .5-24.361 16.943-29.527 38.61-15.5 65 5.284 6.034 11.451 10.701 18.5 14-1.288 13.126-1.288 26.626 0 40.5-2.772-.052-5.106-1.219-7-3.5-.607.124-.94.457-1 1-7.835-4.015-14.001-2.348-18.5 5a30.485 30.485 0 0 0 0 11c2.696 3.861 5.863 7.194 9.5 10-.438-.065-.772.101-1 .5a73.374 73.374 0 0 0 18 10 2244.61 2244.61 0 0 0-1 94.5 267.644 267.644 0 0 0-41 11.5 1031.253 1031.253 0 0 0-41 17.5 1793.87 1793.87 0 0 1 2-119.5 7.293 7.293 0 0 1-3-2c.228-.399.562-.565 1-.5 6.047 2.77 12.047 2.604 18-.5 2.117-1.731 3.617-3.898 4.5-6.5.667-48.667.667-97.333 0-146-5.769-8.186-13.269-10.186-22.5-6-.438.065-.772-.101-1-.5a7.293 7.293 0 0 1 3-2 3072.132 3072.132 0 0 1-2-156.5z"/><path style="opacity:.997" fill="#14aaff" d="M276.5 10.5c.167 62.668 0 125.334-.5 188-.69-1.238-1.19-1.238-1.5 0a618.284 618.284 0 0 1-12.5-30c-4.027-9.58-11.193-13.08-21.5-10.5-8.562 5.239-10.395 12.405-5.5 21.5a19892.137 19892.137 0 0 1 43.5 101c-.768.763-1.268 1.763-1.5 3-.5 54.332-.667 108.666-.5 163-17.696-13.677-36.696-25.343-57-35v-88c7.674.166 15.341 0 23-.5-15.997-.5-31.997-.667-48-.5-11.671.167-23.338 0-35-.5 28.503-.168 56.836-.668 85-1.5 7.331-1.675 10.998-6.342 11-14-1.206-6.384-4.872-10.884-11-13.5a2948.783 2948.783 0 0 1-77-1.5 380.934 380.934 0 0 1 39-1h13v-263c18.393-7.353 37.393-13.02 57-17z"/><path style="opacity:.996" fill="#1e92ff" d="M500.5 13.5c24.918 5.969 48.584 14.969 71 27 .167 39.335 0 78.668-.5 118-3.185-1.752-6.352-2.085-9.5-1-16.362-2.807-32.696-2.64-49 .5a347.957 347.957 0 0 0-14 5.5c-.438.065-.772-.101-1-.5a9.454 9.454 0 0 0 2.5-1.5c.5-49.332.667-98.666.5-148z"/><path style="opacity:.998" fill="#12adff" d="M219.5 27.5v263h-13v-258c4.034-2.237 8.368-3.904 13-5z"/><path style="opacity:.997" fill="#11b1ff" d="M206.5 32.5v258a380.934 380.934 0 0 0-39 1c-6.924-2.423-11.758-7.09-14.5-14l-1-111c-5.329-9.329-12.829-11.495-22.5-6.5a37.84 37.84 0 0 0-5 5.5 2099.063 2099.063 0 0 1-1-90c25.754-17.712 53.42-32.046 83-43z"/><path style="opacity:.995" fill="#1f8eff" d="M571.5 40.5a148.755 148.755 0 0 1 28 17c.333 39.339 0 78.672-1 118a47.814 47.814 0 0 0-13-10c-.607.124-.94.457-1 1a96.667 96.667 0 0 0-23-9c3.148-1.085 6.315-.752 9.5 1 .5-39.332.667-78.665.5-118z"/><path style="opacity:.996" fill="#208bff" d="M599.5 57.5c16.504 10.499 30.837 23.499 43 39v305c-14.085 4.022-28.418 5.022-43 3 .308-36.691-.025-73.357-1-110 4.093-11.401 4.926-23.067 2.5-35-3.454-10.284-9.954-17.951-19.5-23 .06-.543.393-.876 1-1 6.273 3.607 11.606 8.273 16 14a435.734 435.734 0 0 0 0-59 35.061 35.061 0 0 1-8 6c-.607-.124-.94-.457-1-1 7.071-3.476 9.905-9.142 8.5-17-3.145-5.495-7.645-9.495-13.5-12 .06-.543.393-.876 1-1a47.814 47.814 0 0 1 13 10c1-39.328 1.333-78.661 1-118z"/><path style="opacity:.995" fill="#0eb8ff" d="M123.5 75.5c-.306 30.388.028 60.388 1 90 .172.992-.162 1.658-1 2 .065-.438-.101-.772-.5-1l-1 2c-.667 39-.667 78 0 117 .807 3.949 1.307 3.949 1.5 0 1.268 2.405 1.935 5.072 2 8-.617.111-1.117.444-1.5 1-.5 29.331-.667 58.665-.5 88-24.828-6.605-48.495-15.938-71-28v-217c20.631-24.308 44.298-44.975 71-62z"/><path style="opacity:.986" fill="#2187ff" d="M642.5 96.5c25.258 29.183 42.091 62.849 50.5 101a451.029 451.029 0 0 1 6.5 40v45c-2.431 32.711-11.265 63.711-26.5 93-7.075 12.288-17.241 20.955-30.5 26v-305z"/><path style="opacity:.981" fill="#0cbdff" d="M52.5 137.5v217c-29.244-15.564-46.91-39.564-53-72v-34c6.682-42.36 24.349-79.36 53-111z"/><path style="opacity:1" fill="#fdfdff" d="M561.5 157.5a96.667 96.667 0 0 1 23 9c5.855 2.505 10.355 6.505 13.5 12 1.405 7.858-1.429 13.524-8.5 17a40.914 40.914 0 0 1-9-.5 47.343 47.343 0 0 0-14-7.5c-16.268-6.862-32.935-7.696-50-2.5a39.56 39.56 0 0 0-11.5 9.5c-3.458 8.913-1.625 16.413 5.5 22.5a47.356 47.356 0 0 0 12 5 1654.303 1654.303 0 0 1 48 9.5 124.253 124.253 0 0 1 11 5c9.546 5.049 16.046 12.716 19.5 23 2.426 11.933 1.593 23.599-2.5 35-6.573 11.559-16.24 19.559-29 24-30.214 8.68-58.548 4.68-85-12-3.637-2.806-6.804-6.139-9.5-10a30.485 30.485 0 0 1 0-11c4.499-7.348 10.665-9.015 18.5-5 20.773 16.106 43.773 20.273 69 12.5 10.544-5.248 14.378-13.748 11.5-25.5-.883-2.602-2.383-4.769-4.5-6.5a114.436 114.436 0 0 0-13-6 384.994 384.994 0 0 0-38-7 168.414 168.414 0 0 1-17-5.5c-7.049-3.299-13.216-7.966-18.5-14-14.027-26.39-8.861-48.057 15.5-65a347.957 347.957 0 0 1 14-5.5c16.304-3.14 32.638-3.307 49-.5z"/><path style="opacity:1" fill="#fdfeff" d="M167.5 291.5c25.497.832 51.163 1.332 77 1.5 6.128 2.616 9.794 7.116 11 13.5-.002 7.658-3.669 12.325-11 14-30.002.167-60.002 0-90-.5-14.047-4.221-23.714-13.054-29-26.5-.065-2.928-.732-5.595-2-8v-118c.838-.342 1.172-1.008 1-2a37.84 37.84 0 0 1 5-5.5c9.671-4.995 17.171-2.829 22.5 6.5l1 111c2.742 6.91 7.576 11.577 14.5 14zM274.5 198.5c9.487 23.645 18.987 47.312 28.5 71 .776 4.45 3.276 5.95 7.5 4.5 13.084-30 25.751-60.167 38-90.5 3.152-6.974 6.319-13.974 9.5-21a17.842 17.842 0 0 1 5.5-4.5c18.888-1.786 24.721 6.047 17.5 23.5a4285.402 4285.402 0 0 0-35.5 82 630.034 630.034 0 0 0-19.5 43c-2.46 6.092-6.627 10.592-12.5 13.5-7.45 2.053-13.616.22-18.5-5.5a266.436 266.436 0 0 1-16.5-34 19892.137 19892.137 0 0 0-43.5-101c-4.895-9.095-3.062-16.261 5.5-21.5 10.307-2.58 17.473.92 21.5 10.5a618.284 618.284 0 0 0 12.5 30z"/><path style="opacity:1" fill="#fcfeff" d="M418.5 318.5c-2.393-2.236-4.227-4.903-5.5-8-.667-48-.667-96 0-144a57.09 57.09 0 0 1 5.5-7c9.231-4.186 16.731-2.186 22.5 6 .667 48.667.667 97.333 0 146-.883 2.602-2.383 4.769-4.5 6.5-5.953 3.104-11.953 3.27-18 .5z"/><path style="opacity:1" fill="#12b4ff" d="M123.5 167.5v118c-.193 3.949-.693 3.949-1.5 0-.667-39-.667-78 0-117l1-2c.399.228.565.562.5 1z"/><path style="opacity:1" fill="#2092ff" d="M566.5 187.5c-1.238.31-1.238.81 0 1.5 1.372.402 2.705.902 4 1.5.675 13.229 1.342 26.396 2 39.5-.916.278-1.582.778-2 1.5a1654.303 1654.303 0 0 0-48-9.5 47.356 47.356 0 0 1-12-5c-7.125-6.087-8.958-13.587-5.5-22.5a39.56 39.56 0 0 1 11.5-9.5c17.065-5.196 33.732-4.362 50 2.5z"/><path style="opacity:1" fill="#1f8eff" d="M566.5 187.5a47.343 47.343 0 0 1 14 7.5c2.982.498 5.982.665 9 .5.06.543.393.876 1 1a35.061 35.061 0 0 0 8-6 435.734 435.734 0 0 1 0 59c-4.394-5.727-9.727-10.393-16-14-.607.124-.94.457-1 1a124.253 124.253 0 0 0-11-5c.418-.722 1.084-1.222 2-1.5-.658-13.104-1.325-26.271-2-39.5a28.931 28.931 0 0 0-4-1.5c-1.238-.69-1.238-1.19 0-1.5z"/><path style="opacity:1" fill="#1f92ff" d="M501.5 242.5a168.414 168.414 0 0 0 17 5.5 384.994 384.994 0 0 1 38 7 114.436 114.436 0 0 1 13 6c2.117 1.731 3.617 3.898 4.5 6.5 2.878 11.752-.956 20.252-11.5 25.5-25.227 7.773-48.227 3.606-69-12.5.06-.543.393-.876 1-1 1.894 2.281 4.228 3.448 7 3.5-1.288-13.874-1.288-27.374 0-40.5z"/><path style="opacity:.996" fill="#16a5ff" d="M345.5 263.5c.31 1.238.81 1.238 1.5 0 .5 67.999.667 135.999.5 204-26.242 2.146-49.909-4.854-71-21-.167-54.334 0-108.668.5-163 .232-1.237.732-2.237 1.5-3a266.436 266.436 0 0 0 16.5 34c4.884 5.72 11.05 7.553 18.5 5.5 5.873-2.908 10.04-7.408 12.5-13.5a630.034 630.034 0 0 1 19.5-43z"/><path style="opacity:.992" fill="#17b2ff" d="M125.5 293.5c5.286 13.446 14.953 22.279 29 26.5 29.998.5 59.998.667 90 .5a3596.397 3596.397 0 0 1-85 1.5c11.662.5 23.329.667 35 .5 3.798.983 7.798 1.317 12 1v82a1518.488 1518.488 0 0 1-83-23c-.167-29.335 0-58.669.5-88 .383-.556.883-.889 1.5-1z"/><path style="opacity:.994" fill="#1f8eff" d="M598.5 294.5a3143.235 3143.235 0 0 1 1 110l-28-1a926.675 926.675 0 0 0-2-85c12.76-4.441 22.427-12.441 29-24z"/><path style="opacity:.993" fill="#1d92ff" d="M484.5 306.5c26.452 16.68 54.786 20.68 85 12a926.675 926.675 0 0 1 2 85 391.93 391.93 0 0 0-71 8 2244.61 2244.61 0 0 1 1-94.5 73.374 73.374 0 0 1-18-10c.228-.399.562-.565 1-.5z"/><path style="opacity:.993" fill="#11adff" d="M194.5 322.5c16.003-.167 32.003 0 48 .5-7.659.5-15.326.666-23 .5v88a2154.913 2154.913 0 0 1-13-6v-82c-4.202.317-8.202-.017-12-1z"/><path style="opacity:.968" fill="#208aff" d="M532.5 427.5a3558.565 3558.565 0 0 1-78 64c-10.844-10.407-12.344-22.074-4.5-35 9.727-11.457 21.894-19.291 36.5-23.5a150.393 150.393 0 0 1 46-5.5z"/><path style="opacity:.981" fill="#2187ff" d="M532.5 427.5c12.802.875 23.969 5.542 33.5 14 8.599 11.598 8.599 23.264 0 35-9.718 10.611-21.552 17.778-35.5 21.5a1246.435 1246.435 0 0 1-21 4.5h-28c-9.822-1.5-18.822-5.167-27-11a3558.565 3558.565 0 0 0 78-64z"/></svg>