<svg xmlns="http://www.w3.org/2000/svg" width="202" height="130" style="shape-rendering:geometricPrecision;text-rendering:geometricPrecision;image-rendering:optimizeQuality;fill-rule:evenodd;clip-rule:evenodd"><path style="opacity:.808" fill="#93b3ce" d="M83.5 10.5c-14.38-3.913-28.714-3.913-43 0 2.358-1.629 5.024-2.795 8-3.5 8-.667 16-.667 24 0 3.991.498 7.658 1.665 11 3.5z"/><path style="opacity:.541" fill="#a7c0d6" d="M40.5 10.5c-.762 1.762-2.096 2.762-4 3 .762-1.762 2.096-2.762 4-3z"/><path style="opacity:1" fill="#2570b5" d="M83.5 10.5c1.28 1.431 2.947 2.098 5 2 2.319.492 4.319 1.492 6 3 .473 1.406 1.473 2.073 3 2-2.126.603-4.46.603-7 0-1.28-1.431-2.947-2.098-5-2-1.939-1.663-4.272-2.33-7-2-2.12.175-4.12-.159-6-1-1.464-.66-3.13-.993-5-1-2.705-.184-5.038.483-7 2a325.759 325.759 0 0 1-5-2l-2 1a11.989 11.989 0 0 1 1 6c-2.105 4.756-3.105 9.756-3 15v4c-3.989-.384-7.655.283-11 2-.342.838-1.008 1.172-2 1-1.782-1.22-3.782-1.886-6-2h-8c-.518-5.439.482-10.439 3-15 1.406-.473 2.073-1.473 2-3 1.762-.762 2.762-2.096 3-4 1.904-.238 3.238-1.238 4-3 1.904-.238 3.238-1.238 4-3 14.286-3.913 28.62-3.913 43 0z"/><path style="opacity:.998" fill="#5786bf" d="M60.5 13.5a1464.947 1464.947 0 0 0-6 5 11.989 11.989 0 0 0-1-6l2-1c1.677.687 3.344 1.354 5 2z"/><path style="opacity:.373" fill="#acc5d7" d="M72.5 12.5a73.246 73.246 0 0 0-12 1c1.962-1.517 4.295-2.184 7-2 1.87.007 3.536.34 5 1z"/><path style="opacity:.271" fill="#d7e2ec" d="M83.5 10.5c2.053-.098 3.72.569 5 2-2.053.098-3.72-.569-5-2z"/><path style="opacity:.018" fill="#d1e0eb" d="M78.5 13.5c2.728-.33 5.061.337 7 2-2.652.09-4.986-.576-7-2z"/><path style="opacity:.639" fill="#aabfd6" d="M36.5 13.5c-.762 1.762-2.096 2.762-4 3 .762-1.762 2.096-2.762 4-3z"/><path style="opacity:.063" fill="#e7eef4" d="M85.5 15.5c2.053-.098 3.72.569 5 2-2.053.098-3.72-.569-5-2z"/><path style="opacity:.208" fill="#dbe7ef" d="M94.5 15.5c1.527-.073 2.527.594 3 2-1.527.073-2.527-.594-3-2z"/><path style="opacity:.627" fill="#b3c8da" d="M32.5 16.5c-.238 1.904-1.238 3.238-3 4 .238-1.904 1.238-3.238 3-4z"/><path style="opacity:.894" fill="#91acce" d="M90.5 17.5c2.54.603 4.874.603 7 0 2.353.84 4.353 2.174 6 4a5.577 5.577 0 0 1-3-1c-.963.47-.963 1.137 0 2-3.651-1.159-6.985-2.826-10-5z"/><path style="opacity:.071" fill="#e1eaf1" d="M103.5 21.5c1.527-.073 2.527.594 3 2-1.527.073-2.527-.594-3-2z"/><path style="opacity:.302" fill="#c6d6e5" d="M29.5 20.5c.073 1.527-.594 2.527-2 3-.073-1.527.594-2.527 2-3z"/><path style="opacity:.855" fill="#2868a4" d="M103.5 21.5c.473 1.406 1.473 2.073 3 2a2.429 2.429 0 0 1-.5 2c-.671-.752-1.504-1.086-2.5-1-.473-1.406-1.473-2.073-3-2-.963-.863-.963-1.53 0-2 .917.627 1.917.96 3 1z"/><path style="opacity:.404" fill="#bbcfe1" d="M100.5 22.5c1.527-.073 2.527.594 3 2-1.527.073-2.527-.594-3-2z"/><path style="opacity:.722" fill="#89a9c8" d="M106.5 23.5a31.418 31.418 0 0 1 5 4.5 4.451 4.451 0 0 1-2 1.5c-2.441-1.209-4.441-2.876-6-5 .996-.086 1.829.248 2.5 1a2.429 2.429 0 0 0 .5-2z"/><path style="opacity:.102" fill="#b2d4cc" d="M152.5 33.5c-6.154-.4-12.154.267-18 2 .847-1.466 2.18-2.3 4-2.5 4.852-.815 9.519-.648 14 .5z"/><path style="opacity:.998" fill="#1f7753" d="M152.5 33.5c3.058 7.138.724 10.138-7 9-.934 1.068-1.268 2.401-1 4h8v8c-2.885-.306-5.552.027-8 1v26c-3.937.293-7.77-.04-11.5-1a169.077 169.077 0 0 0-2.5-28 11.184 11.184 0 0 0-1-4.5c.556-1.011 1.222-1.844 2-2.5a32.462 32.462 0 0 1 .5-8c.708-.88 1.542-1.547 2.5-2 5.846-1.733 11.846-2.4 18-2z"/><path style="opacity:.999" fill="#15734f" d="M99.5 34.5v12c-.155 3.353.512 3.686 2 1 1.342-1.293 3.009-2.126 5-2.5 3.527-.807 6.86-.64 10 .5 1.43 1.038 3.097 1.704 5 2 3.333 1.333 5.667 3.667 7 7 1.333 6 1.333 12 0 18-1.667 3.667-4.333 6.333-8 8a75.84 75.84 0 0 1-15 1c-.992.172-1.658-.162-2-1-.473-1.406-1.473-2.073-3-2-.06-.543-.393-.876-1-1-.886.825-1.219 1.825-1 3h-11v-46h12zm12 21c5.645 4.266 6.311 9.266 2 15-5.579 2.143-9.913.81-13-4-.348-3.585.319-6.918 2-10a41.742 41.742 0 0 1 9-1z"/><path style="opacity:.133" fill="#c6d6e3" d="M51.5 33.5c.951 1.419 1.285 3.085 1 5a73.246 73.246 0 0 0-12 1c3.345-1.717 7.011-2.384 11-2v-4z"/><path style="opacity:.118" fill="#e1e8ef" d="M32.5 38.5c2.218.114 4.218.78 6 2-.235.597-.735.93-1.5 1l-4.5-3z"/><path style="opacity:.141" fill="#b2d0c6" d="M50.5 45.5a73.246 73.246 0 0 0-12 1c2.179-1.426 4.679-2.092 7.5-2 1.707.008 3.207.342 4.5 1z"/><path style="opacity:.153" fill="#b5d2c9" d="M75.5 45.5c-4.369-.033-8.702.3-13 1 2.348-1.452 5.014-2.118 8-2 1.87.007 3.536.34 5 1z"/><path style="opacity:.016" fill="#cde2dc" d="M116.5 45.5c2.198-.38 3.865.287 5 2-1.903-.296-3.57-.962-5-2z"/><path style="opacity:.173" fill="#a8c9be" d="M145.5 42.5v3c2.559-.302 4.893.032 7 1h-8c-.268-1.599.066-2.932 1-4z"/><path style="opacity:.998" fill="#237956" d="M50.5 45.5a26.792 26.792 0 0 1 8 4c1.904-.238 3.238-1.238 4-3a77.173 77.173 0 0 1 13-1c.683 1.676 2.017 2.343 4 2 1.673.843 2.84 2.176 3.5 4 .5 9.994.666 19.994.5 30-4.599.3-9.099-.033-13.5-1l-1-23c-4.341-2.01-7.675-1.01-10 3-.5 6.992-.666 13.992-.5 21h-13a111.61 111.61 0 0 0-1.5-24c-3.24-1.536-6.24-1.203-9 1l-1 22c-4.267 1.322-8.434 1.322-12.5 0v-34h11c-.262 1.478.071 2.811 1 4 .607-.124.94-.457 1-1 .762-1.762 2.096-2.762 4-3a73.246 73.246 0 0 1 12-1z"/><path style="opacity:.843" fill="#6ea28e" d="M75.5 45.5c1.88-.27 3.213.396 4 2-1.983.343-3.317-.324-4-2z"/><path style="opacity:.133" fill="#f3faf9" d="m99.5 46.5 2 1c-1.488 2.686-2.155 2.353-2-1z"/><path style="opacity:.729" fill="#76a592" d="M131.5 45.5c-.778.656-1.444 1.489-2 2.5.648 1.44.981 2.94 1 4.5-1.898-1.75-3.231-3.916-4-6.5a12.935 12.935 0 0 1 5-.5z"/><path style="opacity:.303" fill="#7cafa1" d="M34.5 49.5c-.06.543-.393.876-1 1-.929-1.189-1.262-2.522-1-4h-11v34c-.995-11.488-1.328-23.155-1-35h13c-.268 1.599.066 2.932 1 4z"/><path style="opacity:.541" fill="#9cc3b6" d="M62.5 46.5c-.762 1.762-2.096 2.762-4 3 .762-1.762 2.096-2.762 4-3z"/><path style="opacity:.765" fill="#66a692" d="M99.5 34.5h-12v46h11c-3.798.983-7.798 1.317-12 1v-48c4.532-.318 8.866.015 13 1z"/><path style="opacity:.114" fill="#acccc2" d="M111.5 55.5a41.742 41.742 0 0 0-9 1c1.446-1.44 3.279-2.107 5.5-2 1.385.014 2.551.348 3.5 1z"/><path style="opacity:.649" fill="#8fbcaf" d="M152.5 46.5c.977 2.787 1.31 5.787 1 9h-9c2.448-.973 5.115-1.306 8-1v-8z"/><path style="opacity:.125" fill="#fefffe" d="M144.5 55.5h3l-3 3v-3z"/><path style="opacity:.224" fill="#a1cabe" d="M128.5 54.5c1.491 2.686 2.157 5.686 2 9 .157 3.314-.509 6.314-2 9 1.333-6 1.333-12 0-18z"/><path style="opacity:.2" fill="#7caf9e" d="M100.5 66.5c3.087 4.81 7.421 6.143 13 4-3.731 2.501-7.731 2.501-12 0-.929-1.189-1.262-2.522-1-4z"/><path style="opacity:.275" fill="#97c2b5" d="m100.5 78.5-2 2c-.219-1.175.114-2.175 1-3 .607.124.94.457 1 1z"/><path style="opacity:.4" fill="#8ebbae" d="M100.5 78.5c1.527-.073 2.527.594 3 2-1.527.073-2.527-.594-3-2z"/><path style="opacity:.004" fill="#c0d9d1" d="M120.5 80.5c-.418.722-1.084 1.222-2 1.5-4.52.814-8.854.647-13-.5a75.84 75.84 0 0 0 15-1z"/><path style="opacity:.282" fill="#b3d2ca" d="M157.5 85.5c1.447-1.385 2.447-1.052 3 1a5.728 5.728 0 0 0-3-1z"/><path style="opacity:.424" fill="#e0edea" d="M128.5 93.5a17.857 17.857 0 0 1-5-5c.891-1.09 1.891-1.09 3 0 .886-.825 1.219-1.825 1-3-4.623-1.092-6.456.575-5.5 5 4.796 3.517 4.63 5.517-.5 6 1.984 2.26 4.317 2.594 7 1-1.979 3.447-4.479 3.78-7.5 1-.863-2.249-.363-4.082 1.5-5.5-1.944-2.153-2.444-4.653-1.5-7.5 4.834-3.168 7.667-1.835 8.5 4a4.932 4.932 0 0 0-3 .5c1.323.816 1.989 1.983 2 3.5z"/><path style="opacity:.987" fill="#348062" d="M153.5 87.5c-1.21.432-2.21 1.099-3 2 .077 1.25.744 2.083 2 2.5-1.256.417-1.923 1.25-2 2.5.763.768 1.763 1.268 3 1.5.752.67 1.086 1.504 1 2.5h-6v-13c2.281-.423 3.948.244 5 2z"/><path style="opacity:1" fill="#357d5f" d="M128.5 93.5c1.333 1.333 1.333 2.667 0 4-2.683 1.594-5.016 1.26-7-1 5.13-.483 5.296-2.483.5-6-.956-4.425.877-6.092 5.5-5 .219 1.175-.114 2.175-1 3-1.109-1.09-2.109-1.09-3 0a17.857 17.857 0 0 0 5 5z"/><path style="opacity:.592" fill="#92bcaf" d="M153.5 87.5c-1.052-1.756-2.719-2.423-5-2v13h6c-2.107.968-4.441 1.302-7 1v-15h7c.237 1.291-.096 2.291-1 3z"/><path style="opacity:.949" fill="#53937b" d="M183.5 87.5h-3c-.215 1.679.452 2.679 2 3 .838.342 1.172 1.008 1 2h-3v4h3c2.049.206 2.383 1.04 1 2.5-6.243 1.758-8.576-.576-7-7-1.188-7.339 1.479-9.339 8-6-.544.717-1.211 1.217-2 1.5z"/><path style="opacity:.533" fill="#b3cadd" d="M46.5 88.5c2.249.58 3.915 1.913 5 4-2.249-.58-3.915-1.913-5-4z"/><path style="opacity:.796" fill="#478b73" d="M141.5 84.5h3v15h-3v-15z"/><path style="opacity:.043" fill="#e7f3f0" d="M183.5 87.5c-.418.722-1.084 1.222-2 1.5.556.383.889.883 1 1.5-1.548-.321-2.215-1.321-2-3h3z"/><path style="opacity:1" fill="#3375b7" d="M92.5 101.5c.473 1.406 1.473 2.073 3 2 .473 1.406 1.473 2.073 3 2a83.183 83.183 0 0 1 11 5c1.648 1.427 3.648 2.26 6 2.5l8 .5c3.969.206 7.635-.461 11-2 1.548.321 2.215 1.321 2 3-1.527-.073-2.527.594-3 2-2.053-.098-3.72.569-5 2-11.403 2.774-22.736 2.441-34-1-1.602-1.574-3.602-2.241-6-2-1.135-1.713-2.802-2.38-5-2-3.651-1.159-6.985-2.826-10-5-.473-1.406-1.473-2.073-3-2-.992.172-1.658-.162-2-1-.473-1.406-1.473-2.073-3-2-.762-1.762-2.096-2.762-4-3-.762-1.762-2.096-2.762-4-3-.762-1.762-2.096-2.762-4-3-1-.333-1.667-1-2-2-1.085-2.087-2.751-3.42-5-4 4.788-1.328 9.954-1.995 15.5-2l15.5.5a304.058 304.058 0 0 0 15 14.5z"/><path style="opacity:.997" fill="#4c8a6f" d="M112.5 84.5c1.967-.24 3.801.094 5.5 1 .799 4.587.632 9.087-.5 13.5-2.525.896-4.692.396-6.5-1.5-1.022-4.629-.522-8.962 1.5-13zm3 4v7l-2-2v-3l2-2z"/><path style="opacity:.102" fill="#edfbf9" d="m115.5 88.5-2 2c-.219-1.175.114-2.175 1-3 .607.124.94.457 1 1z"/><path style="opacity:.957" fill="#4a896e" d="M172.5 89.5c-.667-2.667-1.333-2.667-2 0v5c.62 2.477 1.62 2.477 3 0 .886.825 1.219 1.825 1 3-1.782 2.187-3.948 2.52-6.5 1a42.479 42.479 0 0 1 0-13c5.141-2.161 7.308-.661 6.5 4.5-.937.692-1.603.525-2-.5z"/><path style="opacity:.153" fill="#f5fcfb" d="M172.5 89.5h-2c.667-2.667 1.333-2.667 2 0z"/><path style="opacity:.382" fill="#dfeeeb" d="M104.5 84.5h4v15h-4v-15z"/><path style="opacity:1" fill="#096849" d="M105.5 85.5c1.3 1.723 1.967 3.89 2 6.5l-1 6.5a43.116 43.116 0 0 1-1-13z"/><path style="opacity:.204" fill="#a9cabf" d="M150.5 89.5c3.942 1.527 3.942 3.194 0 5 .077-1.25.744-2.083 2-2.5-1.256-.417-1.923-1.25-2-2.5z"/><path style="opacity:.983" fill="#56947a" d="M161.5 97.5c-1.462-6.509-2.129-6.175-2 1-.689 1.274-1.523 1.274-2.5 0-.814-4.52-.647-8.854.5-13a5.728 5.728 0 0 1 3 1c1.461 5.287 2.128 4.953 2-1 .689-1.274 1.523-1.274 2.5 0a42.479 42.479 0 0 1 0 13c-1.579 1.3-2.745.966-3.5-1z"/><path style="opacity:.298" fill="#d3e8e3" d="M162.5 85.5c.128 5.953-.539 6.287-2 1l2-1z"/><path style="opacity:.447" fill="#d4e6e2" d="M131.5 84.5a13.118 13.118 0 0 1 7 1 9.107 9.107 0 0 1 1 5h-5a4.934 4.934 0 0 0 .5 3c3.841-1.495 5.174-.162 4 4-2.376 2.244-5.043 2.577-8 1-.773-4.752-.607-9.418.5-14z"/><path style="opacity:.161" fill="#d5e7e3" d="M183.5 92.5a30.968 30.968 0 0 1-2 2 30.968 30.968 0 0 1 2 2h-3v-4h3z"/><path style="opacity:.612" fill="#b9cee0" d="M53.5 94.5c1.904.238 3.238 1.238 4 3-1.904-.238-3.238-1.238-4-3z"/><path style="opacity:.184" fill="#eafaf8" d="m113.5 93.5 2 2c-.06.543-.393.876-1 1-.886-.825-1.219-1.825-1-3z"/><path style="opacity:.118" fill="#c9ddd7" d="M174.5 97.5c.219-1.175-.114-2.175-1-3-1.38 2.477-2.38 2.477-3 0 1.542-.8 3.208-1.134 5-1 .268 1.599-.066 2.932-1 4z"/><path style="opacity:.106" fill="#d5e9e5" d="m161.5 97.5-2 1c-.129-7.175.538-7.509 2-1z"/><path style="opacity:1" fill="#1c7253" d="M132.5 85.5c2.788-.423 4.788.577 6 3-1.544 1.122-2.877.789-4-1-1.333 3-1.333 6 0 9 1.123-1.789 2.456-2.122 4-1-1.468 2.92-3.635 3.587-6.5 2-.762-4.087-.596-8.087.5-12z"/><path style="opacity:.647" fill="#afc5d9" d="M57.5 97.5c1.904.238 3.238 1.238 4 3-1.904-.238-3.238-1.238-4-3z"/><path style="opacity:.824" fill="#539178" d="M94.5 84.5c2.293-.256 4.46.077 6.5 1 .799 4.587.632 9.087-.5 13.5-2.27.758-4.436.591-6.5-.5-.773-4.752-.607-9.418.5-14z"/><path style="opacity:.184" fill="#aed4cc" d="M98.5 93.5c.904.709 1.237 1.709 1 3h-3c-.262-1.478.071-2.811 1-4 .607.124.94.457 1 1z"/><path style="opacity:.494" fill="#bccfe0" d="M61.5 100.5c1.904.238 3.238 1.238 4 3-1.904-.238-3.238-1.238-4-3z"/><path style="opacity:.09" fill="#d5e2ec" d="M92.5 101.5c1.527-.073 2.527.594 3 2-1.527.073-2.527-.594-3-2z"/><path style="opacity:.298" fill="#d6e2ec" d="M65.5 103.5c1.527-.073 2.527.594 3 2-1.527.073-2.527-.594-3-2z"/><path style="opacity:.224" fill="#d4e1eb" d="M95.5 103.5c1.527-.073 2.527.594 3 2-1.527.073-2.527-.594-3-2z"/><path style="opacity:.302" fill="#cddce7" d="M70.5 106.5c1.527-.073 2.527.594 3 2-1.527.073-2.527-.594-3-2z"/><path style="opacity:.506" fill="#99b2cf" d="M136.5 114.5c.215-1.679-.452-2.679-2-3 2.667-1.673 4.667-4.007 6-7 .825-.886 1.825-1.219 3-1-.572 4.816-2.905 8.483-7 11z"/><path style="opacity:.137" fill="#abc6d8" d="M109.5 110.5c8.262 2.123 16.595 2.456 25 1-3.365 1.539-7.031 2.206-11 2l-8-.5c-2.352-.24-4.352-1.073-6-2.5z"/><path style="opacity:.757" fill="#adc3d9" d="M83.5 113.5c2.198-.38 3.865.287 5 2-2.053.098-3.72-.569-5-2z"/><path style="opacity:.584" fill="#bed1e1" d="M88.5 115.5c2.398-.241 4.398.426 6 2-2.286-.095-4.286-.762-6-2z"/><path style="opacity:.071" fill="#e4ecf2" d="M136.5 114.5c-.473 1.406-1.473 2.073-3 2 .473-1.406 1.473-2.073 3-2z"/><path style="opacity:.137" fill="#d3e0ea" d="M133.5 116.5c-1.28 1.431-2.947 2.098-5 2 1.28-1.431 2.947-2.098 5-2z"/></svg>