<svg xmlns="http://www.w3.org/2000/svg" width="276" height="112" style="shape-rendering:geometricPrecision;text-rendering:geometricPrecision;image-rendering:optimizeQuality;fill-rule:evenodd;clip-rule:evenodd"><path style="opacity:1" fill="#0e1116" d="M-.5-.5h276v110a8194.308 8194.308 0 0 0-256 2h-20V-.5z"/><path style="opacity:1" fill="#dce2e7" d="M75.5 48.5v4c-1.291-.237-2.291.096-3 1-.934 1.068-1.268 2.401-1 4 1.068.934 2.401 1.268 4 1v4c-1.599-.268-2.932.066-4 1v20h-7v-20c-.709-.904-1.709-1.237-3-1v-4c1.291.237 2.291-.096 3-1-.334-7.656 3.333-10.656 11-9z"/><path style="opacity:1" fill="#d7dde2" d="M81.5 47.5c4.828-.115 6.16 2.052 4 6.5-6.161.878-7.495-1.289-4-6.5z"/><path style="opacity:1" fill="#8f9499" d="M75.5 48.5c.951 1.419 1.284 3.085 1 5h-4c.709-.904 1.709-1.237 3-1v-4z"/><path style="opacity:1" fill="#85898f" d="M122.5 49.5h-6v34c-.995-11.488-1.328-23.155-1-35 2.559-.302 4.893.032 7 1z"/><path style="opacity:1" fill="#e0e5eb" d="M122.5 49.5a60.93 60.93 0 0 0 .5 11c5.281-4.199 10.281-3.866 15 1a90.896 90.896 0 0 1 1.5 22h-7c.166-6.01-.001-12.01-.5-18-2.153-1.944-4.653-2.444-7.5-1.5a11.339 11.339 0 0 0-1.5 3.5 128.508 128.508 0 0 0-.5 16h-6v-34h6z"/><path style="opacity:1" fill="#85898f" d="M221.5 49.5h-6v34c-.995-11.488-1.328-23.155-1-35 2.559-.302 4.893.032 7 1z"/><path style="opacity:1" fill="#e6ecf1" d="M221.5 49.5v34h-6v-34h6z"/><path style="opacity:1" fill="#d7dde2" d="M145.5 51.5h7v6h4v6h-4v15h4v5c-4.103.73-7.603-.27-10.5-3a145.05 145.05 0 0 1-.5-17h-4v-6h4v-6z"/><path style="opacity:1" fill="#dbe1e6" d="M22.5 83.5v-25c2.321-.271 4.321.395 6 2 .607-.124.94-.457 1-1 2.677-1.932 5.677-2.432 9-1.5 1.833.5 3 1.667 3.5 3.5 3.854-4.17 8.354-5.004 13.5-2.5a6.975 6.975 0 0 1 2.5 3.5c.5 6.992.666 13.992.5 21h-7c.166-6.342 0-12.675-.5-19-2.592-1.482-4.925-1.148-7 1-.5 5.99-.666 11.99-.5 18h-7c.166-6.342 0-12.675-.5-19-2.592-1.482-4.925-1.148-7 1-.5 5.99-.666 11.99-.5 18h-6zM95.5 57.5c5.539-.862 10.372.472 14.5 4 2.468 2.752 1.801 4.085-2 4a44.508 44.508 0 0 1-7.5-3c-2.896.524-3.563 2.024-2 4.5a136.157 136.157 0 0 0 10 3c4.457 5.135 3.79 9.468-2 13-4 .667-8 .667-12 0-2.808-1.793-4.474-4.293-5-7.5 4.097-.114 7.764.886 11 3 3.012.321 4.345-1.012 4-4-5.115-.198-9.448-2.032-13-5.5-2.18-5.176-.846-9.01 4-11.5z"/><path style="opacity:1" fill="#dde3e8" d="M166.5 57.5c14.837-.363 20.003 6.637 15.5 21-4.491 4.76-9.991 6.26-16.5 4.5-7.006-4.904-8.839-11.404-5.5-19.5 1.914-2.356 4.081-4.356 6.5-6zM193.5 57.5c14.837-.363 20.003 6.637 15.5 21-4.491 4.76-9.991 6.26-16.5 4.5-7.006-4.904-8.839-11.404-5.5-19.5 1.914-2.356 4.081-4.356 6.5-6z"/><path style="opacity:1" fill="#dbe1e6" d="M230.5 57.5c5.539-.862 10.372.472 14.5 4 2.468 2.752 1.801 4.085-2 4a44.508 44.508 0 0 1-7.5-3c-2.896.524-3.563 2.024-2 4.5a136.157 136.157 0 0 0 10 3c4.457 5.135 3.79 9.468-2 13-4 .667-8 .667-12 0-2.808-1.793-4.474-4.293-5-7.5 4.097-.114 7.764.886 11 3 3.012.321 4.345-1.012 4-4-5.115-.198-9.448-2.032-13-5.5-2.179-5.176-.846-9.01 4-11.5z"/><path style="opacity:1" fill="#a3a8ad" d="M29.5 59.5c-.06.543-.393.876-1 1-1.679-1.605-3.679-2.271-6-2v25c-.993-8.484-1.326-17.15-1-26 3.033-.368 5.7.298 8 2z"/><path style="opacity:1" fill="#80858a" d="M64.5 57.5c-.709.904-1.709 1.237-3 1v4c1.291-.237 2.291.096 3 1h-4v-6h4z"/><path style="opacity:1" fill="#767a80" d="M71.5 57.5h5v6h-5c1.068-.934 2.401-1.268 4-1v-4c-1.599.268-2.932-.066-4-1z"/><path style="opacity:1" fill="#888c91" d="M86.5 58.5h-6v25c-.993-8.484-1.326-17.15-1-26 2.56-.302 4.893.032 7 1z"/><path style="opacity:1" fill="#e5ebf0" d="M86.5 58.5v25h-6v-25h6z"/><path style="opacity:1" fill="#16181d" d="M169.5 62.5c5.097.172 7.43 2.84 7 8-.163 7.376-3.329 9.376-9.5 6-2.582-5.38-1.749-10.047 2.5-14zM196.5 62.5c5.097.172 7.43 2.84 7 8-.163 7.376-3.329 9.376-9.5 6-2.582-5.38-1.749-10.047 2.5-14z"/><path style="opacity:1" fill="#21262b" d="M275.5 109.5v2h-256a8194.308 8194.308 0 0 1 256-2z"/></svg>