<svg xmlns="http://www.w3.org/2000/svg" width="368" height="114" style="shape-rendering:geometricPrecision;text-rendering:geometricPrecision;image-rendering:optimizeQuality;fill-rule:evenodd;clip-rule:evenodd"><path style="opacity:1" fill="#010101" d="M-.5-.5h368v114H-.5V-.5z"/><path style="opacity:1" fill="#f6f6f6" d="M130.5 27.5c14.588-2.534 25.921 2.3 34 14.5a25.249 25.249 0 0 1-10 0c-8.859-8.72-18.526-9.72-29-3-9.398 9.133-10.565 19.3-3.5 30.5 8.234 8.845 17.734 10.345 28.5 4.5 3.674-3.578 8.007-4.41 13-2.5-7.705 11.189-18.372 15.689-32 13.5-16.258-6.352-23.425-18.186-21.5-35.5 3.285-10.78 10.119-18.114 20.5-22z"/><path style="opacity:1" fill="#f5f5f5" d="M215.5 27.5c19.031-2.583 31.531 5.084 37.5 23 .154 24.512-12.013 36.012-36.5 34.5-20.777-9.001-26.61-23.834-17.5-44.5 4.166-6.15 9.666-10.483 16.5-13zM327.5 26.5c11.79-.8 18.457 4.534 20 16h-9c.151-4.849-2.183-7.516-7-8-9.266 3.163-10.266 7.996-3 14.5 6.811 1.483 12.644 4.65 17.5 9.5 3.208 6.624 3.208 13.29 0 20-9.708 9.326-19.374 9.326-29 0a36.488 36.488 0 0 1-3.5-11h9c1.097 9.717 6.097 12.384 15 8 3.961-4.464 3.961-8.964 0-13.5a91.945 91.945 0 0 1-17-8c-8.436-11.924-6.102-21.09 7-27.5z"/><path style="opacity:1" fill="#4e4e4e" d="M35.5 28.5h-13v56a812.816 812.816 0 0 1-1-57c4.863-.32 9.53.014 14 1z"/><path style="opacity:1" fill="#fafafa" d="M35.5 28.5a3310.506 3310.506 0 0 0 16.5 42 2858.684 2858.684 0 0 1 17.5-42h12v56h-7c.167-16.004 0-32.004-.5-48-1.039.744-1.539 1.744-1.5 3a853.11 853.11 0 0 1-18 44.5c-3.327.97-5.493-.197-6.5-3.5l-17-43c-.5 15.663-.667 31.33-.5 47h-8v-56h13z"/><path style="opacity:1" fill="#acacac" d="M69.5 28.5c4.134-.985 8.468-1.318 13-1a812.816 812.816 0 0 1-1 57v-56h-12z"/><path style="opacity:1" fill="#4b4b4b" d="M101.5 28.5h-8v56a812.816 812.816 0 0 1-1-57c3.213-.31 6.213.023 9 1z"/><path style="opacity:1" fill="#fefefe" d="M101.5 28.5v56h-8v-56h8z"/><path style="opacity:1" fill="#4c4c4c" d="M270.5 28.5h-9v56a813 813 0 0 1-1-57c3.542-.313 6.875.02 10 1z"/><path style="opacity:1" fill="#fcfcfc" d="M270.5 28.5a1304.175 1304.175 0 0 1 26 41c.06.543.393.876 1 1a441.816 441.816 0 0 0 1-42h7v56c-3.507.507-6.674-.16-9.5-2a1304.175 1304.175 0 0 0-26-41c-.5 14.33-.667 28.663-.5 43h-8v-56h9z"/><path style="opacity:1" fill="#a1a1a1" d="M305.5 84.5v-56h-7a441.816 441.816 0 0 1-1 42c-.607-.124-.94-.457-1-1a441.585 441.585 0 0 0 1-42h9a813 813 0 0 1-1 57z"/><path style="opacity:1" fill="#030303" d="M218.5 34.5c12.248-1.295 20.748 3.705 25.5 15 1.812 21.857-8.022 30.69-29.5 26.5-14.292-10.96-15.625-23.293-4-37a48.484 48.484 0 0 1 8-4.5z"/><path style="opacity:1" fill="#8c8c8c" d="m74.5 84.5-2-45c-.039-1.256.461-2.256 1.5-3 .5 15.996.667 31.996.5 48z"/><path style="opacity:1" fill="#5a5a5a" d="M171.5 42.5c2.448-.973 5.115-1.306 8-1-.237 1.291.096 2.291 1 3-.06.543-.393.876-1 1-.886-.825-1.219-1.825-1-3h-7z"/><path style="opacity:1" fill="#fafafa" d="M187.5 41.5c1.869 2.135 2.536 4.802 2 8-4.184.344-7.351 2.344-9.5 6-.5 9.66-.666 19.328-.5 29h-8v-42h7c-.219 1.175.114 2.175 1 3 .607-.124.94-.457 1-1 1.926-1.793 4.259-2.793 7-3z"/><path style="opacity:1" fill="#676767" d="M187.5 41.5c.709-.904 1.709-1.237 3-1 .31 3.213-.023 6.213-1 9 .536-3.198-.131-5.865-2-8z"/></svg>