<svg xmlns="http://www.w3.org/2000/svg" width="578" height="154" style="shape-rendering:geometricPrecision;text-rendering:geometricPrecision;image-rendering:optimizeQuality;fill-rule:evenodd;clip-rule:evenodd"><path style="opacity:1" fill="#010101" d="M-.5-.5h578v154H-.5V-.5z"/><path style="opacity:1" fill="#e49636" d="M124.5 43.5c16.06-.612 22.227 7.054 18.5 23-3.7 9.017-10.2 11.85-19.5 8.5-6.637-5.71-8.804-12.877-6.5-21.5 1.317-4.337 3.817-7.67 7.5-10z"/><path style="opacity:1" fill="#f1f1f1" d="M247.5 43.5c9.868-2.195 15.868 1.472 18 11h-7c-.28-4.99-2.947-6.824-8-5.5-3.44 2.38-4.773 5.713-4 10-.413 4.12.587 7.787 3 11a12.5 12.5 0 0 0 7 0c1.537-1.11 2.203-2.61 2-4.5a13.118 13.118 0 0 1 7 1c-2.642 8.29-8.309 11.456-17 9.5-4.552-1.588-7.385-4.755-8.5-9.5-2.544-9.532-.044-17.2 7.5-23z"/><path style="opacity:1" fill="#f2f2f2" d="M278.5 43.5c8.551-1.64 14.718 1.36 18.5 9 1.356 7.076.356 13.743-3 20-9.942 6.722-17.609 4.722-23-6-2.547-9.494-.047-17.16 7.5-23z"/><path style="opacity:1" fill="#f0f0f0" d="M371.5 43.5c6.921-1.457 12.421.543 16.5 6a8.43 8.43 0 0 1 .5 4h-7c-.674-4.651-3.341-6.151-8-4.5-2.667 2-2.667 4 0 6 5.032 1.598 9.532 4.098 13.5 7.5 3.014 6.472 1.181 10.972-5.5 13.5-9.613 2.368-15.613-1.132-18-10.5a13.118 13.118 0 0 1 7 1c2.287 5.297 5.787 6.297 10.5 3 .825-2.2.325-4.034-1.5-5.5-5.323-1.077-9.823-3.577-13.5-7.5-1.898-6.113-.065-10.447 5.5-13z"/><path style="opacity:1" fill="#8a8a8a" d="M34.5 43.5v32h6c-2.107.968-4.44 1.302-7 1-.328-11.18.005-22.18 1-33z"/><path style="opacity:1" fill="#f5f5f5" d="M34.5 43.5c2.947-.277 5.78.056 8.5 1a288.51 288.51 0 0 0 8 21 785.27 785.27 0 0 0 7.5-21 21.12 21.12 0 0 1 9-1v32h-6v-12a50.441 50.441 0 0 0-.5-10 185.116 185.116 0 0 0-7.5 23c-1.788.285-3.455-.048-5-1a719.81 719.81 0 0 1-7.5-20c-.5 6.658-.666 13.325-.5 20h-6v-32z"/><path style="opacity:1" fill="#f9f9f9" d="M75.5 43.5h6v33h-6v-33z"/><path style="opacity:1" fill="#f8f8f8" d="M87.5 43.5h25v6h-9c-.993 8.484-1.326 17.15-1 26h-6v-26c-2.787-.977-5.787-1.31-9-1v-5z"/><path style="opacity:1" fill="#6c4719" d="M150.5 43.5v32h6c-2.107.968-4.441 1.302-7 1-.328-11.18.005-22.18 1-33z"/><path style="opacity:1" fill="#e99937" d="M150.5 43.5c5.344-.166 10.677 0 16 .5 8.533 4.028 10.199 10.028 5 18-4.723 2.236-9.723 3.069-15 2.5v11h-6v-32z"/><path style="opacity:1" fill="#e49635" d="M201.5 43.5v5c-4.863-.32-9.53.014-14 1v7h12v5h-13c-.31 3.213.023 6.213 1 9h14v6h-21v-33h21z"/><path style="opacity:1" fill="#ee9d38" d="M225.5 63.5c.06.543.393.876 1 1 .997-6.633 1.33-13.3 1-20h5v31h-6l-11-18c-.283-.79-.783-1.456-1.5-2-.5 6.658-.666 13.325-.5 20h-6v-32a13.118 13.118 0 0 1 7 1 270.483 270.483 0 0 1 11 19z"/><path style="opacity:1" fill="#ae7329" d="M226.5 75.5h6v-31h-5c.33 6.7-.003 13.367-1 20-.607-.124-.94-.457-1-1 .991-6.479 1.324-13.146 1-20h7v33c-2.559.302-4.893-.032-7-1z"/><path style="opacity:1" fill="#f3f3f3" d="M304.5 68.5v-24h5c-.325 7.187.009 14.187 1 21-.203 1.89.463 3.39 2 4.5 2.599.769 5.099.602 7.5-.5a119.884 119.884 0 0 0 1.5-26h7c.166 8.007 0 16.007-.5 24-.833 4.833-3.667 7.667-8.5 8.5-5.169 1.295-9.669.128-13.5-3.5a10.136 10.136 0 0 1-1.5-4z"/><path style="opacity:1" fill="#c5c5c5" d="M310.5 65.5c-.991-6.813-1.325-13.813-1-21h-5v24c-.993-8.15-1.326-16.483-1-25h7v22z"/><path style="opacity:1" fill="#f2f2f2" d="M335.5 43.5c5.344-.166 10.677 0 16 .5 6.295 2.425 8.462 6.925 6.5 13.5a18.061 18.061 0 0 1-4.5 5.5 48.935 48.935 0 0 1 6 13.5 13.118 13.118 0 0 1-7-1l-5-10a9.864 9.864 0 0 0-6-1v12h-6v-33z"/><path style="opacity:1" fill="#eee" d="M413.5 61.5h-13c-.31 3.213.023 6.213 1 9h14v6h-21v-33h21v6h-14v7h12v5zM449.5 75.5c-2.45.202-4.783-.131-7-1a392.647 392.647 0 0 0-4.5-19l-5 20c-2.333 1.333-4.667 1.333-7 0a1636.279 1636.279 0 0 1-6.5-32h7c.839 7.367 2.006 14.7 3.5 22a257.797 257.797 0 0 0 4.5-22h7a259.1 259.1 0 0 0 4.5 22 367.606 367.606 0 0 1 4-20c1.754-1.75 3.921-2.417 6.5-2a445.048 445.048 0 0 1-7 32z"/><path style="opacity:1" fill="#f5f5f5" d="M487.5 74.5c-1.765.961-3.765 1.295-6 1-.806-1.497-1.472-3.164-2-5a24.558 24.558 0 0 0-12-.5 18.158 18.158 0 0 0-2 5.5c-2.582.475-4.582-.192-6-2a313.364 313.364 0 0 1 11-29.5c3.651-1.123 6.151.044 7.5 3.5a1303.695 1303.695 0 0 1 9.5 27z"/><path style="opacity:1" fill="#a4a4a4" d="M493.5 43.5v32h6c-2.107.968-4.441 1.302-7 1-.328-11.18.005-22.18 1-33z"/><path style="opacity:1" fill="#f2f2f2" d="M493.5 43.5c6.891-.599 13.558.235 20 2.5 4.308 6.185 3.642 11.851-2 17a215.189 215.189 0 0 0 6 12.5c-2.333 1.333-4.667 1.333-7 0l-5-10a9.864 9.864 0 0 0-6-1v11h-6v-32z"/><path style="opacity:1" fill="#7b7b7b" d="M523.5 43.5v32h21c-7.148.992-14.481 1.325-22 1-.328-11.18.005-22.18 1-33z"/><path style="opacity:1" fill="#f6f6f6" d="M523.5 43.5h21v6h-15v7c3.798.983 7.798 1.317 12 1v4c-4.202-.317-8.202.017-12 1v8h15v5h-21v-32z"/><path style="opacity:1" fill="#8e8e8e" d="M87.5 43.5v5c3.213-.31 6.213.023 9 1h-10c-.295-2.235.039-4.235 1-6z"/><path style="opacity:1" fill="#774e1c" d="M201.5 43.5c.961 1.765 1.295 3.765 1 6h-15c4.47-.986 9.137-1.32 14-1v-5z"/><path style="opacity:1" fill="#848484" d="M103.5 49.5v27c-2.559.302-4.893-.032-7-1h6c-.326-8.85.007-17.516 1-26z"/><path style="opacity:1" fill="#070401" d="M127.5 48.5c3.773-.678 6.606.656 8.5 4a49.226 49.226 0 0 1 0 14c-2.053 3.792-5.219 4.958-9.5 3.5-1.393-1.171-2.227-2.671-2.5-4.5-1.513-6.37-.347-12.036 3.5-17z"/><path style="opacity:1" fill="#0f0903" d="M156.5 49.5a40.939 40.939 0 0 1 9 .5c2.918 3.472 2.585 6.472-1 9a32.438 32.438 0 0 1-8 .5v-10z"/><path style="opacity:1" fill="#060606" d="M281.5 48.5c3.773-.678 6.606.656 8.5 4a49.226 49.226 0 0 1 0 14c-2.053 3.792-5.219 4.958-9.5 3.5-1.393-1.171-2.227-2.671-2.5-4.5-1.513-6.37-.347-12.036 3.5-17z"/><path style="opacity:1" fill="#0a0a0a" d="M341.5 49.5a40.939 40.939 0 0 1 9 .5c1.577 2.957 1.244 5.624-1 8a32.438 32.438 0 0 1-8 .5v-9z"/><path style="opacity:1" fill="#010101" d="M499.5 49.5a32.438 32.438 0 0 1 8 .5c2.667 2.667 2.667 5.333 0 8a32.438 32.438 0 0 1-8 .5v-9z"/><path style="opacity:1" fill="#161616" d="M476.5 62.5c-2.107.968-4.441 1.302-7 1a209.77 209.77 0 0 1 3.5-11 25.604 25.604 0 0 1 3.5 10z"/><path style="opacity:1" fill="#624017" d="M215.5 57.5c-.99 6.145-1.323 12.478-1 19-2.559.302-4.893-.032-7-1h6c-.166-6.675 0-13.342.5-20 .717.544 1.217 1.21 1.5 2z"/><path style="opacity:1" fill="#a3a3a3" d="M529.5 56.5h13v6h-13c3.798-.983 7.798-1.317 12-1v-4c-4.202.317-8.202-.017-12-1z"/><path style="opacity:1" fill="#895a20" d="M199.5 61.5c-3.798.983-7.798 1.317-12 1v8c-.977-2.787-1.31-5.787-1-9h13z"/><path style="opacity:1" fill="#818181" d="M413.5 61.5c-3.798.983-7.798 1.317-12 1v8c-.977-2.787-1.31-5.787-1-9h13z"/><path style="opacity:1" fill="#939393" d="M476.5 62.5c.543.06.876.393 1 1-2.809 1.3-5.476 1.3-8 0 2.559.302 4.893-.032 7-1z"/><path style="opacity:1" fill="#919191" d="M61.5 63.5v12h6c-2.107.968-4.44 1.302-7 1-.318-4.532.015-8.866 1-13z"/><path style="opacity:1" fill="#747474" d="M442.5 74.5c2.217.869 4.55 1.202 7 1-.949.652-2.115.986-3.5 1-1.681-.108-2.848-.775-3.5-2z"/><path style="opacity:1" fill="#848484" d="M459.5 73.5c1.418 1.808 3.418 2.475 6 2-2.107.968-4.441 1.302-7 1-.237-1.291.096-2.291 1-3z"/><path style="opacity:1" fill="#777" d="M487.5 74.5c.543.06.876.393 1 1-2.473 1.297-4.807 1.297-7 0 2.235.295 4.235-.039 6-1z"/><path style="opacity:1" fill="#7a7a7a" d="M213.5 90.5a60.94 60.94 0 0 0-11 .5c1.558.21 2.891.71 4 1.5h-5v-3c4.202-.317 8.202.017 12 1z"/><path style="opacity:1" fill="#939393" d="M36.5 90.5c-1.953 5.574-2.62 11.574-2 18-.99-6.145-1.324-12.478-1-19 1.291-.237 2.291.096 3 1z"/><path style="opacity:1" fill="#979797" d="M131.5 97.5c-.814-2.131-1.314-4.464-1.5-7a162.595 162.595 0 0 0-.5 18c-.99-6.145-1.323-12.478-1-19h3v8z"/><path style="opacity:1" fill="#eee" d="M138.5 100.5c-2.448-.973-5.115-1.306-8-1v9h-1c-.166-6.009.001-12.01.5-18 .186 2.536.686 4.869 1.5 7h7a16.874 16.874 0 0 1 1-8 45.636 45.636 0 0 1 0 19 16.873 16.873 0 0 1-1-8zM145.5 89.5c1.789 4.907 2.622 10.24 2.5 16 2.33 1.532 4.33 1.198 6-1 .171-5.033.671-10.033 1.5-15a43.233 43.233 0 0 1 .5 16 9.454 9.454 0 0 1-1.5 2.5c-3.169.978-6.003.478-8.5-1.5a145.05 145.05 0 0 1-.5-17z"/><path style="opacity:1" fill="#ddd" d="M163.5 89.5c3.974-.35 6.64 1.317 8 5-.825.886-1.825 1.219-3 1-1.338-5.155-3.338-5.321-6-.5a81.141 81.141 0 0 0 8.5 6.5c.996 4.508-.837 6.841-5.5 7-3.748-.057-5.082-1.724-4-5 1.241 2.644 3.241 3.477 6 2.5a4.933 4.933 0 0 0 1-2.5c-2.147-2.339-4.647-4.339-7.5-6-.982-3.275-.149-5.941 2.5-8z"/><path style="opacity:1" fill="#898989" d="M184.5 90.5h-9v18c-.99-6.145-1.323-12.478-1-19 3.542-.313 6.875.02 10 1z"/><path style="opacity:1" fill="#dadada" d="M184.5 90.5c-1.779 1.844-4.112 2.51-7 2v5h6v3h-6v6a13.116 13.116 0 0 1 7 1 21.127 21.127 0 0 1-9 1v-18h9z"/><path style="opacity:1" fill="#dedede" d="M192.5 108.5v-17h-5c3.529-1.923 7.529-2.59 12-2v3h-5c.613 5.77-.054 11.104-2 16z"/><path style="opacity:1" fill="#f3f3f3" d="M213.5 90.5v1h-5v17c-1.946-4.896-2.613-10.23-2-16-1.109-.79-2.442-1.29-4-1.5a60.94 60.94 0 0 1 11-.5z"/><path style="opacity:1" fill="#818181" d="M240.5 90.5c-1.953 5.574-2.62 11.574-2 18-.99-6.145-1.323-12.478-1-19 1.291-.237 2.291.096 3 1z"/><path style="opacity:1" fill="#d5d5d5" d="M240.5 90.5c.62 6.426-.047 12.426-2 18-.62-6.426.047-12.426 2-18z"/><path style="opacity:1" fill="#7c7c7c" d="M254.5 90.5c.709-.904 1.709-1.237 3-1 .323 6.522-.01 12.855-1 19 .62-6.426-.047-12.426-2-18z"/><path style="opacity:1" fill="#e0e0e0" d="M264.5 89.5c2.436-.183 4.603.484 6.5 2 .781 1.444.614 2.777-.5 4-2.063-5.083-4.396-5.25-7-.5a69.103 69.103 0 0 0 8.5 6.5c.422 6.063-2.411 8.23-8.5 6.5-1.921-1.241-2.254-2.741-1-4.5 1.241 2.644 3.241 3.477 6 2.5a4.933 4.933 0 0 0 1-2.5c-2.147-2.339-4.647-4.339-7.5-6-.982-3.275-.149-5.941 2.5-8z"/><path style="opacity:1" fill="#dedede" d="M286.5 91.5h-5v17c-1.946-4.896-2.613-10.23-2-16h-5v-3c4.471-.59 8.471.077 12 2z"/><path style="opacity:1" fill="#efefef" d="M290.5 89.5c1.318 2.757 1.985 5.924 2 9.5l-1 9.5a91.122 91.122 0 0 1-1-19z"/><path style="opacity:1" fill="#ddd" d="M307.5 91.5h-5v17c-1.946-4.896-2.613-10.23-2-16h-5v-3c4.471-.59 8.471.077 12 2z"/><path style="opacity:1" fill="#959595" d="M313.5 104.5c-.826-4.482-1.326-9.149-1.5-14a112.97 112.97 0 0 0-.5 15c-.988-5.14-1.321-10.474-1-16h3v15z"/><path style="opacity:1" fill="#dadada" d="M311.5 105.5a112.97 112.97 0 0 1 .5-15c.174 4.851.674 9.518 1.5 14 1.432 2.147 3.265 2.48 5.5 1 .171-5.364.671-10.698 1.5-16 .586.21 1.086.543 1.5 1 .896 5.45.563 10.782-1 16-2.553 2.229-5.386 2.562-8.5 1-.798-.457-1.131-1.124-1-2z"/><path style="opacity:1" fill="#c3c3c3" d="M325.5 89.5a60.94 60.94 0 0 1 11 .5c.457.414.791.914 1 1.5-1.545.952-3.212 1.285-5 1v16h-3v-17c-1.983.343-3.317-.323-4-2z"/><path style="opacity:1" fill="#fdfdfd" d="M340.5 90.5a40.939 40.939 0 0 1 9 .5c-2.31.497-4.643.663-7 .5v7c8 .333 8 .667 0 1-.302 2.559.032 4.893 1 7a13.116 13.116 0 0 1 7 1 25.879 25.879 0 0 1-10 1v-18z"/><path style="opacity:1" fill="#e6e6e6" d="M364.5 89.5c3.461-.354 5.961.98 7.5 4a30.485 30.485 0 0 1 0 11c-1.691 3.713-4.525 4.879-8.5 3.5a6.978 6.978 0 0 1-2.5-3.5 30.485 30.485 0 0 1 0-11c.69-1.85 1.856-3.184 3.5-4z"/><path style="opacity:1" fill="#838383" d="M386.5 90.5h-9v18c-.99-6.145-1.323-12.478-1-19 3.542-.313 6.875.02 10 1z"/><path style="opacity:1" fill="#dfdfdf" d="M386.5 90.5c-1.779 1.844-4.112 2.51-7 2v6c8 .667 8 1.333 0 2 .536 3.198-.131 5.865-2 8v-18h9z"/><path style="opacity:1" fill="#c9c9c9" d="m406.5 90.5-4 2v16h-3v-17c-1.478.262-2.811-.071-4-1 3.815-1.308 7.481-1.308 11 0z"/><path style="opacity:1" fill="#fcfcfc" d="M410.5 90.5a40.939 40.939 0 0 1 9 .5c-2.31.497-4.643.663-7 .5v7c8 .333 8 .667 0 1-.302 2.559.032 4.893 1 7a13.116 13.116 0 0 1 7 1 25.879 25.879 0 0 1-10 1v-18z"/><path style="opacity:1" fill="#efefef" d="M448.5 97.5c.814-2.131 1.314-4.464 1.5-7 .499 5.99.666 11.991.5 18h-1v-9c-2.885-.306-5.552.027-8 1a16.873 16.873 0 0 1-1 8 45.636 45.636 0 0 1 0-19 16.874 16.874 0 0 1 1 8h7z"/><path style="opacity:1" fill="#b4b4b4" d="M450.5 108.5c.166-6.009-.001-12.01-.5-18-.186 2.536-.686 4.869-1.5 7v-8h3c.323 6.522-.01 12.855-1 19z"/><path style="opacity:1" fill="#e9e9e9" d="M465.5 90.5c1.953 5.574 2.62 11.574 2 18-.996.086-1.829-.248-2.5-1l-6-12a86.576 86.576 0 0 1-1.5 13 45.636 45.636 0 0 1 0-19 62.715 62.715 0 0 1 7.5 13c.499-3.986.666-7.986.5-12z"/><path style="opacity:1" fill="#777" d="M465.5 90.5c.709-.904 1.709-1.237 3-1 .323 6.522-.01 12.855-1 19 .62-6.426-.047-12.426-2-18z"/><path style="opacity:1" fill="#e6e6e6" d="M476.5 89.5c3.461-.354 5.961.98 7.5 4a30.485 30.485 0 0 1 0 11c-1.691 3.713-4.525 4.879-8.5 3.5a6.978 6.978 0 0 1-2.5-3.5 30.485 30.485 0 0 1 0-11c.69-1.85 1.856-3.184 3.5-4z"/><path style="opacity:1" fill="#7d7d7d" d="M491.5 90.5c-1.953 5.574-2.62 11.574-2 18-.99-6.145-1.323-12.478-1-19 1.291-.237 2.291.096 3 1z"/><path style="opacity:1" fill="#f1f1f1" d="M491.5 90.5v16a13.116 13.116 0 0 1 7 1 21.127 21.127 0 0 1-9 1c-.62-6.426.047-12.426 2-18z"/><path style="opacity:1" fill="#dedede" d="M72.5 89.5c3.974-.35 6.64 1.317 8 5-.825.886-1.825 1.219-3 1-1.338-5.155-3.338-5.321-6-.5a81.09 81.09 0 0 0 8.5 6.5c.996 4.508-.837 6.841-5.5 7-3.748-.057-5.082-1.724-4-5 1.241 2.644 3.241 3.477 6 2.5a4.94 4.94 0 0 0 1-2.5c-2.147-2.339-4.647-4.339-7.5-6-.982-3.275-.148-5.941 2.5-8z"/><path style="opacity:1" fill="#767676" d="M406.5 90.5c.543.06.876.393 1 1-1.545.952-3.212 1.285-5 1l4-2z"/><path style="opacity:1" fill="#dadada" d="M86.5 89.5c3.974-.35 6.64 1.317 8 5-.825.886-1.825 1.219-3 1 .353-2.135-.48-3.468-2.5-4-2.59 1.187-3.09 3.02-1.5 5.5 5.99 1.594 7.824 5.094 5.5 10.5-2.4 1.102-4.9 1.269-7.5.5-1.92-1.241-2.254-2.741-1-4.5 1.57 2.593 3.904 3.593 7 3a12.935 12.935 0 0 0-.5-5c-7.526-2.02-9.026-6.02-4.5-12z"/><path style="opacity:1" fill="#e9e9e9" d="M117.5 89.5c4.896-.442 6.896 1.558 6 6-1.795-4.107-4.295-4.773-7.5-2a30.485 30.485 0 0 0 0 11c3.453 3.012 5.953 2.345 7.5-2 1.027 5.45-1.307 7.284-7 5.5l-2.5-2.5a42.479 42.479 0 0 1 0-13 30.155 30.155 0 0 1 3.5-3z"/><path style="opacity:1" fill="#424242" d="M187.5 91.5h5v17c-.988-5.14-1.321-10.474-1-16-1.599.268-2.932-.066-4-1z"/><path style="opacity:1" fill="#787878" d="M213.5 91.5c-1.068.934-2.401 1.268-4 1 .321 5.526-.012 10.86-1 16v-17h5z"/><path style="opacity:1" fill="#4e4e4e" d="M286.5 91.5c-1.068.934-2.401 1.268-4 1 .321 5.526-.012 10.86-1 16v-17h5z"/><path style="opacity:1" fill="#575757" d="M307.5 91.5c-1.068.934-2.401 1.268-4 1 .321 5.526-.012 10.86-1 16v-17h5z"/><path style="opacity:1" fill="#111" d="M363.5 92.5c2.579-.417 4.746.25 6.5 2 .956 4.072.456 7.905-1.5 11.5-2.717 1.033-4.551.2-5.5-2.5-.678-3.721-.511-7.388.5-11zM475.5 92.5c2.579-.417 4.746.25 6.5 2 .956 4.072.456 7.905-1.5 11.5-2.717 1.033-4.551.2-5.5-2.5-.678-3.721-.511-7.388.5-11z"/><path style="opacity:1" fill="#d4d4d4" d="M504.5 89.5c4.183-.654 7.016 1.012 8.5 5 .667 3 .667 6 0 9-1.664 4.538-4.831 6.038-9.5 4.5-4.262-6.456-3.929-12.623 1-18.5z"/><path style="opacity:1" fill="#0d0d0d" d="M505.5 91.5c1.89-.204 3.39.463 4.5 2a30.485 30.485 0 0 1 0 11c-1.67 2.198-3.67 2.532-6 1-1.034-4.957-.534-9.624 1.5-14z"/><path style="opacity:1" fill="#ddd" d="M520.5 89.5c4.009-.814 6.676.686 8 4.5l-1 1.5c-1.795-4.107-4.295-4.773-7.5-2a30.485 30.485 0 0 0 0 11c4.194 3.247 6.36 2.247 6.5-3-1.175.219-2.175-.114-3-1 1.545-.952 3.212-1.285 5-1 1.068 8.794-2.265 11.127-10 7-3.127-6.198-2.46-11.865 2-17z"/><path style="opacity:1" fill="#d5d5d5" d="M427.5 89.5c4.233-.758 6.899.909 8 5-.233 1.432-.9 1.932-2 1.5-.885-4.626-3.052-5.46-6.5-2.5-.667 4-.667 8 0 12 3.466 1.85 5.299.85 5.5-3h3c-1.577 6.187-5.077 7.52-10.5 4-2.659-6.338-1.826-12.004 2.5-17z"/><path style="opacity:1" fill="#dfdfdf" d="M58.5 89.5c.996-.086 1.83.248 2.5 1a504.458 504.458 0 0 1 5.5 17c-.502 1.021-1.168 1.188-2 .5-1.133-4.373-3.8-5.54-8-3.5a6.846 6.846 0 0 0-1 4 4.934 4.934 0 0 1-3-.5c2.5-6.002 4.5-12.169 6-18.5z"/><path style="opacity:1" fill="#d6d6d6" d="M541.5 89.5c1.175-.219 2.175.114 3 1-3.706 5.45-5.373 11.449-5 18h-3c.688-6.147-.645-11.814-4-17 .774-1.211 1.607-1.211 2.5 0l3 7a29.751 29.751 0 0 0 3.5-9z"/><path style="opacity:1" fill="#171717" d="M59.5 94.5c1.424 2.014 2.09 4.348 2 7h-4a21.16 21.16 0 0 1 2-7z"/><path style="opacity:1" fill="#757575" d="M340.5 90.5c3.125-.98 6.458-1.313 10-1v3h-7v5h6v3h-6v6c-.968-2.107-1.302-4.441-1-7 8-.333 8-.667 0-1v-7c2.357.163 4.69-.003 7-.5a40.939 40.939 0 0 0-9-.5z"/><path style="opacity:1" fill="#737373" d="M410.5 90.5c3.125-.98 6.458-1.313 10-1v3h-7v5h6v3h-6v6c-.968-2.107-1.302-4.441-1-7 8-.333 8-.667 0-1v-7c2.357.163 4.69-.003 7-.5a40.939 40.939 0 0 0-9-.5z"/><path style="opacity:1" fill="#e4e4e4" d="M254.5 90.5c1.953 5.574 2.62 11.574 2 18-.996.086-1.829-.248-2.5-1l-6-12a86.576 86.576 0 0 1-1.5 13 45.636 45.636 0 0 1 0-19 62.715 62.715 0 0 1 7.5 13c.499-3.986.666-7.986.5-12z"/><path style="opacity:1" fill="#dfdfdf" d="M102.5 89.5c.996-.086 1.829.248 2.5 1a168.377 168.377 0 0 0 5.5 17c-.825.886-1.825 1.219-3 1 .745-3.43-.589-5.097-4-5-3.411-.097-4.745 1.57-4 5-1.175.219-2.175-.114-3-1a285.054 285.054 0 0 0 6-18z"/><path style="opacity:1" fill="#202020" d="M102.5 94.5c2.321 1.59 3.321 3.923 3 7h-4a51.56 51.56 0 0 1 1-7z"/><path style="opacity:1" fill="#9f9f9f" d="M138.5 100.5h-7c.306 2.885-.027 5.552-1 8v-9c2.885-.306 5.552.027 8 1z"/><path style="opacity:1" fill="#838383" d="M441.5 100.5c2.448-.973 5.115-1.306 8-1v9c-.973-2.448-1.306-5.115-1-8h-7z"/><path style="opacity:1" fill="#d9d9d9" d="M219.5 89.5c4.706-.619 7.373 1.381 8 6h-3c.353-2.135-.48-3.468-2.5-4-2.59 1.187-3.09 3.02-1.5 5.5 5.067 1.37 7.233 4.537 6.5 9.5-2.497 1.978-5.331 2.478-8.5 1.5-1.921-1.241-2.254-2.741-1-4.5 1.571 2.593 3.904 3.593 7 3a12.93 12.93 0 0 0-.5-5c-7.526-2.02-9.026-6.02-4.5-12z"/><path style="opacity:1" fill="#e0e0e0" d="M47.5 108.5a84.938 84.938 0 0 0-.5-13l-1.5 3a30.674 30.674 0 0 1-4 10 219.966 219.966 0 0 1-4.5-11c.094 4.133-.74 7.799-2.5 11-.62-6.426.047-12.426 2-18 1.644 3.91 3.31 7.91 5 12a81.33 81.33 0 0 0 4.5-12c1.011-.837 2.178-1.17 3.5-1 .623 6.755-.044 13.088-2 19z"/><path style="opacity:1" fill="#757575" d="m47.5 108.5-2-10 1.5-3c.499 4.32.666 8.654.5 13z"/></svg>