<?xml version="1.0" encoding="UTF-8"?>
<!DOCTYPE svg PUBLIC "-//W3C//DTD SVG 1.1//EN" "http://www.w3.org/Graphics/SVG/1.1/DTD/svg11.dtd">
<svg xmlns="http://www.w3.org/2000/svg" version="1.1" width="578px" height="154px" style="shape-rendering:geometricPrecision; text-rendering:geometricPrecision; image-rendering:optimizeQuality; fill-rule:evenodd; clip-rule:evenodd" xmlns:xlink="http://www.w3.org/1999/xlink">
<g><path style="opacity:1" fill="#010101" d="M -0.5,-0.5 C 192.167,-0.5 384.833,-0.5 577.5,-0.5C 577.5,50.8333 577.5,102.167 577.5,153.5C 384.833,153.5 192.167,153.5 -0.5,153.5C -0.5,102.167 -0.5,50.8333 -0.5,-0.5 Z"/></g>
<g><path style="opacity:1" fill="#e49636" d="M 124.5,43.5 C 140.56,42.8879 146.727,50.5545 143,66.5C 139.3,75.5175 132.8,78.3508 123.5,75C 116.863,69.2894 114.696,62.1228 117,53.5C 118.317,49.1633 120.817,45.8299 124.5,43.5 Z"/></g>
<g><path style="opacity:1" fill="#f1f1f1" d="M 247.5,43.5 C 257.368,41.3053 263.368,44.9719 265.5,54.5C 263.167,54.5 260.833,54.5 258.5,54.5C 258.22,49.5097 255.553,47.6763 250.5,49C 247.06,51.3796 245.727,54.7129 246.5,59C 246.087,63.1199 247.087,66.7866 249.5,70C 251.833,70.6667 254.167,70.6667 256.5,70C 258.037,68.8904 258.703,67.3904 258.5,65.5C 260.924,65.1924 263.257,65.5258 265.5,66.5C 262.858,74.7895 257.191,77.9562 248.5,76C 243.948,74.4119 241.115,71.2452 240,66.5C 237.456,56.9676 239.956,49.3009 247.5,43.5 Z"/></g>
<g><path style="opacity:1" fill="#f2f2f2" d="M 278.5,43.5 C 287.051,41.8597 293.218,44.8597 297,52.5C 298.356,59.576 297.356,66.2426 294,72.5C 284.058,79.2225 276.391,77.2225 271,66.5C 268.453,57.0063 270.953,49.3396 278.5,43.5 Z"/></g>
<g><path style="opacity:1" fill="#f0f0f0" d="M 371.5,43.5 C 378.421,42.0433 383.921,44.0433 388,49.5C 388.49,50.7932 388.657,52.1266 388.5,53.5C 386.167,53.5 383.833,53.5 381.5,53.5C 380.826,48.8486 378.159,47.3486 373.5,49C 370.833,51 370.833,53 373.5,55C 378.532,56.5982 383.032,59.0982 387,62.5C 390.014,68.9725 388.181,73.4725 381.5,76C 371.887,78.3685 365.887,74.8685 363.5,65.5C 365.924,65.1924 368.257,65.5258 370.5,66.5C 372.787,71.7969 376.287,72.7969 381,69.5C 381.825,67.2992 381.325,65.4659 379.5,64C 374.177,62.9231 369.677,60.4231 366,56.5C 364.102,50.3867 365.935,46.0534 371.5,43.5 Z"/></g>
<g><path style="opacity:1" fill="#8a8a8a" d="M 34.5,43.5 C 34.5,54.1667 34.5,64.8333 34.5,75.5C 36.5,75.5 38.5,75.5 40.5,75.5C 38.3926,76.4682 36.0593,76.8016 33.5,76.5C 33.1721,65.3206 33.5054,54.3206 34.5,43.5 Z"/></g>
<g><path style="opacity:1" fill="#f5f5f5" d="M 34.5,43.5 C 37.4475,43.2229 40.2809,43.5562 43,44.5C 45.4078,51.6403 48.0745,58.6403 51,65.5C 53.5985,58.538 56.0985,51.538 58.5,44.5C 61.4281,43.5159 64.4281,43.1826 67.5,43.5C 67.5,54.1667 67.5,64.8333 67.5,75.5C 65.5,75.5 63.5,75.5 61.5,75.5C 61.5,71.5 61.5,67.5 61.5,63.5C 61.665,60.1501 61.4983,56.8168 61,53.5C 57.9878,61.036 55.4878,68.7026 53.5,76.5C 51.712,76.7852 50.0453,76.4519 48.5,75.5C 45.9017,68.8721 43.4017,62.2054 41,55.5C 40.5004,62.1583 40.3337,68.825 40.5,75.5C 38.5,75.5 36.5,75.5 34.5,75.5C 34.5,64.8333 34.5,54.1667 34.5,43.5 Z"/></g>
<g><path style="opacity:1" fill="#f9f9f9" d="M 75.5,43.5 C 77.5,43.5 79.5,43.5 81.5,43.5C 81.5,54.5 81.5,65.5 81.5,76.5C 79.5,76.5 77.5,76.5 75.5,76.5C 75.5,65.5 75.5,54.5 75.5,43.5 Z"/></g>
<g><path style="opacity:1" fill="#f8f8f8" d="M 87.5,43.5 C 95.8333,43.5 104.167,43.5 112.5,43.5C 112.5,45.5 112.5,47.5 112.5,49.5C 109.5,49.5 106.5,49.5 103.5,49.5C 102.507,57.9839 102.174,66.6506 102.5,75.5C 100.5,75.5 98.5,75.5 96.5,75.5C 96.5,66.8333 96.5,58.1667 96.5,49.5C 93.7131,48.5233 90.7131,48.19 87.5,48.5C 87.5,46.8333 87.5,45.1667 87.5,43.5 Z"/></g>
<g><path style="opacity:1" fill="#6c4719" d="M 150.5,43.5 C 150.5,54.1667 150.5,64.8333 150.5,75.5C 152.5,75.5 154.5,75.5 156.5,75.5C 154.393,76.4682 152.059,76.8016 149.5,76.5C 149.172,65.3206 149.505,54.3206 150.5,43.5 Z"/></g>
<g><path style="opacity:1" fill="#e99937" d="M 150.5,43.5 C 155.844,43.334 161.177,43.5006 166.5,44C 175.033,48.0275 176.699,54.0275 171.5,62C 166.777,64.2355 161.777,65.0688 156.5,64.5C 156.5,68.1667 156.5,71.8333 156.5,75.5C 154.5,75.5 152.5,75.5 150.5,75.5C 150.5,64.8333 150.5,54.1667 150.5,43.5 Z"/></g>
<g><path style="opacity:1" fill="#e49635" d="M 201.5,43.5 C 201.5,45.1667 201.5,46.8333 201.5,48.5C 196.637,48.1805 191.97,48.5139 187.5,49.5C 187.5,51.8333 187.5,54.1667 187.5,56.5C 191.5,56.5 195.5,56.5 199.5,56.5C 199.5,58.1667 199.5,59.8333 199.5,61.5C 195.167,61.5 190.833,61.5 186.5,61.5C 186.19,64.7131 186.523,67.7131 187.5,70.5C 192.167,70.5 196.833,70.5 201.5,70.5C 201.5,72.5 201.5,74.5 201.5,76.5C 194.5,76.5 187.5,76.5 180.5,76.5C 180.5,65.5 180.5,54.5 180.5,43.5C 187.5,43.5 194.5,43.5 201.5,43.5 Z"/></g>
<g><path style="opacity:1" fill="#ee9d38" d="M 225.5,63.5 C 225.56,64.0431 225.893,64.3764 226.5,64.5C 227.497,57.8665 227.83,51.1998 227.5,44.5C 229.167,44.5 230.833,44.5 232.5,44.5C 232.5,54.8333 232.5,65.1667 232.5,75.5C 230.5,75.5 228.5,75.5 226.5,75.5C 222.833,69.5 219.167,63.5 215.5,57.5C 215.217,56.7109 214.717,56.0442 214,55.5C 213.5,62.1583 213.334,68.825 213.5,75.5C 211.5,75.5 209.5,75.5 207.5,75.5C 207.5,64.8333 207.5,54.1667 207.5,43.5C 209.924,43.1924 212.257,43.5258 214.5,44.5C 218.431,50.6972 222.098,57.0305 225.5,63.5 Z"/></g>
<g><path style="opacity:1" fill="#ae7329" d="M 226.5,75.5 C 228.5,75.5 230.5,75.5 232.5,75.5C 232.5,65.1667 232.5,54.8333 232.5,44.5C 230.833,44.5 229.167,44.5 227.5,44.5C 227.83,51.1998 227.497,57.8665 226.5,64.5C 225.893,64.3764 225.56,64.0431 225.5,63.5C 226.491,57.021 226.824,50.3543 226.5,43.5C 228.833,43.5 231.167,43.5 233.5,43.5C 233.5,54.5 233.5,65.5 233.5,76.5C 230.941,76.8016 228.607,76.4682 226.5,75.5 Z"/></g>
<g><path style="opacity:1" fill="#f3f3f3" d="M 304.5,68.5 C 304.5,60.5 304.5,52.5 304.5,44.5C 306.167,44.5 307.833,44.5 309.5,44.5C 309.175,51.6866 309.509,58.6866 310.5,65.5C 310.297,67.3904 310.963,68.8904 312.5,70C 315.099,70.769 317.599,70.6023 320,69.5C 321.441,60.9422 321.941,52.2756 321.5,43.5C 323.833,43.5 326.167,43.5 328.5,43.5C 328.666,51.5069 328.5,59.5069 328,67.5C 327.167,72.3333 324.333,75.1667 319.5,76C 314.331,77.2948 309.831,76.1281 306,72.5C 305.209,71.255 304.709,69.9217 304.5,68.5 Z"/></g>
<g><path style="opacity:1" fill="#c5c5c5" d="M 310.5,65.5 C 309.509,58.6866 309.175,51.6866 309.5,44.5C 307.833,44.5 306.167,44.5 304.5,44.5C 304.5,52.5 304.5,60.5 304.5,68.5C 303.507,60.3501 303.174,52.0168 303.5,43.5C 305.833,43.5 308.167,43.5 310.5,43.5C 310.5,50.8333 310.5,58.1667 310.5,65.5 Z"/></g>
<g><path style="opacity:1" fill="#f2f2f2" d="M 335.5,43.5 C 340.844,43.334 346.177,43.5006 351.5,44C 357.795,46.4252 359.962,50.9252 358,57.5C 356.854,59.6438 355.354,61.4772 353.5,63C 356.188,67.2072 358.188,71.7072 359.5,76.5C 357.076,76.8076 354.743,76.4742 352.5,75.5C 350.833,72.1667 349.167,68.8333 347.5,65.5C 345.604,64.5344 343.604,64.2011 341.5,64.5C 341.5,68.5 341.5,72.5 341.5,76.5C 339.5,76.5 337.5,76.5 335.5,76.5C 335.5,65.5 335.5,54.5 335.5,43.5 Z"/></g>
<g><path style="opacity:1" fill="#eeeeee" d="M 413.5,61.5 C 409.167,61.5 404.833,61.5 400.5,61.5C 400.19,64.7131 400.523,67.7131 401.5,70.5C 406.167,70.5 410.833,70.5 415.5,70.5C 415.5,72.5 415.5,74.5 415.5,76.5C 408.5,76.5 401.5,76.5 394.5,76.5C 394.5,65.5 394.5,54.5 394.5,43.5C 401.5,43.5 408.5,43.5 415.5,43.5C 415.5,45.5 415.5,47.5 415.5,49.5C 410.833,49.5 406.167,49.5 401.5,49.5C 401.5,51.8333 401.5,54.1667 401.5,56.5C 405.5,56.5 409.5,56.5 413.5,56.5C 413.5,58.1667 413.5,59.8333 413.5,61.5 Z"/></g>
<g><path style="opacity:1" fill="#eeeeee" d="M 449.5,75.5 C 447.05,75.702 444.717,75.3686 442.5,74.5C 441.157,68.1273 439.657,61.7939 438,55.5C 436.332,62.1715 434.665,68.8382 433,75.5C 430.667,76.8333 428.333,76.8333 426,75.5C 423.725,64.8448 421.558,54.1781 419.5,43.5C 421.833,43.5 424.167,43.5 426.5,43.5C 427.339,50.8667 428.506,58.2 430,65.5C 431.825,58.2053 433.325,50.872 434.5,43.5C 436.833,43.5 439.167,43.5 441.5,43.5C 442.681,50.8931 444.181,58.2265 446,65.5C 447.148,58.7989 448.481,52.1323 450,45.5C 451.754,43.75 453.921,43.0833 456.5,43.5C 454.537,54.3539 452.204,65.0206 449.5,75.5 Z"/></g>
<g><path style="opacity:1" fill="#f5f5f5" d="M 487.5,74.5 C 485.735,75.4614 483.735,75.7947 481.5,75.5C 480.694,74.0028 480.028,72.3361 479.5,70.5C 475.541,69.3401 471.541,69.1735 467.5,70C 466.536,71.7255 465.869,73.5588 465.5,75.5C 462.918,75.9746 460.918,75.3079 459.5,73.5C 462.673,63.4802 466.34,53.6469 470.5,44C 474.151,42.877 476.651,44.0437 478,47.5C 481.273,56.4857 484.439,65.4857 487.5,74.5 Z"/></g>
<g><path style="opacity:1" fill="#a4a4a4" d="M 493.5,43.5 C 493.5,54.1667 493.5,64.8333 493.5,75.5C 495.5,75.5 497.5,75.5 499.5,75.5C 497.393,76.4682 495.059,76.8016 492.5,76.5C 492.172,65.3206 492.505,54.3206 493.5,43.5 Z"/></g>
<g><path style="opacity:1" fill="#f2f2f2" d="M 493.5,43.5 C 500.391,42.9013 507.058,43.7346 513.5,46C 517.808,52.1847 517.142,57.8513 511.5,63C 513.364,67.2275 515.364,71.3942 517.5,75.5C 515.167,76.8333 512.833,76.8333 510.5,75.5C 508.833,72.1667 507.167,68.8333 505.5,65.5C 503.604,64.5344 501.604,64.2011 499.5,64.5C 499.5,68.1667 499.5,71.8333 499.5,75.5C 497.5,75.5 495.5,75.5 493.5,75.5C 493.5,64.8333 493.5,54.1667 493.5,43.5 Z"/></g>
<g><path style="opacity:1" fill="#7b7b7b" d="M 523.5,43.5 C 523.5,54.1667 523.5,64.8333 523.5,75.5C 530.5,75.5 537.5,75.5 544.5,75.5C 537.352,76.4916 530.019,76.825 522.5,76.5C 522.172,65.3206 522.505,54.3206 523.5,43.5 Z"/></g>
<g><path style="opacity:1" fill="#f6f6f6" d="M 523.5,43.5 C 530.5,43.5 537.5,43.5 544.5,43.5C 544.5,45.5 544.5,47.5 544.5,49.5C 539.5,49.5 534.5,49.5 529.5,49.5C 529.5,51.8333 529.5,54.1667 529.5,56.5C 533.298,57.4834 537.298,57.8168 541.5,57.5C 541.5,58.8333 541.5,60.1667 541.5,61.5C 537.298,61.1832 533.298,61.5166 529.5,62.5C 529.5,65.1667 529.5,67.8333 529.5,70.5C 534.5,70.5 539.5,70.5 544.5,70.5C 544.5,72.1667 544.5,73.8333 544.5,75.5C 537.5,75.5 530.5,75.5 523.5,75.5C 523.5,64.8333 523.5,54.1667 523.5,43.5 Z"/></g>
<g><path style="opacity:1" fill="#8e8e8e" d="M 87.5,43.5 C 87.5,45.1667 87.5,46.8333 87.5,48.5C 90.7131,48.19 93.7131,48.5233 96.5,49.5C 93.1667,49.5 89.8333,49.5 86.5,49.5C 86.2053,47.2646 86.5386,45.2646 87.5,43.5 Z"/></g>
<g><path style="opacity:1" fill="#774e1c" d="M 201.5,43.5 C 202.461,45.2646 202.795,47.2646 202.5,49.5C 197.5,49.5 192.5,49.5 187.5,49.5C 191.97,48.5139 196.637,48.1805 201.5,48.5C 201.5,46.8333 201.5,45.1667 201.5,43.5 Z"/></g>
<g><path style="opacity:1" fill="#848484" d="M 103.5,49.5 C 103.5,58.5 103.5,67.5 103.5,76.5C 100.941,76.8016 98.6074,76.4682 96.5,75.5C 98.5,75.5 100.5,75.5 102.5,75.5C 102.174,66.6506 102.507,57.9839 103.5,49.5 Z"/></g>
<g><path style="opacity:1" fill="#070401" d="M 127.5,48.5 C 131.273,47.8224 134.106,49.1558 136,52.5C 136.667,57.1667 136.667,61.8333 136,66.5C 133.947,70.2916 130.781,71.4582 126.5,70C 125.107,68.8289 124.273,67.3289 124,65.5C 122.487,59.1302 123.653,53.4636 127.5,48.5 Z"/></g>
<g><path style="opacity:1" fill="#0f0903" d="M 156.5,49.5 C 159.518,49.3354 162.518,49.502 165.5,50C 168.418,53.4719 168.085,56.4719 164.5,59C 161.854,59.4974 159.187,59.6641 156.5,59.5C 156.5,56.1667 156.5,52.8333 156.5,49.5 Z"/></g>
<g><path style="opacity:1" fill="#060606" d="M 281.5,48.5 C 285.273,47.8224 288.106,49.1558 290,52.5C 290.667,57.1667 290.667,61.8333 290,66.5C 287.947,70.2916 284.781,71.4582 280.5,70C 279.107,68.8289 278.273,67.3289 278,65.5C 276.487,59.1302 277.653,53.4636 281.5,48.5 Z"/></g>
<g><path style="opacity:1" fill="#0a0a0a" d="M 341.5,49.5 C 344.518,49.3354 347.518,49.502 350.5,50C 352.077,52.9569 351.744,55.6236 349.5,58C 346.854,58.4974 344.187,58.6641 341.5,58.5C 341.5,55.5 341.5,52.5 341.5,49.5 Z"/></g>
<g><path style="opacity:1" fill="#010101" d="M 499.5,49.5 C 502.187,49.3359 504.854,49.5026 507.5,50C 510.167,52.6667 510.167,55.3333 507.5,58C 504.854,58.4974 502.187,58.6641 499.5,58.5C 499.5,55.5 499.5,52.5 499.5,49.5 Z"/></g>
<g><path style="opacity:1" fill="#161616" d="M 476.5,62.5 C 474.393,63.4682 472.059,63.8016 469.5,63.5C 470.56,59.8204 471.726,56.1537 473,52.5C 474.858,55.5716 476.024,58.905 476.5,62.5 Z"/></g>
<g><path style="opacity:1" fill="#624017" d="M 215.5,57.5 C 214.51,63.6446 214.177,69.9779 214.5,76.5C 211.941,76.8016 209.607,76.4682 207.5,75.5C 209.5,75.5 211.5,75.5 213.5,75.5C 213.334,68.825 213.5,62.1583 214,55.5C 214.717,56.0442 215.217,56.7109 215.5,57.5 Z"/></g>
<g><path style="opacity:1" fill="#a3a3a3" d="M 529.5,56.5 C 533.833,56.5 538.167,56.5 542.5,56.5C 542.5,58.5 542.5,60.5 542.5,62.5C 538.167,62.5 533.833,62.5 529.5,62.5C 533.298,61.5166 537.298,61.1832 541.5,61.5C 541.5,60.1667 541.5,58.8333 541.5,57.5C 537.298,57.8168 533.298,57.4834 529.5,56.5 Z"/></g>
<g><path style="opacity:1" fill="#895a20" d="M 199.5,61.5 C 195.702,62.4834 191.702,62.8168 187.5,62.5C 187.5,65.1667 187.5,67.8333 187.5,70.5C 186.523,67.7131 186.19,64.7131 186.5,61.5C 190.833,61.5 195.167,61.5 199.5,61.5 Z"/></g>
<g><path style="opacity:1" fill="#818181" d="M 413.5,61.5 C 409.702,62.4834 405.702,62.8168 401.5,62.5C 401.5,65.1667 401.5,67.8333 401.5,70.5C 400.523,67.7131 400.19,64.7131 400.5,61.5C 404.833,61.5 409.167,61.5 413.5,61.5 Z"/></g>
<g><path style="opacity:1" fill="#939393" d="M 476.5,62.5 C 477.043,62.56 477.376,62.8933 477.5,63.5C 474.691,64.8003 472.024,64.8003 469.5,63.5C 472.059,63.8016 474.393,63.4682 476.5,62.5 Z"/></g>
<g><path style="opacity:1" fill="#919191" d="M 61.5,63.5 C 61.5,67.5 61.5,71.5 61.5,75.5C 63.5,75.5 65.5,75.5 67.5,75.5C 65.3926,76.4682 63.0593,76.8016 60.5,76.5C 60.1818,71.9677 60.5151,67.6344 61.5,63.5 Z"/></g>
<g><path style="opacity:1" fill="#747474" d="M 442.5,74.5 C 444.717,75.3686 447.05,75.702 449.5,75.5C 448.551,76.1524 447.385,76.4857 446,76.5C 444.319,76.3917 443.152,75.7251 442.5,74.5 Z"/></g>
<g><path style="opacity:1" fill="#848484" d="M 459.5,73.5 C 460.918,75.3079 462.918,75.9746 465.5,75.5C 463.393,76.4682 461.059,76.8016 458.5,76.5C 458.263,75.209 458.596,74.209 459.5,73.5 Z"/></g>
<g><path style="opacity:1" fill="#777777" d="M 487.5,74.5 C 488.043,74.56 488.376,74.8933 488.5,75.5C 486.027,76.7969 483.693,76.7969 481.5,75.5C 483.735,75.7947 485.735,75.4614 487.5,74.5 Z"/></g>
<g><path style="opacity:1" fill="#7a7a7a" d="M 213.5,90.5 C 209.818,90.3347 206.152,90.5014 202.5,91C 204.058,91.21 205.391,91.71 206.5,92.5C 204.833,92.5 203.167,92.5 201.5,92.5C 201.5,91.5 201.5,90.5 201.5,89.5C 205.702,89.1832 209.702,89.5166 213.5,90.5 Z"/></g>
<g><path style="opacity:1" fill="#939393" d="M 36.5,90.5 C 34.5467,96.0738 33.88,102.074 34.5,108.5C 33.5098,102.355 33.1765,96.0221 33.5,89.5C 34.791,89.2627 35.791,89.596 36.5,90.5 Z"/></g>
<g><path style="opacity:1" fill="#979797" d="M 131.5,97.5 C 130.686,95.369 130.186,93.0356 130,90.5C 129.501,96.4908 129.334,102.491 129.5,108.5C 128.51,102.355 128.177,96.0221 128.5,89.5C 129.5,89.5 130.5,89.5 131.5,89.5C 131.5,92.1667 131.5,94.8333 131.5,97.5 Z"/></g>
<g><path style="opacity:1" fill="#eeeeee" d="M 138.5,100.5 C 136.052,99.5269 133.385,99.1936 130.5,99.5C 130.5,102.5 130.5,105.5 130.5,108.5C 130.167,108.5 129.833,108.5 129.5,108.5C 129.334,102.491 129.501,96.4908 130,90.5C 130.186,93.0356 130.686,95.369 131.5,97.5C 133.833,97.5 136.167,97.5 138.5,97.5C 138.187,94.7531 138.52,92.0865 139.5,89.5C 140.833,95.8333 140.833,102.167 139.5,108.5C 138.52,105.914 138.187,103.247 138.5,100.5 Z"/></g>
<g><path style="opacity:1" fill="#eeeeee" d="M 145.5,89.5 C 147.289,94.4068 148.122,99.7401 148,105.5C 150.33,107.032 152.33,106.698 154,104.5C 154.171,99.4671 154.671,94.4671 155.5,89.5C 156.663,94.8023 156.829,100.136 156,105.5C 155.626,106.416 155.126,107.25 154.5,108C 151.331,108.978 148.497,108.478 146,106.5C 145.501,100.843 145.334,95.1764 145.5,89.5 Z"/></g>
<g><path style="opacity:1" fill="#dddddd" d="M 163.5,89.5 C 167.474,89.1502 170.14,90.8169 171.5,94.5C 170.675,95.3857 169.675,95.719 168.5,95.5C 167.162,90.3454 165.162,90.1787 162.5,95C 165.176,97.3426 168.009,99.5093 171,101.5C 171.996,106.008 170.163,108.341 165.5,108.5C 161.752,108.443 160.418,106.776 161.5,103.5C 162.741,106.144 164.741,106.977 167.5,106C 168.059,105.275 168.392,104.442 168.5,103.5C 166.353,101.161 163.853,99.1614 161,97.5C 160.018,94.2253 160.851,91.5586 163.5,89.5 Z"/></g>
<g><path style="opacity:1" fill="#898989" d="M 184.5,90.5 C 181.5,90.5 178.5,90.5 175.5,90.5C 175.5,96.5 175.5,102.5 175.5,108.5C 174.51,102.355 174.177,96.0221 174.5,89.5C 178.042,89.1872 181.375,89.5206 184.5,90.5 Z"/></g>
<g><path style="opacity:1" fill="#dadada" d="M 184.5,90.5 C 182.721,92.3435 180.388,93.0102 177.5,92.5C 177.5,94.1667 177.5,95.8333 177.5,97.5C 179.5,97.5 181.5,97.5 183.5,97.5C 183.5,98.5 183.5,99.5 183.5,100.5C 181.5,100.5 179.5,100.5 177.5,100.5C 177.5,102.5 177.5,104.5 177.5,106.5C 179.924,106.192 182.257,106.526 184.5,107.5C 181.572,108.484 178.572,108.817 175.5,108.5C 175.5,102.5 175.5,96.5 175.5,90.5C 178.5,90.5 181.5,90.5 184.5,90.5 Z"/></g>
<g><path style="opacity:1" fill="#dedede" d="M 192.5,108.5 C 192.5,102.833 192.5,97.1667 192.5,91.5C 190.833,91.5 189.167,91.5 187.5,91.5C 191.029,89.5772 195.029,88.9106 199.5,89.5C 199.5,90.5 199.5,91.5 199.5,92.5C 197.833,92.5 196.167,92.5 194.5,92.5C 195.113,98.2709 194.446,103.604 192.5,108.5 Z"/></g>
<g><path style="opacity:1" fill="#f3f3f3" d="M 213.5,90.5 C 213.5,90.8333 213.5,91.1667 213.5,91.5C 211.833,91.5 210.167,91.5 208.5,91.5C 208.5,97.1667 208.5,102.833 208.5,108.5C 206.554,103.604 205.887,98.2709 206.5,92.5C 205.391,91.71 204.058,91.21 202.5,91C 206.152,90.5014 209.818,90.3347 213.5,90.5 Z"/></g>
<g><path style="opacity:1" fill="#818181" d="M 240.5,90.5 C 238.547,96.0738 237.88,102.074 238.5,108.5C 237.51,102.355 237.177,96.0221 237.5,89.5C 238.791,89.2627 239.791,89.596 240.5,90.5 Z"/></g>
<g><path style="opacity:1" fill="#d5d5d5" d="M 240.5,90.5 C 241.12,96.9262 240.453,102.926 238.5,108.5C 237.88,102.074 238.547,96.0738 240.5,90.5 Z"/></g>
<g><path style="opacity:1" fill="#7c7c7c" d="M 254.5,90.5 C 255.209,89.596 256.209,89.2627 257.5,89.5C 257.823,96.0221 257.49,102.355 256.5,108.5C 257.12,102.074 256.453,96.0738 254.5,90.5 Z"/></g>
<g><path style="opacity:1" fill="#e0e0e0" d="M 264.5,89.5 C 266.936,89.317 269.103,89.9837 271,91.5C 271.781,92.9437 271.614,94.277 270.5,95.5C 268.437,90.4169 266.104,90.2502 263.5,95C 266.103,97.3389 268.937,99.5056 272,101.5C 272.422,107.563 269.589,109.73 263.5,108C 261.579,106.759 261.246,105.259 262.5,103.5C 263.741,106.144 265.741,106.977 268.5,106C 269.059,105.275 269.392,104.442 269.5,103.5C 267.353,101.161 264.853,99.1614 262,97.5C 261.018,94.2253 261.851,91.5586 264.5,89.5 Z"/></g>
<g><path style="opacity:1" fill="#dedede" d="M 286.5,91.5 C 284.833,91.5 283.167,91.5 281.5,91.5C 281.5,97.1667 281.5,102.833 281.5,108.5C 279.554,103.604 278.887,98.2709 279.5,92.5C 277.833,92.5 276.167,92.5 274.5,92.5C 274.5,91.5 274.5,90.5 274.5,89.5C 278.971,88.9106 282.971,89.5772 286.5,91.5 Z"/></g>
<g><path style="opacity:1" fill="#efefef" d="M 290.5,89.5 C 291.818,92.2575 292.485,95.4242 292.5,99C 292.167,102.167 291.833,105.333 291.5,108.5C 290.504,102.202 290.17,95.8682 290.5,89.5 Z"/></g>
<g><path style="opacity:1" fill="#dddddd" d="M 307.5,91.5 C 305.833,91.5 304.167,91.5 302.5,91.5C 302.5,97.1667 302.5,102.833 302.5,108.5C 300.554,103.604 299.887,98.2709 300.5,92.5C 298.833,92.5 297.167,92.5 295.5,92.5C 295.5,91.5 295.5,90.5 295.5,89.5C 299.971,88.9106 303.971,89.5772 307.5,91.5 Z"/></g>
<g><path style="opacity:1" fill="#959595" d="M 313.5,104.5 C 312.674,100.018 312.174,95.3514 312,90.5C 311.501,95.4889 311.334,100.489 311.5,105.5C 310.512,100.36 310.179,95.0262 310.5,89.5C 311.5,89.5 312.5,89.5 313.5,89.5C 313.5,94.5 313.5,99.5 313.5,104.5 Z"/></g>
<g><path style="opacity:1" fill="#dadada" d="M 311.5,105.5 C 311.334,100.489 311.501,95.4889 312,90.5C 312.174,95.3514 312.674,100.018 313.5,104.5C 314.932,106.647 316.765,106.98 319,105.5C 319.171,100.136 319.671,94.8025 320.5,89.5C 321.086,89.7093 321.586,90.0426 322,90.5C 322.896,95.9491 322.563,101.282 321,106.5C 318.447,108.729 315.614,109.062 312.5,107.5C 311.702,107.043 311.369,106.376 311.5,105.5 Z"/></g>
<g><path style="opacity:1" fill="#c3c3c3" d="M 325.5,89.5 C 329.182,89.3347 332.848,89.5014 336.5,90C 336.957,90.414 337.291,90.914 337.5,91.5C 335.955,92.4519 334.288,92.7852 332.5,92.5C 332.5,97.8333 332.5,103.167 332.5,108.5C 331.5,108.5 330.5,108.5 329.5,108.5C 329.5,102.833 329.5,97.1667 329.5,91.5C 327.517,91.8432 326.183,91.1765 325.5,89.5 Z"/></g>
<g><path style="opacity:1" fill="#fdfdfd" d="M 340.5,90.5 C 343.518,90.3354 346.518,90.502 349.5,91C 347.19,91.4966 344.857,91.6633 342.5,91.5C 342.5,93.8333 342.5,96.1667 342.5,98.5C 350.5,98.8333 350.5,99.1667 342.5,99.5C 342.198,102.059 342.532,104.393 343.5,106.5C 345.924,106.192 348.257,106.526 350.5,107.5C 347.232,108.487 343.898,108.82 340.5,108.5C 340.5,102.5 340.5,96.5 340.5,90.5 Z"/></g>
<g><path style="opacity:1" fill="#e6e6e6" d="M 364.5,89.5 C 367.961,89.1459 370.461,90.4792 372,93.5C 372.667,97.1667 372.667,100.833 372,104.5C 370.309,108.213 367.475,109.379 363.5,108C 362.299,107.097 361.465,105.931 361,104.5C 360.333,100.833 360.333,97.1667 361,93.5C 361.69,91.6498 362.856,90.3164 364.5,89.5 Z"/></g>
<g><path style="opacity:1" fill="#838383" d="M 386.5,90.5 C 383.5,90.5 380.5,90.5 377.5,90.5C 377.5,96.5 377.5,102.5 377.5,108.5C 376.51,102.355 376.177,96.0221 376.5,89.5C 380.042,89.1872 383.375,89.5206 386.5,90.5 Z"/></g>
<g><path style="opacity:1" fill="#dfdfdf" d="M 386.5,90.5 C 384.721,92.3435 382.388,93.0102 379.5,92.5C 379.5,94.5 379.5,96.5 379.5,98.5C 387.5,99.1667 387.5,99.8333 379.5,100.5C 380.036,103.698 379.369,106.365 377.5,108.5C 377.5,102.5 377.5,96.5 377.5,90.5C 380.5,90.5 383.5,90.5 386.5,90.5 Z"/></g>
<g><path style="opacity:1" fill="#c9c9c9" d="M 406.5,90.5 C 405.167,91.1667 403.833,91.8333 402.5,92.5C 402.5,97.8333 402.5,103.167 402.5,108.5C 401.5,108.5 400.5,108.5 399.5,108.5C 399.5,102.833 399.5,97.1667 399.5,91.5C 398.022,91.762 396.689,91.4287 395.5,90.5C 399.315,89.1923 402.981,89.1923 406.5,90.5 Z"/></g>
<g><path style="opacity:1" fill="#fcfcfc" d="M 410.5,90.5 C 413.518,90.3354 416.518,90.502 419.5,91C 417.19,91.4966 414.857,91.6633 412.5,91.5C 412.5,93.8333 412.5,96.1667 412.5,98.5C 420.5,98.8333 420.5,99.1667 412.5,99.5C 412.198,102.059 412.532,104.393 413.5,106.5C 415.924,106.192 418.257,106.526 420.5,107.5C 417.232,108.487 413.898,108.82 410.5,108.5C 410.5,102.5 410.5,96.5 410.5,90.5 Z"/></g>
<g><path style="opacity:1" fill="#efefef" d="M 448.5,97.5 C 449.314,95.369 449.814,93.0356 450,90.5C 450.499,96.4908 450.666,102.491 450.5,108.5C 450.167,108.5 449.833,108.5 449.5,108.5C 449.5,105.5 449.5,102.5 449.5,99.5C 446.615,99.1936 443.948,99.5269 441.5,100.5C 441.813,103.247 441.48,105.914 440.5,108.5C 439.167,102.167 439.167,95.8333 440.5,89.5C 441.48,92.0865 441.813,94.7531 441.5,97.5C 443.833,97.5 446.167,97.5 448.5,97.5 Z"/></g>
<g><path style="opacity:1" fill="#b4b4b4" d="M 450.5,108.5 C 450.666,102.491 450.499,96.4908 450,90.5C 449.814,93.0356 449.314,95.369 448.5,97.5C 448.5,94.8333 448.5,92.1667 448.5,89.5C 449.5,89.5 450.5,89.5 451.5,89.5C 451.823,96.0221 451.49,102.355 450.5,108.5 Z"/></g>
<g><path style="opacity:1" fill="#e9e9e9" d="M 465.5,90.5 C 467.453,96.0738 468.12,102.074 467.5,108.5C 466.504,108.586 465.671,108.252 465,107.5C 463,103.5 461,99.5 459,95.5C 458.828,99.8711 458.328,104.204 457.5,108.5C 456.167,102.167 456.167,95.8333 457.5,89.5C 460.505,93.5065 463.005,97.8398 465,102.5C 465.499,98.5138 465.666,94.5138 465.5,90.5 Z"/></g>
<g><path style="opacity:1" fill="#777777" d="M 465.5,90.5 C 466.209,89.596 467.209,89.2627 468.5,89.5C 468.823,96.0221 468.49,102.355 467.5,108.5C 468.12,102.074 467.453,96.0738 465.5,90.5 Z"/></g>
<g><path style="opacity:1" fill="#e6e6e6" d="M 476.5,89.5 C 479.961,89.1459 482.461,90.4792 484,93.5C 484.667,97.1667 484.667,100.833 484,104.5C 482.309,108.213 479.475,109.379 475.5,108C 474.299,107.097 473.465,105.931 473,104.5C 472.333,100.833 472.333,97.1667 473,93.5C 473.69,91.6498 474.856,90.3164 476.5,89.5 Z"/></g>
<g><path style="opacity:1" fill="#7d7d7d" d="M 491.5,90.5 C 489.547,96.0738 488.88,102.074 489.5,108.5C 488.51,102.355 488.177,96.0221 488.5,89.5C 489.791,89.2627 490.791,89.596 491.5,90.5 Z"/></g>
<g><path style="opacity:1" fill="#f1f1f1" d="M 491.5,90.5 C 491.5,95.8333 491.5,101.167 491.5,106.5C 493.924,106.192 496.257,106.526 498.5,107.5C 495.572,108.484 492.572,108.817 489.5,108.5C 488.88,102.074 489.547,96.0738 491.5,90.5 Z"/></g>
<g><path style="opacity:1" fill="#dedede" d="M 72.5,89.5 C 76.4738,89.1502 79.1404,90.8169 80.5,94.5C 79.675,95.3857 78.675,95.719 77.5,95.5C 76.162,90.3454 74.162,90.1787 71.5,95C 74.1756,97.3426 77.0089,99.5093 80,101.5C 80.9962,106.008 79.1629,108.341 74.5,108.5C 70.7516,108.443 69.4183,106.776 70.5,103.5C 71.741,106.144 73.741,106.977 76.5,106C 77.0585,105.275 77.3918,104.442 77.5,103.5C 75.3525,101.161 72.8525,99.1614 70,97.5C 69.0182,94.2253 69.8515,91.5586 72.5,89.5 Z"/></g>
<g><path style="opacity:1" fill="#767676" d="M 406.5,90.5 C 407.043,90.56 407.376,90.8933 407.5,91.5C 405.955,92.4519 404.288,92.7852 402.5,92.5C 403.833,91.8333 405.167,91.1667 406.5,90.5 Z"/></g>
<g><path style="opacity:1" fill="#dadada" d="M 86.5,89.5 C 90.4738,89.1502 93.1404,90.8169 94.5,94.5C 93.675,95.3857 92.675,95.719 91.5,95.5C 91.853,93.3652 91.0197,92.0319 89,91.5C 86.4103,92.6868 85.9103,94.5202 87.5,97C 93.4906,98.5943 95.3239,102.094 93,107.5C 90.5991,108.602 88.0991,108.769 85.5,108C 83.5794,106.759 83.246,105.259 84.5,103.5C 86.0708,106.093 88.4041,107.093 91.5,106.5C 91.6602,104.801 91.4935,103.134 91,101.5C 83.4744,99.4808 81.9744,95.4808 86.5,89.5 Z"/></g>
<g><path style="opacity:1" fill="#e9e9e9" d="M 117.5,89.5 C 122.396,89.0582 124.396,91.0582 123.5,95.5C 121.705,91.3932 119.205,90.7266 116,93.5C 115.333,97.1667 115.333,100.833 116,104.5C 119.453,107.512 121.953,106.845 123.5,102.5C 124.527,107.95 122.193,109.784 116.5,108C 115.667,107.167 114.833,106.333 114,105.5C 113.333,101.167 113.333,96.8333 114,92.5C 115.145,91.3636 116.312,90.3636 117.5,89.5 Z"/></g>
<g><path style="opacity:1" fill="#424242" d="M 187.5,91.5 C 189.167,91.5 190.833,91.5 192.5,91.5C 192.5,97.1667 192.5,102.833 192.5,108.5C 191.512,103.36 191.179,98.0262 191.5,92.5C 189.901,92.7678 188.568,92.4345 187.5,91.5 Z"/></g>
<g><path style="opacity:1" fill="#787878" d="M 213.5,91.5 C 212.432,92.4345 211.099,92.7678 209.5,92.5C 209.821,98.0262 209.488,103.36 208.5,108.5C 208.5,102.833 208.5,97.1667 208.5,91.5C 210.167,91.5 211.833,91.5 213.5,91.5 Z"/></g>
<g><path style="opacity:1" fill="#4e4e4e" d="M 286.5,91.5 C 285.432,92.4345 284.099,92.7678 282.5,92.5C 282.821,98.0262 282.488,103.36 281.5,108.5C 281.5,102.833 281.5,97.1667 281.5,91.5C 283.167,91.5 284.833,91.5 286.5,91.5 Z"/></g>
<g><path style="opacity:1" fill="#575757" d="M 307.5,91.5 C 306.432,92.4345 305.099,92.7678 303.5,92.5C 303.821,98.0262 303.488,103.36 302.5,108.5C 302.5,102.833 302.5,97.1667 302.5,91.5C 304.167,91.5 305.833,91.5 307.5,91.5 Z"/></g>
<g><path style="opacity:1" fill="#111111" d="M 363.5,92.5 C 366.079,92.0833 368.246,92.75 370,94.5C 370.956,98.572 370.456,102.405 368.5,106C 365.783,107.033 363.949,106.2 363,103.5C 362.322,99.7789 362.489,96.1122 363.5,92.5 Z"/></g>
<g><path style="opacity:1" fill="#111111" d="M 475.5,92.5 C 478.079,92.0833 480.246,92.75 482,94.5C 482.956,98.572 482.456,102.405 480.5,106C 477.783,107.033 475.949,106.2 475,103.5C 474.322,99.7789 474.489,96.1122 475.5,92.5 Z"/></g>
<g><path style="opacity:1" fill="#d4d4d4" d="M 504.5,89.5 C 508.683,88.8456 511.516,90.5123 513,94.5C 513.667,97.5 513.667,100.5 513,103.5C 511.336,108.038 508.169,109.538 503.5,108C 499.238,101.544 499.571,95.3773 504.5,89.5 Z"/></g>
<g><path style="opacity:1" fill="#0d0d0d" d="M 505.5,91.5 C 507.39,91.2965 508.89,91.9632 510,93.5C 510.667,97.1667 510.667,100.833 510,104.5C 508.33,106.698 506.33,107.032 504,105.5C 502.966,100.543 503.466,95.8764 505.5,91.5 Z"/></g>
<g><path style="opacity:1" fill="#dddddd" d="M 520.5,89.5 C 524.509,88.6857 527.176,90.1857 528.5,94C 528.167,94.5 527.833,95 527.5,95.5C 525.705,91.3932 523.205,90.7266 520,93.5C 519.333,97.1667 519.333,100.833 520,104.5C 524.194,107.747 526.36,106.747 526.5,101.5C 525.325,101.719 524.325,101.386 523.5,100.5C 525.045,99.5481 526.712,99.2148 528.5,99.5C 529.568,108.294 526.235,110.627 518.5,106.5C 515.373,100.302 516.04,94.6353 520.5,89.5 Z"/></g>
<g><path style="opacity:1" fill="#d5d5d5" d="M 427.5,89.5 C 431.733,88.7421 434.399,90.4088 435.5,94.5C 435.267,95.9317 434.6,96.4317 433.5,96C 432.615,91.374 430.448,90.5407 427,93.5C 426.333,97.5 426.333,101.5 427,105.5C 430.466,107.35 432.299,106.35 432.5,102.5C 433.5,102.5 434.5,102.5 435.5,102.5C 433.923,108.687 430.423,110.02 425,106.5C 422.341,100.162 423.174,94.4956 427.5,89.5 Z"/></g>
<g><path style="opacity:1" fill="#dfdfdf" d="M 58.5,89.5 C 59.4959,89.4142 60.3292,89.7476 61,90.5C 62.936,96.1412 64.7693,101.808 66.5,107.5C 65.9984,108.521 65.3317,108.688 64.5,108C 63.3672,103.627 60.7005,102.46 56.5,104.5C 55.7542,105.736 55.4208,107.07 55.5,108.5C 54.448,108.649 53.448,108.483 52.5,108C 55.0007,101.998 57.0007,95.8313 58.5,89.5 Z"/></g>
<g><path style="opacity:1" fill="#d6d6d6" d="M 541.5,89.5 C 542.675,89.281 543.675,89.6143 544.5,90.5C 540.794,95.9492 539.127,101.949 539.5,108.5C 538.5,108.5 537.5,108.5 536.5,108.5C 537.188,102.353 535.855,96.6865 532.5,91.5C 533.274,90.2888 534.107,90.2888 535,91.5C 536,93.8333 537,96.1667 538,98.5C 539.664,95.6729 540.83,92.6729 541.5,89.5 Z"/></g>
<g><path style="opacity:1" fill="#171717" d="M 59.5,94.5 C 60.9238,96.5145 61.5905,98.8478 61.5,101.5C 60.1667,101.5 58.8333,101.5 57.5,101.5C 57.767,99.0347 58.4336,96.7014 59.5,94.5 Z"/></g>
<g><path style="opacity:1" fill="#757575" d="M 340.5,90.5 C 343.625,89.5206 346.958,89.1872 350.5,89.5C 350.5,90.5 350.5,91.5 350.5,92.5C 348.167,92.5 345.833,92.5 343.5,92.5C 343.5,94.1667 343.5,95.8333 343.5,97.5C 345.5,97.5 347.5,97.5 349.5,97.5C 349.5,98.5 349.5,99.5 349.5,100.5C 347.5,100.5 345.5,100.5 343.5,100.5C 343.5,102.5 343.5,104.5 343.5,106.5C 342.532,104.393 342.198,102.059 342.5,99.5C 350.5,99.1667 350.5,98.8333 342.5,98.5C 342.5,96.1667 342.5,93.8333 342.5,91.5C 344.857,91.6633 347.19,91.4966 349.5,91C 346.518,90.502 343.518,90.3354 340.5,90.5 Z"/></g>
<g><path style="opacity:1" fill="#737373" d="M 410.5,90.5 C 413.625,89.5206 416.958,89.1872 420.5,89.5C 420.5,90.5 420.5,91.5 420.5,92.5C 418.167,92.5 415.833,92.5 413.5,92.5C 413.5,94.1667 413.5,95.8333 413.5,97.5C 415.5,97.5 417.5,97.5 419.5,97.5C 419.5,98.5 419.5,99.5 419.5,100.5C 417.5,100.5 415.5,100.5 413.5,100.5C 413.5,102.5 413.5,104.5 413.5,106.5C 412.532,104.393 412.198,102.059 412.5,99.5C 420.5,99.1667 420.5,98.8333 412.5,98.5C 412.5,96.1667 412.5,93.8333 412.5,91.5C 414.857,91.6633 417.19,91.4966 419.5,91C 416.518,90.502 413.518,90.3354 410.5,90.5 Z"/></g>
<g><path style="opacity:1" fill="#e4e4e4" d="M 254.5,90.5 C 256.453,96.0738 257.12,102.074 256.5,108.5C 255.504,108.586 254.671,108.252 254,107.5C 252,103.5 250,99.5 248,95.5C 247.828,99.8711 247.328,104.204 246.5,108.5C 245.167,102.167 245.167,95.8333 246.5,89.5C 249.505,93.5065 252.005,97.8398 254,102.5C 254.499,98.5138 254.666,94.5138 254.5,90.5 Z"/></g>
<g><path style="opacity:1" fill="#dfdfdf" d="M 102.5,89.5 C 103.496,89.4142 104.329,89.7476 105,90.5C 106.533,96.265 108.366,101.932 110.5,107.5C 109.675,108.386 108.675,108.719 107.5,108.5C 108.245,105.07 106.911,103.403 103.5,103.5C 100.089,103.403 98.7553,105.07 99.5,108.5C 98.325,108.719 97.325,108.386 96.5,107.5C 98.7054,101.55 100.705,95.5504 102.5,89.5 Z"/></g>
<g><path style="opacity:1" fill="#202020" d="M 102.5,94.5 C 104.821,96.0897 105.821,98.4231 105.5,101.5C 104.167,101.5 102.833,101.5 101.5,101.5C 101.674,99.139 102.007,96.8056 102.5,94.5 Z"/></g>
<g><path style="opacity:1" fill="#9f9f9f" d="M 138.5,100.5 C 136.167,100.5 133.833,100.5 131.5,100.5C 131.806,103.385 131.473,106.052 130.5,108.5C 130.5,105.5 130.5,102.5 130.5,99.5C 133.385,99.1936 136.052,99.5269 138.5,100.5 Z"/></g>
<g><path style="opacity:1" fill="#838383" d="M 441.5,100.5 C 443.948,99.5269 446.615,99.1936 449.5,99.5C 449.5,102.5 449.5,105.5 449.5,108.5C 448.527,106.052 448.194,103.385 448.5,100.5C 446.167,100.5 443.833,100.5 441.5,100.5 Z"/></g>
<g><path style="opacity:1" fill="#d9d9d9" d="M 219.5,89.5 C 224.206,88.8811 226.873,90.8811 227.5,95.5C 226.5,95.5 225.5,95.5 224.5,95.5C 224.853,93.3652 224.02,92.0319 222,91.5C 219.41,92.6868 218.91,94.5202 220.5,97C 225.567,98.3701 227.733,101.537 227,106.5C 224.503,108.478 221.669,108.978 218.5,108C 216.579,106.759 216.246,105.259 217.5,103.5C 219.071,106.093 221.404,107.093 224.5,106.5C 224.66,104.801 224.494,103.134 224,101.5C 216.474,99.4808 214.974,95.4808 219.5,89.5 Z"/></g>
<g><path style="opacity:1" fill="#e0e0e0" d="M 47.5,108.5 C 47.6657,104.154 47.499,99.8206 47,95.5C 46.4867,96.5266 45.9867,97.5266 45.5,98.5C 44.7512,102.082 43.4179,105.416 41.5,108.5C 39.9048,104.883 38.4048,101.217 37,97.5C 37.0936,101.633 36.2603,105.299 34.5,108.5C 33.88,102.074 34.5467,96.0738 36.5,90.5C 38.1436,94.4094 39.8102,98.4094 41.5,102.5C 43.2977,98.6662 44.7977,94.6662 46,90.5C 47.0113,89.6634 48.1779,89.33 49.5,89.5C 50.1229,96.2547 49.4563,102.588 47.5,108.5 Z"/></g>
<g><path style="opacity:1" fill="#757575" d="M 47.5,108.5 C 46.8333,105.167 46.1667,101.833 45.5,98.5C 45.9867,97.5266 46.4867,96.5266 47,95.5C 47.499,99.8206 47.6657,104.154 47.5,108.5 Z"/></g>
</svg>
