<svg width="321" height="40" xmlns="http://www.w3.org/2000/svg"><g fill="none" fill-rule="nonzero"><path fill="#FFF" d="M6.137.094 11.25 14.53 16.336.094h5.387V20h-4.116v-5.441l.41-9.393L12.646 20H9.828L4.468 5.18l.41 9.379V20h-4.1V.094zM30.666 20h-4.102V.094h4.102zM50.055 3.416h-6.098V20h-4.102V3.416H33.84V.094h16.215z"/><path d="M69.361 10.498c0 1.522-.205 2.887-.615 4.095-.41 1.207-.987 2.23-1.73 3.07a7.536 7.536 0 0 1-2.672 1.934c-1.04.45-2.183.676-3.432.676s-2.392-.225-3.432-.676a7.668 7.668 0 0 1-2.686-1.935c-.752-.838-1.338-1.862-1.757-3.07-.42-1.207-.629-2.572-.629-4.094v-.875c0-1.513.208-2.876.622-4.088.415-1.212.996-2.242 1.743-3.09a7.526 7.526 0 0 1 2.68-1.948c1.04-.451 2.183-.677 3.432-.677 1.248 0 2.392.226 3.431.677a7.526 7.526 0 0 1 2.68 1.948c.747.848 1.329 1.878 1.743 3.09.415 1.212.622 2.575.622 4.088v.875zm-4.156-.902c0-2.088-.374-3.673-1.121-4.758s-1.814-1.627-3.2-1.627c-1.385 0-2.451.542-3.198 1.627-.748 1.085-1.122 2.67-1.122 4.758v.902c0 1.04.098 1.957.294 2.755.196.797.479 1.467.848 2.01.37.542.823.952 1.36 1.23.538.278 1.153.417 1.846.417 1.386 0 2.447-.547 3.186-1.64.738-1.094 1.107-2.685 1.107-4.772v-.902zM77.443 12.986V20h-4.101V.094h7.765c1.176 0 2.227.164 3.152.492.925.328 1.709.786 2.351 1.374a5.87 5.87 0 0 1 1.47 2.092c.337.806.506 1.684.506 2.632 0 .966-.169 1.836-.506 2.61a5.4 5.4 0 0 1-1.47 1.983c-.642.547-1.426.969-2.351 1.265-.925.296-1.976.444-3.152.444h-3.664zm0-3.322h3.664c.584 0 1.087-.073 1.511-.219.424-.146.77-.348 1.04-.608.268-.26.466-.572.594-.937.128-.364.191-.76.191-1.19 0-.427-.063-.84-.191-1.236a2.935 2.935 0 0 0-.595-1.053 2.868 2.868 0 0 0-1.039-.732c-.424-.182-.927-.273-1.51-.273h-3.665v6.248zM104.379 11.373h-7.875v5.332h9.242V20H92.402V.094h13.317v3.322h-9.215V8.16h7.875zM125.34 20h-4.102l-7.984-13.098V20h-4.102V.094h4.102l7.998 13.125V.094h4.088z" fill="#FF9A00"/><path d="M145.549 13.37a8.143 8.143 0 0 1-.684 2.788 6.483 6.483 0 0 1-1.586 2.18c-.674.607-1.492 1.08-2.454 1.423-.961.342-2.057.512-3.288.512-1.276 0-2.422-.22-3.438-.663a7.029 7.029 0 0 1-2.584-1.907c-.707-.83-1.249-1.834-1.627-3.015-.379-1.18-.568-2.504-.568-3.971V9.404c0-1.467.196-2.793.588-3.978.392-1.185.946-2.192 1.661-3.022A7.209 7.209 0 0 1 134.174.49c1.02-.446 2.16-.67 3.418-.67 1.24 0 2.335.176 3.288.527.952.35 1.761.838 2.427 1.463a6.647 6.647 0 0 1 1.558 2.228c.374.861.61 1.798.711 2.81h-4.101a6.206 6.206 0 0 0-.308-1.573 3.085 3.085 0 0 0-.69-1.148c-.301-.31-.689-.545-1.163-.704-.474-.16-1.048-.24-1.722-.24-1.386 0-2.418.504-3.097 1.511-.679 1.007-1.018 2.568-1.018 4.683v1.34c0 1.03.075 1.932.225 2.707.15.775.388 1.422.711 1.941.324.52.743.91 1.258 1.17.515.259 1.137.389 1.866.389.647 0 1.206-.073 1.675-.219.47-.146.861-.367 1.176-.663.314-.296.558-.668.731-1.114.173-.447.283-.966.328-1.559h4.102zM165.594 10.498c0 1.522-.205 2.887-.615 4.095-.41 1.207-.987 2.23-1.73 3.07a7.536 7.536 0 0 1-2.673 1.934c-1.039.45-2.183.676-3.431.676-1.25 0-2.393-.225-3.432-.676a7.668 7.668 0 0 1-2.687-1.935c-.752-.838-1.337-1.862-1.756-3.07-.42-1.207-.63-2.572-.63-4.094v-.875c0-1.513.208-2.876.623-4.088.414-1.212.995-2.242 1.743-3.09a7.526 7.526 0 0 1 2.68-1.948c1.039-.451 2.182-.677 3.431-.677s2.393.226 3.432.677a7.526 7.526 0 0 1 2.68 1.948c.747.848 1.328 1.878 1.743 3.09.414 1.212.622 2.575.622 4.088v.875zm-4.156-.902c0-2.088-.374-3.673-1.122-4.758-.747-1.085-1.813-1.627-3.199-1.627-1.385 0-2.452.542-3.199 1.627-.747 1.085-1.121 2.67-1.121 4.758v.902c0 1.04.098 1.957.294 2.755.196.797.478 1.467.847 2.01.37.542.823.952 1.36 1.23.539.278 1.154.417 1.847.417 1.385 0 2.447-.547 3.185-1.64.738-1.094 1.107-2.685 1.107-4.772v-.902zM184.64.094v13.138c0 1.149-.19 2.163-.574 3.042a6.166 6.166 0 0 1-1.586 2.208c-.674.593-1.478 1.04-2.413 1.34-.934.301-1.952.451-3.055.451-1.112 0-2.135-.15-3.07-.45-.934-.302-1.738-.748-2.413-1.34a6.096 6.096 0 0 1-1.579-2.209c-.378-.88-.567-1.893-.567-3.042V.094h4.101v13.138c0 1.304.313 2.254.937 2.851.624.597 1.488.896 2.59.896 1.113 0 1.976-.299 2.592-.896.615-.597.922-1.547.922-2.85V.092h4.116zM196.373 12.713h-3.268V20h-4.101V.094h7.396c1.149 0 2.179.13 3.09.39.912.26 1.682.642 2.31 1.148a5.033 5.033 0 0 1 1.45 1.88c.337.747.506 1.613.506 2.597 0 .73-.082 1.384-.246 1.962a5.22 5.22 0 0 1-.711 1.545c-.31.451-.684.846-1.121 1.183a7.34 7.34 0 0 1-1.477.875l4.307 8.135V20h-4.403l-3.732-7.287zm-3.268-3.322h3.31c.537 0 1.009-.071 1.414-.212a2.718 2.718 0 0 0 1.012-.602c.269-.26.471-.57.608-.93.137-.36.205-.763.205-1.21 0-.938-.266-1.677-.8-2.214-.533-.538-1.35-.807-2.454-.807h-3.295v5.975zM218.195 14.777c0-.346-.05-.658-.15-.936-.1-.278-.294-.536-.581-.773s-.684-.469-1.19-.697c-.505-.228-1.16-.47-1.962-.725-.911-.291-1.77-.62-2.577-.984a9.484 9.484 0 0 1-2.119-1.292 5.762 5.762 0 0 1-1.435-1.716c-.351-.647-.527-1.403-.527-2.27 0-.829.18-1.587.54-2.276a5.13 5.13 0 0 1 1.518-1.756c.652-.484 1.426-.86 2.324-1.128.898-.27 1.885-.404 2.96-.404 1.103 0 2.106.153 3.008.458.902.306 1.672.732 2.31 1.279a5.657 5.657 0 0 1 1.477 1.948c.346.752.52 1.574.52 2.468h-4.102c0-.42-.066-.807-.198-1.162a2.36 2.36 0 0 0-.609-.916 2.83 2.83 0 0 0-1.025-.595c-.41-.141-.893-.212-1.45-.212-.537 0-1.004.06-1.4.178a2.848 2.848 0 0 0-.985.492 2.07 2.07 0 0 0-.786 1.64c0 .657.335 1.206 1.005 1.648.67.442 1.652.854 2.946 1.237 1.085.337 2.04.711 2.864 1.121.825.41 1.513.875 2.065 1.395.551.52.968 1.103 1.25 1.75.283.647.425 1.38.425 2.201 0 .875-.171 1.654-.513 2.338a4.831 4.831 0 0 1-1.456 1.73c-.63.469-1.388.829-2.277 1.08-.888.25-1.88.375-2.973.375a11.49 11.49 0 0 1-1.969-.17 9.472 9.472 0 0 1-1.88-.527 8.167 8.167 0 0 1-1.661-.889 6.136 6.136 0 0 1-1.333-1.257 5.676 5.676 0 0 1-.889-1.648 6.184 6.184 0 0 1-.32-2.044h4.114c0 .602.096 1.112.287 1.532.192.419.458.758.8 1.018s.754.449 1.238.567c.483.119 1.02.178 1.613.178.528 0 .989-.057 1.38-.17.393-.115.716-.272.971-.472.256-.2.445-.44.568-.718.123-.278.184-.577.184-.896zM238.063 11.373h-7.875v5.332h9.242V20h-13.344V.094h13.316v3.322h-9.214V8.16h7.875zM258.34 14.258 261.02.094h4.087L260.691 20h-4.128l-3.24-13.316L250.081 20h-4.129L241.537.094h4.088l2.693 14.136L251.6.094h3.472zM278.973 15.898h-7.192L270.414 20h-4.361l7.41-19.906h3.8L284.716 20h-4.361l-1.381-4.102zm-6.084-3.322h4.976l-2.502-7.451-2.474 7.451zM294.943 12.713h-3.267V20h-4.102V.094h7.397c1.148 0 2.178.13 3.09.39.911.26 1.681.642 2.31 1.148a5.033 5.033 0 0 1 1.45 1.88c.337.747.505 1.613.505 2.597 0 .73-.082 1.384-.246 1.962a5.22 5.22 0 0 1-.71 1.545c-.31.451-.684.846-1.122 1.183a7.34 7.34 0 0 1-1.477.875l4.307 8.135V20h-4.402l-3.733-7.287zm-3.267-3.322h3.308c.538 0 1.01-.071 1.415-.212a2.718 2.718 0 0 0 1.012-.602c.269-.26.472-.57.609-.93.136-.36.205-.763.205-1.21 0-.938-.267-1.677-.8-2.214-.533-.538-1.351-.807-2.454-.807h-3.295v5.975zM318.42 11.373h-7.875v5.332h9.242V20h-13.344V.094h13.317v3.322h-9.215V8.16h7.875z" fill="#FFF"/><g fill="#FFF"><path d="m2.594 28.625 2.969 9.281 2.968-9.281h1.844V40h-1.43v-4.43l.133-4.437L6.102 40H5.008l-2.961-8.836.133 4.406V40H.75V28.625zM18.806 37.031h-3.844L14.08 40h-1.47l3.665-11.375h1.227L21.173 40h-1.468l-.899-2.969zm-3.469-1.234h3.102l-1.555-5.172-1.546 5.172zM28.214 37.125c0-.266-.03-.5-.09-.703-.06-.203-.17-.39-.332-.559a2.606 2.606 0 0 0-.656-.476 7.965 7.965 0 0 0-1.07-.457 8.471 8.471 0 0 1-1.274-.551 4.169 4.169 0 0 1-.972-.711 2.877 2.877 0 0 1-.622-.918 2.997 2.997 0 0 1-.218-1.18c0-.442.077-.853.23-1.23.154-.378.373-.706.656-.985a2.994 2.994 0 0 1 1.032-.652 3.706 3.706 0 0 1 1.347-.234c.552 0 1.04.096 1.465.289.425.193.781.448 1.07.765.29.318.507.685.653 1.102.146.417.219.846.219 1.29h-1.438c0-.319-.038-.613-.113-.884a1.907 1.907 0 0 0-.356-.703 1.625 1.625 0 0 0-.613-.46 2.182 2.182 0 0 0-.887-.165c-.317 0-.59.047-.82.14-.23.095-.418.223-.566.387a1.545 1.545 0 0 0-.329.582c-.07.224-.105.47-.105.735 0 .479.172.88.516 1.203.343.323.875.612 1.593.867a8.18 8.18 0 0 1 1.422.606c.396.221.72.472.973.754.253.28.437.596.555.945.117.349.175.745.175 1.187 0 .464-.078.883-.234 1.258a2.694 2.694 0 0 1-.668.961c-.289.266-.64.47-1.05.613a4.213 4.213 0 0 1-1.391.215 4.14 4.14 0 0 1-1.325-.218 3.507 3.507 0 0 1-1.164-.653A3.284 3.284 0 0 1 23 38.203c-.21-.432-.316-.932-.316-1.5h1.437c0 .39.058.725.172 1.004.115.279.272.51.473.691.2.183.433.317.7.403.265.086.549.129.85.129.63 0 1.105-.162 1.422-.485.318-.323.477-.763.477-1.32zM37.028 37.125c0-.266-.03-.5-.09-.703-.06-.203-.17-.39-.332-.559a2.606 2.606 0 0 0-.656-.476 7.965 7.965 0 0 0-1.07-.457 8.471 8.471 0 0 1-1.274-.551 4.169 4.169 0 0 1-.972-.711 2.877 2.877 0 0 1-.621-.918 2.997 2.997 0 0 1-.22-1.18c0-.442.078-.853.231-1.23.154-.378.373-.706.656-.985a2.994 2.994 0 0 1 1.032-.652 3.706 3.706 0 0 1 1.347-.234c.552 0 1.04.096 1.465.289.425.193.781.448 1.07.765.29.318.507.685.653 1.102.146.417.219.846.219 1.29h-1.438c0-.319-.038-.613-.113-.884a1.907 1.907 0 0 0-.356-.703 1.625 1.625 0 0 0-.613-.46 2.182 2.182 0 0 0-.887-.165c-.317 0-.59.047-.82.14-.23.095-.418.223-.566.387a1.545 1.545 0 0 0-.328.582c-.07.224-.106.47-.106.735 0 .479.172.88.516 1.203.343.323.875.612 1.593.867a8.18 8.18 0 0 1 1.422.606c.396.221.72.472.973.754.253.28.437.596.555.945.117.349.175.745.175 1.187 0 .464-.078.883-.234 1.258a2.694 2.694 0 0 1-.668.961c-.289.266-.64.47-1.05.613a4.213 4.213 0 0 1-1.391.215 4.14 4.14 0 0 1-1.325-.218 3.507 3.507 0 0 1-1.164-.653 3.284 3.284 0 0 1-.828-1.082c-.21-.432-.316-.932-.316-1.5h1.437c0 .39.058.725.172 1.004.115.279.272.51.473.691.2.183.434.317.7.403.265.086.549.129.85.129.63 0 1.105-.162 1.423-.485.317-.323.476-.763.476-1.32zM46.178 37.031h-3.844L41.452 40h-1.47l3.665-11.375h1.226L48.545 40h-1.468l-.899-2.969zm-3.469-1.234h3.102l-1.555-5.172-1.547 5.172zM57.664 36.39a5.615 5.615 0 0 1-.293 1.579 3.366 3.366 0 0 1-.7 1.183 2.954 2.954 0 0 1-1.12.746c-.446.172-.962.258-1.551.258a3.477 3.477 0 0 1-1.547-.336 3.303 3.303 0 0 1-1.172-.96 4.54 4.54 0 0 1-.746-1.508c-.174-.589-.262-1.25-.262-1.985v-2.101c0-.73.088-1.39.262-1.98a4.41 4.41 0 0 1 .758-1.513c.33-.416.736-.738 1.215-.964.479-.227 1.02-.34 1.625-.34.552 0 1.04.083 1.465.25.424.166.785.411 1.082.734.297.323.528.721.695 1.195a5.64 5.64 0 0 1 .29 1.633h-1.446a6.002 6.002 0 0 0-.18-1.156 2.226 2.226 0 0 0-.383-.8 1.505 1.505 0 0 0-.625-.47 2.384 2.384 0 0 0-.898-.152c-.417 0-.776.085-1.078.254-.302.17-.552.408-.75.715-.198.307-.345.68-.442 1.117a6.807 6.807 0 0 0-.144 1.461v2.117c0 .5.04.966.12 1.399.082.432.212.81.391 1.132.18.323.416.577.708.762.291.185.645.278 1.062.278.39 0 .72-.049.988-.145.269-.096.487-.247.657-.453a2.11 2.11 0 0 0 .386-.79c.089-.32.151-.706.188-1.16h1.445zM67.572 40h-1.438v-5.258h-4.578V40h-1.43V28.625h1.43v4.89h4.578v-4.89h1.438zM77.355 28.625v8.016c0 .64-.097 1.183-.29 1.629-.192.445-.45.808-.773 1.09a2.96 2.96 0 0 1-1.117.609 4.65 4.65 0 0 1-1.328.187c-.49 0-.947-.062-1.371-.187a2.818 2.818 0 0 1-1.106-.61 2.894 2.894 0 0 1-.738-1.09c-.18-.445-.27-.988-.27-1.628v-8.016h1.422v8.016c0 .442.05.81.149 1.105.099.294.238.53.418.707a1.5 1.5 0 0 0 .648.375c.253.073.535.11.848.11.312 0 .596-.037.851-.11.256-.073.473-.198.653-.375a1.76 1.76 0 0 0 .418-.707c.099-.294.148-.663.148-1.105v-8.016h1.438zM85.052 37.125c0-.266-.03-.5-.09-.703-.06-.203-.17-.39-.332-.559a2.606 2.606 0 0 0-.657-.476 7.965 7.965 0 0 0-1.07-.457 8.471 8.471 0 0 1-1.273-.551 4.169 4.169 0 0 1-.973-.711 2.877 2.877 0 0 1-.621-.918 2.997 2.997 0 0 1-.219-1.18c0-.442.077-.853.23-1.23.154-.378.373-.706.657-.985a2.994 2.994 0 0 1 1.031-.652 3.706 3.706 0 0 1 1.348-.234c.552 0 1.04.096 1.465.289.424.193.78.448 1.07.765.289.318.506.685.652 1.102.146.417.22.846.22 1.29h-1.438c0-.319-.038-.613-.114-.884a1.907 1.907 0 0 0-.355-.703 1.625 1.625 0 0 0-.613-.46 2.182 2.182 0 0 0-.887-.165c-.318 0-.591.047-.82.14-.23.095-.418.223-.567.387a1.545 1.545 0 0 0-.328.582c-.07.224-.105.47-.105.735 0 .479.171.88.515 1.203.344.323.875.612 1.594.867a8.18 8.18 0 0 1 1.422.606c.396.221.72.472.972.754.253.28.438.596.555.945.117.349.176.745.176 1.187 0 .464-.078.883-.234 1.258a2.694 2.694 0 0 1-.668.961c-.29.266-.64.47-1.051.613a4.213 4.213 0 0 1-1.39.215 4.14 4.14 0 0 1-1.325-.218 3.507 3.507 0 0 1-1.164-.653 3.284 3.284 0 0 1-.828-1.082c-.211-.432-.317-.932-.317-1.5h1.438c0 .39.057.725.172 1.004.114.279.272.51.472.691.2.183.434.317.7.403.265.086.549.129.851.129.63 0 1.104-.162 1.422-.485.318-.323.477-.763.477-1.32zM94.35 34.742h-4.023v4.031h4.687V40h-6.117V28.625h6.039v1.234h-4.61v3.657h4.024zM104.172 29.86h-2.992V40h-1.43V29.86h-2.984v-1.235h7.406zM113.15 29.86h-2.992V40h-1.43V29.86h-2.984v-1.235h7.406zM120.198 37.125c0-.266-.03-.5-.09-.703-.06-.203-.17-.39-.331-.559a2.606 2.606 0 0 0-.657-.476 7.965 7.965 0 0 0-1.07-.457 8.471 8.471 0 0 1-1.273-.551 4.169 4.169 0 0 1-.973-.711 2.877 2.877 0 0 1-.621-.918 2.997 2.997 0 0 1-.219-1.18c0-.442.077-.853.23-1.23.154-.378.373-.706.657-.985a2.994 2.994 0 0 1 1.031-.652 3.706 3.706 0 0 1 1.348-.234c.552 0 1.04.096 1.465.289.424.193.78.448 1.07.765.289.318.506.685.652 1.102.146.417.219.846.219 1.29h-1.438c0-.319-.037-.613-.113-.884a1.907 1.907 0 0 0-.355-.703 1.625 1.625 0 0 0-.614-.46 2.182 2.182 0 0 0-.886-.165c-.318 0-.591.047-.82.14-.23.095-.419.223-.567.387a1.545 1.545 0 0 0-.328.582c-.07.224-.106.47-.106.735 0 .479.172.88.516 1.203.344.323.875.612 1.594.867a8.18 8.18 0 0 1 1.422.606c.395.221.72.472.972.754.253.28.438.596.555.945.117.349.176.745.176 1.187 0 .464-.078.883-.235 1.258a2.694 2.694 0 0 1-.668.961c-.289.266-.639.47-1.05.613a4.213 4.213 0 0 1-1.391.215 4.14 4.14 0 0 1-1.324-.218 3.507 3.507 0 0 1-1.164-.653 3.284 3.284 0 0 1-.828-1.082c-.211-.432-.317-.932-.317-1.5h1.438c0 .39.057.725.172 1.004.114.279.272.51.472.691.2.183.434.317.7.403.265.086.549.129.851.129.63 0 1.104-.162 1.422-.485.318-.323.476-.763.476-1.32zM129.725 40h-1.43V28.625h1.43zM140.188 40h-1.438l-4.555-8.766V40h-1.437V28.625h1.437l4.57 8.805v-8.805h1.423zM148.158 37.125c0-.266-.03-.5-.09-.703-.06-.203-.17-.39-.332-.559a2.606 2.606 0 0 0-.656-.476 7.965 7.965 0 0 0-1.07-.457 8.471 8.471 0 0 1-1.274-.551 4.169 4.169 0 0 1-.973-.711 2.877 2.877 0 0 1-.62-.918 2.997 2.997 0 0 1-.22-1.18c0-.442.077-.853.23-1.23.155-.378.373-.706.657-.985a2.994 2.994 0 0 1 1.031-.652 3.706 3.706 0 0 1 1.348-.234c.552 0 1.04.096 1.465.289.424.193.781.448 1.07.765.29.318.507.685.653 1.102.145.417.218.846.218 1.29h-1.437c0-.319-.038-.613-.113-.884a1.907 1.907 0 0 0-.356-.703 1.625 1.625 0 0 0-.613-.46 2.182 2.182 0 0 0-.887-.165c-.318 0-.591.047-.82.14-.23.095-.418.223-.567.387a1.545 1.545 0 0 0-.328.582c-.07.224-.105.47-.105.735 0 .479.172.88.515 1.203.344.323.875.612 1.594.867a8.18 8.18 0 0 1 1.422.606c.396.221.72.472.973.754.252.28.437.596.554.945.118.349.176.745.176 1.187 0 .464-.078.883-.234 1.258a2.694 2.694 0 0 1-.668.961c-.29.266-.64.47-1.051.613a4.213 4.213 0 0 1-1.39.215 4.14 4.14 0 0 1-1.325-.218 3.507 3.507 0 0 1-1.164-.653 3.284 3.284 0 0 1-.828-1.082c-.211-.432-.316-.932-.316-1.5h1.437c0 .39.057.725.172 1.004.115.279.272.51.473.691.2.183.433.317.699.403.265.086.55.129.851.129.63 0 1.105-.162 1.422-.485.318-.323.477-.763.477-1.32zM158.652 29.86h-2.993V40h-1.43V29.86h-2.984v-1.235h7.407zM162.348 40h-1.43V28.625h1.43zM171.803 29.86h-2.992V40h-1.43V29.86h-2.984v-1.235h7.406zM180.79 28.625v8.016c0 .64-.097 1.183-.29 1.629-.193.445-.45.808-.773 1.09a2.96 2.96 0 0 1-1.118.609 4.65 4.65 0 0 1-1.328.187c-.49 0-.946-.062-1.37-.187a2.818 2.818 0 0 1-1.106-.61 2.894 2.894 0 0 1-.739-1.09c-.18-.445-.27-.988-.27-1.628v-8.016h1.423v8.016c0 .442.05.81.148 1.105.1.294.238.53.418.707a1.5 1.5 0 0 0 .649.375c.252.073.535.11.847.11.313 0 .597-.037.852-.11.255-.073.472-.198.652-.375a1.76 1.76 0 0 0 .418-.707c.1-.294.149-.663.149-1.105v-8.016h1.437zM190.166 29.86h-2.993V40h-1.43V29.86h-2.984v-1.235h7.407zM197.823 34.742H193.8v4.031h4.688V40h-6.118V28.625h6.04v1.234h-4.61v3.657h4.023zM212.428 35.313c0 .807-.088 1.513-.266 2.117-.177.604-.43 1.108-.757 1.511a3.113 3.113 0 0 1-1.2.91 3.98 3.98 0 0 1-1.59.305 3.89 3.89 0 0 1-1.562-.304 3.251 3.251 0 0 1-1.21-.91c-.34-.404-.601-.908-.786-1.512-.185-.604-.277-1.31-.277-2.117v-1.977c0-.802.092-1.507.277-2.113.185-.607.444-1.115.777-1.524a3.19 3.19 0 0 1 1.203-.922c.47-.205.99-.308 1.563-.308.589 0 1.118.103 1.59.308.471.206.874.513 1.207.922.333.41.588.917.766 1.524.177.606.265 1.31.265 2.113v1.977zm-1.43-1.993c0-.625-.052-1.162-.156-1.613-.104-.45-.258-.82-.46-1.11a1.847 1.847 0 0 0-.75-.636 2.462 2.462 0 0 0-1.032-.203c-.37 0-.702.068-.996.203a1.91 1.91 0 0 0-.754.637c-.208.289-.368.659-.48 1.109-.112.45-.168.988-.168 1.613v1.992c0 .63.057 1.171.171 1.622.115.45.276.82.485 1.109.208.289.46.501.758.637.296.135.63.203 1 .203.39 0 .734-.068 1.03-.203a1.82 1.82 0 0 0 .747-.637c.2-.29.352-.659.453-1.11.102-.45.152-.99.152-1.62V33.32zM220.438 34.977h-3.844V40h-1.43V28.625h5.922v1.234h-4.492v3.891h3.844zM233.902 29.86h-2.993V40h-1.43V29.86h-2.984v-1.235h7.407zM241.56 34.742h-4.024v4.031h4.687V40h-6.117V28.625h6.04v1.234h-4.61v3.657h4.023zM251.71 36.39a5.615 5.615 0 0 1-.294 1.579 3.365 3.365 0 0 1-.699 1.183 2.954 2.954 0 0 1-1.12.746c-.446.172-.963.258-1.552.258a3.477 3.477 0 0 1-1.547-.336 3.303 3.303 0 0 1-1.171-.96 4.54 4.54 0 0 1-.747-1.508c-.174-.589-.261-1.25-.261-1.985v-2.101c0-.73.087-1.39.261-1.98a4.41 4.41 0 0 1 .758-1.513c.331-.416.736-.738 1.215-.964.48-.227 1.021-.34 1.625-.34.552 0 1.04.083 1.465.25.424.166.785.411 1.082.734.297.323.529.721.695 1.195a5.64 5.64 0 0 1 .29 1.633h-1.446a6.002 6.002 0 0 0-.18-1.156 2.226 2.226 0 0 0-.382-.8 1.505 1.505 0 0 0-.625-.47 2.384 2.384 0 0 0-.899-.152c-.417 0-.776.085-1.078.254-.302.17-.552.408-.75.715-.198.307-.345.68-.441 1.117a6.807 6.807 0 0 0-.145 1.461v2.117c0 .5.04.966.121 1.399.08.432.211.81.39 1.132.18.323.416.577.708.762.291.185.646.278 1.062.278.39 0 .72-.049.989-.145.268-.096.487-.247.656-.453a2.11 2.11 0 0 0 .387-.79c.088-.32.15-.706.187-1.16h1.445zM261.617 40h-1.437v-5.258h-4.578V40h-1.43V28.625h1.43v4.89h4.578v-4.89h1.437zM272.048 40h-1.437l-4.555-8.766V40h-1.437V28.625h1.437l4.57 8.805v-8.805h1.422zM282.448 35.313c0 .807-.088 1.513-.265 2.117-.177.604-.43 1.108-.758 1.511a3.113 3.113 0 0 1-1.2.91 3.98 3.98 0 0 1-1.59.305 3.89 3.89 0 0 1-1.562-.304 3.251 3.251 0 0 1-1.21-.91c-.339-.404-.6-.908-.786-1.512-.185-.604-.277-1.31-.277-2.117v-1.977c0-.802.092-1.507.277-2.113.185-.607.444-1.115.778-1.524a3.19 3.19 0 0 1 1.203-.922c.469-.205.99-.308 1.562-.308.589 0 1.119.103 1.59.308.472.206.874.513 1.207.922.334.41.589.917.766 1.524.177.606.265 1.31.265 2.113v1.977zm-1.43-1.993c0-.625-.051-1.162-.155-1.613-.105-.45-.258-.82-.461-1.11a1.847 1.847 0 0 0-.75-.636 2.462 2.462 0 0 0-1.032-.203c-.37 0-.702.068-.996.203a1.91 1.91 0 0 0-.754.637c-.208.289-.368.659-.48 1.109-.112.45-.168.988-.168 1.613v1.992c0 .63.057 1.171.172 1.622.114.45.276.82.484 1.109.208.289.461.501.758.637.297.135.63.203 1 .203.39 0 .734-.068 1.031-.203a1.82 1.82 0 0 0 .746-.637c.2-.29.352-.659.453-1.11.102-.45.153-.99.153-1.62V33.32zM286.622 38.773h4.46V40h-5.898V28.625h1.438zM300.202 35.313c0 .807-.089 1.513-.266 2.117-.177.604-.43 1.108-.758 1.511a3.113 3.113 0 0 1-1.2.91 3.98 3.98 0 0 1-1.589.305 3.89 3.89 0 0 1-1.562-.304 3.251 3.251 0 0 1-1.211-.91c-.339-.404-.6-.908-.786-1.512-.184-.604-.277-1.31-.277-2.117v-1.977c0-.802.093-1.507.277-2.113.185-.607.444-1.115.778-1.524a3.19 3.19 0 0 1 1.203-.922c.469-.205.99-.308 1.562-.308.589 0 1.119.103 1.59.308.472.206.874.513 1.207.922.334.41.589.917.766 1.524.177.606.266 1.31.266 2.113v1.977zm-1.43-1.993c0-.625-.052-1.162-.156-1.613-.105-.45-.258-.82-.461-1.11a1.847 1.847 0 0 0-.75-.636 2.462 2.462 0 0 0-1.032-.203c-.37 0-.701.068-.996.203a1.91 1.91 0 0 0-.754.637c-.208.289-.368.659-.48 1.109-.112.45-.168.988-.168 1.613v1.992c0 .63.057 1.171.172 1.622.114.45.276.82.484 1.109.209.289.461.501.758.637.297.135.63.203 1 .203.39 0 .734-.068 1.031-.203a1.82 1.82 0 0 0 .746-.637c.2-.29.352-.659.454-1.11.101-.45.152-.99.152-1.62V33.32zM310.055 38.586c-.094.125-.22.277-.38.457-.158.18-.37.352-.636.516a4.153 4.153 0 0 1-.98.421c-.388.118-.858.176-1.41.176a4.247 4.247 0 0 1-1.614-.297 3.313 3.313 0 0 1-1.254-.89c-.349-.396-.62-.893-.812-1.492-.193-.6-.29-1.297-.29-2.094v-2.14c0-3.183 1.274-4.774 3.821-4.774.552 0 1.043.08 1.473.238.43.159.793.388 1.09.688.296.299.528.665.695 1.097.166.432.265.922.297 1.469h-1.43c-.057-.708-.254-1.262-.59-1.66-.336-.399-.845-.598-1.527-.598-.438 0-.807.073-1.11.219a1.799 1.799 0 0 0-.738.66c-.19.294-.328.661-.414 1.102-.086.44-.129.954-.129 1.543v2.156c0 .604.06 1.13.18 1.578.12.448.29.818.512 1.11.22.291.488.508.8.652.313.143.662.215 1.047.215.328 0 .604-.03.828-.086.224-.058.41-.128.559-.211a1.82 1.82 0 0 0 .355-.25 24.1 24.1 0 0 1 .227-.211v-2.625h-2.078v-1.22h3.508v4.25zM315.877 34.336l2.328-5.711h1.617l-3.235 7.133V40h-1.43v-4.242l-3.234-7.133h1.625z"/></g></g></svg>