<svg xmlns="http://www.w3.org/2000/svg" width="1163" height="548" style="shape-rendering:geometricPrecision;text-rendering:geometricPrecision;image-rendering:optimizeQuality;fill-rule:evenodd;clip-rule:evenodd"><path style="opacity:1" fill="#313131" d="M138.5-.5h7c3.942 4.124 3.942 8.29 0 12.5-7.833 1.5-11-1.667-9.5-9.5.698-1.19 1.531-2.19 2.5-3z"/><path style="opacity:.828" fill="#2d2d2d" d="M83.5 41.5c10.469-1.032 14.969 3.635 13.5 14-2.919 5.525-7.419 7.358-13.5 5.5-5.525-2.919-7.358-7.419-5.5-13.5 1.36-2.523 3.193-4.523 5.5-6z"/><path style="opacity:.831" fill="#2e2e2e" d="M130.5 41.5c12.324-.011 16.157 5.656 11.5 17-6.23 4.43-11.897 3.763-17-2-2.042-6.627-.208-11.627 5.5-15z"/><path style="opacity:1" fill="#323232" d="M84.5 44.5c6.669-.495 9.836 2.505 9.5 9-1.713 4.538-4.88 6.038-9.5 4.5-3.624-2.161-4.79-5.328-3.5-9.5.69-1.85 1.856-3.184 3.5-4zM131.5 44.5c6.669-.495 9.836 2.505 9.5 9-3.451 5.852-7.785 6.52-13 2-1.337-4.628-.17-8.295 3.5-11z"/><path style="opacity:.847" fill="#2e2e2e" d="M102.5 86.5c13.751-.757 17.751 5.076 12 17.5-5.562 3.601-10.729 3.101-15.5-1.5-2.722-6.277-1.555-11.61 3.5-16z"/><path style="opacity:1" fill="#323232" d="M103.5 89.5c5.971-1.359 9.637.808 11 6.5-2.653 8.288-7.153 9.455-13.5 3.5-.976-3.827-.143-7.16 2.5-10z"/><path style="opacity:1" fill="#313131" d="M281.5 108.5c10.318-.178 12.651 3.989 7 12.5-8.167 1.833-11.333-1.333-9.5-9.5a10.515 10.515 0 0 0 2.5-3z"/><path style="opacity:.884" fill="#2e2e2e" d="M124.5 135.5c14.805-1.035 20.972 5.631 18.5 20-5.951 9.422-13.785 11.255-23.5 5.5-7.445-10.377-5.778-18.877 5-25.5z"/><path style="opacity:.827" fill="#2d2d2d" d="M252.5 135.5c11.808-1.365 16.308 3.635 13.5 15-6 6.667-12 6.667-18 0-2.219-6.172-.719-11.172 4.5-15z"/><path style="opacity:1" fill="#323232" d="M253.5 138.5c6.018-1.309 9.685 1.024 11 7-2.237 6.468-6.403 8.135-12.5 5-3.057-4.366-2.557-8.366 1.5-12zM125.5 139.5c10.986-.847 15.486 4.153 13.5 15-3.663 5.333-8.497 6.833-14.5 4.5-4.583-3.35-6.083-7.85-4.5-13.5 1.36-2.523 3.193-4.523 5.5-6z"/><path style="opacity:.842" fill="#2e2e2e" d="M209.5 150.5c10.936.202 14.77 5.535 11.5 16-6.296 6.541-12.296 6.208-18-1-2.135-7.05.032-12.05 6.5-15z"/><path style="opacity:1" fill="#323232" d="M210.5 153.5c6.642.14 9.476 3.473 8.5 10-2.513 3.712-6.013 4.878-10.5 3.5-4.466-5.364-3.8-9.864 2-13.5z"/><path style="opacity:.905" fill="#2d2d2d" d="M164.5 184.5c16.15-1.351 23.317 5.983 21.5 22-4.279 9.223-11.446 12.723-21.5 10.5-10.48-5.151-13.647-13.318-9.5-24.5 2.735-3.269 5.901-5.936 9.5-8z"/><path style="opacity:1" fill="#323232" d="M169.5 188.5a32.52 32.52 0 0 1 9 3.5c6.489 10.889 3.655 18.055-8.5 21.5-11.952-3.193-14.952-10.193-9-21 2.564-2.124 5.397-3.458 8.5-4z"/><path style="opacity:.947" d="M742.5 195.5h19c-.167 21.003 0 42.003.5 63 11.607-14.201 26.44-19.035 44.5-14.5 14.205 5.534 21.705 16.034 22.5 31.5.5 23.664.667 47.331.5 71h-20c.167-22.669 0-45.336-.5-68-2.851-14.679-11.684-20.846-26.5-18.5-10.646 3.317-17.146 10.483-19.5 21.5a766.505 766.505 0 0 0-1.5 65h-19v-151z"/><path style="opacity:.934" d="M250.5 206.5a237.256 237.256 0 0 1 30.5 1 3135.454 3135.454 0 0 1 44 118 61.395 61.395 0 0 1 3-13 6896.734 6896.734 0 0 0 41.5-106h31v140h-20c.167-40.001 0-80.001-.5-120a9036.318 9036.318 0 0 0-46.5 120h-19a25553.221 25553.221 0 0 1-45.5-120c-.5 39.999-.667 79.999-.5 120h-18v-140z"/><path style="opacity:.931" d="M977.5 206.5c15.004-.167 30 0 45 .5 32.97 4.422 45.8 22.922 38.5 55.5-5.69 14.352-16.19 22.852-31.5 25.5a199.674 199.674 0 0 1-31 1.5v57h-21v-140zm21 16c11.39-1.051 22.39.449 33 4.5 11.18 10.634 13.02 22.801 5.5 36.5-5.24 5.642-11.74 8.809-19.5 9.5-6.32.5-12.66.666-19 .5v-51z"/><path style="opacity:.938" d="M467.5 242.5c19.423-2.364 35.589 3.636 48.5 18 8.892 14.464 11.892 30.13 9 47-7.395 30.7-26.895 44.2-58.5 40.5-21.154-3.487-34.321-15.653-39.5-36.5-4.11-18.676-1.11-36.01 9-52 8.527-9.511 19.027-15.177 31.5-17zm4 15c17.97-.264 28.803 8.403 32.5 26 2.369 11.311 1.369 22.311-3 33-6.855 12.511-17.355 17.678-31.5 15.5-12.873-4.559-20.373-13.725-22.5-27.5-2.986-16.129 1.181-29.963 12.5-41.5 3.784-2.529 7.784-4.362 12-5.5z"/><path style="opacity:.93" d="M668.5 242.5c25.59-1.577 41.423 10.09 47.5 35 4.085 20.099.751 38.765-10 56-11.893 12.934-26.393 17.101-43.5 12.5-8.086-2.133-14.586-6.633-19.5-13.5-.5 18.33-.667 36.664-.5 55h-20v-143h18c-.166 6.009.001 12.009.5 18 6.312-10.726 15.478-17.393 27.5-20zm-3 16c17.151-.36 27.318 7.973 30.5 25 2.156 13.393.156 26.06-6 38-12.913 14.268-26.246 14.601-40 1-9.184-16.624-9.851-33.624-2-51 4.392-6.429 10.225-10.762 17.5-13z"/><path style="opacity:.937" d="M893.5 242.5c42.211-.953 61.711 19.714 58.5 62-2.835 24.5-16.335 39-40.5 43.5-31.787 3.88-51.287-9.62-58.5-40.5-4.201-22.407 1.966-41.24 18.5-56.5 6.935-4.14 14.268-6.974 22-8.5zm5 15c18.333.493 29.166 9.826 32.5 28 1.322 10.261.322 20.261-3 30-10.252 18.082-24.418 21.915-42.5 11.5-8.71-8.615-13.043-19.115-13-31.5-.009-13.476 4.991-24.643 15-33.5a78.147 78.147 0 0 1 11-4.5z"/><path style="opacity:.919" d="M588.5 243.5h17a102.093 102.093 0 0 1-2 19c-18.361-3.157-29.194 4.51-32.5 23-.5 20.331-.667 40.664-.5 61h-20v-102h18c-.166 5.676.001 11.343.5 17 4.163-8.668 10.663-14.668 19.5-18z"/><path style="opacity:.928" d="M1162.5 244.5v4a6128.802 6128.802 0 0 0-37.5 103c-3 9.672-7.34 18.672-13 27-6.57 8.027-15.07 11.694-25.5 11a145.13 145.13 0 0 1-12-1c.21-5.718.87-11.385 2-17 9.96 3.625 17.79.959 23.5-8 2.44-4.552 4.61-9.218 6.5-14a3276.823 3276.823 0 0 1-37-105c6.92-.312 13.76.021 20.5 1a2775.275 2775.275 0 0 0 27 79 5502.484 5502.484 0 0 0 26-79 98.26 98.26 0 0 1 19.5-1z"/><path style="opacity:.9" fill="#2e2e2e" d="M158.5 253.5c16.564-.83 23.397 6.837 20.5 23-4.659 9.084-11.826 12.25-21.5 9.5-9.992-4.959-13.158-12.792-9.5-23.5 2.489-4.332 5.989-7.332 10.5-9z"/><path style="opacity:1" fill="#323232" d="M163.5 257.5c10.919 2.907 14.086 9.574 9.5 20-7.044 6.923-13.711 6.59-20-1-3.759-10.49-.259-16.824 10.5-19z"/><path style="opacity:.843" fill="#2e2e2e" d="M-.5 274.5v-9c5.849-7.042 12.015-7.375 18.5-1 3.183 7.462 1.017 12.629-6.5 15.5-5.354.944-9.354-.889-12-5.5z"/><path style="opacity:1" fill="#323232" d="M5.5 263.5c6.023-1.303 9.69 1.03 11 7-.72 4.218-3.22 6.552-7.5 7-5.901-1.466-7.901-5.133-6-11a10.51 10.51 0 0 0 2.5-3z"/><path style="opacity:.883" fill="#2d2d2d" d="M26.5 300.5c17.128-.709 23.962 7.291 20.5 24-5.746 8.692-13.58 11.192-23.5 7.5-11.125-8.891-11.791-18.558-2-29a38.728 38.728 0 0 0 5-2.5z"/><path style="opacity:1" fill="#323232" d="M31.5 304.5c10.262 2.52 13.762 8.853 10.5 19-6.659 7.444-13.326 7.777-20 1-4.585-10.494-1.418-17.16 9.5-20z"/><path style="opacity:.925" fill="#2e2e2e" d="M153.5 306.5c15.911.246 24.911 8.246 27 24-4.069 20.539-16.069 27.372-36 20.5-11.986-9.407-14.486-20.907-7.5-34.5 4.443-5.295 9.943-8.629 16.5-10z"/><path style="opacity:1" fill="#323232" d="M151.5 313.5c15.815-1.019 22.982 6.315 21.5 22-6.193 12.063-15.36 14.896-27.5 8.5-9.551-12.624-7.551-22.79 6-30.5z"/><path style="opacity:.923" fill="#2d2d2d" d="M70.5 335.5c19.136.301 27.969 9.968 26.5 29-4.622 14.401-14.456 20.234-29.5 17.5-16.495-7.142-20.995-18.976-13.5-35.5 4.07-5.919 9.57-9.585 16.5-11z"/><path style="opacity:1" fill="#323232" d="M69.5 342.5c12.34-1.159 19.673 4.341 22 16.5-2.681 14.174-11.015 19.507-25 16-10.756-7.695-12.423-17.028-5-28a48.492 48.492 0 0 1 8-4.5z"/><path style="opacity:.953" fill="#2d2d2d" d="M154.5 371.5c25.535.42 39.869 13.254 43 38.5-2.24 23.74-15.24 36.574-39 38.5-28.995-4.308-41.161-20.974-36.5-50 5.623-15.471 16.456-24.471 32.5-27z"/><path style="opacity:.836" fill="#2d2d2d" d="M255.5 374.5c13.526-.587 18.026 5.413 13.5 18-6.62 5.562-12.953 5.228-19-1-2.85-7.281-1.017-12.947 5.5-17z"/><path style="opacity:1" fill="#323232" d="M257.5 377.5c8.196.029 11.363 4.029 9.5 12-4.667 5.333-9.333 5.333-14 0-1.691-5.369-.191-9.369 4.5-12zM155.5 381.5c18.927.595 29.593 10.261 32 29-4.502 22.415-17.835 30.915-40 25.5-14.285-7.745-19.452-19.578-15.5-35.5 4.378-10.753 12.211-17.087 23.5-19z"/><path style="opacity:.888" fill="#2e2e2e" d="M218.5 411.5c17.107-.729 23.94 7.271 20.5 24-6.538 9.379-15.038 11.546-25.5 6.5-9.333-9.333-9.333-18.667 0-28a38.715 38.715 0 0 0 5-2.5z"/><path style="opacity:1" fill="#323232" d="M222.5 415.5c11.493 1.665 15.327 7.999 11.5 19-6.964 7.797-13.964 7.797-21 0-3.165-9.672.002-16.005 9.5-19z"/><path style="opacity:.89" fill="#2d2d2d" d="M266.5 429.5c14.278-.562 20.111 6.105 17.5 20-5.282 9.33-12.782 11.496-22.5 6.5-7.895-7.979-7.895-15.979 0-24a38.715 38.715 0 0 0 5-2.5z"/><path style="opacity:.837" fill="#2e2e2e" d="M414.5 429.5c10.477-.351 14.644 4.649 12.5 15-3.298 4.72-7.798 6.22-13.5 4.5-6.359-4.299-7.525-9.799-3.5-16.5a29.01 29.01 0 0 0 4.5-3z"/><path style="opacity:1" fill="#323232" d="M415.5 432.5c7.598-.166 10.431 3.501 8.5 11-7.921 5.418-12.254 3.418-13-6 1.025-2.187 2.525-3.854 4.5-5z"/><path style="opacity:.93" fill="#2e2e2e" d="M72.5 433.5c19.7 2.536 27.534 13.536 23.5 33-7.322 13.243-18.155 17.41-32.5 12.5-11.7-7.092-15.534-17.259-11.5-30.5 4.185-8.693 11.018-13.693 20.5-15z"/><path style="opacity:1" fill="#323232" d="M267.5 433.5c10.189.02 14.356 5.02 12.5 15-3.847 5.888-9.013 7.388-15.5 4.5-6.647-7.598-5.647-14.098 3-19.5z"/><path style="opacity:.883" fill="#2d2d2d" d="M316.5 433.5c13.195 2.375 17.695 10.041 13.5 23-6.51 7.502-14.01 8.669-22.5 3.5-6.248-6.9-6.582-14.067-1-21.5 2.895-2.781 6.228-4.448 10-5z"/><path style="opacity:.838" fill="#2d2d2d" d="M364.5 436.5c10.435-1.065 14.935 3.602 13.5 14-5.146 7.209-11.146 7.876-18 2-3.025-6.758-1.525-12.091 4.5-16z"/><path style="opacity:1" fill="#323232" d="M313.5 438.5c10.488-1.013 14.988 3.654 13.5 14-3.277 5.609-8.11 7.442-14.5 5.5-7.875-6.889-7.542-13.389 1-19.5zM365.5 439.5c9.202-.252 11.869 3.748 8 12-6.048 3.31-10.048 1.644-12-5 .586-2.849 1.92-5.182 4-7zM69.5 440.5c12.56-1.107 19.893 4.559 22 17-2.676 14.336-11.01 19.503-25 15.5-12.243-9.217-12.91-19.217-2-30a38.728 38.728 0 0 0 5-2.5z"/><path style="opacity:.891" fill="#2d2d2d" d="M27.5 469.5c14.816-.685 21.649 6.315 20.5 21-4.854 12.068-13.354 15.568-25.5 10.5-9.79-8.496-10.458-17.663-2-27.5 2.265-1.627 4.599-2.961 7-4z"/><path style="opacity:1" fill="#323232" d="M27.5 474.5c14.214.093 18.714 6.759 13.5 20-8.595 6.348-15.595 5.014-21-4-1.416-7.283 1.084-12.616 7.5-16z"/><path style="opacity:.834" fill="#2e2e2e" d="M31.5 547.5h-9c-7.418-5.764-7.751-11.93-1-18.5 10.3-3.029 15.468.805 15.5 11.5-.967 3.121-2.8 5.454-5.5 7z"/><path style="opacity:1" fill="#323232" d="M24.5 530.5c5.73-.64 9.064 1.86 10 7.5-2.971 7.138-7.471 8.304-13.5 3.5-1.947-4.658-.78-8.324 3.5-11z"/></svg>