<svg xmlns="http://www.w3.org/2000/svg" width="406" height="400" style="shape-rendering:geometricPrecision;text-rendering:geometricPrecision;image-rendering:optimizeQuality;fill-rule:evenodd;clip-rule:evenodd"><path style="opacity:1" fill="#fdfdfd" d="M-.5-.5h406v400H-.5V-.5z"/><path style="opacity:1" fill="#e7e7e9" d="M37.5 15.5a17721.832 17721.832 0 0 1 326-.5c.916.278 1.582.778 2 1.5a27233.681 27233.681 0 0 0-328-1z"/><path style="opacity:1" fill="#282a3d" d="M37.5 15.5c109.355-.325 218.688.008 328 1 6.749 2.079 12.083 6.079 16 12-.073 1.527.594 2.527 2 3a10.1 10.1 0 0 0 1.5 6c.823 110.351.656 220.684-.5 331-3.682 9.179-10.349 15.012-20 17.5-110 .667-220 .667-330 0-7.067-2.576-12.4-7.076-16-13.5-.255-2.467-1.255-4.467-3-6v-3c-.325-109.688.008-219.355 1-329v-1c1.406-.473 2.073-1.473 2-3 4.256-7.585 10.59-12.585 19-15z"/><path style="opacity:1" fill="#534c66" d="M62.5 29.5c.523 2.208 1.856 3.708 4 4.5-3.97 2.382-3.803 4.215.5 5.5a6.807 6.807 0 0 1 1.5-3c.84 4.737 1.84 9.404 3 14 4.234-1.453 6.234.213 6 5 1.175.219 2.175-.114 3-1-1.353-1.024-2.02-2.357-2-4 1.788-.285 3.455.048 5 1l2 9c-.898 2.981-1.065 5.981-.5 9-1.61.647-3.11 1.48-4.5 2.5l5.5 4.5c1.953-3.922 3.12-3.588 3.5 1-9.398 10.052-16.732 21.385-22 34a12.935 12.935 0 0 0-.5-5c-1.706-.808-2.54-2.141-2.5-4a15.417 15.417 0 0 0-7 1 26.383 26.383 0 0 1-5-4.5 17.64 17.64 0 0 0-6 .5c.14-1.624-.527-2.79-2-3.5l8-1c-1.473-.71-2.14-1.876-2-3.5a53.552 53.552 0 0 1-15-5 20.627 20.627 0 0 0-6 2 4.452 4.452 0 0 0 2 1.5 9.468 9.468 0 0 0-2.5 1.5 832.108 832.108 0 0 1-1.5 41c-.167-31.002 0-62.002.5-93 1.121-4.294 3.621-7.294 7.5-9a198.816 198.816 0 0 1 27-1z"/><path style="opacity:1" fill="#4f4861" d="M62.5 29.5c21.01-.333 42.011 0 63 1a44.364 44.364 0 0 0-2 10c.149 1.82.816 3.32 2 4.5-3.34 3.69-2.674 5.857 2 6.5-.17 1.322.163 2.489 1 3.5-.949.617-1.782.45-2.5-.5a2.429 2.429 0 0 0-.5 2c-13.446 4.394-25.446 11.394-36 21-.38-4.588-1.547-4.922-3.5-1L80.5 72a20.492 20.492 0 0 1 4.5-2.5c-.565-3.019-.398-6.019.5-9l-2-9c-1.545-.952-3.212-1.285-5-1-.02 1.643.647 2.976 2 4-.825.886-1.825 1.219-3 1 .234-4.787-1.766-6.453-6-5a198.553 198.553 0 0 1-3-14 6.807 6.807 0 0 0-1.5 3c-4.303-1.285-4.47-3.118-.5-5.5-2.144-.792-3.477-2.292-4-4.5z"/><path style="opacity:1" fill="#49465a" d="M262.5 28.5a1669.317 1669.317 0 0 1-58 1.5c.434 2.713.768 5.713 1 9a293.203 293.203 0 0 0-2 22.5c1.322.17 2.489-.163 3.5-1a26.596 26.596 0 0 1 3.5 2 24.164 24.164 0 0 0 5 6.5 4.932 4.932 0 0 1-3 .5 110.666 110.666 0 0 0-5 17h5c.602 5.524-.398 10.69-3 15.5 4.513 10.815 3.846 21.149-2 31a4.457 4.457 0 0 0 2 1.5c3.355-1.016 6.688-2.016 10-3v-3h3c-.61 5.155.556 9.822 3.5 14 3.104-4.109 4.604-3.442 4.5 2-1.967.239-3.801-.094-5.5-1-1.579 1.958-1.412 3.958.5 6a20.64 20.64 0 0 1-6 2 35.083 35.083 0 0 0-12-2.5 4.457 4.457 0 0 0 2-1.5 10.258 10.258 0 0 0-4-1.5c1.154-.914.987-1.747-.5-2.5a18.163 18.163 0 0 0 .5 8c-.617-.111-1.117-.444-1.5-1a2274.289 2274.289 0 0 0-9-54c-3.243-15.681-12.076-26.848-26.5-33.5-13.749-5.84-28.082-8.007-43-6.5a2.429 2.429 0 0 1 .5-2c.718.95 1.551 1.117 2.5.5-.837-1.011-1.17-2.178-1-3.5-4.674-.643-5.34-2.81-2-6.5-1.184-1.18-1.851-2.68-2-4.5.284-3.42.951-6.753 2-10-20.989-1-41.99-1.333-63-1a198.816 198.816 0 0 0-27 1c.11-.617.444-1.117 1-1.5 75.333-.5 150.666-.667 226-.5z"/><path style="opacity:1" fill="#4d485a" d="M262.5 28.5c33.668-.167 67.335 0 101 .5 1.82.2 3.153 1.034 4 2.5a129.7 129.7 0 0 0-7-1.5 612.94 612.94 0 0 0-35-.5c-19.336-.167-38.67 0-58 .5 1.658.725 2.158 1.892 1.5 3.5-1.972-.805-3.472-2.139-4.5-4a43.503 43.503 0 0 0-2 15 4.932 4.932 0 0 1 3 .5 6.977 6.977 0 0 0-2.5 3.5 143.932 143.932 0 0 0-3 29 7.292 7.292 0 0 0-2 3c-.442-2.178-1.442-2.845-3-2a204.142 204.142 0 0 0-6.5 25.5 61.227 61.227 0 0 1 2.5 12.5 57.56 57.56 0 0 1-3 8 29.927 29.927 0 0 0-2-9l-.5 2a592.33 592.33 0 0 1 0 19.5 94.443 94.443 0 0 0 2 6.5c-1.76 2.712-2.427 5.712-2 9h-3c-1.556-2.114-1.389-.781.5 4 1.299.59 2.132 1.59 2.5 3a130.406 130.406 0 0 0-1.5 7l-1-1c-4.858 1.336-9.358 3.336-13.5 6l-1-2c-1.611.82-2.278 2.154-2 4-10.398-4.065-17.398-11.399-21-22a18.163 18.163 0 0 1-.5-8c1.487.753 1.654 1.586.5 2.5 1.438.219 2.771.719 4 1.5a4.457 4.457 0 0 1-2 1.5c4.162.132 8.162.966 12 2.5a20.64 20.64 0 0 0 6-2c-1.912-2.042-2.079-4.042-.5-6 1.699.906 3.533 1.239 5.5 1 .104-5.442-1.396-6.109-4.5-2-2.944-4.178-4.11-8.845-3.5-14h-3v3c-3.312.984-6.645 1.984-10 3a4.457 4.457 0 0 1-2-1.5c5.846-9.851 6.513-20.185 2-31 2.602-4.81 3.602-9.976 3-15.5h-5a110.666 110.666 0 0 1 5-17 4.932 4.932 0 0 0 3-.5 24.164 24.164 0 0 1-5-6.5 26.596 26.596 0 0 0-3.5-2c-1.011.837-2.178 1.17-3.5 1 .377-7.52 1.044-15.02 2-22.5-.232-3.287-.566-6.287-1-9 19.504-.168 38.838-.668 58-1.5z"/><path style="opacity:1" fill="#544d5f" d="M325.5 29.5a30.968 30.968 0 0 0 2 2c-2.446 2.151-3.113 4.651-2 7.5a59.578 59.578 0 0 1-9 13.5c-1.232 2.182-1.232 4.35 0 6.5a54.69 54.69 0 0 0-6.5 13.5c-11.442 9.452-18.775 21.452-22 36-.71 1.473-1.876 2.14-3.5 2a203.486 203.486 0 0 1-3 21 383.918 383.918 0 0 1 2 20l2-7c1.651 6.672.818 13.005-2.5 19-.535-1.771-1.369-2.104-2.5-1 1.392 5.421 1.059 10.754-1 16 1.189.929 2.522 1.262 4 1-11.493 1.159-23.159 1.326-35 .5-7.713-1.218-15.046-3.385-22-6.5-.278-1.846.389-3.18 2-4l1 2c4.142-2.664 8.642-4.664 13.5-6l1 1c.436-2.347.936-4.681 1.5-7-.368-1.41-1.201-2.41-2.5-3-1.889-4.781-2.056-6.114-.5-4h3c-.427-3.288.24-6.288 2-9a94.443 94.443 0 0 1-2-6.5 592.33 592.33 0 0 0 0-19.5l.5-2a29.927 29.927 0 0 1 2 9 57.56 57.56 0 0 0 3-8 61.227 61.227 0 0 0-2.5-12.5 204.142 204.142 0 0 1 6.5-25.5c1.558-.845 2.558-.178 3 2a7.292 7.292 0 0 1 2-3 143.932 143.932 0 0 1 3-29 6.977 6.977 0 0 1 2.5-3.5 4.932 4.932 0 0 0-3-.5 43.503 43.503 0 0 1 2-15c1.028 1.861 2.528 3.195 4.5 4 .658-1.608.158-2.775-1.5-3.5 19.33-.5 38.664-.667 58-.5z"/><path style="opacity:1" fill="#5a5263" d="M325.5 29.5a612.94 612.94 0 0 1 35 .5c2.366.44 4.699.94 7 1.5 2.731 1.571 4.565 3.905 5.5 7 .5 13.996.667 27.996.5 42-1.545.73-2.378 2.063-2.5 4-.419-4.352-1.086-4.685-2-1-2.804-1.844-5.97-2.511-9.5-2v3c2.747-.313 5.414.02 8 1-4.449 2.842-8.616 2.509-12.5-1-1.11 1.537-2.61 2.204-4.5 2 .593 3.096-.407 5.43-3 7l3 2a16.868 16.868 0 0 1-8 1v3c-4.494-.337-7.328 1.663-8.5 6a13.92 13.92 0 0 1-4 3 14.72 14.72 0 0 1-1.5 5 7.248 7.248 0 0 1-2.5-2 42.254 42.254 0 0 0 0 8c-1.584 1.361-3.418 2.028-5.5 2a4.934 4.934 0 0 1-.5 3 30.326 30.326 0 0 0-6 7 177.048 177.048 0 0 1-1.5 21.5l1 8.5a3.647 3.647 0 0 0 1.5-1l1-18c2.379-4.703 3.713-9.703 4-15 .893-1.211 1.726-1.211 2.5 0a3106.67 3106.67 0 0 0-4.5 17 56.766 56.766 0 0 0 .5 18c-2.497 3.422-2.497 6.755 0 10a6.895 6.895 0 0 1-2 4c1.168 1.406.835 2.572-1 3.5a51.22 51.22 0 0 0 4 2.5 138.48 138.48 0 0 0-36-3c-1.478.262-2.811-.071-4-1 2.059-5.246 2.392-10.579 1-16 1.131-1.104 1.965-.771 2.5 1 3.318-5.995 4.151-12.328 2.5-19l-2 7a383.918 383.918 0 0 0-2-20 203.486 203.486 0 0 0 3-21c1.624.14 2.79-.527 3.5-2 3.225-14.548 10.558-26.548 22-36a54.69 54.69 0 0 1 6.5-13.5c-1.232-2.15-1.232-4.318 0-6.5a59.578 59.578 0 0 0 9-13.5c-1.113-2.849-.446-5.349 2-7.5a30.968 30.968 0 0 1-2-2z"/><path style="opacity:1" fill="#7e7f8a" d="M381.5 28.5c1.406.473 2.073 1.473 2 3-1.406-.473-2.073-1.473-2-3z"/><path style="opacity:1" fill="#999aa3" d="M18.5 30.5c.073 1.527-.594 2.527-2 3-.073-1.527.594-2.527 2-3z"/><path style="opacity:1" fill="#93949e" d="M16.5 34.5a27397.917 27397.917 0 0 0-1 329 17721.832 17721.832 0 0 1-.5-326c.232-1.237.732-2.237 1.5-3z"/><path style="opacity:1" fill="#6a6b78" d="M383.5 31.5c1.293 1.342 2.126 3.009 2.5 5 .667 109.333.667 218.667 0 328-.21 1.558-.71 2.891-1.5 4a18453.874 18453.874 0 0 0 .5-331 10.1 10.1 0 0 1-1.5-6z"/><path style="opacity:1" fill="#282a3c" d="M125.5 56.5c14.918-1.507 29.251.66 43 6.5 14.424 6.652 23.257 17.819 26.5 33.5 3.216 17.96 6.216 35.96 9 54 .383.556.883.889 1.5 1 3.602 10.601 10.602 17.935 21 22 6.954 3.115 14.287 5.282 22 6.5 11.841.826 23.507.659 35-.5a138.48 138.48 0 0 1 36 3c9.168 4.333 16.668 10.666 22.5 19 6.919 14.688 10.753 30.021 11.5 46 .958 17.147-2.042 33.48-9 49-9.667 14.333-21.667 26.333-36 36-21.519 11.953-44.519 18.62-69 20a813 813 0 0 0-32-1l-18-5c-15.533-9.197-28.533-21.197-39-36a155.307 155.307 0 0 0-7-15c-3.679-10.704-7.345-21.371-11-32-2.35-8.365-6.017-16.032-11-23-3.042-5.222-6.709-10.055-11-14.5a484.49 484.49 0 0 0-21-16.5 308.244 308.244 0 0 1-20-22 181.116 181.116 0 0 1-8.5-16 119.974 119.974 0 0 1-2.5-31c1.63-10.209 4.63-19.876 9-29 5.268-12.615 12.602-23.948 22-34 10.554-9.606 22.554-16.606 36-21z"/><path style="opacity:1" fill="#9e937a" d="M187.5 122.5c-.056 5.231.611 10.231 2 15 2.427 26.94 16.76 44.107 43 51.5a213.995 213.995 0 0 0 20 4l52-1c16.641 2.308 27.475 11.475 32.5 27.5 6.473 22.702 5.973 45.202-1.5 67.5-21.365 32.026-51.365 49.693-90 53-13.038.853-26.038.52-39-1-9.34-2.503-17.674-6.836-25-13a327.032 327.032 0 0 1-19.5-21.5 1161.717 1161.717 0 0 1-19-51c-6.214-14.58-15.047-27.413-26.5-38.5A223.705 223.705 0 0 1 80 180.5c-7.895-12.591-10.562-26.258-8-41 3.325-15.319 8.992-29.652 17-43 9.788-13.459 22.622-22.625 38.5-27.5 15.501-2.252 29.834.748 43 9 3.922 3.25 7.088 7.084 9.5 11.5 3.632 10.851 6.132 21.851 7.5 33z"/><path style="opacity:1" fill="#5f5667" d="M373.5 80.5v147a43.836 43.836 0 0 1-2-1c-3.711 2.095-7.711 3.262-12 3.5a26.585 26.585 0 0 1-2 3.5c-1.333-1.333-2.667-1.333-4 0a231.644 231.644 0 0 0 0 14c-.747-15.979-4.581-31.312-11.5-46-5.832-8.334-13.332-14.667-22.5-19a51.22 51.22 0 0 1-4-2.5c1.835-.928 2.168-2.094 1-3.5a6.895 6.895 0 0 0 2-4c-2.497-3.245-2.497-6.578 0-10a56.766 56.766 0 0 1-.5-18 3106.67 3106.67 0 0 1 4.5-17c-.774-1.211-1.607-1.211-2.5 0-.287 5.297-1.621 10.297-4 15l-1 18a3.647 3.647 0 0 1-1.5 1l-1-8.5a177.048 177.048 0 0 0 1.5-21.5 30.326 30.326 0 0 1 6-7 4.934 4.934 0 0 0 .5-3c2.082.028 3.916-.639 5.5-2a42.254 42.254 0 0 1 0-8 7.248 7.248 0 0 0 2.5 2 14.72 14.72 0 0 0 1.5-5 13.92 13.92 0 0 0 4-3c1.172-4.337 4.006-6.337 8.5-6v-3c2.747.313 5.414-.02 8-1l-3-2c2.593-1.57 3.593-3.904 3-7 1.89.204 3.39-.463 4.5-2 3.884 3.509 8.051 3.842 12.5 1a16.868 16.868 0 0 0-8-1v-3c3.53-.511 6.696.156 9.5 2 .914-3.685 1.581-3.352 2 1 .122-1.937.955-3.27 2.5-4z"/><path style="opacity:1" fill="#538790" d="M175.5 109.5c-1.25-.077-2.083-.744-2.5-2-1.309 2.391-2.309 2.391-3 0-4.357-.293-8.857-.293-13.5 0-6.001-2.509-12.335-3.675-19-3.5a2157.524 2157.524 0 0 1-8.5-3.5 6.293 6.293 0 0 0-3 1c-.902-3.304-2.236-3.638-4-1-4.167-1.003-7.333-3.336-9.5-7l-2 1a16.062 16.062 0 0 0-5-2c15.297-15.826 33.297-19.492 54-11 10.466 6.25 15.799 15.583 16 28z"/><path style="opacity:1" fill="#53808b" d="M105.5 92.5a16.062 16.062 0 0 1 5 2l2-1c2.167 3.664 5.333 5.997 9.5 7 1.764-2.638 3.098-2.304 4 1a6.293 6.293 0 0 1 3-1c2.786 1.154 5.619 2.321 8.5 3.5 6.665-.175 12.999.991 19 3.5 4.643-.293 9.143-.293 13.5 0 .691 2.391 1.691 2.391 3 0 .417 1.256 1.25 1.923 2.5 2 2.629 8.335 3.962 17.002 4 26a10.515 10.515 0 0 1-3-2.5 313.363 313.363 0 0 0-17.5-2.5 432.915 432.915 0 0 0-8-6 4.934 4.934 0 0 0-.5 3 138.717 138.717 0 0 0-17.5-5c-1.779.979-3.445.646-5-1-.945.405-1.612 1.072-2 2-3.971-3.768-8.637-5.101-14-4a14.834 14.834 0 0 1-5.5-3.5 43.073 43.073 0 0 1-9-2 9.465 9.465 0 0 1-1.5-2.5c-1.356.88-2.856 1.214-4.5 1 2.641-7.993 7.308-14.66 14-20z"/><path style="opacity:1" fill="#5a536d" d="M67.5 111.5c-4.37 9.124-7.37 18.791-9 29-1.953 1.499-3.62 1.165-5-1-3.75.523-7.417-.977-11-4.5-4.253-.2-8.42-.7-12.5-1.5a462.362 462.362 0 0 0-2.5 29v-30a832.108 832.108 0 0 0 1.5-41 9.468 9.468 0 0 1 2.5-1.5 4.452 4.452 0 0 1-2-1.5 20.627 20.627 0 0 1 6-2 53.552 53.552 0 0 0 15 5c-.14 1.624.527 2.79 2 3.5l-8 1c1.473.71 2.14 1.876 2 3.5a17.64 17.64 0 0 1 6-.5 26.383 26.383 0 0 0 5 4.5 15.417 15.417 0 0 1 7-1c-.04 1.859.794 3.192 2.5 4 .493 1.634.66 3.301.5 5z"/><path style="opacity:1" fill="#547986" d="M179.5 135.5a513.712 513.712 0 0 1 3 19c-1.499-1.178-2.499-2.845-3-5-1.406 1.168-2.572.835-3.5-1-.667 1-.667 2 0 3a20.499 20.499 0 0 1 3.5 2.5c-3.98-1.232-7.813-3.065-11.5-5.5a62.134 62.134 0 0 0-8.5 0 1225.89 1225.89 0 0 0-20-7c-1.449 1.117-3.116 1.784-5 2a156.13 156.13 0 0 1-10-1.5 10.756 10.756 0 0 1-3-2.5c-.951.826-1.951.992-3 .5 1.333-.667 1.333-1.333 0-2l-11-1 1-1a125.271 125.271 0 0 1-16.5-3.5 13.243 13.243 0 0 0-5 3 6.544 6.544 0 0 1-3-3c-.1 2.153-.933 3.819-2.5 5 1.815-9.146 5.148-17.48 10-25 1.644.214 3.144-.12 4.5-1 .374.916.874 1.75 1.5 2.5a43.073 43.073 0 0 0 9 2 14.834 14.834 0 0 0 5.5 3.5c5.363-1.101 10.029.232 14 4 .388-.928 1.055-1.595 2-2 1.555 1.646 3.221 1.979 5 1a138.717 138.717 0 0 1 17.5 5 4.934 4.934 0 0 1 .5-3 432.915 432.915 0 0 1 8 6 313.363 313.363 0 0 1 17.5 2.5 10.515 10.515 0 0 0 3 2.5z"/><path style="opacity:1" fill="#655f5b" d="M187.5 122.5c1.389 4.769 2.056 9.769 2 15-1.389-4.769-2.056-9.769-2-15z"/><path style="opacity:1" fill="#557381" d="M182.5 154.5a152.007 152.007 0 0 0 7 15c1.791 2.564 1.124 4.231-2 5-.169-.897-.502-1.897-1-3-3.349 1.33-3.682.83-1-1.5-1.316-2.833-3.316-3.666-6-2.5l-3-2c-1.467 1.195-2.967 1.195-4.5 0l-4.5 1.5c3.833.604 3.833 1.437 0 2.5h-4c-1.452-.802-3.118-1.302-5-1.5 1.333-.667 1.333-1.333 0-2-5.554-.808-10.554-2.308-15-4.5-1.598.985-3.265 1.151-5 .5a148.192 148.192 0 0 0-12-4.5c-3.12 1.049-5.953.382-8.5-2-5.75 1.141-11.584 1.307-17.5.5-2.119-2.393-4.785-3.726-8-4 .758-1.364.258-2.531-1.5-3.5a4.451 4.451 0 0 1-1.5 2 37.317 37.317 0 0 1-8-3c1.488-2.386 1.155-3.052-1-2a41.58 41.58 0 0 1 1-8c1.567-1.181 2.4-2.847 2.5-5a6.544 6.544 0 0 0 3 3 13.243 13.243 0 0 1 5-3 125.271 125.271 0 0 0 16.5 3.5l-1 1 11 1c1.333.667 1.333 1.333 0 2 1.049.492 2.049.326 3-.5a10.756 10.756 0 0 0 3 2.5 156.13 156.13 0 0 0 10 1.5c1.884-.216 3.551-.883 5-2a1225.89 1225.89 0 0 1 20 7 62.134 62.134 0 0 1 8.5 0c3.687 2.435 7.52 4.268 11.5 5.5a20.499 20.499 0 0 0-3.5-2.5c-.667-1-.667-2 0-3 .928 1.835 2.094 2.168 3.5 1 .501 2.155 1.501 3.822 3 5z"/><path style="opacity:1" fill="#645e77" d="M58.5 140.5c-.51 10.456.323 20.79 2.5 31a181.116 181.116 0 0 0 8.5 16c-2.824-.489-4.157-2.156-4-5-2.544.396-4.711-.271-6.5-2-2.064 1.091-4.23 1.258-6.5.5a381.6 381.6 0 0 1-13.5-4.5c-3.715.574-7.215.574-10.5 0v15c.285 1.915-.049 3.581-1 5v-34a462.362 462.362 0 0 1 2.5-29c4.08.8 8.247 1.3 12.5 1.5 3.583 3.523 7.25 5.023 11 4.5 1.38 2.165 3.047 2.499 5 1z"/><path style="opacity:1" fill="#586d7e" d="M163.5 169.5h-7c.411-2.776-.422-3.443-2.5-2l-6-2c-.945.405-1.612 1.072-2 2-1.545.134-3.212-.2-5-1-4.523 2.608-9.023 2.608-13.5 0a103.172 103.172 0 0 1-10 1.5l4 1c-2.621.906-2.454 1.406.5 1.5 1.326-.255 2.326-.922 3-2 .483.948.649 1.948.5 3a4.934 4.934 0 0 1 3 .5c-1.256.417-1.923 1.25-2 2.5-.783 1.576-1.95 2.909-3.5 4a222.104 222.104 0 0 0-12.5-1 12.93 12.93 0 0 0-.5-5c-1.666 2.879-4.166 3.712-7.5 2.5 1.388-.889 1.222-1.389-.5-1.5-2.823 1.271-5.657 1.271-8.5 0a15.645 15.645 0 0 0-4 2.5 32.442 32.442 0 0 0 6 2.5c-1.112.765-1.779 1.765-2 3-10.639-9.573-14.972-21.573-13-36 2.155-1.052 2.488-.386 1 2a37.317 37.317 0 0 0 8 3 4.451 4.451 0 0 0 1.5-2c1.758.969 2.258 2.136 1.5 3.5 3.215.274 5.881 1.607 8 4 5.916.807 11.75.641 17.5-.5 2.547 2.382 5.38 3.049 8.5 2a148.192 148.192 0 0 1 12 4.5c1.735.651 3.402.485 5-.5 4.446 2.192 9.446 3.692 15 4.5 1.333.667 1.333 1.333 0 2 1.882.198 3.548.698 5 1.5z"/><path style="opacity:1" fill="#566d78" d="M163.5 169.5h4c1.213 2.176 2.88 2.509 5 1 1.09.891 1.09 1.891 0 3a26.091 26.091 0 0 1 3.5 5c2.831.458 5.164 1.792 7 4 2.606 3.551 4.439 7.551 5.5 12l-1 2c.346 1.196.846 1.196 1.5 0 .779 3.807 2.446 7.14 5 10 .667 1.667.667 3.333 0 5l-1-2a59.593 59.593 0 0 1-2.5 10c1.685 3.111 2.185 6.444 1.5 10-1.147 3.954-2.647 7.62-4.5 11 1.175-.219 2.175.114 3 1-2.731 3.521-3.731 7.355-3 11.5-.916.278-1.582.778-2 1.5-.816 1.644-2.15 2.81-4 3.5.951.718 1.117 1.551.5 2.5a68.464 68.464 0 0 0-7 9c-2.544-2.299-2.378-4.799.5-7.5-1.583-3.16-3.083-2.993-4.5.5-1.183-1.231-2.349-1.231-3.5 0 2.862.806 3.362 2.139 1.5 4a15.645 15.645 0 0 1-2.5-4 37.206 37.206 0 0 0 3-11c1.844-.704 2.344-2.037 1.5-4-2.107 4.015-2.773 3.682-2-1a7.293 7.293 0 0 0 2-3 4.457 4.457 0 0 0 1.5 2l3-8c.896 1.006 1.562 1.006 2 0-1.77-1.207-2.77-2.874-3-5a42.277 42.277 0 0 0 .5-15c-2.847-3.237-4.513-6.904-5-11 .317 1.801.984 2.134 2 1 .667-1 .667-2 0-3a85.044 85.044 0 0 0-9.5-12.5 9.454 9.454 0 0 1-2.5-1.5 4.457 4.457 0 0 1-1.5 2 12.403 12.403 0 0 1-2.5-4c-4.364 1.206-4.531.706-.5-1.5-3.698-2.17-7.698-3.67-12-4.5-1.09-.891-1.09-1.891 0-3-2.026-1.786-4.192-2.119-6.5-1-1.032-1.645-2.199-1.978-3.5-1-2.516-.83-4.85-1.83-7-3 .077-1.25.744-2.083 2-2.5a4.934 4.934 0 0 0-3-.5 4.934 4.934 0 0 0-.5-3c-.674 1.078-1.674 1.745-3 2-2.954-.094-3.121-.594-.5-1.5l-4-1c3.361-.337 6.694-.837 10-1.5 4.477 2.608 8.977 2.608 13.5 0 1.788.8 3.455 1.134 5 1 .388-.928 1.055-1.595 2-2l6 2c2.078-1.443 2.911-.776 2.5 2h7z"/><path style="opacity:1" fill="#6d667f" d="M69.5 187.5a308.244 308.244 0 0 0 20 22c-2.082.028-3.916-.639-5.5-2l-1 1a1073.472 1073.472 0 0 1-13.5-5.5 29.465 29.465 0 0 1-2.5-4.5 4.451 4.451 0 0 1-1.5 2 212.653 212.653 0 0 0-34-8 3.647 3.647 0 0 0-1.5 1c-.278-.916-.778-1.582-1.5-2v-15c3.285.574 6.785.574 10.5 0a381.6 381.6 0 0 0 13.5 4.5c2.27.758 4.436.591 6.5-.5 1.789 1.729 3.956 2.396 6.5 2-.157 2.844 1.176 4.511 4 5z"/><path style="opacity:1" fill="#586776" d="M126.5 174.5c2.15 1.17 4.484 2.17 7 3 1.301-.978 2.468-.645 3.5 1 2.308-1.119 4.474-.786 6.5 1-1.09 1.109-1.09 2.109 0 3 4.302.83 8.302 2.33 12 4.5-4.031 2.206-3.864 2.706.5 1.5a12.403 12.403 0 0 0 2.5 4 4.457 4.457 0 0 0 1.5-2 9.454 9.454 0 0 0 2.5 1.5 85.044 85.044 0 0 1 9.5 12.5c.667 1 .667 2 0 3-1.016 1.134-1.683.801-2-1 .487 4.096 2.153 7.763 5 11a42.277 42.277 0 0 1-.5 15c.23 2.126 1.23 3.793 3 5-.438 1.006-1.104 1.006-2 0l-3 8a4.457 4.457 0 0 1-1.5-2 7.293 7.293 0 0 1-2 3c-.773 4.682-.107 5.015 2 1 .844 1.963.344 3.296-1.5 4-.997-.03-1.664.47-2 1.5l-2.5 10.5a14.506 14.506 0 0 0-5 4c-.708-.881-1.542-1.547-2.5-2-5.534-15.067-12.7-29.401-21.5-43A289.461 289.461 0 0 0 99.5 189a66.426 66.426 0 0 0-6-7.5c.221-1.235.888-2.235 2-3a32.442 32.442 0 0 1-6-2.5 15.645 15.645 0 0 1 4-2.5c2.843 1.271 5.677 1.271 8.5 0 1.722.111 1.888.611.5 1.5 3.334 1.212 5.834.379 7.5-2.5a12.93 12.93 0 0 1 .5 5c4.365.231 8.531.564 12.5 1 1.55-1.091 2.717-2.424 3.5-4z"/><path style="opacity:1" fill="#736c84" d="M28.5 191.5c.722.418 1.222 1.084 1.5 2a3.647 3.647 0 0 1 1.5-1 212.653 212.653 0 0 1 34 8 4.451 4.451 0 0 0 1.5-2 29.465 29.465 0 0 0 2.5 4.5c4.819 1.999 9.319 3.832 13.5 5.5l1-1c1.584 1.361 3.418 2.028 5.5 2a484.49 484.49 0 0 1 21 16.5c4.291 4.445 7.958 9.278 11 14.5-.765.423-1.598.757-2.5 1-2.658-2.58-5.824-3.913-9.5-4v-3a12.93 12.93 0 0 1-5-.5 174.584 174.584 0 0 0-43-19c-3.577-4.129-7.91-5.295-13-3.5-1.196-.346-1.196-.846 0-1.5a87.14 87.14 0 0 0-19-3c1.196-.654 1.196-1.154 0-1.5a64.873 64.873 0 0 0-1 16c.306 2.885-.027 5.552-1 8v-33c.951-1.419 1.285-3.085 1-5z"/><path style="opacity:1" fill="#5d7d81" d="M204.5 185.5a114.72 114.72 0 0 0 24 12 107.918 107.918 0 0 1 .5 25c-1.781 9.424-3.948 18.424-6.5 27l-7 10.5a20.093 20.093 0 0 1-6 1.5c-.111-.617-.444-1.117-1-1.5 4.98-7.621 7.146-15.787 6.5-24.5-1.101 1.894-2.434 2.561-4 2a8.43 8.43 0 0 0-.5 4h-3c-.33 2.609-1.83 4.276-4.5 5a2.428 2.428 0 0 1-.5-2c-.14-1.624.527-2.79 2-3.5l-3-1c1.333-1.333 1.333-2.667 0-4a83.305 83.305 0 0 0 6-10c-1.16-3.394-1.16-6.727 0-10-1.894-1.079-2.227-2.413-1-4-1.66-2.633-2.16-5.466-1.5-8.5.556 2.095 1.056 2.262 1.5.5-1.628-5.376-2.295-10.709-2-16l-3-1c1.237-.232 2.237-.732 3-1.5z"/><path style="opacity:1" fill="#8bb6b9" d="M293.5 201.5c.107 1.879-.393 2.212-1.5 1a29.271 29.271 0 0 1-2.5 10.5l1 1a195.346 195.346 0 0 1-5 37.5c.702 17.193 3.702 34.193 9 51l-1 2a26.852 26.852 0 0 1 3.5 6c.671.752 1.504 1.086 2.5 1-4.677 4.009-10.011 7.009-16 9-1.917-.616-3.084-1.95-3.5-4a150.709 150.709 0 0 0-1.5-10.5c.984-1.82.817-3.32-.5-4.5-2.026-8.407-1.86-16.74.5-25a778.867 778.867 0 0 1-1-30 358.54 358.54 0 0 1 7.5-43c2.621-1.491 5.455-2.158 8.5-2z"/><path style="opacity:1" fill="#6b9091" d="M237.5 199.5a170.894 170.894 0 0 1 16 3 4.934 4.934 0 0 0-3 .5l1 23a133.874 133.874 0 0 0-6 20.5c.431.793.765 1.627 1 2.5-.516 2.669-1.183 5.169-2 7.5a472.167 472.167 0 0 0-7.5 15c.622 3.464-.545 6.464-3.5 9-.804-2.264-.137-4.264 2-6-1.62-2.239-1.287-4.073 1-5.5l-2-1c2.378-5.8 4.378-11.8 6-18a25.716 25.716 0 0 0-1.5-5.5c-.518 2.523-1.852 4.523-4 6a69.085 69.085 0 0 0-2.5 11h-3a444.589 444.589 0 0 0 5.5-29l1.5-1.5c-.597-1.889-.931-3.722-1-5.5a175.36 175.36 0 0 0 3-21c-.079-1.628-.412-3.295-1-5z"/><path style="opacity:1" fill="#84adb0" d="M305.5 201.5h-12c-3.045-.158-5.879.509-8.5 2a358.54 358.54 0 0 0-7.5 43c.133 9.772.466 19.772 1 30-2.36 8.26-2.526 16.593-.5 25 1.317 1.18 1.484 2.68.5 4.5a150.709 150.709 0 0 1 1.5 10.5c.416 2.05 1.583 3.384 3.5 4-3.949 2.415-8.282 4.082-13 5-.809-.969-1.809-1.802-3-2.5a3.647 3.647 0 0 0 1-1.5 2932.891 2932.891 0 0 1-3-36c.994-3.397.66-6.73-1-10 1.152-3.515 1.152-7.015 0-10.5a133.451 133.451 0 0 1 2-10.5c-.876-5.166-.876-10.166 0-15 1.967-2.512 2.3-5.179 1-8l4-10a3.647 3.647 0 0 0-1-1.5 195.758 195.758 0 0 0 2.5-15.5c1.38-.756 1.547-1.422.5-2 6.269-1.48 12.769-2.147 19.5-2 4.347.001 8.514.334 12.5 1z"/><path style="opacity:1" fill="#58737a" d="M189.5 169.5a85.199 85.199 0 0 0 15 16c-.763.768-1.763 1.268-3 1.5l3 1c-.295 5.291.372 10.624 2 16-.444 1.762-.944 1.595-1.5-.5-.66 3.034-.16 5.867 1.5 8.5-1.227 1.587-.894 2.921 1 4-1.16 3.273-1.16 6.606 0 10a83.305 83.305 0 0 1-6 10c1.333 1.333 1.333 2.667 0 4l3 1c-1.473.71-2.14 1.876-2 3.5a24.614 24.614 0 0 0-3 7c-.797-3.529-1.797-3.695-3-.5-.949.617-1.782.451-2.5-.5-.307 3.376-2.14 4.71-5.5 4-.217 3.56-1.217 3.56-3 0 .418-.722 1.084-1.222 2-1.5-.731-4.145.269-7.979 3-11.5-.825-.886-1.825-1.219-3-1 1.853-3.38 3.353-7.046 4.5-11 .685-3.556.185-6.889-1.5-10a59.593 59.593 0 0 0 2.5-10l1 2c.667-1.667.667-3.333 0-5-2.554-2.86-4.221-6.193-5-10-.654 1.196-1.154 1.196-1.5 0l1-2c-1.061-4.449-2.894-8.449-5.5-12-1.836-2.208-4.169-3.542-7-4a26.091 26.091 0 0 0-3.5-5c1.09-1.109 1.09-2.109 0-3-2.12 1.509-3.787 1.176-5-1 3.833-1.063 3.833-1.896 0-2.5l4.5-1.5c1.533 1.195 3.033 1.195 4.5 0l3 2c2.684-1.166 4.684-.333 6 2.5-2.682 2.33-2.349 2.83 1 1.5.498 1.103.831 2.103 1 3 3.124-.769 3.791-2.436 2-5z"/><path style="opacity:1" fill="#79728a" d="M121.5 240.5c4.983 6.968 8.65 14.635 11 23-3.142-.299-5.309-1.966-6.5-5h-4a46.27 46.27 0 0 0-9-7 126.821 126.821 0 0 0-16.5-7.5 30.325 30.325 0 0 0-8-5l1-1a361.507 361.507 0 0 1-24-9c-6.106-1.836-12.106-3.17-18-4a15.645 15.645 0 0 0-4-2.5c-2.996.008-5.996.008-9 0l-2-2c-1.36.288-2.694.621-4 1a64.873 64.873 0 0 1 1-16c1.196.346 1.196.846 0 1.5a87.14 87.14 0 0 1 19 3c-1.196.654-1.196 1.154 0 1.5 5.09-1.795 9.423-.629 13 3.5a174.584 174.584 0 0 1 43 19 12.93 12.93 0 0 0 5 .5v3c3.676.087 6.842 1.42 9.5 4a11.123 11.123 0 0 0 2.5-1z"/><path style="opacity:1" fill="#658689" d="M228.5 197.5a33.691 33.691 0 0 0 9 2c.588 1.705.921 3.372 1 5a175.36 175.36 0 0 1-3 21c.069 1.778.403 3.611 1 5.5l-1.5 1.5a444.589 444.589 0 0 1-5.5 29 55.409 55.409 0 0 0-4 9c-.968 2.107-1.302 4.441-1 7h-3c.232 3.957-.601 7.624-2.5 11 .077-1.238-.089-2.238-.5-3a3.647 3.647 0 0 0-1.5 1 176.05 176.05 0 0 1-2.5 8c-1-.333-1.667-1-2-2a190.834 190.834 0 0 1 6-18.5c-.551-1.398-.884-2.732-1-4a59.787 59.787 0 0 0 5-20.5c2.552-8.576 4.719-17.576 6.5-27 .801-8.412.634-16.745-.5-25z"/><path style="opacity:1" fill="#a2d2d7" d="M319.5 208.5c6.942 7.909 10.609 17.242 11 28a354.439 354.439 0 0 1 1 30 89.078 89.078 0 0 1-7 20c-.996-.086-1.829.248-2.5 1a4.934 4.934 0 0 1-.5-3 4.934 4.934 0 0 1-3-.5l1-1a11.333 11.333 0 0 1-1.5-3.5c-.667-1.333-1.333-1.333-2 0 .436-5.243-1.064-9.743-4.5-13.5 1.658-.725 2.158-1.892 1.5-3.5-.893 1.211-1.726 1.211-2.5 0-4.004-9.611-4.504-19.611-1.5-30a74.498 74.498 0 0 0 5-16c1.028-3.319 2.861-5.986 5.5-8z"/><path style="opacity:1" fill="#7f7891" d="M132.5 263.5c3.655 10.629 7.321 21.296 11 32-1.1-1.777-1.934-3.777-2.5-6-1.011-.837-2.178-1.17-3.5-1a4.934 4.934 0 0 0-.5-3c-2.5-1.167-4.333-3-5.5-5.5-3.913-1.643-7.913-3.976-12-7-1.466-3.535-4.133-5.368-8-5.5l-3-3a3.647 3.647 0 0 0-1.5 1 520.647 520.647 0 0 0-22-13l-1 1a30.107 30.107 0 0 0-8.5-3v-5a168.19 168.19 0 0 1-8-1.5c-.667-2-2-3.333-4-4-5.962-.878-11.629-2.545-17-5-4.87.788-9.536-.045-14-2.5a6.845 6.845 0 0 1-4 1v13c.317 4.202-.017 8.202-1 12v-29c.973-2.448 1.306-5.115 1-8a55.873 55.873 0 0 1 4-1l2 2c3.004.008 6.004.008 9 0 1.466.635 2.8 1.469 4 2.5 5.894.83 11.894 2.164 18 4a361.507 361.507 0 0 0 24 9l-1 1a30.325 30.325 0 0 1 8 5 126.821 126.821 0 0 1 16.5 7.5 46.27 46.27 0 0 1 9 7h4c1.191 3.034 3.358 4.701 6.5 5z"/><path style="opacity:1" fill="#92bfc2" d="M293.5 201.5h12a99.899 99.899 0 0 0 8 1.5c.556.383.889.883 1 1.5a21.435 21.435 0 0 0-7-1c-4.655 15.328-8.655 30.495-12 45.5 1.802 5.556 2.135 11.223 1 17a104.724 104.724 0 0 1 2.5 17.5c2.06 4.723 3.393 9.723 4 15 1.298 2.316 2.798 4.316 4.5 6-2.049 3.05-4.716 5.383-8 7-.996.086-1.829-.248-2.5-1a26.852 26.852 0 0 0-3.5-6l1-2c-5.298-16.807-8.298-33.807-9-51a195.346 195.346 0 0 0 5-37.5l-1-1a29.271 29.271 0 0 0 2.5-10.5c1.107 1.212 1.607.879 1.5-1z"/><path style="opacity:1" fill="#867e98" d="M143.5 295.5a155.307 155.307 0 0 1 7 15c-1.478.262-2.811-.071-4-1a66.615 66.615 0 0 0-2.5-6c-.718.951-1.551 1.117-2.5.5a149.932 149.932 0 0 1-15-14 286.996 286.996 0 0 1-26-17.5c-21.585-13.12-44.419-22.12-68.5-27l-1 2c-.67-.752-1.504-1.086-2.5-1v-13a6.845 6.845 0 0 0 4-1c4.464 2.455 9.13 3.288 14 2.5 5.371 2.455 11.038 4.122 17 5 2 .667 3.333 2 4 4a168.19 168.19 0 0 0 8 1.5v5a30.107 30.107 0 0 1 8.5 3l1-1a520.647 520.647 0 0 1 22 13 3.647 3.647 0 0 1 1.5-1l3 3c3.867.132 6.534 1.965 8 5.5 4.087 3.024 8.087 5.357 12 7 1.167 2.5 3 4.333 5.5 5.5.483.948.649 1.948.5 3 1.322-.17 2.489.163 3.5 1 .566 2.223 1.4 4.223 2.5 6z"/><path style="opacity:1" fill="#676071" d="M373.5 227.5v68c-1.624.14-2.79-.527-3.5-2-1.474 2.415-3.14 2.415-5 0-3.927 1.791-7.927 2.124-12 1a15.014 15.014 0 0 0-3.5 4c-1.342-1.505-3.008-2.172-5-2 6.958-15.52 9.958-31.853 9-49a231.644 231.644 0 0 1 0-14c1.333-1.333 2.667-1.333 4 0a26.585 26.585 0 0 0 2-3.5c4.289-.238 8.289-1.405 12-3.5.683.363 1.35.696 2 1z"/><path style="opacity:1" fill="#698187" d="M222.5 249.5a59.787 59.787 0 0 1-5 20.5c.116 1.268.449 2.602 1 4a190.834 190.834 0 0 0-6 18.5c.333 1 1 1.667 2 2a176.05 176.05 0 0 0 2.5-8 3.647 3.647 0 0 1 1.5-1c.411.762.577 1.762.5 3 1.899-3.376 2.732-7.043 2.5-11h3c-.302-2.559.032-4.893 1-7a36.39 36.39 0 0 1 1 5.5c-1.503 2.092-2.503 5.092-3 9 .206 1.366.54 2.699 1 4-2.405 6.223-4.071 13.056-5 20.5a59.404 59.404 0 0 1-4 9.5c.246 3.349.246 6.849 0 10.5h-7c-7.624-.977-13.957-4.311-19-10a32.037 32.037 0 0 1 3-7c-2.691-2.498-2.358-4.665 1-6.5a3.647 3.647 0 0 1-1-1.5 133.575 133.575 0 0 0 13-28l-2-2c1.211-1.22 1.211-2.387 0-3.5 2.069-.324 2.402-1.158 1-2.5.346-1.196.846-1.196 1.5 0 .615-2.803 1.782-5.136 3.5-7a20.093 20.093 0 0 0 6-1.5l7-10.5z"/><path style="opacity:1" fill="#8d869f" d="M100.5 272.5c-.453.958-1.12 1.792-2 2.5 17.189 10.312 32.522 21.979 46 35 3.466 3.164 6.966 6.997 10.5 11.5a3.647 3.647 0 0 1 1.5-1 19.507 19.507 0 0 1 3 7 26.585 26.585 0 0 0 3.5 2 18.593 18.593 0 0 0 3.5 6.5c-5.158.683-5.158 1.516 0 2.5 3.317 8.93 6.984 18.43 11 28.5-.495 2.009-.495 4.176 0 6.5h-10a965.185 965.185 0 0 0-12-27.5c-4.021-8.021-9.521-14.855-16.5-20.5-2.866-5.385-6.699-10.551-11.5-15.5-7.361-4.362-14.028-9.695-20-16a84.053 84.053 0 0 0-24-13c-2-2.381-3.832-4.214-5.5-5.5-1.525-.388-3.192-.388-5 0a192.458 192.458 0 0 0-4-3c-1.726 1.076-3.56 1.243-5.5.5 1.196-.654 1.196-1.154 0-1.5-2.09 1.303-3.756.803-5-1.5l3-1c-9.734-3.884-19.9-6.384-30.5-7.5-2.016 1.455-2.85 3.455-2.5 6v10c.268 1.599-.066 2.932-1 4v-23c.983-3.798 1.317-7.798 1-12 .996-.086 1.83.248 2.5 1l1-2c24.081 4.88 46.915 13.88 68.5 27z"/><path style="opacity:1" fill="#5f707a" d="M199.5 251.5c.295 3.577-.705 6.743-3 9.5-.146 3.863-1.812 7.363-5 10.5 1.218 1.303.885 2.303-1 3 1.284 3.648.284 6.482-3 8.5 2.297 1.16 1.964 2.16-1 3a3.943 3.943 0 0 1 1 2 113.066 113.066 0 0 1-8 15.5c2.248.824 2.414 1.824.5 3-.986-.671-2.153-.671-3.5 0-9.205-12.255-15.538-25.922-19-41 .958.453 1.792 1.119 2.5 2a14.506 14.506 0 0 1 5-4l2.5-10.5c.336-1.03 1.003-1.53 2-1.5a37.206 37.206 0 0 1-3 11 15.645 15.645 0 0 0 2.5 4c1.862-1.861 1.362-3.194-1.5-4 1.151-1.231 2.317-1.231 3.5 0 1.417-3.493 2.917-3.66 4.5-.5-2.878 2.701-3.044 5.201-.5 7.5a68.464 68.464 0 0 1 7-9c.617-.949.451-1.782-.5-2.5 1.85-.69 3.184-1.856 4-3.5 1.783 3.56 2.783 3.56 3 0 3.36.71 5.193-.624 5.5-4 .718.951 1.551 1.117 2.5.5 1.203-3.195 2.203-3.029 3 .5z"/><path style="opacity:1" fill="#719094" d="M244.5 256.5a1338.846 1338.846 0 0 0-7.5 60c-2.045 3.74-2.545 7.573-1.5 11.5a3.647 3.647 0 0 0-1 1.5 111.148 111.148 0 0 1-21 1c-1.915.284-3.581-.049-5-1h7c.246-3.651.246-7.151 0-10.5a59.404 59.404 0 0 0 4-9.5c.929-7.444 2.595-14.277 5-20.5a21.663 21.663 0 0 1-1-4c.497-3.908 1.497-6.908 3-9a36.39 36.39 0 0 0-1-5.5 55.409 55.409 0 0 1 4-9h3a69.085 69.085 0 0 1 2.5-11c2.148-1.477 3.482-3.477 4-6a25.716 25.716 0 0 1 1.5 5.5c-1.622 6.2-3.622 12.2-6 18l2 1c-2.287 1.427-2.62 3.261-1 5.5-2.137 1.736-2.804 3.736-2 6 2.955-2.536 4.122-5.536 3.5-9a472.167 472.167 0 0 1 7.5-15z"/><path style="opacity:1" fill="#9bcace" d="M314.5 204.5c2.254.624 3.921 1.957 5 4-2.639 2.014-4.472 4.681-5.5 8a74.498 74.498 0 0 1-5 16c-3.004 10.389-2.504 20.389 1.5 30 .774 1.211 1.607 1.211 2.5 0 .658 1.608.158 2.775-1.5 3.5 3.436 3.757 4.936 8.257 4.5 13.5.667-1.333 1.333-1.333 2 0a11.333 11.333 0 0 0 1.5 3.5l-1 1a4.934 4.934 0 0 0 3 .5 4.934 4.934 0 0 0 .5 3c.671-.752 1.504-1.086 2.5-1-4.309 7.308-9.975 13.308-17 18-1.702-1.684-3.202-3.684-4.5-6-.607-5.277-1.94-10.277-4-15a104.724 104.724 0 0 0-2.5-17.5c1.135-5.777.802-11.444-1-17 3.345-15.005 7.345-30.172 12-45.5a21.435 21.435 0 0 1 7 1z"/><path style="opacity:1" fill="#a3aea0" d="M330.5 236.5c.79 1.109 1.29 2.442 1.5 4 .824 8.843.657 17.51-.5 26a354.439 354.439 0 0 0-1-30z"/><path style="opacity:1" fill="#938ba5" d="M167.5 373.5h-19a24.935 24.935 0 0 0-.5-7c-.5-1.167-1.333-2-2.5-2.5a3.647 3.647 0 0 0 1-1.5 804.309 804.309 0 0 0-8.5-18l-3-3-1-9c-3.971-6.042-8.137-11.209-12.5-15.5a272.5 272.5 0 0 0-32-24c-1.333-.667-1.333-1.333 0-2-5.583-2.739-11.583-5.405-18-8l2-1a65.208 65.208 0 0 0-20-8c2.095-.556 2.262-1.056.5-1.5-1.79.909-3.623 1.076-5.5.5 1.8-.317 2.134-.984 1-2-1.877-.576-3.71-.409-5.5.5-1.762-.444-1.595-.944.5-1.5a48.326 48.326 0 0 1-12-2.5c-1.147.318-1.98.984-2.5 2-.278-.916-.778-1.582-1.5-2-.35-2.545.484-4.545 2.5-6 10.6 1.116 20.766 3.616 30.5 7.5l-3 1c1.244 2.303 2.91 2.803 5 1.5 1.196.346 1.196.846 0 1.5 1.94.743 3.774.576 5.5-.5 1.217.886 2.55 1.886 4 3 1.808-.388 3.475-.388 5 0 1.668 1.286 3.5 3.119 5.5 5.5a84.053 84.053 0 0 1 24 13c5.972 6.305 12.639 11.638 20 16 4.801 4.949 8.634 10.115 11.5 15.5 6.979 5.645 12.479 12.479 16.5 20.5a965.185 965.185 0 0 1 12 27.5z"/><path style="opacity:1" fill="#647981" d="M209.5 261.5c-1.718 1.864-2.885 4.197-3.5 7-.654-1.196-1.154-1.196-1.5 0 1.402 1.342 1.069 2.176-1 2.5 1.211 1.113 1.211 2.28 0 3.5l2 2a133.575 133.575 0 0 1-13 28 3.647 3.647 0 0 0 1 1.5c-3.358 1.835-3.691 4.002-1 6.5a32.037 32.037 0 0 0-3 7c-5.333-3.333-9.667-7.667-13-13 1.347-.671 2.514-.671 3.5 0 1.914-1.176 1.748-2.176-.5-3a113.066 113.066 0 0 0 8-15.5 3.943 3.943 0 0 0-1-2c2.964-.84 3.297-1.84 1-3 3.284-2.018 4.284-4.852 3-8.5 1.885-.697 2.218-1.697 1-3 3.188-3.137 4.854-6.637 5-10.5 2.295-2.757 3.295-5.923 3-9.5a24.614 24.614 0 0 1 3-7 2.428 2.428 0 0 0 .5 2c2.67-.724 4.17-2.391 4.5-5h3a8.43 8.43 0 0 1 .5-4c1.566.561 2.899-.106 4-2 .646 8.713-1.52 16.879-6.5 24.5.556.383.889.883 1 1.5z"/><path style="opacity:1" fill="#9890ab" d="M28.5 267.5c.722.418 1.222 1.084 1.5 2 .52-1.016 1.353-1.682 2.5-2a48.326 48.326 0 0 0 12 2.5c-2.095.556-2.262 1.056-.5 1.5 1.79-.909 3.623-1.076 5.5-.5 1.134 1.016.8 1.683-1 2 1.877.576 3.71.409 5.5-.5 1.762.444 1.595.944-.5 1.5a65.208 65.208 0 0 1 20 8l-2 1c6.417 2.595 12.417 5.261 18 8-1.333.667-1.333 1.333 0 2a272.5 272.5 0 0 1 32 24c4.363 4.291 8.529 9.458 12.5 15.5l1 9 3 3a804.309 804.309 0 0 1 8.5 18 3.647 3.647 0 0 1-1 1.5c1.167.5 2 1.333 2.5 2.5.497 2.31.663 4.643.5 7h-11a299.204 299.204 0 0 1-7-20.5 21.421 21.421 0 0 1-3.5-6.5 9.454 9.454 0 0 0-2.5-1.5c.116-1.268.449-2.602 1-4-2.624-.576-3.291-1.91-2-4-3.418-1.253-6.085-3.419-8-6.5a3.647 3.647 0 0 1 1-1.5 295.418 295.418 0 0 0-34-30.5c-.886-.825-1.219-1.825-1-3a8.43 8.43 0 0 1-4-.5c-1.751-2.479-3.918-3.312-6.5-2.5-1.635-2.054-3.968-4.054-7-6l-1 1a130.842 130.842 0 0 1-10-5l-1 1c-1.08-1.894-2.413-2.227-4-1-3.252-2.988-6.919-3.655-11-2a4.932 4.932 0 0 1-.5-3h-8v-10z"/><path style="opacity:1" fill="#7ca1a4" d="M255.5 202.5h18c1.047.578.88 1.244-.5 2a195.758 195.758 0 0 1-2.5 15.5c.457.414.791.914 1 1.5l-4 10c1.3 2.821.967 5.488-1 8-.876 4.834-.876 9.834 0 15a133.451 133.451 0 0 0-2 10.5c1.152 3.485 1.152 6.985 0 10.5 1.66 3.27 1.994 6.603 1 10a2932.891 2932.891 0 0 0 3 36 3.647 3.647 0 0 1-1 1.5c1.191.698 2.191 1.531 3 2.5-3.137 2.371-6.804 3.371-11 3h-6a20.093 20.093 0 0 0-1.5-6c-1.718 1.702-1.885 3.535-.5 5.5a9.454 9.454 0 0 0-2.5 1.5c1.069-4.268.569-8.435-1.5-12.5-.007-1.812.66-3.312 2-4.5a474.197 474.197 0 0 1 0-32l.5-2 1 3c-1.337-6.413-.837-12.913 1.5-19.5l-1-3a223.941 223.941 0 0 0 5-17.5 11.456 11.456 0 0 1-1-2.5 189.975 189.975 0 0 1 3-22c-.066-1.739-.733-3.572-2-5.5 1.644-3.349 1.31-6.349-1-9z"/><path style="opacity:1" fill="#77989a" d="M253.5 202.5h2c2.31 2.651 2.644 5.651 1 9 1.267 1.928 1.934 3.761 2 5.5a189.975 189.975 0 0 0-3 22c.235.873.569 1.707 1 2.5a223.941 223.941 0 0 1-5 17.5l1 3c-2.337 6.587-2.837 13.087-1.5 19.5l-1-3-.5 2a474.197 474.197 0 0 0 0 32c-1.34 1.188-2.007 2.688-2 4.5 2.069 4.065 2.569 8.232 1.5 12.5a9.454 9.454 0 0 1 2.5-1.5c-1.385-1.965-1.218-3.798.5-5.5a20.093 20.093 0 0 1 1.5 6h6c-3.764 1.332-7.764 2.165-12 2.5-11.508.826-22.841.659-34-.5 7.032.33 14.032-.003 21-1a3.647 3.647 0 0 1 1-1.5c-1.045-3.927-.545-7.76 1.5-11.5a1338.846 1338.846 0 0 1 7.5-60c.817-2.331 1.484-4.831 2-7.5a11.456 11.456 0 0 0-1-2.5 133.874 133.874 0 0 1 6-20.5l-1-23a4.934 4.934 0 0 1 3-.5z"/><path style="opacity:1" fill="#9d95b2" d="M28.5 277.5h8a4.932 4.932 0 0 0 .5 3c4.081-1.655 7.748-.988 11 2 1.587-1.227 2.92-.894 4 1l1-1a130.842 130.842 0 0 0 10 5l1-1c3.032 1.946 5.365 3.946 7 6 2.582-.812 4.749.021 6.5 2.5a8.43 8.43 0 0 0 4 .5c-.219 1.175.114 2.175 1 3a295.418 295.418 0 0 1 34 30.5 3.647 3.647 0 0 0-1 1.5c1.915 3.081 4.582 5.247 8 6.5-1.291 2.09-.624 3.424 2 4-.551 1.398-.884 2.732-1 4 .916.374 1.75.874 2.5 1.5a21.421 21.421 0 0 0 3.5 6.5 299.204 299.204 0 0 0 7 20.5h-13c-.558-1.29-1.558-2.123-3-2.5l2-1a496.829 496.829 0 0 1-5.5-15.5c-.914 1.154-1.747.987-2.5-.5a7.293 7.293 0 0 1 3-2c-11.068-20.934-27.068-36.934-48-48a20.477 20.477 0 0 0-2.5-3.5l-1 1a47.5 47.5 0 0 0-11-7 1779.065 1779.065 0 0 1-26.5-7 25.87 25.87 0 0 0-1 10c.32 4.863-.014 9.53-1 14v-30c.934-1.068 1.268-2.401 1-4z"/><path style="opacity:1" fill="#6e6779" d="M373.5 295.5v36a148.59 148.59 0 0 0-24 3 57.909 57.909 0 0 0-11.5-5 73.953 73.953 0 0 1-10.5 2v5h6v3a30.109 30.109 0 0 0-8.5 3 45.689 45.689 0 0 0-8.5-7.5v-4c-2.938-.712-5.604-.212-8 1.5 14.333-9.667 26.333-21.667 36-36 1.992-.172 3.658.495 5 2a15.014 15.014 0 0 1 3.5-4c4.073 1.124 8.073.791 12-1 1.86 2.415 3.526 2.415 5 0 .71 1.473 1.876 2.14 3.5 2z"/><path style="opacity:1" fill="#a9a2c0" d="M28.5 297.5c21.611 1.956 40.278 10.789 56 26.5-1.333 1.84-1.166 2.34.5 1.5 3.915 4.594 7.915 9.26 12 14a603.517 603.517 0 0 1 4 8c.667 1.333 1.333 1.333 2 0a145.5 145.5 0 0 1 10.5 26h-27c-.863-1.44-.863-2.774 0-4-.468-1.634-1.468-2.8-3-3.5 1.45-3.101.45-5.101-3-6 .457-.414.79-.914 1-1.5-1.002-2.01-2.002-4.01-3-6a3.647 3.647 0 0 0-1.5 1c-2.077-6.506-5.577-11.339-10.5-14.5l2-1c-3.415-.406-6.082-2.072-8-5a5420.034 5420.034 0 0 0-17-9 636.85 636.85 0 0 1-14-2.5 57.124 57.124 0 0 0-1 15v26a650.846 650.846 0 0 1-1-51c.986-4.47 1.32-9.137 1-14z"/><path style="opacity:1" fill="#a39bb8" d="M124.5 373.5h-11a145.5 145.5 0 0 0-10.5-26c-.667 1.333-1.333 1.333-2 0a603.517 603.517 0 0 0-4-8c-4.085-4.74-8.085-9.406-12-14-1.666.84-1.833.34-.5-1.5-15.722-15.711-34.389-24.544-56-26.5a25.87 25.87 0 0 1 1-10 1779.065 1779.065 0 0 0 26.5 7 47.5 47.5 0 0 1 11 7l1-1a20.477 20.477 0 0 1 2.5 3.5c20.932 11.066 36.932 27.066 48 48a7.293 7.293 0 0 0-3 2c.753 1.487 1.586 1.654 2.5.5a496.829 496.829 0 0 0 5.5 15.5l-2 1c1.442.377 2.442 1.21 3 2.5z"/><path style="opacity:1" fill="#b2abcb" d="M86.5 373.5h-16c.028-2.082-.639-3.916-2-5.5 1.425-1.714 1.092-3.047-1-4 .457-.414.79-.914 1-1.5-4.418-6.34-9.419-12.84-15-19.5l-11-5.5a11.254 11.254 0 0 1-3.5 1c-3.501-.734-7.001-1.4-10.5-2a57.124 57.124 0 0 1 1-15 636.85 636.85 0 0 0 14 2.5 5420.034 5420.034 0 0 1 17 9c1.918 2.928 4.585 4.594 8 5l-2 1c4.923 3.161 8.423 7.994 10.5 14.5a3.647 3.647 0 0 1 1.5-1c.998 1.99 1.998 3.99 3 6a3.646 3.646 0 0 1-1 1.5c3.45.899 4.45 2.899 3 6 1.532.7 2.532 1.866 3 3.5-.863 1.226-.863 2.56 0 4z"/><path style="opacity:1" fill="#716a7d" d="M373.5 331.5c.167 10.672 0 21.339-.5 32-1.273 3.097-3.107 5.764-5.5 8a110.146 110.146 0 0 0-8 2.5c-52.999.5-105.999.667-159 .5v-1h87c-.137-5.853-2.47-7.186-7-4a56.433 56.433 0 0 0-2.5-10c-1.826-1.574-3.993-2.407-6.5-2.5a35.61 35.61 0 0 0-3-6 237.904 237.904 0 0 1-29 1.5c24.481-1.38 47.481-8.047 69-20 2.396-1.712 5.062-2.212 8-1.5v4a45.689 45.689 0 0 1 8.5 7.5 30.109 30.109 0 0 1 8.5-3v-3h-6v-5a73.953 73.953 0 0 0 10.5-2 57.909 57.909 0 0 1 11.5 5 148.59 148.59 0 0 1 24-3z"/><path style="opacity:1" fill="#b7b1d1" d="M28.5 336.5c3.499.6 6.999 1.266 10.5 2a11.254 11.254 0 0 0 3.5-1l11 5.5c5.581 6.66 10.582 13.16 15 19.5a3.646 3.646 0 0 1-1 1.5c2.092.953 2.425 2.286 1 4 1.361 1.584 2.028 3.418 2 5.5h-33c-4.838-2.171-7.838-5.837-9-11v-26z"/><path style="opacity:1" fill="#867f96" d="M100.5 272.5a286.996 286.996 0 0 0 26 17.5 149.932 149.932 0 0 0 15 14c.949.617 1.782.451 2.5-.5a66.615 66.615 0 0 1 2.5 6c1.189.929 2.522 1.262 4 1 10.467 14.803 23.467 26.803 39 36-.131 2.829.869 4.162 3 4-.826.951-.992 1.951-.5 3 .667 1.333 1.333 1.333 2 0 2.713 6.635 4.879 13.302 6.5 20v1h-161c-.992.172-1.658-.162-2-1h140c-.495-2.324-.495-4.491 0-6.5a1286.155 1286.155 0 0 1-11-28.5c-5.158-.984-5.158-1.817 0-2.5a18.593 18.593 0 0 1-3.5-6.5 26.585 26.585 0 0 1-3.5-2 19.507 19.507 0 0 0-3-7 3.647 3.647 0 0 0-1.5 1c-3.534-4.503-7.034-8.336-10.5-11.5-13.478-13.021-28.811-24.688-46-35 .88-.708 1.547-1.542 2-2.5z"/><path style="opacity:1" fill="#797286" d="M230.5 373.5c-1.839-3.4-1.172-4.9 2-4.5a20.532 20.532 0 0 0-2.5-4.5 22.981 22.981 0 0 1-2 5 87.169 87.169 0 0 1-3-14 19.602 19.602 0 0 1-3.5-2c6.19.323 12.19-.01 18-1 9.746.088 19.412-.412 29-1.5a35.61 35.61 0 0 1 3 6c2.507.093 4.674.926 6.5 2.5a56.433 56.433 0 0 1 2.5 10c4.53-3.186 6.863-1.853 7 4h-57z"/><path style="opacity:1" fill="#80798f" d="m189.5 346.5 18 5c4.48 1.021 9.147 1.687 14 2a19.602 19.602 0 0 0 3.5 2 87.169 87.169 0 0 0 3 14 22.981 22.981 0 0 0 2-5 20.532 20.532 0 0 1 2.5 4.5c-3.172-.4-3.839 1.1-2 4.5h-30c-1.621-6.698-3.787-13.365-6.5-20-.667 1.333-1.333 1.333-2 0-.492-1.049-.326-2.049.5-3-2.131.162-3.131-1.171-3-4z"/><path style="opacity:1" fill="#595569" d="M207.5 351.5a813 813 0 0 1 32 1c-5.81.99-11.81 1.323-18 1-4.853-.313-9.52-.979-14-2z"/><path style="opacity:1" fill="#9e9fa8" d="M15.5 366.5c1.745 1.533 2.745 3.533 3 6-1.745-1.533-2.745-3.533-3-6z"/><path style="opacity:1" fill="#38384b" d="M367.5 371.5c-1.621 1.617-3.621 2.784-6 3.5a17285.24 17285.24 0 0 1-322-.5h161c53.001.167 106.001 0 159-.5a110.146 110.146 0 0 1 8-2.5z"/></svg>