<?xml version="1.0" encoding="UTF-8"?>
<!DOCTYPE svg PUBLIC "-//W3C//DTD SVG 1.1//EN" "http://www.w3.org/Graphics/SVG/1.1/DTD/svg11.dtd">
<svg xmlns="http://www.w3.org/2000/svg" version="1.1" width="406px" height="400px" style="shape-rendering:geometricPrecision; text-rendering:geometricPrecision; image-rendering:optimizeQuality; fill-rule:evenodd; clip-rule:evenodd" xmlns:xlink="http://www.w3.org/1999/xlink">
<g><path style="opacity:1" fill="#fdfdfd" d="M -0.5,-0.5 C 134.833,-0.5 270.167,-0.5 405.5,-0.5C 405.5,132.833 405.5,266.167 405.5,399.5C 270.167,399.5 134.833,399.5 -0.5,399.5C -0.5,266.167 -0.5,132.833 -0.5,-0.5 Z"/></g>
<g><path style="opacity:1" fill="#e7e7e9" d="M 37.5,15.5 C 145.999,14.3341 254.666,14.1674 363.5,15C 364.416,15.2784 365.082,15.7784 365.5,16.5C 256.188,15.5083 146.855,15.175 37.5,15.5 Z"/></g>
<g><path style="opacity:1" fill="#282a3d" d="M 37.5,15.5 C 146.855,15.175 256.188,15.5083 365.5,16.5C 372.249,18.5789 377.583,22.5789 381.5,28.5C 381.427,30.0269 382.094,31.0269 383.5,31.5C 383.372,33.6547 383.872,35.6547 385,37.5C 385.823,147.851 385.656,258.184 384.5,368.5C 380.818,377.679 374.151,383.512 364.5,386C 254.5,386.667 144.5,386.667 34.5,386C 27.4329,383.424 22.0996,378.924 18.5,372.5C 18.2451,370.033 17.2451,368.033 15.5,366.5C 15.5,365.5 15.5,364.5 15.5,363.5C 15.1749,253.812 15.5083,144.145 16.5,34.5C 16.5,34.1667 16.5,33.8333 16.5,33.5C 17.9063,33.0269 18.573,32.0269 18.5,30.5C 22.7559,22.9152 29.0892,17.9152 37.5,15.5 Z"/></g>
<g><path style="opacity:1" fill="#534c66" d="M 62.5,29.5 C 63.023,31.7079 64.3563,33.2079 66.5,34C 62.5302,36.3817 62.6969,38.215 67,39.5C 67.2492,38.376 67.7492,37.376 68.5,36.5C 69.3391,41.2373 70.3391,45.904 71.5,50.5C 75.7341,49.0465 77.7341,50.7132 77.5,55.5C 78.675,55.719 79.675,55.3857 80.5,54.5C 79.1468,53.4763 78.4802,52.143 78.5,50.5C 80.288,50.2148 81.9547,50.5481 83.5,51.5C 84.1667,54.5 84.8333,57.5 85.5,60.5C 84.6018,63.4815 84.4351,66.4815 85,69.5C 83.3905,70.1466 81.8905,70.98 80.5,72C 82.3333,73.5 84.1667,75 86,76.5C 87.9528,72.5782 89.1195,72.9115 89.5,77.5C 80.1016,87.5517 72.7682,98.885 67.5,111.5C 67.6602,109.801 67.4935,108.134 67,106.5C 65.2942,105.692 64.4609,104.359 64.5,102.5C 62.0799,102.292 59.7466,102.626 57.5,103.5C 55.6232,102.197 53.9565,100.697 52.5,99C 50.5116,98.8195 48.5116,98.9862 46.5,99.5C 46.6399,97.8762 45.9733,96.7096 44.5,96C 47.1667,95.6667 49.8333,95.3333 52.5,95C 51.0267,94.2904 50.3601,93.1238 50.5,91.5C 45.2355,90.5698 40.2355,88.9032 35.5,86.5C 33.3921,86.8599 31.3921,87.5266 29.5,88.5C 30.0253,89.1924 30.6919,89.6924 31.5,90C 30.5838,90.3742 29.7504,90.8742 29,91.5C 28.8311,105.339 28.3311,119.006 27.5,132.5C 27.3334,101.498 27.5,70.4982 28,39.5C 29.1213,35.2055 31.6213,32.2055 35.5,30.5C 44.4465,29.5556 53.4465,29.2222 62.5,29.5 Z"/></g>
<g><path style="opacity:1" fill="#4f4861" d="M 62.5,29.5 C 83.5106,29.167 104.511,29.5003 125.5,30.5C 124.451,33.747 123.784,37.0803 123.5,40.5C 123.649,42.3197 124.316,43.8197 125.5,45C 122.16,48.6903 122.826,50.857 127.5,51.5C 127.33,52.8221 127.663,53.9887 128.5,55C 127.551,55.6172 126.718,55.4506 126,54.5C 125.536,55.0944 125.369,55.7611 125.5,56.5C 112.054,60.8942 100.054,67.8942 89.5,77.5C 89.1195,72.9115 87.9528,72.5782 86,76.5C 84.1667,75 82.3333,73.5 80.5,72C 81.8905,70.98 83.3905,70.1466 85,69.5C 84.4351,66.4815 84.6018,63.4815 85.5,60.5C 84.8333,57.5 84.1667,54.5 83.5,51.5C 81.9547,50.5481 80.288,50.2148 78.5,50.5C 78.4802,52.143 79.1468,53.4763 80.5,54.5C 79.675,55.3857 78.675,55.719 77.5,55.5C 77.7341,50.7132 75.7341,49.0465 71.5,50.5C 70.3391,45.904 69.3391,41.2373 68.5,36.5C 67.7492,37.376 67.2492,38.376 67,39.5C 62.6969,38.215 62.5302,36.3817 66.5,34C 64.3563,33.2079 63.023,31.7079 62.5,29.5 Z"/></g>
<g><path style="opacity:1" fill="#49465a" d="M 262.5,28.5 C 243.338,29.3318 224.004,29.8318 204.5,30C 204.934,32.7127 205.268,35.7127 205.5,39C 204.544,46.4798 203.877,53.9798 203.5,61.5C 204.822,61.67 205.989,61.3366 207,60.5C 208.205,61.0712 209.372,61.7379 210.5,62.5C 211.815,64.976 213.482,67.1427 215.5,69C 214.552,69.4828 213.552,69.6495 212.5,69.5C 210.395,74.9773 208.729,80.6439 207.5,86.5C 209.167,86.5 210.833,86.5 212.5,86.5C 213.102,92.0236 212.102,97.1902 209.5,102C 214.013,112.815 213.346,123.149 207.5,133C 208.025,133.692 208.692,134.192 209.5,134.5C 212.855,133.484 216.188,132.484 219.5,131.5C 219.5,130.5 219.5,129.5 219.5,128.5C 220.5,128.5 221.5,128.5 222.5,128.5C 221.89,133.655 223.056,138.322 226,142.5C 229.104,138.391 230.604,139.058 230.5,144.5C 228.533,144.739 226.699,144.406 225,143.5C 223.421,145.458 223.588,147.458 225.5,149.5C 223.608,150.473 221.608,151.14 219.5,151.5C 215.662,149.966 211.662,149.132 207.5,149C 208.308,148.692 208.975,148.192 209.5,147.5C 208.271,146.719 206.938,146.219 205.5,146C 206.654,145.086 206.487,144.253 205,143.5C 204.57,146.192 204.737,148.859 205.5,151.5C 204.883,151.389 204.383,151.056 204,150.5C 201.216,132.46 198.216,114.46 195,96.5C 191.757,80.8187 182.924,69.652 168.5,63C 154.751,57.16 140.418,54.9934 125.5,56.5C 125.369,55.7611 125.536,55.0944 126,54.5C 126.718,55.4506 127.551,55.6172 128.5,55C 127.663,53.9887 127.33,52.8221 127.5,51.5C 122.826,50.857 122.16,48.6903 125.5,45C 124.316,43.8197 123.649,42.3197 123.5,40.5C 123.784,37.0803 124.451,33.747 125.5,30.5C 104.511,29.5003 83.5106,29.167 62.5,29.5C 53.4465,29.2222 44.4465,29.5556 35.5,30.5C 35.6107,29.8826 35.944,29.3826 36.5,29C 111.833,28.5 187.166,28.3333 262.5,28.5 Z"/></g>
<g><path style="opacity:1" fill="#4d485a" d="M 262.5,28.5 C 296.168,28.3333 329.835,28.5 363.5,29C 365.32,29.2004 366.653,30.0337 367.5,31.5C 365.199,30.9396 362.866,30.4396 360.5,30C 348.838,29.5001 337.171,29.3335 325.5,29.5C 306.164,29.3334 286.83,29.5 267.5,30C 269.158,30.7253 269.658,31.892 269,33.5C 267.028,32.6948 265.528,31.3615 264.5,29.5C 262.958,34.3771 262.291,39.3771 262.5,44.5C 263.552,44.3505 264.552,44.5172 265.5,45C 264.299,45.9025 263.465,47.0692 263,48.5C 261.023,58.0211 260.023,67.6878 260,77.5C 259.085,78.3279 258.419,79.3279 258,80.5C 257.558,78.3215 256.558,77.6548 255,78.5C 252.285,86.8605 250.118,95.3605 248.5,104C 249.783,108.153 250.616,112.319 251,116.5C 250.197,119.244 249.197,121.911 248,124.5C 247.794,121.377 247.127,118.377 246,115.5C 245.833,116.167 245.667,116.833 245.5,117.5C 245.607,123.994 245.607,130.494 245.5,137C 246.09,139.196 246.757,141.362 247.5,143.5C 245.74,146.212 245.073,149.212 245.5,152.5C 244.5,152.5 243.5,152.5 242.5,152.5C 240.944,150.386 241.111,151.719 243,156.5C 244.299,157.09 245.132,158.09 245.5,159.5C 244.936,161.819 244.436,164.153 244,166.5C 243.667,166.167 243.333,165.833 243,165.5C 238.142,166.836 233.642,168.836 229.5,171.5C 229.167,170.833 228.833,170.167 228.5,169.5C 226.889,170.32 226.222,171.654 226.5,173.5C 216.102,169.435 209.102,162.101 205.5,151.5C 204.737,148.859 204.57,146.192 205,143.5C 206.487,144.253 206.654,145.086 205.5,146C 206.938,146.219 208.271,146.719 209.5,147.5C 208.975,148.192 208.308,148.692 207.5,149C 211.662,149.132 215.662,149.966 219.5,151.5C 221.608,151.14 223.608,150.473 225.5,149.5C 223.588,147.458 223.421,145.458 225,143.5C 226.699,144.406 228.533,144.739 230.5,144.5C 230.604,139.058 229.104,138.391 226,142.5C 223.056,138.322 221.89,133.655 222.5,128.5C 221.5,128.5 220.5,128.5 219.5,128.5C 219.5,129.5 219.5,130.5 219.5,131.5C 216.188,132.484 212.855,133.484 209.5,134.5C 208.692,134.192 208.025,133.692 207.5,133C 213.346,123.149 214.013,112.815 209.5,102C 212.102,97.1902 213.102,92.0236 212.5,86.5C 210.833,86.5 209.167,86.5 207.5,86.5C 208.729,80.6439 210.395,74.9773 212.5,69.5C 213.552,69.6495 214.552,69.4828 215.5,69C 213.482,67.1427 211.815,64.976 210.5,62.5C 209.372,61.7379 208.205,61.0712 207,60.5C 205.989,61.3366 204.822,61.67 203.5,61.5C 203.877,53.9798 204.544,46.4798 205.5,39C 205.268,35.7127 204.934,32.7127 204.5,30C 224.004,29.8318 243.338,29.3318 262.5,28.5 Z"/></g>
<g><path style="opacity:1" fill="#544d5f" d="M 325.5,29.5 C 326.091,30.1515 326.757,30.8182 327.5,31.5C 325.054,33.6513 324.387,36.1513 325.5,39C 323.092,43.9458 320.092,48.4458 316.5,52.5C 315.268,54.6825 315.268,56.8492 316.5,59C 313.725,63.1793 311.558,67.6793 310,72.5C 298.558,81.9517 291.225,93.9517 288,108.5C 287.29,109.973 286.124,110.64 284.5,110.5C 283.864,117.56 282.864,124.56 281.5,131.5C 282.361,138.349 283.028,145.016 283.5,151.5C 284.167,149.167 284.833,146.833 285.5,144.5C 287.151,151.172 286.318,157.505 283,163.5C 282.465,161.729 281.631,161.396 280.5,162.5C 281.892,167.921 281.559,173.254 279.5,178.5C 280.689,179.429 282.022,179.762 283.5,179.5C 272.007,180.659 260.341,180.826 248.5,180C 240.787,178.782 233.454,176.615 226.5,173.5C 226.222,171.654 226.889,170.32 228.5,169.5C 228.833,170.167 229.167,170.833 229.5,171.5C 233.642,168.836 238.142,166.836 243,165.5C 243.333,165.833 243.667,166.167 244,166.5C 244.436,164.153 244.936,161.819 245.5,159.5C 245.132,158.09 244.299,157.09 243,156.5C 241.111,151.719 240.944,150.386 242.5,152.5C 243.5,152.5 244.5,152.5 245.5,152.5C 245.073,149.212 245.74,146.212 247.5,143.5C 246.757,141.362 246.09,139.196 245.5,137C 245.607,130.494 245.607,123.994 245.5,117.5C 245.667,116.833 245.833,116.167 246,115.5C 247.127,118.377 247.794,121.377 248,124.5C 249.197,121.911 250.197,119.244 251,116.5C 250.616,112.319 249.783,108.153 248.5,104C 250.118,95.3605 252.285,86.8605 255,78.5C 256.558,77.6548 257.558,78.3215 258,80.5C 258.419,79.3279 259.085,78.3279 260,77.5C 260.023,67.6878 261.023,58.0211 263,48.5C 263.465,47.0692 264.299,45.9025 265.5,45C 264.552,44.5172 263.552,44.3505 262.5,44.5C 262.291,39.3771 262.958,34.3771 264.5,29.5C 265.528,31.3615 267.028,32.6948 269,33.5C 269.658,31.892 269.158,30.7253 267.5,30C 286.83,29.5 306.164,29.3334 325.5,29.5 Z"/></g>
<g><path style="opacity:1" fill="#5a5263" d="M 325.5,29.5 C 337.171,29.3335 348.838,29.5001 360.5,30C 362.866,30.4396 365.199,30.9396 367.5,31.5C 370.231,33.0714 372.065,35.4048 373,38.5C 373.5,52.496 373.667,66.496 373.5,80.5C 371.955,81.2297 371.122,82.563 371,84.5C 370.581,80.1482 369.914,79.8149 369,83.5C 366.196,81.6556 363.03,80.9889 359.5,81.5C 359.5,82.5 359.5,83.5 359.5,84.5C 362.247,84.1866 364.914,84.52 367.5,85.5C 363.051,88.3423 358.884,88.009 355,84.5C 353.89,86.0368 352.39,86.7035 350.5,86.5C 351.093,89.5959 350.093,91.9292 347.5,93.5C 348.5,94.1667 349.5,94.8333 350.5,95.5C 347.914,96.48 345.247,96.8134 342.5,96.5C 342.5,97.5 342.5,98.5 342.5,99.5C 338.006,99.1627 335.172,101.163 334,105.5C 332.846,106.743 331.512,107.743 330,108.5C 329.798,110.256 329.298,111.922 328.5,113.5C 327.522,113.023 326.689,112.357 326,111.5C 325.747,114.2 325.747,116.867 326,119.5C 324.416,120.861 322.582,121.528 320.5,121.5C 320.649,122.552 320.483,123.552 320,124.5C 317.655,126.514 315.655,128.847 314,131.5C 313.942,138.62 313.442,145.786 312.5,153C 312.833,155.833 313.167,158.667 313.5,161.5C 314.086,161.291 314.586,160.957 315,160.5C 315.333,154.5 315.667,148.5 316,142.5C 318.379,137.797 319.713,132.797 320,127.5C 320.893,126.289 321.726,126.289 322.5,127.5C 320.997,133.113 319.497,138.78 318,144.5C 317.21,150.552 317.376,156.552 318.5,162.5C 316.003,165.922 316.003,169.255 318.5,172.5C 318.278,174.055 317.611,175.389 316.5,176.5C 317.668,177.906 317.335,179.072 315.5,180C 316.858,180.934 318.192,181.768 319.5,182.5C 307.654,179.93 295.654,178.93 283.5,179.5C 282.022,179.762 280.689,179.429 279.5,178.5C 281.559,173.254 281.892,167.921 280.5,162.5C 281.631,161.396 282.465,161.729 283,163.5C 286.318,157.505 287.151,151.172 285.5,144.5C 284.833,146.833 284.167,149.167 283.5,151.5C 283.028,145.016 282.361,138.349 281.5,131.5C 282.864,124.56 283.864,117.56 284.5,110.5C 286.124,110.64 287.29,109.973 288,108.5C 291.225,93.9517 298.558,81.9517 310,72.5C 311.558,67.6793 313.725,63.1793 316.5,59C 315.268,56.8492 315.268,54.6825 316.5,52.5C 320.092,48.4458 323.092,43.9458 325.5,39C 324.387,36.1513 325.054,33.6513 327.5,31.5C 326.757,30.8182 326.091,30.1515 325.5,29.5 Z"/></g>
<g><path style="opacity:1" fill="#7e7f8a" d="M 381.5,28.5 C 382.906,28.9731 383.573,29.9731 383.5,31.5C 382.094,31.0269 381.427,30.0269 381.5,28.5 Z"/></g>
<g><path style="opacity:1" fill="#999aa3" d="M 18.5,30.5 C 18.573,32.0269 17.9063,33.0269 16.5,33.5C 16.427,31.9731 17.0937,30.9731 18.5,30.5 Z"/></g>
<g><path style="opacity:1" fill="#93949e" d="M 16.5,34.5 C 15.5083,144.145 15.1749,253.812 15.5,363.5C 14.3341,255.001 14.1674,146.334 15,37.5C 15.2321,36.2625 15.7321,35.2625 16.5,34.5 Z"/></g>
<g><path style="opacity:1" fill="#6a6b78" d="M 383.5,31.5 C 384.793,32.842 385.626,34.5087 386,36.5C 386.667,145.833 386.667,255.167 386,364.5C 385.79,366.058 385.29,367.391 384.5,368.5C 385.656,258.184 385.823,147.851 385,37.5C 383.872,35.6547 383.372,33.6547 383.5,31.5 Z"/></g>
<g><path style="opacity:1" fill="#282a3c" d="M 125.5,56.5 C 140.418,54.9934 154.751,57.16 168.5,63C 182.924,69.652 191.757,80.8187 195,96.5C 198.216,114.46 201.216,132.46 204,150.5C 204.383,151.056 204.883,151.389 205.5,151.5C 209.102,162.101 216.102,169.435 226.5,173.5C 233.454,176.615 240.787,178.782 248.5,180C 260.341,180.826 272.007,180.659 283.5,179.5C 295.654,178.93 307.654,179.93 319.5,182.5C 328.668,186.833 336.168,193.166 342,201.5C 348.919,216.188 352.753,231.521 353.5,247.5C 354.458,264.647 351.458,280.98 344.5,296.5C 334.833,310.833 322.833,322.833 308.5,332.5C 286.981,344.453 263.981,351.12 239.5,352.5C 228.841,351.957 218.175,351.623 207.5,351.5C 201.501,349.834 195.501,348.167 189.5,346.5C 173.967,337.303 160.967,325.303 150.5,310.5C 148.403,305.311 146.07,300.311 143.5,295.5C 139.821,284.796 136.155,274.129 132.5,263.5C 130.15,255.135 126.483,247.468 121.5,240.5C 118.458,235.278 114.791,230.445 110.5,226C 103.625,220.286 96.6247,214.786 89.5,209.5C 82.4356,202.44 75.769,195.107 69.5,187.5C 66.4373,182.379 63.604,177.046 61,171.5C 58.8228,161.29 57.9895,150.956 58.5,140.5C 60.1301,130.291 63.1301,120.624 67.5,111.5C 72.7682,98.885 80.1016,87.5517 89.5,77.5C 100.054,67.8942 112.054,60.8942 125.5,56.5 Z"/></g>
<g><path style="opacity:1" fill="#9e937a" d="M 187.5,122.5 C 187.444,127.731 188.111,132.731 189.5,137.5C 191.927,164.44 206.26,181.607 232.5,189C 239.106,190.652 245.773,191.985 252.5,193C 269.833,192.667 287.167,192.333 304.5,192C 321.141,194.308 331.975,203.475 337,219.5C 343.473,242.202 342.973,264.702 335.5,287C 314.135,319.026 284.135,336.693 245.5,340C 232.462,340.853 219.462,340.52 206.5,339C 197.16,336.497 188.826,332.164 181.5,326C 174.64,319.076 168.14,311.909 162,304.5C 155.283,287.688 148.95,270.688 143,253.5C 136.786,238.92 127.953,226.087 116.5,215C 103.019,204.852 90.8526,193.352 80,180.5C 72.1049,167.909 69.4382,154.242 72,139.5C 75.3254,124.181 80.992,109.848 89,96.5C 98.7882,83.0414 111.622,73.8748 127.5,69C 143.001,66.7475 157.334,69.7475 170.5,78C 174.422,81.2508 177.588,85.0841 180,89.5C 183.632,100.351 186.132,111.351 187.5,122.5 Z"/></g>
<g><path style="opacity:1" fill="#5f5667" d="M 373.5,80.5 C 373.5,129.5 373.5,178.5 373.5,227.5C 372.85,227.196 372.183,226.863 371.5,226.5C 367.789,228.595 363.789,229.762 359.5,230C 358.929,231.205 358.262,232.372 357.5,233.5C 356.167,232.167 354.833,232.167 353.5,233.5C 353.359,237.985 353.359,242.652 353.5,247.5C 352.753,231.521 348.919,216.188 342,201.5C 336.168,193.166 328.668,186.833 319.5,182.5C 318.192,181.768 316.858,180.934 315.5,180C 317.335,179.072 317.668,177.906 316.5,176.5C 317.611,175.389 318.278,174.055 318.5,172.5C 316.003,169.255 316.003,165.922 318.5,162.5C 317.376,156.552 317.21,150.552 318,144.5C 319.497,138.78 320.997,133.113 322.5,127.5C 321.726,126.289 320.893,126.289 320,127.5C 319.713,132.797 318.379,137.797 316,142.5C 315.667,148.5 315.333,154.5 315,160.5C 314.586,160.957 314.086,161.291 313.5,161.5C 313.167,158.667 312.833,155.833 312.5,153C 313.442,145.786 313.942,138.62 314,131.5C 315.655,128.847 317.655,126.514 320,124.5C 320.483,123.552 320.649,122.552 320.5,121.5C 322.582,121.528 324.416,120.861 326,119.5C 325.747,116.867 325.747,114.2 326,111.5C 326.689,112.357 327.522,113.023 328.5,113.5C 329.298,111.922 329.798,110.256 330,108.5C 331.512,107.743 332.846,106.743 334,105.5C 335.172,101.163 338.006,99.1627 342.5,99.5C 342.5,98.5 342.5,97.5 342.5,96.5C 345.247,96.8134 347.914,96.48 350.5,95.5C 349.5,94.8333 348.5,94.1667 347.5,93.5C 350.093,91.9292 351.093,89.5959 350.5,86.5C 352.39,86.7035 353.89,86.0368 355,84.5C 358.884,88.009 363.051,88.3423 367.5,85.5C 364.914,84.52 362.247,84.1866 359.5,84.5C 359.5,83.5 359.5,82.5 359.5,81.5C 363.03,80.9889 366.196,81.6556 369,83.5C 369.914,79.8149 370.581,80.1482 371,84.5C 371.122,82.563 371.955,81.2297 373.5,80.5 Z"/></g>
<g><path style="opacity:1" fill="#538790" d="M 175.5,109.5 C 174.25,109.423 173.417,108.756 173,107.5C 171.691,109.891 170.691,109.891 170,107.5C 165.643,107.207 161.143,107.207 156.5,107.5C 150.499,104.991 144.165,103.825 137.5,104C 134.619,102.821 131.786,101.654 129,100.5C 127.893,100.585 126.893,100.919 126,101.5C 125.098,98.1958 123.764,97.8624 122,100.5C 117.833,99.4969 114.667,97.1636 112.5,93.5C 111.833,93.8333 111.167,94.1667 110.5,94.5C 108.925,93.5435 107.258,92.8769 105.5,92.5C 120.797,76.6744 138.797,73.0077 159.5,81.5C 169.966,87.75 175.299,97.0834 175.5,109.5 Z"/></g>
<g><path style="opacity:1" fill="#53808b" d="M 105.5,92.5 C 107.258,92.8769 108.925,93.5435 110.5,94.5C 111.167,94.1667 111.833,93.8333 112.5,93.5C 114.667,97.1636 117.833,99.4969 122,100.5C 123.764,97.8624 125.098,98.1958 126,101.5C 126.893,100.919 127.893,100.585 129,100.5C 131.786,101.654 134.619,102.821 137.5,104C 144.165,103.825 150.499,104.991 156.5,107.5C 161.143,107.207 165.643,107.207 170,107.5C 170.691,109.891 171.691,109.891 173,107.5C 173.417,108.756 174.25,109.423 175.5,109.5C 178.129,117.835 179.462,126.502 179.5,135.5C 178.373,134.878 177.373,134.045 176.5,133C 170.691,132.002 164.857,131.169 159,130.5C 156.359,128.471 153.692,126.471 151,124.5C 150.517,125.448 150.351,126.448 150.5,127.5C 144.827,125.465 138.994,123.798 133,122.5C 131.221,123.479 129.555,123.146 128,121.5C 127.055,121.905 126.388,122.572 126,123.5C 122.029,119.732 117.363,118.399 112,119.5C 109.908,118.742 108.075,117.575 106.5,116C 103.424,115.654 100.424,114.988 97.5,114C 96.8742,113.25 96.3742,112.416 96,111.5C 94.6439,112.38 93.1439,112.714 91.5,112.5C 94.1415,104.507 98.8082,97.8407 105.5,92.5 Z"/></g>
<g><path style="opacity:1" fill="#5a536d" d="M 67.5,111.5 C 63.1301,120.624 60.1301,130.291 58.5,140.5C 56.5471,141.999 54.8804,141.665 53.5,139.5C 49.7495,140.023 46.0828,138.523 42.5,135C 38.2467,134.8 34.08,134.3 30,133.5C 28.8587,143.182 28.0254,152.849 27.5,162.5C 27.5,152.5 27.5,142.5 27.5,132.5C 28.3311,119.006 28.8311,105.339 29,91.5C 29.7504,90.8742 30.5838,90.3742 31.5,90C 30.6919,89.6924 30.0253,89.1924 29.5,88.5C 31.3921,87.5266 33.3921,86.8599 35.5,86.5C 40.2355,88.9032 45.2355,90.5698 50.5,91.5C 50.3601,93.1238 51.0267,94.2904 52.5,95C 49.8333,95.3333 47.1667,95.6667 44.5,96C 45.9733,96.7096 46.6399,97.8762 46.5,99.5C 48.5116,98.9862 50.5116,98.8195 52.5,99C 53.9565,100.697 55.6232,102.197 57.5,103.5C 59.7466,102.626 62.0799,102.292 64.5,102.5C 64.4609,104.359 65.2942,105.692 67,106.5C 67.4935,108.134 67.6602,109.801 67.5,111.5 Z"/></g>
<g><path style="opacity:1" fill="#547986" d="M 179.5,135.5 C 180.598,141.684 181.598,148.018 182.5,154.5C 181.001,153.322 180.001,151.655 179.5,149.5C 178.094,150.668 176.928,150.335 176,148.5C 175.333,149.5 175.333,150.5 176,151.5C 177.255,152.211 178.421,153.044 179.5,154C 175.52,152.768 171.687,150.935 168,148.5C 165.237,148.306 162.403,148.306 159.5,148.5C 152.794,146.088 146.127,143.755 139.5,141.5C 138.051,142.617 136.384,143.284 134.5,143.5C 131.151,143.108 127.817,142.608 124.5,142C 123.354,141.355 122.354,140.522 121.5,139.5C 120.549,140.326 119.549,140.492 118.5,140C 119.833,139.333 119.833,138.667 118.5,138C 114.833,137.667 111.167,137.333 107.5,137C 107.833,136.667 108.167,136.333 108.5,136C 102.878,135.195 97.3781,134.028 92,132.5C 90.108,133.13 88.4413,134.13 87,135.5C 85.6667,134.833 84.6667,133.833 84,132.5C 83.9005,134.653 83.0672,136.319 81.5,137.5C 83.3148,128.354 86.6481,120.02 91.5,112.5C 93.1439,112.714 94.6439,112.38 96,111.5C 96.3742,112.416 96.8742,113.25 97.5,114C 100.424,114.988 103.424,115.654 106.5,116C 108.075,117.575 109.908,118.742 112,119.5C 117.363,118.399 122.029,119.732 126,123.5C 126.388,122.572 127.055,121.905 128,121.5C 129.555,123.146 131.221,123.479 133,122.5C 138.994,123.798 144.827,125.465 150.5,127.5C 150.351,126.448 150.517,125.448 151,124.5C 153.692,126.471 156.359,128.471 159,130.5C 164.857,131.169 170.691,132.002 176.5,133C 177.373,134.045 178.373,134.878 179.5,135.5 Z"/></g>
<g><path style="opacity:1" fill="#655f5b" d="M 187.5,122.5 C 188.889,127.269 189.556,132.269 189.5,137.5C 188.111,132.731 187.444,127.731 187.5,122.5 Z"/></g>
<g><path style="opacity:1" fill="#557381" d="M 182.5,154.5 C 184.54,159.582 186.873,164.582 189.5,169.5C 191.291,172.064 190.624,173.731 187.5,174.5C 187.331,173.603 186.998,172.603 186.5,171.5C 183.151,172.83 182.818,172.33 185.5,170C 184.184,167.167 182.184,166.334 179.5,167.5C 178.5,166.833 177.5,166.167 176.5,165.5C 175.033,166.695 173.533,166.695 172,165.5C 170.5,166 169,166.5 167.5,167C 171.333,167.604 171.333,168.437 167.5,169.5C 166.167,169.5 164.833,169.5 163.5,169.5C 162.048,168.698 160.382,168.198 158.5,168C 159.833,167.333 159.833,166.667 158.5,166C 152.946,165.192 147.946,163.692 143.5,161.5C 141.902,162.485 140.235,162.651 138.5,162C 134.525,160.312 130.525,158.812 126.5,157.5C 123.38,158.549 120.547,157.882 118,155.5C 112.25,156.641 106.416,156.807 100.5,156C 98.3812,153.607 95.7145,152.274 92.5,152C 93.2583,150.636 92.7583,149.469 91,148.5C 90.6924,149.308 90.1924,149.975 89.5,150.5C 86.7097,149.803 84.0431,148.803 81.5,147.5C 82.9884,145.114 82.6551,144.448 80.5,145.5C 80.5751,142.794 80.9084,140.127 81.5,137.5C 83.0672,136.319 83.9005,134.653 84,132.5C 84.6667,133.833 85.6667,134.833 87,135.5C 88.4413,134.13 90.108,133.13 92,132.5C 97.3781,134.028 102.878,135.195 108.5,136C 108.167,136.333 107.833,136.667 107.5,137C 111.167,137.333 114.833,137.667 118.5,138C 119.833,138.667 119.833,139.333 118.5,140C 119.549,140.492 120.549,140.326 121.5,139.5C 122.354,140.522 123.354,141.355 124.5,142C 127.817,142.608 131.151,143.108 134.5,143.5C 136.384,143.284 138.051,142.617 139.5,141.5C 146.127,143.755 152.794,146.088 159.5,148.5C 162.403,148.306 165.237,148.306 168,148.5C 171.687,150.935 175.52,152.768 179.5,154C 178.421,153.044 177.255,152.211 176,151.5C 175.333,150.5 175.333,149.5 176,148.5C 176.928,150.335 178.094,150.668 179.5,149.5C 180.001,151.655 181.001,153.322 182.5,154.5 Z"/></g>
<g><path style="opacity:1" fill="#645e77" d="M 58.5,140.5 C 57.9895,150.956 58.8228,161.29 61,171.5C 63.604,177.046 66.4373,182.379 69.5,187.5C 66.676,187.011 65.3426,185.344 65.5,182.5C 62.9556,182.896 60.7889,182.229 59,180.5C 56.9361,181.591 54.7695,181.758 52.5,181C 47.9273,179.569 43.4273,178.069 39,176.5C 35.2853,177.074 31.7853,177.074 28.5,176.5C 28.5,181.5 28.5,186.5 28.5,191.5C 28.7845,193.415 28.4511,195.081 27.5,196.5C 27.5,185.167 27.5,173.833 27.5,162.5C 28.0254,152.849 28.8587,143.182 30,133.5C 34.08,134.3 38.2467,134.8 42.5,135C 46.0828,138.523 49.7495,140.023 53.5,139.5C 54.8804,141.665 56.5471,141.999 58.5,140.5 Z"/></g>
<g><path style="opacity:1" fill="#586d7e" d="M 163.5,169.5 C 161.167,169.5 158.833,169.5 156.5,169.5C 156.911,166.724 156.078,166.057 154,167.5C 152,166.833 150,166.167 148,165.5C 147.055,165.905 146.388,166.572 146,167.5C 144.455,167.634 142.788,167.3 141,166.5C 136.477,169.108 131.977,169.108 127.5,166.5C 124.194,167.163 120.861,167.663 117.5,168C 118.833,168.333 120.167,168.667 121.5,169C 118.879,169.906 119.046,170.406 122,170.5C 123.326,170.245 124.326,169.578 125,168.5C 125.483,169.448 125.649,170.448 125.5,171.5C 126.552,171.351 127.552,171.517 128.5,172C 127.244,172.417 126.577,173.25 126.5,174.5C 125.717,176.076 124.55,177.409 123,178.5C 119.031,178.064 114.865,177.731 110.5,177.5C 110.66,175.801 110.494,174.134 110,172.5C 108.334,175.379 105.834,176.212 102.5,175C 103.888,174.111 103.722,173.611 102,173.5C 99.1768,174.771 96.3434,174.771 93.5,173.5C 92.0337,174.135 90.7003,174.969 89.5,176C 91.3759,177.017 93.3759,177.851 95.5,178.5C 94.3881,179.265 93.7214,180.265 93.5,181.5C 82.8612,171.927 78.5279,159.927 80.5,145.5C 82.6551,144.448 82.9884,145.114 81.5,147.5C 84.0431,148.803 86.7097,149.803 89.5,150.5C 90.1924,149.975 90.6924,149.308 91,148.5C 92.7583,149.469 93.2583,150.636 92.5,152C 95.7145,152.274 98.3812,153.607 100.5,156C 106.416,156.807 112.25,156.641 118,155.5C 120.547,157.882 123.38,158.549 126.5,157.5C 130.525,158.812 134.525,160.312 138.5,162C 140.235,162.651 141.902,162.485 143.5,161.5C 147.946,163.692 152.946,165.192 158.5,166C 159.833,166.667 159.833,167.333 158.5,168C 160.382,168.198 162.048,168.698 163.5,169.5 Z"/></g>
<g><path style="opacity:1" fill="#566d78" d="M 163.5,169.5 C 164.833,169.5 166.167,169.5 167.5,169.5C 168.713,171.676 170.38,172.009 172.5,170.5C 173.59,171.391 173.59,172.391 172.5,173.5C 173.861,175.028 175.028,176.695 176,178.5C 178.831,178.958 181.164,180.292 183,182.5C 185.606,186.051 187.439,190.051 188.5,194.5C 188.167,195.167 187.833,195.833 187.5,196.5C 187.846,197.696 188.346,197.696 189,196.5C 189.779,200.307 191.446,203.64 194,206.5C 194.667,208.167 194.667,209.833 194,211.5C 193.667,210.833 193.333,210.167 193,209.5C 192.451,212.923 191.618,216.256 190.5,219.5C 192.185,222.611 192.685,225.944 192,229.5C 190.853,233.454 189.353,237.12 187.5,240.5C 188.675,240.281 189.675,240.614 190.5,241.5C 187.769,245.021 186.769,248.855 187.5,253C 186.584,253.278 185.918,253.778 185.5,254.5C 184.684,256.144 183.35,257.31 181.5,258C 182.451,258.718 182.617,259.551 182,260.5C 179.436,263.28 177.103,266.28 175,269.5C 172.456,267.201 172.622,264.701 175.5,262C 173.917,258.84 172.417,259.007 171,262.5C 169.817,261.269 168.651,261.269 167.5,262.5C 170.362,263.306 170.862,264.639 169,266.5C 167.969,265.3 167.135,263.966 166.5,262.5C 168.075,258.951 169.075,255.285 169.5,251.5C 171.344,250.796 171.844,249.463 171,247.5C 168.893,251.515 168.227,251.182 169,246.5C 169.915,245.672 170.581,244.672 171,243.5C 171.308,244.308 171.808,244.975 172.5,245.5C 173.5,242.833 174.5,240.167 175.5,237.5C 176.396,238.506 177.062,238.506 177.5,237.5C 175.73,236.293 174.73,234.626 174.5,232.5C 175.561,227.533 175.728,222.533 175,217.5C 172.153,214.263 170.487,210.596 170,206.5C 170.317,208.301 170.984,208.634 172,207.5C 172.667,206.5 172.667,205.5 172,204.5C 169.237,200.065 166.071,195.898 162.5,192C 161.584,191.626 160.75,191.126 160,190.5C 159.692,191.308 159.192,191.975 158.5,192.5C 157.416,191.335 156.583,190.002 156,188.5C 151.636,189.706 151.469,189.206 155.5,187C 151.802,184.83 147.802,183.33 143.5,182.5C 142.41,181.609 142.41,180.609 143.5,179.5C 141.474,177.714 139.308,177.381 137,178.5C 135.968,176.855 134.801,176.522 133.5,177.5C 130.984,176.67 128.65,175.67 126.5,174.5C 126.577,173.25 127.244,172.417 128.5,172C 127.552,171.517 126.552,171.351 125.5,171.5C 125.649,170.448 125.483,169.448 125,168.5C 124.326,169.578 123.326,170.245 122,170.5C 119.046,170.406 118.879,169.906 121.5,169C 120.167,168.667 118.833,168.333 117.5,168C 120.861,167.663 124.194,167.163 127.5,166.5C 131.977,169.108 136.477,169.108 141,166.5C 142.788,167.3 144.455,167.634 146,167.5C 146.388,166.572 147.055,165.905 148,165.5C 150,166.167 152,166.833 154,167.5C 156.078,166.057 156.911,166.724 156.5,169.5C 158.833,169.5 161.167,169.5 163.5,169.5 Z"/></g>
<g><path style="opacity:1" fill="#6d667f" d="M 69.5,187.5 C 75.769,195.107 82.4356,202.44 89.5,209.5C 87.4176,209.528 85.5843,208.861 84,207.5C 83.6667,207.833 83.3333,208.167 83,208.5C 78.8189,206.832 74.3189,204.999 69.5,203C 68.5399,201.581 67.7065,200.081 67,198.5C 66.6924,199.308 66.1924,199.975 65.5,200.5C 54.3598,196.895 43.0265,194.228 31.5,192.5C 30.914,192.709 30.414,193.043 30,193.5C 29.7216,192.584 29.2216,191.918 28.5,191.5C 28.5,186.5 28.5,181.5 28.5,176.5C 31.7853,177.074 35.2853,177.074 39,176.5C 43.4273,178.069 47.9273,179.569 52.5,181C 54.7695,181.758 56.9361,181.591 59,180.5C 60.7889,182.229 62.9556,182.896 65.5,182.5C 65.3426,185.344 66.676,187.011 69.5,187.5 Z"/></g>
<g><path style="opacity:1" fill="#586776" d="M 126.5,174.5 C 128.65,175.67 130.984,176.67 133.5,177.5C 134.801,176.522 135.968,176.855 137,178.5C 139.308,177.381 141.474,177.714 143.5,179.5C 142.41,180.609 142.41,181.609 143.5,182.5C 147.802,183.33 151.802,184.83 155.5,187C 151.469,189.206 151.636,189.706 156,188.5C 156.583,190.002 157.416,191.335 158.5,192.5C 159.192,191.975 159.692,191.308 160,190.5C 160.75,191.126 161.584,191.626 162.5,192C 166.071,195.898 169.237,200.065 172,204.5C 172.667,205.5 172.667,206.5 172,207.5C 170.984,208.634 170.317,208.301 170,206.5C 170.487,210.596 172.153,214.263 175,217.5C 175.728,222.533 175.561,227.533 174.5,232.5C 174.73,234.626 175.73,236.293 177.5,237.5C 177.062,238.506 176.396,238.506 175.5,237.5C 174.5,240.167 173.5,242.833 172.5,245.5C 171.808,244.975 171.308,244.308 171,243.5C 170.581,244.672 169.915,245.672 169,246.5C 168.227,251.182 168.893,251.515 171,247.5C 171.844,249.463 171.344,250.796 169.5,251.5C 168.503,251.47 167.836,251.97 167.5,253C 166.667,256.498 165.834,259.998 165,263.5C 163.045,264.453 161.378,265.787 160,267.5C 159.292,266.619 158.458,265.953 157.5,265.5C 151.966,250.433 144.8,236.099 136,222.5C 124.785,210.285 112.618,199.118 99.5,189C 97.6664,186.337 95.6664,183.837 93.5,181.5C 93.7214,180.265 94.3881,179.265 95.5,178.5C 93.3759,177.851 91.3759,177.017 89.5,176C 90.7003,174.969 92.0337,174.135 93.5,173.5C 96.3434,174.771 99.1768,174.771 102,173.5C 103.722,173.611 103.888,174.111 102.5,175C 105.834,176.212 108.334,175.379 110,172.5C 110.494,174.134 110.66,175.801 110.5,177.5C 114.865,177.731 119.031,178.064 123,178.5C 124.55,177.409 125.717,176.076 126.5,174.5 Z"/></g>
<g><path style="opacity:1" fill="#736c84" d="M 28.5,191.5 C 29.2216,191.918 29.7216,192.584 30,193.5C 30.414,193.043 30.914,192.709 31.5,192.5C 43.0265,194.228 54.3598,196.895 65.5,200.5C 66.1924,199.975 66.6924,199.308 67,198.5C 67.7065,200.081 68.5399,201.581 69.5,203C 74.3189,204.999 78.8189,206.832 83,208.5C 83.3333,208.167 83.6667,207.833 84,207.5C 85.5843,208.861 87.4176,209.528 89.5,209.5C 96.6247,214.786 103.625,220.286 110.5,226C 114.791,230.445 118.458,235.278 121.5,240.5C 120.735,240.923 119.902,241.257 119,241.5C 116.342,238.92 113.176,237.587 109.5,237.5C 109.5,236.5 109.5,235.5 109.5,234.5C 107.801,234.66 106.134,234.494 104.5,234C 91.0326,225.732 76.6992,219.399 61.5,215C 57.9235,210.871 53.5902,209.705 48.5,211.5C 47.3044,211.154 47.3044,210.654 48.5,210C 42.2847,208.3 35.9514,207.3 29.5,207C 30.6956,206.346 30.6956,205.846 29.5,205.5C 28.5052,210.792 28.1718,216.125 28.5,221.5C 28.8064,224.385 28.4731,227.052 27.5,229.5C 27.5,218.5 27.5,207.5 27.5,196.5C 28.4511,195.081 28.7845,193.415 28.5,191.5 Z"/></g>
<g><path style="opacity:1" fill="#5d7d81" d="M 204.5,185.5 C 212.077,190.462 220.077,194.462 228.5,197.5C 229.634,205.755 229.801,214.088 229,222.5C 227.219,231.924 225.052,240.924 222.5,249.5C 220.173,252.99 217.84,256.49 215.5,260C 213.564,260.813 211.564,261.313 209.5,261.5C 209.389,260.883 209.056,260.383 208.5,260C 213.48,252.379 215.646,244.213 215,235.5C 213.899,237.394 212.566,238.061 211,237.5C 210.51,238.793 210.343,240.127 210.5,241.5C 209.5,241.5 208.5,241.5 207.5,241.5C 207.17,244.109 205.67,245.776 203,246.5C 202.536,245.906 202.369,245.239 202.5,244.5C 202.36,242.876 203.027,241.71 204.5,241C 203.5,240.667 202.5,240.333 201.5,240C 202.833,238.667 202.833,237.333 201.5,236C 203.737,232.801 205.737,229.468 207.5,226C 206.34,222.606 206.34,219.273 207.5,216C 205.606,214.921 205.273,213.587 206.5,212C 204.84,209.367 204.34,206.534 205,203.5C 205.556,205.595 206.056,205.762 206.5,204C 204.872,198.624 204.205,193.291 204.5,188C 203.5,187.667 202.5,187.333 201.5,187C 202.737,186.768 203.737,186.268 204.5,185.5 Z"/></g>
<g><path style="opacity:1" fill="#8bb6b9" d="M 293.5,201.5 C 293.607,203.379 293.107,203.712 292,202.5C 291.81,206.188 290.976,209.688 289.5,213C 289.833,213.333 290.167,213.667 290.5,214C 290.049,226.645 288.382,239.145 285.5,251.5C 286.202,268.693 289.202,285.693 294.5,302.5C 294.167,303.167 293.833,303.833 293.5,304.5C 294.919,306.336 296.086,308.336 297,310.5C 297.671,311.252 298.504,311.586 299.5,311.5C 294.823,315.509 289.489,318.509 283.5,320.5C 281.583,319.884 280.416,318.55 280,316.5C 279.623,312.981 279.123,309.481 278.5,306C 279.484,304.18 279.317,302.68 278,301.5C 275.974,293.093 276.14,284.76 278.5,276.5C 277.966,266.272 277.633,256.272 277.5,246.5C 279.106,232.133 281.606,217.8 285,203.5C 287.621,202.009 290.455,201.342 293.5,201.5 Z"/></g>
<g><path style="opacity:1" fill="#6b9091" d="M 237.5,199.5 C 243.004,200.269 248.338,201.269 253.5,202.5C 252.448,202.351 251.448,202.517 250.5,203C 250.833,210.667 251.167,218.333 251.5,226C 248.964,232.639 246.964,239.473 245.5,246.5C 245.931,247.293 246.265,248.127 246.5,249C 245.984,251.669 245.317,254.169 244.5,256.5C 241.937,261.404 239.437,266.404 237,271.5C 237.622,274.964 236.455,277.964 233.5,280.5C 232.696,278.236 233.363,276.236 235.5,274.5C 233.88,272.261 234.213,270.427 236.5,269C 235.833,268.667 235.167,268.333 234.5,268C 236.878,262.2 238.878,256.2 240.5,250C 240.204,248.112 239.704,246.278 239,244.5C 238.482,247.023 237.148,249.023 235,250.5C 233.862,254.121 233.028,257.788 232.5,261.5C 231.5,261.5 230.5,261.5 229.5,261.5C 231.65,251.918 233.483,242.251 235,232.5C 235.5,232 236,231.5 236.5,231C 235.903,229.111 235.569,227.278 235.5,225.5C 236.924,218.559 237.924,211.559 238.5,204.5C 238.421,202.872 238.088,201.205 237.5,199.5 Z"/></g>
<g><path style="opacity:1" fill="#84adb0" d="M 305.5,201.5 C 301.5,201.5 297.5,201.5 293.5,201.5C 290.455,201.342 287.621,202.009 285,203.5C 281.606,217.8 279.106,232.133 277.5,246.5C 277.633,256.272 277.966,266.272 278.5,276.5C 276.14,284.76 275.974,293.093 278,301.5C 279.317,302.68 279.484,304.18 278.5,306C 279.123,309.481 279.623,312.981 280,316.5C 280.416,318.55 281.583,319.884 283.5,320.5C 279.551,322.915 275.218,324.582 270.5,325.5C 269.691,324.531 268.691,323.698 267.5,323C 267.957,322.586 268.291,322.086 268.5,321.5C 267.426,309.505 266.426,297.505 265.5,285.5C 266.494,282.103 266.16,278.77 264.5,275.5C 265.652,271.985 265.652,268.485 264.5,265C 265.029,261.459 265.696,257.959 266.5,254.5C 265.624,249.334 265.624,244.334 266.5,239.5C 268.467,236.988 268.8,234.321 267.5,231.5C 268.833,228.167 270.167,224.833 271.5,221.5C 271.291,220.914 270.957,220.414 270.5,220C 271.533,214.912 272.367,209.745 273,204.5C 274.38,203.744 274.547,203.078 273.5,202.5C 279.769,201.02 286.269,200.353 293,200.5C 297.347,200.501 301.514,200.834 305.5,201.5 Z"/></g>
<g><path style="opacity:1" fill="#58737a" d="M 189.5,169.5 C 193.795,175.463 198.795,180.796 204.5,185.5C 203.737,186.268 202.737,186.768 201.5,187C 202.5,187.333 203.5,187.667 204.5,188C 204.205,193.291 204.872,198.624 206.5,204C 206.056,205.762 205.556,205.595 205,203.5C 204.34,206.534 204.84,209.367 206.5,212C 205.273,213.587 205.606,214.921 207.5,216C 206.34,219.273 206.34,222.606 207.5,226C 205.737,229.468 203.737,232.801 201.5,236C 202.833,237.333 202.833,238.667 201.5,240C 202.5,240.333 203.5,240.667 204.5,241C 203.027,241.71 202.36,242.876 202.5,244.5C 201.131,246.691 200.131,249.025 199.5,251.5C 198.703,247.971 197.703,247.805 196.5,251C 195.551,251.617 194.718,251.451 194,250.5C 193.693,253.876 191.86,255.21 188.5,254.5C 188.283,258.06 187.283,258.06 185.5,254.5C 185.918,253.778 186.584,253.278 187.5,253C 186.769,248.855 187.769,245.021 190.5,241.5C 189.675,240.614 188.675,240.281 187.5,240.5C 189.353,237.12 190.853,233.454 192,229.5C 192.685,225.944 192.185,222.611 190.5,219.5C 191.618,216.256 192.451,212.923 193,209.5C 193.333,210.167 193.667,210.833 194,211.5C 194.667,209.833 194.667,208.167 194,206.5C 191.446,203.64 189.779,200.307 189,196.5C 188.346,197.696 187.846,197.696 187.5,196.5C 187.833,195.833 188.167,195.167 188.5,194.5C 187.439,190.051 185.606,186.051 183,182.5C 181.164,180.292 178.831,178.958 176,178.5C 175.028,176.695 173.861,175.028 172.5,173.5C 173.59,172.391 173.59,171.391 172.5,170.5C 170.38,172.009 168.713,171.676 167.5,169.5C 171.333,168.437 171.333,167.604 167.5,167C 169,166.5 170.5,166 172,165.5C 173.533,166.695 175.033,166.695 176.5,165.5C 177.5,166.167 178.5,166.833 179.5,167.5C 182.184,166.334 184.184,167.167 185.5,170C 182.818,172.33 183.151,172.83 186.5,171.5C 186.998,172.603 187.331,173.603 187.5,174.5C 190.624,173.731 191.291,172.064 189.5,169.5 Z"/></g>
<g><path style="opacity:1" fill="#79728a" d="M 121.5,240.5 C 126.483,247.468 130.15,255.135 132.5,263.5C 129.358,263.201 127.191,261.534 126,258.5C 124.667,258.5 123.333,258.5 122,258.5C 119.306,255.809 116.306,253.476 113,251.5C 107.713,248.622 102.213,246.122 96.5,244C 94.0787,241.906 91.412,240.24 88.5,239C 88.8333,238.667 89.1667,238.333 89.5,238C 81.4851,235.318 73.4851,232.318 65.5,229C 59.3936,227.164 53.3936,225.83 47.5,225C 46.2997,223.969 44.9663,223.135 43.5,222.5C 40.5041,222.508 37.5041,222.508 34.5,222.5C 33.8333,221.833 33.1667,221.167 32.5,220.5C 31.1395,220.788 29.8062,221.121 28.5,221.5C 28.1718,216.125 28.5052,210.792 29.5,205.5C 30.6956,205.846 30.6956,206.346 29.5,207C 35.9514,207.3 42.2847,208.3 48.5,210C 47.3044,210.654 47.3044,211.154 48.5,211.5C 53.5902,209.705 57.9235,210.871 61.5,215C 76.6992,219.399 91.0326,225.732 104.5,234C 106.134,234.494 107.801,234.66 109.5,234.5C 109.5,235.5 109.5,236.5 109.5,237.5C 113.176,237.587 116.342,238.92 119,241.5C 119.902,241.257 120.735,240.923 121.5,240.5 Z"/></g>
<g><path style="opacity:1" fill="#658689" d="M 228.5,197.5 C 231.402,198.578 234.402,199.244 237.5,199.5C 238.088,201.205 238.421,202.872 238.5,204.5C 237.924,211.559 236.924,218.559 235.5,225.5C 235.569,227.278 235.903,229.111 236.5,231C 236,231.5 235.5,232 235,232.5C 233.483,242.251 231.65,251.918 229.5,261.5C 227.928,264.318 226.594,267.318 225.5,270.5C 224.532,272.607 224.198,274.941 224.5,277.5C 223.5,277.5 222.5,277.5 221.5,277.5C 221.732,281.457 220.899,285.124 219,288.5C 219.077,287.262 218.911,286.262 218.5,285.5C 217.914,285.709 217.414,286.043 217,286.5C 216.229,289.19 215.396,291.856 214.5,294.5C 213.5,294.167 212.833,293.5 212.5,292.5C 214.188,286.224 216.188,280.057 218.5,274C 217.949,272.602 217.616,271.268 217.5,270C 220.383,263.461 222.049,256.627 222.5,249.5C 225.052,240.924 227.219,231.924 229,222.5C 229.801,214.088 229.634,205.755 228.5,197.5 Z"/></g>
<g><path style="opacity:1" fill="#a2d2d7" d="M 319.5,208.5 C 326.442,216.409 330.109,225.742 330.5,236.5C 331.257,246.482 331.59,256.482 331.5,266.5C 329.968,273.43 327.634,280.097 324.5,286.5C 323.504,286.414 322.671,286.748 322,287.5C 321.517,286.552 321.351,285.552 321.5,284.5C 320.448,284.649 319.448,284.483 318.5,284C 318.833,283.667 319.167,283.333 319.5,283C 318.809,281.933 318.309,280.766 318,279.5C 317.333,278.167 316.667,278.167 316,279.5C 316.436,274.257 314.936,269.757 311.5,266C 313.158,265.275 313.658,264.108 313,262.5C 312.107,263.711 311.274,263.711 310.5,262.5C 306.496,252.889 305.996,242.889 309,232.5C 311.253,227.404 312.92,222.071 314,216.5C 315.028,213.181 316.861,210.514 319.5,208.5 Z"/></g>
<g><path style="opacity:1" fill="#7f7891" d="M 132.5,263.5 C 136.155,274.129 139.821,284.796 143.5,295.5C 142.4,293.723 141.566,291.723 141,289.5C 139.989,288.663 138.822,288.33 137.5,288.5C 137.649,287.448 137.483,286.448 137,285.5C 134.5,284.333 132.667,282.5 131.5,280C 127.587,278.357 123.587,276.024 119.5,273C 118.034,269.465 115.367,267.632 111.5,267.5C 110.5,266.5 109.5,265.5 108.5,264.5C 107.914,264.709 107.414,265.043 107,265.5C 99.7603,260.979 92.427,256.646 85,252.5C 84.6667,252.833 84.3333,253.167 84,253.5C 81.3103,252.071 78.4769,251.071 75.5,250.5C 75.5,248.833 75.5,247.167 75.5,245.5C 72.8344,245.067 70.1677,244.567 67.5,244C 66.8333,242 65.5,240.667 63.5,240C 57.538,239.122 51.8714,237.455 46.5,235C 41.6302,235.788 36.9635,234.955 32.5,232.5C 31.2638,233.246 29.9305,233.579 28.5,233.5C 28.5,237.833 28.5,242.167 28.5,246.5C 28.8168,250.702 28.4834,254.702 27.5,258.5C 27.5,248.833 27.5,239.167 27.5,229.5C 28.4731,227.052 28.8064,224.385 28.5,221.5C 29.8062,221.121 31.1395,220.788 32.5,220.5C 33.1667,221.167 33.8333,221.833 34.5,222.5C 37.5041,222.508 40.5041,222.508 43.5,222.5C 44.9663,223.135 46.2997,223.969 47.5,225C 53.3936,225.83 59.3936,227.164 65.5,229C 73.4851,232.318 81.4851,235.318 89.5,238C 89.1667,238.333 88.8333,238.667 88.5,239C 91.412,240.24 94.0787,241.906 96.5,244C 102.213,246.122 107.713,248.622 113,251.5C 116.306,253.476 119.306,255.809 122,258.5C 123.333,258.5 124.667,258.5 126,258.5C 127.191,261.534 129.358,263.201 132.5,263.5 Z"/></g>
<g><path style="opacity:1" fill="#92bfc2" d="M 293.5,201.5 C 297.5,201.5 301.5,201.5 305.5,201.5C 308.127,202.105 310.793,202.605 313.5,203C 314.056,203.383 314.389,203.883 314.5,204.5C 312.236,203.781 309.903,203.448 307.5,203.5C 302.845,218.828 298.845,233.995 295.5,249C 297.302,254.556 297.635,260.223 296.5,266C 297.826,271.761 298.66,277.595 299,283.5C 301.06,288.223 302.393,293.223 303,298.5C 304.298,300.816 305.798,302.816 307.5,304.5C 305.451,307.55 302.784,309.883 299.5,311.5C 298.504,311.586 297.671,311.252 297,310.5C 296.086,308.336 294.919,306.336 293.5,304.5C 293.833,303.833 294.167,303.167 294.5,302.5C 289.202,285.693 286.202,268.693 285.5,251.5C 288.382,239.145 290.049,226.645 290.5,214C 290.167,213.667 289.833,213.333 289.5,213C 290.976,209.688 291.81,206.188 292,202.5C 293.107,203.712 293.607,203.379 293.5,201.5 Z"/></g>
<g><path style="opacity:1" fill="#867e98" d="M 143.5,295.5 C 146.07,300.311 148.403,305.311 150.5,310.5C 149.022,310.762 147.689,310.429 146.5,309.5C 145.764,307.459 144.931,305.459 144,303.5C 143.282,304.451 142.449,304.617 141.5,304C 136.146,299.644 131.146,294.977 126.5,290C 117.479,284.616 108.812,278.783 100.5,272.5C 78.9145,259.38 56.0811,250.38 32,245.5C 31.6667,246.167 31.3333,246.833 31,247.5C 30.3292,246.748 29.4959,246.414 28.5,246.5C 28.5,242.167 28.5,237.833 28.5,233.5C 29.9305,233.579 31.2638,233.246 32.5,232.5C 36.9635,234.955 41.6302,235.788 46.5,235C 51.8714,237.455 57.538,239.122 63.5,240C 65.5,240.667 66.8333,242 67.5,244C 70.1677,244.567 72.8344,245.067 75.5,245.5C 75.5,247.167 75.5,248.833 75.5,250.5C 78.4769,251.071 81.3103,252.071 84,253.5C 84.3333,253.167 84.6667,252.833 85,252.5C 92.427,256.646 99.7603,260.979 107,265.5C 107.414,265.043 107.914,264.709 108.5,264.5C 109.5,265.5 110.5,266.5 111.5,267.5C 115.367,267.632 118.034,269.465 119.5,273C 123.587,276.024 127.587,278.357 131.5,280C 132.667,282.5 134.5,284.333 137,285.5C 137.483,286.448 137.649,287.448 137.5,288.5C 138.822,288.33 139.989,288.663 141,289.5C 141.566,291.723 142.4,293.723 143.5,295.5 Z"/></g>
<g><path style="opacity:1" fill="#676071" d="M 373.5,227.5 C 373.5,250.167 373.5,272.833 373.5,295.5C 371.876,295.64 370.71,294.973 370,293.5C 368.526,295.915 366.86,295.915 365,293.5C 361.073,295.291 357.073,295.624 353,294.5C 351.606,295.613 350.439,296.947 349.5,298.5C 348.158,296.995 346.492,296.328 344.5,296.5C 351.458,280.98 354.458,264.647 353.5,247.5C 353.359,242.652 353.359,237.985 353.5,233.5C 354.833,232.167 356.167,232.167 357.5,233.5C 358.262,232.372 358.929,231.205 359.5,230C 363.789,229.762 367.789,228.595 371.5,226.5C 372.183,226.863 372.85,227.196 373.5,227.5 Z"/></g>
<g><path style="opacity:1" fill="#698187" d="M 222.5,249.5 C 222.049,256.627 220.383,263.461 217.5,270C 217.616,271.268 217.949,272.602 218.5,274C 216.188,280.057 214.188,286.224 212.5,292.5C 212.833,293.5 213.5,294.167 214.5,294.5C 215.396,291.856 216.229,289.19 217,286.5C 217.414,286.043 217.914,285.709 218.5,285.5C 218.911,286.262 219.077,287.262 219,288.5C 220.899,285.124 221.732,281.457 221.5,277.5C 222.5,277.5 223.5,277.5 224.5,277.5C 224.198,274.941 224.532,272.607 225.5,270.5C 225.971,272.288 226.304,274.122 226.5,276C 224.997,278.092 223.997,281.092 223.5,285C 223.706,286.366 224.04,287.699 224.5,289C 222.095,295.223 220.429,302.056 219.5,309.5C 218.407,312.866 217.073,316.033 215.5,319C 215.746,322.349 215.746,325.849 215.5,329.5C 213.167,329.5 210.833,329.5 208.5,329.5C 200.876,328.523 194.543,325.189 189.5,319.5C 190.207,317.082 191.207,314.748 192.5,312.5C 189.809,310.002 190.142,307.835 193.5,306C 193.043,305.586 192.709,305.086 192.5,304.5C 197.917,295.666 202.25,286.333 205.5,276.5C 204.833,275.833 204.167,275.167 203.5,274.5C 204.711,273.28 204.711,272.113 203.5,271C 205.569,270.676 205.902,269.842 204.5,268.5C 204.846,267.304 205.346,267.304 206,268.5C 206.615,265.697 207.782,263.364 209.5,261.5C 211.564,261.313 213.564,260.813 215.5,260C 217.84,256.49 220.173,252.99 222.5,249.5 Z"/></g>
<g><path style="opacity:1" fill="#8d869f" d="M 100.5,272.5 C 100.047,273.458 99.3805,274.292 98.5,275C 115.689,285.312 131.022,296.979 144.5,310C 147.966,313.164 151.466,316.997 155,321.5C 155.414,321.043 155.914,320.709 156.5,320.5C 157.949,322.611 158.949,324.944 159.5,327.5C 160.628,328.262 161.795,328.929 163,329.5C 163.731,331.899 164.898,334.065 166.5,336C 161.342,336.683 161.342,337.516 166.5,338.5C 169.817,347.43 173.484,356.93 177.5,367C 177.005,369.009 177.005,371.176 177.5,373.5C 174.167,373.5 170.833,373.5 167.5,373.5C 163.667,364.327 159.667,355.161 155.5,346C 151.479,337.979 145.979,331.145 139,325.5C 136.134,320.115 132.301,314.949 127.5,310C 120.139,305.638 113.472,300.305 107.5,294C 100.191,288.35 92.1909,284.016 83.5,281C 81.5008,278.619 79.6675,276.786 78,275.5C 76.4748,275.112 74.8082,275.112 73,275.5C 71.5507,274.386 70.2173,273.386 69,272.5C 67.2739,273.576 65.4406,273.743 63.5,273C 64.6956,272.346 64.6956,271.846 63.5,271.5C 61.4106,272.803 59.7439,272.303 58.5,270C 59.5,269.667 60.5,269.333 61.5,269C 51.7659,265.116 41.5993,262.616 31,261.5C 28.9838,262.955 28.1505,264.955 28.5,267.5C 28.5,270.833 28.5,274.167 28.5,277.5C 28.7678,279.099 28.4345,280.432 27.5,281.5C 27.5,273.833 27.5,266.167 27.5,258.5C 28.4834,254.702 28.8168,250.702 28.5,246.5C 29.4959,246.414 30.3292,246.748 31,247.5C 31.3333,246.833 31.6667,246.167 32,245.5C 56.0811,250.38 78.9145,259.38 100.5,272.5 Z"/></g>
<g><path style="opacity:1" fill="#5f707a" d="M 199.5,251.5 C 199.795,255.077 198.795,258.243 196.5,261C 196.354,264.863 194.688,268.363 191.5,271.5C 192.718,272.803 192.385,273.803 190.5,274.5C 191.784,278.148 190.784,280.982 187.5,283C 189.797,284.16 189.464,285.16 186.5,286C 187.022,286.561 187.355,287.228 187.5,288C 185.205,293.426 182.538,298.593 179.5,303.5C 181.748,304.324 181.914,305.324 180,306.5C 179.014,305.829 177.847,305.829 176.5,306.5C 167.295,294.245 160.962,280.578 157.5,265.5C 158.458,265.953 159.292,266.619 160,267.5C 161.378,265.787 163.045,264.453 165,263.5C 165.834,259.998 166.667,256.498 167.5,253C 167.836,251.97 168.503,251.47 169.5,251.5C 169.075,255.285 168.075,258.951 166.5,262.5C 167.135,263.966 167.969,265.3 169,266.5C 170.862,264.639 170.362,263.306 167.5,262.5C 168.651,261.269 169.817,261.269 171,262.5C 172.417,259.007 173.917,258.84 175.5,262C 172.622,264.701 172.456,267.201 175,269.5C 177.103,266.28 179.436,263.28 182,260.5C 182.617,259.551 182.451,258.718 181.5,258C 183.35,257.31 184.684,256.144 185.5,254.5C 187.283,258.06 188.283,258.06 188.5,254.5C 191.86,255.21 193.693,253.876 194,250.5C 194.718,251.451 195.551,251.617 196.5,251C 197.703,247.805 198.703,247.971 199.5,251.5 Z"/></g>
<g><path style="opacity:1" fill="#719094" d="M 244.5,256.5 C 241.551,276.422 239.051,296.422 237,316.5C 234.955,320.24 234.455,324.073 235.5,328C 235.043,328.414 234.709,328.914 234.5,329.5C 227.532,330.497 220.532,330.83 213.5,330.5C 211.585,330.784 209.919,330.451 208.5,329.5C 210.833,329.5 213.167,329.5 215.5,329.5C 215.746,325.849 215.746,322.349 215.5,319C 217.073,316.033 218.407,312.866 219.5,309.5C 220.429,302.056 222.095,295.223 224.5,289C 224.04,287.699 223.706,286.366 223.5,285C 223.997,281.092 224.997,278.092 226.5,276C 226.304,274.122 225.971,272.288 225.5,270.5C 226.594,267.318 227.928,264.318 229.5,261.5C 230.5,261.5 231.5,261.5 232.5,261.5C 233.028,257.788 233.862,254.121 235,250.5C 237.148,249.023 238.482,247.023 239,244.5C 239.704,246.278 240.204,248.112 240.5,250C 238.878,256.2 236.878,262.2 234.5,268C 235.167,268.333 235.833,268.667 236.5,269C 234.213,270.427 233.88,272.261 235.5,274.5C 233.363,276.236 232.696,278.236 233.5,280.5C 236.455,277.964 237.622,274.964 237,271.5C 239.437,266.404 241.937,261.404 244.5,256.5 Z"/></g>
<g><path style="opacity:1" fill="#9bcace" d="M 314.5,204.5 C 316.754,205.124 318.421,206.457 319.5,208.5C 316.861,210.514 315.028,213.181 314,216.5C 312.92,222.071 311.253,227.404 309,232.5C 305.996,242.889 306.496,252.889 310.5,262.5C 311.274,263.711 312.107,263.711 313,262.5C 313.658,264.108 313.158,265.275 311.5,266C 314.936,269.757 316.436,274.257 316,279.5C 316.667,278.167 317.333,278.167 318,279.5C 318.309,280.766 318.809,281.933 319.5,283C 319.167,283.333 318.833,283.667 318.5,284C 319.448,284.483 320.448,284.649 321.5,284.5C 321.351,285.552 321.517,286.552 322,287.5C 322.671,286.748 323.504,286.414 324.5,286.5C 320.191,293.808 314.525,299.808 307.5,304.5C 305.798,302.816 304.298,300.816 303,298.5C 302.393,293.223 301.06,288.223 299,283.5C 298.66,277.595 297.826,271.761 296.5,266C 297.635,260.223 297.302,254.556 295.5,249C 298.845,233.995 302.845,218.828 307.5,203.5C 309.903,203.448 312.236,203.781 314.5,204.5 Z"/></g>
<g><path style="opacity:1" fill="#a3aea0" d="M 330.5,236.5 C 331.29,237.609 331.79,238.942 332,240.5C 332.824,249.343 332.657,258.01 331.5,266.5C 331.59,256.482 331.257,246.482 330.5,236.5 Z"/></g>
<g><path style="opacity:1" fill="#938ba5" d="M 167.5,373.5 C 161.167,373.5 154.833,373.5 148.5,373.5C 148.663,371.143 148.497,368.81 148,366.5C 147.5,365.333 146.667,364.5 145.5,364C 145.957,363.586 146.291,363.086 146.5,362.5C 143.712,356.403 140.878,350.403 138,344.5C 137,343.5 136,342.5 135,341.5C 134.667,338.5 134.333,335.5 134,332.5C 130.029,326.458 125.863,321.291 121.5,317C 111.344,308.158 100.677,300.158 89.5,293C 88.1667,292.333 88.1667,291.667 89.5,291C 83.9166,288.261 77.9166,285.595 71.5,283C 72.1667,282.667 72.8333,282.333 73.5,282C 67.2899,278.23 60.6233,275.563 53.5,274C 55.5951,273.444 55.7618,272.944 54,272.5C 52.2108,273.409 50.3774,273.576 48.5,273C 50.3008,272.683 50.6341,272.016 49.5,271C 47.6226,270.424 45.7892,270.591 44,271.5C 42.2382,271.056 42.4049,270.556 44.5,270C 40.3898,269.675 36.3898,268.842 32.5,267.5C 31.3527,267.818 30.5194,268.484 30,269.5C 29.7216,268.584 29.2216,267.918 28.5,267.5C 28.1505,264.955 28.9838,262.955 31,261.5C 41.5993,262.616 51.7659,265.116 61.5,269C 60.5,269.333 59.5,269.667 58.5,270C 59.7439,272.303 61.4106,272.803 63.5,271.5C 64.6956,271.846 64.6956,272.346 63.5,273C 65.4406,273.743 67.2739,273.576 69,272.5C 70.2173,273.386 71.5507,274.386 73,275.5C 74.8082,275.112 76.4748,275.112 78,275.5C 79.6675,276.786 81.5008,278.619 83.5,281C 92.1909,284.016 100.191,288.35 107.5,294C 113.472,300.305 120.139,305.638 127.5,310C 132.301,314.949 136.134,320.115 139,325.5C 145.979,331.145 151.479,337.979 155.5,346C 159.667,355.161 163.667,364.327 167.5,373.5 Z"/></g>
<g><path style="opacity:1" fill="#647981" d="M 209.5,261.5 C 207.782,263.364 206.615,265.697 206,268.5C 205.346,267.304 204.846,267.304 204.5,268.5C 205.902,269.842 205.569,270.676 203.5,271C 204.711,272.113 204.711,273.28 203.5,274.5C 204.167,275.167 204.833,275.833 205.5,276.5C 202.25,286.333 197.917,295.666 192.5,304.5C 192.709,305.086 193.043,305.586 193.5,306C 190.142,307.835 189.809,310.002 192.5,312.5C 191.207,314.748 190.207,317.082 189.5,319.5C 184.167,316.167 179.833,311.833 176.5,306.5C 177.847,305.829 179.014,305.829 180,306.5C 181.914,305.324 181.748,304.324 179.5,303.5C 182.538,298.593 185.205,293.426 187.5,288C 187.355,287.228 187.022,286.561 186.5,286C 189.464,285.16 189.797,284.16 187.5,283C 190.784,280.982 191.784,278.148 190.5,274.5C 192.385,273.803 192.718,272.803 191.5,271.5C 194.688,268.363 196.354,264.863 196.5,261C 198.795,258.243 199.795,255.077 199.5,251.5C 200.131,249.025 201.131,246.691 202.5,244.5C 202.369,245.239 202.536,245.906 203,246.5C 205.67,245.776 207.17,244.109 207.5,241.5C 208.5,241.5 209.5,241.5 210.5,241.5C 210.343,240.127 210.51,238.793 211,237.5C 212.566,238.061 213.899,237.394 215,235.5C 215.646,244.213 213.48,252.379 208.5,260C 209.056,260.383 209.389,260.883 209.5,261.5 Z"/></g>
<g><path style="opacity:1" fill="#9890ab" d="M 28.5,267.5 C 29.2216,267.918 29.7216,268.584 30,269.5C 30.5194,268.484 31.3527,267.818 32.5,267.5C 36.3898,268.842 40.3898,269.675 44.5,270C 42.4049,270.556 42.2382,271.056 44,271.5C 45.7892,270.591 47.6226,270.424 49.5,271C 50.6341,272.016 50.3008,272.683 48.5,273C 50.3774,273.576 52.2108,273.409 54,272.5C 55.7618,272.944 55.5951,273.444 53.5,274C 60.6233,275.563 67.2899,278.23 73.5,282C 72.8333,282.333 72.1667,282.667 71.5,283C 77.9166,285.595 83.9166,288.261 89.5,291C 88.1667,291.667 88.1667,292.333 89.5,293C 100.677,300.158 111.344,308.158 121.5,317C 125.863,321.291 130.029,326.458 134,332.5C 134.333,335.5 134.667,338.5 135,341.5C 136,342.5 137,343.5 138,344.5C 140.878,350.403 143.712,356.403 146.5,362.5C 146.291,363.086 145.957,363.586 145.5,364C 146.667,364.5 147.5,365.333 148,366.5C 148.497,368.81 148.663,371.143 148.5,373.5C 144.833,373.5 141.167,373.5 137.5,373.5C 134.938,366.805 132.604,359.972 130.5,353C 128.956,351.034 127.79,348.868 127,346.5C 126.25,345.874 125.416,345.374 124.5,345C 124.616,343.732 124.949,342.398 125.5,341C 122.876,340.424 122.209,339.09 123.5,337C 120.082,335.747 117.415,333.581 115.5,330.5C 115.709,329.914 116.043,329.414 116.5,329C 105.963,317.964 94.6301,307.798 82.5,298.5C 81.6143,297.675 81.281,296.675 81.5,295.5C 80.1266,295.657 78.7932,295.49 77.5,295C 75.7487,292.521 73.582,291.688 71,292.5C 69.3651,290.446 67.0318,288.446 64,286.5C 63.6667,286.833 63.3333,287.167 63,287.5C 59.6085,285.982 56.2751,284.316 53,282.5C 52.6667,282.833 52.3333,283.167 52,283.5C 50.9207,281.606 49.5874,281.273 48,282.5C 44.7482,279.512 41.0815,278.845 37,280.5C 36.5172,279.552 36.3505,278.552 36.5,277.5C 33.8333,277.5 31.1667,277.5 28.5,277.5C 28.5,274.167 28.5,270.833 28.5,267.5 Z"/></g>
<g><path style="opacity:1" fill="#7ca1a4" d="M 255.5,202.5 C 261.5,202.5 267.5,202.5 273.5,202.5C 274.547,203.078 274.38,203.744 273,204.5C 272.367,209.745 271.533,214.912 270.5,220C 270.957,220.414 271.291,220.914 271.5,221.5C 270.167,224.833 268.833,228.167 267.5,231.5C 268.8,234.321 268.467,236.988 266.5,239.5C 265.624,244.334 265.624,249.334 266.5,254.5C 265.696,257.959 265.029,261.459 264.5,265C 265.652,268.485 265.652,271.985 264.5,275.5C 266.16,278.77 266.494,282.103 265.5,285.5C 266.426,297.505 267.426,309.505 268.5,321.5C 268.291,322.086 267.957,322.586 267.5,323C 268.691,323.698 269.691,324.531 270.5,325.5C 267.363,327.871 263.696,328.871 259.5,328.5C 257.5,328.5 255.5,328.5 253.5,328.5C 253.313,326.436 252.813,324.436 252,322.5C 250.282,324.202 250.115,326.035 251.5,328C 250.584,328.374 249.75,328.874 249,329.5C 250.069,325.232 249.569,321.065 247.5,317C 247.493,315.188 248.16,313.688 249.5,312.5C 249.14,301.725 249.14,291.059 249.5,280.5C 249.667,279.833 249.833,279.167 250,278.5C 250.333,279.5 250.667,280.5 251,281.5C 249.663,275.087 250.163,268.587 252.5,262C 252.167,261 251.833,260 251.5,259C 253.395,253.265 255.062,247.431 256.5,241.5C 256.069,240.707 255.735,239.873 255.5,239C 256.076,231.572 257.076,224.239 258.5,217C 258.434,215.261 257.767,213.428 256.5,211.5C 258.144,208.151 257.81,205.151 255.5,202.5 Z"/></g>
<g><path style="opacity:1" fill="#77989a" d="M 253.5,202.5 C 254.167,202.5 254.833,202.5 255.5,202.5C 257.81,205.151 258.144,208.151 256.5,211.5C 257.767,213.428 258.434,215.261 258.5,217C 257.076,224.239 256.076,231.572 255.5,239C 255.735,239.873 256.069,240.707 256.5,241.5C 255.062,247.431 253.395,253.265 251.5,259C 251.833,260 252.167,261 252.5,262C 250.163,268.587 249.663,275.087 251,281.5C 250.667,280.5 250.333,279.5 250,278.5C 249.833,279.167 249.667,279.833 249.5,280.5C 249.14,291.059 249.14,301.725 249.5,312.5C 248.16,313.688 247.493,315.188 247.5,317C 249.569,321.065 250.069,325.232 249,329.5C 249.75,328.874 250.584,328.374 251.5,328C 250.115,326.035 250.282,324.202 252,322.5C 252.813,324.436 253.313,326.436 253.5,328.5C 255.5,328.5 257.5,328.5 259.5,328.5C 255.736,329.832 251.736,330.665 247.5,331C 235.992,331.826 224.659,331.659 213.5,330.5C 220.532,330.83 227.532,330.497 234.5,329.5C 234.709,328.914 235.043,328.414 235.5,328C 234.455,324.073 234.955,320.24 237,316.5C 239.051,296.422 241.551,276.422 244.5,256.5C 245.317,254.169 245.984,251.669 246.5,249C 246.265,248.127 245.931,247.293 245.5,246.5C 246.964,239.473 248.964,232.639 251.5,226C 251.167,218.333 250.833,210.667 250.5,203C 251.448,202.517 252.448,202.351 253.5,202.5 Z"/></g>
<g><path style="opacity:1" fill="#9d95b2" d="M 28.5,277.5 C 31.1667,277.5 33.8333,277.5 36.5,277.5C 36.3505,278.552 36.5172,279.552 37,280.5C 41.0815,278.845 44.7482,279.512 48,282.5C 49.5874,281.273 50.9207,281.606 52,283.5C 52.3333,283.167 52.6667,282.833 53,282.5C 56.2751,284.316 59.6085,285.982 63,287.5C 63.3333,287.167 63.6667,286.833 64,286.5C 67.0318,288.446 69.3651,290.446 71,292.5C 73.582,291.688 75.7487,292.521 77.5,295C 78.7932,295.49 80.1266,295.657 81.5,295.5C 81.281,296.675 81.6143,297.675 82.5,298.5C 94.6301,307.798 105.963,317.964 116.5,329C 116.043,329.414 115.709,329.914 115.5,330.5C 117.415,333.581 120.082,335.747 123.5,337C 122.209,339.09 122.876,340.424 125.5,341C 124.949,342.398 124.616,343.732 124.5,345C 125.416,345.374 126.25,345.874 127,346.5C 127.79,348.868 128.956,351.034 130.5,353C 132.604,359.972 134.938,366.805 137.5,373.5C 133.167,373.5 128.833,373.5 124.5,373.5C 123.942,372.21 122.942,371.377 121.5,371C 122.167,370.667 122.833,370.333 123.5,370C 121.597,364.909 119.764,359.742 118,354.5C 117.086,355.654 116.253,355.487 115.5,354C 116.328,353.085 117.328,352.419 118.5,352C 107.432,331.066 91.4316,315.066 70.5,304C 69.7894,302.745 68.956,301.579 68,300.5C 67.6667,300.833 67.3333,301.167 67,301.5C 63.6553,298.661 59.9886,296.328 56,294.5C 47.5272,292.335 38.6939,290.001 29.5,287.5C 28.513,290.768 28.1796,294.102 28.5,297.5C 28.8195,302.363 28.4861,307.03 27.5,311.5C 27.5,301.5 27.5,291.5 27.5,281.5C 28.4345,280.432 28.7678,279.099 28.5,277.5 Z"/></g>
<g><path style="opacity:1" fill="#6e6779" d="M 373.5,295.5 C 373.5,307.5 373.5,319.5 373.5,331.5C 365.409,331.849 357.409,332.849 349.5,334.5C 345.794,332.394 341.961,330.727 338,329.5C 334.568,330.416 331.068,331.083 327.5,331.5C 327.5,333.167 327.5,334.833 327.5,336.5C 329.5,336.5 331.5,336.5 333.5,336.5C 333.5,337.5 333.5,338.5 333.5,339.5C 330.523,340.071 327.69,341.071 325,342.5C 322.489,339.657 319.656,337.157 316.5,335C 316.5,333.667 316.5,332.333 316.5,331C 313.562,330.288 310.896,330.788 308.5,332.5C 322.833,322.833 334.833,310.833 344.5,296.5C 346.492,296.328 348.158,296.995 349.5,298.5C 350.439,296.947 351.606,295.613 353,294.5C 357.073,295.624 361.073,295.291 365,293.5C 366.86,295.915 368.526,295.915 370,293.5C 370.71,294.973 371.876,295.64 373.5,295.5 Z"/></g>
<g><path style="opacity:1" fill="#a9a2c0" d="M 28.5,297.5 C 50.1111,299.456 68.7778,308.289 84.5,324C 83.1669,325.84 83.3335,326.34 85,325.5C 88.9148,330.094 92.9148,334.76 97,339.5C 98.3678,342.186 99.7011,344.853 101,347.5C 101.667,348.833 102.333,348.833 103,347.5C 107.351,355.863 110.851,364.53 113.5,373.5C 104.5,373.5 95.5,373.5 86.5,373.5C 85.6371,372.06 85.6371,370.726 86.5,369.5C 86.032,367.866 85.032,366.7 83.5,366C 84.9499,362.899 83.9499,360.899 80.5,360C 80.9574,359.586 81.2907,359.086 81.5,358.5C 80.4981,356.49 79.4981,354.49 78.5,352.5C 77.914,352.709 77.414,353.043 77,353.5C 74.9231,346.994 71.4231,342.161 66.5,339C 67.1667,338.667 67.8333,338.333 68.5,338C 65.0847,337.594 62.418,335.928 60.5,333C 54.869,330.006 49.2023,327.006 43.5,324C 38.5269,323.166 33.8603,322.332 29.5,321.5C 28.5059,326.456 28.1725,331.456 28.5,336.5C 28.5,345.167 28.5,353.833 28.5,362.5C 27.5034,345.675 27.1701,328.675 27.5,311.5C 28.4861,307.03 28.8195,302.363 28.5,297.5 Z"/></g>
<g><path style="opacity:1" fill="#a39bb8" d="M 124.5,373.5 C 120.833,373.5 117.167,373.5 113.5,373.5C 110.851,364.53 107.351,355.863 103,347.5C 102.333,348.833 101.667,348.833 101,347.5C 99.7011,344.853 98.3678,342.186 97,339.5C 92.9148,334.76 88.9148,330.094 85,325.5C 83.3335,326.34 83.1669,325.84 84.5,324C 68.7778,308.289 50.1111,299.456 28.5,297.5C 28.1796,294.102 28.513,290.768 29.5,287.5C 38.6939,290.001 47.5272,292.335 56,294.5C 59.9886,296.328 63.6553,298.661 67,301.5C 67.3333,301.167 67.6667,300.833 68,300.5C 68.956,301.579 69.7894,302.745 70.5,304C 91.4316,315.066 107.432,331.066 118.5,352C 117.328,352.419 116.328,353.085 115.5,354C 116.253,355.487 117.086,355.654 118,354.5C 119.764,359.742 121.597,364.909 123.5,370C 122.833,370.333 122.167,370.667 121.5,371C 122.942,371.377 123.942,372.21 124.5,373.5 Z"/></g>
<g><path style="opacity:1" fill="#b2abcb" d="M 86.5,373.5 C 81.1667,373.5 75.8333,373.5 70.5,373.5C 70.528,371.418 69.8613,369.584 68.5,368C 69.9255,366.286 69.5922,364.953 67.5,364C 67.9574,363.586 68.2907,363.086 68.5,362.5C 64.0815,356.16 59.0815,349.66 53.5,343C 49.8644,341.182 46.1978,339.349 42.5,337.5C 41.3926,338.022 40.2259,338.355 39,338.5C 35.499,337.766 31.999,337.1 28.5,336.5C 28.1725,331.456 28.5059,326.456 29.5,321.5C 33.8603,322.332 38.5269,323.166 43.5,324C 49.2023,327.006 54.869,330.006 60.5,333C 62.418,335.928 65.0847,337.594 68.5,338C 67.8333,338.333 67.1667,338.667 66.5,339C 71.4231,342.161 74.9231,346.994 77,353.5C 77.414,353.043 77.914,352.709 78.5,352.5C 79.4981,354.49 80.4981,356.49 81.5,358.5C 81.2907,359.086 80.9574,359.586 80.5,360C 83.9499,360.899 84.9499,362.899 83.5,366C 85.032,366.7 86.032,367.866 86.5,369.5C 85.6371,370.726 85.6371,372.06 86.5,373.5 Z"/></g>
<g><path style="opacity:1" fill="#716a7d" d="M 373.5,331.5 C 373.667,342.172 373.5,352.839 373,363.5C 371.727,366.597 369.893,369.264 367.5,371.5C 364.821,372.226 362.154,373.059 359.5,374C 306.501,374.5 253.501,374.667 200.5,374.5C 200.5,374.167 200.5,373.833 200.5,373.5C 210.5,373.5 220.5,373.5 230.5,373.5C 249.5,373.5 268.5,373.5 287.5,373.5C 287.363,367.647 285.03,366.314 280.5,369.5C 279.977,366.11 279.143,362.777 278,359.5C 276.174,357.926 274.007,357.093 271.5,357C 270.692,354.912 269.692,352.912 268.5,351C 258.912,352.088 249.246,352.588 239.5,352.5C 263.981,351.12 286.981,344.453 308.5,332.5C 310.896,330.788 313.562,330.288 316.5,331C 316.5,332.333 316.5,333.667 316.5,335C 319.656,337.157 322.489,339.657 325,342.5C 327.69,341.071 330.523,340.071 333.5,339.5C 333.5,338.5 333.5,337.5 333.5,336.5C 331.5,336.5 329.5,336.5 327.5,336.5C 327.5,334.833 327.5,333.167 327.5,331.5C 331.068,331.083 334.568,330.416 338,329.5C 341.961,330.727 345.794,332.394 349.5,334.5C 357.409,332.849 365.409,331.849 373.5,331.5 Z"/></g>
<g><path style="opacity:1" fill="#b7b1d1" d="M 28.5,336.5 C 31.999,337.1 35.499,337.766 39,338.5C 40.2259,338.355 41.3926,338.022 42.5,337.5C 46.1978,339.349 49.8644,341.182 53.5,343C 59.0815,349.66 64.0815,356.16 68.5,362.5C 68.2907,363.086 67.9574,363.586 67.5,364C 69.5922,364.953 69.9255,366.286 68.5,368C 69.8613,369.584 70.528,371.418 70.5,373.5C 59.5,373.5 48.5,373.5 37.5,373.5C 32.662,371.329 29.662,367.663 28.5,362.5C 28.5,353.833 28.5,345.167 28.5,336.5 Z"/></g>
<g><path style="opacity:1" fill="#867f96" d="M 100.5,272.5 C 108.812,278.783 117.479,284.616 126.5,290C 131.146,294.977 136.146,299.644 141.5,304C 142.449,304.617 143.282,304.451 144,303.5C 144.931,305.459 145.764,307.459 146.5,309.5C 147.689,310.429 149.022,310.762 150.5,310.5C 160.967,325.303 173.967,337.303 189.5,346.5C 189.369,349.329 190.369,350.662 192.5,350.5C 191.674,351.451 191.508,352.451 192,353.5C 192.667,354.833 193.333,354.833 194,353.5C 196.713,360.135 198.879,366.802 200.5,373.5C 200.5,373.833 200.5,374.167 200.5,374.5C 146.833,374.5 93.1667,374.5 39.5,374.5C 38.5084,374.672 37.8417,374.338 37.5,373.5C 48.5,373.5 59.5,373.5 70.5,373.5C 75.8333,373.5 81.1667,373.5 86.5,373.5C 95.5,373.5 104.5,373.5 113.5,373.5C 117.167,373.5 120.833,373.5 124.5,373.5C 128.833,373.5 133.167,373.5 137.5,373.5C 141.167,373.5 144.833,373.5 148.5,373.5C 154.833,373.5 161.167,373.5 167.5,373.5C 170.833,373.5 174.167,373.5 177.5,373.5C 177.005,371.176 177.005,369.009 177.5,367C 173.484,356.93 169.817,347.43 166.5,338.5C 161.342,337.516 161.342,336.683 166.5,336C 164.898,334.065 163.731,331.899 163,329.5C 161.795,328.929 160.628,328.262 159.5,327.5C 158.949,324.944 157.949,322.611 156.5,320.5C 155.914,320.709 155.414,321.043 155,321.5C 151.466,316.997 147.966,313.164 144.5,310C 131.022,296.979 115.689,285.312 98.5,275C 99.3805,274.292 100.047,273.458 100.5,272.5 Z"/></g>
<g><path style="opacity:1" fill="#797286" d="M 230.5,373.5 C 228.661,370.1 229.328,368.6 232.5,369C 231.853,367.391 231.02,365.891 230,364.5C 229.529,366.246 228.862,367.913 228,369.5C 226.617,364.92 225.617,360.253 225,355.5C 223.698,354.915 222.531,354.249 221.5,353.5C 227.69,353.823 233.69,353.49 239.5,352.5C 249.246,352.588 258.912,352.088 268.5,351C 269.692,352.912 270.692,354.912 271.5,357C 274.007,357.093 276.174,357.926 278,359.5C 279.143,362.777 279.977,366.11 280.5,369.5C 285.03,366.314 287.363,367.647 287.5,373.5C 268.5,373.5 249.5,373.5 230.5,373.5 Z"/></g>
<g><path style="opacity:1" fill="#80798f" d="M 189.5,346.5 C 195.501,348.167 201.501,349.834 207.5,351.5C 211.98,352.521 216.647,353.187 221.5,353.5C 222.531,354.249 223.698,354.915 225,355.5C 225.617,360.253 226.617,364.92 228,369.5C 228.862,367.913 229.529,366.246 230,364.5C 231.02,365.891 231.853,367.391 232.5,369C 229.328,368.6 228.661,370.1 230.5,373.5C 220.5,373.5 210.5,373.5 200.5,373.5C 198.879,366.802 196.713,360.135 194,353.5C 193.333,354.833 192.667,354.833 192,353.5C 191.508,352.451 191.674,351.451 192.5,350.5C 190.369,350.662 189.369,349.329 189.5,346.5 Z"/></g>
<g><path style="opacity:1" fill="#595569" d="M 207.5,351.5 C 218.175,351.623 228.841,351.957 239.5,352.5C 233.69,353.49 227.69,353.823 221.5,353.5C 216.647,353.187 211.98,352.521 207.5,351.5 Z"/></g>
<g><path style="opacity:1" fill="#9e9fa8" d="M 15.5,366.5 C 17.2451,368.033 18.2451,370.033 18.5,372.5C 16.7549,370.967 15.7549,368.967 15.5,366.5 Z"/></g>
<g><path style="opacity:1" fill="#38384b" d="M 367.5,371.5 C 365.879,373.117 363.879,374.284 361.5,375C 253.999,375.833 146.666,375.666 39.5,374.5C 93.1667,374.5 146.833,374.5 200.5,374.5C 253.501,374.667 306.501,374.5 359.5,374C 362.154,373.059 364.821,372.226 367.5,371.5 Z"/></g>
</svg>
