<?xml version="1.0" encoding="UTF-8"?>
<!DOCTYPE svg PUBLIC "-//W3C//DTD SVG 1.1//EN" "http://www.w3.org/Graphics/SVG/1.1/DTD/svg11.dtd">
<svg xmlns="http://www.w3.org/2000/svg" version="1.1" width="354px" height="142px" style="shape-rendering:geometricPrecision; text-rendering:geometricPrecision; image-rendering:optimizeQuality; fill-rule:evenodd; clip-rule:evenodd" xmlns:xlink="http://www.w3.org/1999/xlink">
<g><path style="opacity:1" fill="#0f1217" d="M -0.5,-0.5 C 73.1667,-0.5 146.833,-0.5 220.5,-0.5C 220.414,0.495904 220.748,1.32924 221.5,2C 217.79,4.85395 213.79,7.18729 209.5,9C 211.384,9.21631 213.051,9.88298 214.5,11C 213.551,11.6172 212.718,11.4506 212,10.5C 211.333,11.8333 210.667,13.1667 210,14.5C 209.577,13.0439 208.744,12.5439 207.5,13C 208.791,15.0902 208.124,16.4236 205.5,17C 206.28,18.073 206.113,19.2396 205,20.5C 203.992,20.9817 202.825,21.1484 201.5,21C 202.258,22.3639 201.758,23.5305 200,24.5C 199.667,24.1667 199.333,23.8333 199,23.5C 198.667,24.5 198.333,25.5 198,26.5C 197.086,25.3463 196.253,25.513 195.5,27C 196.956,27.4226 197.456,28.2559 197,29.5C 196.586,29.0426 196.086,28.7093 195.5,28.5C 194.667,29.5 193.833,30.5 193,31.5C 192.444,29.4049 191.944,29.2382 191.5,31C 191.905,31.9454 192.572,32.6121 193.5,33C 191.216,34.6532 189.55,36.8199 188.5,39.5C 188.167,39.5 187.833,39.5 187.5,39.5C 186.32,36.1554 183.987,33.9887 180.5,33C 175.511,32.5007 170.511,32.3341 165.5,32.5C 165.5,42.5 165.5,52.5 165.5,62.5C 167.833,62.5 170.167,62.5 172.5,62.5C 166.423,64.4565 160.09,65.9565 153.5,67C 164.674,67.1695 175.674,67.6695 186.5,68.5C 153.165,68.6667 119.832,68.5 86.5,68C 84.2316,60.0648 79.0649,55.2315 71,53.5C 70.111,49.8484 69.7776,46.1817 70,42.5C 75.2226,37.6136 80.0559,32.447 84.5,27C 84.0459,25.3783 83.0459,24.2116 81.5,23.5C 76.4721,28.8595 71.4721,34.1929 66.5,39.5C 63.2324,37.6187 60.0658,35.6187 57,33.5C 54.4744,34.1275 53.6411,35.4609 54.5,37.5C 57.8998,39.8556 61.2331,42.1889 64.5,44.5C 64.5,47.8333 64.5,51.1667 64.5,54.5C 62.4068,55.0447 60.4068,55.878 58.5,57C 56.0328,60.1158 53.6994,63.2825 51.5,66.5C 49.6667,64.1667 47.8333,61.8333 46,59.5C 44.5134,60.1552 43.3467,61.1552 42.5,62.5C 44.3333,64.8333 46.1667,67.1667 48,69.5C 47.7093,73.9205 45.876,77.7539 42.5,81C 38.6066,81.3998 34.9399,80.5665 31.5,78.5C 30.7564,79.9905 30.0897,81.4905 29.5,83C 34.4173,84.978 39.4173,86.3113 44.5,87C 47.3333,82.8333 50.1667,78.6667 53,74.5C 55.8868,80.8896 60.7201,84.8896 67.5,86.5C 67.6658,91.1785 67.4992,95.8452 67,100.5C 62.1815,103.985 58.0148,108.152 54.5,113C 55.0593,115.188 56.3927,115.854 58.5,115C 61,112.5 63.5,110 66,107.5C 66.4966,109.81 66.6633,112.143 66.5,114.5C 67.9187,115.451 69.5853,115.784 71.5,115.5C 71.5,114.167 71.5,112.833 71.5,111.5C 71.1774,107.774 71.5108,104.107 72.5,100.5C 74.881,102.396 77.381,102.729 80,101.5C 80.4828,100.552 80.6495,99.552 80.5,98.5C 78.0987,97.9512 75.7654,97.1178 73.5,96C 72.2086,92.5447 72.2086,89.0447 73.5,85.5C 79.8521,83.8146 83.8521,79.8146 85.5,73.5C 107.5,73.5 129.5,73.5 151.5,73.5C 150.77,75.045 149.437,75.8784 147.5,76C 150.28,78.1091 150.113,79.9425 147,81.5C 146.333,80.8333 145.667,80.1667 145,79.5C 144.505,81.4727 144.338,83.4727 144.5,85.5C 141.828,83.9495 139.495,84.4495 137.5,87C 138.167,87.6667 138.833,88.3333 139.5,89C 137.615,91.1637 135.615,92.4971 133.5,93C 134.167,93.3333 134.833,93.6667 135.5,94C 133.623,96.1058 131.29,97.4391 128.5,98C 129.673,101.11 129.173,101.277 127,98.5C 124.72,102.858 122.386,106.525 120,109.5C 118.045,110.453 116.378,111.787 115,113.5C 114.333,112.833 113.667,112.167 113,111.5C 112.505,113.473 112.338,115.473 112.5,117.5C 110.305,116.392 108.305,116.559 106.5,118C 105.304,118.654 105.304,119.154 106.5,119.5C 107.768,118.572 109.101,118.405 110.5,119C 106.945,121.017 103.945,123.017 101.5,125C 102.167,125.333 102.833,125.667 103.5,126C 101.623,128.106 99.29,129.439 96.5,130C 97.3402,131.666 96.8402,131.833 95,130.5C 94.4391,133.29 93.1058,135.623 91,137.5C 90.6667,137.167 90.3333,136.833 90,136.5C 89.3923,138.154 88.8923,139.821 88.5,141.5C 58.8333,141.5 29.1667,141.5 -0.5,141.5C -0.5,94.1667 -0.5,46.8333 -0.5,-0.5 Z"/></g>
<g><path style="opacity:1" fill="#0f111d" d="M 220.5,-0.5 C 239.167,-0.5 257.833,-0.5 276.5,-0.5C 276.987,0.473444 277.487,1.47344 278,2.5C 278.654,1.30441 279.154,1.30441 279.5,2.5C 277.993,3.73875 276.826,3.40542 276,1.5C 275.517,2.44802 275.351,3.44802 275.5,4.5C 274.127,4.34332 272.793,4.50999 271.5,5C 272.308,5.30762 272.975,5.80762 273.5,6.5C 271.83,9.03476 269.83,11.2014 267.5,13C 268.167,13.3333 268.833,13.6667 269.5,14C 268.051,15.117 266.384,15.7837 264.5,16C 266.929,16.4512 267.096,17.2845 265,18.5C 264.667,18.1667 264.333,17.8333 264,17.5C 263.641,20.5443 262.974,20.8776 262,18.5C 261.667,19.8333 261.333,21.1667 261,22.5C 260.086,21.3463 259.253,21.513 258.5,23C 258.833,23.3333 259.167,23.6667 259.5,24C 257.321,24.4419 256.655,25.4419 257.5,27C 256.953,27.9246 256.287,28.7579 255.5,29.5C 253.22,30.311 250.72,30.311 248,29.5C 244.949,32.4298 243.782,36.0965 244.5,40.5C 243.5,40.5 242.5,40.5 241.5,40.5C 241.806,37.6146 241.473,34.9479 240.5,32.5C 240.167,32.5 239.833,32.5 239.5,32.5C 237.833,32.5 236.167,32.5 234.5,32.5C 233.833,37.5 233.167,42.5 232.5,47.5C 227.167,42.5 221.833,37.5 216.5,32.5C 216.44,31.9569 216.107,31.6236 215.5,31.5C 214.501,42.1459 214.168,52.8126 214.5,63.5C 216.735,63.7947 218.735,63.4614 220.5,62.5C 221.327,57.3491 221.827,52.0158 222,46.5C 225.038,49.3694 227.871,52.3694 230.5,55.5C 230.649,56.552 230.483,57.552 230,58.5C 229.086,57.3463 228.253,57.513 227.5,59C 228.956,59.4226 229.456,60.2559 229,61.5C 228.586,61.0426 228.086,60.7093 227.5,60.5C 226.289,61.2739 226.289,62.1072 227.5,63C 226.5,64 225.5,65 224.5,66C 221.305,66.1805 218.305,66.6805 215.5,67.5C 212.941,67.1984 210.607,67.5318 208.5,68.5C 207.167,69.8333 207.167,71.1667 208.5,72.5C 231.5,72.5 254.5,72.5 277.5,72.5C 270.352,73.4916 263.019,73.825 255.5,73.5C 239.83,73.3334 224.163,73.5001 208.5,74C 212.821,75.4427 213.321,77.6094 210,80.5C 209.282,79.5494 208.449,79.3828 207.5,80C 208.576,81.7261 208.743,83.5594 208,85.5C 207.333,82.8333 206.667,82.8333 206,85.5C 204.927,84.7203 203.76,84.887 202.5,86C 201.142,88.0263 200.309,90.193 200,92.5C 199.086,91.3463 198.253,91.513 197.5,93C 198.167,93.3333 198.833,93.6667 199.5,94C 197.623,96.1058 195.29,97.4391 192.5,98C 194.929,98.4512 195.096,99.2845 193,100.5C 190.827,97.723 190.327,97.8897 191.5,101C 189.699,101.317 189.366,101.984 190.5,103C 188.114,103.284 187.448,104.284 188.5,106C 187.235,107.337 186.735,108.837 187,110.5C 188.572,107.81 190.572,105.477 193,103.5C 195.113,105.271 194.947,106.771 192.5,108C 193.167,108.333 193.833,108.667 194.5,109C 192.901,110.066 191.901,111.566 191.5,113.5C 189.979,113.88 188.313,114.046 186.5,114C 187.167,114.333 187.833,114.667 188.5,115C 186.693,116.602 184.693,117.936 182.5,119C 183.258,120.364 182.758,121.531 181,122.5C 180.667,122.167 180.333,121.833 180,121.5C 179.5,122.667 178.667,123.5 177.5,124C 178.167,124.333 178.833,124.667 179.5,125C 177.833,125.333 176.167,125.667 174.5,126C 175.167,126.333 175.833,126.667 176.5,127C 172.975,128.577 171.475,131.077 172,134.5C 170.951,133.483 169.784,133.316 168.5,134C 168.833,134.333 169.167,134.667 169.5,135C 168.5,135.333 167.5,135.667 166.5,136C 166.5,137.333 166.5,138.667 166.5,140C 165.451,140.492 164.451,140.326 163.5,139.5C 162.702,139.957 162.369,140.624 162.5,141.5C 137.833,141.5 113.167,141.5 88.5,141.5C 88.8923,139.821 89.3923,138.154 90,136.5C 90.3333,136.833 90.6667,137.167 91,137.5C 93.1058,135.623 94.4391,133.29 95,130.5C 96.8402,131.833 97.3402,131.666 96.5,130C 99.29,129.439 101.623,128.106 103.5,126C 102.833,125.667 102.167,125.333 101.5,125C 103.945,123.017 106.945,121.017 110.5,119C 109.101,118.405 107.768,118.572 106.5,119.5C 105.304,119.154 105.304,118.654 106.5,118C 108.305,116.559 110.305,116.392 112.5,117.5C 112.338,115.473 112.505,113.473 113,111.5C 113.667,112.167 114.333,112.833 115,113.5C 116.378,111.787 118.045,110.453 120,109.5C 122.386,106.525 124.72,102.858 127,98.5C 129.173,101.277 129.673,101.11 128.5,98C 131.29,97.4391 133.623,96.1058 135.5,94C 134.833,93.6667 134.167,93.3333 133.5,93C 135.615,92.4971 137.615,91.1637 139.5,89C 138.833,88.3333 138.167,87.6667 137.5,87C 139.495,84.4495 141.828,83.9495 144.5,85.5C 144.338,83.4727 144.505,81.4727 145,79.5C 145.667,80.1667 146.333,80.8333 147,81.5C 150.113,79.9425 150.28,78.1091 147.5,76C 149.437,75.8784 150.77,75.045 151.5,73.5C 163.5,73.5 175.5,73.5 187.5,73.5C 187.784,71.5853 187.451,69.9187 186.5,68.5C 175.674,67.6695 164.674,67.1695 153.5,67C 160.09,65.9565 166.423,64.4565 172.5,62.5C 172.5,60.1667 172.5,57.8333 172.5,55.5C 178.257,56.5516 182.924,54.8849 186.5,50.5C 188.414,47.3157 189.08,43.649 188.5,39.5C 189.55,36.8199 191.216,34.6532 193.5,33C 192.572,32.6121 191.905,31.9454 191.5,31C 191.944,29.2382 192.444,29.4049 193,31.5C 193.833,30.5 194.667,29.5 195.5,28.5C 196.086,28.7093 196.586,29.0426 197,29.5C 197.456,28.2559 196.956,27.4226 195.5,27C 196.253,25.513 197.086,25.3463 198,26.5C 198.333,25.5 198.667,24.5 199,23.5C 199.333,23.8333 199.667,24.1667 200,24.5C 201.758,23.5305 202.258,22.3639 201.5,21C 202.825,21.1484 203.992,20.9817 205,20.5C 206.113,19.2396 206.28,18.073 205.5,17C 208.124,16.4236 208.791,15.0902 207.5,13C 208.744,12.5439 209.577,13.0439 210,14.5C 210.667,13.1667 211.333,11.8333 212,10.5C 212.718,11.4506 213.551,11.6172 214.5,11C 213.051,9.88298 211.384,9.21631 209.5,9C 213.79,7.18729 217.79,4.85395 221.5,2C 220.748,1.32924 220.414,0.495904 220.5,-0.5 Z"/></g>
<g><path style="opacity:1" fill="#111224" d="M 276.5,-0.5 C 294.833,-0.5 313.167,-0.5 331.5,-0.5C 331.389,0.117425 331.056,0.617425 330.5,1C 331.956,1.42258 332.456,2.25591 332,3.5C 327.611,2.21898 326.778,3.38565 329.5,7C 328.5,7.33333 327.5,7.66667 326.5,8C 326.908,10.8614 326.075,11.0281 324,8.5C 322.024,9.54334 321.524,10.8767 322.5,12.5C 321.194,13.9122 320.36,15.5789 320,17.5C 318.278,17.9615 316.445,18.1282 314.5,18C 316.332,18.7485 317.999,19.7485 319.5,21C 317.833,23.4621 315.833,24.7955 313.5,25C 314.308,25.3076 314.975,25.8076 315.5,26.5C 314.833,26.8333 314.167,27.1667 313.5,27.5C 315.748,28.324 315.914,29.324 314,30.5C 312.326,28.9907 310.66,28.3241 309,28.5C 308.689,29.7425 309.189,30.7425 310.5,31.5C 310,32.5 309.5,33.5 309,34.5C 308.667,34.1667 308.333,33.8333 308,33.5C 307.517,34.448 307.351,35.448 307.5,36.5C 305.856,36.2865 304.356,36.6198 303,37.5C 303.599,40.6615 302.433,43.1615 299.5,45C 300.167,45.3333 300.833,45.6667 301.5,46C 300.051,47.117 298.384,47.7837 296.5,48C 298.929,48.4512 299.096,49.2845 297,50.5C 295,49.1667 293,47.8333 291,46.5C 290.5,52.8246 290.334,59.1579 290.5,65.5C 289.67,55.6751 289.17,45.6751 289,35.5C 288.654,32.4245 287.988,29.4245 287,26.5C 286.261,25.4258 285.261,24.7591 284,24.5C 282.181,26.1257 280.848,28.1257 280,30.5C 278.73,42.2191 277.23,53.8857 275.5,65.5C 255.733,67.4694 235.733,68.1361 215.5,67.5C 218.305,66.6805 221.305,66.1805 224.5,66C 225.5,65 226.5,64 227.5,63C 226.289,62.1072 226.289,61.2739 227.5,60.5C 228.086,60.7093 228.586,61.0426 229,61.5C 229.456,60.2559 228.956,59.4226 227.5,59C 228.253,57.513 229.086,57.3463 230,58.5C 230.483,57.552 230.649,56.552 230.5,55.5C 232.884,57.8847 235.55,59.8847 238.5,61.5C 238.56,62.0431 238.893,62.3764 239.5,62.5C 240.499,52.5222 240.832,42.5222 240.5,32.5C 241.473,34.9479 241.806,37.6146 241.5,40.5C 242.5,40.5 243.5,40.5 244.5,40.5C 243.782,36.0965 244.949,32.4298 248,29.5C 250.72,30.311 253.22,30.311 255.5,29.5C 256.287,28.7579 256.953,27.9246 257.5,27C 256.655,25.4419 257.321,24.4419 259.5,24C 259.167,23.6667 258.833,23.3333 258.5,23C 259.253,21.513 260.086,21.3463 261,22.5C 261.333,21.1667 261.667,19.8333 262,18.5C 262.974,20.8776 263.641,20.5443 264,17.5C 264.333,17.8333 264.667,18.1667 265,18.5C 267.096,17.2845 266.929,16.4512 264.5,16C 266.384,15.7837 268.051,15.117 269.5,14C 268.833,13.6667 268.167,13.3333 267.5,13C 269.83,11.2014 271.83,9.03476 273.5,6.5C 272.975,5.80762 272.308,5.30762 271.5,5C 272.793,4.50999 274.127,4.34332 275.5,4.5C 275.351,3.44802 275.517,2.44802 276,1.5C 276.826,3.40542 277.993,3.73875 279.5,2.5C 279.154,1.30441 278.654,1.30441 278,2.5C 277.487,1.47344 276.987,0.473444 276.5,-0.5 Z"/></g>
<g><path style="opacity:1" fill="#0f0f28" d="M 331.5,-0.5 C 338.833,-0.5 346.167,-0.5 353.5,-0.5C 353.5,15.1667 353.5,30.8333 353.5,46.5C 352.521,47.7653 351.521,49.0986 350.5,50.5C 349.232,49.5721 347.899,49.4054 346.5,50C 348.513,50.8753 348.513,52.2087 346.5,54C 347.5,54.3333 348.5,54.6667 349.5,55C 345.631,56.0048 342.631,58.1715 340.5,61.5C 341.811,62.2575 342.311,63.2575 342,64.5C 341.586,64.0426 341.086,63.7093 340.5,63.5C 340.704,64.5294 340.204,65.5294 339,66.5C 338.043,64.2908 336.876,64.4575 335.5,67C 339.5,67.6667 339.5,68.3333 335.5,69C 334.478,71.1997 333.145,73.1997 331.5,75C 332.167,75.3333 332.833,75.6667 333.5,76C 331.345,76.116 329.345,75.7827 327.5,75C 328.167,76.3333 329.167,77.3333 330.5,78C 328.793,78.1953 327.126,78.1953 325.5,78C 326.815,79.3946 326.481,80.3946 324.5,81C 325.5,81.3333 326.5,81.6667 327.5,82C 326.167,82.6667 324.833,83.3333 323.5,84C 323.833,84.3333 324.167,84.6667 324.5,85C 321.244,86.587 319.077,89.087 318,92.5C 317.667,92.1667 317.333,91.8333 317,91.5C 315.833,92.6667 314.667,93.8333 313.5,95C 314.517,96.0495 314.684,97.2161 314,98.5C 310.801,97.7636 310.635,98.5969 313.5,101C 311.055,102.778 308.389,104.111 305.5,105C 309.185,105.914 308.852,106.581 304.5,107C 304.833,107.333 305.167,107.667 305.5,108C 303.404,109.766 301.071,111.099 298.5,112C 301.279,112.149 301.779,112.983 300,114.5C 296.89,113.327 296.723,113.827 299.5,116C 298.24,117.113 297.073,117.28 296,116.5C 294.542,120.275 292.209,122.608 289,123.5C 288.138,125.087 287.471,126.754 287,128.5C 285.636,127.742 284.469,128.242 283.5,130C 283.833,131.667 284.167,133.333 284.5,135C 283.874,135.75 283.374,136.584 283,137.5C 282.667,137.167 282.333,136.833 282,136.5C 281.641,139.544 280.974,139.878 280,137.5C 278.612,138.736 277.446,140.069 276.5,141.5C 257.5,141.5 238.5,141.5 219.5,141.5C 219.608,139.217 220.441,137.217 222,135.5C 223.164,135.165 224.497,135.165 226,135.5C 225.689,134.065 225.855,132.732 226.5,131.5C 227.274,130.289 228.107,130.289 229,131.5C 229.645,130.354 230.478,129.354 231.5,128.5C 230.833,128.167 230.167,127.833 229.5,127.5C 230.025,126.808 230.692,126.308 231.5,126C 231.167,125.667 230.833,125.333 230.5,125C 233.892,121.486 237.558,119.153 241.5,118C 240.446,116.612 240.28,115.112 241,113.5C 241.333,114.167 241.667,114.833 242,115.5C 241.754,112.618 242.754,109.951 245,107.5C 245.249,108.624 245.749,109.624 246.5,110.5C 248.83,108.425 249.997,105.758 250,102.5C 250.333,103.5 250.667,104.5 251,105.5C 252.766,103.404 254.099,101.071 255,98.5C 256.84,99.8331 257.34,99.6665 256.5,98C 258.632,97.082 259.299,95.7487 258.5,94C 259.833,93.3333 261.167,92.6667 262.5,92C 261.044,91.5774 260.544,90.7441 261,89.5C 261.333,89.8333 261.667,90.1667 262,90.5C 264.24,87.598 267.073,85.4313 270.5,84C 269.3,82.0483 269.8,80.5483 272,79.5C 272.617,78.5509 272.451,77.7175 271.5,77C 272.744,76.5439 273.577,77.0439 274,78.5C 275.241,77.1233 275.408,75.79 274.5,74.5C 272.419,75.0353 270.253,75.3686 268,75.5C 263.732,74.8599 259.565,74.1933 255.5,73.5C 263.019,73.825 270.352,73.4916 277.5,72.5C 279.241,70.6051 280.241,68.2718 280.5,65.5C 281.688,66.6843 282.855,66.6843 284,65.5C 284.774,69.147 285.441,72.8136 286,76.5C 286.383,77.056 286.883,77.3893 287.5,77.5C 288.317,79.4779 289.817,80.4779 292,80.5C 295.712,79.1342 299.212,77.3008 302.5,75C 305.72,73.6476 309.053,72.8143 312.5,72.5C 315.5,72.5 318.5,72.5 321.5,72.5C 321.768,70.901 321.434,69.5676 320.5,68.5C 310.029,67.3252 300.696,69.9918 292.5,76.5C 291.914,76.2907 291.414,75.9574 291,75.5C 290.502,72.1832 290.335,68.8499 290.5,65.5C 290.334,59.1579 290.5,52.8246 291,46.5C 293,47.8333 295,49.1667 297,50.5C 299.096,49.2845 298.929,48.4512 296.5,48C 298.384,47.7837 300.051,47.117 301.5,46C 300.833,45.6667 300.167,45.3333 299.5,45C 302.433,43.1615 303.599,40.6615 303,37.5C 304.356,36.6198 305.856,36.2865 307.5,36.5C 307.351,35.448 307.517,34.448 308,33.5C 308.333,33.8333 308.667,34.1667 309,34.5C 309.5,33.5 310,32.5 310.5,31.5C 309.189,30.7425 308.689,29.7425 309,28.5C 310.66,28.3241 312.326,28.9907 314,30.5C 315.914,29.324 315.748,28.324 313.5,27.5C 314.167,27.1667 314.833,26.8333 315.5,26.5C 314.975,25.8076 314.308,25.3076 313.5,25C 315.833,24.7955 317.833,23.4621 319.5,21C 317.999,19.7485 316.332,18.7485 314.5,18C 316.445,18.1282 318.278,17.9615 320,17.5C 320.36,15.5789 321.194,13.9122 322.5,12.5C 321.524,10.8767 322.024,9.54334 324,8.5C 326.075,11.0281 326.908,10.8614 326.5,8C 327.5,7.66667 328.5,7.33333 329.5,7C 326.778,3.38565 327.611,2.21898 332,3.5C 332.456,2.25591 331.956,1.42258 330.5,1C 331.056,0.617425 331.389,0.117425 331.5,-0.5 Z"/></g>
<g><path style="opacity:1" fill="#f1f2f2" d="M 186.5,68.5 C 186.5,69.8333 186.5,71.1667 186.5,72.5C 152.663,72.1684 118.996,72.5017 85.5,73.5C 83.8521,79.8146 79.8521,83.8146 73.5,85.5C 72.2086,89.0447 72.2086,92.5447 73.5,96C 75.7654,97.1178 78.0987,97.9512 80.5,98.5C 80.6495,99.552 80.4828,100.552 80,101.5C 77.381,102.729 74.881,102.396 72.5,100.5C 71.5108,104.107 71.1774,107.774 71.5,111.5C 70.596,112.209 70.2627,113.209 70.5,114.5C 69.1667,114.5 67.8333,114.5 66.5,114.5C 66.6633,112.143 66.4966,109.81 66,107.5C 63.5,110 61,112.5 58.5,115C 56.3927,115.854 55.0593,115.188 54.5,113C 58.0148,108.152 62.1815,103.985 67,100.5C 67.4992,95.8452 67.6658,91.1785 67.5,86.5C 60.7201,84.8896 55.8868,80.8896 53,74.5C 50.1667,78.6667 47.3333,82.8333 44.5,87C 39.4173,86.3113 34.4173,84.978 29.5,83C 30.0897,81.4905 30.7564,79.9905 31.5,78.5C 34.9399,80.5665 38.6066,81.3998 42.5,81C 45.876,77.7539 47.7093,73.9205 48,69.5C 46.1667,67.1667 44.3333,64.8333 42.5,62.5C 43.3467,61.1552 44.5134,60.1552 46,59.5C 47.8333,61.8333 49.6667,64.1667 51.5,66.5C 53.6994,63.2825 56.0328,60.1158 58.5,57C 60.4068,55.878 62.4068,55.0447 64.5,54.5C 65.4972,54.5299 66.1639,54.0299 66.5,53C 65.9646,50.0044 65.2979,47.1711 64.5,44.5C 61.2331,42.1889 57.8998,39.8556 54.5,37.5C 53.6411,35.4609 54.4744,34.1275 57,33.5C 60.0658,35.6187 63.2324,37.6187 66.5,39.5C 71.4721,34.1929 76.4721,28.8595 81.5,23.5C 83.0459,24.2116 84.0459,25.3783 84.5,27C 80.0559,32.447 75.2226,37.6136 70,42.5C 69.7776,46.1817 70.111,49.8484 71,53.5C 79.0649,55.2315 84.2316,60.0648 86.5,68C 119.832,68.5 153.165,68.6667 186.5,68.5 Z"/></g>
<g><path style="opacity:1" fill="#ececee" d="M 290.5,65.5 C 290.335,68.8499 290.502,72.1832 291,75.5C 291.414,75.9574 291.914,76.2907 292.5,76.5C 300.696,69.9918 310.029,67.3252 320.5,68.5C 320.5,69.5 320.5,70.5 320.5,71.5C 317.615,71.1936 314.948,71.5269 312.5,72.5C 309.053,72.8143 305.72,73.6476 302.5,75C 299.212,77.3008 295.712,79.1342 292,80.5C 289.817,80.4779 288.317,79.4779 287.5,77.5C 286.063,70.2571 285.396,62.9238 285.5,55.5C 285.884,48.4112 285.384,41.4112 284,34.5C 283.51,35.7932 283.343,37.1266 283.5,38.5C 281.841,47.4069 280.841,56.4069 280.5,65.5C 280.241,68.2718 279.241,70.6051 277.5,72.5C 254.5,72.5 231.5,72.5 208.5,72.5C 208.5,71.5 208.5,70.5 208.5,69.5C 231.006,69.8308 253.34,69.4974 275.5,68.5C 275.5,67.5 275.5,66.5 275.5,65.5C 277.23,53.8857 278.73,42.2191 280,30.5C 280.848,28.1257 282.181,26.1257 284,24.5C 285.261,24.7591 286.261,25.4258 287,26.5C 287.988,29.4245 288.654,32.4245 289,35.5C 289.17,45.6751 289.67,55.6751 290.5,65.5 Z"/></g>
<g><path style="opacity:1" fill="#f7f7f7" d="M 95.5,32.5 C 100.833,37.5 106.167,42.5 111.5,47.5C 111.783,48.2891 112.283,48.9558 113,49.5C 113.499,43.8431 113.666,38.1764 113.5,32.5C 115.167,32.5 116.833,32.5 118.5,32.5C 118.827,42.3478 118.494,52.0144 117.5,61.5C 111.537,56.8719 105.87,51.8719 100.5,46.5C 99.5,51.0679 99.1666,56.4012 99.5,62.5C 97.8333,62.5 96.1667,62.5 94.5,62.5C 94.1726,52.3194 94.506,42.3194 95.5,32.5 Z"/></g>
<g><path style="opacity:1" fill="#2f3236" d="M 119.5,32.5 C 120.494,42.6532 120.828,52.9865 120.5,63.5C 119.209,63.7373 118.209,63.404 117.5,62.5C 119.474,52.8893 120.141,42.8893 119.5,32.5 Z"/></g>
<g><path style="opacity:1" fill="#8e8e94" d="M 216.5,32.5 C 215.506,42.3194 215.173,52.3194 215.5,62.5C 217.167,62.5 218.833,62.5 220.5,62.5C 218.735,63.4614 216.735,63.7947 214.5,63.5C 214.168,52.8126 214.501,42.1459 215.5,31.5C 216.107,31.6236 216.44,31.9569 216.5,32.5 Z"/></g>
<g><path style="opacity:1" fill="#76787b" d="M 95.5,32.5 C 94.506,42.3194 94.1726,52.3194 94.5,62.5C 93.1768,52.3258 93.1768,41.9925 94.5,31.5C 95.1067,31.6236 95.44,31.9569 95.5,32.5 Z"/></g>
<g><path style="opacity:1" fill="#c8c9ca" d="M 118.5,32.5 C 118.833,32.5 119.167,32.5 119.5,32.5C 120.141,42.8893 119.474,52.8893 117.5,62.5C 117.5,62.1667 117.5,61.8333 117.5,61.5C 118.494,52.0144 118.827,42.3478 118.5,32.5 Z"/></g>
<g><path style="opacity:1" fill="#eeeeef" d="M 187.5,39.5 C 187.756,43.2693 187.423,46.9359 186.5,50.5C 182.924,54.8849 178.257,56.5516 172.5,55.5C 172.5,57.8333 172.5,60.1667 172.5,62.5C 170.167,62.5 167.833,62.5 165.5,62.5C 165.5,52.5 165.5,42.5 165.5,32.5C 170.511,32.3341 175.511,32.5007 180.5,33C 183.987,33.9887 186.32,36.1554 187.5,39.5 Z"/></g>
<g><path style="opacity:1" fill="#f1f1f2" d="M 216.5,32.5 C 221.833,37.5 227.167,42.5 232.5,47.5C 232.783,48.2891 233.283,48.9558 234,49.5C 234.499,43.8431 234.666,38.1764 234.5,32.5C 236.167,32.5 237.833,32.5 239.5,32.5C 239.827,42.3478 239.494,52.0144 238.5,61.5C 235.55,59.8847 232.884,57.8847 230.5,55.5C 227.871,52.3694 225.038,49.3694 222,46.5C 221.827,52.0158 221.327,57.3491 220.5,62.5C 218.833,62.5 217.167,62.5 215.5,62.5C 215.173,52.3194 215.506,42.3194 216.5,32.5 Z"/></g>
<g><path style="opacity:1" fill="#c9c9cd" d="M 239.5,32.5 C 239.833,32.5 240.167,32.5 240.5,32.5C 240.832,42.5222 240.499,52.5222 239.5,62.5C 238.893,62.3764 238.56,62.0431 238.5,61.5C 239.494,52.0144 239.827,42.3478 239.5,32.5 Z"/></g>
<g><path style="opacity:1" fill="#f8f8f9" d="M 266.5,37.5 C 261.833,37.5 257.167,37.5 252.5,37.5C 252.5,40.8333 252.5,44.1667 252.5,47.5C 256.5,47.5 260.5,47.5 264.5,47.5C 264.5,49.1667 264.5,50.8333 264.5,52.5C 260.5,52.5 256.5,52.5 252.5,52.5C 252.5,54.1667 252.5,55.8333 252.5,57.5C 257.5,57.5 262.5,57.5 267.5,57.5C 267.5,59.1667 267.5,60.8333 267.5,62.5C 260.5,62.5 253.5,62.5 246.5,62.5C 246.5,52.5 246.5,42.5 246.5,32.5C 253.167,32.5 259.833,32.5 266.5,32.5C 266.5,34.1667 266.5,35.8333 266.5,37.5 Z"/></g>
<g><path style="opacity:1" fill="#a2a3a5" d="M 156.5,43.5 C 155.523,40.7131 155.19,37.7131 155.5,34.5C 153.833,34.5 152.167,34.5 150.5,34.5C 150.81,37.7131 150.477,40.7131 149.5,43.5C 149.5,40.1667 149.5,36.8333 149.5,33.5C 151.833,33.5 154.167,33.5 156.5,33.5C 156.5,36.8333 156.5,40.1667 156.5,43.5 Z"/></g>
<g><path style="opacity:1" fill="#eaebeb" d="M 156.5,43.5 C 157.833,43.5 159.167,43.5 160.5,43.5C 160.5,45.1667 160.5,46.8333 160.5,48.5C 159.167,48.5 157.833,48.5 156.5,48.5C 156.5,51.5 156.5,54.5 156.5,57.5C 159.233,57.1961 160.899,58.3628 161.5,61C 157.255,64.6013 153.422,64.1013 150,59.5C 149.501,55.8484 149.335,52.1817 149.5,48.5C 148.5,48.5 147.5,48.5 146.5,48.5C 146.5,46.8333 146.5,45.1667 146.5,43.5C 147.5,43.5 148.5,43.5 149.5,43.5C 150.477,40.7131 150.81,37.7131 150.5,34.5C 152.167,34.5 153.833,34.5 155.5,34.5C 155.19,37.7131 155.523,40.7131 156.5,43.5 Z"/></g>
<g><path style="opacity:1" fill="#2f3138" d="M 180.5,40.5 C 178.236,39.7814 175.903,39.448 173.5,39.5C 173.5,42.8333 173.5,46.1667 173.5,49.5C 174.833,49.5 176.167,49.5 177.5,49.5C 176.081,50.4511 174.415,50.7845 172.5,50.5C 172.5,46.1667 172.5,41.8333 172.5,37.5C 175.831,37.0181 178.497,38.0181 180.5,40.5 Z"/></g>
<g><path style="opacity:1" fill="#12141b" d="M 180.5,40.5 C 181.622,42.2884 181.789,44.2884 181,46.5C 180.578,48.4257 179.411,49.4257 177.5,49.5C 176.167,49.5 174.833,49.5 173.5,49.5C 173.5,46.1667 173.5,42.8333 173.5,39.5C 175.903,39.448 178.236,39.7814 180.5,40.5 Z"/></g>
<g><path style="opacity:1" fill="#62636d" d="M 234.5,32.5 C 234.666,38.1764 234.499,43.8431 234,49.5C 233.283,48.9558 232.783,48.2891 232.5,47.5C 233.167,42.5 233.833,37.5 234.5,32.5 Z"/></g>
<g><path style="opacity:1" fill="#50515d" d="M 266.5,37.5 C 262.366,38.4849 258.032,38.8182 253.5,38.5C 253.5,41.1667 253.5,43.8333 253.5,46.5C 257.371,46.185 261.038,46.5184 264.5,47.5C 260.5,47.5 256.5,47.5 252.5,47.5C 252.5,44.1667 252.5,40.8333 252.5,37.5C 257.167,37.5 261.833,37.5 266.5,37.5 Z"/></g>
<g><path style="opacity:1" fill="#e8e9e9" d="M 129.5,43.5 C 139.351,41.6984 144.351,45.6984 144.5,55.5C 139.821,55.3342 135.155,55.5008 130.5,56C 133.353,57.8082 136.353,57.9749 139.5,56.5C 143.703,59.2285 143.37,61.3952 138.5,63C 129.997,64.8207 124.997,61.4873 123.5,53C 123.71,48.6377 125.71,45.471 129.5,43.5 Z"/></g>
<g><path style="opacity:1" fill="#ededee" d="M 190.5,43.5 C 192.924,43.1924 195.257,43.5258 197.5,44.5C 198.765,47.7957 199.932,51.129 201,54.5C 202.732,51.0308 203.898,47.3641 204.5,43.5C 206.924,43.1924 209.257,43.5258 211.5,44.5C 206.915,53.5892 202.915,62.9225 199.5,72.5C 197.076,72.8076 194.743,72.4742 192.5,71.5C 194.287,68.0915 195.954,64.5915 197.5,61C 195.062,55.1826 192.729,49.3493 190.5,43.5 Z"/></g>
<g><path style="opacity:1" fill="#45484c" d="M 113.5,32.5 C 113.666,38.1764 113.499,43.8431 113,49.5C 112.283,48.9558 111.783,48.2891 111.5,47.5C 112.167,42.5 112.833,37.5 113.5,32.5 Z"/></g>
<g><path style="opacity:1" fill="#87888b" d="M 100.5,46.5 C 100.5,52.1667 100.5,57.8333 100.5,63.5C 98.2646,63.7947 96.2646,63.4614 94.5,62.5C 96.1667,62.5 97.8333,62.5 99.5,62.5C 99.1666,56.4012 99.5,51.0679 100.5,46.5 Z"/></g>
<g><path style="opacity:1" fill="#53555b" d="M 187.5,39.5 C 187.833,39.5 188.167,39.5 188.5,39.5C 189.08,43.649 188.414,47.3157 186.5,50.5C 187.423,46.9359 187.756,43.2693 187.5,39.5 Z"/></g>
<g><path style="opacity:1" fill="#0f0e2d" d="M 353.5,46.5 C 353.5,67.8333 353.5,89.1667 353.5,110.5C 352.696,112.189 351.696,113.855 350.5,115.5C 351.383,117.743 350.549,119.41 348,120.5C 347.667,120.167 347.333,119.833 347,119.5C 346.057,122.109 344.39,124.109 342,125.5C 341.667,125.167 341.333,124.833 341,124.5C 341.333,125.833 341.667,127.167 342,128.5C 339.21,127.218 337.043,128.052 335.5,131C 336.738,130.923 337.738,131.089 338.5,131.5C 337.624,132.251 336.624,132.751 335.5,133C 333.737,136.394 331.404,139.227 328.5,141.5C 311.167,141.5 293.833,141.5 276.5,141.5C 277.446,140.069 278.612,138.736 280,137.5C 280.974,139.878 281.641,139.544 282,136.5C 282.333,136.833 282.667,137.167 283,137.5C 283.374,136.584 283.874,135.75 284.5,135C 284.167,133.333 283.833,131.667 283.5,130C 284.469,128.242 285.636,127.742 287,128.5C 287.471,126.754 288.138,125.087 289,123.5C 292.209,122.608 294.542,120.275 296,116.5C 297.073,117.28 298.24,117.113 299.5,116C 296.723,113.827 296.89,113.327 300,114.5C 301.779,112.983 301.279,112.149 298.5,112C 301.071,111.099 303.404,109.766 305.5,108C 305.167,107.667 304.833,107.333 304.5,107C 308.852,106.581 309.185,105.914 305.5,105C 308.389,104.111 311.055,102.778 313.5,101C 310.635,98.5969 310.801,97.7636 314,98.5C 314.684,97.2161 314.517,96.0495 313.5,95C 314.667,93.8333 315.833,92.6667 317,91.5C 317.333,91.8333 317.667,92.1667 318,92.5C 319.077,89.087 321.244,86.587 324.5,85C 324.167,84.6667 323.833,84.3333 323.5,84C 324.833,83.3333 326.167,82.6667 327.5,82C 326.5,81.6667 325.5,81.3333 324.5,81C 326.481,80.3946 326.815,79.3946 325.5,78C 327.126,78.1953 328.793,78.1953 330.5,78C 329.167,77.3333 328.167,76.3333 327.5,75C 329.345,75.7827 331.345,76.116 333.5,76C 332.833,75.6667 332.167,75.3333 331.5,75C 333.145,73.1997 334.478,71.1997 335.5,69C 339.5,68.3333 339.5,67.6667 335.5,67C 336.876,64.4575 338.043,64.2908 339,66.5C 340.204,65.5294 340.704,64.5294 340.5,63.5C 341.086,63.7093 341.586,64.0426 342,64.5C 342.311,63.2575 341.811,62.2575 340.5,61.5C 342.631,58.1715 345.631,56.0048 349.5,55C 348.5,54.6667 347.5,54.3333 346.5,54C 348.513,52.2087 348.513,50.8753 346.5,50C 347.899,49.4054 349.232,49.5721 350.5,50.5C 351.521,49.0986 352.521,47.7653 353.5,46.5 Z"/></g>
<g><path style="opacity:1" fill="#1e2126" d="M 131.5,48.5 C 133.977,48.0508 135.977,48.7175 137.5,50.5C 135.167,51.8333 132.833,51.8333 130.5,50.5C 130.863,49.8165 131.196,49.1499 131.5,48.5 Z"/></g>
<g><path style="opacity:1" fill="#6e6e7b" d="M 285.5,55.5 C 284.833,49.8333 284.167,44.1667 283.5,38.5C 283.343,37.1266 283.51,35.7932 284,34.5C 285.384,41.4112 285.884,48.4112 285.5,55.5 Z"/></g>
<g><path style="opacity:1" fill="#535558" d="M 64.5,44.5 C 65.2979,47.1711 65.9646,50.0044 66.5,53C 66.1639,54.0299 65.4972,54.5299 64.5,54.5C 64.5,51.1667 64.5,47.8333 64.5,44.5 Z"/></g>
<g><path style="opacity:1" fill="#71727c" d="M 264.5,47.5 C 265.461,49.2646 265.795,51.2646 265.5,53.5C 261.5,53.5 257.5,53.5 253.5,53.5C 253.5,54.5 253.5,55.5 253.5,56.5C 258.363,56.1805 263.03,56.5139 267.5,57.5C 262.5,57.5 257.5,57.5 252.5,57.5C 252.5,55.8333 252.5,54.1667 252.5,52.5C 256.5,52.5 260.5,52.5 264.5,52.5C 264.5,50.8333 264.5,49.1667 264.5,47.5 Z"/></g>
<g><path style="opacity:1" fill="#16181c" d="M 65.5,59.5 C 78.1435,59.2802 82.3102,64.9469 78,76.5C 70.0482,82.7983 63.7148,81.4649 59,72.5C 57.973,66.554 60.1396,62.2207 65.5,59.5 Z"/></g>
<g><path style="opacity:1" fill="#1f1f34" d="M 283.5,38.5 C 284.167,44.1667 284.833,49.8333 285.5,55.5C 285.396,62.9238 286.063,70.2571 287.5,77.5C 286.883,77.3893 286.383,77.056 286,76.5C 285.441,72.8136 284.774,69.147 284,65.5C 282.855,66.6843 281.688,66.6843 280.5,65.5C 280.841,56.4069 281.841,47.4069 283.5,38.5 Z"/></g>
<g><path style="opacity:1" fill="#232434" d="M 275.5,65.5 C 275.5,66.5 275.5,67.5 275.5,68.5C 253.167,68.5 230.833,68.5 208.5,68.5C 210.607,67.5318 212.941,67.1984 215.5,67.5C 235.733,68.1361 255.733,67.4694 275.5,65.5 Z"/></g>
<g><path style="opacity:1" fill="#a1a1a8" d="M 208.5,68.5 C 230.833,68.5 253.167,68.5 275.5,68.5C 253.34,69.4974 231.006,69.8308 208.5,69.5C 208.5,70.5 208.5,71.5 208.5,72.5C 207.167,71.1667 207.167,69.8333 208.5,68.5 Z"/></g>
<g><path style="opacity:1" fill="#9493a0" d="M 320.5,68.5 C 321.434,69.5676 321.768,70.901 321.5,72.5C 318.5,72.5 315.5,72.5 312.5,72.5C 314.948,71.5269 317.615,71.1936 320.5,71.5C 320.5,70.5 320.5,69.5 320.5,68.5 Z"/></g>
<g><path style="opacity:1" fill="#949598" d="M 186.5,68.5 C 187.451,69.9187 187.784,71.5853 187.5,73.5C 175.5,73.5 163.5,73.5 151.5,73.5C 129.5,73.5 107.5,73.5 85.5,73.5C 118.996,72.5017 152.663,72.1684 186.5,72.5C 186.5,71.1667 186.5,69.8333 186.5,68.5 Z"/></g>
<g><path style="opacity:1" fill="#0e0f22" d="M 255.5,73.5 C 259.565,74.1933 263.732,74.8599 268,75.5C 270.253,75.3686 272.419,75.0353 274.5,74.5C 275.408,75.79 275.241,77.1233 274,78.5C 273.577,77.0439 272.744,76.5439 271.5,77C 272.451,77.7175 272.617,78.5509 272,79.5C 269.8,80.5483 269.3,82.0483 270.5,84C 267.073,85.4313 264.24,87.598 262,90.5C 261.667,90.1667 261.333,89.8333 261,89.5C 260.544,90.7441 261.044,91.5774 262.5,92C 261.167,92.6667 259.833,93.3333 258.5,94C 259.299,95.7487 258.632,97.082 256.5,98C 257.34,99.6665 256.84,99.8331 255,98.5C 254.099,101.071 252.766,103.404 251,105.5C 250.667,104.5 250.333,103.5 250,102.5C 249.997,105.758 248.83,108.425 246.5,110.5C 245.749,109.624 245.249,108.624 245,107.5C 242.754,109.951 241.754,112.618 242,115.5C 241.667,114.833 241.333,114.167 241,113.5C 240.28,115.112 240.446,116.612 241.5,118C 237.558,119.153 233.892,121.486 230.5,125C 230.833,125.333 231.167,125.667 231.5,126C 230.692,126.308 230.025,126.808 229.5,127.5C 230.167,127.833 230.833,128.167 231.5,128.5C 230.478,129.354 229.645,130.354 229,131.5C 228.107,130.289 227.274,130.289 226.5,131.5C 225.855,132.732 225.689,134.065 226,135.5C 224.497,135.165 223.164,135.165 222,135.5C 220.441,137.217 219.608,139.217 219.5,141.5C 200.5,141.5 181.5,141.5 162.5,141.5C 162.369,140.624 162.702,139.957 163.5,139.5C 164.451,140.326 165.451,140.492 166.5,140C 166.5,138.667 166.5,137.333 166.5,136C 167.5,135.667 168.5,135.333 169.5,135C 169.167,134.667 168.833,134.333 168.5,134C 169.784,133.316 170.951,133.483 172,134.5C 171.475,131.077 172.975,128.577 176.5,127C 175.833,126.667 175.167,126.333 174.5,126C 176.167,125.667 177.833,125.333 179.5,125C 178.833,124.667 178.167,124.333 177.5,124C 178.667,123.5 179.5,122.667 180,121.5C 180.333,121.833 180.667,122.167 181,122.5C 182.758,121.531 183.258,120.364 182.5,119C 184.693,117.936 186.693,116.602 188.5,115C 187.833,114.667 187.167,114.333 186.5,114C 188.313,114.046 189.979,113.88 191.5,113.5C 191.901,111.566 192.901,110.066 194.5,109C 193.833,108.667 193.167,108.333 192.5,108C 194.947,106.771 195.113,105.271 193,103.5C 190.572,105.477 188.572,107.81 187,110.5C 186.735,108.837 187.235,107.337 188.5,106C 187.448,104.284 188.114,103.284 190.5,103C 189.366,101.984 189.699,101.317 191.5,101C 190.327,97.8897 190.827,97.723 193,100.5C 195.096,99.2845 194.929,98.4512 192.5,98C 195.29,97.4391 197.623,96.1058 199.5,94C 198.833,93.6667 198.167,93.3333 197.5,93C 198.253,91.513 199.086,91.3463 200,92.5C 200.309,90.193 201.142,88.0263 202.5,86C 203.76,84.887 204.927,84.7203 206,85.5C 206.667,82.8333 207.333,82.8333 208,85.5C 208.743,83.5594 208.576,81.7261 207.5,80C 208.449,79.3828 209.282,79.5494 210,80.5C 213.321,77.6094 212.821,75.4427 208.5,74C 224.163,73.5001 239.83,73.3334 255.5,73.5 Z"/></g>
<g><path style="opacity:1" fill="#8b8c8f" d="M 71.5,111.5 C 71.5,112.833 71.5,114.167 71.5,115.5C 69.5853,115.784 67.9187,115.451 66.5,114.5C 67.8333,114.5 69.1667,114.5 70.5,114.5C 70.2627,113.209 70.596,112.209 71.5,111.5 Z"/></g>
<g><path style="opacity:1" fill="#0f0d32" d="M 353.5,110.5 C 353.5,120.833 353.5,131.167 353.5,141.5C 345.167,141.5 336.833,141.5 328.5,141.5C 331.404,139.227 333.737,136.394 335.5,133C 336.624,132.751 337.624,132.251 338.5,131.5C 337.738,131.089 336.738,130.923 335.5,131C 337.043,128.052 339.21,127.218 342,128.5C 341.667,127.167 341.333,125.833 341,124.5C 341.333,124.833 341.667,125.167 342,125.5C 344.39,124.109 346.057,122.109 347,119.5C 347.333,119.833 347.667,120.167 348,120.5C 350.549,119.41 351.383,117.743 350.5,115.5C 351.696,113.855 352.696,112.189 353.5,110.5 Z"/></g>
</svg>
