<svg xmlns="http://www.w3.org/2000/svg" width="354" height="142" style="shape-rendering:geometricPrecision;text-rendering:geometricPrecision;image-rendering:optimizeQuality;fill-rule:evenodd;clip-rule:evenodd"><path style="opacity:1" fill="#0f1217" d="M-.5-.5h221c-.086.996.248 1.83 1 2.5a54.21 54.21 0 0 1-12 7c1.884.216 3.551.883 5 2-.949.617-1.782.45-2.5-.5l-2 4c-.423-1.456-1.256-1.956-2.5-1.5 1.291 2.09.624 3.424-2 4 .78 1.073.613 2.24-.5 3.5-1.008.482-2.175.648-3.5.5.758 1.364.258 2.53-1.5 3.5l-1-1-1 3c-.914-1.154-1.747-.987-2.5.5 1.456.423 1.956 1.256 1.5 2.5a3.646 3.646 0 0 0-1.5-1l-2.5 3c-.556-2.095-1.056-2.262-1.5-.5.405.945 1.072 1.612 2 2-2.284 1.653-3.95 3.82-5 6.5h-1c-1.18-3.345-3.513-5.511-7-6.5-4.989-.5-9.989-.666-15-.5v30h7c-6.077 1.957-12.41 3.457-19 4.5 11.174.17 22.174.67 33 1.5-33.335.167-66.668 0-100-.5-2.268-7.935-7.435-12.769-15.5-14.5a36.858 36.858 0 0 1-1-11A157.997 157.997 0 0 0 84.5 27c-.454-1.622-1.454-2.788-3-3.5-5.028 5.36-10.028 10.693-15 16a136.479 136.479 0 0 1-9.5-6c-2.526.627-3.359 1.96-2.5 4 3.4 2.356 6.733 4.689 10 7v10a23.407 23.407 0 0 0-6 2.5 168.271 168.271 0 0 0-7 9.5l-5.5-7c-1.487.655-2.653 1.655-3.5 3l5.5 7c-.29 4.42-2.124 8.254-5.5 11.5-3.893.4-7.56-.433-11-2.5a54.513 54.513 0 0 0-2 4.5c4.917 1.978 9.917 3.311 15 4L53 74.5c2.887 6.39 7.72 10.39 14.5 12 .166 4.678 0 9.345-.5 14A55.595 55.595 0 0 0 54.5 113c.56 2.188 1.893 2.854 4 2l7.5-7.5c.497 2.31.663 4.643.5 7 1.419.951 3.085 1.284 5 1v-4a31.12 31.12 0 0 1 1-11c2.381 1.896 4.881 2.229 7.5 1 .483-.948.65-1.948.5-3a31.775 31.775 0 0 1-7-2.5c-1.291-3.455-1.291-6.955 0-10.5 6.352-1.685 10.352-5.685 12-12h66c-.73 1.545-2.063 2.378-4 2.5 2.78 2.11 2.613 3.942-.5 5.5l-2-2a18.452 18.452 0 0 0-.5 6c-2.672-1.55-5.005-1.05-7 1.5l2 2c-1.885 2.164-3.885 3.497-6 4l2 1c-1.877 2.106-4.21 3.44-7 4 1.173 3.11.673 3.277-1.5.5-2.28 4.358-4.614 8.025-7 11a14.506 14.506 0 0 0-5 4l-2-2a18.453 18.453 0 0 0-.5 6c-2.195-1.108-4.195-.941-6 .5-1.196.654-1.196 1.154 0 1.5 1.268-.928 2.601-1.095 4-.5-3.555 2.017-6.555 4.017-9 6l2 1c-1.877 2.106-4.21 3.439-7 4 .84 1.666.34 1.833-1.5.5-.56 2.79-1.894 5.123-4 7l-1-1a42.584 42.584 0 0 0-1.5 5h-89V-.5z"/><path style="opacity:1" fill="#0f111d" d="M220.5-.5h56l1.5 3c.654-1.196 1.154-1.196 1.5 0-1.507 1.239-2.674.905-3.5-1a4.934 4.934 0 0 0-.5 3 8.435 8.435 0 0 0-4 .5 4.452 4.452 0 0 1 2 1.5c-1.67 2.535-3.67 4.701-6 6.5l2 1c-1.449 1.117-3.116 1.784-5 2 2.429.451 2.596 1.285.5 2.5l-1-1c-.359 3.044-1.026 3.378-2 1l-1 4c-.914-1.154-1.747-.987-2.5.5l1 1c-2.179.442-2.845 1.442-2 3a11.392 11.392 0 0 1-2 2.5c-2.28.811-4.78.811-7.5 0-3.051 2.93-4.218 6.596-3.5 11h-3c.306-2.885-.027-5.552-1-8h-6l-2 15-16-15c-.06-.543-.393-.876-1-1a256.824 256.824 0 0 0-1 32c2.235.295 4.235-.039 6-1 .827-5.15 1.327-10.484 1.5-16 3.038 2.87 5.871 5.87 8.5 9a4.934 4.934 0 0 1-.5 3c-.914-1.154-1.747-.987-2.5.5 1.456.423 1.956 1.256 1.5 2.5a3.646 3.646 0 0 0-1.5-1c-1.211.774-1.211 1.607 0 2.5l-3 3c-3.195.18-6.195.68-9 1.5-2.559-.302-4.893.032-7 1-1.333 1.333-1.333 2.667 0 4h69c-7.148.992-14.481 1.325-22 1-15.67-.167-31.337 0-47 .5 4.321 1.443 4.821 3.61 1.5 6.5-.718-.95-1.551-1.117-2.5-.5 1.076 1.726 1.243 3.56.5 5.5-.667-2.667-1.333-2.667-2 0-1.073-.78-2.24-.613-3.5.5-1.358 2.026-2.191 4.193-2.5 6.5-.914-1.154-1.747-.987-2.5.5l2 1c-1.877 2.106-4.21 3.44-7 4 2.429.451 2.596 1.284.5 2.5-2.173-2.777-2.673-2.61-1.5.5-1.801.317-2.134.984-1 2-2.386.284-3.052 1.284-2 3-1.265 1.337-1.765 2.837-1.5 4.5a25.644 25.644 0 0 1 6-7c2.113 1.771 1.947 3.271-.5 4.5l2 1c-1.599 1.066-2.599 2.566-3 4.5-1.521.38-3.187.546-5 .5l2 1a26.317 26.317 0 0 1-6 4c.758 1.364.258 2.531-1.5 3.5l-1-1c-.5 1.167-1.333 2-2.5 2.5l2 1-5 1 2 1c-3.525 1.577-5.025 4.077-4.5 7.5-1.049-1.017-2.216-1.184-3.5-.5l1 1-3 1v4c-1.049.492-2.049.326-3-.5-.798.457-1.131 1.124-1 2h-74a42.584 42.584 0 0 1 1.5-5l1 1c2.106-1.877 3.44-4.21 4-7 1.84 1.333 2.34 1.166 1.5-.5 2.79-.561 5.123-1.894 7-4l-2-1c2.445-1.983 5.445-3.983 9-6-1.399-.595-2.732-.428-4 .5-1.196-.346-1.196-.846 0-1.5 1.805-1.441 3.805-1.608 6-.5a18.453 18.453 0 0 1 .5-6l2 2a14.506 14.506 0 0 1 5-4c2.386-2.975 4.72-6.642 7-11 2.173 2.777 2.673 2.61 1.5-.5 2.79-.56 5.123-1.894 7-4l-2-1c2.115-.503 4.115-1.836 6-4l-2-2c1.995-2.55 4.328-3.05 7-1.5a18.452 18.452 0 0 1 .5-6l2 2c3.113-1.558 3.28-3.39.5-5.5 1.937-.122 3.27-.955 4-2.5h36c.284-1.915-.049-3.581-1-5a538.095 538.095 0 0 0-33-1.5c6.59-1.043 12.923-2.543 19-4.5v-7c5.757 1.052 10.424-.615 14-5 1.914-3.184 2.58-6.851 2-11 1.05-2.68 2.716-4.847 5-6.5-.928-.388-1.595-1.055-2-2 .444-1.762.944-1.595 1.5.5l2.5-3c.586.21 1.086.543 1.5 1 .456-1.244-.044-2.077-1.5-2.5.753-1.487 1.586-1.654 2.5-.5l1-3 1 1c1.758-.97 2.258-2.136 1.5-3.5 1.325.148 2.492-.018 3.5-.5 1.113-1.26 1.28-2.427.5-3.5 2.624-.576 3.291-1.91 2-4 1.244-.456 2.077.044 2.5 1.5l2-4c.718.95 1.551 1.117 2.5.5-1.449-1.117-3.116-1.784-5-2a54.21 54.21 0 0 0 12-7c-.752-.67-1.086-1.504-1-2.5z"/><path style="opacity:1" fill="#111224" d="M276.5-.5h55c-.111.617-.444 1.117-1 1.5 1.456.423 1.956 1.256 1.5 2.5-4.389-1.281-5.222-.114-2.5 3.5l-3 1c.408 2.861-.425 3.028-2.5.5-1.976 1.043-2.476 2.377-1.5 4-1.306 1.412-2.14 3.079-2.5 5-1.722.462-3.555.628-5.5.5a18.95 18.95 0 0 1 5 3c-1.667 2.462-3.667 3.796-6 4a4.451 4.451 0 0 1 2 1.5l-2 1c2.248.824 2.414 1.824.5 3-1.674-1.51-3.34-2.176-5-2-.311 1.242.189 2.242 1.5 3l-1.5 3-1-1a4.934 4.934 0 0 0-.5 3c-1.644-.214-3.144.12-4.5 1 .599 3.161-.567 5.661-3.5 7.5l2 1c-1.449 1.117-3.116 1.784-5 2 2.429.451 2.596 1.285.5 2.5l-6-4c-.5 6.325-.666 12.658-.5 19a444.559 444.559 0 0 1-1.5-30 43.088 43.088 0 0 0-2-9c-.739-1.074-1.739-1.74-3-2-1.819 1.626-3.152 3.626-4 6a883.98 883.98 0 0 1-4.5 35c-19.767 1.97-39.767 2.636-60 2 2.805-.82 5.805-1.32 9-1.5l3-3c-1.211-.893-1.211-1.726 0-2.5.586.21 1.086.543 1.5 1 .456-1.244-.044-2.077-1.5-2.5.753-1.487 1.586-1.654 2.5-.5a4.934 4.934 0 0 0 .5-3 35.079 35.079 0 0 0 8 6c.06.543.393.876 1 1a225.77 225.77 0 0 0 1-30c.973 2.448 1.306 5.115 1 8h3c-.718-4.404.449-8.07 3.5-11 2.72.811 5.22.811 7.5 0a11.392 11.392 0 0 0 2-2.5c-.845-1.558-.179-2.558 2-3l-1-1c.753-1.487 1.586-1.654 2.5-.5l1-4c.974 2.378 1.641 2.044 2-1l1 1c2.096-1.215 1.929-2.049-.5-2.5 1.884-.216 3.551-.883 5-2l-2-1c2.33-1.799 4.33-3.965 6-6.5a4.452 4.452 0 0 0-2-1.5 8.435 8.435 0 0 1 4-.5 4.934 4.934 0 0 1 .5-3c.826 1.905 1.993 2.239 3.5 1-.346-1.196-.846-1.196-1.5 0l-1.5-3z"/><path style="opacity:1" fill="#0f0f28" d="M331.5-.5h22v47a173.333 173.333 0 0 0-3 4c-1.268-.928-2.601-1.095-4-.5 2.013.875 2.013 2.209 0 4l3 1c-3.869 1.005-6.869 3.172-9 6.5 1.311.758 1.811 1.758 1.5 3a3.646 3.646 0 0 0-1.5-1c.204 1.03-.296 2.03-1.5 3-.957-2.21-2.124-2.043-3.5.5 4 .667 4 1.333 0 2a23.565 23.565 0 0 1-4 6l2 1c-2.155.116-4.155-.217-6-1a6.544 6.544 0 0 0 3 3 21.405 21.405 0 0 1-5 0c1.315 1.395.981 2.395-1 3l3 1-4 2 1 1c-3.256 1.587-5.423 4.087-6.5 7.5l-1-1-3.5 3.5c1.017 1.05 1.184 2.216.5 3.5-3.199-.736-3.365.097-.5 2.5a27.022 27.022 0 0 1-8 4c3.685.914 3.352 1.581-1 2l1 1a22.144 22.144 0 0 1-7 4c2.779.149 3.279.983 1.5 2.5-3.11-1.173-3.277-.673-.5 1.5-1.26 1.113-2.427 1.28-3.5.5-1.458 3.775-3.791 6.108-7 7a22.981 22.981 0 0 0-2 5c-1.364-.758-2.531-.258-3.5 1.5l1 5a9.454 9.454 0 0 0-1.5 2.5l-1-1c-.359 3.044-1.026 3.378-2 1-1.388 1.236-2.554 2.569-3.5 4h-57c.108-2.283.941-4.283 2.5-6 1.164-.335 2.497-.335 4 0-.311-1.435-.145-2.768.5-4 .774-1.211 1.607-1.211 2.5 0a10.756 10.756 0 0 1 2.5-3l-2-1a4.457 4.457 0 0 1 2-1.5l-1-1c3.392-3.514 7.058-5.847 11-7-1.054-1.388-1.22-2.888-.5-4.5l1 2c-.246-2.882.754-5.549 3-8a6.802 6.802 0 0 0 1.5 3c2.33-2.075 3.497-4.742 3.5-8l1 3a22.144 22.144 0 0 0 4-7c1.84 1.333 2.34 1.166 1.5-.5 2.132-.918 2.799-2.251 2-4l4-2c-1.456-.423-1.956-1.256-1.5-2.5l1 1c2.24-2.902 5.073-5.069 8.5-6.5-1.2-1.952-.7-3.452 1.5-4.5.617-.95.451-1.782-.5-2.5 1.244-.456 2.077.044 2.5 1.5 1.241-1.377 1.408-2.71.5-4a33.968 33.968 0 0 1-6.5 1 631.308 631.308 0 0 1-12.5-2c7.519.325 14.852-.008 22-1 1.741-1.895 2.741-4.228 3-7 1.188 1.184 2.355 1.184 3.5 0a190.665 190.665 0 0 1 2 11c.383.556.883.89 1.5 1 .817 1.978 2.317 2.978 4.5 3a45.883 45.883 0 0 0 10.5-5.5 33.543 33.543 0 0 1 10-2.5h9c.268-1.599-.066-2.932-1-4-10.471-1.175-19.804 1.492-28 8a3.646 3.646 0 0 1-1.5-1 50.464 50.464 0 0 1-.5-10c-.166-6.342 0-12.675.5-19l6 4c2.096-1.215 1.929-2.049-.5-2.5 1.884-.216 3.551-.883 5-2l-2-1c2.933-1.839 4.099-4.339 3.5-7.5 1.356-.88 2.856-1.214 4.5-1a4.934 4.934 0 0 1 .5-3l1 1 1.5-3c-1.311-.758-1.811-1.758-1.5-3 1.66-.176 3.326.49 5 2 1.914-1.176 1.748-2.176-.5-3l2-1a4.451 4.451 0 0 0-2-1.5c2.333-.204 4.333-1.538 6-4a18.95 18.95 0 0 0-5-3c1.945.128 3.778-.038 5.5-.5.36-1.921 1.194-3.588 2.5-5-.976-1.623-.476-2.957 1.5-4 2.075 2.528 2.908 2.361 2.5-.5l3-1c-2.722-3.614-1.889-4.781 2.5-3.5.456-1.244-.044-2.077-1.5-2.5.556-.383.889-.883 1-1.5z"/><path style="opacity:1" fill="#f1f2f2" d="M186.5 68.5v4a2550.97 2550.97 0 0 0-101 1c-1.648 6.315-5.648 10.315-12 12-1.291 3.545-1.291 7.045 0 10.5a31.775 31.775 0 0 0 7 2.5 4.932 4.932 0 0 1-.5 3c-2.619 1.229-5.119.896-7.5-1a31.12 31.12 0 0 0-1 11c-.904.709-1.237 1.709-1 3h-4a24.939 24.939 0 0 0-.5-7l-7.5 7.5c-2.107.854-3.44.188-4-2A55.595 55.595 0 0 1 67 100.5c.5-4.655.666-9.322.5-14-6.78-1.61-11.613-5.61-14.5-12L44.5 87c-5.083-.689-10.083-2.022-15-4 .59-1.51 1.256-3.01 2-4.5 3.44 2.067 7.107 2.9 11 2.5 3.376-3.246 5.21-7.08 5.5-11.5l-5.5-7c.847-1.345 2.013-2.345 3.5-3l5.5 7c2.2-3.218 4.533-6.384 7-9.5a23.407 23.407 0 0 1 6-2.5c.997.03 1.664-.47 2-1.5a77.081 77.081 0 0 0-2-8.5c-3.267-2.311-6.6-4.644-10-7-.859-2.04-.026-3.373 2.5-4a136.479 136.479 0 0 0 9.5 6c4.972-5.307 9.972-10.64 15-16 1.546.712 2.546 1.878 3 3.5A157.997 157.997 0 0 1 70 42.5a36.858 36.858 0 0 0 1 11c8.065 1.731 13.232 6.565 15.5 14.5 33.332.5 66.665.667 100 .5z"/><path style="opacity:1" fill="#ececee" d="M290.5 65.5c-.165 3.35.002 6.683.5 10 .414.457.914.79 1.5 1 8.196-6.508 17.529-9.175 28-8v3c-2.885-.306-5.552.027-8 1a33.543 33.543 0 0 0-10 2.5 45.883 45.883 0 0 1-10.5 5.5c-2.183-.022-3.683-1.022-4.5-3a105.166 105.166 0 0 1-2-22 83.518 83.518 0 0 0-1.5-21 8.43 8.43 0 0 0-.5 4 185.142 185.142 0 0 0-3 27c-.259 2.772-1.259 5.105-3 7h-69v-3c22.506.33 44.84-.003 67-1v-3a883.98 883.98 0 0 0 4.5-35c.848-2.374 2.181-4.374 4-6 1.261.26 2.261.926 3 2a43.088 43.088 0 0 1 2 9c.17 10.175.67 20.175 1.5 30z"/><path style="opacity:1" fill="#f7f7f7" d="m95.5 32.5 16 15c.283.79.783 1.456 1.5 2a145.05 145.05 0 0 0 .5-17h5c.327 9.848-.006 19.514-1 29a180.515 180.515 0 0 1-17-15c-1 4.568-1.333 9.901-1 16h-5c-.327-10.18.006-20.18 1-30z"/><path style="opacity:1" fill="#2f3236" d="M119.5 32.5c.994 10.153 1.328 20.486 1 31-1.291.237-2.291-.096-3-1 1.974-9.61 2.641-19.61 2-30z"/><path style="opacity:1" fill="#8e8e94" d="M216.5 32.5c-.994 9.82-1.327 19.82-1 30h5c-1.765.961-3.765 1.295-6 1a256.824 256.824 0 0 1 1-32c.607.124.94.457 1 1z"/><path style="opacity:1" fill="#76787b" d="M95.5 32.5c-.994 9.82-1.327 19.82-1 30-1.323-10.174-1.323-20.508 0-31 .607.124.94.457 1 1z"/><path style="opacity:1" fill="#c8c9ca" d="M118.5 32.5h1c.641 10.39-.026 20.39-2 30v-1c.994-9.486 1.327-19.152 1-29z"/><path style="opacity:1" fill="#eeeeef" d="M187.5 39.5c.256 3.77-.077 7.436-1 11-3.576 4.385-8.243 6.052-14 5v7h-7v-30c5.011-.166 10.011 0 15 .5 3.487.989 5.82 3.155 7 6.5z"/><path style="opacity:1" fill="#f1f1f2" d="m216.5 32.5 16 15c.283.79.783 1.456 1.5 2a145.05 145.05 0 0 0 .5-17h5c.327 9.848-.006 19.514-1 29a35.079 35.079 0 0 1-8-6 107.248 107.248 0 0 0-8.5-9c-.173 5.516-.673 10.85-1.5 16h-5c-.327-10.18.006-20.18 1-30z"/><path style="opacity:1" fill="#c9c9cd" d="M239.5 32.5h1a225.77 225.77 0 0 1-1 30c-.607-.124-.94-.457-1-1 .994-9.486 1.327-19.152 1-29z"/><path style="opacity:1" fill="#f8f8f9" d="M266.5 37.5h-14v10h12v5h-12v5h15v5h-21v-30h20v5z"/><path style="opacity:1" fill="#a2a3a5" d="M156.5 43.5c-.977-2.787-1.31-5.787-1-9h-5c.31 3.213-.023 6.213-1 9v-10h7v10z"/><path style="opacity:1" fill="#eaebeb" d="M156.5 43.5h4v5h-4v9c2.733-.304 4.399.863 5 3.5-4.245 3.601-8.078 3.101-11.5-1.5a60.93 60.93 0 0 1-.5-11h-3v-5h3c.977-2.787 1.31-5.787 1-9h5c-.31 3.213.023 6.213 1 9z"/><path style="opacity:1" fill="#2f3138" d="M180.5 40.5a21.445 21.445 0 0 0-7-1v10h4c-1.419.951-3.085 1.285-5 1v-13c3.331-.482 5.997.518 8 3z"/><path style="opacity:1" fill="#12141b" d="M180.5 40.5c1.122 1.788 1.289 3.788.5 6-.422 1.926-1.589 2.926-3.5 3h-4v-10a21.445 21.445 0 0 1 7 1z"/><path style="opacity:1" fill="#62636d" d="M234.5 32.5a145.05 145.05 0 0 1-.5 17c-.717-.544-1.217-1.21-1.5-2l2-15z"/><path style="opacity:1" fill="#50515d" d="M266.5 37.5c-4.134.985-8.468 1.318-13 1v8c3.871-.315 7.538.018 11 1h-12v-10h14z"/><path style="opacity:1" fill="#e8e9e9" d="M129.5 43.5c9.851-1.802 14.851 2.198 15 12-4.679-.166-9.345 0-14 .5 2.853 1.808 5.853 1.975 9 .5 4.203 2.728 3.87 4.895-1 6.5-8.503 1.82-13.503-1.513-15-10 .21-4.362 2.21-7.529 6-9.5z"/><path style="opacity:1" fill="#ededee" d="M190.5 43.5a13.118 13.118 0 0 1 7 1 177.525 177.525 0 0 1 3.5 10 37.345 37.345 0 0 0 3.5-11 13.118 13.118 0 0 1 7 1 244.24 244.24 0 0 0-12 28 13.118 13.118 0 0 1-7-1 152.224 152.224 0 0 0 5-10.5 575.157 575.157 0 0 1-7-17.5z"/><path style="opacity:1" fill="#45484c" d="M113.5 32.5a145.05 145.05 0 0 1-.5 17c-.717-.544-1.217-1.21-1.5-2l2-15z"/><path style="opacity:1" fill="#87888b" d="M100.5 46.5v17c-2.235.295-4.235-.039-6-1h5c-.333-6.099 0-11.432 1-16z"/><path style="opacity:1" fill="#53555b" d="M187.5 39.5h1c.58 4.149-.086 7.816-2 11 .923-3.564 1.256-7.23 1-11z"/><path style="opacity:1" fill="#0f0e2d" d="M353.5 46.5v64a31.642 31.642 0 0 1-3 5c.883 2.243.049 3.91-2.5 5l-1-1c-.943 2.609-2.61 4.609-5 6l-1-1 1 4c-2.79-1.282-4.957-.448-6.5 2.5 1.238-.077 2.238.089 3 .5a6.802 6.802 0 0 1-3 1.5c-1.763 3.394-4.096 6.227-7 8.5h-52c.946-1.431 2.112-2.764 3.5-4 .974 2.378 1.641 2.044 2-1l1 1a9.454 9.454 0 0 1 1.5-2.5l-1-5c.969-1.758 2.136-2.258 3.5-1.5a22.981 22.981 0 0 1 2-5c3.209-.892 5.542-3.225 7-7 1.073.78 2.24.613 3.5-.5-2.777-2.173-2.61-2.673.5-1.5 1.779-1.517 1.279-2.351-1.5-2.5a22.144 22.144 0 0 0 7-4l-1-1c4.352-.419 4.685-1.086 1-2a27.022 27.022 0 0 0 8-4c-2.865-2.403-2.699-3.236.5-2.5.684-1.284.517-2.45-.5-3.5l3.5-3.5 1 1c1.077-3.413 3.244-5.913 6.5-7.5l-1-1 4-2-3-1c1.981-.605 2.315-1.605 1-3 1.626.195 3.293.195 5 0a6.544 6.544 0 0 1-3-3c1.845.783 3.845 1.116 6 1l-2-1c1.645-1.8 2.978-3.8 4-6 4-.667 4-1.333 0-2 1.376-2.543 2.543-2.71 3.5-.5 1.204-.97 1.704-1.97 1.5-3 .586.21 1.086.543 1.5 1 .311-1.242-.189-2.242-1.5-3 2.131-3.328 5.131-5.495 9-6.5l-3-1c2.013-1.791 2.013-3.125 0-4 1.399-.595 2.732-.428 4 .5a173.333 173.333 0 0 1 3-4z"/><path style="opacity:1" fill="#1e2126" d="M131.5 48.5c2.477-.45 4.477.218 6 2-2.333 1.333-4.667 1.333-7 0 .363-.684.696-1.35 1-2z"/><path style="opacity:1" fill="#6e6e7b" d="m285.5 55.5-2-17a8.43 8.43 0 0 1 .5-4 83.518 83.518 0 0 1 1.5 21z"/><path style="opacity:1" fill="#535558" d="M64.5 44.5a77.081 77.081 0 0 1 2 8.5c-.336 1.03-1.003 1.53-2 1.5v-10z"/><path style="opacity:1" fill="#71727c" d="M264.5 47.5c.961 1.765 1.295 3.765 1 6h-12v3c4.863-.32 9.53.014 14 1h-15v-5h12v-5z"/><path style="opacity:1" fill="#16181c" d="M65.5 59.5c12.644-.22 16.81 5.447 12.5 17-7.952 6.298-14.285 4.965-19-4-1.027-5.946 1.14-10.28 6.5-13z"/><path style="opacity:1" fill="#1f1f34" d="m283.5 38.5 2 17a105.166 105.166 0 0 0 2 22c-.617-.11-1.117-.444-1.5-1a190.665 190.665 0 0 0-2-11c-1.145 1.184-2.312 1.184-3.5 0a185.142 185.142 0 0 1 3-27z"/><path style="opacity:1" fill="#232434" d="M275.5 65.5v3h-67c2.107-.968 4.441-1.302 7-1 20.233.636 40.233-.03 60-2z"/><path style="opacity:1" fill="#a1a1a8" d="M208.5 68.5h67c-22.16.997-44.494 1.33-67 1v3c-1.333-1.333-1.333-2.667 0-4z"/><path style="opacity:1" fill="#9493a0" d="M320.5 68.5c.934 1.068 1.268 2.401 1 4h-9c2.448-.973 5.115-1.306 8-1v-3z"/><path style="opacity:1" fill="#949598" d="M186.5 68.5c.951 1.419 1.284 3.085 1 5h-102a2550.97 2550.97 0 0 1 101-1v-4z"/><path style="opacity:1" fill="#0e0f22" d="M255.5 73.5c4.065.693 8.232 1.36 12.5 2a33.968 33.968 0 0 0 6.5-1c.908 1.29.741 2.623-.5 4-.423-1.456-1.256-1.956-2.5-1.5.951.718 1.117 1.55.5 2.5-2.2 1.048-2.7 2.548-1.5 4.5-3.427 1.431-6.26 3.598-8.5 6.5l-1-1c-.456 1.244.044 2.077 1.5 2.5l-4 2c.799 1.749.132 3.082-2 4 .84 1.666.34 1.833-1.5.5a22.144 22.144 0 0 1-4 7l-1-3c-.003 3.258-1.17 5.925-3.5 8a6.802 6.802 0 0 1-1.5-3c-2.246 2.451-3.246 5.118-3 8l-1-2c-.72 1.612-.554 3.112.5 4.5-3.942 1.153-7.608 3.486-11 7l1 1a4.457 4.457 0 0 0-2 1.5l2 1a10.756 10.756 0 0 0-2.5 3c-.893-1.211-1.726-1.211-2.5 0-.645 1.232-.811 2.565-.5 4-1.503-.335-2.836-.335-4 0-1.559 1.717-2.392 3.717-2.5 6h-57c-.131-.876.202-1.543 1-2 .951.826 1.951.992 3 .5v-4l3-1-1-1c1.284-.684 2.451-.517 3.5.5-.525-3.423.975-5.923 4.5-7.5l-2-1 5-1-2-1c1.167-.5 2-1.333 2.5-2.5l1 1c1.758-.969 2.258-2.136 1.5-3.5a26.317 26.317 0 0 0 6-4l-2-1c1.813.046 3.479-.12 5-.5.401-1.934 1.401-3.434 3-4.5l-2-1c2.447-1.229 2.613-2.729.5-4.5a25.644 25.644 0 0 0-6 7c-.265-1.663.235-3.163 1.5-4.5-1.052-1.716-.386-2.716 2-3-1.134-1.016-.801-1.683 1-2-1.173-3.11-.673-3.277 1.5-.5 2.096-1.216 1.929-2.049-.5-2.5 2.79-.56 5.123-1.894 7-4l-2-1c.753-1.487 1.586-1.654 2.5-.5.309-2.307 1.142-4.474 2.5-6.5 1.26-1.113 2.427-1.28 3.5-.5.667-2.667 1.333-2.667 2 0 .743-1.94.576-3.774-.5-5.5.949-.617 1.782-.45 2.5.5 3.321-2.89 2.821-5.057-1.5-6.5 15.663-.5 31.33-.667 47-.5z"/><path style="opacity:1" fill="#8b8c8f" d="M71.5 111.5v4c-1.915.284-3.581-.049-5-1h4c-.237-1.291.096-2.291 1-3z"/><path style="opacity:1" fill="#0f0d32" d="M353.5 110.5v31h-25c2.904-2.273 5.237-5.106 7-8.5a6.802 6.802 0 0 0 3-1.5c-.762-.411-1.762-.577-3-.5 1.543-2.948 3.71-3.782 6.5-2.5l-1-4 1 1c2.39-1.391 4.057-3.391 5-6l1 1c2.549-1.09 3.383-2.757 2.5-5a31.642 31.642 0 0 0 3-5z"/></svg>