<svg xmlns="http://www.w3.org/2000/svg" width="200" height="200" style="shape-rendering:geometricPrecision;text-rendering:geometricPrecision;image-rendering:optimizeQuality;fill-rule:evenodd;clip-rule:evenodd"><path style="opacity:1" fill="#fdfdfd" d="M-.5-.5h200v200H-.5V-.5z"/><path style="opacity:1" fill="#040404" d="M103.5 27.5a50.464 50.464 0 0 1-.5 10 339.895 339.895 0 0 1-18.5 12c-4.78-3.06-6.948-1.728-6.5 4 3.73 2.848 6.23 1.848 7.5-3a383.677 383.677 0 0 0 19.5-13 23.788 23.788 0 0 0-.5-10v-16c6.089.601 11.756 2.268 17 5v3c.409 3.355-.258 6.355-2 9-2.624 1.698-2.624 3.531 0 5.5 2.035.599 3.701.099 5-1.5l-2-9 2-6a90.457 90.457 0 0 1 14 7v30c-4.205-.008-8.205-.508-12-1.5-1.076 1.726-1.243 3.56-.5 5.5 1.616 1.3 3.116 1.3 4.5 0 2.662-1.768 5.662-2.435 9-2-.642-10.72.025-21.054 2-31 2.235.728 4.068 2.061 5.5 4l12 18c.667 1 .667 2 0 3-1.802 1.29-2.969 2.956-3.5 5 1.648-1.31 3.314-2.643 5-4 5.109 10.52 3.442 20.02-5 28.5-6.46 4.697-13.127 5.53-20 2.5a104.467 104.467 0 0 0-3-7.5c3.014-3.278 2.514-5.778-1.5-7.5-1.301.139-2.134.805-2.5 2-1.773 3.176-.773 4.843 3 5 .48 2.943 1.48 5.61 3 8-.47 1.194-1.47 1.86-3 2a411.34 411.34 0 0 1-18-2c-.688-1.355-1.688-2.355-3-3 .203 1.544.87 2.878 2 4-8.057 5.852-17.057 9.019-27 9.5-4.733-3.85-7.4-8.683-8-14.5-.79 1.109-1.29 2.442-1.5 4a18.78 18.78 0 0 0-5.5-4.5A463.499 463.499 0 0 0 52 72.5c-1.03-.336-1.53-1.003-1.5-2-4.874-1.317-7.707-4.65-8.5-10-.717-8.983.617-17.65 4-26a254.107 254.107 0 0 1 34.5-20 40.936 40.936 0 0 0 .5 9 25.936 25.936 0 0 1 3.5 9c-2.766 2.567-2.266 4.567 1.5 6 2.283-.45 3.783-1.783 4.5-4-.356-1.022-1.022-1.689-2-2-5.719-5.116-7.719-11.45-6-19 .418-.722 1.084-1.222 2-1.5a180.95 180.95 0 0 1 19-.5v16z"/><path style="opacity:1" fill="#aaa" d="M82.5 13.5c-1.719 7.55.281 13.884 6 19h-4a25.936 25.936 0 0 0-3.5-9 40.936 40.936 0 0 1-.5-9c.342-.838 1.008-1.172 2-1z"/><path style="opacity:1" fill="#5a5a5a" d="M121.5 16.5c1.291-.237 2.291.096 3 1l-2 6c.268-1.599-.066-2.932-1-4v-3z"/><path style="opacity:1" fill="#cfcfcf" d="M121.5 19.5c.934 1.068 1.268 2.401 1 4l2 9h-1c.333-3-1-4.333-4-4 1.742-2.645 2.409-5.645 2-9z"/><path style="opacity:1" fill="#0b0b0b" d="M119.5 28.5c3-.333 4.333 1 4 4-3.971.705-5.305-.629-4-4z"/><path style="opacity:1" fill="#8d8d8d" d="M119.5 28.5c-1.305 3.371.029 4.705 4 4h1c-1.299 1.599-2.965 2.099-5 1.5-2.624-1.969-2.624-3.802 0-5.5z"/><path style="opacity:1" fill="#989898" d="M84.5 32.5v4h4v-4c.978.311 1.644.978 2 2-.717 2.217-2.217 3.55-4.5 4-3.766-1.433-4.266-3.433-1.5-6z"/><path style="opacity:1" fill="#101010" d="M84.5 32.5h4v4h-4v-4z"/><path style="opacity:1" fill="#a2a2a2" d="M103.5 27.5h1a23.788 23.788 0 0 1 .5 10 383.677 383.677 0 0 1-19.5 13c-1.27 4.848-3.77 5.848-7.5 3-.448-5.728 1.72-7.06 6.5-4a339.895 339.895 0 0 0 18.5-12c.498-3.317.665-6.65.5-10z"/><path style="opacity:1" fill="#a7a7a7" d="M50.5 54.5a154.854 154.854 0 0 0 12-9.5c-1.36-1.938-1.027-3.604 1-5 4.844-.623 6.178 1.377 4 6-5.558 1.455-10.225 4.455-14 9-1.25.74-2.25.574-3-.5z"/><path style="opacity:1" fill="#0a0a0a" d="M64.5 40.5c3.456 1.036 3.79 2.703 1 5-2.204-1.282-2.538-2.949-1-5z"/><path style="opacity:1" fill="#060606" d="M79.5 49.5c2.666-.434 3.833.566 3.5 3-3.597 1.566-4.763.566-3.5-3z"/><path style="opacity:1" fill="#9e9e9e" d="M104.5 70.5c-.617-.11-1.117-.444-1.5-1 .168-6.03-.999-11.696-3.5-17 .356-1.022 1.022-1.689 2-2 2.568-2.424 4.568-1.757 6 2-.637 1.803-1.803 3.136-3.5 4-.717 4.72-.55 9.386.5 14z"/><path style="opacity:1" fill="#0c0c0c" d="M101.5 50.5h4v4h-4v-4z"/><path style="opacity:1" fill="#a7a7a7" d="M50.5 54.5a23.407 23.407 0 0 1-6-2.5c2.583-.541 4.583.292 6 2.5z"/><path style="opacity:1" fill="#a3a3a3" d="M138.5 24.5c1.291-.237 2.291.096 3 1-1.975 9.946-2.642 20.28-2 31-3.338-.435-6.338.232-9 2-1.384 1.3-2.884 1.3-4.5 0-.743-1.94-.576-3.774.5-5.5 3.795.992 7.795 1.492 12 1.5v-30z"/><path style="opacity:1" fill="#0d0d0d" d="M130.5 58.5c-4.461-.548-4.961-2.215-1.5-5 1.269 1.405 1.769 3.071 1.5 5z"/><path style="opacity:1" fill="#a5a5a5" d="M155.5 55.5a88.226 88.226 0 0 0-2 9c.876 2.323 1.376 4.657 1.5 7-1.418 1.863-3.251 2.363-5.5 1.5-1.301-1.615-1.301-3.115 0-4.5a178.528 178.528 0 0 1 6-13z"/><path style="opacity:1" fill="#a8a8a8" d="M50.5 70.5c3.33-3.433 6.83-6.766 10.5-10 1.238-5.137 3.905-6.137 8-3 .388 1.576-.112 2.91-1.5 4-1.926.56-3.926.727-6 .5-3.366 3.335-7.032 6.168-11 8.5z"/><path style="opacity:1" fill="#030303" d="M64.5 56.5c2.412.194 3.412 1.527 3 4h-4c-.067-1.459.266-2.792 1-4z"/><path style="opacity:1" fill="#a9a9a9" d="M80.5 76.5a32.614 32.614 0 0 1 4.5-4c-.984-2.098-.651-4.098 1-6 4.154-1.843 6.154-.51 6 4a112.537 112.537 0 0 0-11.5 6z"/><path style="opacity:1" fill="#060606" d="M87.5 66.5c3.456 1.036 3.79 2.703 1 5-2.204-1.282-2.538-2.949-1-5z"/><path style="opacity:1" fill="#101010" d="M149.5 68.5c3.371-1.305 4.704.029 4 4-3 .333-4.333-1-4-4z"/><path style="opacity:1" fill="#afafaf" d="M104.5 70.5c1.406.473 2.073 1.473 2 3-1.406-.473-2.073-1.473-2-3zM106.5 73.5c1.406.473 2.073 1.473 2 3-1.406-.473-2.073-1.473-2-3z"/><path style="opacity:1" fill="#b8b8b8" d="M80.5 76.5c-.473 1.406-1.473 2.073-3 2 .473-1.406 1.473-2.073 3-2z"/><path style="opacity:1" fill="#bababa" d="M108.5 76.5c1.406.473 2.073 1.473 2 3-1.406-.473-2.073-1.473-2-3z"/><path style="opacity:1" fill="#a5a5a5" d="M135.5 82.5h-1c-1.52-2.39-2.52-5.057-3-8-3.773-.157-4.773-1.824-3-5 .366-1.195 1.199-1.861 2.5-2 4.014 1.722 4.514 4.222 1.5 7.5a104.467 104.467 0 0 1 3 7.5z"/><path style="opacity:1" fill="#0e0e0e" d="M128.5 69.5c3.371-1.305 4.704.029 4 4-3 .333-4.333-1-4-4z"/><path style="opacity:1" fill="#acabab" d="M96.5 105.5h6c-.418.722-1.084 1.222-2 1.5.556.383.889.883 1 1.5a1600.65 1600.65 0 0 0-1 80h-1c.167-26.669 0-53.335-.5-80-1.451 1.964-3.284 3.297-5.5 4 1.504-2.336 3.504-4.169 6-5.5-1.237-.232-2.237-.732-3-1.5z"/><path style="opacity:1" fill="#242021" d="M96.5 105.5c.763.768 1.763 1.268 3 1.5-2.496 1.331-4.496 3.164-6 5.5 2.216-.703 4.049-2.036 5.5-4 .5 26.665.667 53.331.5 80a1998.4 1998.4 0 0 1-57-20 496.204 496.204 0 0 1-6-54 49.296 49.296 0 0 0 11 2c-3.407-1.574-7.073-2.574-11-3a410.215 410.215 0 0 1-19-5.5c-1.41-.368-2.41-1.201-3-2.5a103.456 103.456 0 0 1 16-13.5 30.499 30.499 0 0 1 11 0 8074.892 8074.892 0 0 1 55 13.5zM163.5 113.5a619.125 619.125 0 0 0-43 10c.417.624 1.084.957 2 1a1139.738 1139.738 0 0 1 41-10 12886.033 12886.033 0 0 0-5.5 53 6008.396 6008.396 0 0 1-57.5 21 1600.65 1600.65 0 0 1 1-80c-.111-.617-.444-1.117-1-1.5.916-.278 1.582-.778 2-1.5a2091.857 2091.857 0 0 1 62.5-15c7.324 3.648 13.824 8.481 19.5 14.5-.32 1.653-1.32 2.653-3 3a100.913 100.913 0 0 1-18 5.5z"/><path style="opacity:1" fill="#aaa9aa" d="M101.5 108.5c2.589.919 4.589 2.586 6 5-2.589-.919-4.589-2.586-6-5z"/><path style="opacity:1" fill="#a09e9f" d="M107.5 113.5c1.696.185 3.029 1.019 4 2.5-1.912.279-3.246-.554-4-2.5z"/><path style="opacity:1" fill="#999797" d="M36.5 114.5v-1c3.927.426 7.593 1.426 11 3a49.296 49.296 0 0 1-11-2z"/><path style="opacity:1" fill="#898788" d="M93.5 112.5c-1.062 2.257-2.728 3.423-5 3.5 1.29-1.802 2.956-2.969 5-3.5z"/><path style="opacity:1" fill="#8e8c8c" d="M79.5 123.5c1.062-2.257 2.728-3.423 5-3.5-1.29 1.802-2.956 2.969-5 3.5z"/><path style="opacity:1" fill="#888686" d="M120.5 123.5c-2.441-.584-3.941-1.917-4.5-4 1.992.828 3.492 2.161 4.5 4z"/><path style="opacity:1" fill="#b2b0b1" d="M163.5 113.5v1a1139.738 1139.738 0 0 0-41 10c-.916-.043-1.583-.376-2-1a619.125 619.125 0 0 1 43-10z"/><path style="opacity:1" fill="#bbb9ba" d="M47.5 116.5a276.611 276.611 0 0 1 32 7c-1.446 1.113-3.113 1.28-5 .5a430.543 430.543 0 0 1-27-7.5z"/><path style="opacity:1" fill="#bfbebe" d="M45.5 154.5c1.991 2.637 3.991 5.304 6 8l2-5c.628 12.928-1.539 13.262-6.5 1a32.455 32.455 0 0 0-2.5 6c-.731-3.375-.398-6.708 1-10z"/><path style="opacity:1" fill="#cfcfcf" d="M138.5 161.5a2.428 2.428 0 0 1 2 .5c-4.58 3.744-3.913 6.077 2 7-1.735.651-3.402.485-5-.5a6.802 6.802 0 0 0-1.5 3c-1.803-2.521-2.303-5.188-1.5-8a6.802 6.802 0 0 1 1.5 3l2.5-5z"/><path style="opacity:1" fill="#cfcece" d="M67.5 164.5c.745 2.171.912 4.505.5 7l4 2c2.118-9.254 2.618-9.254 1.5 0-7.67 1.014-9.67-1.986-6-9z"/><path style="opacity:1" fill="#bfbebe" d="M57.5 161.5c2.657-.338 4.99.329 7 2h-6c.59 1.299 1.59 2.132 3 2.5a6.802 6.802 0 0 0-3 1.5c6.788 4.073 6.454 4.739-1 2-.95-2.626-.95-5.292 0-8z"/><path style="opacity:1" fill="#cbcaca" d="M77.5 168.5c2.327.165 4.493.831 6.5 2 .116 3.129-.384 5.795-1.5 8l-3.5-5a6.807 6.807 0 0 1-1.5 3c-.705-2.589-.705-5.256 0-8z"/><path style="opacity:1" fill="#373334" d="M79.5 170.5c1.846-.278 3.18.389 4 2-2.333 1.441-3.666.775-4-2z"/><path style="opacity:1" fill="#cccbcb" d="M118.5 168.5a4.934 4.934 0 0 1 3 .5l-5 3.5c1.103.498 2.103.831 3 1l-3 2c1.973.831 3.973.998 6 .5-1.941 1.903-4.274 2.736-7 2.5a19.048 19.048 0 0 0-1-6c.937-1.788 2.27-3.121 4-4z"/><path style="opacity:1" fill="#c8c7c7" d="M126.5 165.5c1.478-.262 2.811.071 4 1l-.5 1c-1.299-.466-2.799-.466-4.5 0a4.934 4.934 0 0 0 .5 3c2.94-2.984 5.107-2.65 6.5 1-1.446 2.335-3.613 3.668-6.5 4l-1.5-1a22.136 22.136 0 0 0 6-3c-2.102.021-4.268-.313-6.5-1-.706-2.455.127-4.122 2.5-5z"/><path style="opacity:1" fill="#cbcaca" d="m87.5 171.5 8 2c1.758 9.098-1.075 11.098-8.5 6a18.164 18.164 0 0 1 .5-8z"/><path style="opacity:1" fill="#2a2627" d="M88.5 173.5c5.304-.049 6.97 2.284 5 7-4.148-.334-5.815-2.667-5-7z"/><path style="opacity:1" fill="#cecece" d="M105.5 173.5c6.645-.523 8.311 1.977 5 7.5l-5 2.5c-2.336-3.523-2.336-6.856 0-10z"/><path style="opacity:1" fill="#272324" d="M107.5 174.5c2.744.572 3.577 2.238 2.5 5-1.356.88-2.856 1.214-4.5 1-.241-2.386.425-4.386 2-6z"/></svg>