<svg xmlns="http://www.w3.org/2000/svg" width="392" height="136" style="shape-rendering:geometricPrecision;text-rendering:geometricPrecision;image-rendering:optimizeQuality;fill-rule:evenodd;clip-rule:evenodd"><path style="opacity:1" fill="#fdfdfd" d="M-.5-.5h392v136H-.5V-.5z"/><path style="opacity:1" fill="#040404" d="M260.5 63.5h-8v-25c1.024-3.862 3.357-6.695 7-8.5 7.659-.5 15.326-.666 23-.5v8c-7.255-.313-14.421.02-21.5 1a313 313 0 0 0-.5 25z"/><path style="opacity:1" fill="#080808" d="M90.5 41.5v22h-7c.324-6.854-.01-13.521-1-20-.58-2.249-1.913-3.915-4-5-5.81-.99-11.81-1.323-18-1v27h-8c-.166-11.005 0-22.005.5-33l1.5-1.5a169.242 169.242 0 0 1 26 0c5.353 2.18 8.687 6.013 10 11.5z"/><path style="opacity:1" fill="#0d0d0d" d="M126.5 29.5c8.007-.166 16.007 0 24 .5 8.108 5.515 9.108 12.182 3 20l-4 2c-5.991.5-11.991.666-18 .5v-8c5.676.166 11.343 0 17-.5 1.333-2 1.333-4 0-6-6.914-.811-13.748-.645-20.5.5a48.73 48.73 0 0 0 .5 17 77.734 77.734 0 0 0 17 1v8c-22.333 4.165-30.833-4.835-25.5-27 1.305-3.461 3.471-6.128 6.5-8z"/><path style="opacity:1" fill="#0c0c0c" d="M184.5 29.5h8a102.865 102.865 0 0 0 1.5 24l1.5 1.5c6.325.5 12.658.666 19 .5v-26h8c.167 11.005 0 22.005-.5 33l-1.5 1.5c-8.333.667-16.667.667-25 0-4.856-1.676-8.356-4.843-10.5-9.5a313 313 0 0 1-.5-25zM316.5 29.5c7.341-.166 14.674 0 22 .5 4.833.833 7.667 3.667 8.5 8.5.667 6 .667 12 0 18-3.936 7.364-10.103 10.03-18.5 8l-11-.5c-2.696-.69-4.863-2.19-6.5-4.5-1.598-7.56-1.931-15.228-1-23 1.694-2.858 3.861-5.191 6.5-7z"/><path style="opacity:1" fill="#f7f7f7" d="M318.5 37.5c6.342-.166 12.675 0 19 .5l1.5 1.5c.667 5 .667 10 0 15-6.752 1.145-13.586 1.311-20.5.5a39.366 39.366 0 0 1 0-17.5z"/><path style="opacity:1" fill="#b7b7b7" d="M78.5 38.5h-17c.326 8.85-.007 17.516-1 26v-27c6.19-.323 12.19.01 18 1z"/><path style="opacity:1" fill="#959595" d="M252.5 38.5v25h8c-2.787.977-5.787 1.31-9 1-.326-8.85.007-17.516 1-26z"/><path style="opacity:1" fill="#5e5e5e" d="M90.5 41.5c.992 7.482 1.325 15.148 1 23h-9v-21c.99 6.479 1.324 13.146 1 20h7v-22z"/><path style="opacity:1" fill="#060606" d="M99.5 72.5v47h-46v-21c-2.107-.968-4.44-1.302-7-1v21c-.397 1.025-1.063 1.192-2 .5a1080.414 1080.414 0 0 1-38-22.5 748.702 748.702 0 0 1 39-23c.607.124.94.457 1 1v21c2.56.302 4.893-.032 7-1v-22h46z"/><path style="opacity:1" d="M149.5 73.5v46h-46v-46h46z"/><path style="opacity:1" fill="#050505" d="M152.5 72.5h47v47h-47v-47z"/><path style="opacity:1" fill="#060606" d="M248.5 72.5v47h-46v-47h46z"/><path style="opacity:1" fill="#050505" d="M252.5 72.5h46v47h-46v-47z"/><path style="opacity:1" fill="#bebebe" d="M46.5 74.5c.99 6.479 1.324 13.146 1 20h6c-2.107.968-4.44 1.302-7 1v-21z"/><path style="opacity:1" fill="#030303" d="M351.5 74.5a891.103 891.103 0 0 1 33 22 1076.829 1076.829 0 0 0-32.5 22c-.5-14.663-.667-29.33-.5-44z"/><path style="opacity:1" fill="#8d8d8d" d="M149.5 73.5h-46v46a552.803 552.803 0 0 1-1-47c15.842-.33 31.509.004 47 1z"/><path style="opacity:1" fill="#545454" d="M347.5 119.5v-46h-45v46a552.803 552.803 0 0 1-1-47h47a552.803 552.803 0 0 1-1 47z"/><path style="opacity:1" fill="#020202" d="M347.5 119.5h-45v-46h45v46z"/><path style="opacity:1" fill="#fbfbfb" d="M42.5 78.5c1.333 12 1.333 24 0 36a733.763 733.763 0 0 1-31-18 721.47 721.47 0 0 1 31-18z"/><path style="opacity:1" fill="#626262" d="M42.5 78.5c.06-.543.393-.876 1-1a181.005 181.005 0 0 1 0 38c-.607-.124-.94-.457-1-1 1.333-12 1.333-24 0-36z"/><path style="opacity:1" fill="#f2f2f2" d="M68.5 82.5c5.344-.166 10.677 0 16 .5 5.525 2.919 7.358 7.419 5.5 13.5a11.529 11.529 0 0 1-3.5 4.5c-5.208 1.397-10.541 1.897-16 1.5v-5c4.346.166 8.68-.001 13-.5 2.667-3 2.667-6 0-9a98.433 98.433 0 0 0-14-.5v21h-5c-.166-7.341 0-14.674.5-22a19.568 19.568 0 0 0 3.5-4z"/><path style="opacity:1" fill="#e7e7e7" d="M123.5 82.5h5v26h-5v-26z"/><path style="opacity:1" fill="#f3f3f3" d="M162.5 82.5a18.437 18.437 0 0 1 6 .5 47.659 47.659 0 0 0 7.5 8.5 45.24 45.24 0 0 0 7.5-8.5 12.5 12.5 0 0 1 7 0 102.656 102.656 0 0 0-11 12.5 65.052 65.052 0 0 0 11 12.5 12.494 12.494 0 0 1-7 0 142.196 142.196 0 0 1-7.5-8.5 45.255 45.255 0 0 1-7.5 8.5c-2 .667-4 .667-6 0a179.06 179.06 0 0 0 10-12.5 160.773 160.773 0 0 1-10-13z"/><path style="opacity:1" fill="#f0f0f0" d="M215.5 82.5h22v5h-18v16h18v5c-6.342.166-12.675 0-19-.5a6.978 6.978 0 0 1-3.5-2.5c-.798-7.746-.631-15.413.5-23z"/><path style="opacity:1" fill="#f5f5f5" d="M269.5 103.5c5.81.99 11.81 1.323 18 1v4a130.161 130.161 0 0 1-22.5-1 313 313 0 0 1-.5-25h5v21z"/><path style="opacity:1" fill="#f0f0f0" d="M317.5 82.5h18v5c-5.676-.166-11.343 0-17 .5-1.333 1.667-1.333 3.333 0 5 5.778.094 11.444.76 17 2 1.528 1.648 2.195 3.648 2 6 .195 2.352-.472 4.352-2 6a94.81 94.81 0 0 1-23 1.5v-5c6.675.166 13.342 0 20-.5 1.333-1.333 1.333-2.667 0-4l-14-1c-5.424-2.017-7.258-5.85-5.5-11.5 1.397-1.57 2.897-2.904 4.5-4z"/><path style="opacity:1" fill="#e5e5e5" d="M220.5 93.5h15v5h-15v-5z"/><path style="opacity:1" fill="#cdcdcd" d="M53.5 98.5h-6c.324 6.854-.01 13.521-1 20v-21c2.56-.302 4.893.032 7 1z"/><path style="opacity:1" fill="#a9a9a9" d="M269.5 103.5h19c.284 1.915-.049 3.581-1 5v-4c-6.19.323-12.19-.01-18-1z"/><path style="opacity:1" fill="#9b9b9b" d="M99.5 72.5a576.625 576.625 0 0 1 1 48 552.804 552.804 0 0 1-47-1h46v-47z"/><path style="opacity:1" fill="#a2a2a2" d="M248.5 72.5a576.625 576.625 0 0 1 1 48 552.805 552.805 0 0 1-47-1h46v-47z"/></svg>