<svg xmlns="http://www.w3.org/2000/svg" width="252" height="400" style="shape-rendering:geometricPrecision;text-rendering:geometricPrecision;image-rendering:optimizeQuality;fill-rule:evenodd;clip-rule:evenodd"><path style="opacity:1" fill="#2c4298" d="M-.5-.5h252v38a130.6 130.6 0 0 1-28 0 18.452 18.452 0 0 1-.5 6 64.41 64.41 0 0 0-7.5 4c-1.027 3.877-3.694 5.877-8 6v-6h-6c-.14 1.624.527 2.79 2 3.5l-3 5a141.878 141.878 0 0 1-12 2.5 2030.344 2030.344 0 0 0-34-2v-6c-4.296-2.14-8.963-3.474-14-4-3-5-7-9-12-12a9.86 9.86 0 0 0-1 6 133.98 133.98 0 0 1-32 4v3c12.733-.331 12.733 1.335 0 5v4c-30.505-.331-60.838.002-91 1-1.238 1.714-1.905 3.714-2 6h-3v-64z"/><path style="opacity:1" fill="#2a499d" d="M188.5 58.5v3c-5.294.182-5.294.682 0 1.5-1.634.493-3.301.66-5 .5.541 3.152-.459 5.652-3 7.5a156.961 156.961 0 0 0-15.5 2.5l-5.5-1a6.807 6.807 0 0 1 3-1.5 20.093 20.093 0 0 0-6-1.5c.256-2.293-.077-4.46-1-6.5 4.678-.197 5.012-1.197 1-3 3.833-1.37 3.499-2.203-1-2.5a969.89 969.89 0 0 0-60-1v-4c12.733-3.665 12.733-5.331 0-5v-3a133.98 133.98 0 0 0 32-4 9.86 9.86 0 0 1 1-6c5 3 9 7 12 12 5.037.526 9.704 1.86 14 4v6c11.343.572 22.677 1.239 34 2z"/><path style="opacity:1" fill="#2850a2" d="M251.5 37.5v32c-1.846-1.53-2.846-3.53-3-6h-9v-3l-16-2v5h-9c-.913 5.24-1.913 5.24-3 0l-2 5c-1 1.333-2 1.333-3 0a7.248 7.248 0 0 0-2.5 2 69.022 69.022 0 0 0-6 15 667.507 667.507 0 0 1-5 3c-1.032-1.644-2.199-1.978-3.5-1a66.738 66.738 0 0 0-3.5-5c-1.309 2.391-2.309 2.391-3 0-2.192 1.735-4.692 2.902-7.5 3.5a45.824 45.824 0 0 0-14.5 2.5c-1.3-1.207-2.8-1.874-4.5-2a4.934 4.934 0 0 1-.5 3 44.012 44.012 0 0 0-7.5-14c-1.494-3.777-2.161-7.777-2-12a40.939 40.939 0 0 1-9-.5c-1.473-.71-2.14-1.876-2-3.5 2.82.252 5.486-.248 8-1.5-26.665-.5-53.331-.667-80-.5h-59a2070.813 2070.813 0 0 1 91-1 969.89 969.89 0 0 1 60 1c4.499.297 4.833 1.13 1 2.5 4.012 1.803 3.678 2.803-1 3 .923 2.04 1.256 4.207 1 6.5 2.064.187 4.064.687 6 1.5a6.807 6.807 0 0 0-3 1.5l5.5 1a156.961 156.961 0 0 1 15.5-2.5c2.541-1.848 3.541-4.348 3-7.5 1.699.16 3.366-.007 5-.5-5.294-.818-5.294-1.318 0-1.5v-3a141.878 141.878 0 0 0 12-2.5l3-5c-1.473-.71-2.14-1.876-2-3.5h6v6c4.306-.123 6.973-2.123 8-6a64.41 64.41 0 0 1 7.5-4c.495-1.973.662-3.973.5-6a130.6 130.6 0 0 0 28 0z"/><path style="opacity:1" fill="#4f61ac" d="M4.5 57.5h59c5.847.667 11.847 1.333 18 2a854.993 854.993 0 0 1-29 4v3h11v8h-11v5h-5v16a26.326 26.326 0 0 0-2 5v2c-1.526-1.95-2.526-4.283-3-7-2 9.333-4 9.333-6 0a16.869 16.869 0 0 0-1 8c-.306 2.885.027 5.552 1 8h7c.041 2.245.874 2.912 2.5 2a10.76 10.76 0 0 0 2.5 3c-3.877.697-7.71 1.364-11.5 2a318.428 318.428 0 0 0-21.5 0c.219-1.175-.114-2.175-1-3-1.882-.142-3.882.358-6 1.5a26.705 26.705 0 0 0 7 5c26.739.824 53.406.657 80-.5 20.974 1.989 42.307 2.656 64 2v1c-8.184-.326-16.184.008-24 1-14.005-.167-28.005-.5-42-1a1640.972 1640.972 0 0 0-81-1h-8v-66z"/><path style="opacity:1" fill="#425ca9" d="M63.5 57.5c26.669-.167 53.335 0 80 .5-2.514 1.252-5.18 1.752-8 1.5-.14 1.624.527 2.79 2 3.5 2.982.498 5.982.665 9 .5-.161 4.223.506 8.223 2 12 .262 1.478-.071 2.811-1 4-.783-1.788-2.116-2.788-4-3v-4c-5.157 1.664-10.49 2.33-16 2v-3c-5.441-.574-9.108 1.76-11 7-1.545.952-3.212 1.285-5 1a98.433 98.433 0 0 0-.5-14 82.976 82.976 0 0 0-13.5 13l-8 2c-1.092 2.594-2.759 4.76-5 6.5l2 1c-1.5 2.833-3.667 5-6.5 6.5-1.875-6.5-3.042-6.166-3.5 1a84.938 84.938 0 0 0-13 .5c-1.68 3.466-2.68 3.3-3-.5h-3v16h21c3.956.553 3.956 1.386 0 2.5.228.399.562.565 1 .5-.03.997.47 1.664 1.5 2a14.396 14.396 0 0 1 7.5-2c5.056.066 9.89.399 14.5 1 1.762-.444 1.595-.944-.5-1.5.881-.708 1.547-1.542 2-2.5h4a43.824 43.824 0 0 0 2-6c.961 1.765 1.295 3.765 1 6v7a102.714 102.714 0 0 0-16 0v3a1076.84 1076.84 0 0 1-80 .5 26.705 26.705 0 0 1-7-5c2.118-1.142 4.118-1.642 6-1.5.886.825 1.219 1.825 1 3 7.27-.242 14.437-.242 21.5 0 3.79-.636 7.623-1.303 11.5-2a10.76 10.76 0 0 1-2.5-3c-1.626.912-2.459.245-2.5-2h10v-7a21.12 21.12 0 0 0-1-9c-.929 1.189-1.262 2.522-1 4h-4v-20h5v-5h11v-8h-11v-3a854.993 854.993 0 0 0 29-4 3243.445 3243.445 0 0 1-18-2z"/><path style="opacity:1" fill="#294b9d" d="M4.5 57.5v66h-5v-60h3c.095-2.286.762-4.286 2-6z"/><path style="opacity:1" fill="#355ca7" d="M143.5 76.5c.271 6.648 1.271 12.981 3 19h-4c-.765 9.182-2.099 9.182-4 0-1.554 2.433-2.22 5.1-2 8 6.565-1.078 8.732 1.589 6.5 8l-2-6-3 6c-2.234-6.464-3.234-6.13-3 1 .995.566 1.828 1.233 2.5 2-3.493-.498-6.826-.498-10 0v-3c1.562-1.872 2.562-4.205 3-7l2 7c2.533-5.628.867-8.294-5-8v7l-2 1c.763-2.641.93-5.308.5-8-.949 3.878-2.115 3.878-3.5 0-1.496 3.835-2.496 3.835-3 0-.133-3.396-1.133-3.73-3-1l-2-4c-1.419.505-2.085 1.505-2 3 .172.992-.162 1.658-1 2 .449-2.79.449-5.456 0-8-2.186 6.442-4.52 6.609-7 .5a4.932 4.932 0 0 0-3-.5 96.873 96.873 0 0 0-1 16h-3c.253-2.327-.414-4.327-2-6a4.458 4.458 0 0 1 2-1.5c-.228-.399-.562-.565-1-.5a4.932 4.932 0 0 0-.5-3c-2.804 1.844-5.97 2.511-9.5 2-.21-1.924-.877-2.257-2-1-6.97.79-13.97 1.123-21 1-1.614-1.575-3.614-2.241-6-2v-5h3c.32 3.8 1.32 3.966 3 .5a84.938 84.938 0 0 1 13-.5c.458-7.166 1.625-7.5 3.5-1 2.833-1.5 5-3.667 6.5-6.5l-2-1c2.241-1.74 3.908-3.906 5-6.5l8-2a82.976 82.976 0 0 1 13.5-13c.499 4.655.666 9.322.5 14 1.788.285 3.455-.048 5-1 1.892-5.24 5.559-7.574 11-7v3c5.51.33 10.843-.336 16-2v4z"/><path style="opacity:1" fill="#1855a4" d="M251.5 69.5v36a284.963 284.963 0 0 0-32-.5c-3.226 1.106-5.893 2.939-8 5.5a394.281 394.281 0 0 0 28 1.5 257.583 257.583 0 0 0-43 3.5c-.826.951-.992 1.951-.5 3l1-1 3.5 3.5c-1.558.21-2.891.71-4 1.5-15.367.337-30.7-.163-46-1.5l1-1c-4.83-2.49-9.497-4.323-14-5.5-.672-.767-1.505-1.434-2.5-2-.234-7.13.766-7.464 3-1l3-6 2 6c2.232-6.411.065-9.078-6.5-8-.22-2.9.446-5.567 2-8 1.901 9.182 3.235 9.182 4 0h4c-1.729-6.019-2.729-12.352-3-19 1.884.212 3.217 1.212 4 3 .929-1.189 1.262-2.522 1-4a44.012 44.012 0 0 1 7.5 14 4.934 4.934 0 0 0 .5-3c1.7.126 3.2.793 4.5 2a45.824 45.824 0 0 1 14.5-2.5c2.808-.598 5.308-1.765 7.5-3.5.691 2.391 1.691 2.391 3 0a66.738 66.738 0 0 1 3.5 5c1.301-.978 2.468-.644 3.5 1a667.507 667.507 0 0 0 5-3 69.022 69.022 0 0 1 6-15 7.248 7.248 0 0 1 2.5-2c1 1.333 2 1.333 3 0l2-5c1.087 5.24 2.087 5.24 3 0h9v-5l16 2v3h9c.154 2.47 1.154 4.47 3 6z"/><path style="opacity:1" fill="#51659b" d="M32.5 103.5c-1.527-.073-2.527.594-3 2l-2 6a24.939 24.939 0 0 0-.5-7c-1.011-.837-2.178-1.17-3.5-1-1.224.379-1.557 3.046-1 8h-1c.313-3.542-.02-6.875-1-10-1.419-.951-3.085-1.284-5-1a20.677 20.677 0 0 0 1-5c4.383 3.015 9.383 4.349 15 4a8.434 8.434 0 0 1 .5-4c.497 2.646.664 5.313.5 8z"/><path style="opacity:1" fill="#49629a" d="M47.5 95.5v4h4c-.262-1.478.071-2.811 1-4a21.12 21.12 0 0 1 1 9c-3.395-1.477-4.062-1.144-2 1-2.89 1.337-3.557 3.337-2 6h-2c.58-4.149-.086-7.816-2-11a26.326 26.326 0 0 1 2-5z"/><path style="opacity:1" fill="#3e5c8a" d="M119.5 103.5c-.758 2.481-.758 5.148 0 8l-2-2c.423-2.281-.244-3.948-2-5a28.208 28.208 0 0 1-1.5-4c-.383.556-.883.889-1.5 1-.085-1.495.581-2.495 2-3l2 4c1.867-2.73 2.867-2.396 3 1z"/><path style="opacity:1" fill="#506592" d="m45.5 102.5-2 2c-2.667 2-2.667 4 0 6v1h-3c.302-2.559-.032-4.893-1-7-1.068-.934-2.401-1.268-4-1a16.869 16.869 0 0 1 1-8c2 9.333 4 9.333 6 0 .474 2.717 1.474 5.05 3 7z"/><path style="opacity:1" fill="#6c80a4" d="M115.5 104.5c.315 2.711-.352 5.044-2 7h-2c.295-2.235-.039-4.235-1-6l1-2c.838-.342 1.172-1.008 1-2 .617-.111 1.117-.444 1.5-1 .41 1.401.91 2.734 1.5 4z"/><path style="opacity:1" fill="#c7d3e9" d="M45.5 100.5c1.914 3.184 2.58 6.851 2 11h-4v-1c1.194-.47 1.86-1.47 2-3-.14-1.53-.806-2.53-2-3l2-2v-2z"/><path style="opacity:1" fill="#d5e3e8" d="M15.5 100.5c1.915-.284 3.581.049 5 1a19.24 19.24 0 0 1-1 6h-1l1-6h-3v10c-.982-3.462-1.315-7.129-1-11z"/><path style="opacity:1" fill="#9fa6cc" d="m18.5 107.5-2 4v-10h3l-1 6z"/><path style="opacity:1" fill="#859596" d="M20.5 101.5c.98 3.125 1.313 6.458 1 10-1.677-.683-2.343-2.017-2-4a19.24 19.24 0 0 0 1-6z"/><path style="opacity:1" fill="#bdcbea" d="M32.5 103.5c2.68 2.792 2.513 5.458-.5 8-.765-.07-1.265-.403-1.5-1-.951-1.419-1.285-3.085-1-5 .473-1.406 1.473-2.073 3-2z"/><path style="opacity:1" fill="#dcf1fb" d="M35.5 103.5c1.599-.268 2.932.066 4 1-.996-.086-1.83.248-2.5 1a18.437 18.437 0 0 0-.5 6c-.973-2.448-1.306-5.115-1-8z"/><path style="opacity:1" fill="#d6ecf9" d="m111.5 103.5-1 2a43.824 43.824 0 0 1-2 6v-8h3z"/><path style="opacity:1" fill="#8496b1" d="M39.5 104.5c.968 2.107 1.302 4.441 1 7h-4a18.437 18.437 0 0 1 .5-6c.67-.752 1.504-1.086 2.5-1z"/><path style="opacity:1" fill="#c4d8ed" d="M57.5 100.5c2.386-.241 4.386.425 6 2 .435 3.338-.232 6.338-2 9h-4v-11z"/><path style="opacity:1" fill="#506081" d="M59.5 101.5c3.77 2.72 3.937 5.72.5 9a40.939 40.939 0 0 1-.5-9z"/><path style="opacity:1" fill="#b7c7e4" d="M119.5 103.5c.504 3.835 1.504 3.835 3 0 1.385 3.878 2.551 3.878 3.5 0 .43 2.692.263 5.359-.5 8-1.359-.507-2.359-1.507-3-3-.641 1.493-1.641 2.493-3 3-.758-2.852-.758-5.519 0-8z"/><path style="opacity:1" fill="#e5f1fc" d="M27.5 111.5h-1a18.437 18.437 0 0 0-.5-6c-.69-1.238-1.19-1.238-1.5 0l-2 6c-.557-4.954-.224-7.621 1-8 1.322-.17 2.489.163 3.5 1 .497 2.31.663 4.643.5 7z"/><path style="opacity:1" fill="#50606d" d="M30.5 110.5c-.285-1.788.048-3.455 1-5l1 2.5c-.184 1.376-.85 2.209-2 2.5z"/><path style="opacity:1" fill="#a9bbc0" d="M43.5 104.5v6c-2.667-2-2.667-4 0-6z"/><path style="opacity:1" fill="#59628a" d="M43.5 104.5c1.194.47 1.86 1.47 2 3-.14 1.53-.806 2.53-2 3v-6z"/><path style="opacity:1" fill="#b4caee" d="M86.5 102.5a21.12 21.12 0 0 1-1 9 25.87 25.87 0 0 1-1-10c1.123-1.257 1.79-.924 2 1z"/><path style="opacity:1" fill="#bbd2ea" d="M127.5 111.5v-8c5.867-.294 7.533 2.372 5 8l-2-7c-.438 2.795-1.438 5.128-3 7z"/><path style="opacity:1" fill="#6d7e85" d="M26.5 111.5c-1.808-1.418-2.475-3.418-2-6 .31-1.238.81-1.238 1.5 0 .495 1.973.662 3.973.5 6z"/><path style="opacity:1" fill="#b5c9e2" d="M53.5 104.5v7h-4c-1.557-2.663-.89-4.663 2-6-2.062-2.144-1.395-2.477 2-1z"/><path style="opacity:1" fill="#c1d6ee" d="M79.5 114.5c-.438.065-.772-.101-1-.5 3.956-1.114 3.956-1.947 0-2.5a349.752 349.752 0 0 0-1-4c-.047-1.538.62-2.538 2-3 1.068-.934 2.401-1.268 4-1a40.939 40.939 0 0 1-.5 9c-.71 1.473-1.876 2.14-3.5 2z"/><path style="opacity:1" fill="#bacce3" d="M115.5 104.5c1.756 1.052 2.423 2.719 2 5-.787 1.604-2.12 2.271-4 2 1.648-1.956 2.315-4.289 2-7z"/><path style="opacity:1" fill="#415c92" d="M111.5 103.5h-3v8h-3v-1c1.086-.12 1.753-.787 2-2a343.58 343.58 0 0 1-1-4c.116-3.41-1.55-4.744-5-4v11h3c-.453.958-1.119 1.792-2 2.5 2.095.556 2.262 1.056.5 1.5-4.61-.601-9.444-.934-14.5-1a14.396 14.396 0 0 0-7.5 2c-1.03-.336-1.53-1.003-1.5-2 1.624.14 2.79-.527 3.5-2 .498-2.982.665-5.982.5-9-1.599-.268-2.932.066-4 1-1.38.462-2.047 1.462-2 3 .346 1.349.679 2.683 1 4h-2a32.438 32.438 0 0 0-.5-8c-.862 9.266-2.028 9.266-3.5 0-1.23 2.699-1.23 5.365 0 8h-3c1.829-3.352 1.162-6.019-2-8-3.162 1.981-3.829 4.648-2 8h-4c1.768-2.662 2.435-5.662 2-9 7.03.123 14.03-.21 21-1a25.87 25.87 0 0 0 1 10 21.12 21.12 0 0 0 1-9c3.53.511 6.696-.156 9.5-2 .483.948.65 1.948.5 3-1.495-.085-2.495.581-3 2l3 4c-3.874 1.502-3.54 2.169 1 2h3a96.873 96.873 0 0 1 1-16 4.932 4.932 0 0 1 3 .5c2.48 6.109 4.814 5.942 7-.5.449 2.544.449 5.21 0 8z"/><path style="opacity:1" fill="#b3c7e4" d="M88.5 104.5c1.042-1.291 2.208-1.291 3.5 0 .497 2.31.663 4.643.5 7h-5c-.059-2.549.941-4.549 3-6-.457-.798-1.124-1.131-2-1z"/><path style="opacity:1" fill="#495f7f" d="M79.5 104.5c1.194.47 1.86 1.47 2 3l-1 3a9.864 9.864 0 0 1-1-6z"/><path style="opacity:1" fill="#c2ddea" d="M96.5 103.5c.438-.065.772.101 1 .5a4.458 4.458 0 0 0-2 1.5c1.586 1.673 2.253 3.673 2 6-4.54.169-4.874-.498-1-2l-3-4c.505-1.419 1.505-2.085 3-2z"/><path style="opacity:1" fill="#b6c8de" d="M76.5 111.5h-4c-1.23-2.635-1.23-5.301 0-8 1.472 9.266 2.638 9.266 3.5 0 .497 2.646.664 5.313.5 8z"/><path style="opacity:1" fill="#b8cde8" d="M69.5 111.5h-4c-1.829-3.352-1.162-6.019 2-8 3.162 1.981 3.829 4.648 2 8z"/><path style="opacity:1" fill="#475c7e" d="M66.5 105.5c1.15.291 1.816 1.124 2 2.5l-1 2.5c-.952-1.545-1.285-3.212-1-5z"/><path style="opacity:1" fill="#95aabe" d="M106.5 104.5a343.58 343.58 0 0 0 1 4c-.247 1.213-.914 1.88-2 2-.667-5.333-1.333-5.333-2 0-1.303-2.855-1.303-5.855 0-9 1.235.84 2.235 1.84 3 3z"/><path style="opacity:1" fill="#475679" d="M105.5 110.5h-2c.667-5.333 1.333-5.333 2 0z"/><path style="opacity:1" fill="#d9f1fc" d="M106.5 104.5c-.765-1.16-1.765-2.16-3-3-1.303 3.145-1.303 6.145 0 9h2v1h-4v-11c3.45-.744 5.116.59 5 4z"/><path style="opacity:1" fill="#384e9e" d="m125.5 111.5 2-1v4c3.174-.498 6.507-.498 10 0 4.503 1.177 9.17 3.01 14 5.5l-1 1a421.782 421.782 0 0 0 46 1.5l5 2h-10c-10.487-.994-21.154-1.328-32-1-21.693.656-43.026-.011-64-2v-3a102.714 102.714 0 0 1 16 0v-7h2c1.88.271 3.213-.396 4-2l2 2c1.359-.507 2.359-1.507 3-3 .641 1.493 1.641 2.493 3 3z"/><path style="opacity:1" fill="#1e4ea0" d="M251.5 105.5v18a484.723 484.723 0 0 0-44 1h-6l-5-2c1.109-.79 2.442-1.29 4-1.5l-3.5-3.5-1 1c-.492-1.049-.326-2.049.5-3a257.583 257.583 0 0 1 43-3.5 394.281 394.281 0 0 1-28-1.5c2.107-2.561 4.774-4.394 8-5.5a284.963 284.963 0 0 1 32 .5z"/><path style="opacity:1" fill="#4c5e87" d="M84.5 127.5h11v3l-8 2c.02 1.643-.647 2.976-2 4l2 2-1 1a11.254 11.254 0 0 0-3.5-1 40.897 40.897 0 0 1-9.5 2.5 4.934 4.934 0 0 0 3 .5c-.302 2.559.032 4.893 1 7a60.94 60.94 0 0 0 .5 11c4.541 6.825 8.541 6.492 12-1 .498-3.317.665-6.65.5-10 1.278-.282 2.278-.949 3-2-.16 1.699.007 3.366.5 5 2.838 1.808 5.005 4.142 6.5 7-1.019 3.097-3.019 3.763-6 2-1.107 2.269-.273 3.602 2.5 4a57.902 57.902 0 0 0 6.5-3c-.058 5.756-2.391 7.09-7 4a4.451 4.451 0 0 0-1.5 2c-2.697-.966-5.53-.966-8.5 0a87.185 87.185 0 0 1-10-3c.529 3.104-.471 5.437-3 7-.929 1.189-1.262 2.522-1 4 1.644-.214 3.144.12 4.5 1a31.774 31.774 0 0 1 2.5 7c-2.837-2.601-5.67-2.601-8.5 0a60.94 60.94 0 0 1-.5-11h-3v3c-1.844-.704-2.344-2.037-1.5-4 1.7-.906 3.533-1.239 5.5-1 .901-3.741-.432-5.741-4-6v-1h4c-.166-5.011 0-10.011.5-15 2.172-1.009 3.338-2.676 3.5-5h-3c-.438.065-.772-.101-1-.5 1.885-4.95 5.218-7.283 10-7 1.14-.741 1.14-1.575 0-2.5-5.657.162-11.324.162-17 0 5.635-.644 11.301-1.811 17-3.5 1.442-.377 2.442-1.21 3-2.5z"/><path style="opacity:1" fill="#655089" d="M159.5 124.5c-.273 1.951.393 3.451 2 4.5-1.771.535-2.104 1.369-1 2.5 9.496 5.972 18.162 4.972 26-3 1.545-.952 3.212-1.285 5-1-2.93 4.732-7.263 7.565-13 8.5 1.801.317 2.134.984 1 2-2.466-.07-4.8.096-7 .5-5.532-2.141-11.032-3.475-16.5-4-8.32.988-8.154 2.321.5 4a6.846 6.846 0 0 0 1 4c-.825.886-1.825 1.219-3 1-3.829.427-7.496.427-11 0v20l-4-1c.709-.904 1.709-1.237 3-1 .322-6.154-.345-12.154-2-18h-3l-2-18c7.816-.992 15.816-1.326 24-1z"/><path style="opacity:1" fill="#5f3c81" d="M207.5 124.5a297.603 297.603 0 0 1 39 1.5l1 1-15 1 2 2a49.38 49.38 0 0 1-15 3.5c-7.425-1.245-10.758 2.088-10 10-.838.342-1.172 1.008-1 2 2.691 2.755 2.524 5.422-.5 8-.21-1.558-.71-2.891-1.5-4-.272-3.232-1.938-5.232-5-6-2.373-3.042-1.373-4.709 3-5 1.494.209 2.661.876 3.5 2a94.303 94.303 0 0 1 3.5-9c3.982-1.171 7.982-1.171 12 0v-4h-14c.029 3.273-1.304 3.94-4 2-4.211 2.849-8.877 4.515-14 5-.262-1.478.071-2.811 1-4a12.403 12.403 0 0 0 4-2.5c4.173-.329 7.84-1.496 11-3.5z"/><path style="opacity:1" fill="#693a86" d="M201.5 143.5h-11c-.333 6.667-.667 6.667-1 0a4.934 4.934 0 0 1-3-.5c1.405-1.269 3.071-1.769 5-1.5v-7c5.123-.485 9.789-2.151 14-5 2.696 1.94 4.029 1.273 4-2h14v4c-4.018-1.171-8.018-1.171-12 0a94.303 94.303 0 0 0-3.5 9c-.839-1.124-2.006-1.791-3.5-2-4.373.291-5.373 1.958-3 5z"/><path style="opacity:1" fill="#615883" d="M159.5 123.5c10.846-.328 21.513.006 32 1v3c-1.788-.285-3.455.048-5 1-7.838 7.972-16.504 8.972-26 3-1.104-1.131-.771-1.965 1-2.5-1.607-1.049-2.273-2.549-2-4.5v-1z"/><path style="opacity:1" fill="#493b86" d="M207.5 124.5a484.723 484.723 0 0 1 44-1v52h-12v-5a140.39 140.39 0 0 0-16-4c.51-2.888-.156-5.221-2-7-.787-1.604-2.12-2.271-4-2 .284 1.915-.049 3.581-1 5-.518-6.019.149-11.852 2-17.5-.07-.765-.403-1.265-1-1.5h-3c-1.075-4.438.592-6.438 5-6v-4a49.38 49.38 0 0 0 15-3.5l-2-2 15-1-1-1a297.603 297.603 0 0 0-39-1.5z"/><path style="opacity:1" fill="#60709f" d="M12.5 123.5c27.172-.331 54.172.002 81 1-3.285.428-6.285 1.428-9 3-.558 1.29-1.558 2.123-3 2.5-5.699 1.689-11.365 2.856-17 3.5a144.062 144.062 0 0 0-20 1 179.413 179.413 0 0 0-17.5-5l-1.5-1 6-2-8-1c-3.113.062-5.946.729-8.5 2a12.648 12.648 0 0 1-2.5-4z"/><path style="opacity:1" fill="#59436d" d="M219.5 133.5v1a11.988 11.988 0 0 0-6 1c-1.113 2.941-2.446 5.608-4 8-.758-7.912 2.575-11.245 10-10z"/><path style="opacity:1" fill="#527aa0" d="M4.5 123.5h8a12.648 12.648 0 0 0 2.5 4c2.554-1.271 5.387-1.938 8.5-2l8 1-6 2 1.5 1a179.413 179.413 0 0 1 17.5 5c-.453.958-1.12 1.792-2 2.5.228.399.562.565 1 .5a18.489 18.489 0 0 1-2 3.5c.88.708 1.547 1.542 2 2.5h-10a10.098 10.098 0 0 1-1.5 6c-.5-4.989-.666-9.989-.5-15-4.14.189-8.14.856-12 2-1.068-.934-2.401-1.268-4-1v28h3c.904-.709 1.237-1.709 1-3 1.418 3.434.084 5.101-4 5v5h6a41.742 41.742 0 0 1 1 9c-.806-1.497-1.472-3.164-2-5-1.189-.929-2.522-1.262-4-1 .315 3.871-.018 7.538-1 11v-9c-2.776.411-3.443-.422-2-2.5a1397.054 1397.054 0 0 1-3-29.5 256.88 256.88 0 0 0-1 32h-3c.651-16.368-.015-32.368-2-48v-4z"/><path style="opacity:1" fill="#5f4380" d="M191.5 124.5h16c-3.16 2.004-6.827 3.171-11 3.5a12.403 12.403 0 0 1-4 2.5c-.929 1.189-1.262 2.522-1 4v7c-1.929-.269-3.595.231-5 1.5a4.934 4.934 0 0 0 3 .5c.333 6.667.667 6.667 1 0h3a47.955 47.955 0 0 0-2.5 12c-1.706.808-2.539 2.141-2.5 4h-11c-.838-.342-1.172-1.008-1-2v-3h9c.284-1.915-.049-3.581-1-5-.424-5.818-3.424-7.485-9-5-2.615 3.54-3.615 7.54-3 12v3h-7c-.722-.418-1.222-1.084-1.5-2-.667-3-.667-6 0-9 1.789-1.729 3.956-2.396 6.5-2v-3c-5.783-1.028-9.283 1.305-10.5 7a24.935 24.935 0 0 0-.5 7v7c4.161 1.563 8.495 2.229 13 2-1.346 1.627-2.846 2.294-4.5 2l-6-2-1 1c-1.471-2.372-2.637-2.372-3.5 0 1.492 2.472 2.158 5.139 2 8a664.116 664.116 0 0 0 24 4.5c.837 1.011 1.17 2.178 1 3.5-2.936-2.156-6.103-2.49-9.5-1-.688.832-.521 1.498.5 2 4.595-1.686 6.595-.02 6 5-2.688-.334-5.021.332-7 2h-3c.415 2.448-.585 3.781-3 4-4.585-1.355-5.251-3.855-2-7.5a22.725 22.725 0 0 0 7-3 4.457 4.457 0 0 1-2-1.5c1.253-3.42-.08-4.753-4-4-7.007 1.019-9.674 5.019-8 12-1.61 2.703-2.61 5.703-3 9v-23c0-2-1-3-3-3-1.094-1.082-2.427-1.748-4-2-2.207 2.014-4.873 3.014-8 3v6h-1c-1.291.237-2.291-.096-3-1h3a12.93 12.93 0 0 0-.5-5c-3.56-4.425-7.726-7.759-12.5-10 1.325-1.453 2.158-1.119 2.5 1l1-1c4.309 3.192 7.142 2.192 8.5-3l4 1c.061 4.822 1.227 5.155 3.5 1 .171-5.364.671-10.698 1.5-16a7.248 7.248 0 0 1 2.5 2c.176 4.188.676 8.188 1.5 12 .709.904 1.709 1.237 3 1a113.185 113.185 0 0 0-1-20c1.175.219 2.175-.114 3-1a6.846 6.846 0 0 1-1-4c-8.654-1.679-8.82-3.012-.5-4 5.468.525 10.968 1.859 16.5 4 2.2-.404 4.534-.57 7-.5 1.134-1.016.801-1.683-1-2 5.737-.935 10.07-3.768 13-8.5v-3z"/><path style="opacity:1" fill="#4c518b" d="M93.5 124.5c13.995.5 27.995.833 42 1l2 18h-7c-3.951-.723-5.285.61-4 4a10.258 10.258 0 0 1-1.5 4l-1-19c-1.113-1.211-2.28-1.211-3.5 0a31.177 31.177 0 0 1-4.5 6c-3.065-2.269-3.898-5.102-2.5-8.5-.184-1.376-.851-2.209-2-2.5-3.24-1.347-6.74-2.014-10.5-2-2.295.047-4.129.713-5.5 2h-11c2.715-1.572 5.715-2.572 9-3z"/><path style="opacity:1" fill="#e6f2f6" d="M19.5 136.5c2.49 6.318 4.99 12.651 7.5 19 .5-6.658.666-13.325.5-20h3v28h-4a285.212 285.212 0 0 0-7.5-22 242.43 242.43 0 0 0-.5 22h-3v-28c1.599-.268 2.932.066 4 1z"/><path style="opacity:1" fill="#4d5a8b" d="M111.5 127.5v16c-6.465 4.825-7.631 10.825-3.5 18 1.264 2.107 3.097 3.107 5.5 3-.12 1.086-.787 1.753-2 2l-2-1c-2.309-2.998-4.309-5.998-6-9-2.34-2.672-4.673-5.339-7-8 1.522-1.783 3.523-2.449 6-2v-3a24.934 24.934 0 0 0-7 .5c-.566.995-1.233 1.828-2 2.5-.722 1.051-1.722 1.718-3 2-2.105-4.602-5.772-6.269-11-5 .109 2.014-.558 3.68-2 5-.968-2.107-1.302-4.441-1-7a4.934 4.934 0 0 1-3-.5 40.897 40.897 0 0 0 9.5-2.5c1.226.145 2.393.478 3.5 1l1-1-2-2c1.353-1.024 2.02-2.357 2-4l8-2v-3c1.371-1.287 3.205-1.953 5.5-2 3.76-.014 7.26.653 10.5 2z"/><path style="opacity:1" fill="#54547e" d="M111.5 127.5c1.149.291 1.816 1.124 2 2.5-1.398 3.398-.565 6.231 2.5 8.5a31.177 31.177 0 0 0 4.5-6c1.22-1.211 2.387-1.211 3.5 0l1 19a10.258 10.258 0 0 0 1.5-4c-1.285-3.39.049-4.723 4-4a16.58 16.58 0 0 0-2.5 4 72.367 72.367 0 0 0-.5 12c-2.036 1.706-3.036 4.039-3 7-1.967.239-3.801-.094-5.5-1a182.468 182.468 0 0 0-1.5-19c-2.172 4.883-2.506 9.883-1 15-3.308.526-5.474-.807-6.5-4-2.035-6.598.132-10.932 6.5-13-1.545-.952-3.212-1.285-5-1v-16z"/><path style="opacity:1" fill="#e0e8f6" d="M119.5 136.5h4c.278 1.846-.389 3.18-2 4-1.611-.82-2.278-2.154-2-4z"/><path style="opacity:1" fill="#577690" d="M37.5 143.5c-2.59 4.269-3.59 8.936-3 14h-3a32.438 32.438 0 0 1-.5 8 66.705 66.705 0 0 1-5.5 2 281.98 281.98 0 0 1-4.5-14c-1.202 2.177-1.702 4.511-1.5 7 .237 1.291-.096 2.291-1 3-.166-7.341 0-14.674.5-22a285.212 285.212 0 0 1 7.5 22h4v-28h-3c.166 6.675 0 13.342-.5 20-2.51-6.349-5.01-12.682-7.5-19a50.107 50.107 0 0 1 12-2c-.166 5.011 0 10.011.5 15a10.098 10.098 0 0 0 1.5-6h4z"/><path style="opacity:1" fill="#1d5f8c" d="M3.5 123.5h1v100h-1v-44h-4v-1h4v-55z"/><path style="opacity:1" fill="#f8f3fb" d="M219.5 134.5v3c-4.408-.438-6.075 1.562-5 6h3c-.321 1.548-1.321 2.215-3 2v18h-3v-18h-3c-.172-.992.162-1.658 1-2 1.554-2.392 2.887-5.059 4-8a11.988 11.988 0 0 1 6-1z"/><path style="opacity:1" fill="#e5e1e7" d="M119.5 143.5h4v20h-4v-20z"/><path style="opacity:1" fill="#eee8f2" d="M165.5 159.5c1.29 1.435 2.956 2.435 5 3-2.265 1.147-4.598 1.314-7 .5a59.93 59.93 0 0 1-4-5.5c-.163-2.357.003-4.69.5-7 1.217-5.695 4.717-8.028 10.5-7v3c-2.544-.396-4.711.271-6.5 2-.667 3-.667 6 0 9 .278.916.778 1.582 1.5 2z"/><path style="opacity:1" fill="#e9f1f6" d="M90.5 148.5a50.442 50.442 0 0 1-.5 10c-3.459 7.492-7.459 7.825-12 1a60.94 60.94 0 0 1-.5-11c1.442-1.32 2.109-2.986 2-5 5.228-1.269 8.895.398 11 5z"/><path style="opacity:1" fill="#e4f3f8" d="M37.5 143.5h6c2.96 2.6 4.294 5.933 4 10h-10c-.268 6.08 2.398 8.414 8 7 .886.825 1.219 1.825 1 3-5.425 1.201-9.425-.465-12-5v-1c-.59-5.064.41-9.731 3-14z"/><path style="opacity:1" fill="#637489" d="M39.5 145.5c3.568.259 4.901 2.259 4 6h-6c.104-2.203.77-4.203 2-6z"/><path style="opacity:1" fill="#e5ecf2" d="M103.5 156.5v5a57.902 57.902 0 0 1-6.5 3c-2.773-.398-3.607-1.731-2.5-4 2.981 1.763 4.981 1.097 6-2-1.495-2.858-3.662-5.192-6.5-7a12.935 12.935 0 0 1-.5-5c.767-.672 1.434-1.505 2-2.5a24.934 24.934 0 0 1 7-.5v3c-2.477-.449-4.478.217-6 2 2.327 2.661 4.66 5.328 7 8z"/><path style="opacity:1" fill="#f2eef8" d="M130.5 143.5h7c1.681 3.082 2.348 6.415 2 10h-9c-.902 6.1 1.764 9.1 8 9-1.059 1.196-2.393 1.863-4 2-2.813-.571-5.146-1.904-7-4v-1a72.367 72.367 0 0 1 .5-12 16.58 16.58 0 0 1 2.5-4z"/><path style="opacity:1" fill="#555462" d="M132.5 145.5c3.276.622 4.609 2.622 4 6h-6c-.247-2.358.419-4.358 2-6z"/><path style="opacity:1" fill="#604f77" d="M152.5 162.5c-.824-3.812-1.324-7.812-1.5-12a7.248 7.248 0 0 0-2.5-2 130.373 130.373 0 0 0-1.5 16c-2.273 4.155-3.439 3.822-3.5-1h3c-.166-5.344.001-10.677.5-16 1.667-1.333 3.333-1.333 5 0 .499 4.989.666 9.989.5 15z"/><path style="opacity:1" fill="#f6f2f9" d="M154.5 143.5a113.185 113.185 0 0 1 1 20c-1.291.237-2.291-.096-3-1a112.97 112.97 0 0 0-.5-15c-1.667-1.333-3.333-1.333-5 0a128.507 128.507 0 0 0-.5 16h-3v-20c3.504.427 7.171.427 11 0z"/><path style="opacity:1" fill="#f3eaf6" d="M184.5 149.5v4h-9c-.268 1.599.066 2.932 1 4-.172.992.162 1.658 1 2 1.95 1.526 4.283 2.526 7 3-6.641 3.346-10.641 1.346-12-6-.615-4.46.385-8.46 3-12 5.576-2.485 8.576-.818 9 5z"/><path style="opacity:1" fill="#665080" d="M177.5 145.5c3.568.259 4.901 2.259 4 6h-6c.104-2.203.77-4.203 2-6z"/><path style="opacity:1" fill="#a799b0" d="M184.5 149.5c.951 1.419 1.284 3.085 1 5h-9v3c-.934-1.068-1.268-2.401-1-4h9v-4z"/><path style="opacity:1" fill="#4f5c87" d="M82.5 146.5c1.25.077 2.083.744 2.5 2a60.94 60.94 0 0 1 .5 11h-4a100.218 100.218 0 0 1-1-7c-.139-2.383.528-4.383 2-6z"/><path style="opacity:1" fill="#e5e5ec" d="M111.5 143.5c1.788-.285 3.455.048 5 1-6.368 2.068-8.535 6.402-6.5 13 1.026 3.193 3.192 4.526 6.5 4-.31 1.644-1.31 2.644-3 3-2.403.107-4.236-.893-5.5-3-4.131-7.175-2.965-13.175 3.5-18z"/><path style="opacity:1" fill="#634f7c" d="M137.5 143.5h3c1.655 5.846 2.322 11.846 2 18-1.291-.237-2.291.096-3 1-1.358 5.192-4.191 6.192-8.5 3l-1 1c-.342-2.119-1.175-2.453-2.5-1v-5c1.854 2.096 4.187 3.429 7 4 1.607-.137 2.941-.804 4-2-6.236.1-8.902-2.9-8-9h9c.348-3.585-.319-6.918-2-10z"/><path style="opacity:1" fill="#09abd2" d="M-.5 123.5h4v55h-4v-55z"/><path style="opacity:1" fill="#5b6676" d="M82.5 146.5c.886-1.276 1.886-1.276 3 0 2.457 4.496 2.623 9.163.5 14-1.915 1.416-3.415 1.082-4.5-1h4a60.94 60.94 0 0 0-.5-11c-.417-1.256-1.25-1.923-2.5-2z"/><path style="opacity:1" fill="#e0eaef" d="M72.5 143.5h3c-.162 2.324-1.328 3.991-3.5 5-.5 4.989-.666 9.989-.5 15h-4v-20c1.624-.14 2.79.527 3.5 2 .717-.544 1.217-1.211 1.5-2z"/><path style="opacity:1" fill="#524176" d="M193.5 143.5h4c-3.105 2.727-4.438 6.227-4 10.5-.807 6.471 1.859 9.805 8 10a6.978 6.978 0 0 0 3.5-2.5c1.354-3.863 1.854-7.863 1.5-12 .79 1.109 1.29 2.442 1.5 4 3.024-2.578 3.191-5.245.5-8h3v18h3v-18c1.679.215 2.679-.452 3-2 .597.235.93.735 1 1.5-1.851 5.648-2.518 11.481-2 17.5v4c-3.246.365-5.912-.635-8-3a34.464 34.464 0 0 1-10.5 3l-4-2-1 2a22.755 22.755 0 0 0-4-5l-3.5 4.5a60.826 60.826 0 0 0-10 2.5c.05-2.09-.95-3.423-3-4-.963.47-.963 1.137 0 2-4.505.229-8.839-.437-13-2v-7a59.93 59.93 0 0 0 4 5.5c2.402.814 4.735.647 7-.5-2.044-.565-3.71-1.565-5-3h7v-3c1.359 7.346 5.359 9.346 12 6-2.717-.474-5.05-1.474-7-3h11c-.039-1.859.794-3.192 2.5-4a47.955 47.955 0 0 1 2.5-12z"/><path style="opacity:1" fill="#f2eaf7" d="M197.5 143.5h4c3.062.768 4.728 2.768 5 6 .354 4.137-.146 8.137-1.5 12a6.978 6.978 0 0 1-3.5 2.5c-6.141-.195-8.807-3.529-8-10-.438-4.273.895-7.773 4-10.5z"/><path style="opacity:1" fill="#4d3982" d="M202.5 157.5v2h-4a25.879 25.879 0 0 1 1-10c2.606 1.918 3.606 4.584 3 8z"/><path style="opacity:1" fill="#514568" d="M202.5 157.5c.606-3.416-.394-6.082-3-8a25.879 25.879 0 0 0-1 10h4c-.814 1.773-2.148 2.273-4 1.5-3.068-5.608-2.568-10.775 1.5-15.5a9.568 9.568 0 0 1 3 3c.805 3.196.638 6.196-.5 9z"/><path style="opacity:1" fill="#556f8f" d="M60.5 143.5c.166 5.344 0 10.677-.5 16-1.396 2.027-3.062 2.36-5 1-.5-5.657-.666-11.324-.5-17h-4c-.166 5.344 0 10.677.5 16 1.757 5.03 4.757 6.03 9 3 1.011.837 2.178 1.17 3.5 1-1.532 1.956-3.699 2.956-6.5 3a29.2 29.2 0 0 0-7.5-1c-.178-3.602-1.178-3.602-3 0-3.113.754-6.113 1.087-9 1-2.138-.929-3.304-2.596-3.5-5-.654 1.196-1.154 1.196-1.5 0 .693-1.018 1.36-2.018 2-3 2.575 4.535 6.575 6.201 12 5 .219-1.175-.114-2.175-1-3-5.602 1.414-8.268-.92-8-7h10c.294-4.067-1.04-7.4-4-10-.453-.958-1.12-1.792-2-2.5a18.489 18.489 0 0 0 2-3.5 9.107 9.107 0 0 0 5-1 7.292 7.292 0 0 1 3 2 14.72 14.72 0 0 1-5 1.5c.992 2.286 2.826 2.786 5.5 1.5a33.33 33.33 0 0 0 8.5 2z"/><path style="opacity:1" fill="#e4ecf4" d="M60.5 143.5h3v20c-1.322.17-2.489-.163-3.5-1-4.243 3.03-7.243 2.03-9-3a128.43 128.43 0 0 1-.5-16h4c-.166 5.676 0 11.343.5 17 1.938 1.36 3.604 1.027 5-1 .5-5.323.666-10.656.5-16z"/><path style="opacity:1" fill="#534587" d="M127.5 159.5v6c4.774 2.241 8.94 5.575 12.5 10a12.93 12.93 0 0 1 .5 5h-3c-2.585-.572-5.251-.739-8-.5-1.333-1.333-1.333-2.667 0-4-3.463-1.035-6.296-.202-8.5 2.5-.671-.752-1.504-1.086-2.5-1 .661-2.387.161-4.72-1.5-7-.667-1.333-.667-2.667 0-4 2.792 2.435 5.292 2.435 7.5 0-.036-2.961.964-5.294 3-7z"/><path style="opacity:1" fill="#4d4c88" d="M124.5 166.5c-2.208 2.435-4.708 2.435-7.5 0-.667 1.333-.667 2.667 0 4 1.661 2.28 2.161 4.613 1.5 7a29.291 29.291 0 0 0-6.5 2c-2.756.076-3.923-1.257-3.5-4h-3c.175 2.121-.159 4.121-1 6-.333 1.333-.667 1.333-1 0-2.171-1.997-3.838-4.497-5-7.5a3.942 3.942 0 0 1 1-2 54.628 54.628 0 0 1 7-2l-3-1c1.318-3.269 1.318-6.435 0-9.5v-3c1.691 3.002 3.691 6.002 6 9l2 1c1.213-.247 1.88-.914 2-2 1.69-.356 2.69-1.356 3-3-1.506-5.117-1.172-10.117 1-15a182.468 182.468 0 0 1 1.5 19c1.699.906 3.533 1.239 5.5 1z"/><path style="opacity:1" fill="#f6e6f9" d="M153.5 174.5c2 0 3 1 3 3-3.333 1.333-4.333.333-3-3z"/><path style="opacity:1" fill="#5c3c85" d="M221.5 159.5c-1.633 3.591-1.133 6.924 1.5 10a8.43 8.43 0 0 1 .5 4 57.403 57.403 0 0 1 9 2 32.462 32.462 0 0 1-.5 8 4.934 4.934 0 0 1-.5-3h-4v6c3.651-.338 5.317 1.328 5 5h-9v5a162.597 162.597 0 0 0-18 .5c-2.379 3.183-2.379 6.516 0 10-2.31.497-4.643.663-7 .5.363-2.411-.637-3.911-3-4.5 1.291-1.292 1.291-2.458 0-3.5a223.464 223.464 0 0 0-1-28c-1.624.14-2.79-.527-3.5-2-1.697.864-2.863 2.197-3.5 4a40.282 40.282 0 0 1 1 12h-4v-2c.17-1.322-.163-2.489-1-3.5a664.116 664.116 0 0 1-24-4.5c.158-2.861-.508-5.528-2-8 .863-2.372 2.029-2.372 3.5 0l1-1 6 2c1.654.294 3.154-.373 4.5-2-.963-.863-.963-1.53 0-2 2.05.577 3.05 1.91 3 4a60.826 60.826 0 0 1 10-2.5l3.5-4.5a22.755 22.755 0 0 1 4 5l1-2 4 2a34.464 34.464 0 0 0 10.5-3c2.088 2.365 4.754 3.365 8 3v-4c.951-1.419 1.284-3.085 1-5 1.88-.271 3.213.396 4 2z"/><path style="opacity:1" fill="#4c4977" d="M118.5 177.5c.996-.086 1.829.248 2.5 1 2.204-2.702 5.037-3.535 8.5-2.5-1.333 1.333-1.333 2.667 0 4 2.749-.239 5.415-.072 8 .5.709.904 1.709 1.237 3 1 1.688 5.492 2.355 11.159 2 17-.968-2.107-1.302-4.441-1-7h-3a98.432 98.432 0 0 1-.5 14 4.457 4.457 0 0 0-1.5-2c-2.945-.263-5.945.07-9 1v-3a462.937 462.937 0 0 0-6 4c-1.883-.376-3.383-1.376-4.5-3a45.342 45.342 0 0 1 .5-11c.088-2.212-.412-4.212-1.5-6-1.449 5.481-1.949 11.148-1.5 17-1.915.284-3.581-.049-5-1h3a112.97 112.97 0 0 1 .5-15c1.312-2.158 2.978-2.491 5-1 .499 5.323.666 10.656.5 16 1.068.934 2.401 1.268 4 1v-10c1.325 1.453 2.158 1.119 2.5-1 .997-3.301 1.33-6.634 1-10-.667-1.333-1.333-1.333-2 0-.179 3.525-.679 6.859-1.5 10 .295-2.235-.039-4.235-1-6-1.977-4.465-4.977-5.132-9-2-2.351-1.729-5.018-2.396-8-2 .841-1.879 1.175-3.879 1-6h3c-.423 2.743.744 4.076 3.5 4a29.291 29.291 0 0 1 6.5-2z"/><path style="opacity:1" fill="#ebf1f6" d="M103.5 181.5c.333 1.333.667 1.333 1 0 2.982-.396 5.649.271 8 2 4.023-3.132 7.023-2.465 9 2v16h-3a128.507 128.507 0 0 0-.5-16c-2.022-1.491-3.688-1.158-5 1a112.97 112.97 0 0 0-.5 15h-3v-1a112.97 112.97 0 0 0-.5-15c-2.022-1.491-3.688-1.158-5 1 .122 5.76-.711 11.093-2.5 16h-1v-21h3z"/><path style="opacity:1" fill="#e6f2f5" d="M22.5 179.5c1.1 5.327 2.266 10.66 3.5 16l5-20c.71-1.473 1.876-2.14 3.5-2 1.519 9.795 1.852 19.462 1 29-1.855-6.267-3.022-12.933-3.5-20a391.84 391.84 0 0 0-4.5 19h-3a1367.451 1367.451 0 0 1-5.5-23c-.5 7.993-.666 15.993-.5 24h-3v-18c.982-3.462 1.315-7.129 1-11 1.478-.262 2.811.071 4 1 .528 1.836 1.194 3.503 2 5z"/><path style="opacity:1" fill="#e7f2f5" d="M61.5 181.5h3v3h-4c-.166 4.679 0 9.345.5 14 1.706.808 2.54 2.141 2.5 4-1.915.284-3.581-.049-5-1a84.111 84.111 0 0 1-1-17h-3v-3h3v-5h3c-.285 1.915.049 3.581 1 5z"/><path style="opacity:1" fill="#48408a" d="M122.5 192.5v-1c.821-3.141 1.321-6.475 1.5-10 .667-1.333 1.333-1.333 2 0 .33 3.366-.003 6.699-1 10-.342 2.119-1.175 2.453-2.5 1z"/><path style="opacity:1" fill="#968faa" d="M153.5 181.5v20h3c-1.068.934-2.401 1.268-4 1-.325-7.187.009-14.187 1-21z"/><path style="opacity:1" fill="#f3f7fa" d="M79.5 183.5v18h-3v-17c-2.266-.359-4.1.308-5.5 2-.5 4.989-.666 9.989-.5 15h-3v-29h3a60.94 60.94 0 0 0 .5 11c2.83-2.601 5.663-2.601 8.5 0z"/><path style="opacity:1" fill="#9697b9" d="M121.5 185.5c.961 1.765 1.295 3.765 1 6v11c-1.599.268-2.932-.066-4-1h3v-16z"/><path style="opacity:1" fill="#513c7c" d="M147.5 184.5h3v-3h-3v-6h4v21h-4v-12z"/><path style="opacity:1" fill="#eff0f7" d="M127.5 201.5c-3.356-7.286-1.023-11.286 7-12 .299-4.714-1.701-6.38-6-5-.886-.825-1.219-1.825-1-3 2.357-.163 4.69.003 7 .5 1.167.5 2 1.333 2.5 2.5.499 5.991.666 11.991.5 18-3.338-.331-6.671-.664-10-1z"/><path style="opacity:1" fill="#52426e" d="M153.5 174.5c-1.333 3.333-.333 4.333 3 3v4h-3c-.991 6.813-1.325 13.813-1 21h-3v-3h-3c-.321-5.195.013-10.195 1-15v12h4v-21h-4v6c-1.499-1.178-2.499-2.845-3-5-1.435 1.447-2.435 3.114-3 5v-6c3.127.014 5.793-.986 8-3 1.573.252 2.906.918 4 2z"/><path style="opacity:1" fill="#e9e5f0" d="M147.5 181.5h3v3h-3c-.987 4.805-1.321 9.805-1 15h3v3c-2.121.175-4.121-.159-6-1a5.727 5.727 0 0 0-1-3c.355-5.841-.312-11.508-2-17h1c.565-1.886 1.565-3.553 3-5 .501 2.155 1.501 3.822 3 5z"/><path style="opacity:1" fill="#123f6d" d="M-.5 179.5h4v51c-.897 1.098-1.73 1.098-2.5 0-.232 1.237-.732 2.237-1.5 3v-54z"/><path style="opacity:1" fill="#f5ecfb" d="M153.5 181.5h3v20h-3v-20z"/><path style="opacity:1" fill="#563e73" d="M195.5 199.5a17.886 17.886 0 0 1-3 6c-5.375-3.119-9.375-2.453-12 2-1.776-.815-2.443-1.982-2-3.5a99.899 99.899 0 0 1-8-1.5v-3a9.108 9.108 0 0 1-5-1c-2.539-4.557-2.539-9.057 0-13.5a12.93 12.93 0 0 1 5-.5v-3c-6.944-.39-10.277 2.943-10 10-.886 6.443 1.781 10.109 8 11-.291 1.149-1.124 1.816-2.5 2a456.34 456.34 0 0 0-6.5-3v-10c-1.674-6.981.993-10.981 8-12 3.92-.753 5.253.58 4 4a4.457 4.457 0 0 0 2 1.5 22.725 22.725 0 0 1-7 3c-3.251 3.645-2.585 6.145 2 7.5 2.415-.219 3.415-1.552 3-4h3c-2.8 3.473-2.633 6.807.5 10 2.787.779 5.287.779 7.5 0 .709.904 1.709 1.237 3 1v-17h3a40.282 40.282 0 0 0-1-12c.637-1.803 1.803-3.136 3.5-4 .71 1.473 1.876 2.14 3.5 2a223.464 223.464 0 0 1 1 28z"/><path style="opacity:1" fill="#9d8aab" d="M184.5 185.5h1v17c-1.291.237-2.291-.096-3-1 1.946-4.896 2.613-10.229 2-16z"/><path style="opacity:1" fill="#f6ebf5" d="M184.5 183.5v2c.613 5.771-.054 11.104-2 16-2.213.779-4.713.779-7.5 0-3.133-3.193-3.3-6.527-.5-10 1.979-1.668 4.312-2.334 7-2 .595-5.02-1.405-6.686-6-5-1.021-.502-1.188-1.168-.5-2 3.397-1.49 6.564-1.156 9.5 1z"/><path style="opacity:1" fill="#f2e5f7" d="M170.5 202.5h-2c-6.219-.891-8.886-4.557-8-11-.277-7.057 3.056-10.39 10-10v3a12.93 12.93 0 0 0-5 .5c-2.539 4.443-2.539 8.943 0 13.5a9.108 9.108 0 0 0 5 1v3z"/><path style="opacity:1" fill="#8a739a" d="M192.5 172.5c.994 9.819 1.327 19.819 1 30-1.599.268-2.932-.066-4-1h3v-29z"/><path style="opacity:1" fill="#fcf1fa" d="M192.5 172.5v29h-3v-29h3z"/><path style="opacity:1" fill="#513d86" d="M221.5 159.5c1.844 1.779 2.51 4.112 2 7a140.39 140.39 0 0 1 16 4v5h12v26a756.51 756.51 0 0 0-33 6.5 33.816 33.816 0 0 0-5 6 18.453 18.453 0 0 1-6 .5v4a291.573 291.573 0 0 0-16-1v6h-24c.871-2.772.871-5.438 0-8-1.788.285-3.455-.048-5-1-1.056-1.794-1.056-3.794 0-6a52.141 52.141 0 0 1 10-1.5c-1.984-1.81-4.151-1.976-6.5-.5a58.095 58.095 0 0 1-6.5-3 75.354 75.354 0 0 1-16 1v-3c1.879.841 3.879 1.175 6 1h3c1.599.268 2.932-.066 4-1v-1c.39-3.297 1.39-6.297 3-9v10a456.34 456.34 0 0 1 6.5 3c1.376-.184 2.209-.851 2.5-2h2a99.899 99.899 0 0 0 8 1.5c-.443 1.518.224 2.685 2 3.5 2.625-4.453 6.625-5.119 12-2a17.886 17.886 0 0 0 3-6c1.291 1.042 1.291 2.208 0 3.5 2.363.589 3.363 2.089 3 4.5 2.357.163 4.69-.003 7-.5-2.379-3.484-2.379-6.817 0-10a162.597 162.597 0 0 1 18-.5v-5h9c.317-3.672-1.349-5.338-5-5v-6h4a4.934 4.934 0 0 0 .5 3c.497-2.646.664-5.313.5-8a57.403 57.403 0 0 0-9-2 8.43 8.43 0 0 0-.5-4c-2.633-3.076-3.133-6.409-1.5-10z"/><path style="opacity:1" fill="#56416f" d="M177.5 191.5h4a24.935 24.935 0 0 1-.5 7c-1.356.88-2.856 1.214-4.5 1a24.93 24.93 0 0 1 1-8z"/><path style="opacity:1" fill="#e4eff6" d="M88.5 181.5c5.368-.468 8.034 2.032 8 7.5-.014 1.385-.348 2.551-1 3.5h-8c-.36 5.639 2.306 8.306 8 8-4.126 3.009-7.626 2.342-10.5-2-2.658-6.619-1.492-12.286 3.5-17z"/><path style="opacity:1" fill="#4b4e73" d="M89.5 183.5c3.276.622 4.609 2.622 4 6h-6c-.248-2.358.42-4.358 2-6z"/><path style="opacity:1" fill="#3e547d" d="M67.5 164.5c3.568.259 4.901 2.259 4 6-1.967-.239-3.8.094-5.5 1-.844 1.963-.344 3.296 1.5 4v26h3c-.166-5.011 0-10.011.5-15 1.4-1.692 3.234-2.359 5.5-2v17c1.068.934 2.401 1.268 4 1v-14c.997.03 1.664-.47 2-1.5a11.077 11.077 0 0 0-2-3.5c2.433-1.554 5.1-2.22 8-2-4.992 4.714-6.158 10.381-3.5 17 2.874 4.342 6.374 5.009 10.5 2-5.694.306-8.36-2.361-8-8h8c-1.052 1.756-2.719 2.423-5 2v3h7l-1.5 15c-.71-1.473-1.876-2.14-3.5-2v-3c1.175.219 2.175-.114 3-1-1.835-.692-3.668-.358-5.5 1a31.587 31.587 0 0 0-6-5c-1.27 1.405-1.77 3.071-1.5 5h-3v-3c-2.082.028-3.916-.639-5.5-2-.674 1.078-1.674 1.745-3 2-2.36-1.28-4.86-1.947-7.5-2 .04-1.859-.794-3.192-2.5-4a98.432 98.432 0 0 1-.5-14h4v-3h-3v-6c-1.855.228-2.688-.439-2.5-2a15.252 15.252 0 0 1 4.5-1.5l-2-1a8.43 8.43 0 0 1 4-.5c-.475-2.582.192-4.582 2-6z"/><path style="opacity:1" fill="#8497c8" d="M79.5 185.5c.904.709 1.237 1.709 1 3v14c-1.599.268-2.932-.066-4-1h3v-16z"/><path style="opacity:1" fill="#4476a1" d="M4.5 127.5c1.985 15.632 2.651 31.632 2 48h3a256.88 256.88 0 0 1 1-32c.897 9.855 1.897 19.689 3 29.5-1.443 2.078-.776 2.911 2 2.5v27c.291 1.149 1.124 1.816 2.5 2a35.98 35.98 0 0 1 9.5-1c-.662 2.332-1.995 2.999-4 2a10.756 10.756 0 0 1-3 2.5c2.432 1.087 2.098 1.587-1 1.5v4c-2.062 1.91-3.562 4.243-4.5 7a60.94 60.94 0 0 0-.5 11h-3l-1-8h-6v-96z"/><path style="opacity:1" fill="#487192" d="M35.5 202.5c.285 1.788-.048 3.455-1 5a29.13 29.13 0 0 0-2.5-5c-1.356.88-2.856 1.214-4.5 1a35.98 35.98 0 0 0-9.5 1c-1.376-.184-2.209-.851-2.5-2h3c-.166-8.007 0-16.007.5-24a1367.451 1367.451 0 0 0 5.5 23h3a391.84 391.84 0 0 1 4.5-19c.478 7.067 1.645 13.733 3.5 20z"/><path style="opacity:1" fill="#3b476e" d="M109.5 200.5c-.824-3.812-1.324-7.812-1.5-12a3.647 3.647 0 0 0-1.5-1c-.997 6.634-1.33 13.3-1 20h-3a20.69 20.69 0 0 0 1 5h-3v4h3v3h-3v20a2316.292 2316.292 0 0 1-2-16 49.874 49.874 0 0 0-1 14c-1.322.17-2.489-.163-3.5-1a98.432 98.432 0 0 1-.5-14c1.599.268 2.932-.066 4-1 .722-.418 1.222-1.084 1.5-2a308.481 308.481 0 0 1 2.5-17c1.789-4.907 2.622-10.24 2.5-16 1.312-2.158 2.978-2.491 5-1 .499 4.989.666 9.989.5 15z"/><path style="opacity:1" fill="#3e3e7a" d="M127.5 201.5v3c3.055-.93 6.055-1.263 9-1a4.457 4.457 0 0 1 1.5 2c.499-4.655.666-9.321.5-14h3c-.302 2.559.032 4.893 1 7 .61.891.943 1.891 1 3-1.175-.219-2.175.114-3 1a9.108 9.108 0 0 1 1 5c-1.679-.215-2.679.452-3 2-.05 2.652-1.05 3.652-3 3l-1 1.5c2.021 5.744 2.354 11.578 1 17.5a19.372 19.372 0 0 1-8 1c-.219 1.175.114 2.175 1 3 1.526.494 2.859 1.161 4 2-5.194.645-7.528-1.689-7-7h9c1.331-5.683-.669-9.349-6-11-5.085 1.613-7.085 5.113-6 10.5-.169 3.401.498 6.568 2 9.5.435 1.38-.398 2.38-2.5 3-1.375-2.437-1.875-5.103-1.5-8h-3a18.453 18.453 0 0 1-.5 6c-.383-.556-.883-.889-1.5-1 1.664-6.661 3.331-13.327 5-20h-4a118.825 118.825 0 0 1-2.5 15 106.167 106.167 0 0 1-3.5-14c-1.458-1.282-2.792-1.282-4 0a5.727 5.727 0 0 1-3-1v-3c1.333-1.333 1.333-2.667 0-4a20.69 20.69 0 0 1-1-5h3c-.33-6.7.003-13.366 1-20a3.647 3.647 0 0 1 1.5 1c.176 4.188.676 8.188 1.5 12v1c1.419.951 3.085 1.284 5 1-.449-5.852.051-11.519 1.5-17 1.088 1.788 1.588 3.788 1.5 6a45.342 45.342 0 0 0-.5 11c1.117 1.624 2.617 2.624 4.5 3a462.937 462.937 0 0 1 6-4z"/><path style="opacity:1" fill="#4e497c" d="M131.5 191.5h3a24.935 24.935 0 0 1-.5 7c-2.825 1.506-4.658.673-5.5-2.5a20.987 20.987 0 0 1 3-4.5z"/><path style="opacity:1" fill="#416691" d="M72.5 143.5c-.283.789-.783 1.456-1.5 2-.71-1.473-1.876-2.14-3.5-2v21c-1.808 1.418-2.475 3.418-2 6a8.43 8.43 0 0 0-4 .5l2 1a15.252 15.252 0 0 0-4.5 1.5c-.188 1.561.645 2.228 2.5 2v6c-.951-1.419-1.285-3.085-1-5h-3v5h-3v3h3a84.111 84.111 0 0 0 1 17c-1.808 1.418-2.475 3.418-2 6-2.549.059-4.549-.941-6-3a7.292 7.292 0 0 0-3 2 33.3 33.3 0 0 1 6.5 3 3.944 3.944 0 0 0 2-1c1.243 2.333 2.91 3 5 2 1.892 1.117 2.725 2.784 2.5 5-2.477-.449-4.477.217-6 2a31.12 31.12 0 0 1 2 2 19.863 19.863 0 0 1-9 .5c-3.266 2.536-4.6 5.869-4 10-.39 3.671.61 6.838 3 9.5h-3a284.81 284.81 0 0 0-2-16c-.607.124-.94.457-1 1-4.917-6.882-9.25-6.548-13 1-.82 2.805-1.32 5.805-1.5 9-2.658-1.194-3.824-.194-3.5 3-3.452.052-5.619-1.615-6.5-5a42.498 42.498 0 0 1 0-13c1.484-3.988 4.317-5.654 8.5-5v-3c-2.92-.217-5.587.449-8 2v-4c3.098.087 3.432-.413 1-1.5a10.756 10.756 0 0 0 3-2.5c2.005.999 3.338.332 4-2 1.644.214 3.144-.12 4.5-1a29.13 29.13 0 0 1 2.5 5c.952-1.545 1.285-3.212 1-5 .852-9.538.519-19.205-1-29-1.624-.14-2.79.527-3.5 2l-5 20a691.572 691.572 0 0 1-3.5-16 41.742 41.742 0 0 0-1-9h-6v-5c4.084.101 5.418-1.566 4-5-.202-2.489.298-4.823 1.5-7a281.98 281.98 0 0 0 4.5 14 66.705 66.705 0 0 0 5.5-2c.497-2.646.664-5.313.5-8h3v1c-.64.982-1.307 1.982-2 3 .346 1.196.846 1.196 1.5 0 .196 2.404 1.362 4.071 3.5 5 2.887.087 5.887-.246 9-1 1.822-3.602 2.822-3.602 3 0a29.2 29.2 0 0 1 7.5 1c2.801-.044 4.968-1.044 6.5-3v-20h-3a33.33 33.33 0 0 1-8.5-2c-2.674 1.286-4.508.786-5.5-1.5a14.72 14.72 0 0 0 5-1.5 7.292 7.292 0 0 0-3-2 9.107 9.107 0 0 1-5 1c-.438.065-.772-.101-1-.5.88-.708 1.547-1.542 2-2.5a144.062 144.062 0 0 1 20-1c5.676.162 11.343.162 17 0 1.14.925 1.14 1.759 0 2.5-4.782-.283-8.115 2.05-10 7 .228.399.562.565 1 .5z"/><path style="opacity:1" fill="#e8f4f8" d="M51.5 185.5c.613 5.771-.054 11.104-2 16-.06-.543-.393-.876-1-1-5.015 3.411-7.682 2.078-8-4 .133-5.084 2.8-7.417 8-7 .268-1.599-.066-2.932-1-4-1.765-.961-3.765-1.295-6-1v-3c2.357-.163 4.69.003 7 .5 1.926.422 2.926 1.589 3 3.5z"/><path style="opacity:1" fill="#466380" d="M45.5 191.5h3a24.939 24.939 0 0 1-.5 7c-1.356.88-2.856 1.214-4.5 1-.393-3.013.274-5.68 2-8z"/><path style="opacity:1" fill="#98a8b6" d="M51.5 185.5c.989 5.475 1.322 11.142 1 17-1.291.237-2.291-.096-3-1 1.946-4.896 2.613-10.229 2-16z"/><path style="opacity:1" fill="#465b94" d="M41.5 184.5c2.235-.295 4.235.039 6 1v3h-8c-.27-1.88.396-3.213 2-4z"/><path style="opacity:1" fill="#d7e7f3" d="M103.5 212.5c1.333 1.333 1.333 2.667 0 4h-3v-4h3z"/><path style="opacity:1" fill="#384383" d="M100.5 202.5h1a308.481 308.481 0 0 0-2.5 17c-.278.916-.778 1.582-1.5 2v-2a10.022 10.022 0 0 1-1-3c.71-4.304 1.21-8.637 1.5-13 .67-.752 1.504-1.086 2.5-1z"/><path style="opacity:1" fill="#3b5084" d="M103.5 159.5c1.318 3.065 1.318 6.231 0 9.5l3 1a54.628 54.628 0 0 0-7 2 3.942 3.942 0 0 0-1 2c1.162 3.003 2.829 5.503 5 7.5h-3v21c-.996-.086-1.83.248-2.5 1-.29 4.363-.79 8.696-1.5 13a10.022 10.022 0 0 0 1 3h-4v-5h-3v5h-3c-.215 1.679.452 2.679 2 3-.617 6.098.05 11.765 2 17 1.208.734 2.541 1.067 4 1v10c-1.603.188-2.937-.312-4-1.5 2.333-1.243 3-2.909 2-5-6.957-2.159-13.79-1.992-20.5.5-.52-1.016-1.353-1.682-2.5-2a31.696 31.696 0 0 0-6 2c-.952-1.545-1.285-3.212-1-5h1c.709.904 1.709 1.237 3 1a73.122 73.122 0 0 1 1-17c1.542-1.247 3.042-1.247 4.5 0 .5 5.657.666 11.324.5 17h3c.42-6.784-.08-13.45-1.5-20a297.42 297.42 0 0 0-10.5-1c-1.667 1.333-3.333 1.333-5 0a31.12 31.12 0 0 0-2-2c1.523-1.783 3.523-2.449 6-2 .225-2.216-.608-3.883-2.5-5-2.09 1-3.757.333-5-2a3.944 3.944 0 0 1-2 1 33.3 33.3 0 0 0-6.5-3 7.292 7.292 0 0 1 3-2c1.451 2.059 3.451 3.059 6 3-.475-2.582.192-4.582 2-6 1.419.951 3.085 1.284 5 1 2.64.053 5.14.72 7.5 2 1.326-.255 2.326-.922 3-2 1.584 1.361 3.418 2.028 5.5 2v3h3c-.27-1.929.23-3.595 1.5-5a31.587 31.587 0 0 1 6 5c1.832-1.358 3.665-1.692 5.5-1-.825.886-1.825 1.219-3 1v3c1.624-.14 2.79.527 3.5 2l1.5-15h-7v-3c2.281.423 3.948-.244 5-2 .652-.949.986-2.115 1-3.5.034-5.468-2.632-7.968-8-7.5-2.9-.22-5.567.446-8 2a11.077 11.077 0 0 1 2 3.5c-.336 1.03-1.003 1.53-2 1.5.237-1.291-.096-2.291-1-3v-2a31.774 31.774 0 0 0-2.5-7c-1.356-.88-2.856-1.214-4.5-1-.262-1.478.071-2.811 1-4 2.529-1.563 3.529-3.896 3-7a87.185 87.185 0 0 0 10 3c2.97-.966 5.803-.966 8.5 0a4.451 4.451 0 0 1 1.5-2c4.609 3.09 6.942 1.756 7-4v-2z"/><path style="opacity:1" fill="#ddf2fb" d="M84.5 212.5v4h-3v-4h3z"/><path style="opacity:1" fill="#ececf5" d="M132.5 237.5c1.192 1.066.859 1.899-1 2.5-2.385.556-4.718.39-7-.5-1.502-2.932-2.169-6.099-2-9.5-1.085-5.387.915-8.887 6-10.5 5.331 1.651 7.331 5.317 6 11h-9c-.528 5.311 1.806 7.645 7 7z"/><path style="opacity:1" fill="#f4f9fc" d="M81.5 219.5h3v20c-.709.904-1.709 1.237-3 1v-21z"/><path style="opacity:1" fill="#eff3f7" d="M97.5 219.5v2c-1.068.934-2.401 1.268-4 1-.166 4.679 0 9.345.5 14 1.011.837 2.178 1.17 3.5 1 .215 1.679-.452 2.679-2 3-1.459.067-2.792-.266-4-1a936.842 936.842 0 0 0-2-17c-1.548-.321-2.215-1.321-2-3h3v-5h3v5h4z"/><path style="opacity:1" fill="#f3f9fb" d="M103.5 219.5v21h-2c-.667 0-1-.333-1-1v-20h3z"/><path style="opacity:1" fill="#483988" d="M143.5 201.5v3a75.354 75.354 0 0 0 16-1 58.095 58.095 0 0 0 6.5 3c2.349-1.476 4.516-1.31 6.5.5a52.141 52.141 0 0 0-10 1.5c-1.056 2.206-1.056 4.206 0 6 1.545.952 3.212 1.285 5 1 .871 2.562.871 5.228 0 8h24v-6c5.345.187 10.678.52 16 1v-4a18.453 18.453 0 0 0 6-.5 33.816 33.816 0 0 1 5-6 756.51 756.51 0 0 1 33-6.5v6h-12v5h-16v3c-8.99 1.668-16.323 6.168-22 13.5a25.61 25.61 0 0 1-5.5 3.5c-.37 4.814-2.87 7.148-7.5 7 .319 2.25-.181 4.25-1.5 6-2.041-.923-4.208-1.256-6.5-1 .17 1.322-.163 2.489-1 3.5 2.628 1.61 5.295 1.777 8 .5 1.48 2.435.98 3.102-1.5 2-4.325-.152-6.825 1.848-7.5 6-1.189.929-2.522 1.262-4 1h-4c-4.173.544-8.006-.123-11.5-2-.717.544-1.217 1.211-1.5 2-3.807-.726-6.474.607-8 4-2.792.048-4.625-1.285-5.5-4-.383.556-.883.889-1.5 1a5.727 5.727 0 0 1-3-1c-1.15-3.151-1.817-6.484-2-10a73.926 73.926 0 0 1 2-12h4a36.875 36.875 0 0 0-1-12c-1.26 1.853-1.26 3.686 0 5.5-3.085 4.757-4.752 4.424-5-1 .106-5.644 1.106-10.978 3-16-.566-.995-1.233-1.828-2-2.5.321-1.548 1.321-2.215 3-2a9.108 9.108 0 0 0-1-5c.825-.886 1.825-1.219 3-1z"/><path style="opacity:1" fill="#3f3584" d="M251.5 207.5v32h-12v12h-16v4h-16v6a145.053 145.053 0 0 0-17 .5 12.64 12.64 0 0 1-4 2.5l1-4c1.548-.321 2.215-1.321 2-3-.301-3.747.366-7.247 2-10.5l-1-2.5c-1.484.967-2.484 2.3-3 4-2.705 1.277-5.372 1.11-8-.5.837-1.011 1.17-2.178 1-3.5 2.292-.256 4.459.077 6.5 1 1.319-1.75 1.819-3.75 1.5-6 4.63.148 7.13-2.186 7.5-7a25.61 25.61 0 0 0 5.5-3.5c5.677-7.332 13.01-11.832 22-13.5v-3h16v-5h12z"/><path style="opacity:1" fill="#423f63" d="M126.5 222.5c4-.667 5.667 1 5 5h-6a20.69 20.69 0 0 1 1-5z"/><path style="opacity:1" fill="#475b7a" d="M59.5 219.5c1.667 1.333 3.333 1.333 5 0v20h-1a64.873 64.873 0 0 0-1-16c-.38 6.896-.714 13.896-1 21a36.28 36.28 0 0 0-2 4.5c-2.452.29-4.785.956-7 2-2.762 1.077-4.428.244-5-2.5 3.757.429 7.257-.237 10.5-2a133.273 133.273 0 0 0 1.5-27z"/><path style="opacity:1" fill="#e7edf3" d="M115.5 239.5c-1.205 1.186-2.539 1.186-4 0a79.842 79.842 0 0 0-5-19c1.208-1.282 2.542-1.282 4 0 .85 4.75 2.017 9.417 3.5 14 1.156-4.96 1.989-9.96 2.5-15h4c-1.669 6.673-3.336 13.339-5 20z"/><path style="opacity:1" fill="#f1f6fa" d="M64.5 219.5c3.496.27 6.996.604 10.5 1a72.701 72.701 0 0 1 1.5 20h-3c.166-5.676 0-11.343-.5-17-1.458-1.247-2.958-1.247-4.5 0a73.122 73.122 0 0 0-1 17c-1.291.237-2.291-.096-3-1v-20z"/><path style="opacity:1" fill="#61677b" d="M89.5 222.5a936.842 936.842 0 0 1 2 17c-1.95-5.235-2.617-10.902-2-17z"/><path style="opacity:1" fill="#56617a" d="M84.5 212.5a61.284 61.284 0 0 1 2 5.5 3151.967 3151.967 0 0 1-2 21.5v-20h-3v-3h3v-4z"/><path style="opacity:1" fill="#e4f0f4" d="M43.5 224.5c.912 5.824-.422 10.99-4 15.5-4.714 1.578-7.714.078-9-4.5v-10c3.75-7.548 8.083-7.882 13-1z"/><path style="opacity:1" fill="#476588" d="M34.5 222.5c1.644-.214 3.144.12 4.5 1 2 4.333 2 8.667 0 13-2.022 1.491-3.688 1.158-5-1-.706-4.387-.54-8.72.5-13z"/><path style="opacity:1" fill="#e9f4f7" d="M59.5 219.5a133.273 133.273 0 0 1-1.5 27c-3.243 1.763-6.743 2.429-10.5 2v-3c6.564 2.244 9.397-.089 8.5-7-2.04.923-4.208 1.256-6.5 1-2.39-2.662-3.39-5.829-3-9.5-.6-4.131.734-7.464 4-10 3.042.523 6.042.356 9-.5z"/><path style="opacity:1" fill="#475c7d" d="M51.5 223.5c1.653-1.299 3.153-.966 4.5 1a30.499 30.499 0 0 1 0 11c-2.522 2.826-4.522 2.493-6-1l-.5-4.5c-.164-2.544.503-4.71 2-6.5z"/><path style="opacity:1" fill="#395893" d="M51.5 223.5c1.25.077 2.083.744 2.5 2 .818 2.727.652 5.394-.5 8a3.647 3.647 0 0 1-1.5-1 40.939 40.939 0 0 1-.5-9z"/><path style="opacity:1" fill="#dff1f7" d="M25.5 237.5c2.442-.146 3.11.687 2 2.5a18.452 18.452 0 0 1-6 .5c-3.477-2.14-5.81-5.14-7-9a60.94 60.94 0 0 1 .5-11c.938-2.757 2.438-5.09 4.5-7 2.413-1.551 5.08-2.217 8-2v3c-4.183-.654-7.016 1.012-8.5 5a42.498 42.498 0 0 0 0 13c.881 3.385 3.048 5.052 6.5 5z"/><path style="opacity:1" fill="#464b7b" d="M103.5 219.5c.891.61 1.891.943 3 1a79.842 79.842 0 0 1 5 19c-3.254 4.251-4.254 3.751-3-1.5a61.26 61.26 0 0 1-2.5-14.5c-.17 6.028-.67 12.028-1.5 18-.607-.124-.94-.457-1-1v-21z"/><path style="opacity:1" fill="#3c3689" d="M251.5 239.5v26c-1.951.273-3.451-.393-4.5-2-2.135 1.778-4.635 2.445-7.5 2v6c-4.721-.768-8.721.399-12 3.5a8.43 8.43 0 0 1-4 .5v-4h-7c.17 1.322-.163 2.489-1 3.5l3 1-6 6 2 1c-1.449 3.116-3.616 5.616-6.5 7.5a4.934 4.934 0 0 1-.5-3h-8c-.377 5.043-3.043 7.71-8 8-1.441 4.036-3.774 7.536-7 10.5 2.069.324 2.402 1.158 1 2.5-.865 1.083-1.865 1.249-3 .5.951-.718 1.117-1.551.5-2.5a25.965 25.965 0 0 0-5 5c-.195-1.319-.028-2.653.5-4 1.927-2.637 2.427-5.637 1.5-9-2.695-3.148-4.028-6.815-4-11a40.914 40.914 0 0 0-.5 9 82.565 82.565 0 0 1-16-2 47.233 47.233 0 0 0-12.5 2c-1.812.007-3.312-.66-4.5-2l-2 2c-2.023-1.673-4.356-2.34-7-2-1.599-.268-2.932.066-4 1a345.94 345.94 0 0 0-2 8 171.078 171.078 0 0 1-5-16c-.765 2.564-1.098 4.897-1 7h-4c-.512-9.311-1.345-9.311-2.5 0-.383.556-.883.889-1.5 1-1.143-3.476-1.31-7.142-.5-11 1.72-.884 2.886-2.217 3.5-4 2.483-6.255 4.15-6.255 5 0 1.967.239 3.801-.094 5.5-1a50.33 50.33 0 0 0-.5-9c-.115-2.888.552-5.555 2-8 .369 5.4 1.369 10.4 3 15 .709.904 1.709 1.237 3 1 .617-.111 1.117-.444 1.5-1l1-14a3.647 3.647 0 0 1 1.5-1c.83 5.638 1.33 11.304 1.5 17 1.756 1.485 2.923 1.152 3.5-1 .923-7.449 2.923-7.282 6 .5 3.527.808 6.86.641 10-.5v-3c-2.759-.896-5.092-2.563-7-5l2.5-1a27.23 27.23 0 0 0 5.5 2v-3h4v3c-1.248.834-1.915 2.167-2 4-.649 4.187 1.018 5.687 5 4.5 2.412-3.162 4.745-2.995 7 .5 1.022-.355 1.689-1.022 2-2 1.623-3.924 2.623-8.257 3-13a67.059 67.059 0 0 0 3 14.5c5.164 2.639 8.164 1.139 9-4.5h-4a72.032 72.032 0 0 1-1-11 12.64 12.64 0 0 0 4-2.5 145.053 145.053 0 0 1 17-.5v-6h16v-4h16v-12h12z"/><path style="opacity:1" fill="#3e689a" d="M4.5 223.5h6l1 8h3c1.19 3.86 3.523 6.86 7 9a116.64 116.64 0 0 0 3 4.5c-1.236 3.611-3.57 4.444-7 2.5-1.213.247-1.88.914-2 2v6c-1.431.381-2.264 1.381-2.5 3-.453 3.34-.953 6.674-1.5 10 2.466 5.469 1.632 10.469-2.5 15a309.254 309.254 0 0 1-2.5-20 70.874 70.874 0 0 0-2-4v-36z"/><path style="opacity:1" fill="#3d5a8d" d="M49.5 239.5c2.292.256 4.46-.077 6.5-1 .897 6.911-1.936 9.244-8.5 7v3c.572 2.744 2.238 3.577 5 2.5a22.507 22.507 0 0 1 7-2 36.28 36.28 0 0 1 2-4.5 46.845 46.845 0 0 1 2 9h3v3c9.636-1.041 12.97 2.959 10 12 .6-4.016-.4-7.516-3-10.5-4.22-.947-7.22.553-9 4.5a17.758 17.758 0 0 0-1.5-7 2.427 2.427 0 0 0-.5 2c-1.322-.17-2.489.163-3.5 1a207.932 207.932 0 0 0-3 16l-3-14c-.71-1.473-1.876-2.14-3.5-2a33.683 33.683 0 0 0 2 9c-1.617-1.621-2.784-3.621-3.5-6a4.932 4.932 0 0 0-.5 3h-1c-.538-5.766-3.538-7.766-9-6h-4a43.123 43.123 0 0 1-1 13 130.177 130.177 0 0 1-1.5-16c-1.113-1.26-1.28-2.427-.5-3.5-2.151-1.773-3.151-4.106-3-7a308.892 308.892 0 0 0 3-9.5c1.286 4.578 4.286 6.078 9 4.5 3.578-4.51 4.912-9.676 4-15.5.06-.543.393-.876 1-1a284.81 284.81 0 0 1 2 16h3z"/><path style="opacity:1" fill="#394d87" d="M63.5 239.5c-.285 1.788.048 3.455 1 5a31.696 31.696 0 0 1 6-2c1.147.318 1.98.984 2.5 2 6.71-2.492 13.543-2.659 20.5-.5 1 2.091.333 3.757-2 5 1.063 1.188 2.397 1.688 4 1.5-2.131.814-4.464 1.314-7 1.5-.928.388-1.595 1.055-2 2a385.455 385.455 0 0 1-3 17.5v-22c-1.068-.934-2.401-1.268-4-1 .33 7.696-.002 15.362-1 23-3.583 2.769-6.916 2.602-10-.5 2.75-.943 5.417-1.776 8-2.5 2.97-9.041-.364-13.041-10-12v-3h-3a46.845 46.845 0 0 0-2-9c.286-7.104.62-14.104 1-21a64.873 64.873 0 0 1 1 16z"/><path style="opacity:1" fill="#3a4282" d="M100.5 239.5c0 .667.333 1 1 1 1.452 2.274.785 3.774-2 4.5 1.801.317 2.134.984 1 2a29.982 29.982 0 0 1 3 8.5h-5v3c-5.431-2.412-8.931-.746-10.5 5a32.438 32.438 0 0 0-.5 8c-.767.672-1.434 1.505-2 2.5 1.952 1.412 3.285 3.245 4 5.5-1.902-1.651-3.902-1.984-6-1v-7a385.455 385.455 0 0 0 3-17.5c.405-.945 1.072-1.612 2-2 2.536-.186 4.869-.686 7-1.5v-10c1.548-.321 2.215-1.321 2-3a49.874 49.874 0 0 1 1-14c.667 5.485 1.334 10.819 2 16z"/><path style="opacity:1" fill="#466383" d="M30.5 225.5v10a308.892 308.892 0 0 1-3 9.5c-.151 2.894.849 5.227 3 7-.78 1.073-.613 2.24.5 3.5.17 5.364.67 10.698 1.5 16a43.123 43.123 0 0 0 1-13h4c-2.915 4.885-3.749 10.218-2.5 16 2.615 3.373 6.115 4.706 10.5 4v-3c-5.834 1.163-8.5-1.171-8-7h9v-4h1a51.648 51.648 0 0 0 1 7 49.605 49.605 0 0 0-10-.5c1.473.71 2.14 1.876 2 3.5h7v5c-3.318.721-6.65.888-10 .5a34.706 34.706 0 0 1-6.5-7.5c-.278.916-.778 1.582-1.5 2h-1c2.02-5.79 2.52-11.79 1.5-18-1.888-4.698-5.388-7.031-10.5-7h-4c.12-1.086.787-1.753 2-2 3.43 1.944 5.764 1.111 7-2.5a116.64 116.64 0 0 1-3-4.5 18.452 18.452 0 0 0 6-.5c1.11-1.813.442-2.646-2-2.5-.324-3.194.842-4.194 3.5-3 .18-3.195.68-6.195 1.5-9z"/><path style="opacity:1" fill="#39387d" d="M138.5 209.5c.767.672 1.434 1.505 2 2.5-1.894 5.022-2.894 10.356-3 16 .248 5.424 1.915 5.757 5 1-1.26-1.814-1.26-3.647 0-5.5a36.875 36.875 0 0 1 1 12h-4a73.926 73.926 0 0 0-2 12c.183 3.516.85 6.849 2 10-2.403-.107-4.236.893-5.5 3-.918-1.876-2.418-2.876-4.5-3-.366-1.195-1.199-1.861-2.5-2a22.383 22.383 0 0 0-4.5 3c-.666 4.184-1.333 8.518-2 13l-2-12a5.576 5.576 0 0 0-3-1v-3c-3.185-.48-6.019.186-8.5 2-1.583-2.493-3.083-2.326-4.5.5a8.43 8.43 0 0 1-4 .5v-3h5a29.982 29.982 0 0 0-3-8.5c1.134-1.016.801-1.683-1-2 2.785-.726 3.452-2.226 2-4.5h2c.06.543.393.876 1 1 .83-5.972 1.33-11.972 1.5-18a61.26 61.26 0 0 0 2.5 14.5c-1.254 5.251-.254 5.751 3 1.5 1.461 1.186 2.795 1.186 4 0 .617.111 1.117.444 1.5 1 .495-1.973.662-3.973.5-6h3c-.375 2.897.125 5.563 1.5 8 2.102-.62 2.935-1.62 2.5-3a11.596 11.596 0 0 0 7 .5c1.859-.601 2.192-1.434 1-2.5-1.141-.839-2.474-1.506-4-2-.886-.825-1.219-1.825-1-3a19.372 19.372 0 0 0 8-1c1.354-5.922 1.021-11.756-1-17.5l1-1.5c1.95.652 2.95-.348 3-3z"/><path style="opacity:1" fill="#adbed0" d="M15.5 249.5h4c-.709.904-1.709 1.237-3 1 .326 8.184-.008 16.184-1 24v-25z"/><path style="opacity:1" fill="#464561" d="M129.5 257.5c-1.517.011-2.684.677-3.5 2-1.011-.837-2.178-1.17-3.5-1a22.383 22.383 0 0 1 4.5-3c1.301.139 2.134.805 2.5 2z"/><path style="opacity:1" fill="#efedf7" d="M189.5 257.5c.215 1.679-.452 2.679-2 3-1.309 2.071-1.975 4.571-2 7.5l.5 7.5c3.078 1.349 3.078 2.349 0 3a6.293 6.293 0 0 1-3-1 145.053 145.053 0 0 1-.5-17h-3v-3h3v-5h3v5h4z"/><path style="opacity:1" fill="#dff1f3" d="M46.5 264.5v4h-9c-.5 5.829 2.166 8.163 8 7v3c-4.385.706-7.885-.627-10.5-4-1.249-5.782-.415-11.115 2.5-16 5.462-1.766 8.462.234 9 6z"/><path style="opacity:1" fill="#e7f3f5" d="M19.5 249.5c5.112-.031 8.612 2.302 10.5 7 1.02 6.21.52 12.21-1.5 18-3.441 3.634-7.774 4.967-13 4v-4c.992-7.816 1.326-15.816 1-24 1.291.237 2.291-.096 3-1z"/><path style="opacity:1" fill="#3e6178" d="M25.5 255.5h-5c.321 5.526-.012 10.86-1 16v-19c2.813-.475 4.813.525 6 3z"/><path style="opacity:1" fill="#473d73" d="M170.5 257.5c-1.366 1.851-3.033 2.184-5 1a25.879 25.879 0 0 0-1 10h-4c.556-4.166-.444-7.832-3-11 .283-.789.783-1.456 1.5-2 3.494 1.877 7.327 2.544 11.5 2z"/><path style="opacity:1" fill="#f0f1f7" d="M129.5 257.5c2.082.124 3.582 1.124 4.5 3 1.264-2.107 3.097-3.107 5.5-3 .891.61 1.891.943 3 1a106.296 106.296 0 0 1 1 20h-3a145.053 145.053 0 0 0-.5-17c-1.938-1.36-3.604-1.027-5 1a128.507 128.507 0 0 0-.5 16c-1.291.237-2.291-.096-3-1a128.507 128.507 0 0 0-.5-16c-1.938-1.36-3.604-1.027-5 1a128.507 128.507 0 0 0-.5 16h-3v-20c1.322-.17 2.489.163 3.5 1 .816-1.323 1.983-1.989 3.5-2z"/><path style="opacity:1" fill="#49557a" d="M38.5 260.5c4-.667 5.667 1 5 5h-6a20.676 20.676 0 0 1 1-5z"/><path style="opacity:1" fill="#f3fbfd" d="M83.5 249.5v29h-2c-.994-9.486-1.327-19.152-1-29h3z"/><path style="opacity:1" fill="#494b79" d="M115.5 258.5c-3.047-1.613-5.547-.946-7.5 2a4.457 4.457 0 0 0-1.5-2 196.869 196.869 0 0 0-1 28c-.985-4.134-1.318-8.468-1-13-1.175-.219-2.175.114-3 1a37.138 37.138 0 0 1-2 4.5c-3.317.498-6.65.665-10 .5-.715-2.255-2.048-4.088-4-5.5.566-.995 1.233-1.828 2-2.5 1.64 7.009 5.474 8.675 11.5 5 3.478-6.147 3.311-12.147-.5-18a8.43 8.43 0 0 0 4-.5c1.417-2.826 2.917-2.993 4.5-.5 2.481-1.814 5.315-2.48 8.5-2v3z"/><path style="opacity:1" fill="#3f5f99" d="M25.5 255.5v16c-2.218.114-4.218.78-6 2v-2c.988-5.14 1.321-10.474 1-16h5z"/><path style="opacity:1" fill="#e2e7f2" d="M98.5 258.5c3.811 5.853 3.978 11.853.5 18-6.026 3.675-9.86 2.009-11.5-5a32.438 32.438 0 0 1 .5-8c1.569-5.746 5.069-7.412 10.5-5z"/><path style="opacity:1" fill="#45496a" d="M97.5 265.5c-1.32-1.442-2.986-2.108-5-2-.542 4.044.291 7.711 2.5 11 .236-1.619 1.069-2.619 2.5-3-.315 4.541-2.148 5.541-5.5 3-.8-4.587-.632-9.087.5-13.5 3.643-.832 5.31.668 5 4.5z"/><path style="opacity:1" fill="#f0f5f8" d="M115.5 258.5c3.455 5.285 3.955 10.952 1.5 17-2.128 2.958-4.794 3.624-8 2a40.914 40.914 0 0 0-.5 9h-3c-.332-9.357.002-18.69 1-28a4.457 4.457 0 0 1 1.5 2c1.953-2.946 4.453-3.613 7.5-2z"/><path style="opacity:1" fill="#eae9f2" d="M157.5 257.5c2.556 3.168 3.556 6.834 3 11h-9c-.652 5.896 2.015 8.23 8 7v3c-8.108 1.559-11.775-1.775-11-10 .06-2.421.393-4.754 1-7 1.526-3.393 4.193-4.726 8-4z"/><path style="opacity:1" fill="#41386f" d="M152.5 260.5c4-.667 5.667 1 5 5h-6a20.69 20.69 0 0 1 1-5z"/><path style="opacity:1" fill="#494077" d="M189.5 257.5h-4v-5h-3v5h-3v3h3c-.166 5.676.001 11.343.5 17a6.293 6.293 0 0 0 3 1c3.078-.651 3.078-1.651 0-3l-.5-7.5c.025-2.929.691-5.429 2-7.5l-1 4a72.032 72.032 0 0 0 1 11h4c-.836 5.639-3.836 7.139-9 4.5a67.059 67.059 0 0 1-3-14.5c-.377 4.743-1.377 9.076-3 13 .166-6.342 0-12.675-.5-19-.717-.544-1.217-1.211-1.5-2 1.478.262 2.811-.071 4-1 .675-4.152 3.175-6.152 7.5-6 2.48 1.102 2.98.435 1.5-2 .516-1.7 1.516-3.033 3-4l1 2.5c-1.634 3.253-2.301 6.753-2 10.5z"/><path style="opacity:1" fill="#3c3f89" d="M97.5 265.5v6c-1.431.381-2.264 1.381-2.5 3-2.209-3.289-3.042-6.956-2.5-11 2.014-.108 3.68.558 5 2z"/><path style="opacity:1" fill="#454380" d="M110.5 260.5c3.583.922 5.25 3.256 5 7a20.702 20.702 0 0 1-1.5 7c-2.022 1.491-3.688 1.158-5-1-1.022-4.629-.522-8.962 1.5-13z"/><path style="opacity:1" fill="#e8eff4" d="M62.5 257.5a366.596 366.596 0 0 0-5 21h-3a102.763 102.763 0 0 0-3-11 33.683 33.683 0 0 1-2-9c1.624-.14 2.79.527 3.5 2l3 14a207.932 207.932 0 0 1 3-16c1.011-.837 2.178-1.17 3.5-1z"/><path style="opacity:1" fill="#3f386f" d="M143.5 278.5c-.577 2.152-1.744 2.485-3.5 1-.17-5.696-.67-11.362-1.5-17a3.647 3.647 0 0 0-1.5 1l-1 14c-.383.556-.883.889-1.5 1-.166-5.344.001-10.677.5-16 1.396-2.027 3.062-2.36 5-1 .499 5.657.666 11.324.5 17h3z"/><path style="opacity:1" fill="#e2ecf1" d="M76.5 268.5h-9c-.45 5.882 2.216 8.216 8 7v3c-5.747 1.127-9.747-.873-12-6a34.17 34.17 0 0 1 1-10c1.78-3.947 4.78-5.447 9-4.5 2.6 2.984 3.6 6.484 3 10.5z"/><path style="opacity:1" fill="#454290" d="M72.5 261.5c.734 1.208 1.067 2.541 1 4h-4v-4h3z"/><path style="opacity:1" fill="#5f657d" d="M72.5 261.5h-3v4h4c-1.765.961-3.765 1.295-6 1-1-5.009.667-6.676 5-5z"/><path style="opacity:1" fill="#4e4879" d="M149.5 261.5a29.536 29.536 0 0 0-1 7c-.775 8.225 2.892 11.559 11 10-3.14 1.141-6.473 1.308-10 .5-3.077-7.782-5.077-7.949-6-.5.293-6.755-.04-13.422-1-20 .617-.111 1.117-.444 1.5-1 .875 2.715 2.708 4.048 5.5 4z"/><path style="opacity:1" fill="#434071" d="M115.5 258.5a5.576 5.576 0 0 1 3 1l2 12c.667-4.482 1.334-8.816 2-13v20h3c-.166-5.344.001-10.677.5-16 1.396-2.027 3.062-2.36 5-1 .499 5.323.666 10.656.5 16-1.631-4.6-2.631-9.6-3-15-1.448 2.445-2.115 5.112-2 8a50.33 50.33 0 0 1 .5 9c-1.699.906-3.533 1.239-5.5 1-.85-6.255-2.517-6.255-5 0-6.822-2.181-8.489-.181-5 6-2.136 1.293-4.136 1.293-6 0h3a40.914 40.914 0 0 1 .5-9c3.206 1.624 5.872.958 8-2 2.455-6.048 1.955-11.715-1.5-17z"/><path style="opacity:1" fill="#3f3a64" d="M160.5 268.5v3a27.23 27.23 0 0 1-5.5-2l-2.5 1c1.908 2.437 4.241 4.104 7 5-5.985 1.23-8.652-1.104-8-7h9z"/><path style="opacity:1" fill="#46627e" d="M25.5 255.5c2.474 5.446 2.64 11.113.5 17-2.105 3.26-4.271 3.594-6.5 1 1.782-1.22 3.782-1.886 6-2v-16z"/><path style="opacity:1" fill="#414972" d="M83.5 249.5h-3c-.327 9.848.006 19.514 1 29 .13.876-.203 1.543-1 2a9.864 9.864 0 0 1-1-6h-3v6h-11c-1.14-2.504-1.806-5.17-2-8 2.253 5.127 6.253 7.127 12 6v-3c-5.784 1.216-8.45-1.118-8-7h9c-2.583.724-5.25 1.557-8 2.5 3.084 3.102 6.417 3.269 10 .5a133.125 133.125 0 0 0 1-23c1.599-.268 2.932.066 4 1z"/><path style="opacity:1" fill="#403872" d="M176.5 278.5c-.311.978-.978 1.645-2 2-2.255-3.495-4.588-3.662-7-.5-3.982 1.187-5.649-.313-5-4.5.085-1.833.752-3.166 2-4v7h3c-.166-5.344.001-10.677.5-16 1.312-2.158 2.978-2.491 5-1 .499 5.657.666 11.324.5 17h3z"/><path style="opacity:1" fill="#f5f3fb" d="M170.5 257.5h4c.283.789.783 1.456 1.5 2 .5 6.325.666 12.658.5 19h-3a145.053 145.053 0 0 0-.5-17c-2.022-1.491-3.688-1.158-5 1a128.507 128.507 0 0 0-.5 16h-3v-10a25.879 25.879 0 0 1 1-10c1.967 1.184 3.634.851 5-1z"/><path style="opacity:1" fill="#2d4198" d="M251.5 277.5v20c-6.413-1.069-11.746.597-16 5a36.875 36.875 0 0 1-12 1v8c-4.333 1-7 3.667-8 8h-8v8a24.935 24.935 0 0 0-7 .5 46.447 46.447 0 0 0-6.5 9.5c-6.252 2.752-11.085 7.085-14.5 13l-14 2a4.457 4.457 0 0 0 2 1.5c2.646.497 5.313.664 8 .5v5l-6-1h-10v5c-4.271-.16-6.271 2.007-6 6.5l1 2.5c.169-.897.502-1.897 1-3 .504 2.842 2.171 4.175 5 4h12c4 .667 4 1.333 0 2h-12c-.904.709-1.237 1.709-1 3a70.907 70.907 0 0 1 16.5 1l1-5c3.354 5.811 7.187 6.311 11.5 1.5a84.8 84.8 0 0 0 10.5-1.5 3.943 3.943 0 0 1 2 1c.278-.916.778-1.582 1.5-2 .655 5 3.322 6.667 8 5 .886-.825 1.219-1.825 1-3v-1c2.178 1.429 4.511 2.263 7 2.5a19.887 19.887 0 0 1 4-3.5c.533-1.932.533-3.932 0-6h-34c.111-.617.444-1.117 1-1.5a87.689 87.689 0 0 0 8-.5c-1.402-1.342-1.069-2.176 1-2.5-2.764-1.544-2.597-2.711.5-3.5a4.934 4.934 0 0 0 .5-3h8v-5h10c-.322-2.222.345-4.056 2-5.5a73.533 73.533 0 0 0 19-6c.88-1.356 1.214-2.856 1-4.5h9c.154-2.47 1.154-4.47 3-6v70h-154c4.771-7.95 11.437-13.45 20-16.5a20.645 20.645 0 0 1 5-7c7.277 1.526 11.944-1.307 14-8.5h7a13.116 13.116 0 0 1 1-7c2.594-1.092 4.761-2.759 6.5-5l1 3a31.177 31.177 0 0 0 4.5-6c-.825-.886-1.825-1.219-3-1-.107-2.403.893-4.236 3-5.5 3.423-1.904 7.09-2.737 11-2.5a41.541 41.541 0 0 1 1-8 13.116 13.116 0 0 0 7-1 138.7 138.7 0 0 0 14-14 20.2 20.2 0 0 1 6-1.5 25.55 25.55 0 0 1 6.5-5.5c.317 1.801.984 2.134 2 1 .71 1.473 1.876 2.14 3.5 2-.756-4.687.744-8.353 4.5-11 .617-.949.451-1.782-.5-2.5 2.776-1.779 2.443-2.779-1-3 4.271-.77 5.937-3.27 5-7.5 3.35.165 6.683-.002 10-.5a88.67 88.67 0 0 1 6.5-8.5c.414.457.914.791 1.5 1 3.809-1.593 7.809-2.426 12-2.5 1.57-2.07 3.57-3.57 6-4.5z"/><path style="opacity:1" fill="#3c4688" d="M81.5 278.5h2c.333 3-1 4.333-4 4v3c-3.488.399-3.654 1.066-.5 2 3.062-2.43 6.562-3.43 10.5-3v3h-4v4c1.624-.14 2.79.527 3.5 2 1.46-1.383 2.294-1.049 2.5 1a16.874 16.874 0 0 0-8 1c1.498 3.467 2.498 7.134 3 11l2-10c.396 3.763 1.396 7.097 3 10h4c-.237-1.291.096-2.291 1-3-.215 1.679.452 2.679 2 3 1.333 0 2 .667 2 2a116.247 116.247 0 0 1-21-2c.486-2.882.486-5.548 0-8-3.58-2.946-7.747-4.613-12.5-5a4.932 4.932 0 0 0-.5 3h-5c-.108-2.283-.941-4.283-2.5-6-3.143 1.672-5.643 1.006-7.5-2 .46-2.286 1.793-3.619 4-4a76.91 76.91 0 0 0 6 3.5 9.465 9.465 0 0 1 1.5 2.5c.495-1.973.662-3.973.5-6 2.48-.274 4.147-1.607 5-4h8v-6h3a9.864 9.864 0 0 0 1 6c.797-.457 1.13-1.124 1-2z"/><path style="opacity:1" fill="#43418d" d="M105.5 286.5c1.864 1.293 3.864 1.293 6 0-3.489-6.181-1.822-8.181 5-6-.614 1.783-1.78 3.116-3.5 4-.81 3.858-.643 7.524.5 11-.812 1.493-2.145 2.16-4 2-5.43-2.475-10.763-2.475-16 0a44.093 44.093 0 0 0-2-3c-.206-2.049-1.04-2.383-2.5-1-.71-1.473-1.876-2.14-3.5-2v-4h4v-3c-3.938-.43-7.438.57-10.5 3-3.154-.934-2.988-1.601.5-2v-3c3 .333 4.333-1 4-4 2.098-.984 4.098-.651 6 1 3.35.165 6.683-.002 10-.5a37.138 37.138 0 0 0 2-4.5c.825-.886 1.825-1.219 3-1-.318 4.532.015 8.866 1 13z"/><path style="opacity:1" fill="#3e4f87" d="M64.5 262.5a34.17 34.17 0 0 0-1 10c.194 2.83.86 5.496 2 8h3c-.853 2.393-2.52 3.726-5 4a18.437 18.437 0 0 1-.5 6 9.465 9.465 0 0 0-1.5-2.5 76.91 76.91 0 0 1-6-3.5c-2.207.381-3.54 1.714-4 4 1.857 3.006 4.357 3.672 7.5 2 1.559 1.717 2.392 3.717 2.5 6h5a4.932 4.932 0 0 1 .5-3c4.753.387 8.92 2.054 12.5 5-.596 2.613-1.429 2.613-2.5 0a2.427 2.427 0 0 0-.5 2l-2-1c-1.205-1.186-2.539-1.186-4 0h-1c-1.667-1.333-3.333-1.333-5 0h-2c-.927-1.976-2.26-2.309-4-1a4.458 4.458 0 0 0 2 1.5c-4.12 3.596-3.454 5.763 2 6.5a24.93 24.93 0 0 1 1 8 11.596 11.596 0 0 0-.5 7c1.356.88 2.856 1.214 4.5 1v-10c1.145 3.811 1.312 7.811.5 12-1.7 1.799-3.533 2.132-5.5 1l-6-2c0-.667.333-1 1-1 2.988.345 4.321-.988 4-4-.044-3.788-1.71-4.788-5-3-.21-1.924-.877-2.257-2-1h-3c-1.279-1.215-2.279-.882-3 1l-2-1c-.315-3.871.018-7.538 1-11-.219 1.175.114 2.175 1 3l2-7a9.864 9.864 0 0 1 1 6c.06.543.393.876 1 1a168.724 168.724 0 0 1 2-6 9.864 9.864 0 0 0 1 6c.76-2.657 1.426-5.323 2-8-1.522-1.656-1.189-2.823 1-3.5-1.428-.579-2.762-.412-4 .5l-7 2v-3h-3v17c-.973 2.448-1.306 5.115-1 8-.934-1.068-1.268-2.401-1-4-.969-.809-1.802-1.809-2.5-3-1.113 2.092-1.28 4.425-.5 7h-2v-8c-.306-2.885.027-5.552 1-8 .775 3.944 1.441 3.777 2-.5.242-2.348-.592-4.182-2.5-5.5-1.113 1.211-2.28 1.211-3.5 0-1.239.442-2.239 1.109-3 2h-1c-.667 0-1-.333-1-1s-.333-1-1-1c-.659-1.638-1.326-3.305-2-5a32.367 32.367 0 0 0 3-4.5l-1-1c1.45-1.117 3.116-1.784 5-2 4-4.349 3-6.349-3-6-.88-1.356-1.213-2.856-1-4.5.722-.418 1.222-1.084 1.5-2a34.706 34.706 0 0 0 6.5 7.5c3.35.388 6.682.221 10-.5v-5h-7c.14-1.624-.527-2.79-2-3.5a49.605 49.605 0 0 1 10 .5 51.648 51.648 0 0 1-1-7 4.932 4.932 0 0 1 .5-3c.716 2.379 1.883 4.379 3.5 6a102.763 102.763 0 0 1 3 11h3a366.596 366.596 0 0 1 5-21 2.427 2.427 0 0 1 .5-2 17.758 17.758 0 0 1 1.5 7z"/><path style="opacity:1" fill="#45447f" d="M129.5 295.5v11c1.788.285 3.455-.048 5-1-.825-.886-1.825-1.219-3-1-.273-1.951.393-3.451 2-4.5-.928-.388-1.595-1.055-2-2 .929-1.077 1.596-2.244 2-3.5 2.644-.34 4.977.327 7 2l2-2c1.188 1.34 2.688 2.007 4.5 2a47.233 47.233 0 0 1 12.5-2 82.565 82.565 0 0 0 16 2 40.914 40.914 0 0 1 .5-9c-.028 4.185 1.305 7.852 4 11 .927 3.363.427 6.363-1.5 9h-1v-9c-5.02-.595-6.686 1.405-5 6 .825.886 1.825 1.219 3 1v3c-.709.904-1.709 1.237-3 1v-3c-1.624-.14-2.79.527-3.5 2-.985-1.314-2.152-2.314-3.5-3a168.522 168.522 0 0 0 2-6l2 6c1.277-2.534 1.277-5.034 0-7.5-1.64-.348-2.973.152-4 1.5-1.667-1.333-3.333-1.333-5 0-1.53-2.377-3.03-2.377-4.5 0-.78 1.887-.613 3.554.5 5 .221 1.235.888 2.235 2 3a31.147 31.147 0 0 0-2 2 10.165 10.165 0 0 1-3-3c-.268-2.619.065-5.119 1-7.5a4.934 4.934 0 0 0-3-.5v7c-1.839 1.252-3.672 1.252-5.5 0-.29 1.544-.956 2.877-2 4-6.409-2.287-13.076-2.62-20-1-1.326.255-2.326.922-3 2-.708-.881-1.542-1.547-2.5-2v-5a44.093 44.093 0 0 1 2 3c.607-.124.94-.457 1-1a9.86 9.86 0 0 1 1-6l2 7c1.152-2.606 1.318-5.273.5-8-1.011-.837-2.178-1.17-3.5-1v-3c-.098-2.103.235-4.436 1-7a171.078 171.078 0 0 0 5 16 345.94 345.94 0 0 1 2-8z"/><path style="opacity:1" fill="#283471" d="M3.5 230.5v89c-1.293-5.235-1.626-10.569-1-16h-3v-70c.768-.763 1.268-1.763 1.5-3 .77 1.098 1.603 1.098 2.5 0z"/><path style="opacity:1" fill="#405e95" d="M15.5 255.5v23c5.226.967 9.559-.366 13-4h1c-.213 1.644.12 3.144 1 4.5 6-.349 7 1.651 3 6-1.884.216-3.55.883-5 2l1 1a32.367 32.367 0 0 1-3 4.5c.674 1.695 1.341 3.362 2 5-1.624.14-2.79-.527-3.5-2-1.7.906-3.533 1.239-5.5 1-.683-1.676-2.017-2.343-4-2v23c-.284 1.915.049 3.581 1 5 2.333 1.333 4.667 1.333 7 0h2c.39 1.89-.61 3.39-3 4.5 4.515.849 5.015 2.682 1.5 5.5-4.131-.428-7.631-2.095-10.5-5l-2 8a41.461 41.461 0 0 0-4-6.5c.16-1.956.494-3.956 1-6L7 321.5a573.348 573.348 0 0 1-2.5-62 70.874 70.874 0 0 1 2 4 309.254 309.254 0 0 0 2.5 20c4.132-4.531 4.966-9.531 2.5-15 .547-3.326 1.047-6.66 1.5-10 .236-1.619 1.069-2.619 2.5-3z"/><path style="opacity:1" fill="#617191" d="M54.5 295.5v5a168.724 168.724 0 0 0-2 6c-.607-.124-.94-.457-1-1 .968-2.107 1.302-4.441 1-7h-5v5c-.982 3.462-1.315 7.129-1 11-.667 0-1 .333-1 1-.934-1.068-1.268-2.401-1-4v-17h3v3l7-2z"/><path style="opacity:1" fill="#b7c2e5" d="M54.5 300.5v-5c1.238-.912 2.572-1.079 4-.5-2.189.677-2.522 1.844-1 3.5a123.004 123.004 0 0 1-2 8 9.864 9.864 0 0 1-1-6z"/><path style="opacity:1" fill="#47457a" d="M120.5 294.5v4c-.896-1.006-1.562-1.006-2 0h-5c-.302 2.559.032 4.893 1 7 2.758 1.467 2.425 2.133-1 2-3.122-.22-6.456-.22-10 0a5.727 5.727 0 0 0-3 1c0-1.333-.667-2-2-2 .272-8.386 1.106-8.72 2.5-1 1.183 1.231 2.349 1.231 3.5 0 1.333-2.333 1.333-4.667 0-7-2.245-.245-4.578-.245-7 0-.952 1.545-1.285 3.212-1 5-.904.709-1.237 1.709-1 3h-4v-1c.516-7.974 1.349-7.974 2.5 0 .497-2.31.663-4.643.5-7h-3v-4a44.093 44.093 0 0 1 2 3c5.237-2.475 10.57-2.475 16 0 1.855.16 3.188-.507 4-2 .617-.111 1.117-.444 1.5-1 1.155-9.311 1.988-9.311 2.5 0h3z"/><path style="opacity:1" fill="#b5cae3" d="M19.5 296.5c-2.518 1.011-2.518 2.344 0 4-1.152 2.293-2.485 4.293-4 6v-12c1.983-.343 3.317.324 4 2z"/><path style="opacity:1" fill="#a6adcf" d="M91.5 294.5v4c-1.333 2.333-1.333 4.667 0 7v1c-1.604-2.903-2.604-6.237-3-10l-2 10c-.502-3.866-1.502-7.533-3-11a16.874 16.874 0 0 1 8-1z"/><path style="opacity:1" fill="#bcd1e9" d="M29.5 298.5c0 .667.333 1 1 1a12.935 12.935 0 0 1-.5 5c-1.667 2.667-3.333 2.667-5 0-1.148-4.047.352-6.047 4.5-6z"/><path style="opacity:1" fill="#c6d4ec" d="M38.5 303.5c.262-1.478-.071-2.811-1-4a20.211 20.211 0 0 0-1.5 6c-1.765-7.812-3.098-7.479-4 1a24.939 24.939 0 0 1-.5-7c.761-.891 1.761-1.558 3-2 1.22 1.211 2.387 1.211 3.5 0 1.908 1.318 2.742 3.152 2.5 5.5-.559 4.277-1.225 4.444-2 .5z"/><path style="opacity:1" fill="#e1e6f4" d="M91.5 298.5h3a24.939 24.939 0 0 1-.5 7c-1.151-7.974-1.984-7.974-2.5 0-1.333-2.333-1.333-4.667 0-7z"/><path style="opacity:1" fill="#bebde4" d="M98.5 306.5c-1.548-.321-2.215-1.321-2-3-.285-1.788.048-3.455 1-5 2.422-.245 4.755-.245 7 0 1.333 2.333 1.333 4.667 0 7-1.151 1.231-2.317 1.231-3.5 0-1.394-7.72-2.228-7.386-2.5 1z"/><path style="opacity:1" fill="#c3bfe4" d="M120.5 294.5h1v3c1.322-.17 2.489.163 3.5 1 .818 2.727.652 5.394-.5 8l-2-7a9.86 9.86 0 0 0-1 6c-.968-2.107-1.302-4.441-1-7v-4z"/><path style="opacity:1" fill="#bec0df" d="M133.5 294.5c-.404 1.256-1.071 2.423-2 3.5.405.945 1.072 1.612 2 2-1.607 1.049-2.273 2.549-2 4.5 1.175-.219 2.175.114 3 1-1.545.952-3.212 1.285-5 1v-11c1.068-.934 2.401-1.268 4-1z"/><path style="opacity:1" fill="#c9caed" d="M177.5 307.5c-.342.838-1.008 1.172-2 1v-3c-1.175.219-2.175-.114-3-1-1.686-4.595-.02-6.595 5-6v9z"/><path style="opacity:1" fill="#b8bbdb" d="M79.5 298.5c.486 2.452.486 5.118 0 8-.767.672-1.434 1.505-2 2.5-.937.692-1.603.525-2-.5 1.38-.462 2.047-1.462 2-3a20.227 20.227 0 0 1-1-5 2.427 2.427 0 0 1 .5-2c1.071 2.613 1.904 2.613 2.5 0z"/><path style="opacity:1" fill="#e4e5fa" d="M140.5 297.5c.996-.086 1.829.248 2.5 1a12.494 12.494 0 0 1 0 7c-1-8-2-8-3 0a18.453 18.453 0 0 1-.5-6h-3a18.453 18.453 0 0 1-.5 6 24.935 24.935 0 0 1-.5-7c1.915.284 3.581-.049 5-1z"/><path style="opacity:1" fill="#5f5f7f" d="M165.5 299.5v6c-1.542.801-3.208 1.134-5 1v-7c1.667-1.333 3.333-1.333 5 0z"/><path style="opacity:1" fill="#595b6a" d="M120.5 298.5c-.302 2.559.032 4.893 1 7-.06.543-.393.876-1 1a44.093 44.093 0 0 0-2-3v-5c.438-1.006 1.104-1.006 2 0z"/><path style="opacity:1" fill="#bbbfde" d="M147.5 297.5c2.227.901 3.227 2.567 3 5-1.951-.273-3.451.393-4.5 2-.833-2.671-.333-5.004 1.5-7z"/><path style="opacity:1" fill="#2f2d5a" d="M173.5 299.5c1.149.291 1.816 1.124 2 2.5l-1 2.5c-.952-1.545-1.285-3.212-1-5z"/><path style="opacity:1" fill="#b8c1df" d="M62.5 299.5v7c-5.454-.737-6.12-2.904-2-6.5a4.458 4.458 0 0 1-2-1.5c1.74-1.309 3.073-.976 4 1z"/><path style="opacity:1" fill="#c0c5e8" d="M74.5 299.5c-2.567 1.735-2.567 3.735 0 6-1.368 1.094-2.535.76-3.5-1a12.935 12.935 0 0 1-.5-5c1.461-1.186 2.795-1.186 4 0z"/><path style="opacity:1" fill="#4d4e70" d="M101.5 299.5c3.456 1.036 3.79 2.703 1 5-.952-1.545-1.285-3.212-1-5z"/><path style="opacity:1" fill="#c3c4ee" d="M153.5 306.5c-.992.172-1.658-.162-2-1v-7a4.934 4.934 0 0 1 3 .5c-.935 2.381-1.268 4.881-1 7.5z"/><path style="opacity:1" fill="#b9b6d7" d="M165.5 305.5v-6c1.027-1.348 2.36-1.848 4-1.5 1.277 2.466 1.277 4.966 0 7.5l-2-6a168.522 168.522 0 0 1-2 6z"/><path style="opacity:1" fill="#bfcde0" d="M51.5 305.5a9.864 9.864 0 0 0-1-6l-2 7c-.886-.825-1.219-1.825-1-3v-5h5c.302 2.559-.032 4.893-1 7z"/><path style="opacity:1" fill="#29459b" d="M251.5 297.5v32c-1.846 1.53-2.846 3.53-3 6h-9c.214 1.644-.12 3.144-1 4.5a73.533 73.533 0 0 1-19 6c-1.655 1.444-2.322 3.278-2 5.5h-10v5h-8a4.934 4.934 0 0 1-.5 3c-3.097.789-3.264 1.956-.5 3.5-2.069.324-2.402 1.158-1 2.5a87.689 87.689 0 0 1-8 .5c-.556.383-.889.883-1 1.5h-2c.203-1.89-.463-3.39-2-4.5a260.572 260.572 0 0 0-15-4.5l6 1v-5a32.462 32.462 0 0 1-8-.5 4.457 4.457 0 0 1-2-1.5l14-2c3.415-5.915 8.248-10.248 14.5-13a46.447 46.447 0 0 1 6.5-9.5 24.935 24.935 0 0 1 7-.5v-8h8c1-4.333 3.667-7 8-8v-8a36.875 36.875 0 0 0 12-1c4.254-4.403 9.587-6.069 16-5z"/><path style="opacity:1" fill="#dce3f8" d="M69.5 299.5a18.437 18.437 0 0 1-.5 6c-1.558-7.785-2.891-7.785-4 0a18.437 18.437 0 0 1-.5-6c1.667-1.333 3.333-1.333 5 0z"/><path style="opacity:1" fill="#edecfa" d="M118.5 298.5v9c-.901-.79-1.568-1.79-2-3 1.288-1.535 1.288-3.201 0-5-2.107 1.413-2.44 3.08-1 5 0 .667-.333 1-1 1-.968-2.107-1.302-4.441-1-7h5z"/><path style="opacity:1" fill="#58557e" d="M116.5 304.5h-1c-1.44-1.92-1.107-3.587 1-5 1.288 1.799 1.288 3.465 0 5z"/><path style="opacity:1" fill="#d9dbf2" d="M160.5 299.5v7c-.194 2.412-1.527 3.412-4 3a31.147 31.147 0 0 1 2-2c-1.112-.765-1.779-1.765-2-3-1.113-1.446-1.28-3.113-.5-5 1.47-2.377 2.97-2.377 4.5 0z"/><path style="opacity:1" fill="#575680" d="M156.5 304.5c-.384-2.165.283-3.832 2-5 .952 1.545 1.285 3.212 1 5h-3z"/><path style="opacity:1" fill="#c6c8e5" d="M106.5 298.5c1.536 1.525 2.536 3.525 3 6a20.2 20.2 0 0 0 1.5-6c1.102 3.405.268 6.072-2.5 8-1.729-2.351-2.396-5.018-2-8z"/><path style="opacity:1" fill="#465983" d="M28.5 297.5c.667 0 1 .333 1 1-4.148-.047-5.648 1.953-4.5 6 1.667 2.667 3.333 2.667 5 0 .494-1.634.66-3.301.5-5h1c-.163 2.357.003 4.69.5 7 .902-8.479 2.235-8.812 4-1a20.211 20.211 0 0 1 1.5-6c.929 1.189 1.262 2.522 1 4-.973 2.448-1.306 5.115-1 8-1.287 1.371-1.953 3.205-2 5.5l1 5.5c.886-.825 1.219-1.825 1-3h2c-.228 1.855.439 2.688 2 2.5-1.6-2.64-1.266-4.807 1-6.5-.268 1.599.066 2.932 1 4a4.932 4.932 0 0 0 .5 3c.29-2.42.79-4.754 1.5-7 .617.111 1.117.444 1.5 1l1 6c.497-2.31.663-4.643.5-7 .721-1.882 1.721-2.215 3-1-2.245 1.917-2.578 4.25-1 7 2.947 1.356 4.613.356 5-3a349.752 349.752 0 0 1-1-4c1.123-1.257 1.79-.924 2 1-.202 2.45.131 4.783 1 7-.667 0-1 .333-1 1h-2c-7.187.325-14.187-.009-21-1 1.3-2.524 1.3-5.191 0-8-1.471 9.266-2.638 9.266-3.5 0a32.438 32.438 0 0 0-.5 8h-2c.557-4.954.224-7.621-1-8-1.322-.17-2.489.163-3.5 1-.703 2.429-.537 4.762.5 7-2.333 1.333-4.667 1.333-7 0v-3h3c-.219 1.175.114 2.175 1 3 .494-3.729-.172-7.395-2-11-1.3 1.944-2.3 3.944-3 6v-11c1.515-1.707 2.848-3.707 4-6-2.518-1.656-2.518-2.989 0-4 1.967.239 3.8-.094 5.5-1 .71 1.473 1.876 2.14 3.5 2z"/><path style="opacity:1" fill="#3c5069" d="M26.5 299.5c1.15.291 1.816 1.124 2 2.5l-1 2.5c-.952-1.545-1.285-3.212-1-5z"/><path style="opacity:1" fill="#dbedfb" d="M23.5 297.5c.543.06.876.393 1 1-1.52 2.056-2.353 4.39-2.5 7-.867-3.021-.367-5.688 1.5-8z"/><path style="opacity:1" fill="#9c9acc" d="M115.5 304.5h1c.432 1.21 1.099 2.21 2 3v1c-2.226 1.68-3.893 1.347-5-1 3.425.133 3.758-.533 1-2 .667 0 1-.333 1-1z"/><path style="opacity:1" fill="#464d78" d="M62.5 299.5h2a18.437 18.437 0 0 0 .5 6c1.109-7.785 2.442-7.785 4 0 .496-1.973.662-3.973.5-6h1c-.16 1.699.007 3.366.5 5 .965 1.76 2.132 2.094 3.5 1-2.567-2.265-2.567-4.265 0-6l2 1c.12 1.699.454 3.365 1 5 .047 1.538-.62 2.538-2 3-2.637-.664-5.303-1.331-8-2-2.204 1.282-2.538 2.949-1 5v3h-3a24.93 24.93 0 0 0-1-8v-7z"/><path style="opacity:1" fill="#3a388c" d="M103.5 307.5c2.469.817 5.135 1.317 8 1.5 4.416 4.453 9.082 4.62 14 .5a3.647 3.647 0 0 1 1.5 1c.495 1.973.662 3.973.5 6a41.541 41.541 0 0 1 8-1v3c-5.667.164-6 .497-1 1a226.562 226.562 0 0 0 1.5 34c-4.098 6.87-9.598 8.536-16.5 5-2.855.003-5.522.336-8 1h-16v11h-16v-3h8v-8h-3v-8h6c-.163-2.357.003-4.69.5-7 1.356-.88 2.856-1.214 4.5-1v-8h5v-16c-1.788.285-3.455-.048-5-1a46.8 46.8 0 0 1 10-3c-4.002-3.832-8.668-4.832-14-3a8.435 8.435 0 0 1 .5-4c3.045.625 5.878.625 8.5 0a5.727 5.727 0 0 1 3-1z"/><path style="opacity:1" fill="#dfedfc" d="M42.5 315.5c-2.266 1.693-2.6 3.86-1 6.5-1.561.188-2.228-.645-2-2.5-.78-2.575-.613-4.908.5-7 .698 1.191 1.531 2.191 2.5 3z"/><path style="opacity:1" fill="#d7def4" d="M66.5 311.5c.667 0 1 .333 1 1v10c-1.644.214-3.144-.12-4.5-1a11.596 11.596 0 0 1 .5-7h3v-3z"/><path style="opacity:1" fill="#e1f2fa" d="M27.5 322.5h-4c-1.037-2.238-1.203-4.571-.5-7 1.011-.837 2.178-1.17 3.5-1 1.224.379 1.557 3.046 1 8z"/><path style="opacity:1" fill="#e3eefd" d="M45.5 315.5c0-.667.333-1 1-1l2 1a24.939 24.939 0 0 1-.5 7l-1-6c-.383-.556-.883-.889-1.5-1z"/><path style="opacity:1" fill="#dce6f6" d="M57.5 322.5c-.869-2.217-1.202-4.55-1-7 3.29-1.788 4.956-.788 5 3 .321 3.012-1.012 4.345-4 4z"/><path style="opacity:1" fill="#555b79" d="M58.5 315.5c2.424 1.728 2.59 3.728.5 6-1.8-1.865-1.966-3.865-.5-6z"/><path style="opacity:1" fill="#c8d6e7" d="M16.5 322.5c-.951-1.419-1.284-3.085-1-5 .7-2.056 1.7-4.056 3-6 1.828 3.605 2.494 7.271 2 11-.886-.825-1.219-1.825-1-3h-3v3z"/><path style="opacity:1" fill="#59697e" d="M24.5 315.5c2.116 1.588 2.449 3.588 1 6-2.239-1.633-2.572-3.633-1-6z"/><path style="opacity:1" fill="#e8f8fe" d="M44.5 311.5c-.268 1.599.066 2.932 1 4a38.354 38.354 0 0 0-1.5 7 4.932 4.932 0 0 1-.5-3c-.306-2.885.027-5.552 1-8z"/><path style="opacity:1" fill="#c2cfe0" d="M51.5 314.5h3c.321 1.317.654 2.651 1 4-.387 3.356-2.053 4.356-5 3-1.578-2.75-1.245-5.083 1-7z"/><path style="opacity:1" fill="#434b77" d="M51.5 315.5c1.194.47 1.86 1.47 2 3l-1 3a9.864 9.864 0 0 1-1-6z"/><path style="opacity:1" fill="#454b6e" d="M64.5 315.5c1.194.47 1.86 1.47 2 3l-1 3a9.864 9.864 0 0 1-1-6z"/><path style="opacity:1" fill="#363680" d="M-.5 303.5h3c-.626 5.431-.293 10.765 1 16v80h-4v-96z"/><path style="opacity:1" fill="#ceddf5" d="M33.5 322.5h-4a32.438 32.438 0 0 1 .5-8c.862 9.266 2.029 9.266 3.5 0 1.3 2.809 1.3 5.476 0 8z"/><path style="opacity:1" fill="#b7c7e3" d="M37.5 311.5v8c.219 1.175-.114 2.175-1 3l-1-5.5c.047-2.295.713-4.129 2-5.5z"/><path style="opacity:1" fill="#3e5596" d="M3.5 223.5h1v36a573.348 573.348 0 0 0 2.5 62l1.5 1.5a37.876 37.876 0 0 0-1 6 41.461 41.461 0 0 1 4 6.5l2-8c2.869 2.905 6.369 4.572 10.5 5 3.515-2.818 3.015-4.651-1.5-5.5 2.39-1.11 3.39-2.61 3-4.5h8c6.813.991 13.813 1.325 21 1-5.846.667-11.846 1.333-18 2 .333 1 1 1.667 2 2 1.468-1.833 3.135-2.166 5-1-1.402 1.342-1.069 2.176 1 2.5a50.747 50.747 0 0 1-13 3.5c-2.208 6.638-3.375 13.638-3.5 21-3.602 2.677-5.27 6.344-5 11l-2 2c-.096 2.951-.93 5.618-2.5 8 2.274 2.536 1.607 4.536-2 6a43.123 43.123 0 0 1-1-13h-8a32.438 32.438 0 0 0-.5-8l-1 10a1713.424 1713.424 0 0 0-2.5-42v-104z"/><path style="opacity:1" fill="#3b4e94" d="M54.5 323.5h2l6 2h-7v4a41.541 41.541 0 0 0 8-1v4c-2.62-.268-5.12.065-7.5 1l-1-2a18.083 18.083 0 0 1-3.5 2 25.87 25.87 0 0 0-1 10h-3v15h-3a4.932 4.932 0 0 0-.5-3 56.329 56.329 0 0 1-6.5 11.5c.928.388 1.595 1.055 2 2l-4.5 4.5-1 11c-1.908 2.832-2.741 2.499-2.5-1h-4l-1 16h-23v-72c.996 13.832 1.83 27.832 2.5 42l1-10c.497 2.646.664 5.313.5 8h8a43.123 43.123 0 0 0 1 13c3.607-1.464 4.274-3.464 2-6 1.57-2.382 2.404-5.049 2.5-8l2-2c-.27-4.656 1.398-8.323 5-11 .125-7.362 1.292-14.362 3.5-21a50.747 50.747 0 0 0 13-3.5c-2.069-.324-2.402-1.158-1-2.5-1.865-1.166-3.532-.833-5 1-1-.333-1.667-1-2-2 6.154-.667 12.154-1.333 18-2z"/><path style="opacity:1" fill="#393b8d" d="M79.5 306.5a116.247 116.247 0 0 0 21 2c-2.622.625-5.455.625-8.5 0a8.435 8.435 0 0 0-.5 4c5.332-1.832 9.998-.832 14 3a46.8 46.8 0 0 0-10 3c1.545.952 3.212 1.285 5 1v16h-5v8c-1.644-.214-3.144.12-4.5 1a24.939 24.939 0 0 0-.5 7h-6v8h3v8h-8v3h16v-11h16v8c1.788-.285 3.455.048 5 1-3.007 4.68-7.34 6.847-13 6.5l-7 4.5a13.118 13.118 0 0 0-1 7h-16v-3h-21a814.369 814.369 0 0 1 2.5-18 3.647 3.647 0 0 1 1.5-1l2 3a16.868 16.868 0 0 0 1-8h3v-8h6a64.873 64.873 0 0 1 1-16l3-4 2 4a65.757 65.757 0 0 0 2-16c-1.175.219-2.175-.114-3-1a44.293 44.293 0 0 0 3-2c1.56.019 3.06.352 4.5 1a13.755 13.755 0 0 1 5.5-2.5c-3.857-2.803-8.19-3.97-13-3.5v-5z"/><path style="opacity:1" fill="#363d93" d="M251.5 265.5v12c-2.43.93-4.43 2.43-6 4.5-4.191.074-8.191.907-12 2.5a3.647 3.647 0 0 1-1.5-1 88.67 88.67 0 0 0-6.5 8.5c-3.317.498-6.65.665-10 .5.937 4.23-.729 6.73-5 7.5 3.443.221 3.776 1.221 1 3 .951.718 1.117 1.551.5 2.5-3.756 2.647-5.256 6.313-4.5 11-1.624.14-2.79-.527-3.5-2-1.016 1.134-1.683.801-2-1a25.55 25.55 0 0 0-6.5 5.5 20.2 20.2 0 0 0-6 1.5 138.7 138.7 0 0 1-14 14 13.116 13.116 0 0 1-7 1 41.541 41.541 0 0 0-1 8c-3.91-.237-7.577.596-11 2.5-2.107 1.264-3.107 3.097-3 5.5 1.175-.219 2.175.114 3 1a31.177 31.177 0 0 1-4.5 6l-1-3c-1.739 2.241-3.906 3.908-6.5 5a13.116 13.116 0 0 0-1 7h-7c-2.056 7.193-6.723 10.026-14 8.5a20.645 20.645 0 0 0-5 7c-8.563 3.05-15.229 8.55-20 16.5h-40c-.321-5.526.012-10.86 1-16h21v3h16a13.118 13.118 0 0 1 1-7l7-4.5c5.66.347 9.993-1.82 13-6.5-1.545-.952-3.212-1.285-5-1v-8c2.478-.664 5.145-.997 8-1 6.902 3.536 12.402 1.87 16.5-5a226.562 226.562 0 0 1-1.5-34c-5-.503-4.667-.836 1-1v-3a41.541 41.541 0 0 0-8 1 18.453 18.453 0 0 0-.5-6 3.647 3.647 0 0 0-1.5-1c-4.918 4.12-9.584 3.953-14-.5-2.865-.183-5.531-.683-8-1.5 3.544-.22 6.878-.22 10 0 1.107 2.347 2.774 2.68 5 1 .958.453 1.792 1.119 2.5 2 .674-1.078 1.674-1.745 3-2 6.924-1.62 13.591-1.287 20 1 1.044-1.123 1.71-2.456 2-4 1.828 1.252 3.661 1.252 5.5 0 .342.838 1.008 1.172 2 1a10.165 10.165 0 0 0 3 3c2.473.412 3.806-.588 4-3 1.792.134 3.458-.199 5-1 1.348.686 2.515 1.686 3.5 3 .71-1.473 1.876-2.14 3.5-2v3c1.291.237 2.291-.096 3-1 .992.172 1.658-.162 2-1h1c-.528 1.347-.695 2.681-.5 4a25.965 25.965 0 0 1 5-5c.617.949.451 1.782-.5 2.5 1.135.749 2.135.583 3-.5 1.402-1.342 1.069-2.176-1-2.5 3.226-2.964 5.559-6.464 7-10.5 4.957-.29 7.623-2.957 8-8h8a4.934 4.934 0 0 0 .5 3c2.884-1.884 5.051-4.384 6.5-7.5l-2-1 6-6-3-1c.837-1.011 1.17-2.178 1-3.5h7v4a8.43 8.43 0 0 0 4-.5c3.279-3.101 7.279-4.268 12-3.5v-6c2.865.445 5.365-.222 7.5-2 1.049 1.607 2.549 2.273 4.5 2z"/><path style="opacity:1" fill="#2c448e" d="M169.5 358.5a260.572 260.572 0 0 1 15 4.5c1.537 1.11 2.203 2.61 2 4.5h-7c-.543-.06-.876-.393-1-1 1.103-.498 2.103-.831 3-1-1.189-.929-2.522-1.262-4-1-.06-.543-.393-.876-1-1a13.116 13.116 0 0 0-1 7h-4c.284-1.915-.049-3.581-1-5 0-2-1-3-3-3-2.562-2.986-4.729-2.653-6.5 1l-2.5 5c.881 1.471 2.214 2.304 4 2.5-.881.708-1.547 1.542-2 2.5-2.829.175-4.496-1.158-5-4-.498 1.103-.831 2.103-1 3l-1-2.5c-.271-4.493 1.729-6.66 6-6.5v-5h10z"/><path style="opacity:1" fill="#b7caed" d="M167.5 362.5c-1.347.671-2.514.671-3.5 0l-3.5 5a39.24 39.24 0 0 1 4 0c1.671-2.581 2.171-2.248 1.5 1a10.756 10.756 0 0 0-2.5 3 13.116 13.116 0 0 0 7 1v-7c.951 1.419 1.284 3.085 1 5v3h-11c.453-.958 1.119-1.792 2-2.5-1.786-.196-3.119-1.029-4-2.5l2.5-5c1.771-3.653 3.938-3.986 6.5-1z"/><path style="opacity:1" fill="#344b76" d="M167.5 362.5a6.547 6.547 0 0 0 3 3v7a13.116 13.116 0 0 1-7-1 10.756 10.756 0 0 1 2.5-3c.671-3.248.171-3.581-1.5-1a39.24 39.24 0 0 0-4 0l3.5-5c.986.671 2.153.671 3.5 0z"/><path style="opacity:1" fill="#bbd6fb" d="M167.5 362.5c2 0 3 1 3 3a6.547 6.547 0 0 1-3-3z"/><path style="opacity:1" fill="#c5d7ef" d="M177.5 364.5c1.478-.262 2.811.071 4 1-.897.169-1.897.502-3 1 .124.607.457.94 1 1 2.734 2.577 2.568 4.911-.5 7-.995-.566-1.828-1.233-2.5-2 1.155-.078 2.488-.412 4-1-.847-1.345-2.013-2.345-3.5-3-.579-1.428-.412-2.762.5-4z"/><path style="opacity:1" fill="#c8d5ee" d="M206.5 367.5h5a16.332 16.332 0 0 1-2 4c-.169-.897-.502-1.897-1-3-.929 1.189-1.262 2.522-1 4 1.88-.271 3.213.396 4 2v1c-1.358-1.126-2.692-1.126-4 0 1.109 1.714.442 2.381-2 2 .231-3.284.564-6.617 1-10z"/><path style="opacity:1" fill="#394d7a" d="M177.5 364.5c-.912 1.238-1.079 2.572-.5 4 1.487.655 2.653 1.655 3.5 3-1.512.588-2.845.922-4 1-1.599-.268-2.932.066-4 1h-1v-3h4a13.116 13.116 0 0 1 1-7c.607.124.94.457 1 1z"/><path style="opacity:1" fill="#374190" d="M82.5 316.5a44.293 44.293 0 0 1-3 2c.825.886 1.825 1.219 3 1a65.757 65.757 0 0 1-2 16l-2-4-3 4a64.873 64.873 0 0 0-1 16h-6v8h-3a16.868 16.868 0 0 1-1 8l-2-3a3.647 3.647 0 0 0-1.5 1 814.369 814.369 0 0 0-2.5 18c-.988 5.14-1.321 10.474-1 16h-18a84.94 84.94 0 0 1 .5-13c1.848-2.541 4.348-3.541 7.5-3v-23a6.845 6.845 0 0 0 4-1 4.451 4.451 0 0 1 1.5 2 73.633 73.633 0 0 1 5.5-9.5 12.93 12.93 0 0 1 5-.5 84.94 84.94 0 0 1 .5-13c1.667-2.128 3.834-3.461 6.5-4a19.897 19.897 0 0 0-3.5-4c-.741-2.612.259-4.278 3-5a20.067 20.067 0 0 0 3.5-7.5 21.339 21.339 0 0 1 9-1.5z"/><path style="opacity:1" fill="#d0dbf5" d="M198.5 367.5h5c1.679 2.512 1.345 4.512-1 6-.407-6.549-1.407-6.549-3 0l-1-.5c1.252-1.828 1.252-3.661 0-5.5z"/><path style="opacity:1" fill="#3e4b82" d="M211.5 367.5h2c-2.824 3.85-1.824 5.683 3 5.5-3.956-1.114-3.956-1.947 0-2.5v-3h1c1.252 1.839 1.252 3.672 0 5.5 1 .667 2 .667 3 0-1.42-2.574-.753-4.407 2-5.5.533 2.068.533 4.068 0 6a19.887 19.887 0 0 0-4 3.5c-2.489-.237-4.822-1.071-7-2.5-.787-1.604-2.12-2.271-4-2-.262-1.478.071-2.811 1-4 .498 1.103.831 2.103 1 3a16.332 16.332 0 0 0 2-4z"/><path style="opacity:1" fill="#c7d2ed" d="M213.5 367.5h3v3c-3.956.553-3.956 1.386 0 2.5-4.824.183-5.824-1.65-3-5.5z"/><path style="opacity:1" fill="#d4e1f7" d="M217.5 367.5h5c-2.753 1.093-3.42 2.926-2 5.5-1 .667-2 .667-3 0 1.252-1.828 1.252-3.661 0-5.5z"/><path style="opacity:1" fill="#364884" d="M179.5 367.5h3c1.292 3.168 1.292 6.335 0 9.5 2.676.617 3.343-.216 2-2.5 3.863-1.126 4.863-3.459 3-7h3c.239 1.967-.094 3.801-1 5.5 1 .667 2 .667 3 0-1.32-2.215-.653-3.715 2-4.5 1.247 1.506 1.247 3.006 0 4.5 1 .667 2 .667 3 0-.906-1.699-1.239-3.533-1-5.5h2c1.252 1.839 1.252 3.672 0 5.5l1 .5c1.593-6.549 2.593-6.549 3 0-.722.418-1.222 1.084-1.5 2a3.943 3.943 0 0 0-2-1 84.8 84.8 0 0 1-10.5 1.5c-4.313 4.811-8.146 4.311-11.5-1.5l-1 5a70.907 70.907 0 0 0-16.5-1c-.237-1.291.096-2.291 1-3 1.548 1.294 3.548 1.961 6 2 2.452-.039 4.452-.706 6-2 4-.667 4-1.333 0-2 1.068-.934 2.401-1.268 4-1 .672.767 1.505 1.434 2.5 2 3.068-2.089 3.234-4.423.5-7z"/><path style="opacity:1" fill="#97b1c2" d="M160.5 375.5h12c-1.548 1.294-3.548 1.961-6 2-2.452-.039-4.452-.706-6-2z"/><path style="opacity:1" fill="#caddf4" d="M182.5 367.5h5c1.863 3.541.863 5.874-3 7 1.343 2.284.676 3.117-2 2.5 1.292-3.165 1.292-6.332 0-9.5z"/><path style="opacity:1" fill="#425171" d="M184.5 368.5c3.361.703 3.694 2.037 1 4-.929-1.189-1.262-2.522-1-4z"/><path style="opacity:1" fill="#d2e0f6" d="M190.5 367.5h6c-.239 1.967.094 3.801 1 5.5-1 .667-2 .667-3 0 1.247-1.494 1.247-2.994 0-4.5-2.653.785-3.32 2.285-2 4.5-1 .667-2 .667-3 0 .906-1.699 1.239-3.533 1-5.5z"/><path style="opacity:1" fill="#404f8d" d="M203.5 367.5h3a173.444 173.444 0 0 0-1 10c2.442.381 3.109-.286 2-2 1.308-1.126 2.642-1.126 4 0 .219 1.175-.114 2.175-1 3-4.678 1.667-7.345 0-8-5 2.345-1.488 2.679-3.488 1-6z"/><path style="opacity:1" fill="#39468f" d="M75.5 308.5c.397 1.025 1.063 1.192 2 .5.566-.995 1.233-1.828 2-2.5v5c4.81-.47 9.143.697 13 3.5a13.755 13.755 0 0 0-5.5 2.5 11.184 11.184 0 0 0-4.5-1 21.339 21.339 0 0 0-9 1.5 20.067 20.067 0 0 1-3.5 7.5c-2.741.722-3.741 2.388-3 5a19.897 19.897 0 0 1 3.5 4c-2.666.539-4.833 1.872-6.5 4a84.94 84.94 0 0 0-.5 13 12.93 12.93 0 0 0-5 .5 73.633 73.633 0 0 0-5.5 9.5 4.451 4.451 0 0 0-1.5-2 6.845 6.845 0 0 1-4 1v23c-3.152-.541-5.652.459-7.5 3a84.94 84.94 0 0 0-.5 13h-13l1-16h4c-.241 3.499.592 3.832 2.5 1l1-11 4.5-4.5c-.405-.945-1.072-1.612-2-2a56.329 56.329 0 0 0 6.5-11.5c.483.948.65 1.948.5 3h3v-15h3a25.87 25.87 0 0 1 1-10 18.083 18.083 0 0 0 3.5-2l1 2c2.38-.935 4.88-1.268 7.5-1v-4a41.541 41.541 0 0 1-8 1v-4h7c1.967 1.132 3.8.799 5.5-1 .812-4.189.645-8.189-.5-12 0-.667-.333-1-1-1-1.538-2.051-1.204-3.718 1-5 2.697.669 5.363 1.336 8 2z"/></svg>