<svg xmlns="http://www.w3.org/2000/svg" width="428" height="372" style="shape-rendering:geometricPrecision;text-rendering:geometricPrecision;image-rendering:optimizeQuality;fill-rule:evenodd;clip-rule:evenodd"><path style="opacity:1" fill="#fefefe" d="M-.5-.5h428v372H-.5V-.5z"/><path style="opacity:1" fill="#f1e0d1" d="M246.5 23.5a30 30 0 0 0-9 3c1.735-2.387 4.068-4.053 7-5 1.213.247 1.88.914 2 2z"/><path style="opacity:1" fill="#d7d7d7" d="M177.5 29.5a17.128 17.128 0 0 1-7-3c-1.349.346-2.683.679-4 1 .691-1.522 1.858-2.522 3.5-3 2.939 1.123 5.439 2.79 7.5 5z"/><path style="opacity:1" fill="#c57835" d="M246.5 23.5c.535 1.946 1.868 2.946 4 3 .473 1.406 1.473 2.073 3 2 .709.904 1.709 1.237 3 1v15c-3.349.67-6.016 2.336-8 5-2.479 1.123-4.812 1.123-7 0-.473-1.406-1.473-2.073-3-2-2.284-.475-4.284-1.475-6-3v-15a11.743 11.743 0 0 0 5-3 30 30 0 0 1 9-3z"/><path style="opacity:1" fill="#919191" d="M177.5 29.5c1.159 1.75 2.826 2.75 5 3 3.027 4.039 4.361 8.706 4 14l-.5 10c-1.518.663-2.685 1.663-3.5 3a178.267 178.267 0 0 0-13 7 226.393 226.393 0 0 1-16.5-10c-.821-7.18-.655-14.18.5-21 3.171-.506 5.504-2.172 7-5 2.467-.255 4.467-1.255 6-3 1.317-.321 2.651-.654 4-1a17.128 17.128 0 0 0 7 3z"/><path style="opacity:1" fill="#dfb38e" d="M250.5 26.5c1.527-.073 2.527.594 3 2-1.527.073-2.527-.594-3-2z"/><path style="opacity:1" fill="#ead1bc" d="M232.5 29.5v15c-1.305-1.897-1.971-4.23-2-7l.5-7c.383-.556.883-.89 1.5-1z"/><path style="opacity:1" fill="#bebebe" d="M160.5 30.5c-1.496 2.828-3.829 4.494-7 5 2.002-1.982 4.335-3.648 7-5z"/><path style="opacity:1" fill="#aeaeae" d="M182.5 32.5a22.165 22.165 0 0 0 6 3c.166 7.008 0 14.008-.5 21-1.488 1.66-3.321 2.66-5.5 3 .815-1.337 1.982-2.337 3.5-3l.5-10c.361-5.294-.973-9.961-4-14z"/><path style="opacity:1" fill="#e8ceb5" d="M253.5 28.5h4c.321 5.526-.012 10.86-1 16v-15c-1.291.237-2.291-.096-3-1z"/><path style="opacity:1" fill="#f0dfce" d="M256.5 44.5c-1.626 3.122-4.292 4.788-8 5 1.984-2.664 4.651-4.33 8-5z"/><path style="opacity:1" fill="#d8a677" d="M238.5 47.5c1.527-.073 2.527.594 3 2-1.527.073-2.527-.594-3-2z"/><path style="opacity:1" fill="#929292" d="M319.5 65.5a96.252 96.252 0 0 1 1 19c-1.88-.27-3.213.396-4 2a55.2 55.2 0 0 0-10.5 6 41.43 41.43 0 0 0-9.5-4.5c-2.118-1.05-3.784-2.55-5-4.5a86.751 86.751 0 0 1 1-18c3.729-2.952 7.895-5.285 12.5-7a185.489 185.489 0 0 1 14.5 7z"/><path style="opacity:1" fill="#6a839c" d="M121.5 61.5a24.93 24.93 0 0 0-8 1c1.371-1.641 3.204-2.641 5.5-3 1.301.139 2.134.805 2.5 2z"/><path style="opacity:1" fill="#b1bfcb" d="M121.5 61.5c2.813-.475 4.813.525 6 3a607.576 607.576 0 0 1-6-3z"/><path style="opacity:1" fill="#c1cbd5" d="M127.5 64.5c3.139.099 5.473 1.432 7 4-2.831-.579-5.164-1.912-7-4z"/><path style="opacity:1" fill="#8e9fb3" d="M109.5 64.5c-.473 1.406-1.473 2.073-3 2 .473-1.406 1.473-2.073 3-2z"/><path style="opacity:1" fill="#c6c6c6" d="M292.5 65.5a86.751 86.751 0 0 0-1 18c-.665-2.814-.998-5.814-1-9 .017-3.413.684-6.413 2-9z"/><path style="opacity:1" fill="#7b92a8" d="M106.5 66.5a35.913 35.913 0 0 1-9 6.5 42.618 42.618 0 0 1-5 1.5c4.05-3.588 8.716-6.255 14-8z"/><path style="opacity:1" fill="#9fafbf" d="M136.5 69.5c1.527-.073 2.527.594 3 2-1.527.073-2.527-.594-3-2z"/><path style="opacity:1" fill="#d4d4d4" d="M319.5 65.5c1.32 2.928 1.986 6.261 2 10l-.5 10c-1.356.88-2.856 1.213-4.5 1 .787-1.604 2.12-2.27 4-2a96.252 96.252 0 0 0-1-19z"/><path style="opacity:1" fill="#869caf" d="M139.5 71.5c1.527-.073 2.527.594 3 2-1.527.073-2.527-.594-3-2z"/><path style="opacity:1" fill="#bdc8d3" d="M142.5 73.5c2.813-.475 4.813.525 6 3a607.576 607.576 0 0 1-6-3z"/><path style="opacity:1" fill="#7f95a9" d="M92.5 74.5c-.986 1.908-2.652 2.908-5 3 1.16-1.75 2.826-2.75 5-3z"/><path style="opacity:1" fill="#94a7b8" d="M148.5 76.5c1.8 6.258 2.633 12.925 2.5 20a19.62 19.62 0 0 1 3.5 2c-1.644.213-3.144-.12-4.5-1-.203-7.08-.703-14.08-1.5-21z"/><path style="opacity:1" fill="#abb9c6" d="M222.5 79.5a20.676 20.676 0 0 0-5 1c1.379-2.097 3.045-2.43 5-1z"/><path style="opacity:1" fill="#e5c5a7" d="M347.5 78.5c-.762 1.762-2.096 2.762-4 3 .762-1.762 2.096-2.762 4-3z"/><path style="opacity:1" fill="#c47735" d="M347.5 78.5c2.185.204 4.185.87 6 2 .473 1.406 1.473 2.073 3 2 1.836 2.088 4.169 3.421 7 4 1.333 6 1.333 12 0 18-2.174.25-3.841 1.25-5 3-2.174.25-3.841 1.25-5 3a15.414 15.414 0 0 0-4.5 2 80.682 80.682 0 0 0-5.5-3c-.473-1.406-1.473-2.073-3-2-2.179-.34-4.012-1.34-5.5-3-.499-5.99-.666-11.99-.5-18 1.527.073 2.527-.594 3-2a5.728 5.728 0 0 1 3-1c1.527.073 2.527-.594 3-2 1.904-.238 3.238-1.238 4-3z"/><path style="opacity:1" fill="#1e446a" d="M121.5 61.5c1.956.992 3.956 1.992 6 3 1.836 2.088 4.169 3.421 7 4 .342.838 1.008 1.172 2 1 .473 1.406 1.473 2.073 3 2 .473 1.406 1.473 2.073 3 2 1.956.992 3.956 1.992 6 3 .797 6.92 1.297 13.92 1.5 21 1.356.88 2.856 1.213 4.5 1h4c7.721 2.154 15.721 3.487 24 4 2.099 1.112 4.433 1.779 7 2-.221-2.779.112-5.445 1-8 0-.667.333-1 1-1 3.752-.44 6.752-2.107 9-5 .342-.838 1.008-1.172 2-1 1.527.073 2.527-.594 3-2 .667 0 1-.333 1-1 1.88.27 3.213-.396 4-2 1.495-.489 2.829-1.155 4-2 1.527.073 2.527-.594 3-2a20.676 20.676 0 0 1 5-1c.762 1.762 2.096 2.762 4 3 1.171.845 2.505 1.511 4 2 2.72 2.026 5.72 3.693 9 5 .342.838 1.008 1.172 2 1 .473 1.406 1.473 2.073 3 2 .473 1.406 1.473 2.073 3 2a9.818 9.818 0 0 1 4 3 307.162 307.162 0 0 1-1 35c-2.107 1.413-2.44 3.08-1 5a645.496 645.496 0 0 0 21 27 18.473 18.473 0 0 0 2 3.5c.937.692 1.603.525 2-.5 3.752-.44 6.752-2.107 9-5 1.527.073 2.527-.594 3-2 2.813.475 4.813-.525 6-3a20.69 20.69 0 0 1 5 1c.473 1.406 1.473 2.073 3 2 2.112 2.271 4.779 3.604 8 4 .453.958 1.119 1.792 2 2.5a50.656 50.656 0 0 0 8 3.5c.473 1.406 1.473 2.073 3 2 .342.838 1.008 1.172 2 1a212.116 212.116 0 0 0 2 13c10.487.994 21.154 1.328 32 1-.525-4.64.142-8.973 2-13 3.349-.669 6.016-2.336 8-5a44.684 44.684 0 0 1 7-3c1.333 0 2-.667 2-2h1c1.542-.801 3.208-1.134 5-1 1.956.992 3.956 1.992 6 3 1.399 1.39 3.066 2.39 5 3 1.014 1.174 2.347 1.84 4 2 .473 1.406 1.473 2.073 3 2 .311.978.978 1.645 2 2a196.869 196.869 0 0 1 1 28 5.727 5.727 0 0 0-3 1 726.923 726.923 0 0 0-8 5c-2.174.25-3.841 1.25-5 3-.992-.172-1.658.162-2 1-1.679-.215-2.679.452-3 2h-3c-.473-1.406-1.473-2.073-3-2l-2-1c-.473-1.406-1.473-2.073-3-2a73.818 73.818 0 0 1-13-7v-1c.289-3.606-.044-7.106-1-10.5-4.852-.815-9.519-.648-14 .5h-19v18c-1 .333-1.667 1-2 2h-1c-2.174.25-3.841 1.25-5 3-2.174.25-3.841 1.25-5 3-2.831.579-5.164 1.912-7 4-1.679-.215-2.679.452-3 2a75.247 75.247 0 0 1-9 3c-.992.172-1.658-.162-2-1-.473-1.406-1.473-2.073-3-2a5.727 5.727 0 0 1-3-1 9.82 9.82 0 0 0-4-3c-2.216-2.944-5.216-4.611-9-5-1.159-1.75-2.826-2.75-5-3-.283-.789-.783-1.456-1.5-2a216.503 216.503 0 0 1 .5-36c3.773-2.01 3.773-4.01 0-6a448.562 448.562 0 0 0-18-23c-.557-2.55-1.89-4.55-4-6-1.955-1.43-3.621-1.097-5 1-2.174.25-3.841 1.25-5 3-2.174.25-3.841 1.25-5 3-2.174.25-3.841 1.25-5 3-1.784 1.22-3.45 1.22-5 0-1.019-1.601-2.519-2.601-4.5-3-1.749.248-2.582 1.248-2.5 3-1.75 1.159-2.75 2.826-3 5 0 .667-.333 1-1 1-1.174 1.014-1.84 2.347-2 4-1.75 1.159-2.75 2.826-3 5-1.75 1.159-2.75 2.826-3 5v1c-1.548.321-2.215 1.321-2 3-.667 0-1 .333-1 1-1.406.473-2.073 1.473-2 3a5.727 5.727 0 0 0-1 3c-1.75 1.159-2.75 2.826-3 5-1.75 1.159-2.75 2.826-3 5-1.699 2.066-3.032 4.4-4 7-1.174 1.014-1.84 2.347-2 4-1.75 1.159-2.75 2.826-3 5-.617.111-1.117.444-1.5 1a481.165 481.165 0 0 0-.5 31c-2.831.579-5.164 1.912-7 4-2.467.255-4.467 1.255-6 3l-2 1c-1.527-.073-2.527.594-3 2a5.727 5.727 0 0 1-3 1c-.996-.086-1.829.248-2.5 1a32.462 32.462 0 0 0-.5 8c-1.311 4.183-1.311 8.516 0 13a5.576 5.576 0 0 0 3 1c.342.838 1.008 1.172 2 1 .473 1.406 1.473 2.073 3 2 .321 1.548 1.321 2.215 3 2v21c-3.221.396-5.888 1.729-8 4-2.174.25-3.841 1.25-5 3a21.435 21.435 0 0 1-7 1l-2-1c-.473-1.406-1.473-2.073-3-2-2.817-.595-5.15-1.928-7-4-.283-.789-.783-1.456-1.5-2-.795-7.08-.628-14.08.5-21v-1c1.88.271 3.213-.396 4-2 2.174-.25 3.841-1.25 5-3l4-1c.996.086 1.829-.248 2.5-1 1.688-7.111 1.855-14.111.5-21l-2-2c-.473-1.406-1.473-2.073-3-2l-2-1c-.473-1.406-1.473-2.073-3-2-.815-1.337-1.982-2.337-3.5-3l-1-27c-.383-.556-.883-.889-1.5-1a5.727 5.727 0 0 1-3-1 2818.276 2818.276 0 0 0-15-10.5c-1.765-.64-3.432-.473-5 .5-1.527-.073-2.527.594-3 2-2.174.25-3.841 1.25-5 3-2.174.25-3.84 1.25-5 3-1.667 1.333-3.333 1.333-5 0a18.915 18.915 0 0 1-5-3c-.473-1.406-1.473-2.073-3-2l-2-1c-.473-1.406-1.473-2.073-3-2-.992.172-1.658-.162-2-1-1.268-1.547-2.935-2.547-5-3-1.333-9-1.333-18 0-27 2.065-.453 3.732-1.453 5-3l2-1c3.221-.396 5.888-1.729 8-4 2.006-.985 3.673-2.318 5-4a21.434 21.434 0 0 1 7 1c.473 1.406 1.473 2.073 3 2 .473 1.406 1.473 2.073 3 2 1.171.845 2.505 1.511 4 2 2.066 1.699 4.4 3.032 7 4 0 .667.333 1 1 1-.166 8.673 0 17.34.5 26 .671.752 1.504 1.086 2.5 1a36.16 36.16 0 0 0 7 4c.473 1.406 1.473 2.073 3 2 .473 1.406 1.473 2.073 3 2 .79.901 1.79 1.568 3 2 2.667 4 5.333 4 8 0l2-1c1.527.073 2.527-.594 3-2l2-1a5.727 5.727 0 0 0 3-1 24.93 24.93 0 0 1 8 1c.473 1.406 1.473 2.073 3 2 1.171.845 2.505 1.511 4 2 .473 1.406 1.473 2.073 3 2 1.527.073 2.527-.594 3-2 1.946-.535 2.946-1.868 3-4 .203-2.733 1.203-5.066 3-7 1.701-.711 2.701-2.045 3-4v-1c1.406-.473 2.073-1.473 2-3l2-4c2.45-2.129 4.117-4.796 5-8 1.701-.711 2.701-2.045 3-4-.067-1.459.266-2.792 1-4 1.406-.473 2.073-1.473 2-3 0-.667.333-1 1-1 .901-.79 1.568-1.79 2-3v-1c2.47-2.92 4.47-6.254 6-10a11.803 11.803 0 0 0 2-3.5 32.523 32.523 0 0 0-6-4.5c-.473-1.406-1.473-2.073-3-2-.992.172-1.658-.162-2-1-1.187-2.475-3.187-3.475-6-3v-1c.166-7.674 0-15.341-.5-23-1.699-.906-3.533-1.239-5.5-1l-8-1c-2.559.302-4.893-.032-7-1-3.474-1.025-7.14-1.692-11-2h-1c-2.28-1.723-4.947-2.389-8-2v11c-2.174.25-3.841 1.25-5 3-.992-.172-1.658.162-2 1-1.679-.215-2.679.452-3 2-2.174.25-3.841 1.25-5 3-3.349.669-6.016 2.336-8 5a5.727 5.727 0 0 0-3 1c-1.527-.073-2.527.594-3 2a20.69 20.69 0 0 1-5-1 58.37 58.37 0 0 1-9-5c-.473-1.406-1.473-2.073-3-2-.473-1.406-1.473-2.073-3-2-1.653-.16-2.986-.826-4-2-.473-1.406-1.473-2.073-3-2-.992.172-1.658-.162-2-1-.473-1.406-1.473-2.073-3-2-.995-11.822-1.328-23.822-1-36 2.348-.092 4.014-1.092 5-3a42.618 42.618 0 0 0 5-1.5 35.913 35.913 0 0 0 9-6.5c1.527.073 2.527-.594 3-2 1.014-1.174 2.347-1.84 4-2a24.93 24.93 0 0 1 8-1z"/><path style="opacity:1" fill="#9cadbd" d="M222.5 79.5c1.904.238 3.238 1.238 4 3-1.904-.238-3.238-1.238-4-3z"/><path style="opacity:1" fill="#8c9fb3" d="M217.5 80.5c-.473 1.406-1.473 2.073-3 2 .473-1.406 1.473-2.073 3-2z"/><path style="opacity:1" fill="#e6c4a6" d="M353.5 80.5c1.527-.073 2.527.594 3 2-1.527.073-2.527-.594-3-2z"/><path style="opacity:1" fill="#d8a474" d="M343.5 81.5c-.473 1.406-1.473 2.073-3 2 .473-1.406 1.473-2.073 3-2z"/><path style="opacity:1" fill="#edd5c0" d="M356.5 82.5c3.139.099 5.473 1.432 7 4-2.831-.579-5.164-1.912-7-4z"/><path style="opacity:1" fill="#adbbca" d="M210.5 84.5c-.787 1.604-2.12 2.27-4 2 1.014-1.174 2.347-1.84 4-2z"/><path style="opacity:1" fill="#bbc6d1" d="M230.5 84.5a8.435 8.435 0 0 1 4 .5c1.898 1.417 3.564 2.917 5 4.5-3.28-1.307-6.28-2.974-9-5z"/><path style="opacity:1" fill="#e4c1a1" d="M337.5 84.5c-.473 1.406-1.473 2.073-3 2 .473-1.406 1.473-2.073 3-2z"/><path style="opacity:1" fill="#899eb1" d="M205.5 87.5c-.473 1.406-1.473 2.073-3 2 .473-1.406 1.473-2.073 3-2z"/><path style="opacity:1" fill="#adbcc9" d="M241.5 90.5c1.527-.073 2.527.594 3 2-1.527.073-2.527-.594-3-2z"/><path style="opacity:1" fill="#8398ac" d="M200.5 90.5c-2.248 2.893-5.248 4.56-9 5 2.72-2.026 5.72-3.693 9-5z"/><path style="opacity:1" fill="#8da1b3" d="M244.5 92.5c1.527-.073 2.527.594 3 2-1.527.073-2.527-.594-3-2z"/><path style="opacity:1" fill="#a4b3c2" d="M190.5 96.5c-.888 2.555-1.221 5.221-1 8-2.567-.221-4.901-.888-7-2h6c-.475-2.582.192-4.582 2-6z"/><path style="opacity:1" fill="#d6dde3" d="M158.5 98.5a630.74 630.74 0 0 1 25 2.5c.916.278 1.582.778 2 1.5h-3c-8.279-.513-16.279-1.846-24-4z"/><path style="opacity:1" fill="#e1b996" d="M304.5 104.5c-3.65-1.228-7.316-1.228-11 0 3.803-3.632 7.47-3.632 11 0z"/><path style="opacity:1" fill="#919191" d="M69.5 107.5c.453.958 1.12 1.792 2 2.5a31.775 31.775 0 0 0 7 2.5v25c-.711 1.701-2.045 2.701-4 3a400.217 400.217 0 0 1-19 9 271.034 271.034 0 0 1-19-12c-.166-8.007 0-16.007.5-24 1.729-.474 2.895-1.474 3.5-3a95.14 95.14 0 0 0 16.5-9c4.1 2.091 8.266 4.091 12.5 6z"/><path style="opacity:1" fill="#6d869e" d="M157.5 104.5a11.988 11.988 0 0 1-6-1 624.355 624.355 0 0 1-2 10v-11c3.053-.389 5.72.277 8 2z"/><path style="opacity:1" fill="#c57836" d="m304.5 104.5 2 1c.473 1.406 1.473 2.073 3 2 .617.111 1.117.444 1.5 1 .499 4.989.666 9.989.5 15-1.983-.343-3.317.324-4 2a16.663 16.663 0 0 0-7.5 4 11.123 11.123 0 0 1-2.5-1 101.13 101.13 0 0 1-10-6 84.902 84.902 0 0 1 .5-13c.717-.544 1.217-1.211 1.5-2 1.527.073 2.527-.594 3-2 .667 0 1-.333 1-1 3.684-1.228 7.35-1.228 11 0z"/><path style="opacity:1" fill="#a0b0c0" d="M158.5 104.5c3.86.308 7.526.975 11 2-4.149.58-7.816-.086-11-2z"/><path style="opacity:1" fill="#e1ba96" d="M292.5 105.5c-.473 1.406-1.473 2.073-3 2 .473-1.406 1.473-2.073 3-2z"/><path style="opacity:1" fill="#e0b592" d="M306.5 105.5c1.527-.073 2.527.594 3 2-1.527.073-2.527-.594-3-2z"/><path style="opacity:1" fill="#e3bf9f" d="M363.5 104.5c-.986 1.908-2.652 2.908-5 3 1.159-1.75 2.826-2.75 5-3z"/><path style="opacity:1" fill="#8298ad" d="M251.5 97.5c1.325 11.84 1.325 23.84 0 36-1.611.82-2.278 2.154-2 4-1.44-1.92-1.107-3.587 1-5a307.162 307.162 0 0 0 1-35z"/><path style="opacity:1" fill="#98a9ba" d="m176.5 107.5 8 1v1c-2.995.206-5.662-.46-8-2z"/><path style="opacity:1" fill="#d7a373" d="M340.5 107.5c1.527-.073 2.527.594 3 2-1.527.073-2.527-.594-3-2z"/><path style="opacity:1" fill="#e1bb97" d="M358.5 107.5c-1.159 1.75-2.826 2.75-5 3 1.159-1.75 2.826-2.75 5-3z"/><path style="opacity:1" fill="#aebcc8" d="m188.5 110.5 2 22v1c-1.965-7.26-2.632-14.927-2-23z"/><path style="opacity:1" fill="#c6c6c6" d="M377.5 112.5c-3.548.449-6.881 1.449-10 3 2.758-3.401 6.091-4.401 10-3z"/><path style="opacity:1" fill="#909090" d="M377.5 112.5c3.669 2.69 7.669 5.024 12 7 1.333 6 1.333 12 0 18a173.55 173.55 0 0 0-4 3c-2.467.255-4.467 1.255-6 3a14.093 14.093 0 0 0-3.5 1 118.946 118.946 0 0 0-14-8 145.053 145.053 0 0 1-.5-17c2.647-.429 4.647-1.762 6-4 3.119-1.551 6.452-2.551 10-3z"/><path style="opacity:1" fill="#d1d1d1" d="M69.5 107.5c3.566.938 6.9 2.271 10 4 .326 8.849-.007 17.516-1 26v-25a31.775 31.775 0 0 1-7-2.5c-.88-.708-1.547-1.542-2-2.5z"/><path style="opacity:1" fill="#53708c" d="M184.5 109.5v-1c1.967-.239 3.801.094 5.5 1 .5 7.659.666 15.326.5 23l-2-22c-1.068-.934-2.401-1.268-4-1z"/><path style="opacity:1" fill="#e9cfba" d="M289.5 107.5c-.283.789-.783 1.456-1.5 2a84.902 84.902 0 0 0-.5 13c-1.148-4.481-1.315-9.148-.5-14 .671-.752 1.504-1.086 2.5-1z"/><path style="opacity:1" fill="#c1c1c1" d="M40.5 110.5c-.605 1.526-1.771 2.526-3.5 3-.5 7.993-.666 15.993-.5 24-1.157-8.156-1.323-16.49-.5-25a9.173 9.173 0 0 1 4.5-2z"/><path style="opacity:1" fill="#66809c" d="M88.5 113.5c1.527-.073 2.527.594 3 2-1.527.073-2.527-.594-3-2z"/><path style="opacity:1" fill="#95a7b8" d="M149.5 113.5c-.986 1.908-2.652 2.908-5 3 1.159-1.75 2.826-2.75 5-3z"/><path style="opacity:1" fill="#728ba1" d="M93.5 116.5c1.527-.073 2.527.594 3 2-1.527.073-2.527-.594-3-2z"/><path style="opacity:1" fill="#637f98" d="M142.5 117.5c-.79.901-1.79 1.568-3 2 .321-1.548 1.321-2.215 3-2z"/><path style="opacity:1" fill="silver" d="M367.5 115.5c-1.353 2.238-3.353 3.571-6 4 1.534-1.869 3.534-3.202 6-4z"/><path style="opacity:1" fill="#6a849c" d="M100.5 120.5c1.527-.073 2.527.594 3 2-1.527.073-2.527-.594-3-2z"/><path style="opacity:1" fill="#a8b7c6" d="M139.5 119.5c-.986 1.908-2.652 2.908-5 3 1.159-1.75 2.826-2.75 5-3z"/><path style="opacity:1" fill="#a8a8a8" d="M361.5 119.5c-.166 5.676.001 11.343.5 17a118.946 118.946 0 0 1 14 8 14.093 14.093 0 0 1 3.5-1c-1.511 1.941-3.511 2.441-6 1.5a234.997 234.997 0 0 1-12.5-7.5c-.819-6.181-.653-12.181.5-18z"/><path style="opacity:1" fill="#8096aa" d="M103.5 122.5c1.527-.073 2.527.594 3 2-1.527.073-2.527-.594-3-2z"/><path style="opacity:1" fill="#e1b994" d="M311.5 123.5c-1.171.845-2.505 1.511-4 2 .683-1.676 2.017-2.343 4-2z"/><path style="opacity:1" fill="#c9d2db" d="M134.5 122.5c-1.626 3.122-4.292 4.788-8 5 1.984-2.664 4.651-4.331 8-5z"/><path style="opacity:1" fill="#93a6b8" d="M123.5 128.5c-.473 1.406-1.473 2.073-3 2 .473-1.406 1.473-2.073 3-2z"/><path style="opacity:1" fill="#f1dfcf" d="M307.5 125.5c-2.01 1.993-4.343 3.66-7 5-1.53-.14-2.53-.807-3-2 .765.423 1.598.757 2.5 1a16.663 16.663 0 0 1 7.5-4z"/><path style="opacity:1" fill="#8a9eb1" d="M115.5 129.5a20.69 20.69 0 0 0 5 1c-1.955 1.43-3.621 1.097-5-1z"/><path style="opacity:1" fill="#4d6b88" d="M190.5 133.5c2.813-.475 4.813.525 6 3a598.896 598.896 0 0 1-6-3z"/><path style="opacity:1" fill="#e0b792" d="M337.5 136.5a19.22 19.22 0 0 0-6 1c.634-1.447 1.801-2.113 3.5-2 1.07.028 1.903.361 2.5 1z"/><path style="opacity:1" fill="#eed6c2" d="M337.5 136.5c3.21.37 5.877 1.703 8 4-3.221-.396-5.888-1.729-8-4z"/><path style="opacity:1" fill="#647e98" d="M198.5 137.5c1.527-.073 2.527.594 3 2-1.527.073-2.527-.594-3-2z"/><path style="opacity:1" fill="#778fa5" d="M243.5 139.5c-1.291-.237-2.291.096-3 1h-2c1.379-2.097 3.045-2.43 5-1z"/><path style="opacity:1" fill="#c5cfd9" d="M240.5 140.5c.709-.904 1.709-1.237 3-1 2.11 1.45 3.443 3.45 4 6a26.707 26.707 0 0 0-7-5z"/><path style="opacity:1" fill="#c47634" d="M337.5 136.5c2.112 2.271 4.779 3.604 8 4 .283.789.783 1.456 1.5 2 .499 4.655.666 9.321.5 14-1.527-.073-2.527.594-3 2-2.174.25-3.841 1.25-5 3a19.22 19.22 0 0 1-6 1c-1.21-.432-2.21-1.099-3-2-.473-1.406-1.473-2.073-3-2-.992.172-1.658-.162-2-1-1.333-5.333-1.333-10.667 0-16a18.268 18.268 0 0 0 6-4 19.22 19.22 0 0 1 6-1z"/><path style="opacity:1" fill="#e1ba97" d="M157.5 142.5a20.69 20.69 0 0 0-5 1c1.379-2.097 3.045-2.43 5-1z"/><path style="opacity:1" fill="#8399ac" d="M238.5 140.5c-1.159 1.75-2.826 2.75-5 3 1.159-1.75 2.826-2.75 5-3z"/><path style="opacity:1" fill="#edd7c3" d="M157.5 142.5c3.139.099 5.473 1.432 7 4-2.831-.579-5.164-1.912-7-4z"/><path style="opacity:1" fill="#ccc" d="M385.5 140.5c-1.533 1.745-3.533 2.745-6 3 1.533-1.745 3.533-2.745 6-3z"/><path style="opacity:1" fill="#d9a77c" d="M325.5 141.5c-1.333 5.333-1.333 10.667 0 16-.996.086-1.829-.248-2.5-1a49.226 49.226 0 0 1 0-14c.671-.752 1.504-1.086 2.5-1z"/><path style="opacity:1" fill="#e8ccb4" d="M345.5 140.5c.996-.086 1.829.248 2.5 1 .816 5.184.65 10.184-.5 15a98.432 98.432 0 0 0-.5-14c-.717-.544-1.217-1.211-1.5-2z"/><path style="opacity:1" fill="#8c9fb2" d="M233.5 143.5c-1.159 1.75-2.826 2.75-5 3 1.159-1.75 2.826-2.75 5-3z"/><path style="opacity:1" fill="#c47633" d="M157.5 142.5c1.836 2.088 4.169 3.421 7 4 .473 1.406 1.473 2.073 3 2 1.171.845 2.505 1.511 4 2 .283.789.783 1.456 1.5 2a100.2 100.2 0 0 1 0 20c-2.617.719-4.784 2.053-6.5 4-2.174.25-3.841 1.25-5 3l-4 1h-5l-2-1c-.473-1.406-1.473-2.073-3-2-3.186-1.009-6.019-2.676-8.5-5-.5-6.992-.666-13.992-.5-21 2.014.108 3.68-.558 5-2 3.826-.919 6.826-2.919 9-6a20.69 20.69 0 0 1 5-1z"/><path style="opacity:1" fill="#d9d9d9" d="M74.5 140.5c-4.238 3.466-8.905 6.466-14 9-1.798 1.288-3.465 1.288-5 0a400.217 400.217 0 0 0 19-9z"/><path style="opacity:1" fill="#e1bd9a" d="M164.5 146.5c1.527-.073 2.527.594 3 2-1.527.073-2.527-.594-3-2z"/><path style="opacity:1" fill="#95a7b7" d="M218.5 149.5c-2.374-1.186-4.708-1.186-7 0-.082-1.752.751-2.752 2.5-3 1.981.399 3.481 1.399 4.5 3z"/><path style="opacity:1" fill="#d1935d" d="M152.5 143.5c-2.174 3.081-5.174 5.081-9 6l1-2a22.581 22.581 0 0 1 8-4z"/><path style="opacity:1" fill="#a8b6c4" d="M228.5 146.5c-.986 1.908-2.652 2.908-5 3 1.159-1.75 2.826-2.75 5-3z"/><path style="opacity:1" fill="#c47734" d="M34.5 149.5c6.477 1.216 12.31 3.883 17.5 8 .788 6.082.621 12.082-.5 18a5.727 5.727 0 0 0-3 1c-2.132.054-3.465 1.054-4 3a14.827 14.827 0 0 0-7.5 3c-2.192-.363-4.026-1.363-5.5-3-.473-1.406-1.473-2.073-3-2-.992.172-1.658-.162-2-1-.321-1.548-1.321-2.215-3-2-.166-5.676 0-11.343.5-17 .717-.544 1.217-1.211 1.5-2 2.647-.429 4.647-1.762 6-4 .79-.901 1.79-1.568 3-2z"/><path style="opacity:1" fill="#deb38c" d="m144.5 147.5-1 2c-1.32 1.442-2.986 2.108-5 2a18.478 18.478 0 0 1 6-4z"/><path style="opacity:1" fill="#deb088" d="M31.5 151.5c-1.353 2.238-3.353 3.571-6 4 1.534-1.869 3.534-3.202 6-4z"/><path style="opacity:1" fill="#c0cad4" d="M96.5 156.5a21.434 21.434 0 0 0-7-1c2.433-2.498 4.766-2.165 7 1z"/><path style="opacity:1" fill="#e6c7ac" d="M171.5 150.5c.996-.086 1.829.248 2.5 1a121.19 121.19 0 0 1 0 22 20.826 20.826 0 0 1-7.5 3c1.716-1.947 3.883-3.281 6.5-4a100.2 100.2 0 0 0 0-20c-.717-.544-1.217-1.211-1.5-2z"/><path style="opacity:1" fill="#b1bfcb" d="M211.5 149.5c-.092 2.348-1.092 4.014-3 5 .25-2.174 1.25-3.841 3-5z"/><path style="opacity:1" fill="#899db1" d="M205.5 147.5c-1.53 3.746-3.53 7.08-6 10 .998-4.005 2.998-7.339 6-10z"/><path style="opacity:1" fill="#d09157" d="M25.5 155.5c-.283.789-.783 1.456-1.5 2-.5 5.657-.666 11.324-.5 17 1.679-.215 2.679.452 3 2a5.575 5.575 0 0 1-3-1 60.728 60.728 0 0 1-.5-19c.67-.752 1.504-1.086 2.5-1z"/><path style="opacity:1" fill="#8da0b2" d="M89.5 155.5c-1.327 1.682-2.994 3.015-5 4h-2c1.836-2.088 4.169-3.421 7-4z"/><path style="opacity:1" fill="#a8b5c3" d="M96.5 156.5c1.527-.073 2.527.594 3 2-1.527.073-2.527-.594-3-2z"/><path style="opacity:1" fill="#e5c3a7" d="M347.5 156.5c-.473 1.406-1.473 2.073-3 2 .473-1.406 1.473-2.073 3-2z"/><path style="opacity:1" fill="#a7b5c3" d="M207.5 155.5c.343 1.983-.324 3.317-2 4 .16-1.653.826-2.986 2-4z"/><path style="opacity:1" fill="#8da1b4" d="M99.5 158.5c1.527-.073 2.527.594 3 2-1.527.073-2.527-.594-3-2z"/><path style="opacity:1" fill="#8ea2b5" d="M199.5 158.5c-.432 1.21-1.099 2.21-2 3-.215-1.679.452-2.679 2-3z"/><path style="opacity:1" fill="#67819b" d="M292.5 157.5c-1.187 2.475-3.187 3.475-6 3a598.896 598.896 0 0 1 6-3z"/><path style="opacity:1" fill="#93a5b8" d="M297.5 158.5c1.527-.073 2.527.594 3 2-1.527.073-2.527-.594-3-2z"/><path style="opacity:1" fill="#d8a577" d="M327.5 158.5c1.527-.073 2.527.594 3 2-1.527.073-2.527-.594-3-2z"/><path style="opacity:1" fill="#b8c3cf" d="M300.5 160.5c3.21.37 5.877 1.703 8 4-3.221-.396-5.888-1.729-8-4z"/><path style="opacity:1" fill="#eaceb6" d="M344.5 158.5c-.986 1.908-2.652 2.908-5 3 1.159-1.75 2.826-2.75 5-3z"/><path style="opacity:1" fill="#516d8b" d="M82.5 159.5h2c-2.112 2.271-4.779 3.604-8 4 1.302-2.322 3.302-3.655 6-4z"/><path style="opacity:1" fill="#8197ab" d="M205.5 159.5c-.25 2.174-1.25 3.841-3 5 .25-2.174 1.25-3.841 3-5z"/><path style="opacity:1" fill="#96a8ba" d="M286.5 160.5c-.473 1.406-1.473 2.073-3 2 .473-1.406 1.473-2.073 3-2z"/><path style="opacity:1" fill="#ebd0b8" d="M339.5 161.5c-.47 1.193-1.47 1.86-3 2-1.226-.02-2.226-.353-3-1a19.22 19.22 0 0 0 6-1z"/><path style="opacity:1" fill="#839aae" d="M382.5 163.5c-1.792-.134-3.458.199-5 1 .291-1.149 1.124-1.816 2.5-2 1.07.028 1.903.361 2.5 1z"/><path style="opacity:1" fill="#c3cdd6" d="M106.5 162.5c3.312-.351 5.645.982 7 4-2.6-.968-4.934-2.301-7-4z"/><path style="opacity:1" fill="#bac5d1" d="M382.5 163.5c2.813-.475 4.813.525 6 3a598.896 598.896 0 0 1-6-3z"/><path style="opacity:1" fill="#eedac7" d="M51.5 175.5c1.121-5.918 1.288-11.918.5-18-5.19-4.117-11.023-6.784-17.5-8 1.16-1.877 2.826-2.377 5-1.5a93.994 93.994 0 0 1 13.5 8.5l.5 9.5c-.015 3.576-.682 6.742-2 9.5z"/><path style="opacity:1" fill="#a9b8c6" d="M196.5 162.5c.073 1.527-.594 2.527-2 3-.073-1.527.594-2.527 2-3z"/><path style="opacity:1" fill="#738aa1" d="M74.5 164.5c-1.268 1.547-2.935 2.547-5 3 .986-1.908 2.652-2.908 5-3z"/><path style="opacity:1" fill="#859aae" d="M283.5 162.5c-2.248 2.893-5.248 4.56-9 5 2.72-2.027 5.72-3.693 9-5z"/><path style="opacity:1" fill="#c2ccd6" d="M308.5 164.5c4.153.856 7.486 2.856 10 6a50.656 50.656 0 0 1-8-3.5c-.881-.708-1.547-1.542-2-2.5z"/><path style="opacity:1" fill="#6c849d" d="M376.5 164.5c0 1.333-.667 2-2 2 0-1.333.667-2 2-2z"/><path style="opacity:1" fill="#b2bfcb" d="M270.5 164.5a12.066 12.066 0 0 1 4 3c-.397 1.025-1.063 1.192-2 .5a18.473 18.473 0 0 1-2-3.5z"/><path style="opacity:1" fill="#c2cdd7" d="M388.5 166.5c2.489-.259 4.156.741 5 3-1.934-.61-3.601-1.61-5-3z"/><path style="opacity:1" fill="#95a7b9" d="M202.5 164.5c-.092 2.348-1.092 4.014-3 5 .25-2.174 1.25-3.841 3-5z"/><path style="opacity:1" fill="#90a3b6" d="M367.5 169.5c-1.984 2.664-4.651 4.331-8 5a24.766 24.766 0 0 1 8-5z"/><path style="opacity:1" fill="#667f97" d="M114.5 167.5a308.5 308.5 0 0 1 1.5 25c.717.544 1.217 1.211 1.5 2-.996.086-1.829-.248-2.5-1-.5-8.66-.666-17.327-.5-26z"/><path style="opacity:1" fill="#728ba2" d="M199.5 170.5c-.432 1.21-1.099 2.21-2 3-.215-1.679.452-2.679 2-3z"/><path style="opacity:1" fill="#97aabb" d="M318.5 170.5c1.527-.073 2.527.594 3 2-1.527.073-2.527-.594-3-2z"/><path style="opacity:1" fill="#a8b7c6" d="M397.5 171.5c1.527-.073 2.527.594 3 2-1.527.073-2.527-.594-3-2z"/><path style="opacity:1" fill="#5e7995" d="M193.5 169.5c-.299 1.955-1.299 3.289-3 4 .054-2.132 1.054-3.465 3-4z"/><path style="opacity:1" fill="#5f7c96" d="M196.5 174.5a5.727 5.727 0 0 1-1 3h-1c-.073-1.527.594-2.527 2-3z"/><path style="opacity:1" fill="#e3e7ec" d="M263.5 173.5a181.045 181.045 0 0 0 0 38c-1.33-5.963-1.996-12.296-2-19 .004-6.704.67-13.037 2-19z"/><path style="opacity:1" fill="#e6c5a7" d="M48.5 176.5c-.711 1.701-2.045 2.701-4 3 .535-1.946 1.868-2.946 4-3z"/><path style="opacity:1" fill="#e3c09f" d="M166.5 176.5c-1.159 1.75-2.826 2.75-5 3 1.159-1.75 2.826-2.75 5-3z"/><path style="opacity:1" fill="#8899ad" d="M323.5 173.5c.617.111 1.117.444 1.5 1 .499 3.986.666 7.986.5 12a212.116 212.116 0 0 1-2-13z"/><path style="opacity:1" fill="#d8a679" d="M28.5 177.5c1.527-.073 2.527.594 3 2-1.527.073-2.527-.594-3-2z"/><path style="opacity:1" fill="#d8a77a" d="M147.5 177.5c1.527-.073 2.527.594 3 2-1.527.073-2.527-.594-3-2z"/><path style="opacity:1" fill="#a9b7c5" d="M194.5 177.5h1c.073 1.527-.594 2.527-2 3a5.727 5.727 0 0 1 1-3z"/><path style="opacity:1" fill="#a0afbe" d="M400.5 173.5a20.69 20.69 0 0 0 5 1c.64 10.058-.027 19.725-2 29 .332-9.357-.002-18.69-1-28-1.022-.355-1.689-1.022-2-2z"/><path style="opacity:1" fill="#d29762" d="M152.5 180.5h5c-1.416 2.351-3.083 2.351-5 0z"/><path style="opacity:1" fill="#93a5b7" d="M190.5 173.5c-.883 3.204-2.55 5.871-5 8 .883-3.204 2.55-5.871 5-8z"/><path style="opacity:1" fill="#bfbfbf" d="M220.5 181.5c-2.779-.221-5.446.112-8 1 2.292-3.319 4.959-3.653 8-1z"/><path style="opacity:1" fill="#919191" d="M220.5 181.5a37.79 37.79 0 0 0 10 6 30.233 30.233 0 0 1 3.5 3c.5 6.658.666 13.325.5 20-3.15.802-5.817 2.468-8 5-3.384.568-6.384 1.902-9 4a343.58 343.58 0 0 0-4-1 122.812 122.812 0 0 1-13-7 74.079 74.079 0 0 1-.5-21 7.293 7.293 0 0 0 2-3c3.853-1.213 7.353-2.879 10.5-5 2.554-.888 5.221-1.221 8-1z"/><path style="opacity:1" fill="#53708c" d="M265.5 168.5c3.773 1.99 3.773 3.99 0 6a216.503 216.503 0 0 0-.5 36c.717.544 1.217 1.211 1.5 2a5.727 5.727 0 0 1-3-1 181.045 181.045 0 0 1 0-38c2.823-.885 3.49-2.552 2-5z"/><path style="opacity:1" fill="#a9b7c5" d="M193.5 180.5c-.092 2.348-1.092 4.014-3 5 .25-2.174 1.25-3.841 3-5z"/><path style="opacity:1" fill="#879db0" d="M359.5 174.5c-1.858 4.027-2.525 8.36-2 13-10.846.328-21.513-.006-32-1h31a60.931 60.931 0 0 1 .5-11c.671-.752 1.504-1.086 2.5-1z"/><path style="opacity:1" fill="#91a3b7" d="M183.5 185.5c.073 1.527-.594 2.527-2 3-.073-1.527.594-2.527 2-3z"/><path style="opacity:1" fill="#9faebf" d="M190.5 185.5c-.092 2.348-1.092 4.014-3 5 .25-2.174 1.25-3.841 3-5z"/><path style="opacity:1" fill="#d2d2d2" d="M230.5 187.5c1.951-.273 3.451.393 4.5 2 .821 7.179.655 14.179-.5 21 .166-6.675 0-13.342-.5-20a30.233 30.233 0 0 0-3.5-3z"/><path style="opacity:1" fill="#778ea4" d="M181.5 189.5c-.299 1.955-1.299 3.289-3 4 .299-1.955 1.299-3.289 3-4z"/><path style="opacity:1" fill="#54708d" d="M343.5 192.5c4.481-1.148 9.148-1.315 14-.5.956 3.394 1.289 6.894 1 10.5l-2-9c-4.134-.985-8.468-1.318-13-1z"/><path style="opacity:1" fill="#a6b4c3" d="m356.5 193.5 2 9v1c-1.902-2.837-2.569-6.171-2-10z"/><path style="opacity:1" fill="#738ba2" d="M69.5 194.5c2.065.453 3.732 1.453 5 3-2.348-.092-4.014-1.092-5-3z"/><path style="opacity:1" fill="#9ab" d="M187.5 190.5c-.225 3.046-1.558 5.379-4 7 .968-2.6 2.301-4.934 4-7z"/><path style="opacity:1" fill="#5d7a94" d="M76.5 198.5c1.527-.073 2.527.594 3 2-1.527.073-2.527-.594-3-2z"/><path style="opacity:1" fill="#a0b1c1" d="M124.5 198.5c1.527-.073 2.527.594 3 2-1.527.073-2.527-.594-3-2z"/><path style="opacity:1" fill="#778ea4" d="M159.5 200.5a24.93 24.93 0 0 0-8-1v-1c3.12-1.183 5.787-.516 8 2z"/><path style="opacity:1" fill="#889cae" d="M343.5 192.5c-5.81.99-11.81 1.323-18 1 .322 5.858-.011 11.525-1 17v-18h19z"/><path style="opacity:1" fill="#849aad" d="M107.5 198.5c-.473 1.406-1.473 2.073-3 2 .473-1.406 1.473-2.073 3-2z"/><path style="opacity:1" fill="#aebdc8" d="M151.5 198.5v1a5.727 5.727 0 0 1-3 1c.473-1.406 1.473-2.073 3-2z"/><path style="opacity:1" fill="#8a9fb1" d="M104.5 200.5c-1.159 1.75-2.826 2.75-5 3 1.159-1.75 2.826-2.75 5-3z"/><path style="opacity:1" fill="#a0afbf" d="M127.5 200.5c1.527-.073 2.527.594 3 2-1.527.073-2.527-.594-3-2z"/><path style="opacity:1" fill="#91a4b5" d="M159.5 200.5c1.527-.073 2.527.594 3 2-1.527.073-2.527-.594-3-2z"/><path style="opacity:1" fill="#6d869e" d="M81.5 201.5c1.527-.073 2.527.594 3 2-1.527.073-2.527-.594-3-2z"/><path style="opacity:1" fill="#a3b3c2" d="M146.5 201.5c-.473 1.406-1.473 2.073-3 2 .473-1.406 1.473-2.073 3-2z"/><path style="opacity:1" fill="#607a96" d="M175.5 200.5c-.054 2.132-1.054 3.465-3 4 .054-2.132 1.054-3.465 3-4z"/><path style="opacity:1" fill="#96a8b9" d="M181.5 201.5c-.25 2.174-1.25 3.841-3 5 .25-2.174 1.25-3.841 3-5z"/><path style="opacity:1" fill="#dfe4e9" d="M343.5 192.5c4.532-.318 8.866.015 13 1-9.991.555-19.991.888-30 1a73.133 73.133 0 0 1-1 17 5.576 5.576 0 0 1-3 1c.333-1 1-1.667 2-2 .989-5.475 1.322-11.142 1-17 6.19.323 12.19-.01 18-1z"/><path style="opacity:1" fill="#a2b2c2" d="M99.5 203.5c-.986 1.908-2.652 2.908-5 3 1.16-1.75 2.826-2.75 5-3z"/><path style="opacity:1" fill="#afbcca" d="M133.5 204.5c2.667 1.333 5.333 1.333 8 0-2.667 4-5.333 4-8 0z"/><path style="opacity:1" fill="#94a6b8" d="M166.5 204.5c1.527-.073 2.527.594 3 2-1.527.073-2.527-.594-3-2z"/><path style="opacity:1" fill="#b1beca" d="M89.5 206.5c1.667 1.333 3.333 1.333 5 0-1.796 2.548-3.462 2.548-5 0z"/><path style="opacity:1" fill="#9cadbe" d="M400.5 204.5c-1.703 3.132-4.37 4.799-8 5a726.923 726.923 0 0 1 8-5z"/><path style="opacity:1" fill="#919191" d="M56.5 212.5c.166 5.011 0 10.011-.5 15-1.878.553-3.378 1.553-4.5 3-3.6 3.209-7.6 3.709-12 1.5-2.247-1.277-4.247-2.777-6-4.5v-15a226.099 226.099 0 0 1 11.5-6c3.51 2.692 7.344 4.692 11.5 6z"/><path style="opacity:1" fill="#718ba2" d="M178.5 206.5a3327.198 3327.198 0 0 1-2 32c-.166-10.339 0-20.672.5-31 .383-.556.883-.889 1.5-1z"/><path style="opacity:1" fill="#657f98" d="M371.5 210.5c1.527-.073 2.527.594 3 2-1.527.073-2.527-.594-3-2z"/><path style="opacity:1" fill="#94a6b8" d="M392.5 209.5c-.986 1.908-2.652 2.908-5 3 1.159-1.75 2.826-2.75 5-3z"/><path style="opacity:1" fill="#658199" d="M385.5 213.5c-.79.901-1.79 1.568-3 2 .321-1.548 1.321-2.215 3-2z"/><path style="opacity:1" fill="#bababa" d="M33.5 212.5v15c-1.309-2.071-1.975-4.571-2-7.5.025-2.929.691-5.429 2-7.5z"/><path style="opacity:1" fill="#d3d3d3" d="M56.5 212.5c1.15 5.15 1.317 10.484.5 16a18.158 18.158 0 0 1-5.5 2c1.122-1.447 2.622-2.447 4.5-3 .5-4.989.666-9.989.5-15z"/><path style="opacity:1" fill="#8298ac" d="M266.5 212.5c2.174.25 3.841 1.25 5 3-2.348-.092-4.014-1.092-5-3z"/><path style="opacity:1" fill="#99a9bb" d="M321.5 212.5c-.986 1.908-2.652 2.908-5 3 1.159-1.75 2.826-2.75 5-3z"/><path style="opacity:1" fill="#768ea7" d="M376.5 213.5c1.527-.073 2.527.594 3 2-1.527.073-2.527-.594-3-2z"/><path style="opacity:1" fill="#55728f" d="M271.5 215.5c3.784.389 6.784 2.056 9 5h-1a431.198 431.198 0 0 1-8-5z"/><path style="opacity:1" fill="#a1b0c0" d="M316.5 215.5c-.986 1.908-2.652 2.908-5 3 1.159-1.75 2.826-2.75 5-3z"/><path style="opacity:1" fill="#d4d4d4" d="M226.5 215.5a157.284 157.284 0 0 0-6 4.5c-2 .667-4 .667-6 0-.556-.383-.889-.883-1-1.5 1.317.321 2.651.654 4 1 2.616-2.098 5.616-3.432 9-4z"/><path style="opacity:1" fill="#c7d0da" d="M279.5 220.5h1a9.82 9.82 0 0 1 4 3c-2.534.241-4.2-.759-5-3z"/><path style="opacity:1" fill="#c4ced7" d="M311.5 218.5c-1.309 2.951-3.643 4.284-7 4 1.836-2.088 4.169-3.421 7-4z"/><path style="opacity:1" fill="#e0e5ea" d="M127.5 208.5c.891.61 1.891.943 3 1-.306 9.75.027 19.416 1 29a1286.628 1286.628 0 0 1-4-30z"/><path style="opacity:1" fill="#728aa2" d="M304.5 222.5c-.79.901-1.79 1.568-3 2 .321-1.548 1.321-2.215 3-2z"/><path style="opacity:1" fill="#efdbc8" d="M337.5 225.5c2.902-1.615 5.235-.949 7 2-2.058-1.433-4.392-2.1-7-2z"/><path style="opacity:1" fill="#748ca3" d="M287.5 224.5c1.527-.073 2.527.594 3 2-1.527.073-2.527-.594-3-2z"/><path style="opacity:1" fill="#4e6b89" d="M130.5 209.5c.617.111 1.117.444 1.5 1l1 27c1.518.663 2.685 1.663 3.5 3a16.339 16.339 0 0 1-5-2 218.833 218.833 0 0 1-1-29z"/><path style="opacity:1" fill="#d8a476" d="M97.5 228.5a31.705 31.705 0 0 0-6 2c-.03-.997.47-1.664 1.5-2 1.677-1.108 3.177-1.108 4.5 0z"/><path style="opacity:1" fill="#b9c4d0" d="M301.5 224.5c-2.235 1.935-4.735 3.601-7.5 5-1.03-.336-1.53-1.003-1.5-2a75.247 75.247 0 0 0 9-3z"/><path style="opacity:1" fill="#deb289" d="M337.5 225.5a35.926 35.926 0 0 1-9 6.5 42.47 42.47 0 0 1-5 1.5c4.049-3.588 8.716-6.255 14-8z"/><path style="opacity:1" fill="#e4c2a3" d="M344.5 227.5c1.527-.073 2.527.594 3 2-1.527.073-2.527-.594-3-2z"/><path style="opacity:1" fill="#eed7c3" d="M98.5 228.5a8.43 8.43 0 0 1 4 .5 332.308 332.308 0 0 0 8 6.5c-4.524-1.543-8.524-3.877-12-7z"/><path style="opacity:1" fill="#c47734" d="M337.5 225.5c2.608-.1 4.942.567 7 2 .473 1.406 1.473 2.073 3 2 1.014 1.174 2.347 1.84 4 2 .473 1.406 1.473 2.073 3 2 .709.904 1.709 1.237 3 1 .325 7.187-.009 14.187-1 21-1.527-.073-2.527.594-3 2-2.174.25-3.841 1.25-5 3-2.174.25-3.841 1.25-5 3h-1c-2.333 1.333-4.667 1.333-7 0a53.615 53.615 0 0 1-12-7 116.8 116.8 0 0 1-1-21v-1c0-.667.333-1 1-1a42.47 42.47 0 0 0 5-1.5 35.926 35.926 0 0 0 9-6.5z"/><path style="opacity:1" fill="#e7c8ab" d="M351.5 231.5c1.527-.073 2.527.594 3 2-1.527.073-2.527-.594-3-2z"/><path style="opacity:1" fill="#e2bb98" d="M88.5 231.5c-2.249 2.893-5.249 4.56-9 5 2.72-2.027 5.72-3.693 9-5z"/><path style="opacity:1" fill="#e8cdb6" d="M322.5 234.5v1c-.991 6.479-1.324 13.146-1 20-.665-3.317-.999-6.817-1-10.5.012-3.902.679-7.402 2-10.5z"/><path style="opacity:1" fill="#d29867" d="M322.5 235.5a116.8 116.8 0 0 0 1 21c-.992.172-1.658-.162-2-1-.324-6.854.009-13.521 1-20z"/><path style="opacity:1" fill="#e7c9ae" d="M268.5 241.5c-2.382-1.546-5.049-2.213-8-2 3.137-2.48 5.804-1.813 8 2z"/><path style="opacity:1" fill="#e5c6aa" d="M79.5 236.5a123.951 123.951 0 0 0-1 21c-1.154-6.487-1.32-13.154-.5-20 .383-.556.883-.889 1.5-1z"/><path style="opacity:1" fill="#e0b992" d="M113.5 238.5c.991 6.813 1.325 13.813 1 21-1.459-.067-2.792.266-4 1 .321-1.548 1.321-2.215 3-2v-20z"/><path style="opacity:1" fill="#5e7c96" d="M136.5 240.5c1.527-.073 2.527.594 3 2-1.527.073-2.527-.594-3-2z"/><path style="opacity:1" fill="#c57835" d="M260.5 239.5c2.951-.213 5.618.454 8 2 1.956.992 3.956 1.992 6 3 1.333 5.333 1.333 10.667 0 16h-1c-2.174.25-3.841 1.25-5 3-2.179.34-4.012 1.34-5.5 3-.383-.556-.883-.889-1.5-1-1.934-.61-3.601-1.61-5-3-.473-1.406-1.473-2.073-3-2a69.302 69.302 0 0 1-1-16c2.433.227 4.099-.773 5-3 .79-.901 1.79-1.568 3-2z"/><path style="opacity:1" fill="#c6d0d9" d="M176.5 238.5c-1.309 2.951-3.643 4.284-7 4 1.836-2.088 4.169-3.421 7-4z"/><path style="opacity:1" fill="#eed9c7" d="M268.5 241.5c2.813-.475 4.813.525 6 3a598.896 598.896 0 0 1-6-3z"/><path style="opacity:1" fill="#dadada" d="M295.5 242.5c1.446-1.113 3.113-1.28 5-.5 2.766 1.371 5.099 3.204 7 5.5a8136.975 8136.975 0 0 0-12-5z"/><path style="opacity:1" fill="#7088a0" d="M141.5 243.5c1.527-.073 2.527.594 3 2-1.527.073-2.527-.594-3-2z"/><path style="opacity:1" fill="#859aae" d="M169.5 242.5c-1.268 1.547-2.935 2.547-5 3h-1c1.533-1.745 3.533-2.745 6-3z"/><path style="opacity:1" fill="#939393" d="M295.5 242.5c3.979 1.654 7.979 3.321 12 5 .709.904 1.709 1.237 3 1v15c-2.821.045-5.154 1.045-7 3-1.984.656-3.984 1.322-6 2-2.207-2.014-4.873-3.014-8-3-1.517-.011-2.684-.677-3.5-2a112.97 112.97 0 0 1-.5-15 4.934 4.934 0 0 0 3-.5c1.381-3.231 3.714-5.065 7-5.5z"/><path style="opacity:1" fill="#6e879e" d="M161.5 246.5c-.473 1.406-1.473 2.073-3 2 .473-1.406 1.473-2.073 3-2z"/><path style="opacity:1" fill="#ecd7c4" d="M274.5 244.5c1.312 2.243 1.978 4.91 2 8-.022 3.09-.688 5.757-2 8 1.333-5.333 1.333-10.667 0-16z"/><path style="opacity:1" fill="#c47634" d="M97.5 228.5h1c3.476 3.123 7.476 5.457 12 7a10.165 10.165 0 0 1 3 3v20c-1.679-.215-2.679.452-3 2a5.727 5.727 0 0 0-3 1 726.923 726.923 0 0 0-8 5c-2.932 1.347-5.598 1.014-8-1-.473-1.406-1.473-2.073-3-2-2.284-.475-4.284-1.475-6-3-.473-1.406-1.473-2.073-3-2-.667 0-1-.333-1-1-.26-7.057.073-14.057 1-21 3.751-.44 6.751-2.107 9-5 .709-.904 1.709-1.237 3-1a31.705 31.705 0 0 1 6-2z"/><path style="opacity:1" fill="#d0d8e0" d="M163.5 245.5h1c-2.361 3.518-5.695 5.518-10 6l1-2a5.727 5.727 0 0 0 3-1c1.527.073 2.527-.594 3-2l2-1z"/><path style="opacity:1" fill="#d39966" d="M257.5 241.5c-.901 2.227-2.567 3.227-5 3a69.302 69.302 0 0 0 1 16c-.996.086-1.829-.248-2.5-1a49.226 49.226 0 0 1 0-14 18.162 18.162 0 0 1 6.5-4z"/><path style="opacity:1" fill="#919191" d="M215.5 255.5c2.282 6.479 2.616 13.145 1 20a104.776 104.776 0 0 0-12 6.5c-2.639.588-4.973.088-7-1.5-2.397-2.555-5.23-4.555-8.5-6a145.053 145.053 0 0 1-.5-17c.437-1.574 1.437-2.741 3-3.5a212.844 212.844 0 0 0 11-4.5 3176.57 3176.57 0 0 1 13 6z"/><path style="opacity:1" fill="#7d93a9" d="m155.5 249.5-1 2c-.968 2.107-1.302 4.441-1 7h-1a32.462 32.462 0 0 1 .5-8c.671-.752 1.504-1.086 2.5-1z"/><path style="opacity:1" fill="#e3c09f" d="M356.5 255.5c-.473 1.406-1.473 2.073-3 2 .473-1.406 1.473-2.073 3-2z"/><path style="opacity:1" fill="#b4b4b4" d="M188.5 257.5c-.166 5.676.001 11.343.5 17 3.27 1.445 6.103 3.445 8.5 6a76.546 76.546 0 0 1-9.5-5c-.819-6.181-.653-12.181.5-18z"/><path style="opacity:1" fill="#e1e1e1" d="M215.5 255.5a5.576 5.576 0 0 1 3 1 54.557 54.557 0 0 1 .5 18c-.671.752-1.504 1.086-2.5 1 1.616-6.855 1.282-13.521-1-20z"/><path style="opacity:1" fill="#d9a67a" d="M79.5 258.5c1.527-.073 2.527.594 3 2-1.527.073-2.527-.594-3-2z"/><path style="opacity:1" fill="#e8ccb3" d="M353.5 257.5c-.986 1.908-2.652 2.908-5 3 1.159-1.75 2.826-2.75 5-3z"/><path style="opacity:1" fill="#5a7591" d="M146.5 247.5c1.355 6.889 1.188 13.889-.5 21-.671.752-1.504 1.086-2.5 1l1-2c1.626-6.428 2.293-13.095 2-20z"/><path style="opacity:1" fill="#daa678" d="M253.5 260.5c1.527-.073 2.527.594 3 2-1.527.073-2.527-.594-3-2z"/><path style="opacity:1" fill="#e4c1a1" d="M273.5 260.5c-.986 1.908-2.652 2.908-5 3 1.159-1.75 2.826-2.75 5-3z"/><path style="opacity:1" fill="#ebd1bc" d="M348.5 260.5c-.986 1.908-2.652 2.908-5 3 1.159-1.75 2.826-2.75 5-3z"/><path style="opacity:1" fill="#d7a374" d="M88.5 263.5c1.527-.073 2.527.594 3 2h-1c-1-.333-1.667-1-2-2z"/><path style="opacity:1" fill="#e9cbb1" d="M107.5 261.5c-1.703 3.132-4.37 4.799-8 5a726.923 726.923 0 0 1 8-5z"/><path style="opacity:1" fill="#e6c5a9" d="M335.5 263.5c2.333 1.333 4.667 1.333 7 0-.47 1.193-1.47 1.86-3 2-1.855.16-3.188-.507-4-2z"/><path style="opacity:1" fill="#eacfb7" d="M268.5 263.5c-1.376 1.771-3.209 3.105-5.5 4-1.03-.336-1.53-1.003-1.5-2 .617.111 1.117.444 1.5 1 1.488-1.66 3.321-2.66 5.5-3z"/><path style="opacity:1" fill="#b1b1b1" d="M289.5 265.5c3.127-.014 5.793.986 8 3 2.016-.678 4.016-1.344 6-2-1.27 2.111-3.27 3.111-6 3a22.581 22.581 0 0 1-8-4z"/><path style="opacity:1" fill="#c9d2db" d="M152.5 258.5h1a34.301 34.301 0 0 1-1 11c1.493.641 2.493 1.641 3 3a5.576 5.576 0 0 1-3-1c-1.311-4.484-1.311-8.817 0-13z"/><path style="opacity:1" fill="#edd4be" d="M90.5 265.5h1c2.402 2.014 5.068 2.347 8 1-2.183 2.356-4.85 2.689-8 1-.797-.457-1.13-1.124-1-2z"/><path style="opacity:1" fill="#acbac7" d="m144.5 267.5-1 2-4 1c1.159-1.75 2.826-2.75 5-3z"/><path style="opacity:1" fill="#a2b1c1" d="M139.5 270.5c-1.159 1.75-2.826 2.75-5 3 1.159-1.75 2.826-2.75 5-3z"/><path style="opacity:1" fill="#9eafbf" d="M134.5 273.5c-.787 1.604-2.12 2.271-4 2 1.014-1.174 2.347-1.84 4-2z"/><path style="opacity:1" fill="#abb9c7" d="M157.5 273.5c1.527-.073 2.527.594 3 2-1.527.073-2.527-.594-3-2z"/><path style="opacity:1" fill="#7f95ab" d="M160.5 275.5c1.527-.073 2.527.594 3 2-1.679.215-2.679-.452-3-2z"/><path style="opacity:1" fill="#506d8a" d="M130.5 276.5c-1.128 6.92-1.295 13.92-.5 21 .717.544 1.217 1.211 1.5 2-1.517-.011-2.684-.677-3.5-2a100.2 100.2 0 0 1 0-20c.671-.752 1.504-1.086 2.5-1z"/><path style="opacity:1" fill="#b0bcca" d="M163.5 298.5c-2.112 2.271-4.779 3.604-8 4 2.112-2.271 4.779-3.604 8-4z"/><path style="opacity:1" fill="#6d879f" d="M138.5 303.5c1.527-.073 2.527.594 3 2-1.527.073-2.527-.594-3-2z"/><path style="opacity:1" fill="#a1b0c0" d="M155.5 302.5c-.986 1.908-2.652 2.908-5 3 1.159-1.75 2.826-2.75 5-3z"/><path style="opacity:1" fill="#91a3b5" d="M150.5 305.5c-2.135 3.18-4.468 3.514-7 1a21.435 21.435 0 0 0 7-1z"/><path style="opacity:1" fill="#c57836" d="M126.5 314.5c.473 1.406 1.473 2.073 3 2a525.082 525.082 0 0 0 6 4c1.314 5.152 1.314 10.152 0 15-2.174.25-3.841 1.25-5 3a14.94 14.94 0 0 0-6 3c-2.301-.484-4.301-1.484-6-3-.473-1.406-1.473-2.073-3-2-.996.086-1.829-.248-2.5-1-.816-5.184-.65-10.184.5-15 2.647-.429 4.647-1.762 6-4 1.938-1.663 4.272-2.329 7-2z"/><path style="opacity:1" fill="#e7c8ab" d="M126.5 314.5c1.527-.073 2.527.594 3 2-1.527.073-2.527-.594-3-2z"/><path style="opacity:1" fill="#d9a678" d="M119.5 316.5c-1.353 2.238-3.353 3.571-6 4 1.534-1.869 3.534-3.202 6-4z"/><path style="opacity:1" fill="#d7a677" d="M115.5 336.5c1.527-.073 2.527.594 3 2-1.527.073-2.527-.594-3-2z"/><path style="opacity:1" fill="#e5c2a4" d="M135.5 335.5c-.986 1.908-2.652 2.908-5 3 1.159-1.75 2.826-2.75 5-3z"/></svg>