<svg width="183" height="44" viewBox="0 0 183 44" fill="none" xmlns="http://www.w3.org/2000/svg">
<g clip-path="url(#clip0_170:79)">
<path d="M124.925 10.4567C124.931 10.784 125.024 11.1036 125.194 11.3824C125.364 11.6612 125.605 11.8891 125.891 12.0424C126.857 12.5728 127.906 12.9305 128.993 13.0996C130.511 13.3305 131.941 13.9669 133.135 14.9428C133.588 15.3763 133.942 15.9036 134.174 16.4885C134.406 17.0733 134.509 17.7019 134.477 18.3311C134.48 19.0358 134.327 19.7323 134.03 20.37C133.733 21.0077 133.299 21.5705 132.759 22.0175C131.483 23.0856 129.856 23.6321 128.201 23.549C126.482 23.6396 124.786 23.114 123.414 22.0649C122.218 21.0589 121.41 19.6605 121.132 18.1142L123.924 16.6776C124.421 19.3882 125.838 20.7435 128.174 20.7435C128.981 20.7854 129.779 20.5619 130.45 20.1065C130.716 19.9256 130.934 19.6802 131.083 19.3926C131.232 19.105 131.307 18.7843 131.302 18.4598C131.308 18.1043 131.218 17.754 131.041 17.4461C130.865 17.1382 130.61 16.8843 130.302 16.7115C129.323 16.1816 128.264 15.8219 127.167 15.6476C125.752 15.4216 124.423 14.8153 123.32 13.8924C122.856 13.4745 122.488 12.9585 122.244 12.3812C121.999 11.8039 121.883 11.1792 121.904 10.5516C121.885 9.8953 122.025 9.24429 122.31 8.65424C122.595 8.06419 123.018 7.55264 123.542 7.16334C124.79 6.26168 126.305 5.81487 127.838 5.89613C131.047 5.89613 133.18 7.35082 134.236 10.2602L131.732 11.7172C131.06 9.71132 129.738 8.70839 127.764 8.70839C127.066 8.68101 126.373 8.83501 125.75 9.15564C125.498 9.27631 125.287 9.46911 125.142 9.71007C124.998 9.95104 124.927 10.2295 124.938 10.5109" fill="#74CBC8"/>
<path d="M155.986 23.2231V6.23438H167.889V9.10085H159.162V13.492H167.17V16.3585H159.162V23.2231H155.986Z" fill="#74CBC8"/>
<path d="M169.473 9.19572V6.23438H182.94V9.19572H177.797V23.2231H174.622V9.19572H169.473Z" fill="#74CBC8"/>
<path d="M150.092 16.1602C149.918 17.2308 149.426 18.223 148.682 19.0063C147.638 20.0285 146.24 20.6001 144.786 20.6001C143.331 20.6001 141.933 20.0285 140.889 19.0063C140.145 18.223 139.653 17.2308 139.479 16.1602H136.236C136.456 18.0068 137.281 19.7263 138.579 21.046C139.707 22.222 141.139 23.054 142.713 23.447C144.286 23.84 145.938 23.7782 147.478 23.2685C149.019 22.7589 150.386 21.822 151.424 20.565C152.462 19.308 153.129 17.7816 153.348 16.1602H150.092Z" fill="#74CBC8"/>
<path d="M139.479 13.2963C139.655 12.2242 140.146 11.2302 140.889 10.4434C141.935 9.42595 143.332 8.85756 144.785 8.85756C146.239 8.85756 147.636 9.42595 148.682 10.4434C149.425 11.2302 149.916 12.2242 150.092 13.2963H153.348C153.118 11.4511 152.284 9.73631 150.978 8.42398C149.31 6.81074 147.089 5.91016 144.779 5.91016C142.469 5.91016 140.248 6.81074 138.579 8.42398C137.275 9.74355 136.445 11.4659 136.223 13.3166L139.479 13.2963Z" fill="#74CBC8"/>
<path d="M38.1105 23.2231V6.23438H41.3328L48.3547 17.0362C48.6248 17.4707 48.8649 17.9235 49.073 18.3915V6.23438H52.1544V23.2231H48.932L41.9101 12.3468C41.64 11.9123 41.4 11.4595 41.1918 10.9915V23.1893L38.1105 23.2231Z" fill="#59C1A3"/>
<path d="M55.4236 23.2231V6.23438H67.0306V9.10085H58.5922V13.0109H66.3593V15.8706H58.5922V20.3634H67.1044V23.2231H55.4236Z" fill="#59C1A3"/>
<path d="M83.7664 6.23438V16.7922C83.8174 17.7117 83.6724 18.6315 83.3412 19.4895C83.01 20.3476 82.5003 21.124 81.8465 21.7662C80.4425 22.9273 78.6836 23.5618 76.8687 23.5618C75.0537 23.5618 73.2948 22.9273 71.8909 21.7662C71.237 21.124 70.7273 20.3476 70.3961 19.4895C70.0649 18.6315 69.9199 17.7117 69.9709 16.7922V6.23438H73.1395V16.4737C73.0712 17.5823 73.4295 18.6748 74.1398 19.5231C74.8835 20.2146 75.8576 20.5985 76.8687 20.5985C77.8798 20.5985 78.8539 20.2146 79.5975 19.5231C80.3054 18.6737 80.6613 17.5814 80.5911 16.4737V6.23438H83.7664Z" fill="#59C1A3"/>
<path d="M96.6087 23.2218L92.715 16.3301H90.0298V23.2218H86.8612V6.23307H94.0443C95.608 6.14612 97.1537 6.60559 98.4212 7.53417C98.9453 7.94773 99.3646 8.48098 99.6447 9.09005C99.9248 9.69913 100.058 10.3666 100.032 11.0376C100.032 13.4501 98.7502 15.1171 96.1857 16.0387L100.214 23.2218H96.6087ZM90.0164 9.04533V13.5111H94.0443C95.9239 13.5111 96.8638 12.7724 96.8638 11.2816C96.8638 9.79075 95.9239 9.04533 94.0443 9.04533H90.0164Z" fill="#59C1A3"/>
<path d="M115.855 16.1602C115.684 17.2317 115.192 18.2248 114.445 19.0063C113.401 20.0285 112.003 20.6001 110.548 20.6001C109.094 20.6001 107.696 20.0285 106.651 19.0063C105.908 18.223 105.416 17.2308 105.242 16.1602H101.999C102.284 18.246 103.306 20.1575 104.879 21.5411C106.451 22.9248 108.466 23.687 110.552 23.687C112.638 23.687 114.653 22.9248 116.225 21.5411C117.797 20.1575 118.82 18.246 119.104 16.1602H115.855Z" fill="#59C1A3"/>
<path d="M105.242 13.2964C105.418 12.2243 105.909 11.2303 106.652 10.4435C107.699 9.42606 109.095 8.85767 110.549 8.85767C112.002 8.85767 113.399 9.42606 114.446 10.4435C115.192 11.2276 115.684 12.2229 115.855 13.2964H119.111C118.827 11.2106 117.804 9.29911 116.232 7.91546C114.66 6.53182 112.644 5.76953 110.559 5.76953C108.473 5.76953 106.458 6.53182 104.885 7.91546C103.313 9.29911 102.29 11.2106 102.006 13.2964H105.242Z" fill="#59C1A3"/>
<path d="M38.1239 37.95V30.5703H40.6212C41.2118 30.5375 41.7954 30.7123 42.2726 31.065C42.4645 31.207 42.6205 31.3927 42.7278 31.607C42.8351 31.8213 42.8908 32.0582 42.8902 32.2983C42.9016 32.7027 42.7628 33.0967 42.5009 33.4029C42.2572 33.6909 41.9387 33.9045 41.5812 34.0196C42.0206 34.0807 42.4228 34.3017 42.7121 34.6412C43.0014 34.9806 43.1578 35.415 43.152 35.8628C43.1587 36.1544 43.0957 36.4434 42.9684 36.7053C42.841 36.9671 42.653 37.1942 42.4203 37.3672C41.9175 37.7641 41.2927 37.9704 40.6548 37.95H38.1239ZM38.7482 31.1192V33.7553H40.6011C41.023 33.773 41.4401 33.6594 41.796 33.43C41.9517 33.3184 42.0762 33.168 42.1574 32.9934C42.2386 32.8189 42.2736 32.6261 42.2592 32.4339C42.2677 32.2462 42.2298 32.0594 42.149 31.8902C42.0681 31.721 41.9468 31.5748 41.796 31.4648C41.4395 31.2373 41.0223 31.1261 40.6011 31.1463L38.7482 31.1192ZM38.7482 34.3042V37.4011H40.5138C41.0226 37.423 41.5259 37.2883 41.9571 37.0148C42.1328 36.8767 42.275 36.6999 42.3728 36.4979C42.4706 36.2959 42.5214 36.074 42.5214 35.8492C42.5214 35.6244 42.4706 35.4026 42.3728 35.2006C42.275 34.9986 42.1328 34.8218 41.9571 34.6837C41.5252 34.4125 41.0219 34.2802 40.5138 34.3042H38.7482Z" fill="#767A7B"/>
<path d="M49.8652 30.5703H49.2408V37.95H49.8652V30.5703Z" fill="#767A7B"/>
<path d="M61.8816 31.4639C62.5151 32.2486 62.8611 33.23 62.8611 34.2423C62.8611 35.2546 62.5151 36.2359 61.8816 37.0207C61.5676 37.3603 61.1877 37.6311 60.7656 37.8162C60.3435 38.0013 59.8882 38.0969 59.428 38.0969C58.9677 38.0969 58.5124 38.0013 58.0903 37.8162C57.6682 37.6311 57.2883 37.3603 56.9743 37.0207C56.336 36.2381 55.9869 35.256 55.9869 34.2423C55.9869 33.2286 56.336 32.2464 56.9743 31.4639C57.2914 31.1296 57.6723 30.8635 58.094 30.6817C58.5156 30.5 58.9694 30.4062 59.428 30.4062C59.8865 30.4062 60.3403 30.5 60.7619 30.6817C61.1836 30.8635 61.5645 31.1296 61.8816 31.4639ZM57.4039 36.6209C57.6559 36.9093 57.9658 37.1403 58.3131 37.2985C58.6603 37.4567 59.0369 37.5386 59.4179 37.5386C59.7989 37.5386 60.1755 37.4567 60.5227 37.2985C60.8699 37.1403 61.1798 36.9093 61.4318 36.6209C61.9426 35.9376 62.219 35.105 62.219 34.2491C62.219 33.3931 61.9426 32.5605 61.4318 31.8773C61.177 31.5936 60.8661 31.3669 60.5193 31.2118C60.1724 31.0567 59.7973 30.9765 59.4179 30.9765C59.0385 30.9765 58.6633 31.0567 58.3165 31.2118C57.9696 31.3669 57.6588 31.5936 57.4039 31.8773C56.8973 32.5623 56.6235 33.3942 56.6235 34.2491C56.6235 35.1039 56.8973 35.9359 57.4039 36.6209Z" fill="#767A7B"/>
<path d="M68.9841 37.9567V30.5703H73.3074V31.1192H69.6085V33.8637H73.0187V34.4126H69.6085V37.4078H73.341V37.9567H68.9841Z" fill="#767A7B"/>
<path d="M79.5439 37.9567V30.5703H80.175V37.4078H83.9008V37.9567H79.5439Z" fill="#767A7B"/>
<path d="M89.8082 37.9567V30.5703H94.1315V31.1192H90.4326V33.8637H93.8361V34.4126H90.4326V37.4078H94.165V37.9567H89.8082Z" fill="#767A7B"/>
<path d="M105.926 35.8957L106.39 36.221C106.092 36.76 105.676 37.2234 105.175 37.5763C104.634 37.9214 104.001 38.0917 103.362 38.0642C102.894 38.0731 102.429 37.9782 102.001 37.7862C101.573 37.5941 101.192 37.3097 100.885 36.9528C100.227 36.2084 99.8744 35.2394 99.8981 34.2422C99.878 33.2344 100.255 32.2596 100.945 31.5316C101.252 31.1772 101.631 30.8934 102.056 30.6994C102.481 30.5053 102.943 30.4055 103.409 30.4067C104.044 30.3962 104.669 30.5702 105.208 30.9082C105.727 31.2349 106.142 31.7054 106.403 32.2635L105.926 32.6023C105.678 32.0847 105.301 31.6411 104.832 31.3148C104.28 30.9878 103.632 30.8664 103 30.9717C102.369 31.0769 101.794 31.4021 101.375 31.8908C100.811 32.5318 100.509 33.3648 100.529 34.2219C100.497 35.0786 100.782 35.9167 101.328 36.5733C101.574 36.8865 101.887 37.1385 102.244 37.3101C102.602 37.4816 102.993 37.568 103.389 37.5627C103.911 37.5781 104.427 37.4391 104.873 37.1629C105.323 36.8412 105.685 36.41 105.926 35.9092" fill="#767A7B"/>
<path d="M111.834 31.1192V30.5703H117.01V31.1192H114.734V37.9567H114.11V31.1192H111.834Z" fill="#767A7B"/>
<path d="M127.288 37.9498L125.435 34.6565H123.515V37.9498H122.884V30.5702H125.683C125.979 30.5529 126.276 30.5949 126.556 30.6937C126.836 30.7926 127.094 30.9464 127.315 31.1462C127.673 31.515 127.884 32.0038 127.909 32.5198C127.934 33.0357 127.77 33.5429 127.449 33.9449C127.094 34.3235 126.619 34.5635 126.106 34.6226L127.946 37.9566L127.288 37.9498ZM123.515 31.1191V34.1143H125.529C126.697 34.1143 127.288 33.6129 127.288 32.6167C127.288 31.6206 126.697 31.1191 125.529 31.1191H123.515Z" fill="#767A7B"/>
<path d="M139.499 31.4644C140.132 32.2492 140.478 33.2305 140.478 34.2428C140.478 35.2551 140.132 36.2365 139.499 37.0212C139.182 37.3574 138.801 37.6252 138.379 37.8081C137.956 37.9911 137.501 38.0854 137.042 38.0854C136.582 38.0854 136.127 37.9911 135.705 37.8081C135.283 37.6252 134.902 37.3574 134.585 37.0212C133.951 36.2365 133.605 35.2551 133.605 34.2428C133.605 33.2305 133.951 32.2492 134.585 31.4644C134.903 31.1299 135.284 30.8637 135.706 30.6819C136.128 30.5 136.583 30.4062 137.042 30.4062C137.501 30.4062 137.955 30.5 138.377 30.6819C138.8 30.8637 139.181 31.1299 139.499 31.4644ZM135.021 36.6214C135.273 36.9098 135.583 37.1408 135.93 37.299C136.278 37.4573 136.654 37.5391 137.035 37.5391C137.416 37.5391 137.793 37.4573 138.14 37.299C138.487 37.1408 138.797 36.9098 139.049 36.6214C139.56 35.9382 139.836 35.1055 139.836 34.2496C139.836 33.3936 139.56 32.561 139.049 31.8778C138.794 31.5941 138.483 31.3674 138.137 31.2123C137.79 31.0572 137.415 30.977 137.035 30.977C136.656 30.977 136.281 31.0572 135.934 31.2123C135.587 31.3674 135.276 31.5941 135.021 31.8778C134.515 32.5628 134.241 33.3947 134.241 34.2496C134.241 35.1044 134.515 35.9364 135.021 36.6214Z" fill="#767A7B"/>
<path d="M146.635 37.95V30.5703H147.306L151.025 36.493C151.141 36.6814 151.246 36.8759 151.341 37.0758V30.5703H151.945V37.95H151.274L147.555 32.0205C147.438 31.8362 147.335 31.6437 147.246 31.4445V37.95H146.635Z" fill="#767A7B"/>
<path d="M159.001 30.5703H158.376V37.95H159.001V30.5703Z" fill="#767A7B"/>
<path d="M171.151 35.8957L171.615 36.221C171.317 36.76 170.901 37.2235 170.4 37.5763C169.859 37.9214 169.226 38.0917 168.587 38.0642C168.12 38.0797 167.655 37.9912 167.226 37.805C166.797 37.6188 166.413 37.3394 166.103 36.9867C165.443 36.243 165.088 35.2741 165.11 34.2761C165.089 33.2683 165.466 32.2935 166.157 31.5655C166.682 30.9734 167.397 30.5865 168.176 30.4725C168.955 30.3586 169.749 30.5248 170.42 30.9421C170.938 31.2688 171.353 31.7393 171.615 32.2974L171.138 32.6362C170.89 32.1186 170.513 31.675 170.044 31.3486C169.492 31.0217 168.843 30.9003 168.212 31.0056C167.58 31.1108 167.005 31.436 166.586 31.9247C166.022 32.5657 165.72 33.3987 165.741 34.2558C165.712 35.112 165.996 35.949 166.539 36.6072C166.79 36.916 167.107 37.1627 167.467 37.3284C167.826 37.494 168.219 37.5742 168.614 37.5627C169.136 37.5781 169.652 37.4391 170.097 37.1629C170.55 36.8433 170.912 36.4115 171.151 35.9092" fill="#767A7B"/>
<path d="M178.502 32.2971C178.5 32.4955 178.548 32.6912 178.644 32.8648C178.739 33.0383 178.878 33.1837 179.046 33.2864C179.539 33.5802 180.084 33.7736 180.65 33.8556C182.221 34.1606 183 34.845 183 35.8886C183.007 36.1899 182.944 36.4886 182.817 36.7614C182.69 37.0342 182.502 37.2735 182.268 37.4608C181.73 37.8924 181.055 38.1137 180.368 38.0842C179.706 38.1214 179.052 37.9156 178.528 37.5046C178.003 37.0937 177.644 36.5053 177.515 35.848L178.093 35.5362C178.182 36.1014 178.451 36.622 178.858 37.0203C179.269 37.383 179.803 37.5722 180.348 37.5489C180.874 37.5767 181.392 37.4105 181.805 37.0813C181.974 36.9519 182.112 36.785 182.207 36.5935C182.303 36.402 182.354 36.191 182.356 35.9767C182.361 35.7723 182.317 35.5695 182.227 35.3863C182.137 35.2032 182.004 35.0452 181.839 34.9263C181.381 34.6272 180.862 34.4351 180.321 34.3639C179.672 34.2899 179.05 34.0573 178.509 33.6862C178.302 33.529 178.136 33.3236 178.025 33.0876C177.914 32.8516 177.861 32.592 177.871 32.3309C177.867 32.0673 177.926 31.8066 178.043 31.5707C178.16 31.3349 178.331 31.1308 178.542 30.9756C179.031 30.6114 179.627 30.4251 180.234 30.4471C180.821 30.4305 181.398 30.5986 181.886 30.9282C182.348 31.2041 182.701 31.6326 182.886 32.1412L182.382 32.4461C182.217 32.0059 181.925 31.6258 181.543 31.3551C181.165 31.0926 180.714 30.9574 180.254 30.9688C179.802 30.9481 179.355 31.074 178.979 31.328C178.823 31.435 178.697 31.5798 178.611 31.7492C178.525 31.9185 178.483 32.107 178.489 32.2971" fill="#767A7B"/>
<path d="M20.8309 14.273C20.8309 15.6481 20.4269 16.9924 19.6701 18.1358C18.9133 19.2791 17.8376 20.1703 16.579 20.6965C15.3205 21.2227 13.9356 21.3604 12.5995 21.0922C11.2634 20.8239 10.0362 20.1617 9.0729 19.1893C8.10964 18.217 7.45365 16.9781 7.18789 15.6294C6.92213 14.2807 7.05853 12.8828 7.57984 11.6123C8.10115 10.3419 8.98396 9.25603 10.1166 8.49206C11.2493 7.72808 12.581 7.32031 13.9432 7.32031C15.7694 7.32211 17.5203 8.0552 18.8116 9.3587C20.1029 10.6622 20.8291 12.4296 20.8309 14.273ZM19.6561 14.273C19.6561 13.1325 19.321 12.0175 18.6933 11.0692C18.0656 10.1208 17.1733 9.38166 16.1294 8.94518C15.0856 8.5087 13.9369 8.3945 12.8287 8.61701C11.7205 8.83953 10.7026 9.38877 9.90361 10.1953C9.10465 11.0018 8.56055 12.0293 8.34012 13.148C8.11968 14.2666 8.23282 15.4261 8.66521 16.4799C9.09761 17.5336 9.82984 18.4343 10.7693 19.068C11.7088 19.7016 12.8133 20.0399 13.9432 20.0399C15.4578 20.0381 16.9099 19.4299 17.9809 18.3488C19.0519 17.2677 19.6543 15.8019 19.6561 14.273Z" fill="#767A7B"/>
<path d="M13.9429 3.17482e-05C11.112 -0.00233974 8.34749 0.865608 6.0173 2.48837C3.68712 4.11113 1.90175 6.41174 0.898812 9.08404C-0.104129 11.7563 -0.277084 14.6736 0.402964 17.4476C1.08301 20.2215 2.58381 22.7207 4.70564 24.6124C5.6575 25.4522 6.42064 26.4876 6.94394 27.6493C7.46725 28.811 7.73865 30.0721 7.73997 31.3483V32.446H8.6731V31.3483C8.67266 29.936 8.37291 28.5402 7.79398 27.2545C7.21505 25.9688 6.37033 24.823 5.31653 23.8941C3.33789 22.1294 1.93828 19.7986 1.30381 17.2115C0.669346 14.6244 0.830088 11.9036 1.76466 9.41095C2.69924 6.91831 4.36337 4.7719 6.53576 3.25715C8.70814 1.7424 11.2859 0.931081 13.9261 0.931081C16.5664 0.931081 19.1441 1.7424 21.3165 3.25715C23.4889 4.7719 25.153 6.91831 26.0876 9.41095C27.0222 11.9036 27.1829 14.6244 26.5484 17.2115C25.914 19.7986 24.5144 22.1294 22.5357 23.8941L22.482 23.9347C21.4465 24.8651 20.6175 26.0059 20.0495 27.2824C19.4814 28.5588 19.1871 29.9421 19.1859 31.3415V32.4393H20.1257V31.3483C20.1324 30.0884 20.4019 28.8442 20.9166 27.6965C21.4313 26.5487 22.1797 25.5233 23.113 24.6869L23.16 24.6463C25.2931 22.7585 26.8047 20.2585 27.4928 17.4805C28.1809 14.7024 28.0127 11.7785 27.0108 9.09951C26.0089 6.42047 24.221 4.11386 21.8859 2.48787C19.5508 0.861885 16.7797 -0.00605038 13.9429 3.17482e-05Z" fill="#767A7B"/>
<path d="M22.0526 32.445C22.0525 31.9785 21.915 31.5225 21.6576 31.1351C21.4001 30.7477 21.0343 30.4464 20.6067 30.2694C20.179 30.0925 19.709 30.048 19.2562 30.1415C18.8034 30.235 18.3885 30.4623 18.0641 30.7946C17.7396 31.1268 17.5205 31.549 17.4344 32.0073C17.3484 32.4657 17.3993 32.9395 17.5808 33.3686C17.7623 33.7976 18.066 34.1624 18.4535 34.4167C18.841 34.671 19.2946 34.8031 19.7567 34.7964C20.3745 34.7964 20.967 34.5487 21.4039 34.1077C21.8407 33.6667 22.0862 33.0686 22.0862 32.445" fill="#74CBC8"/>
<path d="M10.6336 32.4452C10.6336 31.9801 10.497 31.5255 10.2411 31.1388C9.9851 30.7521 9.62129 30.4507 9.19563 30.2727C8.76998 30.0948 8.3016 30.0482 7.84973 30.1389C7.39786 30.2297 6.9828 30.4536 6.65701 30.7825C6.33123 31.1113 6.10937 31.5303 6.01949 31.9865C5.92961 32.4426 5.97574 32.9154 6.15205 33.3451C6.32836 33.7747 6.62694 34.142 7.01001 34.4004C7.39309 34.6587 7.84347 34.7967 8.30419 34.7967C8.922 34.7967 9.51451 34.5489 9.95136 34.1079C10.3882 33.667 10.6336 33.0688 10.6336 32.4452Z" fill="#74CBC8"/>
<path d="M24.3888 14.2698C24.3894 12.2044 23.789 10.1844 22.6623 8.46037C21.5356 6.73637 19.9321 5.38435 18.0509 4.57216C16.1696 3.75996 14.0935 3.52336 12.0803 3.89171C10.067 4.26005 8.20526 5.21714 6.7261 6.64415C5.24694 8.07116 4.21552 9.90526 3.75987 11.9188C3.30422 13.9323 3.44441 16.0366 4.16304 17.9704C4.88167 19.9042 6.14708 21.5823 7.80221 22.7966C9.45734 24.0108 11.4293 24.7076 13.4733 24.8005V39.343C12.9082 39.4605 12.4064 39.7854 12.0651 40.2549C11.7238 40.7245 11.5673 41.3051 11.6257 41.8845C11.6842 42.4639 11.9536 43.0007 12.3818 43.3911C12.8099 43.7814 13.3663 43.9975 13.9432 43.9975C14.5201 43.9975 15.0765 43.7814 15.5046 43.3911C15.9328 43.0007 16.2022 42.4639 16.2606 41.8845C16.3191 41.3051 16.1626 40.7245 15.8213 40.2549C15.4799 39.7854 14.9782 39.4605 14.4131 39.343V24.8005C17.0972 24.6735 19.6301 23.5093 21.4871 21.5489C23.3442 19.5885 24.3832 16.9822 24.3888 14.2698ZM23.449 14.2698C23.4503 16.1679 22.8939 18.0238 21.8502 19.6027C20.8065 21.1815 19.3224 22.4125 17.5856 23.1398C15.8487 23.8671 13.9372 24.0581 12.0928 23.6886C10.2484 23.3191 8.55404 22.4058 7.22396 21.0641C5.89388 19.7224 4.98787 18.0126 4.62054 16.1511C4.25322 14.2895 4.44107 12.3599 5.16034 10.6061C5.87962 8.85234 7.098 7.35332 8.66136 6.29865C10.2247 5.24397 12.0628 4.68103 13.9432 4.68103C16.4626 4.68282 18.8784 5.69343 20.6605 7.49109C22.4426 9.28875 23.4454 11.7266 23.449 14.2698Z" fill="#59C1A3"/>
</g>
<defs>
<clipPath id="clip0_170:79">
<rect width="183" height="44" fill="white"/>
</clipPath>
</defs>
</svg>
