<svg xmlns="http://www.w3.org/2000/svg" width="200" height="200" style="shape-rendering:geometricPrecision;text-rendering:geometricPrecision;image-rendering:optimizeQuality;fill-rule:evenodd;clip-rule:evenodd"><path style="opacity:1" fill="#f17778" d="M89.5 1.5c46.668-1.794 80.168 18.206 100.5 60 16.278 47.524 5.112 87.024-33.5 118.5-38.948 24.91-77.614 24.576-116-1C2.432 146.569-8.068 106.735 9 59.5c16.65-33.486 43.484-52.82 80.5-58z"/><path style="opacity:1" fill="#0c0605" d="M147.5 84.5c1.274 2.493 1.94 5.16 2 8 .65 1.935.983 3.935 1 6h-5c.295-2.235-.039-4.235-1-6 .09-2.652-.576-4.986-2-7-2.332-5.503-5.666-10.337-10-14.5-1.333-.667-2.667-.667-4 0-3.513 4.574-3.846 9.407-1 14.5.063 2.014-.603 3.68-2 5-5.319 1.543-8.652-.457-10-6a67.757 67.757 0 0 1 5.5-8c.551-8.217-2.949-10.217-10.5-6-3.302 6.873-7.468 7.54-12.5 2-1.116-4.894.884-7.561 6-8 1.711-.06 3.044.606 4 2 9.806-2.374 10.973-6.874 3.5-13.5-6.799.858-9.966-1.975-9.5-8.5 3.272-3.596 6.938-3.93 11-1 .685 6.355 4.185 9.522 10.5 9.5 1.577-2.564 2.577-5.397 3-8.5-4.729-5.752-3.563-9.752 3.5-12 5.023 1.042 6.69 4.042 5 9-4.471 3.378-5.638 7.711-3.5 13 5.901 1.758 10.235-.075 13-5.5 8.715-1.456 11.049 1.71 7 9.5a30.367 30.367 0 0 1-11 .5c-4.615 1.123-6.115 3.957-4.5 8.5 5.259 4.75 9.093 10.416 11.5 17zM55.5 84.5c-1.424 2.014-2.09 4.348-2 7-1.147 4.146-1.314 8.48-.5 13 .156 2.691.99 5.024 2.5 7v8h3c1.743 3.25 4.077 6.084 7 8.5 5.161 1.178 7.495-.988 7-6.5a53.594 53.594 0 0 0-2-8 11.956 11.956 0 0 1 3-5c8.602.206 10.602 3.873 6 11-2.803 2.704-3.637 6.037-2.5 10a9.2 9.2 0 0 0 4.5 2 28.737 28.737 0 0 1 7-2c.793-5.276 3.793-7.109 9-5.5 4.144 3.979 3.81 7.645-1 11-2.438.682-4.605.182-6.5-1.5-9.706 1.996-10.873 6.163-3.5 12.5 7.296-.705 10.463 2.462 9.5 9.5-2.679 3.335-5.845 3.835-9.5 1.5a32.12 32.12 0 0 1-3-7.5c-1.78-1.944-3.947-3.277-6.5-4-1.605.601-2.938 1.601-4 3-.602 4.87-.269 9.536 1 14-2.647 4.263-5.98 4.93-10 2-2.64-4.483-1.64-7.816 3-10 2.544-10.63-.956-13.464-10.5-8.5-1.349 4.51-4.349 6.177-9 5-4.52-4.896-3.853-8.729 2-11.5a16.226 16.226 0 0 1 5 2 19.057 19.057 0 0 1 7-2.5 9.208 9.208 0 0 0 2-4.5 129.372 129.372 0 0 0-8.5-11c-5.264-9.296-7.764-19.296-7.5-30a35.167 35.167 0 0 0 2-8c2.367-7.064 6.033-13.397 11-19a64.271 64.271 0 0 0 7-6.5c6.678-2.913 12.845-6.413 18.5-10.5 6.797 1.744 7.963 5.244 3.5 10.5-3.677.108-7.343.108-11 0-11.659 4.53-19.325 12.696-23 24.5z"/><path style="opacity:1" fill="#fefdfd" d="M49.5 85.5a35.167 35.167 0 0 1-2 8c-1.466.847-2.3 2.18-2.5 4a242.43 242.43 0 0 0-.5 22h-10v-34h9c-.188 1.603.312 2.937 1.5 4a25.15 25.15 0 0 1 4.5-4z"/><path style="opacity:1" fill="#fcf9f9" d="M55.5 84.5c5.353.18 8.853 2.848 10.5 8 .5 8.994.666 17.994.5 27h-11v-8c.54-6.909-.127-13.576-2-20-.09-2.652.576-4.986 2-7z"/><path style="opacity:1" fill="#fdfbfb" d="M115.5 84.5c1.348 5.543 4.681 7.543 10 6 .994 9.486 1.327 19.152 1 29h-10c.166-7.674 0-15.341-.5-23-2.823-4.895-6.157-5.229-10-1-.5 7.993-.666 15.993-.5 24h-11c.166-8.007 0-16.007-.5-24-3.697-4.082-7.03-3.749-10 1-.5 7.659-.666 15.326-.5 23h-4c4.602-7.127 2.602-10.794-6-11v-23a40.936 40.936 0 0 1 9 .5 11.362 11.362 0 0 1 1.5 3.5c3.438-4.58 7.938-6.08 13.5-4.5 2.709.54 4.709 2.04 6 4.5a48.476 48.476 0 0 0 7-4.5 12.935 12.935 0 0 1 5-.5z"/><path style="opacity:1" fill="#fdf9f9" d="M147.5 84.5c7.809-1.016 13.309 1.984 16.5 9 .196 8.382.696 16.715 1.5 25a25.879 25.879 0 0 1-10 1c-.148-4.055-1.148-4.555-3-1.5a86.376 86.376 0 0 0-7 2.5h-5c-10.293-4.147-11.626-10.313-4-18.5a723.582 723.582 0 0 1 9-3.5h8c.901-3.74-.432-5.74-4-6-.06-2.84-.726-5.507-2-8z"/><path style="opacity:1" fill="#f7f2f1" d="M142.5 85.5c1.424 2.014 2.09 4.348 2 7-.645 1.312-1.645 2.312-3 3-2.817-.595-5.15-1.928-7-4 1.973-2.98 4.64-4.98 8-6z"/><path style="opacity:1" fill="#ea7576" d="M149.5 92.5c3.568.26 4.901 2.26 4 6h-3a19.222 19.222 0 0 0-1-6z"/><path style="opacity:1" fill="#d86d6d" d="M53.5 91.5c1.873 6.424 2.54 13.091 2 20-1.51-1.976-2.344-4.309-2.5-7-.814-4.52-.647-8.854.5-13z"/><path style="opacity:1" fill="#191515" d="M148.5 105.5c.968 2.107 1.302 4.441 1 7-1.667 1.333-3.333 1.333-5 0-.175-2.121.159-4.121 1-6 .709-.904 1.709-1.237 3-1z"/><path style="opacity:1" fill="#e67e7e" d="M148.5 105.5c1.765-.961 3.765-1.295 6-1 .324 4.037-1.342 6.703-5 8 .302-2.559-.032-4.893-1-7z"/><path style="opacity:1" fill="#e17575" d="M145.5 106.5c-.841 1.879-1.175 3.879-1 6-1.877-1.159-2.377-2.826-1.5-5 .671-.752 1.504-1.086 2.5-1z"/><path style="opacity:1" fill="#0d0606" d="M140.5 120.5h5c-5.367 12.202-14.367 20.369-27 24.5-2.914 4.894-6.747 5.727-11.5 2.5-.785-8.215 2.548-10.548 10-7 10.454-3.623 18.287-10.29 23.5-20z"/></svg>