<?xml version="1.0" encoding="UTF-8"?>
<!DOCTYPE svg PUBLIC "-//W3C//DTD SVG 1.1//EN" "http://www.w3.org/Graphics/SVG/1.1/DTD/svg11.dtd">
<svg xmlns="http://www.w3.org/2000/svg" version="1.1" width="644px" height="162px" style="shape-rendering:geometricPrecision; text-rendering:geometricPrecision; image-rendering:optimizeQuality; fill-rule:evenodd; clip-rule:evenodd" xmlns:xlink="http://www.w3.org/1999/xlink">
<g><path style="opacity:1" fill="#f9f9f9" d="M -0.5,-0.5 C 214.167,-0.5 428.833,-0.5 643.5,-0.5C 643.5,10.5 643.5,21.5 643.5,32.5C 642.279,33.0283 641.113,33.695 640,34.5C 637.997,32.1993 636.163,32.1993 634.5,34.5C 631.947,31.9557 629.447,31.9557 627,34.5C 626.138,32.913 625.471,31.2464 625,29.5C 624.667,30.5 624.333,31.5 624,32.5C 623.667,32.1667 623.333,31.8333 623,31.5C 620.922,34.3545 618.755,34.6878 616.5,32.5C 615.5,33.1667 614.5,33.8333 613.5,34.5C 612.627,31.8784 610.794,31.8784 608,34.5C 605.997,32.1993 604.163,32.1993 602.5,34.5C 600.714,32.9789 598.881,32.6456 597,33.5C 596.333,32.5 596.333,31.5 597,30.5C 598.793,31.3808 599.46,30.7142 599,28.5C 597.887,29.7111 596.72,29.7111 595.5,28.5C 594.808,29.0253 594.308,29.6919 594,30.5C 590.472,29.0164 586.806,28.0164 583,27.5C 579.729,28.5252 576.729,28.5252 574,27.5C 572.352,29.0284 570.352,29.6951 568,29.5C 559.779,29.1386 551.612,29.1386 543.5,29.5C 542.808,28.9747 542.308,28.3081 542,27.5C 541.481,28.5156 540.647,29.1822 539.5,29.5C 536.276,29.3229 533.109,29.3229 530,29.5C 529.333,26.8333 528.667,26.8333 528,29.5C 525.298,28.359 523.631,29.359 523,32.5C 522.667,31.8333 522.333,31.1667 522,30.5C 521.577,31.9561 520.744,32.4561 519.5,32C 520.451,31.2825 520.617,30.4491 520,29.5C 517.712,32.7747 515.379,32.4413 513,28.5C 512.581,29.6721 511.915,30.6721 511,31.5C 508.833,29.5356 506.499,29.2022 504,30.5C 504.541,27.6354 503.207,25.6354 500,24.5C 499.692,25.3081 499.192,25.9747 498.5,26.5C 496.792,24.3089 494.792,23.9756 492.5,25.5C 491.117,22.9244 490.283,23.2577 490,26.5C 487.621,21.222 486.621,21.222 487,26.5C 484.759,24.0037 482.759,24.3371 481,27.5C 478.957,25.4794 476.957,25.1461 475,26.5C 474.692,25.6919 474.192,25.0253 473.5,24.5C 473.089,25.2624 472.923,26.2624 473,27.5C 471.333,26.5 469.667,25.5 468,24.5C 467.692,25.3081 467.192,25.9747 466.5,26.5C 464.792,24.3089 462.792,23.9756 460.5,25.5C 459.117,22.9244 458.283,23.2577 458,26.5C 455.621,21.222 454.621,21.222 455,26.5C 452.759,24.0037 450.759,24.3371 449,27.5C 446.957,25.4794 444.957,25.1461 443,26.5C 442.692,25.6919 442.192,25.0253 441.5,24.5C 441.089,25.2624 440.923,26.2624 441,27.5C 439.333,26.5 437.667,25.5 436,24.5C 433.876,27.6278 430.876,29.2945 427,29.5C 423.196,28.3047 419.363,28.3047 415.5,29.5C 414.808,28.9747 414.308,28.3081 414,27.5C 412.475,28.7201 410.641,29.3868 408.5,29.5C 403.554,29.3063 398.554,29.3063 393.5,29.5C 391.24,27.6403 388.74,27.6403 386,29.5C 384.434,30.0606 383.101,29.3939 382,27.5C 379.916,30.033 377.916,30.033 376,27.5C 375,28.8333 374,28.8333 373,27.5C 372.667,28.1667 372.333,28.8333 372,29.5C 369.667,29.5 367.333,29.5 365,29.5C 364.544,28.2559 365.044,27.4226 366.5,27C 364.667,26.5 363.5,25.3333 363,23.5C 362.667,24.5 362.333,25.5 362,26.5C 359.621,21.222 358.621,21.222 359,26.5C 357.127,23.9875 355.293,24.1542 353.5,27C 353.957,27.414 354.291,27.914 354.5,28.5C 349.544,29.4941 344.544,29.8275 339.5,29.5C 338.766,25.301 336.433,23.9677 332.5,25.5C 331.117,22.9244 330.283,23.2577 330,26.5C 327.621,21.222 326.621,21.222 327,26.5C 324.759,24.0037 322.759,24.3371 321,27.5C 319.455,26.1787 318.289,26.5121 317.5,28.5C 315.833,28.8333 314.167,29.1667 312.5,29.5C 304.11,29.0975 295.777,29.0975 287.5,29.5C 286.808,28.9747 286.308,28.3081 286,27.5C 283.267,29.1047 280.267,30.1047 277,30.5C 275.691,28.1088 274.691,28.1088 274,30.5C 263.79,30.4241 253.456,29.7574 243,28.5C 241.333,29.8333 239.667,29.8333 238,28.5C 237.667,29.1667 237.333,29.8333 237,30.5C 231.72,29.444 226.72,28.444 222,27.5C 221.125,29.5127 219.791,29.5127 218,27.5C 217.29,28.9733 216.124,29.6399 214.5,29.5C 214.714,27.8561 214.38,26.3561 213.5,25C 210.776,24.7305 208.109,24.2305 205.5,23.5C 204.167,23.8333 202.833,24.1667 201.5,24.5C 200.833,23.8333 200.167,23.1667 199.5,22.5C 198.304,22.8457 198.304,23.3457 199.5,24C 198.333,24.1667 197.167,24.3333 196,24.5C 190.339,24.4065 184.673,24.4065 179,24.5C 176.648,24.6951 174.648,24.0284 173,22.5C 172.667,23.1667 172.333,23.8333 172,24.5C 168.332,24.3275 164.332,23.9942 160,23.5C 157,23.8333 155.333,25.5 155,28.5C 154,28.1667 153,27.8333 152,27.5C 151.612,28.428 150.945,29.0946 150,29.5C 148.128,28.9318 146.295,28.2651 144.5,27.5C 143.808,28.0253 143.308,28.6919 143,29.5C 140.43,28.5844 137.763,27.9177 135,27.5C 129.694,28.4724 124.528,28.8057 119.5,28.5C 118.353,28.1822 117.519,27.5156 117,26.5C 114.959,27.7522 112.625,28.4188 110,28.5C 89.7263,28.3003 69.393,27.967 49,27.5C 47.2949,28.7633 45.6282,29.0966 44,28.5C 42.1568,30.8472 39.9901,32.8472 37.5,34.5C 36.6268,31.8784 34.7935,31.8784 32,34.5C 29.9967,32.1993 28.1633,32.1993 26.5,34.5C 23.9468,31.9557 21.4468,31.9557 19,34.5C 16.7341,30.666 16.0674,30.9993 17,35.5C 12.5218,35.1812 8.02176,35.1812 3.5,35.5C 1.88565,35.1971 0.552317,34.5305 -0.5,33.5C -0.5,22.1667 -0.5,10.8333 -0.5,-0.5 Z"/></g>
<g><path style="opacity:1" fill="#f4f5f5" d="M 643.5,32.5 C 643.5,75.5 643.5,118.5 643.5,161.5C 428.833,161.5 214.167,161.5 -0.5,161.5C -0.5,118.833 -0.5,76.1667 -0.5,33.5C 0.552317,34.5305 1.88565,35.1971 3.5,35.5C 8.02176,35.1812 12.5218,35.1812 17,35.5C 16.0674,30.9993 16.7341,30.666 19,34.5C 21.4468,31.9557 23.9468,31.9557 26.5,34.5C 28.1633,32.1993 29.9967,32.1993 32,34.5C 34.7935,31.8784 36.6268,31.8784 37.5,34.5C 39.9901,32.8472 42.1568,30.8472 44,28.5C 45.6282,29.0966 47.2949,28.7633 49,27.5C 69.393,27.967 89.7263,28.3003 110,28.5C 112.625,28.4188 114.959,27.7522 117,26.5C 117.519,27.5156 118.353,28.1822 119.5,28.5C 124.528,28.8057 129.694,28.4724 135,27.5C 137.763,27.9177 140.43,28.5844 143,29.5C 143.308,28.6919 143.808,28.0253 144.5,27.5C 146.295,28.2651 148.128,28.9318 150,29.5C 150.945,29.0946 151.612,28.428 152,27.5C 153,27.8333 154,28.1667 155,28.5C 155.333,25.5 157,23.8333 160,23.5C 164.332,23.9942 168.332,24.3275 172,24.5C 172.333,23.8333 172.667,23.1667 173,22.5C 174.648,24.0284 176.648,24.6951 179,24.5C 184.673,24.4065 190.339,24.4065 196,24.5C 197.167,24.3333 198.333,24.1667 199.5,24C 198.304,23.3457 198.304,22.8457 199.5,22.5C 200.167,23.1667 200.833,23.8333 201.5,24.5C 202.833,24.1667 204.167,23.8333 205.5,23.5C 208.109,24.2305 210.776,24.7305 213.5,25C 214.38,26.3561 214.714,27.8561 214.5,29.5C 216.124,29.6399 217.29,28.9733 218,27.5C 219.791,29.5127 221.125,29.5127 222,27.5C 226.72,28.444 231.72,29.444 237,30.5C 237.333,29.8333 237.667,29.1667 238,28.5C 239.667,29.8333 241.333,29.8333 243,28.5C 253.456,29.7574 263.79,30.4241 274,30.5C 274.691,28.1088 275.691,28.1088 277,30.5C 280.267,30.1047 283.267,29.1047 286,27.5C 286.308,28.3081 286.808,28.9747 287.5,29.5C 295.777,29.0975 304.11,29.0975 312.5,29.5C 314.167,29.1667 315.833,28.8333 317.5,28.5C 318.289,26.5121 319.455,26.1787 321,27.5C 322.759,24.3371 324.759,24.0037 327,26.5C 326.621,21.222 327.621,21.222 330,26.5C 330.283,23.2577 331.117,22.9244 332.5,25.5C 336.433,23.9677 338.766,25.301 339.5,29.5C 344.544,29.8275 349.544,29.4941 354.5,28.5C 354.291,27.914 353.957,27.414 353.5,27C 355.293,24.1542 357.127,23.9875 359,26.5C 358.621,21.222 359.621,21.222 362,26.5C 362.333,25.5 362.667,24.5 363,23.5C 363.5,25.3333 364.667,26.5 366.5,27C 365.044,27.4226 364.544,28.2559 365,29.5C 367.333,29.5 369.667,29.5 372,29.5C 372.333,28.8333 372.667,28.1667 373,27.5C 374,28.8333 375,28.8333 376,27.5C 377.916,30.033 379.916,30.033 382,27.5C 383.101,29.3939 384.434,30.0606 386,29.5C 388.74,27.6403 391.24,27.6403 393.5,29.5C 398.554,29.3063 403.554,29.3063 408.5,29.5C 410.641,29.3868 412.475,28.7201 414,27.5C 414.308,28.3081 414.808,28.9747 415.5,29.5C 419.363,28.3047 423.196,28.3047 427,29.5C 430.876,29.2945 433.876,27.6278 436,24.5C 437.667,25.5 439.333,26.5 441,27.5C 440.923,26.2624 441.089,25.2624 441.5,24.5C 442.192,25.0253 442.692,25.6919 443,26.5C 444.957,25.1461 446.957,25.4794 449,27.5C 450.759,24.3371 452.759,24.0037 455,26.5C 454.621,21.222 455.621,21.222 458,26.5C 458.283,23.2577 459.117,22.9244 460.5,25.5C 462.792,23.9756 464.792,24.3089 466.5,26.5C 467.192,25.9747 467.692,25.3081 468,24.5C 469.667,25.5 471.333,26.5 473,27.5C 472.923,26.2624 473.089,25.2624 473.5,24.5C 474.192,25.0253 474.692,25.6919 475,26.5C 476.957,25.1461 478.957,25.4794 481,27.5C 482.759,24.3371 484.759,24.0037 487,26.5C 486.621,21.222 487.621,21.222 490,26.5C 490.283,23.2577 491.117,22.9244 492.5,25.5C 494.792,23.9756 496.792,24.3089 498.5,26.5C 499.192,25.9747 499.692,25.3081 500,24.5C 503.207,25.6354 504.541,27.6354 504,30.5C 506.499,29.2022 508.833,29.5356 511,31.5C 511.915,30.6721 512.581,29.6721 513,28.5C 515.379,32.4413 517.712,32.7747 520,29.5C 520.617,30.4491 520.451,31.2825 519.5,32C 520.744,32.4561 521.577,31.9561 522,30.5C 522.333,31.1667 522.667,31.8333 523,32.5C 523.631,29.359 525.298,28.359 528,29.5C 528.667,26.8333 529.333,26.8333 530,29.5C 533.109,29.3229 536.276,29.3229 539.5,29.5C 540.647,29.1822 541.481,28.5156 542,27.5C 542.308,28.3081 542.808,28.9747 543.5,29.5C 551.612,29.1386 559.779,29.1386 568,29.5C 570.352,29.6951 572.352,29.0284 574,27.5C 576.729,28.5252 579.729,28.5252 583,27.5C 586.806,28.0164 590.472,29.0164 594,30.5C 594.308,29.6919 594.808,29.0253 595.5,28.5C 596.72,29.7111 597.887,29.7111 599,28.5C 599.46,30.7142 598.793,31.3808 597,30.5C 596.333,31.5 596.333,32.5 597,33.5C 598.881,32.6456 600.714,32.9789 602.5,34.5C 604.163,32.1993 605.997,32.1993 608,34.5C 610.794,31.8784 612.627,31.8784 613.5,34.5C 614.5,33.8333 615.5,33.1667 616.5,32.5C 618.755,34.6878 620.922,34.3545 623,31.5C 623.333,31.8333 623.667,32.1667 624,32.5C 624.333,31.5 624.667,30.5 625,29.5C 625.471,31.2464 626.138,32.913 627,34.5C 629.447,31.9557 631.947,31.9557 634.5,34.5C 636.163,32.1993 637.997,32.1993 640,34.5C 641.113,33.695 642.279,33.0283 643.5,32.5 Z"/></g>
<g><path style="opacity:1" fill="#62b6f1" d="M 80.5,32.5 C 83.5,32.5 86.5,32.5 89.5,32.5C 89.0833,36.8346 88.5833,41.1679 88,45.5C 84.8787,54.6055 82.712,63.9388 81.5,73.5C 78.1667,73.5 74.8333,73.5 71.5,73.5C 74.3736,59.7982 77.3736,46.1315 80.5,32.5 Z"/></g>
<g><path style="opacity:1" fill="#9ea9b9" d="M 448.5,43.5 C 451.024,42.1997 453.691,42.1997 456.5,43.5C 456.376,44.1067 456.043,44.44 455.5,44.5C 453.393,43.5318 451.059,43.1984 448.5,43.5 Z"/></g>
<g><path style="opacity:1" fill="#2b4165" d="M 448.5,43.5 C 451.059,43.1984 453.393,43.5318 455.5,44.5C 455.5,45.1667 455.5,45.8333 455.5,46.5C 454.076,48.5145 453.41,50.8478 453.5,53.5C 452.781,55.7638 452.448,58.0971 452.5,60.5C 455.167,60.5 457.833,60.5 460.5,60.5C 459.937,67.2499 456.27,69.9166 449.5,68.5C 448.392,77.4334 446.725,86.2668 444.5,95C 444.915,97.9174 446.582,99.7507 449.5,100.5C 445.768,108.258 441.768,108.258 437.5,100.5C 437.505,96.4659 437.838,92.4659 438.5,88.5C 438.216,86.5853 438.549,84.9187 439.5,83.5C 440.404,82.791 440.737,81.791 440.5,80.5C 442.346,80.7778 443.68,80.1112 444.5,78.5C 443.553,76.941 442.887,75.2743 442.5,73.5C 443.986,68.9477 444.652,64.281 444.5,59.5C 444.99,53.8438 446.323,48.5104 448.5,43.5 Z"/></g>
<g><path style="opacity:1" fill="#5fb4f0" d="M 122.5,33.5 C 125.518,33.3354 128.518,33.502 131.5,34C 129.556,44.1602 127.556,54.3269 125.5,64.5C 122.5,64.5 119.5,64.5 116.5,64.5C 117.076,53.8688 119.076,43.5355 122.5,33.5 Z"/></g>
<g><path style="opacity:1" fill="#5fb5f1" d="M 57.5,44.5 C 60.5719,44.1826 63.5719,44.5159 66.5,45.5C 63.856,56.053 61.856,66.7197 60.5,77.5C 57.1667,77.5 53.8333,77.5 50.5,77.5C 52.4546,66.3922 54.7879,55.3922 57.5,44.5 Z"/></g>
<g><path style="opacity:1" fill="#64b5eb" d="M 140.5,43.5 C 143.5,43.5 146.5,43.5 149.5,43.5C 148.628,49.1924 147.628,54.859 146.5,60.5C 143.102,60.8204 139.768,60.487 136.5,59.5C 138.149,54.2377 139.482,48.9044 140.5,43.5 Z"/></g>
<g><path style="opacity:1" fill="#2c4166" d="M 218.5,64.5 C 217.076,66.5145 216.41,68.8478 216.5,71.5C 214.194,82.5274 211.694,93.5274 209,104.5C 206.619,105.435 204.119,105.768 201.5,105.5C 200.677,103.013 199.677,100.679 198.5,98.5C 194.965,89.2267 191.631,79.8934 188.5,70.5C 187.751,66.9176 186.418,63.5843 184.5,60.5C 183.614,61.325 183.281,62.325 183.5,63.5C 180.061,76.9366 177.061,90.6033 174.5,104.5C 171.612,105.01 169.279,104.344 167.5,102.5C 170.709,86.0192 174.042,69.6858 177.5,53.5C 178.924,51.4855 179.59,49.1522 179.5,46.5C 179.33,45.1779 179.663,44.0113 180.5,43C 183.099,42.231 185.599,42.3977 188,43.5C 193.588,58.0929 199.088,72.7596 204.5,87.5C 208.466,72.9689 211.8,58.3023 214.5,43.5C 217.167,43.5 219.833,43.5 222.5,43.5C 221.059,50.4788 219.726,57.4788 218.5,64.5 Z"/></g>
<g><path style="opacity:1" fill="#60b5f0" d="M 98.5,49.5 C 101.572,49.1826 104.572,49.5159 107.5,50.5C 106.167,56.1667 104.833,61.8333 103.5,67.5C 100.572,68.4841 97.5719,68.8174 94.5,68.5C 95.0428,61.9961 96.3761,55.6628 98.5,49.5 Z"/></g>
<g><path style="opacity:1" fill="#63b6f4" d="M 476.5,42.5 C 478.833,42.5 481.167,42.5 483.5,42.5C 482.514,46.4432 481.848,50.4432 481.5,54.5C 478.833,54.5 476.167,54.5 473.5,54.5C 473.863,50.2999 474.863,46.2999 476.5,42.5 Z"/></g>
<g><path style="opacity:1" fill="#66738a" d="M 179.5,46.5 C 179.59,49.1522 178.924,51.4855 177.5,53.5C 177.41,50.8478 178.076,48.5145 179.5,46.5 Z"/></g>
<g><path style="opacity:1" fill="#909caf" d="M 455.5,46.5 C 455.59,49.1522 454.924,51.4855 453.5,53.5C 453.41,50.8478 454.076,48.5145 455.5,46.5 Z"/></g>
<g><path style="opacity:1" fill="#717b91" d="M 401.5,61.5 C 403.948,60.5269 406.615,60.1936 409.5,60.5C 409.737,61.791 409.404,62.791 408.5,63.5C 406.721,61.6565 404.388,60.9898 401.5,61.5 Z"/></g>
<g><path style="opacity:1" fill="#2d4265" d="M 549.5,93.5 C 550.924,91.4855 551.59,89.1522 551.5,86.5C 552.557,80.8234 552.557,75.1567 551.5,69.5C 546.816,66.7619 542.316,67.0953 538,70.5C 535.664,81.8432 533.33,93.1765 531,104.5C 528.619,105.435 526.119,105.768 523.5,105.5C 524.219,103.236 524.552,100.903 524.5,98.5C 527.167,85.8322 529.833,73.1656 532.5,60.5C 540.109,60.8559 547.775,61.0226 555.5,61C 561.252,63.3933 563.419,67.5599 562,73.5C 559.157,83.716 556.823,94.0493 555,104.5C 552.619,105.435 550.119,105.768 547.5,105.5C 547.53,101.382 548.197,97.3821 549.5,93.5 Z"/></g>
<g><path style="opacity:1" fill="#a5afbe" d="M 188.5,70.5 C 187.009,67.9791 185.342,65.6458 183.5,63.5C 183.281,62.325 183.614,61.325 184.5,60.5C 186.418,63.5843 187.751,66.9176 188.5,70.5 Z"/></g>
<g><path style="opacity:1" fill="#8994a4" d="M 267.5,62.5 C 270.024,61.1997 272.691,61.1997 275.5,62.5C 275.376,63.1067 275.043,63.44 274.5,63.5C 272.393,62.5318 270.059,62.1984 267.5,62.5 Z"/></g>
<g><path style="opacity:1" fill="#2c4365" d="M 501.5,59.5 C 514.208,58.3768 520.042,64.0435 519,76.5C 517.679,84.1308 515.346,91.4642 512,98.5C 505.318,106.867 497.151,108.7 487.5,104C 483.681,98.7952 482.514,92.9618 484,86.5C 484.865,77.9468 488.032,70.4468 493.5,64C 496.099,62.205 498.766,60.705 501.5,59.5 Z"/></g>
<g><path style="opacity:1" fill="#2b4165" d="M 236.5,60.5 C 241.179,60.3342 245.845,60.5008 250.5,61C 252.624,62.1217 254.457,63.6217 256,65.5C 256.928,73.0349 256.094,80.3682 253.5,87.5C 245.609,88.1812 237.776,88.8479 230,89.5C 228.001,96.5615 230.501,99.7282 237.5,99C 240.758,97.5335 244.092,96.3668 247.5,95.5C 247.674,97.861 248.007,100.194 248.5,102.5C 244.855,103.652 241.188,104.818 237.5,106C 230.155,108.237 224.655,106.07 221,99.5C 221.963,89.3496 223.963,79.3496 227,69.5C 229.679,65.9239 232.846,62.9239 236.5,60.5 Z"/></g>
<g><path style="opacity:1" fill="#a4acba" d="M 332.5,67.5 C 328.642,68.2937 324.642,68.9603 320.5,69.5C 320.611,68.8826 320.944,68.3826 321.5,68C 325.152,67.5014 328.818,67.3347 332.5,67.5 Z"/></g>
<g><path style="opacity:1" fill="#2c4164" d="M 379.5,104.5 C 377.076,104.808 374.743,104.474 372.5,103.5C 373.309,101.929 373.643,100.262 373.5,98.5C 377.488,80.2427 381.154,61.9094 384.5,43.5C 387.167,43.5 389.833,43.5 392.5,43.5C 387.847,63.7444 383.514,84.0777 379.5,104.5 Z"/></g>
<g><path style="opacity:1" fill="#edeef0" d="M 238.5,67.5 C 242.192,66.9712 245.358,67.9712 248,70.5C 248.45,74.1875 248.283,77.8542 247.5,81.5C 242.5,81.5 237.5,81.5 232.5,81.5C 231.987,75.693 233.987,71.0263 238.5,67.5 Z"/></g>
<g><path style="opacity:1" fill="#2c4265" d="M 350.5,59.5 C 366.436,58.6137 372.269,65.947 368,81.5C 367.076,92.8742 361.576,101.041 351.5,106C 337.188,108.019 331.355,101.852 334,87.5C 335.197,80.5771 337.197,73.9104 340,67.5C 342.975,63.9525 346.475,61.2858 350.5,59.5 Z"/></g>
<g><path style="opacity:1" fill="#eff0f1" d="M 341.5,86.5 C 343.61,82.4979 344.943,78.1646 345.5,73.5C 349.897,66.5719 355.063,65.9053 361,71.5C 359.848,78.4603 358.514,85.4603 357,92.5C 352.915,98.9002 347.915,99.9002 342,95.5C 341.502,92.5184 341.335,89.5184 341.5,86.5 Z"/></g>
<g><path style="opacity:1" fill="#edeeef" d="M 509.5,69.5 C 510.265,72.0961 510.599,74.7628 510.5,77.5C 509.992,82.2158 509.158,86.8824 508,91.5C 503.916,98.6499 498.583,99.9832 492,95.5C 492.019,88.0738 493.019,80.7404 495,73.5C 496.833,71.6667 498.667,69.8333 500.5,68C 503.823,67.068 506.823,67.568 509.5,69.5 Z"/></g>
<g><path style="opacity:1" fill="#6a788d" d="M 143.5,72.5 C 141.365,70.631 138.698,69.9644 135.5,70.5C 135.405,72.7857 134.738,74.7857 133.5,76.5C 134.738,74.7857 135.405,72.7857 135.5,70.5C 138.698,69.9644 141.365,70.631 143.5,72.5 Z"/></g>
<g><path style="opacity:1" fill="#2c4164" d="M 465.5,88.5 C 466.924,86.4855 467.59,84.1522 467.5,81.5C 468.211,74.7031 469.544,68.0364 471.5,61.5C 474.086,60.52 476.753,60.1866 479.5,60.5C 476.339,75.1478 473.172,89.8145 470,104.5C 467.619,105.435 465.119,105.768 462.5,105.5C 463.374,99.7988 464.374,94.1321 465.5,88.5 Z"/></g>
<g><path style="opacity:1" fill="#9ca6b4" d="M 218.5,64.5 C 218.59,67.1522 217.924,69.4855 216.5,71.5C 216.41,68.8478 217.076,66.5145 218.5,64.5 Z"/></g>
<g><path style="opacity:1" fill="#2e4366" d="M 332.5,67.5 C 328.818,67.3347 325.152,67.5014 321.5,68C 320.944,68.3826 320.611,68.8826 320.5,69.5C 318.738,70.2623 317.738,71.5956 317.5,73.5C 315.39,77.5021 314.057,81.8354 313.5,86.5C 311.677,92.7923 310.01,99.1256 308.5,105.5C 305.833,105.5 303.167,105.5 300.5,105.5C 304.008,90.4669 307.675,75.4669 311.5,60.5C 319.081,61.026 326.748,61.026 334.5,60.5C 334.122,62.921 333.455,65.2543 332.5,67.5 Z"/></g>
<g><path style="opacity:1" fill="#a3acb9" d="M 509.5,69.5 C 511.026,70.4919 511.693,71.9919 511.5,74C 511.486,75.3847 511.152,76.5514 510.5,77.5C 510.599,74.7628 510.265,72.0961 509.5,69.5 Z"/></g>
<g><path style="opacity:1" fill="#a3adbc" d="M 114.5,73.5 C 117.287,72.5233 120.287,72.19 123.5,72.5C 123.737,73.791 123.404,74.791 122.5,75.5C 120.365,73.631 117.698,72.9644 114.5,73.5 Z"/></g>
<g><path style="opacity:1" fill="#2e4266" d="M 143.5,72.5 C 141.074,84.4627 138.574,96.4627 136,108.5C 133.281,109.444 130.448,109.777 127.5,109.5C 128.759,98.3488 130.759,87.3488 133.5,76.5C 134.738,74.7857 135.405,72.7857 135.5,70.5C 138.698,69.9644 141.365,70.631 143.5,72.5 Z"/></g>
<g><path style="opacity:1" fill="#a5adbc" d="M 345.5,73.5 C 344.943,78.1646 343.61,82.4979 341.5,86.5C 342.057,81.8354 343.39,77.5021 345.5,73.5 Z"/></g>
<g><path style="opacity:1" fill="#485b79" d="M 444.5,59.5 C 444.652,64.281 443.986,68.9477 442.5,73.5C 442.887,75.2743 443.553,76.941 444.5,78.5C 443.68,80.1112 442.346,80.7778 440.5,80.5C 440.737,81.791 440.404,82.791 439.5,83.5C 440.421,75.2242 442.087,67.2242 444.5,59.5 Z"/></g>
<g><path style="opacity:1" fill="#283f62" d="M 114.5,73.5 C 117.698,72.9644 120.365,73.631 122.5,75.5C 121.358,79.0712 120.691,82.7379 120.5,86.5C 118.517,89.7994 117.517,93.4661 117.5,97.5C 114.5,97.5 111.5,97.5 108.5,97.5C 110.083,89.2821 112.083,81.2821 114.5,73.5 Z"/></g>
<g><path style="opacity:1" fill="#2f4466" d="M 92.5,77.5 C 95.5,77.5 98.5,77.5 101.5,77.5C 99.6749,86.4678 98.0082,95.4678 96.5,104.5C 93.5,104.5 90.5,104.5 87.5,104.5C 88.5925,95.4558 90.2591,86.4558 92.5,77.5 Z"/></g>
<g><path style="opacity:1" fill="#a3acb9" d="M 317.5,73.5 C 316.943,78.1646 315.61,82.4979 313.5,86.5C 314.057,81.8354 315.39,77.5021 317.5,73.5 Z"/></g>
<g><path style="opacity:1" fill="#324668" d="M 69.5,82.5 C 72.5719,82.1826 75.5719,82.5159 78.5,83.5C 77.1785,88.0665 76.3452,92.7332 76,97.5C 72.9433,98.4505 69.7766,98.7839 66.5,98.5C 66.8704,93.0243 67.8704,87.6909 69.5,82.5 Z"/></g>
<g><path style="opacity:1" fill="#2d4264" d="M 428.5,86.5 C 427.076,88.5145 426.41,90.8478 426.5,93.5C 425.383,97.2949 424.717,101.295 424.5,105.5C 421.193,105.937 418.193,105.27 415.5,103.5C 409.038,107.769 402.871,107.435 397,102.5C 395.299,100.1 394.466,97.4334 394.5,94.5C 396.524,83.3289 398.857,72.3289 401.5,61.5C 404.388,60.9898 406.721,61.6565 408.5,63.5C 407.16,70.528 405.66,77.528 404,84.5C 400.493,97.3375 404.66,101.171 416.5,96C 417.46,94.5806 418.293,93.0806 419,91.5C 421.232,81.1723 423.399,70.8389 425.5,60.5C 428.247,60.1866 430.914,60.52 433.5,61.5C 431.357,69.7401 429.69,78.0734 428.5,86.5 Z"/></g>
<g><path style="opacity:1" fill="#2d4265" d="M 267.5,62.5 C 270.059,62.1984 272.393,62.5318 274.5,63.5C 272.946,69.3719 271.946,75.3719 271.5,81.5C 270.076,83.5145 269.41,85.8478 269.5,88.5C 269.345,98.4 273.679,100.9 282.5,96C 283.639,94.2196 284.639,92.3863 285.5,90.5C 286.924,88.4855 287.59,86.1522 287.5,83.5C 288.061,75.9812 289.561,68.6479 292,61.5C 294.381,60.565 296.881,60.2317 299.5,60.5C 296.63,75.5185 293.63,90.5185 290.5,105.5C 287.421,105.74 284.421,105.407 281.5,104.5C 267.143,109.582 260.31,104.582 261,89.5C 263.393,80.4212 265.559,71.4212 267.5,62.5 Z"/></g>
<g><path style="opacity:1" fill="#697994" d="M 56.5,91.5 C 56.5,90.1667 56.5,88.8333 56.5,87.5C 54.1432,87.3367 51.8098,87.5034 49.5,88C 48.9152,89.3024 48.2485,90.469 47.5,91.5C 47.2865,89.8561 47.6198,88.3561 48.5,87C 51.4816,86.502 54.4816,86.3354 57.5,86.5C 57.7845,88.4147 57.4511,90.0813 56.5,91.5 Z"/></g>
<g><path style="opacity:1" fill="#717c94" d="M 287.5,83.5 C 287.59,86.1522 286.924,88.4855 285.5,90.5C 285.41,87.8478 286.076,85.5145 287.5,83.5 Z"/></g>
<g><path style="opacity:1" fill="#9aa4b2" d="M 271.5,81.5 C 271.59,84.1522 270.924,86.4855 269.5,88.5C 269.41,85.8478 270.076,83.5145 271.5,81.5 Z"/></g>
<g><path style="opacity:1" fill="#8591a3" d="M 467.5,81.5 C 467.59,84.1522 466.924,86.4855 465.5,88.5C 465.41,85.8478 466.076,83.5145 467.5,81.5 Z"/></g>
<g><path style="opacity:1" fill="#2b4165" d="M 584.5,59.5 C 587.187,59.3359 589.854,59.5026 592.5,60C 595.008,60.115 597.008,61.115 598.5,63C 597.311,64.8948 596.311,66.8948 595.5,69C 591.688,67.6943 587.688,67.361 583.5,68C 580.317,70.4793 579.984,73.146 582.5,76C 588.219,78.2755 593.385,81.4421 598,85.5C 599.48,95.3779 595.647,102.211 586.5,106C 582.167,106.667 577.833,106.667 573.5,106C 568.473,103.282 566.473,99.2823 567.5,94C 569.833,93.3333 572.167,93.3333 574.5,94C 579.094,101.134 584.26,101.3 590,94.5C 590.667,92.8333 590.667,91.1667 590,89.5C 585.963,86.3983 581.463,84.2316 576.5,83C 570.112,72.2477 572.778,64.4144 584.5,59.5 Z"/></g>
<g><path style="opacity:1" fill="#2b4065" d="M 56.5,91.5 C 54.9847,97.4102 53.9847,103.41 53.5,109.5C 50.5,109.5 47.5,109.5 44.5,109.5C 44.8696,103.365 45.8696,97.3647 47.5,91.5C 48.2485,90.469 48.9152,89.3024 49.5,88C 51.8098,87.5034 54.1432,87.3367 56.5,87.5C 56.5,88.8333 56.5,90.1667 56.5,91.5 Z"/></g>
<g><path style="opacity:1" fill="#a0a9b6" d="M 120.5,86.5 C 120.074,90.4268 119.074,94.0935 117.5,97.5C 117.517,93.4661 118.517,89.7994 120.5,86.5 Z"/></g>
<g><path style="opacity:1" fill="#9ea7b6" d="M 428.5,86.5 C 428.59,89.1522 427.924,91.4855 426.5,93.5C 426.41,90.8478 427.076,88.5145 428.5,86.5 Z"/></g>
<g><path style="opacity:1" fill="#808c9f" d="M 551.5,86.5 C 551.59,89.1522 550.924,91.4855 549.5,93.5C 549.41,90.8478 550.076,88.5145 551.5,86.5 Z"/></g>
<g><path style="opacity:1" fill="#99a2b3" d="M 438.5,88.5 C 437.838,92.4659 437.505,96.4659 437.5,100.5C 436.842,99.2067 436.508,97.7067 436.5,96C 436.408,93.1789 437.074,90.6789 438.5,88.5 Z"/></g>
<g><path style="opacity:1" fill="#acb4c0" d="M 198.5,98.5 C 199.677,100.679 200.677,103.013 201.5,105.5C 199.179,103.91 198.179,101.577 198.5,98.5 Z"/></g>
<g><path style="opacity:1" fill="#7f8ea2" d="M 524.5,98.5 C 524.552,100.903 524.219,103.236 523.5,105.5C 522.903,105.265 522.57,104.765 522.5,104C 522.954,101.97 523.62,100.137 524.5,98.5 Z"/></g>
<g><path style="opacity:1" fill="#6c788f" d="M 167.5,102.5 C 169.279,104.344 171.612,105.01 174.5,104.5C 172.052,105.473 169.385,105.806 166.5,105.5C 166.263,104.209 166.596,103.209 167.5,102.5 Z"/></g>
<g><path style="opacity:1" fill="#737f90" d="M 373.5,98.5 C 373.643,100.262 373.309,101.929 372.5,103.5C 374.743,104.474 377.076,104.808 379.5,104.5C 377.052,105.473 374.385,105.806 371.5,105.5C 371.41,102.848 372.076,100.515 373.5,98.5 Z"/></g>
</svg>
