<svg width="365" height="58" xmlns="http://www.w3.org/2000/svg"><path d="M336.96 42.128a19.714 19.714 0 0 0-1.53-2.173l-1.576 2.1-11.155 14.851h11.346l4.309-6.104a7.495 7.495 0 0 0 .427-2.48c0-1.135-.17-2.232-.504-3.29a12.993 12.993 0 0 0-1.316-2.904zm12.526-6.464 14.077-18.769h-11.347l-8.104 11.602-8.02-11.602h-12.711l14.503 19.793 5.375 7.166 9.128 13.052h12.712l-15.613-21.242zM130.075 38.57c0 1.48-.242 2.86-.725 4.14a10.824 10.824 0 0 1-2.006 3.37 8.952 8.952 0 0 1-3.072 2.261 9.194 9.194 0 0 1-3.84.81c-2.218 0-4.025-.696-5.418-2.09-1.395-1.394-2.091-3.37-2.091-5.93V16.895h-10.07v24.32c0 5.063 1.309 9.087 3.926 12.074s6.428 4.48 11.435 4.48c1.592 0 3.015-.17 4.266-.512 1.25-.34 2.36-.78 3.328-1.322.967-.54 1.82-1.123 2.56-1.75a19.522 19.522 0 0 0 1.878-1.79l.256 4.521h9.643v-40.02h-10.07V38.57zm80.118-1.707c0-1.42-.228-2.886-.683-4.394a12.717 12.717 0 0 0-2.09-4.096c-.938-1.224-2.12-2.219-3.541-2.987-1.423-.768-3.102-1.152-5.035-1.152-1.935 0-3.613.384-5.034 1.152-1.423.768-2.603 1.763-3.542 2.987a12.7 12.7 0 0 0-2.091 4.096c-.456 1.508-.683 2.973-.683 4.394 0 1.48.227 2.958.683 4.438a13.273 13.273 0 0 0 2.09 4.096 10.737 10.737 0 0 0 3.543 3.03c1.42.767 3.099 1.151 5.034 1.151 1.933 0 3.612-.384 5.035-1.152a10.743 10.743 0 0 0 3.54-3.029 13.292 13.292 0 0 0 2.09-4.096c.456-1.48.684-2.958.684-4.438zm8.576-8.234c1.052 2.59 1.579 5.333 1.579 8.234 0 2.902-.527 5.647-1.58 8.235-1.052 2.59-2.516 4.864-4.393 6.827-1.878 1.962-4.14 3.514-6.785 4.65-2.645 1.138-5.561 1.706-8.746 1.706-3.187 0-6.102-.568-8.747-1.706-2.645-1.136-4.906-2.688-6.784-4.65-1.877-1.963-3.342-4.238-4.394-6.827-1.054-2.588-1.58-5.333-1.58-8.235 0-2.9.526-5.644 1.58-8.234 1.052-2.588 2.517-4.85 4.394-6.784 1.878-1.934 4.139-3.47 6.784-4.608 2.645-1.137 5.56-1.707 8.747-1.707 3.185 0 6.1.57 8.746 1.707 2.646 1.138 4.907 2.674 6.785 4.608 1.877 1.934 3.34 4.196 4.394 6.784zm-47.956-12.502c-1.65 0-3.115.2-4.394.6-1.281.397-2.405.88-3.371 1.448a13.498 13.498 0 0 0-2.518 1.878 19.676 19.676 0 0 0-1.75 1.878l-.255-5.035h-9.643v40.021h10.07v-21.59c0-1.478.269-2.815.81-4.01a9.572 9.572 0 0 1 2.177-3.073c.909-.852 1.99-1.507 3.242-1.963a11.419 11.419 0 0 1 3.925-.68c.967 0 1.806.056 2.518.17a9.23 9.23 0 0 1 2.09.596l2.048-9.47a12.348 12.348 0 0 0-2.346-.599 18.01 18.01 0 0 0-2.603-.17zm147.144 6.656c-1.536-2.16-3.571-3.91-6.101-5.247-2.532-1.336-5.62-2.006-9.26-2.006-3.015 0-5.76.541-8.233 1.621-2.475 1.081-4.61 2.56-6.401 4.438-1.792 1.878-3.187 4.082-4.181 6.613-.996 2.531-1.493 5.277-1.493 8.235 0 3.242.497 6.201 1.493 8.875.994 2.674 2.417 4.963 4.266 6.87 1.849 1.905 4.082 3.4 6.699 4.478 2.616 1.08 5.517 1.621 8.705 1.621 3.128 0 5.815-.34 8.063-1.023 2.247-.683 4.096-1.45 5.547-2.305 1.45-.852 2.56-1.663 3.328-2.43l1.408-1.409-5.461-6.144c-.342.342-.84.782-1.494 1.323-.654.541-1.493 1.053-2.517 1.536a15.18 15.18 0 0 1-.913.391c-.824.326-1.754.623-2.8.888-1.333.341-2.881.517-4.624.544-.152.002-.297.011-.452.011-1.31 0-2.632-.226-3.968-.682a11.55 11.55 0 0 1-3.584-1.962c-.102-.083-.193-.175-.291-.26-.033-.027-.062-.058-.094-.085-.152-.135-.304-.27-.446-.413-.124-.117-.255-.225-.374-.347-1.137-1.172-2.011-2.578-2.622-4.223-.613-1.642-.918-3.46-.918-5.454 0-1.817.305-3.505.918-5.06a12.472 12.472 0 0 1 2.113-3.537c.09-.112.187-.22.285-.329.106-.118.214-.234.327-.347.042-.04.078-.086.12-.127.055-.053.117-.1.173-.15.825-.755 1.828-1.39 3.027-1.898 1.28-.54 2.744-.81 4.395-.81 1.536 0 2.902.27 4.096.81 1.195.541 2.176 1.224 2.944 2.048a8.65 8.65 0 0 1 1.749 2.772 8.437 8.437 0 0 1 .598 3.073h-8.003c-1.054 0-1.976.227-2.766.682a7.18 7.18 0 0 0-2.046 1.76 10.789 10.789 0 0 0-1.437 2.37 22.444 22.444 0 0 0-.933 2.441H322.309v-1.45a34.39 34.39 0 0 0-1.024-8.363c-.683-2.73-1.792-5.177-3.328-7.339zm-52.65 17.664L237.744 0h-10.837v56.917h10.496v-40.96l27.818 40.96h10.582V0h-10.496v40.447zM92.05 22.783c-1.536-2.16-3.57-3.91-6.101-5.247-2.532-1.336-5.62-2.006-9.26-2.006-3.015 0-5.76.541-8.233 1.621-2.475 1.081-4.608 2.56-6.4 4.438-1.792 1.878-3.188 4.082-4.181 6.613-.997 2.531-1.494 5.277-1.494 8.235 0 3.242.497 6.201 1.494 8.875.993 2.674 2.416 4.963 4.266 6.87 1.848 1.905 4.08 3.4 6.698 4.478 2.616 1.08 5.517 1.621 8.704 1.621 3.128 0 5.816-.34 8.064-1.023 2.247-.683 4.097-1.45 5.547-2.305 1.45-.852 2.56-1.663 3.328-2.43l1.408-1.409-5.461-6.144c-.342.342-.841.782-1.493 1.323-.655.541-1.494 1.053-2.518 1.536a15.18 15.18 0 0 1-.913.391c-.824.326-1.754.623-2.8.888-1.333.341-2.882.517-4.623.544-.153.002-.297.011-.453.011-1.31 0-2.632-.226-3.968-.682a11.539 11.539 0 0 1-3.584-1.962c-.102-.083-.193-.175-.291-.26-.033-.027-.062-.058-.095-.085-.15-.135-.303-.27-.445-.413-.124-.117-.256-.225-.374-.347-1.137-1.172-2.011-2.578-2.622-4.223-.613-1.642-.918-3.46-.918-5.454 0-1.817.305-3.505.918-5.06a12.472 12.472 0 0 1 2.113-3.537 8.83 8.83 0 0 1 .285-.329c.106-.118.214-.234.327-.347.042-.04.078-.086.12-.127.054-.053.117-.1.173-.15.824-.755 1.828-1.39 3.027-1.898 1.28-.54 2.745-.81 4.394-.81 1.537 0 2.903.27 4.097.81 1.195.541 2.176 1.224 2.945 2.048a8.63 8.63 0 0 1 1.748 2.772 8.437 8.437 0 0 1 .598 3.073h-8.003c-1.054 0-1.975.227-2.766.682a7.211 7.211 0 0 0-2.047 1.76 10.862 10.862 0 0 0-1.436 2.37 22.444 22.444 0 0 0-.933 2.441H96.403v-1.45a34.34 34.34 0 0 0-1.024-8.363c-.683-2.73-1.792-5.177-3.328-7.339zM38.4 0h10.496v56.917H38.315l-27.818-40.96v40.96H0V0h10.837L38.4 40.447V0z" fill="#25CFBF" fill-rule="evenodd"/></svg>