<svg xmlns="http://www.w3.org/2000/svg" width="131" height="140" style="shape-rendering:geometricPrecision;text-rendering:geometricPrecision;image-rendering:optimizeQuality;fill-rule:evenodd;clip-rule:evenodd"><path style="opacity:.008" fill="#8080ff" d="M111.5 14.5c-.667-1.333-.667-1.333 0 0zM109.5 15.5c-.667-1.333-.667-1.333 0 0z"/><path style="opacity:.949" fill="#7f82fa" d="M111.5 14.5c3.568.26 4.901 2.26 4 6-.994 9.82-1.327 19.82-1 30l-2-1a664.22 664.22 0 0 0-29-19c-.13-.876.203-1.543 1-2a119.774 119.774 0 0 0 13-7c4.318-1.492 8.318-3.492 12-6 .992.172 1.658-.162 2-1z"/><path style="opacity:.998" fill="#8bc2fe" d="M50.5 24.5c0 .667.333 1 1 1 1.28 2.947 3.28 5.28 6 7 .58 2.249 1.913 3.915 4 5 .58 2.249 1.913 3.915 4 5 .58 2.249 1.913 3.915 4 5a35.26 35.26 0 0 0 6 8c0 .667.333 1 1 1l1 2c-3.776 1.325-7.943 1.992-12.5 2-10.004-.863-19.837-.863-29.5 0h-1v-1a844.193 844.193 0 0 1 8-39l-1-2a5.576 5.576 0 0 1-3 1c1.019-1.602 2.519-2.602 4.5-3a83.874 83.874 0 0 1 7.5 8z"/><path style="opacity:.998" fill="#60abfa" d="M34.5 59.5a551.4 551.4 0 0 0-22-25c.87-1.774 2.203-3.107 4-4 4.524-1.544 8.524-3.877 12-7 .992.172 1.658-.162 2-1l8-3a5.576 5.576 0 0 0 3-1l1 2a844.193 844.193 0 0 0-8 39z"/><path style="opacity:.016" fill="#8080ff" d="M97.5 21.5c-.667-1.333-.667-1.333 0 0z"/><path style="opacity:.008" fill="#8080ff" d="M30.5 22.5c-.667-1.333-.667-1.333 0 0zM28.5 23.5c-.667-1.333-.667-1.333 0 0z"/><path style="opacity:.008" fill="#86e5ff" d="M51.5 25.5c-.667 0-1-.333-1-1 .247-2.475.913-2.475 2 0-.124.607-.457.94-1 1z"/><path style="opacity:.008" fill="#8080ff" d="M25.5 23.5c1.333.667 1.333.667 0 0zM89.5 23.5c1.333.667 1.333.667 0 0zM16.5 30.5c-.667-1.333-.667-1.333 0 0z"/><path style="opacity:.016" fill="#80bfff" d="M58.5 32.5c-.667-1.333-.667-1.333 0 0zM58.5 32.5c.667 0 1 .333 1 1l-1-1z"/><path style="opacity:.99" fill="#a06cf9" d="M83.5 30.5a664.22 664.22 0 0 1 29 19c.086.996-.248 1.83-1 2.5a701.17 701.17 0 0 0-26 16.5c-.838-.342-1.172-1.008-1-2 0-.667-.333-1-1-1v-35z"/><path style="opacity:.008" fill="#80fffe" d="M59.5 33.5c1.333.667 1.333.667 0 0z"/><path style="opacity:.997" fill="#7d80f8" d="M12.5 34.5a551.4 551.4 0 0 1 22 25v1a183.565 183.565 0 0 0-19 26l-2 1a6562.219 6562.219 0 0 0-1-53z"/><path style="opacity:.008" fill="#80fffe" d="M62.5 37.5c-.667-1.333-.667-1.333 0 0zM62.5 37.5c1.333.667 1.333.667 0 0z"/><path style="opacity:.015" fill="#9980fe" d="M81.5 62.5c0-.667-.333-1-1-1a579.093 579.093 0 0 0 1.5-33c.826 11.508.66 22.84-.5 34z"/><path style="opacity:.024" fill="#80d5ff" d="M66.5 42.5c-.667-1.333-.667-1.333 0 0zM66.5 42.5c.667 0 1 .333 1 1l-1-1z"/><path style="opacity:.008" fill="#80fffe" d="M67.5 43.5c1.333.667 1.333.667 0 0zM70.5 47.5c-.667-1.333-.667-1.333 0 0zM70.5 47.5c1.333.667 1.333.667 0 0z"/><path style="opacity:.999" fill="#8d6ef9" d="m112.5 49.5 2 1v16a73.134 73.134 0 0 1-1 17l-26-13c-1-.333-1.667-1-2-2a701.17 701.17 0 0 1 26-16.5c.752-.67 1.086-1.504 1-2.5z"/><path style="opacity:.016" fill="#84c6ff" d="M76.5 56.5c-.667 0-1-.333-1-1 .247-2.475.913-2.475 2 0-.124.607-.457.94-1 1z"/><path style="opacity:.008" fill="#8080ff" d="M78.5 57.5c1.333.667 1.333.667 0 0z"/><path style="opacity:.999" fill="#8ccffe" d="M77.5 58.5h1v2a29036 29036 0 0 0-18 28c.825.886 1.825 1.219 3 1-1.419.951-3.085 1.284-5 1 0-.667-.333-1-1-1a579.993 579.993 0 0 0-5-6 303.438 303.438 0 0 0-3-4c0-.667-.333-1-1-1 0-.667-.333-1-1-1 0-.667-.333-1-1-1 0-.667-.333-1-1-1v-1c0-.667-.333-1-1-1a85.546 85.546 0 0 0-9-13c9.663-.863 19.496-.863 29.5 0 4.557-.008 8.724-.675 12.5-2z"/><path style="opacity:.999" fill="#a06cf9" d="M34.5 60.5h1a85.546 85.546 0 0 1 9 13c.667 0 1 .333 1 1v1c.667 0 1 .333 1 1v1c-.985 4.134-1.318 8.468-1 13h-1c-9.922-.447-19.59-1.78-29-4a183.565 183.565 0 0 1 19-26z"/><path style="opacity:.999" fill="#8ce4fe" d="m78.5 60.5 2 1c.667 0 1 .333 1 1 .432 1.21 1.099 2.21 2 3 .667 0 1 .333 1 1-.172.992.162 1.658 1 2 .333 1 1 1.667 2 2a101.41 101.41 0 0 0 10 14v1a2072.73 2072.73 0 0 0-34 4c-1.175.219-2.175-.114-3-1a29036 29036 0 0 1 18-28z"/><path style="opacity:.998" fill="#7c5bc9" d="M115.5 20.5c.954 21.83 1.621 43.83 2 66 0 6.842-.334 13.509-1 20 .167-12.338 0-24.671-.5-37a647.865 647.865 0 0 0-.5 36l-18-21a101.41 101.41 0 0 1-10-14l26 13a73.134 73.134 0 0 0 1-17 529.488 529.488 0 0 0 1-46z"/><path style="opacity:.008" fill="#80fffe" d="M52.5 83.5c-.667.667-.667.667 0 0zM52.5 85.5c1.333.667 1.333.667 0 0z"/><path style="opacity:.982" fill="#7bbafe" d="M97.5 85.5a599.636 599.636 0 0 1-12 37l-2-1a58.52 58.52 0 0 0-8-10 1679.112 1679.112 0 0 1-7.5-9c-.667 1.333-1.333 1.333-2 0-.617-.949-.45-1.782.5-2.5a53.855 53.855 0 0 1-6-6.5l-2-3c1.915.284 3.581-.049 5-1a2072.73 2072.73 0 0 1 34-4z"/><path style="opacity:.998" fill="#8b70f8" d="m13.5 87.5 2-1c9.41 2.22 19.078 3.553 29 4a1308.312 1308.312 0 0 1-28.5 33c-.383-.556-.883-.889-1.5-1 .166-6.675 0-13.342-.5-20l-1 22a1544.772 1544.772 0 0 1-2-91 3389.77 3389.77 0 0 1 2 68c.5-4.655.666-9.322.5-14z"/><path style="opacity:.008" fill="#8195ff" d="M57.5 89.5a2.428 2.428 0 0 1-.5 2c-.692-.937-.525-1.603.5-2z"/><path style="opacity:.992" fill="#53c0f5" d="m97.5 84.5 18 21v1c-1 .333-1.667 1-2 2-.992-.172-1.658.162-2 1-.992-.172-1.658.162-2 1-.667 0-1 .333-1 1-.992-.172-1.658.162-2 1-.992-.172-1.658.162-2 1-.667 0-1 .333-1 1-2.319.492-4.319 1.492-6 3-1.333.333-1.333.667 0 1-.473 1.406-1.473 2.073-3 2-.667-1.333-1.333-1.333-2 0-.667 0-1 .333-1 1-.992-.172-1.658.162-2 1-1.535.854-2.868.854-4 0a599.636 599.636 0 0 0 12-37v-1z"/><path style="opacity:.016" fill="#835dd6" d="M46.5 77.5h1c.667 0 1 .333 1 1 .667 0 1 .333 1 1 .107 1.879-.393 2.212-1.5 1l-1 31a578.414 578.414 0 0 1-.5-34z"/><path style="opacity:.973" fill="#7e57c3" d="M44.5 90.5h1c.576 7.611-.09 14.944-2 22-.992-.172-1.658.162-2 1-.992-.172-1.658.162-2 1-.992-.172-1.658.162-2 1-.992-.172-1.658.162-2 1-1.291-.237-2.291.096-3 1-.992-.172-1.658.162-2 1-.992-.172-1.658.162-2 1-.992-.172-1.658.162-2 1-.992-.172-1.658.162-2 1-.992-.172-1.658.162-2 1-2.319.492-4.319 1.492-6 3-1.548-.321-2.215-1.321-2-3 .617.111 1.117.444 1.5 1a1308.312 1308.312 0 0 0 28.5-33z"/><path style="opacity:.008" fill="#8080ff" d="M60.5 93.5c-.667.667-.667.667 0 0zM60.5 95.5c1.333.667 1.333.667 0 0z"/><path style="opacity:.008" fill="#80fffe" d="M115.5 106.5h1c-.185.67-.519.67-1 0z"/><path style="opacity:.008" fill="#8080ff" d="M113.5 108.5c1.333.667 1.333.667 0 0z"/><path style="opacity:.016" fill="#40bfff" d="M111.5 109.5c1.333.667 1.333.667 0 0z"/><path style="opacity:.008" fill="#799dff" d="M109.5 111.5v-1h2c-.342.838-1.008 1.172-2 1z"/><path style="opacity:.024" fill="#80aaff" d="M75.5 111.5c-.667.667-.667.667 0 0z"/><path style="opacity:.024" fill="#5af" d="M108.5 111.5h1c-.185.67-.519.67-1 0z"/><path style="opacity:.016" fill="#7f40bf" d="M43.5 113.5v-1c2.667.333 2.667.667 0 1z"/><path style="opacity:.008" fill="#758eff" d="M106.5 113.5v-1h2c-.342.838-1.008 1.172-2 1z"/><path style="opacity:.016" fill="#7f40bf" d="M41.5 114.5v-1h2c-.342.838-1.008 1.172-2 1z"/><path style="opacity:.008" fill="#8080ff" d="M39.5 115.5v-1h2c-.342.838-1.008 1.172-2 1z"/><path style="opacity:.008" fill="#76b8ff" d="M104.5 113.5h2c-.473 1.406-1.473 2.073-3 2v-1c.667 0 1-.333 1-1z"/><path style="opacity:.008" fill="#8080ff" d="M37.5 115.5h2c-.667 1.333-1.333 1.333-2 0zM103.5 115.5c-.667.667-.667.667 0 0zM35.5 116.5c1.333.667 1.333.667 0 0z"/><path style="opacity:.008" fill="#8580d3" d="M32.5 118.5v-1c2.667.333 2.667.667 0 1z"/><path style="opacity:.008" fill="#8080ff" d="M97.5 117.5c1.333.667 1.333.667 0 0z"/><path style="opacity:.016" fill="#7f40bf" d="M30.5 119.5v-1h2c-.342.838-1.008 1.172-2 1z"/><path style="opacity:.016" fill="#8046c4" d="M28.5 119.5h2c-.787 1.604-2.12 2.271-4 2v-1c.992.172 1.658-.162 2-1z"/><path style="opacity:.016" fill="#8130a9" d="M24.5 122.5v-1h2c-.342.838-1.008 1.172-2 1z"/><path style="opacity:.031" fill="#80bfff" d="M83.5 121.5c-.667.667-.667.667 0 0z"/><path style="opacity:.008" fill="#66a3ff" d="M92.5 120.5h2c-.473 1.406-1.473 2.073-3 2v-1c.667 0 1-.333 1-1z"/><path style="opacity:.008" fill="#865ed2" d="M22.5 123.5v-1h2c-.342.838-1.008 1.172-2 1z"/><path style="opacity:.008" fill="#7296ff" d="M89.5 123.5v-1h2c-.342.838-1.008 1.172-2 1z"/><path style="opacity:.008" fill="#8080ff" d="M22.5 123.5c-.667.667-.667.667 0 0zM89.5 123.5c-.667.667-.667.667 0 0zM16.5 125.5c1.333.667 1.333.667 0 0z"/></svg>