<?xml version="1.0" encoding="UTF-8"?>
<!DOCTYPE svg PUBLIC "-//W3C//DTD SVG 1.1//EN" "http://www.w3.org/Graphics/SVG/1.1/DTD/svg11.dtd">
<svg xmlns="http://www.w3.org/2000/svg" version="1.1" width="200px" height="200px" style="shape-rendering:geometricPrecision; text-rendering:geometricPrecision; image-rendering:optimizeQuality; fill-rule:evenodd; clip-rule:evenodd" xmlns:xlink="http://www.w3.org/1999/xlink">
<g><path style="opacity:1" fill="#040404" d="M -0.5,-0.5 C 66.1667,-0.5 132.833,-0.5 199.5,-0.5C 199.5,5.5 199.5,11.5 199.5,17.5C 189.654,12.3057 179.154,10.3057 168,11.5C 156.627,10.9053 145.293,9.90532 134,8.5C 123.952,9.04626 113.952,10.0463 104,11.5C 97.5079,10.4458 91.0079,9.44575 84.5,8.5C 79.1494,9.35961 73.9828,9.69294 69,9.5C 58.5102,7.71131 47.6769,6.71131 36.5,6.5C 24.1836,7.92829 11.8503,8.59496 -0.5,8.5C -0.5,5.5 -0.5,2.5 -0.5,-0.5 Z"/></g>
<g><path style="opacity:1" fill="#131313" d="M 199.5,17.5 C 199.5,20.1667 199.5,22.8333 199.5,25.5C 195.565,22.19 191.232,19.3567 186.5,17C 182.958,16.1488 179.625,16.6488 176.5,18.5C 172.318,17.4438 168.151,16.4438 164,15.5C 163.667,15.8333 163.333,16.1667 163,16.5C 161.915,15.7069 160.748,15.0402 159.5,14.5C 153.353,16.4947 147.186,17.4947 141,17.5C 138.272,15.7395 135.605,14.0729 133,12.5C 127.298,14.8542 121.632,17.1875 116,19.5C 113.035,18.8613 111.202,17.528 110.5,15.5C 109.167,15.8333 107.833,16.1667 106.5,16.5C 105.692,16.1924 105.025,15.6924 104.5,15C 97.2218,14.9317 90.0551,14.0984 83,12.5C 77.8614,13.5363 72.6947,13.703 67.5,13C 49.603,8.38859 31.9364,7.88859 14.5,11.5C 9.43585,10.354 4.43585,10.354 -0.5,11.5C -0.5,10.5 -0.5,9.5 -0.5,8.5C 11.8503,8.59496 24.1836,7.92829 36.5,6.5C 47.6769,6.71131 58.5102,7.71131 69,9.5C 73.9828,9.69294 79.1494,9.35961 84.5,8.5C 91.0079,9.44575 97.5079,10.4458 104,11.5C 113.952,10.0463 123.952,9.04626 134,8.5C 145.293,9.90532 156.627,10.9053 168,11.5C 179.154,10.3057 189.654,12.3057 199.5,17.5 Z"/></g>
<g><path style="opacity:1" fill="#1d1d1d" d="M 199.5,25.5 C 199.5,37.1667 199.5,48.8333 199.5,60.5C 190.949,54.731 187.282,46.731 188.5,36.5C 188.24,34.8129 187.573,33.3129 186.5,32C 187.672,31.5814 188.672,30.9147 189.5,30C 188.991,27.4303 187.991,25.0969 186.5,23C 182.985,23.1876 179.652,23.3543 176.5,23.5C 173.512,22.9217 170.678,21.9217 168,20.5C 167.667,20.8333 167.333,21.1667 167,21.5C 156.813,17.1814 150.313,20.1814 147.5,30.5C 146.471,28.4832 145.471,26.4832 144.5,24.5C 123.671,23.6681 102.671,23.1681 81.5,23C 88.0166,22.0679 94.35,20.4013 100.5,18C 99.6721,17.0853 98.6721,16.4186 97.5,16C 87.5036,14.6161 77.5036,14.2828 67.5,15C 49.614,9.55418 32.114,9.05418 15,13.5C 9.87101,12.6311 4.70434,12.2978 -0.5,12.5C -0.5,12.1667 -0.5,11.8333 -0.5,11.5C 4.43585,10.354 9.43585,10.354 14.5,11.5C 31.9364,7.88859 49.603,8.38859 67.5,13C 72.6947,13.703 77.8614,13.5363 83,12.5C 90.0551,14.0984 97.2218,14.9317 104.5,15C 105.025,15.6924 105.692,16.1924 106.5,16.5C 107.833,16.1667 109.167,15.8333 110.5,15.5C 111.202,17.528 113.035,18.8613 116,19.5C 121.632,17.1875 127.298,14.8542 133,12.5C 135.605,14.0729 138.272,15.7395 141,17.5C 147.186,17.4947 153.353,16.4947 159.5,14.5C 160.748,15.0402 161.915,15.7069 163,16.5C 163.333,16.1667 163.667,15.8333 164,15.5C 168.151,16.4438 172.318,17.4438 176.5,18.5C 179.625,16.6488 182.958,16.1488 186.5,17C 191.232,19.3567 195.565,22.19 199.5,25.5 Z"/></g>
<g><path style="opacity:1" fill="#2e2e2e" d="M 144.5,24.5 C 115.492,24.1668 86.4923,24.5002 57.5,25.5C 57.0576,26.7387 56.3909,27.7387 55.5,28.5C 55.19,27.2617 54.69,27.2617 54,28.5C 53.2797,26.8876 53.4464,25.3876 54.5,24C 51.8333,23.6667 49.1667,23.3333 46.5,23C 45.1667,22 45.1667,21 46.5,20C 45.0039,19.4926 43.8373,19.9926 43,21.5C 42.9566,18.7828 41.9566,18.1161 40,19.5C 36.418,16.4697 32.7514,16.1364 29,18.5C 27.4501,21.0728 26.2834,23.9061 25.5,27C 21.5332,28.5999 17.5332,30.0999 13.5,31.5C 11.8927,31.363 10.5594,30.6964 9.5,29.5C 8.25743,26.0176 6.75743,22.6843 5,19.5C 3.73649,17.393 1.90315,16.393 -0.5,16.5C -0.5,15.1667 -0.5,13.8333 -0.5,12.5C 4.70434,12.2978 9.87101,12.6311 15,13.5C 32.114,9.05418 49.614,9.55418 67.5,15C 77.5036,14.2828 87.5036,14.6161 97.5,16C 98.6721,16.4186 99.6721,17.0853 100.5,18C 94.35,20.4013 88.0166,22.0679 81.5,23C 102.671,23.1681 123.671,23.6681 144.5,24.5 Z"/></g>
<g><path style="opacity:1" fill="#323232" d="M -0.5,16.5 C 1.90315,16.393 3.73649,17.393 5,19.5C 6.75743,22.6843 8.25743,26.0176 9.5,29.5C 10.5594,30.6964 11.8927,31.363 13.5,31.5C 17.5332,30.0999 21.5332,28.5999 25.5,27C 26.2834,23.9061 27.4501,21.0728 29,18.5C 32.7514,16.1364 36.418,16.4697 40,19.5C 41.9566,18.1161 42.9566,18.7828 43,21.5C 43.8373,19.9926 45.0039,19.4926 46.5,20C 45.1667,21 45.1667,22 46.5,23C 49.1667,23.3333 51.8333,23.6667 54.5,24C 53.4464,25.3876 53.2797,26.8876 54,28.5C 54.69,27.2617 55.19,27.2617 55.5,28.5C 48.1946,41.4829 40.8613,54.4829 33.5,67.5C 32.5416,67.0472 31.7083,66.3805 31,65.5C 27.9062,59.9896 25.4062,54.3229 23.5,48.5C 24.0899,47.234 24.5899,45.9007 25,44.5C 28.4457,42.7226 31.279,40.2226 33.5,37C 37.6393,35.7269 40.6393,33.7269 42.5,31C 39.2762,28.5234 35.6095,27.8568 31.5,29C 27.2768,30.4725 22.9434,31.4725 18.5,32C 14.7389,35.9604 11.0722,36.1271 7.5,32.5C 6.64331,33.7357 5.97665,35.069 5.5,36.5C 8.31916,40.9006 8.98583,45.5672 7.5,50.5C 6.27135,51.2811 4.93801,51.7811 3.5,52C 7.98712,58.8449 10.8204,66.0116 12,73.5C 14.3353,75.4002 16.502,77.4002 18.5,79.5C 14.1667,79.5 9.83333,79.5 5.5,79.5C 3.29719,79.3964 1.29719,78.7298 -0.5,77.5C -0.5,57.1667 -0.5,36.8333 -0.5,16.5 Z"/></g>
<g><path style="opacity:1" fill="#2c2c2c" d="M 199.5,60.5 C 199.5,61.1667 199.5,61.8333 199.5,62.5C 198.127,62.6567 196.793,62.49 195.5,62C 190.468,57.3071 186.635,51.8071 184,45.5C 182,44.1667 180,42.8333 178,41.5C 176.846,37.6938 176.346,33.8605 176.5,30C 174.899,29.7266 173.399,29.2266 172,28.5C 171.667,28.8333 171.333,29.1667 171,29.5C 166.258,26.254 161.091,24.4207 155.5,24C 152.361,27.2834 150.694,31.1167 150.5,35.5C 149.248,33.9991 148.248,32.3325 147.5,30.5C 150.313,20.1814 156.813,17.1814 167,21.5C 167.333,21.1667 167.667,20.8333 168,20.5C 170.678,21.9217 173.512,22.9217 176.5,23.5C 179.652,23.3543 182.985,23.1876 186.5,23C 187.991,25.0969 188.991,27.4303 189.5,30C 188.672,30.9147 187.672,31.5814 186.5,32C 187.573,33.3129 188.24,34.8129 188.5,36.5C 187.282,46.731 190.949,54.731 199.5,60.5 Z"/></g>
<g><path style="opacity:1" fill="#393939" d="M 199.5,62.5 C 199.5,67.5 199.5,72.5 199.5,77.5C 193.681,79.4639 187.681,79.9639 181.5,79C 179.671,78.7265 178.171,77.8932 177,76.5C 176.283,77.0442 175.783,77.7109 175.5,78.5C 166.929,64.3659 158.596,50.0326 150.5,35.5C 150.694,31.1167 152.361,27.2834 155.5,24C 161.091,24.4207 166.258,26.254 171,29.5C 171.333,29.1667 171.667,28.8333 172,28.5C 173.399,29.2266 174.899,29.7266 176.5,30C 176.346,33.8605 176.846,37.6938 178,41.5C 180,42.8333 182,44.1667 184,45.5C 186.635,51.8071 190.468,57.3071 195.5,62C 196.793,62.49 198.127,62.6567 199.5,62.5 Z"/></g>
<g><path style="opacity:1" fill="#fcfcfc" d="M 144.5,24.5 C 145.471,26.4832 146.471,28.4832 147.5,30.5C 148.248,32.3325 149.248,33.9991 150.5,35.5C 158.596,50.0326 166.929,64.3659 175.5,78.5C 179.171,85.1766 182.838,91.8433 186.5,98.5C 181.492,107.85 176.492,117.184 171.5,126.5C 170.094,126.973 169.427,127.973 169.5,129.5C 168.599,130.29 167.932,131.29 167.5,132.5C 166.599,133.29 165.932,134.29 165.5,135.5C 160.167,144.833 154.833,154.167 149.5,163.5C 147.58,166.339 145.913,169.339 144.5,172.5C 115.492,172.833 86.4923,172.5 57.5,171.5C 53.5691,165.303 49.9024,158.969 46.5,152.5C 44.8193,149.797 43.1526,147.131 41.5,144.5C 32.9647,129.263 24.298,114.097 15.5,99C 18.3781,93.4088 21.3781,87.9088 24.5,82.5C 27.737,77.7015 30.737,72.7015 33.5,67.5C 40.8613,54.4829 48.1946,41.4829 55.5,28.5C 56.3909,27.7387 57.0576,26.7387 57.5,25.5C 86.4923,24.5002 115.492,24.1668 144.5,24.5 Z"/></g>
<g><path style="opacity:1" fill="#3f3f3f" d="M 23.5,48.5 C 21.7868,47.3646 21.1201,45.698 21.5,43.5C 19.2341,43.1412 17.4007,43.8078 16,45.5C 15,44.5 14,43.5 13,42.5C 13.1637,48.1678 13.6637,53.8345 14.5,59.5C 13.325,59.281 12.325,59.6143 11.5,60.5C 12.7607,64.0613 13.594,67.7279 14,71.5C 16.2848,73.9066 18.4514,76.4066 20.5,79C 19.9056,79.4643 19.2389,79.631 18.5,79.5C 16.502,77.4002 14.3353,75.4002 12,73.5C 10.8204,66.0116 7.98712,58.8449 3.5,52C 4.93801,51.7811 6.27135,51.2811 7.5,50.5C 8.98583,45.5672 8.31916,40.9006 5.5,36.5C 5.97665,35.069 6.64331,33.7357 7.5,32.5C 11.0722,36.1271 14.7389,35.9604 18.5,32C 22.9434,31.4725 27.2768,30.4725 31.5,29C 35.6095,27.8568 39.2762,28.5234 42.5,31C 40.6393,33.7269 37.6393,35.7269 33.5,37C 31.279,40.2226 28.4457,42.7226 25,44.5C 24.5899,45.9007 24.0899,47.234 23.5,48.5 Z"/></g>
<g><path style="opacity:1" fill="#484848" d="M 23.5,48.5 C 25.4062,54.3229 27.9062,59.9896 31,65.5C 31.7083,66.3805 32.5416,67.0472 33.5,67.5C 30.737,72.7015 27.737,77.7015 24.5,82.5C 19.5764,81.8169 14.5764,81.4836 9.5,81.5C 7.98261,81.5106 6.81595,82.1772 6,83.5C 5.50999,82.2068 5.34332,80.8734 5.5,79.5C 9.83333,79.5 14.1667,79.5 18.5,79.5C 19.2389,79.631 19.9056,79.4643 20.5,79C 18.4514,76.4066 16.2848,73.9066 14,71.5C 13.594,67.7279 12.7607,64.0613 11.5,60.5C 12.325,59.6143 13.325,59.281 14.5,59.5C 13.6637,53.8345 13.1637,48.1678 13,42.5C 14,43.5 15,44.5 16,45.5C 17.4007,43.8078 19.2341,43.1412 21.5,43.5C 21.1201,45.698 21.7868,47.3646 23.5,48.5 Z"/></g>
<g><path style="opacity:1" fill="#2f2f2f" d="M 137.5,46.5 C 136.458,47.7911 135.292,47.7911 134,46.5C 128.69,49.6468 123.356,52.6468 118,55.5C 117.601,55.2716 117.435,54.9382 117.5,54.5C 119.525,49.6152 122.192,45.1152 125.5,41C 131.58,38.8992 135.58,40.7325 137.5,46.5 Z"/></g>
<g><path style="opacity:1" fill="#313131" d="M 67.5,41.5 C 67.369,42.2389 67.5357,42.9056 68,43.5C 71.2778,42.0572 74.4444,42.2239 77.5,44C 76.2068,44.49 74.8734,44.6567 73.5,44.5C 72.7117,49.5346 71.7117,54.5346 70.5,59.5C 70.8655,60.9019 71.6988,61.9019 73,62.5C 75.5146,63.1147 77.848,64.1147 80,65.5C 80.2695,68.2241 80.7695,70.8908 81.5,73.5C 81.0057,75.0255 80.339,76.3588 79.5,77.5C 77.4271,73.6923 75.0938,70.0256 72.5,66.5C 70.6736,68.1475 69.3403,70.1475 68.5,72.5C 63.8792,68.7873 59.5459,65.454 55.5,62.5C 59.2624,55.3019 63.2624,48.3019 67.5,41.5 Z"/></g>
<g><path style="opacity:1" fill="#4b4b4b" d="M 137.5,46.5 C 139.071,48.6351 140.404,50.9684 141.5,53.5C 141.44,54.0431 141.107,54.3764 140.5,54.5C 138.809,52.7438 136.809,52.2438 134.5,53C 130.553,54.7938 127.219,57.2938 124.5,60.5C 124.57,63.825 125.904,64.825 128.5,63.5C 132.474,64.0933 134.641,66.4266 135,70.5C 136,71.1667 137,71.8333 138,72.5C 138.823,76.4682 140.323,80.1348 142.5,83.5C 142.043,84.2975 141.376,84.6309 140.5,84.5C 137.012,78.1938 133.512,71.8605 130,65.5C 129.148,66.5707 128.315,67.5707 127.5,68.5C 125.915,68.0146 124.415,68.6812 123,70.5C 120.419,75.741 117.085,80.4076 113,84.5C 111.355,84.3068 109.521,84.1402 107.5,84C 106.033,81.6215 105.033,79.1215 104.5,76.5C 108.848,69.1311 113.181,61.7978 117.5,54.5C 117.435,54.9382 117.601,55.2716 118,55.5C 123.356,52.6468 128.69,49.6468 134,46.5C 135.292,47.7911 136.458,47.7911 137.5,46.5 Z"/></g>
<g><path style="opacity:1" fill="#555555" d="M 141.5,53.5 C 145.152,59.4641 148.819,65.4641 152.5,71.5C 151.522,71.811 150.855,72.4777 150.5,73.5C 153.217,77.9915 155.551,82.6582 157.5,87.5C 154.212,90.3086 150.545,92.3086 146.5,93.5C 144.265,90.7089 142.265,87.7089 140.5,84.5C 141.376,84.6309 142.043,84.2975 142.5,83.5C 140.323,80.1348 138.823,76.4682 138,72.5C 137,71.8333 136,71.1667 135,70.5C 134.641,66.4266 132.474,64.0933 128.5,63.5C 125.904,64.825 124.57,63.825 124.5,60.5C 127.219,57.2938 130.553,54.7938 134.5,53C 136.809,52.2438 138.809,52.7438 140.5,54.5C 141.107,54.3764 141.44,54.0431 141.5,53.5 Z"/></g>
<g><path style="opacity:1" fill="#494949" d="M 55.5,62.5 C 59.5459,65.454 63.8792,68.7873 68.5,72.5C 63.2342,81.366 58.2342,90.366 53.5,99.5C 50.8239,100.008 48.1572,100.175 45.5,100C 46.0585,99.2753 46.3918,98.4419 46.5,97.5C 45.315,95.2886 44.315,92.9553 43.5,90.5C 44.934,88.7801 45.7674,86.7801 46,84.5C 47.0113,83.6634 48.1779,83.33 49.5,83.5C 51.3904,83.2965 52.8904,83.9632 54,85.5C 54.0144,83.5292 53.6811,81.5292 53,79.5C 50.9551,77.9568 49.4551,78.2901 48.5,80.5C 47.5,80.5 46.5,80.5 45.5,80.5C 48.3296,74.1698 51.663,68.1698 55.5,62.5 Z"/></g>
<g><path style="opacity:1" fill="#fbfbfb" d="M 79.5,77.5 C 83.4722,84.4829 87.4722,91.4829 91.5,98.5C 90.2122,100.739 89.2122,103.072 88.5,105.5C 84.7487,109.995 81.7487,114.995 79.5,120.5C 77.4409,124.271 75.1076,127.938 72.5,131.5C 68.903,125.97 65.5697,120.304 62.5,114.5C 59.8333,109.833 57.1667,105.167 54.5,100.5C 54.5,99.8333 54.1667,99.5 53.5,99.5C 58.2342,90.366 63.2342,81.366 68.5,72.5C 69.3403,70.1475 70.6736,68.1475 72.5,66.5C 75.0938,70.0256 77.4271,73.6923 79.5,77.5 Z"/></g>
<g><path style="opacity:1" fill="#fbfbfb" d="M 140.5,84.5 C 142.265,87.7089 144.265,90.7089 146.5,93.5C 146.66,95.153 147.326,96.4863 148.5,97.5C 146.78,101.942 144.78,106.276 142.5,110.5C 137.856,117.106 133.689,124.106 130,131.5C 129.148,130.429 128.315,129.429 127.5,128.5C 121.845,118.527 116.179,108.527 110.5,98.5C 116.222,88.4658 121.889,78.4658 127.5,68.5C 128.315,67.5707 129.148,66.5707 130,65.5C 133.512,71.8605 137.012,78.1938 140.5,84.5 Z"/></g>
<g><path style="opacity:1" fill="#404040" d="M 104.5,76.5 C 105.033,79.1215 106.033,81.6215 107.5,84C 109.521,84.1402 111.355,84.3068 113,84.5C 117.085,80.4076 120.419,75.741 123,70.5C 124.415,68.6812 125.915,68.0146 127.5,68.5C 121.889,78.4658 116.222,88.4658 110.5,98.5C 116.179,108.527 121.845,118.527 127.5,128.5C 124.828,134.306 120.495,137.306 114.5,137.5C 110.596,131.366 106.929,125.032 103.5,118.5C 104.742,116.108 106.075,116.275 107.5,119C 111.188,119.19 114.688,120.024 118,121.5C 118.5,121 119,120.5 119.5,120C 117.335,115.332 114.668,110.999 111.5,107C 110.068,106.73 109.068,107.396 108.5,109C 104.129,109.172 99.7956,109.672 95.5,110.5C 96.8416,113.151 96.0083,114.818 93,115.5C 87.1645,113.436 86.9978,110.769 92.5,107.5C 91.6798,105.889 90.3464,105.222 88.5,105.5C 89.2122,103.072 90.2122,100.739 91.5,98.5C 87.4722,91.4829 83.4722,84.4829 79.5,77.5C 80.339,76.3588 81.0057,75.0255 81.5,73.5C 80.7695,70.8908 80.2695,68.2241 80,65.5C 77.848,64.1147 75.5146,63.1147 73,62.5C 71.6988,61.9019 70.8655,60.9019 70.5,59.5C 71.7117,54.5346 72.7117,49.5346 73.5,44.5C 74.8734,44.6567 76.2068,44.49 77.5,44C 74.4444,42.2239 71.2778,42.0572 68,43.5C 67.5357,42.9056 67.369,42.2389 67.5,41.5C 70.6868,40.1944 74.0202,40.1944 77.5,41.5C 85.0115,55.2005 93.0115,68.5339 101.5,81.5C 102.763,79.9713 103.763,78.3046 104.5,76.5 Z"/></g>
<g><path style="opacity:1" fill="#b5b5b5" d="M 49.5,83.5 C 48.8902,82.609 48.5569,81.609 48.5,80.5C 49.4551,78.2901 50.9551,77.9568 53,79.5C 53.6811,81.5292 54.0144,83.5292 54,85.5C 52.8904,83.9632 51.3904,83.2965 49.5,83.5 Z"/></g>
<g><path style="opacity:1" fill="#282828" d="M 199.5,77.5 C 199.5,93.8333 199.5,110.167 199.5,126.5C 193.828,127.056 188.161,127.723 182.5,128.5C 178.828,127.823 175.162,127.156 171.5,126.5C 176.492,117.184 181.492,107.85 186.5,98.5C 182.838,91.8433 179.171,85.1766 175.5,78.5C 175.783,77.7109 176.283,77.0442 177,76.5C 178.171,77.8932 179.671,78.7265 181.5,79C 187.681,79.9639 193.681,79.4639 199.5,77.5 Z"/></g>
<g><path style="opacity:1" fill="#404040" d="M 152.5,71.5 C 156.913,79.995 161.58,88.3283 166.5,96.5C 165.175,97.9526 164.342,97.6192 164,95.5C 163.751,96.624 163.251,97.624 162.5,98.5C 157.869,95.4765 153.203,95.1432 148.5,97.5C 147.326,96.4863 146.66,95.153 146.5,93.5C 150.545,92.3086 154.212,90.3086 157.5,87.5C 155.551,82.6582 153.217,77.9915 150.5,73.5C 150.855,72.4777 151.522,71.811 152.5,71.5 Z"/></g>
<g><path style="opacity:1" fill="#6e6e6e" d="M 45.5,80.5 C 46.5,80.5 47.5,80.5 48.5,80.5C 48.5569,81.609 48.8902,82.609 49.5,83.5C 48.1779,83.33 47.0113,83.6634 46,84.5C 45.7674,86.7801 44.934,88.7801 43.5,90.5C 44.315,92.9553 45.315,95.2886 46.5,97.5C 46.3918,98.4419 46.0585,99.2753 45.5,100C 48.1572,100.175 50.8239,100.008 53.5,99.5C 54.1667,99.5 54.5,99.8333 54.5,100.5C 51.2139,101.207 47.8806,101.54 44.5,101.5C 44.0022,98.5131 43.5022,95.5131 43,92.5C 41.3833,91.4606 40.2166,90.4606 39.5,89.5C 41.2651,86.2911 43.2651,83.2911 45.5,80.5 Z"/></g>
<g><path style="opacity:1" fill="#303030" d="M 166.5,96.5 C 167.412,97.7382 167.579,99.0715 167,100.5C 163.141,106.897 159.308,113.23 155.5,119.5C 154.566,118.432 154.232,117.099 154.5,115.5C 151.401,115.908 149.067,114.741 147.5,112C 145.618,111.802 143.952,111.302 142.5,110.5C 144.78,106.276 146.78,101.942 148.5,97.5C 153.203,95.1432 157.869,95.4765 162.5,98.5C 163.251,97.624 163.751,96.624 164,95.5C 164.342,97.6192 165.175,97.9526 166.5,96.5 Z"/></g>
<g><path style="opacity:1" fill="#2d2d2d" d="M 9.5,81.5 C 14.5764,81.4836 19.5764,81.8169 24.5,82.5C 21.3781,87.9088 18.3781,93.4088 15.5,99C 24.298,114.097 32.9647,129.263 41.5,144.5C 41.6309,145.376 41.2975,146.043 40.5,146.5C 38.8513,145.352 37.3513,144.019 36,142.5C 32.8606,134.888 29.1939,127.554 25,120.5C 23.1936,118.048 21.6936,118.381 20.5,121.5C 19.8333,121.167 19.1667,120.833 18.5,120.5C 17.4981,116.766 17.3314,112.766 18,108.5C 13.8995,103.533 12.2328,97.8668 13,91.5C 10.5967,90.2192 8.76332,88.3858 7.5,86C 8.58218,84.6703 9.24885,83.1703 9.5,81.5 Z"/></g>
<g><path style="opacity:1" fill="#7e7e7e" d="M 4.5,105.5 C 5.83333,105.5 7.16667,105.5 8.5,105.5C 8.45327,108.568 7.95327,111.568 7,114.5C 5.18255,109.593 2.68255,109.26 -0.5,113.5C -0.5,112.5 -0.5,111.5 -0.5,110.5C 2.14397,109.856 3.81064,108.189 4.5,105.5 Z"/></g>
<g><path style="opacity:1" fill="#4a4a4a" d="M 142.5,110.5 C 143.952,111.302 145.618,111.802 147.5,112C 149.067,114.741 151.401,115.908 154.5,115.5C 154.232,117.099 154.566,118.432 155.5,119.5C 153.007,125.157 150.007,130.49 146.5,135.5C 145.532,133.393 145.198,131.059 145.5,128.5C 142.801,128.534 140.301,127.867 138,126.5C 132.627,132.269 126.127,136.102 118.5,138C 117.397,139.68 117.73,141.18 119.5,142.5C 119.043,143.298 118.376,143.631 117.5,143.5C 116.471,141.483 115.471,139.483 114.5,137.5C 120.495,137.306 124.828,134.306 127.5,128.5C 128.315,129.429 129.148,130.429 130,131.5C 133.689,124.106 137.856,117.106 142.5,110.5 Z"/></g>
<g><path style="opacity:1" fill="#3e3e3e" d="M -0.5,77.5 C 1.29719,78.7298 3.29719,79.3964 5.5,79.5C 5.34332,80.8734 5.50999,82.2068 6,83.5C 6.81595,82.1772 7.98261,81.5106 9.5,81.5C 9.24885,83.1703 8.58218,84.6703 7.5,86C 8.76332,88.3858 10.5967,90.2192 13,91.5C 12.2328,97.8668 13.8995,103.533 18,108.5C 17.3314,112.766 17.4981,116.766 18.5,120.5C 19.1667,120.833 19.8333,121.167 20.5,121.5C 21.6936,118.381 23.1936,118.048 25,120.5C 29.1939,127.554 32.8606,134.888 36,142.5C 37.3513,144.019 38.8513,145.352 40.5,146.5C 41.2975,146.043 41.6309,145.376 41.5,144.5C 43.1526,147.131 44.8193,149.797 46.5,152.5C 44.8612,155.741 45.6945,158.408 49,160.5C 49.9653,165.105 50.2986,169.439 50,173.5C 48.6507,170.93 47.484,170.93 46.5,173.5C 45.9362,160.207 44.4362,160.207 42,173.5C 41.6667,171.167 41.3333,168.833 41,166.5C 40.6121,167.428 39.9454,168.095 39,168.5C 35.1738,169.565 31.3405,170.565 27.5,171.5C 26.3861,172.723 26.2195,174.056 27,175.5C 28.9773,178.312 31.144,180.978 33.5,183.5C 32.3112,184.429 30.9778,184.762 29.5,184.5C 28.9795,189.846 29.9795,194.846 32.5,199.5C 32.1667,199.5 31.8333,199.5 31.5,199.5C 30.4982,196.826 28.9982,194.492 27,192.5C 26.5,192.667 26,192.833 25.5,193C 26.2931,194.085 26.9598,195.252 27.5,196.5C 27.1543,197.696 26.6543,197.696 26,196.5C 21.6514,191.122 17.8181,185.455 14.5,179.5C 14.5,177.833 14.5,176.167 14.5,174.5C 17.5371,172.735 19.8705,173.402 21.5,176.5C 22.4519,174.955 22.7852,173.288 22.5,171.5C 27.1516,169.696 30.8183,166.53 33.5,162C 32.8333,161.333 32.1667,161.333 31.5,162C 28.2641,164.868 24.7641,167.368 21,169.5C 19.6434,165.216 18.4767,160.883 17.5,156.5C 17.5,156.167 17.5,155.833 17.5,155.5C 19.0481,155.821 19.7148,156.821 19.5,158.5C 24.3329,158.625 28.9996,157.792 33.5,156C 35.0368,154.89 35.7035,153.39 35.5,151.5C 34.448,151.649 33.448,151.483 32.5,151C 34.1341,150.506 35.8008,150.34 37.5,150.5C 35.574,145.385 32.574,140.885 28.5,137C 24.7387,136.262 21.0721,136.595 17.5,138C 17.0426,138.414 16.7093,138.914 16.5,139.5C 17.6505,142.138 18.9838,144.638 20.5,147C 19.552,147.483 18.552,147.649 17.5,147.5C 17.5,149.167 17.5,150.833 17.5,152.5C 16.8826,152.389 16.3826,152.056 16,151.5C 14.2154,140.244 12.0487,129.077 9.5,118C 9.66667,116.833 9.83333,115.667 10,114.5C 10.9653,116.26 12.132,116.594 13.5,115.5C 11.7544,112.733 11.4211,109.899 12.5,107C 11.5,106.667 10.5,106.333 9.5,106C 9.83333,105.667 10.1667,105.333 10.5,105C 8.28841,104.211 6.28841,104.378 4.5,105.5C 3.81064,108.189 2.14397,109.856 -0.5,110.5C -0.5,99.5 -0.5,88.5 -0.5,77.5 Z"/></g>
<g><path style="opacity:1" fill="#4b4b4b" d="M 88.5,105.5 C 90.3464,105.222 91.6798,105.889 92.5,107.5C 86.9978,110.769 87.1645,113.436 93,115.5C 96.0083,114.818 96.8416,113.151 95.5,110.5C 99.7956,109.672 104.129,109.172 108.5,109C 109.068,107.396 110.068,106.73 111.5,107C 114.668,110.999 117.335,115.332 119.5,120C 119,120.5 118.5,121 118,121.5C 114.688,120.024 111.188,119.19 107.5,119C 106.075,116.275 104.742,116.108 103.5,118.5C 102.685,117.571 101.852,116.571 101,115.5C 95.3034,125.338 89.4701,135.004 83.5,144.5C 83.5654,144.062 83.3988,143.728 83,143.5C 82.2747,145.158 81.108,145.658 79.5,145C 80.6219,141.591 80.7886,138.091 80,134.5C 79.2904,133.027 78.1238,132.36 76.5,132.5C 76.3433,131.127 76.51,129.793 77,128.5C 78.6442,126.284 80.1442,123.951 81.5,121.5C 81.0431,120.702 80.3764,120.369 79.5,120.5C 81.7487,114.995 84.7487,109.995 88.5,105.5 Z"/></g>
<g><path style="opacity:1" fill="#474747" d="M 39.5,89.5 C 40.2166,90.4606 41.3833,91.4606 43,92.5C 43.5022,95.5131 44.0022,98.5131 44.5,101.5C 47.8806,101.54 51.2139,101.207 54.5,100.5C 57.1667,105.167 59.8333,109.833 62.5,114.5C 61.3871,115.946 61.2204,117.613 62,119.5C 65.4518,124.179 67.9518,129.345 69.5,135C 69.01,137.503 67.6766,139.503 65.5,141C 66.899,144.064 69.2324,146.064 72.5,147C 71.1667,147.333 69.8333,147.667 68.5,148C 68.273,149.135 67.9396,150.302 67.5,151.5C 66.7899,148.347 65.7899,148.013 64.5,150.5C 54.1638,133.464 44.1638,116.131 34.5,98.5C 36.4325,95.6339 38.0991,92.6339 39.5,89.5 Z"/></g>
<g><path style="opacity:1" fill="#343434" d="M -0.5,115.5 C 2.36956,117.408 5.20289,119.408 8,121.5C 9.29649,127.649 10.4632,133.815 11.5,140C 10.1348,143.279 10.4682,146.279 12.5,149C 8.60557,151.446 4.60557,153.612 0.5,155.5C 0.166667,155.5 -0.166667,155.5 -0.5,155.5C -0.5,142.167 -0.5,128.833 -0.5,115.5 Z"/></g>
<g><path style="opacity:1" fill="#3d3d3d" d="M 62.5,114.5 C 65.5697,120.304 68.903,125.97 72.5,131.5C 75.1076,127.938 77.4409,124.271 79.5,120.5C 80.3764,120.369 81.0431,120.702 81.5,121.5C 80.1442,123.951 78.6442,126.284 77,128.5C 76.51,129.793 76.3433,131.127 76.5,132.5C 78.1238,132.36 79.2904,133.027 80,134.5C 80.7886,138.091 80.6219,141.591 79.5,145C 81.108,145.658 82.2747,145.158 83,143.5C 83.3988,143.728 83.5654,144.062 83.5,144.5C 82.1626,148.673 80.1626,152.506 77.5,156C 74.1667,156.667 70.8333,156.667 67.5,156C 66.3606,154.22 65.3606,152.386 64.5,150.5C 65.7899,148.013 66.7899,148.347 67.5,151.5C 67.9396,150.302 68.273,149.135 68.5,148C 69.8333,147.667 71.1667,147.333 72.5,147C 69.2324,146.064 66.899,144.064 65.5,141C 67.6766,139.503 69.01,137.503 69.5,135C 67.9518,129.345 65.4518,124.179 62,119.5C 61.2204,117.613 61.3871,115.946 62.5,114.5 Z"/></g>
<g><path style="opacity:1" fill="#505050" d="M 172.5,158.5 C 171.891,163.132 170.891,167.799 169.5,172.5C 171.38,175.09 170.714,176.59 167.5,177C 168.527,177.513 169.527,178.013 170.5,178.5C 171.791,178.263 172.791,178.596 173.5,179.5C 173.973,180.906 174.973,181.573 176.5,181.5C 176.539,183.359 175.706,184.692 174,185.5C 172.184,184.671 170.351,183.837 168.5,183C 167.312,180.276 165.645,177.943 163.5,176C 164.448,175.517 165.448,175.351 166.5,175.5C 166.38,173.801 166.046,172.135 165.5,170.5C 166.421,168.077 167.921,166.077 170,164.5C 170.667,161.833 170.667,159.167 170,156.5C 166.544,155.469 163.377,153.969 160.5,152C 163.293,151.256 164.793,149.423 165,146.5C 167.119,149.477 168.286,149.144 168.5,145.5C 168.413,141.654 167.413,138.321 165.5,135.5C 165.932,134.29 166.599,133.29 167.5,132.5C 169.599,131.769 171.599,131.769 173.5,132.5C 172.811,134.444 172.311,136.444 172,138.5C 171.586,138.043 171.086,137.709 170.5,137.5C 170.167,138.833 169.833,140.167 169.5,141.5C 170.191,147.321 171.191,152.988 172.5,158.5 Z"/></g>
<g><path style="opacity:1" fill="#595959" d="M 146.5,135.5 C 146.5,136.167 146.167,136.5 145.5,136.5C 143.983,136.511 142.816,137.177 142,138.5C 139.347,143.482 136.514,148.315 133.5,153C 131.5,153.667 129.5,153.667 127.5,153C 124.667,150.833 122.167,148.333 120,145.5C 119.601,145.728 119.435,146.062 119.5,146.5C 118.599,145.71 117.932,144.71 117.5,143.5C 118.376,143.631 119.043,143.298 119.5,142.5C 117.73,141.18 117.397,139.68 118.5,138C 126.127,136.102 132.627,132.269 138,126.5C 140.301,127.867 142.801,128.534 145.5,128.5C 145.198,131.059 145.532,133.393 146.5,135.5 Z"/></g>
<g><path style="opacity:1" fill="#2a2a2a" d="M 17.5,155.5 C 17.5,154.5 17.5,153.5 17.5,152.5C 17.5,150.833 17.5,149.167 17.5,147.5C 18.552,147.649 19.552,147.483 20.5,147C 18.9838,144.638 17.6505,142.138 16.5,139.5C 16.7093,138.914 17.0426,138.414 17.5,138C 21.0721,136.595 24.7387,136.262 28.5,137C 32.574,140.885 35.574,145.385 37.5,150.5C 35.8008,150.34 34.1341,150.506 32.5,151C 33.448,151.483 34.448,151.649 35.5,151.5C 35.7035,153.39 35.0368,154.89 33.5,156C 28.9996,157.792 24.3329,158.625 19.5,158.5C 19.7148,156.821 19.0481,155.821 17.5,155.5 Z"/></g>
<g><path style="opacity:1" fill="#3f3f3f" d="M 169.5,129.5 C 172.264,129.273 175.264,129.606 178.5,130.5C 182.386,133.093 181.719,134.093 176.5,133.5C 175.846,137.683 177.512,140.516 181.5,142C 179.776,142.448 179.109,143.282 179.5,144.5C 178.914,144.291 178.414,143.957 178,143.5C 173.993,147.21 173.493,151.377 176.5,156C 176.265,156.873 175.931,157.707 175.5,158.5C 177.873,161.37 180.373,164.037 183,166.5C 184.333,165.167 185.667,163.833 187,162.5C 186.923,164.772 185.757,166.438 183.5,167.5C 182.206,168.29 181.039,169.29 180,170.5C 178.316,168.649 176.483,166.982 174.5,165.5C 173.675,163.199 173.008,160.865 172.5,158.5C 171.191,152.988 170.191,147.321 169.5,141.5C 169.833,140.167 170.167,138.833 170.5,137.5C 171.086,137.709 171.586,138.043 172,138.5C 172.311,136.444 172.811,134.444 173.5,132.5C 171.599,131.769 169.599,131.769 167.5,132.5C 167.932,131.29 168.599,130.29 169.5,129.5 Z"/></g>
<g><path style="opacity:1" fill="#323232" d="M 171.5,126.5 C 175.162,127.156 178.828,127.823 182.5,128.5C 188.161,127.723 193.828,127.056 199.5,126.5C 199.5,138.833 199.5,151.167 199.5,163.5C 194.091,166.622 188.591,169.622 183,172.5C 182.5,172.167 182,171.833 181.5,171.5C 182.63,170.378 183.297,169.044 183.5,167.5C 185.757,166.438 186.923,164.772 187,162.5C 185.667,163.833 184.333,165.167 183,166.5C 180.373,164.037 177.873,161.37 175.5,158.5C 175.931,157.707 176.265,156.873 176.5,156C 173.493,151.377 173.993,147.21 178,143.5C 178.414,143.957 178.914,144.291 179.5,144.5C 179.109,143.282 179.776,142.448 181.5,142C 177.512,140.516 175.846,137.683 176.5,133.5C 181.719,134.093 182.386,133.093 178.5,130.5C 175.264,129.606 172.264,129.273 169.5,129.5C 169.427,127.973 170.094,126.973 171.5,126.5 Z"/></g>
<g><path style="opacity:1" fill="#444444" d="M 145.5,136.5 C 142.089,143.094 138.423,149.594 134.5,156C 131.118,156.824 127.784,156.657 124.5,155.5C 122.568,152.634 120.901,149.634 119.5,146.5C 119.435,146.062 119.601,145.728 120,145.5C 122.167,148.333 124.667,150.833 127.5,153C 129.5,153.667 131.5,153.667 133.5,153C 136.514,148.315 139.347,143.482 142,138.5C 142.816,137.177 143.983,136.511 145.5,136.5 Z"/></g>
<g><path style="opacity:1" fill="#4c4c4c" d="M 4.5,105.5 C 6.28841,104.378 8.28841,104.211 10.5,105C 10.1667,105.333 9.83333,105.667 9.5,106C 10.5,106.333 11.5,106.667 12.5,107C 11.4211,109.899 11.7544,112.733 13.5,115.5C 12.132,116.594 10.9653,116.26 10,114.5C 9.83333,115.667 9.66667,116.833 9.5,118C 12.0487,129.077 14.2154,140.244 16,151.5C 16.3826,152.056 16.8826,152.389 17.5,152.5C 17.5,153.5 17.5,154.5 17.5,155.5C 17.5,155.833 17.5,156.167 17.5,156.5C 16.7321,155.737 16.2321,154.737 16,153.5C 16.072,158.179 16.572,162.846 17.5,167.5C 17.631,168.239 17.4643,168.906 17,169.5C 14.484,166.926 12.3173,164.093 10.5,161C 6.31351,160.632 2.98018,158.799 0.5,155.5C 4.60557,153.612 8.60557,151.446 12.5,149C 10.4682,146.279 10.1348,143.279 11.5,140C 10.4632,133.815 9.29649,127.649 8,121.5C 5.20289,119.408 2.36956,117.408 -0.5,115.5C -0.5,114.833 -0.5,114.167 -0.5,113.5C 2.68255,109.26 5.18255,109.593 7,114.5C 7.95327,111.568 8.45327,108.568 8.5,105.5C 7.16667,105.5 5.83333,105.5 4.5,105.5 Z"/></g>
<g><path style="opacity:1" fill="#5c5c5c" d="M -0.5,155.5 C -0.166667,155.5 0.166667,155.5 0.5,155.5C 2.98018,158.799 6.31351,160.632 10.5,161C 12.3173,164.093 14.484,166.926 17,169.5C 17.4643,168.906 17.631,168.239 17.5,167.5C 18.5983,168.601 18.765,169.934 18,171.5C 16.4815,172.163 15.3149,173.163 14.5,174.5C 13.1779,174.67 12.0113,174.337 11,173.5C 10.6667,174.167 10.3333,174.833 10,175.5C 7.98499,174.158 5.81832,173.658 3.5,174C 4.30806,174.308 4.97473,174.808 5.5,175.5C 3.60395,176.466 1.60395,176.799 -0.5,176.5C -0.5,169.5 -0.5,162.5 -0.5,155.5 Z"/></g>
<g><path style="opacity:1" fill="#6f6f6f" d="M 17.5,156.5 C 18.4767,160.883 19.6434,165.216 21,169.5C 24.7641,167.368 28.2641,164.868 31.5,162C 32.1667,161.333 32.8333,161.333 33.5,162C 30.8183,166.53 27.1516,169.696 22.5,171.5C 22.7852,173.288 22.4519,174.955 21.5,176.5C 19.8705,173.402 17.5371,172.735 14.5,174.5C 15.3149,173.163 16.4815,172.163 18,171.5C 18.765,169.934 18.5983,168.601 17.5,167.5C 16.572,162.846 16.072,158.179 16,153.5C 16.2321,154.737 16.7321,155.737 17.5,156.5 Z"/></g>
<g><path style="opacity:1" fill="#616161" d="M 172.5,158.5 C 173.008,160.865 173.675,163.199 174.5,165.5C 176.483,166.982 178.316,168.649 180,170.5C 181.039,169.29 182.206,168.29 183.5,167.5C 183.297,169.044 182.63,170.378 181.5,171.5C 182,171.833 182.5,172.167 183,172.5C 188.591,169.622 194.091,166.622 199.5,163.5C 199.5,164.167 199.5,164.833 199.5,165.5C 195.164,167.332 191.164,169.665 187.5,172.5C 184.04,173.26 183.707,174.76 186.5,177C 184.365,178.381 182.032,179.381 179.5,180C 180.167,180.667 180.833,181.333 181.5,182C 179.893,181.981 178.226,181.815 176.5,181.5C 174.973,181.573 173.973,180.906 173.5,179.5C 176.903,180.685 179.903,179.852 182.5,177C 181.542,175.853 181.875,174.853 183.5,174C 180.901,174.199 178.401,175.033 176,176.5C 174.068,167.304 173.235,167.638 173.5,177.5C 172.209,177.263 171.209,177.596 170.5,178.5C 169.527,178.013 168.527,177.513 167.5,177C 170.714,176.59 171.38,175.09 169.5,172.5C 170.891,167.799 171.891,163.132 172.5,158.5 Z"/></g>
<g><path style="opacity:1" fill="#2b2b2b" d="M 149.5,163.5 C 150.239,163.369 150.906,163.536 151.5,164C 150.35,166.462 149.017,168.796 147.5,171C 151.29,172.729 154.956,174.729 158.5,177C 158.958,183.533 162.125,188.7 168,192.5C 170.969,192.481 174.135,192.314 177.5,192C 178.12,189.527 178.786,187.027 179.5,184.5C 182.188,183.665 184.522,184.332 186.5,186.5C 184.727,188.433 182.561,189.766 180,190.5C 179.861,193.575 180.361,196.575 181.5,199.5C 169.5,199.5 157.5,199.5 145.5,199.5C 145.497,196.325 144.497,193.492 142.5,191C 131.033,182.215 124.366,185.049 122.5,199.5C 101.167,199.5 79.8333,199.5 58.5,199.5C 59.6602,197.797 58.9935,197.131 56.5,197.5C 56.3379,195.473 56.5045,193.473 57,191.5C 61.1667,187.333 65.3333,183.167 69.5,179C 71.4727,178.505 73.4727,178.338 75.5,178.5C 76.5,178.833 77.1667,179.5 77.5,180.5C 78.2716,182.985 77.9383,185.485 76.5,188C 79.4949,190.748 82.9949,192.581 87,193.5C 95.1961,190.52 102.696,191.187 109.5,195.5C 111.874,193.461 113.874,191.128 115.5,188.5C 116.325,187.614 117.325,187.281 118.5,187.5C 118.33,186.178 118.663,185.011 119.5,184C 123.739,182.098 127.739,179.765 131.5,177C 122.938,175.162 114.272,174.162 105.5,174C 118.673,173.831 131.673,173.331 144.5,172.5C 145.913,169.339 147.58,166.339 149.5,163.5 Z"/></g>
<g><path style="opacity:1" fill="#3b3b3b" d="M 165.5,135.5 C 167.413,138.321 168.413,141.654 168.5,145.5C 168.286,149.144 167.119,149.477 165,146.5C 164.793,149.423 163.293,151.256 160.5,152C 163.377,153.969 166.544,155.469 170,156.5C 170.667,159.167 170.667,161.833 170,164.5C 167.921,166.077 166.421,168.077 165.5,170.5C 166.046,172.135 166.38,173.801 166.5,175.5C 165.448,175.351 164.448,175.517 163.5,176C 165.645,177.943 167.312,180.276 168.5,183C 170.351,183.837 172.184,184.671 174,185.5C 175.706,184.692 176.539,183.359 176.5,181.5C 178.226,181.815 179.893,181.981 181.5,182C 180.833,181.333 180.167,180.667 179.5,180C 182.032,179.381 184.365,178.381 186.5,177C 183.707,174.76 184.04,173.26 187.5,172.5C 188.723,174.772 190.723,175.939 193.5,176C 190.586,176.133 188.253,177.3 186.5,179.5C 186.88,181.021 187.046,182.687 187,184.5C 188.667,185.733 190.167,187.067 191.5,188.5C 189.716,188.107 188.05,187.441 186.5,186.5C 184.522,184.332 182.188,183.665 179.5,184.5C 178.786,187.027 178.12,189.527 177.5,192C 174.135,192.314 170.969,192.481 168,192.5C 162.125,188.7 158.958,183.533 158.5,177C 154.956,174.729 151.29,172.729 147.5,171C 149.017,168.796 150.35,166.462 151.5,164C 150.906,163.536 150.239,163.369 149.5,163.5C 154.833,154.167 160.167,144.833 165.5,135.5 Z"/></g>
<g><path style="opacity:1" fill="#3a3a3a" d="M 46.5,152.5 C 49.9024,158.969 53.5691,165.303 57.5,171.5C 86.4923,172.5 115.492,172.833 144.5,172.5C 131.673,173.331 118.673,173.831 105.5,174C 114.272,174.162 122.938,175.162 131.5,177C 127.739,179.765 123.739,182.098 119.5,184C 118.663,185.011 118.33,186.178 118.5,187.5C 117.325,187.281 116.325,187.614 115.5,188.5C 113.874,191.128 111.874,193.461 109.5,195.5C 102.696,191.187 95.1961,190.52 87,193.5C 82.9949,192.581 79.4949,190.748 76.5,188C 77.9383,185.485 78.2716,182.985 77.5,180.5C 80.0442,181.708 81.3775,183.708 81.5,186.5C 89.76,183.685 89.4266,181.852 80.5,181C 78.5,179 76.5,177 74.5,175C 72.3594,174.116 70.6927,174.616 69.5,176.5C 71.6309,177.169 73.6309,177.835 75.5,178.5C 73.4727,178.338 71.4727,178.505 69.5,179C 65.3333,183.167 61.1667,187.333 57,191.5C 56.5045,193.473 56.3379,195.473 56.5,197.5C 58.9935,197.131 59.6602,197.797 58.5,199.5C 54.5,199.5 50.5,199.5 46.5,199.5C 49.1391,197.042 51.1391,194.209 52.5,191C 51.9359,186.449 51.1026,181.949 50,177.5C 49.5017,175.456 48.335,174.122 46.5,173.5C 47.484,170.93 48.6507,170.93 50,173.5C 50.2986,169.439 49.9653,165.105 49,160.5C 45.6945,158.408 44.8612,155.741 46.5,152.5 Z"/></g>
<g><path style="opacity:1" fill="#2a2a2a" d="M 199.5,165.5 C 199.5,174.833 199.5,184.167 199.5,193.5C 196.296,192.617 193.629,190.95 191.5,188.5C 190.167,187.067 188.667,185.733 187,184.5C 187.046,182.687 186.88,181.021 186.5,179.5C 188.253,177.3 190.586,176.133 193.5,176C 190.723,175.939 188.723,174.772 187.5,172.5C 191.164,169.665 195.164,167.332 199.5,165.5 Z"/></g>
<g><path style="opacity:1" fill="#9f9f9f" d="M 14.5,174.5 C 14.5,176.167 14.5,177.833 14.5,179.5C 12.9397,179.481 11.4397,179.148 10,178.5C 6.413,180.044 2.913,181.711 -0.5,183.5C -0.5,182.833 -0.5,182.167 -0.5,181.5C 9.6969,178.458 9.6969,177.125 -0.5,177.5C -0.5,177.167 -0.5,176.833 -0.5,176.5C 1.60395,176.799 3.60395,176.466 5.5,175.5C 4.97473,174.808 4.30806,174.308 3.5,174C 5.81832,173.658 7.98499,174.158 10,175.5C 10.3333,174.833 10.6667,174.167 11,173.5C 12.0113,174.337 13.1779,174.67 14.5,174.5 Z"/></g>
<g><path style="opacity:1" fill="#686868" d="M 77.5,180.5 C 77.1667,179.5 76.5,178.833 75.5,178.5C 73.6309,177.835 71.6309,177.169 69.5,176.5C 70.6927,174.616 72.3594,174.116 74.5,175C 76.5,177 78.5,179 80.5,181C 89.4266,181.852 89.76,183.685 81.5,186.5C 81.3775,183.708 80.0442,181.708 77.5,180.5 Z"/></g>
<g><path style="opacity:1" fill="#3b3b3b" d="M -0.5,177.5 C 9.6969,177.125 9.6969,178.458 -0.5,181.5C -0.5,180.167 -0.5,178.833 -0.5,177.5 Z"/></g>
<g><path style="opacity:1" fill="#9a9a9a" d="M 173.5,179.5 C 172.791,178.596 171.791,178.263 170.5,178.5C 171.209,177.596 172.209,177.263 173.5,177.5C 173.235,167.638 174.068,167.304 176,176.5C 178.401,175.033 180.901,174.199 183.5,174C 181.875,174.853 181.542,175.853 182.5,177C 179.903,179.852 176.903,180.685 173.5,179.5 Z"/></g>
<g><path style="opacity:1" fill="#2a2a2a" d="M 46.5,173.5 C 48.335,174.122 49.5017,175.456 50,177.5C 51.1026,181.949 51.9359,186.449 52.5,191C 51.1391,194.209 49.1391,197.042 46.5,199.5C 41.8333,199.5 37.1667,199.5 32.5,199.5C 29.9795,194.846 28.9795,189.846 29.5,184.5C 30.9778,184.762 32.3112,184.429 33.5,183.5C 31.144,180.978 28.9773,178.312 27,175.5C 26.2195,174.056 26.3861,172.723 27.5,171.5C 31.3405,170.565 35.1738,169.565 39,168.5C 39.9454,168.095 40.6121,167.428 41,166.5C 41.3333,168.833 41.6667,171.167 42,173.5C 44.4362,160.207 45.9362,160.207 46.5,173.5 Z"/></g>
<g><path style="opacity:1" fill="#1a1a1a" d="M 145.5,199.5 C 137.833,199.5 130.167,199.5 122.5,199.5C 124.366,185.049 131.033,182.215 142.5,191C 144.497,193.492 145.497,196.325 145.5,199.5 Z"/></g>
<g><path style="opacity:1" fill="#303030" d="M 14.5,179.5 C 17.8181,185.455 21.6514,191.122 26,196.5C 26.6543,197.696 27.1543,197.696 27.5,196.5C 26.9598,195.252 26.2931,194.085 25.5,193C 26,192.833 26.5,192.667 27,192.5C 28.9982,194.492 30.4982,196.826 31.5,199.5C 20.8333,199.5 10.1667,199.5 -0.5,199.5C -0.5,194.167 -0.5,188.833 -0.5,183.5C 2.913,181.711 6.413,180.044 10,178.5C 11.4397,179.148 12.9397,179.481 14.5,179.5 Z"/></g>
<g><path style="opacity:1" fill="#1b1b1b" d="M 186.5,186.5 C 188.05,187.441 189.716,188.107 191.5,188.5C 193.629,190.95 196.296,192.617 199.5,193.5C 199.5,195.5 199.5,197.5 199.5,199.5C 193.5,199.5 187.5,199.5 181.5,199.5C 180.361,196.575 179.861,193.575 180,190.5C 182.561,189.766 184.727,188.433 186.5,186.5 Z"/></g>
</svg>
