<?xml version="1.0" encoding="UTF-8"?>
<!DOCTYPE svg PUBLIC "-//W3C//DTD SVG 1.1//EN" "http://www.w3.org/Graphics/SVG/1.1/DTD/svg11.dtd">
<svg xmlns="http://www.w3.org/2000/svg" version="1.1" width="428px" height="372px" style="shape-rendering:geometricPrecision; text-rendering:geometricPrecision; image-rendering:optimizeQuality; fill-rule:evenodd; clip-rule:evenodd" xmlns:xlink="http://www.w3.org/1999/xlink">
<g><path style="opacity:1" fill="#fefefe" d="M -0.5,-0.5 C 142.167,-0.5 284.833,-0.5 427.5,-0.5C 427.5,123.5 427.5,247.5 427.5,371.5C 284.833,371.5 142.167,371.5 -0.5,371.5C -0.5,247.5 -0.5,123.5 -0.5,-0.5 Z"/></g>
<g><path style="opacity:1" fill="#f1e0d1" d="M 246.5,23.5 C 243.318,24.0303 240.318,25.0303 237.5,26.5C 239.235,24.1134 241.568,22.4467 244.5,21.5C 245.713,21.7472 246.38,22.4138 246.5,23.5 Z"/></g>
<g><path style="opacity:1" fill="#d7d7d7" d="M 177.5,29.5 C 174.96,29.0333 172.627,28.0333 170.5,26.5C 169.151,26.8457 167.817,27.179 166.5,27.5C 167.191,25.9778 168.358,24.9778 170,24.5C 172.939,25.6227 175.439,27.2893 177.5,29.5 Z"/></g>
<g><path style="opacity:1" fill="#c57835" d="M 246.5,23.5 C 247.035,25.4456 248.368,26.4456 250.5,26.5C 250.973,27.9063 251.973,28.573 253.5,28.5C 254.209,29.404 255.209,29.7373 256.5,29.5C 256.5,34.5 256.5,39.5 256.5,44.5C 253.151,45.1695 250.484,46.8361 248.5,49.5C 246.021,50.6227 243.688,50.6227 241.5,49.5C 241.027,48.0937 240.027,47.427 238.5,47.5C 236.216,47.0248 234.216,46.0248 232.5,44.5C 232.5,39.5 232.5,34.5 232.5,29.5C 234.411,28.925 236.078,27.925 237.5,26.5C 240.318,25.0303 243.318,24.0303 246.5,23.5 Z"/></g>
<g><path style="opacity:1" fill="#919191" d="M 177.5,29.5 C 178.659,31.2503 180.326,32.2503 182.5,32.5C 185.527,36.5389 186.861,41.2056 186.5,46.5C 186.333,49.8333 186.167,53.1667 186,56.5C 184.482,57.1634 183.315,58.1634 182.5,59.5C 178.096,61.64 173.762,63.9733 169.5,66.5C 163.912,63.4339 158.412,60.1006 153,56.5C 152.179,49.3209 152.345,42.3209 153.5,35.5C 156.671,34.9943 159.004,33.3276 160.5,30.5C 162.967,30.2451 164.967,29.2451 166.5,27.5C 167.817,27.179 169.151,26.8457 170.5,26.5C 172.627,28.0333 174.96,29.0333 177.5,29.5 Z"/></g>
<g><path style="opacity:1" fill="#dfb38e" d="M 250.5,26.5 C 252.027,26.427 253.027,27.0937 253.5,28.5C 251.973,28.573 250.973,27.9063 250.5,26.5 Z"/></g>
<g><path style="opacity:1" fill="#ead1bc" d="M 232.5,29.5 C 232.5,34.5 232.5,39.5 232.5,44.5C 231.195,42.6028 230.529,40.2695 230.5,37.5C 230.667,35.1667 230.833,32.8333 231,30.5C 231.383,29.944 231.883,29.6107 232.5,29.5 Z"/></g>
<g><path style="opacity:1" fill="#bebebe" d="M 160.5,30.5 C 159.004,33.3276 156.671,34.9943 153.5,35.5C 155.502,33.5182 157.835,31.8516 160.5,30.5 Z"/></g>
<g><path style="opacity:1" fill="#aeaeae" d="M 182.5,32.5 C 184.328,33.7945 186.328,34.7945 188.5,35.5C 188.666,42.5079 188.5,49.5079 188,56.5C 186.512,58.16 184.679,59.16 182.5,59.5C 183.315,58.1634 184.482,57.1634 186,56.5C 186.167,53.1667 186.333,49.8333 186.5,46.5C 186.861,41.2056 185.527,36.5389 182.5,32.5 Z"/></g>
<g><path style="opacity:1" fill="#e8ceb5" d="M 253.5,28.5 C 254.833,28.5 256.167,28.5 257.5,28.5C 257.821,34.0262 257.488,39.3595 256.5,44.5C 256.5,39.5 256.5,34.5 256.5,29.5C 255.209,29.7373 254.209,29.404 253.5,28.5 Z"/></g>
<g><path style="opacity:1" fill="#f0dfce" d="M 256.5,44.5 C 254.874,47.6217 252.208,49.2883 248.5,49.5C 250.484,46.8361 253.151,45.1695 256.5,44.5 Z"/></g>
<g><path style="opacity:1" fill="#d8a677" d="M 238.5,47.5 C 240.027,47.427 241.027,48.0937 241.5,49.5C 239.973,49.573 238.973,48.9063 238.5,47.5 Z"/></g>
<g><path style="opacity:1" fill="#929292" d="M 319.5,65.5 C 320.458,71.7436 320.791,78.077 320.5,84.5C 318.62,84.2291 317.287,84.8958 316.5,86.5C 312.818,88.0939 309.318,90.0939 306,92.5C 303.046,90.6068 299.879,89.1068 296.5,88C 294.382,86.9509 292.716,85.4509 291.5,83.5C 291.211,77.4093 291.545,71.4093 292.5,65.5C 296.229,62.5481 300.395,60.2148 305,58.5C 309.956,60.6337 314.789,62.967 319.5,65.5 Z"/></g>
<g><path style="opacity:1" fill="#6a839c" d="M 121.5,61.5 C 118.763,61.4013 116.096,61.7347 113.5,62.5C 114.871,60.8588 116.704,59.8588 119,59.5C 120.301,59.6387 121.134,60.3054 121.5,61.5 Z"/></g>
<g><path style="opacity:1" fill="#b1bfcb" d="M 121.5,61.5 C 124.313,61.0246 126.313,62.0246 127.5,64.5C 125.456,63.4918 123.456,62.4918 121.5,61.5 Z"/></g>
<g><path style="opacity:1" fill="#c1cbd5" d="M 127.5,64.5 C 130.639,64.5988 132.973,65.9321 134.5,68.5C 131.669,67.9213 129.336,66.588 127.5,64.5 Z"/></g>
<g><path style="opacity:1" fill="#8e9fb3" d="M 109.5,64.5 C 109.027,65.9063 108.027,66.573 106.5,66.5C 106.973,65.0937 107.973,64.427 109.5,64.5 Z"/></g>
<g><path style="opacity:1" fill="#c6c6c6" d="M 292.5,65.5 C 291.545,71.4093 291.211,77.4093 291.5,83.5C 290.835,80.6862 290.502,77.6862 290.5,74.5C 290.517,71.0866 291.184,68.0866 292.5,65.5 Z"/></g>
<g><path style="opacity:1" fill="#7b92a8" d="M 106.5,66.5 C 103.867,69.1114 100.867,71.2781 97.5,73C 95.8455,73.6077 94.1789,74.1077 92.5,74.5C 96.5492,70.912 101.216,68.2453 106.5,66.5 Z"/></g>
<g><path style="opacity:1" fill="#9fafbf" d="M 136.5,69.5 C 138.027,69.427 139.027,70.0937 139.5,71.5C 137.973,71.573 136.973,70.9063 136.5,69.5 Z"/></g>
<g><path style="opacity:1" fill="#d4d4d4" d="M 319.5,65.5 C 320.82,68.428 321.486,71.7614 321.5,75.5C 321.333,78.8333 321.167,82.1667 321,85.5C 319.644,86.3802 318.144,86.7135 316.5,86.5C 317.287,84.8958 318.62,84.2291 320.5,84.5C 320.791,78.077 320.458,71.7436 319.5,65.5 Z"/></g>
<g><path style="opacity:1" fill="#869caf" d="M 139.5,71.5 C 141.027,71.427 142.027,72.0937 142.5,73.5C 140.973,73.573 139.973,72.9063 139.5,71.5 Z"/></g>
<g><path style="opacity:1" fill="#bdc8d3" d="M 142.5,73.5 C 145.313,73.0246 147.313,74.0246 148.5,76.5C 146.456,75.4918 144.456,74.4918 142.5,73.5 Z"/></g>
<g><path style="opacity:1" fill="#7f95a9" d="M 92.5,74.5 C 91.5144,76.4077 89.8477,77.4077 87.5,77.5C 88.6594,75.7497 90.326,74.7497 92.5,74.5 Z"/></g>
<g><path style="opacity:1" fill="#94a7b8" d="M 148.5,76.5 C 150.3,82.7584 151.133,89.425 151,96.5C 152.302,97.0848 153.469,97.7515 154.5,98.5C 152.856,98.7135 151.356,98.3802 150,97.5C 149.797,90.4207 149.297,83.4207 148.5,76.5 Z"/></g>
<g><path style="opacity:1" fill="#abb9c6" d="M 222.5,79.5 C 220.784,79.6287 219.117,79.962 217.5,80.5C 218.879,78.4031 220.545,78.0698 222.5,79.5 Z"/></g>
<g><path style="opacity:1" fill="#e5c5a7" d="M 347.5,78.5 C 346.738,80.2624 345.404,81.2624 343.5,81.5C 344.262,79.7376 345.596,78.7376 347.5,78.5 Z"/></g>
<g><path style="opacity:1" fill="#c47735" d="M 347.5,78.5 C 349.685,78.7036 351.685,79.3702 353.5,80.5C 353.973,81.9063 354.973,82.573 356.5,82.5C 358.336,84.588 360.669,85.9213 363.5,86.5C 364.833,92.5 364.833,98.5 363.5,104.5C 361.326,104.75 359.659,105.75 358.5,107.5C 356.326,107.75 354.659,108.75 353.5,110.5C 351.906,110.92 350.406,111.586 349,112.5C 347.142,111.394 345.308,110.394 343.5,109.5C 343.027,108.094 342.027,107.427 340.5,107.5C 338.321,107.16 336.488,106.16 335,104.5C 334.501,98.5092 334.334,92.5092 334.5,86.5C 336.027,86.573 337.027,85.9063 337.5,84.5C 338.391,83.8902 339.391,83.5569 340.5,83.5C 342.027,83.573 343.027,82.9063 343.5,81.5C 345.404,81.2624 346.738,80.2624 347.5,78.5 Z"/></g>
<g><path style="opacity:1" fill="#1e446a" d="M 121.5,61.5 C 123.456,62.4918 125.456,63.4918 127.5,64.5C 129.336,66.588 131.669,67.9213 134.5,68.5C 134.842,69.3382 135.508,69.6716 136.5,69.5C 136.973,70.9063 137.973,71.573 139.5,71.5C 139.973,72.9063 140.973,73.573 142.5,73.5C 144.456,74.4918 146.456,75.4918 148.5,76.5C 149.297,83.4207 149.797,90.4207 150,97.5C 151.356,98.3802 152.856,98.7135 154.5,98.5C 155.833,98.5 157.167,98.5 158.5,98.5C 166.221,100.654 174.221,101.987 182.5,102.5C 184.599,103.612 186.933,104.279 189.5,104.5C 189.279,101.721 189.612,99.0545 190.5,96.5C 190.5,95.8333 190.833,95.5 191.5,95.5C 195.252,95.0601 198.252,93.3934 200.5,90.5C 200.842,89.6618 201.508,89.3284 202.5,89.5C 204.027,89.573 205.027,88.9063 205.5,87.5C 206.167,87.5 206.5,87.1667 206.5,86.5C 208.38,86.7709 209.713,86.1042 210.5,84.5C 211.995,84.0113 213.329,83.3446 214.5,82.5C 216.027,82.573 217.027,81.9063 217.5,80.5C 219.117,79.962 220.784,79.6287 222.5,79.5C 223.262,81.2624 224.596,82.2624 226.5,82.5C 227.671,83.3446 229.005,84.0113 230.5,84.5C 233.22,86.5265 236.22,88.1932 239.5,89.5C 239.842,90.3382 240.508,90.6716 241.5,90.5C 241.973,91.9063 242.973,92.573 244.5,92.5C 244.973,93.9063 245.973,94.573 247.5,94.5C 249.076,95.1429 250.41,96.1429 251.5,97.5C 251.832,109.186 251.499,120.852 250.5,132.5C 248.393,133.913 248.06,135.58 249.5,137.5C 256.258,146.681 263.258,155.681 270.5,164.5C 271.028,165.721 271.695,166.887 272.5,168C 273.437,168.692 274.103,168.525 274.5,167.5C 278.252,167.06 281.252,165.393 283.5,162.5C 285.027,162.573 286.027,161.906 286.5,160.5C 289.313,160.975 291.313,159.975 292.5,157.5C 294.216,157.629 295.883,157.962 297.5,158.5C 297.973,159.906 298.973,160.573 300.5,160.5C 302.612,162.771 305.279,164.104 308.5,164.5C 308.953,165.458 309.619,166.292 310.5,167C 313.064,168.396 315.731,169.563 318.5,170.5C 318.973,171.906 319.973,172.573 321.5,172.5C 321.842,173.338 322.508,173.672 323.5,173.5C 324.051,177.973 324.717,182.307 325.5,186.5C 335.987,187.494 346.654,187.828 357.5,187.5C 356.975,182.86 357.642,178.527 359.5,174.5C 362.849,173.831 365.516,172.164 367.5,169.5C 369.722,168.312 372.055,167.312 374.5,166.5C 375.833,166.5 376.5,165.833 376.5,164.5C 376.833,164.5 377.167,164.5 377.5,164.5C 379.042,163.699 380.708,163.366 382.5,163.5C 384.456,164.492 386.456,165.492 388.5,166.5C 389.899,167.89 391.566,168.89 393.5,169.5C 394.514,170.674 395.847,171.34 397.5,171.5C 397.973,172.906 398.973,173.573 400.5,173.5C 400.811,174.478 401.478,175.145 402.5,175.5C 403.498,184.81 403.832,194.143 403.5,203.5C 402.391,203.557 401.391,203.89 400.5,204.5C 397.787,206.172 395.12,207.838 392.5,209.5C 390.326,209.75 388.659,210.75 387.5,212.5C 386.508,212.328 385.842,212.662 385.5,213.5C 383.821,213.285 382.821,213.952 382.5,215.5C 381.5,215.5 380.5,215.5 379.5,215.5C 379.027,214.094 378.027,213.427 376.5,213.5C 375.833,213.167 375.167,212.833 374.5,212.5C 374.027,211.094 373.027,210.427 371.5,210.5C 366.935,208.602 362.601,206.269 358.5,203.5C 358.5,203.167 358.5,202.833 358.5,202.5C 358.789,198.894 358.456,195.394 357.5,192C 352.648,191.185 347.981,191.352 343.5,192.5C 337.167,192.5 330.833,192.5 324.5,192.5C 324.5,198.5 324.5,204.5 324.5,210.5C 323.5,210.833 322.833,211.5 322.5,212.5C 322.167,212.5 321.833,212.5 321.5,212.5C 319.326,212.75 317.659,213.75 316.5,215.5C 314.326,215.75 312.659,216.75 311.5,218.5C 308.669,219.079 306.336,220.412 304.5,222.5C 302.821,222.285 301.821,222.952 301.5,224.5C 298.549,225.694 295.549,226.694 292.5,227.5C 291.508,227.672 290.842,227.338 290.5,226.5C 290.027,225.094 289.027,224.427 287.5,224.5C 286.391,224.443 285.391,224.11 284.5,223.5C 283.41,222.143 282.076,221.143 280.5,220.5C 278.284,217.556 275.284,215.889 271.5,215.5C 270.341,213.75 268.674,212.75 266.5,212.5C 266.217,211.711 265.717,211.044 265,210.5C 264.167,198.486 264.334,186.486 265.5,174.5C 269.273,172.49 269.273,170.49 265.5,168.5C 259.73,160.613 253.73,152.946 247.5,145.5C 246.943,142.95 245.61,140.95 243.5,139.5C 241.545,138.07 239.879,138.403 238.5,140.5C 236.326,140.75 234.659,141.75 233.5,143.5C 231.326,143.75 229.659,144.75 228.5,146.5C 226.326,146.75 224.659,147.75 223.5,149.5C 221.716,150.72 220.05,150.72 218.5,149.5C 217.481,147.899 215.981,146.899 214,146.5C 212.251,146.748 211.418,147.748 211.5,149.5C 209.75,150.659 208.75,152.326 208.5,154.5C 208.5,155.167 208.167,155.5 207.5,155.5C 206.326,156.514 205.66,157.847 205.5,159.5C 203.75,160.659 202.75,162.326 202.5,164.5C 200.75,165.659 199.75,167.326 199.5,169.5C 199.5,169.833 199.5,170.167 199.5,170.5C 197.952,170.821 197.285,171.821 197.5,173.5C 196.833,173.5 196.5,173.833 196.5,174.5C 195.094,174.973 194.427,175.973 194.5,177.5C 193.89,178.391 193.557,179.391 193.5,180.5C 191.75,181.659 190.75,183.326 190.5,185.5C 188.75,186.659 187.75,188.326 187.5,190.5C 185.801,192.566 184.468,194.9 183.5,197.5C 182.326,198.514 181.66,199.847 181.5,201.5C 179.75,202.659 178.75,204.326 178.5,206.5C 177.883,206.611 177.383,206.944 177,207.5C 176.5,217.828 176.334,228.161 176.5,238.5C 173.669,239.079 171.336,240.412 169.5,242.5C 167.033,242.755 165.033,243.755 163.5,245.5C 162.833,245.833 162.167,246.167 161.5,246.5C 159.973,246.427 158.973,247.094 158.5,248.5C 157.609,249.11 156.609,249.443 155.5,249.5C 154.504,249.414 153.671,249.748 153,250.5C 152.503,253.146 152.336,255.813 152.5,258.5C 151.189,262.683 151.189,267.016 152.5,271.5C 153.417,272.127 154.417,272.461 155.5,272.5C 155.842,273.338 156.508,273.672 157.5,273.5C 157.973,274.906 158.973,275.573 160.5,275.5C 160.821,277.048 161.821,277.715 163.5,277.5C 163.5,284.5 163.5,291.5 163.5,298.5C 160.279,298.896 157.612,300.229 155.5,302.5C 153.326,302.75 151.659,303.75 150.5,305.5C 148.236,306.219 145.903,306.552 143.5,306.5C 142.833,306.167 142.167,305.833 141.5,305.5C 141.027,304.094 140.027,303.427 138.5,303.5C 135.683,302.905 133.35,301.572 131.5,299.5C 131.217,298.711 130.717,298.044 130,297.5C 129.205,290.42 129.372,283.42 130.5,276.5C 130.5,276.167 130.5,275.833 130.5,275.5C 132.38,275.771 133.713,275.104 134.5,273.5C 136.674,273.25 138.341,272.25 139.5,270.5C 140.833,270.167 142.167,269.833 143.5,269.5C 144.496,269.586 145.329,269.252 146,268.5C 147.688,261.389 147.855,254.389 146.5,247.5C 145.833,246.833 145.167,246.167 144.5,245.5C 144.027,244.094 143.027,243.427 141.5,243.5C 140.833,243.167 140.167,242.833 139.5,242.5C 139.027,241.094 138.027,240.427 136.5,240.5C 135.685,239.163 134.518,238.163 133,237.5C 132.667,228.5 132.333,219.5 132,210.5C 131.617,209.944 131.117,209.611 130.5,209.5C 129.391,209.443 128.391,209.11 127.5,208.5C 122.566,205.022 117.566,201.522 112.5,198C 110.735,197.36 109.068,197.527 107.5,198.5C 105.973,198.427 104.973,199.094 104.5,200.5C 102.326,200.75 100.659,201.75 99.5,203.5C 97.326,203.75 95.6594,204.75 94.5,206.5C 92.8333,207.833 91.1667,207.833 89.5,206.5C 87.6675,205.752 86.0009,204.752 84.5,203.5C 84.0269,202.094 83.0269,201.427 81.5,201.5C 80.8333,201.167 80.1667,200.833 79.5,200.5C 79.0269,199.094 78.0269,198.427 76.5,198.5C 75.5084,198.672 74.8417,198.338 74.5,197.5C 73.2318,195.953 71.5652,194.953 69.5,194.5C 68.1667,185.5 68.1667,176.5 69.5,167.5C 71.5652,167.047 73.2318,166.047 74.5,164.5C 75.1667,164.167 75.8333,163.833 76.5,163.5C 79.721,163.104 82.3877,161.771 84.5,159.5C 86.5061,158.515 88.1727,157.182 89.5,155.5C 91.9029,155.448 94.2362,155.781 96.5,156.5C 96.9731,157.906 97.9731,158.573 99.5,158.5C 99.9731,159.906 100.973,160.573 102.5,160.5C 103.671,161.345 105.005,162.011 106.5,162.5C 108.566,164.199 110.9,165.532 113.5,166.5C 113.5,167.167 113.833,167.5 114.5,167.5C 114.334,176.173 114.5,184.84 115,193.5C 115.671,194.252 116.504,194.586 117.5,194.5C 119.67,196.086 122.004,197.42 124.5,198.5C 124.973,199.906 125.973,200.573 127.5,200.5C 127.973,201.906 128.973,202.573 130.5,202.5C 131.29,203.401 132.29,204.068 133.5,204.5C 136.167,208.5 138.833,208.5 141.5,204.5C 142.167,204.167 142.833,203.833 143.5,203.5C 145.027,203.573 146.027,202.906 146.5,201.5C 147.167,201.167 147.833,200.833 148.5,200.5C 149.609,200.443 150.609,200.11 151.5,199.5C 154.237,199.401 156.904,199.735 159.5,200.5C 159.973,201.906 160.973,202.573 162.5,202.5C 163.671,203.345 165.005,204.011 166.5,204.5C 166.973,205.906 167.973,206.573 169.5,206.5C 171.027,206.573 172.027,205.906 172.5,204.5C 174.446,203.965 175.446,202.632 175.5,200.5C 175.703,197.767 176.703,195.434 178.5,193.5C 180.201,192.789 181.201,191.455 181.5,189.5C 181.5,189.167 181.5,188.833 181.5,188.5C 182.906,188.027 183.573,187.027 183.5,185.5C 184.167,184.167 184.833,182.833 185.5,181.5C 187.95,179.371 189.617,176.704 190.5,173.5C 192.201,172.789 193.201,171.455 193.5,169.5C 193.433,168.041 193.766,166.708 194.5,165.5C 195.906,165.027 196.573,164.027 196.5,162.5C 196.5,161.833 196.833,161.5 197.5,161.5C 198.401,160.71 199.068,159.71 199.5,158.5C 199.5,158.167 199.5,157.833 199.5,157.5C 201.97,154.58 203.97,151.246 205.5,147.5C 206.355,146.469 207.022,145.303 207.5,144C 205.642,142.245 203.642,140.745 201.5,139.5C 201.027,138.094 200.027,137.427 198.5,137.5C 197.508,137.672 196.842,137.338 196.5,136.5C 195.313,134.025 193.313,133.025 190.5,133.5C 190.5,133.167 190.5,132.833 190.5,132.5C 190.666,124.826 190.5,117.159 190,109.5C 188.301,108.594 186.467,108.261 184.5,108.5C 181.833,108.167 179.167,107.833 176.5,107.5C 173.941,107.802 171.607,107.468 169.5,106.5C 166.026,105.475 162.36,104.808 158.5,104.5C 158.167,104.5 157.833,104.5 157.5,104.5C 155.22,102.777 152.553,102.111 149.5,102.5C 149.5,106.167 149.5,109.833 149.5,113.5C 147.326,113.75 145.659,114.75 144.5,116.5C 143.508,116.328 142.842,116.662 142.5,117.5C 140.821,117.285 139.821,117.952 139.5,119.5C 137.326,119.75 135.659,120.75 134.5,122.5C 131.151,123.169 128.484,124.836 126.5,127.5C 125.391,127.557 124.391,127.89 123.5,128.5C 121.973,128.427 120.973,129.094 120.5,130.5C 118.784,130.371 117.117,130.038 115.5,129.5C 112.304,128.071 109.304,126.405 106.5,124.5C 106.027,123.094 105.027,122.427 103.5,122.5C 103.027,121.094 102.027,120.427 100.5,120.5C 98.847,120.34 97.5137,119.674 96.5,118.5C 96.0269,117.094 95.0269,116.427 93.5,116.5C 92.5084,116.672 91.8417,116.338 91.5,115.5C 91.0269,114.094 90.0269,113.427 88.5,113.5C 87.5049,101.678 87.1716,89.6783 87.5,77.5C 89.8477,77.4077 91.5144,76.4077 92.5,74.5C 94.1789,74.1077 95.8455,73.6077 97.5,73C 100.867,71.2781 103.867,69.1114 106.5,66.5C 108.027,66.573 109.027,65.9063 109.5,64.5C 110.514,63.3263 111.847,62.6596 113.5,62.5C 116.096,61.7347 118.763,61.4013 121.5,61.5 Z"/></g>
<g><path style="opacity:1" fill="#9cadbd" d="M 222.5,79.5 C 224.404,79.7376 225.738,80.7376 226.5,82.5C 224.596,82.2624 223.262,81.2624 222.5,79.5 Z"/></g>
<g><path style="opacity:1" fill="#8c9fb3" d="M 217.5,80.5 C 217.027,81.9063 216.027,82.573 214.5,82.5C 214.973,81.0937 215.973,80.427 217.5,80.5 Z"/></g>
<g><path style="opacity:1" fill="#e6c4a6" d="M 353.5,80.5 C 355.027,80.427 356.027,81.0937 356.5,82.5C 354.973,82.573 353.973,81.9063 353.5,80.5 Z"/></g>
<g><path style="opacity:1" fill="#d8a474" d="M 343.5,81.5 C 343.027,82.9063 342.027,83.573 340.5,83.5C 340.973,82.0937 341.973,81.427 343.5,81.5 Z"/></g>
<g><path style="opacity:1" fill="#edd5c0" d="M 356.5,82.5 C 359.639,82.5988 361.973,83.9321 363.5,86.5C 360.669,85.9213 358.336,84.588 356.5,82.5 Z"/></g>
<g><path style="opacity:1" fill="#adbbca" d="M 210.5,84.5 C 209.713,86.1042 208.38,86.7709 206.5,86.5C 207.514,85.3263 208.847,84.6596 210.5,84.5 Z"/></g>
<g><path style="opacity:1" fill="#bbc6d1" d="M 230.5,84.5 C 231.873,84.3433 233.207,84.51 234.5,85C 236.398,86.417 238.064,87.917 239.5,89.5C 236.22,88.1932 233.22,86.5265 230.5,84.5 Z"/></g>
<g><path style="opacity:1" fill="#e4c1a1" d="M 337.5,84.5 C 337.027,85.9063 336.027,86.573 334.5,86.5C 334.973,85.0937 335.973,84.427 337.5,84.5 Z"/></g>
<g><path style="opacity:1" fill="#899eb1" d="M 205.5,87.5 C 205.027,88.9063 204.027,89.573 202.5,89.5C 202.973,88.0937 203.973,87.427 205.5,87.5 Z"/></g>
<g><path style="opacity:1" fill="#adbcc9" d="M 241.5,90.5 C 243.027,90.427 244.027,91.0937 244.5,92.5C 242.973,92.573 241.973,91.9063 241.5,90.5 Z"/></g>
<g><path style="opacity:1" fill="#8398ac" d="M 200.5,90.5 C 198.252,93.3934 195.252,95.0601 191.5,95.5C 194.22,93.4735 197.22,91.8068 200.5,90.5 Z"/></g>
<g><path style="opacity:1" fill="#8da1b3" d="M 244.5,92.5 C 246.027,92.427 247.027,93.0937 247.5,94.5C 245.973,94.573 244.973,93.9063 244.5,92.5 Z"/></g>
<g><path style="opacity:1" fill="#a4b3c2" d="M 190.5,96.5 C 189.612,99.0545 189.279,101.721 189.5,104.5C 186.933,104.279 184.599,103.612 182.5,102.5C 183.5,102.5 184.5,102.5 185.5,102.5C 186.5,102.5 187.5,102.5 188.5,102.5C 188.025,99.9179 188.692,97.9179 190.5,96.5 Z"/></g>
<g><path style="opacity:1" fill="#d6dde3" d="M 158.5,98.5 C 166.838,99.1662 175.172,99.9995 183.5,101C 184.416,101.278 185.082,101.778 185.5,102.5C 184.5,102.5 183.5,102.5 182.5,102.5C 174.221,101.987 166.221,100.654 158.5,98.5 Z"/></g>
<g><path style="opacity:1" fill="#e1b996" d="M 304.5,104.5 C 300.85,103.272 297.184,103.272 293.5,104.5C 297.303,100.868 300.97,100.868 304.5,104.5 Z"/></g>
<g><path style="opacity:1" fill="#919191" d="M 69.5,107.5 C 69.9528,108.458 70.6195,109.292 71.5,110C 73.7654,111.118 76.0987,111.951 78.5,112.5C 78.5,120.833 78.5,129.167 78.5,137.5C 77.7886,139.201 76.4553,140.201 74.5,140.5C 68.2547,143.662 61.9214,146.662 55.5,149.5C 48.9522,145.732 42.6189,141.732 36.5,137.5C 36.3336,129.493 36.5003,121.493 37,113.5C 38.7286,113.026 39.8953,112.026 40.5,110.5C 46.3641,108.008 51.8641,105.008 57,101.5C 61.0993,103.591 65.266,105.591 69.5,107.5 Z"/></g>
<g><path style="opacity:1" fill="#6d869e" d="M 157.5,104.5 C 155.409,104.682 153.409,104.348 151.5,103.5C 150.833,106.977 150.166,110.311 149.5,113.5C 149.5,109.833 149.5,106.167 149.5,102.5C 152.553,102.111 155.22,102.777 157.5,104.5 Z"/></g>
<g><path style="opacity:1" fill="#c57836" d="M 304.5,104.5 C 305.167,104.833 305.833,105.167 306.5,105.5C 306.973,106.906 307.973,107.573 309.5,107.5C 310.117,107.611 310.617,107.944 311,108.5C 311.499,113.489 311.666,118.489 311.5,123.5C 309.517,123.157 308.183,123.824 307.5,125.5C 304.647,126.189 302.147,127.522 300,129.5C 299.098,129.257 298.265,128.923 297.5,128.5C 294.036,126.683 290.702,124.683 287.5,122.5C 287.334,118.154 287.501,113.821 288,109.5C 288.717,108.956 289.217,108.289 289.5,107.5C 291.027,107.573 292.027,106.906 292.5,105.5C 293.167,105.5 293.5,105.167 293.5,104.5C 297.184,103.272 300.85,103.272 304.5,104.5 Z"/></g>
<g><path style="opacity:1" fill="#a0b0c0" d="M 158.5,104.5 C 162.36,104.808 166.026,105.475 169.5,106.5C 165.351,107.08 161.684,106.414 158.5,104.5 Z"/></g>
<g><path style="opacity:1" fill="#e1ba96" d="M 292.5,105.5 C 292.027,106.906 291.027,107.573 289.5,107.5C 289.973,106.094 290.973,105.427 292.5,105.5 Z"/></g>
<g><path style="opacity:1" fill="#e0b592" d="M 306.5,105.5 C 308.027,105.427 309.027,106.094 309.5,107.5C 307.973,107.573 306.973,106.906 306.5,105.5 Z"/></g>
<g><path style="opacity:1" fill="#e3bf9f" d="M 363.5,104.5 C 362.514,106.408 360.848,107.408 358.5,107.5C 359.659,105.75 361.326,104.75 363.5,104.5 Z"/></g>
<g><path style="opacity:1" fill="#8298ad" d="M 251.5,97.5 C 252.825,109.34 252.825,121.34 251.5,133.5C 249.889,134.32 249.222,135.654 249.5,137.5C 248.06,135.58 248.393,133.913 250.5,132.5C 251.499,120.852 251.832,109.186 251.5,97.5 Z"/></g>
<g><path style="opacity:1" fill="#98a9ba" d="M 176.5,107.5 C 179.167,107.833 181.833,108.167 184.5,108.5C 184.5,108.833 184.5,109.167 184.5,109.5C 181.505,109.706 178.838,109.04 176.5,107.5 Z"/></g>
<g><path style="opacity:1" fill="#d7a373" d="M 340.5,107.5 C 342.027,107.427 343.027,108.094 343.5,109.5C 341.973,109.573 340.973,108.906 340.5,107.5 Z"/></g>
<g><path style="opacity:1" fill="#e1bb97" d="M 358.5,107.5 C 357.341,109.25 355.674,110.25 353.5,110.5C 354.659,108.75 356.326,107.75 358.5,107.5 Z"/></g>
<g><path style="opacity:1" fill="#aebcc8" d="M 188.5,110.5 C 189.167,117.833 189.833,125.167 190.5,132.5C 190.5,132.833 190.5,133.167 190.5,133.5C 188.535,126.24 187.868,118.573 188.5,110.5 Z"/></g>
<g><path style="opacity:1" fill="#c6c6c6" d="M 377.5,112.5 C 373.952,112.949 370.619,113.949 367.5,115.5C 370.258,112.099 373.591,111.099 377.5,112.5 Z"/></g>
<g><path style="opacity:1" fill="#909090" d="M 377.5,112.5 C 381.169,115.19 385.169,117.524 389.5,119.5C 390.833,125.5 390.833,131.5 389.5,137.5C 388.099,138.521 386.765,139.521 385.5,140.5C 383.033,140.755 381.033,141.755 379.5,143.5C 378.305,143.678 377.138,144.011 376,144.5C 371.551,141.538 366.885,138.871 362,136.5C 361.501,130.843 361.334,125.176 361.5,119.5C 364.147,119.071 366.147,117.738 367.5,115.5C 370.619,113.949 373.952,112.949 377.5,112.5 Z"/></g>
<g><path style="opacity:1" fill="#d1d1d1" d="M 69.5,107.5 C 73.0662,108.438 76.3995,109.771 79.5,111.5C 79.8264,120.349 79.493,129.016 78.5,137.5C 78.5,129.167 78.5,120.833 78.5,112.5C 76.0987,111.951 73.7654,111.118 71.5,110C 70.6195,109.292 69.9528,108.458 69.5,107.5 Z"/></g>
<g><path style="opacity:1" fill="#53708c" d="M 184.5,109.5 C 184.5,109.167 184.5,108.833 184.5,108.5C 186.467,108.261 188.301,108.594 190,109.5C 190.5,117.159 190.666,124.826 190.5,132.5C 189.833,125.167 189.167,117.833 188.5,110.5C 187.432,109.566 186.099,109.232 184.5,109.5 Z"/></g>
<g><path style="opacity:1" fill="#e9cfba" d="M 289.5,107.5 C 289.217,108.289 288.717,108.956 288,109.5C 287.501,113.821 287.334,118.154 287.5,122.5C 286.352,118.019 286.185,113.352 287,108.5C 287.671,107.748 288.504,107.414 289.5,107.5 Z"/></g>
<g><path style="opacity:1" fill="#c1c1c1" d="M 40.5,110.5 C 39.8953,112.026 38.7286,113.026 37,113.5C 36.5003,121.493 36.3336,129.493 36.5,137.5C 35.3434,129.344 35.1768,121.01 36,112.5C 37.3297,111.418 38.8297,110.751 40.5,110.5 Z"/></g>
<g><path style="opacity:1" fill="#66809c" d="M 88.5,113.5 C 90.0269,113.427 91.0269,114.094 91.5,115.5C 89.9731,115.573 88.9731,114.906 88.5,113.5 Z"/></g>
<g><path style="opacity:1" fill="#95a7b8" d="M 149.5,113.5 C 148.514,115.408 146.848,116.408 144.5,116.5C 145.659,114.75 147.326,113.75 149.5,113.5 Z"/></g>
<g><path style="opacity:1" fill="#728ba1" d="M 93.5,116.5 C 95.0269,116.427 96.0269,117.094 96.5,118.5C 94.9731,118.573 93.9731,117.906 93.5,116.5 Z"/></g>
<g><path style="opacity:1" fill="#637f98" d="M 142.5,117.5 C 141.71,118.401 140.71,119.068 139.5,119.5C 139.821,117.952 140.821,117.285 142.5,117.5 Z"/></g>
<g><path style="opacity:1" fill="#c0c0c0" d="M 367.5,115.5 C 366.147,117.738 364.147,119.071 361.5,119.5C 363.034,117.631 365.034,116.298 367.5,115.5 Z"/></g>
<g><path style="opacity:1" fill="#6a849c" d="M 100.5,120.5 C 102.027,120.427 103.027,121.094 103.5,122.5C 101.973,122.573 100.973,121.906 100.5,120.5 Z"/></g>
<g><path style="opacity:1" fill="#a8b7c6" d="M 139.5,119.5 C 138.514,121.408 136.848,122.408 134.5,122.5C 135.659,120.75 137.326,119.75 139.5,119.5 Z"/></g>
<g><path style="opacity:1" fill="#a8a8a8" d="M 361.5,119.5 C 361.334,125.176 361.501,130.843 362,136.5C 366.885,138.871 371.551,141.538 376,144.5C 377.138,144.011 378.305,143.678 379.5,143.5C 377.989,145.441 375.989,145.941 373.5,145C 369.25,142.626 365.084,140.126 361,137.5C 360.181,131.319 360.347,125.319 361.5,119.5 Z"/></g>
<g><path style="opacity:1" fill="#8096aa" d="M 103.5,122.5 C 105.027,122.427 106.027,123.094 106.5,124.5C 104.973,124.573 103.973,123.906 103.5,122.5 Z"/></g>
<g><path style="opacity:1" fill="#e1b994" d="M 311.5,123.5 C 310.329,124.345 308.995,125.011 307.5,125.5C 308.183,123.824 309.517,123.157 311.5,123.5 Z"/></g>
<g><path style="opacity:1" fill="#c9d2db" d="M 134.5,122.5 C 132.874,125.622 130.208,127.288 126.5,127.5C 128.484,124.836 131.151,123.169 134.5,122.5 Z"/></g>
<g><path style="opacity:1" fill="#93a6b8" d="M 123.5,128.5 C 123.027,129.906 122.027,130.573 120.5,130.5C 120.973,129.094 121.973,128.427 123.5,128.5 Z"/></g>
<g><path style="opacity:1" fill="#f1dfcf" d="M 307.5,125.5 C 305.49,127.493 303.157,129.16 300.5,130.5C 298.97,130.36 297.97,129.693 297.5,128.5C 298.265,128.923 299.098,129.257 300,129.5C 302.147,127.522 304.647,126.189 307.5,125.5 Z"/></g>
<g><path style="opacity:1" fill="#8a9eb1" d="M 115.5,129.5 C 117.117,130.038 118.784,130.371 120.5,130.5C 118.545,131.93 116.879,131.597 115.5,129.5 Z"/></g>
<g><path style="opacity:1" fill="#4d6b88" d="M 190.5,133.5 C 193.313,133.025 195.313,134.025 196.5,136.5C 194.456,135.492 192.456,134.492 190.5,133.5 Z"/></g>
<g><path style="opacity:1" fill="#e0b792" d="M 337.5,136.5 C 335.435,136.517 333.435,136.85 331.5,137.5C 332.134,136.053 333.301,135.387 335,135.5C 336.07,135.528 336.903,135.861 337.5,136.5 Z"/></g>
<g><path style="opacity:1" fill="#eed6c2" d="M 337.5,136.5 C 340.71,136.87 343.377,138.203 345.5,140.5C 342.279,140.104 339.612,138.771 337.5,136.5 Z"/></g>
<g><path style="opacity:1" fill="#647e98" d="M 198.5,137.5 C 200.027,137.427 201.027,138.094 201.5,139.5C 199.973,139.573 198.973,138.906 198.5,137.5 Z"/></g>
<g><path style="opacity:1" fill="#778fa5" d="M 243.5,139.5 C 242.209,139.263 241.209,139.596 240.5,140.5C 239.833,140.5 239.167,140.5 238.5,140.5C 239.879,138.403 241.545,138.07 243.5,139.5 Z"/></g>
<g><path style="opacity:1" fill="#c5cfd9" d="M 240.5,140.5 C 241.209,139.596 242.209,139.263 243.5,139.5C 245.61,140.95 246.943,142.95 247.5,145.5C 245.469,143.478 243.135,141.811 240.5,140.5 Z"/></g>
<g><path style="opacity:1" fill="#c47634" d="M 337.5,136.5 C 339.612,138.771 342.279,140.104 345.5,140.5C 345.783,141.289 346.283,141.956 347,142.5C 347.499,147.155 347.666,151.821 347.5,156.5C 345.973,156.427 344.973,157.094 344.5,158.5C 342.326,158.75 340.659,159.75 339.5,161.5C 337.565,162.15 335.565,162.483 333.5,162.5C 332.29,162.068 331.29,161.401 330.5,160.5C 330.027,159.094 329.027,158.427 327.5,158.5C 326.508,158.672 325.842,158.338 325.5,157.5C 324.167,152.167 324.167,146.833 325.5,141.5C 327.769,140.563 329.769,139.23 331.5,137.5C 333.435,136.85 335.435,136.517 337.5,136.5 Z"/></g>
<g><path style="opacity:1" fill="#e1ba97" d="M 157.5,142.5 C 155.784,142.629 154.117,142.962 152.5,143.5C 153.879,141.403 155.545,141.07 157.5,142.5 Z"/></g>
<g><path style="opacity:1" fill="#8399ac" d="M 238.5,140.5 C 237.341,142.25 235.674,143.25 233.5,143.5C 234.659,141.75 236.326,140.75 238.5,140.5 Z"/></g>
<g><path style="opacity:1" fill="#edd7c3" d="M 157.5,142.5 C 160.639,142.599 162.973,143.932 164.5,146.5C 161.669,145.921 159.336,144.588 157.5,142.5 Z"/></g>
<g><path style="opacity:1" fill="#cccccc" d="M 385.5,140.5 C 383.967,142.245 381.967,143.245 379.5,143.5C 381.033,141.755 383.033,140.755 385.5,140.5 Z"/></g>
<g><path style="opacity:1" fill="#d9a77c" d="M 325.5,141.5 C 324.167,146.833 324.167,152.167 325.5,157.5C 324.504,157.586 323.671,157.252 323,156.5C 322.333,151.833 322.333,147.167 323,142.5C 323.671,141.748 324.504,141.414 325.5,141.5 Z"/></g>
<g><path style="opacity:1" fill="#e8ccb4" d="M 345.5,140.5 C 346.496,140.414 347.329,140.748 348,141.5C 348.816,146.684 348.65,151.684 347.5,156.5C 347.666,151.821 347.499,147.155 347,142.5C 346.283,141.956 345.783,141.289 345.5,140.5 Z"/></g>
<g><path style="opacity:1" fill="#8c9fb2" d="M 233.5,143.5 C 232.341,145.25 230.674,146.25 228.5,146.5C 229.659,144.75 231.326,143.75 233.5,143.5 Z"/></g>
<g><path style="opacity:1" fill="#c47633" d="M 157.5,142.5 C 159.336,144.588 161.669,145.921 164.5,146.5C 164.973,147.906 165.973,148.573 167.5,148.5C 168.671,149.345 170.005,150.011 171.5,150.5C 171.783,151.289 172.283,151.956 173,152.5C 173.667,159.167 173.667,165.833 173,172.5C 170.383,173.219 168.216,174.553 166.5,176.5C 164.326,176.75 162.659,177.75 161.5,179.5C 160.167,179.833 158.833,180.167 157.5,180.5C 155.833,180.5 154.167,180.5 152.5,180.5C 151.833,180.167 151.167,179.833 150.5,179.5C 150.027,178.094 149.027,177.427 147.5,177.5C 144.314,176.491 141.481,174.824 139,172.5C 138.5,165.508 138.334,158.508 138.5,151.5C 140.514,151.608 142.18,150.942 143.5,149.5C 147.326,148.581 150.326,146.581 152.5,143.5C 154.117,142.962 155.784,142.629 157.5,142.5 Z"/></g>
<g><path style="opacity:1" fill="#d9d9d9" d="M 74.5,140.5 C 70.2617,143.966 65.5951,146.966 60.5,149.5C 58.7015,150.788 57.0348,150.788 55.5,149.5C 61.9214,146.662 68.2547,143.662 74.5,140.5 Z"/></g>
<g><path style="opacity:1" fill="#e1bd9a" d="M 164.5,146.5 C 166.027,146.427 167.027,147.094 167.5,148.5C 165.973,148.573 164.973,147.906 164.5,146.5 Z"/></g>
<g><path style="opacity:1" fill="#95a7b7" d="M 218.5,149.5 C 216.126,148.314 213.792,148.314 211.5,149.5C 211.418,147.748 212.251,146.748 214,146.5C 215.981,146.899 217.481,147.899 218.5,149.5 Z"/></g>
<g><path style="opacity:1" fill="#d1935d" d="M 152.5,143.5 C 150.326,146.581 147.326,148.581 143.5,149.5C 143.833,148.833 144.167,148.167 144.5,147.5C 146.883,145.642 149.55,144.308 152.5,143.5 Z"/></g>
<g><path style="opacity:1" fill="#a8b6c4" d="M 228.5,146.5 C 227.514,148.408 225.848,149.408 223.5,149.5C 224.659,147.75 226.326,146.75 228.5,146.5 Z"/></g>
<g><path style="opacity:1" fill="#c47734" d="M 34.5,149.5 C 40.977,150.716 46.8104,153.383 52,157.5C 52.7876,163.582 52.621,169.582 51.5,175.5C 50.391,175.557 49.391,175.89 48.5,176.5C 46.368,176.554 45.0347,177.554 44.5,179.5C 41.722,179.806 39.222,180.806 37,182.5C 34.8077,182.137 32.9744,181.137 31.5,179.5C 31.0269,178.094 30.0269,177.427 28.5,177.5C 27.5084,177.672 26.8417,177.338 26.5,176.5C 26.1788,174.952 25.1788,174.285 23.5,174.5C 23.3339,168.824 23.5006,163.157 24,157.5C 24.7172,156.956 25.2172,156.289 25.5,155.5C 28.1473,155.071 30.1473,153.738 31.5,151.5C 32.2905,150.599 33.2905,149.932 34.5,149.5 Z"/></g>
<g><path style="opacity:1" fill="#deb38c" d="M 144.5,147.5 C 144.167,148.167 143.833,148.833 143.5,149.5C 142.18,150.942 140.514,151.608 138.5,151.5C 140.223,149.782 142.223,148.449 144.5,147.5 Z"/></g>
<g><path style="opacity:1" fill="#deb088" d="M 31.5,151.5 C 30.1473,153.738 28.1473,155.071 25.5,155.5C 27.0337,153.631 29.0337,152.298 31.5,151.5 Z"/></g>
<g><path style="opacity:1" fill="#c0cad4" d="M 96.5,156.5 C 94.2362,155.781 91.9029,155.448 89.5,155.5C 91.9325,153.002 94.2658,153.335 96.5,156.5 Z"/></g>
<g><path style="opacity:1" fill="#e6c7ac" d="M 171.5,150.5 C 172.496,150.414 173.329,150.748 174,151.5C 174.667,158.833 174.667,166.167 174,173.5C 171.692,174.991 169.192,175.991 166.5,176.5C 168.216,174.553 170.383,173.219 173,172.5C 173.667,165.833 173.667,159.167 173,152.5C 172.283,151.956 171.783,151.289 171.5,150.5 Z"/></g>
<g><path style="opacity:1" fill="#b1bfcb" d="M 211.5,149.5 C 211.408,151.848 210.408,153.514 208.5,154.5C 208.75,152.326 209.75,150.659 211.5,149.5 Z"/></g>
<g><path style="opacity:1" fill="#899db1" d="M 205.5,147.5 C 203.97,151.246 201.97,154.58 199.5,157.5C 200.498,153.495 202.498,150.161 205.5,147.5 Z"/></g>
<g><path style="opacity:1" fill="#d09157" d="M 25.5,155.5 C 25.2172,156.289 24.7172,156.956 24,157.5C 23.5006,163.157 23.3339,168.824 23.5,174.5C 25.1788,174.285 26.1788,174.952 26.5,176.5C 25.4168,176.461 24.4168,176.127 23.5,175.5C 22.3361,169.193 22.1694,162.859 23,156.5C 23.6708,155.748 24.5041,155.414 25.5,155.5 Z"/></g>
<g><path style="opacity:1" fill="#8da0b2" d="M 89.5,155.5 C 88.1727,157.182 86.5061,158.515 84.5,159.5C 83.8333,159.5 83.1667,159.5 82.5,159.5C 84.3356,157.412 86.6689,156.079 89.5,155.5 Z"/></g>
<g><path style="opacity:1" fill="#a8b5c3" d="M 96.5,156.5 C 98.0269,156.427 99.0269,157.094 99.5,158.5C 97.9731,158.573 96.9731,157.906 96.5,156.5 Z"/></g>
<g><path style="opacity:1" fill="#e5c3a7" d="M 347.5,156.5 C 347.027,157.906 346.027,158.573 344.5,158.5C 344.973,157.094 345.973,156.427 347.5,156.5 Z"/></g>
<g><path style="opacity:1" fill="#a7b5c3" d="M 207.5,155.5 C 207.843,157.483 207.176,158.817 205.5,159.5C 205.66,157.847 206.326,156.514 207.5,155.5 Z"/></g>
<g><path style="opacity:1" fill="#8da1b4" d="M 99.5,158.5 C 101.027,158.427 102.027,159.094 102.5,160.5C 100.973,160.573 99.9731,159.906 99.5,158.5 Z"/></g>
<g><path style="opacity:1" fill="#8ea2b5" d="M 199.5,158.5 C 199.068,159.71 198.401,160.71 197.5,161.5C 197.285,159.821 197.952,158.821 199.5,158.5 Z"/></g>
<g><path style="opacity:1" fill="#67819b" d="M 292.5,157.5 C 291.313,159.975 289.313,160.975 286.5,160.5C 288.456,159.508 290.456,158.508 292.5,157.5 Z"/></g>
<g><path style="opacity:1" fill="#93a5b8" d="M 297.5,158.5 C 299.027,158.427 300.027,159.094 300.5,160.5C 298.973,160.573 297.973,159.906 297.5,158.5 Z"/></g>
<g><path style="opacity:1" fill="#d8a577" d="M 327.5,158.5 C 329.027,158.427 330.027,159.094 330.5,160.5C 328.973,160.573 327.973,159.906 327.5,158.5 Z"/></g>
<g><path style="opacity:1" fill="#b8c3cf" d="M 300.5,160.5 C 303.71,160.87 306.377,162.203 308.5,164.5C 305.279,164.104 302.612,162.771 300.5,160.5 Z"/></g>
<g><path style="opacity:1" fill="#eaceb6" d="M 344.5,158.5 C 343.514,160.408 341.848,161.408 339.5,161.5C 340.659,159.75 342.326,158.75 344.5,158.5 Z"/></g>
<g><path style="opacity:1" fill="#516d8b" d="M 82.5,159.5 C 83.1667,159.5 83.8333,159.5 84.5,159.5C 82.3877,161.771 79.721,163.104 76.5,163.5C 77.8021,161.178 79.8021,159.845 82.5,159.5 Z"/></g>
<g><path style="opacity:1" fill="#8197ab" d="M 205.5,159.5 C 205.25,161.674 204.25,163.341 202.5,164.5C 202.75,162.326 203.75,160.659 205.5,159.5 Z"/></g>
<g><path style="opacity:1" fill="#96a8ba" d="M 286.5,160.5 C 286.027,161.906 285.027,162.573 283.5,162.5C 283.973,161.094 284.973,160.427 286.5,160.5 Z"/></g>
<g><path style="opacity:1" fill="#ebd0b8" d="M 339.5,161.5 C 339.03,162.693 338.03,163.36 336.5,163.5C 335.274,163.48 334.274,163.147 333.5,162.5C 335.565,162.483 337.565,162.15 339.5,161.5 Z"/></g>
<g><path style="opacity:1" fill="#839aae" d="M 382.5,163.5 C 380.708,163.366 379.042,163.699 377.5,164.5C 377.791,163.351 378.624,162.684 380,162.5C 381.07,162.528 381.903,162.861 382.5,163.5 Z"/></g>
<g><path style="opacity:1" fill="#c3cdd6" d="M 106.5,162.5 C 109.812,162.149 112.145,163.482 113.5,166.5C 110.9,165.532 108.566,164.199 106.5,162.5 Z"/></g>
<g><path style="opacity:1" fill="#bac5d1" d="M 382.5,163.5 C 385.313,163.025 387.313,164.025 388.5,166.5C 386.456,165.492 384.456,164.492 382.5,163.5 Z"/></g>
<g><path style="opacity:1" fill="#eedac7" d="M 51.5,175.5 C 52.621,169.582 52.7876,163.582 52,157.5C 46.8104,153.383 40.977,150.716 34.5,149.5C 35.6591,147.623 37.3258,147.123 39.5,148C 44.2529,150.458 48.7529,153.292 53,156.5C 53.1667,159.667 53.3333,162.833 53.5,166C 53.4848,169.576 52.8182,172.742 51.5,175.5 Z"/></g>
<g><path style="opacity:1" fill="#a9b8c6" d="M 196.5,162.5 C 196.573,164.027 195.906,165.027 194.5,165.5C 194.427,163.973 195.094,162.973 196.5,162.5 Z"/></g>
<g><path style="opacity:1" fill="#738aa1" d="M 74.5,164.5 C 73.2318,166.047 71.5652,167.047 69.5,167.5C 70.4856,165.592 72.1523,164.592 74.5,164.5 Z"/></g>
<g><path style="opacity:1" fill="#859aae" d="M 283.5,162.5 C 281.252,165.393 278.252,167.06 274.5,167.5C 277.22,165.473 280.22,163.807 283.5,162.5 Z"/></g>
<g><path style="opacity:1" fill="#c2ccd6" d="M 308.5,164.5 C 312.653,165.356 315.986,167.356 318.5,170.5C 315.731,169.563 313.064,168.396 310.5,167C 309.619,166.292 308.953,165.458 308.5,164.5 Z"/></g>
<g><path style="opacity:1" fill="#6c849d" d="M 376.5,164.5 C 376.5,165.833 375.833,166.5 374.5,166.5C 374.5,165.167 375.167,164.5 376.5,164.5 Z"/></g>
<g><path style="opacity:1" fill="#b2bfcb" d="M 270.5,164.5 C 272.03,165.211 273.363,166.211 274.5,167.5C 274.103,168.525 273.437,168.692 272.5,168C 271.695,166.887 271.028,165.721 270.5,164.5 Z"/></g>
<g><path style="opacity:1" fill="#c2cdd7" d="M 388.5,166.5 C 390.989,166.241 392.656,167.241 393.5,169.5C 391.566,168.89 389.899,167.89 388.5,166.5 Z"/></g>
<g><path style="opacity:1" fill="#95a7b9" d="M 202.5,164.5 C 202.408,166.848 201.408,168.514 199.5,169.5C 199.75,167.326 200.75,165.659 202.5,164.5 Z"/></g>
<g><path style="opacity:1" fill="#90a3b6" d="M 367.5,169.5 C 365.516,172.164 362.849,173.831 359.5,174.5C 361.822,172.336 364.489,170.669 367.5,169.5 Z"/></g>
<g><path style="opacity:1" fill="#667f97" d="M 114.5,167.5 C 115.329,175.657 115.829,183.99 116,192.5C 116.717,193.044 117.217,193.711 117.5,194.5C 116.504,194.586 115.671,194.252 115,193.5C 114.5,184.84 114.334,176.173 114.5,167.5 Z"/></g>
<g><path style="opacity:1" fill="#728ba2" d="M 199.5,170.5 C 199.068,171.71 198.401,172.71 197.5,173.5C 197.285,171.821 197.952,170.821 199.5,170.5 Z"/></g>
<g><path style="opacity:1" fill="#97aabb" d="M 318.5,170.5 C 320.027,170.427 321.027,171.094 321.5,172.5C 319.973,172.573 318.973,171.906 318.5,170.5 Z"/></g>
<g><path style="opacity:1" fill="#a8b7c6" d="M 397.5,171.5 C 399.027,171.427 400.027,172.094 400.5,173.5C 398.973,173.573 397.973,172.906 397.5,171.5 Z"/></g>
<g><path style="opacity:1" fill="#5e7995" d="M 193.5,169.5 C 193.201,171.455 192.201,172.789 190.5,173.5C 190.554,171.368 191.554,170.035 193.5,169.5 Z"/></g>
<g><path style="opacity:1" fill="#5f7c96" d="M 196.5,174.5 C 196.443,175.609 196.11,176.609 195.5,177.5C 195.167,177.5 194.833,177.5 194.5,177.5C 194.427,175.973 195.094,174.973 196.5,174.5 Z"/></g>
<g><path style="opacity:1" fill="#e3e7ec" d="M 263.5,173.5 C 262.167,186.167 262.167,198.833 263.5,211.5C 262.17,205.537 261.504,199.204 261.5,192.5C 261.504,185.796 262.17,179.463 263.5,173.5 Z"/></g>
<g><path style="opacity:1" fill="#e6c5a7" d="M 48.5,176.5 C 47.7886,178.201 46.4553,179.201 44.5,179.5C 45.0347,177.554 46.368,176.554 48.5,176.5 Z"/></g>
<g><path style="opacity:1" fill="#e3c09f" d="M 166.5,176.5 C 165.341,178.25 163.674,179.25 161.5,179.5C 162.659,177.75 164.326,176.75 166.5,176.5 Z"/></g>
<g><path style="opacity:1" fill="#8899ad" d="M 323.5,173.5 C 324.117,173.611 324.617,173.944 325,174.5C 325.499,178.486 325.666,182.486 325.5,186.5C 324.717,182.307 324.051,177.973 323.5,173.5 Z"/></g>
<g><path style="opacity:1" fill="#d8a679" d="M 28.5,177.5 C 30.0269,177.427 31.0269,178.094 31.5,179.5C 29.9731,179.573 28.9731,178.906 28.5,177.5 Z"/></g>
<g><path style="opacity:1" fill="#d8a77a" d="M 147.5,177.5 C 149.027,177.427 150.027,178.094 150.5,179.5C 148.973,179.573 147.973,178.906 147.5,177.5 Z"/></g>
<g><path style="opacity:1" fill="#a9b7c5" d="M 194.5,177.5 C 194.833,177.5 195.167,177.5 195.5,177.5C 195.573,179.027 194.906,180.027 193.5,180.5C 193.557,179.391 193.89,178.391 194.5,177.5 Z"/></g>
<g><path style="opacity:1" fill="#a0afbe" d="M 400.5,173.5 C 402.117,174.038 403.784,174.371 405.5,174.5C 406.14,184.558 405.473,194.225 403.5,203.5C 403.832,194.143 403.498,184.81 402.5,175.5C 401.478,175.145 400.811,174.478 400.5,173.5 Z"/></g>
<g><path style="opacity:1" fill="#d29762" d="M 152.5,180.5 C 154.167,180.5 155.833,180.5 157.5,180.5C 156.084,182.851 154.417,182.851 152.5,180.5 Z"/></g>
<g><path style="opacity:1" fill="#93a5b7" d="M 190.5,173.5 C 189.617,176.704 187.95,179.371 185.5,181.5C 186.383,178.296 188.05,175.629 190.5,173.5 Z"/></g>
<g><path style="opacity:1" fill="#bfbfbf" d="M 220.5,181.5 C 217.721,181.279 215.054,181.612 212.5,182.5C 214.792,179.181 217.459,178.847 220.5,181.5 Z"/></g>
<g><path style="opacity:1" fill="#919191" d="M 220.5,181.5 C 223.494,184 226.827,186 230.5,187.5C 231.688,188.364 232.855,189.364 234,190.5C 234.5,197.158 234.666,203.825 234.5,210.5C 231.35,211.302 228.683,212.968 226.5,215.5C 223.116,216.068 220.116,217.402 217.5,219.5C 216.151,219.154 214.817,218.821 213.5,218.5C 209.061,216.446 204.728,214.113 200.5,211.5C 199.336,204.524 199.169,197.524 200,190.5C 200.915,189.672 201.581,188.672 202,187.5C 205.853,186.287 209.353,184.621 212.5,182.5C 215.054,181.612 217.721,181.279 220.5,181.5 Z"/></g>
<g><path style="opacity:1" fill="#53708c" d="M 265.5,168.5 C 269.273,170.49 269.273,172.49 265.5,174.5C 264.334,186.486 264.167,198.486 265,210.5C 265.717,211.044 266.217,211.711 266.5,212.5C 265.391,212.443 264.391,212.11 263.5,211.5C 262.167,198.833 262.167,186.167 263.5,173.5C 266.323,172.615 266.99,170.948 265.5,168.5 Z"/></g>
<g><path style="opacity:1" fill="#a9b7c5" d="M 193.5,180.5 C 193.408,182.848 192.408,184.514 190.5,185.5C 190.75,183.326 191.75,181.659 193.5,180.5 Z"/></g>
<g><path style="opacity:1" fill="#879db0" d="M 359.5,174.5 C 357.642,178.527 356.975,182.86 357.5,187.5C 346.654,187.828 335.987,187.494 325.5,186.5C 335.833,186.5 346.167,186.5 356.5,186.5C 356.335,182.818 356.501,179.152 357,175.5C 357.671,174.748 358.504,174.414 359.5,174.5 Z"/></g>
<g><path style="opacity:1" fill="#91a3b7" d="M 183.5,185.5 C 183.573,187.027 182.906,188.027 181.5,188.5C 181.427,186.973 182.094,185.973 183.5,185.5 Z"/></g>
<g><path style="opacity:1" fill="#9faebf" d="M 190.5,185.5 C 190.408,187.848 189.408,189.514 187.5,190.5C 187.75,188.326 188.75,186.659 190.5,185.5 Z"/></g>
<g><path style="opacity:1" fill="#d2d2d2" d="M 230.5,187.5 C 232.451,187.227 233.951,187.893 235,189.5C 235.821,196.679 235.655,203.679 234.5,210.5C 234.666,203.825 234.5,197.158 234,190.5C 232.855,189.364 231.688,188.364 230.5,187.5 Z"/></g>
<g><path style="opacity:1" fill="#778ea4" d="M 181.5,189.5 C 181.201,191.455 180.201,192.789 178.5,193.5C 178.799,191.545 179.799,190.211 181.5,189.5 Z"/></g>
<g><path style="opacity:1" fill="#54708d" d="M 343.5,192.5 C 347.981,191.352 352.648,191.185 357.5,192C 358.456,195.394 358.789,198.894 358.5,202.5C 357.833,199.5 357.167,196.5 356.5,193.5C 352.366,192.515 348.032,192.182 343.5,192.5 Z"/></g>
<g><path style="opacity:1" fill="#a6b4c3" d="M 356.5,193.5 C 357.167,196.5 357.833,199.5 358.5,202.5C 358.5,202.833 358.5,203.167 358.5,203.5C 356.598,200.663 355.931,197.329 356.5,193.5 Z"/></g>
<g><path style="opacity:1" fill="#738ba2" d="M 69.5,194.5 C 71.5652,194.953 73.2318,195.953 74.5,197.5C 72.1523,197.408 70.4856,196.408 69.5,194.5 Z"/></g>
<g><path style="opacity:1" fill="#99aabb" d="M 187.5,190.5 C 187.275,193.546 185.942,195.879 183.5,197.5C 184.468,194.9 185.801,192.566 187.5,190.5 Z"/></g>
<g><path style="opacity:1" fill="#5d7a94" d="M 76.5,198.5 C 78.0269,198.427 79.0269,199.094 79.5,200.5C 77.9731,200.573 76.9731,199.906 76.5,198.5 Z"/></g>
<g><path style="opacity:1" fill="#a0b1c1" d="M 124.5,198.5 C 126.027,198.427 127.027,199.094 127.5,200.5C 125.973,200.573 124.973,199.906 124.5,198.5 Z"/></g>
<g><path style="opacity:1" fill="#778ea4" d="M 159.5,200.5 C 156.904,199.735 154.237,199.401 151.5,199.5C 151.5,199.167 151.5,198.833 151.5,198.5C 154.62,197.317 157.287,197.984 159.5,200.5 Z"/></g>
<g><path style="opacity:1" fill="#889cae" d="M 343.5,192.5 C 337.69,193.49 331.69,193.823 325.5,193.5C 325.822,199.358 325.489,205.025 324.5,210.5C 324.5,204.5 324.5,198.5 324.5,192.5C 330.833,192.5 337.167,192.5 343.5,192.5 Z"/></g>
<g><path style="opacity:1" fill="#849aad" d="M 107.5,198.5 C 107.027,199.906 106.027,200.573 104.5,200.5C 104.973,199.094 105.973,198.427 107.5,198.5 Z"/></g>
<g><path style="opacity:1" fill="#aebdc8" d="M 151.5,198.5 C 151.5,198.833 151.5,199.167 151.5,199.5C 150.609,200.11 149.609,200.443 148.5,200.5C 148.973,199.094 149.973,198.427 151.5,198.5 Z"/></g>
<g><path style="opacity:1" fill="#8a9fb1" d="M 104.5,200.5 C 103.341,202.25 101.674,203.25 99.5,203.5C 100.659,201.75 102.326,200.75 104.5,200.5 Z"/></g>
<g><path style="opacity:1" fill="#a0afbf" d="M 127.5,200.5 C 129.027,200.427 130.027,201.094 130.5,202.5C 128.973,202.573 127.973,201.906 127.5,200.5 Z"/></g>
<g><path style="opacity:1" fill="#91a4b5" d="M 159.5,200.5 C 161.027,200.427 162.027,201.094 162.5,202.5C 160.973,202.573 159.973,201.906 159.5,200.5 Z"/></g>
<g><path style="opacity:1" fill="#6d869e" d="M 81.5,201.5 C 83.0269,201.427 84.0269,202.094 84.5,203.5C 82.9731,203.573 81.9731,202.906 81.5,201.5 Z"/></g>
<g><path style="opacity:1" fill="#a3b3c2" d="M 146.5,201.5 C 146.027,202.906 145.027,203.573 143.5,203.5C 143.973,202.094 144.973,201.427 146.5,201.5 Z"/></g>
<g><path style="opacity:1" fill="#607a96" d="M 175.5,200.5 C 175.446,202.632 174.446,203.965 172.5,204.5C 172.554,202.368 173.554,201.035 175.5,200.5 Z"/></g>
<g><path style="opacity:1" fill="#96a8b9" d="M 181.5,201.5 C 181.25,203.674 180.25,205.341 178.5,206.5C 178.75,204.326 179.75,202.659 181.5,201.5 Z"/></g>
<g><path style="opacity:1" fill="#dfe4e9" d="M 343.5,192.5 C 348.032,192.182 352.366,192.515 356.5,193.5C 346.509,194.055 336.509,194.388 326.5,194.5C 326.829,200.206 326.495,205.872 325.5,211.5C 324.583,212.127 323.583,212.461 322.5,212.5C 322.833,211.5 323.5,210.833 324.5,210.5C 325.489,205.025 325.822,199.358 325.5,193.5C 331.69,193.823 337.69,193.49 343.5,192.5 Z"/></g>
<g><path style="opacity:1" fill="#a2b2c2" d="M 99.5,203.5 C 98.5144,205.408 96.8477,206.408 94.5,206.5C 95.6594,204.75 97.326,203.75 99.5,203.5 Z"/></g>
<g><path style="opacity:1" fill="#afbcca" d="M 133.5,204.5 C 136.167,205.833 138.833,205.833 141.5,204.5C 138.833,208.5 136.167,208.5 133.5,204.5 Z"/></g>
<g><path style="opacity:1" fill="#94a6b8" d="M 166.5,204.5 C 168.027,204.427 169.027,205.094 169.5,206.5C 167.973,206.573 166.973,205.906 166.5,204.5 Z"/></g>
<g><path style="opacity:1" fill="#b1beca" d="M 89.5,206.5 C 91.1667,207.833 92.8333,207.833 94.5,206.5C 92.7044,209.048 91.0378,209.048 89.5,206.5 Z"/></g>
<g><path style="opacity:1" fill="#9cadbe" d="M 400.5,204.5 C 398.797,207.632 396.13,209.299 392.5,209.5C 395.12,207.838 397.787,206.172 400.5,204.5 Z"/></g>
<g><path style="opacity:1" fill="#919191" d="M 56.5,212.5 C 56.6659,217.511 56.4993,222.511 56,227.5C 54.1222,228.053 52.6222,229.053 51.5,230.5C 47.9,233.709 43.9,234.209 39.5,232C 37.2528,230.723 35.2528,229.223 33.5,227.5C 33.5,222.5 33.5,217.5 33.5,212.5C 37.2281,210.415 41.0614,208.415 45,206.5C 48.5108,209.192 52.3441,211.192 56.5,212.5 Z"/></g>
<g><path style="opacity:1" fill="#718ba2" d="M 178.5,206.5 C 177.877,217.296 177.21,227.963 176.5,238.5C 176.334,228.161 176.5,217.828 177,207.5C 177.383,206.944 177.883,206.611 178.5,206.5 Z"/></g>
<g><path style="opacity:1" fill="#657f98" d="M 371.5,210.5 C 373.027,210.427 374.027,211.094 374.5,212.5C 372.973,212.573 371.973,211.906 371.5,210.5 Z"/></g>
<g><path style="opacity:1" fill="#94a6b8" d="M 392.5,209.5 C 391.514,211.408 389.848,212.408 387.5,212.5C 388.659,210.75 390.326,209.75 392.5,209.5 Z"/></g>
<g><path style="opacity:1" fill="#658199" d="M 385.5,213.5 C 384.71,214.401 383.71,215.068 382.5,215.5C 382.821,213.952 383.821,213.285 385.5,213.5 Z"/></g>
<g><path style="opacity:1" fill="#bababa" d="M 33.5,212.5 C 33.5,217.5 33.5,222.5 33.5,227.5C 32.1914,225.429 31.5248,222.929 31.5,220C 31.5248,217.071 32.1914,214.571 33.5,212.5 Z"/></g>
<g><path style="opacity:1" fill="#d3d3d3" d="M 56.5,212.5 C 57.6507,217.65 57.8174,222.984 57,228.5C 55.2745,229.464 53.4412,230.131 51.5,230.5C 52.6222,229.053 54.1222,228.053 56,227.5C 56.4993,222.511 56.6659,217.511 56.5,212.5 Z"/></g>
<g><path style="opacity:1" fill="#8298ac" d="M 266.5,212.5 C 268.674,212.75 270.341,213.75 271.5,215.5C 269.152,215.408 267.486,214.408 266.5,212.5 Z"/></g>
<g><path style="opacity:1" fill="#99a9bb" d="M 321.5,212.5 C 320.514,214.408 318.848,215.408 316.5,215.5C 317.659,213.75 319.326,212.75 321.5,212.5 Z"/></g>
<g><path style="opacity:1" fill="#768ea7" d="M 376.5,213.5 C 378.027,213.427 379.027,214.094 379.5,215.5C 377.973,215.573 376.973,214.906 376.5,213.5 Z"/></g>
<g><path style="opacity:1" fill="#55728f" d="M 271.5,215.5 C 275.284,215.889 278.284,217.556 280.5,220.5C 280.167,220.5 279.833,220.5 279.5,220.5C 276.755,218.825 274.088,217.158 271.5,215.5 Z"/></g>
<g><path style="opacity:1" fill="#a1b0c0" d="M 316.5,215.5 C 315.514,217.408 313.848,218.408 311.5,218.5C 312.659,216.75 314.326,215.75 316.5,215.5 Z"/></g>
<g><path style="opacity:1" fill="#d4d4d4" d="M 226.5,215.5 C 224.526,216.906 222.526,218.406 220.5,220C 218.5,220.667 216.5,220.667 214.5,220C 213.944,219.617 213.611,219.117 213.5,218.5C 214.817,218.821 216.151,219.154 217.5,219.5C 220.116,217.402 223.116,216.068 226.5,215.5 Z"/></g>
<g><path style="opacity:1" fill="#c7d0da" d="M 279.5,220.5 C 279.833,220.5 280.167,220.5 280.5,220.5C 282.076,221.143 283.41,222.143 284.5,223.5C 281.966,223.741 280.3,222.741 279.5,220.5 Z"/></g>
<g><path style="opacity:1" fill="#c4ced7" d="M 311.5,218.5 C 310.191,221.451 307.857,222.784 304.5,222.5C 306.336,220.412 308.669,219.079 311.5,218.5 Z"/></g>
<g><path style="opacity:1" fill="#e0e5ea" d="M 127.5,208.5 C 128.391,209.11 129.391,209.443 130.5,209.5C 130.194,219.25 130.527,228.916 131.5,238.5C 130.074,228.704 128.741,218.704 127.5,208.5 Z"/></g>
<g><path style="opacity:1" fill="#728aa2" d="M 304.5,222.5 C 303.71,223.401 302.71,224.068 301.5,224.5C 301.821,222.952 302.821,222.285 304.5,222.5 Z"/></g>
<g><path style="opacity:1" fill="#efdbc8" d="M 337.5,225.5 C 340.402,223.885 342.735,224.551 344.5,227.5C 342.442,226.067 340.108,225.4 337.5,225.5 Z"/></g>
<g><path style="opacity:1" fill="#748ca3" d="M 287.5,224.5 C 289.027,224.427 290.027,225.094 290.5,226.5C 288.973,226.573 287.973,225.906 287.5,224.5 Z"/></g>
<g><path style="opacity:1" fill="#4e6b89" d="M 130.5,209.5 C 131.117,209.611 131.617,209.944 132,210.5C 132.333,219.5 132.667,228.5 133,237.5C 134.518,238.163 135.685,239.163 136.5,240.5C 134.716,240.107 133.05,239.441 131.5,238.5C 130.527,228.916 130.194,219.25 130.5,209.5 Z"/></g>
<g><path style="opacity:1" fill="#d8a476" d="M 97.5,228.5 C 95.4214,228.971 93.4214,229.637 91.5,230.5C 91.4701,229.503 91.9701,228.836 93,228.5C 94.6773,227.392 96.1773,227.392 97.5,228.5 Z"/></g>
<g><path style="opacity:1" fill="#b9c4d0" d="M 301.5,224.5 C 299.265,226.435 296.765,228.101 294,229.5C 292.97,229.164 292.47,228.497 292.5,227.5C 295.549,226.694 298.549,225.694 301.5,224.5 Z"/></g>
<g><path style="opacity:1" fill="#deb289" d="M 337.5,225.5 C 334.867,228.111 331.867,230.278 328.5,232C 326.846,232.608 325.179,233.108 323.5,233.5C 327.549,229.912 332.216,227.245 337.5,225.5 Z"/></g>
<g><path style="opacity:1" fill="#e4c2a3" d="M 344.5,227.5 C 346.027,227.427 347.027,228.094 347.5,229.5C 345.973,229.573 344.973,228.906 344.5,227.5 Z"/></g>
<g><path style="opacity:1" fill="#eed7c3" d="M 98.5,228.5 C 99.8734,228.343 101.207,228.51 102.5,229C 105.194,231.258 107.861,233.424 110.5,235.5C 105.976,233.957 101.976,231.623 98.5,228.5 Z"/></g>
<g><path style="opacity:1" fill="#c47734" d="M 337.5,225.5 C 340.108,225.4 342.442,226.067 344.5,227.5C 344.973,228.906 345.973,229.573 347.5,229.5C 348.514,230.674 349.847,231.34 351.5,231.5C 351.973,232.906 352.973,233.573 354.5,233.5C 355.209,234.404 356.209,234.737 357.5,234.5C 357.825,241.687 357.491,248.687 356.5,255.5C 354.973,255.427 353.973,256.094 353.5,257.5C 351.326,257.75 349.659,258.75 348.5,260.5C 346.326,260.75 344.659,261.75 343.5,263.5C 343.167,263.5 342.833,263.5 342.5,263.5C 340.167,264.833 337.833,264.833 335.5,263.5C 331.164,261.668 327.164,259.335 323.5,256.5C 322.538,249.588 322.205,242.588 322.5,235.5C 322.5,235.167 322.5,234.833 322.5,234.5C 322.5,233.833 322.833,233.5 323.5,233.5C 325.179,233.108 326.846,232.608 328.5,232C 331.867,230.278 334.867,228.111 337.5,225.5 Z"/></g>
<g><path style="opacity:1" fill="#e7c8ab" d="M 351.5,231.5 C 353.027,231.427 354.027,232.094 354.5,233.5C 352.973,233.573 351.973,232.906 351.5,231.5 Z"/></g>
<g><path style="opacity:1" fill="#e2bb98" d="M 88.5,231.5 C 86.2515,234.393 83.2515,236.06 79.5,236.5C 82.2201,234.473 85.2201,232.807 88.5,231.5 Z"/></g>
<g><path style="opacity:1" fill="#e8cdb6" d="M 322.5,234.5 C 322.5,234.833 322.5,235.167 322.5,235.5C 321.509,241.979 321.176,248.646 321.5,255.5C 320.835,252.183 320.501,248.683 320.5,245C 320.512,241.098 321.179,237.598 322.5,234.5 Z"/></g>
<g><path style="opacity:1" fill="#d29867" d="M 322.5,235.5 C 322.205,242.588 322.538,249.588 323.5,256.5C 322.508,256.672 321.842,256.338 321.5,255.5C 321.176,248.646 321.509,241.979 322.5,235.5 Z"/></g>
<g><path style="opacity:1" fill="#e7c9ae" d="M 268.5,241.5 C 266.118,239.954 263.451,239.287 260.5,239.5C 263.637,237.02 266.304,237.687 268.5,241.5 Z"/></g>
<g><path style="opacity:1" fill="#e5c6aa" d="M 79.5,236.5 C 78.5733,243.443 78.24,250.443 78.5,257.5C 77.346,251.013 77.1794,244.346 78,237.5C 78.3826,236.944 78.8826,236.611 79.5,236.5 Z"/></g>
<g><path style="opacity:1" fill="#e0b992" d="M 113.5,238.5 C 114.491,245.313 114.825,252.313 114.5,259.5C 113.041,259.433 111.708,259.766 110.5,260.5C 110.821,258.952 111.821,258.285 113.5,258.5C 113.5,251.833 113.5,245.167 113.5,238.5 Z"/></g>
<g><path style="opacity:1" fill="#5e7c96" d="M 136.5,240.5 C 138.027,240.427 139.027,241.094 139.5,242.5C 137.973,242.573 136.973,241.906 136.5,240.5 Z"/></g>
<g><path style="opacity:1" fill="#c57835" d="M 260.5,239.5 C 263.451,239.287 266.118,239.954 268.5,241.5C 270.456,242.492 272.456,243.492 274.5,244.5C 275.833,249.833 275.833,255.167 274.5,260.5C 274.167,260.5 273.833,260.5 273.5,260.5C 271.326,260.75 269.659,261.75 268.5,263.5C 266.321,263.84 264.488,264.84 263,266.5C 262.617,265.944 262.117,265.611 261.5,265.5C 259.566,264.89 257.899,263.89 256.5,262.5C 256.027,261.094 255.027,260.427 253.5,260.5C 252.551,255.26 252.218,249.927 252.5,244.5C 254.933,244.727 256.599,243.727 257.5,241.5C 258.29,240.599 259.29,239.932 260.5,239.5 Z"/></g>
<g><path style="opacity:1" fill="#c6d0d9" d="M 176.5,238.5 C 175.191,241.451 172.857,242.784 169.5,242.5C 171.336,240.412 173.669,239.079 176.5,238.5 Z"/></g>
<g><path style="opacity:1" fill="#eed9c7" d="M 268.5,241.5 C 271.313,241.025 273.313,242.025 274.5,244.5C 272.456,243.492 270.456,242.492 268.5,241.5 Z"/></g>
<g><path style="opacity:1" fill="#dadada" d="M 295.5,242.5 C 296.946,241.387 298.613,241.22 300.5,242C 303.266,243.371 305.599,245.204 307.5,247.5C 303.479,245.821 299.479,244.154 295.5,242.5 Z"/></g>
<g><path style="opacity:1" fill="#7088a0" d="M 141.5,243.5 C 143.027,243.427 144.027,244.094 144.5,245.5C 142.973,245.573 141.973,244.906 141.5,243.5 Z"/></g>
<g><path style="opacity:1" fill="#859aae" d="M 169.5,242.5 C 168.232,244.047 166.565,245.047 164.5,245.5C 164.167,245.5 163.833,245.5 163.5,245.5C 165.033,243.755 167.033,242.755 169.5,242.5 Z"/></g>
<g><path style="opacity:1" fill="#939393" d="M 295.5,242.5 C 299.479,244.154 303.479,245.821 307.5,247.5C 308.209,248.404 309.209,248.737 310.5,248.5C 310.5,253.5 310.5,258.5 310.5,263.5C 307.679,263.545 305.346,264.545 303.5,266.5C 301.516,267.156 299.516,267.822 297.5,268.5C 295.293,266.486 292.627,265.486 289.5,265.5C 287.983,265.489 286.816,264.823 286,263.5C 285.501,258.511 285.334,253.511 285.5,248.5C 286.552,248.649 287.552,248.483 288.5,248C 289.881,244.769 292.214,242.935 295.5,242.5 Z"/></g>
<g><path style="opacity:1" fill="#6e879e" d="M 161.5,246.5 C 161.027,247.906 160.027,248.573 158.5,248.5C 158.973,247.094 159.973,246.427 161.5,246.5 Z"/></g>
<g><path style="opacity:1" fill="#ecd7c4" d="M 274.5,244.5 C 275.812,246.743 276.478,249.41 276.5,252.5C 276.478,255.59 275.812,258.257 274.5,260.5C 275.833,255.167 275.833,249.833 274.5,244.5 Z"/></g>
<g><path style="opacity:1" fill="#c47634" d="M 97.5,228.5 C 97.8333,228.5 98.1667,228.5 98.5,228.5C 101.976,231.623 105.976,233.957 110.5,235.5C 111.694,236.272 112.694,237.272 113.5,238.5C 113.5,245.167 113.5,251.833 113.5,258.5C 111.821,258.285 110.821,258.952 110.5,260.5C 109.391,260.557 108.391,260.89 107.5,261.5C 104.787,263.172 102.12,264.838 99.5,266.5C 96.5684,267.847 93.9017,267.514 91.5,265.5C 91.0269,264.094 90.0269,263.427 88.5,263.5C 86.2163,263.025 84.2163,262.025 82.5,260.5C 82.0269,259.094 81.0269,258.427 79.5,258.5C 78.8333,258.5 78.5,258.167 78.5,257.5C 78.24,250.443 78.5733,243.443 79.5,236.5C 83.2515,236.06 86.2515,234.393 88.5,231.5C 89.209,230.596 90.209,230.263 91.5,230.5C 93.4214,229.637 95.4214,228.971 97.5,228.5 Z"/></g>
<g><path style="opacity:1" fill="#d0d8e0" d="M 163.5,245.5 C 163.833,245.5 164.167,245.5 164.5,245.5C 162.139,249.018 158.805,251.018 154.5,251.5C 154.833,250.833 155.167,250.167 155.5,249.5C 156.609,249.443 157.609,249.11 158.5,248.5C 160.027,248.573 161.027,247.906 161.5,246.5C 162.167,246.167 162.833,245.833 163.5,245.5 Z"/></g>
<g><path style="opacity:1" fill="#d39966" d="M 257.5,241.5 C 256.599,243.727 254.933,244.727 252.5,244.5C 252.218,249.927 252.551,255.26 253.5,260.5C 252.504,260.586 251.671,260.252 251,259.5C 250.333,254.833 250.333,250.167 251,245.5C 252.885,243.705 255.052,242.372 257.5,241.5 Z"/></g>
<g><path style="opacity:1" fill="#919191" d="M 215.5,255.5 C 217.782,261.979 218.116,268.645 216.5,275.5C 212.385,277.392 208.385,279.558 204.5,282C 201.861,282.588 199.527,282.088 197.5,280.5C 195.103,277.945 192.27,275.945 189,274.5C 188.501,268.843 188.334,263.176 188.5,257.5C 188.937,255.926 189.937,254.759 191.5,254C 195.246,252.587 198.913,251.087 202.5,249.5C 206.824,251.484 211.158,253.484 215.5,255.5 Z"/></g>
<g><path style="opacity:1" fill="#7d93a9" d="M 155.5,249.5 C 155.167,250.167 154.833,250.833 154.5,251.5C 153.532,253.607 153.198,255.941 153.5,258.5C 153.167,258.5 152.833,258.5 152.5,258.5C 152.336,255.813 152.503,253.146 153,250.5C 153.671,249.748 154.504,249.414 155.5,249.5 Z"/></g>
<g><path style="opacity:1" fill="#e3c09f" d="M 356.5,255.5 C 356.027,256.906 355.027,257.573 353.5,257.5C 353.973,256.094 354.973,255.427 356.5,255.5 Z"/></g>
<g><path style="opacity:1" fill="#b4b4b4" d="M 188.5,257.5 C 188.334,263.176 188.501,268.843 189,274.5C 192.27,275.945 195.103,277.945 197.5,280.5C 194.222,279.059 191.056,277.392 188,275.5C 187.181,269.319 187.347,263.319 188.5,257.5 Z"/></g>
<g><path style="opacity:1" fill="#e1e1e1" d="M 215.5,255.5 C 216.583,255.539 217.583,255.873 218.5,256.5C 219.664,262.472 219.83,268.472 219,274.5C 218.329,275.252 217.496,275.586 216.5,275.5C 218.116,268.645 217.782,261.979 215.5,255.5 Z"/></g>
<g><path style="opacity:1" fill="#d9a67a" d="M 79.5,258.5 C 81.0269,258.427 82.0269,259.094 82.5,260.5C 80.9731,260.573 79.9731,259.906 79.5,258.5 Z"/></g>
<g><path style="opacity:1" fill="#e8ccb3" d="M 353.5,257.5 C 352.514,259.408 350.848,260.408 348.5,260.5C 349.659,258.75 351.326,257.75 353.5,257.5 Z"/></g>
<g><path style="opacity:1" fill="#5a7591" d="M 146.5,247.5 C 147.855,254.389 147.688,261.389 146,268.5C 145.329,269.252 144.496,269.586 143.5,269.5C 143.833,268.833 144.167,268.167 144.5,267.5C 146.126,261.072 146.793,254.405 146.5,247.5 Z"/></g>
<g><path style="opacity:1" fill="#daa678" d="M 253.5,260.5 C 255.027,260.427 256.027,261.094 256.5,262.5C 254.973,262.573 253.973,261.906 253.5,260.5 Z"/></g>
<g><path style="opacity:1" fill="#e4c1a1" d="M 273.5,260.5 C 272.514,262.408 270.848,263.408 268.5,263.5C 269.659,261.75 271.326,260.75 273.5,260.5 Z"/></g>
<g><path style="opacity:1" fill="#ebd1bc" d="M 348.5,260.5 C 347.514,262.408 345.848,263.408 343.5,263.5C 344.659,261.75 346.326,260.75 348.5,260.5 Z"/></g>
<g><path style="opacity:1" fill="#d7a374" d="M 88.5,263.5 C 90.0269,263.427 91.0269,264.094 91.5,265.5C 91.1667,265.5 90.8333,265.5 90.5,265.5C 89.5,265.167 88.8333,264.5 88.5,263.5 Z"/></g>
<g><path style="opacity:1" fill="#e9cbb1" d="M 107.5,261.5 C 105.797,264.632 103.13,266.299 99.5,266.5C 102.12,264.838 104.787,263.172 107.5,261.5 Z"/></g>
<g><path style="opacity:1" fill="#e6c5a9" d="M 335.5,263.5 C 337.833,264.833 340.167,264.833 342.5,263.5C 342.03,264.693 341.03,265.36 339.5,265.5C 337.645,265.66 336.312,264.993 335.5,263.5 Z"/></g>
<g><path style="opacity:1" fill="#eacfb7" d="M 268.5,263.5 C 267.124,265.271 265.291,266.605 263,267.5C 261.97,267.164 261.47,266.497 261.5,265.5C 262.117,265.611 262.617,265.944 263,266.5C 264.488,264.84 266.321,263.84 268.5,263.5 Z"/></g>
<g><path style="opacity:1" fill="#b1b1b1" d="M 289.5,265.5 C 292.627,265.486 295.293,266.486 297.5,268.5C 299.516,267.822 301.516,267.156 303.5,266.5C 302.23,268.611 300.23,269.611 297.5,269.5C 294.546,268.69 291.879,267.356 289.5,265.5 Z"/></g>
<g><path style="opacity:1" fill="#c9d2db" d="M 152.5,258.5 C 152.833,258.5 153.167,258.5 153.5,258.5C 153.759,262.24 153.426,265.906 152.5,269.5C 153.993,270.141 154.993,271.141 155.5,272.5C 154.417,272.461 153.417,272.127 152.5,271.5C 151.189,267.016 151.189,262.683 152.5,258.5 Z"/></g>
<g><path style="opacity:1" fill="#edd4be" d="M 90.5,265.5 C 90.8333,265.5 91.1667,265.5 91.5,265.5C 93.9017,267.514 96.5684,267.847 99.5,266.5C 97.3165,268.856 94.6499,269.189 91.5,267.5C 90.7025,267.043 90.3691,266.376 90.5,265.5 Z"/></g>
<g><path style="opacity:1" fill="#acbac7" d="M 144.5,267.5 C 144.167,268.167 143.833,268.833 143.5,269.5C 142.167,269.833 140.833,270.167 139.5,270.5C 140.659,268.75 142.326,267.75 144.5,267.5 Z"/></g>
<g><path style="opacity:1" fill="#a2b1c1" d="M 139.5,270.5 C 138.341,272.25 136.674,273.25 134.5,273.5C 135.659,271.75 137.326,270.75 139.5,270.5 Z"/></g>
<g><path style="opacity:1" fill="#9eafbf" d="M 134.5,273.5 C 133.713,275.104 132.38,275.771 130.5,275.5C 131.514,274.326 132.847,273.66 134.5,273.5 Z"/></g>
<g><path style="opacity:1" fill="#abb9c7" d="M 157.5,273.5 C 159.027,273.427 160.027,274.094 160.5,275.5C 158.973,275.573 157.973,274.906 157.5,273.5 Z"/></g>
<g><path style="opacity:1" fill="#7f95ab" d="M 160.5,275.5 C 162.027,275.427 163.027,276.094 163.5,277.5C 161.821,277.715 160.821,277.048 160.5,275.5 Z"/></g>
<g><path style="opacity:1" fill="#506d8a" d="M 130.5,276.5 C 129.372,283.42 129.205,290.42 130,297.5C 130.717,298.044 131.217,298.711 131.5,299.5C 129.983,299.489 128.816,298.823 128,297.5C 127.333,290.833 127.333,284.167 128,277.5C 128.671,276.748 129.504,276.414 130.5,276.5 Z"/></g>
<g><path style="opacity:1" fill="#b0bcca" d="M 163.5,298.5 C 161.388,300.771 158.721,302.104 155.5,302.5C 157.612,300.229 160.279,298.896 163.5,298.5 Z"/></g>
<g><path style="opacity:1" fill="#6d879f" d="M 138.5,303.5 C 140.027,303.427 141.027,304.094 141.5,305.5C 139.973,305.573 138.973,304.906 138.5,303.5 Z"/></g>
<g><path style="opacity:1" fill="#a1b0c0" d="M 155.5,302.5 C 154.514,304.408 152.848,305.408 150.5,305.5C 151.659,303.75 153.326,302.75 155.5,302.5 Z"/></g>
<g><path style="opacity:1" fill="#91a3b5" d="M 150.5,305.5 C 148.365,308.68 146.032,309.014 143.5,306.5C 145.903,306.552 148.236,306.219 150.5,305.5 Z"/></g>
<g><path style="opacity:1" fill="#c57836" d="M 126.5,314.5 C 126.973,315.906 127.973,316.573 129.5,316.5C 131.435,317.81 133.435,319.143 135.5,320.5C 136.814,325.652 136.814,330.652 135.5,335.5C 133.326,335.75 131.659,336.75 130.5,338.5C 128.289,339.037 126.289,340.037 124.5,341.5C 122.199,341.016 120.199,340.016 118.5,338.5C 118.027,337.094 117.027,336.427 115.5,336.5C 114.504,336.586 113.671,336.252 113,335.5C 112.184,330.316 112.35,325.316 113.5,320.5C 116.147,320.071 118.147,318.738 119.5,316.5C 121.438,314.837 123.772,314.171 126.5,314.5 Z"/></g>
<g><path style="opacity:1" fill="#e7c8ab" d="M 126.5,314.5 C 128.027,314.427 129.027,315.094 129.5,316.5C 127.973,316.573 126.973,315.906 126.5,314.5 Z"/></g>
<g><path style="opacity:1" fill="#d9a678" d="M 119.5,316.5 C 118.147,318.738 116.147,320.071 113.5,320.5C 115.034,318.631 117.034,317.298 119.5,316.5 Z"/></g>
<g><path style="opacity:1" fill="#d7a677" d="M 115.5,336.5 C 117.027,336.427 118.027,337.094 118.5,338.5C 116.973,338.573 115.973,337.906 115.5,336.5 Z"/></g>
<g><path style="opacity:1" fill="#e5c2a4" d="M 135.5,335.5 C 134.514,337.408 132.848,338.408 130.5,338.5C 131.659,336.75 133.326,335.75 135.5,335.5 Z"/></g>
</svg>
