<svg xmlns="http://www.w3.org/2000/svg" width="97" height="95" style="shape-rendering:geometricPrecision;text-rendering:geometricPrecision;image-rendering:optimizeQuality;fill-rule:evenodd;clip-rule:evenodd"><path style="opacity:.194" fill="#010201" d="M18.5-.5h7a77.814 77.814 0 0 1 12.5 7C45.25 2.069 52.083 2.569 58.5 8c3 .667 6 .667 9 0a64.45 64.45 0 0 1 18-7.5c5.054 1.003 8.72 3.67 11 8v8c-1.38 2.886-3.38 5.386-6 7.5A183.839 183.839 0 0 0 80 31.5 102.1 102.1 0 0 0 71.5 47c.115 1.895.781 3.562 2 5A422.822 422.822 0 0 1 90 62.5c6.082 11.688 2.748 18.354-10 20-7.319-.573-14.152-2.74-20.5-6.5-2-.667-4-.667-6 0-4.655 8.494-11.321 14.66-20 18.5h-7C11.603 89.054 5.77 78.388 9 62.5c-8.682-6.488-10.848-14.821-6.5-25-.84-3.835-1.84-7.502-3-11v-8c2.631-9.965 8.965-16.298 19-19zm24 34c1.256-.039 2.256.461 3 1.5-1.015 3.573-2.682 6.74-5 9.5-1.387-4.012-.72-7.679 2-11z"/><path style="opacity:1" fill="#fefffe" d="M19.5 5.5c-10.205-.13-14.872 4.87-14 15-2.759-7.324-.426-12.49 7-15.5 2.539-.796 4.872-.63 7 .5z"/><path style="opacity:1" fill="#5acf54" d="M19.5 5.5c9.36 4.257 11.86 10.923 7.5 20a17.834 17.834 0 0 1-5.5 4.5l1.5 1.5c.678 11.6.178 23.1-1.5 34.5a18.492 18.492 0 0 1 2 3.5c.06.543.393.876 1 1a909.878 909.878 0 0 1 23.5-28c.483-.948.65-1.948.5-3 2.564-3.468 4.064-7.468 4.5-12 1.552-1.466 3.386-2.466 5.5-3 1.13-1.575 1.297-3.241.5-5-.67-.752-1.504-1.086-2.5-1a52.405 52.405 0 0 0-8.5 2c-2.15-.983-3.983-2.316-5.5-4 0-2-1-3-3-3v-1c-.116-3.41 1.55-4.744 5-4 .617.11 1.117.444 1.5 1 .186 2.536.686 4.869 1.5 7 .06.543.393.876 1 1 3.457-.594 6.457-1.927 9-4h1c1.014 1.265 2.514 1.931 4.5 2l4.5-1c2.448-4.052 6.115-6.219 11-6.5.566-.995 1.233-1.828 2-2.5 1.832.64 2.165 1.64 1 3a66.245 66.245 0 0 0-16 11l-2 6a137.66 137.66 0 0 0-9.5 13c-.16 9.344 4.007 16.011 12.5 20 .548 2.584 2.215 3.584 5 3 0 .667.333 1 1 1 1.068.934 2.401 1.268 4 1-.067 1.459.266 2.792 1 4a82.781 82.781 0 0 1-15-4c.086-.996-.248-1.83-1-2.5a15.022 15.022 0 0 0-8-2.5c-1.688-1.887-3.688-3.053-6-3.5l-19 23c-6.815 1.427-11.482-1.073-14-7.5a1266.9 1266.9 0 0 0 1.5-27c-.399.228-.565.562-.5 1-3.518 2.5-6.85 2.5-10 0a8.434 8.434 0 0 1 .5-4 28.829 28.829 0 0 0 6-4c.78-1.887.613-3.554-.5-5a46.139 46.139 0 0 0-5.5-6c-.494-1.634-.66-3.3-.5-5-.872-10.13 3.795-15.13 14-15zm23 28c-2.72 3.321-3.387 6.988-2 11 2.318-2.76 3.985-5.927 5-9.5-.744-1.039-1.744-1.539-3-1.5z"/><path style="opacity:1" fill="#f7f7f7" d="M44.5 8.5c-3.45-.744-5.116.59-5 4-1.3-1.384-1.3-2.884 0-4.5 1.887-.78 3.554-.613 5 .5z"/><path style="opacity:.89" fill="#b8c3b7" d="M80.5 5.5c-.767.672-1.434 1.505-2 2.5-4.885.281-8.552 2.448-11 6.5l-4.5 1c-1.986-.069-3.486-.735-4.5-2 1.932 1.153 3.932 1.153 6 0a98.864 98.864 0 0 1 14.5-9c.765.07 1.265.403 1.5 1z"/><path style="opacity:.444" fill="#0a0c0a" d="M21.5 14.5c2.57 7.048.236 10.715-7 11-4.28-3.043-5.114-7.043-2.5-12 3.447-2.747 6.614-2.413 9.5 1z"/><path style="opacity:1" fill="#fafafa" d="M57.5 13.5c-2.543 2.073-5.543 3.406-9 4-.607-.124-.94-.457-1-1a24.238 24.238 0 0 0 9.5-4c.399.228.565.562.5 1z"/><path style="opacity:.808" fill="#8cab8a" d="M39.5 13.5c2 0 3 1 3 3a6.541 6.541 0 0 1-3-3z"/><path style="opacity:.839" fill="#ced6ce" d="M21.5 14.5c.617.11 1.117.444 1.5 1 .817 3.464.483 6.798-1 10-2.605 1.314-5.105 1.314-7.5 0 7.236-.285 9.57-3.952 7-11z"/><path style="opacity:1" fill="#bfccbe" d="M56.5 18.5c.996-.086 1.83.248 2.5 1 .797 1.759.63 3.425-.5 5-2.114.534-3.948 1.534-5.5 3-.436 4.532-1.936 8.532-4.5 12 0-.667-.333-1-1-1a110.341 110.341 0 0 0 4.5-12c2.2-1.335 4.033-3.002 5.5-5a10.028 10.028 0 0 0-1-3z"/><path style="opacity:1" fill="#fefffe" d="M11.5 31.5c1.113 1.446 1.28 3.113.5 5a28.829 28.829 0 0 1-6 4 8.434 8.434 0 0 0-.5 4c-1.113-1.446-1.28-3.113-.5-5 4.261-1.084 6.428-3.75 6.5-8z"/><path style="opacity:1" fill="#fefefe" d="M47.5 38.5c.667 0 1 .333 1 1a4.932 4.932 0 0 1-.5 3 909.878 909.878 0 0 0-23.5 28c-.607-.124-.94-.457-1-1a229.426 229.426 0 0 1 20.5-24c1.88-2.027 3.046-4.36 3.5-7z"/><path style="opacity:1" fill="#fefffe" d="M14.5 70.5c-.728-8.55-.395-17.216 1-26-.065-.438.101-.772.5-1a1266.9 1266.9 0 0 1-1.5 27z"/><path style="opacity:.792" fill="#638c60" d="M53.5 58.5c2.907.075 5.573.909 8 2.5.752.67 1.086 1.504 1 2.5a74.66 74.66 0 0 1-9-5z"/><path style="opacity:.871" fill="#8bb188" d="M66.5 58.5a29.512 29.512 0 0 0 5 3c-2.785.584-4.452-.416-5-3z"/><path style="opacity:.741" fill="#7ca079" d="M72.5 62.5h5c.597 1.898.597 3.565 0 5-.734-1.208-1.067-2.541-1-4-1.599.268-2.932-.066-4-1z"/></svg>