<svg xmlns="http://www.w3.org/2000/svg" width="138" height="133" style="shape-rendering:geometricPrecision;text-rendering:geometricPrecision;image-rendering:optimizeQuality;fill-rule:evenodd;clip-rule:evenodd"><path style="opacity:.956" fill="#39413b" d="M62.5 8.5c2.309.488 4.309 1.488 6 3 .172.992-.162 1.658-1 2-2.82-3.26-6.154-3.76-10-1.5-4.294 2.953-6.96 6.953-8 12a25.755 25.755 0 0 1 3.5 7.5c3.93-3.588 6.597-7.921 8-13 .816-1.323 1.983-1.99 3.5-2-2.35 1.713-3.35 4.047-3 7-.838.342-1.172 1.008-1 2a967.145 967.145 0 0 1-7.5 7 34.585 34.585 0 0 0-5.5-6c.943-1.501.61-2.835-1-4a58.501 58.501 0 0 0-9-5c-.952 1.545-1.285 3.212-1 5-1.617-1.09-2.45-2.756-2.5-5-.002 2.551-.836 4.551-2.5 6v-6a24.939 24.939 0 0 0-7 .5c2.579 1.076 4.246 2.909 5 5.5-2.216-.703-4.049-2.036-5.5-4a25.214 25.214 0 0 0-2.5 8c-1.105 1.1-2.438 1.767-4 2a40.946 40.946 0 0 1-7 5c-.667 0-1-.333-1-1-.275-2.342-1.108-2.342-2.5 0-.837 1.85-1.67 3.684-2.5 5.5a2.428 2.428 0 0 0 2 .5v1l-2 4a5.728 5.728 0 0 1-3 1 79.123 79.123 0 0 1 4.5-14L19.5 18c13.604-6.38 27.937-9.546 43-9.5z"/><path style="opacity:.816" fill="#3380c1" d="M67.5 13.5v2a5.728 5.728 0 0 0-3 1c-1.517.01-2.684.677-3.5 2-1.403 5.079-4.07 9.412-8 13a25.755 25.755 0 0 0-3.5-7.5c1.04-5.047 3.706-9.047 8-12 3.846-2.26 7.18-1.76 10 1.5z"/><path style="opacity:.816" fill="#327ebe" d="M47.5 19.5c.203-1.544.87-2.878 2-4a14.974 14.974 0 0 0-3-3.5 16.25 16.25 0 0 1 8 0c-2.018 2.934-4.352 5.434-7 7.5z"/><path style="opacity:.408" fill="#969032" d="M67.5 15.5v-2c.838-.342 1.172-1.008 1-2 .797-.978 1.464-.645 2 1-.688 1.355-1.688 2.355-3 3z"/><path style="opacity:.816" fill="#3280c1" d="M43.5 15.5c-3.346 1.173-6.68 1.007-10-.5 3.491-1.791 7.158-2.458 11-2-.752.67-1.086 1.504-1 2.5z"/><path style="opacity:.435" fill="#928c32" d="M47.5 19.5c-.06.543-.393.876-1 1a15.653 15.653 0 0 0-4-2.5c.752-.67 1.086-1.504 1-2.5 3.638-1.378 4.305-.711 2 2 .355 1.022 1.022 1.689 2 2z"/><path style="opacity:.816" fill="#327fbf" d="M89.5 15.5c6.645-.594 12.312 1.406 17 6-.825.886-1.825 1.219-3 1a34.514 34.514 0 0 1-13-4l-2-2c.124-.607.457-.94 1-1z"/><path style="opacity:.816" fill="#3281c3" d="M31.5 23.5h-2c-.754-2.591-2.421-4.424-5-5.5a24.939 24.939 0 0 1 7-.5v6z"/><path style="opacity:.435" fill="#9b9432" d="M67.5 15.5a34.314 34.314 0 0 0-6 8c-.35-2.953.65-5.287 3-7a5.728 5.728 0 0 1 3-1z"/><path style="opacity:.816" fill="#327fbf" d="M46.5 22.5a8.434 8.434 0 0 1-.5 4c-2.325-2.51-5.159-3.844-8.5-4h-1c-.285-1.788.048-3.455 1-5a58.501 58.501 0 0 1 9 5zM17.5 29.5c-1.739.934-3.405.934-5 0 1.58-4.412 4.413-7.745 8.5-10 .363 3.885-.803 7.218-3.5 10z"/><path style="opacity:.434" fill="#9c9432" d="M36.5 22.5h1v1c1.923.295 3.59 1.128 5 2.5a45.785 45.785 0 0 1-9 2.5 39.367 39.367 0 0 0-11 4.5 132.906 132.906 0 0 0-10 8.5c-.06.543-.393.876-1 1a16.869 16.869 0 0 1-1-8 40.946 40.946 0 0 0 7-5c1.562-.233 2.895-.9 4-2a25.214 25.214 0 0 1 2.5-8c1.451 1.964 3.284 3.297 5.5 4h2c1.664-1.449 2.498-3.449 2.5-6 .05 2.244.883 3.91 2.5 5z"/><path style="opacity:.929" fill="#343f3d" d="M37.5 23.5v3c-10.4.179-10.4-.821 0-3z"/><path style="opacity:.434" fill="#9d9532" d="M88.5 14.5c-9.073 4.79-13.573 12.457-13.5 23a24.36 24.36 0 0 1-2.5-5.5 74.58 74.58 0 0 0-12-2c1.393-1.363 3.06-2.196 5-2.5 3.408 1.815 6.074 1.149 8-2 1.517-.01 2.684-.677 3.5-2a42.549 42.549 0 0 0 3.5-8 6.845 6.845 0 0 1 4-1c1.461-1.186 2.795-1.186 4 0z"/><path style="opacity:.435" fill="#9c9532" d="M102.5 24.5c1.322.17 2.489-.163 3.5-1 1.729.474 2.895 1.474 3.5 3a66.817 66.817 0 0 1-16.5-3 3.943 3.943 0 0 0-2 1c-.881 5.56-4.048 8.06-9.5 7.5a359.351 359.351 0 0 0 8-8c-.653-2.653-2.32-4.32-5-5 2.503-.874 4.503-.207 6 2a103.895 103.895 0 0 0 12 3.5z"/><path style="opacity:.816" fill="#3280c2" d="M108.5 28.5a38.921 38.921 0 0 1 14 9c-7.799-.664-15.466-2.83-23-6.5a7.253 7.253 0 0 1-2-2.5c3.71-1.258 7.377-1.258 11 0z"/><path style="opacity:.978" fill="#434839" d="M77.5 10.5c.235-.597.735-.93 1.5-1 7.851 2.174 15.685 4.34 23.5 6.5a142.375 142.375 0 0 0 22 21.5h-2a38.921 38.921 0 0 0-14-9l1-2c-.605-1.526-1.771-2.526-3.5-3-1.011.837-2.178 1.17-3.5 1l1-2c1.175.219 2.175-.114 3-1-4.688-4.594-10.355-6.594-17-6 0-.667-.333-1-1-1-1.205-1.186-2.539-1.186-4 0 .086-.996-.248-1.83-1-2.5a31.956 31.956 0 0 1-6-1.5z"/><path style="opacity:.98" fill="#384138" d="M21.5 27.5c1.855-.228 2.688.439 2.5 2-3.123 1.598-3.956.931-2.5-2z"/><path style="opacity:.816" fill="#337bb8" d="M9.5 33.5c-1.508 1.681-2.508 3.681-3 6a2.428 2.428 0 0 1-2-.5c.83-1.816 1.663-3.65 2.5-5.5 1.392-2.342 2.225-2.342 2.5 0z"/><path style="opacity:.973" fill="#37413d" d="M62.5 8.5c.235-.597.735-.93 1.5-1a41.281 41.281 0 0 0 13.5 3 31.956 31.956 0 0 0 6 1.5c.752.67 1.086 1.504 1 2.5a6.845 6.845 0 0 0-4 1 42.549 42.549 0 0 1-3.5 8c-.816 1.323-1.983 1.99-3.5 2-1.926 3.149-4.592 3.815-8 2-1.94.304-3.607 1.137-5 2.5a74.58 74.58 0 0 1 12 2 24.36 24.36 0 0 0 2.5 5.5c-.073-10.543 4.427-18.21 13.5-23 .667 0 1 .333 1 1-.543.06-.876.393-1 1l2 2a34.514 34.514 0 0 0 13 4l-1 2a103.895 103.895 0 0 1-12-3.5c-1.497-2.207-3.497-2.874-6-2 2.68.68 4.347 2.347 5 5a359.351 359.351 0 0 1-8 8c5.452.56 8.619-1.94 9.5-7.5a3.943 3.943 0 0 1 2-1 66.817 66.817 0 0 0 16.5 3l-1 2c-3.623-1.258-7.29-1.258-11 0a7.253 7.253 0 0 0 2 2.5c7.534 3.67 15.201 5.836 23 6.5h2l1 2h-4a49.895 49.895 0 0 0-10-1.5 36.747 36.747 0 0 1 7 10.5c-.838.342-1.172 1.008-1 2-1.022-2.861-2.522-5.528-4.5-8a4.458 4.458 0 0 0-1.5 2c2.298 3.488 2.631 7.155 1 11v1c-1.266-2.194-1.266-4.528 0-7a43.3 43.3 0 0 0-3-5.5c.259-1.261.926-2.261 2-3a147.513 147.513 0 0 0-21-3.5c-.65 1.684-1.65 3.017-3 4-1.634 3.238-.634 5.405 3 6.5-.916.278-1.582.778-2 1.5h9c.61.891.943 1.891 1 3-4.06-2.734-8.06-2.568-12 .5l4 1a76.108 76.108 0 0 1-17-.5c-8.966-1.144-17.632.19-26 4l-8 3c.963-.864.963-1.53 0-2a16.066 16.066 0 0 1-5 2c.453-.958 1.12-1.792 2-2.5 2.215-.17 4.215-.837 6-2l-4-1 8-1c-5.2-.283-5.867-1.783-2-4.5-.82-1.611-2.154-2.278-4-2-1.93-4.045-.93-7.212 3-9.5-2.645-3.487-5.979-5.987-10-7.5v-2a45.785 45.785 0 0 0 9-2.5c-1.41-1.372-3.077-2.205-5-2.5v-1c3.341.156 6.175 1.49 8.5 4a8.434 8.434 0 0 0 .5-4c1.61 1.165 1.943 2.499 1 4 .861 5.365 4.028 8.698 9.5 10l1 6a92.47 92.47 0 0 1 2.5-17c-.172-.992.162-1.658 1-2a34.314 34.314 0 0 1 6-8c1.312-.645 2.312-1.645 3-3-.536-1.645-1.203-1.978-2-1-1.691-1.512-3.691-2.512-6-3z"/><path style="opacity:.816" fill="#3280c0" d="M87.5 41.5c-3.939 2.014-3.939 4.18 0 6.5-8.825.49-11.325-3.344-7.5-11.5 9.243-5.356 18.41-5.19 27.5.5a53.357 53.357 0 0 1-17-.5c-2.585.573-3.585 2.24-3 5z"/><path style="opacity:.816" fill="#3280c2" d="M62.5 31.5c2.716.178 5.383.678 8 1.5a9.468 9.468 0 0 1 1.5 2.5 124.641 124.641 0 0 1-2.5 16h-7a38.64 38.64 0 0 1-2-12.5c.131-2.777.798-5.277 2-7.5z"/><path style="opacity:.816" fill="#3281c2" d="M46.5 31.5c2.211 3.364 5.378 5.364 9.5 6a48.34 48.34 0 0 0 2.5 12c0 2-1 3-3 3a24.846 24.846 0 0 0-8-1c-1.93-6.617-2.263-13.283-1-20z"/><path style="opacity:.816" fill="#337dba" d="M41.5 28.5h4a18.398 18.398 0 0 1-2 7 20.53 20.53 0 0 0-7-5.5c1.882-.198 3.548-.698 5-1.5z"/><path style="opacity:.424" fill="#a29a32" d="M93.5 28.5c1.256-.039 2.256.461 3 1.5-1.667.667-3.333.667-5 0 .916-.278 1.582-.778 2-1.5z"/><path style="opacity:.435" fill="#999232" d="M60.5 25.5a92.47 92.47 0 0 0-2.5 17l-1-6c-5.472-1.302-8.639-4.635-9.5-10a34.585 34.585 0 0 1 5.5 6 967.145 967.145 0 0 0 7.5-7z"/><path style="opacity:.816" fill="#3281c3" d="M81.5 20.5c2.858.095 5.19 1.262 7 3.5A39.33 39.33 0 0 0 78 34.5c-.57-5.119.596-9.785 3.5-14zM73.5 25.5c-1.544.203-2.878.87-4 2a7.253 7.253 0 0 1-2.5-2c-1.494 1.247-2.994 1.247-4.5 0 2.422-5.256 6.089-9.422 11-12.5 3-.667 6-.667 9 0-4.1.775-5.934 3.275-5.5 7.5a27.258 27.258 0 0 1-3.5 5z"/><path style="opacity:.435" fill="#9e9532" d="M112.5 56.5c1.529-.527 2.862.14 4 2-1.924.067-3.924.4-6 1a5.575 5.575 0 0 0-1 3c-1.688 5.481-5.355 7.315-11 5.5a38.715 38.715 0 0 0 5-2.5c.667 0 1-.333 1-1 2.581-2.108 2.581-4.274 0-6.5 5.254-3.212 5.921-7.045 2-11.5a48.195 48.195 0 0 0-2.5 5l-2.5-2.5c2.634-2.293 2.634-4.46 0-6.5-.812-1.493-2.145-2.16-4-2-5.184.269-5.85 1.769-2 4.5l-5 1c2.945.139 5.279 1.306 7 3.5h-9c.418-.722 1.084-1.222 2-1.5-3.634-1.095-4.634-3.262-3-6.5 1.35-.983 2.35-2.316 3-4a147.513 147.513 0 0 1 21 3.5c-1.074.739-1.741 1.739-2 3a43.3 43.3 0 0 1 3 5.5c-1.266 2.472-1.266 4.806 0 7z"/><path style="opacity:.816" fill="#3379b3" d="m4.5 44.5 2-4c2.318-2.51 3.151-1.843 2.5 2-1.415 1.819-2.915 2.485-4.5 2z"/><path style="opacity:.851" fill="#374849" d="M12.5 41.5c-.543-.06-.876-.393-1-1 .764-4.602 3.264-7.935 7.5-10 .315 1.408-.018 2.741-1 4a1107.431 1107.431 0 0 1-5.5 7z"/><path style="opacity:.976" fill="#36413d" d="M33.5 28.5v2c-.086.996.248 1.83 1 2.5-2.412 2.035-1.745 3.035 2 3 4.118 3.026 3.785 5.026-1 6 2.727 1.966 3.06 3.966 1 6-4.702.172-9.369.672-14 1.5.363.684.696 1.35 1 2-3.966-1.285-3.966-2.785 0-4.5a86.7 86.7 0 0 0 13-1.5c-3.439-3.409-7.605-4.742-12.5-4-5.772-.612-10.772 1.055-15 5-.522 4.096 1.312 6.596 5.5 7.5.96 1.42 1.794 2.92 2.5 4.5a7.93 7.93 0 0 1 3.5-1 27.425 27.425 0 0 0 11 2v-6c-2.56.302-4.893-.032-7-1 2.213-1.105 4.38-1.105 6.5 0 2.522-2.162 5.355-2.495 8.5-1a32.371 32.371 0 0 1-5.5 4 27.57 27.57 0 0 1-1.5 5c-3.69 1.163-7.023 1.163-10 0v1c-1-1.333-2-1.333-3 0v-1c.11-.617.444-1.117 1-1.5a21.405 21.405 0 0 1-5 0 9.468 9.468 0 0 1-1.5-2.5c-.21 1.558-.71 2.892-1.5 4-.992-.172-1.658.162-2 1-1-.333-1.667-1-2-2v-4l3-1.5A6.975 6.975 0 0 1 8 51.5c-.399.228-.565.562-.5 1-.934-1.068-1.268-2.401-1-4a2.427 2.427 0 0 0-.5-2c-1 1.333-2 1.333-3 0-.678 2.098-.51 4.098.5 6-.838.342-1.172 1.008-1 2-.977-2.787-1.31-5.787-1-9a5.728 5.728 0 0 0 3-1c1.585.485 3.085-.181 4.5-2 .651-3.843-.182-4.51-2.5-2v-1c.492-2.319 1.492-4.319 3-6 0 .667.333 1 1 1a16.869 16.869 0 0 0 1 8c.607-.124.94-.457 1-1 3.097-2.916 6.43-5.75 10-8.5a39.367 39.367 0 0 1 11-4.5z"/><path style="opacity:.816" fill="#327fc0" d="M32.5 36.5c4.921 1.854 4.921 2.854 0 3v-3z"/><path style="opacity:.435" fill="#9e9632" d="M29.5 36.5c2.148-.11 2.481.556 1 2-4.9 1.366-5.234.7-1-2z"/><path style="opacity:.816" fill="#327ebe" d="M27.5 31.5c1.788-.285 3.455.048 5 1-3.918 4.771-8.918 6.938-15 6.5a101.05 101.05 0 0 1 10-7.5z"/><path style="opacity:.816" fill="#3281c4" d="M23.5 51.5c.667 0 1 .333 1 1 2.107.968 4.44 1.302 7 1v6a27.425 27.425 0 0 1-11-2 7.93 7.93 0 0 0-3.5 1 29.503 29.503 0 0 0-2.5-4.5c-4.188-.904-6.022-3.404-5.5-7.5 4.228-3.945 9.228-5.612 15-5 4.895-.742 9.061.591 12.5 4a86.7 86.7 0 0 1-13 1.5c-3.966 1.715-3.966 3.215 0 4.5z"/><path style="opacity:.434" fill="#999232" d="M33.5 30.5c4.021 1.513 7.355 4.013 10 7.5-3.93 2.288-4.93 5.455-3 9.5 1.846-.278 3.18.389 4 2-3.867 2.717-3.2 4.217 2 4.5l-8 1 4 1c-1.785 1.163-3.785 1.83-6 2-.88.708-1.547 1.542-2 2.5h-2a27.57 27.57 0 0 0 1.5-5 32.371 32.371 0 0 0 5.5-4c-3.145-1.495-5.978-1.162-8.5 1-2.12-1.105-4.287-1.105-6.5 0 0-.667-.333-1-1-1a44.358 44.358 0 0 0-1-2 100.197 100.197 0 0 1 14-1.5c2.06-2.034 1.727-4.034-1-6 4.785-.974 5.118-2.974 1-6-3.745.035-4.412-.965-2-3-.752-.67-1.086-1.504-1-2.5z"/><path style="opacity:.816" fill="#327ebe" d="M41.5 41.5h3c.285 1.788-.048 3.455-1 5a4.452 4.452 0 0 1-2-1.5c.671-.986.671-2.153 0-3.5z"/><path style="opacity:.435" fill="#9c9532" d="M88.5 49.5a171.62 171.62 0 0 1-4 3c-2.777-2.252-5.777-2.92-9-2-1.245-3.714-1.079-7.38.5-11 .369 7.947 4.535 11.28 12.5 10z"/><path style="opacity:.816" fill="#327cb9" d="M117.5 50.5v5h-5c1.631-3.845 1.298-7.512-1-11a4.458 4.458 0 0 1 1.5-2c1.978 2.472 3.478 5.139 4.5 8z"/><path style="opacity:.432" fill="#9f9732" d="M6.5 48.5c-.814 2.131-1.314 4.464-1.5 7-1.039-.744-1.539-1.744-1.5-3-1.01-1.902-1.178-3.902-.5-6 1 1.333 2 1.333 3 0 .464.594.631 1.261.5 2z"/><path style="opacity:.978" fill="#37403b" d="M101.5 42.5c2.634 2.04 2.634 4.207 0 6.5l2.5 2.5a48.195 48.195 0 0 1 2.5-5c3.921 4.455 3.254 8.288-2 11.5 2.581 2.226 2.581 4.392 0 6.5.718-1.637.884-3.303.5-5a15.83 15.83 0 0 1-3.5 5.5 2.427 2.427 0 0 0 2 .5 38.715 38.715 0 0 1-5 2.5c5.645 1.815 9.312-.019 11-5.5.457 3.92-1.209 6.42-5 7.5a31.109 31.109 0 0 0-12 .5c-.06-.543-.393-.876-1-1-2.57 1.733-2.57 3.4 0 5v2h-6c1.109-.79 2.442-1.29 4-1.5-.906-1.7-1.24-3.533-1-5.5h-17a1313.42 1313.42 0 0 0 17-2.5c-2.208-.19-4.208-.69-6-1.5 5.289.381 10.289-.619 15-3 .929-1.189 1.262-2.522 1-4a55.132 55.132 0 0 1-18 2v-1a53.415 53.415 0 0 0 18-3l2 1c-.928 1.268-1.095 2.601-.5 4 3.201-3.745 3.201-7.412 0-11-.492 1.049-.326 2.049.5 3-4.903 2.893-10.237 4.226-16 4a57.143 57.143 0 0 0 14-5 5.728 5.728 0 0 0-1-3c-1.721-2.194-4.055-3.361-7-3.5l5-1c-3.85-2.731-3.184-4.231 2-4.5 1.855-.16 3.188.507 4 2z"/><path style="opacity:.816" fill="#337cb9" d="M106.5 48.5c.647.774.98 1.774 1 3 .158 1.819-.509 3.152-2 4l-1-1.5c.82-1.8 1.486-3.634 2-5.5zM101.5 42.5c1.83 3.337.83 5.004-3 5 .256-2.412-.744-4.08-3-5 1.901-.73 3.901-.73 6 0z"/><path style="opacity:.435" fill="#a19932" d="M8.5 55.5c-.904-.709-1.237-1.709-1-3-.065-.438.101-.772.5-1a6.975 6.975 0 0 0 3.5 2.5l-3 1.5z"/><path style="opacity:.918" fill="#375260" d="M73.5 53.5c-2.927 2.118-6.26 3.118-10 3-4.857.828-9.857 1.662-15 2.5a8.434 8.434 0 0 0 4 .5v1h-7c1.051-.722 1.718-1.722 2-3 8.368-3.81 17.034-5.144 26-4z"/><path style="opacity:.816" fill="#3280c1" d="M98.5 52.5a57.143 57.143 0 0 1-14 5h-3c-2.652-.761-5.318-.261-8 1.5-6.992.5-13.992.666-21 .5a8.434 8.434 0 0 1-4-.5c5.143-.838 10.143-1.672 15-2.5 3.74.118 7.073-.882 10-3a76.108 76.108 0 0 0 17 .5l-4-1c3.94-3.068 7.94-3.234 12-.5z"/><path style="opacity:.978" fill="#393f38" d="M118.5 48.5c2.101 7.867.934 15.2-3.5 22a118.787 118.787 0 0 1-9.5 9 37.937 37.937 0 0 0-8 2.5c-.837 1.011-1.17 2.178-1 3.5h-2c-.834-1.248-2.167-1.915-4-2-4.938-.296-5.271.704-1 3 .282 1.278.949 2.278 2 3h-5c-.597.639-1.43.972-2.5 1a187.976 187.976 0 0 1-10.5-3c-.916.043-1.583.376-2 1v2h-2c1.004-2.177.338-2.51-2-1l-2 3a20.37 20.37 0 0 0-5-1c-.617-.11-1.117-.444-1.5-1-7.44 3-14.606 2.667-21.5-1-.11-.617-.444-1.117-1-1.5 1.558-.21 2.892-.71 4-1.5 2.971.065 5.638-.769 8-2.5a14.692 14.692 0 0 1-3-3.5h1c1.617.538 3.284.871 5 1-.214-1.644.12-3.144 1-4.5a2.428 2.428 0 0 0-2-.5c1.847-1.073 3.847-1.073 6 0 .996-.086 1.83.248 2.5 1 .493 1.634.66 3.3.5 5 1.7.16 3.366-.007 5-.5-2.559-3.404-1.559-5.57 3-6.5 3.532.658 4.532 2.492 3 5.5 1.444.78 2.777.614 4-.5-1.277-1.422-.944-2.422 1-3-.086.996.248 1.83 1 2.5 1.887.78 3.554.613 5-.5 4.347-.783 8.847-.783 13.5 0a197.423 197.423 0 0 1 9.5-4l-1-1c-3.969 1.792-7.969 2.459-12 2v-2c-.268-1.599.066-2.932 1-4 .608 2.49 2.275 3.824 5 4 9.076 1.24 15.076-2.426 18-11-1.3-3.646-3.3-3.98-6-1a5.575 5.575 0 0 1 1-3c2.076-.6 4.076-.933 6-1-1.138-1.86-2.471-2.527-4-2v-1h5v-5c-.172-.992.162-1.658 1-2z"/><path style="opacity:.435" fill="#989232" d="M63.5 56.5c-9.096-.11-8.93-.776.5-2l2.5.5c-1.237.232-2.237.732-3 1.5z"/><path style="opacity:.816" fill="#327fbf" d="M9.5 56.5h3v3h-3v-3z"/><path style="opacity:.816" fill="#3280c1" d="M82.5 65.5c-1.442-1.32-2.109-2.986-2-5a55.132 55.132 0 0 0 18-2c.262 1.478-.071 2.811-1 4-4.711 2.381-9.711 3.381-15 3z"/><path style="opacity:.435" fill="#9e9632" d="M121.5 39.5v1h-3c-.538 5.11 1.462 7.443 6 7-.333 1-1 1.667-2 2a164.328 164.328 0 0 0-1.5 18c-2.291 2.955-1.791 5.288 1.5 7-2.224 1.28-4.224.947-6-1a31.83 31.83 0 0 0-5 4.5 20.093 20.093 0 0 1-6 1.5 118.787 118.787 0 0 0 9.5-9c4.434-6.8 5.601-14.133 3.5-22a36.747 36.747 0 0 0-7-10.5c3.34.155 6.674.655 10 1.5z"/><path style="opacity:.435" fill="#979032" d="M19.5 60.5c-1.212.73-2.212 1.73-3 3-1.761-.535-3.094-1.535-4-3 .79-1.108 1.29-2.442 1.5-4 .374.916.874 1.75 1.5 2.5 1.707.195 3.374.195 5 0-.556.383-.89.883-1 1.5z"/><path style="opacity:.816" fill="#3577ac" d="M47.5 57.5c-.282 1.278-.949 2.278-2 3-2.319.492-4.319 1.492-6 3a717.118 717.118 0 0 1-10 5l-1-1a186.2 186.2 0 0 0 2-3c1.527.073 2.527-.594 3-2l6-2 8-3z"/><path style="opacity:.98" fill="#373e38" d="M81.5 57.5c-4.797 3.04-10.13 4.374-16 4-4.134-.985-8.468-1.318-13-1v-1c7.008.166 14.008 0 21-.5 2.682-1.761 5.348-2.261 8-1.5z"/><path style="opacity:.816" fill="#3280c1" d="M92.5 70.5a31.109 31.109 0 0 1 12-.5c3.791-1.08 5.457-3.58 5-7.5 2.7-2.98 4.7-2.646 6 1-2.924 8.574-8.924 12.24-18 11-2.725-.176-4.392-1.51-5-4z"/><path style="opacity:.478" fill="#676b33" d="m39.5 60.5-6 2 1-2a16.066 16.066 0 0 0 5-2c.963.47.963 1.136 0 2z"/><path style="opacity:.975" fill="#3b4239" d="M121.5 39.5h4c3.064 3.324 4.897 7.324 5.5 12a256.72 256.72 0 0 0 0 25c-2.374 6.208-6.874 9.542-13.5 10-1.152 8.134-4.818 14.968-11 20.5a29.749 29.749 0 0 1-9 3.5v-2c3.527-.453 6.527-1.953 9-4.5-3.827-.976-7.16-.143-10 2.5h-2l-4 1c-1.42-3.453-.086-5.287 4-5.5l-1-1 7-1c-2.501-2.465-1.834-3.965 2-4.5-.077 1.25-.744 2.083-2 2.5 7.379 3.31 12.379 1.144 15-6.5-1.561-.847-3.061-.514-4.5 1a29.555 29.555 0 0 1-2.5 4.5c-1.852.773-3.186.273-4-1.5 1.846.278 3.18-.389 4-2a68.152 68.152 0 0 1-17-4c-1.051-.722-1.718-1.722-2-3a5.576 5.576 0 0 1 3 1 30.943 30.943 0 0 1 2-2h2c-1.062 1.075-1.062 2.075 0 3a12.417 12.417 0 0 0 2.5-4 50.743 50.743 0 0 0 6.5-5 20.093 20.093 0 0 0 6-1.5 31.83 31.83 0 0 1 5-4.5c1.776 1.947 3.776 2.28 6 1-3.291-1.712-3.791-4.045-1.5-7 .17-6.028.67-12.028 1.5-18 1-.333 1.667-1 2-2-4.538.443-6.538-1.89-6-7h3v-1z"/><path style="opacity:.816" fill="#327fbe" d="M125.5 43.5c2.59 3.264 3.923 7.097 4 11.5-.081 6.422-1.914 12.256-5.5 17.5-1.158-.498-1.991-1.332-2.5-2.5 2.307-3.99 2.64-8.157 1-12.5a58.702 58.702 0 0 0 3-14z"/><path style="opacity:.816" fill="#327bb8" d="M119.5 41.5c2.414.906 3.247 2.572 2.5 5-1.883-1.153-2.716-2.82-2.5-5z"/><path style="opacity:.435" fill="#9f9832" d="M121.5 40.5h3a12.93 12.93 0 0 1-.5 5c-.366-1.952-1.199-3.618-2.5-5z"/><path style="opacity:.435" fill="#9c9433" d="M80.5 59.5c-2.624 1.698-2.624 3.531 0 5.5-1.7.345-3.034-.322-4-2-8.69-.51-17.356-.176-26 1-2.227.121-4.06.954-5.5 2.5a4.452 4.452 0 0 0-1.5-2c-7.952 3.512-7.285 4.845 2 4 3.672.257 7.005 1.257 10 3-3.113 2.218-6.113 2.218-9 0a48.023 48.023 0 0 1-19 1.5c-3.422-2.224-3.422-4.724 0-7.5a5.576 5.576 0 0 1 3-1 186.2 186.2 0 0 1-2 3l1 1a717.118 717.118 0 0 0 10-5 100.33 100.33 0 0 1 26-2c5.87.374 11.203-.96 16-4h3c5.763.226 11.097-1.107 16-4-.826-.951-.992-1.951-.5-3 3.201 3.588 3.201 7.255 0 11-.595-1.399-.428-2.732.5-4l-2-1a53.415 53.415 0 0 1-18 3z"/><path style="opacity:.882" fill="#36668b" d="M104.5 64.5c0 .667-.333 1-1 1a2.427 2.427 0 0 1-2-.5 15.83 15.83 0 0 0 3.5-5.5c.384 1.697.218 3.363-.5 5z"/><path style="opacity:.979" fill="#3b4238" d="M6.5 48.5c-.268 1.599.066 2.932 1 4-.237 1.291.096 2.291 1 3v4c-2.92 3.902-1.92 6.902 3 9a32.412 32.412 0 0 1 6-1.5 59.463 59.463 0 0 1-7-5.5c.342-.838 1.008-1.172 2-1 .906 1.465 2.239 2.465 4 3 .788-1.27 1.788-2.27 3-3v1c.746 3.81 1.746 3.81 3 0v-1c.978.311 1.645.978 2 2-1.09 1.109-1.09 2.109 0 3 3.068-1.191 5.735-2.858 8-5h2l-1 2c-.473 1.406-1.473 2.073-3 2a5.576 5.576 0 0 0-3 1c-3.422 2.776-3.422 5.276 0 7.5a48.023 48.023 0 0 0 19-1.5c2.887 2.218 5.887 2.218 9 0 6.348-4.17 13.348-6.002 21-5.5-10.679-2.286-21.012-1.452-31 2.5-9.285.845-9.952-.488-2-4a4.452 4.452 0 0 1 1.5 2c1.44-1.546 3.273-2.379 5.5-2.5a134.097 134.097 0 0 1 26-1c.966 1.678 2.3 2.345 4 2-2.624-1.969-2.624-3.802 0-5.5v1c-.109 2.014.558 3.68 2 5 1.792.81 3.792 1.31 6 1.5a1313.42 1313.42 0 0 1-17 2.5c-2.05.206-2.382 1.04-1 2.5 5.01-.09 9.343 1.41 13 4.5a127.091 127.091 0 0 0-15-3.5 11.383 11.383 0 0 0-2-2.5c-3.729 1.523-7.062 3.523-10 6-2.153-1.073-4.153-1.073-6 0a168.19 168.19 0 0 0-8 1.5c1.566.608 2.9 1.442 4 2.5h-1c-3.023 2.794-6.69 4.627-11 5.5 1.973.496 3.973.662 6 .5-1.108.79-2.442 1.29-4 1.5.556.383.89.883 1 1.5-8.808-1.8-13.141-7.132-13-16-7.1.687-13.267-1.313-18.5-6a91.12 91.12 0 0 0-3.5-13c-.172-.992.162-1.658 1-2-.039 1.256.461 2.256 1.5 3 .186-2.536.686-4.869 1.5-7z"/><path style="opacity:.816" fill="#337fbe" d="M55.5 71.5c-2.995-1.743-6.328-2.743-10-3 9.988-3.952 20.321-4.786 31-2.5-7.652-.502-14.652 1.33-21 5.5z"/><path style="opacity:.816" fill="#3281c2" d="M22.5 61.5c-1.254 3.81-2.254 3.81-3 0 1-1.333 2-1.333 3 0z"/><path style="opacity:.486" fill="#465336" d="M45.5 60.5h7c4.532-.318 8.866.015 13 1a100.33 100.33 0 0 0-26 2c1.681-1.508 3.681-2.508 6-3z"/><path style="opacity:.435" fill="#969033" d="M22.5 60.5c2.977 1.163 6.31 1.163 10 0-2.265 2.142-4.932 3.809-8 5-1.09-.891-1.09-1.891 0-3-.355-1.022-1.022-1.689-2-2z"/><path style="opacity:.816" fill="#327ebd" d="M8.5 59.5c.333 1 1 1.667 2 2a59.463 59.463 0 0 0 7 5.5c-2.056.31-4.056.81-6 1.5-4.92-2.098-5.92-5.098-3-9z"/><path style="opacity:.435" fill="#9c9432" d="M18.5 68.5c1.788-.285 3.455.048 5 1-3.404 2.473-7.07 2.64-11 .5 2.208-.19 4.208-.69 6-1.5z"/><path style="opacity:.816" fill="#3281c3" d="M71.5 69.5h17c-.24 1.967.094 3.8 1 5.5-1.558.21-2.891.71-4 1.5h-2c-3.657-3.09-7.99-4.59-13-4.5-1.382-1.46-1.05-2.294 1-2.5z"/><path style="opacity:.435" fill="#9c9432" d="M128.5 68.5c1.508 2.622 1.008 4.955-1.5 7 .437-2.257.937-4.59 1.5-7z"/><path style="opacity:.435" fill="#9b9332" d="M83.5 76.5h8c4.031.459 8.031-.208 12-2l1 1a197.423 197.423 0 0 0-9.5 4c-4.653-.783-9.153-.783-13.5 0-1.602-1.574-3.602-2.24-6-2-1.944.578-2.277 1.578-1 3-1.223 1.114-2.556 1.28-4 .5 1.532-3.008.532-4.842-3-5.5-4.559.93-5.559 3.096-3 6.5-1.634.493-3.3.66-5 .5.16-1.7-.007-3.366-.5-5-.67-.752-1.504-1.086-2.5-1 2.938-2.477 6.271-4.477 10-6a11.383 11.383 0 0 1 2 2.5 127.091 127.091 0 0 1 15 3.5z"/><path style="opacity:.494" fill="#787433" d="M92.5 70.5c-.934 1.068-1.268 2.401-1 4-2.57-1.6-2.57-3.267 0-5 .607.124.94.457 1 1z"/><path style="opacity:.816" fill="#3280c2" d="M26.5 75.5a69.524 69.524 0 0 1 15 4.5c-7.863 7.204-12.863 5.704-15-4.5z"/><path style="opacity:.435" fill="#9d9532" d="M50.5 76.5a2.428 2.428 0 0 1 2 .5c-.88 1.356-1.214 2.856-1 4.5a20.677 20.677 0 0 1-5-1c-1.1-1.058-2.434-1.892-4-2.5a168.19 168.19 0 0 1 8-1.5z"/><path style="opacity:.816" fill="#327ebe" d="M53.5 77.5c3.024-.136 4.524 1.198 4.5 4-3.67 1.51-5.17.176-4.5-4z"/><path style="opacity:.816" fill="#3281c3" d="M65.5 77.5h4c-.432 4.549-2.099 5.049-5 1.5.556-.383.89-.883 1-1.5z"/><path style="opacity:.869" fill="#37576f" d="M75.5 77.5c2.398-.24 4.398.426 6 2-1.446 1.113-3.113 1.28-5 .5-.752-.67-1.086-1.504-1-2.5z"/><path style="opacity:.816" fill="#337ebc" d="M114.5 76.5h5c-.643 3.487-2.643 5.987-6 7.5-4.236 2.957-8.903 4.457-14 4.5 3.061-5.181 7.728-8.348 14-9.5.752-.67 1.086-1.504 1-2.5z"/><path style="opacity:.816" fill="#327ebe" d="M127.5 76.5c1.025.397 1.192 1.063.5 2-1.858 2.912-4.358 4.412-7.5 4.5 1.577-3.08 3.91-5.247 7-6.5z"/><path style="opacity:.435" fill="#a09832" d="M45.5 80.5c.79 1.294 1.79 2.46 3 3.5-2.362 1.731-5.029 2.565-8 2.5a18.436 18.436 0 0 1-6-.5c4.31-.873 7.977-2.706 11-5.5z"/><path style="opacity:.435" fill="#9b9432" d="M105.5 79.5a50.743 50.743 0 0 1-6.5 5 12.417 12.417 0 0 1-2.5 4c-1.062-.925-1.062-1.925 0-3-.17-1.322.163-2.489 1-3.5a37.937 37.937 0 0 1 8-2.5z"/><path style="opacity:.816" fill="#3281c3" d="M94.5 85.5a30.943 30.943 0 0 0-2 2 5.576 5.576 0 0 0-3-1c-4.271-2.296-3.938-3.296 1-3 1.833.085 3.166.752 4 2z"/><path style="opacity:.816" fill="#327ebe" d="M52.5 85.5c3.663.452 7.33.952 11 1.5-4.961 2.585-9.961 2.918-15 1 1.566-.608 2.9-1.442 4-2.5z"/><path style="opacity:.627" fill="#707233" d="M71.5 84.5a8.434 8.434 0 0 1 4 .5c-2.577 1.25-5.243 1.584-8 1 1.558-.21 2.891-.71 4-1.5z"/><path style="opacity:.816" fill="#337bb7" d="M86.5 89.5c-2.327.253-4.327-.414-6-2 2.74-1.267 5.406-1.1 8 .5-.916.278-1.582.778-2 1.5z"/><path style="opacity:.435" fill="#9d9532" d="M69.5 90.5c-1.488 2.686-2.155 2.353-2-1 2.338-1.51 3.004-1.177 2 1z"/><path style="opacity:.435" fill="#9c9432" d="M71.5 88.5c.417-.624 1.084-.957 2-1a187.976 187.976 0 0 0 10.5 3c1.07-.028 1.903-.361 2.5-1h5a68.152 68.152 0 0 0 17 4c-.82 1.611-2.154 2.278-4 2h-2c-3.834.535-4.501 2.035-2 4.5l-7 1 1 1c-4.086.213-5.42 2.047-4 5.5a58.474 58.474 0 0 0-5-6 103.73 103.73 0 0 1 12-6.5 74.626 74.626 0 0 1-8.5-4.5c-2.887.403-5.22 1.737-7 4-.684 1.284-.517 2.45.5 3.5-1.667.667-3.333.667-5 0 1.918-1.77 2.418-3.937 1.5-6.5-2.235-1.702-4.735-2.702-7.5-3z"/><path style="opacity:.976" fill="#38413d" d="M71.5 88.5c2.765.298 5.265 1.298 7.5 3 .918 2.563.418 4.73-1.5 6.5 1.667.667 3.333.667 5 0-1.017-1.05-1.184-2.216-.5-3.5 1.78-2.263 4.113-3.597 7-4a74.626 74.626 0 0 0 8.5 4.5 103.73 103.73 0 0 0-12 6.5 58.474 58.474 0 0 1 5 6c1.628 1.353 2.962 1.019 4-1h2c-1.531 1.425-1.198 2.091 1 2v2c-5.747.657-11.414-.01-17-2l-2 3c-1.291-.237-2.291.096-3 1h-1a5.728 5.728 0 0 1-1-3c-.215-1.679.452-2.679 2-3-1.394-3.035-3.727-5.035-7-6-.086-.996.248-1.83 1-2.5a4.932 4.932 0 0 0-3-.5c-.983-1.35-2.316-2.35-4-3 1.282.412 2.282-.254 3-2l2-3c-.155 3.353.512 3.686 2 1h2v-2z"/><path style="opacity:.816" fill="#327fc0" d="m71.5 90.5 6 1v5c-5.125.52-7.125-1.48-6-6z"/><path style="opacity:.816" fill="#327dbb" d="M102.5 95.5h2c.814 1.773 2.148 2.273 4 1.5.96-1.42 1.793-2.92 2.5-4.5 1.439-1.514 2.939-1.847 4.5-1-2.621 7.644-7.621 9.81-15 6.5 1.256-.417 1.923-1.25 2-2.5z"/><path style="opacity:.816" fill="#327fc0" d="M85.5 92.5h6c-.179 3.27-2.012 4.937-5.5 5-3.073-1.248-3.24-2.915-.5-5z"/><path style="opacity:.435" fill="#9a9332" d="M66.5 97.5a4.932 4.932 0 0 1 3 .5c-.752.67-1.086 1.504-1 2.5-1.85-.742-2.516-1.742-2-3z"/><path style="opacity:.975" fill="#4a4e36" d="M60.5 91.5a20.37 20.37 0 0 1 5 1c-.718 1.746-1.718 2.412-3 2 1.684.65 3.017 1.65 4 3-.516 1.258.15 2.258 2 3 3.273.965 5.606 2.965 7 6-1.548.321-2.215 1.321-2 3a160.88 160.88 0 0 0-10.5-11 29.296 29.296 0 0 1-2.5-7z"/><path style="opacity:.816" fill="#327ebd" d="M74.5 102.5c4.572-1.435 8.738-.435 12.5 3 .483.948.65 1.948.5 3a38.535 38.535 0 0 1-13-6z"/><path style="opacity:.816" fill="#3281c3" d="M97.5 108.5c-2.198.091-2.531-.575-1-2 2.84-2.643 6.173-3.476 10-2.5-2.473 2.547-5.473 4.047-9 4.5z"/><path style="opacity:.816" fill="#327fbf" d="M75.5 106.5c1.965.448 2.298 1.448 1 3-.886-.825-1.219-1.825-1-3z"/><path style="opacity:.435" fill="#9e9632" d="M94.5 106.5c-1.038 2.019-2.372 2.353-4 1l4-1z"/><path style="opacity:.435" fill="#999132" d="M75.5 112.5c.709-.904 1.709-1.237 3-1 1.24 2.207 1.74 4.541 1.5 7a42.75 42.75 0 0 0-4.5-6z"/><path style="opacity:.569" fill="#595d35" d="M80.5 108.5c.22 5.276 2.22 9.776 6 13.5-6.13-.281-10.13-3.448-12-9.5h1a42.75 42.75 0 0 1 4.5 6c.24-2.459-.26-4.793-1.5-7l2-3z"/></svg>