<svg xmlns="http://www.w3.org/2000/svg" width="150" height="132" style="shape-rendering:geometricPrecision;text-rendering:geometricPrecision;image-rendering:optimizeQuality;fill-rule:evenodd;clip-rule:evenodd"><path style="opacity:1" fill="#33383d" d="M67.5-.5h10c1.664 1.499 3.664 2.499 6 3a28.152 28.152 0 0 1 12-.5 923.127 923.127 0 0 0 22 7c4.749 4.078 8.749 8.745 12 14 10.287 5.773 16.953 14.273 20 25.5v11c-.838.342-1.172 1.008-1 2a441.702 441.702 0 0 0-2.5-18 12.409 12.409 0 0 0-2.5-4c-.607.124-.94.457-1 1-1.015-.96-1.015-2.127 0-3.5-.336-1.03-1.003-1.53-2-1.5-1.382-2.894-3.382-5.394-6-7.5-3.433-2.71-7.1-4.877-11-6.5 3.599.238 3.933-.762 1-3-2.212-1.864-4.545-2.197-7-1 .73-1.545 2.063-2.378 4-2.5-6.156-7.231-13.823-9.398-23-6.5a81.406 81.406 0 0 1 3-2.5 24.936 24.936 0 0 0-7-.5c.418-.722 1.084-1.222 2-1.5a45.514 45.514 0 0 0-15 .5c-1.418-2.208-3.418-3.042-6-2.5.556.383.89.883 1 1.5-4.815-2.759-9.481-2.426-14 1-1.196-.346-1.196-.846 0-1.5a50.438 50.438 0 0 0-10-.5v3c-1.562.233-2.895.9-4 2v-3c-4.247-.322-8.247.511-12 2.5 2.223.566 4.223 1.4 6 2.5-1.291-.237-2.291.096-3 1-.958-.453-1.792-1.12-2.5-2 .053 3.175-.78 5.842-2.5 8 .869-2.217 1.202-4.55 1-7a31.809 31.809 0 0 0-12 1.5l5 1c1.15 2.2 2.817 3.7 5 4.5-1.208 1.282-2.542 1.282-4 0-.486-1.997-1.652-3.33-3.5-4a100.003 100.003 0 0 1-5.5 10c2.288-12.386-.212-12.72-7.5-1-2.184 2.834-1.684 4.168 1.5 4-1.268 1.547-2.935 2.547-5 3 1.609-6.197.442-6.53-3.5-1-2.076 2.717-2.743 5.717-2 9 .708-.88 1.542-1.547 2.5-2a26.792 26.792 0 0 0-4 8h3c-.87 2.099-2.203 2.432-4 1-1.79 5.098-.623 9.431 3.5 13 .359-3.044 1.026-3.378 2-1 .383-.556.883-.89 1.5-1-.584 2.785.416 4.452 3 5v2c-2.223-.614-3.89-1.948-5-4-1.728 4.043-1.062 7.543 2 10.5 2.563.126 4.896.293 7 .5-6.157.562-6.49 1.895-1 4v1c-8.126-1.939-11.459-6.939-10-15a44.008 44.008 0 0 1-5-7v-9c1.339-5.36 3.172-10.694 5.5-16L20.5 11a150.622 150.622 0 0 0 18-7A1196.907 1196.907 0 0 1 58 .5c2.042.115 4.042.449 6 1 1.46-.308 2.626-.975 3.5-2z"/><path style="opacity:1" fill="#2f1f14" d="M98.5 8.5a10.168 10.168 0 0 1 3 3 21.445 21.445 0 0 0-7-1c1.014-1.174 2.347-1.84 4-2z"/><path style="opacity:1" fill="#3084b1" d="M42.5 9.5c1.014 1.174 2.347 1.84 4 2 .992-.172 1.658.162 2 1 .473 1.406 1.473 2.073 3 2 1.278 2.044 1.112 4.044-.5 6-.67-.752-1.504-1.086-2.5-1-2.356-1.845-5.023-3.178-8-4-.734-1.208-1.067-2.541-1-4v-1c.709-.904 1.709-1.237 3-1z"/><path style="opacity:1" fill="#c4782c" d="M52.5 5.5c.453.958 1.12 1.792 2 2.5-1.563.759-2.563 1.926-3 3.5.93.815 1.93 1.648 3 2.5a4.932 4.932 0 0 1-3 .5c-.473-1.406-1.473-2.073-3-2-.342-.838-1.008-1.172-2-1v-2c.333-1 1-1.667 2-2 1.105-1.1 2.438-1.767 4-2z"/><path style="opacity:1" fill="#080f12" d="M42.5 9.5h4v2c-1.653-.16-2.986-.826-4-2z"/><path style="opacity:1" fill="#3091c3" d="M34.5 16.5h-1c-2.183-.8-3.85-2.3-5-4.5l-5-1a31.809 31.809 0 0 1 12-1.5c.202 2.45-.131 4.783-1 7z"/><path style="opacity:1" fill="#328bbb" d="M117.5 17.5c-2.45.202-4.783-.131-7-1 .073-1.527-.594-2.527-2-3a20.676 20.676 0 0 0-5 1c.215-1.679-.452-2.679-2-3a10.168 10.168 0 0 0-3-3c9.177-2.898 16.844-.731 23 6.5-1.937.122-3.27.955-4 2.5z"/><path style="opacity:1" fill="#c67a2d" d="M81.5 4.5c-5.056 2.723-8.723 6.723-11 12-1.395 1.554-2.061 1.221-2-1 .346-1.35.679-2.682 1-4 1.56-2.124 3.56-3.791 6-5 .886-.825 1.219-1.825 1-3-.11-.617-.444-1.117-1-1.5 2.582-.542 4.582.292 6 2.5z"/><path style="opacity:1" fill="#26292d" d="M94.5 5.5c-1.43 1.037-3.097 1.704-5 2 1.052-1.756 2.719-2.423 5-2z"/><path style="opacity:1" fill="#3193c6" d="M48.5 7.5c-1 .333-1.667 1-2 2h-4c-1.777-1.1-3.777-1.934-6-2.5 3.753-1.989 7.753-2.822 12-2.5v3z"/><path style="opacity:1" fill="#3387b4" d="M94.5 5.5c-2.281-.423-3.948.244-5 2-.617.11-1.117.444-1.5 1a18.436 18.436 0 0 0-.5 6c-1.406.473-2.073 1.473-2 3a26.496 26.496 0 0 1-7 5c-2.402-1.549-5.068-2.216-8-2-.854-1.132-.854-2.465 0-4 2.277-5.277 5.944-9.277 11-12a45.514 45.514 0 0 1 15-.5c-.916.278-1.582.778-2 1.5z"/><path style="opacity:1" fill="#318dbd" d="M76.5 3.5c.219 1.175-.114 2.175-1 3-2.44 1.209-4.44 2.876-6 5-.617.11-1.117.444-1.5 1a18.436 18.436 0 0 0-.5 6c-1.353 1.026-2.353 2.36-3 4-1.679-.215-2.679.452-3 2-.967 1.306-2.3 1.973-4 2 .584-2.785-.416-4.452-3-5-.04-5.257 1.626-9.924 5-14l-.5-1a12.133 12.133 0 0 0-3.5 4.5 8.434 8.434 0 0 1-4 .5c.437-1.574 1.437-2.741 3-3.5-.88-.708-1.547-1.542-2-2.5v-3c3.35-.165 6.683.002 10 .5-1.196.654-1.196 1.154 0 1.5 4.519-3.426 9.185-3.759 14-1z"/><path style="opacity:1" fill="#322e2e" d="M89.5 7.5a18.436 18.436 0 0 1-.5 6c-.383.556-.883.89-1.5 1a18.436 18.436 0 0 1 .5-6c.383-.556.883-.89 1.5-1z"/><path style="opacity:1" fill="#358fbf" d="M20.5 22.5c-1.613 1.588-3.613 2.588-6 3-3.184.168-3.684-1.166-1.5-4 7.288-11.72 9.788-11.386 7.5 1z"/><path style="opacity:1" fill="#181818" d="M48.5 12.5c1.527-.073 2.527.594 3 2-1.527.073-2.527-.594-3-2z"/><path style="opacity:1" fill="#1c1c1d" d="M94.5 10.5a10.174 10.174 0 0 1 3 3 5.576 5.576 0 0 1-3-1c-1.686 1.357-3.352 2.69-5 4 .92-2.59 2.586-4.59 5-6z"/><path style="opacity:1" fill="#3289b8" d="M97.5 13.5c.992-.172 1.658.162 2 1l1 4c-1.475 2.19-3.475 3.523-6 4-1.474.936-2.474 2.27-3 4-.89.761-1.558 1.761-2 3-.825.886-1.825 1.219-3 1a116.256 116.256 0 0 1 2-12c-.172-.992.162-1.658 1-2 1.648-1.31 3.314-2.643 5-4 .917.627 1.917.96 3 1z"/><path style="opacity:1" fill="#101b24" d="M101.5 11.5c1.548.321 2.215 1.321 2 3-.901-.79-1.568-1.79-2-3z"/><path style="opacity:1" fill="#0d0f13" d="M39.5 11.5c-.067 1.459.266 2.792 1 4-1.086-.12-1.753-.787-2-2 .043-.916.376-1.583 1-2z"/><path style="opacity:1" fill="#111110" d="M99.5 14.5c2.019 1.038 2.353 2.372 1 4l-1-4z"/><path style="opacity:1" fill="#ea9035" d="M94.5 10.5a21.445 21.445 0 0 1 7 1c.432 1.21 1.099 2.21 2 3a20.676 20.676 0 0 1 5-1c-.073 1.527.594 2.527 2 3 2.217.869 4.55 1.202 7 1 2.455-1.197 4.788-.864 7 1 2.933 2.238 2.599 3.238-1 3-5.096-1.596-10.429-2.596-16-3-2.663-1.67-4.33-1.003-5 2-.554 3.555-2.554 5.889-6 7a6.845 6.845 0 0 0-4 1c-.797-.457-1.13-1.124-1-2 1.946-.535 2.946-1.868 3-4 2.525-.477 4.525-1.81 6-4 1.353-1.628 1.019-2.962-1-4-.342-.838-1.008-1.172-2-1a10.174 10.174 0 0 0-3-3z"/><path style="opacity:1" fill="#1a130c" d="M108.5 13.5c1.406.473 2.073 1.473 2 3-1.406-.473-2.073-1.473-2-3z"/><path style="opacity:1" fill="#181819" d="M87.5 14.5c.073 1.527-.594 2.527-2 3-.073-1.527.594-2.527 2-3z"/><path style="opacity:1" fill="#ee9236" d="M94.5 5.5c2.357-.163 4.69.003 7 .5a81.406 81.406 0 0 0-3 2.5c-1.653.16-2.986.826-4 2-2.414 1.41-4.08 3.41-5 6-.838.342-1.172 1.008-1 2-1.293 1.342-2.126 3.009-2.5 5a50.441 50.441 0 0 0-.5 10c-1.278-.282-2.278-.949-3-2a9.106 9.106 0 0 0-1-5c-.757-1.273-1.423-1.273-2 0-1.459.067-2.792-.266-4-1-2.544-.98-5.21-1.148-8-.5a30.85 30.85 0 0 1 3-4.5c2.932-.216 5.598.451 8 2a26.496 26.496 0 0 0 7-5c1.406-.473 2.073-1.473 2-3 .617-.11 1.117-.444 1.5-1 .496-1.973.662-3.973.5-6 1.903-.296 3.57-.963 5-2z"/><path style="opacity:1" fill="#307ca6" d="M107.5 18.5c1.333 1 1.333 2 0 3a6.846 6.846 0 0 0-4 1c-.798-.457-1.131-1.124-1-2 .67-3.003 2.337-3.67 5-2z"/><path style="opacity:1" fill="#2a1c10" d="M107.5 18.5c5.571.404 10.904 1.404 16 3a40.48 40.48 0 0 0-13-.5c-.752.67-1.086 1.504-1 2.5l-2-2c1.333-1 1.333-2 0-3z"/><path style="opacity:1" fill="#3191c2" d="M123.5 21.5c3.9 1.623 7.567 3.79 11 6.5 2.618 2.106 4.618 4.606 6 7.5a5.728 5.728 0 0 0-3-1c-2.398.24-4.398-.426-6-2-2.469-.817-5.135-1.317-8-1.5a280.19 280.19 0 0 1-14-7.5c-.086-.996.248-1.83 1-2.5a40.48 40.48 0 0 1 13 .5z"/><path style="opacity:1" fill="#231f1e" d="M54.5 21.5c-.722-.418-1.222-1.084-1.5-2a16.228 16.228 0 0 0-1.5 3.5 24.298 24.298 0 0 1 5 6.5c2.292.81 4.459 1.143 6.5 1a18.982 18.982 0 0 1 1.5 8c-1.51-1.976-2.344-4.31-2.5-7-1.388 1.054-2.888 1.22-4.5.5-2.417-1.663-4.25-3.83-5.5-6.5-2.03 8.048-1.863 16.048.5 24 2.357-.163 4.69.003 7 .5.556.383.89.883 1 1.5-2.112-.775-4.112-.775-6 0h-2c-1.599.268-2.932-.066-4-1 1.175.219 2.175-.114 3-1-.457-.797-1.124-1.13-2-1 .734-1.208 1.067-2.541 1-4-1.915.285-3.581-.049-5-1h4a18.436 18.436 0 0 0-.5-6c-.383-.556-.883-.89-1.5-1 .8-1.542 1.134-3.209 1-5 .975-2.811 1.642-5.811 2-9-4.205.217-8.205.883-12 2a4.932 4.932 0 0 0-3 .5c.915 2.53.915 4.696 0 6.5-.734 1.208-1.067 2.541-1 4-.904-.709-1.237-1.709-1-3h-3c1.603-1.096 3.103-2.43 4.5-4 .617-.95.45-1.782-.5-2.5-3.515-.087-6.848.747-10 2.5 3.046-2.857 6.713-4.69 11-5.5 3.702-.1 7.202-.933 10.5-2.5 2.558 1.647 3.392 1.313 2.5-1 .996-.086 1.83.248 2.5 1 1.612-1.956 1.778-3.956.5-6a4.932 4.932 0 0 0 3-.5 81.718 81.718 0 0 1-3-2.5 8.434 8.434 0 0 0 4-.5A12.133 12.133 0 0 1 59 6.5l.5 1c-3.374 4.076-5.04 8.743-5 14z"/><path style="opacity:1" fill="#338dbd" d="M48.5 31.5c-1.562-.233-2.895-.9-4-2 .17-1.322-.163-2.489-1-3.5a27.57 27.57 0 0 1-5-1.5c3.795-1.117 7.795-1.783 12-2-.358 3.189-1.025 6.189-2 9z"/><path style="opacity:1" fill="#1a1919" d="M102.5 20.5c-.131.876.202 1.543 1 2a6.846 6.846 0 0 1 4-1 311.784 311.784 0 0 1-5 3.5 16.25 16.25 0 0 0 8 0c-.556-.383-.889-.883-1-1.5a280.19 280.19 0 0 0 14 7.5c2.865.183 5.531.683 8 1.5a18.437 18.437 0 0 0-6 .5c.881.708 1.547 1.542 2 2.5a11.99 11.99 0 0 0-6 1c-1.761-.535-3.094-1.535-4-3 2.356 1.075 4.689 1.075 7 0-8.278-6.7-17.611-8.7-28-6 3.446-1.111 5.446-3.445 6-7z"/><path style="opacity:1" fill="#eb9135" d="m107.5 21.5 2 2c.111.617.444 1.117 1 1.5a16.25 16.25 0 0 1-8 0c1.733-1.189 3.4-2.356 5-3.5zM67.5 18.5c.543.06.876.393 1 1-2.965 6.582-3.632 13.25-2 20v3l-2-2v-2c.08-2.77-.42-5.437-1.5-8-2.041.143-4.208-.19-6.5-1a24.298 24.298 0 0 0-5-6.5 16.228 16.228 0 0 1 1.5-3.5c.278.916.778 1.582 1.5 2 2.584.548 3.584 2.215 3 5 1.068.934 2.401 1.268 4 1v-3c1.21-.432 2.21-1.099 3-2 .647-1.64 1.647-2.974 3-4z"/><path style="opacity:1" fill="#271c14" d="M64.5 22.5c-.79.901-1.79 1.568-3 2 .321-1.548 1.321-2.215 3-2z"/><path style="opacity:1" fill="#221d1a" d="M94.5 22.5c-.054 2.132-1.054 3.465-3 4 .526-1.73 1.526-3.064 3-4z"/><path style="opacity:1" fill="#308ebf" d="M9.5 28.5c-1.508 1.681-2.508 3.681-3 6-.958.453-1.792 1.12-2.5 2-.743-3.283-.076-6.283 2-9 3.942-5.53 5.109-5.197 3.5 1z"/><path style="opacity:1" fill="#3295c7" d="M30.5 32.5c-1.527-.073-2.527.594-3 2a40.377 40.377 0 0 1-10 1.5c1.323-.816 1.99-1.983 2-3.5 2.249-.58 3.915-1.913 5-4 3.152-1.753 6.485-2.587 10-2.5.95.718 1.117 1.55.5 2.5-1.397 1.57-2.897 2.904-4.5 4z"/><path style="opacity:1" fill="#353437" d="M38.5 24.5a27.57 27.57 0 0 0 5 1.5c.837 1.011 1.17 2.178 1 3.5-1.548-.321-2.215-1.321-2-3-1.983.343-3.317-.323-4-2z"/><path style="opacity:1" fill="#2b1c10" d="M69.5 11.5c-.321 1.318-.654 2.65-1 4-.061 2.221.605 2.554 2 1-.854 1.535-.854 2.868 0 4a30.85 30.85 0 0 0-3 4.5c2.79-.648 5.456-.48 8 .5-3.362-.43-6.195.57-8.5 3a60.94 60.94 0 0 0-.5 11c-1.632-6.75-.965-13.418 2-20-.124-.607-.457-.94-1-1a18.436 18.436 0 0 1 .5-6c.383-.556.883-.89 1.5-1z"/><path style="opacity:1" fill="#03070d" d="M75.5 25.5c1.208.734 2.541 1.067 4 1-.417.624-1.084.957-2 1-1.213-.247-1.88-.914-2-2z"/><path style="opacity:1" fill="#321f0d" d="M61.5 24.5v3c-1.599.268-2.932-.066-4-1 1.7-.027 3.033-.694 4-2z"/><path style="opacity:1" fill="#3192c3" d="M75.5 25.5c.12 1.086.787 1.753 2 2 .916-.043 1.583-.376 2-1a27.185 27.185 0 0 0 3 5 94.77 94.77 0 0 0-4 18c-3.109.236-6.109-.097-9-1 .114-2.716-.886-4.716-3-6v-3a60.94 60.94 0 0 1 .5-11c2.305-2.43 5.138-3.43 8.5-3z"/><path style="opacity:1" fill="#1b120b" d="M79.5 26.5c.577-1.273 1.243-1.273 2 0a9.106 9.106 0 0 1 1 5 27.185 27.185 0 0 1-3-5z"/><path style="opacity:1" fill="#308cbb" d="M117.5 33.5c-4.863.32-9.53-.014-14-1-.709-.904-1.709-1.237-3-1v5c-.333 1-1 1.667-2 2-1.086.12-1.753.787-2 2 .043.916.376 1.583 1 2l1 2c-2.107.968-4.44 1.302-7 1-2.688-.524-4.188-2.19-4.5-5-.826-2.712-.326-5.045 1.5-7a34.314 34.314 0 0 1 8-6c10.389-2.7 19.722-.7 28 6-2.311 1.075-4.644 1.075-7 0z"/><path style="opacity:1" fill="#0a141a" d="M9.5 28.5c.315 3.871-.018 7.538-1 11a18.436 18.436 0 0 0-.5-6c-.383.556-.883.89-1.5 1 .492-2.319 1.492-4.319 3-6z"/><path style="opacity:1" fill="#231e1d" d="M88.5 18.5a116.256 116.256 0 0 0-2 12c1.175.219 2.175-.114 3-1 .442-1.239 1.11-2.239 2-3-.13.876.203 1.543 1 2a6.845 6.845 0 0 1 4-1 34.314 34.314 0 0 0-8 6 2.428 2.428 0 0 0-.5-2c-.708.88-1.542 1.547-2.5 2-.165-3.35.002-6.683.5-10 .374-1.991 1.207-3.658 2.5-5z"/><path style="opacity:1" fill="#1c3544" d="M24.5 28.5c-1.085 2.087-2.751 3.42-5 4 1.085-2.087 2.751-3.42 5-4z"/><path style="opacity:1" fill="#292521" d="M103.5 32.5c-1.478.947-2.478 2.28-3 4v-5c1.291-.237 2.291.096 3 1z"/><path style="opacity:1" fill="#2f8cbd" d="M35.5 31.5h1a13.213 13.213 0 0 0 5 2v2c-2.333 1.333-4.667 1.333-7 0-.067-1.459.266-2.792 1-4z"/><path style="opacity:1" fill="#302722" d="M36.5 31.5c.235-.597.735-.93 1.5-1 1.364.87 2.53 1.87 3.5 3a13.213 13.213 0 0 1-5-2z"/><path style="opacity:1" fill="#e48d33" d="M39.5 10.5v1c-.624.417-.957 1.084-1 2 .247 1.213.914 1.88 2 2 2.977.822 5.644 2.155 8 4 .892 2.313.058 2.647-2.5 1-3.298 1.567-6.798 2.4-10.5 2.5-4.287.81-7.954 2.643-11 5.5-2.249.58-3.915 1.913-5 4a496.204 496.204 0 0 1-6 6c-1.904.238-3.238 1.238-4 3-.667 0-1-.333-1-1v-1c.982-3.462 1.315-7.129 1-11 2.065-.453 3.732-1.453 5-3 2.387-.412 4.387-1.412 6-3a100.003 100.003 0 0 0 5.5-10c1.848.67 3.014 2.003 3.5 4 1.458 1.282 2.792 1.282 4 0h1c1.72-2.158 2.553-4.825 2.5-8 .708.88 1.542 1.547 2.5 2z"/><path style="opacity:1" fill="#3c434a" d="M19.5 25.5a2.428 2.428 0 0 1 2 .5L12 37.5c.003-2.356.503-4.69 1.5-7a826.992 826.992 0 0 1 6-5z"/><path style="opacity:1" fill="#282f34" d="M23.5 21.5c1.855-.228 2.688.439 2.5 2-2.808 1.36-3.64.693-2.5-2z"/><path style="opacity:1" fill="#2c292a" d="M37.5 17.5a8.434 8.434 0 0 1 4 .5c1.333.667 1.333 1.333 0 2-3 .667-6 .667-9 0a39.419 39.419 0 0 1 5-2.5z"/><path style="opacity:1" fill="#c77b2e" d="M30.5 32.5h3c-.237 1.291.096 2.291 1 3-1.068.934-2.401 1.268-4 1h-2l-1-2c.473-1.406 1.473-2.073 3-2z"/><path style="opacity:1" fill="#3d2a1b" d="M137.5 34.5a5.728 5.728 0 0 1 3 1c-1.279 1.215-2.279.882-3-1z"/><path style="opacity:1" fill="#3091c3" d="M8.5 39.5v1c-1.21.432-2.21 1.099-3 2h-3a26.792 26.792 0 0 1 4-8c.617-.11 1.117-.444 1.5-1 .495 1.973.662 3.973.5 6z"/><path style="opacity:1" fill="#121b21" d="M19.5 32.5c-.01 1.517-.677 2.684-2 3.5a40.377 40.377 0 0 0 10-1.5l1 2a51.542 51.542 0 0 0-15 2 496.204 496.204 0 0 0 6-6z"/><path style="opacity:1" fill="#17110d" d="M34.5 35.5c2.333 1.333 4.667 1.333 7 0 .11.617.444 1.117 1 1.5l-5 1c.556.383.89.883 1 1.5a49.386 49.386 0 0 0-8-3c1.599.268 2.932-.066 4-1z"/><path style="opacity:1" fill="#328cbc" d="M28.5 36.5h2c2.701.75 5.368 1.75 8 3 .992-.172 1.658.162 2 1 .17 1.322-.163 2.489-1 3.5a32.437 32.437 0 0 1-8 .5c-2.982.463-5.982.796-9 1 .274 2.48 1.607 4.147 4 5 2.469.817 5.135 1.317 8 1.5.88.708 1.547 1.542 2 2.5l-1 2c-2.595 2.398-5.595 3.065-9 2a325.759 325.759 0 0 1-5-2 6.893 6.893 0 0 0-4 2c-1.611-.82-2.278-2.154-2-4-.622-3.276-2.622-4.609-6-4-.667 0-1-.333-1-1-.01-1.517-.677-2.684-2-3.5.752-.67 1.086-1.504 1-2.5 1-.333 1.667-1 2-2 .762-1.762 2.096-2.762 4-3a51.542 51.542 0 0 1 15-2z"/><path style="opacity:1" fill="#2e89b8" d="M47.5 36.5c.617.11 1.117.444 1.5 1 .495 1.973.662 3.973.5 6h-4c.88-1.889.88-3.889 0-6 .342-.838 1.008-1.172 2-1z"/><path style="opacity:1" fill="#2b1c10" d="M127.5 38.5c-1.051.722-1.718 1.722-2 3-.904-.709-1.237-1.709-1-3h3z"/><path style="opacity:1" fill="#2f8dbd" d="M127.5 38.5c2.755 1.461 4.588 3.795 5.5 7 .997 3.3 1.33 6.634 1 10-.383-.556-.883-.89-1.5-1h-2c-1.193-.47-1.86-1.47-2-3a39.537 39.537 0 0 1 1-5c-.247-1.213-.914-1.88-2-2 .073-1.527-.594-2.527-2-3 .282-1.278.949-2.278 2-3z"/><path style="opacity:1" fill="#04080b" d="M8.5 40.5c0 .667.333 1 1 1-.333 1-1 1.667-2 2-.342-.838-1.008-1.172-2-1 .79-.901 1.79-1.568 3-2z"/><path style="opacity:1" fill="#2f2116" d="M45.5 37.5c.88 2.111.88 4.111 0 6a36.213 36.213 0 0 1-2-4.5c.544-.717 1.21-1.217 2-1.5z"/><path style="opacity:1" fill="#39291c" d="m64.5 40.5 2 2c2.114 1.284 3.114 3.284 3 6-1.996-2.417-2.996-1.75-3 2h3c-1.068.934-2.401 1.268-4 1-.24-1.967.094-3.8 1-5.5-1.361-1.584-2.028-3.418-2-5.5z"/><path style="opacity:1" fill="#3592c4" d="M148.5 61.5v3c-.722-.418-1.222-1.084-1.5-2a133.158 133.158 0 0 1-5 12 14.759 14.759 0 0 0-4.5-3 5.575 5.575 0 0 0 1-3c-.172-.992.162-1.658 1-2 .466-4.137.466-8.47 0-13a80.095 80.095 0 0 1 3-7v-6c.06-.543.393-.876 1-1a12.409 12.409 0 0 1 2.5 4c.976 6.12 1.809 12.12 2.5 18z"/><path style="opacity:1" fill="#342112" d="M40.5 40.5c1.3 1.385 1.3 2.885 0 4.5-3.197.804-6.197.638-9-.5a32.437 32.437 0 0 0 8-.5c.837-1.011 1.17-2.178 1-3.5z"/><path style="opacity:1" fill="#e99035" d="M88.5 33.5c-1.826 1.955-2.326 4.288-1.5 7 .312 2.81 1.812 4.476 4.5 5 3.605 1.367 7.271 1.2 11-.5a8.434 8.434 0 0 0-4-.5l-1-2c-.067-1.459.266-2.792 1-4 1-.333 1.667-1 2-2 .522-1.72 1.522-3.053 3-4 4.47.986 9.137 1.32 14 1 .906 1.465 2.239 2.465 4 3a11.99 11.99 0 0 1 6-1v3h-3c-.237 1.291.096 2.291 1 3 1.406.473 2.073 1.473 2 3 .304.65.637 1.316 1 2-1.725 2.457-2.225 5.123-1.5 8 1.292 1.291 2.458 1.291 3.5 0h2c.791 2.19.791 4.19 0 6-1.42-2.849-3.42-3.516-6-2-1.406.473-2.073 1.473-2 3-.801 1.542-1.134 3.209-1 5-3.972 3.257-8.305 3.757-13 1.5 2.427-.902 4.76-1.736 7-2.5 1.946-.535 2.946-1.868 3-4v-1c1.276-.886 1.276-1.886 0-3-.607.124-.94.457-1 1-.904-.709-1.237-1.709-1-3 1.291.237 2.291-.096 3-1 .617-.11 1.117-.444 1.5-1a16.242 16.242 0 0 0 0-8c-.383-.556-.883-.89-1.5-1-.06-.543-.393-.876-1-1a86.97 86.97 0 0 0-2 7c-2.434-1.512-3.101-3.512-2-6 .639-.597.972-1.43 1-2.5.113-1.7-.553-2.866-2-3.5a5.728 5.728 0 0 0-3-1c-2.438-1.386-4.771-1.053-7 1 1.077 1.205 2.41 1.872 4 2a4.934 4.934 0 0 1-.5 3c-1.049-1.017-2.216-1.184-3.5-.5a29.291 29.291 0 0 0 7 2.5c4.402 4.482 5.069 9.482 2 15-.667 0-1-.333-1-1a12.93 12.93 0 0 0-.5-5c-.995.566-1.828 1.233-2.5 2a238.396 238.396 0 0 1-19 3c-2.548 1.538-2.548 3.204 0 5 .473 1.406 1.473 2.073 3 2-.342.838-1.008 1.172-2 1-2.386-.873-4.386-2.373-6-4.5a156.492 156.492 0 0 0-25 0 27.876 27.876 0 0 1-11 1.5c-1.461-1.186-2.795-1.186-4 0-1.249 1.636-2.916 2.803-5 3.5 1.634.493 3.3.66 5 .5h4c3.068.047 6.068.547 9 1.5 1.442.377 2.442 1.21 3 2.5-3.598 2.192-7.598 3.192-12 3 .93-.815 1.93-1.648 3-2.5a187.939 187.939 0 0 0-17 2.5h-7c-.59-1.266-1.09-2.6-1.5-4l-1 1c-.678-2.098-.51-4.098.5-6 1.32-1.442 2.986-2.109 5-2a186.2 186.2 0 0 1-2 3l1.5 1a467.507 467.507 0 0 0 18.5-8 145.004 145.004 0 0 1 21-1h1c3.476 1.143 7.142 1.31 11 .5.556-.383.89-.883 1-1.5a83.314 83.314 0 0 1 11-3c6.064.17 11.897-.83 17.5-3 .667-1 .667-2 0-3-4.677-3.59-9.51-3.924-14.5-1-2.751 1.95-5.751 1.95-9 0-1.787-1.317-3.454-.984-5 1-.929-1.189-1.262-2.522-1-4-.369-3.936.298-7.936 2-12 .958-.453 1.792-1.12 2.5-2 .464.594.631 1.261.5 2z"/><path style="opacity:1" fill="#231b14" d="M109.5 40.5c2.049.206 2.383 1.04 1 2.5.881.708 1.547 1.542 2 2.5a29.291 29.291 0 0 1-7-2.5c1.284-.684 2.451-.517 3.5.5a4.934 4.934 0 0 0 .5-3z"/><path style="opacity:1" fill="#202e39" d="M115.5 38.5c1.447.634 2.113 1.8 2 3.5-.028 1.07-.361 1.903-1 2.5a19.222 19.222 0 0 0-1-6z"/><path style="opacity:1" fill="#5b3515" d="M98.5 38.5c-.734 1.208-1.067 2.541-1 4-.624-.417-.957-1.084-1-2 .247-1.213.914-1.88 2-2z"/><path style="opacity:1" fill="#2f8cbb" d="M112.5 37.5a5.728 5.728 0 0 1 3 1c.65 1.935.983 3.935 1 6l-4 1c-.453-.958-1.119-1.792-2-2.5 1.383-1.46 1.049-2.294-1-2.5-1.067-2.38-.067-3.38 3-3z"/><path style="opacity:1" fill="#3d4045" d="M112.5 37.5c-3.067-.38-4.067.62-3 3-1.59-.128-2.923-.795-4-2 2.229-2.053 4.562-2.386 7-1z"/><path style="opacity:1" fill="#252c35" d="M98.5 44.5a8.434 8.434 0 0 1 4 .5c-3.729 1.7-7.395 1.867-11 .5 2.56.302 4.893-.032 7-1z"/><path style="opacity:1" fill="#ec9235" d="M38.5 24.5c.683 1.677 2.017 2.343 4 2-.215 1.679.452 2.679 2 3 1.105 1.1 2.438 1.767 4 2 .134 1.791-.2 3.458-1 5-.992-.172-1.658.162-2 1-.79.283-1.456.783-2 1.5a36.213 36.213 0 0 0 2 4.5c1.419.951 3.085 1.285 5 1 .067 1.459-.266 2.792-1 4-1.175-.219-2.175.114-3 1 .457.797 1.124 1.13 2 1 1.068.934 2.401 1.268 4 1-3.476 1.143-7.142 1.31-11 .5.556-.383.89-.883 1-1.5.79-.283 1.456-.783 2-1.5l-6-1.5c-2.146.134-3.146.8-3 2v1c-3.042-1.041-6.042-1.041-9 0-2.393-.853-3.726-2.52-4-5 3.018-.204 6.018-.537 9-1 2.803 1.138 5.803 1.304 9 .5 1.3-1.615 1.3-3.115 0-4.5-.342-.838-1.008-1.172-2-1-.11-.617-.444-1.117-1-1.5l5-1c-.556-.383-.89-.883-1-1.5v-2c-.97-1.13-2.136-2.13-3.5-3-.765.07-1.265.403-1.5 1h-1c.915-1.804.915-3.97 0-6.5a4.932 4.932 0 0 1 3-.5z"/><path style="opacity:1" fill="#1a1817" d="M127.5 35.5c9.278 8.313 11.445 18.313 6.5 30-5.463 10.99-14.296 17.49-26.5 19.5.556.383.889.883 1 1.5a28.222 28.222 0 0 0-12-.5 35.463 35.463 0 0 0 8.5 5.5 123.492 123.492 0 0 1 3.5-3l-1 4h-8c.11-.617.444-1.117 1-1.5-4.346-2.1-8.346-1.934-12 .5-3.703-1.33-7.37-1.164-11 .5-1.692 1.4-2.359 3.234-2 5.5h-2c1.14-2.693.308-3.36-2.5-2-.844 1.963-.344 3.296 1.5 4 .321 1.548 1.321 2.215 3 2-2.73 2.551-2.063 3.884 2 4 0 2 1 3 3 3 .902 1.841 2.236 3.174 4 4-.333 1-1 1.667-2 2-2.338-3.774-5.505-6.774-9.5-9a39.24 39.24 0 0 1-5.5-12 29.361 29.361 0 0 1-9 2c-1.333 0-2-.667-2-2 5.133.44 10.133-.56 15-3a61.355 61.355 0 0 1-11.5-3c-2.757 1.103-4.924 2.77-6.5 5-2.387-.66-4.72-.16-7 1.5.948.483 1.948.65 3 .5 0 .667-.333 1-1 1a8.434 8.434 0 0 1-4-.5A47.738 47.738 0 0 1 28 84.5c-1.438-3.321-1.605-6.654-.5-10l-1.5-1c-3.845 1.289-7.678 1.289-11.5 0v-1h10c.466-1.701.466-3.201 0-4.5-2.189-.322-4.189.178-6 1.5.304-.65.637-1.317 1-2-3.093-1.534-5.76-3.534-8-6a19.215 19.215 0 0 1 6.5 3c.21-1.558.71-2.892 1.5-4-.734 3.94.6 5.273 4 4 .71 2.342 2.044 2.675 4 1v1c-1.01 1.902-1.178 3.902-.5 6l1-1c.41 1.4.91 2.734 1.5 4-2.084 8.925 1.583 12.925 11 12-1.452.802-3.118 1.302-5 1.5 6.956 2.238 13.622 1.571 20-2a22.763 22.763 0 0 1-5-4c2.547.34 5.047 1.173 7.5 2.5.765-.07 1.265-.403 1.5-1 1.59 1.924 3.423 2.257 5.5 1 .609-2.565.109-4.898-1.5-7 .996-.086 1.83.248 2.5 1 .497 2.31.663 4.643.5 7 2.567-.222 4.9-.888 7-2 1.791.134 3.458-.2 5-1 .235.597.735.93 1.5 1l4.5-1.5c-1.34-2.149-.673-3.316 2-3.5-.734 1.208-1.067 2.541-1 4a18.436 18.436 0 0 0 6-.5c-.752-.67-1.086-1.504-1-2.5a14.185 14.185 0 0 0 4 3 88.715 88.715 0 0 1 4-2c-1.143 1.6-.476 2.267 2 2 5.148-1.133 5.148-1.8 0-2 2.579-1.326 5.079-.993 7.5 1 1.169-.508 2.002-1.342 2.5-2.5 3.692.004 7.025-.996 10-3l-1-1a17.642 17.642 0 0 0-6 .5c1.124-1.309 2.624-1.975 4.5-2 1.841.625 3.674.792 5.5.5 4.939-3.728 7.939-8.561 9-14.5.791-1.81.791-3.81 0-6 .617.11 1.117.444 1.5 1 .33-3.366-.003-6.7-1-10-.912-3.205-2.745-5.539-5.5-7v-3z"/><path style="opacity:1" fill="#1c140c" d="M7.5 43.5c.086.996-.248 1.83-1 2.5 1.323.816 1.99 1.983 2 3.5-2.657-2.994-3.323-2.66-2 1a4.453 4.453 0 0 1-1.5 2c-1.07-3.642-.236-6.642 2.5-9z"/><path style="opacity:1" fill="#325b75" d="M42.5 50.5c-2.45.202-4.783-.131-7-1-.146-1.2.854-1.866 3-2l6 1.5c-.544.717-1.21 1.217-2 1.5z"/><path style="opacity:1" fill="#e78f34" d="M131.5 32.5c1.602 1.574 3.602 2.24 6 2 .721 1.882 1.721 2.215 3 1 .997-.03 1.664.47 2 1.5-1.015 1.373-1.015 2.54 0 3.5v6c-2.521 1.53-3.521 3.864-3 7-1.071 4.178-1.071 8.51 0 13-.838.342-1.172 1.008-1 2-2.954 1.814-3.288 3.814-1 6 1.633-1.244 2.633-.744 3 1.5-.248 1.75-1.248 2.582-3 2.5a46.165 46.165 0 0 1-5.5-3c-2.138.93-3.305 2.597-3.5 5-3.416.028-6.416 1.028-9 3a18.47 18.47 0 0 0-6 4c-.667 0-1 .333-1 1-.934 1.068-1.268 2.401-1 4h-4l1-4v-2c-.111-.617-.444-1.117-1-1.5 12.204-2.01 21.037-8.51 26.5-19.5 4.945-11.687 2.778-21.687-6.5-30-.453-.958-1.119-1.792-2-2.5a18.437 18.437 0 0 1 6-.5z"/><path style="opacity:1" fill="#3b627d" d="M134.5 36.5c5.276.793 7.109 3.793 5.5 9-3.872-1.742-5.705-4.742-5.5-9z"/><path style="opacity:1" fill="#0f3246" d="M142.5 46.5a80.095 80.095 0 0 0-3 7c-.521-3.136.479-5.47 3-7z"/><path style="opacity:1" fill="#346c8c" d="M49.5 48.5c.876-.13 1.543.203 2 1-.825.886-1.825 1.219-3 1-.876.13-1.543-.203-2-1 .825-.886 1.825-1.219 3-1z"/><path style="opacity:1" fill="#12171b" d="M82.5 31.5c.722 1.051 1.722 1.718 3 2-1.702 4.064-2.369 8.064-2 12-.262 1.478.071 2.811 1 4 1.546-1.984 3.213-2.317 5-1-2.136.038-3.47.705-4 2h-16v-2c2.891.903 5.891 1.236 9 1a94.77 94.77 0 0 1 4-18z"/><path style="opacity:1" fill="#3091c3" d="M83.5 45.5a70.679 70.679 0 0 0-2 4c-1.323-3.413-1.156-6.747.5-10l1.5 6z"/><path style="opacity:1" fill="#32383f" d="M121.5 44.5c-.44 2.344-1.44 4.344-3 6a86.97 86.97 0 0 1 2-7c.607.124.94.457 1 1z"/><path style="opacity:1" fill="#30759c" d="M121.5 44.5c.617.11 1.117.444 1.5 1a16.242 16.242 0 0 1 0 8c-.383.556-.883.89-1.5 1h-3v-4c1.56-1.656 2.56-3.656 3-6z"/><path style="opacity:1" fill="#2e363e" d="M9.5 50.5c3.378-.609 5.378.724 6 4-1.772-1.79-3.772-3.123-6-4z"/><path style="opacity:1" fill="#603b16" d="M35.5 49.5c2.217.869 4.55 1.202 7 1-.11.617-.444 1.117-1 1.5 3.858.81 7.524.643 11-.5h2v1l-3 3h-1a150.285 150.285 0 0 1-12-3l-3-2v-1z"/><path style="opacity:1" fill="#ea9336" d="M60.5 51.5c-1.902 1.651-3.902 1.984-6 1v-1c1.888-.775 3.888-.775 6 0z"/><path style="opacity:1" fill="#348cbb" d="M64.5 38.5v2c-.028 2.082.639 3.916 2 5.5-.906 1.7-1.24 3.533-1 5.5 1.599.268 2.932-.066 4-1h16c3.964 1.298 8.13 2.298 12.5 3a9.623 9.623 0 0 0 4.5-1.5c-2.41-.057-3.743-1.224-4-3.5 4.99-2.924 9.823-2.59 14.5 1 .667 1 .667 2 0 3-5.603 2.17-11.436 3.17-17.5 3a32.437 32.437 0 0 0-8 .5c-1.442.377-2.442 1.21-3 2.5a45.793 45.793 0 0 1-12 1h-1c-5.485-.827-11.152-1.327-17-1.5 1.237-.232 2.237-.732 3-1.5a165.822 165.822 0 0 0 17-2c7.873-1.282 7.873-1.949 0-2-5.888-.11-11.554.89-17 3a27.57 27.57 0 0 1-5 1.5c.548 1.596-.118 2.763-2 3.5a467.507 467.507 0 0 1-18.5 8l-1.5-1a186.2 186.2 0 0 0 2-3c1.653-.16 2.986-.826 4-2l9-4c1.934-.61 3.6-1.61 5-3h1a62.519 62.519 0 0 0 13-3.5 8.434 8.434 0 0 0-4-.5c-.11-.617-.444-1.117-1-1.5a24.939 24.939 0 0 0-7-.5c-2.363-7.952-2.53-15.952-.5-24 1.25 2.67 3.083 4.837 5.5 6.5 1.612.72 3.112.554 4.5-.5.156 2.69.99 5.024 2.5 7z"/><path style="opacity:1" fill="#db8731" d="M69.5 48.5v2h-3c.004-3.75 1.004-4.417 3-2z"/><path style="opacity:1" fill="#231d1a" d="m35.5 50.5 3 2-2 2c-.453-.958-1.12-1.792-2-2.5-2.865-.183-5.531-.683-8-1.5 2.958-1.041 5.958-1.041 9 0z"/><path style="opacity:1" fill="#1f3a4b" d="M89.5 48.5c3.249 1.95 6.249 1.95 9 0 .257 2.276 1.59 3.443 4 3.5a9.623 9.623 0 0 1-4.5 1.5c-4.37-.702-8.536-1.702-12.5-3 .53-1.295 1.864-1.962 4-2z"/><path style="opacity:1" fill="#2f3942" d="M127.5 44.5c1.086.12 1.753.787 2 2a39.537 39.537 0 0 0-1 5c.14 1.53.807 2.53 2 3-1.042 1.291-2.208 1.291-3.5 0-.725-2.877-.225-5.543 1.5-8a44.147 44.147 0 0 1-1-2z"/><path style="opacity:1" fill="#111213" d="M60.5 51.5a8.434 8.434 0 0 1 4 .5 62.519 62.519 0 0 1-13 3.5l3-3c2.098.984 4.098.651 6-1z"/><path style="opacity:1" fill="#c7792a" d="M74.5 52.5v2a165.822 165.822 0 0 1-17 2v-1c5.446-2.11 11.112-3.11 17-3z"/><path style="opacity:1" fill="#4e3119" d="M74.5 52.5c7.873.051 7.873.718 0 2v-2z"/><path style="opacity:1" fill="#2c7198" d="M11.5 59.5c-2.584-.548-3.584-2.215-3-5 2.824-1.7 4.491-.867 5 2.5-.184 1.376-.85 2.209-2 2.5z"/><path style="opacity:1" fill="#1b1c1e" d="M95.5 55.5a83.314 83.314 0 0 0-11 3c.558-1.29 1.558-2.123 3-2.5a32.437 32.437 0 0 1 8-.5z"/><path style="opacity:1" fill="#191817" d="m113.5 59.5-2 2a6.845 6.845 0 0 1 1-4c-.457-.797-1.124-1.13-2-1 .672-.767 1.505-1.434 2.5-2 .494 1.634.66 3.3.5 5z"/><path style="opacity:1" fill="#422c17" d="M50.5 55.5c-1.4 1.39-3.066 2.39-5 3-1.517-1.235-3.184-1.235-5 0-1.196-.346-1.196-.846 0-1.5 3.188-1.316 6.522-1.816 10-1.5z"/><path style="opacity:1" fill="#2f84b1" d="M110.5 56.5c.876-.13 1.543.203 2 1a6.845 6.845 0 0 0-1 4c-1.885 1.812-4.219 2.978-7 3.5a52.08 52.08 0 0 1-10 1.5c-1.527.073-2.527-.594-3-2-1.062-1.734-1.062-3.4 0-5a238.396 238.396 0 0 0 19-3z"/><path style="opacity:1" fill="#171717" d="M126.5 58.5c2.58-1.516 4.58-.849 6 2l-6-2z"/><path style="opacity:1" fill="#0f171d" d="M139.5 53.5c.466 4.53.466 8.863 0 13-1.071-4.49-1.071-8.822 0-13z"/><path style="opacity:1" fill="#142b3b" d="M57.5 55.5v1c-.763.768-1.763 1.268-3 1.5 5.848.173 11.515.673 17 1.5-7.035-.174-14.035.16-21 1 1.882-.737 2.548-1.904 2-3.5a27.57 27.57 0 0 0 5-1.5z"/><path style="opacity:1" fill="#3192c5" d="M11.5 61.5c2.24 2.466 4.907 4.466 8 6-.363.683-.696 1.35-1 2a5.728 5.728 0 0 0-3-1 143.912 143.912 0 0 0-7-.5c-3.062-2.957-3.728-6.457-2-10.5 1.11 2.052 2.777 3.386 5 4z"/><path style="opacity:1" fill="#140c04" d="M84.5 58.5c-.11.617-.444 1.117-1 1.5-3.858.81-7.524.643-11-.5 4.066.193 8.066-.14 12-1z"/><path style="opacity:1" fill="#412f1b" d="M119.5 58.5c.06-.543.393-.876 1-1 1.276 1.114 1.276 2.114 0 3 .172-.992-.162-1.658-1-2z"/><path style="opacity:1" fill="#251f1a" d="M126.5 58.5c.073 1.527-.594 2.527-2 3-.073-1.527.594-2.527 2-3z"/><path style="opacity:1" fill="#3390c1" d="m126.5 58.5 6 2c-1.061 5.939-4.061 10.772-9 14.5-1.826.292-3.659.125-5.5-.5-1.876.025-3.376.691-4.5 2h-1c-4.037.324-6.703-1.342-8-5 0-.667.333-1 1-1 4.909-.3 9.909-.467 15-.5 1.926-.422 2.926-1.59 3-3.5-.134-1.791.199-3.458 1-5 1.406-.473 2.073-1.473 2-3z"/><path style="opacity:1" fill="#347ea6" d="M23.5 59.5c1.062 1.734 1.062 3.4 0 5-3.4 1.273-4.734-.06-4-4 1.038-2.02 2.372-2.353 4-1z"/><path style="opacity:1" fill="#e18b33" d="M5.5 42.5c.992-.172 1.658.162 2 1-2.736 2.358-3.57 5.358-2.5 9a4.453 4.453 0 0 0 1.5-2c-1.323-3.66-.657-3.994 2-1 0 .667.333 1 1 1 2.228.877 4.228 2.21 6 4-.278 1.846.389 3.18 2 4a6.893 6.893 0 0 1 4-2c1.677.687 3.344 1.353 5 2a10.521 10.521 0 0 0 2.5 3 14.292 14.292 0 0 1 6.5-2.5c1.274-.977 1.274-1.81 0-2.5l1-2 2-2a150.285 150.285 0 0 0 12 3c-3.478-.316-6.812.184-10 1.5-1.196.654-1.196 1.154 0 1.5 1.816-1.235 3.483-1.235 5 0l-9 4c.453-.958 1.12-1.792 2-2.5l-1-.5a126.295 126.295 0 0 1-10 6c-1.956 1.675-3.29 1.342-4-1 2.548-1.538 2.548-3.204 0-5-1.628-1.353-2.962-1.02-4 1-.79 1.108-1.29 2.442-1.5 4a19.215 19.215 0 0 0-6.5-3v-2c1.15-.291 1.816-1.124 2-2.5-.509-3.367-2.176-4.2-5-2.5-.617.11-1.117.444-1.5 1-.974-2.378-1.641-2.044-2 1-4.123-3.569-5.29-7.902-3.5-13 1.797 1.432 3.13 1.099 4-1z"/><path style="opacity:1" fill="#2a2a2c" d="M35.5 56.5c1.274.69 1.274 1.523 0 2.5a14.292 14.292 0 0 0-6.5 2.5 10.521 10.521 0 0 1-2.5-3c3.405 1.065 6.405.398 9-2z"/><path style="opacity:1" fill="#1c232a" d="M23.5 59.5c2.548 1.796 2.548 3.462 0 5 1.062-1.6 1.062-3.266 0-5z"/><path style="opacity:1" fill="#131313" d="M116.5 44.5c-1.101 2.488-.434 4.488 2 6v4h3c-.709.904-1.709 1.237-3 1-.237 1.291.096 2.291 1 3a1215.836 1215.836 0 0 0-4 6c.457.797 1.124 1.13 2 1-2.24.764-4.573 1.598-7 2.5 4.695 2.257 9.028 1.757 13-1.5-.074 1.91-1.074 3.078-3 3.5-5.091.033-10.091.2-15 .5-1.205-1.186-2.539-1.186-4 0-7.901-1.313-15.901-1.313-24 0-.06-.543-.393-.876-1-1a78.837 78.837 0 0 1-15 7.5c.916.278 1.583.778 2 1.5h-3c-4.559-.857-9.225-.524-14 1a4.452 4.452 0 0 0 2 1.5 59.917 59.917 0 0 0-4 5.5 6.845 6.845 0 0 1 1-4c-3.796-.395-6.796-2.061-9-5 4.853-.313 9.52-.98 14-2 4.402.192 8.402-.808 12-3 7.163-4.882 15.163-7.049 24-6.5l-2-2c-4.986.823-9.986.656-15-.5a568.767 568.767 0 0 0-19 4v-3c3.773.237 7.44-.263 11-1.5a156.492 156.492 0 0 1 25 0c1.614 2.127 3.614 3.627 6 4.5 8.615 1.937 15.948-.397 22-7 3.069-5.518 2.402-10.518-2-15l4-1z"/><path style="opacity:1" fill="#131c23" d="M91.5 59.5c-1.062 1.6-1.062 3.266 0 5-2.548-1.796-2.548-3.462 0-5z"/><path style="opacity:1" fill="#2f8dbf" d="M119.5 58.5c.838.342 1.172 1.008 1 2v1c-1.474.936-2.474 2.27-3 4-.876.13-1.543-.203-2-1 1.344-2.029 2.677-4.029 4-6z"/><path style="opacity:1" fill="#583717" d="M36.5 62.5c-1.014 1.174-2.347 1.84-4 2-2.014-.109-3.68.558-5 2v-1a126.295 126.295 0 0 0 10-6l1 .5c-.88.708-1.547 1.542-2 2.5z"/><path style="opacity:1" fill="#2f2825" d="M120.5 61.5c-.054 2.132-1.054 3.465-3 4 .526-1.73 1.526-3.064 3-4z"/><path style="opacity:1" fill="#3392c4" d="M62.5 72.5c-.558-1.29-1.558-2.123-3-2.5a30.444 30.444 0 0 0-9-1.5v-1a568.767 568.767 0 0 1 19-4c5.014 1.156 10.014 1.323 15 .5l2 2c-8.837-.549-16.837 1.618-24 6.5z"/><path style="opacity:1" fill="#6e451f" d="M113.5 59.5c0 .667.333 1 1 1-6.052 6.603-13.385 8.937-22 7 .992.172 1.658-.162 2-1a52.08 52.08 0 0 0 10-1.5c2.781-.522 5.115-1.688 7-3.5l2-2z"/><path style="opacity:1" fill="#282019" d="M46.5 64.5v4c-1.7.16-3.366-.007-5-.5 2.084-.697 3.751-1.864 5-3.5z"/><path style="opacity:1" fill="#a19e9c" d="M50.5 64.5v4h-4v-4c1.205-1.186 2.539-1.186 4 0z"/><path style="opacity:1" fill="#e58d34" d="M14.5 72.5c-5.49-2.105-5.157-3.438 1-4a5.728 5.728 0 0 1 3 1c1.811-1.322 3.811-1.822 6-1.5.466 1.299.466 2.799 0 4.5h-10z"/><path style="opacity:1" fill="#e98f35" d="M77.5 70.5c-1.291 1.042-1.291 2.208 0 3.5l9 1a58.88 58.88 0 0 0 10 3.5c2.747.313 5.414-.02 8-1-2.354-1.746-3.354-4.08-3-7 1.461-1.186 2.795-1.186 4 0-.667 0-1 .333-1 1-.783 3.747 1.051 5.747 5.5 6 1.07-.028 1.903-.361 2.5-1h1a17.642 17.642 0 0 1 6-.5l1 1c-2.975 2.004-6.308 3.004-10 3-.498 1.158-1.331 1.992-2.5 2.5-2.421-1.993-4.921-2.326-7.5-1h-2a88.715 88.715 0 0 0-4 2 14.185 14.185 0 0 1-4-3l-4-1c-2.673.184-3.34 1.351-2 3.5L80 84.5c-.765-.07-1.265-.403-1.5-1 1.877-1.16 2.377-2.826 1.5-5-2.273-1.311-4.44-1.311-6.5 0-3.896 1.74-3.896 3.74 0 6-2.1 1.112-4.433 1.778-7 2a24.939 24.939 0 0 0-.5-7c-.67-.752-1.504-1.086-2.5-1-.417-.722-1.084-1.222-2-1.5a78.837 78.837 0 0 0 15-7.5c.607.124.94.457 1 1z"/><path style="opacity:1" fill="#2e82af" d="M101.5 70.5c-1.307 1.723-1.307 3.556 0 5.5-2.153.1-3.82.933-5 2.5a58.88 58.88 0 0 1-10-3.5l-9-1c-1.291-1.292-1.291-2.458 0-3.5 8.099-1.313 16.099-1.313 24 0z"/><path style="opacity:1" fill="#d28332" d="M148.5 65.5h1v2c-.973 2.448-1.306 5.115-1 8-2.473-.412-3.806.588-4 3l-2 1a177.608 177.608 0 0 1 6-14z"/><path style="opacity:1" fill="#2f2925" d="M101.5 70.5c-.354 2.92.646 5.254 3 7a16.868 16.868 0 0 1-8 1c1.18-1.567 2.847-2.4 5-2.5-1.307-1.944-1.307-3.777 0-5.5z"/><path style="opacity:1" fill="#100b07" d="M29.5 75.5h7l-2 2c-2.053.098-3.72-.569-5-2z"/><path style="opacity:1" fill="#784a1b" d="M50.5 75.5c-4.48 1.02-9.147 1.687-14 2h-2l2-2a187.939 187.939 0 0 1 17-2.5 81.718 81.718 0 0 0-3 2.5z"/><path style="opacity:1" fill="#1a191a" d="M104.5 71.5c1.297 3.658 3.963 5.324 8 5-.597.639-1.43.972-2.5 1-4.449-.253-6.283-2.253-5.5-6z"/><path style="opacity:1" fill="#3294c6" d="M29.5 75.5c1.28 1.431 2.947 2.098 5 2h2c2.204 2.939 5.204 4.605 9 5a6.845 6.845 0 0 0-1 4c-1.599-.268-2.932.066-4 1-9.417.925-13.084-3.075-11-12z"/><path style="opacity:1" fill="#2f241b" d="M73.5 78.5c2.06-1.311 4.227-1.311 6.5 0 .877 2.174.377 3.84-1.5 5v-5h-5z"/><path style="opacity:1" fill="#3189b8" d="M137.5 78.5c-5.754 9.049-14.087 13.715-25 14v-4c0-.667.333-1 1-1 2.792-.123 4.792-1.456 6-4 2.584-1.972 5.584-2.972 9-3 1.359-.507 2.359-1.507 3-3a11.99 11.99 0 0 0 6 1z"/><path style="opacity:1" fill="#1a1b1d" d="M60.5 78.5c-.841 1.88-1.175 3.88-1 6-1.195-.366-1.861-1.199-2-2.5.207-1.95 1.207-3.116 3-3.5z"/><path style="opacity:1" fill="#3090c1" d="M60.5 78.5h3c1.609 2.102 2.109 4.435 1.5 7-2.077 1.257-3.91.924-5.5-1-.175-2.12.159-4.12 1-6z"/><path style="opacity:1" fill="#262322" d="M73.5 78.5c-1.141 1.951-1.141 3.951 0 6-3.896-2.26-3.896-4.26 0-6z"/><path style="opacity:1" fill="#3294c7" d="M73.5 78.5h5v5c-1.542.8-3.209 1.134-5 1-1.141-2.049-1.141-4.049 0-6z"/><path style="opacity:1" fill="#282f36" d="M137.5 78.5a11.99 11.99 0 0 1-6-1c-.641 1.493-1.641 2.493-3 3 .195-2.403 1.362-4.07 3.5-5a46.165 46.165 0 0 0 5.5 3z"/><path style="opacity:1" fill="#2e8aba" d="m86.5 79.5 4 1c-.086.996.248 1.83 1 2.5a18.436 18.436 0 0 1-6 .5c-.067-1.459.266-2.792 1-4z"/><path style="opacity:1" fill="#297eab" d="M98.5 81.5h2c5.148.2 5.148.867 0 2-2.476.267-3.143-.4-2-2z"/><path style="opacity:1" fill="#e48d34" d="M60.5 78.5c-1.793.384-2.793 1.55-3 3.5.139 1.301.805 2.134 2 2.5-.235.597-.735.93-1.5 1-2.453-1.327-4.953-2.16-7.5-2.5a22.763 22.763 0 0 0 5 4c-6.378 3.571-13.044 4.238-20 2 1.882-.198 3.548-.698 5-1.5 1.068-.934 2.401-1.268 4-1a59.917 59.917 0 0 1 4-5.5 4.452 4.452 0 0 1-2-1.5c4.775-1.524 9.441-1.857 14-1z"/><path style="opacity:1" fill="#291c0f" d="M119.5 83.5c-1.208 2.544-3.208 3.877-6 4a18.47 18.47 0 0 1 6-4z"/><path style="opacity:1" fill="#2f8ebe" d="M108.5 86.5v2a123.492 123.492 0 0 0-3.5 3 35.463 35.463 0 0 1-8.5-5.5 28.222 28.222 0 0 1 12 .5z"/><path style="opacity:1" fill="#161515" d="M148.5 64.5v1a177.608 177.608 0 0 0-6 14 36.14 36.14 0 0 0-7 7.5c6.743-.412 10.576-3.912 11.5-10.5-.708.88-1.542 1.547-2.5 2 .194-2.412 1.527-3.412 4-3-.306-2.885.027-5.552 1-8v11c-3.852 7.42-9.852 10.92-18 10.5 2.428 4.906 1.761 9.406-2 13.5-.543-.06-.876-.393-1-1 2.298-2.25 3.131-4.916 2.5-8l-5 3a38.728 38.728 0 0 1-2.5 5c.086-.996-.248-1.83-1-2.5l2-2-11-1c-2.525-.424-4.525-1.59-6-3.5h4c-.268-1.599.066-2.932 1-4v4c10.913-.285 19.246-4.951 25-14 1.752.082 2.752-.75 3-2.5-.367-2.244-1.367-2.744-3-1.5-2.288-2.186-1.954-4.186 1-6a5.575 5.575 0 0 1-1 3 14.759 14.759 0 0 1 4.5 3 133.158 133.158 0 0 0 5-12c.278.916.778 1.582 1.5 2z"/><path style="opacity:1" fill="#3090c2" d="m142.5 79.5 2-1c.958-.453 1.792-1.12 2.5-2-.924 6.588-4.757 10.088-11.5 10.5a36.14 36.14 0 0 1 7-7.5z"/><path style="opacity:1" fill="#308fc0" d="M56.5 93.5h-1l-2-1c1.576-2.23 3.743-3.897 6.5-5a61.355 61.355 0 0 0 11.5 3c-4.867 2.44-9.867 3.44-15 3z"/><path style="opacity:1" fill="#c57b2d" d="M81.5 86.5c4.346-.166 8.68.001 13 .5a158.88 158.88 0 0 0-21 4.5c-1.333-.667-1.333-1.333 0-2 2.884-.71 5.551-1.71 8-3z"/><path style="opacity:1" fill="#3090c1" d="M99.5 92.5c-1.56.02-3.06.352-4.5 1-1.88-1.513-4.046-2.18-6.5-2 3.654-2.434 7.654-2.6 12-.5-.556.383-.89.883-1 1.5z"/><path style="opacity:1" fill="#e08a33" d="m53.5 92.5 2 1c-1.765.961-3.765 1.295-6 1a4.932 4.932 0 0 1-3-.5c2.28-1.66 4.613-2.16 7-1.5z"/><path style="opacity:1" fill="#3397cb" d="M84.5 93.5c1.667 1.354 3 3.02 4 5-.573 2.585-2.24 3.585-5 3h-1c-2.75-1.508-3.584-3.841-2.5-7 1.356-.88 2.856-1.213 4.5-1z"/><path style="opacity:1" fill="#46362a" d="M88.5 91.5c2.454-.18 4.62.487 6.5 2 1.44-.648 2.94-.98 4.5-1-3.858 2.702-7.525 2.369-11-1z"/><path style="opacity:1" fill="#7e5f44" d="M55.5 93.5h1c0 1.333.667 2 2 2-3.333 1.333-6.667 1.333-10 0 .667 0 1-.333 1-1 2.235.295 4.235-.039 6-1z"/><path style="opacity:1" fill="#e79035" d="M73.5 97.5c-.838.342-1.172 1.008-1 2-1.844-.704-2.344-2.037-1.5-4 2.808-1.36 3.64-.693 2.5 2z"/><path style="opacity:1" fill="#3d8fbc" d="M129.5 102.5a6.547 6.547 0 0 1-3 3c-2.366.368-4.699-.299-7-2a2.428 2.428 0 0 1 .5-2c1.292 1.291 2.458 1.291 3.5 0a38.728 38.728 0 0 0 2.5-5l5-3c.631 3.084-.202 5.75-2.5 8 .124.607.457.94 1 1z"/><path style="opacity:1" fill="#e78f34" d="M88.5 91.5c3.475 3.369 7.142 3.702 11 1h8c1.475 1.91 3.475 3.076 6 3.5l11 1-2 2c.752.67 1.086 1.504 1 2.5-4.312-1.693-8.312-1.193-12 1.5.544.717 1.211 1.217 2 1.5-3.863.827-7.863 1.661-12 2.5 2.31.497 4.643.663 7 .5a12.93 12.93 0 0 1 5 .5 14.698 14.698 0 0 0-3 3.5c-1 .333-1.667 1-2 2-1.548.321-2.215 1.321-2 3a8.43 8.43 0 0 1-4-.5 60.631 60.631 0 0 1-3.5-6.5c-.816-1.323-1.983-1.989-3.5-2 4.635-2.653 9.301-5.319 14-8-2.459.19-4.126-.81-5-3-2.667-1.333-5.333-1.333-8 0-3.69.836-4.69 2.836-3 6-2.333 1.333-4.667 1.333-7 0h3c1.263-4.903-.403-7.903-5-9-1.446-1.113-3.113-1.28-5-.5-.83 1.816-1.663 3.65-2.5 5.5-.383-.556-.883-.89-1.5-1-.359-2.266.308-4.1 2-5.5 3.63-1.664 7.297-1.83 11-.5z"/><path style="opacity:1" fill="#318dbe" d="M104.5 96.5c.214 1.644-.12 3.144-1 4.5a21.34 21.34 0 0 1-9 1.5c-.248-2.358.42-4.358 2-6 2.667-1.333 5.333-1.333 8 0z"/><path style="opacity:1" fill="#7c4d1e" d="M109.5 99.5c2.027-1.588 4.361-2.088 7-1.5a17.758 17.758 0 0 1-7 1.5z"/><path style="opacity:1" fill="#3183af" d="M73.5 97.5h2l1 4h-1c-1.679.215-2.679-.452-3-2-.172-.992.162-1.658 1-2z"/><path style="opacity:1" fill="#181b1f" d="M84.5 93.5c4.597 1.097 6.263 4.097 5 9h-3c-1.291.237-2.291-.096-3-1 2.76.585 4.427-.415 5-3-1-1.98-2.333-3.646-4-5z"/><path style="opacity:1" fill="#286282" d="M123.5 101.5c-1.042 1.291-2.208 1.291-3.5 0a2.428 2.428 0 0 0-.5 2v1c-2 1.333-4 1.333-6 0-.789-.283-1.456-.783-2-1.5 3.688-2.693 7.688-3.193 12-1.5z"/><path style="opacity:1" fill="#d88631" d="M75.5 101.5h1c2.493-.369 3.16.297 2 2-.838.342-1.172 1.008-1 2-4.063-.116-4.73-1.449-2-4z"/><path style="opacity:1" fill="#18191a" d="M84.5 93.5c-1.644-.213-3.144.12-4.5 1-1.084 3.159-.25 5.492 2.5 7-2.597.221-2.597.721 0 1.5a22.104 22.104 0 0 0 7.5 1.5c1.986-.069 3.486-.735 4.5-2a21.34 21.34 0 0 0 9-1.5c.88-1.356 1.214-2.856 1-4.5.874 2.19 2.541 3.19 5 3-4.699 2.681-9.365 5.347-14 8a233.739 233.739 0 0 1-12-.5 38.44 38.44 0 0 1 5 5.5h-4c.929-1.822.262-3.155-2-4-.987-2.051-2.32-3.718-4-5 1.16-1.703.493-2.369-2-2l-1-4c.617.11 1.117.444 1.5 1 .837-1.85 1.67-3.684 2.5-5.5 1.887-.78 3.554-.613 5 .5z"/><path style="opacity:1" fill="#37404b" d="M96.5 96.5c-1.58 1.642-2.248 3.642-2 6h-1c-1.69-3.164-.69-5.164 3-6z"/><path style="opacity:1" fill="#87531e" d="M82.5 101.5h1c.709.904 1.709 1.237 3 1 2.333 1.333 4.667 1.333 7 0h1c-1.014 1.265-2.514 1.931-4.5 2a22.104 22.104 0 0 1-7.5-1.5c-2.597-.779-2.597-1.279 0-1.5z"/><path style="opacity:1" fill="#2877a0" d="M78.5 103.5c1.68 1.282 3.013 2.949 4 5h-2c-2 0-3-1-3-3-.172-.992.162-1.658 1-2z"/><path style="opacity:1" fill="#151718" d="M119.5 104.5v-1c2.301 1.701 4.634 2.368 7 2-.61 1.934-1.61 3.601-3 5-1.279-1.468-2.946-2.135-5-2-3.053.072-5.719 1.072-8 3a14.698 14.698 0 0 1 3-3.5 12.93 12.93 0 0 0-5-.5c4.147-.825 8.481-1.325 13-1.5-.544-.717-1.211-1.217-2-1.5z"/><path style="opacity:1" fill="#7b4b1b" d="M113.5 104.5c2 1.333 4 1.333 6 0 .789.283 1.456.783 2 1.5-4.519.175-8.853.675-13 1.5a24.935 24.935 0 0 1-7-.5c4.137-.839 8.137-1.673 12-2.5z"/><path style="opacity:1" fill="#3294c7" d="M95.5 107.5a29.595 29.595 0 0 1 5 7.5 8.43 8.43 0 0 1-4 .5c-1.714-1.238-3.714-1.905-6-2-.342-.838-1.008-1.172-2-1a38.44 38.44 0 0 0-5-5.5c3.941.267 7.941.434 12 .5z"/><path style="opacity:1" fill="#318ebe" d="M118.5 108.5c.763.768 1.763 1.268 3 1.5-3.634 3.817-7.967 5.984-13 6.5-1.125-.848-1.125-1.848 0-3 .333-1 1-1.667 2-2 2.281-1.928 4.947-2.928 8-3z"/><path style="opacity:1" fill="#cb7d2d" d="M80.5 108.5h2c2.262.845 2.929 2.178 2 4-1.764-.826-3.098-2.159-4-4z"/><path style="opacity:1" fill="#2f5167" d="M104.5 108.5c1.788-.285 3.455.048 5 1a21.614 21.614 0 0 1-5 4c-2.484-1.869-2.484-3.536 0-5z"/><path style="opacity:.945" fill="#414a51" d="M118.5 108.5c2.054-.135 3.721.532 5 2-3.9 4.539-8.9 6.872-15 7v-1c5.033-.516 9.366-2.683 13-6.5-1.237-.232-2.237-.732-3-1.5z"/><path style="opacity:1" fill="#3b89b5" d="M84.5 112.5h4v4c-1.975-.322-3.642-.322-5 0-.838-.342-1.172-1.008-1-2 1-.333 1.667-1 2-2z"/><path style="opacity:1" fill="#1c1a19" d="M95.5 107.5c1.517.011 2.684.677 3.5 2a60.631 60.631 0 0 0 3.5 6.5 8.43 8.43 0 0 0 4 .5c-.215-1.679.452-2.679 2-3-1.125 1.152-1.125 2.152 0 3v1a54.968 54.968 0 0 1-12-1v-1a8.43 8.43 0 0 0 4-.5 29.595 29.595 0 0 0-5-7.5z"/><path style="opacity:1" fill="#19242d" d="M88.5 112.5c.992-.172 1.658.162 2 1-.951 1.419-1.284 3.085-1 5h-1c-1.55-1.22-3.216-1.22-5 0v-2c1.358-.322 3.025-.322 5 0v-4z"/><path style="opacity:1" fill="#7c5b3e" d="M88.5 118.5c-1.175-.219-2.175.114-3 1a16.062 16.062 0 0 1 2 5c-1.816-1.618-3.15-3.618-4-6 1.784-1.22 3.45-1.22 5 0z"/><path style="opacity:1" fill="#e88f36" d="M88.5 118.5h1a18.626 18.626 0 0 0 3 8.5 2.429 2.429 0 0 1-2 .5 6.544 6.544 0 0 1-3-3 16.062 16.062 0 0 0-2-5c.825-.886 1.825-1.219 3-1z"/><path style="opacity:1" fill="#76675b" d="M90.5 113.5c2.286.095 4.286.762 6 2v1a18.158 18.158 0 0 1-5.5-2c-.74 7.18 1.76 12.847 7.5 17h-3a22.755 22.755 0 0 1-5-4 2.429 2.429 0 0 0 2-.5 18.626 18.626 0 0 1-3-8.5c-.284-1.915.049-3.581 1-5z"/></svg>