<svg xmlns="http://www.w3.org/2000/svg" width="382" height="132" style="shape-rendering:geometricPrecision;text-rendering:geometricPrecision;image-rendering:optimizeQuality;fill-rule:evenodd;clip-rule:evenodd"><path style="opacity:1" fill="#0e1116" d="M-.5-.5h382v132H-.5V-.5z"/><path style="opacity:1" fill="#dfe5ea" d="M102.5 37.5c8.806-.036 11.139 3.797 7 11.5-10.085.76-12.418-3.073-7-11.5z"/><path style="opacity:1" fill="#e0e6eb" d="M78.5 40.5h11v61a50.464 50.464 0 0 1-10-.5L51 60.5c-.5 13.663-.667 27.33-.5 41h-12c-.167-20.336 0-40.67.5-61 3.667-1.333 7.333-1.333 11 0l28 40c.5-13.33.667-26.663.5-40z"/><path style="opacity:1" fill="#e1e7ec" d="M171.5 40.5h13v61h-9a441.816 441.816 0 0 0-1-42c-.798.457-1.131 1.124-1 2a956.953 956.953 0 0 1-16 39.5c-2.727.818-5.394.652-8-.5a2944.338 2944.338 0 0 0-16.5-40c-.5 13.663-.667 27.33-.5 41h-11c-.167-20.336 0-40.67.5-61 4.45-1.3 8.95-1.3 13.5 0a1770.427 1770.427 0 0 0 18 44 631.484 631.484 0 0 0 18-44z"/><path style="opacity:1" fill="#abb0b6" d="M171.5 40.5c4.47-.986 9.137-1.32 14-1a961.423 961.423 0 0 1-1 62v-61h-13z"/><path style="opacity:1" fill="#e1e7ec" d="M213.5 39.5a43.123 43.123 0 0 1 13 1 762.857 762.857 0 0 1 21 61h-12a129.19 129.19 0 0 0-4.5-15 61.002 61.002 0 0 0-22 0 55.58 55.58 0 0 0-4.5 15 43.117 43.117 0 0 1-13-1c7.342-20.362 14.675-40.695 22-61z"/><path style="opacity:1" fill="#dfe5ea" d="M255.5 39.5c10.398-.4 20.732.1 31 1.5 13.35 4.644 17.517 13.81 12.5 27.5a58.453 58.453 0 0 1-8.5 9.5 727.175 727.175 0 0 0 12 22.5 28.717 28.717 0 0 1-13 .5 349.437 349.437 0 0 0-12-22 60.94 60.94 0 0 0-11-.5v23h-12a977.668 977.668 0 0 1 1-62zM310.5 40.5h39v9c-9.515-.327-18.848.006-28 1v15h27v10h-27v16h29v10h-41a931.31 931.31 0 0 1 1-61z"/><path style="opacity:1" fill="#8f9499" d="M78.5 40.5c3.798-.983 7.798-1.317 12-1 .33 20.84-.003 41.507-1 62v-61h-11z"/><path style="opacity:1" fill="#6a6f74" d="M310.5 40.5a400.606 400.606 0 0 1 40-1v11h-29c9.152-.994 18.485-1.327 28-1v-9h-39z"/><path style="opacity:1" fill="#111318" d="M266.5 49.5c5.762-.35 11.428.15 17 1.5 3.584 1.664 5.251 4.497 5 8.5.151 4.533-1.849 7.7-6 9.5-5.323.5-10.656.666-16 .5v-20z"/><path style="opacity:1" fill="#16191d" d="M219.5 52.5a168.852 168.852 0 0 1 8 24h-15a246.802 246.802 0 0 1 7-24z"/><path style="opacity:1" fill="#676b70" d="M111.5 56.5h-11v45a529.607 529.607 0 0 1-1-46c4.202-.317 8.202.017 12 1z"/><path style="opacity:1" fill="#e4eaef" d="M111.5 56.5v45h-11v-45h11z"/><path style="opacity:1" fill="#adb2b7" d="m175.5 101.5-2-40c-.131-.876.202-1.543 1-2a441.816 441.816 0 0 1 1 42z"/></svg>