<svg xmlns="http://www.w3.org/2000/svg" width="400" height="84" style="shape-rendering:geometricPrecision;text-rendering:geometricPrecision;image-rendering:optimizeQuality;fill-rule:evenodd;clip-rule:evenodd"><path style="opacity:.847" d="M31.5 14.5c-1.291-.237-2.291.096-3 1-2.053-.098-3.72.569-5 2-.992-.172-1.658.162-2 1-.992-.172-1.658.162-2 1-1.527-.073-2.527.594-3 2-2.395 1.922-5.062 3.089-8 3.5 8.495-9.917 19.161-16.25 32-19 14.168-2.473 28.168-1.807 42 2 19.255 7.654 24.755 20.82 16.5 39.5a34.522 34.522 0 0 1-5.5 6l-1-1c8.375-14.385 5.375-25.885-9-34.5-16.967-8.477-34.3-9.643-52-3.5zm-3 1c-1.28 1.431-2.947 2.098-5 2 1.28-1.431 2.947-2.098 5-2zm-9 4c-.473 1.406-1.473 2.073-3 2 .473-1.406 1.473-2.073 3-2z"/><path style="opacity:.755" fill="#951a49" d="M90.5 49.5v-1c.667 0 1-.333 1-1 .667 0 1-.333 1-1 .903-2.892 1.236-5.892 1-9 0-.667-.333-1-1-1v-1c.172-.992-.162-1.658-1-2 0-.667-.333-1-1-1v-1c0-.667-.333-1-1-1 0-.667-.333-1-1-1 0-.667-.333-1-1-1 0-.667-.333-1-1-1-6.444-5.883-14.11-9.383-23-10.5-13.855-2.285-26.855.049-39 7-12.898 10.302-13.231 20.969-1 32 2.98 2.324 6.313 3.824 10 4.5.342.838 1.008 1.172 2 1h1c.342.838 1.008 1.172 2 1h1c.709.904 1.709 1.237 3 1h3c.709.904 1.709 1.237 3 1h5c-1.901 1.218-6.568 1.385-14 .5-10.288-1.478-19.288-5.645-27-12.5-6.65-7.409-7.483-15.409-2.5-24a63.67 63.67 0 0 0 6.5-7c1.527.073 2.527-.594 3-2 .992.172 1.658-.162 2-1 .992.172 1.658-.162 2-1 2.053.098 3.72-.569 5-2 1.291.237 2.291-.096 3-1 18.501-4.3 36.168-2.134 53 6.5 12.288 8.742 14.121 19.242 5.5 31.5-.47-1.077-.303-2.077.5-3z"/><path style="opacity:.868" fill="#2a328f" d="M347.5 14.5a275.114 275.114 0 0 1 39 1.5c3.083.786 5.249 2.62 6.5 5.5a33.725 33.725 0 0 1 1.5 11h-7c.516-4.652-1.151-8.152-5-10.5a306.485 306.485 0 0 0-35 0c-3.163 1.48-4.996 3.98-5.5 7.5a93.664 93.664 0 0 0 1 26 11.529 11.529 0 0 0 4.5 3.5c12 .667 24 .667 36 0 1.833-.5 3-1.667 3.5-3.5.497-2.31.663-4.643.5-7h7a60.93 60.93 0 0 1-.5 11c-1.167 2.5-3 4.333-5.5 5.5a233.453 233.453 0 0 1-42 1c-6.053-1.053-9.887-4.553-11.5-10.5-.667-10-.667-20 0-30 1.895-6.403 6.062-10.07 12.5-11z"/><path style="opacity:.9" fill="#2a328f" d="M113.5 15.5a72.442 72.442 0 0 1 12 .5L169 57.5c.5-13.996.667-27.996.5-42h7v50a72.442 72.442 0 0 1-12-.5A1312.66 1312.66 0 0 0 122 23.5a881.746 881.746 0 0 0-.5 42h-8v-50z"/><path style="opacity:.84" fill="#2a328f" d="M188.5 15.5h8v50h-8v-50z"/><path style="opacity:.909" fill="#2a328f" d="M203.5 15.5h58v6h-25v44h-8v-44h-25v-6z"/><path style="opacity:.871" fill="#2a328f" d="M267.5 15.5c16.003-.167 32.003 0 48 .5 7.421 1.998 10.421 6.832 9 14.5 1.079 5.502-.588 9.836-5 13 2.495 1.65 3.995 3.983 4.5 7 .499 4.989.666 9.989.5 15h-8a112.97 112.97 0 0 0-.5-15c-.5-1.833-1.667-3-3.5-3.5a684.961 684.961 0 0 0-37-.5v19h-8v-50zm8 6c11.338-.166 22.672 0 34 .5 5.825.16 8.492 3.16 8 9-.021 3.767-1.687 6.434-5 8-12.329.5-24.662.666-37 .5v-18z"/><path style="opacity:.738" fill="#f9de06" d="M86.5 27.5c.667 0 1 .333 1 1 .667 0 1 .333 1 1 .667 0 1 .333 1 1 .667 0 1 .333 1 1v1c.667 0 1 .333 1 1-.172.992.162 1.658 1 2v1c.667 0 1 .333 1 1 .236 3.108-.097 6.108-1 9h-1v-3c1.333-.667 1.333-1.333 0-2-.104-2.203-.77-4.203-2-6 0-.667-.333-1-1-1 0-.667-.333-1-1-1 0-.667-.333-1-1-1 0-.667-.333-1-1-1 0-.667-.333-1-1-1-.342-.838-1.008-1.172-2-1 0-.667-.333-1-1-1-.342-.838-1.008-1.172-2-1-9.044-4.598-18.71-6.098-29-4.5-8.596 1.215-16.096 4.715-22.5 10.5-4.875 6.892-4.542 13.558 1 20 7.416 5.52 15.582 9.187 24.5 11h-5c-.709-.904-1.709-1.237-3-1h-3c-.709-.904-1.709-1.237-3-1h-1c-.342-.838-1.008-1.172-2-1h-1c-.342-.838-1.008-1.172-2-1-6.671-3.172-11.504-8.172-14.5-15-.998-8.504 2.169-15.004 9.5-19.5 19.625-10.039 38.959-9.539 58 1.5z"/><path style="opacity:.713" fill="#2a328f" d="M79.5 27.5c.342.838 1.008 1.172 2 1 .667 0 1 .333 1 1 .342.838 1.008 1.172 2 1 .667 0 1 .333 1 1 .667 0 1 .333 1 1 .667 0 1 .333 1 1 .667 0 1 .333 1 1 .667 0 1 .333 1 1 1.23 1.797 1.896 3.797 2 6v6c-.667 0-1 .333-1 1v1c.694-5.414-.973-10.247-5-14.5-13.754-8.72-28.088-9.72-43-3-10.592 6.534-11.592 14.2-3 23a59.202 59.202 0 0 0 18 7c-10.877.263-20.043-3.57-27.5-11.5-3.686-10.797-.186-18.297 10.5-22.5 12.945-4.497 25.945-4.663 39-.5z"/><path style="opacity:.801" d="M69.5 39.5c9.019 12.024 7.352 22.524-5 31.5-17.376 9.057-34.376 8.39-51-2C4.84 62.682 2.006 54.515 5 44.5a30.132 30.132 0 0 0 3 12C22.797 71.329 39.963 74.829 59.5 67c11.583-6.253 14.916-15.42 10-27.5z"/></svg>