<svg xmlns="http://www.w3.org/2000/svg" width="426" height="206" style="shape-rendering:geometricPrecision;text-rendering:geometricPrecision;image-rendering:optimizeQuality;fill-rule:evenodd;clip-rule:evenodd"><path style="opacity:1" fill="#fefefe" d="M-.5-.5h426v206H-.5V-.5z"/><path style="opacity:1" fill="#e2e2ec" d="M113.5 13.5c-15.441-3.96-30.775-3.96-46 0h-1c1.872-1.562 4.205-2.562 7-3a182.062 182.062 0 0 1 33-.5c2.803.615 5.136 1.782 7 3.5z"/><path style="opacity:1" fill="#a7a7c3" d="M113.5 13.5c1.135 1.713 2.802 2.38 5 2l4 1c4.039 3.689 8.706 6.355 14 8 1.355 3.018 3.688 4.351 7 4 0 .667-.333 1-1 1-3.863 1.194-6.863 3.527-9 7-1.879.841-3.879 1.175-6 1-1.652-3.107-4.319-4.773-8-5a42.174 42.174 0 0 0-9-5c-.418-.722-1.084-1.222-2-1.5a434.438 434.438 0 0 0-11-1.5c-5.819-1.152-11.819-1.32-18-.5-.556.383-.89.883-1 1.5-1.88-.27-3.213.396-4 2h-4c-2.991-.334-5.324.666-7 3-4.538.936-8.538 2.936-12 6v1a46.728 46.728 0 0 0-14 14c-3.834 2.985-6.167 6.985-7 12v1a38.946 38.946 0 0 0-4 8c-1.387 2.377-2.22 5.043-2.5 8-.82 6.181-.652 12.181.5 18a65.509 65.509 0 0 0 3 10c-.154 3.216.846 5.883 3 8-.237 1.291.096 2.291 1 3a8.435 8.435 0 0 0 .5 4c2.28 2.114 4.113 4.447 5.5 7a25.634 25.634 0 0 0 6 6c4.832 5.508 10.498 9.841 17 13 2.745 1.878 5.745 3.545 9 5 .797-.457 1.13-1.124 1-2a22.593 22.593 0 0 0 8 4l3-1c-2.947-.99-5.614-2.324-8-4 2.454-.179 4.62.487 6.5 2 .765-.07 1.265-.403 1.5-1 .491 2.652 2.158 4.152 5 4.5 4 .667 8 .667 12 0 1.237-.232 2.237-.732 3-1.5a37.227 37.227 0 0 0 9-5c.343 1.725 1.343 2.225 3 1.5 5.519-1.998 10.519-4.832 15-8.5h2c1.551 3.063 3.718 5.729 6.5 8a8.43 8.43 0 0 1 .5 4c-1.88-.271-3.213.396-4 2-3.314 1.643-6.314 3.643-9 6a73.329 73.329 0 0 0-14 4c-4.202.632-8.202 1.632-12 3h-18a198.077 198.077 0 0 1-32-11 184.66 184.66 0 0 0-18-14 6763.865 6763.865 0 0 1-15-24 81.289 81.289 0 0 0-3-11 116.454 116.454 0 0 1-1-34v-3c2.306-3.585 3.64-7.585 4-12 2.912-10.735 8.578-19.735 17-27 3.264-1.594 5.93-3.927 8-7 .437-1.574 1.437-2.741 3-3.5a43.51 43.51 0 0 0 8-3.5 118.238 118.238 0 0 0 16-7c15.225-3.96 30.559-3.96 46 0z"/><path style="opacity:1" fill="#cecede" d="M113.5 13.5c2.198-.38 3.865.287 5 2-2.198.38-3.865-.287-5-2z"/><path style="opacity:1" fill="#c3c3d7" d="M66.5 13.5h1a118.238 118.238 0 0 1-16 7c1.334-1.659 3-2.992 5-4 3.36-1.019 6.693-2.019 10-3z"/><path style="opacity:1" fill="#cacbd0" d="M183.5 19.5v1h-21c.111-.617.444-1.117 1-1.5 6.846-.82 13.513-.654 20 .5z"/><path style="opacity:1" fill="#d6d7da" d="M331.5 19.5c6.479-.99 13.146-1.324 20-1a27.63 27.63 0 0 1 8 3 76.944 76.944 0 0 0-10-1c-5.81-.99-11.81-1.323-18-1z"/><path style="opacity:1" fill="#a9acb7" d="M331.5 19.5c6.19-.323 12.19.01 18 1-6.19-.323-12.19.01-18 1a41.742 41.742 0 0 0-9 1h-1c3.075-1.548 6.409-2.548 10-3z"/><path style="opacity:1" fill="#d8d7e1" d="M122.5 16.5c5.588 1.125 10.255 3.792 14 8-5.294-1.645-9.961-4.311-14-8z"/><path style="opacity:1" fill="#697088" d="M162.5 20.5h24l2 2a98.502 98.502 0 0 0-28 0l2-2z"/><path style="opacity:1" fill="#70788d" d="M331.5 21.5c5.81-.99 11.81-1.323 18-1 3.36.116 6.693.45 10 1h1v1a445.157 445.157 0 0 0-29-1z"/><path style="opacity:1" fill="#cdcfd5" d="M156.5 21.5v1a16.331 16.331 0 0 0-5 2 5.728 5.728 0 0 0-3 1c1.781-2.855 4.448-4.188 8-4z"/><path style="opacity:1" fill="#9b9fad" d="m162.5 20.5-2 2h-4v-1a19.24 19.24 0 0 1 6-1z"/><path style="opacity:1" fill="#a6a9b3" d="M186.5 20.5c2.398-.24 4.398.426 6 2h-4l-2-2z"/><path style="opacity:1" fill="#4c5674" d="M188.5 22.5h5c1.533 1.745 3.533 2.745 6 3h2a71.06 71.06 0 0 0 11 9 54.538 54.538 0 0 0 6 6.5c.937.692 1.603.525 2-.5h1c.893 3.895 3.226 6.562 7 8 0 .667.333 1 1 1 .333 2.333 1.667 3.667 4 4 2.069 3.072 4.736 5.406 8 7a74.59 74.59 0 0 0 15 14c2.069 3.073 4.736 5.406 8 7 2.048 2.715 4.382 5.048 7 7 1.739 2.743 4.073 4.743 7 6 0 .667.333 1 1 1a26.58 26.58 0 0 0 9 8 85.693 85.693 0 0 0 11 11c2.069 3.073 4.736 5.406 8 7 .667 2.667 2.333 4.333 5 5a25.497 25.497 0 0 0 7 5c2.94 2.415 6.273 4.248 10 5.5 6.181.819 12.181.653 18-.5 1.915.284 3.581-.049 5-1a46.86 46.86 0 0 0 9-2c4.484-.489 7.484-2.823 9-7 1.466-.847 2.3-2.18 2.5-4 .789-2.212.622-4.212-.5-6-1.311-3.311-3.645-5.645-7-7-.453-.958-1.119-1.792-2-2.5a91.324 91.324 0 0 1-9-3.5 179.97 179.97 0 0 0-9-3.5 532.746 532.746 0 0 1-26-1.5c-3.323-.993-6.656-1.993-10-3a31.517 31.517 0 0 1-9-5.5c-1.498-2.664-3.498-4.83-6-6.5-.933-2.87-2.6-5.204-5-7 .237-1.291-.096-2.291-1-3a5.727 5.727 0 0 0-1-3c-1.476-7.424-1.143-14.758 1-22 1.1-1.105 1.767-2.438 2-4 3.638-3.974 7.305-7.974 11-12 2.254-.624 3.921-1.957 5-4a29.516 29.516 0 0 0 5-3c1.459.067 2.792-.266 4-1 2.652.09 4.985-.576 7-2a41.742 41.742 0 0 1 9-1c9.68.018 19.347.352 29 1a144.67 144.67 0 0 1 15 6c1.399 1.39 3.066 2.39 5 3a54.919 54.919 0 0 1 7 7c.185 1.696 1.019 3.03 2.5 4 .498 2.982.665 5.982.5 9-3.837 5.916-9.17 7.916-16 6-1-.333-1.667-1-2-2-1.085-2.087-2.751-3.42-5-4-1-.333-1.667-1-2-2-2.212-2.858-5.212-4.191-9-4-8.483-2.124-17.15-2.458-26-1a66.187 66.187 0 0 0-11 2.5 34.706 34.706 0 0 1-7.5 6.5c-2.408 3.642-3.075 7.642-2 12 .66 1.824 1.827 3.157 3.5 4l2 1c1.085 2.087 2.751 3.42 5 4 1.903.296 3.57.963 5 2 1.976 1.51 4.309 2.344 7 2.5 6.325.5 12.658.666 19 .5h3c2.135 1.869 4.802 2.536 8 2 2.286.095 4.286.762 6 2a48.183 48.183 0 0 0 10 5c.762 1.762 2.096 2.762 4 3l5 6c.58 2.249 1.913 3.915 4 5 1.406.473 2.073 1.473 2 3a71.577 71.577 0 0 1 3 16c.185 3.641-.481 6.974-2 10-3.002 5.969-7.002 11.303-12 16-1.548.321-2.215 1.321-2 3h-3a82.846 82.846 0 0 0-12 6c-1.208.734-2.541 1.067-4 1-2.198-.38-3.865.287-5 2h-3c-4.184.351-8.184 1.018-12 2h-2a312.4 312.4 0 0 0-19-4c-1.403-1.431-3.069-2.598-5-3.5a8.43 8.43 0 0 0-4-.5 26.335 26.335 0 0 1-5-2c-.342-.838-1.008-1.172-2-1-3.96-3.323-7.96-6.656-12-10-.321-1.548-1.321-2.215-3-2 0-.667-.333-1-1-1-.333-1-1-1.667-2-2-1-1.667-2.333-3-4-4a28.071 28.071 0 0 0-5-5 102.102 102.102 0 0 1-12-12c-2.069-3.073-4.736-5.406-8-7-2.069-3.073-4.736-5.406-8-7-2.667-2-5-4.333-7-7-1.085-2.087-2.751-3.42-5-4l-7-6c.172-.992-.162-1.658-1-2-1.411-2.414-3.411-4.08-6-5l-3-2c0-.667-.333-1-1-1a57.484 57.484 0 0 0-9-9c-1-1.667-2.333-3-4-4-2.069-3.072-4.736-5.406-8-7-3.396-5.028-8.063-8.028-14-9-6.483-1.176-12.817-1.176-19 0-2.608-.1-4.942.567-7 2a103.05 103.05 0 0 0-13 11c-1.285 1.952-2.951 3.618-5 5-1.62 2.24-1.287 4.073 1 5.5-.916.278-1.582.778-2 1.5-2.039 1.411-3.039 3.411-3 6a44.293 44.293 0 0 0-2 3 62.348 62.348 0 0 0 0 21.5c.184 1.376.851 2.209 2 2.5-.284 1.915.049 3.581 1 5-.085 3.149.915 5.816 3 8 .667 0 1 .333 1 1 3.737 7.405 9.404 12.738 17 16l8 4c4.333 1.333 8.667 1.333 13 0a20.69 20.69 0 0 0 5-1c3.078-.087 5.411-1.42 7-4 3.174-.51 5.508-2.177 7-5 1.208-.734 2.541-1.067 4-1v-3c2-1.333 3.667-3 5-5 3.564-.923 7.231-1.256 11-1h1c.762 1.762 2.096 2.762 4 3a5.727 5.727 0 0 0 1 3 60.931 60.931 0 0 1-.5 11c-.278.916-.778 1.582-1.5 2a6.547 6.547 0 0 0-3 3c-1.333 0-2 .667-2 2-7.537 6.571-15.537 12.238-24 17-4.424-.228-8.424.772-12 3-1.915-.284-3.581.049-5 1h-1c-1.765-.961-3.765-1.295-6-1-1.542-.801-3.208-1.134-5-1-1.979-1.668-4.312-2.334-7-2-2.504-1.139-5.17-1.806-8-2-2.323-1.991-4.989-3.324-8-4-.256-2.276-1.59-3.443-4-3.5-2.956-2.783-5.623-5.616-8-8.5-.238-1.904-1.238-3.238-3-4-.321-1.548-1.321-2.215-3-2 .268-1.599-.066-2.932-1-4 0-.667-.333-1-1-1-1.792-.809-3.792-1.309-6-1.5 3.484-.266 4.484-1.766 3-4.5a114.067 114.067 0 0 0-5-13v-1c.438-4.408-1.562-6.075-6-5v-1c4.017.661 5.351-.672 4-4v-3c.99-5.81 1.323-11.81 1-18a20.691 20.691 0 0 1 1-5l2-7v-3a57.82 57.82 0 0 0 5-9c1.613-1.96 2.613-4.294 3-7a8.947 8.947 0 0 0 4-3c.667 0 1-.333 1-1 2.067-1.727 3.733-3.727 5-6a45.75 45.75 0 0 0 9-7c.667 0 1-.333 1-1v-1h2c2.467-.255 4.467-1.255 6-3a16.331 16.331 0 0 1 5-2h4a98.502 98.502 0 0 1 28 0z"/><path style="opacity:1" fill="#8786a0" d="M97.5 24.5a103.017 103.017 0 0 0-19 1c.11-.617.444-1.117 1-1.5 6.181-.82 12.181-.652 18 .5z"/><path style="opacity:1" fill="#b9bcc5" d="M315.5 23.5v1c-1.208.734-2.541 1.067-4 1 .683-1.677 2.017-2.343 4-2z"/><path style="opacity:1" fill="#767d93" d="M321.5 22.5h1c-2.015 1.424-4.348 2.09-7 2v-1l6-1z"/><path style="opacity:1" fill="#acaeb7" d="M360.5 22.5v-1c6.01.509 11.01 2.842 15 7a144.67 144.67 0 0 0-15-6z"/><path style="opacity:1" fill="#58556a" d="M97.5 24.5v1a98.685 98.685 0 0 0-23 2c.787-1.604 2.12-2.27 4-2a103.017 103.017 0 0 1 19-1z"/><path style="opacity:1" fill="#9b9faa" d="M193.5 22.5c2.467.255 4.467 1.255 6 3-2.467-.255-4.467-1.255-6-3z"/><path style="opacity:1" fill="#8b899b" d="M97.5 25.5v-1c3.663.452 7.33.952 11 1.5.916.278 1.582.778 2 1.5l-8-1h-1c-1.208-.734-2.541-1.067-4-1z"/><path style="opacity:1" fill="#443f4e" d="M97.5 25.5c1.459-.067 2.792.266 4 1-3.288 1.281-6.621 1.615-10 1-3.13-.592-5.464.408-7 3-.992.172-1.658-.162-2-1-.704-1.844-2.037-2.344-4-1.5-2.687 1.049-5.02 2.549-7 4.5-3.264 1.594-5.93 3.928-8 7-2.179.34-4.012 1.34-5.5 3-.383-.556-.883-.89-1.5-1-3.45.744-5.116-.59-5-4 2.79-.278 5.29.39 7.5 2 4.392-5.1 9.558-9.1 15.5-12a98.685 98.685 0 0 1 23-2z"/><path style="opacity:1" fill="#80869a" d="M151.5 24.5c-1.533 1.745-3.533 2.745-6 3 .473-1.406 1.473-2.073 3-2a5.728 5.728 0 0 1 3-1z"/><path style="opacity:1" fill="#c7c8d0" d="M136.5 24.5a19.48 19.48 0 0 0 7 3v1c-3.312.351-5.645-.982-7-4z"/><path style="opacity:1" fill="#cccbcd" d="M201.5 25.5c2.798.6 5.465 1.6 8 3a41.367 41.367 0 0 1 9 8.5c1.077.47 2.077.303 3-.5v4h-1a34.47 34.47 0 0 0-8-6 71.06 71.06 0 0 1-11-9z"/><path style="opacity:1" fill="#edecec" d="M183.5 20.5v-1a40.939 40.939 0 0 1 9 .5l15 5a86.24 86.24 0 0 1 12.5 9.5c.122-1.937.955-3.27 2.5-4v1c-.951 1.419-1.284 3.085-1 5-.923.803-1.923.97-3 .5a41.367 41.367 0 0 0-9-8.5 29.077 29.077 0 0 0-8-3h-2c-1.533-1.745-3.533-2.745-6-3h-1c-1.602-1.574-3.602-2.24-6-2h-3z"/><path style="opacity:1" fill="#7f7974" d="m91.5 27.5 1 2a24.93 24.93 0 0 0-8 1c1.536-2.592 3.87-3.592 7-3z"/><path style="opacity:1" fill="#5b5568" d="M101.5 26.5h1c3.325 1.997 6.659 3.997 10 6v1h-4a311.784 311.784 0 0 0-5-3.5c-2.212-.79-4.212-.622-6 .5h-3l-2-1-1-2c3.379.615 6.712.281 10-1z"/><path style="opacity:1" fill="#d5aeab" d="M226.5 28.5v1c-1.459-.067-2.792.266-4 1 .683-1.677 2.017-2.343 4-2z"/><path style="opacity:1" fill="#d5aeac" d="M285.5 29.5c-1.291-.237-2.291.096-3 1h-1c.12-1.086.787-1.753 2-2 .916.043 1.583.376 2 1z"/><path style="opacity:1" fill="#807d85" d="M70.5 27.5c-2.01 1.565-4.343 2.565-7 3 1.676-2.334 4.009-3.334 7-3z"/><path style="opacity:1" fill="#797473" d="m102.5 26.5 8 1a42.174 42.174 0 0 1 9 5h-7c-3.341-2.003-6.675-4.003-10-6z"/><path style="opacity:1" fill="#989dac" d="M306.5 28.5c-1.079 2.043-2.746 3.376-5 4 1.039-2.031 2.705-3.364 5-4z"/><path style="opacity:1" fill="#c9c8da" d="M40.5 27.5c-2.07 3.073-4.736 5.406-8 7 2.07-3.073 4.736-5.406 8-7z"/><path style="opacity:1" fill="#b5afa7" d="m92.5 29.5 2 1v2c-4.313-.51-8.313.157-12 2 .233-1.562.9-2.895 2-4a24.93 24.93 0 0 1 8-1z"/><path style="opacity:1" fill="#6e7491" d="M142.5 29.5a45.75 45.75 0 0 1-9 7c2.137-3.473 5.137-5.806 9-7z"/><path style="opacity:1" fill="#a9abb3" d="M375.5 28.5c2.489-.26 4.156.74 5 3-1.934-.61-3.601-1.61-5-3z"/><path style="opacity:1" fill="#625d5e" d="m82.5 29.5-2 1c-.06-.543-.393-.876-1-1a29.082 29.082 0 0 1-8 3c1.98-1.951 4.313-3.451 7-4.5 1.963-.844 3.296-.344 4 1.5z"/><path style="opacity:1" fill="#97918c" d="M80.5 30.5c.172.992-.162 1.658-1 2-4.208.177-7.874 1.51-11 4-2.087 1.085-3.42 2.751-4 5h-1v-2c2.07-3.072 4.736-5.406 8-7 2.798-.6 5.465-1.6 8-3 .607.124.94.457 1 1z"/><path style="opacity:1" fill="#b9b2ad" d="M108.5 33.5a76.944 76.944 0 0 0-10-1l-1-2c1.788-1.122 3.788-1.29 6-.5 1.733 1.189 3.4 2.356 5 3.5z"/><path style="opacity:1" fill="#c18581" d="M226.5 29.5c.617.11 1.117.444 1.5 1 .497 2.31.663 4.643.5 7h-1a24.93 24.93 0 0 0-1-8z"/><path style="opacity:1" fill="#7e7b82" d="M63.5 30.5c-3.485 2.945-7.485 4.945-12 6 3.462-3.064 7.462-5.064 12-6z"/><path style="opacity:1" fill="#b7b1a8" d="M79.5 32.5v2h-1c-.06-.543-.393-.876-1-1a71.237 71.237 0 0 1-9 3c3.126-2.49 6.792-3.823 11-4z"/><path style="opacity:1" fill="#96342b" d="M226.5 29.5a24.93 24.93 0 0 1 1 8 16.874 16.874 0 0 1-1 8c-.886-.825-1.219-1.825-1-3h-3v-12c1.208-.734 2.541-1.067 4-1z"/><path style="opacity:1" fill="#b66d68" d="M282.5 30.5c.709-.904 1.709-1.237 3-1 1.406.473 2.073 1.473 2 3v9c-.821-3.141-1.321-6.475-1.5-10-1.011-.837-2.178-1.17-3.5-1z"/><path style="opacity:1" fill="#625d59" d="M70.5 27.5h4c-5.942 2.9-11.108 6.9-15.5 12-2.21-1.61-4.71-2.278-7.5-2v-1c4.515-1.055 8.515-3.055 12-6 2.657-.435 4.99-1.435 7-3z"/><path style="opacity:1" fill="#867fa1" d="M82.5 29.5c.342.838 1.008 1.172 2 1-1.1 1.105-1.767 2.438-2 4v1c-1.466.847-2.3 2.18-2.5 4-.493-1.634-.66-3.3-.5-5v-2c.838-.342 1.172-1.008 1-2l2-1z"/><path style="opacity:1" fill="#f5f0e5" d="M94.5 32.5c.617.11 1.117.444 1.5 1a93.554 93.554 0 0 1 1.5 11c-5.344.166-10.677 0-16-.5a3.943 3.943 0 0 1-1-2 72.503 72.503 0 0 0 2-6.5v-1c3.687-1.843 7.687-2.51 12-2z"/><path style="opacity:1" fill="#f3eee4" d="M98.5 32.5c3.36.116 6.693.45 10 1 2.618 1.952 4.952 4.285 7 7a45.22 45.22 0 0 1-14 3 44.767 44.767 0 0 0-3-11z"/><path style="opacity:1" fill="#9c9ea7" d="M212.5 34.5a34.47 34.47 0 0 1 8 6c-.397 1.025-1.063 1.192-2 .5a54.538 54.538 0 0 1-6-6.5z"/><path style="opacity:1" fill="#d0cac1" d="M124.5 38.5c-3.851 1.848-6.851.848-9-3 .235-.597.735-.93 1.5-1 3.048.5 5.548 1.834 7.5 4z"/><path style="opacity:1" fill="#9d9891" d="M112.5 33.5v-1h7c3.681.227 6.348 1.893 8 5-.667 0-1 .333-1 1h-2c-1.952-2.166-4.452-3.5-7.5-4-.765.07-1.265.403-1.5 1l-3-2z"/><path style="opacity:1" fill="#e4ded3" d="m78.5 34.5-1 6h-1a8.434 8.434 0 0 0-.5-4c-2.911 1.66-6.078 2.826-9.5 3.5.916.278 1.582.778 2 1.5h-4c.58-2.249 1.913-3.915 4-5a71.237 71.237 0 0 0 9-3c.607.124.94.457 1 1z"/><path style="opacity:1" fill="#f9f5e8" d="M76.5 40.5c-2.218 2.344-4.885 2.677-8 1-.418-.722-1.084-1.222-2-1.5 3.422-.674 6.589-1.84 9.5-3.5a8.434 8.434 0 0 1 .5 4z"/><path style="opacity:1" fill="#9c94b7" d="M108.5 33.5h4l3 2c2.149 3.848 5.149 4.848 9 3h2c1.1 1.105 1.767 2.438 2 4 0 .667-.333 1-1 1-.704-1.844-2.037-2.344-4-1.5-1.301 1.615-1.301 3.115 0 4.5-.387 2.706-1.387 5.04-3 7 .321-1.318.654-2.65 1-4-.061-2.153-1.061-3.486-3-4-.949-.652-2.115-.986-3.5-1-3.83.75-7.663 1.417-11.5 2 .111-.617.444-1.117 1-1.5-1.237-.232-2.237-.732-3-1.5a45.22 45.22 0 0 0 14-3c-2.048-2.715-4.382-5.048-7-7z"/><path style="opacity:1" fill="#e7d0cf" d="M281.5 30.5a176.74 176.74 0 0 0-1 26h-1c-.636-9.065.03-17.731 2-26z"/><path style="opacity:1" fill="#6d6d83" d="M133.5 36.5c-1.267 2.273-2.933 4.273-5 6-.233-1.562-.9-2.895-2-4 0-.667.333-1 1-1 2.121.175 4.121-.159 6-1z"/><path style="opacity:1" fill="#acafbb" d="M301.5 32.5a12591.46 12591.46 0 0 0-11 12c2.277-5.277 5.944-9.277 11-12z"/><path style="opacity:1" fill="#6d6864" d="M51.5 37.5c-.116 3.41 1.55 4.744 5 4v1l-2 2c-4.259 1.583-6.592 4.583-7 9l-2-1c0-.667-.333-1-1-1-2.205-2.553-4.538-2.553-7 0a46.728 46.728 0 0 1 14-14z"/><path style="opacity:1" fill="#7c7597" d="M63.5 39.5v2c-1.72.522-3.053 1.522-4 3-.667 0-1 .333-1 1-.958.453-1.792 1.12-2.5 2 .019-1.608.185-3.274.5-5v-1c.617.11 1.117.444 1.5 1 1.488-1.66 3.321-2.66 5.5-3z"/><path style="opacity:1" fill="#c7c0d0" d="M76.5 40.5h1v1c-1.194 1.277-2.86 1.944-5 2-2.705.184-5.038-.483-7-2h3c3.115 1.677 5.782 1.344 8-1z"/><path style="opacity:1" fill="#d7b6b5" d="M287.5 32.5a135.786 135.786 0 0 0 3 12c-.233 1.562-.9 2.895-2 4h-1v-16z"/><path style="opacity:1" fill="#a8a0bf" d="M94.5 30.5h3l1 2a44.767 44.767 0 0 1 3 11c-7.103 2.051-14.436 2.551-22 1.5a19.606 19.606 0 0 0-2-3.5v-1l1-6h1c-.16 1.7.007 3.366.5 5 .2-1.82 1.034-3.153 2.5-4a72.503 72.503 0 0 1-2 6.5 3.943 3.943 0 0 0 1 2c5.323.5 10.656.666 16 .5a93.554 93.554 0 0 0-1.5-11c-.383-.556-.883-.89-1.5-1v-2z"/><path style="opacity:1" fill="#d6d1d2" d="M127.5 43.5a8.947 8.947 0 0 1-4 3c-1.301-1.385-1.301-2.885 0-4.5 1.963-.844 3.296-.344 4 1.5z"/><path style="opacity:1" fill="#8a8a8d" d="M184.5 44.5v1h-19v-1c6.183-1.176 12.517-1.176 19 0z"/><path style="opacity:1" fill="#f5ede2" d="M65.5 44.5a902.198 902.198 0 0 0 9 4c-.38 1.713-1.38 2.713-3 3a18.436 18.436 0 0 0-6 .5c-1.323.816-1.99 1.983-2 3.5h-2c-1.039-2.031-2.705-3.364-5-4 .204-2.185.87-4.185 2-6 0-.667.333-1 1-1 1.888-.775 3.888-.775 6 0z"/><path style="opacity:1" fill="#9b92b9" d="M63.5 41.5h2c1.962 1.517 4.295 2.184 7 2 2.14-.056 3.806-.723 5-2a19.606 19.606 0 0 1 2 3.5c7.564 1.051 14.897.551 22-1.5.763.768 1.763 1.268 3 1.5-.556.383-.889.883-1 1.5-1.333 1.333-1.333 2.667 0 4v4c.086 4.357.42 8.69 1 13-.838.342-1.172 1.008-1 2h-1c.295-2.235-.039-4.235-1-6v-3c.302-4.29-.364-8.29-2-12-6.82-1.155-13.82-1.321-21-.5-.906 1.7-1.24 3.533-1 5.5l-2 5c.268-1.599-.066-2.932-1-4v-1c.968-2.107 1.302-4.44 1-7a81.912 81.912 0 0 0-10-2c-2.112-.775-4.112-.775-6 0 .947-1.478 2.28-2.478 4-3z"/><path style="opacity:1" fill="#dbd5da" d="M118.5 45.5c-4.97.853-9.97 1.52-15 2v3c-1.333-1.333-1.333-2.667 0-4 3.837-.583 7.67-1.25 11.5-2 1.385.014 2.551.348 3.5 1z"/><path style="opacity:1" fill="#f8f3e7" d="M118.5 45.5c1.939.514 2.939 1.847 3 4a342.07 342.07 0 0 0-1 4c-2.924 2.17-4.591 5.17-5 9v3c-2.872 1.837-4.206 4.503-4 8-1.765.961-3.765 1.295-6 1a128.508 128.508 0 0 0-.5-16c-.21-1.558-.71-2.892-1.5-4v-7c5.03-.48 10.03-1.147 15-2z"/><path style="opacity:1" fill="#8b4540" d="M222.5 31.5v11h3c-.219 1.175.114 2.175 1 3a16.874 16.874 0 0 0 1-8h1v11c-3.774-1.438-6.107-4.105-7-8v-4c-.284-1.915.049-3.581 1-5z"/><path style="opacity:1" fill="#6e7384" d="M184.5 45.5v-1c5.937.972 10.604 3.972 14 9a11.743 11.743 0 0 1-5-3c-2.499-2.438-5.499-4.105-9-5z"/><path style="opacity:1" fill="#838590" d="M387.5 38.5c1.667 1 3 2.333 4 4 .31 3.213-.023 6.213-1 9a40.911 40.911 0 0 0-.5-9c-1.481-.97-2.315-2.304-2.5-4z"/><path style="opacity:1" fill="#b2aca3" d="M54.5 44.5c.27 1.88-.396 3.213-2 4 .065-.438-.101-.772-.5-1-2.264 1.416-3.431 3.416-3.5 6h-1c.408-4.417 2.741-7.417 7-9z"/><path style="opacity:1" fill="#a293ad" d="M56.5 42.5a29.816 29.816 0 0 0-.5 5c.708-.88 1.542-1.547 2.5-2-1.13 1.815-1.796 3.815-2 6-1.291-.237-2.291.096-3 1l-2 1a20.677 20.677 0 0 0 1-5c1.604-.787 2.27-2.12 2-4l2-2z"/><path style="opacity:1" fill="#d6cdd3" d="M65.5 44.5c3.377.46 6.71 1.126 10 2 .302 2.56-.032 4.893-1 7-1.527.073-2.527-.594-3-2 1.62-.287 2.62-1.287 3-3a902.198 902.198 0 0 1-9-4z"/><path style="opacity:1" fill="#d6d1d7" d="M99.5 48.5h-20c-.302 2.873-.969 5.54-2 8v-3c-.24-1.967.094-3.8 1-5.5 7.18-.821 14.18-.655 21 .5z"/><path style="opacity:1" fill="#bcbbba" d="M184.5 48.5a74.072 74.072 0 0 0-19 1.5c-.88 1.356-1.214 2.856-1 4.5-1.479-2.643-1.146-5.143 1-7.5l9.5-.5c3.576.015 6.742.682 9.5 2z"/><path style="opacity:1" fill="#717685" d="M356.5 45.5c3.788-.191 6.788 1.142 9 4a20.676 20.676 0 0 0-5-1 9.818 9.818 0 0 0-4-3z"/><path style="opacity:1" fill="#b3b1b0" d="M391.5 42.5c.617.11 1.117.444 1.5 1 2.332 13.333-3.168 19.166-16.5 17.5-.556-.383-.889-.883-1-1.5 4.949.541 9.616-.292 14-2.5.906-1.7 1.239-3.533 1-5.5.977-2.787 1.31-5.787 1-9z"/><path style="opacity:1" fill="#ac5851" d="M281.5 30.5h1c.387 10.554-.28 20.887-2 31v-5a176.74 176.74 0 0 1 1-26z"/><path style="opacity:1" fill="#bab9b8" d="M360.5 48.5c1.716.129 3.383.462 5 1 .333 1 1 1.667 2 2l3 4-6-2h-1c-2.033-2.513-4.699-4.013-8-4.5-11.282-1.408-22.282-.408-33 3a19.555 19.555 0 0 1-4 3.5c.359-1.871 1.359-3.371 3-4.5 12.727-4.966 25.727-5.8 39-2.5z"/><path style="opacity:1" fill="#5f544e" d="M44.5 51.5c-5.83-.5-8.163 2.166-7 8h-3a21.542 21.542 0 0 1 3-8c2.462-2.553 4.795-2.553 7 0z"/><path style="opacity:1" fill="#fbf5e8" d="M99.5 48.5c-.302 4.29.364 8.29 2 12v14h-26v-7c1.187-3.446 1.854-7.112 2-11 1.031-2.46 1.698-5.127 2-8h20z"/><path style="opacity:1" fill="#bfbebe" d="M188.5 49.5c1.716.129 3.383.462 5 1a11.743 11.743 0 0 0 5 3c2.069 3.072 4.736 5.406 8 7 1.667 1 3 2.333 4 4a58.39 58.39 0 0 1-16-9 25.634 25.634 0 0 0-6-6z"/><path style="opacity:1" fill="#556" d="M158.5 46.5c.262 1.478-.071 2.811-1 4-4.014 2.356-8.014 4.69-12 7a103.05 103.05 0 0 1 13-11z"/><path style="opacity:1" fill="#999ca6" d="M229.5 49.5c2 .667 3.333 2 4 4-.667-2-2-3.333-4-4z"/><path style="opacity:1" fill="#d7d7d6" d="M363.5 53.5c-10.858-3.251-21.858-3.751-33-1.5-2.381.223-4.047 1.39-5 3.5-6.974 1.132-9.807 5.132-8.5 12a17.843 17.843 0 0 0 4.5 5.5c2.874.942 5.54 2.11 8 3.5h-4c-1.43-1.037-3.097-1.704-5-2-1.085-2.087-2.751-3.42-5-4-.992-3.279-1.159-6.612-.5-10 .223-2.38 1.39-4.047 3.5-5a19.555 19.555 0 0 0 4-3.5c10.718-3.408 21.718-4.408 33-3 3.301.487 5.967 1.987 8 4.5z"/><path style="opacity:1" fill="#512923" d="M44.5 51.5c.667 0 1 .333 1 1l-1 2c-3.41-.116-4.744 1.55-4 5-.838.342-1.172 1.008-1 2-1-.333-1.667-1-2-2-1.163-5.834 1.17-8.5 7-8z"/><path style="opacity:1" fill="#d9d0ca" d="M52.5 48.5a20.677 20.677 0 0 1-1 5c-1.152 1.125-2.152 1.125-3 0 .069-2.584 1.236-4.584 3.5-6 .399.228.565.562.5 1z"/><path style="opacity:1" fill="#fdfdfd" d="M194.5 55.5c7.88 7.306 15.88 14.64 24 22a867.52 867.52 0 0 0-1 38c-3.829-.569-7.163.098-10 2-2.667.667-4.333 2.333-5 5-2 .667-3.333 2-4 4a26.175 26.175 0 0 0-7 5 32.894 32.894 0 0 0-7 3h-14a323.512 323.512 0 0 0 7.5-25c.667-9 .667-18 0-27-.232-1.237-.732-2.237-1.5-3a9.82 9.82 0 0 1-3-4l-7-24a73.686 73.686 0 0 1 19-.5 54.706 54.706 0 0 0 9 4.5z"/><path style="opacity:1" fill="#9d3e38" d="M53.5 52.5a8.434 8.434 0 0 1 4 .5c-1.237.232-2.237.732-3 1.5-.667 0-1 .333-1 1l-2 5v-7l2-1z"/><path style="opacity:1" fill="#767b8b" d="M198.5 53.5c3.264 1.594 5.931 3.928 8 7-3.264-1.594-5.931-3.928-8-7z"/><path style="opacity:1" fill="#a6a8af" d="M233.5 53.5h2l6 7c-3.264-1.594-5.931-3.928-8-7z"/><path style="opacity:1" fill="#797a80" d="M330.5 44.5c-3.365 1.962-7.032 3.462-11 4.5a90.456 90.456 0 0 0-7 9.5c-1.449 3.85-1.116 7.516 1 11-1.673-.843-2.84-2.176-3.5-4-1.075-4.358-.408-8.358 2-12a34.706 34.706 0 0 0 7.5-6.5 66.187 66.187 0 0 1 11-2.5z"/><path style="opacity:1" fill="#af5d54" d="M53.5 52.5c.709-.904 1.709-1.237 3-1 2.295.636 3.961 1.969 5 4 .38 2.198-.287 3.865-2 5 .065-.438-.101-.772-.5-1a20.435 20.435 0 0 1-5.5 1.5c.556.383.89.883 1 1.5h-2l-1-2 2-5v4c4.176.67 5.51-.83 4-4.5a4.932 4.932 0 0 0-3-.5c.763-.768 1.763-1.268 3-1.5a8.434 8.434 0 0 0-4-.5z"/><path style="opacity:1" fill="#cec8d3" d="M99.5 48.5c1.636 3.71 2.302 7.71 2 12-1.636-3.71-2.302-7.71-2-12z"/><path style="opacity:1" fill="#a9948a" d="M44.5 54.5c1.186 1.461 1.186 2.795 0 4v1c-1.205 1.186-2.539 1.186-4 0-.744-3.45.59-5.116 4-5z"/><path style="opacity:1" fill="#ecd8d2" d="M54.5 54.5a4.932 4.932 0 0 1 3 .5c1.51 3.67.176 5.17-4 4.5v-4c0-.667.333-1 1-1z"/><path style="opacity:1" fill="#d1d0d0" d="M184.5 48.5c1.599-.268 2.932.066 4 1a25.634 25.634 0 0 1 6 6 54.706 54.706 0 0 1-9-4.5 73.686 73.686 0 0 0-19 .5l7 24c-1.963-4.603-3.963-9.27-6-14a32.508 32.508 0 0 0-3-7c-.214-1.644.12-3.144 1-4.5a74.072 74.072 0 0 1 19-1.5z"/><path style="opacity:1" fill="#8f8e8e" d="M356.5 45.5c-12.411-1.196-24.411.304-36 4.5a32.423 32.423 0 0 1-8 8.5 90.456 90.456 0 0 1 7-9.5c3.968-1.038 7.635-2.538 11-4.5 8.85-1.458 17.517-1.124 26 1z"/><path style="opacity:1" fill="#d5d1c5" d="M44.5 58.5c-1.837-.14-2.17-.806-1-2 .797.457 1.13 1.124 1 2z"/><path style="opacity:1" fill="#a86869" d="m45.5 52.5 2 1h1c.848 1.125 1.848 1.125 3 0v7h-1c-.304-2.296-1.304-2.629-3-1 .16-1.7-.007-3.366-.5-5-.05 2.244-.883 3.91-2.5 5v-1c1.186-1.205 1.186-2.539 0-4l1-2z"/><path style="opacity:1" fill="#c3c1c1" d="M120.5 53.5a57.82 57.82 0 0 1-5 9c.409-3.83 2.076-6.83 5-9z"/><path style="opacity:1" fill="#696775" d="M165.5 44.5v1c-1.322-.17-2.489.163-3.5 1-.186 2.536-.686 4.869-1.5 7-.343-1.725-1.343-2.225-3-1.5-2.601 3.112-5.601 5.612-9 7.5-.235-.597-.735-.93-1.5-1l-5.5 5.5c.336 1.03 1.003 1.53 2 1.5.709.904 1.709 1.237 3 1v1c-1.527-.073-2.527.594-3 2h-4c.418-.722 1.084-1.222 2-1.5-2.287-1.427-2.62-3.26-1-5.5 2.049-1.382 3.715-3.048 5-5 3.986-2.31 7.986-4.644 12-7 .929-1.189 1.262-2.522 1-4 2.058-1.433 4.392-2.1 7-2z"/><path style="opacity:1" fill="#a5a5c1" d="M160.5 54.5a38.936 38.936 0 0 1 4 8c1.91 2.953 2.91 6.286 3 10a298.166 298.166 0 0 1 1 31c-1.12 10.216-4.453 19.55-10 28-1.517-.011-2.684-.677-3.5-2-1.474-4.638-4.64-7.305-9.5-8 .59-1.299 1.59-2.132 3-2.5-1.882-.198-3.548-.698-5-1.5h1a20.69 20.69 0 0 0 5-1h3c2.201-7.417 3.201-15.084 3-23h-3v-2c.958-.453 1.792-1.12 2.5-2a42.479 42.479 0 0 0 0-13c-.278-.916-.778-1.582-1.5-2-.239-1.967.094-3.8 1-5.5-2.033-2.371-4.366-2.871-7-1.5h-1v-1c1.208-.734 2.541-1.067 4-1 1.906-4.908 5.239-8.575 10-11z"/><path style="opacity:1" fill="#9c9b9c" d="M165.5 45.5h19c3.501.895 6.501 2.562 9 5a20.676 20.676 0 0 0-5-1c-1.068-.934-2.401-1.268-4-1-2.758-1.318-5.924-1.985-9.5-2l-9.5.5c-2.146 2.357-2.479 4.857-1 7.5a32.508 32.508 0 0 1 3 7c-1.25-.077-2.083-.744-2.5-2a4.934 4.934 0 0 0-.5 3 38.936 38.936 0 0 0-4-8v-1c.814-2.131 1.314-4.464 1.5-7 1.011-.837 2.178-1.17 3.5-1z"/><path style="opacity:1" fill="#87859d" d="M160.5 53.5v1c-4.761 2.425-8.094 6.092-10 11-1.459-.067-2.792.266-4 1-1.291.237-2.291-.096-3-1 3.457-.551 5.124-2.551 5-6 3.399-1.888 6.399-4.388 9-7.5 1.657-.725 2.657-.225 3 1.5z"/><path style="opacity:1" fill="#703c44" d="M287.5 48.5h1c-2.143 7.242-2.476 14.576-1 22-.617-.11-1.117-.444-1.5-1-.892-7.127-.392-14.127 1.5-21z"/><path style="opacity:1" fill="#736e6d" d="M37.5 51.5a21.542 21.542 0 0 0-3 8h3c.333 1 1 1.667 2 2v1c-1.548.321-2.215 1.321-2 3h-1c-1.642-1.58-3.642-2.248-6-2 .833-5.015 3.166-9.015 7-12z"/><path style="opacity:1" fill="#a17c91" d="M50.5 60.5c-1.527-.073-2.527.594-3 2h-2l2-3c1.696-1.629 2.696-1.296 3 1z"/><path style="opacity:1" fill="#dcb6ad" d="M61.5 55.5h2c-.35 2.953.65 5.287 3 7-1.544-.203-2.878-.87-4-2-1.122 1.13-2.456 1.797-4 2l1-2c1.713-1.135 2.38-2.802 2-5z"/><path style="opacity:1" fill="#a8a7a5" d="M356.5 45.5a9.818 9.818 0 0 1 4 3c-13.273-3.3-26.273-2.466-39 2.5-1.641 1.129-2.641 2.629-3 4.5-2.11.953-3.277 2.62-3.5 5-.659 3.388-.492 6.721.5 10l-2-1c-2.116-3.484-2.449-7.15-1-11a32.423 32.423 0 0 0 8-8.5c11.589-4.196 23.589-5.696 36-4.5z"/><path style="opacity:1" fill="#926781" d="M74.5 54.5c.934 1.068 1.268 2.401 1 4v2l-2 1a21.445 21.445 0 0 0 1-7z"/><path style="opacity:1" fill="#f5eae0" d="M66.5 62.5c.98 3.125 1.313 6.458 1 10-3.678.44-7.012-.227-10-2v-8h1c1.544-.203 2.878-.87 4-2 1.122 1.13 2.456 1.797 4 2z"/><path style="opacity:1" fill="#8d8782" d="M148.5 59.5c.124 3.449-1.543 5.449-5 6-.997.03-1.664-.47-2-1.5l5.5-5.5c.765.07 1.265.403 1.5 1z"/><path style="opacity:1" fill="#efefee" d="M325.5 55.5c-7.664 4.437-8.331 9.603-2 15.5a32.463 32.463 0 0 0 10 4 261.698 261.698 0 0 1 18 2.5h-16c-2.235.295-4.235-.039-6-1-2.46-1.39-5.126-2.558-8-3.5a17.843 17.843 0 0 1-4.5-5.5c-1.307-6.868 1.526-10.868 8.5-12z"/><path style="opacity:1" fill="#d6d6d5" d="M380.5 31.5c6.933.752 11.766 4.418 14.5 11 1.031 6.724.031 13.058-3 19-5.523 3.279-11.356 3.779-17.5 1.5a93.647 93.647 0 0 1-10-9.5l6 2h2c.333 1 1 1.667 2 2l1 2c.111.617.444 1.117 1 1.5 13.332 1.666 18.832-4.167 16.5-17.5-.383-.556-.883-.89-1.5-1-1-1.667-2.333-3-4-4a54.919 54.919 0 0 0-7-7z"/><path style="opacity:1" fill="#4a4451" d="M30.5 63.5c2.358-.248 4.358.42 6 2 .172.992-.162 1.658-1 2-2.785.584-4.452-.416-5-3v-1z"/><path style="opacity:1" fill="#c7b8af" d="M39.5 62.5c1.756 1.052 2.423 2.719 2 5-1.105-1.1-2.438-1.767-4-2-.215-1.679.452-2.679 2-3z"/><path style="opacity:1" fill="#efefef" d="M351.5 18.5c20.126.14 35.626 8.474 46.5 25 2.459 18.186-5.374 25.353-23.5 21.5a78.703 78.703 0 0 1-12-9c-12.366-4.413-24.699-4.58-37-.5.953-2.11 2.619-3.277 5-3.5 11.142-2.251 22.142-1.751 33 1.5h1a93.647 93.647 0 0 0 10 9.5c6.144 2.279 11.977 1.779 17.5-1.5 3.031-5.942 4.031-12.276 3-19-2.734-6.582-7.567-10.248-14.5-11-.844-2.26-2.511-3.26-5-3-3.99-4.158-8.99-6.491-15-7h-1a27.63 27.63 0 0 0-8-3z"/><path style="opacity:1" fill="#919092" d="M390.5 51.5c.239 1.967-.094 3.8-1 5.5-4.384 2.208-9.051 3.041-14 2.5l-1-2c6.83 1.916 12.163-.084 16-6z"/><path style="opacity:1" fill="#727788" d="M367.5 51.5c2.249.58 3.915 1.913 5 4h-2l-3-4z"/><path style="opacity:1" fill="#a198bb" d="M75.5 60.5v14c-1.983-.343-3.317.323-4 2v1h-2c.734-1.208 1.067-2.541 1-4 1.225-.652 1.892-1.819 2-3.5.417-2.498.75-4.998 1-7.5v-1l2-1z"/><path style="opacity:1" fill="#bcb5ca" d="M103.5 54.5c.79 1.108 1.29 2.442 1.5 4 .499 5.323.666 10.656.5 16-.968-2.107-1.302-4.44-1-7-.58-4.31-.914-8.643-1-13z"/><path style="opacity:1" fill="#c0bacd" d="M77.5 53.5v3c-.146 3.888-.813 7.554-2 11v-9l2-5z"/><path style="opacity:1" fill="#8f84a3" d="M36.5 65.5h1c1.562.233 2.895.9 4 2v2h-3c-.709-.904-1.709-1.237-3-1v-1c.838-.342 1.172-1.008 1-2z"/><path style="opacity:1" fill="#d5d2cc" d="m115.5 65.5-2 7-2 1c-.206-3.497 1.128-6.163 4-8z"/><path style="opacity:1" fill="#844546" d="M146.5 67.5h1l1 2h-5c.473-1.406 1.473-2.073 3-2z"/><path style="opacity:1" fill="#c5b8c2" d="M153.5 74.5h-1c.131-2.867-1.203-4.533-4-5l-1-2c2.634-1.371 4.967-.871 7 1.5-.906 1.7-1.239 3.533-1 5.5z"/><path style="opacity:1" fill="#dad9d8" d="M194.5 55.5a58.39 58.39 0 0 0 16 9c1.789 4.354 4.456 8.02 8 11v2c-8.12-7.36-16.12-14.694-24-22z"/><path style="opacity:1" fill="#cecede" d="M15.5 61.5c-.36 4.415-1.694 8.415-4 12 .36-4.415 1.694-8.415 4-12z"/><path style="opacity:1" fill="#9c92b7" d="M50.5 60.5h1l1 2c-.996-.086-1.83.248-2.5 1a24.939 24.939 0 0 0-.5 7h5v3c-2.217-.869-4.55-1.202-7-1 .237 1.291-.096 2.291-1 3-1.051-2.844-1.051-5.844 0-9-.067-1.459.266-2.792 1-4 .473-1.406 1.473-2.073 3-2z"/><path style="opacity:1" fill="#deccca" d="M73.5 62.5a114.45 114.45 0 0 1-1 7.5c-.108 1.681-.775 2.848-2 3.5v-11h3z"/><path style="opacity:1" fill="#cfcfd0" d="M235.5 53.5a101.983 101.983 0 0 1 10 7.5 13.243 13.243 0 0 0 3 5c2.945.139 5.279 1.306 7 3.5.25 2.174 1.25 3.84 3 5h-2a74.59 74.59 0 0 1-15-14l-6-7z"/><path style="opacity:1" fill="#963229" d="M282.5 30.5c1.322-.17 2.489.163 3.5 1 .179 3.525.679 6.859 1.5 10v7c-1.892 6.873-2.392 13.873-1.5 21 .383.556.883.89 1.5 1 .61.891.943 1.891 1 3v26c-2.098-2.656-4.598-4.989-7.5-7a84.9 84.9 0 0 1-.5-13v-18c1.72-10.113 2.387-20.446 2-31z"/><path style="opacity:1" fill="#a34c45" d="m47.5 59.5-2 3c-.951 1.419-1.285 3.085-1 5a40.936 40.936 0 0 0 .5 9c.383.556.883.89 1.5 1l2 2a6.541 6.541 0 0 0 3 3c-.085 1.495.581 2.495 2 3a31.121 31.121 0 0 0 1-11v-12c.992 7.816 1.326 15.816 1 24a4.932 4.932 0 0 0-3 .5c.752.67 1.086 1.504 1 2.5l-2-1a14.562 14.562 0 0 0-4-5 6.541 6.541 0 0 0-3-3c-.238-1.904-1.238-3.238-3-4v-9c.423-2.281-.244-3.948-2-5v-1c-.172-.992.162-1.658 1-2 1.461 1.186 2.795 1.186 4 0 1.617-1.09 2.45-2.756 2.5-5 .493 1.634.66 3.3.5 5z"/><path style="opacity:1" fill="#e6dcd9" d="M52.5 62.5h2v8h-5c-.163-2.357.003-4.69.5-7 .67-.752 1.504-1.086 2.5-1z"/><path style="opacity:1" fill="#dec8c2" d="M45.5 62.5h2c-.734 1.208-1.067 2.541-1 4l-2 1c-.285-1.915.049-3.581 1-5z"/><path style="opacity:1" fill="#9a7c99" d="M46.5 66.5c-1.051 3.156-1.051 6.156 0 9v2c-.617-.11-1.117-.444-1.5-1a40.936 40.936 0 0 1-.5-9l2-1z"/><path style="opacity:1" fill="#7c342d" d="M141.5 69.5h2c0 .667.333 1 1 1-1.141 2.049-1.141 4.049 0 6l-2 1c-.667 0-1-.333-1-1v-1a44.093 44.093 0 0 0-3-2c.825-.886 1.825-1.219 3-1v-3z"/><path style="opacity:1" fill="#b5b3b5" d="M210.5 64.5a57.484 57.484 0 0 1 9 9v2h-1c-3.544-2.98-6.211-6.646-8-11z"/><path style="opacity:1" fill="#f9f3e7" d="M41.5 76.5a103.017 103.017 0 0 1 1 19l-9-2c-1.022-7.838.311-15.338 4-22.5a4.932 4.932 0 0 1 3-.5c-.295 2.235.039 4.235 1 6z"/><path style="opacity:1" fill="#cfc4cd" d="M54.5 73.5v1h-1c-1.542-.8-3.209-1.134-5-1v6l-2-2v-2c.904-.709 1.237-1.709 1-3 2.45-.202 4.783.131 7 1z"/><path style="opacity:1" fill="#f0e5dd" d="M148.5 71.5v4h-3v-4h3z"/><path style="opacity:1" fill="#9c9ea6" d="M315.5 70.5c2.249.58 3.915 1.913 5 4-2.249-.58-3.915-1.913-5-4z"/><path style="opacity:1" fill="#a69bbb" d="M57.5 70.5c2.988 1.773 6.322 2.44 10 2 .27 1.88-.396 3.213-2 4a100.131 100.131 0 0 0-8-2v-4z"/><path style="opacity:1" fill="#d6d0d7" d="M101.5 63.5c.961 1.765 1.295 3.765 1 6v6h-26c-.667 0-1-.333-1-1h26v-11z"/><path style="opacity:1" fill="#6e5152" d="M139.5 69.5h2v3c-1.175-.219-2.175.114-3 1a44.093 44.093 0 0 1 3 2h-5c-.039-2.589.961-4.589 3-6z"/><path style="opacity:1" fill="#c9a299" d="M144.5 70.5c1.599-.268 2.932.066 4 1h-3v4h3c-1.068.934-2.401 1.268-4 1-1.141-1.951-1.141-3.951 0-6z"/><path style="opacity:1" fill="#abacb1" d="M256.5 74.5h2l6 7c-3.264-1.594-5.931-3.927-8-7z"/><path style="opacity:1" fill="#e2e2e1" d="M255.5 69.5c7.712 6.718 15.378 13.385 23 20v4a25.493 25.493 0 0 0-7-5c-1.333-3.333-3.667-5.667-7-7l-6-7c-1.75-1.16-2.75-2.826-3-5z"/><path style="opacity:1" fill="#f0ecec" d="M226.5 29.5v-1c.996-.086 1.829.248 2.5 1 .83 5.308 1.33 10.64 1.5 16a4.932 4.932 0 0 1 3 .5A1242.829 1242.829 0 0 0 277 86.5l1-26c.383-.556.883-.89 1.5-1-.416 9.997-.75 19.997-1 30a16454.642 16454.642 0 0 1-23-20c-1.721-2.194-4.055-3.361-7-3.5a13.243 13.243 0 0 1-3-5 101.983 101.983 0 0 0-10-7.5h-2c-.667-2-2-3.333-4-4-.667 0-1-.333-1-1v-11a24.935 24.935 0 0 0-.5-7c-.383-.556-.883-.89-1.5-1z"/><path style="opacity:1" fill="#debcb3" d="M53.5 74.5h1a31.121 31.121 0 0 1-1 11c-1.419-.505-2.085-1.505-2-3 1.869-2.135 2.536-4.802 2-8z"/><path style="opacity:1" fill="#a9524a" d="M71.5 51.5c.473 1.406 1.473 2.073 3 2v1a21.445 21.445 0 0 1-1 7v1h-3v11c.067 1.459-.266 2.792-1 4a70.883 70.883 0 0 1-10 10l-3-2c1.983.343 3.317-.323 4-2a26.006 26.006 0 0 1 5-7c1.604-.787 2.27-2.12 2-4 .313-3.542-.02-6.875-1-10-2.35-1.713-3.35-4.047-3-7 .01-1.517.677-2.684 2-3.5a18.436 18.436 0 0 1 6-.5z"/><path style="opacity:1" fill="#efdfdb" d="M67.5 54.5c3.41-.116 4.744 1.55 4 5-4.435.578-5.768-1.09-4-5z"/><path style="opacity:1" fill="#aea7c3" d="M102.5 69.5h1v7c-9.182.327-18.182-.007-27-1h26v-6z"/><path style="opacity:1" fill="#9c95b6" d="M113.5 72.5a20.691 20.691 0 0 0-1 5h-5c-1.051-.722-1.718-1.722-2-3 2.235.295 4.235-.039 6-1l2-1z"/><path style="opacity:1" fill="#f4eae1" d="M53.5 74.5c.536 3.198-.131 5.865-2 8a6.541 6.541 0 0 1-3-3v-6c1.791-.134 3.458.2 5 1z"/><path style="opacity:1" fill="#b6716a" d="M57.5 62.5v12a25.87 25.87 0 0 0 1 10c.684-.363 1.35-.696 2-1-.683 1.677-2.017 2.343-4 2-.325-7.852.008-15.518 1-23z"/><path style="opacity:1" fill="#573f4f" d="M223.5 76.5c2.589.92 4.589 2.586 6 5-2.589-.92-4.589-2.586-6-5z"/><path style="opacity:1" fill="#9e3c33" d="m59.5 60.5-1 2h-1c-.992 7.482-1.325 15.148-1 23l3 2c-1.586 3.203-2.253 6.703-2 10.5.002 3.021.336 5.854 1 8.5a494.818 494.818 0 0 0 3 4 31.117 31.117 0 0 0 11 1c.891.61 1.891.943 3 1-.073 1.527.594 2.527 2 3a30.572 30.572 0 0 0 8 7c1.085 2.087 2.751 3.42 5 4a6.544 6.544 0 0 0 3 3l1 2c.342.838 1.008 1.172 2 1-.321 1.548-1.321 2.215-3 2-.667 0-1-.333-1-1-.473-1.406-1.473-2.073-3-2a310.678 310.678 0 0 0-4-3l-1-2c-2.024-3.273-5.024-4.94-9-5-1.291-.973-1.291-1.973 0-3-.457-.798-1.124-1.131-2-1-.333-1-1-1.667-2-2-3.477-.823-7.144-1.323-11-1.5a10.526 10.526 0 0 0-3-2.5c-.526-1.73-1.526-3.064-3-4 .323-6.19-.01-12.19-1-18 .086-.996-.248-1.83-1-2.5a4.932 4.932 0 0 1 3-.5c.326-8.184-.008-16.184-1-24-.11-.617-.444-1.117-1-1.5a20.435 20.435 0 0 0 5.5-1.5c.399.228.565.562.5 1z"/><path style="opacity:1" fill="#5b5d74" d="M136.5 75.5c.221 2.779-.112 5.445-1 8-.904.709-1.237 1.709-1 3-.302 2.56.032 4.893 1 7v4h6v1c-2.867-.13-4.533 1.203-5 4-1.149-.291-1.816-1.124-2-2.5a62.348 62.348 0 0 1 0-21.5 44.293 44.293 0 0 1 2-3z"/><path style="opacity:1" fill="#d1a299" d="M151.5 77.5c-.734 1.208-1.067 2.541-1 4-.624-.417-.957-1.084-1-2 .247-1.213.914-1.88 2-2z"/><path style="opacity:1" fill="#858a9b" d="M325.5 76.5h4c1.765.961 3.765 1.295 6 1l16 2c-6.342.166-12.675 0-19-.5-2.691-.156-5.024-.99-7-2.5z"/><path style="opacity:1" fill="#6f6965" d="M30.5 64.5c.548 2.584 2.215 3.584 5 3v1c-2.062 1.91-3.562 4.243-4.5 7a51.676 51.676 0 0 0-2.5 16c-2.098-1.414-3.098-.748-3 2h3l1 2-2 13a65.509 65.509 0 0 1-3-10 134.79 134.79 0 0 1 2-26 38.946 38.946 0 0 1 4-8z"/><path style="opacity:1" fill="#d6aea5" d="M69.5 77.5h1a70.807 70.807 0 0 1-11.5 13 50.441 50.441 0 0 0-.5 10v6c-.664-2.646-.998-5.479-1-8.5-.253-3.797.414-7.297 2-10.5a70.883 70.883 0 0 0 10-10z"/><path style="opacity:1" fill="#fbf5e8" d="M78.5 78.5c7.816.992 15.816 1.326 24 1v22c-1.599-.268-2.932.066-4 1h-2a108.41 108.41 0 0 1-20.5-1c-.5-7.66-.666-15.326-.5-23h3z"/><path style="opacity:1" fill="#95857d" d="M136.5 75.5h5v1h-4v6h4c0 .667-.333 1-1 1h-5c.888-2.555 1.221-5.221 1-8z"/><path style="opacity:1" fill="#7c2a23" d="m220.5 74.5 3 2c1.411 2.414 3.411 4.08 6 5v4h-3c-.146-3.757-2.146-5.757-6-6v-5z"/><path style="opacity:1" fill="#ecddd6" d="M57.5 74.5c2.78.578 5.447 1.245 8 2a26.006 26.006 0 0 0-5 7c-.65.304-1.316.637-2 1a25.87 25.87 0 0 1-1-10z"/><path style="opacity:1" fill="#f9f3e8" d="M70.5 77.5h1v24a76.923 76.923 0 0 1-10-1h-3c-.165-3.35.002-6.683.5-10a70.807 70.807 0 0 0 11.5-13z"/><path style="opacity:1" fill="#b9b0a6" d="M141.5 76.5c0 .667.333 1 1 1a20.691 20.691 0 0 1-1 5h-4v-6h4z"/><path style="opacity:1" fill="#a34c42" d="M143.5 69.5h5c2.797.467 4.131 2.133 4 5a5.727 5.727 0 0 0-1 3c-1.086.12-1.753.787-2 2 .043.916.376 1.583 1 2 .667 0 1 .333 1 1a8.43 8.43 0 0 1-.5 4c-.377-1.442-1.21-2.442-2.5-3-1.667-1.333-3.333-1.333-5 0l-2 4c-.077-1.25-.744-2.083-2-2.5.556-.383.889-.883 1-1.5.667 0 1-.333 1-1a20.691 20.691 0 0 0 1-5l2-1c1.599.268 2.932-.066 4-1v-4c-1.068-.934-2.401-1.268-4-1-.667 0-1-.333-1-1z"/><path style="opacity:1" fill="#b3b4ba" d="M289.5 76.5c2.4 1.796 4.067 4.13 5 7-2.723-.722-4.389-2.389-5-5v-2z"/><path style="opacity:1" fill="#83899a" d="M354.5 79.5c2.928.065 5.595.732 8 2-3.198.536-5.865-.131-8-2z"/><path style="opacity:1" fill="#dad4d1" d="M106.5 77.5h5a86.751 86.751 0 0 1-1 18h-1a73.134 73.134 0 0 0-1-17c-1.317 6.154-1.317 12.154 0 18 0 1.333-.667 2-2 2v-21z"/><path style="opacity:1" fill="#b5b6b9" d="M264.5 81.5c3.333 1.333 5.667 3.667 7 7-2.618-1.952-4.952-4.285-7-7z"/><path style="opacity:1" fill="#d0c8be" d="M38.5 69.5h3v7c-.961-1.765-1.295-3.765-1-6a4.932 4.932 0 0 0-3 .5c-3.689 7.162-5.022 14.662-4 22.5h-1c-1-.333-1.667-1-2-2-.241-7.463 1.426-14.463 5-21 .825-.886 1.825-1.219 3-1z"/><path style="opacity:1" fill="#a199bc" d="M106.5 77.5v21a6.546 6.546 0 0 1-3 3v-23a5.728 5.728 0 0 1 3-1z"/><path style="opacity:1" fill="#faf5e6" d="M109.5 95.5c0 .667-.333 1-1 1-1.317-5.846-1.317-11.846 0-18a73.134 73.134 0 0 1 1 17z"/><path style="opacity:1" fill="#d4aaa3" d="M148.5 83.5h-4v3c-.904-.709-1.237-1.709-1-3 1.667-1.333 3.333-1.333 5 0z"/><path style="opacity:1" fill="#ebe5e0" d="M152.5 74.5h1c.722.418 1.222 1.084 1.5 2a42.479 42.479 0 0 1 0 13c-.708.88-1.542 1.547-2.5 2-.997.03-1.664-.47-2-1.5 1.993-2.42 2.326-4.92 1-7.5 0-.667-.333-1-1-1-.067-1.459.266-2.792 1-4a5.727 5.727 0 0 1 1-3z"/><path style="opacity:1" fill="#d9d9e6" d="M11.5 76.5a116.454 116.454 0 0 0 1 34c-1.567-1.181-2.4-2.847-2.5-5a156.5 156.5 0 0 1 0-25c.21-1.558.71-2.891 1.5-4z"/><path style="opacity:1" fill="#9494a8" d="m167.5 72.5 2 2c.327 9.848-.006 19.514-1 29a298.166 298.166 0 0 0-1-31z"/><path style="opacity:1" fill="#aeb0b8" d="M368.5 83.5c4.184.092 7.517 1.759 10 5a48.183 48.183 0 0 1-10-5z"/><path style="opacity:1" fill="#9c968e" d="M35.5 68.5c1.291-.237 2.291.096 3 1-1.175-.219-2.175.114-3 1-3.574 6.537-5.241 13.537-5 21h-2a51.676 51.676 0 0 1 2.5-16c.938-2.757 2.438-5.09 4.5-7z"/><path style="opacity:1" fill="#c89b98" d="M279.5 56.5h1v23c-.988 5.14-1.321 10.474-1 16-.667 0-1-.333-1-1v-5c.25-10.003.584-20.003 1-30v-3z"/><path style="opacity:1" fill="#763e39" d="M135.5 83.5h5c-.111.617-.444 1.117-1 1.5 1.256.417 1.923 1.25 2 2.5h-1c-1.765-.961-3.765-1.295-6-1-.237-1.291.096-2.291 1-3z"/><path style="opacity:1" fill="#973128" d="M220.5 79.5c3.854.243 5.854 2.243 6 6h3v38a23.317 23.317 0 0 1-3-6v-13h-3a213.816 213.816 0 0 0-1.5 13l-1-1a684.348 684.348 0 0 1-.5-37z"/><path style="opacity:1" fill="#ebe0da" d="M47.5 83.5a14.562 14.562 0 0 1 4 5 5.576 5.576 0 0 1-3-1c-1.155 2.946-1.321 5.946-.5 9a19.606 19.606 0 0 1 3.5 2c-1.644.213-3.144-.12-4.5-1-.815-4.852-.648-9.519.5-14z"/><path style="opacity:1" fill="#8b82b2" d="M104.5 67.5c-.302 2.56.032 4.893 1 7 .282 1.278.949 2.278 2 3h-1a5.728 5.728 0 0 0-3 1 105.628 105.628 0 0 0-29 0 1273.654 1273.654 0 0 1-2 24c.326-8.85-.007-17.516-1-26 .683-1.677 2.017-2.343 4-2 0 .667.333 1 1 1 8.818.993 17.818 1.327 27 1v-7c-.172-.992.162-1.658 1-2z"/><path style="opacity:1" fill="#9291a4" d="M26.5 72.5a134.79 134.79 0 0 0-2 26c-1.152-5.819-1.32-11.819-.5-18 .28-2.957 1.113-5.623 2.5-8z"/><path style="opacity:1" fill="#fcf8ec" d="M51.5 88.5a34.17 34.17 0 0 1 1 10h-1a19.606 19.606 0 0 0-3.5-2c-.821-3.054-.655-6.054.5-9 .917.627 1.917.96 3 1z"/><path style="opacity:1" fill="#878793" d="M111.5 77.5h1c.323 6.19-.01 12.19-1 18h-1a86.751 86.751 0 0 0 1-18z"/><path style="opacity:1" fill="#b0655d" d="M151.5 82.5c1.326 2.58.993 5.08-1 7.5.336 1.03 1.003 1.53 2 1.5v6h-1v-5h-6c.709-.904 1.709-1.237 3-1v-3c-1.915-.284-3.581.049-5 1-1-.333-1.667-1-2-2l2-4c-.237 1.291.096 2.291 1 3 1.068.934 2.401 1.268 4 1v-4c1.29.558 2.123 1.558 2.5 3a8.43 8.43 0 0 0 .5-4z"/><path style="opacity:1" fill="#f1e2dd" d="M148.5 83.5v4c-1.599.268-2.932-.066-4-1v-3h4z"/><path style="opacity:1" fill="#dedddc" d="M289.5 78.5c.611 2.611 2.277 4.278 5 5a551.984 551.984 0 0 0 5 8 15.887 15.887 0 0 1 6 5.5 10.122 10.122 0 0 0 4 1.5v2a16.064 16.064 0 0 1-5-2 159.363 159.363 0 0 1-15-15v-5z"/><path style="opacity:1" fill="#c8becb" d="M41.5 76.5c1.762.762 2.762 2.096 3 4l-2 15a103.017 103.017 0 0 0-1-19z"/><path style="opacity:1" fill="#c0b9cc" d="M71.5 76.5c.993 8.484 1.326 17.15 1 26-3.989.384-7.655-.283-11-2 3.307.551 6.64.884 10 1v-25z"/><path style="opacity:1" fill="#a6a7ad" d="M271.5 88.5a25.493 25.493 0 0 1 7 5v1c-2.927-1.257-5.261-3.257-7-6z"/><path style="opacity:1" fill="#fdfdfd" d="M369.5 126.5a6.547 6.547 0 0 1-3 3 54.993 54.993 0 0 1-12 4 31.147 31.147 0 0 0-2 2 134.215 134.215 0 0 1-20-1h-1a43.836 43.836 0 0 0-1-2 32.871 32.871 0 0 1-9-3.5 987.319 987.319 0 0 0-30-26.5v-1a98.433 98.433 0 0 1 .5-14c1.71 3.719 4.21 6.886 7.5 9.5 8.134 5.899 17.134 9.899 27 12a729.627 729.627 0 0 0 28 3c6.05.791 10.884 3.624 14.5 8.5.495 1.973.662 3.973.5 6z"/><path style="opacity:1" fill="#8c8383" d="M134.5 86.5c2.235-.295 4.235.039 6 1h-4v6h-1c-.968-2.107-1.302-4.44-1-7z"/><path style="opacity:1" fill="#777c8d" d="M237.5 89.5c2.249.58 3.915 1.913 5 4-2.249-.58-3.915-1.913-5-4z"/><path style="opacity:1" fill="#45404d" d="M28.5 91.5v2h-3c-.098-2.748.902-3.414 3-2z"/><path style="opacity:1" fill="#d6afa7" d="m51.5 88.5 2 1c.99 5.81 1.323 11.81 1 18-.951-1.419-1.285-3.085-1-5 .268-1.599-.066-2.932-1-4a34.17 34.17 0 0 0-1-10z"/><path style="opacity:1" fill="#c3b3a9" d="M140.5 87.5h1c.333 1 1 1.667 2 2-.233 1.562-.9 2.895-2 4h-5v-6h4z"/><path style="opacity:1" fill="#d4ced5" d="M78.5 78.5h25v23c0 .667-.333 1-1 1h-4c1.068-.934 2.401-1.268 4-1v-22c-8.184.326-16.184-.008-24-1z"/><path style="opacity:1" fill="#f1efef" d="M289.5 83.5a159.363 159.363 0 0 0 15 15 16.064 16.064 0 0 0 5 2c6.522 3.729 13.522 6.063 21 7a477.74 477.74 0 0 1 33 5c7.625 1.97 9.958 6.637 7 14h-1a18.453 18.453 0 0 0-.5-6c-3.616-4.876-8.45-7.709-14.5-8.5a729.627 729.627 0 0 1-28-3c-9.866-2.101-18.866-6.101-27-12-3.29-2.614-5.79-5.781-7.5-9.5a98.433 98.433 0 0 0-.5 14c-.617-.111-1.117-.444-1.5-1a145.05 145.05 0 0 1-.5-17z"/><path style="opacity:1" fill="#b9b9ba" d="M294.5 83.5c2.502 1.67 4.502 3.836 6 6.5a31.517 31.517 0 0 0 9 5.5l4 4-4-1a10.122 10.122 0 0 1-4-1.5 15.887 15.887 0 0 0-6-5.5 551.984 551.984 0 0 1-5-8z"/><path style="opacity:1" fill="#adaeb4" d="M382.5 91.5c3.667 1.667 6.333 4.333 8 8l-3-2-5-6z"/><path style="opacity:1" fill="#c0bacc" d="M103.5 78.5h-28c-.166 7.674 0 15.34.5 23a108.41 108.41 0 0 0 20.5 1c-7.068 1.327-14.235 1.327-21.5 0-.5-7.993-.666-15.993-.5-24a105.628 105.628 0 0 1 29 0z"/><path style="opacity:1" fill="#afaead" d="M173.5 79.5c.768.763 1.268 1.763 1.5 3a157.46 157.46 0 0 1-.5 29c.368 3.544-.632 6.544-3 9a123.868 123.868 0 0 0 2-41z"/><path style="opacity:1" fill="#e5e5e5" d="M176.5 79.5c.768.763 1.268 1.763 1.5 3 .667 9 .667 18 0 27a323.512 323.512 0 0 1-7.5 25h14v1a20.69 20.69 0 0 1-5 1c-3.937.293-7.77-.04-11.5-1a94.842 94.842 0 0 1 3.5-13v-2c2.368-2.456 3.368-5.456 3-9 .768-.763 1.268-1.763 1.5-3 .5-9.66.666-19.328.5-29z"/><path style="opacity:1" fill="#766f8b" d="M28.5 91.5h2c.333 1 1 1.667 2 2l-1 2h-2l-1-2v-2z"/><path style="opacity:1" fill="#fefefe" d="M276.5 130.5v9c-.617.111-1.117.444-1.5 1 .126 6.088-.708 11.755-2.5 17h-1c-1.379-2.097-3.045-2.43-5-1-1.278-.282-2.278-.949-3-2v-1c-1.529-2.97-3.862-3.636-7-2-.765-1.112-1.765-1.779-3-2 0-2-1-3-3-3-1.955-1.43-3.621-1.097-5 1-5.177-.065-9.177 1.935-12 6-.994-10.487-1.328-21.154-1-32-.166-9.339 0-18.673.5-28a1017.556 1017.556 0 0 0 39.5 36.5 8.43 8.43 0 0 0 4 .5z"/><path style="opacity:1" fill="#8e4d44" d="M135.5 94.5v-1h6c-1.052 1.756-2.719 2.423-5 2 0-.667-.333-1-1-1z"/><path style="opacity:1" fill="#c7c6c5" d="M173.5 75.5a9.82 9.82 0 0 0 3 4c.166 9.672 0 19.34-.5 29-.232 1.237-.732 2.237-1.5 3a157.46 157.46 0 0 0 .5-29c-.232-1.237-.732-2.237-1.5-3v-4z"/><path style="opacity:1" fill="#6b3d4a" d="M135.5 94.5c.667 0 1 .333 1 1l5 2h-6v-3z"/><path style="opacity:1" fill="#9d423a" d="M145.5 92.5c-2.147 1.432-2.48 3.266-1 5.5 4.515.994 5.849-.506 4-4.5v-1h3v5c-1.891 2.672-4.558 3.672-8 3h-1c0-.667-.333-1-1-1v-2l-5-2c2.281.423 3.948-.244 5-2 1.1-1.105 1.767-2.438 2-4 1.419-.951 3.085-1.284 5-1v3c-1.291-.237-2.291.096-3 1z"/><path style="opacity:1" fill="#ae8490" d="M145.5 92.5h3v1c1.849 3.994.515 5.494-4 4.5-1.48-2.234-1.147-4.068 1-5.5z"/><path style="opacity:1" fill="#a4a1c5" d="M148.5 93.5v3h-3v-3h3z"/><path style="opacity:1" fill="#b5aea5" d="M29.5 95.5h2v1c-.639.597-.972 1.43-1 2.5a92.028 92.028 0 0 0 4 18.5l-2-1c-2.375-6.765-3.375-13.765-3-21z"/><path style="opacity:1" fill="#909197" d="M309.5 95.5c3.344 1.007 6.677 2.007 10 3l2 2h-2a19.24 19.24 0 0 0-6-1l-4-4z"/><path style="opacity:1" fill="#faf4e8" d="M41.5 99.5a13.938 13.938 0 0 1 3 6v5c-.09 2.652.576 4.985 2 7v3a49.506 49.506 0 0 0-10-3 62.922 62.922 0 0 1-3-19 41.58 41.58 0 0 0 8 1z"/><path style="opacity:1" fill="#cdcaca" d="m230.5 83.5 7 6c1.085 2.087 2.751 3.42 5 4 2 2.667 4.333 5 7 7 2.069 3.073 4.736 5.406 8 7 2.069 3.073 4.736 5.406 8 7a102.102 102.102 0 0 0 12 12v14h-1v-13a8.43 8.43 0 0 1-4-.5 2238.5 2238.5 0 0 0-42-39.5v-4z"/><path style="opacity:1" fill="#8b3830" d="M280.5 79.5a84.9 84.9 0 0 0 .5 13c2.902 2.011 5.402 4.344 7.5 7v4a26.58 26.58 0 0 1-9-8c-.321-5.526.012-10.86 1-16z"/><path style="opacity:1" fill="#585f78" d="M319.5 98.5a532.746 532.746 0 0 0 26 1.5 179.97 179.97 0 0 1 9 3.5 1052.32 1052.32 0 0 1-31-3h-2l-2-2z"/><path style="opacity:1" fill="#ce9a90" d="M151.5 97.5h1c-.011 1.517-.677 2.684-2 3.5-2.539.796-4.872.629-7-.5 3.442.672 6.109-.328 8-3z"/><path style="opacity:1" fill="#eeebeb" d="M230.5 87.5a2238.5 2238.5 0 0 1 42 39.5 8.43 8.43 0 0 0 4 .5v3a8.43 8.43 0 0 1-4-.5A1017.556 1017.556 0 0 1 233 93.5c-.5 9.327-.666 18.661-.5 28l-2-18v-16z"/><path style="opacity:1" fill="#7b808f" d="M249.5 100.5c3.264 1.594 5.931 3.927 8 7-3.264-1.594-5.931-3.927-8-7z"/><path style="opacity:1" fill="#717689" d="m387.5 97.5 3 2c.61.891.943 1.891 1 3-2.087-1.085-3.42-2.751-4-5z"/><path style="opacity:1" fill="#a38d98" d="M111.5 98.5c1.351 3.328.017 4.661-4 4 1-1.667 2.333-3 4-4z"/><path style="opacity:1" fill="#f7f1e5" d="M152.5 95.5c1.193.47 1.86 1.47 2 3a358.65 358.65 0 0 0-1.5 10c-.728 2.687-1.895 5.02-3.5 7h-4a74.547 74.547 0 0 0-3.5-10c-.78-1.887-.613-3.554.5-5h1c2.128 1.129 4.461 1.296 7 .5 1.323-.816 1.989-1.983 2-3.5v-2z"/><path style="opacity:1" fill="#8b8c90" d="M323.5 100.5a1052.32 1052.32 0 0 0 31 3 91.324 91.324 0 0 0 9 3.5c.881.708 1.547 1.542 2 2.5a6049.445 6049.445 0 0 1-11-4.5 796.875 796.875 0 0 0-29-3c-.916-.278-1.582-.778-2-1.5z"/><path style="opacity:1" fill="#d9d5da" d="M52.5 102.5h-4v6h-1a24.93 24.93 0 0 1-1-8c2.286.095 4.286.762 6 2z"/><path style="opacity:1" fill="#c3bdce" d="M58.5 104.5v-1c4.622-.344 8.955.323 13 2a300.158 300.158 0 0 1-13-1z"/><path style="opacity:1" fill="#9d95ba" d="M74.5 78.5c-.166 8.007 0 16.007.5 24 7.265 1.327 14.432 1.327 21.5 0h6c-.356 1.69-1.356 2.69-3 3-8.184-.326-16.184.008-24 1v6a5.727 5.727 0 0 1-3-1v-1c.284-1.915-.049-3.581-1-5-4.045-1.677-8.378-2.344-13-2v-3h3c3.345 1.717 7.011 2.384 11 2 .695-7.428 1.362-15.428 2-24z"/><path style="opacity:1" fill="#cec7bc" d="M141.5 99.5c.667 0 1 .333 1 1-1.113 1.446-1.28 3.113-.5 5a74.547 74.547 0 0 1 3.5 10h4v1a20.69 20.69 0 0 1-5 1 89.693 89.693 0 0 1-4.5-12l-.5-3c.14-1.53.807-2.53 2-3z"/><path style="opacity:1" fill="#e4e4e3" d="M291.5 102.5a987.319 987.319 0 0 1 30 26.5 32.871 32.871 0 0 0 9 3.5c.363.683.696 1.35 1 2-4.323-.047-8.323-1.047-12-3a108.32 108.32 0 0 0-18-17h-2c-1.888-3.399-4.388-6.399-7.5-9a4.934 4.934 0 0 1-.5-3z"/><path style="opacity:1" fill="#bcb5ca" d="M41.5 99.5v-1c.996-.086 1.83.248 2.5 1 .495 1.973.662 3.973.5 6a13.938 13.938 0 0 0-3-6z"/><path style="opacity:1" fill="#f7efe4" d="M52.5 102.5h1c-.285 1.915.049 3.581 1 5 1.474.936 2.474 2.27 3 4-1.703 1.641-3.87 2.641-6.5 3-.708-.881-1.542-1.547-2.5-2v-10h4z"/><path style="opacity:1" fill="#dab8b6" d="M218.5 75.5h1v41h-1c0-.667-.333-1-1-1a867.52 867.52 0 0 1 1-38v-2z"/><path style="opacity:1" fill="#c1b9cb" d="M75.5 106.5c7.816-.992 15.816-1.326 24-1l-1 2h-1c-7.148-.992-14.48-1.325-22-1z"/><path style="opacity:1" fill="#9d4b49" d="M109.5 95.5h2v3c-1.667 1-3 2.333-4 4v1l-2 2-4 2c-.702-.616-1.702-.616-3 0l1-2c1.644-.31 2.644-1.31 3-3 .667 0 1-.333 1-1a6.546 6.546 0 0 0 3-3c1.333 0 2-.667 2-2 .667 0 1-.333 1-1z"/><path style="opacity:1" fill="#baa5a6" d="M288.5 73.5c.904.709 1.237 1.709 1 3v7a145.05 145.05 0 0 0 .5 17c.383.556.883.889 1.5 1v1a4.934 4.934 0 0 0 .5 3c3.112 2.601 5.612 5.601 7.5 9a85.693 85.693 0 0 1-11-11v-30z"/><path style="opacity:1" fill="#9e96bb" d="M44.5 80.5a6.541 6.541 0 0 1 3 3c-1.148 4.481-1.315 9.148-.5 14 1.356.88 2.856 1.213 4.5 1h1c.934 1.068 1.268 2.401 1 4h-1c-1.714-1.238-3.714-1.905-6-2a24.93 24.93 0 0 0 1 8c.302 2.559-.032 4.893-1 7-.296-1.903-.962-3.57-2-5v-5a18.437 18.437 0 0 0-.5-6c-.67-.752-1.504-1.086-2.5-1a81.912 81.912 0 0 1-10-2v-1l1-2h1l9 2 2-15z"/><path style="opacity:1" fill="#f8f3e8" d="M58.5 104.5c4.324.427 8.658.761 13 1 .951 1.419 1.284 3.085 1 5a40.911 40.911 0 0 1-9-.5c-1.29-1.802-2.956-2.969-5-3.5v-2z"/><path style="opacity:1" fill="#dfd0cd" d="M75.5 106.5c7.52-.325 14.852.008 22 1v21h-1v-21h-20a24.93 24.93 0 0 0 1 8c-1.406-.473-2.073-1.473-2-3v-6z"/><path style="opacity:1" fill="#a04c45" d="M219.5 73.5c.667 0 1 .333 1 1v5c-.167 12.338 0 24.671.5 37l1 1c.369-4.363.869-8.696 1.5-13h3v13a467.073 467.073 0 0 1-2-9 31.116 31.116 0 0 0-1 11c-1.904-.238-3.238-1.238-4-3v-43z"/><path style="opacity:1" fill="#cac9c9" d="m309.5 98.5 4 1a19.24 19.24 0 0 1 6 1c1.1 1.058 2.434 1.892 4 2.5a116.555 116.555 0 0 0 30 4c2.691.156 5.024.989 7 2.5a144.153 144.153 0 0 0-30-2c-7.478-.937-14.478-3.271-21-7v-2z"/><path style="opacity:1" fill="#b0afae" d="M319.5 100.5h4c.418.722 1.084 1.222 2 1.5 9.693.824 19.36 1.824 29 3 3.688 1.513 7.355 3.013 11 4.5 3.355 1.355 5.689 3.689 7 7-3.371-3.354-7.371-5.687-12-7-1.976-1.511-4.309-2.344-7-2.5a116.555 116.555 0 0 1-30-4c-1.566-.608-2.9-1.442-4-2.5z"/><path style="opacity:1" fill="#faf4e8" d="M114.5 125.5c-1.542.801-3.208 1.134-5 1h-4v-11c.977-2.787 1.31-5.787 1-9h4c.587 6.019 2.253 11.685 5 17-.363.683-.696 1.35-1 2z"/><path style="opacity:1" fill="#b0acb5" d="M107.5 103.5c4.438-1.075 6.438.592 6 5-1.847-2.671-4.514-3.671-8-3l2-2z"/><path style="opacity:1" fill="#6e7487" d="M257.5 107.5c3.264 1.594 5.931 3.927 8 7-3.264-1.594-5.931-3.927-8-7z"/><path style="opacity:1" fill="#e8e6e6" d="M335.5 77.5h16c22.638.396 39.471 10.396 50.5 30 5.333 15.34 2.833 29.173-7.5 41.5a96.857 96.857 0 0 0 9.5-.5c2.61.033 4.777.7 6.5 2a112.97 112.97 0 0 0-15 .5 14.698 14.698 0 0 0-3 3.5c-1.55 1.22-3.216 1.22-5 0-.333-1-1-1.667-2-2 2.285-2.952 4.952-5.618 8-8 6.203-5.881 8.869-13.214 8-22-.894-12.621-6.228-23.12-16-31.5a29.291 29.291 0 0 0-7-2.5c-2.483-3.241-5.816-4.908-10-5-1.714-1.238-3.714-1.905-6-2-2.405-1.268-5.072-1.935-8-2h-3l-16-2z"/><path style="opacity:1" fill="#faf3e7" d="M96.5 128.5c-.709.904-1.709 1.237-3 1a6.544 6.544 0 0 1-3-3c-1.085-2.087-2.751-3.42-5-4a30.572 30.572 0 0 1-8-7 24.93 24.93 0 0 1-1-8h20v21z"/><path style="opacity:1" fill="#89847f" d="M29.5 95.5c-.375 7.235.625 14.235 3 21h-2c-2.154-2.117-3.154-4.784-3-8l2-13z"/><path style="opacity:1" fill="#e2dbd1" d="M31.5 96.5c3.29.874 6.623 1.54 10 2v1a41.58 41.58 0 0 1-8-1 62.922 62.922 0 0 0 3 19h-2a92.028 92.028 0 0 1-4-18.5c.028-1.07.361-1.903 1-2.5z"/><path style="opacity:1" fill="#6c696a" d="M167.5 128.5a319.364 319.364 0 0 1-2 5 10.014 10.014 0 0 0 1 3l-8-4v-1c5.547-8.45 8.88-17.784 10-28 .994-9.486 1.327-19.152 1-29 1.073 1.184 1.907 3.184 2.5 6 .667 9.333.667 18.667 0 28a302.944 302.944 0 0 0-4.5 20z"/><path style="opacity:1" fill="#dedddd" d="M330.5 107.5c10.103-.377 20.103.29 30 2a10.165 10.165 0 0 0 3 3 477.74 477.74 0 0 0-33-5z"/><path style="opacity:1" fill="#bf8078" d="M58.5 106.5c2.044.531 3.71 1.698 5 3.5 2.982.498 5.982.665 9 .5v1a31.117 31.117 0 0 1-11-1 494.818 494.818 0 0 1-3-4z"/><path style="opacity:1" fill="#707381" d="M137.5 107.5c2.085 2.184 3.085 4.851 3 8-2.085-2.184-3.085-4.851-3-8z"/><path style="opacity:1" fill="#8a8887" d="M167.5 61.5c2.037 4.73 4.037 9.397 6 14v4a123.868 123.868 0 0 1-2 41v2a38.496 38.496 0 0 0-4 6 302.944 302.944 0 0 1 4.5-20c.667-9.333.667-18.667 0-28-.593-2.816-1.427-4.816-2.5-6l-2-2c-.09-3.714-1.09-7.047-3-10a4.934 4.934 0 0 1 .5-3c.417 1.256 1.25 1.923 2.5 2z"/><path style="opacity:1" fill="#a7605b" d="M226.5 117.5v7l-2-2a5.727 5.727 0 0 1-1-3 31.116 31.116 0 0 1 1-11 467.073 467.073 0 0 0 2 9z"/><path style="opacity:1" fill="#a2a1a5" d="M113.5 109.5a114.067 114.067 0 0 1 5 13c-3.017-3.703-4.684-8.036-5-13z"/><path style="opacity:1" fill="#ada7a0" d="M141.5 98.5v1c-1.193.47-1.86 1.47-2 3l.5 3a89.693 89.693 0 0 0 4.5 12h-1l-2-1c0-.667-.333-1-1-1 .085-3.149-.915-5.816-3-8-.951-1.419-1.284-3.085-1-5 .467-2.797 2.133-4.13 5-4z"/><path style="opacity:1" fill="#e8d2cb" d="M57.5 111.5a10.526 10.526 0 0 1 3 2.5c3.856.177 7.523.677 11 1.5-.086.996.248 1.829 1 2.5a72.368 72.368 0 0 1-12 .5c-.79-.901-1.79-1.568-3-2-2-2.667-4-2.667-6 0l-2 1a20.676 20.676 0 0 1-1-5c.958.453 1.792 1.119 2.5 2 2.63-.359 4.797-1.359 6.5-3z"/><path style="opacity:1" fill="#c5c5c7" d="M360.5 109.5c4.629 1.313 8.629 3.646 12 7 1.122 1.788 1.289 3.788.5 6-.2 1.82-1.034 3.153-2.5 4 2.958-7.363.625-12.03-7-14a10.165 10.165 0 0 1-3-3z"/><path style="opacity:1" fill="#989ba4" d="M299.5 114.5h2l6 7c-3.264-1.594-5.931-3.927-8-7z"/><path style="opacity:1" fill="#c3c3c5" d="M301.5 114.5a108.32 108.32 0 0 1 18 17 25.497 25.497 0 0 1-7-5c-1.333-2-3-3.667-5-5l-6-7z"/><path style="opacity:1" fill="#b66b61" d="M57.5 116.5h-6c2-2.667 4-2.667 6 0z"/><path style="opacity:1" fill="#bfbdce" d="M152.5 93.5h3c.201 7.916-.799 15.583-3 23h-3v-1c1.605-1.98 2.772-4.313 3.5-7 .453-3.34.953-6.674 1.5-10-.14-1.53-.807-2.53-2-3v-2z"/><path style="opacity:1" fill="#a1a3b0" d="M217.5 115.5c.667 0 1 .333 1 1-3.769-.256-7.436.077-11 1 2.837-1.902 6.171-2.569 10-2z"/><path style="opacity:1" fill="#d4ced6" d="M44.5 110.5c1.038 1.43 1.704 3.097 2 5v2c-1.424-2.015-2.09-4.348-2-7z"/><path style="opacity:1" fill="#ae5e56" d="M51.5 116.5h6c1.21.432 2.21 1.099 3 2v1c-.617-.111-1.117-.444-1.5-1-.122 1.937-.955 3.27-2.5 4v-3c-1.55-1.22-3.216-1.22-5 0-.06-.543-.393-.876-1-1-.929 1.189-1.262 2.522-1 4-1.333-1.667-1.333-3.333 0-5l2-1z"/><path style="opacity:1" fill="#e6dfd5" d="M105.5 105.5c3.486-.671 6.153.329 8 3v1c.316 4.964 1.983 9.297 5 13-.535 1.946-1.868 2.946-4 3 .304-.65.637-1.317 1-2-2.747-5.315-4.413-10.981-5-17h-4c.31 3.213-.023 6.213-1 9v-10z"/><path style="opacity:1" fill="#69637a" d="M30.5 116.5h2l2 1c2.227 3.119 1.227 3.786-3 2-.904-.709-1.237-1.709-1-3z"/><path style="opacity:1" fill="#d5ada4" d="M71.5 115.5c1 .333 1.667 1 2 2-3.873 1.93-8.206 2.597-13 2v-1a72.368 72.368 0 0 0 12-.5c-.752-.671-1.086-1.504-1-2.5z"/><path style="opacity:1" fill="#9d8eaf" d="M105.5 105.5v12c-1.675 3.007-2.341 6.34-2 10 2.235.295 4.235-.039 6-1 1.792.134 3.458-.199 5-1 2.132-.054 3.465-1.054 4-3 1.484 2.734.484 4.234-3 4.5 2.208.191 4.208.691 6 1.5-2.885-.306-5.552.027-8 1h-2c-3.679-.44-7.012.227-10 2v-24l4-2z"/><path style="opacity:1" fill="#9fa4b1" d="M207.5 117.5c-1.333 2-3 3.667-5 5 .667-2.667 2.333-4.333 5-5z"/><path style="opacity:1" fill="#b6746f" d="M60.5 122.5c4.805-.987 9.805-1.321 15-1 .237 1.291-.096 2.291-1 3-4.215-1.936-8.881-2.603-14-2z"/><path style="opacity:1" fill="#c8c7c7" d="M378.5 88.5a29.291 29.291 0 0 1 7 2.5c9.772 8.38 15.106 18.879 16 31.5.869 8.786-1.797 16.119-8 22a30.228 30.228 0 0 0 3-10v-1c1.466-.847 2.3-2.18 2.5-4a72.464 72.464 0 0 0 0-17c-.949-1.593-2.115-2.926-3.5-4 .073-1.527-.594-2.527-2-3 .073-1.527-.594-2.527-2-3a5.727 5.727 0 0 0-1-3c-1.667-3.667-4.333-6.333-8-8-1.904-.238-3.238-1.238-4-3z"/><path style="opacity:1" fill="#a094b1" d="M47.5 108.5h1v4a20.676 20.676 0 0 0 1 5c-1.333 1.667-1.333 3.333 0 5 2.418 4.552 5.752 5.219 10 2 .47 1.193 1.47 1.86 3 2 2.64.595 5.307.928 8 1a6.544 6.544 0 0 1-3 3 94.987 94.987 0 0 0-8-2c-.607.124-.94.457-1 1-2.704-1.214-5.37-1.214-8 0-.734-1.208-1.067-2.541-1-4a190.26 190.26 0 0 1-11-2c-1.62-1.738-3.62-2.238-6-1.5 3.063 2.03 4.73 4.864 5 8.5-1.387-2.553-3.22-4.886-5.5-7a8.435 8.435 0 0 1-.5-4c4.227 1.786 5.227 1.119 3-2h2c2.98 2.988 6.648 4.654 11 5 .285-1.915-.049-3.581-1-5v-2c.968-2.107 1.302-4.441 1-7z"/><path style="opacity:1" fill="#dcdade" d="M36.5 117.5a49.506 49.506 0 0 1 10 3v-3c.951 1.419 1.285 3.085 1 5-4.352-.346-8.02-2.012-11-5z"/><path style="opacity:1" fill="#dbbcb4" d="M60.5 122.5c5.119-.603 9.785.064 14 2h-1c-4.333-1.333-8.667-1.333-13 0h-1c-.172-.992.162-1.658 1-2z"/><path style="opacity:1" fill="#ddbab1" d="M85.5 122.5c2.249.58 3.915 1.913 5 4-2.249-.58-3.915-1.913-5-4z"/><path style="opacity:1" fill="#838796" d="M307.5 121.5c2 1.333 3.667 3 5 5-2.667-.667-4.333-2.333-5-5z"/><path style="opacity:1" fill="#faf8ed" d="M73.5 124.5c-.333 1-1 1.667-2 2-3.888-.146-7.554-.813-11-2 4.333-1.333 8.667-1.333 13 0z"/><path style="opacity:1" fill="#b46e67" d="M97.5 107.5h1v25h-2c-.992.172-1.658-.162-2-1h3v-24z"/><path style="opacity:1" fill="#9f4641" d="M73.5 117.5c.876-.131 1.543.202 2 1-1.291 1.027-1.291 2.027 0 3-5.195-.321-10.195.013-15 1-.838.342-1.172 1.008-1 2-4.248 3.219-7.582 2.552-10-2-.262-1.478.071-2.811 1-4 .607.124.94.457 1 1 .157 3.773 1.824 4.773 5 3 1.545-.73 2.378-2.063 2.5-4 .383.556.883.889 1.5 1 4.794.597 9.127-.07 13-2z"/><path style="opacity:1" fill="#faf6f3" d="M56.5 119.5v3h-3v-3h3z"/><path style="opacity:1" fill="#ddbab3" d="M56.5 119.5h-3v3h3c-3.176 1.773-4.843.773-5-3 1.784-1.22 3.45-1.22 5 0z"/><path style="opacity:1" fill="#cca29e" d="M80.5 124.5a6.544 6.544 0 0 0-3 3c-.667 0-1-.333-1-1 .875-2.306 2.208-2.973 4-2z"/><path style="opacity:1" fill="#848a9e" d="M202.5 122.5v3c-1.459-.067-2.792.266-4 1 .667-2 2-3.333 4-4z"/><path style="opacity:1" fill="#dad4d8" d="M59.5 124.5h1c3.446 1.187 7.112 1.854 11 2 0 .667-.333 1-1 1a41.324 41.324 0 0 1-8-1c-1.53-.14-2.53-.807-3-2z"/><path style="opacity:1" fill="#7b7c94" d="m141.5 116.5 2 1c1.452.802 3.118 1.302 5 1.5-1.41.368-2.41 1.201-3 2.5 4.86.695 8.026 3.362 9.5 8 .816 1.323 1.983 1.989 3.5 2v1c-7.596-3.262-13.263-8.595-17-16z"/><path style="opacity:1" fill="#ebe2de" d="m80.5 124.5 3 2c-1.418 1.808-3.418 2.475-6 2v-1a6.544 6.544 0 0 1 3-3z"/><path style="opacity:1" fill="#d3ced7" d="M105.5 117.5v9h4c-1.765.961-3.765 1.295-6 1-.341-3.66.325-6.993 2-10z"/><path style="opacity:1" fill="#b5afa9" d="M38.5 123.5c-.438-.065-.772.101-1 .5 2.972 3.775 4.972 7.941 6 12.5a25.634 25.634 0 0 1-6-6c-.27-3.636-1.937-6.47-5-8.5 2.38-.738 4.38-.238 6 1.5z"/><path style="opacity:1" fill="#76231b" d="M226.5 117.5a23.317 23.317 0 0 0 3 6v12l-3 4v-22z"/><path style="opacity:1" fill="#ddc2c0" d="m230.5 103.5 2 18c-.328 10.846.006 21.513 1 32v2c-1.659-10.795-2.659-21.795-3-33v-19z"/><path style="opacity:1" fill="#ada2be" d="M83.5 126.5h1l1 2c-.12 1.086-.787 1.753-2 2-2.216-.378-4.216-1.045-6-2 2.582.475 4.582-.192 6-2z"/><path style="opacity:1" fill="#9c7a93" d="M96.5 128.5h1v3h-3l-1-2c1.291.237 2.291-.096 3-1z"/><path style="opacity:1" fill="#c7b3bc" d="M111.5 129.5c-2.405 1.268-5.072 1.935-8 2a145.035 145.035 0 0 0-1 21h-1v-21c2.988-1.773 6.321-2.44 10-2z"/><path style="opacity:1" fill="#c3bcbe" d="M113.5 129.5c2.448-.973 5.115-1.306 8-1 .667 0 1 .333 1 1 .343 1.983-.324 3.317-2 4v-4h-7z"/><path style="opacity:1" fill="#acacb0" d="M171.5 122.5a94.842 94.842 0 0 0-3.5 13c3.73.96 7.563 1.293 11.5 1-4.333 1.333-8.667 1.333-13 0a10.014 10.014 0 0 1-1-3 319.364 319.364 0 0 0 2-5 38.496 38.496 0 0 1 4-6z"/><path style="opacity:1" fill="#f8f2e6" d="M111.5 129.5h9v4c-1.504 4.339-4.004 8.006-7.5 11a164.98 164.98 0 0 0-10.5 8 145.035 145.035 0 0 1 1-21c2.928-.065 5.595-.732 8-2z"/><path style="opacity:1" fill="#a3a7b4" d="M198.5 126.5c-1.492 2.823-3.826 4.49-7 5a26.175 26.175 0 0 1 7-5z"/><path style="opacity:1" fill="#cac3cf" d="M89.5 131.5v1h-10v3c-.934-1.068-1.268-2.401-1-4h11z"/><path style="opacity:1" fill="#b8736b" d="M89.5 132.5v-1c1.527-.073 2.527.594 3 2a5.727 5.727 0 0 1-3-1z"/><path style="opacity:1" fill="#6e758c" d="M369.5 126.5h1c-1.516 4.177-4.516 6.511-9 7l5-4a6.547 6.547 0 0 0 3-3z"/><path style="opacity:1" fill="#cdcfd5" d="m366.5 129.5-5 4a46.86 46.86 0 0 1-9 2 31.147 31.147 0 0 1 2-2 54.993 54.993 0 0 0 12-4z"/><path style="opacity:1" fill="#abaaa9" d="M395.5 108.5c1.385 1.074 2.551 2.407 3.5 4a72.464 72.464 0 0 1 0 17c-.2 1.82-1.034 3.153-2.5 4 1.617-8.445 1.284-16.778-1-25z"/><path style="opacity:1" fill="#f5f0e6" d="M73.5 131.5c.997-.03 1.664.47 2 1.5a121.74 121.74 0 0 0 6 19.5c-.235.597-.735.93-1.5 1-1.88-1.513-4.046-2.179-6.5-2-5.688-3.349-10.021-8.016-13-14l7-2a17.9 17.9 0 0 0 6-4z"/><path style="opacity:1" fill="#d5aea7" d="M72.5 130.5c.667 0 1 .333 1 1a17.9 17.9 0 0 1-6 4c1.333-2 3-3.667 5-5z"/><path style="opacity:1" fill="#993228" d="M101.5 107.5v1a529.493 529.493 0 0 0-1 46h-3c-.264-7.39.07-14.723 1-22v-25c1.298-.616 2.298-.616 3 0z"/><path style="opacity:1" fill="#878d9f" d="M191.5 131.5c-1.589 2.58-3.922 3.913-7 4v-1a32.894 32.894 0 0 1 7-3z"/><path style="opacity:1" fill="#d4aaa2" d="m67.5 135.5-7 2h-1c2.135-1.869 4.802-2.536 8-2z"/><path style="opacity:1" fill="#f7f1e6" d="M89.5 132.5c.891.61 1.891.943 3 1 0 .667.333 1 1 1 1.871 4.366 2.538 9.033 2 14-3.573 8.697-7.74 9.031-12.5 1l-3.5-14v-3h10z"/><path style="opacity:1" fill="#7f5958" d="m224.5 122.5 2 2v19a274.481 274.481 0 0 0-2.5-7c-.186 2.536-.686 4.869-1.5 7v-8c.722-.418 1.222-1.084 1.5-2 .499-3.652.665-7.318.5-11z"/><path style="opacity:1" fill="#d8d8da" d="M332.5 134.5a134.215 134.215 0 0 0 20 1c-1.419.951-3.085 1.284-5 1a84.902 84.902 0 0 1-13-.5c-.916-.278-1.582-.778-2-1.5z"/><path style="opacity:1" fill="#dedee2" d="M15.5 121.5a6763.865 6763.865 0 0 0 15 24c-7.366-6.548-12.366-14.548-15-24z"/><path style="opacity:1" fill="#a65048" d="M75.5 121.5c3.976.06 6.976 1.727 9 5h-1l-3-2c-1.792-.973-3.125-.306-4 2-1.667 1-3 2.333-4 4-2 1.333-3.667 3-5 5-3.198-.536-5.865.131-8 2-1.69.356-2.69 1.356-3 3-5.594-.427-8.094-3.427-7.5-9 .278-.916.778-1.582 1.5-2 2.63-1.214 5.296-1.214 8 0 .892 2.214 2.558 3.214 5 3 1.855.16 3.188-.507 4-2a6.544 6.544 0 0 0 3-3c.667 0 1-.333 1-1 1-.333 1.667-1 2-2h1c.904-.709 1.237-1.709 1-3z"/><path style="opacity:1" fill="#ba7e78" d="M52.5 132.5v1c-.073 1.527.594 2.527 2 3h2c-1.1 1.098-2.434 1.265-4 .5-1.3-1.616-1.3-3.116 0-4.5z"/><path style="opacity:1" fill="#d5ced8" d="M52.5 133.5c1.548.321 2.215 1.321 2 3-1.406-.473-2.073-1.473-2-3z"/><path style="opacity:1" fill="#9c819f" d="M56.5 136.5h-2c.215-1.679-.452-2.679-2-3v-1c-1.3 1.384-1.3 2.884 0 4.5 1.566.765 2.9.598 4-.5z"/><path style="opacity:1" fill="#ddd0d2" d="M67.5 130.5c-.812 1.493-2.145 2.16-4 2-2.442.214-4.108-.786-5-3 .06-.543.393-.876 1-1 2.81.58 5.477 1.246 8 2z"/><path style="opacity:1" fill="#999daa" d="M319.5 131.5c3.677 1.953 7.677 2.953 12 3h1c.418.722 1.084 1.222 2 1.5 4.321.499 8.654.666 13 .5-5.819 1.153-11.819 1.319-18 .5-3.727-1.252-7.06-3.085-10-5.5z"/><path style="opacity:1" fill="#8d8c90" d="M393.5 105.5c1.406.473 2.073 1.473 2 3 2.284 8.222 2.617 16.555 1 25v1a10.165 10.165 0 0 0-3 3 19.22 19.22 0 0 1 1-6c1.519-3.026 2.185-6.359 2-10a71.577 71.577 0 0 0-3-16z"/><path style="opacity:1" fill="#a14c48" d="M101.5 108.5v47h-6v-7c.538-4.967-.129-9.634-2-14 1.679.215 2.679-.452 3-2h2a135.171 135.171 0 0 0-1 22h3a529.493 529.493 0 0 1 1-46z"/><path style="opacity:1" fill="#b1adab" d="M126.5 135.5c1.762.762 2.762 2.096 3 4 .734 1.208 1.067 2.541 1 4h-2c-1.139-2.504-1.806-5.17-2-8z"/><path style="opacity:1" fill="#9c94b8" d="M122.5 129.5c.934 1.068 1.268 2.401 1 4 1.679-.215 2.679.452 3 2a43.836 43.836 0 0 1-2-1 115.226 115.226 0 0 1-14 16 37.227 37.227 0 0 1-9 5v-3h1a164.98 164.98 0 0 1 10.5-8c3.496-2.994 5.996-6.661 7.5-11 1.676-.683 2.343-2.017 2-4z"/><path style="opacity:1" fill="#ece5dd" d="M38.5 123.5c3.64.773 7.307 1.44 11 2-.067 1.459.266 2.792 1 4-.722.418-1.222 1.084-1.5 2-.594 5.573 1.906 8.573 7.5 9a2.429 2.429 0 0 1 2 .5 110.376 110.376 0 0 0 8 9.5c.065.438-.101.772-.5 1a18.158 18.158 0 0 0-5.5-2c-6.502-3.159-12.168-7.492-17-13-1.028-4.559-3.028-8.725-6-12.5.228-.399.562-.565 1-.5z"/><path style="opacity:1" fill="#5c1f1a" d="M222.5 135.5v6c-1.105 1.1-2.438 1.767-4 2-.134-1.792.199-3.458 1-5a6.547 6.547 0 0 1 3-3z"/><path style="opacity:1" fill="#ece8df" d="M126.5 135.5c.194 2.83.861 5.496 2 8-4.481 3.668-9.481 6.502-15 8.5-1.657.725-2.657.225-3-1.5a115.226 115.226 0 0 0 14-16c.683.363 1.35.696 2 1z"/><path style="opacity:1" fill="#e9d3d2" d="M276.5 139.5v1c.166 6.342 0 12.675-.5 19-.671.752-1.504 1.086-2.5 1a5.727 5.727 0 0 0-1-3c1.792-5.245 2.626-10.912 2.5-17 .383-.556.883-.889 1.5-1z"/><path style="opacity:1" fill="#a75c56" d="M282.5 131.5c1.667 1 3 2.333 4 4a600.937 600.937 0 0 0-1 49 1004.045 1004.045 0 0 1-1.5-45l-1-2a8.43 8.43 0 0 0-.5 4v5h-1a75.818 75.818 0 0 1 1-15z"/><path style="opacity:1" fill="#72737c" d="M394.5 131.5a19.22 19.22 0 0 0-1 6c0 .667-.333 1-1 1a32.295 32.295 0 0 1-10 9c4.998-4.697 8.998-10.031 12-16z"/><path style="opacity:1" fill="#838297" d="M129.5 139.5c2.377 2.884 5.044 5.717 8 8.5 2.41.057 3.744 1.224 4 3.5-1.368 2.702-3.368 4.702-6 6h-2c.787-1.604 2.12-2.271 4-2a8.43 8.43 0 0 0-.5-4c-2.782-2.271-4.949-4.937-6.5-8 .067-1.459-.266-2.792-1-4z"/><path style="opacity:1" fill="#96352c" d="M277.5 126.5a28.071 28.071 0 0 1 5 5 75.818 75.818 0 0 0-1 15c-.722.418-1.222 1.084-1.5 2l-1 13-1-1c-.5-6.658-.666-13.325-.5-20v-14z"/><path style="opacity:1" fill="#865a58" d="M219.5 138.5c-.801 1.542-1.134 3.208-1 5 .317 4.202-.017 8.202-1 12v-15c0-1.333.667-2 2-2z"/><path style="opacity:1" fill="#8d8988" d="M392.5 138.5c-2.023 4.531-5.023 8.365-9 11.5.243.902.577 1.735 1 2.5h-2c0-1.333-.667-2-2-2-.215-1.679.452-2.679 2-3a32.295 32.295 0 0 0 10-9z"/><path style="opacity:1" fill="#9d93b8" d="M76.5 126.5c0 .667.333 1 1 1v1c1.784.955 3.784 1.622 6 2 1.213-.247 1.88-.914 2-2a310.678 310.678 0 0 1 4 3h-11c-.268 1.599.066 2.932 1 4l3.5 14c4.76 8.031 8.927 7.697 12.5-1v7h6c-.763.768-1.763 1.268-3 1.5-4 .667-8 .667-12 0-2.842-.348-4.509-1.848-5-4.5a121.74 121.74 0 0 1-6-19.5c-.336-1.03-1.003-1.53-2-1.5 0-.667-.333-1-1-1 1-1.667 2.333-3 4-4z"/><path style="opacity:1" fill="#71727b" d="M217.5 140.5v5a165.767 165.767 0 0 0-19 9.5c-1.939.908-2.939 2.408-3 4.5h-1c.172-.992-.162-1.658-1-2 8.463-4.762 16.463-10.429 24-17z"/><path style="opacity:1" fill="#b6b4b3" d="M396.5 134.5a30.228 30.228 0 0 1-3 10c-3.048 2.382-5.715 5.048-8 8h-1a11.123 11.123 0 0 1-1-2.5c3.977-3.135 6.977-6.969 9-11.5.667 0 1-.333 1-1a10.165 10.165 0 0 1 3-3z"/><path style="opacity:1" fill="#cfc9c9" d="M292.5 140.5c4.04 3.344 8.04 6.677 12 10-2.053-.098-3.72.569-5 2h-1a4.934 4.934 0 0 0-.5-3c-2.413-1.909-4.247-4.243-5.5-7-1.314 5.152-1.314 10.152 0 15v3c-.617.111-1.117.444-1.5 1l-.5-10.5c.012-3.902.679-7.402 2-10.5z"/><path style="opacity:1" fill="#9c94ba" d="M59.5 137.5h1c2.979 5.984 7.312 10.651 13 14 2.386 1.676 5.053 3.01 8 4l-3 1a22.593 22.593 0 0 1-8-4c-1.105-1.1-2.438-1.767-4-2a110.376 110.376 0 0 1-8-9.5 2.429 2.429 0 0 0-2-.5c.31-1.644 1.31-2.644 3-3z"/><path style="opacity:1" fill="#cd9e9b" d="M285.5 184.5v6c-.617-.111-1.117-.444-1.5-1a1143.353 1143.353 0 0 0-1.5-48 8.43 8.43 0 0 1 .5-4l1 2c.169 15.172.669 30.172 1.5 45z"/><path style="opacity:1" fill="#f2f0f0" d="M298.5 152.5c-1.69.356-2.69 1.356-3 3-1.278.282-2.278.949-3 2-1.314-4.848-1.314-9.848 0-15 1.253 2.757 3.087 5.091 5.5 7 .483.948.649 1.948.5 3z"/><path style="opacity:1" fill="#c7c4d1" d="M60.5 149.5a18.158 18.158 0 0 1 5.5 2c.399-.228.565-.562.5-1 1.562.233 2.895.9 4 2 .13.876-.203 1.543-1 2-3.255-1.455-6.255-3.122-9-5z"/><path style="opacity:1" fill="#bcb3b2" d="M217.5 147.5v8h-1a9.86 9.86 0 0 0-1-6 22.106 22.106 0 0 0-7 5.5c.752.671 1.086 1.504 1 2.5-.992.172-1.658-.162-2-1 0-.667-.333-1-1-1v-3a82.239 82.239 0 0 0 11-5z"/><path style="opacity:1" fill="#a45149" d="M229.5 81.5c.838.342 1.172 1.008 1 2v39c-.167 15.004 0 30.004.5 45 .417 1.256 1.25 1.923 2.5 2-.321 1.548-1.321 2.215-3 2 .237-1.291-.096-2.291-1-3v-87z"/><path style="opacity:1" fill="#925d59" d="M304.5 150.5c.992-.172 1.658.162 2 1a20.69 20.69 0 0 0-5 1h-2c1.28-1.431 2.947-2.098 5-2z"/><path style="opacity:1" fill="#95352c" d="M222.5 141.5v18c-1.689 1.431-3.689 2.264-6 2.5-.881.708-1.547 1.542-2 2.5a21.435 21.435 0 0 1-7-1c-.672-.767-1.505-1.434-2.5-2-2.415.911-3.915 2.578-4.5 5-2.333 1.333-4.667 1.333-7 0l-1-2c.086-.996-.248-1.829-1-2.5a8.43 8.43 0 0 1 4-.5c1.291.237 2.291-.096 3-1a19.552 19.552 0 0 0 4-3.5 12.93 12.93 0 0 1 5-.5c.342.838 1.008 1.172 2 1 .709.904 1.709 1.237 3 1a29.555 29.555 0 0 1 5-3c.983-3.798 1.317-7.798 1-12 1.562-.233 2.895-.9 4-2z"/><path style="opacity:1" fill="#c48a86" d="M245.5 147.5c-2.217 1.58-4.884 2.58-8 3-1.021 1.688-2.355 3.021-4 4v-1c2.823-4.065 6.823-6.065 12-6z"/><path style="opacity:1" fill="#98372e" d="M410.5 151.5c.934 1.068 1.268 2.401 1 4h-1c-6.525-1.174-12.192.326-17 4.5l-3 .5a71.192 71.192 0 0 0-9-3l-2-1-1-2c1.014-1.174 2.347-1.84 4-2h2c.473 1.406 1.473 2.073 3 2 1.784 1.22 3.45 1.22 5 0 1.696-.185 3.029-1.019 4-2.5a98.432 98.432 0 0 1 14-.5z"/><path style="opacity:1" fill="#c48d89" d="M298.5 152.5h1c-.936 1.474-2.27 2.474-4 3 .31-1.644 1.31-2.644 3-3z"/><path style="opacity:1" fill="#4d323d" d="M377.5 150.5c-3.321 3.181-7.321 5.181-12 6a82.846 82.846 0 0 1 12-6z"/><path style="opacity:1" fill="#b38482" d="M384.5 152.5h1c1 .333 1.667 1 2 2-1.527.073-2.527-.594-3-2z"/><path style="opacity:1" fill="#b46a64" d="M410.5 150.5v1a98.432 98.432 0 0 0-14 .5c-.971 1.481-2.304 2.315-4 2.5a14.698 14.698 0 0 1 3-3.5 112.97 112.97 0 0 1 15-.5z"/><path style="opacity:1" fill="#cd9c99" d="M410.5 151.5v-1c1.149.291 1.816 1.124 2 2.5-.028 1.07-.361 1.903-1 2.5.268-1.599-.066-2.932-1-4z"/><path style="opacity:1" fill="#565150" d="M141.5 151.5c3.011.676 5.677 2.009 8 4v1a20.69 20.69 0 0 0-5 1h-9c2.632-1.298 4.632-3.298 6-6z"/><path style="opacity:1" fill="#d4aca8" d="M281.5 146.5h1c.613 5.771-.054 11.104-2 16a75.46 75.46 0 0 0 1-16z"/><path style="opacity:1" fill="#61231d" d="M377.5 150.5h3c1.333 0 2 .667 2 2-1.653.16-2.986.826-4 2-3.176.84-5.842 2.507-8 5-1 .333-1.667 1-2 2h-4a5.727 5.727 0 0 0 1-3v-2c4.679-.819 8.679-2.819 12-6z"/><path style="opacity:1" fill="#b8b7b9" d="M30.5 145.5a184.66 184.66 0 0 1 18 14 18.95 18.95 0 0 0 3 5 1883.052 1883.052 0 0 0-9-5.5 65.204 65.204 0 0 0-12-11.5v-2z"/><path style="opacity:1" fill="#96908e" d="M217.5 145.5v2a82.239 82.239 0 0 1-11 5v3c-4.246-.739-6.913.927-8 5-.709.904-1.709 1.237-3 1v-2c.061-2.092 1.061-3.592 3-4.5a165.767 165.767 0 0 1 19-9.5z"/><path style="opacity:1" fill="#c5928e" d="M226.5 143.5c.278 15.335.611 30.668 1 46-.838-.342-1.172-1.008-1-2a1492.005 1492.005 0 0 0-1.5-41l-1-2a8.43 8.43 0 0 0-.5 4c.315 3.871-.018 7.538-1 11v-16c.814-2.131 1.314-4.464 1.5-7 .902 2.427 1.736 4.76 2.5 7z"/><path style="opacity:1" fill="#cf9f9b" d="M250.5 159.5c-3.084-2.581-6.75-3.581-11-3v3l-2 12a62.792 62.792 0 0 1 1-15.5 45.296 45.296 0 0 1 10-1.5c1.717 1.168 2.384 2.835 2 5z"/><path style="opacity:1" fill="#973128" d="M286.5 135.5c1 .333 1.667 1 2 2v36h3c1.193.47 1.86 1.47 2 3a39.113 39.113 0 0 1-1 5v3c-1.713 1.135-2.38 2.802-2 5-1.419.951-3.085 1.284-5 1v-6a600.937 600.937 0 0 1 1-49z"/><path style="opacity:1" fill="#742a24" d="M306.5 151.5a26.335 26.335 0 0 0 5 2c1.878.708 3.545 1.874 5 3.5a8.43 8.43 0 0 0 4 .5v1c-2.554.888-5.221 1.221-8 1-.667 0-1-.333-1-1-.473-1.406-1.473-2.073-3-2-1.068-.934-2.401-1.268-4-1a10.165 10.165 0 0 0-3-3 20.69 20.69 0 0 1 5-1z"/><path style="opacity:1" fill="#524153" d="M311.5 153.5a8.43 8.43 0 0 1 4 .5c1.931.902 3.597 2.069 5 3.5a8.43 8.43 0 0 1-4-.5c-1.455-1.626-3.122-2.792-5-3.5z"/><path style="opacity:1" fill="#9f8784" d="m378.5 154.5 1 2a27.718 27.718 0 0 0-9 3c2.158-2.493 4.824-4.16 8-5z"/><path style="opacity:1" fill="#ce9e9b" d="M410.5 155.5c-5.988-.133-11.321 1.7-16 5.5-4.763 1.034-9.097.201-13-2.5v-1a71.192 71.192 0 0 1 9 3l3-.5c4.808-4.174 10.475-5.674 17-4.5z"/><path style="opacity:1" fill="#7b7179" d="M149.5 156.5v-1c2.83.194 5.496.861 8 2v2h-3c-1.268-1.547-2.935-2.547-5-3z"/><path style="opacity:1" fill="#824e4a" d="M206.5 155.5c.667 0 1 .333 1 1a12.93 12.93 0 0 0-5 .5 19.552 19.552 0 0 1-4 3.5c1.087-4.073 3.754-5.739 8-5z"/><path style="opacity:1" fill="#e0dbdb" d="M216.5 155.5c-2.473-.412-3.806.588-4 3-1.291.237-2.291-.096-3-1 .086-.996-.248-1.829-1-2.5a22.106 22.106 0 0 1 7-5.5 9.86 9.86 0 0 1 1 6z"/><path style="opacity:1" fill="#c08682" d="M216.5 155.5h1a29.555 29.555 0 0 0-5 3c.194-2.412 1.527-3.412 4-3z"/><path style="opacity:1" fill="#9d3a31" d="M276.5 140.5h1c-.166 6.675 0 13.342.5 20l1 1 1-13c.278-.916.778-1.582 1.5-2a75.46 75.46 0 0 1-1 16v1l-5 4c-3.574.592-5.574-.908-6-4.5a4.934 4.934 0 0 0-3-.5v6c-1.419.951-3.085 1.284-5 1 .073-1.527-.594-2.527-2-3a43.824 43.824 0 0 0-6-2c-.838-.342-1.172-1.008-1-2 .073-1.527-.594-2.527-2-3 .384-2.165-.283-3.832-2-5-3.411.13-6.744.63-10 1.5a62.792 62.792 0 0 0-1 15.5c-.801 1.542-1.134 3.208-1 5a49.928 49.928 0 0 1-3 10l-2 2a437.055 437.055 0 0 1-2-20c.904.709 1.237 1.709 1 3 1.679.215 2.679-.452 3-2v-15c1.645-.979 2.979-2.312 4-4 3.116-.42 5.783-1.42 8-3 1.379-2.097 3.045-2.43 5-1l2 3c-.183 2.436.484 4.603 2 6.5 2.341.168 3.674-.999 4-3.5h3c.296 1.903.963 3.57 2 5h8c-.073 1.527.594 2.527 2 3 .996.086 1.829-.248 2.5-1 .5-6.325.666-12.658.5-19z"/><path style="opacity:1" fill="#ba7570" d="m261.5 152.5 2 1v4c-1.037-1.43-1.704-3.097-2-5z"/><path style="opacity:1" fill="#ae5e57" d="M252.5 149.5h1c.179 4.599 1.846 5.599 5 3-.326 2.501-1.659 3.668-4 3.5-1.516-1.897-2.183-4.064-2-6.5z"/><path style="opacity:1" fill="#e3c8c6" d="M253.5 149.5c1.235.221 2.235.888 3 2 3.138-1.636 5.471-.97 7 2l-2-1h-3c-3.154 2.599-4.821 1.599-5-3z"/><path style="opacity:1" fill="#dcbbb9" d="M250.5 146.5c2 0 3 1 3 3h-1l-2-3z"/><path style="opacity:1" fill="#ddbdbb" d="M263.5 154.5c.722 1.051 1.722 1.718 3 2v1h-3v-3z"/><path style="opacity:1" fill="#c78d89" d="M271.5 157.5h-5v-1c1.955-1.43 3.621-1.097 5 1z"/><path style="opacity:1" fill="#b0706b" d="M304.5 155.5c1.599-.268 2.932.066 4 1a21.435 21.435 0 0 0-7 1c.473-1.406 1.473-2.073 3-2z"/><path style="opacity:1" fill="#6d352f" d="M149.5 156.5c2.065.453 3.732 1.453 5 3a34.163 34.163 0 0 0-10-1v-1a20.69 20.69 0 0 1 5-1z"/><path style="opacity:1" fill="#574757" d="M157.5 157.5c2.688-.334 5.021.332 7 2-.333 1-1 1.667-2 2-1.052-1.756-2.719-2.423-5-2v-2z"/><path style="opacity:1" fill="#a16863" d="M308.5 156.5c1.527-.073 2.527.594 3 2-1.527.073-2.527-.594-3-2z"/><path style="opacity:1" fill="#401613" d="M134.5 157.5h10v1c-2.249.58-3.915 1.913-5 4a60.931 60.931 0 0 1-11-.5c2.247-1.277 4.247-2.777 6-4.5z"/><path style="opacity:1" fill="#55373f" d="M193.5 157.5c.838.342 1.172 1.008 1 2-4.517-1.064-8.85-.397-13 2v-1c3.576-2.228 7.576-3.228 12-3z"/><path style="opacity:1" fill="#c0807b" d="M295.5 155.5a31.686 31.686 0 0 0-2 6h-1v-4c.722-1.051 1.722-1.718 3-2z"/><path style="opacity:1" fill="#767986" d="M320.5 158.5v-1a312.4 312.4 0 0 1 19 4 80.644 80.644 0 0 1-19-3z"/><path style="opacity:1" fill="#52333c" d="M361.5 157.5v1c-1.542.801-3.208 1.134-5 1 1.135-1.713 2.802-2.38 5-2z"/><path style="opacity:1" fill="#6d231d" d="M144.5 158.5a34.163 34.163 0 0 1 10 1h3c2.281-.423 3.948.244 5 2l-2 1a284.17 284.17 0 0 1-12-3c-2.442-.214-4.108.786-5 3h-4c1.085-2.087 2.751-3.42 5-4z"/><path style="opacity:1" fill="#8a342c" d="m160.5 162.5-1 2h-1a24.93 24.93 0 0 1-8-1c-2.107-.968-4.441-1.302-7-1 .892-2.214 2.558-3.214 5-3a284.17 284.17 0 0 0 12 3z"/><path style="opacity:1" fill="#be7e7a" d="M271.5 157.5h1c.61.891.943 1.891 1 3-1.406-.473-2.073-1.473-2-3z"/><path style="opacity:1" fill="#e8e7e7" d="M30.5 147.5a65.204 65.204 0 0 1 12 11.5c3.056 1.856 6.056 3.689 9 5.5h2l3 4c-4.042-.523-7.709-2.023-11-4.5-5.94-4.767-10.94-10.267-15-16.5z"/><path style="opacity:1" fill="#6b2b24" d="M194.5 159.5h1v2a8.43 8.43 0 0 0-4 .5c.752.671 1.086 1.504 1 2.5h-1c-1.414-3.25-3.081-3.584-5-1l-2 1c-1.205-1.186-2.539-1.186-4 0a5.727 5.727 0 0 1 1-3c4.15-2.397 8.483-3.064 13-2z"/><path style="opacity:1" fill="#572628" d="m353.5 159.5-2 3c-3.542.313-6.875-.021-10-1 3.816-.982 7.816-1.649 12-2z"/><path style="opacity:1" fill="#89716f" d="M365.5 156.5v2c-1.35.983-2.35 2.316-3 4-.929-1.189-1.262-2.522-1-4v-1c1.459.067 2.792-.266 4-1z"/><path style="opacity:1" fill="#612521" d="M169.5 160.5c2.235-.295 4.235.039 6 1v2h-4c-1.051-.722-1.718-1.722-2-3z"/><path style="opacity:1" fill="#ada7a5" d="M179.5 164.5c-.667 1.333-1.333 1.333-2 0 .667-4 1.333-4 2 0z"/><path style="opacity:1" fill="#d3a8a5" d="M222.5 159.5c-.011 1.517-.677 2.684-2 3.5l-6 1.5c.453-.958 1.119-1.792 2-2.5 2.311-.236 4.311-1.069 6-2.5z"/><path style="opacity:1" fill="#c48986" d="M250.5 159.5c1.406.473 2.073 1.473 2 3-1.406-.473-2.073-1.473-2-3z"/><path style="opacity:1" fill="#cec6c5" d="M308.5 156.5c.473 1.406 1.473 2.073 3 2 0 .667.333 1 1 1 4.147.825 8.481 1.325 13 1.5 1.566.608 2.9 1.442 4 2.5a79.88 79.88 0 0 1-11-2c-4.949.237-9.616-.763-14-3a17.11 17.11 0 0 0-5 1c0-1.333.667-2 2-2a21.435 21.435 0 0 1 7-1z"/><path style="opacity:1" fill="#86706e" d="M353.5 159.5h3v4a31.147 31.147 0 0 1-2-2 5.576 5.576 0 0 1-3 1l2-3z"/><path style="opacity:1" fill="#a47672" d="M370.5 159.5c.073 1.527-.594 2.527-2 3v-1c.333-1 1-1.667 2-2z"/><path style="opacity:1" fill="#e0dbda" d="m379.5 156.5 2 1v1a8.43 8.43 0 0 0-4 .5 145.774 145.774 0 0 0-10 7.5 5.727 5.727 0 0 1 1-3v-1c1.406-.473 2.073-1.473 2-3a27.718 27.718 0 0 1 9-3z"/><path style="opacity:1" fill="#a69999" d="M164.5 159.5c1.792-.134 3.458.199 5 1 .282 1.278.949 2.278 2 3l1 4-2-1c.131-.876-.202-1.543-1-2a54.031 54.031 0 0 0-5.5-2 15.414 15.414 0 0 1-4.5 2l1-2 2-1c1-.333 1.667-1 2-2z"/><path style="opacity:1" fill="#8f7e7e" d="M181.5 160.5v1a5.727 5.727 0 0 0-1 3h-1c-.667-4-1.333-4-2 0-.904-.709-1.237-1.709-1-3 1.419-.951 3.085-1.284 5-1z"/><path style="opacity:1" fill="#d4aba8" d="M207.5 163.5v1a11.123 11.123 0 0 0-2.5-1 20.987 20.987 0 0 0-4.5 3c.585-2.422 2.085-4.089 4.5-5 .995.566 1.828 1.233 2.5 2z"/><path style="opacity:1" fill="#e0c3c1" d="M239.5 159.5c.512 5.888-.155 11.555-2 17h-1c-.134-1.792.199-3.458 1-5l2-12z"/><path style="opacity:1" fill="#aea8a7" d="M320.5 158.5a80.644 80.644 0 0 0 19 3l1 2h-11c-1.1-1.058-2.434-1.892-4-2.5-4.519-.175-8.853-.675-13-1.5 2.779.221 5.446-.112 8-1z"/><path style="opacity:1" fill="#855a56" d="M339.5 161.5h2c3.125.979 6.458 1.313 10 1-3.366 2.285-7.032 2.619-11 1l-1-2z"/><path style="opacity:1" fill="#b69c9a" d="M139.5 162.5h4c2.559-.302 4.893.032 7 1h-4a24.93 24.93 0 0 0-8 1h-2l3-2z"/><path style="opacity:1" fill="#c4b3b1" d="M191.5 164.5c-1.983-.343-3.317.324-4 2a20.238 20.238 0 0 1-4 4l1-4c1.406-.473 2.073-1.473 2-3 1.919-2.584 3.586-2.25 5 1z"/><path style="opacity:1" fill="#b5716b" d="M230.5 122.5c.341 11.205 1.341 22.205 3 33v14c-1.25-.077-2.083-.744-2.5-2-.5-14.996-.667-29.996-.5-45z"/><path style="opacity:1" fill="#d1aca9" d="M289.5 138.5c1.679-.215 2.679.452 3 2-1.321 3.098-1.988 6.598-2 10.5l.5 10.5c.383-.556.883-.889 1.5-1v7c-1.058 1.1-1.892 2.434-2.5 4a544.417 544.417 0 0 1-.5-33z"/><path style="opacity:1" fill="#7b322b" d="M361.5 158.5c-.262 1.478.071 2.811 1 4 .65-1.684 1.65-3.017 3-4a5.727 5.727 0 0 1-1 3c.086.996-.248 1.829-1 2.5a31.894 31.894 0 0 0-6 1.5h-1v-6c1.792.134 3.458-.199 5-1z"/><path style="opacity:1" fill="#67595a" d="M133.5 157.5h1c-1.753 1.723-3.753 3.223-6 4.5 3.652.499 7.318.665 11 .5l-3 2-4 1h-5a8.43 8.43 0 0 1-4-.5c.556-.383.889-.883 1-1.5 2.686-2.357 5.686-4.357 9-6z"/><path style="opacity:1" fill="#e1dddd" d="M146.5 163.5a114.877 114.877 0 0 1-13 5 22.755 22.755 0 0 1 5-4 24.93 24.93 0 0 1 8-1z"/><path style="opacity:1" fill="#cea6a4" d="M150.5 163.5a24.93 24.93 0 0 0 8 1v1a24.935 24.935 0 0 1-7-.5c-.556-.383-.889-.883-1-1.5z"/><path style="opacity:1" fill="#c28580" d="M207.5 164.5v-1a21.435 21.435 0 0 0 7 1c-2.109 2.476-4.443 2.476-7 0z"/><path style="opacity:1" fill="#983229" d="M299.5 152.5h2a10.165 10.165 0 0 1 3 3c-1.527-.073-2.527.594-3 2-1.333 0-2 .667-2 2-1.431.381-2.264 1.381-2.5 3a24.935 24.935 0 0 0-.5 7c.237 1.291-.096 2.291-1 3-1.914-3.184-2.58-6.851-2-11a31.686 31.686 0 0 1 2-6c1.73-.526 3.064-1.526 4-3z"/><path style="opacity:1" fill="#c1bebd" d="M356.5 163.5v2c-9.065.636-17.731-.03-26-2h10c3.968 1.619 7.634 1.285 11-1a5.576 5.576 0 0 0 3-1 31.147 31.147 0 0 0 2 2z"/><path style="opacity:1" fill="#696666" d="M124.5 163.5c-.111.617-.444 1.117-1 1.5a8.43 8.43 0 0 0 4 .5c-11.889 6.689-24.889 9.189-39 7.5l9-1c.556-.383.89-.883 1-1.5 4.569.614 8.569-.386 12-3a73.329 73.329 0 0 1 14-4z"/><path style="opacity:1" fill="#afafae" d="M136.5 164.5h2a22.755 22.755 0 0 0-5 4h-4a10.165 10.165 0 0 1 3-3l4-1z"/><path style="opacity:1" fill="#d7d6d5" d="M170.5 166.5a73.314 73.314 0 0 1-12-1v-1h1a15.414 15.414 0 0 0 4.5-2 54.031 54.031 0 0 1 5.5 2c.798.457 1.131 1.124 1 2z"/><path style="opacity:1" fill="#91544f" d="M175.5 161.5h1c-.237 1.291.096 2.291 1 3 .667 1.333 1.333 1.333 2 0h1c.085 1.495-.581 2.495-2 3-1.788-.783-2.788-2.116-3-4v-2z"/><path style="opacity:1" fill="#9c6560" d="M186.5 163.5c.073 1.527-.594 2.527-2 3v-2l2-1z"/><path style="opacity:1" fill="#e3dcdb" d="M191.5 164.5h1l1 2 1 2c-2.091-1.365-4.424-2.032-7-2 .683-1.676 2.017-2.343 4-2z"/><path style="opacity:1" fill="#c7908c" d="M253.5 164.5a43.824 43.824 0 0 1 6 2c-2.582.475-4.582-.192-6-2z"/><path style="opacity:1" fill="#bc7974" d="M299.5 159.5c-.734 1.208-1.067 2.541-1 4l-2 6c-.163-2.357.003-4.69.5-7 .236-1.619 1.069-2.619 2.5-3z"/><path style="opacity:1" fill="#c78f8b" d="M275.5 167.5v1c-3.658.82-5.991-.513-7-4a71.254 71.254 0 0 1-2 4v-6a4.934 4.934 0 0 1 3 .5c.426 3.592 2.426 5.092 6 4.5z"/><path style="opacity:1" fill="#dcdcdb" d="M318.5 161.5a79.88 79.88 0 0 0 11 2h1c8.269 1.97 16.935 2.636 26 2v1c-11.893 1.966-23.56 1.133-35-2.5-1.442-.377-2.442-1.21-3-2.5z"/><path style="opacity:1" fill="#91352d" d="M171.5 163.5h4c.212 1.884 1.212 3.217 3 4 1.419-.505 2.085-1.505 2-3 1.461-1.186 2.795-1.186 4 0v2l-1 4c-1.406.473-2.073 1.473-2 3-1.542.801-3.208 1.134-5 1-1.406-.473-2.073-1.473-2-3-.16-1.653-.826-2.986-2-4l-1-4z"/><path style="opacity:1" fill="#c0837e" d="M193.5 166.5c2.333 1.333 4.667 1.333 7 0-1.49 1.78-3.49 2.446-6 2l-1-2z"/><path style="opacity:1" fill="#dbb8b5" d="M280.5 163.5c-.667 2.667-2.333 4.333-5 5v-1l5-4z"/><path style="opacity:1" fill="#b0645f" d="M288.5 137.5c.667 0 1 .333 1 1-.167 11.005 0 22.005.5 33 .608-1.566 1.442-2.9 2.5-4a19.22 19.22 0 0 1-1 6h-3v-36z"/><path style="opacity:1" fill="#cea09d" d="M259.5 166.5c1.406.473 2.073 1.473 2 3-1.406-.473-2.073-1.473-2-3z"/><path style="opacity:1" fill="#cca09d" d="M356.5 165.5h1a19.22 19.22 0 0 1 1 6c-1.431-1.28-2.098-2.947-2-5v-1z"/><path style="opacity:1" fill="#b6716c" d="M368.5 163.5a5.727 5.727 0 0 0-1 3v2l-2 1c.121-2.605 1.121-4.605 3-6z"/><path style="opacity:1" fill="#c4c3c2" d="m53.5 164.5 9 4a22.755 22.755 0 0 0 5 4 56.435 56.435 0 0 1-10-2.5c-.556-.383-.89-.883-1-1.5l-3-4z"/><path style="opacity:1" fill="#858388" d="M48.5 159.5a198.077 198.077 0 0 0 32 11c-3.213-.31-6.213.023-9 1a71.11 71.11 0 0 0-9-3l-9-4h-2a18.95 18.95 0 0 1-3-5z"/><path style="opacity:1" fill="#82808d" d="M110.5 167.5c-3.431 2.614-7.431 3.614-12 3 3.798-1.368 7.798-2.368 12-3z"/><path style="opacity:1" fill="#943128" d="M364.5 161.5h4v2c-1.879 1.395-2.879 3.395-3 6-1.643 2.995-3.977 3.661-7 2a19.22 19.22 0 0 0-1-6 31.894 31.894 0 0 1 6-1.5c.752-.671 1.086-1.504 1-2.5z"/><path style="opacity:1" fill="#cc9d99" d="M172.5 167.5c1.174 1.014 1.84 2.347 2 4-1.676-.683-2.343-2.017-2-4z"/><path style="opacity:1" fill="#757374" d="M127.5 165.5h5a10.165 10.165 0 0 0-3 3 145.692 145.692 0 0 1-35.5 7 267.248 267.248 0 0 1-22.5-4c2.787-.977 5.787-1.31 9-1h18c-.11.617-.444 1.117-1 1.5l-9 1c14.111 1.689 27.111-.811 39-7.5z"/><path style="opacity:1" fill="#d4aba8" d="M183.5 170.5c.073 1.527-.594 2.527-2 3-.073-1.527.594-2.527 2-3z"/><path style="opacity:1" fill="#a44940" d="M292.5 161.5h1c-.58 4.149.086 7.816 2 11a19.22 19.22 0 0 1-1 6v2l-2 1a39.113 39.113 0 0 0 1-5c-.14-1.53-.807-2.53-2-3a19.22 19.22 0 0 0 1-6v-6z"/><path style="opacity:1" fill="#d2a6a3" d="M367.5 168.5c-1.892 5.13-4.892 6.13-9 3 3.023 1.661 5.357.995 7-2l2-1z"/><path style="opacity:1" fill="#99342a" d="M229.5 135.5v33c.515 6.7 1.182 13.367 2 20v2h-3c-.667 0-1-.333-1-1a6355.146 6355.146 0 0 1-1-46v-4l3-4z"/><path style="opacity:1" fill="#d9b5b3" d="M181.5 173.5c-.291 1.149-1.124 1.816-2.5 2-1.07-.028-1.903-.361-2.5-1 .597.639 1.43.972 2.5 1 1.376-.184 2.209-.851 2.5-2z"/><path style="opacity:1" fill="#9d9b9a" d="M62.5 168.5a71.11 71.11 0 0 1 9 3 267.248 267.248 0 0 0 22.5 4 145.692 145.692 0 0 0 35.5-7c-.473 1.406-1.473 2.073-3 2-19.441 7.068-39.107 7.735-59 2a22.755 22.755 0 0 1-5-4z"/><path style="opacity:1" fill="#c5c4c3" d="M126.5 170.5a258.782 258.782 0 0 0-14 6.5c-13.486 2.456-26.819 1.956-40-1.5-2.433.227-4.1-.773-5-3 19.893 5.735 39.559 5.068 59-2z"/><path style="opacity:1" fill="#e3c8c6" d="M298.5 163.5a40.914 40.914 0 0 1-.5 9c-.739 2.389-1.905 4.389-3.5 6a19.22 19.22 0 0 0 1-6c.904-.709 1.237-1.709 1-3l2-6z"/><path style="opacity:1" fill="#ebebea" d="M129.5 168.5h4c-17.689 11.892-37.023 15.059-58 9.5-1.442-.377-2.442-1.21-3-2.5 13.181 3.456 26.514 3.956 40 1.5a258.782 258.782 0 0 1 14-6.5c1.527.073 2.527-.594 3-2z"/><path style="opacity:1" fill="#ebd9d8" d="M226.5 187.5a378.962 378.962 0 0 1-3-39 8.43 8.43 0 0 1 .5-4l1 2a1492.005 1492.005 0 0 1 1.5 41z"/><path style="opacity:1" fill="#e5cbc9" d="M236.5 176.5h1a18.453 18.453 0 0 1-.5 6c-1.719 2.525-2.886 5.192-3.5 8v-4a49.928 49.928 0 0 0 3-10z"/><path style="opacity:1" fill="#c28782" d="m292.5 184.5-1 4v1h-1c-.38-2.198.287-3.865 2-5z"/><path style="opacity:1" fill="#e6cdcc" d="M294.5 180.5c-.56 2.301-1.06 4.634-1.5 7-.383.556-.883.889-1.5 1l1-4v-3l2-1z"/><path style="opacity:1" fill="#d5aaa6" d="M233.5 186.5v4h-2v-2l2-2z"/><path style="opacity:1" fill="#ddbdba" d="M228.5 190.5h3c-1.24 2.485-2.24 2.485-3 0z"/><path style="opacity:1" fill="#d3a8a4" d="M290.5 189.5h1c-.059 2.222-1.225 3.222-3.5 3-1.376-.184-2.209-.851-2.5-2 1.915.284 3.581-.049 5-1z"/></svg>