<?xml version="1.0" encoding="UTF-8"?>
<!DOCTYPE svg PUBLIC "-//W3C//DTD SVG 1.1//EN" "http://www.w3.org/Graphics/SVG/1.1/DTD/svg11.dtd">
<svg xmlns="http://www.w3.org/2000/svg" version="1.1" width="200px" height="200px" style="shape-rendering:geometricPrecision; text-rendering:geometricPrecision; image-rendering:optimizeQuality; fill-rule:evenodd; clip-rule:evenodd" xmlns:xlink="http://www.w3.org/1999/xlink">
<g><path style="opacity:1" fill="#fdfcfc" d="M -0.5,-0.5 C 31.1667,-0.5 62.8333,-0.5 94.5,-0.5C 91.9638,2.13762 92.2972,4.47095 95.5,6.5C 96.8266,9.47067 98.1599,12.4707 99.5,15.5C 102.074,24.8125 102.074,34.1458 99.5,43.5C 96.9014,48.4278 93.568,52.7611 89.5,56.5C 84.6835,58.408 79.6835,58.908 74.5,58C 72.7215,55.8646 72.0548,53.3646 72.5,50.5C 73.3745,48.31 75.0411,47.31 77.5,47.5C 80.1766,51.165 83.8432,52.665 88.5,52C 90.6458,49.6431 90.9791,47.1431 89.5,44.5C 87.0419,38.6949 83.3753,33.6949 78.5,29.5C 73.5,27 68.5,24.5 63.5,22C 49.534,16.8131 44.2007,21.3131 47.5,35.5C 48.9954,41.4817 50.4954,47.4817 52,53.5C 52.6588,56.8881 52.4922,60.2214 51.5,63.5C 45.4949,66.5123 43.6616,71.1789 46,77.5C 49.0288,79.029 51.1955,81.3623 52.5,84.5C 47.8286,84.1163 43.1619,84.6163 38.5,86C 35.6026,87.7155 34.2693,90.2155 34.5,93.5C 21.4529,92.8612 9.78628,96.5278 -0.5,104.5C -0.5,69.5 -0.5,34.5 -0.5,-0.5 Z"/></g>
<g><path style="opacity:1" fill="#fdfcfc" d="M 96.5,0.5 C 96.5,0.166667 96.5,-0.166667 96.5,-0.5C 130.833,-0.5 165.167,-0.5 199.5,-0.5C 199.5,29.5 199.5,59.5 199.5,89.5C 197.983,89.4894 196.816,88.8228 196,87.5C 193.999,90.3307 191.833,92.9974 189.5,95.5C 185.874,97.37 182.208,99.0367 178.5,100.5C 177.5,100.5 176.5,100.5 175.5,100.5C 168.517,99.2217 162.517,100.888 157.5,105.5C 155.868,106.446 154.201,107.446 152.5,108.5C 152.167,108 151.833,107.5 151.5,107C 153.07,104.941 154.403,102.774 155.5,100.5C 156.894,98.0486 157.728,95.3819 158,92.5C 160.333,91.5 162,89.8333 163,87.5C 163.272,84.7462 163.772,82.0795 164.5,79.5C 170.064,76.9359 171.898,72.6026 170,66.5C 168.955,65.6266 168.122,64.6266 167.5,63.5C 167.279,62.2652 166.612,61.2652 165.5,60.5C 168.959,55.5747 169.459,50.2414 167,44.5C 166.329,43.7476 165.496,43.4142 164.5,43.5C 162.897,40.8919 160.897,38.5586 158.5,36.5C 154,33.5059 149.833,33.8392 146,37.5C 143.534,44.2752 139.7,50.1085 134.5,55C 131.433,56.1642 129.767,55.1642 129.5,52C 135.857,36.0578 130.523,29.3911 113.5,32C 112.124,35.8557 110.624,39.689 109,43.5C 107.644,44.3802 106.144,44.7135 104.5,44.5C 104.963,41.5176 105.296,38.5176 105.5,35.5C 107.279,27.0385 106.446,18.7051 103,10.5C 102.623,9.05773 101.79,8.05773 100.5,7.5C 99.4161,4.99589 98.0828,2.66256 96.5,0.5 Z"/></g>
<g><path style="opacity:1" fill="#953a44" d="M 94.5,-0.5 C 95.1667,-0.5 95.8333,-0.5 96.5,-0.5C 96.5,-0.166667 96.5,0.166667 96.5,0.5C 95.5386,2.26465 95.2053,4.26465 95.5,6.5C 92.2972,4.47095 91.9638,2.13762 94.5,-0.5 Z"/></g>
<g><path style="opacity:1" fill="#bc232b" d="M 96.5,0.5 C 98.0828,2.66256 99.4161,4.99589 100.5,7.5C 101.572,10.8944 102.572,14.3944 103.5,18C 103.333,18.8333 103.167,19.6667 103,20.5C 102.263,18.404 101.097,16.7373 99.5,15.5C 98.1599,12.4707 96.8266,9.47067 95.5,6.5C 95.2053,4.26465 95.5386,2.26465 96.5,0.5 Z"/></g>
<g><path style="opacity:1" fill="#ad3335" d="M 100.5,7.5 C 101.79,8.05773 102.623,9.05773 103,10.5C 106.446,18.7051 107.279,27.0385 105.5,35.5C 105.666,30.8215 105.499,26.1548 105,21.5C 104.667,21.8333 104.333,22.1667 104,22.5C 103.479,27.8517 102.813,33.1851 102,38.5C 101.626,40.4913 100.793,42.158 99.5,43.5C 102.074,34.1458 102.074,24.8125 99.5,15.5C 101.097,16.7373 102.263,18.404 103,20.5C 103.167,19.6667 103.333,18.8333 103.5,18C 102.572,14.3944 101.572,10.8944 100.5,7.5 Z"/></g>
<g><path style="opacity:1" fill="#b92430" d="M 105.5,35.5 C 105.296,38.5176 104.963,41.5176 104.5,44.5C 106.144,44.7135 107.644,44.3802 109,43.5C 110.624,39.689 112.124,35.8557 113.5,32C 130.523,29.3911 135.857,36.0578 129.5,52C 129.767,55.1642 131.433,56.1642 134.5,55C 139.7,50.1085 143.534,44.2752 146,37.5C 149.833,33.8392 154,33.5059 158.5,36.5C 160.897,38.5586 162.897,40.8919 164.5,43.5C 170.704,56.8207 166.371,62.3207 151.5,60C 149.937,62.4763 150.604,63.9763 153.5,64.5C 158.048,62.3476 162.715,62.0143 167.5,63.5C 168.122,64.6266 168.955,65.6266 170,66.5C 171.898,72.6026 170.064,76.9359 164.5,79.5C 162.917,81.5078 161.917,83.8411 161.5,86.5C 161.958,83.6062 161.291,81.1062 159.5,79C 160.167,78.6667 160.833,78.3333 161.5,78C 158.947,76.3437 156.281,76.177 153.5,77.5C 151.801,77.6602 150.134,77.4935 148.5,77C 147.748,76.3292 147.414,75.4959 147.5,74.5C 152.288,71.8148 156.788,72.4815 161,76.5C 165.251,74.8794 166.418,72.0461 164.5,68C 161.445,67.3658 158.445,67.5325 155.5,68.5C 148.937,68.4114 146.437,65.078 148,58.5C 148.903,57.2986 150.069,56.4652 151.5,56C 155.025,55.8213 158.359,55.3213 161.5,54.5C 161.946,47.7619 158.946,42.7619 152.5,39.5C 151.558,39.6082 150.725,39.9415 150,40.5C 147.399,47.76 143.232,53.9267 137.5,59C 130.658,62.0762 126.324,60.0762 124.5,53C 125.6,48.1263 126.433,43.293 127,38.5C 123.662,35.6665 119.995,34.9999 116,36.5C 115.92,46.2504 111.086,50.7504 101.5,50C 95.7537,60.8732 86.7537,65.3732 74.5,63.5C 73.7659,62.2921 73.4326,60.9587 73.5,59.5C 78.1785,59.6658 82.8452,59.4992 87.5,59C 88.756,58.5831 89.4226,57.7498 89.5,56.5C 93.568,52.7611 96.9014,48.4278 99.5,43.5C 100.793,42.158 101.626,40.4913 102,38.5C 102.813,33.1851 103.479,27.8517 104,22.5C 104.333,22.1667 104.667,21.8333 105,21.5C 105.499,26.1548 105.666,30.8215 105.5,35.5 Z"/></g>
<g><path style="opacity:1" fill="#9c3437" d="M 47.5,35.5 C 50.9454,42.3783 52.9454,49.8783 53.5,58C 53.4535,60.2953 52.7868,62.1286 51.5,63.5C 52.4922,60.2214 52.6588,56.8881 52,53.5C 50.4954,47.4817 48.9954,41.4817 47.5,35.5 Z"/></g>
<g><path style="opacity:1" fill="#c03c45" d="M 55.5,47.5 C 57.4234,52.5612 57.9234,57.8945 57,63.5C 56.6174,64.056 56.1174,64.3893 55.5,64.5C 55.5,58.8333 55.5,53.1667 55.5,47.5 Z"/></g>
<g><path style="opacity:1" fill="#fae1df" d="M 164.5,43.5 C 165.496,43.4142 166.329,43.7476 167,44.5C 169.459,50.2414 168.959,55.5747 165.5,60.5C 166.612,61.2652 167.279,62.2652 167.5,63.5C 162.715,62.0143 158.048,62.3476 153.5,64.5C 150.604,63.9763 149.937,62.4763 151.5,60C 166.371,62.3207 170.704,56.8207 164.5,43.5 Z"/></g>
<g><path style="opacity:1" fill="#bc242f" d="M 123.5,67.5 C 124.455,69.7457 125.122,72.079 125.5,74.5C 123.833,74.5 122.167,74.5 120.5,74.5C 120.768,72.901 120.434,71.5676 119.5,70.5C 117.641,67.9814 115.641,67.9814 113.5,70.5C 112.069,70.8807 111.236,71.8807 111,73.5C 110.444,71.1152 110.61,68.7819 111.5,66.5C 114.297,62.1104 112.964,60.6104 107.5,62C 100.888,66.5644 99.7214,72.3978 104,79.5C 105.704,81.3734 107.537,83.0401 109.5,84.5C 110.398,85.1577 111.398,85.8243 112.5,86.5C 108.217,87.4922 103.884,87.8256 99.5,87.5C 95.5266,85.5133 91.5266,83.5133 87.5,81.5C 87.3893,80.8826 87.056,80.3826 86.5,80C 82.5,79.6667 78.5,79.3333 74.5,79C 74.8333,78.6667 75.1667,78.3333 75.5,78C 81.6293,77.1774 87.6293,77.6774 93.5,79.5C 95.9512,80.4108 98.2846,81.2441 100.5,82C 94.2199,72.6126 95.5533,64.6126 104.5,58C 113.628,55.8968 119.961,59.0635 123.5,67.5 Z"/></g>
<g><path style="opacity:1" fill="#b25159" d="M 161.5,54.5 C 158.359,55.3213 155.025,55.8213 151.5,56C 150.069,56.4652 148.903,57.2986 148,58.5C 146.437,65.078 148.937,68.4114 155.5,68.5C 148.026,69.8569 144.86,66.5235 146,58.5C 147.214,56.9512 148.714,55.7845 150.5,55C 154.152,54.5014 157.818,54.3347 161.5,54.5 Z"/></g>
<g><path style="opacity:1" fill="#f9f7f6" d="M 68.5,29.5 C 71.5459,31.858 74.8792,33.858 78.5,35.5C 81.2017,38.8814 83.535,42.5481 85.5,46.5C 85.3764,47.1067 85.0431,47.44 84.5,47.5C 81.8892,44.9427 78.7225,43.2761 75,42.5C 72.4972,42.99 70.4972,44.3234 69,46.5C 67.5951,50.0721 67.2617,53.7387 68,57.5C 69.4055,60.4086 71.5722,62.4086 74.5,63.5C 86.7537,65.3732 95.7537,60.8732 101.5,50C 111.086,50.7504 115.92,46.2504 116,36.5C 119.995,34.9999 123.662,35.6665 127,38.5C 126.433,43.293 125.6,48.1263 124.5,53C 126.324,60.0762 130.658,62.0762 137.5,59C 143.232,53.9267 147.399,47.76 150,40.5C 150.725,39.9415 151.558,39.6082 152.5,39.5C 158.946,42.7619 161.946,47.7619 161.5,54.5C 157.818,54.3347 154.152,54.5014 150.5,55C 148.714,55.7845 147.214,56.9512 146,58.5C 144.86,66.5235 148.026,69.8569 155.5,68.5C 158.445,67.5325 161.445,67.3658 164.5,68C 166.418,72.0461 165.251,74.8794 161,76.5C 156.788,72.4815 152.288,71.8148 147.5,74.5C 145.22,75.6401 142.886,76.8068 140.5,78C 138.5,78.6667 136.5,78.6667 134.5,78C 130.305,74.9702 126.639,71.4702 123.5,67.5C 119.961,59.0635 113.628,55.8968 104.5,58C 95.5533,64.6126 94.2199,72.6126 100.5,82C 98.2846,81.2441 95.9512,80.4108 93.5,79.5C 84.8842,74.1174 76.2176,74.284 67.5,80C 66.7476,80.6708 66.4142,81.5041 66.5,82.5C 64.7376,83.2623 63.7376,84.5956 63.5,86.5C 62.4415,87.6002 61.6082,88.9336 61,90.5C 60.1864,95.0204 60.353,99.3537 61.5,103.5C 61.5,103.833 61.5,104.167 61.5,104.5C 61.7827,108.97 63.2827,112.97 66,116.5C 67.6379,118.734 69.8045,120.067 72.5,120.5C 77.6509,121.327 82.9842,121.827 88.5,122C 90.8543,122.847 93.1877,123.68 95.5,124.5C 99.5,127.167 103.5,127.167 107.5,124.5C 108.492,124.672 109.158,124.338 109.5,123.5C 114.96,120.079 120.96,118.746 127.5,119.5C 130.568,120.022 133.568,120.855 136.5,122C 138.113,124.228 138.78,126.728 138.5,129.5C 131.223,128.279 128.056,131.279 129,138.5C 130.371,140.041 131.871,141.375 133.5,142.5C 136.221,143.696 137.387,145.696 137,148.5C 134.373,152.153 131.04,153.153 127,151.5C 127.27,147.131 127.104,142.798 126.5,138.5C 117.236,134.626 112.236,137.626 111.5,147.5C 111.667,149.5 111.833,151.5 112,153.5C 115.224,158.397 116.558,163.73 116,169.5C 113.263,170.61 110.429,170.777 107.5,170C 106.919,169.107 106.585,168.107 106.5,167C 108.602,162.706 109.435,158.206 109,153.5C 105.897,149.678 102.064,148.678 97.5,150.5C 95.9848,148.453 95.1515,146.119 95,143.5C 90.4012,136.938 84.5679,135.771 77.5,140C 73.3879,144.391 69.8879,149.224 67,154.5C 66,155.167 65,155.833 64,156.5C 64.0601,149.503 64.0601,142.503 64,135.5C 63.2525,133.249 61.7525,131.916 59.5,131.5C 57.3718,130.371 55.0385,130.204 52.5,131C 48.0194,135.635 44.0194,140.635 40.5,146C 37.854,146.497 35.1873,146.664 32.5,146.5C 31.8333,145.167 30.8333,144.167 29.5,143.5C 23.8459,139.533 21.5126,134.2 22.5,127.5C 23.646,126.855 24.646,126.022 25.5,125C 32.1758,123.666 38.8425,122.333 45.5,121C 52.9377,116.423 54.4377,110.257 50,102.5C 48.0616,99.8941 45.5616,98.0608 42.5,97C 37.992,93.0458 38.492,90.5458 44,89.5C 47.8153,90.3738 51.6487,90.5404 55.5,90C 58.2072,88.1363 59.0405,85.6363 58,82.5C 54.8116,79.6453 51.9783,76.4786 49.5,73C 51.6724,70.3212 53.6724,67.4878 55.5,64.5C 56.1174,64.3893 56.6174,64.056 57,63.5C 57.9234,57.8945 57.4234,52.5612 55.5,47.5C 53.2107,40.3422 51.8773,33.0088 51.5,25.5C 57.44,25.7352 63.1067,27.0685 68.5,29.5 Z"/></g>
<g><path style="opacity:1" fill="#ab353f" d="M 84.5,47.5 C 82.3523,47.3894 82.019,48.056 83.5,49.5C 85.0453,50.4519 86.712,50.7852 88.5,50.5C 88.8333,48.5 89.1667,46.5 89.5,44.5C 90.9791,47.1431 90.6458,49.6431 88.5,52C 83.8432,52.665 80.1766,51.165 77.5,47.5C 78.8734,47.6567 80.2068,47.49 81.5,47C 73.7691,42.2173 69.4357,44.384 68.5,53.5C 68.4371,55.4809 69.1038,57.1476 70.5,58.5C 71.1676,55.6944 71.8343,53.0277 72.5,50.5C 72.0548,53.3646 72.7215,55.8646 74.5,58C 79.6835,58.908 84.6835,58.408 89.5,56.5C 89.4226,57.7498 88.756,58.5831 87.5,59C 82.8452,59.4992 78.1785,59.6658 73.5,59.5C 73.4326,60.9587 73.7659,62.2921 74.5,63.5C 71.5722,62.4086 69.4055,60.4086 68,57.5C 67.2617,53.7387 67.5951,50.0721 69,46.5C 70.4972,44.3234 72.4972,42.99 75,42.5C 78.7225,43.2761 81.8892,44.9427 84.5,47.5 Z"/></g>
<g><path style="opacity:1" fill="#c2192e" d="M 77.5,47.5 C 75.0411,47.31 73.3745,48.31 72.5,50.5C 71.8343,53.0277 71.1676,55.6944 70.5,58.5C 69.1038,57.1476 68.4371,55.4809 68.5,53.5C 69.4357,44.384 73.7691,42.2173 81.5,47C 80.2068,47.49 78.8734,47.6567 77.5,47.5 Z"/></g>
<g><path style="opacity:1" fill="#ba2631" d="M 89.5,44.5 C 89.1667,46.5 88.8333,48.5 88.5,50.5C 86.712,50.7852 85.0453,50.4519 83.5,49.5C 82.019,48.056 82.3523,47.3894 84.5,47.5C 85.0431,47.44 85.3764,47.1067 85.5,46.5C 83.535,42.5481 81.2017,38.8814 78.5,35.5C 75.8987,32.2226 72.5654,30.2226 68.5,29.5C 63.1067,27.0685 57.44,25.7352 51.5,25.5C 51.8773,33.0088 53.2107,40.3422 55.5,47.5C 55.5,53.1667 55.5,58.8333 55.5,64.5C 53.6724,67.4878 51.6724,70.3212 49.5,73C 51.9783,76.4786 54.8116,79.6453 58,82.5C 59.0405,85.6363 58.2072,88.1363 55.5,90C 51.6487,90.5404 47.8153,90.3738 44,89.5C 38.492,90.5458 37.992,93.0458 42.5,97C 45.5616,98.0608 48.0616,99.8941 50,102.5C 54.4377,110.257 52.9377,116.423 45.5,121C 38.8425,122.333 32.1758,123.666 25.5,125C 24.646,126.022 23.646,126.855 22.5,127.5C 21.5126,134.2 23.8459,139.533 29.5,143.5C 28.3646,145.213 26.698,145.88 24.5,145.5C 18.4602,140.212 16.2936,133.546 18,125.5C 20.1692,121.99 23.3359,119.823 27.5,119C 34.1179,118.843 40.4513,117.51 46.5,115C 48.357,108.81 46.357,104.143 40.5,101C 28.8275,96.7151 17.8275,98.0484 7.5,105C 5.18512,107.675 2.51845,108.841 -0.5,108.5C -0.5,107.167 -0.5,105.833 -0.5,104.5C 9.78628,96.5278 21.4529,92.8612 34.5,93.5C 34.2693,90.2155 35.6026,87.7155 38.5,86C 43.1619,84.6163 47.8286,84.1163 52.5,84.5C 51.1955,81.3623 49.0288,79.029 46,77.5C 43.6616,71.1789 45.4949,66.5123 51.5,63.5C 52.7868,62.1286 53.4535,60.2953 53.5,58C 52.9454,49.8783 50.9454,42.3783 47.5,35.5C 44.2007,21.3131 49.534,16.8131 63.5,22C 68.5,24.5 73.5,27 78.5,29.5C 83.3753,33.6949 87.0419,38.6949 89.5,44.5 Z"/></g>
<g><path style="opacity:1" fill="#ae3d44" d="M 68.5,29.5 C 72.5654,30.2226 75.8987,32.2226 78.5,35.5C 74.8792,33.858 71.5459,31.858 68.5,29.5 Z"/></g>
<g><path style="opacity:1" fill="#ad3039" d="M 93.5,79.5 C 87.6293,77.6774 81.6293,77.1774 75.5,78C 75.1667,78.3333 74.8333,78.6667 74.5,79C 78.5,79.3333 82.5,79.6667 86.5,80C 87.056,80.3826 87.3893,80.8826 87.5,81.5C 81.5368,79.954 75.8701,80.6206 70.5,83.5C 69.7893,81.1582 68.456,80.8249 66.5,82.5C 66.4142,81.5041 66.7476,80.6708 67.5,80C 76.2176,74.284 84.8842,74.1174 93.5,79.5 Z"/></g>
<g><path style="opacity:1" fill="#b12d36" d="M 111.5,66.5 C 110.61,68.7819 110.444,71.1152 111,73.5C 111.236,71.8807 112.069,70.8807 113.5,70.5C 113.5,71.5 113.5,72.5 113.5,73.5C 115.199,73.6602 116.866,73.4935 118.5,73C 119.252,72.3292 119.586,71.4959 119.5,70.5C 120.434,71.5676 120.768,72.901 120.5,74.5C 122.167,74.5 123.833,74.5 125.5,74.5C 125.122,72.079 124.455,69.7457 123.5,67.5C 126.639,71.4702 130.305,74.9702 134.5,78C 136.5,78.6667 138.5,78.6667 140.5,78C 142.886,76.8068 145.22,75.6401 147.5,74.5C 147.414,75.4959 147.748,76.3292 148.5,77C 150.134,77.4935 151.801,77.6602 153.5,77.5C 156.258,78.9665 155.925,79.6332 152.5,79.5C 152.759,82.4797 151.426,84.313 148.5,85C 149.282,87.7405 149.782,90.5738 150,93.5C 151.011,92.6634 152.178,92.33 153.5,92.5C 154.477,98.7937 155.644,98.4604 157,91.5C 157.925,90.9535 158.758,90.2868 159.5,89.5C 157.604,88.5344 155.604,88.2011 153.5,88.5C 153.232,86.901 153.566,85.5676 154.5,84.5C 154.5,85.5 154.5,86.5 154.5,87.5C 156.514,87.6085 158.18,86.9418 159.5,85.5C 159.409,87.6977 160.075,88.0311 161.5,86.5C 161.917,83.8411 162.917,81.5078 164.5,79.5C 163.772,82.0795 163.272,84.7462 163,87.5C 162,89.8333 160.333,91.5 158,92.5C 157.728,95.3819 156.894,98.0486 155.5,100.5C 152.372,104.266 148.372,105.766 143.5,105C 139.697,102.633 138.697,99.4665 140.5,95.5C 141.932,92.9033 144.099,91.2367 147,90.5C 147.617,89.5509 147.451,88.7175 146.5,88C 140.269,83.5801 133.602,82.5801 126.5,85C 128.058,85.21 129.391,85.71 130.5,86.5C 126.63,88.314 124.963,86.9807 125.5,82.5C 129.182,82.6653 132.848,82.4986 136.5,82C 137,81.5 137.5,81 138,80.5C 139.506,82.1742 141.339,83.1742 143.5,83.5C 143.5,82.1667 143.5,80.8333 143.5,79.5C 146.797,79.6713 147.131,79.0046 144.5,77.5C 138.583,80.6957 133.249,80.029 128.5,75.5C 127.614,76.325 127.281,77.325 127.5,78.5C 126.185,77.5244 124.852,76.5244 123.5,75.5C 120.112,79.4775 116.112,80.3108 111.5,78C 107.612,73.9719 107.612,70.1385 111.5,66.5 Z"/></g>
<g><path style="opacity:1" fill="#f6e3d7" d="M 152.5,79.5 C 150.855,80.4787 149.521,81.812 148.5,83.5C 147.328,83.0814 146.328,82.4147 145.5,81.5C 147.638,79.2178 149.971,78.5511 152.5,79.5 Z"/></g>
<g><path style="opacity:1" fill="#fcebed" d="M 119.5,70.5 C 119.586,71.4959 119.252,72.3292 118.5,73C 116.866,73.4935 115.199,73.6602 113.5,73.5C 113.5,72.5 113.5,71.5 113.5,70.5C 115.641,67.9814 117.641,67.9814 119.5,70.5 Z"/></g>
<g><path style="opacity:1" fill="#f8f0ee" d="M 111.5,66.5 C 107.612,70.1385 107.612,73.9719 111.5,78C 116.112,80.3108 120.112,79.4775 123.5,75.5C 124.852,76.5244 126.185,77.5244 127.5,78.5C 126.5,79.1667 125.5,79.8333 124.5,80.5C 120.136,81.8874 118.302,84.8874 119,89.5C 123.066,90.4637 127.233,90.797 131.5,90.5C 133.498,95.0111 131.998,97.3445 127,97.5C 124.268,97.3852 121.768,96.5519 119.5,95C 118.654,92.8204 117.154,91.3204 115,90.5C 111.1,91.922 107.6,93.922 104.5,96.5C 102.013,96.2413 100.013,95.2413 98.5,93.5C 98.3893,92.8826 98.056,92.3826 97.5,92C 95.5273,91.5045 93.5273,91.3379 91.5,91.5C 90.8333,90.8333 90.1667,90.1667 89.5,89.5C 85.9611,85.835 81.6278,84.6683 76.5,86C 70.918,90.7388 70.0846,96.2388 74,102.5C 77.8149,106.364 82.3149,107.364 87.5,105.5C 89.9498,105.761 92.2831,106.428 94.5,107.5C 94.9491,111.083 96.2824,114.25 98.5,117C 102.666,117.68 104.999,115.847 105.5,111.5C 107.482,107.342 110.482,106.509 114.5,109C 120.833,109.333 127.167,109.667 133.5,110C 135.053,111.097 136.386,112.43 137.5,114C 139.387,114.78 141.054,114.613 142.5,113.5C 143.833,113.5 145.167,113.5 146.5,113.5C 146.5,116.167 146.5,118.833 146.5,121.5C 144.692,120.082 144.025,118.082 144.5,115.5C 142.692,115.491 141.025,115.991 139.5,117C 140.756,117.417 141.423,118.25 141.5,119.5C 139.072,117.957 136.406,116.957 133.5,116.5C 132.737,115.732 131.737,115.232 130.5,115C 125.833,114.333 121.167,114.333 116.5,115C 112.833,116.667 109.167,118.333 105.5,120C 102.076,120.747 98.7431,120.58 95.5,119.5C 93.7857,118.262 91.7857,117.595 89.5,117.5C 84.3491,116.673 79.0158,116.173 73.5,116C 71.714,115.215 70.214,114.049 69,112.5C 65.1218,104.31 64.6218,95.9771 67.5,87.5C 68.9744,86.5637 69.9744,85.2303 70.5,83.5C 75.8701,80.6206 81.5368,79.954 87.5,81.5C 91.5266,83.5133 95.5266,85.5133 99.5,87.5C 99.9175,88.2216 100.584,88.7216 101.5,89C 105.5,89.6667 109.5,89.6667 113.5,89C 114.38,87.6439 114.714,86.1439 114.5,84.5C 112.833,84.5 111.167,84.5 109.5,84.5C 107.537,83.0401 105.704,81.3734 104,79.5C 99.7214,72.3978 100.888,66.5644 107.5,62C 112.964,60.6104 114.297,62.1104 111.5,66.5 Z"/></g>
<g><path style="opacity:1" fill="#992f31" d="M 124.5,80.5 C 121.816,82.8707 120.482,85.8707 120.5,89.5C 122.833,89.5 125.167,89.5 127.5,89.5C 129.099,89.2322 130.432,89.5655 131.5,90.5C 127.233,90.797 123.066,90.4637 119,89.5C 118.302,84.8874 120.136,81.8874 124.5,80.5 Z"/></g>
<g><path style="opacity:1" fill="#c7192e" d="M 89.5,89.5 C 88.8166,91.1765 87.4832,91.8432 85.5,91.5C 84.391,91.4431 83.391,91.1098 82.5,90.5C 81.0536,89.3871 79.3869,89.2204 77.5,90C 76.6634,91.0113 76.33,92.1779 76.5,93.5C 75.5,93.5 74.5,93.5 73.5,93.5C 74.5905,87.9126 77.9239,85.7459 83.5,87C 85.4068,88.122 87.4068,88.9553 89.5,89.5 Z"/></g>
<g><path style="opacity:1" fill="#b53a48" d="M 109.5,84.5 C 111.167,84.5 112.833,84.5 114.5,84.5C 114.714,86.1439 114.38,87.6439 113.5,89C 109.5,89.6667 105.5,89.6667 101.5,89C 100.584,88.7216 99.9175,88.2216 99.5,87.5C 103.884,87.8256 108.217,87.4922 112.5,86.5C 111.398,85.8243 110.398,85.1577 109.5,84.5 Z"/></g>
<g><path style="opacity:1" fill="#c71527" d="M 130.5,86.5 C 130.833,86.5 131.167,86.5 131.5,86.5C 130.552,87.9779 129.219,88.9779 127.5,89.5C 125.167,89.5 122.833,89.5 120.5,89.5C 120.482,85.8707 121.816,82.8707 124.5,80.5C 125.5,79.8333 126.5,79.1667 127.5,78.5C 127.281,77.325 127.614,76.325 128.5,75.5C 133.249,80.029 138.583,80.6957 144.5,77.5C 147.131,79.0046 146.797,79.6713 143.5,79.5C 143.5,80.8333 143.5,82.1667 143.5,83.5C 141.339,83.1742 139.506,82.1742 138,80.5C 137.5,81 137,81.5 136.5,82C 132.848,82.4986 129.182,82.6653 125.5,82.5C 124.963,86.9807 126.63,88.314 130.5,86.5 Z"/></g>
<g><path style="opacity:1" fill="#c71525" d="M 161.5,86.5 C 160.075,88.0311 159.409,87.6977 159.5,85.5C 158.768,80.6359 157.102,80.3026 154.5,84.5C 153.566,85.5676 153.232,86.901 153.5,88.5C 155.604,88.2011 157.604,88.5344 159.5,89.5C 158.758,90.2868 157.925,90.9535 157,91.5C 155.644,98.4604 154.477,98.7937 153.5,92.5C 152.178,92.33 151.011,92.6634 150,93.5C 149.782,90.5738 149.282,87.7405 148.5,85C 151.426,84.313 152.759,82.4797 152.5,79.5C 155.925,79.6332 156.258,78.9665 153.5,77.5C 156.281,76.177 158.947,76.3437 161.5,78C 160.833,78.3333 160.167,78.6667 159.5,79C 161.291,81.1062 161.958,83.6062 161.5,86.5 Z"/></g>
<g><path style="opacity:1" fill="#f7e2db" d="M 159.5,85.5 C 158.18,86.9418 156.514,87.6085 154.5,87.5C 154.5,86.5 154.5,85.5 154.5,84.5C 157.102,80.3026 158.768,80.6359 159.5,85.5 Z"/></g>
<g><path style="opacity:1" fill="#ba2931" d="M 131.5,86.5 C 137.827,89.0628 139.161,93.3961 135.5,99.5C 131.685,102.424 127.351,103.258 122.5,102C 119.388,100.397 116.388,98.5634 113.5,96.5C 107.961,102.506 101.961,103.006 95.5,98C 90.4354,98.4269 87.1021,96.2602 85.5,91.5C 87.4832,91.8432 88.8166,91.1765 89.5,89.5C 90.1667,90.1667 90.8333,90.8333 91.5,91.5C 93.6568,92.4067 95.9902,93.0733 98.5,93.5C 100.013,95.2413 102.013,96.2413 104.5,96.5C 107.6,93.922 111.1,91.922 115,90.5C 117.154,91.3204 118.654,92.8204 119.5,95C 121.768,96.5519 124.268,97.3852 127,97.5C 131.998,97.3445 133.498,95.0111 131.5,90.5C 130.432,89.5655 129.099,89.2322 127.5,89.5C 129.219,88.9779 130.552,87.9779 131.5,86.5 Z"/></g>
<g><path style="opacity:1" fill="#f4e0d8" d="M 146.5,95.5 C 147.167,95.5 147.833,95.5 148.5,95.5C 150.355,95.272 151.188,95.9387 151,97.5C 149.491,99.9193 147.325,100.919 144.5,100.5C 144.392,98.4862 145.058,96.8195 146.5,95.5 Z"/></g>
<g><path style="opacity:1" fill="#a74648" d="M 189.5,95.5 C 186.711,98.883 183.045,100.55 178.5,100.5C 182.208,99.0367 185.874,97.37 189.5,95.5 Z"/></g>
<g><path style="opacity:1" fill="#933539" d="M 63.5,86.5 C 62.3137,92.1002 61.6471,97.7669 61.5,103.5C 60.353,99.3537 60.1864,95.0204 61,90.5C 61.6082,88.9336 62.4415,87.6002 63.5,86.5 Z"/></g>
<g><path style="opacity:1" fill="#c01729" d="M 70.5,83.5 C 69.9744,85.2303 68.9744,86.5637 67.5,87.5C 66.0689,87.8807 65.2355,88.8807 65,90.5C 64.7962,97.2289 64.6296,103.896 64.5,110.5C 63.7918,108.255 62.7918,106.255 61.5,104.5C 61.5,104.167 61.5,103.833 61.5,103.5C 61.6471,97.7669 62.3137,92.1002 63.5,86.5C 63.7376,84.5956 64.7376,83.2623 66.5,82.5C 68.456,80.8249 69.7893,81.1582 70.5,83.5 Z"/></g>
<g><path style="opacity:1" fill="#be1c2f" d="M 199.5,89.5 C 199.5,90.1667 199.5,90.8333 199.5,91.5C 195.611,97.3847 190.277,101.385 183.5,103.5C 176.841,104.222 170.175,104.389 163.5,104C 164.328,103.085 165.328,102.419 166.5,102C 169.695,101.819 172.695,101.319 175.5,100.5C 176.5,100.5 177.5,100.5 178.5,100.5C 183.045,100.55 186.711,98.883 189.5,95.5C 191.833,92.9974 193.999,90.3307 196,87.5C 196.816,88.8228 197.983,89.4894 199.5,89.5 Z"/></g>
<g><path style="opacity:1" fill="#c6112a" d="M 148.5,95.5 C 147.833,95.5 147.167,95.5 146.5,95.5C 143.058,95.8241 142.058,97.4908 143.5,100.5C 145.833,101.167 148.167,101.833 150.5,102.5C 143.302,105.535 139.968,103.202 140.5,95.5C 142.156,94.8535 143.823,94.1869 145.5,93.5C 147.038,93.4534 148.038,94.1201 148.5,95.5 Z"/></g>
<g><path style="opacity:1" fill="#fdfdfd" d="M 199.5,91.5 C 199.5,127.5 199.5,163.5 199.5,199.5C 167.5,199.5 135.5,199.5 103.5,199.5C 104.355,198.469 105.022,197.303 105.5,196C 100.783,192.049 97.4501,187.216 95.5,181.5C 94.6027,176.86 94.4361,172.194 95,167.5C 96.6925,162.918 98.8592,158.584 101.5,154.5C 103.252,154.418 104.252,155.251 104.5,157C 97.4597,170.976 101.793,176.976 117.5,175C 120.167,173 121.5,170.333 121.5,167C 120.81,161.597 119.31,156.43 117,151.5C 116.333,148.833 116.333,146.167 117,143.5C 118.555,141.485 120.389,141.152 122.5,142.5C 118.606,154.87 122.94,159.37 135.5,156C 138.652,153.529 140.985,150.529 142.5,147C 140.828,142.157 137.828,138.324 133.5,135.5C 136.714,134.956 139.714,133.956 142.5,132.5C 143.998,127.991 143.665,123.658 141.5,119.5C 141.423,118.25 140.756,117.417 139.5,117C 141.025,115.991 142.692,115.491 144.5,115.5C 144.025,118.082 144.692,120.082 146.5,121.5C 148.962,124.053 151.295,124.053 153.5,121.5C 155.218,119.777 156.551,117.777 157.5,115.5C 159.117,113.879 160.284,111.879 161,109.5C 162.214,107.951 163.714,106.785 165.5,106C 171.762,105.967 177.762,105.134 183.5,103.5C 190.277,101.385 195.611,97.3847 199.5,91.5 Z"/></g>
<g><path style="opacity:1" fill="#ae333a" d="M 175.5,100.5 C 172.695,101.319 169.695,101.819 166.5,102C 165.328,102.419 164.328,103.085 163.5,104C 170.175,104.389 176.841,104.222 183.5,103.5C 177.762,105.134 171.762,105.967 165.5,106C 163.714,106.785 162.214,107.951 161,109.5C 160.284,111.879 159.117,113.879 157.5,115.5C 157.843,113.517 157.176,112.183 155.5,111.5C 155.604,109.297 156.27,107.297 157.5,105.5C 162.517,100.888 168.517,99.2217 175.5,100.5 Z"/></g>
<g><path style="opacity:1" fill="#fdfcfc" d="M 24.5,145.5 C 28.6656,151.173 33.9989,152.84 40.5,150.5C 43.1955,150.067 45.3621,148.734 47,146.5C 48.9653,143.035 51.132,139.702 53.5,136.5C 54.1667,136.167 54.8333,135.833 55.5,135.5C 56.8221,135.33 57.9887,135.663 59,136.5C 59.4666,141.675 59.2999,146.842 58.5,152C 58.2999,154.866 58.9666,157.366 60.5,159.5C 62.7504,162.034 65.0837,162.034 67.5,159.5C 70.7548,157.074 73.5881,154.074 76,150.5C 77.8793,148.473 79.046,146.14 79.5,143.5C 82.4686,142.671 85.4686,142.505 88.5,143C 89.3994,144.652 90.3994,146.152 91.5,147.5C 90.9352,155.555 89.9352,163.555 88.5,171.5C 88.4267,176.199 89.4267,180.533 91.5,184.5C 93.4564,190.743 97.123,195.743 102.5,199.5C 68.1667,199.5 33.8333,199.5 -0.5,199.5C -0.5,169.167 -0.5,138.833 -0.5,108.5C 2.51845,108.841 5.18512,107.675 7.5,105C 17.8275,98.0484 28.8275,96.7151 40.5,101C 46.357,104.143 48.357,108.81 46.5,115C 40.4513,117.51 34.1179,118.843 27.5,119C 23.3359,119.823 20.1692,121.99 18,125.5C 16.2936,133.546 18.4602,140.212 24.5,145.5 Z"/></g>
<g><path style="opacity:1" fill="#f7edec" d="M 140.5,95.5 C 138.697,99.4665 139.697,102.633 143.5,105C 148.372,105.766 152.372,104.266 155.5,100.5C 154.403,102.774 153.07,104.941 151.5,107C 151.833,107.5 152.167,108 152.5,108.5C 154.201,107.446 155.868,106.446 157.5,105.5C 156.27,107.297 155.604,109.297 155.5,111.5C 154.833,111.5 154.5,111.833 154.5,112.5C 153.685,113.429 152.852,114.429 152,115.5C 151.851,107.432 148.351,105.432 141.5,109.5C 138.905,107.371 135.905,106.038 132.5,105.5C 124.709,105.003 116.876,104.003 109,102.5C 105.049,103.784 102.383,106.45 101,110.5C 100.568,106.928 98.7348,104.595 95.5,103.5C 95.5,103.167 95.5,102.833 95.5,102.5C 90.3187,101.833 84.9853,101.167 79.5,100.5C 77.5643,97.792 77.0643,94.792 78,91.5C 79.3561,90.6198 80.8561,90.2865 82.5,90.5C 83.391,91.1098 84.391,91.4431 85.5,91.5C 87.1021,96.2602 90.4354,98.4269 95.5,98C 101.961,103.006 107.961,102.506 113.5,96.5C 116.388,98.5634 119.388,100.397 122.5,102C 127.351,103.258 131.685,102.424 135.5,99.5C 139.161,93.3961 137.827,89.0628 131.5,86.5C 131.167,86.5 130.833,86.5 130.5,86.5C 129.391,85.71 128.058,85.21 126.5,85C 133.602,82.5801 140.269,83.5801 146.5,88C 147.451,88.7175 147.617,89.5509 147,90.5C 144.099,91.2367 141.932,92.9033 140.5,95.5 Z"/></g>
<g><path style="opacity:1" fill="#e9a2a3" d="M 91.5,91.5 C 93.5273,91.3379 95.5273,91.5045 97.5,92C 98.056,92.3826 98.3893,92.8826 98.5,93.5C 95.9902,93.0733 93.6568,92.4067 91.5,91.5 Z"/></g>
<g><path style="opacity:1" fill="#b34e4e" d="M 154.5,112.5 C 154.723,115.114 153.556,116.781 151,117.5C 150.774,114.905 150.274,112.405 149.5,110C 146.854,109.503 144.187,109.336 141.5,109.5C 148.351,105.432 151.851,107.432 152,115.5C 152.852,114.429 153.685,113.429 154.5,112.5 Z"/></g>
<g><path style="opacity:1" fill="#b0323a" d="M 67.5,87.5 C 64.6218,95.9771 65.1218,104.31 69,112.5C 70.214,114.049 71.714,115.215 73.5,116C 79.0158,116.173 84.3491,116.673 89.5,117.5C 83.8333,117.5 78.1667,117.5 72.5,117.5C 72.5,118.5 72.5,119.5 72.5,120.5C 69.8045,120.067 67.6379,118.734 66,116.5C 63.2827,112.97 61.7827,108.97 61.5,104.5C 62.7918,106.255 63.7918,108.255 64.5,110.5C 64.6296,103.896 64.7962,97.2289 65,90.5C 65.2355,88.8807 66.0689,87.8807 67.5,87.5 Z"/></g>
<g><path style="opacity:1" fill="#b22f37" d="M 89.5,89.5 C 87.4068,88.9553 85.4068,88.122 83.5,87C 77.9239,85.7459 74.5905,87.9126 73.5,93.5C 74.5,93.5 75.5,93.5 76.5,93.5C 76.33,92.1779 76.6634,91.0113 77.5,90C 79.3869,89.2204 81.0536,89.3871 82.5,90.5C 80.8561,90.2865 79.3561,90.6198 78,91.5C 77.0643,94.792 77.5643,97.792 79.5,100.5C 84.9853,101.167 90.3187,101.833 95.5,102.5C 90.1254,102.172 84.7921,102.505 79.5,103.5C 84.9864,104.815 90.3197,104.815 95.5,103.5C 98.7348,104.595 100.568,106.928 101,110.5C 102.383,106.45 105.049,103.784 109,102.5C 116.876,104.003 124.709,105.003 132.5,105.5C 135.905,106.038 138.905,107.371 141.5,109.5C 141.631,110.376 141.298,111.043 140.5,111.5C 139.186,110.687 138.019,109.687 137,108.5C 136.806,112.035 138.64,113.701 142.5,113.5C 141.054,114.613 139.387,114.78 137.5,114C 136.386,112.43 135.053,111.097 133.5,110C 127.167,109.667 120.833,109.333 114.5,109C 110.482,106.509 107.482,107.342 105.5,111.5C 104.999,115.847 102.666,117.68 98.5,117C 96.2824,114.25 94.9491,111.083 94.5,107.5C 92.2831,106.428 89.9498,105.761 87.5,105.5C 82.3149,107.364 77.8149,106.364 74,102.5C 70.0846,96.2388 70.918,90.7388 76.5,86C 81.6278,84.6683 85.9611,85.835 89.5,89.5 Z"/></g>
<g><path style="opacity:1" fill="#cb1313" d="M 132.5,105.5 C 133.429,106.315 134.429,107.148 135.5,108C 130.798,108.828 126.131,108.662 121.5,107.5C 125.072,106.294 128.738,105.627 132.5,105.5 Z"/></g>
<g><path style="opacity:1" fill="#cf1020" d="M 95.5,102.5 C 95.5,102.833 95.5,103.167 95.5,103.5C 90.3197,104.815 84.9864,104.815 79.5,103.5C 84.7921,102.505 90.1254,102.172 95.5,102.5 Z"/></g>
<g><path style="opacity:1" fill="#ca121d" d="M 105.5,111.5 C 103.952,111.821 103.285,112.821 103.5,114.5C 102.167,114.5 100.833,114.5 99.5,114.5C 99.5,113.5 99.5,112.5 99.5,111.5C 101.903,111.607 103.736,110.607 105,108.5C 105.483,109.448 105.649,110.448 105.5,111.5 Z"/></g>
<g><path style="opacity:1" fill="#b13239" d="M 133.5,116.5 C 128.474,115.605 123.474,115.605 118.5,116.5C 121.939,116.906 124.939,117.906 127.5,119.5C 120.96,118.746 114.96,120.079 109.5,123.5C 110.486,121.484 112.153,120.151 114.5,119.5C 114,119.167 113.5,118.833 113,118.5C 107.126,121.154 101.292,123.154 95.5,124.5C 93.1877,123.68 90.8543,122.847 88.5,122C 82.9842,121.827 77.6509,121.327 72.5,120.5C 79.5381,120.239 86.5381,120.572 93.5,121.5C 94.7133,121.253 95.38,120.586 95.5,119.5C 98.7431,120.58 102.076,120.747 105.5,120C 109.167,118.333 112.833,116.667 116.5,115C 121.167,114.333 125.833,114.333 130.5,115C 131.737,115.232 132.737,115.732 133.5,116.5 Z"/></g>
<g><path style="opacity:1" fill="#ac414b" d="M 146.5,113.5 C 147.314,115.631 147.814,117.964 148,120.5C 149.699,121.406 151.533,121.739 153.5,121.5C 151.295,124.053 148.962,124.053 146.5,121.5C 146.5,118.833 146.5,116.167 146.5,113.5 Z"/></g>
<g><path style="opacity:1" fill="#c3192c" d="M 141.5,109.5 C 144.187,109.336 146.854,109.503 149.5,110C 150.274,112.405 150.774,114.905 151,117.5C 153.556,116.781 154.723,115.114 154.5,112.5C 154.5,111.833 154.833,111.5 155.5,111.5C 157.176,112.183 157.843,113.517 157.5,115.5C 156.551,117.777 155.218,119.777 153.5,121.5C 151.533,121.739 149.699,121.406 148,120.5C 147.814,117.964 147.314,115.631 146.5,113.5C 145.167,113.5 143.833,113.5 142.5,113.5C 138.64,113.701 136.806,112.035 137,108.5C 138.019,109.687 139.186,110.687 140.5,111.5C 141.298,111.043 141.631,110.376 141.5,109.5 Z"/></g>
<g><path style="opacity:1" fill="#c51722" d="M 89.5,117.5 C 91.7857,117.595 93.7857,118.262 95.5,119.5C 95.38,120.586 94.7133,121.253 93.5,121.5C 86.5381,120.572 79.5381,120.239 72.5,120.5C 72.5,119.5 72.5,118.5 72.5,117.5C 78.1667,117.5 83.8333,117.5 89.5,117.5 Z"/></g>
<g><path style="opacity:1" fill="#c8142b" d="M 109.5,123.5 C 109.158,124.338 108.492,124.672 107.5,124.5C 103.5,124.5 99.5,124.5 95.5,124.5C 101.292,123.154 107.126,121.154 113,118.5C 113.5,118.833 114,119.167 114.5,119.5C 112.153,120.151 110.486,121.484 109.5,123.5 Z"/></g>
<g><path style="opacity:1" fill="#a83841" d="M 95.5,124.5 C 99.5,124.5 103.5,124.5 107.5,124.5C 103.5,127.167 99.5,127.167 95.5,124.5 Z"/></g>
<g><path style="opacity:1" fill="#ae4c55" d="M 138.5,129.5 C 132.218,129.285 129.718,132.285 131,138.5C 132.481,139.471 133.315,140.804 133.5,142.5C 131.871,141.375 130.371,140.041 129,138.5C 128.056,131.279 131.223,128.279 138.5,129.5 Z"/></g>
<g><path style="opacity:1" fill="#b52832" d="M 59.5,131.5 C 55.7428,131.302 52.7428,132.635 50.5,135.5C 51.325,136.386 52.325,136.719 53.5,136.5C 51.132,139.702 48.9653,143.035 47,146.5C 45.3621,148.734 43.1955,150.067 40.5,150.5C 37.059,150.699 33.7256,150.199 30.5,149C 29.3909,147.187 30.0576,146.354 32.5,146.5C 35.1873,146.664 37.854,146.497 40.5,146C 44.0194,140.635 48.0194,135.635 52.5,131C 55.0385,130.204 57.3718,130.371 59.5,131.5 Z"/></g>
<g><path style="opacity:1" fill="#a93236" d="M 29.5,143.5 C 30.8333,144.167 31.8333,145.167 32.5,146.5C 30.0576,146.354 29.3909,147.187 30.5,149C 33.7256,150.199 37.059,150.699 40.5,150.5C 33.9989,152.84 28.6656,151.173 24.5,145.5C 26.698,145.88 28.3646,145.213 29.5,143.5 Z"/></g>
<g><path style="opacity:1" fill="#a53d43" d="M 55.5,135.5 C 57.9938,133.923 59.8271,134.59 61,137.5C 60.753,144.804 60.5863,152.137 60.5,159.5C 58.9666,157.366 58.2999,154.866 58.5,152C 59.2999,146.842 59.4666,141.675 59,136.5C 57.9887,135.663 56.8221,135.33 55.5,135.5 Z"/></g>
<g><path style="opacity:1" fill="#a23638" d="M 91.5,147.5 C 90.8124,159.656 90.8124,171.99 91.5,184.5C 89.4267,180.533 88.4267,176.199 88.5,171.5C 89.9352,163.555 90.9352,155.555 91.5,147.5 Z"/></g>
<g><path style="opacity:1" fill="#bb2430" d="M 133.5,116.5 C 136.406,116.957 139.072,117.957 141.5,119.5C 143.665,123.658 143.998,127.991 142.5,132.5C 139.714,133.956 136.714,134.956 133.5,135.5C 137.828,138.324 140.828,142.157 142.5,147C 140.985,150.529 138.652,153.529 135.5,156C 122.94,159.37 118.606,154.87 122.5,142.5C 120.389,141.152 118.555,141.485 117,143.5C 116.333,146.167 116.333,148.833 117,151.5C 119.31,156.43 120.81,161.597 121.5,167C 121.5,170.333 120.167,173 117.5,175C 101.793,176.976 97.4597,170.976 104.5,157C 104.252,155.251 103.252,154.418 101.5,154.5C 99.629,154.859 98.129,155.859 97,157.5C 93.029,165.41 92.529,173.41 95.5,181.5C 97.4501,187.216 100.783,192.049 105.5,196C 105.022,197.303 104.355,198.469 103.5,199.5C 103.167,199.5 102.833,199.5 102.5,199.5C 97.123,195.743 93.4564,190.743 91.5,184.5C 90.8124,171.99 90.8124,159.656 91.5,147.5C 90.3994,146.152 89.3994,144.652 88.5,143C 85.4686,142.505 82.4686,142.671 79.5,143.5C 79.046,146.14 77.8793,148.473 76,150.5C 73.5881,154.074 70.7548,157.074 67.5,159.5C 65.1667,159.5 62.8333,159.5 60.5,159.5C 60.5863,152.137 60.753,144.804 61,137.5C 59.8271,134.59 57.9938,133.923 55.5,135.5C 54.8333,135.833 54.1667,136.167 53.5,136.5C 52.325,136.719 51.325,136.386 50.5,135.5C 52.7428,132.635 55.7428,131.302 59.5,131.5C 61.7525,131.916 63.2525,133.249 64,135.5C 64.0601,142.503 64.0601,149.503 64,156.5C 65,155.833 66,155.167 67,154.5C 69.8879,149.224 73.3879,144.391 77.5,140C 84.5679,135.771 90.4012,136.938 95,143.5C 95.1515,146.119 95.9848,148.453 97.5,150.5C 102.064,148.678 105.897,149.678 109,153.5C 109.435,158.206 108.602,162.706 106.5,167C 106.585,168.107 106.919,169.107 107.5,170C 110.429,170.777 113.263,170.61 116,169.5C 116.558,163.73 115.224,158.397 112,153.5C 111.833,151.5 111.667,149.5 111.5,147.5C 112.236,137.626 117.236,134.626 126.5,138.5C 127.104,142.798 127.27,147.131 127,151.5C 131.04,153.153 134.373,152.153 137,148.5C 137.387,145.696 136.221,143.696 133.5,142.5C 133.315,140.804 132.481,139.471 131,138.5C 129.718,132.285 132.218,129.285 138.5,129.5C 138.78,126.728 138.113,124.228 136.5,122C 133.568,120.855 130.568,120.022 127.5,119.5C 124.939,117.906 121.939,116.906 118.5,116.5C 123.474,115.605 128.474,115.605 133.5,116.5 Z"/></g>
<g><path style="opacity:1" fill="#ab6774" d="M 60.5,159.5 C 62.8333,159.5 65.1667,159.5 67.5,159.5C 65.0837,162.034 62.7504,162.034 60.5,159.5 Z"/></g>
<g><path style="opacity:1" fill="#fbcfd5" d="M 101.5,154.5 C 98.8592,158.584 96.6925,162.918 95,167.5C 94.4361,172.194 94.6027,176.86 95.5,181.5C 92.529,173.41 93.029,165.41 97,157.5C 98.129,155.859 99.629,154.859 101.5,154.5 Z"/></g>
</svg>
