<svg xmlns="http://www.w3.org/2000/svg" width="251" height="248" style="shape-rendering:geometricPrecision;text-rendering:geometricPrecision;image-rendering:optimizeQuality;fill-rule:evenodd;clip-rule:evenodd"><path style="opacity:1" fill="#fefdfd" d="M-.5-.5h251v248H-.5V-.5z"/><path style="opacity:1" fill="#ad180f" d="M59.5 173.5c-1.317 6.178-1.317 12.512 0 19 .607-.124.94-.457 1-1 15.45-12.89 33.116-21.223 53-25 13.226 1.114 24.559 6.281 34 15.5 10.776 10.117 18.276 22.284 22.5 36.5.736 21.239-9.431 29.406-30.5 24.5a1669.903 1669.903 0 0 0-39-10 433.201 433.201 0 0 0-11-1.5 61.037 61.037 0 0 1-17 .5c-3.135-1.266-4.802-3.599-5-7 5.47-14.141 15.137-24.474 29-31 11.854-4.109 23.188-3.109 34 3 9.112 7.399 15.279 16.566 18.5 27.5a187.919 187.919 0 0 0-18.5-22.5c-14.178-10.139-28.178-9.806-42 1-6.296 5.289-11.462 11.456-15.5 18.5-.808 2.079-.641 4.079.5 6a483.704 483.704 0 0 0 30 1.5 504.379 504.379 0 0 0 37 10c19.694 3.971 27.861-3.862 24.5-23.5-8.97-24.475-26.137-39.475-51.5-45a75.555 75.555 0 0 0-24 6.5 253.992 253.992 0 0 0-23 14 45.255 45.255 0 0 0-7.5 8.5c-.578 9.34-1.245 18.673-2 28-.856 6.24-4.023 10.74-9.5 13.5-4.543 1.615-7.377.115-8.5-4.5-.908-15.197 4.092-28.197 15-39-.13-29.353 5.87-57.353 18-84a42.872 42.872 0 0 1 12.5-12c-5.592-2.758-10.092-6.758-13.5-12l-13-26A60.726 60.726 0 0 1 46.5 59c-3.495-6.52-1.495-9.187 6-8l8 8c12.6-.563 24.934-2.896 37-7a70.75 70.75 0 0 1 19.5.5c9.645-7.404 20.478-12.57 32.5-15.5 11.491-4.492 21.324-11.325 29.5-20.5a146.864 146.864 0 0 1 4.5-9c.856 2.639.69 5.306-.5 8-5.064 8.117-11.897 14.284-20.5 18.5a218.71 218.71 0 0 1-34 15 29.94 29.94 0 0 0-7 6l6.5 6.5a34.784 34.784 0 0 1 2 10c6.487-6.832 13.654-7.665 21.5-2.5 6.659 8.828 6.492 17.661-.5 26.5-6.015 5.787-13.182 9.287-21.5 10.5 6.21 4.542 11.376 10.042 15.5 16.5 8.238 14.381 13.905 29.714 17 46a819.908 819.908 0 0 0 2-46c1.114-3.799 2.447-3.799 4 0a4574.803 4574.803 0 0 0 8 88 294.354 294.354 0 0 1 6-36c2.076-5.448 5.743-7.115 11-5a191.96 191.96 0 0 0 5.5 13c1.774-2.686 3.107-5.686 4-9 2.541-2.6 5.041-2.6 7.5 0a118.063 118.063 0 0 0 3.5 8c1.434-1.72 2.267-3.72 2.5-6 2.905-3.827 5.905-3.827 9 0a15.256 15.256 0 0 0 1.5 4.5c2.726.182 5.393.682 8 1.5a7.248 7.248 0 0 1-2 2.5 16.242 16.242 0 0 1-8 0c-2.237-8.222-4.737-8.388-7.5-.5-2.075 2.148-4.408 2.482-7 1a31.041 31.041 0 0 0-4-8c-1.327 2.631-2.66 5.298-4 8-2.459 2.6-4.959 2.6-7.5 0a91.688 91.688 0 0 1-4-10c-1-1.333-2-1.333-3 0-2.34 3.99-3.84 8.323-4.5 13a1364.603 1364.603 0 0 1-7 42 7.293 7.293 0 0 1-2-3 833.731 833.731 0 0 1-7-73l-1 46-11-44a186.182 186.182 0 0 0-17-37c-4.919-5.933-11.085-9.767-18.5-11.5-1.333-1.667-1.333-3.333 0-5 11.607 1.15 21.441-2.35 29.5-10.5 4.667-6.333 4.667-12.667 0-19-11.712-5.621-18.045-1.955-19 11 1.069 4.502 3.735 7.502 8 9 5.152-1.619 6.319-4.619 3.5-9-.565 2.01-1.565 3.676-3 5-2.446-.927-3.279-2.594-2.5-5 3.434-5.285 6.767-5.285 10 0 .167 10.832-4.666 13.999-14.5 9.5a15.83 15.83 0 0 1-3.5-5.5c-.543-4.743-.543-9.41 0-14-8.58 3.14-13.413-.026-14.5-9.5-.018-2.379.649-4.545 2-6.5-.59-1.299-1.59-2.132-3-2.5-11.682-.25-23.015 1.75-34 6a90.09 90.09 0 0 1-16 1.5c3.377 12.59 9.71 23.424 19 32.5 4.24 2.782 8.907 4.115 14 4 1.333 1.333 1.333 2.667 0 4-9.04.441-15.873 4.608-20.5 12.5-8.774 18.368-13.94 37.702-15.5 58z"/><path style="opacity:1" fill="#fdf8f8" d="M118.5 60.5c6.287.455 8.287 3.621 6 9.5-3.018.573-5.185-.594-6.5-3.5-.678-2.098-.511-4.098.5-6z"/><path style="opacity:1" fill="#efcecd" d="M48.5 54.5c2.584.069 4.584 1.236 6 3.5-3.101.619-5.101-.548-6-3.5z"/><path style="opacity:1" fill="#dd9c9b" d="M59.5 173.5c-.323 6.19.01 12.19 1 18-.06.543-.393.876-1 1-1.317-6.488-1.317-12.822 0-19z"/><path style="opacity:1" fill="#fcf5f5" d="M53.5 202.5c1.225.652 1.892 1.819 2 3.5a323.622 323.622 0 0 0-1.5 18.5c-.404 5.822-3.07 10.156-8 13-1.261-.259-2.261-.926-3-2-1.45-8.164-.117-15.831 4-23a82.358 82.358 0 0 0 6.5-10z"/></svg>