<svg width="156" height="180" fill="none" xmlns="http://www.w3.org/2000/svg"><path fill="#4A5F76" d="M0 0h156v180H0z"/><path d="M116.574 61.57c-3.773 5.068-6.205 5.237-10.566 5.237-2.599 0-4.36 1.183-5.366 3.464-.42 1.098-1.258 2.196-1.678 2.872l-.335.507v-.507c0-.338 0-.845.168-1.52 0-.17.084-.339.084-.423 0-.591-.252-.93-.504-1.098-.754-.676-1.928-.254-3.018.169-.252.084-.587.253-.84.338-1.592-2.112-3.437-2.366-7.043-1.944-1.593.17-2.767-.253-3.69-.506-.67-.254-1.258-.423-1.929-.338-2.096.169-3.018 3.97-3.186 3.379a2.774 2.774 0 0 1-.168-1.014c-.168-1.774-1.677-2.45-2.18-2.703-1.426-.592-3.438-.423-4.445-.254-1.174.254-1.844-.338-2.18-.844-.587-.845-.67-2.112-.251-2.957.335-.507.922-.845 1.509-.845.838 0 1.677.592 2.264 1.605.839 1.52 2.013 1.267 2.6 1.098.084 0 .251-.084.335-.084 0 0 .084.084.168.253.503.76 2.6 1.605 3.857 1.774.755.085 1.342-.084 1.761-.507 1.007-1.098 1.845-1.604 2.264-1.773 1.007 1.52 2.684 2.365 5.032 2.534 2.348.169 4.025-1.014 4.193-3.126a2.884 2.884 0 0 0-.671-2.196c-.671-.845-1.929-1.352-3.27-1.352l-1.09.085h-.168c.335-.338.922-.676 2.18-.93 2.013-.422 4.864.507 6.457 1.605.67.507 1.006.93 1.006 1.099v.169c-.084.084-.503.168-.838.253-.504.169-1.007.253-1.51.591-1.006.676-1.51 1.605-1.425 2.62a2.566 2.566 0 0 0 1.677 2.196c1.174.506 2.6.168 3.773-.76 1.678-1.437 1.678-2.957 1.678-4.14l-.084-.17c1.006-.168 1.845-.76 2.348-1.773.419-.845.587-1.943.251-2.957 2.097-1.014 2.768-2.28 2.935-3.294.252-1.352-.419-2.535-1.006-3.042-1.845-1.605-4.025-.76-4.948-.337-.503.168-1.677.59-2.096-.254-.168-.422-.084-1.014.335-1.183.587-.253 1.426-.169 2.265-.169 1.257.085 2.515.17 3.354-.76.587-.676.755-1.605.503-2.957-.419-2.45-2.683-6.166-5.45-6.504-.923-.085-2.516.084-3.69 2.618-1.342 3.126-3.02 5.238-4.361 5.745-.335.169-.671.169-.922 0-.84-.422-.923-.845-.252-2.788.503-1.52 1.258-3.717-.252-5.49-1.006-1.183-3.606-2.028-5.45-1.437-1.09.338-1.761 1.267-1.845 2.45-.168 1.858-.923 2.788-1.594 3.125-.335.17-.67.17-.838 0-.252-.168-.336-.675-.168-1.267 1.342-4.815 1.09-11.235-3.69-16.895l-1.509 1.267c5.2 6.082 4.528 13.263 2.348 17.571-1.677 3.295-4.193 4.731-5.954 4.985-1.677.168-3.69.168-4.109-1.352-.335-1.352.503-2.957.922-3.126.42-.084 1.426.592 2.097 1.014 1.09.676 2.096 1.352 3.103.93.335-.17.838-.423 1.006-1.183.755-2.535-3.606-6.843-3.69-6.928-2.18-2.112-6.54-3.886-8.972-4.477-1.93-.422-3.27-.253-4.11.507-.587.507-.922 1.267-.922 2.28v.508c.168 1.69.755 3.717 1.258 5.575.587 2.028 1.174 4.055 1.258 5.66v.592c0 1.267-.168 1.436-.755 1.942l-.922.845c-.587.592-1.51 1.52-1.51 2.788v.169c.084.845.503 1.605 1.426 2.28 1.677 1.353 2.096 2.197 2.18 2.45-.168.085-.67.17-1.929-.084-3.102-.591-4.78.507-5.283 1.859-.167.507-.251 1.098-.084 1.69h-.083c-3.02-.592-7.967-.254-14.34 4.815l1.174 1.52c5.786-4.646 10.147-4.9 12.746-4.393 2.348.507 4.36 1.943 5.451 3.802.335.591.335 1.267.084 1.858-.252.76-1.006 1.352-1.929 1.69-.922.338-2.096.422-3.354.591-2.935.338-6.541.76-6.876 4.393-.336 3.126 2.767 7.434 6.121 8.617 2.348.844 4.612 0 6.038-2.366l.42-.591c1.005-1.605 2.096-3.295 2.934-3.464.084 0 .42-.084 1.007.338.922.676.587 3.041.335 4.816-.252 2.027-.503 3.8.42 4.73.335.338.922.676 1.928.507 1.51-.253 2.516-1.858 3.69-3.632 1.09-1.69 2.264-3.549 3.69-3.886.838-.254 1.425-.085 1.928.422.923.93 1.51 3.463.42 7.94-1.258 6.337.586 11.236 5.45 14.531l1.09-1.605c-4.276-2.872-5.786-7.012-4.696-12.503.336-1.605 1.342-3.21 2.432-3.801.587-.338.923-.17 1.006-.085.252.085.336.254.42.507.167.507.084 1.605-.755 3.041-1.006 1.774-.42 2.957 0 3.548 1.09 1.436 3.438 1.859 5.031 1.436 1.426-.338 2.349-1.267 2.6-2.45.252-1.689-.42-3.547-1.174-5.406-.67-1.774-1.426-3.548-.922-4.646.335-.76 1.09-1.098 1.677-1.183.419-.084.67.085.67.085.085.084.085.422-.167 1.013-.755 1.859-.42 3.802.839 4.816 1.341 1.098 3.354.844 5.282-.676 1.342-1.014 2.013-2.197 1.93-3.38-.168-1.942-2.349-3.21-3.103-3.632-.084-.084-.168-.422-.084-.676.167-.422.838-.338 1.09-.253.754.169 1.593-.085 2.18-.676.755-.676 1.006-1.774.755-2.872-.336-1.605-1.174-3.21-4.696-4.224-4.11-1.183-6.038-.169-8.554 1.014l-1.09.591c-2.348 1.098-3.186.845-4.528.169-1.342-.676-3.606-1.774-6.625-1.183-1.09.17-2.096 0-3.103-.76-1.677-1.183-2.264-3.38-2.6-5.745-.502-3.632 1.51-6.927 3.774-7.687 2.768-.93 5.283-.422 8.386 1.69 2.348 1.605 3.69 1.52 6.373 1.267h.168c.503-.085.922-.507.839-1.098-.084-.507-.504-.93-1.09-.845h-.504c-1.845-.17-3.102-2.365-3.522-4.14-.251-1.098-.251-2.618 1.174-3.97.503-.507 1.426-.76 2.264-.676.42 0 1.174.17 1.845.76-1.09.254-2.012 1.014-2.432 2.028a3.338 3.338 0 0 0-.251 1.183c0 .76.335 1.52.922 2.027 1.09.93 2.768 1.014 4.11.169.419-.253.754-.591.922-1.014a14.358 14.358 0 0 0 1.593 1.605c-1.342.338-2.935 1.014-3.522 2.788-.252.76.084 1.267.252 1.436.587.676 1.593.507 2.515.338l.671-.084c.839-.085 1.51.253 1.845.675.168.254.252.423.252.76-.084 1.014-.839 1.437-2.097 1.352-1.928-.168-3.103-.76-3.773-1.943-.168-.338-.587-.59-1.007-.675-1.174-.17-2.767 1.098-3.941 2.365-.503.085-2.264-.591-2.683-.93-.923-1.35-2.013-1.097-2.516-.928l-.252.084s-.084-.084-.167-.254c-.923-1.605-2.349-2.618-3.858-2.618a3.69 3.69 0 0 0-3.186 1.774c-.839 1.436-.755 3.548.335 5.068.922 1.352 2.432 1.943 4.109 1.606 1.006-.17 2.516-.254 3.27.168.923.423 1.007.76 1.007 1.099.251 2.703 1.425 3.21 1.928 3.21.336 0 1.426 0 2.013-1.69.335-1.013 1.174-2.112 1.593-2.112.168 0 .671.17 1.09.254 1.09.338 2.516.845 4.529.591 3.857-.422 4.612 0 5.534 1.436.587.93 1.761.507 2.852.085.251-.085.503-.17.838-.254-.084.507-.168 1.014-.168 1.436 0 1.69.671 2.366 1.258 2.62.839.337 1.845-.085 2.432-1.1l.252-.422c.503-.76 1.341-1.942 1.845-3.21.503-1.182 1.257-2.28 3.522-2.28 4.696 0 7.798-.254 12.075-6.083l-1.426-1.014zm-18.951-1.521c-.504-.338-1.007-.676-1.594-.93l.587-.253c1.426-.76 2.264-1.182 3.187-1.014-1.09.592-1.593 1.521-1.845 2.366-.084-.085-.251-.17-.335-.17zm.503 6.167c-.587.507-1.258.675-1.761.507-.252-.085-.503-.338-.503-.592 0-.338.335-.591.587-.76.251-.17.587-.253 1.006-.338.503-.169 1.258-.338 1.76-.93-.083.761-.167 1.437-1.09 2.113zm3.606-5.407c-.168.338-.587.93-1.51.592-.335-.085-.42-.423-.42-.676v-.085c.085-.591.588-1.267 1.93-1.52.084.253.167.506.167.844 0 .338-.083.592-.167.845zm-15.514-5.406c0 .169-.084.337-.42.506-.754.507-1.509.338-1.844 0-.252-.253-.336-.59-.168-1.013.168-.423.587-.76 1.09-.845.252-.084.671-.084 1.09.338l.084.084c.168.254.168.507.168.845v.085zm1.426-2.366c0-.084-.084-.084-.084-.084-.252-.423-.503-.845-.839-1.267-.922-1.268-2.348-2.112-3.941-2.197-1.426-.084-2.851.338-3.774 1.267-1.593 1.52-2.18 3.633-1.677 5.83.252 1.35 1.006 2.534 1.929 3.463-.42-.17-.755-.423-1.258-.76-3.69-2.45-6.793-3.042-10.063-1.943-3.438 1.182-5.702 5.575-5.115 9.799.42 2.872 1.341 5.575 3.438 7.011 1.425 1.014 3.019 1.352 4.612 1.099 2.432-.507 4.193.422 5.45 1.014 1.51.76 3.02 1.351 6.206-.17l1.174-.59c2.432-1.183 3.774-1.86 7.128-.93 2.684.76 3.103 1.69 3.27 2.703.085.423 0 .845-.25 1.014a.638.638 0 0 1-.42.169c-1.929-.422-3.02.507-3.355 1.436-.419 1.183 0 2.534 1.09 3.126.504.253 2.097 1.182 2.18 2.112.085.59-.586 1.182-1.173 1.69-1.174.928-2.264 1.182-2.935.675-.587-.422-.671-1.436-.252-2.534.587-1.436.252-2.366-.084-2.873-.503-.675-1.425-1.013-2.515-.844a4.19 4.19 0 0 0-3.27 2.365c-.755 1.859.083 4.055.922 6.167.587 1.605 1.258 3.21 1.09 4.393-.084.591-.755.76-1.09.929-1.09.253-2.516-.085-3.02-.676-.083-.084-.335-.507.169-1.352 1.006-1.774 1.341-3.463.922-4.73-.252-.76-.755-1.352-1.51-1.69-.838-.338-1.76-.253-2.683.17a3.01 3.01 0 0 0-.838.59c0-2.196-.587-3.885-1.594-4.9-1.006-.928-2.264-1.266-3.773-.928-2.097.59-3.522 2.787-4.78 4.73-.755 1.183-1.761 2.788-2.432 2.957-.252 0-.252-.085-.252-.085-.251-.337 0-2.027.168-3.04.335-2.45.755-5.323-1.09-6.674-.839-.592-1.677-.845-2.516-.676-1.76.338-2.935 2.196-4.276 4.393l-.42.591c-1.006 1.52-2.18 2.027-3.773 1.52-2.684-.929-5.032-4.477-4.78-6.589.167-1.858 1.845-2.28 5.199-2.618 1.258-.17 2.6-.254 3.773-.676 1.51-.507 2.6-1.52 3.103-2.873a4.366 4.366 0 0 0-.251-3.548 9.426 9.426 0 0 0-3.187-3.379c-1.342-.844-1.76-1.774-1.51-2.365.252-.591 1.259-1.014 3.103-.676 2.768.592 3.774-.253 4.11-1.014.586-1.267-.336-2.956-2.768-4.815-.252-.253-.587-.591-.67-.845 0-.506.586-1.098.922-1.52l.754-.676c1.09-.93 1.594-1.605 1.51-4.14-.084-1.858-.671-3.97-1.342-6.082-.503-1.858-1.09-3.717-1.174-5.237 0-.338 0-.845.252-1.098.167-.17.754-.423 2.431-.085 2.18.507 6.206 2.196 8.05 3.97 1.846 1.859 3.187 4.055 3.187 4.816-.335-.17-.838-.423-1.258-.676-1.09-.676-2.264-1.436-3.522-1.267-1.509.253-2.85 2.872-2.599 5.068.168 1.183 1.174 3.97 6.373 3.38 2.935-.339 5.702-2.704 7.38-5.998v-.085c.754.591 1.844.76 2.85.338 1.594-.676 2.6-2.45 2.768-4.73 0-.423.168-.592.503-.677 1.007-.337 2.851.338 3.355.845.754.93.503 1.943-.084 3.633-.587 1.605-1.342 3.97 1.258 5.237.754.338 1.593.338 2.431.085 1.93-.676 3.858-3.126 5.451-6.843.503-1.098 1.006-1.52 1.677-1.52 1.51.169 3.438 2.956 3.774 4.9.168 1.013 0 1.266 0 1.35-.168.254-1.174.17-1.761.085-1.006-.084-2.18-.169-3.187.338-1.341.592-1.928 2.281-1.258 3.717.504 1.267 2.097 2.281 4.613 1.267 1.174-.507 2.096-.675 2.935 0 .167.17.503.676.419 1.267-.168.76-.923 1.437-2.18 1.944-.168-.085-.252-.254-.42-.338-2.515-1.69-4.276-.845-6.457.337l-1.593.845c-1.929.254-4.864-1.858-6.876-5.322zm-14.669 99.44c-1.18-.59-2.108-.758-2.277-3.372v-32.21.085c0-1.602.59-2.698 2.193-3.373.253-.084.168-.506-.169-.421-1.096.168-2.36.168-3.71.168-1.433 0-2.614 0-3.71-.168-.337-.085-.506.337-.169.421 1.603.675 2.193 1.771 2.193 3.373v31.366c0 3.288-.928 3.457-2.277 4.131-.337.169-.337.506.253.506.928-.084 1.855-.084 3.626-.084 1.77 0 2.698 0 3.625.084.76.085.76-.337.422-.506zm26.56-38.027v4.553h-.421c-1.602-4.131-4.89-5.227-8.264-5.143-4.047.168-6.492 3.035-6.745 5.818-.253 3.963 1.94 6.324 8.6 11.298 6.999 5.144 8.432 7.336 8.432 11.889 0 4.216-3.288 10.118-10.792 10.118-3.204 0-7.42-1.18-9.613-1.349v-6.408h.506c.338 3.71 3.036 6.324 9.107 6.324 5.733 0 7.925-4.553 7.757-7.42-.253-3.626-1.602-5.312-7.336-9.697-6.408-4.89-9.19-7.504-9.19-12.9 0-5.481 4.89-8.938 9.275-8.938 4.974.084 6.745 1.349 8.684 1.855zm35.751-1.518c-2.024 0-7.758.169-10.371.169h-6.999c-2.614 0-8.347-.169-10.371-.169-2.023 0-2.445.759-3.12 3.963-.084.506.253.591.422.169.506-.927 1.096-2.024 4.132-2.024h10.033c.338.506.422 1.181.422 1.94v32.209c-.169 2.53-1.096 2.698-2.277 3.288-.337.169-.337.506.253.506 1.012-.084 1.94-.084 3.795-.084s2.782 0 3.794.084c.59.085.674-.253.253-.506-1.349-.674-2.361-.843-2.361-4.131V116.98v.084c0-.759.169-1.433.422-1.939h10.708c3.035 0 3.035 1.096 3.541 2.023.253.422.506.338.422-.168 0-3.036-.675-4.048-2.698-4.048zM59.484 133c0 12.31-9.612 20.742-20.742 20.742C26.432 153.742 18 144.467 18 133c0-12.563 9.275-20.742 20.742-20.742S59.484 120.943 59.484 133zm-21.838-19.477c-9.275 0-16.358 7.673-15.767 19.477.674 10.708 7.925 19.393 17.875 19.393 8.01 0 16.358-7.926 15.767-19.477-.59-11.215-7.757-19.393-17.875-19.393z" fill="#fff"/></svg>