<svg xmlns="http://www.w3.org/2000/svg" width="1398" height="1057" style="shape-rendering:geometricPrecision;text-rendering:geometricPrecision;image-rendering:optimizeQuality;fill-rule:evenodd;clip-rule:evenodd"><path style="opacity:1" fill="#fefefe" d="M-.5-.5h1398v1057H-.5V-.5z"/><path style="opacity:1" fill="#737373" d="m656.5 52.5-6 2h-8c4.419-1.471 9.086-2.138 14-2z"/><path style="opacity:1" fill="#060606" d="M704.5 55.5c5.353.637 10.686 1.47 16 2.5a672.8 672.8 0 0 1 27 8.5c3.564 2.419 7.564 4.086 12 5 .342.838 1.008 1.172 2 1 1.533 1.745 3.533 2.745 6 3 .342.838 1.008 1.172 2 1 .473 1.406 1.473 2.073 3 2 38.794 22.963 70.961 52.963 96.5 90 .749 1.135.583 2.135-.5 3a49.189 49.189 0 0 0-11 7.5c-1 .667-2 .667-3 0-15.945-22.433-34.279-42.6-55-60.5-.473-1.406-1.473-2.073-3-2-15.537-12.608-32.537-22.941-51-31-2.553-2.084-5.553-3.417-9-4a308.721 308.721 0 0 0-32-8.5 120.956 120.956 0 0 0-13-1.5c-6.254-1.554-12.754-2.22-19.5-2-5.012 0-9.845.334-14.5 1-1.068.934-2.401 1.268-4 1a875.374 875.374 0 0 0-24 2.5c-.916.278-1.582.778-2 1.5a171.533 171.533 0 0 0-18 3.5c-.556.383-.889.883-1 1.5-2.928.065-5.595.732-8 2-3.077-.321-5.41.679-7 3h-2c-4.436.914-8.436 2.581-12 5a299.612 299.612 0 0 0-28 12.5 450.656 450.656 0 0 0-29.5 18.5c-4.895-3.873-8.562-8.539-11-14a290.268 290.268 0 0 1 36.5-22c3.221-.396 5.888-1.73 8-4l3-2c3.077.321 5.41-.679 7-3l4-1c2.174-.25 3.841-1.25 5-3l7-2c2.897-.629 5.564-1.629 8-3 1.43-1.037 3.097-1.704 5-2a77.24 77.24 0 0 0 12-2.5c.556-.383.889-.883 1-1.5h2c5.239-.841 10.239-2.174 15-4a253.226 253.226 0 0 1 18-3h8c18.002-.734 36.002-.4 54 1z"/><path style="opacity:1" fill="#2e2e2e" d="M656.5 52.5c11.338-.166 22.672 0 34 .5 4.889.354 9.556 1.187 14 2.5a456.122 456.122 0 0 0-54-1l6-2z"/><path style="opacity:1" fill="#555" d="M624.5 57.5c-4.761 1.826-9.761 3.159-15 4 4.626-2.332 9.626-3.665 15-4z"/><path style="opacity:1" fill="#575757" d="M607.5 61.5c-.111.617-.444 1.117-1 1.5a77.24 77.24 0 0 1-12 2.5c3.997-2.077 8.331-3.41 13-4z"/><path style="opacity:1" fill="#626262" d="M589.5 67.5c-2.436 1.371-5.103 2.371-8 3 2.117-2.154 4.784-3.154 8-3z"/><path style="opacity:1" fill="#2e2e2e" d="M657.5 70.5c4.655-.666 9.488-1 14.5-1 6.746-.22 13.246.446 19.5 2a418.335 418.335 0 0 0-34-1z"/><path style="opacity:1" fill="#989898" d="M747.5 66.5c4.436.914 8.436 2.581 12 5-4.436-.914-8.436-2.581-12-5z"/><path style="opacity:1" fill="#a0a0a0" d="M653.5 71.5c-8.418 2.115-17.084 3.449-26 4 .418-.722 1.084-1.222 2-1.5a875.374 875.374 0 0 1 24-2.5z"/><path style="opacity:1" fill="#686868" d="M574.5 72.5c-1.159 1.75-2.826 2.75-5 3 .986-1.908 2.652-2.908 5-3z"/><path style="opacity:1" fill="#989898" d="M761.5 72.5c2.467.255 4.467 1.255 6 3-2.467-.255-4.467-1.255-6-3z"/><path style="opacity:1" fill="#b7b7b7" d="M627.5 75.5c-5.829 2.71-12.162 4.377-19 5 .111-.617.444-1.117 1-1.5a171.533 171.533 0 0 1 18-3.5z"/><path style="opacity:1" fill="#787878" d="M769.5 76.5c1.527-.073 2.527.594 3 2-1.527.073-2.527-.594-3-2z"/><path style="opacity:1" fill="#575757" d="M565.5 76.5c-1.59 2.321-3.923 3.321-7 3 2.149-1.236 4.482-2.236 7-3z"/><path style="opacity:1" fill="#515151" d="M555.5 81.5c-2.112 2.27-4.779 3.604-8 4 2.112-2.27 4.779-3.604 8-4z"/><path style="opacity:1" fill="#767676" d="M600.5 82.5c-2.149 1.236-4.482 2.236-7 3 1.59-2.321 3.923-3.321 7-3z"/><path style="opacity:1" fill="#7b7b7b" d="M736.5 81.5c3.447.583 6.447 1.916 9 4-3.521-.6-6.521-1.933-9-4z"/><path style="opacity:1" fill="#909090" d="M400.5 86.5a215.705 215.705 0 0 0-49-1c.418-.722 1.084-1.222 2-1.5a361.232 361.232 0 0 1 38 0c3.297.204 6.297 1.037 9 2.5z"/><path style="opacity:1" fill="#050505" d="M400.5 86.5h3c.111.617.444 1.117 1 1.5 3.327.61 6.661 1.11 10 1.5a89.549 89.549 0 0 1 22 6c.111.617.444 1.117 1 1.5 3.046.739 6.046 1.572 9 2.5 1.208.734 2.541 1.067 4 1 3.564 2.419 7.564 4.086 12 5 .473 1.406 1.473 2.073 3 2 4.64 1.984 9.306 3.984 14 6a29.417 29.417 0 0 1-2 7c-2.246 2.149-3.746 4.816-4.5 8-.671.752-1.504 1.086-2.5 1a114.302 114.302 0 0 0-13-6c-1.533-1.745-3.533-2.745-6-3a31.686 31.686 0 0 1-6-2c-2.553-2.084-5.553-3.417-9-4a75.15 75.15 0 0 0-20-6c-.111-.617-.444-1.117-1-1.5a68.243 68.243 0 0 1-13-2.5c-3.345-1.717-7.011-2.384-11-2h-7c-8.824-1.157-17.824-1.324-27-.5-3.297.204-6.297 1.037-9 2.5-1.599-.268-2.932.066-4 1-3.662.223-6.995 1.223-10 3-21.117 9.448-37.117 24.448-48 45-1.745 1.533-2.745 3.533-3 6-.838.342-1.172 1.008-1 2-2.271 2.112-3.604 4.779-4 8-2.084 2.553-3.417 5.553-4 9-.734 1.208-1.067 2.541-1 4-1.897 2.198-2.897 4.864-3 8a65.478 65.478 0 0 0-3 14c-.722.418-1.222 1.084-1.5 2a40.914 40.914 0 0 0-.5 9 59.567 59.567 0 0 0-14-1c-.709-.904-1.709-1.237-3-1v-4a51.662 51.662 0 0 1 2-14c1.779-4.094 3.112-8.427 4-13 2.142-3.3 3.475-6.967 4-11-.067-1.459.266-2.792 1-4 2.218-2.151 3.552-4.818 4-8a5.727 5.727 0 0 1 1-3c1.745-1.533 2.745-3.533 3-6 3.757-8.524 8.757-16.19 15-23 2.087-1.085 3.42-2.751 4-5 9.696-11.987 21.362-21.321 35-28 2.846-.052 5.18-1.052 7-3 7.325-3.082 14.991-5.082 23-6a215.705 215.705 0 0 1 49 1z"/><path style="opacity:1" fill="#676767" d="M403.5 86.5c4.025.13 7.691 1.13 11 3-3.339-.39-6.673-.89-10-1.5-.556-.383-.889-.883-1-1.5z"/><path style="opacity:1" fill="#858585" d="M591.5 85.5c-3.564 2.419-7.564 4.086-12 5 3.564-2.419 7.564-4.086 12-5z"/><path style="opacity:1" fill="#909090" d="M328.5 91.5c-1.82 1.948-4.154 2.948-7 3 2.009-1.565 4.343-2.565 7-3z"/><path style="opacity:1" fill="#6b6b6b" d="M436.5 95.5c3.813.438 7.146 1.771 10 4a140.656 140.656 0 0 0-9-2.5c-.556-.383-.889-.883-1-1.5z"/><path style="opacity:1" fill="#848484" d="M384.5 102.5a208.733 208.733 0 0 0-36 2c2.703-1.463 5.703-2.296 9-2.5 9.176-.824 18.176-.657 27 .5z"/><path style="opacity:1" fill="#444" d="M391.5 102.5c3.989-.384 7.655.283 11 2h-2c-3.329.285-6.329-.382-9-2z"/><path style="opacity:1" fill="#a9a9a9" d="M450.5 100.5c4.436.914 8.436 2.581 12 5-4.436-.914-8.436-2.581-12-5z"/><path style="opacity:1" fill="#b3b3b3" d="M400.5 104.5h2a68.243 68.243 0 0 0 13 2.5c.556.383.889.883 1 1.5a261.678 261.678 0 0 1-13-2c-1.53-.14-2.53-.807-3-2z"/><path style="opacity:1" fill="#8c8c8c" d="M344.5 105.5c-3.005 1.777-6.338 2.777-10 3 3.005-1.777 6.338-2.777 10-3z"/><path style="opacity:1" fill="#757575" d="M462.5 105.5c1.527-.073 2.527.594 3 2-1.527.073-2.527-.594-3-2z"/><path style="opacity:1" fill="#939393" d="M436.5 114.5c3.447.583 6.447 1.916 9 4-3.521-.599-6.521-1.932-9-4z"/><path style="opacity:1" fill="#747474" d="M796.5 116.5c1.527-.073 2.527.594 3 2-1.527.073-2.527-.594-3-2z"/><path style="opacity:1" fill="#737373" d="M451.5 120.5c2.467.255 4.467 1.255 6 3-2.467-.255-4.467-1.255-6-3z"/><path style="opacity:1" fill="#535353" d="M286.5 122.5c-.58 2.249-1.913 3.915-4 5 .58-2.249 1.913-3.915 4-5z"/><path style="opacity:1" fill="#9f9f9f" d="M477.5 120.5a29.749 29.749 0 0 1-3.5 9c-1.292 1.291-2.458 1.291-3.5 0 .996.086 1.829-.248 2.5-1 .754-3.184 2.254-5.851 4.5-8z"/><path style="opacity:1" fill="#6e6e6e" d="M267.5 150.5c-.255 2.467-1.255 4.467-3 6 .255-2.467 1.255-4.467 3-6z"/><path style="opacity:1" fill="#9e9e9e" d="M286.5 153.5c-.255 2.467-1.255 4.467-3 6 .255-2.467 1.255-4.467 3-6z"/><path style="opacity:1" fill="#929292" d="M400.5 164.5a116.033 116.033 0 0 0-26 2c.111-.617.444-1.117 1-1.5 8.462-1.635 16.795-1.801 25-.5z"/><path style="opacity:1" fill="#6f6f6f" d="M263.5 159.5c-.448 3.182-1.782 5.849-4 8 .412-3.302 1.745-5.969 4-8z"/><path style="opacity:1" fill="#070a0a" d="M400.5 164.5c4.814 1.527 9.814 2.527 15 3 2.553 2.084 5.553 3.417 9 4 16.118 8.118 27.784 20.451 35 37 .255 2.467 1.255 4.467 3 6a85.161 85.161 0 0 1 2 14 136.9 136.9 0 0 1-2 28v1c-1.745 1.533-2.745 3.533-3 6-.734 1.208-1.067 2.541-1 4-2.424 2.508-4.09 5.508-5 9-7.475 10.804-17.142 19.137-29 25-3.447.583-6.447 1.916-9 4-1.599-.268-2.932.066-4 1-3.54.253-6.873.919-10 2-31.389 2.305-55.389-9.695-72-36-.255-2.467-1.255-4.467-3-6-.296-1.903-.963-3.57-2-5 .09-2.652-.576-4.985-2-7-1.794-8.522-2.461-17.189-2-26 3.228-26.132 16.561-45.132 40-57 3.447-.583 6.447-1.916 9-4a20.69 20.69 0 0 0 5-1 116.033 116.033 0 0 1 26-2z"/><path style="opacity:1" fill="#9d9d9d" d="M282.5 161.5c-.396 3.221-1.729 5.888-4 8 .396-3.221 1.729-5.888 4-8z"/><path style="opacity:1" fill="#797979" d="M369.5 167.5c-2.553 2.084-5.553 3.417-9 4 2.553-2.084 5.553-3.417 9-4zM415.5 167.5c3.447.583 6.447 1.916 9 4-3.447-.583-6.447-1.916-9-4z"/><path style="opacity:1" fill="#626262" d="M278.5 169.5c-.583 3.447-1.916 6.447-4 9 .583-3.447 1.916-6.447 4-9z"/><path style="opacity:1" fill="#005c68" d="M399.5 177.5c-7.01.168-14.01.501-21 1 6.936-2.063 13.936-2.396 21-1z"/><path style="opacity:1" fill="#646464" d="M258.5 171.5c-.525 4.033-1.858 7.7-4 11 .167-4.173 1.5-7.84 4-11z"/><path style="opacity:1" fill="#00dbf5" d="M399.5 177.5c27.52 4.525 44.853 20.191 52 47 .211 8.7-.123 17.367-1 26-6.795 24.594-22.795 39.428-48 44.5-8.177.823-16.177.656-24-.5-2.436-1.371-5.103-2.371-8-3-18.421-8.085-30.421-21.751-36-41a296.602 296.602 0 0 1-1-25c6.191-24.189 21.191-39.856 45-47 6.99-.499 13.99-.832 21-1z"/><path style="opacity:1" fill="#050505" d="M895.5 185.5a577.233 577.233 0 0 1 42 1h1c.418.722 1.084 1.222 2 1.5 3.652.499 7.318.665 11 .5a289.988 289.988 0 0 1 33 7c.111.617.444 1.117 1 1.5 3.046.739 6.046 1.572 9 2.5l7 2c2.55 2.084 5.55 3.417 9 4 1.53 1.745 3.53 2.745 6 3 19.97 10.814 36.3 25.814 49 45a596.7 596.7 0 0 1 6 14 62.5 62.5 0 0 0-15.5 6c-11.77-22.941-29.27-39.941-52.5-51-.47-1.406-1.47-2.073-3-2a5.727 5.727 0 0 1-3-1c-1.533-1.745-3.533-2.745-6-3a230.068 230.068 0 0 0-25-7c-3.345-1.717-7.011-2.384-11-2-3.767-1.295-7.767-1.961-12-2h-2c-.763-.768-1.763-1.268-3-1.5a535.4 535.4 0 0 0-45-1.5 118.435 118.435 0 0 0-1-16c1.291.237 2.291-.096 3-1z"/><path style="opacity:1" fill="#b3b3b3" d="M891.5 185.5c6.325-.666 12.825-1 19.5-1 9.057-.216 17.89.451 26.5 2a577.233 577.233 0 0 0-42-1h-4z"/><path style="opacity:1" fill="#464646" d="M938.5 186.5c4.51.384 8.843 1.051 13 2a60.931 60.931 0 0 1-11-.5c-.916-.278-1.582-.778-2-1.5z"/><path style="opacity:1" fill="#ababab" d="M254.5 182.5c-.888 4.573-2.221 8.906-4 13 .291-4.879 1.624-9.212 4-13z"/><path style="opacity:1" fill="#525252" d="M273.5 182.5c-.403 2.986-1.403 5.652-3 8 .103-3.136 1.103-5.802 3-8z"/><path style="opacity:1" fill="#5a5a5a" d="M984.5 195.5c3.813.438 7.146 1.771 10 4a140.721 140.721 0 0 0-9-2.5c-.556-.383-.889-.883-1-1.5z"/><path style="opacity:1" fill="#575757" d="M891.5 185.5h4c-.709.904-1.709 1.237-3 1a118.435 118.435 0 0 1 1 16 535.4 535.4 0 0 1 45 1.5c1.237.232 2.237.732 3 1.5a459.36 459.36 0 0 0-49-2 407.946 407.946 0 0 1-1-18z"/><path style="opacity:1" fill="#828282" d="M1001.5 201.5c3.45.583 6.45 1.916 9 4-3.45-.583-6.45-1.916-9-4z"/><path style="opacity:1" fill="#b9b9b9" d="M943.5 205.5c4.233.039 8.233.705 12 2a60.931 60.931 0 0 1-11-.5c-.556-.383-.889-.883-1-1.5z"/><path style="opacity:1" fill="#666" d="M955.5 207.5c3.989-.384 7.655.283 11 2-3.86-.308-7.526-.975-11-2z"/><path style="opacity:1" fill="#8a8a8a" d="M1010.5 205.5c2.47.255 4.47 1.255 6 3-2.47-.255-4.47-1.255-6-3z"/><path style="opacity:1" fill="#666" d="M267.5 204.5c-.308 3.86-.975 7.526-2 11a40.914 40.914 0 0 1 .5-9c.278-.916.778-1.582 1.5-2z"/><path style="opacity:1" fill="#9b9b9b" d="M459.5 208.5c1.745 1.533 2.745 3.533 3 6-1.745-1.533-2.745-3.533-3-6z"/><path style="opacity:1" fill="#838383" d="M248.5 209.5v4c1.291-.237 2.291.096 3 1h-4c-.284-1.915.049-3.581 1-5z"/><path style="opacity:1" fill="#575757" d="M991.5 216.5c2.467.255 4.467 1.255 6 3-2.467-.255-4.467-1.255-6-3z"/><path style="opacity:1" fill="#060606" d="M225.5 219.5h1a148.502 148.502 0 0 1 2 17c-1.88-.271-3.213.396-4 2-5.337.844-10.337 2.511-15 5-3.799.921-7.132 2.588-10 5-12.415 6.08-23.082 14.414-32 25-1.406.473-2.073 1.473-2 3-4.94 5.539-8.606 11.873-11 19-2.49 3.126-3.823 6.792-4 11a21.435 21.435 0 0 0-1 7c-1.387 2.377-2.221 5.043-2.5 8-.819 6.181-.653 12.181.5 18-.377 4.953.289 9.619 2 14a100.595 100.595 0 0 0 3 16c-.09 2.652.576 4.985 2 7 .403 2.986 1.403 5.652 3 8 1.781 3.7 2.781 7.7 3 12-4 .554-7.666 1.887-11 4-1.739.934-3.405.934-5 0-.414-2.419-1.414-4.419-3-6a354.323 354.323 0 0 1-8-29c.09-2.652-.576-4.985-2-7l-1-10a159.29 159.29 0 0 1 0-34 19.22 19.22 0 0 1 1-6c1.424-2.015 2.09-4.348 2-7a66.354 66.354 0 0 1 3.5-13c10.335-21.505 25.502-38.839 45.5-52a113.448 113.448 0 0 1 18-9c3.216.155 5.883-.845 8-3l4-1c4.658-.589 8.991-1.922 13-4z"/><path style="opacity:1" fill="#4e4e4e" d="M225.5 219.5c-4.009 2.078-8.342 3.411-13 4 .111-.617.444-1.117 1-1.5a226.908 226.908 0 0 1 12-2.5z"/><path style="opacity:1" fill="#7c7c7c" d="M1000.5 220.5c1.53-.073 2.53.594 3 2-1.53.073-2.53-.594-3-2z"/><path style="opacity:1" fill="#787878" d="M226.5 219.5c1.511 1.976 2.344 4.309 2.5 7 .499 3.652.665 7.318.5 11a20.69 20.69 0 0 0-5 1c.787-1.604 2.12-2.271 4-2a148.502 148.502 0 0 0-2-17z"/><path style="opacity:1" fill="#606060" d="M208.5 224.5c-2.117 2.155-4.784 3.155-8 3 2.436-1.371 5.103-2.371 8-3z"/><path style="opacity:1" fill="#b4b4b4" d="M464.5 228.5c1.312 2.243 1.978 4.91 2 8a130.373 130.373 0 0 1-1.5 16c-.608 1.566-1.442 2.9-2.5 4a136.9 136.9 0 0 0 2-28z"/><path style="opacity:1" fill="#006b77" d="M451.5 224.5c1.156 7.489 1.322 15.155.5 23-.232 1.237-.732 2.237-1.5 3 .877-8.633 1.211-17.3 1-26z"/><path style="opacity:1" fill="#004b54" d="M333.5 225.5a296.602 296.602 0 0 0 1 25c-.768-.763-1.268-1.763-1.5-3-.822-7.512-.655-14.845.5-22z"/><path style="opacity:1" fill="#a4a4a4" d="M209.5 243.5c-2.664 2.666-5.997 4.332-10 5 2.868-2.412 6.201-4.079 10-5z"/><path style="opacity:1" fill="#c2c2c2" d="M320.5 228.5c-.461 8.811.206 17.478 2 26a81.316 81.316 0 0 1-2.5-3c-.822-7.845-.656-15.511.5-23z"/><path style="opacity:1" fill="#7e7e7e" d="M322.5 254.5c1.424 2.015 2.09 4.348 2 7-1.424-2.015-2.09-4.348-2-7z"/><path style="opacity:1" fill="#6d6d6d" d="M462.5 257.5c-.255 2.467-1.255 4.467-3 6 .255-2.467 1.255-4.467 3-6z"/><path style="opacity:1" fill="#383838" d="M1148.5 268.5v1c-12.03-.249-24.03.084-36 1 .11-.617.44-1.117 1-1.5a125.692 125.692 0 0 1 35-.5z"/><path style="opacity:1" fill="#070707" d="M1148.5 269.5a561.68 561.68 0 0 0 19 3c2.51 2.054 5.51 3.054 9 3 54.16 21.482 96.49 57.149 127 107 2.37 5.019 4.7 10.019 7 15-.07 1.527.59 2.527 2 3 1.04 1.43 1.7 3.097 2 5 .58 3.447 1.92 6.447 4 9a142.139 142.139 0 0 1 8 26 2094.35 2094.35 0 0 0 4 35v18a159.639 159.639 0 0 0-2 18c-1.92 3.663-2.92 7.663-3 12-1.26 8.03-3.59 15.696-7 23-1.75 1.533-2.75 3.533-3 6-13.91 30.96-33.58 57.793-59 80.5a439.745 439.745 0 0 1-50 38.5 191.316 191.316 0 0 1-9.5-13c-.75-1.135-.58-2.135.5-3 32.22-20.392 59.72-45.725 82.5-76a825.8 825.8 0 0 0 14.5-23.5 224.354 224.354 0 0 0 10-24.5c1.09-.12 1.75-.787 2-2a53.638 53.638 0 0 0 2-10c.33-2 .67-4 1-6 1.72-3.345 2.38-7.011 2-11 1.47-6.943 2.14-14.109 2-21.5 0-4.68-.33-9.18-1-13.5a39.75 39.75 0 0 0-1-11c.33-2.728-.34-5.062-2-7-.26-4.624-1.26-8.958-3-13-1.17-7.187-3.5-13.853-7-20-.58-3.447-1.92-6.447-4-9-23.02-46.851-57.68-82.351-104-106.5a79.412 79.412 0 0 0-14-5.5c-1.53-1.745-3.53-2.745-6-3-2.47-.267-4.8-.934-7-2-2.01-1.424-4.35-2.09-7-2-13.66-3.276-27.33-3.61-41-1-4.21.177-7.87 1.51-11 4a19.224 19.224 0 0 0-6.5 3l-1.5-1c-2.88-4.38-5.55-8.88-8-13.5 6.58-5.588 14.25-8.755 23-9.5a370.933 370.933 0 0 1 36-1z"/><path style="opacity:1" fill="#828282" d="M1148.5 269.5v-1a347.94 347.94 0 0 1 17 2.5c.92.278 1.58.778 2 1.5a561.68 561.68 0 0 1-19-3z"/><path style="opacity:1" fill="#8f8f8f" d="M326.5 266.5c1.745 1.533 2.745 3.533 3 6-1.745-1.533-2.745-3.533-3-6z"/><path style="opacity:1" fill="#797979" d="M167.5 273.5c.073 1.527-.594 2.527-2 3-.073-1.527.594-2.527 2-3z"/><path style="opacity:1" fill="#5b5b5b" d="M1167.5 272.5c3.25.554 6.25 1.554 9 3-3.49.054-6.49-.946-9-3z"/><path style="opacity:1" fill="#bababa" d="M458.5 267.5c-.418 3.849-2.085 6.849-5 9 .91-3.492 2.576-6.492 5-9z"/><path style="opacity:1" fill="#0a0a0a" d="M551.5 335.5c.473 1.406 1.473 2.073 3 2a16783.17 16783.17 0 0 0 20 12c.473 1.406 1.473 2.073 3 2a11778.656 11778.656 0 0 0 156 95c.423.765.757 1.598 1 2.5a15.414 15.414 0 0 0-2 4.5 32.523 32.523 0 0 1-4.5 6 4783.395 4783.395 0 0 1-122.5-74c-.473-1.406-1.473-2.073-3-2a474715.227 474715.227 0 0 1-140-85c-1.141-1.921-1.308-3.921-.5-6a14.587 14.587 0 0 0 4-6c2.147-.976 4.314-.809 6.5.5a5343.467 5343.467 0 0 0 79 48.5z"/><path style="opacity:1" fill="#5f5f5f" d="M1157.5 288.5c2.65-.09 4.99.576 7 2-2.65.09-4.99-.576-7-2z"/><path style="opacity:1" fill="#7b7b7b" d="M1116.5 287.5c-3.44 1.704-7.11 3.038-11 4 3.13-2.49 6.79-3.823 11-4z"/><path style="opacity:1" fill="#005a64" d="M370.5 291.5c2.897.629 5.564 1.629 8 3-3.216.155-5.883-.845-8-3z"/><path style="opacity:1" fill="#888" d="M1171.5 292.5c2.47.255 4.47 1.255 6 3-2.47-.255-4.47-1.255-6-3z"/><path style="opacity:1" fill="#636363" d="M154.5 295.5c-.962 3.895-2.296 7.561-4 11 .177-4.208 1.51-7.874 4-11z"/><path style="opacity:1" fill="#7a7a7a" d="M424.5 301.5c-2.553 2.084-5.553 3.417-9 4 2.553-2.084 5.553-3.417 9-4z"/><path style="opacity:1" fill="#5f5f5f" d="M133.5 301.5c.09 2.652-.576 4.985-2 7-.09-2.652.576-4.985 2-7z"/><path style="opacity:1" fill="#a1a1a1" d="M411.5 306.5c-.418.722-1.084 1.222-2 1.5a32.462 32.462 0 0 1-8 .5c3.127-1.081 6.46-1.747 10-2z"/><path style="opacity:1" fill="#525252" d="M149.5 313.5a72.032 72.032 0 0 0-1 11c-.987 4.805-1.321 9.805-1 15-1.153-5.819-1.319-11.819-.5-18 .279-2.957 1.113-5.623 2.5-8z"/><path style="opacity:1" fill="#979797" d="M148.5 324.5a285.394 285.394 0 0 0 1 29c-1.711-4.381-2.377-9.047-2-14-.321-5.195.013-10.195 1-15z"/><path style="opacity:1" fill="#acacac" d="M130.5 314.5a159.29 159.29 0 0 0 0 34c-1.519-6.262-2.186-12.762-2-19.5l.5-13.5c.383-.556.883-.889 1.5-1z"/><path style="opacity:1" fill="#797979" d="M551.5 335.5c1.527-.073 2.527.594 3 2-1.527.073-2.527-.594-3-2z"/><path style="opacity:1" fill="#7b7b7b" d="M574.5 349.5c1.527-.073 2.527.594 3 2-1.527.073-2.527-.594-3-2z"/><path style="opacity:1" fill="#464646" d="M1155.5 356.5c-11-1.333-22-1.333-33 0l3-2a80.503 80.503 0 0 1 20-.5c3.63.149 6.97.982 10 2.5z"/><path style="opacity:1" fill="#848484" d="m1125.5 354.5-3 2h-4c2.01-1.424 4.35-2.09 7-2z"/><path style="opacity:1" fill="#060807" d="M1155.5 356.5c20.41 4.884 35.74 16.55 46 35 .25 2.467 1.25 4.467 3 6 2.86 5.248 4.52 10.915 5 17 1.33 8 1.33 16 0 24-5.36 24.732-19.36 42.732-42 54-3.89.962-7.56 2.296-11 4a158.255 158.255 0 0 1-28 2c-3.13-.2-6.13-.866-9-2-2.01-1.424-4.35-2.09-7-2-14.42-5.733-26.09-15.066-35-28a85.354 85.354 0 0 1-7-15c-.26-2.772-1.26-5.105-3-7-.25-3.54-.92-6.873-2-10-.16-6.702.17-13.369 1-20 .02-2.065.35-4.065 1-6 .62-.111 1.12-.444 1.5-1 .44-2.366.94-4.699 1.5-7 .3-1.903.96-3.57 2-5 1.7-2.066 3.03-4.4 4-7 6.48-11.315 15.48-20.149 27-26.5 4.95-2.308 9.95-4.141 15-5.5h4c11-1.333 22-1.333 33 0z"/><path style="opacity:1" fill="#6c6c6c" d="M131.5 358.5c1.424 2.015 2.09 4.348 2 7-1.424-2.015-2.09-4.348-2-7z"/><path style="opacity:1" fill="#00bb93" d="M1167.5 375.5c-1-.086-1.83.248-2.5 1-2.33-2.471-4.5-2.138-6.5 1 1.68 2.93 1.18 3.93-1.5 3-1.48 1.612-3.32 2.612-5.5 3 .16 1.699-.01 3.366-.5 5-.33-.667-.67-1.333-1-2-.77 1.349-1.94 2.182-3.5 2.5.67.333 1.33.667 2 1-2.18 1.348-3.85 3.182-5 5.5a4.486 4.486 0 0 1-1.5-2c-1.95 2.484-2.62 5.15-2 8a13.892 13.892 0 0 0-4 3c-1.36-.88-2.86-1.214-4.5-1-.21 1.644.12 3.144 1 4.5a79.89 79.89 0 0 0-5.5 6.5c.41-1.725.24-3.392-.5-5-.89.825-1.22 1.825-1 3-3.6.178-3.6 1.178 0 3-4.54 1.041-7.71 3.707-9.5 8-1.18-1.231-2.35-1.231-3.5 0l3 2c-1.15 1.231-2.32 1.231-3.5 0 .57 2.193.24 4.193-1 6-.37-1.41-1.2-2.41-2.5-3-1.27 1.68-2.94 2.847-5 3.5.84 1.011 1.17 2.178 1 3.5-2.44.256-4.77.923-7 2-1.02.502-1.19 1.168-.5 2 .89-1.211 1.73-1.211 2.5 0-.84 2.262-2.18 2.929-4 2-1.2.346-1.2.846 0 1.5a8.43 8.43 0 0 1-4 .5c-.17 1.322.16 2.489 1 3.5-1.5.833-2.67 2-3.5 3.5a7.92 7.92 0 0 1-2-4c-1.37 1.093-1.7 2.426-1 4a12.42 12.42 0 0 1 2.5 4c-.73.587-1.73.587-3 0a36.134 36.134 0 0 1-5-14 105.887 105.887 0 0 1 0-29c1.87-3.417 3.37-7.084 4.5-11 .67-1.333 1.33-1.333 2 0a36.517 36.517 0 0 0 2.5-8c6.23-9.567 14.56-16.567 25-21 2.4.241 4.4-.426 6-2 12.99-2.978 25.99-2.478 39 1.5 2.86 1.26 5.53 2.76 8 4.5z"/><path style="opacity:1" fill="#006853" d="M1120.5 369.5c-1.6 1.574-3.6 2.241-6 2 1.6-1.574 3.6-2.241 6-2z"/><path style="opacity:1" fill="#525252" d="M152.5 369.5c1.424 2.015 2.09 4.348 2 7-1.424-2.015-2.09-4.348-2-7z"/><path style="opacity:1" fill="#00b88b" d="M1167.5 375.5c4.45 2.611 8.78 5.444 13 8.5.75.671 1.09 1.504 1 2.5-2.95 3.328-4.45 7.328-4.5 12-.33.333-.67.667-1 1a7.92 7.92 0 0 0-2-4c-2.88 3.454-4.71 7.454-5.5 12-2.96.659-5.96.992-9 1-.2 1.89.46 3.39 2 4.5a47.967 47.967 0 0 0-5 2.5c-1.29 3.794-3.79 6.461-7.5 8-.26-1.663.24-3.163 1.5-4.5-2-.667-4-.667-6 0 .93.388 1.59 1.055 2 2-.47 1.704-.64 3.538-.5 5.5-.37-1.41-1.2-2.41-2.5-3a124.001 124.001 0 0 1-8 17c-1.32-.17-2.49.163-3.5 1-1.51-1.674-3.34-2.674-5.5-3 .17 1.322-.16 2.489-1 3.5 1.73-.409 3.39-.242 5 .5-2.25 2.237-3.58 4.904-4 8-2.27-.359-4.1.308-5.5 2-.2-1.756-.7-3.422-1.5-5-2.62.576-3.29 1.91-2 4-1.35 1.024-2.02 2.357-2 4-3.84.504-3.84 1.504 0 3-2.88 1.085-4.88 3.085-6 6-.8-1.578-1.3-3.244-1.5-5-.83 1-1.67 2-2.5 3-1.71-1.109-2.38-.442-2 2h3v3c-2.87.597-5.21 1.931-7 4-5.85-4.707-10.52-10.373-14-17 1.27.587 2.27.587 3 0a12.42 12.42 0 0 0-2.5-4c-.7-1.574-.37-2.907 1-4a7.92 7.92 0 0 0 2 4c.83-1.5 2-2.667 3.5-3.5-.84-1.011-1.17-2.178-1-3.5a8.43 8.43 0 0 0 4-.5c-1.2-.654-1.2-1.154 0-1.5 1.82.929 3.16.262 4-2-.77-1.211-1.61-1.211-2.5 0-.69-.832-.52-1.498.5-2a21.014 21.014 0 0 1 7-2c.17-1.322-.16-2.489-1-3.5 2.06-.653 3.73-1.82 5-3.5 1.3.59 2.13 1.59 2.5 3 1.24-1.807 1.57-3.807 1-6 1.18 1.231 2.35 1.231 3.5 0l-3-2c1.15-1.231 2.32-1.231 3.5 0 1.79-4.293 4.96-6.959 9.5-8-3.6-1.822-3.6-2.822 0-3-.22-1.175.11-2.175 1-3 .74 1.608.91 3.275.5 5a79.89 79.89 0 0 1 5.5-6.5c-.88-1.356-1.21-2.856-1-4.5 1.64-.214 3.14.12 4.5 1a13.892 13.892 0 0 1 4-3c-.62-2.85.05-5.516 2-8 .31.808.81 1.475 1.5 2 1.15-2.318 2.82-4.152 5-5.5-.67-.333-1.33-.667-2-1 1.56-.318 2.73-1.151 3.5-2.5.33.667.67 1.333 1 2 .49-1.634.66-3.301.5-5 2.18-.388 4.02-1.388 5.5-3 2.68.93 3.18-.07 1.5-3 2-3.138 4.17-3.471 6.5-1 .67-.752 1.5-1.086 2.5-1z"/><path style="opacity:1" fill="#979797" d="M154.5 376.5c2.155 2.117 3.155 4.784 3 8-1.597-2.348-2.597-5.014-3-8z"/><path style="opacity:1" fill="#767676" d="M602.5 383.5c1.527-.073 2.527.594 3 2-1.527.073-2.527-.594-3-2z"/><path style="opacity:1" fill="#00b686" d="M1181.5 386.5a58.772 58.772 0 0 1 7.5 8 91.732 91.732 0 0 1 6.5 17c-1.63-1.526-2.46-3.526-2.5-6-1.06.246-2.23.246-3.5 0l-4.5 7c-4.14.571-6.8 2.904-8 7-4.34 1.674-7.34 4.674-9 9-5.42 3.231-9.26 7.397-11.5 12.5-1.47.635-2.8 1.469-4 2.5a3.595 3.595 0 0 1-1.5-1c-.93 3.78-2.6 6.447-5 8-.33-1-.67-2-1-3-.95 4.296-3.45 6.963-7.5 8-.05 3.135-1.71 4.802-5 5a4.473 4.473 0 0 0 2 1.5c-3.23 1.355-3.9 3.022-2 5-2.34-.557-4.67-.39-7 .5.33.667.67 1.333 1 2-1.79 1.533-3.79 2.533-6 3v4c-2.83-.131-4.16.869-4 3a17.558 17.558 0 0 1-6-3c-.8.457-1.13 1.124-1 2-3.91-1.588-7.24-3.921-10-7 1.79-2.069 4.13-3.403 7-4v-3h-3c-.38-2.442.29-3.109 2-2 .83-1 1.67-2 2.5-3 .2 1.756.7 3.422 1.5 5 1.12-2.915 3.12-4.915 6-6-3.84-1.496-3.84-2.496 0-3-.02-1.643.65-2.976 2-4-1.29-2.09-.62-3.424 2-4 .8 1.578 1.3 3.244 1.5 5 1.4-1.692 3.23-2.359 5.5-2 .42-3.096 1.75-5.763 4-8-1.61-.742-3.27-.909-5-.5.84-1.011 1.17-2.178 1-3.5 2.16.326 3.99 1.326 5.5 3 1.01-.837 2.18-1.17 3.5-1a124.001 124.001 0 0 0 8-17c1.3.59 2.13 1.59 2.5 3-.14-1.962.03-3.796.5-5.5-.41-.945-1.07-1.612-2-2 2-.667 4-.667 6 0-1.26 1.337-1.76 2.837-1.5 4.5 3.71-1.539 6.21-4.206 7.5-8a47.967 47.967 0 0 1 5-2.5c-1.54-1.11-2.2-2.61-2-4.5 3.04-.008 6.04-.341 9-1 .79-4.546 2.62-8.546 5.5-12a7.92 7.92 0 0 1 2 4c.33-.333.67-.667 1-1 .05-4.672 1.55-8.672 4.5-12z"/><path style="opacity:1" fill="#585858" d="M1076.5 388.5c-.97 2.6-2.3 4.934-4 7 .22-3.046 1.56-5.379 4-7z"/><path style="opacity:1" fill="#009276" d="M1089.5 392.5a36.517 36.517 0 0 1-2.5 8c-.67-1.333-1.33-1.333-2 0-1.13 3.916-2.63 7.583-4.5 11 1.07-7.319 4.07-13.652 9-19z"/><path style="opacity:1" fill="#666" d="M1201.5 391.5c1.75 1.533 2.75 3.533 3 6-1.75-1.533-2.75-3.533-3-6z"/><path style="opacity:1" fill="#7a7a7a" d="M1310.5 397.5c1.41.473 2.07 1.473 2 3-1.41-.473-2.07-1.473-2-3z"/><path style="opacity:1" fill="#bdbdbd" d="M141.5 394.5c1.586 1.581 2.586 3.581 3 6 1.595.934 3.261.934 5 0-1.492 2.422-3.492 3.088-6 2a87.147 87.147 0 0 1-2-8z"/><path style="opacity:1" fill="#00b580" d="M1195.5 411.5a145.75 145.75 0 0 1 1 21v8c-1.24 1.714-1.91 3.714-2 6-1.75 1.533-2.75 3.533-3 6-7.32 14.976-18.98 24.976-35 30-10.82 3.114-21.82 3.781-33 2-3.45-1.47-7.12-2.636-11-3.5-1.19-.698-2.19-1.531-3-2.5-.13-.876.2-1.543 1-2a17.558 17.558 0 0 0 6 3c-.16-2.131 1.17-3.131 4-3v-4c2.21-.467 4.21-1.467 6-3-.33-.667-.67-1.333-1-2 2.33-.89 4.66-1.057 7-.5-1.9-1.978-1.23-3.645 2-5a4.473 4.473 0 0 1-2-1.5c3.29-.198 4.95-1.865 5-5 4.05-1.037 6.55-3.704 7.5-8 .33 1 .67 2 1 3 2.4-1.553 4.07-4.22 5-8 .41.457.91.791 1.5 1a15.576 15.576 0 0 1 4-2.5c2.24-5.103 6.08-9.269 11.5-12.5 1.66-4.326 4.66-7.326 9-9 1.2-4.096 3.86-6.429 8-7l4.5-7c1.27.246 2.44.246 3.5 0 .04 2.474.87 4.474 2.5 6z"/><path style="opacity:1" fill="#595959" d="M1070.5 400.5c-.56 2.301-1.06 4.634-1.5 7-.38.556-.88.889-1.5 1 .56-2.301 1.06-4.634 1.5-7 .38-.556.88-.889 1.5-1z"/><path style="opacity:1" fill="#898989" d="M1314.5 405.5c2.08 2.553 3.42 5.553 4 9-2.08-2.553-3.42-5.553-4-9z"/><path style="opacity:1" fill="#535353" d="m133.5 412.5-6 3c1.304-3.069 3.304-4.069 6-3z"/><path style="opacity:1" fill="#858585" d="M1295.5 407.5c2.08 2.553 3.42 5.553 4 9-2.08-2.553-3.42-5.553-4-9z"/><path style="opacity:1" fill="#070707" d="M133.5 412.5a125.806 125.806 0 0 0 8.5 11c.667 1 .667 2 0 3-12.12 9.949-22.62 21.282-31.5 34-1.406.473-2.073 1.473-2 3-.901.79-1.568 1.79-2 3-1.406.473-2.073 1.473-2 3-1.237 1.465-2.237 3.132-3 5-3.8 5.505-6.8 11.505-9 18-3.13 6.299-5.13 12.966-6 20-1.427 1.648-2.26 3.648-2.5 6a142.963 142.963 0 0 0 0 41c.156 2.691.99 5.024 2.5 7l1.5 9a49.975 49.975 0 0 1 5.5 15c-.073 1.527.594 2.527 2 3 13.871 30.879 35.537 54.879 65 72 .473 1.406 1.473 2.073 3 2 5.118 3.618 10.785 6.285 17 8 1.533 1.745 3.533 2.745 6 3 4.638 2.657 9.638 4.324 15 5 .111.617.444 1.117 1 1.5a77.274 77.274 0 0 0 12 2.5c1.879.841 3.879 1.175 6 1 .111.617.444 1.117 1 1.5 3.67.548 7.337 1.048 11 1.5a237.917 237.917 0 0 0 20 2 230.855 230.855 0 0 0 41 0c7.34-.607 14.673-1.273 22-2l14-2a114.902 114.902 0 0 0 3 9v7c-2.286.095-4.286.762-6 2h-1c-5.277.275-10.277 1.275-15 3h-3a301.272 301.272 0 0 1-58 1h-1c-3.71-1.636-7.71-2.302-12-2l-14-2c-1.792.134-3.458-.199-5-1-2.015-1.424-4.348-2.09-7-2a227.587 227.587 0 0 0-13-3c-40.06-12.556-73.226-35.223-99.5-68a551.976 551.976 0 0 1-16.5-27c-.255-2.467-1.255-4.467-3-6a5.728 5.728 0 0 0-1-3c.073-1.527-.594-2.527-2-3a1707.062 1707.062 0 0 0-4-13c.24-2.398-.426-4.398-2-6a78.418 78.418 0 0 0-2-10 335.394 335.394 0 0 1-2-42v-1c1.157-2.773 1.824-5.773 2-9 8.78-39.565 28.78-72.231 60-98l6-3z"/><path style="opacity:1" fill="#c8c8c8" d="M1209.5 414.5c1.32 3.098 1.99 6.598 2 10.5-.17 3.5-.33 7-.5 10.5-.23 1.237-.73 2.237-1.5 3 1.33-8 1.33-16 0-24z"/><path style="opacity:1" fill="#00725a" d="M1080.5 411.5a105.887 105.887 0 0 0 0 29c-.62-.111-1.12-.444-1.5-1a168.41 168.41 0 0 1 0-26c.28-.916.78-1.582 1.5-2z"/><path style="opacity:1" fill="#b5b5b5" d="M1066.5 414.5a134.888 134.888 0 0 0-1 20c-1.15-5.819-1.32-11.819-.5-18 .28-.916.78-1.582 1.5-2z"/><path style="opacity:1" fill="#00694a" d="M1195.5 411.5c1.72 2.28 2.39 4.947 2 8 .32 4.532-.02 8.866-1 13a145.75 145.75 0 0 0-1-21z"/><path style="opacity:1" fill="#012e20" d="M1197.5 419.5c1.33 7.057 1 14.057-1 21v-8c.98-4.134 1.32-8.468 1-13z"/><path style="opacity:1" fill="#b9b9b9" d="M823.5 430.5c-8.947-2.022-17.947-2.355-27-1 .111-.617.444-1.117 1-1.5a90.455 90.455 0 0 1 19 0c2.691.156 5.024.989 7 2.5z"/><path style="opacity:1" fill="#050808" d="M823.5 430.5h2c1.895 1.741 4.228 2.741 7 3 15.89 5.887 28.556 15.887 38 30a130.653 130.653 0 0 1 9 24 383.735 383.735 0 0 1-1 29 83.415 83.415 0 0 1-3 11 47.1 47.1 0 0 0-5 10 102.387 102.387 0 0 1-21 23 1078.494 1078.494 0 0 1-11 6c-2.754 1.446-5.754 2.446-9 3-3.311.383-6.311 1.383-9 3h-4a398.302 398.302 0 0 1-27-2 35.15 35.15 0 0 1-8-2c-3.049-2.03-6.382-3.697-10-5-10.551-6.215-19.218-14.548-26-25a1087.27 1087.27 0 0 1-7-16c.241-2.398-.426-4.398-2-6v-4c-.211-8.7.123-17.367 1-26v-4c6.926-22.921 21.259-39.254 43-49 2.652.09 4.985-.576 7-2a54.057 54.057 0 0 1 9-2c9.053-1.355 18.053-1.022 27 1z"/><path style="opacity:1" fill="#7b7b7b" d="M787.5 431.5c-2.015 1.424-4.348 2.09-7 2 2.015-1.424 4.348-2.09 7-2z"/><path style="opacity:1" fill="#636363" d="M825.5 430.5c2.772.259 5.105 1.259 7 3-2.772-.259-5.105-1.259-7-3z"/><path style="opacity:1" fill="#006c6a" d="M821.5 443.5h-1a93.878 93.878 0 0 0-27 0c.418-.722 1.084-1.222 2-1.5 8-.667 16-.667 24 0 .916.278 1.582.778 2 1.5z"/><path style="opacity:1" fill="#00cdc9" d="M820.5 443.5c-2.131.814-4.464 1.314-7 1.5 2.4.186 4.734.686 7 1.5-.825.886-1.825 1.219-3 1v4c-3-.333-4.333 1-4 4a54.39 54.39 0 0 0-9 4 1330.986 1330.986 0 0 0-5 10 12.93 12.93 0 0 0-5 .5c-.482 1.008-.648 2.175-.5 3.5-2.909 1.979-5.409 4.313-7.5 7-.886.825-1.219 1.825-1 3a58.37 58.37 0 0 0-9 5 6.846 6.846 0 0 1-1 4 40.04 40.04 0 0 0-6.5 4v4c-.718-.951-1.551-1.117-2.5-.5-2.354 3.351-5.354 6.018-9 8a41.11 41.11 0 0 1-5.5 9.5c-.2-1.82-1.034-3.153-2.5-4a86.692 86.692 0 0 1 0-26c1.371-2.436 2.371-5.103 3-8 5.462-14.463 15.129-25.129 29-32 4.539-.125 8.539-1.458 12-4a93.878 93.878 0 0 1 27 0z"/><path style="opacity:1" fill="#009393" d="M793.5 443.5c-3.461 2.542-7.461 3.875-12 4 3.585-2.306 7.585-3.639 12-4z"/><path style="opacity:1" fill="#005b57" d="M829.5 445.5c2.467.255 4.467 1.255 6 3-2.467-.255-4.467-1.255-6-3z"/><path style="opacity:1" fill="#a9a9a9" d="M1306.5 436.5c1.74 4.042 2.74 8.376 3 13-.72-.418-1.22-1.084-1.5-2a418.65 418.65 0 0 1-1.5-11z"/><path style="opacity:1" fill="#606060" d="M1067.5 444.5c1.74 1.895 2.74 4.228 3 7-1.74-1.895-2.74-4.228-3-7z"/><path style="opacity:1" fill="#8b8b8b" d="M733.5 446.5c2.699 2.547 2.366 4.88-1 7a15.414 15.414 0 0 1 2-4.5 11.123 11.123 0 0 0-1-2.5z"/><path style="opacity:1" fill="#01442f" d="M1194.5 446.5c-.25 2.467-1.25 4.467-3 6 .25-2.467 1.25-4.467 3-6z"/><path style="opacity:1" fill="#00cac0" d="M820.5 443.5h1a35.15 35.15 0 0 1 8 2c1.533 1.745 3.533 2.745 6 3a120.859 120.859 0 0 1 15 11c-.086.996.248 1.829 1 2.5-2.189.677-2.522 1.844-1 3.5-.377 2.324-1.377 2.991-3 2-.504 2.842-2.171 4.175-5 4a8.43 8.43 0 0 1-.5 4 20.532 20.532 0 0 0-4.5 2.5l2 1a31.774 31.774 0 0 1-7 2.5 32.462 32.462 0 0 1-.5 8 8.43 8.43 0 0 1-.5-4c-1.322-.17-2.489.163-3.5 1-3.16 3.409-5.16 7.409-6 12-1.458-1.247-2.958-1.247-4.5 0a14.488 14.488 0 0 0-5 5.5c-3.242.283-3.576 1.117-1 2.5-4.906 1.228-7.573 4.228-8 9a8.43 8.43 0 0 0-4 .5c-1.009 2.172-2.676 3.338-5 3.5v3a8.43 8.43 0 0 0-4 .5l2 1c-1.467 1.098-2.301 2.598-2.5 4.5a4.457 4.457 0 0 0-1.5-2c-.952 1.545-1.285 3.212-1 5-4-.667-5.667 1-5 5-2.292-.256-4.459.077-6.5 1-.36 1.921-1.194 3.588-2.5 5 1.522 1.656 1.189 2.823-1 3.5l1 1c-1.689-.134-3.356-.634-5-1.5-9.415-8.828-15.748-19.495-19-32 1.466.847 2.3 2.18 2.5 4a41.11 41.11 0 0 0 5.5-9.5c3.646-1.982 6.646-4.649 9-8 .949-.617 1.782-.451 2.5.5v-4a40.04 40.04 0 0 1 6.5-4 6.846 6.846 0 0 0 1-4 58.37 58.37 0 0 1 9-5c-.219-1.175.114-2.175 1-3 2.091-2.687 4.591-5.021 7.5-7-.148-1.325.018-2.492.5-3.5a12.93 12.93 0 0 1 5-.5c1.642-3.319 3.309-6.653 5-10a54.39 54.39 0 0 1 9-4c-.333-3 1-4.333 4-4v-4c1.175.219 2.175-.114 3-1a26.724 26.724 0 0 0-7-1.5c2.536-.186 4.869-.686 7-1.5z"/><path style="opacity:1" fill="#383838" d="M1326.5 440.5c2.94 11.35 4.27 23.017 4 35a2094.35 2094.35 0 0 1-4-35z"/><path style="opacity:1" fill="#525252" d="M1309.5 449.5c1.66 1.938 2.33 4.272 2 7-1.42-2.015-2.09-4.348-2-7z"/><path style="opacity:1" fill="#909090" d="M1054.5 469.5c-.43-4.324-.76-8.658-1-13a89.367 89.367 0 0 0-15 1c.76-.768 1.76-1.268 3-1.5 4.32-.499 8.65-.666 13-.5 1.1 4.821 1.1 9.487 0 14z"/><path style="opacity:1" fill="#050505" d="M1054.5 469.5c-9.28.381-18.28 1.715-27 4h-3c-8.65.94-17.31 1.774-26 2.5-1.237.232-2.237.732-3 1.5-10.226.685-20.226 2.018-30 4a251.734 251.734 0 0 0-19 2 461.436 461.436 0 0 0-27 2.5c-1.237.232-2.237.732-3 1.5h-1c-6.712.301-13.378.968-20 2a46.809 46.809 0 0 0-1-13c9.273-.403 18.273-1.736 27-4a41.73 41.73 0 0 1 9-1 188.576 188.576 0 0 0 17-1.5c1.237-.232 2.237-.732 3-1.5a29.23 29.23 0 0 1 9-1 49.369 49.369 0 0 0 11-1c4.29.302 8.29-.364 12-2 6.8-1.255 13.8-1.922 21-2a189.645 189.645 0 0 1 21-2.5c.92-.278 1.58-.778 2-1.5l12-1a89.367 89.367 0 0 1 15-1c.24 4.342.57 8.676 1 13z"/><path style="opacity:1" fill="#616161" d="M1026.5 458.5c-.42.722-1.08 1.222-2 1.5-7.06.444-14.06 1.278-21 2.5.42-.722 1.08-1.222 2-1.5a352.708 352.708 0 0 1 21-2.5z"/><path style="opacity:1" fill="#7e7e7e" d="M110.5 460.5c.073 1.527-.594 2.527-2 3-.073-1.527.594-2.527 2-3z"/><path style="opacity:1" fill="#00c7b8" d="M850.5 459.5c7.783 6.893 12.449 15.56 14 26a12.93 12.93 0 0 1-.5 5c-.29-1.544-.956-2.877-2-4-1.411 2.15-2.245 4.484-2.5 7-1.89-.203-3.39.463-4.5 2l-1-1a21.71 21.71 0 0 1-4 7 3.647 3.647 0 0 0-1.5-1 11.494 11.494 0 0 1-3.5 5l-2-2c-.357 4.603-2.857 7.103-7.5 7.5.837 1.011 1.17 2.178 1 3.5a4.934 4.934 0 0 0-3 .5c-1.032 2.874-3.032 4.374-6 4.5a50.977 50.977 0 0 1-4.5 8c-1.113 1.211-2.28 1.211-3.5 0-1.12 4.074-3.787 6.574-8 7.5.457.414.791.914 1 1.5-1.816 1.618-3.149 3.618-4 6-4.212 2.534-7.712 5.867-10.5 10-1.768-.631-2.935.202-3.5 2.5.405.945 1.072 1.612 2 2-4.07.221-8.07-.279-12-1.5-6.352-1.835-11.685-5.169-16-10 1.644.866 3.311 1.366 5 1.5l-1-1c2.189-.677 2.522-1.844 1-3.5 1.306-1.412 2.14-3.079 2.5-5 2.041-.923 4.208-1.256 6.5-1-.667-4 1-5.667 5-5-.285-1.788.048-3.455 1-5a4.457 4.457 0 0 1 1.5 2c.199-1.902 1.033-3.402 2.5-4.5l-2-1a8.43 8.43 0 0 1 4-.5v-3c2.324-.162 3.991-1.328 5-3.5a8.43 8.43 0 0 1 4-.5c.427-4.772 3.094-7.772 8-9-2.576-1.383-2.242-2.217 1-2.5a14.488 14.488 0 0 1 5-5.5c1.542-1.247 3.042-1.247 4.5 0 .84-4.591 2.84-8.591 6-12 1.011-.837 2.178-1.17 3.5-1a8.43 8.43 0 0 0 .5 4c.497-2.646.664-5.313.5-8a31.774 31.774 0 0 0 7-2.5l-2-1a20.532 20.532 0 0 1 4.5-2.5 8.43 8.43 0 0 0 .5-4c2.829.175 4.496-1.158 5-4 1.623.991 2.623.324 3-2-1.522-1.656-1.189-2.823 1-3.5-.752-.671-1.086-1.504-1-2.5z"/><path style="opacity:1" fill="#464646" d="M982.5 464.5c-3.71 1.636-7.71 2.302-12 2v-1a73.314 73.314 0 0 1 12-1z"/><path style="opacity:1" fill="#8f8f8f" d="M970.5 465.5v1a49.369 49.369 0 0 1-11 1c3.345-1.717 7.011-2.384 11-2z"/><path style="opacity:1" fill="#7d7d7d" d="M106.5 466.5c.073 1.527-.594 2.527-2 3-.073-1.527.594-2.527 2-3z"/><path style="opacity:1" fill="#4b4b4b" d="M950.5 468.5c-.763.768-1.763 1.268-3 1.5a188.576 188.576 0 0 1-17 1.5c6.429-1.656 13.096-2.656 20-3z"/><path style="opacity:1" fill="#939393" d="M1054.5 469.5c-.42.722-1.08 1.222-2 1.5-8.33.976-16.66 1.809-25 2.5 8.72-2.285 17.72-3.619 27-4z"/><path style="opacity:1" fill="#363636" d="M921.5 472.5c-8.727 2.264-17.727 3.597-27 4 1.371-1.287 3.205-1.953 5.5-2 7.153-.874 14.32-1.54 21.5-2z"/><path style="opacity:1" fill="#858585" d="M1024.5 473.5c-9.4 2.323-19.06 3.656-29 4 .763-.768 1.763-1.268 3-1.5 8.69-.726 17.35-1.56 26-2.5z"/><path style="opacity:1" fill="#6c6c6c" d="M1312.5 467.5c.67 4.32 1 8.82 1 13.5.14 7.391-.53 14.557-2 21.5.77-11.65 1.1-23.317 1-35z"/><path style="opacity:1" fill="#a2a2a2" d="M995.5 477.5c-9.74 2.27-19.74 3.604-30 4 9.774-1.982 19.774-3.315 30-4z"/><path style="opacity:1" fill="#005655" d="M752.5 479.5c-.629 2.897-1.629 5.564-3 8-.155-3.216.845-5.883 3-8z"/><path style="opacity:1" fill="#b7b7b7" d="M101.5 474.5c-1.883 6.641-4.883 12.641-9 18 2.2-6.495 5.2-12.495 9-18z"/><path style="opacity:1" fill="#666" d="M946.5 483.5a282.878 282.878 0 0 1-30 4c.763-.768 1.763-1.268 3-1.5a461.436 461.436 0 0 1 27-2.5z"/><path style="opacity:1" fill="#004732" d="M1156.5 482.5c-.11.617-.44 1.117-1 1.5-10.76 3.06-21.43 3.227-32 .5 11.18 1.781 22.18 1.114 33-2z"/><path style="opacity:1" fill="#00c4b1" d="M864.5 485.5h1a283.8 283.8 0 0 1 1 22c.306 2.885-.027 5.552-1 8-1.424 2.015-2.09 4.348-2 7-6.159 14.163-16.159 24.829-30 32-3.649.767-6.982 2.1-10 4-11.702 2.79-23.369 2.623-35-.5-1.82-.2-3.153-1.034-4-2.5a33.933 33.933 0 0 0 12 1.5c-.928-.388-1.595-1.055-2-2 .565-2.298 1.732-3.131 3.5-2.5 2.788-4.133 6.288-7.466 10.5-10 .851-2.382 2.184-4.382 4-6a3.647 3.647 0 0 0-1-1.5c4.213-.926 6.88-3.426 8-7.5 1.22 1.211 2.387 1.211 3.5 0a50.977 50.977 0 0 0 4.5-8c2.968-.126 4.968-1.626 6-4.5a4.934 4.934 0 0 1 3-.5c.17-1.322-.163-2.489-1-3.5 4.643-.397 7.143-2.897 7.5-7.5l2 2a11.494 11.494 0 0 0 3.5-5 3.647 3.647 0 0 1 1.5 1 21.71 21.71 0 0 0 4-7l1 1c1.11-1.537 2.61-2.203 4.5-2 .255-2.516 1.089-4.85 2.5-7 1.044 1.123 1.71 2.456 2 4a12.93 12.93 0 0 0 .5-5z"/><path style="opacity:1" fill="#707070" d="M278.5 491.5a110.685 110.685 0 0 0-34-1c.111-.617.444-1.117 1-1.5a146.092 146.092 0 0 1 31 1c.916.278 1.582.778 2 1.5z"/><path style="opacity:1" fill="#9a9a9a" d="M737.5 482.5v4l-2 3c-.09-2.652.576-4.985 2-7z"/><path style="opacity:1" fill="#a8a8a8" d="M915.5 487.5c-2.071 1.309-4.571 1.975-7.5 2-4.363.582-8.53.582-12.5 0a183.028 183.028 0 0 1 20-2z"/><path style="opacity:1" fill="#070a0a" d="M278.5 491.5c24.045 7.043 40.378 22.376 49 46-.241 2.398.426 4.398 2 6a109.848 109.848 0 0 1 2 25 67.467 67.467 0 0 1-6 22c-1.745 1.533-2.745 3.533-3 6-6.639 11.306-15.639 20.306-27 27-1.527-.073-2.527.594-3 2a100.508 100.508 0 0 1-18 6 128.532 128.532 0 0 1-32 0c-27.083-7.249-44.917-24.249-53.5-51-2.517-10.586-3.017-21.253-1.5-32 2.297-5.026 3.963-10.36 5-16 5.398-13.729 14.398-24.396 27-32 2.348-.092 4.014-1.092 5-3l2-1c3.447-.583 6.447-1.916 9-4a87.925 87.925 0 0 1 9-2 110.685 110.685 0 0 1 34 1z"/><path style="opacity:1" fill="#626262" d="M235.5 492.5c-2.553 2.084-5.553 3.417-9 4 2.553-2.084 5.553-3.417 9-4z"/><path style="opacity:1" fill="#727272" d="M1112.5 494.5c2.65-.09 4.99.576 7 2-2.65.09-4.99-.576-7-2z"/><path style="opacity:1" fill="#969696" d="M1167.5 492.5c-3.13 2.49-6.79 3.823-11 4 3.44-1.704 7.11-3.038 11-4z"/><path style="opacity:1" fill="#404040" d="M737.5 486.5a207.281 207.281 0 0 0-1 26c-.992-7.482-1.325-15.148-1-23l2-3z"/><path style="opacity:1" fill="#00776b" d="M865.5 485.5c1.468 4.242 2.134 8.742 2 13.5-.002 3.021-.336 5.854-1 8.5a283.8 283.8 0 0 0-1-22z"/><path style="opacity:1" fill="#a8a8a8" d="M1156.5 496.5c-1.81 1.697-4.14 2.53-7 2.5-7.18.821-14.18.655-21-.5 9.4.162 18.73-.504 28-2z"/><path style="opacity:1" fill="#5d5d5d" d="M224.5 497.5c-.986 1.908-2.652 2.908-5 3 1.159-1.75 2.826-2.75 5-3z"/><path style="opacity:1" fill="#696969" d="M879.5 487.5c1.157 8.156 1.323 16.49.5 25-.21 1.558-.71 2.891-1.5 4a383.735 383.735 0 0 0 1-29z"/><path style="opacity:1" fill="#007d8b" d="M247.5 502.5c-1.602 1.574-3.602 2.241-6 2 1.602-1.574 3.602-2.241 6-2z"/><path style="opacity:1" fill="#00dbf5" d="M273.5 618.5a221.28 221.28 0 0 1-27 1c-23.552-5.885-38.552-20.551-45-44a180.81 180.81 0 0 1-1-24 20.69 20.69 0 0 1 1-5c1.424-2.015 2.09-4.348 2-7 7.053-17.564 19.72-29.231 38-35 2.398.241 4.398-.426 6-2 25.145-3.118 45.645 5.216 61.5 25 12.39 21.886 12.557 43.886.5 66-9.222 12.282-21.222 20.616-36 25z"/><path style="opacity:1" fill="#585858" d="M1311.5 502.5c.38 3.989-.28 7.655-2 11 .31-3.86.98-7.526 2-11z"/><path style="opacity:1" fill="#b0b0b0" d="M1330.5 493.5c.17 5.676 0 11.343-.5 17-.38.556-.88.889-1.5 1 .34-6.178 1.01-12.178 2-18z"/><path style="opacity:1" fill="#9a9a9a" d="M67.5 513.5c-.176 3.227-.843 6.227-2 9a32.438 32.438 0 0 1 .5-8c.383-.556.883-.889 1.5-1z"/><path style="opacity:1" fill="#004e45" d="M865.5 515.5c.329 2.728-.337 5.062-2 7-.09-2.652.576-4.985 2-7z"/><path style="opacity:1" fill="#606060" d="M1328.5 511.5c-.4 4.261-1.4 8.261-3 12 .08-4.337 1.08-8.337 3-12z"/><path style="opacity:1" fill="#979797" d="M736.5 516.5c1.574 1.602 2.241 3.602 2 6-1.574-1.602-2.241-3.602-2-6z"/><path style="opacity:1" fill="#656565" d="M719.5 523.5h-16v-1a183.38 183.38 0 0 0 11-1c2.14.056 3.806.723 5 2z"/><path style="opacity:1" fill="#b8b8b8" d="M703.5 522.5v1c-12.671.6-25.338 1.267-38 2 1.109-.79 2.442-1.29 4-1.5a745.078 745.078 0 0 1 34-1.5z"/><path style="opacity:1" fill="#050505" d="M703.5 523.5h16v13c-14.192.4-28.192 1.4-42 3h-4a3021.866 3021.866 0 0 0-38 2c-12.897-.032-25.563.968-38 3-6.009.201-12.009.534-18 1a392.09 392.09 0 0 0-35 2c-7.008-.166-14.008 0-21 .5-1.237.232-2.237.732-3 1.5-6.345.153-12.678.486-19 1-14.209.158-28.209 1.158-42 3h-2c-10.529-.03-20.862.637-31 2h-1a245.761 245.761 0 0 0-24 1c-12.565-.009-24.899.991-37 3h-13v-13c6.915.367 13.581-.299 20-2 6.691.046 13.357-.288 20-1 14.549-.084 28.882-1.084 43-3l18-1a668.106 668.106 0 0 0 60-4h1a2619.826 2619.826 0 0 1 35-2 358.462 358.462 0 0 0 25-1c3.413-.017 6.413-.684 9-2h5a777.313 777.313 0 0 1 38-2c6.863-.138 13.53-.804 20-2 6.691.046 13.357-.288 20-1 12.662-.733 25.329-1.4 38-2z"/><path style="opacity:1" fill="#5e5e5e" d="M1308.5 519.5a53.638 53.638 0 0 1-2 10c-.25 1.213-.91 1.88-2 2 .74-4.305 2.07-8.305 4-12z"/><path style="opacity:1" fill="#bebebe" d="M625.5 527.5v1a777.313 777.313 0 0 0-38 2c1.452-.802 3.118-1.302 5-1.5a618.32 618.32 0 0 1 33-1.5z"/><path style="opacity:1" fill="#767676" d="M645.5 526.5c-6.47 1.196-13.137 1.862-20 2v-1a176.147 176.147 0 0 1 20-1z"/><path style="opacity:1" fill="#505050" d="M582.5 530.5c-2.587 1.316-5.587 1.983-9 2-8.324.624-16.657.958-25 1v-1a1018.113 1018.113 0 0 0 34-2z"/><path style="opacity:1" fill="#929292" d="M875.5 527.5c-.544 4.011-2.211 7.344-5 10a47.1 47.1 0 0 1 5-10z"/><path style="opacity:1" fill="#a5a5a5" d="M548.5 532.5v1a2619.826 2619.826 0 0 0-35 2c.418-.722 1.084-1.222 2-1.5a1151.03 1151.03 0 0 1 33-1.5z"/><path style="opacity:1" fill="#bababa" d="M86.5 512.5a188.027 188.027 0 0 0 0 54c-1.51-1.976-2.344-4.309-2.5-7a142.963 142.963 0 0 1 0-41c.24-2.352 1.073-4.352 2.5-6z"/><path style="opacity:1" fill="#515151" d="M65.5 523.5c-.211 14.05.455 28.05 2 42-1.577-4.734-2.41-9.734-2.5-15-.824-9.176-.657-18.176.5-27z"/><path style="opacity:1" fill="#a1a1a1" d="M719.5 536.5c-13.788 1.876-27.788 2.876-42 3 13.808-1.6 27.808-2.6 42-3z"/><path style="opacity:1" fill="#656565" d="M512.5 535.5a668.106 668.106 0 0 1-60 4 799.712 799.712 0 0 1 60-4z"/><path style="opacity:1" fill="#bbb" d="M673.5 539.5c-1.792.809-3.792 1.309-6 1.5-10.672.47-21.339.97-32 1.5v-1a3021.866 3021.866 0 0 1 38-2z"/><path style="opacity:1" fill="#676767" d="M434.5 540.5c-14.118 1.916-28.451 2.916-43 3 14.114-1.938 28.448-2.938 43-3z"/><path style="opacity:1" fill="#00818f" d="M203.5 539.5c.09 2.652-.576 4.985-2 7-.09-2.652.576-4.985 2-7z"/><path style="opacity:1" fill="#5e5e5e" d="M327.5 537.5c1.431 1.28 2.098 2.947 2 5v1c-1.574-1.602-2.241-3.602-2-6z"/><path style="opacity:1" fill="#727272" d="M635.5 541.5v1a799.292 799.292 0 0 1-38 2c12.437-2.032 25.103-3.032 38-3z"/><path style="opacity:1" fill="#656565" d="M192.5 532.5c-1.037 5.64-2.703 10.974-5 16a226.908 226.908 0 0 1 2.5-12c.2-1.82 1.034-3.153 2.5-4z"/><path style="opacity:1" fill="#3f3f3f" d="M371.5 544.5c-6.419 1.701-13.085 2.367-20 2v5h-1v-6a287.942 287.942 0 0 0 21-1z"/><path style="opacity:1" fill="#8e8e8e" d="M579.5 545.5a476.112 476.112 0 0 1-35 3v-1a392.09 392.09 0 0 1 35-2z"/><path style="opacity:1" fill="#3f3f3f" d="M544.5 547.5v1a180.81 180.81 0 0 0-24 1c.763-.768 1.763-1.268 3-1.5 6.992-.5 13.992-.666 21-.5z"/><path style="opacity:1" fill="#848484" d="M501.5 550.5c-13.794 1.804-27.794 2.804-42 3 13.791-1.842 27.791-2.842 42-3z"/><path style="opacity:1" fill="#5f5f5f" d="M1318.5 546.5c-.25 2.467-1.25 4.467-3 6 .25-2.467 1.25-4.467 3-6z"/><path style="opacity:1" fill="#c2c2c2" d="M329.5 542.5c1.697 1.805 2.53 4.139 2.5 7 .82 6.514.653 12.847-.5 19a109.848 109.848 0 0 0-2-25v-1z"/><path style="opacity:1" fill="#939393" d="M457.5 553.5c-10.138 1.363-20.471 2.03-31 2 10.138-1.363 20.471-2.03 31-2z"/><path style="opacity:1" fill="#828282" d="M425.5 555.5a285.332 285.332 0 0 1-24 2v-1a245.761 245.761 0 0 1 24-1z"/><path style="opacity:1" fill="#015248" d="M833.5 554.5c-2.809 2.397-6.142 3.73-10 4 3.018-1.9 6.351-3.233 10-4z"/><path style="opacity:1" fill="#007a83" d="M200.5 551.5a180.81 180.81 0 0 0 1 24c-.722-.418-1.222-1.084-1.5-2-.822-7.512-.655-14.845.5-22z"/><path style="opacity:1" fill="#4a4a4a" d="M401.5 556.5v1l-37 2c12.101-2.009 24.435-3.009 37-3z"/><path style="opacity:1" fill="#8a8a8a" d="M350.5 551.5h1v8h9c-3.125.979-6.458 1.313-10 1v-9z"/><path style="opacity:1" fill="#b3b3b3" d="M849.5 560.5c-2.705 3.693-6.372 5.693-11 6 3.642-1.959 7.309-3.959 11-6z"/><path style="opacity:1" fill="#737373" d="M771.5 563.5c3.618 1.303 6.951 2.97 10 5a110.146 110.146 0 0 1-8-2.5c-1.256-.417-1.923-1.25-2-2.5z"/><path style="opacity:1" fill="#797979" d="M829.5 569.5c-2.508 2.054-5.508 3.054-9 3 2.689-1.617 5.689-2.617 9-3z"/><path style="opacity:1" fill="#3a3a3a" d="M789.5 570.5a398.302 398.302 0 0 0 27 2c-6.487 1.154-13.154 1.321-20 .5-2.691-.156-5.024-.989-7-2.5z"/><path style="opacity:1" fill="#0b0b0b" d="M900.5 640.5c-.58-2.249-1.913-3.915-4-5a5386.585 5386.585 0 0 1-47.5-56 45.689 45.689 0 0 1 8.5-7.5c1-.667 2-.667 3 0a6484.201 6484.201 0 0 0 86.5 98.5c1.289 1.555 1.956 3.221 2 5a47.662 47.662 0 0 0-8.5 7.5c-.667.667-1.333.667-2 0a2914.683 2914.683 0 0 0-38-42.5z"/><path style="opacity:1" fill="#6a6a6a" d="M69.5 575.5c1.574 1.602 2.24 3.602 2 6-1.574-1.602-2.24-3.602-2-6z"/><path style="opacity:1" fill="#797979" d="M93.5 590.5c1.406.473 2.073 1.473 2 3-1.406-.473-2.073-1.473-2-3z"/><path style="opacity:1" fill="#818181" d="M325.5 590.5c-.255 2.467-1.255 4.467-3 6 .255-2.467 1.255-4.467 3-6z"/><path style="opacity:1" fill="#7e7e7e" d="M75.5 594.5c1.406.473 2.073 1.473 2 3-1.406-.473-2.073-1.473-2-3z"/><path style="opacity:1" fill="#7b7b7b" d="M78.5 600.5c1.745 1.533 2.745 3.533 3 6-1.745-1.533-2.745-3.533-3-6z"/><path style="opacity:1" fill="#0094a4" d="M273.5 618.5c-.763.768-1.763 1.268-3 1.5-8.177.823-16.177.656-24-.5a221.28 221.28 0 0 0 27-1z"/><path style="opacity:1" fill="#767676" d="M295.5 623.5c-.473 1.406-1.473 2.073-3 2 .473-1.406 1.473-2.073 3-2z"/><path style="opacity:1" fill="#686868" d="M242.5 631.5a128.532 128.532 0 0 0 32 0c-.763.768-1.763 1.268-3 1.5-9 .667-18 .667-27 0-.916-.278-1.582-.778-2-1.5z"/><path style="opacity:1" fill="#a0a0a0" d="M896.5 635.5c2.087 1.085 3.42 2.751 4 5-2.087-1.085-3.42-2.751-4-5z"/><path style="opacity:1" fill="#7e7e7e" d="M160.5 665.5c1.527-.073 2.527.594 3 2-1.527.073-2.527-.594-3-2z"/><path style="opacity:1" fill="#999" d="M1029.5 668.5a134.59 134.59 0 0 0-31 0c.418-.722 1.084-1.222 2-1.5 8.67-.667 17.33-.667 26 0 1.24.232 2.24.732 3 1.5z"/><path style="opacity:1" fill="#050807" d="M1029.5 668.5c22.32 6.261 39.15 19.594 50.5 40 1.33 4.309 2.49 8.642 3.5 13a335.192 335.192 0 0 1 1 34c-1.42 2.015-2.09 4.348-2 7-5.95 15.944-15.95 28.611-30 38-4.47 2.15-8.8 4.484-13 7h-1a93.793 93.793 0 0 0-12 3c-7.48.992-15.15 1.325-23 1a110.81 110.81 0 0 0-14-4c-20.224-7.409-34.557-21.076-43-41 .054-3.492-.946-6.492-3-9-.253-3.54-.919-6.873-2-10a107.505 107.505 0 0 1 3-30 53.56 53.56 0 0 1 4-9c1.745-1.533 2.745-3.533 3-6 7.521-13.19 18.187-22.856 32-29 2.897-.629 5.564-1.629 8-3 2.099-1.112 4.433-1.779 7-2a134.59 134.59 0 0 1 31 0z"/><path style="opacity:1" fill="#959595" d="M991.5 670.5c-2.436 1.371-5.103 2.371-8 3 2.117-2.155 4.784-3.155 8-3z"/><path style="opacity:1" fill="#080808" d="M1182.5 676.5c.25 2.467 1.25 4.467 3 6a76.975 76.975 0 0 1 5 19c.64 5.196 1.64 10.196 3 15 .07 9.674.41 19.341 1 29a833.714 833.714 0 0 1-2 30c-.67 4.667-1.33 9.333-2 14-1.79 5.087-3.12 10.42-4 16a456.234 456.234 0 0 1-20 50c-2.42 2.508-4.09 5.508-5 9a589.435 589.435 0 0 1-26 38c-2.09 1.085-3.42 2.751-4 5a58.476 58.476 0 0 0-8 10 45.766 45.766 0 0 0-7 9c-2.09 1.085-3.42 2.751-4 5a55.872 55.872 0 0 0-11 14c-2.09 1.085-3.42 2.751-4 5a25.522 25.522 0 0 0-4.5 4c-4.3-2.792-8.46-5.792-12.5-9-1.08-.865-1.25-1.865-.5-3 17.67-22.333 35.33-44.667 53-67a702.031 702.031 0 0 0 24.5-43c1.75-1.533 2.75-3.533 3-6 .67-2.333 1.33-4.667 2-7 2.23-2.854 3.56-6.187 4-10 2.26-6.115 3.92-12.448 5-19 .72-.418 1.22-1.084 1.5-2a130.231 130.231 0 0 0 2.5-18 537.829 537.829 0 0 0 1-44c.06-5.231-.61-10.231-2-15-1.36-5.444-2.69-10.777-4-16 .09-2.652-.58-4.985-2-7-1.7-2.652-2.04-5.485-1-8.5 4.96-1.321 9.46-3.487 13.5-6.5 1.04.744 1.54 1.744 1.5 3z"/><path style="opacity:1" fill="#969696" d="M180.5 675.5c2.467.255 4.467 1.255 6 3-2.467-.255-4.467-1.255-6-3z"/><path style="opacity:1" fill="#005436" d="M1028.5 681.5c-10.41-1.572-20.75-1.238-31 1 1.526-1.63 3.53-2.463 6-2.5 8.57-.945 16.9-.445 25 1.5z"/><path style="opacity:1" fill="#00b073" d="M1028.5 681.5a59.7 59.7 0 0 0 10 4c-2.32.495-4.49.495-6.5 0-1.3 1.207-2.8 1.874-4.5 2-.43 2.666-.93 5.332-1.5 8-2.08-2.65-3.75-2.316-5 1-1.05-1.017-2.22-1.184-3.5-.5 2.76 2.99 1.93 4.823-2.5 5.5a3.947 3.947 0 0 1-2-1c-3.07 3.006-6.24 5.84-9.5 8.5l4 1c-2.65.497-5.31.664-8 .5v3c1.85-.278 3.18.389 4 2-.82 1.611-2.15 2.278-4 2v3a13.116 13.116 0 0 0-7 1c1.006.896 1.006 1.562 0 2a4.457 4.457 0 0 1-1.5-2l-1 7c-1.892 1.117-2.725 2.784-2.5 5a8.43 8.43 0 0 0-4 .5c.958 1.147.625 2.147-1 3a22.981 22.981 0 0 0-5 2c.837 1.011 1.17 2.178 1 3.5a51.569 51.569 0 0 1-7 1v4c-4.675-1.161-7.341.506-8 5 5.063.269 4.897.935-.5 2-1.866-.747-3.533-1.081-5-1a4.934 4.934 0 0 0-.5 3l-2-6c-.205-8.367.129-16.7 1-25a43.817 43.817 0 0 1 2.5-11c8.199-16.191 21.032-26.857 38.5-32 10.25-2.238 20.59-2.572 31-1z"/><path style="opacity:1" fill="#686868" d="M1182.5 676.5c1.75 1.533 2.75 3.533 3 6-1.75-1.533-2.75-3.533-3-6z"/><path style="opacity:1" fill="#00af6d" d="M1038.5 685.5c9.8 3.808 17.47 10.141 23 19-.96-.453-1.79-1.119-2.5-2-.17.333-.33.667-.5 1a39.17 39.17 0 0 0 .5 8c-.67-.667-1.33-1.333-2-2a29.363 29.363 0 0 0-2.5 5 6.853 6.853 0 0 0-4-1v6h-4c.32 3.672-1.35 5.338-5 5-.71 2.374-2.05 4.374-4 6 .32 1.147.98 1.981 2 2.5-2.27.758-4.44.591-6.5-.5v6c-1.02 1.134-1.68.801-2-1-5.01 2.839-8.84 6.839-11.5 12-1.71-1.109-2.38-.442-2 2-3.45-.054-5.62 1.613-6.5 5-.33-.333-.67-.667-1-1a12.795 12.795 0 0 0-3 6c-1.18-1.231-2.35-1.231-3.5 0-1.6 1.679-2.27 3.679-2 6h-3c.117 1.984-.55 3.65-2 5a36.368 36.368 0 0 0-7 4c.985 1.598 1.151 3.265.5 5h-5a8.43 8.43 0 0 0-.5 4 4.934 4.934 0 0 0-3 .5c1.478 1.193 2.812 1.693 4 1.5a44.093 44.093 0 0 0-3 2c-10.088-6.089-17.755-14.422-23-25a18.074 18.074 0 0 1-2-8 4.934 4.934 0 0 1 .5-3c1.467-.081 3.134.253 5 1 5.397-1.065 5.563-1.731.5-2 .659-4.494 3.325-6.161 8-5v-4a51.569 51.569 0 0 0 7-1c.17-1.322-.163-2.489-1-3.5a22.981 22.981 0 0 1 5-2c1.625-.853 1.958-1.853 1-3a8.43 8.43 0 0 1 4-.5c-.225-2.216.608-3.883 2.5-5l1-7a4.457 4.457 0 0 0 1.5 2c1.006-.438 1.006-1.104 0-2a13.116 13.116 0 0 1 7-1v-3c1.85.278 3.18-.389 4-2-.82-1.611-2.15-2.278-4-2v-3c2.69.164 5.35-.003 8-.5l-4-1c3.26-2.66 6.43-5.494 9.5-8.5.56.522 1.23.855 2 1 4.43-.677 5.26-2.51 2.5-5.5 1.28-.684 2.45-.517 3.5.5 1.25-3.316 2.92-3.65 5-1 .57-2.668 1.07-5.334 1.5-8 1.7-.126 3.2-.793 4.5-2 2.01.495 4.18.495 6.5 0z"/><path style="opacity:1" fill="#7e7e7e" d="M201.5 683.5c4.602.842 8.935 2.176 13 4a77.274 77.274 0 0 1-12-2.5c-.556-.383-.889-.883-1-1.5z"/><path style="opacity:1" fill="#6b6b6b" d="M220.5 688.5a188.78 188.78 0 0 1 12 2v1c-3.663-.452-7.33-.952-11-1.5-.556-.383-.889-.883-1-1.5z"/><path style="opacity:1" fill="#5d5d5d" d="m329.5 689.5-14 2v-1c4.783-1.316 9.449-1.649 14-1z"/><path style="opacity:1" fill="#c8c8c8" d="M232.5 691.5v-1c6.011.301 12.011.801 18 1.5.916.278 1.582.778 2 1.5a237.917 237.917 0 0 1-20-2z"/><path style="opacity:1" fill="#c9c9c9" d="M315.5 690.5v1c-7.327.727-14.66 1.393-22 2 .111-.617.444-1.117 1-1.5l21-1.5z"/><path style="opacity:1" fill="#787878" d="M1168.5 688.5c1.42 2.015 2.09 4.348 2 7-1.42-2.015-2.09-4.348-2-7z"/><path style="opacity:1" fill="#bababa" d="M197.5 701.5c4.363.873 8.696 1.873 13 3v1a77.274 77.274 0 0 1-12-2.5c-.556-.383-.889-.883-1-1.5z"/><path style="opacity:1" fill="#6e6e6e" d="M332.5 698.5c.973 2.448 1.306 5.115 1 8a51.569 51.569 0 0 1-7 1c1.714-1.238 3.714-1.905 6-2v-7z"/><path style="opacity:1" fill="#515151" d="M210.5 705.5v-1c2.652-.09 4.985.576 7 2a51.569 51.569 0 0 1-7-1z"/><path style="opacity:1" fill="#a1a1a1" d="M1190.5 701.5c1.19.47 1.86 1.47 2 3a54.917 54.917 0 0 1 1 12c-1.36-4.804-2.36-9.804-3-15z"/><path style="opacity:1" fill="#070707" d="M452.5 770.5c1.159 1.75 2.826 2.75 5 3l7 2c2.508 2.054 5.508 3.054 9 3 1.802.958 3.802 1.625 6 2 2.015 1.424 4.348 2.09 7 2 3.446 1.187 7.113 1.854 11 2 .111.617.444 1.117 1 1.5a66.755 66.755 0 0 0 14 1.5 371.375 371.375 0 0 0 52 0 614.773 614.773 0 0 0 20-2.5c.916-.278 1.582-.778 2-1.5a383.271 383.271 0 0 0 33-10c3.447-.583 6.447-1.916 9-4a224.282 224.282 0 0 1 15-7c4.628-.307 8.295-2.307 11-6 2.407-1.212 4.74-2.712 7-4.5a12.93 12.93 0 0 1 5-.5 606.653 606.653 0 0 0 7 14 125.764 125.764 0 0 1-26 15c-2.467.255-4.467 1.255-6 3-4.124.899-7.791 2.566-11 5h-1c-3.447.583-6.447 1.916-9 4h-1c-5.354.914-10.354 2.581-15 5l-4 1c-5.98.591-11.647 1.925-17 4h-2a783.413 783.413 0 0 0-28 4h-32c-4.067-1.554-8.4-2.22-13-2a155.56 155.56 0 0 1-20-3c-1.602-1.574-3.602-2.241-6-2-4.535-.637-8.868-1.637-13-3-2.436-1.371-5.103-2.371-8-3a20.69 20.69 0 0 1-5-1c-1.533-1.745-3.533-2.745-6-3a5.727 5.727 0 0 1-3-1c-1.533-1.745-3.533-2.745-6-3a229.438 229.438 0 0 1-27-13c-.473-1.406-1.473-2.073-3-2-25.177-14.715-48.011-32.715-68.5-54-.667-.667-.667-1.333 0-2a65.052 65.052 0 0 1 12.5-11c27.487 29.51 59.82 51.843 97 67z"/><path style="opacity:1" fill="#00ad67" d="M1061.5 704.5c1.29.79 2.46 1.79 3.5 3a70.125 70.125 0 0 0 4.5 10c-.09 2.652.58 4.985 2 7 1.33 10 1.33 20 0 30-7.28 24.11-23.28 38.61-48 43.5-7.75.798-15.41.631-23-.5-2.015-1.424-4.348-2.09-7-2a31.297 31.297 0 0 1-11-6 44.093 44.093 0 0 1 3-2c-1.188.193-2.522-.307-4-1.5a4.934 4.934 0 0 1 3-.5 8.43 8.43 0 0 1 .5-4h5c.651-1.735.485-3.402-.5-5a36.368 36.368 0 0 1 7-4c1.45-1.35 2.117-3.016 2-5h3c-.27-2.321.4-4.321 2-6 1.15-1.231 2.32-1.231 3.5 0a12.795 12.795 0 0 1 3-6c.33.333.67.667 1 1 .88-3.387 3.05-5.054 6.5-5-.38-2.442.29-3.109 2-2 2.66-5.161 6.49-9.161 11.5-12 .32 1.801.98 2.134 2 1v-6c2.06 1.091 4.23 1.258 6.5.5-1.02-.519-1.68-1.353-2-2.5 1.95-1.626 3.29-3.626 4-6 3.65.338 5.32-1.328 5-5h4v-6a6.853 6.853 0 0 1 4 1 29.363 29.363 0 0 1 2.5-5c.67.667 1.33 1.333 2 2a39.17 39.17 0 0 1-.5-8c.17-.333.33-.667.5-1 .71.881 1.54 1.547 2.5 2z"/><path style="opacity:1" fill="#515151" d="M951.5 702.5c-.255 2.467-1.255 4.467-3 6 .255-2.467 1.255-4.467 3-6z"/><path style="opacity:1" fill="#b2b2b2" d="M325.5 707.5c-.652 1.225-1.819 1.892-3.5 2a59.734 59.734 0 0 1-11.5 1c4.723-1.725 9.723-2.725 15-3z"/><path style="opacity:1" fill="#9c9c9c" d="m222.5 707.5 14 2v1a171.684 171.684 0 0 1-12-1.5c-.916-.278-1.582-.778-2-1.5z"/><path style="opacity:1" fill="#595959" d="M236.5 710.5v-1c4.29-.302 8.29.364 12 2a73.314 73.314 0 0 1-12-1z"/><path style="opacity:1" fill="#c4c4c4" d="M307.5 710.5c-10.374 2.47-21.041 3.47-32 3l-20-.5c-2.208-.191-4.208-.691-6-1.5a301.272 301.272 0 0 0 58-1z"/><path style="opacity:1" fill="gray" d="M1174.5 711.5c1.39 4.769 2.06 9.769 2 15-1.39-4.769-2.06-9.769-2-15z"/><path style="opacity:1" fill="#00603a" d="M1069.5 717.5c1.42 2.015 2.09 4.348 2 7-1.42-2.015-2.09-4.348-2-7z"/><path style="opacity:1" fill="#afafaf" d="M944.5 717.5a107.505 107.505 0 0 0-3 30c-1.368-9.602-.868-19.268 1.5-29 .383-.556.883-.889 1.5-1z"/><path style="opacity:1" fill="#303030" d="M1083.5 721.5c.72.418 1.22 1.084 1.5 2 2.11 10.849 1.94 21.516-.5 32 .24-11.364-.09-22.698-1-34z"/><path style="opacity:1" fill="#007a4f" d="M956.5 725.5a193.803 193.803 0 0 0-1 25c-.666-3.986-.999-8.153-1-12.5.009-4.557.675-8.724 2-12.5z"/><path style="opacity:1" fill="#015532" d="M1071.5 724.5c.77.763 1.27 1.763 1.5 3 .67 8 .67 16 0 24-.23 1.237-.73 2.237-1.5 3 1.33-10 1.33-20 0-30z"/><path style="opacity:1" fill="#585858" d="M1193.5 716.5c1.5 8.617 2.16 17.451 2 26.5.38 11.107-.62 21.941-3 32.5.85-9.983 1.51-19.983 2-30-.59-9.659-.93-19.326-1-29z"/><path style="opacity:1" fill="#999" d="M705.5 746.5c3.328-1.351 4.661-.017 4 4-.768-.763-1.268-1.763-1.5-3-.671-.752-1.504-1.086-2.5-1z"/><path style="opacity:1" fill="#080808" d="M702.5 746.5h3c.996-.086 1.829.248 2.5 1 .232 1.237.732 2.237 1.5 3v1c.714 4.824 2.38 9.158 5 13l2 7c.255 2.467 1.255 4.467 3 6l11 22c.255 2.467 1.255 4.467 3 6a1400.475 1400.475 0 0 0 25.5 40 1755.503 1755.503 0 0 1 92 132 389.72 389.72 0 0 1 17.5 33c.255 2.47 1.255 4.47 3 6 3.221 5.59 5.555 11.59 7 18v3c-5.586.31-11.086.97-16.5 2-.278-.92-.778-1.58-1.5-2a93.568 93.568 0 0 1-4-11.5c-2.128-1.76-3.461-3.92-4-6.5-.255-2.47-1.255-4.47-3-6a376.451 376.451 0 0 0-12-23 1822.372 1822.372 0 0 0-100-145 995.482 995.482 0 0 0-7-10 1473.378 1473.378 0 0 1-25-45c-.435-2.657-1.435-4.991-3-7-4.893-10.843-8.893-22.176-12-34 4.341-.158 8.341-1.158 12-3z"/><path style="opacity:1" fill="#929292" d="M702.5 746.5c-3.659 1.842-7.659 2.842-12 3 3.659-1.842 7.659-2.842 12-3z"/><path style="opacity:1" fill="#757575" d="M1084.5 755.5c.09 2.652-.58 4.985-2 7-.09-2.652.58-4.985 2-7z"/><path style="opacity:1" fill="#3c3c3c" d="M654.5 756.5c-2.705 3.693-6.372 5.693-11 6 3.642-1.959 7.309-3.959 11-6z"/><path style="opacity:1" fill="#a0a0a0" d="M709.5 751.5c1.086.12 1.753.787 2 2a132.912 132.912 0 0 0 3 11c-2.62-3.842-4.286-8.176-5-13z"/><path style="opacity:1" fill="#5e5e5e" d="M943.5 757.5c2.054 2.508 3.054 5.508 3 9-1.446-2.754-2.446-5.754-3-9z"/><path style="opacity:1" fill="#767676" d="M411.5 770.5c1.527-.073 2.527.594 3 2-1.527.073-2.527-.594-3-2z"/><path style="opacity:1" fill="#8b8b8b" d="M452.5 770.5c2.348.092 4.014 1.092 5 3-2.174-.25-3.841-1.25-5-3z"/><path style="opacity:1" fill="#656565" d="M628.5 769.5c-2.553 2.084-5.553 3.417-9 4 2.553-2.084 5.553-3.417 9-4z"/><path style="opacity:1" fill="#909090" d="M464.5 775.5c3.311.383 6.311 1.383 9 3-3.492.054-6.492-.946-9-3z"/><path style="opacity:1" fill="#696969" d="M716.5 771.5c1.745 1.533 2.745 3.533 3 6-1.745-1.533-2.745-3.533-3-6z"/><path style="opacity:1" fill="#878787" d="M1175.5 770.5a130.231 130.231 0 0 1-2.5 18c-.28.916-.78 1.582-1.5 2 .7-6.914 2.04-13.581 4-20z"/><path style="opacity:1" fill="#7e7e7e" d="M479.5 780.5c2.652-.09 4.985.576 7 2-2.652.09-4.985-.576-7-2z"/><path style="opacity:1" fill="#727272" d="M647.5 780.5c-1.533 1.745-3.533 2.745-6 3 1.533-1.745 3.533-2.745 6-3z"/><path style="opacity:1" fill="#9a9a9a" d="M641.5 783.5c-3.132 2.61-6.799 4.277-11 5 3.209-2.434 6.876-4.101 11-5z"/><path style="opacity:1" fill="#646464" d="M497.5 784.5c5.196.639 10.196 1.639 15 3a66.755 66.755 0 0 1-14-1.5c-.556-.383-.889-.883-1-1.5z"/><path style="opacity:1" fill="#606060" d="M586.5 783.5c-.418.722-1.084 1.222-2 1.5a614.773 614.773 0 0 1-20 2.5c.418-.722 1.084-1.222 2-1.5a206.31 206.31 0 0 0 20-2.5z"/><path style="opacity:1" fill="#5b5b5b" d="M441.5 785.5c2.467.255 4.467 1.255 6 3-2.467-.255-4.467-1.255-6-3z"/><path style="opacity:1" fill="#a0a0a0" d="M702.5 783.5c1.565 2.009 2.565 4.343 3 7-2.334-1.676-3.334-4.009-3-7z"/><path style="opacity:1" fill="#929292" d="M450.5 789.5c2.467.255 4.467 1.255 6 3-2.467-.255-4.467-1.255-6-3z"/><path style="opacity:1" fill="#919191" d="M629.5 788.5c-2.553 2.084-5.553 3.417-9 4 2.553-2.084 5.553-3.417 9-4z"/><path style="opacity:1" fill="#9c9c9c" d="M461.5 793.5c2.897.629 5.564 1.629 8 3-3.216.155-5.883-.845-8-3z"/><path style="opacity:1" fill="#a5a5a5" d="M619.5 792.5c-.12 1.086-.787 1.753-2 2a137.416 137.416 0 0 1-13 3c4.646-2.419 9.646-4.086 15-5z"/><path style="opacity:1" fill="#005b37" d="M993.5 795.5c2.652-.09 4.985.576 7 2-2.652.09-4.985-.576-7-2z"/><path style="opacity:1" fill="#797979" d="M1190.5 789.5c-.28 5.712-1.61 11.045-4 16 .88-5.58 2.21-10.913 4-16z"/><path style="opacity:1" fill="#6f6f6f" d="M482.5 799.5c2.398-.241 4.398.426 6 2-2.398.241-4.398-.426-6-2z"/><path style="opacity:1" fill="#737373" d="M600.5 798.5c-5.327 2.284-10.993 3.618-17 4 5.353-2.075 11.02-3.409 17-4z"/><path style="opacity:1" fill="#acacac" d="M1052.5 800.5c-3.33 4.014-7.66 6.347-13 7 4.2-2.516 8.53-4.85 13-7z"/><path style="opacity:1" fill="#8f8f8f" d="M581.5 802.5c-8.981 2.827-18.314 4.16-28 4a783.413 783.413 0 0 1 28-4z"/><path style="opacity:1" fill="#616161" d="M730.5 799.5c1.745 1.533 2.745 3.533 3 6-1.745-1.533-2.745-3.533-3-6z"/><path style="opacity:1" fill="#727272" d="M508.5 804.5c4.6-.22 8.933.446 13 2-4.6.22-8.933-.446-13-2z"/><path style="opacity:1" fill="#8c8c8c" d="M1038.5 807.5c-.11.617-.44 1.117-1 1.5a46.91 46.91 0 0 1-11 1.5 93.793 93.793 0 0 1 12-3z"/><path style="opacity:1" fill="#838383" d="M989.5 807.5a110.81 110.81 0 0 1 14 4 112.726 112.726 0 0 1-12-2c-1.213-.247-1.88-.914-2-2z"/><path style="opacity:1" fill="#8b8b8b" d="M1166.5 809.5c-.44 3.813-1.77 7.146-4 10 .93-2.954 1.76-5.954 2.5-9 .38-.556.88-.889 1.5-1z"/><path style="opacity:1" fill="#090909" d="M998.5 825.5c2.81.975 5.81 1.642 9 2a466.735 466.735 0 0 1-8 33c-1.972 2.584-2.972 5.584-3 9a78.47 78.47 0 0 0-2 10c-1.149.291-1.816 1.124-2 2.5a29.495 29.495 0 0 0-1 6.5c-3.081 7.322-5.081 14.989-6 23-1.972 2.584-2.972 5.584-3 9-.801 1.542-1.134 3.208-1 5-2.054 2.508-3.054 5.508-3 9a397.352 397.352 0 0 1-3 13c-1.777 3.005-2.777 6.338-3 10a19.22 19.22 0 0 0-1 6c-2.383 3.51-3.717 7.51-4 12a192.098 192.098 0 0 0-7.5 28 3.92 3.92 0 0 1-2 1 481 481 0 0 0-9.5-3c-.891-.76-1.558-1.761-2-3l2-8a193.738 193.738 0 0 0 6-23c1.424-2.015 2.09-4.348 2-7 3.403-9.285 6.07-18.952 8-29 1.972-2.584 2.972-5.584 3-9v-1c1.424-2.015 2.09-4.348 2-7 .989-3.986 1.989-7.986 3-12 1.81-2.645 2.81-5.645 3-9 .302-2.873.969-5.539 2-8 .722-.418 1.222-1.084 1.5-2 .548-3.67 1.048-7.337 1.5-11 1.112-2.099 1.779-4.433 2-7 2.362-2.419 3.362-5.419 3-9 1.046-7.977 3.046-15.644 6-23 1.723-2.28 2.389-4.947 2-8h5z"/><path style="opacity:1" fill="#5a5a5a" d="M1160.5 826.5c-.25 2.467-1.25 4.467-3 6 .25-2.467 1.25-4.467 3-6z"/><path style="opacity:1" fill="#757575" d="M998.5 825.5h-5c.389 3.053-.277 5.72-2 8a70.523 70.523 0 0 1 1.5-9c2.118-1.239 3.951-.905 5.5 1z"/><path style="opacity:1" fill="#b8b8b8" d="M730.5 835.5a995.482 995.482 0 0 1 7 10c-3.776-2.334-6.109-5.667-7-10z"/><path style="opacity:1" fill="#555" d="M985.5 856.5c.362 3.581-.638 6.581-3 9 .554-3.246 1.554-6.246 3-9z"/><path style="opacity:1" fill="#bdbdbd" d="M1166.5 855.5c-.42 3.849-2.08 6.849-5 9 .91-3.492 2.58-6.492 5-9z"/><path style="opacity:1" fill="#8c8c8c" d="M999.5 860.5c-.19 3.355-1.19 6.355-3 9 .028-3.416 1.028-6.416 3-9z"/><path style="opacity:1" fill="#aeaeae" d="M994.5 879.5c.054 3.492-.946 6.492-3 9 .09-2.196.423-4.363 1-6.5.184-1.376.851-2.209 2-2.5z"/><path style="opacity:1" fill="#696969" d="M980.5 872.5c-.452 3.663-.952 7.33-1.5 11-.278.916-.778 1.582-1.5 2 .127-4.651 1.127-8.985 3-13z"/><path style="opacity:1" fill="#686868" d="M975.5 893.5c-.19 3.355-1.19 6.355-3 9 .028-3.416 1.028-6.416 3-9z"/><path style="opacity:1" fill="#949494" d="M1135.5 902.5c-.58 2.249-1.91 3.915-4 5 .58-2.249 1.91-3.915 4-5z"/><path style="opacity:1" fill="#8d8d8d" d="M985.5 911.5c-.19 3.355-1.19 6.355-3 9 .028-3.416 1.028-6.416 3-9z"/><path style="opacity:1" fill="#5b5b5b" d="M969.5 914.5c.09 2.652-.576 4.985-2 7-.09-2.652.576-4.985 2-7z"/><path style="opacity:1" fill="#a8a8a8" d="M1123.5 917.5c-1.19 3.863-3.53 6.863-7 9a45.766 45.766 0 0 1 7-9z"/><path style="opacity:1" fill="#585858" d="M981.5 925.5c-.554 3.246-1.554 6.246-3 9-.054-3.492.946-6.492 3-9zM967.5 922.5c-.028 3.416-1.028 6.416-3 9 .19-3.355 1.19-6.355 3-9z"/><path style="opacity:1" fill="#959595" d="M1116.5 926.5c-.58 2.249-1.91 3.915-4 5 .58-2.249 1.91-3.915 4-5z"/><path style="opacity:1" fill="#a0a0a0" d="M1101.5 945.5c-.58 2.249-1.91 3.915-4 5 .58-2.249 1.91-3.915 4-5z"/><path style="opacity:1" fill="#979797" d="M975.5 947.5c-.223 3.662-1.223 6.995-3 10 .223-3.662 1.223-6.995 3-10z"/><path style="opacity:1" fill="#8e8e8e" d="M956.5 960.5c.09 2.652-.576 4.985-2 7-.09-2.652.576-4.985 2-7z"/><path style="opacity:1" fill="#bababa" d="M971.5 963.5c-.397 4.526-1.73 8.526-4 12 .283-4.49 1.617-8.49 4-12z"/><path style="opacity:1" fill="#aeaeae" d="m948.5 990.5-2 8c.442 1.239 1.109 2.24 2 3h-3a31.284 31.284 0 0 1 1.5-10c.383-.556.883-.889 1.5-1z"/><path style="opacity:1" fill="#777" d="M868.5 1010.5c1.745 1.53 2.745 3.53 3 6-1.745-1.53-2.745-3.53-3-6z"/><path style="opacity:1" fill="#a2a2a2" d="M849.5 1013.5c1.745 1.53 2.745 3.53 3 6-1.745-1.53-2.745-3.53-3-6z"/><path style="opacity:1" fill="#9c9c9c" d="M878.5 1034.5c1.113 1.45 1.28 3.11.5 5a4.942 4.942 0 0 0-2.5-1c-5.335.73-10.668 1.39-16 2v-3c.722.42 1.222 1.08 1.5 2a125.34 125.34 0 0 1 16.5-2v-3z"/></svg>