<svg xmlns="http://www.w3.org/2000/svg" width="1080" viewBox="0 0 810 810" height="1080" version="1.0"><defs><clipPath id="a"><path d="M41.293 41.75h727.5V768.5h-727.5zm0 0"/></clipPath></defs><path fill="#fff" d="M-81-81h972v972H-81z"/><path fill="#fff" d="M-81-81h972v972H-81z"/><g clip-path="url(#a)"><path d="M56.887 41.75h711.437v726.57H41.75V41.75zM738.05 72.02H72.023v666.027h666.028V72.02"/></g><path d="M174.14 708.296c46.993 0 82.071-34.636 82.071-80.75 0-45.886-35.078-80.523-82.07-80.523-47.211 0-82.512 34.855-82.512 80.523 0 45.89 35.3 80.75 82.512 80.75zm0-31.55c-27.577 0-48.534-21.399-48.534-49.2 0-27.797 20.957-48.976 48.535-48.976 27.578 0 48.097 20.96 48.097 48.976 0 28.02-20.52 49.2-48.097 49.2zM389.465 550.331v94.204l-67.73-94.204H291.73v154.434h32.652v-96.41l69.938 96.41h28.019V550.331zM559.121 581.437V550.33h-92.218v154.434h33.316V645.64h53.168v-30.227H500.22v-33.976zm0 0"/></svg>