<svg xmlns="http://www.w3.org/2000/svg" width="1959" height="684" style="shape-rendering:geometricPrecision;text-rendering:geometricPrecision;image-rendering:optimizeQuality;fill-rule:evenodd;clip-rule:evenodd"><path style="opacity:.988" fill="#023772" d="M387.5 96.5a336873.843 336873.843 0 0 0-84 49h-1a336873.843 336873.843 0 0 1-84-49 2099.134 2099.134 0 0 1 84.5-49 7516.515 7516.515 0 0 1 84.5 49z"/><path style="opacity:.982" fill="#84b818" d="M218.5 96.5c27.965 16.318 55.965 32.652 84 49v1l-84 47h-1v-1c-.332-32.171.002-64.171 1-96z"/><path style="opacity:1" fill="#1e9b7b" d="M387.5 96.5v98a2600.178 2600.178 0 0 1-84-49c27.965-16.318 55.965-32.652 84-49z"/><path style="opacity:.988" fill="#023772" d="M217.5 192.5v1a1705.605 1705.605 0 0 1-83 49h-2l-84-48a3481.908 3481.908 0 0 1 85-49c28.017 15.674 56.017 31.341 84 47zM556.5 193.5a5294.99 5294.99 0 0 1-85 50c0-.667-.333-1-1-1l-82-47c0-.667-.333-1-1-1v-1a5304.684 5304.684 0 0 1 85-48c27.99 15.996 55.99 31.996 84 48z"/><path style="opacity:.988" fill="#70973f" d="M302.5 146.5v97h-2a2480.054 2480.054 0 0 0-82-48v-2l84-47z"/><path style="opacity:.988" fill="#27756a" d="M302.5 145.5h1a2600.178 2600.178 0 0 0 84 49c.667 0 1 .333 1 1h-1a5027.122 5027.122 0 0 0-83 48h-2v-98z"/><path style="opacity:1" fill="#1e9b7b" d="M217.5 193.5h1v99h-1a4615.181 4615.181 0 0 0-80-46.5c-1.563-.759-2.563-1.926-3-3.5a1705.605 1705.605 0 0 0 83-49z"/><path style="opacity:.988" fill="#84b818" d="m48.5 194.5 84 48v1a5149.904 5149.904 0 0 0-83 49 2401.508 2401.508 0 0 1-1-98z"/><path style="opacity:1" fill="#84b818" d="M387.5 195.5h1l82 47c-1.975 2.846-4.641 5.013-8 6.5a198638.133 198638.133 0 0 0-75 42.5v-96z"/><path style="opacity:.983" fill="#209b7b" d="M556.5 193.5c1.333 33 1.333 66 0 99a5036.084 5036.084 0 0 0-83-48c-.667 32.164-1.333 64.164-2 96v-97a5294.99 5294.99 0 0 0 85-50z"/><path style="opacity:.979" fill="#023673" d="M1634.5 197.5c50.35-.76 85.19 21.907 104.5 68a66.53 66.53 0 0 1 2.5 11c-18.35.333-36.68 0-55-1-12.66-22.637-32-31.803-58-27.5-29.46 7.825-44.46 27.159-45 58 1.42 36.249 20.09 56.082 56 59.5 21.36-.339 37.03-9.839 47-28.5 18.33-.5 36.66-.667 55-.5-12.83 45.661-42.83 71.494-90 77.5-44.55 3.468-79.39-13.032-104.5-49.5-18.25-34.066-20.25-69.066-6-105 19.45-38.309 50.61-58.976 93.5-62z"/><path style="opacity:.98" fill="#023673" d="M1833.5 197.5c21.72-.91 41.06 5.257 58 18.5 19.34 19.535 25.51 42.702 18.5 69.5-6.66 16.34-16.83 30.174-30.5 41.5a1473.846 1473.846 0 0 0-39 34c25.33.5 50.66.667 76 .5v49h-162c-.17-12.338 0-24.671.5-37 30.8-26.461 61.3-53.295 91.5-80.5 6.09-5.419 10.59-11.919 13.5-19.5 2.24-13.08-2.93-21.58-15.5-25.5-21.18-3.651-33.18 5.182-36 26.5a651.334 651.334 0 0 1-51 1c1.29-40.104 21.29-65.27 60-75.5 5.47-.867 10.81-1.7 16-2.5z"/><path style="opacity:.979" fill="#023673" d="M1342.5 201.5h53c-.47 45.706.03 91.372 1.5 137 3.93 18.264 15.27 27.264 34 27 18.22.233 29.56-8.434 34-26 1.47-45.967 1.97-91.967 1.5-138h53c-.07 46.337-.57 92.671-1.5 139-4.75 38.049-25.58 61.883-62.5 71.5-26.24 5.595-51.24 2.262-75-10-22.02-14.856-34.19-35.689-36.5-62.5-.31-46.004-.81-92.004-1.5-138z"/><path style="opacity:.982" fill="#023673" d="M693.5 242.5c35.932-2.613 64.099 10.72 84.5 40 18.214 34.914 16.214 68.581-6 101-29.483 30.9-64.316 38.733-104.5 23.5-36.166-19.152-52.333-49.318-48.5-90.5 5.736-35.402 25.569-58.902 59.5-70.5a533.731 533.731 0 0 0 15-3.5zm6 49c22.533-.3 35.366 10.7 38.5 33 1.627 15.473-3.873 27.64-16.5 36.5-17.25 7.95-32.084 4.784-44.5-9.5-10.941-20.417-8.108-38.583 8.5-54.5 4.517-2.555 9.184-4.388 14-5.5z"/><path style="opacity:.988" fill="#023673" d="M892.5 242.5c43.197-.642 70.03 20.025 80.5 62 6.403 29.545 1.403 56.878-15 82-18.575 22.693-42.409 31.526-71.5 26.5-12.183-2.852-22.35-9.018-30.5-18.5-.5 29.998-.667 59.998-.5 90h-51v-238h51c-.166 5.344.001 10.677.5 16 10.011-10.752 22.177-17.419 36.5-20zm-8 49c27.835 1.344 40.668 16.01 38.5 44-5.717 22.94-20.217 32.44-43.5 28.5-18.03-7.879-25.863-21.712-23.5-41.5 2.832-16.658 12.332-26.992 28.5-31z"/><path style="opacity:.981" fill="#023673" d="M1063.5 242.5c36.27-3.108 64.44 10.226 84.5 40 9.4 17.84 13.23 36.84 11.5 57h-119c3.06 24.893 17.06 36.393 42 34.5 9.77-1.937 16.77-7.437 21-16.5 17.65-1 35.32-1.333 53-1-8.37 29.868-27.7 48.368-58 55.5-34.31 7.468-64.14-.699-89.5-24.5-21.386-27.372-26.719-57.705-16-91 13.25-31.377 36.75-49.377 70.5-54zm4 40c19.63-2.009 32.3 6.324 38 25a683.419 683.419 0 0 1-64 .5c3.96-13.457 12.62-21.957 26-25.5z"/><path style="opacity:.982" fill="#023673" d="M1259.5 242.5c43.26-2.577 66.42 17.756 69.5 61 .5 35.665.67 71.332.5 107h-52c.17-33.335 0-66.668-.5-100-2.7-13.537-11.04-19.87-25-19-14.57-.402-23.9 6.265-28 20a1719.545 1719.545 0 0 0-1.5 99h-51v-164h51c-.17 5.676 0 11.343.5 17 9.56-11.532 21.73-18.532 36.5-21z"/><path style="opacity:.988" fill="#023772" d="M300.5 243.5h4a5092.647 5092.647 0 0 1 83 48v1a2610.669 2610.669 0 0 0-84 48h-2a5027.122 5027.122 0 0 0-83-48v-2a2473.142 2473.142 0 0 0 82-47z"/><path style="opacity:.988" fill="#70973f" d="M132.5 243.5a1176.919 1176.919 0 0 1 0 97 1698.551 1698.551 0 0 1-83-48 5149.904 5149.904 0 0 1 83-49z"/><path style="opacity:.988" fill="#26756b" d="M132.5 243.5v-1h2c.437 1.574 1.437 2.741 3 3.5a4615.181 4615.181 0 0 1 80 46.5v1a2480.054 2480.054 0 0 0-82 48h-3v-1a1176.919 1176.919 0 0 0 0-97z"/><path style="opacity:.988" fill="#70973f" d="M470.5 242.5c.667 0 1 .333 1 1v97h-1a5050.767 5050.767 0 0 0-83-47v-2c24.945-14.143 49.945-28.309 75-42.5 3.359-1.487 6.025-3.654 8-6.5z"/><path style="opacity:.988" fill="#26756b" d="M556.5 292.5a5150.34 5150.34 0 0 1-83 49h-3v-1h1c.667-31.836 1.333-63.836 2-96a5036.084 5036.084 0 0 1 83 48z"/><path style="opacity:1" fill="#1e9b7b" d="M387.5 292.5v97a1665.763 1665.763 0 0 1-84-49 2610.669 2610.669 0 0 1 84-48z"/><path style="opacity:.983" fill="#84b818" d="M217.5 292.5h1a5027.122 5027.122 0 0 1 83 48c-.453.958-1.119 1.792-2 2.5a478975.246 478975.246 0 0 0-81 46.5h-1v-97z"/><path style="opacity:.988" fill="#023772" d="M132.5 341.5h3l82 47v1a5150.34 5150.34 0 0 0-83 49h-1a2600.718 2600.718 0 0 1-84-49 1698.551 1698.551 0 0 1 83-48z"/><path style="opacity:.988" fill="#70973f" d="M301.5 340.5h1v98h-2a301618.224 301618.224 0 0 0-82-48v-1c26.973-15.488 53.973-30.988 81-46.5.881-.708 1.547-1.542 2-2.5z"/><path style="opacity:.988" fill="#023772" d="M470.5 341.5h3a1698.457 1698.457 0 0 1 83 48 5340.57 5340.57 0 0 1-85 49l-83-48c0-.667-.333-1-1-1v-1a5050.767 5050.767 0 0 0 83-47z"/><path style="opacity:.988" fill="#27756a" d="M302.5 340.5h1a1665.763 1665.763 0 0 0 84 49c.667 0 1 .333 1 1h-1l-83 48h-2v-98z"/><path style="opacity:.988" fill="#84b818" d="M49.5 389.5a2600.718 2600.718 0 0 0 84 49v1a5347.313 5347.313 0 0 0-85 48c-.332-32.838.002-65.504 1-98z"/><path style="opacity:1" fill="#1f9b7b" d="M217.5 389.5h1v97l1 2h-2c.131-.876-.202-1.543-1-2a2465.683 2465.683 0 0 1-82-48 5150.34 5150.34 0 0 1 83-49z"/><path style="opacity:1" fill="#84b818" d="M387.5 390.5h1l83 48v1a2610.669 2610.669 0 0 0-84 48v-97z"/><path style="opacity:.983" fill="#209b7b" d="M556.5 389.5a2401.328 2401.328 0 0 1 1 98 2623.736 2623.736 0 0 1-84-48c-1 32.326-1.333 64.66-1 97h-1v-98a5340.57 5340.57 0 0 0 85-49z"/><path style="opacity:.988" fill="#023772" d="M300.5 438.5h4a5027.122 5027.122 0 0 0 83 48v1l-84 48h-2l-82-47-1-2a2480.054 2480.054 0 0 0 82-48z"/><path style="opacity:.988" fill="#70973f" d="M133.5 439.5v97a3408.195 3408.195 0 0 1-85-49 5347.313 5347.313 0 0 1 85-48z"/><path style="opacity:.988" fill="#26756b" d="M133.5 438.5h1a2465.683 2465.683 0 0 0 82 48c.798.457 1.131 1.124 1 2a2610.669 2610.669 0 0 1-84 48v-98z"/><path style="opacity:.988" fill="#70973f" d="M471.5 439.5v97l-84-48v-1a2610.669 2610.669 0 0 1 84-48z"/><path style="opacity:.988" fill="#26756b" d="M557.5 487.5a5315.861 5315.861 0 0 1-85 49c-.333-32.34 0-64.674 1-97a2623.736 2623.736 0 0 0 84 48z"/><path style="opacity:.982" fill="#84b818" d="M217.5 488.5h2l82 47c-.437 1.574-1.437 2.741-3 3.5a4615.181 4615.181 0 0 0-80 46.5 2352.52 2352.52 0 0 1-1-97z"/><path style="opacity:1" fill="#1e9b7b" d="M387.5 487.5v98a6235.172 6235.172 0 0 0-79-45.5c-2.192-1.067-3.858-2.567-5-4.5l84-48z"/><path style="opacity:.988" fill="#70973f" d="M301.5 535.5h1v99a2600.178 2600.178 0 0 1-84-49 4615.181 4615.181 0 0 1 80-46.5c1.563-.759 2.563-1.926 3-3.5z"/><path style="opacity:.988" fill="#27756a" d="M302.5 535.5h1c1.142 1.933 2.808 3.433 5 4.5a6235.172 6235.172 0 0 1 79 45.5 3408.014 3408.014 0 0 1-85 49v-99z"/></svg>