<?xml version="1.0" encoding="UTF-8"?>
<!DOCTYPE svg PUBLIC "-//W3C//DTD SVG 1.1//EN" "http://www.w3.org/Graphics/SVG/1.1/DTD/svg11.dtd">
<svg xmlns="http://www.w3.org/2000/svg" version="1.1" width="200px" height="200px" style="shape-rendering:geometricPrecision; text-rendering:geometricPrecision; image-rendering:optimizeQuality; fill-rule:evenodd; clip-rule:evenodd" xmlns:xlink="http://www.w3.org/1999/xlink">
<g><path style="opacity:1" fill="#fdfdfe" d="M -0.5,-0.5 C 66.1667,-0.5 132.833,-0.5 199.5,-0.5C 199.5,66.1667 199.5,132.833 199.5,199.5C 132.833,199.5 66.1667,199.5 -0.5,199.5C -0.5,132.833 -0.5,66.1667 -0.5,-0.5 Z"/></g>
<g><path style="opacity:1" fill="#093768" d="M 96.5,5.5 C 98.8568,5.33669 101.19,5.50335 103.5,6C 105.833,9.66667 108.167,13.3333 110.5,17C 113.43,17.6063 116.263,18.4396 119,19.5C 122.833,17 126.667,14.5 130.5,12C 133.617,11.1073 135.951,12.1073 137.5,15C 138.185,29.8718 145.518,35.0385 159.5,30.5C 161.912,30.4062 163.745,31.4062 165,33.5C 165.013,38.2733 164.18,42.94 162.5,47.5C 164.043,50.086 165.709,52.586 167.5,55C 172.402,56.6425 177.402,57.8091 182.5,58.5C 182.472,60.5824 183.139,62.4157 184.5,64C 180.972,68.1901 178.305,72.8567 176.5,78C 176.921,80.1846 177.421,82.3513 178,84.5C 180.906,87.0373 184.073,89.204 187.5,91C 189.703,93.76 190.036,96.76 188.5,100C 184.98,102.198 181.48,104.365 178,106.5C 177.5,109 177,111.5 176.5,114C 178.204,118.052 180.371,121.885 183,125.5C 183.782,128.257 183.282,130.757 181.5,133C 177.731,134.101 173.897,134.934 170,135.5C 166.47,137.367 163.97,140.2 162.5,144C 168.312,159.687 163.312,164.52 147.5,158.5C 144.914,160.043 142.414,161.709 140,163.5C 138.745,168.353 137.578,173.186 136.5,178C 134.863,178.601 133.197,179.101 131.5,179.5C 127.541,177.853 123.875,175.686 120.5,173C 116.998,172.306 113.664,172.806 110.5,174.5C 108.025,178.142 105.358,181.642 102.5,185C 100.098,185.814 97.7649,185.647 95.5,184.5C 93.4682,181.632 91.6349,178.632 90,175.5C 86.5675,173.018 82.7342,172.185 78.5,173C 75.1252,175.686 71.4585,177.853 67.5,179.5C 65.8034,179.101 64.1368,178.601 62.5,178C 61.4661,173.171 60.2994,168.337 59,163.5C 56.589,161.422 53.9223,159.755 51,158.5C 46.4437,159.508 41.9437,160.341 37.5,161C 35.981,159.649 34.6477,158.149 33.5,156.5C 34.3389,152.304 35.3389,148.137 36.5,144C 35.6089,140.892 33.9423,138.225 31.5,136C 26.3767,135.184 21.5433,133.684 17,131.5C 16.0087,129.553 15.6753,127.553 16,125.5C 18.5,121.833 21,118.167 23.5,114.5C 22.8546,111.772 22.0213,109.105 21,106.5C 18.0937,103.963 14.927,101.796 11.5,100C 8.83333,97 8.83333,94 11.5,91C 14.5799,88.7098 17.7466,86.5431 21,84.5C 21.8344,81.8276 22.6677,79.161 23.5,76.5C 20.8333,72.1667 18.1667,67.8333 15.5,63.5C 16.1667,61.8333 16.8333,60.1667 17.5,58.5C 21.6422,57.4228 25.8089,56.4228 30,55.5C 33.6235,53.5983 35.7902,50.5983 36.5,46.5C 35.2725,41.8778 34.7725,37.2111 35,32.5C 36.3287,31.5061 37.662,30.5061 39,29.5C 53.8045,35.5927 61.4712,30.5927 62,14.5C 63.5941,12.7029 65.5941,11.7029 68,11.5C 71.6889,13.2661 75.1889,15.4328 78.5,18C 82.2974,18.5898 85.964,18.0898 89.5,16.5C 92.0938,12.9744 94.4271,9.3077 96.5,5.5 Z"/></g>
<g><path style="opacity:1" fill="#f6f7f8" d="M 95.5,28.5 C 129.932,28.7856 152.765,45.1189 164,77.5C 171.274,113.447 158.774,139.947 126.5,157C 93.9324,168.569 66.7657,161.069 45,134.5C 32.4962,113.987 30.1629,92.3202 38,69.5C 49.7792,45.3695 68.9458,31.7028 95.5,28.5 Z"/></g>
<g><path style="opacity:1" fill="#1b376a" d="M 114.5,38.5 C 120.149,36.941 124.816,38.6077 128.5,43.5C 125.894,44.6517 123.227,44.8184 120.5,44C 118.63,41.9604 116.63,40.1271 114.5,38.5 Z"/></g>
<g><path style="opacity:1" fill="#133769" d="M 131.5,98.5 C 128.754,95.8672 129.421,94.5338 133.5,94.5C 133.719,93.325 133.386,92.325 132.5,91.5C 128.046,95.791 124.713,94.9576 122.5,89C 123.289,87.3745 124.289,85.8745 125.5,84.5C 125,84.1667 124.5,83.8333 124,83.5C 119.434,89.1209 117.267,88.4543 117.5,81.5C 116.675,80.6143 115.675,80.281 114.5,80.5C 114.421,81.9305 114.754,83.2638 115.5,84.5C 111.647,85.5519 108.314,84.5519 105.5,81.5C 106.263,80.2807 107.263,79.2807 108.5,78.5C 108.291,77.914 107.957,77.414 107.5,77C 105.813,77.1927 104.479,78.1927 103.5,80C 99.7604,79.3051 96.0937,77.9717 92.5,76C 91.3966,74.3196 91.7299,72.8196 93.5,71.5C 92.675,70.6143 91.675,70.281 90.5,70.5C 90.8841,72.6648 90.2174,74.3315 88.5,75.5C 81.1914,74.9036 77.5247,70.9036 77.5,63.5C 75.846,67.7835 76.5127,71.6168 79.5,75C 77.3347,76.8974 76.6681,79.064 77.5,81.5C 78.941,80.1349 80.2744,78.6349 81.5,77C 91.8389,77.1735 100.839,80.6735 108.5,87.5C 106.537,89.1828 106.37,90.8495 108,92.5C 109.269,91.0953 109.769,89.4286 109.5,87.5C 119.499,87.6685 124.499,92.5019 124.5,102C 125.483,102.591 126.15,102.257 126.5,101C 125.362,96.9886 126.362,96.4886 129.5,99.5C 129.997,118.647 120.664,126.314 101.5,122.5C 99.9812,121.59 98.3146,120.757 96.5,120C 97.9047,118.731 99.5714,118.231 101.5,118.5C 101.719,117.325 101.386,116.325 100.5,115.5C 95.1478,118.052 89.8145,117.885 84.5,115C 76.8392,114.125 69.1725,113.292 61.5,112.5C 59.8096,110.069 59.643,107.735 61,105.5C 63.9882,106.744 66.1548,105.744 67.5,102.5C 66.675,101.614 65.675,101.281 64.5,101.5C 64.5,102.5 64.5,103.5 64.5,104.5C 62.6916,104.509 61.0249,104.009 59.5,103C 58.4582,101.082 57.2915,99.2487 56,97.5C 54.0155,99.2349 54.3488,100.568 57,101.5C 58.0086,103.025 58.5086,104.692 58.5,106.5C 50.5,107.167 50.5,107.833 58.5,108.5C 58.6633,110.857 58.4966,113.19 58,115.5C 57.0053,116.066 56.172,116.733 55.5,117.5C 52.8127,117.664 50.146,117.497 47.5,117C 44.6928,115.603 44.1928,113.769 46,111.5C 48.5245,114.394 51.3579,115.228 54.5,114C 52.2688,112.853 49.9355,111.853 47.5,111C 45.8446,109.556 45.178,107.722 45.5,105.5C 41.8649,105.656 41.5315,106.822 44.5,109C 43.7471,110.487 42.9138,110.654 42,109.5C 40.4577,104.955 39.6243,100.289 39.5,95.5C 40.8734,95.3433 42.2068,95.51 43.5,96C 44.5734,97.5944 45.5734,99.0944 46.5,100.5C 46.7822,97.9433 46.9489,95.2766 47,92.5C 48.9675,91.2688 48.8008,90.2688 46.5,89.5C 45.5713,90.6888 45.238,92.0222 45.5,93.5C 43.0637,93.683 40.897,93.0163 39,91.5C 38.4572,88.1322 38.6239,84.7989 39.5,81.5C 40.5,81.5 41.5,81.5 42.5,81.5C 42.9528,82.4584 43.6195,83.2917 44.5,84C 47.5131,84.5022 50.5131,85.0022 53.5,85.5C 53.1814,87.7505 53.6814,89.7505 55,91.5C 55.184,88.8815 56.0173,86.3815 57.5,84C 60.4595,81.6704 63.7928,81.0037 67.5,82C 69.5143,84.6775 71.5143,87.3442 73.5,90C 71.7992,93.8093 68.7992,95.476 64.5,95C 63.1667,95.6667 63.1667,96.3333 64.5,97C 67.4284,96.5441 70.4284,96.5441 73.5,97C 74.4317,99.6512 75.7651,99.9845 77.5,98C 73.7998,95.6154 73.6331,93.1154 77,90.5C 82.6707,91.3905 88.1707,92.8905 93.5,95C 92.1667,96 90.8333,97 89.5,98C 90.0253,98.6924 90.6919,99.1924 91.5,99.5C 92.5,97.8333 93.8333,96.5 95.5,95.5C 101.59,98.044 107.59,100.877 113.5,104C 115.79,106.079 117.457,108.579 118.5,111.5C 117.167,107.167 117.167,102.833 118.5,98.5C 117.932,100.435 116.765,101.768 115,102.5C 108.306,98.406 101.139,95.2393 93.5,93C 92.477,90.2258 92.477,87.3925 93.5,84.5C 92.5,84.5 91.5,84.5 90.5,84.5C 90.5,86.5 90.5,88.5 90.5,90.5C 80.4315,91.6656 72.9315,87.9989 68,79.5C 67.2165,76.2397 67.3832,73.0731 68.5,70C 67.9747,69.3076 67.3081,68.8076 66.5,68.5C 65.6816,71.1071 65.1816,73.7737 65,76.5C 59.7977,82.2858 53.631,83.9525 46.5,81.5C 47.6446,80.109 47.6446,78.7757 46.5,77.5C 45.9432,79.3316 44.9432,80.6649 43.5,81.5C 42.264,77.8143 42.4307,74.1476 44,70.5C 49.1667,69 51,70.8333 49.5,76C 50.0253,76.6924 50.6919,77.1924 51.5,77.5C 52.4519,75.9547 52.7852,74.288 52.5,72.5C 54.1667,72.5 55.8333,72.5 57.5,72.5C 57.1159,74.6648 57.7826,76.3315 59.5,77.5C 57.3406,68.9122 60.0073,61.7455 67.5,56C 69.5787,55.1923 71.5787,55.359 73.5,56.5C 72.4104,57.6086 72.4104,58.6086 73.5,59.5C 74.2621,58.3717 74.9288,57.2051 75.5,56C 78.1667,55.3333 80.8333,55.3333 83.5,56C 85.8851,58.9221 85.8851,61.7554 83.5,64.5C 83.8076,65.3081 84.3076,65.9747 85,66.5C 86,64.8333 87,63.1667 88,61.5C 90.6006,64.3042 92.1006,63.9708 92.5,60.5C 90.712,60.7852 89.0453,60.4519 87.5,59.5C 85.4542,56.367 83.7876,53.0337 82.5,49.5C 81.3554,50.7757 81.3554,52.109 82.5,53.5C 77.7991,54.7309 73.1324,54.5642 68.5,53C 66.1522,48.4953 65.4856,48.8286 66.5,54C 60.9985,58.1719 57.9985,63.6719 57.5,70.5C 50.8835,71.7365 49.2169,69.5698 52.5,64C 51.9896,62.1739 51.1562,62.0072 50,63.5C 49.51,64.7932 49.3433,66.1266 49.5,67.5C 48.5,67.5 47.5,67.5 46.5,67.5C 47.6131,62.3782 50.6131,58.7115 55.5,56.5C 55.8333,56.8333 56.1667,57.1667 56.5,57.5C 53.5873,59.901 53.9206,61.2343 57.5,61.5C 57.1949,57.7993 58.8616,55.466 62.5,54.5C 60.8918,53.7579 59.2251,53.5913 57.5,54C 61.8583,48.2613 67.5249,45.2613 74.5,45C 74.9981,46.1581 75.8315,46.9915 77,47.5C 78.2575,47.1501 78.5908,46.4835 78,45.5C 73.5051,43.5857 73.6718,41.7524 78.5,40C 82.5821,38.7069 85.7487,39.8735 88,43.5C 89.2467,46.3286 90.7467,48.9952 92.5,51.5C 91.3112,52.4287 89.9778,52.762 88.5,52.5C 88.281,53.675 88.6143,54.675 89.5,55.5C 90.8333,54.8333 92.1667,54.1667 93.5,53.5C 95.8333,55.1667 97.8333,57.1667 99.5,59.5C 98.5089,60.6652 97.5089,61.8319 96.5,63C 96.8333,63.5 97.1667,64 97.5,64.5C 100.019,60.6484 102.686,60.6484 105.5,64.5C 106.521,63.9984 106.688,63.3317 106,62.5C 103.54,61.0422 101.373,59.2089 99.5,57C 101.221,56.2607 102.887,55.4274 104.5,54.5C 102.269,54.1133 99.9359,53.9466 97.5,54C 95.2567,51.5122 93.2567,48.8456 91.5,46C 92.7144,44.0211 94.3811,42.5211 96.5,41.5C 96,41.1667 95.5,40.8333 95,40.5C 93.3745,41.2887 91.8745,42.2887 90.5,43.5C 89.2404,41.6471 89.2404,39.8138 90.5,38C 98.2128,34.5134 105.546,35.0134 112.5,39.5C 111.167,40.1667 109.833,40.8333 108.5,41.5C 113.46,40.7327 117.127,42.7327 119.5,47.5C 118.516,53.3156 115.516,54.8156 110.5,52C 109,49.8333 107.5,47.6667 106,45.5C 105.666,43.1527 105.833,40.8194 106.5,38.5C 105.5,38.5 104.5,38.5 103.5,38.5C 103.5,40.1667 103.5,41.8333 103.5,43.5C 101.856,43.7135 100.356,43.3802 99,42.5C 98.3076,43.0253 97.8076,43.6919 97.5,44.5C 104.911,45.354 107.911,49.354 106.5,56.5C 106.833,56.8333 107.167,57.1667 107.5,57.5C 108.719,56.7366 109.719,55.7366 110.5,54.5C 111.736,55.2458 113.07,55.5792 114.5,55.5C 115.041,60.449 114.208,65.1156 112,69.5C 109.281,70.4438 106.448,70.7771 103.5,70.5C 103.281,71.675 103.614,72.675 104.5,73.5C 108.674,71.7341 112.008,72.7341 114.5,76.5C 114.833,76 115.167,75.5 115.5,75C 114.833,73.6667 114.167,72.3333 113.5,71C 113.613,69.7202 114.28,68.8869 115.5,68.5C 121.775,69.7215 127.275,72.3882 132,76.5C 132.667,78.5 132.667,80.5 132,82.5C 130.513,83.1552 129.347,84.1552 128.5,85.5C 129,85.8333 129.5,86.1667 130,86.5C 132.645,84.0328 135.478,83.8661 138.5,86C 139.747,87.4579 139.747,88.9579 138.5,90.5C 139.325,91.3857 140.325,91.719 141.5,91.5C 140.895,87.1126 142.229,83.4459 145.5,80.5C 145.167,80.1667 144.833,79.8333 144.5,79.5C 143.162,81.3366 141.662,83.0033 140,84.5C 138.237,84.0245 136.57,83.3578 135,82.5C 134.333,79.8333 134.333,77.1667 135,74.5C 136.509,73.9103 138.009,73.2436 139.5,72.5C 139.167,71.5 138.5,70.8333 137.5,70.5C 135.941,71.4465 134.274,72.1132 132.5,72.5C 127.268,70.6325 122.101,68.6325 117,66.5C 115.594,59.896 116.928,53.896 121,48.5C 124.636,45.7335 128.136,45.9001 131.5,49C 130.101,49.5946 128.768,49.4279 127.5,48.5C 126.167,49.5 126.167,50.5 127.5,51.5C 129.198,50.3192 130.865,50.3192 132.5,51.5C 136.857,56.5908 135.857,59.4242 129.5,60C 127.963,58.8904 127.297,57.3904 127.5,55.5C 124.452,55.494 123.952,56.494 126,58.5C 126.051,61.2766 126.218,63.9433 126.5,66.5C 127.281,65.2713 127.781,63.938 128,62.5C 133.865,61.4376 137.865,63.7709 140,69.5C 141.951,67.8629 141.784,66.3629 139.5,65C 142.989,62.8948 146.156,63.3948 149,66.5C 149.895,68.8045 150.729,71.1378 151.5,73.5C 152.308,71.5767 152.808,69.5767 153,67.5C 153.419,68.6721 154.085,69.6721 155,70.5C 155.899,76.495 156.733,82.495 157.5,88.5C 155.836,91.9932 154.669,95.6598 154,99.5C 151.402,103.355 148.402,104.022 145,101.5C 143.192,103.396 141.025,103.896 138.5,103C 136.063,101.461 133.73,99.9613 131.5,98.5 Z"/></g>
<g><path style="opacity:1" fill="#233c6d" d="M 129.5,43.5 C 130.721,42.5354 132.054,42.702 133.5,44C 136.5,46.3333 139.5,48.6667 142.5,51C 140.953,51.3334 139.62,50.8334 138.5,49.5C 137.614,50.325 137.281,51.325 137.5,52.5C 144.89,54.0597 149.39,58.393 151,65.5C 149.833,64.3333 148.667,63.1667 147.5,62C 143.907,62.0334 140.407,61.8667 137,61.5C 136.316,60.2161 136.483,59.0495 137.5,58C 145.349,58.1362 145.349,56.9696 137.5,54.5C 135.057,50.5888 132.39,46.9221 129.5,43.5 Z"/></g>
<g><path style="opacity:1" fill="#e0e3e8" d="M 42.5,81.5 C 42.8333,81.5 43.1667,81.5 43.5,81.5C 44.9432,80.6649 45.9432,79.3316 46.5,77.5C 47.6446,78.7757 47.6446,80.109 46.5,81.5C 53.631,83.9525 59.7977,82.2858 65,76.5C 65.1816,73.7737 65.6816,71.1071 66.5,68.5C 67.3081,68.8076 67.9747,69.3076 68.5,70C 67.3832,73.0731 67.2165,76.2397 68,79.5C 72.9315,87.9989 80.4315,91.6656 90.5,90.5C 90.5,88.5 90.5,86.5 90.5,84.5C 91.5,84.5 92.5,84.5 93.5,84.5C 92.477,87.3925 92.477,90.2258 93.5,93C 101.139,95.2393 108.306,98.406 115,102.5C 116.765,101.768 117.932,100.435 118.5,98.5C 117.167,102.833 117.167,107.167 118.5,111.5C 117.457,108.579 115.79,106.079 113.5,104C 107.59,100.877 101.59,98.044 95.5,95.5C 93.8333,96.5 92.5,97.8333 91.5,99.5C 90.6919,99.1924 90.0253,98.6924 89.5,98C 90.8333,97 92.1667,96 93.5,95C 88.1707,92.8905 82.6707,91.3905 77,90.5C 73.6331,93.1154 73.7998,95.6154 77.5,98C 75.7651,99.9845 74.4317,99.6512 73.5,97C 70.4284,96.5441 67.4284,96.5441 64.5,97C 63.1667,96.3333 63.1667,95.6667 64.5,95C 68.7992,95.476 71.7992,93.8093 73.5,90C 71.5143,87.3442 69.5143,84.6775 67.5,82C 63.7928,81.0037 60.4595,81.6704 57.5,84C 56.0173,86.3815 55.184,88.8815 55,91.5C 53.6814,89.7505 53.1814,87.7505 53.5,85.5C 50.5131,85.0022 47.5131,84.5022 44.5,84C 43.6195,83.2917 42.9528,82.4584 42.5,81.5 Z"/></g>
<g><path style="opacity:1" fill="#e2e5e9" d="M 131.5,98.5 C 130.833,98.8333 130.167,99.1667 129.5,99.5C 126.362,96.4886 125.362,96.9886 126.5,101C 126.15,102.257 125.483,102.591 124.5,102C 124.499,92.5019 119.499,87.6685 109.5,87.5C 109.769,89.4286 109.269,91.0953 108,92.5C 106.37,90.8495 106.537,89.1828 108.5,87.5C 100.839,80.6735 91.8389,77.1735 81.5,77C 80.2744,78.6349 78.941,80.1349 77.5,81.5C 76.6681,79.064 77.3347,76.8974 79.5,75C 76.5127,71.6168 75.846,67.7835 77.5,63.5C 77.5247,70.9036 81.1914,74.9036 88.5,75.5C 90.2174,74.3315 90.8841,72.6648 90.5,70.5C 91.675,70.281 92.675,70.6143 93.5,71.5C 91.7299,72.8196 91.3966,74.3196 92.5,76C 96.0937,77.9717 99.7604,79.3051 103.5,80C 104.479,78.1927 105.813,77.1927 107.5,77C 107.957,77.414 108.291,77.914 108.5,78.5C 107.263,79.2807 106.263,80.2807 105.5,81.5C 108.314,84.5519 111.647,85.5519 115.5,84.5C 114.754,83.2638 114.421,81.9305 114.5,80.5C 115.675,80.281 116.675,80.6143 117.5,81.5C 117.267,88.4543 119.434,89.1209 124,83.5C 124.5,83.8333 125,84.1667 125.5,84.5C 124.289,85.8745 123.289,87.3745 122.5,89C 124.713,94.9576 128.046,95.791 132.5,91.5C 133.386,92.325 133.719,93.325 133.5,94.5C 129.421,94.5338 128.754,95.8672 131.5,98.5 Z"/></g>
<g><path style="opacity:1" fill="#d3d7de" d="M 150.5,83.5 C 153.548,83.494 154.048,84.494 152,86.5C 151.586,86.0426 151.086,85.7093 150.5,85.5C 148.647,89.8869 146.313,93.8869 143.5,97.5C 142.417,96.635 142.251,95.635 143,94.5C 145.961,91.0434 148.461,87.3767 150.5,83.5 Z"/></g>
<g><path style="opacity:1" fill="#dadee3" d="M 81.5,98.5 C 82.7697,101.155 84.7697,103.322 87.5,105C 91.0274,106.176 94.5274,107.342 98,108.5C 98.5946,107.101 98.4279,105.768 97.5,104.5C 98.5,103.167 99.5,103.167 100.5,104.5C 99.3554,105.891 99.3554,107.224 100.5,108.5C 103.498,110.668 106.831,111.668 110.5,111.5C 110.5,110.5 110.5,109.5 110.5,108.5C 111.5,108.5 112.5,108.5 113.5,108.5C 112.821,110.668 111.821,112.668 110.5,114.5C 112.44,117.196 111.773,118.529 108.5,118.5C 108.657,117.127 108.49,115.793 108,114.5C 103.234,111.515 98.0675,109.515 92.5,108.5C 90.5534,109.277 88.7201,110.277 87,111.5C 85.2326,109.836 85.7326,108.669 88.5,108C 85.5974,105.016 82.5974,104.85 79.5,107.5C 78.6143,106.675 78.281,105.675 78.5,104.5C 82.5111,104.165 83.5111,102.165 81.5,98.5 Z"/></g>
<g><path style="opacity:1" fill="#dde0e5" d="M 101.5,122.5 C 100.508,122.328 99.8417,122.662 99.5,123.5C 93.3061,123.342 87.6395,125.009 82.5,128.5C 83.1667,129.167 83.8333,129.833 84.5,130.5C 84.1667,130.833 83.8333,131.167 83.5,131.5C 79.7293,129.324 75.7293,128.991 71.5,130.5C 72.8146,131.895 72.4812,132.895 70.5,133.5C 69.3554,132.224 69.3554,130.891 70.5,129.5C 69.7366,128.281 68.7366,127.281 67.5,126.5C 67.8076,125.692 68.3076,125.025 69,124.5C 69.8993,126.327 71.2326,127.66 73,128.5C 80.6813,127.384 87.848,124.884 94.5,121C 93.737,120.056 92.737,119.556 91.5,119.5C 87.1799,121.238 82.8466,121.904 78.5,121.5C 82.0594,120.858 85.3927,119.691 88.5,118C 80.6373,114.63 73.1373,115.13 66,119.5C 65.5,119.167 65,118.833 64.5,118.5C 66.5,117.667 68.5,116.833 70.5,116C 65.9113,115.473 61.578,116.307 57.5,118.5C 57.1583,117.662 56.4916,117.328 55.5,117.5C 56.172,116.733 57.0053,116.066 58,115.5C 58.4966,113.19 58.6633,110.857 58.5,108.5C 50.5,107.833 50.5,107.167 58.5,106.5C 58.5086,104.692 58.0086,103.025 57,101.5C 54.3488,100.568 54.0155,99.2349 56,97.5C 57.2915,99.2487 58.4582,101.082 59.5,103C 61.0249,104.009 62.6916,104.509 64.5,104.5C 64.5,103.5 64.5,102.5 64.5,101.5C 65.675,101.281 66.675,101.614 67.5,102.5C 66.1548,105.744 63.9882,106.744 61,105.5C 59.643,107.735 59.8096,110.069 61.5,112.5C 69.1725,113.292 76.8392,114.125 84.5,115C 89.8145,117.885 95.1478,118.052 100.5,115.5C 101.386,116.325 101.719,117.325 101.5,118.5C 99.5714,118.231 97.9047,118.731 96.5,120C 98.3146,120.757 99.9812,121.59 101.5,122.5 Z"/></g>
<g><path style="opacity:1" fill="#1f396c" d="M 99.5,123.5 C 99.9175,124.222 100.584,124.722 101.5,125C 101.167,125.333 100.833,125.667 100.5,126C 86.8236,126.834 86.4903,127.834 99.5,129C 93.9011,132.308 87.9011,134.141 81.5,134.5C 81.281,135.675 81.6143,136.675 82.5,137.5C 84.8109,136.503 87.1443,136.003 89.5,136C 88.0002,139.358 85.3335,141.191 81.5,141.5C 83.0064,142.747 84.5064,142.747 86,141.5C 86.5074,142.996 86.0074,144.163 84.5,145C 82.4233,145.192 80.4233,145.692 78.5,146.5C 80.1183,148.836 81.9517,148.836 84,146.5C 84.1111,151.589 81.7778,153.256 77,151.5C 76.7111,147.599 77.2111,143.766 78.5,140C 77.7113,138.374 76.7113,136.874 75.5,135.5C 76.6888,134.571 78.0222,134.238 79.5,134.5C 79.5,133.5 79.5,132.5 79.5,131.5C 77.567,131.729 75.9003,132.562 74.5,134C 69.816,135.102 65.4826,134.436 61.5,132C 63.2205,131.261 64.8872,130.427 66.5,129.5C 66,129.167 65.5,128.833 65,128.5C 61.5136,130.938 58.3469,130.771 55.5,128C 56.9423,127.623 57.9423,126.79 58.5,125.5C 53.5,126.5 51.5,124.5 52.5,119.5C 54.2915,119.634 55.9582,119.301 57.5,118.5C 61.578,116.307 65.9113,115.473 70.5,116C 68.5,116.833 66.5,117.667 64.5,118.5C 65,118.833 65.5,119.167 66,119.5C 73.1373,115.13 80.6373,114.63 88.5,118C 85.3927,119.691 82.0594,120.858 78.5,121.5C 82.8466,121.904 87.1799,121.238 91.5,119.5C 92.737,119.556 93.737,120.056 94.5,121C 87.848,124.884 80.6813,127.384 73,128.5C 71.2326,127.66 69.8993,126.327 69,124.5C 68.3076,125.025 67.8076,125.692 67.5,126.5C 68.7366,127.281 69.7366,128.281 70.5,129.5C 69.3554,130.891 69.3554,132.224 70.5,133.5C 72.4812,132.895 72.8146,131.895 71.5,130.5C 75.7293,128.991 79.7293,129.324 83.5,131.5C 83.8333,131.167 84.1667,130.833 84.5,130.5C 83.8333,129.833 83.1667,129.167 82.5,128.5C 87.6395,125.009 93.3061,123.342 99.5,123.5 Z"/></g>
<g><path style="opacity:1" fill="#d8dbe2" d="M 58.5,125.5 C 58.9528,124.542 59.6195,123.708 60.5,123C 59.0267,122.29 58.3601,121.124 58.5,119.5C 60.5922,119.561 62.0922,120.561 63,122.5C 65.7405,121.718 68.5738,121.218 71.5,121C 72.9733,120.29 73.6399,119.124 73.5,117.5C 74.675,117.281 75.675,117.614 76.5,118.5C 75.1667,120.5 75.1667,122.5 76.5,124.5C 76,124.833 75.5,125.167 75,125.5C 73.1564,124.422 71.1564,123.755 69,123.5C 65.4279,123.859 61.9279,124.526 58.5,125.5 Z"/></g>
</svg>
