<svg xmlns="http://www.w3.org/2000/svg" width="200" height="200" style="shape-rendering:geometricPrecision;text-rendering:geometricPrecision;image-rendering:optimizeQuality;fill-rule:evenodd;clip-rule:evenodd"><path style="opacity:1" fill="#f1f2f4" d="M-.5-.5h200v200H-.5V-.5z"/><path style="opacity:1" fill="#4d5158" d="M53.5 57.5c11.283-1.518 20.783 1.816 28.5 10 2.61 5.762 3.61 11.762 3 18-3.098 5.819-7.098 6.486-12 2 .56-9.906-3.94-15.906-13.5-18-5.858.364-9.358 3.364-10.5 9l-1 29c-2.161 3.624-5.328 4.791-9.5 3.5a11.529 11.529 0 0 1-3.5-4.5c-.667-10-.667-20 0-30 3.053-9.55 9.22-15.884 18.5-19z"/><path style="opacity:1" fill="#4d525a" d="M127.5 57.5c16.057-2.405 26.557 3.929 31.5 19 .667 10 .667 20 0 30-3.181 5.752-7.181 6.419-12 2a269.65 269.65 0 0 1-2-31c-6.226-9.717-13.226-10.384-21-2a34.784 34.784 0 0 0-2 10c-3.203 5.636-7.203 6.302-12 2-1.959-6.23-1.293-12.23 2-18l5.5-7.5c3.315-1.83 6.649-3.33 10-4.5z"/><path style="opacity:1" fill="#4b5057" d="M75.5 105.5c2.357-.163 4.69.003 7 .5a6.977 6.977 0 0 1 2.5 3.5c-.36 11.699 5.14 16.866 16.5 15.5a15.83 15.83 0 0 0 5.5-3.5 311.256 311.256 0 0 1 4.5-14.5c7.764-3.253 11.431-.586 11 8-.847 7.36-3.847 13.694-9 19-8.347 3.355-17.014 4.355-26 3-13.448-7.203-17.448-17.703-12-31.5z"/></svg>