<?xml version="1.0" encoding="UTF-8"?>
<!DOCTYPE svg PUBLIC "-//W3C//DTD SVG 1.1//EN" "http://www.w3.org/Graphics/SVG/1.1/DTD/svg11.dtd">
<svg xmlns="http://www.w3.org/2000/svg" version="1.1" width="200px" height="200px" style="shape-rendering:geometricPrecision; text-rendering:geometricPrecision; image-rendering:optimizeQuality; fill-rule:evenodd; clip-rule:evenodd" xmlns:xlink="http://www.w3.org/1999/xlink">
<g><path style="opacity:1" fill="#fefefe" d="M -0.5,-0.5 C 66.1667,-0.5 132.833,-0.5 199.5,-0.5C 199.5,66.1667 199.5,132.833 199.5,199.5C 132.833,199.5 66.1667,199.5 -0.5,199.5C -0.5,132.833 -0.5,66.1667 -0.5,-0.5 Z"/></g>
<g><path style="opacity:1" fill="#eb6043" d="M 115.5,58.5 C 114.833,59.5 114.167,60.5 113.5,61.5C 112.833,61.8333 112.167,62.1667 111.5,62.5C 89.052,65.0562 66.7187,68.3895 44.5,72.5C 42.0971,72.448 39.7638,72.7814 37.5,73.5C 36.8333,73.5 36.1667,73.5 35.5,73.5C 34.596,72.791 34.2627,71.791 34.5,70.5C 61.2815,65.9834 88.2815,61.9834 115.5,58.5 Z"/></g>
<g><path style="opacity:1" fill="#6b5e58" d="M 115.5,58.5 C 116.5,58.5 117.5,58.5 118.5,58.5C 118.737,59.791 118.404,60.791 117.5,61.5C 116.167,61.5 114.833,61.5 113.5,61.5C 114.167,60.5 114.833,59.5 115.5,58.5 Z"/></g>
<g><path style="opacity:1" fill="#fefbfb" d="M 111.5,62.5 C 104.5,71.8333 97.5,81.1667 90.5,90.5C 90.1667,90.5 89.8333,90.5 89.5,90.5C 74.3873,84.7768 59.3873,78.7768 44.5,72.5C 66.7187,68.3895 89.052,65.0562 111.5,62.5 Z"/></g>
<g><path style="opacity:1" fill="#63bcdf" d="M 113.5,61.5 C 114.833,61.5 116.167,61.5 117.5,61.5C 116.89,62.391 116.557,63.391 116.5,64.5C 108.458,73.206 100.792,82.206 93.5,91.5C 92.391,91.4431 91.391,91.1098 90.5,90.5C 97.5,81.1667 104.5,71.8333 111.5,62.5C 112.167,62.1667 112.833,61.8333 113.5,61.5 Z"/></g>
<g><path style="opacity:1" fill="#d7d7d4" d="M 116.5,64.5 C 111.878,74.4169 107.211,84.4169 102.5,94.5C 108.569,98.1747 114.569,101.841 120.5,105.5C 118.139,105.326 115.806,104.993 113.5,104.5C 104.988,102.064 96.3211,100.398 87.5,99.5C 87.5,99.1667 87.5,98.8333 87.5,98.5C 90.3915,97.5975 93.3915,97.2641 96.5,97.5C 98.1667,97.5 99.8333,97.5 101.5,97.5C 101.5,96.5 101.5,95.5 101.5,94.5C 98.5568,94.0198 95.8902,93.0198 93.5,91.5C 100.792,82.206 108.458,73.206 116.5,64.5 Z"/></g>
<g><path style="opacity:1" fill="#cacbc8" d="M 34.5,70.5 C 34.2627,71.791 34.596,72.791 35.5,73.5C 30.8333,77.1667 26.1667,80.8333 21.5,84.5C 20.8333,84.5 20.1667,84.5 19.5,84.5C 18.391,84.4431 17.391,84.1098 16.5,83.5C 22.4622,79.1788 28.4622,74.8454 34.5,70.5 Z"/></g>
<g><path style="opacity:1" fill="#dba4d5" d="M 44.5,72.5 C 59.3873,78.7768 74.3873,84.7768 89.5,90.5C 89.0269,91.9063 88.0269,92.573 86.5,92.5C 84.7085,92.634 83.0418,92.3007 81.5,91.5C 66.7078,85.6836 52.0411,79.6836 37.5,73.5C 39.7638,72.7814 42.0971,72.448 44.5,72.5 Z"/></g>
<g><path style="opacity:1" fill="#fcfcfd" d="M 35.5,73.5 C 36.1667,73.5 36.8333,73.5 37.5,73.5C 52.0411,79.6836 66.7078,85.6836 81.5,91.5C 61.8503,88.8577 42.1836,86.5244 22.5,84.5C 22.1667,84.5 21.8333,84.5 21.5,84.5C 26.1667,80.8333 30.8333,77.1667 35.5,73.5 Z"/></g>
<g><path style="opacity:1" fill="#76804f" d="M 16.5,83.5 C 17.391,84.1098 18.391,84.4431 19.5,84.5C 21.3356,86.588 23.6689,87.9213 26.5,88.5C 26.5,88.8333 26.5,89.1667 26.5,89.5C 23.3061,88.2424 19.9728,87.5758 16.5,87.5C 13.8333,86.1667 13.8333,84.8333 16.5,83.5 Z"/></g>
<g><path style="opacity:1" fill="#67a54d" d="M 19.5,84.5 C 20.1667,84.5 20.8333,84.5 21.5,84.5C 21.8333,84.5 22.1667,84.5 22.5,84.5C 31.909,86.5101 41.2423,88.8434 50.5,91.5C 42.4993,90.4999 34.4993,89.4999 26.5,88.5C 23.6689,87.9213 21.3356,86.588 19.5,84.5 Z"/></g>
<g><path style="opacity:1" fill="#6dc1e1" d="M 22.5,84.5 C 42.1836,86.5244 61.8503,88.8577 81.5,91.5C 83.0418,92.3007 84.7085,92.634 86.5,92.5C 89.8333,94.1667 93.1667,95.8333 96.5,97.5C 93.3915,97.2641 90.3915,97.5975 87.5,98.5C 86.1667,98.5 84.8333,98.5 83.5,98.5C 83.5,98.1667 83.5,97.8333 83.5,97.5C 84.7383,97.19 84.7383,96.69 83.5,96C 79.8296,95.4518 76.1629,94.9518 72.5,94.5C 65.105,93.9341 57.7717,92.9341 50.5,91.5C 41.2423,88.8434 31.909,86.5101 22.5,84.5 Z"/></g>
<g><path style="opacity:1" fill="#dba5d4" d="M 16.5,87.5 C 19.9728,87.5758 23.3061,88.2424 26.5,89.5C 27.391,90.1098 28.391,90.4431 29.5,90.5C 42.8333,98.8333 56.1667,107.167 69.5,115.5C 68.8902,116.391 68.5569,117.391 68.5,118.5C 51.0986,108.139 33.7652,97.8053 16.5,87.5 Z"/></g>
<g><path style="opacity:1" fill="#f4d23a" d="M 26.5,89.5 C 26.5,89.1667 26.5,88.8333 26.5,88.5C 34.4993,89.4999 42.4993,90.4999 50.5,91.5C 57.7717,92.9341 65.105,93.9341 72.5,94.5C 75.8088,96.3699 79.4754,97.3699 83.5,97.5C 83.5,97.8333 83.5,98.1667 83.5,98.5C 82.5987,99.2905 81.9321,100.29 81.5,101.5C 81.1667,101.5 80.8333,101.5 80.5,101.5C 63.6949,97.5265 46.6949,93.8598 29.5,90.5C 28.391,90.4431 27.391,90.1098 26.5,89.5 Z"/></g>
<g><path style="opacity:1" fill="#fdfcfc" d="M 29.5,90.5 C 46.6949,93.8598 63.6949,97.5265 80.5,101.5C 77.3046,106.569 73.6379,111.235 69.5,115.5C 56.1667,107.167 42.8333,98.8333 29.5,90.5 Z"/></g>
<g><path style="opacity:1" fill="#698bbe" d="M 89.5,90.5 C 89.8333,90.5 90.1667,90.5 90.5,90.5C 91.391,91.1098 92.391,91.4431 93.5,91.5C 95.8902,93.0198 98.5568,94.0198 101.5,94.5C 101.5,95.5 101.5,96.5 101.5,97.5C 99.8333,97.5 98.1667,97.5 96.5,97.5C 93.1667,95.8333 89.8333,94.1667 86.5,92.5C 88.0269,92.573 89.0269,91.9063 89.5,90.5 Z"/></g>
<g><path style="opacity:1" fill="#f8f8ed" d="M 72.5,94.5 C 76.1629,94.9518 79.8296,95.4518 83.5,96C 84.7383,96.69 84.7383,97.19 83.5,97.5C 79.4754,97.3699 75.8088,96.3699 72.5,94.5 Z"/></g>
<g><path style="opacity:1" fill="#6ba74a" d="M 83.5,98.5 C 84.8333,98.5 86.1667,98.5 87.5,98.5C 87.5,98.8333 87.5,99.1667 87.5,99.5C 87.1667,100.5 86.5,101.167 85.5,101.5C 84.1667,101.5 82.8333,101.5 81.5,101.5C 81.9321,100.29 82.5987,99.2905 83.5,98.5 Z"/></g>
<g><path style="opacity:1" fill="#f8d230" d="M 87.5,99.5 C 96.3211,100.398 104.988,102.064 113.5,104.5C 114.6,105.558 115.934,106.392 117.5,107C 116.944,107.383 116.611,107.883 116.5,108.5C 115.167,108.5 113.833,108.5 112.5,108.5C 103.728,105.977 94.7281,103.977 85.5,102.5C 85.5,102.167 85.5,101.833 85.5,101.5C 86.5,101.167 87.1667,100.5 87.5,99.5 Z"/></g>
<g><path style="opacity:1" fill="#64b7db" d="M 80.5,101.5 C 80.8333,101.5 81.1667,101.5 81.5,101.5C 82.8333,101.5 84.1667,101.5 85.5,101.5C 85.5,101.833 85.5,102.167 85.5,102.5C 82.1518,105.851 79.1518,109.518 76.5,113.5C 74.8437,115.46 73.177,117.46 71.5,119.5C 70.391,119.443 69.391,119.11 68.5,118.5C 68.5569,117.391 68.8902,116.391 69.5,115.5C 73.6379,111.235 77.3046,106.569 80.5,101.5 Z"/></g>
<g><path style="opacity:1" fill="#fcfcfb" d="M 85.5,102.5 C 94.7281,103.977 103.728,105.977 112.5,108.5C 101.376,110.598 90.209,112.598 79,114.5C 77.9302,114.472 77.0968,114.139 76.5,113.5C 79.1518,109.518 82.1518,105.851 85.5,102.5 Z"/></g>
<g><path style="opacity:1" fill="#c2ab45" d="M 113.5,104.5 C 115.806,104.993 118.139,105.326 120.5,105.5C 122.435,106.15 124.435,106.483 126.5,106.5C 126.5,107.833 126.5,109.167 126.5,110.5C 124.833,110.5 123.167,110.5 121.5,110.5C 119.833,109.833 118.167,109.167 116.5,108.5C 116.611,107.883 116.944,107.383 117.5,107C 115.934,106.392 114.6,105.558 113.5,104.5 Z"/></g>
<g><path style="opacity:1" fill="#ccccc9" d="M 112.5,108.5 C 113.833,108.5 115.167,108.5 116.5,108.5C 118.167,109.167 119.833,109.833 121.5,110.5C 104.987,113.788 88.3204,116.788 71.5,119.5C 73.177,117.46 74.8437,115.46 76.5,113.5C 77.0968,114.139 77.9302,114.472 79,114.5C 90.209,112.598 101.376,110.598 112.5,108.5 Z"/></g>
<g><path style="opacity:1" fill="#1e1d1c" d="M 140.5,111.5 C 141.5,111.5 142.5,111.5 143.5,111.5C 143.5,115.833 143.5,120.167 143.5,124.5C 154.708,123.71 159.042,128.876 156.5,140C 156.333,143.5 156.167,147 156,150.5C 155.282,151.451 154.449,151.617 153.5,151C 152.686,144.247 152.186,137.414 152,130.5C 149.519,128.686 146.685,128.02 143.5,128.5C 143.5,136.167 143.5,143.833 143.5,151.5C 142.178,151.67 141.011,151.337 140,150.5C 139.187,137.425 139.354,124.425 140.5,111.5 Z"/></g>
<g><path style="opacity:1" fill="#1d1b1b" d="M 11.5,124.5 C 15.4257,124.047 18.5923,125.38 21,128.5C 21.6667,134.833 21.6667,141.167 21,147.5C 15.5135,153.08 10.5135,152.747 6,146.5C 5.33333,140.5 5.33333,134.5 6,128.5C 7.49981,126.531 9.33314,125.198 11.5,124.5 Z"/></g>
<g><path style="opacity:1" fill="#1b1a19" d="M 52.5,124.5 C 62.1814,124.813 65.8481,129.813 63.5,139.5C 59.1667,139.5 54.8333,139.5 50.5,139.5C 50.0548,142.365 50.7215,144.865 52.5,147C 55.578,146.934 58.578,147.101 61.5,147.5C 55.8406,153.308 51.0072,152.641 47,145.5C 46.3333,140.5 46.3333,135.5 47,130.5C 48.3597,127.977 50.193,125.977 52.5,124.5 Z"/></g>
<g><path style="opacity:1" fill="#181716" d="M 103.5,124.5 C 113.532,124.557 117.199,129.557 114.5,139.5C 110.167,139.5 105.833,139.5 101.5,139.5C 101.055,142.365 101.722,144.865 103.5,147C 106.531,147.495 109.531,147.329 112.5,146.5C 112.208,150.004 110.208,151.671 106.5,151.5C 102.896,151.451 100.396,149.784 99,146.5C 98.3333,140.5 98.3333,134.5 99,128.5C 100.397,126.93 101.897,125.596 103.5,124.5 Z"/></g>
<g><path style="opacity:1" fill="#1c1b1a" d="M 175.5,123.5 C 176.995,123.415 177.995,124.081 178.5,125.5C 174.999,136.839 171.499,148.172 168,159.5C 165.715,162.892 162.548,164.559 158.5,164.5C 158.5,163.167 158.5,161.833 158.5,160.5C 160.722,160.822 162.556,160.155 164,158.5C 164.989,155.544 165.822,152.544 166.5,149.5C 163.851,141.217 161.518,132.884 159.5,124.5C 160.822,124.33 161.989,124.663 163,125.5C 164.394,131.762 166.394,137.762 169,143.5C 170.88,136.696 173.046,130.029 175.5,123.5 Z"/></g>
<g><path style="opacity:1" fill="#1f1d1c" d="M 184.5,123.5 C 187.893,123.062 190.893,123.895 193.5,126C 194.38,127.356 194.714,128.856 194.5,130.5C 191.972,129.977 189.639,128.977 187.5,127.5C 184.508,127.98 183.341,129.647 184,132.5C 187.151,135.407 190.484,138.074 194,140.5C 195.459,149.849 191.626,153.349 182.5,151C 180.167,149.757 179.5,148.091 180.5,146C 182.526,146.463 184.526,147.296 186.5,148.5C 189.055,148.278 190.722,146.945 191.5,144.5C 188.481,140.647 184.981,137.313 181,134.5C 179.662,129.96 180.829,126.293 184.5,123.5 Z"/></g>
<g><path style="opacity:1" fill="#1a1818" d="M 27.5,124.5 C 33.6126,123.41 38.7792,125.077 43,129.5C 43.9094,135.612 43.576,141.612 42,147.5C 38.9597,150.966 35.1264,152.3 30.5,151.5C 30.6655,155.514 30.4988,159.514 30,163.5C 28.9887,164.337 27.8221,164.67 26.5,164.5C 26.1858,151.087 26.5192,137.754 27.5,124.5 Z"/></g>
<g><path style="opacity:1" fill="#171615" d="M 68.5,124.5 C 80.8833,122.883 86.2167,128.217 84.5,140.5C 84.3333,143.833 84.1667,147.167 84,150.5C 83,151.833 82,151.833 81,150.5C 80.6667,143.833 80.3333,137.167 80,130.5C 77.5185,128.686 74.6852,128.02 71.5,128.5C 71.6663,135.841 71.4997,143.174 71,150.5C 70,151.833 69,151.833 68,150.5C 67.1977,141.755 67.3643,133.088 68.5,124.5 Z"/></g>
<g><path style="opacity:1" fill="#201e1e" d="M 119.5,124.5 C 123.605,124.234 127.605,124.734 131.5,126C 133.259,127.008 134.426,128.508 135,130.5C 135.903,136.281 135.57,141.947 134,147.5C 130.96,150.966 127.126,152.3 122.5,151.5C 122.666,155.514 122.499,159.514 122,163.5C 121,164.833 120,164.833 119,163.5C 118.187,150.425 118.354,137.425 119.5,124.5 Z"/></g>
<g><path style="opacity:1" fill="#f5f5f5" d="M 10.5,128.5 C 12.5273,128.338 14.5273,128.505 16.5,129C 17.1258,129.75 17.6258,130.584 18,131.5C 18.6667,135.833 18.6667,140.167 18,144.5C 15.8225,148.065 13.1558,148.399 10,145.5C 9.25987,139.782 9.42654,134.115 10.5,128.5 Z"/></g>
<g><path style="opacity:1" fill="#f5f5f5" d="M 30.5,128.5 C 37.8277,127.161 40.8277,130.161 39.5,137.5C 41.0224,145.187 38.0224,148.52 30.5,147.5C 30.5,141.167 30.5,134.833 30.5,128.5 Z"/></g>
<g><path style="opacity:1" fill="#f8f8f8" d="M 59.5,131.5 C 59.5,132.833 59.5,134.167 59.5,135.5C 56.5,135.5 53.5,135.5 50.5,135.5C 49.8314,130 52.1647,127.833 57.5,129C 58.3805,129.708 59.0472,130.542 59.5,131.5 Z"/></g>
<g><path style="opacity:1" fill="#faf9f9" d="M 110.5,130.5 C 110.5,132.167 110.5,133.833 110.5,135.5C 107.833,135.5 105.167,135.5 102.5,135.5C 102.5,133.833 102.5,132.167 102.5,130.5C 103.312,129.007 104.645,128.34 106.5,128.5C 108.355,128.34 109.688,129.007 110.5,130.5 Z"/></g>
<g><path style="opacity:1" fill="#fcfcfc" d="M 122.5,128.5 C 130.08,127.247 133.08,130.414 131.5,138C 133.08,145.586 130.08,148.753 122.5,147.5C 122.5,141.167 122.5,134.833 122.5,128.5 Z"/></g>
<g><path style="opacity:1" fill="#8d8c8b" d="M 59.5,131.5 C 60.4511,132.919 60.7845,134.585 60.5,136.5C 56.9581,136.813 53.6248,136.479 50.5,135.5C 53.5,135.5 56.5,135.5 59.5,135.5C 59.5,134.167 59.5,132.833 59.5,131.5 Z"/></g>
<g><path style="opacity:1" fill="#969595" d="M 102.5,130.5 C 102.5,132.167 102.5,133.833 102.5,135.5C 105.167,135.5 107.833,135.5 110.5,135.5C 110.5,133.833 110.5,132.167 110.5,130.5C 111.461,132.265 111.795,134.265 111.5,136.5C 108.167,136.5 104.833,136.5 101.5,136.5C 101.205,134.265 101.539,132.265 102.5,130.5 Z"/></g>
</svg>
