<svg xmlns="http://www.w3.org/2000/svg" width="768" height="798" style="shape-rendering:geometricPrecision;text-rendering:geometricPrecision;image-rendering:optimizeQuality;fill-rule:evenodd;clip-rule:evenodd"><path style="opacity:.991" fill="#103254" d="M304.5-.5h30c11.328 2.06 21.661 6.56 31 13.5 7.211 6.944 11.378 15.444 12.5 25.5a634.595 634.595 0 0 1-.5 54.5 3034.261 3034.261 0 0 1 3 72 3044.861 3044.861 0 0 1-3.5 59.5 881.746 881.746 0 0 0-.5 42 205.748 205.748 0 0 0-19 15 68.014 68.014 0 0 0-15 12c-2.609.943-4.609 2.61-6 5a49.668 49.668 0 0 0-13 10 55.74 55.74 0 0 0-13 12 147.518 147.518 0 0 0-9-13 869.126 869.126 0 0 1-30 18.5 78.827 78.827 0 0 0-3 8 1798.55 1798.55 0 0 1-48 29.5c-37.456-16.189-71.79-11.356-103 14.5-8.286 8.174-15.952 16.674-23 25.5a562.737 562.737 0 0 1-7-32.5 99.013 99.013 0 0 1 8-17 60.878 60.878 0 0 1-8.5-17.5 318.11 318.11 0 0 1-2-75c1.345-13.05 5.011-25.384 11-37 2.846-6.184 7.513-10.184 14-12 .682-28.391 9.849-53.557 27.5-75.5 5.096-4.883 11.096-8.217 18-10-1.271-4.823-1.105-9.657.5-14.5 6.768-19.437 17.601-36.27 32.5-50.5l6-4a127.056 127.056 0 0 0 29-11 2001.296 2001.296 0 0 0 49-35c10.232-5.629 20.899-9.796 32-12.5z"/><path style="opacity:.987" fill="#113254" d="M604.5 94.5c-3.136.103-5.802 1.103-8 3-10.464 4.395-20.131 10.062-29 17a203.526 203.526 0 0 0-22 16 214.116 214.116 0 0 0-27 22 25205.725 25205.725 0 0 0-28 21 723.278 723.278 0 0 1-7.5-9c3.517-22.427-.649-43.261-12.5-62.5a4.934 4.934 0 0 0-3-.5 8.43 8.43 0 0 0 .5 4c9.624 16.074 13.124 33.407 10.5 52-19.091-27.393-44.758-45.726-77-55-2.096 1.12-2.43 2.62-1 4.5 24.871 6.846 46.037 19.68 63.5 38.5a986.959 986.959 0 0 1 22.5 31c-1.187 2.475-3.187 3.475-6 3a855.776 855.776 0 0 0-47-5.5c-4.999-1.166-8.999-3.833-12-8a4.934 4.934 0 0 0-3-.5c.122 3.647 1.788 6.481 5 8.5a54.224 54.224 0 0 0 9 4 492.669 492.669 0 0 1 45 5.5 180.487 180.487 0 0 1-17 15 71.94 71.94 0 0 0-11 9 71.94 71.94 0 0 0-11 9 75.246 75.246 0 0 0-16 13 182.377 182.377 0 0 0-18 14 58.524 58.524 0 0 0-10 8h-2a1348.085 1348.085 0 0 0-4-85.5 4434.856 4434.856 0 0 1 3-70.5 672.549 672.549 0 0 1-.5-55c2.385-16.95 11.551-28.45 27.5-34.5 28.959-9.941 56.293-6.608 82 10a516.908 516.908 0 0 0 44 32 270.119 270.119 0 0 0 34 14c10.456 9.416 19.122 20.25 26 32.5z"/><path style="opacity:1" fill="#e6e9ec" d="M459.5 64.5c7.28-.756 9.28 1.91 6 8-3.441 1.506-6.608 1.173-9.5-1-.667-1.333-.667-2.667 0-4 1.518-.663 2.685-1.663 3.5-3z"/><path style="opacity:1" fill="#4582c2" d="M630.5 251.5a114.436 114.436 0 0 1-13 6 6980.813 6980.813 0 0 0-23-114 102.015 102.015 0 0 1 7.5-10 4.934 4.934 0 0 0 .5-3 4.934 4.934 0 0 0-3 .5 616.097 616.097 0 0 0-20 22.5 574.768 574.768 0 0 1-8.5-39c-.986-.671-2.153-.671-3.5 0 8.869-6.938 18.536-12.605 29-17 .996.086 1.829-.248 2.5-1a21252.858 21252.858 0 0 1 31.5 155z"/><path style="opacity:1" fill="#e9ebef" d="M237.5 202.5c.543-.06.876-.393 1-1l-2.5-1a674.847 674.847 0 0 0-20.5 2c-3.831-.251-7.164.916-10 3.5a84.943 84.943 0 0 0-14.5 16.5c-12.311 12.574-27.145 20.574-44.5 24-3.644-.214-3.977-1.381-1-3.5 12.565-2.284 23.899-7.284 34-15l27-27a22.981 22.981 0 0 1 5-2 181.286 181.286 0 0 0 24-2c.684-6.802 1.351-13.636 2-20.5a3.647 3.647 0 0 0-1-1.5 25717.33 25717.33 0 0 1-20-6c-13.12-5.91-24.786-3.576-35 7a400.379 400.379 0 0 1-34 10.5l-4-.5c-1.333-1-1.333-2 0-3l11-1a71.386 71.386 0 0 1 20-7 155.855 155.855 0 0 0 18-11 41.451 41.451 0 0 1 14-3c-6.743-4.189-14.076-6.856-22-8-1.341-1.826-.841-2.993 1.5-3.5 12.7 1.933 23.533 7.433 32.5 16.5 8.63 3.992 17.63 6.325 27 7 4.771-1 9.438-2.5 14-4.5 2.915-7.508 7.082-14.175 12.5-20 1.773-5.732 1.44-11.398-1-17a215.781 215.781 0 0 1-10-26 40.913 40.913 0 0 1-.5-9h3c1.172 11.686 4.672 22.686 10.5 33a71.006 71.006 0 0 1 3.5 13 139.228 139.228 0 0 0 19.5-25 54.628 54.628 0 0 0 2-7c1.011-.837 2.178-1.17 3.5-1-1.506 9.679-5.673 18.012-12.5 25a245.715 245.715 0 0 0-20 22 932.775 932.775 0 0 0-19.5 36c12.75 8.56 22.917 6.227 30.5-7 6.088-6.964 13.588-11.798 22.5-14.5a238.15 238.15 0 0 0 57-24 8.43 8.43 0 0 1 4-.5c.219 1.175-.114 2.175-1 3a651.447 651.447 0 0 1-63 26.5c-9.837 4.171-17.504 10.837-23 20a37.885 37.885 0 0 1-10 6l11 13a17.65 17.65 0 0 0 6-.5c.17 1.322-.163 2.489-1 3.5a12.494 12.494 0 0 1-7 0l-11-13a128.491 128.491 0 0 0-16.5-8.5c-7.025 6.379-11.191 14.379-12.5 24a309.56 309.56 0 0 1 11 48c-1.322.17-2.489-.163-3.5-1a277.52 277.52 0 0 0-9-38c-.667-1.333-1.333-1.333-2 0-1.267 4.369-3.433 8.203-6.5 11.5-1.525 1.009-3.192 1.509-5 1.5a4.934 4.934 0 0 1 .5-3c3.067-2.403 5.4-5.403 7-9 2.837-9.352 5.67-18.685 8.5-28z"/><path style="opacity:1" fill="#f2f4f8" d="M490.5 173.5c5.381 7.889 11.715 15.056 19 21.5a216.539 216.539 0 0 0 22 8c1.887.78 3.554.613 5-.5 6.79-4.04 14.123-6.873 22-8.5 1.442-.377 2.442-1.21 3-2.5 4.039-3.054 6.873-7.054 8.5-12a138.174 138.174 0 0 0 6-20 30.137 30.137 0 0 0 3.5-6 616.097 616.097 0 0 1 20-22.5 4.934 4.934 0 0 1 3-.5 4.934 4.934 0 0 1-.5 3 102.015 102.015 0 0 0-7.5 10c-10.358 7.84-16.191 18.173-17.5 31a82.851 82.851 0 0 1-6.5 15 63.707 63.707 0 0 0-7 6.5 1017.317 1017.317 0 0 0-24 9.5c.881 1.471 2.214 2.304 4 2.5a535.492 535.492 0 0 1 37 10.5 270.894 270.894 0 0 0 20 5c.353 2.135-.48 3.468-2.5 4a305.639 305.639 0 0 0-20.5-5 284.522 284.522 0 0 0-18-6c-6.962 1.83-13.629 4.164-20 7a129.879 129.879 0 0 1-10.5 2c-5.281-1.924-9.114-.257-11.5 5a49.864 49.864 0 0 0-10 10.5 8.43 8.43 0 0 1-4 .5 4.934 4.934 0 0 1 .5-3 234.057 234.057 0 0 1 14-15c-.694-3.417-2.027-6.751-4-10l-3-12a119.16 119.16 0 0 1-13.5-12.5 46.984 46.984 0 0 0-14-3.5c-1.802-.958-3.802-1.625-6-2a492.669 492.669 0 0 0-45-5.5 54.224 54.224 0 0 1-9-4c-3.212-2.019-4.878-4.853-5-8.5a4.934 4.934 0 0 1 3 .5c3.001 4.167 7.001 6.834 12 8a855.776 855.776 0 0 1 47 5.5 40.983 40.983 0 0 0 11 2.5c-1.333-2.191-3-4.024-5-5.5a986.959 986.959 0 0 0-22.5-31c-17.463-18.82-38.629-31.654-63.5-38.5-1.43-1.88-1.096-3.38 1-4.5 32.242 9.274 57.909 27.607 77 55 2.624-18.593-.876-35.926-10.5-52a8.43 8.43 0 0 1-.5-4 4.934 4.934 0 0 1 3 .5c11.851 19.239 16.017 40.073 12.5 62.5a723.278 723.278 0 0 0 7.5 9z"/><path style="opacity:1" fill="#5086c5" d="M579.5 153.5a30.137 30.137 0 0 1-3.5 6 138.174 138.174 0 0 1-6 20c-1.627 4.946-4.461 8.946-8.5 12a926.728 926.728 0 0 1-13.5-62c-.671.752-1.504 1.086-2.5 1a203.526 203.526 0 0 1 22-16c1.347-.671 2.514-.671 3.5 0a574.768 574.768 0 0 0 8.5 39z"/><path style="opacity:1" fill="#5a8bc8" d="M561.5 191.5c-.558 1.29-1.558 2.123-3 2.5-7.877 1.627-15.21 4.46-22 8.5-1.322.17-2.489-.163-3.5-1l-11-51c-.816 1.323-1.983 1.989-3.5 2a214.116 214.116 0 0 1 27-22c.996.086 1.829-.248 2.5-1a926.728 926.728 0 0 0 13.5 62z"/><path style="opacity:1" fill="#3c7ebf" d="M604.5 94.5c5.174 8.849 8.507 18.349 10 28.5a20.111 20.111 0 0 1-1 5.5c8.545 2.524 15.711 7.191 21.5 14 15.734 21.37 23.568 45.37 23.5 72 6.068 1.066 10.401 4.4 13 10a266.714 266.714 0 0 1-41 27 21252.858 21252.858 0 0 0-31.5-155c-.671.752-1.504 1.086-2.5 1 2.198-1.897 4.864-2.897 8-3z"/><path style="opacity:1" fill="#4b84c4" d="M594.5 143.5a6980.813 6980.813 0 0 1 23 114 606.971 606.971 0 0 1-31 12 2358.87 2358.87 0 0 1-9-47 305.639 305.639 0 0 1 20.5 5c2.02-.532 2.853-1.865 2.5-4a270.894 270.894 0 0 1-20-5c-1.122-1.447-2.622-2.447-4.5-3a1076.39 1076.39 0 0 1-5.5-26 82.851 82.851 0 0 0 6.5-15c1.309-12.827 7.142-23.16 17.5-31z"/><path style="opacity:1" fill="#6892cb" d="M536.5 202.5c-1.446 1.113-3.113 1.28-5 .5a216.539 216.539 0 0 1-22-8c-7.285-6.444-13.619-13.611-19-21.5 9.352-7.024 18.685-14.024 28-21 1.517-.011 2.684-.677 3.5-2l11 51c1.011.837 2.178 1.17 3.5 1z"/><path style="opacity:1" fill="#7f9dcb" d="M486.5 176.5c2 1.476 3.667 3.309 5 5.5a40.983 40.983 0 0 1-11-2.5c2.813.475 4.813-.525 6-3z"/><path style="opacity:1" fill="#799dd1" d="M477.5 183.5c2.198.375 4.198 1.042 6 2a4.934 4.934 0 0 0-3 .5c1.333.667 1.333 1.333 0 2l2 1v9c2.667.667 2.667 1.333 0 2 2.509 2.67 3.176 5.337 2 8 2.667.667 2.667 1.333 0 2 1.078.674 1.745 1.674 2 3a42.87 42.87 0 0 0 2 8l-1 1 3 7-1 3c2.667.667 2.667 1.333 0 2a273.702 273.702 0 0 1 5 15l-1 3c2.667.667 2.667 1.333 0 2 1.504 1.337 2.504 3.004 3 5l-2 1c2.07 2.945 3.403 5.945 4 9-.489 3.408.178 6.741 2 10l-1 3c2.667.667 2.667 1.333 0 2 1.467 1.098 2.301 2.598 2.5 4.5a171.684 171.684 0 0 1 1.5 12 230.125 230.125 0 0 1-16 6c.396-2.544-.271-4.711-2-6.5 2.667-1.333 2.667-2.667 0-4a47.26 47.26 0 0 1 0-7c-1.894-1.079-2.227-2.413-1-4l-3-7a126.194 126.194 0 0 1 0-9c-1.894-1.079-2.227-2.413-1-4l-3-7a126.194 126.194 0 0 1 0-9l-2-1 1-3-2-1v-9a13.24 13.24 0 0 0-3-5l2-2a455.529 455.529 0 0 0-3-4v-9c-1.452-1.958-1.785-3.958-1-6l-2-1 1-3c-1.801-.317-2.134-.984-1-2a29.898 29.898 0 0 0-2.5-6.5 9.175 9.175 0 0 1-4.5 2 180.487 180.487 0 0 0 17-15z"/><path style="opacity:1" fill="#7097ce" d="M483.5 185.5a46.984 46.984 0 0 1 14 3.5 119.16 119.16 0 0 0 13.5 12.5l3 12c1.973 3.249 3.306 6.583 4 10a234.057 234.057 0 0 0-14 15 4.934 4.934 0 0 0-.5 3 8.43 8.43 0 0 0 4-.5 49.864 49.864 0 0 1 10-10.5c-.011 1.517-.677 2.684-2 3.5a2932.637 2932.637 0 0 1 12 57.5 103952 103952 0 0 0-24 9 171.684 171.684 0 0 0-1.5-12c-.199-1.902-1.033-3.402-2.5-4.5 2.667-.667 2.667-1.333 0-2l1-3c-1.822-3.259-2.489-6.592-2-10-.597-3.055-1.93-6.055-4-9l2-1c-.496-1.996-1.496-3.663-3-5 2.667-.667 2.667-1.333 0-2l1-3a273.702 273.702 0 0 0-5-15c2.667-.667 2.667-1.333 0-2l1-3-3-7 1-1a42.87 42.87 0 0 1-2-8c-.255-1.326-.922-2.326-2-3 2.667-.667 2.667-1.333 0-2 1.176-2.663.509-5.33-2-8 2.667-.667 2.667-1.333 0-2v-9l-2-1c1.333-.667 1.333-1.333 0-2a4.934 4.934 0 0 1 3-.5z"/><path style="opacity:1" fill="#7fa1d3" d="M487.5 306.5a87.385 87.385 0 0 1-14 5 9761.174 9761.174 0 0 0-21.5-105c-.671.752-1.504 1.086-2.5 1a71.94 71.94 0 0 1 11-9 9.175 9.175 0 0 0 4.5-2 29.898 29.898 0 0 1 2.5 6.5c-1.134 1.016-.801 1.683 1 2l-1 3 2 1c-.785 2.042-.452 4.042 1 6v9c.864 1.137 1.864 2.47 3 4l-2 2a13.24 13.24 0 0 1 3 5v9l2 1-1 3 2 1a126.194 126.194 0 0 0 0 9l3 7c-1.227 1.587-.894 2.921 1 4a126.194 126.194 0 0 0 0 9l3 7c-1.227 1.587-.894 2.921 1 4a47.26 47.26 0 0 0 0 7c2.667 1.333 2.667 2.667 0 4 1.729 1.789 2.396 3.956 2 6.5z"/><path style="opacity:1" fill="#5c8cc8" d="M570.5 189.5a1076.39 1076.39 0 0 0 5.5 26c1.878.553 3.378 1.553 4.5 3a535.492 535.492 0 0 0-37-10.5c-1.786-.196-3.119-1.029-4-2.5a1017.317 1017.317 0 0 1 24-9.5 63.707 63.707 0 0 1 7-6.5z"/><path style="opacity:1" fill="#465d79" d="M237.5 202.5a625.226 625.226 0 0 0-22 0 674.847 674.847 0 0 1 20.5-2l2.5 1c-.124.607-.457.94-1 1z"/><path style="opacity:1" fill="#87a5d6" d="M473.5 311.5c-2.928 1.317-5.928 2.65-9 4a11467.115 11467.115 0 0 1-18-94l-1-2-1.5-6a24.257 24.257 0 0 1-5.5 3 71.94 71.94 0 0 1 11-9c.996.086 1.829-.248 2.5-1a9761.174 9761.174 0 0 1 21.5 105z"/><path style="opacity:1" fill="#5789c7" d="M577.5 222.5a2358.87 2358.87 0 0 0 9 47l-38 14a1159.186 1159.186 0 0 0-11-57.5c.556-1.011 1.222-1.844 2-2.5 6.371-2.836 13.038-5.17 20-7a284.522 284.522 0 0 1 18 6z"/><path style="opacity:1" fill="#f5f7fb" d="m445.5 219.5 1 2c.27 6.7-2.73 8.7-9 6-.981-6.192 1.686-8.859 8-8z"/><path style="opacity:.991" fill="#103254" d="M671.5 224.5c7.219 11.507 11.386 24.174 12.5 38a299.334 299.334 0 0 1-3 80 4353.73 4353.73 0 0 0-7.5 13.5 125.67 125.67 0 0 1 8 16.5 303.838 303.838 0 0 1-17.5 61 36.078 36.078 0 0 1-3.5 4.5c2.629 3.332 3.962 7.165 4 11.5-1.635 12.269-5.802 23.603-12.5 34-8.609 14.286-19.109 27.119-31.5 38.5l-5.5 3.5c-4.824 21.48-15.657 39.313-32.5 53.5-41.28 32.2-87.946 44.867-140 38-15.951-2.974-29.618-10.141-41-21.5a270.83 270.83 0 0 1-8.5-43 1044.24 1044.24 0 0 1-5-149 4769.055 4769.055 0 0 1 2.5-61 122.02 122.02 0 0 0 23-8 91.688 91.688 0 0 0 10-4 139.475 139.475 0 0 0 19-7 78.598 78.598 0 0 1 16-5c1.29.558 2.123 1.558 2.5 3 .01 16.078.843 32.078 2.5 48l-1 1c-14.225-11.03-30.059-19.03-47.5-24-1.28.113-2.113.78-2.5 2a756.065 756.065 0 0 1 33 14.5 172.26 172.26 0 0 1 18 13 701.13 701.13 0 0 0-28-7c-10.149-1.404-20.149-1.57-30-.5-.904.709-1.237 1.709-1 3h16c18.237 1.059 35.57 5.559 52 13.5a223.107 223.107 0 0 1 17.5 26.5c8.579 9.912 17.745 19.079 27.5 27.5-16.835 3.163-31.835 10.163-45 21a296.34 296.34 0 0 0-20 21c-8.002 7.584-17.502 12.084-28.5 13.5-4.943-.017-9.443-1.351-13.5-4-1.99.963-2.323 2.296-1 4 9.199 5.052 18.532 5.218 28 .5a56.81 56.81 0 0 0 15-9 268.134 268.134 0 0 0 19-20c13.788-13.062 30.121-20.395 49-22 2.073.118 3.407 1.118 4 3-.3 48.61-20.3 86.61-60 114-1.537 1.11-2.203 2.61-2 4.5 1.808.009 3.475-.491 5-1.5 28.788-19.707 47.621-46.54 56.5-80.5a392.046 392.046 0 0 0 9 20c1.011.837 2.178 1.17 3.5 1a901.471 901.471 0 0 1-8.5-23c-1.876-10.365-1.876-20.699 0-31a688.59 688.59 0 0 1 27 42c1.612 2.579 3.112 2.579 4.5 0a1217.331 1217.331 0 0 0-24.5-40 149.492 149.492 0 0 0-19.5-21.5c3.589-2.631 7.589-3.797 12-3.5a724.238 724.238 0 0 1 47-1 134.685 134.685 0 0 0 19 14.5 79.054 79.054 0 0 0 12 3c6.384.242 12.718.908 19 2 5.085 1.966 9.752 4.466 14 7.5.009-1.808-.491-3.475-1.5-5a28.415 28.415 0 0 0-7.5-4.5 2007.157 2007.157 0 0 1-36-7c-6-4.667-11.333-10-16-16a233.723 233.723 0 0 1-47-2 275.619 275.619 0 0 0-38-13 248.863 248.863 0 0 0-23.5-29.5 717.12 717.12 0 0 1-4-55 10.134 10.134 0 0 1-1.5-4c-.172-.992.162-1.658 1-2 3.072-1.35 6.072-2.683 9-4a87.385 87.385 0 0 0 14-5 230.125 230.125 0 0 0 16-6 103952 103952 0 0 1 24-9l21-8 38-14a606.971 606.971 0 0 0 31-12 114.436 114.436 0 0 0 13-6 266.714 266.714 0 0 0 41-27z"/><path style="opacity:1" fill="#6691cb" d="M539.5 223.5c-.778.656-1.444 1.489-2 2.5a1159.186 1159.186 0 0 1 11 57.5l-21 8a2932.637 2932.637 0 0 0-12-57.5c1.323-.816 1.989-1.983 2-3.5 2.386-5.257 6.219-6.924 11.5-5a129.879 129.879 0 0 0 10.5-2z"/><path style="opacity:1" fill="#8fabd8" d="M445.5 219.5c-6.314-.859-8.981 1.808-8 8 6.27 2.7 9.27.7 9-6a11467.115 11467.115 0 0 0 18 94c-.838.342-1.172 1.008-1 2-11.343-12.36-16.343-27.027-15-44h-4c-.937 16.851 3.73 31.851 14 45a78.598 78.598 0 0 0-16 5 3169.026 3169.026 0 0 0-18-91.5c-.184-1.376-.851-2.209-2-2.5a75.246 75.246 0 0 1 16-13 24.257 24.257 0 0 0 5.5-3l1.5 6z"/><path style="opacity:1" fill="#9db4dd" d="M422.5 229.5c1.149.291 1.816 1.124 2 2.5a3169.026 3169.026 0 0 1 18 91.5 139.475 139.475 0 0 1-19 7 2152.906 2152.906 0 0 0-17-85.5c-.336-1.03-1.003-1.53-2-1.5a182.377 182.377 0 0 1 18-14z"/><path style="opacity:1" fill="#a6bbe0" d="M404.5 243.5c.997-.03 1.664.47 2 1.5a2152.906 2152.906 0 0 1 17 85.5 91.688 91.688 0 0 1-10 4l-16-83h-3a58.524 58.524 0 0 1 10-8z"/><path style="opacity:1" fill="#becce7" d="M376.5 266.5c.552 27.336 1.218 54.67 2 82a19.22 19.22 0 0 0-6 1 4477.951 4477.951 0 0 0-12.5-65c-.236-1.619-1.069-2.619-2.5-3a205.748 205.748 0 0 1 19-15z"/><path style="opacity:1" fill="#aec0e1" d="M392.5 251.5h5l16 83a122.02 122.02 0 0 1-23 8 1755.407 1755.407 0 0 0 2-91z"/><path style="opacity:1" fill="#ced9ee" d="M357.5 281.5c1.431.381 2.264 1.381 2.5 3a4477.951 4477.951 0 0 1 12.5 65c-4.866 2.897-10.199 4.897-16 6a1375.712 1375.712 0 0 0-11.5-59c-.236-1.619-1.069-2.619-2.5-3a68.014 68.014 0 0 1 15-12z"/><path style="opacity:1" fill="#d7e0f2" d="M342.5 293.5c1.431.381 2.264 1.381 2.5 3a1375.712 1375.712 0 0 1 11.5 59c-1.714 1.238-3.714 1.905-6 2a1605.754 1605.754 0 0 1-11.5-55c-.122-1.937-.955-3.27-2.5-4 1.391-2.39 3.391-4.057 6-5z"/><path style="opacity:1" fill="#e0e7f4" d="M336.5 298.5c1.545.73 2.378 2.063 2.5 4a1605.754 1605.754 0 0 0 11.5 55l-13 6c-.838-.342-1.172-1.008-1-2 .624-.417.957-1.084 1-2a1431.926 1431.926 0 0 0-11.5-52c-.671.752-1.504 1.086-2.5 1a49.668 49.668 0 0 1 13-10z"/><path style="opacity:1" fill="#e7eaed" d="M566.5 306.5c7.396.115 8.73 2.948 4 8.5-4.998 1.33-7.164-.504-6.5-5.5.698-1.191 1.531-2.191 2.5-3z"/><path style="opacity:.954" fill="#fafbfc" d="M310.5 320.5a1311.735 1311.735 0 0 0 26 41c-.172.992.162 1.658 1 2a104.957 104.957 0 0 1 6.5 10c.684 1.284.517 2.451-.5 3.5l-31 19.5c-.927-2.446-2.594-3.279-5-2.5a510.17 510.17 0 0 0-36 24c3.627 9.026 6.294 18.192 8 27.5 4.134.985 8.468 1.318 13 1v34h-11c-.332 45.503.001 90.836 1 136 .297 4.267-.036 8.434-1 12.5-68.667.667-137.333.667-206 0a5458.339 5458.339 0 0 1-1-147.5h-11c-.166-12.005 0-24.005.5-36a55.154 55.154 0 0 1 14.5-1 153.579 153.579 0 0 1 16-41c7.048-8.826 14.714-17.326 23-25.5 31.21-25.856 65.544-30.689 103-14.5a1798.55 1798.55 0 0 0 48-29.5c.83-2.653 1.83-5.32 3-8a869.126 869.126 0 0 0 30-18.5 147.518 147.518 0 0 1 9 13z"/><path style="opacity:1" fill="#ecf1f8" d="M336.5 361.5a1311.735 1311.735 0 0 1-26-41 55.74 55.74 0 0 1 13-12c.996.086 1.829-.248 2.5-1 4.14 17.19 7.973 34.524 11.5 52-.043.916-.376 1.583-1 2z"/><path style="opacity:1" fill="#3a7fc1" d="M296.5 320.5c1.89-.203 3.39.463 4.5 2a1931.626 1931.626 0 0 0 31.5 50 143.376 143.376 0 0 1-17 11 1394.978 1394.978 0 0 1-34-52 197.634 197.634 0 0 1 15-11z"/><path style="opacity:1" fill="#387ec0" d="M274.5 340.5c1.517.011 2.684.677 3.5 2a1727.14 1727.14 0 0 0 26.5 42 1043.65 1043.65 0 0 1-37 24c-9.045-16.265-21.378-29.432-37-39.5a2179.93 2179.93 0 0 0 44-28.5z"/><path style="opacity:.988" fill="#103254" d="M378.5 348.5a1743.103 1743.103 0 0 1 2.5 138 617.75 617.75 0 0 1-12 105c-9.797 11.158-21.964 18.658-36.5 22.5-16.601 4.021-33.267 4.854-50 2.5v-135c3.542.313 6.875-.021 10-1 .995-11.488 1.328-23.155 1-35h-14c-1.706-9.308-4.373-18.474-8-27.5a510.17 510.17 0 0 1 36-24c2.406-.779 4.073.054 5 2.5l31-19.5c1.017-1.049 1.184-2.216.5-3.5a104.957 104.957 0 0 0-6.5-10l13-6c2.286-.095 4.286-.762 6-2 5.801-1.103 11.134-3.103 16-6a19.22 19.22 0 0 1 6-1z"/><path style="opacity:1" fill="#367dc0" d="M271.5 454.5c3.798.983 7.798 1.317 12 1v16h-210v-17h13c6.322-39.466 27.322-67.966 63-85.5 48.52-12.944 85.353 2.223 110.5 45.5 6.167 12.668 10.001 26.001 11.5 40z"/><path style="opacity:1" fill="#b3bbc6" d="M405.5 368.5c4.751 1.641 9.751 2.641 15 3h-16c-.237-1.291.096-2.291 1-3z"/><path style="opacity:1" fill="#eceef1" d="M463.5 317.5a10.134 10.134 0 0 0 1.5 4 717.12 717.12 0 0 0 4 55 248.863 248.863 0 0 1 23.5 29.5 275.619 275.619 0 0 1 38 13 233.723 233.723 0 0 0 47 2c4.667 6 10 11.333 16 16a2007.157 2007.157 0 0 0 36 7 28.415 28.415 0 0 1 7.5 4.5c1.009 1.525 1.509 3.192 1.5 5-4.248-3.034-8.915-5.534-14-7.5a142.293 142.293 0 0 0-19-2 79.054 79.054 0 0 1-12-3 134.685 134.685 0 0 1-19-14.5c-6.325-.666-12.825-1-19.5-1-9.385-.198-18.552.468-27.5 2-4.411-.297-8.411.869-12 3.5a149.492 149.492 0 0 1 19.5 21.5 1217.331 1217.331 0 0 1 24.5 40c-1.388 2.579-2.888 2.579-4.5 0a688.59 688.59 0 0 0-27-42c-1.876 10.301-1.876 20.635 0 31a901.471 901.471 0 0 0 8.5 23c-1.322.17-2.489-.163-3.5-1a392.046 392.046 0 0 1-9-20c-8.879 33.96-27.712 60.793-56.5 80.5-1.525 1.009-3.192 1.509-5 1.5-.203-1.89.463-3.39 2-4.5 39.7-27.39 59.7-65.39 60-114-.593-1.882-1.927-2.882-4-3-18.879 1.605-35.212 8.938-49 22a268.134 268.134 0 0 1-19 20 56.81 56.81 0 0 1-15 9c-9.468 4.718-18.801 4.552-28-.5-1.323-1.704-.99-3.037 1-4 4.057 2.649 8.557 3.983 13.5 4 10.998-1.416 20.498-5.916 28.5-13.5a296.34 296.34 0 0 1 20-21c13.165-10.837 28.165-17.837 45-21-9.755-8.421-18.921-17.588-27.5-27.5a223.107 223.107 0 0 0-17.5-26.5c-16.43-7.941-33.763-12.441-52-13.5-5.249-.359-10.249-1.359-15-3 9.851-1.07 19.851-.904 30 .5a701.13 701.13 0 0 1 28 7 172.26 172.26 0 0 0-18-13 756.065 756.065 0 0 0-33-14.5c.387-1.22 1.22-1.887 2.5-2 17.441 4.97 33.275 12.97 47.5 24l1-1a466.212 466.212 0 0 1-2.5-48c-.377-1.442-1.21-2.442-2.5-3-10.27-13.149-14.937-28.149-14-45h4c-1.343 16.973 3.657 31.64 15 44z"/><path style="opacity:1" fill="#556a84" d="M574.5 426.5a724.238 724.238 0 0 0-47 1c8.948-1.532 18.115-2.198 27.5-2 6.675 0 13.175.334 19.5 1z"/><path style="opacity:1" fill="#78889c" d="M279.5 445.5h14c.328 11.845-.005 23.512-1 35v-34c-4.532.318-8.866-.015-13-1z"/><path style="opacity:1" fill="#b0c7e4" d="M271.5 454.5h13c.322 5.858-.011 11.525-1 17v-16c-4.202.317-8.202-.017-12-1z"/><path style="opacity:1" fill="#357dc0" d="M272.5 481.5v137h-187v-137h187z"/><path style="opacity:1" fill="#324e6b" d="M292.5 480.5c-3.125.979-6.458 1.313-10 1v135a4624.057 4624.057 0 0 1-1-136h11z"/><path style="opacity:1" fill="#7da8d5" d="M272.5 481.5h-187v137h187a8840.16 8840.16 0 0 1-188 1v-139a8840.16 8840.16 0 0 1 188 1z"/><path style="opacity:.968" fill="#347cbe" d="M48.5 634.5c43.652-1.516 64.152 19.484 61.5 63-4.252 20.695-16.42 34.195-36.5 40.5-18.423 4.374-35.423 1.374-51-9C5.308 712.08.142 691.913 7 668.5c7.435-19.279 21.269-30.612 41.5-34zm1 18c25.446-2.381 39.113 9.119 41 34.5-.861 21.359-11.861 33.192-33 35.5-23.982-3.571-34.816-17.571-32.5-42 2.41-14.55 10.576-23.884 24.5-28z"/><path style="opacity:.907" fill="#103254" d="M402.5 634.5c12.264-1.382 23.597 1.118 34 7.5a14.972 14.972 0 0 1 3 3.5 53.938 53.938 0 0 1-13.5 14c-7.619-7.037-16.452-8.87-26.5-5.5-6.562 4.539-7.562 10.039-3 16.5a2047.592 2047.592 0 0 0 33 14.5c9.212 7.324 12.712 16.824 10.5 28.5-3.259 14.258-12.092 22.758-26.5 25.5-12.775 2.104-24.775.104-36-6-3.013-1.679-5.346-4.013-7-7a64.757 64.757 0 0 1 13.5-13.5c5.319 5.577 11.819 8.91 19.5 10 12.41-.22 17.577-6.22 15.5-18l-4.5-4.5a718.046 718.046 0 0 0-28-11c-11.308-7.12-15.475-17.287-12.5-30.5 1.79-8.126 6.29-14.293 13.5-18.5 4.934-2.363 9.934-4.196 15-5.5z"/><path style="opacity:.961" fill="#347cbf" d="M157.5 667.5c31.343-1.156 45.177 13.844 41.5 45-6.286 20.568-20.119 29.068-41.5 25.5-4.88-1.355-9.047-3.855-12.5-7.5a759.776 759.776 0 0 1-1.5 38.5c-5.916.807-11.75.641-17.5-.5-.667-33-.667-66 0-99a79.547 79.547 0 0 1 17.5-1 32.462 32.462 0 0 0 .5 8c3.453-4.638 7.953-7.638 13.5-9zm2 16c14.96.458 22.127 8.125 21.5 23-2.953 11.729-10.453 16.896-22.5 15.5-9.289-2.896-14.289-9.23-15-19 .89-10.372 6.224-16.872 16-19.5z"/><path style="opacity:.957" fill="#347cbe" d="M239.5 667.5c29.499-1.835 43.499 12.165 42 42h-51c4.011 13.195 12.677 17.362 26 12.5a96.246 96.246 0 0 0 9-7.5c4.478 3.31 8.811 6.81 13 10.5-10.689 12.118-24.022 16.451-40 13-24.179-9.491-32.012-26.657-23.5-51.5 5.474-9.993 13.641-16.326 24.5-19zm2 14c11.689-2.008 18.689 2.658 21 14h-32c1.314-6.679 4.98-11.346 11-14z"/><path style="opacity:.96" fill="#357cbf" d="M326.5 667.5c14.566-3.108 25.066 1.892 31.5 15a532.482 532.482 0 0 1 1.5 55h-18c.376-15.04-.124-30.04-1.5-45-3.548-9.074-9.715-11.241-18.5-6.5-2.606 1.938-4.439 4.438-5.5 7.5-.5 14.663-.667 29.33-.5 44h-19v-69h18a32.462 32.462 0 0 0 .5 8c3.045-4.094 6.878-7.094 11.5-9z"/><path style="opacity:.901" fill="#103254" d="M480.5 667.5c9.79-1.046 19.123.454 28 4.5 2.493 1.566 4.493 3.566 6 6a70.925 70.925 0 0 1-12 12.5c-12.056-10.113-22.223-8.446-30.5 5-3.692 14.958 1.975 23.958 17 27 5.18-.507 9.68-2.507 13.5-6 4.884 3.698 8.718 8.032 11.5 13-9.965 8.562-21.465 11.396-34.5 8.5-17.398-5.095-26.732-16.761-28-35 1.329-18.904 10.996-30.737 29-35.5z"/><path style="opacity:.911" fill="#103254" d="M547.5 667.5c34.57-1.938 49.404 14.062 44.5 48-4.505 12.006-13.005 19.506-25.5 22.5-32.14 3.72-47.64-10.447-46.5-42.5 3.335-15.167 12.501-24.501 27.5-28zm6 16c14.96.458 22.127 8.125 21.5 23-2.953 11.729-10.453 16.896-22.5 15.5-9.443-2.781-14.443-9.114-15-19 .861-10.346 6.194-16.846 16-19.5z"/><path style="opacity:.898" fill="#103254" d="M639.5 667.5c21.944-3.128 35.777 5.872 41.5 27 3.058 30.938-10.775 45.438-41.5 43.5-4.88-1.355-9.047-3.855-12.5-7.5l-1 38c-6 1.333-12 1.333-18 0-.5-33.332-.667-66.665-.5-100h18c-.163 2.357.003 4.69.5 7 3.897-3.859 8.397-6.525 13.5-8zm2 16c13.139-.027 20.472 6.473 22 19.5-1.663 13.667-9.33 20.001-23 19-9.457-2.792-14.457-9.126-15-19 .847-10.334 6.18-16.834 16-19.5zM720.5 667.5c29.732-1.933 43.399 12.067 41 42h-50c.531 7.033 4.197 11.533 11 13.5 9.622 2.105 17.456-.728 23.5-8.5a89.86 89.86 0 0 1 12.5 10.5c-7.062 9.862-16.728 14.362-29 13.5-27.038-1.547-39.205-15.881-36.5-43 3.348-15.18 12.514-24.513 27.5-28zm2 14c11.106-1.96 18.106 2.373 21 13a256.827 256.827 0 0 1-32 1c.742-7.065 4.409-11.732 11-14z"/></svg>