<svg xmlns="http://www.w3.org/2000/svg" width="200" height="200" style="shape-rendering:geometricPrecision;text-rendering:geometricPrecision;image-rendering:optimizeQuality;fill-rule:evenodd;clip-rule:evenodd"><path style="opacity:1" fill="#fefefe" d="M-.5-.5h200v200H-.5V-.5z"/><path style="opacity:1" fill="#eb6043" d="m115.5 58.5-2 3-2 1a973.91 973.91 0 0 0-67 10 21.445 21.445 0 0 0-7 1h-2c-.904-.709-1.237-1.709-1-3a2058.037 2058.037 0 0 1 81-12z"/><path style="opacity:1" fill="#6b5e58" d="M115.5 58.5h3c.237 1.291-.096 2.291-1 3h-4l2-3z"/><path style="opacity:1" fill="#fefbfb" d="m111.5 62.5-21 28h-1a1310.098 1310.098 0 0 1-45-18 973.91 973.91 0 0 1 67-10z"/><path style="opacity:1" fill="#63bcdf" d="M113.5 61.5h4a5.727 5.727 0 0 0-1 3 440.548 440.548 0 0 0-23 27 5.728 5.728 0 0 1-3-1l21-28 2-1z"/><path style="opacity:1" fill="#d7d7d4" d="M116.5 64.5c-4.622 9.917-9.289 19.917-14 30a2532.82 2532.82 0 0 1 18 11 51.569 51.569 0 0 1-7-1 149.25 149.25 0 0 0-26-5v-1c2.891-.903 5.891-1.236 9-1h5v-3c-2.943-.48-5.61-1.48-8-3a440.548 440.548 0 0 1 23-27z"/><path style="opacity:1" fill="#cacbc8" d="M34.5 70.5c-.237 1.291.096 2.291 1 3l-14 11h-2a5.728 5.728 0 0 1-3-1 6668.076 6668.076 0 0 1 18-13z"/><path style="opacity:1" fill="#dba4d5" d="M44.5 72.5a1310.098 1310.098 0 0 0 45 18c-.473 1.406-1.473 2.073-3 2-1.791.134-3.458-.2-5-1a1732.135 1732.135 0 0 1-44-18 21.445 21.445 0 0 1 7-1z"/><path style="opacity:1" fill="#fcfcfd" d="M35.5 73.5h2a1732.135 1732.135 0 0 0 44 18 1905.37 1905.37 0 0 0-59-7h-1l14-11z"/><path style="opacity:1" fill="#76804f" d="M16.5 83.5c.891.61 1.891.943 3 1 1.836 2.088 4.169 3.421 7 4v1a28.794 28.794 0 0 0-10-2c-2.667-1.333-2.667-2.667 0-4z"/><path style="opacity:1" fill="#67a54d" d="M19.5 84.5h3a418.365 418.365 0 0 1 28 7l-24-3c-2.831-.579-5.164-1.912-7-4z"/><path style="opacity:1" fill="#6dc1e1" d="M22.5 84.5a1905.37 1905.37 0 0 1 59 7c1.542.8 3.209 1.134 5 1l10 5c-3.109-.236-6.109.097-9 1h-4v-1c1.238-.31 1.238-.81 0-1.5a434.749 434.749 0 0 0-11-1.5 187.567 187.567 0 0 1-22-3 418.365 418.365 0 0 0-28-7z"/><path style="opacity:1" fill="#dba5d4" d="M16.5 87.5c3.473.076 6.806.742 10 2 .891.61 1.891.943 3 1l40 25a5.728 5.728 0 0 0-1 3 55784.086 55784.086 0 0 1-52-31z"/><path style="opacity:1" fill="#f4d23a" d="M26.5 89.5v-1l24 3a187.567 187.567 0 0 0 22 3c3.309 1.87 6.975 2.87 11 3v1c-.901.79-1.568 1.79-2 3h-1a1330.337 1330.337 0 0 0-51-11 5.728 5.728 0 0 1-3-1z"/><path style="opacity:1" fill="#fdfcfc" d="M29.5 90.5a1330.337 1330.337 0 0 1 51 11 85.596 85.596 0 0 1-11 14l-40-25z"/><path style="opacity:1" fill="#698bbe" d="M89.5 90.5h1c.891.61 1.891.943 3 1 2.39 1.52 5.057 2.52 8 3v3h-5l-10-5c1.527.073 2.527-.594 3-2z"/><path style="opacity:1" fill="#f8f8ed" d="M72.5 94.5c3.663.452 7.33.952 11 1.5 1.238.69 1.238 1.19 0 1.5-4.025-.13-7.691-1.13-11-3z"/><path style="opacity:1" fill="#6ba74a" d="M83.5 98.5h4v1c-.333 1-1 1.667-2 2h-4c.432-1.21 1.099-2.21 2-3z"/><path style="opacity:1" fill="#f8d230" d="M87.5 99.5a149.25 149.25 0 0 1 26 5c1.1 1.058 2.434 1.892 4 2.5-.556.383-.889.883-1 1.5h-4a227.874 227.874 0 0 0-27-6v-1c1-.333 1.667-1 2-2z"/><path style="opacity:1" fill="#64b7db" d="M80.5 101.5h5v1a71.917 71.917 0 0 0-9 11 575.787 575.787 0 0 0-5 6 5.727 5.727 0 0 1-3-1 5.728 5.728 0 0 1 1-3 85.596 85.596 0 0 0 11-14z"/><path style="opacity:1" fill="#fcfcfb" d="M85.5 102.5a227.874 227.874 0 0 1 27 6 1856.962 1856.962 0 0 1-33.5 6c-1.07-.028-1.903-.361-2.5-1a71.917 71.917 0 0 1 9-11z"/><path style="opacity:1" fill="#c2ab45" d="M113.5 104.5c2.306.493 4.639.826 7 1a19.22 19.22 0 0 0 6 1v4h-5l-5-2c.111-.617.444-1.117 1-1.5-1.566-.608-2.9-1.442-4-2.5z"/><path style="opacity:1" fill="#ccccc9" d="M112.5 108.5h4l5 2a1384.732 1384.732 0 0 1-50 9c1.677-2.04 3.344-4.04 5-6 .597.639 1.43.972 2.5 1a1856.962 1856.962 0 0 0 33.5-6z"/><path style="opacity:1" fill="#1e1d1c" d="M140.5 111.5h3v13c11.208-.79 15.542 4.376 13 15.5l-.5 10.5c-.718.951-1.551 1.117-2.5.5a220.832 220.832 0 0 1-1.5-20.5c-2.481-1.814-5.315-2.48-8.5-2v23c-1.322.17-2.489-.163-3.5-1a258.982 258.982 0 0 1 .5-39z"/><path style="opacity:1" fill="#1d1b1b" d="M11.5 124.5c3.926-.453 7.092.88 9.5 4a90.496 90.496 0 0 1 0 19c-5.486 5.58-10.486 5.247-15-1-.667-6-.667-12 0-18 1.5-1.969 3.333-3.302 5.5-4z"/><path style="opacity:1" fill="#1b1a19" d="M52.5 124.5c9.681.313 13.348 5.313 11 15h-13c-.445 2.865.221 5.365 2 7.5a57.348 57.348 0 0 1 9 .5c-5.66 5.808-10.493 5.141-14.5-2-.667-5-.667-10 0-15 1.36-2.523 3.193-4.523 5.5-6z"/><path style="opacity:1" fill="#181716" d="M103.5 124.5c10.032.057 13.699 5.057 11 15h-13c-.445 2.865.222 5.365 2 7.5 3.031.495 6.031.329 9-.5-.292 3.504-2.292 5.171-6 5-3.604-.049-6.104-1.716-7.5-5-.667-6-.667-12 0-18 1.397-1.57 2.897-2.904 4.5-4z"/><path style="opacity:1" fill="#1c1b1a" d="M175.5 123.5c1.495-.085 2.495.581 3 2l-10.5 34c-2.285 3.392-5.452 5.059-9.5 5v-4c2.222.322 4.056-.345 5.5-2a90.044 90.044 0 0 0 2.5-9 354 354 0 0 1-7-25c1.322-.17 2.489.163 3.5 1a91.464 91.464 0 0 0 6 18 233.78 233.78 0 0 1 6.5-20z"/><path style="opacity:1" fill="#1f1d1c" d="M184.5 123.5c3.393-.438 6.393.395 9 2.5.88 1.356 1.214 2.856 1 4.5a18.962 18.962 0 0 1-7-3c-2.992.48-4.159 2.147-3.5 5a90.68 90.68 0 0 0 10 8c1.459 9.349-2.374 12.849-11.5 10.5-2.333-1.243-3-2.909-2-5 2.026.463 4.026 1.296 6 2.5 2.555-.222 4.222-1.555 5-4a49.74 49.74 0 0 0-10.5-10c-1.338-4.54-.171-8.207 3.5-11z"/><path style="opacity:1" fill="#1a1818" d="M27.5 124.5c6.113-1.09 11.28.577 15.5 5 .91 6.112.576 12.112-1 18-3.04 3.466-6.874 4.8-11.5 4a72.442 72.442 0 0 1-.5 12c-1.011.837-2.178 1.17-3.5 1a411.206 411.206 0 0 1 1-40z"/><path style="opacity:1" fill="#171615" d="M68.5 124.5c12.383-1.617 17.717 3.717 16 16l-.5 10c-1 1.333-2 1.333-3 0l-1-20c-2.481-1.814-5.315-2.48-8.5-2 .166 7.341 0 14.674-.5 22-1 1.333-2 1.333-3 0a116.517 116.517 0 0 1 .5-26z"/><path style="opacity:1" fill="#201e1e" d="M119.5 124.5a31.818 31.818 0 0 1 12 1.5c1.759 1.008 2.926 2.508 3.5 4.5.903 5.781.57 11.447-1 17-3.04 3.466-6.874 4.8-11.5 4a72.367 72.367 0 0 1-.5 12c-1 1.333-2 1.333-3 0a258.982 258.982 0 0 1 .5-39z"/><path style="opacity:1" fill="#f5f5f5" d="M10.5 128.5a18.452 18.452 0 0 1 6 .5 9.465 9.465 0 0 1 1.5 2.5 42.498 42.498 0 0 1 0 13c-2.178 3.565-4.844 3.899-8 1a53.438 53.438 0 0 1 .5-17zM30.5 128.5c7.328-1.339 10.328 1.661 9 9 1.522 7.687-1.478 11.02-9 10v-19z"/><path style="opacity:1" fill="#f8f8f8" d="M59.5 131.5v4h-9c-.669-5.5 1.665-7.667 7-6.5.88.708 1.547 1.542 2 2.5z"/><path style="opacity:1" fill="#faf9f9" d="M110.5 130.5v5h-8v-5c.812-1.493 2.145-2.16 4-2 1.855-.16 3.188.507 4 2z"/><path style="opacity:1" fill="#fcfcfc" d="M122.5 128.5c7.58-1.253 10.58 1.914 9 9.5 1.58 7.586-1.42 10.753-9 9.5v-19z"/><path style="opacity:1" fill="#8d8c8b" d="M59.5 131.5c.951 1.419 1.285 3.085 1 5-3.542.313-6.875-.021-10-1h9v-4z"/><path style="opacity:1" fill="#969595" d="M102.5 130.5v5h8v-5c.961 1.765 1.295 3.765 1 6h-10c-.295-2.235.039-4.235 1-6z"/></svg>