<svg xmlns="http://www.w3.org/2000/svg" width="150" height="153" style="shape-rendering:geometricPrecision;text-rendering:geometricPrecision;image-rendering:optimizeQuality;fill-rule:evenodd;clip-rule:evenodd"><path style="opacity:1" fill="#fdfdfe" d="M-.5-.5h150v153H-.5V-.5z"/><path style="opacity:1" fill="#9bcdff" d="M64.5 4.5a13.117 13.117 0 0 1 7 1C46.277 25.918 28.443 51.584 18 82.5a473.172 473.172 0 0 0-11.5 37 224.605 224.605 0 0 1 1.5-53c7.638-31.127 26.471-51.794 56.5-62zM73.5 4.5c19.605 1.553 35.772 9.886 48.5 25 11.746 14.559 18.413 31.225 20 50a267.196 267.196 0 0 1-.5 40 350.59 350.59 0 0 0-24.5-67c-10.8-18.135-24.466-33.802-41-47a317.708 317.708 0 0 1-4 52C67.137 80.415 54.97 98.248 35.5 111c-8.278 5.317-17.278 7.984-27 8C33.865 98.772 51.698 73.272 62 42.5a408.331 408.331 0 0 0 11.5-38z"/><path style="opacity:1" fill="#a24674" d="M13.5 129.5c12.128-.748 15.461 4.086 10 14.5-11.415 3.903-15.915.07-13.5-11.5a30.217 30.217 0 0 1 3.5-3z"/><path style="opacity:1" fill="#a34571" d="M34.5 129.5a60.93 60.93 0 0 1 11 .5c3.417 2.321 3.75 4.988 1 8a18.991 18.991 0 0 1-8 1.5c.901 3.741-.432 5.741-4 6v-16z"/><path style="opacity:1" fill="#9b3669" d="M60.5 144.5v-13h-6c2.07-1.309 4.57-1.975 7.5-2l7.5 1a9.86 9.86 0 0 1-6 1v14c-1.291.237-2.291-.096-3-1z"/><path style="opacity:1" fill="#9f3f6e" d="M80.5 129.5c1.478-.262 2.811.071 4 1a48.524 48.524 0 0 1 6 15c-2.315-1.858-4.981-3.191-8-4l-4 .5c-2.493 4.705-3.66 4.538-3.5-.5a97.937 97.937 0 0 1 5.5-12z"/><path style="opacity:1" fill="#9c396a" d="M98.5 129.5a72.367 72.367 0 0 1 12 .5c2.855 3.222 2.521 6.056-1 8.5a10.756 10.756 0 0 0 2.5 3c.781 1.444.614 2.777-.5 4a18.68 18.68 0 0 1-6-6.5 8.43 8.43 0 0 0-4-.5v7h-3v-16z"/><path style="opacity:1" fill="#a24673" d="M123.5 129.5a40.914 40.914 0 0 1 9 .5c2.107 1.264 3.107 3.097 3 5.5a123.204 123.204 0 0 1-7-4c-3.613.128-5.28 1.961-5 5.5-.491 3.535 1.009 5.369 4.5 5.5 2.51-1.075 5.01-2.075 7.5-3 .048 2.792-1.285 4.625-4 5.5-6.803 1.773-10.803-.727-12-7.5.282-3.231 1.615-5.898 4-8z"/><path style="opacity:1" fill="#fbf7f7" d="M15.5 131.5c6.53-.257 8.697 2.743 6.5 9-6.914 4.004-9.914 2.004-9-6a10.51 10.51 0 0 0 2.5-3z"/><path style="opacity:1" fill="#f6f0f5" d="M38.5 131.5c1.7-.16 3.366.006 5 .5 1.333 1.333 1.333 2.667 0 4-1.634.494-3.3.66-5 .5v-5z"/><path style="opacity:1" fill="#d0b9d9" d="M54.5 131.5h6v13c-.983-3.798-1.317-7.798-1-12-1.915.284-3.581-.049-5-1z"/><path style="opacity:1" fill="#f3e6eb" d="M101.5 131.5a18.453 18.453 0 0 1 6 .5c2.092.953 2.425 2.286 1 4-2.31.497-4.643.663-7 .5v-5z"/><path style="opacity:1" fill="#efe0e6" d="M81.5 133.5c2.039 1.411 3.039 3.411 3 6-1.788.285-3.455-.048-5-1a16.062 16.062 0 0 0 2-5z"/></svg>