<?xml version="1.0" encoding="UTF-8"?>
<!DOCTYPE svg PUBLIC "-//W3C//DTD SVG 1.1//EN" "http://www.w3.org/Graphics/SVG/1.1/DTD/svg11.dtd">
<svg xmlns="http://www.w3.org/2000/svg" version="1.1" width="340px" height="340px" style="shape-rendering:geometricPrecision; text-rendering:geometricPrecision; image-rendering:optimizeQuality; fill-rule:evenodd; clip-rule:evenodd" xmlns:xlink="http://www.w3.org/1999/xlink">
<g><path style="opacity:1" fill="#fdfefe" d="M -0.5,-0.5 C 112.833,-0.5 226.167,-0.5 339.5,-0.5C 339.5,50.8333 339.5,102.167 339.5,153.5C 333.748,103.767 310.748,64.1002 270.5,34.5C 266.852,31.3401 262.852,28.6735 258.5,26.5C 222.927,5.0526 184.594,-2.28073 143.5,4.5C 106.685,8.97399 75.3515,24.3073 49.5,50.5C 40.3284,58.6645 32.6617,67.9978 26.5,78.5C 22.4743,84.5496 18.8077,90.8829 15.5,97.5C 11.3844,105.068 8.3844,113.068 6.5,121.5C 5.56552,122.568 5.23219,123.901 5.5,125.5C 3.18592,134.09 1.18592,142.757 -0.5,151.5C -0.5,100.833 -0.5,50.1667 -0.5,-0.5 Z"/></g>
<g><path style="opacity:1" fill="#115eb1" d="M 258.5,26.5 C 259.038,28.1172 259.371,29.7839 259.5,31.5C 256.518,31.9629 253.518,32.2962 250.5,32.5C 208.094,10.4348 164.427,7.6015 119.5,24C 111.316,27.9244 103.316,32.0911 95.5,36.5C 95.4142,35.5041 95.7476,34.6708 96.5,34C 92.0828,33.7064 88.9161,32.2064 87,29.5C 83.7951,32.1 80.6284,32.1 77.5,29.5C 76.5791,31.756 74.9124,32.756 72.5,32.5C 72.8633,34.9115 71.8633,36.4115 69.5,37C 70.6721,37.4186 71.6721,38.0853 72.5,39C 71.6198,40.3561 71.2865,41.8561 71.5,43.5C 70.1667,43.5 68.8333,43.5 67.5,43.5C 67.762,44.9778 67.4287,46.3112 66.5,47.5C 64.7175,45.9775 64.0508,43.9775 64.5,41.5C 63.1266,41.3433 61.7932,41.51 60.5,42C 58.9933,43.7781 58.1599,45.6114 58,47.5C 55.3792,49.0324 52.5459,50.0324 49.5,50.5C 75.3515,24.3073 106.685,8.97399 143.5,4.5C 184.594,-2.28073 222.927,5.0526 258.5,26.5 Z"/></g>
<g><path style="opacity:1" fill="#015eb8" d="M 143.5,4.5 C 159.503,4.33341 175.503,4.50007 191.5,5C 190.5,5.83333 189.5,6.66667 188.5,7.5C 191.03,8.1319 193.363,9.1319 195.5,10.5C 189.548,11.1048 183.548,11.1048 177.5,10.5C 173.082,10.7077 168.749,11.3744 164.5,12.5C 162.519,12.5629 160.852,11.8962 159.5,10.5C 160.651,9.26899 161.817,9.26899 163,10.5C 163.591,9.51654 163.257,8.84987 162,8.5C 158.497,7.27703 154.997,7.27703 151.5,8.5C 152.833,9.16667 154.167,9.83333 155.5,10.5C 152.667,12.535 149.667,12.8683 146.5,11.5C 141.539,14.257 136.206,14.757 130.5,13C 130.198,11.3451 128.864,10.0118 126.5,9C 132.272,7.58112 137.939,6.08112 143.5,4.5 Z"/></g>
<g><path style="opacity:1" fill="#015eb6" d="M 95.5,36.5 C 95.1583,37.3382 94.4916,37.6716 93.5,37.5C 91.742,37.8769 90.0754,38.5435 88.5,39.5C 86.2534,38.6258 83.9201,38.2924 81.5,38.5C 81.5,39.5 81.5,40.5 81.5,41.5C 82.5,41.5 83.5,41.5 84.5,41.5C 84.5,42.5 84.5,43.5 84.5,44.5C 78.1946,49.788 72.8612,55.4547 68.5,61.5C 76.9968,54.6563 85.9968,48.6563 95.5,43.5C 98.1618,42.5014 100.828,41.5014 103.5,40.5C 105.391,41.5361 107.224,41.5361 109,40.5C 110.122,42.4205 110.956,44.4205 111.5,46.5C 105.604,46.8481 105.271,48.0147 110.5,50C 111.252,50.6708 111.586,51.5041 111.5,52.5C 100.662,58.9974 90.9953,66.9974 82.5,76.5C 82.6667,76.8333 82.8333,77.1667 83,77.5C 90.2843,70.7772 98.4509,65.4438 107.5,61.5C 108.695,61.6775 109.862,62.0109 111,62.5C 114.009,60.8192 117.009,59.1525 120,57.5C 121.169,58.0085 122.002,58.8419 122.5,60C 119.879,61.5945 117.213,63.0945 114.5,64.5C 113.833,66.1667 113.167,67.8333 112.5,69.5C 111.808,68.9747 111.308,68.3081 111,67.5C 109.833,68.6667 108.667,69.8333 107.5,71C 108.624,71.2492 109.624,71.7492 110.5,72.5C 108.955,73.4519 107.288,73.7852 105.5,73.5C 105.072,76.5641 104.406,79.5641 103.5,82.5C 101.251,81.7689 99.084,80.7689 97,79.5C 95.9412,79.6301 95.1079,80.1301 94.5,81C 96.0874,82.8448 97.4208,84.8448 98.5,87C 96.7703,88.9955 95.4369,91.1621 94.5,93.5C 96.9893,93.7593 98.656,92.7593 99.5,90.5C 105.355,85.7393 111.688,81.7393 118.5,78.5C 122.664,78.7723 124.497,81.1056 124,85.5C 125.361,87.0284 126.528,88.6951 127.5,90.5C 125.955,91.4519 124.288,91.7852 122.5,91.5C 122.5,93.1667 122.5,94.8333 122.5,96.5C 119.732,99.771 116.732,102.938 113.5,106C 117.534,104.145 121.534,101.979 125.5,99.5C 129.151,99.3902 132.151,98.0568 134.5,95.5C 136.386,96.9301 138.053,98.5968 139.5,100.5C 138.253,102.042 138.253,103.542 139.5,105C 141.657,105.078 143.657,105.245 145.5,105.5C 144.388,106.265 143.721,107.265 143.5,108.5C 139.878,110.787 136.545,113.453 133.5,116.5C 130.605,118.202 128.772,120.536 128,123.5C 130.478,121.361 132.978,119.361 135.5,117.5C 137.5,116.833 139.5,116.167 141.5,115.5C 143.977,116.12 143.977,117.12 141.5,118.5C 142,118.833 142.5,119.167 143,119.5C 144.597,118.115 146.43,117.449 148.5,117.5C 148.5,116.167 148.5,114.833 148.5,113.5C 162.531,112.527 176.531,112.36 190.5,113C 189.833,113.667 189.167,114.333 188.5,115C 189.833,116 189.833,117 188.5,118C 190.5,118.833 192.5,119.667 194.5,120.5C 190.963,120.782 187.296,120.782 183.5,120.5C 180.713,119.523 177.713,119.19 174.5,119.5C 174.168,152.338 174.502,185.004 175.5,217.5C 179.646,218.647 183.98,218.814 188.5,218C 189.025,217.308 189.692,216.808 190.5,216.5C 191.015,218.846 191.348,221.513 191.5,224.5C 189.5,224.5 187.5,224.5 185.5,224.5C 185.5,225.5 185.5,226.5 185.5,227.5C 182.236,228.324 178.902,228.658 175.5,228.5C 175.5,232.167 175.5,235.833 175.5,239.5C 178.625,240.479 181.958,240.813 185.5,240.5C 185.945,243.365 185.278,245.865 183.5,248C 180.635,248.183 177.969,248.683 175.5,249.5C 175.5,253.167 175.5,256.833 175.5,260.5C 175.5,261.167 175.833,261.5 176.5,261.5C 179.358,262.166 182.358,262.833 185.5,263.5C 183.604,264.466 181.604,264.799 179.5,264.5C 179.5,265.5 179.5,266.5 179.5,267.5C 183.971,266.911 187.971,267.577 191.5,269.5C 186.384,270.806 181.051,271.473 175.5,271.5C 175.5,274.833 175.5,278.167 175.5,281.5C 182.202,281.664 188.869,281.331 195.5,280.5C 199.457,280.992 203.123,280.325 206.5,278.5C 209.333,279.933 212.333,280.6 215.5,280.5C 215.5,281.833 215.5,283.167 215.5,284.5C 211.027,285.007 207.027,286.341 203.5,288.5C 200.01,289.257 196.677,290.257 193.5,291.5C 187.523,292.165 181.523,292.498 175.5,292.5C 175.5,296.167 175.5,299.833 175.5,303.5C 187.717,303.14 199.717,301.473 211.5,298.5C 211.579,299.93 211.246,301.264 210.5,302.5C 212.167,303.167 213.833,303.833 215.5,304.5C 214.667,304.833 213.833,305.167 213,305.5C 211.072,305.067 209.239,304.4 207.5,303.5C 203.976,305.295 200.309,306.629 196.5,307.5C 196.5,306.5 196.5,305.5 196.5,304.5C 192.167,304.5 187.833,304.5 183.5,304.5C 183.083,307.079 183.75,309.246 185.5,311C 191.473,310.837 197.473,310.67 203.5,310.5C 194.437,312.802 185.104,314.135 175.5,314.5C 175.5,317.833 175.5,321.167 175.5,324.5C 187.704,324.808 199.704,323.474 211.5,320.5C 209.758,321.957 207.758,323.124 205.5,324C 207.392,324.973 209.392,325.64 211.5,326C 208.991,327.726 206.324,329.226 203.5,330.5C 204.689,331.429 206.022,331.762 207.5,331.5C 203.79,333.136 199.79,333.802 195.5,333.5C 179.512,334.277 163.512,334.611 147.5,334.5C 91.1803,326.766 48.6803,298.432 20,249.5C 16.653,243.812 14.153,237.812 12.5,231.5C 12.8333,228.833 13.1667,226.167 13.5,223.5C 12.5,223.5 11.5,223.5 10.5,223.5C 10.2924,221.08 10.6258,218.747 11.5,216.5C 10.3112,215.571 8.97782,215.238 7.5,215.5C 7.5,211.833 7.5,208.167 7.5,204.5C 6.5,204.5 5.5,204.5 4.5,204.5C 4.5,202.5 4.5,200.5 4.5,198.5C 7.97085,198.101 8.30418,196.601 5.5,194C 6.57425,193.261 7.24092,192.261 7.5,191C 6.23633,187.924 5.23633,184.757 4.5,181.5C 3.68156,184.107 3.18156,186.774 3,189.5C 2.8748,186.262 1.70814,183.595 -0.5,181.5C -0.5,174.167 -0.5,166.833 -0.5,159.5C 0.301916,158.048 0.801916,156.382 1,154.5C 1.33333,156.167 1.66667,157.833 2,159.5C 2.49935,154.177 2.66602,148.844 2.5,143.5C 3.87344,143.657 5.20677,143.49 6.5,143C 5.34633,142.086 5.51299,141.253 7,140.5C 6.99539,135.47 6.49539,130.47 5.5,125.5C 5.23219,123.901 5.56552,122.568 6.5,121.5C 8.09681,120.263 9.26347,118.596 10,116.5C 10.3333,114.5 10.6667,112.5 11,110.5C 11.414,110.957 11.914,111.291 12.5,111.5C 13.0147,107.209 14.3481,103.209 16.5,99.5C 16.4573,98.5836 16.1239,97.9169 15.5,97.5C 18.8077,90.8829 22.4743,84.5496 26.5,78.5C 27.6879,77.3157 28.8545,77.3157 30,78.5C 30.9734,76.6079 31.6401,74.6079 32,72.5C 34.3757,71.6242 35.8757,69.9575 36.5,67.5C 37.1667,67.8333 37.8333,68.1667 38.5,68.5C 39.731,67.3493 39.731,66.1827 38.5,65C 40.8416,62.3443 43.0083,59.511 45,56.5C 45.1858,58.9005 45.6858,61.2338 46.5,63.5C 47.413,59.0559 48.413,54.7226 49.5,50.5C 52.5459,50.0324 55.3792,49.0324 58,47.5C 58.1599,45.6114 58.9933,43.7781 60.5,42C 61.7932,41.51 63.1266,41.3433 64.5,41.5C 64.0508,43.9775 64.7175,45.9775 66.5,47.5C 67.4287,46.3112 67.762,44.9778 67.5,43.5C 68.8333,43.5 70.1667,43.5 71.5,43.5C 71.2865,41.8561 71.6198,40.3561 72.5,39C 71.6721,38.0853 70.6721,37.4186 69.5,37C 71.8633,36.4115 72.8633,34.9115 72.5,32.5C 74.9124,32.756 76.5791,31.756 77.5,29.5C 80.6284,32.1 83.7951,32.1 87,29.5C 88.9161,32.2064 92.0828,33.7064 96.5,34C 95.7476,34.6708 95.4142,35.5041 95.5,36.5 Z"/></g>
<g><path style="opacity:1" fill="#195fa6" d="M 258.5,26.5 C 262.852,28.6735 266.852,31.3401 270.5,34.5C 268.243,34.0383 266.243,33.0383 264.5,31.5C 262.104,33.0666 259.437,33.8999 256.5,34C 258.373,35.0847 260.04,36.418 261.5,38C 264.889,37.8127 268.222,37.9794 271.5,38.5C 269.922,39.2978 268.256,39.7978 266.5,40C 268.075,42.3556 269.741,44.5223 271.5,46.5C 264.635,41.5721 257.635,36.9054 250.5,32.5C 253.518,32.2962 256.518,31.9629 259.5,31.5C 259.371,29.7839 259.038,28.1172 258.5,26.5 Z"/></g>
<g><path style="opacity:1" fill="#145fb0" d="M 183.5,24.5 C 188.414,24.3618 193.081,25.0285 197.5,26.5C 191.335,26.0341 185.335,26.7007 179.5,28.5C 184.902,29.2974 189.902,30.4641 194.5,32C 193.328,32.4186 192.328,33.0853 191.5,34C 193.333,34.1667 195.167,34.3333 197,34.5C 199.793,34.6953 202.293,34.0287 204.5,32.5C 203.289,31.2798 203.289,30.1131 204.5,29C 203.058,28.6232 202.058,27.7899 201.5,26.5C 260.912,40.9127 298.578,77.5794 314.5,136.5C 313.768,135.192 312.934,133.858 312,132.5C 308.014,139.406 307.847,146.573 311.5,154C 310.514,163.75 310.181,173.584 310.5,183.5C 313.238,184.035 315.072,183.035 316,180.5C 317.26,166.092 316.427,152.592 313.5,140C 313.528,138.93 313.861,138.097 314.5,137.5C 318.205,151.138 319.372,165.138 318,179.5C 316.798,195.313 312.964,210.313 306.5,224.5C 306.998,220.781 306.164,217.447 304,214.5C 303.824,217.882 303.324,221.215 302.5,224.5C 301.264,223.754 299.93,223.421 298.5,223.5C 298.5,224.833 298.5,226.167 298.5,227.5C 297.5,227.5 296.5,227.5 295.5,227.5C 301.668,214.828 305.668,201.495 307.5,187.5C 309.034,181.916 309.701,176.083 309.5,170C 309.499,165.653 309.166,161.486 308.5,157.5C 308.638,152.586 307.972,147.919 306.5,143.5C 293.5,88.6641 259.833,53.4975 205.5,38C 188.896,34.3025 172.229,33.8025 155.5,36.5C 139.992,39.668 125.325,45.0013 111.5,52.5C 111.586,51.5041 111.252,50.6708 110.5,50C 105.271,48.0147 105.604,46.8481 111.5,46.5C 110.956,44.4205 110.122,42.4205 109,40.5C 107.224,41.5361 105.391,41.5361 103.5,40.5C 120.026,33.0317 137.36,28.0317 155.5,25.5C 164.815,24.7676 174.148,24.4343 183.5,24.5 Z"/></g>
<g><path style="opacity:1" fill="#1562ab" d="M 93.5,37.5 C 92.8333,38.5 92.1667,39.5 91.5,40.5C 89.0313,41.5686 86.6979,42.9019 84.5,44.5C 84.5,43.5 84.5,42.5 84.5,41.5C 83.5,41.5 82.5,41.5 81.5,41.5C 81.5,40.5 81.5,39.5 81.5,38.5C 83.9201,38.2924 86.2534,38.6258 88.5,39.5C 90.0754,38.5435 91.742,37.8769 93.5,37.5 Z"/></g>
<g><path style="opacity:1" fill="#d7f5fc" d="M 91.5,40.5 C 91.5858,41.4959 91.2524,42.3292 90.5,43C 92.1341,43.4935 93.8008,43.6602 95.5,43.5C 85.9968,48.6563 76.9968,54.6563 68.5,61.5C 72.8612,55.4547 78.1946,49.788 84.5,44.5C 86.6979,42.9019 89.0313,41.5686 91.5,40.5 Z"/></g>
<g><path style="opacity:1" fill="#e9f7fd" d="M 155.5,36.5 C 153.438,37.7763 151.104,38.6097 148.5,39C 148.833,39.3333 149.167,39.6667 149.5,40C 145.054,40.5283 140.721,41.5283 136.5,43C 132.008,48.0687 133.342,49.9021 140.5,48.5C 128.989,51.4646 117.989,55.7979 107.5,61.5C 98.4509,65.4438 90.2843,70.7772 83,77.5C 82.8333,77.1667 82.6667,76.8333 82.5,76.5C 90.9953,66.9974 100.662,58.9974 111.5,52.5C 125.325,45.0013 139.992,39.668 155.5,36.5 Z"/></g>
<g><path style="opacity:1" fill="#155fa7" d="M 49.5,50.5 C 48.413,54.7226 47.413,59.0559 46.5,63.5C 45.6858,61.2338 45.1858,58.9005 45,56.5C 43.0083,59.511 40.8416,62.3443 38.5,65C 39.731,66.1827 39.731,67.3493 38.5,68.5C 37.8333,68.1667 37.1667,67.8333 36.5,67.5C 35.8757,69.9575 34.3757,71.6242 32,72.5C 31.6401,74.6079 30.9734,76.6079 30,78.5C 28.8545,77.3157 27.6879,77.3157 26.5,78.5C 32.6617,67.9978 40.3284,58.6645 49.5,50.5 Z"/></g>
<g><path style="opacity:1" fill="#0f5fb1" d="M 163.5,45.5 C 196.743,43.4733 226.076,52.8066 251.5,73.5C 249.833,73.5 248.167,73.5 246.5,73.5C 245.833,69.5 245.167,69.5 244.5,73.5C 242.473,73.3379 240.473,73.5045 238.5,74C 239.056,74.3826 239.389,74.8826 239.5,75.5C 233.835,73.0031 228.502,70.0031 223.5,66.5C 181.632,48.0583 142.965,52.8917 107.5,81C 104.223,83.7663 101.557,86.933 99.5,90.5C 98.656,92.7593 96.9893,93.7593 94.5,93.5C 95.4369,91.1621 96.7703,88.9955 98.5,87C 97.4208,84.8448 96.0874,82.8448 94.5,81C 95.1079,80.1301 95.9412,79.6301 97,79.5C 99.084,80.7689 101.251,81.7689 103.5,82.5C 104.406,79.5641 105.072,76.5641 105.5,73.5C 107.288,73.7852 108.955,73.4519 110.5,72.5C 109.624,71.7492 108.624,71.2492 107.5,71C 108.667,69.8333 109.833,68.6667 111,67.5C 111.308,68.3081 111.808,68.9747 112.5,69.5C 113.167,67.8333 113.833,66.1667 114.5,64.5C 117.213,63.0945 119.879,61.5945 122.5,60C 122.002,58.8419 121.169,58.0085 120,57.5C 117.009,59.1525 114.009,60.8192 111,62.5C 109.862,62.0109 108.695,61.6775 107.5,61.5C 117.989,55.7979 128.989,51.4646 140.5,48.5C 143.518,48.2962 146.518,47.9629 149.5,47.5C 154.414,47.6382 159.081,46.9715 163.5,45.5 Z"/></g>
<g><path style="opacity:1" fill="#035cb7" d="M 223.5,66.5 C 223.5,65.5 223.5,64.5 223.5,63.5C 220.393,63.6488 217.393,63.1488 214.5,62C 213.167,60.1598 213.334,59.6598 215,60.5C 215.692,59.9747 216.192,59.3081 216.5,58.5C 214.5,57.8333 212.5,57.1667 210.5,56.5C 214.818,55.4596 219.151,55.4596 223.5,56.5C 223.273,62.1167 225.773,64.1167 231,62.5C 232.169,63.0085 233.002,63.8419 233.5,65C 230.274,66.1989 226.941,66.6989 223.5,66.5 Z"/></g>
<g><path style="opacity:1" fill="#0f5eb1" d="M 159.5,67.5 C 170.183,67.4283 180.85,67.7616 191.5,68.5C 196.809,69.0756 201.809,70.409 206.5,72.5C 207.038,74.1172 207.371,75.7839 207.5,77.5C 210.127,76.9084 212.794,76.5751 215.5,76.5C 223.515,79.3445 230.849,83.5111 237.5,89C 242.667,94.1667 247.833,99.3333 253,104.5C 256.483,108.807 259.317,113.473 261.5,118.5C 262.91,124.775 265.244,129.941 268.5,134C 268.077,136.633 266.91,138.799 265,140.5C 263.401,139.929 262.234,138.929 261.5,137.5C 240.952,92.5497 205.952,73.0497 156.5,79C 144.075,82.8536 132.742,88.6869 122.5,96.5C 122.5,94.8333 122.5,93.1667 122.5,91.5C 124.288,91.7852 125.955,91.4519 127.5,90.5C 126.528,88.6951 125.361,87.0284 124,85.5C 124.497,81.1056 122.664,78.7723 118.5,78.5C 131.247,71.8131 144.913,68.1464 159.5,67.5 Z"/></g>
<g><path style="opacity:1" fill="#0e5bb6" d="M 251.5,73.5 C 252.167,73.5 252.5,73.8333 252.5,74.5C 252.414,75.4959 252.748,76.3292 253.5,77C 252.062,77.2189 250.729,77.7189 249.5,78.5C 251.473,79.3311 253.473,79.4978 255.5,79C 257.063,81.4763 256.396,82.9763 253.5,83.5C 251.149,82.8266 248.816,82.1599 246.5,81.5C 243.568,80.2003 241.234,78.2003 239.5,75.5C 239.389,74.8826 239.056,74.3826 238.5,74C 240.473,73.5045 242.473,73.3379 244.5,73.5C 245.167,69.5 245.833,69.5 246.5,73.5C 248.167,73.5 249.833,73.5 251.5,73.5 Z"/></g>
<g><path style="opacity:1" fill="#1960ab" d="M 252.5,74.5 C 259.167,79.1667 264.833,84.8333 269.5,91.5C 267.738,91.3573 266.071,91.6906 264.5,92.5C 263.833,90.8333 263.167,89.1667 262.5,87.5C 262.167,88.6667 261.833,89.8333 261.5,91C 262.773,95.0415 264.439,98.8748 266.5,102.5C 260.536,94.8681 253.869,87.8681 246.5,81.5C 248.816,82.1599 251.149,82.8266 253.5,83.5C 256.396,82.9763 257.063,81.4763 255.5,79C 253.473,79.4978 251.473,79.3311 249.5,78.5C 250.729,77.7189 252.062,77.2189 253.5,77C 252.748,76.3292 252.414,75.4959 252.5,74.5 Z"/></g>
<g><path style="opacity:1" fill="#1862b1" d="M 181.5,88.5 C 170.325,87.8402 159.325,88.8402 148.5,91.5C 148.167,92.1667 147.833,92.8333 147.5,93.5C 151.122,95.7388 152.122,98.7388 150.5,102.5C 151.833,102.5 153.167,102.5 154.5,102.5C 150.909,104.488 147.242,106.488 143.5,108.5C 143.721,107.265 144.388,106.265 145.5,105.5C 143.657,105.245 141.657,105.078 139.5,105C 138.253,103.542 138.253,102.042 139.5,100.5C 138.053,98.5968 136.386,96.9301 134.5,95.5C 132.151,98.0568 129.151,99.3902 125.5,99.5C 142.766,88.9543 161.433,85.2876 181.5,88.5 Z"/></g>
<g><path style="opacity:1" fill="#0e5bbc" d="M 269.5,91.5 C 270.906,91.9731 271.573,92.9731 271.5,94.5C 270.361,97.0037 269.694,99.6703 269.5,102.5C 268.5,102.5 267.5,102.5 266.5,102.5C 264.439,98.8748 262.773,95.0415 261.5,91C 261.833,89.8333 262.167,88.6667 262.5,87.5C 263.167,89.1667 263.833,90.8333 264.5,92.5C 266.071,91.6906 267.738,91.3573 269.5,91.5 Z"/></g>
<g><path style="opacity:1" fill="#1260b2" d="M 270.5,34.5 C 310.748,64.1002 333.748,103.767 339.5,153.5C 339.5,163.167 339.5,172.833 339.5,182.5C 338.573,188.177 337.573,193.844 336.5,199.5C 336.084,190.203 335.917,180.869 336,171.5C 333.357,166.803 332.857,161.803 334.5,156.5C 337.193,154.927 338.026,152.593 337,149.5C 335.989,148.663 334.822,148.33 333.5,148.5C 333.724,144.796 333.89,141.129 334,137.5C 333.047,139.455 331.713,141.122 330,142.5C 330.196,146.791 330.363,151.124 330.5,155.5C 325.285,111.408 305.619,75.0744 271.5,46.5C 269.741,44.5223 268.075,42.3556 266.5,40C 268.256,39.7978 269.922,39.2978 271.5,38.5C 268.222,37.9794 264.889,37.8127 261.5,38C 260.04,36.418 258.373,35.0847 256.5,34C 259.437,33.8999 262.104,33.0666 264.5,31.5C 266.243,33.0383 268.243,34.0383 270.5,34.5 Z"/></g>
<g><path style="opacity:1" fill="#1360b2" d="M 271.5,94.5 C 280.717,105.266 287.051,117.599 290.5,131.5C 290.545,134.077 289.545,136.077 287.5,137.5C 287.905,133.952 287.405,130.619 286,127.5C 285.853,131.088 285.02,134.421 283.5,137.5C 279.337,125.268 273.67,113.602 266.5,102.5C 267.5,102.5 268.5,102.5 269.5,102.5C 269.694,99.6703 270.361,97.0037 271.5,94.5 Z"/></g>
<g><path style="opacity:1" fill="#f6fbfd" d="M 250.5,32.5 C 257.635,36.9054 264.635,41.5721 271.5,46.5C 305.619,75.0744 325.285,111.408 330.5,155.5C 330.5,156.833 330.5,158.167 330.5,159.5C 331.197,177.181 329.197,194.514 324.5,211.5C 324.5,211.833 324.5,212.167 324.5,212.5C 322.796,215.939 321.462,219.605 320.5,223.5C 320.5,223.833 320.5,224.167 320.5,224.5C 314.491,238.179 307.157,251.179 298.5,263.5C 290.534,273.134 281.867,282.134 272.5,290.5C 261.149,299.525 248.815,306.858 235.5,312.5C 227.591,315.802 219.591,318.468 211.5,320.5C 199.704,323.474 187.704,324.808 175.5,324.5C 175.5,321.167 175.5,317.833 175.5,314.5C 185.104,314.135 194.437,312.802 203.5,310.5C 209.836,309.604 215.836,307.937 221.5,305.5C 222.492,305.672 223.158,305.338 223.5,304.5C 253.911,293.807 277.578,274.807 294.5,247.5C 299.786,240.597 303.786,232.931 306.5,224.5C 312.964,210.313 316.798,195.313 318,179.5C 319.372,165.138 318.205,151.138 314.5,137.5C 314.5,137.167 314.5,136.833 314.5,136.5C 298.578,77.5794 260.912,40.9127 201.5,26.5C 200.167,26.5 198.833,26.5 197.5,26.5C 193.081,25.0285 188.414,24.3618 183.5,24.5C 180.016,23.8346 176.349,23.5013 172.5,23.5C 166.591,23.3491 160.925,24.0158 155.5,25.5C 137.36,28.0317 120.026,33.0317 103.5,40.5C 100.828,41.5014 98.1618,42.5014 95.5,43.5C 93.8008,43.6602 92.1341,43.4935 90.5,43C 91.2524,42.3292 91.5858,41.4959 91.5,40.5C 92.1667,39.5 92.8333,38.5 93.5,37.5C 94.4916,37.6716 95.1583,37.3382 95.5,36.5C 103.316,32.0911 111.316,27.9244 119.5,24C 164.427,7.6015 208.094,10.4348 250.5,32.5 Z"/></g>
<g><path style="opacity:1" fill="#045cba" d="M 197.5,26.5 C 198.833,26.5 200.167,26.5 201.5,26.5C 202.058,27.7899 203.058,28.6232 204.5,29C 203.289,30.1131 203.289,31.2798 204.5,32.5C 202.293,34.0287 199.793,34.6953 197,34.5C 195.167,34.3333 193.333,34.1667 191.5,34C 192.328,33.0853 193.328,32.4186 194.5,32C 189.902,30.4641 184.902,29.2974 179.5,28.5C 185.335,26.7007 191.335,26.0341 197.5,26.5 Z"/></g>
<g><path style="opacity:1" fill="#528ec8" d="M 183.5,24.5 C 174.148,24.4343 164.815,24.7676 155.5,25.5C 160.925,24.0158 166.591,23.3491 172.5,23.5C 176.349,23.5013 180.016,23.8346 183.5,24.5 Z"/></g>
<g><path style="opacity:1" fill="#2463a8" d="M 15.5,97.5 C 16.1239,97.9169 16.4573,98.5836 16.5,99.5C 14.3481,103.209 13.0147,107.209 12.5,111.5C 11.914,111.291 11.414,110.957 11,110.5C 10.6667,112.5 10.3333,114.5 10,116.5C 9.26347,118.596 8.09681,120.263 6.5,121.5C 8.3844,113.068 11.3844,105.068 15.5,97.5 Z"/></g>
<g><path style="opacity:1" fill="#1260ae" d="M 212.5,124.5 C 206.788,124.586 205.121,127.253 207.5,132.5C 200.585,126.526 192.585,122.859 183.5,121.5C 183.5,121.167 183.5,120.833 183.5,120.5C 187.296,120.782 190.963,120.782 194.5,120.5C 192.5,119.667 190.5,118.833 188.5,118C 189.833,117 189.833,116 188.5,115C 189.167,114.333 189.833,113.667 190.5,113C 176.531,112.36 162.531,112.527 148.5,113.5C 148.5,114.833 148.5,116.167 148.5,117.5C 146.43,117.449 144.597,118.115 143,119.5C 142.5,119.167 142,118.833 141.5,118.5C 143.977,117.12 143.977,116.12 141.5,115.5C 160.663,107.732 179.997,107.566 199.5,115C 204.256,117.699 208.589,120.866 212.5,124.5 Z"/></g>
<g><path style="opacity:1" fill="#1a62b0" d="M 185.5,88.5 C 219.162,95.6572 241.328,115.657 252,148.5C 255.056,160.277 255.222,171.943 252.5,183.5C 253.464,168.802 251.964,154.469 248,140.5C 247.333,141.833 246.667,143.167 246,144.5C 245.29,143.027 244.124,142.36 242.5,142.5C 243.159,145.455 243.492,148.455 243.5,151.5C 227.938,110.714 198.605,94.3808 155.5,102.5C 157.364,100.782 159.697,99.615 162.5,99C 175.169,98.4866 187.836,97.9866 200.5,97.5C 200.9,94.2391 199.733,93.5724 197,95.5C 194.513,93.5962 191.846,92.9295 189,93.5C 187.341,92.1843 186.175,90.5176 185.5,88.5 Z"/></g>
<g><path style="opacity:1" fill="#adddfa" d="M 133.5,116.5 C 133.842,117.338 134.508,117.672 135.5,117.5C 132.978,119.361 130.478,121.361 128,123.5C 128.772,120.536 130.605,118.202 133.5,116.5 Z"/></g>
<g><path style="opacity:1" fill="#fcfefe" d="M 183.5,121.5 C 192.585,122.859 200.585,126.526 207.5,132.5C 213.818,138.791 218.484,146.125 221.5,154.5C 224.132,164.141 224.132,173.808 221.5,183.5C 215.002,201.669 202.335,212.669 183.5,216.5C 181.167,216.5 178.833,216.5 176.5,216.5C 176.5,184.833 176.5,153.167 176.5,121.5C 178.833,121.5 181.167,121.5 183.5,121.5 Z"/></g>
<g><path style="opacity:1" fill="#2a6fb1" d="M 183.5,120.5 C 180.833,120.5 178.167,120.5 175.5,120.5C 175.5,152.833 175.5,185.167 175.5,217.5C 174.502,185.004 174.168,152.338 174.5,119.5C 177.713,119.19 180.713,119.523 183.5,120.5 Z"/></g>
<g><path style="opacity:1" fill="#e3fcff" d="M 183.5,120.5 C 183.5,120.833 183.5,121.167 183.5,121.5C 181.167,121.5 178.833,121.5 176.5,121.5C 176.5,153.167 176.5,184.833 176.5,216.5C 178.833,216.5 181.167,216.5 183.5,216.5C 181.052,217.473 178.385,217.806 175.5,217.5C 175.5,185.167 175.5,152.833 175.5,120.5C 178.167,120.5 180.833,120.5 183.5,120.5 Z"/></g>
<g><path style="opacity:1" fill="#f5fbfd" d="M 306.5,143.5 C 306.362,148.414 307.028,153.081 308.5,157.5C 308.666,167.524 308.332,177.524 307.5,187.5C 305.668,201.495 301.668,214.828 295.5,227.5C 293.421,231.993 291.088,236.326 288.5,240.5C 269.686,268.987 244.02,288.32 211.5,298.5C 199.717,301.473 187.717,303.14 175.5,303.5C 175.5,299.833 175.5,296.167 175.5,292.5C 181.523,292.498 187.523,292.165 193.5,291.5C 197.924,291.728 201.924,290.728 205.5,288.5C 212.63,286.794 219.297,284.128 225.5,280.5C 252.371,268.463 272.204,249.13 285,222.5C 289.077,212.436 292.244,202.102 294.5,191.5C 295.317,189.031 295.817,186.365 296,183.5C 296.667,172.833 296.667,162.167 296,151.5C 295.351,144.377 293.518,137.711 290.5,131.5C 287.051,117.599 280.717,105.266 271.5,94.5C 271.573,92.9731 270.906,91.9731 269.5,91.5C 264.833,84.8333 259.167,79.1667 252.5,74.5C 252.5,73.8333 252.167,73.5 251.5,73.5C 226.076,52.8066 196.743,43.4733 163.5,45.5C 158.586,45.3618 153.919,46.0285 149.5,47.5C 146.518,47.9629 143.518,48.2962 140.5,48.5C 133.342,49.9021 132.008,48.0687 136.5,43C 140.721,41.5283 145.054,40.5283 149.5,40C 149.167,39.6667 148.833,39.3333 148.5,39C 151.104,38.6097 153.438,37.7763 155.5,36.5C 172.229,33.8025 188.896,34.3025 205.5,38C 259.833,53.4975 293.5,88.6641 306.5,143.5 Z"/></g>
<g><path style="opacity:1" fill="#437cb3" d="M 163.5,45.5 C 159.081,46.9715 154.414,47.6382 149.5,47.5C 153.919,46.0285 158.586,45.3618 163.5,45.5 Z"/></g>
<g><path style="opacity:1" fill="#1e64b0" d="M 5.5,125.5 C 6.49539,130.47 6.99539,135.47 7,140.5C 5.51299,141.253 5.34633,142.086 6.5,143C 5.20677,143.49 3.87344,143.657 2.5,143.5C 2.66602,148.844 2.49935,154.177 2,159.5C 1.66667,157.833 1.33333,156.167 1,154.5C 0.801916,156.382 0.301916,158.048 -0.5,159.5C -0.5,156.833 -0.5,154.167 -0.5,151.5C 1.18592,142.757 3.18592,134.09 5.5,125.5 Z"/></g>
<g><path style="opacity:1" fill="#f4fbfd" d="M 243.5,151.5 C 243.833,154.167 244.167,156.833 244.5,159.5C 246.395,195.069 231.395,220.403 199.5,235.5C 198.833,235.5 198.167,235.5 197.5,235.5C 190.333,237.695 183,239.028 175.5,239.5C 175.5,235.833 175.5,232.167 175.5,228.5C 178.902,228.658 182.236,228.324 185.5,227.5C 209.115,221.55 224.115,206.884 230.5,183.5C 236.114,161.955 231.114,143.289 215.5,127.5C 214.833,126.167 213.833,125.167 212.5,124.5C 208.589,120.866 204.256,117.699 199.5,115C 179.997,107.566 160.663,107.732 141.5,115.5C 139.5,116.167 137.5,116.833 135.5,117.5C 134.508,117.672 133.842,117.338 133.5,116.5C 136.545,113.453 139.878,110.787 143.5,108.5C 147.242,106.488 150.909,104.488 154.5,102.5C 154.833,102.5 155.167,102.5 155.5,102.5C 198.605,94.3808 227.938,110.714 243.5,151.5 Z"/></g>
<g><path style="opacity:1" fill="#2365ac" d="M 261.5,118.5 C 267.04,125.922 270.707,134.256 272.5,143.5C 271.18,142.058 269.514,141.392 267.5,141.5C 266.076,143.485 265.076,146.152 264.5,149.5C 263.51,145.614 262.51,141.614 261.5,137.5C 262.234,138.929 263.401,139.929 265,140.5C 266.91,138.799 268.077,136.633 268.5,134C 265.244,129.941 262.91,124.775 261.5,118.5 Z"/></g>
<g><path style="opacity:1" fill="#125cb3" d="M 212.5,124.5 C 213.833,125.167 214.833,126.167 215.5,127.5C 216.048,129.394 217.048,131.06 218.5,132.5C 218.023,133.478 217.357,134.311 216.5,135C 218.218,135.346 219.885,135.846 221.5,136.5C 225.2,141.074 225.867,145.907 223.5,151C 223.603,152.561 223.937,154.061 224.5,155.5C 224.167,155.833 223.833,156.167 223.5,156.5C 222.818,155.757 222.151,155.091 221.5,154.5C 218.484,146.125 213.818,138.791 207.5,132.5C 205.121,127.253 206.788,124.586 212.5,124.5 Z"/></g>
<g><path style="opacity:1" fill="#f5fbfd" d="M 223.5,66.5 C 228.502,70.0031 233.835,73.0031 239.5,75.5C 241.234,78.2003 243.568,80.2003 246.5,81.5C 253.869,87.8681 260.536,94.8681 266.5,102.5C 273.67,113.602 279.337,125.268 283.5,137.5C 283.5,138.167 283.5,138.833 283.5,139.5C 287.602,155.266 288.602,171.266 286.5,187.5C 277.797,228.856 254.13,257.856 215.5,274.5C 208.71,276.525 202.043,278.525 195.5,280.5C 188.869,281.331 182.202,281.664 175.5,281.5C 175.5,278.167 175.5,274.833 175.5,271.5C 181.051,271.473 186.384,270.806 191.5,269.5C 220.925,264.062 243.592,248.728 259.5,223.5C 267.843,210.853 272.843,196.853 274.5,181.5C 275.166,177.347 275.499,173.013 275.5,168.5C 275.68,161.928 275.014,155.595 273.5,149.5C 273.483,147.435 273.15,145.435 272.5,143.5C 270.707,134.256 267.04,125.922 261.5,118.5C 259.317,113.473 256.483,108.807 253,104.5C 247.833,99.3333 242.667,94.1667 237.5,89C 230.849,83.5111 223.515,79.3445 215.5,76.5C 212.943,74.3926 209.943,73.0592 206.5,72.5C 201.809,70.409 196.809,69.0756 191.5,68.5C 185.405,66.9865 179.072,66.3198 172.5,66.5C 167.987,66.5009 163.653,66.8343 159.5,67.5C 144.913,68.1464 131.247,71.8131 118.5,78.5C 111.688,81.7393 105.355,85.7393 99.5,90.5C 101.557,86.933 104.223,83.7663 107.5,81C 142.965,52.8917 181.632,48.0583 223.5,66.5 Z"/></g>
<g><path style="opacity:1" fill="#1d61a9" d="M 206.5,72.5 C 209.943,73.0592 212.943,74.3926 215.5,76.5C 212.794,76.5751 210.127,76.9084 207.5,77.5C 207.371,75.7839 207.038,74.1172 206.5,72.5 Z"/></g>
<g><path style="opacity:1" fill="#3b73ac" d="M 159.5,67.5 C 163.653,66.8343 167.987,66.5009 172.5,66.5C 179.072,66.3198 185.405,66.9865 191.5,68.5C 180.85,67.7616 170.183,67.4283 159.5,67.5 Z"/></g>
<g><path style="opacity:1" fill="#1b62ad" d="M 215.5,127.5 C 231.114,143.289 236.114,161.955 230.5,183.5C 230.5,176.167 230.5,168.833 230.5,161.5C 228.5,161.5 226.5,161.5 224.5,161.5C 224.666,167.842 224.5,174.175 224,180.5C 223.148,181.571 222.315,182.571 221.5,183.5C 224.132,173.808 224.132,164.141 221.5,154.5C 222.151,155.091 222.818,155.757 223.5,156.5C 223.833,156.167 224.167,155.833 224.5,155.5C 223.937,154.061 223.603,152.561 223.5,151C 225.867,145.907 225.2,141.074 221.5,136.5C 219.885,135.846 218.218,135.346 216.5,135C 217.357,134.311 218.023,133.478 218.5,132.5C 217.048,131.06 216.048,129.394 215.5,127.5 Z"/></g>
<g><path style="opacity:1" fill="#2d6aa9" d="M 283.5,139.5 C 284.458,139.953 285.292,140.619 286,141.5C 288.298,155.413 288.964,169.413 288,183.5C 287.79,185.058 287.29,186.391 286.5,187.5C 288.602,171.266 287.602,155.266 283.5,139.5 Z"/></g>
<g><path style="opacity:1" fill="#0e5eb0" d="M 272.5,143.5 C 273.15,145.435 273.483,147.435 273.5,149.5C 274.196,160.152 274.53,170.819 274.5,181.5C 272.843,196.853 267.843,210.853 259.5,223.5C 259.232,220.881 259.565,218.381 260.5,216C 259.5,215.5 258.5,215 257.5,214.5C 256.083,216.261 254.417,217.594 252.5,218.5C 264.637,196.943 268.637,173.943 264.5,149.5C 265.076,146.152 266.076,143.485 267.5,141.5C 269.514,141.392 271.18,142.058 272.5,143.5 Z"/></g>
<g><path style="opacity:1" fill="#b1d5f1" d="M 306.5,143.5 C 307.972,147.919 308.638,152.586 308.5,157.5C 307.028,153.081 306.362,148.414 306.5,143.5 Z"/></g>
<g><path style="opacity:1" fill="#035db9" d="M 252.5,183.5 C 252.5,183.833 252.5,184.167 252.5,184.5C 251.542,184.953 250.708,185.619 250,186.5C 249.503,189.146 249.336,191.813 249.5,194.5C 246.512,194.845 245.179,193.512 245.5,190.5C 247.115,180.752 248.448,170.919 249.5,161C 249.625,157.645 249.125,154.478 248,151.5C 247.503,154.146 247.336,156.813 247.5,159.5C 246.5,159.5 245.5,159.5 244.5,159.5C 244.167,156.833 243.833,154.167 243.5,151.5C 243.492,148.455 243.159,145.455 242.5,142.5C 244.124,142.36 245.29,143.027 246,144.5C 246.667,143.167 247.333,141.833 248,140.5C 251.964,154.469 253.464,168.802 252.5,183.5 Z"/></g>
<g><path style="opacity:1" fill="#015cb8" d="M 314.5,136.5 C 314.5,136.833 314.5,137.167 314.5,137.5C 313.861,138.097 313.528,138.93 313.5,140C 316.427,152.592 317.26,166.092 316,180.5C 315.072,183.035 313.238,184.035 310.5,183.5C 310.181,173.584 310.514,163.75 311.5,154C 307.847,146.573 308.014,139.406 312,132.5C 312.934,133.858 313.768,135.192 314.5,136.5 Z"/></g>
<g><path style="opacity:1" fill="#2263a9" d="M 290.5,131.5 C 293.518,137.711 295.351,144.377 296,151.5C 296.667,162.167 296.667,172.833 296,183.5C 295.817,186.365 295.317,189.031 294.5,191.5C 294.833,174.803 294.333,158.137 293,141.5C 291.921,139.606 290.587,139.273 289,140.5C 287.961,139.756 287.461,138.756 287.5,137.5C 289.545,136.077 290.545,134.077 290.5,131.5 Z"/></g>
<g><path style="opacity:1" fill="#4681bc" d="M 273.5,149.5 C 275.014,155.595 275.68,161.928 275.5,168.5C 275.499,173.013 275.166,177.347 274.5,181.5C 274.53,170.819 274.196,160.152 273.5,149.5 Z"/></g>
<g><path style="opacity:1" fill="#6b9ecf" d="M 308.5,157.5 C 309.166,161.486 309.499,165.653 309.5,170C 309.701,176.083 309.034,181.916 307.5,187.5C 308.332,177.524 308.666,167.524 308.5,157.5 Z"/></g>
<g><path style="opacity:1" fill="#2162a9" d="M 330.5,159.5 C 331.235,166.349 331.902,173.349 332.5,180.5C 330.878,185.683 330.045,191.016 330,196.5C 328.603,201.904 326.77,206.904 324.5,211.5C 329.197,194.514 331.197,177.181 330.5,159.5 Z"/></g>
<g><path style="opacity:1" fill="#045cb6" d="M 336.5,199.5 C 335.868,203.702 334.868,207.702 333.5,211.5C 332.85,211.804 332.183,212.137 331.5,212.5C 330.775,216.255 329.775,219.922 328.5,223.5C 325.196,220.653 323.862,216.986 324.5,212.5C 324.5,212.167 324.5,211.833 324.5,211.5C 326.77,206.904 328.603,201.904 330,196.5C 330.045,191.016 330.878,185.683 332.5,180.5C 331.902,173.349 331.235,166.349 330.5,159.5C 330.5,158.167 330.5,156.833 330.5,155.5C 330.363,151.124 330.196,146.791 330,142.5C 331.713,141.122 333.047,139.455 334,137.5C 333.89,141.129 333.724,144.796 333.5,148.5C 334.822,148.33 335.989,148.663 337,149.5C 338.026,152.593 337.193,154.927 334.5,156.5C 332.857,161.803 333.357,166.803 336,171.5C 335.917,180.869 336.084,190.203 336.5,199.5 Z"/></g>
<g><path style="opacity:1" fill="#1860ae" d="M 252.5,184.5 C 246.323,213.679 229.323,233.679 201.5,244.5C 201.343,243.127 201.51,241.793 202,240.5C 204.045,239.113 206.212,237.946 208.5,237C 207.929,235.795 207.262,234.628 206.5,233.5C 204.49,235.171 202.157,235.838 199.5,235.5C 231.395,220.403 246.395,195.069 244.5,159.5C 245.5,159.5 246.5,159.5 247.5,159.5C 247.336,156.813 247.503,154.146 248,151.5C 249.125,154.478 249.625,157.645 249.5,161C 248.448,170.919 247.115,180.752 245.5,190.5C 245.179,193.512 246.512,194.845 249.5,194.5C 249.336,191.813 249.503,189.146 250,186.5C 250.708,185.619 251.542,184.953 252.5,184.5 Z"/></g>
<g><path style="opacity:1" fill="#fcfefe" d="M 339.5,182.5 C 339.5,234.833 339.5,287.167 339.5,339.5C 226.167,339.5 112.833,339.5 -0.5,339.5C -0.5,288.167 -0.5,236.833 -0.5,185.5C 1.77207,196.42 4.27207,207.42 7,218.5C 8.35737,223.194 10.1907,227.528 12.5,231.5C 14.153,237.812 16.653,243.812 20,249.5C 48.6803,298.432 91.1803,326.766 147.5,334.5C 161.327,335.661 175.327,335.827 189.5,335C 191.708,334.809 193.708,334.309 195.5,333.5C 199.79,333.802 203.79,333.136 207.5,331.5C 208.167,331.5 208.833,331.5 209.5,331.5C 218.921,329.471 227.921,326.471 236.5,322.5C 253.581,316.4 268.581,307.067 281.5,294.5C 287.108,290.561 292.108,285.894 296.5,280.5C 299.209,277.792 301.542,274.792 303.5,271.5C 313.445,259.959 321.112,246.959 326.5,232.5C 329.804,225.921 332.138,218.921 333.5,211.5C 334.868,207.702 335.868,203.702 336.5,199.5C 337.573,193.844 338.573,188.177 339.5,182.5 Z"/></g>
<g><path style="opacity:1" fill="#115eb0" d="M 230.5,183.5 C 224.115,206.884 209.115,221.55 185.5,227.5C 185.5,226.5 185.5,225.5 185.5,224.5C 187.5,224.5 189.5,224.5 191.5,224.5C 191.348,221.513 191.015,218.846 190.5,216.5C 189.692,216.808 189.025,217.308 188.5,218C 183.98,218.814 179.646,218.647 175.5,217.5C 178.385,217.806 181.052,217.473 183.5,216.5C 202.335,212.669 215.002,201.669 221.5,183.5C 222.315,182.571 223.148,181.571 224,180.5C 224.5,174.175 224.666,167.842 224.5,161.5C 226.5,161.5 228.5,161.5 230.5,161.5C 230.5,168.833 230.5,176.167 230.5,183.5 Z"/></g>
<g><path style="opacity:1" fill="#f5fbfd" d="M 261.5,137.5 C 262.51,141.614 263.51,145.614 264.5,149.5C 268.637,173.943 264.637,196.943 252.5,218.5C 240.599,236.057 224.599,248.391 204.5,255.5C 202.167,256.167 199.833,256.833 197.5,257.5C 190.489,258.057 183.489,258.724 176.5,259.5C 176.5,256.833 176.5,254.167 176.5,251.5C 183.323,251.756 189.656,250.423 195.5,247.5C 197.5,246.5 199.5,245.5 201.5,244.5C 229.323,233.679 246.323,213.679 252.5,184.5C 252.5,184.167 252.5,183.833 252.5,183.5C 255.222,171.943 255.056,160.277 252,148.5C 241.328,115.657 219.162,95.6572 185.5,88.5C 184.167,88.5 182.833,88.5 181.5,88.5C 161.433,85.2876 142.766,88.9543 125.5,99.5C 121.534,101.979 117.534,104.145 113.5,106C 116.732,102.938 119.732,99.771 122.5,96.5C 132.742,88.6869 144.075,82.8536 156.5,79C 205.952,73.0497 240.952,92.5497 261.5,137.5 Z"/></g>
<g><path style="opacity:1" fill="#025db6" d="M 181.5,88.5 C 182.833,88.5 184.167,88.5 185.5,88.5C 186.175,90.5176 187.341,92.1843 189,93.5C 191.846,92.9295 194.513,93.5962 197,95.5C 199.733,93.5724 200.9,94.2391 200.5,97.5C 187.836,97.9866 175.169,98.4866 162.5,99C 159.697,99.615 157.364,100.782 155.5,102.5C 155.167,102.5 154.833,102.5 154.5,102.5C 153.167,102.5 151.833,102.5 150.5,102.5C 152.122,98.7388 151.122,95.7388 147.5,93.5C 147.833,92.8333 148.167,92.1667 148.5,91.5C 159.325,88.8402 170.325,87.8402 181.5,88.5 Z"/></g>
<g><path style="opacity:1" fill="#0e5eac" d="M -0.5,181.5 C 1.70814,183.595 2.8748,186.262 3,189.5C 3.18156,186.774 3.68156,184.107 4.5,181.5C 5.23633,184.757 6.23633,187.924 7.5,191C 7.24092,192.261 6.57425,193.261 5.5,194C 8.30418,196.601 7.97085,198.101 4.5,198.5C 4.5,200.5 4.5,202.5 4.5,204.5C 5.5,204.5 6.5,204.5 7.5,204.5C 7.5,208.167 7.5,211.833 7.5,215.5C 8.97782,215.238 10.3112,215.571 11.5,216.5C 10.6258,218.747 10.2924,221.08 10.5,223.5C 11.5,223.5 12.5,223.5 13.5,223.5C 13.1667,226.167 12.8333,228.833 12.5,231.5C 10.1907,227.528 8.35737,223.194 7,218.5C 4.27207,207.42 1.77207,196.42 -0.5,185.5C -0.5,184.167 -0.5,182.833 -0.5,181.5 Z"/></g>
<g><path style="opacity:1" fill="#055cbe" d="M 259.5,223.5 C 254.798,226.201 252.465,224.535 252.5,218.5C 254.417,217.594 256.083,216.261 257.5,214.5C 258.5,215 259.5,215.5 260.5,216C 259.565,218.381 259.232,220.881 259.5,223.5 Z"/></g>
<g><path style="opacity:1" fill="#1c62ab" d="M 333.5,211.5 C 332.138,218.921 329.804,225.921 326.5,232.5C 326.5,229.833 326.5,227.167 326.5,224.5C 325.5,224.5 324.5,224.5 323.5,224.5C 323.649,223.448 323.483,222.448 323,221.5C 322.292,222.381 321.458,223.047 320.5,223.5C 321.462,219.605 322.796,215.939 324.5,212.5C 323.862,216.986 325.196,220.653 328.5,223.5C 329.775,219.922 330.775,216.255 331.5,212.5C 332.183,212.137 332.85,211.804 333.5,211.5 Z"/></g>
<g><path style="opacity:1" fill="#025db8" d="M 326.5,232.5 C 324.286,234.576 322.786,237.242 322,240.5C 321.667,240.167 321.333,239.833 321,239.5C 320,241.167 319,242.833 318,244.5C 316.56,243.07 316.226,241.403 317,239.5C 321.161,235.186 322.328,230.186 320.5,224.5C 320.5,224.167 320.5,223.833 320.5,223.5C 321.458,223.047 322.292,222.381 323,221.5C 323.483,222.448 323.649,223.448 323.5,224.5C 324.5,224.5 325.5,224.5 326.5,224.5C 326.5,227.167 326.5,229.833 326.5,232.5 Z"/></g>
<g><path style="opacity:1" fill="#105fb2" d="M 287.5,137.5 C 287.461,138.756 287.961,139.756 289,140.5C 290.587,139.273 291.921,139.606 293,141.5C 294.333,158.137 294.833,174.803 294.5,191.5C 292.244,202.102 289.077,212.436 285,222.5C 272.204,249.13 252.371,268.463 225.5,280.5C 220.648,279.886 215.982,278.72 211.5,277C 213.32,276.8 214.653,275.966 215.5,274.5C 254.13,257.856 277.797,228.856 286.5,187.5C 287.29,186.391 287.79,185.058 288,183.5C 288.964,169.413 288.298,155.413 286,141.5C 285.292,140.619 284.458,139.953 283.5,139.5C 283.5,138.833 283.5,138.167 283.5,137.5C 285.02,134.421 285.853,131.088 286,127.5C 287.405,130.619 287.905,133.952 287.5,137.5 Z"/></g>
<g><path style="opacity:1" fill="#035ebd" d="M 201.5,244.5 C 198.167,244.833 194.833,245.167 191.5,245.5C 191.5,244.167 191.5,242.833 191.5,241.5C 194.01,241.009 196.344,240.009 198.5,238.5C 197.873,237.583 197.539,236.583 197.5,235.5C 198.167,235.5 198.833,235.5 199.5,235.5C 202.157,235.838 204.49,235.171 206.5,233.5C 207.262,234.628 207.929,235.795 208.5,237C 206.212,237.946 204.045,239.113 202,240.5C 201.51,241.793 201.343,243.127 201.5,244.5 Z"/></g>
<g><path style="opacity:1" fill="#1861ad" d="M 197.5,235.5 C 197.539,236.583 197.873,237.583 198.5,238.5C 196.344,240.009 194.01,241.009 191.5,241.5C 191.5,242.833 191.5,244.167 191.5,245.5C 194.833,245.167 198.167,244.833 201.5,244.5C 199.5,245.5 197.5,246.5 195.5,247.5C 188.937,249.047 182.27,249.714 175.5,249.5C 177.969,248.683 180.635,248.183 183.5,248C 185.278,245.865 185.945,243.365 185.5,240.5C 181.958,240.813 178.625,240.479 175.5,239.5C 183,239.028 190.333,237.695 197.5,235.5 Z"/></g>
<g><path style="opacity:1" fill="#0c5cb3" d="M 306.5,224.5 C 303.786,232.931 299.786,240.597 294.5,247.5C 292.801,248.511 291.301,249.845 290,251.5C 289.228,251.355 288.561,251.022 288,250.5C 287.612,247.151 287.779,243.817 288.5,240.5C 291.088,236.326 293.421,231.993 295.5,227.5C 296.5,227.5 297.5,227.5 298.5,227.5C 298.5,226.167 298.5,224.833 298.5,223.5C 299.93,223.421 301.264,223.754 302.5,224.5C 303.324,221.215 303.824,217.882 304,214.5C 306.164,217.447 306.998,220.781 306.5,224.5 Z"/></g>
<g><path style="opacity:1" fill="#0f5fb1" d="M 252.5,218.5 C 252.465,224.535 254.798,226.201 259.5,223.5C 243.592,248.728 220.925,264.062 191.5,269.5C 187.971,267.577 183.971,266.911 179.5,267.5C 179.5,266.5 179.5,265.5 179.5,264.5C 181.604,264.799 183.604,264.466 185.5,263.5C 182.358,262.833 179.358,262.166 176.5,261.5C 184.228,261.136 191.894,261.136 199.5,261.5C 199.5,260.5 199.5,259.5 199.5,258.5C 201.989,258.759 203.656,257.759 204.5,255.5C 224.599,248.391 240.599,236.057 252.5,218.5 Z"/></g>
<g><path style="opacity:1" fill="#daf5fb" d="M 195.5,247.5 C 189.656,250.423 183.323,251.756 176.5,251.5C 176.5,254.167 176.5,256.833 176.5,259.5C 183.489,258.724 190.489,258.057 197.5,257.5C 190.424,259.415 183.091,260.415 175.5,260.5C 175.5,256.833 175.5,253.167 175.5,249.5C 182.27,249.714 188.937,249.047 195.5,247.5 Z"/></g>
<g><path style="opacity:1" fill="#2263a4" d="M 204.5,255.5 C 203.656,257.759 201.989,258.759 199.5,258.5C 199.5,259.5 199.5,260.5 199.5,261.5C 191.894,261.136 184.228,261.136 176.5,261.5C 175.833,261.5 175.5,261.167 175.5,260.5C 183.091,260.415 190.424,259.415 197.5,257.5C 199.833,256.833 202.167,256.167 204.5,255.5 Z"/></g>
<g><path style="opacity:1" fill="#145fad" d="M 320.5,224.5 C 322.328,230.186 321.161,235.186 317,239.5C 316.226,241.403 316.56,243.07 318,244.5C 319,242.833 320,241.167 321,239.5C 321.333,239.833 321.667,240.167 322,240.5C 322.786,237.242 324.286,234.576 326.5,232.5C 321.112,246.959 313.445,259.959 303.5,271.5C 303.022,268.722 304.022,266.722 306.5,265.5C 305.139,263.972 303.972,262.305 303,260.5C 302.517,261.448 302.351,262.448 302.5,263.5C 301.167,263.5 299.833,263.5 298.5,263.5C 307.157,251.179 314.491,238.179 320.5,224.5 Z"/></g>
<g><path style="opacity:1" fill="#1a62ac" d="M 215.5,274.5 C 214.653,275.966 213.32,276.8 211.5,277C 215.982,278.72 220.648,279.886 225.5,280.5C 219.297,284.128 212.63,286.794 205.5,288.5C 204.833,288.5 204.167,288.5 203.5,288.5C 207.027,286.341 211.027,285.007 215.5,284.5C 215.5,283.167 215.5,281.833 215.5,280.5C 212.333,280.6 209.333,279.933 206.5,278.5C 203.123,280.325 199.457,280.992 195.5,280.5C 202.043,278.525 208.71,276.525 215.5,274.5 Z"/></g>
<g><path style="opacity:1" fill="#1c61a9" d="M 296.5,280.5 C 292.108,285.894 287.108,290.561 281.5,294.5C 280.34,292.797 281.007,292.131 283.5,292.5C 282.833,285.833 285.833,282.833 292.5,283.5C 292.5,282.5 292.5,281.5 292.5,280.5C 293.833,280.5 295.167,280.5 296.5,280.5 Z"/></g>
<g><path style="opacity:1" fill="#2762a5" d="M 298.5,263.5 C 295.366,270.147 290.866,275.813 285,280.5C 284.598,281.872 284.098,283.205 283.5,284.5C 279.823,286.518 276.156,288.518 272.5,290.5C 281.867,282.134 290.534,273.134 298.5,263.5 Z"/></g>
<g><path style="opacity:1" fill="#125faf" d="M 288.5,240.5 C 287.779,243.817 287.612,247.151 288,250.5C 288.561,251.022 289.228,251.355 290,251.5C 291.301,249.845 292.801,248.511 294.5,247.5C 277.578,274.807 253.911,293.807 223.5,304.5C 221.162,303.318 219.162,301.652 217.5,299.5C 215.591,298.652 213.591,298.318 211.5,298.5C 244.02,288.32 269.686,268.987 288.5,240.5 Z"/></g>
<g><path style="opacity:1" fill="#b1d6f0" d="M 203.5,288.5 C 204.167,288.5 204.833,288.5 205.5,288.5C 201.924,290.728 197.924,291.728 193.5,291.5C 196.677,290.257 200.01,289.257 203.5,288.5 Z"/></g>
<g><path style="opacity:1" fill="#105eb3" d="M 303.5,271.5 C 301.542,274.792 299.209,277.792 296.5,280.5C 295.167,280.5 293.833,280.5 292.5,280.5C 292.5,281.5 292.5,282.5 292.5,283.5C 285.833,282.833 282.833,285.833 283.5,292.5C 281.007,292.131 280.34,292.797 281.5,294.5C 268.581,307.067 253.581,316.4 236.5,322.5C 234.833,322.5 233.167,322.5 231.5,322.5C 231.5,321.5 231.5,320.5 231.5,319.5C 232.873,319.657 234.207,319.49 235.5,319C 232.956,317.908 230.289,317.241 227.5,317C 229.588,315.97 231.755,315.137 234,314.5C 235.03,314.164 235.53,313.497 235.5,312.5C 248.815,306.858 261.149,299.525 272.5,290.5C 276.156,288.518 279.823,286.518 283.5,284.5C 284.098,283.205 284.598,281.872 285,280.5C 290.866,275.813 295.366,270.147 298.5,263.5C 299.833,263.5 301.167,263.5 302.5,263.5C 302.351,262.448 302.517,261.448 303,260.5C 303.972,262.305 305.139,263.972 306.5,265.5C 304.022,266.722 303.022,268.722 303.5,271.5 Z"/></g>
<g><path style="opacity:1" fill="#025cb8" d="M 211.5,298.5 C 213.591,298.318 215.591,298.652 217.5,299.5C 219.162,301.652 221.162,303.318 223.5,304.5C 223.158,305.338 222.492,305.672 221.5,305.5C 218.161,305.89 214.827,306.39 211.5,307C 208.591,307.85 205.924,309.017 203.5,310.5C 197.473,310.67 191.473,310.837 185.5,311C 183.75,309.246 183.083,307.079 183.5,304.5C 187.833,304.5 192.167,304.5 196.5,304.5C 196.5,305.5 196.5,306.5 196.5,307.5C 200.309,306.629 203.976,305.295 207.5,303.5C 209.239,304.4 211.072,305.067 213,305.5C 213.833,305.167 214.667,304.833 215.5,304.5C 213.833,303.833 212.167,303.167 210.5,302.5C 211.246,301.264 211.579,299.93 211.5,298.5 Z"/></g>
<g><path style="opacity:1" fill="#2562a9" d="M 221.5,305.5 C 215.836,307.937 209.836,309.604 203.5,310.5C 205.924,309.017 208.591,307.85 211.5,307C 214.827,306.39 218.161,305.89 221.5,305.5 Z"/></g>
<g><path style="opacity:1" fill="#035ab8" d="M 211.5,320.5 C 213.5,320.5 215.5,320.5 217.5,320.5C 217.261,322.467 217.594,324.301 218.5,326C 215.102,327.357 212.102,329.19 209.5,331.5C 208.833,331.5 208.167,331.5 207.5,331.5C 206.022,331.762 204.689,331.429 203.5,330.5C 206.324,329.226 208.991,327.726 211.5,326C 209.392,325.64 207.392,324.973 205.5,324C 207.758,323.124 209.758,321.957 211.5,320.5 Z"/></g>
<g><path style="opacity:1" fill="#1560ad" d="M 235.5,312.5 C 235.53,313.497 235.03,314.164 234,314.5C 231.755,315.137 229.588,315.97 227.5,317C 230.289,317.241 232.956,317.908 235.5,319C 234.207,319.49 232.873,319.657 231.5,319.5C 231.5,320.5 231.5,321.5 231.5,322.5C 233.167,322.5 234.833,322.5 236.5,322.5C 227.921,326.471 218.921,329.471 209.5,331.5C 212.102,329.19 215.102,327.357 218.5,326C 217.594,324.301 217.261,322.467 217.5,320.5C 215.5,320.5 213.5,320.5 211.5,320.5C 219.591,318.468 227.591,315.802 235.5,312.5 Z"/></g>
<g><path style="opacity:1" fill="#2d6aaa" d="M 195.5,333.5 C 193.708,334.309 191.708,334.809 189.5,335C 175.327,335.827 161.327,335.661 147.5,334.5C 163.512,334.611 179.512,334.277 195.5,333.5 Z"/></g>
</svg>
