<?xml version="1.0" encoding="UTF-8"?>
<!DOCTYPE svg PUBLIC "-//W3C//DTD SVG 1.1//EN" "http://www.w3.org/Graphics/SVG/1.1/DTD/svg11.dtd">
<svg xmlns="http://www.w3.org/2000/svg" version="1.1" width="67px" height="52px" style="shape-rendering:geometricPrecision; text-rendering:geometricPrecision; image-rendering:optimizeQuality; fill-rule:evenodd; clip-rule:evenodd" xmlns:xlink="http://www.w3.org/1999/xlink">
<g><path style="opacity:1" fill="#fcfbfb" d="M -0.5,-0.5 C 21.8333,-0.5 44.1667,-0.5 66.5,-0.5C 66.5,16.8333 66.5,34.1667 66.5,51.5C 44.1667,51.5 21.8333,51.5 -0.5,51.5C -0.5,34.1667 -0.5,16.8333 -0.5,-0.5 Z"/></g>
<g><path style="opacity:1" fill="#e8415f" d="M 30.5,3.5 C 33.1667,3.5 35.8333,3.5 38.5,3.5C 38.5,5.83333 38.5,8.16667 38.5,10.5C 42.9181,16.2458 46.9181,22.2458 50.5,28.5C 47.166,32.7682 43.166,36.4348 38.5,39.5C 38.3396,36.1165 38.673,32.7831 39.5,29.5C 39.3918,28.5581 39.0585,27.7247 38.5,27C 36.6494,26.1628 34.8161,25.3295 33,24.5C 32.9521,17.346 32.1187,10.346 30.5,3.5 Z"/></g>
<g><path style="opacity:1" fill="#ed5d69" d="M 52.5,27.5 C 51.8333,27.8333 51.1667,28.1667 50.5,28.5C 46.9181,22.2458 42.9181,16.2458 38.5,10.5C 43.4632,9.57418 48.4632,8.90752 53.5,8.5C 53.5237,14.857 53.1904,21.1903 52.5,27.5 Z"/></g>
<g><path style="opacity:1" fill="#ec6e70" d="M 38.5,3.5 C 46.6777,3.50142 53.5111,6.50142 59,12.5C 61.4148,17.4362 60.9148,21.9362 57.5,26C 55.9751,27.0086 54.3084,27.5086 52.5,27.5C 53.1904,21.1903 53.5237,14.857 53.5,8.5C 48.4632,8.90752 43.4632,9.57418 38.5,10.5C 38.5,8.16667 38.5,5.83333 38.5,3.5 Z"/></g>
<g><path style="opacity:1" fill="#b2234c" d="M 15.5,7.5 C 17.2429,11.1606 18.5762,14.994 19.5,19C 17.5026,25.3194 15.5026,31.6528 13.5,38C 13.8333,38.5 14.1667,39 14.5,39.5C 16.2279,37.7745 18.2279,36.4411 20.5,35.5C 20.8333,36 21.1667,36.5 21.5,37C 20.1889,40.4307 19.1889,43.9307 18.5,47.5C 19.5,47.5 20.5,47.5 21.5,47.5C 18.7008,48.9256 16.0342,48.5923 13.5,46.5C 11.1387,37.1309 8.8054,27.7976 6.5,18.5C 8.37167,13.9568 11.3717,10.2901 15.5,7.5 Z"/></g>
<g><path style="opacity:1" fill="#d22352" d="M 30.5,3.5 C 32.1187,10.346 32.9521,17.346 33,24.5C 34.8161,25.3295 36.6494,26.1628 38.5,27C 39.0585,27.7247 39.3918,28.5581 39.5,29.5C 38.673,32.7831 38.3396,36.1165 38.5,39.5C 32.6536,39.4598 29.6536,42.4598 29.5,48.5C 27.8002,48.3739 26.3002,47.7073 25,46.5C 23.8615,46.9891 22.6948,47.3225 21.5,47.5C 20.5,47.5 19.5,47.5 18.5,47.5C 19.1889,43.9307 20.1889,40.4307 21.5,37C 21.1667,36.5 20.8333,36 20.5,35.5C 18.2279,36.4411 16.2279,37.7745 14.5,39.5C 14.1667,39 13.8333,38.5 13.5,38C 15.5026,31.6528 17.5026,25.3194 19.5,19C 18.5762,14.994 17.2429,11.1606 15.5,7.5C 20.0956,4.76729 25.0956,3.43395 30.5,3.5 Z"/></g>
<g><path style="opacity:1" fill="#992746" d="M 6.5,18.5 C 8.8054,27.7976 11.1387,37.1309 13.5,46.5C 10.2255,42.3703 7.05881,38.0369 4,33.5C 2.87104,28.0403 3.70437,23.0403 6.5,18.5 Z"/></g>
</svg>
