<?xml version="1.0" encoding="UTF-8"?>
<!DOCTYPE svg PUBLIC "-//W3C//DTD SVG 1.1//EN" "http://www.w3.org/Graphics/SVG/1.1/DTD/svg11.dtd">
<svg xmlns="http://www.w3.org/2000/svg" version="1.1" width="800px" height="252px" style="shape-rendering:geometricPrecision; text-rendering:geometricPrecision; image-rendering:optimizeQuality; fill-rule:evenodd; clip-rule:evenodd" xmlns:xlink="http://www.w3.org/1999/xlink">
<g><path style="opacity:1" fill="#fefefe" d="M -0.5,-0.5 C 199.5,-0.5 399.5,-0.5 599.5,-0.5C 582.943,19.5896 566.61,39.9229 550.5,60.5C 570.126,77.3233 589.793,94.1566 609.5,111C 611.078,112.094 612.745,112.928 614.5,113.5C 615.262,115.262 616.596,116.262 618.5,116.5C 620.797,113.865 623.13,111.199 625.5,108.5C 635.337,115.267 644.67,122.767 653.5,131C 655.5,131.333 657.5,131.667 659.5,132C 658.058,132.377 657.058,133.21 656.5,134.5C 632.545,163.627 608.378,192.627 584,221.5C 583.004,225.207 583.67,228.541 586,231.5C 593.397,238.403 600.897,245.07 608.5,251.5C 405.5,251.5 202.5,251.5 -0.5,251.5C -0.5,167.5 -0.5,83.5 -0.5,-0.5 Z"/></g>
<g><path style="opacity:1" fill="#fefefe" d="M 603.5,-0.5 C 668.833,-0.5 734.167,-0.5 799.5,-0.5C 799.5,50.5 799.5,101.5 799.5,152.5C 797.745,151.928 796.078,151.094 794.5,150C 786.771,142.598 778.771,135.598 770.5,129C 769.5,128.333 768.5,128.333 767.5,129C 766.352,130.649 765.019,132.149 763.5,133.5C 762.995,131.231 761.662,129.897 759.5,129.5C 753.525,124.53 747.525,119.53 741.5,114.5C 741.423,113.25 740.756,112.417 739.5,112C 741.615,111.576 742.448,110.409 742,108.5C 736.905,103.562 731.405,99.2291 725.5,95.5C 723.971,95.5288 722.804,96.1955 722,97.5C 721.617,96.944 721.117,96.6107 720.5,96.5C 715.491,92.6641 710.491,88.8308 705.5,85C 703.167,84.3333 700.833,84.3333 698.5,85C 696.7,86.8119 695.033,88.6452 693.5,90.5C 692.325,90.719 691.325,90.3857 690.5,89.5C 682.206,82.6772 673.873,75.8439 665.5,69C 663.859,67.871 662.859,66.371 662.5,64.5C 664.112,61.22 666.445,58.5534 669.5,56.5C 669.376,55.8933 669.043,55.56 668.5,55.5C 668.027,54.0937 667.027,53.427 665.5,53.5C 647.626,37.4596 629.293,21.9596 610.5,7C 607.933,4.60413 605.6,2.10413 603.5,-0.5 Z"/></g>
<g><path style="opacity:1" fill="#62595c" d="M 664.5,54.5 C 664.5,53.8333 664.833,53.5 665.5,53.5C 667.027,53.427 668.027,54.0937 668.5,55.5C 668.44,56.0431 668.107,56.3764 667.5,56.5C 666.482,55.8075 665.482,55.1408 664.5,54.5 Z"/></g>
<g><path style="opacity:1" fill="#2cd267" d="M 599.5,-0.5 C 600.833,-0.5 602.167,-0.5 603.5,-0.5C 605.6,2.10413 607.933,4.60413 610.5,7C 629.293,21.9596 647.626,37.4596 665.5,53.5C 664.833,53.5 664.5,53.8333 664.5,54.5C 647.796,73.8693 631.463,93.536 615.5,113.5C 615.167,113.5 614.833,113.5 614.5,113.5C 612.745,112.928 611.078,112.094 609.5,111C 589.793,94.1566 570.126,77.3233 550.5,60.5C 566.61,39.9229 582.943,19.5896 599.5,-0.5 Z"/></g>
<g><path style="opacity:1" fill="#dac584" d="M 640.5,51.5 C 642.048,51.8212 642.715,52.8212 642.5,54.5C 639.752,54.5983 639.086,53.5983 640.5,51.5 Z"/></g>
<g><path style="opacity:1" fill="#cfc782" d="M 647.5,51.5 C 649.337,51.6395 649.67,52.3061 648.5,53.5C 647.702,53.0431 647.369,52.3764 647.5,51.5 Z"/></g>
<g><path style="opacity:1" fill="#57b379" d="M 639.5,40.5 C 636.09,40.3838 634.756,42.0504 635.5,45.5C 636.833,45.5 638.167,45.5 639.5,45.5C 638.054,46.6129 636.387,46.7796 634.5,46C 632.723,40.6916 634.389,38.8583 639.5,40.5 Z"/></g>
<g><path style="opacity:1" fill="#cc8533" d="M 600.5,37.5 C 601.833,38.5 603.167,39.5 604.5,40.5C 602.247,44.2679 599.747,47.9346 597,51.5C 596.184,52.8228 595.017,53.4894 593.5,53.5C 592.167,52.5 590.833,51.5 589.5,50.5C 592.076,45.256 595.743,40.9227 600.5,37.5 Z"/></g>
<g><path style="opacity:1" fill="#e1c482" d="M 600.5,37.5 C 595.743,40.9227 592.076,45.256 589.5,50.5C 588.417,50.5394 587.417,50.8728 586.5,51.5C 583.284,48.7812 580.284,45.9479 577.5,43C 581.62,37.0459 586.287,31.5459 591.5,26.5C 594.807,28.6404 597.974,30.9737 601,33.5C 601.195,34.8193 601.028,36.1526 600.5,37.5 Z"/></g>
<g><path style="opacity:1" fill="#f1f3f3" d="M 639.5,40.5 C 640.833,42.1667 640.833,43.8333 639.5,45.5C 638.167,45.5 636.833,45.5 635.5,45.5C 634.756,42.0504 636.09,40.3838 639.5,40.5 Z"/></g>
<g><path style="opacity:1" fill="#daf7e3" d="M 616.5,37.5 C 623.315,40.965 629.315,45.6316 634.5,51.5C 633.21,52.4077 631.877,52.241 630.5,51C 625.257,46.9202 620.59,42.4202 616.5,37.5 Z"/></g>
<g><path style="opacity:1" fill="#d1f5dc" d="M 619.5,34.5 C 623.108,36.7699 626.442,39.4366 629.5,42.5C 628.998,43.521 628.332,43.6877 627.5,43C 624.551,40.2243 621.884,37.391 619.5,34.5 Z"/></g>
<g><path style="opacity:1" fill="#d4f7e0" d="M 607.5,24.5 C 611.21,26.7849 614.71,29.4516 618,32.5C 618.667,33.1667 618.667,33.8333 618,34.5C 613.925,31.5876 610.425,28.2543 607.5,24.5 Z"/></g>
<g><path style="opacity:1" fill="#e1f9e9" d="M 594.5,18.5 C 601.776,23.771 608.776,29.4376 615.5,35.5C 615.167,35.8333 614.833,36.1667 614.5,36.5C 606.821,31.4802 600.154,25.4802 594.5,18.5 Z"/></g>
<g><path style="opacity:1" fill="#d4e5db" d="M 601.5,11.5 C 606.159,11.0146 607.492,12.848 605.5,17C 600.728,17.8104 599.395,15.9771 601.5,11.5 Z"/></g>
<g><path style="opacity:1" fill="#eac486" d="M 643.5,55.5 C 644.675,55.281 645.675,55.6143 646.5,56.5C 644.948,57.7979 643.948,57.4646 643.5,55.5 Z"/></g>
<g><path style="opacity:1" fill="#9ecb78" d="M 650.5,53.5 C 652.143,53.4802 653.476,54.1468 654.5,55.5C 655.833,56.5 655.833,57.5 654.5,58.5C 652.069,57.6399 650.736,55.9732 650.5,53.5 Z"/></g>
<g><path style="opacity:1" fill="#dfebe3" d="M 564.5,56.5 C 568.5,55.8333 570.167,57.5 569.5,61.5C 564.58,62.585 562.913,60.9183 564.5,56.5 Z"/></g>
<g><path style="opacity:1" fill="#8e8082" d="M 580.5,56.5 C 581.376,56.3691 582.043,56.7025 582.5,57.5C 581.379,60.0469 579.712,61.0469 577.5,60.5C 578.524,59.1482 579.524,57.8149 580.5,56.5 Z"/></g>
<g><path style="opacity:1" fill="#5b5653" d="M 593.5,53.5 C 595.017,53.4894 596.184,52.8228 597,51.5C 599.747,47.9346 602.247,44.2679 604.5,40.5C 606.344,39.8397 608.01,38.8397 609.5,37.5C 616.075,41.8996 622.242,46.8996 628,52.5C 628.667,53.5 628.667,54.5 628,55.5C 622.5,61.6667 617,67.8333 611.5,74C 610.5,74.6667 609.5,74.6667 608.5,74C 602.709,69.8782 597.209,65.3782 592,60.5C 591.865,58.0784 592.365,55.7451 593.5,53.5 Z"/></g>
<g><path style="opacity:1" fill="#0f0f0f" d="M 605.5,48.5 C 615.393,47.0573 619.393,51.0573 617.5,60.5C 612.628,65.7946 607.795,65.7946 603,60.5C 601.773,55.938 602.607,51.938 605.5,48.5 Z"/></g>
<g><path style="opacity:1" fill="#ecc386" d="M 648.5,58.5 C 649.376,58.3691 650.043,58.7025 650.5,59.5C 648.192,60.8734 647.525,60.5401 648.5,58.5 Z"/></g>
<g><path style="opacity:1" fill="#2c2b2a" d="M 606.5,51.5 C 609.119,51.2317 611.619,51.565 614,52.5C 616.291,55.8347 615.791,58.668 612.5,61C 607.721,62.3935 605.387,60.5602 605.5,55.5C 605.623,54.0755 605.957,52.7421 606.5,51.5 Z"/></g>
<g><path style="opacity:1" fill="#583080" d="M 608.5,53.5 C 613.943,53.2013 614.61,54.5346 610.5,57.5C 608.889,56.6798 608.222,55.3464 608.5,53.5 Z"/></g>
<g><path style="opacity:1" fill="#eefbf1" d="M 642.5,61.5 C 644.394,62.0476 646.06,63.0476 647.5,64.5C 645.167,67.5 642.5,70.1667 639.5,72.5C 638.167,71.8333 637.167,70.8333 636.5,69.5C 638.509,66.8036 640.509,64.1369 642.5,61.5 Z"/></g>
<g><path style="opacity:1" fill="#7a6c6d" d="M 581.5,63.5 C 582.497,63.4701 583.164,63.9701 583.5,65C 579.522,69.5252 578.855,69.0252 581.5,63.5 Z"/></g>
<g><path style="opacity:1" fill="#d8d6d7" d="M 664.5,54.5 C 665.482,55.1408 666.482,55.8075 667.5,56.5C 668.107,56.3764 668.44,56.0431 668.5,55.5C 669.043,55.56 669.376,55.8933 669.5,56.5C 666.445,58.5534 664.112,61.22 662.5,64.5C 649.82,78.8489 637.487,93.5155 625.5,108.5C 623.13,111.199 620.797,113.865 618.5,116.5C 618.5,114.5 617.5,113.5 615.5,113.5C 631.463,93.536 647.796,73.8693 664.5,54.5 Z"/></g>
<g><path style="opacity:1" fill="#ecedf0" d="M 662.5,64.5 C 662.859,66.371 663.859,67.871 665.5,69C 673.873,75.8439 682.206,82.6772 690.5,89.5C 691.325,90.3857 692.325,90.719 693.5,90.5C 693.427,92.0269 694.094,93.0269 695.5,93.5C 697.519,97.3283 699.852,97.8283 702.5,95C 705.598,93.9327 707.598,94.9327 708.5,98C 708.507,99.8122 707.84,101.312 706.5,102.5C 708.216,103.549 709.549,104.882 710.5,106.5C 711.482,107.141 712.482,107.807 713.5,108.5C 717.561,105.455 719.894,101.455 720.5,96.5C 721.117,96.6107 721.617,96.944 722,97.5C 722.804,96.1955 723.971,95.5288 725.5,95.5C 731.405,99.2291 736.905,103.562 742,108.5C 742.448,110.409 741.615,111.576 739.5,112C 740.756,112.417 741.423,113.25 741.5,114.5C 737.114,116.21 733.781,119.21 731.5,123.5C 738.494,129.493 745.494,135.493 752.5,141.5C 755.493,144.159 758.493,146.826 761.5,149.5C 766.107,146.069 770.607,142.403 775,138.5C 776.44,139.93 776.774,141.597 776,143.5C 773.228,147.388 770.728,151.388 768.5,155.5C 773.608,158.773 778.275,162.607 782.5,167C 783.769,166.891 784.769,167.058 785.5,167.5C 786.099,169.934 787.599,171.601 790,172.5C 793.321,170.012 796.488,167.345 799.5,164.5C 799.5,169.167 799.5,173.833 799.5,178.5C 798.542,178.047 797.708,177.381 797,176.5C 785.667,189.833 774.333,203.167 763,216.5C 761.991,218.025 761.491,219.692 761.5,221.5C 733.684,196.86 705.351,172.694 676.5,149C 674.189,148.764 672.189,147.931 670.5,146.5C 670.262,144.596 669.262,143.262 667.5,142.5C 666.599,140.273 664.933,139.273 662.5,139.5C 660.31,138.626 659.31,136.959 659.5,134.5C 658.5,134.5 657.5,134.5 656.5,134.5C 657.058,133.21 658.058,132.377 659.5,132C 657.5,131.667 655.5,131.333 653.5,131C 644.67,122.767 635.337,115.267 625.5,108.5C 637.487,93.5155 649.82,78.8489 662.5,64.5 Z"/></g>
<g><path style="opacity:1" fill="#c9f4d8" d="M 635.5,72.5 C 638.076,72.7218 638.91,74.0551 638,76.5C 633.657,81.6749 629.157,86.6749 624.5,91.5C 623.479,90.9984 623.312,90.3317 624,89.5C 626.683,86.9841 629.183,84.3174 631.5,81.5C 630.975,80.8076 630.308,80.3076 629.5,80C 631.334,77.3367 633.334,74.8367 635.5,72.5 Z"/></g>
<g><path style="opacity:1" fill="#e2eee7" d="M 598.5,85.5 C 602.138,84.7366 603.638,86.0699 603,89.5C 598.415,91.4126 596.915,90.0793 598.5,85.5 Z"/></g>
<g><path style="opacity:1" fill="#e0c484" d="M 609.5,88.5 C 612.957,88.6672 613.29,89.6672 610.5,91.5C 609.614,90.675 609.281,89.675 609.5,88.5 Z"/></g>
<g><path style="opacity:1" fill="#e8c386" d="M 613.5,91.5 C 616.674,91.9522 617.007,92.9522 614.5,94.5C 613.614,93.675 613.281,92.675 613.5,91.5 Z"/></g>
<g><path style="opacity:1" fill="#050505" d="M 81.5,94.5 C 84.8333,94.5 88.1667,94.5 91.5,94.5C 91.5,100.167 91.5,105.833 91.5,111.5C 88.1667,111.5 84.8333,111.5 81.5,111.5C 81.5,105.833 81.5,100.167 81.5,94.5 Z"/></g>
<g><path style="opacity:1" fill="#060606" d="M 468.5,184.5 C 468.82,181.102 468.487,177.768 467.5,174.5C 466.893,174.624 466.56,174.957 466.5,175.5C 450.285,189.575 435.119,188.575 421,172.5C 414.043,159.66 413.71,146.66 420,133.5C 431.569,118.386 445.735,115.553 462.5,125C 464.333,126.833 466.167,128.667 468,130.5C 468.5,118.505 468.667,106.505 468.5,94.5C 471.5,94.5 474.5,94.5 477.5,94.5C 477.5,124.5 477.5,154.5 477.5,184.5C 474.5,184.5 471.5,184.5 468.5,184.5 Z"/></g>
<g><path style="opacity:1" fill="#f4f7ca" d="M 710.5,106.5 C 709.549,104.882 708.216,103.549 706.5,102.5C 707.84,101.312 708.507,99.8122 708.5,98C 707.598,94.9327 705.598,93.9327 702.5,95C 699.852,97.8283 697.519,97.3283 695.5,93.5C 697.544,92.9688 699.211,91.8022 700.5,90C 712.25,89.9657 715.583,95.4657 710.5,106.5 Z"/></g>
<g><path style="opacity:1" fill="#dcc584" d="M 617.5,95.5 C 620.957,95.6672 621.29,96.6672 618.5,98.5C 617.614,97.675 617.281,96.675 617.5,95.5 Z"/></g>
<g><path style="opacity:1" fill="#55b157" d="M 720.5,96.5 C 719.894,101.455 717.561,105.455 713.5,108.5C 712.482,107.807 711.482,107.141 710.5,106.5C 715.583,95.4657 712.25,89.9657 700.5,90C 699.211,91.8022 697.544,92.9688 695.5,93.5C 694.094,93.0269 693.427,92.0269 693.5,90.5C 695.033,88.6452 696.7,86.8119 698.5,85C 700.833,84.3333 703.167,84.3333 705.5,85C 710.491,88.8308 715.491,92.6641 720.5,96.5 Z"/></g>
<g><path style="opacity:1" fill="#bec782" d="M 609.5,95.5 C 612.957,95.6672 613.29,96.6672 610.5,98.5C 609.614,97.675 609.281,96.675 609.5,95.5 Z"/></g>
<g><path style="opacity:1" fill="#cec581" d="M 615.5,101.5 C 618.797,101.329 619.131,101.995 616.5,103.5C 615.702,103.043 615.369,102.376 615.5,101.5 Z"/></g>
<g><path style="opacity:1" fill="#8a8b8b" d="M 723.5,99.5 C 724.5,99.5 725.5,99.5 726.5,99.5C 726.5,101.167 726.5,102.833 726.5,104.5C 725.448,104.351 724.448,104.517 723.5,105C 722.845,106.487 721.845,107.653 720.5,108.5C 720.167,108.167 719.833,107.833 719.5,107.5C 721.302,105.042 722.635,102.375 723.5,99.5 Z"/></g>
<g><path style="opacity:1" fill="#7e7e7e" d="M 734.5,109.5 C 735.675,109.281 736.675,109.614 737.5,110.5C 735.727,113.06 733.727,115.393 731.5,117.5C 731.167,117.333 730.833,117.167 730.5,117C 732.496,114.838 733.83,112.338 734.5,109.5 Z"/></g>
<g><path style="opacity:1" fill="#5b5252" d="M 614.5,113.5 C 614.833,113.5 615.167,113.5 615.5,113.5C 617.5,113.5 618.5,114.5 618.5,116.5C 616.596,116.262 615.262,115.262 614.5,113.5 Z"/></g>
<g><path style="opacity:1" fill="#050505" d="M 135.5,119.5 C 139.857,119.586 144.19,119.92 148.5,120.5C 148.5,123.5 148.5,126.5 148.5,129.5C 136.023,127.491 126.523,131.824 120,142.5C 118.535,156.402 118.035,170.402 118.5,184.5C 115.5,184.5 112.5,184.5 109.5,184.5C 109.5,163.167 109.5,141.833 109.5,120.5C 112.5,120.5 115.5,120.5 118.5,120.5C 118.335,124.182 118.501,127.848 119,131.5C 123.629,126.121 129.129,122.121 135.5,119.5 Z"/></g>
<g><path style="opacity:1" fill="#090909" d="M 216.5,145.5 C 216.5,149.167 216.5,152.833 216.5,156.5C 198.992,156.17 181.659,156.503 164.5,157.5C 168.107,173.815 178.107,179.649 194.5,175C 199.489,173.015 203.489,169.848 206.5,165.5C 208.996,166.58 211.33,167.914 213.5,169.5C 207.141,179.858 197.808,185.191 185.5,185.5C 162.385,182.325 151.885,168.992 154,145.5C 160.205,124.641 174.039,116.474 195.5,121C 207.357,125.023 214.357,133.189 216.5,145.5 Z"/></g>
<g><path style="opacity:1" fill="#0a0a0a" d="M 252.5,119.5 C 267.01,118.265 278.01,123.765 285.5,136C 283.507,137.999 281.173,139.499 278.5,140.5C 268.469,127.18 256.469,125.014 242.5,134C 235.827,141.582 233.66,150.415 236,160.5C 243.506,176.509 255.006,180.343 270.5,172C 273.727,169.111 276.561,165.944 279,162.5C 285.322,164.091 286.655,167.424 283,172.5C 271.263,185.141 257.43,187.975 241.5,181C 224.952,168.684 221.119,153.184 230,134.5C 235.57,126.401 243.07,121.401 252.5,119.5 Z"/></g>
<g><path style="opacity:1" fill="#0b0b0b" d="M 319.5,119.5 C 339.007,118.334 351.84,127 358,145.5C 359.979,166.068 351.146,179.235 331.5,185C 312.393,186.885 299.893,178.719 294,160.5C 290.961,139.42 299.461,125.753 319.5,119.5 Z"/></g>
<g><path style="opacity:1" fill="#060606" d="M 380.5,120.5 C 380.177,124.226 380.511,127.893 381.5,131.5C 382.107,131.376 382.44,131.043 382.5,130.5C 389.577,121.058 398.91,117.725 410.5,120.5C 410.5,123.5 410.5,126.5 410.5,129.5C 396.98,127.509 387.147,132.509 381,144.5C 380.5,157.829 380.333,171.163 380.5,184.5C 377.5,184.5 374.5,184.5 371.5,184.5C 371.5,163.167 371.5,141.833 371.5,120.5C 374.5,120.5 377.5,120.5 380.5,120.5 Z"/></g>
<g><path style="opacity:1" fill="#0b0b0b" d="M 517.5,119.5 C 542.67,119.67 555.003,132.337 554.5,157.5C 536.833,157.5 519.167,157.5 501.5,157.5C 501.779,164.222 504.779,169.388 510.5,173C 523.595,179.418 534.762,176.918 544,165.5C 546.553,166.223 548.72,167.556 550.5,169.5C 541.402,182.698 529.068,187.531 513.5,184C 494.57,175.92 487.404,161.753 492,141.5C 497.013,129.978 505.513,122.645 517.5,119.5 Z"/></g>
<g><path style="opacity:1" fill="#4daf51" d="M 741.5,114.5 C 747.525,119.53 753.525,124.53 759.5,129.5C 760.8,130.601 761.3,131.934 761,133.5C 758.932,137.07 756.099,139.737 752.5,141.5C 745.494,135.493 738.494,129.493 731.5,123.5C 733.781,119.21 737.114,116.21 741.5,114.5 Z"/></g>
<g><path style="opacity:1" fill="#060606" d="M 17.5,175.5 C 17.44,174.957 17.1067,174.624 16.5,174.5C 15.5012,185.48 15.1679,196.48 15.5,207.5C 12.5,207.5 9.5,207.5 6.5,207.5C 6.5,178.5 6.5,149.5 6.5,120.5C 9.5,120.5 12.5,120.5 15.5,120.5C 15.1796,123.898 15.513,127.232 16.5,130.5C 17.1067,130.376 17.44,130.043 17.5,129.5C 24.1614,121.186 32.8281,118.019 43.5,120C 59.8634,123.71 68.1967,134.043 68.5,151C 67.5471,175.249 55.2138,186.249 31.5,184C 25.6784,182.929 21.0118,180.095 17.5,175.5 Z"/></g>
<g><path style="opacity:1" fill="#121212" d="M 81.5,120.5 C 84.8333,120.5 88.1667,120.5 91.5,120.5C 91.5,141.833 91.5,163.167 91.5,184.5C 88.1667,184.5 84.8333,184.5 81.5,184.5C 81.5,163.167 81.5,141.833 81.5,120.5 Z"/></g>
<g><path style="opacity:1" fill="#101010" d="M 597.5,119.5 C 600.518,119.704 603.518,120.037 606.5,120.5C 606.5,123.5 606.5,126.5 606.5,129.5C 594.591,127.374 585.425,131.374 579,141.5C 577.534,155.736 577.034,170.069 577.5,184.5C 574.167,184.5 570.833,184.5 567.5,184.5C 567.5,163.167 567.5,141.833 567.5,120.5C 570.833,120.5 574.167,120.5 577.5,120.5C 577.18,123.898 577.513,127.232 578.5,130.5C 583.589,124.462 589.922,120.796 597.5,119.5 Z"/></g>
<g><path style="opacity:1" fill="#9c9c9c" d="M 380.5,120.5 C 381.167,123.833 381.833,127.167 382.5,130.5C 382.44,131.043 382.107,131.376 381.5,131.5C 380.511,127.893 380.177,124.226 380.5,120.5 Z"/></g>
<g><path style="opacity:1" fill="#a6a6a6" d="M 6.5,120.5 C 6.5,149.5 6.5,178.5 6.5,207.5C 9.5,207.5 12.5,207.5 15.5,207.5C 15.1679,196.48 15.5012,185.48 16.5,174.5C 17.1067,174.624 17.44,174.957 17.5,175.5C 16.5054,186.321 16.1721,197.321 16.5,208.5C 12.8333,208.5 9.16667,208.5 5.5,208.5C 5.16861,178.995 5.50194,149.662 6.5,120.5 Z"/></g>
<g><path style="opacity:1" fill="#969696" d="M 15.5,120.5 C 16.1667,123.5 16.8333,126.5 17.5,129.5C 17.44,130.043 17.1067,130.376 16.5,130.5C 15.513,127.232 15.1796,123.898 15.5,120.5 Z"/></g>
<g><path style="opacity:1" fill="#fbfbfb" d="M 206.5,145.5 C 206.5,146.5 206.5,147.5 206.5,148.5C 192.5,148.5 178.5,148.5 164.5,148.5C 164.5,147.167 164.5,145.833 164.5,144.5C 170.518,128.504 181.518,124.004 197.5,131C 202.807,134.459 205.807,139.293 206.5,145.5 Z"/></g>
<g><path style="opacity:1" fill="#fafafa" d="M 318.5,128.5 C 336.544,126.551 346.544,134.551 348.5,152.5C 345.551,173.134 334.218,180.301 314.5,174C 300.236,161.894 298.902,148.56 310.5,134C 313.07,131.913 315.737,130.08 318.5,128.5 Z"/></g>
<g><path style="opacity:1" fill="#fbfbfb" d="M 544.5,148.5 C 530.167,148.5 515.833,148.5 501.5,148.5C 501.5,147.5 501.5,146.5 501.5,145.5C 507.009,128.753 518.009,123.92 534.5,131C 540.576,135.324 543.909,141.157 544.5,148.5 Z"/></g>
<g><path style="opacity:1" fill="#fafafa" d="M 31.5,128.5 C 44.6095,126.803 53.4428,132.136 58,144.5C 61.211,158.233 56.711,168.4 44.5,175C 22.1847,176.344 12.6847,165.844 16,143.5C 19.7408,136.924 24.9074,131.924 31.5,128.5 Z"/></g>
<g><path style="opacity:1" fill="#f9f9f9" d="M 439.5,128.5 C 452.573,126.797 462.073,131.797 468,143.5C 471.798,158.403 466.632,168.903 452.5,175C 438.977,177.805 430.144,172.638 426,159.5C 422.914,145.687 427.414,135.353 439.5,128.5 Z"/></g>
<g><path style="opacity:1" fill="#595d60" d="M 768.5,155.5 C 770.728,151.388 773.228,147.388 776,143.5C 776.774,141.597 776.44,139.93 775,138.5C 770.607,142.403 766.107,146.069 761.5,149.5C 765.462,144.706 769.962,140.373 775,136.5C 776.679,137.682 778.179,139.015 779.5,140.5C 776.524,146.169 772.857,151.169 768.5,155.5 Z"/></g>
<g><path style="opacity:1" fill="#979797" d="M 164.5,144.5 C 164.5,145.833 164.5,147.167 164.5,148.5C 178.5,148.5 192.5,148.5 206.5,148.5C 206.5,147.5 206.5,146.5 206.5,145.5C 207.434,146.568 207.768,147.901 207.5,149.5C 192.833,149.5 178.167,149.5 163.5,149.5C 163.216,147.585 163.549,145.919 164.5,144.5 Z"/></g>
<g><path style="opacity:1" fill="#979797" d="M 501.5,145.5 C 501.5,146.5 501.5,147.5 501.5,148.5C 515.833,148.5 530.167,148.5 544.5,148.5C 530.01,149.496 515.343,149.829 500.5,149.5C 500.232,147.901 500.566,146.568 501.5,145.5 Z"/></g>
<g><path style="opacity:1" fill="#323232" d="M 662.5,139.5 C 664.933,139.273 666.599,140.273 667.5,142.5C 656.647,156.87 645.147,170.87 633,184.5C 632.481,186.489 633.314,187.489 635.5,187.5C 633.837,190.329 631.67,192.662 629,194.5C 626.531,193.032 624.365,191.198 622.5,189C 625.393,185.616 628.059,182.116 630.5,178.5C 631.167,178.5 631.5,178.167 631.5,177.5C 632.043,177.44 632.376,177.107 632.5,176.5C 630.089,174.681 629.922,172.681 632,170.5C 640.124,160.041 648.624,149.874 657.5,140C 659.381,140.096 661.047,139.929 662.5,139.5 Z"/></g>
<g><path style="opacity:1" fill="#484848" d="M 216.5,145.5 C 217.483,149.298 217.817,153.298 217.5,157.5C 199.833,157.5 182.167,157.5 164.5,157.5C 181.659,156.503 198.992,156.17 216.5,156.5C 216.5,152.833 216.5,149.167 216.5,145.5 Z"/></g>
<g><path style="opacity:1" fill="#5c6164" d="M 799.5,162.5 C 799.5,163.167 799.5,163.833 799.5,164.5C 796.488,167.345 793.321,170.012 790,172.5C 787.599,171.601 786.099,169.934 785.5,167.5C 789.164,163.153 792.498,158.487 795.5,153.5C 796.521,154.002 796.688,154.668 796,155.5C 793.167,159.833 790.333,164.167 787.5,168.5C 787.833,169.5 788.5,170.167 789.5,170.5C 793.141,168.19 796.474,165.523 799.5,162.5 Z"/></g>
<g><path style="opacity:1" fill="#d0d8dc" d="M 799.5,152.5 C 799.5,155.833 799.5,159.167 799.5,162.5C 796.474,165.523 793.141,168.19 789.5,170.5C 788.5,170.167 787.833,169.5 787.5,168.5C 790.333,164.167 793.167,159.833 796,155.5C 796.688,154.668 796.521,154.002 795.5,153.5C 792.498,158.487 789.164,163.153 785.5,167.5C 784.769,167.058 783.769,166.891 782.5,167C 778.275,162.607 773.608,158.773 768.5,155.5C 772.857,151.169 776.524,146.169 779.5,140.5C 778.179,139.015 776.679,137.682 775,136.5C 769.962,140.373 765.462,144.706 761.5,149.5C 758.493,146.826 755.493,144.159 752.5,141.5C 756.099,139.737 758.932,137.07 761,133.5C 761.3,131.934 760.8,130.601 759.5,129.5C 761.662,129.897 762.995,131.231 763.5,133.5C 765.019,132.149 766.352,130.649 767.5,129C 768.5,128.333 769.5,128.333 770.5,129C 778.771,135.598 786.771,142.598 794.5,150C 796.078,151.094 797.745,151.928 799.5,152.5 Z"/></g>
<g><path style="opacity:1" fill="#4d5154" d="M 784.5,146.5 C 787.127,146.293 788.793,147.46 789.5,150C 787.48,155.343 784.647,160.176 781,164.5C 782.4,160.367 784.4,156.367 787,152.5C 787.781,151.056 787.614,149.723 786.5,148.5C 782.391,151.106 778.724,154.273 775.5,158C 774.833,158.667 774.167,158.667 773.5,158C 777.37,154.298 781.037,150.464 784.5,146.5 Z"/></g>
<g><path style="opacity:1" fill="#121112" d="M 667.5,142.5 C 669.262,143.262 670.262,144.596 670.5,146.5C 669.833,146.5 669.5,146.833 669.5,147.5C 668.833,147.5 668.5,147.833 668.5,148.5C 667.5,148.833 666.833,149.5 666.5,150.5C 666.5,150.833 666.5,151.167 666.5,151.5C 665.5,151.833 664.833,152.5 664.5,153.5C 662.738,154.262 661.738,155.596 661.5,157.5C 660.833,157.5 660.5,157.833 660.5,158.5C 659.5,158.833 658.833,159.5 658.5,160.5C 658.5,160.833 658.5,161.167 658.5,161.5C 657.5,161.833 656.833,162.5 656.5,163.5C 655.833,163.5 655.5,163.833 655.5,164.5C 654.122,165.545 653.122,166.878 652.5,168.5C 651.833,168.5 651.5,168.833 651.5,169.5C 650.5,169.833 649.833,170.5 649.5,171.5C 648.833,171.5 648.5,171.833 648.5,172.5C 647.833,172.5 647.5,172.833 647.5,173.5C 646.5,173.833 645.833,174.5 645.5,175.5C 644.833,176.5 644.167,177.5 643.5,178.5C 642.5,178.833 641.833,179.5 641.5,180.5C 640.662,180.842 640.328,181.508 640.5,182.5C 639.833,182.5 639.5,182.833 639.5,183.5C 638.833,183.5 638.5,183.833 638.5,184.5C 637.272,185.306 636.272,186.306 635.5,187.5C 633.314,187.489 632.481,186.489 633,184.5C 645.147,170.87 656.647,156.87 667.5,142.5 Z"/></g>
<g><path style="opacity:1" fill="#888888" d="M 466.5,175.5 C 466.56,174.957 466.893,174.624 467.5,174.5C 468.487,177.768 468.82,181.102 468.5,184.5C 467.833,181.5 467.167,178.5 466.5,175.5 Z"/></g>
<g><path style="opacity:1" fill="#4eaf52" d="M 656.5,134.5 C 657.5,134.5 658.5,134.5 659.5,134.5C 659.31,136.959 660.31,138.626 662.5,139.5C 661.047,139.929 659.381,140.096 657.5,140C 648.624,149.874 640.124,160.041 632,170.5C 629.922,172.681 630.089,174.681 632.5,176.5C 632.376,177.107 632.043,177.44 631.5,177.5C 630.678,175.272 629.345,174.605 627.5,175.5C 628.188,176.855 629.188,177.855 630.5,178.5C 628.059,182.116 625.393,185.616 622.5,189C 624.365,191.198 626.531,193.032 629,194.5C 631.67,192.662 633.837,190.329 635.5,187.5C 636.272,186.306 637.272,185.306 638.5,184.5C 639.322,186.728 640.655,187.395 642.5,186.5C 641.812,185.145 640.812,184.145 639.5,183.5C 639.5,182.833 639.833,182.5 640.5,182.5C 646.407,184.923 646.741,184.256 641.5,180.5C 641.833,179.5 642.5,178.833 643.5,178.5C 645.409,182.439 647.409,182.439 649.5,178.5C 648.717,176.712 647.384,175.712 645.5,175.5C 645.833,174.5 646.5,173.833 647.5,173.5C 648.815,174.476 650.148,175.476 651.5,176.5C 651.833,176.167 652.167,175.833 652.5,175.5C 651.148,174.476 649.815,173.476 648.5,172.5C 648.5,171.833 648.833,171.5 649.5,171.5C 654.865,174.498 655.532,173.832 651.5,169.5C 651.5,168.833 651.833,168.5 652.5,168.5C 653.659,169.456 654.826,170.456 656,171.5C 659.414,168.91 659.247,166.576 655.5,164.5C 655.5,163.833 655.833,163.5 656.5,163.5C 658.044,163.703 659.378,164.37 660.5,165.5C 660.833,165.167 661.167,164.833 661.5,164.5C 660.23,163.712 659.23,162.712 658.5,161.5C 658.5,161.167 658.5,160.833 658.5,160.5C 660.044,160.703 661.378,161.37 662.5,162.5C 662.833,162.167 663.167,161.833 663.5,161.5C 662.23,160.712 661.23,159.712 660.5,158.5C 660.5,157.833 660.833,157.5 661.5,157.5C 662.838,159.113 664.505,159.613 666.5,159C 662.692,155.641 663.026,155.141 667.5,157.5C 668.262,155.219 667.262,153.886 664.5,153.5C 664.833,152.5 665.5,151.833 666.5,151.5C 667.322,153.728 668.655,154.395 670.5,153.5C 669.717,151.712 668.384,150.712 666.5,150.5C 666.833,149.5 667.5,148.833 668.5,148.5C 669.322,150.728 670.655,151.395 672.5,150.5C 671.66,149.265 670.66,148.265 669.5,147.5C 669.5,146.833 669.833,146.5 670.5,146.5C 672.189,147.931 674.189,148.764 676.5,149C 705.351,172.694 733.684,196.86 761.5,221.5C 764.521,223.854 767.188,226.521 769.5,229.5C 766.903,231.431 764.569,233.764 762.5,236.5C 764.607,238.727 766.94,240.727 769.5,242.5C 772.279,239.273 775.279,236.273 778.5,233.5C 782.5,236.167 783.167,235.5 780.5,231.5C 781.964,231.503 783.631,231.169 785.5,230.5C 789.846,224.825 794.512,219.492 799.5,214.5C 799.5,226.833 799.5,239.167 799.5,251.5C 775.833,251.5 752.167,251.5 728.5,251.5C 736.26,241.898 744.26,232.398 752.5,223C 741.571,212.732 730.071,203.232 718,194.5C 715.719,195.776 713.719,197.443 712,199.5C 706.087,208.084 699.42,216.084 692,223.5C 691.333,226.167 691.333,228.833 692,231.5C 699.72,238.061 707.22,244.727 714.5,251.5C 690.167,251.5 665.833,251.5 641.5,251.5C 634.827,246.537 628.494,241.037 622.5,235C 619.315,233.137 616.148,231.304 613,229.5C 612.167,229.667 611.333,229.833 610.5,230C 609.023,232.445 607.19,234.612 605,236.5C 604.333,238.5 604.333,240.5 605,242.5C 608.81,246.166 612.977,249.166 617.5,251.5C 614.5,251.5 611.5,251.5 608.5,251.5C 600.897,245.07 593.397,238.403 586,231.5C 583.67,228.541 583.004,225.207 584,221.5C 608.378,192.627 632.545,163.627 656.5,134.5 Z"/></g>
<g><path style="opacity:1" fill="#d7e5d8" d="M 639.5,183.5 C 640.812,184.145 641.812,185.145 642.5,186.5C 640.655,187.395 639.322,186.728 638.5,184.5C 638.5,183.833 638.833,183.5 639.5,183.5 Z"/></g>
<g><path style="opacity:1" fill="#d3e1d3" d="M 641.5,180.5 C 646.741,184.256 646.407,184.923 640.5,182.5C 640.328,181.508 640.662,180.842 641.5,180.5 Z"/></g>
<g><path style="opacity:1" fill="#cbe1cc" d="M 645.5,175.5 C 647.384,175.712 648.717,176.712 649.5,178.5C 647.409,182.439 645.409,182.439 643.5,178.5C 644.167,177.5 644.833,176.5 645.5,175.5 Z"/></g>
<g><path style="opacity:1" fill="#d5edd7" d="M 631.5,177.5 C 631.5,178.167 631.167,178.5 630.5,178.5C 629.188,177.855 628.188,176.855 627.5,175.5C 629.345,174.605 630.678,175.272 631.5,177.5 Z"/></g>
<g><path style="opacity:1" fill="#dae6dd" d="M 647.5,173.5 C 647.5,172.833 647.833,172.5 648.5,172.5C 649.815,173.476 651.148,174.476 652.5,175.5C 652.167,175.833 651.833,176.167 651.5,176.5C 650.148,175.476 648.815,174.476 647.5,173.5 Z"/></g>
<g><path style="opacity:1" fill="#dfe2df" d="M 651.5,169.5 C 655.532,173.832 654.865,174.498 649.5,171.5C 649.833,170.5 650.5,169.833 651.5,169.5 Z"/></g>
<g><path style="opacity:1" fill="#acd2aa" d="M 655.5,164.5 C 659.247,166.576 659.414,168.91 656,171.5C 654.826,170.456 653.659,169.456 652.5,168.5C 653.122,166.878 654.122,165.545 655.5,164.5 Z"/></g>
<g><path style="opacity:1" fill="#dde8dd" d="M 658.5,161.5 C 659.23,162.712 660.23,163.712 661.5,164.5C 661.167,164.833 660.833,165.167 660.5,165.5C 659.378,164.37 658.044,163.703 656.5,163.5C 656.833,162.5 657.5,161.833 658.5,161.5 Z"/></g>
<g><path style="opacity:1" fill="#9acf9f" d="M 671.5,156.5 C 673.377,155.072 674.711,155.572 675.5,158C 674.667,159.5 673.5,160.667 672,161.5C 669.61,160.828 669.11,159.495 670.5,157.5C 673.708,158.747 674.042,158.413 671.5,156.5 Z"/></g>
<g><path style="opacity:1" fill="#d3dfd3" d="M 660.5,158.5 C 661.23,159.712 662.23,160.712 663.5,161.5C 663.167,161.833 662.833,162.167 662.5,162.5C 661.378,161.37 660.044,160.703 658.5,160.5C 658.833,159.5 659.5,158.833 660.5,158.5 Z"/></g>
<g><path style="opacity:1" fill="#c9daca" d="M 664.5,153.5 C 667.262,153.886 668.262,155.219 667.5,157.5C 663.026,155.141 662.692,155.641 666.5,159C 664.505,159.613 662.838,159.113 661.5,157.5C 661.738,155.596 662.738,154.262 664.5,153.5 Z"/></g>
<g><path style="opacity:1" fill="#dbebde" d="M 666.5,150.5 C 668.384,150.712 669.717,151.712 670.5,153.5C 668.655,154.395 667.322,153.728 666.5,151.5C 666.5,151.167 666.5,150.833 666.5,150.5 Z"/></g>
<g><path style="opacity:1" fill="#cce1cb" d="M 669.5,147.5 C 670.66,148.265 671.66,149.265 672.5,150.5C 670.655,151.395 669.322,150.728 668.5,148.5C 668.5,147.833 668.833,147.5 669.5,147.5 Z"/></g>
<g><path style="opacity:1" fill="#e8f4e7" d="M 677.5,170.5 C 685.637,170.015 693.304,171.515 700.5,175C 702.366,180.266 704.033,185.6 705.5,191C 704.137,195.428 702.97,199.928 702,204.5C 700.5,206 699,207.5 697.5,209C 692.943,210.775 688.276,212.275 683.5,213.5C 683.83,230.375 678.33,232.708 667,220.5C 666.105,218.196 665.271,215.862 664.5,213.5C 661.273,214.782 658.273,214.282 655.5,212C 645.609,201.973 647.942,196.806 662.5,196.5C 663.017,190.803 663.85,185.136 665,179.5C 669.274,176.587 673.44,173.587 677.5,170.5 Z"/></g>
<g><path style="opacity:1" fill="#53b156" d="M 697.5,185.5 C 702.805,186.077 704.638,189.077 703,194.5C 698.812,198.998 696.312,198.331 695.5,192.5C 695.442,189.922 696.109,187.589 697.5,185.5 Z"/></g>
<g><path style="opacity:1" fill="#4daf50" d="M 685.5,179.5 C 693.602,180.068 695.936,183.901 692.5,191C 686.648,193.04 683.315,191.04 682.5,185C 682.863,182.808 683.863,180.974 685.5,179.5 Z"/></g>
<g><path style="opacity:1" fill="#4cae4e" d="M 669.5,176.5 C 670.5,176.5 671.5,176.5 672.5,176.5C 672.699,181.134 670.699,184.134 666.5,185.5C 666.34,183.801 666.506,182.134 667,180.5C 668.481,179.529 669.315,178.196 669.5,176.5 Z"/></g>
<g><path style="opacity:1" fill="#56b158" d="M 690.5,173.5 C 696.166,173.325 699.5,175.992 700.5,181.5C 694.667,182.362 691.333,179.695 690.5,173.5 Z"/></g>
<g><path style="opacity:1" fill="#52b154" d="M 677.5,172.5 C 680.187,172.336 682.854,172.503 685.5,173C 686.876,175.54 686.21,177.54 683.5,179C 680.833,179.667 678.167,179.667 675.5,179C 674.978,178.439 674.645,177.772 674.5,177C 675.315,175.357 676.315,173.857 677.5,172.5 Z"/></g>
<g><path style="opacity:1" fill="#4daf51" d="M 674.5,182.5 C 680.771,183.77 682.604,187.437 680,193.5C 674.591,198.288 671.425,197.121 670.5,190C 670.603,188.439 670.937,186.939 671.5,185.5C 672.77,184.712 673.77,183.712 674.5,182.5 Z"/></g>
<g><path style="opacity:1" fill="#52b054" d="M 683.5,193.5 C 693.946,193.391 695.946,197.224 689.5,205C 683.963,206.985 680.963,205.152 680.5,199.5C 680.628,197.045 681.628,195.045 683.5,193.5 Z"/></g>
<g><path style="opacity:1" fill="#62b762" d="M 665.5,188.5 C 667.117,189.589 667.95,191.256 668,193.5C 668.176,201.045 666.676,201.212 663.5,194C 663.758,191.991 664.425,190.157 665.5,188.5 Z"/></g>
<g><path style="opacity:1" fill="#4aac4c" d="M 670.5,198.5 C 676.068,198.406 679.068,201.073 679.5,206.5C 673.373,207.373 670.373,204.707 670.5,198.5 Z"/></g>
<g><path style="opacity:1" fill="#323131" d="M 728.5,251.5 C 723.833,251.5 719.167,251.5 714.5,251.5C 707.22,244.727 699.72,238.061 692,231.5C 691.333,228.833 691.333,226.167 692,223.5C 699.42,216.084 706.087,208.084 712,199.5C 713.719,197.443 715.719,195.776 718,194.5C 730.071,203.232 741.571,212.732 752.5,223C 744.26,232.398 736.26,241.898 728.5,251.5 Z"/></g>
<g><path style="opacity:1" fill="#52b052" d="M 695.5,200.5 C 700.117,200.357 700.784,202.024 697.5,205.5C 695.827,207.086 693.827,207.753 691.5,207.5C 692.385,204.939 693.718,202.606 695.5,200.5 Z"/></g>
<g><path style="opacity:1" fill="#2396f1" d="M 799.5,178.5 C 799.5,184.833 799.5,191.167 799.5,197.5C 790.822,206.682 782.656,216.349 775,226.5C 773.736,228.607 771.903,229.607 769.5,229.5C 767.188,226.521 764.521,223.854 761.5,221.5C 761.491,219.692 761.991,218.025 763,216.5C 774.333,203.167 785.667,189.833 797,176.5C 797.708,177.381 798.542,178.047 799.5,178.5 Z"/></g>
<g><path style="opacity:1" fill="#50b052" d="M 655.5,198.5 C 658.518,198.335 661.518,198.502 664.5,199C 666.919,200.509 667.919,202.675 667.5,205.5C 665.143,205.337 662.81,205.503 660.5,206C 662.5,206.333 664.5,206.667 666.5,207C 667.833,208 667.833,209 666.5,210C 659.474,212.358 654.474,210.025 651.5,203C 652.604,201.285 653.938,199.785 655.5,198.5 Z"/></g>
<g><path style="opacity:1" fill="#49ac4a" d="M 679.5,207.5 C 682.898,207.18 686.232,207.513 689.5,208.5C 686.792,210.436 683.792,210.936 680.5,210C 679.748,209.329 679.414,208.496 679.5,207.5 Z"/></g>
<g><path style="opacity:1" fill="#15141a" d="M 799.5,197.5 C 799.5,198.167 799.5,198.833 799.5,199.5C 791.219,209.456 782.886,219.456 774.5,229.5C 772.494,231.896 770.828,231.896 769.5,229.5C 771.903,229.607 773.736,228.607 775,226.5C 782.656,216.349 790.822,206.682 799.5,197.5 Z"/></g>
<g><path style="opacity:1" fill="#aedcaf" d="M 669.5,211.5 C 670.568,210.566 671.901,210.232 673.5,210.5C 674.525,214.254 675.358,217.921 676,221.5C 673.416,218.664 672.249,215.331 672.5,211.5C 671.5,211.5 670.5,211.5 669.5,211.5 Z"/></g>
<g><path style="opacity:1" fill="#50b053" d="M 673.5,210.5 C 680.88,210.553 683.38,214.22 681,221.5C 679.813,225.763 677.313,226.596 673.5,224C 670.265,221.775 668.265,218.775 667.5,215C 667.387,213.301 668.053,212.134 669.5,211.5C 670.5,211.5 671.5,211.5 672.5,211.5C 672.249,215.331 673.416,218.664 676,221.5C 675.358,217.921 674.525,214.254 673.5,210.5 Z"/></g>
<g><path style="opacity:1" fill="#f6f8cb" d="M 592.5,216.5 C 601.051,215.563 605.218,219.23 605,227.5C 604.727,229.329 603.893,230.829 602.5,232C 592.464,235.632 587.964,232.132 589,221.5C 589.997,219.677 591.164,218.01 592.5,216.5 Z"/></g>
<g><path style="opacity:1" fill="#f3f3f2" d="M 594.5,220.5 C 600.026,220.38 601.693,222.88 599.5,228C 593.593,228.746 591.927,226.246 594.5,220.5 Z"/></g>
<g><path style="opacity:1" fill="#363332" d="M 641.5,251.5 C 639.833,251.5 638.167,251.5 636.5,251.5C 634.226,246.384 632.226,246.384 630.5,251.5C 628.833,251.5 627.167,251.5 625.5,251.5C 624.891,248.034 623.058,247.034 620,248.5C 619.517,249.448 619.351,250.448 619.5,251.5C 618.833,251.5 618.167,251.5 617.5,251.5C 612.977,249.166 608.81,246.166 605,242.5C 604.333,240.5 604.333,238.5 605,236.5C 607.19,234.612 609.023,232.445 610.5,230C 611.333,229.833 612.167,229.667 613,229.5C 616.148,231.304 619.315,233.137 622.5,235C 628.494,241.037 634.827,246.537 641.5,251.5 Z"/></g>
<g><path style="opacity:1" fill="#323232" d="M 799.5,199.5 C 799.5,204.5 799.5,209.5 799.5,214.5C 794.512,219.492 789.846,224.825 785.5,230.5C 783.631,231.169 781.964,231.503 780.5,231.5C 779.167,231.5 778.5,232.167 778.5,233.5C 775.279,236.273 772.279,239.273 769.5,242.5C 766.94,240.727 764.607,238.727 762.5,236.5C 764.569,233.764 766.903,231.431 769.5,229.5C 770.828,231.896 772.494,231.896 774.5,229.5C 782.886,219.456 791.219,209.456 799.5,199.5 Z"/></g>
<g><path style="opacity:1" fill="#d3e6d7" d="M 780.5,231.5 C 783.167,235.5 782.5,236.167 778.5,233.5C 778.5,232.167 779.167,231.5 780.5,231.5 Z"/></g>
<g><path style="opacity:1" fill="#de4c3e" d="M 612.5,231.5 C 615.776,232.122 617.109,234.122 616.5,237.5C 612.262,237.28 610.928,235.28 612.5,231.5 Z"/></g>
<g><path style="opacity:1" fill="#e54d3b" d="M 608.5,236.5 C 610.544,237.031 612.211,238.198 613.5,240C 611.484,243.015 609.317,243.182 607,240.5C 606.7,238.934 607.2,237.601 608.5,236.5 Z"/></g>
<g><path style="opacity:1" fill="#e84e3b" d="M 618.5,237.5 C 621.524,237.364 623.024,238.698 623,241.5C 621.32,242.603 619.82,242.27 618.5,240.5C 617.438,239.575 617.438,238.575 618.5,237.5 Z"/></g>
<g><path style="opacity:1" fill="#e54d3c" d="M 614.5,242.5 C 617.757,242.174 619.257,243.507 619,246.5C 616.507,247.946 614.673,247.279 613.5,244.5C 613.863,243.817 614.196,243.15 614.5,242.5 Z"/></g>
<g><path style="opacity:1" fill="#e94f3d" d="M 624.5,242.5 C 627.524,242.364 629.024,243.698 629,246.5C 626.507,247.946 624.673,247.279 623.5,244.5C 623.863,243.817 624.196,243.15 624.5,242.5 Z"/></g>
<g><path style="opacity:1" fill="#ee4e3c" d="M 625.5,251.5 C 623.5,251.5 621.5,251.5 619.5,251.5C 619.351,250.448 619.517,249.448 620,248.5C 623.058,247.034 624.891,248.034 625.5,251.5 Z"/></g>
<g><path style="opacity:1" fill="#e64d3c" d="M 636.5,251.5 C 634.5,251.5 632.5,251.5 630.5,251.5C 632.226,246.384 634.226,246.384 636.5,251.5 Z"/></g>
</svg>
