<?xml version="1.0" encoding="UTF-8"?>
<!DOCTYPE svg PUBLIC "-//W3C//DTD SVG 1.1//EN" "http://www.w3.org/Graphics/SVG/1.1/DTD/svg11.dtd">
<svg xmlns="http://www.w3.org/2000/svg" version="1.1" width="200px" height="200px" style="shape-rendering:geometricPrecision; text-rendering:geometricPrecision; image-rendering:optimizeQuality; fill-rule:evenodd; clip-rule:evenodd" xmlns:xlink="http://www.w3.org/1999/xlink">
<g><path style="opacity:1" fill="#fcfcfc" d="M -0.5,-0.5 C 31.1667,-0.5 62.8333,-0.5 94.5,-0.5C 84.1849,6.55705 83.8516,14.057 93.5,22C 105.354,23.4796 110.52,18.3129 109,6.5C 107.149,2.84324 104.316,0.509906 100.5,-0.5C 133.5,-0.5 166.5,-0.5 199.5,-0.5C 199.5,32.1667 199.5,64.8333 199.5,97.5C 194.752,89.9373 188.585,88.604 181,93.5C 176.09,102.674 178.59,108.674 188.5,111.5C 193.855,111.003 197.522,108.336 199.5,103.5C 199.5,135.5 199.5,167.5 199.5,199.5C 166.5,199.5 133.5,199.5 100.5,199.5C 106.065,196.947 107.898,192.613 106,186.5C 101.4,180.381 96.3996,180.048 91,185.5C 88.2144,191.586 89.7144,196.253 95.5,199.5C 63.5,199.5 31.5,199.5 -0.5,199.5C -0.5,157.5 -0.5,115.5 -0.5,73.5C 3.56379,79.2794 8.39713,79.9461 14,75.5C 16.5628,66.3897 13.0628,62.5564 3.5,64C 2.29493,65.3756 0.961599,66.5423 -0.5,67.5C -0.5,44.8333 -0.5,22.1667 -0.5,-0.5 Z"/></g>
<g><path style="opacity:1" fill="#0a0a0a" d="M 63.5,0.5 C 73.7943,-1.02753 78.961,3.3058 79,13.5C 73.3132,24.0596 66.3132,25.0596 58,16.5C 55.5713,9.69256 57.4047,4.35922 63.5,0.5 Z"/></g>
<g><path style="opacity:1" fill="#080808" d="M 94.5,-0.5 C 96.5,-0.5 98.5,-0.5 100.5,-0.5C 104.316,0.509906 107.149,2.84324 109,6.5C 110.52,18.3129 105.354,23.4796 93.5,22C 83.8516,14.057 84.1849,6.55705 94.5,-0.5 Z"/></g>
<g><path style="opacity:1" fill="#0c0c0c" d="M 155.5,5.5 C 164.023,5.06129 166.356,8.56129 162.5,16C 157.023,18.5946 153.689,16.928 152.5,11C 152.863,8.80771 153.863,6.97438 155.5,5.5 Z"/></g>
<g><path style="opacity:1" fill="#0c0c0c" d="M 125.5,7.5 C 132.536,6.6026 134.203,9.1026 130.5,15C 124.785,15.401 123.119,12.901 125.5,7.5 Z"/></g>
<g><path style="opacity:1" fill="#080808" d="M 124.5,29.5 C 135.886,29.0482 140.72,34.3815 139,45.5C 135.71,51.0607 130.877,53.2274 124.5,52C 118.092,48.6772 115.925,43.5105 118,36.5C 119.694,33.6424 121.861,31.309 124.5,29.5 Z"/></g>
<g><path style="opacity:1" fill="#060606" d="M 94.5,31.5 C 104.535,31.0318 108.702,35.6984 107,45.5C 103.746,50.2227 99.2464,51.7227 93.5,50C 86.6215,43.3498 86.9548,37.1831 94.5,31.5 Z"/></g>
<g><path style="opacity:1" fill="#0b0b0b" d="M 34.5,31.5 C 45.6092,32.0794 49.1092,37.4128 45,47.5C 34.0724,53.0381 28.7391,49.7048 29,37.5C 30.3597,34.9774 32.193,32.9774 34.5,31.5 Z"/></g>
<g><path style="opacity:1" fill="#0a0a0a" d="M 185.5,35.5 C 191.051,34.0071 194.051,36.0071 194.5,41.5C 194.61,43.374 193.944,44.874 192.5,46C 183.43,47.1356 181.096,43.6356 185.5,35.5 Z"/></g>
<g><path style="opacity:1" fill="#151515" d="M 65.5,35.5 C 73.8283,36.0693 75.4949,39.5693 70.5,46C 64.7141,46.8809 62.2141,44.3809 63,38.5C 64.045,37.6266 64.8783,36.6266 65.5,35.5 Z"/></g>
<g><path style="opacity:1" fill="#101010" d="M 156.5,35.5 C 162.908,35.8097 164.908,38.9764 162.5,45C 156.24,47.4117 153.407,45.245 154,38.5C 155.045,37.6266 155.878,36.6266 156.5,35.5 Z"/></g>
<g><path style="opacity:1" fill="#080808" d="M 93.5,60.5 C 103.84,59.0225 109.007,63.3559 109,73.5C 106.166,80.6665 100.999,83.1665 93.5,81C 88.2061,77.5649 86.3728,72.7315 88,66.5C 89.3597,63.9774 91.193,61.9774 93.5,60.5 Z"/></g>
<g><path style="opacity:1" fill="#070707" d="M 124.5,60.5 C 134.337,59.5108 139.17,63.8441 139,73.5C 136.451,80.3583 131.617,82.8583 124.5,81C 115.213,74.1318 115.213,67.2984 124.5,60.5 Z"/></g>
<g><path style="opacity:1" fill="#060606" d="M 154.5,60.5 C 166.18,60.0016 170.68,65.335 168,76.5C 163.752,81.5959 158.585,82.7625 152.5,80C 145.535,72.6705 146.202,66.1705 154.5,60.5 Z"/></g>
<g><path style="opacity:1" fill="#0e0e0e" d="M 65.5,61.5 C 74.6966,62.1697 78.1966,66.8363 76,75.5C 69.5005,82.5366 63.8339,81.87 59,73.5C 58.3388,67.9887 60.5055,63.9887 65.5,61.5 Z"/></g>
<g><path style="opacity:1" fill="#090909" d="M -0.5,73.5 C -0.5,71.5 -0.5,69.5 -0.5,67.5C 0.961599,66.5423 2.29493,65.3756 3.5,64C 13.0628,62.5564 16.5628,66.3897 14,75.5C 8.39713,79.9461 3.56379,79.2794 -0.5,73.5 Z"/></g>
<g><path style="opacity:1" fill="#070707" d="M 185.5,64.5 C 195.818,64.3224 198.151,68.489 192.5,77C 182.102,77.4715 179.768,73.3048 185.5,64.5 Z"/></g>
<g><path style="opacity:1" fill="#0f0f0f" d="M 34.5,66.5 C 41.9974,65.8038 43.9974,68.6372 40.5,75C 33.1879,75.8714 31.1879,73.0381 34.5,66.5 Z"/></g>
<g><path style="opacity:1" fill="#050505" d="M 93.5,89.5 C 106.045,87.8766 111.212,93.2099 109,105.5C 105.551,111.544 100.385,113.71 93.5,112C 87.6362,108.434 85.4695,103.267 87,96.5C 88.6941,93.6424 90.8607,91.309 93.5,89.5 Z"/></g>
<g><path style="opacity:1" fill="#080808" d="M 199.5,97.5 C 199.5,99.5 199.5,101.5 199.5,103.5C 197.522,108.336 193.855,111.003 188.5,111.5C 178.59,108.674 176.09,102.674 181,93.5C 188.585,88.604 194.752,89.9373 199.5,97.5 Z"/></g>
<g><path style="opacity:1" fill="#0c0c0c" d="M 64.5,91.5 C 73.4662,90.7049 77.6329,94.7049 77,103.5C 74.1849,109.169 69.6849,111.002 63.5,109C 56.7803,102.765 57.1136,96.9313 64.5,91.5 Z"/></g>
<g><path style="opacity:1" fill="#080808" d="M 154.5,92.5 C 163.658,90.8346 167.825,94.5013 167,103.5C 163.086,110.096 158.086,111.096 152,106.5C 149.418,101.12 150.251,96.4531 154.5,92.5 Z"/></g>
<g><path style="opacity:1" fill="#101010" d="M 35.5,94.5 C 41.7649,94.3634 44.2649,97.3634 43,103.5C 40.8328,106.287 37.9994,107.12 34.5,106C 30.3438,101.787 30.6772,97.9538 35.5,94.5 Z"/></g>
<g><path style="opacity:1" fill="#0d0d0d" d="M 5.5,95.5 C 12.2973,96.1073 13.9639,99.2739 10.5,105C 2.03043,105.531 0.363761,102.364 5.5,95.5 Z"/></g>
<g><path style="opacity:1" fill="#0e0e0e" d="M 125.5,96.5 C 132.94,95.7533 134.94,98.5866 131.5,105C 123.749,106.091 121.749,103.258 125.5,96.5 Z"/></g>
<g><path style="opacity:1" fill="#0a0a0a" d="M 124.5,121.5 C 135.16,120.328 139.327,124.994 137,135.5C 130.176,142.586 124.176,141.919 119,133.5C 118.312,128.352 120.145,124.352 124.5,121.5 Z"/></g>
<g><path style="opacity:1" fill="#0a0a0a" d="M 185.5,120.5 C 196.032,120.199 200.199,125.199 198,135.5C 192.897,141.263 187.23,141.93 181,137.5C 176.758,130.274 178.258,124.607 185.5,120.5 Z"/></g>
<g><path style="opacity:1" fill="#0d0d0d" d="M 34.5,124.5 C 41.1733,123.382 44.34,126.049 44,132.5C 40.9017,138.319 36.9017,138.986 32,134.5C 30.8613,130.579 31.6946,127.246 34.5,124.5 Z"/></g>
<g><path style="opacity:1" fill="#0e0e0e" d="M 65.5,123.5 C 72.9778,123.485 75.8111,127.152 74,134.5C 68.8652,138.957 64.5319,138.29 61,132.5C 60.3772,128.412 61.8772,125.412 65.5,123.5 Z"/></g>
<g><path style="opacity:1" fill="#090909" d="M 95.5,123.5 C 102.169,123.005 105.336,126.005 105,132.5C 102.975,137.145 99.4754,138.645 94.5,137C 90.3662,132.119 90.6996,127.619 95.5,123.5 Z"/></g>
<g><path style="opacity:1" fill="#111111" d="M 5.5,125.5 C 12.3407,126.016 14.0074,129.182 10.5,135C 4.50689,136.668 2.00689,134.502 3,128.5C 3.69794,127.309 4.53128,126.309 5.5,125.5 Z"/></g>
<g><path style="opacity:1" fill="#0f0f0f" d="M 156.5,126.5 C 161.984,126.481 163.65,128.981 161.5,134C 154.683,134.861 153.016,132.361 156.5,126.5 Z"/></g>
<g><path style="opacity:1" fill="#070707" d="M 63.5,150.5 C 73.3366,149.511 78.17,153.844 78,163.5C 75.2701,170.053 70.4368,172.22 63.5,170C 58.8104,167.119 56.9771,162.952 58,157.5C 59.6665,155.004 61.4998,152.671 63.5,150.5 Z"/></g>
<g><path style="opacity:1" fill="#0a0a0a" d="M 34.5,150.5 C 44.4529,150.096 48.6196,154.763 47,164.5C 43.9446,169.635 39.4446,171.468 33.5,170C 25.2873,163.096 25.6207,156.596 34.5,150.5 Z"/></g>
<g><path style="opacity:1" fill="#080808" d="M 125.5,151.5 C 135.375,151.529 138.875,156.196 136,165.5C 129.727,171.365 124.394,170.698 120,163.5C 118.873,158.089 120.707,154.089 125.5,151.5 Z"/></g>
<g><path style="opacity:1" fill="#0a0a0a" d="M 95.5,153.5 C 106.152,154.317 108.152,158.817 101.5,167C 93.6667,168.5 90.5,165.333 92,157.5C 92.6897,155.65 93.8564,154.316 95.5,153.5 Z"/></g>
<g><path style="opacity:1" fill="#101010" d="M 155.5,156.5 C 162.716,155.688 164.716,158.355 161.5,164.5C 154.793,165.772 152.793,163.105 155.5,156.5 Z"/></g>
<g><path style="opacity:1" fill="#0a0a0a" d="M 100.5,199.5 C 98.8333,199.5 97.1667,199.5 95.5,199.5C 89.7144,196.253 88.2144,191.586 91,185.5C 96.3996,180.048 101.4,180.381 106,186.5C 107.898,192.613 106.065,196.947 100.5,199.5 Z"/></g>
<g><path style="opacity:1" fill="#0b0b0b" d="M 65.5,185.5 C 72.6317,185.789 74.2983,188.956 70.5,195C 64.4983,195.993 62.3317,193.493 64,187.5C 64.7172,186.956 65.2172,186.289 65.5,185.5 Z"/></g>
</svg>
