<svg xmlns="http://www.w3.org/2000/svg" width="512" height="510" style="shape-rendering:geometricPrecision;text-rendering:geometricPrecision;image-rendering:optimizeQuality;fill-rule:evenodd;clip-rule:evenodd"><path style="opacity:.995" fill="#fefefe" d="M215.5-.5h78c90.1 16.931 155.267 66.598 195.5 149 24.181 57.594 28.181 116.594 12 177-28.762 89.762-88.262 148.262-178.5 175.5-14.942 3.914-29.942 6.747-45 8.5h-46c-97.731-12.428-168.231-62.761-211.5-151-9.82-23.276-16.653-47.276-20.5-72v-66C15.425 125.412 67.092 57.579 154.5 17c19.839-8.008 40.173-13.84 61-17.5z"/><path style="opacity:1" fill="#a3a19e" d="M260.5.5a84.142 84.142 0 0 1-4 8c-1.601 5.604-1.101 10.937 1.5 16 .671-.752 1.504-1.086 2.5-1 1.006.896 1.006 1.562 0 2-1.644.31-2.644 1.31-3 3h-4c.709-.904 1.709-1.237 3-1l-2-4h-3a640.678 640.678 0 0 0 4-22 9.107 9.107 0 0 1 5-1z"/><path style="opacity:1" fill="#cdcec8" d="M273.5 8.5c-3.962 1.222-5.629-.445-5-5 1.879-.841 3.879-1.175 6-1 .295 2.235-.039 4.235-1 6z"/><path style="opacity:1" fill="#ababa6" d="M268.5 3.5c-.629 4.555 1.038 6.222 5 5-.282 1.278-.949 2.278-2 3-1.478-.262-2.811.071-4 1-.77 3.662-2.103 6.995-4 10 1.24-6.639 2.907-12.972 5-19z"/><path style="opacity:1" fill="#7c7d7a" d="M260.5.5h7c.61.891.943 1.891 1 3-2.093 6.028-3.76 12.361-5 19-.709.904-1.709 1.237-3 1-.996-.086-1.829.248-2.5 1-2.601-5.063-3.101-10.396-1.5-16a84.142 84.142 0 0 0 4-8z"/><path style="opacity:1" fill="#696b6d" d="M282.5 3.5c7.72.872 15.053 2.872 22 6a1486.105 1486.105 0 0 1-3 27v2c-.617.11-1.117.444-1.5 1-.108 3.965-.941 7.632-2.5 11a479.105 479.105 0 0 1 5-38.5 6.29 6.29 0 0 0-1-3c-3.268-1.213-6.601-1.546-10-1-.001 1.399-.335 2.899-1 4.5.355 1.022 1.022 1.689 2 2-.597.639-1.43.972-2.5 1a81.588 81.588 0 0 0-12.5-2c.597 4.794-.07 9.127-2 13 .111-.617.444-1.117 1-1.5-1.48-1.3-2.146-2.966-2-5a370.152 370.152 0 0 0 2-16.5h6z"/><path style="opacity:1" fill="#8d8f8e" d="M267.5.5a332.573 332.573 0 0 1 15 3h-6a370.152 370.152 0 0 1-2 16.5c-.146 2.034.52 3.7 2 5-.556.383-.889.883-1 1.5h-1c-2.235-3.686-2.569-7.686-1-12-.14-1.53-.807-2.53-2-3 1.051-.722 1.718-1.722 2-3 .961-1.765 1.295-3.765 1-6-2.121-.175-4.121.159-6 1a5.727 5.727 0 0 0-1-3z"/><path style="opacity:1" fill="#a7a8a9" d="M304.5 9.5c1.526.992 2.193 2.492 2 4.5-1.116 7.761-2.783 15.261-5 22.5a1486.105 1486.105 0 0 0 3-27z"/><path style="opacity:1" fill="#6a6b6a" d="M262.5 1.5h3a21.128 21.128 0 0 1-1 9 244.04 244.04 0 0 1-4 12c-2.945-2.453-3.278-5.12-1-8-.106-4.403.894-8.736 3-13z"/><path style="opacity:1" fill="#e4e5dd" d="M271.5 11.5c-.971 5.37-.971 10.703 0 16a11.371 11.371 0 0 1-2.5 2 47.354 47.354 0 0 0-2.5 16h-4c-.731-4.723-.064-9.39 2-14a54.918 54.918 0 0 1-2.5-5 2.429 2.429 0 0 0-.5 2c-2.296-.304-2.629-1.304-1-3 1.006-.438 1.006-1.104 0-2 1.291.237 2.291-.096 3-1 1.897-3.005 3.23-6.338 4-10 1.189-.929 2.522-1.262 4-1z"/><path style="opacity:1" fill="#555859" d="M292.5 14.5c.789.283 1.456.783 2 1.5-2.163.245-3.83 1.245-5 3 .083 3.5.083 7 0 10.5-3.271 5.548-4.937 11.38-5 17.5-1.634.493-3.301.66-5 .5a18.452 18.452 0 0 0-.5-6c-.654 1.196-1.154 1.196-1.5 0a9.419 9.419 0 0 0 3-3c-1.453.44-2.619-.227-3.5-2a77.715 77.715 0 0 1-5.5 11h-4c.709-.904 1.709-1.237 3-1a157.7 157.7 0 0 1 4-20h1c1.93-3.873 2.597-8.206 2-13a81.588 81.588 0 0 1 12.5 2c1.07-.028 1.903-.361 2.5-1z"/><path style="opacity:1" fill="#4a4c4e" d="m297.5 50.5-2 1a4.932 4.932 0 0 0-3 .5c2.321 3.123 1.987 6.123-1 9 .457.414.791.914 1 1.5-2.185 4.47-2.185 8.803 0 13a10.255 10.255 0 0 1-4 1.5l1 1a30.217 30.217 0 0 0-3 3.5c-.333-1-1-1.667-2-2 1.228-1.51 1.228-3.01 0-4.5a71.282 71.282 0 0 0-19-3.5 44.093 44.093 0 0 0-3-2c.124-.607.457-.94 1-1 2.865 1.283 5.865 1.283 9 0 2.295 2.89 5.295 3.723 9 2.5-1.333-1-1.333-2 0-3-2.432-1.088-2.098-1.588 1-1.5a38.457 38.457 0 0 1 2-13 75.815 75.815 0 0 1-13-3c1.291-1.027 1.291-2.027 0-3a77.715 77.715 0 0 0 5.5-11c.881 1.773 2.047 2.44 3.5 2a9.419 9.419 0 0 1-3 3c.346 1.196.846 1.196 1.5 0 .495 1.973.662 3.973.5 6 1.699.16 3.366-.007 5-.5.063-6.12 1.729-11.952 5-17.5.083-3.5.083-7 0-10.5 1.17-1.755 2.837-2.755 5-3-.544-.717-1.211-1.217-2-1.5-.978-.311-1.645-.978-2-2 .665-1.601.999-3.101 1-4.5 3.399-.546 6.732-.213 10 1a6.29 6.29 0 0 1 1 3 479.105 479.105 0 0 0-5 38.5z"/><path style="opacity:1" fill="#bfc0bb" d="M271.5 11.5c1.193.47 1.86 1.47 2 3-1.569 4.314-1.235 8.314 1 12-.433 2.759-2.1 4.092-5 4 .131 5.348-.869 10.348-3 15a47.354 47.354 0 0 1 2.5-16 11.371 11.371 0 0 0 2.5-2c-.971-5.297-.971-10.63 0-16z"/><path style="opacity:1" fill="#c1c1be" d="M251.5 23.5h3l2 4c-1.291-.237-2.291.096-3 1-3.309 5.673-4.642 12.007-4 19h-1c-.421-8.222.579-16.222 3-24z"/><path style="opacity:1" fill="#b4b7af" d="M262.5 45.5c-1.844-1.779-2.51-4.112-2-7 .116-3.36.449-6.693 1-10a2.429 2.429 0 0 1 .5-2 54.918 54.918 0 0 0 2.5 5c-2.064 4.61-2.731 9.277-2 14z"/><path style="opacity:1" fill="#838381" d="M253.5 28.5h4c-.418.722-1.084 1.222-2 1.5a3.944 3.944 0 0 1 1 2 59.062 59.062 0 0 0-3 15.5h-4c-.642-6.993.691-13.327 4-19z"/><path style="opacity:1" fill="#797978" d="M274.5 26.5a157.7 157.7 0 0 0-4 20c-1.291-.237-2.291.096-3 1-2.308-1.214-4.641-1.214-7 0a44.093 44.093 0 0 1 3 2c-1.478-.262-2.811.071-4 1l2 1c-3.118 4.12-4.784 8.786-5 14 1.936 1.586 2.936 3.252 3 5 1.247-1.506 1.247-3.006 0-4.5a2.427 2.427 0 0 1 2-.5c.901.79 1.568 1.79 2 3-.543.06-.876.393-1 1a44.093 44.093 0 0 1 3 2c.03.997-.47 1.664-1.5 2-2.716-.383-5.549-.383-8.5 0l-1-1.5a1422.23 1422.23 0 0 1 3-18.5c-.02-1.226-.353-2.226-1-3a16.578 16.578 0 0 0 2.5-4c.183-2.865.683-5.531 1.5-8-.51 2.888.156 5.221 2 7h4c2.131-4.652 3.131-9.652 3-15 2.9.092 4.567-1.241 5-4z"/><path style="opacity:1" fill="#c6c7bf" d="M267.5 47.5c-.321 1.548-1.321 2.215-3 2h-1a44.093 44.093 0 0 0-3-2c2.359-1.214 4.692-1.214 7 0z"/><path style="opacity:1" fill="#696b69" d="M260.5 25.5c-1.629 1.696-1.296 2.696 1 3a76.923 76.923 0 0 0-1 10c-.817 2.469-1.317 5.135-1.5 8a16.578 16.578 0 0 1-2.5 4h-3a6.845 6.845 0 0 0 1 4 59.148 59.148 0 0 0-6 12 39.09 39.09 0 0 1 2-14.5 14.698 14.698 0 0 0-1-4.5h4a59.062 59.062 0 0 1 3-15.5 3.944 3.944 0 0 0-1-2c.916-.278 1.582-.778 2-1.5.356-1.69 1.356-2.69 3-3z"/><path style="opacity:1" fill="#a5a7a8" d="M301.5 38.5a431.109 431.109 0 0 0-7 39c-.656-1.122-.989-2.455-1-4a220.837 220.837 0 0 0 2-22l2-1c1.559-3.368 2.392-7.035 2.5-11 .383-.556.883-.89 1.5-1z"/><path style="opacity:1" fill="#979895" d="M263.5 49.5h1c.077 1.25.744 2.083 2 2.5-2.667.667-2.667 1.333 0 2-2.137 3.561-3.804 7.395-5 11.5a2.427 2.427 0 0 0-2 .5c1.247 1.494 1.247 2.994 0 4.5-.064-1.748-1.064-3.414-3-5 .216-5.214 1.882-9.88 5-14l-2-1c1.189-.929 2.522-1.262 4-1z"/><path style="opacity:1" fill="#b8b7b3" d="M246.5 48.5c.218 6.608-.782 12.94-3 19h-1a238.198 238.198 0 0 1 4-19z"/><path style="opacity:1" fill="#7f7f7d" d="M248.5 47.5h1a14.698 14.698 0 0 1 1 4.5 39.09 39.09 0 0 0-2 14.5c-1.792-.134-3.458.2-5 1 2.218-6.06 3.218-12.392 3-19l2-1z"/><path style="opacity:1" fill="#666769" d="M267.5 47.5h4c1.291.973 1.291 1.973 0 3a75.815 75.815 0 0 0 13 3 38.457 38.457 0 0 0-2 13c-3.098-.088-3.432.412-1 1.5-1.333 1-1.333 2 0 3-3.705 1.223-6.705.39-9-2.5-3.135 1.283-6.135 1.283-9 0-.432-1.21-1.099-2.21-2-3 1.196-4.105 2.863-7.939 5-11.5-2.667-.667-2.667-1.333 0-2-1.256-.417-1.923-1.25-2-2.5 1.679.215 2.679-.452 3-2z"/><path style="opacity:1" fill="#414143" d="M284.5 79.5c1 .333 1.667 1 2 2-1.333 0-2 .667-2 2-.689 1.207-.855 2.54-.5 4a51.104 51.104 0 0 0-5.5-4c-5.617-.796-11.284-2.13-17-4-1.385-3.2-.219-4.867 3.5-5a114.5 114.5 0 0 0 19.5 5z"/><path style="opacity:1" fill="#b2afb3" d="M295.5 77.5c.934 1.068 1.268 2.401 1 4h-7c1.765-.961 3.765-1.295 6-1v-3z"/><path style="opacity:1" fill="#9d9d99" d="M251.5 120.5a4.934 4.934 0 0 0-.5-3c-.198 1.882-.698 3.548-1.5 5 .239-1.967-.094-3.801-1-5.5.881-.708 1.547-1.542 2-2.5.617.111 1.117.444 1.5 1a31.284 31.284 0 0 0 1.5-10c.059-3.19.393-6.357 1-9.5-.108-1.681-.775-2.848-2-3.5-1.016-4.258-.349-8.258 2-12 .822-2.88 2.489-3.88 5-3-.59 1.299-1.59 2.132-3 2.5 1.295 2.8 1.295 5.634 0 8.5 2.528 1.017 2.528 2.184 0 3.5l1 1a164.395 164.395 0 0 0-3.5 20.5c-.156 2.691-.989 5.024-2.5 7z"/><path style="opacity:1" fill="#626365" d="M256.5 50.5c.647.774.98 1.774 1 3a1422.23 1422.23 0 0 0-3 18.5l1 1.5c2.951-.383 5.784-.383 8.5 0 1.03-.336 1.53-1.003 1.5-2a71.282 71.282 0 0 1 19 3.5c1.228 1.49 1.228 2.99 0 4.5a114.5 114.5 0 0 1-19.5-5c-3.719.133-4.885 1.8-3.5 5-3.542.591-3.875 1.925-1 4 6.664-1.067 12.997.1 19 3.5-.892 2.95-2.225 5.617-4 8a60.255 60.255 0 0 1-11-1.5 20.716 20.716 0 0 0-7 1.5c2.363.588 3.363 2.088 3 4.5 2.64-.053 5.14-.72 7.5-2 1.825.443 3.658.777 5.5 1-.014 8.066-1.348 16.066-4 24-2.431-1.241-2.431-2.408 0-3.5.007-1.583-.326-3.249-1-5a4.457 4.457 0 0 0 2-1.5 10.756 10.756 0 0 1-2.5-3c-1.388 1.054-2.888 1.22-4.5.5 1.172-1.868 1.005-3.702-.5-5.5a33.794 33.794 0 0 1-5.5 11c2.576 1.383 2.242 2.217-1 2.5a192.458 192.458 0 0 0 3 4 8.43 8.43 0 0 1-4 .5 4.934 4.934 0 0 0 .5 3l1-1c.374.916.874 1.75 1.5 2.5-4.097.634-4.764 2.301-2 5-1.473.71-2.14 1.876-2 3.5-1.624-.14-2.79.527-3.5 2a32.462 32.462 0 0 1-.5-8c-.13-2.875.203-5.875 1-9 1.511-1.976 2.344-4.309 2.5-7a164.395 164.395 0 0 1 3.5-20.5l-1-1c2.528-1.316 2.528-2.483 0-3.5 1.295-2.866 1.295-5.7 0-8.5 1.41-.368 2.41-1.201 3-2.5-2.511-.88-4.178.12-5 3a51.648 51.648 0 0 1-7 1c-.163-2.357.003-4.69.5-7 1.699-.906 3.533-1.24 5.5-1v-5c-3.48.73-6.814 1.73-10 3v-4c1.542-.8 3.208-1.134 5-1a59.148 59.148 0 0 1 6-12 6.845 6.845 0 0 1-1-4h3z"/><path style="opacity:1" fill="#b0b0b4" d="M290.5 89.5c1.216 2.347 1.216 4.847 0 7.5-1.119 1.876-2.786 2.71-5 2.5 3.43-2.435 5.096-5.769 5-10z"/><path style="opacity:1" fill="#c5c5c3" d="M242.5 93.5c.057 5.031-.943 9.698-3 14 .27-4.95 1.27-9.617 3-14z"/><path style="opacity:1" fill="#8a8b8a" d="M246.5 74.5a146.594 146.594 0 0 1-4 11.5c1.417 2.594 2.084 5.428 2 8.5-1.01 4.708-1.01 9.375 0 14a347.042 347.042 0 0 0-3.5 11 152.566 152.566 0 0 1-4 28c-2.534 2.752-3.867 6.086-4 10a14504.105 14504.105 0 0 0-3.5 32 175.34 175.34 0 0 0-4 14h-2a569.06 569.06 0 0 0 4.5-27l2-4c.406-6.349.906-12.683 1.5-19v-2a318.416 318.416 0 0 0 7.5-32c.498-3.317.665-6.65.5-10v-2c2.057-4.302 3.057-8.969 3-14 .039-1.859-.794-3.192-2.5-4a12.494 12.494 0 0 1 0-7c2.756-2.249 4.922-4.916 6.5-8z"/><path style="opacity:1" fill="#737373" d="M242.5 67.5h1v4a60.339 60.339 0 0 1 10-3v5c-1.967-.24-3.801.094-5.5 1a24.935 24.935 0 0 0-.5 7 51.648 51.648 0 0 0 7-1c-2.349 3.742-3.016 7.742-2 12h-7a75.355 75.355 0 0 0 1 16c-3.671 8.584-4.671 17.418-3 26.5-2.117 1.733-3.617 3.9-4.5 6.5a2879.484 2879.484 0 0 0-8 47c-.383.556-.883.889-1.5 1 1.125-10.392 2.291-21.059 3.5-32 .133-3.914 1.466-7.248 4-10a152.566 152.566 0 0 0 4-28 347.042 347.042 0 0 1 3.5-11c-1.01-4.625-1.01-9.292 0-14 .084-3.072-.583-5.906-2-8.5a146.594 146.594 0 0 0 4-11.5c-1.706-2.036-4.039-3.036-7-3v-4h3z"/><path style="opacity:1" fill="#b3b2b1" d="M253.5 105.5a31.284 31.284 0 0 1-1.5 10c-.383-.556-.883-.889-1.5-1 .247-3.354 1.247-6.354 3-9z"/><path style="opacity:1" fill="#b9b9b6" d="M239.5 109.5a50.464 50.464 0 0 1-.5 10 318.416 318.416 0 0 1-7.5 32 361.573 361.573 0 0 1 8-42z"/><path style="opacity:1" fill="#9c9d9f" d="M287.5 84.5c1.237 1.465 2.237 3.132 3 5 .096 4.231-1.57 7.565-5 10a1284.429 1284.429 0 0 1-16 80v-7a3582.584 3582.584 0 0 0 11-51.5c.504-9.282 2.504-18.115 6-26.5a25.878 25.878 0 0 0 1-10z"/><path style="opacity:1" fill="#565659" d="M261.5 79.5c5.716 1.87 11.383 3.204 17 4a51.104 51.104 0 0 1 5.5 4c-.355-1.46-.189-2.793.5-4 .647.774.98 1.774 1 3-1.225 8.705-3.392 17.038-6.5 25-1.324 10.313-3.657 20.313-7 30a339.87 339.87 0 0 0-2.5 20 62.438 62.438 0 0 1-3.5 10 115.122 115.122 0 0 1-3.5 21c-1.788.285-3.455-.048-5-1a4.457 4.457 0 0 1 2-1.5c-1.192-4.774-1.192-9.607 0-14.5l-.5-3c-.654 1.196-1.154 1.196-1.5 0a12.403 12.403 0 0 1 4-2.5c-.263-3.058-.43-6.225-.5-9.5l-1.5-1.5c3.327-2.644 4.327-5.977 3-10a24.275 24.275 0 0 1 3.5-3.5 33.27 33.27 0 0 1 3.5-8.5c-.428-2.629-1.428-4.962-3-7a47.235 47.235 0 0 0 4-6c-.556-.383-.889-.883-1-1.5 2.652-7.934 3.986-15.934 4-24a47.477 47.477 0 0 1-5.5-1c-2.36 1.28-4.86 1.947-7.5 2 .363-2.412-.637-3.912-3-4.5a20.716 20.716 0 0 1 7-1.5 60.255 60.255 0 0 0 11 1.5c1.775-2.383 3.108-5.05 4-8-6.003-3.4-12.336-4.567-19-3.5-2.875-2.075-2.542-3.409 1-4z"/><path style="opacity:1" fill="#b4b5b2" d="M251.5 120.5c-.797 3.125-1.13 6.125-1 9a1552.997 1552.997 0 0 1-5 19.5l1 3a137.739 137.739 0 0 0-3 14c.228.399.562.565 1 .5l-5 20c-.667 1.333-1.333 1.333-2 0a109.636 109.636 0 0 1 2-6.5c.113-3.284-.22-6.617-1-10a4.934 4.934 0 0 1 3-.5c-.073-6.072.927-12.239 3-18.5a11.25 11.25 0 0 0-1-3.5c2.434-6.067 4.101-12.4 5-19a4.933 4.933 0 0 0-1-2.5c1.473-.71 2.14-1.876 2-3.5.802-1.452 1.302-3.118 1.5-5 .483.948.649 1.948.5 3z"/><path style="opacity:1" fill="#b9b8b6" d="M231.5 153.5a637.533 637.533 0 0 0-1.5 19l-2 4a569.06 569.06 0 0 1-4.5 27h-1c.389-5.004.889-10.004 1.5-15a481.16 481.16 0 0 1 7.5-35z"/><path style="opacity:1" fill="#666668" d="M252.5 92.5c1.225.652 1.892 1.819 2 3.5a55.414 55.414 0 0 0-1 9.5c-1.753 2.646-2.753 5.646-3 9-.453.958-1.119 1.792-2 2.5.906 1.699 1.239 3.533 1 5.5.14 1.624-.527 2.79-2 3.5a4.933 4.933 0 0 1 1 2.5c-.899 6.6-2.566 12.933-5 19a11.25 11.25 0 0 1 1 3.5c-2.073 6.261-3.073 12.428-3 18.5a4.934 4.934 0 0 0-3 .5c.78 3.383 1.113 6.716 1 10a109.636 109.636 0 0 0-2 6.5c.667 1.333 1.333 1.333 2 0l5-20c.817-2.469 1.317-5.135 1.5-8a3.647 3.647 0 0 1 1.5-1 84.257 84.257 0 0 1 2 11c2.222.322 4.056-.345 5.5-2a11.333 11.333 0 0 0 1.5 3.5c-1.167.5-2 1.333-2.5 2.5a476.866 476.866 0 0 1-7.5-1c-.281 3.317-.281 6.483 0 9.5a4.457 4.457 0 0 0-2 1.5 12.403 12.403 0 0 0 4 2.5 11.333 11.333 0 0 0-1.5 3.5c-.777-2.201-1.944-2.201-3.5 0a4.457 4.457 0 0 0 2 1.5c-3.45.899-4.45 2.899-3 6a39.064 39.064 0 0 0-2 4.5c-1.333 0-2-.667-2-2a90.021 90.021 0 0 0-1-10 129.083 129.083 0 0 0-4 18c-.789-.283-1.456-.783-2-1.5 1.744-2.963 2.244-6.129 1.5-9.5-2.614 2.097-4.114 4.763-4.5 8h-3a175.34 175.34 0 0 1 4-14c.617-.111 1.117-.444 1.5-1a2879.484 2879.484 0 0 1 8-47c.883-2.6 2.383-4.767 4.5-6.5-1.671-9.082-.671-17.916 3-26.5a75.355 75.355 0 0 1-1-16h7z"/><path style="opacity:1" fill="#6d6f72" d="M295.5 51.5a220.837 220.837 0 0 1-2 22c.011 1.545.344 2.878 1 4h1v3c-2.235-.295-4.235.039-6 1-1.406.473-2.073 1.473-2 3a25.878 25.878 0 0 1-1 10c-3.496 8.385-5.496 17.218-6 26.5a3582.584 3582.584 0 0 1-11 51.5c-1.086.12-1.753.787-2 2a2569.096 2569.096 0 0 0-6 35 11.988 11.988 0 0 1 1 6c-2.063 7.413-3.396 15.079-4 23 .237 1.291-.096 2.291-1 3-.768.763-1.268 1.763-1.5 3-.667 4-.667 8 0 12 1.011-.837 2.178-1.17 3.5-1 1.702 1.711 3.035 3.711 4 6a6467.108 6467.108 0 0 0-3.5 17c-1.049 1.607-2.549 2.273-4.5 2 4.569-5.072 4.569-9.905 0-14.5l1-1-3-1 6-1c-2.28-.233-4.28-1.066-6-2.5 1.304-5.13 1.304-10.13 0-15a22.143 22.143 0 0 1 3-9.5 4.933 4.933 0 0 1-1-2.5c.877-4.39 1.877-8.723 3-13-1.867-3.747-1.2-6.914 2-9.5a11.295 11.295 0 0 1-2-4 209.81 209.81 0 0 0 4-13.5c-1.788-.285-3.455.048-5 1a796.279 796.279 0 0 0-4 14c-4.247.322-8.247-.511-12-2.5-.906-1.699-1.239-3.533-1-5.5a39.064 39.064 0 0 1 2-4.5c-1.45-3.101-.45-5.101 3-6a4.457 4.457 0 0 1-2-1.5c1.556-2.201 2.723-2.201 3.5 0a11.333 11.333 0 0 1 1.5-3.5 12.403 12.403 0 0 1-4-2.5 4.457 4.457 0 0 1 2-1.5c-.281-3.017-.281-6.183 0-9.5 2.754.387 5.254.721 7.5 1 .5-1.167 1.333-2 2.5-2.5a11.333 11.333 0 0 1-1.5-3.5c-1.444 1.655-3.278 2.322-5.5 2a84.257 84.257 0 0 0-2-11 3.647 3.647 0 0 0-1.5 1c-.183 2.865-.683 5.531-1.5 8-.438.065-.772-.101-1-.5a137.739 137.739 0 0 1 3-14l-1-3a1552.997 1552.997 0 0 0 5-19.5 32.462 32.462 0 0 0 .5 8c.71-1.473 1.876-2.14 3.5-2-.14-1.624.527-2.79 2-3.5-2.764-2.699-2.097-4.366 2-5a9.454 9.454 0 0 1-1.5-2.5l-1 1a4.934 4.934 0 0 1-.5-3 8.43 8.43 0 0 0 4-.5 192.458 192.458 0 0 1-3-4c3.242-.283 3.576-1.117 1-2.5a33.794 33.794 0 0 0 5.5-11c1.505 1.798 1.672 3.632.5 5.5 1.612.72 3.112.554 4.5-.5a10.756 10.756 0 0 0 2.5 3 4.457 4.457 0 0 1-2 1.5c.674 1.751 1.007 3.417 1 5-2.431 1.092-2.431 2.259 0 3.5.111.617.444 1.117 1 1.5a47.235 47.235 0 0 1-4 6c1.572 2.038 2.572 4.371 3 7a33.27 33.27 0 0 0-3.5 8.5 24.275 24.275 0 0 0-3.5 3.5c1.327 4.023.327 7.356-3 10l1.5 1.5c.07 3.275.237 6.442.5 9.5a12.403 12.403 0 0 0-4 2.5c.346 1.196.846 1.196 1.5 0l.5 3c-1.192 4.893-1.192 9.726 0 14.5a4.457 4.457 0 0 0-2 1.5c1.545.952 3.212 1.285 5 1a115.122 115.122 0 0 0 3.5-21 62.438 62.438 0 0 0 3.5-10 339.87 339.87 0 0 1 2.5-20c3.343-9.687 5.676-19.687 7-30 3.108-7.962 5.275-16.295 6.5-25-.02-1.226-.353-2.226-1-3 0-1.333.667-2 2-2a30.217 30.217 0 0 1 3-3.5l-1-1a10.255 10.255 0 0 0 4-1.5c-2.185-4.197-2.185-8.53 0-13a3.647 3.647 0 0 0-1-1.5c2.987-2.877 3.321-5.877 1-9a4.932 4.932 0 0 1 3-.5z"/><path style="opacity:1" fill="#7e8082" d="M269.5 172.5v7c-.722.418-1.222 1.084-1.5 2a110.602 110.602 0 0 1-4 22 60.931 60.931 0 0 0-.5 11v1h-1a11.988 11.988 0 0 0-1-6 2569.096 2569.096 0 0 1 6-35c.247-1.213.914-1.88 2-2z"/><path style="opacity:1" fill="#a8a9ab" d="M269.5 179.5c-1.053 11.99-3.053 23.656-6 35a60.931 60.931 0 0 1 .5-11 110.602 110.602 0 0 0 4-22c.278-.916.778-1.582 1.5-2z"/><path style="opacity:1" fill="#aaabaa" d="M238.5 198.5c-.667 0-1 .333-1 1-.806 1.497-1.472 3.164-2 5 1.109 1.714.442 2.381-2 2a129.083 129.083 0 0 1 4-18c.527 3.388.86 6.721 1 10z"/><path style="opacity:1" fill="#949494" d="M222.5 203.5c-.321 1.548-1.321 2.215-3 2v8l-2 1c-1.896-2.96-2.896-6.293-3-10a24.93 24.93 0 0 0 8-1z"/><path style="opacity:1" fill="#4e4f52" d="M233.5 206.5a18.453 18.453 0 0 1-.5 6c-.738 2.97-1.904 5.636-3.5 8a23.411 23.411 0 0 0-3-7 15.418 15.418 0 0 0 1-7 4.934 4.934 0 0 0 3-.5c-2.153-.099-3.819-.933-5-2.5h3c.386-3.237 1.886-5.903 4.5-8 .744 3.371.244 6.537-1.5 9.5.544.717 1.211 1.217 2 1.5z"/><path style="opacity:1" fill="#afb0b2" d="M262.5 215.5h1a232.076 232.076 0 0 0-3.5 21c-.278.916-.778 1.582-1.5 2 .604-7.921 1.937-15.587 4-23z"/><path style="opacity:1" fill="#5b5c60" d="M253.5 245.5a71.254 71.254 0 0 1-4 2l2 2c-.553 2.227-.553 4.561 0 7a51.569 51.569 0 0 1-7 1 8.43 8.43 0 0 1-.5 4 54.874 54.874 0 0 1-2.5-10c1.322.17 2.489-.163 3.5-1 .987-7.297 2.821-14.297 5.5-21l-1-2c1.81-5.586 2.81-11.086 3-16.5a45.63 45.63 0 0 0-15-2.5v-9c0-.667.333-1 1-1 0 1.333.667 2 2 2-.239 1.967.094 3.801 1 5.5 3.753 1.989 7.753 2.822 12 2.5a796.279 796.279 0 0 1 4-14c1.545-.952 3.212-1.285 5-1a209.81 209.81 0 0 1-4 13.5 11.295 11.295 0 0 0 2 4c-3.2 2.586-3.867 5.753-2 9.5a223.855 223.855 0 0 0-3 13 4.933 4.933 0 0 0 1 2.5 22.143 22.143 0 0 0-3 9.5z"/><path style="opacity:1" fill="#b0b0ae" d="M219.5 219.5c.934 1.272 1.601 2.772 2 4.5-1.134.316-2.134 1.149-3 2.5a76.513 76.513 0 0 1-3.5 18c-.977 1.274-1.811 1.274-2.5 0 2.472-4.592 3.639-9.592 3.5-15a63.512 63.512 0 0 1 3.5-10z"/><path style="opacity:1" fill="#7f8081" d="M219.5 213.5c3.295 3.178 4.961 7.178 5 12a26.585 26.585 0 0 1-3.5 2c-.167 4.015-.001 7.848.5 11.5-1.646 1.555-1.979 3.221-1 5a32.129 32.129 0 0 0-3 7.5c-3.528 1.064-5.861-.269-7-4a5.576 5.576 0 0 1-3 1c1.079-2.043 2.746-3.376 5-4 .689 1.274 1.523 1.274 2.5 0a76.513 76.513 0 0 0 3.5-18c.866-1.351 1.866-2.184 3-2.5-.399-1.728-1.066-3.228-2-4.5-1.037-1.43-1.704-3.097-2-5l2-1z"/><path style="opacity:1" fill="#9b9d9f" d="M257.5 241.5a40.477 40.477 0 0 0-.5 13c1.461-1.383 2.294-1.049 2.5 1-1.322-.17-2.489.163-3.5 1-.667-4-.667-8 0-12 .232-1.237.732-2.237 1.5-3z"/><path style="opacity:1" fill="#56585b" d="M233.5 269.5c-.206-2.049-1.039-2.383-2.5-1-.456-1.244.044-2.077 1.5-2.5a19.887 19.887 0 0 1-4-3.5c-2.585 1.064-4.919 2.397-7 4-2.632-.94-5.298-1.107-8-.5 2.282 1.084 2.616 2.584 1 4.5l-3 1.5c2.132 1.62 2.465 3.454 1 5.5a4.934 4.934 0 0 0-.5-3c-.266 5.433-3.1 8.433-8.5 9-.555-3.512.112-6.512 2-9 1.478.262 2.811-.071 4-1-.553-2.227-.553-4.561 0-7-1.098-.897-1.098-1.73 0-2.5 4.707.017 5.707-1.65 3-5 1.964-1.794 3.464-1.294 4.5 1.5l1-1a29.812 29.812 0 0 0-.5-5c2.306.493 4.639.826 7 1h2c.417.624 1.084.957 2 1l10-2.5c-3.127 4.777-4.794 9.944-5 15.5z"/><path style="opacity:1" fill="#65676a" d="M237.5 199.5v9a45.63 45.63 0 0 1 15 2.5c-.19 5.414-1.19 10.914-3 16.5l1 2c-2.679 6.703-4.513 13.703-5.5 21-1.011.837-2.178 1.17-3.5 1a54.874 54.874 0 0 0 2.5 10 8.43 8.43 0 0 0 .5-4 51.569 51.569 0 0 0 7-1c-.553-2.439-.553-4.773 0-7l-2-2a71.254 71.254 0 0 0 4-2c1.304 4.87 1.304 9.87 0 15 1.72 1.434 3.72 2.267 6 2.5l-6 1 3 1-1 1c4.569 4.595 4.569 9.428 0 14.5v1h-3c-.302 2.559.032 4.893 1 7 .17 1.322-.163 2.489-1 3.5-2.369.536-4.369 1.703-6 3.5a10.258 10.258 0 0 1-1.5-4c-1.519 5.336-5.019 8.169-10.5 8.5 1.493 1.368 2.993 1.535 4.5.5.711 1.867.211 3.367-1.5 4.5-5.539-.689-10.872-.523-16 .5-2.128-.396-2.128-1.396 0-3 2.486.864 4.652.864 6.5 0 2.668-2.192 3.168-4.859 1.5-8a10.258 10.258 0 0 0-4-1.5c2.391-1.309 2.391-2.309 0-3 2.338-2.831 5.338-3.997 9-3.5a51.296 51.296 0 0 0 14 2c-.061-2.092-1.061-3.592-3-4.5a6.802 6.802 0 0 0 3-1.5 93.905 93.905 0 0 1-16.5-3 23.906 23.906 0 0 1 1.5-10c.206-5.556 1.873-10.723 5-15.5l-10 2.5c-.916-.043-1.583-.376-2-1a155.395 155.395 0 0 0 4.5-33 23.65 23.65 0 0 1-3.5 3c4 1.333 4 2.667 0 4a4.457 4.457 0 0 0 2 1.5c-2.244 1.366-3.577 3.366-4 6 1.503 1.921 2.169 4.088 2 6.5a4.934 4.934 0 0 0-3 .5c.259 4.237.259 8.07 0 11.5a51.569 51.569 0 0 1-7-1c.315 1.726.481 3.393.5 5l-1 1c-1.036-2.794-2.536-3.294-4.5-1.5 2.707 3.35 1.707 5.017-3 5-1.098.77-1.098 1.603 0 2.5-2.469-.974-4.136-2.808-5-5.5a172.889 172.889 0 0 0 3-12.5 5.576 5.576 0 0 0 3-1c1.139 3.731 3.472 5.064 7 4a32.129 32.129 0 0 1 3-7.5c-.979-1.779-.646-3.445 1-5-.501-3.652-.667-7.485-.5-11.5a26.585 26.585 0 0 0 3.5-2c-.039-4.822-1.705-8.822-5-12v-8c1.679.215 2.679-.452 3-2h3c1.181 1.567 2.847 2.401 5 2.5a4.934 4.934 0 0 1-3 .5 15.418 15.418 0 0 1-1 7 23.411 23.411 0 0 1 3 7c1.596-2.364 2.762-5.03 3.5-8 .495-1.973.662-3.973.5-6 2.442.381 3.109-.286 2-2 .528-1.836 1.194-3.503 2-5z"/><path style="opacity:1" fill="#8f908f" d="M226.5 255.5h-2c.259-3.43.259-7.263 0-11.5a4.934 4.934 0 0 1 3-.5c.169-2.412-.497-4.579-2-6.5.423-2.634 1.756-4.634 4-6a4.457 4.457 0 0 1-2-1.5c4-1.333 4-2.667 0-4a23.65 23.65 0 0 0 3.5-3 155.395 155.395 0 0 1-4.5 33z"/><path style="opacity:1" fill="#4d4f51" d="M233.5 269.5a23.906 23.906 0 0 0-1.5 10 93.905 93.905 0 0 0 16.5 3 6.802 6.802 0 0 1-3 1.5c1.939.908 2.939 2.408 3 4.5a51.296 51.296 0 0 1-14-2c-.577-2.152-1.744-2.485-3.5-1a66.615 66.615 0 0 1-2.5-6c-1.333-1.333-2.667-1.333-4 0 1.09 1.109 1.09 2.109 0 3-1.816 1.235-3.483 1.235-5 0 3.41.116 4.744-1.55 4-5a12.93 12.93 0 0 0 5-.5l-6-6c-2.671.806-5.338.639-8-.5 1.616-1.916 1.282-3.416-1-4.5 2.702-.607 5.368-.44 8 .5 2.081-1.603 4.415-2.936 7-4a19.887 19.887 0 0 0 4 3.5c-1.456.423-1.956 1.256-1.5 2.5 1.461-1.383 2.294-1.049 2.5 1z"/><path style="opacity:1" fill="#969797" d="M207.5 248.5a172.889 172.889 0 0 1-3 12.5c.864 2.692 2.531 4.526 5 5.5-.553 2.439-.553 4.773 0 7-1.189.929-2.522 1.262-4 1-.709-.904-1.709-1.237-3-1a22.684 22.684 0 0 1-2 8.5c.881.708 1.547 1.542 2 2.5a49.32 49.32 0 0 0-8-3c-2.644-7.934-.144-13.934 7.5-18a53.077 53.077 0 0 1 3-14c.671-.752 1.504-1.086 2.5-1z"/><path style="opacity:1" fill="#7c7c7c" d="M194.5 281.5c-.428-3.926.739-7.259 3.5-10a30.334 30.334 0 0 1-.5 10h-3z"/><path style="opacity:1" fill="#9f9ea0" d="M333.5 282.5a43.836 43.836 0 0 1-2-1c-1.72 1.455-3.72 2.288-6 2.5a22.981 22.981 0 0 1 5 2c-6.797-.367-9.464 2.8-8 9.5-1.599.268-2.932-.066-4-1a475.573 475.573 0 0 0 3-8 6.802 6.802 0 0 1 3-1.5c-1.103-1.68-.77-3.18 1-4.5l-1.5-1a20.987 20.987 0 0 0-4.5 3c1.012-3.353 3.346-5.02 7-5 3.654-.02 5.988 1.647 7 5z"/><path style="opacity:1" fill="#878789" d="M333.5 282.5c.661 1.634.994 3.467 1 5.5.079 3.451-.587 6.618-2 9.5h-1l1-10c-7.477-1.209-10.143 1.791-8 9-.992.172-1.658-.162-2-1-1.464-6.7 1.203-9.867 8-9.5a22.981 22.981 0 0 0-5-2c2.28-.212 4.28-1.045 6-2.5.683.363 1.35.696 2 1z"/><path style="opacity:1" fill="#44464a" d="M214.5 270.5c2.662 1.139 5.329 1.306 8 .5l6 6a12.93 12.93 0 0 1-5 .5c.744 3.45-.59 5.116-4 5-4.338.122-4.672.455-1 1a21.127 21.127 0 0 1-1 9c-1.471.881-2.304 2.214-2.5 4l-1-2a18.453 18.453 0 0 0-.5 6c-2.286-.095-4.286-.762-6-2a44.866 44.866 0 0 1 1-10c4.208-.294 4.875-1.96 2-5a31.71 31.71 0 0 0 2-6c1.465-2.046 1.132-3.88-1-5.5l3-1.5z"/><path style="opacity:1" fill="#828487" d="M255.5 281.5c-1.194 3.971.473 5.638 5 5v9h-1v-8c-2.235-.295-4.235.039-6 1-.968-2.107-1.302-4.441-1-7h3z"/><path style="opacity:1" fill="#c9c8c5" d="M209.5 285.5c.543.06.876.393 1 1a54.107 54.107 0 0 1-10 2.5c1.449 1.117 3.116 1.784 5 2-7.836.433-7.836 1.433 0 3a48.21 48.21 0 0 1-13-1.5c.749-3.191 1.749-5.857 3-8l3 1.5c-1.196.654-1.196 1.154 0 1.5 3.803-.604 7.469-1.27 11-2z"/><path style="opacity:1" fill="#7b7b7c" d="M318.5 294.5h-2a11.123 11.123 0 0 1-1-2.5c.517-3.648 1.851-6.815 4-9.5a20.987 20.987 0 0 1 4.5-3l1.5 1c-1.77 1.32-2.103 2.82-1 4.5a6.802 6.802 0 0 0-3 1.5 475.573 475.573 0 0 1-3 8z"/><path style="opacity:1" fill="#6c6e72" d="M331.5 297.5c-2.559.302-4.893-.032-7-1-2.143-7.209.523-10.209 8-9l-1 10z"/><path style="opacity:1" fill="#e4e4e2" d="M316.5 294.5h2c1.068.934 2.401 1.268 4 1 .342.838 1.008 1.172 2 1 2.107.968 4.441 1.302 7 1h1l-5 2a11.596 11.596 0 0 0-7-.5l2 1a6.802 6.802 0 0 0-3 1.5 20.2 20.2 0 0 0 6 1.5c-4.453.025-8.453 1.192-12 3.5a20.093 20.093 0 0 1-6-1.5c3.365-2.067 7.032-3.4 11-4-4.678-.197-5.012-1.197-1-3-1.811-1.041-2.145-2.207-1-3.5z"/><path style="opacity:1" fill="#bfbebd" d="M200.5 295.5c6.469 1.448 6.469 2.448 0 3-.667 0-1-.333-1-1l1-2z"/><path style="opacity:1" fill="#c3c4c4" d="M191.5 295.5v5h-11c-2.79-.449-5.456-.449-8 0a15.418 15.418 0 0 0-1 7c1.291-.237 2.291.096 3 1-2.928-.065-5.595-.732-8-2h3a15.894 15.894 0 0 1 1-6.5c-1.445-3.137-3.278-3.303-5.5-.5a18.453 18.453 0 0 0-.5 6c-1.086-.12-1.753-.787-2-2a31.435 31.435 0 0 1 2-6.5c8.021-2.218 15.688-1.384 23 2.5l2-.5a19.602 19.602 0 0 1 2-3.5z"/><path style="opacity:1" fill="#969595" d="M191.5 295.5c2.493 1.274 5.159 1.94 8 2 0 .667.333 1 1 1 1.109.79 2.442 1.29 4 1.5-2.514 1.252-5.18 1.752-8 1.5-4.202.317-8.202-.017-12-1h7v-5z"/><path style="opacity:1" fill="#636264" d="M260.5 299.5c4.805-.987 9.805-1.321 15-1 23.487 4.948 23.487 6.782 0 5.5a390.118 390.118 0 0 1-15-4.5z"/><path style="opacity:1" fill="#6b6b6c" d="M205.5 274.5c-1.888 2.488-2.555 5.488-2 9 5.4-.567 8.234-3.567 8.5-9 .483.948.649 1.948.5 3a31.71 31.71 0 0 1-2 6c2.875 3.04 2.208 4.706-2 5a44.866 44.866 0 0 0-1 10c-.891.761-1.558 1.761-2 3-3.145 1.303-6.145 1.303-9 0 2.82.252 5.486-.248 8-1.5-1.558-.21-2.891-.71-4-1.5 6.469-.552 6.469-1.552 0-3-3.042-.233-5.708-1.233-8-3a48.21 48.21 0 0 0 13 1.5c-7.836-1.567-7.836-2.567 0-3-1.884-.216-3.551-.883-5-2a54.107 54.107 0 0 0 10-2.5c-.124-.607-.457-.94-1-1a51.569 51.569 0 0 1-7-1c-.453-.958-1.119-1.792-2-2.5a22.684 22.684 0 0 0 2-8.5c1.291-.237 2.291.096 3 1z"/><path style="opacity:1" fill="#55575a" d="M234.5 286.5c-3.662-.497-6.662.669-9 3.5 2.391.691 2.391 1.691 0 3 1.438.219 2.771.719 4 1.5 1.668 3.141 1.168 5.808-1.5 8-1.848.864-4.014.864-6.5 0-2.128 1.604-2.128 2.604 0 3 5.128-1.023 10.461-1.189 16-.5 1.711-1.133 2.211-2.633 1.5-4.5-1.507 1.035-3.007.868-4.5-.5 5.481-.331 8.981-3.164 10.5-8.5a10.258 10.258 0 0 0 1.5 4c1.631-1.797 3.631-2.964 6-3.5.837-1.011 1.17-2.178 1-3.5 1.765-.961 3.765-1.295 6-1v8a25.879 25.879 0 0 0-10 1 58.42 58.42 0 0 1 7 3c-.268 5.596-2.268 10.429-6 14.5a8.43 8.43 0 0 1-4 .5c-3.213-.31-6.213.023-9 1a9.82 9.82 0 0 0-3 4c-3.21-4.864-7.877-6.864-14-6-.545 3.672-.878 3.338-1-1-4.088.501-8.088.501-12 0-1.304 2.803-3.304 5.136-6 7 1.921 1.141 3.921 1.308 6 .5-1.184-1.145-1.184-2.312 0-3.5a89.977 89.977 0 0 0 23 6c.891.761 1.558 1.761 2 3-.698 1.363-.698 2.529 0 3.5-.949.617-1.782.451-2.5-.5-3.02 2.954-6.52 3.954-10.5 3h-4c-.897 1.098-1.73 1.098-2.5 0l-1 3c-.122-1.937-.955-3.27-2.5-4h-1c-2.855-1.303-5.855-1.303-9 0 2.776 1.779 2.443 2.779-1 3a41.326 41.326 0 0 0-8-1v-3a8.43 8.43 0 0 1-4-.5 26.67 26.67 0 0 0 6.5-1.5c.383-2.973-.117-5.806-1.5-8.5l4-2c-1.996-3.498-4.996-5.331-9-5.5-.473-1.406-1.473-2.073-3-2-1.068-.934-2.401-1.268-4-1-.221-2.779.112-5.446 1-8h4c3.798.983 7.798 1.317 12 1 2.855 1.303 5.855 1.303 9 0 .442-1.239 1.109-2.239 2-3 1.714 1.238 3.714 1.905 6 2a18.453 18.453 0 0 1 .5-6l1 2c.196-1.786 1.029-3.119 2.5-4a21.127 21.127 0 0 0 1-9c-3.672-.545-3.338-.878 1-1 1.517 1.235 3.184 1.235 5 0 1.09-.891 1.09-1.891 0-3 1.333-1.333 2.667-1.333 4 0a66.615 66.615 0 0 0 2.5 6c1.756-1.485 2.923-1.152 3.5 1z"/><path style="opacity:1" fill="#858381" d="M166.5 306.5c-.992.172-1.658-.162-2-1a18.453 18.453 0 0 1 .5-6c2.222-2.803 4.055-2.637 5.5.5a15.894 15.894 0 0 0-1 6.5h-3z"/><path style="opacity:1" fill="#79797a" d="M180.5 300.5c-.888 2.554-1.221 5.221-1 8 1.599-.268 2.932.066 4 1a104.618 104.618 0 0 1-9-1c-.709-.904-1.709-1.237-3-1a15.418 15.418 0 0 1 1-7c2.544-.449 5.21-.449 8 0z"/><path style="opacity:1" fill="#c6c8cb" d="M259.5 295.5h1c4.751 1.641 9.751 2.641 15 3-5.195-.321-10.195.013-15 1-1.426 2.799-1.092 5.466 1 8-1.478.262-2.811-.071-4-1 .668-3.697 1.335-7.363 2-11z"/><path style="opacity:1" fill="#afadab" d="M327.5 299.5c.283.716.616 1.549 1 2.5-1.594 3.455-4.094 4.288-7.5 2.5a11.333 11.333 0 0 1-3.5 1.5c3.382.176 6.715.676 10 1.5.67 2.363 1.337 4.696 2 7-1.426-1.302-2.759-2.802-4-4.5-2.599-.769-5.099-.602-7.5.5-1.049-1.607-2.549-2.273-4.5-2v-2c3.547-2.308 7.547-3.475 12-3.5a20.2 20.2 0 0 1-6-1.5 6.802 6.802 0 0 1 3-1.5l-2-1a11.596 11.596 0 0 1 7 .5z"/><path style="opacity:1" fill="#656568" d="M259.5 295.5c-.665 3.637-1.332 7.303-2 11 1.189.929 2.522 1.262 4 1a607.473 607.473 0 0 0 40 4c3.476 1.143 7.142 1.31 11 .5-.916-.278-1.582-.778-2-1.5 1.679.215 2.679-.452 3-2 1.951-.273 3.451.393 4.5 2 2.401-1.102 4.901-1.269 7.5-.5 1.241 1.698 2.574 3.198 4 4.5h5c.482 3.331-.518 5.997-3 8-3.871-.315-7.538.018-11 1-.789-.283-1.456-.783-2-1.5 7.282-2.048 7.615-4.215 1-6.5-1.299.59-2.132 1.59-2.5 3-.098-2.119-.931-3.786-2.5-5-3 1.333-6 1.333-9 0-2.111 2.544-4.278 2.544-6.5 0-1.667 1-3 2.333-4 4 .685-3.811-.482-4.478-3.5-2 1.355 1.175 1.188 2.175-.5 3a14.587 14.587 0 0 0-4-6l-1 1c-2.418-2.18-5.084-2.513-8-1a9.201 9.201 0 0 0-4.5-2c-2.56 1.156-5.06 1.156-7.5 0-1.267 1.41-1.267 3.076 0 5 .654-1.196 1.154-1.196 1.5 0-.825.886-1.825 1.219-3 1-9.829-.269-10.163.564-1 2.5 1.442.377 2.442 1.21 3 2.5a176.565 176.565 0 0 1-20-7 8.43 8.43 0 0 0 4-.5c3.732-4.071 5.732-8.904 6-14.5a58.42 58.42 0 0 0-7-3 25.879 25.879 0 0 1 10-1z"/><path style="opacity:1" fill="#b2b2b8" d="M310.5 310.5c.418.722 1.084 1.222 2 1.5-3.858.81-7.524.643-11-.5 3.109.236 6.109-.097 9-1z"/><path style="opacity:1" fill="#f7f7f7" d="M246.5 314.5a176.565 176.565 0 0 0 20 7 284.542 284.542 0 0 0 18 6c-3.798.983-7.798 1.317-12 1a335.651 335.651 0 0 0-36-4.5 3.647 3.647 0 0 1-1-1.5 54.86 54.86 0 0 0 2-7c2.787-.977 5.787-1.31 9-1z"/><path style="opacity:1" fill="#e7e6e6" d="M207.5 312.5v4c-1.184 1.188-1.184 2.355 0 3.5-2.079.808-4.079.641-6-.5 2.696-1.864 4.696-4.197 6-7z"/><path style="opacity:1" fill="#5a5b5e" d="M320.5 323.5c1.915-.284 3.581.049 5 1-1.178 1.499-2.845 2.499-5 3 1.044 1.123 1.71 2.456 2 4-1.519 3.101-2.185 6.434-2 10a11.105 11.105 0 0 1-4.5-3c-1.84 1.333-2.34 1.166-1.5-.5-2.254-1.651-4.588-1.818-7-.5a10.776 10.776 0 0 1-2-6h5c8.77 1.237 9.77-.43 3-5 4.136-3.92 3.136-5.587-3-5-.019 4.341-2.019 5.675-6 4-.886-.825-1.219-1.825-1-3-6.558.663-12.891-.504-19-3.5a551.097 551.097 0 0 1-20-2.5c1.175.219 2.175-.114 3-1-.346-1.196-.846-1.196-1.5 0-1.267-1.924-1.267-3.59 0-5 2.44 1.156 4.94 1.156 7.5 0a9.201 9.201 0 0 1 4.5 2c2.916-1.513 5.582-1.18 8 1l1-1a14.587 14.587 0 0 1 4 6c1.688-.825 1.855-1.825.5-3 3.018-2.478 4.185-1.811 3.5 2 1-1.667 2.333-3 4-4 2.222 2.544 4.389 2.544 6.5 0 3 1.333 6 1.333 9 0 1.569 1.214 2.402 2.881 2.5 5 .368-1.41 1.201-2.41 2.5-3 6.615 2.285 6.282 4.452-1 6.5.544.717 1.211 1.217 2 1.5z"/><path style="opacity:1" fill="#999898" d="M334.5 314.5c1.225.652 1.892 1.819 2 3.5.407 3.759-1.26 5.259-5 4.5 2.482-2.003 3.482-4.669 3-8z"/><path style="opacity:1" fill="#37383b" d="M207.5 312.5c3.912.501 7.912.501 12 0 .122 4.338.455 4.672 1 1 6.123-.864 10.79 1.136 14 6v3h-4a89.977 89.977 0 0 1-23-6v-4z"/><path style="opacity:1" fill="#404043" d="M264.5 316.5c6.504.937 13.171 1.77 20 2.5 6.109 2.996 12.442 4.163 19 3.5-.219 1.175.114 2.175 1 3 3.981 1.675 5.981.341 6-4 6.136-.587 7.136 1.08 3 5 6.77 4.57 5.77 6.237-3 5-7.167-1.588-14.5-2.255-22-2l-4-2a284.542 284.542 0 0 1-18-6c-.558-1.29-1.558-2.123-3-2.5-9.163-1.936-8.829-2.769 1-2.5z"/><path style="opacity:1" fill="#77757d" d="M237.5 315.5a54.86 54.86 0 0 1-2 7 3.647 3.647 0 0 0 1 1.5 335.651 335.651 0 0 1 36 4.5 213.856 213.856 0 0 1-31-2.5l-6-1c-.752-.671-1.086-1.504-1-2.5v-3a9.82 9.82 0 0 1 3-4z"/><path style="opacity:1" fill="#a1a09c" d="M186.5 315.5a75.818 75.818 0 0 1-1 15h3c.027 1.699.694 3.033 2 4a59.205 59.205 0 0 1-9-5 10.756 10.756 0 0 1 2.5-3 90.298 90.298 0 0 1 2.5-11z"/><path style="opacity:1" fill="#606064" d="M230.5 322.5h4c-.086.996.248 1.829 1 2.5l6 1a213.856 213.856 0 0 0 31 2.5c4.202.317 8.202-.017 12-1l4 2c-.553 2.439-.553 4.773 0 7-.791 2.461-2.458 3.794-5 4 .453-.958 1.119-1.792 2-2.5a4.934 4.934 0 0 0-3-.5c-2.377-1.387-5.043-2.221-8-2.5a425.124 425.124 0 0 1-36-3.5c-3.37-.126-6.537.54-9.5 2-1.756-1.485-2.923-1.152-3.5 1a12.93 12.93 0 0 1-5-.5c-.752-.671-1.086-1.504-1-2.5 3.98.954 7.48-.046 10.5-3 .718.951 1.551 1.117 2.5.5-.698-.971-.698-2.137 0-3.5-.442-1.239-1.109-2.239-2-3z"/><path style="opacity:1" fill="#f0f0f0" d="M208.5 330.5h1c-.989 4.96-1.822 9.96-2.5 15-2.501 1.556-4.001.889-4.5-2 .409-4.376 1.075-8.71 2-13h4z"/><path style="opacity:1" fill="#b4b8b6" d="M325.5 329.5c.38 2.198-.287 3.865-2 5-.38-2.198.287-3.865 2-5z"/><path style="opacity:1" fill="#fdfdfc" d="m282.5 337.5-6 2c-1.713 1.135-2.38 2.802-2 5-.904.709-1.237 1.709-1 3a1141.216 1141.216 0 0 1-40-4.5c-1.256-.417-1.923-1.25-2-2.5a51.569 51.569 0 0 1 1-7 888.16 888.16 0 0 1 50 4z"/><path style="opacity:1" fill="#6c6d6d" d="M186.5 311.5c4.004.169 7.004 2.002 9 5.5l-4 2c1.383 2.694 1.883 5.527 1.5 8.5a26.67 26.67 0 0 1-6.5 1.5 8.43 8.43 0 0 0 4 .5v3c2.693.072 5.36.405 8 1 3.443-.221 3.776-1.221 1-3 3.145-1.303 6.145-1.303 9 0h-4a110.343 110.343 0 0 0-2 13c-.65.304-1.317.637-2 1a9.86 9.86 0 0 1-1-6c.734-1.208 1.067-2.541 1-4-2.582-.475-4.582.192-6 2h-3c.172-.992-.162-1.658-1-2-1.306-.967-1.973-2.301-2-4h-3a75.818 75.818 0 0 0 1-15v-4z"/><path style="opacity:1" fill="#82807f" d="M282.5 337.5a888.16 888.16 0 0 0-50-4 51.569 51.569 0 0 0-1 7 76.94 76.94 0 0 0-2 8.5c-.336 1.03-1.003 1.53-2 1.5-.034-5.397.633-10.397 2-15-1.189-.929-2.522-1.262-4-1 .577-2.152 1.744-2.485 3.5-1 2.963-1.46 6.13-2.126 9.5-2a425.124 425.124 0 0 0 36 3.5c2.957.279 5.623 1.113 8 2.5z"/><path style="opacity:1" fill="#787a7a" d="M325.5 324.5c2.351 1.416 2.351 3.083 0 5-1.713 1.135-2.38 2.802-2 5-1.064 3.941-1.064 7.941 0 12l-2 6c.315-3.871-.018-7.538-1-11-.185-3.566.481-6.899 2-10-.29-1.544-.956-2.877-2-4 2.155-.501 3.822-1.501 5-3z"/><path style="opacity:1" fill="#e0e1e2" d="M225.5 334.5c1.478-.262 2.811.071 4 1-1.367 4.603-2.034 9.603-2 15h-3c1.568-2.344 1.235-4.344-1-6a18.08 18.08 0 0 1 2-3.5c-1.244-.456-2.077.044-2.5 1.5-1.009-1.525-1.509-3.192-1.5-5 1.709-.108 3.709-.275 6-.5-1.256-.417-1.923-1.25-2-2.5z"/><path style="opacity:1" fill="#4e4f53" d="M288.5 329.5c7.5-.255 14.833.412 22 2h-5a10.776 10.776 0 0 0 2 6c2.412-1.318 4.746-1.151 7 .5-.84 1.666-.34 1.833 1.5.5a11.105 11.105 0 0 0 4.5 3v9h-3a41.541 41.541 0 0 1 1-8h-3c.188 1.603-.312 2.937-1.5 4-1.444-1.655-3.278-2.322-5.5-2v3c-1.644.214-3.144-.12-4.5-1v-6c-1.356.88-2.856 1.214-4.5 1a116.753 116.753 0 0 0-3 15c-2.327.253-4.327-.414-6-2-1.725 1.592-2.725 1.258-3-1a12.992 12.992 0 0 1 1-5.5l-1-1.5-2 5c-1.247-1.506-1.247-3.006 0-4.5a2.428 2.428 0 0 0-2-.5c1.333-2 1.333-4 0-6 2.542-.206 4.209-1.539 5-4-.553-2.227-.553-4.561 0-7z"/><path style="opacity:1" fill="#dddede" d="M158.5 344.5a93.307 93.307 0 0 0-18-1v-4a873.994 873.994 0 0 0 45-3c.034 2.699-.633 5.199-2 7.5a250.356 250.356 0 0 0-25 .5z"/><path style="opacity:1" fill="#b5bac6" d="M215.5 331.5h3c.183 2.436-.484 4.603-2 6.5l1 1c-1.237.232-2.237.732-3 1.5-.16 1.653-.826 2.986-2 4a47.15 47.15 0 0 1 3-13z"/><path style="opacity:1" fill="#8d8e94" d="M218.5 331.5h1c-.086.996.248 1.829 1 2.5a12.93 12.93 0 0 0 5 .5c.077 1.25.744 2.083 2 2.5-2.291.225-4.291.392-6 .5-1.086.12-1.753.787-2 2-.49 2.49-.49 4.49 0 6 .904.709 1.237 1.709 1 3l-6 1c.406-3.219.406-6.219 0-9 .763-.768 1.763-1.268 3-1.5l-1-1c1.516-1.897 2.183-4.064 2-6.5z"/><path style="opacity:1" fill="#a2a2a6" d="M282.5 337.5a4.934 4.934 0 0 1 3 .5c-.881.708-1.547 1.542-2 2.5-2.049.206-2.383 1.039-1 2.5a2.428 2.428 0 0 1-2 .5c-1-1.667-2.333-3-4-4l6-2z"/><path style="opacity:1" fill="#d2cccb" d="M135.5 338.5c-.273 1.951.393 3.451 2 4.5-.916.278-1.582.778-2 1.5h-1a4.934 4.934 0 0 0-.5-3c-.718.951-1.551 1.117-2.5.5.837-1.011 1.17-2.178 1-3.5h3z"/><path style="opacity:1" fill="#767579" d="M276.5 339.5c1.667 1 3 2.333 4 4a6.846 6.846 0 0 1-4-1 9.86 9.86 0 0 0-1 6c-.934-1.068-1.268-2.401-1-4-.38-2.198.287-3.865 2-5z"/><path style="opacity:1" fill="#acabb0" d="M221.5 337.5c-.009 1.808.491 3.475 1.5 5 .423-1.456 1.256-1.956 2.5-1.5a18.08 18.08 0 0 0-2 3.5c2.235 1.656 2.568 3.656 1 6h-3a51.569 51.569 0 0 0 1-7c-1.679-.215-2.679.452-3 2-.49-1.51-.49-3.51 0-6 .247-1.213.914-1.88 2-2z"/><path style="opacity:1" fill="#c4c4c3" d="M134.5 344.5c.252 2.82-.248 5.486-1.5 8a198.398 198.398 0 0 1-18.5-6 4.933 4.933 0 0 0-2.5 1 24.935 24.935 0 0 0-.5 7c-1.632-.325-2.632-1.325-3-3a51.574 51.574 0 0 1 2-8c8.37-4.074 16.37-3.74 24 1z"/><path style="opacity:1" fill="#cfcfd1" d="M140.5 343.5a93.307 93.307 0 0 1 18 1c4.198 2.554 8.864 4.054 14 4.5-2.702.607-5.368.44-8-.5-2.221-.061-2.554.605-1 2-2.798-.6-5.465-1.6-8-3-.798.457-1.131 1.124-1 2-4.498.875-9.165.875-14 0v-6z"/><path style="opacity:1" fill="#7c7d7e" d="M209.5 330.5c1.545.73 2.378 2.063 2.5 4l1-3c.77 1.098 1.603 1.098 2.5 0a47.15 47.15 0 0 0-3 13v4c-3.736.16-3.736.993 0 2.5 3.031.495 6.031.329 9-.5h6c-.79.901-1.79 1.568-3 2h-6c.415 2.448-.585 3.781-3 4a31.684 31.684 0 0 1-6-2 54.283 54.283 0 0 0-7-2c-.333-1-1-1.667-2-2l-2-1c-.865-3.8-.532-7.467 1-11a9.86 9.86 0 0 0 1 6c.683-.363 1.35-.696 2-1 .499 2.889 1.999 3.556 4.5 2 .678-5.04 1.511-10.04 2.5-15z"/><path style="opacity:1" fill="#6f6f6f" d="M134.5 344.5h5a185.422 185.422 0 0 0-1 11c-2.207-1.239-4.541-1.739-7-1.5a7.248 7.248 0 0 1 2 2.5c-1.311.758-1.811 1.758-1.5 3 5.807 2.101 10.974 5.101 15.5 9a82.727 82.727 0 0 0-17-5c-2.285-1.959-4.951-3.292-8-4a83.009 83.009 0 0 0-11-5c-.163-2.357.003-4.69.5-7a4.933 4.933 0 0 1 2.5-1 198.398 198.398 0 0 0 18.5 6c1.252-2.514 1.752-5.18 1.5-8z"/><path style="opacity:1" fill="#c7c7c7" d="M181.5 354.5c-.886-1.276-1.886-1.276-3 0l2 3c-2.354 1.746-3.354 4.079-3 7v2c-.768.763-1.268 1.763-1.5 3-.804-3.704-.304-7.204 1.5-10.5-.544-.717-1.211-1.217-2-1.5a5.727 5.727 0 0 0-3-1 10.165 10.165 0 0 1-3-3c.904-.709 1.237-1.709 1-3 4-1.333 8-1.333 12 0 .268 1.599-.066 2.932-1 4z"/><path style="opacity:1" fill="#fdfdfd" d="m198.5 349.5 2 1c-2.524 1.3-5.191 1.3-8 0a9.86 9.86 0 0 1 6-1z"/><path style="opacity:1" fill="#dcd8db" d="M214.5 340.5c.406 2.781.406 5.781 0 9l6-1c.237-1.291-.096-2.291-1-3 .321-1.548 1.321-2.215 3-2a51.569 51.569 0 0 1-1 7 20.683 20.683 0 0 1-9 .5c-3.736-1.507-3.736-2.34 0-2.5v-4c1.174-1.014 1.84-2.347 2-4z"/><path style="opacity:1" fill="#cdcdcf" d="M231.5 340.5c.077 1.25.744 2.083 2 2.5a1141.216 1141.216 0 0 0 40 4.5c-.237-1.291.096-2.291 1-3-.268 1.599.066 2.932 1 4 1.242 1.889 1.242 3.889 0 6-3.494 2.406-7.16 3.073-11 2-.261-3.133-1.928-4.3-5-3.5a7.293 7.293 0 0 0 3 2l-2 .5c-2.748-1.791-5.748-2.291-9-1.5.837 1.011 1.17 2.178 1 3.5 2.307.486 4.473.486 6.5 0a26.585 26.585 0 0 1 3.5 2 3.647 3.647 0 0 1-1 1.5 69.597 69.597 0 0 1-21 1c-2.837-1.902-6.004-2.735-9.5-2.5-2.033.006-3.866.339-5.5 1-1.903-.296-3.57-.963-5-2 2.258-.275 2.592-1.275 1-3 1.493-.641 2.493-1.641 3-3 1.21-.432 2.21-1.099 3-2 .997.03 1.664-.47 2-1.5a76.94 76.94 0 0 1 2-8.5z"/><path style="opacity:1" fill="#5d5e61" d="M320.5 341.5c.982 3.462 1.315 7.129 1 11v3c-.121 2.605-1.121 4.605-3 6-.838.342-1.172 1.008-1 2a5.576 5.576 0 0 1-3-1c-.886.825-1.219 1.825-1 3h-4c.285-1.788-.048-3.455-1-5-.683.363-1.35.696-2 1 1.387-2.284 2.387-4.784 3-7.5-.598-1.301-1.598-2.135-3-2.5-1.083 2.638-2.416 4.971-4 7a43.824 43.824 0 0 1-6-2 116.753 116.753 0 0 1 3-15c1.644.214 3.144-.12 4.5-1v6c1.356.88 2.856 1.214 4.5 1v-3c2.222-.322 4.056.345 5.5 2 1.188-1.063 1.688-2.397 1.5-4h3a41.541 41.541 0 0 0-1 8h3v-9z"/><path style="opacity:1" fill="#e6e7e9" d="M323.5 346.5c6.452.682 12.119 3.016 17 7-1.691 1.512-3.691 2.512-6 3-1-1.333-2-1.333-3 0h-5c-1.419-.951-3.085-1.284-5-1v-3l2-6z"/><path style="opacity:1" fill="#8d8f8f" d="M191.5 336.5h3a136.926 136.926 0 0 1-3 16h7c.418.722 1.084 1.222 2 1.5l-1.5.5c-2.453-.993-4.953-1.16-7.5-.5-.88 1.356-1.214 2.856-1 4.5-1.598-.11-3.265-.443-5-1 .709-.904 1.709-1.237 3-1a158.447 158.447 0 0 0 3-20z"/><path style="opacity:1" fill="#a4a4a7" d="M140.5 339.5v10c4.835.875 9.502.875 14 0 7.183 1.11 7.516 2.776 1 5-2.118-1.446-4.451-2.113-7-2-1.034 1.187-2.367 2.02-4 2.5 1.859.601 2.192 1.434 1 2.5a29.417 29.417 0 0 1-7-2c.224-3.679.558-7.346 1-11h-4c.418-.722 1.084-1.222 2-1.5-1.607-1.049-2.273-2.549-2-4.5 1.585-.974 2.585-2.474 3-4.5a4.457 4.457 0 0 1-2-1.5 10.776 10.776 0 0 1 6-2c-.071 2.639-1.071 4.806-3 6.5.243.902.577 1.735 1 2.5z"/><path style="opacity:1" fill="#cfcece" d="M199.5 338.5c-1.532 3.533-1.865 7.2-1 11a9.86 9.86 0 0 0-6 1c2.809 1.3 5.476 1.3 8 0 1 .333 1.667 1 2 2h-11a136.926 136.926 0 0 0 3-16c1.418-1.808 3.418-2.475 6-2 .067 1.459-.266 2.792-1 4z"/><path style="opacity:1" fill="#babebc" d="M190.5 334.5c.838.342 1.172 1.008 1 2a158.447 158.447 0 0 1-3 20c-1.291-.237-2.291.096-3 1-1.291.237-2.291-.096-3-1 1.068-.934 2.401-1.268 4-1a469.029 469.029 0 0 1 4-21z"/><path style="opacity:1" fill="#f7f6f7" d="M198.5 352.5h4a54.283 54.283 0 0 1 7 2 44.866 44.866 0 0 0-1 10h-7a5.727 5.727 0 0 0-1-3c-2.751-2.475-6.084-3.475-10-3-.214-1.644.12-3.144 1-4.5 2.547-.66 5.047-.493 7.5.5l1.5-.5c-.916-.278-1.582-.778-2-1.5z"/><path style="opacity:1" fill="#404043" d="M283.5 346.5a2.428 2.428 0 0 1 2 .5c-1.247 1.494-1.247 2.994 0 4.5l2-5 1 1.5a12.992 12.992 0 0 0-1 5.5c-.617-.111-1.117-.444-1.5-1-.198 1.882-.698 3.548-1.5 5-.182-5.294-.682-5.294-1.5 0-.78 1.887-.613 3.554.5 5-.801 1.542-1.134 3.208-1 5 2.252.833 4.419.833 6.5 0 .507 1.496.007 2.663-1.5 3.5 1.637 1.951 3.137 1.784 4.5-.5l1-6c1-1.333 2-1.333 3 0a4.457 4.457 0 0 1 1.5-2c.236.747.57 1.58 1 2.5 1.558.21 2.891.71 4 1.5h-3a70.523 70.523 0 0 1-1.5 9 3.647 3.647 0 0 1-1.5 1c-2.567-.739-4.9-.739-7 0-2.932-2.234-6.265-3.234-10-3 .498-3.493.498-6.826 0-10a32.384 32.384 0 0 0-3-6.5 150.709 150.709 0 0 0 1.5-10.5c.71-1.473 1.876-2.14 3.5-2-.269 1.929.231 3.595 1.5 5a4.934 4.934 0 0 0 .5-3z"/><path style="opacity:1" fill="#b3b1ae" d="M224.5 352.5c-.507 1.359-1.507 2.359-3 3 1.592 1.725 1.258 2.725-1 3-1.322.17-2.489-.163-3.5-1-.21 1.558-.71 2.891-1.5 4v-4c-1.175-.219-2.175.114-3 1l-2 6c-1.799 1.288-3.465 1.288-5 0h3a44.866 44.866 0 0 1 1-10 31.684 31.684 0 0 0 6 2c2.415-.219 3.415-1.552 3-4h6z"/><path style="opacity:1" fill="#969798" d="M148.5 352.5c1.16.765 2.16 1.765 3 3a57.15 57.15 0 0 0 15 1v3a12.805 12.805 0 0 1-3 6c-6.09-2.717-12.09-5.384-18-8 1.192-1.066.859-1.899-1-2.5 1.633-.48 2.966-1.313 4-2.5z"/><path style="opacity:1" fill="#868686" d="M181.5 354.5c-.172.992.162 1.658 1 2 .709.904 1.709 1.237 3 1-1.49 1.78-3.49 2.446-6 2 .38 2.198-.287 3.865-2 5-.354-2.921.646-5.254 3-7l-2-3c1.114-1.276 2.114-1.276 3 0z"/><path style="opacity:1" fill="#a4a4a9" d="M190.5 358.5c3.916-.475 7.249.525 10 3-3.795-.19-7.128-1.19-10-3z"/><path style="opacity:1" fill="#989a98" d="M340.5 353.5c1.216 2.347 1.216 4.847 0 7.5-1.119 1.876-2.786 2.709-5 2.5-.381-2.442.286-3.109 2-2a15.69 15.69 0 0 0 2-4 17.903 17.903 0 0 1-5-1c2.309-.488 4.309-1.488 6-3z"/><path style="opacity:1" fill="#78797b" d="M163.5 350.5c1.716 1.471 3.716 2.471 6 3a10.165 10.165 0 0 0 3 3c-2.152.577-2.485 1.744-1 3.5-2.35 7.469-4.017 7.302-5-.5v-3a57.15 57.15 0 0 1-15-1c-.84-1.235-1.84-2.235-3-3 2.549-.113 4.882.554 7 2 6.516-2.224 6.183-3.89-1-5-.131-.876.202-1.543 1-2 2.535 1.4 5.202 2.4 8 3z"/><path style="opacity:1" fill="#343539" d="M287.5 353.5c.275 2.258 1.275 2.592 3 1 1.673 1.586 3.673 2.253 6 2a43.824 43.824 0 0 0 6 2c.709.904 1.709 1.237 3 1 .334 2.991-.666 5.324-3 7-1.109-.79-2.442-1.29-4-1.5a20.79 20.79 0 0 1-1-2.5 4.457 4.457 0 0 0-1.5 2c-1-1.333-2-1.333-3 0l-1 6c-1.363 2.284-2.863 2.451-4.5.5 1.507-.837 2.007-2.004 1.5-3.5-2.081.833-4.248.833-6.5 0-.134-1.792.199-3.458 1-5-.134-1.792.199-3.458 1-5 .802-1.452 1.302-3.118 1.5-5 .383.556.883.889 1.5 1z"/><path style="opacity:1" fill="#88898b" d="M284.5 357.5c-.801 1.542-1.134 3.208-1 5-1.113-1.446-1.28-3.113-.5-5 .818-5.294 1.318-5.294 1.5 0z"/><path style="opacity:1" fill="#999c96" d="M309.5 365.5c-.689 1.274-1.523 1.274-2.5 0a8.43 8.43 0 0 1-.5-4c.65-.304 1.317-.637 2-1 .952 1.545 1.285 3.212 1 5z"/><path style="opacity:1" fill="#787777" d="M321.5 355.5c1.915-.284 3.581.049 5 1h2a20.69 20.69 0 0 0-1 5h3a20.69 20.69 0 0 1 1-5c1-1.333 2-1.333 3 0 1.619.572 3.285.905 5 1a15.69 15.69 0 0 1-2 4c-1.714-1.109-2.381-.442-2 2-5.917.284-11.584-.383-17-2 1.879-1.395 2.879-3.395 3-6z"/><path style="opacity:1" fill="#4e4f53" d="M328.5 356.5h3a20.69 20.69 0 0 0-1 5h-3a20.69 20.69 0 0 1 1-5z"/><path style="opacity:1" fill="#48484b" d="M326.5 356.5c.313 3.519-1.02 4.853-4 4a6.846 6.846 0 0 0 1-4h3z"/><path style="opacity:1" fill="#3f3f42" d="M201.5 364.5a56.846 56.846 0 0 1 9 4.5c-3.822.585-7.489.085-11-1.5v3c-1.956 1.648-4.289 2.315-7 2a23.91 23.91 0 0 1 2.5-9c2.139.043 4.306.377 6.5 1z"/><path style="opacity:1" fill="#b0b0b1" d="m275.5 354.5-1 6c-1.599-.268-2.932.066-4 1a41.541 41.541 0 0 0-8 1c-.109 4.266-2.109 6.933-6 8v1c-1.699.027-3.033.694-4 2v-1c-4.447-2.901-9.281-5.234-14.5-7a10.016 10.016 0 0 0-4.5 2.5c-7.295.763-7.629.096-1-2-3.51-.119-6.51-1.286-9-3.5a6.802 6.802 0 0 1 3-1.5c-.228-.399-.562-.565-1-.5 1.634-.661 3.467-.994 5.5-1 3.496-.235 6.663.598 9.5 2.5 7.048.73 14.048.397 21-1a3.647 3.647 0 0 0 1-1.5 26.585 26.585 0 0 0-3.5-2c-2.027.486-4.193.486-6.5 0 .17-1.322-.163-2.489-1-3.5 3.252-.791 6.252-.291 9 1.5l2-.5a7.293 7.293 0 0 1-3-2c3.072-.8 4.739.367 5 3.5 3.84 1.073 7.506.406 11-2z"/><path style="opacity:1" fill="#f7f6f6" d="M220.5 358.5c1.43 1.037 3.097 1.704 5 2 .438-.065.772.101 1 .5a6.802 6.802 0 0 0-3 1.5c2.49 2.214 5.49 3.381 9 3.5-6.629 2.096-6.295 2.763 1 2a10.016 10.016 0 0 1 4.5-2.5c5.219 1.766 10.053 4.099 14.5 7a29746.61 29746.61 0 0 1-10 4 40.943 40.943 0 0 1-9.5-3c-.383.556-.883.889-1.5 1a2.428 2.428 0 0 0-.5-2c-2.711 1.426-5.211 1.092-7.5-1a3.647 3.647 0 0 1 1-1.5l-6-1.5c-1.811-.072-3.144-.905-4-2.5.648-1.44.981-2.94 1-4.5.79-1.109 1.29-2.442 1.5-4 1.011.837 2.178 1.17 3.5 1z"/><path style="opacity:1" fill="#4d4e50" d="M306.5 361.5a8.43 8.43 0 0 0 .5 4c.977 1.274 1.811 1.274 2.5 0h4c-.219-1.175.114-2.175 1-3a5.576 5.576 0 0 0 3 1c.17 1.322-.163 2.489-1 3.5 1.973.495 3.973.662 6 .5.268 1.599-.066 2.932-1 4a104.618 104.618 0 0 1-9-1 81.802 81.802 0 0 0-2 10 31.284 31.284 0 0 1-10-1.5c.752-.671 1.086-1.504 1-2.5.12-2.98.787-5.813 2-8.5-.949-.617-1.782-.451-2.5.5a70.523 70.523 0 0 0-1.5 9c-.734 1.208-1.067 2.541-1 4-5.553.921-11.386.921-17.5 0-4.383-2.748-4.217-4.082.5-4v-3h-3c-.315-3.871.018-7.538 1-11 .498 3.174.498 6.507 0 10 3.735-.234 7.068.766 10 3 2.1-.739 4.433-.739 7 0a3.647 3.647 0 0 0 1.5-1 70.523 70.523 0 0 0 1.5-9h3c2.334-1.676 3.334-4.009 3-7-1.291.237-2.291-.096-3-1 1.584-2.029 2.917-4.362 4-7 1.402.365 2.402 1.199 3 2.5-.613 2.716-1.613 5.216-3 7.5z"/><path style="opacity:1" fill="#666667" d="M138.5 355.5a29.417 29.417 0 0 0 7 2c5.91 2.616 11.91 5.283 18 8a12.805 12.805 0 0 0 3-6c.983 7.802 2.65 7.969 5 .5-1.485-1.756-1.152-2.923 1-3.5a5.727 5.727 0 0 1 3 1c-.68 3.619-1.18 7.286-1.5 11-1.333 1.333-2.667 1.333-4 0-1.269 1.405-1.769 3.071-1.5 5-5.748-.042-11.082-1.542-16-4.5a12.93 12.93 0 0 0-5-.5c-4.526-3.899-9.693-6.899-15.5-9-.311-1.242.189-2.242 1.5-3a7.248 7.248 0 0 0-2-2.5c2.459-.239 4.793.261 7 1.5z"/><path style="opacity:1" fill="#787775" d="M175.5 357.5c.789.283 1.456.783 2 1.5-1.804 3.296-2.304 6.796-1.5 10.5.232-1.237.732-2.237 1.5-3v4c-6.239.585-7.572 3.585-4 9-1.22 1.55-1.22 3.216 0 5-1.784-1.074-2.951-2.74-3.5-5-.671.752-1.504 1.086-2.5 1 .453-.958 1.119-1.792 2-2.5a776.16 776.16 0 0 1-22-9.5 12.93 12.93 0 0 1 5 .5c4.918 2.958 10.252 4.458 16 4.5-.269-1.929.231-3.595 1.5-5 1.333 1.333 2.667 1.333 4 0 .32-3.714.82-7.381 1.5-11z"/><path style="opacity:1" fill="#efeff0" d="M256.5 371.5c1.602 1.574 3.602 2.241 6 2 .73 1.212 1.73 2.212 3 3-1.575.946-3.242.946-5 0a79.662 79.662 0 0 1-11 2 2.428 2.428 0 0 1-2-.5 31.447 31.447 0 0 1 5-4.5c.967-1.306 2.301-1.973 4-2z"/><path style="opacity:1" fill="#6f7071" d="M256.5 370.5c3.815-.582 7.149.252 10 2.5a8.43 8.43 0 0 1-4 .5c-2.398.241-4.398-.426-6-2v-1z"/><path style="opacity:1" fill="#d2cfce" d="m218.5 368.5 6 1.5a3.647 3.647 0 0 0-1 1.5c2.289 2.092 4.789 2.426 7.5 1 .464.594.631 1.261.5 2 .215 1.679-.452 2.679-2 3v-3h-4v3h3c-.683 1.676-2.017 2.343-4 2v7c-.697-3.965-2.03-7.131-4-9.5 1.863-1.418 2.363-3.251 1.5-5.5-1.518-.663-2.685-1.663-3.5-3z"/><path style="opacity:1" fill="#bbbbbc" d="M242.5 376.5c.221 1.235.888 2.235 2 3-2.979.253-5.979-.413-9-2a37.815 37.815 0 0 1-9 4 112.33 112.33 0 0 1-2 5v-7c1.983.343 3.317-.324 4-2h1c1.548-.321 2.215-1.321 2-3 .617-.111 1.117-.444 1.5-1a40.943 40.943 0 0 0 9.5 3z"/><path style="opacity:1" fill="#9a9a97" d="m301.5 376.5-2 1a70.523 70.523 0 0 1 1.5-9c.718-.951 1.551-1.117 2.5-.5a22.684 22.684 0 0 0-2 8.5z"/><path style="opacity:1" fill="#6b6c6f" d="M317.5 363.5c3.04 1.18 5.706 2.847 8 5a86.524 86.524 0 0 0-5 21c-.876.131-1.543-.202-2-1 1.153-1.187 1.153-2.187 0-3 .984-4.647 1.984-9.314 3-14 .934-1.068 1.268-2.401 1-4a18.453 18.453 0 0 1-6-.5c.837-1.011 1.17-2.178 1-3.5z"/><path style="opacity:1" fill="#bfc2be" d="M122.5 359.5c3.049.708 5.715 2.041 8 4-.167 6.7-1.5 13.033-4 19-1.274 1.279-2.274 3.279-3 6-.381-4.05.619-7.717 3-11-.51-1.588-1.51-2.755-3-3.5a11.333 11.333 0 0 0 3.5-1.5 34.041 34.041 0 0 1 1.5-7.5c-2.725-1.089-4.725-2.922-6-5.5z"/><path style="opacity:1" fill="#716f73" d="M229.5 377.5h-4v-3h4v3z"/><path style="opacity:1" fill="#777677" d="M215.5 361.5a11.187 11.187 0 0 1-1 4.5c.856 1.595 2.189 2.428 4 2.5.815 1.337 1.982 2.337 3.5 3 .863 2.249.363 4.082-1.5 5.5 1.97 2.369 3.303 5.535 4 9.5 0 1.333-.667 2-2 2-7.959-3.162-15.959-6.329-24-9.5l-1-1a24.957 24.957 0 0 0 2-7.5v-3c3.511 1.585 7.178 2.085 11 1.5a56.846 56.846 0 0 0-9-4.5h4c1.535 1.288 3.201 1.288 5 0l2-6c.825-.886 1.825-1.219 3-1v4z"/><path style="opacity:1" fill="#5b5b5e" d="M283.5 340.5c1.333 2 1.333 4 0 6a4.934 4.934 0 0 1-.5 3c-1.269-1.405-1.769-3.071-1.5-5-1.624-.14-2.79.527-3.5 2a150.709 150.709 0 0 1-1.5 10.5 32.384 32.384 0 0 1 3 6.5c-.982 3.462-1.315 7.129-1 11h3v3c-4.717-.082-4.883 1.252-.5 4 6.114.921 11.947.921 17.5 0-.067-1.459.266-2.792 1-4l2-1c.086.996-.248 1.829-1 2.5a31.284 31.284 0 0 0 10 1.5 81.802 81.802 0 0 1 2-10c2.982.463 5.982.796 9 1a2955.832 2955.832 0 0 0-3 14 432.083 432.083 0 0 1-41 7c-2.131-.814-4.464-1.314-7-1.5 1.167-.5 2-1.333 2.5-2.5l1 1a49.944 49.944 0 0 1 0-11c1.438-1.4 2.271-3.067 2.5-5-1.478.262-2.811-.071-4-1a34.367 34.367 0 0 0 3-7.5c-.139-1.301-.805-2.134-2-2.5a5.727 5.727 0 0 0-3-1c1.068-.934 2.401-1.268 4-1l1-6c1.242-2.111 1.242-4.111 0-6a9.86 9.86 0 0 1 1-6 6.846 6.846 0 0 0 4 1 2.428 2.428 0 0 0 2-.5c-1.383-1.461-1.049-2.294 1-2.5z"/><path style="opacity:1" fill="#9a9c9c" d="M325.5 368.5c1.113 1.446 1.28 3.113.5 5a105.736 105.736 0 0 0-3.5 14c-.247 1.213-.914 1.88-2 2a86.524 86.524 0 0 1 5-21z"/><path style="opacity:1" fill="#909192" d="M270.5 361.5a5.727 5.727 0 0 1 3 1c-.244 2.763-1.577 4.929-4 6.5 2.832 1.908 2.499 2.741-1 2.5-.509 6.851-1.676 12.851-3.5 18-6.176-1.318-11.676-1.318-16.5 0-.847 1.466-2.18 2.3-4 2.5a9.454 9.454 0 0 1 1.5 2.5 285.14 285.14 0 0 1 9.5 2 60.646 60.646 0 0 1-18-2l-1 6c-.722.418-1.222 1.084-1.5 2-.225-7.322 2.609-13.322 8.5-18 1.412-1.306 3.079-2.14 5-2.5 4.675-.797 9.341-1.63 14-2.5a151.45 151.45 0 0 0-13-1 79.662 79.662 0 0 0 11-2c1.758.946 3.425.946 5 0-1.27-.788-2.27-1.788-3-3a8.43 8.43 0 0 0 4-.5c-2.851-2.248-6.185-3.082-10-2.5 3.891-1.067 5.891-3.734 6-8a41.541 41.541 0 0 1 8-1z"/><path style="opacity:1" fill="#5a5b5d" d="M185.5 357.5c1.735.557 3.402.89 5 1 2.872 1.81 6.205 2.81 10 3 .61.891.943 1.891 1 3-2.194-.623-4.361-.957-6.5-1a23.91 23.91 0 0 0-2.5 9c2.711.315 5.044-.352 7-2a24.957 24.957 0 0 1-2 7.5l1 1c8.041 3.171 16.041 6.338 24 9.5 3.813 1.287 7.813 2.287 12 3a116.21 116.21 0 0 1-2 12 386.486 386.486 0 0 0-25-9.5 74.398 74.398 0 0 1 13.5 15.5c1.686-3.948 3.186-3.948 4.5 0a371.38 371.38 0 0 1-6 33.5c1.076 1.726 1.243 3.559.5 5.5a20.702 20.702 0 0 1-1.5-7 781.069 781.069 0 0 0 4.5-33 190.433 190.433 0 0 0-5.5 33h-3a29.23 29.23 0 0 1 1-9v-3c2.11-4.848 3.443-10.015 4-15.5-.35-1.257-1.017-1.591-2-1 .054 1.351-.446 2.518-1.5 3.5l-4-4c-2.03-.454-3.863-1.12-5.5-2 3.527-.923 7.027-.59 10.5 1 1.28-.113 2.113-.78 2.5-2-2.092-3.261-4.926-5.595-8.5-7-1.767.84-3.101 2.173-4 4-.87-.608-1.37-1.441-1.5-2.5.939-1.944 2.273-3.611 4-5-1.924-3.472-4.59-4.305-8-2.5 1.1-1.058 2.434-1.892 4-2.5 1.196-.654 1.196-1.154 0-1.5-8.862 3.865-15.862 9.865-21 18l-2 1c-1.419-.951-3.085-1.284-5-1a22.394 22.394 0 0 1 2.5-8 49.84 49.84 0 0 0 1-13c-2.553-2.229-5.386-2.562-8.5-1-.723 4.199-2.389 7.865-5 11a38.457 38.457 0 0 0 2-13h14c-.51 5.709-1.01 11.375-1.5 17 4.85-5.497 10.35-10.164 16.5-14a406.93 406.93 0 0 1-25-10c-3.572-5.415-2.239-8.415 4-9v-6c1.713-1.135 2.38-2.802 2-5 2.51.446 4.51-.22 6-2z"/><path style="opacity:1" fill="#f3f4f4" d="M173.5 379.5a406.93 406.93 0 0 0 25 10c-6.15 3.836-11.65 8.503-16.5 14 .49-5.625.99-11.291 1.5-17h-7c-.79-.901-1.79-1.568-3-2-1.22-1.784-1.22-3.45 0-5z"/><path style="opacity:1" fill="#6c6d6e" d="M252.5 372.5v1a31.447 31.447 0 0 0-5 4.5 2.428 2.428 0 0 0 2 .5c4.186.134 8.519.468 13 1-4.659.87-9.325 1.703-14 2.5-1.921.36-3.588 1.194-5 2.5-5.891 4.678-8.725 10.678-8.5 18 .278-.916.778-1.582 1.5-2v3h-4a116.21 116.21 0 0 0 2-12c-4.187-.713-8.187-1.713-12-3 1.333 0 2-.667 2-2a112.33 112.33 0 0 0 2-5 37.815 37.815 0 0 0 9-4c3.021 1.587 6.021 2.253 9 2-1.112-.765-1.779-1.765-2-3l10-4z"/><path style="opacity:1" fill="#777779" d="M273.5 362.5c1.195.366 1.861 1.199 2 2.5a34.367 34.367 0 0 1-3 7.5c1.189.929 2.522 1.262 4 1-.229 1.933-1.062 3.6-2.5 5a49.944 49.944 0 0 0 0 11l-1-1c-.5 1.167-1.333 2-2.5 2.5 2.536.186 4.869.686 7 1.5-5.228.625-10.562.958-16 1-.333-1-1-1.667-2-2a20.69 20.69 0 0 0-5-1c-1.765-.961-3.765-1.295-6-1 4.824-1.318 10.324-1.318 16.5 0 1.824-5.149 2.991-11.149 3.5-18 3.499.241 3.832-.592 1-2.5 2.423-1.571 3.756-3.737 4-6.5z"/><path style="opacity:1" fill="#e0e3e2" d="M254.5 390.5a20.69 20.69 0 0 1 5 1c-.12 1.086-.787 1.753-2 2a36.167 36.167 0 0 1-8-2.5 12.93 12.93 0 0 1 5-.5z"/><path style="opacity:1" fill="#9b9c9e" d="M248.5 389.5c2.235-.295 4.235.039 6 1a12.93 12.93 0 0 0-5 .5 36.167 36.167 0 0 0 8 2.5c1.213-.247 1.88-.914 2-2 1 .333 1.667 1 2 2-1.187 2.475-3.187 3.475-6 3a285.14 285.14 0 0 0-9.5-2 9.454 9.454 0 0 0-1.5-2.5c1.82-.2 3.153-1.034 4-2.5z"/><path style="opacity:1" fill="#828487" d="M318.5 385.5c1.153.813 1.153 1.813 0 3 .457.798 1.124 1.131 2 1-3.234.589-4.567 2.589-4 6-4.252.235-7.252 2.402-9 6.5-4.638 2.561-8.638 1.894-12-2a18.453 18.453 0 0 0-6-.5c.268 1.599-.066 2.932-1 4-1.014-1.265-2.514-1.931-4.5-2l-4.5.5c-1.256.417-1.923 1.25-2 2.5-4.807-.977-9.474-.643-14 1a41.73 41.73 0 0 0-9 1h-1c.191-3.483.857-6.816 2-10 2.813.475 4.813-.525 6-3a144.088 144.088 0 0 0 16-1 432.083 432.083 0 0 0 41-7z"/><path style="opacity:1" fill="#414244" d="M232.5 403.5h1c.763.768 1.763 1.268 3 1.5l-9 1a18.473 18.473 0 0 0-2 3.5c-1.314-3.948-2.814-3.948-4.5 0a74.398 74.398 0 0 0-13.5-15.5 386.486 386.486 0 0 1 25 9.5z"/><path style="opacity:1" fill="#393a3c" d="M182.5 411.5c-1.844 4.364-4.177 8.364-7 12-.737-1.882-1.904-2.548-3.5-2l-1-8a98.984 98.984 0 0 0-2.5 9 5.576 5.576 0 0 0-3-1 17.11 17.11 0 0 1-1-5 382.125 382.125 0 0 1 3-17c2.611-3.135 4.277-6.801 5-11 3.114-1.562 5.947-1.229 8.5 1a49.84 49.84 0 0 1-1 13 22.394 22.394 0 0 0-2.5 8c1.915-.284 3.581.049 5 1z"/><path style="opacity:1" fill="#4a4b4e" d="M206.5 410.5c-2.512-1.428-5.178-1.928-8-1.5a32.859 32.859 0 0 0-6 5.5c-3.868 1.529-7.201 3.863-10 7h-3a38.198 38.198 0 0 1 6-10c4.048-6.382 9.382-11.382 16-15 3.41-1.805 6.076-.972 8 2.5-1.727 1.389-3.061 3.056-4 5 .13 1.059.63 1.892 1.5 2.5.899-1.827 2.233-3.16 4-4 3.574 1.405 6.408 3.739 8.5 7-.387 1.22-1.22 1.887-2.5 2-3.473-1.59-6.973-1.923-10.5-1z"/><path style="opacity:1" fill="#4d4e52" d="m288.5 403.5-3 4c-3.442.672-6.109-.328-8-3 .077-1.25.744-2.083 2-2.5l4.5-.5c1.986.069 3.486.735 4.5 2z"/><path style="opacity:1" fill="#dedfd9" d="M123.5 388.5a253.167 253.167 0 0 0-4.5 25c-.383.556-.883.889-1.5 1a39.113 39.113 0 0 0 1-5c-.209-1.494-.876-2.661-2-3.5a4.934 4.934 0 0 1 3-.5c.511-5.04 1.344-10.04 2.5-15 .278-.916.778-1.582 1.5-2z"/><path style="opacity:1" fill="#abadad" d="M126.5 382.5a244.642 244.642 0 0 1-6 33c1.291-.237 2.291.096 3 1-2.882-.78-5.548-1.113-8-1l2-1c.617-.111 1.117-.444 1.5-1a253.167 253.167 0 0 1 4.5-25c.726-2.721 1.726-4.721 3-6z"/><path style="opacity:1" fill="#636365" d="M255.5 396.5c-1.143 3.184-1.809 6.517-2 10h-8c-.709-.904-1.709-1.237-3-1h-3a157.11 157.11 0 0 0-2 14c-1.362 4.477-2.362 9.143-3 14a81.802 81.802 0 0 1-2 10c-3.421 5.044-8.088 7.378-14 7-8.616 12.301-20.283 19.634-35 22-2.741-.207-5.074-1.207-7-3 2.805-.819 5.805-1.319 9-1.5 1.82-.2 3.153-1.034 4-2.5a54.032 54.032 0 0 0 12-7c4.364-.836 8.197-2.836 11.5-6 2.919-3.045 3.086-6.045.5-9-1.737-4.2-1.07-7.866 2-11a29.23 29.23 0 0 0-1 9h3a190.433 190.433 0 0 1 5.5-33 781.069 781.069 0 0 1-4.5 33 20.702 20.702 0 0 0 1.5 7c.743-1.941.576-3.774-.5-5.5a371.38 371.38 0 0 0 6-33.5 18.473 18.473 0 0 1 2-3.5l9-1c-1.237-.232-2.237-.732-3-1.5h3v-3l1-6a60.646 60.646 0 0 0 18 2z"/><path style="opacity:1" fill="#b5babd" d="M245.5 406.5h9a19.348 19.348 0 0 0-3 5l-6-1v-4z"/><path style="opacity:1" fill="#d6d8de" d="M201.5 396.5c-6.618 3.618-11.952 8.618-16 15-.667 0-1-.333-1-1 5.138-8.135 12.138-14.135 21-18 1.196.346 1.196.846 0 1.5-1.566.608-2.9 1.442-4 2.5z"/><path style="opacity:1" fill="#dadbdb" d="M277.5 404.5c1.891 2.672 4.558 3.672 8 3-.95 3.779-3.45 6.112-7.5 7-1.434-.43-2.601-1.264-3.5-2.5 1.231-1.183 1.231-2.349 0-3.5-3.442-1.891-7.109-2.891-11-3 4.526-1.643 9.193-1.977 14-1z"/><path style="opacity:1" fill="#a5a7a3" d="M242.5 405.5c1.291-.237 2.291.096 3 1-.951 1.419-1.284 3.085-1 5 1.175-.219 2.175.114 3 1-1.306 1.412-2.14 3.079-2.5 5-1.429-3.81-2.263-7.81-2.5-12z"/><path style="opacity:1" fill="#666665" d="M173.5 384.5c1.21.432 2.21 1.099 3 2h-7a38.457 38.457 0 0 1-2 13 382.125 382.125 0 0 0-3 17 17.11 17.11 0 0 0 1 5v1c-3.666-1.318-5.333-3.984-5-8 2.335-11.353 4.668-22.686 7-34 .996.086 1.829-.248 2.5-1 .549 2.26 1.716 3.926 3.5 5z"/><path style="opacity:1" fill="#8b8d8b" d="M206.5 410.5c1.637.88 3.47 1.546 5.5 2l4 4c1.054-.982 1.554-2.149 1.5-3.5.983-.591 1.65-.257 2 1-.557 5.485-1.89 10.652-4 15.5-4.983-2.954-10.316-5.454-16-7.5-2.878-2.043-5.211-4.543-7-7.5a32.859 32.859 0 0 1 6-5.5c2.822-.428 5.488.072 8 1.5z"/><path style="opacity:1" fill="#fdfdfd" d="M192.5 414.5c1.789 2.957 4.122 5.457 7 7.5 5.684 2.046 11.017 4.546 16 7.5v3c-3.07 3.134-3.737 6.8-2 11a4.934 4.934 0 0 1-.5 3 191.14 191.14 0 0 0-11.5 12 54.032 54.032 0 0 1-12 7c-10.849 3.581-17.516-.086-20-11-.997-10.339 1.003-20.005 6-29 1.152 1.125 2.152 1.125 3 0 2.333-.333 3.667-1.667 4-4 2.799-3.137 6.132-5.471 10-7z"/><path style="opacity:1" fill="#e0e2e0" d="M242.5 405.5c.237 4.19 1.071 8.19 2.5 12 .36-1.921 1.194-3.588 2.5-5-.825-.886-1.825-1.219-3-1-.284-1.915.049-3.581 1-5v4l6 1a28.208 28.208 0 0 1 1.5 4l1-1c.374.916.874 1.75 1.5 2.5 2.789.241 5.456.908 8 2l-1 5a469.512 469.512 0 0 1-11 5.5c-.639-.597-.972-1.43-1-2.5a35.884 35.884 0 0 0 2-10.5c-1.643.02-2.976-.647-4-2-.617 2.05-1.951 4.05-4 6 .065-.438-.101-.772-.5-1-.263 3.204-1.93 5.204-5 6a10.098 10.098 0 0 1-1.5-6 157.11 157.11 0 0 1 2-14h3z"/><path style="opacity:1" fill="#a9aaa8" d="M184.5 410.5c0 .667.333 1 1 1a38.198 38.198 0 0 0-6 10c-1.638 1.205-1.971 2.538-1 4-.848 1.125-1.848 1.125-3 0v-2c2.823-3.636 5.156-7.636 7-12l2-1z"/><path style="opacity:1" fill="#787975" d="M179.5 421.5h3c-.333 2.333-1.667 3.667-4 4-.971-1.462-.638-2.795 1-4z"/><path style="opacity:1" fill="#6c6c6d" d="M115.5 415.5c2.452-.113 5.118.22 8 1-.381 6.652-1.715 12.986-4 19a69.19 69.19 0 0 1 3-17.5 32.462 32.462 0 0 0-8-.5c-3.395 9.943-5.062 20.11-5 30.5 2.31.497 4.643.663 7 .5-.241-2.398.426-4.398 2-6a18.453 18.453 0 0 1-.5 6c-.383.556-.883.889-1.5 1-1.979 1.668-4.312 2.334-7 2-.667 0-1-.333-1-1-1.115-1.807-1.781-3.807-2-6a120.145 120.145 0 0 0 5-29h4z"/><path style="opacity:1" fill="#555556" d="M119.5 435.5c.202 2.45-.131 4.783-1 7-1.574 1.602-2.241 3.602-2 6a24.935 24.935 0 0 1-7-.5c-.062-10.39 1.605-20.557 5-30.5a32.462 32.462 0 0 1 8 .5 69.19 69.19 0 0 0-3 17.5z"/><path style="opacity:1" fill="#545456" d="M175.5 423.5v2c-4.997 8.995-6.997 18.661-6 29 .262 1.478-.071 2.811-1 4a54.107 54.107 0 0 1-2.5-10c-.383.556-.883.889-1.5 1v-7c2.258.947 3.425-.053 3.5-3 .427-4.176.927-8.342 1.5-12.5-.014-1.385-.348-2.551-1-3.5a5.727 5.727 0 0 1-3-1v-1a5.576 5.576 0 0 1 3 1 98.984 98.984 0 0 1 2.5-9l1 8c1.596-.548 2.763.118 3.5 2z"/><path style="opacity:1" fill="#d0d2cf" d="M237.5 419.5a10.098 10.098 0 0 0 1.5 6c3.07-.796 4.737-2.796 5-6 .399.228.565.562.5 1a2924.435 2924.435 0 0 1-9 47c-.967-1.306-2.301-1.973-4-2 .709-.904 1.709-1.237 3-1a331.009 331.009 0 0 1 7-31.5 11.596 11.596 0 0 0-7 .5c.638-4.857 1.638-9.523 3-14z"/><path style="opacity:1" fill="#6d6d6b" d="M168.5 423.5c.652.949.986 2.115 1 3.5a359.182 359.182 0 0 0-1.5 12.5c-.075 2.947-1.242 3.947-3.5 3a77.983 77.983 0 0 1 4-19z"/><path style="opacity:1" fill="#37393b" d="M226.5 437.5c3.664 1.367 3.997 3.534 1 6.5a4.934 4.934 0 0 1-3 .5c-.334-2.688.332-5.021 2-7z"/><path style="opacity:1" fill="#848480" d="M115.5 415.5h-4a120.145 120.145 0 0 1-5 29c.219 2.193.885 4.193 2 6-2.443-.999-4.109-2.832-5-5.5l6.5-30.5c1.751-.674 3.417-1.007 5-1 .464.594.631 1.261.5 2z"/><path style="opacity:1" fill="#f7f8f5" d="M251.5 429.5a575.531 575.531 0 0 0-5 23c2.072 2.631 2.238 5.297.5 8-.317-1.801-.984-2.134-2-1-1.357 3.027-1.524 6.027-.5 9-3.354 1.613-6.354 1.28-9-1a2924.435 2924.435 0 0 0 9-47c2.049-1.95 3.383-3.95 4-6 1.024 1.353 2.357 2.02 4 2a35.884 35.884 0 0 1-2 10.5c.028 1.07.361 1.903 1 2.5z"/><path style="opacity:1" fill="#bdbdb7" d="M116.5 449.5c.086.996-.248 1.829-1 2.5-2.212.789-4.212.622-6-.5 2.688.334 5.021-.332 7-2z"/><path style="opacity:1" fill="#929292" d="M213.5 443.5c2.586 2.955 2.419 5.955-.5 9-3.303 3.164-7.136 5.164-11.5 6a191.14 191.14 0 0 1 11.5-12 4.934 4.934 0 0 0 .5-3z"/><path style="opacity:1" fill="#f1f4f8" d="m231.5 465.5-2 2c-.235-.597-.735-.93-1.5-1a156.441 156.441 0 0 1-16.5 5c2.248-1.237 4.248-2.903 6-5-.665-1.601-.999-3.101-1-4.5 4.239.549 4.905-.951 2-4.5l1.5-1c1.011.392 1.511 1.059 1.5 2a14.72 14.72 0 0 0 1.5-5l1 1c1.04-2.54 2.874-4.207 5.5-5a12.805 12.805 0 0 0 3-6 81.802 81.802 0 0 0 2-10 11.596 11.596 0 0 1 7-.5 331.009 331.009 0 0 0-7 31.5c-1.291-.237-2.291.096-3 1z"/><path style="opacity:1" fill="#7d7d80" d="M169.5 454.5c2.484 10.914 9.151 14.581 20 11-.847 1.466-2.18 2.3-4 2.5-3.195.181-6.195.681-9 1.5-6.398-2.413-10.231-7.08-11.5-14a18.453 18.453 0 0 1-.5-6c.617-.111 1.117-.444 1.5-1a54.107 54.107 0 0 0 2.5 10c.929-1.189 1.262-2.522 1-4z"/><path style="opacity:1" fill="#e1e4e6" d="M232.5 443.5a12.805 12.805 0 0 1-3 6c-2.626.793-4.46 2.46-5.5 5l-1-1a14.72 14.72 0 0 1-1.5 5c.011-.941-.489-1.608-1.5-2l-1.5 1c2.905 3.549 2.239 5.049-2 4.5.001 1.399.335 2.899 1 4.5-1.752 2.097-3.752 3.763-6 5a125.327 125.327 0 0 1-19 2c-3.186-.002-6.186-.335-9-1 14.717-2.366 26.384-9.699 35-22 5.912.378 10.579-1.956 14-7z"/><path style="opacity:1" fill="#646468" d="M237.5 487.5a89.927 89.927 0 0 0 2-15c-2.041-.354-3.874-.354-5.5 0a284.457 284.457 0 0 0-6.5 31c-1.522-.691-2.522-1.858-3-3.5 1.205-6.811 3.205-13.644 6-20.5a11.988 11.988 0 0 1-1-6v-1c8.967-4.436 12.467-1.769 10.5 8-.39 2.604-1.224 4.938-2.5 7z"/><path style="opacity:1" fill="#555558" d="M237.5 487.5c.759 6.728-1.241 12.395-6 17a6.846 6.846 0 0 0-4-1 284.457 284.457 0 0 1 6.5-31c1.626-.354 3.459-.354 5.5 0a89.927 89.927 0 0 1-2 15z"/><path style="opacity:1" fill="#7a7a7c" d="M231.5 465.5c1.699.027 3.033.694 4 2 2.646 2.28 5.646 2.613 9 1 .639.597.972 1.43 1 2.5a487.42 487.42 0 0 0-7.5 33.5c-3.453 3.269-7.286 3.769-11.5 1.5-1.944-1.722-2.944-3.889-3-6.5 1.129-9 3.129-17.667 6-26a11.988 11.988 0 0 0 1 6c-2.795 6.856-4.795 13.689-6 20.5.478 1.642 1.478 2.809 3 3.5a6.846 6.846 0 0 1 4 1c4.759-4.605 6.759-10.272 6-17 1.276-2.062 2.11-4.396 2.5-7 1.967-9.769-1.533-12.436-10.5-8v-5l2-2z"/></svg>