<svg xmlns="http://www.w3.org/2000/svg" width="126" height="134" style="shape-rendering:geometricPrecision;text-rendering:geometricPrecision;image-rendering:optimizeQuality;fill-rule:evenodd;clip-rule:evenodd"><path style="opacity:.881" fill="#020202" d="M12.5-.5h100c6.077 1.547 10.41 5.214 13 11v27c-2.092 3.928-5.092 7.094-9 9.5-7.326.5-14.659.666-22 .5v17a40.937 40.937 0 0 1 9 .5 301.308 301.308 0 0 1-12 20c8.41.093 16.743.76 25 2 4.494 1.871 7.494 5.038 9 9.5v27c-2.333 4.333-5.667 7.667-10 10H9.5c-5.503-2.677-8.836-7.01-10-13v-21c.76-5.62 3.76-9.787 9-12.5a98.737 98.737 0 0 1 23-1.5v-16h-8a105.226 105.226 0 0 1 11-21 314.728 314.728 0 0 0-25-1.5C3.882 44.568.549 40.401-.5 34.5v-21c1.556-7.224 5.89-11.89 13-14zm25 49a576.578 576.578 0 0 1 48-1v17a16.869 16.869 0 0 0-8 1 267.415 267.415 0 0 0 11 19 576.865 576.865 0 0 1-48 1v-16a21.12 21.12 0 0 0 9-1 8687.973 8687.973 0 0 0-12-20z"/><path style="opacity:1" fill="#4988ba" d="M11.5 1.5c33.668-.167 67.335 0 101 .5 6.799 1.443 10.466 5.61 11 12.5-40.672.333-81.339 0-122-1 1.567-5.559 4.9-9.559 10-12z"/><path style="opacity:1" fill="#fcfcfc" d="M67.5 16.5v29h-55c-5.667-1-9-4.333-10-10v-19h65z"/><path style="opacity:1" fill="#e9e9e9" d="M67.5 16.5h18v29h-18v-29z"/><path style="opacity:1" fill="#c9c9c9" d="M85.5 16.5h11v29h-11v-29z"/><path style="opacity:1" fill="#afafaf" d="M96.5 16.5h5v29h-5v-29z"/><path style="opacity:1" fill="#929292" d="M102.5 15.5c1.765.961 3.765 1.295 6 1v29h-7v-29h-99v19c-.99-6.479-1.324-13.146-1-20h101z"/><path style="opacity:1" fill="#6c6c6c" d="M108.5 16.5h8v28a28.233 28.233 0 0 1-4 1.5c-33.502.83-66.836.664-100-.5h96v-29z"/><path style="opacity:1" fill="#424242" d="M102.5 15.5c6.045-.197 12.045.136 18 1a313 313 0 0 1-.5 25 14.694 14.694 0 0 1-3.5 3v-28h-8c-2.235.295-4.235-.039-6-1z"/><path style="opacity:1" fill="#fdd33a" d="M123.5 99.5c-40.68.661-81.014-.006-121-2 1.421-4.59 4.421-7.757 9-9.5 34.333-.667 68.667-.667 103 0 5.444 1.942 8.444 5.775 9 11.5z"/><path style="opacity:1" fill="#8e7620" d="M2.5 97.5c39.986 1.994 80.32 2.661 121 2a3720.34 3720.34 0 0 1-122 1c-.237-1.291.096-2.291 1-3z"/><path style="opacity:1" fill="#fcfcfc" d="M67.5 102.5v29h-55c-5.667-1-9-4.333-10-10v-19h65z"/><path style="opacity:1" fill="#e9e9e9" d="M67.5 102.5h18v29h-18v-29z"/><path style="opacity:1" fill="#c9c9c9" d="M89.5 101.5c2.107.968 4.44 1.302 7 1v29h-11v-29h-83v19c-.99-6.479-1.324-13.146-1-20h88z"/><path style="opacity:1" fill="#acacac" d="M96.5 102.5h7v29h-7v-29z"/><path style="opacity:1" fill="#8b8b8b" d="M89.5 101.5h16c1.419.951 3.085 1.284 5 1v29h-7v-29h-7c-2.56.302-4.893-.032-7-1z"/><path style="opacity:1" fill="#696969" d="M105.5 101.5h10a218.833 218.833 0 0 1 1 29 27.603 27.603 0 0 1-5 1.5c-33.17.831-66.17.664-99-.5h98v-29c-1.915.284-3.581-.049-5-1z"/><path style="opacity:1" fill="#303030" d="M115.5 101.5h8c.166 6.675 0 13.342-.5 20-.84 4-3.006 7-6.5 9 .306-9.75-.027-19.416-1-29z"/></svg>