<?xml version="1.0" encoding="UTF-8"?>
<!DOCTYPE svg PUBLIC "-//W3C//DTD SVG 1.1//EN" "http://www.w3.org/Graphics/SVG/1.1/DTD/svg11.dtd">
<svg xmlns="http://www.w3.org/2000/svg" version="1.1" width="196px" height="196px" style="shape-rendering:geometricPrecision; text-rendering:geometricPrecision; image-rendering:optimizeQuality; fill-rule:evenodd; clip-rule:evenodd" xmlns:xlink="http://www.w3.org/1999/xlink">
<g><path style="opacity:0.988" fill="#224477" d="M 83.5,-0.5 C 84.8333,-0.5 86.1667,-0.5 87.5,-0.5C 86.1193,22.4972 84.7859,45.4972 83.5,68.5C 78.1667,68.5 72.8333,68.5 67.5,68.5C 67.2155,70.4147 67.5489,72.0813 68.5,73.5C 69.5,73.5 70.5,73.5 71.5,73.5C 71.5,81.8333 71.5,90.1667 71.5,98.5C 68.0897,98.3838 66.7564,100.05 67.5,103.5C 72.1667,103.5 76.8333,103.5 81.5,103.5C 80.6022,116.171 79.6022,128.838 78.5,141.5C 72.2262,124.679 66.5595,107.679 61.5,90.5C 62.9657,85.9332 64.6324,81.5998 66.5,77.5C 63.0381,76.5184 59.3714,76.185 55.5,76.5C 53.7712,69.3137 51.4379,62.3137 48.5,55.5C 51.1458,52.6285 51.9792,49.2952 51,45.5C 47.2544,41.6073 43.5877,41.6073 40,45.5C 38.1306,52.129 40.6306,55.4623 47.5,55.5C 49.5237,62.9269 51.857,70.2602 54.5,77.5C 54.4486,79.5695 55.1153,81.4029 56.5,83C 55.53,86.2436 54.3634,89.4103 53,92.5C 51.9319,89.129 50.7653,85.7957 49.5,82.5C 50.325,81.6143 51.325,81.281 52.5,81.5C 52.5,80.1667 52.5,78.8333 52.5,77.5C 48.1667,77.5 43.8333,77.5 39.5,77.5C 43.285,85.664 46.6183,94.164 49.5,103C 48.9245,106.41 46.9245,108.243 43.5,108.5C 43.5,110.167 43.5,111.833 43.5,113.5C 47.9093,114.382 51.4093,113.048 54,109.5C 55.9388,104.515 57.7721,99.5148 59.5,94.5C 65.3815,109.961 71.0482,125.628 76.5,141.5C 76.1131,142.72 75.2798,143.387 74,143.5C 49.0767,130.622 24.2434,117.622 -0.5,104.5C -0.5,97.5 -0.5,90.5 -0.5,83.5C 9.16277,37.1706 37.1628,9.17057 83.5,-0.5 Z"/></g>
<g><path style="opacity:0.988" fill="#214478" d="M 89.5,-0.5 C 96.8333,-0.5 104.167,-0.5 111.5,-0.5C 142.924,4.70307 166.59,21.0364 182.5,48.5C 172.199,57.1334 162.533,66.4667 153.5,76.5C 149.206,77.7984 146.206,80.4651 144.5,84.5C 141.87,86.6281 139.37,88.9614 137,91.5C 136.502,88.5184 136.335,85.5184 136.5,82.5C 137.833,82.5 139.167,82.5 140.5,82.5C 140.5,80.8333 140.5,79.1667 140.5,77.5C 138.833,77.5 137.167,77.5 135.5,77.5C 135.5,75.1667 135.5,72.8333 135.5,70.5C 133.167,70.5 130.833,70.5 128.5,70.5C 128.5,72.8333 128.5,75.1667 128.5,77.5C 127.167,77.5 125.833,77.5 124.5,77.5C 124.5,78.8333 124.5,80.1667 124.5,81.5C 125.209,82.404 126.209,82.7373 127.5,82.5C 127.182,87.0323 127.515,91.3656 128.5,95.5C 128.5,96.5 128.5,97.5 128.5,98.5C 128.262,100.404 127.262,101.738 125.5,102.5C 124.039,96.2912 123.206,89.9578 123,83.5C 121.395,79.7241 118.562,77.7241 114.5,77.5C 114.687,75.4357 115.187,73.4357 116,71.5C 122,58.8333 128,46.1667 134,33.5C 141.182,32.8409 143.682,29.1742 141.5,22.5C 138.042,18.5664 134.542,18.5664 131,22.5C 129.817,26.2739 130.651,29.4406 133.5,32C 126.187,47.461 118.52,62.6277 110.5,77.5C 104.277,77.3883 101.61,80.3883 102.5,86.5C 104.5,86.5 106.5,86.5 108.5,86.5C 109.902,82.1896 112.402,81.5229 116,84.5C 116.49,85.7932 116.657,87.1266 116.5,88.5C 110.9,88.055 106.066,89.7217 102,93.5C 101.505,95.4727 101.338,97.4727 101.5,99.5C 94.9365,113.627 88.1031,127.627 81,141.5C 81.4333,124.167 82.2666,106.834 83.5,89.5C 85.371,89.8588 86.871,90.8588 88,92.5C 86.9736,100.639 90.4736,104.305 98.5,103.5C 96.192,100.01 95.0253,96.0104 95,91.5C 94.1667,89.3333 92.6667,87.8333 90.5,87C 96.7141,81.9733 97.0474,76.64 91.5,71C 89.5643,70.187 87.5643,69.687 85.5,69.5C 85.5,69.1667 85.5,68.8333 85.5,68.5C 86.6924,45.4759 88.0257,22.4759 89.5,-0.5 Z"/></g>
<g><path style="opacity:1" fill="#1b99b2" d="M 114.5,77.5 C 113.167,77.5 111.833,77.5 110.5,77.5C 118.52,62.6277 126.187,47.461 133.5,32C 130.651,29.4406 129.817,26.2739 131,22.5C 134.542,18.5664 138.042,18.5664 141.5,22.5C 143.682,29.1742 141.182,32.8409 134,33.5C 128,46.1667 122,58.8333 116,71.5C 115.187,73.4357 114.687,75.4357 114.5,77.5 Z"/></g>
<g><path style="opacity:0.996" fill="#1c86a6" d="M 87.5,-0.5 C 88.1667,-0.5 88.8333,-0.5 89.5,-0.5C 88.0257,22.4759 86.6924,45.4759 85.5,68.5C 84.8333,68.5 84.1667,68.5 83.5,68.5C 84.7859,45.4972 86.1193,22.4972 87.5,-0.5 Z"/></g>
<g><path style="opacity:1" fill="#2297af" d="M 66.5,77.5 C 62.5,77.5 58.5,77.5 54.5,77.5C 51.857,70.2602 49.5237,62.9269 47.5,55.5C 40.6306,55.4623 38.1306,52.129 40,45.5C 43.5877,41.6073 47.2544,41.6073 51,45.5C 51.9792,49.2952 51.1458,52.6285 48.5,55.5C 51.4379,62.3137 53.7712,69.3137 55.5,76.5C 59.3714,76.185 63.0381,76.5184 66.5,77.5 Z"/></g>
<g><path style="opacity:0.989" fill="#224578" d="M 183.5,49.5 C 189.307,60.2573 193.307,71.5906 195.5,83.5C 195.5,92.8333 195.5,102.167 195.5,111.5C 193.029,124.908 188.362,137.575 181.5,149.5C 149.495,148.708 117.495,147.708 85.5,146.5C 112.075,136.975 138.742,127.641 165.5,118.5C 167.933,121.242 170.933,122.075 174.5,121C 178.5,117.333 178.5,113.667 174.5,110C 168.32,108.68 165.32,111.18 165.5,117.5C 138.44,126.465 111.44,135.299 84.5,144C 96.8043,132.696 108.804,121.03 120.5,109C 123.729,106.259 127.062,103.759 130.5,101.5C 133.505,103.299 136.838,103.966 140.5,103.5C 140.5,101.5 140.5,99.5 140.5,97.5C 139.167,97.5 137.833,97.5 136.5,97.5C 137.541,92.7725 140.207,89.1059 144.5,86.5C 144.519,102.094 151.686,106.761 166,100.5C 166.436,98.7043 165.769,97.3709 164,96.5C 160.879,97.5359 157.713,97.7026 154.5,97C 153.619,96.2917 152.953,95.4584 152.5,94.5C 157.056,92.5583 162.056,91.8917 167.5,92.5C 167.802,89.9407 167.468,87.6074 166.5,85.5C 165.455,79.4586 161.788,76.4586 155.5,76.5C 164.807,67.5275 174.14,58.5275 183.5,49.5 Z"/></g>
<g><path style="opacity:1" fill="#1a8eab" d="M 182.5,48.5 C 183.167,48.5 183.5,48.8333 183.5,49.5C 174.14,58.5275 164.807,67.5275 155.5,76.5C 154.833,76.5 154.167,76.5 153.5,76.5C 162.533,66.4667 172.199,57.1334 182.5,48.5 Z"/></g>
<g><path style="opacity:0.996" fill="#5e7c5f" d="M 83.5,68.5 C 84.1667,68.5 84.8333,68.5 85.5,68.5C 85.5,68.8333 85.5,69.1667 85.5,69.5C 79.8333,69.5 74.1667,69.5 68.5,69.5C 68.5,70.8333 68.5,72.1667 68.5,73.5C 67.5489,72.0813 67.2155,70.4147 67.5,68.5C 72.8333,68.5 78.1667,68.5 83.5,68.5 Z"/></g>
<g><path style="opacity:1" fill="#c6d530" d="M 19.5,91.5 C 18.8442,92.6216 18.5108,93.9549 18.5,95.5C 18.5854,97.3328 19.2521,98.6661 20.5,99.5C 22.1765,100.183 22.8432,101.517 22.5,103.5C 17.8333,103.5 13.1667,103.5 8.5,103.5C 8.5,102.167 8.5,100.833 8.5,99.5C 9.83333,99.5 11.1667,99.5 12.5,99.5C 12.5,91.1667 12.5,82.8333 12.5,74.5C 11.1667,74.5 9.83333,74.5 8.5,74.5C 8.5,72.8333 8.5,71.1667 8.5,69.5C 15.5079,69.3337 22.5079,69.5004 29.5,70C 34.6892,71.5343 37.0226,75.0343 36.5,80.5C 36.6051,86.127 33.9384,89.627 28.5,91C 25.5184,91.498 22.5184,91.6646 19.5,91.5 Z"/></g>
<g><path style="opacity:1" fill="#c3d233" d="M 85.5,69.5 C 87.5643,69.687 89.5643,70.187 91.5,71C 97.0474,76.64 96.7141,81.9733 90.5,87C 92.6667,87.8333 94.1667,89.3333 95,91.5C 95.0253,96.0104 96.192,100.01 98.5,103.5C 90.4736,104.305 86.9736,100.639 88,92.5C 86.871,90.8588 85.371,89.8588 83.5,89.5C 82.8333,89.5 82.1667,89.5 81.5,89.5C 80.5,89.5 79.5,89.5 78.5,89.5C 78.5,92.5 78.5,95.5 78.5,98.5C 79.5,98.5 80.5,98.5 81.5,98.5C 81.5,100.167 81.5,101.833 81.5,103.5C 76.8333,103.5 72.1667,103.5 67.5,103.5C 66.7564,100.05 68.0897,98.3838 71.5,98.5C 71.5,90.1667 71.5,81.8333 71.5,73.5C 70.5,73.5 69.5,73.5 68.5,73.5C 68.5,72.1667 68.5,70.8333 68.5,69.5C 74.1667,69.5 79.8333,69.5 85.5,69.5 Z"/></g>
<g><path style="opacity:1" fill="#c5d431" d="M 136.5,82.5 C 135.167,87.5 135.167,92.5 136.5,97.5C 137.833,97.5 139.167,97.5 140.5,97.5C 140.5,99.5 140.5,101.5 140.5,103.5C 136.838,103.966 133.505,103.299 130.5,101.5C 130.068,100.29 129.401,99.2905 128.5,98.5C 128.5,97.5 128.5,96.5 128.5,95.5C 128.5,90.8333 128.5,86.1667 128.5,81.5C 127.167,81.5 125.833,81.5 124.5,81.5C 124.5,80.1667 124.5,78.8333 124.5,77.5C 125.833,77.5 127.167,77.5 128.5,77.5C 128.5,75.1667 128.5,72.8333 128.5,70.5C 130.833,70.5 133.167,70.5 135.5,70.5C 135.5,72.8333 135.5,75.1667 135.5,77.5C 137.167,77.5 138.833,77.5 140.5,77.5C 140.5,79.1667 140.5,80.8333 140.5,82.5C 139.167,82.5 137.833,82.5 136.5,82.5 Z"/></g>
<g><path style="opacity:0.992" fill="#294875" d="M 18.5,74.5 C 22.8394,73.8461 26.6727,74.8461 30,77.5C 31.0405,80.6363 30.2072,83.1363 27.5,85C 24.5184,85.498 21.5184,85.6646 18.5,85.5C 18.5,81.8333 18.5,78.1667 18.5,74.5 Z"/></g>
<g><path style="opacity:0.992" fill="#2c4a75" d="M 84.5,74.5 C 88.5156,75.1951 90.0156,77.5284 89,81.5C 88.1841,82.8228 87.0174,83.4894 85.5,83.5C 84.5233,80.7131 84.19,77.7131 84.5,74.5 Z"/></g>
<g><path style="opacity:1" fill="#c1d133" d="M 176.5,75.5 C 180.936,75.2101 185.27,75.7101 189.5,77C 190.451,80.0567 190.784,83.2234 190.5,86.5C 188.833,86.5 187.167,86.5 185.5,86.5C 185.621,83.4591 184.121,81.7924 181,81.5C 177.323,82.6531 176.823,84.4864 179.5,87C 183.772,87.5198 187.605,89.0198 191,91.5C 192.183,95.2739 191.349,98.4406 188.5,101C 182.729,103.306 177.229,102.806 172,99.5C 171.505,97.5273 171.338,95.5273 171.5,93.5C 173.199,93.3398 174.866,93.5065 176.5,94C 178.664,96.3305 181.331,96.9972 184.5,96C 185.833,94.6667 185.833,93.3333 184.5,92C 179.795,91.3231 175.628,89.4897 172,86.5C 170.393,81.4383 171.893,77.7716 176.5,75.5 Z"/></g>
<g><path style="opacity:1" fill="#c4d432" d="M 54.5,77.5 C 58.5,77.5 62.5,77.5 66.5,77.5C 64.6324,81.5998 62.9657,85.9332 61.5,90.5C 60.6554,91.6715 59.9887,93.0048 59.5,94.5C 57.7721,99.5148 55.9388,104.515 54,109.5C 51.4093,113.048 47.9093,114.382 43.5,113.5C 43.5,111.833 43.5,110.167 43.5,108.5C 46.9245,108.243 48.9245,106.41 49.5,103C 46.6183,94.164 43.285,85.664 39.5,77.5C 43.8333,77.5 48.1667,77.5 52.5,77.5C 52.5,78.8333 52.5,80.1667 52.5,81.5C 51.325,81.281 50.325,81.6143 49.5,82.5C 50.7653,85.7957 51.9319,89.129 53,92.5C 54.3634,89.4103 55.53,86.2436 56.5,83C 55.1153,81.4029 54.4486,79.5695 54.5,77.5 Z"/></g>
<g><path style="opacity:1" fill="#bfd035" d="M 110.5,77.5 C 111.833,77.5 113.167,77.5 114.5,77.5C 118.562,77.7241 121.395,79.7241 123,83.5C 123.206,89.9578 124.039,96.2912 125.5,102.5C 125.5,103.167 125.167,103.5 124.5,103.5C 121.315,103.98 118.481,103.314 116,101.5C 111.726,104.15 107.559,104.15 103.5,101.5C 103.167,100.5 102.5,99.8333 101.5,99.5C 101.338,97.4727 101.505,95.4727 102,93.5C 106.066,89.7217 110.9,88.055 116.5,88.5C 116.657,87.1266 116.49,85.7932 116,84.5C 112.402,81.5229 109.902,82.1896 108.5,86.5C 106.5,86.5 104.5,86.5 102.5,86.5C 101.61,80.3883 104.277,77.3883 110.5,77.5 Z"/></g>
<g><path style="opacity:1" fill="#c2d233" d="M 153.5,76.5 C 154.167,76.5 154.833,76.5 155.5,76.5C 161.788,76.4586 165.455,79.4586 166.5,85.5C 166.5,87.5 166.5,89.5 166.5,91.5C 161.5,91.5 156.5,91.5 151.5,91.5C 151.263,92.791 151.596,93.791 152.5,94.5C 152.953,95.4584 153.619,96.2917 154.5,97C 157.713,97.7026 160.879,97.5359 164,96.5C 165.769,97.3709 166.436,98.7043 166,100.5C 151.686,106.761 144.519,102.094 144.5,86.5C 144.5,85.8333 144.5,85.1667 144.5,84.5C 146.206,80.4651 149.206,77.7984 153.5,76.5 Z"/></g>
<g><path style="opacity:0.996" fill="#357b91" d="M 79.5,74.5 C 79.5,77.5 79.5,80.5 79.5,83.5C 80.5,83.5 81.5,83.5 82.5,83.5C 82.5,80.5 82.5,77.5 82.5,74.5C 83.1667,74.5 83.8333,74.5 84.5,74.5C 84.19,77.7131 84.5233,80.7131 85.5,83.5C 83.3926,84.4682 81.0593,84.8016 78.5,84.5C 78.1872,80.9581 78.5206,77.6248 79.5,74.5 Z"/></g>
<g><path style="opacity:0.992" fill="#214478" d="M 79.5,74.5 C 80.5,74.5 81.5,74.5 82.5,74.5C 82.5,77.5 82.5,80.5 82.5,83.5C 81.5,83.5 80.5,83.5 79.5,83.5C 79.5,80.5 79.5,77.5 79.5,74.5 Z"/></g>
<g><path style="opacity:0.992" fill="#456169" d="M 124.5,81.5 C 125.833,81.5 127.167,81.5 128.5,81.5C 128.5,86.1667 128.5,90.8333 128.5,95.5C 127.515,91.3656 127.182,87.0323 127.5,82.5C 126.209,82.7373 125.209,82.404 124.5,81.5 Z"/></g>
<g><path style="opacity:0.992" fill="#294875" d="M 153.5,82.5 C 157.151,82.1617 158.817,83.8284 158.5,87.5C 155.813,87.6641 153.146,87.4974 150.5,87C 151.386,85.3853 152.386,83.8853 153.5,82.5 Z"/></g>
<g><path style="opacity:0.992" fill="#214478" d="M 81.5,89.5 C 81.5,92.5 81.5,95.5 81.5,98.5C 80.5,98.5 79.5,98.5 78.5,98.5C 78.5,95.5 78.5,92.5 78.5,89.5C 79.5,89.5 80.5,89.5 81.5,89.5 Z"/></g>
<g><path style="opacity:1" fill="#438e95" d="M 136.5,82.5 C 136.335,85.5184 136.502,88.5184 137,91.5C 139.37,88.9614 141.87,86.6281 144.5,84.5C 144.5,85.1667 144.5,85.8333 144.5,86.5C 140.207,89.1059 137.541,92.7725 136.5,97.5C 135.167,92.5 135.167,87.5 136.5,82.5 Z"/></g>
<g><path style="opacity:0.996" fill="#869c4e" d="M 166.5,85.5 C 167.468,87.6074 167.802,89.9407 167.5,92.5C 162.056,91.8917 157.056,92.5583 152.5,94.5C 151.596,93.791 151.263,92.791 151.5,91.5C 156.5,91.5 161.5,91.5 166.5,91.5C 166.5,89.5 166.5,87.5 166.5,85.5 Z"/></g>
<g><path style="opacity:0.996" fill="#547061" d="M 19.5,91.5 C 19.2786,94.2788 19.612,96.9455 20.5,99.5C 19.2521,98.6661 18.5854,97.3328 18.5,95.5C 18.5108,93.9549 18.8442,92.6216 19.5,91.5 Z"/></g>
<g><path style="opacity:0.992" fill="#2e4b74" d="M 110.5,92.5 C 112.5,92.5 114.5,92.5 116.5,92.5C 116.671,97.4943 114.338,99.3276 109.5,98C 108.243,95.9235 108.576,94.0902 110.5,92.5 Z"/></g>
<g><path style="opacity:0.983" fill="#214478" d="M -0.5,106.5 C 24.209,119.187 48.8757,131.854 73.5,144.5C 73.67,145.822 73.3366,146.989 72.5,148C 62.2647,149.034 52.098,150.534 42,152.5C 39.9954,152.001 38.4954,150.834 37.5,149C 32.2027,147.479 28.8693,149.312 27.5,154.5C 28.6507,160.091 31.984,161.925 37.5,160C 39.0814,158.172 40.4147,156.172 41.5,154C 52.2431,152.624 62.9097,151.291 73.5,150C 74.9013,151.677 76.2347,153.344 77.5,155C 75.3051,167.474 73.3051,179.974 71.5,192.5C 31.2093,179.881 7.20933,152.881 -0.5,111.5C -0.5,109.833 -0.5,108.167 -0.5,106.5 Z"/></g>
<g><path style="opacity:1" fill="#1a93af" d="M 81.5,89.5 C 82.1667,89.5 82.8333,89.5 83.5,89.5C 82.2666,106.834 81.4333,124.167 81,141.5C 88.1031,127.627 94.9365,113.627 101.5,99.5C 102.5,99.8333 103.167,100.5 103.5,101.5C 101.314,102.823 99.8136,104.823 99,107.5C 93.6283,119.076 88.1283,130.576 82.5,142C 82.8333,142.167 83.1667,142.333 83.5,142.5C 97.5162,129.816 111.183,116.816 124.5,103.5C 125.167,103.5 125.5,103.167 125.5,102.5C 127.262,101.738 128.262,100.404 128.5,98.5C 129.401,99.2905 130.068,100.29 130.5,101.5C 127.062,103.759 123.729,106.259 120.5,109C 108.804,121.03 96.8043,132.696 84.5,144C 111.44,135.299 138.44,126.465 165.5,117.5C 165.32,111.18 168.32,108.68 174.5,110C 178.5,113.667 178.5,117.333 174.5,121C 170.933,122.075 167.933,121.242 165.5,118.5C 138.742,127.641 112.075,136.975 85.5,146.5C 117.495,147.708 149.495,148.708 181.5,149.5C 181.5,150.167 181.167,150.5 180.5,150.5C 149.803,150.388 119.137,149.888 88.5,149C 108.51,153.836 128.51,158.669 148.5,163.5C 151.685,159.163 155.518,158.497 160,161.5C 162.522,169.315 159.689,172.482 151.5,171C 149.549,169.266 148.549,167.099 148.5,164.5C 127.167,159.833 105.833,155.167 84.5,150.5C 84.4914,152.308 84.9914,153.975 86,155.5C 89.3333,160.167 92.6667,164.833 96,169.5C 98.405,170.274 100.905,170.774 103.5,171C 107.487,174.713 107.487,178.38 103.5,182C 98.1992,183.69 95.1992,181.857 94.5,176.5C 95.0212,174.476 95.1878,172.476 95,170.5C 90.9729,165.306 87.1395,159.973 83.5,154.5C 82.277,153.386 80.9437,153.219 79.5,154C 77.3438,166.773 75.3438,179.606 73.5,192.5C 72.8333,192.5 72.1667,192.5 71.5,192.5C 73.3051,179.974 75.3051,167.474 77.5,155C 76.2347,153.344 74.9013,151.677 73.5,150C 62.9097,151.291 52.2431,152.624 41.5,154C 40.4147,156.172 39.0814,158.172 37.5,160C 31.984,161.925 28.6507,160.091 27.5,154.5C 28.8693,149.312 32.2027,147.479 37.5,149C 38.4954,150.834 39.9954,152.001 42,152.5C 52.098,150.534 62.2647,149.034 72.5,148C 73.3366,146.989 73.67,145.822 73.5,144.5C 48.8757,131.854 24.209,119.187 -0.5,106.5C -0.5,105.833 -0.5,105.167 -0.5,104.5C 24.2434,117.622 49.0767,130.622 74,143.5C 75.2798,143.387 76.1131,142.72 76.5,141.5C 71.0482,125.628 65.3815,109.961 59.5,94.5C 59.9887,93.0048 60.6554,91.6715 61.5,90.5C 66.5595,107.679 72.2262,124.679 78.5,141.5C 79.6022,128.838 80.6022,116.171 81.5,103.5C 81.5,101.833 81.5,100.167 81.5,98.5C 81.5,95.5 81.5,92.5 81.5,89.5 Z"/></g>
<g><path style="opacity:0.992" fill="#214679" d="M 103.5,101.5 C 107.559,104.15 111.726,104.15 116,101.5C 118.481,103.314 121.315,103.98 124.5,103.5C 111.183,116.816 97.5162,129.816 83.5,142.5C 83.1667,142.333 82.8333,142.167 82.5,142C 88.1283,130.576 93.6283,119.076 99,107.5C 99.8136,104.823 101.314,102.823 103.5,101.5 Z"/></g>
<g><path style="opacity:0.988" fill="#214478" d="M 180.5,150.5 C 163.906,175.298 140.906,190.298 111.5,195.5C 102.167,195.5 92.8333,195.5 83.5,195.5C 80.1129,194.712 76.7796,193.712 73.5,192.5C 75.3438,179.606 77.3438,166.773 79.5,154C 80.9437,153.219 82.277,153.386 83.5,154.5C 87.1395,159.973 90.9729,165.306 95,170.5C 95.1878,172.476 95.0212,174.476 94.5,176.5C 95.1992,181.857 98.1992,183.69 103.5,182C 107.487,178.38 107.487,174.713 103.5,171C 100.905,170.774 98.405,170.274 96,169.5C 92.6667,164.833 89.3333,160.167 86,155.5C 84.9914,153.975 84.4914,152.308 84.5,150.5C 105.833,155.167 127.167,159.833 148.5,164.5C 148.549,167.099 149.549,169.266 151.5,171C 159.689,172.482 162.522,169.315 160,161.5C 155.518,158.497 151.685,159.163 148.5,163.5C 128.51,158.669 108.51,153.836 88.5,149C 119.137,149.888 149.803,150.388 180.5,150.5 Z"/></g>
</svg>
