<?xml version="1.0" encoding="UTF-8"?>
<!DOCTYPE svg PUBLIC "-//W3C//DTD SVG 1.1//EN" "http://www.w3.org/Graphics/SVG/1.1/DTD/svg11.dtd">
<svg xmlns="http://www.w3.org/2000/svg" version="1.1" width="698px" height="384px" style="shape-rendering:geometricPrecision; text-rendering:geometricPrecision; image-rendering:optimizeQuality; fill-rule:evenodd; clip-rule:evenodd" xmlns:xlink="http://www.w3.org/1999/xlink">
<g><path style="opacity:1" fill="#e3e8ec" d="M -0.5,-0.5 C 10.5,-0.5 21.5,-0.5 32.5,-0.5C 32.6655,3.51383 32.4988,7.51383 32,11.5C 27.2856,13.5512 23.1189,16.3845 19.5,20C 17.8333,20.6667 16.1667,20.6667 14.5,20C 9.44537,17.1428 4.44537,14.3095 -0.5,11.5C -0.5,7.5 -0.5,3.5 -0.5,-0.5 Z"/></g>
<g><path style="opacity:1" fill="#fbfcfc" d="M 32.5,-0.5 C 33.8333,-0.5 35.1667,-0.5 36.5,-0.5C 36.3347,3.18174 36.5014,6.84841 37,10.5C 42.7962,13.6494 48.9629,14.8161 55.5,14C 61.3391,10.1073 67.6725,7.27394 74.5,5.5C 75.6942,3.48436 75.6942,1.48436 74.5,-0.5C 76.1667,-0.5 77.8333,-0.5 79.5,-0.5C 88.1667,8.83333 96.8333,8.83333 105.5,-0.5C 107.167,-0.5 108.833,-0.5 110.5,-0.5C 120.063,4.81113 130.397,7.81113 141.5,8.5C 142.167,5.5 142.833,2.5 143.5,-0.5C 145.167,-0.5 146.833,-0.5 148.5,-0.5C 146.686,3.27932 145.686,7.27932 145.5,11.5C 150.931,11.7455 156.265,12.2455 161.5,13C 168.617,9.02847 175.284,4.52847 181.5,-0.5C 186.833,-0.5 192.167,-0.5 197.5,-0.5C 200.218,3.22007 203.552,6.22007 207.5,8.5C 213.635,6.26722 219.302,3.26722 224.5,-0.5C 237.833,-0.5 251.167,-0.5 264.5,-0.5C 259.718,3.71043 255.885,8.71043 253,14.5C 252.506,21.2284 253.006,27.8951 254.5,34.5C 257.881,36.6935 261.547,38.0268 265.5,38.5C 271.675,37.4979 277.509,35.4979 283,32.5C 285.998,25.0046 288.498,17.338 290.5,9.5C 290.291,8.00551 289.624,6.83884 288.5,6C 281.761,3.72554 275.095,1.55888 268.5,-0.5C 278.5,-0.5 288.5,-0.5 298.5,-0.5C 297.334,1.16602 297.334,2.83268 298.5,4.5C 306.34,7.45919 314.34,9.79253 322.5,11.5C 327.343,10.4158 332.01,8.74911 336.5,6.5C 337.714,4.14135 337.714,1.80801 336.5,-0.5C 338.167,-0.5 339.833,-0.5 341.5,-0.5C 341.104,2.04443 341.771,4.2111 343.5,6C 347.417,7.47272 351.417,8.63939 355.5,9.5C 361.637,6.93282 367.304,3.59949 372.5,-0.5C 377.167,-0.5 381.833,-0.5 386.5,-0.5C 391.647,3.80296 396.98,7.96963 402.5,12C 409.374,11.9505 416.041,10.6171 422.5,8C 423.804,7.19601 424.471,6.02935 424.5,4.5C 423.954,2.86529 423.62,1.19863 423.5,-0.5C 424.833,-0.5 426.167,-0.5 427.5,-0.5C 427.22,2.27237 427.887,4.77237 429.5,7C 439.934,12.2661 447.601,9.76613 452.5,-0.5C 453.833,-0.5 455.167,-0.5 456.5,-0.5C 456.286,1.14387 456.62,2.64387 457.5,4C 462.959,4.24404 468.292,5.07738 473.5,6.5C 475.634,6.48472 477.634,5.98472 479.5,5C 481.396,2.93204 483.396,1.0987 485.5,-0.5C 489.833,-0.5 494.167,-0.5 498.5,-0.5C 498.611,0.117425 498.944,0.617425 499.5,1C 504.731,0.5147 509.065,2.18137 512.5,6C 515.167,6.66667 517.833,6.66667 520.5,6C 522.706,3.9633 524.706,1.79663 526.5,-0.5C 529.167,-0.5 531.833,-0.5 534.5,-0.5C 529.565,3.25839 524.732,7.25839 520,11.5C 517.961,21.0825 517.295,30.7492 518,40.5C 523.053,44.3951 528.219,48.0618 533.5,51.5C 536.946,50.6107 539.946,48.944 542.5,46.5C 546.462,35.5996 550.795,24.9329 555.5,14.5C 555.333,13.8333 555.167,13.1667 555,12.5C 549.972,8.30111 545.139,3.96778 540.5,-0.5C 543.167,-0.5 545.833,-0.5 548.5,-0.5C 551.641,3.98402 555.641,7.31735 560.5,9.5C 564.213,9.07762 567.88,8.41095 571.5,7.5C 572.393,4.91585 572.726,2.24919 572.5,-0.5C 574.167,-0.5 575.833,-0.5 577.5,-0.5C 576.935,8.07746 580.935,11.2441 589.5,9C 594.674,5.97026 599.674,2.80359 604.5,-0.5C 607.833,-0.5 611.167,-0.5 614.5,-0.5C 620.301,4.23985 626.634,8.23985 633.5,11.5C 639.143,9.89649 644.81,8.39649 650.5,7C 651.355,4.56438 652.021,2.06438 652.5,-0.5C 653.833,-0.5 655.167,-0.5 656.5,-0.5C 655.532,2.44531 655.366,5.44531 656,8.5C 661.5,12.6667 667,16.8333 672.5,21C 673.5,21.6667 674.5,21.6667 675.5,21C 681.568,18.4931 687.568,15.9931 693.5,13.5C 692.499,8.82913 691.499,4.16247 690.5,-0.5C 692.167,-0.5 693.833,-0.5 695.5,-0.5C 695.42,2.78139 696.087,5.78139 697.5,8.5C 697.5,11.1667 697.5,13.8333 697.5,16.5C 692.532,18.313 687.532,20.1463 682.5,22C 679.898,22.8834 677.731,24.3834 676,26.5C 674.536,35.1198 674.202,43.7865 675,52.5C 677.739,55.1176 680.573,57.6176 683.5,60C 685.833,60.6667 688.167,60.6667 690.5,60C 692.717,58.2765 695.05,56.7765 697.5,55.5C 697.5,93.1667 697.5,130.833 697.5,168.5C 689.183,170.448 680.85,172.615 672.5,175C 670.014,178.137 668.181,181.637 667,185.5C 666.667,181.167 666.333,176.833 666,172.5C 663.307,169.143 659.807,167.809 655.5,168.5C 649.5,169 643.5,169.5 637.5,170C 636.515,179.417 636.182,188.917 636.5,198.5C 643.149,199.38 649.816,199.546 656.5,199C 661.071,197.427 663.904,194.26 665,189.5C 665.333,193.833 665.667,198.167 666,202.5C 674.235,209.034 682.735,215.2 691.5,221C 694.759,221.247 696.759,219.747 697.5,216.5C 697.5,272.167 697.5,327.833 697.5,383.5C 644.5,383.5 591.5,383.5 538.5,383.5C 538.065,376.615 539.065,369.949 541.5,363.5C 541.167,362.833 540.833,362.167 540.5,361.5C 534.084,359.362 527.751,357.028 521.5,354.5C 516.823,356.33 512.49,358.83 508.5,362C 504.57,362.041 500.737,362.207 497,362.5C 498.015,369.565 499.515,376.565 501.5,383.5C 499.833,383.5 498.167,383.5 496.5,383.5C 495.42,375.368 493.587,367.368 491,359.5C 490.06,356.558 488.06,355.225 485,355.5C 475.384,357.644 466.718,361.644 459,367.5C 458.057,372.827 457.223,378.16 456.5,383.5C 454.5,383.5 452.5,383.5 450.5,383.5C 451.844,377.139 453.011,370.806 454,364.5C 449.14,359.64 444.306,354.806 439.5,350C 432.743,350.027 426.409,351.86 420.5,355.5C 419.343,358.784 419.176,362.118 420,365.5C 422.13,371.355 423.63,377.355 424.5,383.5C 332.833,383.5 241.167,383.5 149.5,383.5C 150.827,376.888 151.327,370.222 151,363.5C 150.097,362.299 148.931,361.465 147.5,361C 139.897,359.377 132.231,358.71 124.5,359C 121.695,360.479 119.195,362.312 117,364.5C 117.538,370.788 118.038,377.121 118.5,383.5C 90.8333,383.5 63.1667,383.5 35.5,383.5C 35.859,378.061 36.859,372.727 38.5,367.5C 38.3918,366.558 38.0585,365.725 37.5,365C 29.1667,364.333 20.8333,364.333 12.5,365C 8.17122,367.164 3.83789,369.331 -0.5,371.5C -0.5,300.167 -0.5,228.833 -0.5,157.5C 5.38279,160.542 10.8828,164.208 16,168.5C 23.3061,166.605 30.4727,164.272 37.5,161.5C 37.1578,150.774 35.6578,140.108 33,129.5C 25.117,126.562 17.117,123.896 9,121.5C 7.28937,121.439 5.95603,122.106 5,123.5C 3.20642,131.617 1.37309,139.617 -0.5,147.5C -0.5,125.833 -0.5,104.167 -0.5,82.5C 2.64192,85.4686 5.97526,88.302 9.5,91C 11.5,91.6667 13.5,91.6667 15.5,91C 20.4649,86.5678 24.7983,81.7345 28.5,76.5C 25.3724,69.2844 22.5391,61.9511 20,54.5C 17.3981,50.7882 13.8981,49.6215 9.5,51C 5.36013,53.8209 2.02679,57.3209 -0.5,61.5C -0.5,56.1667 -0.5,50.8333 -0.5,45.5C 3.74561,47.203 7.57895,46.5363 11,43.5C 11.8067,38.1795 12.9734,33.0129 14.5,28C 14.0097,26.018 13.0097,24.3513 11.5,23C 7.3767,21.0392 3.3767,18.8725 -0.5,16.5C -0.5,14.8333 -0.5,13.1667 -0.5,11.5C 4.44537,14.3095 9.44537,17.1428 14.5,20C 16.1667,20.6667 17.8333,20.6667 19.5,20C 23.1189,16.3845 27.2856,13.5512 32,11.5C 32.4988,7.51383 32.6655,3.51383 32.5,-0.5 Z"/></g>
<g><path style="opacity:1" fill="#e3e9ed" d="M 36.5,-0.5 C 49.1667,-0.5 61.8333,-0.5 74.5,-0.5C 75.6942,1.48436 75.6942,3.48436 74.5,5.5C 67.6725,7.27394 61.3391,10.1073 55.5,14C 48.9629,14.8161 42.7962,13.6494 37,10.5C 36.5014,6.84841 36.3347,3.18174 36.5,-0.5 Z"/></g>
<g><path style="opacity:1" fill="#e7ebef" d="M 79.5,-0.5 C 88.1667,-0.5 96.8333,-0.5 105.5,-0.5C 96.8333,8.83333 88.1667,8.83333 79.5,-0.5 Z"/></g>
<g><path style="opacity:1" fill="#e7ecef" d="M 110.5,-0.5 C 121.5,-0.5 132.5,-0.5 143.5,-0.5C 142.833,2.5 142.167,5.5 141.5,8.5C 130.397,7.81113 120.063,4.81113 110.5,-0.5 Z"/></g>
<g><path style="opacity:1" fill="#e9edf1" d="M 148.5,-0.5 C 159.5,-0.5 170.5,-0.5 181.5,-0.5C 175.284,4.52847 168.617,9.02847 161.5,13C 156.265,12.2455 150.931,11.7455 145.5,11.5C 145.686,7.27932 146.686,3.27932 148.5,-0.5 Z"/></g>
<g><path style="opacity:1" fill="#ebeff2" d="M 197.5,-0.5 C 206.5,-0.5 215.5,-0.5 224.5,-0.5C 219.302,3.26722 213.635,6.26722 207.5,8.5C 203.552,6.22007 200.218,3.22007 197.5,-0.5 Z"/></g>
<g><path style="opacity:1" fill="#ecf1f4" d="M 298.5,-0.5 C 311.167,-0.5 323.833,-0.5 336.5,-0.5C 337.714,1.80801 337.714,4.14135 336.5,6.5C 332.01,8.74911 327.343,10.4158 322.5,11.5C 314.34,9.79253 306.34,7.45919 298.5,4.5C 297.334,2.83268 297.334,1.16602 298.5,-0.5 Z"/></g>
<g><path style="opacity:1" fill="#ebf1f3" d="M 341.5,-0.5 C 351.833,-0.5 362.167,-0.5 372.5,-0.5C 367.304,3.59949 361.637,6.93282 355.5,9.5C 351.417,8.63939 347.417,7.47272 343.5,6C 341.771,4.2111 341.104,2.04443 341.5,-0.5 Z"/></g>
<g><path style="opacity:1" fill="#e6ecf1" d="M 427.5,-0.5 C 435.833,-0.5 444.167,-0.5 452.5,-0.5C 447.601,9.76613 439.934,12.2661 429.5,7C 427.887,4.77237 427.22,2.27237 427.5,-0.5 Z"/></g>
<g><path style="opacity:1" fill="#e3eaee" d="M 456.5,-0.5 C 466.167,-0.5 475.833,-0.5 485.5,-0.5C 483.396,1.0987 481.396,2.93204 479.5,5C 477.634,5.98472 475.634,6.48472 473.5,6.5C 468.292,5.07738 462.959,4.24404 457.5,4C 456.62,2.64387 456.286,1.14387 456.5,-0.5 Z"/></g>
<g><path style="opacity:1" fill="#dee6ec" d="M 498.5,-0.5 C 507.833,-0.5 517.167,-0.5 526.5,-0.5C 524.706,1.79663 522.706,3.9633 520.5,6C 517.833,6.66667 515.167,6.66667 512.5,6C 509.065,2.18137 504.731,0.5147 499.5,1C 498.944,0.617425 498.611,0.117425 498.5,-0.5 Z"/></g>
<g><path style="opacity:1" fill="#d6dfe7" d="M 548.5,-0.5 C 556.5,-0.5 564.5,-0.5 572.5,-0.5C 572.726,2.24919 572.393,4.91585 571.5,7.5C 567.88,8.41095 564.213,9.07762 560.5,9.5C 555.641,7.31735 551.641,3.98402 548.5,-0.5 Z"/></g>
<g><path style="opacity:1" fill="#d1dbe3" d="M 577.5,-0.5 C 586.5,-0.5 595.5,-0.5 604.5,-0.5C 599.674,2.80359 594.674,5.97026 589.5,9C 580.935,11.2441 576.935,8.07746 577.5,-0.5 Z"/></g>
<g><path style="opacity:1" fill="#c6d3dc" d="M 614.5,-0.5 C 627.167,-0.5 639.833,-0.5 652.5,-0.5C 652.021,2.06438 651.355,4.56438 650.5,7C 644.81,8.39649 639.143,9.89649 633.5,11.5C 626.634,8.23985 620.301,4.23985 614.5,-0.5 Z"/></g>
<g><path style="opacity:1" fill="#bfcbd7" d="M 656.5,-0.5 C 667.833,-0.5 679.167,-0.5 690.5,-0.5C 691.499,4.16247 692.499,8.82913 693.5,13.5C 687.568,15.9931 681.568,18.4931 675.5,21C 674.5,21.6667 673.5,21.6667 672.5,21C 667,16.8333 661.5,12.6667 656,8.5C 655.366,5.44531 655.532,2.44531 656.5,-0.5 Z"/></g>
<g><path style="opacity:1" fill="#eaeef1" d="M 187.5,0.5 C 189.199,0.339822 190.866,0.506489 192.5,1C 196.279,4.77924 200.113,8.61257 204,12.5C 204.667,20.1667 204.667,27.8333 204,35.5C 197.969,38.1738 191.969,40.8405 186,43.5C 177.728,35.8806 170.895,27.0472 165.5,17C 165.759,15.7387 166.426,14.7387 167.5,14C 175.097,10.7147 181.764,6.21466 187.5,0.5 Z"/></g>
<g><path style="opacity:1" fill="#edf1f4" d="M 264.5,-0.5 C 265.833,-0.5 267.167,-0.5 268.5,-0.5C 275.095,1.55888 281.761,3.72554 288.5,6C 289.624,6.83884 290.291,8.00551 290.5,9.5C 288.498,17.338 285.998,25.0046 283,32.5C 277.509,35.4979 271.675,37.4979 265.5,38.5C 261.547,38.0268 257.881,36.6935 254.5,34.5C 253.006,27.8951 252.506,21.2284 253,14.5C 255.885,8.71043 259.718,3.71043 264.5,-0.5 Z"/></g>
<g><path style="opacity:1" fill="#e9eef3" d="M 386.5,-0.5 C 398.833,-0.5 411.167,-0.5 423.5,-0.5C 423.62,1.19863 423.954,2.86529 424.5,4.5C 424.471,6.02935 423.804,7.19601 422.5,8C 416.041,10.6171 409.374,11.9505 402.5,12C 396.98,7.96963 391.647,3.80296 386.5,-0.5 Z"/></g>
<g><path style="opacity:1" fill="#dbe3ea" d="M 534.5,-0.5 C 536.5,-0.5 538.5,-0.5 540.5,-0.5C 545.139,3.96778 549.972,8.30111 555,12.5C 555.167,13.1667 555.333,13.8333 555.5,14.5C 550.795,24.9329 546.462,35.5996 542.5,46.5C 539.946,48.944 536.946,50.6107 533.5,51.5C 528.219,48.0618 523.053,44.3951 518,40.5C 517.295,30.7492 517.961,21.0825 520,11.5C 524.732,7.25839 529.565,3.25839 534.5,-0.5 Z"/></g>
<g><path style="opacity:1" fill="#ecf0f3" d="M 228.5,2.5 C 235.785,4.28163 242.285,7.61497 248,12.5C 248.667,18.8333 248.667,25.1667 248,31.5C 247.5,32.5 247,33.5 246.5,34.5C 240.156,36.7551 233.99,39.4217 228,42.5C 222.402,39.9639 216.568,37.7972 210.5,36C 209.353,28.5799 209.187,21.0799 210,13.5C 216.313,9.93311 222.479,6.26644 228.5,2.5 Z"/></g>
<g><path style="opacity:1" fill="#eaf0f3" d="M 388.5,44.5 C 383.537,43.746 378.537,43.4126 373.5,43.5C 370.823,41.5399 367.823,40.0399 364.5,39C 363.458,37.082 362.292,35.2487 361,33.5C 360.583,27.9922 360.083,22.4922 359.5,17C 359.833,15.5 360.167,14 360.5,12.5C 366.997,9.08589 373.33,5.41923 379.5,1.5C 385.994,6.24763 392.661,10.7476 399.5,15C 400.126,15.7504 400.626,16.5838 401,17.5C 400.119,24.0588 399.452,30.7254 399,37.5C 396.439,41.7497 392.606,43.583 387.5,43C 388.056,43.3826 388.389,43.8826 388.5,44.5 Z"/></g>
<g><path style="opacity:1" fill="#bbc8d3" d="M 695.5,-0.5 C 696.167,-0.5 696.833,-0.5 697.5,-0.5C 697.5,2.5 697.5,5.5 697.5,8.5C 696.087,5.78139 695.42,2.78139 695.5,-0.5 Z"/></g>
<g><path style="opacity:1" fill="#e7ebef" d="M 105.5,5.5 C 109.56,5.48465 113.56,5.98465 117.5,7C 124.28,9.94394 131.28,12.1106 138.5,13.5C 137.769,22.554 136.602,31.554 135,40.5C 131.127,44.1943 126.627,47.0276 121.5,49C 117.071,50.3533 112.738,51.8533 108.5,53.5C 101.129,50.7799 97.1286,45.4466 96.5,37.5C 97.3332,28.5031 98.1665,19.5031 99,10.5C 100.965,8.44965 103.132,6.78299 105.5,5.5 Z"/></g>
<g><path style="opacity:1" fill="#ccd7df" d="M 609.5,2.5 C 614.952,6.73364 620.952,10.2336 627.5,13C 628.99,13.7455 629.99,14.9121 630.5,16.5C 628.836,25.4121 627.336,34.4121 626,43.5C 624.52,46.6626 622.02,48.496 618.5,49C 615.5,49.6667 612.5,49.6667 609.5,49C 604.315,46.1639 599.149,43.3306 594,40.5C 592.265,31.5506 591.265,22.5506 591,13.5C 597.28,9.94649 603.447,6.27982 609.5,2.5 Z"/></g>
<g><path style="opacity:1" fill="#e5eaee" d="M 77.5,8.5 C 82.9043,8.41435 88.071,9.41435 93,11.5C 93.8321,21.1839 93.6655,30.8505 92.5,40.5C 87.6587,42.6522 82.6587,44.4856 77.5,46C 70.0267,49.4347 64.5267,47.6014 61,40.5C 58.0589,33.4067 56.3923,26.0734 56,18.5C 63.2942,15.2451 70.4609,11.9118 77.5,8.5 Z"/></g>
<g><path style="opacity:1" fill="#e0e7ed" d="M 489.5,1.5 C 497.549,4.13372 505.382,7.46705 513,11.5C 513.683,20.8658 513.349,30.1991 512,39.5C 509.595,40.2744 507.095,40.7744 504.5,41C 500.825,43.859 496.825,46.0257 492.5,47.5C 489.699,47.5359 487.865,46.2026 487,43.5C 484.775,32.9148 482.275,22.4148 479.5,12C 479.667,11.1667 479.833,10.3333 480,9.5C 483.516,7.17158 486.682,4.50491 489.5,1.5 Z"/></g>
<g><path style="opacity:1" fill="#ecf1f4" d="M 319.5,45.5 C 315.816,46.4959 312.149,47.8292 308.5,49.5C 302.181,44.6965 295.681,40.0298 289,35.5C 288.333,33.1667 288.333,30.8333 289,28.5C 290.998,22.5287 292.998,16.5287 295,10.5C 295.893,9.91858 296.893,9.58524 298,9.5C 305.66,11.2252 313.16,13.2252 320.5,15.5C 318.515,25.3953 317.182,35.3953 316.5,45.5C 317.5,45.5 318.5,45.5 319.5,45.5 Z"/></g>
<g><path style="opacity:1" fill="#e4ebf0" d="M 452.5,8.5 C 458.184,8.74254 463.851,9.24254 469.5,10C 471.421,10.3603 473.088,11.1936 474.5,12.5C 476.508,20.8658 478.675,29.1991 481,37.5C 481.808,39.5787 481.641,41.5787 480.5,43.5C 472.441,45.2079 464.274,46.8745 456,48.5C 450.032,47.8654 446.699,44.5321 446,38.5C 445.872,31.2312 445.039,24.0645 443.5,17C 443.354,14.9658 444.02,13.2991 445.5,12C 447.925,10.7874 450.259,9.62073 452.5,8.5 Z"/></g>
<g><path style="opacity:1" fill="#ebf1f3" d="M 342.5,50.5 C 335.787,46.3794 328.454,44.7128 320.5,45.5C 322.638,36.3047 323.805,26.9713 324,17.5C 331.481,11.013 339.981,9.17972 349.5,12C 351.939,12.7739 353.773,14.2739 355,16.5C 355.677,23.5518 356.343,30.5518 357,37.5C 352.459,42.1827 347.625,46.516 342.5,50.5 Z"/></g>
<g><path style="opacity:1" fill="#e8eef2" d="M 423.5,11.5 C 427.897,11.4246 432.23,11.9246 436.5,13C 437.333,13.8333 438.167,14.6667 439,15.5C 440.145,23.6218 440.978,31.7885 441.5,40C 441.561,42.2605 440.894,44.2605 439.5,46C 432.2,48.933 424.867,51.7663 417.5,54.5C 412.581,51.0875 408.081,47.0875 404,42.5C 403.607,35.4799 403.941,28.4799 405,21.5C 405.273,19.6711 406.107,18.1711 407.5,17C 413.015,15.3458 418.348,13.5125 423.5,11.5 Z"/></g>
<g><path style="opacity:1" fill="#d5dee6" d="M 568.5,11.5 C 574.803,10.909 580.637,12.2423 586,15.5C 586.878,23.7954 588.378,31.962 590.5,40C 590.01,42.5028 588.677,44.5028 586.5,46C 582.342,49.1612 577.842,51.6612 573,53.5C 565.949,51.2788 558.782,49.4454 551.5,48C 550.101,46.9384 549.101,45.605 548.5,44C 551.787,34.2524 555.787,24.7524 560.5,15.5C 563.239,14.1634 565.906,12.83 568.5,11.5 Z"/></g>
<g><path style="opacity:1" fill="#c4d0da" d="M 648.5,11.5 C 650.655,11.372 652.655,11.872 654.5,13C 660,17.1667 665.5,21.3333 671,25.5C 671.482,34.2314 670.982,42.8981 669.5,51.5C 662.599,51.9815 655.932,53.3148 649.5,55.5C 642.848,53.4237 636.682,50.4237 631,46.5C 631.829,37.1944 632.829,27.8611 634,18.5C 634.833,17 636,15.8333 637.5,15C 641.475,14.3859 645.141,13.2192 648.5,11.5 Z"/></g>
<g><path style="opacity:1" fill="#e4e9ec" d="M 32.5,15.5 C 34.5273,15.3379 36.5273,15.5045 38.5,16C 42.7367,16.9431 46.7367,18.4431 50.5,20.5C 50.8076,21.3081 51.3076,21.9747 52,22.5C 53.0625,29.2095 54.2292,35.8762 55.5,42.5C 53.1432,42.3367 50.8098,42.5034 48.5,43C 40.1987,45.6913 31.8654,48.1913 23.5,50.5C 18.5607,49.5577 16.2274,46.5577 16.5,41.5C 15.7038,33.2303 18.3705,26.397 24.5,21C 27.6207,19.6937 30.2874,17.8603 32.5,15.5 Z"/></g>
<g><path style="opacity:1" fill="#e3e7ec" d="M -0.5,16.5 C 3.3767,18.8725 7.3767,21.0392 11.5,23C 13.0097,24.3513 14.0097,26.018 14.5,28C 12.9734,33.0129 11.8067,38.1795 11,43.5C 7.57895,46.5363 3.74561,47.203 -0.5,45.5C -0.5,35.8333 -0.5,26.1667 -0.5,16.5 Z"/></g>
<g><path style="opacity:1" fill="#e9edf1" d="M 143.5,15.5 C 149.404,15.6898 155.071,16.8565 160.5,19C 165.898,27.7336 172.065,35.9003 179,43.5C 179.49,44.7932 179.657,46.1266 179.5,47.5C 171.314,49.8995 163.314,52.7328 155.5,56C 153.5,56.6667 151.5,56.6667 149.5,56C 146.667,52.5 143.5,49.3333 140,46.5C 140.653,36.0969 141.82,25.7635 143.5,15.5 Z"/></g>
<g><path style="opacity:1" fill="#bdcad6" d="M 697.5,16.5 C 697.5,29.5 697.5,42.5 697.5,55.5C 695.05,56.7765 692.717,58.2765 690.5,60C 688.167,60.6667 685.833,60.6667 683.5,60C 680.573,57.6176 677.739,55.1176 675,52.5C 674.202,43.7865 674.536,35.1198 676,26.5C 677.731,24.3834 679.898,22.8834 682.5,22C 687.532,20.1463 692.532,18.313 697.5,16.5 Z"/></g>
<g><path style="opacity:1" fill="#ecf0f3" d="M 268.5,69.5 C 261.264,73.7271 256.264,79.7271 253.5,87.5C 252.486,86.2353 250.986,85.5687 249,85.5C 243.523,86.2481 238.023,86.5814 232.5,86.5C 232.227,77.1354 231.56,67.8021 230.5,58.5C 230.667,55.1667 230.833,51.8333 231,48.5C 231.785,46.714 232.951,45.214 234.5,44C 239.55,42.1344 244.55,40.3011 249.5,38.5C 253.589,39.7092 257.589,41.2092 261.5,43C 262.701,43.9025 263.535,45.0692 264,46.5C 265.161,52.4527 265.994,58.4527 266.5,64.5C 266.556,66.6397 267.223,68.3064 268.5,69.5 Z"/></g>
<g><path style="opacity:1" fill="#edf0f3" d="M 305.5,51.5 C 302.562,53.934 299.729,56.6007 297,59.5C 294.713,62.0722 293.547,65.0722 293.5,68.5C 286.108,67.381 278.774,67.381 271.5,68.5C 270.525,60.8613 269.192,53.3613 267.5,46C 267.585,44.8926 267.919,43.8926 268.5,43C 273.333,41.1667 278.167,39.3333 283,37.5C 290.04,41.2051 296.54,45.7051 302.5,51C 303.448,51.4828 304.448,51.6495 305.5,51.5 Z"/></g>
<g><path style="opacity:1" fill="#edf1f3" d="M 205.5,39.5 C 210.706,41.598 216.039,43.4313 221.5,45C 222.667,46.1667 223.833,47.3333 225,48.5C 225.884,58.9959 226.718,69.4959 227.5,80C 227.47,82.4241 227.137,84.7574 226.5,87C 220.428,87.733 214.428,88.3997 208.5,89C 207.5,88 206.5,87 205.5,86C 202.274,84.6284 198.941,83.4618 195.5,82.5C 193.22,71.9904 190.887,61.4904 188.5,51C 188.833,50.1667 189.167,49.3333 189.5,48.5C 194.896,45.4725 200.229,42.4725 205.5,39.5 Z"/></g>
<g><path style="opacity:1" fill="#e9eded" d="M 414.5,64.5 C 412.194,64.9926 409.861,65.3259 407.5,65.5C 407.5,65.1667 407.5,64.8333 407.5,64.5C 407.741,62.1016 407.074,60.1016 405.5,58.5C 402.494,53.4939 398.494,49.4939 393.5,46.5C 395.816,45.6404 398.149,45.1404 400.5,45C 404.333,50.1667 408.833,54.6667 414,58.5C 414.495,60.4727 414.662,62.4727 414.5,64.5 Z"/></g>
<g><path style="opacity:1" fill="#bda853" d="M 373.5,43.5 C 378.537,43.4126 383.537,43.746 388.5,44.5C 390.05,45.4408 391.716,46.1075 393.5,46.5C 398.494,49.4939 402.494,53.4939 405.5,58.5C 405.259,60.8984 405.926,62.8984 407.5,64.5C 407.5,64.8333 407.5,65.1667 407.5,65.5C 413.632,65.7669 419.966,65.7669 426.5,65.5C 436.17,67.8367 442.17,73.8367 444.5,83.5C 444.5,84.8333 444.5,86.1667 444.5,87.5C 444.286,89.1439 444.62,90.6439 445.5,92C 463.135,96.7484 470.635,108.248 468,126.5C 466.876,131.585 465.043,136.418 462.5,141C 473.966,149.555 476.966,160.389 471.5,173.5C 472.256,176.805 474.09,178.138 477,177.5C 482.238,162.698 487.738,148.032 493.5,133.5C 494.363,131.579 495.029,129.579 495.5,127.5C 499.916,115.587 504.916,103.92 510.5,92.5C 511.752,90.9991 512.752,89.3325 513.5,87.5C 517.972,81.3591 523.639,76.6925 530.5,73.5C 531.833,73.1667 533.167,72.8333 534.5,72.5C 538.637,72.1463 542.637,72.6463 546.5,74C 552.905,77.5724 558.572,82.0724 563.5,87.5C 563.733,89.0618 564.4,90.3951 565.5,91.5C 570.782,99.9939 575.115,108.994 578.5,118.5C 578.66,120.153 579.326,121.486 580.5,122.5C 584.772,136.984 589.439,151.317 594.5,165.5C 597.159,173.489 599.826,181.489 602.5,189.5C 611.564,166.641 620.23,143.641 628.5,120.5C 629.73,118.703 630.396,116.703 630.5,114.5C 631.833,113.5 633.167,112.5 634.5,111.5C 636.39,111.297 637.89,111.963 639,113.5C 639.602,116.221 639.435,118.887 638.5,121.5C 633.659,134.015 628.992,146.681 624.5,159.5C 618.367,174.052 612.7,188.886 607.5,204C 612.274,217.488 616.94,230.988 621.5,244.5C 622.024,246.306 622.691,247.972 623.5,249.5C 626.598,260.135 630.265,270.468 634.5,280.5C 635.074,284.325 636.241,287.991 638,291.5C 640.176,298.043 638.009,300.876 631.5,300C 629.872,297.583 628.539,295.083 627.5,292.5C 626.232,287.03 624.565,281.696 622.5,276.5C 618.398,262.855 613.731,249.522 608.5,236.5C 608.5,236.167 608.5,235.833 608.5,235.5C 606.506,229.851 604.506,224.185 602.5,218.5C 599.713,223.196 597.713,228.196 596.5,233.5C 594.305,238.751 592.305,244.084 590.5,249.5C 585.987,259.88 581.987,270.547 578.5,281.5C 575.866,288.385 573.2,295.385 570.5,302.5C 568.597,305.979 566.93,309.646 565.5,313.5C 564.326,314.514 563.66,315.847 563.5,317.5C 559.554,322.457 555.554,327.457 551.5,332.5C 541.898,340.863 531.898,341.53 521.5,334.5C 519.833,332.5 518.167,330.5 516.5,328.5C 514.467,325.477 512.467,322.477 510.5,319.5C 505.82,307.783 501.153,296.117 496.5,284.5C 493.969,276.741 491.135,269.075 488,261.5C 487.333,260.167 486.667,260.167 486,261.5C 485.041,263.953 483.874,266.286 482.5,268.5C 481.5,268.833 480.833,269.5 480.5,270.5C 473.816,275.002 466.483,277.335 458.5,277.5C 458.5,280.167 458.5,282.833 458.5,285.5C 453.765,309.112 439.932,317.446 417,310.5C 413.45,316.418 409.283,321.918 404.5,327C 394.737,333.235 384.071,335.235 372.5,333C 368.281,331.891 364.281,330.225 360.5,328C 356.158,325.126 355.491,321.626 358.5,317.5C 360.074,316.369 361.741,316.202 363.5,317C 365.364,318.431 367.364,319.597 369.5,320.5C 371.019,321.41 372.685,322.243 374.5,323C 380.016,323.817 385.35,323.651 390.5,322.5C 401.47,317.92 406.97,309.587 407,297.5C 409.153,295.556 411.653,295.056 414.5,296C 423.377,303.729 432.711,304.395 442.5,298C 447.03,292.35 448.696,285.85 447.5,278.5C 447.741,276.102 447.074,274.102 445.5,272.5C 444.167,270.167 444.167,267.833 445.5,265.5C 446.742,264.957 448.075,264.623 449.5,264.5C 469.262,270.872 478.762,263.872 478,243.5C 474.745,235.911 469.245,230.744 461.5,228C 459.848,226.53 458.848,224.697 458.5,222.5C 461.868,218.296 465.535,214.296 469.5,210.5C 470.737,209.035 471.737,207.368 472.5,205.5C 474.135,199.983 473.635,194.65 471,189.5C 466.915,185.076 462.582,181.076 458,177.5C 457.82,173.958 459.153,170.958 462,168.5C 462.483,167.552 462.649,166.552 462.5,165.5C 464.751,158.977 462.751,153.977 456.5,150.5C 452.343,149.508 449.677,147.008 448.5,143C 451.811,138.182 454.478,133.016 456.5,127.5C 457.477,124.713 457.81,121.713 457.5,118.5C 457.963,112.483 455.629,108.15 450.5,105.5C 449.713,103.896 448.38,103.229 446.5,103.5C 442.76,103.074 438.926,102.741 435,102.5C 434.042,100.801 433.542,98.9674 433.5,97C 434.406,92.8527 434.573,88.686 434,84.5C 433.722,83.5842 433.222,82.9175 432.5,82.5C 430.979,78.8848 428.313,76.3848 424.5,75C 420.973,74.1925 417.64,74.3592 414.5,75.5C 411.533,75.9886 408.867,77.1552 406.5,79C 403.044,80.123 400.21,79.2896 398,76.5C 398.308,59.2058 389.808,52.0392 372.5,55C 360.207,59.3895 354.874,68.2229 356.5,81.5C 356.08,147.998 356.08,214.665 356.5,281.5C 356.666,289.84 356.5,298.173 356,306.5C 352.796,321.203 343.963,330.536 329.5,334.5C 321.021,334.95 312.688,334.283 304.5,332.5C 295.333,328.667 289.333,322 286.5,312.5C 282.081,313.542 277.748,314.875 273.5,316.5C 267.678,316.79 262.012,316.123 256.5,314.5C 246.501,308.699 241.168,299.866 240.5,288C 240.645,284.348 241.145,280.848 242,277.5C 229.759,274.09 222.592,266.09 220.5,253.5C 221.206,247.325 221.206,241.325 220.5,235.5C 219.046,230.592 217.046,225.926 214.5,221.5C 204.438,248.851 194.271,276.185 184,303.5C 179.122,315.372 171.622,325.206 161.5,333C 151.6,339.159 141.934,338.825 132.5,332C 122.913,322.997 116.246,312.164 112.5,299.5C 111.068,293.859 109.068,288.525 106.5,283.5C 106.405,281.214 105.738,279.214 104.5,277.5C 98.1559,258.8 91.8226,240.134 85.5,221.5C 85.2942,219.451 84.4609,219.117 83,220.5C 82.0594,223.154 81.2261,225.821 80.5,228.5C 79.193,231.725 78.193,235.059 77.5,238.5C 75.6001,241.518 74.2667,244.851 73.5,248.5C 68.097,263.876 62.597,279.21 57,294.5C 52.8414,297.505 50.008,296.505 48.5,291.5C 58.7568,262.306 69.0901,233.139 79.5,204C 74.0644,187.86 68.7311,171.693 63.5,155.5C 60.6023,146.307 57.6023,137.14 54.5,128C 54.901,124.438 56.901,122.938 60.5,123.5C 61.4584,123.953 62.2917,124.619 63,125.5C 63.6218,128.739 64.7884,131.739 66.5,134.5C 67.928,140.784 69.928,146.784 72.5,152.5C 76.0353,163.106 79.3686,173.772 82.5,184.5C 81.7564,187.95 83.0897,189.616 86.5,189.5C 86.3505,188.448 86.5172,187.448 87,186.5C 88.586,185.624 90.086,184.624 91.5,183.5C 89.0406,180.624 88.8739,177.624 91,174.5C 91.7175,175.451 92.5509,175.617 93.5,175C 92.9186,174.107 92.5852,173.107 92.5,172C 93.6672,168.179 94.6672,164.346 95.5,160.5C 95.767,158.035 96.4336,155.701 97.5,153.5C 98.4584,153.047 99.2917,152.381 100,151.5C 100.696,148.522 101.196,145.522 101.5,142.5C 106.683,123.133 114.35,104.8 124.5,87.5C 128.583,82.0818 133.583,77.7485 139.5,74.5C 144.463,73.746 149.463,73.4126 154.5,73.5C 157.757,74.4617 160.757,75.9617 163.5,78C 168.44,82.4319 172.773,87.2653 176.5,92.5C 180.579,100.326 184.412,108.326 188,116.5C 196.73,141.521 205.563,166.521 214.5,191.5C 217.838,184.98 220.505,178.147 222.5,171C 221.144,169.433 220.477,167.6 220.5,165.5C 220.437,160.797 220.771,156.13 221.5,151.5C 222.128,148.91 223.295,146.577 225,144.5C 228.566,140.934 232.066,137.434 235.5,134C 229.684,119.125 233.684,107.625 247.5,99.5C 249.967,99.2451 251.967,98.2451 253.5,96.5C 253.5,93.5 253.5,90.5 253.5,87.5C 256.264,79.7271 261.264,73.7271 268.5,69.5C 269.609,69.4431 270.609,69.1098 271.5,68.5C 278.774,67.381 286.108,67.381 293.5,68.5C 293.547,65.0722 294.713,62.0722 297,59.5C 299.729,56.6007 302.562,53.934 305.5,51.5C 306.71,51.0679 307.71,50.4013 308.5,49.5C 312.149,47.8292 315.816,46.4959 319.5,45.5C 319.833,45.5 320.167,45.5 320.5,45.5C 328.454,44.7128 335.787,46.3794 342.5,50.5C 342.557,51.609 342.89,52.609 343.5,53.5C 344.038,58.9868 341.705,61.1534 336.5,60C 333.046,57.1027 329.046,55.9361 324.5,56.5C 319.686,55.7698 315.686,57.1031 312.5,60.5C 305.103,64.6192 301.27,70.9525 301,79.5C 300.623,80.9423 299.79,81.9423 298.5,82.5C 294.138,81.4988 289.805,80.1655 285.5,78.5C 284.036,77.8401 282.369,77.5068 280.5,77.5C 277.795,77.3161 275.462,77.9827 273.5,79.5C 269.522,81.4784 266.522,84.4784 264.5,88.5C 263.648,93.6641 263.648,98.9975 264.5,104.5C 264.167,105.167 263.833,105.833 263.5,106.5C 249.375,106.282 243.041,112.948 244.5,126.5C 244.369,127.239 244.536,127.906 245,128.5C 247.333,130.5 249.667,132.5 252,134.5C 252.92,137.308 252.087,139.475 249.5,141C 236.775,144.022 230.609,151.856 231,164.5C 231.785,166.286 232.951,167.786 234.5,169C 240.656,170.966 241.989,174.632 238.5,180C 231.921,182.411 227.588,186.911 225.5,193.5C 224.352,197.981 224.185,202.648 225,207.5C 225.278,208.416 225.778,209.082 226.5,209.5C 229.841,216.34 235.007,221.34 242,224.5C 242.667,226.167 242.667,227.833 242,229.5C 238.286,231.713 235.452,234.713 233.5,238.5C 232.207,239.842 231.374,241.509 231,243.5C 230.188,247.689 230.355,251.689 231.5,255.5C 235.153,264.493 241.82,268.66 251.5,268C 252.931,268.465 254.097,269.299 255,270.5C 255.596,273.686 255.096,276.686 253.5,279.5C 252.778,279.918 252.278,280.584 252,281.5C 251.186,286.02 251.353,290.354 252.5,294.5C 257.16,306.784 265.493,309.95 277.5,304C 280.167,301.333 282.833,298.667 285.5,296C 288.927,294.834 291.593,295.668 293.5,298.5C 293.335,301.518 293.502,304.518 294,307.5C 294.383,308.056 294.883,308.389 295.5,308.5C 297.689,314.691 301.689,319.358 307.5,322.5C 308.842,323.793 310.509,324.626 312.5,325C 317.352,325.815 322.019,325.648 326.5,324.5C 335.399,322.304 341.565,316.971 345,308.5C 347.078,249.16 346.912,189.827 344.5,130.5C 344.5,116.833 344.5,103.167 344.5,89.5C 344.5,87.5 344.5,85.5 344.5,83.5C 345.339,75.0998 347.173,66.7665 350,58.5C 354.492,52.8432 359.992,48.5099 366.5,45.5C 369.01,45.0733 371.343,44.4067 373.5,43.5 Z"/></g>
<g><path style="opacity:1" fill="#dee6ec" d="M 530.5,73.5 C 523.639,76.6925 517.972,81.3591 513.5,87.5C 506.773,86.9807 501.273,83.9807 497,78.5C 496.333,69.8333 496.333,61.1667 497,52.5C 501.735,46.5518 507.901,44.0518 515.5,45C 519.898,48.3943 524.565,51.3943 529.5,54C 531.059,55.9958 531.726,58.3291 531.5,61C 531.024,65.1602 530.691,69.3269 530.5,73.5 Z"/></g>
<g><path style="opacity:1" fill="#f3f5f8" d="M 88.5,47.5 C 95.3784,48.1826 100.212,51.8492 103,58.5C 103.667,66.8333 103.667,75.1667 103,83.5C 100.356,85.31 97.8557,87.31 95.5,89.5C 85.7111,86.5084 75.7111,84.3417 65.5,83C 63.6316,82.101 62.6316,80.601 62.5,78.5C 65.4102,70.7106 67.5769,62.7106 69,54.5C 75.3533,51.6608 81.8533,49.3275 88.5,47.5 Z"/></g>
<g><path style="opacity:1" fill="#e3eaef" d="M 480.5,48.5 C 485.55,48.2742 489.383,50.2742 492,54.5C 492.545,63.2896 491.878,71.9563 490,80.5C 488.581,81.4601 487.081,82.2935 485.5,83C 476.482,83.832 467.482,83.6653 458.5,82.5C 457.137,72.891 456.637,63.2244 457,53.5C 457.5,53 458,52.5 458.5,52C 466.146,51.9286 473.479,50.7619 480.5,48.5 Z"/></g>
<g><path style="opacity:1" fill="#d1dbe3" d="M 591.5,47.5 C 597.768,49.3909 604.101,51.2242 610.5,53C 611.894,53.956 612.561,55.2894 612.5,57C 613.378,67.7155 609.711,76.3821 601.5,83C 600.127,83.8749 598.627,84.3749 597,84.5C 591.494,82.3242 586.494,79.3242 582,75.5C 581.593,72.318 581.093,69.1514 580.5,66C 578.859,64.1605 577.859,61.9938 577.5,59.5C 577.833,58.5 578.167,57.5 578.5,56.5C 583.074,53.7242 587.407,50.7242 591.5,47.5 Z"/></g>
<g><path style="opacity:1" fill="#f5f6f8" d="M 176.5,92.5 C 172.773,87.2653 168.44,82.4319 163.5,78C 160.757,75.9617 157.757,74.4617 154.5,73.5C 150.354,72.353 146.02,72.1864 141.5,73C 140.584,73.2784 139.918,73.7784 139.5,74.5C 133.583,77.7485 128.583,82.0818 124.5,87.5C 124.389,86.8826 124.056,86.3826 123.5,86C 118.402,85.0768 113.569,83.5768 109,81.5C 108.333,74.1667 108.333,66.8333 109,59.5C 109.374,58.5838 109.874,57.7504 110.5,57C 116.895,55.2018 123.228,53.2018 129.5,51C 137.374,49.8454 142.874,53.0121 146,60.5C 147.237,64.0601 147.737,67.7267 147.5,71.5C 148.833,71.5 150.167,71.5 151.5,71.5C 151.071,67.5413 152.071,64.0413 154.5,61C 163.344,57.8299 172.178,54.6633 181,51.5C 182.892,51.7769 184.225,52.7769 185,54.5C 185.96,63.2614 187.46,71.9281 189.5,80.5C 189.167,81.5 188.833,82.5 188.5,83.5C 183.924,85.7914 179.924,88.7914 176.5,92.5 Z"/></g>
<g><path style="opacity:1" fill="#e6ecf0" d="M 444.5,83.5 C 442.17,73.8367 436.17,67.8367 426.5,65.5C 423.375,64.5206 420.042,64.1872 416.5,64.5C 417.209,63.596 418.209,63.2627 419.5,63.5C 418.974,60.1922 420.307,58.0255 423.5,57C 429.534,54.8753 435.534,52.542 441.5,50C 445.952,49.1397 449.452,50.6397 452,54.5C 452.5,64.4944 452.666,74.4944 452.5,84.5C 449.794,84.4249 447.127,84.0916 444.5,83.5 Z"/></g>
<g><path style="opacity:1" fill="#f4f7f9" d="M 54.5,47.5 C 59.9339,47.3681 63.2673,49.8681 64.5,55C 61.4571,63.6707 58.9571,72.504 57,81.5C 56.2753,82.0585 55.4419,82.3918 54.5,82.5C 48.0312,81.1069 41.6979,79.2736 35.5,77C 31.6847,69.7235 28.3514,62.2235 25.5,54.5C 35.3961,52.6083 45.0628,50.275 54.5,47.5 Z"/></g>
<g><path style="opacity:1" fill="#cad6de" d="M 624.5,50.5 C 630.34,52.0818 636.007,54.2484 641.5,57C 643.513,57.6797 644.846,59.013 645.5,61C 644.118,65.113 642.951,69.2796 642,73.5C 641.667,77.1667 641.333,80.8333 641,84.5C 639.784,86.9681 638.117,88.9681 636,90.5C 630.111,85.4665 623.611,81.2999 616.5,78C 615.874,77.2496 615.374,76.4162 615,75.5C 615.727,69.2366 616.393,62.9032 617,56.5C 619.114,53.8792 621.614,51.8792 624.5,50.5 Z"/></g>
<g><path style="opacity:1" fill="#fbfcfb" d="M 390.5,88.5 C 388.371,89.2028 386.371,90.2028 384.5,91.5C 375.537,94.7947 370.204,101.128 368.5,110.5C 366.376,116.171 365.376,122.171 365.5,128.5C 371.119,131.238 377.119,132.738 383.5,133C 384.376,131.414 385.376,129.914 386.5,128.5C 392.766,124.403 398.6,119.737 404,114.5C 404.118,106.56 402.284,99.227 398.5,92.5C 398.5,92.1667 398.5,91.8333 398.5,91.5C 399.609,90.71 400.942,90.21 402.5,90C 406.644,85.3492 410.644,80.5158 414.5,75.5C 417.64,74.3592 420.973,74.1925 424.5,75C 428.313,76.3848 430.979,78.8848 432.5,82.5C 432.631,83.2389 432.464,83.9056 432,84.5C 427.215,81.8087 422.048,80.6421 416.5,81C 413.035,85.4668 409.202,89.6334 405,93.5C 406.083,98.7205 407.083,104.054 408,109.5C 408.383,110.056 408.883,110.389 409.5,110.5C 408.612,113.054 408.279,115.721 408.5,118.5C 407.127,118.343 405.793,118.51 404.5,119C 398.969,124.866 393.135,130.366 387,135.5C 386.833,136.167 386.667,136.833 386.5,137.5C 391.283,146.965 395.616,156.632 399.5,166.5C 399.167,166.5 398.833,166.5 398.5,166.5C 396.856,166.714 395.356,166.38 394,165.5C 390.027,156.221 385.527,147.221 380.5,138.5C 379.3,137.469 377.966,136.635 376.5,136C 371.775,135.485 367.108,134.652 362.5,133.5C 360.488,133.84 358.488,134.173 356.5,134.5C 356.5,132.833 356.5,131.167 356.5,129.5C 358.708,128.977 360.208,127.644 361,125.5C 363.519,113.356 366.353,101.356 369.5,89.5C 367.143,89.6633 364.81,89.4966 362.5,89C 361.347,87.117 359.681,86.2837 357.5,86.5C 357.5,85.1667 357.5,83.8333 357.5,82.5C 360.518,82.3354 363.518,82.502 366.5,83C 368.441,84.9028 370.774,85.7361 373.5,85.5C 374.981,75.6698 375.648,65.6698 375.5,55.5C 376.833,55.5 378.167,55.5 379.5,55.5C 378.379,65.1686 378.379,74.8352 379.5,84.5C 383.407,85.4662 387.074,86.7995 390.5,88.5 Z"/></g>
<g><path style="opacity:1" fill="#f4f6f8" d="M -0.5,82.5 C -0.5,75.5 -0.5,68.5 -0.5,61.5C 2.02679,57.3209 5.36013,53.8209 9.5,51C 13.8981,49.6215 17.3981,50.7882 20,54.5C 22.5391,61.9511 25.3724,69.2844 28.5,76.5C 24.7983,81.7345 20.4649,86.5678 15.5,91C 13.5,91.6667 11.5,91.6667 9.5,91C 5.97526,88.302 2.64192,85.4686 -0.5,82.5 Z"/></g>
<g><path style="opacity:1" fill="#ecf1f3" d="M 366.5,45.5 C 359.992,48.5099 354.492,52.8432 350,58.5C 347.173,66.7665 345.339,75.0998 344.5,83.5C 340.411,86.0832 336.744,89.2499 333.5,93C 332.5,93.1667 331.5,93.3333 330.5,93.5C 322.331,90.7545 314.331,87.4212 306.5,83.5C 305.386,82.277 305.219,80.9437 306,79.5C 308.325,73.1916 310.491,66.8582 312.5,60.5C 315.686,57.1031 319.686,55.7698 324.5,56.5C 329.046,55.9361 333.046,57.1027 336.5,60C 341.705,61.1534 344.038,58.9868 343.5,53.5C 349.388,51.7132 354.054,48.2132 357.5,43C 361.1,41.9271 364.1,42.7605 366.5,45.5 Z"/></g>
<g><path style="opacity:1" fill="#d8e0e7" d="M 563.5,87.5 C 558.572,82.0724 552.905,77.5724 546.5,74C 542.637,72.6463 538.637,72.1463 534.5,72.5C 534.173,67.456 534.506,62.456 535.5,57.5C 537.69,55.476 540.023,53.6427 542.5,52C 553.481,52.1625 563.814,54.6625 573.5,59.5C 574.749,65.9071 575.916,72.2404 577,78.5C 572.213,81.1381 567.713,84.1381 563.5,87.5 Z"/></g>
<g><path style="opacity:1" fill="#c6d2db" d="M 667.5,55.5 C 669.199,55.3398 670.866,55.5065 672.5,56C 677.149,60.3053 681.315,64.8053 685,69.5C 685.667,74.5 685.667,79.5 685,84.5C 683.859,86.6089 682.359,88.4422 680.5,90C 669.504,90.048 658.504,89.7147 647.5,89C 646.562,79.4242 647.395,69.9242 650,60.5C 650.5,60 651,59.5 651.5,59C 657.066,58.297 662.4,57.1303 667.5,55.5 Z"/></g>
<g><path style="opacity:1" fill="#ebf0f1" d="M 414.5,75.5 C 410.644,80.5158 406.644,85.3492 402.5,90C 400.942,90.21 399.609,90.71 398.5,91.5C 396.281,89.3939 393.615,88.3939 390.5,88.5C 387.074,86.7995 383.407,85.4662 379.5,84.5C 378.379,74.8352 378.379,65.1686 379.5,55.5C 378.167,55.5 376.833,55.5 375.5,55.5C 375.648,65.6698 374.981,75.6698 373.5,85.5C 370.774,85.7361 368.441,84.9028 366.5,83C 363.518,82.502 360.518,82.3354 357.5,82.5C 357.5,83.8333 357.5,85.1667 357.5,86.5C 359.681,86.2837 361.347,87.117 362.5,89C 364.81,89.4966 367.143,89.6633 369.5,89.5C 366.353,101.356 363.519,113.356 361,125.5C 360.208,127.644 358.708,128.977 356.5,129.5C 356.5,113.5 356.5,97.5 356.5,81.5C 354.874,68.2229 360.207,59.3895 372.5,55C 389.808,52.0392 398.308,59.2058 398,76.5C 400.21,79.2896 403.044,80.123 406.5,79C 408.867,77.1552 411.533,75.9886 414.5,75.5 Z"/></g>
<g><path style="opacity:1" fill="#fbfbfb" d="M 312.5,60.5 C 310.491,66.8582 308.325,73.1916 306,79.5C 305.219,80.9437 305.386,82.277 306.5,83.5C 314.331,87.4212 322.331,90.7545 330.5,93.5C 331.5,93.3333 332.5,93.1667 333.5,93C 336.744,89.2499 340.411,86.0832 344.5,83.5C 344.5,85.5 344.5,87.5 344.5,89.5C 341.499,92.3316 338.333,94.9983 335,97.5C 334.833,98.6667 334.667,99.8333 334.5,101C 336.111,106.967 336.944,113.134 337,119.5C 338.523,123.893 341.023,127.56 344.5,130.5C 346.912,189.827 347.078,249.16 345,308.5C 341.565,316.971 335.399,322.304 326.5,324.5C 320.013,324.848 313.68,324.182 307.5,322.5C 301.689,319.358 297.689,314.691 295.5,308.5C 294.99,305.017 294.323,301.684 293.5,298.5C 291.593,295.668 288.927,294.834 285.5,296C 282.833,298.667 280.167,301.333 277.5,304C 265.493,309.95 257.16,306.784 252.5,294.5C 252.413,289.463 252.746,284.463 253.5,279.5C 255.096,276.686 255.596,273.686 255,270.5C 254.097,269.299 252.931,268.465 251.5,268C 241.82,268.66 235.153,264.493 231.5,255.5C 231.21,249.678 231.877,244.012 233.5,238.5C 235.452,234.713 238.286,231.713 242,229.5C 242.667,227.833 242.667,226.167 242,224.5C 235.007,221.34 229.841,216.34 226.5,209.5C 225.658,204.213 225.324,198.88 225.5,193.5C 227.588,186.911 231.921,182.411 238.5,180C 241.989,174.632 240.656,170.966 234.5,169C 232.951,167.786 231.785,166.286 231,164.5C 230.609,151.856 236.775,144.022 249.5,141C 252.087,139.475 252.92,137.308 252,134.5C 249.667,132.5 247.333,130.5 245,128.5C 244.536,127.906 244.369,127.239 244.5,126.5C 244.5,124.833 244.5,123.167 244.5,121.5C 245.552,121.649 246.552,121.483 247.5,121C 247.216,119.044 247.216,116.877 247.5,114.5C 248.822,114.33 249.989,114.663 251,115.5C 251.967,114.322 252.467,112.989 252.5,111.5C 253.72,110.289 254.887,110.289 256,111.5C 256.617,110.551 256.451,109.718 255.5,109C 257.833,108.667 260.167,108.333 262.5,108C 263.056,107.617 263.389,107.117 263.5,106.5C 263.833,105.833 264.167,105.167 264.5,104.5C 265.211,99.3431 265.211,94.0098 264.5,88.5C 266.522,84.4784 269.522,81.4784 273.5,79.5C 274.855,85.3486 278.521,88.6819 284.5,89.5C 289.404,87.7147 294.071,85.3814 298.5,82.5C 299.79,81.9423 300.623,80.9423 301,79.5C 301.27,70.9525 305.103,64.6192 312.5,60.5 Z"/></g>
<g><path style="opacity:1" fill="#cec28b" d="M 405.5,58.5 C 407.074,60.1016 407.741,62.1016 407.5,64.5C 405.926,62.8984 405.259,60.8984 405.5,58.5 Z"/></g>
<g><path style="opacity:1" fill="#cabc7c" d="M 414.5,64.5 C 415.167,64.5 415.833,64.5 416.5,64.5C 420.042,64.1872 423.375,64.5206 426.5,65.5C 419.966,65.7669 413.632,65.7669 407.5,65.5C 409.861,65.3259 412.194,64.9926 414.5,64.5 Z"/></g>
<g><path style="opacity:1" fill="#cfc081" d="M 154.5,73.5 C 149.463,73.4126 144.463,73.746 139.5,74.5C 139.918,73.7784 140.584,73.2784 141.5,73C 146.02,72.1864 150.354,72.353 154.5,73.5 Z"/></g>
<g><path style="opacity:1" fill="#dedbc1" d="M 285.5,78.5 C 281.466,78.5045 277.466,78.8379 273.5,79.5C 275.462,77.9827 277.795,77.3161 280.5,77.5C 282.369,77.5068 284.036,77.8401 285.5,78.5 Z"/></g>
<g><path style="opacity:1" fill="#edf0f2" d="M 285.5,78.5 C 289.805,80.1655 294.138,81.4988 298.5,82.5C 294.071,85.3814 289.404,87.7147 284.5,89.5C 278.521,88.6819 274.855,85.3486 273.5,79.5C 277.466,78.8379 281.466,78.5045 285.5,78.5 Z"/></g>
<g><path style="opacity:1" fill="#e8edf1" d="M 432.5,82.5 C 433.222,82.9175 433.722,83.5842 434,84.5C 434.573,88.686 434.406,92.8527 433.5,97C 433.542,98.9674 434.042,100.801 435,102.5C 438.926,102.741 442.76,103.074 446.5,103.5C 446.743,106.883 446.076,110.049 444.5,113C 437.28,114.629 430.113,116.462 423,118.5C 421.566,118.138 420.399,117.472 419.5,116.5C 418.714,110.436 415.381,108.436 409.5,110.5C 408.883,110.389 408.383,110.056 408,109.5C 407.083,104.054 406.083,98.7205 405,93.5C 409.202,89.6334 413.035,85.4668 416.5,81C 422.048,80.6421 427.215,81.8087 432,84.5C 432.464,83.9056 432.631,83.2389 432.5,82.5 Z"/></g>
<g><path style="opacity:1" fill="#fbfbfc" d="M 119.5,291.5 C 118.538,287.605 117.204,283.939 115.5,280.5C 111.649,269.613 107.982,258.613 104.5,247.5C 103.871,244.603 102.871,241.936 101.5,239.5C 98.4435,229.059 95.1102,218.726 91.5,208.5C 91.4672,204.131 91.8005,199.798 92.5,195.5C 96.9098,184.383 100.91,173.049 104.5,161.5C 106.655,159.383 107.655,156.716 107.5,153.5C 113.276,138.342 118.776,123.009 124,107.5C 128.125,97.732 134.291,89.5653 142.5,83C 152.852,81.5924 160.686,85.4258 166,94.5C 169.841,100.178 173.174,106.178 176,112.5C 187.281,143.575 198.448,174.742 209.5,206C 198.868,236.229 188.034,266.396 177,296.5C 172.781,306.448 166.948,315.281 159.5,323C 149.639,329.896 140.805,328.73 133,319.5C 127.062,310.847 122.562,301.514 119.5,291.5 Z"/></g>
<g><path style="opacity:1" fill="#dce4ea" d="M 515.5,104.5 C 518.262,96.0819 523.262,89.4152 530.5,84.5C 533.113,83.5651 535.779,83.3985 538.5,84C 542.104,89.0584 546.271,93.5584 551,97.5C 554.65,104.778 556.484,112.445 556.5,120.5C 551.433,120.689 546.766,122.189 542.5,125C 540.5,125.667 538.5,125.667 536.5,125C 529.698,121.346 522.698,118.179 515.5,115.5C 514.54,111.861 514.54,108.195 515.5,104.5 Z"/></g>
<g><path style="opacity:1" fill="#fafbfb" d="M 557.5,97.5 C 556.903,97.7352 556.57,98.2352 556.5,99C 559.049,105.357 561.215,111.857 563,118.5C 563.991,121.747 565.825,122.747 568.5,121.5C 569.537,122.93 570.204,124.597 570.5,126.5C 569.848,127.449 569.514,128.615 569.5,130C 571.483,139.063 572.649,148.229 573,157.5C 575.8,159.495 578.967,160.495 582.5,160.5C 586.893,172.013 590.893,183.68 594.5,195.5C 595.321,198.554 595.321,201.554 594.5,204.5C 591.897,203.438 589.23,203.272 586.5,204C 582.5,205.333 578.5,206.667 574.5,208C 573.333,208.5 572.5,209.333 572,210.5C 570.744,219.188 569.744,227.855 569,236.5C 573.435,238.479 577.935,240.146 582.5,241.5C 582.737,242.791 582.404,243.791 581.5,244.5C 579.181,245.167 576.847,245.334 574.5,245C 574.957,244.586 575.291,244.086 575.5,243.5C 572.934,242.453 570.267,241.786 567.5,241.5C 564.788,241.453 562.622,242.453 561,244.5C 560.214,254.262 560.881,263.929 563,273.5C 565.454,275.441 567.287,277.775 568.5,280.5C 567.89,281.391 567.557,282.391 567.5,283.5C 564.138,280.636 560.971,277.636 558,274.5C 549.54,278.211 540.874,281.545 532,284.5C 531.463,291.863 531.797,299.196 533,306.5C 533.5,307 534,307.5 534.5,308C 540.484,309.093 546.484,310.093 552.5,311C 553.416,311.278 554.082,311.778 554.5,312.5C 554.573,314.027 553.906,315.027 552.5,315.5C 548.447,314.987 544.447,314.154 540.5,313C 532.672,310.715 526.672,312.882 522.5,319.5C 521.094,319.027 520.427,318.027 520.5,316.5C 520.351,315.448 520.517,314.448 521,313.5C 524.609,311.563 527.109,308.729 528.5,305C 527.502,297.521 526.669,290.021 526,282.5C 523.715,280.093 521.549,277.593 519.5,275C 514.086,273.869 509.086,274.703 504.5,277.5C 503.27,275.703 502.604,273.703 502.5,271.5C 500.477,262.219 498.644,252.885 497,243.5C 496.019,239.726 493.852,238.726 490.5,240.5C 489.766,239.292 489.433,237.959 489.5,236.5C 492.353,234.985 494.019,232.652 494.5,229.5C 493.667,223.5 492.833,217.5 492,211.5C 489.97,208.437 487.136,206.771 483.5,206.5C 485.165,200.473 484.831,194.64 482.5,189C 482.859,186.454 483.859,184.287 485.5,182.5C 486.858,188.067 487.691,193.734 488,199.5C 490.681,207.636 494.347,208.302 499,201.5C 502.896,193.377 507.563,185.71 513,178.5C 514.004,175.007 513.504,171.841 511.5,169C 506.39,164.278 500.39,161.445 493.5,160.5C 494.321,156.873 495.654,153.54 497.5,150.5C 497.261,152.467 497.594,154.301 498.5,156C 504.153,157.492 508.82,160.492 512.5,165C 515.5,167 518.5,167 521.5,165C 527.075,153.096 531.742,140.929 535.5,128.5C 530.947,127.553 526.613,126.053 522.5,124C 521.167,123 519.833,122 518.5,121C 515.305,120.819 512.305,120.319 509.5,119.5C 510.704,114.105 512.704,109.105 515.5,104.5C 514.54,108.195 514.54,111.861 515.5,115.5C 522.698,118.179 529.698,121.346 536.5,125C 538.5,125.667 540.5,125.667 542.5,125C 546.766,122.189 551.433,120.689 556.5,120.5C 556.484,112.445 554.65,104.778 551,97.5C 546.271,93.5584 542.104,89.0584 538.5,84C 535.779,83.3985 533.113,83.5651 530.5,84.5C 537.134,81.3975 543.468,82.2308 549.5,87C 553.034,89.9313 555.701,93.4313 557.5,97.5 Z"/></g>
<g><path style="opacity:1" fill="#d4dee4" d="M 578.5,118.5 C 575.115,108.994 570.782,99.9939 565.5,91.5C 568.953,89.2614 572.286,86.7614 575.5,84C 583.133,82.209 589.633,84.3757 595,90.5C 595.667,98.1667 595.667,105.833 595,113.5C 589.844,116.274 584.344,117.941 578.5,118.5 Z"/></g>
<g><path style="opacity:1" fill="#e1e9ee" d="M 510.5,92.5 C 504.916,103.92 499.916,115.587 495.5,127.5C 489.873,125.762 485.373,122.428 482,117.5C 482.997,108.509 484.331,99.509 486,90.5C 487.813,85.4797 491.313,83.6463 496.5,85C 500.787,88.3085 505.453,90.8085 510.5,92.5 Z"/></g>
<g><path style="opacity:1" fill="#ced9e1" d="M 630.5,114.5 C 630.396,116.703 629.73,118.703 628.5,120.5C 625.699,121.377 623.032,122.544 620.5,124C 618.5,124.667 616.5,124.667 614.5,124C 609.737,121.202 605.237,118.036 601,114.5C 600.333,106.167 600.333,97.8333 601,89.5C 604.047,85.7902 607.714,82.7902 612,80.5C 618.402,83.9512 624.569,87.7845 630.5,92C 632.357,93.1824 633.357,94.849 633.5,97C 631.459,102.661 630.459,108.494 630.5,114.5 Z"/></g>
<g><path style="opacity:1" fill="#f4f6f8" d="M 32.5,82.5 C 39.0066,83.2098 45.34,84.7098 51.5,87C 53.2231,87.7751 54.2231,89.1084 54.5,91C 53.5954,99.526 52.4287,108.026 51,116.5C 45.8752,119.312 40.7086,121.979 35.5,124.5C 27.9115,122.693 20.5781,120.193 13.5,117C 12.0465,109.269 13.5465,102.103 18,95.5C 23.028,91.3011 27.8613,86.9678 32.5,82.5 Z"/></g>
<g><path style="opacity:1" fill="#f3f6f8" d="M 59.5,87.5 C 70.9505,89.029 82.2838,91.1957 93.5,94C 94.8045,94.804 95.4712,95.9707 95.5,97.5C 94.7485,102.511 93.9151,107.511 93,112.5C 85.664,117.003 77.9973,121.003 70,124.5C 64.5996,122.403 60.0996,119.236 56.5,115C 57.3224,105.805 58.3224,96.638 59.5,87.5 Z"/></g>
<g><path style="opacity:1" fill="#f5f7f8" d="M 317.5,121.5 C 316.5,120.833 315.5,120.167 314.5,119.5C 310.994,118.267 307.327,117.267 303.5,116.5C 298.719,112.711 295.886,107.711 295,101.5C 292.865,99.7215 290.365,99.0548 287.5,99.5C 287.261,97.5328 287.594,95.6995 288.5,94C 293.214,92.2261 297.714,90.0594 302,87.5C 310.606,91.5906 319.44,95.0906 328.5,98C 331.021,105.248 332.021,112.582 331.5,120C 326.649,120.174 321.982,120.674 317.5,121.5 Z"/></g>
<g><path style="opacity:1" fill="#bda953" d="M 396.5,97.5 C 390.484,98.9714 385.318,101.971 381,106.5C 379.438,111.123 377.604,115.623 375.5,120C 369.362,119.998 367.029,116.831 368.5,110.5C 370.204,101.128 375.537,94.7947 384.5,91.5C 387.987,90.766 391.32,90.4327 394.5,90.5C 395.72,90.8869 396.387,91.7202 396.5,93C 395.42,94.4553 395.42,95.9553 396.5,97.5 Z"/></g>
<g><path style="opacity:1" fill="#d6ca94" d="M 264.5,88.5 C 265.211,94.0098 265.211,99.3431 264.5,104.5C 263.648,98.9975 263.648,93.6641 264.5,88.5 Z"/></g>
<g><path style="opacity:1" fill="#edf0f3" d="M 344.5,89.5 C 344.5,103.167 344.5,116.833 344.5,130.5C 341.023,127.56 338.523,123.893 337,119.5C 336.944,113.134 336.111,106.967 334.5,101C 334.667,99.8333 334.833,98.6667 335,97.5C 338.333,94.9983 341.499,92.3316 344.5,89.5 Z"/></g>
<g><path style="opacity:1" fill="#c7b66e" d="M 390.5,88.5 C 393.615,88.3939 396.281,89.3939 398.5,91.5C 398.5,91.8333 398.5,92.1667 398.5,92.5C 398.88,94.698 398.213,96.3646 396.5,97.5C 395.42,95.9553 395.42,94.4553 396.5,93C 396.387,91.7202 395.72,90.8869 394.5,90.5C 391.32,90.4327 387.987,90.766 384.5,91.5C 386.371,90.2028 388.371,89.2028 390.5,88.5 Z"/></g>
<g><path style="opacity:1" fill="#edf0f3" d="M 638.5,121.5 C 639.435,118.887 639.602,116.221 639,113.5C 637.89,111.963 636.39,111.297 634.5,111.5C 636.167,106.992 637.333,102.326 638,97.5C 638.785,95.714 639.951,94.214 641.5,93C 650.16,92.9796 658.827,93.3129 667.5,94C 670.798,94.4867 673.798,95.6534 676.5,97.5C 674.822,102.035 673.655,106.702 673,111.5C 671.5,113.333 670,115.167 668.5,117C 664.241,118.934 660.241,121.268 656.5,124C 650.816,124.609 645.483,123.443 640.5,120.5C 639.817,120.863 639.15,121.196 638.5,121.5 Z"/></g>
<g><path style="opacity:1" fill="#eaeff0" d="M 398.5,92.5 C 402.284,99.227 404.118,106.56 404,114.5C 398.6,119.737 392.766,124.403 386.5,128.5C 385.376,129.914 384.376,131.414 383.5,133C 377.119,132.738 371.119,131.238 365.5,128.5C 365.376,122.171 366.376,116.171 368.5,110.5C 367.029,116.831 369.362,119.998 375.5,120C 377.604,115.623 379.438,111.123 381,106.5C 385.318,101.971 390.484,98.9714 396.5,97.5C 398.213,96.3646 398.88,94.698 398.5,92.5 Z"/></g>
<g><path style="opacity:1" fill="#d1c386" d="M 253.5,96.5 C 251.967,98.2451 249.967,99.2451 247.5,99.5C 249.033,97.7549 251.033,96.7549 253.5,96.5 Z"/></g>
<g><path style="opacity:1" fill="#bea954" d="M 287.5,99.5 C 290.365,99.0548 292.865,99.7215 295,101.5C 295.886,107.711 298.719,112.711 303.5,116.5C 306.686,118.874 310.353,119.874 314.5,119.5C 315.5,120.167 316.5,120.833 317.5,121.5C 317.451,124.099 316.451,126.266 314.5,128C 298.358,128.874 289.025,121.208 286.5,105C 286.696,103.122 287.029,101.288 287.5,99.5 Z"/></g>
<g><path style="opacity:1" fill="#fbfbfa" d="M 446.5,103.5 C 448.38,103.229 449.713,103.896 450.5,105.5C 448.985,111.969 451.318,116.302 457.5,118.5C 457.81,121.713 457.477,124.713 456.5,127.5C 456.822,125.278 456.155,123.444 454.5,122C 452.545,121.047 450.878,119.713 449.5,118C 440.186,118.413 431.186,120.246 422.5,123.5C 420.688,121.539 419.688,119.206 419.5,116.5C 420.399,117.472 421.566,118.138 423,118.5C 430.113,116.462 437.28,114.629 444.5,113C 446.076,110.049 446.743,106.883 446.5,103.5 Z"/></g>
<g><path style="opacity:1" fill="#d7ddde" d="M 557.5,97.5 C 563.077,104.538 566.744,112.538 568.5,121.5C 565.825,122.747 563.991,121.747 563,118.5C 561.215,111.857 559.049,105.357 556.5,99C 556.57,98.2352 556.903,97.7352 557.5,97.5 Z"/></g>
<g><path style="opacity:1" fill="#e6e9e9" d="M 450.5,105.5 C 455.629,108.15 457.963,112.483 457.5,118.5C 451.318,116.302 448.985,111.969 450.5,105.5 Z"/></g>
<g><path style="opacity:1" fill="#beaa55" d="M 419.5,116.5 C 419.688,119.206 420.688,121.539 422.5,123.5C 423.716,125.451 425.382,126.951 427.5,128C 431.188,128.19 434.688,129.024 438,130.5C 439.123,133.956 438.29,136.79 435.5,139C 432.076,139.747 428.743,139.58 425.5,138.5C 423.95,137.559 422.284,136.893 420.5,136.5C 414.501,131.834 410.501,125.834 408.5,118.5C 408.279,115.721 408.612,113.054 409.5,110.5C 415.381,108.436 418.714,110.436 419.5,116.5 Z"/></g>
<g><path style="opacity:1" fill="#f3f1e8" d="M 263.5,106.5 C 263.389,107.117 263.056,107.617 262.5,108C 260.167,108.333 257.833,108.667 255.5,109C 256.451,109.718 256.617,110.551 256,111.5C 254.887,110.289 253.72,110.289 252.5,111.5C 252.467,112.989 251.967,114.322 251,115.5C 249.989,114.663 248.822,114.33 247.5,114.5C 247.216,116.877 247.216,119.044 247.5,121C 246.552,121.483 245.552,121.649 244.5,121.5C 244.5,123.167 244.5,124.833 244.5,126.5C 243.041,112.948 249.375,106.282 263.5,106.5 Z"/></g>
<g><path style="opacity:1" fill="#e5e0c7" d="M 303.5,116.5 C 307.327,117.267 310.994,118.267 314.5,119.5C 310.353,119.874 306.686,118.874 303.5,116.5 Z"/></g>
<g><path style="opacity:1" fill="#e6ecf0" d="M 456.5,127.5 C 454.478,133.016 451.811,138.182 448.5,143C 449.677,147.008 452.343,149.508 456.5,150.5C 456.813,153.247 456.48,155.914 455.5,158.5C 445.968,155.893 436.301,153.726 426.5,152C 425.533,147.599 425.2,143.099 425.5,138.5C 428.743,139.58 432.076,139.747 435.5,139C 438.29,136.79 439.123,133.956 438,130.5C 434.688,129.024 431.188,128.19 427.5,128C 425.382,126.951 423.716,125.451 422.5,123.5C 431.186,120.246 440.186,118.413 449.5,118C 450.878,119.713 452.545,121.047 454.5,122C 456.155,123.444 456.822,125.278 456.5,127.5 Z"/></g>
<g><path style="opacity:1" fill="#e9eff2" d="M 408.5,118.5 C 410.501,125.834 414.501,131.834 420.5,136.5C 420.356,140.375 420.69,144.208 421.5,148C 421.259,149.984 420.592,151.817 419.5,153.5C 413.585,157.611 407.918,161.944 402.5,166.5C 401.5,166.5 400.5,166.5 399.5,166.5C 395.616,156.632 391.283,146.965 386.5,137.5C 386.667,136.833 386.833,136.167 387,135.5C 393.135,130.366 398.969,124.866 404.5,119C 405.793,118.51 407.127,118.343 408.5,118.5 Z"/></g>
<g><path style="opacity:1" fill="#f4f6f8" d="M -0.5,157.5 C -0.5,154.167 -0.5,150.833 -0.5,147.5C 1.37309,139.617 3.20642,131.617 5,123.5C 5.95603,122.106 7.28937,121.439 9,121.5C 17.117,123.896 25.117,126.562 33,129.5C 35.6578,140.108 37.1578,150.774 37.5,161.5C 30.4727,164.272 23.3061,166.605 16,168.5C 10.8828,164.208 5.38279,160.542 -0.5,157.5 Z"/></g>
<g><path style="opacity:1" fill="#dfe6ec" d="M 509.5,119.5 C 512.305,120.319 515.305,120.819 518.5,121C 519.833,122 521.167,123 522.5,124C 526.613,126.053 530.947,127.553 535.5,128.5C 531.742,140.929 527.075,153.096 521.5,165C 518.5,167 515.5,167 512.5,165C 508.82,160.492 504.153,157.492 498.5,156C 497.594,154.301 497.261,152.467 497.5,150.5C 501.126,139.946 505.126,129.613 509.5,119.5 Z"/></g>
<g><path style="opacity:1" fill="#d4dde4" d="M 594.5,165.5 C 589.439,151.317 584.772,136.984 580.5,122.5C 586.54,120.996 592.54,119.829 598.5,119C 601.502,121.503 604.835,123.503 608.5,125C 610.993,126.566 612.993,128.566 614.5,131C 613.065,140.123 611.898,149.29 611,158.5C 605.418,160.746 599.918,163.079 594.5,165.5 Z"/></g>
<g><path style="opacity:1" fill="#e4eaed" d="M 493.5,133.5 C 487.738,148.032 482.238,162.698 477,177.5C 474.09,178.138 472.256,176.805 471.5,173.5C 476.966,160.389 473.966,149.555 462.5,141C 465.043,136.418 466.876,131.585 468,126.5C 470.635,108.248 463.135,96.7484 445.5,92C 444.62,90.6439 444.286,89.1439 444.5,87.5C 446.687,90.3355 449.52,92.3355 453,93.5C 453.678,90.7326 455.178,88.5659 457.5,87C 465.746,86.1851 473.912,86.3517 482,87.5C 480.347,96.7463 478.68,106.08 477,115.5C 475.152,118.041 472.652,119.041 469.5,118.5C 469.5,120.167 469.5,121.833 469.5,123.5C 472.799,122.624 476.132,122.457 479.5,123C 484.018,126.752 488.684,130.252 493.5,133.5 Z"/></g>
<g><path style="opacity:1" fill="#f2f4f5" d="M 60.5,123.5 C 56.901,122.938 54.901,124.438 54.5,128C 57.6023,137.14 60.6023,146.307 63.5,155.5C 57.3398,157.339 51.1731,159.005 45,160.5C 44.0853,159.672 43.4186,158.672 43,157.5C 41.554,148.657 40.054,139.824 38.5,131C 44.2622,123.607 51.5955,121.107 60.5,123.5 Z"/></g>
<g><path style="opacity:1" fill="#e8ecef" d="M 638.5,121.5 C 638.643,123.262 638.309,124.929 637.5,126.5C 640.339,128.42 643.339,130.087 646.5,131.5C 648.192,133.359 649.692,135.359 651,137.5C 652.601,143.637 654.601,149.637 657,155.5C 658.357,159.143 657.19,161.31 653.5,162C 645.833,162.667 638.167,162.667 630.5,162C 628.372,161.345 626.372,160.511 624.5,159.5C 628.992,146.681 633.659,134.015 638.5,121.5 Z"/></g>
<g><path style="opacity:1" fill="#dbe3ea" d="M 557.5,123.5 C 561.182,122.725 563.682,124.059 565,127.5C 566.663,138.134 567.663,148.8 568,159.5C 563.624,163.849 558.624,167.182 553,169.5C 544.918,167.583 536.751,166.25 528.5,165.5C 529.656,159.845 531.156,154.178 533,148.5C 536.618,143.33 539.284,137.663 541,131.5C 542.41,130.213 543.91,129.046 545.5,128C 549.993,127.23 553.993,125.73 557.5,123.5 Z"/></g>
<g><path style="opacity:1" fill="#f3f4f1" d="M 356.5,81.5 C 356.5,97.5 356.5,113.5 356.5,129.5C 356.5,131.167 356.5,132.833 356.5,134.5C 358.488,134.173 360.488,133.84 362.5,133.5C 367.108,134.652 371.775,135.485 376.5,136C 377.966,136.635 379.3,137.469 380.5,138.5C 385.527,147.221 390.027,156.221 394,165.5C 395.356,166.38 396.856,166.714 398.5,166.5C 390.944,167.562 385.111,164.562 381,157.5C 380,155.167 379,152.833 378,150.5C 373.17,147.083 370.003,148.083 368.5,153.5C 368.842,155.867 369.342,158.2 370,160.5C 372.385,163.379 374.552,166.379 376.5,169.5C 373.15,169.665 369.817,169.498 366.5,169C 363.667,166.833 360.833,164.667 358,162.5C 357.833,202.335 357.333,242.002 356.5,281.5C 356.08,214.665 356.08,147.998 356.5,81.5 Z"/></g>
<g><path style="opacity:1" fill="#bea953" d="M 265.5,136.5 C 272.247,135.748 275.08,138.748 274,145.5C 276.856,152.348 282.022,155.181 289.5,154C 293.5,157 293.5,160 289.5,163C 284.232,164.068 279.232,163.401 274.5,161C 267.722,156.442 264.056,150.109 263.5,142C 263.395,139.822 264.061,137.988 265.5,136.5 Z"/></g>
<g><path style="opacity:1" fill="#cdcaab" d="M 573.5,134.5 C 574.924,136.515 575.59,138.848 575.5,141.5C 574.076,139.485 573.41,137.152 573.5,134.5 Z"/></g>
<g><path style="opacity:1" fill="#eeece1" d="M 66.5,134.5 C 68.0169,137.309 69.5169,140.309 71,143.5C 72.1488,146.393 72.6488,149.393 72.5,152.5C 69.928,146.784 67.928,140.784 66.5,134.5 Z"/></g>
<g><path style="opacity:1" fill="#bda853" d="M 327.5,142.5 C 332.365,142.366 334.365,144.699 333.5,149.5C 331.897,160.607 325.563,167.44 314.5,170C 311.833,170.667 309.167,170.667 306.5,170C 305.409,167.936 305.242,165.769 306,163.5C 310.275,160.959 314.775,158.792 319.5,157C 322.644,152.37 325.311,147.536 327.5,142.5 Z"/></g>
<g><path style="opacity:1" fill="#d8e0e5" d="M 570.5,126.5 C 571.5,129.167 572.5,131.833 573.5,134.5C 573.41,137.152 574.076,139.485 575.5,141.5C 578.401,147.527 580.734,153.861 582.5,160.5C 578.967,160.495 575.8,159.495 573,157.5C 572.649,148.229 571.483,139.063 569.5,130C 569.514,128.615 569.848,127.449 570.5,126.5 Z"/></g>
<g><path style="opacity:1" fill="#bda953" d="M 398.5,166.5 C 398.833,166.5 399.167,166.5 399.5,166.5C 400.5,166.5 401.5,166.5 402.5,166.5C 402.973,167.906 403.973,168.573 405.5,168.5C 405.721,171.279 405.388,173.946 404.5,176.5C 393.732,179.599 384.398,177.266 376.5,169.5C 374.552,166.379 372.385,163.379 370,160.5C 369.342,158.2 368.842,155.867 368.5,153.5C 370.003,148.083 373.17,147.083 378,150.5C 379,152.833 380,155.167 381,157.5C 385.111,164.562 390.944,167.562 398.5,166.5 Z"/></g>
<g><path style="opacity:1" fill="#cbba76" d="M 101.5,142.5 C 101.196,145.522 100.696,148.522 100,151.5C 99.2917,152.381 98.4584,153.047 97.5,153.5C 98.4624,149.605 99.7957,145.939 101.5,142.5 Z"/></g>
<g><path style="opacity:1" fill="#e4dbb8" d="M 107.5,153.5 C 107.655,156.716 106.655,159.383 104.5,161.5C 105.129,158.603 106.129,155.936 107.5,153.5 Z"/></g>
<g><path style="opacity:1" fill="#e8edf0" d="M 440.5,159.5 C 438.551,164.779 435.884,169.779 432.5,174.5C 427.121,177.233 421.621,179.566 416,181.5C 415.332,187.829 418.166,190.329 424.5,189C 439.194,186.146 446.861,177.313 447.5,162.5C 449.92,162.292 452.253,162.626 454.5,163.5C 455.583,164.365 455.749,165.365 455,166.5C 449.503,174.001 444.836,182.001 441,190.5C 435.227,196.576 428.394,198.076 420.5,195C 416.638,190.476 412.138,186.642 407,183.5C 405.589,181.35 404.755,179.016 404.5,176.5C 405.388,173.946 405.721,171.279 405.5,168.5C 411.559,165.279 417.225,161.446 422.5,157C 428.555,157.243 434.555,158.076 440.5,159.5 Z"/></g>
<g><path style="opacity:1" fill="#d4c68c" d="M 221.5,151.5 C 220.771,156.13 220.437,160.797 220.5,165.5C 219.839,163.866 219.506,162.033 219.5,160C 219.36,156.85 220.027,154.017 221.5,151.5 Z"/></g>
<g><path style="opacity:1" fill="#e1e8ed" d="M 493.5,160.5 C 500.39,161.445 506.39,164.278 511.5,169C 513.504,171.841 514.004,175.007 513,178.5C 507.563,185.71 502.896,193.377 499,201.5C 494.347,208.302 490.681,207.636 488,199.5C 487.691,193.734 486.858,188.067 485.5,182.5C 487.574,174.944 490.241,167.611 493.5,160.5 Z"/></g>
<g><path style="opacity:1" fill="#bda853" d="M 440.5,159.5 C 443.631,158.908 445.964,159.908 447.5,162.5C 446.861,177.313 439.194,186.146 424.5,189C 418.166,190.329 415.332,187.829 416,181.5C 421.621,179.566 427.121,177.233 432.5,174.5C 435.884,169.779 438.551,164.779 440.5,159.5 Z"/></g>
<g><path style="opacity:1" fill="#dce4eb" d="M 521.5,169.5 C 531.493,170.742 541.493,172.242 551.5,174C 552.333,174.833 553.167,175.667 554,176.5C 554.602,183.517 554.935,190.517 555,197.5C 547.837,201.221 540.337,203.721 532.5,205C 528.373,197.91 523.873,191.076 519,184.5C 518.333,180.833 518.333,177.167 519,173.5C 520.481,172.529 521.315,171.196 521.5,169.5 Z"/></g>
<g><path style="opacity:1" fill="#eef1f4" d="M 697.5,168.5 C 697.5,184.5 697.5,200.5 697.5,216.5C 696.759,219.747 694.759,221.247 691.5,221C 682.735,215.2 674.235,209.034 666,202.5C 665.667,198.167 665.333,193.833 665,189.5C 663.904,194.26 661.071,197.427 656.5,199C 649.816,199.546 643.149,199.38 636.5,198.5C 636.182,188.917 636.515,179.417 637.5,170C 643.5,169.5 649.5,169 655.5,168.5C 659.807,167.809 663.307,169.143 666,172.5C 666.333,176.833 666.667,181.167 667,185.5C 668.181,181.637 670.014,178.137 672.5,175C 680.85,172.615 689.183,170.448 697.5,168.5 Z"/></g>
<g><path style="opacity:1" fill="#e5ebef" d="M 462.5,165.5 C 462.649,166.552 462.483,167.552 462,168.5C 459.153,170.958 457.82,173.958 458,177.5C 462.582,181.076 466.915,185.076 471,189.5C 473.635,194.65 474.135,199.983 472.5,205.5C 467.301,206.073 462.301,207.407 457.5,209.5C 452.301,206.812 447.801,203.145 444,198.5C 443.159,194.88 443.826,191.546 446,188.5C 451.019,182.464 455.019,175.797 458,168.5C 459.129,166.859 460.629,165.859 462.5,165.5 Z"/></g>
<g><path style="opacity:1" fill="#c8b66c" d="M 95.5,160.5 C 94.6672,164.346 93.6672,168.179 92.5,172C 92.5852,173.107 92.9186,174.107 93.5,175C 92.5509,175.617 91.7175,175.451 91,174.5C 88.8739,177.624 89.0406,180.624 91.5,183.5C 90.086,184.624 88.586,185.624 87,186.5C 86.5172,187.448 86.3505,188.448 86.5,189.5C 83.0897,189.616 81.7564,187.95 82.5,184.5C 83.2323,185.808 84.0656,187.142 85,188.5C 87.8542,178.752 91.3542,169.418 95.5,160.5 Z"/></g>
<g><path style="opacity:1" fill="#beaa55" d="M 264.5,218.5 C 262.676,215.154 262.01,211.487 262.5,207.5C 267.577,195.592 276.577,190.092 289.5,191C 292.167,193.667 292.167,196.333 289.5,199C 278.42,199.748 272.254,205.582 271,216.5C 269.211,218.229 267.044,218.896 264.5,218.5 Z"/></g>
<g><path style="opacity:1" fill="#dfe7ed" d="M 514.5,187.5 C 515.496,187.414 516.329,187.748 517,188.5C 520.75,195.002 524.75,201.335 529,207.5C 529.049,214.828 528.715,222.161 528,229.5C 527.564,232.047 526.064,233.38 523.5,233.5C 515.312,231.546 507.145,230.546 499,230.5C 498.061,223.512 497.728,216.512 498,209.5C 503.332,202.007 508.832,194.673 514.5,187.5 Z"/></g>
<g><path style="opacity:1" fill="#ebe6ce" d="M 225.5,193.5 C 225.324,198.88 225.658,204.213 226.5,209.5C 225.778,209.082 225.278,208.416 225,207.5C 224.185,202.648 224.352,197.981 225.5,193.5 Z"/></g>
<g><path style="opacity:1" fill="#eae4ca" d="M 92.5,195.5 C 91.8005,199.798 91.4672,204.131 91.5,208.5C 90.1914,207.376 89.5247,205.876 89.5,204C 90.0338,200.892 91.0338,198.059 92.5,195.5 Z"/></g>
<g><path style="opacity:1" fill="#bda953" d="M 304.5,200.5 C 322.368,199.892 332.868,208.225 336,225.5C 333.688,227.464 331.188,227.797 328.5,226.5C 326.138,220.305 322.138,215.472 316.5,212C 311.917,210.855 307.251,210.189 302.5,210C 300.731,206.151 301.398,202.985 304.5,200.5 Z"/></g>
<g><path style="opacity:1" fill="#f2f4f5" d="M 594.5,195.5 C 596.442,198.504 597.275,201.838 597,205.5C 593.359,215.46 589.692,225.46 586,235.5C 585.059,237.727 583.892,239.727 582.5,241.5C 577.935,240.146 573.435,238.479 569,236.5C 569.744,227.855 570.744,219.188 572,210.5C 572.5,209.333 573.333,208.5 574.5,208C 578.5,206.667 582.5,205.333 586.5,204C 589.23,203.272 591.897,203.438 594.5,204.5C 595.321,201.554 595.321,198.554 594.5,195.5 Z"/></g>
<g><path style="opacity:1" fill="#e7edf1" d="M 444.5,241.5 C 442.547,225.546 433.547,217.88 417.5,218.5C 418.568,217.566 419.901,217.232 421.5,217.5C 421.588,212.464 422.088,207.464 423,202.5C 427.792,199.853 432.958,199.019 438.5,200C 443.871,204.038 448.538,208.705 452.5,214C 450.391,222.027 448.891,230.194 448,238.5C 447.578,240.426 446.411,241.426 444.5,241.5 Z"/></g>
<g><path style="opacity:1" fill="#e2e9ed" d="M 483.5,206.5 C 487.136,206.771 489.97,208.437 492,211.5C 492.833,217.5 493.667,223.5 494.5,229.5C 494.019,232.652 492.353,234.985 489.5,236.5C 486.134,229.422 483.134,222.089 480.5,214.5C 481.51,211.817 482.51,209.151 483.5,206.5 Z"/></g>
<g><path style="opacity:1" fill="#dbe3ea" d="M 555.5,201.5 C 557.199,201.34 558.866,201.506 560.5,202C 562.667,204.167 564.833,206.333 567,208.5C 566.266,217.491 565.266,226.491 564,235.5C 561.6,238.616 558.433,239.949 554.5,239.5C 547.159,238.399 539.826,237.232 532.5,236C 531.903,234.938 531.57,233.772 531.5,232.5C 532.886,225.209 534.053,217.875 535,210.5C 541.912,207.626 548.745,204.626 555.5,201.5 Z"/></g>
<g><path style="opacity:1" fill="#eff2f5" d="M 628.5,207.5 C 633.511,207.334 638.511,207.501 643.5,208C 647.651,209.499 651.818,210.999 656,212.5C 656.667,213.833 656.667,215.167 656,216.5C 652.265,222.904 647.765,228.737 642.5,234C 634.642,238.651 626.808,238.485 619,233.5C 618.333,231.167 618.333,228.833 619,226.5C 620.819,221.56 622.486,216.56 624,211.5C 625.397,209.93 626.897,208.596 628.5,207.5 Z"/></g>
<g><path style="opacity:1" fill="#e6debb" d="M 262.5,207.5 C 262.01,211.487 262.676,215.154 264.5,218.5C 263.504,218.586 262.671,218.252 262,217.5C 261.192,213.973 261.359,210.64 262.5,207.5 Z"/></g>
<g><path style="opacity:1" fill="#bea954" d="M 390.5,209.5 C 393.807,209.063 396.807,209.73 399.5,211.5C 400.833,213.5 400.833,215.5 399.5,217.5C 392.203,219.233 386.036,222.9 381,228.5C 380,231.5 379,234.5 378,237.5C 371.903,241.093 369.07,239.26 369.5,232C 370.218,224.91 373.551,219.244 379.5,215C 383.259,213.121 386.925,211.287 390.5,209.5 Z"/></g>
<g><path style="opacity:1" fill="#bda853" d="M 417.5,218.5 C 433.547,217.88 442.547,225.546 444.5,241.5C 444.496,246.989 441.829,248.822 436.5,247C 435.619,246.292 434.953,245.458 434.5,244.5C 434.706,241.505 434.04,238.838 432.5,236.5C 429.648,230.738 424.981,228.072 418.5,228.5C 414.746,227.172 413.579,224.506 415,220.5C 415.708,219.619 416.542,218.953 417.5,218.5 Z"/></g>
<g><path style="opacity:1" fill="#e1d9b6" d="M 85.5,221.5 C 83.658,223.646 81.9913,225.979 80.5,228.5C 81.2261,225.821 82.0594,223.154 83,220.5C 84.4609,219.117 85.2942,219.451 85.5,221.5 Z"/></g>
<g><path style="opacity:1" fill="#edede5" d="M 608.5,235.5 C 606.461,234.089 605.461,232.089 605.5,229.5C 603.234,229.141 601.401,229.808 600,231.5C 599.667,230.833 599.333,230.167 599,229.5C 598.8,231.32 597.966,232.653 596.5,233.5C 597.713,228.196 599.713,223.196 602.5,218.5C 604.506,224.185 606.506,229.851 608.5,235.5 Z"/></g>
<g><path style="opacity:1" fill="#e7ecec" d="M 418.5,228.5 C 424.981,228.072 429.648,230.738 432.5,236.5C 432.5,237.167 432.5,237.833 432.5,238.5C 428.503,237.399 424.503,236.232 420.5,235C 417.408,233.541 416.742,231.374 418.5,228.5 Z"/></g>
<g><path style="opacity:1" fill="#e0e7ed" d="M 500.5,236.5 C 508.792,236.81 516.959,237.81 525,239.5C 522.957,249.648 520.79,259.814 518.5,270C 514.61,271.132 510.777,271.299 507,270.5C 504.519,259.24 502.352,247.907 500.5,236.5 Z"/></g>
<g><path style="opacity:1" fill="#bea954" d="M 289.5,259.5 C 289.741,257.102 289.074,255.102 287.5,253.5C 286.375,251.871 285.041,250.371 283.5,249C 279.436,248.29 275.603,247.123 272,245.5C 270.859,237.992 274.026,235.492 281.5,238C 294.021,241.505 299.855,249.671 299,262.5C 294.462,265.695 291.295,264.695 289.5,259.5 Z"/></g>
<g><path style="opacity:1" fill="#e2e8ea" d="M 502.5,271.5 C 497.737,261.557 493.737,251.223 490.5,240.5C 493.852,238.726 496.019,239.726 497,243.5C 498.644,252.885 500.477,262.219 502.5,271.5 Z"/></g>
<g><path style="opacity:1" fill="#dce4eb" d="M 530.5,240.5 C 537.814,241.732 545.148,242.899 552.5,244C 553.333,244.833 554.167,245.667 555,246.5C 556.055,254.149 556.388,261.815 556,269.5C 551.726,271.715 547.226,273.548 542.5,275C 533.854,282.209 527.187,280.542 522.5,270C 526.119,260.395 528.786,250.562 530.5,240.5 Z"/></g>
<g><path style="opacity:1" fill="#f0f3f6" d="M 623.5,249.5 C 622.691,247.972 622.024,246.306 621.5,244.5C 623.723,241.793 626.723,240.293 630.5,240C 645.633,238.153 658.133,242.987 668,254.5C 667.924,266.577 661.757,272.743 649.5,273C 642.059,275.355 636.559,273.188 633,266.5C 630.243,261.318 627.743,255.985 625.5,250.5C 625.043,249.702 624.376,249.369 623.5,249.5 Z"/></g>
<g><path style="opacity:1" fill="#e9e3c7" d="M 77.5,238.5 C 77.2299,242.358 75.8966,245.691 73.5,248.5C 74.2667,244.851 75.6001,241.518 77.5,238.5 Z"/></g>
<g><path style="opacity:1" fill="#f3f4f5" d="M 581.5,244.5 C 577.758,256.86 573.424,268.86 568.5,280.5C 567.287,277.775 565.454,275.441 563,273.5C 560.881,263.929 560.214,254.262 561,244.5C 562.622,242.453 564.788,241.453 567.5,241.5C 570.267,241.786 572.934,242.453 575.5,243.5C 575.291,244.086 574.957,244.586 574.5,245C 576.847,245.334 579.181,245.167 581.5,244.5 Z"/></g>
<g><path style="opacity:1" fill="#f0f3f4" d="M 608.5,236.5 C 613.731,249.522 618.398,262.855 622.5,276.5C 621.288,275.77 620.288,274.77 619.5,273.5C 614.57,276.565 609.237,278.065 603.5,278C 601.689,273.244 599.856,268.411 598,263.5C 594.87,251.781 598.37,242.781 608.5,236.5 Z"/></g>
<g><path style="opacity:1" fill="#d7ca93" d="M 101.5,239.5 C 102.871,241.936 103.871,244.603 104.5,247.5C 102.345,245.383 101.345,242.716 101.5,239.5 Z"/></g>
<g><path style="opacity:1" fill="#e4ddbb" d="M 432.5,236.5 C 434.04,238.838 434.706,241.505 434.5,244.5C 433.542,242.698 432.875,240.698 432.5,238.5C 432.5,237.833 432.5,237.167 432.5,236.5 Z"/></g>
<g><path style="opacity:1" fill="#e5ebee" d="M 469.5,210.5 C 465.535,214.296 461.868,218.296 458.5,222.5C 458.848,224.697 459.848,226.53 461.5,228C 469.245,230.744 474.745,235.911 478,243.5C 478.762,263.872 469.262,270.872 449.5,264.5C 448.075,264.623 446.742,264.957 445.5,265.5C 446.073,258.823 446.74,252.157 447.5,245.5C 456.86,246.337 466.193,247.504 475.5,249C 476,249.5 476.5,250 477,250.5C 477.495,248.527 477.662,246.527 477.5,244.5C 469.556,243.648 461.722,242.315 454,240.5C 454.307,232.021 455.64,223.688 458,215.5C 461.36,212.861 465.193,211.194 469.5,210.5 Z"/></g>
<g><path style="opacity:1" fill="#e8e4cd" d="M 233.5,238.5 C 231.877,244.012 231.21,249.678 231.5,255.5C 230.355,251.689 230.188,247.689 231,243.5C 231.374,241.509 232.207,239.842 233.5,238.5 Z"/></g>
<g><path style="opacity:1" fill="#d6ca96" d="M 220.5,235.5 C 221.206,241.325 221.206,247.325 220.5,253.5C 219.666,247.67 219.666,241.67 220.5,235.5 Z"/></g>
<g><path style="opacity:1" fill="#f0f1ef" d="M 590.5,249.5 C 591.234,256.892 592.068,264.225 593,271.5C 589.87,273.628 587.037,276.128 584.5,279C 582.783,280.559 580.783,281.392 578.5,281.5C 581.987,270.547 585.987,259.88 590.5,249.5 Z"/></g>
<g><path style="opacity:1" fill="#bea954" d="M 329.5,254.5 C 336.503,253.673 339.003,256.673 337,263.5C 333.136,276.027 324.636,282.527 311.5,283C 309.604,281.192 309.104,279.025 310,276.5C 314.755,274.119 319.421,271.452 324,268.5C 326.506,264.039 328.339,259.372 329.5,254.5 Z"/></g>
<g><path style="opacity:1" fill="#beaa55" d="M 417.5,272.5 C 418.114,276.135 418.448,279.802 418.5,283.5C 418.315,285.89 416.982,286.89 414.5,286.5C 412.486,286.563 410.819,285.897 409.5,284.5C 409.59,281.848 408.924,279.515 407.5,277.5C 407.378,273.853 405.712,271.019 402.5,269C 398.685,266.14 394.352,264.807 389.5,265C 385.5,261.667 385.5,258.333 389.5,255C 402.814,254.489 412.147,260.322 417.5,272.5 Z"/></g>
<g><path style="opacity:1" fill="#eae3c7" d="M 287.5,253.5 C 289.074,255.102 289.741,257.102 289.5,259.5C 287.926,257.898 287.259,255.898 287.5,253.5 Z"/></g>
<g><path style="opacity:1" fill="#e2e7e7" d="M 496.5,284.5 C 487.051,283.067 482.385,277.733 482.5,268.5C 483.874,266.286 485.041,263.953 486,261.5C 486.667,260.167 487.333,260.167 488,261.5C 491.135,269.075 493.969,276.741 496.5,284.5 Z"/></g>
<g><path style="opacity:1" fill="#e4e9ec" d="M 480.5,270.5 C 480.784,273.777 480.451,276.943 479.5,280C 472.592,282.28 465.592,284.113 458.5,285.5C 458.5,282.833 458.5,280.167 458.5,277.5C 466.483,277.335 473.816,275.002 480.5,270.5 Z"/></g>
<g><path style="opacity:1" fill="#dfe6eb" d="M 520.5,316.5 C 514.014,304.06 508.681,291.06 504.5,277.5C 509.086,274.703 514.086,273.869 519.5,275C 521.549,277.593 523.715,280.093 526,282.5C 526.669,290.021 527.502,297.521 528.5,305C 527.109,308.729 524.609,311.563 521,313.5C 520.517,314.448 520.351,315.448 520.5,316.5 Z"/></g>
<g><path style="opacity:1" fill="#dad6bc" d="M 445.5,272.5 C 447.074,274.102 447.741,276.102 447.5,278.5C 445.926,276.898 445.259,274.898 445.5,272.5 Z"/></g>
<g><path style="opacity:1" fill="#d7ca94" d="M 417.5,272.5 C 419.569,276.044 419.902,279.71 418.5,283.5C 418.448,279.802 418.114,276.135 417.5,272.5 Z"/></g>
<g><path style="opacity:1" fill="#edf0f3" d="M 627.5,292.5 C 628.539,295.083 629.872,297.583 631.5,300C 638.009,300.876 640.176,298.043 638,291.5C 636.241,287.991 635.074,284.325 634.5,280.5C 638.746,278.027 643.412,277.027 648.5,277.5C 652.858,277.302 657.025,277.968 661,279.5C 661.267,289.77 659.934,299.77 657,309.5C 652.169,314.073 646.335,316.073 639.5,315.5C 635.82,315.941 632.653,314.941 630,312.5C 629.162,305.82 628.328,299.153 627.5,292.5 Z"/></g>
<g><path style="opacity:1" fill="#e8e2c8" d="M 407.5,277.5 C 408.924,279.515 409.59,281.848 409.5,284.5C 408.076,282.485 407.41,280.152 407.5,277.5 Z"/></g>
<g><path style="opacity:1" fill="#dce3ea" d="M 567.5,283.5 C 564.122,293.651 559.788,303.318 554.5,312.5C 554.082,311.778 553.416,311.278 552.5,311C 546.484,310.093 540.484,309.093 534.5,308C 534,307.5 533.5,307 533,306.5C 531.797,299.196 531.463,291.863 532,284.5C 540.874,281.545 549.54,278.211 558,274.5C 560.971,277.636 564.138,280.636 567.5,283.5 Z"/></g>
<g><path style="opacity:1" fill="#f2f4f7" d="M 588.5,280.5 C 595.01,280.614 600.843,282.614 606,286.5C 608.863,293.121 611.03,299.954 612.5,307C 612.079,311.675 610.412,315.841 607.5,319.5C 602.264,323.944 596.598,327.61 590.5,330.5C 581.892,328.66 576.892,323.326 575.5,314.5C 577.063,303.659 579.729,293.159 583.5,283C 585.315,282.243 586.981,281.41 588.5,280.5 Z"/></g>
<g><path style="opacity:1" fill="#f4f6f9" d="M 104.5,277.5 C 105.738,279.214 106.405,281.214 106.5,283.5C 106.873,286.574 107.539,289.574 108.5,292.5C 107.733,299.761 105.899,306.761 103,313.5C 98.6497,316.729 93.8163,317.896 88.5,317C 83.7286,313.862 79.2286,310.362 75,306.5C 73.6543,302.438 72.821,298.272 72.5,294C 72.3049,291.648 72.9716,289.648 74.5,288C 79.0006,285.584 83.3339,282.917 87.5,280C 90.1667,279.333 92.8333,279.333 95.5,280C 98.4318,281.145 101.432,281.978 104.5,282.5C 104.5,280.833 104.5,279.167 104.5,277.5 Z"/></g>
<g><path style="opacity:1" fill="#e4eaef" d="M 479.5,284.5 C 485.421,283.877 490.254,285.877 494,290.5C 497.112,297.95 499.112,305.617 500,313.5C 494.912,316.583 490.412,320.417 486.5,325C 485.333,325.167 484.167,325.333 483,325.5C 475.124,323.063 467.458,320.063 460,316.5C 459.132,307.39 459.799,298.39 462,289.5C 468,288.009 473.833,286.343 479.5,284.5 Z"/></g>
<g><path style="opacity:1" fill="#f5f7fa" d="M 667.5,283.5 C 671.105,283.799 674.439,284.965 677.5,287C 683.25,290.626 689.084,294.126 695,297.5C 696.299,304.143 695.965,310.81 694,317.5C 693.654,319.848 692.487,321.681 690.5,323C 680.061,325.439 670.894,323.272 663,316.5C 662.077,314.966 661.577,313.299 661.5,311.5C 663.129,302.016 665.129,292.683 667.5,283.5 Z"/></g>
<g><path style="opacity:1" fill="#e2dab7" d="M 106.5,283.5 C 109.068,288.525 111.068,293.859 112.5,299.5C 110.794,297.388 109.461,295.055 108.5,292.5C 107.539,289.574 106.873,286.574 106.5,283.5 Z"/></g>
<g><path style="opacity:1" fill="#cbba76" d="M 115.5,280.5 C 117.204,283.939 118.538,287.605 119.5,291.5C 118.85,291.196 118.183,290.863 117.5,290.5C 116.402,287.247 115.736,283.914 115.5,280.5 Z"/></g>
<g><path style="opacity:1" fill="#e6deba" d="M 253.5,279.5 C 252.746,284.463 252.413,289.463 252.5,294.5C 251.353,290.354 251.186,286.02 252,281.5C 252.278,280.584 252.778,279.918 253.5,279.5 Z"/></g>
<g><path style="opacity:1" fill="#d1c285" d="M 293.5,298.5 C 294.323,301.684 294.99,305.017 295.5,308.5C 294.883,308.389 294.383,308.056 294,307.5C 293.502,304.518 293.335,301.518 293.5,298.5 Z"/></g>
<g><path style="opacity:1" fill="#d7dad2" d="M 570.5,302.5 C 570.196,305.522 569.696,308.522 569,311.5C 568.184,312.823 567.017,313.489 565.5,313.5C 566.93,309.646 568.597,305.979 570.5,302.5 Z"/></g>
<g><path style="opacity:1" fill="#f3f5f8" d="M 67.5,312.5 C 70.1873,312.336 72.854,312.503 75.5,313C 79.3333,316.167 83.1667,319.333 87,322.5C 87.1931,333.837 86.8597,345.17 86,356.5C 83.9656,358.032 81.7989,359.365 79.5,360.5C 71.1238,357.822 62.7904,354.988 54.5,352C 53.6667,351.167 52.8333,350.333 52,349.5C 51.4532,346.298 50.4532,343.298 49,340.5C 48.6633,337.139 48.1633,333.806 47.5,330.5C 54.4593,324.877 61.126,318.877 67.5,312.5 Z"/></g>
<g><path style="opacity:1" fill="#dce3e7" d="M 552.5,315.5 C 548.998,323.166 543.164,328.166 535,330.5C 528.781,329.111 524.614,325.445 522.5,319.5C 526.672,312.882 532.672,310.715 540.5,313C 544.447,314.154 548.447,314.987 552.5,315.5 Z"/></g>
<g><path style="opacity:1" fill="#d3c588" d="M 256.5,314.5 C 262.012,316.123 267.678,316.79 273.5,316.5C 269.354,317.647 265.02,317.814 260.5,317C 258.934,316.392 257.6,315.558 256.5,314.5 Z"/></g>
<g><path style="opacity:1" fill="#e1e8ee" d="M 510.5,319.5 C 512.467,322.477 514.467,325.477 516.5,328.5C 515.876,328.917 515.543,329.584 515.5,330.5C 516.378,336.69 517.378,342.857 518.5,349C 513.692,353.628 508.025,356.795 501.5,358.5C 493.068,356.706 488.568,351.373 488,342.5C 487.333,338.5 487.333,334.5 488,330.5C 491.867,326.298 496.033,322.465 500.5,319C 503.516,318.336 506.349,318.836 509,320.5C 509.765,320.43 510.265,320.097 510.5,319.5 Z"/></g>
<g><path style="opacity:1" fill="#efead7" d="M 369.5,320.5 C 376.411,321.993 383.411,322.659 390.5,322.5C 385.35,323.651 380.016,323.817 374.5,323C 372.685,322.243 371.019,321.41 369.5,320.5 Z"/></g>
<g><path style="opacity:1" fill="#f2f4f7" d="M 614.5,320.5 C 624.628,318.127 630.128,322.127 631,332.5C 632.138,344.808 632.638,357.141 632.5,369.5C 625.785,369.32 619.285,367.986 613,365.5C 604.665,358.515 600.998,349.515 602,338.5C 604.474,331.214 608.641,325.214 614.5,320.5 Z"/></g>
<g><path style="opacity:1" fill="#f4f6f9" d="M 18.5,321.5 C 25.4271,323.371 32.2604,325.704 39,328.5C 40.5,329.333 41.6667,330.5 42.5,332C 44.7095,339.04 45.8761,346.206 46,353.5C 40.8559,358.921 34.5225,360.921 27,359.5C 22.9177,359.484 18.9177,359.151 15,358.5C 14.3333,347.167 14.3333,335.833 15,324.5C 16.1451,323.364 17.3117,322.364 18.5,321.5 Z"/></g>
<g><path style="opacity:1" fill="#e5ebf0" d="M 455.5,322.5 C 464.313,324.041 472.98,326.541 481.5,330C 484.228,336.223 485.062,342.723 484,349.5C 476.125,352.519 468.292,355.686 460.5,359C 458.365,359.635 456.365,359.301 454.5,358C 450,353.5 445.5,349 441,344.5C 439.995,333.335 444.828,326.002 455.5,322.5 Z"/></g>
<g><path style="opacity:1" fill="#eee8d1" d="M 307.5,322.5 C 313.68,324.182 320.013,324.848 326.5,324.5C 322.019,325.648 317.352,325.815 312.5,325C 310.509,324.626 308.842,323.793 307.5,322.5 Z"/></g>
<g><path style="opacity:1" fill="#f3f5f7" d="M 568.5,328.5 C 578.294,328.823 587.128,331.823 595,337.5C 594.467,345.741 591.3,352.908 585.5,359C 576.816,363.829 568.316,363.662 560,358.5C 557.495,355.181 556.495,351.514 557,347.5C 560.342,340.806 564.175,334.473 568.5,328.5 Z"/></g>
<g><path style="opacity:1" fill="#cbba75" d="M 304.5,332.5 C 312.688,334.283 321.021,334.95 329.5,334.5C 323.042,336.975 316.375,337.142 309.5,335C 307.509,334.626 305.842,333.793 304.5,332.5 Z"/></g>
<g><path style="opacity:1" fill="#dbe3e8" d="M 563.5,317.5 C 561.583,325.432 559.75,333.432 558,341.5C 555.294,344.591 553.627,348.258 553,352.5C 549.941,356.117 546.108,357.617 541.5,357C 535.898,354.799 530.231,352.799 524.5,351C 521.912,345.853 520.912,340.353 521.5,334.5C 531.898,341.53 541.898,340.863 551.5,332.5C 555.554,327.457 559.554,322.457 563.5,317.5 Z"/></g>
<g><path style="opacity:1" fill="#f6f7f9" d="M 450.5,383.5 C 441.833,383.5 433.167,383.5 424.5,383.5C 423.63,377.355 422.13,371.355 420,365.5C 419.176,362.118 419.343,358.784 420.5,355.5C 426.409,351.86 432.743,350.027 439.5,350C 444.306,354.806 449.14,359.64 454,364.5C 453.011,370.806 451.844,377.139 450.5,383.5 Z"/></g>
<g><path style="opacity:1" fill="#dee5ec" d="M 538.5,383.5 C 526.167,383.5 513.833,383.5 501.5,383.5C 499.515,376.565 498.015,369.565 497,362.5C 500.737,362.207 504.57,362.041 508.5,362C 512.49,358.83 516.823,356.33 521.5,354.5C 527.751,357.028 534.084,359.362 540.5,361.5C 540.833,362.167 541.167,362.833 541.5,363.5C 539.065,369.949 538.065,376.615 538.5,383.5 Z"/></g>
<g><path style="opacity:1" fill="#e3eaef" d="M 496.5,383.5 C 483.167,383.5 469.833,383.5 456.5,383.5C 457.223,378.16 458.057,372.827 459,367.5C 466.718,361.644 475.384,357.644 485,355.5C 488.06,355.225 490.06,356.558 491,359.5C 493.587,367.368 495.42,375.368 496.5,383.5 Z"/></g>
<g><path style="opacity:1" fill="#f0f3f6" d="M 149.5,383.5 C 139.167,383.5 128.833,383.5 118.5,383.5C 118.038,377.121 117.538,370.788 117,364.5C 119.195,362.312 121.695,360.479 124.5,359C 132.231,358.71 139.897,359.377 147.5,361C 148.931,361.465 150.097,362.299 151,363.5C 151.327,370.222 150.827,376.888 149.5,383.5 Z"/></g>
<g><path style="opacity:1" fill="#edf0f3" d="M 35.5,383.5 C 23.5,383.5 11.5,383.5 -0.5,383.5C -0.5,379.5 -0.5,375.5 -0.5,371.5C 3.83789,369.331 8.17122,367.164 12.5,365C 20.8333,364.333 29.1667,364.333 37.5,365C 38.0585,365.725 38.3918,366.558 38.5,367.5C 36.859,372.727 35.859,378.061 35.5,383.5 Z"/></g>
</svg>
