<svg xmlns="http://www.w3.org/2000/svg" width="200" height="200" style="shape-rendering:geometricPrecision;text-rendering:geometricPrecision;image-rendering:optimizeQuality;fill-rule:evenodd;clip-rule:evenodd"><path style="opacity:1" fill="#fdfefe" d="M-.5-.5h200v200H-.5V-.5z"/><path style="opacity:1" fill="#4bb7e8" d="M92.5 2.5a183.173 183.173 0 0 1 24 12 259.638 259.638 0 0 1-23.5 12 32.437 32.437 0 0 1-.5-8c-30.779 4.97-52.612 21.637-65.5 50-4.303 11.955-6.136 24.288-5.5 37h-7c-1.342-36.826 13.658-64.66 45-83.5 10.277-5.815 21.277-9.315 33-10.5v-9z"/><path style="opacity:1" fill="#4db7e8" d="M128.5 15.5c32.648 10.487 53.148 32.487 61.5 66a112.312 112.312 0 0 1 1.5 17 351.76 351.76 0 0 1-2.5 26 60.631 60.631 0 0 0 6.5 3.5L174 145.5a131.26 131.26 0 0 1 .5-28l6 3c9.386-39.745-3.28-70.579-38-92.5-4.707-2.735-9.707-4.568-15-5.5a51.56 51.56 0 0 1 1-7z"/><path style="opacity:1" fill="#51b9e9" d="M155.5 83.5c-4.532.318-8.866-.015-13-1 8.346-1.694 10.512-6.36 6.5-14-2.195-2.43-4.862-4.097-8-5-5.891 5.198-12.724 7.365-20.5 6.5-1.333-1.667-1.333-3.333 0-5 18.359-1.05 21.026-8.05 8-21-8.208-5.087-16.042-4.587-23.5 1.5a268.981 268.981 0 0 0 .5 39h-8a395.788 395.788 0 0 0-1-39.5c-10.805-7.094-20.305-5.594-28.5 4.5-5.065 8.038-2.898 12.871 6.5 14.5 4.358 1.075 8.358.408 12-2 1.634-.493 3.3-.66 5-.5a8.434 8.434 0 0 1-.5 4c-3.364 1.924-4.198 4.59-2.5 8-.451 1.812-1.618 2.812-3.5 3-2.142-2.469-4.642-4.635-7.5-6.5-6.326-.499-11.993-2.665-17-6.5-7.673 2.315-10.673 7.315-9 15l1.5 1c5.51-4.17 11.677-5.67 18.5-4.5 1.63 3.062.63 4.729-3 5a14.582 14.582 0 0 1 6 4c-9.327.5-18.66.666-28 .5-5.04-13.255-.873-22.255 12.5-27 2.382-14.046 10.715-21.38 25-22 6.131.043 11.798 1.71 17 5 15.032-8.575 28.032-6.242 39 7a43.088 43.088 0 0 1 2 9 109.372 109.372 0 0 0 10.5 6.5c5.373 6.146 6.373 12.98 3 20.5z"/><path style="opacity:1" fill="#6ac1eb" d="M134.5 84.5h-1c-2.292.256-4.459-.077-6.5-1-.456-2.213.544-3.213 3-3 2.563.118 4.063 1.451 4.5 4z"/><path style="opacity:1" fill="#a1d9f3" d="M142.5 82.5c4.134.985 8.468 1.318 13 1-5.15 1.15-10.484 1.317-16 .5.744-1.039 1.744-1.539 3-1.5z"/><path style="opacity:1" fill="#f79837" d="M133.5 84.5h4v4h-4v-4z"/><path style="opacity:1" fill="#f8b369" d="M38.5 86.5v22h4c-1.419.951-3.085 1.284-5 1-.325-7.852.008-15.518 1-23z"/><path style="opacity:1" fill="#f7942e" d="M38.5 86.5c3.35-.165 6.683.002 10 .5 3.792 2.053 4.958 5.22 3.5 9.5a4.452 4.452 0 0 0-1.5 2 10.76 10.76 0 0 1 2.5 3 33.995 33.995 0 0 0 1.5 7.5c-1.667.667-3.333.667-5 0a33.995 33.995 0 0 1-1.5-7.5c-1.7-.906-3.533-1.239-5.5-1v8h-4v-22z"/><path style="opacity:1" fill="#f79634" d="M119.5 97.5c-.283-.79-.783-1.456-1.5-2a98.432 98.432 0 0 0-.5 14h-4v-23c1.788-.285 3.455.048 5 1l6.5 13c.499-4.655.666-9.322.5-14h5v23c-1.967.239-3.801-.094-5.5-1l-5.5-11z"/><path style="opacity:1" fill="#fffbf7" d="M42.5 90.5c5.167-1.008 6.834.825 5 5.5-1.634.493-3.3.66-5 .5v-6z"/><path style="opacity:1" fill="#f79736" d="M58.5 92.5c7.937-1.5 11.604 1.834 11 10a21.128 21.128 0 0 0-9 1c1.95 2.253 4.284 2.586 7 1 .929 1.189 1.262 2.522 1 4-7.69 3.125-12.023.625-13-7.5.318-3.123 1.318-5.956 3-8.5z"/><path style="opacity:1" fill="#f7932d" d="M71.5 92.5c3.526.44 7.193.606 11 .5 2.246 4.478 2.58 9.144 1 14-2.069 2.547-4.569 3.047-7.5 1.5a24.939 24.939 0 0 0-.5 7h-4v-23z"/><path style="opacity:1" fill="#f89b3f" d="M86.5 92.5c3.154.595 6.154.595 9 0v5h-4v12h-5v-17z"/><path style="opacity:1" fill="#f79632" d="M99.5 92.5c7.362-1.796 11.029 1.038 11 8.5.141 6.935-3.192 9.602-10 8-4.996-5.153-5.33-10.653-1-16.5z"/><path style="opacity:1" fill="#f7922a" d="M133.5 92.5h4v17h-4v-17z"/><path style="opacity:1" fill="#f79736" d="M140.5 92.5c6.612.038 13.278.205 20 .5a9.457 9.457 0 0 1 1.5 2.5c.499 4.655.666 9.321.5 14h-5v-13h-4v13h-4v-13h-4v13h-5v-17z"/><path style="opacity:1" fill="#fef8f2" d="M76.5 96.5c1.322-.17 2.489.163 3.5 1 1.031 3.183.365 5.849-2 8a3.944 3.944 0 0 1-2-1c-.722-2.761-.555-5.427.5-8z"/><path style="opacity:1" fill="#fff7f0" d="M101.5 96.5c1.644-.213 3.144.12 4.5 1 .769 2.599.602 5.099-.5 7.5-1.284.684-2.451.517-3.5-.5a32.462 32.462 0 0 1-.5-8z"/><path style="opacity:1" fill="#fbd3aa" d="m119.5 97.5-2 12a98.432 98.432 0 0 1 .5-14c.717.544 1.217 1.21 1.5 2z"/><path style="opacity:1" fill="#fdebd9" d="M61.5 96.5h3v3c-3.067.38-4.067-.62-3-3z"/><path style="opacity:1" fill="#73c5ec" d="M100.5 117.5h3c-.166 6.009.001 12.009.5 18 1.938 2.459 1.271 4.126-2 5-1.732-.234-2.566-1.234-2.5-3a113.171 113.171 0 0 0 1-20z"/><path style="opacity:1" fill="#4eb8e8" d="M18.5 116.5a191.57 191.57 0 0 1 21 19.5 21.033 21.033 0 0 0-7 4c21.556 34.089 52.223 46.756 92 38 15.496-4.668 28.829-12.835 40-24.5 2.01 1.002 4.01 2.002 6 3-21.947 24.264-49.28 34.431-82 30.5-28.17-5.582-49.504-20.749-64-45.5a35.175 35.175 0 0 1-8 2 613.855 613.855 0 0 1 2-27z"/><path style="opacity:1" fill="#6ec4ec" d="M107.5 117.5c1.235.221 2.235.888 3 2 2.039-2.692 2.873-2.358 2.5 1-3.466 1.85-5.299.85-5.5-3z"/><path style="opacity:1" fill="#5dbeea" d="M90.5 117.5c1.359.507 2.359 1.507 3 3 1.85-.742 2.516-1.742 2-3 1.23 3.583-.104 4.749-4 3.5-.837-1.011-1.17-2.178-1-3.5z"/><path style="opacity:1" fill="#b4e1f5" d="M123.5 120.5h15a25.879 25.879 0 0 1-1 10c-.607-.124-.94-.457-1-1 .973-2.448 1.306-5.115 1-8-4.863.319-9.53-.014-14-1z"/><path style="opacity:1" fill="#5ebdea" d="M136.5 129.5c.06.543.393.876 1 1a25.879 25.879 0 0 0 1-10h-15c-.453-.958-1.119-1.792-2-2.5 3.12.008 6.286.175 9.5.5a43.645 43.645 0 0 0 9.5-2 64.873 64.873 0 0 0 1 16c1.691-1.756 3.691-2.256 6-1.5 1.333 1.333 1.333 2.667 0 4-7.107.595-12.774-2.071-17-8a72.464 72.464 0 0 0-17 0c-2.076 1.884-2.41 4.051-1 6.5a46.607 46.607 0 0 1 6 5.5c3.652.499 7.318.665 11 .5-1.309-4.761-4.309-6.094-9-4-1.766.066-2.766-.768-3-2.5.234-1.732 1.234-2.566 3-2.5 4.325 1.041 8.158 3.041 11.5 6a12.93 12.93 0 0 1 .5 5 112.97 112.97 0 0 1-15-.5 34.706 34.706 0 0 0-7.5-6.5c-1.098-3.781-.265-6.947 2.5-9.5a90.455 90.455 0 0 1 19 0 31.447 31.447 0 0 0 5 4.5z"/><path style="opacity:1" fill="#6dc3ec" d="M63.5 116.5a43.646 43.646 0 0 0 9.5 2 89.157 89.157 0 0 1 10.5-.5l-3 3a98.433 98.433 0 0 1-14 .5 16.868 16.868 0 0 0 1 8c4.006-4.407 9.006-6.073 15-5 8.164-1.961 12.33 1.039 12.5 9-6.01 7.535-13.844 10.202-23.5 8-.16-1.699.007-3.366.5-5a28.092 28.092 0 0 1 12-6c2.157.885 2.99 2.552 2.5 5a64.93 64.93 0 0 0-9-.5c-1.939.908-2.939 2.408-3 4.5a60.93 60.93 0 0 0 11-.5 26.91 26.91 0 0 1 6.5-5.5c.896-2.525.396-4.692-1.5-6.5-9.877-2.559-18.21-.225-25 7-2.254 1.15-4.587 1.484-7 1-1.436-4.061-.102-5.227 4-3.5a57.124 57.124 0 0 0 1-15z"/><path style="opacity:1" fill="#64bfeb" d="M146.5 117.5c1.869 2.135 2.536 4.802 2 8 5.591.41 8.258-2.257 8-8 1.92 4.285.92 7.619-3 10a62.744 62.744 0 0 0-1.5 11c-1.558 2.268-3.724 3.434-6.5 3.5-2.489 3.688-5.822 5.855-10 6.5-.312 5.636-3.312 7.969-9 7-1.271 5.814-4.938 8.481-11 8-10.375-.283-14.042-5.449-11-15.5 1.284-.684 2.451-.517 3.5.5-2.551 10.782 1.616 14.949 12.5 12.5 2.246-1.257 3.579-3.09 4-5.5-3.631-.468-6.965.199-10 2-3.738-1.647-3.904-3.647-.5-6 5.602 2.042 11.436 2.542 17.5 1.5 1.537-1.11 2.203-2.61 2-4.5-6.675.166-13.342 0-20-.5-2.162-2.391-4.662-2.891-7.5-1.5-2.157-.885-2.99-2.552-2.5-5 4.042.523 7.709 2.023 11 4.5 8 .667 16 .667 24 0l4-4c-2.094 1.094-4.427 1.428-7 1-1.017-1.049-1.184-2.216-.5-3.5 4.399-.193 8.899-.359 13.5-.5.96-3.73 1.293-7.563 1-11.5h-3v-10z"/><path style="opacity:1" fill="#62bfeb" d="M46.5 117.5c1.502 2.268 2.835 4.768 4 7.5 1.634.494 3.3.66 5 .5a16.868 16.868 0 0 1 1-8 25.87 25.87 0 0 1 1 10h-3a31.12 31.12 0 0 0 1 11 91.913 91.913 0 0 0 14.5 1c.251 2.103-.749 3.437-3 4-7.03-2.637-7.197-1.803-.5 2.5 8 .667 16 .667 24 0 2.708-3.715 6.208-4.882 10.5-3.5.684 1.284.517 2.451-.5 3.5-1.877.576-3.71.409-5.5-.5-1.434.43-2.6 1.264-3.5 2.5-6.658.5-13.325.666-20 .5-.273 1.951.393 3.451 2 4.5a86.22 86.22 0 0 0 20-.5c.493 4.697-1.174 5.863-5 3.5a32.462 32.462 0 0 0-8-.5c-.107 2.403.893 4.236 3 5.5 4.851 1.258 9.185.424 13-2.5 1.353-3.045 1.02-5.879-1-8.5 2.036-3.293 4.036-3.127 6 .5-1.61 2.72-2.444 5.72-2.5 9-4.785 3.873-10.285 5.04-16.5 3.5-2.897-1.715-4.23-4.215-4-7.5-5.968 1.041-9.3-1.292-10-7-4.211-.693-7.545-2.86-10-6.5-2.534-.516-4.7-1.683-6.5-3.5.49-5.619-1.177-10.285-5-14a24.939 24.939 0 0 1-.5-7z"/></svg>