<?xml version="1.0" encoding="UTF-8"?>
<!DOCTYPE svg PUBLIC "-//W3C//DTD SVG 1.1//EN" "http://www.w3.org/Graphics/SVG/1.1/DTD/svg11.dtd">
<svg xmlns="http://www.w3.org/2000/svg" version="1.1" width="183px" height="90px" style="shape-rendering:geometricPrecision; text-rendering:geometricPrecision; image-rendering:optimizeQuality; fill-rule:evenodd; clip-rule:evenodd" xmlns:xlink="http://www.w3.org/1999/xlink">
<g><path style="opacity:1" fill="#fbfdfd" d="M -0.5,-0.5 C 60.5,-0.5 121.5,-0.5 182.5,-0.5C 182.5,29.5 182.5,59.5 182.5,89.5C 121.5,89.5 60.5,89.5 -0.5,89.5C -0.5,59.5 -0.5,29.5 -0.5,-0.5 Z"/></g>
<g><path style="opacity:1" fill="#14202c" d="M 147.5,52.5 C 147.5,43.5 147.5,34.5 147.5,25.5C 149.451,25.2267 150.951,25.8934 152,27.5C 161.492,22.774 168.825,25.1074 174,34.5C 174.499,40.4908 174.666,46.4908 174.5,52.5C 172.5,52.5 170.5,52.5 168.5,52.5C 168.666,46.8236 168.499,41.1569 168,35.5C 165.459,30.9315 161.625,29.4315 156.5,31C 155.333,32.1667 154.167,33.3333 153,34.5C 152.501,40.4908 152.334,46.4908 152.5,52.5C 150.833,52.5 149.167,52.5 147.5,52.5 Z"/></g>
<g><path style="opacity:1" fill="#121f2b" d="M 54.5,40.5 C 47.5,40.5 40.5,40.5 33.5,40.5C 33.2627,41.791 33.596,42.791 34.5,43.5C 35.2899,44.7942 36.2899,45.9609 37.5,47C 41.8484,47.8873 46.015,47.3873 50,45.5C 53.1366,46.9449 53.3033,48.7783 50.5,51C 39.4481,55.988 31.9481,52.8213 28,41.5C 27.5,30 33,24.5 44.5,25C 52.0794,27.6989 55.4127,32.8655 54.5,40.5 Z"/></g>
<g><path style="opacity:1" fill="#d3dbdf" d="M 147.5,25.5 C 147.5,34.5 147.5,43.5 147.5,52.5C 146.776,49.9174 145.943,47.2507 145,44.5C 144.617,45.056 144.117,45.3893 143.5,45.5C 145.575,39.1753 144.575,33.5087 140.5,28.5C 141.5,28.5 142.5,28.5 143.5,28.5C 143.5,29.5 143.5,30.5 143.5,31.5C 144.5,31.5 145.5,31.5 146.5,31.5C 146.205,29.2646 146.539,27.2646 147.5,25.5 Z"/></g>
<g><path style="opacity:1" fill="#eef3f5" d="M 38.5,29.5 C 43.7905,28.6434 47.4572,30.6434 49.5,35.5C 44.1667,36.8333 38.8333,36.8333 33.5,35.5C 34.497,32.845 36.1637,30.845 38.5,29.5 Z"/></g>
<g><path style="opacity:1" fill="#17222e" d="M 17.5,24.5 C 19.8568,24.3367 22.1902,24.5034 24.5,25C 29.4494,26.3212 29.7827,28.4878 25.5,31.5C 21.5466,29.8531 18.0466,30.5198 15,33.5C 14.5005,39.8246 14.3338,46.1579 14.5,52.5C 12.5,52.5 10.5,52.5 8.5,52.5C 8.5,43.5 8.5,34.5 8.5,25.5C 10.5914,25.3184 12.5914,25.6518 14.5,26.5C 15.7387,26.0576 16.7387,25.3909 17.5,24.5 Z"/></g>
<g><path style="opacity:1" fill="#d6fafc" d="M 78.5,25.5 C 78.3343,29.8461 78.501,34.1794 79,38.5C 82.5767,32.1199 87.7434,29.7865 94.5,31.5C 91.7938,31.5751 89.1272,31.9084 86.5,32.5C 86.5,39.5 86.5,46.5 86.5,53.5C 79.8164,53.7803 73.1497,53.947 66.5,54C 65.0577,53.6232 64.0577,52.7899 63.5,51.5C 68.1406,54.1586 72.8073,54.1586 77.5,51.5C 79.7466,52.3742 82.0799,52.7076 84.5,52.5C 84.6657,48.1539 84.499,43.8206 84,39.5C 82.9609,40.7101 81.7942,41.7101 80.5,42.5C 80.5,41.5 80.5,40.5 80.5,39.5C 79.1667,39.5 77.8333,39.5 76.5,39.5C 75.8969,34.3814 76.5636,29.7147 78.5,25.5 Z"/></g>
<g><path style="opacity:1" fill="#32bcd3" d="M 94.5,31.5 C 87.7434,29.7865 82.5767,32.1199 79,38.5C 78.501,34.1794 78.3343,29.8461 78.5,25.5C 80.9201,25.2924 83.2534,25.6258 85.5,26.5C 94.9977,22.8304 101.498,25.8304 105,35.5C 105.499,41.1569 105.666,46.8236 105.5,52.5C 103.5,52.5 101.5,52.5 99.5,52.5C 99.6661,46.8236 99.4994,41.1569 99,35.5C 98.2525,33.249 96.7525,31.9156 94.5,31.5 Z"/></g>
<g><path style="opacity:1" fill="#1d2934" d="M 108.5,25.5 C 110.5,25.5 112.5,25.5 114.5,25.5C 114.5,34.5 114.5,43.5 114.5,52.5C 112.5,52.5 110.5,52.5 108.5,52.5C 108.5,43.5 108.5,34.5 108.5,25.5 Z"/></g>
<g><path style="opacity:1" fill="#13202c" d="M 140.5,28.5 C 144.575,33.5087 145.575,39.1753 143.5,45.5C 136.031,55.1637 127.864,55.8304 119,47.5C 113.69,33.2645 118.524,25.7645 133.5,25C 136.139,25.6529 138.473,26.8196 140.5,28.5 Z"/></g>
<g><path style="opacity:1" fill="#f4f7f7" d="M 127.5,30.5 C 135.498,30.0001 139.331,33.6668 139,41.5C 136.549,47.0891 132.383,48.9224 126.5,47C 119.671,41.0031 120.004,35.5031 127.5,30.5 Z"/></g>
<g><path style="opacity:1" fill="#a4abb1" d="M 54.5,40.5 C 47.6046,40.8498 40.9379,41.8498 34.5,43.5C 33.596,42.791 33.2627,41.791 33.5,40.5C 40.5,40.5 47.5,40.5 54.5,40.5 Z"/></g>
<g><path style="opacity:1" fill="#31bcd5" d="M 80.5,42.5 C 81.7942,41.7101 82.9609,40.7101 84,39.5C 84.499,43.8206 84.6657,48.1539 84.5,52.5C 82.0799,52.7076 79.7466,52.3742 77.5,51.5C 72.8073,54.1586 68.1406,54.1586 63.5,51.5C 61.1067,49.2639 59.2734,46.5973 58,43.5C 57.5005,37.5092 57.3338,31.5092 57.5,25.5C 59.5,25.5 61.5,25.5 63.5,25.5C 63.3338,31.5092 63.5005,37.5092 64,43.5C 69.8466,48.9986 75.3466,48.6653 80.5,42.5 Z"/></g>
<g><path style="opacity:1" fill="#363c3f" d="M 77.5,62.5 C 82.6677,63.3385 83.6677,65.8385 80.5,70C 77.0935,71.2399 75.4269,70.0732 75.5,66.5C 75.8029,64.8857 76.4695,63.5523 77.5,62.5 Z"/></g>
<g><path style="opacity:1" fill="#1d242a" d="M 36.5,66.5 C 35.0689,66.8807 34.2355,67.8807 34,69.5C 33.1923,67.4213 33.359,65.4213 34.5,63.5C 35.9185,64.0047 36.5852,65.0047 36.5,66.5 Z"/></g>
<g><path style="opacity:1" fill="#3e464a" d="M 87.5,62.5 C 91.8466,62.942 92.18,63.7753 88.5,65C 92.1906,66.6903 92.3573,68.5237 89,70.5C 87.9412,70.3699 87.1079,69.8699 86.5,69C 87.8333,68.6667 89.1667,68.3333 90.5,68C 87.095,67.2473 86.095,65.414 87.5,62.5 Z"/></g>
<g><path style="opacity:1" fill="#939597" d="M 107.5,62.5 C 109.369,64.6353 110.036,67.3019 109.5,70.5C 108.5,70.5 107.5,70.5 106.5,70.5C 106.279,67.7212 106.612,65.0545 107.5,62.5 Z"/></g>
<g><path style="opacity:1" fill="#404448" d="M 135.5,62.5 C 141.966,63.623 141.966,64.2896 135.5,64.5C 135.5,65.8333 135.5,67.1667 135.5,68.5C 137.199,68.3398 138.866,68.5065 140.5,69C 138.191,71.051 136.024,70.8843 134,68.5C 133.252,66.1599 133.752,64.1599 135.5,62.5 Z"/></g>
<g><path style="opacity:1" fill="#1e252c" d="M 36.5,66.5 C 37.9311,66.1193 38.7645,65.1193 39,63.5C 39.6667,65.8333 39.6667,68.1667 39,70.5C 37.5187,69.5291 36.6854,68.1958 36.5,66.5 Z"/></g>
<g><path style="opacity:1" fill="#e7eef0" d="M 77.5,64.5 C 78.5,64.5 79.5,64.5 80.5,64.5C 80.5,65.8333 80.5,67.1667 80.5,68.5C 79.1667,68.5 77.8333,68.5 76.5,68.5C 76.4326,67.0413 76.7659,65.7079 77.5,64.5 Z"/></g>
<g><path style="opacity:1" fill="#2c3134" d="M 98.5,62.5 C 100.103,62.3118 101.437,62.8118 102.5,64C 95.8333,65.6667 95.8333,67.3333 102.5,69C 99.361,71.2275 97.361,70.3942 96.5,66.5C 96.7517,64.9271 97.4183,63.5938 98.5,62.5 Z"/></g>
<g><path style="opacity:1" fill="#7c8385" d="M 69.5,63.5 C 68.1667,63.5 66.8333,63.5 65.5,63.5C 65.2053,65.7354 65.5386,67.7354 66.5,69.5C 66.44,70.0431 66.1067,70.3764 65.5,70.5C 64.52,67.9135 64.1866,65.2469 64.5,62.5C 66.4147,62.2155 68.0813,62.5489 69.5,63.5 Z"/></g>
<g><path style="opacity:1" fill="#1b2328" d="M 69.5,63.5 C 70.2273,65.3234 70.5606,67.1568 70.5,69C 69.0039,69.5074 67.8373,69.0074 67,67.5C 66.5357,68.0944 66.369,68.7611 66.5,69.5C 65.5386,67.7354 65.2053,65.7354 65.5,63.5C 66.8333,63.5 68.1667,63.5 69.5,63.5 Z"/></g>
<g><path style="opacity:1" fill="#d3dce3" d="M 66.5,64.5 C 67.675,64.281 68.675,64.6143 69.5,65.5C 67.9483,66.7979 66.9483,66.4646 66.5,64.5 Z"/></g>
<g><path style="opacity:1" fill="#9aa1a5" d="M 149.5,63.5 C 147.833,63.5 146.167,63.5 144.5,63.5C 144.5,65.5 144.5,67.5 144.5,69.5C 146.167,69.5 147.833,69.5 149.5,69.5C 147.735,70.4614 145.735,70.7947 143.5,70.5C 143.5,67.8333 143.5,65.1667 143.5,62.5C 145.735,62.2053 147.735,62.5386 149.5,63.5 Z"/></g>
<g><path style="opacity:1" fill="#2f353a" d="M 149.5,63.5 C 148.391,64.29 147.058,64.79 145.5,65C 150.833,66 150.833,67 145.5,68C 147.058,68.21 148.391,68.71 149.5,69.5C 147.833,69.5 146.167,69.5 144.5,69.5C 144.5,67.5 144.5,65.5 144.5,63.5C 146.167,63.5 147.833,63.5 149.5,63.5 Z"/></g>
<g><path style="opacity:1" fill="#484e52" d="M 113.5,62.5 C 115.604,62.2011 117.604,62.5344 119.5,63.5C 118.271,64.2811 116.938,64.7811 115.5,65C 119.5,66 119.5,67 115.5,68C 116.938,68.2189 118.271,68.7189 119.5,69.5C 117.604,70.4656 115.604,70.7989 113.5,70.5C 113.5,67.8333 113.5,65.1667 113.5,62.5 Z"/></g>
<g><path style="opacity:1" fill="#30353a" d="M 123.5,63.5 C 125.371,63.8588 126.871,64.8588 128,66.5C 128.333,65.5 128.667,64.5 129,63.5C 129.667,65.8333 129.667,68.1667 129,70.5C 128,69.5 127,68.5 126,67.5C 125.751,68.624 125.251,69.624 124.5,70.5C 123.526,68.2573 123.192,65.924 123.5,63.5 Z"/></g>
<g><path style="opacity:1" fill="#3f4549" d="M 44.5,62.5 C 46.288,62.2148 47.9547,62.5481 49.5,63.5C 48.624,64.2508 47.624,64.7508 46.5,65C 50.5,66 50.5,67 46.5,68C 47.624,68.2492 48.624,68.7492 49.5,69.5C 47.9547,70.4519 46.288,70.7852 44.5,70.5C 44.5,67.8333 44.5,65.1667 44.5,62.5 Z"/></g>
<g><path style="opacity:1" fill="#3f4447" d="M 58.5,62.5 C 59.7251,63.1522 60.3917,64.3189 60.5,66C 60.2462,69.8708 58.4129,71.0375 55,69.5C 54.3333,67.5 54.3333,65.5 55,63.5C 55.4935,65.1341 55.6602,66.8008 55.5,68.5C 56.5,68.5 57.5,68.5 58.5,68.5C 58.5,66.5 58.5,64.5 58.5,62.5 Z"/></g>
</svg>
