<?xml version="1.0" encoding="UTF-8"?>
<!DOCTYPE svg PUBLIC "-//W3C//DTD SVG 1.1//EN" "http://www.w3.org/Graphics/SVG/1.1/DTD/svg11.dtd">
<svg xmlns="http://www.w3.org/2000/svg" version="1.1" width="548px" height="150px" style="shape-rendering:geometricPrecision; text-rendering:geometricPrecision; image-rendering:optimizeQuality; fill-rule:evenodd; clip-rule:evenodd" xmlns:xlink="http://www.w3.org/1999/xlink">
<g><path style="opacity:1" fill="#000101" d="M -0.5,-0.5 C 84.8333,-0.5 170.167,-0.5 255.5,-0.5C 253.154,6.16978 249.488,7.00311 244.5,2C 239.577,1.04544 236.077,2.87877 234,7.5C 231.747,14.7652 229.747,22.0986 228,29.5C 227.658,27.3808 226.825,27.0474 225.5,28.5C 223.351,26.2542 220.684,24.7542 217.5,24C 210.842,23.5004 204.175,23.3337 197.5,23.5C 197.171,37.0105 197.504,50.3438 198.5,63.5C 200.607,64.4682 202.941,64.8016 205.5,64.5C 205.509,66.3084 205.009,67.9751 204,69.5C 201.244,72.7575 198.744,75.5908 196.5,78C 196.833,78.3333 197.167,78.6667 197.5,79C 195.492,86.3527 193.492,93.686 191.5,101C 194.578,105.127 194.078,108.627 190,111.5C 187.349,116.802 184.682,122.136 182,127.5C 181.007,131.442 180.34,135.442 180,139.5C 176.36,141.955 174.193,145.289 173.5,149.5C 115.5,149.5 57.5,149.5 -0.5,149.5C -0.5,99.5 -0.5,49.5 -0.5,-0.5 Z"/></g>
<g><path style="opacity:1" fill="#0b161a" d="M 255.5,-0.5 C 257.5,-0.5 259.5,-0.5 261.5,-0.5C 259.319,0.84872 257.652,2.68205 256.5,5C 257.972,11.7398 258.972,18.5731 259.5,25.5C 266.809,30.3574 272.809,29.0241 277.5,21.5C 277.291,20.914 276.957,20.414 276.5,20C 277.899,16.4647 278.899,12.7981 279.5,9C 278.678,5.85939 278.011,2.69273 277.5,-0.5C 279.833,-0.5 282.167,-0.5 284.5,-0.5C 284.846,2.60213 284.179,5.43547 282.5,8C 282.833,8.33333 283.167,8.66667 283.5,9C 281.562,11.4703 280.396,14.3036 280,17.5C 279.333,26.1667 279.333,34.8333 280,43.5C 280.232,44.7375 280.732,45.7375 281.5,46.5C 280.572,49.4535 279.739,52.4535 279,55.5C 276.169,49.1711 273.336,42.8378 270.5,36.5C 266.072,34.8818 261.905,35.5484 258,38.5C 257.329,37.7476 256.496,37.4142 255.5,37.5C 250.619,35.3741 245.619,35.0407 240.5,36.5C 238.784,35.4261 237.784,33.7594 237.5,31.5C 237.977,30.5224 238.643,29.6891 239.5,29C 237.606,27.8989 236.939,26.5655 237.5,25C 239.981,21.7338 242.981,18.9005 246.5,16.5C 247.074,14.9411 247.74,13.4411 248.5,12C 247.788,10.575 247.621,9.075 248,7.5C 244.294,2.73238 240.294,2.39904 236,6.5C 233.685,14.7573 231.851,23.0907 230.5,31.5C 229.5,31.5 228.5,31.5 227.5,31.5C 226.833,30.5 226.167,29.5 225.5,28.5C 226.825,27.0474 227.658,27.3808 228,29.5C 229.747,22.0986 231.747,14.7652 234,7.5C 236.077,2.87877 239.577,1.04544 244.5,2C 249.488,7.00311 253.154,6.16978 255.5,-0.5 Z"/></g>
<g><path style="opacity:1" fill="#060f13" d="M 284.5,-0.5 C 306.833,-0.5 329.167,-0.5 351.5,-0.5C 348.011,3.18579 345.677,7.18579 344.5,11.5C 340.87,11.932 337.536,13.0987 334.5,15C 338.188,21.7981 336.188,24.4647 328.5,23C 320.623,14.4688 313.123,13.9688 306,21.5C 305.626,20.5838 305.126,19.7504 304.5,19C 301.721,17.0625 298.887,16.2292 296,16.5C 295.216,21.6662 294.049,26.9995 292.5,32.5C 293.228,34.1547 293.395,35.8214 293,37.5C 291.991,36.3418 290.658,35.6752 289,35.5C 287.615,35.5143 286.449,35.8476 285.5,36.5C 283.99,39.6827 282.657,43.016 281.5,46.5C 280.732,45.7375 280.232,44.7375 280,43.5C 279.333,34.8333 279.333,26.1667 280,17.5C 280.396,14.3036 281.562,11.4703 283.5,9C 283.167,8.66667 282.833,8.33333 282.5,8C 284.179,5.43547 284.846,2.60213 284.5,-0.5 Z"/></g>
<g><path style="opacity:1" fill="#040a0c" d="M 377.5,-0.5 C 434.167,-0.5 490.833,-0.5 547.5,-0.5C 547.5,49.5 547.5,99.5 547.5,149.5C 534.833,149.5 522.167,149.5 509.5,149.5C 509.784,146.223 509.451,143.057 508.5,140C 509.82,137.683 511.486,135.683 513.5,134C 511.545,133.047 509.878,131.713 508.5,130C 508.327,127.173 508.66,124.339 509.5,121.5C 514.928,126.807 520.428,126.807 526,121.5C 527.888,111.387 523.721,107.221 513.5,109C 512.627,110.045 511.627,110.878 510.5,111.5C 509.526,110.365 508.359,109.365 507,108.5C 506.316,107.216 506.483,106.049 507.5,105C 505.167,104 502.833,103 500.5,102C 502.589,98.877 501.922,98.7104 498.5,101.5C 491.703,100.056 486.036,102.056 481.5,107.5C 479.616,103.983 477.283,103.649 474.5,106.5C 473.201,105.91 472.368,104.91 472,103.5C 470.294,104.308 469.461,105.641 469.5,107.5C 467.567,107.271 465.9,106.438 464.5,105C 461.833,104.667 459.167,104.333 456.5,104C 455.833,103.333 455.167,102.667 454.5,102C 455.598,101.23 455.598,100.397 454.5,99.5C 461.2,99.4617 463.867,96.1284 462.5,89.5C 460.167,89.5 457.833,89.5 455.5,89.5C 455.5,90.5 455.5,91.5 455.5,92.5C 456.5,92.5 457.5,92.5 458.5,92.5C 458.5,93.5 458.5,94.5 458.5,95.5C 452.403,96.7366 449.57,94.4033 450,88.5C 452.971,84.9083 456.304,84.5749 460,87.5C 462.152,85.7227 461.985,84.2227 459.5,83C 457.564,82.187 455.564,81.687 453.5,81.5C 455.508,77.3264 458.675,74.3264 463,72.5C 463.497,70.1902 463.663,67.8568 463.5,65.5C 462.209,65.7373 461.209,65.404 460.5,64.5C 464.505,64.8306 467.838,63.4973 470.5,60.5C 471.386,61.325 471.719,62.325 471.5,63.5C 473.5,63.5 475.5,63.5 477.5,63.5C 477.5,54.5 477.5,45.5 477.5,36.5C 475.393,35.5318 473.059,35.1984 470.5,35.5C 470.5,40.8333 470.5,46.1667 470.5,51.5C 470.671,53.9928 469.671,55.8261 467.5,57C 464.901,57.769 462.401,57.6023 460,56.5C 458.58,49.9504 458.08,43.2837 458.5,36.5C 456.167,36.5 453.833,36.5 451.5,36.5C 451.5,42.5 451.5,48.5 451.5,54.5C 450.451,54.4021 449.285,54.4021 448,54.5C 447.536,53.9056 447.369,53.2389 447.5,52.5C 447.689,48.963 447.023,45.6297 445.5,42.5C 448.546,35.9995 446.546,31.6662 439.5,29.5C 435.827,31.0408 432.327,30.7074 429,28.5C 424.596,29.5014 420.263,31.1681 416,33.5C 414.488,32.7433 413.154,31.7433 412,30.5C 411.667,30.8333 411.333,31.1667 411,31.5C 408.546,30.6563 406.046,29.6563 403.5,28.5C 400.243,29.5514 396.91,30.2181 393.5,30.5C 387.297,23.8341 379.63,21.6674 370.5,24C 357.604,29.6239 353.271,39.1239 357.5,52.5C 357.426,54.4109 356.426,55.5776 354.5,56C 351.833,56.3333 349.167,56.6667 346.5,57C 344.074,61.2885 340.407,62.6218 335.5,61C 334.309,60.3021 333.309,59.4687 332.5,58.5C 332.334,54.4862 332.501,50.4862 333,46.5C 334.451,44.5359 336.284,43.2026 338.5,42.5C 339.833,42.5 341.167,42.5 342.5,42.5C 342.5,41.1667 342.5,39.8333 342.5,38.5C 344.167,38.5 345.833,38.5 347.5,38.5C 349.012,36.6833 351.012,35.6833 353.5,35.5C 353.752,32.6802 353.252,30.0135 352,27.5C 349.195,26.0211 346.695,24.1878 344.5,22C 345.766,21.6905 346.933,21.1905 348,20.5C 349.062,21.8993 350.395,22.8993 352,23.5C 358.251,21.9417 364.751,20.2751 371.5,18.5C 371.998,15.4074 372.998,12.5741 374.5,10C 373.844,7.66958 374.844,6.00291 377.5,5C 376.464,3.22448 376.464,1.39114 377.5,-0.5 Z"/></g>
<g><path style="opacity:1" fill="#0e1e20" d="M 261.5,-0.5 C 266.833,-0.5 272.167,-0.5 277.5,-0.5C 278.011,2.69273 278.678,5.85939 279.5,9C 278.899,12.7981 277.899,16.4647 276.5,20C 276.957,20.414 277.291,20.914 277.5,21.5C 272.809,29.0241 266.809,30.3574 259.5,25.5C 258.972,18.5731 257.972,11.7398 256.5,5C 257.652,2.68205 259.319,0.84872 261.5,-0.5 Z"/></g>
<g><path style="opacity:1" fill="#459ad2" d="M 48.5,14.5 C 57.8574,13.7285 64.1907,17.7285 67.5,26.5C 69.9225,28.6502 72.5891,28.9835 75.5,27.5C 80.9307,15.081 89.5973,11.9144 101.5,18C 104.361,20.2194 106.361,23.0527 107.5,26.5C 109.922,28.6502 112.589,28.9835 115.5,27.5C 122.946,12.8467 132.779,10.8467 145,21.5C 148.936,29.5116 147.77,36.6783 141.5,43C 134.924,44.9417 128.257,46.6083 121.5,48C 110.439,54.6225 105.606,64.4558 107,77.5C 106.08,82.1875 103.58,85.6875 99.5,88C 94.9174,89.1447 90.2508,89.8113 85.5,90C 82.0482,90.8917 79.0482,92.5584 76.5,95C 88.7284,105.274 100.562,104.774 112,93.5C 113.586,91.3295 114.92,88.9962 116,86.5C 116.333,80.5 116.667,74.5 117,68.5C 122.266,58.2723 130.099,55.7723 140.5,61C 147.864,66.9455 149.364,74.1122 145,82.5C 139.919,88.3852 133.419,91.2185 125.5,91C 115.933,94.5616 109.933,101.228 107.5,111C 108.549,115.4 111.216,116.567 115.5,114.5C 120.65,102.924 128.983,99.7575 140.5,105C 149.825,113.62 149.825,122.287 140.5,131C 129.257,135.718 120.924,132.552 115.5,121.5C 112.755,120.147 110.088,120.314 107.5,122C 100.734,134.635 91.5676,136.802 80,128.5C 78.4558,126.532 77.2891,124.365 76.5,122C 73.9117,120.314 71.2451,120.147 68.5,121.5C 65.9232,126.822 61.9232,130.655 56.5,133C 44.9716,134.471 38.3049,129.471 36.5,118C 37.0877,110.745 40.7543,105.745 47.5,103C 52.6825,102.869 57.6825,101.869 62.5,100C 70.5917,96.2214 70.2583,92.888 61.5,90C 50.3482,92.1711 42.1815,88.3378 37,78.5C 35.4082,70.2672 38.2415,64.1006 45.5,60C 50.0826,58.8553 54.7492,58.1887 59.5,58C 71.2549,54.9321 76.7549,47.4321 76,35.5C 70.6782,32.0072 67.0115,33.3406 65,39.5C 58.402,46.0426 50.902,47.2092 42.5,43C 32.96,30.9832 34.96,21.4832 48.5,14.5 Z"/></g>
<g><path style="opacity:1" fill="#020406" d="M 87.5,21.5 C 98.3606,20.5162 102.527,25.1829 100,35.5C 94.6667,40.8333 89.3333,40.8333 84,35.5C 81.4226,29.885 82.5892,25.2183 87.5,21.5 Z"/></g>
<g><path style="opacity:1" fill="#f2f2f2" d="M 393.5,30.5 C 392.452,32.5338 390.786,33.8671 388.5,34.5C 378.723,26.7856 370.556,28.119 364,38.5C 362.53,54.0286 369.363,59.8619 384.5,56C 386.953,54.1521 387.953,51.6521 387.5,48.5C 384.5,48.5 381.5,48.5 378.5,48.5C 378.5,46.5 378.5,44.5 378.5,42.5C 383.833,42.5 389.167,42.5 394.5,42.5C 394.666,47.5111 394.499,52.5111 394,57.5C 385.868,64.6811 376.702,66.3477 366.5,62.5C 362.788,59.7891 359.788,56.4558 357.5,52.5C 353.271,39.1239 357.604,29.6239 370.5,24C 379.63,21.6674 387.297,23.8341 393.5,30.5 Z"/></g>
<g><path style="opacity:1" fill="#eceded" d="M 225.5,28.5 C 226.167,29.5 226.833,30.5 227.5,31.5C 229.473,38.5806 227.473,44.2472 221.5,48.5C 223.258,52.3538 225.258,56.0205 227.5,59.5C 228.028,60.7206 228.695,61.8873 229.5,63C 226.408,63.7358 223.408,63.5691 220.5,62.5C 219.038,58.2432 217.038,54.2432 214.5,50.5C 211.572,49.5159 208.572,49.1826 205.5,49.5C 205.5,54.1667 205.5,58.8333 205.5,63.5C 203.167,63.5 200.833,63.5 198.5,63.5C 197.504,50.3438 197.171,37.0105 197.5,23.5C 204.175,23.3337 210.842,23.5004 217.5,24C 220.684,24.7542 223.351,26.2542 225.5,28.5 Z"/></g>
<g><path style="opacity:1" fill="#142728" d="M 347.5,38.5 C 345.833,38.5 344.167,38.5 342.5,38.5C 342.737,37.209 342.404,36.209 341.5,35.5C 337.975,35.3459 335.141,36.6792 333,39.5C 332.517,38.552 332.351,37.552 332.5,36.5C 330.5,36.5 328.5,36.5 326.5,36.5C 328.292,35.6909 330.292,35.1909 332.5,35C 330.65,32.9824 328.65,31.1491 326.5,29.5C 326.709,28.914 327.043,28.414 327.5,28C 331.351,27.2456 335.184,26.4123 339,25.5C 342.774,26.5692 346.607,27.2358 350.5,27.5C 350.519,29.0603 350.852,30.5603 351.5,32C 349.957,34.0417 348.624,36.2083 347.5,38.5 Z"/></g>
<g><path style="opacity:1" fill="#060709" d="M 205.5,30.5 C 209.514,30.3345 213.514,30.5012 217.5,31C 222.833,34.6667 222.833,38.3333 217.5,42C 213.514,42.4988 209.514,42.6655 205.5,42.5C 205.5,38.5 205.5,34.5 205.5,30.5 Z"/></g>
<g><path style="opacity:1" fill="#020507" d="M 108.5,33.5 C 114.997,33.1799 117.164,36.1799 115,42.5C 109.921,54.4686 100.754,59.9686 87.5,59C 82.6667,61.1667 79.1667,64.6667 77,69.5C 77.3528,77.0401 75.6861,84.0401 72,90.5C 61.6843,70.9245 66.5176,56.4245 86.5,47C 96.9213,47.2993 104.255,42.7993 108.5,33.5 Z"/></g>
<g><path style="opacity:1" fill="#f2f3f3" d="M 255.5,37.5 C 261.629,42.9944 263.129,49.6611 260,57.5C 255.804,62.845 250.304,65.1783 243.5,64.5C 240.238,62.5797 237.238,60.2463 234.5,57.5C 230.976,48.8909 232.976,41.8909 240.5,36.5C 245.619,35.0407 250.619,35.3741 255.5,37.5 Z"/></g>
<g><path style="opacity:1" fill="#f4f5f5" d="M 270.5,36.5 C 273.336,42.8378 276.169,49.1711 279,55.5C 279.739,52.4535 280.572,49.4535 281.5,46.5C 282.657,43.016 283.99,39.6827 285.5,36.5C 287.604,36.2011 289.604,36.5344 291.5,37.5C 287.333,48.5 283.167,59.5 279,70.5C 277.207,73.3077 274.707,74.9744 271.5,75.5C 269.833,75.5 268.167,75.5 266.5,75.5C 266.5,73.5 266.5,71.5 266.5,69.5C 271.067,69.9442 274.067,67.9442 275.5,63.5C 271.355,54.7108 267.355,45.8775 263.5,37C 265.81,36.5034 268.143,36.3367 270.5,36.5 Z"/></g>
<g><path style="opacity:1" fill="#f0f0f1" d="M 309.5,35.5 C 318.148,37.7739 322.148,43.4406 321.5,52.5C 314.492,52.3337 307.492,52.5004 300.5,53C 304.676,59.2791 309.842,60.1125 316,55.5C 318.477,56.8754 319.311,58.7088 318.5,61C 315.929,62.4538 313.262,63.6205 310.5,64.5C 298.097,64.2591 292.597,57.9258 294,45.5C 297.155,39.008 302.322,35.6747 309.5,35.5 Z"/></g>
<g><path style="opacity:1" fill="#fbfbfb" d="M 341.5,35.5 C 341.5,37.5 341.5,39.5 341.5,41.5C 340.209,41.2627 339.209,41.596 338.5,42.5C 336.284,43.2026 334.451,44.5359 333,46.5C 332.501,50.4862 332.334,54.4862 332.5,58.5C 332.5,60.1667 332.5,61.8333 332.5,63.5C 330.5,63.5 328.5,63.5 326.5,63.5C 326.5,54.5 326.5,45.5 326.5,36.5C 328.5,36.5 330.5,36.5 332.5,36.5C 332.351,37.552 332.517,38.552 333,39.5C 335.141,36.6792 337.975,35.3459 341.5,35.5 Z"/></g>
<g><path style="opacity:1" fill="#f2f2f3" d="M 445.5,42.5 C 447.023,45.6297 447.689,48.963 447.5,52.5C 443.118,63.3525 435.451,66.5192 424.5,62C 422.598,60.2703 420.931,58.437 419.5,56.5C 416.461,43.0457 421.794,36.2124 435.5,36C 439.757,36.9488 443.091,39.1154 445.5,42.5 Z"/></g>
<g><path style="opacity:1" fill="#f3f3f3" d="M 470.5,51.5 C 471.487,46.6946 471.821,41.6946 471.5,36.5C 473.5,36.5 475.5,36.5 477.5,36.5C 477.5,45.5 477.5,54.5 477.5,63.5C 475.5,63.5 473.5,63.5 471.5,63.5C 471.719,62.325 471.386,61.325 470.5,60.5C 467.838,63.4973 464.505,64.8306 460.5,64.5C 455.642,62.7506 452.642,59.4173 451.5,54.5C 451.5,48.5 451.5,42.5 451.5,36.5C 453.833,36.5 456.167,36.5 458.5,36.5C 458.08,43.2837 458.58,49.9504 460,56.5C 462.401,57.6023 464.901,57.769 467.5,57C 469.671,55.8261 470.671,53.9928 470.5,51.5 Z"/></g>
<g><path style="opacity:1" fill="#787b7c" d="M 477.5,36.5 C 475.5,36.5 473.5,36.5 471.5,36.5C 471.821,41.6946 471.487,46.6946 470.5,51.5C 470.5,46.1667 470.5,40.8333 470.5,35.5C 473.059,35.1984 475.393,35.5318 477.5,36.5 Z"/></g>
<g><path style="opacity:1" fill="#f5f6f6" d="M 496.5,35.5 C 508.721,35.9003 513.888,42.2336 512,54.5C 507.247,64.866 500.247,66.866 491,60.5C 490.501,65.4889 490.334,70.4889 490.5,75.5C 488.5,75.5 486.5,75.5 484.5,75.5C 484.5,62.5 484.5,49.5 484.5,36.5C 486.5,36.5 488.5,36.5 490.5,36.5C 490.351,37.552 490.517,38.552 491,39.5C 492.5,37.5313 494.333,36.198 496.5,35.5 Z"/></g>
<g><path style="opacity:1" fill="#8d9393" d="M 341.5,35.5 C 342.404,36.209 342.737,37.209 342.5,38.5C 342.5,39.8333 342.5,41.1667 342.5,42.5C 341.167,42.5 339.833,42.5 338.5,42.5C 339.209,41.596 340.209,41.2627 341.5,41.5C 341.5,39.5 341.5,37.5 341.5,35.5 Z"/></g>
<g><path style="opacity:1" fill="#101617" d="M 430.5,41.5 C 438.149,41.3144 441.315,44.981 440,52.5C 437.612,57.226 433.778,58.726 428.5,57C 422.859,51.0356 423.526,45.8689 430.5,41.5 Z"/></g>
<g><path style="opacity:1" fill="#0c1113" d="M 495.5,41.5 C 503.696,41.529 506.863,45.529 505,53.5C 504.535,54.9308 503.701,56.0975 502.5,57C 493.884,58.7172 490.051,55.2172 491,46.5C 492.366,44.6383 493.866,42.9717 495.5,41.5 Z"/></g>
<g><path style="opacity:1" fill="#101e23" d="M 244.5,41.5 C 251.985,41.4831 255.485,45.1498 255,52.5C 252.565,57.2238 248.731,58.7238 243.5,57C 237.974,51.357 238.308,46.1903 244.5,41.5 Z"/></g>
<g><path style="opacity:1" fill="#0f1e20" d="M 240.5,36.5 C 232.976,41.8909 230.976,48.8909 234.5,57.5C 234.389,58.1174 234.056,58.6174 233.5,59C 231.527,59.4955 229.527,59.6621 227.5,59.5C 225.258,56.0205 223.258,52.3538 221.5,48.5C 227.473,44.2472 229.473,38.5806 227.5,31.5C 228.5,31.5 229.5,31.5 230.5,31.5C 231.851,23.0907 233.685,14.7573 236,6.5C 240.294,2.39904 244.294,2.73238 248,7.5C 247.621,9.075 247.788,10.575 248.5,12C 247.74,13.4411 247.074,14.9411 246.5,16.5C 242.981,18.9005 239.981,21.7338 237.5,25C 236.939,26.5655 237.606,27.8989 239.5,29C 238.643,29.6891 237.977,30.5224 237.5,31.5C 237.784,33.7594 238.784,35.4261 240.5,36.5 Z"/></g>
<g><path style="opacity:1" fill="#0d1718" d="M 447.5,52.5 C 447.369,53.2389 447.536,53.9056 448,54.5C 449.285,54.4021 450.451,54.4021 451.5,54.5C 452.642,59.4173 455.642,62.7506 460.5,64.5C 461.209,65.404 462.209,65.7373 463.5,65.5C 463.663,67.8568 463.497,70.1902 463,72.5C 458.675,74.3264 455.508,77.3264 453.5,81.5C 449.167,82.5 446.5,85.1667 445.5,89.5C 444.395,90.6005 443.062,91.2671 441.5,91.5C 441.98,88.3148 441.314,85.4815 439.5,83C 435.848,82.5014 432.182,82.3347 428.5,82.5C 427.167,82.5 425.833,82.5 424.5,82.5C 420.167,82.5 415.833,82.5 411.5,82.5C 411.5,87.8333 411.5,93.1667 411.5,98.5C 411.5,98.8333 411.5,99.1667 411.5,99.5C 410.675,95.3528 410.175,91.0195 410,86.5C 409,87.8333 408,87.8333 407,86.5C 406.722,87.4158 406.222,88.0825 405.5,88.5C 405.741,86.1137 405.075,84.1137 403.5,82.5C 405.225,82.1575 405.725,81.1575 405,79.5C 403.601,78.7734 402.101,78.2734 400.5,78C 401.766,77.6905 402.933,77.1905 404,76.5C 404.333,76.8333 404.667,77.1667 405,77.5C 405.508,75.0958 406.675,74.4291 408.5,75.5C 409.308,75.1924 409.975,74.6924 410.5,74C 410.694,72.5701 410.694,71.0701 410.5,69.5C 412.682,68.1767 413.349,66.5101 412.5,64.5C 414.033,62.3618 415.866,61.6952 418,62.5C 418.813,60.5643 419.313,58.5643 419.5,56.5C 420.931,58.437 422.598,60.2703 424.5,62C 435.451,66.5192 443.118,63.3525 447.5,52.5 Z"/></g>
<g><path style="opacity:1" fill="#162f32" d="M 234.5,57.5 C 237.238,60.2463 240.238,62.5797 243.5,64.5C 239.972,69.9927 239.639,75.6593 242.5,81.5C 244.099,81.2322 245.432,81.5655 246.5,82.5C 244.856,82.2865 243.356,82.6198 242,83.5C 239.464,88.607 237.631,93.9403 236.5,99.5C 237.833,99.5 239.167,99.5 240.5,99.5C 240.5,98.1667 240.5,96.8333 240.5,95.5C 242.833,95.5 245.167,95.5 247.5,95.5C 246.942,96.7899 245.942,97.6232 244.5,98C 245.5,98.3333 246.5,98.6667 247.5,99C 245.884,99.6152 244.551,100.615 243.5,102C 239.895,101.666 237.561,103.166 236.5,106.5C 234.709,107.17 233.042,107.837 231.5,108.5C 228.189,109.811 225.855,112.145 224.5,115.5C 223.167,115.5 221.833,115.5 220.5,115.5C 220.5,113.167 220.5,110.833 220.5,108.5C 219.167,108.5 217.833,108.5 216.5,108.5C 216.5,112.167 216.5,115.833 216.5,119.5C 215.883,119.389 215.383,119.056 215,118.5C 214.5,120 214,121.5 213.5,123C 214.33,124.465 214.496,125.965 214,127.5C 209.36,129.276 208.193,132.443 210.5,137C 210.516,140.013 209.516,142.513 207.5,144.5C 208.95,145.85 209.617,147.516 209.5,149.5C 200.167,149.5 190.833,149.5 181.5,149.5C 183.96,142.615 187.793,136.615 193,131.5C 193.322,128.07 195.155,126.07 198.5,125.5C 201.85,125.665 205.183,125.498 208.5,125C 209.931,124.535 211.097,123.701 212,122.5C 210.83,118.957 210.497,115.29 211,111.5C 209.491,109.081 207.325,108.081 204.5,108.5C 204.243,105.068 203.576,101.734 202.5,98.5C 206.849,100.383 210.516,99.5496 213.5,96C 213.37,94.9412 212.87,94.1079 212,93.5C 209.503,95.4782 206.669,95.9782 203.5,95C 200.9,92.127 200.9,89.2937 203.5,86.5C 206.897,85.5891 210.063,85.5891 213,86.5C 213.667,85.8333 213.667,85.1667 213,84.5C 211.591,83.2189 210.091,82.2189 208.5,81.5C 210.177,73.837 214.177,67.5037 220.5,62.5C 223.408,63.5691 226.408,63.7358 229.5,63C 228.695,61.8873 228.028,60.7206 227.5,59.5C 229.527,59.6621 231.527,59.4955 233.5,59C 234.056,58.6174 234.389,58.1174 234.5,57.5 Z"/></g>
<g><path style="opacity:1" fill="#04070a" d="M 49.5,64.5 C 58.0373,64.2006 61.8706,68.2006 61,76.5C 58.8175,82.2412 54.6508,84.4078 48.5,83C 40.3109,76.4256 40.6442,70.2589 49.5,64.5 Z"/></g>
<g><path style="opacity:1" fill="#04070a" d="M 129.5,64.5 C 140.097,65.5737 143.264,70.907 139,80.5C 128.099,86.0501 122.766,82.7168 123,70.5C 124.494,67.6865 126.66,65.6865 129.5,64.5 Z"/></g>
<g><path style="opacity:1" fill="#132327" d="M 270.5,36.5 C 268.143,36.3367 265.81,36.5034 263.5,37C 267.355,45.8775 271.355,54.7108 275.5,63.5C 274.067,67.9442 271.067,69.9442 266.5,69.5C 266.5,71.5 266.5,73.5 266.5,75.5C 268.167,75.5 269.833,75.5 271.5,75.5C 269.028,76.6421 268.028,78.6421 268.5,81.5C 269.791,81.2627 270.791,81.596 271.5,82.5C 270.5,82.5 269.5,82.5 268.5,82.5C 268.665,85.8499 268.498,89.1832 268,92.5C 267.283,91.9558 266.783,91.2891 266.5,90.5C 267.629,88.3718 267.796,86.0385 267,83.5C 266.5,81.6667 265.333,80.5 263.5,80C 264.167,79.3333 264.833,78.6667 265.5,78C 263.192,74.1949 259.859,72.8615 255.5,74C 252.144,78.1178 248.311,78.6178 244,75.5C 243.685,77.5856 243.185,79.5856 242.5,81.5C 239.639,75.6593 239.972,69.9927 243.5,64.5C 250.304,65.1783 255.804,62.845 260,57.5C 263.129,49.6611 261.629,42.9944 255.5,37.5C 256.496,37.4142 257.329,37.7476 258,38.5C 261.905,35.5484 266.072,34.8818 270.5,36.5 Z"/></g>
<g><path style="opacity:1" fill="#040b0e" d="M 220.5,62.5 C 214.177,67.5037 210.177,73.837 208.5,81.5C 200.528,81.6364 197.028,85.6364 198,93.5C 198.996,95.6605 200.496,97.3272 202.5,98.5C 203.576,101.734 204.243,105.068 204.5,108.5C 202.5,108.5 200.5,108.5 198.5,108.5C 198.5,114.167 198.5,119.833 198.5,125.5C 195.155,126.07 193.322,128.07 193,131.5C 187.793,136.615 183.96,142.615 181.5,149.5C 178.833,149.5 176.167,149.5 173.5,149.5C 174.193,145.289 176.36,141.955 180,139.5C 180.34,135.442 181.007,131.442 182,127.5C 184.682,122.136 187.349,116.802 190,111.5C 194.078,108.627 194.578,105.127 191.5,101C 193.492,93.686 195.492,86.3527 197.5,79C 197.167,78.6667 196.833,78.3333 196.5,78C 198.744,75.5908 201.244,72.7575 204,69.5C 205.009,67.9751 205.509,66.3084 205.5,64.5C 202.941,64.8016 200.607,64.4682 198.5,63.5C 200.833,63.5 203.167,63.5 205.5,63.5C 205.5,58.8333 205.5,54.1667 205.5,49.5C 208.572,49.1826 211.572,49.5159 214.5,50.5C 217.038,54.2432 219.038,58.2432 220.5,62.5 Z"/></g>
<g><path style="opacity:1" fill="#091317" d="M 325.5,63.5 C 325.256,70.1707 327.59,75.6707 332.5,80C 332.164,81.0299 331.497,81.5299 330.5,81.5C 322.528,81.6364 319.028,85.6364 320,93.5C 323.011,99.1918 327.511,100.858 333.5,98.5C 336.525,104.023 341.192,106.856 347.5,107C 346.944,107.383 346.611,107.883 346.5,108.5C 345.836,111.146 345.502,113.979 345.5,117C 345.519,120.252 346.186,123.085 347.5,125.5C 345.716,131.114 341.882,134.447 336,135.5C 332.551,131.54 333.384,128.707 338.5,127C 337.552,126.517 336.552,126.351 335.5,126.5C 335.67,125.178 335.337,124.011 334.5,123C 335.448,122.517 336.448,122.351 337.5,122.5C 338.425,125.131 340.091,125.798 342.5,124.5C 340.223,119.613 338.223,114.613 336.5,109.5C 334.833,108.167 333.167,108.167 331.5,109.5C 329.543,113.744 327.876,118.077 326.5,122.5C 325.5,122.5 324.5,122.5 323.5,122.5C 323.485,117.981 321.152,115.481 316.5,115C 315.663,113.989 315.33,112.822 315.5,111.5C 317.807,111.986 319.973,111.986 322,111.5C 322.688,110.668 322.521,110.002 321.5,109.5C 318.897,108.438 316.23,108.272 313.5,109C 312.619,109.708 311.953,110.542 311.5,111.5C 307.936,112.423 304.269,112.756 300.5,112.5C 300.068,111.29 299.401,110.29 298.5,109.5C 300.869,106.141 303.202,102.808 305.5,99.5C 309.927,100.125 312.927,98.4587 314.5,94.5C 315.485,90.3656 315.818,86.0323 315.5,81.5C 313.901,81.2322 312.568,81.5655 311.5,82.5C 311.665,86.1817 311.499,89.8484 311,93.5C 309.33,95.6983 307.33,96.0317 305,94.5C 304.824,90.3123 304.324,86.3123 303.5,82.5C 303.5,82.1667 303.5,81.8333 303.5,81.5C 303.056,79.8868 302.056,78.7202 300.5,78C 305.415,74.6702 308.748,70.1702 310.5,64.5C 313.262,63.6205 315.929,62.4538 318.5,61C 319.311,58.7088 318.477,56.8754 316,55.5C 309.842,60.1125 304.676,59.2791 300.5,53C 307.492,52.5004 314.492,52.3337 321.5,52.5C 322.148,43.4406 318.148,37.7739 309.5,35.5C 309.5,32.8333 309.5,30.1667 309.5,27.5C 313.509,27.8583 317.509,28.3583 321.5,29C 322.211,30.2547 323.044,31.4214 324,32.5C 325.426,42.7544 325.926,53.0878 325.5,63.5 Z"/></g>
<g><path style="opacity:1" fill="#0e1a1e" d="M 351.5,-0.5 C 360.167,-0.5 368.833,-0.5 377.5,-0.5C 376.464,1.39114 376.464,3.22448 377.5,5C 374.844,6.00291 373.844,7.66958 374.5,10C 372.998,12.5741 371.998,15.4074 371.5,18.5C 364.751,20.2751 358.251,21.9417 352,23.5C 350.395,22.8993 349.062,21.8993 348,20.5C 346.933,21.1905 345.766,21.6905 344.5,22C 346.695,24.1878 349.195,26.0211 352,27.5C 353.252,30.0135 353.752,32.6802 353.5,35.5C 351.012,35.6833 349.012,36.6833 347.5,38.5C 348.624,36.2083 349.957,34.0417 351.5,32C 350.852,30.5603 350.519,29.0603 350.5,27.5C 346.607,27.2358 342.774,26.5692 339,25.5C 335.184,26.4123 331.351,27.2456 327.5,28C 327.043,28.414 326.709,28.914 326.5,29.5C 328.65,31.1491 330.65,32.9824 332.5,35C 330.292,35.1909 328.292,35.6909 326.5,36.5C 326.5,45.5 326.5,54.5 326.5,63.5C 326.167,63.5 325.833,63.5 325.5,63.5C 325.926,53.0878 325.426,42.7544 324,32.5C 323.044,31.4214 322.211,30.2547 321.5,29C 317.509,28.3583 313.509,27.8583 309.5,27.5C 309.5,30.1667 309.5,32.8333 309.5,35.5C 302.322,35.6747 297.155,39.008 294,45.5C 292.597,57.9258 298.097,64.2591 310.5,64.5C 308.748,70.1702 305.415,74.6702 300.5,78C 302.056,78.7202 303.056,79.8868 303.5,81.5C 298.597,81.0611 293.763,80.3944 289,79.5C 288.283,80.0442 287.783,80.7109 287.5,81.5C 285.219,81.0773 283.552,81.744 282.5,83.5C 281.5,83.5 280.5,83.5 279.5,83.5C 279.391,88.5448 279.391,93.3781 279.5,98C 278.833,99.6667 278.167,101.333 277.5,103C 279.301,103.317 279.634,103.984 278.5,105C 279.305,106.113 279.972,107.279 280.5,108.5C 278.732,112.044 277.898,116.044 278,120.5C 276,123.167 274,123.167 272,120.5C 271.501,116.514 271.334,112.514 271.5,108.5C 270.167,108.5 268.833,108.5 267.5,108.5C 267.5,112.833 267.5,117.167 267.5,121.5C 266.982,122.577 266.648,123.744 266.5,125C 267.786,126.994 269.12,128.994 270.5,131C 268.237,136.923 267.237,143.089 267.5,149.5C 263.5,149.5 259.5,149.5 255.5,149.5C 255.648,145.186 257.815,142.519 262,141.5C 263.65,136.932 262.15,134.266 257.5,133.5C 255.108,134.725 252.608,135.725 250,136.5C 247.597,132.79 244.097,130.79 239.5,130.5C 241.686,129.779 243.853,129.113 246,128.5C 246.333,128.833 246.667,129.167 247,129.5C 248.397,127.93 249.897,126.596 251.5,125.5C 251.5,123.167 251.5,120.833 251.5,118.5C 253.833,118.5 256.167,118.5 258.5,118.5C 258.5,120.833 258.5,123.167 258.5,125.5C 259.833,125.5 261.167,125.5 262.5,125.5C 262.5,119.833 262.5,114.167 262.5,108.5C 261.167,108.5 259.833,108.5 258.5,108.5C 258.5,110.5 258.5,112.5 258.5,114.5C 256.833,114.5 255.167,114.5 253.5,114.5C 253.434,108.54 253.101,102.874 252.5,97.5C 250.871,92.2647 248.871,87.2647 246.5,82.5C 245.432,81.5655 244.099,81.2322 242.5,81.5C 243.185,79.5856 243.685,77.5856 244,75.5C 248.311,78.6178 252.144,78.1178 255.5,74C 259.859,72.8615 263.192,74.1949 265.5,78C 264.833,78.6667 264.167,79.3333 263.5,80C 265.333,80.5 266.5,81.6667 267,83.5C 267.796,86.0385 267.629,88.3718 266.5,90.5C 264.629,87.9392 262.629,85.4392 260.5,83C 259.207,82.51 257.873,82.3433 256.5,82.5C 256.5,88.1667 256.5,93.8333 256.5,99.5C 257.833,99.5 259.167,99.5 260.5,99.5C 260.335,96.1501 260.502,92.8168 261,89.5C 263.364,92.6902 265.864,95.6902 268.5,98.5C 269.568,99.4345 270.901,99.7678 272.5,99.5C 272.822,93.642 272.489,87.9753 271.5,82.5C 270.791,81.596 269.791,81.2627 268.5,81.5C 268.028,78.6421 269.028,76.6421 271.5,75.5C 274.707,74.9744 277.207,73.3077 279,70.5C 283.167,59.5 287.333,48.5 291.5,37.5C 289.604,36.5344 287.604,36.2011 285.5,36.5C 286.449,35.8476 287.615,35.5143 289,35.5C 290.658,35.6752 291.991,36.3418 293,37.5C 293.395,35.8214 293.228,34.1547 292.5,32.5C 294.049,26.9995 295.216,21.6662 296,16.5C 298.887,16.2292 301.721,17.0625 304.5,19C 305.126,19.7504 305.626,20.5838 306,21.5C 313.123,13.9688 320.623,14.4688 328.5,23C 336.188,24.4647 338.188,21.7981 334.5,15C 337.536,13.0987 340.87,11.932 344.5,11.5C 345.677,7.18579 348.011,3.18579 351.5,-0.5 Z"/></g>
<g><path style="opacity:1" fill="#4a5155" d="M 313.5,44.5 C 314.404,45.209 314.737,46.209 314.5,47.5C 309.786,47.8266 305.12,47.4933 300.5,46.5C 300.624,45.8933 300.957,45.56 301.5,45.5C 303.304,46.162 305.304,46.4954 307.5,46.5C 309.952,46.4609 311.952,45.7943 313.5,44.5 Z"/></g>
<g><path style="opacity:1" fill="#0f1a1e" d="M 313.5,44.5 C 311.952,45.7943 309.952,46.4609 307.5,46.5C 305.304,46.4954 303.304,46.162 301.5,45.5C 302.451,42.6857 304.451,41.3523 307.5,41.5C 310.102,41.4672 312.102,42.4672 313.5,44.5 Z"/></g>
<g><path style="opacity:1" fill="#5e6b6c" d="M 287.5,81.5 C 290.385,81.1936 293.052,81.5269 295.5,82.5C 291.5,82.5 287.5,82.5 283.5,82.5C 283.5,83.5 283.5,84.5 283.5,85.5C 282.662,85.1583 282.328,84.4916 282.5,83.5C 283.552,81.744 285.219,81.0773 287.5,81.5 Z"/></g>
<g><path style="opacity:1" fill="#c6cbcc" d="M 208.5,81.5 C 210.091,82.2189 211.591,83.2189 213,84.5C 213.667,85.1667 213.667,85.8333 213,86.5C 210.063,85.5891 206.897,85.5891 203.5,86.5C 200.9,89.2937 200.9,92.127 203.5,95C 206.669,95.9782 209.503,95.4782 212,93.5C 212.87,94.1079 213.37,94.9412 213.5,96C 210.516,99.5496 206.849,100.383 202.5,98.5C 200.496,97.3272 198.996,95.6605 198,93.5C 197.028,85.6364 200.528,81.6364 208.5,81.5 Z"/></g>
<g><path style="opacity:1" fill="#a7b1b3" d="M 218.5,82.5 C 219.5,82.5 220.5,82.5 221.5,82.5C 221.5,84.5 221.5,86.5 221.5,88.5C 223.833,88.5 226.167,88.5 228.5,88.5C 228.5,86.5 228.5,84.5 228.5,82.5C 229.833,82.5 231.167,82.5 232.5,82.5C 232.5,88.1667 232.5,93.8333 232.5,99.5C 231.167,99.5 229.833,99.5 228.5,99.5C 228.5,97.1667 228.5,94.8333 228.5,92.5C 226.167,92.5 223.833,92.5 221.5,92.5C 221.5,94.5 221.5,96.5 221.5,98.5C 220.5,98.5 219.5,98.5 218.5,98.5C 218.5,93.1667 218.5,87.8333 218.5,82.5 Z"/></g>
<g><path style="opacity:1" fill="#c8cdce" d="M 246.5,82.5 C 248.871,87.2647 250.871,92.2647 252.5,97.5C 251.432,98.4345 250.099,98.7678 248.5,98.5C 248.737,97.209 248.404,96.209 247.5,95.5C 245.167,95.5 242.833,95.5 240.5,95.5C 240.5,96.8333 240.5,98.1667 240.5,99.5C 239.167,99.5 237.833,99.5 236.5,99.5C 237.631,93.9403 239.464,88.607 242,83.5C 243.356,82.6198 244.856,82.2865 246.5,82.5 Z"/></g>
<g><path style="opacity:1" fill="#d1d5d6" d="M 266.5,90.5 C 266.783,91.2891 267.283,91.9558 268,92.5C 268.498,89.1832 268.665,85.8499 268.5,82.5C 269.5,82.5 270.5,82.5 271.5,82.5C 271.5,87.8333 271.5,93.1667 271.5,98.5C 270.5,98.5 269.5,98.5 268.5,98.5C 265.864,95.6902 263.364,92.6902 261,89.5C 260.502,92.8168 260.335,96.1501 260.5,99.5C 259.167,99.5 257.833,99.5 256.5,99.5C 256.5,93.8333 256.5,88.1667 256.5,82.5C 257.873,82.3433 259.207,82.51 260.5,83C 262.629,85.4392 264.629,87.9392 266.5,90.5 Z"/></g>
<g><path style="opacity:1" fill="#d5d9da" d="M 295.5,82.5 C 293.962,87.2412 291.296,91.4079 287.5,95C 290.146,95.4974 292.813,95.6641 295.5,95.5C 295.5,96.5 295.5,97.5 295.5,98.5C 291.167,98.5 286.833,98.5 282.5,98.5C 282.491,96.6916 282.991,95.0249 284,93.5C 286.54,91.2953 288.707,88.7953 290.5,86C 288.19,85.5034 285.857,85.3367 283.5,85.5C 283.5,84.5 283.5,83.5 283.5,82.5C 287.5,82.5 291.5,82.5 295.5,82.5 Z"/></g>
<g><path style="opacity:1" fill="#cdd1d2" d="M 303.5,82.5 C 304.324,86.3123 304.824,90.3123 305,94.5C 307.33,96.0317 309.33,95.6983 311,93.5C 311.499,89.8484 311.665,86.1817 311.5,82.5C 312.5,82.5 313.5,82.5 314.5,82.5C 314.5,86.5 314.5,90.5 314.5,94.5C 312.927,98.4587 309.927,100.125 305.5,99.5C 303.871,98.3747 302.371,97.0414 301,95.5C 300.501,91.1794 300.334,86.8461 300.5,82.5C 301.5,82.5 302.5,82.5 303.5,82.5 Z"/></g>
<g><path style="opacity:1" fill="#c9cdce" d="M 330.5,81.5 C 332.378,82.2076 334.045,83.3743 335.5,85C 334.568,87.6512 333.235,87.9845 331.5,86C 325,84.5 322.5,87 324,93.5C 325.126,94.9436 326.626,95.6102 328.5,95.5C 330.524,94.9788 332.524,94.8122 334.5,95C 334.957,95.414 335.291,95.914 335.5,96.5C 334.757,97.1818 334.091,97.8485 333.5,98.5C 327.511,100.858 323.011,99.1918 320,93.5C 319.028,85.6364 322.528,81.6364 330.5,81.5 Z"/></g>
<g><path style="opacity:1" fill="#cbcfd0" d="M 349.5,82.5 C 350.873,82.3433 352.207,82.51 353.5,83C 351.259,84.7391 349.592,86.9058 348.5,89.5C 350.5,92.5 352.5,95.5 354.5,98.5C 353.277,99.6139 351.944,99.7805 350.5,99C 348.994,96.6667 347.327,94.5 345.5,92.5C 344.914,92.7093 344.414,93.0426 344,93.5C 343.505,95.4727 343.338,97.4727 343.5,99.5C 342.167,99.5 340.833,99.5 339.5,99.5C 339.5,98.1667 339.5,96.8333 339.5,95.5C 339.5,91.1667 339.5,86.8333 339.5,82.5C 340.833,82.5 342.167,82.5 343.5,82.5C 343.338,84.5273 343.505,86.5273 344,88.5C 346.04,86.6298 347.873,84.6298 349.5,82.5 Z"/></g>
<g><path style="opacity:1" fill="#d8dbdc" d="M 375.5,82.5 C 379.911,82.021 384.078,82.6876 388,84.5C 388.844,87.6057 388.344,90.439 386.5,93C 387.044,94.585 387.711,96.085 388.5,97.5C 388.083,98.1239 387.416,98.4573 386.5,98.5C 384.6,97.5529 383.267,96.0529 382.5,94C 381.207,93.51 379.873,93.3433 378.5,93.5C 378.5,95.1667 378.5,96.8333 378.5,98.5C 377.5,98.5 376.5,98.5 375.5,98.5C 375.5,93.1667 375.5,87.8333 375.5,82.5 Z"/></g>
<g><path style="opacity:1" fill="#ced2d3" d="M 428.5,82.5 C 432.182,82.3347 435.848,82.5014 439.5,83C 441.314,85.4815 441.98,88.3148 441.5,91.5C 440.522,91.811 439.855,92.4777 439.5,93.5C 440.752,95.0009 441.752,96.6675 442.5,98.5C 441.833,98.8333 441.167,99.1667 440.5,99.5C 438.502,98.0333 436.836,96.1999 435.5,94C 434.552,93.5172 433.552,93.3505 432.5,93.5C 432.5,95.5 432.5,97.5 432.5,99.5C 431.167,99.5 429.833,99.5 428.5,99.5C 428.5,93.8333 428.5,88.1667 428.5,82.5 Z"/></g>
<g><path style="opacity:1" fill="#c7cbcc" d="M 453.5,81.5 C 455.564,81.687 457.564,82.187 459.5,83C 461.985,84.2227 462.152,85.7227 460,87.5C 456.304,84.5749 452.971,84.9083 450,88.5C 449.57,94.4033 452.403,96.7366 458.5,95.5C 458.5,94.5 458.5,93.5 458.5,92.5C 457.5,92.5 456.5,92.5 455.5,92.5C 455.5,91.5 455.5,90.5 455.5,89.5C 457.833,89.5 460.167,89.5 462.5,89.5C 463.867,96.1284 461.2,99.4617 454.5,99.5C 448.764,98.7256 445.764,95.3923 445.5,89.5C 446.5,85.1667 449.167,82.5 453.5,81.5 Z"/></g>
<g><path style="opacity:1" fill="#787e81" d="M 311.5,82.5 C 312.568,81.5655 313.901,81.2322 315.5,81.5C 315.818,86.0323 315.485,90.3656 314.5,94.5C 314.5,90.5 314.5,86.5 314.5,82.5C 313.5,82.5 312.5,82.5 311.5,82.5 Z"/></g>
<g><path style="opacity:1" fill="#1c2224" d="M 432.5,85.5 C 434.199,85.3398 435.866,85.5065 437.5,86C 438.925,87.7141 438.592,89.0475 436.5,90C 435.207,90.49 433.873,90.6567 432.5,90.5C 432.5,88.8333 432.5,87.1667 432.5,85.5 Z"/></g>
<g><path style="opacity:1" fill="#50595d" d="M 271.5,82.5 C 272.489,87.9753 272.822,93.642 272.5,99.5C 270.901,99.7678 269.568,99.4345 268.5,98.5C 269.5,98.5 270.5,98.5 271.5,98.5C 271.5,93.1667 271.5,87.8333 271.5,82.5 Z"/></g>
<g><path style="opacity:1" fill="#081013" d="M 445.5,42.5 C 443.091,39.1154 439.757,36.9488 435.5,36C 421.794,36.2124 416.461,43.0457 419.5,56.5C 419.313,58.5643 418.813,60.5643 418,62.5C 415.866,61.6952 414.033,62.3618 412.5,64.5C 413.349,66.5101 412.682,68.1767 410.5,69.5C 410.694,71.0701 410.694,72.5701 410.5,74C 409.975,74.6924 409.308,75.1924 408.5,75.5C 406.675,74.4291 405.508,75.0958 405,77.5C 404.667,77.1667 404.333,76.8333 404,76.5C 402.933,77.1905 401.766,77.6905 400.5,78C 402.101,78.2734 403.601,78.7734 405,79.5C 405.725,81.1575 405.225,82.1575 403.5,82.5C 400.167,82.5 396.833,82.5 393.5,82.5C 393.5,88.1667 393.5,93.8333 393.5,99.5C 397.308,99.8368 400.974,99.3368 404.5,98C 407.167,95.3333 407.167,92.6667 404.5,90C 405.056,89.6174 405.389,89.1174 405.5,88.5C 406.222,88.0825 406.722,87.4158 407,86.5C 408,87.8333 409,87.8333 410,86.5C 410.175,91.0195 410.675,95.3528 411.5,99.5C 415.833,99.5 420.167,99.5 424.5,99.5C 424.768,97.901 424.434,96.5676 423.5,95.5C 420.833,95.5 418.167,95.5 415.5,95.5C 415.5,94.5 415.5,93.5 415.5,92.5C 417.833,92.5 420.167,92.5 422.5,92.5C 422.5,91.1667 422.5,89.8333 422.5,88.5C 420.167,88.5 417.833,88.5 415.5,88.5C 415.5,87.5 415.5,86.5 415.5,85.5C 418.5,85.5 421.5,85.5 424.5,85.5C 424.5,84.5 424.5,83.5 424.5,82.5C 425.833,82.5 427.167,82.5 428.5,82.5C 428.5,88.1667 428.5,93.8333 428.5,99.5C 429.833,99.5 431.167,99.5 432.5,99.5C 432.5,97.5 432.5,95.5 432.5,93.5C 433.552,93.3505 434.552,93.5172 435.5,94C 436.836,96.1999 438.502,98.0333 440.5,99.5C 441.167,99.1667 441.833,98.8333 442.5,98.5C 441.752,96.6675 440.752,95.0009 439.5,93.5C 439.855,92.4777 440.522,91.811 441.5,91.5C 443.062,91.2671 444.395,90.6005 445.5,89.5C 445.764,95.3923 448.764,98.7256 454.5,99.5C 455.598,100.397 455.598,101.23 454.5,102C 455.167,102.667 455.833,103.333 456.5,104C 459.167,104.333 461.833,104.667 464.5,105C 465.9,106.438 467.567,107.271 469.5,107.5C 469.461,105.641 470.294,104.308 472,103.5C 472.368,104.91 473.201,105.91 474.5,106.5C 477.283,103.649 479.616,103.983 481.5,107.5C 486.036,102.056 491.703,100.056 498.5,101.5C 501.922,98.7104 502.589,98.877 500.5,102C 502.833,103 505.167,104 507.5,105C 506.483,106.049 506.316,107.216 507,108.5C 508.359,109.365 509.526,110.365 510.5,111.5C 508.215,114.565 507.882,117.898 509.5,121.5C 508.66,124.339 508.327,127.173 508.5,130C 509.878,131.713 511.545,133.047 513.5,134C 511.486,135.683 509.82,137.683 508.5,140C 509.451,143.057 509.784,146.223 509.5,149.5C 507.5,149.5 505.5,149.5 503.5,149.5C 505.659,144.148 504.159,140.148 499,137.5C 498.51,136.207 498.343,134.873 498.5,133.5C 500.39,133.703 501.89,133.037 503,131.5C 503.29,129.08 503.79,126.746 504.5,124.5C 505.684,123.312 505.684,122.145 504.5,121C 502.086,122.207 499.419,122.54 496.5,122C 492.5,118.667 492.5,115.333 496.5,112C 499.419,111.46 502.086,111.793 504.5,113C 505.791,110.91 505.124,109.576 502.5,109C 494.177,107.485 489.844,110.985 489.5,119.5C 488.472,122.098 487.472,122.098 486.5,119.5C 486.586,118.504 486.252,117.671 485.5,117C 482.816,116.222 480.483,114.889 478.5,113C 480.138,111.199 481.972,111.032 484,112.5C 485.28,112.387 486.113,111.72 486.5,110.5C 483.397,108.296 480.063,107.963 476.5,109.5C 473.307,114.872 474.974,118.039 481.5,119C 482.337,120.011 482.67,121.178 482.5,122.5C 479.833,122.167 477.167,121.833 474.5,121.5C 474.746,124.47 476.412,125.803 479.5,125.5C 480.023,129.481 479.523,133.481 478,137.5C 474.263,140.639 472.43,144.639 472.5,149.5C 443.5,149.5 414.5,149.5 385.5,149.5C 385.247,147.173 385.914,145.173 387.5,143.5C 386.067,140.007 383.4,138.34 379.5,138.5C 378.534,132.219 377.867,125.885 377.5,119.5C 379.5,119.5 381.5,119.5 383.5,119.5C 383.5,118.167 383.5,116.833 383.5,115.5C 381.167,115.5 378.833,115.5 376.5,115.5C 376.5,114.167 376.5,112.833 376.5,111.5C 379.5,111.5 382.5,111.5 385.5,111.5C 385.5,110.5 385.5,109.5 385.5,108.5C 389.087,106.258 389.421,103.425 386.5,100C 387.624,99.7508 388.624,99.2508 389.5,98.5C 389.376,97.8933 389.043,97.56 388.5,97.5C 387.711,96.085 387.044,94.585 386.5,93C 388.344,90.439 388.844,87.6057 388,84.5C 384.078,82.6876 379.911,82.021 375.5,82.5C 374.674,86.9819 374.174,91.6486 374,96.5C 372.989,95.6634 371.822,95.33 370.5,95.5C 367.5,95.5 364.5,95.5 361.5,95.5C 361.5,94.5 361.5,93.5 361.5,92.5C 363.833,92.5 366.167,92.5 368.5,92.5C 368.5,91.1667 368.5,89.8333 368.5,88.5C 366.167,88.5 363.833,88.5 361.5,88.5C 361.5,87.5 361.5,86.5 361.5,85.5C 364.5,85.5 367.5,85.5 370.5,85.5C 370.5,84.5 370.5,83.5 370.5,82.5C 366.167,81.1667 361.833,81.1667 357.5,82.5C 357.167,82.5 356.833,82.5 356.5,82.5C 356.368,79.2033 354.702,77.5367 351.5,77.5C 351.338,75.4727 351.505,73.4727 352,71.5C 352.333,72.1667 352.667,72.8333 353,73.5C 355.317,73.609 357.817,73.2756 360.5,72.5C 362.693,72.8644 364.527,73.8644 366,75.5C 367.076,73.9328 367.909,72.2662 368.5,70.5C 367.449,68.4706 366.115,66.6373 364.5,65C 364.639,63.699 365.305,62.8656 366.5,62.5C 376.702,66.3477 385.868,64.6811 394,57.5C 394.499,52.5111 394.666,47.5111 394.5,42.5C 389.167,42.5 383.833,42.5 378.5,42.5C 378.5,44.5 378.5,46.5 378.5,48.5C 381.5,48.5 384.5,48.5 387.5,48.5C 387.953,51.6521 386.953,54.1521 384.5,56C 369.363,59.8619 362.53,54.0286 364,38.5C 370.556,28.119 378.723,26.7856 388.5,34.5C 390.786,33.8671 392.452,32.5338 393.5,30.5C 396.91,30.2181 400.243,29.5514 403.5,28.5C 406.046,29.6563 408.546,30.6563 411,31.5C 411.333,31.1667 411.667,30.8333 412,30.5C 413.154,31.7433 414.488,32.7433 416,33.5C 420.263,31.1681 424.596,29.5014 429,28.5C 432.327,30.7074 435.827,31.0408 439.5,29.5C 446.546,31.6662 448.546,35.9995 445.5,42.5 Z"/></g>
<g><path style="opacity:1" fill="#0b1417" d="M 379.5,85.5 C 383.517,84.8386 384.851,86.1719 383.5,89.5C 382.167,89.5 380.833,89.5 379.5,89.5C 379.5,88.1667 379.5,86.8333 379.5,85.5 Z"/></g>
<g><path style="opacity:1" fill="#cacecf" d="M 424.5,82.5 C 424.5,83.5 424.5,84.5 424.5,85.5C 421.5,85.5 418.5,85.5 415.5,85.5C 415.5,86.5 415.5,87.5 415.5,88.5C 417.833,88.5 420.167,88.5 422.5,88.5C 422.5,89.8333 422.5,91.1667 422.5,92.5C 420.167,92.5 417.833,92.5 415.5,92.5C 415.5,93.5 415.5,94.5 415.5,95.5C 418.167,95.5 420.833,95.5 423.5,95.5C 423.5,96.5 423.5,97.5 423.5,98.5C 419.5,98.5 415.5,98.5 411.5,98.5C 411.5,93.1667 411.5,87.8333 411.5,82.5C 415.833,82.5 420.167,82.5 424.5,82.5 Z"/></g>
<g><path style="opacity:1" fill="#c9cdce" d="M 403.5,82.5 C 405.075,84.1137 405.741,86.1137 405.5,88.5C 405.389,89.1174 405.056,89.6174 404.5,90C 407.167,92.6667 407.167,95.3333 404.5,98C 400.974,99.3368 397.308,99.8368 393.5,99.5C 393.5,93.8333 393.5,88.1667 393.5,82.5C 396.833,82.5 400.167,82.5 403.5,82.5 Z"/></g>
<g><path style="opacity:1" fill="#0d1416" d="M 397.5,85.5 C 404.167,86.5 404.167,87.5 397.5,88.5C 397.5,87.5 397.5,86.5 397.5,85.5 Z"/></g>
<g><path style="opacity:1" fill="#eff0f0" d="M 412.5,35.5 C 413.833,35.5 415.167,35.5 416.5,35.5C 416.5,37.8333 416.5,40.1667 416.5,42.5C 412.645,41.8454 409.812,43.1788 408,46.5C 407.501,52.1569 407.334,57.8236 407.5,63.5C 405.167,63.5 402.833,63.5 400.5,63.5C 400.5,54.5 400.5,45.5 400.5,36.5C 403.394,36.0423 405.894,36.709 408,38.5C 409.652,37.6006 411.152,36.6006 412.5,35.5 Z"/></g>
<g><path style="opacity:1" fill="#15242b" d="M 243.5,87.5 C 244.586,87.62 245.253,88.2867 245.5,89.5C 245.167,90.1667 244.833,90.8333 244.5,91.5C 243.571,90.3112 243.238,88.9778 243.5,87.5 Z"/></g>
<g><path style="opacity:1" fill="#5e6568" d="M 379.5,85.5 C 379.5,86.8333 379.5,88.1667 379.5,89.5C 380.833,89.5 382.167,89.5 383.5,89.5C 382.081,90.4511 380.415,90.7845 378.5,90.5C 378.216,88.5853 378.549,86.9187 379.5,85.5 Z"/></g>
<g><path style="opacity:1" fill="#050e11" d="M 397.5,92.5 C 399.167,92.5 400.833,92.5 402.5,92.5C 402.5,93.5 402.5,94.5 402.5,95.5C 400.833,95.5 399.167,95.5 397.5,95.5C 397.5,94.5 397.5,93.5 397.5,92.5 Z"/></g>
<g><path style="opacity:1" fill="#697b7d" d="M 218.5,82.5 C 218.5,87.8333 218.5,93.1667 218.5,98.5C 219.5,98.5 220.5,98.5 221.5,98.5C 220.432,99.4345 219.099,99.7678 217.5,99.5C 217.178,93.642 217.511,87.9753 218.5,82.5 Z"/></g>
<g><path style="opacity:1" fill="#1d3639" d="M 247.5,95.5 C 248.404,96.209 248.737,97.209 248.5,98.5C 250.099,98.7678 251.432,98.4345 252.5,97.5C 253.101,102.874 253.434,108.54 253.5,114.5C 255.167,114.5 256.833,114.5 258.5,114.5C 256.393,115.468 254.059,115.802 251.5,115.5C 251.5,113.167 251.5,110.833 251.5,108.5C 250.167,108.5 248.833,108.5 247.5,108.5C 247.5,113.833 247.5,119.167 247.5,124.5C 245.83,124.249 244.33,123.582 243,122.5C 242.329,123.252 241.496,123.586 240.5,123.5C 245.556,113.963 242.556,108.963 231.5,108.5C 233.042,107.837 234.709,107.17 236.5,106.5C 237.561,103.166 239.895,101.666 243.5,102C 244.551,100.615 245.884,99.6152 247.5,99C 246.5,98.6667 245.5,98.3333 244.5,98C 245.942,97.6232 246.942,96.7899 247.5,95.5 Z"/></g>
<g><path style="opacity:1" fill="#7e868a" d="M 370.5,82.5 C 366.5,82.5 362.5,82.5 358.5,82.5C 358.5,87.8333 358.5,93.1667 358.5,98.5C 362.5,98.5 366.5,98.5 370.5,98.5C 366.366,99.4849 362.032,99.8182 357.5,99.5C 357.5,93.8333 357.5,88.1667 357.5,82.5C 361.833,81.1667 366.167,81.1667 370.5,82.5 Z"/></g>
<g><path style="opacity:1" fill="#828688" d="M 423.5,95.5 C 424.434,96.5676 424.768,97.901 424.5,99.5C 420.167,99.5 415.833,99.5 411.5,99.5C 411.5,99.1667 411.5,98.8333 411.5,98.5C 415.5,98.5 419.5,98.5 423.5,98.5C 423.5,97.5 423.5,96.5 423.5,95.5 Z"/></g>
<g><path style="opacity:1" fill="#060a0e" d="M 71.5,98.5 C 75.349,101.52 77.6823,105.52 78.5,110.5C 76.279,115.664 72.6123,116.83 67.5,114C 66.8922,112.769 66.5589,111.436 66.5,110C 67.2191,105.731 68.8857,101.898 71.5,98.5 Z"/></g>
<g><path style="opacity:1" fill="#142328" d="M 349.5,82.5 C 351.998,81.8283 354.331,81.8283 356.5,82.5C 356.833,82.5 357.167,82.5 357.5,82.5C 357.5,88.1667 357.5,93.8333 357.5,99.5C 362.032,99.8182 366.366,99.4849 370.5,98.5C 370.5,97.5 370.5,96.5 370.5,95.5C 371.822,95.33 372.989,95.6634 374,96.5C 374.174,91.6486 374.674,86.9819 375.5,82.5C 375.5,87.8333 375.5,93.1667 375.5,98.5C 376.5,98.5 377.5,98.5 378.5,98.5C 378.5,96.8333 378.5,95.1667 378.5,93.5C 379.873,93.3433 381.207,93.51 382.5,94C 383.267,96.0529 384.6,97.5529 386.5,98.5C 387.416,98.4573 388.083,98.1239 388.5,97.5C 389.043,97.56 389.376,97.8933 389.5,98.5C 388.624,99.2508 387.624,99.7508 386.5,100C 389.421,103.425 389.087,106.258 385.5,108.5C 381.167,108.5 376.833,108.5 372.5,108.5C 372.158,105.645 370.491,104.145 367.5,104C 361.017,103.45 354.683,103.616 348.5,104.5C 343.579,104.697 339.912,102.697 337.5,98.5C 337.942,97.2613 338.609,96.2613 339.5,95.5C 339.5,96.8333 339.5,98.1667 339.5,99.5C 340.833,99.5 342.167,99.5 343.5,99.5C 343.338,97.4727 343.505,95.4727 344,93.5C 344.414,93.0426 344.914,92.7093 345.5,92.5C 347.327,94.5 348.994,96.6667 350.5,99C 351.944,99.7805 353.277,99.6139 354.5,98.5C 352.5,95.5 350.5,92.5 348.5,89.5C 349.592,86.9058 351.259,84.7391 353.5,83C 352.207,82.51 350.873,82.3433 349.5,82.5 Z"/></g>
<g><path style="opacity:1" fill="#d3d7d8" d="M 370.5,82.5 C 370.5,83.5 370.5,84.5 370.5,85.5C 367.5,85.5 364.5,85.5 361.5,85.5C 361.5,86.5 361.5,87.5 361.5,88.5C 363.833,88.5 366.167,88.5 368.5,88.5C 368.5,89.8333 368.5,91.1667 368.5,92.5C 366.167,92.5 363.833,92.5 361.5,92.5C 361.5,93.5 361.5,94.5 361.5,95.5C 364.5,95.5 367.5,95.5 370.5,95.5C 370.5,96.5 370.5,97.5 370.5,98.5C 366.5,98.5 362.5,98.5 358.5,98.5C 358.5,93.1667 358.5,87.8333 358.5,82.5C 362.5,82.5 366.5,82.5 370.5,82.5 Z"/></g>
<g><path style="opacity:1" fill="#cbcfd0" d="M 204.5,108.5 C 207.325,108.081 209.491,109.081 211,111.5C 210.497,115.29 210.83,118.957 212,122.5C 211.097,123.701 209.931,124.535 208.5,125C 205.183,125.498 201.85,125.665 198.5,125.5C 198.5,119.833 198.5,114.167 198.5,108.5C 200.5,108.5 202.5,108.5 204.5,108.5 Z"/></g>
<g><path style="opacity:1" fill="#cdd2d4" d="M 220.5,115.5 C 220.5,118.833 220.5,122.167 220.5,125.5C 219.167,125.5 217.833,125.5 216.5,125.5C 216.5,123.5 216.5,121.5 216.5,119.5C 216.5,115.833 216.5,112.167 216.5,108.5C 217.833,108.5 219.167,108.5 220.5,108.5C 220.5,110.833 220.5,113.167 220.5,115.5 Z"/></g>
<g><path style="opacity:1" fill="#d1d6d7" d="M 231.5,108.5 C 242.556,108.963 245.556,113.963 240.5,123.5C 236.1,126.099 231.767,126.099 227.5,123.5C 225.394,121.281 224.394,118.615 224.5,115.5C 225.855,112.145 228.189,109.811 231.5,108.5 Z"/></g>
<g><path style="opacity:1" fill="#cfd3d4" d="M 258.5,114.5 C 258.5,112.5 258.5,110.5 258.5,108.5C 259.833,108.5 261.167,108.5 262.5,108.5C 262.5,114.167 262.5,119.833 262.5,125.5C 261.167,125.5 259.833,125.5 258.5,125.5C 258.5,123.167 258.5,120.833 258.5,118.5C 256.167,118.5 253.833,118.5 251.5,118.5C 251.5,120.833 251.5,123.167 251.5,125.5C 249.901,125.768 248.568,125.434 247.5,124.5C 247.5,119.167 247.5,113.833 247.5,108.5C 248.833,108.5 250.167,108.5 251.5,108.5C 251.5,110.833 251.5,113.167 251.5,115.5C 254.059,115.802 256.393,115.468 258.5,114.5 Z"/></g>
<g><path style="opacity:1" fill="#cdd1d2" d="M 280.5,108.5 C 281.794,110.048 282.461,112.048 282.5,114.5C 281.673,126.218 276.673,128.551 267.5,121.5C 267.5,117.167 267.5,112.833 267.5,108.5C 268.833,108.5 270.167,108.5 271.5,108.5C 271.334,112.514 271.501,116.514 272,120.5C 274,123.167 276,123.167 278,120.5C 277.898,116.044 278.732,112.044 280.5,108.5 Z"/></g>
<g><path style="opacity:1" fill="#cacfd0" d="M 298.5,109.5 C 299.401,110.29 300.068,111.29 300.5,112.5C 300.322,113.695 299.989,114.862 299.5,116C 302.657,122.716 300.324,125.882 292.5,125.5C 290.833,125.5 289.167,125.5 287.5,125.5C 287.5,119.833 287.5,114.167 287.5,108.5C 291.269,108.244 294.936,108.577 298.5,109.5 Z"/></g>
<g><path style="opacity:1" fill="#cfd3d4" d="M 323.5,122.5 C 319.301,126.233 314.967,126.4 310.5,123C 312.299,121.298 314.299,121.131 316.5,122.5C 318,122.547 319,121.881 319.5,120.5C 316.698,119.288 314.198,117.621 312,115.5C 311.51,114.207 311.343,112.873 311.5,111.5C 311.953,110.542 312.619,109.708 313.5,109C 316.23,108.272 318.897,108.438 321.5,109.5C 322.521,110.002 322.688,110.668 322,111.5C 319.973,111.986 317.807,111.986 315.5,111.5C 315.33,112.822 315.663,113.989 316.5,115C 321.152,115.481 323.485,117.981 323.5,122.5 Z"/></g>
<g><path style="opacity:1" fill="#d0d4d5" d="M 337.5,122.5 C 335.372,121.371 333.039,121.204 330.5,122C 330.026,123.729 329.026,124.895 327.5,125.5C 325.204,125.196 324.871,124.196 326.5,122.5C 327.876,118.077 329.543,113.744 331.5,109.5C 333.167,108.167 334.833,108.167 336.5,109.5C 338.223,114.613 340.223,119.613 342.5,124.5C 340.091,125.798 338.425,125.131 337.5,122.5 Z"/></g>
<g><path style="opacity:1" fill="#c8cccd" d="M 346.5,108.5 C 347.552,108.351 348.552,108.517 349.5,109C 352,112.167 354.5,115.333 357,118.5C 357.498,115.183 357.665,111.85 357.5,108.5C 358.833,108.5 360.167,108.5 361.5,108.5C 361.5,114.167 361.5,119.833 361.5,125.5C 360.127,125.657 358.793,125.49 357.5,125C 355,121.833 352.5,118.667 350,115.5C 350.083,119.311 349.25,122.645 347.5,125.5C 346.186,123.085 345.519,120.252 345.5,117C 345.502,113.979 345.836,111.146 346.5,108.5 Z"/></g>
<g><path style="opacity:1" fill="#c9cdce" d="M 372.5,108.5 C 376.833,108.5 381.167,108.5 385.5,108.5C 385.5,109.5 385.5,110.5 385.5,111.5C 382.5,111.5 379.5,111.5 376.5,111.5C 376.5,112.833 376.5,114.167 376.5,115.5C 378.833,115.5 381.167,115.5 383.5,115.5C 383.5,116.833 383.5,118.167 383.5,119.5C 381.5,119.5 379.5,119.5 377.5,119.5C 376.539,121.265 376.205,123.265 376.5,125.5C 375.167,125.5 373.833,125.5 372.5,125.5C 372.5,119.833 372.5,114.167 372.5,108.5 Z"/></g>
<g><path style="opacity:1" fill="#ced1d2" d="M 389.5,108.5 C 393.911,108.021 398.078,108.688 402,110.5C 402.936,113.792 402.436,116.792 400.5,119.5C 401.373,121.413 402.373,123.247 403.5,125C 402.167,125.667 400.833,125.667 399.5,125C 398.5,123.333 397.5,121.667 396.5,120C 395.552,119.517 394.552,119.351 393.5,119.5C 393.5,121.5 393.5,123.5 393.5,125.5C 392.167,125.5 390.833,125.5 389.5,125.5C 389.5,119.833 389.5,114.167 389.5,108.5 Z"/></g>
<g><path style="opacity:1" fill="#cfd3d4" d="M 412.5,108.5 C 414.144,108.286 415.644,108.62 417,109.5C 419.141,114.756 420.974,120.09 422.5,125.5C 421.167,125.5 419.833,125.5 418.5,125.5C 418.67,124.178 418.337,123.011 417.5,122C 415.19,121.503 412.857,121.337 410.5,121.5C 410.592,125.071 408.926,126.238 405.5,125C 407.739,119.447 410.072,113.947 412.5,108.5 Z"/></g>
<g><path style="opacity:1" fill="#d3d7d8" d="M 436.5,117.5 C 436.56,118.043 436.893,118.376 437.5,118.5C 438.487,115.232 438.82,111.898 438.5,108.5C 439.5,108.5 440.5,108.5 441.5,108.5C 441.5,114.167 441.5,119.833 441.5,125.5C 440.022,125.762 438.689,125.429 437.5,124.5C 435.573,121.65 433.406,118.983 431,116.5C 430.502,119.482 430.335,122.482 430.5,125.5C 429.167,125.5 427.833,125.5 426.5,125.5C 426.5,119.833 426.5,114.167 426.5,108.5C 431.015,110.006 434.348,113.006 436.5,117.5 Z"/></g>
<g><path style="opacity:1" fill="#757b7c" d="M 438.5,108.5 C 438.82,111.898 438.487,115.232 437.5,118.5C 436.893,118.376 436.56,118.043 436.5,117.5C 437.167,114.5 437.833,111.5 438.5,108.5 Z"/></g>
<g><path style="opacity:1" fill="#cfd2d3" d="M 451.5,108.5 C 454.187,108.336 456.854,108.503 459.5,109C 461.784,110.363 461.951,111.863 460,113.5C 452.423,109.735 449.423,112.069 451,120.5C 452.313,121.573 453.813,122.24 455.5,122.5C 457.51,121.638 459.51,121.138 461.5,121C 461.957,121.414 462.291,121.914 462.5,122.5C 459.376,125.356 455.709,126.189 451.5,125C 446.845,122.103 445.345,117.937 447,112.5C 448.397,110.93 449.897,109.596 451.5,108.5 Z"/></g>
<g><path style="opacity:1" fill="#c8cbcc" d="M 466.5,108.5 C 467.833,108.5 469.167,108.5 470.5,108.5C 470.5,114.167 470.5,119.833 470.5,125.5C 469.167,125.5 467.833,125.5 466.5,125.5C 466.5,119.833 466.5,114.167 466.5,108.5 Z"/></g>
<g><path style="opacity:1" fill="#cacdce" d="M 486.5,119.5 C 486.519,124.016 484.186,126.016 479.5,125.5C 476.412,125.803 474.746,124.47 474.5,121.5C 477.167,121.833 479.833,122.167 482.5,122.5C 482.67,121.178 482.337,120.011 481.5,119C 474.974,118.039 473.307,114.872 476.5,109.5C 480.063,107.963 483.397,108.296 486.5,110.5C 486.113,111.72 485.28,112.387 484,112.5C 481.972,111.032 480.138,111.199 478.5,113C 480.483,114.889 482.816,116.222 485.5,117C 486.252,117.671 486.586,118.504 486.5,119.5 Z"/></g>
<g><path style="opacity:1" fill="#d0d4d5" d="M 504.5,124.5 C 497.923,127.076 492.923,125.409 489.5,119.5C 489.844,110.985 494.177,107.485 502.5,109C 505.124,109.576 505.791,110.91 504.5,113C 502.086,111.793 499.419,111.46 496.5,112C 492.5,115.333 492.5,118.667 496.5,122C 499.419,122.54 502.086,122.207 504.5,121C 505.684,122.145 505.684,123.312 504.5,124.5 Z"/></g>
<g><path style="opacity:1" fill="#d2d5d6" d="M 509.5,121.5 C 507.882,117.898 508.215,114.565 510.5,111.5C 511.627,110.878 512.627,110.045 513.5,109C 523.721,107.221 527.888,111.387 526,121.5C 520.428,126.807 514.928,126.807 509.5,121.5 Z"/></g>
<g><path style="opacity:1" fill="#030609" d="M 88.5,108.5 C 98.0246,108.523 101.858,113.189 100,122.5C 93.4024,129.513 87.7357,128.846 83,120.5C 82.3121,115.352 84.1454,111.352 88.5,108.5 Z"/></g>
<g><path style="opacity:1" fill="#172124" d="M 202.5,111.5 C 204.665,111.116 206.332,111.783 207.5,113.5C 205.955,114.452 204.288,114.785 202.5,114.5C 202.5,113.5 202.5,112.5 202.5,111.5 Z"/></g>
<g><path style="opacity:1" fill="#172629" d="M 291.5,111.5 C 293.665,111.116 295.332,111.783 296.5,113.5C 294.955,114.452 293.288,114.785 291.5,114.5C 291.5,113.5 291.5,112.5 291.5,111.5 Z"/></g>
<g><path style="opacity:1" fill="#0a1114" d="M 393.5,112.5 C 395.167,112.5 396.833,112.5 398.5,112.5C 398.5,113.833 398.5,115.167 398.5,116.5C 396.833,116.5 395.167,116.5 393.5,116.5C 393.5,115.167 393.5,113.833 393.5,112.5 Z"/></g>
<g><path style="opacity:1" fill="#131819" d="M 515.5,111.5 C 522.745,111.555 524.745,114.722 521.5,121C 515.229,123.4 512.396,121.233 513,114.5C 514.045,113.627 514.878,112.627 515.5,111.5 Z"/></g>
<g><path style="opacity:1" fill="#1c3135" d="M 231.5,111.5 C 239.818,111.987 241.485,115.487 236.5,122C 228.088,121.812 226.421,118.312 231.5,111.5 Z"/></g>
<g><path style="opacity:1" fill="#112528" d="M 303.5,81.5 C 303.5,81.8333 303.5,82.1667 303.5,82.5C 302.5,82.5 301.5,82.5 300.5,82.5C 300.334,86.8461 300.501,91.1794 301,95.5C 302.371,97.0414 303.871,98.3747 305.5,99.5C 303.202,102.808 300.869,106.141 298.5,109.5C 294.936,108.577 291.269,108.244 287.5,108.5C 287.5,114.167 287.5,119.833 287.5,125.5C 289.167,125.5 290.833,125.5 292.5,125.5C 291.188,127.479 289.521,129.145 287.5,130.5C 287.846,131.696 288.346,131.696 289,130.5C 289.617,131.449 289.451,132.282 288.5,133C 290.833,135 293.167,137 295.5,139C 295.167,139.333 294.833,139.667 294.5,140C 297.999,142.503 299.665,145.67 299.5,149.5C 288.833,149.5 278.167,149.5 267.5,149.5C 267.237,143.089 268.237,136.923 270.5,131C 269.12,128.994 267.786,126.994 266.5,125C 266.648,123.744 266.982,122.577 267.5,121.5C 276.673,128.551 281.673,126.218 282.5,114.5C 282.461,112.048 281.794,110.048 280.5,108.5C 279.972,107.279 279.305,106.113 278.5,105C 279.634,103.984 279.301,103.317 277.5,103C 278.167,101.333 278.833,99.6667 279.5,98C 279.391,93.3781 279.391,88.5448 279.5,83.5C 280.5,83.5 281.5,83.5 282.5,83.5C 282.328,84.4916 282.662,85.1583 283.5,85.5C 285.857,85.3367 288.19,85.5034 290.5,86C 288.707,88.7953 286.54,91.2953 284,93.5C 282.991,95.0249 282.491,96.6916 282.5,98.5C 286.97,99.4861 291.637,99.8195 296.5,99.5C 296.768,97.901 296.434,96.5676 295.5,95.5C 292.813,95.6641 290.146,95.4974 287.5,95C 291.296,91.4079 293.962,87.2412 295.5,82.5C 293.052,81.5269 290.385,81.1936 287.5,81.5C 287.783,80.7109 288.283,80.0442 289,79.5C 293.763,80.3944 298.597,81.0611 303.5,81.5 Z"/></g>
<g><path style="opacity:1" fill="#828e90" d="M 295.5,95.5 C 296.434,96.5676 296.768,97.901 296.5,99.5C 291.637,99.8195 286.97,99.4861 282.5,98.5C 286.833,98.5 291.167,98.5 295.5,98.5C 295.5,97.5 295.5,96.5 295.5,95.5 Z"/></g>
<g><path style="opacity:1" fill="#272f33" d="M 333.5,113.5 C 334.931,114.78 335.598,116.447 335.5,118.5C 334.5,118.5 333.5,118.5 332.5,118.5C 332.366,116.708 332.699,115.042 333.5,113.5 Z"/></g>
<g><path style="opacity:1" fill="#2e3536" d="M 413.5,114.5 C 415.121,114.787 416.121,115.787 416.5,117.5C 415.167,118.833 413.833,118.833 412.5,117.5C 413.127,116.583 413.461,115.583 413.5,114.5 Z"/></g>
<g><path style="opacity:1" fill="#1a2a2e" d="M 202.5,118.5 C 204.977,118.051 206.977,118.717 208.5,120.5C 206.977,122.283 204.977,122.949 202.5,122.5C 202.5,121.167 202.5,119.833 202.5,118.5 Z"/></g>
<g><path style="opacity:1" fill="#1c2d30" d="M 291.5,118.5 C 293.977,118.051 295.977,118.717 297.5,120.5C 295.977,122.283 293.977,122.949 291.5,122.5C 291.5,121.167 291.5,119.833 291.5,118.5 Z"/></g>
<g><path style="opacity:1" fill="#112629" d="M 247.5,124.5 C 248.568,125.434 249.901,125.768 251.5,125.5C 249.897,126.596 248.397,127.93 247,129.5C 246.667,129.167 246.333,128.833 246,128.5C 243.853,129.113 241.686,129.779 239.5,130.5C 244.097,130.79 247.597,132.79 250,136.5C 252.608,135.725 255.108,134.725 257.5,133.5C 262.15,134.266 263.65,136.932 262,141.5C 257.815,142.519 255.648,145.186 255.5,149.5C 247.5,149.5 239.5,149.5 231.5,149.5C 232.782,147.536 234.115,145.536 235.5,143.5C 234.03,140.727 232.697,137.894 231.5,135C 234.327,131.254 233.327,128.754 228.5,127.5C 227.754,126.264 227.421,124.93 227.5,123.5C 231.767,126.099 236.1,126.099 240.5,123.5C 241.496,123.586 242.329,123.252 243,122.5C 244.33,123.582 245.83,124.249 247.5,124.5 Z"/></g>
<g><path style="opacity:1" fill="#0b1819" d="M 486.5,119.5 C 487.472,122.098 488.472,122.098 489.5,119.5C 492.923,125.409 497.923,127.076 504.5,124.5C 503.79,126.746 503.29,129.08 503,131.5C 501.89,133.037 500.39,133.703 498.5,133.5C 498.343,134.873 498.51,136.207 499,137.5C 504.159,140.148 505.659,144.148 503.5,149.5C 493.167,149.5 482.833,149.5 472.5,149.5C 472.43,144.639 474.263,140.639 478,137.5C 479.523,133.481 480.023,129.481 479.5,125.5C 484.186,126.016 486.519,124.016 486.5,119.5 Z"/></g>
<g><path style="opacity:1" fill="#0c1c22" d="M 220.5,115.5 C 221.833,115.5 223.167,115.5 224.5,115.5C 224.394,118.615 225.394,121.281 227.5,123.5C 227.421,124.93 227.754,126.264 228.5,127.5C 233.327,128.754 234.327,131.254 231.5,135C 232.697,137.894 234.03,140.727 235.5,143.5C 234.115,145.536 232.782,147.536 231.5,149.5C 224.167,149.5 216.833,149.5 209.5,149.5C 209.617,147.516 208.95,145.85 207.5,144.5C 209.516,142.513 210.516,140.013 210.5,137C 208.193,132.443 209.36,129.276 214,127.5C 214.496,125.965 214.33,124.465 213.5,123C 214,121.5 214.5,120 215,118.5C 215.383,119.056 215.883,119.389 216.5,119.5C 216.5,121.5 216.5,123.5 216.5,125.5C 217.833,125.5 219.167,125.5 220.5,125.5C 220.5,122.167 220.5,118.833 220.5,115.5 Z"/></g>
<g><path style="opacity:1" fill="#0e1f22" d="M 311.5,111.5 C 311.343,112.873 311.51,114.207 312,115.5C 314.198,117.621 316.698,119.288 319.5,120.5C 319,121.881 318,122.547 316.5,122.5C 314.299,121.131 312.299,121.298 310.5,123C 314.967,126.4 319.301,126.233 323.5,122.5C 324.5,122.5 325.5,122.5 326.5,122.5C 324.871,124.196 325.204,125.196 327.5,125.5C 328.431,127.033 329.098,128.7 329.5,130.5C 328.344,133.06 328.344,135.56 329.5,138C 327.192,139.588 326.525,141.588 327.5,144C 325.808,145.401 325.141,147.234 325.5,149.5C 316.833,149.5 308.167,149.5 299.5,149.5C 299.665,145.67 297.999,142.503 294.5,140C 294.833,139.667 295.167,139.333 295.5,139C 293.167,137 290.833,135 288.5,133C 289.451,132.282 289.617,131.449 289,130.5C 288.346,131.696 287.846,131.696 287.5,130.5C 289.521,129.145 291.188,127.479 292.5,125.5C 300.324,125.882 302.657,122.716 299.5,116C 299.989,114.862 300.322,113.695 300.5,112.5C 304.269,112.756 307.936,112.423 311.5,111.5 Z"/></g>
<g><path style="opacity:1" fill="#0b171a" d="M 357.5,52.5 C 359.788,56.4558 362.788,59.7891 366.5,62.5C 365.305,62.8656 364.639,63.699 364.5,65C 366.115,66.6373 367.449,68.4706 368.5,70.5C 367.909,72.2662 367.076,73.9328 366,75.5C 364.527,73.8644 362.693,72.8644 360.5,72.5C 357.817,73.2756 355.317,73.609 353,73.5C 352.667,72.8333 352.333,72.1667 352,71.5C 351.505,73.4727 351.338,75.4727 351.5,77.5C 354.702,77.5367 356.368,79.2033 356.5,82.5C 354.331,81.8283 351.998,81.8283 349.5,82.5C 347.873,84.6298 346.04,86.6298 344,88.5C 343.505,86.5273 343.338,84.5273 343.5,82.5C 342.167,82.5 340.833,82.5 339.5,82.5C 339.5,86.8333 339.5,91.1667 339.5,95.5C 338.609,96.2613 337.942,97.2613 337.5,98.5C 339.912,102.697 343.579,104.697 348.5,104.5C 354.683,103.616 361.017,103.45 367.5,104C 370.491,104.145 372.158,105.645 372.5,108.5C 372.5,114.167 372.5,119.833 372.5,125.5C 373.833,125.5 375.167,125.5 376.5,125.5C 376.205,123.265 376.539,121.265 377.5,119.5C 377.867,125.885 378.534,132.219 379.5,138.5C 383.4,138.34 386.067,140.007 387.5,143.5C 385.914,145.173 385.247,147.173 385.5,149.5C 383.5,149.5 381.5,149.5 379.5,149.5C 379.702,141.774 376.202,136.441 369,133.5C 368.667,133.833 368.333,134.167 368,134.5C 364.667,133.833 361.333,133.167 358,132.5C 356.295,133.763 354.628,134.097 353,133.5C 351.045,134.453 349.378,135.787 348,137.5C 347.563,141.623 348.063,145.623 349.5,149.5C 341.5,149.5 333.5,149.5 325.5,149.5C 325.141,147.234 325.808,145.401 327.5,144C 326.525,141.588 327.192,139.588 329.5,138C 328.344,135.56 328.344,133.06 329.5,130.5C 329.098,128.7 328.431,127.033 327.5,125.5C 329.026,124.895 330.026,123.729 330.5,122C 333.039,121.204 335.372,121.371 337.5,122.5C 336.448,122.351 335.448,122.517 334.5,123C 335.337,124.011 335.67,125.178 335.5,126.5C 336.552,126.351 337.552,126.517 338.5,127C 333.384,128.707 332.551,131.54 336,135.5C 341.882,134.447 345.716,131.114 347.5,125.5C 349.25,122.645 350.083,119.311 350,115.5C 352.5,118.667 355,121.833 357.5,125C 358.793,125.49 360.127,125.657 361.5,125.5C 361.5,119.833 361.5,114.167 361.5,108.5C 360.167,108.5 358.833,108.5 357.5,108.5C 357.665,111.85 357.498,115.183 357,118.5C 354.5,115.333 352,112.167 349.5,109C 348.552,108.517 347.552,108.351 346.5,108.5C 346.611,107.883 346.944,107.383 347.5,107C 341.192,106.856 336.525,104.023 333.5,98.5C 334.091,97.8485 334.757,97.1818 335.5,96.5C 335.291,95.914 334.957,95.414 334.5,95C 332.524,94.8122 330.524,94.9788 328.5,95.5C 326.626,95.6102 325.126,94.9436 324,93.5C 322.5,87 325,84.5 331.5,86C 333.235,87.9845 334.568,87.6512 335.5,85C 334.045,83.3743 332.378,82.2076 330.5,81.5C 331.497,81.5299 332.164,81.0299 332.5,80C 327.59,75.6707 325.256,70.1707 325.5,63.5C 325.833,63.5 326.167,63.5 326.5,63.5C 328.5,63.5 330.5,63.5 332.5,63.5C 332.5,61.8333 332.5,60.1667 332.5,58.5C 333.309,59.4687 334.309,60.3021 335.5,61C 340.407,62.6218 344.074,61.2885 346.5,57C 349.167,56.6667 351.833,56.3333 354.5,56C 356.426,55.5776 357.426,54.4109 357.5,52.5 Z"/></g>
<g><path style="opacity:1" fill="#112728" d="M 379.5,149.5 C 369.5,149.5 359.5,149.5 349.5,149.5C 348.063,145.623 347.563,141.623 348,137.5C 349.378,135.787 351.045,134.453 353,133.5C 354.628,134.097 356.295,133.763 358,132.5C 361.333,133.167 364.667,133.833 368,134.5C 368.333,134.167 368.667,133.833 369,133.5C 376.202,136.441 379.702,141.774 379.5,149.5 Z"/></g>
</svg>
