<svg xmlns="http://www.w3.org/2000/svg" width="548" height="150" style="shape-rendering:geometricPrecision;text-rendering:geometricPrecision;image-rendering:optimizeQuality;fill-rule:evenodd;clip-rule:evenodd"><path style="opacity:1" fill="#000101" d="M-.5-.5h256c-2.346 6.67-6.012 7.503-11 2.5-4.923-.955-8.423.879-10.5 5.5a330.883 330.883 0 0 0-6 22c-.342-2.12-1.175-2.453-2.5-1-2.149-2.246-4.816-3.746-8-4.5-6.658-.5-13.325-.666-20-.5a400.453 400.453 0 0 0 1 40c2.107.968 4.441 1.302 7 1 .009 1.808-.491 3.475-1.5 5-2.756 3.257-5.256 6.09-7.5 8.5l1 1a32993.33 32993.33 0 0 0-6 22c3.078 4.127 2.578 7.627-1.5 10.5l-8 16a74.513 74.513 0 0 0-2 12c-3.64 2.455-5.807 5.789-6.5 10H-.5V-.5z"/><path style="opacity:1" fill="#0b161a" d="M255.5-.5h6c-2.181 1.349-3.848 3.182-5 5.5a149.048 149.048 0 0 1 3 20.5c7.309 4.857 13.309 3.524 18-4a3.647 3.647 0 0 0-1-1.5 51.804 51.804 0 0 0 3-11 99.773 99.773 0 0 1-2-9.5h7c.346 3.102-.321 5.935-2 8.5l1 1c-1.938 2.47-3.104 5.304-3.5 8.5a169.166 169.166 0 0 0 0 26c.232 1.237.732 2.237 1.5 3a140.54 140.54 0 0 0-2.5 9l-8.5-19c-4.428-1.618-8.595-.952-12.5 2-.671-.752-1.504-1.086-2.5-1-4.881-2.126-9.881-2.46-15-1-1.716-1.074-2.716-2.74-3-5a7.253 7.253 0 0 1 2-2.5c-1.894-1.101-2.561-2.434-2-4 2.481-3.266 5.481-6.1 9-8.5a37.151 37.151 0 0 1 2-4.5c-.712-1.425-.879-2.925-.5-4.5-3.706-4.768-7.706-5.101-12-1a224.396 224.396 0 0 0-5.5 25h-3l-2-3c1.325-1.453 2.158-1.12 2.5 1a330.883 330.883 0 0 1 6-22c2.077-4.621 5.577-6.455 10.5-5.5 4.988 5.003 8.654 4.17 11-2.5z"/><path style="opacity:1" fill="#060f13" d="M284.5-.5h67c-3.489 3.686-5.823 7.686-7 12-3.63.432-6.964 1.599-10 3.5 3.688 6.798 1.688 9.465-6 8-7.877-8.531-15.377-9.031-22.5-1.5a9.457 9.457 0 0 0-1.5-2.5c-2.779-1.938-5.613-2.77-8.5-2.5-.784 5.166-1.951 10.5-3.5 16 .728 1.655.895 3.321.5 5-1.009-1.158-2.342-1.825-4-2-1.385.014-2.551.348-3.5 1a88.021 88.021 0 0 0-4 10c-.768-.763-1.268-1.763-1.5-3a169.166 169.166 0 0 1 0-26c.396-3.196 1.562-6.03 3.5-8.5l-1-1c1.679-2.565 2.346-5.398 2-8.5z"/><path style="opacity:1" fill="#040a0c" d="M377.5-.5h170v150h-38c.284-3.277-.049-6.443-1-9.5a21.83 21.83 0 0 1 5-6 14.506 14.506 0 0 1-5-4c-.173-2.827.16-5.661 1-8.5 5.428 5.307 10.928 5.307 16.5 0 1.888-10.113-2.279-14.279-12.5-12.5a10.515 10.515 0 0 1-3 2.5c-.974-1.135-2.141-2.135-3.5-3-.684-1.284-.517-2.451.5-3.5l-7-3c2.089-3.123 1.422-3.29-2-.5-6.797-1.444-12.464.556-17 6-1.884-3.517-4.217-3.851-7-1-1.299-.59-2.132-1.59-2.5-3-1.706.808-2.539 2.141-2.5 4-1.933-.229-3.6-1.062-5-2.5l-8-1-2-2c1.098-.77 1.098-1.603 0-2.5 6.7-.038 9.367-3.372 8-10h-7v3h3v3c-6.097 1.237-8.93-1.097-8.5-7 2.971-3.592 6.304-3.925 10-1 2.152-1.777 1.985-3.277-.5-4.5a20.093 20.093 0 0 0-6-1.5c2.008-4.174 5.175-7.174 9.5-9 .497-2.31.663-4.643.5-7-1.291.237-2.291-.096-3-1 4.005.33 7.338-1.003 10-4 .886.825 1.219 1.825 1 3h6v-27c-2.107-.968-4.441-1.302-7-1v16c.171 2.493-.829 4.326-3 5.5-2.599.769-5.099.602-7.5-.5a72.732 72.732 0 0 1-1.5-20h-7v18c-1.049-.098-2.215-.098-3.5 0a2.429 2.429 0 0 1-.5-2c.189-3.537-.477-6.87-2-10 3.046-6.5 1.046-10.834-6-13-3.673 1.54-7.173 1.207-10.5-1-4.404 1.001-8.737 2.668-13 5a13.908 13.908 0 0 1-4-3l-1 1a84.955 84.955 0 0 1-7.5-3 44.333 44.333 0 0 1-10 2c-6.203-6.666-13.87-8.833-23-6.5-12.896 5.624-17.229 15.124-13 28.5-.074 1.91-1.074 3.078-3 3.5l-8 1c-2.426 4.288-6.093 5.622-11 4-1.191-.698-2.191-1.531-3-2.5a72.368 72.368 0 0 1 .5-12c1.451-1.964 3.284-3.297 5.5-4h4v-4h5c1.512-1.817 3.512-2.817 6-3 .252-2.82-.248-5.486-1.5-8a31.098 31.098 0 0 1-7.5-5.5c1.266-.31 2.433-.81 3.5-1.5 1.062 1.4 2.395 2.4 4 3a1564.388 1564.388 0 0 0 19.5-5c.498-3.093 1.498-5.926 3-8.5-.656-2.33.344-3.997 3-5-1.036-1.776-1.036-3.609 0-5.5z"/><path style="opacity:1" fill="#0e1e20" d="M261.5-.5h16a99.773 99.773 0 0 0 2 9.5 51.804 51.804 0 0 1-3 11c.457.414.791.914 1 1.5-4.691 7.524-10.691 8.857-18 4a149.048 149.048 0 0 0-3-20.5c1.152-2.318 2.819-4.151 5-5.5z"/><path style="opacity:1" fill="#459ad2" d="M48.5 14.5c9.357-.771 15.69 3.229 19 12 2.422 2.15 5.09 2.483 8 1 5.43-12.419 14.097-15.586 26-9.5 2.861 2.22 4.861 5.053 6 8.5 2.422 2.15 5.089 2.483 8 1 7.446-14.653 17.279-16.653 29.5-6 3.936 8.012 2.77 15.178-3.5 21.5a245.428 245.428 0 0 1-20 5c-11.061 6.623-15.894 16.456-14.5 29.5-.92 4.688-3.42 8.188-7.5 10.5a68.898 68.898 0 0 1-14 2c-3.452.892-6.452 2.558-9 5 12.228 10.274 24.062 9.774 35.5-1.5a36.168 36.168 0 0 0 4-7l1-18c5.266-10.228 13.099-12.728 23.5-7.5 7.364 5.945 8.864 13.112 4.5 21.5-5.081 5.885-11.581 8.719-19.5 8.5-9.567 3.562-15.567 10.228-18 20 1.049 4.4 3.716 5.567 8 3.5 5.15-11.576 13.483-14.743 25-9.5 9.325 8.62 9.325 17.287 0 26-11.243 4.718-19.576 1.552-25-9.5-2.745-1.353-5.412-1.186-8 .5-6.766 12.635-15.932 14.802-27.5 6.5a21.456 21.456 0 0 1-3.5-6.5c-2.588-1.686-5.255-1.853-8-.5-2.577 5.322-6.577 9.155-12 11.5-11.528 1.471-18.195-3.529-20-15 .588-7.255 4.254-12.255 11-15a44.256 44.256 0 0 0 15-3c8.092-3.779 7.758-7.112-1-10-11.152 2.171-19.319-1.662-24.5-11.5-1.592-8.233 1.242-14.4 8.5-18.5a68.898 68.898 0 0 1 14-2C71.255 54.932 76.755 47.432 76 35.5c-5.322-3.493-8.989-2.16-11 4-6.598 6.543-14.098 7.71-22.5 3.5-9.54-12.017-7.54-21.517 6-28.5z"/><path style="opacity:1" fill="#020406" d="M87.5 21.5c10.86-.984 15.027 3.683 12.5 14-5.333 5.333-10.667 5.333-16 0-2.577-5.615-1.41-10.282 3.5-14z"/><path style="opacity:1" fill="#f2f2f2" d="M393.5 30.5c-1.048 2.034-2.714 3.367-5 4-9.777-7.714-17.944-6.381-24.5 4-1.47 15.529 5.363 21.362 20.5 17.5 2.453-1.848 3.453-4.348 3-7.5h-9v-6h16a112.97 112.97 0 0 1-.5 15c-8.132 7.181-17.298 8.848-27.5 5a32.256 32.256 0 0 1-9-10c-4.229-13.376.104-22.876 13-28.5 9.13-2.333 16.797-.166 23 6.5z"/><path style="opacity:1" fill="#eceded" d="m225.5 28.5 2 3c1.973 7.08-.027 12.747-6 17a86.735 86.735 0 0 0 6 11 18.476 18.476 0 0 0 2 3.5c-3.092.736-6.092.57-9-.5a50.555 50.555 0 0 0-6-12 21.12 21.12 0 0 0-9-1v14h-7a400.453 400.453 0 0 1-1-40c6.675-.166 13.342 0 20 .5 3.184.754 5.851 2.254 8 4.5z"/><path style="opacity:1" fill="#142728" d="M347.5 38.5h-5c.237-1.291-.096-2.291-1-3-3.525-.154-6.359 1.18-8.5 4a4.934 4.934 0 0 1-.5-3h-6c1.792-.81 3.792-1.31 6-1.5a46.643 46.643 0 0 0-6-5.5 3.647 3.647 0 0 1 1-1.5 285.483 285.483 0 0 0 11.5-2.5 55.982 55.982 0 0 0 11.5 2c.019 1.56.352 3.06 1 4.5a39.89 39.89 0 0 0-4 6.5z"/><path style="opacity:1" fill="#060709" d="M205.5 30.5a72.442 72.442 0 0 1 12 .5c5.333 3.667 5.333 7.333 0 11a72.442 72.442 0 0 1-12 .5v-12z"/><path style="opacity:1" fill="#020507" d="M108.5 33.5c6.497-.32 8.664 2.68 6.5 9-5.079 11.969-14.246 17.469-27.5 16.5-4.833 2.167-8.333 5.667-10.5 10.5.353 7.54-1.314 14.54-5 21C61.684 70.924 66.518 56.425 86.5 47c10.421.3 17.755-4.2 22-13.5z"/><path style="opacity:1" fill="#f2f3f3" d="M255.5 37.5c6.129 5.494 7.629 12.161 4.5 20-4.196 5.345-9.696 7.678-16.5 7a44.684 44.684 0 0 1-9-7c-3.524-8.61-1.524-15.61 6-21 5.119-1.46 10.119-1.126 15 1z"/><path style="opacity:1" fill="#f4f5f5" d="m270.5 36.5 8.5 19a140.54 140.54 0 0 1 2.5-9 88.021 88.021 0 0 1 4-10 9.864 9.864 0 0 1 6 1l-12.5 33c-1.793 2.808-4.293 4.474-7.5 5h-5v-6c4.567.444 7.567-1.556 9-6a938.453 938.453 0 0 1-12-26.5 24.939 24.939 0 0 1 7-.5z"/><path style="opacity:1" fill="#f0f0f1" d="M309.5 35.5c8.648 2.274 12.648 7.94 12 17a220.94 220.94 0 0 0-21 .5c4.176 6.28 9.342 7.112 15.5 2.5 2.477 1.375 3.311 3.209 2.5 5.5a42.283 42.283 0 0 1-8 3.5c-12.403-.24-17.903-6.574-16.5-19 3.155-6.492 8.322-9.825 15.5-10z"/><path style="opacity:1" fill="#fbfbfb" d="M341.5 35.5v6c-1.291-.237-2.291.096-3 1-2.216.703-4.049 2.036-5.5 4a72.368 72.368 0 0 0-.5 12v5h-6v-27h6a4.934 4.934 0 0 0 .5 3c2.141-2.82 4.975-4.154 8.5-4z"/><path style="opacity:1" fill="#f2f2f3" d="M445.5 42.5c1.523 3.13 2.189 6.463 2 10-4.382 10.852-12.049 14.02-23 9.5a37.824 37.824 0 0 1-5-5.5c-3.039-13.454 2.294-20.288 16-20.5 4.257.949 7.591 3.115 10 6.5z"/><path style="opacity:1" fill="#f3f3f3" d="M470.5 51.5c.987-4.805 1.321-9.805 1-15h6v27h-6c.219-1.175-.114-2.175-1-3-2.662 2.997-5.995 4.33-10 4-4.858-1.75-7.858-5.083-9-10v-18h7c-.42 6.784.08 13.45 1.5 20 2.401 1.102 4.901 1.269 7.5.5 2.171-1.174 3.171-3.007 3-5.5z"/><path style="opacity:1" fill="#787b7c" d="M477.5 36.5h-6c.321 5.195-.013 10.195-1 15v-16c2.559-.302 4.893.032 7 1z"/><path style="opacity:1" fill="#f5f6f6" d="M496.5 35.5c12.221.4 17.388 6.734 15.5 19-4.753 10.366-11.753 12.366-21 6a112.97 112.97 0 0 0-.5 15h-6v-39h6a4.934 4.934 0 0 0 .5 3c1.5-1.969 3.333-3.302 5.5-4z"/><path style="opacity:1" fill="#8d9393" d="M341.5 35.5c.904.709 1.237 1.709 1 3v4h-4c.709-.904 1.709-1.237 3-1v-6z"/><path style="opacity:1" fill="#101617" d="M430.5 41.5c7.649-.186 10.815 3.481 9.5 11-2.388 4.726-6.222 6.226-11.5 4.5-5.641-5.964-4.974-11.131 2-15.5z"/><path style="opacity:1" fill="#0c1113" d="M495.5 41.5c8.196.029 11.363 4.029 9.5 12a6.977 6.977 0 0 1-2.5 3.5c-8.616 1.717-12.449-1.783-11.5-10.5a32.864 32.864 0 0 1 4.5-5z"/><path style="opacity:1" fill="#101e23" d="M244.5 41.5c7.485-.017 10.985 3.65 10.5 11-2.435 4.724-6.269 6.224-11.5 4.5-5.526-5.643-5.192-10.81 1-15.5z"/><path style="opacity:1" fill="#0f1e20" d="M240.5 36.5c-7.524 5.39-9.524 12.39-6 21-.111.617-.444 1.117-1 1.5a18.437 18.437 0 0 1-6 .5 86.735 86.735 0 0 1-6-11c5.973-4.253 7.973-9.92 6-17h3a224.396 224.396 0 0 1 5.5-25c4.294-4.101 8.294-3.768 12 1-.379 1.575-.212 3.075.5 4.5a37.151 37.151 0 0 0-2 4.5c-3.519 2.4-6.519 5.234-9 8.5-.561 1.566.106 2.899 2 4a7.253 7.253 0 0 0-2 2.5c.284 2.26 1.284 3.926 3 5z"/><path style="opacity:1" fill="#0d1718" d="M447.5 52.5a2.429 2.429 0 0 0 .5 2c1.285-.098 2.451-.098 3.5 0 1.142 4.917 4.142 8.25 9 10 .709.904 1.709 1.237 3 1a24.935 24.935 0 0 1-.5 7c-4.325 1.826-7.492 4.826-9.5 9-4.333 1-7 3.667-8 8-1.105 1.1-2.438 1.767-4 2 .48-3.185-.186-6.019-2-8.5a60.94 60.94 0 0 0-11-.5h-17v17c-.825-4.147-1.325-8.48-1.5-13-1 1.333-2 1.333-3 0-.278.916-.778 1.582-1.5 2 .241-2.386-.425-4.386-2-6 1.725-.343 2.225-1.343 1.5-3a15.28 15.28 0 0 0-4.5-1.5c1.266-.31 2.433-.81 3.5-1.5l1 1c.508-2.404 1.675-3.07 3.5-2a4.451 4.451 0 0 0 2-1.5c.194-1.43.194-2.93 0-4.5 2.182-1.323 2.849-2.99 2-5 1.533-2.138 3.366-2.805 5.5-2a20.088 20.088 0 0 0 1.5-6 37.824 37.824 0 0 0 5 5.5c10.951 4.52 18.618 1.352 23-9.5z"/><path style="opacity:1" fill="#162f32" d="M234.5 57.5a44.684 44.684 0 0 0 9 7c-3.528 5.493-3.861 11.16-1 17 1.599-.268 2.932.066 4 1-1.644-.213-3.144.12-4.5 1a64.928 64.928 0 0 0-5.5 16h4v-4h7c-.558 1.29-1.558 2.123-3 2.5l3 1a8.906 8.906 0 0 0-4 3c-3.605-.334-5.939 1.166-7 4.5a112.33 112.33 0 0 0-5 2c-3.311 1.311-5.645 3.645-7 7h-4v-7h-4v11c-.617-.111-1.117-.444-1.5-1l-1.5 4.5c.83 1.465.996 2.965.5 4.5-4.64 1.776-5.807 4.943-3.5 9.5.016 3.013-.984 5.513-3 7.5 1.45 1.35 2.117 3.016 2 5h-28c2.46-6.885 6.293-12.885 11.5-18 .322-3.43 2.155-5.43 5.5-6 3.35.165 6.683-.002 10-.5a6.978 6.978 0 0 0 3.5-2.5c-1.17-3.543-1.503-7.21-1-11-1.509-2.419-3.675-3.419-6.5-3a41.333 41.333 0 0 0-2-10c4.349 1.883 8.016 1.05 11-2.5-.13-1.059-.63-1.892-1.5-2.5-2.497 1.978-5.331 2.478-8.5 1.5-2.6-2.873-2.6-5.706 0-8.5 3.397-.91 6.563-.91 9.5 0 .667-.667.667-1.333 0-2-1.409-1.281-2.909-2.281-4.5-3 1.677-7.663 5.677-13.996 12-19 2.908 1.07 5.908 1.236 9 .5a18.476 18.476 0 0 1-2-3.5 18.437 18.437 0 0 0 6-.5c.556-.383.889-.883 1-1.5z"/><path style="opacity:1" fill="#04070a" d="M49.5 64.5c8.537-.3 12.37 3.7 11.5 12-2.182 5.741-6.35 7.908-12.5 6.5-8.19-6.574-7.856-12.741 1-18.5zM129.5 64.5c10.597 1.074 13.764 6.407 9.5 16-10.901 5.55-16.234 2.217-16-10 1.494-2.814 3.66-4.814 6.5-6z"/><path style="opacity:1" fill="#132327" d="M270.5 36.5a24.939 24.939 0 0 0-7 .5 938.453 938.453 0 0 0 12 26.5c-1.433 4.444-4.433 6.444-9 6v6h5c-2.472 1.142-3.472 3.142-3 6 1.291-.237 2.291.096 3 1h-3a50.464 50.464 0 0 1-.5 10c-.717-.544-1.217-1.21-1.5-2 1.129-2.128 1.296-4.462.5-7-.5-1.833-1.667-3-3.5-3.5l2-2c-2.308-3.805-5.641-5.138-10-4-3.356 4.118-7.189 4.618-11.5 1.5a31.91 31.91 0 0 1-1.5 6c-2.861-5.84-2.528-11.507 1-17 6.804.678 12.304-1.655 16.5-7 3.129-7.839 1.629-14.506-4.5-20 .996-.086 1.829.248 2.5 1 3.905-2.952 8.072-3.618 12.5-2z"/><path style="opacity:1" fill="#040b0e" d="M220.5 62.5c-6.323 5.004-10.323 11.337-12 19-7.972.136-11.472 4.136-10.5 12 .996 2.16 2.496 3.827 4.5 5a41.333 41.333 0 0 1 2 10h-6v17c-3.345.57-5.178 2.57-5.5 6-5.207 5.115-9.04 11.115-11.5 18h-8c.693-4.211 2.86-7.545 6.5-10a74.513 74.513 0 0 1 2-12l8-16c4.078-2.873 4.578-6.373 1.5-10.5a32993.33 32993.33 0 0 1 6-22l-1-1c2.244-2.41 4.744-5.243 7.5-8.5 1.009-1.525 1.509-3.192 1.5-5-2.559.302-4.893-.032-7-1h7v-14a21.12 21.12 0 0 1 9 1 50.555 50.555 0 0 1 6 12z"/><path style="opacity:1" fill="#091317" d="M325.5 63.5c-.244 6.67 2.09 12.17 7 16.5-.336 1.03-1.003 1.53-2 1.5-7.972.136-11.472 4.136-10.5 12 3.011 5.692 7.511 7.358 13.5 5 3.025 5.523 7.692 8.356 14 8.5-.556.383-.889.883-1 1.5-.664 2.646-.998 5.479-1 8.5.019 3.252.686 6.085 2 8.5-1.784 5.614-5.618 8.947-11.5 10-3.449-3.96-2.616-6.793 2.5-8.5a4.934 4.934 0 0 0-3-.5c.17-1.322-.163-2.489-1-3.5a4.934 4.934 0 0 1 3-.5c.925 2.631 2.591 3.298 5 2a145.522 145.522 0 0 1-6-15c-1.667-1.333-3.333-1.333-5 0a106.73 106.73 0 0 0-5 13h-3c-.015-4.519-2.348-7.019-7-7.5-.837-1.011-1.17-2.178-1-3.5 2.307.486 4.473.486 6.5 0 .688-.832.521-1.498-.5-2-2.603-1.062-5.27-1.228-8-.5-.881.708-1.547 1.542-2 2.5-3.564.923-7.231 1.256-11 1-.432-1.21-1.099-2.21-2-3 2.369-3.359 4.702-6.692 7-10 4.427.625 7.427-1.041 9-5 .985-4.134 1.318-8.468 1-13-1.599-.268-2.932.066-4 1a60.93 60.93 0 0 1-.5 11c-1.67 2.198-3.67 2.532-6 1-.176-4.188-.676-8.188-1.5-12v-1c-.444-1.613-1.444-2.78-3-3.5 4.915-3.33 8.248-7.83 10-13.5a42.283 42.283 0 0 0 8-3.5c.811-2.291-.023-4.125-2.5-5.5-6.158 4.612-11.324 3.78-15.5-2.5a220.94 220.94 0 0 1 21-.5c.648-9.06-3.352-14.726-12-17v-8c4.009.358 8.009.858 12 1.5a20.495 20.495 0 0 0 2.5 3.5 173.21 173.21 0 0 1 1.5 31z"/><path style="opacity:1" fill="#0e1a1e" d="M351.5-.5h26c-1.036 1.891-1.036 3.724 0 5.5-2.656 1.003-3.656 2.67-3 5-1.502 2.574-2.502 5.407-3 8.5a1564.388 1564.388 0 0 1-19.5 5c-1.605-.6-2.938-1.6-4-3a11.357 11.357 0 0 1-3.5 1.5 31.098 31.098 0 0 0 7.5 5.5c1.252 2.514 1.752 5.18 1.5 8-2.488.183-4.488 1.183-6 3a39.89 39.89 0 0 1 4-6.5 11.184 11.184 0 0 1-1-4.5 55.982 55.982 0 0 1-11.5-2 285.483 285.483 0 0 1-11.5 2.5 3.647 3.647 0 0 0-1 1.5 46.643 46.643 0 0 1 6 5.5c-2.208.19-4.208.69-6 1.5v27h-1a173.21 173.21 0 0 0-1.5-31 20.495 20.495 0 0 1-2.5-3.5 172.044 172.044 0 0 0-12-1.5v8c-7.178.175-12.345 3.508-15.5 10-1.403 12.426 4.097 18.76 16.5 19-1.752 5.67-5.085 10.17-10 13.5 1.556.72 2.556 1.887 3 3.5a151.92 151.92 0 0 1-14.5-2c-.717.544-1.217 1.21-1.5 2-2.281-.423-3.948.244-5 2h-3a321.37 321.37 0 0 0 0 14.5l-2 5c1.801.317 2.134.984 1 2a18.473 18.473 0 0 1 2 3.5c-1.768 3.544-2.602 7.544-2.5 12-2 2.667-4 2.667-6 0a72.367 72.367 0 0 1-.5-12h-4v13a10.98 10.98 0 0 0-1 3.5 242.237 242.237 0 0 0 4 6c-2.263 5.923-3.263 12.089-3 18.5h-12c.148-4.314 2.315-6.981 6.5-8 1.65-4.568.15-7.234-4.5-8a43.765 43.765 0 0 1-7.5 3c-2.403-3.71-5.903-5.71-10.5-6a168.028 168.028 0 0 1 6.5-2l1 1c1.397-1.57 2.897-2.904 4.5-4v-7h7v7h4v-17h-4v6h-5c-.066-5.96-.399-11.626-1-17a100.885 100.885 0 0 0-6-15c-1.068-.934-2.401-1.268-4-1a31.91 31.91 0 0 0 1.5-6c4.311 3.118 8.144 2.618 11.5-1.5 4.359-1.138 7.692.195 10 4l-2 2c1.833.5 3 1.667 3.5 3.5.796 2.538.629 4.872-.5 7a110.889 110.889 0 0 0-6-7.5 8.435 8.435 0 0 0-4-.5v17h4c-.165-3.35.002-6.683.5-10 2.364 3.19 4.864 6.19 7.5 9 1.068.934 2.401 1.268 4 1 .322-5.858-.011-11.525-1-17-.709-.904-1.709-1.237-3-1-.472-2.858.528-4.858 3-6 3.207-.526 5.707-2.192 7.5-5l12.5-33a9.864 9.864 0 0 0-6-1c.949-.652 2.115-.986 3.5-1 1.658.175 2.991.842 4 2 .395-1.679.228-3.345-.5-5 1.549-5.5 2.716-10.834 3.5-16 2.887-.27 5.721.563 8.5 2.5a9.457 9.457 0 0 1 1.5 2.5c7.123-7.531 14.623-7.031 22.5 1.5 7.688 1.465 9.688-1.202 6-8 3.036-1.901 6.37-3.068 10-3.5 1.177-4.314 3.511-8.314 7-12z"/><path style="opacity:1" fill="#4a5155" d="M313.5 44.5c.904.709 1.237 1.709 1 3a49.874 49.874 0 0 1-14-1c.124-.607.457-.94 1-1 1.804.662 3.804.995 6 1 2.452-.04 4.452-.706 6-2z"/><path style="opacity:1" fill="#0f1a1e" d="M313.5 44.5c-1.548 1.294-3.548 1.96-6 2-2.196-.005-4.196-.338-6-1 .951-2.814 2.951-4.148 6-4 2.602-.033 4.602.967 6 3z"/><path style="opacity:1" fill="#5e6b6c" d="M287.5 81.5c2.885-.306 5.552.027 8 1h-12v3c-.838-.342-1.172-1.008-1-2 1.052-1.756 2.719-2.423 5-2z"/><path style="opacity:1" fill="#c6cbcc" d="M208.5 81.5c1.591.719 3.091 1.719 4.5 3 .667.667.667 1.333 0 2-2.937-.91-6.103-.91-9.5 0-2.6 2.794-2.6 5.627 0 8.5 3.169.978 6.003.478 8.5-1.5.87.608 1.37 1.441 1.5 2.5-2.984 3.55-6.651 4.383-11 2.5-2.004-1.173-3.504-2.84-4.5-5-.972-7.864 2.528-11.864 10.5-12z"/><path style="opacity:1" fill="#a7b1b3" d="M218.5 82.5h3v6h7v-6h4v17h-4v-7h-7v6h-3v-16z"/><path style="opacity:1" fill="#c8cdce" d="M246.5 82.5a100.885 100.885 0 0 1 6 15c-1.068.934-2.401 1.268-4 1 .237-1.291-.096-2.291-1-3h-7v4h-4a64.928 64.928 0 0 1 5.5-16c1.356-.88 2.856-1.213 4.5-1z"/><path style="opacity:1" fill="#d1d5d6" d="M266.5 90.5c.283.79.783 1.456 1.5 2 .498-3.317.665-6.65.5-10h3v16h-3a101.188 101.188 0 0 1-7.5-9 50.464 50.464 0 0 0-.5 10h-4v-17a8.435 8.435 0 0 1 4 .5c2.129 2.44 4.129 4.94 6 7.5z"/><path style="opacity:1" fill="#d5d9da" d="M295.5 82.5c-1.538 4.741-4.204 8.908-8 12.5 2.646.497 5.313.664 8 .5v3h-13c-.009-1.808.491-3.475 1.5-5a34.692 34.692 0 0 0 6.5-7.5 24.939 24.939 0 0 0-7-.5v-3h12z"/><path style="opacity:1" fill="#cdd1d2" d="M303.5 82.5c.824 3.812 1.324 7.812 1.5 12 2.33 1.532 4.33 1.198 6-1a60.93 60.93 0 0 0 .5-11h3v12c-1.573 3.959-4.573 5.625-9 5a25.136 25.136 0 0 1-4.5-4 84.9 84.9 0 0 1-.5-13h3z"/><path style="opacity:1" fill="#c9cdce" d="M330.5 81.5c1.878.708 3.545 1.874 5 3.5-.932 2.651-2.265 2.984-4 1-6.5-1.5-9 1-7.5 7.5 1.126 1.444 2.626 2.11 4.5 2 2.024-.521 4.024-.688 6-.5.457.414.791.914 1 1.5a30.968 30.968 0 0 0-2 2c-5.989 2.358-10.489.692-13.5-5-.972-7.864 2.528-11.864 10.5-12z"/><path style="opacity:1" fill="#cbcfd0" d="M349.5 82.5a8.435 8.435 0 0 1 4 .5c-2.241 1.74-3.908 3.906-5 6.5l6 9c-1.223 1.114-2.556 1.28-4 .5a49.066 49.066 0 0 0-5-6.5 3.646 3.646 0 0 0-1.5 1 18.452 18.452 0 0 0-.5 6h-4v-17h4a18.452 18.452 0 0 0 .5 6 46.107 46.107 0 0 0 5.5-6z"/><path style="opacity:1" fill="#d8dbdc" d="M375.5 82.5c4.411-.479 8.578.188 12.5 2 .844 3.106.344 5.939-1.5 8.5a27.648 27.648 0 0 0 2 4.5c-.417.624-1.084.957-2 1-1.9-.947-3.233-2.447-4-4.5a8.435 8.435 0 0 0-4-.5v5h-3v-16z"/><path style="opacity:1" fill="#ced2d3" d="M428.5 82.5a60.94 60.94 0 0 1 11 .5c1.814 2.481 2.48 5.315 2 8.5-.978.311-1.645.978-2 2a18.915 18.915 0 0 1 3 5l-2 1c-1.998-1.467-3.664-3.3-5-5.5a4.932 4.932 0 0 0-3-.5v6h-4v-17z"/><path style="opacity:1" fill="#c7cbcc" d="M453.5 81.5c2.064.187 4.064.687 6 1.5 2.485 1.223 2.652 2.723.5 4.5-3.696-2.925-7.029-2.592-10 1-.43 5.903 2.403 8.237 8.5 7v-3h-3v-3h7c1.367 6.628-1.3 9.962-8 10-5.736-.774-8.736-4.108-9-10 1-4.333 3.667-7 8-8z"/><path style="opacity:1" fill="#787e81" d="M311.5 82.5c1.068-.934 2.401-1.268 4-1 .318 4.532-.015 8.866-1 13v-12h-3z"/><path style="opacity:1" fill="#1c2224" d="M432.5 85.5c1.699-.16 3.366.007 5 .5 1.425 1.714 1.092 3.047-1 4a8.435 8.435 0 0 1-4 .5v-5z"/><path style="opacity:1" fill="#50595d" d="M271.5 82.5c.989 5.475 1.322 11.142 1 17-1.599.268-2.932-.066-4-1h3v-16z"/><path style="opacity:1" fill="#081013" d="M445.5 42.5c-2.409-3.385-5.743-5.551-10-6.5-13.706.212-19.039 7.046-16 20.5a20.088 20.088 0 0 1-1.5 6c-2.134-.805-3.967-.138-5.5 2 .849 2.01.182 3.677-2 5 .194 1.57.194 3.07 0 4.5a4.451 4.451 0 0 1-2 1.5c-1.825-1.07-2.992-.404-3.5 2l-1-1a11.357 11.357 0 0 1-3.5 1.5 15.28 15.28 0 0 1 4.5 1.5c.725 1.657.225 2.657-1.5 3h-10v17c3.808.337 7.474-.163 11-1.5 2.667-2.667 2.667-5.333 0-8 .556-.383.889-.883 1-1.5.722-.418 1.222-1.084 1.5-2 1 1.333 2 1.333 3 0 .175 4.52.675 8.853 1.5 13h13c.268-1.599-.066-2.932-1-4h-8v-3h7v-4h-7v-3h9v-3h4v17h4v-6a4.932 4.932 0 0 1 3 .5c1.336 2.2 3.002 4.033 5 5.5l2-1a18.915 18.915 0 0 0-3-5c.355-1.022 1.022-1.689 2-2 1.562-.233 2.895-.9 4-2 .264 5.892 3.264 9.226 9 10 1.098.897 1.098 1.73 0 2.5l2 2 8 1c1.4 1.438 3.067 2.271 5 2.5-.039-1.859.794-3.192 2.5-4 .368 1.41 1.201 2.41 2.5 3 2.783-2.851 5.116-2.517 7 1 4.536-5.444 10.203-7.444 17-6 3.422-2.79 4.089-2.623 2 .5l7 3c-1.017 1.049-1.184 2.216-.5 3.5 1.359.865 2.526 1.865 3.5 3-2.285 3.065-2.618 6.398-1 10-.84 2.839-1.173 5.673-1 8.5a14.506 14.506 0 0 0 5 4 21.83 21.83 0 0 0-5 6c.951 3.057 1.284 6.223 1 9.5h-6c2.159-5.352.659-9.352-4.5-12a8.43 8.43 0 0 1-.5-4c1.89.203 3.39-.463 4.5-2 .29-2.42.79-4.754 1.5-7 1.184-1.188 1.184-2.355 0-3.5-2.414 1.207-5.081 1.54-8 1-4-3.333-4-6.667 0-10 2.919-.54 5.586-.207 8 1 1.291-2.09.624-3.424-2-4-8.323-1.515-12.656 1.985-13 10.5-1.028 2.598-2.028 2.598-3 0 .086-.996-.248-1.829-1-2.5-2.684-.778-5.017-2.111-7-4 1.638-1.801 3.472-1.968 5.5-.5 1.28-.113 2.113-.78 2.5-2-3.103-2.204-6.437-2.537-10-1-3.193 5.372-1.526 8.539 5 9.5.837 1.011 1.17 2.178 1 3.5l-8-1c.246 2.97 1.912 4.303 5 4 .523 3.981.023 7.981-1.5 12-3.737 3.139-5.57 7.139-5.5 12h-87c-.253-2.327.414-4.327 2-6-1.433-3.493-4.1-5.16-8-5a200.686 200.686 0 0 1-2-19h6v-4h-7v-4h9v-3c3.587-2.242 3.921-5.075 1-8.5a6.807 6.807 0 0 0 3-1.5c-.124-.607-.457-.94-1-1a27.648 27.648 0 0 1-2-4.5c1.844-2.561 2.344-5.394 1.5-8.5-3.922-1.812-8.089-2.479-12.5-2-.826 4.482-1.326 9.149-1.5 14-1.011-.837-2.178-1.17-3.5-1h-9v-3h7v-4h-7v-3h9v-3c-4.333-1.333-8.667-1.333-13 0h-1c-.132-3.297-1.798-4.963-5-5a18.452 18.452 0 0 1 .5-6l1 2c2.317.109 4.817-.224 7.5-1 2.193.364 4.027 1.364 5.5 3a20.023 20.023 0 0 0 2.5-5 22.577 22.577 0 0 0-4-5.5c.139-1.301.805-2.134 2-2.5 10.202 3.848 19.368 2.181 27.5-5 .499-4.989.666-9.989.5-15h-16v6h9c.453 3.152-.547 5.652-3 7.5-15.137 3.862-21.97-1.971-20.5-17.5 6.556-10.381 14.723-11.714 24.5-4 2.286-.633 3.952-1.966 5-4a44.333 44.333 0 0 0 10-2 84.955 84.955 0 0 0 7.5 3l1-1a13.908 13.908 0 0 0 4 3c4.263-2.332 8.596-3.999 13-5 3.327 2.207 6.827 2.54 10.5 1 7.046 2.166 9.046 6.5 6 13z"/><path style="opacity:1" fill="#0b1417" d="M379.5 85.5c4.017-.661 5.351.672 4 4h-4v-4z"/><path style="opacity:1" fill="#cacecf" d="M424.5 82.5v3h-9v3h7v4h-7v3h8v3h-12v-16h13z"/><path style="opacity:1" fill="#c9cdce" d="M403.5 82.5c1.575 1.614 2.241 3.614 2 6-.111.617-.444 1.117-1 1.5 2.667 2.667 2.667 5.333 0 8-3.526 1.337-7.192 1.837-11 1.5v-17h10z"/><path style="opacity:1" fill="#0d1416" d="M397.5 85.5c6.667 1 6.667 2 0 3v-3z"/><path style="opacity:1" fill="#eff0f0" d="M412.5 35.5h4v7c-3.855-.655-6.688.679-8.5 4a145.05 145.05 0 0 0-.5 17h-7v-27c2.894-.458 5.394.209 7.5 2 1.652-.9 3.152-1.9 4.5-3z"/><path style="opacity:1" fill="#15242b" d="M243.5 87.5c1.086.12 1.753.787 2 2l-1 2c-.929-1.189-1.262-2.522-1-4z"/><path style="opacity:1" fill="#5e6568" d="M379.5 85.5v4h4c-1.419.951-3.085 1.284-5 1-.284-1.915.049-3.581 1-5z"/><path style="opacity:1" fill="#050e11" d="M397.5 92.5h5v3h-5v-3z"/><path style="opacity:1" fill="#697b7d" d="M218.5 82.5v16h3c-1.068.934-2.401 1.268-4 1-.322-5.858.011-11.525 1-17z"/><path style="opacity:1" fill="#1d3639" d="M247.5 95.5c.904.709 1.237 1.709 1 3 1.599.268 2.932-.066 4-1 .601 5.374.934 11.04 1 17h5c-2.107.968-4.441 1.302-7 1v-7h-4v16a9.175 9.175 0 0 1-4.5-2c-.671.752-1.504 1.086-2.5 1 5.056-9.537 2.056-14.537-9-15a112.33 112.33 0 0 1 5-2c1.061-3.334 3.395-4.834 7-4.5a8.906 8.906 0 0 1 4-3l-3-1c1.442-.377 2.442-1.21 3-2.5z"/><path style="opacity:1" fill="#7e868a" d="M370.5 82.5h-12v16h12c-4.134.985-8.468 1.318-13 1v-17c4.333-1.333 8.667-1.333 13 0z"/><path style="opacity:1" fill="#828688" d="M423.5 95.5c.934 1.068 1.268 2.401 1 4h-13v-1h12v-3z"/><path style="opacity:1" fill="#060a0e" d="M71.5 98.5c3.849 3.02 6.182 7.02 7 12-2.221 5.164-5.888 6.33-11 3.5a9.84 9.84 0 0 1-1-4c.72-4.269 2.386-8.102 5-11.5z"/><path style="opacity:1" fill="#142328" d="M349.5 82.5c2.498-.672 4.831-.672 7 0h1v17c4.532.318 8.866-.015 13-1v-3c1.322-.17 2.489.163 3.5 1 .174-4.851.674-9.518 1.5-14v16h3v-5a8.435 8.435 0 0 1 4 .5c.767 2.053 2.1 3.553 4 4.5.916-.043 1.583-.376 2-1 .543.06.876.393 1 1a6.807 6.807 0 0 1-3 1.5c2.921 3.425 2.587 6.258-1 8.5h-13c-.342-2.855-2.009-4.355-5-4.5-6.483-.55-12.817-.384-19 .5-4.921.197-8.588-1.803-11-6 .442-1.239 1.109-2.239 2-3v4h4a18.452 18.452 0 0 1 .5-6c.414-.457.914-.79 1.5-1 1.827 2 3.494 4.167 5 6.5 1.444.78 2.777.614 4-.5l-6-9c1.092-2.594 2.759-4.76 5-6.5a8.435 8.435 0 0 0-4-.5z"/><path style="opacity:1" fill="#d3d7d8" d="M370.5 82.5v3h-9v3h7v4h-7v3h9v3h-12v-16h12z"/><path style="opacity:1" fill="#cbcfd0" d="M204.5 108.5c2.825-.419 4.991.581 6.5 3-.503 3.79-.17 7.457 1 11a6.978 6.978 0 0 1-3.5 2.5c-3.317.498-6.65.665-10 .5v-17h6z"/><path style="opacity:1" fill="#cdd2d4" d="M220.5 115.5v10h-4v-17h4v7z"/><path style="opacity:1" fill="#d1d6d7" d="M231.5 108.5c11.056.463 14.056 5.463 9 15-4.4 2.599-8.733 2.599-13 0-2.106-2.219-3.106-4.885-3-8 1.355-3.355 3.689-5.689 7-7z"/><path style="opacity:1" fill="#cfd3d4" d="M258.5 114.5v-6h4v17h-4v-7h-7v7c-1.599.268-2.932-.066-4-1v-16h4v7c2.559.302 4.893-.032 7-1z"/><path style="opacity:1" fill="#cdd1d2" d="M280.5 108.5c1.294 1.548 1.961 3.548 2 6-.827 11.718-5.827 14.051-15 7v-13h4a72.367 72.367 0 0 0 .5 12c2 2.667 4 2.667 6 0-.102-4.456.732-8.456 2.5-12z"/><path style="opacity:1" fill="#cacfd0" d="M298.5 109.5c.901.79 1.568 1.79 2 3a14.093 14.093 0 0 1-1 3.5c3.157 6.716.824 9.882-7 9.5h-5v-17c3.769-.256 7.436.077 11 1z"/><path style="opacity:1" fill="#cfd3d4" d="M323.5 122.5c-4.199 3.733-8.533 3.9-13 .5 1.799-1.702 3.799-1.869 6-.5 1.5.047 2.5-.619 3-2a25.02 25.02 0 0 1-7.5-5 8.43 8.43 0 0 1-.5-4c.453-.958 1.119-1.792 2-2.5 2.73-.728 5.397-.562 8 .5 1.021.502 1.188 1.168.5 2-2.027.486-4.193.486-6.5 0-.17 1.322.163 2.489 1 3.5 4.652.481 6.985 2.981 7 7.5z"/><path style="opacity:1" fill="#d0d4d5" d="M337.5 122.5c-2.128-1.129-4.461-1.296-7-.5-.474 1.729-1.474 2.895-3 3.5-2.296-.304-2.629-1.304-1-3a106.73 106.73 0 0 1 5-13c1.667-1.333 3.333-1.333 5 0a145.522 145.522 0 0 0 6 15c-2.409 1.298-4.075.631-5-2z"/><path style="opacity:1" fill="#c8cccd" d="M346.5 108.5a4.934 4.934 0 0 1 3 .5l7.5 9.5c.498-3.317.665-6.65.5-10h4v17a8.43 8.43 0 0 1-4-.5l-7.5-9.5c.083 3.811-.75 7.145-2.5 10-1.314-2.415-1.981-5.248-2-8.5.002-3.021.336-5.854 1-8.5z"/><path style="opacity:1" fill="#c9cdce" d="M372.5 108.5h13v3h-9v4h7v4h-6c-.961 1.765-1.295 3.765-1 6h-4v-17z"/><path style="opacity:1" fill="#ced1d2" d="M389.5 108.5c4.411-.479 8.578.188 12.5 2 .936 3.292.436 6.292-1.5 9a43.725 43.725 0 0 0 3 5.5c-1.333.667-2.667.667-4 0l-3-5a4.934 4.934 0 0 0-3-.5v6h-4v-17z"/><path style="opacity:1" fill="#cfd3d4" d="M412.5 108.5c1.644-.214 3.144.12 4.5 1a151.175 151.175 0 0 1 5.5 16h-4c.17-1.322-.163-2.489-1-3.5a24.935 24.935 0 0 0-7-.5c.092 3.571-1.574 4.738-5 3.5a497.204 497.204 0 0 1 7-16.5z"/><path style="opacity:1" fill="#d3d7d8" d="M436.5 117.5c.06.543.393.876 1 1a25.879 25.879 0 0 0 1-10h3v17c-1.478.262-2.811-.071-4-1a58.829 58.829 0 0 0-6.5-8 40.914 40.914 0 0 0-.5 9h-4v-17c4.515 1.506 7.848 4.506 10 9z"/><path style="opacity:1" fill="#757b7c" d="M438.5 108.5a25.879 25.879 0 0 1-1 10c-.607-.124-.94-.457-1-1l2-9z"/><path style="opacity:1" fill="#cfd2d3" d="M451.5 108.5a32.462 32.462 0 0 1 8 .5c2.284 1.363 2.451 2.863.5 4.5-7.577-3.765-10.577-1.431-9 7a9.201 9.201 0 0 0 4.5 2c2.01-.862 4.01-1.362 6-1.5.457.414.791.914 1 1.5-3.124 2.856-6.791 3.689-11 2.5-4.655-2.897-6.155-7.063-4.5-12.5 1.397-1.57 2.897-2.904 4.5-4z"/><path style="opacity:1" fill="#c8cbcc" d="M466.5 108.5h4v17h-4v-17z"/><path style="opacity:1" fill="#cacdce" d="M486.5 119.5c.019 4.516-2.314 6.516-7 6-3.088.303-4.754-1.03-5-4l8 1c.17-1.322-.163-2.489-1-3.5-6.526-.961-8.193-4.128-5-9.5 3.563-1.537 6.897-1.204 10 1-.387 1.22-1.22 1.887-2.5 2-2.028-1.468-3.862-1.301-5.5.5 1.983 1.889 4.316 3.222 7 4 .752.671 1.086 1.504 1 2.5z"/><path style="opacity:1" fill="#d0d4d5" d="M504.5 124.5c-6.577 2.576-11.577.909-15-5 .344-8.515 4.677-12.015 13-10.5 2.624.576 3.291 1.91 2 4-2.414-1.207-5.081-1.54-8-1-4 3.333-4 6.667 0 10 2.919.54 5.586.207 8-1 1.184 1.145 1.184 2.312 0 3.5z"/><path style="opacity:1" fill="#d2d5d6" d="M509.5 121.5c-1.618-3.602-1.285-6.935 1-10a10.515 10.515 0 0 0 3-2.5c10.221-1.779 14.388 2.387 12.5 12.5-5.572 5.307-11.072 5.307-16.5 0z"/><path style="opacity:1" fill="#030609" d="M88.5 108.5c9.525.023 13.358 4.689 11.5 14-6.598 7.013-12.264 6.346-17-2-.688-5.148 1.145-9.148 5.5-12z"/><path style="opacity:1" fill="#172124" d="M202.5 111.5c2.165-.384 3.832.283 5 2-1.545.952-3.212 1.285-5 1v-3z"/><path style="opacity:1" fill="#172629" d="M291.5 111.5c2.165-.384 3.832.283 5 2-1.545.952-3.212 1.285-5 1v-3z"/><path style="opacity:1" fill="#0a1114" d="M393.5 112.5h5v4h-5v-4z"/><path style="opacity:1" fill="#131819" d="M515.5 111.5c7.245.055 9.245 3.222 6 9.5-6.271 2.4-9.104.233-8.5-6.5a10.515 10.515 0 0 0 2.5-3z"/><path style="opacity:1" fill="#1c3135" d="M231.5 111.5c8.318.487 9.985 3.987 5 10.5-8.412-.188-10.079-3.688-5-10.5z"/><path style="opacity:1" fill="#112528" d="M303.5 81.5v1h-3a84.9 84.9 0 0 0 .5 13 25.136 25.136 0 0 0 4.5 4 1717.409 1717.409 0 0 1-7 10c-3.564-.923-7.231-1.256-11-1v17h5a17.858 17.858 0 0 1-5 5c.346 1.196.846 1.196 1.5 0 .617.949.451 1.782-.5 2.5l7 6-1 1c3.499 2.503 5.165 5.67 5 9.5h-32c-.263-6.411.737-12.577 3-18.5a242.237 242.237 0 0 1-4-6 10.98 10.98 0 0 1 1-3.5c9.173 7.051 14.173 4.718 15-7-.039-2.452-.706-4.452-2-6a18.473 18.473 0 0 0-2-3.5c1.134-1.016.801-1.683-1-2l2-5a321.37 321.37 0 0 1 0-14.5h3c-.172.992.162 1.658 1 2 2.357-.163 4.69.003 7 .5a34.692 34.692 0 0 1-6.5 7.5c-1.009 1.525-1.509 3.192-1.5 5 4.47.986 9.137 1.32 14 1 .268-1.599-.066-2.932-1-4a32.438 32.438 0 0 1-8-.5c3.796-3.592 6.462-7.759 8-12.5-2.448-.973-5.115-1.306-8-1 .283-.79.783-1.456 1.5-2a151.92 151.92 0 0 0 14.5 2z"/><path style="opacity:1" fill="#828e90" d="M295.5 95.5c.934 1.068 1.268 2.401 1 4-4.863.32-9.53-.014-14-1h13v-3z"/><path style="opacity:1" fill="#272f33" d="M333.5 113.5c1.431 1.28 2.098 2.947 2 5h-3c-.134-1.792.199-3.458 1-5z"/><path style="opacity:1" fill="#2e3536" d="M413.5 114.5c1.621.287 2.621 1.287 3 3-1.333 1.333-2.667 1.333-4 0a5.576 5.576 0 0 0 1-3z"/><path style="opacity:1" fill="#1a2a2e" d="M202.5 118.5c2.477-.449 4.477.217 6 2-1.523 1.783-3.523 2.449-6 2v-4z"/><path style="opacity:1" fill="#1c2d30" d="M291.5 118.5c2.477-.449 4.477.217 6 2-1.523 1.783-3.523 2.449-6 2v-4z"/><path style="opacity:1" fill="#112629" d="M247.5 124.5c1.068.934 2.401 1.268 4 1-1.603 1.096-3.103 2.43-4.5 4l-1-1a168.028 168.028 0 0 0-6.5 2c4.597.29 8.097 2.29 10.5 6a43.765 43.765 0 0 0 7.5-3c4.65.766 6.15 3.432 4.5 8-4.185 1.019-6.352 3.686-6.5 8h-24a378.717 378.717 0 0 1 4-6 98.592 98.592 0 0 1-4-8.5c2.827-3.746 1.827-6.246-3-7.5a6.846 6.846 0 0 1-1-4c4.267 2.599 8.6 2.599 13 0 .996.086 1.829-.248 2.5-1a9.175 9.175 0 0 0 4.5 2z"/><path style="opacity:1" fill="#0b1819" d="M486.5 119.5c.972 2.598 1.972 2.598 3 0 3.423 5.909 8.423 7.576 15 5a38.287 38.287 0 0 0-1.5 7c-1.11 1.537-2.61 2.203-4.5 2a8.43 8.43 0 0 0 .5 4c5.159 2.648 6.659 6.648 4.5 12h-31c-.07-4.861 1.763-8.861 5.5-12 1.523-4.019 2.023-8.019 1.5-12 4.686.516 7.019-1.484 7-6z"/><path style="opacity:1" fill="#0c1c22" d="M220.5 115.5h4c-.106 3.115.894 5.781 3 8a6.846 6.846 0 0 0 1 4c4.827 1.254 5.827 3.754 3 7.5a98.592 98.592 0 0 0 4 8.5 378.717 378.717 0 0 0-4 6h-22c.117-1.984-.55-3.65-2-5 2.016-1.987 3.016-4.487 3-7.5-2.307-4.557-1.14-7.724 3.5-9.5.496-1.535.33-3.035-.5-4.5l1.5-4.5c.383.556.883.889 1.5 1v6h4v-10z"/><path style="opacity:1" fill="#0e1f22" d="M311.5 111.5a8.43 8.43 0 0 0 .5 4 25.02 25.02 0 0 0 7.5 5c-.5 1.381-1.5 2.047-3 2-2.201-1.369-4.201-1.202-6 .5 4.467 3.4 8.801 3.233 13-.5h3c-1.629 1.696-1.296 2.696 1 3a16.485 16.485 0 0 1 2 5c-1.156 2.56-1.156 5.06 0 7.5-2.308 1.588-2.975 3.588-2 6-1.692 1.401-2.359 3.234-2 5.5h-26c.165-3.83-1.501-6.997-5-9.5l1-1-7-6c.951-.718 1.117-1.551.5-2.5-.654 1.196-1.154 1.196-1.5 0a17.858 17.858 0 0 0 5-5c7.824.382 10.157-2.784 7-9.5a14.093 14.093 0 0 0 1-3.5c3.769.256 7.436-.077 11-1z"/><path style="opacity:1" fill="#0b171a" d="M357.5 52.5a32.256 32.256 0 0 0 9 10c-1.195.366-1.861 1.199-2 2.5a22.577 22.577 0 0 1 4 5.5 20.023 20.023 0 0 1-2.5 5c-1.473-1.636-3.307-2.636-5.5-3-2.683.776-5.183 1.109-7.5 1l-1-2a18.452 18.452 0 0 0-.5 6c3.202.037 4.868 1.703 5 5-2.169-.672-4.502-.672-7 0a46.107 46.107 0 0 1-5.5 6 18.452 18.452 0 0 1-.5-6h-4v13c-.891.761-1.558 1.761-2 3 2.412 4.197 6.079 6.197 11 6 6.183-.884 12.517-1.05 19-.5 2.991.145 4.658 1.645 5 4.5v17h4c-.295-2.235.039-4.235 1-6a200.686 200.686 0 0 0 2 19c3.9-.16 6.567 1.507 8 5-1.586 1.673-2.253 3.673-2 6h-6c.202-7.726-3.298-13.059-10.5-16l-1 1-10-2c-1.705 1.263-3.372 1.597-5 1a14.506 14.506 0 0 0-5 4 26.147 26.147 0 0 0 1.5 12h-24c-.359-2.266.308-4.099 2-5.5-.975-2.412-.308-4.412 2-6-1.156-2.44-1.156-4.94 0-7.5a16.485 16.485 0 0 0-2-5c1.526-.605 2.526-1.771 3-3.5 2.539-.796 4.872-.629 7 .5a4.934 4.934 0 0 0-3 .5c.837 1.011 1.17 2.178 1 3.5a4.934 4.934 0 0 1 3 .5c-5.116 1.707-5.949 4.54-2.5 8.5 5.882-1.053 9.716-4.386 11.5-10 1.75-2.855 2.583-6.189 2.5-10l7.5 9.5a8.43 8.43 0 0 0 4 .5v-17h-4a50.464 50.464 0 0 1-.5 10l-7.5-9.5a4.934 4.934 0 0 0-3-.5c.111-.617.444-1.117 1-1.5-6.308-.144-10.975-2.977-14-8.5a30.968 30.968 0 0 1 2-2 3.647 3.647 0 0 0-1-1.5c-1.976-.188-3.976-.021-6 .5-1.874.11-3.374-.556-4.5-2-1.5-6.5 1-9 7.5-7.5 1.735 1.984 3.068 1.651 4-1-1.455-1.626-3.122-2.792-5-3.5.997.03 1.664-.47 2-1.5-4.91-4.33-7.244-9.83-7-16.5h7v-5c.809.969 1.809 1.802 3 2.5 4.907 1.622 8.574.288 11-4l8-1c1.926-.422 2.926-1.59 3-3.5z"/><path style="opacity:1" fill="#112728" d="M379.5 149.5h-30a26.147 26.147 0 0 1-1.5-12 14.506 14.506 0 0 1 5-4c1.628.597 3.295.263 5-1l10 2 1-1c7.202 2.941 10.702 8.274 10.5 16z"/></svg>