<svg xmlns="http://www.w3.org/2000/svg" width="200" height="200" style="shape-rendering:geometricPrecision;text-rendering:geometricPrecision;image-rendering:optimizeQuality;fill-rule:evenodd;clip-rule:evenodd"><path style="opacity:.835" fill="#b74137" d="M168.5 32.5c1.855-.228 2.688.439 2.5 2L137.5 84a213.471 213.471 0 0 1 14 27.5 69.234 69.234 0 0 1-16-1 148.454 148.454 0 0 0-8.5-14 66.694 66.694 0 0 1-9.5 14.5c-2.553.851-4.886.518-7-1l13-21a183.674 183.674 0 0 1-13-25.5 64.873 64.873 0 0 1 16 1l7.5 13a1112.566 1112.566 0 0 1 22-39 344.754 344.754 0 0 1 12.5-6z"/><path style="opacity:.865" fill="#b74237" d="M35.5 95.5c1.333-1.333 1.333-2.667 0-4a193.29 193.29 0 0 1 1-27.5 156.492 156.492 0 0 1 25 0c3.562.739 6.728 2.239 9.5 4.5.493-1.634.66-3.3.5-5h38v6h-11c.167 13.67 0 27.337-.5 41-5 1.333-10 1.333-15 0-.5-13.663-.667-27.33-.5-41a25.87 25.87 0 0 0-10 1c3.247 7.426 1.247 12.926-6 16.5 2.07.948 3.57 2.448 4.5 4.5a126.347 126.347 0 0 0 4.5 18.5l-1 1a39.924 39.924 0 0 1-15-.5 74.08 74.08 0 0 1-2.5-18c-1.286-2.645-3.453-3.645-6.5-3 .313 7.255-.02 14.421-1 21.5-4.587.799-9.087.632-13.5-.5-.5-4.989-.666-9.989-.5-15zm15-26c5.492-.763 8.492 1.57 9 7-.508 5.43-3.508 7.763-9 7v-14z"/><path style="opacity:.872" fill="#b74137" d="M167.5 90.5v2c.166 6.01-.001 12.009-.5 18-4.667 1.333-9.333 1.333-14 0-.5-15.663-.667-31.33-.5-47h15v27z"/><path style="opacity:.86" fill="#f3dad0" d="M35.5 91.5c1.333 1.333 1.333 2.667 0 4a60.183 60.183 0 0 0-20.5 5c-.536 2.067-.036 3.901 1.5 5.5a106.02 106.02 0 0 0 12 6.5c-.951 1.419-1.285 3.085-1 5-8.97-1.898-16.47-6.232-22.5-13-.667-1.667-.667-3.333 0-5 2.626-2.73 5.793-4.564 9.5-5.5a180.424 180.424 0 0 1 21-2.5z"/><path style="opacity:.831" fill="#c13034" d="M167.5 90.5a511.327 511.327 0 0 1 31 6.5 22.5 22.5 0 0 1-7 2c2.765 1.097 4.431 3.097 5 6a21.53 21.53 0 0 1-5 6 75.152 75.152 0 0 1-17 6.5c.284-1.915-.049-3.581-1-5a227.398 227.398 0 0 1 12-5.5c2.835-1.44 3.335-3.273 1.5-5.5-.72 1.755-1.887 2.589-3.5 2.5-4.654-4.827-9.988-8.66-16-11.5v-2z"/><path style="opacity:.731" fill="#ebbfb1" d="M28.5 112.5a479.979 479.979 0 0 0 21 5v5a108.225 108.225 0 0 1-22-5c-.285-1.915.049-3.581 1-5z"/><path style="opacity:.736" fill="#c84e45" d="M173.5 112.5c.951 1.419 1.284 3.085 1 5a167.477 167.477 0 0 1-23 5v-5a317.458 317.458 0 0 1 22-5z"/><path style="opacity:.771" fill="#cc5f52" d="M151.5 117.5v5a261.954 261.954 0 0 1-16 2v-5a110.41 110.41 0 0 1 16-2z"/><path style="opacity:.871" fill="#e2a594" d="M49.5 117.5c9.26 1.6 18.593 2.6 28 3 .8 1.542 1.134 3.208 1 5-9.79.029-19.456-.971-29-3v-5z"/><path style="opacity:.718" fill="#da8b79" d="M77.5 120.5a256.01 256.01 0 0 0 27 1c1.333 1.667 1.333 3.333 0 5-8.72.275-17.387-.058-26-1 .134-1.792-.2-3.458-1-5z"/><path style="opacity:.746" fill="#d37665" d="M135.5 119.5v5a260.742 260.742 0 0 1-31 2c1.333-1.667 1.333-3.333 0-5a1129.648 1129.648 0 0 0 31-2z"/></svg>