<?xml version="1.0" encoding="UTF-8"?>
<!DOCTYPE svg PUBLIC "-//W3C//DTD SVG 1.1//EN" "http://www.w3.org/Graphics/SVG/1.1/DTD/svg11.dtd">
<svg xmlns="http://www.w3.org/2000/svg" version="1.1" width="690px" height="345px" style="shape-rendering:geometricPrecision; text-rendering:geometricPrecision; image-rendering:optimizeQuality; fill-rule:evenodd; clip-rule:evenodd" xmlns:xlink="http://www.w3.org/1999/xlink">
<g><path style="opacity:1" fill="#fefefe" d="M -0.5,-0.5 C 229.5,-0.5 459.5,-0.5 689.5,-0.5C 689.5,114.5 689.5,229.5 689.5,344.5C 459.5,344.5 229.5,344.5 -0.5,344.5C -0.5,229.5 -0.5,114.5 -0.5,-0.5 Z"/></g>
<g><path style="opacity:1" fill="#0b0b0b" d="M 128.5,102.5 C 128.737,105.647 129.57,108.647 131,111.5C 131.499,116.155 131.666,120.821 131.5,125.5C 130.915,134.504 127.248,142.004 120.5,148C 113.632,152.435 106.299,155.768 98.5,158C 104,160.833 108.167,165 111,170.5C 120.397,188.604 128.063,207.271 134,226.5C 130.706,229.311 127.706,228.978 125,225.5C 117.549,207.264 109.549,189.264 101,171.5C 96.1376,164.418 89.3043,160.918 80.5,161C 71.2553,160.183 62.0887,160.35 53,161.5C 52.6667,182.833 52.3333,204.167 52,225.5C 49,229.5 46,229.5 43,225.5C 42.0153,179.441 42.3486,133.441 44,87.5C 45.9384,84.8941 48.4384,83.0608 51.5,82C 66.5118,80.0911 81.5118,80.0911 96.5,82C 110.52,83.8969 121.187,90.7302 128.5,102.5 Z"/></g>
<g><path style="opacity:1" fill="#0c0c0c" d="M 160.5,82.5 C 163.044,82.1043 165.211,82.771 167,84.5C 167.333,116.167 167.667,147.833 168,179.5C 171.459,213.265 189.959,226.765 223.5,220C 235.166,217 242.999,209.833 247,198.5C 249.365,193.072 250.699,187.405 251,181.5C 251.333,149.167 251.667,116.833 252,84.5C 254.667,81.8333 257.333,81.8333 260,84.5C 260.667,119.167 260.667,153.833 260,188.5C 255.906,213.261 241.406,227.094 216.5,230C 181.321,232.825 161.821,216.658 158,181.5C 157.333,149.167 157.333,116.833 158,84.5C 158.995,83.9341 159.828,83.2674 160.5,82.5 Z"/></g>
<g><path style="opacity:1" fill="#0f0f0f" d="M 291.5,82.5 C 324.835,82.3333 358.168,82.5 391.5,83C 395.405,85.4753 395.405,88.142 391.5,91C 376.504,91.4999 361.504,91.6666 346.5,91.5C 346.667,136.168 346.5,180.835 346,225.5C 343,229.5 340,229.5 337,225.5C 336.5,180.835 336.333,136.168 336.5,91.5C 321.496,91.6666 306.496,91.4999 291.5,91C 288.899,88.1705 288.899,85.3371 291.5,82.5 Z"/></g>
<g><path style="opacity:1" fill="#0e0e0e" d="M 431.5,82.5 C 455.836,82.3334 480.169,82.5 504.5,83C 508.037,84.8265 508.371,87.1598 505.5,90C 482.167,90.3333 458.833,90.6667 435.5,91C 434.508,108.757 434.174,126.59 434.5,144.5C 456.503,144.333 478.503,144.5 500.5,145C 504.405,147.858 504.405,150.525 500.5,153C 478.503,153.5 456.503,153.667 434.5,153.5C 434.5,175.5 434.5,197.5 434.5,219.5C 457.836,219.333 481.169,219.5 504.5,220C 507.167,222.667 507.167,225.333 504.5,228C 480.5,228.667 456.5,228.667 432.5,228C 428.942,226.108 426.442,223.275 425,219.5C 424.333,176.5 424.333,133.5 425,90.5C 426.305,87.0386 428.471,84.372 431.5,82.5 Z"/></g>
<g><path style="opacity:1" fill="#080808" d="M 633.5,210.5 C 633.833,211.167 634.167,211.833 634.5,212.5C 634.56,213.043 634.893,213.376 635.5,213.5C 636.5,170.505 636.833,127.505 636.5,84.5C 639.216,81.8663 642.049,81.8663 645,84.5C 645.667,131.5 645.667,178.5 645,225.5C 640.375,229.646 636.041,229.313 632,224.5C 605.338,182.348 578.504,140.348 551.5,98.5C 551.44,97.9569 551.107,97.6236 550.5,97.5C 549.5,140.161 549.167,182.828 549.5,225.5C 546.703,229.37 543.87,229.37 541,225.5C 540.333,178.833 540.333,132.167 541,85.5C 543.21,82.7104 546.044,81.877 549.5,83C 551.96,84.4578 554.127,86.2911 556,88.5C 582.057,129.05 607.891,169.717 633.5,210.5 Z"/></g>
<g><path style="opacity:1" fill="#d6d6d6" d="M 635.5,85.5 C 635.832,128.003 635.499,170.337 634.5,212.5C 634.167,211.833 633.833,211.167 633.5,210.5C 634.167,168.833 634.833,127.167 635.5,85.5 Z"/></g>
<g><path style="opacity:1" fill="#565656" d="M 636.5,84.5 C 636.833,127.505 636.5,170.505 635.5,213.5C 634.893,213.376 634.56,213.043 634.5,212.5C 635.499,170.337 635.832,128.003 635.5,85.5C 635.5,84.8333 635.833,84.5 636.5,84.5 Z"/></g>
<g><path style="opacity:1" fill="#fdfdfd" d="M 119.5,106.5 C 121.242,113.684 121.909,121.017 121.5,128.5C 118.851,137.986 112.851,144.486 103.5,148C 96.3501,150.26 89.0168,151.593 81.5,152C 71.8391,152.5 62.1724,152.666 52.5,152.5C 52.1734,131.924 52.5067,111.424 53.5,91C 68.1667,89 82.8333,89 97.5,91C 107.255,93.0186 114.589,98.1853 119.5,106.5 Z"/></g>
<g><path style="opacity:1" fill="#626262" d="M 551.5,98.5 C 550.833,140.833 550.167,183.167 549.5,225.5C 549.167,182.828 549.5,140.161 550.5,97.5C 551.107,97.6236 551.44,97.9569 551.5,98.5 Z"/></g>
<g><path style="opacity:1" fill="#5c5c5c" d="M 128.5,102.5 C 130.129,104.858 131.295,107.524 132,110.5C 132.816,115.684 132.65,120.684 131.5,125.5C 131.666,120.821 131.499,116.155 131,111.5C 129.57,108.647 128.737,105.647 128.5,102.5 Z"/></g>
<g><path style="opacity:1" fill="#ababab" d="M 119.5,106.5 C 120.793,107.842 121.626,109.509 122,111.5C 122.818,117.349 122.652,123.015 121.5,128.5C 121.909,121.017 121.242,113.684 119.5,106.5 Z"/></g>
<g><path style="opacity:1" fill="#212121" d="M 386.5,257.5 C 387.496,257.414 388.329,257.748 389,258.5C 389.219,259.938 389.719,261.271 390.5,262.5C 396.293,256.708 402.626,256.042 409.5,260.5C 410.531,261.7 411.365,263.034 412,264.5C 412.5,273.16 412.666,281.827 412.5,290.5C 411.5,290.5 410.5,290.5 409.5,290.5C 409.666,282.16 409.5,273.827 409,265.5C 405.96,259.632 401.46,258.132 395.5,261C 393.291,262.873 391.458,265.04 390,267.5C 389.5,275.159 389.334,282.826 389.5,290.5C 388.5,290.5 387.5,290.5 386.5,290.5C 386.5,279.5 386.5,268.5 386.5,257.5 Z"/></g>
<g><path style="opacity:1" fill="#1f1f1f" d="M 525.5,257.5 C 543.177,256.019 550.01,264.019 546,281.5C 540.605,291.409 532.772,293.909 522.5,289C 516.009,281.286 514.842,272.786 519,263.5C 521.063,261.266 523.229,259.266 525.5,257.5 Z"/></g>
<g><path style="opacity:1" fill="#232323" d="M 456.5,257.5 C 457.496,257.414 458.329,257.748 459,258.5C 459.333,267.167 459.667,275.833 460,284.5C 461.135,287.859 463.468,289.192 467,288.5C 472.609,288.564 476.276,285.897 478,280.5C 478.333,273.167 478.667,265.833 479,258.5C 479.414,258.043 479.914,257.709 480.5,257.5C 481.499,268.48 481.832,279.48 481.5,290.5C 480.5,290.5 479.5,290.5 478.5,290.5C 479.187,284.401 477.854,283.901 474.5,289C 469.109,292.405 463.942,292.238 459,288.5C 458.333,287.167 457.667,285.833 457,284.5C 456.5,275.506 456.334,266.506 456.5,257.5 Z"/></g>
<g><path style="opacity:1" fill="#1d1d1d" d="M 492.5,257.5 C 494.197,259.305 495.03,261.639 495,264.5C 499.222,258.816 504.722,256.816 511.5,258.5C 504.529,259.402 499.029,262.736 495,268.5C 494.5,275.826 494.334,283.159 494.5,290.5C 493.5,290.5 492.5,290.5 491.5,290.5C 491.19,279.419 491.523,268.419 492.5,257.5 Z"/></g>
<g><path style="opacity:1" fill="#f9f9f9" d="M 527.5,259.5 C 534.205,258.67 539.372,261.004 543,266.5C 543.667,271.5 543.667,276.5 543,281.5C 538.513,288.549 532.346,290.383 524.5,287C 518.845,280.104 518.011,272.604 522,264.5C 523.73,262.598 525.563,260.931 527.5,259.5 Z"/></g>
<g><path style="opacity:1" fill="#1c1c1c" d="M 428.5,257.5 C 437.437,255.555 443.937,258.555 448,266.5C 448.978,269.669 448.478,272.503 446.5,275C 438.841,275.5 431.174,275.666 423.5,275.5C 422.994,279.986 424.328,283.819 427.5,287C 433.482,288.381 439.482,288.881 445.5,288.5C 433.023,295.205 424.523,291.872 420,278.5C 418.465,269.58 421.299,262.58 428.5,257.5 Z"/></g>
<g><path style="opacity:1" fill="#f7f7f7" d="M 445.5,272.5 C 438.167,272.5 430.833,272.5 423.5,272.5C 423.5,271.167 423.5,269.833 423.5,268.5C 425.477,261.373 430.144,258.539 437.5,260C 443.563,261.953 446.23,266.12 445.5,272.5 Z"/></g>
<g><path style="opacity:1" fill="#4b4b4b" d="M 380.5,275.5 C 324.504,274.167 268.171,273.5 211.5,273.5C 154.829,273.5 98.496,274.167 42.5,275.5C 41.596,274.791 41.2627,273.791 41.5,272.5C 154.833,272.5 268.167,272.5 381.5,272.5C 381.737,273.791 381.404,274.791 380.5,275.5 Z"/></g>
<g><path style="opacity:1" fill="#5a5a5a" d="M 423.5,268.5 C 423.5,269.833 423.5,271.167 423.5,272.5C 430.833,272.5 438.167,272.5 445.5,272.5C 438.018,273.492 430.352,273.825 422.5,273.5C 422.216,271.585 422.549,269.919 423.5,268.5 Z"/></g>
<g><path style="opacity:1" fill="#4b4b4b" d="M 551.5,273.5 C 582.996,272.502 614.662,272.168 646.5,272.5C 646.737,273.791 646.404,274.791 645.5,275.5C 614.518,273.507 583.184,272.841 551.5,273.5 Z"/></g>
<g><path style="opacity:1" fill="#222222" d="M 380.5,275.5 C 267.833,275.5 155.167,275.5 42.5,275.5C 98.496,274.167 154.829,273.5 211.5,273.5C 268.171,273.5 324.504,274.167 380.5,275.5 Z"/></g>
<g><path style="opacity:1" fill="#222222" d="M 551.5,273.5 C 583.184,272.841 614.518,273.507 645.5,275.5C 613.816,276.159 582.482,275.493 551.5,273.5 Z"/></g>
</svg>
