<?xml version="1.0" encoding="UTF-8"?>
<!DOCTYPE svg PUBLIC "-//W3C//DTD SVG 1.1//EN" "http://www.w3.org/Graphics/SVG/1.1/DTD/svg11.dtd">
<svg xmlns="http://www.w3.org/2000/svg" version="1.1" width="432px" height="374px" style="shape-rendering:geometricPrecision; text-rendering:geometricPrecision; image-rendering:optimizeQuality; fill-rule:evenodd; clip-rule:evenodd" xmlns:xlink="http://www.w3.org/1999/xlink">
<g><path style="opacity:1" fill="#284d4f" d="M -0.5,-0.5 C 30.1667,-0.5 60.8333,-0.5 91.5,-0.5C 91.5023,1.57104 91.1689,3.7377 90.5,6C 93.0932,6.60631 94.7598,8.10631 95.5,10.5C 93.9736,12.5021 92.307,14.5021 90.5,16.5C 91.9479,18.6667 93.1146,21 94,23.5C 96.9101,24.4503 98.0768,26.4503 97.5,29.5C 101.541,29.5017 102.208,30.835 99.5,33.5C 100.965,37.2461 103.298,38.0794 106.5,36C 105.542,34.8525 105.875,33.8525 107.5,33C 112.038,34.002 115.038,32.1686 116.5,27.5C 116.167,26.5 115.5,25.8333 114.5,25.5C 112.724,26.3148 112.057,27.4815 112.5,29C 111.207,29.49 109.873,29.6567 108.5,29.5C 108.297,27.6096 108.963,26.1096 110.5,25C 110.167,24.6667 109.833,24.3333 109.5,24C 112.121,21.7987 114.954,19.9653 118,18.5C 121.417,20.0719 121.251,21.2386 117.5,22C 117.653,24.6095 118.986,26.9429 121.5,29C 119.175,30.6052 116.842,32.2719 114.5,34C 115.167,34.3333 115.833,34.6667 116.5,35C 114.058,36.6808 112.725,38.6808 112.5,41C 113.603,42.6804 113.27,44.1804 111.5,45.5C 112.485,47.0983 112.651,48.765 112,50.5C 110.644,49.6198 109.144,49.2865 107.5,49.5C 107.453,46.4318 106.953,43.4318 106,40.5C 104.424,39.9875 103.091,40.6542 102,42.5C 100.418,40.9712 98.5847,40.4712 96.5,41C 97.8333,41.6667 97.8333,42.3333 96.5,43C 98.9494,43.7246 101.283,44.7246 103.5,46C 102.745,49.2066 100.745,50.7066 97.5,50.5C 97.6495,49.448 97.4828,48.448 97,47.5C 94.025,48.7324 91.525,50.5658 89.5,53C 89.8333,53.5 90.1667,54 90.5,54.5C 91.9684,52.6671 93.6351,52.3338 95.5,53.5C 92.8333,54.8333 92.8333,56.1667 95.5,57.5C 94.4826,60.028 93.3159,60.028 92,57.5C 91.2825,58.4506 90.4491,58.6172 89.5,58C 87.5479,55.9261 85.7146,53.7594 84,51.5C 83.5,52 83,52.5 82.5,53C 84.3166,55.5589 85.9833,58.2256 87.5,61C 84.8333,61.6667 84.8333,62.3333 87.5,63C 86.3595,63.7412 86.3595,64.5745 87.5,65.5C 86.4826,68.028 85.3159,68.028 84,65.5C 82.7496,66.5733 81.4162,66.5733 80,65.5C 79.0497,66.0223 78.2164,66.689 77.5,67.5C 76.914,67.2907 76.414,66.9574 76,66.5C 75.6667,68.8333 75.3333,71.1667 75,73.5C 74.1475,71.8753 73.1475,71.5419 72,72.5C 71.5439,71.2559 72.0439,70.4226 73.5,70C 71.3556,66.7555 69.3556,66.9221 67.5,70.5C 66.1667,69.5 64.8333,68.5 63.5,67.5C 63.1667,67.8333 62.8333,68.1667 62.5,68.5C 63.1667,69.1667 63.8333,69.8333 64.5,70.5C 61.1676,71.3097 59.6676,73.3097 60,76.5C 60.414,76.9574 60.914,77.2907 61.5,77.5C 62.8761,76.1581 64.2094,74.8248 65.5,73.5C 66.723,72.3861 68.0563,72.2195 69.5,73C 70.4506,73.7175 70.6172,74.5509 70,75.5C 68.3903,75.1304 66.8903,75.7971 65.5,77.5C 67.7659,78.7163 69.7659,80.2163 71.5,82C 70.3301,83.5866 69.3301,85.2533 68.5,87C 69.6341,88.016 69.3008,88.6827 67.5,89C 68.1667,89.3333 68.8333,89.6667 69.5,90C 68,90.8333 66.8333,92 66,93.5C 65.6667,92.8333 65.3333,92.1667 65,91.5C 64.3333,92.8333 64.3333,94.1667 65,95.5C 66.6665,94.6598 66.8331,95.1598 65.5,97C 64.5838,97.3742 63.7504,97.8742 63,98.5C 63.4388,95.7844 63.6054,93.1177 63.5,90.5C 62.4783,89.646 61.6449,88.646 61,87.5C 60.5172,88.448 60.3505,89.448 60.5,90.5C 57.9743,90.9191 55.641,91.0858 53.5,91C 55.5127,92.7913 55.5127,94.1247 53.5,95C 54.8213,96.5445 54.4879,97.7112 52.5,98.5C 50.6112,96.568 48.6112,94.7347 46.5,93C 44.555,93.1282 42.7216,92.9615 41,92.5C 40.3828,91.5509 40.5494,90.7175 41.5,90C 43.4406,89.2571 45.2739,89.4238 47,90.5C 47.8238,89.1916 48.3238,87.6916 48.5,86C 53.9858,87.2576 57.9858,85.2576 60.5,80C 57.8728,77.9833 55.3728,78.1499 53,80.5C 52.6258,79.5838 52.1258,78.7504 51.5,78C 54.5919,77.0662 54.9253,75.8996 52.5,74.5C 50.3878,75.4978 49.3878,76.8312 49.5,78.5C 48.0316,76.6671 46.3649,76.3338 44.5,77.5C 45.9079,78.2432 47.2412,79.0766 48.5,80C 46.1382,81.7313 43.4715,82.5646 40.5,82.5C 39.9512,84.9013 39.1178,87.2346 38,89.5C 37.5578,85.2247 38.7245,81.3914 41.5,78C 40.3659,76.984 40.6992,76.3173 42.5,76C 40.5594,75.2571 38.7261,75.4238 37,76.5C 34.003,74.373 34.003,72.0397 37,69.5C 37.9653,71.2603 39.132,71.5937 40.5,70.5C 39.2889,69.2798 39.2889,68.1131 40.5,67C 38.5614,66.0922 37.5614,64.5922 37.5,62.5C 36.448,62.6495 35.448,62.4828 34.5,62C 33.624,60.414 32.624,58.914 31.5,57.5C 30.914,57.7093 30.414,58.0426 30,58.5C 29.8038,56.7139 28.9705,55.3805 27.5,54.5C 25.9733,56.1933 24.6399,58.0266 23.5,60C 25.9005,60.1858 28.2338,60.6858 30.5,61.5C 29.8555,62.7321 29.6888,64.0654 30,65.5C 25.2218,66.3139 20.2218,66.3139 15,65.5C 13.3831,66.5358 13.2164,67.7025 14.5,69C 8.0393,69.1994 7.37263,70.6994 12.5,73.5C 11.3707,75.5294 11.8707,75.8627 14,74.5C 17.1129,76.0575 17.2796,77.8909 14.5,80C 11.374,80.9895 8.37401,82.1562 5.5,83.5C 5.34276,80.3972 4.50943,77.7305 3,75.5C 4.58601,76.376 6.08601,77.376 7.5,78.5C 8.28683,77.7579 8.95349,76.9246 9.5,76C 7.35907,74.8502 5.52574,73.3502 4,71.5C 2.415,72.0439 0.915003,72.7106 -0.5,73.5C -0.5,48.8333 -0.5,24.1667 -0.5,-0.5 Z"/></g>
<g><path style="opacity:1" fill="#254b4c" d="M 91.5,-0.5 C 126.833,-0.5 162.167,-0.5 197.5,-0.5C 196.484,2.19962 196.484,4.86628 197.5,7.5C 196.478,8.354 195.645,9.354 195,10.5C 194.667,10.1667 194.333,9.83333 194,9.5C 193.727,11.1012 193.227,12.6012 192.5,14C 195.482,14.498 198.482,14.6646 201.5,14.5C 201.5,15.8333 201.5,17.1667 201.5,18.5C 199.473,18.3379 197.473,18.5045 195.5,19C 198.059,20.8054 200.725,20.9721 203.5,19.5C 204.167,19.8333 204.833,20.1667 205.5,20.5C 204.311,21.4287 202.978,21.762 201.5,21.5C 201.5,26.1667 201.5,30.8333 201.5,35.5C 200.167,35.5 198.833,35.5 197.5,35.5C 197.5,37.1667 197.5,38.8333 197.5,40.5C 199.124,40.6399 200.29,39.9733 201,38.5C 201.026,42.1083 201.859,45.4417 203.5,48.5C 205.086,46.8273 205.753,44.8273 205.5,42.5C 206.833,42.5 208.167,42.5 209.5,42.5C 209.674,50.4728 210.174,50.4728 211,42.5C 212.131,45.4453 212.964,48.4453 213.5,51.5C 209.37,51.5343 205.37,52.201 201.5,53.5C 202.568,56.0875 203.901,58.5875 205.5,61C 204.534,64.2586 203.2,67.2586 201.5,70C 202.563,71.1882 203.897,71.6882 205.5,71.5C 205.5,72.8333 205.5,74.1667 205.5,75.5C 201.834,75.4882 198.501,75.1548 195.5,74.5C 197.422,73.04 198.089,71.3733 197.5,69.5C 197.192,68.6919 196.692,68.0253 196,67.5C 195.361,70.2277 194.194,70.7277 192.5,69C 193.167,68.6667 193.833,68.3333 194.5,68C 193.594,66.3005 193.261,64.4672 193.5,62.5C 194.833,62.5 196.167,62.5 197.5,62.5C 198.216,59.6925 199.216,57.6925 200.5,56.5C 199.843,54.5281 199.843,52.6948 200.5,51C 199.551,50.3828 198.718,50.5494 198,51.5C 197.503,48.854 197.336,46.1873 197.5,43.5C 196.167,43.5 194.833,43.5 193.5,43.5C 193.5,44.8333 193.5,46.1667 193.5,47.5C 192.167,47.5 190.833,47.5 189.5,47.5C 189.5,45.8333 189.5,44.1667 189.5,42.5C 190.833,42.5 192.167,42.5 193.5,42.5C 193.5,39.8333 193.5,37.1667 193.5,34.5C 191.533,34.2606 189.699,34.5939 188,35.5C 187.812,33.9387 188.645,33.272 190.5,33.5C 190.007,31.1944 189.674,28.861 189.5,26.5C 187.5,26.5 185.5,26.5 183.5,26.5C 183.657,25.1266 183.49,23.7932 183,22.5C 181.044,22.7845 178.877,22.7845 176.5,22.5C 176.66,20.8008 176.494,19.1341 176,17.5C 174.299,19.4101 172.133,20.5768 169.5,21C 169.359,24.0263 169.859,27.1929 171,30.5C 173.055,31.672 173.722,33.3386 173,35.5C 171.701,35.0338 170.201,35.0338 168.5,35.5C 168.396,40.9421 169.896,41.6088 173,37.5C 173.21,40.2686 172.377,42.7686 170.5,45C 171.308,45.3076 171.975,45.8076 172.5,46.5C 171.397,46.9976 170.397,47.3309 169.5,47.5C 170.5,48.5 171.5,49.5 172.5,50.5C 173.48,47.9135 173.813,45.2469 173.5,42.5C 175.144,42.7135 176.644,42.3802 178,41.5C 178.617,42.4491 178.451,43.2825 177.5,44C 178.793,44.49 180.127,44.6567 181.5,44.5C 181.5,45.5 181.5,46.5 181.5,47.5C 180.167,47.5 178.833,47.5 177.5,47.5C 177.5,50.1667 177.5,52.8333 177.5,55.5C 176.167,55.5 174.833,55.5 173.5,55.5C 173.367,58.8957 172.367,59.2291 170.5,56.5C 169.614,57.325 169.281,58.325 169.5,59.5C 168.167,59.5 166.833,59.5 165.5,59.5C 165.667,44.4963 165.5,29.4963 165,14.5C 162.633,11.0682 159.966,10.7348 157,13.5C 156.667,37.8333 156.333,62.1667 156,86.5C 121.58,85.8757 94.5802,99.5423 75,127.5C 70.4818,134.887 67.6485,142.887 66.5,151.5C 49.83,151.333 33.1633,151.5 16.5,152C 13.0682,154.367 12.7348,157.034 15.5,160C 34.4971,160.5 53.4971,160.667 72.5,160.5C 73.4959,160.586 74.3292,160.252 75,159.5C 75.9203,156.899 76.587,154.232 77,151.5C 78.0113,150.663 79.1779,150.33 80.5,150.5C 80.5,152.167 80.5,153.833 80.5,155.5C 83.5235,155.517 86.1901,156.517 88.5,158.5C 84.625,159.486 84.625,160.653 88.5,162C 87.6433,162.689 86.9767,163.522 86.5,164.5C 87.3094,166.071 87.6427,167.738 87.5,169.5C 87.5,170.833 87.5,172.167 87.5,173.5C 86.0566,182.196 86.3899,190.863 88.5,199.5C 88.5,201.167 88.5,202.833 88.5,204.5C 86.8008,204.34 85.1341,204.506 83.5,205C 86.3081,207.214 85.9748,208.714 82.5,209.5C 63.538,209.321 44.538,209.321 25.5,209.5C 25.4568,205.107 25.9568,204.774 27,208.5C 27.4935,206.866 27.6602,205.199 27.5,203.5C 25.8762,203.36 24.7096,204.027 24,205.5C 23.6667,203.167 23.3333,200.833 23,198.5C 20.0261,202.658 18.8595,202.324 19.5,197.5C 19.1543,196.304 18.6543,196.304 18,197.5C 17.5,196.5 17,195.5 16.5,194.5C 18.7675,191.788 21.9342,189.455 26,187.5C 27.9326,190.385 30.4326,191.052 33.5,189.5C 34.4847,187.902 34.6514,186.235 34,184.5C 33.5488,186.929 32.7155,187.096 31.5,185C 33.0163,183.103 33.683,180.936 33.5,178.5C 31.4727,178.338 29.4727,178.505 27.5,179C 31.9936,181.333 32.1602,183.5 28,185.5C 25.3135,184.287 22.4802,183.62 19.5,183.5C 19.5086,181.692 19.0086,180.025 18,178.5C 17.51,179.793 17.3433,181.127 17.5,182.5C 15.5165,182.617 13.8498,181.95 12.5,180.5C 11.5,181.167 10.5,181.833 9.5,182.5C 9.88789,180.641 9.88789,178.641 9.5,176.5C 12.0811,174.829 11.7477,174.329 8.5,175C 8.0698,175.92 7.73647,176.753 7.5,177.5C 6.71317,176.758 6.04651,175.925 5.5,175C 7.00744,174.163 7.50744,172.996 7,171.5C 6.66667,171.833 6.33333,172.167 6,172.5C 4.17333,171.341 2.50666,170.008 1,168.5C 0.617425,169.056 0.117425,169.389 -0.5,169.5C -0.5,137.5 -0.5,105.5 -0.5,73.5C 0.915003,72.7106 2.415,72.0439 4,71.5C 5.52574,73.3502 7.35907,74.8502 9.5,76C 8.95349,76.9246 8.28683,77.7579 7.5,78.5C 6.08601,77.376 4.58601,76.376 3,75.5C 4.50943,77.7305 5.34276,80.3972 5.5,83.5C 8.37401,82.1562 11.374,80.9895 14.5,80C 17.2796,77.8909 17.1129,76.0575 14,74.5C 11.8707,75.8627 11.3707,75.5294 12.5,73.5C 7.37263,70.6994 8.0393,69.1994 14.5,69C 13.2164,67.7025 13.3831,66.5358 15,65.5C 20.2218,66.3139 25.2218,66.3139 30,65.5C 29.6888,64.0654 29.8555,62.7321 30.5,61.5C 28.2338,60.6858 25.9005,60.1858 23.5,60C 24.6399,58.0266 25.9733,56.1933 27.5,54.5C 28.9705,55.3805 29.8038,56.7139 30,58.5C 30.414,58.0426 30.914,57.7093 31.5,57.5C 32.624,58.914 33.624,60.414 34.5,62C 35.448,62.4828 36.448,62.6495 37.5,62.5C 37.5614,64.5922 38.5614,66.0922 40.5,67C 39.2889,68.1131 39.2889,69.2798 40.5,70.5C 39.132,71.5937 37.9653,71.2603 37,69.5C 34.003,72.0397 34.003,74.373 37,76.5C 38.7261,75.4238 40.5594,75.2571 42.5,76C 40.6992,76.3173 40.3659,76.984 41.5,78C 38.7245,81.3914 37.5578,85.2247 38,89.5C 39.1178,87.2346 39.9512,84.9013 40.5,82.5C 43.4715,82.5646 46.1382,81.7313 48.5,80C 47.2412,79.0766 45.9079,78.2432 44.5,77.5C 46.3649,76.3338 48.0316,76.6671 49.5,78.5C 49.3878,76.8312 50.3878,75.4978 52.5,74.5C 54.9253,75.8996 54.5919,77.0662 51.5,78C 52.1258,78.7504 52.6258,79.5838 53,80.5C 55.3728,78.1499 57.8728,77.9833 60.5,80C 57.9858,85.2576 53.9858,87.2576 48.5,86C 48.3238,87.6916 47.8238,89.1916 47,90.5C 45.2739,89.4238 43.4406,89.2571 41.5,90C 40.5494,90.7175 40.3828,91.5509 41,92.5C 42.7216,92.9615 44.555,93.1282 46.5,93C 48.6112,94.7347 50.6112,96.568 52.5,98.5C 54.4879,97.7112 54.8213,96.5445 53.5,95C 55.5127,94.1247 55.5127,92.7913 53.5,91C 55.641,91.0858 57.9743,90.9191 60.5,90.5C 60.3505,89.448 60.5172,88.448 61,87.5C 61.6449,88.646 62.4783,89.646 63.5,90.5C 63.6054,93.1177 63.4388,95.7844 63,98.5C 63.7504,97.8742 64.5838,97.3742 65.5,97C 66.8331,95.1598 66.6665,94.6598 65,95.5C 64.3333,94.1667 64.3333,92.8333 65,91.5C 65.3333,92.1667 65.6667,92.8333 66,93.5C 66.8333,92 68,90.8333 69.5,90C 68.8333,89.6667 68.1667,89.3333 67.5,89C 69.3008,88.6827 69.6341,88.016 68.5,87C 69.3301,85.2533 70.3301,83.5866 71.5,82C 69.7659,80.2163 67.7659,78.7163 65.5,77.5C 66.8903,75.7971 68.3903,75.1304 70,75.5C 70.6172,74.5509 70.4506,73.7175 69.5,73C 68.0563,72.2195 66.723,72.3861 65.5,73.5C 64.2094,74.8248 62.8761,76.1581 61.5,77.5C 60.914,77.2907 60.414,76.9574 60,76.5C 59.6676,73.3097 61.1676,71.3097 64.5,70.5C 63.8333,69.8333 63.1667,69.1667 62.5,68.5C 62.8333,68.1667 63.1667,67.8333 63.5,67.5C 64.8333,68.5 66.1667,69.5 67.5,70.5C 69.3556,66.9221 71.3556,66.7555 73.5,70C 72.0439,70.4226 71.5439,71.2559 72,72.5C 73.1475,71.5419 74.1475,71.8753 75,73.5C 75.3333,71.1667 75.6667,68.8333 76,66.5C 76.414,66.9574 76.914,67.2907 77.5,67.5C 78.2164,66.689 79.0497,66.0223 80,65.5C 81.4162,66.5733 82.7496,66.5733 84,65.5C 85.3159,68.028 86.4826,68.028 87.5,65.5C 86.3595,64.5745 86.3595,63.7412 87.5,63C 84.8333,62.3333 84.8333,61.6667 87.5,61C 85.9833,58.2256 84.3166,55.5589 82.5,53C 83,52.5 83.5,52 84,51.5C 85.7146,53.7594 87.5479,55.9261 89.5,58C 90.4491,58.6172 91.2825,58.4506 92,57.5C 93.3159,60.028 94.4826,60.028 95.5,57.5C 92.8333,56.1667 92.8333,54.8333 95.5,53.5C 93.6351,52.3338 91.9684,52.6671 90.5,54.5C 90.1667,54 89.8333,53.5 89.5,53C 91.525,50.5658 94.025,48.7324 97,47.5C 97.4828,48.448 97.6495,49.448 97.5,50.5C 100.745,50.7066 102.745,49.2066 103.5,46C 101.283,44.7246 98.9494,43.7246 96.5,43C 97.8333,42.3333 97.8333,41.6667 96.5,41C 98.5847,40.4712 100.418,40.9712 102,42.5C 103.091,40.6542 104.424,39.9875 106,40.5C 106.953,43.4318 107.453,46.4318 107.5,49.5C 109.144,49.2865 110.644,49.6198 112,50.5C 112.651,48.765 112.485,47.0983 111.5,45.5C 113.27,44.1804 113.603,42.6804 112.5,41C 112.725,38.6808 114.058,36.6808 116.5,35C 115.833,34.6667 115.167,34.3333 114.5,34C 116.842,32.2719 119.175,30.6052 121.5,29C 118.986,26.9429 117.653,24.6095 117.5,22C 121.251,21.2386 121.417,20.0719 118,18.5C 114.954,19.9653 112.121,21.7987 109.5,24C 109.833,24.3333 110.167,24.6667 110.5,25C 108.963,26.1096 108.297,27.6096 108.5,29.5C 109.873,29.6567 111.207,29.49 112.5,29C 112.057,27.4815 112.724,26.3148 114.5,25.5C 115.5,25.8333 116.167,26.5 116.5,27.5C 115.038,32.1686 112.038,34.002 107.5,33C 105.875,33.8525 105.542,34.8525 106.5,36C 103.298,38.0794 100.965,37.2461 99.5,33.5C 102.208,30.835 101.541,29.5017 97.5,29.5C 98.0768,26.4503 96.9101,24.4503 94,23.5C 93.1146,21 91.9479,18.6667 90.5,16.5C 92.307,14.5021 93.9736,12.5021 95.5,10.5C 94.7598,8.10631 93.0932,6.60631 90.5,6C 91.1689,3.7377 91.5023,1.57104 91.5,-0.5 Z"/></g>
<g><path style="opacity:1" fill="#254b4c" d="M 197.5,-0.5 C 226.833,-0.5 256.167,-0.5 285.5,-0.5C 285.423,0.749754 284.756,1.58309 283.5,2C 284.337,3.01127 284.67,4.17793 284.5,5.5C 285.873,5.34332 287.207,5.50999 288.5,6C 284.394,5.93646 280.727,7.10313 277.5,9.5C 276.199,8.52213 275.032,8.85546 274,10.5C 271.186,9.31376 270.353,10.1471 271.5,13C 275.832,13.5833 280.165,14.0833 284.5,14.5C 284.649,15.552 284.483,16.552 284,17.5C 278.794,18.6363 278.461,20.3029 283,22.5C 284.261,22.2409 285.261,21.5742 286,20.5C 286.984,22.7947 287.817,22.4614 288.5,19.5C 286.96,18.4679 286.46,17.1346 287,15.5C 289.655,17.0529 292.488,18.2196 295.5,19C 294.112,19.8893 294.278,20.3893 296,20.5C 297.653,20.1802 298.653,19.1802 299,17.5C 299.561,18.0219 300.228,18.3552 301,18.5C 302.587,17.3301 304.253,16.3301 306,15.5C 306.5,16 307,16.5 307.5,17C 309.791,17.0154 311.958,17.1821 314,17.5C 314.483,16.552 314.649,15.552 314.5,14.5C 319.557,15.1237 320.224,16.7904 316.5,19.5C 318.138,20.9584 319.805,21.2917 321.5,20.5C 322.197,22.3845 323.197,22.7178 324.5,21.5C 325.845,24.7442 328.012,25.7442 331,24.5C 331.465,25.9308 332.299,27.0975 333.5,28C 332.833,28.3333 332.167,28.6667 331.5,29C 332.966,29.6355 334.3,30.4688 335.5,31.5C 336.965,30.3913 337.965,30.8913 338.5,33C 340.167,33.8333 341.833,34.6667 343.5,35.5C 345.851,32.8479 348.018,29.5146 350,25.5C 348.935,29.93 348.435,34.43 348.5,39C 348.905,39.9454 349.572,40.6121 350.5,41C 348.954,42.4396 348.121,44.2729 348,46.5C 347.667,46.8333 347.333,47.1667 347,47.5C 346.311,46.6433 345.478,45.9767 344.5,45.5C 343.167,46.8333 341.833,46.8333 340.5,45.5C 340.167,46.5 339.833,47.5 339.5,48.5C 339.766,50.6597 340.766,52.3264 342.5,53.5C 341.5,54.3333 340.5,55.1667 339.5,56C 341.074,56.3357 342.408,57.1691 343.5,58.5C 346.122,54.875 349.122,51.5417 352.5,48.5C 355.083,49.9377 357.417,49.6044 359.5,47.5C 360.681,49.1353 360.681,50.802 359.5,52.5C 360.242,53.2868 361.075,53.9535 362,54.5C 363.158,52.5091 364.658,50.8424 366.5,49.5C 365.5,48.8333 364.5,48.1667 363.5,47.5C 365.195,45.2068 365.862,42.8734 365.5,40.5C 368.515,43.6828 371.682,46.6828 375,49.5C 375.692,48.9747 376.192,48.3081 376.5,47.5C 374.947,46.561 373.613,45.3943 372.5,44C 372.952,41.5196 374.119,41.0196 376,42.5C 377.555,41.1525 379.389,40.4858 381.5,40.5C 384.275,41.9228 387.275,42.5895 390.5,42.5C 390.215,40.712 390.548,39.0453 391.5,37.5C 392.852,36.4825 393.852,35.1492 394.5,33.5C 396.453,34.0244 398.12,35.0244 399.5,36.5C 404.689,35.0384 404.689,33.5384 399.5,32C 402.926,30.7619 404.592,31.9286 404.5,35.5C 405.833,35.5 407.167,35.5 408.5,35.5C 408.671,38.7973 408.005,39.1306 406.5,36.5C 405.914,36.7093 405.414,37.0426 405,37.5C 405.066,40.578 404.899,43.578 404.5,46.5C 401.506,48.6617 399.006,51.3283 397,54.5C 396.693,51.1238 394.86,49.7904 391.5,50.5C 391.719,49.325 391.386,48.325 390.5,47.5C 388.207,48.2357 385.874,48.4024 383.5,48C 381.579,49.2408 381.246,50.7408 382.5,52.5C 383.5,51.1667 384.5,51.1667 385.5,52.5C 385.911,51.7376 386.077,50.7376 386,49.5C 388.303,50.7439 388.803,52.4106 387.5,54.5C 383.172,56.3304 378.838,58.1637 374.5,60C 375.696,60.6543 375.696,61.1543 374.5,61.5C 373.614,60.675 373.281,59.675 373.5,58.5C 377.157,58.026 377.324,56.6926 374,54.5C 372.989,55.3366 371.822,55.67 370.5,55.5C 370.888,58.8788 371.555,62.2121 372.5,65.5C 373.192,64.9747 373.692,64.3081 374,63.5C 374.374,64.4162 374.874,65.2496 375.5,66C 370.238,66.2192 365.405,67.7192 361,70.5C 358.189,69.3066 357.189,70.3066 358,73.5C 361.891,73.7969 365.891,73.7969 370,73.5C 370.75,74.1258 371.584,74.6258 372.5,75C 370.655,76.5645 368.655,77.7312 366.5,78.5C 366.083,77.8761 365.416,77.5427 364.5,77.5C 362.952,79.3764 360.952,80.3764 358.5,80.5C 358.443,75.8011 356.776,75.3011 353.5,79C 354.449,79.6172 355.282,79.4506 356,78.5C 355.628,80.92 354.295,82.92 352,84.5C 351.667,84.1667 351.333,83.8333 351,83.5C 350.727,85.1012 350.227,86.6012 349.5,88C 345.514,88.0863 345.514,89.4197 349.5,92C 346.498,92.2286 345.165,90.7286 345.5,87.5C 343.692,87.5086 342.025,87.0086 340.5,86C 341.308,85.6924 341.975,85.1924 342.5,84.5C 341.311,83.5713 339.978,83.238 338.5,83.5C 338.5,84.8333 338.5,86.1667 338.5,87.5C 337.448,87.3505 336.448,87.5172 335.5,88C 336.305,89.9717 337.639,91.4717 339.5,92.5C 338.625,94.7725 336.958,95.7725 334.5,95.5C 334.5,96.8333 334.5,98.1667 334.5,99.5C 331.824,100.008 329.157,100.175 326.5,100C 327.308,99.6924 327.975,99.1924 328.5,98.5C 327.137,97.1072 326.304,95.4405 326,93.5C 324.517,95.9458 323.351,95.6124 322.5,92.5C 319.833,91.8333 317.167,91.1667 314.5,90.5C 316.4,89.9342 317.733,88.2675 318.5,85.5C 318.167,84.8333 317.833,84.1667 317.5,83.5C 316.749,84.376 316.249,85.376 316,86.5C 315.843,84.0049 315.676,81.6716 315.5,79.5C 313.929,80.3094 312.262,80.6427 310.5,80.5C 308.116,86.3041 309.449,90.9708 314.5,94.5C 313.311,95.4287 311.978,95.762 310.5,95.5C 310.5,96.8333 310.5,98.1667 310.5,99.5C 313.082,99.0254 315.082,99.6921 316.5,101.5C 317.824,104.147 317.824,106.814 316.5,109.5C 317.547,111.056 318.214,112.723 318.5,114.5C 316.453,114.511 314.453,114.844 312.5,115.5C 310.063,114.259 307.563,113.259 305,112.5C 303.2,114.145 301.2,115.478 299,116.5C 297.086,115.324 297.252,114.324 299.5,113.5C 299.137,112.817 298.804,112.15 298.5,111.5C 301.675,102.141 305.342,92.9745 309.5,84C 306.81,82.1256 305.143,82.9589 304.5,86.5C 302.623,86.9003 301.123,87.9003 300,89.5C 294.203,88.4152 293.369,89.9152 297.5,94C 295.731,95.0641 294.064,96.2308 292.5,97.5C 291.833,97.1667 291.167,96.8333 290.5,96.5C 291.921,92.9722 292.588,89.3055 292.5,85.5C 295.346,85.4484 297.68,84.4484 299.5,82.5C 301.532,81.9522 302.532,80.6188 302.5,78.5C 287.976,82.2303 273.643,86.5636 259.5,91.5C 258.833,91.1667 258.167,90.8333 257.5,90.5C 258.011,87.3073 258.678,84.1406 259.5,81C 259.646,78.9658 258.98,77.2991 257.5,76C 251.032,72.9226 246.032,74.4226 242.5,80.5C 241.768,81.8083 240.934,83.1416 240,84.5C 239.617,83.944 239.117,83.6107 238.5,83.5C 236.345,83.372 234.345,83.872 232.5,85C 199.981,109.087 167.315,132.92 134.5,156.5C 132.856,156.286 131.356,156.62 130,157.5C 127.771,154.844 125.938,155.177 124.5,158.5C 125.714,160.069 127.381,160.902 129.5,161C 130.833,161.667 130.833,162.333 129.5,163C 130.449,163.617 131.282,163.451 132,162.5C 133.092,165.044 133.759,167.711 134,170.5C 134.98,171.981 136.147,173.315 137.5,174.5C 134.702,174.553 132.202,175.22 130,176.5C 129.546,178.536 128.713,180.37 127.5,182C 129.003,183.921 129.669,186.088 129.5,188.5C 128.022,188.762 126.689,188.429 125.5,187.5C 125.709,186.914 126.043,186.414 126.5,186C 126.072,183.371 125.072,181.038 123.5,179C 124.412,177.375 123.745,176.541 121.5,176.5C 118.899,170.938 114.566,169.104 108.5,171C 103.633,174.039 102.299,178.206 104.5,183.5C 104.343,184.873 104.51,186.207 105,187.5C 106.609,188.147 108.109,188.98 109.5,190C 108.549,190.718 108.383,191.551 109,192.5C 110.049,191.483 111.216,191.316 112.5,192C 113.09,193.509 113.756,195.009 114.5,196.5C 118.261,197.09 122.261,196.424 126.5,194.5C 128.499,192.507 129.999,190.173 131,187.5C 133.023,189.769 133.856,192.436 133.5,195.5C 139.215,195.785 141.882,193.118 141.5,187.5C 144.767,187.424 146.101,188.757 145.5,191.5C 148.086,192.48 150.753,192.813 153.5,192.5C 153.5,194.833 153.5,197.167 153.5,199.5C 156.766,199.433 158.266,201.099 158,204.5C 158.333,202.833 158.667,201.167 159,199.5C 159.333,199.833 159.667,200.167 160,200.5C 159.723,203.131 159.89,205.631 160.5,208C 160,208.5 159.5,209 159,209.5C 157.333,207.833 155.667,206.167 154,204.5C 153.691,205.766 153.191,206.933 152.5,208C 150.154,207.208 147.821,207.375 145.5,208.5C 145.5,209.833 145.5,211.167 145.5,212.5C 144.167,212.5 142.833,212.5 141.5,212.5C 141.634,214.292 141.301,215.958 140.5,217.5C 125.129,221.101 111.963,217.101 101,205.5C 95.8678,197.972 93.7011,189.639 94.5,180.5C 95.4915,175.95 96.4915,171.283 97.5,166.5C 102.301,155.746 108.968,146.246 117.5,138C 125.778,131.611 134.612,126.111 144,121.5C 144.588,118.412 143.255,116.745 140,116.5C 120.845,123.643 105.845,135.977 95,153.5C 92.6028,157.624 90.7694,161.957 89.5,166.5C 88.8333,167.5 88.1667,168.5 87.5,169.5C 87.6427,167.738 87.3094,166.071 86.5,164.5C 86.9767,163.522 87.6433,162.689 88.5,162C 84.625,160.653 84.625,159.486 88.5,158.5C 86.1901,156.517 83.5235,155.517 80.5,155.5C 80.5,153.833 80.5,152.167 80.5,150.5C 79.1779,150.33 78.0113,150.663 77,151.5C 76.587,154.232 75.9203,156.899 75,159.5C 74.3292,160.252 73.4959,160.586 72.5,160.5C 78.7423,127.809 98.0757,106.975 130.5,98C 141.411,96.1621 152.411,95.1621 163.5,95C 164,94.5 164.5,94 165,93.5C 165.5,82.1716 165.667,70.8382 165.5,59.5C 166.833,59.5 168.167,59.5 169.5,59.5C 169.281,58.325 169.614,57.325 170.5,56.5C 172.367,59.2291 173.367,58.8957 173.5,55.5C 174.833,55.5 176.167,55.5 177.5,55.5C 177.5,52.8333 177.5,50.1667 177.5,47.5C 178.833,47.5 180.167,47.5 181.5,47.5C 181.5,46.5 181.5,45.5 181.5,44.5C 180.127,44.6567 178.793,44.49 177.5,44C 178.451,43.2825 178.617,42.4491 178,41.5C 176.644,42.3802 175.144,42.7135 173.5,42.5C 173.813,45.2469 173.48,47.9135 172.5,50.5C 171.5,49.5 170.5,48.5 169.5,47.5C 170.397,47.3309 171.397,46.9976 172.5,46.5C 171.975,45.8076 171.308,45.3076 170.5,45C 172.377,42.7686 173.21,40.2686 173,37.5C 169.896,41.6088 168.396,40.9421 168.5,35.5C 170.201,35.0338 171.701,35.0338 173,35.5C 173.722,33.3386 173.055,31.672 171,30.5C 169.859,27.1929 169.359,24.0263 169.5,21C 172.133,20.5768 174.299,19.4101 176,17.5C 176.494,19.1341 176.66,20.8008 176.5,22.5C 178.877,22.7845 181.044,22.7845 183,22.5C 183.49,23.7932 183.657,25.1266 183.5,26.5C 185.5,26.5 187.5,26.5 189.5,26.5C 189.674,28.861 190.007,31.1944 190.5,33.5C 188.645,33.272 187.812,33.9387 188,35.5C 189.699,34.5939 191.533,34.2606 193.5,34.5C 193.5,37.1667 193.5,39.8333 193.5,42.5C 192.167,42.5 190.833,42.5 189.5,42.5C 189.5,44.1667 189.5,45.8333 189.5,47.5C 190.833,47.5 192.167,47.5 193.5,47.5C 193.5,46.1667 193.5,44.8333 193.5,43.5C 194.833,43.5 196.167,43.5 197.5,43.5C 197.336,46.1873 197.503,48.854 198,51.5C 198.718,50.5494 199.551,50.3828 200.5,51C 199.843,52.6948 199.843,54.5281 200.5,56.5C 199.216,57.6925 198.216,59.6925 197.5,62.5C 196.167,62.5 194.833,62.5 193.5,62.5C 193.261,64.4672 193.594,66.3005 194.5,68C 193.833,68.3333 193.167,68.6667 192.5,69C 194.194,70.7277 195.361,70.2277 196,67.5C 196.692,68.0253 197.192,68.6919 197.5,69.5C 198.089,71.3733 197.422,73.04 195.5,74.5C 198.501,75.1548 201.834,75.4882 205.5,75.5C 205.5,74.1667 205.5,72.8333 205.5,71.5C 203.897,71.6882 202.563,71.1882 201.5,70C 203.2,67.2586 204.534,64.2586 205.5,61C 203.901,58.5875 202.568,56.0875 201.5,53.5C 205.37,52.201 209.37,51.5343 213.5,51.5C 212.964,48.4453 212.131,45.4453 211,42.5C 210.174,50.4728 209.674,50.4728 209.5,42.5C 208.167,42.5 206.833,42.5 205.5,42.5C 205.753,44.8273 205.086,46.8273 203.5,48.5C 201.859,45.4417 201.026,42.1083 201,38.5C 200.29,39.9733 199.124,40.6399 197.5,40.5C 197.5,38.8333 197.5,37.1667 197.5,35.5C 198.833,35.5 200.167,35.5 201.5,35.5C 201.5,30.8333 201.5,26.1667 201.5,21.5C 202.978,21.762 204.311,21.4287 205.5,20.5C 204.833,20.1667 204.167,19.8333 203.5,19.5C 200.725,20.9721 198.059,20.8054 195.5,19C 197.473,18.5045 199.473,18.3379 201.5,18.5C 201.5,17.1667 201.5,15.8333 201.5,14.5C 198.482,14.6646 195.482,14.498 192.5,14C 193.227,12.6012 193.727,11.1012 194,9.5C 194.333,9.83333 194.667,10.1667 195,10.5C 195.645,9.354 196.478,8.354 197.5,7.5C 196.484,4.86628 196.484,2.19962 197.5,-0.5 Z"/></g>
<g><path style="opacity:1" fill="#274d4f" d="M 285.5,-0.5 C 318.833,-0.5 352.167,-0.5 385.5,-0.5C 386.598,0.396953 386.598,1.23029 385.5,2C 387.886,2.28355 388.552,3.28355 387.5,5C 388.623,6.04373 389.956,6.71039 391.5,7C 390.134,8.59982 389.134,10.4332 388.5,12.5C 387.667,11.5 386.833,10.5 386,9.5C 384.285,11.7594 382.452,13.9261 380.5,16C 381.749,17.8241 382.915,17.6574 384,15.5C 386.709,16.8236 387.042,18.4903 385,20.5C 382.327,17.5878 380.16,17.9211 378.5,21.5C 376.403,19.8896 374.07,18.7229 371.5,18C 370.663,16.9887 370.33,15.8221 370.5,14.5C 369.167,14.5 367.833,14.5 366.5,14.5C 366.5,15.5 366.5,16.5 366.5,17.5C 360.814,17.9952 360.314,16.9952 365,14.5C 365.617,13.5509 365.451,12.7175 364.5,12C 360.455,9.35225 357.122,10.0189 354.5,14C 355.167,14.3333 355.833,14.6667 356.5,15C 355.025,17.3092 353.358,19.4759 351.5,21.5C 352.365,22.5827 353.365,22.7494 354.5,22C 353.167,21.3333 353.167,20.6667 354.5,20C 356.556,19.6892 358.556,19.1892 360.5,18.5C 362.756,19.4209 363.756,21.0876 363.5,23.5C 365.5,22.8333 367.5,22.1667 369.5,21.5C 369.354,23.9424 370.187,24.6091 372,23.5C 375.399,27.6519 378.399,27.3185 381,22.5C 382.941,24.3159 383.608,26.3159 383,28.5C 383.739,27.4258 384.739,26.7591 386,26.5C 387.326,27.7989 388.66,29.1322 390,30.5C 390.021,27.2416 388.854,24.4082 386.5,22C 387.787,19.9288 388.953,17.7621 390,15.5C 391.682,16.8646 391.849,18.3646 390.5,20C 392.09,21.0458 393.59,22.2125 395,23.5C 395.518,26.0226 396.852,28.0226 399,29.5C 399.87,28.8921 400.37,28.0588 400.5,27C 399.375,25.0374 398.041,23.204 396.5,21.5C 400.044,20.9921 402.377,22.6588 403.5,26.5C 403.182,27.6473 402.516,28.4806 401.5,29C 403.811,28.8446 406.144,28.8446 408.5,29C 410.018,31.6129 411.851,31.4463 414,28.5C 415.152,30.6487 416.652,32.482 418.5,34C 417.709,36.7499 417.709,39.5832 418.5,42.5C 417.022,42.238 415.689,42.5713 414.5,43.5C 415.471,44.9621 415.138,46.2954 413.5,47.5C 414.989,47.5331 416.322,48.0331 417.5,49C 413.507,52.88 414.34,54.0467 420,52.5C 421.419,53.4601 422.919,54.2935 424.5,55C 420.94,57.3336 417.44,57.5002 414,55.5C 413.365,56.9663 412.531,58.2997 411.5,59.5C 412.689,60.4287 414.022,60.762 415.5,60.5C 415.5,61.5 415.5,62.5 415.5,63.5C 410.912,63.8805 410.578,65.0472 414.5,67C 413.833,67.3333 413.167,67.6667 412.5,68C 413.872,68.4017 415.205,68.9017 416.5,69.5C 417.594,68.132 417.26,66.9653 415.5,66C 416.905,64.7308 418.571,64.2308 420.5,64.5C 420.64,66.1238 419.973,67.2904 418.5,68C 420.049,69.214 421.215,70.714 422,72.5C 423.016,71.3659 423.683,71.6992 424,73.5C 425.101,71.6061 426.434,70.9394 428,71.5C 430.825,72.5842 430.992,73.7508 428.5,75C 429.373,76.045 430.373,76.8783 431.5,77.5C 431.5,79.5 431.5,81.5 431.5,83.5C 429.254,84.2142 426.921,84.0475 424.5,83C 427.333,81.1667 427.167,79.6667 424,78.5C 421.057,80.9006 418.223,83.4006 415.5,86C 414.207,86.49 412.873,86.6567 411.5,86.5C 412.468,83.9561 414.135,81.7895 416.5,80C 415.004,79.4926 413.837,79.9926 413,81.5C 411.284,81.5894 409.451,81.2561 407.5,80.5C 406.522,80.9767 405.689,81.6433 405,82.5C 400.656,81.5419 396.489,79.5419 392.5,76.5C 390.895,77.4303 389.395,77.4303 388,76.5C 386.221,79.2764 385.221,78.9431 385,75.5C 383.414,76.376 381.914,77.376 380.5,78.5C 379.803,76.6155 378.803,76.2822 377.5,77.5C 376.347,74.1441 374.681,74.1441 372.5,77.5C 374.04,78.5321 374.54,79.8654 374,81.5C 371.305,78.8661 369.471,78.8661 368.5,81.5C 367.081,80.9953 366.415,79.9953 366.5,78.5C 368.655,77.7312 370.655,76.5645 372.5,75C 371.584,74.6258 370.75,74.1258 370,73.5C 365.891,73.7969 361.891,73.7969 358,73.5C 357.189,70.3066 358.189,69.3066 361,70.5C 365.405,67.7192 370.238,66.2192 375.5,66C 374.874,65.2496 374.374,64.4162 374,63.5C 373.692,64.3081 373.192,64.9747 372.5,65.5C 371.555,62.2121 370.888,58.8788 370.5,55.5C 371.822,55.67 372.989,55.3366 374,54.5C 377.324,56.6926 377.157,58.026 373.5,58.5C 373.281,59.675 373.614,60.675 374.5,61.5C 375.696,61.1543 375.696,60.6543 374.5,60C 378.838,58.1637 383.172,56.3304 387.5,54.5C 388.803,52.4106 388.303,50.7439 386,49.5C 386.077,50.7376 385.911,51.7376 385.5,52.5C 384.5,51.1667 383.5,51.1667 382.5,52.5C 381.246,50.7408 381.579,49.2408 383.5,48C 385.874,48.4024 388.207,48.2357 390.5,47.5C 391.386,48.325 391.719,49.325 391.5,50.5C 394.86,49.7904 396.693,51.1238 397,54.5C 399.006,51.3283 401.506,48.6617 404.5,46.5C 404.899,43.578 405.066,40.578 405,37.5C 405.414,37.0426 405.914,36.7093 406.5,36.5C 408.005,39.1306 408.671,38.7973 408.5,35.5C 407.167,35.5 405.833,35.5 404.5,35.5C 404.592,31.9286 402.926,30.7619 399.5,32C 404.689,33.5384 404.689,35.0384 399.5,36.5C 398.12,35.0244 396.453,34.0244 394.5,33.5C 393.852,35.1492 392.852,36.4825 391.5,37.5C 390.548,39.0453 390.215,40.712 390.5,42.5C 387.275,42.5895 384.275,41.9228 381.5,40.5C 379.389,40.4858 377.555,41.1525 376,42.5C 374.119,41.0196 372.952,41.5196 372.5,44C 373.613,45.3943 374.947,46.561 376.5,47.5C 376.192,48.3081 375.692,48.9747 375,49.5C 371.682,46.6828 368.515,43.6828 365.5,40.5C 365.862,42.8734 365.195,45.2068 363.5,47.5C 364.5,48.1667 365.5,48.8333 366.5,49.5C 364.658,50.8424 363.158,52.5091 362,54.5C 361.075,53.9535 360.242,53.2868 359.5,52.5C 360.681,50.802 360.681,49.1353 359.5,47.5C 357.417,49.6044 355.083,49.9377 352.5,48.5C 349.122,51.5417 346.122,54.875 343.5,58.5C 342.408,57.1691 341.074,56.3357 339.5,56C 340.5,55.1667 341.5,54.3333 342.5,53.5C 340.766,52.3264 339.766,50.6597 339.5,48.5C 339.833,47.5 340.167,46.5 340.5,45.5C 341.833,46.8333 343.167,46.8333 344.5,45.5C 345.478,45.9767 346.311,46.6433 347,47.5C 347.333,47.1667 347.667,46.8333 348,46.5C 348.121,44.2729 348.954,42.4396 350.5,41C 349.572,40.6121 348.905,39.9454 348.5,39C 348.435,34.43 348.935,29.93 350,25.5C 348.018,29.5146 345.851,32.8479 343.5,35.5C 341.833,34.6667 340.167,33.8333 338.5,33C 337.965,30.8913 336.965,30.3913 335.5,31.5C 334.3,30.4688 332.966,29.6355 331.5,29C 332.167,28.6667 332.833,28.3333 333.5,28C 332.299,27.0975 331.465,25.9308 331,24.5C 328.012,25.7442 325.845,24.7442 324.5,21.5C 323.197,22.7178 322.197,22.3845 321.5,20.5C 319.805,21.2917 318.138,20.9584 316.5,19.5C 320.224,16.7904 319.557,15.1237 314.5,14.5C 314.649,15.552 314.483,16.552 314,17.5C 311.958,17.1821 309.791,17.0154 307.5,17C 307,16.5 306.5,16 306,15.5C 304.253,16.3301 302.587,17.3301 301,18.5C 300.228,18.3552 299.561,18.0219 299,17.5C 298.653,19.1802 297.653,20.1802 296,20.5C 294.278,20.3893 294.112,19.8893 295.5,19C 292.488,18.2196 289.655,17.0529 287,15.5C 286.46,17.1346 286.96,18.4679 288.5,19.5C 287.817,22.4614 286.984,22.7947 286,20.5C 285.261,21.5742 284.261,22.2409 283,22.5C 278.461,20.3029 278.794,18.6363 284,17.5C 284.483,16.552 284.649,15.552 284.5,14.5C 280.165,14.0833 275.832,13.5833 271.5,13C 270.353,10.1471 271.186,9.31376 274,10.5C 275.032,8.85546 276.199,8.52213 277.5,9.5C 280.727,7.10313 284.394,5.93646 288.5,6C 287.207,5.50999 285.873,5.34332 284.5,5.5C 284.67,4.17793 284.337,3.01127 283.5,2C 284.756,1.58309 285.423,0.749754 285.5,-0.5 Z"/></g>
<g><path style="opacity:1" fill="#b3a14c" d="M 165.5,59.5 C 165.667,70.8382 165.5,82.1716 165,93.5C 164.5,94 164,94.5 163.5,95C 152.411,95.1621 141.411,96.1621 130.5,98C 98.0757,106.975 78.7423,127.809 72.5,160.5C 53.4971,160.667 34.4971,160.5 15.5,160C 12.7348,157.034 13.0682,154.367 16.5,152C 33.1633,151.5 49.83,151.333 66.5,151.5C 67.6485,142.887 70.4818,134.887 75,127.5C 94.5802,99.5423 121.58,85.8757 156,86.5C 156.333,62.1667 156.667,37.8333 157,13.5C 159.966,10.7348 162.633,11.0682 165,14.5C 165.5,29.4963 165.667,44.4963 165.5,59.5 Z"/></g>
<g><path style="opacity:1" fill="#2b5052" d="M 385.5,-0.5 C 400.833,-0.5 416.167,-0.5 431.5,-0.5C 431.5,25.5 431.5,51.5 431.5,77.5C 430.373,76.8783 429.373,76.045 428.5,75C 430.992,73.7508 430.825,72.5842 428,71.5C 426.434,70.9394 425.101,71.6061 424,73.5C 423.683,71.6992 423.016,71.3659 422,72.5C 421.215,70.714 420.049,69.214 418.5,68C 419.973,67.2904 420.64,66.1238 420.5,64.5C 418.571,64.2308 416.905,64.7308 415.5,66C 417.26,66.9653 417.594,68.132 416.5,69.5C 415.205,68.9017 413.872,68.4017 412.5,68C 413.167,67.6667 413.833,67.3333 414.5,67C 410.578,65.0472 410.912,63.8805 415.5,63.5C 415.5,62.5 415.5,61.5 415.5,60.5C 414.022,60.762 412.689,60.4287 411.5,59.5C 412.531,58.2997 413.365,56.9663 414,55.5C 417.44,57.5002 420.94,57.3336 424.5,55C 422.919,54.2935 421.419,53.4601 420,52.5C 414.34,54.0467 413.507,52.88 417.5,49C 416.322,48.0331 414.989,47.5331 413.5,47.5C 415.138,46.2954 415.471,44.9621 414.5,43.5C 415.689,42.5713 417.022,42.238 418.5,42.5C 417.709,39.5832 417.709,36.7499 418.5,34C 416.652,32.482 415.152,30.6487 414,28.5C 411.851,31.4463 410.018,31.6129 408.5,29C 406.144,28.8446 403.811,28.8446 401.5,29C 402.516,28.4806 403.182,27.6473 403.5,26.5C 402.377,22.6588 400.044,20.9921 396.5,21.5C 398.041,23.204 399.375,25.0374 400.5,27C 400.37,28.0588 399.87,28.8921 399,29.5C 396.852,28.0226 395.518,26.0226 395,23.5C 393.59,22.2125 392.09,21.0458 390.5,20C 391.849,18.3646 391.682,16.8646 390,15.5C 388.953,17.7621 387.787,19.9288 386.5,22C 388.854,24.4082 390.021,27.2416 390,30.5C 388.66,29.1322 387.326,27.7989 386,26.5C 384.739,26.7591 383.739,27.4258 383,28.5C 383.608,26.3159 382.941,24.3159 381,22.5C 378.399,27.3185 375.399,27.6519 372,23.5C 370.187,24.6091 369.354,23.9424 369.5,21.5C 367.5,22.1667 365.5,22.8333 363.5,23.5C 363.756,21.0876 362.756,19.4209 360.5,18.5C 358.556,19.1892 356.556,19.6892 354.5,20C 353.167,20.6667 353.167,21.3333 354.5,22C 353.365,22.7494 352.365,22.5827 351.5,21.5C 353.358,19.4759 355.025,17.3092 356.5,15C 355.833,14.6667 355.167,14.3333 354.5,14C 357.122,10.0189 360.455,9.35225 364.5,12C 365.451,12.7175 365.617,13.5509 365,14.5C 360.314,16.9952 360.814,17.9952 366.5,17.5C 366.5,16.5 366.5,15.5 366.5,14.5C 367.833,14.5 369.167,14.5 370.5,14.5C 370.33,15.8221 370.663,16.9887 371.5,18C 374.07,18.7229 376.403,19.8896 378.5,21.5C 380.16,17.9211 382.327,17.5878 385,20.5C 387.042,18.4903 386.709,16.8236 384,15.5C 382.915,17.6574 381.749,17.8241 380.5,16C 382.452,13.9261 384.285,11.7594 386,9.5C 386.833,10.5 387.667,11.5 388.5,12.5C 389.134,10.4332 390.134,8.59982 391.5,7C 389.956,6.71039 388.623,6.04373 387.5,5C 388.552,3.28355 387.886,2.28355 385.5,2C 386.598,1.23029 386.598,0.396953 385.5,-0.5 Z"/></g>
<g><path style="opacity:1" fill="#b2a04c" d="M 298.5,58.5 C 302.839,57.8461 306.673,58.8461 310,61.5C 309.274,67.3896 308.774,73.223 308.5,79C 306.033,78.3198 303.7,76.9864 301.5,75C 294.661,74.1791 292.161,70.3458 294,63.5C 295.707,61.9625 297.207,60.2959 298.5,58.5 Z"/></g>
<g><path style="opacity:1" fill="#38564b" d="M 300.5,64.5 C 301.978,64.238 303.311,64.5713 304.5,65.5C 303.68,67.1112 302.346,67.7778 300.5,67.5C 300.5,66.5 300.5,65.5 300.5,64.5 Z"/></g>
<g><path style="opacity:1" fill="#b1a04c" d="M 257.5,90.5 C 257.785,92.288 257.452,93.9547 256.5,95.5C 254.684,94.1851 253.017,92.6851 251.5,91C 245.068,90.4038 242.068,86.9038 242.5,80.5C 246.032,74.4226 251.032,72.9226 257.5,76C 258.98,77.2991 259.646,78.9658 259.5,81C 258.678,84.1406 258.011,87.3073 257.5,90.5 Z"/></g>
<g><path style="opacity:1" fill="#3a574b" d="M 249.5,80.5 C 250.833,80.5 252.167,80.5 253.5,80.5C 253.5,81.5 253.5,82.5 253.5,83.5C 252.167,83.5 250.833,83.5 249.5,83.5C 249.5,82.5 249.5,81.5 249.5,80.5 Z"/></g>
<g><path style="opacity:1" fill="#a99b4c" d="M 299.5,82.5 C 286.808,86.3733 274.141,90.3733 261.5,94.5C 260.081,93.9953 259.415,92.9953 259.5,91.5C 273.643,86.5636 287.976,82.2303 302.5,78.5C 302.532,80.6188 301.532,81.9522 299.5,82.5 Z"/></g>
<g><path style="opacity:1" fill="#274c4c" d="M 242.5,80.5 C 242.068,86.9038 245.068,90.4038 251.5,91C 253.017,92.6851 254.684,94.1851 256.5,95.5C 257.452,93.9547 257.785,92.288 257.5,90.5C 258.167,90.8333 258.833,91.1667 259.5,91.5C 259.415,92.9953 260.081,93.9953 261.5,94.5C 274.141,90.3733 286.808,86.3733 299.5,82.5C 297.68,84.4484 295.346,85.4484 292.5,85.5C 292.588,89.3055 291.921,92.9722 290.5,96.5C 291.167,96.8333 291.833,97.1667 292.5,97.5C 294.064,96.2308 295.731,95.0641 297.5,94C 293.369,89.9152 294.203,88.4152 300,89.5C 301.123,87.9003 302.623,86.9003 304.5,86.5C 299.515,98.4742 294.515,110.474 289.5,122.5C 290.289,124.488 291.455,124.821 293,123.5C 294.609,119.29 296.442,115.29 298.5,111.5C 298.804,112.15 299.137,112.817 299.5,113.5C 297.252,114.324 297.086,115.324 299,116.5C 301.2,115.478 303.2,114.145 305,112.5C 307.563,113.259 310.063,114.259 312.5,115.5C 314.453,114.844 316.453,114.511 318.5,114.5C 318.214,112.723 317.547,111.056 316.5,109.5C 317.824,106.814 317.824,104.147 316.5,101.5C 317.8,102.108 319.133,102.775 320.5,103.5C 322.403,102.647 324.403,102.647 326.5,103.5C 327.268,107.83 325.935,111.163 322.5,113.5C 323.376,114.251 324.376,114.751 325.5,115C 325.167,116 324.833,117 324.5,118C 326.554,117.417 328.554,117.917 330.5,119.5C 329.372,120.262 328.205,120.929 327,121.5C 326.481,120.484 325.647,119.818 324.5,119.5C 323.137,120.198 321.971,120.198 321,119.5C 320.5,120 320,120.5 319.5,121C 320.624,121.249 321.624,121.749 322.5,122.5C 321.289,123.72 321.289,124.887 322.5,126C 320.699,126.317 320.366,126.984 321.5,128C 318.378,129.421 318.044,131.087 320.5,133C 318.068,134.087 318.402,134.587 321.5,134.5C 321.5,132.833 321.5,131.167 321.5,129.5C 322.675,129.281 323.675,129.614 324.5,130.5C 322.995,131.842 322.328,133.508 322.5,135.5C 319.833,135.5 317.167,135.5 314.5,135.5C 314.868,129.085 316.702,123.085 320,117.5C 320.654,118.696 321.154,118.696 321.5,117.5C 321,117.167 320.5,116.833 320,116.5C 318.325,118.168 316.658,119.835 315,121.5C 313.951,119.893 312.451,119.227 310.5,119.5C 310.579,121.666 311.246,123.666 312.5,125.5C 311.008,127.972 310.342,130.639 310.5,133.5C 309.178,133.33 308.011,133.663 307,134.5C 306.727,132.899 306.227,131.399 305.5,130C 306.603,128.32 306.27,126.82 304.5,125.5C 303.808,126.025 303.308,126.692 303,127.5C 302.833,126.833 302.667,126.167 302.5,125.5C 304.413,122.349 305.746,119.016 306.5,115.5C 305.5,115.5 304.5,115.5 303.5,115.5C 303.5,116.833 303.5,118.167 303.5,119.5C 301.774,119.185 300.107,119.019 298.5,119C 298.833,119.333 299.167,119.667 299.5,120C 295.882,122.848 296.215,125.515 300.5,128C 297.401,130.363 294.901,129.863 293,126.5C 287.483,126.823 282.316,127.823 277.5,129.5C 241.692,141.103 206.025,153.103 170.5,165.5C 163.079,167.413 156.079,170.079 149.5,173.5C 143.943,174.228 138.61,175.728 133.5,178C 132.663,179.011 132.33,180.178 132.5,181.5C 133.5,181.5 134.5,181.5 135.5,181.5C 137.565,181.483 139.565,181.15 141.5,180.5C 141.5,181.5 141.5,182.5 141.5,183.5C 144.914,184.247 148.247,184.247 151.5,183.5C 148.506,185.277 147.84,187.777 149.5,191C 153.904,191.258 158.238,190.758 162.5,189.5C 159.649,190.828 157.982,193.161 157.5,196.5C 160.212,197.228 162.879,198.061 165.5,199C 162.99,201.05 161.656,203.383 161.5,206C 162.032,208.02 163.365,208.853 165.5,208.5C 157.973,213.416 149.64,216.416 140.5,217.5C 141.301,215.958 141.634,214.292 141.5,212.5C 142.833,212.5 144.167,212.5 145.5,212.5C 145.5,211.167 145.5,209.833 145.5,208.5C 147.821,207.375 150.154,207.208 152.5,208C 153.191,206.933 153.691,205.766 154,204.5C 155.667,206.167 157.333,207.833 159,209.5C 159.5,209 160,208.5 160.5,208C 159.89,205.631 159.723,203.131 160,200.5C 159.667,200.167 159.333,199.833 159,199.5C 158.667,201.167 158.333,202.833 158,204.5C 158.266,201.099 156.766,199.433 153.5,199.5C 153.5,197.167 153.5,194.833 153.5,192.5C 150.753,192.813 148.086,192.48 145.5,191.5C 146.101,188.757 144.767,187.424 141.5,187.5C 141.882,193.118 139.215,195.785 133.5,195.5C 133.856,192.436 133.023,189.769 131,187.5C 129.999,190.173 128.499,192.507 126.5,194.5C 122.261,196.424 118.261,197.09 114.5,196.5C 113.756,195.009 113.09,193.509 112.5,192C 111.216,191.316 110.049,191.483 109,192.5C 108.383,191.551 108.549,190.718 109.5,190C 108.109,188.98 106.609,188.147 105,187.5C 104.51,186.207 104.343,184.873 104.5,183.5C 109.206,185.367 112.873,188.533 115.5,193C 116.448,193.483 117.448,193.649 118.5,193.5C 118.335,190.15 118.502,186.817 119,183.5C 120.903,181.559 121.736,179.226 121.5,176.5C 123.745,176.541 124.412,177.375 123.5,179C 125.072,181.038 126.072,183.371 126.5,186C 126.043,186.414 125.709,186.914 125.5,187.5C 126.689,188.429 128.022,188.762 129.5,188.5C 129.669,186.088 129.003,183.921 127.5,182C 128.713,180.37 129.546,178.536 130,176.5C 132.202,175.22 134.702,174.553 137.5,174.5C 136.147,173.315 134.98,171.981 134,170.5C 133.759,167.711 133.092,165.044 132,162.5C 131.282,163.451 130.449,163.617 129.5,163C 130.833,162.333 130.833,161.667 129.5,161C 127.381,160.902 125.714,160.069 124.5,158.5C 125.938,155.177 127.771,154.844 130,157.5C 131.356,156.62 132.856,156.286 134.5,156.5C 131.516,159.53 132.183,160.696 136.5,160C 169.989,135.089 203.656,110.422 237.5,86C 238.252,85.3292 238.586,84.4959 238.5,83.5C 239.117,83.6107 239.617,83.944 240,84.5C 240.934,83.1416 241.768,81.8083 242.5,80.5 Z"/></g>
<g><path style="opacity:1" fill="#aa9c4c" d="M 259.5,95.5 C 260.552,95.3505 261.552,95.5172 262.5,96C 265.667,99.1667 268.833,102.333 272,105.5C 272.5,107.667 271.667,108.5 269.5,108C 265.779,104.279 262.113,100.613 258.5,97C 259.056,96.6174 259.389,96.1174 259.5,95.5 Z"/></g>
<g><path style="opacity:1" fill="#254a4c" d="M 431.5,83.5 C 431.5,96.5 431.5,109.5 431.5,122.5C 428.863,121.37 426.197,121.37 423.5,122.5C 423.287,126.262 421.954,129.596 419.5,132.5C 415.117,133.512 410.784,134.679 406.5,136C 407.161,139.533 407.494,143.366 407.5,147.5C 400.951,147.907 400.951,148.907 407.5,150.5C 406.833,151.5 406.167,152.5 405.5,153.5C 407.856,154.654 408.023,155.987 406,157.5C 404.45,156.409 403.283,155.076 402.5,153.5C 402.389,152.883 402.056,152.383 401.5,152C 354.763,151.172 308.096,151.339 261.5,152.5C 257.147,151.006 256.48,152.173 259.5,156C 258.451,156.492 257.451,156.326 256.5,155.5C 255.355,159.038 253.522,159.372 251,156.5C 250.911,158.113 251.745,159.28 253.5,160C 250.5,161 247.5,162 244.5,163C 249.299,164.379 249.633,166.379 245.5,169C 247.128,171.822 249.128,172.155 251.5,170C 248.818,167.67 249.151,167.17 252.5,168.5C 253.452,166.955 253.785,165.288 253.5,163.5C 255.5,163.5 257.5,163.5 259.5,163.5C 259.281,162.325 259.614,161.325 260.5,160.5C 261.951,162.559 263.951,163.559 266.5,163.5C 266.662,165.527 266.495,167.527 266,169.5C 263.169,169.958 260.836,171.292 259,173.5C 258.667,173.167 258.333,172.833 258,172.5C 257.207,175.535 255.374,177.701 252.5,179C 254.329,179.273 255.829,180.107 257,181.5C 258.351,179.981 259.851,178.648 261.5,177.5C 262.386,178.325 262.719,179.325 262.5,180.5C 264.39,180.703 265.89,180.037 267,178.5C 267.334,176.153 267.167,173.819 266.5,171.5C 268.144,171.286 269.644,171.62 271,172.5C 270.946,169.809 272.113,167.976 274.5,167C 274.888,165.475 274.888,163.808 274.5,162C 282.521,161.168 290.521,161.335 298.5,162.5C 298.709,163.086 299.043,163.586 299.5,164C 294.63,165.605 294.297,167.771 298.5,170.5C 298.291,171.086 297.957,171.586 297.5,172C 298.981,172.98 300.315,174.147 301.5,175.5C 301.554,174.47 301.888,173.303 302.5,172C 303.793,171.51 305.127,171.343 306.5,171.5C 306.5,170.167 306.5,168.833 306.5,167.5C 307.833,167.5 309.167,167.5 310.5,167.5C 310.5,168.833 310.5,170.167 310.5,171.5C 312.167,171.5 313.833,171.5 315.5,171.5C 315.351,172.552 315.517,173.552 316,174.5C 318.694,173.054 319.527,171.054 318.5,168.5C 320.903,165.592 323.737,163.259 327,161.5C 327.5,162 328,162.5 328.5,163C 326.442,164.49 325.109,166.49 324.5,169C 325,169.5 325.5,170 326,170.5C 327.049,168.893 328.549,168.227 330.5,168.5C 330.5,167.167 330.5,165.833 330.5,164.5C 332.262,164.643 333.929,164.309 335.5,163.5C 336.429,164.689 336.762,166.022 336.5,167.5C 338.5,167.5 340.5,167.5 342.5,167.5C 342.5,169.167 342.5,170.833 342.5,172.5C 341.167,172.5 339.833,172.5 338.5,172.5C 338.5,173.5 338.5,174.5 338.5,175.5C 335.833,175.833 333.167,176.167 330.5,176.5C 330.895,179.523 329.895,180.523 327.5,179.5C 326.186,180.313 325.019,181.313 324,182.5C 321.763,180.353 319.763,178.02 318,175.5C 316.065,177.408 316.231,179.242 318.5,181C 317.902,184.368 316.735,184.868 315,182.5C 313.951,184.107 312.451,184.773 310.5,184.5C 310.5,183.167 310.5,181.833 310.5,180.5C 306.5,180.5 302.5,180.5 298.5,180.5C 298.799,182.604 298.466,184.604 297.5,186.5C 295.709,184.54 293.543,183.207 291,182.5C 289.768,185.23 288.935,185.063 288.5,182C 288.68,179.759 289.513,179.259 291,180.5C 291.49,179.207 291.657,177.873 291.5,176.5C 289.833,176.5 288.167,176.5 286.5,176.5C 286.5,180.5 286.5,184.5 286.5,188.5C 281.461,188.451 281.295,189.118 286,190.5C 286.779,192.906 285.946,194.573 283.5,195.5C 282.614,194.675 282.281,193.675 282.5,192.5C 281.167,192.5 279.833,192.5 278.5,192.5C 278.813,189.753 278.48,187.086 277.5,184.5C 276.377,182.711 275.044,182.378 273.5,183.5C 274.309,185.071 274.643,186.738 274.5,188.5C 271.813,188.664 269.146,188.497 266.5,188C 265.594,186.301 265.261,184.467 265.5,182.5C 264.127,182.343 262.793,182.51 261.5,183C 259.323,184.515 257.156,186.015 255,187.5C 254.228,187.355 253.561,187.022 253,186.5C 252.692,187.308 252.192,187.975 251.5,188.5C 250.246,186.462 248.579,184.796 246.5,183.5C 245.264,184.246 243.93,184.579 242.5,184.5C 242.67,185.822 242.337,186.989 241.5,188C 238.854,188.497 236.187,188.664 233.5,188.5C 233.5,192.167 233.5,195.833 233.5,199.5C 237.676,198.831 239.009,200.331 237.5,204C 236.207,204.49 234.873,204.657 233.5,204.5C 233.657,203.127 233.49,201.793 233,200.5C 231.058,202.955 228.558,204.288 225.5,204.5C 225.286,202.856 225.62,201.356 226.5,200C 224.919,199.293 223.419,198.46 222,197.5C 221.821,194.447 221.321,191.447 220.5,188.5C 219.833,189.833 219.167,191.167 218.5,192.5C 215.622,188.951 213.622,184.951 212.5,180.5C 211.086,184.246 209.086,184.913 206.5,182.5C 204.547,181.844 202.547,181.511 200.5,181.5C 200.167,181.5 199.833,181.5 199.5,181.5C 197.485,180.076 195.152,179.41 192.5,179.5C 183.779,179.225 175.113,179.558 166.5,180.5C 163.848,180.41 161.515,181.076 159.5,182.5C 156.873,183.092 154.206,183.425 151.5,183.5C 148.247,184.247 144.914,184.247 141.5,183.5C 141.5,182.5 141.5,181.5 141.5,180.5C 146.037,178.879 150.371,176.879 154.5,174.5C 155.167,174.5 155.833,174.5 156.5,174.5C 171.982,169.899 186.982,164.566 201.5,158.5C 204.285,156.905 207.285,155.905 210.5,155.5C 218.877,153.375 227.21,151.042 235.5,148.5C 236.965,149.609 237.965,149.109 238.5,147C 240.101,146.727 241.601,146.227 243,145.5C 245.571,147.353 248.238,149.019 251,150.5C 251.804,149.196 252.971,148.529 254.5,148.5C 255.864,149.043 257.197,149.21 258.5,149C 257.095,147.731 255.429,147.231 253.5,147.5C 253.238,146.022 253.571,144.689 254.5,143.5C 256.188,141.812 257.854,140.146 259.5,138.5C 264.904,136.969 270.237,135.136 275.5,133C 276.973,132.29 277.64,131.124 277.5,129.5C 282.316,127.823 287.483,126.823 293,126.5C 294.901,129.863 297.401,130.363 300.5,128C 296.215,125.515 295.882,122.848 299.5,120C 299.167,119.667 298.833,119.333 298.5,119C 300.107,119.019 301.774,119.185 303.5,119.5C 303.5,118.167 303.5,116.833 303.5,115.5C 304.5,115.5 305.5,115.5 306.5,115.5C 305.746,119.016 304.413,122.349 302.5,125.5C 302.667,126.167 302.833,126.833 303,127.5C 303.308,126.692 303.808,126.025 304.5,125.5C 306.27,126.82 306.603,128.32 305.5,130C 306.227,131.399 306.727,132.899 307,134.5C 308.011,133.663 309.178,133.33 310.5,133.5C 310.342,130.639 311.008,127.972 312.5,125.5C 311.246,123.666 310.579,121.666 310.5,119.5C 312.451,119.227 313.951,119.893 315,121.5C 316.658,119.835 318.325,118.168 320,116.5C 320.5,116.833 321,117.167 321.5,117.5C 321.154,118.696 320.654,118.696 320,117.5C 316.702,123.085 314.868,129.085 314.5,135.5C 317.167,135.5 319.833,135.5 322.5,135.5C 322.328,133.508 322.995,131.842 324.5,130.5C 323.675,129.614 322.675,129.281 321.5,129.5C 321.5,131.167 321.5,132.833 321.5,134.5C 318.402,134.587 318.068,134.087 320.5,133C 318.044,131.087 318.378,129.421 321.5,128C 320.366,126.984 320.699,126.317 322.5,126C 321.289,124.887 321.289,123.72 322.5,122.5C 321.624,121.749 320.624,121.249 319.5,121C 320,120.5 320.5,120 321,119.5C 321.971,120.198 323.137,120.198 324.5,119.5C 325.647,119.818 326.481,120.484 327,121.5C 328.205,120.929 329.372,120.262 330.5,119.5C 328.554,117.917 326.554,117.417 324.5,118C 324.833,117 325.167,116 325.5,115C 324.376,114.751 323.376,114.251 322.5,113.5C 325.935,111.163 327.268,107.83 326.5,103.5C 324.403,102.647 322.403,102.647 320.5,103.5C 319.133,102.775 317.8,102.108 316.5,101.5C 315.082,99.6921 313.082,99.0254 310.5,99.5C 310.5,98.1667 310.5,96.8333 310.5,95.5C 311.978,95.762 313.311,95.4287 314.5,94.5C 309.449,90.9708 308.116,86.3041 310.5,80.5C 312.262,80.6427 313.929,80.3094 315.5,79.5C 315.676,81.6716 315.843,84.0049 316,86.5C 316.249,85.376 316.749,84.376 317.5,83.5C 317.833,84.1667 318.167,84.8333 318.5,85.5C 317.733,88.2675 316.4,89.9342 314.5,90.5C 317.167,91.1667 319.833,91.8333 322.5,92.5C 323.351,95.6124 324.517,95.9458 326,93.5C 326.304,95.4405 327.137,97.1072 328.5,98.5C 327.975,99.1924 327.308,99.6924 326.5,100C 329.157,100.175 331.824,100.008 334.5,99.5C 334.5,98.1667 334.5,96.8333 334.5,95.5C 336.958,95.7725 338.625,94.7725 339.5,92.5C 337.639,91.4717 336.305,89.9717 335.5,88C 336.448,87.5172 337.448,87.3505 338.5,87.5C 338.5,86.1667 338.5,84.8333 338.5,83.5C 339.978,83.238 341.311,83.5713 342.5,84.5C 341.975,85.1924 341.308,85.6924 340.5,86C 342.025,87.0086 343.692,87.5086 345.5,87.5C 345.165,90.7286 346.498,92.2286 349.5,92C 345.514,89.4197 345.514,88.0863 349.5,88C 350.227,86.6012 350.727,85.1012 351,83.5C 351.333,83.8333 351.667,84.1667 352,84.5C 354.295,82.92 355.628,80.92 356,78.5C 355.282,79.4506 354.449,79.6172 353.5,79C 356.776,75.3011 358.443,75.8011 358.5,80.5C 360.952,80.3764 362.952,79.3764 364.5,77.5C 365.416,77.5427 366.083,77.8761 366.5,78.5C 366.415,79.9953 367.081,80.9953 368.5,81.5C 369.471,78.8661 371.305,78.8661 374,81.5C 374.54,79.8654 374.04,78.5321 372.5,77.5C 374.681,74.1441 376.347,74.1441 377.5,77.5C 378.803,76.2822 379.803,76.6155 380.5,78.5C 381.914,77.376 383.414,76.376 385,75.5C 385.221,78.9431 386.221,79.2764 388,76.5C 389.395,77.4303 390.895,77.4303 392.5,76.5C 396.489,79.5419 400.656,81.5419 405,82.5C 405.689,81.6433 406.522,80.9767 407.5,80.5C 409.451,81.2561 411.284,81.5894 413,81.5C 413.837,79.9926 415.004,79.4926 416.5,80C 414.135,81.7895 412.468,83.9561 411.5,86.5C 412.873,86.6567 414.207,86.49 415.5,86C 418.223,83.4006 421.057,80.9006 424,78.5C 427.167,79.6667 427.333,81.1667 424.5,83C 426.921,84.0475 429.254,84.2142 431.5,83.5 Z"/></g>
<g><path style="opacity:1" fill="#b2a04c" d="M 276.5,105.5 C 280.676,105.168 284.176,106.502 287,109.5C 285.987,114.982 285.487,120.648 285.5,126.5C 284.448,126.649 283.448,126.483 282.5,126C 278.654,123.571 274.821,121.071 271,118.5C 270.333,115.833 270.333,113.167 271,110.5C 272.73,108.598 274.563,106.931 276.5,105.5 Z"/></g>
<g><path style="opacity:1" fill="#aa9c4c" d="M 298.5,111.5 C 296.442,115.29 294.609,119.29 293,123.5C 291.455,124.821 290.289,124.488 289.5,122.5C 294.515,110.474 299.515,98.4742 304.5,86.5C 305.143,82.9589 306.81,82.1256 309.5,84C 305.342,92.9745 301.675,102.141 298.5,111.5 Z"/></g>
<g><path style="opacity:1" fill="#36554c" d="M 277.5,111.5 C 278.5,111.5 279.5,111.5 280.5,111.5C 280.426,115.541 279.093,116.208 276.5,113.5C 276.863,112.817 277.196,112.15 277.5,111.5 Z"/></g>
<g><path style="opacity:1" fill="#b3a14c" d="M 97.5,166.5 C 95.0439,170.738 94.0439,175.404 94.5,180.5C 93.7011,189.639 95.8678,197.972 101,205.5C 111.963,217.101 125.129,221.101 140.5,217.5C 149.64,216.416 157.973,213.416 165.5,208.5C 167.527,208.338 169.527,208.505 171.5,209C 172.554,210.388 172.72,211.888 172,213.5C 153.607,225.677 133.774,228.843 112.5,223C 101.289,218.287 93.2887,210.454 88.5,199.5C 86.3899,190.863 86.0566,182.196 87.5,173.5C 88.9238,171.485 89.5905,169.152 89.5,166.5C 90.7694,161.957 92.6028,157.624 95,153.5C 105.845,135.977 120.845,123.643 140,116.5C 143.255,116.745 144.588,118.412 144,121.5C 134.612,126.111 125.778,131.611 117.5,138C 108.968,146.246 102.301,155.746 97.5,166.5 Z"/></g>
<g><path style="opacity:1" fill="#264b4c" d="M 431.5,122.5 C 431.5,144.5 431.5,166.5 431.5,188.5C 430.897,190.19 429.897,191.69 428.5,193C 428.959,194.943 427.959,196.276 425.5,197C 429.109,200.324 428.776,202.991 424.5,205C 424.833,204.667 425.167,204.333 425.5,204C 424.881,202.243 423.714,201.076 422,200.5C 420.629,201.581 419.129,202.415 417.5,203C 416.556,205.719 416.223,208.552 416.5,211.5C 414.833,211.5 413.167,211.5 411.5,211.5C 411.083,214.079 411.75,216.246 413.5,218C 412.29,219.039 411.29,220.206 410.5,221.5C 408.807,222.475 407.307,223.808 406,225.5C 405.506,223.866 405.34,222.199 405.5,220.5C 401.779,219.951 398.112,219.451 394.5,219C 395.766,219.309 396.933,219.809 398,220.5C 398.182,223.226 398.682,225.893 399.5,228.5C 400.451,227.674 401.451,227.508 402.5,228C 402.43,229.624 401.93,231.457 401,233.5C 400.667,233.833 400.333,234.167 400,234.5C 399.692,233.692 399.192,233.025 398.5,232.5C 397.575,233.641 396.741,233.641 396,232.5C 394.632,233.993 394.465,235.493 395.5,237C 392.525,237.044 389.525,236.877 386.5,236.5C 386.5,237.833 386.5,239.167 386.5,240.5C 387.873,240.343 389.207,240.51 390.5,241C 389.167,242 389.167,243 390.5,244C 386.974,243.548 383.641,244.381 380.5,246.5C 381.167,247.167 381.833,247.833 382.5,248.5C 380.922,249.298 379.256,249.798 377.5,250C 378.28,251.073 378.113,252.24 377,253.5C 376.25,252.874 375.416,252.374 374.5,252C 375.924,249.899 377.258,247.733 378.5,245.5C 378.167,245.167 377.833,244.833 377.5,244.5C 376.193,245.816 374.693,246.816 373,247.5C 370.952,245.494 371.452,244.494 374.5,244.5C 374.5,243.167 374.5,241.833 374.5,240.5C 373.167,240.5 371.833,240.5 370.5,240.5C 370.5,243.167 370.5,245.833 370.5,248.5C 375.694,248.942 375.694,249.942 370.5,251.5C 371.167,251.833 371.833,252.167 372.5,252.5C 370.995,253.842 370.328,255.508 370.5,257.5C 369.167,257.5 367.833,257.5 366.5,257.5C 366.104,260.044 366.771,262.211 368.5,264C 366.893,265.049 366.227,266.549 366.5,268.5C 364.801,268.66 363.134,268.494 361.5,268C 363.204,265.763 364.204,263.263 364.5,260.5C 363.127,260.657 361.793,260.49 360.5,260C 361.308,259.692 361.975,259.192 362.5,258.5C 361.242,259.016 360.242,258.35 359.5,256.5C 359.59,260.264 358.59,263.931 356.5,267.5C 355.833,288.663 355.167,309.663 354.5,330.5C 354.5,292.5 354.5,254.5 354.5,216.5C 370.929,216.97 387.262,216.47 403.5,215C 404.982,212.408 404.648,210.075 402.5,208C 384.833,207.333 367.167,207.333 349.5,208C 348,208.833 346.833,210 346,211.5C 345.501,215.821 345.334,220.154 345.5,224.5C 344.833,242.497 344.5,260.664 344.5,279C 344.5,297.512 345.167,315.679 346.5,333.5C 349.762,335.179 352.429,334.512 354.5,331.5C 354.769,333.429 354.269,335.095 353,336.5C 351.605,335.185 350.605,335.519 350,337.5C 348.192,337.112 346.525,337.112 345,337.5C 342.988,335.318 341.988,332.651 342,329.5C 340.989,328.663 339.822,328.33 338.5,328.5C 338.898,333.801 341.232,337.967 345.5,341C 344.5,341.333 343.5,341.667 342.5,342C 343.696,342.654 343.696,343.154 342.5,343.5C 341.476,342.147 340.143,341.48 338.5,341.5C 338.5,343.5 338.5,345.5 338.5,347.5C 337.167,347.5 335.833,347.5 334.5,347.5C 334.5,345.5 334.5,343.5 334.5,341.5C 331.833,342.167 329.167,342.833 326.5,343.5C 326.5,342.167 326.5,340.833 326.5,339.5C 323.583,338.709 320.75,338.709 318,339.5C 316.293,338.541 314.459,337.875 312.5,337.5C 310.387,335.921 308.887,334.254 308,332.5C 304.895,333.367 301.728,333.701 298.5,333.5C 298.167,330.833 297.833,328.167 297.5,325.5C 296.5,325.5 295.5,325.5 294.5,325.5C 294.351,324.448 294.517,323.448 295,322.5C 296.693,323.184 298.193,324.184 299.5,325.5C 301.814,323.002 302.98,320.002 303,316.5C 304.011,317.337 305.178,317.67 306.5,317.5C 306.5,315.833 306.5,314.167 306.5,312.5C 305.448,312.649 304.448,312.483 303.5,312C 304.711,310.887 304.711,309.72 303.5,308.5C 304.025,307.808 304.692,307.308 305.5,307C 304.304,306.346 304.304,305.846 305.5,305.5C 306.429,306.689 306.762,308.022 306.5,309.5C 307.833,309.5 309.167,309.5 310.5,309.5C 310.005,307.176 310.005,305.009 310.5,303C 309.556,301.523 308.223,300.523 306.5,300C 307.328,299.085 308.328,298.419 309.5,298C 307.122,297.026 307.456,296.359 310.5,296C 309.892,295.13 309.059,294.63 308,294.5C 306.403,295.885 304.57,296.551 302.5,296.5C 302.795,298.735 302.461,300.735 301.5,302.5C 302.155,271.11 301.488,239.943 299.5,209C 279.167,208.333 258.833,208.333 238.5,209C 234.525,216.573 230.359,224.073 226,231.5C 204.942,259.525 177.109,270.025 142.5,263C 122.14,256.737 104.974,245.571 91,229.5C 86.6223,223.245 82.1223,217.078 77.5,211C 58.1695,210.5 38.8362,210.333 19.5,210.5C 21.2646,209.539 23.2646,209.205 25.5,209.5C 44.538,209.321 63.538,209.321 82.5,209.5C 85.9748,208.714 86.3081,207.214 83.5,205C 85.1341,204.506 86.8008,204.34 88.5,204.5C 88.5,202.833 88.5,201.167 88.5,199.5C 93.2887,210.454 101.289,218.287 112.5,223C 133.774,228.843 153.607,225.677 172,213.5C 172.72,211.888 172.554,210.388 171.5,209C 169.527,208.505 167.527,208.338 165.5,208.5C 163.365,208.853 162.032,208.02 161.5,206C 161.656,203.383 162.99,201.05 165.5,199C 162.879,198.061 160.212,197.228 157.5,196.5C 157.982,193.161 159.649,190.828 162.5,189.5C 172.613,187.574 182.947,187.074 193.5,188C 207.888,191.275 212.388,199.775 207,213.5C 205.333,216.833 203.667,220.167 202,223.5C 198.485,228.344 194.985,233.177 191.5,238C 193.313,241.911 195.813,242.411 199,239.5C 208.747,229.173 214.914,217.006 217.5,203C 217.206,197.579 215.372,192.746 212,188.5C 208.186,186.016 204.353,183.682 200.5,181.5C 202.547,181.511 204.547,181.844 206.5,182.5C 209.086,184.913 211.086,184.246 212.5,180.5C 213.622,184.951 215.622,188.951 218.5,192.5C 219.167,191.167 219.833,189.833 220.5,188.5C 221.321,191.447 221.821,194.447 222,197.5C 223.419,198.46 224.919,199.293 226.5,200C 225.62,201.356 225.286,202.856 225.5,204.5C 228.558,204.288 231.058,202.955 233,200.5C 233.49,201.793 233.657,203.127 233.5,204.5C 234.873,204.657 236.207,204.49 237.5,204C 239.009,200.331 237.676,198.831 233.5,199.5C 233.5,195.833 233.5,192.167 233.5,188.5C 236.187,188.664 238.854,188.497 241.5,188C 242.337,186.989 242.67,185.822 242.5,184.5C 243.93,184.579 245.264,184.246 246.5,183.5C 248.579,184.796 250.246,186.462 251.5,188.5C 252.192,187.975 252.692,187.308 253,186.5C 253.561,187.022 254.228,187.355 255,187.5C 257.156,186.015 259.323,184.515 261.5,183C 262.793,182.51 264.127,182.343 265.5,182.5C 265.261,184.467 265.594,186.301 266.5,188C 269.146,188.497 271.813,188.664 274.5,188.5C 274.643,186.738 274.309,185.071 273.5,183.5C 275.044,182.378 276.377,182.711 277.5,184.5C 278.48,187.086 278.813,189.753 278.5,192.5C 279.833,192.5 281.167,192.5 282.5,192.5C 282.281,193.675 282.614,194.675 283.5,195.5C 285.946,194.573 286.779,192.906 286,190.5C 281.295,189.118 281.461,188.451 286.5,188.5C 286.5,184.5 286.5,180.5 286.5,176.5C 288.167,176.5 289.833,176.5 291.5,176.5C 291.657,177.873 291.49,179.207 291,180.5C 289.513,179.259 288.68,179.759 288.5,182C 288.935,185.063 289.768,185.23 291,182.5C 293.543,183.207 295.709,184.54 297.5,186.5C 298.466,184.604 298.799,182.604 298.5,180.5C 302.5,180.5 306.5,180.5 310.5,180.5C 310.5,181.833 310.5,183.167 310.5,184.5C 312.451,184.773 313.951,184.107 315,182.5C 316.735,184.868 317.902,184.368 318.5,181C 316.231,179.242 316.065,177.408 318,175.5C 319.763,178.02 321.763,180.353 324,182.5C 325.019,181.313 326.186,180.313 327.5,179.5C 329.895,180.523 330.895,179.523 330.5,176.5C 333.167,176.167 335.833,175.833 338.5,175.5C 338.5,174.5 338.5,173.5 338.5,172.5C 339.833,172.5 341.167,172.5 342.5,172.5C 342.5,170.833 342.5,169.167 342.5,167.5C 340.5,167.5 338.5,167.5 336.5,167.5C 336.762,166.022 336.429,164.689 335.5,163.5C 333.929,164.309 332.262,164.643 330.5,164.5C 330.5,165.833 330.5,167.167 330.5,168.5C 328.549,168.227 327.049,168.893 326,170.5C 325.5,170 325,169.5 324.5,169C 325.109,166.49 326.442,164.49 328.5,163C 328,162.5 327.5,162 327,161.5C 323.737,163.259 320.903,165.592 318.5,168.5C 319.527,171.054 318.694,173.054 316,174.5C 315.517,173.552 315.351,172.552 315.5,171.5C 313.833,171.5 312.167,171.5 310.5,171.5C 310.5,170.167 310.5,168.833 310.5,167.5C 309.167,167.5 307.833,167.5 306.5,167.5C 306.5,168.833 306.5,170.167 306.5,171.5C 305.127,171.343 303.793,171.51 302.5,172C 301.888,173.303 301.554,174.47 301.5,175.5C 300.315,174.147 298.981,172.98 297.5,172C 297.957,171.586 298.291,171.086 298.5,170.5C 294.297,167.771 294.63,165.605 299.5,164C 299.043,163.586 298.709,163.086 298.5,162.5C 290.521,161.335 282.521,161.168 274.5,162C 274.888,163.808 274.888,165.475 274.5,167C 272.113,167.976 270.946,169.809 271,172.5C 269.644,171.62 268.144,171.286 266.5,171.5C 267.167,173.819 267.334,176.153 267,178.5C 265.89,180.037 264.39,180.703 262.5,180.5C 262.719,179.325 262.386,178.325 261.5,177.5C 259.851,178.648 258.351,179.981 257,181.5C 255.829,180.107 254.329,179.273 252.5,179C 255.374,177.701 257.207,175.535 258,172.5C 258.333,172.833 258.667,173.167 259,173.5C 260.836,171.292 263.169,169.958 266,169.5C 266.495,167.527 266.662,165.527 266.5,163.5C 263.951,163.559 261.951,162.559 260.5,160.5C 259.614,161.325 259.281,162.325 259.5,163.5C 257.5,163.5 255.5,163.5 253.5,163.5C 253.785,165.288 253.452,166.955 252.5,168.5C 249.151,167.17 248.818,167.67 251.5,170C 249.128,172.155 247.128,171.822 245.5,169C 249.633,166.379 249.299,164.379 244.5,163C 247.5,162 250.5,161 253.5,160C 251.745,159.28 250.911,158.113 251,156.5C 253.522,159.372 255.355,159.038 256.5,155.5C 257.451,156.326 258.451,156.492 259.5,156C 256.48,152.173 257.147,151.006 261.5,152.5C 261.5,152.833 261.5,153.167 261.5,153.5C 260.193,155.223 260.193,157.057 261.5,159C 308.237,159.828 354.904,159.661 401.5,158.5C 402.451,157.081 402.784,155.415 402.5,153.5C 403.283,155.076 404.45,156.409 406,157.5C 408.023,155.987 407.856,154.654 405.5,153.5C 406.167,152.5 406.833,151.5 407.5,150.5C 400.951,148.907 400.951,147.907 407.5,147.5C 407.494,143.366 407.161,139.533 406.5,136C 410.784,134.679 415.117,133.512 419.5,132.5C 421.954,129.596 423.287,126.262 423.5,122.5C 426.197,121.37 428.863,121.37 431.5,122.5 Z"/></g>
<g><path style="opacity:1" fill="#ac9d4c" d="M 238.5,83.5 C 238.586,84.4959 238.252,85.3292 237.5,86C 203.656,110.422 169.989,135.089 136.5,160C 132.183,160.696 131.516,159.53 134.5,156.5C 167.315,132.92 199.981,109.087 232.5,85C 234.345,83.872 236.345,83.372 238.5,83.5 Z"/></g>
<g><path style="opacity:1" fill="#ac9d4c" d="M 277.5,129.5 C 277.64,131.124 276.973,132.29 275.5,133C 270.237,135.136 264.904,136.969 259.5,138.5C 243.028,143.99 226.695,149.656 210.5,155.5C 207.285,155.905 204.285,156.905 201.5,158.5C 186.089,163.079 171.089,168.412 156.5,174.5C 155.833,174.5 155.167,174.5 154.5,174.5C 147.861,176.266 141.527,178.599 135.5,181.5C 134.5,181.5 133.5,181.5 132.5,181.5C 132.33,180.178 132.663,179.011 133.5,178C 138.61,175.728 143.943,174.228 149.5,173.5C 156.921,171.587 163.921,168.921 170.5,165.5C 206.025,153.103 241.692,141.103 277.5,129.5 Z"/></g>
<g><path style="opacity:1" fill="#31524c" d="M 259.5,138.5 C 257.854,140.146 256.188,141.812 254.5,143.5C 253.571,144.689 253.238,146.022 253.5,147.5C 255.429,147.231 257.095,147.731 258.5,149C 257.197,149.21 255.864,149.043 254.5,148.5C 252.971,148.529 251.804,149.196 251,150.5C 248.238,149.019 245.571,147.353 243,145.5C 241.601,146.227 240.101,146.727 238.5,147C 237.965,149.109 236.965,149.609 235.5,148.5C 227.21,151.042 218.877,153.375 210.5,155.5C 226.695,149.656 243.028,143.99 259.5,138.5 Z"/></g>
<g><path style="opacity:1" fill="#ad9d4c" d="M 253.5,107.5 C 254.833,107.5 256.167,107.5 257.5,107.5C 257.67,108.822 257.337,109.989 256.5,111C 216.38,131.394 176.046,151.227 135.5,170.5C 135.297,168.61 135.963,167.11 137.5,166C 176.383,146.726 215.05,127.226 253.5,107.5 Z"/></g>
<g><path style="opacity:1" fill="#a3984b" d="M 402.5,153.5 C 402.784,155.415 402.451,157.081 401.5,158.5C 401.739,156.533 401.406,154.699 400.5,153C 354.126,152.177 307.792,152.344 261.5,153.5C 261.5,153.167 261.5,152.833 261.5,152.5C 308.096,151.339 354.763,151.172 401.5,152C 402.056,152.383 402.389,152.883 402.5,153.5 Z"/></g>
<g><path style="opacity:1" fill="#baa54d" d="M 401.5,158.5 C 354.904,159.661 308.237,159.828 261.5,159C 260.193,157.057 260.193,155.223 261.5,153.5C 307.792,152.344 354.126,152.177 400.5,153C 401.406,154.699 401.739,156.533 401.5,158.5 Z"/></g>
<g><path style="opacity:1" fill="#274d4f" d="M 25.5,209.5 C 23.2646,209.205 21.2646,209.539 19.5,210.5C 15.5,213.5 15.5,216.5 19.5,219.5C 23.6472,220.325 27.9805,220.825 32.5,221C 34.4382,223.328 34.1049,225.661 31.5,228C 33.7577,230.725 34.0911,233.725 32.5,237C 33.448,237.483 34.448,237.649 35.5,237.5C 35.4874,240.361 34.3207,241.361 32,240.5C 31.5498,243.064 32.7164,244.564 35.5,245C 32.3422,247.259 30.3422,246.426 29.5,242.5C 27.8986,243.204 26.5652,244.371 25.5,246C 28,246.833 28.1667,248 26,249.5C 23.7522,249.142 21.2522,248.475 18.5,247.5C 18.1667,247.833 17.8333,248.167 17.5,248.5C 20.3905,250.043 22.0571,252.376 22.5,255.5C 24.952,255.376 26.952,254.376 28.5,252.5C 29.1667,252.833 29.8333,253.167 30.5,253.5C 27.4589,255.362 24.7922,257.695 22.5,260.5C 24.5759,260.758 26.9093,261.258 29.5,262C 24.2805,263.42 24.2805,264.587 29.5,265.5C 30.4776,265.023 31.3109,264.357 32,263.5C 32.3333,264.167 32.6667,264.833 33,265.5C 34.0852,264.707 35.2519,264.04 36.5,263.5C 38.637,264.868 40.9703,265.868 43.5,266.5C 40.9774,269.69 41.9774,271.023 46.5,270.5C 46.3398,272.199 46.5065,273.866 47,275.5C 50.9502,270.886 52.2836,271.553 51,277.5C 50.2825,276.549 49.4491,276.383 48.5,277C 49.8333,277.667 49.8333,278.333 48.5,279C 50.4506,280.734 51.4506,282.901 51.5,285.5C 53.143,285.52 54.4763,284.853 55.5,283.5C 56.5937,284.868 56.2603,286.035 54.5,287C 55.6721,287.419 56.6721,288.085 57.5,289C 54.9774,289.518 52.9774,290.852 51.5,293C 52.448,293.483 53.448,293.649 54.5,293.5C 55.8617,298.173 56.8617,303.006 57.5,308C 57.1377,309.225 56.6377,310.391 56,311.5C 55.237,308.937 54.737,308.937 54.5,311.5C 55.7323,313.05 56.2323,314.717 56,316.5C 54.1294,315.003 53.1294,313.003 53,310.5C 52.7104,312.044 52.0437,313.377 51,314.5C 50.195,312.099 49.3617,312.266 48.5,315C 49.9561,315.423 50.4561,316.256 50,317.5C 47.7202,318.086 45.5535,318.92 43.5,320C 44.8659,321.6 45.8659,323.433 46.5,325.5C 47.8534,323.817 49.5201,322.484 51.5,321.5C 52.4147,322.328 53.0814,323.328 53.5,324.5C 49.4936,325.318 46.6602,327.985 45,332.5C 43.3908,331.85 41.8908,332.35 40.5,334C 42.2852,335.163 44.2852,335.83 46.5,336C 44.3347,337.897 43.6681,340.064 44.5,342.5C 45.086,342.291 45.586,341.957 46,341.5C 46.9596,344.056 48.4596,346.223 50.5,348C 48.3303,349.43 48.1636,350.93 50,352.5C 50.6667,351.167 51.3333,349.833 52,348.5C 52.3333,348.833 52.6667,349.167 53,349.5C 53.4419,347.321 54.4419,346.655 56,347.5C 53.993,351.654 55.493,354.488 60.5,356C 59.3826,357.892 57.7159,358.725 55.5,358.5C 54.7057,360.873 53.7057,363.206 52.5,365.5C 52.6667,365.833 52.8333,366.167 53,366.5C 54.4443,364.845 56.2776,364.178 58.5,364.5C 60.1593,367.416 60.8259,370.416 60.5,373.5C 40.1667,373.5 19.8333,373.5 -0.5,373.5C -0.5,305.5 -0.5,237.5 -0.5,169.5C 0.117425,169.389 0.617425,169.056 1,168.5C 2.50666,170.008 4.17333,171.341 6,172.5C 6.33333,172.167 6.66667,171.833 7,171.5C 7.50744,172.996 7.00744,174.163 5.5,175C 6.04651,175.925 6.71317,176.758 7.5,177.5C 7.73647,176.753 8.0698,175.92 8.5,175C 11.7477,174.329 12.0811,174.829 9.5,176.5C 9.88789,178.641 9.88789,180.641 9.5,182.5C 10.5,181.833 11.5,181.167 12.5,180.5C 13.8498,181.95 15.5165,182.617 17.5,182.5C 17.3433,181.127 17.51,179.793 18,178.5C 19.0086,180.025 19.5086,181.692 19.5,183.5C 22.4802,183.62 25.3135,184.287 28,185.5C 32.1602,183.5 31.9936,181.333 27.5,179C 29.4727,178.505 31.4727,178.338 33.5,178.5C 33.683,180.936 33.0163,183.103 31.5,185C 32.7155,187.096 33.5488,186.929 34,184.5C 34.6514,186.235 34.4847,187.902 33.5,189.5C 30.4326,191.052 27.9326,190.385 26,187.5C 21.9342,189.455 18.7675,191.788 16.5,194.5C 17,195.5 17.5,196.5 18,197.5C 18.6543,196.304 19.1543,196.304 19.5,197.5C 18.8595,202.324 20.0261,202.658 23,198.5C 23.3333,200.833 23.6667,203.167 24,205.5C 24.7096,204.027 25.8762,203.36 27.5,203.5C 27.6602,205.199 27.4935,206.866 27,208.5C 25.9568,204.774 25.4568,205.107 25.5,209.5 Z"/></g>
<g><path style="opacity:1" fill="#4a624b" d="M 201.5,158.5 C 186.982,164.566 171.982,169.899 156.5,174.5C 171.089,168.412 186.089,163.079 201.5,158.5 Z"/></g>
<g><path style="opacity:1" fill="#7c804a" d="M 89.5,166.5 C 89.5905,169.152 88.9238,171.485 87.5,173.5C 87.5,172.167 87.5,170.833 87.5,169.5C 88.1667,168.5 88.8333,167.5 89.5,166.5 Z"/></g>
<g><path style="opacity:1" fill="#5e6e4a" d="M 97.5,166.5 C 96.4915,171.283 95.4915,175.95 94.5,180.5C 94.0439,175.404 95.0439,170.738 97.5,166.5 Z"/></g>
<g><path style="opacity:1" fill="#85864b" d="M 170.5,165.5 C 163.921,168.921 156.921,171.587 149.5,173.5C 156.079,170.079 163.079,167.413 170.5,165.5 Z"/></g>
<g><path style="opacity:1" fill="#ae9e4c" d="M 121.5,176.5 C 121.736,179.226 120.903,181.559 119,183.5C 118.502,186.817 118.335,190.15 118.5,193.5C 117.448,193.649 116.448,193.483 115.5,193C 112.873,188.533 109.206,185.367 104.5,183.5C 102.299,178.206 103.633,174.039 108.5,171C 114.566,169.104 118.899,170.938 121.5,176.5 Z"/></g>
<g><path style="opacity:1" fill="#35544c" d="M 109.5,175.5 C 113.676,174.831 115.009,176.331 113.5,180C 112.207,180.49 110.873,180.657 109.5,180.5C 109.5,178.833 109.5,177.167 109.5,175.5 Z"/></g>
<g><path style="opacity:1" fill="#49614b" d="M 154.5,174.5 C 150.371,176.879 146.037,178.879 141.5,180.5C 139.565,181.15 137.565,181.483 135.5,181.5C 141.527,178.599 147.861,176.266 154.5,174.5 Z"/></g>
<g><path style="opacity:1" fill="#5a6c4a" d="M 192.5,179.5 C 195.152,179.41 197.485,180.076 199.5,181.5C 196.848,181.59 194.515,180.924 192.5,179.5 Z"/></g>
<g><path style="opacity:1" fill="#787e4a" d="M 166.5,180.5 C 164.485,181.924 162.152,182.59 159.5,182.5C 161.515,181.076 163.848,180.41 166.5,180.5 Z"/></g>
<g><path style="opacity:1" fill="#b1a04c" d="M 192.5,179.5 C 194.515,180.924 196.848,181.59 199.5,181.5C 199.833,181.5 200.167,181.5 200.5,181.5C 204.353,183.682 208.186,186.016 212,188.5C 215.372,192.746 217.206,197.579 217.5,203C 214.914,217.006 208.747,229.173 199,239.5C 195.813,242.411 193.313,241.911 191.5,238C 194.985,233.177 198.485,228.344 202,223.5C 203.667,220.167 205.333,216.833 207,213.5C 212.388,199.775 207.888,191.275 193.5,188C 182.947,187.074 172.613,187.574 162.5,189.5C 158.238,190.758 153.904,191.258 149.5,191C 147.84,187.777 148.506,185.277 151.5,183.5C 154.206,183.425 156.873,183.092 159.5,182.5C 162.152,182.59 164.485,181.924 166.5,180.5C 175.113,179.558 183.779,179.225 192.5,179.5 Z"/></g>
<g><path style="opacity:1" fill="#274d4f" d="M 431.5,188.5 C 431.5,221.833 431.5,255.167 431.5,288.5C 429.543,291.446 426.876,293.779 423.5,295.5C 425.497,295.477 426.831,296.81 427.5,299.5C 424.674,303.15 422.007,302.817 419.5,298.5C 418.5,299 417.5,299.5 416.5,300C 417.743,301.154 418.743,302.488 419.5,304C 417.426,303.773 415.426,303.939 413.5,304.5C 412.833,303.5 412.167,302.5 411.5,301.5C 410.28,302.711 409.113,302.711 408,301.5C 403.367,303.554 403.367,305.554 408,307.5C 408.414,307.043 408.914,306.709 409.5,306.5C 410.429,307.689 410.762,309.022 410.5,310.5C 407.429,309.925 405.429,311.091 404.5,314C 406.145,315.032 406.478,316.199 405.5,317.5C 406.806,318.912 407.64,320.579 408,322.5C 409.728,320.158 411.395,317.825 413,315.5C 413.5,316 414,316.5 414.5,317C 412.328,319.493 411.494,322.326 412,325.5C 416.029,327.899 419.862,330.566 423.5,333.5C 422.829,334.946 421.662,335.612 420,335.5C 417.59,334.252 415.09,333.252 412.5,332.5C 412.5,331.5 412.5,330.5 412.5,329.5C 410.692,329.491 409.025,329.991 407.5,331C 412.833,333.333 412.833,335.667 407.5,338C 408.43,339.395 408.43,340.895 407.5,342.5C 407.667,343.167 407.833,343.833 408,344.5C 410.021,341.714 411.521,342.047 412.5,345.5C 414.017,344.089 415.351,344.256 416.5,346C 413.832,346.567 411.166,347.067 408.5,347.5C 408.5,348.5 408.5,349.5 408.5,350.5C 410.512,349.986 412.512,349.82 414.5,350C 415.833,350.667 415.833,351.333 414.5,352C 415.667,352.5 416.5,353.333 417,354.5C 417.333,354.167 417.667,353.833 418,353.5C 419.187,355.044 419.52,356.711 419,358.5C 417.982,356.436 416.649,356.102 415,357.5C 413.779,356.728 412.779,355.728 412,354.5C 411.581,355.672 410.915,356.672 410,357.5C 408.732,354.938 406.898,354.272 404.5,355.5C 405.833,357.167 405.833,358.833 404.5,360.5C 406.073,362.836 407.406,362.836 408.5,360.5C 409.5,360.833 410.167,361.5 410.5,362.5C 408.535,363.292 406.535,363.959 404.5,364.5C 403.573,362.887 402.739,361.221 402,359.5C 401.365,360.966 400.531,362.3 399.5,363.5C 400.025,364.192 400.692,364.692 401.5,365C 400.09,365.368 399.09,366.201 398.5,367.5C 400.253,369.7 402.586,370.867 405.5,371C 403.934,371.608 402.6,372.442 401.5,373.5C 371.5,373.5 341.5,373.5 311.5,373.5C 310.263,371.903 308.596,370.737 306.5,370C 307.634,368.984 307.301,368.317 305.5,368C 308,367.167 308.167,366 306,364.5C 304.598,366.973 303.098,366.973 301.5,364.5C 302.715,362.785 303.715,360.951 304.5,359C 304.33,356.473 303.33,355.973 301.5,357.5C 300.281,356.737 299.281,355.737 298.5,354.5C 293.523,357.023 292.69,356.023 296,351.5C 297.065,353.396 297.898,353.563 298.5,352C 296.826,350.144 295.826,347.977 295.5,345.5C 296.139,342.525 296.639,339.525 297,336.5C 297.036,338.941 297.869,340.941 299.5,342.5C 299.289,340.956 299.289,339.29 299.5,337.5C 303.376,337.36 307.376,337.86 311.5,339C 315.922,341.738 320.588,344.071 325.5,346C 324.833,347.333 324.167,348.667 323.5,350C 326.498,349.846 329.331,349.679 332,349.5C 333.762,349.944 333.595,350.444 331.5,351C 333.271,353.113 334.771,352.947 336,350.5C 338.825,351.052 341.992,351.552 345.5,352C 344.584,352.374 343.75,352.874 343,353.5C 341.274,352.424 339.441,352.257 337.5,353C 338.5,353.333 339.5,353.667 340.5,354C 337.398,355.614 337.064,357.447 339.5,359.5C 342.318,358.217 345.152,358.217 348,359.5C 349.011,359.108 349.511,358.441 349.5,357.5C 351.477,358.558 353.144,360.558 354.5,363.5C 356.517,362.327 357.184,360.827 356.5,359C 357.803,358.79 359.136,358.957 360.5,359.5C 362.457,358.046 364.29,356.38 366,354.5C 366.57,357.844 367.736,358.177 369.5,355.5C 370.548,356.383 371.715,357.05 373,357.5C 375.514,355.314 377.681,352.814 379.5,350C 379.167,349.667 378.833,349.333 378.5,349C 382.5,348 382.5,347 378.5,346C 379.729,344.471 381.229,343.304 383,342.5C 382.737,343.951 382.904,345.284 383.5,346.5C 384.941,345.135 386.274,343.635 387.5,342C 384.833,341.333 384.833,340.667 387.5,340C 387.043,339.586 386.709,339.086 386.5,338.5C 383.68,337.618 381.014,336.452 378.5,335C 379.899,334.405 381.232,334.572 382.5,335.5C 384.953,332.844 387.787,332.177 391,333.5C 392.166,332.166 392.333,330.5 391.5,328.5C 391.437,326.519 392.104,324.852 393.5,323.5C 392.594,319.446 390.76,318.78 388,321.5C 387.833,321.167 387.667,320.833 387.5,320.5C 388.833,319.167 390.167,317.833 391.5,316.5C 388.689,314.856 386.356,312.69 384.5,310C 388.307,307.934 388.307,305.767 384.5,303.5C 386.108,302.682 387.775,302.015 389.5,301.5C 390.304,298.56 391.637,295.893 393.5,293.5C 392.271,292.719 390.938,292.219 389.5,292C 391.569,291.676 391.902,290.842 390.5,289.5C 391.391,288.41 392.391,288.41 393.5,289.5C 395.019,294.564 396.186,294.23 397,288.5C 398.912,287.308 400.912,286.308 403,285.5C 403.614,283.687 403.281,283.353 402,284.5C 401.5,284 401,283.5 400.5,283C 402.731,281.853 405.065,280.853 407.5,280C 406.565,277.619 406.232,275.119 406.5,272.5C 405.325,272.719 404.325,272.386 403.5,271.5C 402.258,269.21 400.592,267.377 398.5,266C 399.833,265 399.833,264 398.5,263C 399.308,262.692 399.975,262.192 400.5,261.5C 398.168,258.02 398.501,255.187 401.5,253C 401.056,251.238 400.556,251.405 400,253.5C 399.833,253 399.667,252.5 399.5,252C 400.758,249.815 400.758,247.648 399.5,245.5C 401.002,240.16 403.335,235.16 406.5,230.5C 406.392,229.558 406.059,228.725 405.5,228C 406.988,226.283 408.821,225.116 411,224.5C 411.74,223.251 411.573,222.251 410.5,221.5C 411.29,220.206 412.29,219.039 413.5,218C 411.75,216.246 411.083,214.079 411.5,211.5C 413.167,211.5 414.833,211.5 416.5,211.5C 416.223,208.552 416.556,205.719 417.5,203C 419.129,202.415 420.629,201.581 422,200.5C 423.714,201.076 424.881,202.243 425.5,204C 425.167,204.333 424.833,204.667 424.5,205C 428.776,202.991 429.109,200.324 425.5,197C 427.959,196.276 428.959,194.943 428.5,193C 429.897,191.69 430.897,190.19 431.5,188.5 Z"/></g>
<g><path style="opacity:1" fill="#b5a24c" d="M 301.5,302.5 C 299.437,305.973 296.937,306.306 294,303.5C 293.829,274.595 293.329,245.761 292.5,217C 276.167,216.333 259.833,216.333 243.5,217C 222.919,262.792 187.919,280.792 138.5,271C 110.597,261.889 88.9302,244.889 73.5,220C 55.5031,219.5 37.5031,219.333 19.5,219.5C 15.5,216.5 15.5,213.5 19.5,210.5C 38.8362,210.333 58.1695,210.5 77.5,211C 82.1223,217.078 86.6223,223.245 91,229.5C 104.974,245.571 122.14,256.737 142.5,263C 177.109,270.025 204.942,259.525 226,231.5C 230.359,224.073 234.525,216.573 238.5,209C 258.833,208.333 279.167,208.333 299.5,209C 301.488,239.943 302.155,271.11 301.5,302.5 Z"/></g>
<g><path style="opacity:1" fill="#b4a14c" d="M 354.5,330.5 C 354.5,330.833 354.5,331.167 354.5,331.5C 352.429,334.512 349.762,335.179 346.5,333.5C 345.507,297.239 345.174,260.906 345.5,224.5C 345.334,220.154 345.501,215.821 346,211.5C 346.833,210 348,208.833 349.5,208C 367.167,207.333 384.833,207.333 402.5,208C 404.648,210.075 404.982,212.408 403.5,215C 387.262,216.47 370.929,216.97 354.5,216.5C 354.5,254.5 354.5,292.5 354.5,330.5 Z"/></g>
<g><path style="opacity:1" fill="#254a4c" d="M 301.5,302.5 C 302.461,300.735 302.795,298.735 302.5,296.5C 304.57,296.551 306.403,295.885 308,294.5C 309.059,294.63 309.892,295.13 310.5,296C 307.456,296.359 307.122,297.026 309.5,298C 308.328,298.419 307.328,299.085 306.5,300C 308.223,300.523 309.556,301.523 310.5,303C 310.005,305.009 310.005,307.176 310.5,309.5C 309.167,309.5 307.833,309.5 306.5,309.5C 306.762,308.022 306.429,306.689 305.5,305.5C 304.304,305.846 304.304,306.346 305.5,307C 304.692,307.308 304.025,307.808 303.5,308.5C 304.711,309.72 304.711,310.887 303.5,312C 304.448,312.483 305.448,312.649 306.5,312.5C 306.5,314.167 306.5,315.833 306.5,317.5C 305.178,317.67 304.011,317.337 303,316.5C 302.98,320.002 301.814,323.002 299.5,325.5C 298.193,324.184 296.693,323.184 295,322.5C 294.517,323.448 294.351,324.448 294.5,325.5C 295.5,325.5 296.5,325.5 297.5,325.5C 297.833,328.167 298.167,330.833 298.5,333.5C 301.728,333.701 304.895,333.367 308,332.5C 308.887,334.254 310.387,335.921 312.5,337.5C 314.459,337.875 316.293,338.541 318,339.5C 320.75,338.709 323.583,338.709 326.5,339.5C 326.5,340.833 326.5,342.167 326.5,343.5C 329.167,342.833 331.833,342.167 334.5,341.5C 334.5,343.5 334.5,345.5 334.5,347.5C 335.833,347.5 337.167,347.5 338.5,347.5C 338.5,345.5 338.5,343.5 338.5,341.5C 340.143,341.48 341.476,342.147 342.5,343.5C 343.696,343.154 343.696,342.654 342.5,342C 343.5,341.667 344.5,341.333 345.5,341C 341.232,337.967 338.898,333.801 338.5,328.5C 339.822,328.33 340.989,328.663 342,329.5C 341.988,332.651 342.988,335.318 345,337.5C 346.525,337.112 348.192,337.112 350,337.5C 350.605,335.519 351.605,335.185 353,336.5C 354.269,335.095 354.769,333.429 354.5,331.5C 354.5,331.167 354.5,330.833 354.5,330.5C 355.167,309.663 355.833,288.663 356.5,267.5C 358.59,263.931 359.59,260.264 359.5,256.5C 360.242,258.35 361.242,259.016 362.5,258.5C 361.975,259.192 361.308,259.692 360.5,260C 361.793,260.49 363.127,260.657 364.5,260.5C 364.204,263.263 363.204,265.763 361.5,268C 363.134,268.494 364.801,268.66 366.5,268.5C 366.227,266.549 366.893,265.049 368.5,264C 366.771,262.211 366.104,260.044 366.5,257.5C 367.833,257.5 369.167,257.5 370.5,257.5C 370.328,255.508 370.995,253.842 372.5,252.5C 371.833,252.167 371.167,251.833 370.5,251.5C 375.694,249.942 375.694,248.942 370.5,248.5C 370.5,245.833 370.5,243.167 370.5,240.5C 371.833,240.5 373.167,240.5 374.5,240.5C 374.5,241.833 374.5,243.167 374.5,244.5C 371.452,244.494 370.952,245.494 373,247.5C 374.693,246.816 376.193,245.816 377.5,244.5C 377.833,244.833 378.167,245.167 378.5,245.5C 377.258,247.733 375.924,249.899 374.5,252C 375.416,252.374 376.25,252.874 377,253.5C 378.113,252.24 378.28,251.073 377.5,250C 379.256,249.798 380.922,249.298 382.5,248.5C 381.833,247.833 381.167,247.167 380.5,246.5C 383.641,244.381 386.974,243.548 390.5,244C 389.167,243 389.167,242 390.5,241C 389.207,240.51 387.873,240.343 386.5,240.5C 386.5,239.167 386.5,237.833 386.5,236.5C 389.525,236.877 392.525,237.044 395.5,237C 394.465,235.493 394.632,233.993 396,232.5C 396.741,233.641 397.575,233.641 398.5,232.5C 399.192,233.025 399.692,233.692 400,234.5C 400.333,234.167 400.667,233.833 401,233.5C 401.93,231.457 402.43,229.624 402.5,228C 401.451,227.508 400.451,227.674 399.5,228.5C 398.682,225.893 398.182,223.226 398,220.5C 396.933,219.809 395.766,219.309 394.5,219C 398.112,219.451 401.779,219.951 405.5,220.5C 405.34,222.199 405.506,223.866 406,225.5C 407.307,223.808 408.807,222.475 410.5,221.5C 411.573,222.251 411.74,223.251 411,224.5C 408.821,225.116 406.988,226.283 405.5,228C 406.059,228.725 406.392,229.558 406.5,230.5C 403.335,235.16 401.002,240.16 399.5,245.5C 400.758,247.648 400.758,249.815 399.5,252C 399.667,252.5 399.833,253 400,253.5C 400.556,251.405 401.056,251.238 401.5,253C 398.501,255.187 398.168,258.02 400.5,261.5C 399.975,262.192 399.308,262.692 398.5,263C 399.833,264 399.833,265 398.5,266C 400.592,267.377 402.258,269.21 403.5,271.5C 404.325,272.386 405.325,272.719 406.5,272.5C 406.232,275.119 406.565,277.619 407.5,280C 405.065,280.853 402.731,281.853 400.5,283C 401,283.5 401.5,284 402,284.5C 403.281,283.353 403.614,283.687 403,285.5C 400.912,286.308 398.912,287.308 397,288.5C 396.186,294.23 395.019,294.564 393.5,289.5C 392.391,288.41 391.391,288.41 390.5,289.5C 391.902,290.842 391.569,291.676 389.5,292C 390.938,292.219 392.271,292.719 393.5,293.5C 391.637,295.893 390.304,298.56 389.5,301.5C 387.775,302.015 386.108,302.682 384.5,303.5C 388.307,305.767 388.307,307.934 384.5,310C 386.356,312.69 388.689,314.856 391.5,316.5C 390.167,317.833 388.833,319.167 387.5,320.5C 387.667,320.833 387.833,321.167 388,321.5C 390.76,318.78 392.594,319.446 393.5,323.5C 392.104,324.852 391.437,326.519 391.5,328.5C 392.333,330.5 392.166,332.166 391,333.5C 387.787,332.177 384.953,332.844 382.5,335.5C 381.232,334.572 379.899,334.405 378.5,335C 381.014,336.452 383.68,337.618 386.5,338.5C 386.709,339.086 387.043,339.586 387.5,340C 384.833,340.667 384.833,341.333 387.5,342C 386.274,343.635 384.941,345.135 383.5,346.5C 382.904,345.284 382.737,343.951 383,342.5C 381.229,343.304 379.729,344.471 378.5,346C 382.5,347 382.5,348 378.5,349C 378.833,349.333 379.167,349.667 379.5,350C 377.681,352.814 375.514,355.314 373,357.5C 371.715,357.05 370.548,356.383 369.5,355.5C 367.736,358.177 366.57,357.844 366,354.5C 364.29,356.38 362.457,358.046 360.5,359.5C 359.136,358.957 357.803,358.79 356.5,359C 357.184,360.827 356.517,362.327 354.5,363.5C 353.144,360.558 351.477,358.558 349.5,357.5C 349.511,358.441 349.011,359.108 348,359.5C 345.152,358.217 342.318,358.217 339.5,359.5C 337.064,357.447 337.398,355.614 340.5,354C 339.5,353.667 338.5,353.333 337.5,353C 339.441,352.257 341.274,352.424 343,353.5C 343.75,352.874 344.584,352.374 345.5,352C 341.992,351.552 338.825,351.052 336,350.5C 334.771,352.947 333.271,353.113 331.5,351C 333.595,350.444 333.762,349.944 332,349.5C 329.331,349.679 326.498,349.846 323.5,350C 324.167,348.667 324.833,347.333 325.5,346C 320.588,344.071 315.922,341.738 311.5,339C 307.376,337.86 303.376,337.36 299.5,337.5C 299.289,339.29 299.289,340.956 299.5,342.5C 297.869,340.941 297.036,338.941 297,336.5C 296.639,339.525 296.139,342.525 295.5,345.5C 295.826,347.977 296.826,350.144 298.5,352C 297.898,353.563 297.065,353.396 296,351.5C 292.69,356.023 293.523,357.023 298.5,354.5C 299.281,355.737 300.281,356.737 301.5,357.5C 303.33,355.973 304.33,356.473 304.5,359C 303.715,360.951 302.715,362.785 301.5,364.5C 303.098,366.973 304.598,366.973 306,364.5C 308.167,366 308,367.167 305.5,368C 307.301,368.317 307.634,368.984 306.5,370C 308.596,370.737 310.263,371.903 311.5,373.5C 227.833,373.5 144.167,373.5 60.5,373.5C 60.8259,370.416 60.1593,367.416 58.5,364.5C 56.2776,364.178 54.4443,364.845 53,366.5C 52.8333,366.167 52.6667,365.833 52.5,365.5C 53.7057,363.206 54.7057,360.873 55.5,358.5C 57.7159,358.725 59.3826,357.892 60.5,356C 55.493,354.488 53.993,351.654 56,347.5C 54.4419,346.655 53.4419,347.321 53,349.5C 52.6667,349.167 52.3333,348.833 52,348.5C 51.3333,349.833 50.6667,351.167 50,352.5C 48.1636,350.93 48.3303,349.43 50.5,348C 48.4596,346.223 46.9596,344.056 46,341.5C 45.586,341.957 45.086,342.291 44.5,342.5C 43.6681,340.064 44.3347,337.897 46.5,336C 44.2852,335.83 42.2852,335.163 40.5,334C 41.8908,332.35 43.3908,331.85 45,332.5C 46.6602,327.985 49.4936,325.318 53.5,324.5C 53.0814,323.328 52.4147,322.328 51.5,321.5C 49.5201,322.484 47.8534,323.817 46.5,325.5C 45.8659,323.433 44.8659,321.6 43.5,320C 45.5535,318.92 47.7202,318.086 50,317.5C 50.4561,316.256 49.9561,315.423 48.5,315C 49.3617,312.266 50.195,312.099 51,314.5C 52.0437,313.377 52.7104,312.044 53,310.5C 53.1294,313.003 54.1294,315.003 56,316.5C 56.2323,314.717 55.7323,313.05 54.5,311.5C 54.737,308.937 55.237,308.937 56,311.5C 56.6377,310.391 57.1377,309.225 57.5,308C 56.8617,303.006 55.8617,298.173 54.5,293.5C 53.448,293.649 52.448,293.483 51.5,293C 52.9774,290.852 54.9774,289.518 57.5,289C 56.6721,288.085 55.6721,287.419 54.5,287C 56.2603,286.035 56.5937,284.868 55.5,283.5C 54.4763,284.853 53.143,285.52 51.5,285.5C 51.4506,282.901 50.4506,280.734 48.5,279C 49.8333,278.333 49.8333,277.667 48.5,277C 49.4491,276.383 50.2825,276.549 51,277.5C 52.2836,271.553 50.9502,270.886 47,275.5C 46.5065,273.866 46.3398,272.199 46.5,270.5C 41.9774,271.023 40.9774,269.69 43.5,266.5C 40.9703,265.868 38.637,264.868 36.5,263.5C 35.2519,264.04 34.0852,264.707 33,265.5C 32.6667,264.833 32.3333,264.167 32,263.5C 31.3109,264.357 30.4776,265.023 29.5,265.5C 24.2805,264.587 24.2805,263.42 29.5,262C 26.9093,261.258 24.5759,260.758 22.5,260.5C 24.7922,257.695 27.4589,255.362 30.5,253.5C 29.8333,253.167 29.1667,252.833 28.5,252.5C 26.952,254.376 24.952,255.376 22.5,255.5C 22.0571,252.376 20.3905,250.043 17.5,248.5C 17.8333,248.167 18.1667,247.833 18.5,247.5C 21.2522,248.475 23.7522,249.142 26,249.5C 28.1667,248 28,246.833 25.5,246C 26.5652,244.371 27.8986,243.204 29.5,242.5C 30.3422,246.426 32.3422,247.259 35.5,245C 32.7164,244.564 31.5498,243.064 32,240.5C 34.3207,241.361 35.4874,240.361 35.5,237.5C 34.448,237.649 33.448,237.483 32.5,237C 34.0911,233.725 33.7577,230.725 31.5,228C 34.1049,225.661 34.4382,223.328 32.5,221C 27.9805,220.825 23.6472,220.325 19.5,219.5C 37.5031,219.333 55.5031,219.5 73.5,220C 88.9302,244.889 110.597,261.889 138.5,271C 187.919,280.792 222.919,262.792 243.5,217C 259.833,216.333 276.167,216.333 292.5,217C 293.329,245.761 293.829,274.595 294,303.5C 296.937,306.306 299.437,305.973 301.5,302.5 Z"/></g>
<g><path style="opacity:1" fill="#7f824b" d="M 219.5,291.5 C 214.003,292.466 208.67,292.466 203.5,291.5C 209.003,290.648 214.336,290.648 219.5,291.5 Z"/></g>
<g><path style="opacity:1" fill="#b7a34c" d="M 203.5,291.5 C 208.67,292.466 214.003,292.466 219.5,291.5C 225.693,291.62 231.36,293.453 236.5,297C 240.061,300.073 243.728,302.906 247.5,305.5C 248.568,306.434 249.901,306.768 251.5,306.5C 251.328,307.492 251.662,308.158 252.5,308.5C 254.382,310.31 256.382,311.977 258.5,313.5C 260.687,315.282 261.02,317.448 259.5,320C 256.518,320.498 253.518,320.665 250.5,320.5C 250.5,325.167 250.5,329.833 250.5,334.5C 249.833,329.319 249.167,323.985 248.5,318.5C 247.893,318.624 247.56,318.957 247.5,319.5C 246.833,319.833 246.167,320.167 245.5,320.5C 244.039,319.314 242.705,319.314 241.5,320.5C 241.167,320.5 240.833,320.5 240.5,320.5C 239.039,319.314 237.705,319.314 236.5,320.5C 231.61,321.827 226.61,322.827 221.5,323.5C 221.977,324.478 222.643,325.311 223.5,326C 227.287,326.16 230.954,326.826 234.5,328C 235.337,329.011 235.67,330.178 235.5,331.5C 230.466,331.336 225.466,331.669 220.5,332.5C 210.961,329.742 201.294,329.075 191.5,330.5C 188.753,330.187 186.086,330.52 183.5,331.5C 183.624,332.107 183.957,332.44 184.5,332.5C 187.335,333.069 189.001,334.736 189.5,337.5C 180.497,336.233 171.497,336.233 162.5,337.5C 162.5,336.167 162.5,334.833 162.5,333.5C 153.79,333.963 145.124,334.796 136.5,336C 131.632,338.477 131.299,341.477 135.5,345C 137.392,345.973 139.392,346.64 141.5,347C 153.618,346.892 165.618,347.892 177.5,350C 181.654,350.644 183.32,352.81 182.5,356.5C 179.995,354.747 177.329,353.247 174.5,352C 162.509,352.464 150.509,352.797 138.5,353C 130.513,351.341 125.513,346.674 123.5,339C 125.439,332.566 129.772,328.733 136.5,327.5C 140.569,326.311 144.569,325.311 148.5,324.5C 152.797,305.379 164.797,294.212 184.5,291C 190.87,290.294 197.203,290.461 203.5,291.5 Z"/></g>
<g><path style="opacity:1" fill="#36564b" d="M 345.5,224.5 C 345.174,260.906 345.507,297.239 346.5,333.5C 345.167,315.679 344.5,297.512 344.5,279C 344.5,260.664 344.833,242.497 345.5,224.5 Z"/></g>
<g><path style="opacity:1" fill="#8c8a4b" d="M 251.5,306.5 C 249.901,306.768 248.568,306.434 247.5,305.5C 248.239,305.631 248.906,305.464 249.5,305C 250.573,302.343 252.24,300.177 254.5,298.5C 255.583,299.365 255.749,300.365 255,301.5C 253.331,302.846 252.164,304.513 251.5,306.5 Z"/></g>
<g><path style="opacity:1" fill="#98914b" d="M 258.5,313.5 C 256.382,311.977 254.382,310.31 252.5,308.5C 263.531,296.04 264.531,296.54 255.5,310C 256.5,310.667 257.5,310.667 258.5,310C 261.158,306.495 264.492,304.995 268.5,305.5C 264.266,307.254 260.932,309.92 258.5,313.5 Z"/></g>
<g><path style="opacity:1" fill="#948f4b" d="M 236.5,320.5 C 237.705,319.314 239.039,319.314 240.5,320.5C 239.883,322.68 238.883,324.68 237.5,326.5C 236.334,324.635 236.667,322.968 238.5,321.5C 238.043,320.702 237.376,320.369 236.5,320.5 Z"/></g>
<g><path style="opacity:1" fill="#938e4b" d="M 241.5,320.5 C 242.705,319.314 244.039,319.314 245.5,320.5C 245.817,323.572 245.484,326.572 244.5,329.5C 244.094,326.061 243.094,323.061 241.5,320.5 Z"/></g>
<g><path style="opacity:1" fill="#80834a" d="M 247.5,319.5 C 247.56,318.957 247.893,318.624 248.5,318.5C 249.167,323.985 249.833,329.319 250.5,334.5C 250.44,335.043 250.107,335.376 249.5,335.5C 248.833,330.015 248.167,324.681 247.5,319.5 Z"/></g>
<g><path style="opacity:1" fill="#747c4a" d="M 148.5,324.5 C 144.569,325.311 140.569,326.311 136.5,327.5C 137.347,326.034 138.68,325.2 140.5,325C 143.146,324.503 145.813,324.336 148.5,324.5 Z"/></g>
<g><path style="opacity:1" fill="#777e49" d="M 191.5,330.5 C 189.167,331.167 186.833,331.833 184.5,332.5C 183.957,332.44 183.624,332.107 183.5,331.5C 186.086,330.52 188.753,330.187 191.5,330.5 Z"/></g>
<g><path style="opacity:1" fill="#2b5052" d="M 431.5,288.5 C 431.5,316.833 431.5,345.167 431.5,373.5C 421.5,373.5 411.5,373.5 401.5,373.5C 402.6,372.442 403.934,371.608 405.5,371C 402.586,370.867 400.253,369.7 398.5,367.5C 399.09,366.201 400.09,365.368 401.5,365C 400.692,364.692 400.025,364.192 399.5,363.5C 400.531,362.3 401.365,360.966 402,359.5C 402.739,361.221 403.573,362.887 404.5,364.5C 406.535,363.959 408.535,363.292 410.5,362.5C 410.167,361.5 409.5,360.833 408.5,360.5C 407.406,362.836 406.073,362.836 404.5,360.5C 405.833,358.833 405.833,357.167 404.5,355.5C 406.898,354.272 408.732,354.938 410,357.5C 410.915,356.672 411.581,355.672 412,354.5C 412.779,355.728 413.779,356.728 415,357.5C 416.649,356.102 417.982,356.436 419,358.5C 419.52,356.711 419.187,355.044 418,353.5C 417.667,353.833 417.333,354.167 417,354.5C 416.5,353.333 415.667,352.5 414.5,352C 415.833,351.333 415.833,350.667 414.5,350C 412.512,349.82 410.512,349.986 408.5,350.5C 408.5,349.5 408.5,348.5 408.5,347.5C 411.166,347.067 413.832,346.567 416.5,346C 415.351,344.256 414.017,344.089 412.5,345.5C 411.521,342.047 410.021,341.714 408,344.5C 407.833,343.833 407.667,343.167 407.5,342.5C 408.43,340.895 408.43,339.395 407.5,338C 412.833,335.667 412.833,333.333 407.5,331C 409.025,329.991 410.692,329.491 412.5,329.5C 412.5,330.5 412.5,331.5 412.5,332.5C 415.09,333.252 417.59,334.252 420,335.5C 421.662,335.612 422.829,334.946 423.5,333.5C 419.862,330.566 416.029,327.899 412,325.5C 411.494,322.326 412.328,319.493 414.5,317C 414,316.5 413.5,316 413,315.5C 411.395,317.825 409.728,320.158 408,322.5C 407.64,320.579 406.806,318.912 405.5,317.5C 406.478,316.199 406.145,315.032 404.5,314C 405.429,311.091 407.429,309.925 410.5,310.5C 410.762,309.022 410.429,307.689 409.5,306.5C 408.914,306.709 408.414,307.043 408,307.5C 403.367,305.554 403.367,303.554 408,301.5C 409.113,302.711 410.28,302.711 411.5,301.5C 412.167,302.5 412.833,303.5 413.5,304.5C 415.426,303.939 417.426,303.773 419.5,304C 418.743,302.488 417.743,301.154 416.5,300C 417.5,299.5 418.5,299 419.5,298.5C 422.007,302.817 424.674,303.15 427.5,299.5C 426.831,296.81 425.497,295.477 423.5,295.5C 426.876,293.779 429.543,291.446 431.5,288.5 Z"/></g>
</svg>
