<svg width="1317" height="283" fill="none" xmlns="http://www.w3.org/2000/svg"><g clip-path="url(#a)" fill="#000"><path d="M673.2 92.64h-40.38V247.7h40.38V92.64zM672.04 39.21c-4.84-4.667-11.33-7-19.47-7-7.94 0-14.427 2.333-19.46 7-4.84 4.453-7.26 10.26-7.26 17.42a22.802 22.802 0 0 0 7.26 17.13c5.04 4.44 11.527 6.66 19.46 6.66 8.14 0 14.63-2.227 19.47-6.68a22.391 22.391 0 0 0 7.55-17.13c0-7.147-2.517-12.947-7.55-17.4zM448.83 146.94c-9.487-8.907-23.433-15.2-41.84-18.88l-35.73-7.26a72.819 72.819 0 0 1-13.95-4.06 30.317 30.317 0 0 1-10.46-7.55 17.87 17.87 0 0 1-3.77-11.62 22.69 22.69 0 0 1 4.1-13.35 27.705 27.705 0 0 1 11.33-9.59c5.04-2.507 11.143-3.763 18.31-3.77a39.721 39.721 0 0 1 19.46 4.64 32.743 32.743 0 0 1 13.37 12.78 38.616 38.616 0 0 1 5.77 19.14h44.76c-.78-14.52-4.947-27.007-12.5-37.46a75.201 75.201 0 0 0-29.63-24.68c-12.2-5.813-26.143-8.72-41.83-8.72-15.107 0-28.57 2.71-40.39 8.13a67.936 67.936 0 0 0-27.65 22.73 57.51 57.51 0 0 0-9.87 33.11 55.742 55.742 0 0 0 4.35 22.65 50.257 50.257 0 0 0 11.92 16.84 66.74 66.74 0 0 0 17.72 11.61 88.527 88.527 0 0 0 22.08 6.68l34.28 6.68c8.913 1.74 15.787 4.643 20.62 8.71 4.853 3.873 7.277 9.1 7.27 15.68a21.998 21.998 0 0 1-4.94 14.23 30.691 30.691 0 0 1-13.66 9.29 55.563 55.563 0 0 1-19.75 3.2c-13.56 0-24.02-3.39-31.38-10.17-7.16-6.773-11.033-15.967-11.62-27.58h-44.71c1.16 14.713 5.423 27.49 12.79 38.33 7.367 10.84 17.437 19.26 30.21 25.26 12.98 5.813 28.183 8.717 45.61 8.71 17.627 0 32.627-2.903 45-8.71 12.593-5.813 22.277-13.75 29.05-23.81 6.78-10.26 10.17-21.973 10.17-35.14.02-15.327-4.81-27.343-14.49-36.05zM526.42 130.97a30.993 30.993 0 0 1 18.3-5.52c9.1 0 16.557 3 22.37 9 6 6 9.487 14.13 10.46 24.39h42.42c-1.547-13.94-5.713-26.04-12.5-36.3a68.813 68.813 0 0 0-26.43-24.12 75.8 75.8 0 0 0-36.32-8.71c-14.52 0-27.497 3.487-38.93 10.46a74.371 74.371 0 0 0-27 28.74c-6.387 12-9.58 25.747-9.58 41.24 0 15.68 3.193 29.617 9.58 41.81a70.944 70.944 0 0 0 26.39 28.46c11.433 6.767 24.603 10.153 39.51 10.16 13.953 0 26.253-2.807 36.9-8.42a69.998 69.998 0 0 0 26.17-23.74c6.78-10.447 10.85-22.74 12.21-36.88h-42.42c-1.16 10.453-4.647 18.68-10.46 24.68-5.62 5.813-13.077 8.717-22.37 8.71a32.261 32.261 0 0 1-18.3-5.22c-5.04-3.68-9.01-8.907-11.91-15.68-2.713-6.78-4.07-14.717-4.07-23.81 0-9.333 1.357-17.27 4.07-23.81a36.885 36.885 0 0 1 11.91-15.44zM821.28 115.87A66.994 66.994 0 0 0 796 96.7a76.997 76.997 0 0 0-33.12-7c-14.913 0-28.18 3.487-39.8 10.46a72.088 72.088 0 0 0-27.31 28.16c-6.58 12-9.87 25.747-9.87 41.24 0 16.06 3.193 30.19 9.58 42.39a69.628 69.628 0 0 0 27 28.46c11.82 6.58 25.487 9.87 41 9.87 18.98 0 34.863-4.84 47.65-14.52 12.787-9.68 21.407-23.23 25.86-40.65h-40.1a33.39 33.39 0 0 1-12.2 17.71c-5.813 4.26-13.173 6.39-22.08 6.39-7.74 0-14.323-1.937-19.75-5.81-5.427-3.873-9.493-9.487-12.2-16.84a66.806 66.806 0 0 1-3.59-16.55h110.19c1.927-12.58 1.44-24.293-1.46-35.14a75.864 75.864 0 0 0-14.52-29zm-93.67 38.62a60.774 60.774 0 0 1 3-12.2c2.9-7.553 6.967-13.263 12.2-17.13 5.233-3.867 11.623-5.803 19.17-5.81 9.493 0 17.143 3.193 22.95 9.58 6 6.2 9.197 14.72 9.59 25.56h-66.91zM936.06 89.73c-10.26 0-19.363 2.227-27.31 6.68a67.284 67.284 0 0 0-20.33 18.3V92.64h-37.19V247.7h40.38v-84.5c0-8.52 1.26-15.49 3.78-20.91a28.73 28.73 0 0 1 10.79-12.49 28 28 0 0 1 15.07-4.38c9.1 0 15.877 3.097 20.33 9.29 4.667 6 7 14.81 7 26.43v86.53h40.1V147.52c0-18.593-4.843-32.823-14.53-42.69-9.7-10.06-22.397-15.093-38.09-15.1zM1057.43 130.97a31 31 0 0 1 18.3-5.52c9.11 0 16.57 3 22.37 9 6 6 9.49 14.13 10.46 24.39h42.42c-1.55-13.94-5.72-26.04-12.5-36.3a68.803 68.803 0 0 0-26.43-24.12 75.807 75.807 0 0 0-36.32-8.71c-14.52 0-27.5 3.487-38.93 10.46a74.42 74.42 0 0 0-27 28.74c-6.39 12-9.58 25.747-9.58 41.24 0 15.68 3.19 29.617 9.58 41.81a70.94 70.94 0 0 0 26.38 28.46c11.43 6.767 24.6 10.153 39.51 10.16 13.95 0 26.25-2.807 36.9-8.42a70.01 70.01 0 0 0 26.18-23.74c6.78-10.447 10.85-22.74 12.21-36.88h-42.42c-1.16 10.453-4.65 18.68-10.46 24.68-5.61 5.813-13.07 8.717-22.37 8.71-6.49.14-12.86-1.68-18.3-5.22-5.04-3.68-9.01-8.907-11.91-15.68-2.71-6.78-4.06-14.717-4.07-23.81 0-9.333 1.36-17.27 4.07-23.81a36.885 36.885 0 0 1 11.91-15.44zM1313.74 144.9a76.048 76.048 0 0 0-14.53-29 66.992 66.992 0 0 0-25.27-19.17 76.994 76.994 0 0 0-33.12-7c-14.92 0-28.19 3.487-39.8 10.46a72.021 72.021 0 0 0-27.31 28.16c-6.59 12-9.88 25.747-9.88 41.24 0 16.06 3.2 30.19 9.59 42.39a69.572 69.572 0 0 0 27 28.46c11.81 6.58 25.47 9.87 41 9.87 18.98 0 34.86-4.84 47.64-14.52 12.78-9.68 21.4-23.23 25.86-40.65h-40.09a33.439 33.439 0 0 1-12.2 17.71c-5.81 4.26-13.17 6.39-22.08 6.39-7.75 0-14.33-1.937-19.76-5.81-5.43-3.873-9.49-9.487-12.2-16.84a66.99 66.99 0 0 1-3.58-16.55h110.17a84.822 84.822 0 0 0-1.44-35.14zm-108.2 9.59a62.44 62.44 0 0 1 3-12.2c2.9-7.553 6.97-13.263 12.2-17.13 5.23-3.867 11.63-5.803 19.18-5.81 9.49 0 17.16 3.193 23 9.58 6 6.2 9.19 14.72 9.58 25.56h-66.96zM202.6 42.49c0-19.24-9.25-32-27.56-37.78C160.24 0 140.52 0 119.59 0S79.01 0 64.18 4.71c-18.17 5.82-27.41 18.54-27.41 37.78 0 25.35 32.76 62.07 55.91 84.87l2.67 3.25L30 118.48v16l48.95 9.09L0 163.42v16.2l91.36-23-.25.27c-23.05 22.9-54.43 58.62-54.43 83.44 0 19.25 9.24 32 27.54 37.78 14.81 4.73 34.52 4.73 55.45 4.73s40.6 0 55.45-4.73c18.29-5.82 27.56-18.53 27.56-37.78 0-25-32-61.17-55.07-84l62.15 11.53v-16l-57.13-10.6 86.72-21.84v-16.2l-91.52 23c23.08-22.8 54.77-58.8 54.77-83.73zm-149.67 0c0-24 19.35-26.34 66.75-26.34s66.77 2.39 66.77 26.39c0 19-32.08 55.56-58.81 80.84h-.1V58.26l-15.73-4.72v69.81h-.18c-26.7-25.37-58.67-61.82-58.7-80.84v-.02zM186.4 240.42c0 24-19.33 26.39-66.77 26.39s-66.75-2.39-66.75-26.39c0-19 32-55.51 58.75-80.78h.18v62l15.73 4.72v-66.79h.1c26.73 25.26 58.76 61.76 58.76 80.85z"/></g><defs><clipPath id="a"><path fill="#fff" d="M0 0h1316.35v282.85H0z"/></clipPath></defs></svg>