<svg xmlns="http://www.w3.org/2000/svg" width="232" height="114" style="shape-rendering:geometricPrecision;text-rendering:geometricPrecision;image-rendering:optimizeQuality;fill-rule:evenodd;clip-rule:evenodd"><path style="opacity:1" fill="#0e1116" d="M-.5-.5h232v114H-.5V-.5z"/><path style="opacity:1" fill="#85898f" d="M188.5 55.5h-6v34c-.995-11.488-1.328-23.155-1-35 2.559-.302 4.893.032 7 1z"/><path style="opacity:1" fill="#e0e5eb" d="M188.5 55.5a60.93 60.93 0 0 0 .5 11c5.281-4.199 10.281-3.866 15 1a90.896 90.896 0 0 1 1.5 22h-7c.166-6.01-.001-12.01-.5-18-2.153-1.944-4.653-2.444-7.5-1.5a11.339 11.339 0 0 0-1.5 3.5 128.508 128.508 0 0 0-.5 16h-6v-34h6z"/><path style="opacity:1" fill="#d7dde2" d="M124.5 57.5h7v6h4v6h-4v15h4v5c-4.103.73-7.603-.27-10.5-3a145.05 145.05 0 0 1-.5-17h-4v-6h4v-6zM141.5 57.5h7v6h4v6h-4v15h4v5c-4.103.73-7.603-.27-10.5-3a145.05 145.05 0 0 1-.5-17h-4v-6h4v-6z"/><path style="opacity:1" fill="#dbe1e6" d="M34.5 63.5c5.539-.862 10.372.472 14.5 4 2.468 2.752 1.8 4.085-2 4a44.535 44.535 0 0 1-7.5-3c-2.896.524-3.563 2.024-2 4.5a136.07 136.07 0 0 0 10 3c4.457 5.135 3.79 9.468-2 13-4 .667-8 .667-12 0-2.808-1.793-4.474-4.293-5-7.5 4.097-.114 7.764.886 11 3 3.012.321 4.345-1.012 4-4-5.115-.198-9.448-2.032-13-5.5-2.18-5.176-.846-9.01 4-11.5z"/><path style="opacity:1" fill="#dae0e5" d="M60.5 63.5c6.481-1.013 11.648.987 15.5 6a8.434 8.434 0 0 1 .5 4c-3.67.803-6.336-.364-8-3.5-7.832-.82-10.665 2.68-8.5 10.5 2.743 4.851 5.91 5.184 9.5 1a13.117 13.117 0 0 1 7-1c-.224 4.062-2.224 6.895-6 8.5-13.28 2.387-19.113-3.113-17.5-16.5 1.268-4.095 3.768-7.095 7.5-9z"/><path style="opacity:1" fill="#e1e6eb" d="M80.5 89.5v-25c2.321-.271 4.321.395 6 2 .607-.124.94-.457 1-1 .11-.617.444-1.117 1-1.5a18.436 18.436 0 0 1 6-.5v6c-2.865-.445-5.365.222-7.5 2-.5 5.99-.666 11.99-.5 18h-6z"/><path style="opacity:1" fill="#dde3e8" d="M102.5 71.5c-2.281.423-3.948-.244-5-2 .754-2.591 2.421-4.424 5-5.5 6.145-1.588 11.311-.088 15.5 4.5.5 6.992.666 13.992.5 21-2.894.458-5.394-.209-7.5-2-3.595 1.956-7.428 2.456-11.5 1.5-4.813-4.041-5.146-8.375-1-13 4.2-1.367 8.533-1.867 13-1.5-.985-6.666-3.985-7.666-9-3z"/><path style="opacity:1" fill="#dae0e5" d="M162.5 63.5c6.481-1.013 11.648.987 15.5 6a8.43 8.43 0 0 1 .5 4c-3.669.803-6.336-.364-8-3.5-7.832-.82-10.665 2.68-8.5 10.5 2.743 4.851 5.91 5.184 9.5 1a13.118 13.118 0 0 1 7-1c-.224 4.062-2.224 6.895-6 8.5-13.28 2.387-19.113-3.113-17.5-16.5 1.268-4.095 3.768-7.095 7.5-9z"/><path style="opacity:1" fill="#a4a9ae" d="M87.5 65.5c-.06.543-.393.876-1 1-1.679-1.605-3.679-2.271-6-2v25c-.993-8.484-1.326-17.15-1-26 3.033-.368 5.7.298 8 2z"/><path style="opacity:1" fill="#65696f" d="M97.5 69.5c1.052 1.756 2.719 2.423 5 2-1.765.961-3.765 1.295-6 1-.237-1.291.096-2.291 1-3z"/><path style="opacity:1" fill="#181a1f" d="M104.5 78.5h7c-.39 5.034-3.056 6.867-8 5.5-1.257-2.076-.924-3.91 1-5.5z"/></svg>