<svg xmlns="http://www.w3.org/2000/svg" width="200" height="200" style="shape-rendering:geometricPrecision;text-rendering:geometricPrecision;image-rendering:optimizeQuality;fill-rule:evenodd;clip-rule:evenodd"><path style="opacity:1" fill="#fefdfd" d="M-.5-.5h200v200H-.5V-.5z"/><path style="opacity:1" fill="#f8f7f5" d="m25.5 86.5 3 2c.11.617.444 1.117 1 1.5 5.417.781 10.75.615 16-.5 1.25-.077 2.083-.744 2.5-2 1.405 3.119 1.905 6.452 1.5 10-1.983-.117-3.65.55-5 2 .825.886 1.825 1.219 3 1 .134 1.792-.2 3.458-1 5-2.51.446-4.51-.22-6-2-3.892-1.853-8.225-2.853-13-3-3.613-2.296-3.947-1.463-1 2.5-3.317.977-5.984.144-8-2.5.13-.876-.203-1.543-1-2-.886.825-1.219 1.825-1 3-1.89.203-3.39-.463-4.5-2-2.74-4.727-4.574-9.727-5.5-15h3v-8c2.745.127 4.745-1.04 6-3.5 3.812-1.207 6.812-.207 9 3l-2 1c.164 2.699.33 5.532.5 8.5.67.752 1.504 1.086 2.5 1z"/><path style="opacity:1" fill="#f7eae9" d="M158.5 84.5c-1.135.975-2.135 2.141-3 3.5a77.086 77.086 0 0 1 0 24c.916.278 1.582.778 2 1.5a74.124 74.124 0 0 0-6 7.5c-1.401.41-2.734.91-4 1.5a31.147 31.147 0 0 0-2-2c1.373-4.639-.294-7.639-5-9a8.43 8.43 0 0 1-.5 4c-1.587.158-3.087-.509-4.5-2a76.246 76.246 0 0 1 2-12 5.727 5.727 0 0 1 3 1 42.937 42.937 0 0 0 6 9c.587 2.255 1.92 3.921 4 5 1.213-.247 1.88-.914 2-2a830.742 830.742 0 0 0 2-24.5l-1-3.5a27.52 27.52 0 0 0-5 9 5.727 5.727 0 0 1-1 3c-1.459.067-2.792-.266-4-1a250.593 250.593 0 0 1-3.5-12c-2.574-1.42-4.407-.753-5.5 2-.16-1.7.006-3.366.5-5 2.582 1.46 4.415.794 5.5-2 1.937 1.206 3.604.873 5-1a59.712 59.712 0 0 1 5.5-8 35.727 35.727 0 0 1 3 9c.876 2.135 2.376 3.469 4.5 4z"/><path style="opacity:1" fill="#f4dcd8" d="M70.5 77.5c1.677.683 2.343 2.017 2 4a74.366 74.366 0 0 1 10.5-2c2.36.004 4.527.337 6.5 1a50.441 50.441 0 0 0-10 .5c-1.833.5-3 1.667-3.5 3.5a341.676 341.676 0 0 1-2.5 19.5 19.347 19.347 0 0 0 2 7.5c-.997.03-1.664-.47-2-1.5a62.082 62.082 0 0 1-2.5-8.5c-1.011.837-2.178 1.17-3.5 1a301.462 301.462 0 0 1 3-4c.647-.774.98-1.774 1-3 .16-1.855-.507-3.188-2-4-.342-.838-1.008-1.172-2-1a5.728 5.728 0 0 1-1-3c4.902-1.765 6.236-5.098 4-10z"/><path style="opacity:1" fill="#f8ecea" d="M44.5 36.5a312.494 312.494 0 0 0-3 8 226.596 226.596 0 0 1 18 0c.49 5.018 1.824 9.684 4 14l1 4c1.085 2.082 2.585 2.416 4.5 1l1-14a25.61 25.61 0 0 1 3.5 10v4c-1.109.79-2.442 1.29-4 1.5l2 3a20.435 20.435 0 0 0-5.5 1.5 3.646 3.646 0 0 0-1.5-1c-2.549 1.25-3.882 3.25-4 6 2.177-.086 4.177-.753 6-2l3 1.5-1 1c.88.708 1.547 1.542 2 2.5-6.4-3.583-11.567-2.25-15.5 4-1.707 2.409-2.54 5.076-2.5 8-2.436 12.897 2.564 17.23 15 13 1.322.17 2.489-.163 3.5-1a62.082 62.082 0 0 0 2.5 8.5c.336 1.03 1.003 1.53 2 1.5h3v-13a30.943 30.943 0 0 0 2-2c.586.21 1.086.543 1.5 1 .234 5.038 1.401 9.705 3.5 14 .87 2.099 2.203 2.432 4 1 1.306-1.412 2.14-3.079 2.5-5 .942 2.874 2.11 5.54 3.5 8 1.6 2.229 3.6 2.562 6 1 .897 1.098 1.73 1.098 2.5 0a10.134 10.134 0 0 1 1.5 4c-2.098-1.414-3.098-.748-3 2a18.453 18.453 0 0 1 6 .5l-4 1c.752.671 1.086 1.504 1 2.5a115.601 115.601 0 0 1-12-5.5c-2.867-.801-5.534-.634-8 .5-5.787-.894-10.787-3.394-15-7.5-6.133-1.11-11.8-3.276-17-6.5a4.458 4.458 0 0 1 2-1.5c-1.921-.36-3.588-1.194-5-2.5-1.211.774-1.211 1.607 0 2.5-1.566.765-2.9.598-4-.5.8-1.542 1.134-3.208 1-5-1.175.219-2.175-.114-3-1 1.35-1.45 3.017-2.117 5-2 .405-3.548-.095-6.881-1.5-10-.417 1.256-1.25 1.923-2.5 2v-1c2.737-2.697 3.404-5.697 2-9-2.15-2.915-5.15-4.582-9-5-1.49-1.78-3.49-2.447-6-2-2.422-1.492-3.088-3.492-2-6 2.027 1.839 4.36 2.339 7 1.5a4.938 4.938 0 0 0 1-2.5c-.574-2.562-1.907-4.562-4-6-2.131-.814-4.464-1.314-7-1.5 1.473-.71 2.14-1.876 2-3.5.742-6.577 4.409-10.41 11-11.5a3.943 3.943 0 0 1-1-2 31.87 31.87 0 0 1 5-4.5z"/><path style="opacity:1" fill="#fbfaf9" d="M100.5 55.5v-2c1.278.282 2.278.949 3 2a6.544 6.544 0 0 0 3 3c.291 1.15 1.124 1.816 2.5 2a53.508 53.508 0 0 0 4.5-1c1.424-2.014 2.09-4.348 2-7h4c-.943 6.499.724 12.166 5 17 3.165-.051 6.498-.218 10-.5.556-.383.889-.883 1-1.5 2.914-.305 5.581-.305 8 0v3c-2.105 2.908-3.105 6.242-3 10-1.085 2.794-2.918 3.46-5.5 2a12.93 12.93 0 0 0-.5 5v2c-2.588 1.748-4.921 3.082-7 4-.356-1.37-1.19-2.37-2.5-3-2.435.93-3.935 2.597-4.5 5h-3a12.93 12.93 0 0 1-.5 5l-1-13c-1.347-1.966-2.847-2.3-4.5-1-7.687-4.24-12.854-2.24-15.5 6a50.441 50.441 0 0 0-.5 10v3c-3.817 1.527-5.817.193-6-4-.255-2.467-1.255-4.467-3-6 1.335-2.297 3.168-4.297 5.5-6a12.5 12.5 0 0 0 0-7c-.708-.88-1.542-1.547-2.5-2-1.973-.663-4.14-.996-6.5-1a74.366 74.366 0 0 0-10.5 2c.343-1.983-.323-3.317-2-4-.453-.958-1.12-1.792-2-2.5l1-1-3-1.5c-1.823 1.247-3.823 1.914-6 2 .118-2.75 1.451-4.75 4-6 .586.21 1.086.543 1.5 1a20.435 20.435 0 0 1 5.5-1.5l-2-3c1.558-.21 2.891-.71 4-1.5h7l2-5 3 2a2.428 2.428 0 0 0 2-.5 19.606 19.606 0 0 1 2-3.5 51.209 51.209 0 0 1 2.5-4 33.995 33.995 0 0 0 1.5 7.5c2.251-.207 4.585-.373 7-.5v-4z"/><path style="opacity:1" fill="#6b4241" d="M114.5 19.5a13.224 13.224 0 0 1 2 5 60.94 60.94 0 0 1 11 .5 478.843 478.843 0 0 0 31 15c3.588 3.93 7.921 6.597 13 8a708.694 708.694 0 0 0 16 17.5 16.08 16.08 0 0 1 2 5 18.452 18.452 0 0 0 .5 6c3.98 4.654 4.48 9.654 1.5 15 1.446 2.118 2.113 4.451 2 7a1346.338 1346.338 0 0 1-6 7c-4.426 2.534-8.426 5.534-12 9a47.404 47.404 0 0 0-8 4.5h-12l-5 5a54.628 54.628 0 0 0-7 2c-1.527 2.69-3.527 4.857-6 6.5-10.093 2.822-19.927 2.155-29.5-2a26.505 26.505 0 0 0-4.5 4c-4.503 4.251-9.836 6.918-16 8-.709-.904-1.709-1.237-3-1v-1c8.808-.237 15.808-3.904 21-11-5.442-4.781-11.776-7.115-19-7 0-.667-.333-1-1-1 2.466-1.134 5.133-1.301 8-.5a115.601 115.601 0 0 0 12 5.5 32.462 32.462 0 0 1 8 .5c-3.737 1.668-3.737 3.001 0 4 7.814 2.207 15.481 1.874 23-1 2.752-3.932 6.419-6.432 11-7.5a28.208 28.208 0 0 1 4-1.5 74.124 74.124 0 0 1 6-7.5 5.576 5.576 0 0 1-1 3c5.81 1.824 11.143.991 16-2.5a180.04 180.04 0 0 0 17.5-13.5c1.827-2.086 1.827-4.086 0-6-1.392 2.342-2.225 2.342-2.5 0 1.663-1.939 2.329-4.272 2-7h3c-.007-4.683-1.674-8.683-5-12 1.333-1.667 1.333-3.333 0-5a27.208 27.208 0 0 1-6-8c-1.44-1.452-3.106-2.452-5-3-3.83.004-4.83-1.663-3-5a5.575 5.575 0 0 0-1-3 122.042 122.042 0 0 0-13-7c-1.208-2.544-3.208-3.877-6-4-1.549-1.905-3.382-2.239-5.5-1-5.949-5.395-12.782-9.395-20.5-12-1.101-1.098-2.434-1.265-4-.5 2.832 1.908 2.499 2.741-1 2.5.03-.997-.47-1.664-1.5-2-4.184-.714-7.684-2.547-10.5-5.5-3.292-.936-6.292-.436-9 1.5l-1-.5c1.894-1.101 2.561-2.434 2-4a24.94 24.94 0 0 0-7-.5c1.534 4.568.534 5.068-3 1.5-2.456-.946-4.456-.446-6 1.5 2.536 5.1 1.87 5.267-2 .5a14.388 14.388 0 0 0-6.5-1.5A360.67 360.67 0 0 1 61.5 24L56 27.5a20.216 20.216 0 0 1-1.5 6 6.807 6.807 0 0 1-1.5-3 66.001 66.001 0 0 1-8.5 6 31.87 31.87 0 0 0-5 4.5 3.943 3.943 0 0 0 1 2c-6.591 1.09-10.258 4.923-11 11.5a1174.7 1174.7 0 0 1-6 4c-1.797-2.596-3.13-2.263-4 1 2.576 1.383 2.242 2.217-1 2.5-2.458 1.788-4.124 4.12-5 7 .336 1.03 1.003 1.53 2 1.5-3.24.644-5.24 2.644-6 6v8h-3c.926 5.273 2.76 10.273 5.5 15 1.11 1.537 2.61 2.203 4.5 2-.219-1.175.114-2.175 1-3 .797.457 1.13 1.124 1 2l-3 3c-2.216-.703-4.049-2.036-5.5-4l-5-10c.212-5.851 1.545-11.518 4-17l10-16c1.841-2.678 4.341-4.344 7.5-5a99.57 99.57 0 0 1 21-20 99.938 99.938 0 0 0 10-7.5 53.512 53.512 0 0 0 15-5 223.025 223.025 0 0 0 26-2.5c2.729-.205 5.062.628 7 2.5 2.982.498 5.982.665 9 .5z"/><path style="opacity:1" fill="#6a1b19" d="M26.5 78.5h4v1h-3c-1.474 2.826-1.14 5.326 1 7.5 4.963 1.71 9.963 1.876 15 .5l4-8c1.404 3.303.737 6.303-2 9-5.667 1.333-11.333 1.333-17 0l-3-2a53.543 53.543 0 0 1-1-4.5c-.113-1.7.553-2.866 2-3.5z"/><path style="opacity:1" fill="#7b090b" d="m47.5 79.5-4 8c-5.037 1.376-10.037 1.21-15-.5-2.14-2.174-2.474-4.674-1-7.5h3c1.96 1.812 4.294 2.812 7 3 .215-1.679-.452-2.679-2-3v-3c4.176.43 8.176 1.43 12 3z"/><path style="opacity:1" fill="#72211e" d="M175.5 68.5c8.305 4.958 11.472 12.291 9.5 22-.374 1.991-1.207 3.658-2.5 5a55.328 55.328 0 0 0 .5-16c-2.039-4.109-4.539-7.775-7.5-11z"/><path style="opacity:1" fill="#6a1714" d="M70.5 77.5c2.236 4.902.902 8.235-4 10-.65.304-1.317.637-2 1-3.304-1.346-6.304-3.013-9-5 .114 2.716-.886 4.716-3 6-.04-2.924.793-5.591 2.5-8 3.933-6.25 9.1-7.583 15.5-4z"/><path style="opacity:1" fill="#f7cfcd" d="M59.5 80.5h6c.485 4.659-1.348 5.992-5.5 4a8.434 8.434 0 0 1-.5-4z"/><path style="opacity:1" fill="#f3cac7" d="m31.5 77.5 4 2c1.548.321 2.215 1.321 2 3-2.706-.188-5.04-1.188-7-3v-1c0-.667.333-1 1-1z"/><path style="opacity:1" fill="#6b302a" d="M143.5 70.5c-.555 3.512.112 6.512 2 9-1.396 1.873-3.063 2.206-5 1-.105-3.758.895-7.092 3-10z"/><path style="opacity:1" fill="#c27d7d" d="M27.5 75.5c1.653.16 2.986.826 4 2-.667 0-1 .333-1 1h-4c.418-.722 1.084-1.222 2-1.5-.556-.383-.89-.883-1-1.5z"/><path style="opacity:1" fill="#731614" d="M164.5 54.5c2.371 2.497 3.371 5.497 3 9-2.279 2.942-5.279 4.609-9 5 1.059 5.491 1.059 10.825 0 16-2.124-.531-3.624-1.865-4.5-4a35.727 35.727 0 0 0-3-9 59.712 59.712 0 0 0-5.5 8c-.147-4.036 1.353-7.37 4.5-10 .528-5.988 2.194-5.988 5 0 .909-2.157 1.075-4.157.5-6h4v-6c-4.625-.605-6.292 1.061-5 5v1c-1.664-1.449-2.498-3.449-2.5-6l-3 2c-.267 4.389-2.1 7.722-5.5 10v-2c2.106-4.865 4.772-9.532 8-14l4-1a47.635 47.635 0 0 1 9 2z"/><path style="opacity:1" fill="#741717" d="M34.5 59.5c2.093 1.438 3.426 3.438 4 6a4.938 4.938 0 0 1-1 2.5c-2.64.839-4.973.339-7-1.5-1.088 2.508-.422 4.508 2 6 1.602 1.574 3.602 2.24 6 2 3.85.418 6.85 2.085 9 5a42.989 42.989 0 0 0-12-3v3l-4-2c-1.014-1.174-2.347-1.84-4-2-4.63-2.591-6.63-6.591-6-12 3.573-3.502 7.906-4.836 13-4z"/><path style="opacity:1" fill="#661e1b" d="M55.5 63.5c3.668 1.892 4.835 4.892 3.5 9-2.305 2.43-5.138 3.43-8.5 3-1.42-2.761-2.087-5.761-2-9 1.98 1.347 3.147 3.347 3.5 6 3.417 1.536 5.25.369 5.5-3.5a24.321 24.321 0 0 0-2-5.5z"/><path style="opacity:1" fill="#e6adaf" d="M32.5 72.5c2.51-.447 4.51.22 6 2-2.398.24-4.398-.426-6-2z"/><path style="opacity:1" fill="#f7e9e6" d="M21.5 63.5c-.63 5.409 1.37 9.409 6 12 .11.617.444 1.117 1 1.5-.916.278-1.582.778-2 1.5-1.447.634-2.113 1.8-2 3.5a53.543 53.543 0 0 0 1 4.5c-.996.086-1.83-.248-2.5-1-.17-2.968-.336-5.801-.5-8.5l2-1c-2.188-3.207-5.188-4.207-9-3-1.255 2.46-3.255 3.627-6 3.5.76-3.356 2.76-5.356 6-6-1-1.289-.834-2.622.5-4l4-4c.383.556.883.89 1.5 1z"/><path style="opacity:1" fill="#f7e7e8" d="M176.5 59.5c1.894.548 3.56 1.548 5 3a27.208 27.208 0 0 0 6 8c1.333 1.667 1.333 3.333 0 5 3.326 3.317 4.993 7.317 5 12h-3c.329 2.728-.337 5.061-2 7-.139-1.837-.806-2.17-2-1a11.987 11.987 0 0 0-1 6 51.585 51.585 0 0 0-7 1c2-1.333 3.667-3 5-5 1.293-1.342 2.126-3.009 2.5-5 1.972-9.709-1.195-17.042-9.5-22v-1c1.267.587 2.267.587 3 0-1.115-1.098-1.115-2.265 0-3.5a565.208 565.208 0 0 1-3-2c.243-.902.577-1.735 1-2.5z"/><path style="opacity:1" fill="#8f5053" d="M174.5 66.5c.667 0 1 .333 1 1-1.478-.262-2.811.071-4 1-.96 4.034-2.293 7.701-4 11a232.051 232.051 0 0 1 2.5-12c1.356-.88 2.856-1.213 4.5-1z"/><path style="opacity:1" fill="#f8f8f3" d="M173.5 54.5c-1.83 3.337-.83 5.004 3 5a11.114 11.114 0 0 0-1 2.5c.854.574 1.854 1.24 3 2-1.115 1.235-1.115 2.402 0 3.5-.733.587-1.733.587-3 0 0-.667-.333-1-1-1-2.018-.547-3.851-1.547-5.5-3-.779 2.597-1.279 2.597-1.5 0 .371-3.503-.629-6.503-3-9a2.429 2.429 0 0 1 .5-2c2.93-.522 5.763.145 8.5 2z"/><path style="opacity:1" fill="#7b0506" d="M154.5 63.5h1c.575 1.843.409 3.843-.5 6-2.806-5.988-4.472-5.988-5 0-3.147 2.63-4.647 5.964-4.5 10-1.888-2.488-2.555-5.488-2-9v-1c3.4-2.278 5.233-5.611 5.5-10l3-2c.002 2.551.836 4.551 2.5 6z"/><path style="opacity:1" fill="#d2b7b8" d="M79.5 47.5c.988 5.14 1.321 10.474 1 16h-7v-4c1.423 2.045 3.423 3.045 6 3v-15z"/><path style="opacity:1" fill="#e9c1be" d="M29.5 54.5c.14 1.624-.527 2.79-2 3.5 2.536.186 4.869.686 7 1.5-5.094-.836-9.427.498-13 4-.617-.11-1.117-.444-1.5-1l-4 4c-1.334 1.378-1.5 2.711-.5 4-.997.03-1.664-.47-2-1.5.876-2.88 2.542-5.212 5-7 3.242-.283 3.576-1.117 1-2.5.87-3.263 2.203-3.596 4-1a1174.7 1174.7 0 0 0 6-4z"/><path style="opacity:1" fill="#f8eae5" d="M159.5 60.5v3h-5v-4c1.716.129 3.383.462 5 1z"/><path style="opacity:1" fill="#f1bbbc" d="M159.5 60.5a20.676 20.676 0 0 0-5-1v3c-1.292-3.939.375-5.605 5-5v3z"/><path style="opacity:1" fill="#702a2c" d="M111.5 53.5c1.574 1.602 2.241 3.602 2 6a53.508 53.508 0 0 1-4.5 1c-1.376-.184-2.209-.85-2.5-2h5v-5z"/><path style="opacity:1" fill="#770a0c" d="M112.5 39.5c-.838.342-1.172 1.008-1 2l-2 6a31.705 31.705 0 0 1 2 6v5h-5a6.544 6.544 0 0 1-3-3 46.925 46.925 0 0 1 2-16c4.707-5.459 10.373-6.792 17-4 .886.825 1.219 1.825 1 3-3.871-.315-7.538.018-11 1z"/><path style="opacity:1" fill="#b47a75" d="M83.5 47.5v4c-.295 2.235.039 4.235 1 6 .61.891.943 1.891 1 3l-3-2c-.315-3.871.018-7.538 1-11z"/><path style="opacity:1" fill="#f5d5d2" d="M100.5 55.5v4c-2.415.127-4.749.293-7 .5a33.995 33.995 0 0 1-1.5-7.5 51.209 51.209 0 0 0-2.5 4 60.94 60.94 0 0 1 .5-11 92.516 92.516 0 0 1 5.5 12c.865 1.083 1.865 1.25 3 .5.566-.995 1.233-1.828 2-2.5z"/><path style="opacity:1" fill="#79080d" d="M84.5 57.5c-.961-1.765-1.295-3.765-1-6 1.613-.444 2.78-1.444 3.5-3 .498 2.982.665 5.982.5 9h-3z"/><path style="opacity:1" fill="#e9c5c0" d="M101.5 29.5c1.261 2.758 2.094 5.758 2.5 9 .278-.916.778-1.583 1.5-2v3a46.925 46.925 0 0 0-2 16c-.722-1.051-1.722-1.718-3-2a216.934 216.934 0 0 0 1-24z"/><path style="opacity:1" fill="#770d0e" d="M40.5 47.5h3c3.726-.323 7.393.01 11 1-1.124 1.36-2.458 2.36-4 3 .593 4.51 2.26 8.51 5 12a24.321 24.321 0 0 1 2 5.5c-.25 3.869-2.083 5.036-5.5 3.5-.353-2.653-1.52-4.653-3.5-6 .297-4.411-.87-8.411-3.5-12-1.615-1.3-3.115-1.3-4.5 0h-4c.461-2.803 1.795-5.137 4-7z"/><path style="opacity:1" fill="#803d3f" d="M40.5 47.5c-2.205 1.863-3.539 4.197-4 7h4c-4.961 2.173-6.628.673-5-4.5a19.16 19.16 0 0 1 5-2.5z"/><path style="opacity:1" fill="#f7e9e6" d="M127.5 27.5c7.718 2.605 14.551 6.605 20.5 12 2.118-1.239 3.951-.905 5.5 1-4.515.228-8.848-.438-13-2v4c-5.995-3.388-11.162-2.388-15.5 3-5.386 8.324-4.552 15.824 2.5 22.5 2.721.602 5.387.435 8-.5-.111.617-.444 1.117-1 1.5-3.502.282-6.835.449-10 .5-4.276-4.834-5.943-10.501-5-17h-4c.09 2.652-.576 4.986-2 7 .241-2.398-.426-4.398-2-6a31.705 31.705 0 0 0-2-6h9c-.372-4.05-2.705-6.05-7-6-.172-.992.162-1.658 1-2h14v-4c-.383-1.908-1.383-3.408-3-4.5l4-1c-1.098-.77-1.098-1.603 0-2.5z"/><path style="opacity:1" fill="#6e1f1e" d="M79.5 58.5v4c-2.577.045-4.577-.955-6-3a25.61 25.61 0 0 0-3.5-10l-1 14c-1.915 1.416-3.415 1.082-4.5-1 1.624.14 2.79-.527 3.5-2 .499-4.32.666-8.654.5-13h4a103.4 103.4 0 0 0 3 11h4z"/><path style="opacity:1" fill="#78070a" d="M63.5 31.5c2.235-.295 4.235.039 6 1 .28 2.888-1.053 4.388-4 4.5.556.383.89.883 1 1.5-.667 0-1 .333-1 1-1.22 1.55-1.22 3.216 0 5 .291 1.15 1.124 1.816 2.5 2 2.524-.678 4.69-2.011 6.5-4a24.69 24.69 0 0 1 3.5 10c.383-.556.883-.89 1.5-1v7h-4a103.4 103.4 0 0 1-3-11h-4a84.938 84.938 0 0 1-.5 13c-.71 1.473-1.876 2.14-3.5 2l-1-4c-2.547-9.046-2.547-18.046 0-27z"/><path style="opacity:1" fill="#731414" d="M101.5 29.5c.11 8.025-.224 16.025-1 24v2c-.767.672-1.434 1.505-2 2.5-1.135.75-2.135.583-3-.5a92.516 92.516 0 0 0-5.5-12 60.94 60.94 0 0 0-.5 11 19.606 19.606 0 0 0-2 3.5 2.428 2.428 0 0 1-2 .5 5.728 5.728 0 0 0-1-3h3a40.936 40.936 0 0 0-.5-9c-.72 1.556-1.887 2.556-3.5 3v-4a188.804 188.804 0 0 1 2-12c1.474-.936 2.474-2.27 3-4 2.19 1.302 4.19 2.969 6 5 1.888-2.294 3.222-4.96 4-8 1.552-1.298 2.552-.965 3 1z"/><path style="opacity:1" fill="#713331" d="M50.5 51.5c1.542-.64 2.876-1.64 4-3a31.121 31.121 0 0 0-11-1c4.104-2.05 8.437-2.384 13-1 1.254 1.76.92 3.26-1 4.5-1.634.493-3.3.66-5 .5z"/><path style="opacity:1" fill="#77201c" d="M140.5 42.5c0 .667.333 1 1 1 3.57 9.306 1.57 17.306-6 24-2.613.935-5.279 1.102-8 .5-7.052-6.676-7.886-14.176-2.5-22.5 4.338-5.388 9.505-6.388 15.5-3z"/><path style="opacity:1" fill="#800304" d="M125.5 46.5a74.215 74.215 0 0 0 5 10l2.5 1c1.887-.469 3.387-1.469 4.5-3 .821 2.947.821 5.947 0 9h-3v3h-7a72.14 72.14 0 0 1-3-8 45.744 45.744 0 0 0 1-12z"/><path style="opacity:1" fill="#faf1ef" d="M130.5 47.5c5.426-.916 7.093 1.084 5 6-1.929.27-3.595-.23-5-1.5.466-1.299.466-2.799 0-4.5z"/><path style="opacity:1" fill="#e3b3b3" d="M130.5 47.5c.466 1.701.466 3.201 0 4.5 1.405 1.27 3.071 1.77 5 1.5-4.843 2-7.009.333-6.5-5 .383-.556.883-.89 1.5-1z"/><path style="opacity:1" fill="#6e1918" d="M111.5 41.5c4.295-.05 6.628 1.95 7 6h-9l2-6z"/><path style="opacity:1" fill="#721e1b" d="M69.5 32.5c6.054 3.089 9.388 8.089 10 15v4c-.617.11-1.117.444-1.5 1a24.69 24.69 0 0 0-3.5-10c-1.81 1.989-3.976 3.322-6.5 4-1.376-.184-2.209-.85-2.5-2 1.915.285 3.581-.049 5-1 .951-1.419 1.284-3.085 1-5h-5c-.11-.617-.444-1.117-1-1.5 2.947-.112 4.28-1.612 4-4.5z"/><path style="opacity:1" fill="#f8faf8" d="M153.5 40.5c2.792.123 4.792 1.456 6 4v3h4a8.43 8.43 0 0 1-.5 4 239.62 239.62 0 0 0-15.5-1 6.845 6.845 0 0 1 1-4 15.442 15.442 0 0 0-7-3c-.667 0-1-.333-1-1v-4c4.152 1.562 8.485 2.228 13 2z"/><path style="opacity:1" fill="#f8ebec" d="M141.5 43.5a15.442 15.442 0 0 1 7 3 6.845 6.845 0 0 0-1 4c5.356.177 10.522.51 15.5 1a8.43 8.43 0 0 0 .5-4h-4v-3a122.042 122.042 0 0 1 13 7 5.575 5.575 0 0 1 1 3c-2.737-1.855-5.57-2.522-8.5-2a2.429 2.429 0 0 0-.5 2 47.635 47.635 0 0 0-9-2l-4 1c-3.228 4.468-5.894 9.135-8 14-2.419-.305-5.086-.305-8 0 7.57-6.694 9.57-14.694 6-24z"/><path style="opacity:1" fill="#7b3732" d="M63.5 31.5c-2.547 8.954-2.547 17.954 0 27-2.176-4.316-3.51-8.982-4-14-.641-5.07.692-9.403 4-13z"/><path style="opacity:1" fill="#830202" d="M89.5 38.5c2.674 1.203 5.34 1.203 8 0a21.12 21.12 0 0 1 1 9 35.631 35.631 0 0 1-7-3.5c-1.655-1.444-2.322-3.278-2-5.5z"/><path style="opacity:1" fill="#f9f3f1" d="M122.5 29.5c-.111.617-.444 1.117-1 1.5-4.655.5-9.321.666-14 .5v3c-1 .333-1.667 1-2 2-.722.417-1.222 1.084-1.5 2-.406-3.242-1.239-6.242-2.5-9-.448-1.965-1.448-2.298-3-1-.778 3.04-2.112 5.706-4 8-1.81-2.031-3.81-3.698-6-5-1.946.535-2.946 1.868-3 4a188.804 188.804 0 0 0-2 12c-.982 3.462-1.315 7.129-1 11l-2 5c.321-5.526-.012-10.86-1-16-.612-6.911-3.946-11.911-10-15-1.765-.961-3.765-1.295-6-1-3.308 3.597-4.641 7.93-4 13a226.596 226.596 0 0 0-18 0c.949-2.64 1.949-5.307 3-8a66.001 66.001 0 0 0 8.5-6 6.807 6.807 0 0 0 1.5 3 20.216 20.216 0 0 0 1.5-6l5.5-3.5A360.67 360.67 0 0 0 78 20.5c2.3-.006 4.466.494 6.5 1.5 3.87 4.767 4.536 4.6 2-.5 1.544-1.946 3.544-2.446 6-1.5 3.534 3.568 4.534 3.068 3-1.5a24.94 24.94 0 0 1 7 .5c.561 1.566-.106 2.899-2 4l1 .5c2.708-1.936 5.708-2.436 9-1.5 2.816 2.953 6.316 4.786 10.5 5.5 1.03.336 1.53 1.003 1.5 2z"/><path style="opacity:1" fill="#d39f9c" d="M65.5 39.5c-.116 3.41 1.55 4.744 5 4-1.419.951-3.085 1.285-5 1-1.22-1.784-1.22-3.45 0-5z"/><path style="opacity:1" fill="#fdece7" d="M66.5 38.5h5c.284 1.915-.049 3.581-1 5-3.45.744-5.116-.59-5-4 0-.667.333-1 1-1z"/><path style="opacity:1" fill="#bc817b" d="M88.5 31.5c-.526 1.73-1.526 3.064-3 4 .054-2.132 1.054-3.465 3-4z"/><path style="opacity:1" fill="#68201c" d="M126.5 35.5v4h-14c3.462-.982 7.129-1.315 11-1 .219-1.175-.114-2.175-1-3-6.627-2.792-12.293-1.459-17 4v-3c.333-1 1-1.667 2-2 4.376-2.034 9.043-2.534 14-1.5 1.41 1.372 3.077 2.205 5 2.5z"/><path style="opacity:1" fill="#efd3cd" d="M127.5 27.5c-1.098.897-1.098 1.73 0 2.5l-4 1c1.617 1.092 2.617 2.592 3 4.5-1.923-.295-3.59-1.128-5-2.5-4.957-1.034-9.624-.534-14 1.5v-3c4.679.166 9.345 0 14-.5.556-.383.889-.883 1-1.5 3.499.241 3.832-.592 1-2.5 1.566-.765 2.899-.598 4 .5z"/><path style="opacity:1" fill="#f7e6e5" d="M114.5 19.5a40.939 40.939 0 0 1-9-.5c-1.938-1.872-4.271-2.705-7-2.5a223.025 223.025 0 0 1-26 2.5 53.512 53.512 0 0 1-15 5 99.938 99.938 0 0 1-10 7.5c-.667-3.333.667-5.333 4-6a32.367 32.367 0 0 0 3-4.5c1.921-.36 3.588-1.194 5-2.5 1.934.4 3.434 1.4 4.5 3a11.362 11.362 0 0 1 3.5-1.5l-2-1c3.133-.96 6.3-1.793 9.5-2.5 2.906.385 5.74.718 8.5 1 8.62-2.403 17.121-2.403 25.5 0 2.631-1.536 4.465-.87 5.5 2z"/><path style="opacity:1" fill="#be908c" d="M28.5 88.5c5.667 1.333 11.333 1.333 17 0v1c-5.25 1.115-10.583 1.281-16 .5-.556-.383-.89-.883-1-1.5z"/><path style="opacity:1" fill="#f6e4e1" d="M189.5 70.5c1.575 2.025 3.408 4.025 5.5 6 .626 2.213.459 4.38-.5 6.5a22.697 22.697 0 0 0 2 5c-1.955 2.168-2.621 4.502-2 7 2.112 1.217 1.779 2.383-1 3.5.113-2.549-.554-4.882-2-7 2.98-5.346 2.48-10.346-1.5-15a18.452 18.452 0 0 1-.5-6z"/><path style="opacity:1" fill="#f9e6e4" d="M134.5 89.5a19.222 19.222 0 0 0-1 6c-.79 1.109-1.29 2.442-1.5 4a128.507 128.507 0 0 0-.5 16c1.699-.027 3.033-.694 4-2 1.195 2.756.028 4.09-3.5 4-1.326-.255-2.326-.922-3-2-.278.916-.778 1.582-1.5 2a82.49 82.49 0 0 0 0-24c2.079-.918 4.412-2.252 7-4z"/><path style="opacity:1" fill="#770a0c" d="M66.5 87.5a5.728 5.728 0 0 0 1 3c-.438-.065-.772.101-1 .5 3.713 6.74 1.713 10.573-6 11.5l-3-1c2.475-.464 4.475-1.464 6-3v-5c-2.333-1.333-4.667-1.333-7 0a217.163 217.163 0 0 0-2.5 6 31.29 31.29 0 0 1-1.5-10c2.114-1.284 3.114-3.284 3-6 2.696 1.987 5.696 3.654 9 5 .683-.363 1.35-.696 2-1z"/><path style="opacity:1" fill="#814441" d="M152.5 114.5c.166-6.342 0-12.675-.5-19l-1-2c-.708.88-1.542 1.547-2.5 2a27.52 27.52 0 0 1 5-9l1 3.5a830.742 830.742 0 0 1-2 24.5z"/><path style="opacity:1" fill="#996667" d="M69.5 91.5c1.493.812 2.16 2.145 2 4-.02 1.226-.353 2.226-1 3a21.445 21.445 0 0 0-1-7z"/><path style="opacity:1" fill="#6e201f" d="M89.5 80.5c.958.453 1.792 1.12 2.5 2a12.5 12.5 0 0 1 0 7c-2.332 1.703-4.165 3.703-5.5 6-.951-1.419-1.284-3.085-1-5-1.291.237-2.291-.096-3-1 4 .667 5.667-1 5-5h-6c-.779-2.427-1.945-2.427-3.5 0L76.5 95c.108 1.681.775 2.848 2 3.5v13h-3a19.347 19.347 0 0 1-2-7.5A341.676 341.676 0 0 0 76 84.5c.5-1.833 1.667-3 3.5-3.5a50.441 50.441 0 0 1 10-.5z"/><path style="opacity:1" fill="#f3d5cb" d="M81.5 84.5h6c.667 4-1 5.667-5 5-.951-1.419-1.284-3.085-1-5z"/><path style="opacity:1" fill="#7c0606" d="M175.5 68.5c2.961 3.225 5.461 6.891 7.5 11a55.328 55.328 0 0 1-.5 16c-1.333 2-3 3.667-5 5h-2c-4.411.479-8.578-.188-12.5-2l-.5-3a78.187 78.187 0 0 1 3.5-10l3-2c2.602 5.954 6.269 6.62 11 2 1.32-6.18-1.18-9.18-7.5-9v-8h3z"/><path style="opacity:1" fill="#f9eaea" d="M120.5 95.5a94.758 94.758 0 0 0-.5 23c1.432 3.812 3.932 4.812 7.5 3a4.934 4.934 0 0 1-.5 3c-1.796-1.267-3.629-1.267-5.5 0-2.965-2.646-4.799-5.979-5.5-10a4.934 4.934 0 0 0-.5 3h-3c.369 2.493-.297 3.16-2 2 .801-1.542 1.134-3.208 1-5 2.294-3.743 3.294-7.909 3-12.5-.054-5.432-1.054-10.599-3-15.5 1.653-1.3 3.153-.966 4.5 1l1 13c.494-1.634.66-3.3.5-5h3z"/><path style="opacity:1" fill="#780c0d" d="M143.5 97.5a11.741 11.741 0 0 1-3 5 5.727 5.727 0 0 0-3-1c-1.59 1.975-2.757 4.308-3.5 7a84.902 84.902 0 0 1-.5-13c.017-2.065.35-4.065 1-6v-2c1.093-2.753 2.926-3.42 5.5-2a250.593 250.593 0 0 0 3.5 12z"/><path style="opacity:1" fill="#752321" d="M111.5 86.5c1.946 4.901 2.946 10.068 3 15.5.294 4.591-.706 8.757-3 12.5.126-4.511.46-9.011 1-13.5a25.745 25.745 0 0 0-1.5-8.5c-1.244 1.95-3.077 2.95-5.5 3a120.722 120.722 0 0 0-8-2.5 283.867 283.867 0 0 1-2 9.5c-.165-3.35.002-6.683.5-10 2.646-8.24 7.813-10.24 15.5-6z"/><path style="opacity:1" fill="#f6dbcf" d="M102.5 89.5c1.699-.16 3.366.007 5 .5 1.333 1.333 1.333 2.667 0 4-1.634.493-3.301.66-5 .5v-5z"/><path style="opacity:1" fill="#9f5b5a" d="m161.5 90.5-1 8c-1.246-2.793-.913-5.46 1-8z"/><path style="opacity:1" fill="#6f1c1a" d="M175.5 67.5v1h-3v8c6.32-.18 8.82 2.82 7.5 9-4.731 4.62-8.398 3.954-11-2l-3 2a78.187 78.187 0 0 0-3.5 10l.5 3c3.922 1.812 8.089 2.479 12.5 2-3.356 1.879-7.023 2.379-11 1.5-1.85-.69-3.184-1.856-4-3.5l1-8a88.033 88.033 0 0 0 6-11c1.707-3.299 3.04-6.966 4-11 1.189-.929 2.522-1.262 4-1z"/><path style="opacity:1" fill="#f5dad9" d="M171.5 79.5c2.357-.163 4.69.003 7 .5 1.333 1.667 1.333 3.333 0 5-2.31.497-4.643.663-7 .5v-6z"/><path style="opacity:1" fill="#6f1817" d="M52.5 89.5a31.29 31.29 0 0 0 1.5 10 217.163 217.163 0 0 1 2.5-6c-.214 1.644.12 3.144 1 4.5 1.973.496 3.973.662 6 .5-1.525 1.536-3.525 2.536-6 3l3 1c7.713-.927 9.713-4.76 6-11.5.228-.399.562-.565 1-.5.992-.172 1.658.162 2 1a21.445 21.445 0 0 1 1 7 301.462 301.462 0 0 0-3 4c-12.436 4.23-17.436-.103-15-13z"/><path style="opacity:1" fill="#fde9e5" d="M63.5 93.5v4c-3.74.901-5.74-.432-6-4h6z"/><path style="opacity:1" fill="#dba09c" d="M63.5 93.5h-6c.26 3.568 2.26 4.901 6 4v1a18.436 18.436 0 0 1-6-.5c-.88-1.356-1.214-2.856-1-4.5 2.333-1.333 4.667-1.333 7 0z"/><path style="opacity:1" fill="#761211" d="M81.5 84.5c-.284 1.915.049 3.581 1 5 .709.904 1.709 1.237 3 1-.284 1.915.049 3.581 1 5 1.745 1.533 2.745 3.533 3 6v10h-4c-2.099-4.295-3.266-8.962-3.5-14a3.646 3.646 0 0 0-1.5-1 30.943 30.943 0 0 1-2 2c-1.225-.652-1.892-1.819-2-3.5L78 84.5c1.555-2.427 2.721-2.427 3.5 0z"/><path style="opacity:1" fill="#681516" d="M143.5 97.5c1.208.734 2.541 1.067 4 1a10.677 10.677 0 0 0-4 5c2.484 2.036 3.484 4.702 3 8a42.937 42.937 0 0 1-6-9 11.741 11.741 0 0 0 3-5z"/><path style="opacity:1" fill="#f2d9d8" d="M27.5 100.5c4.775.147 9.108 1.147 13 3-4.083 1.372-8.083 1.039-12-1-.797-.457-1.13-1.124-1-2z"/><path style="opacity:1" fill="#7c0403" d="M147.5 98.5h3a77.1 77.1 0 0 1 1 13h-5c.484-3.298-.516-5.964-3-8a10.677 10.677 0 0 1 4-5z"/><path style="opacity:1" fill="#7a090b" d="M111.5 114.5c.134 1.792-.199 3.458-1 5h-1c-1.624.14-2.79-.527-3.5-2a98.432 98.432 0 0 1-.5-14h-3a52.392 52.392 0 0 1-1 13c-2.4 1.562-4.4 1.229-6-1v-13c.701-3.063 1.368-6.23 2-9.5 2.552.696 5.219 1.53 8 2.5 2.423-.05 4.256-1.05 5.5-3a25.745 25.745 0 0 1 1.5 8.5c-.54 4.489-.874 8.989-1 13.5z"/><path style="opacity:1" fill="#f9f2f1" d="M167.5 63.5c.221 2.597.721 2.597 1.5 0 1.649 1.453 3.482 2.453 5.5 3-1.644-.213-3.144.12-4.5 1a232.051 232.051 0 0 0-2.5 12 88.033 88.033 0 0 1-6 11c-1.913 2.54-2.246 5.207-1 8 .816 1.644 2.15 2.81 4 3.5 3.977.879 7.644.379 11-1.5h2a51.585 51.585 0 0 1 7-1 11.987 11.987 0 0 1 1-6c1.194-1.17 1.861-.837 2 1 .275 2.342 1.108 2.342 2.5 0 1.827 1.914 1.827 3.914 0 6a180.04 180.04 0 0 1-17.5 13.5c-4.857 3.491-10.19 4.324-16 2.5a5.576 5.576 0 0 0 1-3c-.418-.722-1.084-1.222-2-1.5a77.086 77.086 0 0 0 0-24c.865-1.359 1.865-2.525 3-3.5 1.059-5.175 1.059-10.509 0-16 3.721-.391 6.721-2.058 9-5z"/><path style="opacity:1" fill="#f7fef6" d="M162.5 68.5c1.644-.213 3.144.12 4.5 1-.046 3.3-.212 6.634-.5 10h-5c-.256-3.77.077-7.436 1-11z"/><path style="opacity:1" fill="#702a27" d="M133.5 95.5a84.902 84.902 0 0 0 .5 13c.743-2.692 1.91-5.025 3.5-7a76.246 76.246 0 0 0-2 12c-.967 1.306-2.301 1.973-4 2-.166-5.344.001-10.677.5-16 .21-1.558.71-2.891 1.5-4z"/><path style="opacity:1" fill="#d6bcbb" d="M89.5 101.5c.183 4.193 2.183 5.527 6 4v10c-1.39-2.46-2.558-5.126-3.5-8-.36 1.921-1.194 3.588-2.5 5-1.797 1.432-3.13 1.099-4-1h4v-10z"/><path style="opacity:1" fill="#651213" d="M152.5 114.5c-.12 1.086-.787 1.753-2 2-2.08-1.079-3.413-2.745-4-5h5a77.1 77.1 0 0 0-1-13h-3a5.727 5.727 0 0 0 1-3c.958-.453 1.792-1.12 2.5-2l1 2c.5 6.325.666 12.658.5 19z"/><path style="opacity:1" fill="#f2d0cb" d="M109.5 119.5c-1.068.934-2.401 1.268-4 1a10.134 10.134 0 0 0-1.5-4c-.77 1.098-1.603 1.098-2.5 0a52.392 52.392 0 0 0 1-13h3a98.432 98.432 0 0 0 .5 14c.71 1.473 1.876 2.14 3.5 2z"/><path style="opacity:1" fill="#771d1a" d="M127.5 93.5a82.49 82.49 0 0 1 0 24v4c-3.568 1.812-6.068.812-7.5-3a94.758 94.758 0 0 1 .5-23c.565-2.403 2.065-4.07 4.5-5 1.31.63 2.144 1.63 2.5 3z"/><path style="opacity:1" fill="#820201" d="M122.5 98.5c.768.763 1.268 1.763 1.5 3 .499 5.323.666 10.656.5 16h-3c-.093-6.363.24-12.696 1-19z"/><path style="opacity:1" fill="#faebed" d="M175.5 114.5a70.995 70.995 0 0 0-6 7.5c-4.341.093-8.674.093-13 0-1.333 1.333-1.333 2.667 0 4a11.333 11.333 0 0 0-3.5 1.5c-.388-.928-1.055-1.595-2-2-2.319 1.371-4.819 2.038-7.5 2 .06 3.985-1.94 5.652-6 5 2.473-1.643 4.473-3.81 6-6.5a54.628 54.628 0 0 1 7-2l5-5h12a47.404 47.404 0 0 1 8-4.5z"/><path style="opacity:1" fill="#693536" d="M27.5 100.5c-.13.876.203 1.543 1 2 3.917 2.039 7.917 2.372 12 1 1.49 1.78 3.49 2.446 6 2 1.1 1.098 2.434 1.265 4 .5-1.211-.893-1.211-1.726 0-2.5 1.412 1.306 3.079 2.14 5 2.5a4.458 4.458 0 0 0-2 1.5c5.2 3.224 10.867 5.39 17 6.5 4.213 4.106 9.213 6.606 15 7.5.667 0 1 .333 1 1-7.852-1.317-12.019 2.016-12.5 10-1.331 2.496-3.164 4.496-5.5 6v-2c2.93-2.272 4.597-5.272 5-9 .934-1.068 1.268-2.401 1-4l-2 2c-.796-4.947-3.462-8.114-8-9.5 2.88 2.279 4.88 5.112 6 8.5h-1c-4.584-6.746-10.584-11.913-18-15.5-1.566-.765-2.9-.598-4 .5a32.897 32.897 0 0 1-7-3c-.417-.624-1.084-.957-2-1a58.883 58.883 0 0 1-3 2c-4.558-1.82-9.225-2.153-14-1 .124.607.457.94 1 1 0 .667-.333 1-1 1-1.644.31-2.644 1.31-3 3v2c-.904.709-1.237 1.709-1 3-1.333 3-1.333 6 0 9v1c.489 1.495 1.155 2.829 2 4 .11.617.444 1.117 1 1.5 4.989.499 9.989.666 15 .5.667 0 1 .333 1 1a218.234 218.234 0 0 1-14 1.5l4 5c3.317.498 6.65.665 10 .5v1a52.55 52.55 0 0 0-7 1.5c.544.717 1.21 1.217 2 1.5a162.7 162.7 0 0 0 9.5 3c1.385-.014 2.551-.348 3.5-1a49.296 49.296 0 0 0 11-2v1c-4.337 1.901-9.003 3.068-14 3.5a50.466 50.466 0 0 0-5 10.5c-.838-.342-1.172-1.008-1-2a49.845 49.845 0 0 0 3-9c-3.393.438-6.393-.395-9-2.5-14.183-11.013-17.517-24.513-10-40.5a16.332 16.332 0 0 0-4-2l3-3c2.016 2.644 4.683 3.477 8 2.5-2.947-3.963-2.613-4.796 1-2.5z"/><path style="opacity:1" fill="#e1b6ad" d="m72.5 125.5-2-1c-1.12-3.388-3.12-6.221-6-8.5 4.538 1.386 7.204 4.553 8 9.5z"/><path style="opacity:1" fill="#f1bbb8" d="M74.5 123.5a25.543 25.543 0 0 0-5-6.5c2.983.471 4.983 2.304 6 5.5-.124.607-.457.94-1 1z"/><path style="opacity:1" fill="#805a5a" d="M17.5 116.5c.86 2.114 2.527 3.28 5 3.5l13.5 1.5c1.707-.008 3.207-.342 4.5-1 1.333 0 2 .667 2 2a83.849 83.849 0 0 1-24-2c-.952 1.545-1.285 3.212-1 5-1.333-3-1.333-6 0-9z"/><path style="opacity:1" fill="#816160" d="M18.5 111.5a147.433 147.433 0 0 0 22 8v1a137.548 137.548 0 0 1-22-7v-2z"/><path style="opacity:1" fill="#f3dedb" d="M18.5 113.5a137.548 137.548 0 0 0 22 7c-1.293.658-2.793.992-4.5 1L22.5 120c-2.473-.22-4.14-1.386-5-3.5-.237-1.291.096-2.291 1-3z"/><path style="opacity:1" fill="#f3dad8" d="M47.5 109.5c1.1-1.098 2.434-1.265 4-.5 7.416 3.587 13.416 8.754 18 15.5-.194 2.412-1.527 3.412-4 3-.624-2.254-1.957-3.921-4-5-2.703-6.367-7.37-10.701-14-13z"/><path style="opacity:1" fill="#f7e5e1" d="M21.5 108.5c8.128 2.064 15.462 5.731 22 11h-3a147.433 147.433 0 0 1-22-8c.356-1.69 1.356-2.69 3-3z"/><path style="opacity:1" fill="#7b6662" d="M47.5 109.5c6.63 2.299 11.297 6.633 14 13-4.693-4.361-9.36-8.695-14-13z"/><path style="opacity:1" fill="#f3dbda" d="M40.5 106.5a32.897 32.897 0 0 0 7 3c4.64 4.305 9.307 8.639 14 13a16.331 16.331 0 0 0 2 5c-3.143-.469-5.477-2.136-7-5a133.93 133.93 0 0 0-18-15.5 2.429 2.429 0 0 1 2-.5z"/><path style="opacity:1" fill="#795555" d="M40.5 106.5a2.429 2.429 0 0 0-2 .5 133.93 133.93 0 0 1 18 15.5c-.722 1.051-1.722 1.718-3 2l-2-2c2.156-.372 2.156-1.372 0-3a115.277 115.277 0 0 0-16-12 58.883 58.883 0 0 0 3-2c.916.043 1.583.376 2 1z"/><path style="opacity:1" fill="#f5e0dd" d="M35.5 107.5a115.277 115.277 0 0 1 16 12c2.156 1.628 2.156 2.628 0 3a11.741 11.741 0 0 1-5-3c-6.862-6.078-14.862-10.078-24-12-.543-.06-.876-.393-1-1 4.775-1.153 9.442-.82 14 1z"/><path style="opacity:1" fill="#7c5f5c" d="M22.5 107.5c9.138 1.922 17.138 5.922 24 12-1.152 1.125-2.152 1.125-3 0-6.538-5.269-13.872-8.936-22-11 .667 0 1-.333 1-1z"/><path style="opacity:1" fill="#682d2f" d="M40.5 120.5v-1h3c.848 1.125 1.848 1.125 3 0a11.741 11.741 0 0 0 5 3l2 2h-8v-1c.048-1.007-.952-1.34-3-1 0-1.333-.667-2-2-2z"/><path style="opacity:1" fill="#faf8f8" d="M147.5 122.5c-4.581 1.068-8.248 3.568-11 7.5-7.519 2.874-15.186 3.207-23 1-3.737-.999-3.737-2.332 0-4a32.462 32.462 0 0 0-8-.5c.086-.996-.248-1.829-1-2.5l4-1a18.453 18.453 0 0 0-6-.5c-.098-2.748.902-3.414 3-2 1.599.268 2.932-.066 4-1h1c1.703 1.16 2.369.493 2-2h3a4.934 4.934 0 0 1 .5-3c.701 4.021 2.535 7.354 5.5 10 1.871-1.267 3.704-1.267 5.5 0a4.934 4.934 0 0 0 .5-3v-4c.722-.418 1.222-1.084 1.5-2 .674 1.078 1.674 1.745 3 2 3.528.09 4.695-1.244 3.5-4 1.413 1.491 2.913 2.158 4.5 2a8.43 8.43 0 0 0 .5-4c4.706 1.361 6.373 4.361 5 9a31.147 31.147 0 0 1 2 2z"/><path style="opacity:1" fill="#faeee9" d="M42.5 122.5c2.048-.34 3.048-.007 3 1-9.13 2.558-18.463 3.558-28 3v-1c-.285-1.788.048-3.455 1-5a83.849 83.849 0 0 0 24 2z"/><path style="opacity:1" fill="#674a52" d="M61.5 122.5c2.043 1.079 3.376 2.746 4 5h-2a16.331 16.331 0 0 1-2-5z"/><path style="opacity:1" fill="#fbf6f5" d="M86.5 122.5c7.224-.115 13.558 2.219 19 7-5.192 7.096-12.192 10.763-21 11-5.858.322-11.525-.011-17-1 0-.667.333-1 1-1 2.336-1.504 4.169-3.504 5.5-6 .481-7.984 4.648-11.317 12.5-10z"/><path style="opacity:1" fill="#957675" d="M45.5 123.5v1c-8.828 2.378-17.494 4.378-26 6-.845-1.171-1.511-2.505-2-4 9.537.558 18.87-.442 28-3z"/><path style="opacity:1" fill="#695453" d="M53.5 126.5c-1.411 2.039-3.411 3.039-6 3 1.533-1.745 3.533-2.745 6-3z"/><path style="opacity:1" fill="#6d2d2c" d="M56.5 122.5c1.523 2.864 3.857 4.531 7 5h2c2.473.412 3.806-.588 4-3h1l2 1 2-2c.268 1.599-.066 2.932-1 4-2.93 1.811-4.93 4.478-6 8 .124.607.457.94 1 1v2c-.667 0-1 .333-1 1-.876-.131-1.543.202-2 1a91.124 91.124 0 0 0 19 1c1.291-.237 2.291.096 3 1-2.12-.175-4.12.159-6 1h-2c-8.147-.438-16.147.229-24 2v-1a229.517 229.517 0 0 0 7.5-5c1.885-2.414 2.552-5.081 2-8-.383.556-.883.889-1.5 1v-3h-4c.172-.992-.162-1.658-1-2-1.542-.801-3.209-1.134-5-1v-2c1.278-.282 2.278-.949 3-2z"/><path style="opacity:1" fill="#f9ebe9" d="M45.5 124.5h8v2c-2.467.255-4.467 1.255-6 3-4.187.713-8.187 1.713-12 3a112.97 112.97 0 0 1-15-.5c-.556-.383-.89-.883-1-1.5 8.506-1.622 17.172-3.622 26-6z"/><path style="opacity:1" fill="#7b6668" d="M47.5 129.5c-3.297 2.101-6.963 3.435-11 4 0-.667-.333-1-1-1 3.813-1.287 7.813-2.287 12-3z"/><path style="opacity:1" fill="#ebbfbc" d="M73.5 127.5c-.403 3.728-2.07 6.728-5 9-.543-.06-.876-.393-1-1 1.07-3.522 3.07-6.189 6-8z"/><path style="opacity:1" fill="#f6e5e5" d="M59.5 129.5h4v3c-2.087 1.085-3.42 2.751-4 5-4.35 1.508-8.35 3.508-12 6a41.541 41.541 0 0 0-8 1h-8c-.79-.283-1.456-.783-2-1.5a52.55 52.55 0 0 1 7-1.5c9.273-1.134 16.94-5.134 23-12z"/><path style="opacity:1" fill="#f7edec" d="M53.5 126.5c1.791-.134 3.458.199 5 1-5.768 6.888-13.102 11.221-22 13a50.464 50.464 0 0 1-10-.5l-4-5c4.698-.351 9.364-.851 14-1.5 4.037-.565 7.703-1.899 11-4 2.589.039 4.589-.961 6-3z"/><path style="opacity:1" fill="#796467" d="M58.5 127.5c.838.342 1.172 1.008 1 2-6.06 6.866-13.727 10.866-23 12v-1c8.898-1.779 16.232-6.112 22-13z"/><path style="opacity:1" fill="#6a5350" d="M63.5 132.5c-.636 2.295-1.969 3.961-4 5 .58-2.249 1.913-3.915 4-5z"/><path style="opacity:1" fill="#745c58" d="M59.5 137.5c-3.15 3.575-7.15 5.575-12 6 3.65-2.492 7.65-4.492 12-6z"/><path style="opacity:1" fill="#d4aead" d="M67.5 139.5c5.475.989 11.142 1.322 17 1v1a91.124 91.124 0 0 1-19-1c.457-.798 1.124-1.131 2-1z"/><path style="opacity:1" fill="#f4d3d2" d="M55.5 144.5a49.296 49.296 0 0 1-11 2c-.992.172-1.658-.162-2-1 1.903-.296 3.57-.963 5-2 4.85-.425 8.85-2.425 12-6 2.031-1.039 3.364-2.705 4-5 .617-.111 1.117-.444 1.5-1 .552 2.919-.115 5.586-2 8a229.517 229.517 0 0 1-7.5 5z"/><path style="opacity:1" fill="#5b4640" d="M47.5 143.5c-1.43 1.037-3.097 1.704-5 2-1.291.237-2.291-.096-3-1a41.541 41.541 0 0 1 8-1z"/><path style="opacity:1" fill="#f9edec" d="M79.5 143.5c-3.758 5.094-8.425 9.094-14 12a25.448 25.448 0 0 0 3-8c-7.743 2.256-15.743 3.423-24 3.5a99.85 99.85 0 0 1-2 5.5 466.588 466.588 0 0 0-5 4.5 84.315 84.315 0 0 0-2 14.5h-4a111.306 111.306 0 0 0 5-16 50.466 50.466 0 0 1 5-10.5c4.997-.432 9.663-1.599 14-3.5 7.853-1.771 15.853-2.438 24-2z"/><path style="opacity:1" fill="#c38e8e" d="M31.5 144.5h8c.709.904 1.709 1.237 3 1 .342.838 1.008 1.172 2 1-.949.652-2.115.986-3.5 1a162.7 162.7 0 0 1-9.5-3z"/><path style="opacity:1" fill="#f8edea" d="M103.5 134.5c-.124 2.082-1.124 3.582-3 4.5 2.682 2.33 2.349 2.83-1 1.5-3.2 2.557-6.866 3.557-11 3 .204 1.89-.463 3.39-2 4.5 1.173 3.11.673 3.277-1.5.5-1.969 1.887-4.302 3.22-7 4-.417-1.256-1.25-1.923-2.5-2 2.052-2.378 4.052-4.711 6-7 1.88-.841 3.88-1.175 6-1 6.164-1.082 11.497-3.749 16-8z"/><path style="opacity:1" fill="#fbf9f8" d="M65.5 155.5c-3.304 2.473-6.138 5.473-8.5 9L47.5 180c-5.99.499-11.99.666-18 .5-.098-2.053.569-3.72 2-5h4a84.315 84.315 0 0 1 2-14.5c1.634-1.492 3.3-2.992 5-4.5a99.85 99.85 0 0 0 2-5.5c8.257-.077 16.257-1.244 24-3.5a25.448 25.448 0 0 1-3 8z"/><path style="opacity:1" fill="#6a4849" d="M79.5 143.5h2a1346.338 1346.338 0 0 1-6 7c-4.648 3.643-9.314 7.31-14 11a196.236 196.236 0 0 0-12 19.5 94.81 94.81 0 0 1-23 1.5 197.608 197.608 0 0 0 5-15l4-10c-.172.992.162 1.658 1 2a111.306 111.306 0 0 1-5 16c-1.431 1.28-2.098 2.947-2 5 6.01.166 12.01-.001 18-.5l9.5-15.5c2.362-3.527 5.196-6.527 8.5-9 5.575-2.906 10.242-6.906 14-12z"/><path style="opacity:1" fill="#faf2f0" d="M75.5 150.5c.14 1.624-.527 2.79-2 3.5l1 1a79.527 79.527 0 0 0-10 6.5 52.204 52.204 0 0 0-1.5 10l-1-3a15.918 15.918 0 0 1-2.5 4.5c.392 1.011 1.059 1.511 2 1.5-3.692 1.974-6.358 4.974-8 9-1.841.73-3.675 1.397-5.5 2a312.733 312.733 0 0 0-24.5-1.5 38.718 38.718 0 0 0 0-8 53.48 53.48 0 0 0 2.5-8.5c.667 1.333 1.333 1.333 2 0l1 2c.417-1.256 1.25-1.923 2.5-2a197.608 197.608 0 0 1-5 15 94.81 94.81 0 0 0 23-1.5 196.236 196.236 0 0 1 12-19.5c4.686-3.69 9.352-7.357 14-11z"/></svg>