<?xml version="1.0" encoding="UTF-8"?>
<!DOCTYPE svg PUBLIC "-//W3C//DTD SVG 1.1//EN" "http://www.w3.org/Graphics/SVG/1.1/DTD/svg11.dtd">
<svg xmlns="http://www.w3.org/2000/svg" version="1.1" width="214px" height="163px" style="shape-rendering:geometricPrecision; text-rendering:geometricPrecision; image-rendering:optimizeQuality; fill-rule:evenodd; clip-rule:evenodd" xmlns:xlink="http://www.w3.org/1999/xlink">
<g><path style="opacity:0.016" fill="#202020" d="M 122.5,2.5 C 123.601,1.40168 124.934,1.23502 126.5,2C 125.207,2.49001 123.873,2.65668 122.5,2.5 Z"/></g>
<g><path style="opacity:0.016" fill="#484848" d="M 136.5,5.5 C 137.601,4.40168 138.934,4.23502 140.5,5C 139.207,5.49001 137.873,5.65668 136.5,5.5 Z"/></g>
<g><path style="opacity:0.004" fill="#606060" d="M 141.5,6.5 C 142.601,5.40168 143.934,5.23502 145.5,6C 144.207,6.49001 142.873,6.65668 141.5,6.5 Z"/></g>
<g><path style="opacity:0.014" fill="#2b2b2b" d="M 160.5,10.5 C 161.601,9.40168 162.934,9.23502 164.5,10C 163.207,10.49 161.873,10.6567 160.5,10.5 Z"/></g>
<g><path style="opacity:0.941" fill="#0e0e0e" d="M 121.5,38.5 C 121.5,28.8333 121.5,19.1667 121.5,9.5C 123.484,9.38321 125.15,10.0499 126.5,11.5C 127.571,9.67452 126.904,8.50785 124.5,8C 125.793,7.50999 127.127,7.34332 128.5,7.5C 129.546,14.4867 130.712,21.4867 132,28.5C 131.667,28.8333 131.333,29.1667 131,29.5C 130.744,26.443 130.244,23.443 129.5,20.5C 128.998,19.479 128.332,19.3123 127.5,20C 125.737,24.4233 126.737,28.0899 130.5,31C 129.929,32.2051 129.262,33.3717 128.5,34.5C 127.914,34.2907 127.414,33.9574 127,33.5C 125.296,35.3734 123.463,37.0401 121.5,38.5 Z"/></g>
<g><path style="opacity:0.004" fill="#1b1b1b" d="M 165.5,11.5 C 166.601,10.4017 167.934,10.235 169.5,11C 168.207,11.49 166.873,11.6567 165.5,11.5 Z"/></g>
<g><path style="opacity:0.014" fill="#161616" d="M 184.5,15.5 C 185.601,14.4017 186.934,14.235 188.5,15C 187.207,15.49 185.873,15.6567 184.5,15.5 Z"/></g>
<g><path style="opacity:0.016" fill="#060606" d="M 189.5,16.5 C 190.601,15.4017 191.934,15.235 193.5,16C 192.207,16.49 190.873,16.6567 189.5,16.5 Z"/></g>
<g><path style="opacity:0.008" fill="#3b3b3b" d="M 6.5,21.5 C 7.60093,20.4017 8.93426,20.235 10.5,21C 9.20677,21.49 7.87344,21.6567 6.5,21.5 Z"/></g>
<g><path style="opacity:1" fill="#1b1b1b" d="M 150.5,9.5 C 153.833,9.83333 157.167,10.1667 160.5,10.5C 164.575,12.1184 168.908,13.1184 173.5,13.5C 173.577,14.7498 174.244,15.5831 175.5,16C 174.914,19.9323 174.58,24.0989 174.5,28.5C 174.343,29.8734 174.51,31.2068 175,32.5C 175.333,32.1667 175.667,31.8333 176,31.5C 175.946,34.1906 177.113,36.0239 179.5,37C 177.633,37.7112 176.133,37.2112 175,35.5C 173.506,36.7472 172.006,36.7472 170.5,35.5C 171.325,34.6143 172.325,34.281 173.5,34.5C 173.414,32.323 172.747,30.323 171.5,28.5C 171.833,27.1667 172.167,25.8333 172.5,24.5C 171.092,23.7568 169.759,22.9234 168.5,22C 166.609,21.6913 165.275,22.5247 164.5,24.5C 163.692,26.4233 163.192,28.4233 163,30.5C 162.333,29.1667 161.667,27.8333 161,26.5C 160.601,26.7284 160.435,27.0618 160.5,27.5C 159.883,27.6107 159.383,27.944 159,28.5C 158.443,26.3853 157.609,24.3853 156.5,22.5C 157.476,20.8767 156.976,19.5433 155,18.5C 154.667,18.8333 154.333,19.1667 154,19.5C 150.938,13.0563 150.272,13.0563 152,19.5C 152.853,21.1247 153.853,21.4581 155,20.5C 155.667,21.8333 155.667,23.1667 155,24.5C 154.374,22.0087 153.541,22.0087 152.5,24.5C 151.5,23.5 150.5,22.5 149.5,21.5C 148.851,18.7111 147.851,16.0444 146.5,13.5C 146.545,10.8105 147.879,9.4772 150.5,9.5 Z"/></g>
<g><path style="opacity:1" fill="#303030" d="M 136.5,5.5 C 137.833,6.16667 139.167,6.83333 140.5,7.5C 138.16,8.57185 137.827,10.2385 139.5,12.5C 138.369,13.6039 137.535,13.2705 137,11.5C 135.452,14.2818 135.452,16.9485 137,19.5C 137.333,18.8333 137.667,18.1667 138,17.5C 138.333,19.1667 138.667,20.8333 139,22.5C 140.333,23.8333 141.667,23.8333 143,22.5C 143.695,19.615 144.528,16.7816 145.5,14C 144.967,11.7739 144.3,9.60726 143.5,7.5C 146.01,7.92668 148.343,8.59334 150.5,9.5C 147.879,9.4772 146.545,10.8105 146.5,13.5C 147.851,16.0444 148.851,18.7111 149.5,21.5C 150.5,22.5 151.5,23.5 152.5,24.5C 153.541,22.0087 154.374,22.0087 155,24.5C 155.667,23.1667 155.667,21.8333 155,20.5C 153.853,21.4581 152.853,21.1247 152,19.5C 150.272,13.0563 150.938,13.0563 154,19.5C 154.333,19.1667 154.667,18.8333 155,18.5C 156.976,19.5433 157.476,20.8767 156.5,22.5C 157.609,24.3853 158.443,26.3853 159,28.5C 159.383,27.944 159.883,27.6107 160.5,27.5C 160.351,28.552 160.517,29.552 161,30.5C 162.53,31.636 163.863,32.636 165,33.5C 165.333,32.8333 165.667,32.1667 166,31.5C 166.684,32.7839 166.517,33.9505 165.5,35C 166.5,35.3333 167.5,35.6667 168.5,36C 167.382,37.0736 166.382,38.2402 165.5,39.5C 164.416,38.3349 163.583,37.0016 163,35.5C 162.405,36.8989 162.572,38.2322 163.5,39.5C 163.192,40.3081 162.692,40.9747 162,41.5C 160.872,39.6547 160.372,37.6547 160.5,35.5C 157.901,35.4506 155.734,34.4506 154,32.5C 153.493,33.9961 153.993,35.1627 155.5,36C 155.167,36.3333 154.833,36.6667 154.5,37C 157.892,38.5417 159.892,41.0417 160.5,44.5C 158.94,46.1294 159.273,47.296 161.5,48C 160.5,48.5 159.5,49 158.5,49.5C 158.467,48.011 157.967,46.6776 157,45.5C 156.5,46 156,46.5 155.5,47C 155.784,48.9562 155.784,51.1229 155.5,53.5C 154.5,53.5 153.5,53.5 152.5,53.5C 151.956,55.5795 151.122,57.5795 150,59.5C 148.833,58 147.667,56.5 146.5,55C 148.301,54.6827 148.634,54.016 147.5,53C 149.113,52.9115 150.28,53.7448 151,55.5C 151.333,54.1667 151.667,52.8333 152,51.5C 153.156,52.9928 153.99,52.8261 154.5,51C 154.389,49.2785 153.889,49.1118 153,50.5C 152.075,49.9535 151.242,49.2868 150.5,48.5C 151.816,47.1934 152.816,45.6934 153.5,44C 154.549,43.5078 155.549,43.6744 156.5,44.5C 159.19,42.6518 159.023,40.9851 156,39.5C 155.333,42.1667 154.667,42.1667 154,39.5C 153.667,39.8333 153.333,40.1667 153,40.5C 152.887,38.0261 151.887,36.0261 150,34.5C 149.5,35 149,35.5 148.5,36C 150.136,37.434 151.136,39.2674 151.5,41.5C 150.289,42.7202 150.289,43.8869 151.5,45C 150.234,45.3095 149.067,45.8095 148,46.5C 147.082,44.3676 145.749,43.701 144,44.5C 144.263,43.0494 144.096,41.7161 143.5,40.5C 141.576,41.9653 141.243,43.632 142.5,45.5C 139.008,45.6164 135.508,45.6164 132,45.5C 130.103,45.1036 128.603,44.1036 127.5,42.5C 125.481,44.1897 123.481,45.8564 121.5,47.5C 121.5,44.5 121.5,41.5 121.5,38.5C 123.463,37.0401 125.296,35.3734 127,33.5C 127.414,33.9574 127.914,34.2907 128.5,34.5C 129.262,33.3717 129.929,32.2051 130.5,31C 126.737,28.0899 125.737,24.4233 127.5,20C 128.332,19.3123 128.998,19.479 129.5,20.5C 130.244,23.443 130.744,26.443 131,29.5C 131.333,29.1667 131.667,28.8333 132,28.5C 130.712,21.4867 129.546,14.4867 128.5,7.5C 127.127,7.34332 125.793,7.50999 124.5,8C 126.904,8.50785 127.571,9.67452 126.5,11.5C 125.15,10.0499 123.484,9.38321 121.5,9.5C 121.5,7.5 121.5,5.5 121.5,3.5C 126.5,4.16667 131.5,4.83333 136.5,5.5 Z"/></g>
<g><path style="opacity:1" fill="#1f1f1f" d="M 140.5,7.5 C 141.5,7.5 142.5,7.5 143.5,7.5C 144.3,9.60726 144.967,11.7739 145.5,14C 144.528,16.7816 143.695,19.615 143,22.5C 141.667,23.8333 140.333,23.8333 139,22.5C 138.667,20.8333 138.333,19.1667 138,17.5C 137.667,18.1667 137.333,18.8333 137,19.5C 135.452,16.9485 135.452,14.2818 137,11.5C 137.535,13.2705 138.369,13.6039 139.5,12.5C 137.827,10.2385 138.16,8.57185 140.5,7.5 Z"/></g>
<g><path style="opacity:0.008" fill="#808080" d="M 25.5,25.5 C 26.6009,24.4017 27.9343,24.235 29.5,25C 28.2068,25.49 26.8734,25.6567 25.5,25.5 Z"/></g>
<g><path style="opacity:0.014" fill="#505050" d="M 30.5,26.5 C 31.6009,25.4017 32.9343,25.235 34.5,26C 33.2068,26.49 31.8734,26.6567 30.5,26.5 Z"/></g>
<g><path style="opacity:0.004" fill="#525252" d="M 49.5,30.5 C 50.6009,29.4017 51.9343,29.235 53.5,30C 52.2068,30.49 50.8734,30.6567 49.5,30.5 Z"/></g>
<g><path style="opacity:0.004" fill="#4c4c4c" d="M 54.5,31.5 C 55.6009,30.4017 56.9343,30.235 58.5,31C 57.2068,31.49 55.8734,31.6567 54.5,31.5 Z"/></g>
<g><path style="opacity:0.996" fill="#0a0a0a" d="M 173.5,13.5 C 177.042,14.6746 180.709,15.3413 184.5,15.5C 191.604,17.6572 198.937,19.3239 206.5,20.5C 206.5,24.8333 206.5,29.1667 206.5,33.5C 202.93,33.0995 200.764,31.0995 200,27.5C 195.828,28.089 192.328,26.589 189.5,23C 186.65,21.8289 183.816,20.6623 181,19.5C 177.599,22.8137 178.099,25.4803 182.5,27.5C 182.833,26.8333 183.167,26.1667 183.5,25.5C 185.002,26.0831 186.335,26.9164 187.5,28C 187.048,29.6124 185.715,30.6124 183.5,31C 185.699,32.6971 188.032,34.1971 190.5,35.5C 190.833,35.3333 191.167,35.1667 191.5,35C 190.672,34.0853 189.672,33.4186 188.5,33C 191.255,33.3353 193.922,34.3353 196.5,36C 194.699,36.3173 194.366,36.984 195.5,38C 198.912,39.4545 202.079,41.2879 205,43.5C 205.278,42.5842 205.778,41.9175 206.5,41.5C 206.5,43.1667 206.5,44.8333 206.5,46.5C 204.243,46.0383 202.243,45.0383 200.5,43.5C 199.707,44.3554 200.04,45.1887 201.5,46C 201,46.1667 200.5,46.3333 200,46.5C 195.671,43.4564 191.505,40.6231 187.5,38C 191.247,42.1521 195.414,45.9855 200,49.5C 200.414,49.0426 200.914,48.7093 201.5,48.5C 203.075,49.4565 204.742,50.1231 206.5,50.5C 206.5,55.5 206.5,60.5 206.5,65.5C 202.535,65.3038 199.035,63.9705 196,61.5C 195.667,61.8333 195.333,62.1667 195,62.5C 194.517,61.552 194.351,60.552 194.5,59.5C 197.183,59.7734 198.683,58.7734 199,56.5C 194.301,51.4664 189.301,46.7998 184,42.5C 182.706,43.8544 182.54,45.1877 183.5,46.5C 183.154,47.6956 182.654,47.6956 182,46.5C 180.148,44.7703 180.314,43.6036 182.5,43C 181.829,42.0138 181.829,40.8471 182.5,39.5C 179.595,36.0301 176.928,32.3634 174.5,28.5C 174.58,24.0989 174.914,19.9323 175.5,16C 174.244,15.5831 173.577,14.7498 173.5,13.5 Z"/></g>
<g><path style="opacity:0.978" fill="#282828" d="M 6.5,28.5 C 8.5,29.1667 10.5,29.8333 12.5,30.5C 12.3939,33.0786 13.0605,35.412 14.5,37.5C 13.8953,39.0257 12.7286,40.0257 11,40.5C 11.2409,44.2671 9.74086,46.9338 6.5,48.5C 6.5,41.8333 6.5,35.1667 6.5,28.5 Z"/></g>
<g><path style="opacity:1" fill="#646464" d="M 25.5,25.5 C 25.5,25.8333 25.5,26.1667 25.5,26.5C 24.6236,26.3691 23.9569,26.7025 23.5,27.5C 24.3128,28.8139 25.3128,29.9805 26.5,31C 25.5509,31.6172 24.7175,31.4506 24,30.5C 22.1783,35.7494 22.8449,40.7494 26,45.5C 26.9733,40.7302 28.4733,36.0635 30.5,31.5C 31.7398,34.9773 33.2398,38.3107 35,41.5C 37.3181,43.1892 38.1514,45.1892 37.5,47.5C 36.5416,47.9528 35.7083,48.6195 35,49.5C 34.6667,47.8333 34.3333,46.1667 34,44.5C 33.6667,44.8333 33.3333,45.1667 33,45.5C 32.6924,44.6919 32.1924,44.0253 31.5,43.5C 30.1667,45.5 28.8333,47.5 27.5,49.5C 25.8539,48.2214 24.6872,46.5547 24,44.5C 23.8598,46.5213 23.6932,48.3547 23.5,50C 25.4405,50.3036 27.1072,51.1369 28.5,52.5C 29.8066,51.1845 31.3066,50.1845 33,49.5C 33.7724,50.8491 34.9391,51.6824 36.5,52C 36.4716,53.5773 35.805,55.244 34.5,57C 35.681,59.701 37.3476,62.0344 39.5,64C 39.1501,65.2575 38.4835,65.5908 37.5,65C 36.0237,62.3568 34.0237,60.1901 31.5,58.5C 30.8076,59.0253 30.3076,59.6919 30,60.5C 28.0414,59.2519 26.5414,57.5852 25.5,55.5C 24.6527,57.061 24.9861,58.561 26.5,60C 25.1667,61.3333 25.1667,62.6667 26.5,64C 25.552,64.4828 24.552,64.6495 23.5,64.5C 23.7678,66.099 23.4345,67.4324 22.5,68.5C 22.5266,65.7702 21.8599,63.2702 20.5,61C 21.8541,59.0012 21.6874,57.1678 20,55.5C 19.4888,57.8782 18.8221,60.2115 18,62.5C 18.3482,59.4574 18.1815,56.4574 17.5,53.5C 18.4415,53.5105 19.1081,53.0105 19.5,52C 17.8919,47.0047 16.2253,42.1713 14.5,37.5C 13.0605,35.412 12.3939,33.0786 12.5,30.5C 10.5,29.8333 8.5,29.1667 6.5,28.5C 6.5,26.5 6.5,24.5 6.5,22.5C 12.8127,23.6292 19.1461,24.6292 25.5,25.5 Z"/></g>
<g><path style="opacity:1" fill="#2b2b2b" d="M 206.5,33.5 C 206.5,36.1667 206.5,38.8333 206.5,41.5C 205.778,41.9175 205.278,42.5842 205,43.5C 202.079,41.2879 198.912,39.4545 195.5,38C 194.366,36.984 194.699,36.3173 196.5,36C 193.922,34.3353 191.255,33.3353 188.5,33C 189.672,33.4186 190.672,34.0853 191.5,35C 191.167,35.1667 190.833,35.3333 190.5,35.5C 188.032,34.1971 185.699,32.6971 183.5,31C 185.715,30.6124 187.048,29.6124 187.5,28C 186.335,26.9164 185.002,26.0831 183.5,25.5C 183.167,26.1667 182.833,26.8333 182.5,27.5C 178.099,25.4803 177.599,22.8137 181,19.5C 183.816,20.6623 186.65,21.8289 189.5,23C 192.328,26.589 195.828,28.089 200,27.5C 200.764,31.0995 202.93,33.0995 206.5,33.5 Z"/></g>
<g><path style="opacity:0.999" fill="#383838" d="M 58.5,33.5 C 68.1412,35.2948 77.8079,36.9615 87.5,38.5C 88.209,39.404 89.209,39.7373 90.5,39.5C 90.5,44.8333 90.5,50.1667 90.5,55.5C 89.8423,54.6016 89.1757,53.6016 88.5,52.5C 87.914,52.7093 87.414,53.0426 87,53.5C 84.198,50.3343 81.0313,47.501 77.5,45C 78.549,44.5078 79.549,44.6744 80.5,45.5C 81.6956,45.1543 81.6956,44.6543 80.5,44C 75.2671,42.7131 70.2671,40.8798 65.5,38.5C 65.1667,38.8333 64.8333,39.1667 64.5,39.5C 67.6429,43.3015 71.3096,46.4682 75.5,49C 73.5355,49.624 71.8689,49.124 70.5,47.5C 70.1667,48.1667 69.8333,48.8333 69.5,49.5C 67.4706,48.3707 67.1373,48.8707 68.5,51C 70.569,52.8744 72.9023,53.8744 75.5,54C 74.6721,53.0853 73.6721,52.4186 72.5,52C 77.3951,51.8979 80.3951,53.8979 81.5,58C 84.6493,59.6618 87.6493,61.4952 90.5,63.5C 90.5,65.5 90.5,67.5 90.5,69.5C 88.742,69.1231 87.0754,68.4565 85.5,67.5C 84.914,67.7093 84.414,68.0426 84,68.5C 80.4482,65.2809 76.6149,62.4476 72.5,60C 71.9288,58.7949 71.2621,57.6283 70.5,56.5C 68.3855,55.9661 66.5522,54.9661 65,53.5C 64.6012,53.7284 64.4346,54.0618 64.5,54.5C 62.8546,53.5213 61.5213,52.188 60.5,50.5C 59.914,50.7093 59.414,51.0426 59,51.5C 58.1566,45.4352 57.9899,39.4352 58.5,33.5 Z"/></g>
<g><path style="opacity:0.016" fill="#272727" d="M 87.5,38.5 C 88.2506,37.4265 89.2506,37.2599 90.5,38C 89.552,38.4828 88.552,38.6495 87.5,38.5 Z"/></g>
<g><path style="opacity:1" fill="#101010" d="M 174.5,28.5 C 176.928,32.3634 179.595,36.0301 182.5,39.5C 181.087,40.7658 179.754,41.4325 178.5,41.5C 180.934,45.9494 182.934,50.6161 184.5,55.5C 183.448,55.3505 182.448,55.5172 181.5,56C 184.702,57.7016 187.035,60.2016 188.5,63.5C 187.349,64.731 186.183,64.731 185,63.5C 185.355,64.9594 185.189,66.2928 184.5,67.5C 183.849,66.9094 183.182,66.2427 182.5,65.5C 180.885,66.154 179.218,66.654 177.5,67C 178.167,67.3333 178.833,67.6667 179.5,68C 178.069,68.4652 176.903,69.2986 176,70.5C 175.508,69.451 175.674,68.451 176.5,67.5C 175.726,66.2888 174.893,66.2888 174,67.5C 173.449,65.6467 174.115,64.3133 176,63.5C 176.388,64.428 177.055,65.0946 178,65.5C 180.752,64.4137 183.252,62.9137 185.5,61C 182.001,59.0841 178.668,56.9175 175.5,54.5C 174.214,52.0448 172.38,50.0448 170,48.5C 168.667,49.1667 167.667,50.1667 167,51.5C 165.513,50.7471 165.346,49.9138 166.5,49C 162.167,49.3333 161.833,48.3333 165.5,46C 163.975,44.9914 162.308,44.4914 160.5,44.5C 159.892,41.0417 157.892,38.5417 154.5,37C 154.833,36.6667 155.167,36.3333 155.5,36C 153.993,35.1627 153.493,33.9961 154,32.5C 155.734,34.4506 157.901,35.4506 160.5,35.5C 160.372,37.6547 160.872,39.6547 162,41.5C 162.692,40.9747 163.192,40.3081 163.5,39.5C 162.572,38.2322 162.405,36.8989 163,35.5C 163.583,37.0016 164.416,38.3349 165.5,39.5C 166.382,38.2402 167.382,37.0736 168.5,36C 167.5,35.6667 166.5,35.3333 165.5,35C 166.517,33.9505 166.684,32.7839 166,31.5C 165.667,32.1667 165.333,32.8333 165,33.5C 163.863,32.636 162.53,31.636 161,30.5C 160.517,29.552 160.351,28.552 160.5,27.5C 160.435,27.0618 160.601,26.7284 161,26.5C 161.667,27.8333 162.333,29.1667 163,30.5C 163.192,28.4233 163.692,26.4233 164.5,24.5C 165.275,22.5247 166.609,21.6913 168.5,22C 169.759,22.9234 171.092,23.7568 172.5,24.5C 172.167,25.8333 171.833,27.1667 171.5,28.5C 172.747,30.323 173.414,32.323 173.5,34.5C 172.325,34.281 171.325,34.6143 170.5,35.5C 172.006,36.7472 173.506,36.7472 175,35.5C 176.133,37.2112 177.633,37.7112 179.5,37C 177.113,36.0239 175.946,34.1906 176,31.5C 175.667,31.8333 175.333,32.1667 175,32.5C 174.51,31.2068 174.343,29.8734 174.5,28.5 Z"/></g>
<g><path style="opacity:0.004" fill="#3e3e3e" d="M 5.5,128.5 C 4.33572,93.6691 4.16905,58.6691 5,23.5C 5.49998,58.4984 5.66665,93.4984 5.5,128.5 Z"/></g>
<g><path style="opacity:1" fill="#464646" d="M 25.5,26.5 C 33.4788,27.9624 41.4788,29.2958 49.5,30.5C 49.8417,31.3382 50.5084,31.6716 51.5,31.5C 53.6994,34.5655 55.3661,37.8988 56.5,41.5C 54.2491,40.703 51.7491,40.703 49,41.5C 48.6667,40.1667 48.3333,38.8333 48,37.5C 47.3333,36.1667 46.6667,36.1667 46,37.5C 47.3,41.2768 47.6333,45.2768 47,49.5C 46.6667,47.1667 46.3333,44.8333 46,42.5C 45.6667,43.8333 45.3333,45.1667 45,46.5C 44.7508,45.376 44.2508,44.376 43.5,43.5C 43.1667,44.1667 42.8333,44.8333 42.5,45.5C 45.1535,49.4632 47.8202,53.4632 50.5,57.5C 50,58.5 49.5,59.5 49,60.5C 48.7261,57.2855 47.3927,54.6188 45,52.5C 44.2276,53.8491 43.0609,54.6824 41.5,55C 42.9931,56.3681 44.4931,56.5348 46,55.5C 46.4017,56.8721 46.9017,58.2054 47.5,59.5C 46.7261,60.7112 45.8928,60.7112 45,59.5C 44.7216,60.4158 44.2216,61.0825 43.5,61.5C 42.7974,59.2843 41.4641,57.451 39.5,56C 40.5171,54.9505 40.6838,53.7839 40,52.5C 39.195,54.9011 38.3617,54.7344 37.5,52C 38.4132,50.5861 38.4132,49.0861 37.5,47.5C 38.1514,45.1892 37.3181,43.1892 35,41.5C 33.2398,38.3107 31.7398,34.9773 30.5,31.5C 28.4733,36.0635 26.9733,40.7302 26,45.5C 22.8449,40.7494 22.1783,35.7494 24,30.5C 24.7175,31.4506 25.5509,31.6172 26.5,31C 25.3128,29.9805 24.3128,28.8139 23.5,27.5C 23.9569,26.7025 24.6236,26.3691 25.5,26.5 Z"/></g>
<g><path style="opacity:1" fill="#242424" d="M 206.5,46.5 C 206.5,47.8333 206.5,49.1667 206.5,50.5C 204.742,50.1231 203.075,49.4565 201.5,48.5C 200.914,48.7093 200.414,49.0426 200,49.5C 195.414,45.9855 191.247,42.1521 187.5,38C 191.505,40.6231 195.671,43.4564 200,46.5C 200.5,46.3333 201,46.1667 201.5,46C 200.04,45.1887 199.707,44.3554 200.5,43.5C 202.243,45.0383 204.243,46.0383 206.5,46.5 Z"/></g>
<g><path style="opacity:0.012" fill="#1e1d1c" d="M 119.5,3.5 C 120.497,24.6601 120.831,45.9935 120.5,67.5C 119.448,67.6495 118.448,67.4828 117.5,67C 119.482,46.0654 120.149,24.8988 119.5,3.5 Z"/></g>
<g><path style="opacity:1" fill="#5b5b5b" d="M 90.5,55.5 C 90.5,58.1667 90.5,60.8333 90.5,63.5C 87.6493,61.4952 84.6493,59.6618 81.5,58C 80.3951,53.8979 77.3951,51.8979 72.5,52C 73.6721,52.4186 74.6721,53.0853 75.5,54C 72.9023,53.8744 70.569,52.8744 68.5,51C 67.1373,48.8707 67.4706,48.3707 69.5,49.5C 69.8333,48.8333 70.1667,48.1667 70.5,47.5C 71.8689,49.124 73.5355,49.624 75.5,49C 71.3096,46.4682 67.6429,43.3015 64.5,39.5C 64.8333,39.1667 65.1667,38.8333 65.5,38.5C 70.2671,40.8798 75.2671,42.7131 80.5,44C 81.6956,44.6543 81.6956,45.1543 80.5,45.5C 79.549,44.6744 78.549,44.5078 77.5,45C 81.0313,47.501 84.198,50.3343 87,53.5C 87.414,53.0426 87.914,52.7093 88.5,52.5C 89.1757,53.6016 89.8423,54.6016 90.5,55.5 Z"/></g>
<g><path style="opacity:1" fill="#171717" d="M 160.5,44.5 C 162.308,44.4914 163.975,44.9914 165.5,46C 161.833,48.3333 162.167,49.3333 166.5,49C 165.346,49.9138 165.513,50.7471 167,51.5C 167.667,50.1667 168.667,49.1667 170,48.5C 172.38,50.0448 174.214,52.0448 175.5,54.5C 175.906,56.1092 175.906,57.4425 175.5,58.5C 173.185,57.7657 171.352,56.4324 170,54.5C 167.942,55.1095 167.109,56.1095 167.5,57.5C 166.749,56.624 166.249,55.624 166,54.5C 164.334,55.3402 164.167,54.8402 165.5,53C 163.359,52.1163 161.693,52.6163 160.5,54.5C 161.771,54.1255 162.938,54.7922 164,56.5C 164.36,58.6079 165.027,60.6079 166,62.5C 166.221,59.0569 167.221,58.7236 169,61.5C 169.192,63.5767 169.692,65.5767 170.5,67.5C 174.865,68.7288 175.198,70.0621 171.5,71.5C 169.62,71.0748 168.12,70.0748 167,68.5C 165.437,69.1021 165.604,69.9354 167.5,71C 167.402,72.2847 167.402,73.4514 167.5,74.5C 165.304,74.4348 163.304,73.7681 161.5,72.5C 162.5,71.8333 163.5,71.1667 164.5,70.5C 160.278,66.2037 158.444,66.8703 159,72.5C 158.121,74.9795 156.621,76.9795 154.5,78.5C 155.747,80.0421 155.747,81.5421 154.5,83C 156.993,84.5826 156.826,86.0826 154,87.5C 153.56,85.9238 152.727,84.5904 151.5,83.5C 151.977,82.5224 152.643,81.6891 153.5,81C 152.953,80.0754 152.287,79.2421 151.5,78.5C 150.015,79.8207 148.682,81.3207 147.5,83C 148.729,84.3864 149.729,85.8864 150.5,87.5C 149.5,87.5 148.5,87.5 147.5,87.5C 146.909,86.8485 146.243,86.1818 145.5,85.5C 146.711,84.2798 146.711,83.1131 145.5,82C 146.126,81.2496 146.626,80.4162 147,79.5C 147.333,79.8333 147.667,80.1667 148,80.5C 148.798,78.7412 148.631,77.0745 147.5,75.5C 146.571,76.5498 145.905,76.5498 145.5,75.5C 147.758,72.6434 149.758,69.6434 151.5,66.5C 151.5,64.5 151.5,62.5 151.5,60.5C 148.004,61.8584 144.838,61.1917 142,58.5C 142.408,55.8393 143.241,53.1727 144.5,50.5C 144.333,49.8333 144.167,49.1667 144,48.5C 142.484,51.0515 141.651,50.7181 141.5,47.5C 145.806,46.9342 146.139,46.2675 142.5,45.5C 141.243,43.632 141.576,41.9653 143.5,40.5C 144.096,41.7161 144.263,43.0494 144,44.5C 145.749,43.701 147.082,44.3676 148,46.5C 149.067,45.8095 150.234,45.3095 151.5,45C 150.289,43.8869 150.289,42.7202 151.5,41.5C 151.136,39.2674 150.136,37.434 148.5,36C 149,35.5 149.5,35 150,34.5C 151.887,36.0261 152.887,38.0261 153,40.5C 153.333,40.1667 153.667,39.8333 154,39.5C 154.667,42.1667 155.333,42.1667 156,39.5C 159.023,40.9851 159.19,42.6518 156.5,44.5C 155.549,43.6744 154.549,43.5078 153.5,44C 152.816,45.6934 151.816,47.1934 150.5,48.5C 151.242,49.2868 152.075,49.9535 153,50.5C 153.889,49.1118 154.389,49.2785 154.5,51C 153.99,52.8261 153.156,52.9928 152,51.5C 151.667,52.8333 151.333,54.1667 151,55.5C 150.28,53.7448 149.113,52.9115 147.5,53C 148.634,54.016 148.301,54.6827 146.5,55C 147.667,56.5 148.833,58 150,59.5C 151.122,57.5795 151.956,55.5795 152.5,53.5C 153.5,53.5 154.5,53.5 155.5,53.5C 155.784,51.1229 155.784,48.9562 155.5,47C 156,46.5 156.5,46 157,45.5C 157.967,46.6776 158.467,48.011 158.5,49.5C 159.5,49 160.5,48.5 161.5,48C 159.273,47.296 158.94,46.1294 160.5,44.5 Z"/></g>
<g><path style="opacity:1" fill="#272727" d="M 90.5,69.5 C 90.5,72.1667 90.5,74.8333 90.5,77.5C 90.5,78.1667 90.5,78.8333 90.5,79.5C 89.6981,80.9516 89.1981,82.6183 89,84.5C 79.503,83.0486 79.3363,81.5486 88.5,80C 79.2831,72.6173 71.2831,64.1173 64.5,54.5C 64.4346,54.0618 64.6012,53.7284 65,53.5C 66.5522,54.9661 68.3855,55.9661 70.5,56.5C 71.2621,57.6283 71.9288,58.7949 72.5,60C 76.6149,62.4476 80.4482,65.2809 84,68.5C 84.414,68.0426 84.914,67.7093 85.5,67.5C 87.0754,68.4565 88.742,69.1231 90.5,69.5 Z"/></g>
<g><path style="opacity:1" fill="#9b9b9b" d="M 149.5,66.5 C 150.167,66.5 150.833,66.5 151.5,66.5C 149.758,69.6434 147.758,72.6434 145.5,75.5C 144.242,78.3638 142.242,79.0304 139.5,77.5C 138.29,77.0679 137.29,76.4013 136.5,75.5C 136.423,74.2502 135.756,73.4169 134.5,73C 136.979,69.6868 139.645,66.5202 142.5,63.5C 144.739,64.7878 147.072,65.7878 149.5,66.5 Z"/></g>
<g><path style="opacity:1" fill="#bebebe" d="M 152.5,63.5 C 157.467,64.6926 157.633,66.6926 153,69.5C 152.505,67.5273 152.338,65.5273 152.5,63.5 Z"/></g>
<g><path style="opacity:1" fill="#383838" d="M 56.5,41.5 C 56.8588,43.7659 56.1922,45.5993 54.5,47C 56.7744,49.3443 57.9411,52.1776 58,55.5C 58.3333,55.1667 58.6667,54.8333 59,54.5C 61.5572,57.1916 64.3905,59.525 67.5,61.5C 66.6698,63.1349 66.5031,64.8016 67,66.5C 63.877,64.4113 63.7104,65.078 66.5,68.5C 65.6446,69.293 64.8113,68.9597 64,67.5C 63.5172,68.448 63.3505,69.448 63.5,70.5C 62.448,70.3505 61.448,70.5172 60.5,71C 63.0196,72.7632 65.3529,74.7632 67.5,77C 65.1537,76.9211 62.987,76.0877 61,74.5C 60.3083,75.4368 60.475,76.1034 61.5,76.5C 58.9284,77.2564 56.5951,76.4231 54.5,74C 56.2785,74.9791 57.9452,74.6458 59.5,73C 59,72.5 58.5,72 58,71.5C 56.4905,72.0897 54.9905,72.7564 53.5,73.5C 52.6371,74.7264 52.6371,76.0597 53.5,77.5C 51.8523,76.1902 50.1856,74.8569 48.5,73.5C 49.3914,72.4104 50.3914,72.4104 51.5,73.5C 52.6956,73.1543 52.6956,72.6543 51.5,72C 49.5594,71.2571 47.7261,71.4238 46,72.5C 45.0236,68.7483 45.6902,68.0817 48,70.5C 48.1667,70.1667 48.3333,69.8333 48.5,69.5C 45.7397,67.5258 44.073,64.8592 43.5,61.5C 44.2216,61.0825 44.7216,60.4158 45,59.5C 45.8928,60.7112 46.7261,60.7112 47.5,59.5C 46.9017,58.2054 46.4017,56.8721 46,55.5C 44.4931,56.5348 42.9931,56.3681 41.5,55C 43.0609,54.6824 44.2276,53.8491 45,52.5C 47.3927,54.6188 48.7261,57.2855 49,60.5C 49.5,59.5 50,58.5 50.5,57.5C 47.8202,53.4632 45.1535,49.4632 42.5,45.5C 42.8333,44.8333 43.1667,44.1667 43.5,43.5C 44.2508,44.376 44.7508,45.376 45,46.5C 45.3333,45.1667 45.6667,43.8333 46,42.5C 46.3333,44.8333 46.6667,47.1667 47,49.5C 47.6333,45.2768 47.3,41.2768 46,37.5C 46.6667,36.1667 47.3333,36.1667 48,37.5C 48.3333,38.8333 48.6667,40.1667 49,41.5C 51.7491,40.703 54.2491,40.703 56.5,41.5 Z"/></g>
<g><path style="opacity:1" fill="#2b2b2b" d="M 182.5,39.5 C 181.829,40.8471 181.829,42.0138 182.5,43C 180.314,43.6036 180.148,44.7703 182,46.5C 182.654,47.6956 183.154,47.6956 183.5,46.5C 182.54,45.1877 182.706,43.8544 184,42.5C 189.301,46.7998 194.301,51.4664 199,56.5C 198.683,58.7734 197.183,59.7734 194.5,59.5C 194.351,60.552 194.517,61.552 195,62.5C 195.333,62.1667 195.667,61.8333 196,61.5C 199.035,63.9705 202.535,65.3038 206.5,65.5C 206.5,71.1667 206.5,76.8333 206.5,82.5C 205.833,82.1667 205.167,81.8333 204.5,81.5C 205.275,79.6119 205.275,77.6119 204.5,75.5C 201.476,75.6358 199.976,74.3025 200,71.5C 201.085,72.2931 202.252,72.9598 203.5,73.5C 203.736,72.7528 204.07,71.9195 204.5,71C 203.551,70.3828 202.718,70.5494 202,71.5C 198.945,70.0859 195.778,68.9193 192.5,68C 193.167,67.6667 193.833,67.3333 194.5,67C 192.718,66.1859 191.218,65.0192 190,63.5C 189.392,65.0664 188.558,66.3998 187.5,67.5C 186.5,67.5 185.5,67.5 184.5,67.5C 185.189,66.2928 185.355,64.9594 185,63.5C 186.183,64.731 187.349,64.731 188.5,63.5C 187.035,60.2016 184.702,57.7016 181.5,56C 182.448,55.5172 183.448,55.3505 184.5,55.5C 182.934,50.6161 180.934,45.9494 178.5,41.5C 179.754,41.4325 181.087,40.7658 182.5,39.5 Z"/></g>
<g><path style="opacity:1" fill="#0b0b0b" d="M 204.5,81.5 C 203.571,80.0639 202.405,78.7305 201,77.5C 202.253,81.6712 201.253,82.3379 198,79.5C 197.586,79.9574 197.086,80.2907 196.5,80.5C 193.281,78.1058 189.947,75.9392 186.5,74C 188.884,72.5904 190.55,70.5904 191.5,68C 190.004,67.4926 188.837,67.9926 188,69.5C 187.536,68.9056 187.369,68.2389 187.5,67.5C 188.558,66.3998 189.392,65.0664 190,63.5C 191.218,65.0192 192.718,66.1859 194.5,67C 193.833,67.3333 193.167,67.6667 192.5,68C 195.778,68.9193 198.945,70.0859 202,71.5C 202.718,70.5494 203.551,70.3828 204.5,71C 204.07,71.9195 203.736,72.7528 203.5,73.5C 202.252,72.9598 201.085,72.2931 200,71.5C 199.976,74.3025 201.476,75.6358 204.5,75.5C 205.275,77.6119 205.275,79.6119 204.5,81.5 Z"/></g>
<g><path style="opacity:1" fill="#434343" d="M 14.5,37.5 C 16.2253,42.1713 17.8919,47.0047 19.5,52C 19.1081,53.0105 18.4415,53.5105 17.5,53.5C 18.1815,56.4574 18.3482,59.4574 18,62.5C 18.8221,60.2115 19.4888,57.8782 20,55.5C 21.6874,57.1678 21.8541,59.0012 20.5,61C 21.8599,63.2702 22.5266,65.7702 22.5,68.5C 22.5,68.8333 22.5,69.1667 22.5,69.5C 21.1359,71.22 20.1359,73.22 19.5,75.5C 20.09,76.7989 21.09,77.6322 22.5,78C 20.6671,82.3314 17.6671,85.498 13.5,87.5C 14.1667,87.8333 14.8333,88.1667 15.5,88.5C 13.1895,92.476 10.1895,95.8093 6.5,98.5C 6.5,81.8333 6.5,65.1667 6.5,48.5C 9.74086,46.9338 11.2409,44.2671 11,40.5C 12.7286,40.0257 13.8953,39.0257 14.5,37.5 Z"/></g>
<g><path style="opacity:1" fill="#505050" d="M 37.5,47.5 C 38.4132,49.0861 38.4132,50.5861 37.5,52C 38.3617,54.7344 39.195,54.9011 40,52.5C 40.6838,53.7839 40.5171,54.9505 39.5,56C 41.4641,57.451 42.7974,59.2843 43.5,61.5C 44.073,64.8592 45.7397,67.5258 48.5,69.5C 48.3333,69.8333 48.1667,70.1667 48,70.5C 45.6902,68.0817 45.0236,68.7483 46,72.5C 47.7261,71.4238 49.5594,71.2571 51.5,72C 52.6956,72.6543 52.6956,73.1543 51.5,73.5C 50.3914,72.4104 49.3914,72.4104 48.5,73.5C 50.1856,74.8569 51.8523,76.1902 53.5,77.5C 54.4124,78.7382 54.5791,80.0715 54,81.5C 52.3823,77.1886 50.8823,76.8552 49.5,80.5C 49.067,77.8045 47.7337,75.6379 45.5,74C 44.2234,73.8726 43.0567,74.3726 42,75.5C 40.9412,75.3699 40.1079,74.8699 39.5,74C 40.7649,72.6626 41.2649,71.1626 41,69.5C 40.0853,70.3279 39.4186,71.3279 39,72.5C 38.1307,67.4919 37.4641,67.8252 37,73.5C 34.977,71.4603 33.3103,69.127 32,66.5C 31.9547,70.2496 33.4547,73.4162 36.5,76C 35.5838,76.3742 34.7504,76.8742 34,77.5C 33.0536,75.2117 31.8869,73.045 30.5,71C 28.5217,71.7918 26.855,73.2918 25.5,75.5C 24.1993,73.556 23.1993,71.556 22.5,69.5C 22.5,69.1667 22.5,68.8333 22.5,68.5C 23.4345,67.4324 23.7678,66.099 23.5,64.5C 24.552,64.6495 25.552,64.4828 26.5,64C 25.1667,62.6667 25.1667,61.3333 26.5,60C 24.9861,58.561 24.6527,57.061 25.5,55.5C 26.5414,57.5852 28.0414,59.2519 30,60.5C 30.3076,59.6919 30.8076,59.0253 31.5,58.5C 34.0237,60.1901 36.0237,62.3568 37.5,65C 38.4835,65.5908 39.1501,65.2575 39.5,64C 37.3476,62.0344 35.681,59.701 34.5,57C 35.805,55.244 36.4716,53.5773 36.5,52C 34.9391,51.6824 33.7724,50.8491 33,49.5C 31.3066,50.1845 29.8066,51.1845 28.5,52.5C 27.1072,51.1369 25.4405,50.3036 23.5,50C 23.6932,48.3547 23.8598,46.5213 24,44.5C 24.6872,46.5547 25.8539,48.2214 27.5,49.5C 28.8333,47.5 30.1667,45.5 31.5,43.5C 32.1924,44.0253 32.6924,44.6919 33,45.5C 33.3333,45.1667 33.6667,44.8333 34,44.5C 34.3333,46.1667 34.6667,47.8333 35,49.5C 35.7083,48.6195 36.5416,47.9528 37.5,47.5 Z"/></g>
<g><path style="opacity:1" fill="#f8bd05" d="M 125.5,72.5 C 125.599,75.2372 125.265,77.9039 124.5,80.5C 120.91,86.4016 116.076,88.0683 110,85.5C 108.231,78.8737 110.397,74.0404 116.5,71C 119.741,70.2069 122.741,70.7069 125.5,72.5 Z"/></g>
<g><path style="opacity:1" fill="#757575" d="M 149.5,66.5 C 147.072,65.7878 144.739,64.7878 142.5,63.5C 139.645,66.5202 136.979,69.6868 134.5,73C 135.756,73.4169 136.423,74.2502 136.5,75.5C 134.91,75.3718 133.577,74.7051 132.5,73.5C 135.309,69.5233 138.309,65.69 141.5,62C 143.408,62.4824 145.408,63.1491 147.5,64C 148.381,64.7083 149.047,65.5416 149.5,66.5 Z"/></g>
<g><path style="opacity:0.012" fill="#71654b" d="M 110.5,73.5 C 109.833,73.5 109.5,73.8333 109.5,74.5C 108.287,73.5029 108.454,72.5029 110,71.5C 110.464,72.0944 110.631,72.7611 110.5,73.5 Z"/></g>
<g><path style="opacity:0.012" fill="#4a582b" d="M 96.5,75.5 C 95.209,75.2627 94.209,75.596 93.5,76.5C 91.6214,76.6068 91.2881,76.1068 92.5,75C 94.0657,74.235 95.3991,74.4017 96.5,75.5 Z"/></g>
<g><path style="opacity:0.727" fill="#54672b" d="M 96.5,75.5 C 100.938,74.4251 102.938,76.0917 102.5,80.5C 102.5,82.8333 102.5,85.1667 102.5,87.5C 102.66,89.1992 102.494,90.8659 102,92.5C 99.7272,94.6282 97.2272,96.2949 94.5,97.5C 93.209,97.2627 92.209,97.596 91.5,98.5C 91.1667,98.5 90.8333,98.5 90.5,98.5C 90.5,97.5 90.5,96.5 90.5,95.5C 93.8286,95.0015 96.9953,94.0015 100,92.5C 100.499,87.5111 100.666,82.5111 100.5,77.5C 97.1226,77.9595 93.7893,78.6261 90.5,79.5C 90.5,78.8333 90.5,78.1667 90.5,77.5C 91.791,77.7373 92.791,77.404 93.5,76.5C 94.791,76.7373 95.791,76.404 96.5,75.5 Z"/></g>
<g><path style="opacity:1" fill="#222222" d="M 175.5,54.5 C 178.668,56.9175 182.001,59.0841 185.5,61C 183.252,62.9137 180.752,64.4137 178,65.5C 177.055,65.0946 176.388,64.428 176,63.5C 174.115,64.3133 173.449,65.6467 174,67.5C 174.893,66.2888 175.726,66.2888 176.5,67.5C 175.674,68.451 175.508,69.451 176,70.5C 176.903,69.2986 178.069,68.4652 179.5,68C 178.833,67.6667 178.167,67.3333 177.5,67C 179.218,66.654 180.885,66.154 182.5,65.5C 183.182,66.2427 183.849,66.9094 184.5,67.5C 185.5,67.5 186.5,67.5 187.5,67.5C 187.369,68.2389 187.536,68.9056 188,69.5C 188.837,67.9926 190.004,67.4926 191.5,68C 190.55,70.5904 188.884,72.5904 186.5,74C 189.947,75.9392 193.281,78.1058 196.5,80.5C 197.086,80.2907 197.586,79.9574 198,79.5C 201.253,82.3379 202.253,81.6712 201,77.5C 202.405,78.7305 203.571,80.0639 204.5,81.5C 205.167,81.8333 205.833,82.1667 206.5,82.5C 206.5,85.8333 206.5,89.1667 206.5,92.5C 199.656,86.9958 192.156,82.6624 184,79.5C 182.893,80.7119 182.393,80.3786 182.5,78.5C 180.97,76.1231 179.47,76.1231 178,78.5C 175.871,77.1373 175.371,77.4706 176.5,79.5C 171.39,81.7341 168.39,80.0674 167.5,74.5C 167.402,73.4514 167.402,72.2847 167.5,71C 165.604,69.9354 165.437,69.1021 167,68.5C 168.12,70.0748 169.62,71.0748 171.5,71.5C 175.198,70.0621 174.865,68.7288 170.5,67.5C 169.692,65.5767 169.192,63.5767 169,61.5C 167.221,58.7236 166.221,59.0569 166,62.5C 165.027,60.6079 164.36,58.6079 164,56.5C 162.938,54.7922 161.771,54.1255 160.5,54.5C 161.693,52.6163 163.359,52.1163 165.5,53C 164.167,54.8402 164.334,55.3402 166,54.5C 166.249,55.624 166.749,56.624 167.5,57.5C 167.109,56.1095 167.942,55.1095 170,54.5C 171.352,56.4324 173.185,57.7657 175.5,58.5C 175.906,57.4425 175.906,56.1092 175.5,54.5 Z"/></g>
<g><path style="opacity:1" fill="#343434" d="M 49.5,80.5 C 51.19,84.1873 50.69,84.854 48,82.5C 47.8333,82.8333 47.6667,83.1667 47.5,83.5C 48.9501,84.8498 49.6168,86.5165 49.5,88.5C 48.5,88.5 47.5,88.5 46.5,88.5C 46.6602,86.8008 46.4935,85.1341 46,83.5C 45.6667,84.1667 45.3333,84.8333 45,85.5C 42.9833,82.8728 43.1499,80.3728 45.5,78C 45.1667,77.8333 44.8333,77.6667 44.5,77.5C 41.2556,81.0504 40.4222,85.0504 42,89.5C 46.1402,87.1034 46.4735,87.7701 43,91.5C 41.2326,90.66 39.8993,89.3266 39,87.5C 38.6667,87.8333 38.3333,88.1667 38,88.5C 37,86.1667 36,83.8333 35,81.5C 34.483,84.8236 33.6496,87.4902 32.5,89.5C 30.9937,86.5308 31.327,83.6975 33.5,81C 32.0039,80.4926 30.8373,80.9926 30,82.5C 30.1675,88.7614 28.0008,93.9281 23.5,98C 20.7003,99.4847 18.0336,101.151 15.5,103C 13.8333,103.667 12.1667,103.667 10.5,103C 11.7112,102.107 11.7112,101.274 10.5,100.5C 9.37765,101.63 8.04432,102.297 6.5,102.5C 6.5,101.167 6.5,99.8333 6.5,98.5C 10.1895,95.8093 13.1895,92.476 15.5,88.5C 14.8333,88.1667 14.1667,87.8333 13.5,87.5C 17.6671,85.498 20.6671,82.3314 22.5,78C 21.09,77.6322 20.09,76.7989 19.5,75.5C 20.1359,73.22 21.1359,71.22 22.5,69.5C 23.1993,71.556 24.1993,73.556 25.5,75.5C 26.855,73.2918 28.5217,71.7918 30.5,71C 31.8869,73.045 33.0536,75.2117 34,77.5C 34.7504,76.8742 35.5838,76.3742 36.5,76C 33.4547,73.4162 31.9547,70.2496 32,66.5C 33.3103,69.127 34.977,71.4603 37,73.5C 37.4641,67.8252 38.1307,67.4919 39,72.5C 39.4186,71.3279 40.0853,70.3279 41,69.5C 41.2649,71.1626 40.7649,72.6626 39.5,74C 40.1079,74.8699 40.9412,75.3699 42,75.5C 43.0567,74.3726 44.2234,73.8726 45.5,74C 47.7337,75.6379 49.067,77.8045 49.5,80.5 Z"/></g>
<g><path style="opacity:1" fill="#6fab46" d="M 90.5,95.5 C 90.5,90.1667 90.5,84.8333 90.5,79.5C 93.7893,78.6261 97.1226,77.9595 100.5,77.5C 100.666,82.5111 100.499,87.5111 100,92.5C 96.9953,94.0015 93.8286,95.0015 90.5,95.5 Z"/></g>
<g><path style="opacity:0.004" fill="#393a21" d="M 103.5,76.5 C 104.222,76.9175 104.722,77.5842 105,78.5C 105.333,78.1667 105.667,77.8333 106,77.5C 106.667,78.5 106.667,79.5 106,80.5C 104.294,79.6921 103.461,78.3588 103.5,76.5 Z"/></g>
<g><path style="opacity:0.353" fill="#7d6c46" d="M 121.5,68.5 C 123.297,69.393 124.63,70.7263 125.5,72.5C 122.741,70.7069 119.741,70.2069 116.5,71C 110.397,74.0404 108.231,78.8737 110,85.5C 116.076,88.0683 120.91,86.4016 124.5,80.5C 124.385,82.9468 123.385,84.9468 121.5,86.5C 120.29,86.9321 119.29,87.5987 118.5,88.5C 116.5,88.8333 114.5,89.1667 112.5,89.5C 110.651,88.407 108.984,87.0737 107.5,85.5C 107.111,81.5863 107.778,77.9196 109.5,74.5C 110.167,74.5 110.5,74.1667 110.5,73.5C 113.532,70.4847 117.199,68.818 121.5,68.5 Z"/></g>
<g><path style="opacity:1" fill="#1c1c1c" d="M 142.5,45.5 C 146.139,46.2675 145.806,46.9342 141.5,47.5C 141.651,50.7181 142.484,51.0515 144,48.5C 144.167,49.1667 144.333,49.8333 144.5,50.5C 143.241,53.1727 142.408,55.8393 142,58.5C 144.838,61.1917 148.004,61.8584 151.5,60.5C 151.5,62.5 151.5,64.5 151.5,66.5C 150.833,66.5 150.167,66.5 149.5,66.5C 149.047,65.5416 148.381,64.7083 147.5,64C 145.408,63.1491 143.408,62.4824 141.5,62C 138.309,65.69 135.309,69.5233 132.5,73.5C 133.577,74.7051 134.91,75.3718 136.5,75.5C 137.29,76.4013 138.29,77.0679 139.5,77.5C 139.063,79.0744 138.063,80.2411 136.5,81C 133.947,82.3764 131.28,83.5431 128.5,84.5C 126.688,84.0485 125.688,82.8818 125.5,81C 126.732,78.0169 126.732,75.1836 125.5,72.5C 124.63,70.7263 123.297,69.393 121.5,68.5C 121.5,61.5 121.5,54.5 121.5,47.5C 123.481,45.8564 125.481,44.1897 127.5,42.5C 128.603,44.1036 130.103,45.1036 132,45.5C 135.508,45.6164 139.008,45.6164 142.5,45.5 Z"/></g>
<g><path style="opacity:1" fill="#d4d4d4" d="M 127.5,72.5 C 128.922,72.7086 130.255,73.2086 131.5,74C 128.65,78.8164 127.317,78.3164 127.5,72.5 Z"/></g>
<g><path style="opacity:0.016" fill="#151515" d="M 207.5,133.5 C 207.333,95.8319 207.5,58.1652 208,20.5C 208.831,58.3356 208.664,96.0022 207.5,133.5 Z"/></g>
<g><path style="opacity:0.631" fill="#15170c" d="M 102.5,80.5 C 105.965,80.8566 106.965,82.5233 105.5,85.5C 105.27,87.5138 104.77,89.8471 104,92.5C 103.802,90.6183 103.302,88.9516 102.5,87.5C 102.5,85.1667 102.5,82.8333 102.5,80.5 Z"/></g>
<g><path style="opacity:1" fill="#3f3f3f" d="M 61.5,76.5 C 61.8816,78.3854 63.215,79.8854 65.5,81C 65.1667,81.3333 64.8333,81.6667 64.5,82C 67.5,83.6667 70.5,85.3333 73.5,87C 72.7298,90.2713 70.7298,92.438 67.5,93.5C 66.7379,94.6283 66.0712,95.7949 65.5,97C 68.2441,96.9808 70.9107,96.3141 73.5,95C 72.6919,94.6924 72.0253,94.1924 71.5,93.5C 72.9051,91.3455 74.2385,89.1788 75.5,87C 74.3961,85.8687 74.7295,85.0354 76.5,84.5C 79.0278,85.4978 79.0278,86.3311 76.5,87C 79.1667,89 81.8333,91 84.5,93C 86.3318,94.4886 87.1652,96.322 87,98.5C 85.9153,96.3426 84.7487,96.1759 83.5,98C 84.1667,98.3333 84.8333,98.6667 85.5,99C 80.0106,99.9317 74.6772,99.4317 69.5,97.5C 68.2267,98.2565 68.2267,98.9232 69.5,99.5C 67.6309,100.165 65.6309,100.831 63.5,101.5C 64.1445,102.732 64.3112,104.065 64,105.5C 71.687,113.382 80.5203,119.382 90.5,123.5C 90.5,127.833 90.5,132.167 90.5,136.5C 87.8079,134.797 85.8079,132.464 84.5,129.5C 79.0714,127.284 73.4047,126.117 67.5,126C 63.8035,123.586 64.3035,123.086 69,124.5C 69.9277,122.665 71.0944,122.332 72.5,123.5C 73.6422,121.622 74.6422,119.788 75.5,118C 75,117.5 74.5,117 74,116.5C 73.5814,117.672 72.9147,118.672 72,119.5C 70.414,118.624 68.914,117.624 67.5,116.5C 68.2624,116.089 69.2624,115.923 70.5,116C 70.1667,115.667 69.8333,115.333 69.5,115C 66.7844,113.599 64.1177,113.099 61.5,113.5C 61.3893,112.883 61.056,112.383 60.5,112C 61.7376,112.077 62.7376,111.911 63.5,111.5C 61.8267,108.131 60.1601,104.798 58.5,101.5C 60.162,100.673 61.4954,99.5067 62.5,98C 60.6522,98.4619 58.6522,98.9619 56.5,99.5C 55.1667,99.1667 53.8333,98.8333 52.5,98.5C 53.5063,97.6043 53.5063,96.9377 52.5,96.5C 49.8739,99.0467 49.2072,98.5467 50.5,95C 49.7875,93.558 48.6209,92.7247 47,92.5C 44.1816,93.91 41.5149,95.5766 39,97.5C 39.6341,102.757 37.6341,103.757 33,100.5C 32.0022,103.028 31.1689,103.028 30.5,100.5C 30.9391,98.8957 31.6057,97.3957 32.5,96C 31.6138,93.8882 31.6138,91.7216 32.5,89.5C 33.6496,87.4902 34.483,84.8236 35,81.5C 36,83.8333 37,86.1667 38,88.5C 38.3333,88.1667 38.6667,87.8333 39,87.5C 39.8993,89.3266 41.2326,90.66 43,91.5C 46.4735,87.7701 46.1402,87.1034 42,89.5C 40.4222,85.0504 41.2556,81.0504 44.5,77.5C 44.8333,77.6667 45.1667,77.8333 45.5,78C 43.1499,80.3728 42.9833,82.8728 45,85.5C 45.3333,84.8333 45.6667,84.1667 46,83.5C 46.4935,85.1341 46.6602,86.8008 46.5,88.5C 47.5,88.5 48.5,88.5 49.5,88.5C 49.6168,86.5165 48.9501,84.8498 47.5,83.5C 47.6667,83.1667 47.8333,82.8333 48,82.5C 50.69,84.854 51.19,84.1873 49.5,80.5C 50.8823,76.8552 52.3823,77.1886 54,81.5C 54.5791,80.0715 54.4124,78.7382 53.5,77.5C 52.6371,76.0597 52.6371,74.7264 53.5,73.5C 54.9905,72.7564 56.4905,72.0897 58,71.5C 58.5,72 59,72.5 59.5,73C 57.9452,74.6458 56.2785,74.9791 54.5,74C 56.5951,76.4231 58.9284,77.2564 61.5,76.5 Z"/></g>
<g><path style="opacity:1" fill="#090909" d="M 174.5,88.5 C 173.742,99.5555 170.575,100.555 165,91.5C 163.988,94.2018 162.488,96.5351 160.5,98.5C 159.172,97.0903 159.505,95.9236 161.5,95C 159.314,94.3964 159.148,93.2297 161,91.5C 161.333,91.8333 161.667,92.1667 162,92.5C 163.877,90.2088 163.71,88.2088 161.5,86.5C 161.167,87.1667 160.833,87.8333 160.5,88.5C 159.152,86.3886 159.485,84.5553 161.5,83C 159.484,82.1005 157.817,80.7672 156.5,79C 157.744,78.5439 158.577,79.0439 159,80.5C 160,77.8333 161,77.8333 162,80.5C 163.378,78.7866 165.045,77.4533 167,76.5C 167.667,77.1667 167.667,77.8333 167,78.5C 162.314,80.9952 162.814,81.9952 168.5,81.5C 167.771,83.9931 166.937,86.3264 166,88.5C 167.685,86.9825 169.185,85.3159 170.5,83.5C 172.961,84.2914 174.294,85.9581 174.5,88.5 Z"/></g>
<g><path style="opacity:0.995" fill="#040404" d="M 182.5,78.5 C 182.393,80.3786 182.893,80.7119 184,79.5C 192.156,82.6624 199.656,86.9958 206.5,92.5C 206.5,96.5 206.5,100.5 206.5,104.5C 202.308,103.492 198.308,101.992 194.5,100C 191.958,96.8162 188.958,94.3162 185.5,92.5C 181.19,89.3784 178.523,85.2117 177.5,80C 179.154,79.3923 180.821,78.8923 182.5,78.5 Z"/></g>
<g><path style="opacity:0.008" fill="#62573b" d="M 105.5,85.5 C 106.167,85.5 106.833,85.5 107.5,85.5C 107.214,87.9327 106.548,87.9327 105.5,85.5 Z"/></g>
<g><path style="opacity:1" fill="#4c4c4c" d="M 51.5,31.5 C 54.0098,31.9267 56.3432,32.5933 58.5,33.5C 57.9899,39.4352 58.1566,45.4352 59,51.5C 59.414,51.0426 59.914,50.7093 60.5,50.5C 61.5213,52.188 62.8546,53.5213 64.5,54.5C 71.2831,64.1173 79.2831,72.6173 88.5,80C 79.3363,81.5486 79.503,83.0486 89,84.5C 89.1981,82.6183 89.6981,80.9516 90.5,79.5C 90.5,84.8333 90.5,90.1667 90.5,95.5C 90.5,96.5 90.5,97.5 90.5,98.5C 90.5,101.167 90.5,103.833 90.5,106.5C 83.8373,103.345 76.8373,101.011 69.5,99.5C 68.2267,98.9232 68.2267,98.2565 69.5,97.5C 74.6772,99.4317 80.0106,99.9317 85.5,99C 84.8333,98.6667 84.1667,98.3333 83.5,98C 84.7487,96.1759 85.9153,96.3426 87,98.5C 87.1652,96.322 86.3318,94.4886 84.5,93C 81.8333,91 79.1667,89 76.5,87C 79.0278,86.3311 79.0278,85.4978 76.5,84.5C 74.7295,85.0354 74.3961,85.8687 75.5,87C 74.2385,89.1788 72.9051,91.3455 71.5,93.5C 72.0253,94.1924 72.6919,94.6924 73.5,95C 70.9107,96.3141 68.2441,96.9808 65.5,97C 66.0712,95.7949 66.7379,94.6283 67.5,93.5C 70.7298,92.438 72.7298,90.2713 73.5,87C 70.5,85.3333 67.5,83.6667 64.5,82C 64.8333,81.6667 65.1667,81.3333 65.5,81C 63.215,79.8854 61.8816,78.3854 61.5,76.5C 60.475,76.1034 60.3083,75.4368 61,74.5C 62.987,76.0877 65.1537,76.9211 67.5,77C 65.3529,74.7632 63.0196,72.7632 60.5,71C 61.448,70.5172 62.448,70.3505 63.5,70.5C 63.3505,69.448 63.5172,68.448 64,67.5C 64.8113,68.9597 65.6446,69.293 66.5,68.5C 63.7104,65.078 63.877,64.4113 67,66.5C 66.5031,64.8016 66.6698,63.1349 67.5,61.5C 64.3905,59.525 61.5572,57.1916 59,54.5C 58.6667,54.8333 58.3333,55.1667 58,55.5C 57.9411,52.1776 56.7744,49.3443 54.5,47C 56.1922,45.5993 56.8588,43.7659 56.5,41.5C 55.3661,37.8988 53.6994,34.5655 51.5,31.5 Z"/></g>
<g><path style="opacity:1" fill="#303030" d="M 167.5,74.5 C 168.39,80.0674 171.39,81.7341 176.5,79.5C 175.371,77.4706 175.871,77.1373 178,78.5C 179.47,76.1231 180.97,76.1231 182.5,78.5C 180.821,78.8923 179.154,79.3923 177.5,80C 178.523,85.2117 181.19,89.3784 185.5,92.5C 181.25,92.6212 178.583,90.2879 177.5,85.5C 178.44,82.9477 177.44,82.1144 174.5,83C 175.926,85.7733 177.26,88.6066 178.5,91.5C 177.675,92.3857 176.675,92.719 175.5,92.5C 175.768,90.901 175.434,89.5676 174.5,88.5C 174.294,85.9581 172.961,84.2914 170.5,83.5C 169.185,85.3159 167.685,86.9825 166,88.5C 166.937,86.3264 167.771,83.9931 168.5,81.5C 162.814,81.9952 162.314,80.9952 167,78.5C 167.667,77.8333 167.667,77.1667 167,76.5C 165.045,77.4533 163.378,78.7866 162,80.5C 161,77.8333 160,77.8333 159,80.5C 158.577,79.0439 157.744,78.5439 156.5,79C 157.817,80.7672 159.484,82.1005 161.5,83C 159.485,84.5553 159.152,86.3886 160.5,88.5C 160.833,87.8333 161.167,87.1667 161.5,86.5C 163.71,88.2088 163.877,90.2088 162,92.5C 161.667,92.1667 161.333,91.8333 161,91.5C 159.148,93.2297 159.314,94.3964 161.5,95C 159.505,95.9236 159.172,97.0903 160.5,98.5C 160.649,99.552 160.483,100.552 160,101.5C 159.111,100.112 158.611,100.278 158.5,102C 158.759,103.261 159.426,104.261 160.5,105C 163.5,105.333 166.5,105.667 169.5,106C 164.358,108.364 164.691,108.864 170.5,107.5C 169.517,108.85 168.184,109.85 166.5,110.5C 165.503,114.098 164.169,117.431 162.5,120.5C 162.167,120.5 161.833,120.5 161.5,120.5C 161.663,118.143 161.497,115.81 161,113.5C 160.465,115.271 159.631,115.604 158.5,114.5C 160.137,109.937 158.97,109.27 155,112.5C 153.26,111.284 152.26,109.618 152,107.5C 148.165,108.992 147.665,111.158 150.5,114C 149.285,116.096 148.451,115.929 148,113.5C 147.282,114.451 146.449,114.617 145.5,114C 146.747,112.506 146.747,111.006 145.5,109.5C 144.468,111.04 143.135,111.54 141.5,111C 142.167,110.667 142.833,110.333 143.5,110C 141.833,108.667 140.167,107.333 138.5,106C 143.109,105.534 147.609,104.7 152,103.5C 152.07,100.225 152.237,97.0584 152.5,94C 151.883,91.723 151.216,89.5563 150.5,87.5C 149.729,85.8864 148.729,84.3864 147.5,83C 148.682,81.3207 150.015,79.8207 151.5,78.5C 152.287,79.2421 152.953,80.0754 153.5,81C 152.643,81.6891 151.977,82.5224 151.5,83.5C 152.727,84.5904 153.56,85.9238 154,87.5C 156.826,86.0826 156.993,84.5826 154.5,83C 155.747,81.5421 155.747,80.0421 154.5,78.5C 156.621,76.9795 158.121,74.9795 159,72.5C 158.444,66.8703 160.278,66.2037 164.5,70.5C 163.5,71.1667 162.5,71.8333 161.5,72.5C 163.304,73.7681 165.304,74.4348 167.5,74.5 Z"/></g>
<g><path style="opacity:0.012" fill="#796b46" d="M 112.5,89.5 C 112.5,89.8333 112.5,90.1667 112.5,90.5C 109.833,90.1667 109.833,89.8333 112.5,89.5 Z"/></g>
<g><path style="opacity:0.014" fill="#796b46" d="M 118.5,89.5 C 118.103,90.525 117.437,90.6917 116.5,90C 117.094,89.5357 117.761,89.369 118.5,89.5 Z"/></g>
<g><path style="opacity:0.005" fill="#796b46" d="M 112.5,90.5 C 113.552,90.3505 114.552,90.5172 115.5,91C 114.251,91.7401 113.251,91.5735 112.5,90.5 Z"/></g>
<g><path style="opacity:1" fill="#272727" d="M 125.5,72.5 C 126.732,75.1836 126.732,78.0169 125.5,81C 125.688,82.8818 126.688,84.0485 128.5,84.5C 131.28,83.5431 133.947,82.3764 136.5,81C 138.063,80.2411 139.063,79.0744 139.5,77.5C 142.242,79.0304 144.242,78.3638 145.5,75.5C 145.905,76.5498 146.571,76.5498 147.5,75.5C 148.631,77.0745 148.798,78.7412 148,80.5C 147.667,80.1667 147.333,79.8333 147,79.5C 146.626,80.4162 146.126,81.2496 145.5,82C 146.711,83.1131 146.711,84.2798 145.5,85.5C 146.243,86.1818 146.909,86.8485 147.5,87.5C 144.302,88.9342 140.968,89.4342 137.5,89C 139.899,88.2689 142.065,87.1022 144,85.5C 144.538,83.5269 143.704,82.5269 141.5,82.5C 137.526,84.4918 133.859,86.9918 130.5,90C 132.107,89.9813 133.774,89.8146 135.5,89.5C 135.5,90.5 135.5,91.5 135.5,92.5C 133.173,92.2471 131.173,92.9137 129.5,94.5C 129.833,95.5 130.5,96.1667 131.5,96.5C 133.167,95.1667 134.833,95.1667 136.5,96.5C 137.724,95.2338 139.057,94.0672 140.5,93C 143.903,92.8996 147.07,92.0663 150,90.5C 150.167,90.8333 150.333,91.1667 150.5,91.5C 147.606,93.8211 144.273,94.9878 140.5,95C 143.23,95.7284 145.897,95.5617 148.5,94.5C 149.711,95.2739 149.711,96.1072 148.5,97C 143.306,97.0116 138.306,97.8449 133.5,99.5C 134.167,100.167 134.833,100.833 135.5,101.5C 139.796,102.328 144.129,102.828 148.5,103C 144.154,104.247 139.82,104.581 135.5,104C 134.09,104.368 133.09,105.201 132.5,106.5C 134.423,107.308 136.423,107.808 138.5,108C 135.399,107.958 133.066,109.125 131.5,111.5C 131.167,111.5 130.833,111.5 130.5,111.5C 129.833,111.5 129.167,111.5 128.5,111.5C 128.167,111.5 127.833,111.5 127.5,111.5C 126.791,110.596 125.791,110.263 124.5,110.5C 124.5,109.833 124.167,109.5 123.5,109.5C 122.833,109.5 122.167,109.5 121.5,109.5C 121.5,101.833 121.5,94.1667 121.5,86.5C 123.385,84.9468 124.385,82.9468 124.5,80.5C 125.265,77.9039 125.599,75.2372 125.5,72.5 Z"/></g>
<g><path style="opacity:0.012" fill="#272625" d="M 118.5,89.5 C 118.5,89.1667 118.5,88.8333 118.5,88.5C 120.461,95.0869 121.128,102.087 120.5,109.5C 119.833,102.833 119.167,96.1667 118.5,89.5 Z"/></g>
<g><path style="opacity:0.012" fill="#4f6128" d="M 97.5,97.5 C 97.8966,96.475 98.5632,96.3083 99.5,97C 98.9056,97.4643 98.2389,97.631 97.5,97.5 Z"/></g>
<g><path style="opacity:0.014" fill="#4f6128" d="M 94.5,98.5 C 94.5,98.1667 94.5,97.8333 94.5,97.5C 97.1667,97.8333 97.1667,98.1667 94.5,98.5 Z"/></g>
<g><path style="opacity:0.016" fill="#4b5b27" d="M 91.5,98.5 C 92.5,98.5 93.5,98.5 94.5,98.5C 93.5,99.8333 92.5,99.8333 91.5,98.5 Z"/></g>
<g><path style="opacity:1" fill="#141414" d="M 147.5,87.5 C 148.5,87.5 149.5,87.5 150.5,87.5C 151.216,89.5563 151.883,91.723 152.5,94C 152.237,97.0584 152.07,100.225 152,103.5C 147.609,104.7 143.109,105.534 138.5,106C 140.167,107.333 141.833,108.667 143.5,110C 142.833,110.333 142.167,110.667 141.5,111C 143.135,111.54 144.468,111.04 145.5,109.5C 146.747,111.006 146.747,112.506 145.5,114C 146.449,114.617 147.282,114.451 148,113.5C 148.451,115.929 149.285,116.096 150.5,114C 147.665,111.158 148.165,108.992 152,107.5C 152.26,109.618 153.26,111.284 155,112.5C 158.97,109.27 160.137,109.937 158.5,114.5C 159.631,115.604 160.465,115.271 161,113.5C 161.497,115.81 161.663,118.143 161.5,120.5C 158.198,119.706 154.865,119.04 151.5,118.5C 148.004,116.929 144.337,115.595 140.5,114.5C 140.167,114.5 139.833,114.5 139.5,114.5C 138.833,114.167 138.167,113.833 137.5,113.5C 137.167,113.5 136.833,113.5 136.5,113.5C 135.391,113.443 134.391,113.11 133.5,112.5C 133.167,112.5 132.833,112.5 132.5,112.5C 131.833,112.5 131.5,112.167 131.5,111.5C 133.066,109.125 135.399,107.958 138.5,108C 136.423,107.808 134.423,107.308 132.5,106.5C 133.09,105.201 134.09,104.368 135.5,104C 139.82,104.581 144.154,104.247 148.5,103C 144.129,102.828 139.796,102.328 135.5,101.5C 134.833,100.833 134.167,100.167 133.5,99.5C 138.306,97.8449 143.306,97.0116 148.5,97C 149.711,96.1072 149.711,95.2739 148.5,94.5C 145.897,95.5617 143.23,95.7284 140.5,95C 144.273,94.9878 147.606,93.8211 150.5,91.5C 150.333,91.1667 150.167,90.8333 150,90.5C 147.07,92.0663 143.903,92.8996 140.5,93C 139.057,94.0672 137.724,95.2338 136.5,96.5C 134.833,95.1667 133.167,95.1667 131.5,96.5C 130.5,96.1667 129.833,95.5 129.5,94.5C 131.173,92.9137 133.173,92.2471 135.5,92.5C 135.5,91.5 135.5,90.5 135.5,89.5C 133.774,89.8146 132.107,89.9813 130.5,90C 133.859,86.9918 137.526,84.4918 141.5,82.5C 143.704,82.5269 144.538,83.5269 144,85.5C 142.065,87.1022 139.899,88.2689 137.5,89C 140.968,89.4342 144.302,88.9342 147.5,87.5 Z"/></g>
<g><path style="opacity:1" fill="#232323" d="M 185.5,92.5 C 188.958,94.3162 191.958,96.8162 194.5,100C 198.308,101.992 202.308,103.492 206.5,104.5C 206.5,108.833 206.5,113.167 206.5,117.5C 203.835,115.36 201.502,112.86 199.5,110C 194.817,108.927 189.817,107.927 184.5,107C 183.328,106.581 182.328,105.915 181.5,105C 180.903,103.374 180.903,101.541 181.5,99.5C 184.167,100.5 186.833,101.5 189.5,102.5C 193.304,100.13 192.971,98.6298 188.5,98C 189.604,99.1313 189.271,99.9646 187.5,100.5C 184.807,98.7298 181.807,98.0632 178.5,98.5C 178.854,100.541 178.854,102.374 178.5,104C 182.305,106.92 181.472,108.42 176,108.5C 174.234,107.767 172.401,107.433 170.5,107.5C 164.691,108.864 164.358,108.364 169.5,106C 166.5,105.667 163.5,105.333 160.5,105C 159.426,104.261 158.759,103.261 158.5,102C 158.611,100.278 159.111,100.112 160,101.5C 160.483,100.552 160.649,99.552 160.5,98.5C 162.488,96.5351 163.988,94.2018 165,91.5C 170.575,100.555 173.742,99.5555 174.5,88.5C 175.434,89.5676 175.768,90.901 175.5,92.5C 176.675,92.719 177.675,92.3857 178.5,91.5C 177.26,88.6066 175.926,85.7733 174.5,83C 177.44,82.1144 178.44,82.9477 177.5,85.5C 178.583,90.2879 181.25,92.6212 185.5,92.5 Z"/></g>
<g><path style="opacity:0.988" fill="#040404" d="M 206.5,117.5 C 206.5,122.833 206.5,128.167 206.5,133.5C 205.5,133.5 204.5,133.5 203.5,133.5C 203.167,133.5 202.833,133.5 202.5,133.5C 202.158,132.662 201.492,132.328 200.5,132.5C 200.167,132.5 199.833,132.5 199.5,132.5C 198.791,131.596 197.791,131.263 196.5,131.5C 196.5,130.833 196.167,130.5 195.5,130.5C 194.833,130.5 194.167,130.5 193.5,130.5C 193.167,130.5 192.833,130.5 192.5,130.5C 192.158,129.662 191.492,129.328 190.5,129.5C 189.833,129.167 189.167,128.833 188.5,128.5C 188.167,128.5 187.833,128.5 187.5,128.5C 186.833,128.5 186.167,128.5 185.5,128.5C 185.5,127.833 185.167,127.5 184.5,127.5C 183.391,127.443 182.391,127.11 181.5,126.5C 181.167,126.5 180.833,126.5 180.5,126.5C 179.292,125.766 177.959,125.433 176.5,125.5C 174.579,124.637 172.579,123.971 170.5,123.5C 168.421,123.029 166.421,122.363 164.5,121.5C 163.508,121.672 162.842,121.338 162.5,120.5C 164.169,117.431 165.503,114.098 166.5,110.5C 168.184,109.85 169.517,108.85 170.5,107.5C 172.401,107.433 174.234,107.767 176,108.5C 181.472,108.42 182.305,106.92 178.5,104C 178.854,102.374 178.854,100.541 178.5,98.5C 181.807,98.0632 184.807,98.7298 187.5,100.5C 189.271,99.9646 189.604,99.1313 188.5,98C 192.971,98.6298 193.304,100.13 189.5,102.5C 186.833,101.5 184.167,100.5 181.5,99.5C 180.903,101.541 180.903,103.374 181.5,105C 182.328,105.915 183.328,106.581 184.5,107C 189.817,107.927 194.817,108.927 199.5,110C 201.502,112.86 203.835,115.36 206.5,117.5 Z"/></g>
<g><path style="opacity:1" fill="#2e2e2e" d="M 69.5,99.5 C 76.8373,101.011 83.8373,103.345 90.5,106.5C 90.5,112.167 90.5,117.833 90.5,123.5C 80.5203,119.382 71.687,113.382 64,105.5C 64.3112,104.065 64.1445,102.732 63.5,101.5C 65.6309,100.831 67.6309,100.165 69.5,99.5 Z"/></g>
<g><path style="opacity:1" fill="#464646" d="M 25.5,108.5 C 27.8826,112.093 30.716,112.426 34,109.5C 34.0885,111.113 33.2552,112.28 31.5,113C 32.8193,113.195 34.1526,113.028 35.5,112.5C 36.2216,112.918 36.7216,113.584 37,114.5C 37.3333,112.833 37.6667,111.167 38,109.5C 38.3333,110.5 38.6667,111.5 39,112.5C 39.1922,110.423 39.6922,108.423 40.5,106.5C 41.1835,106.863 41.8501,107.196 42.5,107.5C 40.7568,109.126 40.2568,111.126 41,113.5C 43.8583,111.573 45.5249,108.906 46,105.5C 46.3333,105.167 46.6667,104.833 47,104.5C 48.1093,107.947 47.1093,110.614 44,112.5C 43.51,113.793 43.3433,115.127 43.5,116.5C 42.5207,117.765 41.5207,119.099 40.5,120.5C 42.5547,122.555 44.2213,124.888 45.5,127.5C 44.4126,128.105 43.246,127.772 42,126.5C 41.0602,124.058 39.8935,121.725 38.5,119.5C 37.548,120.533 37.548,121.7 38.5,123C 37.7282,124.221 36.7282,125.221 35.5,126C 36.7932,126.49 38.1266,126.657 39.5,126.5C 39.0077,130.29 39.841,130.956 42,128.5C 47.5217,134.449 46.355,137.783 38.5,138.5C 36.4293,137.055 34.096,136.055 31.5,135.5C 28.0585,134.807 24.7252,133.807 21.5,132.5C 21.1667,132.5 20.8333,132.5 20.5,132.5C 19.8333,132.5 19.1667,132.5 18.5,132.5C 18.1583,131.662 17.4916,131.328 16.5,131.5C 16.5,130.167 16.5,128.833 16.5,127.5C 18.8568,127.663 21.1902,127.497 23.5,127C 16.4576,126.286 16.1242,125.286 22.5,124C 21.5,123.667 20.5,123.333 19.5,123C 20.1667,122.833 20.8333,122.667 21.5,122.5C 23.4104,123.548 25.2438,123.548 27,122.5C 28.0674,123.191 29.2341,123.691 30.5,124C 29.5,124.333 28.5,124.667 27.5,125C 29.5787,125.808 31.5787,125.641 33.5,124.5C 32.9747,123.808 32.3081,123.308 31.5,123C 31.8333,122.667 32.1667,122.333 32.5,122C 27.6768,121.919 23.0101,121.085 18.5,119.5C 17.3279,119.919 16.3279,120.585 15.5,121.5C 13.9539,120.316 12.2873,119.316 10.5,118.5C 12.4648,117.708 14.4648,117.041 16.5,116.5C 17.3957,117.506 18.0623,117.506 18.5,116.5C 11.8948,114.607 11.8948,112.607 18.5,110.5C 17.2713,109.719 15.938,109.219 14.5,109C 18.4916,105.669 22.8249,102.836 27.5,100.5C 28.2868,101.242 28.9535,102.075 29.5,103C 28.2519,104.959 26.5852,106.459 24.5,107.5C 24.6236,108.107 24.9569,108.44 25.5,108.5 Z"/></g>
<g><path style="opacity:1" fill="#5a5a5a" d="M 32.5,89.5 C 31.6138,91.7216 31.6138,93.8882 32.5,96C 31.6057,97.3957 30.9391,98.8957 30.5,100.5C 31.1689,103.028 32.0022,103.028 33,100.5C 37.6341,103.757 39.6341,102.757 39,97.5C 41.5149,95.5766 44.1816,93.91 47,92.5C 48.6209,92.7247 49.7875,93.558 50.5,95C 49.2072,98.5467 49.8739,99.0467 52.5,96.5C 53.5063,96.9377 53.5063,97.6043 52.5,98.5C 53.8333,98.8333 55.1667,99.1667 56.5,99.5C 58.6522,98.9619 60.6522,98.4619 62.5,98C 61.4954,99.5067 60.162,100.673 58.5,101.5C 60.1601,104.798 61.8267,108.131 63.5,111.5C 62.7376,111.911 61.7376,112.077 60.5,112C 61.056,112.383 61.3893,112.883 61.5,113.5C 62.0138,115.512 62.1805,117.512 62,119.5C 59.9361,118.409 57.7695,118.242 55.5,119C 52.5833,120.528 49.5833,121.861 46.5,123C 50.9896,123.143 55.3229,122.31 59.5,120.5C 61.5,121.167 62.8333,122.5 63.5,124.5C 59.1915,125.153 55.1915,126.653 51.5,129C 50.7556,130.815 50.0889,132.648 49.5,134.5C 48.5088,136.482 47.5088,138.482 46.5,140.5C 44.1608,139.276 41.8275,139.276 39.5,140.5C 39.2155,142.759 38.2155,144.426 36.5,145.5C 34.1055,144.985 31.7722,144.319 29.5,143.5C 30.7298,141.703 31.3964,139.703 31.5,137.5C 32.8333,137.5 34.1667,137.5 35.5,137.5C 35.3433,138.873 35.51,140.207 36,141.5C 36.2355,139.881 37.0689,138.881 38.5,138.5C 46.355,137.783 47.5217,134.449 42,128.5C 39.841,130.956 39.0077,130.29 39.5,126.5C 38.1266,126.657 36.7932,126.49 35.5,126C 36.7282,125.221 37.7282,124.221 38.5,123C 37.548,121.7 37.548,120.533 38.5,119.5C 39.8935,121.725 41.0602,124.058 42,126.5C 43.246,127.772 44.4126,128.105 45.5,127.5C 44.2213,124.888 42.5547,122.555 40.5,120.5C 41.5207,119.099 42.5207,117.765 43.5,116.5C 44.1894,117.774 45.0228,117.774 46,116.5C 46.49,117.793 46.6567,119.127 46.5,120.5C 47.8734,120.657 49.2068,120.49 50.5,120C 51.8333,119.333 51.8333,118.667 50.5,118C 52.9442,118.553 55.1109,117.719 57,115.5C 58.1827,116.731 59.3493,116.731 60.5,115.5C 60.2789,105.774 55.2789,100.274 45.5,99C 46.8333,97.6667 48.1667,96.3333 49.5,95C 46.7108,95.4337 44.7108,97.1003 43.5,100C 44.3081,100.308 44.9747,100.808 45.5,101.5C 43.9617,103.243 42.9617,105.243 42.5,107.5C 41.8501,107.196 41.1835,106.863 40.5,106.5C 39.6922,108.423 39.1922,110.423 39,112.5C 38.6667,111.5 38.3333,110.5 38,109.5C 37.6667,111.167 37.3333,112.833 37,114.5C 36.7216,113.584 36.2216,112.918 35.5,112.5C 35.6633,110.143 35.4966,107.81 35,105.5C 33.8469,103.503 32.3469,103.17 30.5,104.5C 30.7093,105.086 31.0426,105.586 31.5,106C 29.3594,106.573 27.3594,107.406 25.5,108.5C 24.9569,108.44 24.6236,108.107 24.5,107.5C 26.5852,106.459 28.2519,104.959 29.5,103C 28.9535,102.075 28.2868,101.242 27.5,100.5C 22.8249,102.836 18.4916,105.669 14.5,109C 15.938,109.219 17.2713,109.719 18.5,110.5C 11.8948,112.607 11.8948,114.607 18.5,116.5C 18.0623,117.506 17.3957,117.506 16.5,116.5C 14.4648,117.041 12.4648,117.708 10.5,118.5C 12.2873,119.316 13.9539,120.316 15.5,121.5C 16.3279,120.585 17.3279,119.919 18.5,119.5C 23.0101,121.085 27.6768,121.919 32.5,122C 32.1667,122.333 31.8333,122.667 31.5,123C 32.3081,123.308 32.9747,123.808 33.5,124.5C 31.5787,125.641 29.5787,125.808 27.5,125C 28.5,124.667 29.5,124.333 30.5,124C 29.2341,123.691 28.0674,123.191 27,122.5C 25.2438,123.548 23.4104,123.548 21.5,122.5C 20.8333,122.667 20.1667,122.833 19.5,123C 20.5,123.333 21.5,123.667 22.5,124C 16.1242,125.286 16.4576,126.286 23.5,127C 21.1902,127.497 18.8568,127.663 16.5,127.5C 16.5,128.833 16.5,130.167 16.5,131.5C 15.8333,131.167 15.1667,130.833 14.5,130.5C 14.1667,130.5 13.8333,130.5 13.5,130.5C 12.8333,130.5 12.1667,130.5 11.5,130.5C 11.1583,129.662 10.4916,129.328 9.5,129.5C 9.16667,129.5 8.83333,129.5 8.5,129.5C 8.15829,128.662 7.49162,128.328 6.5,128.5C 6.5,119.833 6.5,111.167 6.5,102.5C 8.04432,102.297 9.37765,101.63 10.5,100.5C 11.7112,101.274 11.7112,102.107 10.5,103C 12.1667,103.667 13.8333,103.667 15.5,103C 18.0336,101.151 20.7003,99.4847 23.5,98C 28.0008,93.9281 30.1675,88.7614 30,82.5C 30.8373,80.9926 32.0039,80.4926 33.5,81C 31.327,83.6975 30.9937,86.5308 32.5,89.5 Z"/></g>
<g><path style="opacity:1" fill="#363636" d="M 43.5,116.5 C 43.3433,115.127 43.51,113.793 44,112.5C 47.1093,110.614 48.1093,107.947 47,104.5C 46.6667,104.833 46.3333,105.167 46,105.5C 45.5249,108.906 43.8583,111.573 41,113.5C 40.2568,111.126 40.7568,109.126 42.5,107.5C 42.9617,105.243 43.9617,103.243 45.5,101.5C 44.9747,100.808 44.3081,100.308 43.5,100C 44.7108,97.1003 46.7108,95.4337 49.5,95C 48.1667,96.3333 46.8333,97.6667 45.5,99C 55.2789,100.274 60.2789,105.774 60.5,115.5C 59.3493,116.731 58.1827,116.731 57,115.5C 55.1109,117.719 52.9442,118.553 50.5,118C 51.8333,118.667 51.8333,119.333 50.5,120C 49.2068,120.49 47.8734,120.657 46.5,120.5C 46.6567,119.127 46.49,117.793 46,116.5C 45.0228,117.774 44.1894,117.774 43.5,116.5 Z"/></g>
<g><path style="opacity:1" fill="#2f2f2f" d="M 35.5,112.5 C 34.1526,113.028 32.8193,113.195 31.5,113C 33.2552,112.28 34.0885,111.113 34,109.5C 30.716,112.426 27.8826,112.093 25.5,108.5C 27.3594,107.406 29.3594,106.573 31.5,106C 31.0426,105.586 30.7093,105.086 30.5,104.5C 32.3469,103.17 33.8469,103.503 35,105.5C 35.4966,107.81 35.6633,110.143 35.5,112.5 Z"/></g>
<g><path style="opacity:0.275" fill="#676566" d="M 151.5,118.5 C 154.865,119.04 158.198,119.706 161.5,120.5C 161.833,120.5 162.167,120.5 162.5,120.5C 162.842,121.338 163.508,121.672 164.5,121.5C 162.987,122.309 161.32,122.476 159.5,122C 162.596,124.029 164.262,126.862 164.5,130.5C 164.167,130.5 163.833,130.5 163.5,130.5C 163.141,128.629 162.141,127.129 160.5,126C 156.54,124.909 152.54,123.909 148.5,123C 147.62,121.644 147.286,120.144 147.5,118.5C 148.833,118.5 150.167,118.5 151.5,118.5 Z"/></g>
<g><path style="opacity:0.098" fill="#a8a9ab" d="M 120.5,109.5 C 120.833,109.5 121.167,109.5 121.5,109.5C 122.167,110.833 122.833,110.833 123.5,109.5C 124.167,109.5 124.5,109.833 124.5,110.5C 125.209,111.404 126.209,111.737 127.5,111.5C 127.833,111.5 128.167,111.5 128.5,111.5C 129.167,112.833 129.833,112.833 130.5,111.5C 130.833,111.5 131.167,111.5 131.5,111.5C 131.5,112.167 131.833,112.5 132.5,112.5C 132.833,113.833 133.167,113.833 133.5,112.5C 134.391,113.11 135.391,113.443 136.5,113.5C 136.833,114.833 137.167,114.833 137.5,113.5C 138.167,113.833 138.833,114.167 139.5,114.5C 139.833,115.833 140.167,115.833 140.5,114.5C 144.337,115.595 148.004,116.929 151.5,118.5C 150.167,118.5 148.833,118.5 147.5,118.5C 147.286,120.144 147.62,121.644 148.5,123C 152.54,123.909 156.54,124.909 160.5,126C 162.141,127.129 163.141,128.629 163.5,130.5C 163.167,130.5 162.833,130.5 162.5,130.5C 158.666,125.915 153.666,124.248 147.5,125.5C 147.885,129.044 148.885,132.377 150.5,135.5C 147.15,135.665 143.817,135.498 140.5,135C 136.381,130.927 136.715,127.26 141.5,124C 134.867,121.342 128.2,118.676 121.5,116C 119.42,114.039 119.086,111.872 120.5,109.5 Z"/></g>
<g><path style="opacity:0.199" fill="#585658" d="M 170.5,123.5 C 172.579,123.971 174.579,124.637 176.5,125.5C 178.867,127.945 179.867,130.945 179.5,134.5C 176.402,134.244 173.402,133.578 170.5,132.5C 170.882,129.354 170.882,126.354 170.5,123.5 Z"/></g>
<g><path style="opacity:0.075" fill="#363334" d="M 164.5,121.5 C 166.421,122.363 168.421,123.029 170.5,123.5C 170.882,126.354 170.882,129.354 170.5,132.5C 168.421,132.029 166.421,131.363 164.5,130.5C 164.262,126.862 162.596,124.029 159.5,122C 161.32,122.476 162.987,122.309 164.5,121.5 Z"/></g>
<g><path style="opacity:1" fill="#323232" d="M 61.5,113.5 C 64.1177,113.099 66.7844,113.599 69.5,115C 69.8333,115.333 70.1667,115.667 70.5,116C 69.2624,115.923 68.2624,116.089 67.5,116.5C 68.914,117.624 70.414,118.624 72,119.5C 72.9147,118.672 73.5814,117.672 74,116.5C 74.5,117 75,117.5 75.5,118C 74.6422,119.788 73.6422,121.622 72.5,123.5C 71.0944,122.332 69.9277,122.665 69,124.5C 64.3035,123.086 63.8035,123.586 67.5,126C 73.4047,126.117 79.0714,127.284 84.5,129.5C 85.8079,132.464 87.8079,134.797 90.5,136.5C 90.5,137.833 90.5,139.167 90.5,140.5C 90.5,144.5 90.5,148.5 90.5,152.5C 89.8333,152.5 89.1667,152.5 88.5,152.5C 87.8333,152.5 87.5,152.167 87.5,151.5C 89.9272,150.721 89.9272,149.554 87.5,148C 76.1353,138.423 63.4686,133.923 49.5,134.5C 50.0889,132.648 50.7556,130.815 51.5,129C 55.1915,126.653 59.1915,125.153 63.5,124.5C 62.8333,122.5 61.5,121.167 59.5,120.5C 55.3229,122.31 50.9896,123.143 46.5,123C 49.5833,121.861 52.5833,120.528 55.5,119C 57.7695,118.242 59.9361,118.409 62,119.5C 62.1805,117.512 62.0138,115.512 61.5,113.5 Z"/></g>
<g><path style="opacity:0.076" fill="#d9dadb" d="M 162.5,130.5 C 158.919,132.923 154.919,134.59 150.5,135.5C 148.885,132.377 147.885,129.044 147.5,125.5C 153.666,124.248 158.666,125.915 162.5,130.5 Z"/></g>
<g><path style="opacity:0.108" fill="#b2b3b5" d="M 5.5,128.5 C 5.83333,128.5 6.16667,128.5 6.5,128.5C 6.84171,129.338 7.50838,129.672 8.5,129.5C 8.83333,129.5 9.16667,129.5 9.5,129.5C 9.84171,130.338 10.5084,130.672 11.5,130.5C 12.1667,130.5 12.8333,130.5 13.5,130.5C 13.8333,131.833 14.1667,131.833 14.5,130.5C 15.1667,130.833 15.8333,131.167 16.5,131.5C 16.8417,132.338 17.5084,132.672 18.5,132.5C 19.1667,132.5 19.8333,132.5 20.5,132.5C 20.8333,133.833 21.1667,133.833 21.5,132.5C 24.7252,133.807 28.0585,134.807 31.5,135.5C 29.2899,135.749 26.9566,136.083 24.5,136.5C 23.8256,138.195 23.1589,139.862 22.5,141.5C 16.7447,139.636 11.0781,137.469 5.5,135C 2.92892,132.744 2.92892,130.578 5.5,128.5 Z"/></g>
<g><path style="opacity:0.105" fill="#b0b2b4" d="M 192.5,130.5 C 192.833,130.5 193.167,130.5 193.5,130.5C 194.167,131.833 194.833,131.833 195.5,130.5C 196.167,130.5 196.5,130.833 196.5,131.5C 197.209,132.404 198.209,132.737 199.5,132.5C 199.833,132.5 200.167,132.5 200.5,132.5C 200.842,133.338 201.508,133.672 202.5,133.5C 202.833,133.5 203.167,133.5 203.5,133.5C 204.5,134.833 205.5,134.833 206.5,133.5C 206.833,133.5 207.167,133.5 207.5,133.5C 210.638,137.891 209.471,140.224 204,140.5C 200.093,140.151 196.26,139.485 192.5,138.5C 191.167,135.833 191.167,133.167 192.5,130.5 Z"/></g>
<g><path style="opacity:0.262" fill="#dfe0e1" d="M 120.5,144.5 C 119.883,144.389 119.383,144.056 119,143.5C 117.985,139.56 117.485,135.56 117.5,131.5C 122.463,130.504 127.463,130.337 132.5,131C 136.5,134.333 136.5,137.667 132.5,141C 128.813,143.285 124.813,144.452 120.5,144.5 Z"/></g>
<g><path style="opacity:0.016" fill="#8d8e90" d="M 176.5,125.5 C 177.959,125.433 179.292,125.766 180.5,126.5C 180.833,127.833 181.167,127.833 181.5,126.5C 182.391,127.11 183.391,127.443 184.5,127.5C 185.167,127.5 185.5,127.833 185.5,128.5C 186.167,128.5 186.833,128.5 187.5,128.5C 187.833,129.833 188.167,129.833 188.5,128.5C 189.167,128.833 189.833,129.167 190.5,129.5C 190.842,130.338 191.508,130.672 192.5,130.5C 191.167,133.167 191.167,135.833 192.5,138.5C 187.95,137.537 183.617,136.203 179.5,134.5C 179.867,130.945 178.867,127.945 176.5,125.5 Z"/></g>
<g><path style="opacity:0.189" fill="#868687" d="M 31.5,135.5 C 34.096,136.055 36.4293,137.055 38.5,138.5C 37.0689,138.881 36.2355,139.881 36,141.5C 35.51,140.207 35.3433,138.873 35.5,137.5C 34.1667,137.5 32.8333,137.5 31.5,137.5C 31.3964,139.703 30.7298,141.703 29.5,143.5C 27.1667,142.833 24.8333,142.167 22.5,141.5C 23.1589,139.862 23.8256,138.195 24.5,136.5C 26.9566,136.083 29.2899,135.749 31.5,135.5 Z"/></g>
<g><path style="opacity:0.155" fill="#afb1b4" d="M 117.5,131.5 C 117.485,135.56 117.985,139.56 119,143.5C 119.383,144.056 119.883,144.389 120.5,144.5C 116.288,145.997 112.121,145.664 108,143.5C 107.333,141.167 107.333,138.833 108,136.5C 110.83,134.169 113.997,132.502 117.5,131.5 Z"/></g>
<g><path style="opacity:0.989" fill="#252424" d="M 87.5,151.5 C 84.6592,151.44 81.9925,150.774 79.5,149.5C 79.1667,149.5 78.8333,149.5 78.5,149.5C 77.8333,149.5 77.1667,149.5 76.5,149.5C 76.1583,148.662 75.4916,148.328 74.5,148.5C 73.8333,148.167 73.1667,147.833 72.5,147.5C 72.1667,147.5 71.8333,147.5 71.5,147.5C 70.8333,147.167 70.1667,146.833 69.5,146.5C 69.1667,146.5 68.8333,146.5 68.5,146.5C 67.1667,146.167 65.8333,145.833 64.5,145.5C 62.2986,144.434 59.9653,143.767 57.5,143.5C 56.5768,142.697 55.5768,142.53 54.5,143C 55.4438,145.719 55.7771,148.552 55.5,151.5C 48.9485,149.87 42.6152,147.87 36.5,145.5C 38.2155,144.426 39.2155,142.759 39.5,140.5C 41.8275,139.276 44.1608,139.276 46.5,140.5C 47.5088,138.482 48.5088,136.482 49.5,134.5C 63.4686,133.923 76.1353,138.423 87.5,148C 89.9272,149.554 89.9272,150.721 87.5,151.5 Z"/></g>
<g><path style="opacity:0.182" fill="#535152" d="M 57.5,143.5 C 58.7804,144.931 60.4471,145.598 62.5,145.5C 61.9084,148.127 61.5751,150.794 61.5,153.5C 59.5786,152.637 57.5786,151.971 55.5,151.5C 55.7771,148.552 55.4438,145.719 54.5,143C 55.5768,142.53 56.5768,142.697 57.5,143.5 Z"/></g>
<g><path style="opacity:0.145" fill="#767577" d="M 57.5,143.5 C 59.9653,143.767 62.2986,144.434 64.5,145.5C 64.9014,146.991 65.068,148.658 65,150.5C 65.7096,149.027 66.8762,148.36 68.5,148.5C 68.5,150.833 68.5,153.167 68.5,155.5C 66.2278,154.681 63.8945,154.015 61.5,153.5C 61.5751,150.794 61.9084,148.127 62.5,145.5C 60.4471,145.598 58.7804,144.931 57.5,143.5 Z"/></g>
<g><path style="opacity:0.024" fill="#e1e2e2" d="M 92.5,153.5 C 91.8333,153.167 91.1667,152.833 90.5,152.5C 90.5,148.5 90.5,144.5 90.5,140.5C 91.4584,140.047 92.2917,139.381 93,138.5C 96.0757,139.288 99.2423,139.788 102.5,140C 106.644,143.979 106.31,147.645 101.5,151C 98.5682,152.145 95.5682,152.978 92.5,153.5 Z"/></g>
<g><path style="opacity:0.101" fill="#aeafb1" d="M 64.5,145.5 C 65.8333,145.833 67.1667,146.167 68.5,146.5C 68.8333,147.833 69.1667,147.833 69.5,146.5C 70.1667,146.833 70.8333,147.167 71.5,147.5C 71.8333,148.833 72.1667,148.833 72.5,147.5C 73.1667,147.833 73.8333,148.167 74.5,148.5C 74.8417,149.338 75.5084,149.672 76.5,149.5C 77.1667,149.5 77.8333,149.5 78.5,149.5C 78.8333,150.833 79.1667,150.833 79.5,149.5C 81.9925,150.774 84.6592,151.44 87.5,151.5C 87.5,152.167 87.8333,152.5 88.5,152.5C 89.1667,153.833 89.8333,153.833 90.5,152.5C 91.1667,152.833 91.8333,153.167 92.5,153.5C 94.2114,157.397 92.8781,159.397 88.5,159.5C 81.7578,158.481 75.0912,157.147 68.5,155.5C 68.5,153.167 68.5,150.833 68.5,148.5C 66.8762,148.36 65.7096,149.027 65,150.5C 65.068,148.658 64.9014,146.991 64.5,145.5 Z"/></g>
</svg>
