<svg xmlns="http://www.w3.org/2000/svg" width="200" height="200" style="shape-rendering:geometricPrecision;text-rendering:geometricPrecision;image-rendering:optimizeQuality;fill-rule:evenodd;clip-rule:evenodd"><path style="opacity:1" fill="#fefefe" d="M-.5-.5h200v46c-3.098-1.682-6.431-2.182-10-1.5a45.538 45.538 0 0 1-13 7.5h-8c-.645-1.312-1.645-2.312-3-3-2.041 1.207-3.374 2.874-4 5a24.939 24.939 0 0 0-7 .5c-.881.708-1.547 1.542-2 2.5a95.08 95.08 0 0 1-18 6 19.522 19.522 0 0 1 1-7.5c-.13-1.059-.63-1.892-1.5-2.5a108.012 108.012 0 0 1-4.5 14 49.859 49.859 0 0 0-10 10.5l-1.5.5a612.617 612.617 0 0 0-3.5-3c-3.411 4.859-6.911 8.859-10.5 12l-1 7a77.137 77.137 0 0 1-12.5 13c-1.891 1.036-3.725 1.036-5.5 0a44.648 44.648 0 0 1-6.5-14c1.517-.01 2.684-.677 3.5-2a28.409 28.409 0 0 1 4.5-7.5c-.667-.667-1.333-.667-2 0l-5 7a8.434 8.434 0 0 1-4 .5c-1.123-1.788-1.29-3.788-.5-6 2.295-2.565 5.128-4.231 8.5-5-4.448-2.74-5.114-6.24-2-10.5 6.018-1.254 8.018-4.754 6-10.5a33.553 33.553 0 0 0-6.5 9c-3.633 5.037-6.966 5.037-10 0a50.441 50.441 0 0 1-.5-10 9.864 9.864 0 0 0-6 1c4.002 6.21 3.335 12.044-2 17.5a53.074 53.074 0 0 0-17 11c-4.307.444-7.973 2.111-11 5a46.224 46.224 0 0 1-14 4.5c-.087-4.93-2.42-7.097-7-6.5a39.978 39.978 0 0 0-5-5.5c-.074-1.91-1.074-3.078-3-3.5a18.436 18.436 0 0 0-6-.5v-81z"/><path style="opacity:1" fill="#d9d48b" d="M199.5 45.5v4a126.05 126.05 0 0 0-22 5 5.727 5.727 0 0 1-1-3 45.538 45.538 0 0 0 13-7.5c3.569-.682 6.902-.182 10 1.5z"/><path style="opacity:1" fill="#fefefe" d="M199.5 49.5v150H-.5v-118a71.235 71.235 0 0 1 9 3c-.593 3.096.407 5.43 3 7a3.646 3.646 0 0 1-1 1.5 22.584 22.584 0 0 0 8 4 20.842 20.842 0 0 0 3 6.5c.929-1.189 1.262-2.522 1-4 4.846-.041 8.846-1.874 12-5.5a52.61 52.61 0 0 1 7 0l2-3a207.421 207.421 0 0 0 23-16l6-1.5c3.475.643 4.641 2.643 3.5 6-2.183 2.909-5.016 4.742-8.5 5.5 1.405 1.27 3.071 1.77 5 1.5.219 1.175-.114 2.175-1 3-1.239.442-2.239 1.11-3 2 3.311.655 5.978 2.321 8 5a73.08 73.08 0 0 0 2 6.5c-.26 1.261-.926 2.261-2 3a4.458 4.458 0 0 1 2 1.5 9.433 9.433 0 0 0-3 3c2.62 1.965 2.286 3.465-1 4.5a1239.179 1239.179 0 0 1 17 29.5c-1.09 1.617-2.756 2.45-5 2.5-.837 1.011-1.17 2.178-1 3.5a93.117 93.117 0 0 0 0 26 270.432 270.432 0 0 0-2 6 9.107 9.107 0 0 0 5-1 36.45 36.45 0 0 0 9 8.5c13.111 2.554 23.778-1.279 32-11.5a72.24 72.24 0 0 1-6.5-14 14.506 14.506 0 0 1-5-4 122.041 122.041 0 0 0-11.5-14.5 60.932 60.932 0 0 0-11-.5h-1a144.807 144.807 0 0 0-9.5-19c-.81-4.757-.476-9.424 1-14 2.328-1.164 4.162-2.83 5.5-5a149.286 149.286 0 0 1 17.5-15 14.72 14.72 0 0 1 1.5-5l2 1a135.26 135.26 0 0 1 2.5-7c7.31-2.485 12.477-7.152 15.5-14a250.38 250.38 0 0 1 12-3.5 255.901 255.901 0 0 1 11-5.5c1.527.073 2.527-.594 3-2 4.714.276 9.381.942 14 2 1.855.16 3.188-.507 4-2 1.21-.432 2.21-1.099 3-2a126.05 126.05 0 0 1 22-5z"/><path style="opacity:1" fill="#9497dc" d="M168.5 51.5c-1.547 1.015-2.38 2.349-2.5 4 2.381.935 4.881 1.268 7.5 1v-4c.934 1.068 1.268 2.401 1 4-.812 1.493-2.145 2.16-4 2a84.785 84.785 0 0 0-14-2c-1.879.107-2.212-.393-1-1.5 2.208-.19 4.208-.69 6-1.5.626-2.126 1.959-3.793 4-5 1.355.688 2.355 1.688 3 3z"/><path style="opacity:1" fill="#7b7fd4" d="M168.5 51.5h1c1.068.934 2.401 1.268 4 1v4c-2.619.268-5.119-.065-7.5-1 .12-1.651.953-2.985 2.5-4z"/><path style="opacity:1" fill="#adafe5" d="M161.5 53.5c-1.792.81-3.792 1.31-6 1.5-1.212 1.107-.879 1.607 1 1.5-.473 1.406-1.473 2.073-3 2 .172-.992-.162-1.658-1-2 .453-.958 1.119-1.792 2-2.5a24.939 24.939 0 0 1 7-.5z"/><path style="opacity:1" fill="#d7cfe9" d="M169.5 51.5h7a5.727 5.727 0 0 0 1 3c-.79.901-1.79 1.568-3 2 .268-1.599-.066-2.932-1-4-1.599.268-2.932-.066-4-1z"/><path style="opacity:1" fill="#8a8dd8" d="M152.5 56.5c.838.342 1.172 1.008 1 2a255.901 255.901 0 0 0-11 5.5 250.38 250.38 0 0 0-12 3.5c-.667 0-1-.333-1-1a108.012 108.012 0 0 0 4.5-14c.87.608 1.37 1.441 1.5 2.5a19.522 19.522 0 0 0-1 7.5 95.08 95.08 0 0 0 18-6z"/><path style="opacity:1" fill="#c6f4d5" d="M-.5 81.5v-1a18.436 18.436 0 0 1 6 .5c1.926.422 2.926 1.59 3 3.5a71.235 71.235 0 0 0-9-3z"/><path style="opacity:1" fill="#e4bddc" d="M129.5 66.5c0 .667.333 1 1 1-3.023 6.848-8.19 11.515-15.5 14a135.26 135.26 0 0 0-2.5 7l-2-1a14.72 14.72 0 0 0-1.5 5 149.286 149.286 0 0 0-17.5 15c-.667 0-1-.333-1-1a77.137 77.137 0 0 0 12.5-13l1-7c3.589-3.141 7.089-7.141 10.5-12 1.165.991 2.332 1.991 3.5 3l1.5-.5a49.859 49.859 0 0 1 10-10.5z"/><path style="opacity:1" fill="#a4e9ce" d="m75.5 90.5 3 2a44.648 44.648 0 0 0 6.5 14c1.775 1.036 3.609 1.036 5.5 0 0 .667.333 1 1 1-1.338 2.17-3.172 3.836-5.5 5-1.476 4.576-1.81 9.243-1 14a144.807 144.807 0 0 1 9.5 19c-.958-.453-1.792-1.119-2.5-2-.399.228-.565.562-.5 1a1239.179 1239.179 0 0 0-17-29.5c3.286-1.035 3.62-2.535 1-4.5a9.433 9.433 0 0 1 3-3 4.458 4.458 0 0 0-2-1.5c1.074-.739 1.74-1.739 2-3a73.08 73.08 0 0 1-2-6.5c-2.022-2.679-4.689-4.345-8-5 .761-.89 1.761-1.558 3-2 .886-.825 1.219-1.825 1-3-1.929.27-3.595-.23-5-1.5 3.484-.758 6.317-2.591 8.5-5.5 1.141-3.357-.025-5.357-3.5-6l-6 1.5a207.421 207.421 0 0 1-23 16l-2 3a52.61 52.61 0 0 0-7 0c-3.154 3.626-7.154 5.459-12 5.5.262 1.478-.071 2.811-1 4a20.842 20.842 0 0 1-3-6.5 22.584 22.584 0 0 1-8-4c.457-.414.79-.914 1-1.5-2.593-1.57-3.593-3.904-3-7a39.978 39.978 0 0 1 5 5.5c4.58-.597 6.913 1.57 7 6.5a46.224 46.224 0 0 0 14-4.5c3.027-2.889 6.693-4.556 11-5a53.074 53.074 0 0 1 17-11c5.335-5.456 6.002-11.29 2-17.5a9.864 9.864 0 0 1 6-1c-.165 3.35.002 6.683.5 10 3.034 5.037 6.367 5.037 10 0a33.553 33.553 0 0 1 6.5-9c2.018 5.746.018 9.246-6 10.5-3.114 4.26-2.448 7.76 2 10.5-3.372.769-6.205 2.435-8.5 5-.79 2.212-.623 4.212.5 6z"/><path style="opacity:1" fill="#dbf5c5" d="m78.5 92.5-3-2a8.434 8.434 0 0 0 4-.5l5-7c.667-.667 1.333-.667 2 0a28.409 28.409 0 0 0-4.5 7.5c-.816 1.323-1.983 1.99-3.5 2z"/><path style="opacity:1" fill="#fab1be" d="M68.5 91.5c-1.454 2.968-3.787 4.468-7 4.5 1.004-3.505 3.337-5.005 7-4.5z"/><path style="opacity:1" fill="#9be9ca" d="M94.5 145.5h1c2.33 2.084 3.497 4.751 3.5 8 3.708 2.41 6.208 5.743 7.5 10a120.678 120.678 0 0 1 10 8.5 602.298 602.298 0 0 0 8 4c1.894 1.079 2.227 2.413 1 4-.949.617-1.782.451-2.5-.5a35.478 35.478 0 0 1-6.5 4c-.411-.762-.577-1.762-.5-3-1.523 2.12-3.356 2.453-5.5 1a9.425 9.425 0 0 1-3 3 70.03 70.03 0 0 1-13-5.5c-1.696-3.793-4.196-6.959-7.5-9.5a177.618 177.618 0 0 0-1.5-19c-.17-1.322.163-2.489 1-3.5 2.244-.05 3.91-.883 5-2.5-.065-.438.101-.772.5-1 .708.881 1.542 1.547 2.5 2z"/><path style="opacity:1" fill="#b5f0d9" d="M95.5 145.5a60.932 60.932 0 0 1 11 .5 122.041 122.041 0 0 1 11.5 14.5 14.506 14.506 0 0 0 5 4 72.24 72.24 0 0 0 6.5 14c-8.222 10.221-18.889 14.054-32 11.5a36.45 36.45 0 0 1-9-8.5 9.107 9.107 0 0 1-5 1 270.432 270.432 0 0 1 2-6 93.117 93.117 0 0 1 0-26 177.618 177.618 0 0 1 1.5 19c3.304 2.541 5.804 5.707 7.5 9.5a70.03 70.03 0 0 0 13 5.5 9.425 9.425 0 0 0 3-3c2.144 1.453 3.977 1.12 5.5-1-.077 1.238.089 2.238.5 3a35.478 35.478 0 0 0 6.5-4c.718.951 1.551 1.117 2.5.5 1.227-1.587.894-2.921-1-4a602.298 602.298 0 0 1-8-4 120.678 120.678 0 0 0-10-8.5c-1.292-4.257-3.792-7.59-7.5-10-.003-3.249-1.17-5.916-3.5-8z"/><path style="opacity:1" fill="#63b695" d="M102.5 163.5c1.25.077 2.083.744 2.5 2l1-1c.26 2.118 1.26 3.784 3 5l1-2c.749 1.135.583 2.135-.5 3l-4 2a37.291 37.291 0 0 0-7-.5c.667-3.167 2.001-6 4-8.5z"/></svg>