<svg xmlns="http://www.w3.org/2000/svg" width="1462" height="318" style="shape-rendering:geometricPrecision;text-rendering:geometricPrecision;image-rendering:optimizeQuality;fill-rule:evenodd;clip-rule:evenodd"><path style="opacity:1" fill="#111" d="M-.5-.5h1462v318H-.5V-.5z"/><path style="opacity:1" fill="#fdfdfd" d="M185.5 63.5a24.365 24.365 0 0 1 10 1.5c1.711 1.133 2.211 2.633 1.5 4.5a54.726 54.726 0 0 1-9.5 12.5c-4.423-.796-8.923-1.629-13.5-2.5-3.2-.353-5.867.647-8 3-7.442 15.433-11.608 31.766-12.5 49a180.81 180.81 0 0 0 24-1c.775 3.682-.559 6.182-4 7.5-6.575 3.394-13.575 5.06-21 5l-1.5 1.5a2339.805 2339.805 0 0 1-14 88c-3.977 17.795-12.477 32.962-25.5 45.5-7.026 6.095-15.193 9.595-24.5 10.5-14.555-2.277-18.388-10.111-11.5-23.5.598-1.301 1.598-2.135 3-2.5 6.115 8.725 14.448 12.558 25 11.5a15.83 15.83 0 0 0 5.5-3.5c4.803-8.743 7.803-18.077 9-28a1456.284 1456.284 0 0 0 14.5-99.5c-6.173-.044-12.173-.711-18-2 2.333-3 5-5.667 8-8 4.253-.2 8.42-.7 12.5-1.5 2.902-15.793 8.569-30.46 17-44 9.147-11.127 20.314-19.127 33.5-24z"/><path style="opacity:1" fill="#fcfcfc" d="M888.5 95.5c9.781-.54 10.614 2.126 2.5 8-3.111-2.903-5.778-2.57-8 1a76.245 76.245 0 0 0-3.5 16 21.127 21.127 0 0 1 9 1c-2.426 3.417-5.759 4.75-10 4a243.578 243.578 0 0 1-8.5 43c-3.333 6.667-8.667 10.667-16 12-2.034.146-3.701-.52-5-2a12.494 12.494 0 0 1 0-7 3.647 3.647 0 0 1 1.5-1 27.194 27.194 0 0 0 7.5 4c2.151-.143 3.818-1.143 5-3a334.352 334.352 0 0 0 7.5-46 9.86 9.86 0 0 1-6-1c1.607-3.024 4.107-4.69 7.5-5 1.809-10.642 7.309-18.642 16.5-24z"/><path style="opacity:1" fill="#fdfdfd" d="M70.5 96.5c11.594.233 22.927 1.9 34 5a268.754 268.754 0 0 0-4 28h-6c-1.386-22.712-13.053-30.546-35-23.5-11.94 9.146-14.106 20.313-6.5 33.5l6.5 6.5a330.091 330.091 0 0 0 30 17c19.948 14.164 23.448 31.664 10.5 52.5-13.885 13.268-30.385 18.101-49.5 14.5-6.707-.79-12.874-2.957-18.5-6.5-3.203-10.039-4.703-20.205-4.5-30.5a10.1 10.1 0 0 1 6-1.5c6.33 28.663 22.996 37.496 50 26.5 5.658-6.83 7.491-14.664 5.5-23.5-2.722-5.721-6.555-10.555-11.5-14.5l-30-19c-16.24-13.635-19.406-29.801-9.5-48.5 8.586-10.044 19.42-15.377 32.5-16z"/><path style="opacity:1" fill="#fcfbfc" d="M614.5 99.5a91.653 91.653 0 0 1 17 1.5c.483 4.402.483 8.902 0 13.5h-4c-.74-9.709-5.74-12.876-15-9.5-5.243 5.258-5.243 10.591 0 16 7.496 3.156 13.996 7.656 19.5 13.5 4.467 10.901 1.301 18.734-9.5 23.5-7.931 2.404-15.431 1.57-22.5-2.5a226.407 226.407 0 0 0-2.5-12c1.12-2.096 2.62-2.43 4.5-1 2.347 10.019 8.514 13.852 18.5 11.5 5.109-3.366 6.276-7.866 3.5-13.5a89.549 89.549 0 0 0-16.5-11.5c-8.826-8.405-9.159-17.072-1-26 2.658-1.478 5.325-2.645 8-3.5z"/><path style="opacity:1" fill="#fdfdfd" d="M187.5 99.5c11.657.581 23.324 1.247 35 2a2831.108 2831.108 0 0 0 80 99 911.74 911.74 0 0 0-.5-85c-.739-3.073-2.572-5.24-5.5-6.5a74.76 74.76 0 0 0-15-3c-1.076-1.726-1.243-3.559-.5-5.5 16.346-.016 32.68-.016 49 0 .743 1.941.576 3.774-.5 5.5-10.554-.113-15.721 5.054-15.5 15.5a3170.282 3170.282 0 0 0-1.5 107 98.432 98.432 0 0 1-14-.5A18339.575 18339.575 0 0 0 219 126.5a671.71 671.71 0 0 0 0 86c.739 3.073 2.572 5.24 5.5 6.5a155.136 155.136 0 0 0 14 3c1.054 1.388 1.22 2.888.5 4.5a670.389 670.389 0 0 1-51.5 1c-.239-1.967.094-3.801 1-5.5 4.396-.746 8.73-1.746 13-3 2.31-1.637 3.81-3.804 4.5-6.5a1153.466 1153.466 0 0 0 2-96c-1.263-3.719-3.763-6.219-7.5-7.5a39.484 39.484 0 0 0-13-3c-1.268-2.163-1.268-4.33 0-6.5z"/><path style="opacity:1" fill="#fcfcfc" d="M969.5 101.5a73.133 73.133 0 0 1 17 1 2008.592 2008.592 0 0 0 33.5 42c.67-12 .67-24 0-36a9.246 9.246 0 0 0-1.5-2.5 34.023 34.023 0 0 0-8-1.5v-3h23v3c-2.33.165-4.49.831-6.5 2a1787 1787 0 0 0-2.5 51.5c-2.27.758-4.44.591-6.5-.5a1048.025 1048.025 0 0 0-34-43 194.42 194.42 0 0 0 1 37c2.419 2.085 5.253 3.085 8.5 3v3h-24v-3c3.71.275 6.543-1.058 8.5-4a821.912 821.912 0 0 1 1.5-37.5c-.647-5.842-3.98-8.675-10-8.5v-3zM727.5 103.5c5.567-.747 7.4 1.587 5.5 7-5.92 3.674-8.586 2.007-8-5 .995-.566 1.828-1.233 2.5-2zM1262.5 103.5c5.57-.747 7.4 1.587 5.5 7-5.92 3.674-8.59 2.007-8-5 .99-.566 1.83-1.233 2.5-2z"/><path style="opacity:1" fill="#f9f9f9" d="M789.5 108.5h3c-.69 3.99-.857 7.99-.5 12 3.407.367 6.907.533 10.5.5.354 1.626.354 3.459 0 5.5h-11a106.884 106.884 0 0 0 1.5 24c1.126 1.444 2.626 2.11 4.5 2 2.012-.34 4.012-.673 6-1-.372 3.543-2.372 5.71-6 6.5-8.298 2.108-12.798-1.058-13.5-9.5a242.43 242.43 0 0 1-.5-22c-2.165.384-3.832-.283-5-2 1.238-2.137 3.071-3.471 5.5-4l1-8c1.992-.828 3.492-2.161 4.5-4z"/><path style="opacity:1" fill="#fcfcfc" d="M906.5 119.5c5.993-.421 9.826 2.245 11.5 8 2.002 17.033-5.165 27.699-21.5 32-3.041-.379-5.541-1.712-7.5-4-4.041-12.03-1.541-22.53 7.5-31.5 3.315-1.83 6.649-3.33 10-4.5z"/><path style="opacity:1" fill="#fbfbfb" d="M933.5 119.5h3a60.931 60.931 0 0 0 .5 11c2.114-4.448 5.281-7.948 9.5-10.5 4.5-.833 6.333 1 5.5 5.5a22.755 22.755 0 0 1-4 5c-3.051-2.874-5.718-2.541-8 1a70.36 70.36 0 0 0-9 25 35.61 35.61 0 0 1-6 3l-1.5-1.5c3.048-9.724 4.715-19.557 5-29.5a32.367 32.367 0 0 1-4.5 3c-.667-1.333-.667-2.667 0-4 2.775-3.28 5.942-5.946 9.5-8z"/><path style="opacity:1" fill="#fcfcfc" d="M658.5 119.5c12.755.255 19.421 6.755 20 19.5-2.724 16.039-12.057 22.039-28 18-6.688-4.047-10.021-10.047-10-18 1.717-10.547 7.717-17.047 18-19.5zM704.5 119.5a27.624 27.624 0 0 1 10 2.5c2.836 3.495 2.003 5.995-2.5 7.5-2.899-2.45-6.232-4.116-10-5-5.44 1.108-8.44 4.441-9 10-.937 12.731 4.896 18.231 17.5 16.5l5.5-3.5.5 2c-4.397 7.755-11.064 10.588-20 8.5-7.545-3.216-11.545-9.049-12-17.5.103-7.19 3.103-12.69 9-16.5 3.553-2.121 7.22-3.621 11-4.5z"/><path style="opacity:1" fill="#fefefe" d="M728.5 120.5h5c-.167 10.672 0 21.339.5 32 1.584 1.361 3.418 2.028 5.5 2v3h-20v-3c2.082.028 3.916-.639 5.5-2 .667-8.333.667-16.667 0-25-2.67-.724-4.17-2.391-4.5-5 2.928-.065 5.595-.732 8-2z"/><path style="opacity:1" fill="#fcfcfc" d="M760.5 119.5a30.173 30.173 0 0 1 9 2.5c3.253 3.676 5.587 7.842 7 12.5-.59 1.299-1.59 2.132-3 2.5a183.182 183.182 0 0 1-22 1.5c3.084 13.369 10.75 16.703 23 10 1.083.865 1.249 1.865.5 3-7.604 7.843-16.104 9.01-25.5 3.5-8.344-11.269-7.677-21.936 2-32 2.959-1.604 5.959-2.771 9-3.5zM1051.5 119.5c3.12.365 6.12 1.198 9 2.5 3.25 3.676 5.59 7.842 7 12.5-.59 1.299-1.59 2.132-3 2.5-7.31.942-14.64 1.442-22 1.5 3.08 13.369 10.75 16.703 23 10 1.08.865 1.25 1.865.5 3-7.6 7.843-16.1 9.01-25.5 3.5-8.34-11.269-7.68-21.936 2-32 2.96-1.604 5.96-2.771 9-3.5z"/><path style="opacity:1" fill="#f9f9f9" d="M1079.5 120.5c1.93-.269 3.6.231 5 1.5a110.285 110.285 0 0 0-.5 25.5c3.77 5.934 8.44 6.6 14 2 .67-7.667.67-15.333 0-23-2.04-.923-4.21-1.256-6.5-1v-4a52.82 52.82 0 0 0 13.5-1c1.06.13 1.89.63 2.5 1.5a137.678 137.678 0 0 0-.5 28.5c1.19 2.025 2.69 2.359 4.5 1 1.33 1.847 1 3.347-1 4.5-3.53 1.176-7.03 2.342-10.5 3.5a20.73 20.73 0 0 1-2-6c-6.04 5.652-12.54 6.318-19.5 2-1.52-2.047-2.35-4.381-2.5-7-.33-7.333-.67-14.667-1-22-1.36-.88-2.86-1.214-4.5-1v-4c3.21.31 6.21-.023 9-1z"/><path style="opacity:1" fill="#fdfdfd" d="M1126.5 119.5c1.63 1.526 2.46 3.526 2.5 6a28.423 28.423 0 0 1 9.5-6c2.39.479 4.06 1.812 5 4-1 2.673-2.5 5.007-4.5 7-3.42-3.867-6.75-3.867-10 0a120.65 120.65 0 0 0 0 22 14.828 14.828 0 0 0 6.5 2v3c-7.03.33-14.03-.003-21-1 1.53-1.688 3.36-3.021 5.5-4 .67-8 .67-16 0-24-1.11-1.537-2.61-2.203-4.5-2-.17-1.322.16-2.489 1-3.5 3.75-.302 7.08-1.469 10-3.5z"/><path style="opacity:1" fill="#fcfcfc" d="M1162.5 119.5c12.75.255 19.42 6.755 20 19.5-2.72 16.039-12.06 22.039-28 18-6.69-4.047-10.02-10.047-10-18 1.72-10.547 7.72-17.047 18-19.5z"/><path style="opacity:1" fill="#fcfbfc" d="m1200.5 119.5 12 1a72.286 72.286 0 0 1-1 11h-3c-.92-7.711-4.76-9.711-11.5-6-.84 2.64-.34 4.973 1.5 7 5.48 2.482 10.31 5.816 14.5 10 2.23 8.043-.6 13.21-8.5 15.5a49.97 49.97 0 0 1-15-.5 79.624 79.624 0 0 0-2-10.5c1.21-1.578 2.54-1.745 4-.5 1.95 6.641 6.28 9.141 13 7.5 2.67-2.667 2.67-5.333 0-8-6.1-2.291-10.93-6.124-14.5-11.5-1.75-8.739 1.75-13.739 10.5-15z"/><path style="opacity:1" fill="#fcfcfc" d="M1239.5 119.5a27.62 27.62 0 0 1 10 2.5c2.84 3.495 2 5.995-2.5 7.5-2.9-2.45-6.23-4.116-10-5-5.44 1.108-8.44 4.441-9 10-.94 12.731 4.9 18.231 17.5 16.5 1.83-1.167 3.67-2.333 5.5-3.5.17.667.33 1.333.5 2-4.4 7.755-11.06 10.588-20 8.5-7.54-3.216-11.54-9.049-12-17.5.1-7.19 3.1-12.69 9-16.5 3.55-2.121 7.22-3.621 11-4.5z"/><path style="opacity:1" fill="#fefefe" d="M1263.5 120.5h5c-.17 10.672 0 21.339.5 32 1.58 1.361 3.42 2.028 5.5 2v3h-20v-3c2.08.028 3.92-.639 5.5-2 .67-8.333.67-16.667 0-25-2.67-.724-4.17-2.391-4.5-5 2.93-.065 5.59-.732 8-2z"/><path style="opacity:1" fill="#fcfcfc" d="M1295.5 119.5c3.12.365 6.12 1.198 9 2.5 3.25 3.676 5.59 7.842 7 12.5-.59 1.299-1.59 2.132-3 2.5-7.31.942-14.64 1.442-22 1.5 3.08 13.369 10.75 16.703 23 10 1.08.865 1.25 1.865.5 3-7.6 7.843-16.1 9.01-25.5 3.5-8.34-11.269-7.68-21.936 2-32 2.96-1.604 5.96-2.771 9-3.5z"/><path style="opacity:1" fill="#fafafa" d="M1325.5 119.5c1.5 1.178 2.5 2.845 3 5 13.47-8.458 20.97-4.791 22.5 11 .5 5.991.67 11.991.5 18 3.09-.303 4.75 1.03 5 4h-19v-3c2.08.028 3.92-.639 5.5-2 1.1-8.191.44-16.191-2-24-4.59-2.867-8.92-2.534-13 1-.67 7.667-.67 15.333 0 23a60.134 60.134 0 0 0 5.5 3c-.17.333-.33.667-.5 1a47.69 47.69 0 0 1-9.5 1c-3.52.128-6.85-.372-10-1.5a46.938 46.938 0 0 1 5.5-3.5c.67-8 .67-16 0-24-1.11-1.537-2.61-2.203-4.5-2-.17-1.322.16-2.489 1-3.5 3.75-.302 7.08-1.469 10-3.5z"/><path style="opacity:1" fill="#fcfcfc" d="M1380.5 119.5a27.62 27.62 0 0 1 10 2.5c2.84 3.495 2 5.995-2.5 7.5-2.9-2.45-6.23-4.116-10-5-5.44 1.108-8.44 4.441-9 10-.94 12.731 4.9 18.231 17.5 16.5 1.83-1.167 3.67-2.333 5.5-3.5.17.667.33 1.333.5 2-4.4 7.755-11.06 10.588-20 8.5-7.54-3.216-11.54-9.049-12-17.5.1-7.19 3.1-12.69 9-16.5 3.55-2.121 7.22-3.621 11-4.5zM1413.5 119.5c3.12.365 6.12 1.198 9 2.5 3.25 3.676 5.59 7.842 7 12.5-.59 1.299-1.59 2.132-3 2.5-7.31.942-14.64 1.442-22 1.5 3.08 13.369 10.75 16.703 23 10 1.08.865 1.25 1.865.5 3-7.6 7.843-16.1 9.01-25.5 3.5-8.34-11.269-7.68-21.936 2-32 2.96-1.604 5.96-2.771 9-3.5z"/><path style="opacity:1" fill="#fbfbfb" d="M804.5 120.5a45.636 45.636 0 0 0 19 0v4c-1.846-.278-3.18.389-4 2a165.638 165.638 0 0 0 8 19 73.625 73.625 0 0 0 7-18c-1.476-2.118-3.476-3.618-6-4.5a3.647 3.647 0 0 0 1-1.5c5.567.203 11.234-.13 17-1v4c-2.082-.028-3.916.639-5.5 2-6.994 18.988-15.828 36.988-26.5 54-3.676-.542-5.176-2.542-4.5-6a86.789 86.789 0 0 0 12.5-18.5L811 127.5c-1.734-1.951-3.901-2.951-6.5-3v-4z"/><path style="opacity:1" fill="#111" d="M654.5 124.5c7.682-.82 12.515 2.513 14.5 10a49.226 49.226 0 0 1 0 14c-4.737 7.671-10.07 8.005-16 1-5.116-8.843-4.616-17.176 1.5-25z"/><path style="opacity:1" fill="#121212" d="M756.5 124.5c6.469-.532 9.803 2.468 10 9a32.598 32.598 0 0 1-15 0c.904-3.479 2.571-6.479 5-9z"/><path style="opacity:1" fill="#101110" d="M902.5 124.5c6.21.822 8.877 4.489 8 11-.105 5.42-1.605 10.42-4.5 15-2.475 3.024-5.475 3.69-9 2-3.097-6.944-3.097-13.944 0-21 .967-3.121 2.8-5.454 5.5-7z"/><path style="opacity:1" fill="#121212" d="M1047.5 124.5c6.47-.532 9.8 2.468 10 9-5 1.166-10 1.166-15 0 .9-3.479 2.57-6.479 5-9z"/><path style="opacity:1" fill="#111" d="M1158.5 124.5c7.68-.82 12.52 2.513 14.5 10 .67 4.667.67 9.333 0 14-4.74 7.671-10.07 8.005-16 1-5.12-8.843-4.62-17.176 1.5-25z"/><path style="opacity:1" fill="#121212" d="M1291.5 124.5c6.47-.532 9.8 2.468 10 9-5 1.166-10 1.166-15 0 .9-3.479 2.57-6.479 5-9zM1409.5 124.5c6.47-.532 9.8 2.468 10 9-5 1.166-10 1.166-15 0 .9-3.479 2.57-6.479 5-9z"/><path style="opacity:1" fill="#fdfdfd" d="M403.5 134.5c11.74-.316 23.407.351 35 2a247.597 247.597 0 0 0-2.5 22c-1.67 2.198-3.67 2.532-6 1-2.348-16.268-11.514-22.101-27.5-17.5-6.47 4.126-8.637 9.959-6.5 17.5 1.4 3.402 3.567 6.236 6.5 8.5l28 14c14.556 13.528 14.556 27.195 0 41-15.844 8.9-32.177 9.733-49 2.5-1.434-1.72-2.267-3.72-2.5-6a751.575 751.575 0 0 1-2.5-15.5c.029-4.322 2.029-5.489 6-3.5 6.272 20.475 19.272 26.642 39 18.5 6.405-11.24 3.739-19.907-8-26a207.495 207.495 0 0 1-24-13c-10.155-10.354-11.655-21.854-4.5-34.5 5.101-5.627 11.267-9.294 18.5-11zM503.5 134.5a340.043 340.043 0 0 1 44 2 1707.687 1707.687 0 0 0-2.5 26c-1.699.906-3.533 1.239-5.5 1-1.318-16.805-10.484-24.471-27.5-23-14.228.44-24.228 7.107-30 20-5.18 16.225-3.847 31.892 4 47 10.501 13.831 24.001 18.164 40.5 13a4.457 4.457 0 0 0 1.5-2c1.851-7.363 1.851-14.696 0-22-1.171-1.393-2.671-2.227-4.5-2.5a79.066 79.066 0 0 1-10-2c-.906-1.699-1.239-3.533-1-5.5 14.032.637 28.032.97 42 1 1.333 1.333 1.333 2.667 0 4-3.185 1.158-6.018 2.825-8.5 5-.667 7-.667 14 0 21 2.741 1.567 3.908 3.901 3.5 7-18.085 5.046-36.419 6.213-55 3.5-23.139-6.747-34.805-22.247-35-46.5.915-21.366 11.248-35.866 31-43.5a181.849 181.849 0 0 0 13-3.5z"/><path style="opacity:1" fill="#fbfbfb" d="M613.5 190.5a54.968 54.968 0 0 0 12 1 73.314 73.314 0 0 1-1 12c-3.145-.577-4.645-2.577-4.5-6-3.736-3.512-7.736-3.845-12-1-1.724 2.397-1.724 4.731 0 7a62.91 62.91 0 0 0 14.5 8.5c5.92 5.407 6.42 11.24 1.5 17.5-7.66 4.5-15.66 5.166-24 2a74.403 74.403 0 0 1-2.5-10c.963-1.99 2.296-2.323 4-1 2.281 7.477 7.281 10.31 15 8.5 3.724-3.263 3.724-6.596 0-10a124.6 124.6 0 0 0-11-6c-8.503-7.964-7.836-14.964 2-21 2.208-.191 4.208-.691 6-1.5z"/><path style="opacity:1" fill="#fcfcfc" d="M751.5 191.5c7.058-.297 14.058.036 21 1 1.005 3.979 1.005 7.979 0 12-1.175.219-2.175-.114-3-1-.524-4.901-3.191-7.734-8-8.5-9.972-1.599-15.805 2.567-17.5 12.5-1.73 14.928 4.77 22.095 19.5 21.5 1.291-3.455 1.291-6.955 0-10.5a11.988 11.988 0 0 0-6-1v-3h19c-.162 2.324-1.328 3.991-3.5 5l-.5 4c.206 2.836.873 5.502 2 8a72.94 72.94 0 0 1-24 1.5c-10.725-2.564-16.058-9.398-16-20.5.243-11.525 5.91-18.525 17-21zM915.5 190.5c15.695 1.534 22.861 10.2 21.5 26-4.493 13.838-13.993 19.338-28.5 16.5-11.926-4.341-16.759-12.841-14.5-25.5.9-4.563 3.067-8.396 6.5-11.5 4.799-2.762 9.799-4.596 15-5.5zM1004.5 191.5a131.07 131.07 0 0 0 32 0c.17 3.35 0 6.683-.5 10-.71 1.473-1.88 2.14-3.5 2a11.224 11.224 0 0 0-2-6 36.898 36.898 0 0 0-12-1v13c3.35.165 6.68-.002 10-.5.29-3.094 1.96-4.594 5-4.5v15c-3.04.094-4.71-1.406-5-4.5a50.476 50.476 0 0 0-10-.5c-.3 4.599.03 9.099 1 13.5 5.06 1.01 9.89.51 14.5-1.5 1.56-1.717 2.39-3.717 2.5-6h4a25.075 25.075 0 0 1-3 11.5c-12 .5-24 .667-36 .5v-3c2.71-.075 5.37-.408 8-1a152.67 152.67 0 0 0 .5-29c-.94-3.223-3.1-4.556-6.5-4a6.927 6.927 0 0 1 1-4z"/><path style="opacity:1" fill="#fbfbfb" d="M1100.5 190.5c4.34.601 8.67 1.268 13 2 1.01 3.979 1.01 7.979 0 12-1.18.219-2.18-.114-3-1-1.88-7.118-6.55-9.952-14-8.5-7.86 2.366-11.52 7.699-11 16 .75 14.361 8.08 20.028 22 17 2.12-1.731 3.62-3.898 4.5-6.5.72-.951 1.55-1.117 2.5-.5 1.01 4.351-.32 8.018-4 11-8.94 2.483-17.61 1.817-26-2-8.27-8.172-10.11-17.672-5.5-28.5 5.38-7.182 12.55-10.848 21.5-11z"/><path style="opacity:1" fill="#fdfdfd" d="M1292.5 191.5a200.55 200.55 0 0 0 40 0 216.47 216.47 0 0 0-1.5 12c-.39.928-1.05 1.595-2 2a53.61 53.61 0 0 1-4.5-8.5 40.9 40.9 0 0 0-9-.5c-.17 10.006 0 20.006.5 30 1.93 2.259 4.43 3.259 7.5 3v3h-24v-3c3.07.259 5.57-.741 7.5-3 .5-9.994.67-19.994.5-30-2.69-.164-5.35.003-8 .5a203.18 203.18 0 0 0-6 8.5c-1.38-.5-2.05-1.5-2-3a39.502 39.502 0 0 0 1-11z"/><path style="opacity:1" fill="#fcfcfc" d="M1345.5 191.5a131.07 131.07 0 0 0 32 0c.17 3.35 0 6.683-.5 10-.71 1.473-1.88 2.14-3.5 2a11.224 11.224 0 0 0-2-6 36.898 36.898 0 0 0-12-1v13c3.35.165 6.68-.002 10-.5.29-3.094 1.96-4.594 5-4.5v15c-3.04.094-4.71-1.406-5-4.5a50.476 50.476 0 0 0-10-.5c-.3 4.599.03 9.099 1 13.5 5.06 1.01 9.89.51 14.5-1.5 1.56-1.717 2.39-3.717 2.5-6h4a25.075 25.075 0 0 1-3 11.5c-12 .5-24 .667-36 .5v-3c2.71-.075 5.37-.408 8-1a152.67 152.67 0 0 0 .5-29c-.94-3.223-3.1-4.556-6.5-4a6.927 6.927 0 0 1 1-4z"/><path style="opacity:1" fill="#f9f9f9" d="M640.5 191.5a44.175 44.175 0 0 0 17.5 0c2.756-.076 3.923 1.257 3.5 4a9.108 9.108 0 0 0-5 1 160.723 160.723 0 0 0-.5 31c1.897 1.516 4.064 2.183 6.5 2v3h-22v-3l6-1c1.662-10.762 1.329-21.429-1-32a9.108 9.108 0 0 0-5-1v-4z"/><path style="opacity:1" fill="#fbfbfb" d="m672.5 191.5 15 1.5a1392.32 1392.32 0 0 0 22.5 27.5c.667-7.667.667-15.333 0-23a41.594 41.594 0 0 1-7.5-4c.5-1.381 1.5-2.047 3-2a35.976 35.976 0 0 0 16 0v4c-2.738-.535-4.572.465-5.5 3l-1 34c-3.83 1.76-6.83.76-9-3l-21-27a121.19 121.19 0 0 0 0 22c1.001 3.759 3.501 5.426 7.5 5v3c-6.7.33-13.366-.003-20-1 1.927-1.602 4.094-2.935 6.5-4 .417-7.339.917-14.673 1.5-22 1.093-6.521-1.574-9.854-8-10v-4z"/><path style="opacity:1" fill="#fcfcfc" d="M808.5 191.5c2.261.828 4.428 1.161 6.5 1a236.415 236.415 0 0 0 14.5 35.5 20.093 20.093 0 0 0 6 1.5v3h-21v-3c1.984.117 3.65-.55 5-2a49.18 49.18 0 0 1-3.5-9c-4.333-1.333-8.667-1.333-13 0-1.723 3.272-2.223 6.606-1.5 10a6.846 6.846 0 0 0 4 1v3h-18v-3c3.117-.142 5.617-1.476 7.5-4a302.956 302.956 0 0 0 13.5-34z"/><path style="opacity:1" fill="#fbfbfb" d="M845.5 191.5a561.577 561.577 0 0 0 27 1.5c7.867 4.274 9.7 10.44 5.5 18.5-4.139 4.662-9.305 6.495-15.5 5.5a7.248 7.248 0 0 1-2-2.5c9.537-.06 13.037-4.727 10.5-14-2.08-3.126-5.08-4.793-9-5a3.943 3.943 0 0 0-2 1 511.925 511.925 0 0 0-.5 32c2.306.493 4.639.826 7 1v3h-22v-3l6-1a180.499 180.499 0 0 0 .5-30c-1.465-2.415-3.632-3.415-6.5-3-.067-1.459.266-2.792 1-4z"/><path style="opacity:1" fill="#fcfcfc" d="M951.5 191.5a356.571 356.571 0 0 1 30 2.5c6.102 7.579 5.102 14.079-3 19.5 3.165 5.478 7.165 10.312 12 14.5a10.098 10.098 0 0 0 6 1.5c.17 1.322-.163 2.489-1 3.5-7.116 1.182-12.949-.985-17.5-6.5a183.542 183.542 0 0 0-7.5-10.5 12.93 12.93 0 0 0-5-.5c.427 4.324.761 8.658 1 13l6 1v3h-21v-3a9.108 9.108 0 0 0 5-1 106.25 106.25 0 0 0 1.5-30c-1.465-2.415-3.632-3.415-6.5-3v-4z"/><path style="opacity:1" fill="#f9f9f9" d="M1128.5 191.5a50.512 50.512 0 0 0 20 0v4c-2.74-.535-4.57.465-5.5 3-.5 3.652-.67 7.318-.5 11h20c.17-4.014 0-8.014-.5-12-1.44-1.655-3.28-2.322-5.5-2v-4a50.512 50.512 0 0 0 20 0v4c-2.22-.322-4.06.345-5.5 2-.67 9.667-.67 19.333 0 29 1.64 2.05 3.8 3.05 6.5 3v3h-21v-3c2.08.028 3.92-.639 5.5-2 .5-4.321.67-8.654.5-13h-19v14l6 1v3h-21v-3c2.08.028 3.92-.639 5.5-2 .83-10.349.67-20.683-.5-31a9.11 9.11 0 0 0-5-1v-4z"/><path style="opacity:1" fill="#fcfcfc" d="M1207.5 191.5c2.26.828 4.43 1.161 6.5 1a236.52 236.52 0 0 0 14.5 35.5c1.94.813 3.94 1.313 6 1.5v3h-21v-3c1.98.117 3.65-.55 5-2a49.037 49.037 0 0 1-3.5-9c-4.33-1.333-8.67-1.333-13 0-1.72 3.272-2.22 6.606-1.5 10a6.853 6.853 0 0 0 4 1v3h-18v-3c3.12-.142 5.62-1.476 7.5-4a303.72 303.72 0 0 0 13.5-34z"/><path style="opacity:1" fill="#fbfbfb" d="M1244.5 191.5a560.86 560.86 0 0 0 27 1.5c7.87 4.274 9.7 10.44 5.5 18.5-4.14 4.662-9.31 6.495-15.5 5.5a7.248 7.248 0 0 1-2-2.5c9.54-.06 13.04-4.727 10.5-14-2.08-3.126-5.08-4.793-9-5-.77.145-1.44.478-2 1-.5 10.661-.67 21.328-.5 32 2.31.493 4.64.826 7 1v3h-22v-3l6-1c1-9.981 1.17-19.981.5-30-1.47-2.415-3.63-3.415-6.5-3a6.927 6.927 0 0 1 1-4z"/><path style="opacity:1" fill="#fcfcfc" d="M1392.5 191.5c10.08.415 20.08 1.248 30 2.5 6.1 7.579 5.1 14.079-3 19.5 3.16 5.478 7.16 10.312 12 14.5 1.85 1.128 3.85 1.628 6 1.5.17 1.322-.16 2.489-1 3.5-7.12 1.182-12.95-.985-17.5-6.5a186.552 186.552 0 0 0-7.5-10.5 12.92 12.92 0 0 0-5-.5c.43 4.324.76 8.658 1 13l6 1v3h-21v-3a9.11 9.11 0 0 0 5-1 106.25 106.25 0 0 0 1.5-30c-1.47-2.415-3.63-3.415-6.5-3v-4z"/><path style="opacity:1" fill="#111" d="M909.5 195.5c12.743-.927 19.076 5.073 19 18-.344 13.556-6.677 18.056-19 13.5-7.809-8.611-8.976-18.111-3.5-28.5 1.518-.663 2.685-1.663 3.5-3z"/><path style="opacity:1" fill="#181818" d="M967.5 195.5c8.517.356 11.684 4.689 9.5 13-3.252 2.988-6.918 3.655-11 2-1.045-5.285-.545-10.285 1.5-15zM1408.5 195.5c8.52.356 11.68 4.689 9.5 13-3.25 2.988-6.92 3.655-11 2-1.05-5.285-.55-10.285 1.5-15z"/><path style="opacity:1" fill="#101110" d="M808.5 202.5c2.949 2.91 4.616 6.577 5 11a16.873 16.873 0 0 1-8-1 43.171 43.171 0 0 0 3-10zM1207.5 202.5c2.95 2.91 4.62 6.577 5 11-2.75.313-5.41-.02-8-1a43.074 43.074 0 0 0 3-10z"/><path style="opacity:1" fill="#fdfdfd" d="M345.5 205.5c8.714-.614 13.381 3.386 14 12-1.804 10.408-7.804 13.908-18 10.5-7.658-9.285-6.324-16.785 4-22.5z"/></svg>