<svg xmlns="http://www.w3.org/2000/svg" width="496" height="398" style="shape-rendering:geometricPrecision;text-rendering:geometricPrecision;image-rendering:optimizeQuality;fill-rule:evenodd;clip-rule:evenodd"><path style="opacity:1" fill="#fefefe" d="M-.5-.5h496v398H-.5V-.5z"/><path style="opacity:1" fill="#a8d4f9" d="M192.5 16.5c25.455-2.047 36.788 9.453 34 34.5-3.147 10.418-10.147 16.418-21 18-15.473 1.686-25.639-4.814-30.5-19.5-2.809-11.573.358-21.073 9.5-28.5a77.242 77.242 0 0 0 8-4.5z"/><path style="opacity:1" fill="#f6da68" d="M305.5 34.5a123.89 123.89 0 0 1-1 19 778.377 778.377 0 0 0-4.5 7 63.396 63.396 0 0 0-6.5 5c-5.737 2.442-11.737 3.442-18 3-9.942-1.278-16.609-6.612-20-16a63.016 63.016 0 0 1 0-22c6.105-11.72 15.772-16.553 29-14.5 10.608 2.11 17.608 8.277 21 18.5z"/><path style="opacity:1" fill="#add6f9" d="M32.5 20.5c3.13 1.072 5.796 2.905 8 5.5 8.062 5.027 16.728 9.027 26 12a1500.033 1500.033 0 0 0 67 15 189.493 189.493 0 0 0 43 13.5 6.845 6.845 0 0 1-1 4c-2.946 1.155-5.946 1.321-9 .5l-40-12a706.12 706.12 0 0 1-56-14c-15.582-4.161-28.25-12.328-38-24.5z"/><path style="opacity:1" fill="#e9d06c" d="M408.5 44.5a127.43 127.43 0 0 0-17 4c-2.121-.175-4.121.159-6 1-4.624.263-8.958 1.263-13 3-2.652-.09-4.985.576-7 2a714.312 714.312 0 0 0-46 12.5c-2.31.497-4.643.663-7 .5a4.934 4.934 0 0 1 .5-3 12.139 12.139 0 0 0 4.5-3.5 814.49 814.49 0 0 0 38-12 748.956 748.956 0 0 1 59-12c14.953-3.603 28.453-10.103 40.5-19.5.163 1.887-.671 3.387-2.5 4.5-12.936 10.968-27.603 18.468-44 22.5z"/><path style="opacity:1" fill="#f8e289" d="M255.5 30.5a63.016 63.016 0 0 0 0 22c-.722-.417-1.222-1.084-1.5-2l-.5-8.5c-.214-4.133.452-7.966 2-11.5z"/><path style="opacity:1" fill="#fbedb6" d="M305.5 34.5c.664 2.478.997 5.145 1 8 .206 3.969-.461 7.635-2 11a123.89 123.89 0 0 0 1-19z"/><path style="opacity:1" fill="#f6ebc1" d="M408.5 44.5c-5.288 2.432-10.955 3.766-17 4a127.43 127.43 0 0 1 17-4z"/><path style="opacity:1" fill="#f5e9bb" d="M385.5 49.5c-.418.722-1.084 1.222-2 1.5-3.67.548-7.337 1.048-11 1.5 4.042-1.737 8.376-2.737 13-3z"/><path style="opacity:1" fill="#f7eeca" d="M372.5 52.5c-2.015 1.424-4.348 2.09-7 2 2.015-1.424 4.348-2.09 7-2z"/><path style="opacity:1" fill="#fdf6d9" d="M293.5 65.5c-1.885 1.811-4.219 2.978-7 3.5-3.858.81-7.524.643-11-.5 6.263.442 12.263-.558 18-3z"/><path style="opacity:1" fill="#acd6f9" d="M181.5 82.5c9.339-.166 18.673 0 28 .5-42.929 7.275-76.762 28.775-101.5 64.5a327.175 327.175 0 0 0-23 49l-3 16c-.627-12.981 1.04-25.648 5-38a251.512 251.512 0 0 1 24-46c18.163-23.689 41.663-39.023 70.5-46z"/><path style="opacity:1" fill="#f7dc67" d="M381.5 128.5c.756 4.267 2.089 8.267 4 12a3004.039 3004.039 0 0 1 0 154c-1.663 1.938-2.329 4.272-2 7v1c-1.777 3.005-2.777 6.338-3 10-14.814 38.907-42.814 61.407-84 67.5-25.333.667-50.667.667-76 0-7.127-.612-13.794-2.446-20-5.5-.473-1.406-1.473-2.073-3-2-15.811-8.672-25.311-22.006-28.5-40a256.122 256.122 0 0 1 0-32c3.144-25.288 16.644-41.955 40.5-50 4.296-.93 8.63-1.763 13-2.5a640.343 640.343 0 0 0 36-1.5c24.793-3.135 42.126-16.135 52-39 1.174-1.014 1.84-2.347 2-4a34.033 34.033 0 0 1 1.5-8 1979.51 1979.51 0 0 0 0-89 28.208 28.208 0 0 0-1.5-4c.09-2.652-.576-4.986-2-7-1.966-3.98-3.966-7.98-6-12 26.988 2.742 50.155 13.742 69.5 33a115.186 115.186 0 0 1 7.5 12z"/><path style="opacity:1" fill="#a8d4fa" d="M300.5 126.5c.231 22.681-.102 45.348-1 68-4.814 17.652-15.814 29.819-33 36.5a73.619 73.619 0 0 1-11 2l-77 1c-9.843 2.669-17.676 8.169-23.5 16.5a76.573 76.573 0 0 0-8 22 1055.972 1055.972 0 0 0 0 65 72.253 72.253 0 0 0 7 21 158.709 158.709 0 0 0 14.5 15.5c-5.387-.178-10.387-1.844-15-5a384.797 384.797 0 0 1-21-16c-15.432-17.368-26.266-37.201-32.5-59.5a494.3 494.3 0 0 1 0-99c5.146-20.816 14.813-39.149 29-55 23.573-26.035 52.407-43.202 86.5-51.5a151.278 151.278 0 0 1 42 0c21.812 4.653 36.146 17.487 43 38.5z"/><path style="opacity:1" fill="#a8d5f7" d="M37.5 186.5c-.934-1.068-1.268-2.401-1-4a8165.772 8165.772 0 0 1 8.5-19c18.326-27.659 41.826-49.826 70.5-66.5 6.63-3.409 13.63-4.742 21-4-32.619 15.727-60.453 37.56-83.5 65.5a191.75 191.75 0 0 0-15.5 28z"/><path style="opacity:1" fill="#fdf2c9" d="M310.5 95.5c1.424 2.014 2.09 4.348 2 7-1.424-2.015-2.09-4.348-2-7z"/><path style="opacity:1" fill="#e8ce73" d="M458.5 233.5c-.667 0-1-.333-1-1a38.353 38.353 0 0 0 2-12c.665-2.982.998-6.148 1-9.5.156-5.09-.51-9.923-2-14.5v-1c-.694-5.415-2.36-10.415-5-15-8.272-19.306-20.605-35.806-37-49.5a348.762 348.762 0 0 0-56-37.5c38.767 11.846 68.933 35.179 90.5 70 9.252 17.501 12.919 36.167 11 56a75.293 75.293 0 0 1-3.5 14z"/><path style="opacity:1" fill="#fae798" d="M381.5 128.5c2.306 3.585 3.639 7.585 4 12-1.911-3.733-3.244-7.733-4-12z"/><path style="opacity:1" fill="#e8cf6f" d="M406.5 168.5c.557 4.665 1.89 8.998 4 13 2.564 4.922 3.897 10.255 4 16 .315 3.871-.018 7.538-1 11 .156-4.264-.511-8.264-2-12-.557-4.665-1.89-8.998-4-13a74.41 74.41 0 0 0-6.5-15c-5.532-7.4-9.698-15.4-12.5-24l1-5a19.887 19.887 0 0 0 3.5 4 490.085 490.085 0 0 1 13.5 25z"/><path style="opacity:1" fill="#e6f3fd" d="M300.5 126.5a663.68 663.68 0 0 1 .5 63c-.198 1.882-.698 3.548-1.5 5a1365.359 1365.359 0 0 0 1-68z"/><path style="opacity:1" fill="#f0df9d" d="M406.5 168.5c2.11 4.002 3.443 8.335 4 13-2.11-4.002-3.443-8.335-4-13z"/><path style="opacity:1" fill="#f6eac4" d="M453.5 180.5c2.64 4.585 4.306 9.585 5 15-2.244-4.733-3.911-9.733-5-15z"/><path style="opacity:1" fill="#f7eecb" d="M407.5 183.5c2.11 4.002 3.443 8.335 4 13-2.11-4.002-3.443-8.335-4-13z"/><path style="opacity:1" fill="#b0d9f0" d="M36.5 182.5c-.268 1.599.066 2.932 1 4-7 17.734-6.668 35.234 1 52.5-.95.617-1.782.451-2.5-.5l-3-9a141.762 141.762 0 0 1-1-32c1.058-5.256 2.558-10.256 4.5-15z"/><path style="opacity:1" fill="#fcf0bb" d="M312.5 203.5c-.16 1.653-.826 2.986-2 4-.271-1.88.396-3.213 2-4z"/><path style="opacity:1" fill="#f7eecf" d="M458.5 196.5c1.49 4.577 2.156 9.41 2 14.5-.002 3.352-.335 6.518-1 9.5a288.983 288.983 0 0 0-1-24z"/><path style="opacity:1" fill="#f4e8bb" d="M414.5 197.5c1.315 5.18 1.315 10.514 0 16-.952-1.545-1.285-3.212-1-5 .982-3.462 1.315-7.129 1-11z"/><path style="opacity:1" fill="#f2e1ab" d="M457.5 232.5c0 .667.333 1 1 1-.044 2.816-1.044 5.149-3 7-.791-2.972-.125-5.639 2-8z"/><path style="opacity:1" fill="#fcf0c0" d="M258.5 246.5a640.343 640.343 0 0 1-36 1.5c-4.37.737-8.704 1.57-13 2.5 3.219-2.218 6.886-3.385 11-3.5 12.662-.5 25.329-.667 38-.5z"/><path style="opacity:1" fill="#fbecaa" d="M385.5 294.5c.09 2.652-.576 4.985-2 7-.329-2.728.337-5.062 2-7z"/><path style="opacity:1" fill="#fbedb0" d="M383.5 302.5c-.223 3.662-1.223 6.995-3 10 .223-3.662 1.223-6.995 3-10z"/><path style="opacity:1" fill="#fbeaa7" d="M197.5 372.5c1.527-.073 2.527.594 3 2-1.527.073-2.527-.594-3-2z"/></svg>