<svg xmlns="http://www.w3.org/2000/svg" width="640" height="100" style="shape-rendering:geometricPrecision;text-rendering:geometricPrecision;image-rendering:optimizeQuality;fill-rule:evenodd;clip-rule:evenodd"><path style="opacity:1" fill="#fefefe" d="M-.5-.5h640v100H-.5V-.5z"/><path style="opacity:1" fill="#2f4e64" d="M18.5 15.5h59v17h-42v11h42v46h-59v-17h42v-12h-42v-45z"/><path style="opacity:1" fill="#304f64" d="M87.5 15.5h17v74h-17v-74z"/><path style="opacity:1" fill="#2f4e64" d="M115.5 15.5h59c.166 10.339 0 20.672-.5 31a31.867 31.867 0 0 0-4.5 5 31.867 31.867 0 0 0 4.5 5c.5 10.995.667 21.995.5 33h-59v-74zM184.5 15.5h59v17h-42v11h28v17h-28v12h42v17h-59v-74zM253.5 15.5h59v45c-6.009-.166-12.009 0-18 .5L312 78.5a60.93 60.93 0 0 1 .5 11c-5.676.166-11.343 0-17-.5A440.76 440.76 0 0 1 271 63.5c-.5 8.66-.666 17.327-.5 26h-17v-74z"/><path style="opacity:1" fill="#304f64" d="M322.5 15.5h17a32.462 32.462 0 0 0 .5 8 670.055 670.055 0 0 1 24 25c.5-10.995.667-21.995.5-33h17v74h-17a112.97 112.97 0 0 0-.5-15 423.662 423.662 0 0 1-24-25c-.5 13.33-.667 26.662-.5 40h-17v-74z"/><path style="opacity:1" fill="#2f4e64" d="M391.5 15.5h59v17h-42v11h28v17h-28v12h42v17h-59v-74zM460.5 15.5h59v17h-20v57h-17v-57h-22v-17z"/><path style="opacity:1" fill="#304f64" d="M529.5 15.5h17v74h-17v-74z"/><path style="opacity:1" fill="#2f4e64" d="M557.5 15.5h59v17h-42v40h42v17h-59v-74z"/><path style="opacity:1" fill="#fefefe" d="M132.5 32.5h25v11h-25v-11zM270.5 32.5h25v11h-25v-11zM132.5 60.5h25v12h-25v-12z"/></svg>