<?xml version="1.0" encoding="UTF-8"?>
<!DOCTYPE svg PUBLIC "-//W3C//DTD SVG 1.1//EN" "http://www.w3.org/Graphics/SVG/1.1/DTD/svg11.dtd">
<svg xmlns="http://www.w3.org/2000/svg" version="1.1" width="372px" height="132px" style="shape-rendering:geometricPrecision; text-rendering:geometricPrecision; image-rendering:optimizeQuality; fill-rule:evenodd; clip-rule:evenodd" xmlns:xlink="http://www.w3.org/1999/xlink">
<g><path style="opacity:1" fill="#fefefd" d="M -0.5,-0.5 C 123.5,-0.5 247.5,-0.5 371.5,-0.5C 371.5,43.5 371.5,87.5 371.5,131.5C 247.5,131.5 123.5,131.5 -0.5,131.5C -0.5,87.5 -0.5,43.5 -0.5,-0.5 Z"/></g>
<g><path style="opacity:1" fill="#4c9b9c" d="M 107.5,22.5 C 111.846,22.3343 116.179,22.501 120.5,23C 121.406,24.6995 121.739,26.5328 121.5,28.5C 117.548,27.7279 113.548,27.3946 109.5,27.5C 109.238,28.9778 109.571,30.3112 110.5,31.5C 115.261,33.2935 119.427,35.9602 123,39.5C 124.361,44.2742 122.861,47.7742 118.5,50C 113.254,51.5059 107.921,51.8392 102.5,51C 101.594,49.3005 101.261,47.4672 101.5,45.5C 105.463,46.44 109.463,46.6067 113.5,46C 115.592,45.0475 115.925,43.7141 114.5,42C 111.167,40.3333 107.833,38.6667 104.5,37C 99.8765,30.8909 100.876,26.0576 107.5,22.5 Z"/></g>
<g><path style="opacity:1" fill="#86bbbc" d="M 211.5,23.5 C 218.313,22.5088 225.313,22.1755 232.5,22.5C 232.5,24.5 232.5,26.5 232.5,28.5C 228.167,28.5 223.833,28.5 219.5,28.5C 223.298,27.5166 227.298,27.1832 231.5,27.5C 231.5,26.1667 231.5,24.8333 231.5,23.5C 224.833,23.5 218.167,23.5 211.5,23.5 Z"/></g>
<g><path style="opacity:1" fill="#4b9a9b" d="M 273.5,22.5 C 277.514,22.3345 281.514,22.5012 285.5,23C 287.192,24.4007 287.859,26.2341 287.5,28.5C 283.869,27.588 280.203,27.4213 276.5,28C 275.978,28.5613 275.645,29.228 275.5,30C 279.389,32.8655 283.556,35.3655 288,37.5C 291.296,44.1699 289.463,48.6699 282.5,51C 277.845,51.4992 273.179,51.6658 268.5,51.5C 268.201,49.396 268.534,47.396 269.5,45.5C 273.108,46.5932 276.775,46.7599 280.5,46C 281.86,44.0624 281.527,42.3957 279.5,41C 274.686,39.8528 270.852,37.3528 268,33.5C 267.176,28.4818 269.009,24.8152 273.5,22.5 Z"/></g>
<g><path style="opacity:1" fill="#a2cbcb" d="M 127.5,22.5 C 130.5,22.5 133.5,22.5 136.5,22.5C 136.5,32.1667 136.5,41.8333 136.5,51.5C 133.5,51.5 130.5,51.5 127.5,51.5C 127.5,41.8333 127.5,32.1667 127.5,22.5 Z"/></g>
<g><path style="opacity:1" fill="#439797" d="M 128.5,23.5 C 130.833,23.5 133.167,23.5 135.5,23.5C 135.5,32.5 135.5,41.5 135.5,50.5C 133.167,50.5 130.833,50.5 128.5,50.5C 128.5,41.5 128.5,32.5 128.5,23.5 Z"/></g>
<g><path style="opacity:1" fill="#459899" d="M 163.5,27.5 C 159.167,27.5 154.833,27.5 150.5,27.5C 150.198,30.0593 150.532,32.3926 151.5,34.5C 154.833,34.5 158.167,34.5 161.5,34.5C 161.5,35.8333 161.5,37.1667 161.5,38.5C 157.833,38.5 154.167,38.5 150.5,38.5C 150.198,41.0593 150.532,43.3926 151.5,45.5C 155.298,46.4834 159.298,46.8168 163.5,46.5C 163.5,47.8333 163.5,49.1667 163.5,50.5C 156.833,50.5 150.167,50.5 143.5,50.5C 143.5,41.1667 143.5,31.8333 143.5,22.5C 150.167,22.5 156.833,22.5 163.5,22.5C 163.5,24.1667 163.5,25.8333 163.5,27.5 Z"/></g>
<g><path style="opacity:1" fill="#47999a" d="M 194.5,23.5 C 197.5,23.5 200.5,23.5 203.5,23.5C 203.5,32.5 203.5,41.5 203.5,50.5C 201.5,50.5 199.5,50.5 197.5,50.5C 197.83,44.1318 197.496,37.7985 196.5,31.5C 195.893,31.6236 195.56,31.9569 195.5,32.5C 193.569,38.6218 191.236,44.6218 188.5,50.5C 186.647,51.7596 184.814,51.7596 183,50.5C 180.532,44.9269 178.365,39.2602 176.5,33.5C 176.217,32.7109 175.717,32.0442 175,31.5C 174.5,37.8246 174.334,44.1579 174.5,50.5C 172.833,50.5 171.167,50.5 169.5,50.5C 169.5,41.1667 169.5,31.8333 169.5,22.5C 173.106,22.2108 176.606,22.5442 180,23.5C 182.61,29.0526 184.943,34.7192 187,40.5C 189.232,34.6073 191.732,28.9406 194.5,23.5 Z"/></g>
<g><path style="opacity:1" fill="#4b9b9c" d="M 211.5,23.5 C 218.167,23.5 224.833,23.5 231.5,23.5C 231.5,24.8333 231.5,26.1667 231.5,27.5C 227.298,27.1832 223.298,27.5166 219.5,28.5C 219.5,30.5 219.5,32.5 219.5,34.5C 223.167,34.5 226.833,34.5 230.5,34.5C 230.5,35.8333 230.5,37.1667 230.5,38.5C 226.833,38.5 223.167,38.5 219.5,38.5C 219.5,40.8333 219.5,43.1667 219.5,45.5C 223.833,45.5 228.167,45.5 232.5,45.5C 232.5,47.5 232.5,49.5 232.5,51.5C 225.5,51.5 218.5,51.5 211.5,51.5C 211.5,42.1667 211.5,32.8333 211.5,23.5 Z"/></g>
<g><path style="opacity:1" fill="#82b9ba" d="M 247.5,23.5 C 244.5,23.5 241.5,23.5 238.5,23.5C 238.5,32.5 238.5,41.5 238.5,50.5C 240.167,50.5 241.833,50.5 243.5,50.5C 241.735,51.4614 239.735,51.7947 237.5,51.5C 237.5,41.8333 237.5,32.1667 237.5,22.5C 241.042,22.1872 244.375,22.5206 247.5,23.5 Z"/></g>
<g><path style="opacity:1" fill="#469899" d="M 247.5,23.5 C 250.18,28.8599 252.847,34.1932 255.5,39.5C 255.783,40.2891 256.283,40.9558 257,41.5C 257.499,35.5092 257.666,29.5092 257.5,23.5C 259.167,23.5 260.833,23.5 262.5,23.5C 262.5,32.8333 262.5,42.1667 262.5,51.5C 259.428,51.8174 256.428,51.4841 253.5,50.5C 250.079,44.6581 246.912,38.6581 244,32.5C 243.501,38.4908 243.334,44.4908 243.5,50.5C 241.833,50.5 240.167,50.5 238.5,50.5C 238.5,41.5 238.5,32.5 238.5,23.5C 241.5,23.5 244.5,23.5 247.5,23.5 Z"/></g>
<g><path style="opacity:1" fill="#96c4c5" d="M 262.5,23.5 C 260.833,23.5 259.167,23.5 257.5,23.5C 257.666,29.5092 257.499,35.5092 257,41.5C 256.283,40.9558 255.783,40.2891 255.5,39.5C 256.489,34.0247 256.822,28.358 256.5,22.5C 258.735,22.2053 260.735,22.5386 262.5,23.5 Z"/></g>
<g><path style="opacity:1" fill="#aed1d2" d="M 163.5,27.5 C 159.702,28.4834 155.702,28.8168 151.5,28.5C 151.5,30.5 151.5,32.5 151.5,34.5C 150.532,32.3926 150.198,30.0593 150.5,27.5C 154.833,27.5 159.167,27.5 163.5,27.5 Z"/></g>
<g><path style="opacity:1" fill="#70afb0" d="M 194.5,23.5 C 197.625,22.5206 200.958,22.1872 204.5,22.5C 204.5,32.1667 204.5,41.8333 204.5,51.5C 201.833,51.5 199.167,51.5 196.5,51.5C 196.823,44.9779 196.49,38.6446 195.5,32.5C 195.56,31.9569 195.893,31.6236 196.5,31.5C 197.496,37.7985 197.83,44.1318 197.5,50.5C 199.5,50.5 201.5,50.5 203.5,50.5C 203.5,41.5 203.5,32.5 203.5,23.5C 200.5,23.5 197.5,23.5 194.5,23.5 Z"/></g>
<g><path style="opacity:1" fill="#93c2c3" d="M 176.5,33.5 C 175.51,39.31 175.177,45.31 175.5,51.5C 173.265,51.7947 171.265,51.4614 169.5,50.5C 171.167,50.5 172.833,50.5 174.5,50.5C 174.334,44.1579 174.5,37.8246 175,31.5C 175.717,32.0442 176.217,32.7109 176.5,33.5 Z"/></g>
<g><path style="opacity:1" fill="#de7738" d="M 319.5,34.5 C 322.352,34.3524 324.019,35.6857 324.5,38.5C 322.43,43.5864 320.096,43.7531 317.5,39C 317.519,37.167 318.185,35.667 319.5,34.5 Z"/></g>
<g><path style="opacity:1" fill="#9ec8c9" d="M 161.5,34.5 C 162.451,35.9187 162.784,37.5853 162.5,39.5C 158.833,39.5 155.167,39.5 151.5,39.5C 151.5,41.5 151.5,43.5 151.5,45.5C 150.532,43.3926 150.198,41.0593 150.5,38.5C 154.167,38.5 157.833,38.5 161.5,38.5C 161.5,37.1667 161.5,35.8333 161.5,34.5 Z"/></g>
<g><path style="opacity:1" fill="#dd7333" d="M 330.5,45.5 C 337.048,45.2072 339.048,48.0405 336.5,54C 330.086,56.5925 327.586,54.4259 329,47.5C 329.717,46.9558 330.217,46.2891 330.5,45.5 Z"/></g>
<g><path style="opacity:1" fill="#df7b3f" d="M 307.5,47.5 C 311.35,47.7007 312.35,49.5341 310.5,53C 305.722,53.0734 304.722,51.2401 307.5,47.5 Z"/></g>
<g><path style="opacity:1" fill="#83b9ba" d="M 151.5,45.5 C 155.833,45.5 160.167,45.5 164.5,45.5C 164.5,47.5 164.5,49.5 164.5,51.5C 157.313,51.8245 150.313,51.4912 143.5,50.5C 150.167,50.5 156.833,50.5 163.5,50.5C 163.5,49.1667 163.5,47.8333 163.5,46.5C 159.298,46.8168 155.298,46.4834 151.5,45.5 Z"/></g>
<g><path style="opacity:1" fill="#dd7131" d="M 341.5,56.5 C 351.267,56.0726 353.6,59.9059 348.5,68C 342.648,70.0395 339.315,68.0395 338.5,62C 338.863,59.8077 339.863,57.9744 341.5,56.5 Z"/></g>
<g><path style="opacity:1" fill="#de7536" d="M 319.5,58.5 C 322.352,58.3524 324.019,59.6857 324.5,62.5C 322.167,67.8333 319.833,67.8333 317.5,62.5C 317.752,60.9271 318.418,59.5938 319.5,58.5 Z"/></g>
<g><path style="opacity:1" fill="#dd7434" d="M 295.5,60.5 C 296.5,60.5 297.5,60.5 298.5,60.5C 298.5,61.8333 298.5,63.1667 298.5,64.5C 295.046,64.7332 294.046,63.3999 295.5,60.5 Z"/></g>
<g><path style="opacity:1" fill="#df7a3d" d="M 166.5,62.5 C 172.016,62.4734 173.349,64.64 170.5,69C 164.738,69.4178 163.404,67.2511 166.5,62.5 Z"/></g>
<g><path style="opacity:1" fill="#dd712f" d="M 36.5,66.5 C 38.8333,66.5 41.1667,66.5 43.5,66.5C 43.5,77.1667 43.5,87.8333 43.5,98.5C 41.1667,98.5 38.8333,98.5 36.5,98.5C 36.5,94.1667 36.5,89.8333 36.5,85.5C 33.1667,85.5 29.8333,85.5 26.5,85.5C 26.5,89.8333 26.5,94.1667 26.5,98.5C 24.1667,98.5 21.8333,98.5 19.5,98.5C 19.5,87.8333 19.5,77.1667 19.5,66.5C 21.8333,66.5 24.1667,66.5 26.5,66.5C 26.5,70.5 26.5,74.5 26.5,78.5C 29.8333,78.5 33.1667,78.5 36.5,78.5C 36.5,74.5 36.5,70.5 36.5,66.5 Z"/></g>
<g><path style="opacity:1" fill="#f7decf" d="M 36.5,66.5 C 38.9479,65.5269 41.6146,65.1936 44.5,65.5C 44.8279,76.6794 44.4946,87.6794 43.5,98.5C 43.5,87.8333 43.5,77.1667 43.5,66.5C 41.1667,66.5 38.8333,66.5 36.5,66.5 Z"/></g>
<g><path style="opacity:1" fill="#ebae88" d="M 108.5,66.5 C 106.5,66.5 104.5,66.5 102.5,66.5C 102.5,75.8333 102.5,85.1667 102.5,94.5C 101.506,85.0144 101.173,75.3478 101.5,65.5C 104.059,65.1984 106.393,65.5318 108.5,66.5 Z"/></g>
<g><path style="opacity:1" fill="#dc702e" d="M 108.5,66.5 C 108.334,74.84 108.5,83.1733 109,91.5C 110.53,92.9202 112.363,93.9202 114.5,94.5C 115.246,95.7362 115.579,97.0695 115.5,98.5C 112.507,99.1346 109.507,99.3013 106.5,99C 104.249,98.2525 102.916,96.7525 102.5,94.5C 102.5,85.1667 102.5,75.8333 102.5,66.5C 104.5,66.5 106.5,66.5 108.5,66.5 Z"/></g>
<g><path style="opacity:1" fill="#dd7333" d="M 125.5,73.5 C 127.265,74.4614 129.265,74.7947 131.5,74.5C 131.5,75.8333 131.5,77.1667 131.5,78.5C 129.265,78.2053 127.265,78.5386 125.5,79.5C 125.334,83.5138 125.501,87.5138 126,91.5C 127.53,92.9202 129.363,93.9202 131.5,94.5C 132.246,95.7362 132.579,97.0695 132.5,98.5C 127.854,100.469 123.687,99.8023 120,96.5C 118.596,90.9562 118.096,85.2896 118.5,79.5C 117.791,78.596 116.791,78.2627 115.5,78.5C 115.5,76.8333 115.5,75.1667 115.5,73.5C 116.5,73.5 117.5,73.5 118.5,73.5C 119.468,71.3926 119.802,69.0593 119.5,66.5C 121.5,66.5 123.5,66.5 125.5,66.5C 125.5,68.8333 125.5,71.1667 125.5,73.5 Z"/></g>
<g><path style="opacity:1" fill="#f3c9af" d="M 126.5,73.5 C 126.167,73.5 125.833,73.5 125.5,73.5C 125.5,71.1667 125.5,68.8333 125.5,66.5C 123.5,66.5 121.5,66.5 119.5,66.5C 119.802,69.0593 119.468,71.3926 118.5,73.5C 118.5,70.8333 118.5,68.1667 118.5,65.5C 121.167,65.5 123.833,65.5 126.5,65.5C 126.5,68.1667 126.5,70.8333 126.5,73.5 Z"/></g>
<g><path style="opacity:1" fill="#eaac86" d="M 144.5,66.5 C 142.5,66.5 140.5,66.5 138.5,66.5C 138.5,77.1667 138.5,87.8333 138.5,98.5C 137.505,87.6794 137.172,76.6794 137.5,65.5C 140.059,65.1984 142.393,65.5318 144.5,66.5 Z"/></g>
<g><path style="opacity:1" fill="#dc6e2c" d="M 144.5,66.5 C 144.335,69.5184 144.502,72.5184 145,75.5C 148.183,73.4766 151.683,72.9766 155.5,74C 156.333,74.8333 157.167,75.6667 158,76.5C 158.5,83.8258 158.666,91.1591 158.5,98.5C 156.5,98.5 154.5,98.5 152.5,98.5C 152.666,92.4908 152.499,86.4908 152,80.5C 149.731,77.9456 147.398,77.9456 145,80.5C 144.501,86.4908 144.334,92.4908 144.5,98.5C 142.5,98.5 140.5,98.5 138.5,98.5C 138.5,87.8333 138.5,77.1667 138.5,66.5C 140.5,66.5 142.5,66.5 144.5,66.5 Z"/></g>
<g><path style="opacity:1" fill="#dd7434" d="M 330.5,69.5 C 336.989,69.1563 338.989,71.9896 336.5,78C 330.086,80.5925 327.586,78.4259 329,71.5C 329.717,70.9558 330.217,70.2891 330.5,69.5 Z"/></g>
<g><path style="opacity:1" fill="#e07b3f" d="M 307.5,71.5 C 311.35,71.7007 312.35,73.5341 310.5,77C 305.722,77.0734 304.722,75.2401 307.5,71.5 Z"/></g>
<g><path style="opacity:1" fill="#dd7333" d="M 56.5,73.5 C 60.3076,73.1632 63.9743,73.6632 67.5,75C 70.6149,79.6438 69.9483,83.6438 65.5,87C 62.6074,88.1488 59.6074,88.6488 56.5,88.5C 56.2965,90.3904 56.9632,91.8904 58.5,93C 61.38,93.6841 64.2134,93.5174 67,92.5C 70.4937,94.6765 70.327,96.5099 66.5,98C 60.3843,100.796 55.2177,99.6297 51,94.5C 47.5486,85.8904 49.382,78.8904 56.5,73.5 Z"/></g>
<g><path style="opacity:1" fill="#dd7130" d="M 80.5,73.5 C 85.547,73.3375 90.547,73.6708 95.5,74.5C 95.5,82.5 95.5,90.5 95.5,98.5C 93.1789,98.7711 91.1789,98.1045 89.5,96.5C 82.7973,101.192 77.6306,99.8588 74,92.5C 71.7723,84.4907 73.939,78.1574 80.5,73.5 Z"/></g>
<g><path style="opacity:1" fill="#dd7130" d="M 177.5,73.5 C 179.5,73.5 181.5,73.5 183.5,73.5C 183.443,77.1331 184.443,77.2998 186.5,74C 190.909,72.7382 194.743,73.5715 198,76.5C 199.429,83.7194 199.929,91.0528 199.5,98.5C 197.167,98.5 194.833,98.5 192.5,98.5C 192.666,92.1579 192.5,85.8246 192,79.5C 189.408,78.0183 187.075,78.3517 185,80.5C 184.501,86.4908 184.334,92.4908 184.5,98.5C 182.5,98.5 180.5,98.5 178.5,98.5C 178.74,90.1254 178.407,81.7921 177.5,73.5 Z"/></g>
<g><path style="opacity:1" fill="#dd7333" d="M 210.5,73.5 C 221.726,71.5429 225.393,75.7095 221.5,86C 218.13,88.0778 214.463,88.9111 210.5,88.5C 210.297,90.3904 210.963,91.8904 212.5,93C 215.562,93.7415 218.562,93.5748 221.5,92.5C 224.081,94.3259 224.081,96.1593 221.5,98C 207.695,101.198 201.861,95.6984 204,81.5C 205.479,78.1725 207.645,75.5058 210.5,73.5 Z"/></g>
<g><path style="opacity:1" fill="#dd7333" d="M 234.5,73.5 C 245.726,71.5429 249.393,75.7095 245.5,86C 242.13,88.0778 238.463,88.9111 234.5,88.5C 234.297,90.3904 234.963,91.8904 236.5,93C 239.562,93.7415 242.562,93.5748 245.5,92.5C 248.081,94.3259 248.081,96.1593 245.5,98C 231.695,101.198 225.861,95.6984 228,81.5C 229.479,78.1725 231.645,75.5058 234.5,73.5 Z"/></g>
<g><path style="opacity:1" fill="#dd7333" d="M 253.5,73.5 C 255.167,73.5 256.833,73.5 258.5,73.5C 258.443,77.1331 259.443,77.2998 261.5,74C 263.81,73.5034 266.143,73.3367 268.5,73.5C 268.799,75.604 268.466,77.604 267.5,79.5C 265.031,77.9934 262.865,78.3268 261,80.5C 260.501,86.4908 260.334,92.4908 260.5,98.5C 258.167,98.5 255.833,98.5 253.5,98.5C 253.5,90.1667 253.5,81.8333 253.5,73.5 Z"/></g>
<g><path style="opacity:1" fill="#dd7333" d="M 275.5,73.5 C 278.85,73.335 282.183,73.5017 285.5,74C 287.917,75.6732 287.917,77.5065 285.5,79.5C 284.059,78.696 282.559,78.0294 281,77.5C 278.498,78.5007 277.998,80.1674 279.5,82.5C 288.998,83.7907 291.664,88.624 287.5,97C 282.381,100.021 277.214,100.188 272,97.5C 271.376,95.5355 271.876,93.8689 273.5,92.5C 275.957,94.2249 278.623,94.7249 281.5,94C 282.38,92.6439 282.714,91.1439 282.5,89.5C 270.828,87.8824 268.495,82.549 275.5,73.5 Z"/></g>
<g><path style="opacity:1" fill="#efbfa2" d="M 115.5,73.5 C 115.5,75.1667 115.5,76.8333 115.5,78.5C 116.791,78.2627 117.791,78.596 118.5,79.5C 117.167,79.5 115.833,79.5 114.5,79.5C 114.205,77.2646 114.539,75.2646 115.5,73.5 Z"/></g>
<g><path style="opacity:1" fill="#e79c6e" d="M 125.5,73.5 C 125.833,73.5 126.167,73.5 126.5,73.5C 128.5,73.5 130.5,73.5 132.5,73.5C 132.5,75.5 132.5,77.5 132.5,79.5C 130.167,79.5 127.833,79.5 125.5,79.5C 127.265,78.5386 129.265,78.2053 131.5,78.5C 131.5,77.1667 131.5,75.8333 131.5,74.5C 129.265,74.7947 127.265,74.4614 125.5,73.5 Z"/></g>
<g><path style="opacity:1" fill="#dc6f2c" d="M 165.5,73.5 C 167.5,73.5 169.5,73.5 171.5,73.5C 171.5,81.8333 171.5,90.1667 171.5,98.5C 169.5,98.5 167.5,98.5 165.5,98.5C 165.5,90.1667 165.5,81.8333 165.5,73.5 Z"/></g>
<g><path style="opacity:1" fill="#fcede5" d="M 59.5,77.5 C 64.7181,79.1564 64.7181,81.323 59.5,84C 58.2068,84.49 56.8734,84.6567 55.5,84.5C 55.5713,81.3477 56.9046,79.0144 59.5,77.5 Z"/></g>
<g><path style="opacity:1" fill="#fef9f7" d="M 84.5,78.5 C 85.8333,78.5 87.1667,78.5 88.5,78.5C 88.5,82.8333 88.5,87.1667 88.5,91.5C 85.9418,95.4378 83.4418,95.4378 81,91.5C 80.3333,88.1667 80.3333,84.8333 81,81.5C 81.4224,79.5743 82.5891,78.5743 84.5,78.5 Z"/></g>
<g><path style="opacity:1" fill="#e79a6b" d="M 84.5,78.5 C 85.9187,77.5489 87.5853,77.2155 89.5,77.5C 89.8195,82.3633 89.4861,87.03 88.5,91.5C 88.5,87.1667 88.5,82.8333 88.5,78.5C 87.1667,78.5 85.8333,78.5 84.5,78.5 Z"/></g>
<g><path style="opacity:1" fill="#fcf1eb" d="M 213.5,77.5 C 217.071,77.4077 218.238,79.0743 217,82.5C 214.993,83.6687 212.827,84.3354 210.5,84.5C 210.15,81.5466 211.15,79.2133 213.5,77.5 Z"/></g>
<g><path style="opacity:1" fill="#fcf1eb" d="M 237.5,77.5 C 241.071,77.4077 242.238,79.0743 241,82.5C 238.993,83.6687 236.827,84.3354 234.5,84.5C 234.15,81.5466 235.15,79.2133 237.5,77.5 Z"/></g>
<g><path style="opacity:1" fill="#de7638" d="M 319.5,82.5 C 322.352,82.3524 324.019,83.6857 324.5,86.5C 323.339,90.7216 321.172,91.3883 318,88.5C 317.257,86.1261 317.757,84.1261 319.5,82.5 Z"/></g>
</svg>
