<svg xmlns="http://www.w3.org/2000/svg" width="372" height="132" style="shape-rendering:geometricPrecision;text-rendering:geometricPrecision;image-rendering:optimizeQuality;fill-rule:evenodd;clip-rule:evenodd"><path style="opacity:1" fill="#fefefd" d="M-.5-.5h372v132H-.5V-.5z"/><path style="opacity:1" fill="#4c9b9c" d="M107.5 22.5a84.94 84.94 0 0 1 13 .5c.906 1.7 1.239 3.533 1 5.5a54.938 54.938 0 0 0-12-1c-.262 1.478.071 2.811 1 4 4.761 1.794 8.927 4.46 12.5 8 1.361 4.774-.139 8.274-4.5 10.5-5.246 1.506-10.579 1.84-16 1-.906-1.7-1.239-3.533-1-5.5a31.343 31.343 0 0 0 12 .5c2.092-.953 2.425-2.286 1-4l-10-5c-4.624-6.11-3.624-10.942 3-14.5z"/><path style="opacity:1" fill="#86bbbc" d="M211.5 23.5c6.813-.991 13.813-1.325 21-1v6h-13c3.798-.983 7.798-1.317 12-1v-4h-20z"/><path style="opacity:1" fill="#4b9a9b" d="M273.5 22.5a72.442 72.442 0 0 1 12 .5c1.692 1.4 2.359 3.234 2 5.5a27.36 27.36 0 0 0-11-.5 3.944 3.944 0 0 0-1 2 77.805 77.805 0 0 0 12.5 7.5c3.296 6.67 1.463 11.17-5.5 13.5-4.655.5-9.321.666-14 .5a9.86 9.86 0 0 1 1-6c3.608 1.093 7.275 1.26 11 .5 1.36-1.938 1.027-3.604-1-5-4.814-1.147-8.648-3.647-11.5-7.5-.824-5.018 1.009-8.685 5.5-11z"/><path style="opacity:1" fill="#a2cbcb" d="M127.5 22.5h9v29h-9v-29z"/><path style="opacity:1" fill="#439797" d="M128.5 23.5h7v27h-7v-27z"/><path style="opacity:1" fill="#459899" d="M163.5 27.5h-13c-.302 2.56.032 4.893 1 7h10v4h-11c-.302 2.56.032 4.893 1 7 3.798.983 7.798 1.317 12 1v4h-20v-28h20v5z"/><path style="opacity:1" fill="#47999a" d="M194.5 23.5h9v27h-6a91.124 91.124 0 0 0-1-19c-.607.124-.94.457-1 1a148.427 148.427 0 0 1-7 18c-1.853 1.26-3.686 1.26-5.5 0a175.367 175.367 0 0 1-6.5-17c-.283-.79-.783-1.456-1.5-2-.5 6.325-.666 12.658-.5 19h-5v-28c3.606-.29 7.106.044 10.5 1a188.444 188.444 0 0 1 7 17 171.146 171.146 0 0 1 7.5-17z"/><path style="opacity:1" fill="#4b9b9c" d="M211.5 23.5h20v4c-4.202-.317-8.202.017-12 1v6h11v4h-11v7h13v6h-21v-28z"/><path style="opacity:1" fill="#82b9ba" d="M247.5 23.5h-9v27h5c-1.765.961-3.765 1.295-6 1v-29c3.542-.313 6.875.02 10 1z"/><path style="opacity:1" fill="#469899" d="m247.5 23.5 8 16c.283.79.783 1.456 1.5 2 .499-5.99.666-11.99.5-18h5v28a21.12 21.12 0 0 1-9-1 231.12 231.12 0 0 1-9.5-18c-.499 5.99-.666 11.99-.5 18h-5v-27h9z"/><path style="opacity:1" fill="#96c4c5" d="M262.5 23.5h-5c.166 6.01-.001 12.01-.5 18-.717-.544-1.217-1.21-1.5-2 .989-5.475 1.322-11.142 1-17 2.235-.295 4.235.039 6 1z"/><path style="opacity:1" fill="#aed1d2" d="M163.5 27.5c-3.798.983-7.798 1.317-12 1v6c-.968-2.107-1.302-4.44-1-7h13z"/><path style="opacity:1" fill="#70afb0" d="M194.5 23.5c3.125-.98 6.458-1.313 10-1v29h-8c.323-6.522-.01-12.855-1-19 .06-.543.393-.876 1-1a91.124 91.124 0 0 1 1 19h6v-27h-9z"/><path style="opacity:1" fill="#93c2c3" d="M176.5 33.5c-.99 5.81-1.323 11.81-1 18-2.235.295-4.235-.039-6-1h5c-.166-6.342 0-12.675.5-19 .717.544 1.217 1.21 1.5 2z"/><path style="opacity:1" fill="#de7738" d="M319.5 34.5c2.852-.148 4.519 1.186 5 4-2.07 5.086-4.404 5.253-7 .5.019-1.833.685-3.333 2-4.5z"/><path style="opacity:1" fill="#9ec8c9" d="M161.5 34.5c.951 1.419 1.284 3.085 1 5h-11v6c-.968-2.107-1.302-4.44-1-7h11v-4z"/><path style="opacity:1" fill="#dd7333" d="M330.5 45.5c6.548-.293 8.548 2.54 6 8.5-6.414 2.593-8.914.426-7.5-6.5.717-.544 1.217-1.21 1.5-2z"/><path style="opacity:1" fill="#df7b3f" d="M307.5 47.5c3.85.2 4.85 2.034 3 5.5-4.778.073-5.778-1.76-3-5.5z"/><path style="opacity:1" fill="#83b9ba" d="M151.5 45.5h13v6c-7.187.325-14.187-.009-21-1h20v-4c-4.202.317-8.202-.017-12-1z"/><path style="opacity:1" fill="#dd7131" d="M341.5 56.5c9.767-.427 12.1 3.406 7 11.5-5.852 2.04-9.185.04-10-6 .363-2.192 1.363-4.026 3-5.5z"/><path style="opacity:1" fill="#de7536" d="M319.5 58.5c2.852-.148 4.519 1.186 5 4-2.333 5.333-4.667 5.333-7 0 .252-1.573.918-2.906 2-4z"/><path style="opacity:1" fill="#dd7434" d="M295.5 60.5h3v4c-3.454.233-4.454-1.1-3-4z"/><path style="opacity:1" fill="#df7a3d" d="M166.5 62.5c5.516-.027 6.849 2.14 4 6.5-5.762.418-7.096-1.749-4-6.5z"/><path style="opacity:1" fill="#dd712f" d="M36.5 66.5h7v32h-7v-13h-10v13h-7v-32h7v12h10v-12z"/><path style="opacity:1" fill="#f7decf" d="M36.5 66.5c2.448-.973 5.115-1.306 8-1 .328 11.18-.005 22.18-1 33v-32h-7z"/><path style="opacity:1" fill="#ebae88" d="M108.5 66.5h-6v28c-.994-9.486-1.327-19.152-1-29 2.559-.302 4.893.032 7 1z"/><path style="opacity:1" fill="#dc702e" d="M108.5 66.5a313 313 0 0 0 .5 25c1.53 1.42 3.363 2.42 5.5 3a6.845 6.845 0 0 1 1 4 29.134 29.134 0 0 1-9 .5c-2.251-.748-3.584-2.248-4-4.5v-28h6z"/><path style="opacity:1" fill="#dd7333" d="M125.5 73.5c1.765.961 3.765 1.295 6 1v4c-2.235-.295-4.235.039-6 1a72.368 72.368 0 0 0 .5 12c1.53 1.42 3.363 2.42 5.5 3a6.845 6.845 0 0 1 1 4c-4.646 1.969-8.813 1.302-12.5-2-1.404-5.544-1.904-11.21-1.5-17-.709-.904-1.709-1.237-3-1v-5h3c.968-2.107 1.302-4.44 1-7h6v7z"/><path style="opacity:1" fill="#f3c9af" d="M126.5 73.5h-1v-7h-6c.302 2.56-.032 4.893-1 7v-8h8v8z"/><path style="opacity:1" fill="#eaac86" d="M144.5 66.5h-6v32c-.995-10.82-1.328-21.82-1-33 2.559-.302 4.893.032 7 1z"/><path style="opacity:1" fill="#dc6e2c" d="M144.5 66.5a40.911 40.911 0 0 0 .5 9c3.183-2.023 6.683-2.523 10.5-1.5l2.5 2.5c.5 7.326.666 14.66.5 22h-6c.166-6.01-.001-12.01-.5-18-2.269-2.554-4.602-2.554-7 0-.499 5.99-.666 11.99-.5 18h-6v-32h6z"/><path style="opacity:1" fill="#dd7434" d="M330.5 69.5c6.489-.344 8.489 2.49 6 8.5-6.414 2.593-8.914.426-7.5-6.5.717-.544 1.217-1.21 1.5-2z"/><path style="opacity:1" fill="#e07b3f" d="M307.5 71.5c3.85.2 4.85 2.034 3 5.5-4.778.073-5.778-1.76-3-5.5z"/><path style="opacity:1" fill="#dd7333" d="M56.5 73.5c3.808-.337 7.474.163 11 1.5 3.115 4.644 2.448 8.644-2 12a21.345 21.345 0 0 1-9 1.5c-.203 1.89.463 3.39 2 4.5 2.88.684 5.713.517 8.5-.5 3.494 2.177 3.327 4.01-.5 5.5-6.116 2.796-11.282 1.63-15.5-3.5-3.451-8.61-1.618-15.61 5.5-21z"/><path style="opacity:1" fill="#dd7130" d="M80.5 73.5a75.84 75.84 0 0 1 15 1v24c-2.321.271-4.321-.395-6-2-6.703 4.692-11.87 3.359-15.5-4-2.228-8.01-.061-14.343 6.5-19zM177.5 73.5h6c-.057 3.633.943 3.8 3 .5 4.409-1.262 8.243-.428 11.5 2.5a87.063 87.063 0 0 1 1.5 22h-7c.166-6.342 0-12.675-.5-19-2.592-1.482-4.925-1.148-7 1-.499 5.99-.666 11.99-.5 18h-6c.24-8.375-.093-16.708-1-25z"/><path style="opacity:1" fill="#dd7333" d="M210.5 73.5c11.226-1.957 14.893 2.21 11 12.5-3.37 2.078-7.037 2.911-11 2.5-.203 1.89.463 3.39 2 4.5 3.062.742 6.062.575 9-.5 2.581 1.826 2.581 3.66 0 5.5-13.805 3.198-19.639-2.302-17.5-16.5 1.479-3.328 3.645-5.994 6.5-8zM234.5 73.5c11.226-1.957 14.893 2.21 11 12.5-3.37 2.078-7.037 2.911-11 2.5-.203 1.89.463 3.39 2 4.5 3.062.742 6.062.575 9-.5 2.581 1.826 2.581 3.66 0 5.5-13.805 3.198-19.639-2.302-17.5-16.5 1.479-3.328 3.645-5.994 6.5-8zM253.5 73.5h5c-.057 3.633.943 3.8 3 .5a24.939 24.939 0 0 1 7-.5 9.86 9.86 0 0 1-1 6c-2.469-1.507-4.635-1.173-6.5 1-.499 5.99-.666 11.99-.5 18h-7v-25zM275.5 73.5c3.35-.165 6.683.002 10 .5 2.417 1.673 2.417 3.507 0 5.5a27.104 27.104 0 0 0-4.5-2c-2.502 1-3.002 2.667-1.5 5 9.498 1.29 12.164 6.124 8 14.5-5.119 3.021-10.286 3.188-15.5.5-.624-1.965-.124-3.631 1.5-5 2.457 1.725 5.123 2.225 8 1.5.88-1.356 1.214-2.856 1-4.5-11.672-1.618-14.005-6.951-7-16z"/><path style="opacity:1" fill="#efbfa2" d="M115.5 73.5v5c1.291-.237 2.291.096 3 1h-4c-.295-2.235.039-4.235 1-6z"/><path style="opacity:1" fill="#e79c6e" d="M125.5 73.5h7v6h-7c1.765-.961 3.765-1.295 6-1v-4c-2.235.295-4.235-.039-6-1z"/><path style="opacity:1" fill="#dc6f2c" d="M165.5 73.5h6v25h-6v-25z"/><path style="opacity:1" fill="#fcede5" d="M59.5 77.5c5.218 1.656 5.218 3.823 0 6.5a8.434 8.434 0 0 1-4 .5c.071-3.152 1.405-5.486 4-7z"/><path style="opacity:1" fill="#fef9f7" d="M84.5 78.5h4v13c-2.558 3.938-5.058 3.938-7.5 0a25.249 25.249 0 0 1 0-10c.422-1.926 1.59-2.926 3.5-3z"/><path style="opacity:1" fill="#e79a6b" d="M84.5 78.5c1.419-.951 3.085-1.284 5-1 .32 4.863-.014 9.53-1 14v-13h-4z"/><path style="opacity:1" fill="#fcf1eb" d="M213.5 77.5c3.571-.092 4.738 1.574 3.5 5a14.827 14.827 0 0 1-6.5 2c-.35-2.953.65-5.287 3-7zM237.5 77.5c3.571-.092 4.738 1.574 3.5 5a14.827 14.827 0 0 1-6.5 2c-.35-2.953.65-5.287 3-7z"/><path style="opacity:1" fill="#de7638" d="M319.5 82.5c2.852-.148 4.519 1.186 5 4-1.161 4.222-3.328 4.888-6.5 2-.743-2.374-.243-4.374 1.5-6z"/></svg>