<?xml version="1.0" encoding="UTF-8"?>
<!DOCTYPE svg PUBLIC "-//W3C//DTD SVG 1.1//EN" "http://www.w3.org/Graphics/SVG/1.1/DTD/svg11.dtd">
<svg xmlns="http://www.w3.org/2000/svg" version="1.1" width="270px" height="235px" style="shape-rendering:geometricPrecision; text-rendering:geometricPrecision; image-rendering:optimizeQuality; fill-rule:evenodd; clip-rule:evenodd" xmlns:xlink="http://www.w3.org/1999/xlink">
<g><path style="opacity:1" fill="#fdfdfd" d="M -0.5,-0.5 C 28.1667,-0.5 56.8333,-0.5 85.5,-0.5C 85.2172,0.28913 84.7172,0.955796 84,1.5C 83.5005,7.49076 83.3338,13.4908 83.5,19.5C 76.1591,19.3337 68.8258,19.5003 61.5,20C 60,21.5 58.5,23 57,24.5C 56.5,45.4974 56.3334,66.4974 56.5,87.5C 53.271,89.9416 50.271,92.6082 47.5,95.5C 44.8127,95.3359 42.146,95.5026 39.5,96C 37.393,97.2635 36.393,99.0968 36.5,101.5C 33.7294,101.579 31.0627,101.079 28.5,100C 21.9053,95.4093 15.9053,90.076 10.5,84C 7.09011,81.6284 3.42344,79.7951 -0.5,78.5C -0.5,52.1667 -0.5,25.8333 -0.5,-0.5 Z"/></g>
<g><path style="opacity:1" fill="#fdfdfd" d="M 179.5,-0.5 C 209.5,-0.5 239.5,-0.5 269.5,-0.5C 269.5,33.5 269.5,67.5 269.5,101.5C 266.206,101.741 263.206,100.908 260.5,99C 254.5,93.6667 248.5,88.3333 242.5,83C 234.381,77.4744 226.048,77.141 217.5,82C 214,84.6686 210.667,87.502 207.5,90.5C 207.667,68.4975 207.5,46.4975 207,24.5C 205.482,22.652 203.649,21.152 201.5,20C 194.508,19.5004 187.508,19.3337 180.5,19.5C 180.793,12.7446 180.46,6.07794 179.5,-0.5 Z"/></g>
<g><path style="opacity:1" fill="#363939" d="M 85.5,-0.5 C 92.1667,-0.5 98.8333,-0.5 105.5,-0.5C 106.46,6.07794 106.793,12.7446 106.5,19.5C 111.167,19.5 115.833,19.5 120.5,19.5C 119.934,12.5491 120.601,5.88241 122.5,-0.5C 129.167,-0.5 135.833,-0.5 142.5,-0.5C 143.423,6.10897 143.756,12.7756 143.5,19.5C 148.167,19.5 152.833,19.5 157.5,19.5C 157.207,12.7446 157.54,6.07794 158.5,-0.5C 165.5,-0.5 172.5,-0.5 179.5,-0.5C 180.46,6.07794 180.793,12.7446 180.5,19.5C 187.508,19.3337 194.508,19.5004 201.5,20C 203.649,21.152 205.482,22.652 207,24.5C 207.5,46.4975 207.667,68.4975 207.5,90.5C 207.077,92.7812 207.744,94.4479 209.5,95.5C 214.511,95.3341 219.511,95.5007 224.5,96C 225.667,96.5 226.5,97.3333 227,98.5C 227.5,111.162 227.667,123.829 227.5,136.5C 227.5,137.833 227.5,139.167 227.5,140.5C 227.5,143.167 227.5,145.833 227.5,148.5C 227.5,149.833 227.5,151.167 227.5,152.5C 227.548,155.292 226.215,157.125 223.5,158C 219.514,158.499 215.514,158.666 211.5,158.5C 210.167,158.5 208.833,158.5 207.5,158.5C 207.5,164.167 207.5,169.833 207.5,175.5C 207.667,193.503 207.5,211.503 207,229.5C 205.195,231.826 203.028,233.492 200.5,234.5C 154.167,234.5 107.833,234.5 61.5,234.5C 60.2073,232.704 58.7073,231.037 57,229.5C 56.5,209.169 56.3334,188.836 56.5,168.5C 56.5,165.167 56.5,161.833 56.5,158.5C 54.8333,158.5 53.1667,158.5 51.5,158.5C 47.4862,158.666 43.4862,158.499 39.5,158C 38.6667,157.167 37.8333,156.333 37,155.5C 36.5001,142.838 36.3334,130.171 36.5,117.5C 36.5,116.167 36.5,114.833 36.5,113.5C 36.5,110.833 36.5,108.167 36.5,105.5C 36.5,104.167 36.5,102.833 36.5,101.5C 36.393,99.0968 37.393,97.2635 39.5,96C 42.146,95.5026 44.8127,95.3359 47.5,95.5C 50.5,95.5 53.5,95.5 56.5,95.5C 56.5,92.8333 56.5,90.1667 56.5,87.5C 56.3334,66.4974 56.5,45.4974 57,24.5C 58.5,23 60,21.5 61.5,20C 68.8258,19.5003 76.1591,19.3337 83.5,19.5C 83.3338,13.4908 83.5005,7.49076 84,1.5C 84.7172,0.955796 85.2172,0.28913 85.5,-0.5 Z"/></g>
<g><path style="opacity:1" fill="#f6f6f6" d="M 142.5,-0.5 C 147.833,-0.5 153.167,-0.5 158.5,-0.5C 157.54,6.07794 157.207,12.7446 157.5,19.5C 152.833,19.5 148.167,19.5 143.5,19.5C 143.756,12.7756 143.423,6.10897 142.5,-0.5 Z"/></g>
<g><path style="opacity:1" fill="#f7f7f7" d="M 105.5,-0.5 C 111.167,-0.5 116.833,-0.5 122.5,-0.5C 120.601,5.88241 119.934,12.5491 120.5,19.5C 115.833,19.5 111.167,19.5 106.5,19.5C 106.793,12.7446 106.46,6.07794 105.5,-0.5 Z"/></g>
<g><path style="opacity:1" fill="#cbcccb" d="M 87.5,4.5 C 92.5,4.5 97.5,4.5 102.5,4.5C 102.5,9.5 102.5,14.5 102.5,19.5C 97.5,19.5 92.5,19.5 87.5,19.5C 87.5,14.5 87.5,9.5 87.5,4.5 Z"/></g>
<g><path style="opacity:1" fill="#cbcccb" d="M 124.5,4.5 C 129.5,4.5 134.5,4.5 139.5,4.5C 139.5,9.5 139.5,14.5 139.5,19.5C 134.5,19.5 129.5,19.5 124.5,19.5C 124.5,14.5 124.5,9.5 124.5,4.5 Z"/></g>
<g><path style="opacity:1" fill="#cbcccb" d="M 161.5,4.5 C 166.5,4.5 171.5,4.5 176.5,4.5C 176.5,9.5 176.5,14.5 176.5,19.5C 171.5,19.5 166.5,19.5 161.5,19.5C 161.5,14.5 161.5,9.5 161.5,4.5 Z"/></g>
<g><path style="opacity:1" fill="#02cbc8" d="M 63.5,23.5 C 109.168,23.3333 154.835,23.5 200.5,24C 201.308,24.3076 201.975,24.8076 202.5,25.5C 203.663,92.7928 203.83,160.126 203,227.5C 202.167,228.333 201.333,229.167 200.5,230C 154.833,230.667 109.167,230.667 63.5,230C 62.6919,229.692 62.0253,229.192 61.5,228.5C 60.3369,161.207 60.1703,93.8739 61,26.5C 61.6979,25.3094 62.5313,24.3094 63.5,23.5 Z"/></g>
<g><path style="opacity:1" fill="#226867" d="M 114.5,47.5 C 109.167,47.5 103.833,47.5 98.5,47.5C 98.8287,60.3443 98.4954,73.011 97.5,85.5C 97.5,72.5 97.5,59.5 97.5,46.5C 103.358,46.1778 109.025,46.5111 114.5,47.5 Z"/></g>
<g><path style="opacity:1" fill="#363a36" d="M 97.5,85.5 C 98.4954,73.011 98.8287,60.3443 98.5,47.5C 103.833,47.5 109.167,47.5 114.5,47.5C 114.697,54.0322 118.031,57.0322 124.5,56.5C 124.5,66.1667 124.5,75.8333 124.5,85.5C 130.5,85.5 136.5,85.5 142.5,85.5C 142.5,72.5 142.5,59.5 142.5,46.5C 148.167,46.5 153.833,46.5 159.5,46.5C 159.216,53.5495 162.549,56.8828 169.5,56.5C 169.5,70.1667 169.5,83.8333 169.5,97.5C 138.167,97.5 106.833,97.5 75.5,97.5C 75.5,93.5 75.5,89.5 75.5,85.5C 82.8333,85.5 90.1667,85.5 97.5,85.5 Z"/></g>
<g><path style="opacity:1" fill="#979719" d="M 110.5,51.5 C 107.833,51.5 105.167,51.5 102.5,51.5C 102.829,64.3443 102.495,77.011 101.5,89.5C 101.5,76.5 101.5,63.5 101.5,50.5C 104.713,50.19 107.713,50.5233 110.5,51.5 Z"/></g>
<g><path style="opacity:1" fill="#f9f902" d="M 110.5,51.5 C 112.09,55.7575 115.09,58.7575 119.5,60.5C 120.498,70.1437 120.832,79.8104 120.5,89.5C 129.167,89.5 137.833,89.5 146.5,89.5C 147.495,77.011 147.829,64.3443 147.5,51.5C 150.167,51.5 152.833,51.5 155.5,51.5C 156.688,55.6945 159.354,58.6945 163.5,60.5C 164.499,71.4798 164.832,82.4798 164.5,93.5C 136.167,93.5 107.833,93.5 79.5,93.5C 79.5,92.1667 79.5,90.8333 79.5,89.5C 86.8333,89.5 94.1667,89.5 101.5,89.5C 102.495,77.011 102.829,64.3443 102.5,51.5C 105.167,51.5 107.833,51.5 110.5,51.5 Z"/></g>
<g><path style="opacity:1" fill="#c3c310" d="M 155.5,51.5 C 152.833,51.5 150.167,51.5 147.5,51.5C 147.829,64.3443 147.495,77.011 146.5,89.5C 146.5,76.5 146.5,63.5 146.5,50.5C 149.713,50.19 152.713,50.5233 155.5,51.5 Z"/></g>
<g><path style="opacity:1" fill="#237bc0" d="M 269.5,101.5 C 269.5,102.833 269.5,104.167 269.5,105.5C 259.225,104.525 251.225,99.6919 245.5,91C 241.411,87.9053 237.077,85.2386 232.5,83C 226.033,82.3857 220.366,84.3857 215.5,89C 213.294,91.0367 211.294,93.2034 209.5,95.5C 207.744,94.4479 207.077,92.7812 207.5,90.5C 210.667,87.502 214,84.6686 217.5,82C 226.048,77.141 234.381,77.4744 242.5,83C 248.5,88.3333 254.5,93.6667 260.5,99C 263.206,100.908 266.206,101.741 269.5,101.5 Z"/></g>
<g><path style="opacity:1" fill="#257cc2" d="M -0.5,78.5 C 3.42344,79.7951 7.09011,81.6284 10.5,84C 15.9053,90.076 21.9053,95.4093 28.5,100C 31.0627,101.079 33.7294,101.579 36.5,101.5C 36.5,102.833 36.5,104.167 36.5,105.5C 31.7132,106.03 27.3798,104.863 23.5,102C 16.8448,95.6842 9.84477,89.6842 2.5,84C 1.55198,83.5172 0.551975,83.3505 -0.5,83.5C -0.5,81.8333 -0.5,80.1667 -0.5,78.5 Z"/></g>
<g><path style="opacity:1" fill="#fefefe" d="M 269.5,105.5 C 269.5,115.833 269.5,126.167 269.5,136.5C 255.5,136.5 241.5,136.5 227.5,136.5C 227.667,123.829 227.5,111.162 227,98.5C 226.5,97.3333 225.667,96.5 224.5,96C 219.511,95.5007 214.511,95.3341 209.5,95.5C 211.294,93.2034 213.294,91.0367 215.5,89C 220.366,84.3857 226.033,82.3857 232.5,83C 237.077,85.2386 241.411,87.9053 245.5,91C 251.225,99.6919 259.225,104.525 269.5,105.5 Z"/></g>
<g><path style="opacity:1" fill="#fdfaf9" d="M -0.5,83.5 C 0.551975,83.3505 1.55198,83.5172 2.5,84C 9.84477,89.6842 16.8448,95.6842 23.5,102C 27.3798,104.863 31.7132,106.03 36.5,105.5C 36.5,108.167 36.5,110.833 36.5,113.5C 24.1667,113.5 11.8333,113.5 -0.5,113.5C -0.5,103.5 -0.5,93.5 -0.5,83.5 Z"/></g>
<g><path style="opacity:1" fill="#3e7db9" d="M 56.5,87.5 C 56.5,90.1667 56.5,92.8333 56.5,95.5C 53.5,95.5 50.5,95.5 47.5,95.5C 50.271,92.6082 53.271,89.9416 56.5,87.5 Z"/></g>
<g><path style="opacity:1" fill="#b93212" d="M 55.5,153.5 C 50.6946,154.487 45.6946,154.821 40.5,154.5C 40.5,136.167 40.5,117.833 40.5,99.5C 45.8333,99.5 51.1667,99.5 56.5,99.5C 56.8301,117.674 56.4968,135.674 55.5,153.5 Z"/></g>
<g><path style="opacity:1" fill="#fe3200" d="M 55.5,153.5 C 50.8333,153.5 46.1667,153.5 41.5,153.5C 41.5,135.833 41.5,118.167 41.5,100.5C 46.1667,100.5 50.8333,100.5 55.5,100.5C 55.5,118.167 55.5,135.833 55.5,153.5 Z"/></g>
<g><path style="opacity:1" fill="#9c3218" d="M 208.5,99.5 C 208.5,99.8333 208.5,100.167 208.5,100.5C 208.5,118.167 208.5,135.833 208.5,153.5C 213.167,153.5 217.833,153.5 222.5,153.5C 222.833,153.5 223.167,153.5 223.5,153.5C 218.36,154.488 213.026,154.821 207.5,154.5C 207.17,135.992 207.503,117.659 208.5,99.5 Z"/></g>
<g><path style="opacity:1" fill="#fe3200" d="M 208.5,100.5 C 213.167,100.5 217.833,100.5 222.5,100.5C 222.5,118.167 222.5,135.833 222.5,153.5C 217.833,153.5 213.167,153.5 208.5,153.5C 208.5,135.833 208.5,118.167 208.5,100.5 Z"/></g>
<g><path style="opacity:1" fill="#cb320d" d="M 208.5,100.5 C 208.5,100.167 208.5,99.8333 208.5,99.5C 213.5,99.5 218.5,99.5 223.5,99.5C 223.5,117.5 223.5,135.5 223.5,153.5C 223.167,153.5 222.833,153.5 222.5,153.5C 222.5,135.833 222.5,118.167 222.5,100.5C 217.833,100.5 213.167,100.5 208.5,100.5 Z"/></g>
<g><path style="opacity:1" fill="#da571f" d="M -0.5,113.5 C 11.8333,113.5 24.1667,113.5 36.5,113.5C 36.5,114.833 36.5,116.167 36.5,117.5C 24.1667,117.5 11.8333,117.5 -0.5,117.5C -0.5,116.167 -0.5,114.833 -0.5,113.5 Z"/></g>
<g><path style="opacity:1" fill="#363638" d="M 167.5,121.5 C 168.492,128.648 168.825,135.981 168.5,143.5C 164.882,149.807 159.549,152.64 152.5,152C 147.199,147.7 142.199,143.034 137.5,138C 134.833,136 132.167,136 129.5,138C 125.5,142 121.5,146 117.5,150C 113.273,153.105 108.939,153.105 104.5,150C 99.9132,144.741 94.7465,140.241 89,136.5C 83.4548,138.71 79.1214,142.377 76,147.5C 75.8158,139.921 75.3158,132.421 74.5,125C 78.0318,119.794 82.8651,116.627 89,115.5C 90.9674,115.542 92.8008,116.042 94.5,117C 97.9189,120.35 101.252,123.684 104.5,127C 107.641,130.628 111.308,131.295 115.5,129C 119.866,124.299 124.533,119.966 129.5,116C 133.452,115.088 137.119,115.755 140.5,118C 144.473,121.973 148.473,125.973 152.5,130C 155.303,130.755 157.97,130.422 160.5,129C 163.067,126.604 165.4,124.104 167.5,121.5 Z"/></g>
<g><path style="opacity:1" fill="#fefefd" d="M -0.5,117.5 C 11.8333,117.5 24.1667,117.5 36.5,117.5C 36.3334,130.171 36.5001,142.838 37,155.5C 37.8333,156.333 38.6667,157.167 39.5,158C 43.4862,158.499 47.4862,158.666 51.5,158.5C 51.5,162.833 51.5,167.167 51.5,171.5C 40.1667,171.5 28.8333,171.5 17.5,171.5C 17.5359,164.132 17.0359,156.799 16,149.5C 10.5934,148.527 5.09345,148.193 -0.5,148.5C -0.5,138.167 -0.5,127.833 -0.5,117.5 Z"/></g>
<g><path style="opacity:1" fill="#d762f7" d="M 163.5,131.5 C 164.482,134.962 164.815,138.629 164.5,142.5C 162.704,143.793 161.037,145.293 159.5,147C 157.635,148.301 155.635,148.635 153.5,148C 149.64,144.561 145.973,140.895 142.5,137C 137.032,131.63 131.365,131.296 125.5,136C 122.266,139.145 119.266,142.478 116.5,146C 112.218,149.48 108.218,149.146 104.5,145C 101.5,140.667 97.8333,137 93.5,134C 88.0271,131.362 83.5271,132.528 80,137.5C 77.0234,128.469 79.8568,122.469 88.5,119.5C 90.299,119.577 91.9656,120.077 93.5,121C 97.8658,125.701 102.533,130.034 107.5,134C 111.452,134.912 115.119,134.245 118.5,132C 122.5,128 126.5,124 130.5,120C 133.88,119.062 136.88,119.729 139.5,122C 142.88,127.047 147.214,131.047 152.5,134C 156.655,135.054 160.322,134.22 163.5,131.5 Z"/></g>
<g><path style="opacity:1" fill="#216c6b" d="M 168.5,143.5 C 168.825,135.981 168.492,128.648 167.5,121.5C 167.783,120.711 168.283,120.044 169,119.5C 169.823,127.677 169.656,135.677 168.5,143.5 Z"/></g>
<g><path style="opacity:1" fill="#71447d" d="M 163.5,131.5 C 163.56,130.957 163.893,130.624 164.5,130.5C 165.809,134.649 165.809,138.649 164.5,142.5C 164.815,138.629 164.482,134.962 163.5,131.5 Z"/></g>
<g><path style="opacity:1" fill="#da571f" d="M 227.5,136.5 C 241.5,136.5 255.5,136.5 269.5,136.5C 269.5,137.833 269.5,139.167 269.5,140.5C 255.5,140.5 241.5,140.5 227.5,140.5C 227.5,139.167 227.5,137.833 227.5,136.5 Z"/></g>
<g><path style="opacity:1" fill="#fefbf9" d="M 227.5,140.5 C 241.5,140.5 255.5,140.5 269.5,140.5C 269.5,150.833 269.5,161.167 269.5,171.5C 263.5,171.5 257.5,171.5 251.5,171.5C 251.082,164.15 250.415,156.816 249.5,149.5C 242.224,148.535 234.891,148.201 227.5,148.5C 227.5,145.833 227.5,143.167 227.5,140.5 Z"/></g>
<g><path style="opacity:1" fill="#ebb22e" d="M -0.5,148.5 C 5.09345,148.193 10.5934,148.527 16,149.5C 17.0359,156.799 17.5359,164.132 17.5,171.5C 28.8333,171.5 40.1667,171.5 51.5,171.5C 51.5,167.167 51.5,162.833 51.5,158.5C 53.1667,158.5 54.8333,158.5 56.5,158.5C 56.5,161.833 56.5,165.167 56.5,168.5C 55.7839,170.556 55.1172,172.723 54.5,175C 41.1667,175.667 27.8333,175.667 14.5,175C 13.6072,167.569 12.9405,160.069 12.5,152.5C 8.16667,152.5 3.83333,152.5 -0.5,152.5C -0.5,151.167 -0.5,149.833 -0.5,148.5 Z"/></g>
<g><path style="opacity:1" fill="#edb329" d="M 227.5,148.5 C 234.891,148.201 242.224,148.535 249.5,149.5C 250.415,156.816 251.082,164.15 251.5,171.5C 257.5,171.5 263.5,171.5 269.5,171.5C 269.5,172.833 269.5,174.167 269.5,175.5C 262.492,175.666 255.492,175.5 248.5,175C 246.996,167.622 246.329,160.122 246.5,152.5C 240.167,152.5 233.833,152.5 227.5,152.5C 227.5,151.167 227.5,149.833 227.5,148.5 Z"/></g>
<g><path style="opacity:1" fill="#fdfcfc" d="M -0.5,152.5 C 3.83333,152.5 8.16667,152.5 12.5,152.5C 12.9405,160.069 13.6072,167.569 14.5,175C 27.8333,175.667 41.1667,175.667 54.5,175C 55.1172,172.723 55.7839,170.556 56.5,168.5C 56.3334,188.836 56.5,209.169 57,229.5C 58.7073,231.037 60.2073,232.704 61.5,234.5C 40.8333,234.5 20.1667,234.5 -0.5,234.5C -0.5,207.167 -0.5,179.833 -0.5,152.5 Z"/></g>
<g><path style="opacity:1" fill="#fdfdfc" d="M 227.5,152.5 C 233.833,152.5 240.167,152.5 246.5,152.5C 246.329,160.122 246.996,167.622 248.5,175C 255.492,175.5 262.492,175.666 269.5,175.5C 269.5,195.167 269.5,214.833 269.5,234.5C 246.5,234.5 223.5,234.5 200.5,234.5C 203.028,233.492 205.195,231.826 207,229.5C 207.5,211.503 207.667,193.503 207.5,175.5C 208.822,175.67 209.989,175.337 211,174.5C 211.499,169.177 211.666,163.844 211.5,158.5C 215.514,158.666 219.514,158.499 223.5,158C 226.215,157.125 227.548,155.292 227.5,152.5 Z"/></g>
<g><path style="opacity:1" fill="#daa52a" d="M 211.5,158.5 C 211.666,163.844 211.499,169.177 211,174.5C 209.989,175.337 208.822,175.67 207.5,175.5C 207.5,169.833 207.5,164.167 207.5,158.5C 208.833,158.5 210.167,158.5 211.5,158.5 Z"/></g>
</svg>
