<svg xmlns="http://www.w3.org/2000/svg" width="1024" height="1024" style="shape-rendering:geometricPrecision;text-rendering:geometricPrecision;image-rendering:optimizeQuality;fill-rule:evenodd;clip-rule:evenodd"><path style="opacity:.139" d="M52.5-.5h918c17.755 9.583 32.59 22.583 44.5 39a143.51 143.51 0 0 0 8.5 14v918c-8.72 16.239-20.39 30.07-35 41.5a286.508 286.508 0 0 1-18 11.5h-918c-17.755-9.58-32.588-22.58-44.5-39a143.327 143.327 0 0 0-8.5-14v-918C9.083 34.745 22.083 19.912 38.5 8a143.291 143.291 0 0 0 14-8.5z"/><path style="opacity:1" fill="#323232" d="M293.5 63.5c-28.072 21.451-44.906 49.785-50.5 85a1644.787 1644.787 0 0 0-5 50 290.07 290.07 0 0 0-14.5 3.5 87.594 87.594 0 0 1-6 15.5c-50.753 17.587-80.253 52.92-88.5 106-5.502 54.48 13.998 97.313 58.5 128.5 15.776 9.37 32.776 15.37 51 18 21.68 1.6 43.347 3.267 65 5a158.612 158.612 0 0 1 35 14l39.5 23.5a351.336 351.336 0 0 0 3.5 17 226.624 226.624 0 0 0 17 11c21.741 55.202 62.408 84.369 122 87.5 28.945-2.457 55.945 3.543 81 18a975.209 975.209 0 0 1 36 21.5 61.633 61.633 0 0 1 .5 16 82.8 82.8 0 0 1 12.5 8.5 99.456 99.456 0 0 1-11.5 31.5 229.684 229.684 0 0 0-17.5 4l-10 16a228.942 228.942 0 0 0-48 23.5c-23.738 13.105-49.071 17.605-76 13.5a148.89 148.89 0 0 0-9-11.5l-22-1a164.714 164.714 0 0 0-20-14l-38-20c-16.859-10.552-27.026-25.719-30.5-45.5a1773.672 1773.672 0 0 0-5-53c-9.461-52.792-39.627-87.626-90.5-104.5-54.316-13.719-100.483-.219-138.5 40.5-27.56 36.672-35.56 77.339-24 122 10.153 32.817 29.987 57.984 59.5 75.5a698.929 698.929 0 0 1 44 24c13.153 10.795 21.32 24.628 24.5 41.5a1773.672 1773.672 0 0 0 5 53c4.15 27.965 15.983 51.965 35.5 72a4766.866 4766.866 0 0 1-167-1.5c-22.433-6.955-37.6-21.455-45.5-43.5a108.273 108.273 0 0 1-2-9c-.667-262.667-.667-525.333 0-788C67.418 97.759 77.585 82.592 94.5 72a66.957 66.957 0 0 1 17-7 5648.892 5648.892 0 0 1 182-1.5z"/><path style="opacity:1" fill="#2e2e2e" d="M293.5 63.5h436c39.43 31.76 56.097 72.927 50 123.5a83.738 83.738 0 0 0 13 11.5 397.832 397.832 0 0 1-4 13.5 409.226 409.226 0 0 1 46 29c38.368 35.442 52.535 78.942 42.5 130.5-10.806 44.139-37.306 74.639-79.5 91.5-47.429 15.594-91.096 8.594-131-21-29.638-26.785-45.138-60.285-46.5-100.5a544.417 544.417 0 0 1-.5-33l-14-3a58.406 58.406 0 0 0-4-16.5 959.678 959.678 0 0 1-52-27c-20.095-7.194-40.761-9.36-62-6.5a148.89 148.89 0 0 1-9 11.5l-22 1c-16.727 12.369-34.727 22.703-54 31l-2 2a63.726 63.726 0 0 0 9 10 57.668 57.668 0 0 0-12 8 90.479 90.479 0 0 0 17 15 977.854 977.854 0 0 0 51 30.5 139.836 139.836 0 0 1 15.5-5 580.035 580.035 0 0 1 20.5 10c47.987-6.396 88.154 8.27 120.5 44a238.932 238.932 0 0 1 12 17 1112.566 1112.566 0 0 0 22 39 125.172 125.172 0 0 0 23.5 22.5 1688.143 1688.143 0 0 0 47 29c6.374-.454 12.541-1.954 18.5-4.5 6.343 3.683 12.677 7.35 19 11 60.789-6.94 106.122 16.06 136 69 18 39.333 18 78.667 0 118-11.634 22.302-28.134 40.135-49.5 53.5a449.095 449.095 0 0 0-43 24 119.812 119.812 0 0 0-22 23 74.373 74.373 0 0 1 5 16 146.394 146.394 0 0 1-11 18c5.683 42.447-5.984 79.28-35 110.5h-50c26.877-13.725 45.044-35.059 54.5-64a22.755 22.755 0 0 0 4-5 153.159 153.159 0 0 0 3-29c2.759-4.642 2.926-9.475.5-14.5l4-5c-2.942-4.645-2.608-8.978 1-13-2.72-3.878-2.386-7.544 1-11l-2-3a89.809 89.809 0 0 0 5-7.5c-1.14-1.578-1.64-3.244-1.5-5l9.5-13c-.928-1.268-1.095-2.601-.5-4a180.42 180.42 0 0 1 16.5-15.5 590.657 590.657 0 0 1 40-23c47.292-29.522 63.792-71.355 49.5-125.5-12.259-32.593-35.092-53.76-68.5-63.5a22.755 22.755 0 0 0-5-4 151.528 151.528 0 0 0-30-3 10.016 10.016 0 0 0-4.5-2.5l-9 2c-4.046-3.59-8.379-3.923-13-1a25.254 25.254 0 0 0-6-3l-5 2a43.286 43.286 0 0 0-5.5-3 18.08 18.08 0 0 0-3.5 2 49.274 49.274 0 0 0-8-5 18.08 18.08 0 0 1-3.5 2 169.27 169.27 0 0 1-15-9c-2.648 2.3-5.315 2.133-8-.5a1074.63 1074.63 0 0 1-37-24 254.751 254.751 0 0 1-19.5-18.5 2511.576 2511.576 0 0 1-36-57c-14.075-17.393-31.908-29.226-53.5-35.5a31.317 31.317 0 0 0-8-5 295.955 295.955 0 0 0-28-2 15.645 15.645 0 0 1-4-2.5c-5.469 2.688-10.635 2.354-15.5-1-4.481 2.999-8.647 2.666-12.5-1-3.635 2.514-7.302 2.514-11 0a27.395 27.395 0 0 0-3.5 1l-8-4c-1.789.909-3.623 1.076-5.5.5a267.365 267.365 0 0 0-13.5-7.5c-1.261.259-2.261.926-3 2a528.153 528.153 0 0 1-48.5-31.5l-8.5-8.5c-.492-1.049-.326-2.049.5-3l-7.5-9c1.261-4.217.094-7.717-3.5-10.5a14.972 14.972 0 0 0 3-3.5 18.924 18.924 0 0 1-3-5l3-4a18.08 18.08 0 0 0-2-3.5l4-4a7.248 7.248 0 0 1-2-2.5 15.855 15.855 0 0 1 6-5.5l-2-3a208.709 208.709 0 0 1 11.5-7.5c.684-1.284.517-2.451-.5-3.5a256.871 256.871 0 0 1 19-10c1.735-.651 3.402-.485 5 .5a115.38 115.38 0 0 0 19-11.5c5.709-.281 10.375-2.614 14-7l7-1 5-5c4.587.567 7.921-1.099 10-5 5.685-2.045 11.685-3.545 18-4.5 25.875-8.512 51.875-7.345 78 3.5a313.169 313.169 0 0 1 21 11 24.91 24.91 0 0 1 5 6.5l18 9c2.232 4.46 5.898 6.96 11 7.5l3 5c2.72.797 5.22 1.963 7.5 3.5a8.43 8.43 0 0 1 .5 4c4.517-.48 6.85 1.52 7 6h4l1 8h4c.664 4.973.997 9.973 1 15h3a370.193 370.193 0 0 0 3.5 50c10.612 42.945 37.445 69.445 80.5 79.5 44.91 6.119 80.077-9.381 105.5-46.5 21.032-39.585 19.032-77.919-6-115-14.297-16.899-31.463-30.066-51.5-39.5-1.333-1.333-1.333-2.667 0-4a137.896 137.896 0 0 1-13-9c1.247-1.494 1.247-2.994 0-4.5-3.459-1.415-4.459-3.749-3-7a25.513 25.513 0 0 0-4-4.5c2.488-3.448 1.822-6.448-2-9a18.099 18.099 0 0 0 2-5.5 58.095 58.095 0 0 1-3-6.5 98.623 98.623 0 0 1 2-8 20.499 20.499 0 0 0-2.5-3.5c-.214-9.704-.88-19.37-2-29a22.755 22.755 0 0 0-4-5c-15.025-48.689-48.025-74.355-99-77-15.511-.031-30.344 3.135-44.5 9.5a887.513 887.513 0 0 1-50 26c-23.874 8.301-47.874 9.468-72 3.5l-1-2c-6.315-.955-12.315-2.455-18-4.5-2.079-3.9-5.413-5.567-10-5l-5-5c-4.696.484-8.363-1.183-11-5a25.789 25.789 0 0 0-8-2 104.895 104.895 0 0 0-21-11 316.422 316.422 0 0 0-39-4.5c-44.664 2.07-76.164 23.403-94.5 64a124.177 124.177 0 0 0-5 17 446.023 446.023 0 0 0-5.5 50c-1.322-.17-2.489.163-3.5 1a130.883 130.883 0 0 1-2 12c-1.356.88-2.856 1.214-4.5 1 .171 4.538-1.829 7.538-6 9a18.08 18.08 0 0 1-2 3.5c-3.926.393-6.593 2.393-8 6-4.795.079-8.128 2.245-10 6.5-5.441.401-9.441 2.901-12 7.5-8.699 3.096-16.532 7.596-23.5 13.5-3.528 5.54-7.861 10.54-13 15-29.818 37.86-33.484 78.194-11 121 18.603 28.735 45.103 44.902 79.5 48.5a903.465 903.465 0 0 1 59 4c15.557 3.777 30.223 9.777 44 18l24 14a15.096 15.096 0 0 0 3 6 234.997 234.997 0 0 1 12.5 7.5v4c4.421 1.585 7.254 4.585 8.5 9 3.86 1.715 5.694 4.715 5.5 9a32.367 32.367 0 0 1 4.5 3c.082 5.178 2.416 8.844 7 11 .847 5.71 3.681 10.043 8.5 13a150.866 150.866 0 0 0 12 20 312.333 312.333 0 0 1 23.5 18.5c15.346 10.672 32.346 17.006 51 19a966.827 966.827 0 0 1 56 4 131.94 131.94 0 0 1 40 15l29 17a15.096 15.096 0 0 1 3 6 234.997 234.997 0 0 1 12.5 7.5c.23 4.208 2.397 6.874 6.5 8 .253 3.233 1.753 5.566 4.5 7l1 6a13.92 13.92 0 0 1 4 3c2.073 5.319 3.407 10.986 4 17a11.38 11.38 0 0 1 2.5 2 133.244 133.244 0 0 1-3 13.5c1.41.368 2.41 1.201 3 2.5a229.998 229.998 0 0 1-6 16 54.628 54.628 0 0 1-4.5 2l-6.5 13a14.72 14.72 0 0 1-5 1.5c-1.141 4.145-3.808 6.478-8 7a13.92 13.92 0 0 0-3 4c-4.382.032-7.382 2.032-9 6l-8 2c-2.978 4.681-7.311 7.347-13 8a13.92 13.92 0 0 1-3 4l-20 10a10.94 10.94 0 0 0-3 4.5c-32.317 22.939-66.984 28.939-104 18-6.315-.955-12.315-2.455-18-4.5-2.079-3.901-5.413-5.567-10-5l-5-5c-4.696.484-8.363-1.183-11-5a25.777 25.777 0 0 0-8-2 165.59 165.59 0 0 0-21-12.5c-3.974 1.04-7.641.207-11-2.5-20.195-9.2-36.361-23.033-48.5-41.5a101.281 101.281 0 0 1-11-32 8307.864 8307.864 0 0 1-4-47c-9.961-57.132-43.795-87.799-101.5-92-47.498 2.348-79.665 25.681-96.5 70-12.402 51.486 3.432 91.652 47.5 120.5a774.989 774.989 0 0 1 46 26c17.616 13.72 28.783 31.553 33.5 53.5a956.91 956.91 0 0 1 5 52c5.286 37.976 24.786 65.643 58.5 83h-50c-19.517-20.035-31.35-44.035-35.5-72a1773.672 1773.672 0 0 1-5-53c-3.18-16.872-11.347-30.705-24.5-41.5a698.929 698.929 0 0 0-44-24c-29.513-17.516-49.347-42.683-59.5-75.5-11.56-44.661-3.56-85.328 24-122 38.017-40.719 84.184-54.219 138.5-40.5 50.873 16.874 81.039 51.708 90.5 104.5a1773.672 1773.672 0 0 1 5 53c3.474 19.781 13.641 34.948 30.5 45.5l38 20a164.714 164.714 0 0 1 20 14l22 1a148.89 148.89 0 0 1 9 11.5c26.929 4.105 52.262-.395 76-13.5a228.942 228.942 0 0 1 48-23.5l10-16a229.684 229.684 0 0 1 17.5-4 99.456 99.456 0 0 0 11.5-31.5 82.8 82.8 0 0 0-12.5-8.5 61.633 61.633 0 0 0-.5-16 975.209 975.209 0 0 0-36-21.5c-25.055-14.457-52.055-20.457-81-18-59.592-3.131-100.259-32.298-122-87.5a226.624 226.624 0 0 1-17-11 351.336 351.336 0 0 1-3.5-17L338.5 489a158.612 158.612 0 0 0-35-14c-21.653-1.733-43.32-3.4-65-5-18.224-2.63-35.224-8.63-51-18-44.502-31.187-64.002-74.02-58.5-128.5 8.247-53.08 37.747-88.413 88.5-106a87.594 87.594 0 0 0 6-15.5 290.07 290.07 0 0 1 14.5-3.5 1644.787 1644.787 0 0 1 5-50c5.594-35.215 22.428-63.549 50.5-85z"/><path style="opacity:1" fill="#323232" d="M729.5 63.5c60.371-.48 120.704.02 181 1.5 20.627 5.628 35.461 18.128 44.5 37.5a63.546 63.546 0 0 1 4 15c.667 262.667.667 525.333 0 788-3.425 19.746-13.592 34.913-30.5 45.5a59.297 59.297 0 0 1-18 7 4690.478 4690.478 0 0 1-166 1.5c29.016-31.22 40.683-68.053 35-110.5a146.394 146.394 0 0 0 11-18 74.373 74.373 0 0 0-5-16 119.812 119.812 0 0 1 22-23 449.095 449.095 0 0 1 43-24c21.366-13.365 37.866-31.198 49.5-53.5 18-39.333 18-78.667 0-118-29.878-52.94-75.211-75.94-136-69a8666.714 8666.714 0 0 1-19-11c-5.959 2.546-12.126 4.046-18.5 4.5a1688.143 1688.143 0 0 1-47-29 125.172 125.172 0 0 1-23.5-22.5 1112.566 1112.566 0 0 1-22-39 238.932 238.932 0 0 0-12-17c-32.346-35.73-72.513-50.396-120.5-44a580.035 580.035 0 0 0-20.5-10 139.836 139.836 0 0 0-15.5 5 977.854 977.854 0 0 1-51-30.5 90.479 90.479 0 0 1-17-15 57.668 57.668 0 0 1 12-8 63.726 63.726 0 0 1-9-10l2-2c19.273-8.297 37.273-18.631 54-31l22-1a148.89 148.89 0 0 0 9-11.5c21.239-2.86 41.905-.694 62 6.5a959.678 959.678 0 0 0 52 27 58.406 58.406 0 0 1 4 16.5l14 3c-.167 11.005 0 22.005.5 33 1.362 40.215 16.862 73.715 46.5 100.5 39.904 29.594 83.571 36.594 131 21 42.194-16.861 68.694-47.361 79.5-91.5 10.035-51.558-4.132-95.058-42.5-130.5a409.226 409.226 0 0 0-46-29 397.832 397.832 0 0 0 4-13.5 83.738 83.738 0 0 1-13-11.5c6.097-50.573-10.57-91.74-50-123.5z"/><path style="opacity:1" fill="#282828" d="M694.5 959.5h-88a593.891 593.891 0 0 0-50-26.5c-23.874-8.301-47.874-9.468-72-3.5l-1 2c-6.315.955-12.315 2.455-18 4.5-2.079 3.901-5.413 5.567-10 5l-5 5c-4.696-.484-8.363 1.183-11 5-6.959.981-12.959 3.814-18 8.5h-93c-33.714-17.357-53.214-45.024-58.5-83a956.91 956.91 0 0 0-5-52c-4.717-21.947-15.884-39.78-33.5-53.5a774.989 774.989 0 0 0-46-26c-44.068-28.848-59.902-69.014-47.5-120.5 16.835-44.319 49.002-67.652 96.5-70 57.705 4.201 91.539 34.868 101.5 92a8307.864 8307.864 0 0 0 4 47 101.281 101.281 0 0 0 11 32c12.139 18.467 28.305 32.3 48.5 41.5 3.359 2.707 7.026 3.54 11 2.5a165.59 165.59 0 0 1 21 12.5c2.789.241 5.456.908 8 2 2.637 3.817 6.304 5.484 11 5l5 5c4.587-.567 7.921 1.099 10 5 5.685 2.045 11.685 3.545 18 4.5 37.016 10.939 71.683 4.939 104-18a10.94 10.94 0 0 1 3-4.5l20-10a13.92 13.92 0 0 0 3-4c5.689-.653 10.022-3.319 13-8l8-2c1.618-3.968 4.618-5.968 9-6a13.92 13.92 0 0 1 3-4c4.192-.522 6.859-2.855 8-7a14.72 14.72 0 0 0 5-1.5l6.5-13a54.628 54.628 0 0 0 4.5-2 229.998 229.998 0 0 0 6-16c-.59-1.299-1.59-2.132-3-2.5a133.244 133.244 0 0 0 3-13.5 11.38 11.38 0 0 0-2.5-2c-.593-6.014-1.927-11.681-4-17a13.92 13.92 0 0 0-4-3l-1-6c-2.747-1.434-4.247-3.767-4.5-7-4.103-1.126-6.27-3.792-6.5-8a234.997 234.997 0 0 0-12.5-7.5 15.096 15.096 0 0 0-3-6l-29-17a131.94 131.94 0 0 0-40-15 966.827 966.827 0 0 0-56-4c-18.654-1.994-35.654-8.328-51-19a312.333 312.333 0 0 0-23.5-18.5 150.866 150.866 0 0 1-12-20c-4.819-2.957-7.653-7.29-8.5-13-4.584-2.156-6.918-5.822-7-11a32.367 32.367 0 0 0-4.5-3c.194-4.285-1.64-7.285-5.5-9-1.246-4.415-4.079-7.415-8.5-9v-4a234.997 234.997 0 0 0-12.5-7.5 15.096 15.096 0 0 1-3-6l-24-14c-13.777-8.223-28.443-14.223-44-18a903.465 903.465 0 0 0-59-4c-34.397-3.598-60.897-19.765-79.5-48.5-22.484-42.806-18.818-83.14 11-121 5.139-4.46 9.472-9.46 13-15 6.968-5.904 14.801-10.404 23.5-13.5 2.559-4.599 6.559-7.099 12-7.5 1.872-4.255 5.205-6.421 10-6.5 1.407-3.607 4.074-5.607 8-6a18.08 18.08 0 0 0 2-3.5c4.171-1.462 6.171-4.462 6-9 1.644.214 3.144-.12 4.5-1a130.883 130.883 0 0 0 2-12c1.011-.837 2.178-1.17 3.5-1a446.023 446.023 0 0 1 5.5-50 124.177 124.177 0 0 1 5-17c18.336-40.597 49.836-61.93 94.5-64a316.422 316.422 0 0 1 39 4.5 104.895 104.895 0 0 1 21 11c2.789.241 5.456.908 8 2 2.637 3.817 6.304 5.484 11 5l5 5c4.587-.567 7.921 1.1 10 5 5.685 2.045 11.685 3.545 18 4.5l1 2c24.126 5.968 48.126 4.801 72-3.5a887.513 887.513 0 0 0 50-26c14.156-6.365 28.989-9.531 44.5-9.5 50.975 2.645 83.975 28.311 99 77a22.755 22.755 0 0 1 4 5 310.054 310.054 0 0 1 2 29 20.499 20.499 0 0 1 2.5 3.5 98.623 98.623 0 0 0-2 8 58.095 58.095 0 0 0 3 6.5 18.099 18.099 0 0 1-2 5.5c3.822 2.552 4.488 5.552 2 9a25.513 25.513 0 0 1 4 4.5c-1.459 3.251-.459 5.585 3 7 1.247 1.506 1.247 3.006 0 4.5a137.896 137.896 0 0 0 13 9c-1.333 1.333-1.333 2.667 0 4 20.037 9.434 37.203 22.601 51.5 39.5 25.032 37.081 27.032 75.415 6 115-25.423 37.119-60.59 52.619-105.5 46.5-43.055-10.055-69.888-36.555-80.5-79.5a370.193 370.193 0 0 1-3.5-50h-3a113.727 113.727 0 0 0-1-15h-4l-1-8h-4c-.15-4.48-2.483-6.48-7-6a8.43 8.43 0 0 0-.5-4 26.813 26.813 0 0 0-7.5-3.5l-3-5c-5.102-.54-8.768-3.04-11-7.5l-18-9a24.91 24.91 0 0 0-5-6.5 313.169 313.169 0 0 0-21-11c-26.125-10.845-52.125-12.012-78-3.5-6.315.955-12.315 2.455-18 4.5-2.079 3.901-5.413 5.567-10 5l-5 5-7 1c-3.625 4.386-8.291 6.719-14 7a115.38 115.38 0 0 1-19 11.5c-1.598-.985-3.265-1.151-5-.5a256.871 256.871 0 0 0-19 10c1.017 1.049 1.184 2.216.5 3.5a208.709 208.709 0 0 0-11.5 7.5l2 3a15.855 15.855 0 0 0-6 5.5 7.248 7.248 0 0 0 2 2.5l-4 4a18.08 18.08 0 0 1 2 3.5l-3 4a18.924 18.924 0 0 0 3 5 14.972 14.972 0 0 1-3 3.5c3.594 2.783 4.761 6.283 3.5 10.5l7.5 9c-.826.951-.992 1.951-.5 3l8.5 8.5a528.153 528.153 0 0 0 48.5 31.5c.739-1.074 1.739-1.741 3-2a267.365 267.365 0 0 1 13.5 7.5c1.877.576 3.711.409 5.5-.5l8 4a27.395 27.395 0 0 1 3.5-1c3.698 2.514 7.365 2.514 11 0 3.853 3.666 8.019 3.999 12.5 1 4.865 3.354 10.031 3.688 15.5 1a15.645 15.645 0 0 0 4 2.5c9.37.224 18.704.891 28 2a31.317 31.317 0 0 1 8 5c21.592 6.274 39.425 18.107 53.5 35.5a2511.576 2511.576 0 0 0 36 57 254.751 254.751 0 0 0 19.5 18.5 1074.63 1074.63 0 0 0 37 24c2.685 2.633 5.352 2.8 8 .5a169.27 169.27 0 0 0 15 9 18.08 18.08 0 0 0 3.5-2 49.274 49.274 0 0 1 8 5 18.08 18.08 0 0 1 3.5-2c1.929.88 3.763 1.88 5.5 3l5-2a25.254 25.254 0 0 1 6 3c4.621-2.923 8.954-2.59 13 1l9-2a10.016 10.016 0 0 1 4.5 2.5 151.528 151.528 0 0 1 30 3 22.755 22.755 0 0 1 5 4c33.408 9.74 56.241 30.907 68.5 63.5 14.292 54.145-2.208 95.978-49.5 125.5a590.657 590.657 0 0 0-40 23 180.42 180.42 0 0 0-16.5 15.5c-.595 1.399-.428 2.732.5 4l-9.5 13c-.14 1.756.36 3.422 1.5 5a89.809 89.809 0 0 1-5 7.5l2 3c-3.386 3.456-3.72 7.122-1 11-3.608 4.022-3.942 8.355-1 13l-4 5c2.426 5.025 2.259 9.858-.5 14.5a153.159 153.159 0 0 1-3 29 22.755 22.755 0 0 1-4 5c-9.456 28.941-27.623 50.275-54.5 64z"/><path style="opacity:1" fill="#222" d="M360.5 81.5c13.905-1.146 27.405.52 40.5 5 1.388-1.054 2.888-1.22 4.5-.5a156.63 156.63 0 0 1 10.5 5.5c1.049-1.017 2.216-1.184 3.5-.5l7 5 13 5c1.342 2.892 3.675 4.225 7 4a87.398 87.398 0 0 0 20 11 161.83 161.83 0 0 0 24 6.5 3.647 3.647 0 0 0 1 1.5c26.623 5.092 52.623 2.092 78-9a878.762 878.762 0 0 1 45-24c29.563-11.946 57.896-9.612 85 7l21.5 17.5c11.116 16.826 18.116 35.159 21 55 .784 3.26.617 6.427-.5 9.5 2.156 2.786 2.49 5.786 1 9 1.297 4.845 1.631 9.678 1 14.5 2.544 2.111 2.544 4.278 0 6.5 2.353 1.255 3.02 2.922 2 5a11.068 11.068 0 0 0 2 3.5c-.928 1.268-1.095 2.601-.5 4 2.459 1.55 3.126 3.55 2 6 2.761.999 4.094 2.999 4 6a18.778 18.778 0 0 0 5.5 4.5l-2 2 11 7c.227 1.135.56 2.302 1 3.5 17.324 8.821 32.824 20.155 46.5 34 20.865 26.19 25.865 55.19 15 87-17.784 38.485-47.951 56.318-90.5 53.5-42.812-8.48-67.646-34.313-74.5-77.5a520.188 520.188 0 0 0-4.5-53h-3c.617-3.995-.549-7.328-3.5-10a8.43 8.43 0 0 1-.5-4c-3.041.094-4.707-1.406-5-4.5a345.978 345.978 0 0 0-20-15.5 123.038 123.038 0 0 1-20-12c-2.935-3.476-6.602-5.976-11-7.5-5.275-4.979-11.275-8.979-18-12-1.912-1.2-3.245-2.867-4-5-27.584-14.158-55.917-17.658-85-10.5a161.83 161.83 0 0 0-24 6.5 87.398 87.398 0 0 0-20 11c-3.325-.225-5.658 1.108-7 4a107.161 107.161 0 0 1-13 5l-6 5a1248.267 1248.267 0 0 1-18 6 545.974 545.974 0 0 1-19.5 10.5c-1.388-1.054-2.888-1.22-4.5-.5l-3 5-10 6a3.943 3.943 0 0 1 1 2 97.179 97.179 0 0 0-9 11.5l1 2-3 4c.431.793.765 1.627 1 2.5a122.28 122.28 0 0 0-3 8.5 7.248 7.248 0 0 0 2 2.5c-2.422 1.888-2.422 3.888 0 6a7.248 7.248 0 0 0-2 2.5 94.164 94.164 0 0 0 3 9 11.456 11.456 0 0 0-1 2.5 43.286 43.286 0 0 1 3 5.5 3.647 3.647 0 0 1-1 1.5c2.539 2.536 3.705 5.37 3.5 8.5a80.623 80.623 0 0 1 8 9c.617.949.451 1.782-.5 2.5a277.15 277.15 0 0 0 56.5 39.5c1.388-1.054 2.888-1.22 4.5-.5a114.34 114.34 0 0 0 11 6.5c3.648-.945 6.815.055 9.5 3 3.093-1.394 5.759-.727 8 2a7.248 7.248 0 0 1 2.5-2 18.924 18.924 0 0 1 5 3c1.811-1.662 3.478-1.828 5-.5 1.735.651 3.402.485 5-.5a11.068 11.068 0 0 0 3.5 2c6.32-.664 12.653-.997 19-1 2.159 2.15 4.659 2.483 7.5 1 23.107 1.193 44.774 7.693 65 19.5 3.888 2.222 6.721 5.388 8.5 9.5a128.578 128.578 0 0 1 13 14 661.681 661.681 0 0 1 25 42c9.083 13.751 20.249 25.584 33.5 35.5a638.203 638.203 0 0 0 36 23c5.622-.038 10.622 1.962 15 6 3.738-.821 7.071.179 10 3 3.387-.995 6.387-.162 9 2.5h11c3.51.896 7.01 1.896 10.5 3 2.222-2.544 4.389-2.544 6.5 0a37.138 37.138 0 0 0 4.5-2c2.209 2.206 4.709 2.54 7.5 1 2.993 1.865 6.16 1.865 9.5 0l1.5 1.5a2052.23 2052.23 0 0 0 29 4l2 2c12.382 3.192 23.715 8.525 34 16a343.007 343.007 0 0 1 19.5 24.5c21.45 41.803 15.283 78.969-18.5 111.5l-14 10a649.065 649.065 0 0 0-42 24 134.173 134.173 0 0 0-20.5 18.5c.984 2.098.651 4.098-1 6a47.129 47.129 0 0 0-6 7c-.72 1.612-.554 3.112.5 4.5-2.99 2.541-4.323 5.541-4 9a43.286 43.286 0 0 0-3 5.5c1.295 2.939.628 5.439-2 7.5l2 3a126.438 126.438 0 0 0-3 10c-.684 9.026-.684 18.193 0 27.5a591.047 591.047 0 0 1-5.5 30 151.643 151.643 0 0 1-18 36c-11.355 10.932-24.188 19.765-38.5 26.5-26.498 8.841-52.164 6.841-77-6a442.497 442.497 0 0 0-43-23c-23.42-8.681-47.087-10.681-71-6a3.647 3.647 0 0 0-1 1.5 161.83 161.83 0 0 0-24 6.5 87.398 87.398 0 0 0-20 11c-3.325-.225-5.658 1.108-7 4-3.421-.121-6.088 1.212-8 4-4.501.917-8.501 2.917-12 6-1.284.684-2.451.517-3.5-.5a156.584 156.584 0 0 1-10.5 5.5c-1.612.72-3.112.554-4.5-.5-13.097 4.645-26.597 6.145-40.5 4.5-20.793-5.142-38.627-15.308-53.5-30.5-9.87-12.409-16.537-26.409-20-42a607.904 607.904 0 0 1-5-53c-4.053-29.954-18.22-53.788-42.5-71.5a1473.378 1473.378 0 0 0-45-25c-39.866-25.925-53.033-61.758-39.5-107.5 13.158-30.151 35.991-47.985 68.5-53.5 42.549-2.818 72.716 15.015 90.5 53.5a116.719 116.719 0 0 1 6 23 1114.099 1114.099 0 0 1 4 47c5.214 35.864 23.714 62.364 55.5 79.5 1.399.595 2.732.428 4-.5 11.675 7.175 24.008 12.675 37 16.5 2.984 3.332 6.651 5.332 11 6 2.223 2.223 4.889 3.556 8 4 1.342 2.892 3.675 4.225 7 4a87.398 87.398 0 0 0 20 11 161.83 161.83 0 0 0 24 6.5c29.491 7.23 58.157 3.563 86-11a32.367 32.367 0 0 0 3-4.5c7.422-3.365 14.089-7.698 20-13 4.763-1.701 8.763-4.368 12-8a57.56 57.56 0 0 1 8-3c1.658-3.168 4.325-4.835 8-5 1.877-2.106 4.21-3.439 7-4l2-3a184.388 184.388 0 0 1 11-4.5l1-2a126.246 126.246 0 0 0 9-4.5 13.92 13.92 0 0 0 3-4 40.018 40.018 0 0 0 9-6 28.834 28.834 0 0 0 4-6 11.333 11.333 0 0 0 3.5-1.5 35.145 35.145 0 0 0 5-10l4-2c1.838-4.85 3.672-9.683 5.5-14.5-1.078-.674-1.745-1.674-2-3a193.743 193.743 0 0 0 2-9.5c-1.113-3.565-1.113-7.065 0-10.5a413.925 413.925 0 0 0-9-26.5 421.075 421.075 0 0 0-12.5-21 75.052 75.052 0 0 0-12.5-11c1.168-1.406.835-2.572-1-3.5l-9-5a54.628 54.628 0 0 0-2-4.5c-18.721-12.528-38.721-22.695-60-30.5a132.754 132.754 0 0 0-20-4 895.512 895.512 0 0 0-43-2 233.719 233.719 0 0 1-39-8c-15.705-8.218-28.705-19.385-39-33.5-3.796-2.241-6.129-5.574-7-10a60.635 60.635 0 0 1-8.5-11 14.72 14.72 0 0 0-1.5-5 542.042 542.042 0 0 1-6.5-8l-1-4a25.305 25.305 0 0 1-6-7c.184-3.284-1.316-5.284-4.5-6-.885-3.791-3.218-6.291-7-7.5.951-.718 1.117-1.551.5-2.5a64.501 64.501 0 0 1-6.5-4 23.577 23.577 0 0 1-1-3.5l-12-7c1.333-1 1.333-2 0-3-18.513-12.157-38.179-22.157-59-30a129.557 129.557 0 0 0-19-4c-18.338-.962-36.671-1.962-55-3-43.187-6.854-69.02-31.688-77.5-74.5a121.19 121.19 0 0 1 0-22 271.016 271.016 0 0 1 8-31c8.854-14.849 20.354-27.015 34.5-36.5 2.623-3.787 6.289-6.12 11-7a23.65 23.65 0 0 0 3-3.5 93.654 93.654 0 0 0 13-6l1-2a301.568 301.568 0 0 0 10-4.5l2-3c4.106-1.717 7.44-4.384 10-8a11.333 11.333 0 0 0 3.5-1.5 22.981 22.981 0 0 1 2-5c.667 1.333 1.333 1.333 2 0a52.56 52.56 0 0 0 1.5-7c1.624.14 2.79-.527 3.5-2a93.497 93.497 0 0 0 1.5-11h3c-.212-22.189 2.955-43.855 9.5-65 12.035-27.939 32.869-45.44 62.5-52.5 2.227-.941 4.227-2.108 6-3.5z"/><path style="opacity:1" fill="#9960bc" d="M444.5 138.5c7.615 19.489 7.948 39.156 1 59-17.529 37.106-46.862 53.44-88 49a79.44 79.44 0 0 0-8 9c-14.514-13.873-30.847-24.873-49-33a129.97 129.97 0 0 1 5-9.5c-21.972-40.131-16.305-75.798 17-107 25.105-18.136 52.105-21.47 81-10 18.964 9.13 32.631 23.296 41 42.5z"/><path style="opacity:1" fill="#19926e" d="M714.5 217.5c-11.476 12.968-25.476 22.135-42 27.5a90.298 90.298 0 0 0-11 2.5c-38.412 2.302-66.078-13.698-83-48-30.993-1-61.993-1.333-93-1 5.333-20 5.333-40 0-60 31.007.333 62.007 0 93-1 19.916-38.457 51.249-53.623 94-45.5 40.488 14.138 59.654 42.638 57.5 85.5-1.94 14.663-7.106 27.997-15.5 40z"/><path style="opacity:1" fill="#146f54" d="M444.5 138.5h17c5.333 20 5.333 40 0 60-5.526.321-10.86-.012-16-1 6.948-19.844 6.615-39.511-1-59z"/><path style="opacity:1" fill="#178363" d="M461.5 138.5h24c5.333 20 5.333 40 0 60h-24c5.333-20 5.333-40 0-60z"/><path style="opacity:1" fill="#1969a5" d="M714.5 217.5a121.345 121.345 0 0 0 7 13c-14.251 14.93-31.251 25.263-51 31l-9-14a90.298 90.298 0 0 1 11-2.5c16.524-5.365 30.524-14.532 42-27.5z"/><path style="opacity:1" fill="#8d59ad" d="M300.5 222.5c18.153 8.127 34.486 19.127 49 33a76.484 76.484 0 0 1-9 14 196.957 196.957 0 0 0-26-20.5 392.908 392.908 0 0 0-24-11.5 60.02 60.02 0 0 1 10-15z"/><path style="opacity:1" fill="#1d79be" d="m721.5 230.5 10 17c-14.641 14.635-31.974 24.635-52 30a93.691 93.691 0 0 1-9-16c19.749-5.737 36.749-16.07 51-31z"/><path style="opacity:1" fill="#8352a1" d="M290.5 237.5a392.908 392.908 0 0 1 24 11.5 196.957 196.957 0 0 1 26 20.5 47.79 47.79 0 0 1-6 10 275.439 275.439 0 0 0-26-21.5c-8-4.17-16-8.003-24-11.5 1.259-3.525 3.259-6.525 6-9z"/><path style="opacity:1" fill="#784c94" d="M284.5 246.5c8 3.497 16 7.33 24 11.5a275.439 275.439 0 0 1 26 21.5 39.396 39.396 0 0 1-5 7c-5.688-3.174-10.688-7.341-15-12.5-10.819-8.576-22.819-14.742-36-18.5a62.722 62.722 0 0 1 6-9z"/><path style="opacity:1" fill="#2084ce" d="M731.5 247.5c2.655 4.639 5.321 9.306 8 14 1.545.952 3.212 1.285 5 1a376.354 376.354 0 0 1-32 21.5 198.15 198.15 0 0 1-25 9.5 108.945 108.945 0 0 0-8-16c20.026-5.365 37.359-15.365 52-30z"/><path style="opacity:1" fill="#6f4686" d="M278.5 255.5c13.181 3.758 25.181 9.924 36 18.5 4.312 5.159 9.312 9.326 15 12.5l-6 10c-13.109-17.126-30.109-28.126-51-33l6-8z"/><path style="opacity:1" fill="#f18018" d="M272.5 263.5c20.891 4.874 37.891 15.874 51 33 10.617 17.473 15.117 36.473 13.5 57a3420.26 3420.26 0 0 1 83.5 50c-12.282 14.719-21.615 31.219-28 49.5-.336 1.03-1.003 1.53-2 1.5a5297.791 5297.791 0 0 0-85-49c-24.397 15.966-50.397 19.133-78 9.5-39.127-19.755-54.627-51.255-46.5-94.5 10.509-31.509 32.009-50.676 64.5-57.5a150.593 150.593 0 0 1 27 .5z"/><path style="opacity:1" fill="#218bda" d="M744.5 262.5c41.33-.258 68.83 19.075 82.5 58 7.751 38.103-4.416 67.937-36.5 89.5-39.089 19.048-73.256 12.548-102.5-19.5-16.659-23.277-20.659-48.61-12-76 2.816-7.637 6.649-14.637 11.5-21a198.15 198.15 0 0 0 25-9.5 376.354 376.354 0 0 0 32-21.5z"/><path style="opacity:1" fill="#e77b17" d="M420.5 403.5a170.794 170.794 0 0 1 19 11c-14.069 14.734-24.402 31.734-31 51a122.028 122.028 0 0 1-18-11c.997.03 1.664-.47 2-1.5 6.385-18.281 15.718-34.781 28-49.5z"/><path style="opacity:1" fill="#d47115" d="M439.5 414.5a215.04 215.04 0 0 1 17 10 205.169 205.169 0 0 0-18.5 23c-5.063 9.11-9.23 18.443-12.5 28a211.907 211.907 0 0 1-17-10c6.598-19.266 16.931-36.266 31-51z"/><path style="opacity:1" fill="#fd928b" d="M683.5 560.5c-12.829 15.322-22.829 32.322-30 51a3608.618 3608.618 0 0 1-84.5-50c-32.539 20.497-64.706 19.997-96.5-1.5-22.61-19.645-32.61-44.478-30-74.5 2.869-13.414 8.369-25.747 16.5-37a265.628 265.628 0 0 0 13.5-14c32.739-21.403 65.406-21.236 98 .5 22.792 19.712 32.626 44.545 29.5 74.5a11476.375 11476.375 0 0 0 83.5 51z"/><path style="opacity:1" fill="#b56012" d="M456.5 424.5a97.498 97.498 0 0 1 16 10 265.628 265.628 0 0 1-13.5 14c-8.131 11.253-13.631 23.586-16.5 37a211.907 211.907 0 0 1-17-10c3.27-9.557 7.437-18.89 12.5-28a205.169 205.169 0 0 1 18.5-23z"/><path style="opacity:1" fill="#f38d86" d="M683.5 560.5a218.713 218.713 0 0 1 17 10 394.464 394.464 0 0 0-14.5 18c-6.569 10.587-12.069 21.587-16.5 33a98.385 98.385 0 0 1-16-10c7.171-18.678 17.171-35.678 30-51z"/><path style="opacity:1" fill="#94c048" d="M445.5 837.5c6.924 20.166 6.59 40.166-1 60-16.892 35.79-45.225 51.957-85 48.5-24.729-4.274-43.562-17.107-56.5-38.5-15.053-29.216-13.886-57.716 3.5-85.5a6073.305 6073.305 0 0 1-57-88c-35.868 4.312-63.702-8.521-83.5-38.5-19.048-39.089-12.548-73.256 19.5-102.5 28.402-19.705 58.069-21.705 89-6 36.272 25.153 47.106 58.653 32.5 100.5a62.707 62.707 0 0 1-7.5 13 3097.182 3097.182 0 0 0 58.5 89c40.411-4.216 69.578 11.784 87.5 48z"/><path style="opacity:1" fill="#e1827c" d="m700.5 570.5 17 10a206.92 206.92 0 0 0-18.5 23c-5.046 9.079-9.213 18.413-12.5 28a72.111 72.111 0 0 1-17-10c4.431-11.413 9.931-22.413 16.5-33a394.464 394.464 0 0 1 14.5-18z"/><path style="opacity:1" fill="#d70031" d="M748.5 768.5c-14.635-12.578-31.135-22.244-49.5-29-1.03-.336-1.53-1.003-1.5-2a392.42 392.42 0 0 1 22-35.5c-12.235-17.556-17.235-37.056-15-58.5 4.465-21.136 15.132-38.469 32-52 24.752-16.715 51.085-19.548 79-8.5 37.796 20.096 52.629 51.263 44.5 93.5-15.607 41.895-45.773 61.228-90.5 58a49704.056 49704.056 0 0 1-21 34z"/><path style="opacity:1" fill="#bf6e69" d="M717.5 580.5a270.552 270.552 0 0 0 19 11c-16.868 13.531-27.535 30.864-32 52l-18-12c3.287-9.587 7.454-18.921 12.5-28a206.92 206.92 0 0 1 18.5-23z"/><path style="opacity:1" fill="#cc002f" d="M697.5 737.5c-.03.997.47 1.664 1.5 2 18.365 6.756 34.865 16.422 49.5 29a155.195 155.195 0 0 1-13 20 105.477 105.477 0 0 0-21-17.5 294.23 294.23 0 0 0-29-14.5 272.494 272.494 0 0 1 12-19z"/><path style="opacity:1" fill="#bf002c" d="M685.5 756.5a294.23 294.23 0 0 1 29 14.5 105.477 105.477 0 0 1 21 17.5 36.195 36.195 0 0 1-5 9 522.395 522.395 0 0 1-22-17.5c-9.246-5.626-18.913-10.126-29-13.5a37.79 37.79 0 0 1 6-10z"/><path style="opacity:1" fill="#b10029" d="M679.5 766.5c10.087 3.374 19.754 7.874 29 13.5a522.395 522.395 0 0 0 22 17.5l-8 13c-13.349-16.181-30.349-26.515-51-31 1.918-4.843 4.584-9.177 8-13z"/><path style="opacity:1" fill="#9a0426" d="M671.5 779.5c20.651 4.485 37.651 14.819 51 31a40.606 40.606 0 0 1-7 10c-13.058-16.701-30.058-27.034-51-31a40.606 40.606 0 0 1 7-10z"/><path style="opacity:1" fill="#7dbbe5" d="M664.5 789.5c20.942 3.966 37.942 14.299 51 31 16.659 24.764 19.492 51.097 8.5 79-17.335 34.089-45.168 49.589-83.5 46.5-28.978-4.989-49.645-20.822-62-47.5-33.993-1-67.993-1.333-102-1 5.333-20 5.333-40 0-60 34.007.333 68.007 0 102-1 17.716-35.528 46.383-51.194 86-47z"/><path style="opacity:1" fill="#6496b7" d="M450.5 837.5h15c2.745 9.8 4.411 19.8 5 30-.589 10.2-2.255 20.2-5 30h-15c8-20 8-40 0-60z"/><path style="opacity:1" fill="#6ea4c8" d="M465.5 837.5h11c5.333 20 5.333 40 0 60h-11c2.745-9.8 4.411-19.8 5-30-.589-10.2-2.255-20.2-5-30z"/><path style="opacity:1" fill="#5984a1" d="M445.5 837.5h5c8 20 8 40 0 60h-6c7.59-19.834 7.924-39.834 1-60z"/><path style="opacity:1" fill="#2e2e2e" d="M606.5 959.5h-185c5.041-4.686 11.041-7.519 18-8.5 2.637-3.817 6.304-5.484 11-5l5-5c4.587.567 7.921-1.099 10-5 5.685-2.045 11.685-3.545 18-4.5l1-2c24.126-5.968 48.126-4.801 72 3.5a593.891 593.891 0 0 1 50 26.5z"/></svg>