<svg xmlns="http://www.w3.org/2000/svg" width="200" height="200" style="shape-rendering:geometricPrecision;text-rendering:geometricPrecision;image-rendering:optimizeQuality;fill-rule:evenodd;clip-rule:evenodd"><path style="opacity:.931" fill="#080809" d="M82.5-.5h19a23.73 23.73 0 0 1 5 4 256.88 256.88 0 0 0 32 1v30h29v29h30c-.167 10.672 0 21.338.5 32 .278.916.778 1.582 1.5 2v19c-10.861 45.527-39.194 73.194-85 83h-29c-47.67-9.671-76.337-38.337-86-86v-29c9.804-45.804 37.47-74.137 83-85z"/><path style="opacity:1" fill="#adb6cf" d="M85.5 2.5a8.434 8.434 0 0 1 4 .5C82.81 8.87 77.976 16.038 75 24.5c-7.67 23.022-11.504 46.689-11.5 71a554.397 554.397 0 0 0 3 39c38.212 5.818 75.545 2.318 112-10.5a59.118 59.118 0 0 0 15.5-11.5c-5.419 34.757-23.919 59.923-55.5 75.5-44.14 16.673-81.974 7.506-113.5-27.5-21.094-28.563-26.428-59.897-16-94 13.92-35.351 39.42-56.685 76.5-64z"/><path style="opacity:1" fill="#606b7c" d="M94.5 3.5c3.362-.43 6.195.57 8.5 3 .499 4.989.666 9.989.5 15-3.114.591-5.614 2.258-7.5 5-9.315 14.578-14.315 30.578-15 48a817.343 817.343 0 0 0 0 43l-12 12c-4.651-35.8-1.318-70.8 10-105 3.248-8.531 8.415-15.531 15.5-21z"/><path style="opacity:1" fill="#937316" d="M133.5 9.5h-25v25c-.993-8.484-1.326-17.15-1-26 8.849-.326 17.516.007 26 1z"/><path style="opacity:1" fill="#f6bf20" d="M133.5 9.5v25h-25v-25h25z"/><path style="opacity:1" fill="#b3c0c2" d="M101.5 25.5h3c.167 23.336 0 46.669-.5 70l-18 18c-3.516-25.54-1.183-50.54 7-75 1.849-5.046 4.682-9.38 8.5-13z"/><path style="opacity:1" fill="#129a67" d="M108.5 38.5h25v25-25h-25z"/><path style="opacity:1" fill="#f16b30" d="M162.5 38.5v25h-25v-25h25z"/><path style="opacity:1" fill="#146c4c" d="M108.5 38.5v25h25c-8.484.993-17.151 1.326-26 1-.326-8.85.007-17.516 1-26z"/><path style="opacity:1" fill="#a94b22" d="M162.5 38.5c.993 8.484 1.326 17.15 1 26-8.849.326-17.516-.007-26-1h25v-25z"/><path style="opacity:1" fill="#ed3127" d="M108.5 68.5h25v25-25h-25z"/><path style="opacity:1" fill="#ca572c" d="M137.5 68.5h26v26h-26v-26z"/><path style="opacity:1" fill="#1f64b0" d="M192.5 68.5v25h-25v-25h25z"/><path style="opacity:1" fill="#903e39" d="M108.5 68.5v25h25c-8.484.993-17.151 1.326-26 1-.326-8.85.007-17.516 1-26z"/><path style="opacity:1" fill="#223c5b" d="M192.5 68.5c.993 8.484 1.326 17.15 1 26-8.849.326-17.516-.007-26-1h25v-25z"/><path style="opacity:1" fill="#f4f5f5" d="M107.5 97.5c22.01-.333 44.01 0 66 1-3.32 5.135-7.987 8.635-14 10.5-23.191 6.794-46.857 9.128-71 7a2831.757 2831.757 0 0 0 19-18.5z"/><path style="opacity:1" fill="#aab3cc" d="M177.5 97.5h16c.465 4.292-.368 8.292-2.5 12-5.5 6.495-12.333 10.995-20.5 13.5-31.783 10.117-64.117 12.617-97 7.5a45.068 45.068 0 0 1 10-9.5 260.675 260.675 0 0 0 66-5c10.307-1.736 19.14-6.236 26.5-13.5 1.009-1.525 1.509-3.192 1.5-5z"/><path style="opacity:1" fill="#909caf" d="M187.5 122.5c-1.761 12.882-6.927 24.549-15.5 35-18.16 21.496-41.326 32.329-69.5 32.5 29.864-9.197 50.864-28.197 63-57 8.063-2.2 15.397-5.7 22-10.5z"/></svg>