<?xml version="1.0" encoding="UTF-8"?>
<!DOCTYPE svg PUBLIC "-//W3C//DTD SVG 1.1//EN" "http://www.w3.org/Graphics/SVG/1.1/DTD/svg11.dtd">
<svg xmlns="http://www.w3.org/2000/svg" version="1.1" width="376px" height="146px" style="shape-rendering:geometricPrecision; text-rendering:geometricPrecision; image-rendering:optimizeQuality; fill-rule:evenodd; clip-rule:evenodd" xmlns:xlink="http://www.w3.org/1999/xlink">
<g><path style="opacity:1" fill="#65ace4" d="M -0.5,-0.5 C 124.833,-0.5 250.167,-0.5 375.5,-0.5C 375.5,6.16667 375.5,12.8333 375.5,19.5C 373.402,17.0028 371.569,17.3362 370,20.5C 368.914,18.153 367.581,18.153 366,20.5C 364.347,20.1802 363.347,19.1802 363,17.5C 360.984,19.7506 358.651,20.084 356,18.5C 354.739,18.7591 353.739,19.4258 353,20.5C 352.333,17.8333 351.667,17.8333 351,20.5C 348.26,19.7178 345.426,19.2178 342.5,19C 340.671,17.4622 339.171,17.9622 338,20.5C 336.914,18.153 335.581,18.153 334,20.5C 332.347,20.1802 331.347,19.1802 331,17.5C 328.984,19.7506 326.651,20.084 324,18.5C 322.739,18.7591 321.739,19.4258 321,20.5C 320.333,17.8333 319.667,17.8333 319,20.5C 316.26,19.7178 313.426,19.2178 310.5,19C 308.671,17.4622 307.171,17.9622 306,20.5C 304.914,18.153 303.581,18.153 302,20.5C 300.347,20.1802 299.347,19.1802 299,17.5C 296.984,19.7506 294.651,20.084 292,18.5C 290.739,18.7591 289.739,19.4258 289,20.5C 288.333,17.8333 287.667,17.8333 287,20.5C 284.26,19.7178 281.426,19.2178 278.5,19C 276.671,17.4622 275.171,17.9622 274,20.5C 272.914,18.153 271.581,18.153 270,20.5C 268.347,20.1802 267.347,19.1802 267,17.5C 264.984,19.7506 262.651,20.084 260,18.5C 258.739,18.7591 257.739,19.4258 257,20.5C 256.333,17.8333 255.667,17.8333 255,20.5C 252.26,19.7178 249.426,19.2178 246.5,19C 244.671,17.4622 243.171,17.9622 242,20.5C 240.914,18.153 239.581,18.153 238,20.5C 236.347,20.1802 235.347,19.1802 235,17.5C 232.984,19.7506 230.651,20.084 228,18.5C 226.739,18.7591 225.739,19.4258 225,20.5C 224.333,17.8333 223.667,17.8333 223,20.5C 220.26,19.7178 217.426,19.2178 214.5,19C 212.671,17.4622 211.171,17.9622 210,20.5C 208.914,18.153 207.581,18.153 206,20.5C 204.347,20.1802 203.347,19.1802 203,17.5C 200.984,19.7506 198.651,20.084 196,18.5C 194.739,18.7591 193.739,19.4258 193,20.5C 192.333,17.8333 191.667,17.8333 191,20.5C 188.26,19.7178 185.426,19.2178 182.5,19C 180.671,17.4622 179.171,17.9622 178,20.5C 176.914,18.153 175.581,18.153 174,20.5C 172.347,20.1802 171.347,19.1802 171,17.5C 168.984,19.7506 166.651,20.084 164,18.5C 162.739,18.7591 161.739,19.4258 161,20.5C 160.333,17.8333 159.667,17.8333 159,20.5C 156.26,19.7178 153.426,19.2178 150.5,19C 148.671,17.4622 147.171,17.9622 146,20.5C 144.914,18.153 143.581,18.153 142,20.5C 140.347,20.1802 139.347,19.1802 139,17.5C 136.984,19.7506 134.651,20.084 132,18.5C 130.739,18.7591 129.739,19.4258 129,20.5C 128.333,17.8333 127.667,17.8333 127,20.5C 124.26,19.7178 121.426,19.2178 118.5,19C 116.671,17.4622 115.171,17.9622 114,20.5C 112.914,18.153 111.581,18.153 110,20.5C 108.347,20.1802 107.347,19.1802 107,17.5C 104.984,19.7506 102.651,20.084 100,18.5C 98.7387,18.7591 97.7387,19.4258 97,20.5C 96.3333,17.8333 95.6667,17.8333 95,20.5C 92.2595,19.7178 89.4262,19.2178 86.5,19C 84.6707,17.4622 83.1707,17.9622 82,20.5C 80.9141,18.153 79.5808,18.153 78,20.5C 76.3468,20.1802 75.3468,19.1802 75,17.5C 72.9842,19.7506 70.6508,20.084 68,18.5C 66.7387,18.7591 65.7387,19.4258 65,20.5C 64.3333,17.8333 63.6667,17.8333 63,20.5C 60.2595,19.7178 57.4262,19.2178 54.5,19C 52.6707,17.4622 51.1707,17.9622 50,20.5C 48.9141,18.153 47.5808,18.153 46,20.5C 44.3468,20.1802 43.3468,19.1802 43,17.5C 40.9842,19.7506 38.6508,20.084 36,18.5C 34.7387,18.7591 33.7387,19.4258 33,20.5C 32.3333,17.8333 31.6667,17.8333 31,20.5C 28.2595,19.7178 25.4262,19.2178 22.5,19C 20.6707,17.4622 19.1707,17.9622 18,20.5C 16.9141,18.153 15.5808,18.153 14,20.5C 12.3468,20.1802 11.3468,19.1802 11,17.5C 8.98416,19.7506 6.65083,20.084 4,18.5C 2.73869,18.7591 1.73869,19.4258 1,20.5C 0.721579,19.5842 0.221579,18.9175 -0.5,18.5C -0.5,12.1667 -0.5,5.83333 -0.5,-0.5 Z"/></g>
<g><path style="opacity:1" fill="#61aae3" d="M 375.5,19.5 C 375.5,25.8333 375.5,32.1667 375.5,38.5C 374.211,40.248 372.711,40.5814 371,39.5C 370.581,40.6721 369.915,41.6721 369,42.5C 366.547,37.768 364.047,37.268 361.5,41C 358.721,42.4873 356.388,42.3206 354.5,40.5C 352.549,41.2561 350.716,41.5894 349,41.5C 348.667,40.8333 348.333,40.1667 348,39.5C 347.804,41.2861 346.971,42.6195 345.5,43.5C 345.167,43.1667 344.833,42.8333 344.5,42.5C 347.066,38.9925 346.566,38.6591 343,41.5C 342.667,40.8333 342.333,40.1667 342,39.5C 341,40.8333 340,40.8333 339,39.5C 338.581,40.6721 337.915,41.6721 337,42.5C 334.547,37.768 332.047,37.268 329.5,41C 326.721,42.4873 324.388,42.3206 322.5,40.5C 320.549,41.2561 318.716,41.5894 317,41.5C 316.667,40.8333 316.333,40.1667 316,39.5C 315.804,41.2861 314.971,42.6195 313.5,43.5C 313.167,43.1667 312.833,42.8333 312.5,42.5C 315.066,38.9925 314.566,38.6591 311,41.5C 310.667,40.8333 310.333,40.1667 310,39.5C 309,40.8333 308,40.8333 307,39.5C 306.581,40.6721 305.915,41.6721 305,42.5C 302.547,37.768 300.047,37.268 297.5,41C 294.721,42.4873 292.388,42.3206 290.5,40.5C 288.549,41.2561 286.716,41.5894 285,41.5C 284.667,40.8333 284.333,40.1667 284,39.5C 283.804,41.2861 282.971,42.6195 281.5,43.5C 281.167,43.1667 280.833,42.8333 280.5,42.5C 283.066,38.9925 282.566,38.6591 279,41.5C 278.667,40.8333 278.333,40.1667 278,39.5C 277,40.8333 276,40.8333 275,39.5C 274.581,40.6721 273.915,41.6721 273,42.5C 270.547,37.768 268.047,37.268 265.5,41C 262.721,42.4873 260.388,42.3206 258.5,40.5C 256.549,41.2561 254.716,41.5894 253,41.5C 252.667,40.8333 252.333,40.1667 252,39.5C 251.804,41.2861 250.971,42.6195 249.5,43.5C 249.167,43.1667 248.833,42.8333 248.5,42.5C 251.066,38.9925 250.566,38.6591 247,41.5C 246.667,40.8333 246.333,40.1667 246,39.5C 245,40.8333 244,40.8333 243,39.5C 242.581,40.6721 241.915,41.6721 241,42.5C 238.547,37.768 236.047,37.268 233.5,41C 230.721,42.4873 228.388,42.3206 226.5,40.5C 224.549,41.2561 222.716,41.5894 221,41.5C 220.667,40.8333 220.333,40.1667 220,39.5C 219.804,41.2861 218.971,42.6195 217.5,43.5C 217.167,43.1667 216.833,42.8333 216.5,42.5C 219.066,38.9925 218.566,38.6591 215,41.5C 214.667,40.8333 214.333,40.1667 214,39.5C 213,40.8333 212,40.8333 211,39.5C 210.581,40.6721 209.915,41.6721 209,42.5C 206.547,37.768 204.047,37.268 201.5,41C 198.721,42.4873 196.388,42.3206 194.5,40.5C 192.549,41.2561 190.716,41.5894 189,41.5C 188.667,40.8333 188.333,40.1667 188,39.5C 187.804,41.2861 186.971,42.6195 185.5,43.5C 185.167,43.1667 184.833,42.8333 184.5,42.5C 187.066,38.9925 186.566,38.6591 183,41.5C 182.667,40.8333 182.333,40.1667 182,39.5C 181,40.8333 180,40.8333 179,39.5C 178.581,40.6721 177.915,41.6721 177,42.5C 174.547,37.768 172.047,37.268 169.5,41C 166.721,42.4873 164.388,42.3206 162.5,40.5C 160.549,41.2561 158.716,41.5894 157,41.5C 156.667,40.8333 156.333,40.1667 156,39.5C 155.804,41.2861 154.971,42.6195 153.5,43.5C 153.167,43.1667 152.833,42.8333 152.5,42.5C 155.066,38.9925 154.566,38.6591 151,41.5C 150.667,40.8333 150.333,40.1667 150,39.5C 149,40.8333 148,40.8333 147,39.5C 146.581,40.6721 145.915,41.6721 145,42.5C 142.547,37.768 140.047,37.268 137.5,41C 134.721,42.4873 132.388,42.3206 130.5,40.5C 128.549,41.2561 126.716,41.5894 125,41.5C 124.667,40.8333 124.333,40.1667 124,39.5C 123.804,41.2861 122.971,42.6195 121.5,43.5C 121.167,43.1667 120.833,42.8333 120.5,42.5C 123.066,38.9925 122.566,38.6591 119,41.5C 118.667,40.8333 118.333,40.1667 118,39.5C 117,40.8333 116,40.8333 115,39.5C 114.581,40.6721 113.915,41.6721 113,42.5C 110.547,37.768 108.047,37.268 105.5,41C 102.721,42.4873 100.388,42.3206 98.5,40.5C 96.5494,41.2561 94.7161,41.5894 93,41.5C 92.6667,40.8333 92.3333,40.1667 92,39.5C 91.8038,41.2861 90.9705,42.6195 89.5,43.5C 89.1667,43.1667 88.8333,42.8333 88.5,42.5C 91.0665,38.9925 90.5665,38.6591 87,41.5C 86.6667,40.8333 86.3333,40.1667 86,39.5C 85,40.8333 84,40.8333 83,39.5C 82.5814,40.6721 81.9147,41.6721 81,42.5C 78.5474,37.768 76.0474,37.268 73.5,41C 70.7213,42.4873 68.3879,42.3206 66.5,40.5C 64.5494,41.2561 62.7161,41.5894 61,41.5C 60.6667,40.8333 60.3333,40.1667 60,39.5C 59.8038,41.2861 58.9705,42.6195 57.5,43.5C 57.1667,43.1667 56.8333,42.8333 56.5,42.5C 59.0665,38.9925 58.5665,38.6591 55,41.5C 54.6667,40.8333 54.3333,40.1667 54,39.5C 53,40.8333 52,40.8333 51,39.5C 50.5814,40.6721 49.9147,41.6721 49,42.5C 46.5474,37.768 44.0474,37.268 41.5,41C 38.7213,42.4873 36.3879,42.3206 34.5,40.5C 32.5494,41.2561 30.7161,41.5894 29,41.5C 28.6667,40.8333 28.3333,40.1667 28,39.5C 27.8038,41.2861 26.9705,42.6195 25.5,43.5C 25.1667,43.1667 24.8333,42.8333 24.5,42.5C 27.0665,38.9925 26.5665,38.6591 23,41.5C 22.6667,40.8333 22.3333,40.1667 22,39.5C 21,40.8333 20,40.8333 19,39.5C 18.5814,40.6721 17.9147,41.6721 17,42.5C 14.5474,37.768 12.0474,37.268 9.5,41C 6.72127,42.4873 4.38793,42.3206 2.5,40.5C 1.58317,41.1272 0.583168,41.4606 -0.5,41.5C -0.5,33.8333 -0.5,26.1667 -0.5,18.5C 0.221579,18.9175 0.721579,19.5842 1,20.5C 1.73869,19.4258 2.73869,18.7591 4,18.5C 6.65083,20.084 8.98416,19.7506 11,17.5C 11.3468,19.1802 12.3468,20.1802 14,20.5C 15.5808,18.153 16.9141,18.153 18,20.5C 19.1707,17.9622 20.6707,17.4622 22.5,19C 25.4262,19.2178 28.2595,19.7178 31,20.5C 31.6667,17.8333 32.3333,17.8333 33,20.5C 33.7387,19.4258 34.7387,18.7591 36,18.5C 38.6508,20.084 40.9842,19.7506 43,17.5C 43.3468,19.1802 44.3468,20.1802 46,20.5C 47.5808,18.153 48.9141,18.153 50,20.5C 51.1707,17.9622 52.6707,17.4622 54.5,19C 57.4262,19.2178 60.2595,19.7178 63,20.5C 63.6667,17.8333 64.3333,17.8333 65,20.5C 65.7387,19.4258 66.7387,18.7591 68,18.5C 70.6508,20.084 72.9842,19.7506 75,17.5C 75.3468,19.1802 76.3468,20.1802 78,20.5C 79.5808,18.153 80.9141,18.153 82,20.5C 83.1707,17.9622 84.6707,17.4622 86.5,19C 89.4262,19.2178 92.2595,19.7178 95,20.5C 95.6667,17.8333 96.3333,17.8333 97,20.5C 97.7387,19.4258 98.7387,18.7591 100,18.5C 102.651,20.084 104.984,19.7506 107,17.5C 107.347,19.1802 108.347,20.1802 110,20.5C 111.581,18.153 112.914,18.153 114,20.5C 115.171,17.9622 116.671,17.4622 118.5,19C 121.426,19.2178 124.26,19.7178 127,20.5C 127.667,17.8333 128.333,17.8333 129,20.5C 129.739,19.4258 130.739,18.7591 132,18.5C 134.651,20.084 136.984,19.7506 139,17.5C 139.347,19.1802 140.347,20.1802 142,20.5C 143.581,18.153 144.914,18.153 146,20.5C 147.171,17.9622 148.671,17.4622 150.5,19C 153.426,19.2178 156.26,19.7178 159,20.5C 159.667,17.8333 160.333,17.8333 161,20.5C 161.739,19.4258 162.739,18.7591 164,18.5C 166.651,20.084 168.984,19.7506 171,17.5C 171.347,19.1802 172.347,20.1802 174,20.5C 175.581,18.153 176.914,18.153 178,20.5C 179.171,17.9622 180.671,17.4622 182.5,19C 185.426,19.2178 188.26,19.7178 191,20.5C 191.667,17.8333 192.333,17.8333 193,20.5C 193.739,19.4258 194.739,18.7591 196,18.5C 198.651,20.084 200.984,19.7506 203,17.5C 203.347,19.1802 204.347,20.1802 206,20.5C 207.581,18.153 208.914,18.153 210,20.5C 211.171,17.9622 212.671,17.4622 214.5,19C 217.426,19.2178 220.26,19.7178 223,20.5C 223.667,17.8333 224.333,17.8333 225,20.5C 225.739,19.4258 226.739,18.7591 228,18.5C 230.651,20.084 232.984,19.7506 235,17.5C 235.347,19.1802 236.347,20.1802 238,20.5C 239.581,18.153 240.914,18.153 242,20.5C 243.171,17.9622 244.671,17.4622 246.5,19C 249.426,19.2178 252.26,19.7178 255,20.5C 255.667,17.8333 256.333,17.8333 257,20.5C 257.739,19.4258 258.739,18.7591 260,18.5C 262.651,20.084 264.984,19.7506 267,17.5C 267.347,19.1802 268.347,20.1802 270,20.5C 271.581,18.153 272.914,18.153 274,20.5C 275.171,17.9622 276.671,17.4622 278.5,19C 281.426,19.2178 284.26,19.7178 287,20.5C 287.667,17.8333 288.333,17.8333 289,20.5C 289.739,19.4258 290.739,18.7591 292,18.5C 294.651,20.084 296.984,19.7506 299,17.5C 299.347,19.1802 300.347,20.1802 302,20.5C 303.581,18.153 304.914,18.153 306,20.5C 307.171,17.9622 308.671,17.4622 310.5,19C 313.426,19.2178 316.26,19.7178 319,20.5C 319.667,17.8333 320.333,17.8333 321,20.5C 321.739,19.4258 322.739,18.7591 324,18.5C 326.651,20.084 328.984,19.7506 331,17.5C 331.347,19.1802 332.347,20.1802 334,20.5C 335.581,18.153 336.914,18.153 338,20.5C 339.171,17.9622 340.671,17.4622 342.5,19C 345.426,19.2178 348.26,19.7178 351,20.5C 351.667,17.8333 352.333,17.8333 353,20.5C 353.739,19.4258 354.739,18.7591 356,18.5C 358.651,20.084 360.984,19.7506 363,17.5C 363.347,19.1802 364.347,20.1802 366,20.5C 367.581,18.153 368.914,18.153 370,20.5C 371.569,17.3362 373.402,17.0028 375.5,19.5 Z"/></g>
<g><path style="opacity:1" fill="#5da6e2" d="M 375.5,38.5 C 375.5,54.5 375.5,70.5 375.5,86.5C 374.312,85.3157 373.145,85.3157 372,86.5C 371.612,85.572 370.945,84.9054 370,84.5C 368.85,85.4239 367.85,85.4239 367,84.5C 366.667,85.1667 366.333,85.8333 366,86.5C 363.765,85.7607 361.765,85.7607 360,86.5C 359.333,85.1667 358.667,83.8333 358,82.5C 357.033,83.6776 356.533,85.011 356.5,86.5C 354.622,86.3775 352.789,86.3775 351,86.5C 350.667,85.8333 350.333,85.1667 350,84.5C 347.108,87.0203 344.274,87.3537 341.5,85.5C 340.199,86.4779 339.032,86.1445 338,84.5C 336.85,85.4239 335.85,85.4239 335,84.5C 334.667,85.1667 334.333,85.8333 334,86.5C 332.249,85.8263 330.583,85.493 329,85.5C 328.283,86.0442 327.783,86.7109 327.5,87.5C 323.432,83.0427 320.099,78.0427 317.5,72.5C 322.406,64.2523 327.739,56.2523 333.5,48.5C 330.833,47.1667 328.167,47.1667 325.5,48.5C 321.58,54.6744 317.413,60.6744 313,66.5C 308.587,60.6744 304.42,54.6744 300.5,48.5C 297.833,47.1667 295.167,47.1667 292.5,48.5C 297.833,56.5 303.167,64.5 308.5,72.5C 305.056,77.7452 301.39,82.7452 297.5,87.5C 297.607,85.6214 297.107,85.2881 296,86.5C 294.513,85.7471 294.346,84.9138 295.5,84C 295,83.5 294.5,83 294,82.5C 293.033,83.6776 292.533,85.011 292.5,86.5C 290.622,86.3775 288.789,86.3775 287,86.5C 286.667,85.8333 286.333,85.1667 286,84.5C 284.088,85.6919 282.088,86.6919 280,87.5C 277.904,86.3505 275.904,85.3505 274,84.5C 272.85,85.4239 271.85,85.4239 271,84.5C 270.667,85.1667 270.333,85.8333 270,86.5C 268.081,85.926 266.247,85.5926 264.5,85.5C 264.829,72.6557 264.495,59.989 263.5,47.5C 261.5,47.5 259.5,47.5 257.5,47.5C 257.5,64.1667 257.5,80.8333 257.5,97.5C 256.676,93.6877 256.176,89.6877 256,85.5C 254.984,86.6341 254.317,86.3008 254,84.5C 251.351,87.463 249.518,87.1297 248.5,83.5C 248.5,83.1667 248.5,82.8333 248.5,82.5C 249.482,79.0381 249.815,75.3714 249.5,71.5C 242.313,71.1755 235.313,71.5088 228.5,72.5C 228.5,74.1667 228.5,75.8333 228.5,77.5C 232.634,78.4849 236.968,78.8182 241.5,78.5C 241.5,79.8333 241.5,81.1667 241.5,82.5C 240.415,86.7538 237.748,89.5871 233.5,91C 223.532,93.4337 216.699,89.9337 213,80.5C 212.13,74.0828 212.464,67.7494 214,61.5C 219.315,53.5472 226.482,51.3805 235.5,55C 238.07,57.0673 240.07,59.5673 241.5,62.5C 243.743,63.4742 246.076,63.8076 248.5,63.5C 246.878,55.0395 241.878,49.5395 233.5,47C 221.259,45.0364 212.425,49.5364 207,60.5C 205.17,67.7873 205.003,75.1207 206.5,82.5C 204.803,80.6948 203.97,78.3615 204,75.5C 202.25,77.2573 201.084,79.2573 200.5,81.5C 201.2,66.6995 194.2,59.8662 179.5,61C 169.903,66.3769 166.403,74.5436 169,85.5C 169.608,87.1545 170.108,88.8211 170.5,90.5C 169.883,90.6107 169.383,90.944 169,91.5C 168.524,87.9233 167.524,84.9233 166,82.5C 165.033,83.6776 164.533,85.011 164.5,86.5C 162.969,85.5788 161.635,85.9122 160.5,87.5C 157.299,84.4583 154.633,80.9583 152.5,77C 156.787,71.7107 161.454,66.7107 166.5,62C 163.833,61.3333 161.167,61.3333 158.5,62C 153.963,66.3688 149.63,70.8688 145.5,75.5C 144.833,66.1667 144.167,56.8333 143.5,47.5C 141.5,47.5 139.5,47.5 137.5,47.5C 137.5,57.5 137.5,67.5 137.5,77.5C 134.767,76.5301 132.1,75.6968 129.5,75C 132.028,75.6689 132.028,76.5022 129.5,77.5C 128.833,84.3214 128.167,90.9881 127.5,97.5C 127.5,85.5 127.5,73.5 127.5,61.5C 125.5,61.5 123.5,61.5 121.5,61.5C 121.5,73.5 121.5,85.5 121.5,97.5C 120.834,92.6511 120.167,87.6511 119.5,82.5C 117.491,83.0654 115.824,84.0654 114.5,85.5C 114.666,80.8215 114.499,76.1548 114,71.5C 110.574,63.2029 104.407,59.7029 95.5,61C 92.8293,62.25 90.6626,64.0833 89,66.5C 88.5065,64.8659 88.3398,63.1992 88.5,61.5C 86.5,61.5 84.5,61.5 82.5,61.5C 82.5,77.5 82.5,93.5 82.5,109.5C 82.1667,109.5 81.8333,109.5 81.5,109.5C 81.6663,102.159 81.4997,94.8258 81,87.5C 80.5814,86.3279 79.9147,85.3279 79,84.5C 77.2494,86.4899 76.2494,88.8232 76,91.5C 75.6174,90.944 75.1174,90.6107 74.5,90.5C 77.8941,81.4036 75.2275,74.9036 66.5,71C 60.7461,69.5837 55.0794,67.9171 49.5,66C 45.1977,61.2032 45.8644,57.2032 51.5,54C 55.1667,53.3333 58.8333,53.3333 62.5,54C 65.3633,55.3635 67.3633,57.5302 68.5,60.5C 70.396,61.4656 72.396,61.7989 74.5,61.5C 74.4159,53.5709 70.4159,48.7376 62.5,47C 54.4245,45.3589 47.5912,47.5256 42,53.5C 38.1167,60.0313 38.9501,65.8647 44.5,71C 51.8162,73.6658 59.1496,76.3324 66.5,79C 68.1554,80.4443 68.822,82.2776 68.5,84.5C 62.1728,80.4515 55.1728,77.9515 47.5,77C 46.0692,76.5348 44.9025,75.7014 44,74.5C 43.6322,75.91 42.7989,76.91 41.5,77.5C 39.1632,76.0958 36.9966,75.0958 35,74.5C 33.2382,74.9444 33.4049,75.4444 35.5,76C 34,78.1667 32.8333,78 32,75.5C 30.7592,77.4206 29.2592,77.754 27.5,76.5C 28.1667,76.1667 28.8333,75.8333 29.5,75.5C 27.9564,74.3776 26.623,74.711 25.5,76.5C 25.1667,75.8333 24.8333,75.1667 24.5,74.5C 20.5901,76.2301 16.5901,76.5635 12.5,75.5C 11.5,76.1667 10.5,76.8333 9.5,77.5C 7.16323,76.0958 4.99656,75.0958 3,74.5C 1.23824,74.9444 1.4049,75.4444 3.5,76C 1.92289,77.93 0.58956,77.7633 -0.5,75.5C -0.5,64.1667 -0.5,52.8333 -0.5,41.5C 0.583168,41.4606 1.58317,41.1272 2.5,40.5C 4.38793,42.3206 6.72127,42.4873 9.5,41C 12.0474,37.268 14.5474,37.768 17,42.5C 17.9147,41.6721 18.5814,40.6721 19,39.5C 20,40.8333 21,40.8333 22,39.5C 22.3333,40.1667 22.6667,40.8333 23,41.5C 26.5665,38.6591 27.0665,38.9925 24.5,42.5C 24.8333,42.8333 25.1667,43.1667 25.5,43.5C 26.9705,42.6195 27.8038,41.2861 28,39.5C 28.3333,40.1667 28.6667,40.8333 29,41.5C 30.7161,41.5894 32.5494,41.2561 34.5,40.5C 36.3879,42.3206 38.7213,42.4873 41.5,41C 44.0474,37.268 46.5474,37.768 49,42.5C 49.9147,41.6721 50.5814,40.6721 51,39.5C 52,40.8333 53,40.8333 54,39.5C 54.3333,40.1667 54.6667,40.8333 55,41.5C 58.5665,38.6591 59.0665,38.9925 56.5,42.5C 56.8333,42.8333 57.1667,43.1667 57.5,43.5C 58.9705,42.6195 59.8038,41.2861 60,39.5C 60.3333,40.1667 60.6667,40.8333 61,41.5C 62.7161,41.5894 64.5494,41.2561 66.5,40.5C 68.3879,42.3206 70.7213,42.4873 73.5,41C 76.0474,37.268 78.5474,37.768 81,42.5C 81.9147,41.6721 82.5814,40.6721 83,39.5C 84,40.8333 85,40.8333 86,39.5C 86.3333,40.1667 86.6667,40.8333 87,41.5C 90.5665,38.6591 91.0665,38.9925 88.5,42.5C 88.8333,42.8333 89.1667,43.1667 89.5,43.5C 90.9705,42.6195 91.8038,41.2861 92,39.5C 92.3333,40.1667 92.6667,40.8333 93,41.5C 94.7161,41.5894 96.5494,41.2561 98.5,40.5C 100.388,42.3206 102.721,42.4873 105.5,41C 108.047,37.268 110.547,37.768 113,42.5C 113.915,41.6721 114.581,40.6721 115,39.5C 116,40.8333 117,40.8333 118,39.5C 118.333,40.1667 118.667,40.8333 119,41.5C 122.566,38.6591 123.066,38.9925 120.5,42.5C 120.833,42.8333 121.167,43.1667 121.5,43.5C 122.971,42.6195 123.804,41.2861 124,39.5C 124.333,40.1667 124.667,40.8333 125,41.5C 126.716,41.5894 128.549,41.2561 130.5,40.5C 132.388,42.3206 134.721,42.4873 137.5,41C 140.047,37.268 142.547,37.768 145,42.5C 145.915,41.6721 146.581,40.6721 147,39.5C 148,40.8333 149,40.8333 150,39.5C 150.333,40.1667 150.667,40.8333 151,41.5C 154.566,38.6591 155.066,38.9925 152.5,42.5C 152.833,42.8333 153.167,43.1667 153.5,43.5C 154.971,42.6195 155.804,41.2861 156,39.5C 156.333,40.1667 156.667,40.8333 157,41.5C 158.716,41.5894 160.549,41.2561 162.5,40.5C 164.388,42.3206 166.721,42.4873 169.5,41C 172.047,37.268 174.547,37.768 177,42.5C 177.915,41.6721 178.581,40.6721 179,39.5C 180,40.8333 181,40.8333 182,39.5C 182.333,40.1667 182.667,40.8333 183,41.5C 186.566,38.6591 187.066,38.9925 184.5,42.5C 184.833,42.8333 185.167,43.1667 185.5,43.5C 186.971,42.6195 187.804,41.2861 188,39.5C 188.333,40.1667 188.667,40.8333 189,41.5C 190.716,41.5894 192.549,41.2561 194.5,40.5C 196.388,42.3206 198.721,42.4873 201.5,41C 204.047,37.268 206.547,37.768 209,42.5C 209.915,41.6721 210.581,40.6721 211,39.5C 212,40.8333 213,40.8333 214,39.5C 214.333,40.1667 214.667,40.8333 215,41.5C 218.566,38.6591 219.066,38.9925 216.5,42.5C 216.833,42.8333 217.167,43.1667 217.5,43.5C 218.971,42.6195 219.804,41.2861 220,39.5C 220.333,40.1667 220.667,40.8333 221,41.5C 222.716,41.5894 224.549,41.2561 226.5,40.5C 228.388,42.3206 230.721,42.4873 233.5,41C 236.047,37.268 238.547,37.768 241,42.5C 241.915,41.6721 242.581,40.6721 243,39.5C 244,40.8333 245,40.8333 246,39.5C 246.333,40.1667 246.667,40.8333 247,41.5C 250.566,38.6591 251.066,38.9925 248.5,42.5C 248.833,42.8333 249.167,43.1667 249.5,43.5C 250.971,42.6195 251.804,41.2861 252,39.5C 252.333,40.1667 252.667,40.8333 253,41.5C 254.716,41.5894 256.549,41.2561 258.5,40.5C 260.388,42.3206 262.721,42.4873 265.5,41C 268.047,37.268 270.547,37.768 273,42.5C 273.915,41.6721 274.581,40.6721 275,39.5C 276,40.8333 277,40.8333 278,39.5C 278.333,40.1667 278.667,40.8333 279,41.5C 282.566,38.6591 283.066,38.9925 280.5,42.5C 280.833,42.8333 281.167,43.1667 281.5,43.5C 282.971,42.6195 283.804,41.2861 284,39.5C 284.333,40.1667 284.667,40.8333 285,41.5C 286.716,41.5894 288.549,41.2561 290.5,40.5C 292.388,42.3206 294.721,42.4873 297.5,41C 300.047,37.268 302.547,37.768 305,42.5C 305.915,41.6721 306.581,40.6721 307,39.5C 308,40.8333 309,40.8333 310,39.5C 310.333,40.1667 310.667,40.8333 311,41.5C 314.566,38.6591 315.066,38.9925 312.5,42.5C 312.833,42.8333 313.167,43.1667 313.5,43.5C 314.971,42.6195 315.804,41.2861 316,39.5C 316.333,40.1667 316.667,40.8333 317,41.5C 318.716,41.5894 320.549,41.2561 322.5,40.5C 324.388,42.3206 326.721,42.4873 329.5,41C 332.047,37.268 334.547,37.768 337,42.5C 337.915,41.6721 338.581,40.6721 339,39.5C 340,40.8333 341,40.8333 342,39.5C 342.333,40.1667 342.667,40.8333 343,41.5C 346.566,38.6591 347.066,38.9925 344.5,42.5C 344.833,42.8333 345.167,43.1667 345.5,43.5C 346.971,42.6195 347.804,41.2861 348,39.5C 348.333,40.1667 348.667,40.8333 349,41.5C 350.716,41.5894 352.549,41.2561 354.5,40.5C 356.388,42.3206 358.721,42.4873 361.5,41C 364.047,37.268 366.547,37.768 369,42.5C 369.915,41.6721 370.581,40.6721 371,39.5C 372.711,40.5814 374.211,40.248 375.5,38.5 Z"/></g>
<g><path style="opacity:1" fill="#f7fafd" d="M 74.5,90.5 C 68.4751,97.4891 60.8084,99.9891 51.5,98C 44.2581,96.2588 39.9248,91.7588 38.5,84.5C 40.8333,83.1667 43.1667,83.1667 45.5,84.5C 47.6674,89.9186 51.6674,92.252 57.5,91.5C 63.4198,92.3883 67.0865,90.0549 68.5,84.5C 68.822,82.2776 68.1554,80.4443 66.5,79C 59.1496,76.3324 51.8162,73.6658 44.5,71C 38.9501,65.8647 38.1167,60.0313 42,53.5C 47.5912,47.5256 54.4245,45.3589 62.5,47C 70.4159,48.7376 74.4159,53.5709 74.5,61.5C 72.396,61.7989 70.396,61.4656 68.5,60.5C 67.3633,57.5302 65.3633,55.3635 62.5,54C 58.8333,53.3333 55.1667,53.3333 51.5,54C 45.8644,57.2032 45.1977,61.2032 49.5,66C 55.0794,67.9171 60.7461,69.5837 66.5,71C 75.2275,74.9036 77.8941,81.4036 74.5,90.5 Z"/></g>
<g><path style="opacity:1" fill="#f8fbfd" d="M 241.5,82.5 C 242.451,81.0813 242.784,79.4147 242.5,77.5C 237.833,77.5 233.167,77.5 228.5,77.5C 228.5,75.8333 228.5,74.1667 228.5,72.5C 235.167,72.5 241.833,72.5 248.5,72.5C 248.5,75.8333 248.5,79.1667 248.5,82.5C 248.5,82.8333 248.5,83.1667 248.5,83.5C 245.454,93.4589 238.62,98.4589 228,98.5C 217.213,97.8629 210.046,92.5296 206.5,82.5C 205.003,75.1207 205.17,67.7873 207,60.5C 212.425,49.5364 221.259,45.0364 233.5,47C 241.878,49.5395 246.878,55.0395 248.5,63.5C 246.076,63.8076 243.743,63.4742 241.5,62.5C 240.07,59.5673 238.07,57.0673 235.5,55C 226.482,51.3805 219.315,53.5472 214,61.5C 212.464,67.7494 212.13,74.0828 213,80.5C 216.699,89.9337 223.532,93.4337 233.5,91C 237.748,89.5871 240.415,86.7538 241.5,82.5 Z"/></g>
<g><path style="opacity:1" fill="#f7fafd" d="M 121.5,48.5 C 127.113,47.079 129.28,49.079 128,54.5C 122.084,56.416 119.918,54.416 121.5,48.5 Z"/></g>
<g><path style="opacity:1" fill="#fafcfe" d="M 143.5,47.5 C 143.168,57.1896 143.502,66.8563 144.5,76.5C 145.107,76.3764 145.44,76.0431 145.5,75.5C 149.63,70.8688 153.963,66.3688 158.5,62C 161.167,61.3333 163.833,61.3333 166.5,62C 161.454,66.7107 156.787,71.7107 152.5,77C 154.633,80.9583 157.299,84.4583 160.5,87.5C 162.616,90.7889 164.949,93.9556 167.5,97C 164.833,97.6667 162.167,97.6667 159.5,97C 155.713,91.544 151.546,86.3774 147,81.5C 146.333,82.1667 145.667,82.8333 145,83.5C 144.501,88.1548 144.334,92.8215 144.5,97.5C 142.167,97.5 139.833,97.5 137.5,97.5C 137.5,90.8333 137.5,84.1667 137.5,77.5C 137.5,67.5 137.5,57.5 137.5,47.5C 139.5,47.5 141.5,47.5 143.5,47.5 Z"/></g>
<g><path style="opacity:1" fill="#fefefe" d="M 263.5,47.5 C 263.5,62.1667 263.5,76.8333 263.5,91.5C 271.5,91.5 279.5,91.5 287.5,91.5C 287.5,93.5 287.5,95.5 287.5,97.5C 277.5,97.5 267.5,97.5 257.5,97.5C 257.5,80.8333 257.5,64.1667 257.5,47.5C 259.5,47.5 261.5,47.5 263.5,47.5 Z"/></g>
<g><path style="opacity:1" fill="#f9fbfd" d="M 327.5,87.5 C 328.854,91.0317 330.854,94.1984 333.5,97C 330.446,97.8214 327.446,97.6548 324.5,96.5C 320.892,90.228 316.892,84.228 312.5,78.5C 308.044,84.5791 303.71,90.7458 299.5,97C 296.833,97.6667 294.167,97.6667 291.5,97C 294.146,94.1984 296.146,91.0317 297.5,87.5C 301.39,82.7452 305.056,77.7452 308.5,72.5C 303.167,64.5 297.833,56.5 292.5,48.5C 295.167,47.1667 297.833,47.1667 300.5,48.5C 304.42,54.6744 308.587,60.6744 313,66.5C 317.413,60.6744 321.58,54.6744 325.5,48.5C 328.167,47.1667 330.833,47.1667 333.5,48.5C 327.739,56.2523 322.406,64.2523 317.5,72.5C 320.099,78.0427 323.432,83.0427 327.5,87.5 Z"/></g>
<g><path style="opacity:1" fill="#7ab6e6" d="M 263.5,47.5 C 264.495,59.989 264.829,72.6557 264.5,85.5C 264.5,87.1667 264.5,88.8333 264.5,90.5C 272.352,90.1746 280.018,90.508 287.5,91.5C 279.5,91.5 271.5,91.5 263.5,91.5C 263.5,76.8333 263.5,62.1667 263.5,47.5 Z"/></g>
<g><path style="opacity:1" fill="#bbd9f0" d="M 143.5,47.5 C 144.167,56.8333 144.833,66.1667 145.5,75.5C 145.44,76.0431 145.107,76.3764 144.5,76.5C 143.502,66.8563 143.168,57.1896 143.5,47.5 Z"/></g>
<g><path style="opacity:1" fill="#fbfcfe" d="M 114.5,85.5 C 111.932,94.5637 105.932,98.7303 96.5,98C 93.3396,97.0092 90.8396,95.1759 89,92.5C 88.5006,98.1569 88.3339,103.824 88.5,109.5C 86.5,109.5 84.5,109.5 82.5,109.5C 82.5,93.5 82.5,77.5 82.5,61.5C 84.5,61.5 86.5,61.5 88.5,61.5C 88.3398,63.1992 88.5065,64.8659 89,66.5C 90.6626,64.0833 92.8293,62.25 95.5,61C 104.407,59.7029 110.574,63.2029 114,71.5C 114.499,76.1548 114.666,80.8215 114.5,85.5 Z"/></g>
<g><path style="opacity:1" fill="#fefefe" d="M 127.5,97.5 C 125.5,97.5 123.5,97.5 121.5,97.5C 121.5,85.5 121.5,73.5 121.5,61.5C 123.5,61.5 125.5,61.5 127.5,61.5C 127.5,73.5 127.5,85.5 127.5,97.5 Z"/></g>
<g><path style="opacity:1" fill="#f7fafd" d="M 200.5,81.5 C 192.167,81.5 183.833,81.5 175.5,81.5C 175.991,89.7464 180.324,93.2464 188.5,92C 190.833,91 192.5,89.3333 193.5,87C 195.473,86.5045 197.473,86.3379 199.5,86.5C 198.81,93.0263 195.143,96.8597 188.5,98C 180.951,99.0545 174.951,96.5545 170.5,90.5C 170.108,88.8211 169.608,87.1545 169,85.5C 166.403,74.5436 169.903,66.3769 179.5,61C 194.2,59.8662 201.2,66.6995 200.5,81.5 Z"/></g>
<g><path style="opacity:1" fill="#63a6dd" d="M 181.5,66.5 C 188.871,65.8759 192.871,69.2092 193.5,76.5C 187.5,76.5 181.5,76.5 175.5,76.5C 175.469,71.8868 177.469,68.5535 181.5,66.5 Z"/></g>
<g><path style="opacity:1" fill="#c4def4" d="M 228.5,72.5 C 235.313,71.5088 242.313,71.1755 249.5,71.5C 249.815,75.3714 249.482,79.0381 248.5,82.5C 248.5,79.1667 248.5,75.8333 248.5,72.5C 241.833,72.5 235.167,72.5 228.5,72.5 Z"/></g>
<g><path style="opacity:1" fill="#5ca4e0" d="M 95.5,66.5 C 101.843,65.7553 106.01,68.422 108,74.5C 109.754,81.9148 107.588,87.7481 101.5,92C 94.9455,92.7988 90.7788,89.9655 89,83.5C 87.3053,76.2414 89.472,70.5747 95.5,66.5 Z"/></g>
<g><path style="opacity:1" fill="#8bbce4" d="M 228.5,77.5 C 233.167,77.5 237.833,77.5 242.5,77.5C 242.784,79.4147 242.451,81.0813 241.5,82.5C 241.5,81.1667 241.5,79.8333 241.5,78.5C 236.968,78.8182 232.634,78.4849 228.5,77.5 Z"/></g>
<g><path style="opacity:1" fill="#54a0e0" d="M 68.5,84.5 C 67.0865,90.0549 63.4198,92.3883 57.5,91.5C 51.6674,92.252 47.6674,89.9186 45.5,84.5C 43.1667,83.1667 40.8333,83.1667 38.5,84.5C 39.9248,91.7588 44.2581,96.2588 51.5,98C 60.8084,99.9891 68.4751,97.4891 74.5,90.5C 75.1174,90.6107 75.6174,90.944 76,91.5C 76.2494,88.8232 77.2494,86.4899 79,84.5C 79.9147,85.3279 80.5814,86.3279 81,87.5C 81.4997,94.8258 81.6663,102.159 81.5,109.5C 81.6495,110.552 81.4828,111.552 81,112.5C 78.6884,110.84 76.1884,110.007 73.5,110C 75.661,111.764 75.8277,113.597 74,115.5C 73.5581,113.321 72.5581,112.655 71,113.5C 69.9148,112.707 68.7481,112.04 67.5,111.5C 66.4937,111.938 66.4937,112.604 67.5,113.5C 66.9984,114.521 66.3317,114.688 65.5,114C 64.8903,112.053 64.0569,110.219 63,108.5C 62.5172,109.448 62.3505,110.448 62.5,111.5C 60.8002,111.374 59.3002,110.707 58,109.5C 56.5232,110.444 55.5232,111.777 55,113.5C 55.5697,111.307 55.2363,109.307 54,107.5C 53.082,109.632 51.7487,110.299 50,109.5C 49.6667,110.5 49.3333,111.5 49,112.5C 46.6884,110.84 44.1884,110.007 41.5,110C 43.661,111.764 43.8277,113.597 42,115.5C 41.5581,113.321 40.5581,112.655 39,113.5C 37.9148,112.707 36.7481,112.04 35.5,111.5C 34.4937,111.938 34.4937,112.604 35.5,113.5C 34.9984,114.521 34.3317,114.688 33.5,114C 32.8903,112.053 32.0569,110.219 31,108.5C 30.5172,109.448 30.3505,110.448 30.5,111.5C 28.8002,111.374 27.3002,110.707 26,109.5C 24.5232,110.444 23.5232,111.777 23,113.5C 23.5697,111.307 23.2363,109.307 22,107.5C 21.082,109.632 19.7487,110.299 18,109.5C 17.6667,110.5 17.3333,111.5 17,112.5C 14.6884,110.84 12.1884,110.007 9.5,110C 11.661,111.764 11.8277,113.597 10,115.5C 9.55815,113.321 8.55815,112.655 7,113.5C 5.51299,112.747 5.34633,111.914 6.5,111C 4.07963,110.71 1.7463,110.21 -0.5,109.5C -0.5,98.1667 -0.5,86.8333 -0.5,75.5C 0.58956,77.7633 1.92289,77.93 3.5,76C 1.4049,75.4444 1.23824,74.9444 3,74.5C 4.99656,75.0958 7.16323,76.0958 9.5,77.5C 10.5,76.8333 11.5,76.1667 12.5,75.5C 16.5901,76.5635 20.5901,76.2301 24.5,74.5C 24.8333,75.1667 25.1667,75.8333 25.5,76.5C 26.623,74.711 27.9564,74.3776 29.5,75.5C 28.8333,75.8333 28.1667,76.1667 27.5,76.5C 29.2592,77.754 30.7592,77.4206 32,75.5C 32.8333,78 34,78.1667 35.5,76C 33.4049,75.4444 33.2382,74.9444 35,74.5C 36.9966,75.0958 39.1632,76.0958 41.5,77.5C 42.7989,76.91 43.6322,75.91 44,74.5C 44.9025,75.7014 46.0692,76.5348 47.5,77C 55.1728,77.9515 62.1728,80.4515 68.5,84.5 Z"/></g>
<g><path style="opacity:1" fill="#53a0df" d="M 137.5,77.5 C 137.5,84.1667 137.5,90.8333 137.5,97.5C 139.833,97.5 142.167,97.5 144.5,97.5C 144.334,92.8215 144.501,88.1548 145,83.5C 145.667,82.8333 146.333,82.1667 147,81.5C 151.546,86.3774 155.713,91.544 159.5,97C 162.167,97.6667 164.833,97.6667 167.5,97C 164.949,93.9556 162.616,90.7889 160.5,87.5C 161.635,85.9122 162.969,85.5788 164.5,86.5C 164.533,85.011 165.033,83.6776 166,82.5C 167.524,84.9233 168.524,87.9233 169,91.5C 169.383,90.944 169.883,90.6107 170.5,90.5C 174.951,96.5545 180.951,99.0545 188.5,98C 195.143,96.8597 198.81,93.0263 199.5,86.5C 197.473,86.3379 195.473,86.5045 193.5,87C 192.5,89.3333 190.833,91 188.5,92C 180.324,93.2464 175.991,89.7464 175.5,81.5C 183.833,81.5 192.167,81.5 200.5,81.5C 201.084,79.2573 202.25,77.2573 204,75.5C 203.97,78.3615 204.803,80.6948 206.5,82.5C 210.046,92.5296 217.213,97.8629 228,98.5C 238.62,98.4589 245.454,93.4589 248.5,83.5C 249.518,87.1297 251.351,87.463 254,84.5C 254.317,86.3008 254.984,86.6341 256,85.5C 256.176,89.6877 256.676,93.6877 257.5,97.5C 267.5,97.5 277.5,97.5 287.5,97.5C 287.5,95.5 287.5,93.5 287.5,91.5C 280.018,90.508 272.352,90.1746 264.5,90.5C 264.5,88.8333 264.5,87.1667 264.5,85.5C 266.247,85.5926 268.081,85.926 270,86.5C 270.333,85.8333 270.667,85.1667 271,84.5C 271.85,85.4239 272.85,85.4239 274,84.5C 275.904,85.3505 277.904,86.3505 280,87.5C 282.088,86.6919 284.088,85.6919 286,84.5C 286.333,85.1667 286.667,85.8333 287,86.5C 288.789,86.3775 290.622,86.3775 292.5,86.5C 292.533,85.011 293.033,83.6776 294,82.5C 294.5,83 295,83.5 295.5,84C 294.346,84.9138 294.513,85.7471 296,86.5C 297.107,85.2881 297.607,85.6214 297.5,87.5C 296.146,91.0317 294.146,94.1984 291.5,97C 294.167,97.6667 296.833,97.6667 299.5,97C 303.71,90.7458 308.044,84.5791 312.5,78.5C 316.892,84.228 320.892,90.228 324.5,96.5C 327.446,97.6548 330.446,97.8214 333.5,97C 330.854,94.1984 328.854,91.0317 327.5,87.5C 327.783,86.7109 328.283,86.0442 329,85.5C 330.583,85.493 332.249,85.8263 334,86.5C 334.333,85.8333 334.667,85.1667 335,84.5C 335.85,85.4239 336.85,85.4239 338,84.5C 339.032,86.1445 340.199,86.4779 341.5,85.5C 344.274,87.3537 347.108,87.0203 350,84.5C 350.333,85.1667 350.667,85.8333 351,86.5C 352.789,86.3775 354.622,86.3775 356.5,86.5C 356.533,85.011 357.033,83.6776 358,82.5C 358.667,83.8333 359.333,85.1667 360,86.5C 361.765,85.7607 363.765,85.7607 366,86.5C 366.333,85.8333 366.667,85.1667 367,84.5C 367.85,85.4239 368.85,85.4239 370,84.5C 370.945,84.9054 371.612,85.572 372,86.5C 373.145,85.3157 374.312,85.3157 375.5,86.5C 375.5,94.1667 375.5,101.833 375.5,109.5C 374.778,109.082 374.278,108.416 374,107.5C 373.082,109.632 371.749,110.299 370,109.5C 369.667,110.5 369.333,111.5 369,112.5C 366.688,110.84 364.188,110.007 361.5,110C 363.661,111.764 363.828,113.597 362,115.5C 361.558,113.321 360.558,112.655 359,113.5C 358.517,112.552 358.351,111.552 358.5,110.5C 355.635,110.945 353.135,110.278 351,108.5C 350.517,109.448 350.351,110.448 350.5,111.5C 348.8,111.374 347.3,110.707 346,109.5C 344.523,110.444 343.523,111.777 343,113.5C 343.57,111.307 343.236,109.307 342,107.5C 341.082,109.632 339.749,110.299 338,109.5C 337.667,110.5 337.333,111.5 337,112.5C 334.688,110.84 332.188,110.007 329.5,110C 331.661,111.764 331.828,113.597 330,115.5C 329.558,113.321 328.558,112.655 327,113.5C 326.517,112.552 326.351,111.552 326.5,110.5C 323.635,110.945 321.135,110.278 319,108.5C 318.517,109.448 318.351,110.448 318.5,111.5C 316.8,111.374 315.3,110.707 314,109.5C 312.523,110.444 311.523,111.777 311,113.5C 311.57,111.307 311.236,109.307 310,107.5C 309.082,109.632 307.749,110.299 306,109.5C 305.667,110.5 305.333,111.5 305,112.5C 302.688,110.84 300.188,110.007 297.5,110C 299.661,111.764 299.828,113.597 298,115.5C 297.558,113.321 296.558,112.655 295,113.5C 294.517,112.552 294.351,111.552 294.5,110.5C 291.635,110.945 289.135,110.278 287,108.5C 286.517,109.448 286.351,110.448 286.5,111.5C 284.8,111.374 283.3,110.707 282,109.5C 280.523,110.444 279.523,111.777 279,113.5C 279.57,111.307 279.236,109.307 278,107.5C 277.082,109.632 275.749,110.299 274,109.5C 273.667,110.5 273.333,111.5 273,112.5C 270.688,110.84 268.188,110.007 265.5,110C 267.661,111.764 267.828,113.597 266,115.5C 265.558,113.321 264.558,112.655 263,113.5C 262.517,112.552 262.351,111.552 262.5,110.5C 259.635,110.945 257.135,110.278 255,108.5C 254.517,109.448 254.351,110.448 254.5,111.5C 252.8,111.374 251.3,110.707 250,109.5C 248.523,110.444 247.523,111.777 247,113.5C 247.57,111.307 247.236,109.307 246,107.5C 245.082,109.632 243.749,110.299 242,109.5C 241.667,110.5 241.333,111.5 241,112.5C 238.688,110.84 236.188,110.007 233.5,110C 235.661,111.764 235.828,113.597 234,115.5C 233.558,113.321 232.558,112.655 231,113.5C 229.915,112.707 228.748,112.04 227.5,111.5C 226.494,111.938 226.494,112.604 227.5,113.5C 226.998,114.521 226.332,114.688 225.5,114C 224.89,112.053 224.057,110.219 223,108.5C 222.517,109.448 222.351,110.448 222.5,111.5C 220.8,111.374 219.3,110.707 218,109.5C 216.523,110.444 215.523,111.777 215,113.5C 215.57,111.307 215.236,109.307 214,107.5C 212.333,109.167 210.667,110.833 209,112.5C 206.688,110.84 204.188,110.007 201.5,110C 203.661,111.764 203.828,113.597 202,115.5C 201.558,113.321 200.558,112.655 199,113.5C 197.915,112.707 196.748,112.04 195.5,111.5C 194.494,111.938 194.494,112.604 195.5,113.5C 194.998,114.521 194.332,114.688 193.5,114C 192.89,112.053 192.057,110.219 191,108.5C 190.517,109.448 190.351,110.448 190.5,111.5C 188.8,111.374 187.3,110.707 186,109.5C 184.523,110.444 183.523,111.777 183,113.5C 183.57,111.307 183.236,109.307 182,107.5C 180.333,109.167 178.667,110.833 177,112.5C 174.688,110.84 172.188,110.007 169.5,110C 171.661,111.764 171.828,113.597 170,115.5C 169.558,113.321 168.558,112.655 167,113.5C 165.915,112.707 164.748,112.04 163.5,111.5C 162.494,111.938 162.494,112.604 163.5,113.5C 162.998,114.521 162.332,114.688 161.5,114C 160.89,112.053 160.057,110.219 159,108.5C 158.517,109.448 158.351,110.448 158.5,111.5C 156.8,111.374 155.3,110.707 154,109.5C 152.523,110.444 151.523,111.777 151,113.5C 151.57,111.307 151.236,109.307 150,107.5C 148.333,109.167 146.667,110.833 145,112.5C 142.688,110.84 140.188,110.007 137.5,110C 139.661,111.764 139.828,113.597 138,115.5C 137.558,113.321 136.558,112.655 135,113.5C 133.915,112.707 132.748,112.04 131.5,111.5C 130.494,111.938 130.494,112.604 131.5,113.5C 130.998,114.521 130.332,114.688 129.5,114C 128.89,112.053 128.057,110.219 127,108.5C 126.517,109.448 126.351,110.448 126.5,111.5C 124.8,111.374 123.3,110.707 122,109.5C 120.523,110.444 119.523,111.777 119,113.5C 119.57,111.307 119.236,109.307 118,107.5C 116.333,109.167 114.667,110.833 113,112.5C 110.688,110.84 108.188,110.007 105.5,110C 107.661,111.764 107.828,113.597 106,115.5C 105.558,113.321 104.558,112.655 103,113.5C 101.915,112.707 100.748,112.04 99.5,111.5C 98.4937,111.938 98.4937,112.604 99.5,113.5C 98.9984,114.521 98.3317,114.688 97.5,114C 96.8903,112.053 96.0569,110.219 95,108.5C 94.6397,110.421 93.8064,112.088 92.5,113.5C 91.5713,112.311 91.238,110.978 91.5,109.5C 90.5,109.5 89.5,109.5 88.5,109.5C 88.3339,103.824 88.5006,98.1569 89,92.5C 90.8396,95.1759 93.3396,97.0092 96.5,98C 105.932,98.7303 111.932,94.5637 114.5,85.5C 115.824,84.0654 117.491,83.0654 119.5,82.5C 120.167,87.6511 120.834,92.6511 121.5,97.5C 123.5,97.5 125.5,97.5 127.5,97.5C 128.167,90.9881 128.833,84.3214 129.5,77.5C 132.028,76.5022 132.028,75.6689 129.5,75C 132.1,75.6968 134.767,76.5301 137.5,77.5 Z"/></g>
<g><path style="opacity:1" fill="#4f9de0" d="M 81.5,109.5 C 81.8333,109.5 82.1667,109.5 82.5,109.5C 84.5,109.5 86.5,109.5 88.5,109.5C 89.5,109.5 90.5,109.5 91.5,109.5C 91.238,110.978 91.5713,112.311 92.5,113.5C 93.8064,112.088 94.6397,110.421 95,108.5C 96.0569,110.219 96.8903,112.053 97.5,114C 98.3317,114.688 98.9984,114.521 99.5,113.5C 98.4937,112.604 98.4937,111.938 99.5,111.5C 100.748,112.04 101.915,112.707 103,113.5C 104.558,112.655 105.558,113.321 106,115.5C 107.828,113.597 107.661,111.764 105.5,110C 108.188,110.007 110.688,110.84 113,112.5C 114.667,110.833 116.333,109.167 118,107.5C 119.236,109.307 119.57,111.307 119,113.5C 119.523,111.777 120.523,110.444 122,109.5C 123.3,110.707 124.8,111.374 126.5,111.5C 126.351,110.448 126.517,109.448 127,108.5C 128.057,110.219 128.89,112.053 129.5,114C 130.332,114.688 130.998,114.521 131.5,113.5C 130.494,112.604 130.494,111.938 131.5,111.5C 132.748,112.04 133.915,112.707 135,113.5C 136.558,112.655 137.558,113.321 138,115.5C 139.828,113.597 139.661,111.764 137.5,110C 140.188,110.007 142.688,110.84 145,112.5C 146.667,110.833 148.333,109.167 150,107.5C 151.236,109.307 151.57,111.307 151,113.5C 151.523,111.777 152.523,110.444 154,109.5C 155.3,110.707 156.8,111.374 158.5,111.5C 158.351,110.448 158.517,109.448 159,108.5C 160.057,110.219 160.89,112.053 161.5,114C 162.332,114.688 162.998,114.521 163.5,113.5C 162.494,112.604 162.494,111.938 163.5,111.5C 164.748,112.04 165.915,112.707 167,113.5C 168.558,112.655 169.558,113.321 170,115.5C 171.828,113.597 171.661,111.764 169.5,110C 172.188,110.007 174.688,110.84 177,112.5C 178.667,110.833 180.333,109.167 182,107.5C 183.236,109.307 183.57,111.307 183,113.5C 183.523,111.777 184.523,110.444 186,109.5C 187.3,110.707 188.8,111.374 190.5,111.5C 190.351,110.448 190.517,109.448 191,108.5C 192.057,110.219 192.89,112.053 193.5,114C 194.332,114.688 194.998,114.521 195.5,113.5C 194.494,112.604 194.494,111.938 195.5,111.5C 196.748,112.04 197.915,112.707 199,113.5C 200.558,112.655 201.558,113.321 202,115.5C 203.828,113.597 203.661,111.764 201.5,110C 204.188,110.007 206.688,110.84 209,112.5C 210.667,110.833 212.333,109.167 214,107.5C 215.236,109.307 215.57,111.307 215,113.5C 215.523,111.777 216.523,110.444 218,109.5C 219.3,110.707 220.8,111.374 222.5,111.5C 222.351,110.448 222.517,109.448 223,108.5C 224.057,110.219 224.89,112.053 225.5,114C 226.332,114.688 226.998,114.521 227.5,113.5C 226.494,112.604 226.494,111.938 227.5,111.5C 228.748,112.04 229.915,112.707 231,113.5C 232.558,112.655 233.558,113.321 234,115.5C 235.828,113.597 235.661,111.764 233.5,110C 236.188,110.007 238.688,110.84 241,112.5C 241.333,111.5 241.667,110.5 242,109.5C 243.749,110.299 245.082,109.632 246,107.5C 247.236,109.307 247.57,111.307 247,113.5C 247.523,111.777 248.523,110.444 250,109.5C 251.3,110.707 252.8,111.374 254.5,111.5C 254.351,110.448 254.517,109.448 255,108.5C 257.135,110.278 259.635,110.945 262.5,110.5C 262.351,111.552 262.517,112.552 263,113.5C 264.558,112.655 265.558,113.321 266,115.5C 267.828,113.597 267.661,111.764 265.5,110C 268.188,110.007 270.688,110.84 273,112.5C 273.333,111.5 273.667,110.5 274,109.5C 275.749,110.299 277.082,109.632 278,107.5C 279.236,109.307 279.57,111.307 279,113.5C 279.523,111.777 280.523,110.444 282,109.5C 283.3,110.707 284.8,111.374 286.5,111.5C 286.351,110.448 286.517,109.448 287,108.5C 289.135,110.278 291.635,110.945 294.5,110.5C 294.351,111.552 294.517,112.552 295,113.5C 296.558,112.655 297.558,113.321 298,115.5C 299.828,113.597 299.661,111.764 297.5,110C 300.188,110.007 302.688,110.84 305,112.5C 305.333,111.5 305.667,110.5 306,109.5C 307.749,110.299 309.082,109.632 310,107.5C 311.236,109.307 311.57,111.307 311,113.5C 311.523,111.777 312.523,110.444 314,109.5C 315.3,110.707 316.8,111.374 318.5,111.5C 318.351,110.448 318.517,109.448 319,108.5C 321.135,110.278 323.635,110.945 326.5,110.5C 326.351,111.552 326.517,112.552 327,113.5C 328.558,112.655 329.558,113.321 330,115.5C 331.828,113.597 331.661,111.764 329.5,110C 332.188,110.007 334.688,110.84 337,112.5C 337.333,111.5 337.667,110.5 338,109.5C 339.749,110.299 341.082,109.632 342,107.5C 343.236,109.307 343.57,111.307 343,113.5C 343.523,111.777 344.523,110.444 346,109.5C 347.3,110.707 348.8,111.374 350.5,111.5C 350.351,110.448 350.517,109.448 351,108.5C 353.135,110.278 355.635,110.945 358.5,110.5C 358.351,111.552 358.517,112.552 359,113.5C 360.558,112.655 361.558,113.321 362,115.5C 363.828,113.597 363.661,111.764 361.5,110C 364.188,110.007 366.688,110.84 369,112.5C 369.333,111.5 369.667,110.5 370,109.5C 371.749,110.299 373.082,109.632 374,107.5C 374.278,108.416 374.778,109.082 375.5,109.5C 375.5,121.5 375.5,133.5 375.5,145.5C 250.167,145.5 124.833,145.5 -0.5,145.5C -0.5,133.5 -0.5,121.5 -0.5,109.5C 1.7463,110.21 4.07963,110.71 6.5,111C 5.34633,111.914 5.51299,112.747 7,113.5C 8.55815,112.655 9.55815,113.321 10,115.5C 11.8277,113.597 11.661,111.764 9.5,110C 12.1884,110.007 14.6884,110.84 17,112.5C 17.3333,111.5 17.6667,110.5 18,109.5C 19.7487,110.299 21.082,109.632 22,107.5C 23.2363,109.307 23.5697,111.307 23,113.5C 23.5232,111.777 24.5232,110.444 26,109.5C 27.3002,110.707 28.8002,111.374 30.5,111.5C 30.3505,110.448 30.5172,109.448 31,108.5C 32.0569,110.219 32.8903,112.053 33.5,114C 34.3317,114.688 34.9984,114.521 35.5,113.5C 34.4937,112.604 34.4937,111.938 35.5,111.5C 36.7481,112.04 37.9148,112.707 39,113.5C 40.5581,112.655 41.5581,113.321 42,115.5C 43.8277,113.597 43.661,111.764 41.5,110C 44.1884,110.007 46.6884,110.84 49,112.5C 49.3333,111.5 49.6667,110.5 50,109.5C 51.7487,110.299 53.082,109.632 54,107.5C 55.2363,109.307 55.5697,111.307 55,113.5C 55.5232,111.777 56.5232,110.444 58,109.5C 59.3002,110.707 60.8002,111.374 62.5,111.5C 62.3505,110.448 62.5172,109.448 63,108.5C 64.0569,110.219 64.8903,112.053 65.5,114C 66.3317,114.688 66.9984,114.521 67.5,113.5C 66.4937,112.604 66.4937,111.938 67.5,111.5C 68.7481,112.04 69.9148,112.707 71,113.5C 72.5581,112.655 73.5581,113.321 74,115.5C 75.8277,113.597 75.661,111.764 73.5,110C 76.1884,110.007 78.6884,110.84 81,112.5C 81.4828,111.552 81.6495,110.552 81.5,109.5 Z"/></g>
</svg>
