<svg xmlns="http://www.w3.org/2000/svg" width="200" height="200" style="shape-rendering:geometricPrecision;text-rendering:geometricPrecision;image-rendering:optimizeQuality;fill-rule:evenodd;clip-rule:evenodd"><path style="opacity:.475" fill="#777884" d="M122.5 57.5c-.06.543-.393.876-1 1-4.986-2.834-10.32-3.667-16-2.5-2.652 2.848-4.652 6.015-6 9.5 1.001-9.832 6.334-13.665 16-11.5 2.569.898 4.902 2.065 7 3.5z"/><path style="opacity:1" fill="#8d8e9a" d="M122.5 57.5c1.653.16 2.986.826 4 2-2.884 4.607-5.217 9.607-7 15 .457.797 1.124 1.13 2 1-1.838 1.178-3.505.845-5-1 2.272-1.297 3.105-3.297 2.5-6-2.369.227-4.869.393-7.5.5a16.66 16.66 0 0 1-4 4c1.669 2.356 3.669 3.19 6 2.5.153 3.035-1.18 5.035-4 6 .221-1.235.888-2.235 2-3a9297.543 9297.543 0 0 1-13-7.5c.906-1.7 1.24-3.533 1-5.5 1.348-3.485 3.348-6.652 6-9.5 5.68-1.167 11.014-.334 16 2.5.607-.124.94-.457 1-1z"/><path style="opacity:1" fill="#737480" d="M126.5 59.5c.838.342 1.172 1.008 1 2 .027 1.7.694 3.033 2 4-3.81-.524-5.81 1.143-6 5-1.299 1.653-.966 3.153 1 4.5a2.427 2.427 0 0 1-2 .5h-1c-.876.13-1.543-.203-2-1 1.783-5.393 4.116-10.393 7-15z"/><path style="opacity:.886" fill="#656673" d="M127.5 61.5a328.516 328.516 0 0 0 21 12c.131.876-.202 1.543-1 2a35.168 35.168 0 0 0-10-5 46.706 46.706 0 0 0-8-5c-1.306-.967-1.973-2.3-2-4z"/><path style="opacity:1" fill="#7d7e8a" d="M116.5 74.5a5.728 5.728 0 0 0-3 1c-2.331.69-4.331-.144-6-2.5a16.66 16.66 0 0 0 4-4c2.631-.107 5.131-.273 7.5-.5.605 2.703-.228 4.703-2.5 6z"/><path style="opacity:.926" fill="#747481" d="M99.5 65.5c.24 1.967-.094 3.8-1 5.5 4.301 2.486 8.635 4.986 13 7.5-1.112.765-1.779 1.765-2 3a643.066 643.066 0 0 1-18 44c-1.113-1.446-1.28-3.113-.5-5a112.698 112.698 0 0 0 4.5-14 520.569 520.569 0 0 0 12-27.5c-.856-1.595-2.189-2.428-4-2.5-.709-.904-1.709-1.237-3-1a26393.632 26393.632 0 0 0-14.5 37 14.833 14.833 0 0 1-3.5 4c-.797-.457-1.13-1.124-1-2a703.23 703.23 0 0 1 16-40.5c-.897-3.155-.23-5.988 2-8.5z"/><path style="opacity:1" fill="#888894" d="M103.5 76.5c-1.67 2.383-3.004 5.05-4 8a3.65 3.65 0 0 0 1 1.5 267.825 267.825 0 0 1-7 12l1 1-6 12c.556.383.89.883 1 1.5-.31 1.238-.81 1.238-1.5 0-2.554 7.686-5.887 15.353-10 23a8.435 8.435 0 0 0-.5 4c-2.688-.524-4.188-2.191-4.5-5-.383.556-.883.889-1.5 1 3.08-7.16 6.414-14.16 10-21-.13.876.203 1.543 1 2a14.833 14.833 0 0 0 3.5-4c4.804-12.285 9.637-24.619 14.5-37 1.291-.237 2.291.096 3 1z"/><path style="opacity:1" fill="#8d8e99" d="M129.5 65.5a46.706 46.706 0 0 1 8 5 72.988 72.988 0 0 0 9 8c-.406 2.484-1.573 4.484-3.5 6A1294.26 1294.26 0 0 0 124.5 73c-.752-.67-1.086-1.504-1-2.5.19-3.857 2.19-5.524 6-5z"/><path style="opacity:1" fill="#91909c" d="M150.5 74.5h1c-.17 1.322.163 2.489 1 3.5l8 5 5 .5c2.14-.056 3.806-.723 5-2h2c.418 6.17 1.085 12.17 2 18-4.667 1.333-9.333 1.333-14 0a31.12 31.12 0 0 0 11-1c-8.948.356-16.614-2.477-23-8.5-1.077-.47-2.077-.303-3 .5-1.527.073-2.527-.594-3-2 .996-.086 1.829.248 2.5 1a132.088 132.088 0 0 1 5.5-15z"/><path style="opacity:.937" fill="#787884" d="M12.5 80.5a408.523 408.523 0 0 1 33-.5c3.346 1.85 5.346 4.684 6 8.5a48.753 48.753 0 0 1-7-7.5 98.433 98.433 0 0 0-14-.5v16a92.548 92.548 0 0 0-10.5-1 208.344 208.344 0 0 1-16.5 2v-19c3.512-.555 6.512.112 9 2z"/><path style="opacity:.588" fill="#767683" d="M151.5 74.5c5.391 4.861 11.725 7.195 19 7-1.194 1.277-2.86 1.944-5 2l-5-.5-8-5c-.837-1.011-1.17-2.178-1-3.5z"/><path style="opacity:1" fill="#7d7d89" d="M123.5 70.5c-.086.996.248 1.83 1 2.5A1294.26 1294.26 0 0 1 143 84.5c1.927-1.516 3.094-3.516 3.5-6a72.988 72.988 0 0 1-9-8 35.168 35.168 0 0 1 10 5c.798-.457 1.131-1.124 1-2 .992-.172 1.658.162 2 1a132.088 132.088 0 0 0-5.5 15c-.671-.752-1.504-1.086-2.5-1l-20-13a2.427 2.427 0 0 0 2-.5c-1.966-1.347-2.299-2.847-1-4.5z"/><path style="opacity:.886" fill="#6b6b77" d="M172.5 81.5c5.908 2.13 11.908 2.464 18 1v3c-5.195-.32-10.195.013-15 1v9c5.249.359 10.249 1.359 15 3a75.414 75.414 0 0 0-16 1 205.827 205.827 0 0 1-2-18z"/><path style="opacity:1" fill="#8e8e9a" d="M12.5 80.5v3h16v9a98.789 98.789 0 0 0-22 2v-14h6z"/><path style="opacity:1" fill="#8f8f9b" d="M175.5 95.5v-9h16v-3h5v14a81.99 81.99 0 0 0-21-2z"/><path style="opacity:1" fill="#8e909a" d="M103.5 76.5c1.811.072 3.144.905 4 2.5a520.569 520.569 0 0 1-12 27.5h-3c.469 2.893-.531 4.893-3 6-.11-.617-.444-1.117-1-1.5l6-12-1-1a267.825 267.825 0 0 0 7-12 3.65 3.65 0 0 1-1-1.5c.996-2.95 2.33-5.617 4-8z"/><path style="opacity:1" fill="#8f909c" d="M51.5 88.5a83.376 83.376 0 0 1 2 18c-.934-1.068-1.268-2.401-1-4h-16v-1c2.897.375 5.563-.125 8-1.5-2.19-2.616-3.524-5.616-4-9a45.785 45.785 0 0 0-9-2.5v8h-1v-16c4.678-.166 9.345 0 14 .5a48.753 48.753 0 0 0 7 7.5z"/><path style="opacity:1" fill="#81818e" d="M36.5 101.5c-.633-2.634-2.3-4.3-5-5v-8a45.785 45.785 0 0 1 9 2.5c.476 3.384 1.81 6.384 4 9-2.437 1.375-5.103 1.875-8 1.5z"/><path style="opacity:.698" fill="#767683" d="M160.5 99.5c-6.257-.928-11.257-3.928-15-9 .923-.803 1.923-.97 3-.5 6.386 6.023 14.052 8.856 23 8.5a31.12 31.12 0 0 1-11 1z"/><path style="opacity:1" fill="#777783" d="M199.5 81.5v18c-3.213.31-6.213-.023-9-1-4.751-1.641-9.751-2.641-15-3a81.99 81.99 0 0 1 21 2v-14h-5v3h-16c4.805-.987 9.805-1.32 15-1v-3c2.787-.977 5.787-1.31 9-1z"/><path style="opacity:.733" fill="#9b9aa7" d="M53.5 106.5c1.238 1.714 1.905 3.714 2 6-1.574-1.602-2.24-3.602-2-6z"/><path style="opacity:1" fill="#8e8f9a" d="M95.5 106.5a112.698 112.698 0 0 1-4.5 14c-.78 1.887-.613 3.554.5 5 .172.992-.162 1.658-1 2-.283-.789-.783-1.456-1.5-2a347.236 347.236 0 0 0-8.5 15.5c-1.498.585-2.498.085-3-1.5a8.435 8.435 0 0 1 .5-4c4.113-7.647 7.446-15.314 10-23 .69 1.238 1.19 1.238 1.5 0 2.469-1.107 3.469-3.107 3-6h3z"/><path style="opacity:1" fill="#8d8f9a" d="M47.5 132.5c-.838-.342-1.172-1.008-1-2 1.194-.47 1.86-1.47 2-3a105.877 105.877 0 0 0-7-22 16.874 16.874 0 0 1 8-1 2952.537 2952.537 0 0 0 10 34.5c-1.128 2.296-2.795 4.129-5 5.5a73.022 73.022 0 0 1-4-13c-1.291-.237-2.291.096-3 1z"/><path style="opacity:1" fill="#797986" d="M36.5 102.5h16c-.268 1.599.066 2.932 1 4-.24 2.398.426 4.398 2 6a458.558 458.558 0 0 1 7 23c.528 1.347.695 2.681.5 4-4 3.169-7.834 6.503-11.5 10a923.433 923.433 0 0 0-4-17c.709-.904 1.709-1.237 3-1a73.022 73.022 0 0 0 4 13c2.205-1.371 3.872-3.204 5-5.5a2952.537 2952.537 0 0 1-10-34.5 16.874 16.874 0 0 0-8 1 105.877 105.877 0 0 1 7 22c-.14 1.53-.806 2.53-2 3a232.367 232.367 0 0 0-10-28z"/><path style="opacity:.99" fill="#8e8f9b" d="M62.5 135.5c1.645.979 2.979 2.312 4 4a184.223 184.223 0 0 1 3-2c-.747 3.536-2.747 4.703-6 3.5l-6 6a12.473 12.473 0 0 1 5 4c2 .667 4 .667 6 0 2.35-3.842 5.683-5.508 10-5-.248 4.85-2.248 9.183-6 13-5.47 3.252-10.803 3.085-16-.5-2.424-2.508-4.09-5.508-5-9 3.666-3.497 7.5-6.831 11.5-10 .195-1.319.028-2.653-.5-4z"/><path style="opacity:1" fill="#70707d" d="M90.5 127.5a1262.13 1262.13 0 0 0-8 20c-3.288-3.272-6.955-6.272-11-9-.886-.825-1.219-1.825-1-3h1c.617-.111 1.117-.444 1.5-1 .312 2.809 1.812 4.476 4.5 5 .502 1.585 1.502 2.085 3 1.5a347.236 347.236 0 0 1 8.5-15.5c.717.544 1.217 1.211 1.5 2z"/><path style="opacity:1" fill="#848591" d="M70.5 135.5c-.219 1.175.114 2.175 1 3 4.045 2.728 7.712 5.728 11 9a5265.59 5265.59 0 0 0-7.5 13c-5.604 4.848-11.437 5.181-17.5 1a5.577 5.577 0 0 1-1-3c5.197 3.585 10.53 3.752 16 .5 3.752-3.817 5.752-8.15 6-13-4.317-.508-7.65 1.158-10 5-2 .667-4 .667-6 0a12.473 12.473 0 0 0-5-4l6-6c3.253 1.203 5.253.036 6-3.5-.172-.992.162-1.658 1-2z"/></svg>