<svg xmlns="http://www.w3.org/2000/svg" width="2148" height="800" style="shape-rendering:geometricPrecision;text-rendering:geometricPrecision;image-rendering:optimizeQuality;fill-rule:evenodd;clip-rule:evenodd"><path style="opacity:1" fill="#fefefe" d="M-.5-.5h2148v800H-.5V-.5z"/><path style="opacity:1" fill="#5a5757" d="M574.5 67.5v1h-3v274h-1v-275h4z"/><path style="opacity:1" fill="#221f1f" d="M574.5 68.5v274h-3v-274h3z"/><path style="opacity:1" fill="#918f8f" d="M574.5 67.5c.999 91.832 1.333 183.832 1 276-1.915.284-3.581-.049-5-1h4v-275z"/><path style="opacity:1" fill="#5a5757" d="M603.5 67.5v1h-3v274h-1v-275h4z"/><path style="opacity:1" fill="#221f1f" d="M603.5 68.5v274h-3v-274h3z"/><path style="opacity:1" fill="#918f8f" d="M603.5 67.5c.999 91.832 1.333 183.832 1 276-1.915.284-3.581-.049-5-1h4v-275z"/><path style="opacity:1" fill="#6c6969" d="M679.5 342.5a18908.39 18908.39 0 0 1-1-275h5v276c-1.599.268-2.932-.066-4-1z"/><path style="opacity:1" fill="#221f1f" d="M679.5 342.5v-274h3v274h-3z"/><path style="opacity:1" fill="#231f20" d="M687.5 67.5h4v275h-4v-275z"/><path style="opacity:1" fill="#6c6969" d="M854.5 342.5a18908.39 18908.39 0 0 1-1-275h5v276c-1.599.268-2.932-.066-4-1z"/><path style="opacity:1" fill="#221f1f" d="M854.5 342.5v-274h3v274h-3z"/><path style="opacity:1" fill="#231f20" d="M958.5 67.5h4v275h-4v-275zM1291.5 67.5h4v275h-4v-275zM1308.5 67.5h4v275h-4v-275zM1316.5 67.5h4v275h-4v-275zM1533.5 67.5h4v275h-4v-275zM1637.5 67.5h4v275h-4v-275zM1737.5 67.5h4v275h-4v-275zM1758.5 67.5h4v275h-4v-275z"/><path style="opacity:1" fill="#2b2728" d="M286.5 151.5h175v4h-173v150h75v4h-152v-4h73a3006.1 3006.1 0 0 1 2-154z"/><path style="opacity:1" fill="#ddb260" d="M226.5 344.5h119a85999.58 85999.58 0 0 0-54 378h-4a37166.816 37166.816 0 0 0-61-378z"/><path style="opacity:1" fill="#242021" d="M1208.5 568.5h13c.33-59.169 0-118.169-1-177-5.34.166-10.68-.001-16-.5-11.23.055-15.73-5.445-13.5-16.5 1.17-3.833 3.67-6.333 7.5-7.5a462.27 462.27 0 0 1 43 0c2.35.346 4.18 1.513 5.5 3.5.33 42 .67 84 1 126 16.17-13.5 32.33-27 48.5-40.5-3.91-2.032-7.07-4.866-9.5-8.5-2.22-7.782.61-12.616 8.5-14.5a840.83 840.83 0 0 1 58 0c6.86 2.549 9.36 7.383 7.5 14.5-1.78 4.824-5.28 7.658-10.5 8.5-14.71.678-27.71 5.678-39 15a414.63 414.63 0 0 0-29 26.5c21.85 23.35 43.52 46.85 65 70.5 8.08.098 16.08.765 24 2 3.47 2.525 5.13 6.025 5 10.5-.02 6.221-3.02 10.054-9 11.5-20 .667-40 .667-60 0-5.76-2.682-7.92-7.182-6.5-13.5 2.43-5.479 6.6-8.979 12.5-10.5a1976.23 1976.23 0 0 0-50.5-55.5 265.392 265.392 0 0 0-14.5 13c-.83 19.325-1.33 38.658-1.5 58-1.1 3.722-3.27 6.556-6.5 8.5-14.76.966-29.43.633-44-1-4.52-4.572-6.02-10.072-4.5-16.5 4.16-5.225 9.66-7.225 16.5-6z"/><path style="opacity:1" fill="#c4c3c3" d="M1220.5 391.5c1 58.831 1.33 117.831 1 177h-13c3.8-.983 7.8-1.317 12-1v-176z"/><path style="opacity:1" fill="#242021" d="M619.5 428.5c8.007-.166 16.007 0 24 .5a479.484 479.484 0 0 1 33.5 6.5 56.214 56.214 0 0 0 12.5-5.5c8.267-2.378 13.767.456 16.5 8.5a306.347 306.347 0 0 1 0 35c-2.248 10.207-8.082 13.041-17.5 8.5a220.438 220.438 0 0 0-26-24c-16.367-7.912-33.367-9.578-51-5-15.771 6.03-20.938 16.864-15.5 32.5a25.568 25.568 0 0 0 8.5 6.5 189.805 189.805 0 0 0 17 3 528.6 528.6 0 0 1 57 5c27.848 6.527 40.348 24.027 37.5 52.5-4.037 20.043-15.87 33.21-35.5 39.5-17.397 4.777-35.064 5.777-53 3a478.766 478.766 0 0 1-30-5.5 96.14 96.14 0 0 0-12 5.5c-4.694 1.932-9.361 1.932-14 0a36.078 36.078 0 0 1-3.5-4.5 310.916 310.916 0 0 1-1-49 17.842 17.842 0 0 1 4.5-5.5c4.456-.867 8.789-.534 13 1a154.043 154.043 0 0 1 10.5 17.5c17.082 15.693 37.248 22.193 60.5 19.5 10.152-.997 18.986-4.831 26.5-11.5 5.554-7.592 6.887-15.925 4-25-2.222-3.888-5.388-6.721-9.5-8.5a57.931 57.931 0 0 0-16-4l-38-1c-14.626-.542-27.959-4.876-40-13-15.236-13.806-19.736-30.639-13.5-50.5 5.229-12.228 14.062-20.728 26.5-25.5a233.44 233.44 0 0 1 24-6.5z"/><path style="opacity:1" fill="#ddb260" d="M856.5 428.5c32.4-2.709 58.567 8.624 78.5 34 15.242 25.78 17.576 52.78 7 81-17.402 36.291-46.236 52.124-86.5 47.5-12.396-1.574-23.563-6.074-33.5-13.5-.5 15.33-.667 30.663-.5 46 10.339-.166 20.672 0 31 .5 6.4 1.399 10.566 5.233 12.5 11.5 1.948 8.515.114 16.015-5.5 22.5a35.716 35.716 0 0 1-9 3c-30 .667-60 .667-90 0-9.213-2.906-13.213-9.239-12-19-.743-9.243 3.257-15.243 12-18 6.325-.5 12.658-.666 19-.5v-153c-10.696 1.577-17.529-2.756-20.5-13-1.061-6.224-.394-12.224 2-18 3.016-3.592 6.849-5.758 11.5-6.5a361.07 361.07 0 0 1 38 0c2.348.346 4.181 1.513 5.5 3.5l1 15c10.116-12.958 23.283-20.625 39.5-23z"/><path style="opacity:1" fill="#242021" d="M1481.5 428.5c34.68-3.565 62.84 8.102 84.5 35 9.07 14.022 13.07 29.355 12 46-1.24 6.883-5.41 10.383-12.5 10.5-44 .5-88 .667-132 .5 2.59 30.758 19.26 47.925 50 51.5 14.46 1.173 28.46-.827 42-6a340.647 340.647 0 0 1 40-15.5c11.51 2.681 14.67 9.348 9.5 20-7.13 6.484-15.29 11.318-24.5 14.5-25.4 10.23-51.74 13.897-79 11-37.88-7.216-60.38-29.716-67.5-67.5-5.47-43.569 11.36-74.736 50.5-93.5 8.88-3.304 17.88-5.471 27-6.5zM1684.5 428.5c10.04-.213 20.04.287 30 1.5 8.07 1.647 16.07 3.48 24 5.5a412.738 412.738 0 0 1 18.5-6c6.71.038 10.71 3.371 12 10 .67 10.333.67 20.667 0 31-.77 12.156-6.6 15.99-17.5 11.5-6.28-6.279-12.61-12.613-19-19-18.06-12.288-37.73-15.622-59-10-14.67 5.844-19.84 16.344-15.5 31.5 4.22 5.36 9.72 8.527 16.5 9.5 18.64 1.761 37.3 3.094 56 4 15.24 1.403 28.4 7.236 39.5 17.5 11.43 17.363 12.43 35.363 3 54-8.07 12.127-19.23 19.961-33.5 23.5-13.48 3.276-27.15 4.276-41 3a446.913 446.913 0 0 1-38.5-6.5 36.562 36.562 0 0 0-11.5 5.5c-10.18 4.162-16.68.995-19.5-9.5-.67-14-.67-28 0-42 2.91-7.651 8.41-10.151 16.5-7.5a4.473 4.473 0 0 0 2 1.5c9.87 21.95 26.87 34.117 51 36.5 14.45 2.091 28.12-.242 41-7 11.81-9.39 13.97-20.557 6.5-33.5-6.64-4.878-14.14-7.712-22.5-8.5l-38-1c-18.42-.468-34.26-6.968-47.5-19.5-8.05-11.787-10.72-24.787-8-39 5.05-15.382 15.21-25.882 30.5-31.5a307.018 307.018 0 0 1 24-5.5z"/><path style="opacity:1" fill="#ddb260" d="M984.5 432.5c19.34-.167 38.67 0 58 .5 10.76 1.758 16.09 8.091 16 19 .18 7.875-3.16 13.542-10 17-3.97.942-7.97 1.775-12 2.5a3418.866 3418.866 0 0 1 30.5 72 3541.036 3541.036 0 0 0 32.5-72c-14.48.291-21.48-6.709-21-21-.7-10.101 3.97-15.934 14-17.5 18-.667 36-.667 54 0 11 .997 16.33 6.997 16 18 .68 6.968-1.65 12.635-7 17a71.215 71.215 0 0 1-15 3.5 46121.179 46121.179 0 0 1-71 151.5l17 1c11.28 3.839 15.45 11.672 12.5 23.5-1.16 7.824-5.66 12.324-13.5 13.5-31.33.667-62.67.667-94 0-8.939-3.087-12.939-9.42-12-19-.648-9.675 3.686-15.675 13-18a649.65 649.65 0 0 0 36-1.5c5.33-11.333 10.67-22.667 16-34a9130.998 9130.998 0 0 0-52-117c-18.196-.709-25.363-10.042-21.5-28 2.616-6.128 7.116-9.794 13.5-11z"/><path style="opacity:1" fill="#fdfdfd" d="M1480.5 452.5c24.15-3.572 43.65 4.094 58.5 23a61.203 61.203 0 0 1 7.5 21 3137.2 3137.2 0 0 1-112 1c6.11-24.441 21.44-39.441 46-45z"/><path style="opacity:1" fill="#fefefd" d="M853.5 465.5c26.437-1.369 41.937 10.964 46.5 37 2.434 18.707-3.399 34.207-17.5 46.5-22.26 11.618-40.427 7.118-54.5-13.5-5.243-11.788-6.909-24.121-5-37 4.209-16.702 14.376-27.702 30.5-33z"/></svg>