<?xml version="1.0" encoding="UTF-8"?>
<!DOCTYPE svg PUBLIC "-//W3C//DTD SVG 1.1//EN" "http://www.w3.org/Graphics/SVG/1.1/DTD/svg11.dtd">
<svg xmlns="http://www.w3.org/2000/svg" version="1.1" width="200px" height="200px" style="shape-rendering:geometricPrecision; text-rendering:geometricPrecision; image-rendering:optimizeQuality; fill-rule:evenodd; clip-rule:evenodd" xmlns:xlink="http://www.w3.org/1999/xlink">
<g><path style="opacity:0.973" fill="#7f2e88" d="M 31.5,-0.5 C 76.8333,-0.5 122.167,-0.5 167.5,-0.5C 178.042,2.53179 186.542,8.53179 193,17.5C 193.791,18.745 194.291,20.0783 194.5,21.5C 192.156,20.3284 189.823,20.3284 187.5,21.5C 186.522,21.0233 185.689,20.3567 185,19.5C 184.601,19.7284 184.435,20.0618 184.5,20.5C 178.313,13.7374 170.646,9.57072 161.5,8C 119.5,7.33333 77.5,7.33333 35.5,8C 24.0032,10.3417 16.0032,16.8417 11.5,27.5C 9.3455,29.6174 8.3455,32.284 8.5,35.5C 8.16667,35.5 7.83333,35.5 7.5,35.5C 6.64506,40.0773 6.14506,45.4106 6,51.5C 3.8853,53.0599 1.71863,53.3932 -0.5,52.5C -0.5,45.5 -0.5,38.5 -0.5,31.5C 4.5,15.1667 15.1667,4.5 31.5,-0.5 Z"/></g>
<g><path style="opacity:1" fill="#ca9ccf" d="M 184.5,20.5 C 185.5,22.5 186.5,24.5 187.5,26.5C 187.631,27.2389 187.464,27.9056 187,28.5C 186.581,27.3279 185.915,26.3279 185,25.5C 183.355,25.6932 181.521,25.8598 179.5,26C 180.774,26.9772 180.774,27.8106 179.5,28.5C 175.803,22.9695 170.803,19.1361 164.5,17C 120.833,16.3333 77.1667,16.3333 33.5,17C 27.7712,19.5642 23.1045,23.3975 19.5,28.5C 17.3175,24.96 14.6508,24.6267 11.5,27.5C 16.0032,16.8417 24.0032,10.3417 35.5,8C 77.5,7.33333 119.5,7.33333 161.5,8C 170.646,9.57072 178.313,13.7374 184.5,20.5 Z"/></g>
<g><path style="opacity:1" fill="#aa61b0" d="M 179.5,28.5 C 181.918,32.8291 183.418,37.4958 184,42.5C 185.401,40.8078 187.234,40.1412 189.5,40.5C 189.205,42.7354 189.539,44.7354 190.5,46.5C 190.837,58.5542 190.504,69.2209 189.5,78.5C 189.5,73.8333 189.5,69.1667 189.5,64.5C 187.396,64.7989 185.396,64.4656 183.5,63.5C 184.855,62.3247 184.688,61.3247 183,60.5C 182.667,55.8333 182.333,51.1667 182,46.5C 181.517,47.448 181.351,48.448 181.5,49.5C 175.575,49.8082 169.741,49.4749 164,48.5C 163.667,49.1667 163.333,49.8333 163,50.5C 134.359,19.038 100.525,11.8713 61.5,29C 57.2576,31.6096 53.2576,34.4429 49.5,37.5C 44.8333,41.5 40.5,45.8333 36.5,50.5C 30.2564,49.5422 23.923,49.2088 17.5,49.5C 17.6495,48.448 17.4828,47.448 17,46.5C 16.7435,49.557 16.2435,52.557 15.5,55.5C 13.604,56.4656 11.604,56.7989 9.5,56.5C 9.66501,59.8499 9.49834,63.1832 9,66.5C 8.50042,59.8417 8.33375,53.175 8.5,46.5C 9.46822,44.3926 9.80155,42.0593 9.5,39.5C 11.7659,39.1412 13.5993,39.8078 15,41.5C 15.7392,36.8626 17.2392,32.5293 19.5,28.5C 23.1045,23.3975 27.7712,19.5642 33.5,17C 77.1667,16.3333 120.833,16.3333 164.5,17C 170.803,19.1361 175.803,22.9695 179.5,28.5 Z"/></g>
<g><path style="opacity:1" fill="#9f5aa5" d="M 189.5,78.5 C 183.174,78.8263 180.841,75.8263 182.5,69.5C 179.552,69.2229 176.719,69.5562 174,70.5C 173.751,69.376 173.251,68.376 172.5,67.5C 168.273,69.5008 165.107,68.5008 163,64.5C 162.601,64.7284 162.435,65.0618 162.5,65.5C 144.993,37.5832 119.66,25.4165 86.5,29C 74.9556,31.4489 64.6223,36.2823 55.5,43.5C 54.8106,42.2264 53.9772,42.2264 53,43.5C 52.0475,41.4078 50.7141,41.0745 49,42.5C 47.5629,40.7788 48.0629,39.2788 50.5,38C 50.2716,37.6012 49.9382,37.4346 49.5,37.5C 53.2576,34.4429 57.2576,31.6096 61.5,29C 100.525,11.8713 134.359,19.038 163,50.5C 163.333,49.8333 163.667,49.1667 164,48.5C 169.741,49.4749 175.575,49.8082 181.5,49.5C 181.351,48.448 181.517,47.448 182,46.5C 182.333,51.1667 182.667,55.8333 183,60.5C 184.688,61.3247 184.855,62.3247 183.5,63.5C 185.396,64.4656 187.396,64.7989 189.5,64.5C 189.5,69.1667 189.5,73.8333 189.5,78.5 Z"/></g>
<g><path style="opacity:1" fill="#fefdfe" d="M 162.5,65.5 C 166.269,73.6068 168.935,81.9401 170.5,90.5C 170.698,98.5341 170.365,106.534 169.5,114.5C 167.502,120.162 165.502,125.828 163.5,131.5C 145.196,162.314 118.196,174.814 82.5,169C 62.9843,163.309 47.9843,151.809 37.5,134.5C 32.4845,125.119 29.4845,115.119 28.5,104.5C 26.8959,79.3824 35.8959,59.0491 55.5,43.5C 64.6223,36.2823 74.9556,31.4489 86.5,29C 119.66,25.4165 144.993,37.5832 162.5,65.5 Z"/></g>
<g><path style="opacity:1" fill="#bc84c2" d="M 19.5,28.5 C 17.2392,32.5293 15.7392,36.8626 15,41.5C 13.5993,39.8078 11.7659,39.1412 9.5,39.5C 9.80155,42.0593 9.46822,44.3926 8.5,46.5C 8.5,42.8333 8.5,39.1667 8.5,35.5C 8.3455,32.284 9.3455,29.6174 11.5,27.5C 14.6508,24.6267 17.3175,24.96 19.5,28.5 Z"/></g>
<g><path style="opacity:1" fill="#ba80bf" d="M 187.5,26.5 C 189.68,29.381 190.68,32.7144 190.5,36.5C 190.5,39.8333 190.5,43.1667 190.5,46.5C 189.539,44.7354 189.205,42.7354 189.5,40.5C 187.234,40.1412 185.401,40.8078 184,42.5C 183.418,37.4958 181.918,32.8291 179.5,28.5C 180.774,27.8106 180.774,26.9772 179.5,26C 181.521,25.8598 183.355,25.6932 185,25.5C 185.915,26.3279 186.581,27.3279 187,28.5C 187.464,27.9056 187.631,27.2389 187.5,26.5 Z"/></g>
<g><path style="opacity:0.992" fill="#74297c" d="M 194.5,21.5 C 196.551,24.6582 198.217,27.9915 199.5,31.5C 199.5,39.8333 199.5,48.1667 199.5,56.5C 197.871,58.0603 196.704,57.727 196,55.5C 194.284,56.5523 193.284,55.8856 193,53.5C 192.617,54.056 192.117,54.3893 191.5,54.5C 191.823,48.31 191.49,42.31 190.5,36.5C 190.68,32.7144 189.68,29.381 187.5,26.5C 186.5,24.5 185.5,22.5 184.5,20.5C 184.435,20.0618 184.601,19.7284 185,19.5C 185.689,20.3567 186.522,21.0233 187.5,21.5C 189.823,20.3284 192.156,20.3284 194.5,21.5 Z"/></g>
<g><path style="opacity:0.994" fill="#66236e" d="M 7.5,35.5 C 7.5,50.8333 7.5,66.1667 7.5,81.5C 7.5,82.8333 7.5,84.1667 7.5,85.5C 6.74629,88.0227 6.07963,90.6894 5.5,93.5C 3.48436,94.6942 1.48436,94.6942 -0.5,93.5C -0.5,79.8333 -0.5,66.1667 -0.5,52.5C 1.71863,53.3932 3.8853,53.0599 6,51.5C 6.14506,45.4106 6.64506,40.0773 7.5,35.5 Z"/></g>
<g><path style="opacity:1" fill="#8c4b92" d="M 134.5,105.5 C 134.665,101.818 134.499,98.1516 134,94.5C 133.506,96.1341 133.34,97.8008 133.5,99.5C 131.167,99.5 128.833,99.5 126.5,99.5C 125.105,82.7719 116.105,73.7719 99.5,72.5C 82.4129,73.9219 73.4129,83.2552 72.5,100.5C 72.5,100.833 72.5,101.167 72.5,101.5C 70.3742,101.15 68.0408,101.15 65.5,101.5C 65.6633,99.1432 65.4966,96.8098 65,94.5C 64.5014,98.1516 64.3347,101.818 64.5,105.5C 62.9182,81.0851 74.4182,67.0851 99,63.5C 124.242,66.5504 136.075,80.5504 134.5,105.5 Z"/></g>
<g><path style="opacity:1" fill="#9a53a2" d="M 7.5,35.5 C 7.83333,35.5 8.16667,35.5 8.5,35.5C 8.5,39.1667 8.5,42.8333 8.5,46.5C 8.33375,53.175 8.50042,59.8417 9,66.5C 9.49834,63.1832 9.66501,59.8499 9.5,56.5C 11.604,56.7989 13.604,56.4656 15.5,55.5C 16.2435,52.557 16.7435,49.557 17,46.5C 17.4828,47.448 17.6495,48.448 17.5,49.5C 23.923,49.2088 30.2564,49.5422 36.5,50.5C 29.7614,58.3114 25.4281,67.3114 23.5,77.5C 21.1667,77.5 18.8333,77.5 16.5,77.5C 16.8281,82.4177 14.4948,84.4177 9.5,83.5C 9.8064,86.3854 9.47307,89.0521 8.5,91.5C 8.81277,87.9581 8.47944,84.6248 7.5,81.5C 7.5,66.1667 7.5,50.8333 7.5,35.5 Z"/></g>
<g><path style="opacity:0.994" fill="#602067" d="M 199.5,56.5 C 199.5,72.8333 199.5,89.1667 199.5,105.5C 197.54,106.138 195.707,106.138 194,105.5C 193.115,102.048 192.282,98.7144 191.5,95.5C 191.5,90.8333 191.5,86.1667 191.5,81.5C 191.5,72.5 191.5,63.5 191.5,54.5C 192.117,54.3893 192.617,54.056 193,53.5C 193.284,55.8856 194.284,56.5523 196,55.5C 196.704,57.727 197.871,58.0603 199.5,56.5 Z"/></g>
<g><path style="opacity:1" fill="#8e4b96" d="M 49.5,37.5 C 49.9382,37.4346 50.2716,37.6012 50.5,38C 48.0629,39.2788 47.5629,40.7788 49,42.5C 50.7141,41.0745 52.0475,41.4078 53,43.5C 53.9772,42.2264 54.8106,42.2264 55.5,43.5C 35.8959,59.0491 26.8959,79.3824 28.5,104.5C 27.6787,101.359 27.1787,98.0252 27,94.5C 26.5065,96.1341 26.3398,97.8008 26.5,99.5C 24.4588,99.8541 22.6255,99.8541 21,99.5C 20.5357,100.094 20.369,100.761 20.5,101.5C 19.6805,104.305 19.1805,107.305 19,110.5C 18.586,110.043 18.086,109.709 17.5,109.5C 16.1743,110.99 14.6743,112.324 13,113.5C 11.6667,112.167 10.3333,112.167 9,113.5C 8.50034,106.174 8.33368,98.8409 8.5,91.5C 9.47307,89.0521 9.8064,86.3854 9.5,83.5C 14.4948,84.4177 16.8281,82.4177 16.5,77.5C 18.8333,77.5 21.1667,77.5 23.5,77.5C 25.4281,67.3114 29.7614,58.3114 36.5,50.5C 40.5,45.8333 44.8333,41.5 49.5,37.5 Z"/></g>
<g><path style="opacity:1" fill="#8d4896" d="M 126.5,99.5 C 108.577,100.486 90.5766,100.819 72.5,100.5C 73.4129,83.2552 82.4129,73.9219 99.5,72.5C 116.105,73.7719 125.105,82.7719 126.5,99.5 Z"/></g>
<g><path style="opacity:1" fill="#8d4995" d="M 190.5,36.5 C 191.49,42.31 191.823,48.31 191.5,54.5C 191.5,63.5 191.5,72.5 191.5,81.5C 190.669,94.6604 190.169,107.994 190,121.5C 189.821,118.447 189.321,115.447 188.5,112.5C 186.899,113.165 185.399,113.499 184,113.5C 183.89,110.354 182.557,109.354 180,110.5C 179.667,103.167 179.333,95.8333 179,88.5C 176.333,87.8333 173.667,87.1667 171,86.5C 170.51,87.7932 170.343,89.1266 170.5,90.5C 168.935,81.9401 166.269,73.6068 162.5,65.5C 162.435,65.0618 162.601,64.7284 163,64.5C 165.107,68.5008 168.273,69.5008 172.5,67.5C 173.251,68.376 173.751,69.376 174,70.5C 176.719,69.5562 179.552,69.2229 182.5,69.5C 180.841,75.8263 183.174,78.8263 189.5,78.5C 190.504,69.2209 190.837,58.5542 190.5,46.5C 190.5,43.1667 190.5,39.8333 190.5,36.5 Z"/></g>
<g><path style="opacity:1" fill="#7c3b86" d="M 7.5,81.5 C 8.47944,84.6248 8.81277,87.9581 8.5,91.5C 8.33368,98.8409 8.50034,106.174 9,113.5C 10.3333,112.167 11.6667,112.167 13,113.5C 14.6743,112.324 16.1743,110.99 17.5,109.5C 18.086,109.709 18.586,110.043 19,110.5C 19.1805,107.305 19.6805,104.305 20.5,101.5C 20.8735,112.268 22.8735,122.768 26.5,133C 26.3333,133.5 26.1667,134 26,134.5C 23.1963,132.656 20.0297,131.989 16.5,132.5C 16.3259,134.861 15.9926,137.194 15.5,139.5C 13.2478,138.667 11.0811,138.667 9,139.5C 8.8227,135.644 8.3227,131.977 7.5,128.5C 7.5,125.833 7.5,123.167 7.5,120.5C 7.5,108.833 7.5,97.1667 7.5,85.5C 7.5,84.1667 7.5,82.8333 7.5,81.5 Z"/></g>
<g><path style="opacity:0.991" fill="#511957" d="M 7.5,85.5 C 7.5,97.1667 7.5,108.833 7.5,120.5C 6.84741,124.093 6.01408,127.759 5,131.5C 3.68822,132.785 1.85489,132.785 -0.5,131.5C -0.5,118.833 -0.5,106.167 -0.5,93.5C 1.48436,94.6942 3.48436,94.6942 5.5,93.5C 6.07963,90.6894 6.74629,88.0227 7.5,85.5 Z"/></g>
<g><path style="opacity:1" fill="#7c3b85" d="M 191.5,81.5 C 191.5,86.1667 191.5,90.8333 191.5,95.5C 191.5,106.833 191.5,118.167 191.5,129.5C 190.673,134.651 190.173,139.984 190,145.5C 189.501,141.848 189.335,138.182 189.5,134.5C 185.382,134.435 181.382,133.769 177.5,132.5C 175.68,132.649 174.18,133.316 173,134.5C 174.552,127.78 176.052,120.947 177.5,114C 177.406,111.046 176.906,110.879 176,113.5C 175.667,113.167 175.333,112.833 175,112.5C 173.185,113.244 171.352,113.911 169.5,114.5C 170.365,106.534 170.698,98.5341 170.5,90.5C 170.343,89.1266 170.51,87.7932 171,86.5C 173.667,87.1667 176.333,87.8333 179,88.5C 179.333,95.8333 179.667,103.167 180,110.5C 182.557,109.354 183.89,110.354 184,113.5C 185.399,113.499 186.899,113.165 188.5,112.5C 189.321,115.447 189.821,118.447 190,121.5C 190.169,107.994 190.669,94.6604 191.5,81.5 Z"/></g>
<g><path style="opacity:1" fill="#713477" d="M 72.5,101.5 C 76.7077,121.2 88.7077,129.034 108.5,125C 119.738,120.253 125.738,111.753 126.5,99.5C 128.833,99.5 131.167,99.5 133.5,99.5C 133.34,97.8008 133.506,96.1341 134,94.5C 134.499,98.1516 134.665,101.818 134.5,105.5C 130.129,124.276 118.296,134.276 99,135.5C 80.1845,133.848 68.6845,123.848 64.5,105.5C 64.3347,101.818 64.5014,98.1516 65,94.5C 65.4966,96.8098 65.6633,99.1432 65.5,101.5C 68.0408,101.15 70.3742,101.15 72.5,101.5 Z"/></g>
<g><path style="opacity:1" fill="#803d8a" d="M 126.5,99.5 C 125.738,111.753 119.738,120.253 108.5,125C 88.7077,129.034 76.7077,121.2 72.5,101.5C 72.5,101.167 72.5,100.833 72.5,100.5C 90.5766,100.819 108.577,100.486 126.5,99.5 Z"/></g>
<g><path style="opacity:1" fill="#72337b" d="M 28.5,104.5 C 29.4845,115.119 32.4845,125.119 37.5,134.5C 36.6851,135.429 35.8518,136.429 35,137.5C 32.8517,136.696 31.0184,136.696 29.5,137.5C 30.8599,140.22 32.1932,142.886 33.5,145.5C 28.142,145.58 22.4754,145.58 16.5,145.5C 15.8905,150.812 15.3905,156.146 15,161.5C 13.6861,160.687 12.5195,159.687 11.5,158.5C 10.4793,159.901 9.47934,161.235 8.5,162.5C 7.55462,157.595 7.22128,152.595 7.5,147.5C 7.5,141.167 7.5,134.833 7.5,128.5C 8.3227,131.977 8.8227,135.644 9,139.5C 11.0811,138.667 13.2478,138.667 15.5,139.5C 15.9926,137.194 16.3259,134.861 16.5,132.5C 20.0297,131.989 23.1963,132.656 26,134.5C 26.1667,134 26.3333,133.5 26.5,133C 22.8735,122.768 20.8735,112.268 20.5,101.5C 20.369,100.761 20.5357,100.094 21,99.5C 22.6255,99.8541 24.4588,99.8541 26.5,99.5C 26.3398,97.8008 26.5065,96.1341 27,94.5C 27.1787,98.0252 27.6787,101.359 28.5,104.5 Z"/></g>
<g><path style="opacity:1" fill="#71337b" d="M 191.5,129.5 C 191.5,135.5 191.5,141.5 191.5,147.5C 191.779,152.595 191.445,157.595 190.5,162.5C 189.839,161.282 189.172,159.949 188.5,158.5C 188.167,159.167 187.833,159.833 187.5,160.5C 186.808,159.975 186.308,159.308 186,158.5C 185.581,159.672 184.915,160.672 184,161.5C 183.677,156.134 183.177,150.801 182.5,145.5C 176.833,145.5 171.167,145.5 165.5,145.5C 167.275,142.113 168.942,138.613 170.5,135C 170.333,134.5 170.167,134 170,133.5C 169.626,134.416 169.126,135.25 168.5,136C 163.256,138.586 161.923,137.419 164.5,132.5C 164.376,131.893 164.043,131.56 163.5,131.5C 165.502,125.828 167.502,120.162 169.5,114.5C 171.352,113.911 173.185,113.244 175,112.5C 175.333,112.833 175.667,113.167 176,113.5C 176.906,110.879 177.406,111.046 177.5,114C 176.052,120.947 174.552,127.78 173,134.5C 174.18,133.316 175.68,132.649 177.5,132.5C 181.382,133.769 185.382,134.435 189.5,134.5C 189.335,138.182 189.501,141.848 190,145.5C 190.173,139.984 190.673,134.651 191.5,129.5 Z"/></g>
<g><path style="opacity:0.992" fill="#47154d" d="M 191.5,95.5 C 192.282,98.7144 193.115,102.048 194,105.5C 195.707,106.138 197.54,106.138 199.5,105.5C 199.5,123.5 199.5,141.5 199.5,159.5C 197.753,159.407 195.919,159.074 194,158.5C 192.986,154.759 192.153,151.093 191.5,147.5C 191.5,141.5 191.5,135.5 191.5,129.5C 191.5,118.167 191.5,106.833 191.5,95.5 Z"/></g>
<g><path style="opacity:0.993" fill="#431348" d="M 7.5,120.5 C 7.5,123.167 7.5,125.833 7.5,128.5C 7.5,134.833 7.5,141.167 7.5,147.5C 6.77761,151.391 5.94427,155.391 5,159.5C 3.36047,158.875 1.52714,158.875 -0.5,159.5C -0.5,150.167 -0.5,140.833 -0.5,131.5C 1.85489,132.785 3.68822,132.785 5,131.5C 6.01408,127.759 6.84741,124.093 7.5,120.5 Z"/></g>
<g><path style="opacity:1" fill="#5c2462" d="M 163.5,131.5 C 164.043,131.56 164.376,131.893 164.5,132.5C 161.923,137.419 163.256,138.586 168.5,136C 169.126,135.25 169.626,134.416 170,133.5C 170.167,134 170.333,134.5 170.5,135C 168.942,138.613 167.275,142.113 165.5,145.5C 143.232,173.121 114.566,183.621 79.5,177C 68.4096,174.121 58.4096,169.121 49.5,162C 43.9362,156.605 38.6029,151.105 33.5,145.5C 32.1932,142.886 30.8599,140.22 29.5,137.5C 31.0184,136.696 32.8517,136.696 35,137.5C 35.8518,136.429 36.6851,135.429 37.5,134.5C 47.9843,151.809 62.9843,163.309 82.5,169C 118.196,174.814 145.196,162.314 163.5,131.5 Z"/></g>
<g><path style="opacity:1" fill="#64276f" d="M 33.5,145.5 C 38.6029,151.105 43.9362,156.605 49.5,162C 58.4096,169.121 68.4096,174.121 79.5,177C 114.566,183.621 143.232,173.121 165.5,145.5C 171.167,145.5 176.833,145.5 182.5,145.5C 183.177,150.801 183.677,156.134 184,161.5C 184.915,160.672 185.581,159.672 186,158.5C 186.308,159.308 186.808,159.975 187.5,160.5C 187.833,159.833 188.167,159.167 188.5,158.5C 189.172,159.949 189.839,161.282 190.5,162.5C 190.5,162.833 190.5,163.167 190.5,163.5C 187.748,163.422 185.082,163.255 182.5,163C 179.94,172.561 173.94,178.895 164.5,182C 121.167,182.667 77.8333,182.667 34.5,182C 25.2616,178.428 19.095,171.928 16,162.5C 13.5003,162.543 11.0003,162.877 8.5,163.5C 8.5,163.167 8.5,162.833 8.5,162.5C 9.47934,161.235 10.4793,159.901 11.5,158.5C 12.5195,159.687 13.6861,160.687 15,161.5C 15.3905,156.146 15.8905,150.812 16.5,145.5C 22.4754,145.58 28.142,145.58 33.5,145.5 Z"/></g>
<g><path style="opacity:0.974" fill="#330c38" d="M 7.5,147.5 C 7.22128,152.595 7.55462,157.595 8.5,162.5C 8.5,162.833 8.5,163.167 8.5,163.5C 11.3216,176.491 18.9882,185.325 31.5,190C 53.7851,191.146 76.1184,191.646 98.5,191.5C 119.5,191.333 140.5,191.167 161.5,191C 177.224,188.107 186.891,178.94 190.5,163.5C 190.5,163.167 190.5,162.833 190.5,162.5C 191.445,157.595 191.779,152.595 191.5,147.5C 192.153,151.093 192.986,154.759 194,158.5C 195.919,159.074 197.753,159.407 199.5,159.5C 199.5,162.167 199.5,164.833 199.5,167.5C 194.5,183.833 183.833,194.5 167.5,199.5C 122.167,199.5 76.8333,199.5 31.5,199.5C 15.1667,194.5 4.5,183.833 -0.5,167.5C -0.5,164.833 -0.5,162.167 -0.5,159.5C 1.52714,158.875 3.36047,158.875 5,159.5C 5.94427,155.391 6.77761,151.391 7.5,147.5 Z"/></g>
<g><path style="opacity:1" fill="#642c70" d="M 190.5,163.5 C 186.891,178.94 177.224,188.107 161.5,191C 140.5,191.167 119.5,191.333 98.5,191.5C 76.1184,191.646 53.7851,191.146 31.5,190C 18.9882,185.325 11.3216,176.491 8.5,163.5C 11.0003,162.877 13.5003,162.543 16,162.5C 19.095,171.928 25.2616,178.428 34.5,182C 77.8333,182.667 121.167,182.667 164.5,182C 173.94,178.895 179.94,172.561 182.5,163C 185.082,163.255 187.748,163.422 190.5,163.5 Z"/></g>
</svg>
