<svg xmlns="http://www.w3.org/2000/svg" width="200" height="200" style="shape-rendering:geometricPrecision;text-rendering:geometricPrecision;image-rendering:optimizeQuality;fill-rule:evenodd;clip-rule:evenodd"><path style="opacity:.973" fill="#7f2e88" d="M31.5-.5h136c10.542 3.032 19.042 9.032 25.5 18a10.136 10.136 0 0 1 1.5 4c-2.344-1.172-4.677-1.172-7 0a7.248 7.248 0 0 1-2.5-2c-.399.228-.565.562-.5 1-6.187-6.763-13.854-10.93-23-12.5-42-.667-84-.667-126 0-11.497 2.342-19.497 8.842-24 19.5-2.155 2.117-3.155 4.784-3 8h-1c-.855 4.577-1.355 9.91-1.5 16-2.115 1.56-4.281 1.893-6.5 1v-21c5-16.333 15.667-27 32-32z"/><path style="opacity:1" fill="#ca9ccf" d="m184.5 20.5 3 6a2.429 2.429 0 0 1-.5 2 7.292 7.292 0 0 0-2-3c-1.645.193-3.479.36-5.5.5 1.274.977 1.274 1.81 0 2.5-3.697-5.53-8.697-9.364-15-11.5a4290.286 4290.286 0 0 0-131 0c-5.729 2.564-10.395 6.398-14 11.5-2.183-3.54-4.85-3.873-8-1 4.503-10.658 12.503-17.158 24-19.5 42-.667 84-.667 126 0 9.146 1.57 16.813 5.737 23 12.5z"/><path style="opacity:1" fill="#aa61b0" d="M179.5 28.5c2.418 4.33 3.918 8.996 4.5 14 1.401-1.692 3.234-2.359 5.5-2-.295 2.235.039 4.235 1 6 .337 12.054.004 22.72-1 32v-14a9.864 9.864 0 0 1-6-1c1.355-1.175 1.188-2.175-.5-3l-1-14a4.934 4.934 0 0 0-.5 3 79.54 79.54 0 0 1-17.5-1l-1 2C134.359 19.038 100.525 11.871 61.5 29a111.804 111.804 0 0 0-12 8.5c-4.667 4-9 8.333-13 13a96.252 96.252 0 0 0-19-1 4.932 4.932 0 0 0-.5-3 55.692 55.692 0 0 1-1.5 9 9.864 9.864 0 0 1-6 1 50.438 50.438 0 0 1-.5 10c-.5-6.658-.666-13.325-.5-20 .968-2.107 1.302-4.44 1-7 2.266-.359 4.1.308 5.5 2 .74-4.637 2.24-8.97 4.5-13 3.605-5.102 8.271-8.936 14-11.5 43.667-.667 87.333-.667 131 0 6.303 2.136 11.303 5.97 15 11.5z"/><path style="opacity:1" fill="#9f5aa5" d="M189.5 78.5c-6.326.326-8.659-2.674-7-9-2.948-.277-5.781.056-8.5 1a6.802 6.802 0 0 0-1.5-3c-4.227 2-7.393 1-9.5-3-.399.228-.565.562-.5 1-17.507-27.917-42.84-40.084-76-36.5-11.544 2.449-21.878 7.282-31 14.5-.69-1.274-1.523-1.274-2.5 0-.953-2.092-2.286-2.425-4-1-1.437-1.721-.937-3.221 1.5-4.5-.228-.399-.562-.565-1-.5a111.804 111.804 0 0 1 12-8.5c39.025-17.129 72.859-9.962 101.5 21.5l1-2a79.54 79.54 0 0 0 17.5 1 4.934 4.934 0 0 1 .5-3l1 14c1.688.825 1.855 1.825.5 3a9.864 9.864 0 0 0 6 1v14z"/><path style="opacity:1" fill="#fefdfe" d="M162.5 65.5c3.769 8.107 6.435 16.44 8 25a180.809 180.809 0 0 1-1 24l-6 17c-18.304 30.814-45.304 43.314-81 37.5-19.516-5.691-34.516-17.191-45-34.5-5.016-9.381-8.015-19.381-9-30-1.604-25.118 7.396-45.45 27-61 9.122-7.218 19.456-12.051 31-14.5 33.16-3.584 58.493 8.583 76 36.5z"/><path style="opacity:1" fill="#bc84c2" d="M19.5 28.5c-2.26 4.03-3.76 8.363-4.5 13-1.4-1.692-3.234-2.359-5.5-2 .302 2.56-.032 4.893-1 7v-11c-.155-3.216.845-5.883 3-8 3.15-2.873 5.817-2.54 8 1z"/><path style="opacity:1" fill="#ba80bf" d="M187.5 26.5c2.18 2.881 3.18 6.214 3 10v10c-.961-1.765-1.295-3.765-1-6-2.266-.359-4.099.308-5.5 2-.582-5.004-2.082-9.67-4.5-14 1.274-.69 1.274-1.523 0-2.5 2.021-.14 3.855-.307 5.5-.5a7.292 7.292 0 0 1 2 3 2.429 2.429 0 0 0 .5-2z"/><path style="opacity:.992" fill="#74297c" d="M194.5 21.5a49.55 49.55 0 0 1 5 10v25c-1.629 1.56-2.796 1.227-3.5-1-1.716 1.052-2.716.386-3-2-.383.556-.883.89-1.5 1 .323-6.19-.01-12.19-1-18 .18-3.786-.82-7.119-3-10l-3-6c-.065-.438.101-.772.5-1a7.248 7.248 0 0 0 2.5 2c2.323-1.172 4.656-1.172 7 0z"/><path style="opacity:.994" fill="#66236e" d="M7.5 35.5v50a94.956 94.956 0 0 0-2 8c-2.016 1.194-4.016 1.194-6 0v-41c2.219.893 4.385.56 6.5-1 .145-6.09.645-11.423 1.5-16z"/><path style="opacity:1" fill="#8c4b92" d="M134.5 105.5a60.93 60.93 0 0 0-.5-11 12.93 12.93 0 0 0-.5 5h-7c-1.395-16.728-10.395-25.728-27-27-17.087 1.422-26.087 10.755-27 28v1c-2.126-.35-4.46-.35-7 0a24.939 24.939 0 0 0-.5-7 60.939 60.939 0 0 0-.5 11c-1.582-24.415 9.918-38.415 34.5-42 25.242 3.05 37.075 17.05 35.5 42z"/><path style="opacity:1" fill="#9a53a2" d="M7.5 35.5h1v11c-.166 6.675 0 13.342.5 20 .498-3.317.665-6.65.5-10a9.864 9.864 0 0 0 6-1 55.692 55.692 0 0 0 1.5-9c.483.948.65 1.948.5 3a96.252 96.252 0 0 1 19 1c-6.739 7.811-11.072 16.811-13 27h-7c.328 4.918-2.005 6.918-7 6 .306 2.885-.027 5.552-1 8 .313-3.542-.02-6.875-1-10v-46z"/><path style="opacity:.994" fill="#602067" d="M199.5 56.5v49c-1.96.638-3.793.638-5.5 0a837.027 837.027 0 0 1-2.5-10v-41c.617-.11 1.117-.444 1.5-1 .284 2.386 1.284 3.052 3 2 .704 2.227 1.871 2.56 3.5 1z"/><path style="opacity:1" fill="#8e4b96" d="M49.5 37.5c.438-.065.772.101 1 .5-2.437 1.279-2.937 2.779-1.5 4.5 1.714-1.425 3.047-1.092 4 1 .977-1.274 1.81-1.274 2.5 0-19.604 15.55-28.604 35.882-27 61-.821-3.141-1.321-6.475-1.5-10-.494 1.634-.66 3.3-.5 5-2.041.354-3.875.354-5.5 0a2.427 2.427 0 0 0-.5 2c-.82 2.805-1.32 5.805-1.5 9a3.647 3.647 0 0 0-1.5-1 26 26 0 0 1-4.5 4c-1.333-1.333-2.667-1.333-4 0-.5-7.326-.666-14.66-.5-22 .973-2.448 1.306-5.115 1-8 4.995.918 7.328-1.082 7-6h7c1.928-10.189 6.261-19.189 13-27 4-4.667 8.333-9 13-13z"/><path style="opacity:1" fill="#8d4896" d="M126.5 99.5a743.833 743.833 0 0 1-54 1c.913-17.245 9.913-26.578 27-28 16.605 1.272 25.605 10.272 27 27z"/><path style="opacity:1" fill="#8d4995" d="M190.5 36.5c.99 5.81 1.323 11.81 1 18v27a791.936 791.936 0 0 0-1.5 40 42.769 42.769 0 0 0-1.5-9c-1.601.665-3.101.999-4.5 1-.11-3.146-1.443-4.146-4-3l-1-22-8-2a8.43 8.43 0 0 0-.5 4c-1.565-8.56-4.231-16.893-8-25-.065-.438.101-.772.5-1 2.107 4 5.273 5 9.5 3a6.802 6.802 0 0 1 1.5 3c2.719-.944 5.552-1.277 8.5-1-1.659 6.326.674 9.326 7 9 1.004-9.28 1.337-19.946 1-32v-10z"/><path style="opacity:1" fill="#7c3b86" d="M7.5 81.5c.98 3.125 1.313 6.458 1 10-.166 7.34 0 14.674.5 22 1.333-1.333 2.667-1.333 4 0a26 26 0 0 0 4.5-4 3.647 3.647 0 0 1 1.5 1c.18-3.195.68-6.195 1.5-9 .373 10.768 2.373 21.268 6 31.5l-.5 1.5c-2.804-1.844-5.97-2.511-9.5-2a51.648 51.648 0 0 1-1 7c-2.252-.833-4.419-.833-6.5 0-.177-3.856-.677-7.523-1.5-11v-47z"/><path style="opacity:.991" fill="#511957" d="M7.5 85.5v35a132.707 132.707 0 0 1-2.5 11c-1.312 1.285-3.145 1.285-5.5 0v-38c1.984 1.194 3.984 1.194 6 0a94.956 94.956 0 0 1 2-8z"/><path style="opacity:1" fill="#7c3b85" d="M191.5 81.5v48c-.827 5.151-1.327 10.484-1.5 16a60.931 60.931 0 0 1-.5-11 40.455 40.455 0 0 1-12-2c-1.82.149-3.32.816-4.5 2a977.227 977.227 0 0 0 4.5-20.5c-.094-2.954-.594-3.121-1.5-.5l-1-1a72.144 72.144 0 0 1-5.5 2 180.809 180.809 0 0 0 1-24 8.43 8.43 0 0 1 .5-4l8 2 1 22c2.557-1.146 3.89-.146 4 3 1.399-.001 2.899-.335 4.5-1a42.769 42.769 0 0 1 1.5 9c.169-13.506.669-26.84 1.5-40z"/><path style="opacity:1" fill="#713477" d="M72.5 101.5c4.208 19.7 16.208 27.534 36 23.5 11.238-4.747 17.238-13.247 18-25.5h7c-.16-1.7.006-3.366.5-5a60.93 60.93 0 0 1 .5 11c-4.371 18.776-16.204 28.776-35.5 30-18.816-1.652-30.316-11.652-34.5-30a60.939 60.939 0 0 1 .5-11c.497 2.31.663 4.643.5 7 2.54-.35 4.874-.35 7 0z"/><path style="opacity:1" fill="#803d8a" d="M126.5 99.5c-.762 12.253-6.762 20.753-18 25.5-19.792 4.034-31.792-3.8-36-23.5v-1a743.833 743.833 0 0 0 54-1z"/><path style="opacity:1" fill="#72337b" d="M28.5 104.5c.985 10.619 3.984 20.619 9 30a81.216 81.216 0 0 0-2.5 3c-2.148-.804-3.982-.804-5.5 0l4 8c-5.358.08-11.025.08-17 0a387.867 387.867 0 0 0-1.5 16 14.984 14.984 0 0 1-3.5-3 171.719 171.719 0 0 1-3 4 61.276 61.276 0 0 1-1-15v-19c.823 3.477 1.323 7.144 1.5 11 2.081-.833 4.248-.833 6.5 0a51.648 51.648 0 0 0 1-7c3.53-.511 6.696.156 9.5 2l.5-1.5c-3.627-10.232-5.627-20.732-6-31.5a2.427 2.427 0 0 1 .5-2c1.625.354 3.459.354 5.5 0-.16-1.7.006-3.366.5-5 .179 3.525.679 6.859 1.5 10z"/><path style="opacity:1" fill="#71337b" d="M191.5 129.5v18a61.281 61.281 0 0 1-1 15 71.254 71.254 0 0 1-2-4l-1 2a4.457 4.457 0 0 1-1.5-2 7.293 7.293 0 0 1-2 3 240.173 240.173 0 0 0-1.5-16h-17a153.87 153.87 0 0 0 5-10.5l-.5-1.5a9.454 9.454 0 0 1-1.5 2.5c-5.244 2.586-6.577 1.419-4-3.5-.124-.607-.457-.94-1-1l6-17a72.144 72.144 0 0 0 5.5-2l1 1c.906-2.621 1.406-2.454 1.5.5a977.227 977.227 0 0 1-4.5 20.5c1.18-1.184 2.68-1.851 4.5-2a40.455 40.455 0 0 0 12 2 60.931 60.931 0 0 0 .5 11c.173-5.516.673-10.849 1.5-16z"/><path style="opacity:.992" fill="#47154d" d="M191.5 95.5a837.027 837.027 0 0 0 2.5 10c1.707.638 3.54.638 5.5 0v54c-1.747-.093-3.581-.426-5.5-1a132.905 132.905 0 0 1-2.5-11v-52z"/><path style="opacity:.993" fill="#431348" d="M7.5 120.5v27a289.87 289.87 0 0 1-2.5 12c-1.64-.625-3.473-.625-5.5 0v-28c2.355 1.285 4.188 1.285 5.5 0a132.707 132.707 0 0 0 2.5-11z"/><path style="opacity:1" fill="#5c2462" d="M163.5 131.5c.543.06.876.393 1 1-2.577 4.919-1.244 6.086 4 3.5a9.454 9.454 0 0 0 1.5-2.5l.5 1.5a153.87 153.87 0 0 1-5 10.5c-22.268 27.621-50.934 38.121-86 31.5-11.09-2.879-21.09-7.879-30-15a369.17 369.17 0 0 1-16-16.5l-4-8c1.518-.804 3.352-.804 5.5 0a81.216 81.216 0 0 1 2.5-3c10.484 17.309 25.484 28.809 45 34.5 35.696 5.814 62.696-6.686 81-37.5z"/><path style="opacity:1" fill="#64276f" d="M33.5 145.5a369.17 369.17 0 0 0 16 16.5c8.91 7.121 18.91 12.121 30 15 35.066 6.621 63.732-3.879 86-31.5h17a240.173 240.173 0 0 1 1.5 16 7.293 7.293 0 0 0 2-3 4.457 4.457 0 0 0 1.5 2l1-2a71.254 71.254 0 0 0 2 4v1a114.379 114.379 0 0 1-8-.5c-2.56 9.561-8.56 15.895-18 19-43.333.667-86.667.667-130 0-9.238-3.572-15.405-10.072-18.5-19.5-2.5.043-5 .377-7.5 1v-1c.98-1.265 1.98-2.599 3-4a14.984 14.984 0 0 0 3.5 3c.39-5.354.89-10.688 1.5-16 5.975.08 11.642.08 17 0z"/><path style="opacity:.974" fill="#330c38" d="M7.5 147.5a61.276 61.276 0 0 0 1 15v1c2.822 12.991 10.488 21.825 23 26.5a1157.33 1157.33 0 0 0 67 1.5l63-.5c15.724-2.893 25.391-12.06 29-27.5v-1a61.281 61.281 0 0 0 1-15 132.905 132.905 0 0 0 2.5 11c1.919.574 3.753.907 5.5 1v8c-5 16.333-15.667 27-32 32h-136c-16.333-5-27-15.667-32-32v-8c2.027-.625 3.86-.625 5.5 0a289.87 289.87 0 0 0 2.5-12z"/><path style="opacity:1" fill="#642c70" d="M190.5 163.5c-3.609 15.44-13.276 24.607-29 27.5l-63 .5a1157.33 1157.33 0 0 1-67-1.5c-12.512-4.675-20.178-13.509-23-26.5 2.5-.623 5-.957 7.5-1 3.095 9.428 9.262 15.928 18.5 19.5 43.333.667 86.667.667 130 0 9.44-3.105 15.44-9.439 18-19 2.582.255 5.248.422 8 .5z"/></svg>