<svg xmlns="http://www.w3.org/2000/svg" width="780" height="466" style="shape-rendering:geometricPrecision;text-rendering:geometricPrecision;image-rendering:optimizeQuality;fill-rule:evenodd;clip-rule:evenodd"><path style="opacity:1" fill="#fefefe" d="M-.5-.5h780v466H-.5V-.5z"/><path style="opacity:1" fill="#fefefe" d="M262.5 341.5h-4v-45a194.342 194.342 0 0 1 23-13.5l23-17a834.785 834.785 0 0 1 26-23.5c.929-1.189 1.262-2.522 1-4-6.326 4.812-12.326 10.312-18 16.5a292.747 292.747 0 0 1-53 37.5 216.796 216.796 0 0 1-1.5-21c-.5-27.665-.667-55.331-.5-83a4242.682 4242.682 0 0 1-1-117c52.085-15.143 103.418-12.977 154 6.5 25.219 11.353 46.386 27.853 63.5 49.5 25.47 39.439 24.47 78.106-3 116-27.661 32.561-60.161 59.061-97.5 79.5a6156.99 6156.99 0 0 1-54.5 23.5c-18.877-4.423-38.044-6.09-57.5-5z"/><path style="opacity:1" fill="#981f1b" d="M580.5 306.5c11.309-.215 14.809 4.785 10.5 15-6.932 4.917-12.265 3.583-16-4-.824-5.018 1.009-8.685 5.5-11z"/><path style="opacity:1" fill="#696969" d="M449.5 390.5v4a118.86 118.86 0 0 1-9 9.5c-10.095 5.283-16.429 2.449-19-8.5v-3c3.518-12.683 10.352-23.35 20.5-32 1.653-9.216.153-10.049-4.5-2.5-13.19 7.482-20.356 3.648-21.5-11.5-8.209 9.268-18.542 13.601-31 13a306.212 306.212 0 0 1-64-11 1198.088 1198.088 0 0 0-36.5 16.5 397.26 397.26 0 0 1-26 7.5h-2a350.003 350.003 0 0 1-46-2c-1.449-6.831.551-12.331 6-16.5 11.359-5.673 23.359-9.173 36-10.5 3.578-.049 6.911-.715 10-2 19.456-1.09 38.623.577 57.5 5a6156.99 6156.99 0 0 0 54.5-23.5c37.339-20.439 69.839-46.939 97.5-79.5 27.47-37.894 28.47-76.561 3-116-17.114-21.647-38.281-38.147-63.5-49.5-50.582-19.477-101.915-21.643-154-6.5-2.198.375-4.198 1.042-6 2-70.098 18.626-127.598 56.293-172.5 113-21.787 27.715-28.454 58.715-20 93 3.482 7.446 8.315 13.946 14.5 19.5 35.763 22.892 74.429 29.225 116 19a858.197 858.197 0 0 0 39-11 213.2 213.2 0 0 0 28-12.5c1.495-.489 2.829-1.155 4-2a292.747 292.747 0 0 0 53-37.5c5.674-6.188 11.674-11.688 18-16.5.262 1.478-.071 2.811-1 4a834.785 834.785 0 0 0-26 23.5l-23 17a194.342 194.342 0 0 0-23 13.5c-1.495.489-2.829 1.155-4 2-31.852 14.914-65.352 23.914-100.5 27-26.989-.418-52.156-7.251-75.5-20.5-21.089-14.221-29.589-34.055-25.5-59.5.833-8.834 2.5-17.5 5-26a183.047 183.047 0 0 1 10-21c36.283-52.613 84.116-90.78 143.5-114.5 28.781-10.749 58.448-18.416 89-23 43.066-4.946 84.066 1.72 123 20 21.208 11.87 39.374 27.37 54.5 46.5 16.848 25.078 21.848 52.411 15 82-6.778 16.891-16.112 32.224-28 46-24.664 26.35-52.497 48.517-83.5 66.5a64196.597 64196.597 0 0 0-55 25c22.326 7.639 45.326 10.639 69 9 9.976-1.042 16.476-6.208 19.5-15.5 1.356-.88 2.856-1.214 4.5-1-1.332 5.357-1.166 10.69.5 16 5.504 4.738 11.17 4.738 17 0 3.523-5.09 5.023-10.757 4.5-17h3a73.575 73.575 0 0 0 1.5 18 419.827 419.827 0 0 1 18.5-16 3.647 3.647 0 0 1 1.5 1l1 9c4.815-8.025 10.815-9.025 18-3l5 8c1.302-3.774 3.469-6.941 6.5-9.5a444.344 444.344 0 0 1 17.5-9.5c1.605.601 2.938 1.601 4 3l1 13c.29 1.544.956 2.877 2 4 5.962-4.981 10.129-10.981 12.5-18a3.647 3.647 0 0 1 1.5 1 67.336 67.336 0 0 0 3 17 239.977 239.977 0 0 1 11.5-18 382.47 382.47 0 0 1 9 19c4.561-6.038 7.561-12.704 9-20 1.644-.214 3.144.12 4.5 1 1.896 6.13 5.062 11.463 9.5 16 1.667-1 3-2.333 4-4a191.227 191.227 0 0 1-2-15h4a53.069 53.069 0 0 0 1.5 14c2.333 2.667 4.667 2.667 7 0 2.634-4.647 5.301-9.313 8-14 1.356-.88 2.856-1.214 4.5-1a4.934 4.934 0 0 1-.5 3 3211.292 3211.292 0 0 0-8 10c-1.254 3.611-.088 5.111 3.5 4.5a94.102 94.102 0 0 0 10-13c4.597-2.54 8.43-1.707 11.5 2.5 1.434 3.025 1.934 6.025 1.5 9 2.603-1.062 5.27-1.228 8-.5.6 4.768 3.267 7.268 8 7.5a1990.196 1990.196 0 0 1 56-16.5c10.42-2.197 19.753-.197 28 6-.113 1.28-.78 2.113-2 2.5-6.894-5.88-14.894-8.047-24-6.5a1298.241 1298.241 0 0 1-59 16.5c-4.513-.419-7.846-2.586-10-6.5a36.433 36.433 0 0 0-12 .5v-4c2.988.345 4.321-.988 4-4-2.158-7.079-5.658-7.745-10.5-2-2.726 5.74-6.893 9.573-12.5 11.5-2.396-3.522-5.562-4.022-9.5-1.5a11.25 11.25 0 0 1-3.5-1c-1.8 2.824-4.3 4.824-7.5 6-1.261-.259-2.261-.926-3-2-1.274-5.214-3.607-9.881-7-14-4.321 5.645-7.321 11.978-9 19-1.784 2.503-3.451 2.503-5 0-1.29-6.041-3.456-11.708-6.5-17-5.205 4.719-8.538 10.552-10 17.5-1.284.684-2.451.517-3.5-.5a67.28 67.28 0 0 0-3.5-15 67.321 67.321 0 0 1-11 13.5 8.43 8.43 0 0 1-4 .5 27.866 27.866 0 0 0-1.5-11c-5.084 11.462-13.918 16.629-26.5 15.5-.153-9.19-4.32-15.69-12.5-19.5-9.336 3.673-12.502 10.34-9.5 20h-4c.166-6.675 0-13.342-.5-20l-16 13c-.973 10.825-.14 21.491 2.5 32z"/><path style="opacity:1" fill="#d7d7d7" d="M258.5 188.5c-.167 27.669 0 55.335.5 83 .171 7.179.671 14.179 1.5 21-1.171.845-2.505 1.511-4 2a316.283 316.283 0 0 0-1-35c.891-.761 1.558-1.761 2-3a1391.408 1391.408 0 0 1-.5-91 260.63 260.63 0 0 0 1.5 23z"/><path style="opacity:1" fill="#e3e3e3" d="M257.5 71.5c-.205 38.922.128 77.922 1 117a260.63 260.63 0 0 1-1.5-23c-.825 30.375-.659 60.709.5 91-.442 1.239-1.109 2.239-2 3v-186h-4c1.802-.958 3.802-1.625 6-2z"/><path style="opacity:1" fill="#fefefe" d="M251.5 73.5h4v186a316.283 316.283 0 0 1 1 35 213.2 213.2 0 0 1-28 12.5 858.197 858.197 0 0 1-39 11c-41.571 10.225-80.237 3.892-116-19-6.185-5.554-11.018-12.054-14.5-19.5-8.454-34.285-1.787-65.285 20-93 44.902-56.707 102.402-94.374 172.5-113z"/><path style="opacity:1" fill="#dbdbdb" d="M258.5 296.5v45h4c-3.089 1.285-6.422 1.951-10 2 1.068-.934 2.401-1.268 4-1 .65-15.038-.017-29.705-2-44 1.171-.845 2.505-1.511 4-2z"/><path style="opacity:1" fill="#f9f9f9" d="M509.5 341.5h4c.273 10.478-4.56 17.145-14.5 20-5.52-1.54-6.853-4.874-4-10 3.948-4.716 8.781-8.049 14.5-10z"/><path style="opacity:1" fill="#fafafa" d="M260.5 368.5c-1.967-7.597-2.634-15.597-2-24 19.529-2.132 38.863-.966 58 3.5a905.577 905.577 0 0 1-37 16 78.848 78.848 0 0 1-19 4.5z"/><path style="opacity:1" fill="#fcfcfc" d="M255.5 345.5c.992 7.816 1.326 15.816 1 24a131.146 131.146 0 0 1-41-1.5c-3.22-5.167-2.22-9.5 3-13a137.399 137.399 0 0 1 37-9.5z"/><path style="opacity:1" fill="#fdfdfd" d="M421.5 392.5h-163v-20a397.26 397.26 0 0 0 26-7.5 1198.088 1198.088 0 0 1 36.5-16.5 306.212 306.212 0 0 0 64 11c12.458.601 22.791-3.732 31-13 1.144 15.148 8.31 18.982 21.5 11.5 4.653-7.549 6.153-6.716 4.5 2.5-10.148 8.65-16.982 19.317-20.5 32z"/><path style="opacity:1" fill="#d6d6d6" d="M255.5 345.5c.709-.904 1.709-1.237 3-1-.634 8.403.033 16.403 2 24-1.068.934-2.401 1.268-4 1 .326-8.184-.008-16.184-1-24z"/><path style="opacity:1" fill="#f9f9f9" d="M445.5 392.5c-7-1.333-14-1.333-21 0 2.77-12.197 9.104-22.197 19-30a159.55 159.55 0 0 1 2 30z"/><path style="opacity:1" fill="#e0e0e0" d="M445.5 392.5c.237 1.291-.096 2.291-1 3h-20v-3c7-1.333 14-1.333 21 0z"/><path style="opacity:1" fill="#f0f0f0" d="M451.5 392.5c86.789-.991 173.622-1.325 260.5-1 4.452.641 8.952 1.308 13.5 2l-1 1c-25.38-.086-51.047-.086-77 0a1191.857 1191.857 0 0 1 49-1.5c-81.666-.5-163.333-.667-245-.5z"/><path style="opacity:1" fill="#d9d9d9" d="m449.5 390.5 2 2c81.667-.167 163.334 0 245 .5-16.505.169-32.838.669-49 1.5-65.962-.097-131.962-.097-198 0v-4z"/><path style="opacity:1" fill="#dadada" d="M256.5 372.5h2v20h163v3c-54.318-.341-108.652-.675-163-1 .47 9.168-.03 18.168-1.5 27-.5-8.994-.666-17.994-.5-27-49.278-1.324-49.278-1.991 0-2v-20z"/><path style="opacity:1" fill="#fbfbfb" d="M424.5 395.5h20c-3.337 6.5-8.67 9-16 7.5-2.897-1.715-4.231-4.215-4-7.5z"/></svg>