<svg xmlns="http://www.w3.org/2000/svg" width="396" height="144" style="shape-rendering:geometricPrecision;text-rendering:geometricPrecision;image-rendering:optimizeQuality;fill-rule:evenodd;clip-rule:evenodd"><path style="opacity:1" fill="#fefefe" d="M-.5-.5h396v144H-.5V-.5z"/><path style="opacity:1" fill="#d1defd" d="M86.5 40.5c-.18-2.454.487-4.62 2-6.5l-1-1.5a493.061 493.061 0 0 1-4 3 11.741 11.741 0 0 1 3-5c1.39-1.4 2.39-3.066 3-5a186.2 186.2 0 0 0 3-2l1 2c-1.996 3.003-3.163 6.336-3.5 10-.902 1.93-2.069 3.597-3.5 5z"/><path style="opacity:1" fill="#e8eefe" d="M33.5 31.5c9.725-1.538 19.391-.705 29 2.5.556.383.89.883 1 1.5a41.744 41.744 0 0 0-9-1h-1c-1.802-.958-3.802-1.625-6-2-4.47-.986-9.137-1.32-14-1z"/><path style="opacity:1" fill="#cad8fc" d="M54.5 34.5c3.045.008 6.045.341 9 1 2.553 2.084 5.553 3.417 9 4l2 3a73.88 73.88 0 0 0-20-8z"/><path style="opacity:1" fill="#b4c8fb" d="M47.5 32.5c2.198.375 4.198 1.042 6 2a60.94 60.94 0 0 0-11 .5c2.223.566 4.223 1.4 6 2.5a112.365 112.365 0 0 1-18.5-1c-2.802-.18-4.969.82-6.5 3-2.575 1.228-4.908 2.895-7 5-1.114-1.223-1.28-2.556-.5-4 3.421-3.757 7.588-6.257 12.5-7.5a180.95 180.95 0 0 1 19-.5z"/><path style="opacity:1" fill="#d5e0fd" d="M48.5 37.5c1.915-.285 3.581.049 5 1a543.77 543.77 0 0 0-30 1c1.531-2.18 3.698-3.18 6.5-3a112.365 112.365 0 0 0 18.5 1z"/><path style="opacity:1" fill="#f6f9fe" d="M112.5 52.5a11534.44 11534.44 0 0 1-16-13l-1 2a184.34 184.34 0 0 0 14 18c.763 1.868 1.763 3.535 3 5-1.249 4.224-.583 8.224 2 12a49.87 49.87 0 0 1 1 14v2c-1.407 2.54-2.573 2.206-3.5-1a151.28 151.28 0 0 0-10.5 13 16.336 16.336 0 0 0-5 2c-3.067.379-4.067-.621-3-3 6.374-2.709 10.707-7.376 13-14 1.708-11.544-1.626-21.544-10-30-2-4-5-7-9-9-1.517-.01-2.684-.677-3.5-2a18.436 18.436 0 0 1-.5-6c.722-1.051 1.722-1.718 3-2 1.431-1.403 2.598-3.07 3.5-5 .337-3.664 1.504-6.997 3.5-10l-1-2a186.2 186.2 0 0 1-3 2c1.848-4.524 4.848-8.19 9-11-.036 5.453-1.87 10.453-5.5 15-.667 1.667-.667 3.333 0 5 8.624 3.794 15.124 9.794 19.5 18z"/><path style="opacity:1" fill="#b0c5fb" d="M86.5 40.5c-1.278.282-2.278.949-3 2 .13-.876-.203-1.543-1-2a186.2 186.2 0 0 1-3 2l4-7a493.061 493.061 0 0 0 4-3l1 1.5c-1.513 1.88-2.18 4.046-2 6.5z"/><path style="opacity:1" fill="#e2e9fd" d="M112.5 52.5a197.68 197.68 0 0 0 9.5 16 24.361 24.361 0 0 1 1.5 10c.318 4.532-.015 8.866-1 13 1.568-12.999-2.098-24.165-11-33.5-1.316-.528-1.983-.028-2 1.5a184.34 184.34 0 0 1-14-18l1-2c5.352 4.357 10.686 8.69 16 13z"/><path style="opacity:1" fill="#dfe8fd" d="M54.5 38.5a179.485 179.485 0 0 1 14 4.5c2.836 1.391 5.17 3.224 7 5.5-.916.482-1.916.815-3 1a325.759 325.759 0 0 0-5-2 2656.554 2656.554 0 0 1-9-4.5c-6.658-.5-13.325-.666-20-.5.11-.617.444-1.117 1-1.5l16-1c-.556-.383-.89-.883-1-1.5z"/><path style="opacity:1" fill="#e7edfe" d="M86.5 30.5a11.741 11.741 0 0 0-3 5l-4 7c-1.55 1.22-3.216 1.22-5 0l-2-3a15.416 15.416 0 0 1 4.5 2c3.59-2.42 5.756-5.754 6.5-10a5.576 5.576 0 0 1 3-1z"/><path style="opacity:1" fill="#f8fafe" d="M23.5 40.5c.876-.13 1.543.203 2 1-6.202 6.952-8.202 14.952-6 24a8.434 8.434 0 0 0 .5 4c.876 2.258 2.043 4.258 3.5 6 3.223 8.112 8.556 14.445 16 19 1 .333 1.667 1 2 2 3.07 1.552 3.737 3.885 2 7a80.735 80.735 0 0 0-7.5 11 28.043 28.043 0 0 1-1.5 5c.825.886 1.825 1.219 3 1-1.856 3.019-4.19 5.685-7 8l-1-2a67.08 67.08 0 0 1 4.5-10c.667-1.667.667-3.333 0-5-5.044-3.542-9.21-7.876-12.5-13 2.044.531 3.71 1.698 5 3.5 1 .667 2 .667 3 0-1.393-1.171-2.227-2.671-2.5-4.5-3.324-1.826-5.824-4.493-7.5-8l1-2a95.367 95.367 0 0 1-9-16c-2.987-5.657-2.487-10.99 1.5-16a60.619 60.619 0 0 1 3-9 66.372 66.372 0 0 0 7.5-6z"/><path style="opacity:1" fill="#8baaf9" d="m56.5 45.5 11 2 1 2c-4.415-.36-8.416-1.694-12-4z"/><path style="opacity:1" fill="#cfdcfd" d="M33.5 31.5c4.863-.32 9.53.014 14 1a180.95 180.95 0 0 0-19 .5c-4.912 1.243-9.079 3.743-12.5 7.5-.78 1.444-.614 2.777.5 4 2.092-2.105 4.425-3.772 7-5v1a66.372 66.372 0 0 1-7.5 6 60.619 60.619 0 0 0-3 9c-3.987 5.01-4.487 10.343-1.5 16 .219 1.175-.114 2.175-1 3-2.007-1.806-3.674-3.806-5-6-4.318-18.519 2.682-30.685 21-36.5a24.939 24.939 0 0 1 7-.5z"/><path style="opacity:1" fill="#434f67" d="M345.5 44.5h4v20h-1a91.124 91.124 0 0 0-1-19 300.7 300.7 0 0 0 0 49c.929-1.189 1.262-2.522 1-4 2.534-.24 4.2.76 5 3-1.208-.734-2.541-1.067-4-1v3h-4v-51z"/><path style="opacity:1" fill="#b1c6fb" d="M67.5 47.5c1.656.647 3.323 1.313 5 2a10.028 10.028 0 0 0 3-1c-.548 2.584-2.215 3.584-5 3l-2-2-1-2z"/><path style="opacity:1" fill="#6c94f8" d="M77.5 54.5h-1c-1.656-1.56-3.656-2.56-6-3 2.785.584 4.452-.416 5-3 .589-3.234 2.589-4.567 6-4 .408 3.1-.759 5.433-3.5 7a4.932 4.932 0 0 0-.5 3z"/><path style="opacity:1" fill="#d3d6dc" d="M345.5 44.5v51h4v-3c1.459-.067 2.792.266 4 1v2c-3.512 2.542-7.012 2.542-10.5 0-.5-16.997-.667-33.997-.5-51h3z"/><path style="opacity:1" fill="#eff3fe" d="M53.5 38.5h1c.11.617.444 1.117 1 1.5l-16 1c-.556.383-.89.883-1 1.5-8.91 1.91-14.577 7.244-17 16-1.843 1.779-2.51 4.112-2 7-2.202-9.048-.202-17.048 6-24-.457-.797-1.124-1.13-2-1v-1a543.77 543.77 0 0 1 30-1z"/><path style="opacity:1" fill="#394760" d="M275.5 48.5h4v42c-.667-13.506-1.333-27.173-2-41a484.86 484.86 0 0 0-1 44c1.291.237 2.291-.096 3-1 6.426-.62 12.426.047 18 2h-22v-46z"/><path style="opacity:1" fill="#abb0bc" d="M349.5 44.5c.351 6.565 1.351 12.899 3 19-.709.904-1.709 1.237-3 1v-20z"/><path style="opacity:1" fill="#d5e0fd" d="M87.5 50.5c4 2 7 5 9 9a57.458 57.458 0 0 1-9-9z"/><path style="opacity:1" fill="#cbcfd6" d="M149.5 48.5a420.768 420.768 0 0 1 1 41c5.858-.322 11.525.011 17 1h-18v-42z"/><path style="opacity:1" fill="#1d2c49" d="M149.5 90.5v2c-.709.904-1.709 1.237-3 1a484.86 484.86 0 0 1 1-44c.667 13.827 1.333 27.494 2 41z"/><path style="opacity:1" fill="#939aa8" d="M279.5 48.5c.667 0 1 .333 1 1v41c5.858-.322 11.525.011 17 1h-18v-43z"/><path style="opacity:1" fill="#cbced5" d="M275.5 48.5v46c.111.617.444 1.117 1 1.5 7.179.821 14.179.655 21-.5 2.052-.553 2.385-1.553 1-3 0-.667-.333-1-1-1-5.475-.989-11.142-1.322-17-1v-41a400.453 400.453 0 0 1 1 40c6.009-.166 12.009 0 18 .5 1.333 2.333 1.333 4.667 0 7-8.246.815-16.412.648-24.5-.5-.828-16.172-.661-32.172.5-48z"/><path style="opacity:1" fill="#0e1e3e" d="M279.5 90.5v2c-.709.904-1.709 1.237-3 1a484.86 484.86 0 0 1 1-44c.667 13.827 1.333 27.494 2 41z"/><path style="opacity:1" fill="#9fa5b2" d="M149.5 48.5h-4v46h-1c-1.161-15.161-1.328-30.495-.5-46 1.943-1.307 3.777-1.307 5.5 0z"/><path style="opacity:1" fill="#a4bdfb" d="M53.5 34.5h1a73.88 73.88 0 0 1 20 8c1.784 1.22 3.45 1.22 5 0a186.2 186.2 0 0 0 3-2c.797.457 1.13 1.124 1 2a18.436 18.436 0 0 0 .5 6c.816 1.323 1.983 1.99 3.5 2a57.458 57.458 0 0 0 9 9 199.323 199.323 0 0 1 8 17 98.433 98.433 0 0 1-.5 14c-1.788 2.26-3.288 4.593-4.5 7l-4 1c7.26-5.555 9.76-12.888 7.5-22a36.168 36.168 0 0 0-4-7c-.49 2.045-.323 4.045.5 6h-1c-3.81-8.732-9.476-16.232-17-22.5-.984-.59-1.65-.258-2 1a172.46 172.46 0 0 1 10 12.5 102.01 102.01 0 0 1-12-12 4.932 4.932 0 0 1 .5-3c2.741-1.567 3.908-3.9 3.5-7-3.411-.567-5.411.766-6 4-1.83-2.276-4.164-4.109-7-5.5a179.485 179.485 0 0 0-14-4.5h-1c-1.419-.951-3.085-1.285-5-1-1.777-1.1-3.777-1.934-6-2.5a60.94 60.94 0 0 1 11-.5z"/><path style="opacity:1" fill="#8fadfa" d="m32.5 46.5-6 7c-.617.11-1.117.444-1.5 1a73.687 73.687 0 0 0 .5 19c-3.286-6.33-3.786-12.996-1.5-20 2.436-2.947 5.269-5.28 8.5-7z"/><path style="opacity:1" fill="#bbbfc8" d="M199.5 62.5c-4.598-2.146-9.264-2.48-14-1a17.533 17.533 0 0 0-6 3c.212-1.884 1.212-3.217 3-4a38.06 38.06 0 0 1 15-.5c.881.708 1.547 1.542 2 2.5z"/><path style="opacity:1" fill="#b9bec7" d="M233.5 60.5c-4.1-.263-8.1.07-12 1 1.548-1.294 3.548-1.96 6-2 2.196.005 4.196.338 6 1z"/><path style="opacity:1" fill="#658ef8" d="M56.5 45.5c3.584 2.306 7.585 3.64 12 4l2 2c2.344.44 4.344 1.44 6 3-1.542-.8-3.209-1.134-5-1v5c-3-.333-4.333 1-4 4a142.375 142.375 0 0 0-20.5-1c-2.017 2.644-2.85 5.644-2.5 9h-1c-.569-3.83.098-7.163 2-10 3.88-3.286 8.38-5.286 13.5-6a74.256 74.256 0 0 0 11.5 3v-3a3445.696 3445.696 0 0 0-24.5-8c-6.598.372-11.431 3.372-14.5 9-1.713 1.135-2.38 2.802-2 5-.79 1.108-1.29 2.442-1.5 4l-2-2a29.134 29.134 0 0 1 .5-9l6-7c7.826-3.638 15.826-3.97 24-1z"/><path style="opacity:1" fill="#d9e3fd" d="M98.5 75.5a24.939 24.939 0 0 1-.5 7c-.1-2.153-.933-3.82-2.5-5-.5-4.515-2.5-8.181-6-11a172.46 172.46 0 0 0-10-12.5c.35-1.258 1.016-1.59 2-1 7.524 6.268 13.19 13.768 17 22.5z"/><path style="opacity:1" fill="#dae4fd" d="M21.5 58.5a56.901 56.901 0 0 0 2 17c-1.457-1.742-2.624-3.742-3.5-6a8.434 8.434 0 0 1-.5-4c-.51-2.888.157-5.221 2-7z"/><path style="opacity:1" fill="#b8cbfc" d="M38.5 42.5c6.675-.166 13.342 0 20 .5 3.098 1.556 6.098 3.056 9 4.5l-11-2c-8.174-2.97-16.174-2.638-24 1-3.231 1.72-6.064 4.053-8.5 7-2.286 7.004-1.786 13.67 1.5 20 2.262 5.538 5.262 10.538 9 15l5 6c-7.444-4.555-12.777-10.888-16-19a56.901 56.901 0 0 1-2-17c2.423-8.756 8.09-14.09 17-16z"/><path style="opacity:1" fill="#608bf8" d="M43.5 58.5c-2 .667-3.333 2-4 4-.817 2.469-1.317 5.135-1.5 8-4.881-8.578-2.715-14.411 6.5-17.5 8.934-.703 8.934.463 0 3.5-.797.457-1.13 1.124-1 2z"/><path style="opacity:1" fill="#d4e0fd" d="M96.5 59.5c8.374 8.456 11.708 18.456 10 30a50.464 50.464 0 0 0-.5-10c-.232-1.237-.732-2.237-1.5-3a199.323 199.323 0 0 0-8-17z"/><path style="opacity:1" fill="#182846" d="M313.5 64.5c-4.292 1.869-5.292 1.202-3-2h1c3.988-1.198 7.988-1.198 12 0a625.46 625.46 0 0 0-10 2z"/><path style="opacity:1" fill="#4b7cf7" d="M67.5 62.5c-2.469.817-5.135 1.317-8 1.5a8.434 8.434 0 0 0 4 .5c.577 3.58-.423 6.58-3 9-.952 1.545-1.285 3.212-1 5-1.89-.204-3.39.463-4.5 2-.19 2.208-.69 4.208-1.5 6a8.434 8.434 0 0 0-.5-4c-4.573-2.827-7.406-6.827-8.5-12-.35-3.356.483-6.356 2.5-9 6.742-.165 13.576.168 20.5 1z"/><path style="opacity:1" fill="#b1b6c0" d="M199.5 62.5c2.124.531 3.624 1.865 4.5 4a8.43 8.43 0 0 1 .5 4c.306 2.885-.027 5.552-1 8a60.93 60.93 0 0 0-.5-11 81.819 81.819 0 0 0-2.5-3l-1-2z"/><path style="opacity:1" fill="#49556d" d="M233.5 60.5h2l2 3c-1.333 0-2 .667-2 2a34.17 34.17 0 0 0-10-1 470.1 470.1 0 0 1 9-2c-4.348-1.21-8.681-1.21-13 0v-1c3.9-.93 7.9-1.263 12-1z"/><path style="opacity:1" fill="#799df9" d="M45.5 60.5c1.624-2.858.957-3.525-2-2-.13-.876.203-1.543 1-2 8.934-3.037 8.934-4.203 0-3.5-9.215 3.089-11.381 8.922-6.5 17.5.183-2.865.683-5.531 1.5-8-.342 5.311 1.158 9.978 4.5 14l.5-1a9.106 9.106 0 0 1-1-5h1c1.094 5.173 3.927 9.173 8.5 12a8.434 8.434 0 0 1 .5 4c-2.318 1.685-3.318 4.019-3 7h5v-5c4.707-.431 8.707.902 12 4a76.684 76.684 0 0 1-11-3c-.17 1.322.163 2.489 1 3.5 7.153 3.951 14.82 5.451 23 4.5 7.23-.283 7.564.55 1 2.5a40.911 40.911 0 0 1-9 .5h-5c-4.82-3.384-10.152-5.384-16-6-.268 1.599.066 2.932 1 4-1.418 1.808-3.418 2.475-6 2a9.818 9.818 0 0 0-3-4c-2.4-3.403-5.4-6.07-9-8-3.738-4.462-6.738-9.462-9-15a73.687 73.687 0 0 1-.5-19c.383-.556.883-.89 1.5-1a29.134 29.134 0 0 0-.5 9l2 2c.21-1.558.71-2.892 1.5-4-3.122 9.185-1.122 16.851 6 23 3.19 5.59 7.856 9.256 14 11 .609-3.378-.724-5.378-4-6a89.472 89.472 0 0 0-7.5-10c-1.232-3.56-2.732-6.894-4.5-10a60.94 60.94 0 0 1 .5-11 74.73 74.73 0 0 1 5.5-6c-.865-1.083-1.865-1.25-3-.5a31.444 31.444 0 0 1-5 4.5c3.069-5.628 7.902-8.628 14.5-9a3445.696 3445.696 0 0 1 24.5 8v3a74.256 74.256 0 0 1-11.5-3c-5.12.714-9.62 2.714-13.5 6z"/><path style="opacity:1" fill="#aec4fb" d="M33.5 68.5c.351 2.37.518 4.703.5 7-2.046-2.2-3.046-4.867-3-8a36.434 36.434 0 0 1 .5-12 31.444 31.444 0 0 0 5-4.5c1.135-.75 2.135-.583 3 .5a74.73 74.73 0 0 0-5.5 6 60.94 60.94 0 0 0-.5 11z"/><path style="opacity:1" fill="#3c70f6" d="M76.5 54.5c.067 1.459-.266 2.792-1 4h-1a20.517 20.517 0 0 1-3 6 556.97 556.97 0 0 1-12 21 303.438 303.438 0 0 0-4 3v5h-5c-.318-2.981.682-5.315 3-7 .81-1.792 1.31-3.792 1.5-6 1.11-1.537 2.61-2.204 4.5-2-.285-1.788.048-3.455 1-5 2.577-2.42 3.577-5.42 3-9a8.434 8.434 0 0 1-4-.5c2.865-.183 5.531-.683 8-1.5-.333-3 1-4.333 4-4v-5c1.791-.134 3.458.2 5 1z"/><path style="opacity:1" fill="#48546c" d="M185.5 61.5c4.736-1.48 9.402-1.146 14 1l1 2c-3.337-1.854-4.337-1.187-3 2-3.466-1.592-7.133-2.258-11-2h-1a625.46 625.46 0 0 1 10-2 25.87 25.87 0 0 0-10-1z"/><path style="opacity:1" fill="#687286" d="M221.5 62.5c-1 1.667-2.333 3-4 4 .333-2.333 1.667-3.667 4-4z"/><path style="opacity:1" fill="#4b576e" d="M312.5 60.5a84.94 84.94 0 0 1 13 .5 14.696 14.696 0 0 1 3 3.5 5.577 5.577 0 0 1-3-1c-1.062.925-1.062 1.925 0 3a5.728 5.728 0 0 1-3-1c-2.787-.977-5.787-1.31-9-1a625.46 625.46 0 0 1 10-2c-4.012-1.198-8.012-1.198-12 0l1-2z"/><path style="opacity:1" fill="#b5bac3" d="M375.5 72.5h-2c-.254-2.514-1.087-4.848-2.5-7-2.167-.833-3.667-2.333-4.5-4.5-4.591-.942-8.924-.442-13 1.5.453-.958 1.119-1.792 2-2.5 4-.667 8-.667 12 0 3.859 3.417 6.525 7.584 8 12.5z"/><path style="opacity:1" fill="#2c3955" d="M185.5 61.5a25.87 25.87 0 0 1 10 1 625.46 625.46 0 0 0-10 2c-4.047 2.092-6.047 5.425-6 10a31.12 31.12 0 0 1-2-2c-1.333 4-1.333 8 0 12 .669-2.13 1.335-4.13 2-6-.51 2.888.156 5.221 2 7-.067 1.459.266 2.792 1 4-1.574-.437-2.741-1.437-3.5-3-.384 1.697-.218 3.363.5 5l-4-5a93.303 93.303 0 0 1 1-18 310.678 310.678 0 0 0 3-4 17.533 17.533 0 0 1 6-3z"/><path style="opacity:1" fill="#5e687d" d="M310.5 62.5c-2.292 3.202-1.292 3.869 3 2-1.236 1.543-2.902 2.543-5 3-1.59-2.67-.923-4.337 2-5z"/><path style="opacity:1" fill="#f6f6f8" d="M186.5 64.5c3.867-.258 7.534.408 11 2-.172.992.162 1.658 1 2v5c-5.858.322-11.525-.011-17-1a4.934 4.934 0 0 1 .5-3 31.473 31.473 0 0 0 4.5-5z"/><path style="opacity:1" fill="#fbfbfb" d="M363.5 65.5c2.687 7.329 3.687 14.995 3 23l-2 1h-11c-1.051-.722-1.718-1.722-2-3-1.115-5.25-1.281-10.583-.5-16a10.526 10.526 0 0 0 2.5-3c0-.667.333-1 1-1a29.221 29.221 0 0 1 9-1z"/><path style="opacity:1" fill="#182846" d="M200.5 64.5c.098 2.748-.902 3.414-3 2-1.337-3.187-.337-3.854 3-2z"/><path style="opacity:1" fill="#172544" d="m348.5 64.5 2 4c-1.306 6.1-1.306 12.1 0 18-.027 1.7-.694 3.033-2 4 .262 1.478-.071 2.811-1 4a300.7 300.7 0 0 1 0-49 91.124 91.124 0 0 1 1 19z"/><path style="opacity:1" fill="#cfd2d9" d="m312.5 60.5-1 2h-1c-2.923.663-3.59 2.33-2 5 2.098-.457 3.764-1.457 5-3 3.213-.31 6.213.023 9 1a32.438 32.438 0 0 0-8 .5c-2.202 2.774-4.869 3.607-8 2.5-1.446-5.08.554-7.746 6-8z"/><path style="opacity:1" fill="#497af7" d="M71.5 64.5c.461 2.803 1.795 5.137 4 7 1.036 7.44 1.036 8.44 0 3-2.821-.184-4.488 1.15-5 4l-7 2c2.883 2.59 5.883 2.59 9 0 .605 1.087.272 2.254-1 3.5a88.665 88.665 0 0 0-12 1.5 556.97 556.97 0 0 0 12-21z"/><path style="opacity:1" fill="#7197f8" d="M71.5 64.5c7.927 3.378 10.26 9.045 7 17a42.707 42.707 0 0 1-1.5-9c-.383-.556-.883-.89-1.5-1-2.205-1.863-3.539-4.197-4-7z"/><path style="opacity:1" fill="#313f5a" d="M373.5 72.5c.315 3.871-.018 7.538-1 11l-1 4v3a68.419 68.419 0 0 1-8 4.5c-3.349.388-6.683.22-10-.5v-1c-.8-2.24-2.466-3.24-5-3 1.306-.967 1.973-2.3 2-4h1c.282 1.278.949 2.278 2 3 .453.958 1.119 1.792 2 2.5 2.867.8 5.534.634 8-.5l1-2 2-1 2-4c1.37-5.572 1.203-11.239-.5-17-1.863-2.449-4.363-3.449-7.5-3l-5 .5c-.556.383-.889.883-1 1.5-.667 0-1 .333-1 1a5.728 5.728 0 0 0-3 1l-2-4h1c1.291.237 2.291-.096 3-1 0-.667.333-1 1-1 4.076-1.942 8.409-2.442 13-1.5.833 2.167 2.333 3.667 4.5 4.5 1.413 2.152 2.246 4.486 2.5 7z"/><path style="opacity:1" fill="#ced1d8" d="M330.5 65.5c1.328 4.788 1.995 9.954 2 15.5l-.5 15.5a6.291 6.291 0 0 1-3 1c-2.36-1.28-4.86-1.947-7.5-2 1.423-2.045 3.423-3.045 6-3v3c1.322.17 2.489-.163 3.5-1a144.36 144.36 0 0 0-.5-29z"/><path style="opacity:1" fill="#5885f7" d="M76.5 54.5h1a102.01 102.01 0 0 0 12 12v2c1.817 4.74 2.484 9.74 2 15a4.932 4.932 0 0 1-.5 3 68.884 68.884 0 0 0-7.5 6c-5.464 1.257-10.797 1.257-16 0-3.293-3.098-7.293-4.431-12-4a303.438 303.438 0 0 1 4-3 88.665 88.665 0 0 1 12-1.5c1.272-1.246 1.605-2.413 1-3.5-3.117 2.59-6.117 2.59-9 0l7-2c.512-2.85 2.179-4.184 5-4 1.036 5.44 1.036 4.44 0-3 .617.11 1.117.444 1.5 1a42.707 42.707 0 0 0 1.5 9c3.26-7.955.927-13.622-7-17a20.517 20.517 0 0 0 3-6 8.434 8.434 0 0 0 .5 4 39.492 39.492 0 0 1 11.5 12c1.099-2.859.599-5.526-1.5-8-2.741-3.247-5.908-5.914-9.5-8 .734-1.208 1.067-2.541 1-4z"/><path style="opacity:1" fill="#7298f8" d="M74.5 58.5h1c3.592 2.086 6.759 4.753 9.5 8 2.099 2.474 2.599 5.141 1.5 8a39.492 39.492 0 0 0-11.5-12 8.434 8.434 0 0 1-.5-4z"/><path style="opacity:1" fill="#d9e3fd" d="M112.5 64.5c2.215 2.593 3.881 5.593 5 9a312.572 312.572 0 0 1-2 17 49.87 49.87 0 0 0-1-14c-2.583-3.776-3.249-7.776-2-12z"/><path style="opacity:1" fill="#94b1fa" d="M45.5 60.5c-1.902 2.837-2.569 6.17-2 10a9.106 9.106 0 0 0 1 5l-.5 1c-3.342-4.022-4.842-8.689-4.5-14 .667-2 2-3.333 4-4 2.957-1.525 3.624-.858 2 2z"/><path style="opacity:1" fill="#6e788b" d="M329.5 64.5c.667 0 1 .333 1 1a144.36 144.36 0 0 1 .5 29c-1.011.837-2.178 1.17-3.5 1v-3c.65.304 1.317.637 2 1a114.788 114.788 0 0 0 0-29z"/><path style="opacity:1" fill="#789cf9" d="M89.5 68.5c.958.453 1.792 1.12 2.5 2 .814 4.52.647 8.854-.5 13 .484-5.26-.183-10.26-2-15z"/><path style="opacity:1" fill="#cbced5" d="M198.5 68.5c.961 1.765 1.295 3.765 1 6a91.123 91.123 0 0 1-19-1c.124-.607.457-.94 1-1 5.475.989 11.142 1.322 17 1v-5z"/><path style="opacity:1" fill="#d9dce1" d="M322.5 65.5c.891.61 1.891.943 3 1 .758 2.852.758 5.519 0 8-4.1-.263-8.1.07-12 1 3.184-1.914 6.851-2.58 11-2 .135-2.918-.532-5.584-2-8z"/><path style="opacity:1" fill="#0f1f3f" d="M372.5 83.5c-1.3-1.723-1.967-3.89-2-6.5l.5-6.5c1.367 4.2 1.867 8.533 1.5 13z"/><path style="opacity:1" fill="#838b9b" d="M185.5 64.5h1a31.473 31.473 0 0 1-4.5 5 4.934 4.934 0 0 0-.5 3c-.543.06-.876.393-1 1a91.123 91.123 0 0 0 19 1 50.501 50.501 0 0 1-20 0c-.047-4.575 1.953-7.908 6-10z"/><path style="opacity:1" fill="#d1d3da" d="m216.5 66.5-2 6c-.983 3.798-1.317 7.798-1 12-1.312-4.515-1.312-9.182 0-14 .557-1.832 1.557-3.165 3-4z"/><path style="opacity:1" fill="#cbced5" d="M235.5 60.5c8.049 3.575 10.716 9.575 8 18 .313-3.542-.021-6.875-1-10-.611-2.611-2.277-4.278-5-5l-2-3z"/><path style="opacity:1" fill="#a2a8b4" d="M353.5 67.5a10.526 10.526 0 0 1-2.5 3c-.781 5.417-.615 10.75.5 16h-1c-1.306-5.9-1.306-11.9 0-18a5.728 5.728 0 0 1 3-1z"/><path style="opacity:1" fill="#24324f" d="M225.5 64.5c-5.196 1.782-7.196 5.116-6 10 6.479.99 13.146 1.324 20 1 .446-2.51-.22-4.51-2-6-.233-1.562-.9-2.895-2-4 0-1.333.667-2 2-2 2.723.722 4.389 2.389 5 5v9c-7.852-.325-15.518.008-23 1-1.333 2.333-1.333 4.667 0 7a5.727 5.727 0 0 0 1 3c0 1.333-.667 2-2 2-1.779-1.17-2.779-2.836-3-5v-2a56.904 56.904 0 0 1 2-17c1.667-1 3-2.333 4-4 4.319-1.21 8.652-1.21 13 0a470.1 470.1 0 0 0-9 2z"/><path style="opacity:1" fill="#7a8394" d="M237.5 69.5c1.78 1.49 2.446 3.49 2 6-6.854.324-13.521-.01-20-1h19a20.691 20.691 0 0 0-1-5z"/><path style="opacity:1" fill="#cacdd4" d="M225.5 65.5v-1a34.17 34.17 0 0 1 10 1c1.1 1.105 1.767 2.438 2 4a20.691 20.691 0 0 1 1 5h-19c-.268-1.599.066-2.932 1-4v3h16c.394-3.357-.939-5.69-4-7a13.118 13.118 0 0 0-7-1z"/><path style="opacity:1" fill="#7c8496" d="M225.5 64.5v1c-2 1.333-3.667 3-5 5-.934 1.068-1.268 2.401-1 4-1.196-4.884.804-8.218 6-10z"/><path style="opacity:1" fill="#fcfcfc" d="M225.5 65.5a13.118 13.118 0 0 1 7 1c3.061 1.31 4.394 3.643 4 7h-16v-3c1.333-2 3-3.667 5-5z"/><path style="opacity:1" fill="#a5abb6" d="m325.5 74.5-9 2h-4c0-.667.333-1 1-1 3.9-.93 7.9-1.263 12-1z"/><path style="opacity:1" fill="#616c80" d="M325.5 66.5c1.927 2.637 2.427 5.637 1.5 9-3.394.956-6.894 1.29-10.5 1l9-2c.758-2.481.758-5.148 0-8z"/><path style="opacity:1" fill="#e4ebfe" d="M5.5 68.5c1.326 2.194 2.993 4.194 5 6 .886-.825 1.219-1.825 1-3a95.367 95.367 0 0 0 9 16l-1 2c1.676 3.507 4.176 6.174 7.5 8 .273 1.829 1.107 3.329 2.5 4.5-1 .667-2 .667-3 0-1.29-1.802-2.956-2.969-5-3.5-8.246-8.298-13.58-18.298-16-30z"/><path style="opacity:1" fill="#9db7fa" d="M31.5 55.5a36.434 36.434 0 0 0-.5 12c-.046 3.133.954 5.8 3 8a45.312 45.312 0 0 0-.5-7c1.768 3.106 3.268 6.44 4.5 10a89.472 89.472 0 0 1 7.5 10c-3.13-1.072-5.796-2.906-8-5.5-.937-.692-1.603-.525-2 .5-7.122-6.149-9.122-13.815-6-23-.38-2.198.287-3.865 2-5z"/><path style="opacity:1" fill="#b3b8c2" d="M176.5 68.5a93.303 93.303 0 0 0-1 18c-2.211-4.743-2.544-9.743-1-15 .14-1.53.807-2.53 2-3z"/><path style="opacity:1" fill="#202f4b" d="M180.5 78.5h-1c-.665 1.87-1.331 3.87-2 6-1.333-4-1.333-8 0-12a31.12 31.12 0 0 0 2 2 50.501 50.501 0 0 0 20 0c.665-1.87 1.331-3.87 2-6a21.128 21.128 0 0 1 1 9c-7.519-.325-14.852.008-22 1z"/><path style="opacity:1" fill="#868f9e" d="M214.5 72.5c-.315 3.871.018 7.538 1 11v2l-2-1c-.317-4.202.017-8.202 1-12z"/><path style="opacity:1" fill="#49556d" d="M216.5 66.5h1a56.904 56.904 0 0 0-2 17c-.982-3.462-1.315-7.129-1-11l2-6z"/><path style="opacity:1" fill="#3c4963" d="M200.5 64.5c.815.93 1.648 1.93 2.5 3a60.93 60.93 0 0 1 .5 11h-23c7.148-.992 14.481-1.325 22-1a21.128 21.128 0 0 0-1-9c-.669 2.13-1.335 4.13-2 6 .295-2.235-.039-4.235-1-6-.838-.342-1.172-1.008-1-2 2.098 1.414 3.098.748 3-2z"/><path style="opacity:1" fill="#48536c" d="M242.5 68.5c.979 3.125 1.313 6.458 1 10h-24c7.482-.992 15.148-1.325 23-1v-9z"/><path style="opacity:1" fill="#8991a0" d="M312.5 76.5c-4.93 2.866-6.93 7.199-6 13-2.616-6.437-.616-10.77 6-13z"/><path style="opacity:1" fill="#8a92a1" d="M368.5 84.5a84.9 84.9 0 0 0-.5-13c-.566-2.729-2.066-4.729-4.5-6-3.07-.132-6.07.201-9 1 .111-.617.444-1.117 1-1.5l5-.5c3.137-.449 5.637.551 7.5 3 1.703 5.761 1.87 11.428.5 17z"/><path style="opacity:1" fill="#9db7fa" d="M89.5 66.5c3.5 2.819 5.5 6.485 6 11a134.39 134.39 0 0 1 1.5 13c.708-.88 1.542-1.547 2.5-2-1.6 3.27-3.934 5.937-7 8-1.09-.891-1.09-1.891 0-3-.457-.797-1.124-1.13-2-1 1.126-1.358 1.126-2.692 0-4-1.9 2.116-4.233 3.45-7 4a68.884 68.884 0 0 1 7.5-6c.483-.948.65-1.948.5-3 1.147-4.146 1.314-8.48.5-13-.708-.88-1.542-1.547-2.5-2v-2z"/><path style="opacity:1" fill="#c6d6fc" d="M122.5 91.5v5l-9 10a58.1 58.1 0 0 0 5-9 28.717 28.717 0 0 0 .5-13 82.614 82.614 0 0 1-3.5 10v-4a312.572 312.572 0 0 0 2-17c-1.119-3.407-2.785-6.407-5-9-1.237-1.465-2.237-3.132-3-5 .017-1.528.684-2.028 2-1.5 8.902 9.335 12.568 20.501 11 33.5z"/><path style="opacity:1" fill="#8f96a5" d="M179.5 78.5h24c-7.482.992-15.148 1.325-23 1 .017 2.065.35 4.065 1 6-1.844-1.779-2.51-4.112-2-7z"/><path style="opacity:1" fill="#8a91a1" d="M219.5 78.5h22c-7.148.992-14.481 1.325-22 1v6c-1.333-2.333-1.333-4.667 0-7z"/><path style="opacity:1" fill="#dbdee2" d="M363.5 65.5c2.434 1.271 3.934 3.271 4.5 6a84.9 84.9 0 0 1 .5 13l-2 4c.687-8.005-.313-15.671-3-23z"/><path style="opacity:1" fill="#dbdee3" d="M204.5 70.5c2.786 3.594 2.452 7.094-1 10.5-6.992.5-13.992.666-21 .5-.595 7.065 2.739 10.065 10 9a50.79 50.79 0 0 1 7-1l-3 2a45.795 45.795 0 0 1-12-1l-2-1c-.734-1.208-1.067-2.541-1-4a19.222 19.222 0 0 1-1-6c7.852.325 15.518-.008 23-1 .973-2.448 1.306-5.115 1-8z"/><path style="opacity:1" fill="#e3e5e9" d="M241.5 78.5h2c.086.996-.248 1.83-1 2.5-7.326.5-14.659.666-22 .5v4h-1v-6c7.519.325 14.852-.008 22-1z"/><path style="opacity:1" fill="#c4d4fc" d="M98.5 75.5h1v13c-.958.453-1.792 1.12-2.5 2a134.39 134.39 0 0 0-1.5-13c1.567 1.18 2.4 2.847 2.5 5 .497-2.31.663-4.643.5-7z"/><path style="opacity:1" fill="#697387" d="M373.5 72.5h2a36.877 36.877 0 0 1-1 12c-.788 1.27-1.788 2.27-3 3l1-4c.982-3.462 1.315-7.129 1-11z"/><path style="opacity:1" fill="#2a3853" d="M328.5 64.5h1a114.788 114.788 0 0 1 0 29 44.043 44.043 0 0 0-2-1c-2.577-.045-4.577.955-6 3h-2a76.944 76.944 0 0 1-10-1 29.551 29.551 0 0 1-3-5c-.93-5.801 1.07-10.134 6-13h4c3.606.29 7.106-.044 10.5-1 .927-3.363.427-6.363-1.5-9-1.062-1.075-1.062-2.075 0-3 .917.627 1.917.96 3 1z"/><path style="opacity:1" fill="#f3f4f6" d="M316.5 80.5h9v6c-.282 1.278-.949 2.278-2 3a44.83 44.83 0 0 1-10 1c-1.333 0-2-.667-2-2v-6c1.32-1.442 2.986-2.109 5-2z"/><path style="opacity:1" fill="#afb5bf" d="M316.5 80.5c2.787-.977 5.787-1.31 9-1 1.333 2.333 1.333 4.667 0 7v-6h-9z"/><path style="opacity:1" fill="#6e788b" d="M325.5 79.5c-3.213-.31-6.213.023-9 1-2.014-.109-3.68.558-5 2 .256-2.276 1.59-3.443 4-3.5 3.527-.808 6.86-.64 10 .5z"/><path style="opacity:1" fill="#8f97a5" d="M311.5 82.5v6c-1.149-.291-1.816-1.124-2-2.5-.113-1.7.553-2.866 2-3.5z"/><path style="opacity:1" fill="#767f91" d="M219.5 85.5h1c.61.891.943 1.891 1 3h-1a5.727 5.727 0 0 1-1-3z"/><path style="opacity:1" fill="#90aefa" d="M34.5 88.5c3.6 1.93 6.6 4.597 9 8h-2c-.333-1-1-1.667-2-2l-5-6z"/><path style="opacity:1" fill="#d1d4da" d="M239.5 94.5c1.306-.967 1.973-2.3 2-4-.709-.904-1.709-1.237-3-1-.03-.997.47-1.664 1.5-2 3.312.958 4.145 2.958 2.5 6-.825.886-1.825 1.219-3 1z"/><path style="opacity:1" fill="#b7cbfc" d="M45.5 88.5c3.276.622 4.609 2.622 4 6-6.144-1.744-10.81-5.41-14-11 .397-1.025 1.063-1.192 2-.5 2.204 2.594 4.87 4.428 8 5.5z"/><path style="opacity:1" fill="#1a2947" d="m182.5 89.5 2 1 1 2c-.235.597-.735.93-1.5 1a15.407 15.407 0 0 0-4.5-2c-.718-1.637-.884-3.303-.5-5 .759 1.563 1.926 2.563 3.5 3z"/><path style="opacity:1" fill="#778092" d="M199.5 89.5h4c.667 4-1 5.667-5 5 1.542-.64 2.876-1.64 4-3-1.826-.42-3.826-.42-6 0l3-2z"/><path style="opacity:1" fill="#dadde2" d="M220.5 85.5c1.634.707 2.968 1.873 4 3.5a84.94 84.94 0 0 0 13 .5c-3.345 1.717-7.011 2.384-11 2a18.95 18.95 0 0 1-5-3 5.727 5.727 0 0 0-1-3z"/><path style="opacity:1" fill="#d6d9de" d="M355.5 89.5h9l-1 2a24.939 24.939 0 0 1-7-.5c-.556-.383-.889-.883-1-1.5z"/><path style="opacity:1" fill="#c5c9d1" d="m175.5 86.5 4 5 1 2c-3.269-1.06-4.935-3.393-5-7z"/><path style="opacity:1" fill="#cbcfd6" d="M199.5 89.5c1.419-.951 3.085-1.284 5-1a18.452 18.452 0 0 1-.5 6 50.753 50.753 0 0 1-7.5 2v-1c.342-.838 1.008-1.172 2-1 4 .667 5.667-1 5-5h-4z"/><path style="opacity:1" fill="#455069" d="M220.5 88.5h1a18.95 18.95 0 0 0 5 3v1a14.068 14.068 0 0 1-3.5-1c-1.683.677-1.85 1.677-.5 3-2.21-.394-3.543-1.727-4-4 1.333 0 2-.667 2-2z"/><path style="opacity:1" fill="#9ea5b1" d="M323.5 89.5c-3.29 3.229-6.623 3.562-10 1a44.83 44.83 0 0 0 10-1z"/><path style="opacity:1" fill="#dbe5fd" d="M115.5 92.5v2a18.826 18.826 0 0 1-5 7 6.802 6.802 0 0 1-1.5-3c-2.106 2.618-4.606 4.618-7.5 6a151.28 151.28 0 0 1 10.5-13c.927 3.206 2.093 3.54 3.5 1z"/><path style="opacity:1" fill="#576278" d="M149.5 92.5v-1h18v4c-7.519.325-14.852-.008-22-1 7.032.33 14.032-.003 21-1a73.122 73.122 0 0 0-17-1z"/><path style="opacity:1" fill="#7d8697" d="M184.5 90.5a45.795 45.795 0 0 0 12 1c-3.462.982-7.129 1.315-11 1l-1-2z"/><path style="opacity:1" fill="#808899" d="M237.5 89.5h1c1.291-.237 2.291.096 3 1a43.484 43.484 0 0 1-15 2v-1c3.989.384 7.655-.283 11-2z"/><path style="opacity:1" fill="#4b586f" d="M279.5 92.5v-1h18c.667 0 1 .333 1 1 .172.992-.162 1.658-1 2-5.574-1.953-11.574-2.62-18-2z"/><path style="opacity:1" fill="#7b8495" d="M353.5 89.5h2c.111.617.444 1.117 1 1.5 2.31.497 4.643.663 7 .5-2.466 1.134-5.133 1.3-8 .5-.881-.708-1.547-1.542-2-2.5z"/><path style="opacity:1" fill="#949ba9" d="M371.5 90.5c-4.633 5.954-10.633 7.62-18 5v-1c3.317.72 6.651.888 10 .5a68.419 68.419 0 0 0 8-4.5z"/><path style="opacity:1" fill="#37445e" d="M198.5 94.5c-.992-.172-1.658.162-2 1a52.416 52.416 0 0 1-13-1 5.728 5.728 0 0 1-3-1l-1-2a15.407 15.407 0 0 1 4.5 2c.765-.07 1.265-.403 1.5-1 3.871.315 7.538-.018 11-1 2.174-.42 4.174-.42 6 0-1.124 1.36-2.458 2.36-4 3z"/><path style="opacity:1" fill="#323f5a" d="M241.5 90.5c-.027 1.7-.694 3.033-2 4a96.939 96.939 0 0 1-16 1c0-.667-.333-1-1-1-1.35-1.323-1.183-2.323.5-3 1.138.49 2.305.823 3.5 1a43.484 43.484 0 0 0 15-2z"/><path style="opacity:1" fill="#394660" d="M149.5 48.5v42c-.667-13.506-1.333-27.173-2-41a484.86 484.86 0 0 0-1 44c1.291.237 2.291-.096 3-1a73.122 73.122 0 0 1 17 1 111.123 111.123 0 0 1-21 1v-46h4z"/><path style="opacity:1" fill="#9cb6fa" d="M67.5 92.5c5.203 1.257 10.536 1.257 16 0-.11.617-.444 1.117-1 1.5l-15 1c4.2 1.367 8.533 1.867 13 1.5v1c-8.18.951-15.847-.549-23-4.5-.837-1.011-1.17-2.178-1-3.5a76.684 76.684 0 0 0 11 3z"/><path style="opacity:1" fill="#bacdfc" d="M90.5 92.5a30.576 30.576 0 0 1-10 4c-4.467.367-8.8-.133-13-1.5l15-1c.556-.383.89-.883 1-1.5 2.767-.55 5.1-1.884 7-4 1.126 1.308 1.126 2.642 0 4z"/><path style="opacity:1" fill="#cbcfd5" d="m213.5 84.5 2 1c.221 2.164 1.221 3.83 3 5 .457 2.273 1.79 3.606 4 4 .667 0 1 .333 1 1 3.798.983 7.798 1.317 12 1-5.392 1.524-10.726 1.024-16-1.5-.864-1.697-2.197-2.863-4-3.5a34.094 34.094 0 0 1-2-7z"/><path style="opacity:1" fill="#737c8e" d="M298.5 92.5c1.385 1.447 1.052 2.447-1 3-6.854.324-13.521-.01-20-1h20c.838-.342 1.172-1.008 1-2z"/><path style="opacity:1" fill="#98b4fa" d="M67.5 100.5a144.636 144.636 0 0 1-15-5v3c-.934-1.068-1.268-2.401-1-4 5.848.616 11.18 2.616 16 6z"/><path style="opacity:1" fill="#abb1bb" d="M149.5 91.5v-1h21c.359 2.266-.308 4.1-2 5.5l-12 .5c-4.393-.01-8.393-.676-12-2h1c7.148.992 14.481 1.325 22 1v-4h-18z"/><path style="opacity:1" fill="#8b93a2" d="M183.5 94.5a52.416 52.416 0 0 0 13 1v1a72.442 72.442 0 0 1-12-.5c-.556-.383-.889-.883-1-1.5z"/><path style="opacity:1" fill="#b1b6c0" d="M239.5 94.5c-.683 1.677-2.017 2.343-4 2-4.202.317-8.202-.017-12-1a96.939 96.939 0 0 0 16-1z"/><path style="opacity:1" fill="#a8aeb9" d="M275.5 94.5h2c6.479.99 13.146 1.324 20 1-6.821 1.155-13.821 1.321-21 .5-.556-.383-.889-.883-1-1.5z"/><path style="opacity:1" fill="#878f9f" d="M309.5 94.5c3.307.55 6.64.884 10 1-1.122.656-2.455.99-4 1-2.383.139-4.383-.528-6-2z"/><path style="opacity:1" fill="#8aa9f9" d="M95.5 98.5c-7.55 2.811-15.217 3.478-23 2a40.911 40.911 0 0 0 9-.5c6.564-1.95 6.23-2.783-1-2.5v-1a30.576 30.576 0 0 0 10-4c.876-.13 1.543.203 2 1-1.09 1.109-1.09 2.109 0 3 3.066-2.063 5.4-4.73 7-8v-13c-.823-1.955-.99-3.955-.5-6a36.168 36.168 0 0 1 4 7c2.26 9.112-.24 16.445-7.5 22z"/><path style="opacity:1" fill="#5482f7" d="M46.5 95.5h4v4h-4v-4z"/><path style="opacity:1" fill="#b1c6fb" d="M99.5 97.5c-2.39 2.528-5.39 4.028-9 4.5-5.323.499-10.656.666-16 .5-2.286-.095-4.286-.762-6-2h4c7.783 1.478 15.45.811 23-2l4-1z"/><path style="opacity:1" fill="#acc2fb" d="M41.5 96.5h2a9.818 9.818 0 0 1 3 4l5 2a8.43 8.43 0 0 0-4 .5 55.861 55.861 0 0 1-4.5 5.5c-.385-1.697-.218-3.363.5-5 1.737-3.115 1.07-5.448-2-7z"/><path style="opacity:1" fill="#c7d6fc" d="M104.5 76.5c.768.763 1.268 1.763 1.5 3 .498 3.317.665 6.65.5 10-2.293 6.624-6.626 11.291-13 14-6.522.323-12.855-.01-19-1 5.344.166 10.677-.001 16-.5 3.61-.472 6.61-1.972 9-4.5 1.212-2.407 2.712-4.74 4.5-7 .499-4.655.666-9.322.5-14z"/><path style="opacity:1" fill="#edf2fe" d="M123.5 78.5c4.908 18.659-2.092 30.825-21 36.5-9.333.667-18.667.667-28 0-.916-.278-1.582-.778-2-1.5a142.578 142.578 0 0 0 28 .5c2.569-.898 4.902-2.065 7-3.5 7.521-1.851 12.521-6.518 15-14v-5c.985-4.134 1.318-8.468 1-13z"/><path style="opacity:1" fill="#94b0fa" d="M52.5 98.5c3.232 1.088 6.232 2.421 9 4 6.786 5.209 14.62 7.543 23.5 7 2.36-.004 4.527-.337 6.5-1a20.691 20.691 0 0 0 5-1c1.788-.285 3.455.048 5 1a23.967 23.967 0 0 1-8 3.5 145.05 145.05 0 0 1-17 .5 167.145 167.145 0 0 0-14-4c-2.738-1.525-5.738-2.525-9-3v-1c0-1.333-.667-2-2-2l-5-2c2.582.475 4.582-.192 6-2z"/><path style="opacity:1" fill="#d6e1fd" d="M67.5 100.5h1c1.714 1.238 3.714 1.905 6 2 6.145.99 12.478 1.323 19 1-1.067 2.379-.067 3.379 3 3v1a20.691 20.691 0 0 1-5 1 72.368 72.368 0 0 1-12-.5 66.047 66.047 0 0 0-18-5.5c-2.768-1.579-5.768-2.912-9-4v-3a144.636 144.636 0 0 0 15 5z"/><path style="opacity:1" fill="#acc2fb" d="M113.5 106.5c-2.353.84-4.353 2.174-6 4a66.755 66.755 0 0 0-13 2.5c-6.181.819-12.181.653-18-.5a145.05 145.05 0 0 0 17-.5 23.967 23.967 0 0 0 8-3.5c-1.545-.952-3.212-1.285-5-1v-1a16.336 16.336 0 0 1 5-2c2.894-1.382 5.394-3.382 7.5-6a6.802 6.802 0 0 0 1.5 3 18.826 18.826 0 0 0 5-7 82.614 82.614 0 0 0 3.5-10 28.717 28.717 0 0 1-.5 13 58.1 58.1 0 0 1-5 9z"/><path style="opacity:1" fill="#dae4fd" d="M122.5 96.5c-2.479 7.482-7.479 12.149-15 14 1.647-1.826 3.647-3.16 6-4l9-10z"/><path style="opacity:1" fill="#b8cbfc" d="M61.5 102.5a66.047 66.047 0 0 1 18 5.5c3.986.499 7.986.666 12 .5-1.973.663-4.14.996-6.5 1-8.88.543-16.714-1.791-23.5-7z"/><path style="opacity:1" fill="#e2e9fd" d="M53.5 105.5c3.262.475 6.262 1.475 9 3a27.218 27.218 0 0 0 5 3c-5.547-.282-10.213-2.282-14-6z"/><path style="opacity:1" fill="#d1ddfd" d="M51.5 102.5c1.333 0 2 .667 2 2a20.691 20.691 0 0 0-5-1 4.932 4.932 0 0 1-.5 3 70.722 70.722 0 0 0-10.5 14c-1.175.219-2.175-.114-3-1a28.043 28.043 0 0 0 1.5-5 80.735 80.735 0 0 1 7.5-11c-.718 1.637-.885 3.303-.5 5a55.861 55.861 0 0 0 4.5-5.5 8.43 8.43 0 0 1 4-.5z"/><path style="opacity:1" fill="#c4d4fc" d="M62.5 108.5a167.145 167.145 0 0 1 14 4c5.819 1.153 11.819 1.319 18 .5a66.755 66.755 0 0 1 13-2.5c-2.098 1.435-4.431 2.602-7 3.5-9.368.752-18.701.585-28-.5-1.43-1.037-3.097-1.704-5-2a27.218 27.218 0 0 1-5-3z"/></svg>