<?xml version="1.0" encoding="UTF-8"?>
<!DOCTYPE svg PUBLIC "-//W3C//DTD SVG 1.1//EN" "http://www.w3.org/Graphics/SVG/1.1/DTD/svg11.dtd">
<svg xmlns="http://www.w3.org/2000/svg" version="1.1" width="200px" height="200px" style="shape-rendering:geometricPrecision; text-rendering:geometricPrecision; image-rendering:optimizeQuality; fill-rule:evenodd; clip-rule:evenodd" xmlns:xlink="http://www.w3.org/1999/xlink">
<g><path style="opacity:1" fill="#010102" d="M -0.5,-0.5 C 66.1667,-0.5 132.833,-0.5 199.5,-0.5C 199.5,66.1667 199.5,132.833 199.5,199.5C 132.833,199.5 66.1667,199.5 -0.5,199.5C -0.5,132.833 -0.5,66.1667 -0.5,-0.5 Z"/></g>
<g><path style="opacity:1" fill="#8d8d8d" d="M 151.5,5.5 C 156.68,4.18526 162.014,4.18526 167.5,5.5C 167.376,6.10667 167.043,6.44001 166.5,6.5C 161.695,5.51283 156.695,5.17949 151.5,5.5 Z"/></g>
<g><path style="opacity:1" fill="#f7f7f7" d="M 151.5,5.5 C 156.695,5.17949 161.695,5.51283 166.5,6.5C 157.563,20.9363 145.563,32.103 130.5,40C 126.884,41.4869 123.217,42.8202 119.5,44C 106.263,46.4285 92.9296,48.0952 79.5,49C 66.6086,51.2961 62.442,58.4628 67,70.5C 75.7734,79.8727 82.9401,90.3727 88.5,102C 75.5504,96.9103 64.7171,88.7436 56,77.5C 47.8094,59.3951 52.6427,46.2285 70.5,38C 82.4296,35.8672 94.4296,34.2006 106.5,33C 117.26,32.082 126.927,28.4153 135.5,22C 141.064,16.6047 146.397,11.1047 151.5,5.5 Z"/></g>
<g><path style="opacity:1" fill="#273244" d="M 192.5,38.5 C 192.56,37.9569 192.893,37.6236 193.5,37.5C 194.816,43.3204 194.816,48.9871 193.5,54.5C 193.821,48.9738 193.488,43.6405 192.5,38.5 Z"/></g>
<g><path style="opacity:1" fill="#8ba5e7" d="M 192.5,38.5 C 193.488,43.6405 193.821,48.9738 193.5,54.5C 187.177,59.1569 181.51,64.4902 176.5,70.5C 175.868,67.9048 176.868,65.7382 179.5,64C 176.833,63.3333 176.833,62.6667 179.5,62C 178.427,60.7496 178.427,59.4162 179.5,58C 178.685,56.0198 177.352,54.5198 175.5,53.5C 180.844,48.1569 186.511,43.1569 192.5,38.5 Z"/></g>
<g><path style="opacity:1" fill="#7e8ae6" d="M 175.5,53.5 C 177.352,54.5198 178.685,56.0198 179.5,58C 178.427,59.4162 178.427,60.7496 179.5,62C 176.833,62.6667 176.833,63.3333 179.5,64C 176.868,65.7382 175.868,67.9048 176.5,70.5C 172.84,77.1788 170.173,84.1788 168.5,91.5C 167.548,90.548 166.548,89.548 165.5,88.5C 166.47,80.6246 166.47,72.9579 165.5,65.5C 168.367,61.0906 171.701,57.0906 175.5,53.5 Z"/></g>
<g><path style="opacity:1" fill="#9e41ca" d="M 37.5,137.5 C 36.6016,136.842 35.6016,136.176 34.5,135.5C 34.9231,132.397 35.9231,129.564 37.5,127C 36.572,126.612 35.9054,125.945 35.5,125C 36.6169,120.661 36.6169,116.161 35.5,111.5C 36.7391,108.808 37.4057,105.474 37.5,101.5C 37.0007,96.841 36.6674,92.1743 36.5,87.5C 35.9647,76.6005 39.4647,67.2671 47,59.5C 47.8479,65.5922 49.0146,71.5922 50.5,77.5C 48.9802,94.3274 46.4802,110.994 43,127.5C 41.3924,131.056 39.5591,134.389 37.5,137.5 Z"/></g>
<g><path style="opacity:1" fill="#7342d8" d="M 101.5,92.5 C 101.291,93.9217 100.791,95.255 100,96.5C 97.3443,98.5593 95.1776,100.893 93.5,103.5C 89.2643,95.4111 84.7643,87.4111 80,79.5C 77.7177,75.2823 74.7177,71.6156 71,68.5C 69.5167,65.2976 69.1834,61.9643 70,58.5C 73.8826,54.5367 77.5493,54.8701 81,59.5C 88.8502,69.8541 95.6836,80.8541 101.5,92.5 Z"/></g>
<g><path style="opacity:1" fill="#f7f7f7" d="M 111.5,99.5 C 124.239,105.734 135.072,114.401 144,125.5C 151.028,140.404 147.861,152.571 134.5,162C 132.5,162.667 130.5,163.333 128.5,164C 113.509,165.953 98.5087,167.953 83.5,170C 70.9312,174.885 60.2645,182.551 51.5,193C 45.5,193.667 39.5,193.667 33.5,193C 44.3577,180.465 56.691,169.798 70.5,161C 86.4093,155.942 102.743,153.275 119.5,153C 133.722,151.055 137.888,143.555 132,130.5C 123.347,121.352 116.514,111.018 111.5,99.5 Z"/></g>
<g><path style="opacity:1" fill="#6f53dd" d="M 101.5,92.5 C 106.564,102.292 111.897,111.959 117.5,121.5C 117.297,123.044 116.63,124.378 115.5,125.5C 118.236,128.486 118.57,131.486 116.5,134.5C 118.924,136.714 118.257,137.714 114.5,137.5C 111.542,134.94 109.042,131.94 107,128.5C 102.401,120.187 97.9009,111.853 93.5,103.5C 95.1776,100.893 97.3443,98.5593 100,96.5C 100.791,95.255 101.291,93.9217 101.5,92.5 Z"/></g>
<g><path style="opacity:1" fill="#7478e2" d="M 165.5,65.5 C 166.47,72.9579 166.47,80.6246 165.5,88.5C 166.548,89.548 167.548,90.548 168.5,91.5C 167.519,104.235 166.019,116.902 164,129.5C 162.539,136.93 158.705,142.764 152.5,147C 151.668,147.688 151.002,147.521 150.5,146.5C 151.687,141.365 151.687,136.198 150.5,131C 153.394,117.652 155.228,104.152 156,90.5C 157.509,81.4032 160.676,73.0699 165.5,65.5 Z"/></g>
<g><path style="opacity:1" fill="#ae4bc3" d="M 36.5,87.5 C 36.6674,92.1743 37.0007,96.841 37.5,101.5C 37.4057,105.474 36.7391,108.808 35.5,111.5C 36.6169,116.161 36.6169,120.661 35.5,125C 35.9054,125.945 36.572,126.612 37.5,127C 35.9231,129.564 34.9231,132.397 34.5,135.5C 35.6016,136.176 36.6016,136.842 37.5,137.5C 34.9866,141.858 31.9866,145.858 28.5,149.5C 24.2046,149.721 23.5379,148.388 26.5,145.5C 24.2088,141.712 23.8755,137.712 25.5,133.5C 27.912,129.006 30.0787,124.339 32,119.5C 33.5158,108.689 35.0158,98.0222 36.5,87.5 Z"/></g>
<g><path style="opacity:1" fill="#6f66dc" d="M 117.5,121.5 C 121.47,126.315 125.303,131.315 129,136.5C 131.297,146.902 128.13,149.402 119.5,144C 117.21,142.223 115.543,140.056 114.5,137.5C 118.257,137.714 118.924,136.714 116.5,134.5C 118.57,131.486 118.236,128.486 115.5,125.5C 116.63,124.378 117.297,123.044 117.5,121.5 Z"/></g>
<g><path style="opacity:1" fill="#bd55bb" d="M 25.5,133.5 C 23.8755,137.712 24.2088,141.712 26.5,145.5C 23.5379,148.388 24.2046,149.721 28.5,149.5C 24.778,154.189 20.4447,158.189 15.5,161.5C 13.9481,156.854 14.2814,152.354 16.5,148C 15.244,147.583 14.5774,146.75 14.5,145.5C 18.1949,141.474 21.8616,137.474 25.5,133.5 Z"/></g>
<g><path style="opacity:1" fill="#ce60b1" d="M 14.5,145.5 C 14.5774,146.75 15.244,147.583 16.5,148C 14.2814,152.354 13.9481,156.854 15.5,161.5C 12.4988,164.493 9.16543,167.159 5.5,169.5C 4.33719,164.198 4.17053,158.864 5,153.5C 8.33254,150.998 11.4992,148.332 14.5,145.5 Z"/></g>
</svg>
