<svg xmlns="http://www.w3.org/2000/svg" width="366" height="80" style="shape-rendering:geometricPrecision;text-rendering:geometricPrecision;image-rendering:optimizeQuality;fill-rule:evenodd;clip-rule:evenodd"><path style="opacity:.916" fill="#00adee" d="M-.5.5h366v3H-.5v-3z"/><path style="opacity:.836" fill="#00a8e9" d="M-.5 3.5h366v46c-1.967-.24-3.801.094-5.5 1-.174-4.851-.674-9.518-1.5-14v-29H6.5v21a260.606 260.606 0 0 0-1.5 23c-1.4-1.692-3.234-2.359-5.5-2v-46zm332 25c3.987.152 5.487 2.152 4.5 6a18.085 18.085 0 0 1-3.5 2 16.874 16.874 0 0 1-1-8zm-188 0c2.772.127 4.105 1.627 4 4.5-.045 2.22-1.045 3.72-3 4.5a21.128 21.128 0 0 1-1-9zm162 6c1.031 2.46 1.698 5.127 2 8-1.175.219-2.175-.114-3-1a15.417 15.417 0 0 0 1-7zm-219-6c6.333 2.322 6.5 4.989.5 8a32.437 32.437 0 0 1-.5-8zm245 13c3.43-.745 5.097.589 5 4 .097 3.411-1.57 4.745-5 4v-8zm-245 0c3.43-.745 5.097.589 5 4 .097 3.411-1.57 4.745-5 4v-8zm120-5c2.116 1.588 2.449 3.588 1 6a9.86 9.86 0 0 1-1-6z"/><path style="opacity:.887" fill="#0099da" d="M165.5 23.5c2.948-.277 5.781.056 8.5 1a260.792 260.792 0 0 0 3 14l3-14c2.719-.944 5.552-1.277 8.5-1 .166 10.339 0 20.672-.5 31-1.699.906-3.533 1.24-5.5 1a145.05 145.05 0 0 0-.5-17c-3.547 22.593-6.88 22.593-10 0a145.05 145.05 0 0 0-.5 17c-1.967.24-3.801-.094-5.5-1a481.169 481.169 0 0 1-.5-31z"/><path style="opacity:.938" fill="#0099da" d="M227.5 23.5h6a116.613 116.613 0 0 0 4.5 14c.499-4.655.666-9.322.5-14h6v32a9.864 9.864 0 0 1-6-1 402.52 402.52 0 0 0-5.5-15 128.508 128.508 0 0 0-.5 16h-5v-32z"/><path style="opacity:.956" fill="#0098d9" d="M109.5 23.5h15v6h-8v6h6v6h-6v8h9v6a62.787 62.787 0 0 1-15.5-1 481.169 481.169 0 0 1-.5-31z"/><path style="opacity:.844" fill="#0198d9" d="M325.5 23.5a72.442 72.442 0 0 1 12 .5c5.381 3.789 6.381 8.622 3 14.5 4.203 5.477 3.87 10.643-1 15.5a40.833 40.833 0 0 1-14 1.5v-32zm6 5a16.874 16.874 0 0 0 1 8 18.085 18.085 0 0 0 3.5-2c.987-3.848-.513-5.848-4.5-6zm0 13v8c3.43.745 5.097-.589 5-4 .097-3.411-1.57-4.745-5-4z"/><path style="opacity:.923" fill="#0097d8" d="M21.5 23.5h7v12h4v-12h6v32h-6v-14h-4a84.938 84.938 0 0 1-.5 13c-2 1.333-4 1.333-6 0a480.952 480.952 0 0 1-.5-31z"/><path style="opacity:.933" fill="#0198da" d="M136.5 23.5c5.366-.458 10.533.209 15.5 2 2.406 5.711 1.906 11.045-1.5 16a55.903 55.903 0 0 1 4 14 9.864 9.864 0 0 1-6-1 82.024 82.024 0 0 0-4.5-12l-1 12c-2 1.333-4 1.333-6 0a481.169 481.169 0 0 1-.5-31zm7 5a21.128 21.128 0 0 0 1 9c1.955-.78 2.955-2.28 3-4.5.105-2.873-1.228-4.373-4-4.5z"/><path style="opacity:.841" fill="#0196d6" d="M273.5 23.5h7v26h8v6c-4.93.303-9.763-.03-14.5-1a481.169 481.169 0 0 1-.5-31z"/><path style="opacity:.898" fill="#0197d7" d="M302.5 23.5c2.619-.268 5.119.065 7.5 1a840.815 840.815 0 0 1 5.5 31h-6a51.56 51.56 0 0 1-1-7h-5c1.286 6.385-1.047 8.385-7 6l6-31zm3 11a15.417 15.417 0 0 1-1 7c.825.886 1.825 1.219 3 1-.302-2.873-.969-5.54-2-8z"/><path style="opacity:.881" fill="#0396d7" d="M203.5 23.5h8l5 32h-6c.592-3.14-.408-5.474-3-7a4.94 4.94 0 0 0-2.5 1 18.452 18.452 0 0 0-.5 6h-6a668.58 668.58 0 0 1 5-32zm3 13a9.86 9.86 0 0 0 1 6c1.449-2.412 1.116-4.412-1-6z"/><path style="opacity:.934" fill="#0197d7" d="M51.5 23.5h6v26h4v-26h7c.39 9.733-.11 19.4-1.5 29-5.281 4.199-10.281 3.866-15-1-.5-9.327-.666-18.66-.5-28z"/><path style="opacity:.93" fill="#0197d8" d="M80.5 23.5a72.444 72.444 0 0 1 12 .5c5.436 3.754 6.436 8.587 3 14.5 4.81 13.87-.19 19.537-15 17v-32zm6 5a32.437 32.437 0 0 0 .5 8c6-3.011 5.833-5.678-.5-8zm0 13v8c3.43.745 5.097-.589 5-4 .097-3.411-1.57-4.745-5-4z"/><path style="opacity:.999" fill="#1a87c9" d="M6.5 28.5v43h352v-35c.826 4.482 1.326 9.149 1.5 14 1.699-.906 3.533-1.24 5.5-1v26H-.5v-26c2.266-.359 4.1.308 5.5 2 .171-7.844.671-15.511 1.5-23zm325 13v8c3.43.745 5.097-.589 5-4 .097-3.411-1.57-4.745-5-4zm-245 0v8c3.43.745 5.097-.589 5-4 .097-3.411-1.57-4.745-5-4zm120-5a9.86 9.86 0 0 0 1 6c1.449-2.412 1.116-4.412-1-6z"/><path style="opacity:.916" fill="#2184c7" d="M-.5 75.5h366v3H-.5v-3z"/></svg>