<?xml version="1.0" encoding="UTF-8"?>
<!DOCTYPE svg PUBLIC "-//W3C//DTD SVG 1.1//EN" "http://www.w3.org/Graphics/SVG/1.1/DTD/svg11.dtd">
<svg xmlns="http://www.w3.org/2000/svg" version="1.1" width="396px" height="144px" style="shape-rendering:geometricPrecision; text-rendering:geometricPrecision; image-rendering:optimizeQuality; fill-rule:evenodd; clip-rule:evenodd" xmlns:xlink="http://www.w3.org/1999/xlink">
<g><path style="opacity:1" fill="#fefefe" d="M -0.5,-0.5 C 131.5,-0.5 263.5,-0.5 395.5,-0.5C 395.5,47.5 395.5,95.5 395.5,143.5C 263.5,143.5 131.5,143.5 -0.5,143.5C -0.5,95.5 -0.5,47.5 -0.5,-0.5 Z"/></g>
<g><path style="opacity:1" fill="#d1defd" d="M 86.5,40.5 C 86.3205,38.0459 86.9872,35.8792 88.5,34C 88.1667,33.5 87.8333,33 87.5,32.5C 86.1482,33.5244 84.8149,34.5244 83.5,35.5C 84.075,33.5887 85.075,31.922 86.5,30.5C 87.8897,29.1007 88.8897,27.4341 89.5,25.5C 90.4822,24.8592 91.4822,24.1925 92.5,23.5C 92.8333,24.1667 93.1667,24.8333 93.5,25.5C 91.5038,28.5027 90.3372,31.836 90,35.5C 89.0978,37.4308 87.9312,39.0975 86.5,40.5 Z"/></g>
<g><path style="opacity:1" fill="#e8eefe" d="M 33.5,31.5 C 43.2247,29.9621 52.8914,30.7954 62.5,34C 63.056,34.3826 63.3893,34.8826 63.5,35.5C 60.5448,34.8413 57.5448,34.5079 54.5,34.5C 54.1667,34.5 53.8333,34.5 53.5,34.5C 51.6976,33.5418 49.6976,32.8751 47.5,32.5C 43.03,31.5139 38.3633,31.1805 33.5,31.5 Z"/></g>
<g><path style="opacity:1" fill="#cad8fc" d="M 54.5,34.5 C 57.5448,34.5079 60.5448,34.8413 63.5,35.5C 66.0534,37.5837 69.0534,38.917 72.5,39.5C 73.1667,40.5 73.8333,41.5 74.5,42.5C 68.196,38.845 61.5294,36.1783 54.5,34.5 Z"/></g>
<g><path style="opacity:1" fill="#b4c8fb" d="M 47.5,32.5 C 49.6976,32.8751 51.6976,33.5418 53.5,34.5C 49.8183,34.3347 46.1516,34.5014 42.5,35C 44.7226,35.5662 46.7226,36.3995 48.5,37.5C 42.3048,37.6759 36.1381,37.3425 30,36.5C 27.1979,36.3199 25.0313,37.3199 23.5,39.5C 20.9249,40.7284 18.5916,42.3951 16.5,44.5C 15.3861,43.277 15.2195,41.9437 16,40.5C 19.4212,36.743 23.5879,34.243 28.5,33C 34.8246,32.5005 41.1579,32.3338 47.5,32.5 Z"/></g>
<g><path style="opacity:1" fill="#d5e0fd" d="M 48.5,37.5 C 50.4147,37.2155 52.0813,37.5489 53.5,38.5C 43.3828,38.5609 33.3828,38.8942 23.5,39.5C 25.0313,37.3199 27.1979,36.3199 30,36.5C 36.1381,37.3425 42.3048,37.6759 48.5,37.5 Z"/></g>
<g><path style="opacity:1" fill="#f6f9fe" d="M 112.5,52.5 C 107.186,48.19 101.852,43.8567 96.5,39.5C 96.1667,40.1667 95.8333,40.8333 95.5,41.5C 99.8066,47.8034 104.473,53.8034 109.5,59.5C 110.263,61.3684 111.263,63.0351 112.5,64.5C 111.251,68.7241 111.917,72.7241 114.5,76.5C 115.493,81.1196 115.827,85.7863 115.5,90.5C 115.5,91.1667 115.5,91.8333 115.5,92.5C 114.093,95.0392 112.927,94.7058 112,91.5C 108.235,95.6712 104.735,100.005 101.5,104.5C 99.7162,104.893 98.0495,105.559 96.5,106.5C 93.4331,106.879 92.4331,105.879 93.5,103.5C 99.8739,100.791 104.207,96.124 106.5,89.5C 108.208,77.9558 104.874,67.9558 96.5,59.5C 94.5,55.5 91.5,52.5 87.5,50.5C 85.9826,50.4894 84.8159,49.8228 84,48.5C 83.5045,46.5273 83.3379,44.5273 83.5,42.5C 84.2223,41.4489 85.2223,40.7822 86.5,40.5C 87.9312,39.0975 89.0978,37.4308 90,35.5C 90.3372,31.836 91.5038,28.5027 93.5,25.5C 93.1667,24.8333 92.8333,24.1667 92.5,23.5C 91.4822,24.1925 90.4822,24.8592 89.5,25.5C 91.3479,20.9764 94.3479,17.3097 98.5,14.5C 98.4639,19.9525 96.6306,24.9525 93,29.5C 92.3333,31.1667 92.3333,32.8333 93,34.5C 101.624,38.2945 108.124,44.2945 112.5,52.5 Z"/></g>
<g><path style="opacity:1" fill="#b0c5fb" d="M 86.5,40.5 C 85.2223,40.7822 84.2223,41.4489 83.5,42.5C 83.6309,41.6236 83.2975,40.9569 82.5,40.5C 81.4822,41.1925 80.4822,41.8592 79.5,42.5C 80.8333,40.1667 82.1667,37.8333 83.5,35.5C 84.8149,34.5244 86.1482,33.5244 87.5,32.5C 87.8333,33 88.1667,33.5 88.5,34C 86.9872,35.8792 86.3205,38.0459 86.5,40.5 Z"/></g>
<g><path style="opacity:1" fill="#e2e9fd" d="M 112.5,52.5 C 115.392,57.9431 118.559,63.2765 122,68.5C 123.199,71.7256 123.699,75.059 123.5,78.5C 123.818,83.0323 123.485,87.3656 122.5,91.5C 124.068,78.5015 120.402,67.3349 111.5,58C 110.184,57.4719 109.517,57.9719 109.5,59.5C 104.473,53.8034 99.8066,47.8034 95.5,41.5C 95.8333,40.8333 96.1667,40.1667 96.5,39.5C 101.852,43.8567 107.186,48.19 112.5,52.5 Z"/></g>
<g><path style="opacity:1" fill="#dfe8fd" d="M 54.5,38.5 C 59.2426,39.8134 63.9093,41.3134 68.5,43C 71.3361,44.391 73.6694,46.2243 75.5,48.5C 74.5837,48.9817 73.5837,49.315 72.5,49.5C 70.8228,48.8131 69.1561,48.1465 67.5,47.5C 64.5978,46.056 61.5978,44.556 58.5,43C 51.8417,42.5004 45.175,42.3337 38.5,42.5C 38.6107,41.8826 38.944,41.3826 39.5,41C 44.8333,40.6667 50.1667,40.3333 55.5,40C 54.944,39.6174 54.6107,39.1174 54.5,38.5 Z"/></g>
<g><path style="opacity:1" fill="#e7edfe" d="M 86.5,30.5 C 85.075,31.922 84.075,33.5887 83.5,35.5C 82.1667,37.8333 80.8333,40.1667 79.5,42.5C 77.9504,43.7199 76.2837,43.7199 74.5,42.5C 73.8333,41.5 73.1667,40.5 72.5,39.5C 74.0936,39.9195 75.5936,40.5862 77,41.5C 80.5894,39.0799 82.7561,35.7465 83.5,31.5C 84.4168,30.8728 85.4168,30.5394 86.5,30.5 Z"/></g>
<g><path style="opacity:1" fill="#f8fafe" d="M 23.5,40.5 C 24.3764,40.3691 25.0431,40.7025 25.5,41.5C 19.2979,48.4521 17.2979,56.4521 19.5,65.5C 19.3433,66.8734 19.51,68.2068 20,69.5C 20.876,71.7582 22.0427,73.7582 23.5,75.5C 26.7225,83.6121 32.0558,89.9454 39.5,94.5C 40.5,94.8333 41.1667,95.5 41.5,96.5C 44.5705,98.0519 45.2372,100.385 43.5,103.5C 40.7347,106.905 38.2347,110.572 36,114.5C 35.654,116.218 35.154,117.885 34.5,119.5C 35.325,120.386 36.325,120.719 37.5,120.5C 35.6437,123.519 33.3103,126.185 30.5,128.5C 30.1667,127.833 29.8333,127.167 29.5,126.5C 30.7229,123.053 32.2229,119.72 34,116.5C 34.6667,114.833 34.6667,113.167 34,111.5C 28.9565,107.958 24.7899,103.624 21.5,98.5C 23.5441,99.0312 25.2107,100.198 26.5,102C 27.5,102.667 28.5,102.667 29.5,102C 28.1068,100.829 27.2735,99.3289 27,97.5C 23.6757,95.6736 21.1757,93.007 19.5,89.5C 19.8333,88.8333 20.1667,88.1667 20.5,87.5C 16.9517,82.396 13.9517,77.0626 11.5,71.5C 8.5133,65.8425 9.0133,60.5091 13,55.5C 13.7655,52.4198 14.7655,49.4198 16,46.5C 18.6633,44.6664 21.1633,42.6664 23.5,40.5 Z"/></g>
<g><path style="opacity:1" fill="#8baaf9" d="M 56.5,45.5 C 60.1667,46.1667 63.8333,46.8333 67.5,47.5C 67.8333,48.1667 68.1667,48.8333 68.5,49.5C 64.0845,49.1394 60.0845,47.8061 56.5,45.5 Z"/></g>
<g><path style="opacity:1" fill="#cfdcfd" d="M 33.5,31.5 C 38.3633,31.1805 43.03,31.5139 47.5,32.5C 41.1579,32.3338 34.8246,32.5005 28.5,33C 23.5879,34.243 19.4212,36.743 16,40.5C 15.2195,41.9437 15.3861,43.277 16.5,44.5C 18.5916,42.3951 20.9249,40.7284 23.5,39.5C 23.5,39.8333 23.5,40.1667 23.5,40.5C 21.1633,42.6664 18.6633,44.6664 16,46.5C 14.7655,49.4198 13.7655,52.4198 13,55.5C 9.0133,60.5091 8.5133,65.8425 11.5,71.5C 11.719,72.675 11.3857,73.675 10.5,74.5C 8.49275,72.6938 6.82608,70.6938 5.5,68.5C 1.18208,49.9815 8.18208,37.8148 26.5,32C 28.8098,31.5034 31.1432,31.3367 33.5,31.5 Z"/></g>
<g><path style="opacity:1" fill="#434f67" d="M 345.5,44.5 C 346.833,44.5 348.167,44.5 349.5,44.5C 349.5,51.1667 349.5,57.8333 349.5,64.5C 349.167,64.5 348.833,64.5 348.5,64.5C 348.83,58.1318 348.496,51.7985 347.5,45.5C 346.167,61.8333 346.167,78.1667 347.5,94.5C 348.429,93.3112 348.762,91.9778 348.5,90.5C 351.034,90.2591 352.7,91.2591 353.5,93.5C 352.292,92.7659 350.959,92.4326 349.5,92.5C 349.5,93.5 349.5,94.5 349.5,95.5C 348.167,95.5 346.833,95.5 345.5,95.5C 345.5,78.5 345.5,61.5 345.5,44.5 Z"/></g>
<g><path style="opacity:1" fill="#b1c6fb" d="M 67.5,47.5 C 69.1561,48.1465 70.8228,48.8131 72.5,49.5C 73.5837,49.315 74.5837,48.9817 75.5,48.5C 74.9517,51.0838 73.285,52.0838 70.5,51.5C 69.8333,50.8333 69.1667,50.1667 68.5,49.5C 68.1667,48.8333 67.8333,48.1667 67.5,47.5 Z"/></g>
<g><path style="opacity:1" fill="#6c94f8" d="M 77.5,54.5 C 77.1667,54.5 76.8333,54.5 76.5,54.5C 74.8439,52.9397 72.8439,51.9397 70.5,51.5C 73.285,52.0838 74.9517,51.0838 75.5,48.5C 76.0886,45.2663 78.0886,43.933 81.5,44.5C 81.9077,47.5993 80.741,49.9326 78,51.5C 77.5172,52.448 77.3505,53.448 77.5,54.5 Z"/></g>
<g><path style="opacity:1" fill="#d3d6dc" d="M 345.5,44.5 C 345.5,61.5 345.5,78.5 345.5,95.5C 346.833,95.5 348.167,95.5 349.5,95.5C 349.5,94.5 349.5,93.5 349.5,92.5C 350.959,92.4326 352.292,92.7659 353.5,93.5C 353.5,93.8333 353.5,94.1667 353.5,94.5C 353.5,94.8333 353.5,95.1667 353.5,95.5C 349.988,98.0422 346.488,98.0422 343,95.5C 342.5,78.5033 342.333,61.5033 342.5,44.5C 343.5,44.5 344.5,44.5 345.5,44.5 Z"/></g>
<g><path style="opacity:1" fill="#eff3fe" d="M 53.5,38.5 C 53.8333,38.5 54.1667,38.5 54.5,38.5C 54.6107,39.1174 54.944,39.6174 55.5,40C 50.1667,40.3333 44.8333,40.6667 39.5,41C 38.944,41.3826 38.6107,41.8826 38.5,42.5C 29.5897,44.4109 23.923,49.7442 21.5,58.5C 19.6565,60.2789 18.9898,62.6122 19.5,65.5C 17.2979,56.4521 19.2979,48.4521 25.5,41.5C 25.0431,40.7025 24.3764,40.3691 23.5,40.5C 23.5,40.1667 23.5,39.8333 23.5,39.5C 33.3828,38.8942 43.3828,38.5609 53.5,38.5 Z"/></g>
<g><path style="opacity:1" fill="#394760" d="M 275.5,48.5 C 276.833,48.5 278.167,48.5 279.5,48.5C 279.5,62.5 279.5,76.5 279.5,90.5C 278.833,76.994 278.167,63.3274 277.5,49.5C 276.501,64.1515 276.167,78.8182 276.5,93.5C 277.791,93.7373 278.791,93.404 279.5,92.5C 285.926,91.88 291.926,92.5467 297.5,94.5C 290.833,94.5 284.167,94.5 277.5,94.5C 276.833,94.5 276.167,94.5 275.5,94.5C 275.5,79.1667 275.5,63.8333 275.5,48.5 Z"/></g>
<g><path style="opacity:1" fill="#abb0bc" d="M 349.5,44.5 C 349.851,51.0653 350.851,57.3986 352.5,63.5C 351.791,64.404 350.791,64.7373 349.5,64.5C 349.5,57.8333 349.5,51.1667 349.5,44.5 Z"/></g>
<g><path style="opacity:1" fill="#d5e0fd" d="M 87.5,50.5 C 91.5,52.5 94.5,55.5 96.5,59.5C 93.1667,56.8333 90.1667,53.8333 87.5,50.5 Z"/></g>
<g><path style="opacity:1" fill="#cbcfd6" d="M 149.5,48.5 C 150.496,61.9898 150.829,75.6565 150.5,89.5C 156.358,89.1778 162.025,89.5111 167.5,90.5C 161.5,90.5 155.5,90.5 149.5,90.5C 149.5,76.5 149.5,62.5 149.5,48.5 Z"/></g>
<g><path style="opacity:1" fill="#1d2c49" d="M 149.5,90.5 C 149.5,90.8333 149.5,91.1667 149.5,91.5C 149.5,91.8333 149.5,92.1667 149.5,92.5C 148.791,93.404 147.791,93.7373 146.5,93.5C 146.167,78.8182 146.501,64.1515 147.5,49.5C 148.167,63.3274 148.833,76.994 149.5,90.5 Z"/></g>
<g><path style="opacity:1" fill="#939aa8" d="M 279.5,48.5 C 280.167,48.5 280.5,48.8333 280.5,49.5C 280.5,63.1667 280.5,76.8333 280.5,90.5C 286.358,90.1778 292.025,90.5111 297.5,91.5C 291.5,91.5 285.5,91.5 279.5,91.5C 279.5,91.1667 279.5,90.8333 279.5,90.5C 279.5,76.5 279.5,62.5 279.5,48.5 Z"/></g>
<g><path style="opacity:1" fill="#cbced5" d="M 275.5,48.5 C 275.5,63.8333 275.5,79.1667 275.5,94.5C 275.611,95.1174 275.944,95.6174 276.5,96C 283.679,96.8213 290.679,96.6546 297.5,95.5C 299.552,94.9473 299.885,93.9473 298.5,92.5C 298.5,91.8333 298.167,91.5 297.5,91.5C 292.025,90.5111 286.358,90.1778 280.5,90.5C 280.5,76.8333 280.5,63.1667 280.5,49.5C 281.496,62.6562 281.829,75.9895 281.5,89.5C 287.509,89.3338 293.509,89.5005 299.5,90C 300.833,92.3333 300.833,94.6667 299.5,97C 291.254,97.8149 283.088,97.6483 275,96.5C 274.172,80.328 274.339,64.328 275.5,48.5 Z"/></g>
<g><path style="opacity:1" fill="#0e1e3e" d="M 279.5,90.5 C 279.5,90.8333 279.5,91.1667 279.5,91.5C 279.5,91.8333 279.5,92.1667 279.5,92.5C 278.791,93.404 277.791,93.7373 276.5,93.5C 276.167,78.8182 276.501,64.1515 277.5,49.5C 278.167,63.3274 278.833,76.994 279.5,90.5 Z"/></g>
<g><path style="opacity:1" fill="#9fa5b2" d="M 149.5,48.5 C 148.167,48.5 146.833,48.5 145.5,48.5C 145.5,63.8333 145.5,79.1667 145.5,94.5C 145.167,94.5 144.833,94.5 144.5,94.5C 143.339,79.3389 143.172,64.0055 144,48.5C 145.943,47.193 147.777,47.193 149.5,48.5 Z"/></g>
<g><path style="opacity:1" fill="#a4bdfb" d="M 53.5,34.5 C 53.8333,34.5 54.1667,34.5 54.5,34.5C 61.5294,36.1783 68.196,38.845 74.5,42.5C 76.2837,43.7199 77.9504,43.7199 79.5,42.5C 80.4822,41.8592 81.4822,41.1925 82.5,40.5C 83.2975,40.9569 83.6309,41.6236 83.5,42.5C 83.3379,44.5273 83.5045,46.5273 84,48.5C 84.8159,49.8228 85.9826,50.4894 87.5,50.5C 90.1667,53.8333 93.1667,56.8333 96.5,59.5C 99.4072,64.9844 102.074,70.651 104.5,76.5C 104.666,81.1785 104.499,85.8452 104,90.5C 102.212,92.76 100.712,95.0934 99.5,97.5C 98.1667,97.8333 96.8333,98.1667 95.5,98.5C 102.76,92.9448 105.26,85.6115 103,76.5C 101.92,74.0038 100.586,71.6705 99,69.5C 98.5099,71.5454 98.6765,73.5454 99.5,75.5C 99.1667,75.5 98.8333,75.5 98.5,75.5C 94.6903,66.7678 89.0236,59.2678 81.5,53C 80.5165,52.4092 79.8499,52.7425 79.5,54C 83.0566,58.0492 86.39,62.2158 89.5,66.5C 85.1667,62.8333 81.1667,58.8333 77.5,54.5C 77.3505,53.448 77.5172,52.448 78,51.5C 80.741,49.9326 81.9077,47.5993 81.5,44.5C 78.0886,43.933 76.0886,45.2663 75.5,48.5C 73.6694,46.2243 71.3361,44.391 68.5,43C 63.9093,41.3134 59.2426,39.8134 54.5,38.5C 54.1667,38.5 53.8333,38.5 53.5,38.5C 52.0813,37.5489 50.4147,37.2155 48.5,37.5C 46.7226,36.3995 44.7226,35.5662 42.5,35C 46.1516,34.5014 49.8183,34.3347 53.5,34.5 Z"/></g>
<g><path style="opacity:1" fill="#8fadfa" d="M 32.5,46.5 C 30.5,48.8333 28.5,51.1667 26.5,53.5C 25.8826,53.6107 25.3826,53.944 25,54.5C 24.3466,60.8617 24.5133,67.195 25.5,73.5C 22.2141,67.1706 21.7141,60.5039 24,53.5C 26.4356,50.5532 29.2689,48.2199 32.5,46.5 Z"/></g>
<g><path style="opacity:1" fill="#bbbfc8" d="M 199.5,62.5 C 194.902,60.3536 190.236,60.0203 185.5,61.5C 183.289,62.1228 181.289,63.1228 179.5,64.5C 179.712,62.6159 180.712,61.2826 182.5,60.5C 187.467,59.3377 192.467,59.1711 197.5,60C 198.381,60.7083 199.047,61.5416 199.5,62.5 Z"/></g>
<g><path style="opacity:1" fill="#b9bec7" d="M 233.5,60.5 C 229.4,60.2367 225.4,60.5701 221.5,61.5C 223.048,60.2057 225.048,59.5391 227.5,59.5C 229.696,59.5046 231.696,59.838 233.5,60.5 Z"/></g>
<g><path style="opacity:1" fill="#658ef8" d="M 56.5,45.5 C 60.0845,47.8061 64.0845,49.1394 68.5,49.5C 69.1667,50.1667 69.8333,50.8333 70.5,51.5C 72.8439,51.9397 74.8439,52.9397 76.5,54.5C 74.9582,53.6993 73.2915,53.366 71.5,53.5C 71.5,55.1667 71.5,56.8333 71.5,58.5C 68.5,58.1667 67.1667,59.5 67.5,62.5C 60.5758,61.6679 53.7425,61.3346 47,61.5C 44.9829,64.1438 44.1495,67.1438 44.5,70.5C 44.1667,70.5 43.8333,70.5 43.5,70.5C 42.931,66.6707 43.5977,63.3373 45.5,60.5C 49.3793,57.2144 53.8793,55.2144 59,54.5C 62.7898,55.8168 66.6231,56.8168 70.5,57.5C 70.5,56.5 70.5,55.5 70.5,54.5C 62.3188,51.7948 54.1521,49.1281 46,46.5C 39.402,46.872 34.5687,49.872 31.5,55.5C 29.7868,56.6354 29.1201,58.302 29.5,60.5C 28.71,61.6085 28.21,62.9419 28,64.5C 27.3333,63.8333 26.6667,63.1667 26,62.5C 25.6987,59.4929 25.8654,56.4929 26.5,53.5C 28.5,51.1667 30.5,48.8333 32.5,46.5C 40.3257,42.8625 48.3257,42.5292 56.5,45.5 Z"/></g>
<g><path style="opacity:1" fill="#d9e3fd" d="M 98.5,75.5 C 98.6633,77.8568 98.4966,80.1902 98,82.5C 97.9005,80.3474 97.0672,78.6808 95.5,77.5C 94.9996,72.9851 92.9996,69.3185 89.5,66.5C 86.39,62.2158 83.0566,58.0492 79.5,54C 79.8499,52.7425 80.5165,52.4092 81.5,53C 89.0236,59.2678 94.6903,66.7678 98.5,75.5 Z"/></g>
<g><path style="opacity:1" fill="#dae4fd" d="M 21.5,58.5 C 21.3116,64.2859 21.9783,69.9525 23.5,75.5C 22.0427,73.7582 20.876,71.7582 20,69.5C 19.51,68.2068 19.3433,66.8734 19.5,65.5C 18.9898,62.6122 19.6565,60.2789 21.5,58.5 Z"/></g>
<g><path style="opacity:1" fill="#b8cbfc" d="M 38.5,42.5 C 45.175,42.3337 51.8417,42.5004 58.5,43C 61.5978,44.556 64.5978,46.056 67.5,47.5C 63.8333,46.8333 60.1667,46.1667 56.5,45.5C 48.3257,42.5292 40.3257,42.8625 32.5,46.5C 29.2689,48.2199 26.4356,50.5532 24,53.5C 21.7141,60.5039 22.2141,67.1706 25.5,73.5C 27.7621,79.0381 30.7621,84.0381 34.5,88.5C 36.1667,90.5 37.8333,92.5 39.5,94.5C 32.0558,89.9454 26.7225,83.6121 23.5,75.5C 21.9783,69.9525 21.3116,64.2859 21.5,58.5C 23.923,49.7442 29.5897,44.4109 38.5,42.5 Z"/></g>
<g><path style="opacity:1" fill="#608bf8" d="M 43.5,58.5 C 41.5,59.1667 40.1667,60.5 39.5,62.5C 38.6829,64.9686 38.1829,67.6353 38,70.5C 33.1187,61.9219 35.2854,56.0885 44.5,53C 53.4339,52.2966 53.4339,53.4632 44.5,56.5C 43.7025,56.9569 43.3691,57.6236 43.5,58.5 Z"/></g>
<g><path style="opacity:1" fill="#d4e0fd" d="M 96.5,59.5 C 104.874,67.9558 108.208,77.9558 106.5,89.5C 106.665,86.1501 106.498,82.8168 106,79.5C 105.768,78.2625 105.268,77.2625 104.5,76.5C 102.074,70.651 99.4072,64.9844 96.5,59.5 Z"/></g>
<g><path style="opacity:1" fill="#182846" d="M 313.5,64.5 C 309.208,66.3687 308.208,65.7021 310.5,62.5C 310.833,62.5 311.167,62.5 311.5,62.5C 315.488,61.3023 319.488,61.3023 323.5,62.5C 320.023,63.1672 316.689,63.8339 313.5,64.5 Z"/></g>
<g><path style="opacity:1" fill="#4b7cf7" d="M 67.5,62.5 C 65.0314,63.3171 62.3647,63.8171 59.5,64C 60.7932,64.49 62.1266,64.6567 63.5,64.5C 64.0772,68.0798 63.0772,71.0798 60.5,73.5C 59.5481,75.0453 59.2148,76.712 59.5,78.5C 57.6096,78.2965 56.1096,78.9632 55,80.5C 54.8091,82.7078 54.3091,84.7078 53.5,86.5C 53.6567,85.1266 53.49,83.7932 53,82.5C 48.4272,79.6726 45.5938,75.6726 44.5,70.5C 44.1495,67.1438 44.9829,64.1438 47,61.5C 53.7425,61.3346 60.5758,61.6679 67.5,62.5 Z"/></g>
<g><path style="opacity:1" fill="#b1b6c0" d="M 199.5,62.5 C 201.624,63.0312 203.124,64.3645 204,66.5C 204.49,67.7932 204.657,69.1266 204.5,70.5C 204.806,73.3854 204.473,76.0521 203.5,78.5C 203.665,74.8183 203.499,71.1516 203,67.5C 202.148,66.4293 201.315,65.4293 200.5,64.5C 200.167,63.8333 199.833,63.1667 199.5,62.5 Z"/></g>
<g><path style="opacity:1" fill="#49556d" d="M 233.5,60.5 C 234.167,60.5 234.833,60.5 235.5,60.5C 236.167,61.5 236.833,62.5 237.5,63.5C 236.167,63.5 235.5,64.1667 235.5,65.5C 232.236,64.6758 228.902,64.3424 225.5,64.5C 228.358,63.834 231.358,63.1674 234.5,62.5C 230.152,61.2904 225.819,61.2904 221.5,62.5C 221.5,62.1667 221.5,61.8333 221.5,61.5C 225.4,60.5701 229.4,60.2367 233.5,60.5 Z"/></g>
<g><path style="opacity:1" fill="#799df9" d="M 45.5,60.5 C 47.1241,57.6416 46.4574,56.9749 43.5,58.5C 43.3691,57.6236 43.7025,56.9569 44.5,56.5C 53.4339,53.4632 53.4339,52.2966 44.5,53C 35.2854,56.0885 33.1187,61.9219 38,70.5C 38.1829,67.6353 38.6829,64.9686 39.5,62.5C 39.1579,67.8112 40.6579,72.4778 44,76.5C 44.1667,76.1667 44.3333,75.8333 44.5,75.5C 43.6906,73.9291 43.3573,72.2624 43.5,70.5C 43.8333,70.5 44.1667,70.5 44.5,70.5C 45.5938,75.6726 48.4272,79.6726 53,82.5C 53.49,83.7932 53.6567,85.1266 53.5,86.5C 51.1824,88.1852 50.1824,90.5185 50.5,93.5C 52.1667,93.5 53.8333,93.5 55.5,93.5C 55.5,91.8333 55.5,90.1667 55.5,88.5C 60.207,88.0687 64.207,89.402 67.5,92.5C 63.7077,91.759 60.0411,90.759 56.5,89.5C 56.33,90.8221 56.6634,91.9887 57.5,93C 64.6526,96.9514 72.3192,98.4514 80.5,97.5C 87.7308,97.2167 88.0641,98.0501 81.5,100C 78.5184,100.498 75.5184,100.665 72.5,100.5C 71.1667,100.5 69.8333,100.5 68.5,100.5C 68.1667,100.5 67.8333,100.5 67.5,100.5C 62.6809,97.116 57.3476,95.116 51.5,94.5C 51.2322,96.099 51.5655,97.4324 52.5,98.5C 51.0821,100.308 49.0821,100.975 46.5,100.5C 45.8571,98.9236 44.8571,97.5903 43.5,96.5C 41.1002,93.0969 38.1002,90.4302 34.5,88.5C 30.7621,84.0381 27.7621,79.0381 25.5,73.5C 24.5133,67.195 24.3466,60.8617 25,54.5C 25.3826,53.944 25.8826,53.6107 26.5,53.5C 25.8654,56.4929 25.6987,59.4929 26,62.5C 26.6667,63.1667 27.3333,63.8333 28,64.5C 28.21,62.9419 28.71,61.6085 29.5,60.5C 26.3775,69.6846 28.3775,77.3513 35.5,83.5C 38.6891,89.0892 43.3557,92.7558 49.5,94.5C 50.1089,91.1216 48.7756,89.1216 45.5,88.5C 43.2524,85.0175 40.7524,81.6842 38,78.5C 36.7679,74.9391 35.2679,71.6057 33.5,68.5C 33.3347,64.8183 33.5014,61.1516 34,57.5C 35.7347,55.3888 37.568,53.3888 39.5,51.5C 38.635,50.4173 37.635,50.2506 36.5,51C 34.9625,52.7073 33.2959,54.2073 31.5,55.5C 34.5687,49.872 39.402,46.872 46,46.5C 54.1521,49.1281 62.3188,51.7948 70.5,54.5C 70.5,55.5 70.5,56.5 70.5,57.5C 66.6231,56.8168 62.7898,55.8168 59,54.5C 53.8793,55.2144 49.3793,57.2144 45.5,60.5 Z"/></g>
<g><path style="opacity:1" fill="#aec4fb" d="M 33.5,68.5 C 33.8511,70.8695 34.0178,73.2028 34,75.5C 31.9539,73.2998 30.9539,70.6331 31,67.5C 30.5027,63.4761 30.6693,59.4761 31.5,55.5C 33.2959,54.2073 34.9625,52.7073 36.5,51C 37.635,50.2506 38.635,50.4173 39.5,51.5C 37.568,53.3888 35.7347,55.3888 34,57.5C 33.5014,61.1516 33.3347,64.8183 33.5,68.5 Z"/></g>
<g><path style="opacity:1" fill="#3c70f6" d="M 76.5,54.5 C 76.5674,55.9587 76.2341,57.2921 75.5,58.5C 75.1667,58.5 74.8333,58.5 74.5,58.5C 73.8419,60.6391 72.8419,62.6391 71.5,64.5C 67.6457,71.5979 63.6457,78.5979 59.5,85.5C 58.1283,86.5116 56.795,87.5116 55.5,88.5C 55.5,90.1667 55.5,91.8333 55.5,93.5C 53.8333,93.5 52.1667,93.5 50.5,93.5C 50.1824,90.5185 51.1824,88.1852 53.5,86.5C 54.3091,84.7078 54.8091,82.7078 55,80.5C 56.1096,78.9632 57.6096,78.2965 59.5,78.5C 59.2148,76.712 59.5481,75.0453 60.5,73.5C 63.0772,71.0798 64.0772,68.0798 63.5,64.5C 62.1266,64.6567 60.7932,64.49 59.5,64C 62.3647,63.8171 65.0314,63.3171 67.5,62.5C 67.1667,59.5 68.5,58.1667 71.5,58.5C 71.5,56.8333 71.5,55.1667 71.5,53.5C 73.2915,53.366 74.9582,53.6993 76.5,54.5 Z"/></g>
<g><path style="opacity:1" fill="#48546c" d="M 185.5,61.5 C 190.236,60.0203 194.902,60.3536 199.5,62.5C 199.833,63.1667 200.167,63.8333 200.5,64.5C 197.163,62.646 196.163,63.3126 197.5,66.5C 194.034,64.9084 190.367,64.2417 186.5,64.5C 186.167,64.5 185.833,64.5 185.5,64.5C 188.689,63.8339 192.023,63.1672 195.5,62.5C 192.232,61.513 188.898,61.1796 185.5,61.5 Z"/></g>
<g><path style="opacity:1" fill="#687286" d="M 221.5,62.5 C 220.5,64.1667 219.167,65.5 217.5,66.5C 217.833,64.1667 219.167,62.8333 221.5,62.5 Z"/></g>
<g><path style="opacity:1" fill="#4b576e" d="M 312.5,60.5 C 316.846,60.3343 321.179,60.501 325.5,61C 326.71,62.0391 327.71,63.2058 328.5,64.5C 327.417,64.4606 326.417,64.1272 325.5,63.5C 324.438,64.4246 324.438,65.4246 325.5,66.5C 324.391,66.4431 323.391,66.1098 322.5,65.5C 319.713,64.5233 316.713,64.19 313.5,64.5C 316.689,63.8339 320.023,63.1672 323.5,62.5C 319.488,61.3023 315.488,61.3023 311.5,62.5C 311.833,61.8333 312.167,61.1667 312.5,60.5 Z"/></g>
<g><path style="opacity:1" fill="#b5bac3" d="M 375.5,72.5 C 374.833,72.5 374.167,72.5 373.5,72.5C 373.246,69.9857 372.413,67.6524 371,65.5C 368.833,64.6667 367.333,63.1667 366.5,61C 361.909,60.0577 357.576,60.5577 353.5,62.5C 353.953,61.5416 354.619,60.7083 355.5,60C 359.5,59.3333 363.5,59.3333 367.5,60C 371.359,63.4172 374.025,67.5838 375.5,72.5 Z"/></g>
<g><path style="opacity:1" fill="#2c3955" d="M 185.5,61.5 C 188.898,61.1796 192.232,61.513 195.5,62.5C 192.023,63.1672 188.689,63.8339 185.5,64.5C 181.453,66.5921 179.453,69.9254 179.5,74.5C 178.849,73.9094 178.182,73.2427 177.5,72.5C 176.167,76.5 176.167,80.5 177.5,84.5C 178.169,82.3691 178.835,80.3691 179.5,78.5C 178.99,81.3878 179.656,83.7211 181.5,85.5C 181.433,86.9587 181.766,88.2921 182.5,89.5C 180.926,89.0629 179.759,88.0629 179,86.5C 178.616,88.1966 178.782,89.8632 179.5,91.5C 178.167,89.8333 176.833,88.1667 175.5,86.5C 175.254,80.4406 175.587,74.4406 176.5,68.5C 177.488,67.205 178.488,65.8717 179.5,64.5C 181.289,63.1228 183.289,62.1228 185.5,61.5 Z"/></g>
<g><path style="opacity:1" fill="#5e687d" d="M 310.5,62.5 C 308.208,65.7021 309.208,66.3687 313.5,64.5C 312.264,66.0428 310.598,67.0428 308.5,67.5C 306.91,64.8301 307.577,63.1634 310.5,62.5 Z"/></g>
<g><path style="opacity:1" fill="#f6f6f8" d="M 186.5,64.5 C 190.367,64.2417 194.034,64.9084 197.5,66.5C 197.328,67.4916 197.662,68.1583 198.5,68.5C 198.5,70.1667 198.5,71.8333 198.5,73.5C 192.642,73.8222 186.975,73.4889 181.5,72.5C 181.351,71.448 181.517,70.448 182,69.5C 183.707,67.9625 185.207,66.2959 186.5,64.5 Z"/></g>
<g><path style="opacity:1" fill="#fbfbfb" d="M 363.5,65.5 C 366.187,72.8286 367.187,80.4953 366.5,88.5C 365.833,88.8333 365.167,89.1667 364.5,89.5C 361.5,89.5 358.5,89.5 355.5,89.5C 354.833,89.5 354.167,89.5 353.5,89.5C 352.449,88.7777 351.782,87.7777 351.5,86.5C 350.385,81.2501 350.219,75.9167 351,70.5C 352.045,69.6266 352.878,68.6266 353.5,67.5C 353.5,66.8333 353.833,66.5 354.5,66.5C 357.43,65.701 360.43,65.3677 363.5,65.5 Z"/></g>
<g><path style="opacity:1" fill="#182846" d="M 200.5,64.5 C 200.598,67.2476 199.598,67.9143 197.5,66.5C 196.163,63.3126 197.163,62.646 200.5,64.5 Z"/></g>
<g><path style="opacity:1" fill="#172544" d="M 348.5,64.5 C 349.167,65.8333 349.833,67.1667 350.5,68.5C 349.194,74.5992 349.194,80.5992 350.5,86.5C 350.473,88.1993 349.806,89.5326 348.5,90.5C 348.762,91.9778 348.429,93.3112 347.5,94.5C 346.167,78.1667 346.167,61.8333 347.5,45.5C 348.496,51.7985 348.83,58.1318 348.5,64.5 Z"/></g>
<g><path style="opacity:1" fill="#cfd2d9" d="M 312.5,60.5 C 312.167,61.1667 311.833,61.8333 311.5,62.5C 311.167,62.5 310.833,62.5 310.5,62.5C 307.577,63.1634 306.91,64.8301 308.5,67.5C 310.598,67.0428 312.264,66.0428 313.5,64.5C 316.713,64.19 319.713,64.5233 322.5,65.5C 319.813,65.3359 317.146,65.5026 314.5,66C 312.298,68.7737 309.631,69.607 306.5,68.5C 305.054,63.4206 307.054,60.754 312.5,60.5 Z"/></g>
<g><path style="opacity:1" fill="#497af7" d="M 71.5,64.5 C 71.9613,67.3033 73.2947,69.6366 75.5,71.5C 76.5357,78.9392 76.5357,79.9392 75.5,74.5C 72.6787,74.3159 71.0121,75.6493 70.5,78.5C 68.1667,79.1667 65.8333,79.8333 63.5,80.5C 66.3833,83.0897 69.3833,83.0897 72.5,80.5C 73.105,81.5874 72.7717,82.754 71.5,84C 67.4155,84.2332 63.4155,84.7332 59.5,85.5C 63.6457,78.5979 67.6457,71.5979 71.5,64.5 Z"/></g>
<g><path style="opacity:1" fill="#7197f8" d="M 71.5,64.5 C 79.4265,67.8783 81.7599,73.5449 78.5,81.5C 77.6786,78.5535 77.1786,75.5535 77,72.5C 76.6174,71.944 76.1174,71.6107 75.5,71.5C 73.2947,69.6366 71.9613,67.3033 71.5,64.5 Z"/></g>
<g><path style="opacity:1" fill="#313f5a" d="M 373.5,72.5 C 373.815,76.3714 373.482,80.0381 372.5,83.5C 372.167,84.8333 371.833,86.1667 371.5,87.5C 371.5,88.5 371.5,89.5 371.5,90.5C 368.996,92.1443 366.329,93.6443 363.5,95C 360.151,95.3876 356.817,95.2209 353.5,94.5C 353.5,94.1667 353.5,93.8333 353.5,93.5C 352.7,91.2591 351.034,90.2591 348.5,90.5C 349.806,89.5326 350.473,88.1993 350.5,86.5C 350.833,86.5 351.167,86.5 351.5,86.5C 351.782,87.7777 352.449,88.7777 353.5,89.5C 353.953,90.4584 354.619,91.2917 355.5,92C 358.367,92.8007 361.034,92.6341 363.5,91.5C 363.833,90.8333 364.167,90.1667 364.5,89.5C 365.167,89.1667 365.833,88.8333 366.5,88.5C 367.167,87.1667 367.833,85.8333 368.5,84.5C 369.87,78.9281 369.703,73.2614 368,67.5C 366.137,65.051 363.637,64.051 360.5,64.5C 358.833,64.6667 357.167,64.8333 355.5,65C 354.944,65.3826 354.611,65.8826 354.5,66.5C 353.833,66.5 353.5,66.8333 353.5,67.5C 352.391,67.5569 351.391,67.8902 350.5,68.5C 349.833,67.1667 349.167,65.8333 348.5,64.5C 348.833,64.5 349.167,64.5 349.5,64.5C 350.791,64.7373 351.791,64.404 352.5,63.5C 352.5,62.8333 352.833,62.5 353.5,62.5C 357.576,60.5577 361.909,60.0577 366.5,61C 367.333,63.1667 368.833,64.6667 371,65.5C 372.413,67.6524 373.246,69.9857 373.5,72.5 Z"/></g>
<g><path style="opacity:1" fill="#ced1d8" d="M 330.5,65.5 C 331.828,70.2876 332.495,75.4543 332.5,81C 332.333,86.1667 332.167,91.3333 332,96.5C 331.107,97.0814 330.107,97.4148 329,97.5C 326.64,96.22 324.14,95.5533 321.5,95.5C 322.923,93.4551 324.923,92.4551 327.5,92.5C 327.5,93.5 327.5,94.5 327.5,95.5C 328.822,95.67 329.989,95.3366 331,94.5C 331.806,84.756 331.639,75.0893 330.5,65.5 Z"/></g>
<g><path style="opacity:1" fill="#5885f7" d="M 76.5,54.5 C 76.8333,54.5 77.1667,54.5 77.5,54.5C 81.1667,58.8333 85.1667,62.8333 89.5,66.5C 89.5,67.1667 89.5,67.8333 89.5,68.5C 91.3169,73.2408 91.9836,78.2408 91.5,83.5C 91.6495,84.552 91.4828,85.552 91,86.5C 88.3123,88.364 85.8123,90.364 83.5,92.5C 78.0362,93.7567 72.7029,93.7567 67.5,92.5C 64.207,89.402 60.207,88.0687 55.5,88.5C 56.795,87.5116 58.1283,86.5116 59.5,85.5C 63.4155,84.7332 67.4155,84.2332 71.5,84C 72.7717,82.754 73.105,81.5874 72.5,80.5C 69.3833,83.0897 66.3833,83.0897 63.5,80.5C 65.8333,79.8333 68.1667,79.1667 70.5,78.5C 71.0121,75.6493 72.6787,74.3159 75.5,74.5C 76.5357,79.9392 76.5357,78.9392 75.5,71.5C 76.1174,71.6107 76.6174,71.944 77,72.5C 77.1786,75.5535 77.6786,78.5535 78.5,81.5C 81.7599,73.5449 79.4265,67.8783 71.5,64.5C 72.8419,62.6391 73.8419,60.6391 74.5,58.5C 74.3433,59.8734 74.51,61.2068 75,62.5C 79.6892,65.689 83.5225,69.689 86.5,74.5C 87.5985,71.641 87.0985,68.9743 85,66.5C 82.2588,63.253 79.0921,60.5863 75.5,58.5C 76.2341,57.2921 76.5674,55.9587 76.5,54.5 Z"/></g>
<g><path style="opacity:1" fill="#7298f8" d="M 74.5,58.5 C 74.8333,58.5 75.1667,58.5 75.5,58.5C 79.0921,60.5863 82.2588,63.253 85,66.5C 87.0985,68.9743 87.5985,71.641 86.5,74.5C 83.5225,69.689 79.6892,65.689 75,62.5C 74.51,61.2068 74.3433,59.8734 74.5,58.5 Z"/></g>
<g><path style="opacity:1" fill="#d9e3fd" d="M 112.5,64.5 C 114.715,67.0925 116.381,70.0925 117.5,73.5C 116.971,79.3308 116.305,84.9975 115.5,90.5C 115.827,85.7863 115.493,81.1196 114.5,76.5C 111.917,72.7241 111.251,68.7241 112.5,64.5 Z"/></g>
<g><path style="opacity:1" fill="#94b1fa" d="M 45.5,60.5 C 43.5977,63.3373 42.931,66.6707 43.5,70.5C 43.3573,72.2624 43.6906,73.9291 44.5,75.5C 44.3333,75.8333 44.1667,76.1667 44,76.5C 40.6579,72.4778 39.1579,67.8112 39.5,62.5C 40.1667,60.5 41.5,59.1667 43.5,58.5C 46.4574,56.9749 47.1241,57.6416 45.5,60.5 Z"/></g>
<g><path style="opacity:1" fill="#6e788b" d="M 329.5,64.5 C 330.167,64.5 330.5,64.8333 330.5,65.5C 331.639,75.0893 331.806,84.756 331,94.5C 329.989,95.3366 328.822,95.67 327.5,95.5C 327.5,94.5 327.5,93.5 327.5,92.5C 328.15,92.8039 328.817,93.1373 329.5,93.5C 330.726,83.8238 330.726,74.1572 329.5,64.5 Z"/></g>
<g><path style="opacity:1" fill="#789cf9" d="M 89.5,68.5 C 90.4584,68.9528 91.2917,69.6195 92,70.5C 92.8136,75.0204 92.647,79.3537 91.5,83.5C 91.9836,78.2408 91.3169,73.2408 89.5,68.5 Z"/></g>
<g><path style="opacity:1" fill="#cbced5" d="M 198.5,68.5 C 199.461,70.2646 199.795,72.2646 199.5,74.5C 193.132,74.8297 186.798,74.4963 180.5,73.5C 180.624,72.8933 180.957,72.56 181.5,72.5C 186.975,73.4889 192.642,73.8222 198.5,73.5C 198.5,71.8333 198.5,70.1667 198.5,68.5 Z"/></g>
<g><path style="opacity:1" fill="#d9dce1" d="M 322.5,65.5 C 323.391,66.1098 324.391,66.4431 325.5,66.5C 326.258,69.3519 326.258,72.0185 325.5,74.5C 321.4,74.2367 317.4,74.5701 313.5,75.5C 316.684,73.5864 320.351,72.9197 324.5,73.5C 324.635,70.5825 323.968,67.9158 322.5,65.5 Z"/></g>
<g><path style="opacity:1" fill="#0f1f3f" d="M 372.5,83.5 C 371.2,81.777 370.533,79.6103 370.5,77C 370.667,74.8333 370.833,72.6667 371,70.5C 372.367,74.6996 372.867,79.0329 372.5,83.5 Z"/></g>
<g><path style="opacity:1" fill="#838b9b" d="M 185.5,64.5 C 185.833,64.5 186.167,64.5 186.5,64.5C 185.207,66.2959 183.707,67.9625 182,69.5C 181.517,70.448 181.351,71.448 181.5,72.5C 180.957,72.56 180.624,72.8933 180.5,73.5C 186.798,74.4963 193.132,74.8297 199.5,74.5C 192.833,75.8333 186.167,75.8333 179.5,74.5C 179.453,69.9254 181.453,66.5921 185.5,64.5 Z"/></g>
<g><path style="opacity:1" fill="#d1d3da" d="M 216.5,66.5 C 215.833,68.5 215.167,70.5 214.5,72.5C 213.517,76.2984 213.183,80.2984 213.5,84.5C 212.188,79.9848 212.188,75.3181 213.5,70.5C 214.057,68.6684 215.057,67.3351 216.5,66.5 Z"/></g>
<g><path style="opacity:1" fill="#cbced5" d="M 235.5,60.5 C 243.549,64.0752 246.216,70.0752 243.5,78.5C 243.813,74.9581 243.479,71.6248 242.5,68.5C 241.889,65.889 240.223,64.2224 237.5,63.5C 236.833,62.5 236.167,61.5 235.5,60.5 Z"/></g>
<g><path style="opacity:1" fill="#a2a8b4" d="M 353.5,67.5 C 352.878,68.6266 352.045,69.6266 351,70.5C 350.219,75.9167 350.385,81.2501 351.5,86.5C 351.167,86.5 350.833,86.5 350.5,86.5C 349.194,80.5992 349.194,74.5992 350.5,68.5C 351.391,67.8902 352.391,67.5569 353.5,67.5 Z"/></g>
<g><path style="opacity:1" fill="#24324f" d="M 225.5,64.5 C 220.304,66.2824 218.304,69.6158 219.5,74.5C 225.979,75.4907 232.646,75.824 239.5,75.5C 239.946,72.9899 239.28,70.9899 237.5,69.5C 237.267,67.9382 236.6,66.6049 235.5,65.5C 235.5,64.1667 236.167,63.5 237.5,63.5C 240.223,64.2224 241.889,65.889 242.5,68.5C 242.5,71.5 242.5,74.5 242.5,77.5C 234.648,77.1746 226.982,77.508 219.5,78.5C 218.167,80.8333 218.167,83.1667 219.5,85.5C 219.557,86.609 219.89,87.609 220.5,88.5C 220.5,89.8333 219.833,90.5 218.5,90.5C 216.721,89.3303 215.721,87.6636 215.5,85.5C 215.5,84.8333 215.5,84.1667 215.5,83.5C 215.312,77.7141 215.978,72.0475 217.5,66.5C 219.167,65.5 220.5,64.1667 221.5,62.5C 225.819,61.2904 230.152,61.2904 234.5,62.5C 231.358,63.1674 228.358,63.834 225.5,64.5 Z"/></g>
<g><path style="opacity:1" fill="#7a8394" d="M 237.5,69.5 C 239.28,70.9899 239.946,72.9899 239.5,75.5C 232.646,75.824 225.979,75.4907 219.5,74.5C 225.833,74.5 232.167,74.5 238.5,74.5C 238.371,72.7839 238.038,71.1172 237.5,69.5 Z"/></g>
<g><path style="opacity:1" fill="#cacdd4" d="M 225.5,65.5 C 225.5,65.1667 225.5,64.8333 225.5,64.5C 228.902,64.3424 232.236,64.6758 235.5,65.5C 236.6,66.6049 237.267,67.9382 237.5,69.5C 238.038,71.1172 238.371,72.7839 238.5,74.5C 232.167,74.5 225.833,74.5 219.5,74.5C 219.232,72.901 219.566,71.5676 220.5,70.5C 220.5,71.5 220.5,72.5 220.5,73.5C 225.833,73.5 231.167,73.5 236.5,73.5C 236.894,70.1429 235.561,67.8095 232.5,66.5C 230.257,65.5258 227.924,65.1924 225.5,65.5 Z"/></g>
<g><path style="opacity:1" fill="#7c8496" d="M 225.5,64.5 C 225.5,64.8333 225.5,65.1667 225.5,65.5C 223.5,66.8333 221.833,68.5 220.5,70.5C 219.566,71.5676 219.232,72.901 219.5,74.5C 218.304,69.6158 220.304,66.2824 225.5,64.5 Z"/></g>
<g><path style="opacity:1" fill="#fcfcfc" d="M 225.5,65.5 C 227.924,65.1924 230.257,65.5258 232.5,66.5C 235.561,67.8095 236.894,70.1429 236.5,73.5C 231.167,73.5 225.833,73.5 220.5,73.5C 220.5,72.5 220.5,71.5 220.5,70.5C 221.833,68.5 223.5,66.8333 225.5,65.5 Z"/></g>
<g><path style="opacity:1" fill="#a5abb6" d="M 325.5,74.5 C 322.5,75.1667 319.5,75.8333 316.5,76.5C 315.167,76.5 313.833,76.5 312.5,76.5C 312.5,75.8333 312.833,75.5 313.5,75.5C 317.4,74.5701 321.4,74.2367 325.5,74.5 Z"/></g>
<g><path style="opacity:1" fill="#616c80" d="M 325.5,66.5 C 327.427,69.1368 327.927,72.1368 327,75.5C 323.606,76.4558 320.106,76.7892 316.5,76.5C 319.5,75.8333 322.5,75.1667 325.5,74.5C 326.258,72.0185 326.258,69.3519 325.5,66.5 Z"/></g>
<g><path style="opacity:1" fill="#e4ebfe" d="M 5.5,68.5 C 6.82608,70.6938 8.49275,72.6938 10.5,74.5C 11.3857,73.675 11.719,72.675 11.5,71.5C 13.9517,77.0626 16.9517,82.396 20.5,87.5C 20.1667,88.1667 19.8333,88.8333 19.5,89.5C 21.1757,93.007 23.6757,95.6736 27,97.5C 27.2735,99.3289 28.1068,100.829 29.5,102C 28.5,102.667 27.5,102.667 26.5,102C 25.2107,100.198 23.5441,99.0312 21.5,98.5C 13.2536,90.2021 7.92023,80.2021 5.5,68.5 Z"/></g>
<g><path style="opacity:1" fill="#9db7fa" d="M 31.5,55.5 C 30.6693,59.4761 30.5027,63.4761 31,67.5C 30.9539,70.6331 31.9539,73.2998 34,75.5C 34.0178,73.2028 33.8511,70.8695 33.5,68.5C 35.2679,71.6057 36.7679,74.9391 38,78.5C 40.7524,81.6842 43.2524,85.0175 45.5,88.5C 42.3703,87.4278 39.7036,85.5945 37.5,83C 36.5632,82.3083 35.8966,82.475 35.5,83.5C 28.3775,77.3513 26.3775,69.6846 29.5,60.5C 29.1201,58.302 29.7868,56.6354 31.5,55.5 Z"/></g>
<g><path style="opacity:1" fill="#b3b8c2" d="M 176.5,68.5 C 175.587,74.4406 175.254,80.4406 175.5,86.5C 173.289,81.7571 172.956,76.7571 174.5,71.5C 174.64,69.9704 175.307,68.9704 176.5,68.5 Z"/></g>
<g><path style="opacity:1" fill="#202f4b" d="M 180.5,78.5 C 180.167,78.5 179.833,78.5 179.5,78.5C 178.835,80.3691 178.169,82.3691 177.5,84.5C 176.167,80.5 176.167,76.5 177.5,72.5C 178.182,73.2427 178.849,73.9094 179.5,74.5C 186.167,75.8333 192.833,75.8333 199.5,74.5C 200.165,72.6309 200.831,70.6309 201.5,68.5C 202.484,71.4281 202.817,74.4281 202.5,77.5C 194.981,77.175 187.648,77.5084 180.5,78.5 Z"/></g>
<g><path style="opacity:1" fill="#868f9e" d="M 214.5,72.5 C 214.185,76.3714 214.518,80.0381 215.5,83.5C 215.5,84.1667 215.5,84.8333 215.5,85.5C 214.833,85.1667 214.167,84.8333 213.5,84.5C 213.183,80.2984 213.517,76.2984 214.5,72.5 Z"/></g>
<g><path style="opacity:1" fill="#49556d" d="M 216.5,66.5 C 216.833,66.5 217.167,66.5 217.5,66.5C 215.978,72.0475 215.312,77.7141 215.5,83.5C 214.518,80.0381 214.185,76.3714 214.5,72.5C 215.167,70.5 215.833,68.5 216.5,66.5 Z"/></g>
<g><path style="opacity:1" fill="#3c4963" d="M 200.5,64.5 C 201.315,65.4293 202.148,66.4293 203,67.5C 203.499,71.1516 203.665,74.8183 203.5,78.5C 195.833,78.5 188.167,78.5 180.5,78.5C 187.648,77.5084 194.981,77.175 202.5,77.5C 202.817,74.4281 202.484,71.4281 201.5,68.5C 200.831,70.6309 200.165,72.6309 199.5,74.5C 199.795,72.2646 199.461,70.2646 198.5,68.5C 197.662,68.1583 197.328,67.4916 197.5,66.5C 199.598,67.9143 200.598,67.2476 200.5,64.5 Z"/></g>
<g><path style="opacity:1" fill="#48536c" d="M 242.5,68.5 C 243.479,71.6248 243.813,74.9581 243.5,78.5C 242.833,78.5 242.167,78.5 241.5,78.5C 234.167,78.5 226.833,78.5 219.5,78.5C 226.982,77.508 234.648,77.1746 242.5,77.5C 242.5,74.5 242.5,71.5 242.5,68.5 Z"/></g>
<g><path style="opacity:1" fill="#8991a0" d="M 312.5,76.5 C 307.57,79.3657 305.57,83.699 306.5,89.5C 303.884,83.0634 305.884,78.7301 312.5,76.5 Z"/></g>
<g><path style="opacity:1" fill="#8a92a1" d="M 368.5,84.5 C 368.666,80.1539 368.499,75.8206 368,71.5C 367.434,68.7713 365.934,66.7713 363.5,65.5C 360.43,65.3677 357.43,65.701 354.5,66.5C 354.611,65.8826 354.944,65.3826 355.5,65C 357.167,64.8333 358.833,64.6667 360.5,64.5C 363.637,64.051 366.137,65.051 368,67.5C 369.703,73.2614 369.87,78.9281 368.5,84.5 Z"/></g>
<g><path style="opacity:1" fill="#9db7fa" d="M 89.5,66.5 C 92.9996,69.3185 94.9996,72.9851 95.5,77.5C 96.2083,81.7847 96.7083,86.118 97,90.5C 97.7083,89.6195 98.5416,88.9528 99.5,88.5C 97.8993,91.77 95.5659,94.4367 92.5,96.5C 91.4104,95.6086 91.4104,94.6086 92.5,93.5C 92.0431,92.7025 91.3764,92.3691 90.5,92.5C 91.6256,91.1417 91.6256,89.8084 90.5,88.5C 88.6001,90.6159 86.2668,91.9493 83.5,92.5C 85.8123,90.364 88.3123,88.364 91,86.5C 91.4828,85.552 91.6495,84.552 91.5,83.5C 92.647,79.3537 92.8136,75.0204 92,70.5C 91.2917,69.6195 90.4584,68.9528 89.5,68.5C 89.5,67.8333 89.5,67.1667 89.5,66.5 Z"/></g>
<g><path style="opacity:1" fill="#c6d6fc" d="M 122.5,91.5 C 122.5,93.1667 122.5,94.8333 122.5,96.5C 119.5,99.8333 116.5,103.167 113.5,106.5C 115.4,103.707 117.067,100.707 118.5,97.5C 119.661,93.2047 119.828,88.8713 119,84.5C 118.014,88.0037 116.847,91.337 115.5,94.5C 115.5,93.8333 115.5,93.1667 115.5,92.5C 115.5,91.8333 115.5,91.1667 115.5,90.5C 116.305,84.9975 116.971,79.3308 117.5,73.5C 116.381,70.0925 114.715,67.0925 112.5,64.5C 111.263,63.0351 110.263,61.3684 109.5,59.5C 109.517,57.9719 110.184,57.4719 111.5,58C 120.402,67.3349 124.068,78.5015 122.5,91.5 Z"/></g>
<g><path style="opacity:1" fill="#8f96a5" d="M 179.5,78.5 C 179.833,78.5 180.167,78.5 180.5,78.5C 188.167,78.5 195.833,78.5 203.5,78.5C 196.018,79.492 188.352,79.8254 180.5,79.5C 180.517,81.5648 180.85,83.5648 181.5,85.5C 179.656,83.7211 178.99,81.3878 179.5,78.5 Z"/></g>
<g><path style="opacity:1" fill="#8a91a1" d="M 219.5,78.5 C 226.833,78.5 234.167,78.5 241.5,78.5C 234.352,79.4916 227.019,79.825 219.5,79.5C 219.5,81.5 219.5,83.5 219.5,85.5C 218.167,83.1667 218.167,80.8333 219.5,78.5 Z"/></g>
<g><path style="opacity:1" fill="#dbdee2" d="M 363.5,65.5 C 365.934,66.7713 367.434,68.7713 368,71.5C 368.499,75.8206 368.666,80.1539 368.5,84.5C 367.833,85.8333 367.167,87.1667 366.5,88.5C 367.187,80.4953 366.187,72.8286 363.5,65.5 Z"/></g>
<g><path style="opacity:1" fill="#dbdee3" d="M 204.5,70.5 C 207.286,74.0942 206.952,77.5942 203.5,81C 196.508,81.4996 189.508,81.6663 182.5,81.5C 181.905,88.5649 185.239,91.5649 192.5,90.5C 194.818,90.0029 197.152,89.6695 199.5,89.5C 198.5,90.1667 197.5,90.8333 196.5,91.5C 192.434,91.693 188.434,91.3597 184.5,90.5C 183.833,90.1667 183.167,89.8333 182.5,89.5C 181.766,88.2921 181.433,86.9587 181.5,85.5C 180.85,83.5648 180.517,81.5648 180.5,79.5C 188.352,79.8254 196.018,79.492 203.5,78.5C 204.473,76.0521 204.806,73.3854 204.5,70.5 Z"/></g>
<g><path style="opacity:1" fill="#e3e5e9" d="M 241.5,78.5 C 242.167,78.5 242.833,78.5 243.5,78.5C 243.586,79.4959 243.252,80.3292 242.5,81C 235.174,81.4997 227.841,81.6663 220.5,81.5C 220.5,82.8333 220.5,84.1667 220.5,85.5C 220.167,85.5 219.833,85.5 219.5,85.5C 219.5,83.5 219.5,81.5 219.5,79.5C 227.019,79.825 234.352,79.4916 241.5,78.5 Z"/></g>
<g><path style="opacity:1" fill="#c4d4fc" d="M 98.5,75.5 C 98.8333,75.5 99.1667,75.5 99.5,75.5C 99.5,79.8333 99.5,84.1667 99.5,88.5C 98.5416,88.9528 97.7083,89.6195 97,90.5C 96.7083,86.118 96.2083,81.7847 95.5,77.5C 97.0672,78.6808 97.9005,80.3474 98,82.5C 98.4966,80.1902 98.6633,77.8568 98.5,75.5 Z"/></g>
<g><path style="opacity:1" fill="#697387" d="M 373.5,72.5 C 374.167,72.5 374.833,72.5 375.5,72.5C 375.824,76.5546 375.491,80.5546 374.5,84.5C 373.712,85.7701 372.712,86.7701 371.5,87.5C 371.833,86.1667 372.167,84.8333 372.5,83.5C 373.482,80.0381 373.815,76.3714 373.5,72.5 Z"/></g>
<g><path style="opacity:1" fill="#2a3853" d="M 328.5,64.5 C 328.833,64.5 329.167,64.5 329.5,64.5C 330.726,74.1572 330.726,83.8238 329.5,93.5C 328.817,93.1373 328.15,92.8039 327.5,92.5C 324.923,92.4551 322.923,93.4551 321.5,95.5C 320.833,95.5 320.167,95.5 319.5,95.5C 316.14,95.3841 312.807,95.0508 309.5,94.5C 308.308,92.8869 307.308,91.2202 306.5,89.5C 305.57,83.699 307.57,79.3657 312.5,76.5C 313.833,76.5 315.167,76.5 316.5,76.5C 320.106,76.7892 323.606,76.4558 327,75.5C 327.927,72.1368 327.427,69.1368 325.5,66.5C 324.438,65.4246 324.438,64.4246 325.5,63.5C 326.417,64.1272 327.417,64.4606 328.5,64.5 Z"/></g>
<g><path style="opacity:1" fill="#f3f4f6" d="M 316.5,80.5 C 319.5,80.5 322.5,80.5 325.5,80.5C 325.5,82.5 325.5,84.5 325.5,86.5C 325.218,87.7777 324.551,88.7777 323.5,89.5C 320.214,90.2071 316.881,90.5405 313.5,90.5C 312.167,90.5 311.5,89.8333 311.5,88.5C 311.5,86.5 311.5,84.5 311.5,82.5C 312.82,81.0582 314.486,80.3915 316.5,80.5 Z"/></g>
<g><path style="opacity:1" fill="#afb5bf" d="M 316.5,80.5 C 319.287,79.5233 322.287,79.19 325.5,79.5C 326.833,81.8333 326.833,84.1667 325.5,86.5C 325.5,84.5 325.5,82.5 325.5,80.5C 322.5,80.5 319.5,80.5 316.5,80.5 Z"/></g>
<g><path style="opacity:1" fill="#6e788b" d="M 325.5,79.5 C 322.287,79.19 319.287,79.5233 316.5,80.5C 314.486,80.3915 312.82,81.0582 311.5,82.5C 311.756,80.2239 313.09,79.0572 315.5,79C 319.027,78.1925 322.36,78.3592 325.5,79.5 Z"/></g>
<g><path style="opacity:1" fill="#8f97a5" d="M 311.5,82.5 C 311.5,84.5 311.5,86.5 311.5,88.5C 310.351,88.2089 309.684,87.3756 309.5,86C 309.387,84.3009 310.053,83.1342 311.5,82.5 Z"/></g>
<g><path style="opacity:1" fill="#767f91" d="M 219.5,85.5 C 219.833,85.5 220.167,85.5 220.5,85.5C 221.11,86.391 221.443,87.391 221.5,88.5C 221.167,88.5 220.833,88.5 220.5,88.5C 219.89,87.609 219.557,86.609 219.5,85.5 Z"/></g>
<g><path style="opacity:1" fill="#90aefa" d="M 34.5,88.5 C 38.1002,90.4302 41.1002,93.0969 43.5,96.5C 42.8333,96.5 42.1667,96.5 41.5,96.5C 41.1667,95.5 40.5,94.8333 39.5,94.5C 37.8333,92.5 36.1667,90.5 34.5,88.5 Z"/></g>
<g><path style="opacity:1" fill="#d1d4da" d="M 239.5,94.5 C 240.806,93.5326 241.473,92.1993 241.5,90.5C 240.791,89.596 239.791,89.2627 238.5,89.5C 238.47,88.5028 238.97,87.8361 240,87.5C 243.312,88.4577 244.145,90.4577 242.5,93.5C 241.675,94.3857 240.675,94.719 239.5,94.5 Z"/></g>
<g><path style="opacity:1" fill="#b7cbfc" d="M 45.5,88.5 C 48.7756,89.1216 50.1089,91.1216 49.5,94.5C 43.3557,92.7558 38.6891,89.0892 35.5,83.5C 35.8966,82.475 36.5632,82.3083 37.5,83C 39.7036,85.5945 42.3703,87.4278 45.5,88.5 Z"/></g>
<g><path style="opacity:1" fill="#1a2947" d="M 182.5,89.5 C 183.167,89.8333 183.833,90.1667 184.5,90.5C 184.833,91.1667 185.167,91.8333 185.5,92.5C 185.265,93.0967 184.765,93.4301 184,93.5C 182.594,92.5862 181.094,91.9195 179.5,91.5C 178.782,89.8632 178.616,88.1966 179,86.5C 179.759,88.0629 180.926,89.0629 182.5,89.5 Z"/></g>
<g><path style="opacity:1" fill="#778092" d="M 199.5,89.5 C 200.833,89.5 202.167,89.5 203.5,89.5C 204.167,93.5 202.5,95.1667 198.5,94.5C 200.042,93.8592 201.376,92.8592 202.5,91.5C 200.674,91.0798 198.674,91.0798 196.5,91.5C 197.5,90.8333 198.5,90.1667 199.5,89.5 Z"/></g>
<g><path style="opacity:1" fill="#dadde2" d="M 220.5,85.5 C 222.134,86.2066 223.468,87.3732 224.5,89C 228.821,89.499 233.154,89.6657 237.5,89.5C 234.155,91.217 230.489,91.8836 226.5,91.5C 224.668,90.7515 223.001,89.7515 221.5,88.5C 221.443,87.391 221.11,86.391 220.5,85.5 Z"/></g>
<g><path style="opacity:1" fill="#d6d9de" d="M 355.5,89.5 C 358.5,89.5 361.5,89.5 364.5,89.5C 364.167,90.1667 363.833,90.8333 363.5,91.5C 361.143,91.6633 358.81,91.4966 356.5,91C 355.944,90.6174 355.611,90.1174 355.5,89.5 Z"/></g>
<g><path style="opacity:1" fill="#c5c9d1" d="M 175.5,86.5 C 176.833,88.1667 178.167,89.8333 179.5,91.5C 179.833,92.1667 180.167,92.8333 180.5,93.5C 177.231,92.4403 175.565,90.1069 175.5,86.5 Z"/></g>
<g><path style="opacity:1" fill="#cbcfd6" d="M 199.5,89.5 C 200.919,88.5489 202.585,88.2155 204.5,88.5C 204.662,90.5273 204.495,92.5273 204,94.5C 201.564,95.3547 199.064,96.0213 196.5,96.5C 196.5,96.1667 196.5,95.8333 196.5,95.5C 196.842,94.6618 197.508,94.3284 198.5,94.5C 202.5,95.1667 204.167,93.5 203.5,89.5C 202.167,89.5 200.833,89.5 199.5,89.5 Z"/></g>
<g><path style="opacity:1" fill="#455069" d="M 220.5,88.5 C 220.833,88.5 221.167,88.5 221.5,88.5C 223.001,89.7515 224.668,90.7515 226.5,91.5C 226.5,91.8333 226.5,92.1667 226.5,92.5C 225.305,92.3225 224.138,91.9891 223,91.5C 221.317,92.1765 221.15,93.1765 222.5,94.5C 220.29,94.106 218.957,92.7727 218.5,90.5C 219.833,90.5 220.5,89.8333 220.5,88.5 Z"/></g>
<g><path style="opacity:1" fill="#9ea5b1" d="M 323.5,89.5 C 320.21,92.7289 316.877,93.0622 313.5,90.5C 316.881,90.5405 320.214,90.2071 323.5,89.5 Z"/></g>
<g><path style="opacity:1" fill="#dbe5fd" d="M 115.5,92.5 C 115.5,93.1667 115.5,93.8333 115.5,94.5C 114.372,97.2217 112.705,99.555 110.5,101.5C 109.749,100.624 109.249,99.624 109,98.5C 106.894,101.118 104.394,103.118 101.5,104.5C 104.735,100.005 108.235,95.6712 112,91.5C 112.927,94.7058 114.093,95.0392 115.5,92.5 Z"/></g>
<g><path style="opacity:1" fill="#576278" d="M 149.5,92.5 C 149.5,92.1667 149.5,91.8333 149.5,91.5C 155.5,91.5 161.5,91.5 167.5,91.5C 167.5,92.8333 167.5,94.1667 167.5,95.5C 159.981,95.825 152.648,95.4916 145.5,94.5C 152.532,94.8303 159.532,94.497 166.5,93.5C 160.872,92.5046 155.206,92.1712 149.5,92.5 Z"/></g>
<g><path style="opacity:1" fill="#7d8697" d="M 184.5,90.5 C 188.434,91.3597 192.434,91.693 196.5,91.5C 193.038,92.4816 189.371,92.815 185.5,92.5C 185.167,91.8333 184.833,91.1667 184.5,90.5 Z"/></g>
<g><path style="opacity:1" fill="#808899" d="M 237.5,89.5 C 237.833,89.5 238.167,89.5 238.5,89.5C 239.791,89.2627 240.791,89.596 241.5,90.5C 236.636,92.0408 231.636,92.7075 226.5,92.5C 226.5,92.1667 226.5,91.8333 226.5,91.5C 230.489,91.8836 234.155,91.217 237.5,89.5 Z"/></g>
<g><path style="opacity:1" fill="#4b586f" d="M 279.5,92.5 C 279.5,92.1667 279.5,91.8333 279.5,91.5C 285.5,91.5 291.5,91.5 297.5,91.5C 298.167,91.5 298.5,91.8333 298.5,92.5C 298.672,93.4916 298.338,94.1583 297.5,94.5C 291.926,92.5467 285.926,91.88 279.5,92.5 Z"/></g>
<g><path style="opacity:1" fill="#7b8495" d="M 353.5,89.5 C 354.167,89.5 354.833,89.5 355.5,89.5C 355.611,90.1174 355.944,90.6174 356.5,91C 358.81,91.4966 361.143,91.6633 363.5,91.5C 361.034,92.6341 358.367,92.8007 355.5,92C 354.619,91.2917 353.953,90.4584 353.5,89.5 Z"/></g>
<g><path style="opacity:1" fill="#949ba9" d="M 371.5,90.5 C 366.867,96.4535 360.867,98.1202 353.5,95.5C 353.5,95.1667 353.5,94.8333 353.5,94.5C 356.817,95.2209 360.151,95.3876 363.5,95C 366.329,93.6443 368.996,92.1443 371.5,90.5 Z"/></g>
<g><path style="opacity:1" fill="#37445e" d="M 198.5,94.5 C 197.508,94.3284 196.842,94.6618 196.5,95.5C 192.102,95.7059 187.768,95.3726 183.5,94.5C 182.391,94.4431 181.391,94.1098 180.5,93.5C 180.167,92.8333 179.833,92.1667 179.5,91.5C 181.094,91.9195 182.594,92.5862 184,93.5C 184.765,93.4301 185.265,93.0967 185.5,92.5C 189.371,92.815 193.038,92.4816 196.5,91.5C 198.674,91.0798 200.674,91.0798 202.5,91.5C 201.376,92.8592 200.042,93.8592 198.5,94.5 Z"/></g>
<g><path style="opacity:1" fill="#323f5a" d="M 241.5,90.5 C 241.473,92.1993 240.806,93.5326 239.5,94.5C 234.203,95.2745 228.87,95.6079 223.5,95.5C 223.5,94.8333 223.167,94.5 222.5,94.5C 221.15,93.1765 221.317,92.1765 223,91.5C 224.138,91.9891 225.305,92.3225 226.5,92.5C 231.636,92.7075 236.636,92.0408 241.5,90.5 Z"/></g>
<g><path style="opacity:1" fill="#394660" d="M 149.5,48.5 C 149.5,62.5 149.5,76.5 149.5,90.5C 148.833,76.994 148.167,63.3274 147.5,49.5C 146.501,64.1515 146.167,78.8182 146.5,93.5C 147.791,93.7373 148.791,93.404 149.5,92.5C 155.206,92.1712 160.872,92.5046 166.5,93.5C 159.532,94.497 152.532,94.8303 145.5,94.5C 145.5,79.1667 145.5,63.8333 145.5,48.5C 146.833,48.5 148.167,48.5 149.5,48.5 Z"/></g>
<g><path style="opacity:1" fill="#9cb6fa" d="M 67.5,92.5 C 72.7029,93.7567 78.0362,93.7567 83.5,92.5C 83.3893,93.1174 83.056,93.6174 82.5,94C 77.5,94.3333 72.5,94.6667 67.5,95C 71.6996,96.3674 76.0329,96.8674 80.5,96.5C 80.5,96.8333 80.5,97.1667 80.5,97.5C 72.3192,98.4514 64.6526,96.9514 57.5,93C 56.6634,91.9887 56.33,90.8221 56.5,89.5C 60.0411,90.759 63.7077,91.759 67.5,92.5 Z"/></g>
<g><path style="opacity:1" fill="#bacdfc" d="M 90.5,92.5 C 87.4327,94.4133 84.0994,95.7466 80.5,96.5C 76.0329,96.8674 71.6996,96.3674 67.5,95C 72.5,94.6667 77.5,94.3333 82.5,94C 83.056,93.6174 83.3893,93.1174 83.5,92.5C 86.2668,91.9493 88.6001,90.6159 90.5,88.5C 91.6256,89.8084 91.6256,91.1417 90.5,92.5 Z"/></g>
<g><path style="opacity:1" fill="#cbcfd5" d="M 213.5,84.5 C 214.167,84.8333 214.833,85.1667 215.5,85.5C 215.721,87.6636 216.721,89.3303 218.5,90.5C 218.957,92.7727 220.29,94.106 222.5,94.5C 223.167,94.5 223.5,94.8333 223.5,95.5C 227.298,96.4834 231.298,96.8168 235.5,96.5C 230.108,98.0241 224.774,97.5241 219.5,95C 218.636,93.3035 217.303,92.1368 215.5,91.5C 214.579,89.2235 213.913,86.8901 213.5,84.5 Z"/></g>
<g><path style="opacity:1" fill="#737c8e" d="M 298.5,92.5 C 299.885,93.9473 299.552,94.9473 297.5,95.5C 290.646,95.824 283.979,95.4907 277.5,94.5C 284.167,94.5 290.833,94.5 297.5,94.5C 298.338,94.1583 298.672,93.4916 298.5,92.5 Z"/></g>
<g><path style="opacity:1" fill="#98b4fa" d="M 67.5,100.5 C 62.3661,99.0926 57.3661,97.4259 52.5,95.5C 52.5,96.5 52.5,97.5 52.5,98.5C 51.5655,97.4324 51.2322,96.099 51.5,94.5C 57.3476,95.116 62.6809,97.116 67.5,100.5 Z"/></g>
<g><path style="opacity:1" fill="#abb1bb" d="M 149.5,91.5 C 149.5,91.1667 149.5,90.8333 149.5,90.5C 155.5,90.5 161.5,90.5 167.5,90.5C 168.5,90.5 169.5,90.5 170.5,90.5C 170.859,92.7659 170.192,94.5993 168.5,96C 164.5,96.1667 160.5,96.3333 156.5,96.5C 152.107,96.4907 148.107,95.824 144.5,94.5C 144.833,94.5 145.167,94.5 145.5,94.5C 152.648,95.4916 159.981,95.825 167.5,95.5C 167.5,94.1667 167.5,92.8333 167.5,91.5C 161.5,91.5 155.5,91.5 149.5,91.5 Z"/></g>
<g><path style="opacity:1" fill="#8b93a2" d="M 183.5,94.5 C 187.768,95.3726 192.102,95.7059 196.5,95.5C 196.5,95.8333 196.5,96.1667 196.5,96.5C 192.486,96.6655 188.486,96.4988 184.5,96C 183.944,95.6174 183.611,95.1174 183.5,94.5 Z"/></g>
<g><path style="opacity:1" fill="#b1b6c0" d="M 239.5,94.5 C 238.817,96.1765 237.483,96.8432 235.5,96.5C 231.298,96.8168 227.298,96.4834 223.5,95.5C 228.87,95.6079 234.203,95.2745 239.5,94.5 Z"/></g>
<g><path style="opacity:1" fill="#a8aeb9" d="M 275.5,94.5 C 276.167,94.5 276.833,94.5 277.5,94.5C 283.979,95.4907 290.646,95.824 297.5,95.5C 290.679,96.6546 283.679,96.8213 276.5,96C 275.944,95.6174 275.611,95.1174 275.5,94.5 Z"/></g>
<g><path style="opacity:1" fill="#878f9f" d="M 309.5,94.5 C 312.807,95.0508 316.14,95.3841 319.5,95.5C 318.378,96.1558 317.045,96.4892 315.5,96.5C 313.117,96.639 311.117,95.9723 309.5,94.5 Z"/></g>
<g><path style="opacity:1" fill="#8aa9f9" d="M 95.5,98.5 C 87.9495,101.311 80.2828,101.978 72.5,100.5C 75.5184,100.665 78.5184,100.498 81.5,100C 88.0641,98.0501 87.7308,97.2167 80.5,97.5C 80.5,97.1667 80.5,96.8333 80.5,96.5C 84.0994,95.7466 87.4327,94.4133 90.5,92.5C 91.3764,92.3691 92.0431,92.7025 92.5,93.5C 91.4104,94.6086 91.4104,95.6086 92.5,96.5C 95.5659,94.4367 97.8993,91.77 99.5,88.5C 99.5,84.1667 99.5,79.8333 99.5,75.5C 98.6765,73.5454 98.5099,71.5454 99,69.5C 100.586,71.6705 101.92,74.0038 103,76.5C 105.26,85.6115 102.76,92.9448 95.5,98.5 Z"/></g>
<g><path style="opacity:1" fill="#5482f7" d="M 46.5,95.5 C 47.8333,95.5 49.1667,95.5 50.5,95.5C 50.5,96.8333 50.5,98.1667 50.5,99.5C 49.1667,99.5 47.8333,99.5 46.5,99.5C 46.5,98.1667 46.5,96.8333 46.5,95.5 Z"/></g>
<g><path style="opacity:1" fill="#b1c6fb" d="M 99.5,97.5 C 97.1105,100.028 94.1105,101.528 90.5,102C 85.1771,102.499 79.8437,102.666 74.5,102.5C 72.2143,102.405 70.2143,101.738 68.5,100.5C 69.8333,100.5 71.1667,100.5 72.5,100.5C 80.2828,101.978 87.9495,101.311 95.5,98.5C 96.8333,98.1667 98.1667,97.8333 99.5,97.5 Z"/></g>
<g><path style="opacity:1" fill="#acc2fb" d="M 41.5,96.5 C 42.1667,96.5 42.8333,96.5 43.5,96.5C 44.8571,97.5903 45.8571,98.9236 46.5,100.5C 48.1667,101.167 49.8333,101.833 51.5,102.5C 50.1266,102.343 48.7932,102.51 47.5,103C 46.1196,104.925 44.6196,106.759 43,108.5C 42.6155,106.803 42.7822,105.137 43.5,103.5C 45.2372,100.385 44.5705,98.0519 41.5,96.5 Z"/></g>
<g><path style="opacity:1" fill="#c7d6fc" d="M 104.5,76.5 C 105.268,77.2625 105.768,78.2625 106,79.5C 106.498,82.8168 106.665,86.1501 106.5,89.5C 104.207,96.124 99.8739,100.791 93.5,103.5C 86.9779,103.823 80.6446,103.49 74.5,102.5C 79.8437,102.666 85.1771,102.499 90.5,102C 94.1105,101.528 97.1105,100.028 99.5,97.5C 100.712,95.0934 102.212,92.76 104,90.5C 104.499,85.8452 104.666,81.1785 104.5,76.5 Z"/></g>
<g><path style="opacity:1" fill="#edf2fe" d="M 123.5,78.5 C 128.408,97.1585 121.408,109.325 102.5,115C 93.1667,115.667 83.8333,115.667 74.5,115C 73.5842,114.722 72.9175,114.222 72.5,113.5C 81.7989,114.585 91.1322,114.752 100.5,114C 103.069,113.102 105.402,111.935 107.5,110.5C 115.021,108.649 120.021,103.982 122.5,96.5C 122.5,94.8333 122.5,93.1667 122.5,91.5C 123.485,87.3656 123.818,83.0323 123.5,78.5 Z"/></g>
<g><path style="opacity:1" fill="#94b0fa" d="M 52.5,98.5 C 55.7318,99.588 58.7318,100.921 61.5,102.5C 68.2862,107.709 76.1195,110.043 85,109.5C 87.3608,109.496 89.5274,109.163 91.5,108.5C 93.2161,108.371 94.8828,108.038 96.5,107.5C 98.288,107.215 99.9547,107.548 101.5,108.5C 99.0748,110.145 96.4081,111.311 93.5,112C 87.8431,112.499 82.1764,112.666 76.5,112.5C 71.8857,110.962 67.219,109.628 62.5,108.5C 59.7619,106.975 56.7619,105.975 53.5,105.5C 53.5,105.167 53.5,104.833 53.5,104.5C 53.5,103.167 52.8333,102.5 51.5,102.5C 49.8333,101.833 48.1667,101.167 46.5,100.5C 49.0821,100.975 51.0821,100.308 52.5,98.5 Z"/></g>
<g><path style="opacity:1" fill="#d6e1fd" d="M 67.5,100.5 C 67.8333,100.5 68.1667,100.5 68.5,100.5C 70.2143,101.738 72.2143,102.405 74.5,102.5C 80.6446,103.49 86.9779,103.823 93.5,103.5C 92.4331,105.879 93.4331,106.879 96.5,106.5C 96.5,106.833 96.5,107.167 96.5,107.5C 94.8828,108.038 93.2161,108.371 91.5,108.5C 87.4862,108.666 83.4862,108.499 79.5,108C 73.739,105.3 67.739,103.467 61.5,102.5C 58.7318,100.921 55.7318,99.588 52.5,98.5C 52.5,97.5 52.5,96.5 52.5,95.5C 57.3661,97.4259 62.3661,99.0926 67.5,100.5 Z"/></g>
<g><path style="opacity:1" fill="#acc2fb" d="M 113.5,106.5 C 111.147,107.34 109.147,108.674 107.5,110.5C 103.088,110.902 98.7543,111.735 94.5,113C 88.3188,113.819 82.3188,113.653 76.5,112.5C 82.1764,112.666 87.8431,112.499 93.5,112C 96.4081,111.311 99.0748,110.145 101.5,108.5C 99.9547,107.548 98.288,107.215 96.5,107.5C 96.5,107.167 96.5,106.833 96.5,106.5C 98.0495,105.559 99.7162,104.893 101.5,104.5C 104.394,103.118 106.894,101.118 109,98.5C 109.249,99.624 109.749,100.624 110.5,101.5C 112.705,99.555 114.372,97.2217 115.5,94.5C 116.847,91.337 118.014,88.0037 119,84.5C 119.828,88.8713 119.661,93.2047 118.5,97.5C 117.067,100.707 115.4,103.707 113.5,106.5 Z"/></g>
<g><path style="opacity:1" fill="#dae4fd" d="M 122.5,96.5 C 120.021,103.982 115.021,108.649 107.5,110.5C 109.147,108.674 111.147,107.34 113.5,106.5C 116.5,103.167 119.5,99.8333 122.5,96.5 Z"/></g>
<g><path style="opacity:1" fill="#b8cbfc" d="M 61.5,102.5 C 67.739,103.467 73.739,105.3 79.5,108C 83.4862,108.499 87.4862,108.666 91.5,108.5C 89.5274,109.163 87.3608,109.496 85,109.5C 76.1195,110.043 68.2862,107.709 61.5,102.5 Z"/></g>
<g><path style="opacity:1" fill="#e2e9fd" d="M 53.5,105.5 C 56.7619,105.975 59.7619,106.975 62.5,108.5C 64.0725,109.687 65.7392,110.687 67.5,111.5C 61.9533,111.218 57.2867,109.218 53.5,105.5 Z"/></g>
<g><path style="opacity:1" fill="#d1ddfd" d="M 51.5,102.5 C 52.8333,102.5 53.5,103.167 53.5,104.5C 51.8828,103.962 50.2161,103.629 48.5,103.5C 48.6495,104.552 48.4828,105.552 48,106.5C 43.8985,110.761 40.3985,115.428 37.5,120.5C 36.325,120.719 35.325,120.386 34.5,119.5C 35.154,117.885 35.654,116.218 36,114.5C 38.2347,110.572 40.7347,106.905 43.5,103.5C 42.7822,105.137 42.6155,106.803 43,108.5C 44.6196,106.759 46.1196,104.925 47.5,103C 48.7932,102.51 50.1266,102.343 51.5,102.5 Z"/></g>
<g><path style="opacity:1" fill="#c4d4fc" d="M 62.5,108.5 C 67.219,109.628 71.8857,110.962 76.5,112.5C 82.3188,113.653 88.3188,113.819 94.5,113C 98.7543,111.735 103.088,110.902 107.5,110.5C 105.402,111.935 103.069,113.102 100.5,114C 91.1322,114.752 81.7989,114.585 72.5,113.5C 71.0697,112.463 69.403,111.796 67.5,111.5C 65.7392,110.687 64.0725,109.687 62.5,108.5 Z"/></g>
</svg>
