<svg xmlns="http://www.w3.org/2000/svg" width="574" height="856" style="shape-rendering:geometricPrecision;text-rendering:geometricPrecision;image-rendering:optimizeQuality;fill-rule:evenodd;clip-rule:evenodd"><path style="opacity:1" fill="#f5cf7e" d="M-.5-.5h574v150H-.5V-.5z"/><path style="opacity:1" fill="#796539" d="M312.5 35.5c1-1.333 2-1.333 3 0v3c-1.291.237-2.291-.096-3-1 2.667-.667 2.667-1.333 0-2z"/><path style="opacity:1" fill="#cdb577" d="M89.5 40.5v15h-1c-.848-1.125-1.848-1.125-3 0-4.488 1.635-9.154 1.969-14 1 1.085-1.284 1.752-2.784 2-4.5-.824-2.57-.824-5.07 0-7.5-1.189-.929-2.522-1.262-4-1a30.943 30.943 0 0 1 2-2c-1.368-1.094-2.535-.76-3.5 1-.71-1.473-1.876-2.14-3.5-2 3.218-.59 6.384-1.59 9.5-3 3.186.621 6.352 1.288 9.5 2a3.646 3.646 0 0 0 1.5-1l1 14c.414-.457.914-.79 1.5-1 .667-3.813 1.334-7.48 2-11z"/><path style="opacity:1" fill="#dac07c" d="M312.5 35.5v2c.709.904 1.709 1.237 3 1v-3c.967 1.306 2.301 1.973 4 2v4h-3a36.877 36.877 0 0 0 1 12c.667-3.477 1.334-6.81 2-10a27.865 27.865 0 0 0 1.5 11c3.071 1.46 5.904 1.126 8.5-1 .086.996-.248 1.83-1 2.5a18.437 18.437 0 0 1-6 .5c.219 1.175-.114 2.175-1 3-1.133-2.823-2.967-3.49-5.5-2-1.459-.308-2.626-.975-3.5-2-.666-4.517-1.333-9.183-2-14a71.015 71.015 0 0 1-2 4c-.674-4.651-3.341-6.151-8-4.5-.556.383-.889.883-1 1.5-1.291 3.899-1.291 7.899 0 12a2.427 2.427 0 0 0-2 .5c1.333 1.667 1.333 3.333 0 5-2.164.433-4.164-.067-6-1.5-1.883.376-3.383 1.376-4.5 3a18.452 18.452 0 0 1-.5-6c5.493 1.322 7.993-.678 7.5-6-2.572-1.228-4.738-2.895-6.5-5-.047-1.5.619-2.5 2-3 1.165.991 2.332 1.991 3.5 3 1.286-.85 1.119-2.017-.5-3.5-5.966-1.689-8.299.311-7 6a60.756 60.756 0 0 1 6.5 3.5c.611 3.588-.889 4.754-4.5 3.5-1.681-3.467-2.681-3.3-3 .5-.6-1.4-1.6-2.4-3-3v-8c1.393-.49 2.393-1.99 3-4.5 6.127-1.543 12.127-1.376 18 .5 3.845-.262 7.178-1.596 10-4z"/><path style="opacity:1" fill="#010305" d="M312.5 35.5c2.667.667 2.667 1.333 0 2v-2z"/><path style="opacity:1" fill="#dcbf7c" d="M373.5 43.5h-1c-1.968-3.002-4.635-3.668-8-2-2.639 4.533-2.639 9.033 0 13.5 2.998.89 5.664.39 8-1.5v3h-8v3h-8v-3c-1.915.285-3.581-.049-5-1a18.437 18.437 0 0 0 6-.5c1.247-1.494 1.247-2.994 0-4.5-.886.825-1.219 1.825-1 3h-5v-11c2.778-.478 4.778.522 6 3 .901-3.772-.766-5.438-5-5l7.5-3c4.588 2.5 9.088 2.5 13.5 0 .731 1.901.731 3.901 0 6z"/><path style="opacity:1" fill="#c7b37b" d="M179.5 55.5a98.433 98.433 0 0 0-.5-14 6.291 6.291 0 0 0-3-1c-1.911.907-3.744.907-5.5 0a57.15 57.15 0 0 0-1 15h3c-1.068.934-2.401 1.268-4 1a105.28 105.28 0 0 0-1-17c4.599-.3 9.099.033 13.5 1 .808 5.259.308 10.259-1.5 15z"/><path style="opacity:1" fill="#1d1513" d="m286.5 55.5-2-1c.319-3.8 1.319-3.967 3-.5 3.611 1.254 5.111.088 4.5-3.5a60.756 60.756 0 0 0-6.5-3.5c-1.299-5.689 1.034-7.689 7-6 1.619 1.483 1.786 2.65.5 3.5a612.617 612.617 0 0 0-3.5-3c-1.381.5-2.047 1.5-2 3 1.762 2.105 3.928 3.772 6.5 5 .493 5.322-2.007 7.322-7.5 6z"/><path style="opacity:1" fill="#2e1c13" d="M308.5 45.5h-3v-3c-1.792-.134-3.458.2-5 1 0-.667-.333-1-1-1 .111-.617.444-1.117 1-1.5 4.659-1.651 7.326-.151 8 4.5z"/><path style="opacity:1" fill="#0c0d1f" d="M63.5 37.5h-5v18h-2v-18h-5c1.548-1.294 3.548-1.96 6-2 2.452.04 4.452.706 6 2z"/><path style="opacity:1" fill="#8b7e4f" d="M63.5 37.5c-1.068.934-2.401 1.268-4 1 .322 5.858-.011 11.525-1 17v-18h5z"/><path style="opacity:1" fill="#181711" d="M89.5 40.5c3.317.082 6.65.416 10 1v14h-3v-13c-1.644-.214-3.144.12-4.5 1 .102 4.456-.732 8.456-2.5 12v-15z"/><path style="opacity:1" fill="#1c1817" d="M106.5 40.5c1.699-.16 3.366.007 5 .5 1.231 1.183 1.231 2.35 0 3.5-.886-.825-1.219-1.825-1-3-3.638-.763-5.138.57-4.5 4 .671.752 1.504 1.086 2.5 1 3.62.952 5.287 3.285 5 7-2.677 1.932-5.677 2.432-9 1.5-1.231-1.183-1.231-2.35 0-3.5 1.451 2.059 3.451 3.059 6 3v-5c-5.197-.195-7.53-2.862-7-8a5.728 5.728 0 0 1 3-1z"/><path style="opacity:1" fill="#d1b081" d="M108.5 46.5c-.996.086-1.829-.248-2.5-1-.638-3.43.862-4.763 4.5-4-.219 1.175.114 2.175 1 3 1.231-1.15 1.231-2.317 0-3.5a12.935 12.935 0 0 0-5-.5c1.765-.961 3.765-1.295 6-1 1.277-.817 1.61 1.183 1 6-1.915-.285-3.581.049-5 1z"/><path style="opacity:1" fill="#222718" d="M142.5 39.5a30.968 30.968 0 0 0 2 2c-1.812 3.399-2.479 7.066-2 11-.819-2.805-1.319-5.805-1.5-9a72.368 72.368 0 0 0-.5 12c-.447-4.71-1.447-9.377-3-14 1.505-1.342 2.172-3.008 2-5 .709-.904 1.709-1.237 3-1v4z"/><path style="opacity:1" fill="#271f18" d="M330.5 45.5v3h-8v5c2.327.253 4.327-.414 6-2 .607.124.94.457 1 1v1c-2.596 2.126-5.429 2.46-8.5 1a27.865 27.865 0 0 1-1.5-11c1.862-2.83 4.529-3.663 8-2.5 1.939.908 2.939 2.408 3 4.5z"/><path style="opacity:1" fill="#dac281" d="M323.5 41.5c3.41-.116 4.744 1.55 4 5h-5c-.134-1.791.199-3.458 1-5z"/><path style="opacity:1" fill="#160e15" d="M372.5 43.5v4c-2.559-.302-4.893.032-7 1-.874 6.099 1.126 7.099 6 3 .798.457 1.131 1.124 1 2-2.336 1.89-5.002 2.39-8 1.5-2.639-4.467-2.639-8.967 0-13.5 3.365-1.668 6.032-1.002 8 2z"/><path style="opacity:1" fill="#0e1d2d" d="M254.5 40.5c1.936 4.215 2.603 8.881 2 14-1.936-4.215-2.603-8.881-2-14z"/><path style="opacity:1" fill="#232123" d="M222.5 48.5c.283.79.783 1.456 1.5 2 .499-4.989.666-9.989.5-15 1.959 6.25 2.626 12.916 2 20h-4c-.755-5.1-2.588-9.766-5.5-14a2.429 2.429 0 0 0-.5 2c-1.923 3.53-2.589 7.53-2 12-.991-6.479-1.324-13.146-1-20h5a103.654 103.654 0 0 0 4 13z"/><path style="opacity:1" fill="#958051" d="M224.5 35.5a112.97 112.97 0 0 1-.5 15c-.717-.544-1.217-1.21-1.5-2l2-13z"/><path style="opacity:1" fill="#1b1612" d="M261.5 40.5c2.285 1.046 4.618 1.046 7 0v3c-1.599-.268-2.932.066-4 1a813.557 813.557 0 0 0-2 11 57.15 57.15 0 0 1-1-15z"/><path style="opacity:1" fill="#0f0b23" d="M337.5 41.5v1c-.28 4.708-1.28 9.042-3 13a57.15 57.15 0 0 1 1-15c.683.363 1.35.696 2 1z"/><path style="opacity:1" fill="#b7aa6e" d="M366.5 41.5c2.984.287 4.317 1.953 4 5h-6c-.108-2.014.558-3.68 2-5z"/><path style="opacity:1" fill="#7e6638" d="M51.5 37.5h5v18c-.989-5.475-1.322-11.142-1-17-1.599.268-2.932-.066-4-1z"/><path style="opacity:1" fill="#171511" d="M179.5 55.5c-1.768-3.544-2.602-7.544-2.5-12-1.356-.88-2.856-1.214-4.5-1v13h-3a57.15 57.15 0 0 1 1-15c1.756.907 3.589.907 5.5 0a6.291 6.291 0 0 1 3 1c.499 4.655.666 9.322.5 14z"/><path style="opacity:1" fill="#ab935e" d="M150.5 35.5a50.512 50.512 0 0 1 0 20c-.667-20-1.333-20-2 0l-2-14a51.56 51.56 0 0 1 1-7c1.291-.237 2.291.096 3 1z"/><path style="opacity:1" fill="#0e0e29" d="M150.5 55.5h-2c.667-20 1.333-20 2 0z"/><path style="opacity:1" fill="#060510" d="M150.5 35.5c-.139 1.837-.806 2.17-2 1 .457-.797 1.124-1.13 2-1z"/><path style="opacity:1" fill="#6d552e" d="M372.5 43.5h1v5h-8c2.107-.968 4.441-1.302 7-1v-4z"/><path style="opacity:1" fill="#242222" d="M64.5 40.5c1.624-.14 2.79.527 3.5 2 .965-1.76 2.132-2.094 3.5-1a30.943 30.943 0 0 0-2 2c-.617.11-1.117.444-1.5 1a60.94 60.94 0 0 0-.5 11h-3v-15z"/><path style="opacity:1" fill="#121531" d="M84.5 43.5a45.793 45.793 0 0 0 1 12c-1.291.237-2.291-.096-3-1-.58-4.149.086-7.816 2-11z"/><path style="opacity:1" fill="#231f1c" d="M195.5 54.5c-3.377.375-7.044.708-11 1-2.24-5.264-.573-7.93 5-8 1.64-1.29 2.14-2.957 1.5-5-2.493-1.446-4.327-.779-5.5 2-1.333-1-1.333-2 0-3 3.114-1.562 5.947-1.229 8.5 1 .176 4.188.676 8.188 1.5 12z"/><path style="opacity:1" fill="#261b18" d="M233.5 40.5c6.175-.822 9.175 1.844 9 8h-9c-.67 3.09.497 4.757 3.5 5a7.299 7.299 0 0 0 3.5-2c1.231 1.15 1.231 2.317 0 3.5-6.767 2.068-9.767-.432-9-7.5-.181-2.663.485-4.997 2-7z"/><path style="opacity:1" fill="#dec282" d="M235.5 41.5c2.797.467 4.131 2.133 4 5h-5c-.134-1.791.199-3.458 1-5z"/><path style="opacity:1" fill="#d7bd80" d="M342.5 40.5c-1.792-.134-3.458.2-5 1a44.043 44.043 0 0 1-2-1 57.15 57.15 0 0 0-1 15c-1.747-1.48-2.914-3.48-3.5-6-.232 1.237-.732 2.237-1.5 3-.06-.543-.393-.876-1-1-1.673 1.586-3.673 2.253-6 2v-5h8v-3c.722.417 1.222 1.084 1.5 2 1.375-2.437 1.875-5.103 1.5-8a21.333 21.333 0 0 0 7-1c1.213.247 1.88.914 2 2z"/><path style="opacity:1" fill="#9e8f69" d="M117.5 35.5c.667 26.667 1.333 26.667 2 0 .991 6.479 1.324 13.146 1 20v1h-4c-.325-7.187.009-14.187 1-21z"/><path style="opacity:1" fill="#070303" d="M117.5 35.5h2c-.667 26.667-1.333 26.667-2 0z"/><path style="opacity:1" fill="#0c051d" d="m249.5 53.5 2 2c-1.644.214-3.144-.12-4.5-1a33.225 33.225 0 0 1 .5-14c.667 4.482 1.334 8.816 2 13z"/><path style="opacity:1" fill="#1f1f27" d="M312.5 55.5v-15h3v15h-3z"/><path style="opacity:1" fill="#1c1c19" d="M342.5 40.5c.617.11 1.117.444 1.5 1 .499 4.655.666 9.322.5 14h-3v-13h-4v-1c1.542-.8 3.208-1.134 5-1z"/><path style="opacity:1" fill="#dfc688" d="M79.5 48.5c1.844.704 2.344 2.037 1.5 4-1.011.837-2.178 1.17-3.5 1-1.333-2.324-.666-3.99 2-5z"/><path style="opacity:1" fill="#e3c57c" d="M139.5 36.5c.172 1.992-.495 3.658-2 5 1.553 4.623 2.553 9.29 3 14 3.873.166 4.54-.834 2-3-.479-3.934.188-7.601 2-11a30.968 30.968 0 0 1-2-2c1.699.027 3.033.694 4 2l2 14h2c-1.109.79-2.442 1.29-4 1.5a9.457 9.457 0 0 0-1.5 2.5c-1.754-1.75-3.921-2.417-6.5-2a4.934 4.934 0 0 0-.5-3c-3.008 1.726-6.341 2.726-10 3-.945.405-1.612 1.072-2 2l-1-2c-1.049 1.607-2.549 2.273-4.5 2v-4c.65.304 1.317.637 2 1 .406-3.44 1.406-6.44 3-9-1.037 2.237-1.203 4.57-.5 7 1.943 1.307 3.777 1.307 5.5 0 1.739.934 3.405.934 5 0a89.477 89.477 0 0 1-1.5-12c-2.135-1.779-4.635-2.445-7.5-2 2.294-1.89 5.128-2.89 8.5-3 1.326.255 2.326.922 3 2 .232-1.237.732-2.237 1.5-3z"/><path style="opacity:1" fill="#1d0f14" d="M125.5 47.5h4l-2 2c-.951 1.419-1.284 3.085-1 5h4c-1.723 1.307-3.557 1.307-5.5 0-.703-2.43-.537-4.763.5-7z"/><path style="opacity:1" fill="#a4886d" d="M129.5 47.5c2.809.458 3.476 1.791 2 4-.683-1.676-2.017-2.343-4-2l2-2z"/><path style="opacity:1" fill="#1a1828" d="M142.5 52.5c2.54 2.166 1.873 3.166-2 3a72.368 72.368 0 0 1 .5-12c.181 3.195.681 6.195 1.5 9z"/><path style="opacity:1" fill="#dcc381" d="M189.5 47.5c1.149.291 1.816 1.124 2 2.5-.243 3.003-1.91 4.17-5 3.5-.045-2.577.955-4.577 3-6z"/><path style="opacity:1" fill="#0e0a31" d="M216.5 43.5c.589 4.47-.077 8.47-2 12-.589-4.47.077-8.47 2-12z"/><path style="opacity:1" fill="#e0d282" d="M127.5 49.5c1.983-.343 3.317.324 4 2 .172.992-.162 1.658-1 2h-3v-4z"/><path style="opacity:1" fill="#352924" d="M156.5 40.5c2.357-.163 4.69.003 7 .5 1.978 3.933 2.478 8.1 1.5 12.5-3.333 2.667-6.667 2.667-10 0-.942-4.591-.442-8.925 1.5-13z"/><path style="opacity:1" fill="#e6d079" d="M158.5 42.5c1.322-.17 2.489.163 3.5 1 .498 3.317.665 6.65.5 10h-5c-.256-3.77.077-7.436 1-11z"/><path style="opacity:1" fill="#9b8d67" d="M261.5 40.5a57.15 57.15 0 0 0 1 15c.667-3.813 1.334-7.48 2-11v12h-4c-.321-5.526.012-10.86 1-16z"/><path style="opacity:1" fill="#16141f" d="M78.5 47.5c.667 0 1 .333 1 1-2.666 1.01-3.333 2.676-2 5 .709.904 1.709 1.237 3 1-5.503 1.994-7.336-.006-5.5-6 1.011-.837 2.178-1.17 3.5-1z"/><path style="opacity:1" fill="#403624" d="M84.5 43.5c-1.914 3.184-2.58 6.851-2 11h-2c-1.291.237-2.291-.096-3-1 1.322.17 2.489-.163 3.5-1 .844-1.963.344-3.296-1.5-4 0-.667-.333-1-1-1 .709-.904 1.709-1.237 3-1v-5c-2.429.085-4.429 1.085-6 3-1.06-2.794.106-4.128 3.5-4 2.655-.376 4.488.624 5.5 3z"/><path style="opacity:1" fill="#736c52" d="M127.5 49.5v4h3v1h-4c-.284-1.915.049-3.581 1-5z"/><path style="opacity:1" fill="#241e25" d="M126.5 40.5c2.865-.445 5.365.221 7.5 2a89.477 89.477 0 0 0 1.5 12c-1.595.934-3.261.934-5 0v-1c.838-.342 1.172-1.008 1-2 1.476-2.209.809-3.542-2-4 2.661-2.014 2.661-4.014 0-6l-4 3-1-1.5c.556-1.011 1.222-1.844 2-2.5z"/><path style="opacity:1" fill="#2c2320" d="M352.5 40.5c4.234-.438 5.901 1.228 5 5-1.222-2.478-3.222-3.478-6-3v11h5c-.219-1.175.114-2.175 1-3 1.247 1.506 1.247 3.006 0 4.5a18.437 18.437 0 0 1-6 .5c-2.427-2.008-3.427-4.674-3-8-.768-3.678.565-6.011 4-7z"/><path style="opacity:1" fill="#33321f" d="M254.5 40.5c-.603 5.119.064 9.785 2 14-1.419.951-3.085 1.285-5 1l-2-2h4c-.318-4.532.015-8.866 1-13z"/><path style="opacity:1" fill="#1c161b" d="M281.5 43.5v8c-2.678 4.365-6.178 5.032-10.5 2a30.485 30.485 0 0 1 0-11c3.893-2.848 7.393-2.515 10.5 1z"/><path style="opacity:1" fill="#bdaa72" d="M273.5 52.5c-1.138-2.803-1.305-5.803-.5-9 1.699-.906 3.533-1.24 5.5-1v11c-1.915.285-3.581-.049-5-1z"/><path style="opacity:1" fill="#f4d282" d="M273.5 52.5v-8h4v8h-4z"/><path style="opacity:1" fill="#181319" d="M299.5 42.5c.667 0 1 .333 1 1a40.911 40.911 0 0 0 .5 9c2.869 2.819 4.369 2.152 4.5-2h3c.203 1.89-.463 3.39-2 4.5-2.429.703-4.762.537-7-.5-1.291-4.101-1.291-8.101 0-12z"/><path style="opacity:1" fill="#e7c67d" d="M99.5 41.5h4c-.53 5.138 1.803 7.805 7 8v5c-2.549.059-4.549-.941-6-3-1.231 1.15-1.231 2.317 0 3.5 3.323.932 6.323.432 9-1.5.086.996-.248 1.83-1 2.5a20.883 20.883 0 0 0-6.5 3.5 16.668 16.668 0 0 1-4-4c-1.44 1.546-3.273 2.379-5.5 2.5 2.176.163 4.009.996 5.5 2.5.414-.457.914-.79 1.5-1 .929 1.189 1.262 2.522 1 4a16.869 16.869 0 0 1-8-1 36.336 36.336 0 0 1-6-5c-2.872 1.594-3.539.927-2-2h1c1.768-3.544 2.602-7.544 2.5-12 1.356-.88 2.856-1.214 4.5-1v13h3v-14z"/><path style="opacity:1" fill="#dab67a" d="M198.5 35.5v20h3v-20c.991 6.813 1.325 13.813 1 21-2.327-.253-4.327.414-6 2-3.453-2.282-7.119-2.615-11-1-.798-.457-1.131-1.124-1-2 3.956-.292 7.623-.625 11-1 1.649-6.101 2.649-12.435 3-19z"/><path style="opacity:1" fill="#251e1d" d="M198.5 35.5h3v20h-3v-20z"/><path style="opacity:1" fill="#f1c763" d="M-.5 149.5h574v2H-.5v-2z"/><path style="opacity:1" fill="#f3d077" d="M-.5 152.5v-1h574v1c-143.003.616-286.003.616-429 0l-16 1c-1.446 2.118-2.113 4.451-2 7h-9c-.285-3.538 1.382-5.371 5-5.5l-2-1-20-.5c-7.162-.151-14.162.349-21 1.5 1.272 1.046 2.772 1.546 4.5 1.5 6.197-1.312 12.364-1.146 18.5.5.457.414.791.914 1 1.5a273.102 273.102 0 0 1-33 1 10.777 10.777 0 0 0-6 2 7.248 7.248 0 0 0 2 2.5 18.452 18.452 0 0 1-6 .5c.237-1.291-.096-2.291-1-3-2.469-.817-5.135-1.317-8-1.5a11.357 11.357 0 0 0 1.5-3.5c.92 1.814 2.42 2.814 4.5 3 5.406-2.38 11.073-3.38 17-3v-3a6579.34 6579.34 0 0 1-75-1z"/><path style="opacity:1" fill="#f6cf7e" d="M-.5 152.5c24.998.476 49.998.809 75 1v3c-5.927-.38-11.594.62-17 3-2.08-.186-3.58-1.186-4.5-3a11.357 11.357 0 0 1-1.5 3.5c2.865.183 5.531.683 8 1.5h-9a21.12 21.12 0 0 0 1 9c1.435 1.447 2.435 3.114 3 5 1.902-2.837 2.569-6.171 2-10h4v9c.02 1.643-.647 2.976-2 4l2 1a32.415 32.415 0 0 1 7-3c1.496 3.835 2.496 3.835 3 0 1.599.268 2.932-.066 4-1 .667-5.333 1.333-5.333 2 0 1.599.268 2.932-.066 4-1a51.19 51.19 0 0 1 2.5-4c.19 2.208.69 4.208 1.5 6 2.624.994 5.29 1.994 8 3-.343-1.983.323-3.317 2-4-.262 1.478.071 2.811 1 4l1-1c.594-3.33 1.26-6.664 2-10 .17 7.052 3.503 9.718 10 8a49.87 49.87 0 0 0-1-14c-.798.457-1.131 1.124-1 2-1.788.285-3.455-.048-5-1a4.457 4.457 0 0 1 2-1.5 132.434 132.434 0 0 0-23 0l2 1a36.434 36.434 0 0 1-12-.5v-3c11.02.332 22.02-.001 33-1a3.647 3.647 0 0 0-1-1.5c-6.136-1.646-12.303-1.812-18.5-.5-1.728.046-3.228-.454-4.5-1.5 6.838-1.151 13.838-1.651 21-1.5l20 .5 2 1c-3.618.129-5.285 1.962-5 5.5h9c-.113-2.549.554-4.882 2-7l16-1c142.997.616 285.997.616 429 0v106H-.5v-106z"/><path style="opacity:1" fill="#f4d28e" d="M70.5 159.5v3c3.976.831 7.976.997 12 .5l-2-1a132.434 132.434 0 0 1 23 0 4.457 4.457 0 0 0-2 1.5c1.545.952 3.212 1.285 5 1-4.848 1.649-6.181 4.982-4 10a13.116 13.116 0 0 0 1-7h3a19.372 19.372 0 0 1-1 8c.825.886 1.825 1.219 3 1-6.497 1.718-9.83-.948-10-8-.74 3.336-1.406 6.67-2 10l-1 1c-.929-1.189-1.262-2.522-1-4 1.469-2.755 2.802-5.755 4-9-1.506-1.247-3.006-1.247-4.5 0l-1 7c-2.165-2.153-2.998-4.819-2.5-8h-6c-.219 1.175.114 2.175 1 3 1.109-1.09 2.109-1.09 3 0-.82 1.611-2.154 2.278-4 2v6c-.81-1.792-1.31-3.792-1.5-6a51.19 51.19 0 0 0-2.5 4 57.369 57.369 0 0 1 2-9c-1.643-.02-2.976.647-4 2-1.024-1.353-2.357-2.02-4-2-.668 4.867-1.668 5.034-3 .5-.984-.591-1.65-.257-2 1a59.247 59.247 0 0 1 1.5 7.5c1.011.837 2.178 1.17 3.5 1-1.068.934-2.401 1.268-4 1-.504 3.835-1.504 3.835-3 0a32.415 32.415 0 0 0-7 3l-2-1c1.353-1.024 2.02-2.357 2-4 1.562-1.872 2.562-4.205 3-7a22.124 22.124 0 0 1 3 6c2.353-5.966.353-8.633-6-8h-4c.077-1.25.744-2.083 2-2.5-4.873-.751-6.206-.584-4 .5v12c-.565-1.886-1.565-3.553-3-5a21.12 21.12 0 0 1-1-9h9c.904.709 1.237 1.709 1 3a18.452 18.452 0 0 0 6-.5 7.248 7.248 0 0 1-2-2.5 10.777 10.777 0 0 1 6-2z"/><path style="opacity:1" fill="#fbf0dc" d="M117.5 162.5c1.89-.203 3.39.463 4.5 2l1 6a45.278 45.278 0 0 0 2.5-8 43.117 43.117 0 0 1 1 13h-4c.269-1.929-.231-3.595-1.5-5-.098 2.119-.931 3.786-2.5 5a43.117 43.117 0 0 1-1-13z"/><path style="opacity:1" fill="#fbeed8" d="M60.5 165.5c6.353-.633 8.353 2.034 6 8a22.124 22.124 0 0 0-3-6c-.438 2.795-1.438 5.128-3 7v-9z"/><path style="opacity:1" fill="#fceeea" d="M108.5 176.5c-1.175.219-2.175-.114-3-1a19.372 19.372 0 0 0 1-8h-3a13.116 13.116 0 0 1-1 7c-2.181-5.018-.848-8.351 4-10-.131-.876.202-1.543 1-2a49.87 49.87 0 0 1 1 14z"/><path style="opacity:1" fill="#fcece3" d="M174.5 165.5c1.277 1.194 1.944 2.86 2 5l-1 5a16.873 16.873 0 0 1-1-8h-3c.536 3.198-.131 5.865-2 8a72.367 72.367 0 0 1 .5-12c1.11 1.537 2.61 2.203 4.5 2z"/><path style="opacity:1" fill="#f9e7c8" d="M180.5 165.5c4.739-1.093 6.739.74 6 5.5.068 4.877-2.099 6.377-6.5 4.5-.659-3.388-.492-6.721.5-10z"/><path style="opacity:1" fill="#fcf3e1" d="M56.5 165.5c.569 3.829-.098 7.163-2 10v-12c-2.206-1.084-.873-1.251 4-.5-1.256.417-1.923 1.25-2 2.5z"/><path style="opacity:1" fill="#faeece" d="M130.5 165.5h6a9.108 9.108 0 0 0 1 5l-5 2c5.276 1.385 5.276 2.718 0 4a4.933 4.933 0 0 1-2.5-1c-.659-3.388-.492-6.721.5-10z"/><path style="opacity:1" fill="#f6e3b8" d="M174.5 165.5c-1.89.203-3.39-.463-4.5-2a72.367 72.367 0 0 0-.5 12 1041.63 1041.63 0 0 1-2-12l-2 1c-2.276 14.606-4.109 14.606-5.5 0l-1.5-1.5c4.536-1.379 9.203-1.879 14-1.5.027 1.699.694 3.033 2 4z"/><path style="opacity:1" fill="#fbe9d7" d="M196.5 165.5c7.333-.653 9.999 2.68 8 10h-4c.262-1.478-.071-2.811-1-4l-2 5c-1.923-3.88-.923-6.547 3-8-.891-1.09-1.891-1.09-3 0-.886-.825-1.219-1.825-1-3z"/><path style="opacity:1" fill="#fbf0d5" d="M189.5 164.5a31.283 31.283 0 0 1 5 2c-1.76 2.712-2.427 5.712-2 9h-3v-11z"/><path style="opacity:1" fill="#fbedd6" d="M80.5 174.5c-1.068.934-2.401 1.268-4 1-.667-5.333-1.333-5.333-2 0-1.322.17-2.489-.163-3.5-1a59.247 59.247 0 0 0-1.5-7.5c.35-1.257 1.016-1.591 2-1 1.332 4.534 2.332 4.367 3-.5 1.643-.02 2.976.647 4 2 1.024-1.353 2.357-2.02 4-2a57.369 57.369 0 0 0-2 9z"/><path style="opacity:1" fill="#fbeecf" d="M232.5 165.5h6c.219 1.175-.114 2.175-1 3-1.109-1.09-2.109-1.09-3 0a32.367 32.367 0 0 0 4.5 3c.781 1.444.614 2.777-.5 4a11.988 11.988 0 0 1-6 1c-.12-2.705.88-3.372 3-2 .886-.825 1.219-1.825 1-3-3.568-.259-4.901-2.259-4-6z"/><path style="opacity:1" fill="#f9ead3" d="M143.5 165.5h3c-.171 3.297.495 3.631 2 1 1.189-.929 2.522-1.262 4-1a41.333 41.333 0 0 0-2 10h-4c.285-1.788-.048-3.455-1-5a9.86 9.86 0 0 0-1 6h-4a44.866 44.866 0 0 0-1-10c1.624-.14 2.79.527 3.5 2a4.934 4.934 0 0 0 .5-3z"/><path style="opacity:1" fill="#fbe8de" d="M206.5 165.5c2.865-.445 5.365.222 7.5 2 .682 3.569.182 6.902-1.5 10-1.992-.172-3.658.495-5 2a49.87 49.87 0 0 1-1-14z"/><path style="opacity:1" fill="#f4db96" d="M208.5 167.5h4c.253 2.327-.414 4.327-2 6-1.783-1.523-2.449-3.523-2-6z"/><path style="opacity:1" fill="#fae5bf" d="M94.5 175.5c-1.677.683-2.343 2.017-2 4-2.71-1.006-5.376-2.006-8-3v-6c1.846.278 3.18-.389 4-2-.891-1.09-1.891-1.09-3 0-.886-.825-1.219-1.825-1-3h6c-.498 3.181.335 5.847 2.5 8l1-7c1.494-1.247 2.994-1.247 4.5 0-1.198 3.245-2.531 6.245-4 9z"/><path style="opacity:1" fill="#f7dfb5" d="M216.5 161.5h4a18.453 18.453 0 0 0 .5 6c5.416-3.304 8.583-1.804 9.5 4.5-.687 4.265-3.02 5.432-7 3.5l-2-5a13.116 13.116 0 0 0-1 7h-4c-.513-4.585.154-8.918 2-13-1.112-.765-1.779-1.765-2-3z"/><path style="opacity:1" fill="#f4cc78" d="M-.5 258.5h574v3H-.5v-3z"/><path style="opacity:1" fill="#555740" d="M-.5 261.5h574v4H-.5v-4z"/><path style="opacity:1" fill="#545f68" d="M-.5 265.5h574v8H-.5v-8z"/><path style="opacity:1" fill="#fefefe" d="M-.5 273.5h574v582H-.5v-582z"/><path style="opacity:1" fill="#ecdcbf" d="M84.5 310.5h-4v8a21.434 21.434 0 0 1-7 1 24.939 24.939 0 0 0-.5-7 22.72 22.72 0 0 1-3 7c-.064-3.263-.898-6.263-2.5-9a33.3 33.3 0 0 0 6.5-3c3.448 1.441 6.948 2.441 10.5 3z"/><path style="opacity:1" fill="#e6d5af" d="M58.5 309.5c1.992-.172 3.658.495 5 2l2-2c1.333 3 1.333 6 0 9-2.553-.445-5.22-.445-8 0-.236-3.109.097-6.109 1-9z"/><path style="opacity:1" fill="#e3cc94" d="M101.5 310.5c.597.235.93.735 1 1.5a33.292 33.292 0 0 0-3 6.5c-1.147-2.265-1.314-4.598-.5-7 1.159 1.066 1.992.733 2.5-1z"/><path style="opacity:1" fill="#e8d8b2" d="M92.5 309.5c1.517.011 2.684.677 3.5 2 2.167 7.167-.333 9.667-7.5 7.5.413-3.648 1.746-6.815 4-9.5z"/><path style="opacity:1" fill="#cfb17c" d="M51.5 310.5c3.297-.171 3.63.495 1 2 2.667 1.333 2.667 2.667 0 4 2.63 1.505 2.297 2.171-1 2v-8z"/><path style="opacity:1" fill="#e4d2a0" d="M84.5 310.5c2.817 3.423 2.317 6.423-1.5 9a11.114 11.114 0 0 1-2.5-1v-8h4z"/><path style="opacity:1" fill="gray" d="M118.5 336.5v-1c1.225-.652 1.892-1.819 2-3.5a9.839 9.839 0 0 0-1-4l1-.5c1.333 4 1.333 8 0 12a7.47 7.47 0 0 1-2-3z"/><path style="opacity:1" fill="#7c7f7e" d="M113.5 330.5c-1.248.834-1.915 2.167-2 4 .487 1.943.487 3.609 0 5-.435-4.112-1.435-7.945-3-11.5 2.481-.76 4.147.074 5 2.5z"/><path style="opacity:1" fill="#666b69" d="M206.5 327.5c1.294 1.548 1.961 3.548 2 6l-1 6a36.875 36.875 0 0 1-1-12z"/><path style="opacity:1" fill="#6a6c6d" d="M51.5 328.5c.709-.904 1.709-1.237 3-1-.49 6.195.844 6.528 4 1 .865-1.083 1.865-1.249 3-.5a39.5 39.5 0 0 0-5 5.5 38.91 38.91 0 0 0 5 5.5c-2.593-.546-4.76-2.046-6.5-4.5a14.729 14.729 0 0 1-1.5 5 809.596 809.596 0 0 0-2-11z"/><path style="opacity:1" fill="#2c2e2d" d="M113.5 330.5c2 1.333 3.667 3 5 5v1c-2.414-1.411-4.081-3.411-5-6z"/><path style="opacity:1" fill="#888" d="M130.5 327.5c.934 1.068 1.268 2.401 1 4 1.788-.285 3.455.048 5 1-2.581 2.174-2.581 4.34 0 6.5-1.887.163-3.387-.671-4.5-2.5l-1 3a72.367 72.367 0 0 1-.5-12z"/><path style="opacity:1" fill="#7e7e7e" d="M170.5 332.5c1.042-1.291 2.208-1.291 3.5 0 .814 2.402.647 4.735-.5 7-.474-2.717-1.474-5.05-3-7z"/><path style="opacity:1" fill="#4d4e51" d="M76.5 331.5c.876-.131 1.543.202 2 1-.825.886-1.825 1.219-3 1a18.437 18.437 0 0 1-.5 6 26.689 26.689 0 0 0-1.5-6.5c1.237-.232 2.237-.732 3-1.5z"/><path style="opacity:1" fill="#6d6d6d" d="M124.5 332.5c1.225.652 1.892 1.819 2 3.5l-1 3.5a13.116 13.116 0 0 1-1-7z"/><path style="opacity:1" fill="#585858" d="M145.5 333.5c2.398 1.382 2.565 3.049.5 5a12.93 12.93 0 0 1-.5-5z"/><path style="opacity:1" fill="#6d6d6d" d="M185.5 331.5c.996-.086 1.829.248 2.5 1 .495 1.973.662 3.973.5 6-.06.543-.393.876-1 1a132.026 132.026 0 0 1-2-8z"/><path style="opacity:1" fill="#3d3e3d" d="M198.5 335.5a8.43 8.43 0 0 1-.5 4 18.453 18.453 0 0 1-.5-6h-4a18.453 18.453 0 0 1-.5 6c-.191-2.208-.691-4.208-1.5-6 1.96-1.71 4.127-2.043 6.5-1 .483.948.649 1.948.5 3z"/><path style="opacity:1" fill="#474747" d="M139.5 334.5c1.203 1.443 1.703 3.109 1.5 5-1.269-1.405-1.769-3.071-1.5-5z"/><path style="opacity:1" fill="#3f3f3f" d="M160.5 339.5c-.801-1.542-1.134-3.208-1-5 .889.313 1.555 1.48 2 3.5 3.726 1.043 3.393 1.543-1 1.5z"/><path style="opacity:1" fill="#838383" d="M167.5 327.5c1.294 1.548 1.961 3.548 2 6l-1 6a36.875 36.875 0 0 1-1-12z"/><path style="opacity:1" fill="#2c2f2e" d="M201.5 334.5c.719 1.591 1.719 3.091 3 4.5a2.428 2.428 0 0 1-2 .5c-.801-1.542-1.134-3.208-1-5z"/><path style="opacity:1" fill="#797c7f" d="M66.5 331.5c1.322-.17 2.489.163 3.5 1 .814 2.402.647 4.735-.5 7-1.45-3.864-2.95-3.864-4.5 0-.689-2.829.478-4.496 3.5-5-1.15-1.231-2.317-1.231-3.5 0-.239-1.288.261-2.288 1.5-3z"/><path style="opacity:1" fill="#87898a" d="M96.5 332.5c3.613 3.769 3.613 7.436 0 11 1.32-3.368 1.32-7.034 0-11z"/><path style="opacity:1" fill="#848685" d="M86.5 332.5c2.843 3.303 2.176 5.97-2 8-3.498-.686-4.665-2.686-3.5-6 .307 3.376 2.14 4.71 5.5 4v-6z"/><path style="opacity:1" fill="#a6a6a7" d="M159.5 334.5c-.134 1.792.199 3.458 1 5-1.25-.077-2.083-.744-2.5-2a4.934 4.934 0 0 0-.5 3 21.127 21.127 0 0 1-9-1c.612-4.32 1.278-8.653 2-13a36.875 36.875 0 0 1 1 12h3a11.988 11.988 0 0 0-1-6c.865-1.083 1.865-1.249 3-.5a15.256 15.256 0 0 1 1.5 4.5c.278-.916.778-1.582 1.5-2z"/><path style="opacity:1" fill="#d8d9d9" d="M185.5 331.5c.573 2.647 1.24 5.313 2 8 .607-.124.94-.457 1-1 .996-.086 1.829.248 2.5 1 .495-1.973.662-3.973.5-6 .809 1.792 1.309 3.792 1.5 6 .495-1.973.662-3.973.5-6h4a18.453 18.453 0 0 0 .5 6 8.43 8.43 0 0 0 .5-4c.768.763 1.268 1.763 1.5 3 .21-1.558.71-2.891 1.5-4-.134 1.792.199 3.458 1 5-6.252 1.124-12.585 1.29-19 .5-1.728-3.491-1.062-6.325 2-8.5z"/><path style="opacity:1" fill="#818283" d="M106.5 349.5c2.524-1.3 5.191-1.3 8 0-1.348-.05-2.848.283-4.5 1-.784 3.26-.617 6.427.5 9.5 2.155.116 4.155-.217 6-1-2.928 2.618-6.261 3.118-10 1.5 1.293-3.799 1.293-7.466 0-11z"/><path style="opacity:1" fill="#bfbfc1" d="M74.5 352.5c2.747-.313 5.413.02 8 1a22.58 22.58 0 0 1-4 8 53.981 53.981 0 0 1-4-9z"/><path style="opacity:1" fill="#252525" d="M57.5 356.5h-1c-2.458-.426-3.624-1.759-3.5-4a32.634 32.634 0 0 1 4.5 4z"/><path style="opacity:1" fill="#646466" d="M146.5 357.5c.039 1.256-.461 2.256-1.5 3-1.523-2.33-2.023-4.664-1.5-7 .557 1.832 1.557 3.165 3 4z"/><path style="opacity:1" fill="#616263" d="M67.5 353.5c1.456 1.918 3.123 2.585 5 2-1.545.952-3.212 1.285-5 1-1.16 2.618-1.16 1.618 0-3z"/><path style="opacity:1" fill="#7c7c7e" d="M87.5 354.5c.06-.543.393-.876 1-1 .886.825 1.219 1.825 1 3h-4v3a8.43 8.43 0 0 1 4 .5c-4.205 1.994-6.205.494-6-4.5 2.267.354 3.6.021 4-1z"/><path style="opacity:1" fill="#212626" d="M155.5 354.5c0-.667.333-1 1-1h1v2a12.93 12.93 0 0 1-.5 5c-.191-2.208-.691-4.208-1.5-6z"/><path style="opacity:1" fill="#828284" d="M178.5 352.5c1.25.077 2.083.744 2.5 2a26.67 26.67 0 0 0 1.5 6.5 4.934 4.934 0 0 1-3 .5v-7h-3c-.256 2.292.077 4.459 1 6.5-1.444.781-2.777.614-4-.5a15.418 15.418 0 0 0 1-7c1.599.268 2.932-.066 4-1z"/><path style="opacity:1" fill="#444447" d="m61.5 352.5 3 1.5c-1.124.839-1.79 2.006-2 3.5.538 1.611.538 2.944 0 4-1.215-3.12-1.549-6.12-1-9z"/><path style="opacity:1" fill="#767678" d="M170.5 361.5c-.493-4.991-1.993-5.325-4.5-1a4.934 4.934 0 0 1-.5-3c1.59-.128 2.923-.795 4-2-.891-1.09-1.891-1.09-3 0-1.196-.346-1.196-.846 0-1.5a12.93 12.93 0 0 1 5-.5c.306 2.885-.027 5.552-1 8z"/><path style="opacity:1" fill="#89898a" d="M56.5 356.5h1c1.3 1.653.966 3.153-1 4.5-1.634.494-3.3.66-5 .5-.238-3.599.762-3.933 3-1 1.611-.82 2.278-2.154 2-4z"/><path style="opacity:1" fill="#9f9f9f" d="M117.5 358.5c3.81 1.254 3.81 2.254 0 3v-3z"/><path style="opacity:1" fill="#8c8b8d" d="M126.5 349.5c1.446-1.113 3.113-1.28 5-.5-.88 1.356-1.214 2.856-1 4.5h6c.214-1.644-.12-3.144-1-4.5 1.667-.667 3.333-.667 5 0-.964 4.066-1.297 8.233-1 12.5-1.478.262-2.811-.071-4-1a9.108 9.108 0 0 0 1-5h-6c-.239 1.967.094 3.801 1 5.5a8.43 8.43 0 0 1-4 .5c.317-4.202-.017-8.202-1-12z"/><path style="opacity:1" fill="#9ea2a3" d="M156.5 353.5c-.667 0-1 .333-1 1-1.844 1.779-2.51 4.112-2 7h-3a13.116 13.116 0 0 0-1-7c-1.235.84-2.235 1.84-3 3v-5c3.428.288 6.762.621 10 1z"/><path style="opacity:1" fill="#adadaf" d="M165.5 357.5a4.934 4.934 0 0 0 .5 3c2.507-4.325 4.007-3.991 4.5 1h-10a13.116 13.116 0 0 0-1-7c-.683.363-1.35.696-2 1v-2c2.179-1.664 4.012-1.33 5.5 1l1 6c.232-1.237.732-2.237 1.5-3z"/><path style="opacity:1" fill="#192329" d="M301.5 399.5c-1.603-.188-2.937.312-4 1.5 2.073.118 3.407 1.118 4 3-.263 2.432-1.263 4.432-3 6a195.6 195.6 0 0 1-22 2 6.547 6.547 0 0 0-3 3c-8.459 1.649-16.459 4.482-24 8.5l-2-1c-.104 1.985-1.437 3.485-4 4.5l-8 2a26.585 26.585 0 0 1-2 3.5c-1.406-1.168-2.572-.835-3.5 1l-1-1a37.138 37.138 0 0 1-4.5 2c-1.333 2-3 3.667-5 5a35.726 35.726 0 0 0 0-3 32.6 32.6 0 0 1 4.5-4c.528-1.316.028-1.983-1.5-2 6-4.01 11.667-8.51 17-13.5l4-1a35.193 35.193 0 0 0 1-4.5 19.215 19.215 0 0 0 7-3.5c9.519-2.495 18.686-5.661 27.5-9.5 7.59.727 15.09 1.061 22.5 1z"/><path style="opacity:1" fill="#161e15" d="M301.5 399.5a124.15 124.15 0 0 0 3 3.5 16.994 16.994 0 0 0-2 6.5 255.922 255.922 0 0 1 38-.5 128.613 128.613 0 0 1 24 3.5c2.443 3.131 5.777 4.464 10 4a132.789 132.789 0 0 1 31 15 128.376 128.376 0 0 0 13 8 6.547 6.547 0 0 0 3 3c-.321 1.548-1.321 2.215-3 2a698.072 698.072 0 0 1 1.5 20c-.5-1.167-1.333-2-2.5-2.5 1.054-1.388 1.22-2.888.5-4.5-1.516 6.631-2.683 6.631-3.5 0-3.691.158-7.024 1.158-10 3a440.426 440.426 0 0 0-24-14.5c-4.151-.19-7.484-1.857-10-5-4.647-1.501-9.313-1.667-14-.5-7.749-2.886-15.749-3.552-24-2a687.783 687.783 0 0 0-7-2c-.774-.647-1.774-.98-3-1-4.317.632-8.65 1.132-13 1.5-.556.383-.889.883-1 1.5-1.314 3.082-2.98 6.082-5 9 2.533 1.526 2.2 2.526-1 3-2.361-1.473-4.361-1.139-6 1-2.646 1.753-5.646 2.753-9 3-4.585-1.573-8.919-1.239-13 1-11.424 4.209-21.757 10.209-31 18-9.7 6.703-18.034 14.703-25 24-3.079 3.15-5.413 6.817-7 11-1.568-.973-3.235-1.14-5-.5a71.1 71.1 0 0 0-5 5.5 4.457 4.457 0 0 1-1.5-2 2787.558 2787.558 0 0 1-10 18c.041 7.375-2.125 13.875-6.5 19.5a176.165 176.165 0 0 0-2.5 11.5 248.073 248.073 0 0 0 1 43c.711-2.399.544-4.732-.5-7a41.653 41.653 0 0 1 2-6c-1.158 14.013 1.175 27.347 7 40-.126 1.7-.793 3.2-2 4.5l1.5 4.5a80.79 80.79 0 0 0 7.5 11v1c.61.891.943 1.891 1 3-.58 4.31-.914 8.643-1 13h3a16.873 16.873 0 0 0 1 8c2.078 1.89 3.411 4.224 4 7a31.5 31.5 0 0 1 10 8.5l-2 1a40.04 40.04 0 0 1 4 6.5c3.263-.371 5.929.963 8 4a32.444 32.444 0 0 0 6 1.5c3.183 3.705 6.517 4.205 10 1.5 5.071 5.202 11.071 8.868 18 11 2.584 1.972 5.584 2.972 9 3a128.357 128.357 0 0 0 36 7c-2.539 1.407-2.206 2.573 1 3.5a505.252 505.252 0 0 0 25 2.5l3 4a4.457 4.457 0 0 0 1.5-2c11.691 2.693 22.524.859 32.5-5.5a60.931 60.931 0 0 1 11-.5 135.21 135.21 0 0 1-10 2.5l-1 1a4.934 4.934 0 0 0 3 .5 13.116 13.116 0 0 1-1 7l-2-4c-1.994 3.174-4.66 4.34-8 3.5a9.568 9.568 0 0 1 3 3c-1.207 1.3-1.874 2.8-2 4.5-2.526 2.068-5.526 3.401-9 4 2.606 1.152 5.273 1.318 8 .5a26.585 26.585 0 0 1 2-3.5c.886.825 1.219 1.825 1 3h4c.216-2.932-.451-5.598-2-8l1-2c1.496 3.835 2.496 3.835 3 0a12.93 12.93 0 0 0 5-.5 4.933 4.933 0 0 1-1-2.5c1.552-6.343 3.218-6.509 5-.5-.255 1.326-.922 2.326-2 3 3.175 1.995 4.842 4.828 5 8.5-1.022 2.355-2.688 4.022-5 5-.12-1.086-.787-1.753-2-2-6.581 2.599-13.248 3.932-20 4-10.667.667-10.667 1.333 0 2 2.217-.869 4.55-1.202 7-1-1.074 1.784-2.74 2.951-5 3.5a130.883 130.883 0 0 1-12 2c.752.671 1.086 1.504 1 2.5a80.21 80.21 0 0 0-9.5 2c-.945-.405-1.612-1.072-2-2a88.665 88.665 0 0 1-18.5 1c-1.109-.79-2.442-1.29-4-1.5 1.801-.317 2.134-.984 1-2-6.918-3.418-14.251-5.251-22-5.5a7.248 7.248 0 0 0-2-2.5c-3.325-.139-6.325-1.139-9-3l-11-1-15-7c-6.636.038-12.97-1.295-19-4-.837-1.011-1.17-2.178-1-3.5a58.563 58.563 0 0 1-14-4c-1.53.14-2.53.807-3 2-1.562-.233-2.895-.9-4-2-.689-1.274-1.523-1.274-2.5 0-.21-1.558-.71-2.891-1.5-4a25.658 25.658 0 0 0-6-6c-1.306-1.973-2.973-3.639-5-5a192.955 192.955 0 0 0-19.5-21c-1.617-4.425-4.284-8.092-8-11-.492-1.049-.326-2.049.5-3-.825-.886-1.825-1.219-3-1a24.942 24.942 0 0 0-5-8c-.687-3.898-2.353-7.231-5-10a5.727 5.727 0 0 1-1-3c.543-.06.876-.393 1-1-.825-.886-1.825-1.219-3-1-.48-2.943-1.48-5.61-3-8-6.146-18.46-9.146-37.46-9-57 .987-4.805 1.321-9.805 1-15 3.44-24.006 9.773-47.339 19-70 3.218-9.102 7.551-17.769 13-26a200.08 200.08 0 0 0 11.5-16c4.378-2.877 7.878-6.544 10.5-11 7.645-5.972 15.311-11.972 23-18 .042.979.042 1.979 0 3 2-1.333 3.667-3 5-5a37.138 37.138 0 0 0 4.5-2l1 1c.928-1.835 2.094-2.168 3.5-1a26.585 26.585 0 0 0 2-3.5l8-2c2.563-1.015 3.896-2.515 4-4.5l2 1c7.541-4.018 15.541-6.851 24-8.5a6.547 6.547 0 0 1 3-3 195.6 195.6 0 0 0 22-2c1.737-1.568 2.737-3.568 3-6-.593-1.882-1.927-2.882-4-3 1.063-1.188 2.397-1.688 4-1.5z"/><path style="opacity:1" fill="#828888" d="M364.5 412.5a90.025 90.025 0 0 1 10 4c-4.223.464-7.557-.869-10-4z"/><path style="opacity:1" fill="#e4d3a0" d="M405.5 431.5c6.445-.523 10.779 2.144 13 8a128.376 128.376 0 0 1-13-8z"/><path style="opacity:1" fill="#7f6431" d="M325.5 436.5a589.934 589.934 0 0 0-17 2c.111-.617.444-1.117 1-1.5 4.35-.368 8.683-.868 13-1.5 1.226.02 2.226.353 3 1z"/><path style="opacity:1" fill="#d8dbda" d="M222.5 430.5c1.528.017 2.028.684 1.5 2a32.6 32.6 0 0 0-4.5 4 16742.462 16742.462 0 0 1-23 18c.14-1.624-.527-2.79-2-3.5l23-18.5a16.076 16.076 0 0 1 5-2z"/><path style="opacity:1" fill="#fefefe" d="M296.5 451.5a256.827 256.827 0 0 1 32 1l28 6a128.108 128.108 0 0 0 22 9.5 1266.26 1266.26 0 0 1 35 20 549.748 549.748 0 0 0 19 20.5 127.57 127.57 0 0 0 13.5 20 94.327 94.327 0 0 1 6.5 15.5c.583 6.527.916 13.027 1 19.5h3c-.405 3.548.095 6.881 1.5 10l2-2c1.257 2.246 3.09 3.579 5.5 4a128.507 128.507 0 0 1-.5 16 32.55 32.55 0 0 1-3 7 155.472 155.472 0 0 1-3.5 21 103.467 103.467 0 0 0-6.5 26c-2.369 5.02-4.702 10.02-7 15a8.43 8.43 0 0 0-.5 4c-2.318 1.685-3.318 4.019-3 7h-3c-.416 6.494-2.749 12.16-7 17a27.603 27.603 0 0 1-5 1.5 110.18 110.18 0 0 1-13 12l-5 1a79.946 79.946 0 0 1-17 12 1090.666 1090.666 0 0 0-44 10.5c-1.446-1.113-3.113-1.28-5-.5 1.036 1.617 2.203 1.784 3.5.5.464.594.631 1.261.5 2-4.664 1.29-9.331 1.623-14 1 .457-.798 1.124-1.131 2-1 2.277-.575 4.277-.909 6-1-2.473-1.297-4.807-1.297-7 0h-29a128.357 128.357 0 0 1-36-7 37.779 37.779 0 0 0-9-5 68.214 68.214 0 0 0-17-13c-9.36-10.027-18.694-19.361-28-28-3.626-2.595-6.292-5.928-8-10-1.274-3.881-3.107-7.548-5.5-11-1.011-.837-2.178-1.17-3.5-1v-1c.876.131 1.543-.202 2-1-4.364-5.796-7.364-12.13-9-19-5.825-12.653-8.158-25.987-7-40 1.276-21.921 6.776-42.588 16.5-62l3-3a101.182 101.182 0 0 1 8.5-17c1.587-4.183 3.921-7.85 7-11a53.236 53.236 0 0 1 7-4.5 84.86 84.86 0 0 1 7-8.5 65.213 65.213 0 0 0 9-6 11.637 11.637 0 0 0 2-5l9-1.5a18.08 18.08 0 0 0 2-3.5c2.247-.745 4.08-2.078 5.5-4 .414.457.914.791 1.5 1 5.635-2.803 11.302-5.137 17-7 3.406-.403 6.406-1.736 9-4 3.354-.247 6.354-1.247 9-3z"/><path style="opacity:1" fill="#f0c158" d="M325.5 436.5c2.326.651 4.659 1.318 7 2 8.251-1.552 16.251-.886 24 2 4.687-1.167 9.353-1.001 14 .5 2.516 3.143 5.849 4.81 10 5a440.426 440.426 0 0 1 24 14.5 289.84 289.84 0 0 1 27.5 23c2.304 2.641 4.638 5.308 7 8 3.704 9.046 9.037 17.046 16 24a984.513 984.513 0 0 1 6.5 24 10.305 10.305 0 0 1-1 3l3 2c4.414 10.129 5.081 20.462 2 31-2.41-.421-4.243-1.754-5.5-4l-2 2c-1.405-3.119-1.905-6.452-1.5-10h-3a256.524 256.524 0 0 0-1-19.5 94.327 94.327 0 0 0-6.5-15.5 127.57 127.57 0 0 1-13.5-20 549.748 549.748 0 0 1-19-20.5 1266.26 1266.26 0 0 0-35-20 128.108 128.108 0 0 1-22-9.5l-28-6a256.827 256.827 0 0 0-32-1c1.639-2.139 3.639-2.473 6-1 3.2-.474 3.533-1.474 1-3 2.02-2.918 3.686-5.918 5-9a589.934 589.934 0 0 1 17-2z"/><path style="opacity:1" fill="#dcbd60" d="M287.5 454.5c-2.594 2.264-5.594 3.597-9 4-1.542.801-3.208 1.134-5 1-.067-1.459.266-2.792 1-4 4.081-2.239 8.415-2.573 13-1z"/><path style="opacity:1" fill="#eee2be" d="M274.5 455.5c-.734 1.208-1.067 2.541-1 4 1.792.134 3.458-.199 5-1-5.698 1.863-11.365 4.197-17 7a3.647 3.647 0 0 1-1.5-1c-1.42 1.922-3.253 3.255-5.5 4a18.08 18.08 0 0 1-2 3.5l-9 1.5c9.243-7.791 19.576-13.791 31-18z"/><path style="opacity:1" fill="#e3dfbf" d="M243.5 473.5a11.637 11.637 0 0 1-2 5 65.213 65.213 0 0 1-9 6 84.86 84.86 0 0 0-7 8.5 53.236 53.236 0 0 0-7 4.5c6.966-9.297 15.3-17.297 25-24z"/><path style="opacity:1" fill="#e4bd5c" d="M418.5 439.5a8.43 8.43 0 0 1 4 .5 206.09 206.09 0 0 0 20 14c4.439 5.772 9.605 10.939 15.5 15.5a59.523 59.523 0 0 0 5 9 47.229 47.229 0 0 1 11 12c1.113 1.211 2.28 1.211 3.5 0a42.937 42.937 0 0 1 6 9 112.33 112.33 0 0 0-2 5 15.69 15.69 0 0 0-4 2 6.846 6.846 0 0 1 1 4c-4.859-10.7-11.025-20.7-18.5-30a4.934 4.934 0 0 1-.5-3c-6.423-4.588-12.09-10.088-17-16.5-5.863-6.65-12.863-12.817-21-18.5a6.547 6.547 0 0 1-3-3z"/><path style="opacity:1" fill="#171e14" d="M421.5 442.5c8.137 5.683 15.137 11.85 21 18.5 4.91 6.412 10.577 11.912 17 16.5a4.934 4.934 0 0 0 .5 3c7.475 9.3 13.641 19.3 18.5 30a28.799 28.799 0 0 0 3 8c1.892 5.966 4.225 11.633 7 17a1110.98 1110.98 0 0 0 7 25.5c-.556.383-.889.883-1 1.5a6.846 6.846 0 0 1-1 4 29.372 29.372 0 0 1 2 9 167.477 167.477 0 0 0-3 19c-6.72 31.232-16.053 61.565-28 91-.783 1.576-1.95 2.909-3.5 4-.579 1.428-.412 2.762.5 4a273.931 273.931 0 0 1-16 22c-1.158.965-2.658.965-4.5 0 .148 1.325-.018 2.492-.5 3.5a84.028 84.028 0 0 1-14 4c-2.606 1.65-2.606 3.15 0 4.5-.838.342-1.172 1.008-1 2-.996.086-1.829-.248-2.5-1a26.813 26.813 0 0 1-7.5 3.5c1.228 1.49 1.228 2.99 0 4.5a16.339 16.339 0 0 0-5 2c-3.587 3.433-7.92 5.267-13 5.5a46.01 46.01 0 0 1-6 5.5c-3.551-.82-7.218-1.154-11-1-.158-3.672-1.825-6.505-5-8.5 1.078-.674 1.745-1.674 2-3-1.782-6.009-3.448-5.843-5 .5a4.933 4.933 0 0 0 1 2.5 12.93 12.93 0 0 1-5 .5c-.504 3.835-1.504 3.835-3 0l-1 2c1.549 2.402 2.216 5.068 2 8h-4c.219-1.175-.114-2.175-1-3a26.585 26.585 0 0 0-2 3.5c-2.727.818-5.394.652-8-.5 3.474-.599 6.474-1.932 9-4 .126-1.7.793-3.2 2-4.5a9.568 9.568 0 0 0-3-3c3.34.84 6.006-.326 8-3.5l2 4a13.116 13.116 0 0 0 1-7 4.934 4.934 0 0 1-3-.5l1-1a135.21 135.21 0 0 0 10-2.5c4.438 1.075 6.438-.592 6-5a8.43 8.43 0 0 0 4-.5c3.241-4.102 7.241-6.935 12-8.5v-3c2.357.163 4.69-.003 7-.5 1.473-.71 2.14-1.876 2-3.5 4.567.444 7.567-1.556 9-6 8.388-.388 12.722-4.721 13-13 4.251-4.84 6.584-10.506 7-17h3c-.318-2.981.682-5.315 3-7a30.109 30.109 0 0 1-3 8.5c1.372.402 2.705.902 4 1.5a27.204 27.204 0 0 1 6-8 93.069 93.069 0 0 0 3-9 54.628 54.628 0 0 1 4.5-2 182.1 182.1 0 0 1 9-29 387.48 387.48 0 0 1 2.5-43.5l-.5-7.5c-1.414-.913-2.914-.913-4.5 0 3.081-10.538 2.414-20.871-2-31l-3-2c.487-.946.82-1.946 1-3a984.513 984.513 0 0 0-6.5-24c-6.963-6.954-12.296-14.954-16-24a3741.969 3741.969 0 0 1-7-8 289.84 289.84 0 0 0-27.5-23c2.976-1.842 6.309-2.842 10-3 .817 6.631 1.984 6.631 3.5 0 .72 1.612.554 3.112-.5 4.5 1.167.5 2 1.333 2.5 2.5a698.072 698.072 0 0 0-1.5-20c1.679.215 2.679-.452 3-2z"/><path style="opacity:1" fill="#e3bd60" d="M174.5 481.5c-5.449 8.231-9.782 16.898-13 26-2.083 1.619-3.749 3.619-5 6-.62-2.477-1.62-2.477-3 0-.798-.457-1.131-1.124-1-2a41.965 41.965 0 0 1 6.5-12c1.257-2.246 3.09-3.579 5.5-4a8.43 8.43 0 0 1 .5-4c3.839-3.331 6.673-7.331 8.5-12 .798.457 1.131 1.124 1 2z"/><path style="opacity:1" fill="#f7e6b2" d="M490.5 507.5c1.186 3.099 3.519 4.433 7 4v4a81.316 81.316 0 0 1-2.5-3c-1.406 1.168-2.572.835-3.5-1-.929-1.189-1.262-2.522-1-4z"/><path style="opacity:1" fill="#f1e7c1" d="M152.5 511.5c-.131.876.202 1.543 1 2 1.38-2.477 2.38-2.477 3 0a68.008 68.008 0 0 0-5 14 30.233 30.233 0 0 0-3-3.5 108.267 108.267 0 0 1 4-7.5c-.825-.886-1.825-1.219-3-1 .238-1.904 1.238-3.238 3-4z"/><path style="opacity:1" fill="#c7a750" d="M161.5 507.5c-9.227 22.661-15.56 45.994-19 70v-18c2.315-4.972 3.649-10.306 4-16l1-6a170.153 170.153 0 0 1 4-10 68.008 68.008 0 0 1 5-14c1.251-2.381 2.917-4.381 5-6z"/><path style="opacity:1" fill="#8f7c3e" d="M488.5 535.5c-2.775-5.367-5.108-11.034-7-17 2.155 1.052 2.488.386 1-2 .346-1.196.846-1.196 1.5 0a54.897 54.897 0 0 1 4.5 19z"/><path style="opacity:1" fill="#eec25a" d="M483.5 499.5a31.538 31.538 0 0 0 7 8c-.262 1.478.071 2.811 1 4 .928 1.835 2.094 2.168 3.5 1a81.316 81.316 0 0 0 2.5 3 440.674 440.674 0 0 1 10.5 28c.667 8.667.667 17.333 0 26-2.533 3.364-5.366 3.697-8.5 1 2.697 32.902-3.137 63.902-17.5 93a598.201 598.201 0 0 0-17.5 26v-4c11.947-29.435 21.28-59.768 28-91 .722-.418 1.222-1.084 1.5-2a453.54 453.54 0 0 1 3.5-20.5c-1.407-3.157-2.407-6.324-3-9.5.111-.617.444-1.117 1-1.5a1110.98 1110.98 0 0 1-7-25.5 54.897 54.897 0 0 0-4.5-19c-.654-1.196-1.154-1.196-1.5 0 1.488 2.386 1.155 3.052-1 2a28.799 28.799 0 0 1-3-8 6.846 6.846 0 0 0-1-4 15.69 15.69 0 0 1 4-2 112.33 112.33 0 0 1 2-5z"/><path style="opacity:1" fill="#f1d49d" d="M149.5 515.5c1.175-.219 2.175.114 3 1a108.267 108.267 0 0 0-4 7.5 30.233 30.233 0 0 1 3 3.5 170.153 170.153 0 0 0-4 10c.219-1.175-.114-2.175-1-3a171.852 171.852 0 0 0-6 17c.952-12.564 3.952-24.564 9-36z"/><path style="opacity:1" fill="#172024" d="M211.5 508.5a101.182 101.182 0 0 0-8.5 17l-3 3c-9.724 19.412-15.224 40.079-16.5 62a41.653 41.653 0 0 0-2 6c1.044 2.268 1.211 4.601.5 7a248.073 248.073 0 0 1-1-43 176.165 176.165 0 0 1 2.5-11.5c4.375-5.625 6.541-12.125 6.5-19.5a2787.558 2787.558 0 0 0 10-18 4.457 4.457 0 0 0 1.5 2 71.1 71.1 0 0 1 5-5.5c1.765-.64 3.432-.473 5 .5z"/><path style="opacity:1" fill="#ad976f" d="M146.5 543.5c-.351 5.694-1.685 11.028-4 16 .761-5.591 2.095-10.924 4-16z"/><path style="opacity:1" fill="#f8f2df" d="m147.5 537.5-1 6c-1.905 5.076-3.239 10.409-4 16v1c-.139 7.836-1.473 15.503-4 23l2-32a171.852 171.852 0 0 1 6-17c.886.825 1.219 1.825 1 3z"/><path style="opacity:1" fill="#af8f49" d="M494.5 562.5c.593 3.176 1.593 6.343 3 9.5a453.54 453.54 0 0 0-3.5 20.5c-.278.916-.778 1.582-1.5 2a167.477 167.477 0 0 1 3-19 29.372 29.372 0 0 0-2-9 6.846 6.846 0 0 0 1-4z"/><path style="opacity:1" fill="#6e6e35" d="M490.5 579.5c1.149.291 1.816 1.124 2 2.5l-.5 2.5c-1.269-1.405-1.769-3.071-1.5-5z"/><path style="opacity:1" fill="#f7e9bf" d="M136.5 563.5a641.852 641.852 0 0 1-1 32c-1.325-3.945-1.992-8.278-2-13l.5-13c.002-2.551.836-4.551 2.5-6z"/><path style="opacity:1" fill="#182129" d="M444.5 664.5a8.43 8.43 0 0 1 .5-4c2.298-4.98 4.631-9.98 7-15a103.467 103.467 0 0 1 6.5-26 155.472 155.472 0 0 0 3.5-21 32.55 32.55 0 0 0 3-7c.499-5.323.666-10.656.5-16 1.586-.913 3.086-.913 4.5 0l.5 7.5a387.48 387.48 0 0 0-2.5 43.5 182.1 182.1 0 0 0-9 29 54.628 54.628 0 0 0-4.5 2 93.069 93.069 0 0 1-3 9 27.204 27.204 0 0 0-6 8 28.931 28.931 0 0 0-4-1.5 30.109 30.109 0 0 0 3-8.5z"/><path style="opacity:1" fill="#c5ba9d" d="M142.5 560.5v17c.321 5.195-.013 10.195-1 15a128.507 128.507 0 0 0-.5-16 4573.078 4573.078 0 0 0-2.5 38v-31c2.527-7.497 3.861-15.164 4-23z"/><path style="opacity:1" fill="#eecc7f" d="m140.5 551.5-2 32v31a213.194 213.194 0 0 0 6 32.5c.176 2.359-.491 2.859-2 1.5-.229-1.933-1.062-3.6-2.5-5a319.653 319.653 0 0 1-4.5-48 641.852 641.852 0 0 0 1-32c.819-2.805 1.319-5.805 1.5-9 .377-1.442 1.21-2.442 2.5-3z"/><path style="opacity:1" fill="#e1e2d9" d="M141.5 592.5c-.146 19.54 2.854 38.54 9 57v7c-.875-2.068-2.041-4.068-3.5-6a4.934 4.934 0 0 0-.5 3c-.768-.763-1.268-1.763-1.5-3a32.462 32.462 0 0 0-.5 8c-.961-1.765-1.295-3.765-1-6h-3c.027-1.699.694-3.033 2-4 1.509 1.359 2.176.859 2-1.5a213.194 213.194 0 0 1-6-32.5c.77-12.514 1.604-25.181 2.5-38 .499 5.323.666 10.656.5 16z"/><path style="opacity:1" fill="#b3b9ba" d="M190.5 630.5c1.636 6.87 4.636 13.204 9 19-.457.798-1.124 1.131-2 1a80.79 80.79 0 0 1-7.5-11l-1.5-4.5c1.207-1.3 1.874-2.8 2-4.5z"/><path style="opacity:1" fill="#cab36e" d="M150.5 649.5c1.52 2.39 2.52 5.057 3 8 1.175-.219 2.175.114 3 1-.124.607-.457.94-1 1-2.065-.453-3.732-1.453-5-3v-7z"/><path style="opacity:1" fill="#afb5ba" d="M197.5 651.5c1.322-.17 2.489.163 3.5 1 2.393 3.452 4.226 7.119 5.5 11l-8-9a5.727 5.727 0 0 0-1-3z"/><path style="opacity:1" fill="#eedea9" d="M146.5 653.5a528.997 528.997 0 0 0 6.5 18c.667 1.667.667 3.333 0 5a220.187 220.187 0 0 1-8.5-18 32.462 32.462 0 0 1 .5-8c.232 1.237.732 2.237 1.5 3z"/><path style="opacity:1" fill="#d7bd7e" d="M156.5 662.5c2.647 2.769 4.313 6.102 5 10-1.679-.215-2.679.452-3 2-2.353-3.536-4.353-7.369-6-11.5 1.242-.311 2.242.189 3 1.5.798-.457 1.131-1.124 1-2z"/><path style="opacity:1" fill="#d5b459" d="M161.5 672.5a24.942 24.942 0 0 1 5 8c1.175-.219 2.175.114 3 1-.826.951-.992 1.951-.5 3 3.716 2.908 6.383 6.575 8 11a192.955 192.955 0 0 1 19.5 21 57.809 57.809 0 0 0-8-3.5 169.488 169.488 0 0 1-30-38.5c.321-1.548 1.321-2.215 3-2z"/><path style="opacity:1" fill="#182228" d="m198.5 654.5 8 9c1.708 4.072 4.374 7.405 8 10 4.383 6.89 9.716 13.057 16 18.5-.369 2.877.965 5.044 4 6.5a50.776 50.776 0 0 0 7 7c-3.483 2.705-6.817 2.205-10-1.5a32.444 32.444 0 0 1-6-1.5c-2.071-3.037-4.737-4.371-8-4a40.04 40.04 0 0 0-4-6.5l2-1a31.5 31.5 0 0 0-10-8.5c-.589-2.776-1.922-5.11-4-7a16.873 16.873 0 0 1-1-8h-3c.086-4.357.42-8.69 1-13z"/><path style="opacity:1" fill="#a8aeb2" d="M242.5 701.5c-2.912-1.566-5.579-3.566-8-6-.587.733-.587 1.733 0 3-3.035-1.456-4.369-3.623-4-6.5-6.284-5.443-11.617-11.61-16-18.5 9.306 8.639 18.64 17.973 28 28z"/><path style="opacity:1" fill="#816b37" d="M464.5 685.5v4a308.607 308.607 0 0 1-3 4c-.912-1.238-1.079-2.572-.5-4 1.55-1.091 2.717-2.424 3.5-4z"/><path style="opacity:1" fill="#d5dad8" d="M242.5 701.5a68.214 68.214 0 0 1 17 13c1.006.896 1.006 1.562 0 2-6.929-2.132-12.929-5.798-18-11a50.776 50.776 0 0 1-7-7c-.587-1.267-.587-2.267 0-3 2.421 2.434 5.088 4.434 8 6z"/><path style="opacity:1" fill="#4d5451" d="M259.5 714.5a37.779 37.779 0 0 1 9 5c-3.416-.028-6.416-1.028-9-3 1.006-.438 1.006-1.104 0-2z"/><path style="opacity:1" fill="#1d2325" d="M445.5 715.5a22.375 22.375 0 0 1-3 6.5 295.691 295.691 0 0 1-28 22.5c-4.697 2.387-9.364 4.72-14 7a81.316 81.316 0 0 1 3-2.5l-1.5-.5a229.76 229.76 0 0 0-11.5 4v3c-6.139.032-12.139 1.365-18 4a2.428 2.428 0 0 1-2-.5 6.802 6.802 0 0 0 3-1.5l-1.5-1a102.783 102.783 0 0 1-7.5 3c-.798.457-1.131 1.124-1 2-2.077 1.861-4.41 2.194-7 1-3.82 1.645-7.82 2.311-12 2 .086-.996-.248-1.829-1-2.5a130.883 130.883 0 0 0 12-2c2.26-.549 3.926-1.716 5-3.5 5.04-.791 10.04-1.791 15-3 2.312-.978 3.978-2.645 5-5 3.782-.154 7.449.18 11 1a46.01 46.01 0 0 0 6-5.5c5.08-.233 9.413-2.067 13-5.5a2.428 2.428 0 0 0 .5 2c2.118-.783 3.618-2.116 4.5-4 1.228-1.51 1.228-3.01 0-4.5a26.813 26.813 0 0 0 7.5-3.5c.671.752 1.504 1.086 2.5 1 2.889-1.527 5.722-2.527 8.5-3 .667-.667.667-1.333 0-2-.741 1.141-1.575 1.141-2.5 0-1.44 1.452-3.106 2.452-5 3-2.606-1.35-2.606-2.85 0-4.5a84.028 84.028 0 0 0 14-4c.482-1.008.648-2.175.5-3.5 1.842.965 3.342.965 4.5 0z"/><path style="opacity:1" fill="#7b8385" d="M347.5 725.5c.172.992-.162 1.658-1 2a2.428 2.428 0 0 0-.5-2c-1.297 1.284-2.464 1.117-3.5-.5 1.887-.78 3.554-.613 5 .5z"/><path style="opacity:1" fill="#7c8579" d="M425.5 729.5c-.172-.992.162-1.658 1-2 1.894-.548 3.56-1.548 5-3 .925 1.141 1.759 1.141 2.5 0 .667.667.667 1.333 0 2-2.778.473-5.611 1.473-8.5 3z"/><path style="opacity:1" fill="#adb1ab" d="M201.5 721.5a25.658 25.658 0 0 1 6 6c-2.939-.418-5.272-1.918-7-4.5.556-.383.889-.883 1-1.5z"/><path style="opacity:1" fill="#72757a" d="M333.5 726.5c2.193-1.297 4.527-1.297 7 0-1.723.091-3.723.425-6 1 0-.667-.333-1-1-1z"/><path style="opacity:1" fill="#1a2428" d="M431.5 688.5c-.278 8.279-4.612 12.612-13 13-1.433 4.444-4.433 6.444-9 6 .14 1.624-.527 2.79-2 3.5-2.31.497-4.643.663-7 .5v3c-4.759 1.565-8.759 4.398-12 8.5a8.43 8.43 0 0 1-4 .5c.438 4.408-1.562 6.075-6 5a60.931 60.931 0 0 0-11 .5c-9.976 6.359-20.809 8.193-32.5 5.5a4.457 4.457 0 0 1-1.5 2l-3-4a505.252 505.252 0 0 1-25-2.5c-3.206-.927-3.539-2.093-1-3.5h29c.667 0 1 .333 1 1-.876-.131-1.543.202-2 1 4.669.623 9.336.29 14-1 .838-.342 1.172-1.008 1-2a1090.666 1090.666 0 0 1 44-10.5 79.946 79.946 0 0 0 17-12l5-1a110.18 110.18 0 0 0 13-12 27.603 27.603 0 0 0 5-1.5z"/><path style="opacity:1" fill="#707576" d="M211.5 731.5c1.105 1.1 2.438 1.767 4 2v1c-2.058 1.324-3.725.824-5-1.5.556-.383.889-.883 1-1.5z"/><path style="opacity:1" fill="#899087" d="M415.5 736.5c-.882 1.884-2.382 3.217-4.5 4a2.428 2.428 0 0 1-.5-2 16.339 16.339 0 0 1 5-2z"/><path style="opacity:1" fill="#e1e6e6" d="M414.5 744.5c-.752 1.6-1.752 3.1-3 4.5a4.457 4.457 0 0 0 2 1.5c.951-.826 1.951-.992 3-.5a125.379 125.379 0 0 0-7 4.5c-1.955-1.43-3.621-1.097-5 1a82.437 82.437 0 0 0-16 6c-4.034.017-7.701 1.017-11 3a394.983 394.983 0 0 1-32 4 46.809 46.809 0 0 1-13 1h-18a455.036 455.036 0 0 1-15-1v-2c4.805-.987 9.805-1.321 15-1a88.665 88.665 0 0 0 18.5-1c.388.928 1.055 1.595 2 2a80.21 80.21 0 0 1 9.5-2c4.18.311 8.18-.355 12-2 2.59 1.194 4.923.861 7-1 3.377.432 6.377-.235 9-2 5.861-2.635 11.861-3.968 18-4v-3a229.76 229.76 0 0 1 11.5-4l1.5.5a81.316 81.316 0 0 0-3 2.5c4.636-2.28 9.303-4.613 14-7z"/><path style="opacity:1" fill="#9c8545" d="M375.5 753.5a183.363 183.363 0 0 1-15 3c-2.45-.202-4.783.131-7 1v-2c6.752-.068 13.419-1.401 20-4 1.213.247 1.88.914 2 2z"/><path style="opacity:1" fill="#495053" d="M400.5 751.5c-1.609 1.271-3.442 2.271-5.5 3l-.5-1c1.673-1.586 3.673-2.253 6-2z"/><path style="opacity:1" fill="#696a6e" d="M409.5 754.5c-1.542.801-3.208 1.134-5 1 1.379-2.097 3.045-2.43 5-1z"/><path style="opacity:1" fill="#7d5f33" d="M353.5 755.5v2c-10.667-.667-10.667-1.333 0-2z"/><path style="opacity:1" fill="#172027" d="M314.5 765.5c-5.195-.321-10.195.013-15 1-1.51-1.228-3.01-1.228-4.5 0a92.012 92.012 0 0 0-4.5-3 3.647 3.647 0 0 0-1.5 1 2276.797 2276.797 0 0 1-24.5-7c-2.696 1.94-4.029 1.273-4-2a21.028 21.028 0 0 1-7-2l-2 1c-2.763-2.96-6.097-4.126-10-3.5 6.602 4.871 13.936 8.204 22 10 1.206 1.018.873 1.518-1 1.5a18.725 18.725 0 0 0-8-2 199.886 199.886 0 0 1-25-13 18.08 18.08 0 0 0-2-3.5 55.168 55.168 0 0 1-12-9.5v-1c.47-1.193 1.47-1.86 3-2a58.563 58.563 0 0 0 14 4c-.17 1.322.163 2.489 1 3.5 6.03 2.705 12.364 4.038 19 4l15 7 11 1c2.675 1.861 5.675 2.861 9 3a7.248 7.248 0 0 1 2 2.5c7.749.249 15.082 2.082 22 5.5 1.134 1.016.801 1.683-1 2 1.558.21 2.891.71 4 1.5z"/><path style="opacity:1" fill="#666669" d="M404.5 755.5c-2.94 2.415-6.273 4.248-10 5.5a18.453 18.453 0 0 1-6 .5 82.437 82.437 0 0 1 16-6z"/><path style="opacity:1" fill="#6b7075" d="M372.5 759.5c-2.623 1.765-5.623 2.432-9 2-.131-.876.202-1.543 1-2 2.54-.902 5.04-1.902 7.5-3l1.5 1a6.802 6.802 0 0 1-3 1.5 2.428 2.428 0 0 0 2 .5z"/><path style="opacity:1" fill="#c2c8cb" d="M299.5 766.5v2a72.032 72.032 0 0 1-11-1c-7.416-2.407-15.082-3.907-23-4.5a132.745 132.745 0 0 0 22 5.5 110.41 110.41 0 0 0 16 2c3.798.983 7.798 1.317 12 1h14c-18.906 2.761-37.906 1.594-57-3.5-3.072-.955-6.072-2.455-9-4.5-1.467 1.195-2.967 1.195-4.5 0a17565.53 17565.53 0 0 1-4.5-3c2.811.071 5.478.738 8 2 1.873.018 2.206-.482 1-1.5-8.064-1.796-15.398-5.129-22-10 3.903-.626 7.237.54 10 3.5l2-1a21.028 21.028 0 0 0 7 2c-.029 3.273 1.304 3.94 4 2a2276.797 2276.797 0 0 0 24.5 7 3.647 3.647 0 0 1 1.5-1 92.012 92.012 0 0 1 4.5 3c1.49-1.228 2.99-1.228 4.5 0z"/><path style="opacity:1" fill="#545758" d="M388.5 761.5c-.111.617-.444 1.117-1 1.5a52.016 52.016 0 0 1-10 1.5c3.299-1.983 6.966-2.983 11-3z"/><path style="opacity:1" fill="#414649" d="M288.5 767.5c-.667 0-1 .333-1 1a132.745 132.745 0 0 1-22-5.5c7.918.593 15.584 2.093 23 4.5z"/><path style="opacity:1" fill="#171a1b" d="M287.5 768.5c0-.667.333-1 1-1 3.635.614 7.302.948 11 1 4.993.416 9.993.749 15 1-3.462.982-7.129 1.315-11 1a110.41 110.41 0 0 1-16-2z"/><path style="opacity:1" fill="#767c7f" d="M314.5 769.5h18l-17 2c-4.202.317-8.202-.017-12-1 3.871.315 7.538-.018 11-1z"/><path style="opacity:1" fill="#363937" d="M377.5 764.5c-2.261 1.755-4.928 2.922-8 3.5-7.009.835-14.009 1.669-21 2.5l-3-2a394.983 394.983 0 0 0 32-4z"/><path style="opacity:1" fill="#070c10" d="m345.5 768.5 3 2c-6.351.057-12.685.39-19 1h-14l17-2a46.809 46.809 0 0 0 13-1z"/><path style="opacity:1" fill="#ddbb8c" d="M151.5 811.5c1.551 2.413 2.217 5.079 2 8-1.469 3.568-3.636 3.902-6.5 1a12.494 12.494 0 0 1 0-7c1.11-1.537 2.61-2.203 4.5-2z"/><path style="opacity:1" fill="#ddb97a" d="M211.5 811.5c1.644-.214 3.144.12 4.5 1 .498 3.317.665 6.65.5 10a9.108 9.108 0 0 1-5-1c-1.251-3.374-1.251-6.707 0-10z"/><path style="opacity:1" fill="#dab376" d="m232.5 814.5 1-2c1.764-1.212 3.43-.879 5 1l-4 1a28.071 28.071 0 0 1 5 5c-.333 1-1 1.667-2 2-.929-1.189-1.262-2.522-1-4-2.473.412-3.806-.588-4-3z"/><path style="opacity:1" fill="#d8b788" d="M78.5 811.5c1.215 3.533 1.215 7.199 0 11-3.98.073-5.647-1.927-5-6l1-4c2.45 10.588 3.783 10.255 4-1z"/><path style="opacity:1" fill="#e6c386" d="M105.5 812.5c1.713 1.135 2.38 2.802 2 5h-3c.343 1.983-.324 3.317-2 4h-3v-9c2.112.775 4.112.775 6 0z"/><path style="opacity:1" fill="#ddba6d" d="M124.5 821.5c-2.87-1.028-4.87-3.028-6-6 .247-1.213.914-1.88 2-2-.039 1.256.461 2.256 1.5 3l1-5c1.405 3.119 1.905 6.452 1.5 10z"/><path style="opacity:1" fill="#e1c28a" d="M126.5 811.5c2.855.342 4.355 2.009 4.5 5a14.72 14.72 0 0 1 1.5-5 25.879 25.879 0 0 1 1 10c-2.55-.061-4.05-1.394-4.5-4a10.258 10.258 0 0 1-1.5 4 25.879 25.879 0 0 1-1-10z"/><path style="opacity:1" fill="#deb98c" d="M203.5 812.5c4.534-.607 6.2 1.06 5 5a11.105 11.105 0 0 0-4.5 3 32.462 32.462 0 0 1-.5-8z"/><path style="opacity:1" fill="#fef8e4" d="M212.5 813.5c1.225.652 1.892 1.819 2 3.5l-1 3.5a13.116 13.116 0 0 1-1-7z"/><path style="opacity:1" fill="#e1bb8a" d="M52.5 811.5c1.59.128 2.923.795 4 2-1.187.054-2.52.387-4 1a7.468 7.468 0 0 0 3 2c1.113 1.446 1.28 3.113.5 5-1.333 1.333-2.667 1.333-4 0-.688-.832-.521-1.498.5-2 .896 1.006 1.562 1.006 2 0a212.657 212.657 0 0 1-4-5c-.047-1.538.62-2.538 2-3z"/><path style="opacity:1" fill="#deb97f" d="M177.5 811.5h3a25.879 25.879 0 0 1-1 10c-.986-3.875-2.153-3.875-3.5 0-1.117-1.449-1.784-3.116-2-5a14.72 14.72 0 0 1-1.5 5 21.127 21.127 0 0 1-1-9c2.888-.28 4.388 1.053 4.5 4 1.009-1.525 1.509-3.192 1.5-5z"/><path style="opacity:1" fill="#e4bd87" d="M218.5 811.5c1.967-.239 3.801.094 5.5 1 .821 3.054.655 6.054-.5 9-1.333-5.333-2.667-5.333-4 0a25.879 25.879 0 0 1-1-10z"/><path style="opacity:1" fill="#e3bf7d" d="M82.5 812.5c1.91.074 3.078 1.074 3.5 3a6.807 6.807 0 0 1 1.5-3c1.333 3 1.333 6 0 9a7.253 7.253 0 0 1-2.5-2 4.451 4.451 0 0 1-1.5 2 21.12 21.12 0 0 1-1-9z"/><path style="opacity:1" fill="#d3b17a" d="M92.5 811.5c5.032-.168 5.2.832.5 3-.946 2.456-.446 4.456 1.5 6 1.09-.891 1.09-1.891 0-3 .502-1.021 1.168-1.188 2-.5.88 1.356 1.213 2.856 1 4.5h-6a19.062 19.062 0 0 0-1-6c.252-1.573.918-2.906 2-4z"/><path style="opacity:1" fill="#d8b163" d="M140.5 811.5a8.43 8.43 0 0 1 4 .5c-2.503 1.784-2.503 3.451 0 5-1.359 1.204-2.359 2.704-3 4.5a25.879 25.879 0 0 1-1-10z"/><path style="opacity:1" fill="#fbefeb" d="M148.5 813.5h3v6h-3v-6z"/><path style="opacity:1" fill="#e8d0a8" d="M203.5 812.5a32.462 32.462 0 0 0 .5 8 11.105 11.105 0 0 1 4.5-3v5c-6.128-.096-11.962-1.096-17.5-3a7.293 7.293 0 0 1-2 3c-1.415-3.458-1.915-7.125-1.5-11a43.117 43.117 0 0 1 13 1c-4 1.333-4 2.667 0 4-3.886 2.593-3.219 3.593 2 3-.302-2.559.032-4.893 1-7z"/><path style="opacity:1" fill="#e5d0a9" d="m233.5 812.5-1 2c-1.58 2.217-2.58 4.884-3 8a3.647 3.647 0 0 1-1.5-1 22.127 22.127 0 0 0-2.5-9c2.656-1.114 5.323-1.114 8 0z"/><path style="opacity:1" fill="#f5ead6" d="M114.5 812.5c.958.453 1.792 1.119 2.5 2a4.934 4.934 0 0 0 .5-3c1.679-.215 2.679.452 3 2-1.086.12-1.753.787-2 2 1.13 2.972 3.13 4.972 6 6-3.303.978-6.803 1.645-10.5 2-3.077-.964-6.077-.964-9 0-.995-.566-1.828-1.233-2.5-2 1.676-.683 2.343-2.017 2-4h3c.38-2.198-.287-3.865-2-5 1.701-1.234 3.701-1.901 6-2 1.53.14 2.53.807 3 2z"/><path style="opacity:1" fill="#dfbd7f" d="M114.5 812.5c-.038 2.681.629 5.181 2 7.5-5.746 1.549-7.246-.618-4.5-6.5.671-.752 1.504-1.086 2.5-1z"/><path style="opacity:1" fill="#f2dfcc" d="M151.5 811.5c4.532-.318 8.866.015 13 1-1.888 2.488-2.555 5.488-2 9a2.428 2.428 0 0 1-.5 2c-3.316-.485-6.149-1.818-8.5-4 .217-2.921-.449-5.587-2-8z"/><path style="opacity:1" fill="#dab57e" d="M155.5 812.5h5a24.935 24.935 0 0 1-.5 7c-1.333-2.667-2.667-2.667-4 0a24.935 24.935 0 0 1-.5-7z"/><path style="opacity:1" fill="#dfc193" d="M164.5 812.5v7h3a13.116 13.116 0 0 1 1-7c1.155 2.946 1.321 5.946.5 9-2.12 1.105-4.287 1.105-6.5 0-.555-3.512.112-6.512 2-9z"/><path style="opacity:1" fill="#f6ecd2" d="M78.5 811.5c-.217 11.255-1.55 11.588-4 1l-1 4c-.647 4.073 1.02 6.073 5 6-.12 1.086-.787 1.753-2 2-3.833-.872-7.5-1.872-11-3 1.593-.848 2.76-2.181 3.5-4a10.255 10.255 0 0 0 1.5 4 21.12 21.12 0 0 0 1-9c-2.235-.295-4.235.039-6 1-.996-.086-1.83.248-2.5 1a42.717 42.717 0 0 1-1.5 9c-1.729-2.351-2.396-5.018-2-8-1.599-.268-2.932.066-4 1a7.468 7.468 0 0 1-3-2c1.48-.613 2.813-.946 4-1-1.077-1.205-2.41-1.872-4-2 6.692-1.296 13.525-1.296 20.5 0a18.181 18.181 0 0 1 3.5-2c1.213.247 1.88.914 2 2z"/><path style="opacity:1" fill="#daad87" d="M65.5 821.5v-8c1.765-.961 3.765-1.295 6-1a21.12 21.12 0 0 1-1 9 10.255 10.255 0 0 1-1.5-4c-.74 1.819-1.907 3.152-3.5 4z"/></svg>