<svg xmlns="http://www.w3.org/2000/svg" width="200" height="200" style="shape-rendering:geometricPrecision;text-rendering:geometricPrecision;image-rendering:optimizeQuality;fill-rule:evenodd;clip-rule:evenodd"><path style="opacity:.969" fill="#006eb5" d="M31.5-.5h136c16.333 5 27 15.667 32 32v1c-1.325 1.453-2.158 1.12-2.5-1-2.163 1.268-4.33 1.268-6.5 0l-2-3c-4.217-9.38-11.217-15.88-21-19.5A1220.493 1220.493 0 0 0 99 7.5L35.5 8c-11.815 2.653-20.148 9.487-25 20.5-1.424 2.015-2.09 4.348-2 7-.983 3.798-1.317 7.798-1 12a544.515 544.515 0 0 0-2.5 9c-1.626-.354-3.459-.354-5.5 0v-25c5-16.333 15.667-27 32-32z"/><path style="opacity:1" fill="#5bc2e3" d="M188.5 28.5a2.429 2.429 0 0 1-.5 2c-2.363-.732-4.863-.732-7.5 0l-1-2c-3.751-5.9-9.084-9.734-16-11.5a4225.039 4225.039 0 0 0-130 0c-7.16 3.327-12.493 8.494-16 15.5-1.791-2.21-3.958-2.877-6.5-2a2.428 2.428 0 0 1-.5-2c4.852-11.013 13.185-17.847 25-20.5L99 7.5c22.873-.14 45.707.36 68.5 1.5 9.783 3.62 16.783 10.12 21 19.5z"/><path style="opacity:1" fill="#019dd2" d="M179.5 28.5c-7.31 1.62-14.81 2.62-22.5 3a106.484 106.484 0 0 1-6.5-10.5c-6-4.667-12-4.667-18 0-2.402 2.703-3.735 5.87-4 9.5h-16c-.589-7.756-4.756-12.09-12.5-13-9.577 1.433-14.243 7.1-14 17-.245-2.163-1.245-3.83-3-5-1.667 1.333-3.333 1.333-5 0l-1 2-6-2c-.415 1.79-1.415 3.124-3 4-1.414-.913-2.914-.913-4.5 0 .285-1.915-.049-3.581-1-5h-1c-2.545-2.575-5.212-2.575-8 0-.31-1.238-.81-1.238-1.5 0 .209 3.96-1.625 5.626-5.5 5 .16-1.7-.007-3.366-.5-5-.117 9.104-.95 16.104-2.5 21a179.66 179.66 0 0 1-26.5-1 24.939 24.939 0 0 0-.5 7c-2.618-1.285-5.118-.952-7.5 1a24.936 24.936 0 0 1-.5-7c2.09-2.614 4.257-2.614 6.5 0a431.608 431.608 0 0 1 2.5-17c3.507-7.006 8.84-12.173 16-15.5 43.333-.667 86.667-.667 130 0 6.916 1.766 12.249 5.6 16 11.5z"/><path style="opacity:1" fill="#0297cc" d="m179.5 28.5 1 2c2.115 5.071 3.282 10.404 3.5 16 1.401-1.692 3.234-2.359 5.5-2-.284 1.915.049 3.581 1 5v17c-.973-2.448-1.306-5.115-1-8-2.041-.354-3.874-.354-5.5 0-1.289-2.85-1.789-5.85-1.5-9h-28a46.723 46.723 0 0 0-2-17c-1.601.665-3.101.999-4.5 1-.079-2.236-.579-3.57-1.5-4h-1c.086-.996-.248-1.83-1-2.5a12.935 12.935 0 0 0-5-.5c-1.767-1.15-2.933-.483-3.5 2-.499 5.99-.666 11.99-.5 18-1.967.24-3.801-.094-5.5-1a20.204 20.204 0 0 1-1.5 6c-5.1-1.88-10.433-2.546-16-2v-3h-7c.323-6.19-.01-12.19-1-18h-1c-2.598-2.648-5.264-2.648-8 0-.31-1.238-.81-1.238-1.5 0-.5 5.99-.666 11.99-.5 18h-6a32.437 32.437 0 0 1-.5 8c-1.009-1.525-1.509-3.192-1.5-5h-13a4.932 4.932 0 0 1-.5 3l-1-5a72.444 72.444 0 0 0-.5 12c-2.71.315-5.044-.352-7-2v-24c1.586-.913 3.086-.913 4.5 0 1.585-.876 2.585-2.21 3-4l6 2 1-2c1.667 1.333 3.333 1.333 5 0 1.755 1.17 2.755 2.837 3 5-.243-9.9 4.423-15.567 14-17 7.744.91 11.911 5.244 12.5 13h16c.265-3.63 1.598-6.797 4-9.5 6-4.667 12-4.667 18 0a106.484 106.484 0 0 0 6.5 10.5c7.69-.38 15.19-1.38 22.5-3z"/><path style="opacity:1" fill="#fafbfd" d="M61.5 28.5c-.333 39.339 0 78.672 1 118 .607-.124.94-.457 1-1 4.923-6.424 10.923-11.59 18-15.5l10-1c2.43-2.305 3.43-5.138 3-8.5a2116.628 2116.628 0 0 0 1-92c2.736-2.648 5.402-2.648 8 0-.333 39.339 0 78.672 1 118 .607-.124.94-.457 1-1 4.072-5.72 9.072-10.553 15-14.5a61.981 61.981 0 0 1 13-2c2.43-2.305 3.43-5.138 3-8.5.832-30.83 1.332-61.83 1.5-93 .383-.556.883-.89 1.5-1 1.699-.16 3.366.006 5 .5.752.67 1.086 1.504 1 2.5-.167 38.335 0 76.668.5 115 .717-.544 1.217-1.211 1.5-2 2.833-4.256 6.833-6.756 12-7.5 10.661-.5 21.328-.667 32-.5v8c-10.006-.166-20.006 0-30 .5-1.991.374-3.658 1.207-5 2.5-2.208 1.394-3.708 3.394-4.5 6a83.776 83.776 0 0 0-5 19c-3.523 4.201-6.523 3.868-9-1a538.89 538.89 0 0 0-1.5-33c-4.579.436-8.913 1.436-13 3-10.941 6.543-16.774 16.21-17.5 29-2.992 6.096-6.325 6.43-10 1a546.726 546.726 0 0 0-1.5-33c-.607.124-.94.457-1 1a56.28 56.28 0 0 0-13 2.5L69 151.5a56.116 56.116 0 0 0-4.5 14c-.03 5.686-2.697 8.186-8 7.5a9.175 9.175 0 0 1-2-4.5 256.885 256.885 0 0 0-1-32c-.607.124-.94.457-1 1a86.064 86.064 0 0 1-12 4.5c-10.995.5-21.995.667-33 .5v-8c11.72.387 23.387-.113 35-1.5 6.07-1.564 9.404-5.397 10-11.5a841.629 841.629 0 0 0 1-58v-35c2.788-2.575 5.455-2.575 8 0z"/><path style="opacity:1" fill="#30adda" d="m188.5 28.5 2 3v18c-.951-1.419-1.284-3.085-1-5-2.266-.359-4.099.308-5.5 2-.218-5.596-1.385-10.929-3.5-16 2.637-.732 5.137-.732 7.5 0a2.429 2.429 0 0 0 .5-2z"/><path style="opacity:1" fill="#29a9d7" d="M10.5 28.5a2.428 2.428 0 0 0 .5 2c2.542-.877 4.709-.21 6.5 2a431.608 431.608 0 0 0-2.5 17c-2.243-2.614-4.41-2.614-6.5 0v-14c-.09-2.652.576-4.985 2-7z"/><path style="opacity:1" fill="#078ec8" d="M95.5 28.5c.332 30.838-.002 61.504-1 92v-47c-2.58.417-4.746-.25-6.5-2l-1 7c-1.009-1.525-1.509-3.192-1.5-5h-13a4.932 4.932 0 0 1-.5 3 67.708 67.708 0 0 1-1.5-17 72.444 72.444 0 0 1 .5-12l1 5c.483-.948.65-1.948.5-3h13c-.009 1.808.491 3.475 1.5 5 .497-2.646.664-5.313.5-8h6c-.166-6.01 0-12.01.5-18 .69-1.238 1.19-1.238 1.5 0z"/><path style="opacity:.994" fill="#0064a4" d="M190.5 31.5c2.17 1.268 4.337 1.268 6.5 0 .342 2.12 1.175 2.453 2.5 1v35c-1.635-1.315-3.301-1.315-5 0-1.369-2.264-2.369-4.597-3-7 .326-8.184-.008-16.184-1-24v-5z"/><path style="opacity:1" fill="#018fc9" d="M53.5 28.5v35c-.617-.11-1.117-.444-1.5-1a60.94 60.94 0 0 0-.5 11c-2.266.359-4.1-.308-5.5-2-.183 2.865-.683 5.531-1.5 8l-1-6h-27c.009 1.808-.491 3.475-1.5 5-2.163-1.268-4.33-1.268-6.5 0 .284-1.915-.049-3.581-1-5v-26c-.317-4.202.017-8.202 1-12v14c-.163 2.357.003 4.69.5 7 2.382-1.952 4.882-2.285 7.5-1-.163-2.357.003-4.69.5-7a179.66 179.66 0 0 0 26.5 1c1.55-4.896 2.383-11.896 2.5-21 .493 1.634.66 3.3.5 5 3.875.626 5.709-1.04 5.5-5 .69-1.238 1.19-1.238 1.5 0z"/><path style="opacity:1" fill="#118fc7" d="M139.5 26.5c-.617.11-1.117.444-1.5 1-.168 31.17-.668 62.17-1.5 93v-43c.166-8.673 0-17.34-.5-26a242.43 242.43 0 0 0-.5 22c-2.266.359-4.099-.308-5.5-2l-1 6-1.5-3c-4.883-.69-9.716-1.357-14.5-2-2.232.687-4.398 1.02-6.5 1a5765.45 5765.45 0 0 0-2-22v-23c.99 5.81 1.323 11.81 1 18h7v3c5.567-.546 10.9.12 16 2a20.204 20.204 0 0 0 1.5-6c1.699.906 3.533 1.24 5.5 1-.166-6.01.001-12.01.5-18 .567-2.483 1.733-3.15 3.5-2z"/><path style="opacity:1" fill="#0091ca" d="M190.5 66.5a60.93 60.93 0 0 1-.5 11 50.464 50.464 0 0 1-.5-10c-1.96-.638-3.793-.638-5.5 0-.29-1.544-.956-2.877-2-4-8.962.898-18.128.898-27.5 0a28.04 28.04 0 0 1-1.5-5c-1.699.906-3.533 1.24-5.5 1 .319-4.863-.014-9.53-1-14v-16c.921.43 1.421 1.764 1.5 4 1.399-.001 2.899-.335 4.5-1a46.723 46.723 0 0 1 2 17h28c-.289 3.15.211 6.15 1.5 9 1.626-.354 3.459-.354 5.5 0-.306 2.885.027 5.552 1 8z"/><path style="opacity:1" fill="#0083c1" d="M63.5 57.5c1.956 1.648 4.29 2.315 7 2a67.708 67.708 0 0 0 1.5 17c.483-.948.65-1.948.5-3h13c-.009 1.808.491 3.475 1.5 5l1-7c1.754 1.75 3.92 2.417 6.5 2v17c-.961 1.765-1.295 3.765-1 6-2.266.359-4.1-.308-5.5-2-.57 7.872-1.403 7.872-2.5 0h-13c.16 1.7-.007 3.366-.5 5a83.719 83.719 0 0 1-2-14c-1.626.354-3.459.354-5.5 0a223.463 223.463 0 0 1-1-28z"/><path style="opacity:1" fill="#0081c0" d="M104.5 51.5a5765.45 5765.45 0 0 1 2 22c2.102.02 4.268-.313 6.5-1 4.784.643 9.617 1.31 14.5 2l1.5 3 1-6c1.401 1.692 3.234 2.359 5.5 2-.166-7.34 0-14.674.5-22 .5 8.66.666 17.327.5 26-.973 2.448-1.306 5.115-1 8-2.266.359-4.099-.308-5.5-2l-2.5 15c-.929-1.189-1.262-2.522-1-4h-12c.043 4.393-.457 4.726-1.5 1-2.381.935-4.881 1.268-7.5 1 .323-6.19-.01-12.19-1-18v-27z"/><path style="opacity:1" fill="#0187c4" d="M190.5 36.5c.992 7.816 1.326 15.816 1 24v26c-.987 4.805-1.321 9.805-1 15a813.557 813.557 0 0 1-2-11c-1.333-1.333-2.667-1.333-4 0a26.598 26.598 0 0 1-2-3.5 119.318 119.318 0 0 0-26.5.5c-.739-1.074-1.739-1.74-3-2-1.951.66-3.784.993-5.5 1 .318-4.532-.015-8.866-1-13v-28c.986 4.47 1.319 9.137 1 14 1.967.24 3.801-.094 5.5-1a28.04 28.04 0 0 0 1.5 5c9.372.898 18.538.898 27.5 0 1.044 1.123 1.71 2.456 2 4 1.707-.638 3.54-.638 5.5 0-.165 3.35.002 6.683.5 10a60.93 60.93 0 0 0 .5-11v-30z"/><path style="opacity:1" fill="#0186c6" d="M44.5 79.5a32.437 32.437 0 0 1-.5 8 128.384 128.384 0 0 0-27.5-.5c-.837 1.011-1.17 2.178-1 3.5-1.967.24-3.8-.094-5.5-1-.176 4.188-.676 8.188-1.5 12v-23c2.17-1.268 4.337-1.268 6.5 0 1.009-1.525 1.509-3.192 1.5-5h27l1 6z"/><path style="opacity:.993" fill="#005993" d="M7.5 47.5v42c-.934 3.156-1.6 6.49-2 10h-6v-43c2.041-.354 3.874-.354 5.5 0a544.515 544.515 0 0 1 2.5-9z"/><path style="opacity:1" fill="#6fb1d4" d="M145.5 29.5h1v78c-.328 11.845.005 23.512 1 35-.283.789-.783 1.456-1.5 2-.5-38.332-.667-76.665-.5-115z"/><path style="opacity:1" fill="#057fbf" d="M53.5 63.5a841.629 841.629 0 0 1-1 58v-14c.443-5.791.11-9.458-1-11-2.266.359-4.1-.308-5.5-2-.186 2.536-.686 4.869-1.5 7v-3h-28a20.093 20.093 0 0 1-1.5 6l-5-1a50.438 50.438 0 0 0-.5 10h-1v-12c.824-3.812 1.324-7.812 1.5-12 1.7.906 3.533 1.24 5.5 1-.17-1.322.163-2.489 1-3.5 9.245-.817 18.411-.65 27.5.5.497-2.646.664-5.313.5-8 .817-2.469 1.317-5.135 1.5-8 1.4 1.692 3.234 2.359 5.5 2a60.94 60.94 0 0 1 .5-11c.383.556.883.89 1.5 1z"/><path style="opacity:1" fill="#017fc0" d="M190.5 101.5v12h-1a25.879 25.879 0 0 0-1-10 35.193 35.193 0 0 0-4.5 1 24.362 24.362 0 0 1-1.5-10h-26a18.452 18.452 0 0 1-.5 6c-.232-1.237-.732-2.237-1.5-3-2.217-.869-4.55-1.202-7-1v-10c1.716-.007 3.549-.34 5.5-1 1.261.26 2.261.926 3 2a119.318 119.318 0 0 1 26.5-.5 26.598 26.598 0 0 0 2 3.5c1.333-1.333 2.667-1.333 4 0 .667 3.813 1.334 7.48 2 11z"/><path style="opacity:1" fill="#add1e6" d="M61.5 28.5h1v64a702.833 702.833 0 0 0 1 53c-.06.543-.393.876-1 1a3481.99 3481.99 0 0 1-1-118z"/><path style="opacity:1" fill="#0076b8" d="M136.5 77.5v9c-.991 6.813-1.325 13.813-1 21-1.967.239-3.801-.094-5.5-1-.717.544-1.217 1.211-1.5 2-.722.418-1.222 1.084-1.5 2-4.333-1.333-8.667-1.333-13 0l-1-5a72.367 72.367 0 0 0-.5 12c-2.041.354-3.874.354-5.5 0a83.516 83.516 0 0 1-1.5-21c2.619.268 5.119-.065 7.5-1 1.043 3.726 1.543 3.393 1.5-1h12c-.262 1.478.071 2.811 1 4l2.5-15c1.401 1.692 3.234 2.359 5.5 2-.306-2.885.027-5.552 1-8z"/><path style="opacity:1" fill="#007abe" d="M189.5 113.5a18.453 18.453 0 0 1-6-.5c-.837-1.011-1.17-2.178-1-3.5-9.006.166-18.006 0-27-.5-.96-3.73-1.293-7.563-1-11.5.768.763 1.268 1.763 1.5 3 .495-1.973.662-3.973.5-6h26a24.362 24.362 0 0 0 1.5 10 35.193 35.193 0 0 1 4.5-1 25.879 25.879 0 0 1 1 10z"/><path style="opacity:.993" fill="#00568c" d="M191.5 60.5c.631 2.403 1.631 4.736 3 7 1.699-1.315 3.365-1.315 5 0v42c-1.96-.638-3.793-.638-5.5 0a128.384 128.384 0 0 1-2.5-9v-40z"/><path style="opacity:1" fill="#0079be" d="M44.5 101.5v8h-28c.17 1.322-.163 2.489-1 3.5a18.452 18.452 0 0 1-6 .5c-.165-3.35.002-6.683.5-10l5 1a20.093 20.093 0 0 0 1.5-6h28v3z"/><path style="opacity:1" fill="#0075b8" d="M62.5 28.5c.951 1.419 1.285 3.085 1 5v24a223.463 223.463 0 0 0 1 28c2.041.354 3.874.354 5.5 0 .273 4.73.94 9.396 2 14 .493-1.634.66-3.3.5-5h13c1.097 7.872 1.93 7.872 2.5 0 1.4 1.692 3.234 2.359 5.5 2-.295-2.235.039-4.235 1-6v14c-.985 4.134-1.318 8.468-1 13h-7v4c-5.346.069-10.346 1.402-15 4a42.717 42.717 0 0 1-1.5-9c-1.7.906-3.533 1.239-5.5 1a393.987 393.987 0 0 0-2-25v-64z"/><path style="opacity:1" fill="#006ead" d="M52.5 107.5a606.778 606.778 0 0 0-2 15c-2.306 1.271-4.306.938-6-1v-20c.814-2.131 1.314-4.464 1.5-7 1.4 1.692 3.234 2.359 5.5 2 1.11 1.542 1.443 5.209 1 11z"/><path style="opacity:1" fill="#0171b7" d="M146.5 73.5c.985 4.134 1.318 8.468 1 13v10c2.45-.202 4.783.131 7 1-.293 3.937.04 7.77 1 11.5 8.994.5 17.994.666 27 .5-.17 1.322.163 2.489 1 3.5 1.973.495 3.973.662 6 .5h1v12a192.399 192.399 0 0 0-35 2 25.879 25.879 0 0 1-1-10h-7c.313-3.542-.021-6.875-1-10v-34z"/><path style="opacity:.993" fill="#004a79" d="M7.5 89.5v45c-1.42 2.386-2.42 5.053-3 8-1.609-.111-3.275.222-5 1v-44h6c.4-3.51 1.066-6.844 2-10z"/><path style="opacity:1" fill="#0764a7" d="M62.5 92.5a393.987 393.987 0 0 1 2 25c1.967.239 3.8-.094 5.5-1a42.717 42.717 0 0 0 1.5 9c4.654-2.598 9.654-3.931 15-4v-4h7c-.318-4.532.015-8.866 1-13v16c.43 3.362-.57 6.195-3 8.5l-10 1c-7.077 3.91-13.077 9.076-18 15.5a702.833 702.833 0 0 1-1-53z"/><path style="opacity:1" fill="#0564a7" d="M104.5 78.5c.99 5.81 1.323 11.81 1 18a83.516 83.516 0 0 0 1.5 21c1.626.354 3.459.354 5.5 0a16.873 16.873 0 0 0 1 8c4.299-2.447 8.965-3.947 14-4.5.964-4.066 1.297-8.233 1-12.5.283-.789.783-1.456 1.5-2 1.699.906 3.533 1.239 5.5 1-.325-7.187.009-14.187 1-21v34c.43 3.362-.57 6.195-3 8.5a61.981 61.981 0 0 0-13 2c-5.928 3.947-10.928 8.78-15 14.5a1123.002 1123.002 0 0 1-1-67z"/><path style="opacity:1" fill="#0072ba" d="M128.5 108.5c.297 4.267-.036 8.434-1 12.5-5.035.553-9.701 2.053-14 4.5a16.873 16.873 0 0 1-1-8 72.367 72.367 0 0 1 .5-12l1 5c4.333-1.333 8.667-1.333 13 0 .278-.916.778-1.582 1.5-2z"/><path style="opacity:1" fill="#0d66a8" d="M7.5 73.5c.951 1.419 1.284 3.085 1 5v47c10.006.166 20.006 0 30-.5 2.525-.424 4.525-1.59 6-3.5 1.694 1.938 3.694 2.271 6 1a606.778 606.778 0 0 1 2-15v14c-.596 6.103-3.93 9.936-10 11.5a230.545 230.545 0 0 1-35 1.5v-61z"/><path style="opacity:1" fill="#0172ba" d="M44.5 109.5v12c-1.475 1.91-3.475 3.076-6 3.5-9.994.5-19.994.666-30 .5v-12h1a18.452 18.452 0 0 0 6-.5c.837-1.011 1.17-2.178 1-3.5h28z"/><path style="opacity:1" fill="#0764a7" d="M191.5 86.5v48c-10.672-.167-21.339 0-32 .5-5.167.744-9.167 3.244-12 7.5-.995-11.488-1.328-23.155-1-35 .979 3.125 1.313 6.458 1 10h7a25.879 25.879 0 0 0 1 10 192.399 192.399 0 0 1 35-2v-24c-.321-5.195.013-10.195 1-15z"/><path style="opacity:.993" fill="#004673" d="M191.5 100.5a128.384 128.384 0 0 0 2.5 9c1.707-.638 3.54-.638 5.5 0v44c-1.241-2.431-2.408-2.431-3.5 0a11.38 11.38 0 0 1-2.5-2 64.678 64.678 0 0 0-2-7v-44z"/><path style="opacity:1" fill="#075ca0" d="M136.5 136.5c-.003 5.804-.337 11.804-1 18h-6a16.873 16.873 0 0 0-1-8c-3.64 1.975-6.64 4.642-9 8-2.097.497-3.93.83-5.5 1a11.38 11.38 0 0 1-2.5-2c3.524-5.691 8.191-10.191 14-13.5a2.428 2.428 0 0 0-2-.5c4.087-1.564 8.421-2.564 13-3z"/><path style="opacity:1" fill="#02589e" d="M93.5 137.5c1.307 10.273 1.307 20.606 0 31a17.905 17.905 0 0 0-5 1c-.667-7.51-1.333-15.177-2-23-8.291 5.598-13.291 13.265-15 23-2.012.446-4.012-.22-6-2 .985-1.598 1.151-3.265.5-5-.232 1.237-.732 2.237-1.5 3a56.116 56.116 0 0 1 4.5-14L80.5 140a56.28 56.28 0 0 1 13-2.5z"/><path style="opacity:1" fill="#97c5df" d="M103.5 28.5h1v50c-.331 22.506.003 44.84 1 67-.06.543-.393.876-1 1-1-39.328-1.333-78.661-1-118z"/><path style="opacity:1" fill="#055ba0" d="M52.5 137.5c.166 10.672 0 21.339-.5 32-1.113-1.211-2.28-1.211-3.5 0a184.223 184.223 0 0 0-3-2v-18a204.824 204.824 0 0 1-37 2v12c-.991-6.813-1.325-13.813-1-21 11.005.167 22.005 0 33-.5a86.064 86.064 0 0 0 12-4.5z"/><path style="opacity:1" fill="#0c5da1" d="M191.5 142.5v2c.323 6.522-.01 12.855-1 19v-12c-9.339-.166-18.673 0-28 .5a30.233 30.233 0 0 0-3 3.5c-1.765-.961-3.765-1.295-6-1 .384-3.269 1.718-6.103 4-8.5-.228-.399-.562-.565-1-.5 1.342-1.293 3.009-2.126 5-2.5 9.994-.5 19.994-.666 30-.5z"/><path style="opacity:1" fill="#689dc6" d="M52.5 137.5c.06-.543.393-.876 1-1a256.885 256.885 0 0 1 1 32l-2-31z"/><path style="opacity:1" fill="#014c96" d="m52.5 137.5 2 31a9.175 9.175 0 0 0 2 4.5c5.303.686 7.97-1.814 8-7.5.768-.763 1.268-1.763 1.5-3 .651 1.735.485 3.402-.5 5 1.988 1.78 3.988 2.446 6 2-.145 5.117-2.479 8.951-7 11.5-8.788 2.654-14.788-.18-18-8.5a20.676 20.676 0 0 1-1-5c.982.641 1.982 1.307 3 2 1.22-1.211 2.387-1.211 3.5 0 .5-10.661.666-21.328.5-32z"/><path style="opacity:1" fill="#044e97" d="M123.5 139.5a2.428 2.428 0 0 1 2 .5c-5.809 3.309-10.476 7.809-14 13.5a11.38 11.38 0 0 0 2.5 2c1.57-.17 3.403-.503 5.5-1a10.515 10.515 0 0 1-2.5 3 388.483 388.483 0 0 1-4 17c-4.333 6.112-10.166 8.279-17.5 6.5-4.521-2.549-6.855-6.383-7-11.5a17.905 17.905 0 0 1 5-1c1.307-10.394 1.307-20.727 0-31 .06-.543.393-.876 1-1a546.726 546.726 0 0 1 1.5 33c3.675 5.43 7.008 5.096 10-1 .726-12.79 6.559-22.457 17.5-29z"/><path style="opacity:1" fill="#035098" d="M136.5 136.5a538.89 538.89 0 0 1 1.5 33c2.477 4.868 5.477 5.201 9 1a83.776 83.776 0 0 1 5-19c.792-2.606 2.292-4.606 4.5-6 .438-.065.772.101 1 .5-2.282 2.397-3.616 5.231-4 8.5 2.235-.295 4.235.039 6 1a214.308 214.308 0 0 0-4 16c-3.774 9.321-10.44 12.154-20 8.5-2.967-2.1-4.8-4.934-5.5-8.5a145.053 145.053 0 0 1-.5-17h6c.663-6.196.997-12.196 1-18z"/><path style="opacity:.969" fill="#00385b" d="M7.5 134.5v8c-.325 7.187.009 14.187 1 21 3.293 14.129 11.96 23.296 26 27.5l64.5.5c22.881.146 45.715-.354 68.5-1.5 12.568-4.725 20.235-13.558 23-26.5.99-6.145 1.323-12.478 1-19a64.678 64.678 0 0 1 2 7 11.38 11.38 0 0 0 2.5 2c1.092-2.431 2.259-2.431 3.5 0v14c-5 16.333-15.667 27-32 32h-136c-16.333-5-27-15.667-32-32v-24c1.725-.778 3.391-1.111 5-1 .58-2.947 1.58-5.614 3-8z"/><path style="opacity:1" fill="#0056a9" d="M88.5 169.5c.145 5.117 2.479 8.951 7 11.5 7.334 1.779 13.167-.388 17.5-6.5a388.483 388.483 0 0 0 4-17 10.515 10.515 0 0 0 2.5-3c2.36-3.358 5.36-6.025 9-8a16.873 16.873 0 0 1 1 8c-.166 5.676.001 11.343.5 17 .7 3.566 2.533 6.4 5.5 8.5 9.56 3.654 16.226.821 20-8.5 7.587.314 15.087-.019 22.5-1-2.521 5.834-7.021 9.667-13.5 11.5a148.73 148.73 0 0 0-16 1.5c-31.79-.814-63.623-.814-95.5 0a200.41 200.41 0 0 0-19.5-1.5c-5.912-2.256-10.079-6.089-12.5-11.5 8.5.681 17 1.347 25.5 2 3.212 8.32 9.212 11.154 18 8.5 4.521-2.549 6.855-6.383 7-11.5 1.709-9.735 6.709-17.402 15-23 .667 7.823 1.333 15.49 2 23z"/><path style="opacity:1" fill="#0659aa" d="M45.5 167.5a20.676 20.676 0 0 0 1 5c-8.5-.653-17-1.319-25.5-2 2.421 5.411 6.588 9.244 12.5 11.5 6.58.187 13.08.687 19.5 1.5 31.877-.814 63.71-.814 95.5 0a148.73 148.73 0 0 1 16-1.5c6.479-1.833 10.979-5.666 13.5-11.5a130.161 130.161 0 0 1-22.5 1 214.308 214.308 0 0 1 4-16 30.233 30.233 0 0 1 3-3.5c9.327-.5 18.661-.666 28-.5v12c-2.765 12.942-10.432 21.775-23 26.5a1209.736 1209.736 0 0 1-68.5 1.5l-64.5-.5c-14.04-4.204-22.707-13.371-26-27.5v-12c12.42.45 24.753-.217 37-2v18z"/></svg>