<?xml version="1.0" encoding="UTF-8"?>
<!DOCTYPE svg PUBLIC "-//W3C//DTD SVG 1.1//EN" "http://www.w3.org/Graphics/SVG/1.1/DTD/svg11.dtd">
<svg xmlns="http://www.w3.org/2000/svg" version="1.1" width="200px" height="200px" style="shape-rendering:geometricPrecision; text-rendering:geometricPrecision; image-rendering:optimizeQuality; fill-rule:evenodd; clip-rule:evenodd" xmlns:xlink="http://www.w3.org/1999/xlink">
<g><path style="opacity:1" fill="#333333" d="M -0.5,-0.5 C 66.1667,-0.5 132.833,-0.5 199.5,-0.5C 199.5,66.1667 199.5,132.833 199.5,199.5C 132.833,199.5 66.1667,199.5 -0.5,199.5C -0.5,132.833 -0.5,66.1667 -0.5,-0.5 Z"/></g>
<g><path style="opacity:1" fill="#f8f8f8" d="M 22.5,12.5 C 40.5031,12.3334 58.5031,12.5001 76.5,13C 78.286,13.7845 79.786,14.9512 81,16.5C 81.6667,37.1667 81.6667,57.8333 81,78.5C 72.9553,85.5466 64.6219,92.2133 56,98.5C 55.167,115.843 55.3337,133.176 56.5,150.5C 70.7091,158.77 85.0424,166.77 99.5,174.5C 113.958,166.77 128.291,158.77 142.5,150.5C 143.666,133.176 143.833,115.843 143,98.5C 134.378,92.2133 126.045,85.5466 118,78.5C 117.333,57.8333 117.333,37.1667 118,16.5C 119.214,14.9512 120.714,13.7845 122.5,13C 140.5,12.3333 158.5,12.3333 176.5,13C 183.059,17.2451 183.059,21.5784 176.5,26C 161.504,26.4999 146.504,26.6666 131.5,26.5C 131.167,42.1808 131.501,57.8475 132.5,73.5C 140.191,79.6916 148.024,85.6916 156,91.5C 156.667,113.167 156.667,134.833 156,156.5C 138.067,168.889 119.234,179.889 99.5,189.5C 79.766,179.889 60.9327,168.889 43,156.5C 42.3333,134.833 42.3333,113.167 43,91.5C 50.9757,85.6916 58.809,79.6916 66.5,73.5C 67.4994,57.8475 67.8327,42.1808 67.5,26.5C 52.4963,26.6666 37.4963,26.4999 22.5,26C 15.8753,21.4169 15.8753,16.9169 22.5,12.5 Z"/></g>
<g><path style="opacity:1" fill="#57656c" d="M 91.5,19.5 C 99.2836,18.9256 101.284,21.9256 97.5,28.5C 92.9947,30.6765 90.328,29.3431 89.5,24.5C 89.9024,22.6998 90.5691,21.0332 91.5,19.5 Z"/></g>
<g><path style="opacity:1" fill="#6f8690" d="M 99.5,36.5 C 106.488,35.6478 108.822,38.4811 106.5,45C 101.984,47.2444 98.9845,45.9111 97.5,41C 98.4138,39.5936 99.0805,38.0936 99.5,36.5 Z"/></g>
<g><path style="opacity:1" fill="#87a8b7" d="M 96.5,52.5 C 102.572,53.7117 103.905,56.8784 100.5,62C 94.8326,63.3277 92.3326,61.1611 93,55.5C 94.1451,54.3636 95.3117,53.3636 96.5,52.5 Z"/></g>
<g><path style="opacity:1" fill="#9ec8dc" d="M 101.5,69.5 C 108.842,69.2066 110.842,72.2066 107.5,78.5C 102.66,80.7724 99.993,79.2724 99.5,74C 99.5186,72.167 100.185,70.667 101.5,69.5 Z"/></g>
<g><path style="opacity:1" fill="#b1e3fa" d="M 134.5,103.5 C 123.063,110.726 111.396,117.726 99.5,124.5C 87.6041,117.726 75.9375,110.726 64.5,103.5C 75.6529,96.0856 87.3196,89.4189 99.5,83.5C 111.68,89.4189 123.347,96.0856 134.5,103.5 Z"/></g>
<g><path style="opacity:1" fill="#80d3f9" d="M 64.5,103.5 C 75.9375,110.726 87.6041,117.726 99.5,124.5C 111.396,117.726 123.063,110.726 134.5,103.5C 135.661,117.327 135.827,131.327 135,145.5C 123.527,152.806 111.694,159.472 99.5,165.5C 87.331,159.497 75.4976,152.83 64,145.5C 63.1727,131.327 63.3393,117.327 64.5,103.5 Z"/></g>
</svg>
