<?xml version="1.0" encoding="UTF-8"?>
<!DOCTYPE svg PUBLIC "-//W3C//DTD SVG 1.1//EN" "http://www.w3.org/Graphics/SVG/1.1/DTD/svg11.dtd">
<svg xmlns="http://www.w3.org/2000/svg" version="1.1" width="1562px" height="1046px" style="shape-rendering:geometricPrecision; text-rendering:geometricPrecision; image-rendering:optimizeQuality; fill-rule:evenodd; clip-rule:evenodd" xmlns:xlink="http://www.w3.org/1999/xlink">
<g><path style="opacity:1" fill="#fefefe" d="M -0.5,-0.5 C 520.167,-0.5 1040.83,-0.5 1561.5,-0.5C 1561.5,118.5 1561.5,237.5 1561.5,356.5C 1544.04,352.425 1530.04,357.425 1519.5,371.5C 1518.83,366.833 1518.17,362.167 1517.5,357.5C 1511.83,357.5 1506.17,357.5 1500.5,357.5C 1500.17,392.337 1500.5,427.004 1501.5,461.5C 1506.83,461.5 1512.17,461.5 1517.5,461.5C 1517.33,440.497 1517.5,419.497 1518,398.5C 1523.17,373.995 1537.67,365.662 1561.5,373.5C 1561.5,597.5 1561.5,821.5 1561.5,1045.5C 1040.83,1045.5 520.167,1045.5 -0.5,1045.5C -0.5,800.5 -0.5,555.5 -0.5,310.5C 6.16667,310.5 12.8333,310.5 19.5,310.5C 19.5,308.167 19.5,305.833 19.5,303.5C 12.8333,303.5 6.16667,303.5 -0.5,303.5C -0.5,202.167 -0.5,100.833 -0.5,-0.5 Z"/></g>
<g><path style="opacity:1" fill="#101010" d="M 779.5,191.5 C 776.321,190.207 772.988,189.54 769.5,189.5C 769.5,188.833 769.167,188.5 768.5,188.5C 766.494,170.138 762.661,152.138 757,134.5C 746.696,102.419 734.53,71.0858 720.5,40.5C 721.348,38.7172 722.681,38.2172 724.5,39C 737.29,65.3652 748.123,92.5318 757,120.5C 752.477,91.9102 746.477,63.5769 739,35.5C 738.108,32.7163 736.942,30.0496 735.5,27.5C 736.083,25.9984 736.916,24.6651 738,23.5C 740.413,26.0618 742.08,29.0618 743,32.5C 754.947,80.0708 764.781,128.071 772.5,176.5C 773.137,179.456 773.637,182.456 774,185.5C 774.814,180.98 774.647,176.646 773.5,172.5C 771.43,126.094 768.263,79.7604 764,33.5C 762.999,23.6605 761.165,13.9938 758.5,4.5C 760.553,-0.610039 762.387,-0.276706 764,5.5C 766.925,22.4137 769.258,39.4137 771,56.5C 774.705,101.45 777.539,146.45 779.5,191.5 Z"/></g>
<g><path style="opacity:1" fill="#0f0f0f" d="M 785.5,192.5 C 783.901,192.768 782.568,192.434 781.5,191.5C 786.541,162.923 791.041,134.256 795,105.5C 796.558,89.1612 796.725,72.8279 795.5,56.5C 798.86,55.7904 800.693,57.1238 801,60.5C 801.442,84.6397 799.775,108.64 796,132.5C 792.607,152.527 789.107,172.527 785.5,192.5 Z"/></g>
<g><path style="opacity:1" fill="#0f0f0f" d="M 767.5,188.5 C 762.195,187.806 756.862,187.472 751.5,187.5C 751.5,186.833 751.167,186.5 750.5,186.5C 733.411,157.321 714.578,129.321 694,102.5C 690.5,99 687,95.5 683.5,92C 684.076,89.7323 685.41,88.7323 687.5,89C 699.414,101.678 710.247,115.178 720,129.5C 728.942,143.736 738.108,157.736 747.5,171.5C 729.705,137.239 710.372,103.906 689.5,71.5C 690.76,70.6184 691.926,69.6184 693,68.5C 716.93,105.796 739.263,144.13 760,183.5C 750.85,147.366 735.35,114.199 713.5,84C 714.772,81.7391 716.438,81.2391 718.5,82.5C 722.249,87.6622 725.749,92.9956 729,98.5C 727.319,87.7937 723.819,77.627 718.5,68C 719.098,66.6988 720.098,65.8655 721.5,65.5C 730.16,79.9791 735.326,95.6458 737,112.5C 750.018,136.728 760.185,162.061 767.5,188.5 Z"/></g>
<g><path style="opacity:1" fill="#fd7f7f" d="M 619.5,166.5 C 616.206,168.469 612.539,169.635 608.5,170C 602.768,176.017 603.768,181.017 611.5,185C 610.263,185.232 609.263,185.732 608.5,186.5C 607.5,186.5 606.5,186.5 605.5,186.5C 603.473,186.338 601.473,186.505 599.5,187C 594.36,191.738 588.693,195.738 582.5,199C 576.843,199.499 571.176,199.666 565.5,199.5C 566.554,194.893 567.221,190.227 567.5,185.5C 571.44,185.242 575.107,184.076 578.5,182C 585.772,177.726 592.772,173.059 599.5,168C 606.112,166.79 612.778,166.29 619.5,166.5 Z"/></g>
<g><path style="opacity:1" fill="#810606" d="M 619.5,166.5 C 624.167,166.5 628.833,166.5 633.5,166.5C 639.69,169.407 646.023,172.24 652.5,175C 658.831,173.4 664.498,174.734 669.5,179C 671.833,181.333 674.167,183.667 676.5,186C 688.833,187.499 700.833,190.333 712.5,194.5C 721.114,190.765 729.781,190.598 738.5,194C 740.874,196.039 742.874,198.372 744.5,201C 748.863,201.29 753.196,201.79 757.5,202.5C 758.167,202.167 758.833,201.833 759.5,201.5C 756.821,196.806 754.155,192.139 751.5,187.5C 756.862,187.472 762.195,187.806 767.5,188.5C 767.523,190.927 768.023,193.26 769,195.5C 769.495,193.527 769.662,191.527 769.5,189.5C 772.988,189.54 776.321,190.207 779.5,191.5C 780.167,191.5 780.833,191.5 781.5,191.5C 782.568,192.434 783.901,192.768 785.5,192.5C 785.5,192.833 785.5,193.167 785.5,193.5C 780.146,205.696 783.479,214.863 795.5,221C 802.347,225.29 804.181,231.123 801,238.5C 796.5,241.667 792.667,245.5 789.5,250C 792.698,254.026 796.032,257.859 799.5,261.5C 799.5,261.833 799.5,262.167 799.5,262.5C 798.167,263.167 797.167,264.167 796.5,265.5C 796.167,265.5 795.833,265.5 795.5,265.5C 793.552,262.379 791.385,259.379 789,256.5C 790.429,260.047 791.929,263.714 793.5,267.5C 789.678,269.795 785.678,271.795 781.5,273.5C 781.167,273.5 780.833,273.5 780.5,273.5C 779.64,270.089 778.474,266.756 777,263.5C 777.131,267.051 777.965,270.385 779.5,273.5C 779.5,273.833 779.5,274.167 779.5,274.5C 777.847,274.66 776.514,275.326 775.5,276.5C 775.167,276.5 774.833,276.5 774.5,276.5C 773.781,271.407 772.614,266.407 771,261.5C 770.501,267.491 770.334,273.491 770.5,279.5C 770.167,280.167 769.833,280.833 769.5,281.5C 768.167,282.5 766.833,283.5 765.5,284.5C 765.666,277.159 765.5,269.826 765,262.5C 760.199,266.299 755.699,270.466 751.5,275C 742.001,281.251 732.334,287.251 722.5,293C 726.417,292.023 730.417,291.357 734.5,291C 732.257,295.248 729.257,298.914 725.5,302C 729.188,302.45 732.854,302.283 736.5,301.5C 733.457,303.543 731.124,306.21 729.5,309.5C 728.147,310.526 727.147,311.859 726.5,313.5C 724.512,316.128 722.512,318.795 720.5,321.5C 720.5,322.167 720.167,322.5 719.5,322.5C 713.18,323.217 707.18,325.051 701.5,328C 700.718,330.74 700.218,333.574 700,336.5C 694.331,347.169 686.831,356.335 677.5,364C 670.626,367.937 663.626,371.603 656.5,375C 649.232,387.349 640.399,398.516 630,408.5C 627.277,411.557 624.944,414.89 623,418.5C 618.906,429.21 615.906,440.21 614,451.5C 610.775,473.185 607.441,494.852 604,516.5C 600.89,527.502 597.223,538.168 593,548.5C 595.034,546.968 597.201,545.635 599.5,544.5C 599.976,548.826 599.309,553.16 597.5,557.5C 597.833,557.833 598.167,558.167 598.5,558.5C 601.404,556.88 604.404,555.547 607.5,554.5C 606.471,556.517 605.471,558.517 604.5,560.5C 603.833,561.167 603.167,561.833 602.5,562.5C 595.536,567.115 588.536,571.782 581.5,576.5C 580.667,575.5 579.833,574.5 579,573.5C 570.345,589.819 558.512,603.319 543.5,614C 549.927,611.64 556.593,609.64 563.5,608C 566.817,607.502 570.15,607.335 573.5,607.5C 572.925,609.411 571.925,611.078 570.5,612.5C 570.167,612.5 569.833,612.5 569.5,612.5C 561.057,612.924 553.057,615.09 545.5,619C 536.582,618.181 527.916,619.515 519.5,623C 510.173,622.336 500.839,621.669 491.5,621C 485.911,623.599 480.577,626.599 475.5,630C 463.823,634.417 451.823,635.584 439.5,633.5C 436.018,637.782 433.018,642.449 430.5,647.5C 430.167,647.5 429.833,647.5 429.5,647.5C 428.292,646.766 426.959,646.433 425.5,646.5C 425.5,646.167 425.5,645.833 425.5,645.5C 428.392,641.398 431.059,637.065 433.5,632.5C 429.752,628.548 425.085,626.382 419.5,626C 416.588,624.627 413.754,623.127 411,621.5C 408.058,626.406 404.891,631.072 401.5,635.5C 400.5,634.833 399.5,634.167 398.5,633.5C 398.5,633.167 398.5,632.833 398.5,632.5C 401.355,628.138 404.021,623.638 406.5,619C 400.477,611.104 396.477,602.271 394.5,592.5C 388.489,593.11 382.822,592.11 377.5,589.5C 377.483,587.435 377.15,585.435 376.5,583.5C 381.61,586.984 387.277,588.317 393.5,587.5C 392.511,581.541 391.844,575.541 391.5,569.5C 392.793,570.842 393.626,572.509 394,574.5C 395.527,587.813 399.194,600.48 405,612.5C 411.145,620.49 419.312,624.657 429.5,625C 432.704,628.517 436.704,630.517 441.5,631C 447.5,631.667 453.5,631.667 459.5,631C 460.737,630.768 461.737,630.268 462.5,629.5C 465.152,629.59 467.485,628.924 469.5,627.5C 473.461,625.519 477.461,623.519 481.5,621.5C 491.333,617.924 501.333,617.591 511.5,620.5C 514.737,620.322 517.737,619.655 520.5,618.5C 529.628,617.957 537.962,615.124 545.5,610C 552.476,603.868 558.476,597.035 563.5,589.5C 567.779,581.894 572.446,574.561 577.5,567.5C 579.25,566.341 580.25,564.674 580.5,562.5C 592.632,545.11 599.632,525.777 601.5,504.5C 601.5,503.833 601.5,503.167 601.5,502.5C 605.65,481.625 609.816,460.625 614,439.5C 616.504,426.96 621.504,415.626 629,405.5C 637.859,397.315 645.192,387.981 651,377.5C 654.767,373.224 658.934,369.557 663.5,366.5C 668.825,363.503 674.159,360.503 679.5,357.5C 680.239,357.631 680.906,357.464 681.5,357C 689.136,348.702 695.136,339.368 699.5,329C 699.057,327.175 698.723,325.342 698.5,323.5C 703.773,321.576 709.106,319.742 714.5,318C 712.75,316.246 712.083,314.079 712.5,311.5C 724.779,309.143 725.112,307.31 713.5,306C 710.34,312.993 705.34,318.159 698.5,321.5C 698.755,318.984 699.589,316.65 701,314.5C 703.454,312.559 705.287,310.225 706.5,307.5C 707.906,307.027 708.573,306.027 708.5,304.5C 712.249,299.357 716.249,294.357 720.5,289.5C 724.624,285.719 729.291,282.719 734.5,280.5C 745.178,276.824 754.178,270.657 761.5,262C 765.896,259.473 770.229,256.973 774.5,254.5C 776.482,254.005 778.482,253.505 780.5,253C 782.037,251.293 783.704,249.793 785.5,248.5C 790.131,244.37 794.631,240.037 799,235.5C 799.877,233.326 799.377,231.659 797.5,230.5C 794.806,227.14 791.806,224.14 788.5,221.5C 786.467,217.808 783.8,214.808 780.5,212.5C 779.22,211.069 777.553,210.402 775.5,210.5C 770.794,208.625 765.794,207.625 760.5,207.5C 755.537,206.746 750.537,206.413 745.5,206.5C 727.551,200.762 709.218,196.096 690.5,192.5C 686.785,192.577 683.119,192.244 679.5,191.5C 674.175,190.504 668.842,189.504 663.5,188.5C 655.25,186.962 646.917,185.962 638.5,185.5C 635.023,184.677 631.356,184.177 627.5,184C 622.049,180.876 616.883,177.376 612,173.5C 609.812,174.059 609.146,175.393 610,177.5C 613.464,180.805 617.297,183.472 621.5,185.5C 617.143,185.586 612.81,185.92 608.5,186.5C 609.263,185.732 610.263,185.232 611.5,185C 603.768,181.017 602.768,176.017 608.5,170C 612.539,169.635 616.206,168.469 619.5,166.5 Z"/></g>
<g><path style="opacity:1" fill="#fd7e7e" d="M 633.5,166.5 C 654.999,167.854 676.333,170.354 697.5,174C 711.651,177.038 725.651,180.705 739.5,185C 743.114,185.936 746.78,186.436 750.5,186.5C 751.167,186.5 751.5,186.833 751.5,187.5C 754.155,192.139 756.821,196.806 759.5,201.5C 758.833,201.833 758.167,202.167 757.5,202.5C 753.196,201.79 748.863,201.29 744.5,201C 742.874,198.372 740.874,196.039 738.5,194C 729.781,190.598 721.114,190.765 712.5,194.5C 700.833,190.333 688.833,187.499 676.5,186C 674.167,183.667 671.833,181.333 669.5,179C 664.498,174.734 658.831,173.4 652.5,175C 646.023,172.24 639.69,169.407 633.5,166.5 Z"/></g>
<g><path style="opacity:1" fill="#f87878" d="M 620.5,171.5 C 624.514,171.334 628.514,171.501 632.5,172C 638.949,174.391 645.282,177.058 651.5,180C 654.38,180.684 657.213,180.517 660,179.5C 664.855,180.898 668.021,183.565 669.5,187.5C 666.381,184.607 662.714,182.774 658.5,182C 648.82,181.529 639.153,180.862 629.5,180C 625.89,178.056 622.557,175.723 619.5,173C 620.056,172.617 620.389,172.117 620.5,171.5 Z"/></g>
<g><path style="opacity:1" fill="#8c8c8c" d="M 747.5,171.5 C 749.416,172.665 750.249,174.332 750,176.5C 748.628,175.09 747.795,173.423 747.5,171.5 Z"/></g>
<g><path style="opacity:1" fill="#f27272" d="M 638.5,185.5 C 633.5,185.5 628.5,185.5 623.5,185.5C 622.833,185.5 622.167,185.5 621.5,185.5C 617.297,183.472 613.464,180.805 610,177.5C 609.146,175.393 609.812,174.059 612,173.5C 616.883,177.376 622.049,180.876 627.5,184C 631.356,184.177 635.023,184.677 638.5,185.5 Z"/></g>
<g><path style="opacity:1" fill="#0e0b0b" d="M 567.5,185.5 C 565.958,186.301 564.292,186.634 562.5,186.5C 560.611,187.604 558.945,188.937 557.5,190.5C 555.126,191.686 552.792,191.686 550.5,190.5C 551.01,185.831 549.677,184.831 546.5,187.5C 544.973,187.573 543.973,186.906 543.5,185.5C 547.13,181.369 550.963,177.369 555,173.5C 555.333,177.5 555.667,181.5 556,185.5C 559.256,183.121 562.756,181.121 566.5,179.5C 567.466,181.396 567.799,183.396 567.5,185.5 Z"/></g>
<g><path style="opacity:1" fill="#8c8c8c" d="M 773.5,172.5 C 774.647,176.646 774.814,180.98 774,185.5C 773.637,182.456 773.137,179.456 772.5,176.5C 773.434,175.432 773.768,174.099 773.5,172.5 Z"/></g>
<g><path style="opacity:1" fill="#fb7e7e" d="M 542.5,185.5 C 539.841,188.809 537.674,192.476 536,196.5C 532.523,192.178 528.023,190.178 522.5,190.5C 526.993,187.084 531.993,184.417 537.5,182.5C 539.36,183.26 541.027,184.26 542.5,185.5 Z"/></g>
<g><path style="opacity:1" fill="#fefefe" d="M 623.5,185.5 C 628.5,185.5 633.5,185.5 638.5,185.5C 646.917,185.962 655.25,186.962 663.5,188.5C 667.438,191.935 671.271,195.602 675,199.5C 675.944,202.347 675.444,204.847 673.5,207C 675.969,211.258 678.135,210.758 680,205.5C 680.005,200.853 679.838,196.186 679.5,191.5C 683.119,192.244 686.785,192.577 690.5,192.5C 703.095,196.531 715.762,200.698 728.5,205C 734.088,206.289 739.755,206.789 745.5,206.5C 750.537,206.413 755.537,206.746 760.5,207.5C 765.106,209.876 770.106,210.876 775.5,210.5C 777.553,210.402 779.22,211.069 780.5,212.5C 781.792,216.788 784.458,219.788 788.5,221.5C 791.806,224.14 794.806,227.14 797.5,230.5C 797.66,232.199 797.494,233.866 797,235.5C 792.564,239.428 788.731,243.761 785.5,248.5C 783.704,249.793 782.037,251.293 780.5,253C 778.482,253.505 776.482,254.005 774.5,254.5C 771.06,255.091 767.727,256.091 764.5,257.5C 763.679,254.553 763.179,251.553 763,248.5C 762.592,246.59 761.425,245.59 759.5,245.5C 743.791,251.879 735.458,263.545 734.5,280.5C 729.291,282.719 724.624,285.719 720.5,289.5C 718.606,290.048 716.94,291.048 715.5,292.5C 709.37,279.105 699.037,274.272 684.5,278C 676.865,279.804 671.532,284.304 668.5,291.5C 669.154,293.115 669.654,294.782 670,296.5C 670.667,304.833 670.667,313.167 670,321.5C 668.47,326.892 666.137,331.892 663,336.5C 661.686,346.125 665.853,349.625 675.5,347C 686.869,343.643 693.036,336.143 694,324.5C 697.32,328.795 697.32,333.128 694,337.5C 689.335,344.325 684.502,350.991 679.5,357.5C 674.159,360.503 668.825,363.503 663.5,366.5C 658.899,367.801 654.899,370.134 651.5,373.5C 648.333,378.5 645.167,383.5 642,388.5C 633.584,396.912 625.917,405.912 619,415.5C 615.724,424.326 613.058,433.326 611,442.5C 607.341,462.448 604.174,482.448 601.5,502.5C 601.5,503.167 601.5,503.833 601.5,504.5C 597.4,524.735 590.4,544.069 580.5,562.5C 578.75,563.659 577.75,565.326 577.5,567.5C 572.446,574.561 567.779,581.894 563.5,589.5C 557.697,596.135 551.364,602.302 544.5,608C 536.771,612.37 528.771,615.87 520.5,618.5C 509.886,617.012 499.219,616.512 488.5,617C 485.761,618.026 483.428,619.526 481.5,621.5C 477.461,623.519 473.461,625.519 469.5,627.5C 466.848,627.41 464.515,628.076 462.5,629.5C 455.159,629.666 447.826,629.5 440.5,629C 436.096,628.299 432.429,626.299 429.5,623C 415.969,621.477 406.802,614.311 402,601.5C 398.935,589.983 396.602,578.316 395,566.5C 393.786,564.951 392.286,563.785 390.5,563C 384.833,562.667 379.167,562.333 373.5,562C 362.621,542.57 358.454,521.736 361,499.5C 362.471,487.345 364.804,475.345 368,463.5C 373.281,461.343 378.781,460.01 384.5,459.5C 384.477,457.073 383.977,454.74 383,452.5C 378.981,454.046 374.815,455.046 370.5,455.5C 372.494,447.686 374.994,440.019 378,432.5C 388.545,412.078 398.545,391.411 408,370.5C 416.493,357.332 426.493,345.332 438,334.5C 449.585,319.577 461.919,305.244 475,291.5C 480.53,284.437 483.863,276.437 485,267.5C 494.491,246.348 507.991,228.182 525.5,213C 528.837,210.329 532.504,208.163 536.5,206.5C 544.963,214.373 554.297,215.54 564.5,210C 568.558,209.66 572.558,208.993 576.5,208C 585.85,203.328 594.517,197.662 602.5,191C 609.167,190.333 615.833,190.333 622.5,191C 629.679,194.183 633.846,199.683 635,207.5C 638.752,212.462 643.252,216.629 648.5,220C 653.275,221.159 657.608,220.326 661.5,217.5C 662.429,215.678 661.762,214.345 659.5,213.5C 657.393,214.637 655.227,215.637 653,216.5C 646.78,213.616 641.78,209.282 638,203.5C 637.081,199.482 635.414,195.815 633,192.5C 629.932,189.917 626.765,187.584 623.5,185.5 Z"/></g>
<g><path style="opacity:1" fill="#0d0c0c" d="M 663.5,188.5 C 668.842,189.504 674.175,190.504 679.5,191.5C 679.838,196.186 680.005,200.853 680,205.5C 678.135,210.758 675.969,211.258 673.5,207C 675.444,204.847 675.944,202.347 675,199.5C 671.271,195.602 667.438,191.935 663.5,188.5 Z"/></g>
<g><path style="opacity:1" fill="#686464" d="M 520.5,190.5 C 519.833,191.167 519.167,191.833 518.5,192.5C 518.167,192.5 517.833,192.5 517.5,192.5C 517.821,190.952 518.821,190.285 520.5,190.5 Z"/></g>
<g><path style="opacity:1" fill="#e56767" d="M 767.5,188.5 C 767.833,188.5 768.167,188.5 768.5,188.5C 769.167,188.5 769.5,188.833 769.5,189.5C 769.662,191.527 769.495,193.527 769,195.5C 768.023,193.26 767.523,190.927 767.5,188.5 Z"/></g>
<g><path style="opacity:1" fill="#fd7f7e" d="M 517.5,192.5 C 517.833,192.5 518.167,192.5 518.5,192.5C 521.765,196.886 524.265,201.552 526,206.5C 501.06,226.065 484.393,251.065 476,281.5C 473.578,285.344 470.911,289.01 468,292.5C 449.628,312.536 431.628,332.87 414,353.5C 408.751,360.996 403.751,368.663 399,376.5C 395.081,383.096 392.248,390.096 390.5,397.5C 379.176,415.824 370.843,435.491 365.5,456.5C 364.596,457.209 364.263,458.209 364.5,459.5C 357.821,481.265 354.988,503.598 356,526.5C 352.081,520.33 348.414,513.997 345,507.5C 343.951,505.382 342.451,503.716 340.5,502.5C 340.5,502.167 340.5,501.833 340.5,501.5C 342.004,489.816 343.67,478.15 345.5,466.5C 349.833,465.833 354.167,465.167 358.5,464.5C 358.739,462.533 358.406,460.699 357.5,459C 354.174,458.828 350.841,458.995 347.5,459.5C 350.346,445.794 354.512,432.461 360,419.5C 368.52,399.277 378.186,379.61 389,360.5C 397.897,346.732 408.231,334.065 420,322.5C 432.051,306.424 445.051,291.091 459,276.5C 462.485,270.64 464.819,264.307 466,257.5C 477.765,231.567 494.931,209.9 517.5,192.5 Z"/></g>
<g><path style="opacity:1" fill="#fd7e7e" d="M 785.5,193.5 C 789.515,194.591 793.015,196.591 796,199.5C 801.288,206.789 807.288,213.456 814,219.5C 819.152,227.815 819.819,236.482 816,245.5C 810.685,250.981 805.185,256.315 799.5,261.5C 796.032,257.859 792.698,254.026 789.5,250C 792.667,245.5 796.5,241.667 801,238.5C 804.181,231.123 802.347,225.29 795.5,221C 783.479,214.863 780.146,205.696 785.5,193.5 Z"/></g>
<g><path style="opacity:1" fill="#141111" d="M 690.5,192.5 C 709.218,196.096 727.551,200.762 745.5,206.5C 739.755,206.789 734.088,206.289 728.5,205C 715.762,200.698 703.095,196.531 690.5,192.5 Z"/></g>
<g><path style="opacity:1" fill="#393636" d="M 760.5,207.5 C 765.794,207.625 770.794,208.625 775.5,210.5C 770.106,210.876 765.106,209.876 760.5,207.5 Z"/></g>
<g><path style="opacity:1" fill="#181212" d="M 780.5,212.5 C 783.8,214.808 786.467,217.808 788.5,221.5C 784.458,219.788 781.792,216.788 780.5,212.5 Z"/></g>
<g><path style="opacity:1" fill="#251010" d="M 797.5,230.5 C 799.377,231.659 799.877,233.326 799,235.5C 794.631,240.037 790.131,244.37 785.5,248.5C 788.731,243.761 792.564,239.428 797,235.5C 797.494,233.866 797.66,232.199 797.5,230.5 Z"/></g>
<g><path style="opacity:1" fill="#0c0a0a" d="M 774.5,254.5 C 770.229,256.973 765.896,259.473 761.5,262C 754.178,270.657 745.178,276.824 734.5,280.5C 735.458,263.545 743.791,251.879 759.5,245.5C 761.425,245.59 762.592,246.59 763,248.5C 763.179,251.553 763.679,254.553 764.5,257.5C 767.727,256.091 771.06,255.091 774.5,254.5 Z"/></g>
<g><path style="opacity:1" fill="#ea6b6b" d="M 795.5,265.5 C 795.167,266.167 794.833,266.833 794.5,267.5C 794.167,267.5 793.833,267.5 793.5,267.5C 791.929,263.714 790.429,260.047 789,256.5C 791.385,259.379 793.552,262.379 795.5,265.5 Z"/></g>
<g><path style="opacity:1" fill="#fc7d7d" d="M 765.5,284.5 C 765.5,284.833 765.5,285.167 765.5,285.5C 756.484,291.343 747.151,296.676 737.5,301.5C 737.167,301.5 736.833,301.5 736.5,301.5C 732.854,302.283 729.188,302.45 725.5,302C 729.257,298.914 732.257,295.248 734.5,291C 730.417,291.357 726.417,292.023 722.5,293C 732.334,287.251 742.001,281.251 751.5,275C 755.699,270.466 760.199,266.299 765,262.5C 765.5,269.826 765.666,277.159 765.5,284.5 Z"/></g>
<g><path style="opacity:1" fill="#101010" d="M 799.5,262.5 C 809.191,274.705 818.357,287.372 827,300.5C 838.33,320.498 850.164,340.165 862.5,359.5C 861.24,360.382 860.074,361.382 859,362.5C 846.415,342.333 834.082,322 822,301.5C 813.736,289.295 805.236,277.295 796.5,265.5C 797.167,264.167 798.167,263.167 799.5,262.5 Z"/></g>
<g><path style="opacity:1" fill="#f97a7a" d="M 774.5,276.5 C 773.167,277.5 771.833,278.5 770.5,279.5C 770.334,273.491 770.501,267.491 771,261.5C 772.614,266.407 773.781,271.407 774.5,276.5 Z"/></g>
<g><path style="opacity:1" fill="#d85858" d="M 780.5,273.5 C 780.167,273.5 779.833,273.5 779.5,273.5C 777.965,270.385 777.131,267.051 777,263.5C 778.474,266.756 779.64,270.089 780.5,273.5 Z"/></g>
<g><path style="opacity:1" fill="#0f0f0f" d="M 793.5,267.5 C 793.833,267.5 794.167,267.5 794.5,267.5C 804.408,282.976 814.575,298.31 825,313.5C 831.139,324.92 836.306,336.753 840.5,349C 839.404,351.147 837.904,351.647 836,350.5C 828.481,327.73 817.315,307.73 802.5,290.5C 812.126,309.251 820.793,328.418 828.5,348C 827.518,350.009 826.185,350.509 824.5,349.5C 817.608,333.382 810.441,317.382 803,301.5C 811.618,330.034 819.451,358.868 826.5,388C 825.381,389.876 823.714,390.709 821.5,390.5C 814.224,353.376 803.557,317.376 789.5,282.5C 797.685,309.593 803.519,337.26 807,365.5C 807.499,371.157 807.666,376.824 807.5,382.5C 805.833,382.5 804.167,382.5 802.5,382.5C 801.69,353.942 797.19,325.942 789,298.5C 786.388,290.167 783.888,281.834 781.5,273.5C 785.678,271.795 789.678,269.795 793.5,267.5 Z"/></g>
<g><path style="opacity:1" fill="#140e0e" d="M 621.5,185.5 C 622.167,185.5 622.833,185.5 623.5,185.5C 626.765,187.584 629.932,189.917 633,192.5C 635.414,195.815 637.081,199.482 638,203.5C 641.78,209.282 646.78,213.616 653,216.5C 655.227,215.637 657.393,214.637 659.5,213.5C 661.762,214.345 662.429,215.678 661.5,217.5C 657.608,220.326 653.275,221.159 648.5,220C 643.252,216.629 638.752,212.462 635,207.5C 633.846,199.683 629.679,194.183 622.5,191C 615.833,190.333 609.167,190.333 602.5,191C 594.517,197.662 585.85,203.328 576.5,208C 572.558,208.993 568.558,209.66 564.5,210C 554.297,215.54 544.963,214.373 536.5,206.5C 532.504,208.163 528.837,210.329 525.5,213C 507.991,228.182 494.491,246.348 485,267.5C 483.863,276.437 480.53,284.437 475,291.5C 461.919,305.244 449.585,319.577 438,334.5C 426.493,345.332 416.493,357.332 408,370.5C 398.545,391.411 388.545,412.078 378,432.5C 374.994,440.019 372.494,447.686 370.5,455.5C 374.815,455.046 378.981,454.046 383,452.5C 383.977,454.74 384.477,457.073 384.5,459.5C 378.781,460.01 373.281,461.343 368,463.5C 364.804,475.345 362.471,487.345 361,499.5C 358.454,521.736 362.621,542.57 373.5,562C 379.167,562.333 384.833,562.667 390.5,563C 392.286,563.785 393.786,564.951 395,566.5C 396.602,578.316 398.935,589.983 402,601.5C 406.802,614.311 415.969,621.477 429.5,623C 432.429,626.299 436.096,628.299 440.5,629C 447.826,629.5 455.159,629.666 462.5,629.5C 461.737,630.268 460.737,630.768 459.5,631C 453.5,631.667 447.5,631.667 441.5,631C 436.704,630.517 432.704,628.517 429.5,625C 419.312,624.657 411.145,620.49 405,612.5C 399.194,600.48 395.527,587.813 394,574.5C 393.626,572.509 392.793,570.842 391.5,569.5C 391.167,568.5 390.5,567.833 389.5,567.5C 387.779,565.306 385.445,564.139 382.5,564C 379.05,563.825 375.717,563.658 372.5,563.5C 358.376,540.389 354.543,515.722 361,489.5C 362.363,481.05 364.196,472.717 366.5,464.5C 365.826,462.805 365.159,461.138 364.5,459.5C 364.263,458.209 364.596,457.209 365.5,456.5C 366.496,456.586 367.329,456.252 368,455.5C 372.522,438.26 379.189,421.926 388,406.5C 388.849,403.479 389.683,400.479 390.5,397.5C 397.578,383.239 405.744,369.572 415,356.5C 434.293,333.538 453.96,310.871 474,288.5C 479.616,280.325 483.282,271.325 485,261.5C 496.368,237.465 513.368,218.465 536,204.5C 541.012,207.782 546.512,209.782 552.5,210.5C 562.159,207.672 571.826,204.839 581.5,202C 590.416,198.055 598.416,192.888 605.5,186.5C 606.5,186.5 607.5,186.5 608.5,186.5C 612.81,185.92 617.143,185.586 621.5,185.5 Z"/></g>
<g><path style="opacity:1" fill="#0e0e0e" d="M 779.5,274.5 C 786.232,299.786 791.066,325.452 794,351.5C 794.977,368.232 794.477,384.899 792.5,401.5C 791.167,401.5 789.833,401.5 788.5,401.5C 790.877,384.192 791.044,366.859 789,349.5C 785.936,324.878 781.436,300.545 775.5,276.5C 776.514,275.326 777.847,274.66 779.5,274.5 Z"/></g>
<g><path style="opacity:1" fill="#11100f" d="M 720.5,289.5 C 716.249,294.357 712.249,299.357 708.5,304.5C 712.889,290.867 707.889,283.2 693.5,281.5C 685.381,281.145 678.881,284.145 674,290.5C 676.436,304.683 675.769,318.683 672,332.5C 678.945,326.275 686.779,321.442 695.5,318C 699.036,314.296 702.702,310.796 706.5,307.5C 705.287,310.225 703.454,312.559 701,314.5C 699.589,316.65 698.755,318.984 698.5,321.5C 698.5,322.167 698.5,322.833 698.5,323.5C 698.723,325.342 699.057,327.175 699.5,329C 695.136,339.368 689.136,348.702 681.5,357C 680.906,357.464 680.239,357.631 679.5,357.5C 684.502,350.991 689.335,344.325 694,337.5C 697.32,333.128 697.32,328.795 694,324.5C 693.036,336.143 686.869,343.643 675.5,347C 665.853,349.625 661.686,346.125 663,336.5C 666.137,331.892 668.47,326.892 670,321.5C 670.667,313.167 670.667,304.833 670,296.5C 669.654,294.782 669.154,293.115 668.5,291.5C 671.532,284.304 676.865,279.804 684.5,278C 699.037,274.272 709.37,279.105 715.5,292.5C 716.94,291.048 718.606,290.048 720.5,289.5 Z"/></g>
<g><path style="opacity:1" fill="#777777" d="M 789.5,282.5 C 787.569,280.206 786.736,277.539 787,274.5C 788.341,277.022 789.174,279.689 789.5,282.5 Z"/></g>
<g><path style="opacity:1" fill="#fafafa" d="M 708.5,304.5 C 707.094,304.973 706.427,305.973 706.5,307.5C 702.702,310.796 699.036,314.296 695.5,318C 686.779,321.442 678.945,326.275 672,332.5C 675.769,318.683 676.436,304.683 674,290.5C 678.881,284.145 685.381,281.145 693.5,281.5C 707.889,283.2 712.889,290.867 708.5,304.5 Z"/></g>
<g><path style="opacity:1" fill="#0b0b0b" d="M 769.5,281.5 C 769.667,305.502 769.5,329.502 769,353.5C 768.008,370.932 766.174,388.265 763.5,405.5C 761.052,405.99 759.385,405.157 758.5,403C 760.989,389.599 762.823,376.099 764,362.5C 765.16,336.846 765.66,311.179 765.5,285.5C 765.5,285.167 765.5,284.833 765.5,284.5C 766.833,283.5 768.167,282.5 769.5,281.5 Z"/></g>
<g><path style="opacity:1" fill="#020202" d="M 89.5,291.5 C 96.3792,290.195 103.379,290.361 110.5,292C 109.594,293.699 109.261,295.533 109.5,297.5C 107.833,297.5 106.167,297.5 104.5,297.5C 100.03,296.514 95.3633,296.181 90.5,296.5C 90.7845,294.585 90.4511,292.919 89.5,291.5 Z"/></g>
<g><path style="opacity:1" fill="#070707" d="M 72.5,304.5 C 72.5,306.5 72.5,308.5 72.5,310.5C 70.1667,310.5 67.8333,310.5 65.5,310.5C 65.5,311.5 65.5,312.5 65.5,313.5C 63.6749,318.653 62.6749,323.986 62.5,329.5C 60.076,329.808 57.7427,329.474 55.5,328.5C 56.2106,323.09 57.2106,317.756 58.5,312.5C 59.0431,312.44 59.3764,312.107 59.5,311.5C 57.604,310.534 55.604,310.201 53.5,310.5C 53.5,308.5 53.5,306.5 53.5,304.5C 57.5138,304.666 61.5138,304.499 65.5,304C 64.7476,303.329 64.4142,302.496 64.5,301.5C 69.2435,295.917 75.2435,292.75 82.5,292C 83.7596,293.814 83.7596,295.647 82.5,297.5C 78.2061,298.645 74.5394,300.812 71.5,304C 71.7284,304.399 72.0618,304.565 72.5,304.5 Z"/></g>
<g><path style="opacity:1" fill="#080808" d="M 106.5,311.5 C 106.5,309.5 106.5,307.5 106.5,305.5C 108.735,305.795 110.735,305.461 112.5,304.5C 112.93,300.281 114.93,297.448 118.5,296C 121.59,301.663 120.59,306.663 115.5,311C 112.518,311.498 109.518,311.665 106.5,311.5 Z"/></g>
<g><path style="opacity:1" fill="#777777" d="M 89.5,291.5 C 90.4511,292.919 90.7845,294.585 90.5,296.5C 95.3633,296.181 100.03,296.514 104.5,297.5C 99.5,297.5 94.5,297.5 89.5,297.5C 89.5,295.5 89.5,293.5 89.5,291.5 Z"/></g>
<g><path style="opacity:1" fill="#120d0c" d="M 736.5,301.5 C 736.833,301.5 737.167,301.5 737.5,301.5C 738.552,301.351 739.552,301.517 740.5,302C 737.151,305.005 733.484,307.505 729.5,309.5C 731.124,306.21 733.457,303.543 736.5,301.5 Z"/></g>
<g><path style="opacity:1" fill="#e56564" d="M 718.5,299.5 C 719.239,299.369 719.906,299.536 720.5,300C 718.759,301.62 716.925,303.12 715,304.5C 715.112,302.203 716.278,300.536 718.5,299.5 Z"/></g>
<g><path style="opacity:1" fill="#797979" d="M 45.5,310.5 C 45.5,308.5 45.5,306.5 45.5,304.5C 39.1667,304.5 32.8333,304.5 26.5,304.5C 26.5,306.5 26.5,308.5 26.5,310.5C 25.5318,308.393 25.1984,306.059 25.5,303.5C 32.5,303.5 39.5,303.5 46.5,303.5C 46.8016,306.059 46.4682,308.393 45.5,310.5 Z"/></g>
<g><path style="opacity:1" fill="#adadad" d="M 64.5,301.5 C 64.4142,302.496 64.7476,303.329 65.5,304C 61.5138,304.499 57.5138,304.666 53.5,304.5C 53.5,306.5 53.5,308.5 53.5,310.5C 55.604,310.201 57.604,310.534 59.5,311.5C 59.3764,312.107 59.0431,312.44 58.5,312.5C 56.7354,311.539 54.7354,311.205 52.5,311.5C 52.5,308.833 52.5,306.167 52.5,303.5C 56.8274,303.984 60.8274,303.318 64.5,301.5 Z"/></g>
<g><path style="opacity:1" fill="#0f0f0f" d="M -0.5,303.5 C 6.16667,303.5 12.8333,303.5 19.5,303.5C 19.5,305.833 19.5,308.167 19.5,310.5C 12.8333,310.5 6.16667,310.5 -0.5,310.5C -0.5,308.167 -0.5,305.833 -0.5,303.5 Z"/></g>
<g><path style="opacity:1" fill="#000000" d="M 45.5,310.5 C 39.1667,310.5 32.8333,310.5 26.5,310.5C 26.5,308.5 26.5,306.5 26.5,304.5C 32.8333,304.5 39.1667,304.5 45.5,304.5C 45.5,306.5 45.5,308.5 45.5,310.5 Z"/></g>
<g><path style="opacity:1" fill="#0f0f0f" d="M 79.5,304.5 C 86.1667,304.5 92.8333,304.5 99.5,304.5C 99.5,306.833 99.5,309.167 99.5,311.5C 92.8333,311.5 86.1667,311.5 79.5,311.5C 79.5,309.167 79.5,306.833 79.5,304.5 Z"/></g>
<g><path style="opacity:1" fill="#291717" d="M 708.5,304.5 C 708.573,306.027 707.906,307.027 706.5,307.5C 706.427,305.973 707.094,304.973 708.5,304.5 Z"/></g>
<g><path style="opacity:1" fill="#919191" d="M 112.5,304.5 C 110.735,305.461 108.735,305.795 106.5,305.5C 106.5,307.5 106.5,309.5 106.5,311.5C 105.532,309.393 105.198,307.059 105.5,304.5C 107.833,304.5 110.167,304.5 112.5,304.5 Z"/></g>
<g><path style="opacity:1" fill="#818181" d="M 72.5,304.5 C 73.4682,306.607 73.8016,308.941 73.5,311.5C 70.4669,311.132 67.8002,311.798 65.5,313.5C 65.5,312.5 65.5,311.5 65.5,310.5C 67.8333,310.5 70.1667,310.5 72.5,310.5C 72.5,308.5 72.5,306.5 72.5,304.5 Z"/></g>
<g><path style="opacity:1" fill="#f77777" d="M 698.5,323.5 C 698.5,322.833 698.5,322.167 698.5,321.5C 705.34,318.159 710.34,312.993 713.5,306C 725.112,307.31 724.779,309.143 712.5,311.5C 712.083,314.079 712.75,316.246 714.5,318C 709.106,319.742 703.773,321.576 698.5,323.5 Z"/></g>
<g><path style="opacity:1" fill="#0f0a0a" d="M 726.5,313.5 C 727.708,314.234 729.041,314.567 730.5,314.5C 730.5,316.167 730.5,317.833 730.5,319.5C 727.097,319.851 723.763,320.518 720.5,321.5C 722.512,318.795 724.512,316.128 726.5,313.5 Z"/></g>
<g><path style="opacity:1" fill="#090909" d="M 1297.5,317.5 C 1297.17,345.841 1297.5,374.175 1298.5,402.5C 1299.11,402.376 1299.44,402.043 1299.5,401.5C 1315.64,386.865 1331.97,372.365 1348.5,358C 1355.83,357.333 1363.17,357.333 1370.5,358C 1352.33,374.01 1334.33,390.177 1316.5,406.5C 1334.99,424.821 1353.65,442.987 1372.5,461C 1365.17,461.667 1357.83,461.667 1350.5,461C 1333.33,444.5 1316.17,428 1299,411.5C 1298.5,428.163 1298.33,444.83 1298.5,461.5C 1292.5,461.5 1286.5,461.5 1280.5,461.5C 1280.5,413.5 1280.5,365.5 1280.5,317.5C 1286.17,317.5 1291.83,317.5 1297.5,317.5 Z"/></g>
<g><path style="opacity:1" fill="#606060" d="M 1297.5,317.5 C 1298.17,345.5 1298.83,373.5 1299.5,401.5C 1299.44,402.043 1299.11,402.376 1298.5,402.5C 1297.5,374.175 1297.17,345.841 1297.5,317.5 Z"/></g>
<g><path style="opacity:1" fill="#fd7e7e" d="M 719.5,322.5 C 719.376,326.029 719.209,329.695 719,333.5C 712.539,347.962 703.705,360.795 692.5,372C 684.332,377.252 675.999,382.252 667.5,387C 661.244,398.93 653.077,409.43 643,418.5C 640.938,420.901 639.271,423.567 638,426.5C 633.729,438.917 630.396,451.584 628,464.5C 624.999,483.839 621.999,503.172 619,522.5C 616.049,533.522 612.216,544.189 607.5,554.5C 604.404,555.547 601.404,556.88 598.5,558.5C 598.167,558.167 597.833,557.833 597.5,557.5C 599.309,553.16 599.976,548.826 599.5,544.5C 597.201,545.635 595.034,546.968 593,548.5C 597.223,538.168 600.89,527.502 604,516.5C 607.441,494.852 610.775,473.185 614,451.5C 615.906,440.21 618.906,429.21 623,418.5C 624.944,414.89 627.277,411.557 630,408.5C 640.399,398.516 649.232,387.349 656.5,375C 663.626,371.603 670.626,367.937 677.5,364C 686.831,356.335 694.331,347.169 700,336.5C 700.218,333.574 700.718,330.74 701.5,328C 707.18,325.051 713.18,323.217 719.5,322.5 Z"/></g>
<g><path style="opacity:1" fill="#0e0e0e" d="M 213.5,323.5 C 221.628,323.292 225.962,327.292 226.5,335.5C 224.167,335.5 221.833,335.5 219.5,335.5C 218.931,330.382 216.598,329.382 212.5,332.5C 207.147,328.992 207.481,325.992 213.5,323.5 Z"/></g>
<g><path style="opacity:1" fill="#000000" d="M 991.5,338.5 C 975.167,338.5 958.833,338.5 942.5,338.5C 942.5,379.5 942.5,420.5 942.5,461.5C 936.5,461.5 930.5,461.5 924.5,461.5C 924.5,420.5 924.5,379.5 924.5,338.5C 907.833,338.5 891.167,338.5 874.5,338.5C 874.5,333.5 874.5,328.5 874.5,323.5C 913.5,323.5 952.5,323.5 991.5,323.5C 991.5,328.5 991.5,333.5 991.5,338.5 Z"/></g>
<g><path style="opacity:1" fill="#800607" d="M 542.5,185.5 C 542.833,185.5 543.167,185.5 543.5,185.5C 543.973,186.906 544.973,187.573 546.5,187.5C 546.5,187.833 546.5,188.167 546.5,188.5C 536.741,198.981 538.741,205.981 552.5,209.5C 555.599,209.357 557.432,207.69 558,204.5C 560.707,198.798 562.207,192.798 562.5,186.5C 564.292,186.634 565.958,186.301 567.5,185.5C 567.221,190.227 566.554,194.893 565.5,199.5C 571.176,199.666 576.843,199.499 582.5,199C 588.693,195.738 594.36,191.738 599.5,187C 601.473,186.505 603.473,186.338 605.5,186.5C 598.416,192.888 590.416,198.055 581.5,202C 571.826,204.839 562.159,207.672 552.5,210.5C 546.512,209.782 541.012,207.782 536,204.5C 513.368,218.465 496.368,237.465 485,261.5C 483.282,271.325 479.616,280.325 474,288.5C 453.96,310.871 434.293,333.538 415,356.5C 405.744,369.572 397.578,383.239 390.5,397.5C 392.248,390.096 395.081,383.096 399,376.5C 403.751,368.663 408.751,360.996 414,353.5C 431.628,332.87 449.628,312.536 468,292.5C 470.911,289.01 473.578,285.344 476,281.5C 484.393,251.065 501.06,226.065 526,206.5C 524.265,201.552 521.765,196.886 518.5,192.5C 519.167,191.833 519.833,191.167 520.5,190.5C 521.167,190.5 521.833,190.5 522.5,190.5C 528.023,190.178 532.523,192.178 536,196.5C 537.674,192.476 539.841,188.809 542.5,185.5 Z"/></g>
<g><path style="opacity:1" fill="#f17171" d="M 526.5,195.5 C 530.76,196.556 532.76,199.056 532.5,203C 531.551,203.617 530.718,203.451 530,202.5C 528.807,200.114 527.64,197.78 526.5,195.5 Z"/></g>
<g><path style="opacity:1" fill="#f87878" d="M 562.5,186.5 C 562.207,192.798 560.707,198.798 558,204.5C 557.432,207.69 555.599,209.357 552.5,209.5C 538.741,205.981 536.741,198.981 546.5,188.5C 547.833,189.167 549.167,189.833 550.5,190.5C 550.058,194.154 549.724,197.821 549.5,201.5C 551.167,201.5 552.833,201.5 554.5,201.5C 554.489,197.536 555.489,193.869 557.5,190.5C 558.945,188.937 560.611,187.604 562.5,186.5 Z"/></g>
<g><path style="opacity:1" fill="#850707" d="M 550.5,190.5 C 552.792,191.686 555.126,191.686 557.5,190.5C 555.489,193.869 554.489,197.536 554.5,201.5C 552.833,201.5 551.167,201.5 549.5,201.5C 549.724,197.821 550.058,194.154 550.5,190.5 Z"/></g>
<g><path style="opacity:1" fill="#eee7e7" d="M 550.5,190.5 C 549.167,189.833 547.833,189.167 546.5,188.5C 546.5,188.167 546.5,187.833 546.5,187.5C 549.677,184.831 551.01,185.831 550.5,190.5 Z"/></g>
<g><path style="opacity:1" fill="#f1f1f1" d="M 687.5,326.5 C 689.225,326.843 689.725,327.843 689,329.5C 684.715,338.888 677.549,342.888 667.5,341.5C 674.554,336.978 681.221,331.978 687.5,326.5 Z"/></g>
<g><path style="opacity:1" fill="#121212" d="M 137.5,331.5 C 143.509,331.334 149.509,331.501 155.5,332C 157.25,333.754 157.917,335.921 157.5,338.5C 150.833,338.5 144.167,338.5 137.5,338.5C 137.5,336.167 137.5,333.833 137.5,331.5 Z"/></g>
<g><path style="opacity:1" fill="#0d0d0d" d="M 126.5,333.5 C 127.833,333.5 129.167,333.5 130.5,333.5C 131.231,335.599 131.231,337.599 130.5,339.5C 125.214,341.141 120.547,343.808 116.5,347.5C 114.684,346.185 113.017,344.685 111.5,343C 116.16,339.149 121.16,335.982 126.5,333.5 Z"/></g>
<g><path style="opacity:1" fill="#101010" d="M 201.5,333.5 C 204.168,333.834 206.168,335.167 207.5,337.5C 202.857,342.131 198.69,347.131 195,352.5C 193.365,351.274 191.865,349.941 190.5,348.5C 193.805,343.201 197.472,338.201 201.5,333.5 Z"/></g>
<g><path style="opacity:1" fill="#121212" d="M 164.5,334.5 C 171.327,336.502 177.161,340.168 182,345.5C 181.715,348.742 179.882,350.242 176.5,350C 173.185,345.682 169.019,342.515 164,340.5C 163.82,338.512 163.986,336.512 164.5,334.5 Z"/></g>
<g><path style="opacity:1" fill="#0d0d0d" d="M 54.5,336.5 C 56.8333,336.5 59.1667,336.5 61.5,336.5C 61.5,343.167 61.5,349.833 61.5,356.5C 59.1667,356.5 56.8333,356.5 54.5,356.5C 54.5,349.833 54.5,343.167 54.5,336.5 Z"/></g>
<g><path style="opacity:1" fill="#101010" d="M 262.5,336.5 C 269.987,336.621 276.987,338.455 283.5,342C 282.458,343.918 281.292,345.751 280,347.5C 274.634,344.213 268.8,342.88 262.5,343.5C 262.5,341.167 262.5,338.833 262.5,336.5 Z"/></g>
<g><path style="opacity:1" fill="#0a0a0a" d="M 251.5,338.5 C 252.833,338.5 254.167,338.5 255.5,338.5C 256.231,340.599 256.231,342.599 255.5,344.5C 250.574,346.763 246.574,350.096 243.5,354.5C 241.668,353.752 240.001,352.752 238.5,351.5C 241.882,346.118 246.215,341.785 251.5,338.5 Z"/></g>
<g><path style="opacity:1" fill="#5a5a5a" d="M 874.5,338.5 C 891.167,338.5 907.833,338.5 924.5,338.5C 924.5,379.5 924.5,420.5 924.5,461.5C 923.501,421.003 923.168,380.337 923.5,339.5C 906.991,339.83 890.658,339.496 874.5,338.5 Z"/></g>
<g><path style="opacity:1" fill="#cfcfcf" d="M 991.5,338.5 C 975.675,339.496 959.675,339.83 943.5,339.5C 943.832,380.337 943.499,421.003 942.5,461.5C 942.5,420.5 942.5,379.5 942.5,338.5C 958.833,338.5 975.167,338.5 991.5,338.5 Z"/></g>
<g><path style="opacity:1" fill="#111111" d="M 139.5,340.5 C 142.187,340.336 144.854,340.503 147.5,341C 147.986,343.027 147.986,345.193 147.5,347.5C 141.701,346.651 137.201,348.651 134,353.5C 132.107,352.804 130.274,351.97 128.5,351C 131.404,346.593 135.071,343.093 139.5,340.5 Z"/></g>
<g><path style="opacity:1" fill="#020202" d="M 220.5,342.5 C 222.5,342.5 224.5,342.5 226.5,342.5C 226.5,349.167 226.5,355.833 226.5,362.5C 224.5,362.5 222.5,362.5 220.5,362.5C 220.5,355.833 220.5,349.167 220.5,342.5 Z"/></g>
<g><path style="opacity:1" fill="#101010" d="M 154.5,343.5 C 161.971,344.401 168.637,347.234 174.5,352C 173.257,353.154 172.257,354.488 171.5,356C 168.839,356.062 166.505,355.062 164.5,353C 161.595,351.714 158.595,350.714 155.5,350C 154.577,347.959 154.244,345.792 154.5,343.5 Z"/></g>
<g><path style="opacity:1" fill="#111111" d="M 288.5,345.5 C 295.677,349.705 299.677,356.038 300.5,364.5C 298.738,364.357 297.071,364.691 295.5,365.5C 293.428,361.455 291.262,357.455 289,353.5C 288,352.833 287,352.167 286,351.5C 286.483,349.463 287.316,347.463 288.5,345.5 Z"/></g>
<g><path style="opacity:1" fill="#0e0e0e" d="M 106.5,349.5 C 108.609,350.391 110.609,351.558 112.5,353C 109.428,357.711 107.428,362.878 106.5,368.5C 104.604,369.466 102.604,369.799 100.5,369.5C 100.684,362.282 102.684,355.616 106.5,349.5 Z"/></g>
<g><path style="opacity:1" fill="#0a0a0a" d="M 184.5,353.5 C 186.905,354.687 189.239,356.187 191.5,358C 190.941,358.725 190.608,359.558 190.5,360.5C 191.376,364.882 192.376,369.215 193.5,373.5C 191.167,373.5 188.833,373.5 186.5,373.5C 186.477,371.073 185.977,368.74 185,366.5C 184.333,367.167 183.667,367.833 183,368.5C 182.501,372.152 182.335,375.818 182.5,379.5C 180.5,379.5 178.5,379.5 176.5,379.5C 177.077,374.919 176.077,370.752 173.5,367C 175.669,365.672 176.002,364.006 174.5,362C 175.697,360.48 177.197,359.313 179,358.5C 181.793,360.886 182.626,360.219 181.5,356.5C 182.34,355.265 183.34,354.265 184.5,353.5 Z"/></g>
<g><path style="opacity:1" fill="#fe8b8b" d="M 505.5,412.5 C 506.815,411.524 508.148,410.524 509.5,409.5C 508.333,407.833 507.167,406.167 506,404.5C 504.67,405.582 503.17,406.249 501.5,406.5C 493.535,386.561 498.535,370.727 516.5,359C 533.295,351.989 548.128,354.822 561,367.5C 573.882,386.779 571.715,404.279 554.5,420C 535.906,430.823 519.573,428.323 505.5,412.5 Z"/></g>
<g><path style="opacity:1" fill="#020202" d="M 1041.5,356.5 C 1041.82,362.026 1041.49,367.36 1040.5,372.5C 1022.55,366.638 1009.39,371.971 1001,388.5C 1000.08,391.101 999.413,393.768 999,396.5C 998.5,418.164 998.333,439.831 998.5,461.5C 992.833,461.5 987.167,461.5 981.5,461.5C 981.5,426.833 981.5,392.167 981.5,357.5C 987.167,357.5 992.833,357.5 998.5,357.5C 998.334,362.844 998.501,368.177 999,373.5C 1004.35,364.401 1012.18,358.567 1022.5,356C 1029.01,355.18 1035.35,355.347 1041.5,356.5 Z"/></g>
<g><path style="opacity:1" fill="#040404" d="M 1087.5,355.5 C 1101.91,353.604 1115.24,356.437 1127.5,364C 1135.02,370.861 1139.52,379.361 1141,389.5C 1141.5,413.498 1141.67,437.498 1141.5,461.5C 1135.83,461.5 1130.17,461.5 1124.5,461.5C 1124.67,456.489 1124.5,451.489 1124,446.5C 1115.48,459.095 1103.48,465.095 1088,464.5C 1062.58,462.057 1051.58,448.057 1055,422.5C 1057.53,411.627 1064.03,404.127 1074.5,400C 1078.99,398.189 1083.65,397.189 1088.5,397C 1100.5,396.5 1112.5,396.333 1124.5,396.5C 1124.71,381.534 1117.38,372.701 1102.5,370C 1088.41,368.451 1075.08,370.951 1062.5,377.5C 1061.2,372.281 1061.2,367.114 1062.5,362C 1070.82,359.244 1079.15,357.078 1087.5,355.5 Z"/></g>
<g><path style="opacity:1" fill="#050505" d="M 1251.5,361.5 C 1251.82,366.695 1251.49,371.695 1250.5,376.5C 1239.51,370.803 1227.85,368.637 1215.5,370C 1202.97,372.865 1194.47,380.365 1190,392.5C 1185.3,409.292 1187.63,424.959 1197,439.5C 1203.76,446.711 1212.09,450.044 1222,449.5C 1227.21,449.39 1232.37,448.89 1237.5,448C 1242.5,446.058 1247.5,444.224 1252.5,442.5C 1252.67,447.511 1252.5,452.511 1252,457.5C 1230.67,467.572 1209.83,466.738 1189.5,455C 1175.75,442.817 1169.41,427.483 1170.5,409C 1170.52,375.485 1187.18,357.652 1220.5,355.5C 1231.26,355.453 1241.6,357.453 1251.5,361.5 Z"/></g>
<g><path style="opacity:1" fill="#040404" d="M 1416.5,355.5 C 1456.92,353.587 1475.92,372.92 1473.5,413.5C 1447.5,413.5 1421.5,413.5 1395.5,413.5C 1398.26,442.066 1413.93,453.899 1442.5,449C 1451.79,447.569 1460.63,444.735 1469,440.5C 1469.83,445.864 1469.66,451.198 1468.5,456.5C 1449.34,465.14 1429.68,466.64 1409.5,461C 1389.82,453.148 1379.32,438.648 1378,417.5C 1374.44,386.222 1387.28,365.555 1416.5,355.5 Z"/></g>
<g><path style="opacity:1" fill="#010101" d="M 1561.5,356.5 C 1561.5,362.167 1561.5,367.833 1561.5,373.5C 1537.67,365.662 1523.17,373.995 1518,398.5C 1517.5,419.497 1517.33,440.497 1517.5,461.5C 1512.17,461.5 1506.83,461.5 1501.5,461.5C 1501.5,427.167 1501.5,392.833 1501.5,358.5C 1506.83,358.5 1512.17,358.5 1517.5,358.5C 1517.33,363.511 1517.5,368.511 1518,373.5C 1518.72,372.956 1519.22,372.289 1519.5,371.5C 1530.04,357.425 1544.04,352.425 1561.5,356.5 Z"/></g>
<g><path style="opacity:1" fill="#6d6d6d" d="M 127.5,359.5 C 129.607,358.532 131.941,358.198 134.5,358.5C 134.5,359.5 134.5,360.5 134.5,361.5C 132.544,359.852 130.211,359.185 127.5,359.5 Z"/></g>
<g><path style="opacity:1" fill="#262626" d="M 1517.5,357.5 C 1517.5,357.833 1517.5,358.167 1517.5,358.5C 1512.17,358.5 1506.83,358.5 1501.5,358.5C 1501.5,392.833 1501.5,427.167 1501.5,461.5C 1500.5,427.004 1500.17,392.337 1500.5,357.5C 1506.17,357.5 1511.83,357.5 1517.5,357.5 Z"/></g>
<g><path style="opacity:1" fill="#ababab" d="M 1517.5,357.5 C 1518.17,362.167 1518.83,366.833 1519.5,371.5C 1519.22,372.289 1518.72,372.956 1518,373.5C 1517.5,368.511 1517.33,363.511 1517.5,358.5C 1517.5,358.167 1517.5,357.833 1517.5,357.5 Z"/></g>
<g><path style="opacity:1" fill="#080808" d="M 127.5,359.5 C 130.211,359.185 132.544,359.852 134.5,361.5C 135.694,365.532 138.194,368.532 142,370.5C 142.533,376.796 140.366,377.963 135.5,374C 130.342,370.515 127.675,365.682 127.5,359.5 Z"/></g>
<g><path style="opacity:1" fill="#0f0f0f" d="M 235.5,358.5 C 237.68,359.117 239.68,360.117 241.5,361.5C 239.217,367.298 237.884,373.298 237.5,379.5C 234.941,379.61 232.608,378.944 230.5,377.5C 231.703,371.02 233.37,364.687 235.5,358.5 Z"/></g>
<g><path style="opacity:1" fill="#666666" d="M 1251.5,361.5 C 1252.81,366.68 1252.81,372.014 1251.5,377.5C 1250.89,377.376 1250.56,377.043 1250.5,376.5C 1251.49,371.695 1251.82,366.695 1251.5,361.5 Z"/></g>
<g><path style="opacity:1" fill="#020202" d="M 55.5,363.5 C 57.5,363.5 59.5,363.5 61.5,363.5C 61.5,369.833 61.5,376.167 61.5,382.5C 59.5,382.5 57.5,382.5 55.5,382.5C 55.5,376.167 55.5,369.833 55.5,363.5 Z"/></g>
<g><path style="opacity:1" fill="#606060" d="M 1041.5,356.5 C 1042.82,362.013 1042.82,367.68 1041.5,373.5C 1040.89,373.376 1040.56,373.043 1040.5,372.5C 1041.49,367.36 1041.82,362.026 1041.5,356.5 Z"/></g>
<g><path style="opacity:1" fill="#121212" d="M 165.5,368.5 C 166.496,368.414 167.329,368.748 168,369.5C 168.813,371.436 169.313,373.436 169.5,375.5C 162.602,377.082 155.602,377.749 148.5,377.5C 148.5,375.5 148.5,373.5 148.5,371.5C 154.537,371.874 160.203,370.874 165.5,368.5 Z"/></g>
<g><path style="opacity:1" fill="#000000" d="M 226.5,369.5 C 226.5,375.833 226.5,382.167 226.5,388.5C 224.5,388.5 222.5,388.5 220.5,388.5C 220.5,382.167 220.5,375.833 220.5,369.5C 222.5,369.5 224.5,369.5 226.5,369.5 Z"/></g>
<g><path style="opacity:1" fill="#fbfbfb" d="M 1421.5,369.5 C 1443.53,368.199 1455.2,378.533 1456.5,400.5C 1436.17,400.5 1415.83,400.5 1395.5,400.5C 1397,384.014 1405.66,373.681 1421.5,369.5 Z"/></g>
<g><path style="opacity:1" fill="#0e0e0e" d="M 301.5,370.5 C 304.164,376.79 305.831,383.456 306.5,390.5C 304.194,390.993 301.861,391.326 299.5,391.5C 299.276,384.712 298.276,378.045 296.5,371.5C 298.415,371.784 300.081,371.451 301.5,370.5 Z"/></g>
<g><path style="opacity:1" fill="#161616" d="M 98.5,376.5 C 100.833,376.5 103.167,376.5 105.5,376.5C 105.5,383.167 105.5,389.833 105.5,396.5C 103.167,396.5 100.833,396.5 98.5,396.5C 98.5,389.833 98.5,383.167 98.5,376.5 Z"/></g>
<g><path style="opacity:1" fill="#626262" d="M 55.5,363.5 C 55.5,369.833 55.5,376.167 55.5,382.5C 57.5,382.5 59.5,382.5 61.5,382.5C 59.3926,383.468 57.0593,383.802 54.5,383.5C 54.176,376.646 54.5093,369.979 55.5,363.5 Z"/></g>
<g><path style="opacity:1" fill="#030303" d="M 187.5,380.5 C 189.5,380.5 191.5,380.5 193.5,380.5C 193.664,387.202 193.331,393.869 192.5,400.5C 190.5,400.167 188.5,399.833 186.5,399.5C 187.26,393.196 187.593,386.863 187.5,380.5 Z"/></g>
<g><path style="opacity:1" fill="#737373" d="M 226.5,369.5 C 224.5,369.5 222.5,369.5 220.5,369.5C 220.5,375.833 220.5,382.167 220.5,388.5C 222.5,388.5 224.5,388.5 226.5,388.5C 224.393,389.468 222.059,389.802 219.5,389.5C 219.5,382.5 219.5,375.5 219.5,368.5C 222.059,368.198 224.393,368.532 226.5,369.5 Z"/></g>
<g><path style="opacity:1" fill="#070707" d="M 229.5,385.5 C 231.833,385.5 234.167,385.5 236.5,385.5C 235.62,392.123 235.287,398.789 235.5,405.5C 233.5,405.5 231.5,405.5 229.5,405.5C 229.5,398.833 229.5,392.167 229.5,385.5 Z"/></g>
<g><path style="opacity:1" fill="#050505" d="M 176.5,386.5 C 178.5,386.5 180.5,386.5 182.5,386.5C 182.5,390.167 182.5,393.833 182.5,397.5C 182.492,400.545 182.159,403.545 181.5,406.5C 179.5,406.167 177.5,405.833 175.5,405.5C 176.26,399.196 176.593,392.863 176.5,386.5 Z"/></g>
<g><path style="opacity:1" fill="#5a5a5a" d="M 176.5,386.5 C 178.607,385.532 180.941,385.198 183.5,385.5C 183.817,389.702 183.483,393.702 182.5,397.5C 182.5,393.833 182.5,390.167 182.5,386.5C 180.5,386.5 178.5,386.5 176.5,386.5 Z"/></g>
<g><path style="opacity:1" fill="#0c0605" d="M 525.5,389.5 C 528.323,390.148 529.823,391.814 530,394.5C 527.131,397.704 523.965,400.537 520.5,403C 518.788,404.751 516.788,405.418 514.5,405C 513.743,403.488 512.743,402.154 511.5,401C 516.647,397.68 521.314,393.847 525.5,389.5 Z"/></g>
<g><path style="opacity:1" fill="#141414" d="M 55.5,389.5 C 57.8333,389.5 60.1667,389.5 62.5,389.5C 62.5,396.167 62.5,402.833 62.5,409.5C 60.1667,409.5 57.8333,409.5 55.5,409.5C 55.5,402.833 55.5,396.167 55.5,389.5 Z"/></g>
<g><path style="opacity:1" fill="#101010" d="M 219.5,395.5 C 221.833,395.5 224.167,395.5 226.5,395.5C 226.5,402.167 226.5,408.833 226.5,415.5C 224.167,415.5 221.833,415.5 219.5,415.5C 219.5,408.833 219.5,402.167 219.5,395.5 Z"/></g>
<g><path style="opacity:1" fill="#0b0b0b" d="M 300.5,397.5 C 302.5,397.5 304.5,397.5 306.5,397.5C 306.533,405.071 304.2,411.738 299.5,417.5C 297.503,417.014 296.169,415.847 295.5,414C 297.715,408.636 299.381,403.136 300.5,397.5 Z"/></g>
<g><path style="opacity:1" fill="#0e0e0e" d="M 102.5,402.5 C 104.167,402.5 105.833,402.5 107.5,402.5C 108.21,408.461 110.21,413.961 113.5,419C 108.476,424.066 105.31,422.899 104,415.5C 102.731,411.859 101.564,408.192 100.5,404.5C 101.243,403.818 101.909,403.151 102.5,402.5 Z"/></g>
<g><path style="opacity:1" fill="#0e0b0b" d="M 505.5,412.5 C 501.353,415.075 497.02,417.409 492.5,419.5C 490.789,417.76 489.956,415.76 490,413.5C 494.147,411.518 497.98,409.184 501.5,406.5C 503.17,406.249 504.67,405.582 506,404.5C 507.167,406.167 508.333,407.833 509.5,409.5C 508.148,410.524 506.815,411.524 505.5,412.5 Z"/></g>
<g><path style="opacity:1" fill="#0e0e0e" d="M 184.5,406.5 C 186.5,406.5 188.5,406.5 190.5,406.5C 189.754,413.739 187.421,420.406 183.5,426.5C 181.246,425.876 179.579,424.543 178.5,422.5C 181.101,417.36 183.101,412.026 184.5,406.5 Z"/></g>
<g><path style="opacity:1" fill="#191414" d="M 663.5,366.5 C 658.934,369.557 654.767,373.224 651,377.5C 645.192,387.981 637.859,397.315 629,405.5C 621.504,415.626 616.504,426.96 614,439.5C 609.816,460.625 605.65,481.625 601.5,502.5C 604.174,482.448 607.341,462.448 611,442.5C 613.058,433.326 615.724,424.326 619,415.5C 625.917,405.912 633.584,396.912 642,388.5C 645.167,383.5 648.333,378.5 651.5,373.5C 654.899,370.134 658.899,367.801 663.5,366.5 Z"/></g>
<g><path style="opacity:1" fill="#fcfcfc" d="M 1091.5,409.5 C 1102.5,409.5 1113.5,409.5 1124.5,409.5C 1126.22,425.574 1120.55,438.074 1107.5,447C 1097.58,450.651 1087.92,450.317 1078.5,446C 1071.86,439.544 1069.69,431.71 1072,422.5C 1073.78,418.388 1076.61,415.222 1080.5,413C 1084.25,411.691 1087.92,410.525 1091.5,409.5 Z"/></g>
<g><path style="opacity:1" fill="#0f0f0f" d="M 172.5,411.5 C 175.061,411.447 177.061,412.447 178.5,414.5C 175.608,420.885 171.441,426.218 166,430.5C 164.833,428.833 163.667,427.167 162.5,425.5C 166.825,421.508 170.158,416.842 172.5,411.5 Z"/></g>
<g><path style="opacity:1" fill="#151515" d="M 229.5,412.5 C 231.833,412.5 234.167,412.5 236.5,412.5C 236.5,419.167 236.5,425.833 236.5,432.5C 234.167,432.5 231.833,432.5 229.5,432.5C 229.5,425.833 229.5,419.167 229.5,412.5 Z"/></g>
<g><path style="opacity:1" fill="#0f0f0f" d="M 55.5,416.5 C 57.8333,416.5 60.1667,416.5 62.5,416.5C 62.5,423.167 62.5,429.833 62.5,436.5C 60.1667,436.5 57.8333,436.5 55.5,436.5C 55.5,429.833 55.5,423.167 55.5,416.5 Z"/></g>
<g><path style="opacity:1" fill="#0d0d0d" d="M 480.5,417.5 C 483.656,417.529 485.322,419.196 485.5,422.5C 479.762,426.571 473.595,428.904 467,429.5C 465.599,427.854 465.432,426.187 466.5,424.5C 471.507,422.663 476.173,420.33 480.5,417.5 Z"/></g>
<g><path style="opacity:1" fill="#0b0b0b" d="M 238.5,418.5 C 240.527,418.338 242.527,418.505 244.5,419C 245.79,421.292 247.457,423.292 249.5,425C 247.983,426.685 246.316,428.185 244.5,429.5C 242.629,428.233 240.796,428.233 239,429.5C 237.679,425.796 237.513,422.129 238.5,418.5 Z"/></g>
<g><path style="opacity:1" fill="#0b0b0b" d="M 290.5,420.5 C 292.609,421.391 294.609,422.558 296.5,424C 293.5,427 290.5,430 287.5,433C 284.691,434.741 281.691,435.908 278.5,436.5C 277.769,434.401 277.769,432.401 278.5,430.5C 283.421,428.244 287.421,424.91 290.5,420.5 Z"/></g>
<g><path style="opacity:1" fill="#0d0d0d" d="M 219.5,422.5 C 221.833,422.5 224.167,422.5 226.5,422.5C 226.5,429.167 226.5,435.833 226.5,442.5C 224.167,442.5 221.833,442.5 219.5,442.5C 219.5,435.833 219.5,429.167 219.5,422.5 Z"/></g>
<g><path style="opacity:1" fill="#0e0e0e" d="M 116.5,424.5 C 121.835,427.834 127.501,430.667 133.5,433C 132.594,434.699 132.261,436.533 132.5,438.5C 124.885,437.527 118.552,434.193 113.5,428.5C 114.524,427.148 115.524,425.815 116.5,424.5 Z"/></g>
<g><path style="opacity:1" fill="#0c0c0c" d="M 455.5,428.5 C 459.844,428.526 461.178,430.526 459.5,434.5C 454.373,436.598 449.206,438.598 444,440.5C 441.679,438.89 440.846,436.89 441.5,434.5C 446.489,432.999 451.155,430.999 455.5,428.5 Z"/></g>
<g><path style="opacity:1" fill="#0f0f0f" d="M 143.5,439.5 C 142.167,439.5 140.833,439.5 139.5,439.5C 139.5,438.5 139.5,437.5 139.5,436.5C 139.5,435.5 139.5,434.5 139.5,433.5C 145.392,432.61 151.058,430.944 156.5,428.5C 158.578,430.428 159.245,432.595 158.5,435C 153.612,436.971 148.612,438.471 143.5,439.5 Z"/></g>
<g><path style="opacity:1" fill="#0d0d0d" d="M 173.5,429.5 C 176.899,429.737 178.732,431.404 179,434.5C 174.941,439.775 169.774,443.442 163.5,445.5C 162.594,443.614 161.594,441.78 160.5,440C 163.629,438.601 166.629,436.935 169.5,435C 171.464,433.549 172.797,431.716 173.5,429.5 Z"/></g>
<g><path style="opacity:1" fill="#121212" d="M 253.5,429.5 C 256.016,429.755 258.35,430.589 260.5,432C 264.152,432.499 267.818,432.665 271.5,432.5C 271.993,434.806 272.326,437.139 272.5,439.5C 265.392,440.25 258.725,438.917 252.5,435.5C 252.167,435 251.833,434.5 251.5,434C 252.414,432.594 253.08,431.094 253.5,429.5 Z"/></g>
<g><path style="opacity:1" fill="#810808" d="M 390.5,397.5 C 389.683,400.479 388.849,403.479 388,406.5C 379.189,421.926 372.522,438.26 368,455.5C 367.329,456.252 366.496,456.586 365.5,456.5C 370.843,435.491 379.176,415.824 390.5,397.5 Z"/></g>
<g><path style="opacity:1" fill="#131313" d="M 243.5,434.5 C 244.978,434.238 246.311,434.571 247.5,435.5C 249.105,440.378 251.938,444.378 256,447.5C 256.293,450.869 254.793,452.702 251.5,453C 246.469,448.447 242.802,442.947 240.5,436.5C 241.602,435.824 242.602,435.158 243.5,434.5 Z"/></g>
<g><path style="opacity:1" fill="#0e0e0e" d="M 431.5,437.5 C 432.675,437.281 433.675,437.614 434.5,438.5C 435.074,440.059 435.74,441.559 436.5,443C 430.088,445.926 423.588,447.759 417,448.5C 415.89,446.603 415.724,444.77 416.5,443C 421.725,441.429 426.725,439.596 431.5,437.5 Z"/></g>
<g><path style="opacity:1" fill="#979797" d="M 139.5,436.5 C 139.5,437.5 139.5,438.5 139.5,439.5C 140.833,439.5 142.167,439.5 143.5,439.5C 142.081,440.451 140.415,440.784 138.5,440.5C 138.232,438.901 138.566,437.568 139.5,436.5 Z"/></g>
<g><path style="opacity:1" fill="#030303" d="M 230.5,439.5 C 232.95,439.298 235.283,439.631 237.5,440.5C 237.5,446.5 237.5,452.5 237.5,458.5C 235.5,458.5 233.5,458.5 231.5,458.5C 231.705,452.122 231.372,445.789 230.5,439.5 Z"/></g>
<g><path style="opacity:1" fill="#6a6a6a" d="M 230.5,439.5 C 231.449,438.848 232.615,438.514 234,438.5C 235.681,438.608 236.848,439.275 237.5,440.5C 235.283,439.631 232.95,439.298 230.5,439.5 Z"/></g>
<g><path style="opacity:1" fill="#131313" d="M 59.5,442.5 C 60.8734,442.343 62.2068,442.51 63.5,443C 67.1107,446.483 71.444,448.316 76.5,448.5C 76.5,450.833 76.5,453.167 76.5,455.5C 70.6952,455.101 65.3619,453.267 60.5,450C 56.424,447.292 56.0906,444.792 59.5,442.5 Z"/></g>
<g><path style="opacity:1" fill="#0e0e0e" d="M 153.5,441.5 C 155.448,443.32 156.448,445.654 156.5,448.5C 149.752,449.45 143.086,450.783 136.5,452.5C 136.682,450.409 136.348,448.409 135.5,446.5C 141.683,445.072 147.683,443.405 153.5,441.5 Z"/></g>
<g><path style="opacity:1" fill="#111111" d="M 407.5,445.5 C 409.821,447.09 410.821,449.423 410.5,452.5C 404.161,453.626 397.995,455.293 392,457.5C 390.655,455.17 390.488,452.837 391.5,450.5C 397.04,449.122 402.373,447.455 407.5,445.5 Z"/></g>
<g><path style="opacity:1" fill="#0f0f0f" d="M 120.5,447.5 C 123.5,447.5 126.5,447.5 129.5,447.5C 129.5,449.5 129.5,451.5 129.5,453.5C 122.937,455.047 116.27,455.714 109.5,455.5C 109.5,453.5 109.5,451.5 109.5,449.5C 113.425,449.57 117.091,448.903 120.5,447.5 Z"/></g>
<g><path style="opacity:1" fill="#8a8a8a" d="M 102.5,450.5 C 96.1667,450.5 89.8333,450.5 83.5,450.5C 83.5,452.5 83.5,454.5 83.5,456.5C 82.5318,454.393 82.1984,452.059 82.5,449.5C 89.3543,449.176 96.021,449.509 102.5,450.5 Z"/></g>
<g><path style="opacity:1" fill="#010101" d="M 226.5,449.5 C 226.5,455.833 226.5,462.167 226.5,468.5C 224.5,468.5 222.5,468.5 220.5,468.5C 220.5,462.167 220.5,455.833 220.5,449.5C 222.5,449.5 224.5,449.5 226.5,449.5 Z"/></g>
<g><path style="opacity:1" fill="#000000" d="M 102.5,450.5 C 102.5,452.5 102.5,454.5 102.5,456.5C 96.1667,456.5 89.8333,456.5 83.5,456.5C 83.5,454.5 83.5,452.5 83.5,450.5C 89.8333,450.5 96.1667,450.5 102.5,450.5 Z"/></g>
<g><path style="opacity:1" fill="#0f0f0f" d="M 261.5,452.5 C 266.785,455.541 272.451,457.708 278.5,459C 278.986,461.027 278.986,463.193 278.5,465.5C 271.35,464.431 264.684,461.931 258.5,458C 259.758,456.259 260.758,454.426 261.5,452.5 Z"/></g>
<g><path style="opacity:1" fill="#0b0707" d="M 345.5,466.5 C 343.139,466.674 340.806,467.007 338.5,467.5C 338.5,465.167 338.5,462.833 338.5,460.5C 341.57,460.632 344.57,460.299 347.5,459.5C 350.841,458.995 354.174,458.828 357.5,459C 358.406,460.699 358.739,462.533 358.5,464.5C 354.167,465.167 349.833,465.833 345.5,466.5 Z"/></g>
<g><path style="opacity:1" fill="#121212" d="M 285.5,461.5 C 292.148,462.139 298.814,462.473 305.5,462.5C 305.5,464.833 305.5,467.167 305.5,469.5C 299.151,469.265 292.817,468.765 286.5,468C 285.692,467.692 285.025,467.192 284.5,466.5C 285.309,464.929 285.643,463.262 285.5,461.5 Z"/></g>
<g><path style="opacity:1" fill="#090909" d="M 312.5,469.5 C 312.5,467.5 312.5,465.5 312.5,463.5C 315.385,463.806 318.052,463.473 320.5,462.5C 324.198,462.448 327.865,462.114 331.5,461.5C 331.5,463.833 331.5,466.167 331.5,468.5C 325.171,468.9 318.838,469.233 312.5,469.5 Z"/></g>
<g><path style="opacity:1" fill="#810606" d="M 364.5,459.5 C 365.159,461.138 365.826,462.805 366.5,464.5C 364.196,472.717 362.363,481.05 361,489.5C 354.543,515.722 358.376,540.389 372.5,563.5C 375.717,563.658 379.05,563.825 382.5,564C 385.445,564.139 387.779,565.306 389.5,567.5C 384.103,567.215 378.77,567.549 373.5,568.5C 369.11,564.737 365.943,560.07 364,554.5C 362.131,549.228 360.465,543.894 359,538.5C 351.729,528.947 345.229,518.947 339.5,508.5C 339.205,506.265 339.539,504.265 340.5,502.5C 342.451,503.716 343.951,505.382 345,507.5C 348.414,513.997 352.081,520.33 356,526.5C 354.988,503.598 357.821,481.265 364.5,459.5 Z"/></g>
<g><path style="opacity:1" fill="#666666" d="M 226.5,449.5 C 224.5,449.5 222.5,449.5 220.5,449.5C 220.5,455.833 220.5,462.167 220.5,468.5C 222.5,468.5 224.5,468.5 226.5,468.5C 224.393,469.468 222.059,469.802 219.5,469.5C 219.5,462.5 219.5,455.5 219.5,448.5C 222.059,448.198 224.393,448.532 226.5,449.5 Z"/></g>
<g><path style="opacity:1" fill="#0f0f0f" d="M 230.5,465.5 C 232.833,465.5 235.167,465.5 237.5,465.5C 237.662,470.182 236.495,474.515 234,478.5C 229.739,481.481 225.905,481.148 222.5,477.5C 223.654,474.31 225.988,472.644 229.5,472.5C 230.374,470.253 230.708,467.92 230.5,465.5 Z"/></g>
<g><path style="opacity:1" fill="#4f4f4f" d="M 320.5,462.5 C 318.052,463.473 315.385,463.806 312.5,463.5C 312.5,465.5 312.5,467.5 312.5,469.5C 311.532,467.393 311.198,465.059 311.5,462.5C 314.5,462.5 317.5,462.5 320.5,462.5 Z"/></g>
<g><path style="opacity:1" fill="#121010" d="M 340.5,501.5 C 340.5,501.833 340.5,502.167 340.5,502.5C 339.539,504.265 339.205,506.265 339.5,508.5C 339.5,514.167 339.5,519.833 339.5,525.5C 338.178,525.33 337.011,525.663 336,526.5C 332.355,520.859 328.022,515.859 323,511.5C 325.144,515.721 327.477,520.054 330,524.5C 331.445,528.15 332.445,531.817 333,535.5C 326.512,528.671 319.179,523.005 311,518.5C 310.5,518.833 310,519.167 309.5,519.5C 315.759,533.591 326.092,543.425 340.5,549C 335.124,549.785 329.791,550.785 324.5,552C 322.668,552.748 321.001,553.748 319.5,555C 330.079,554.925 340.079,557.092 349.5,561.5C 349.833,562.5 350.5,563.167 351.5,563.5C 352.167,565.5 352.833,567.5 353.5,569.5C 349.046,566.771 344.38,564.271 339.5,562C 328.172,560.94 316.839,559.94 305.5,559C 311.364,553.567 318.031,549.4 325.5,546.5C 322.241,543.952 319.074,541.286 316,538.5C 309.708,530.198 304.208,521.364 299.5,512C 303.739,512.749 308.072,513.416 312.5,514C 315.242,515.07 317.742,516.57 320,518.5C 317.06,513.236 314.56,507.57 312.5,501.5C 320.909,503.649 328.076,508.316 334,515.5C 334.333,509.167 334.667,502.833 335,496.5C 336.704,498.373 338.537,500.04 340.5,501.5 Z"/></g>
<g><path style="opacity:1" fill="#fc7c7c" d="M 339.5,508.5 C 345.229,518.947 351.729,528.947 359,538.5C 360.465,543.894 362.131,549.228 364,554.5C 365.943,560.07 369.11,564.737 373.5,568.5C 378.77,567.549 384.103,567.215 389.5,567.5C 390.5,567.833 391.167,568.5 391.5,569.5C 391.844,575.541 392.511,581.541 393.5,587.5C 387.277,588.317 381.61,586.984 376.5,583.5C 368.749,576.08 360.416,569.414 351.5,563.5C 350.5,563.167 349.833,562.5 349.5,561.5C 344.741,549.89 341.408,537.89 339.5,525.5C 339.5,519.833 339.5,514.167 339.5,508.5 Z"/></g>
<g><path style="opacity:1" fill="#f5f4f4" d="M 339.5,525.5 C 341.408,537.89 344.741,549.89 349.5,561.5C 340.079,557.092 330.079,554.925 319.5,555C 321.001,553.748 322.668,552.748 324.5,552C 329.791,550.785 335.124,549.785 340.5,549C 326.092,543.425 315.759,533.591 309.5,519.5C 310,519.167 310.5,518.833 311,518.5C 319.179,523.005 326.512,528.671 333,535.5C 332.445,531.817 331.445,528.15 330,524.5C 327.477,520.054 325.144,515.721 323,511.5C 328.022,515.859 332.355,520.859 336,526.5C 337.011,525.663 338.178,525.33 339.5,525.5 Z"/></g>
<g><path style="opacity:1" fill="#1a1515" d="M 601.5,504.5 C 599.632,525.777 592.632,545.11 580.5,562.5C 590.4,544.069 597.4,524.735 601.5,504.5 Z"/></g>
<g><path style="opacity:1" fill="#0e0d0d" d="M 570.5,612.5 C 571.925,611.078 572.925,609.411 573.5,607.5C 573.833,607.5 574.167,607.5 574.5,607.5C 578.664,608.336 582.831,609.336 587,610.5C 587.5,610.167 588,609.833 588.5,609.5C 586.195,605.682 582.862,603.349 578.5,602.5C 580.075,598.922 582.075,595.589 584.5,592.5C 585.167,592.5 585.5,592.167 585.5,591.5C 595.269,588.118 603.936,582.951 611.5,576C 605.268,577.606 599.268,580.106 593.5,583.5C 592.817,583.137 592.15,582.804 591.5,582.5C 592.351,580.118 593.684,578.118 595.5,576.5C 601.215,572.379 604.215,567.046 604.5,560.5C 605.471,558.517 606.471,556.517 607.5,554.5C 609.03,553.933 610.53,553.267 612,552.5C 612.001,559.677 609.835,566.177 605.5,572C 611.431,570.135 617.431,568.468 623.5,567C 619.967,573.54 615.3,579.206 609.5,584C 601.057,589.87 592.057,594.703 582.5,598.5C 590.737,602.639 595.237,609.305 596,618.5C 587.962,614.543 579.462,612.543 570.5,612.5 Z"/></g>
<g><path style="opacity:1" fill="#f37373" d="M 592.5,553.5 C 593.239,553.369 593.906,553.536 594.5,554C 591.472,560.034 587.305,565.201 582,569.5C 583.4,565.367 585.4,561.367 588,557.5C 589.992,556.672 591.492,555.339 592.5,553.5 Z"/></g>
<g><path style="opacity:1" fill="#ede4e4" d="M 604.5,560.5 C 604.215,567.046 601.215,572.379 595.5,576.5C 597.833,571.833 600.167,567.167 602.5,562.5C 603.167,561.833 603.833,561.167 604.5,560.5 Z"/></g>
<g><path style="opacity:1" fill="#251515" d="M 580.5,562.5 C 580.25,564.674 579.25,566.341 577.5,567.5C 577.75,565.326 578.75,563.659 580.5,562.5 Z"/></g>
<g><path style="opacity:1" fill="#fa7b7b" d="M 602.5,562.5 C 600.167,567.167 597.833,571.833 595.5,576.5C 593.684,578.118 592.351,580.118 591.5,582.5C 589.265,585.291 587.265,588.291 585.5,591.5C 585.5,592.167 585.167,592.5 584.5,592.5C 580.257,594.121 575.924,595.454 571.5,596.5C 570.5,601.5 572.5,603.5 577.5,602.5C 576.752,604.332 575.752,605.999 574.5,607.5C 574.167,607.5 573.833,607.5 573.5,607.5C 570.15,607.335 566.817,607.502 563.5,608C 556.593,609.64 549.927,611.64 543.5,614C 558.512,603.319 570.345,589.819 579,573.5C 579.833,574.5 580.667,575.5 581.5,576.5C 588.536,571.782 595.536,567.115 602.5,562.5 Z"/></g>
<g><path style="opacity:1" fill="#850909" d="M 351.5,563.5 C 360.416,569.414 368.749,576.08 376.5,583.5C 374.784,583.629 373.117,583.962 371.5,584.5C 366.322,581.078 361.322,577.411 356.5,573.5C 355.5,572.167 354.5,570.833 353.5,569.5C 352.833,567.5 352.167,565.5 351.5,563.5 Z"/></g>
<g><path style="opacity:1" fill="#f88080" d="M 356.5,573.5 C 361.322,577.411 366.322,581.078 371.5,584.5C 371.5,584.833 371.5,585.167 371.5,585.5C 369.488,586.014 367.488,586.18 365.5,586C 362.123,582.069 359.123,577.902 356.5,573.5 Z"/></g>
<g><path style="opacity:1" fill="#e8e7e7" d="M 585.5,591.5 C 587.265,588.291 589.265,585.291 591.5,582.5C 592.15,582.804 592.817,583.137 593.5,583.5C 599.268,580.106 605.268,577.606 611.5,576C 603.936,582.951 595.269,588.118 585.5,591.5 Z"/></g>
<g><path style="opacity:1" fill="#1b0c0a" d="M 376.5,583.5 C 377.15,585.435 377.483,587.435 377.5,589.5C 375.5,588.167 373.5,586.833 371.5,585.5C 371.5,585.167 371.5,584.833 371.5,584.5C 373.117,583.962 374.784,583.629 376.5,583.5 Z"/></g>
<g><path style="opacity:1" fill="#fd7e7e" d="M 377.5,589.5 C 382.822,592.11 388.489,593.11 394.5,592.5C 396.477,602.271 400.477,611.104 406.5,619C 404.021,623.638 401.355,628.138 398.5,632.5C 391.759,627.714 386.926,621.381 384,613.5C 380.663,605.806 378.497,597.806 377.5,589.5 Z"/></g>
<g><path style="opacity:1" fill="#880d0c" d="M 584.5,592.5 C 582.075,595.589 580.075,598.922 578.5,602.5C 578.167,602.5 577.833,602.5 577.5,602.5C 572.5,603.5 570.5,601.5 571.5,596.5C 575.924,595.454 580.257,594.121 584.5,592.5 Z"/></g>
<g><path style="opacity:1" fill="#e8e5e5" d="M 577.5,602.5 C 577.833,602.5 578.167,602.5 578.5,602.5C 582.862,603.349 586.195,605.682 588.5,609.5C 588,609.833 587.5,610.167 587,610.5C 582.831,609.336 578.664,608.336 574.5,607.5C 575.752,605.999 576.752,604.332 577.5,602.5 Z"/></g>
<g><path style="opacity:1" fill="#171212" d="M 563.5,589.5 C 558.476,597.035 552.476,603.868 545.5,610C 537.962,615.124 529.628,617.957 520.5,618.5C 528.771,615.87 536.771,612.37 544.5,608C 551.364,602.302 557.697,596.135 563.5,589.5 Z"/></g>
<g><path style="opacity:1" fill="#fe7e7e" d="M 569.5,612.5 C 559.198,625.49 545.864,633.657 529.5,637C 523.205,638.159 516.872,638.993 510.5,639.5C 504.526,638.448 498.526,637.948 492.5,638C 473.038,649.877 452.372,653.043 430.5,647.5C 433.018,642.449 436.018,637.782 439.5,633.5C 451.823,635.584 463.823,634.417 475.5,630C 480.577,626.599 485.911,623.599 491.5,621C 500.839,621.669 510.173,622.336 519.5,623C 527.916,619.515 536.582,618.181 545.5,619C 553.057,615.09 561.057,612.924 569.5,612.5 Z"/></g>
<g><path style="opacity:1" fill="#0d0909" d="M 520.5,618.5 C 517.737,619.655 514.737,620.322 511.5,620.5C 501.333,617.591 491.333,617.924 481.5,621.5C 483.428,619.526 485.761,618.026 488.5,617C 499.219,616.512 509.886,617.012 520.5,618.5 Z"/></g>
<g><path style="opacity:1" fill="#fd7e7e" d="M 425.5,645.5 C 417.408,642.748 409.408,639.748 401.5,636.5C 401.5,636.167 401.5,635.833 401.5,635.5C 404.891,631.072 408.058,626.406 411,621.5C 413.754,623.127 416.588,624.627 419.5,626C 425.085,626.382 429.752,628.548 433.5,632.5C 431.059,637.065 428.392,641.398 425.5,645.5 Z"/></g>
<g><path style="opacity:1" fill="#371f1f" d="M 469.5,627.5 C 467.485,628.924 465.152,629.59 462.5,629.5C 464.515,628.076 466.848,627.41 469.5,627.5 Z"/></g>
<g><path style="opacity:1" fill="#101010" d="M 398.5,633.5 C 399.5,634.167 400.5,634.833 401.5,635.5C 401.5,635.833 401.5,636.167 401.5,636.5C 383.038,667.747 361.871,697.081 338,724.5C 317.905,746.922 293.738,763.422 265.5,774C 242.913,780.98 220.246,787.646 197.5,794C 164.064,805.13 137.23,824.964 117,853.5C 105.115,876.999 102.115,901.666 108,927.5C 112.788,944.986 116.788,962.653 120,980.5C 121.874,996.64 124.374,1012.64 127.5,1028.5C 128.298,1026.92 128.798,1025.26 129,1023.5C 129.667,1012.5 129.667,1001.5 129,990.5C 126.489,970.947 122.823,951.613 118,932.5C 115.945,917.891 115.278,903.224 116,888.5C 118.289,875.62 123.289,863.954 131,853.5C 142.539,842.959 154.372,832.792 166.5,823C 188.273,807.407 212.606,798.741 239.5,797C 259.694,792.269 279.361,785.935 298.5,778C 310.321,772.341 320.821,764.841 330,755.5C 336.667,747.5 343.333,739.5 350,731.5C 366.667,714.167 383.333,696.833 400,679.5C 409.129,668.886 417.629,657.886 425.5,646.5C 426.959,646.433 428.292,646.766 429.5,647.5C 421.06,661.455 411.226,674.455 400,686.5C 378.23,707.932 357.564,730.265 338,753.5C 322.556,770.812 303.723,782.979 281.5,790C 257.945,797.555 233.945,803.222 209.5,807C 192.246,812.459 176.58,820.792 162.5,832C 152.702,840.129 143.202,848.629 134,857.5C 124.575,870.275 120.075,884.608 120.5,900.5C 120.738,911.212 121.571,921.878 123,932.5C 127.566,951.663 131.233,970.996 134,990.5C 135.072,1004.93 134.406,1019.26 132,1033.5C 130.591,1037.32 128.924,1040.98 127,1044.5C 124.042,1036 121.709,1027.34 120,1018.5C 118.657,1003.41 116.657,988.411 114,973.5C 109.194,953.276 104.861,932.943 101,912.5C 97.9392,870.457 113.773,837.624 148.5,814C 174.608,796.291 203.274,784.625 234.5,779C 275.262,769.713 309.429,749.547 337,718.5C 359.686,691.663 380.186,663.329 398.5,633.5 Z"/></g>
<g><path style="opacity:1" fill="#f9f9f9" d="M 401.5,636.5 C 409.408,639.748 417.408,642.748 425.5,645.5C 425.5,645.833 425.5,646.167 425.5,646.5C 417.629,657.886 409.129,668.886 400,679.5C 383.333,696.833 366.667,714.167 350,731.5C 343.333,739.5 336.667,747.5 330,755.5C 320.821,764.841 310.321,772.341 298.5,778C 279.361,785.935 259.694,792.269 239.5,797C 212.606,798.741 188.273,807.407 166.5,823C 154.372,832.792 142.539,842.959 131,853.5C 123.289,863.954 118.289,875.62 116,888.5C 115.278,903.224 115.945,917.891 118,932.5C 122.823,951.613 126.489,970.947 129,990.5C 129.667,1001.5 129.667,1012.5 129,1023.5C 128.798,1025.26 128.298,1026.92 127.5,1028.5C 124.374,1012.64 121.874,996.64 120,980.5C 116.788,962.653 112.788,944.986 108,927.5C 102.115,901.666 105.115,876.999 117,853.5C 137.23,824.964 164.064,805.13 197.5,794C 220.246,787.646 242.913,780.98 265.5,774C 293.738,763.422 317.905,746.922 338,724.5C 361.871,697.081 383.038,667.747 401.5,636.5 Z"/></g>
</svg>
