<svg xmlns="http://www.w3.org/2000/svg" width="1562" height="1046" style="shape-rendering:geometricPrecision;text-rendering:geometricPrecision;image-rendering:optimizeQuality;fill-rule:evenodd;clip-rule:evenodd"><path style="opacity:1" fill="#fefefe" d="M-.5-.5h1562v357c-17.46-4.075-31.46.925-42 15-.67-4.667-1.33-9.333-2-14h-17c-.33 34.837 0 69.504 1 104h16c-.17-21.003 0-42.003.5-63 5.17-24.505 19.67-32.838 43.5-25v672H-.5v-735h20v-7h-20V-.5z"/><path style="opacity:1" fill="#101010" d="M779.5 191.5a27.13 27.13 0 0 0-10-2c0-.667-.333-1-1-1a273.426 273.426 0 0 0-11.5-54 845.034 845.034 0 0 0-36.5-94c.848-1.783 2.181-2.283 4-1.5a607.677 607.677 0 0 1 32.5 81.5 840.41 840.41 0 0 0-18-85 42.635 42.635 0 0 0-3.5-8 12.409 12.409 0 0 1 2.5-4c2.413 2.562 4.08 5.562 5 9a1670.194 1670.194 0 0 1 29.5 144 97.51 97.51 0 0 1 1.5 9c.814-4.52.647-8.854-.5-13a2944.423 2944.423 0 0 0-9.5-139 171.225 171.225 0 0 0-5.5-29c2.053-5.11 3.887-4.777 5.5 1a739.117 739.117 0 0 1 7 51c3.705 44.95 6.539 89.95 8.5 135z"/><path style="opacity:1" fill="#0f0f0f" d="M785.5 192.5c-1.599.268-2.932-.066-4-1a2303.62 2303.62 0 0 0 13.5-86 288.157 288.157 0 0 0 .5-49c3.36-.71 5.193.624 5.5 4a411.638 411.638 0 0 1-5 72 5618.949 5618.949 0 0 1-10.5 60zM767.5 188.5a118.435 118.435 0 0 0-16-1c0-.667-.333-1-1-1a812.003 812.003 0 0 0-56.5-84L683.5 92c.576-2.268 1.91-3.268 4-3a331.65 331.65 0 0 1 32.5 40.5 1323.01 1323.01 0 0 0 27.5 42 1240.703 1240.703 0 0 0-58-100 23.602 23.602 0 0 0 3.5-3 1553.355 1553.355 0 0 1 67 115c-9.15-36.134-24.65-69.301-46.5-99.5 1.272-2.26 2.938-2.76 5-1.5a202.204 202.204 0 0 1 10.5 16c-1.681-10.706-5.181-20.873-10.5-30.5.598-1.301 1.598-2.135 3-2.5 8.66 14.48 13.826 30.146 15.5 47 13.018 24.228 23.185 49.561 30.5 76z"/><path style="opacity:1" fill="#fd7f7f" d="M619.5 166.5c-3.294 1.969-6.961 3.135-11 3.5-5.732 6.017-4.732 11.017 3 15-1.237.232-2.237.732-3 1.5h-3a18.453 18.453 0 0 0-6 .5 79.946 79.946 0 0 1-17 12c-5.657.499-11.324.666-17 .5a85.161 85.161 0 0 0 2-14c3.94-.258 7.607-1.424 11-3.5a222.537 222.537 0 0 0 21-14 94.41 94.41 0 0 1 20-1.5z"/><path style="opacity:1" fill="#810606" d="M619.5 166.5h14a574.5 574.5 0 0 0 19 8.5c6.331-1.6 11.998-.266 17 4l7 7a166.385 166.385 0 0 1 36 8.5c8.614-3.735 17.281-3.902 26-.5a29.964 29.964 0 0 1 6 7c4.363.29 8.696.79 13 1.5l2-1c-2.679-4.694-5.345-9.361-8-14 5.362-.028 10.695.306 16 1 .023 2.427.523 4.76 1.5 7 .495-1.973.662-3.973.5-6a27.13 27.13 0 0 1 10 2h2c1.068.934 2.401 1.268 4 1v1c-5.354 12.196-2.021 21.363 10 27.5 6.847 4.29 8.681 10.123 5.5 17.5-4.5 3.167-8.333 7-11.5 11.5a169.715 169.715 0 0 0 10 11.5v1a6.547 6.547 0 0 0-3 3h-1a82.928 82.928 0 0 0-6.5-9c1.429 3.547 2.929 7.214 4.5 11a87.474 87.474 0 0 1-12 6h-1a59.44 59.44 0 0 0-3.5-10c.131 3.551.965 6.885 2.5 10v1c-1.653.16-2.986.826-4 2h-1a86.71 86.71 0 0 0-3.5-15 162.597 162.597 0 0 0-.5 18l-1 2-4 3c.166-7.341 0-14.674-.5-22a119.16 119.16 0 0 0-13.5 12.5 643.917 643.917 0 0 1-29 18 77.34 77.34 0 0 1 12-2c-2.243 4.248-5.243 7.914-9 11 3.688.45 7.354.283 11-.5-3.043 2.043-5.376 4.71-7 8-1.353 1.026-2.353 2.359-3 4a1234.533 1234.533 0 0 0-6 8c0 .667-.333 1-1 1-6.32.717-12.32 2.551-18 5.5a42.36 42.36 0 0 0-1.5 8.5c-5.669 10.669-13.169 19.835-22.5 27.5a314.81 314.81 0 0 1-21 11c-7.268 12.349-16.101 23.516-26.5 33.5a52.17 52.17 0 0 0-7 10 172.723 172.723 0 0 0-9 33 6579.557 6579.557 0 0 1-10 65 300.669 300.669 0 0 1-11 32 40.796 40.796 0 0 1 6.5-4c.476 4.326-.191 8.66-2 13l1 1a53.858 53.858 0 0 1 9-4 409.027 409.027 0 0 0-3 6l-2 2a4639.823 4639.823 0 0 0-21 14l-2.5-3c-8.655 16.319-20.488 29.819-35.5 40.5a175.757 175.757 0 0 1 20-6 50.464 50.464 0 0 1 10-.5 11.743 11.743 0 0 1-3 5h-1c-8.443.424-16.443 2.59-24 6.5-8.918-.819-17.584.515-26 4-9.327-.664-18.661-1.331-28-2a118.421 118.421 0 0 0-16 9c-11.677 4.417-23.677 5.584-36 3.5a75.495 75.495 0 0 0-9 14h-1c-1.208-.734-2.541-1.067-4-1v-1a124.029 124.029 0 0 0 8-13c-3.748-3.952-8.415-6.118-14-6.5a103.382 103.382 0 0 1-8.5-4.5 149.218 149.218 0 0 1-9.5 14l-3-2v-1a176.923 176.923 0 0 0 8-13.5c-6.023-7.896-10.023-16.729-12-26.5-6.011.61-11.678-.39-17-3a19.22 19.22 0 0 0-1-6c5.11 3.484 10.777 4.817 17 4a168.298 168.298 0 0 1-2-18c1.293 1.342 2.126 3.009 2.5 5 1.527 13.313 5.194 25.98 11 38 6.145 7.99 14.312 12.157 24.5 12.5 3.204 3.517 7.204 5.517 12 6 6 .667 12 .667 18 0 1.237-.232 2.237-.732 3-1.5 2.652.09 4.985-.576 7-2l12-6c9.833-3.576 19.833-3.909 30-1 3.237-.178 6.237-.845 9-2 9.128-.543 17.462-3.376 25-8.5 6.976-6.132 12.976-12.965 18-20.5a239.672 239.672 0 0 1 14-22c1.75-1.159 2.75-2.826 3-5 12.132-17.39 19.132-36.723 21-58v-2c4.15-20.875 8.316-41.875 12.5-63 2.504-12.54 7.504-23.874 15-34 8.859-8.185 16.192-17.519 22-28 3.767-4.276 7.934-7.943 12.5-11a42961.77 42961.77 0 0 1 16-9 2.428 2.428 0 0 0 2-.5c7.636-8.298 13.636-17.632 18-28a47.499 47.499 0 0 1-1-5.5 451.287 451.287 0 0 1 16-5.5c-1.75-1.754-2.417-3.921-2-6.5 12.279-2.357 12.612-4.19 1-5.5-3.16 6.993-8.16 12.159-15 15.5.255-2.516 1.089-4.85 2.5-7 2.454-1.941 4.287-4.275 5.5-7 1.406-.473 2.073-1.473 2-3a215.645 215.645 0 0 1 12-15c4.124-3.781 8.791-6.781 14-9 10.678-3.676 19.678-9.843 27-18.5 4.396-2.527 8.729-5.027 13-7.5l6-1.5a31.447 31.447 0 0 1 5-4.5 246.626 246.626 0 0 0 13.5-13c.877-2.174.377-3.841-1.5-5a57.508 57.508 0 0 0-9-9c-2.033-3.692-4.7-6.692-8-9-1.28-1.431-2.947-2.098-5-2-4.706-1.875-9.706-2.875-15-3a89.41 89.41 0 0 0-15-1 474.34 474.34 0 0 0-55-14 49.369 49.369 0 0 1-11-1c-5.325-.996-10.658-1.996-16-3a194.402 194.402 0 0 0-25-3c-3.477-.823-7.144-1.323-11-1.5a124.314 124.314 0 0 1-15.5-10.5c-2.188.559-2.854 1.893-2 4 3.464 3.305 7.297 5.972 11.5 8-4.357.086-8.69.42-13 1 .763-.768 1.763-1.268 3-1.5-7.732-3.983-8.732-8.983-3-15 4.039-.365 7.706-1.531 11-3.5z"/><path style="opacity:1" fill="#fd7e7e" d="M633.5 166.5a598.293 598.293 0 0 1 64 7.5 486.38 486.38 0 0 1 42 11 46.94 46.94 0 0 0 11 1.5c.667 0 1 .333 1 1 2.655 4.639 5.321 9.306 8 14l-2 1c-4.304-.71-8.637-1.21-13-1.5a29.964 29.964 0 0 0-6-7c-8.719-3.402-17.386-3.235-26 .5a166.385 166.385 0 0 0-36-8.5l-7-7c-5.002-4.266-10.669-5.6-17-4a574.5 574.5 0 0 1-19-8.5z"/><path style="opacity:1" fill="#f87878" d="M620.5 171.5a72.367 72.367 0 0 1 12 .5 237.226 237.226 0 0 1 19 8c2.88.684 5.713.517 8.5-.5 4.855 1.398 8.021 4.065 9.5 8-3.119-2.893-6.786-4.726-11-5.5a718.737 718.737 0 0 1-29-2 52.17 52.17 0 0 1-10-7c.556-.383.889-.883 1-1.5z"/><path style="opacity:1" fill="#8c8c8c" d="M747.5 171.5c1.916 1.165 2.749 2.832 2.5 5-1.372-1.41-2.205-3.077-2.5-5z"/><path style="opacity:1" fill="#f27272" d="M638.5 185.5h-17c-4.203-2.028-8.036-4.695-11.5-8-.854-2.107-.188-3.441 2-4a124.314 124.314 0 0 0 15.5 10.5c3.856.177 7.523.677 11 1.5z"/><path style="opacity:1" fill="#0e0b0b" d="M567.5 185.5c-1.542.801-3.208 1.134-5 1a21.614 21.614 0 0 0-5 4c-2.374 1.186-4.708 1.186-7 0 .51-4.669-.823-5.669-4-3-1.527.073-2.527-.594-3-2a193.893 193.893 0 0 1 11.5-12l1 12a54.32 54.32 0 0 1 10.5-6 9.86 9.86 0 0 1 1 6z"/><path style="opacity:1" fill="#8c8c8c" d="M773.5 172.5c1.147 4.146 1.314 8.48.5 13a97.51 97.51 0 0 0-1.5-9c.934-1.068 1.268-2.401 1-4z"/><path style="opacity:1" fill="#fb7e7e" d="M542.5 185.5c-2.659 3.309-4.826 6.976-6.5 11-3.477-4.322-7.977-6.322-13.5-6 4.493-3.416 9.493-6.083 15-8a18.67 18.67 0 0 1 5 3z"/><path style="opacity:1" fill="#fefefe" d="M623.5 185.5h15c8.417.462 16.75 1.462 25 3a176.296 176.296 0 0 1 11.5 11c.944 2.847.444 5.347-1.5 7.5 2.469 4.258 4.635 3.758 6.5-1.5.005-4.647-.162-9.314-.5-14a49.369 49.369 0 0 0 11 1 2507.292 2507.292 0 0 1 38 12.5 61.522 61.522 0 0 0 17 1.5 89.41 89.41 0 0 1 15 1c4.606 2.376 9.606 3.376 15 3 2.053-.098 3.72.569 5 2 1.292 4.288 3.958 7.288 8 9a57.508 57.508 0 0 1 9 9 12.93 12.93 0 0 1-.5 5c-4.436 3.928-8.269 8.261-11.5 13a31.447 31.447 0 0 0-5 4.5l-6 1.5a43.171 43.171 0 0 0-10 3 42.769 42.769 0 0 1-1.5-9c-.408-1.91-1.575-2.91-3.5-3-15.709 6.379-24.042 18.045-25 35-5.209 2.219-9.876 5.219-14 9-1.894.548-3.56 1.548-5 3-6.13-13.395-16.463-18.228-31-14.5-7.635 1.804-12.968 6.304-16 13.5a28.043 28.043 0 0 1 1.5 5c.667 8.333.667 16.667 0 25a51.423 51.423 0 0 1-7 15c-1.314 9.625 2.853 13.125 12.5 10.5 11.369-3.357 17.536-10.857 18.5-22.5 3.32 4.295 3.32 8.628 0 13a443.915 443.915 0 0 1-14.5 20 42961.77 42961.77 0 0 0-16 9c-4.601 1.301-8.601 3.634-12 7l-9.5 15a220.63 220.63 0 0 0-23 27 208.92 208.92 0 0 0-8 27 1243.768 1243.768 0 0 0-9.5 60v2c-4.1 20.235-11.1 39.569-21 58-1.75 1.159-2.75 2.826-3 5a239.672 239.672 0 0 0-14 22 166.339 166.339 0 0 1-19 18.5c-7.729 4.37-15.729 7.87-24 10.5a173.25 173.25 0 0 0-32-1.5c-2.739 1.026-5.072 2.526-7 4.5l-12 6c-2.652-.09-4.985.576-7 2-7.341.166-14.674 0-22-.5-4.404-.701-8.071-2.701-11-6-13.531-1.523-22.698-8.689-27.5-21.5a284.675 284.675 0 0 1-7-35 11.532 11.532 0 0 0-4.5-3.5l-17-1c-10.879-19.43-15.046-40.264-12.5-62.5a256.16 256.16 0 0 1 7-36 56.712 56.712 0 0 1 16.5-4 17.758 17.758 0 0 0-1.5-7 48.918 48.918 0 0 1-12.5 3 185.357 185.357 0 0 1 7.5-23 1324.443 1324.443 0 0 0 30-62c8.493-13.168 18.493-25.168 30-36a564.034 564.034 0 0 1 37-43c5.53-7.063 8.863-15.063 10-24 9.491-21.152 22.991-39.318 40.5-54.5a45.457 45.457 0 0 1 11-6.5c8.463 7.873 17.797 9.04 28 3.5a74.513 74.513 0 0 0 12-2 133.722 133.722 0 0 0 26-17 100.2 100.2 0 0 1 20 0c7.179 3.183 11.346 8.683 12.5 16.5a52.078 52.078 0 0 0 13.5 12.5c4.775 1.159 9.108.326 13-2.5.929-1.822.262-3.155-2-4a57.178 57.178 0 0 1-6.5 3c-6.22-2.884-11.22-7.218-15-13a29.77 29.77 0 0 0-5-11 89.597 89.597 0 0 0-9.5-7z"/><path style="opacity:1" fill="#0d0c0c" d="M663.5 188.5c5.342 1.004 10.675 2.004 16 3 .338 4.686.505 9.353.5 14-1.865 5.258-4.031 5.758-6.5 1.5 1.944-2.153 2.444-4.653 1.5-7.5a176.296 176.296 0 0 0-11.5-11z"/><path style="opacity:1" fill="#686464" d="m520.5 190.5-2 2h-1c.321-1.548 1.321-2.215 3-2z"/><path style="opacity:1" fill="#e56767" d="M767.5 188.5h1c.667 0 1 .333 1 1a18.453 18.453 0 0 1-.5 6 17.758 17.758 0 0 1-1.5-7z"/><path style="opacity:1" fill="#fd7f7e" d="M517.5 192.5h1c3.265 4.386 5.765 9.052 7.5 14-24.94 19.565-41.607 44.565-50 75a102.264 102.264 0 0 1-8 11 2326.977 2326.977 0 0 0-54 61 416.637 416.637 0 0 0-15 23 74.318 74.318 0 0 0-8.5 21c-11.324 18.324-19.657 37.991-25 59-.904.709-1.237 1.709-1 3-6.679 21.765-9.512 44.098-8.5 67a267.498 267.498 0 0 1-11-19c-1.049-2.118-2.549-3.784-4.5-5v-1c1.504-11.684 3.17-23.35 5-35l13-2c.239-1.967-.094-3.801-1-5.5a49.602 49.602 0 0 0-10 .5 213.862 213.862 0 0 1 12.5-40 565.51 565.51 0 0 1 29-59 222.256 222.256 0 0 1 31-38 503.903 503.903 0 0 1 39-46c3.485-5.86 5.819-12.193 7-19 11.765-25.933 28.931-47.6 51.5-65z"/><path style="opacity:1" fill="#fd7e7e" d="M785.5 193.5c4.015 1.091 7.515 3.091 10.5 6a127.956 127.956 0 0 0 18 20c5.152 8.315 5.819 16.982 2 26a374.674 374.674 0 0 1-16.5 16 169.715 169.715 0 0 1-10-11.5c3.167-4.5 7-8.333 11.5-11.5 3.181-7.377 1.347-13.21-5.5-17.5-12.021-6.137-15.354-15.304-10-27.5z"/><path style="opacity:1" fill="#141111" d="M690.5 192.5a474.34 474.34 0 0 1 55 14 61.522 61.522 0 0 1-17-1.5 2507.292 2507.292 0 0 0-38-12.5z"/><path style="opacity:1" fill="#393636" d="M760.5 207.5c5.294.125 10.294 1.125 15 3-5.394.376-10.394-.624-15-3z"/><path style="opacity:1" fill="#181212" d="M780.5 212.5c3.3 2.308 5.967 5.308 8 9-4.042-1.712-6.708-4.712-8-9z"/><path style="opacity:1" fill="#251010" d="M797.5 230.5c1.877 1.159 2.377 2.826 1.5 5a246.626 246.626 0 0 1-13.5 13c3.231-4.739 7.064-9.072 11.5-13a12.93 12.93 0 0 0 .5-5z"/><path style="opacity:1" fill="#0c0a0a" d="M774.5 254.5a4784.818 4784.818 0 0 1-13 7.5c-7.322 8.657-16.322 14.824-27 18.5.958-16.955 9.291-28.621 25-35 1.925.09 3.092 1.09 3.5 3a42.769 42.769 0 0 0 1.5 9 43.171 43.171 0 0 1 10-3z"/><path style="opacity:1" fill="#ea6b6b" d="m795.5 265.5-1 2h-1a1149.875 1149.875 0 0 1-4.5-11 82.928 82.928 0 0 1 6.5 9z"/><path style="opacity:1" fill="#fc7d7d" d="M765.5 284.5v1a289.165 289.165 0 0 1-28 16h-1c-3.646.783-7.312.95-11 .5 3.757-3.086 6.757-6.752 9-11a77.34 77.34 0 0 0-12 2 643.917 643.917 0 0 0 29-18 119.16 119.16 0 0 1 13.5-12.5c.5 7.326.666 14.659.5 22z"/><path style="opacity:1" fill="#101010" d="M799.5 262.5a527.847 527.847 0 0 1 27.5 38 1313.07 1313.07 0 0 0 35.5 59 23.65 23.65 0 0 0-3.5 3 2814.907 2814.907 0 0 1-37-61 1042.87 1042.87 0 0 0-25.5-36 6.547 6.547 0 0 1 3-3z"/><path style="opacity:1" fill="#f97a7a" d="m774.5 276.5-4 3c-.166-6.009.001-12.009.5-18a86.71 86.71 0 0 1 3.5 15z"/><path style="opacity:1" fill="#d85858" d="M780.5 273.5h-1c-1.535-3.115-2.369-6.449-2.5-10a59.44 59.44 0 0 1 3.5 10z"/><path style="opacity:1" fill="#0f0f0f" d="M793.5 267.5h1a1724.267 1724.267 0 0 0 30.5 46 237.059 237.059 0 0 1 15.5 35.5c-1.096 2.147-2.596 2.647-4.5 1.5-7.519-22.77-18.685-42.77-33.5-60a635.236 635.236 0 0 1 26 57.5c-.982 2.009-2.315 2.509-4 1.5a1543.328 1543.328 0 0 0-21.5-48 1603.142 1603.142 0 0 1 23.5 86.5c-1.119 1.876-2.786 2.709-5 2.5-7.276-37.124-17.943-73.124-32-108a496.505 496.505 0 0 1 17.5 83c.499 5.657.666 11.324.5 17h-5c-.81-28.558-5.31-56.558-13.5-84a1057.023 1057.023 0 0 1-7.5-25 87.474 87.474 0 0 0 12-6z"/><path style="opacity:1" fill="#140e0e" d="M621.5 185.5h2a89.597 89.597 0 0 1 9.5 7 29.77 29.77 0 0 1 5 11c3.78 5.782 8.78 10.116 15 13a57.178 57.178 0 0 0 6.5-3c2.262.845 2.929 2.178 2 4-3.892 2.826-8.225 3.659-13 2.5a52.078 52.078 0 0 1-13.5-12.5c-1.154-7.817-5.321-13.317-12.5-16.5a100.2 100.2 0 0 0-20 0 133.722 133.722 0 0 1-26 17 74.513 74.513 0 0 1-12 2c-10.203 5.54-19.537 4.373-28-3.5a45.457 45.457 0 0 0-11 6.5c-17.509 15.182-31.009 33.348-40.5 54.5-1.137 8.937-4.47 16.937-10 24a564.034 564.034 0 0 0-37 43c-11.507 10.832-21.507 22.832-30 36a1324.443 1324.443 0 0 1-30 62 185.357 185.357 0 0 0-7.5 23 48.918 48.918 0 0 0 12.5-3 17.758 17.758 0 0 1 1.5 7 56.712 56.712 0 0 0-16.5 4 256.16 256.16 0 0 0-7 36c-2.546 22.236 1.621 43.07 12.5 62.5l17 1a11.532 11.532 0 0 1 4.5 3.5 284.675 284.675 0 0 0 7 35c4.802 12.811 13.969 19.977 27.5 21.5 2.929 3.299 6.596 5.299 11 6 7.326.5 14.659.666 22 .5-.763.768-1.763 1.268-3 1.5-6 .667-12 .667-18 0-4.796-.483-8.796-2.483-12-6-10.188-.343-18.355-4.51-24.5-12.5-5.806-12.02-9.473-24.687-11-38-.374-1.991-1.207-3.658-2.5-5-.333-1-1-1.667-2-2-1.721-2.194-4.055-3.361-7-3.5-3.45-.175-6.783-.342-10-.5-14.124-23.111-17.957-47.778-11.5-74a225.566 225.566 0 0 1 5.5-25c-.674-1.695-1.341-3.362-2-5-.237-1.291.096-2.291 1-3 .996.086 1.829-.248 2.5-1a201.383 201.383 0 0 1 20-49c.849-3.021 1.683-6.021 2.5-9a307.142 307.142 0 0 1 24.5-41 2839.436 2839.436 0 0 1 59-68c5.616-8.175 9.282-17.175 11-27 11.368-24.035 28.368-43.035 51-57 5.012 3.282 10.512 5.282 16.5 6a48039.05 48039.05 0 0 0 29-8.5c8.916-3.945 16.916-9.112 24-15.5h3c4.31-.58 8.643-.914 13-1z"/><path style="opacity:1" fill="#0e0e0e" d="M779.5 274.5a529.05 529.05 0 0 1 14.5 77 282.663 282.663 0 0 1-1.5 50h-4a204.71 204.71 0 0 0 .5-52 627.745 627.745 0 0 0-13.5-73c1.014-1.174 2.347-1.84 4-2z"/><path style="opacity:1" fill="#11100f" d="M720.5 289.5a215.645 215.645 0 0 0-12 15c4.389-13.633-.611-21.3-15-23-8.119-.355-14.619 2.645-19.5 9 2.436 14.183 1.769 28.183-2 42 6.945-6.225 14.779-11.058 23.5-14.5a162.014 162.014 0 0 1 11-10.5c-1.213 2.725-3.046 5.059-5.5 7-1.411 2.15-2.245 4.484-2.5 7v2a47.499 47.499 0 0 0 1 5.5c-4.364 10.368-10.364 19.702-18 28a2.428 2.428 0 0 1-2 .5 443.915 443.915 0 0 0 14.5-20c3.32-4.372 3.32-8.705 0-13-.964 11.643-7.131 19.143-18.5 22.5-9.647 2.625-13.814-.875-12.5-10.5a51.423 51.423 0 0 0 7-15c.667-8.333.667-16.667 0-25a28.043 28.043 0 0 0-1.5-5c3.032-7.196 8.365-11.696 16-13.5 14.537-3.728 24.87 1.105 31 14.5 1.44-1.452 3.106-2.452 5-3z"/><path style="opacity:1" fill="#777" d="M789.5 282.5c-1.931-2.294-2.764-4.961-2.5-8a22.394 22.394 0 0 1 2.5 8z"/><path style="opacity:1" fill="#fafafa" d="M708.5 304.5c-1.406.473-2.073 1.473-2 3a162.014 162.014 0 0 0-11 10.5c-8.721 3.442-16.555 8.275-23.5 14.5 3.769-13.817 4.436-27.817 2-42 4.881-6.355 11.381-9.355 19.5-9 14.389 1.7 19.389 9.367 15 23z"/><path style="opacity:1" fill="#0b0b0b" d="M769.5 281.5c.167 24.002 0 48.002-.5 72a538.537 538.537 0 0 1-5.5 52c-2.448.49-4.115-.343-5-2.5a419.958 419.958 0 0 0 5.5-40.5 1497.77 1497.77 0 0 0 1.5-77v-1l4-3z"/><path style="opacity:1" fill="#020202" d="M89.5 291.5c6.88-1.305 13.879-1.139 21 .5-.906 1.699-1.239 3.533-1 5.5h-5c-4.47-.986-9.137-1.319-14-1 .284-1.915-.049-3.581-1-5z"/><path style="opacity:1" fill="#070707" d="M72.5 304.5v6h-7v3a52.632 52.632 0 0 0-3 16 13.115 13.115 0 0 1-7-1c.71-5.41 1.71-10.744 3-16 .543-.06.876-.393 1-1a9.86 9.86 0 0 0-6-1v-6a72.368 72.368 0 0 0 12-.5c-.752-.671-1.086-1.504-1-2.5 4.743-5.583 10.743-8.75 18-9.5 1.26 1.814 1.26 3.647 0 5.5-4.294 1.145-7.96 3.312-11 6.5.228.399.562.565 1 .5z"/><path style="opacity:1" fill="#080808" d="M106.5 311.5v-6c2.235.295 4.235-.039 6-1 .43-4.219 2.43-7.052 6-8.5 3.09 5.663 2.09 10.663-3 15a40.914 40.914 0 0 1-9 .5z"/><path style="opacity:1" fill="#777" d="M89.5 291.5c.951 1.419 1.284 3.085 1 5 4.863-.319 9.53.014 14 1h-15v-6z"/><path style="opacity:1" fill="#120d0c" d="M736.5 301.5h1a4.934 4.934 0 0 1 3 .5 49.781 49.781 0 0 1-11 7.5c1.624-3.29 3.957-5.957 7-8z"/><path style="opacity:1" fill="#e56564" d="M718.5 299.5a2.428 2.428 0 0 1 2 .5 55.747 55.747 0 0 1-5.5 4.5c.112-2.297 1.278-3.964 3.5-5z"/><path style="opacity:1" fill="#797979" d="M45.5 310.5v-6h-19v6c-.968-2.107-1.302-4.441-1-7h21c.302 2.559-.032 4.893-1 7z"/><path style="opacity:1" fill="#adadad" d="M64.5 301.5c-.086.996.248 1.829 1 2.5a72.368 72.368 0 0 1-12 .5v6a9.86 9.86 0 0 1 6 1c-.124.607-.457.94-1 1-1.765-.961-3.765-1.295-6-1v-8c4.327.484 8.327-.182 12-2z"/><path style="opacity:1" fill="#0f0f0f" d="M-.5 303.5h20v7h-20v-7z"/><path style="opacity:1" d="M45.5 310.5h-19v-6h19v6z"/><path style="opacity:1" fill="#0f0f0f" d="M79.5 304.5h20v7h-20v-7z"/><path style="opacity:1" fill="#291717" d="M708.5 304.5c.073 1.527-.594 2.527-2 3-.073-1.527.594-2.527 2-3z"/><path style="opacity:1" fill="#919191" d="M112.5 304.5c-1.765.961-3.765 1.295-6 1v6c-.968-2.107-1.302-4.441-1-7h7z"/><path style="opacity:1" fill="#818181" d="M72.5 304.5c.968 2.107 1.302 4.441 1 7-3.033-.368-5.7.298-8 2v-3h7v-6z"/><path style="opacity:1" fill="#f77777" d="M698.5 323.5v-2c6.84-3.341 11.84-8.507 15-15.5 11.612 1.31 11.279 3.143-1 5.5-.417 2.579.25 4.746 2 6.5a451.287 451.287 0 0 0-16 5.5z"/><path style="opacity:1" fill="#0f0a0a" d="M726.5 313.5c1.208.734 2.541 1.067 4 1v5a53.768 53.768 0 0 0-10 2c2.012-2.705 4.012-5.372 6-8z"/><path style="opacity:1" fill="#090909" d="M1297.5 317.5c-.33 28.341 0 56.675 1 85 .61-.124.94-.457 1-1a3105.52 3105.52 0 0 1 49-43.5 121.19 121.19 0 0 1 22 0 3817.206 3817.206 0 0 0-54 48.5 4314.196 4314.196 0 0 0 56 54.5c-7.33.667-14.67.667-22 0-17.17-16.5-34.33-33-51.5-49.5-.5 16.663-.67 33.33-.5 50h-18v-144h17z"/><path style="opacity:1" fill="#606060" d="M1297.5 317.5c.67 28 1.33 56 2 84-.06.543-.39.876-1 1-1-28.325-1.33-56.659-1-85z"/><path style="opacity:1" fill="#fd7e7e" d="M719.5 322.5a558.208 558.208 0 0 1-.5 11c-6.461 14.462-15.295 27.295-26.5 38.5a470.395 470.395 0 0 1-25 15c-6.256 11.93-14.423 22.43-24.5 31.5a31.317 31.317 0 0 0-5 8 265.62 265.62 0 0 0-10 38l-9 58a203.052 203.052 0 0 1-11.5 32 53.858 53.858 0 0 0-9 4l-1-1c1.809-4.34 2.476-8.674 2-13a40.796 40.796 0 0 0-6.5 4 300.669 300.669 0 0 0 11-32 6579.557 6579.557 0 0 0 10-65 172.723 172.723 0 0 1 9-33 52.17 52.17 0 0 1 7-10c10.399-9.984 19.232-21.151 26.5-33.5a314.81 314.81 0 0 0 21-11c9.331-7.665 16.831-16.831 22.5-27.5a42.36 42.36 0 0 1 1.5-8.5c5.68-2.949 11.68-4.783 18-5.5z"/><path style="opacity:1" fill="#0e0e0e" d="M213.5 323.5c8.128-.208 12.462 3.792 13 12h-7c-.569-5.118-2.902-6.118-7-3-5.353-3.508-5.019-6.508 1-9z"/><path style="opacity:1" d="M991.5 338.5h-49v123h-18v-123h-50v-15h117v15z"/><path style="opacity:1" fill="#800607" d="M542.5 185.5h1c.473 1.406 1.473 2.073 3 2v1c-9.759 10.481-7.759 17.481 6 21 3.099-.143 4.932-1.81 5.5-5a46.616 46.616 0 0 0 4.5-18c1.792.134 3.458-.199 5-1a85.161 85.161 0 0 1-2 14c5.676.166 11.343-.001 17-.5a79.946 79.946 0 0 0 17-12 18.453 18.453 0 0 1 6-.5c-7.084 6.388-15.084 11.555-24 15.5a48039.05 48039.05 0 0 1-29 8.5c-5.988-.718-11.488-2.718-16.5-6-22.632 13.965-39.632 32.965-51 57-1.718 9.825-5.384 18.825-11 27a2839.436 2839.436 0 0 0-59 68 307.142 307.142 0 0 0-24.5 41 74.318 74.318 0 0 1 8.5-21 416.637 416.637 0 0 1 15-23 2326.977 2326.977 0 0 1 54-61 102.264 102.264 0 0 0 8-11c8.393-30.435 25.06-55.435 50-75-1.735-4.948-4.235-9.614-7.5-14l2-2h2c5.523-.322 10.023 1.678 13.5 6 1.674-4.024 3.841-7.691 6.5-11z"/><path style="opacity:1" fill="#f17171" d="M526.5 195.5c4.26 1.056 6.26 3.556 6 7.5-.949.617-1.782.451-2.5-.5l-3.5-7z"/><path style="opacity:1" fill="#f87878" d="M562.5 186.5a46.616 46.616 0 0 1-4.5 18c-.568 3.19-2.401 4.857-5.5 5-13.759-3.519-15.759-10.519-6-21l4 2a185.422 185.422 0 0 0-1 11h5c-.011-3.964.989-7.631 3-11a21.614 21.614 0 0 1 5-4z"/><path style="opacity:1" fill="#850707" d="M550.5 190.5c2.292 1.186 4.626 1.186 7 0-2.011 3.369-3.011 7.036-3 11h-5c.224-3.679.558-7.346 1-11z"/><path style="opacity:1" fill="#eee7e7" d="m550.5 190.5-4-2v-1c3.177-2.669 4.51-1.669 4 3z"/><path style="opacity:1" fill="#f1f1f1" d="M687.5 326.5c1.725.343 2.225 1.343 1.5 3-4.285 9.388-11.451 13.388-21.5 12a169.634 169.634 0 0 0 20-15z"/><path style="opacity:1" fill="#121212" d="M137.5 331.5c6.009-.166 12.009.001 18 .5 1.75 1.754 2.417 3.921 2 6.5h-20v-7z"/><path style="opacity:1" fill="#0d0d0d" d="M126.5 333.5h4c.731 2.099.731 4.099 0 6-5.286 1.641-9.953 4.308-14 8a31.84 31.84 0 0 1-5-4.5c4.66-3.851 9.66-7.018 15-9.5z"/><path style="opacity:1" fill="#101010" d="M201.5 333.5c2.668.334 4.668 1.667 6 4a105.726 105.726 0 0 0-12.5 15 35.594 35.594 0 0 1-4.5-4 123.307 123.307 0 0 1 11-15z"/><path style="opacity:1" fill="#121212" d="M164.5 334.5c6.827 2.002 12.661 5.668 17.5 11-.285 3.242-2.118 4.742-5.5 4.5-3.315-4.318-7.481-7.485-12.5-9.5a17.65 17.65 0 0 1 .5-6z"/><path style="opacity:1" fill="#0d0d0d" d="M54.5 336.5h7v20h-7v-20z"/><path style="opacity:1" fill="#101010" d="M262.5 336.5c7.487.121 14.487 1.955 21 5.5a47.02 47.02 0 0 1-3.5 5.5c-5.366-3.287-11.2-4.62-17.5-4v-7z"/><path style="opacity:1" fill="#0a0a0a" d="M251.5 338.5h4c.731 2.099.731 4.099 0 6-4.926 2.263-8.926 5.596-12 10a18.924 18.924 0 0 1-5-3c3.382-5.382 7.715-9.715 13-13z"/><path style="opacity:1" fill="#5a5a5a" d="M874.5 338.5h50v123a3720.344 3720.344 0 0 1-1-122 600.937 600.937 0 0 1-49-1z"/><path style="opacity:1" fill="#cfcfcf" d="M991.5 338.5a576.628 576.628 0 0 1-48 1c.332 40.837-.001 81.503-1 122v-123h49z"/><path style="opacity:1" fill="#111" d="M139.5 340.5a32.462 32.462 0 0 1 8 .5c.486 2.027.486 4.193 0 6.5-5.799-.849-10.299 1.151-13.5 6a40.79 40.79 0 0 1-5.5-2.5c2.904-4.407 6.571-7.907 11-10.5z"/><path style="opacity:1" fill="#020202" d="M220.5 342.5h6v20h-6v-20z"/><path style="opacity:1" fill="#101010" d="M154.5 343.5c7.471.901 14.137 3.734 20 8.5a13.92 13.92 0 0 0-3 4c-2.661.062-4.995-.938-7-3a49.887 49.887 0 0 0-9-3c-.923-2.041-1.256-4.208-1-6.5z"/><path style="opacity:1" fill="#111" d="M288.5 345.5c7.177 4.205 11.177 10.538 12 19a9.108 9.108 0 0 0-5 1 295.771 295.771 0 0 0-6.5-12l-3-2c.483-2.037 1.316-4.037 2.5-6z"/><path style="opacity:1" fill="#0e0e0e" d="M106.5 349.5a27.563 27.563 0 0 1 6 3.5c-3.072 4.711-5.072 9.878-6 15.5a9.86 9.86 0 0 1-6 1c.184-7.218 2.184-13.884 6-20z"/><path style="opacity:1" fill="#0a0a0a" d="M184.5 353.5c2.405 1.187 4.739 2.687 7 4.5a4.933 4.933 0 0 0-1 2.5 225.256 225.256 0 0 0 3 13h-7a17.758 17.758 0 0 0-1.5-7l-2 2a60.931 60.931 0 0 0-.5 11h-6c.577-4.581-.423-8.748-3-12.5 2.169-1.328 2.502-2.994 1-5a11.821 11.821 0 0 1 4.5-3.5c2.793 2.386 3.626 1.719 2.5-2 .84-1.235 1.84-2.235 3-3z"/><path style="opacity:1" fill="#fe8b8b" d="M505.5 412.5a514.367 514.367 0 0 0 4-3l-3.5-5a9.175 9.175 0 0 1-4.5 2c-7.965-19.939-2.965-35.773 15-47.5 16.795-7.011 31.628-4.178 44.5 8.5 12.882 19.279 10.715 36.779-6.5 52.5-18.594 10.823-34.927 8.323-49-7.5z"/><path style="opacity:1" fill="#020202" d="M1041.5 356.5c.32 5.526-.01 10.86-1 16-17.95-5.862-31.11-.529-39.5 16a43.385 43.385 0 0 0-2 8c-.5 21.664-.667 43.331-.5 65h-17v-104h17c-.166 5.344.001 10.677.5 16 5.35-9.099 13.18-14.933 23.5-17.5 6.51-.82 12.85-.653 19 .5z"/><path style="opacity:1" fill="#040404" d="M1087.5 355.5c14.41-1.896 27.74.937 40 8.5 7.52 6.861 12.02 15.361 13.5 25.5.5 23.998.67 47.998.5 72h-17c.17-5.011 0-10.011-.5-15-8.52 12.595-20.52 18.595-36 18-25.42-2.443-36.42-16.443-33-42 2.53-10.873 9.03-18.373 19.5-22.5a41.44 41.44 0 0 1 14-3c12-.5 24-.667 36-.5.21-14.966-7.12-23.799-22-26.5-14.09-1.549-27.42.951-40 7.5-1.3-5.219-1.3-10.386 0-15.5 8.32-2.756 16.65-4.922 25-6.5z"/><path style="opacity:1" fill="#050505" d="M1251.5 361.5c.32 5.195-.01 10.195-1 15-10.99-5.697-22.65-7.863-35-6.5-12.53 2.865-21.03 10.365-25.5 22.5-4.7 16.792-2.37 32.459 7 47 6.76 7.211 15.09 10.544 25 10 5.21-.11 10.37-.61 15.5-1.5 5-1.942 10-3.776 15-5.5.17 5.011 0 10.011-.5 15-21.33 10.072-42.17 9.238-62.5-2.5-13.75-12.183-20.09-27.517-19-46 .02-33.515 16.68-51.348 50-53.5 10.76-.047 21.1 1.953 31 6z"/><path style="opacity:1" fill="#040404" d="M1416.5 355.5c40.42-1.913 59.42 17.42 57 58h-78c2.76 28.566 18.43 40.399 47 35.5a88.038 88.038 0 0 0 26.5-8.5c.83 5.364.66 10.698-.5 16-19.16 8.64-38.82 10.14-59 4.5-19.68-7.852-30.18-22.352-31.5-43.5-3.56-31.278 9.28-51.945 38.5-62z"/><path style="opacity:1" fill="#010101" d="M1561.5 356.5v17c-23.83-7.838-38.33.495-43.5 25-.5 20.997-.67 41.997-.5 63h-16v-103h16c-.17 5.011 0 10.011.5 15 .72-.544 1.22-1.211 1.5-2 10.54-14.075 24.54-19.075 42-15z"/><path style="opacity:1" fill="#6d6d6d" d="M127.5 359.5c2.107-.968 4.441-1.302 7-1v3c-1.956-1.648-4.289-2.315-7-2z"/><path style="opacity:1" fill="#262626" d="M1517.5 357.5v1h-16v103c-1-34.496-1.33-69.163-1-104h17z"/><path style="opacity:1" fill="#ababab" d="M1517.5 357.5c.67 4.667 1.33 9.333 2 14-.28.789-.78 1.456-1.5 2-.5-4.989-.67-9.989-.5-15v-1z"/><path style="opacity:1" fill="#080808" d="M127.5 359.5c2.711-.315 5.044.352 7 2 1.194 4.032 3.694 7.032 7.5 9 .533 6.296-1.634 7.463-6.5 3.5-5.158-3.485-7.825-8.318-8-14.5z"/><path style="opacity:1" fill="#0f0f0f" d="M235.5 358.5c2.18.617 4.18 1.617 6 3a58.74 58.74 0 0 0-4 18c-2.559.11-4.892-.556-7-2a132.685 132.685 0 0 1 5-19z"/><path style="opacity:1" fill="#666" d="M1251.5 361.5c1.31 5.18 1.31 10.514 0 16-.61-.124-.94-.457-1-1 .99-4.805 1.32-9.805 1-15z"/><path style="opacity:1" fill="#020202" d="M55.5 363.5h6v19h-6v-19z"/><path style="opacity:1" fill="#606060" d="M1041.5 356.5c1.32 5.513 1.32 11.18 0 17-.61-.124-.94-.457-1-1 .99-5.14 1.32-10.474 1-16z"/><path style="opacity:1" fill="#121212" d="M165.5 368.5c.996-.086 1.829.248 2.5 1a20.093 20.093 0 0 1 1.5 6 80.87 80.87 0 0 1-21 2v-6c6.037.374 11.703-.626 17-3z"/><path style="opacity:1" d="M226.5 369.5v19h-6v-19h6z"/><path style="opacity:1" fill="#fbfbfb" d="M1421.5 369.5c22.03-1.301 33.7 9.033 35 31h-61c1.5-16.486 10.16-26.819 26-31z"/><path style="opacity:1" fill="#0e0e0e" d="M301.5 370.5c2.664 6.29 4.331 12.956 5 20a51.569 51.569 0 0 1-7 1 87.083 87.083 0 0 0-3-20c1.915.284 3.581-.049 5-1z"/><path style="opacity:1" fill="#161616" d="M98.5 376.5h7v20h-7v-20z"/><path style="opacity:1" fill="#626262" d="M55.5 363.5v19h6c-2.107.968-4.44 1.302-7 1-.324-6.854.01-13.521 1-20z"/><path style="opacity:1" fill="#030303" d="M187.5 380.5h6a134.215 134.215 0 0 1-1 20l-6-1a141.304 141.304 0 0 0 1-19z"/><path style="opacity:1" fill="#737373" d="M226.5 369.5h-6v19h6c-2.107.968-4.441 1.302-7 1v-21c2.559-.302 4.893.032 7 1z"/><path style="opacity:1" fill="#070707" d="M229.5 385.5h7a122.16 122.16 0 0 0-1 20h-6v-20z"/><path style="opacity:1" fill="#050505" d="M176.5 386.5h6v11a41.73 41.73 0 0 1-1 9l-6-1a141.304 141.304 0 0 0 1-19z"/><path style="opacity:1" fill="#5a5a5a" d="M176.5 386.5c2.107-.968 4.441-1.302 7-1 .317 4.202-.017 8.202-1 12v-11h-6z"/><path style="opacity:1" fill="#0c0605" d="M525.5 389.5c2.823.648 4.323 2.314 4.5 5a57.217 57.217 0 0 1-9.5 8.5c-1.712 1.751-3.712 2.418-6 2a13.92 13.92 0 0 0-3-4 78.218 78.218 0 0 0 14-11.5z"/><path style="opacity:1" fill="#141414" d="M55.5 389.5h7v20h-7v-20z"/><path style="opacity:1" fill="#101010" d="M219.5 395.5h7v20h-7v-20z"/><path style="opacity:1" fill="#0b0b0b" d="M300.5 397.5h6c.033 7.571-2.3 14.238-7 20-1.997-.486-3.331-1.653-4-3.5a88.068 88.068 0 0 0 5-16.5z"/><path style="opacity:1" fill="#0e0e0e" d="M102.5 402.5h5c.71 5.961 2.71 11.461 6 16.5-5.024 5.066-8.19 3.899-9.5-3.5a210.731 210.731 0 0 1-3.5-11 31.147 31.147 0 0 0 2-2z"/><path style="opacity:1" fill="#0e0b0b" d="M505.5 412.5a120.621 120.621 0 0 1-13 7c-1.711-1.74-2.544-3.74-2.5-6 4.147-1.982 7.98-4.316 11.5-7a9.175 9.175 0 0 0 4.5-2l3.5 5a514.367 514.367 0 0 1-4 3z"/><path style="opacity:1" fill="#0e0e0e" d="M184.5 406.5h6c-.746 7.239-3.079 13.906-7 20-2.254-.624-3.921-1.957-5-4a77.423 77.423 0 0 0 6-16z"/><path style="opacity:1" fill="#191414" d="M663.5 366.5c-4.566 3.057-8.733 6.724-12.5 11-5.808 10.481-13.141 19.815-22 28-7.496 10.126-12.496 21.46-15 34-4.184 21.125-8.35 42.125-12.5 63a1243.768 1243.768 0 0 1 9.5-60 208.92 208.92 0 0 1 8-27 220.63 220.63 0 0 1 23-27l9.5-15c3.399-3.366 7.399-5.699 12-7z"/><path style="opacity:1" fill="#fcfcfc" d="M1091.5 409.5h33c1.72 16.074-3.95 28.574-17 37.5-9.92 3.651-19.58 3.317-29-1-6.64-6.456-8.81-14.29-6.5-23.5 1.78-4.112 4.61-7.278 8.5-9.5 3.75-1.309 7.42-2.475 11-3.5z"/><path style="opacity:1" fill="#0f0f0f" d="M172.5 411.5c2.561-.053 4.561.947 6 3-2.892 6.385-7.059 11.718-12.5 16l-3.5-5c4.325-3.992 7.658-8.658 10-14z"/><path style="opacity:1" fill="#151515" d="M229.5 412.5h7v20h-7v-20z"/><path style="opacity:1" fill="#0f0f0f" d="M55.5 416.5h7v20h-7v-20z"/><path style="opacity:1" fill="#0d0d0d" d="M480.5 417.5c3.156.029 4.822 1.696 5 5-5.738 4.071-11.905 6.404-18.5 7-1.401-1.646-1.568-3.313-.5-5 5.007-1.837 9.673-4.17 14-7z"/><path style="opacity:1" fill="#0b0b0b" d="M238.5 418.5a18.453 18.453 0 0 1 6 .5 21.53 21.53 0 0 0 5 6 31.84 31.84 0 0 1-5 4.5c-1.871-1.267-3.704-1.267-5.5 0-1.321-3.704-1.487-7.371-.5-11zM290.5 420.5a27.563 27.563 0 0 1 6 3.5l-9 9a25.93 25.93 0 0 1-9 3.5c-.731-2.099-.731-4.099 0-6 4.921-2.256 8.921-5.59 12-10z"/><path style="opacity:1" fill="#0d0d0d" d="M219.5 422.5h7v20h-7v-20z"/><path style="opacity:1" fill="#0e0e0e" d="M116.5 424.5a101.218 101.218 0 0 0 17 8.5c-.906 1.699-1.239 3.533-1 5.5-7.615-.973-13.948-4.307-19-10a514.367 514.367 0 0 0 3-4z"/><path style="opacity:1" fill="#0c0c0c" d="M455.5 428.5c4.344.026 5.678 2.026 4 6a435.83 435.83 0 0 1-15.5 6c-2.321-1.61-3.154-3.61-2.5-6 4.989-1.501 9.655-3.501 14-6z"/><path style="opacity:1" fill="#0f0f0f" d="M143.5 439.5h-4v-6a65 65 0 0 0 17-5c2.078 1.928 2.745 4.095 2 6.5a84.752 84.752 0 0 1-15 4.5z"/><path style="opacity:1" fill="#0d0d0d" d="M173.5 429.5c3.399.237 5.232 1.904 5.5 5-4.059 5.275-9.226 8.942-15.5 11a60.667 60.667 0 0 0-3-5.5 59.61 59.61 0 0 0 9-5c1.964-1.451 3.297-3.284 4-5.5z"/><path style="opacity:1" fill="#121212" d="M253.5 429.5c2.516.255 4.85 1.089 7 2.5 3.652.499 7.318.665 11 .5a51.569 51.569 0 0 1 1 7c-7.108.75-13.775-.583-20-4l-1-1.5a15.414 15.414 0 0 0 2-4.5z"/><path style="opacity:1" fill="#810808" d="M390.5 397.5c-.817 2.979-1.651 5.979-2.5 9a201.383 201.383 0 0 0-20 49c-.671.752-1.504 1.086-2.5 1 5.343-21.009 13.676-40.676 25-59z"/><path style="opacity:1" fill="#131313" d="M243.5 434.5c1.478-.262 2.811.071 4 1 1.605 4.878 4.438 8.878 8.5 12 .293 3.369-1.207 5.202-4.5 5.5-5.031-4.553-8.698-10.053-11-16.5a44.093 44.093 0 0 0 3-2z"/><path style="opacity:1" fill="#0e0e0e" d="M431.5 437.5c1.175-.219 2.175.114 3 1a37.138 37.138 0 0 0 2 4.5c-6.412 2.926-12.912 4.759-19.5 5.5-1.11-1.897-1.276-3.73-.5-5.5a131.442 131.442 0 0 0 15-5.5z"/><path style="opacity:1" fill="#979797" d="M139.5 436.5v3h4c-1.419.951-3.085 1.284-5 1-.268-1.599.066-2.932 1-4z"/><path style="opacity:1" fill="#030303" d="M230.5 439.5c2.45-.202 4.783.131 7 1v18h-6a111.911 111.911 0 0 0-1-19z"/><path style="opacity:1" fill="#6a6a6a" d="M230.5 439.5c.949-.652 2.115-.986 3.5-1 1.681.108 2.848.775 3.5 2-2.217-.869-4.55-1.202-7-1z"/><path style="opacity:1" fill="#131313" d="M59.5 442.5a8.43 8.43 0 0 1 4 .5c3.61 3.483 7.944 5.316 13 5.5v7c-5.805-.399-11.138-2.233-16-5.5-4.076-2.708-4.41-5.208-1-7.5z"/><path style="opacity:1" fill="#0e0e0e" d="M153.5 441.5c1.948 1.82 2.948 4.154 3 7a177.046 177.046 0 0 0-20 4 11.988 11.988 0 0 0-1-6 208.736 208.736 0 0 0 18-5z"/><path style="opacity:1" fill="#111" d="M407.5 445.5c2.321 1.59 3.321 3.923 3 7a108.229 108.229 0 0 0-18.5 5c-1.345-2.33-1.512-4.663-.5-7a139.1 139.1 0 0 0 16-5z"/><path style="opacity:1" fill="#0f0f0f" d="M120.5 447.5h9v6a76.293 76.293 0 0 1-20 2v-6c3.925.07 7.591-.597 11-2z"/><path style="opacity:1" fill="#8a8a8a" d="M102.5 450.5h-19v6c-.968-2.107-1.302-4.441-1-7 6.854-.324 13.521.009 20 1z"/><path style="opacity:1" fill="#010101" d="M226.5 449.5v19h-6v-19h6z"/><path style="opacity:1" d="M102.5 450.5v6h-19v-6h19z"/><path style="opacity:1" fill="#0f0f0f" d="M261.5 452.5c5.285 3.041 10.951 5.208 17 6.5.486 2.027.486 4.193 0 6.5-7.15-1.069-13.816-3.569-20-7.5a24.257 24.257 0 0 0 3-5.5z"/><path style="opacity:1" fill="#0b0707" d="M345.5 466.5a51.569 51.569 0 0 0-7 1v-7a29.23 29.23 0 0 0 9-1 49.602 49.602 0 0 1 10-.5c.906 1.699 1.239 3.533 1 5.5l-13 2z"/><path style="opacity:1" fill="#121212" d="M285.5 461.5a218.12 218.12 0 0 0 20 1v7a228.182 228.182 0 0 1-19-1.5 4.457 4.457 0 0 1-2-1.5 9.108 9.108 0 0 0 1-5z"/><path style="opacity:1" fill="#090909" d="M312.5 469.5v-6c2.885.306 5.552-.027 8-1a72.032 72.032 0 0 0 11-1v7c-6.329.4-12.662.733-19 1z"/><path style="opacity:1" fill="#810606" d="M364.5 459.5c.659 1.638 1.326 3.305 2 5a225.566 225.566 0 0 0-5.5 25c-6.457 26.222-2.624 50.889 11.5 74 3.217.158 6.55.325 10 .5 2.945.139 5.279 1.306 7 3.5a69.234 69.234 0 0 0-16 1c-4.39-3.763-7.557-8.43-9.5-14a222.038 222.038 0 0 1-5-16 240.067 240.067 0 0 1-19.5-30c-.295-2.235.039-4.235 1-6 1.951 1.216 3.451 2.882 4.5 5a267.498 267.498 0 0 0 11 19c-1.012-22.902 1.821-45.235 8.5-67z"/><path style="opacity:1" fill="#666" d="M226.5 449.5h-6v19h6c-2.107.968-4.441 1.302-7 1v-21c2.559-.302 4.893.032 7 1z"/><path style="opacity:1" fill="#0f0f0f" d="M230.5 465.5h7c.162 4.682-1.005 9.015-3.5 13-4.261 2.981-8.095 2.648-11.5-1 1.154-3.19 3.488-4.856 7-5a15.418 15.418 0 0 0 1-7z"/><path style="opacity:1" fill="#4f4f4f" d="M320.5 462.5c-2.448.973-5.115 1.306-8 1v6c-.968-2.107-1.302-4.441-1-7h9z"/><path style="opacity:1" fill="#121010" d="M340.5 501.5v1c-.961 1.765-1.295 3.765-1 6v17c-1.322-.17-2.489.163-3.5 1a70.203 70.203 0 0 0-13-15 320.005 320.005 0 0 0 7 13c1.445 3.65 2.445 7.317 3 11-6.488-6.829-13.821-12.495-22-17l-1.5 1c6.259 14.091 16.592 23.925 31 29.5a201.619 201.619 0 0 0-16 3 18.924 18.924 0 0 0-5 3c10.579-.075 20.579 2.092 30 6.5.333 1 1 1.667 2 2l2 6a139.113 139.113 0 0 0-14-7.5 3222.641 3222.641 0 0 0-34-3 62.396 62.396 0 0 1 20-12.5 170.755 170.755 0 0 1-9.5-8 170.785 170.785 0 0 1-16.5-26.5 300.64 300.64 0 0 0 13 2 26.035 26.035 0 0 1 7.5 4.5c-2.94-5.264-5.44-10.93-7.5-17 8.409 2.149 15.576 6.816 21.5 14l1-19a38.47 38.47 0 0 0 5.5 5z"/><path style="opacity:1" fill="#fc7c7c" d="M339.5 508.5a240.067 240.067 0 0 0 19.5 30 222.038 222.038 0 0 0 5 16c1.943 5.57 5.11 10.237 9.5 14a69.234 69.234 0 0 1 16-1c1 .333 1.667 1 2 2a168.298 168.298 0 0 0 2 18c-6.223.817-11.89-.516-17-4a179.826 179.826 0 0 0-25-20c-1-.333-1.667-1-2-2a157.987 157.987 0 0 1-10-36v-17z"/><path style="opacity:1" fill="#f5f4f4" d="M339.5 525.5a157.987 157.987 0 0 0 10 36c-9.421-4.408-19.421-6.575-30-6.5a18.924 18.924 0 0 1 5-3 201.619 201.619 0 0 1 16-3c-14.408-5.575-24.741-15.409-31-29.5l1.5-1c8.179 4.505 15.512 10.171 22 17-.555-3.683-1.555-7.35-3-11a320.005 320.005 0 0 1-7-13 70.203 70.203 0 0 1 13 15c1.011-.837 2.178-1.17 3.5-1z"/><path style="opacity:1" fill="#1a1515" d="M601.5 504.5c-1.868 21.277-8.868 40.61-21 58 9.9-18.431 16.9-37.765 21-58z"/><path style="opacity:1" fill="#0e0d0d" d="M570.5 612.5a11.743 11.743 0 0 0 3-5h1c4.164.836 8.331 1.836 12.5 3l1.5-1c-2.305-3.818-5.638-6.151-10-7a46.42 46.42 0 0 1 6-10c.667 0 1-.333 1-1 9.769-3.382 18.436-8.549 26-15.5-6.232 1.606-12.232 4.106-18 7.5a43.836 43.836 0 0 0-2-1c.851-2.382 2.184-4.382 4-6 5.715-4.121 8.715-9.454 9-16a409.027 409.027 0 0 1 3-6 39.064 39.064 0 0 0 4.5-2c.001 7.177-2.165 13.677-6.5 19.5a277.425 277.425 0 0 1 18-5c-3.533 6.54-8.2 12.206-14 17a133.478 133.478 0 0 1-27 14.5c8.237 4.139 12.737 10.805 13.5 20-8.038-3.957-16.538-5.957-25.5-6z"/><path style="opacity:1" fill="#f37373" d="M592.5 553.5a2.428 2.428 0 0 1 2 .5c-3.028 6.034-7.195 11.201-12.5 15.5 1.4-4.133 3.4-8.133 6-12 1.992-.828 3.492-2.161 4.5-4z"/><path style="opacity:1" fill="#ede4e4" d="M604.5 560.5c-.285 6.546-3.285 11.879-9 16l7-14 2-2z"/><path style="opacity:1" fill="#251515" d="M580.5 562.5c-.25 2.174-1.25 3.841-3 5 .25-2.174 1.25-3.841 3-5z"/><path style="opacity:1" fill="#fa7b7b" d="m602.5 562.5-7 14c-1.816 1.618-3.149 3.618-4 6a62.722 62.722 0 0 0-6 9c0 .667-.333 1-1 1a102.413 102.413 0 0 1-13 4c-1 5 1 7 6 6a18.924 18.924 0 0 1-3 5h-1a50.464 50.464 0 0 0-10 .5 175.757 175.757 0 0 0-20 6c15.012-10.681 26.845-24.181 35.5-40.5l2.5 3a4639.823 4639.823 0 0 1 21-14z"/><path style="opacity:1" fill="#850909" d="M351.5 563.5a179.826 179.826 0 0 1 25 20 20.69 20.69 0 0 0-5 1 190.792 190.792 0 0 1-15-11l-3-4-2-6z"/><path style="opacity:1" fill="#f88080" d="M356.5 573.5a190.792 190.792 0 0 0 15 11v1a17.65 17.65 0 0 1-6 .5 89.313 89.313 0 0 1-9-12.5z"/><path style="opacity:1" fill="#e8e7e7" d="M585.5 591.5a62.722 62.722 0 0 1 6-9c.65.304 1.317.637 2 1 5.768-3.394 11.768-5.894 18-7.5-7.564 6.951-16.231 12.118-26 15.5z"/><path style="opacity:1" fill="#1b0c0a" d="M376.5 583.5a19.22 19.22 0 0 1 1 6l-6-4v-1a20.69 20.69 0 0 1 5-1z"/><path style="opacity:1" fill="#fd7e7e" d="M377.5 589.5c5.322 2.61 10.989 3.61 17 3 1.977 9.771 5.977 18.604 12 26.5a176.923 176.923 0 0 1-8 13.5c-6.741-4.786-11.574-11.119-14.5-19a85.66 85.66 0 0 1-6.5-24z"/><path style="opacity:1" fill="#880d0c" d="M584.5 592.5a46.42 46.42 0 0 0-6 10h-1c-5 1-7-1-6-6a102.413 102.413 0 0 0 13-4z"/><path style="opacity:1" fill="#e8e5e5" d="M577.5 602.5h1c4.362.849 7.695 3.182 10 7l-1.5 1a173.396 173.396 0 0 0-12.5-3 18.924 18.924 0 0 0 3-5z"/><path style="opacity:1" fill="#171212" d="M563.5 589.5c-5.024 7.535-11.024 14.368-18 20.5-7.538 5.124-15.872 7.957-25 8.5 8.271-2.63 16.271-6.13 24-10.5a166.339 166.339 0 0 0 19-18.5z"/><path style="opacity:1" fill="#fe7e7e" d="M569.5 612.5c-10.302 12.99-23.636 21.157-40 24.5a186.6 186.6 0 0 1-19 2.5 98.667 98.667 0 0 0-18-1.5c-19.462 11.877-40.128 15.043-62 9.5a75.495 75.495 0 0 1 9-14c12.323 2.084 24.323.917 36-3.5a118.421 118.421 0 0 1 16-9c9.339.669 18.673 1.336 28 2 8.416-3.485 17.082-4.819 26-4 7.557-3.91 15.557-6.076 24-6.5z"/><path style="opacity:1" fill="#0d0909" d="M520.5 618.5c-2.763 1.155-5.763 1.822-9 2-10.167-2.909-20.167-2.576-30 1 1.928-1.974 4.261-3.474 7-4.5a173.25 173.25 0 0 1 32 1.5z"/><path style="opacity:1" fill="#fd7e7e" d="M425.5 645.5a414.068 414.068 0 0 1-24-9v-1a149.218 149.218 0 0 0 9.5-14 103.382 103.382 0 0 0 8.5 4.5c5.585.382 10.252 2.548 14 6.5a124.029 124.029 0 0 1-8 13z"/><path style="opacity:1" fill="#371f1f" d="M469.5 627.5c-2.015 1.424-4.348 2.09-7 2 2.015-1.424 4.348-2.09 7-2z"/><path style="opacity:1" fill="#101010" d="m398.5 633.5 3 2v1a593.646 593.646 0 0 1-63.5 88c-20.095 22.422-44.262 38.922-72.5 49.5a2594.785 2594.785 0 0 1-68 20c-33.436 11.13-60.27 30.964-80.5 59.5-11.885 23.499-14.885 48.166-9 74a609.114 609.114 0 0 1 12 53 614.783 614.783 0 0 0 7.5 48 14.706 14.706 0 0 0 1.5-5c.667-11 .667-22 0-33a494.033 494.033 0 0 0-11-58 233.189 233.189 0 0 1-2-44c2.289-12.88 7.289-24.546 15-35a767.199 767.199 0 0 1 35.5-30.5c21.773-15.593 46.106-24.259 73-26a380.297 380.297 0 0 0 59-19c11.821-5.659 22.321-13.159 31.5-22.5l20-24 50-52a395.339 395.339 0 0 0 25.5-33c1.459-.067 2.792.266 4 1-8.44 13.955-18.274 26.955-29.5 39a977.31 977.31 0 0 0-62 67c-15.444 17.312-34.277 29.479-56.5 36.5a470.863 470.863 0 0 1-72 17c-17.254 5.459-32.92 13.792-47 25a513.131 513.131 0 0 0-28.5 25.5c-9.425 12.775-13.925 27.108-13.5 43a287.748 287.748 0 0 0 2.5 32 634.776 634.776 0 0 1 11 58c1.072 14.43.406 28.76-2 43a82.181 82.181 0 0 1-5 11 186.938 186.938 0 0 1-7-26 518.297 518.297 0 0 0-6-45 1337.101 1337.101 0 0 1-13-61c-3.06-42.043 12.773-74.876 47.5-98.5 26.108-17.709 54.774-29.375 86-35 40.762-9.287 74.929-29.453 102.5-60.5a693.8 693.8 0 0 0 61.5-85z"/><path style="opacity:1" fill="#f9f9f9" d="M401.5 636.5a414.068 414.068 0 0 0 24 9v1a395.339 395.339 0 0 1-25.5 33l-50 52-20 24c-9.179 9.341-19.679 16.841-31.5 22.5a380.297 380.297 0 0 1-59 19c-26.894 1.741-51.227 10.407-73 26a767.199 767.199 0 0 0-35.5 30.5c-7.711 10.454-12.711 22.12-15 35a233.189 233.189 0 0 0 2 44 494.033 494.033 0 0 1 11 58c.667 11 .667 22 0 33a14.706 14.706 0 0 1-1.5 5 614.783 614.783 0 0 1-7.5-48 609.114 609.114 0 0 0-12-53c-5.885-25.834-2.885-50.501 9-74 20.23-28.536 47.064-48.37 80.5-59.5a2594.785 2594.785 0 0 0 68-20c28.238-10.578 52.405-27.078 72.5-49.5a593.646 593.646 0 0 0 63.5-88z"/></svg>