<svg xmlns="http://www.w3.org/2000/svg" width="464" height="434" style="shape-rendering:geometricPrecision;text-rendering:geometricPrecision;image-rendering:optimizeQuality;fill-rule:evenodd;clip-rule:evenodd"><path style="opacity:1" fill="#fefefe" d="M-.5-.5h464v434H-.5V-.5z"/><path style="opacity:1" fill="#dae1ea" d="M376.5 89.5c1.419-.951 3.085-1.284 5-1v3c-1.32-1.442-2.986-2.109-5-2z"/><path style="opacity:1" fill="#8ca0be" d="M381.5 92.5c2 1.333 3.667 3 5 5-2.667-.667-4.333-2.333-5-5z"/><path style="opacity:1" fill="#b9c5d8" d="M376.5 89.5v9c.302 2.559-.032 4.893-1 7a76.574 76.574 0 0 0-1-10c-.139-2.382.528-4.382 2-6z"/><path style="opacity:1" fill="#4a6a9a" d="M361.5 267.5c1.599.268 2.932-.066 4-1 .667 0 1-.333 1-1h2a49.928 49.928 0 0 1 10-3h9c-.891 2.722-.224 5.222 2 7.5-.556.383-.889.883-1 1.5v3c-5.195-.321-10.195.013-15 1-.904.709-1.237 1.709-1 3-3.377-.432-6.377.235-9 2-5.504-.35-10.837.317-16 2a28.819 28.819 0 0 1-10-1c-1.309 1.74-.976 3.073 1 4 1.291-.237 2.291.096 3 1l41 2c.38 2.198-.287 3.865-2 5-6.506-.768-12.839-.768-19 0a5.727 5.727 0 0 0-1 3h-1a223.112 223.112 0 0 1-20-2c-.992.172-1.658-.162-2-1-6.479-1.098-13.146-1.765-20-2-2.671-1.618-5.671-2.285-9-2-2.649-1.609-5.649-2.443-9-2.5-5.849-.818-11.515-.652-17 .5a252.294 252.294 0 0 0-28 3c-24.693-.38-49.36-1.38-74-3h-5c-.418-.722-1.084-1.222-2-1.5a60.931 60.931 0 0 0-11-.5 845.833 845.833 0 0 0-31.5-3c-2.033.006-3.866.339-5.5 1a236.572 236.572 0 0 0-36 3c-3.34.39-6.673.89-10 1.5a182.756 182.756 0 0 0-13 5.5 43.363 43.363 0 0 0-7 3h-2c-2.198-.38-3.865.287-5 2-4.675.561-9.009 1.894-13 4-3.216-.155-5.883.845-8 3h-2a24.935 24.935 0 0 1-7-.5c.88-.708 1.547-1.542 2-2.5h2c2.467-.255 4.467-1.255 6-3 2.652.09 4.986-.576 7-2h1c5.429-1.247 10.429-3.247 15-6 1.903-.296 3.57-.963 5-2 4.08-.589 7.746-1.922 11-4a18.452 18.452 0 0 0 6-.5c.556-.383.89-.883 1-1.5 7.287-3.26 14.954-5.26 23-6 4.317.417 8.317-.25 12-2v-1h1a797.402 797.402 0 0 1 73 2h2c.342.838 1.008 1.172 2 1a500.257 500.257 0 0 0 48 3.5 60.072 60.072 0 0 0 11.5 2.5 194.798 194.798 0 0 1 12.5-3l11-5.5c1.667-3 4-5.333 7-7l-1-1c2.04-1.769 3.54-3.935 4.5-6.5 2.315-10.194 1.982-20.194-1-30-4.327-25.144.173-48.477 13.5-70a99.981 99.981 0 0 1 13-12.5 37.885 37.885 0 0 0 10-6 102.312 102.312 0 0 1 17-3c.392-2.354.392-4.854 0-7.5-3.413-.559-6.246-2.226-8.5-5-.463-3.336-1.296-6.503-2.5-9.5.226-5.725 3.226-8.558 9-8.5 6.948 1.275 12.281 4.942 16 11 .946.487 1.946.82 3 1 6.352-5.341 13.686-8.841 22-10.5.837-1.011 1.17-2.178 1-3.5.897 1.098 1.73 1.098 2.5 0l1-9c4.092 2.94 7.259 6.606 9.5 11 3.904 4.619 8.904 7.119 15 7.5a62.114 62.114 0 0 0 16 8 19.887 19.887 0 0 0 4 3.5 93.442 93.442 0 0 0-.5 14 617.91 617.91 0 0 0-17.5 15.5l1 1c-1.078.674-1.745 1.674-2 3a70.005 70.005 0 0 1 5 10 477.884 477.884 0 0 1 1.5 25.5c2.59 3.259 5.756 5.759 9.5 7.5-1.076 1.726-1.243 3.559-.5 5.5a11.142 11.142 0 0 1 3.5 5.5 333.263 333.263 0 0 0-31-1 80.33 80.33 0 0 0-11 15.5c-6.756 6.328-11.922 13.328-15.5 21a162.692 162.692 0 0 1-12 13 12.93 12.93 0 0 0-.5 5c2.235.295 4.235-.039 6-1z"/><path style="opacity:1" fill="#aebcd2" d="M386.5 97.5c1.527-.073 2.527.594 3 2-1.527.073-2.527-.594-3-2z"/><path style="opacity:1" fill="#7990b4" d="M376.5 98.5c.973 2.448 1.306 5.115 1 8l-8 1c1.714-1.238 3.714-1.905 6-2 .968-2.107 1.302-4.441 1-7z"/><path style="opacity:1" fill="#c1ccdc" d="M331.5 104.5c2.466-1.134 5.133-1.301 8-.5 2.381.223 4.047 1.39 5 3.5-1.815-1.13-3.815-1.796-6-2-2.107-.968-4.441-1.302-7-1z"/><path style="opacity:1" fill="#899ebc" d="M331.5 104.5c2.559-.302 4.893.032 7 1a29.351 29.351 0 0 0-12 2c1.159-1.75 2.826-2.75 5-3z"/><path style="opacity:1" fill="#849aba" d="M392.5 103.5a49.937 49.937 0 0 1 4 5.5 8.43 8.43 0 0 0 4 .5v1c-5.128.541-7.795-1.792-8-7z"/><path style="opacity:1" fill="#acbbd1" d="M326.5 107.5a6.547 6.547 0 0 1-3 3c0-2 1-3 3-3z"/><path style="opacity:1" fill="#c5cfde" d="M400.5 110.5v-1c2.981-.318 5.315.682 7 3h-2a16.339 16.339 0 0 1-5-2z"/><path style="opacity:1" fill="#8096b8" d="M405.5 112.5h2l1 2c-1.527.073-2.527-.594-3-2z"/><path style="opacity:1" fill="#c4cedd" d="M407.5 112.5a598.896 598.896 0 0 1 6 3h-2a5.727 5.727 0 0 1-3-1l-1-2z"/><path style="opacity:1" fill="#8298b9" d="M411.5 115.5h2l2 2c-1.88.271-3.213-.396-4-2z"/><path style="opacity:1" fill="#9bacc7" d="M417.5 117.5a5.727 5.727 0 0 1 3 1v1c-1.527.073-2.527-.594-3-2z"/><path style="opacity:1" fill="#a5b5cd" d="M420.5 119.5c1.983-.343 3.317.324 4 2-1.653-.16-2.986-.826-4-2z"/><path style="opacity:1" fill="#c7d1e0" d="M323.5 123.5c1.508 1.681 2.508 3.681 3 6-2.469-1.107-3.469-3.107-3-6z"/><path style="opacity:1" fill="#bac6d8" d="M326.5 129.5a6.547 6.547 0 0 1 3 3c-2 0-3-1-3-3z"/><path style="opacity:1" fill="#dee4ec" d="M442.5 132.5c-3.732 1.631-7.732 2.631-12 3h-1a126.86 126.86 0 0 0-2-11 6.547 6.547 0 0 1-3-3c-.683-1.676-2.017-2.343-4-2v-1c1.359-.507 2.359-1.507 3-3l3.5-10c1.346-2.679 3.346-4.679 6-6l1.5 1c-3.77 3.624-6.436 7.958-8 13-.94 2.632-1.107 5.298-.5 8a7.248 7.248 0 0 0 2.5 2c3.827-5.026 8.827-7.526 15-7.5a65.661 65.661 0 0 0-13 8.5c4.912-.142 9.912.192 15 1a62.744 62.744 0 0 1-11 1.5 28.1 28.1 0 0 1-5 4.5 43.117 43.117 0 0 0 13 1z"/><path style="opacity:1" fill="#b2c0d4" d="M329.5 132.5h2c.453.958 1.119 1.792 2 2.5a147.318 147.318 0 0 1-8 2.5 51.569 51.569 0 0 1-7 1c3.611-2.154 7.611-3.488 12-4a43.836 43.836 0 0 1-1-2z"/><path style="opacity:1" fill="#637ea8" d="M331.5 132.5a20.69 20.69 0 0 0 5 1v3a49.369 49.369 0 0 1-11 1 147.318 147.318 0 0 0 8-2.5c-.881-.708-1.547-1.542-2-2.5z"/><path style="opacity:1" fill="#8097b8" d="M427.5 124.5a126.86 126.86 0 0 1 2 11c.306 2.885-.027 5.552-1 8-.4-6.329-.733-12.662-1-19z"/><path style="opacity:1" fill="#eef1f5" d="M442.5 132.5c5.502 1.5 9.502 4.833 12 10l-2 1c1.181 1.698 1.181 3.365 0 5-4.734-7.865-11.734-11.199-21-10 2.469-.817 5.135-1.317 8-1.5-3.195-.181-6.195-.681-9-1.5 4.268-.369 8.268-1.369 12-3z"/><path style="opacity:1" fill="#a5b5cc" d="M316.5 139.5c-.762 1.762-2.096 2.762-4 3 .762-1.762 2.096-2.762 4-3z"/><path style="opacity:1" fill="#cbd4e2" d="M429.5 135.5h1c2.805.819 5.805 1.319 9 1.5-2.865.183-5.531.683-8 1.5-.624.417-.957 1.084-1 2a17.303 17.303 0 0 0 4 4.5c-1.303.21-2.636.043-4-.5a32.7 32.7 0 0 1-7 3 21.614 21.614 0 0 1 5-4c.973-2.448 1.306-5.115 1-8z"/><path style="opacity:1" fill="#8b9fbe" d="M312.5 142.5c-1.719 2.719-4.053 4.719-7 6 1.693-2.69 4.027-4.69 7-6z"/><path style="opacity:1" fill="#4e6d9c" d="M338.5 105.5c2.185.204 4.185.87 6 2 1.973 1.306 3.639 2.973 5 5 .599 2.434 2.099 4.101 4.5 5a25.076 25.076 0 0 0 7.5-7c2.467-.255 4.467-1.255 6-3h2l8-1c.17 1.322-.163 2.489-1 3.5-8.314 1.659-15.648 5.159-22 10.5a10.305 10.305 0 0 1-3-1c-3.719-6.058-9.052-9.725-16-11-5.774-.058-8.774 2.775-9 8.5 1.204 2.997 2.037 6.164 2.5 9.5 2.254 2.774 5.087 4.441 8.5 5 .392 2.646.392 5.146 0 7.5a102.312 102.312 0 0 0-17 3 37.885 37.885 0 0 1-10 6 99.981 99.981 0 0 0-13 12.5c-13.327 21.523-17.827 44.856-13.5 70 2.982 9.806 3.315 19.806 1 30-.96 2.565-2.46 4.731-4.5 6.5l1 1c-3 1.667-5.333 4-7 7l-11 5.5a194.798 194.798 0 0 0-12.5 3 60.072 60.072 0 0 1-11.5-2.5 500.257 500.257 0 0 1-48-3.5c8.682.021 17.348.354 26 1h1c14.198 1.377 28.531 1.21 43-.5 2.781-.522 5.115-1.689 7-3.5 1-.333 1.667-1 2-2 1.527.073 2.527-.594 3-2 2.273-.457 3.606-1.79 4-4 1.75-1.159 2.75-2.826 3-5 1.54-2.338 2.206-5.005 2-8v-2c1.148-4.481 1.315-9.148.5-14-.278-.916-.778-1.582-1.5-2 .237-1.291-.096-2.291-1-3a430.11 430.11 0 0 1-1-39 5.727 5.727 0 0 0 1-3c.617-.111 1.117-.444 1.5-1 .548-3.67 1.048-7.337 1.5-11h1c1.037-1.43 1.704-3.097 2-5v-2c1.406-.473 2.073-1.473 2-3 .838-.342 1.172-1.008 1-2 1.406-.473 2.073-1.473 2-3-.172-.992.162-1.658 1-2 1.762-.762 2.762-2.096 3-4 3.374-3.01 6.708-6.01 10-9 2.947-1.281 5.281-3.281 7-6 1.904-.238 3.238-1.238 4-3 .992.172 1.658-.162 2-1a51.569 51.569 0 0 0 7-1 49.369 49.369 0 0 0 11-1v-3a20.69 20.69 0 0 1-5-1h-2a6.547 6.547 0 0 0-3-3c-.492-2.319-1.492-4.319-3-6v-13a6.547 6.547 0 0 0 3-3 29.351 29.351 0 0 1 12-2z"/><path style="opacity:1" fill="#859aba" d="M361.5 110.5a25.076 25.076 0 0 1-7.5 7c-2.401-.899-3.901-2.566-4.5-5a20.987 20.987 0 0 0 4.5 3 53.193 53.193 0 0 1 7.5-5z"/><path style="opacity:1" fill="#b0bed2" d="M367.5 107.5c-1.533 1.745-3.533 2.745-6 3 1.533-1.745 3.533-2.745 6-3z"/><path style="opacity:1" fill="#91a4c2" d="M305.5 148.5c-3.292 2.99-6.626 5.99-10 9 2.077-4.376 5.411-7.376 10-9z"/><path style="opacity:1" fill="#afbcd2" d="M423.5 147.5c-1.77 1.613-2.936 3.613-3.5 6-1.129 1.641-2.629 2.641-4.5 3 1.988-1.965 3.488-4.298 4.5-7 .816-1.323 1.983-1.989 3.5-2z"/><path style="opacity:1" fill="#98abc5" d="M295.5 157.5c-.238 1.904-1.238 3.238-3 4 .238-1.904 1.238-3.238 3-4z"/><path style="opacity:1" fill="#b4c1d5" d="M415.5 156.5c-1.088 1.5-2.421 2.833-4 4 1.13 1.122 1.797 2.456 2 4-5.46-3.804-4.793-6.471 2-8z"/><path style="opacity:1" fill="#a7b6cd" d="M291.5 163.5c.073 1.527-.594 2.527-2 3-.073-1.527.594-2.527 2-3z"/><path style="opacity:1" fill="#879cbc" d="m413.5 164.5 2 3v4c-1.424-2.015-2.09-4.348-2-7z"/><path style="opacity:1" fill="#b7c4d7" d="M288.5 168.5c.073 1.527-.594 2.527-2 3-.073-1.527.594-2.527 2-3z"/><path style="opacity:1" fill="#90a3c1" d="M286.5 173.5c-.296 1.903-.963 3.57-2 5-.38-2.198.287-3.865 2-5z"/><path style="opacity:1" fill="#a0b0ca" d="M283.5 178.5c-.452 3.663-.952 7.33-1.5 11-.383.556-.883.889-1.5 1 .255-4.3 1.255-8.3 3-12z"/><path style="opacity:1" fill="#b3c1d4" d="M415.5 167.5c.802 1.452 1.302 3.118 1.5 5 .5 7.993.666 15.993.5 24-.768-.763-1.268-1.763-1.5-3a242.43 242.43 0 0 1-.5-22v-4z"/><path style="opacity:1" fill="#b0bed3" d="M417.5 196.5a132.442 132.442 0 0 0 8.5 5c.497 2.646.664 5.313.5 8-.814-2.131-1.314-4.464-1.5-7-3.148-1.211-5.648-3.211-7.5-6z"/><path style="opacity:1" fill="#4d6c9b" d="M376.5 89.5c2.014-.109 3.68.558 5 2v1c.667 2.667 2.333 4.333 5 5 .473 1.406 1.473 2.073 3 2a12.066 12.066 0 0 1 3 4c.205 5.208 2.872 7.541 8 7a16.339 16.339 0 0 0 5 2c.473 1.406 1.473 2.073 3 2 .891.61 1.891.943 3 1 .787 1.604 2.12 2.271 4 2h2c.473 1.406 1.473 2.073 3 2 1.014 1.174 2.347 1.84 4 2a6.547 6.547 0 0 0 3 3c.267 6.338.6 12.671 1 19a21.614 21.614 0 0 0-5 4c-1.517.011-2.684.677-3.5 2-1.012 2.702-2.512 5.035-4.5 7-6.793 1.529-7.46 4.196-2 8-.09 2.652.576 4.985 2 7-.166 7.341 0 14.674.5 22 .232 1.237.732 2.237 1.5 3 1.852 2.789 4.352 4.789 7.5 6 .186 2.536.686 4.869 1.5 7 .901.79 1.568 1.79 2 3a51.569 51.569 0 0 1-1 7 104.618 104.618 0 0 1-9-1h-1a177.033 177.033 0 0 0-16.5-2c-1.707.008-3.207.342-4.5 1-2.087 1.085-3.42 2.751-4 5-1.762.762-2.762 2.096-3 4-1.406.473-2.073 1.473-2 3-.838.342-1.172 1.008-1 2a85.79 85.79 0 0 0-10 12c-1.745 1.533-2.745 3.533-3 6-2.087 1.085-3.42 2.751-4 5-2.743 1.739-4.743 4.073-6 7-1 .333-1.667 1-2 2h-1c-1.604.787-2.271 2.12-2 4h3c-1.765.961-3.765 1.295-6 1a12.93 12.93 0 0 1 .5-5 162.692 162.692 0 0 0 12-13c3.578-7.672 8.744-14.672 15.5-21a80.33 80.33 0 0 1 11-15.5 333.263 333.263 0 0 1 31 1 11.142 11.142 0 0 0-3.5-5.5c-.743-1.941-.576-3.774.5-5.5-3.744-1.741-6.91-4.241-9.5-7.5a477.884 477.884 0 0 0-1.5-25.5 70.005 70.005 0 0 0-5-10c.255-1.326.922-2.326 2-3l-1-1a617.91 617.91 0 0 1 17.5-15.5 93.442 93.442 0 0 1 .5-14 19.887 19.887 0 0 1-4-3.5 62.114 62.114 0 0 1-16-8c-6.096-.381-11.096-2.881-15-7.5-2.241-4.394-5.408-8.06-9.5-11l-1 9c-.77 1.098-1.603 1.098-2.5 0 .306-2.885-.027-5.552-1-8v-9z"/><path style="opacity:1" fill="#b7c4d7" d="M279.5 193.5a430.11 430.11 0 0 0 1 39c-.768-.763-1.268-1.763-1.5-3-.826-12.174-.66-24.174.5-36z"/><path style="opacity:1" fill="#738bb0" d="M396.5 217.5c1.293-.658 2.793-.992 4.5-1a177.033 177.033 0 0 1 16.5 2h-8a128.323 128.323 0 0 0-12-1h-1z"/><path style="opacity:1" fill="#b1bfd3" d="M396.5 217.5h1c-1.333 2-3 3.667-5 5 .58-2.249 1.913-3.915 4-5z"/><path style="opacity:1" fill="#bcc7d9" d="M428.5 212.5c1.38.462 2.047 1.462 2 3a13.139 13.139 0 0 0-2 6 273.006 273.006 0 0 1-18-1.5c-.556-.383-.889-.883-1-1.5h9c2.873 1.982 5.873 2.315 9 1a51.569 51.569 0 0 0 1-7z"/><path style="opacity:1" fill="#6e88ae" d="M418.5 218.5c2.982.463 5.982.796 9 1-3.127 1.315-6.127.982-9-1z"/><path style="opacity:1" fill="#a7b7ce" d="M392.5 222.5c-.238 1.904-1.238 3.238-3 4 .238-1.904 1.238-3.238 3-4z"/><path style="opacity:1" fill="#9eafc8" d="M389.5 226.5c.073 1.527-.594 2.527-2 3-.073-1.527.594-2.527 2-3z"/><path style="opacity:1" fill="#b9c5d8" d="M386.5 231.5c-2.209 4.881-5.543 8.881-10 12a85.79 85.79 0 0 1 10-12z"/><path style="opacity:1" fill="#6883ab" d="M281.5 235.5c.722.418 1.222 1.084 1.5 2 .815 4.852.648 9.519-.5 14a96.873 96.873 0 0 0-1-16z"/><path style="opacity:1" fill="#adbcd1" d="M280.5 232.5c.904.709 1.237 1.709 1 3a96.873 96.873 0 0 1 1 16v2h-1c.318-4.532-.015-8.866-1-13v-8z"/><path style="opacity:1" fill="#b2c0d3" d="M376.5 243.5c-.255 2.467-1.255 4.467-3 6 .255-2.467 1.255-4.467 3-6z"/><path style="opacity:1" fill="#e1e7ee" d="M280.5 240.5c.985 4.134 1.318 8.468 1 13l-1 8h-1a161.24 161.24 0 0 0 1-21z"/><path style="opacity:1" fill="#b0bed2" d="M373.5 249.5c-.58 2.249-1.913 3.915-4 5 .58-2.249 1.913-3.915 4-5z"/><path style="opacity:1" fill="#859aba" d="M281.5 253.5h1c.206 2.995-.46 5.662-2 8l1-8z"/><path style="opacity:1" fill="#b5c2d6" d="M369.5 254.5c-1.257 2.927-3.257 5.261-6 7 1.257-2.927 3.257-5.261 6-7z"/><path style="opacity:1" fill="#c3cedd" d="M388.5 261.5c-3.213-.31-6.213.023-9 1h-4c2.134-1.533 4.634-2.2 7.5-2 2.033.006 3.866.339 5.5 1z"/><path style="opacity:1" fill="#8197b8" d="M375.5 262.5h3a49.928 49.928 0 0 0-10 3l1-2c1.879-.841 3.879-1.175 6-1z"/><path style="opacity:1" fill="#98aac5" d="M279.5 261.5h1c-.25 2.174-1.25 3.841-3 5a16.339 16.339 0 0 1 2-5z"/><path style="opacity:1" fill="#a0b1ca" d="m369.5 263.5-1 2h-2c.473-1.406 1.473-2.073 3-2z"/><path style="opacity:1" fill="#8ea2c0" d="M379.5 262.5c2.787-.977 5.787-1.31 9-1 1.474.936 2.474 2.27 3 4h-3c.237-1.291-.096-2.291-1-3h-8z"/><path style="opacity:1" fill="#becada" d="M360.5 263.5h1c1.052 1.756 2.719 2.423 5 2 0 .667-.333 1-1 1h-5v-3z"/><path style="opacity:1" fill="#6580a9" d="M387.5 262.5c.904.709 1.237 1.709 1 3h3c-2.606 1.35-2.606 2.85 0 4.5-.556.383-.889.883-1 1.5h-2c.111-.617.444-1.117 1-1.5-2.224-2.278-2.891-4.778-2-7.5z"/><path style="opacity:1" fill="#728ab0" d="M360.5 263.5v3h5c-1.068.934-2.401 1.268-4 1h-3c-.271-1.88.396-3.213 2-4z"/><path style="opacity:1" fill="#8196b8" d="M277.5 266.5c-.394 2.21-1.727 3.543-4 4 .826-1.764 2.159-3.098 4-4z"/><path style="opacity:1" fill="#a9b8cf" d="M391.5 265.5c.839 1.141 1.506 2.474 2 4-.505 1.419-1.505 2.085-3 2 .111-.617.444-1.117 1-1.5-2.606-1.65-2.606-3.15 0-4.5z"/><path style="opacity:1" fill="#8ca0bf" d="M273.5 270.5c-.473 1.406-1.473 2.073-3 2 .473-1.406 1.473-2.073 3-2z"/><path style="opacity:1" fill="#e2e7ef" d="M140.5 273.5c10.826-1.159 21.826-1.326 33-.5a439.982 439.982 0 0 0 38 3.5h-24c-5.12-1.297-10.454-2.131-16-2.5a481.165 481.165 0 0 0-31-.5z"/><path style="opacity:1" fill="#99abc6" d="M114.5 274.5c8.484-.993 17.151-1.326 26-1 10.339-.166 20.672 0 31 .5 5.546.369 10.88 1.203 16 2.5a797.402 797.402 0 0 0-73-2z"/><path style="opacity:1" fill="#d2dae5" d="M270.5 272.5c-.333 1-1 1.667-2 2l-7 2c2.479-2.068 5.479-3.401 9-4z"/><path style="opacity:1" fill="#728bb0" d="M388.5 271.5h1c.268 1.599-.066 2.932-1 4h-15c4.805-.987 9.805-1.321 15-1v-3z"/><path style="opacity:1" fill="#bbc7d9" d="M113.5 274.5v1a73.314 73.314 0 0 0-12 1h-4c5.083-1.578 10.416-2.245 16-2z"/><path style="opacity:1" fill="#6580a9" d="M113.5 275.5c-3.683 1.75-7.683 2.417-12 2v-1a73.314 73.314 0 0 1 12-1z"/><path style="opacity:1" fill="#abbad0" d="M189.5 276.5h22l6 2a360.785 360.785 0 0 0-26-1c-.992.172-1.658-.162-2-1z"/><path style="opacity:1" fill="#a1b2ca" d="M97.5 276.5h4v1c-8.046.74-15.713 2.74-23 6h-2c6.431-3.698 13.431-6.031 21-7z"/><path style="opacity:1" fill="#8298b9" d="M268.5 274.5c-1.885 1.811-4.219 2.978-7 3.5-14.469 1.71-28.802 1.877-43 .5 11.671.167 23.338 0 35-.5a46.052 46.052 0 0 0 8-1.5l7-2z"/><path style="opacity:1" fill="#7088ae" d="M373.5 275.5c.214 1.644-.12 3.144-1 4.5a40.914 40.914 0 0 1-9 .5c2.623-1.765 5.623-2.432 9-2-.237-1.291.096-2.291 1-3z"/><path style="opacity:1" fill="#c9d3e1" d="M373.5 275.5h15c-.111.617-.444 1.117-1 1.5a40.477 40.477 0 0 1-13-.5c.214 1.644-.12 3.144-1 4.5-3.317.498-6.65.665-10 .5v-1a40.914 40.914 0 0 0 9-.5c.88-1.356 1.214-2.856 1-4.5z"/><path style="opacity:1" fill="#8a9fbd" d="M363.5 280.5v1c-4.317-.417-8.317.25-12 2h-4v-1c5.163-1.683 10.496-2.35 16-2z"/><path style="opacity:1" fill="#6b85ac" d="M347.5 282.5v1h-1c-3.198-.536-5.865.131-8 2-1.976-.927-2.309-2.26-1-4a28.819 28.819 0 0 0 10 1z"/><path style="opacity:1" fill="#d1dae5" d="M363.5 281.5c-3.816.982-7.816 1.649-12 2 3.683-1.75 7.683-2.417 12-2z"/><path style="opacity:1" fill="#6c85ac" d="M76.5 283.5h2c-.11.617-.444 1.117-1 1.5a18.452 18.452 0 0 1-6 .5c1.43-1.037 3.097-1.704 5-2z"/><path style="opacity:1" fill="#6580a9" d="M125.5 283.5c1.634-.661 3.467-.994 5.5-1 10.67.818 21.17 1.818 31.5 3h-6c-7.004-.273-14.004-.606-21-1-3.125-.979-6.458-1.313-10-1z"/><path style="opacity:1" fill="#e5eaf0" d="M346.5 283.5h4l27 2c-11.671.167-23.338 0-35-.5 1.558-.21 2.891-.71 4-1.5z"/><path style="opacity:1" fill="#96a9c4" d="M125.5 283.5c3.542-.313 6.875.021 10 1-6.522-.323-12.855.01-19 1a144.724 144.724 0 0 0-30 3l3-2a236.572 236.572 0 0 1 36-3z"/><path style="opacity:1" fill="#c7d1df" d="M116.5 285.5c6.145-.99 12.478-1.323 19-1 6.996.394 13.996.727 21 1v1a701.08 701.08 0 0 0-40-1z"/><path style="opacity:1" fill="#647fa8" d="M162.5 285.5a60.931 60.931 0 0 1 11 .5c.916.278 1.582.778 2 1.5-4.51-.384-8.843-1.051-13-2z"/><path style="opacity:1" fill="#9fb0c9" d="M346.5 283.5c-1.109.79-2.442 1.29-4 1.5 11.662.5 23.329.667 35 .5 2.559-.302 4.893.032 7 1h-43c-.709-.904-1.709-1.237-3-1 2.135-1.869 4.802-2.536 8-2z"/><path style="opacity:1" fill="#b4c1d5" d="M71.5 285.5c-3.254 2.078-6.92 3.411-11 4 1.742-1.457 3.742-2.624 6-3.5a12.93 12.93 0 0 1 5-.5z"/><path style="opacity:1" fill="#b0bed2" d="M156.5 286.5v-1h6c4.157.949 8.49 1.616 13 2h5c24.102 2.776 48.436 4.109 73 4v1a705.926 705.926 0 0 1-97-6z"/><path style="opacity:1" fill="#6a84ac" d="M282.5 287.5c5.485-1.152 11.151-1.318 17-.5 3.351.057 6.351.891 9 2.5h-4c-2.107-.968-4.441-1.302-7-1-4.805-.987-9.805-1.321-15-1z"/><path style="opacity:1" fill="#5e7aa5" d="M341.5 286.5h43v2h-2l-41-2z"/><path style="opacity:1" fill="#617ca6" d="m89.5 286.5-3 2h-2c-2.198-.38-3.865.287-5 2h-1c-2.198-.38-3.865.287-5 2h-1c-2.065.017-4.065.35-6 1a182.756 182.756 0 0 1 13-5.5c3.327-.61 6.66-1.11 10-1.5z"/><path style="opacity:1" fill="#9fb1c9" d="M84.5 288.5c-1.43 1.037-3.097 1.704-5 2 1.135-1.713 2.802-2.38 5-2z"/><path style="opacity:1" fill="#e0e6ee" d="M297.5 288.5c2.559-.302 4.893.032 7 1a454.485 454.485 0 0 0-36 1c1.792-.809 3.792-1.309 6-1.5 7.659-.5 15.326-.666 23-.5z"/><path style="opacity:1" fill="#b6c3d6" d="M60.5 289.5c-1.43 1.037-3.097 1.704-5 2 1.135-1.713 2.802-2.38 5-2z"/><path style="opacity:1" fill="#b2c0d4" d="M78.5 290.5c-1.43 1.037-3.097 1.704-5 2 1.135-1.713 2.802-2.38 5-2z"/><path style="opacity:1" fill="#617da7" d="M180.5 287.5c24.64 1.62 49.307 2.62 74 3v1h-1c-24.564.109-48.898-1.224-73-4z"/><path style="opacity:1" fill="#91a4c1" d="M282.5 287.5c5.195-.321 10.195.013 15 1-7.674-.166-15.341 0-23 .5-2.208.191-4.208.691-6 1.5h-2a73.314 73.314 0 0 0-12 1v-1a252.294 252.294 0 0 1 28-3z"/><path style="opacity:1" fill="#92a5c2" d="M305.5 289.5h3c3.329-.285 6.329.382 9 2-4.205-.217-8.205-.883-12-2z"/><path style="opacity:1" fill="#d7dee8" d="M266.5 290.5c-4.067 1.554-8.4 2.22-13 2v-1h1a73.314 73.314 0 0 1 12-1z"/><path style="opacity:1" fill="#637ea7" d="M317.5 291.5c6.854.235 13.521.902 20 2h-16l-4-2z"/><path style="opacity:1" fill="#afbdd2" d="M361.5 293.5c3.213-.31 6.213.023 9 1-3.662-.466-6.995.201-10 2a5.727 5.727 0 0 1 1-3z"/><path style="opacity:1" fill="#6883aa" d="M361.5 293.5c6.161-.768 12.494-.768 19 0-2.787.977-5.787 1.31-9 1h-1c-2.787-.977-5.787-1.31-9-1z"/><path style="opacity:1" fill="#9bacc7" d="M55.5 291.5c-4.571 2.753-9.571 4.753-15 6 .11-.617.444-1.117 1-1.5a336.843 336.843 0 0 1 14-4.5z"/><path style="opacity:1" fill="#bec9da" d="M321.5 293.5h16c.342.838 1.008 1.172 2 1v1c-6.25.316-12.25-.35-18-2z"/><path style="opacity:1" fill="#c4cfde" d="M382.5 288.5h2a14.971 14.971 0 0 1-3 6.5c-3.527.808-6.86.641-10-.5 3.213.31 6.213-.023 9-1 1.713-1.135 2.38-2.802 2-5z"/><path style="opacity:1" fill="#b3c1d4" d="M72.5 292.5c-4.002 2.11-8.335 3.443-13 4a43.363 43.363 0 0 1 7-3 19.222 19.222 0 0 1 6-1z"/><path style="opacity:1" fill="#95a8c4" d="M339.5 295.5v-1a223.112 223.112 0 0 0 20 2c-6.665 1.501-13.331 1.168-20-1z"/><path style="opacity:1" fill="#92a5c2" d="M57.5 296.5c-1.43 1.037-3.097 1.704-5 2 1.135-1.713 2.802-2.38 5-2z"/><path style="opacity:1" fill="#9eafc8" d="M39.5 297.5c-2.014 1.424-4.348 2.09-7 2 2.014-1.424 4.348-2.09 7-2z"/><path style="opacity:1" fill="#92a5c1" d="M32.5 299.5c-1.533 1.745-3.533 2.745-6 3 1.533-1.745 3.533-2.745 6-3z"/><path style="opacity:1" fill="#afbdd2" d="M52.5 298.5c-3.822 2.731-8.156 4.064-13 4 3.991-2.106 8.325-3.439 13-4z"/><path style="opacity:1" fill="#adbbd1" d="M39.5 302.5c-2.436 1.371-5.103 2.371-8 3 2.117-2.155 4.784-3.155 8-3z"/><path style="opacity:1" fill="#98abc6" d="M24.5 302.5c-.453.958-1.12 1.792-2 2.5 2.31.497 4.643.663 7 .5-.342.838-1.008 1.172-2 1-2.582.475-4.582-.192-6-2 .473-1.406 1.473-2.073 3-2z"/><path style="opacity:1" fill="#d4dce6" d="M21.5 304.5c1.418 1.808 3.418 2.475 6 2-2.107.968-4.44 1.302-7 1-.237-1.291.096-2.291 1-3z"/></svg>