<?xml version="1.0" encoding="UTF-8"?>
<!DOCTYPE svg PUBLIC "-//W3C//DTD SVG 1.1//EN" "http://www.w3.org/Graphics/SVG/1.1/DTD/svg11.dtd">
<svg xmlns="http://www.w3.org/2000/svg" version="1.1" width="200px" height="200px" style="shape-rendering:geometricPrecision; text-rendering:geometricPrecision; image-rendering:optimizeQuality; fill-rule:evenodd; clip-rule:evenodd" xmlns:xlink="http://www.w3.org/1999/xlink">
<g><path style="opacity:0.999" fill="#d49f1b" d="M -0.5,94.5 C -0.5,88.8333 -0.5,83.1667 -0.5,77.5C 7.58935,53.9116 23.5894,38.0783 47.5,30C 71.8219,22.9389 96.4885,21.6056 121.5,26C 125.861,28.1345 126.527,31.1345 123.5,35C 122.333,35.1667 121.167,35.3333 120,35.5C 99.0431,31.1646 78.2098,31.6646 57.5,37C 36.2722,42.5764 20.7722,55.0764 11,74.5C 5.62181,95.9067 13.4551,110.073 34.5,117C 41.1785,118.151 47.5118,117.151 53.5,114C 61.4144,108.756 68.7477,102.756 75.5,96C 70.44,87.1574 72.1067,79.8241 80.5,74C 93.1298,70.1397 100.463,74.6397 102.5,87.5C 101.031,99.0936 94.364,104.26 82.5,103C 73.1356,113.034 62.1356,120.701 49.5,126C 24.3072,128.909 7.64056,118.409 -0.5,94.5 Z M 95.5,91.5 C 93.8333,92.5 92.5,93.8333 91.5,95.5C 81.4965,96.3346 77.9965,92.0013 81,82.5C 88.383,77.2929 93.5496,78.9596 96.5,87.5C 95.7542,88.7362 95.4208,90.0695 95.5,91.5 Z"/></g>
<g><path style="opacity:0.999" fill="#0d447b" d="M 199.5,95.5 C 199.5,104.167 199.5,112.833 199.5,121.5C 195.119,140.387 183.119,148.387 163.5,145.5C 162.432,144.566 161.099,144.232 159.5,144.5C 158.833,144.5 158.5,144.833 158.5,145.5C 156.883,144.962 155.216,144.629 153.5,144.5C 153.5,143.833 153.167,143.5 152.5,143.5C 150.833,143.5 149.167,143.5 147.5,143.5C 147.5,142.833 147.167,142.5 146.5,142.5C 143.833,142.5 141.167,142.5 138.5,142.5C 135.899,139.663 135.899,136.83 138.5,134C 143.167,133.333 147.833,133.333 152.5,134C 158.28,135.207 164.113,136.04 170,136.5C 178.2,137.068 184.2,133.735 188,126.5C 195.171,82.3386 177.838,52.3386 136,36.5C 133.15,42.0099 130.316,47.5099 127.5,53C 132.086,59.5258 132.586,66.3591 129,73.5C 120.667,81.5 112.333,81.5 104,73.5C 98.4623,59.2486 103.296,50.9152 118.5,48.5C 122.627,41.0794 126.627,33.5794 130.5,26C 168.425,34.4252 191.425,57.5919 199.5,95.5 Z M 113.5,56.5 C 121.658,55.8229 125.158,59.4895 124,67.5C 121.565,72.2238 117.731,73.7238 112.5,72C 106.939,66.3527 107.272,61.186 113.5,56.5 Z"/></g>
<g><path style="opacity:0.999" fill="#b81d23" d="M 138.5,142.5 C 141.167,142.5 143.833,142.5 146.5,142.5C 147.167,142.5 147.5,142.833 147.5,143.5C 149.167,143.5 150.833,143.5 152.5,143.5C 153.167,143.5 153.5,143.833 153.5,144.5C 155.216,144.629 156.883,144.962 158.5,145.5C 158.833,145.5 159.167,145.5 159.5,145.5C 160.708,146.234 162.041,146.567 163.5,146.5C 171.882,148.265 174.049,152.931 170,160.5C 157.792,176.01 142.626,179.844 124.5,172C 118.544,167.902 115.377,162.402 115,155.5C 117.153,153.556 119.653,153.056 122.5,154C 129.746,167.15 140.08,170.15 153.5,163C 155.759,161.285 157.926,159.452 160,157.5C 160.617,156.551 160.451,155.718 159.5,155C 139.545,150.002 119.545,149.668 99.5,154C 89.2385,155.322 79.2385,154.322 69.5,151C 59.7903,144.539 58.1237,136.539 64.5,127C 77.9897,120.422 91.3231,113.589 104.5,106.5C 105.373,89.7434 113.706,83.9101 129.5,89C 137.739,97.9615 137.405,106.628 128.5,115C 126.13,116.036 123.63,116.536 121,116.5C 117.077,116.094 113.244,115.594 109.5,115C 96.1667,122 82.8333,129 69.5,136C 70.1043,138.468 71.4376,140.468 73.5,142C 78.2836,144.021 83.2836,145.187 88.5,145.5C 97.229,144.794 105.896,143.627 114.5,142C 122.548,141.23 130.548,141.397 138.5,142.5 Z M 117.5,93.5 C 127.796,93.6 130.962,98.2666 127,107.5C 121.265,111.703 116.598,110.703 113,104.5C 111.776,99.626 113.276,95.9593 117.5,93.5 Z"/></g>
<g><path style="opacity:0.678" fill="#795b15" d="M 95.5,91.5 C 95.1667,93.8333 93.8333,95.1667 91.5,95.5C 92.5,93.8333 93.8333,92.5 95.5,91.5 Z"/></g>
<g><path style="opacity:0.347" fill="#20151f" d="M 159.5,145.5 C 159.5,145.167 159.5,144.833 159.5,144.5C 161.099,144.232 162.432,144.566 163.5,145.5C 163.5,145.833 163.5,146.167 163.5,146.5C 162.041,146.567 160.708,146.234 159.5,145.5 Z"/></g>
</svg>
