<?xml version="1.0" encoding="UTF-8"?>
<!DOCTYPE svg PUBLIC "-//W3C//DTD SVG 1.1//EN" "http://www.w3.org/Graphics/SVG/1.1/DTD/svg11.dtd">
<svg xmlns="http://www.w3.org/2000/svg" version="1.1" width="326px" height="96px" style="shape-rendering:geometricPrecision; text-rendering:geometricPrecision; image-rendering:optimizeQuality; fill-rule:evenodd; clip-rule:evenodd" xmlns:xlink="http://www.w3.org/1999/xlink">
<g><path style="opacity:1" fill="#fefefe" d="M -0.5,-0.5 C 108.167,-0.5 216.833,-0.5 325.5,-0.5C 325.5,31.5 325.5,63.5 325.5,95.5C 216.833,95.5 108.167,95.5 -0.5,95.5C -0.5,63.5 -0.5,31.5 -0.5,-0.5 Z"/></g>
<g><path style="opacity:1" fill="#111111" d="M 19.5,36.5 C 26.8333,36.5 34.1667,36.5 41.5,36.5C 41.5,38.1667 41.5,39.8333 41.5,41.5C 38.8333,41.5 36.1667,41.5 33.5,41.5C 33.5,48.1667 33.5,54.8333 33.5,61.5C 31.5,61.5 29.5,61.5 27.5,61.5C 27.5,54.8333 27.5,48.1667 27.5,41.5C 24.8333,41.5 22.1667,41.5 19.5,41.5C 19.5,39.8333 19.5,38.1667 19.5,36.5 Z"/></g>
<g><path style="opacity:1" fill="#0c0c0c" d="M 47.5,36.5 C 49.5,36.5 51.5,36.5 53.5,36.5C 53.5,39.8333 53.5,43.1667 53.5,46.5C 57.1667,46.5 60.8333,46.5 64.5,46.5C 64.5,43.1667 64.5,39.8333 64.5,36.5C 66.5,36.5 68.5,36.5 70.5,36.5C 70.5,44.8333 70.5,53.1667 70.5,61.5C 68.5,61.5 66.5,61.5 64.5,61.5C 64.5,58.1667 64.5,54.8333 64.5,51.5C 60.8333,51.5 57.1667,51.5 53.5,51.5C 53.5,54.8333 53.5,58.1667 53.5,61.5C 51.5,61.5 49.5,61.5 47.5,61.5C 47.5,53.1667 47.5,44.8333 47.5,36.5 Z"/></g>
<g><path style="opacity:1" fill="#020202" d="M 85.5,56.5 C 89.6344,57.4849 93.9677,57.8182 98.5,57.5C 98.5,58.8333 98.5,60.1667 98.5,61.5C 92.1667,61.5 85.8333,61.5 79.5,61.5C 79.5,53.1667 79.5,44.8333 79.5,36.5C 85.8333,36.5 92.1667,36.5 98.5,36.5C 98.5,37.8333 98.5,39.1667 98.5,40.5C 94.1667,40.5 89.8333,40.5 85.5,40.5C 85.5,42.5 85.5,44.5 85.5,46.5C 89.1667,46.5 92.8333,46.5 96.5,46.5C 96.5,47.8333 96.5,49.1667 96.5,50.5C 92.8333,50.5 89.1667,50.5 85.5,50.5C 85.5,52.5 85.5,54.5 85.5,56.5 Z"/></g>
<g><path style="opacity:1" fill="#0d0d0d" d="M 119.5,36.5 C 125.593,36.1392 131.593,36.6392 137.5,38C 143.045,43.56 142.711,48.7267 136.5,53.5C 137.971,56.136 139.637,58.636 141.5,61C 136.424,62.437 133.091,60.6037 131.5,55.5C 129.604,54.5344 127.604,54.2011 125.5,54.5C 125.5,56.8333 125.5,59.1667 125.5,61.5C 123.5,61.5 121.5,61.5 119.5,61.5C 119.5,53.1667 119.5,44.8333 119.5,36.5 Z"/></g>
<g><path style="opacity:1" fill="#0e0e0e" d="M 157.5,35.5 C 169.048,35.5453 174.548,41.212 174,52.5C 170.219,60.3047 164.053,63.138 155.5,61C 147.905,57.5272 145.405,51.6938 148,43.5C 150.362,39.7553 153.528,37.0886 157.5,35.5 Z"/></g>
<g><path style="opacity:1" fill="#0b0b0b" d="M 177.5,37.5 C 179.288,36.3775 181.288,36.2109 183.5,37C 185.667,40.5 187.833,44 190,47.5C 192.041,43.9162 194.208,40.4162 196.5,37C 198.259,36.2025 199.926,36.3691 201.5,37.5C 198.918,42.3331 196.085,46.9998 193,51.5C 192.502,54.8168 192.335,58.1501 192.5,61.5C 190.5,61.5 188.5,61.5 186.5,61.5C 186.665,58.1501 186.498,54.8168 186,51.5C 183.392,46.6032 180.559,41.9365 177.5,37.5 Z"/></g>
<g><path style="opacity:1" fill="#060606" d="M 227.5,56.5 C 231.298,57.4834 235.298,57.8168 239.5,57.5C 239.5,58.8333 239.5,60.1667 239.5,61.5C 233.5,61.5 227.5,61.5 221.5,61.5C 221.5,53.1667 221.5,44.8333 221.5,36.5C 223.5,36.5 225.5,36.5 227.5,36.5C 227.5,43.1667 227.5,49.8333 227.5,56.5 Z"/></g>
<g><path style="opacity:1" fill="#0f0f0f" d="M 253.5,36.5 C 255.604,36.2011 257.604,36.5344 259.5,37.5C 263.038,45.4089 266.705,53.2423 270.5,61C 266.57,62.4211 263.903,61.2545 262.5,57.5C 258.217,56.5078 253.884,56.1744 249.5,56.5C 249.102,60.9791 246.769,62.3124 242.5,60.5C 246.181,52.4739 249.848,44.4739 253.5,36.5 Z"/></g>
<g><path style="opacity:1" fill="#0a0a0a" d="M 276.5,36.5 C 282.952,36.0845 289.285,36.5845 295.5,38C 299.5,41.3333 299.5,44.6667 295.5,48C 300.951,52.754 300.617,57.0873 294.5,61C 288.509,61.4995 282.509,61.6662 276.5,61.5C 276.5,53.1667 276.5,44.8333 276.5,36.5 Z"/></g>
<g><path style="opacity:1" fill="#fafafa" d="M 125.5,41.5 C 128.187,41.3359 130.854,41.5026 133.5,42C 136.167,44.3333 136.167,46.6667 133.5,49C 130.854,49.4974 128.187,49.6641 125.5,49.5C 125.5,46.8333 125.5,44.1667 125.5,41.5 Z"/></g>
<g><path style="opacity:1" fill="#f3f3f3" d="M 158.5,40.5 C 166.217,40.9439 169.384,44.9439 168,52.5C 163.625,57.3815 158.958,57.7148 154,53.5C 151.528,47.7792 153.028,43.4458 158.5,40.5 Z"/></g>
<g><path style="opacity:1" fill="#f2f2f2" d="M 282.5,40.5 C 285.187,40.3359 287.854,40.5026 290.5,41C 292.527,42.3957 292.86,44.0624 291.5,46C 288.518,46.498 285.518,46.6646 282.5,46.5C 282.5,44.5 282.5,42.5 282.5,40.5 Z"/></g>
<g><path style="opacity:1" fill="#ececec" d="M 255.5,42.5 C 257.974,44.8976 259.308,47.8976 259.5,51.5C 257.076,51.8076 254.743,51.4742 252.5,50.5C 253.9,47.9646 254.9,45.298 255.5,42.5 Z"/></g>
<g><path style="opacity:1" fill="#e5e5e5" d="M 282.5,50.5 C 285.518,50.3354 288.518,50.502 291.5,51C 294.167,53 294.167,55 291.5,57C 288.518,57.498 285.518,57.6646 282.5,57.5C 282.5,55.1667 282.5,52.8333 282.5,50.5 Z"/></g>
<g><path style="opacity:1" fill="#5c5c5c" d="M 85.5,56.5 C 90.1667,56.5 94.8333,56.5 99.5,56.5C 99.7845,58.4147 99.4511,60.0813 98.5,61.5C 98.5,60.1667 98.5,58.8333 98.5,57.5C 93.9677,57.8182 89.6344,57.4849 85.5,56.5 Z"/></g>
<g><path style="opacity:1" fill="#505050" d="M 227.5,56.5 C 231.833,56.5 236.167,56.5 240.5,56.5C 240.784,58.4147 240.451,60.0813 239.5,61.5C 239.5,60.1667 239.5,58.8333 239.5,57.5C 235.298,57.8168 231.298,57.4834 227.5,56.5 Z"/></g>
</svg>
