<?xml version="1.0" encoding="UTF-8"?>
<!DOCTYPE svg PUBLIC "-//W3C//DTD SVG 1.1//EN" "http://www.w3.org/Graphics/SVG/1.1/DTD/svg11.dtd">
<svg xmlns="http://www.w3.org/2000/svg" version="1.1" width="180px" height="180px" style="shape-rendering:geometricPrecision; text-rendering:geometricPrecision; image-rendering:optimizeQuality; fill-rule:evenodd; clip-rule:evenodd" xmlns:xlink="http://www.w3.org/1999/xlink">
<g><path style="opacity:0.925" fill="#c5c6c5" d="M 78.5,12.5 C 81.41,14.2391 83.91,16.5724 86,19.5C 86.6667,22.1667 86.6667,24.8333 86,27.5C 79.9675,33.1979 74.3009,39.1979 69,45.5C 62.6885,40.6894 56.5218,35.6894 50.5,30.5C 51.2728,27.5692 52.2728,24.7359 53.5,22C 62.0493,19.0994 70.3826,15.9327 78.5,12.5 Z"/></g>
<g><path style="opacity:0.906" fill="#eb6729" d="M 98.5,12.5 C 107.438,15.7015 116.438,18.7015 125.5,21.5C 128.389,29.4466 126.722,36.4466 120.5,42.5C 110.984,35.2401 101.651,27.7401 92.5,20C 94.3336,17.3367 96.3336,14.8367 98.5,12.5 Z"/></g>
<g><path style="opacity:0.906" fill="#eb6729" d="M 91.5,22.5 C 94.8607,23.684 97.8607,25.5173 100.5,28C 106.896,33.7369 113.23,39.4036 119.5,45C 117.224,50.3862 114.557,55.5529 111.5,60.5C 104.866,61.4967 98.1998,61.83 91.5,61.5C 91.5,48.5 91.5,35.5 91.5,22.5 Z"/></g>
<g><path style="opacity:0.884" fill="#e84e1a" d="M 85.5,29.5 C 86.8225,39.008 86.8225,48.6746 85.5,58.5C 80.3539,54.5217 75.3539,50.355 70.5,46C 75.3906,40.3734 80.3906,34.8734 85.5,29.5 Z"/></g>
<g><path style="opacity:0.91" fill="#c6c6c6" d="M 55.5,51.5 C 53.3963,53.3718 52.063,55.7052 51.5,58.5C 45.9092,59.8846 40.2426,60.8846 34.5,61.5C 34.3359,58.8127 34.5026,56.146 35,53.5C 37.3333,48.1667 39.6667,42.8333 42,37.5C 43.9185,34.2056 46.5852,32.8722 50,33.5C 51.7443,39.5635 53.5777,45.5635 55.5,51.5 Z"/></g>
<g><path style="opacity:0.886" fill="#eb6729" d="M 127.5,32.5 C 130.841,32.6559 133.674,33.9892 136,36.5C 138.06,41.6203 140.393,46.6203 143,51.5C 143.667,54.8333 143.667,58.1667 143,61.5C 135.852,56.0178 129.019,50.1844 122.5,44C 124.316,40.2036 125.983,36.3702 127.5,32.5 Z"/></g>
<g><path style="opacity:0.829" fill="#951b81" d="M 66.5,49.5 C 65.1667,50.5 63.8333,51.5 62.5,52.5C 60.5648,51.8505 58.5648,51.5172 56.5,51.5C 54.9951,45.8412 53.8284,40.1745 53,34.5C 57.4851,38.4078 62.1518,42.0745 67,45.5C 67.195,46.8193 67.0283,48.1526 66.5,49.5 Z"/></g>
<g><path style="opacity:0.87" fill="#eb6729" d="M 120.5,46.5 C 127.477,50.2876 133.811,55.121 139.5,61C 130.84,61.4998 122.173,61.6664 113.5,61.5C 115.54,56.4168 117.873,51.4168 120.5,46.5 Z"/></g>
<g><path style="opacity:0.951" fill="#951c81" d="M 76.5,89.5 C 77.1506,80.8188 73.1506,76.1521 64.5,75.5C 63.2967,71.8899 62.2967,68.2232 61.5,64.5C 64.4782,61.2742 65.1449,57.6075 63.5,53.5C 65.2624,52.7377 66.2624,51.4044 66.5,49.5C 67.601,48.2003 68.9343,47.7003 70.5,48C 75.3774,52.546 80.544,56.7127 86,60.5C 86.6667,71.8333 86.6667,83.1667 86,94.5C 82.8855,92.6932 79.7188,91.0265 76.5,89.5 Z"/></g>
<g><path style="opacity:0.974" fill="#fdfafb" d="M 55.5,51.5 C 55.8333,51.5 56.1667,51.5 56.5,51.5C 58.5648,51.5172 60.5648,51.8505 62.5,52.5C 62.5,53.1667 62.8333,53.5 63.5,53.5C 65.1449,57.6075 64.4782,61.2742 61.5,64.5C 60.8333,64.5 60.1667,64.5 59.5,64.5C 58.1266,64.6567 56.7932,64.49 55.5,64C 54.2949,62.6244 52.9616,61.4577 51.5,60.5C 51.5,59.8333 51.5,59.1667 51.5,58.5C 52.063,55.7052 53.3963,53.3718 55.5,51.5 Z"/></g>
<g><path style="opacity:0.891" fill="#f39202" d="M 51.5,60.5 C 52.9616,61.4577 54.2949,62.6244 55.5,64C 56.7932,64.49 58.1266,64.6567 59.5,64.5C 60.7033,68.1101 61.7033,71.7768 62.5,75.5C 61.7377,77.2624 60.4044,78.2624 58.5,78.5C 51.467,73.984 44.8003,68.984 38.5,63.5C 42.6826,61.8634 47.0159,60.8634 51.5,60.5 Z"/></g>
<g><path style="opacity:0.841" fill="#eb6729" d="M 91.5,62.5 C 97.6228,62.1766 103.623,62.8432 109.5,64.5C 104.087,74.9937 98.4206,85.327 92.5,95.5C 91.5012,84.5202 91.1679,73.5202 91.5,62.5 Z"/></g>
<g><path style="opacity:0.934" fill="#f39200" d="M 57.5,79.5 C 56.8413,82.4552 56.5079,85.4552 56.5,88.5C 45.8984,91.534 35.3984,94.8673 25,98.5C 23.581,96.6641 22.4143,94.6641 21.5,92.5C 23.8974,84.8077 26.3974,77.141 29,69.5C 30.314,67.1878 31.9806,65.1878 34,63.5C 41.9777,68.6484 49.8111,73.9817 57.5,79.5 Z"/></g>
<g><path style="opacity:0.952" fill="#eb6729" d="M 113.5,63.5 C 124.172,63.3335 134.839,63.5002 145.5,64C 146.667,65.1667 147.833,66.3333 149,67.5C 151.333,74.8333 153.667,82.1667 156,89.5C 156.93,92.85 156.097,95.6833 153.5,98C 145.858,99.8318 138.191,101.165 130.5,102C 124.412,89.3259 118.745,76.4926 113.5,63.5 Z"/></g>
<g><path style="opacity:0.93" fill="#eb6729" d="M 110.5,64.5 C 112.474,66.428 113.974,68.7613 115,71.5C 119.794,82.0835 124.294,92.7501 128.5,103.5C 116.236,106.22 103.902,108.553 91.5,110.5C 91.3347,106.818 91.5014,103.152 92,99.5C 98.7016,88.096 104.868,76.4293 110.5,64.5 Z"/></g>
<g><path style="opacity:0.986" fill="#fdfbfc" d="M 62.5,75.5 C 63.1667,75.5 63.8333,75.5 64.5,75.5C 73.1506,76.1521 77.1506,80.8188 76.5,89.5C 76.1667,90.1667 75.8333,90.8333 75.5,91.5C 72.6323,94.2673 69.2989,95.934 65.5,96.5C 64.8333,96.5 64.1667,96.5 63.5,96.5C 61.1918,94.5293 58.8585,92.5293 56.5,90.5C 56.5,89.8333 56.5,89.1667 56.5,88.5C 56.5079,85.4552 56.8413,82.4552 57.5,79.5C 58.1667,79.5 58.5,79.1667 58.5,78.5C 60.4044,78.2624 61.7377,77.2624 62.5,75.5 Z"/></g>
<g><path style="opacity:0.957" fill="#c6c6c6" d="M 56.5,90.5 C 58.8585,92.5293 61.1918,94.5293 63.5,96.5C 62.4995,101.835 61.4995,107.168 60.5,112.5C 52.1981,112.808 48.5314,117.141 49.5,125.5C 45.4849,126.895 41.4849,128.395 37.5,130C 35.1009,130.711 32.7676,130.544 30.5,129.5C 27.116,121.016 24.116,112.35 21.5,103.5C 22.3128,102.186 23.3128,101.019 24.5,100C 35.0958,96.5229 45.7625,93.3562 56.5,90.5 Z"/></g>
<g><path style="opacity:0.947" fill="#1b2f42" d="M 75.5,91.5 C 79.1756,92.7541 82.6756,94.4207 86,96.5C 86.4993,101.489 86.6659,106.489 86.5,111.5C 80.5,113.5 74.5,115.5 68.5,117.5C 66.4451,115.445 64.1117,113.779 61.5,112.5C 62.9573,107.218 64.2906,101.885 65.5,96.5C 69.2989,95.934 72.6323,94.2673 75.5,91.5 Z"/></g>
<g><path style="opacity:0.91" fill="#eb6729" d="M 151.5,99.5 C 155.976,99.8222 157.476,102.156 156,106.5C 153.667,113.833 151.333,121.167 149,128.5C 147.116,130.576 144.949,130.91 142.5,129.5C 138.833,121.5 135.167,113.5 131.5,105.5C 138.114,103.116 144.781,101.116 151.5,99.5 Z"/></g>
<g><path style="opacity:0.894" fill="#eb6729" d="M 128.5,104.5 C 132.853,112.038 136.853,119.871 140.5,128C 125.475,123.878 110.808,118.545 96.5,112C 107.365,109.782 118.032,107.282 128.5,104.5 Z"/></g>
<g><path style="opacity:0.999" fill="#fdfdfe" d="M 60.5,112.5 C 60.8333,112.5 61.1667,112.5 61.5,112.5C 64.1117,113.779 66.4451,115.445 68.5,117.5C 68.5,118.167 68.5,118.833 68.5,119.5C 69.2503,128.916 64.9169,133.083 55.5,132C 53.34,130.668 51.34,129.168 49.5,127.5C 49.5,126.833 49.5,126.167 49.5,125.5C 48.5314,117.141 52.1981,112.808 60.5,112.5 Z"/></g>
<g><path style="opacity:0.933" fill="#c6c6c6" d="M 49.5,127.5 C 51.34,129.168 53.34,130.668 55.5,132C 64.9169,133.083 69.2503,128.916 68.5,119.5C 74.3835,117.309 80.2168,114.976 86,112.5C 86.4998,123.495 86.6665,134.495 86.5,145.5C 79.825,145.666 73.1583,145.5 66.5,145C 57.1667,140.667 47.8333,136.333 38.5,132C 41.8871,129.815 45.5538,128.315 49.5,127.5 Z"/></g>
<g><path style="opacity:0.929" fill="#eb6729" d="M 91.5,112.5 C 107.733,118.285 123.733,124.618 139.5,131.5C 129.167,138.333 118.833,145.167 108.5,152C 102.532,150.77 97.0321,148.27 92,144.5C 91.5002,133.839 91.3335,123.172 91.5,112.5 Z"/></g>
<g><path style="opacity:0.877" fill="#eb6729" d="M 141.5,131.5 C 143.908,132.315 144.741,133.981 144,136.5C 139.045,142.911 134.211,149.411 129.5,156C 126.702,157.734 123.702,158.901 120.5,159.5C 116.854,158.262 113.354,156.595 110,154.5C 109.383,153.551 109.549,152.718 110.5,152C 121.242,145.64 131.575,138.807 141.5,131.5 Z"/></g>
<g><path style="opacity:0.865" fill="#c5c6c5" d="M 34.5,132.5 C 44.7911,136.321 54.7911,140.821 64.5,146C 59.838,149.666 54.838,152.833 49.5,155.5C 44.1742,149.336 39.0075,143.003 34,136.5C 33.805,135.181 33.9717,133.847 34.5,132.5 Z"/></g>
<g><path style="opacity:0.905" fill="#c5c6c5" d="M 66.5,146.5 C 73.1667,146.5 79.8333,146.5 86.5,146.5C 87.0104,152.072 86.1771,157.405 84,162.5C 80.8293,164.224 77.496,165.557 74,166.5C 66.1871,163.843 58.6871,160.51 51.5,156.5C 56.5406,153.108 61.5406,149.774 66.5,146.5 Z"/></g>
<g><path style="opacity:0.87" fill="#eb6729" d="M 91.5,147.5 C 95.3621,148.428 99.0288,149.928 102.5,152C 107.666,154.748 112.666,157.748 117.5,161C 110.639,166.69 103.306,167.523 95.5,163.5C 92.3233,158.635 90.99,153.302 91.5,147.5 Z"/></g>
</svg>
