<svg xmlns="http://www.w3.org/2000/svg" width="2396" height="414" style="shape-rendering:geometricPrecision;text-rendering:geometricPrecision;image-rendering:optimizeQuality;fill-rule:evenodd;clip-rule:evenodd"><path style="opacity:.983" fill="#f8b932" d="M236.5 256.5a832.012 832.012 0 0 1-7.5 81c-1.643 3.461-3.81 6.461-6.5 9a9622.025 9622.025 0 0 0-14.5-161 1212.821 1212.821 0 0 1-7 112 102.88 102.88 0 0 1-6 22c-2.448 5.252-5.614 9.919-9.5 14-2.675-15.081-4.342-30.414-5-46 2.531-17.762 4.031-35.762 4.5-54a56809.31 56809.31 0 0 1 6-220c.629-10.567 6.129-14.733 16.5-12.5 4.103 2.702 6.269 6.535 6.5 11.5 6.96 81.532 14.46 162.866 22.5 244z"/><path style="opacity:.968" fill="#e50100" d="M306.5 374.5a278.973 278.973 0 0 1-28 6 1966.503 1966.503 0 0 1-7.5-62 4772.684 4772.684 0 0 0-11-131 1329.51 1329.51 0 0 1-10 152 42.555 42.555 0 0 1-5.5 14 121.253 121.253 0 0 1-19 18 187.524 187.524 0 0 1-25 9c-3.005.247-5.505-.753-7.5-3a51.582 51.582 0 0 1-3.5-17c12.559-1.18 23.559-5.847 33-14 2.69-2.539 4.857-5.539 6.5-9a832.012 832.012 0 0 0 7.5-81c2.205-81.664 4.372-163.33 6.5-245 1.18-8.51 6.014-12.01 14.5-10.5 5.407 2.287 8.24 6.454 8.5 12.5a54087.204 54087.204 0 0 1 27 312 1216.28 1216.28 0 0 0 6 46c.374.916.874 1.75 1.5 2.5 1.973.495 3.973.662 6 .5z"/><path style="opacity:.972" fill="#335365" d="M180.5 287.5c.658 15.586 2.325 30.919 5 46a329.05 329.05 0 0 0 4 27 51.582 51.582 0 0 0 3.5 17c1.995 2.247 4.495 3.247 7.5 3 1.342 1.293 3.009 2.126 5 2.5a251.483 251.483 0 0 0 22 3.5c1.122.656 2.455.989 4 1 7.22-.467 14.22-1.467 21-3l26-4a278.973 278.973 0 0 0 28-6 31357.37 31357.37 0 0 1 109-19.5 870.562 870.562 0 0 1 85-7c113.333-.667 226.667-.667 340 0 8.374 5.532 9.04 11.866 2 19a147974.089 147974.089 0 0 1-363 3 1702.986 1702.986 0 0 0-61 6 11248.68 11248.68 0 0 0-146 26.5c-5.031-.057-9.698.943-14 3-25.925 4.88-50.925 2.047-75-8.5-4.634-2.794-7.967-6.627-10-11.5a487.414 487.414 0 0 0-5-21 3059.123 3059.123 0 0 0-3-16c.335-7.976-.331-15.976-2-24a10037.53 10037.53 0 0 1-16.5-140 1486.158 1486.158 0 0 1-7 93 323.915 323.915 0 0 1-18.5 66 884.36 884.36 0 0 1-10.5 20 77.145 77.145 0 0 1-12.5 13 241.44 241.44 0 0 1-32 16.5 908.961 908.961 0 0 1-50 18.5c-11.855 2.985-17.022-1.682-15.5-14l2.5-3a52534.54 52534.54 0 0 1 50-18.5 357.856 357.856 0 0 0 32-16c3.167-2.5 6-5.333 8.5-8.5 13.091-26.609 21.758-54.609 26-84a5246.733 5246.733 0 0 0 11-190 103.61 103.61 0 0 1 3-21c4.461-6.82 10.294-8.32 17.5-4.5 3.273 4.24 5.107 9.073 5.5 14.5a7789.433 7789.433 0 0 0 23.5 221zm-17 37a278.689 278.689 0 0 1-42 19 323.915 323.915 0 0 0 18.5-66 1486.158 1486.158 0 0 0 7-93 10037.53 10037.53 0 0 0 16.5 140zm2 24c.992 5.212 1.992 10.546 3 16a1736.4 1736.4 0 0 0-63 11 1219.868 1219.868 0 0 1 60-27zm60 23a69.964 69.964 0 0 0 2 15 251.483 251.483 0 0 1-22-3.5c-1.991-.374-3.658-1.207-5-2.5a187.524 187.524 0 0 0 25-9z"/><path style="opacity:.941" d="M1734.5 63.5h19v34h-19v-34z"/><path style="opacity:.942" d="M408.5 70.5h19c-.167 46.001 0 92.001.5 138-.253 27.34 7.081 52.34 22 75 17.233 20.806 39.399 30.472 66.5 29 45.751-1.146 73.584-24.146 83.5-69 1.8-8.93 3.133-17.93 4-27 .5-48.666.667-97.332.5-146h20c.167 47.001 0 94.001-.5 141-.617 27.474-7.617 53.14-21 77-20.989 29.577-49.822 43.911-86.5 43-54.209-1.048-88.376-27.714-102.5-80a211.58 211.58 0 0 1-5-32c-.5-49.666-.667-99.332-.5-149zM1430.5 74.5h19v65h44v16h-44c-.17 47.335 0 94.668.5 142 3.87 10.871 11.7 16.204 23.5 16 10.1-.588 19.43-3.588 28-9a60.54 60.54 0 0 1 6 14 4.942 4.942 0 0 1-1 2.5c-15.93 9.133-32.93 12.133-51 9-12.84-3.509-21.01-11.675-24.5-24.5-.5-49.999-.67-99.999-.5-150h-27v-16h27v-65z"/><path style="opacity:.944" d="M766.5 136.5c36.203-5.246 58.369 9.754 66.5 45a136.924 136.924 0 0 1 3 21c.5 42.332.667 84.665.5 127h-19c.167-40.335 0-80.668-.5-121-.216-16.985-5.383-32.151-15.5-45.5-7.827-6.377-16.827-9.544-27-9.5-36.109 3.977-60.609 22.977-73.5 57a7077.14 7077.14 0 0 0-.5 119h-19v-190h18c-.167 14.004 0 28.004.5 42 15.492-24.832 37.659-39.832 66.5-45z"/><path style="opacity:.935" d="M956.5 136.5c26.283-3.347 49.95 2.82 71 18.5 8.07 7.23 14.4 15.73 19 25.5a108.375 108.375 0 0 1-17.5 6c-21.87-30.398-50.7-39.564-86.5-27.5-22.962 11.307-37.462 29.474-43.5 54.5-7.461 38.209 4.372 68.709 35.5 91.5 33.085 17.125 62.918 12.625 89.5-13.5 2.17-3.667 4.33-7.333 6.5-11a183.443 183.443 0 0 1 18 6c-8.72 19.886-23.39 33.386-44 40.5-40.254 13.089-74.754 4.255-103.5-26.5-24.974-33.485-29.974-69.819-15-109 14.32-30.228 37.82-48.561 70.5-55z"/><path style="opacity:.926" d="M1152.5 136.5c45.6-3.457 78.44 15.21 98.5 56 6.45 15.712 9.12 32.045 8 49-55.1.998-110.26 1.331-165.5 1 3.31 33.118 19.98 56.618 50 70.5 30.43 9.352 56.59 2.518 78.5-20.5 2.17-3.5 4.33-7 6.5-10.5 5.39.342 10.72 1.342 16 3 .62 2.544.12 5.044-1.5 7.5-14.9 22.839-36.07 36.006-63.5 39.5-51.81 2.844-85.98-20.323-102.5-69.5-10.05-41.175.12-76.342 30.5-105.5 13.33-10.669 28.33-17.503 45-20.5zm11 15c40.45 2.617 65.62 23.617 75.5 63a73.616 73.616 0 0 1 1.5 12c-49.33.167-98.67 0-148-.5 5.2-42.698 28.87-67.531 71-74.5z"/><path style="opacity:.933" d="M1592.5 136.5c24.64-3.508 46.64 2.325 66 17.5 12.06 11.961 18.9 26.461 20.5 43.5.33 36 .67 72 1 108 .9 4.07 3.4 6.07 7.5 6v18c-11.11 2.856-18.95-.81-23.5-11a142.293 142.293 0 0 1-2-19c-15.97 19.073-36.47 29.907-61.5 32.5-26.09 4.417-47.92-3.083-65.5-22.5-11.2-15.873-14.2-33.206-9-52 6.96-15.623 18.46-26.456 34.5-32.5 33.42-10.437 66.59-9.603 99.5 2.5.67-9.333.67-18.667 0-28-4.5-27.167-20.33-43-47.5-47.5-14.26-1.2-27.93 1.133-41 7-9.73 4.28-18.9 9.447-27.5 15.5a62.262 62.262 0 0 1-7.5-13c16.74-12.705 35.41-21.038 56-25zm-2 95c18.23-.999 36.23.501 54 4.5a71.33 71.33 0 0 1 15.5 5.5c7.96 27.492.13 48.659-23.5 63.5-20.85 11.856-42.85 14.856-66 9-21.87-9.896-31.03-26.729-27.5-50.5 3.62-10.625 10.46-18.459 20.5-23.5 8.87-3.628 17.87-6.461 27-8.5z"/><path style="opacity:.944" d="M1894.5 136.5c36.75-5.242 58.91 10.092 66.5 46a137.667 137.667 0 0 1 3 21c.5 41.999.67 83.999.5 126h-19c.17-40.001 0-80.001-.5-120-.39-14.564-4.06-28.231-11-41-8.1-9.968-18.6-14.968-31.5-15-36.11 3.977-60.61 22.977-73.5 57-.5 39.665-.67 79.332-.5 119h-19v-190h18a877.8 877.8 0 0 0 .5 42c15.49-24.832 37.66-39.832 66.5-45z"/><path style="opacity:.94" d="M2094.5 136.5c42.81-2.682 73.98 14.985 93.5 53 14.77 34.275 13.44 67.941-4 101-26.09 39.365-61.59 51.198-106.5 35.5-16.3-8.302-29.47-20.135-39.5-35.5-.5 38.665-.67 77.332-.5 116h-19v-267h18c-.17 11.671 0 23.338.5 35 14.5-19.828 33.67-32.495 57.5-38zm2 17c37.53.098 63.2 17.598 77 52.5 11.24 36.918 2.91 68.585-25 95-34.28 22.095-65.78 18.595-94.5-10.5a115.1 115.1 0 0 1-16-24c-.67-21.667-.67-43.333 0-65 2.83-10.487 8.33-19.321 16.5-26.5 12.27-10.636 26.27-17.803 42-21.5z"/><path style="opacity:.944" d="M1376.5 138.5h12v18c-35.3 2.72-58.8 20.72-70.5 54-.5 39.665-.67 79.332-.5 119h-19v-190h18c-.17 14.67 0 29.337.5 44 12.89-24.409 32.72-39.409 59.5-45z"/><path style="opacity:.95" d="M1734.5 139.5h19v190h-19v-190z"/><path style="opacity:.929" d="M2212.5 139.5c6.7-.33 13.37.003 20 1a26009.943 26009.943 0 0 0 74 168 8850.763 8850.763 0 0 0 69-169h19a14167.087 14167.087 0 0 1-106.5 256c-8.86 10.688-20.36 15.688-34.5 15a23.222 23.222 0 0 1-6.5-1c-.5-5.657-.67-11.324-.5-17 5.74.289 11.41-.211 17-1.5 2.6-.883 4.77-2.383 6.5-4.5a209.074 209.074 0 0 0 9-17 2187.75 2187.75 0 0 1 17.5-40.5 9517.865 9517.865 0 0 1-84-189.5z"/><path style="opacity:.979" fill="#f7b932" d="M163.5 324.5c1.669 8.024 2.335 16.024 2 24a1219.868 1219.868 0 0 0-60 27 51.569 51.569 0 0 1-7 1 77.145 77.145 0 0 0 12.5-13 884.36 884.36 0 0 0 10.5-20 278.689 278.689 0 0 0 42-19z"/><path style="opacity:.978" fill="#f6b832" d="M244.5 353.5a2009.28 2009.28 0 0 0 3.5 28c1.409 1.281 2.909 2.281 4.5 3-6.78 1.533-13.78 2.533-21 3-1.545-.011-2.878-.344-4-1a69.964 69.964 0 0 1-2-15 121.253 121.253 0 0 0 19-18z"/><path style="opacity:.957" fill="#e30100" d="M168.5 364.5a487.414 487.414 0 0 1 5 21 22375.626 22375.626 0 0 0-157 26 908.961 908.961 0 0 0 50-18.5 241.44 241.44 0 0 0 32-16.5 51.569 51.569 0 0 0 7-1 1736.4 1736.4 0 0 1 63-11z"/><path style="opacity:.667" fill="#c29d43" d="M272.5 402.5c-4.442 1.49-9.109 2.49-14 3 4.302-2.057 8.969-3.057 14-3z"/></svg>