<svg xmlns="http://www.w3.org/2000/svg" width="570" height="130" style="shape-rendering:geometricPrecision;text-rendering:geometricPrecision;image-rendering:optimizeQuality;fill-rule:evenodd;clip-rule:evenodd"><path style="opacity:1" fill="#fdfdfd" d="M-.5-.5h570v130H-.5V-.5z"/><path style="opacity:1" fill="#0c0c0c" d="m144.5 25.5 5 6a91.849 91.849 0 0 1 9.5 20 42.479 42.479 0 0 1 0 13c-4.899-25.721-19.732-42.388-44.5-50a41.742 41.742 0 0 0-9-1c-24.443-2.354-46.11 4.48-65 20.5L25 49.5c-6.964 11.502-5.797 22.002 3.5 31.5 3.566 2.2 7.4 3.7 11.5 4.5 4.54-.807 5.374-2.807 2.5-6a16.328 16.328 0 0 1-2-5v-4c1.474-2.996 3.807-4.496 7-4.5-3.388 1.314-4.721 3.48-4 6.5v2c6.11 4.475 6.443 9.309 1 14.5-20.929.064-30.429-10.436-28.5-31.5a50.536 50.536 0 0 1 6-12C38.274 26.228 58.774 14.062 83.5 9c23.089-3.981 43.422 1.519 61 16.5z"/><path style="opacity:1" fill="#cac9c9" d="M144.5 25.5C126.922 10.519 106.589 5.019 83.5 9 58.774 14.062 38.274 26.228 22 45.5a50.536 50.536 0 0 0-6 12C14.071 78.564 23.571 89.064 44.5 89c5.443-5.191 5.11-10.025-1-14.5 3.018-2.026 6.018-4.026 9-6 5.743 2.608 11.743 3.441 18 2.5a72.912 72.912 0 0 0 21-7.5l4 8a528.298 528.298 0 0 0-30 10.5c-3.858 2.358-6.858 5.525-9 9.5.47.963 1.136.963 2 0 1.568.973 3.235 1.14 5 .5 3.974-4.824 8.974-6.49 15-5 .88-1.356 1.213-2.856 1-4.5a331.934 331.934 0 0 0 19-7c3.518 2.882 5.518 1.882 6-3 5.421-4.764 9.754-10.431 13-17 1.653.16 2.986.826 4 2a86.664 86.664 0 0 0-6 11c-4.76-.3-6.094 1.7-4 6a42.584 42.584 0 0 0-5 1.5c-2.749 2.69-5.749 4.856-9 6.5-2.697-1.545-4.697-.879-6 2a407.039 407.039 0 0 0-20 6.5c-7.753 1.399-11.253 5.899-10.5 13.5 1.12 2.791 3.12 4.457 6 5A2146.678 2146.678 0 0 0 108.5 95a141.066 141.066 0 0 1 30-5c3.999-1.333 7.666-3.166 11-5.5.891.61 1.891.943 3 1-2.975 3.161-6.642 5.328-11 6.5a374.025 374.025 0 0 0-27 4 1242.749 1242.749 0 0 1-46 15.5c-8.997-1.959-13.164-7.626-12.5-17-4.328 9.861-1.495 17.027 8.5 21.5 3 .667 6 .667 9 0 22.886-10.741 46.886-17.407 72-20 13.381-5.138 18.214-14.638 14.5-28.5a68.43 68.43 0 0 1-4.5 13l-3-2c.509-12.993-2.824-24.66-10-35 3.571.092 4.738-1.574 3.5-5-2.464-1.41-4.631-1.076-6.5 1-2.312-4.312-5.645-7.645-10-10 3.352-4.509 2.352-6.675-3-6.5-.88 1.356-1.214 2.856-1 4.5-4.595-3.757-9.929-5.757-16-6a47.863 47.863 0 0 1 5-7c24.768 7.612 39.601 24.279 44.5 50a42.479 42.479 0 0 0 0-13 91.849 91.849 0 0 0-9.5-20c2.591.754 4.424 2.421 5.5 5 8.38 13.52 12.047 28.187 11 44a41.315 41.315 0 0 1-6.5 12 36.67 36.67 0 0 1-13 9.5 353.65 353.65 0 0 1-28 4 867.085 867.085 0 0 0-44 16c-15.835 2.825-25.001-3.675-27.5-19.5a21.56 21.56 0 0 0-5.5-5.5c-19.782-1.283-30.45-11.783-32-31.5a36.14 36.14 0 0 1 3.5-14C40.306 13.398 76.806-.435 122.5 10a89.655 89.655 0 0 1 16 8c2.618 2.106 4.618 4.606 6 7.5z"/><path style="opacity:1" fill="#8dc643" d="m80.5 21.5-2 1h-3c-2.094-5.07-.594-6.737 4.5-5a8.434 8.434 0 0 1 .5 4z"/><path style="opacity:1" fill="#c4c3c2" d="M105.5 13.5a392.226 392.226 0 0 0-23 4.5 87.917 87.917 0 0 0 24.5-2.5c1.059.13 1.892.63 2.5 1.5a29.048 29.048 0 0 1-3 4.5c-3.195-1.53-6.695-2.196-10.5-2a66.78 66.78 0 0 0-15.5 2 8.434 8.434 0 0 0-.5-4c-5.094-1.737-6.594-.07-4.5 5-6.63.496-12.297 2.83-17 7-2.785-.584-4.452.416-5 3l-12 7c-3.45-.744-5.116.59-5 4a11.741 11.741 0 0 1-5 3c-3.853 1.062-4.853 3.395-3 7-2.746 3.5-4.413 7.5-5 12-1.586 2.716-1.253 5.05 1 7 2.116 4.454 5.45 7.454 10 9a51.639 51.639 0 0 1-1-7c2.3 1.244 3.634 3.244 4 6 2.082 1.394 3.749 1.061 5-1 2.874 3.193 2.04 5.193-2.5 6-4.1-.8-7.934-2.3-11.5-4.5-9.297-9.498-10.464-19.998-3.5-31.5L40.5 34c18.89-16.02 40.557-22.854 65-20.5z"/><path style="opacity:1" fill="#fbfcfb" d="M106.5 21.5c-.094 2.569-1.428 4.069-4 4.5-4.117 5.233-9.45 8.733-16 10.5a103.272 103.272 0 0 1-6-15 66.78 66.78 0 0 1 15.5-2c3.805-.196 7.305.47 10.5 2z"/><path style="opacity:1" fill="#fcfcfb" d="M109.5 21.5c6.071.243 11.405 2.243 16 6a30.755 30.755 0 0 1-4 10 231.699 231.699 0 0 1-16 5l-2-2c.039-4.342 1.372-8.176 4-11.5-.979-2.892-.313-5.392 2-7.5z"/><path style="opacity:1" fill="#0e1011" d="M214.5 35.5v5h-8c-1.237-8.208-5.07-9.875-11.5-5a196.152 196.152 0 0 0 0 28c2.497 1.978 5.331 2.478 8.5 1.5 1.323-.816 1.989-1.983 2-3.5.951-1.419 1.284-3.085 1-5h8v7c-.654 3.816-2.654 6.65-6 8.5-4.911 1.492-9.911 1.826-15 1-4.836-1.819-7.669-5.319-8.5-10.5a122.564 122.564 0 0 1 1-30c4.536-7.344 11.036-9.844 19.5-7.5 5.027 1.853 8.027 5.353 9 10.5z"/><path style="opacity:1" fill="#101112" d="M231.5 24.5c7.371-1.451 13.538.549 18.5 6a20.641 20.641 0 0 1 2 6c.667 8.667.667 17.333 0 26-.772 5.735-3.938 9.235-9.5 10.5-10.012 3.25-16.846.083-20.5-9.5a196.152 196.152 0 0 1 0-28c1.627-5.118 4.793-8.785 9.5-11z"/><path style="opacity:1" fill="#0b0d0d" d="M393.5 59.5c.904-.709 1.237-1.709 1-3h8v5c-.505 5.867-3.505 9.7-9 11.5a42.498 42.498 0 0 1-13 0c-2.833-1.5-5-3.667-6.5-6.5a135.715 135.715 0 0 1-1-32c5.536-10.302 13.703-12.802 24.5-7.5 4.417 3.43 6.084 7.93 5 13.5h-9c-.068-7.238-3.401-9.404-10-6.5a9.457 9.457 0 0 0-1.5 2.5 156.422 156.422 0 0 0 0 25c2.053 3.792 5.219 4.958 9.5 3.5 1.361-1.584 2.028-3.418 2-5.5z"/><path style="opacity:1" fill="#090b0c" d="M452.5 24.5c8.352-1.502 14.852 1.165 19.5 8a256.122 256.122 0 0 1 0 32c-1.167 4.5-4 7.333-8.5 8.5-7.142 1.832-13.308.332-18.5-4.5a20.641 20.641 0 0 1-2-6 196.152 196.152 0 0 1 0-28l3-6a59.772 59.772 0 0 0 6.5-4z"/><path style="opacity:1" fill="#444546" d="M260.5 25.5v47h8c-2.787.977-5.787 1.31-9 1a576.621 576.621 0 0 1 1-48z"/><path style="opacity:1" fill="#07090a" d="M260.5 25.5a25.87 25.87 0 0 1 10 1 412.771 412.771 0 0 1 11 25c.283.79.783 1.456 1.5 2 .5-9.327.666-18.66.5-28h7v47h-8a907.324 907.324 0 0 1-13.5-29c-.5 9.66-.666 19.328-.5 29h-8v-47z"/><path style="opacity:1" fill="#444546" d="M283.5 25.5c.166 9.34 0 18.673-.5 28-.717-.544-1.217-1.21-1.5-2l2-26zM290.5 25.5a576.621 576.621 0 0 1 1 48c-3.213.31-6.213-.023-9-1h8v-47z"/><path style="opacity:1" fill="#07090a" d="M321.5 49.5c-.039 1.256.461 2.256 1.5 3 .5-8.994.666-17.994.5-27h8v48a21.12 21.12 0 0 1-9-1 487.994 487.994 0 0 1-12-27c-.283-.79-.783-1.456-1.5-2-.5 9.66-.666 19.328-.5 29h-8v-47c3.606-.29 7.106.044 10.5 1 3.514 7.693 7.014 15.36 10.5 23z"/><path style="opacity:1" fill="#bcbdbd" d="M323.5 25.5c.166 9.006 0 18.006-.5 27-1.039-.744-1.539-1.744-1.5-3l2-24z"/><path style="opacity:1" fill="#040707" d="M349.5 64.5c5.14.988 10.474 1.321 16 1v7h-25v-47h25v8h-16v11h12v8h-12v12z"/><path style="opacity:1" fill="#060809" d="M427.5 72.5h-9a380.928 380.928 0 0 0-1-39h-10v-8h31v8h-11v39z"/><path style="opacity:1" fill="#444546" d="M481.5 25.5v47h7v1h-8a576.621 576.621 0 0 1 1-48z"/><path style="opacity:1" fill="#090b0c" d="M481.5 25.5h13a492.272 492.272 0 0 0 7.5 30 487.6 487.6 0 0 0 7.5-30h13v47h-7c.167-12.005 0-24.005-.5-36a42.504 42.504 0 0 0-1.5 5c-2.664 10.663-5.331 21.33-8 32h-7a1057.305 1057.305 0 0 0-8-31 20.088 20.088 0 0 0-1.5-6 647.865 647.865 0 0 0-.5 36h-7v-47z"/><path style="opacity:1" fill="#444546" d="M522.5 25.5a576.621 576.621 0 0 1 1 48h-8v-1h7v-47zM532.5 25.5v47h25c-8.484.993-17.151 1.326-26 1a576.621 576.621 0 0 1 1-48z"/><path style="opacity:1" fill="#060809" d="M532.5 25.5h24v8h-15c-.982 3.462-1.315 7.129-1 11h13v8h-12c-.985 4.134-1.318 8.468-1 13h17v7h-25v-47z"/><path style="opacity:1" fill="#70c157" d="M105.5 13.5c3.045.008 6.045.341 9 1a47.863 47.863 0 0 0-5 7c-2.313 2.108-2.979 4.608-2 7.5-2.628 3.324-3.961 7.158-4 11.5h-1a21.128 21.128 0 0 0-1-9 72.522 72.522 0 0 1-10 5.5l-2 5a20.556 20.556 0 0 1-8.5-1.5 287.35 287.35 0 0 1-15.5 2v-2c4.503 0 8.837-.834 13-2.5a91.08 91.08 0 0 1-18-5.5l1.5-1a623.58 623.58 0 0 1 22.5 6l2-1c6.55-1.767 11.883-5.267 16-10.5 2.572-.431 3.906-1.931 4-4.5a29.048 29.048 0 0 0 3-4.5c-.608-.87-1.441-1.37-2.5-1.5A87.917 87.917 0 0 1 82.5 18c7.73-1.75 15.397-3.25 23-4.5z"/><path style="opacity:1" fill="#ed2528" d="M58.5 29.5c2 5.333.333 7-5 5v-2c.548-2.584 2.215-3.584 5-3z"/><path style="opacity:1" fill="#fbf7fa" d="M129.5 29.5c4.355 2.355 7.688 5.688 10 10a112.296 112.296 0 0 1-12-2c-2.317-2.099-2.483-4.432-.5-7 .671-.752 1.504-1.086 2.5-1z"/><path style="opacity:1" fill="#57be5f" d="M80.5 21.5a103.272 103.272 0 0 0 6 15l-2 1a145.666 145.666 0 0 1-6-15l2-1z"/><path style="opacity:1" fill="#fafaf8" d="M75.5 22.5h3a145.666 145.666 0 0 0 6 15 623.58 623.58 0 0 0-22.5-6l-1.5 1a91.08 91.08 0 0 0 18 5.5 34.692 34.692 0 0 1-13 2.5c-4.43-1.408-6.264.26-5.5 5 3.466 1.85 5.3.85 5.5-3a287.35 287.35 0 0 0 15.5-2 20.556 20.556 0 0 0 8.5 1.5l2-5a72.522 72.522 0 0 0 10-5.5 21.128 21.128 0 0 1 1 9c-2.846.309-4.346 1.975-4.5 5-4.287 4.226-9.454 6.393-15.5 6.5-.556.383-.89.883-1 1.5a1541.738 1541.738 0 0 1-37-11.5c-1.333-.667-1.333-1.333 0-2 3.028-1.844 6.028-3.678 9-5.5 5.333 2 7 .333 5-5 4.703-4.17 10.37-6.504 17-7z"/><path style="opacity:1" fill="#f2f2f2" d="M234.5 32.5c3.152-.541 5.652.459 7.5 3 .667 9.333.667 18.667 0 28-2.497 1.978-5.331 2.478-8.5 1.5-1.393-1.171-2.227-2.671-2.5-4.5-.667-8-.667-16 0-24a20.682 20.682 0 0 1 3.5-4z"/><path style="opacity:1" fill="#787979" d="M417.5 33.5a380.928 380.928 0 0 1 1 39h9c-3.125.98-6.458 1.313-10 1v-40z"/><path style="opacity:1" fill="#f2f2f2" d="M455.5 32.5c3.152-.541 5.652.459 7.5 3 .667 9 .667 18 0 27-2.167 2.787-5.001 3.62-8.5 2.5a6.977 6.977 0 0 1-2.5-3.5 156.422 156.422 0 0 1 0-25c.69-1.85 1.856-3.184 3.5-4z"/><path style="opacity:1" fill="#dd77ad" d="M129.5 29.5c-.996-.086-1.829.248-2.5 1-1.983 2.568-1.817 4.901.5 7 3.976.886 7.976 1.552 12 2 1.869-2.076 4.036-2.41 6.5-1 1.238 3.426.071 5.092-3.5 5-2.369-1.907-5.202-2.907-8.5-3l-5.5 1a228.739 228.739 0 0 1 12 13.5c4.382.003 6.049 2.17 5 6.5-4.331 1.049-6.497-.618-6.5-5L126.5 42c-3.63-1.664-7.297-1.83-11-.5l-4 1-6 1v-1a231.699 231.699 0 0 0 16-5 30.755 30.755 0 0 0 4-10c-.214-1.644.12-3.144 1-4.5 5.352-.175 6.352 1.991 3 6.5z"/><path style="opacity:1" fill="#b8b9b9" d="m490.5 42.5-2 31v-1c-.167-12.005 0-24.005.5-36a20.088 20.088 0 0 1 1.5 6z"/><path style="opacity:1" fill="#bbbcbc" d="M515.5 72.5v1l-2-32a42.504 42.504 0 0 1 1.5-5c.5 11.995.667 23.995.5 36z"/><path style="opacity:1" fill="#ea2b2d" d="M41.5 39.5c.8 1.542 1.134 3.209 1 5l-2 2h-2c-.342-.838-1.008-1.172-2-1v-2c-.116-3.41 1.55-4.744 5-4z"/><path style="opacity:1" fill="#96cb52" d="M65.5 40.5v2c-.2 3.85-2.034 4.85-5.5 3-.764-4.74 1.07-6.408 5.5-5z"/><path style="opacity:1" fill="#777878" d="M214.5 35.5c.961 1.765 1.295 3.765 1 6-3.213.31-6.213-.023-9-1h8v-5z"/><path style="opacity:1" fill="#c0435a" d="M53.5 32.5v2a3682.958 3682.958 0 0 1-9 5.5c-1.333.667-1.333 1.333 0 2a1541.738 1541.738 0 0 0 37 11.5v1a1671.738 1671.738 0 0 1-39-10c.134-1.791-.2-3.458-1-5l12-7z"/><path style="opacity:1" fill="#0c0c0d" d="M111.5 42.5c5.087 1.828 7.421 5.495 7 11l-1 2c-3.246 6.569-7.579 12.236-13 17-2.284.475-4.284 1.475-6 3a331.934 331.934 0 0 1-19 7c-8.02.887-15.02 3.887-21 9-.864.963-1.53.963-2 0 2.142-3.975 5.142-7.142 9-9.5a528.298 528.298 0 0 1 30-10.5c1.21-.432 2.21-1.099 3-2 .667 0 1-.333 1-1 .992.172 1.658-.162 2-1 5.892-3.895 9.892-9.228 12-16-.598-3.321-2.265-4.321-5-3-2.878 1.062-4.878 3.062-6 6-1 .333-1.667 1-2 2a35.89 35.89 0 0 0-8 6c-.667 0-1 .333-1 1a72.912 72.912 0 0 1-21 7.5c-6.257.941-12.257.108-18-2.5-.333-1-1-1.667-2-2-1.057-.706-.724-1.04 1-1 1.935.65 3.935.983 6 1 10.822.943 20.822-1.39 30-7 .667 0 1-.333 1-1 5.613-2.613 9.946-6.613 13-12a301.462 301.462 0 0 0 4-3l6-1z"/><path style="opacity:1" fill="#abacac" d="M541.5 33.5v10c4.202-.317 8.202.017 12 1h-13c-.315-3.871.018-7.538 1-11z"/><path style="opacity:1" fill="#fefdfd" d="M42.5 44.5a1671.738 1671.738 0 0 0 39 10 960.555 960.555 0 0 1-23.5 8 12.988 12.988 0 0 0-5.5-1 45.793 45.793 0 0 0-12 1v-16l2-2z"/><path style="opacity:1" fill="#777878" d="M310.5 45.5c-.994 9.152-1.327 18.485-1 28-3.213.31-6.213-.023-9-1h8c-.166-9.672 0-19.34.5-29 .717.544 1.217 1.21 1.5 2z"/><path style="opacity:1" fill="#be425a" d="M36.5 43.5v2a6.541 6.541 0 0 1-3 3l-2-2a11.741 11.741 0 0 0 5-3z"/><path style="opacity:1" fill="#f8f7f8" d="M36.5 45.5c.992-.172 1.658.162 2 1v28c-4.857-1.598-8.857-4.43-12-8.5a4.932 4.932 0 0 0-3-.5c.587-4.5 2.254-8.5 5-12 4 .667 5.667-1 5-5a6.541 6.541 0 0 0 3-3z"/><path style="opacity:1" fill="#b9314e" d="M38.5 46.5h2v28h-2v-28z"/><path style="opacity:1" fill="#ed3432" d="m31.5 46.5 2 2c.667 4-1 5.667-5 5-1.853-3.605-.853-5.938 3-7z"/><path style="opacity:1" fill="#c0c0c4" d="M101.5 46.5c-3.054 5.387-7.387 9.387-13 12-1.023-2.507-.356-4.673 2-6.5l11-5.5z"/><path style="opacity:1" fill="#c4c4c6" d="M108.5 48.5a18.95 18.95 0 0 0 5 3c-2.108 6.772-6.108 12.105-12 16a61.26 61.26 0 0 1 1-13c1.122-2.938 3.122-4.938 6-6z"/><path style="opacity:1" fill="#495ca1" d="M108.5 48.5c2.735-1.321 4.402-.321 5 3a18.95 18.95 0 0 1-5-3z"/><path style="opacity:1" fill="#cac9ca" d="M115.5 41.5c4.45 3.566 6.783 8.233 7 14-1.105-1.1-2.438-1.767-4-2 .421-5.505-1.913-9.172-7-11l4-1z"/><path style="opacity:1" fill="#586aad" d="M102.5 54.5a61.26 61.26 0 0 0-1 13c-.342.838-1.008 1.172-2 1a45.793 45.793 0 0 1 1-12c.333-1 1-1.667 2-2z"/><path style="opacity:1" fill="#5d6bad" d="M118.5 53.5c1.562.233 2.895.9 4 2a18.95 18.95 0 0 0 5 3v1c-.667 0-1 .333-1 1a18.95 18.95 0 0 0-5-3c-1.014-1.174-2.347-1.84-4-2l1-2z"/><path style="opacity:1" fill="#565758" d="M402.5 61.5v-5h-8c.237 1.291-.096 2.291-1 3v-4h10c.295 2.235-.039 4.235-1 6z"/><path style="opacity:1" fill="#575859" d="M214.5 63.5v-7h-8c.284 1.915-.049 3.581-1 5v-6h10c.306 2.885-.027 5.552-1 8z"/><path style="opacity:1" fill="#f2f2f7" d="M83.5 57.5c-6.448 5.444-13.781 7.444-22 6 6.638-2.324 13.305-4.658 20-7 .683.363 1.35.696 2 1z"/><path style="opacity:1" fill="#c6c6c8" d="M100.5 56.5a45.793 45.793 0 0 0-1 12c0 .667-.333 1-1 1-2.7-1.734-4.7-4.068-6-7a35.89 35.89 0 0 1 8-6z"/><path style="opacity:1" fill="#ec3030" d="M129.5 64.5c-1.713-1.135-2.38-2.802-2-5v-1c3.856-1.657 5.689-.324 5.5 4a18.489 18.489 0 0 1-3.5 2z"/><path style="opacity:1" fill="#f8f4f5" d="M121.5 57.5a18.95 18.95 0 0 1 5 3c-1.954 4.276-5.287 7.276-10 9-.667 0-1-.333-1-1a86.664 86.664 0 0 1 6-11z"/><path style="opacity:1" fill="#c8c7c8" d="M83.5 57.5c1.88-.27 3.213.396 4 2-9.178 5.61-19.178 7.943-30 7 .711-1.701 2.045-2.701 4-3 8.219 1.444 15.552-.556 22-6z"/><path style="opacity:1" fill="#5975b6" d="M102.5 40.5h1l2 2v1a301.462 301.462 0 0 1-4 3l-11 5.5c-2.356 1.827-3.023 3.993-2 6.5 0 .667-.333 1-1 1-.787-1.604-2.12-2.27-4-2a44.358 44.358 0 0 1-2-1c-6.695 2.342-13.362 4.676-20 7-1.955.299-3.289 1.299-4 3a19.242 19.242 0 0 1-6-1c-.067-1.459.266-2.792 1-4 1.9-.067 3.734.267 5.5 1a960.555 960.555 0 0 0 23.5-8v-1c.11-.617.444-1.117 1-1.5 6.046-.107 11.213-2.274 15.5-6.5.154-3.025 1.654-4.691 4.5-5z"/><path style="opacity:1" fill="#c2c2c4" d="M52.5 61.5c-.734 1.208-1.067 2.541-1 4-1.724-.04-2.057.294-1 1-2.308 1.97-4.642 3.97-7 6-.721-3.02.612-5.186 4-6.5-3.193.004-5.526 1.504-7 4.5v-8a45.793 45.793 0 0 1 12-1z"/><path style="opacity:1" fill="#c54359" d="M127.5 59.5c-.38 2.198.287 3.865 2 5-2.839 4.007-4.839 8.34-6 13v-4h-4c3.683-1.315 5.683-3.649 6-7a61.246 61.246 0 0 0-9 6v-3c4.713-1.724 8.046-4.724 10-9 0-.667.333-1 1-1z"/><path style="opacity:1" fill="#808181" d="M541.5 52.5v12c5.526-.321 10.86.012 16 1h-17c-.318-4.532.015-8.866 1-13z"/><path style="opacity:1" fill="#5566a6" d="M92.5 62.5c1.3 2.932 3.3 5.266 6 7-.79.901-1.79 1.568-3 2l-4-8c0-.667.333-1 1-1z"/><path style="opacity:1" fill="#fdfbf9" d="M142.5 43.5c7.176 10.34 10.509 22.007 10 35-1.784-1.074-2.951-2.74-3.5-5a26.722 26.722 0 0 0-1.5-7l-2-1c-2.137 1.238-3.471 3.071-4 5.5-2.318 1.993-4.984 3.16-8 3.5a10.1 10.1 0 0 0-1.5-6c-1.323 3.608-1.989 7.275-2 11 1.604 1.15 3.27 1.15 5 0 1.49.817 2.99 1.65 4.5 2.5A1471.758 1471.758 0 0 0 82 98.5c-5.703-3.299-7.536-1.799-5.5 4.5 1 .667 2 .667 3 0 1.02-1.556 2.353-2.722 4-3.5a2849.037 2849.037 0 0 1 55.5-15 18.19 18.19 0 0 0 3.5 2 26.248 26.248 0 0 0 5.5-3c.765.07 1.265.403 1.5 1-3.334 2.334-7.001 4.167-11 5.5a141.066 141.066 0 0 0-30 5A2146.678 2146.678 0 0 1 67 109.5c-2.88-.543-4.88-2.209-6-5-.753-7.601 2.747-12.101 10.5-13.5a407.039 407.039 0 0 1 20-6.5c1.304 4.324 3.637 4.99 7 2 6.79-2.93 13.79-5.263 21-7 1.88.27 3.213-.396 4-2 1.161-4.66 3.161-8.993 6-13a18.489 18.489 0 0 0 3.5-2c.189-4.324-1.644-5.657-5.5-4a18.95 18.95 0 0 1-5-3c-.217-5.767-2.55-10.434-7-14 3.703-1.33 7.37-1.164 11 .5L139 56.5c.003 4.382 2.169 6.049 6.5 5 1.049-4.33-.618-6.497-5-6.5a228.739 228.739 0 0 0-12-13.5l5.5-1c3.298.093 6.131 1.093 8.5 3z"/><path style="opacity:1" fill="#f9ebee" d="M119.5 73.5c-1.395 1.315-2.395.981-3-1a61.246 61.246 0 0 1 9-6c-.317 3.351-2.317 5.685-6 7z"/><path style="opacity:1" fill="#0d0d0d" d="M152.5 85.5c1.75-1.16 2.75-2.826 3-5a68.43 68.43 0 0 0 4.5-13c3.714 13.862-1.119 23.362-14.5 28.5-25.114 2.593-49.114 9.259-72 20-3 .667-6 .667-9 0-9.995-4.473-12.828-11.639-8.5-21.5-.664 9.374 3.503 15.041 12.5 17a1242.749 1242.749 0 0 0 46-15.5 374.025 374.025 0 0 1 27-4c4.358-1.172 8.025-3.339 11-6.5z"/><path style="opacity:1" fill="#e9252a" d="M115.5 68.5c0 .667.333 1 1 1v3c.605 1.981 1.605 2.315 3 1h4v4c-.787 1.604-2.12 2.27-4 2l-2-2c-1.107-2.469-3.107-3.469-6-3-2.094-4.3-.76-6.3 4-6z"/><path style="opacity:1" fill="#5264a9" d="M50.5 66.5c1 .333 1.667 1 2 2a1681.992 1681.992 0 0 0-9 6v-2c2.358-2.03 4.692-4.03 7-6z"/><path style="opacity:1" fill="#f9f9fb" d="M33.5 74.5a51.639 51.639 0 0 0 1 7c-4.55-1.546-7.884-4.546-10-9 3.466-1.4 6.466-.733 9 2z"/><path style="opacity:1" fill="#535455" d="M349.5 64.5h17v9c-8.849.326-17.516-.007-26-1h25v-7c-5.526.321-10.86-.012-16-1z"/><path style="opacity:1" fill="#567db6" d="M104.5 72.5c-.482 4.882-2.482 5.882-6 3 1.716-1.525 3.716-2.525 6-3z"/><path style="opacity:1" fill="#f9f4f4" d="M111.5 74.5c2.893-.469 4.893.531 6 3a219.489 219.489 0 0 1-19 6c-.667 0-1-.333-1-1 3.251-1.644 6.251-3.81 9-6.5a42.584 42.584 0 0 1 5-1.5z"/><path style="opacity:1" fill="#587bba" d="M23.5 65.5a4.932 4.932 0 0 1 3 .5c3.143 4.07 7.143 6.902 12 8.5h2a16.328 16.328 0 0 0 2 5c-1.251 2.061-2.918 2.394-5 1-.366-2.756-1.7-4.756-4-6-2.534-2.733-5.534-3.4-9-2-2.253-1.95-2.586-4.284-1-7z"/><path style="opacity:1" fill="#fafafa" d="M49.5 77.5c.597-.639 1.43-.972 2.5-1 4.52.517 9.02 1.184 13.5 2-4.751 1.79-8.918 4.457-12.5 8-.12-3.504-1.286-6.504-3.5-9z"/><path style="opacity:1" fill="#c1455c" d="m117.5 77.5 2 2a129.347 129.347 0 0 0-21 7v-3a219.489 219.489 0 0 0 19-6z"/><path style="opacity:1" fill="#5575b1" d="M79.5 82.5c.213 1.644-.12 3.144-1 4.5-6.026-1.49-11.026.176-15 5-1.765.64-3.432.473-5-.5 5.98-5.113 12.98-8.113 21-9z"/><path style="opacity:1" fill="#ed3634" d="M97.5 82.5c0 .667.333 1 1 1v3c-3.363 2.99-5.696 2.324-7-2 1.303-2.879 3.303-3.545 6-2z"/><path style="opacity:1" fill="#898a8d" d="M192.5 83.5c6.879-1.249 10.879 1.418 12 8h-4c-.322-4.476-2.656-5.976-7-4.5-2.449 1.863-3.449 4.363-3 7.5-.768 6.383 1.899 9.217 8 8.5 1.537-1.11 2.203-2.61 2-4.5h4c-1.182 6.767-5.182 9.267-12 7.5-2.5-1.167-4.333-3-5.5-5.5-2.041-7.149-.208-12.816 5.5-17z"/><path style="opacity:1" fill="#88898c" d="M212.5 83.5c10.907-.88 15.407 4.12 13.5 15-1.638 6.558-5.804 9.058-12.5 7.5a11.532 11.532 0 0 1-4.5-3.5c-2.888-7.221-1.721-13.555 3.5-19z"/><path style="opacity:1" fill="#86878a" d="M235.5 83.5c10.477-.351 14.644 4.649 12.5 15-1.638 6.558-5.804 9.058-12.5 7.5-2.881-1.251-4.714-3.417-5.5-6.5-1.984-6.84-.15-12.173 5.5-16z"/><path style="opacity:1" fill="#87888b" d="M252.5 83.5a72.442 72.442 0 0 1 12 .5c5.308 4.237 5.308 8.57 0 13a107.874 107.874 0 0 0 5 8.5c-1.223 1.114-2.556 1.281-4 .5a80.507 80.507 0 0 1-4-7.5c-1.545-.952-3.212-1.285-5-1v9h-4v-23z"/><path style="opacity:1" fill="#898a8c" d="M272.5 83.5c12.323-1.51 17.823 3.824 16.5 16-3.648 6.408-9.148 8.741-16.5 7v-23z"/><path style="opacity:1" fill="#828386" d="M293.5 83.5h4v23h-4v-23z"/><path style="opacity:1" fill="#858689" d="M302.5 83.5c1.644-.213 3.144.12 4.5 1l9 15c.499-5.323.666-10.656.5-16h4v23c-1.644.214-3.144-.12-4.5-1l-9-14a112.97 112.97 0 0 0-.5 15h-4v-23z"/><path style="opacity:1" fill="#8a8b8e" d="M331.5 83.5c1.644-.213 3.144.12 4.5 1a284.842 284.842 0 0 1 7.5 22h-4a6.846 6.846 0 0 0-1-4 25.879 25.879 0 0 0-10-1c.24 4.027-1.426 5.361-5 4 2.674-7.344 5.341-14.678 8-22z"/><path style="opacity:1" fill="#86878a" d="M343.5 83.5h18v3h-7v20h-4v-20h-7v-3z"/><path style="opacity:1" fill="#88888b" d="M364.5 83.5h4v23h-4v-23z"/><path style="opacity:1" fill="#88898c" d="M377.5 83.5c10.907-.88 15.407 4.12 13.5 15-1.638 6.558-5.804 9.058-12.5 7.5a11.532 11.532 0 0 1-4.5-3.5c-2.888-7.221-1.721-13.555 3.5-19z"/><path style="opacity:1" fill="#858689" d="M395.5 83.5c1.644-.213 3.144.12 4.5 1l9 15c.499-5.323.666-10.656.5-16h4v23c-1.644.214-3.144-.12-4.5-1l-9-14a112.97 112.97 0 0 0-.5 15h-4v-23z"/><path style="opacity:1" fill="#86878a" d="M425.5 83.5h15v3h-11v7h9v3h-9v10h-4v-23z"/><path style="opacity:1" fill="#8b8b8e" d="M446.5 83.5c1.644-.213 3.144.12 4.5 1a122.393 122.393 0 0 1 7.5 22c-3.041.094-4.707-1.406-5-4.5a50.464 50.464 0 0 0-10-.5c.24 4.027-1.426 5.361-5 4a285.56 285.56 0 0 0 8-22z"/><path style="opacity:1" fill="#88898c" d="M466.5 83.5c6.448-1.546 10.781.788 13 7-1.545.952-3.212 1.285-5 1-.248-4.468-2.582-5.968-7-4.5-4 5.333-4 10.667 0 16 4.344 1.476 6.678-.024 7-4.5h4c.07 4.101-1.93 6.601-6 7.5-3.68 1.027-6.847.194-9.5-2.5-1.555-4.882-1.888-9.882-1-15 1.025-2.187 2.525-3.854 4.5-5z"/><path style="opacity:1" fill="#828386" d="M482.5 83.5h4v23h-4v-23z"/><path style="opacity:1" fill="#8b8b8e" d="M491.5 83.5h4v19h10v4h-14v-23z"/><path style="opacity:1" fill="#bfbfc1" d="M509.5 83.5v22h3v-22c.992 7.482 1.325 15.148 1 23h-5c-.325-7.852.008-15.518 1-23z"/><path style="opacity:1" fill="#808284" d="M509.5 83.5h3v22h-3v-22z"/><path style="opacity:1" fill="#86878a" d="M515.5 83.5h18v3h-7v20h-4v-20h-7v-3zM535.5 83.5c1.644-.213 3.144.12 4.5 1a31.64 31.64 0 0 0 4.5 9 146.864 146.864 0 0 0 4.5-9c1.494-1.247 2.994-1.247 4.5 0a103.639 103.639 0 0 1-6.5 12 50.464 50.464 0 0 0-.5 10h-4a50.464 50.464 0 0 0-.5-10 59.25 59.25 0 0 1-6.5-13z"/><path style="opacity:1" fill="#f8f9f9" d="M214.5 86.5c3.461-.354 5.961.98 7.5 4 .956 4.072.456 7.905-1.5 11.5-3.851 2.497-6.684 1.663-8.5-2.5-1.257-4.883-.424-9.216 2.5-13z"/><path style="opacity:1" fill="#f8f8f8" d="M236.5 86.5c3.152-.541 5.652.459 7.5 3a25.238 25.238 0 0 1 0 10c-3.333 5.333-6.667 5.333-10 0-1.257-4.883-.424-9.216 2.5-13z"/><path style="opacity:1" fill="#f8f9f9" d="M379.5 86.5c3.461-.354 5.961.98 7.5 4 .956 4.072.456 7.905-1.5 11.5-3.851 2.497-6.684 1.663-8.5-2.5-1.257-4.883-.424-9.216 2.5-13z"/><path style="opacity:1" fill="#f7f7f7" d="M256.5 86.5a18.437 18.437 0 0 1 6 .5c2.667 2.333 2.667 4.667 0 7a18.437 18.437 0 0 1-6 .5v-8z"/><path style="opacity:1" fill="#fafafa" d="M276.5 86.5c7.921.135 10.755 4.135 8.5 12-1.677 3.551-4.51 4.884-8.5 4v-16z"/><path style="opacity:1" fill="#f1f1f1" d="M333.5 88.5c1.572 2.715 2.572 5.715 3 9a9.864 9.864 0 0 1-6-1c1.008-2.695 2.008-5.362 3-8z"/><path style="opacity:1" fill="#f5f5f5" d="M448.5 88.5c1.81 2.645 2.81 5.645 3 9h-5a33.693 33.693 0 0 1 2-9z"/><path style="opacity:1" fill="#fdb954" d="m152.5 78.5 3 2c-.25 2.174-1.25 3.84-3 5a5.728 5.728 0 0 1-3-1c-.235-.597-.735-.93-1.5-1a26.248 26.248 0 0 1-5.5 3 18.19 18.19 0 0 1-3.5-2 2849.037 2849.037 0 0 0-55.5 15c-1.647.778-2.98 1.944-4 3.5-1 .667-2 .667-3 0-2.036-6.299-.203-7.799 5.5-4.5A1471.758 1471.758 0 0 1 139.5 82a463.76 463.76 0 0 0-4.5-2.5c-1.73 1.15-3.396 1.15-5 0 .011-3.725.677-7.392 2-11a10.1 10.1 0 0 1 1.5 6c3.016-.34 5.682-1.507 8-3.5.529-2.429 1.863-4.262 4-5.5l2 1a26.722 26.722 0 0 1 1.5 7c.549 2.26 1.716 3.926 3.5 5z"/><path style="opacity:1" fill="#fffbf7" d="M141.5 72.5c5.139.52 7.806 3.52 8 9-5.256.08-9.923-1.42-14-4.5 2.247-1.278 4.247-2.778 6-4.5z"/></svg>