<?xml version="1.0" encoding="UTF-8"?>
<!DOCTYPE svg PUBLIC "-//W3C//DTD SVG 1.1//EN" "http://www.w3.org/Graphics/SVG/1.1/DTD/svg11.dtd">
<svg xmlns="http://www.w3.org/2000/svg" version="1.1" width="570px" height="130px" style="shape-rendering:geometricPrecision; text-rendering:geometricPrecision; image-rendering:optimizeQuality; fill-rule:evenodd; clip-rule:evenodd" xmlns:xlink="http://www.w3.org/1999/xlink">
<g><path style="opacity:1" fill="#fdfdfd" d="M -0.5,-0.5 C 189.5,-0.5 379.5,-0.5 569.5,-0.5C 569.5,42.8333 569.5,86.1667 569.5,129.5C 379.5,129.5 189.5,129.5 -0.5,129.5C -0.5,86.1667 -0.5,42.8333 -0.5,-0.5 Z"/></g>
<g><path style="opacity:1" fill="#0c0c0c" d="M 144.5,25.5 C 146.167,27.5 147.833,29.5 149.5,31.5C 153.455,37.7457 156.622,44.4124 159,51.5C 159.667,55.8333 159.667,60.1667 159,64.5C 154.101,38.779 139.268,22.1123 114.5,14.5C 111.545,13.8413 108.545,13.5079 105.5,13.5C 81.0571,11.1458 59.3904,17.9791 40.5,34C 35.3333,39.1667 30.1667,44.3333 25,49.5C 18.036,61.0022 19.2026,71.5022 28.5,81C 32.0664,83.2005 35.8997,84.7005 40,85.5C 44.5407,84.6927 45.374,82.6927 42.5,79.5C 41.5592,77.9505 40.8925,76.2838 40.5,74.5C 40.5,73.1667 40.5,71.8333 40.5,70.5C 41.9737,67.5043 44.307,66.0043 47.5,66C 44.112,67.3137 42.7786,69.4804 43.5,72.5C 43.5,73.1667 43.5,73.8333 43.5,74.5C 49.6094,78.9755 49.9427,83.8089 44.5,89C 23.5712,89.0642 14.0712,78.5642 16,57.5C 17.4728,53.2211 19.4728,49.2211 22,45.5C 38.2743,26.2283 58.7743,14.0616 83.5,9C 106.589,5.01873 126.922,10.5187 144.5,25.5 Z"/></g>
<g><path style="opacity:1" fill="#cac9c9" d="M 144.5,25.5 C 126.922,10.5187 106.589,5.01873 83.5,9C 58.7743,14.0616 38.2743,26.2283 22,45.5C 19.4728,49.2211 17.4728,53.2211 16,57.5C 14.0712,78.5642 23.5712,89.0642 44.5,89C 49.9427,83.8089 49.6094,78.9755 43.5,74.5C 46.5178,72.4742 49.5178,70.4742 52.5,68.5C 58.2429,71.108 64.2429,71.9413 70.5,71C 77.9138,69.5663 84.9138,67.0663 91.5,63.5C 92.8333,66.1667 94.1667,68.8333 95.5,71.5C 85.4253,74.6884 75.4253,78.1884 65.5,82C 61.6418,84.3581 58.6418,87.5248 56.5,91.5C 56.9698,92.463 57.6365,92.463 58.5,91.5C 60.0683,92.4731 61.735,92.6397 63.5,92C 67.4744,87.1761 72.4744,85.5094 78.5,87C 79.3802,85.6439 79.7135,84.1439 79.5,82.5C 85.8291,80.3877 92.1624,78.0543 98.5,75.5C 102.018,78.3824 104.018,77.3824 104.5,72.5C 109.921,67.7356 114.254,62.0689 117.5,55.5C 119.153,55.6596 120.486,56.3263 121.5,57.5C 119.262,60.9717 117.262,64.6383 115.5,68.5C 110.74,68.2007 109.406,70.2007 111.5,74.5C 109.821,74.8923 108.154,75.3923 106.5,76C 103.751,78.6895 100.751,80.8562 97.5,82.5C 94.8026,80.9546 92.8026,81.6213 91.5,84.5C 84.8435,86.4729 78.1769,88.6396 71.5,91C 63.7471,92.3987 60.2471,96.8987 61,104.5C 62.1191,107.291 64.1191,108.957 67,109.5C 80.8844,104.808 94.7177,99.9742 108.5,95C 118.315,92.253 128.315,90.5863 138.5,90C 142.499,88.6672 146.166,86.8339 149.5,84.5C 150.391,85.1098 151.391,85.4431 152.5,85.5C 149.525,88.6611 145.858,90.8277 141.5,92C 132.451,93.0049 123.451,94.3382 114.5,96C 99.2601,101.469 83.9268,106.635 68.5,111.5C 59.5029,109.541 55.3362,103.874 56,94.5C 51.6717,104.361 54.505,111.527 64.5,116C 67.5,116.667 70.5,116.667 73.5,116C 96.3859,105.259 120.386,98.5927 145.5,96C 158.881,90.8616 163.714,81.3616 160,67.5C 158.92,72.0326 157.42,76.366 155.5,80.5C 154.5,79.8333 153.5,79.1667 152.5,78.5C 153.009,65.507 149.676,53.8403 142.5,43.5C 146.071,43.5923 147.238,41.9257 146,38.5C 143.536,37.0909 141.369,37.4243 139.5,39.5C 137.188,35.1881 133.855,31.8548 129.5,29.5C 132.852,24.9913 131.852,22.8246 126.5,23C 125.62,24.3561 125.286,25.8561 125.5,27.5C 120.905,23.7432 115.571,21.7432 109.5,21.5C 111,18.9556 112.667,16.6223 114.5,14.5C 139.268,22.1123 154.101,38.779 159,64.5C 159.667,60.1667 159.667,55.8333 159,51.5C 156.622,44.4124 153.455,37.7457 149.5,31.5C 152.091,32.2543 153.924,33.921 155,36.5C 163.38,50.02 167.047,64.6867 166,80.5C 164.514,84.8321 162.347,88.8321 159.5,92.5C 155.87,96.63 151.537,99.7967 146.5,102C 137.226,103.706 127.893,105.039 118.5,106C 103.696,110.935 89.0295,116.268 74.5,122C 58.6653,124.825 49.4986,118.325 47,102.5C 45.5,100.333 43.6667,98.5 41.5,97C 21.7175,95.7173 11.0508,85.2173 9.5,65.5C 9.72627,60.5949 10.8929,55.9282 13,51.5C 40.3061,13.3981 76.8061,-0.435235 122.5,10C 128.112,12.1394 133.446,14.8061 138.5,18C 141.118,20.1057 143.118,22.6057 144.5,25.5 Z"/></g>
<g><path style="opacity:1" fill="#8dc643" d="M 80.5,21.5 C 79.8333,21.8333 79.1667,22.1667 78.5,22.5C 77.5,22.5 76.5,22.5 75.5,22.5C 73.4062,17.4294 74.9062,15.7627 80,17.5C 80.49,18.7932 80.6567,20.1266 80.5,21.5 Z"/></g>
<g><path style="opacity:1" fill="#c4c3c2" d="M 105.5,13.5 C 97.8969,14.7497 90.2303,16.2497 82.5,18C 90.7657,18.318 98.9323,17.4847 107,15.5C 108.059,15.6301 108.892,16.1301 109.5,17C 108.601,18.6516 107.601,20.1516 106.5,21.5C 103.305,19.9704 99.8048,19.3037 96,19.5C 90.7094,19.5659 85.5427,20.2326 80.5,21.5C 80.6567,20.1266 80.49,18.7932 80,17.5C 74.9062,15.7627 73.4062,17.4294 75.5,22.5C 68.8693,22.9964 63.2026,25.3297 58.5,29.5C 55.715,28.9162 54.0483,29.9162 53.5,32.5C 49.5,34.8333 45.5,37.1667 41.5,39.5C 38.0504,38.7564 36.3838,40.0897 36.5,43.5C 35.078,44.925 33.4113,45.925 31.5,46.5C 27.6469,47.5621 26.6469,49.8955 28.5,53.5C 25.7539,56.9991 24.0873,60.9991 23.5,65.5C 21.9139,68.2163 22.2472,70.5497 24.5,72.5C 26.6161,76.9542 29.9495,79.9542 34.5,81.5C 34.0074,79.1944 33.6741,76.861 33.5,74.5C 35.8005,75.7441 37.1338,77.7441 37.5,80.5C 39.5819,81.8943 41.2486,81.561 42.5,79.5C 45.374,82.6927 44.5407,84.6927 40,85.5C 35.8997,84.7005 32.0664,83.2005 28.5,81C 19.2026,71.5022 18.036,61.0022 25,49.5C 30.1667,44.3333 35.3333,39.1667 40.5,34C 59.3904,17.9791 81.0571,11.1458 105.5,13.5 Z"/></g>
<g><path style="opacity:1" fill="#fbfcfb" d="M 106.5,21.5 C 106.406,24.0685 105.072,25.5685 102.5,26C 98.3832,31.2333 93.0498,34.7333 86.5,36.5C 84.1066,31.6524 82.1066,26.6524 80.5,21.5C 85.5427,20.2326 90.7094,19.5659 96,19.5C 99.8048,19.3037 103.305,19.9704 106.5,21.5 Z"/></g>
<g><path style="opacity:1" fill="#fcfcfb" d="M 109.5,21.5 C 115.571,21.7432 120.905,23.7432 125.5,27.5C 124.754,31.0704 123.421,34.4037 121.5,37.5C 116.161,39.3802 110.828,41.0469 105.5,42.5C 104.833,41.8333 104.167,41.1667 103.5,40.5C 103.539,36.1577 104.872,32.3244 107.5,29C 106.521,26.1083 107.187,23.6083 109.5,21.5 Z"/></g>
<g><path style="opacity:1" fill="#0e1011" d="M 214.5,35.5 C 214.5,37.1667 214.5,38.8333 214.5,40.5C 211.833,40.5 209.167,40.5 206.5,40.5C 205.263,32.2916 201.43,30.6249 195,35.5C 194.333,44.8333 194.333,54.1667 195,63.5C 197.497,65.4782 200.331,65.9782 203.5,65C 204.823,64.1841 205.489,63.0174 205.5,61.5C 206.451,60.0813 206.784,58.4147 206.5,56.5C 209.167,56.5 211.833,56.5 214.5,56.5C 214.5,58.8333 214.5,61.1667 214.5,63.5C 213.846,67.3159 211.846,70.1492 208.5,72C 203.589,73.4924 198.589,73.8257 193.5,73C 188.664,71.1814 185.831,67.6814 185,62.5C 184.105,52.4394 184.438,42.4394 186,32.5C 190.536,25.1562 197.036,22.6562 205.5,25C 210.527,26.8534 213.527,30.3534 214.5,35.5 Z"/></g>
<g><path style="opacity:1" fill="#101112" d="M 231.5,24.5 C 238.871,23.0485 245.038,25.0485 250,30.5C 250.973,32.3921 251.64,34.3921 252,36.5C 252.667,45.1667 252.667,53.8333 252,62.5C 251.228,68.2348 248.062,71.7348 242.5,73C 232.488,76.2497 225.654,73.0831 222,63.5C 221.333,54.1667 221.333,44.8333 222,35.5C 223.627,30.3818 226.793,26.7151 231.5,24.5 Z"/></g>
<g><path style="opacity:1" fill="#0b0d0d" d="M 393.5,59.5 C 394.404,58.791 394.737,57.791 394.5,56.5C 397.167,56.5 399.833,56.5 402.5,56.5C 402.5,58.1667 402.5,59.8333 402.5,61.5C 401.995,67.3667 398.995,71.2001 393.5,73C 389.167,73.6667 384.833,73.6667 380.5,73C 377.667,71.5 375.5,69.3333 374,66.5C 372.405,55.9066 372.072,45.24 373,34.5C 378.536,24.1979 386.703,21.6979 397.5,27C 401.917,30.4302 403.584,34.9302 402.5,40.5C 399.5,40.5 396.5,40.5 393.5,40.5C 393.432,33.2623 390.099,31.0957 383.5,34C 382.874,34.7504 382.374,35.5838 382,36.5C 381.333,44.8333 381.333,53.1667 382,61.5C 384.053,65.2916 387.219,66.4582 391.5,65C 392.861,63.4157 393.528,61.5824 393.5,59.5 Z"/></g>
<g><path style="opacity:1" fill="#090b0c" d="M 452.5,24.5 C 460.852,22.9982 467.352,25.6648 472,32.5C 472.667,43.1667 472.667,53.8333 472,64.5C 470.833,69 468,71.8333 463.5,73C 456.358,74.8325 450.192,73.3325 445,68.5C 444.027,66.6079 443.36,64.6079 443,62.5C 442.333,53.1667 442.333,43.8333 443,34.5C 444,32.5 445,30.5 446,28.5C 448.314,27.2668 450.481,25.9334 452.5,24.5 Z"/></g>
<g><path style="opacity:1" fill="#444546" d="M 260.5,25.5 C 260.5,41.1667 260.5,56.8333 260.5,72.5C 263.167,72.5 265.833,72.5 268.5,72.5C 265.713,73.4767 262.713,73.81 259.5,73.5C 259.17,57.3246 259.504,41.3246 260.5,25.5 Z"/></g>
<g><path style="opacity:1" fill="#07090a" d="M 260.5,25.5 C 263.898,25.1796 267.232,25.513 270.5,26.5C 274.454,34.7375 278.12,43.0708 281.5,51.5C 281.783,52.2891 282.283,52.9558 283,53.5C 283.5,44.1726 283.666,34.8393 283.5,25.5C 285.833,25.5 288.167,25.5 290.5,25.5C 290.5,41.1667 290.5,56.8333 290.5,72.5C 287.833,72.5 285.167,72.5 282.5,72.5C 277.866,62.9909 273.366,53.3242 269,43.5C 268.5,53.1609 268.334,62.8276 268.5,72.5C 265.833,72.5 263.167,72.5 260.5,72.5C 260.5,56.8333 260.5,41.1667 260.5,25.5 Z"/></g>
<g><path style="opacity:1" fill="#444546" d="M 283.5,25.5 C 283.666,34.8393 283.5,44.1726 283,53.5C 282.283,52.9558 281.783,52.2891 281.5,51.5C 282.167,42.8333 282.833,34.1667 283.5,25.5 Z"/></g>
<g><path style="opacity:1" fill="#444546" d="M 290.5,25.5 C 291.496,41.3246 291.83,57.3246 291.5,73.5C 288.287,73.81 285.287,73.4767 282.5,72.5C 285.167,72.5 287.833,72.5 290.5,72.5C 290.5,56.8333 290.5,41.1667 290.5,25.5 Z"/></g>
<g><path style="opacity:1" fill="#07090a" d="M 321.5,49.5 C 321.461,50.7562 321.961,51.7562 323,52.5C 323.5,43.5062 323.666,34.5062 323.5,25.5C 326.167,25.5 328.833,25.5 331.5,25.5C 331.5,41.5 331.5,57.5 331.5,73.5C 328.428,73.8174 325.428,73.4841 322.5,72.5C 318.23,63.6268 314.23,54.6268 310.5,45.5C 310.217,44.7109 309.717,44.0442 309,43.5C 308.5,53.1609 308.334,62.8276 308.5,72.5C 305.833,72.5 303.167,72.5 300.5,72.5C 300.5,56.8333 300.5,41.1667 300.5,25.5C 304.106,25.2108 307.606,25.5442 311,26.5C 314.514,34.1928 318.014,41.8595 321.5,49.5 Z"/></g>
<g><path style="opacity:1" fill="#bcbdbd" d="M 323.5,25.5 C 323.666,34.5062 323.5,43.5062 323,52.5C 321.961,51.7562 321.461,50.7562 321.5,49.5C 322.167,41.5 322.833,33.5 323.5,25.5 Z"/></g>
<g><path style="opacity:1" fill="#040707" d="M 349.5,64.5 C 354.64,65.4881 359.974,65.8214 365.5,65.5C 365.5,67.8333 365.5,70.1667 365.5,72.5C 357.167,72.5 348.833,72.5 340.5,72.5C 340.5,56.8333 340.5,41.1667 340.5,25.5C 348.833,25.5 357.167,25.5 365.5,25.5C 365.5,28.1667 365.5,30.8333 365.5,33.5C 360.167,33.5 354.833,33.5 349.5,33.5C 349.5,37.1667 349.5,40.8333 349.5,44.5C 353.5,44.5 357.5,44.5 361.5,44.5C 361.5,47.1667 361.5,49.8333 361.5,52.5C 357.5,52.5 353.5,52.5 349.5,52.5C 349.5,56.5 349.5,60.5 349.5,64.5 Z"/></g>
<g><path style="opacity:1" fill="#060809" d="M 427.5,72.5 C 424.5,72.5 421.5,72.5 418.5,72.5C 418.829,59.3226 418.495,46.3226 417.5,33.5C 414.167,33.5 410.833,33.5 407.5,33.5C 407.5,30.8333 407.5,28.1667 407.5,25.5C 417.833,25.5 428.167,25.5 438.5,25.5C 438.5,28.1667 438.5,30.8333 438.5,33.5C 434.833,33.5 431.167,33.5 427.5,33.5C 427.5,46.5 427.5,59.5 427.5,72.5 Z"/></g>
<g><path style="opacity:1" fill="#444546" d="M 481.5,25.5 C 481.5,41.1667 481.5,56.8333 481.5,72.5C 483.833,72.5 486.167,72.5 488.5,72.5C 488.5,72.8333 488.5,73.1667 488.5,73.5C 485.833,73.5 483.167,73.5 480.5,73.5C 480.17,57.3246 480.504,41.3246 481.5,25.5 Z"/></g>
<g><path style="opacity:1" fill="#090b0c" d="M 481.5,25.5 C 485.833,25.5 490.167,25.5 494.5,25.5C 496.685,35.5752 499.185,45.5752 502,55.5C 504.818,45.576 507.318,35.576 509.5,25.5C 513.833,25.5 518.167,25.5 522.5,25.5C 522.5,41.1667 522.5,56.8333 522.5,72.5C 520.167,72.5 517.833,72.5 515.5,72.5C 515.667,60.4954 515.5,48.4954 515,36.5C 514.392,38.1545 513.892,39.8211 513.5,41.5C 510.836,52.1631 508.169,62.8297 505.5,73.5C 503.167,73.5 500.833,73.5 498.5,73.5C 495.989,63.1245 493.323,52.7912 490.5,42.5C 490.313,40.4357 489.813,38.4357 489,36.5C 488.5,48.4954 488.333,60.4954 488.5,72.5C 486.167,72.5 483.833,72.5 481.5,72.5C 481.5,56.8333 481.5,41.1667 481.5,25.5 Z"/></g>
<g><path style="opacity:1" fill="#444546" d="M 522.5,25.5 C 523.496,41.3246 523.83,57.3246 523.5,73.5C 520.833,73.5 518.167,73.5 515.5,73.5C 515.5,73.1667 515.5,72.8333 515.5,72.5C 517.833,72.5 520.167,72.5 522.5,72.5C 522.5,56.8333 522.5,41.1667 522.5,25.5 Z"/></g>
<g><path style="opacity:1" fill="#444546" d="M 532.5,25.5 C 532.5,41.1667 532.5,56.8333 532.5,72.5C 540.833,72.5 549.167,72.5 557.5,72.5C 549.016,73.493 540.349,73.8264 531.5,73.5C 531.17,57.3246 531.504,41.3246 532.5,25.5 Z"/></g>
<g><path style="opacity:1" fill="#060809" d="M 532.5,25.5 C 540.5,25.5 548.5,25.5 556.5,25.5C 556.5,28.1667 556.5,30.8333 556.5,33.5C 551.5,33.5 546.5,33.5 541.5,33.5C 540.518,36.9619 540.185,40.6286 540.5,44.5C 544.833,44.5 549.167,44.5 553.5,44.5C 553.5,47.1667 553.5,49.8333 553.5,52.5C 549.5,52.5 545.5,52.5 541.5,52.5C 540.515,56.6344 540.182,60.9677 540.5,65.5C 546.167,65.5 551.833,65.5 557.5,65.5C 557.5,67.8333 557.5,70.1667 557.5,72.5C 549.167,72.5 540.833,72.5 532.5,72.5C 532.5,56.8333 532.5,41.1667 532.5,25.5 Z"/></g>
<g><path style="opacity:1" fill="#70c157" d="M 105.5,13.5 C 108.545,13.5079 111.545,13.8413 114.5,14.5C 112.667,16.6223 111,18.9556 109.5,21.5C 107.187,23.6083 106.521,26.1083 107.5,29C 104.872,32.3244 103.539,36.1577 103.5,40.5C 103.167,40.5 102.833,40.5 102.5,40.5C 102.817,37.4281 102.484,34.4281 101.5,31.5C 98.3272,33.5872 94.9939,35.4205 91.5,37C 90.8333,38.6667 90.1667,40.3333 89.5,42C 86.5857,42.106 83.7524,41.606 81,40.5C 75.8428,41.3083 70.6761,41.975 65.5,42.5C 65.5,41.8333 65.5,41.1667 65.5,40.5C 70.0032,40.4993 74.3365,39.666 78.5,38C 72.2881,36.7816 66.2881,34.9482 60.5,32.5C 61,32.1667 61.5,31.8333 62,31.5C 69.5544,33.3645 77.0544,35.3645 84.5,37.5C 85.1667,37.1667 85.8333,36.8333 86.5,36.5C 93.0498,34.7333 98.3832,31.2333 102.5,26C 105.072,25.5685 106.406,24.0685 106.5,21.5C 107.601,20.1516 108.601,18.6516 109.5,17C 108.892,16.1301 108.059,15.6301 107,15.5C 98.9323,17.4847 90.7657,18.318 82.5,18C 90.2303,16.2497 97.8969,14.7497 105.5,13.5 Z"/></g>
<g><path style="opacity:1" fill="#ed2528" d="M 58.5,29.5 C 60.5,34.8333 58.8333,36.5 53.5,34.5C 53.5,33.8333 53.5,33.1667 53.5,32.5C 54.0483,29.9162 55.715,28.9162 58.5,29.5 Z"/></g>
<g><path style="opacity:1" fill="#fbf7fa" d="M 129.5,29.5 C 133.855,31.8548 137.188,35.1881 139.5,39.5C 135.476,39.0522 131.476,38.3855 127.5,37.5C 125.183,35.4012 125.017,33.0679 127,30.5C 127.671,29.7476 128.504,29.4142 129.5,29.5 Z"/></g>
<g><path style="opacity:1" fill="#57be5f" d="M 80.5,21.5 C 82.1066,26.6524 84.1066,31.6524 86.5,36.5C 85.8333,36.8333 85.1667,37.1667 84.5,37.5C 82.2232,32.6127 80.2232,27.6127 78.5,22.5C 79.1667,22.1667 79.8333,21.8333 80.5,21.5 Z"/></g>
<g><path style="opacity:1" fill="#fafaf8" d="M 75.5,22.5 C 76.5,22.5 77.5,22.5 78.5,22.5C 80.2232,27.6127 82.2232,32.6127 84.5,37.5C 77.0544,35.3645 69.5544,33.3645 62,31.5C 61.5,31.8333 61,32.1667 60.5,32.5C 66.2881,34.9482 72.2881,36.7816 78.5,38C 74.3365,39.666 70.0032,40.4993 65.5,40.5C 61.0691,39.0924 59.2358,40.7591 60,45.5C 63.4659,47.35 65.2993,46.35 65.5,42.5C 70.6761,41.975 75.8428,41.3083 81,40.5C 83.7524,41.606 86.5857,42.106 89.5,42C 90.1667,40.3333 90.8333,38.6667 91.5,37C 94.9939,35.4205 98.3272,33.5872 101.5,31.5C 102.484,34.4281 102.817,37.4281 102.5,40.5C 99.6545,40.8087 98.1545,42.4754 98,45.5C 93.7127,49.726 88.546,51.8926 82.5,52C 81.944,52.3826 81.6107,52.8826 81.5,53.5C 69.1158,49.8208 56.7825,45.9875 44.5,42C 43.1667,41.3333 43.1667,40.6667 44.5,40C 47.5279,38.1555 50.5279,36.3222 53.5,34.5C 58.8333,36.5 60.5,34.8333 58.5,29.5C 63.2026,25.3297 68.8693,22.9964 75.5,22.5 Z"/></g>
<g><path style="opacity:1" fill="#f2f2f2" d="M 234.5,32.5 C 237.652,31.9586 240.152,32.9586 242,35.5C 242.667,44.8333 242.667,54.1667 242,63.5C 239.503,65.4782 236.669,65.9782 233.5,65C 232.107,63.8289 231.273,62.3289 231,60.5C 230.333,52.5 230.333,44.5 231,36.5C 232.032,34.9733 233.199,33.64 234.5,32.5 Z"/></g>
<g><path style="opacity:1" fill="#787979" d="M 417.5,33.5 C 418.495,46.3226 418.829,59.3226 418.5,72.5C 421.5,72.5 424.5,72.5 427.5,72.5C 424.375,73.4794 421.042,73.8128 417.5,73.5C 417.5,60.1667 417.5,46.8333 417.5,33.5 Z"/></g>
<g><path style="opacity:1" fill="#f2f2f2" d="M 455.5,32.5 C 458.652,31.9586 461.152,32.9586 463,35.5C 463.667,44.5 463.667,53.5 463,62.5C 460.833,65.2868 457.999,66.1201 454.5,65C 453.299,64.0975 452.465,62.9308 452,61.5C 451.333,53.1667 451.333,44.8333 452,36.5C 452.69,34.6498 453.856,33.3164 455.5,32.5 Z"/></g>
<g><path style="opacity:1" fill="#dd77ad" d="M 129.5,29.5 C 128.504,29.4142 127.671,29.7476 127,30.5C 125.017,33.0679 125.183,35.4012 127.5,37.5C 131.476,38.3855 135.476,39.0522 139.5,39.5C 141.369,37.4243 143.536,37.0909 146,38.5C 147.238,41.9257 146.071,43.5923 142.5,43.5C 140.131,41.5935 137.298,40.5935 134,40.5C 132.167,40.8333 130.333,41.1667 128.5,41.5C 132.686,45.8513 136.686,50.3513 140.5,55C 144.882,55.0027 146.549,57.1694 145.5,61.5C 141.169,62.5489 139.003,60.8822 139,56.5C 134.833,51.6667 130.667,46.8333 126.5,42C 122.87,40.3364 119.203,40.1698 115.5,41.5C 114.167,41.8333 112.833,42.1667 111.5,42.5C 109.5,42.8333 107.5,43.1667 105.5,43.5C 105.5,43.1667 105.5,42.8333 105.5,42.5C 110.828,41.0469 116.161,39.3802 121.5,37.5C 123.421,34.4037 124.754,31.0704 125.5,27.5C 125.286,25.8561 125.62,24.3561 126.5,23C 131.852,22.8246 132.852,24.9913 129.5,29.5 Z"/></g>
<g><path style="opacity:1" fill="#b8b9b9" d="M 490.5,42.5 C 489.833,52.8333 489.167,63.1667 488.5,73.5C 488.5,73.1667 488.5,72.8333 488.5,72.5C 488.333,60.4954 488.5,48.4954 489,36.5C 489.813,38.4357 490.313,40.4357 490.5,42.5 Z"/></g>
<g><path style="opacity:1" fill="#bbbcbc" d="M 515.5,72.5 C 515.5,72.8333 515.5,73.1667 515.5,73.5C 514.833,62.8333 514.167,52.1667 513.5,41.5C 513.892,39.8211 514.392,38.1545 515,36.5C 515.5,48.4954 515.667,60.4954 515.5,72.5 Z"/></g>
<g><path style="opacity:1" fill="#ea2b2d" d="M 41.5,39.5 C 42.3007,41.0418 42.634,42.7085 42.5,44.5C 41.8333,45.1667 41.1667,45.8333 40.5,46.5C 39.8333,46.5 39.1667,46.5 38.5,46.5C 38.1583,45.6618 37.4916,45.3284 36.5,45.5C 36.5,44.8333 36.5,44.1667 36.5,43.5C 36.3838,40.0897 38.0504,38.7564 41.5,39.5 Z"/></g>
<g><path style="opacity:1" fill="#96cb52" d="M 65.5,40.5 C 65.5,41.1667 65.5,41.8333 65.5,42.5C 65.2993,46.35 63.4659,47.35 60,45.5C 59.2358,40.7591 61.0691,39.0924 65.5,40.5 Z"/></g>
<g><path style="opacity:1" fill="#777878" d="M 214.5,35.5 C 215.461,37.2646 215.795,39.2646 215.5,41.5C 212.287,41.81 209.287,41.4767 206.5,40.5C 209.167,40.5 211.833,40.5 214.5,40.5C 214.5,38.8333 214.5,37.1667 214.5,35.5 Z"/></g>
<g><path style="opacity:1" fill="#c0435a" d="M 53.5,32.5 C 53.5,33.1667 53.5,33.8333 53.5,34.5C 50.5279,36.3222 47.5279,38.1555 44.5,40C 43.1667,40.6667 43.1667,41.3333 44.5,42C 56.7825,45.9875 69.1158,49.8208 81.5,53.5C 81.5,53.8333 81.5,54.1667 81.5,54.5C 68.4661,51.3248 55.4661,47.9915 42.5,44.5C 42.634,42.7085 42.3007,41.0418 41.5,39.5C 45.5,37.1667 49.5,34.8333 53.5,32.5 Z"/></g>
<g><path style="opacity:1" fill="#0c0c0d" d="M 111.5,42.5 C 116.587,44.3284 118.921,47.9951 118.5,53.5C 118.167,54.1667 117.833,54.8333 117.5,55.5C 114.254,62.0689 109.921,67.7356 104.5,72.5C 102.216,72.9752 100.216,73.9752 98.5,75.5C 92.1624,78.0543 85.8291,80.3877 79.5,82.5C 71.4799,83.3867 64.4799,86.3867 58.5,91.5C 57.6365,92.463 56.9698,92.463 56.5,91.5C 58.6418,87.5248 61.6418,84.3581 65.5,82C 75.4253,78.1884 85.4253,74.6884 95.5,71.5C 96.7095,71.0679 97.7095,70.4013 98.5,69.5C 99.1667,69.5 99.5,69.1667 99.5,68.5C 100.492,68.6716 101.158,68.3382 101.5,67.5C 107.392,63.605 111.392,58.2717 113.5,51.5C 112.902,48.1789 111.235,47.1789 108.5,48.5C 105.622,49.5622 103.622,51.5622 102.5,54.5C 101.5,54.8333 100.833,55.5 100.5,56.5C 97.5265,58.1468 94.8599,60.1468 92.5,62.5C 91.8333,62.5 91.5,62.8333 91.5,63.5C 84.9138,67.0663 77.9138,69.5663 70.5,71C 64.2429,71.9413 58.2429,71.108 52.5,68.5C 52.1667,67.5 51.5,66.8333 50.5,66.5C 49.4427,65.794 49.7761,65.4607 51.5,65.5C 53.4352,66.1495 55.4352,66.4828 57.5,66.5C 68.3217,67.4432 78.3217,65.1099 87.5,59.5C 88.1667,59.5 88.5,59.1667 88.5,58.5C 94.113,55.8871 98.4463,51.8871 101.5,46.5C 102.872,45.4884 104.205,44.4884 105.5,43.5C 107.5,43.1667 109.5,42.8333 111.5,42.5 Z"/></g>
<g><path style="opacity:1" fill="#abacac" d="M 541.5,33.5 C 541.5,36.8333 541.5,40.1667 541.5,43.5C 545.702,43.1832 549.702,43.5166 553.5,44.5C 549.167,44.5 544.833,44.5 540.5,44.5C 540.185,40.6286 540.518,36.9619 541.5,33.5 Z"/></g>
<g><path style="opacity:1" fill="#fefdfd" d="M 42.5,44.5 C 55.4661,47.9915 68.4661,51.3248 81.5,54.5C 73.8125,57.23 65.9792,59.8966 58,62.5C 56.2341,61.7665 54.4008,61.4332 52.5,61.5C 48.4338,61.307 44.4338,61.6403 40.5,62.5C 40.5,57.1667 40.5,51.8333 40.5,46.5C 41.1667,45.8333 41.8333,45.1667 42.5,44.5 Z"/></g>
<g><path style="opacity:1" fill="#777878" d="M 310.5,45.5 C 309.506,54.6517 309.173,63.985 309.5,73.5C 306.287,73.81 303.287,73.4767 300.5,72.5C 303.167,72.5 305.833,72.5 308.5,72.5C 308.334,62.8276 308.5,53.1609 309,43.5C 309.717,44.0442 310.217,44.7109 310.5,45.5 Z"/></g>
<g><path style="opacity:1" fill="#be425a" d="M 36.5,43.5 C 36.5,44.1667 36.5,44.8333 36.5,45.5C 35.8333,46.8333 34.8333,47.8333 33.5,48.5C 32.8333,47.8333 32.1667,47.1667 31.5,46.5C 33.4113,45.925 35.078,44.925 36.5,43.5 Z"/></g>
<g><path style="opacity:1" fill="#f8f7f8" d="M 36.5,45.5 C 37.4916,45.3284 38.1583,45.6618 38.5,46.5C 38.5,55.8333 38.5,65.1667 38.5,74.5C 33.6431,72.9024 29.6431,70.0691 26.5,66C 25.552,65.5172 24.552,65.3505 23.5,65.5C 24.0873,60.9991 25.7539,56.9991 28.5,53.5C 32.5,54.1667 34.1667,52.5 33.5,48.5C 34.8333,47.8333 35.8333,46.8333 36.5,45.5 Z"/></g>
<g><path style="opacity:1" fill="#b9314e" d="M 38.5,46.5 C 39.1667,46.5 39.8333,46.5 40.5,46.5C 40.5,51.8333 40.5,57.1667 40.5,62.5C 40.5,65.1667 40.5,67.8333 40.5,70.5C 40.5,71.8333 40.5,73.1667 40.5,74.5C 39.8333,74.5 39.1667,74.5 38.5,74.5C 38.5,65.1667 38.5,55.8333 38.5,46.5 Z"/></g>
<g><path style="opacity:1" fill="#ed3432" d="M 31.5,46.5 C 32.1667,47.1667 32.8333,47.8333 33.5,48.5C 34.1667,52.5 32.5,54.1667 28.5,53.5C 26.6469,49.8955 27.6469,47.5621 31.5,46.5 Z"/></g>
<g><path style="opacity:1" fill="#c0c0c4" d="M 101.5,46.5 C 98.4463,51.8871 94.113,55.8871 88.5,58.5C 87.4771,55.9934 88.1438,53.8267 90.5,52C 94.2198,50.1401 97.8864,48.3068 101.5,46.5 Z"/></g>
<g><path style="opacity:1" fill="#c4c4c6" d="M 108.5,48.5 C 110.001,49.7515 111.668,50.7515 113.5,51.5C 111.392,58.2717 107.392,63.605 101.5,67.5C 101.372,63.1186 101.705,58.7853 102.5,54.5C 103.622,51.5622 105.622,49.5622 108.5,48.5 Z"/></g>
<g><path style="opacity:1" fill="#495ca1" d="M 108.5,48.5 C 111.235,47.1789 112.902,48.1789 113.5,51.5C 111.668,50.7515 110.001,49.7515 108.5,48.5 Z"/></g>
<g><path style="opacity:1" fill="#cac9ca" d="M 115.5,41.5 C 119.95,45.0665 122.283,49.7332 122.5,55.5C 121.395,54.3995 120.062,53.7329 118.5,53.5C 118.921,47.9951 116.587,44.3284 111.5,42.5C 112.833,42.1667 114.167,41.8333 115.5,41.5 Z"/></g>
<g><path style="opacity:1" fill="#586aad" d="M 102.5,54.5 C 101.705,58.7853 101.372,63.1186 101.5,67.5C 101.158,68.3382 100.492,68.6716 99.5,68.5C 99.307,64.4338 99.6403,60.4338 100.5,56.5C 100.833,55.5 101.5,54.8333 102.5,54.5 Z"/></g>
<g><path style="opacity:1" fill="#5d6bad" d="M 118.5,53.5 C 120.062,53.7329 121.395,54.3995 122.5,55.5C 124.001,56.7515 125.668,57.7515 127.5,58.5C 127.5,58.8333 127.5,59.1667 127.5,59.5C 126.833,59.5 126.5,59.8333 126.5,60.5C 124.999,59.2485 123.332,58.2485 121.5,57.5C 120.486,56.3263 119.153,55.6596 117.5,55.5C 117.833,54.8333 118.167,54.1667 118.5,53.5 Z"/></g>
<g><path style="opacity:1" fill="#565758" d="M 402.5,61.5 C 402.5,59.8333 402.5,58.1667 402.5,56.5C 399.833,56.5 397.167,56.5 394.5,56.5C 394.737,57.791 394.404,58.791 393.5,59.5C 393.5,58.1667 393.5,56.8333 393.5,55.5C 396.833,55.5 400.167,55.5 403.5,55.5C 403.795,57.7354 403.461,59.7354 402.5,61.5 Z"/></g>
<g><path style="opacity:1" fill="#575859" d="M 214.5,63.5 C 214.5,61.1667 214.5,58.8333 214.5,56.5C 211.833,56.5 209.167,56.5 206.5,56.5C 206.784,58.4147 206.451,60.0813 205.5,61.5C 205.5,59.5 205.5,57.5 205.5,55.5C 208.833,55.5 212.167,55.5 215.5,55.5C 215.806,58.3854 215.473,61.0521 214.5,63.5 Z"/></g>
<g><path style="opacity:1" fill="#f2f2f7" d="M 83.5,57.5 C 77.0524,62.9443 69.719,64.9443 61.5,63.5C 68.1384,61.1756 74.805,58.8423 81.5,56.5C 82.1835,56.8627 82.8501,57.1961 83.5,57.5 Z"/></g>
<g><path style="opacity:1" fill="#c6c6c8" d="M 100.5,56.5 C 99.6403,60.4338 99.307,64.4338 99.5,68.5C 99.5,69.1667 99.1667,69.5 98.5,69.5C 95.7997,67.7656 93.7997,65.4323 92.5,62.5C 94.8599,60.1468 97.5265,58.1468 100.5,56.5 Z"/></g>
<g><path style="opacity:1" fill="#ec3030" d="M 129.5,64.5 C 127.787,63.3646 127.12,61.698 127.5,59.5C 127.5,59.1667 127.5,58.8333 127.5,58.5C 131.356,56.8429 133.189,58.1763 133,62.5C 131.887,63.305 130.721,63.9717 129.5,64.5 Z"/></g>
<g><path style="opacity:1" fill="#f8f4f5" d="M 121.5,57.5 C 123.332,58.2485 124.999,59.2485 126.5,60.5C 124.546,64.7765 121.213,67.7765 116.5,69.5C 115.833,69.5 115.5,69.1667 115.5,68.5C 117.262,64.6383 119.262,60.9717 121.5,57.5 Z"/></g>
<g><path style="opacity:1" fill="#c8c7c8" d="M 83.5,57.5 C 85.3797,57.2291 86.713,57.8958 87.5,59.5C 78.3217,65.1099 68.3217,67.4432 57.5,66.5C 58.2114,64.7986 59.5447,63.7986 61.5,63.5C 69.719,64.9443 77.0524,62.9443 83.5,57.5 Z"/></g>
<g><path style="opacity:1" fill="#5975b6" d="M 102.5,40.5 C 102.833,40.5 103.167,40.5 103.5,40.5C 104.167,41.1667 104.833,41.8333 105.5,42.5C 105.5,42.8333 105.5,43.1667 105.5,43.5C 104.205,44.4884 102.872,45.4884 101.5,46.5C 97.8864,48.3068 94.2198,50.1401 90.5,52C 88.1438,53.8267 87.4771,55.9934 88.5,58.5C 88.5,59.1667 88.1667,59.5 87.5,59.5C 86.713,57.8958 85.3797,57.2291 83.5,57.5C 82.8501,57.1961 82.1835,56.8627 81.5,56.5C 74.805,58.8423 68.1384,61.1756 61.5,63.5C 59.5447,63.7986 58.2114,64.7986 57.5,66.5C 55.4352,66.4828 53.4352,66.1495 51.5,65.5C 51.4326,64.0413 51.7659,62.7079 52.5,61.5C 54.4008,61.4332 56.2341,61.7665 58,62.5C 65.9792,59.8966 73.8125,57.23 81.5,54.5C 81.5,54.1667 81.5,53.8333 81.5,53.5C 81.6107,52.8826 81.944,52.3826 82.5,52C 88.546,51.8926 93.7127,49.726 98,45.5C 98.1545,42.4754 99.6545,40.8087 102.5,40.5 Z"/></g>
<g><path style="opacity:1" fill="#c2c2c4" d="M 52.5,61.5 C 51.7659,62.7079 51.4326,64.0413 51.5,65.5C 49.7761,65.4607 49.4427,65.794 50.5,66.5C 48.1918,68.4707 45.8585,70.4707 43.5,72.5C 42.7786,69.4804 44.112,67.3137 47.5,66C 44.307,66.0043 41.9737,67.5043 40.5,70.5C 40.5,67.8333 40.5,65.1667 40.5,62.5C 44.4338,61.6403 48.4338,61.307 52.5,61.5 Z"/></g>
<g><path style="opacity:1" fill="#c54359" d="M 127.5,59.5 C 127.12,61.698 127.787,63.3646 129.5,64.5C 126.661,68.5068 124.661,72.8401 123.5,77.5C 123.5,76.1667 123.5,74.8333 123.5,73.5C 122.167,73.5 120.833,73.5 119.5,73.5C 123.183,72.1847 125.183,69.8514 125.5,66.5C 122.262,68.2753 119.262,70.2753 116.5,72.5C 116.5,71.5 116.5,70.5 116.5,69.5C 121.213,67.7765 124.546,64.7765 126.5,60.5C 126.5,59.8333 126.833,59.5 127.5,59.5 Z"/></g>
<g><path style="opacity:1" fill="#808181" d="M 541.5,52.5 C 541.5,56.5 541.5,60.5 541.5,64.5C 547.026,64.1786 552.36,64.5119 557.5,65.5C 551.833,65.5 546.167,65.5 540.5,65.5C 540.182,60.9677 540.515,56.6344 541.5,52.5 Z"/></g>
<g><path style="opacity:1" fill="#5566a6" d="M 92.5,62.5 C 93.7997,65.4323 95.7997,67.7656 98.5,69.5C 97.7095,70.4013 96.7095,71.0679 95.5,71.5C 94.1667,68.8333 92.8333,66.1667 91.5,63.5C 91.5,62.8333 91.8333,62.5 92.5,62.5 Z"/></g>
<g><path style="opacity:1" fill="#fdfbf9" d="M 142.5,43.5 C 149.676,53.8403 153.009,65.507 152.5,78.5C 150.716,77.4262 149.549,75.7596 149,73.5C 148.814,71.0995 148.314,68.7662 147.5,66.5C 146.833,66.1667 146.167,65.8333 145.5,65.5C 143.363,66.7381 142.029,68.5714 141.5,71C 139.182,72.9927 136.516,74.1594 133.5,74.5C 133.628,72.3453 133.128,70.3453 132,68.5C 130.677,72.1084 130.011,75.7751 130,79.5C 131.604,80.6493 133.27,80.6493 135,79.5C 136.49,80.3169 137.99,81.1502 139.5,82C 120.21,87.1138 101.043,92.6138 82,98.5C 76.2975,95.201 74.4642,96.701 76.5,103C 77.5,103.667 78.5,103.667 79.5,103C 80.5196,101.444 81.853,100.278 83.5,99.5C 101.973,94.307 120.473,89.307 139,84.5C 140.092,85.2961 141.259,85.9628 142.5,86.5C 144.447,85.723 146.28,84.723 148,83.5C 148.765,83.5699 149.265,83.9033 149.5,84.5C 146.166,86.8339 142.499,88.6672 138.5,90C 128.315,90.5863 118.315,92.253 108.5,95C 94.7177,99.9742 80.8844,104.808 67,109.5C 64.1191,108.957 62.1191,107.291 61,104.5C 60.2471,96.8987 63.7471,92.3987 71.5,91C 78.1769,88.6396 84.8435,86.4729 91.5,84.5C 92.8037,88.8238 95.137,89.4904 98.5,86.5C 105.29,83.5699 112.29,81.2366 119.5,79.5C 121.38,79.7709 122.713,79.1042 123.5,77.5C 124.661,72.8401 126.661,68.5068 129.5,64.5C 130.721,63.9717 131.887,63.305 133,62.5C 133.189,58.1763 131.356,56.8429 127.5,58.5C 125.668,57.7515 124.001,56.7515 122.5,55.5C 122.283,49.7332 119.95,45.0665 115.5,41.5C 119.203,40.1698 122.87,40.3364 126.5,42C 130.667,46.8333 134.833,51.6667 139,56.5C 139.003,60.8822 141.169,62.5489 145.5,61.5C 146.549,57.1694 144.882,55.0027 140.5,55C 136.686,50.3513 132.686,45.8513 128.5,41.5C 130.333,41.1667 132.167,40.8333 134,40.5C 137.298,40.5935 140.131,41.5935 142.5,43.5 Z"/></g>
<g><path style="opacity:1" fill="#f9ebee" d="M 119.5,73.5 C 118.105,74.8146 117.105,74.4812 116.5,72.5C 119.262,70.2753 122.262,68.2753 125.5,66.5C 125.183,69.8514 123.183,72.1847 119.5,73.5 Z"/></g>
<g><path style="opacity:1" fill="#0d0d0d" d="M 152.5,85.5 C 154.25,84.3406 155.25,82.674 155.5,80.5C 157.42,76.366 158.92,72.0326 160,67.5C 163.714,81.3616 158.881,90.8616 145.5,96C 120.386,98.5927 96.3859,105.259 73.5,116C 70.5,116.667 67.5,116.667 64.5,116C 54.505,111.527 51.6717,104.361 56,94.5C 55.3362,103.874 59.5029,109.541 68.5,111.5C 83.9268,106.635 99.2601,101.469 114.5,96C 123.451,94.3382 132.451,93.0049 141.5,92C 145.858,90.8277 149.525,88.6611 152.5,85.5 Z"/></g>
<g><path style="opacity:1" fill="#e9252a" d="M 115.5,68.5 C 115.5,69.1667 115.833,69.5 116.5,69.5C 116.5,70.5 116.5,71.5 116.5,72.5C 117.105,74.4812 118.105,74.8146 119.5,73.5C 120.833,73.5 122.167,73.5 123.5,73.5C 123.5,74.8333 123.5,76.1667 123.5,77.5C 122.713,79.1042 121.38,79.7709 119.5,79.5C 118.833,78.8333 118.167,78.1667 117.5,77.5C 116.393,75.0311 114.393,74.0311 111.5,74.5C 109.406,70.2007 110.74,68.2007 115.5,68.5 Z"/></g>
<g><path style="opacity:1" fill="#5264a9" d="M 50.5,66.5 C 51.5,66.8333 52.1667,67.5 52.5,68.5C 49.5178,70.4742 46.5178,72.4742 43.5,74.5C 43.5,73.8333 43.5,73.1667 43.5,72.5C 45.8585,70.4707 48.1918,68.4707 50.5,66.5 Z"/></g>
<g><path style="opacity:1" fill="#f9f9fb" d="M 33.5,74.5 C 33.6741,76.861 34.0074,79.1944 34.5,81.5C 29.9495,79.9542 26.6161,76.9542 24.5,72.5C 27.9663,71.1005 30.9663,71.7671 33.5,74.5 Z"/></g>
<g><path style="opacity:1" fill="#535455" d="M 349.5,64.5 C 355.167,64.5 360.833,64.5 366.5,64.5C 366.5,67.5 366.5,70.5 366.5,73.5C 357.651,73.8264 348.984,73.493 340.5,72.5C 348.833,72.5 357.167,72.5 365.5,72.5C 365.5,70.1667 365.5,67.8333 365.5,65.5C 359.974,65.8214 354.64,65.4881 349.5,64.5 Z"/></g>
<g><path style="opacity:1" fill="#567db6" d="M 104.5,72.5 C 104.018,77.3824 102.018,78.3824 98.5,75.5C 100.216,73.9752 102.216,72.9752 104.5,72.5 Z"/></g>
<g><path style="opacity:1" fill="#f9f4f4" d="M 111.5,74.5 C 114.393,74.0311 116.393,75.0311 117.5,77.5C 111.258,79.7874 104.925,81.7874 98.5,83.5C 97.8333,83.5 97.5,83.1667 97.5,82.5C 100.751,80.8562 103.751,78.6895 106.5,76C 108.154,75.3923 109.821,74.8923 111.5,74.5 Z"/></g>
<g><path style="opacity:1" fill="#587bba" d="M 23.5,65.5 C 24.552,65.3505 25.552,65.5172 26.5,66C 29.6431,70.0691 33.6431,72.9024 38.5,74.5C 39.1667,74.5 39.8333,74.5 40.5,74.5C 40.8925,76.2838 41.5592,77.9505 42.5,79.5C 41.2486,81.561 39.5819,81.8943 37.5,80.5C 37.1338,77.7441 35.8005,75.7441 33.5,74.5C 30.9663,71.7671 27.9663,71.1005 24.5,72.5C 22.2472,70.5497 21.9139,68.2163 23.5,65.5 Z"/></g>
<g><path style="opacity:1" fill="#fafafa" d="M 49.5,77.5 C 50.0968,76.8614 50.9302,76.528 52,76.5C 56.5205,77.0171 61.0205,77.6838 65.5,78.5C 60.749,80.2899 56.5824,82.9566 53,86.5C 52.8809,82.9955 51.7143,79.9955 49.5,77.5 Z"/></g>
<g><path style="opacity:1" fill="#c1455c" d="M 117.5,77.5 C 118.167,78.1667 118.833,78.8333 119.5,79.5C 112.29,81.2366 105.29,83.5699 98.5,86.5C 98.5,85.5 98.5,84.5 98.5,83.5C 104.925,81.7874 111.258,79.7874 117.5,77.5 Z"/></g>
<g><path style="opacity:1" fill="#5575b1" d="M 79.5,82.5 C 79.7135,84.1439 79.3802,85.6439 78.5,87C 72.4744,85.5094 67.4744,87.1761 63.5,92C 61.735,92.6397 60.0683,92.4731 58.5,91.5C 64.4799,86.3867 71.4799,83.3867 79.5,82.5 Z"/></g>
<g><path style="opacity:1" fill="#ed3634" d="M 97.5,82.5 C 97.5,83.1667 97.8333,83.5 98.5,83.5C 98.5,84.5 98.5,85.5 98.5,86.5C 95.137,89.4904 92.8037,88.8238 91.5,84.5C 92.8026,81.6213 94.8026,80.9546 97.5,82.5 Z"/></g>
<g><path style="opacity:1" fill="#898a8d" d="M 192.5,83.5 C 199.379,82.2511 203.379,84.9177 204.5,91.5C 203.167,91.5 201.833,91.5 200.5,91.5C 200.178,87.0243 197.844,85.5243 193.5,87C 191.051,88.8633 190.051,91.3633 190.5,94.5C 189.732,100.883 192.399,103.717 198.5,103C 200.037,101.89 200.703,100.39 200.5,98.5C 201.833,98.5 203.167,98.5 204.5,98.5C 203.318,105.267 199.318,107.767 192.5,106C 190,104.833 188.167,103 187,100.5C 184.959,93.3512 186.792,87.6845 192.5,83.5 Z"/></g>
<g><path style="opacity:1" fill="#88898c" d="M 212.5,83.5 C 223.407,82.6208 227.907,87.6208 226,98.5C 224.362,105.058 220.196,107.558 213.5,106C 211.714,105.215 210.214,104.049 209,102.5C 206.112,95.2788 207.279,88.9455 212.5,83.5 Z"/></g>
<g><path style="opacity:1" fill="#86878a" d="M 235.5,83.5 C 245.977,83.1489 250.144,88.1489 248,98.5C 246.362,105.058 242.196,107.558 235.5,106C 232.619,104.749 230.786,102.583 230,99.5C 228.016,92.6603 229.85,87.3269 235.5,83.5 Z"/></g>
<g><path style="opacity:1" fill="#87888b" d="M 252.5,83.5 C 256.514,83.3345 260.514,83.5012 264.5,84C 269.808,88.2373 269.808,92.5706 264.5,97C 266.041,99.9156 267.707,102.749 269.5,105.5C 268.277,106.614 266.944,106.781 265.5,106C 264.039,103.579 262.706,101.079 261.5,98.5C 259.955,97.5481 258.288,97.2148 256.5,97.5C 256.5,100.5 256.5,103.5 256.5,106.5C 255.167,106.5 253.833,106.5 252.5,106.5C 252.5,98.8333 252.5,91.1667 252.5,83.5 Z"/></g>
<g><path style="opacity:1" fill="#898a8c" d="M 272.5,83.5 C 284.823,81.9906 290.323,87.324 289,99.5C 285.352,105.908 279.852,108.241 272.5,106.5C 272.5,98.8333 272.5,91.1667 272.5,83.5 Z"/></g>
<g><path style="opacity:1" fill="#828386" d="M 293.5,83.5 C 294.833,83.5 296.167,83.5 297.5,83.5C 297.5,91.1667 297.5,98.8333 297.5,106.5C 296.167,106.5 294.833,106.5 293.5,106.5C 293.5,98.8333 293.5,91.1667 293.5,83.5 Z"/></g>
<g><path style="opacity:1" fill="#858689" d="M 302.5,83.5 C 304.144,83.2865 305.644,83.6198 307,84.5C 310,89.5 313,94.5 316,99.5C 316.499,94.1771 316.666,88.8437 316.5,83.5C 317.833,83.5 319.167,83.5 320.5,83.5C 320.5,91.1667 320.5,98.8333 320.5,106.5C 318.856,106.714 317.356,106.38 316,105.5C 313,100.833 310,96.1667 307,91.5C 306.501,96.4889 306.334,101.489 306.5,106.5C 305.167,106.5 303.833,106.5 302.5,106.5C 302.5,98.8333 302.5,91.1667 302.5,83.5 Z"/></g>
<g><path style="opacity:1" fill="#8a8b8e" d="M 331.5,83.5 C 333.144,83.2865 334.644,83.6198 336,84.5C 338.808,91.7567 341.308,99.0901 343.5,106.5C 342.167,106.5 340.833,106.5 339.5,106.5C 339.579,105.07 339.246,103.736 338.5,102.5C 335.232,101.513 331.898,101.18 328.5,101.5C 328.74,105.527 327.074,106.861 323.5,105.5C 326.174,98.1555 328.841,90.8222 331.5,83.5 Z"/></g>
<g><path style="opacity:1" fill="#86878a" d="M 343.5,83.5 C 349.5,83.5 355.5,83.5 361.5,83.5C 361.5,84.5 361.5,85.5 361.5,86.5C 359.167,86.5 356.833,86.5 354.5,86.5C 354.5,93.1667 354.5,99.8333 354.5,106.5C 353.167,106.5 351.833,106.5 350.5,106.5C 350.5,99.8333 350.5,93.1667 350.5,86.5C 348.167,86.5 345.833,86.5 343.5,86.5C 343.5,85.5 343.5,84.5 343.5,83.5 Z"/></g>
<g><path style="opacity:1" fill="#88888b" d="M 364.5,83.5 C 365.833,83.5 367.167,83.5 368.5,83.5C 368.5,91.1667 368.5,98.8333 368.5,106.5C 367.167,106.5 365.833,106.5 364.5,106.5C 364.5,98.8333 364.5,91.1667 364.5,83.5 Z"/></g>
<g><path style="opacity:1" fill="#88898c" d="M 377.5,83.5 C 388.407,82.6208 392.907,87.6208 391,98.5C 389.362,105.058 385.196,107.558 378.5,106C 376.714,105.215 375.214,104.049 374,102.5C 371.112,95.2788 372.279,88.9455 377.5,83.5 Z"/></g>
<g><path style="opacity:1" fill="#858689" d="M 395.5,83.5 C 397.144,83.2865 398.644,83.6198 400,84.5C 403,89.5 406,94.5 409,99.5C 409.499,94.1771 409.666,88.8437 409.5,83.5C 410.833,83.5 412.167,83.5 413.5,83.5C 413.5,91.1667 413.5,98.8333 413.5,106.5C 411.856,106.714 410.356,106.38 409,105.5C 406,100.833 403,96.1667 400,91.5C 399.501,96.4889 399.334,101.489 399.5,106.5C 398.167,106.5 396.833,106.5 395.5,106.5C 395.5,98.8333 395.5,91.1667 395.5,83.5 Z"/></g>
<g><path style="opacity:1" fill="#86878a" d="M 425.5,83.5 C 430.5,83.5 435.5,83.5 440.5,83.5C 440.5,84.5 440.5,85.5 440.5,86.5C 436.833,86.5 433.167,86.5 429.5,86.5C 429.5,88.8333 429.5,91.1667 429.5,93.5C 432.5,93.5 435.5,93.5 438.5,93.5C 438.5,94.5 438.5,95.5 438.5,96.5C 435.5,96.5 432.5,96.5 429.5,96.5C 429.5,99.8333 429.5,103.167 429.5,106.5C 428.167,106.5 426.833,106.5 425.5,106.5C 425.5,98.8333 425.5,91.1667 425.5,83.5 Z"/></g>
<g><path style="opacity:1" fill="#8b8b8e" d="M 446.5,83.5 C 448.144,83.2865 449.644,83.6198 451,84.5C 454.208,91.625 456.708,98.9584 458.5,106.5C 455.459,106.594 453.793,105.094 453.5,102C 450.183,101.502 446.85,101.335 443.5,101.5C 443.74,105.527 442.074,106.861 438.5,105.5C 441.476,98.2532 444.142,90.9199 446.5,83.5 Z"/></g>
<g><path style="opacity:1" fill="#88898c" d="M 466.5,83.5 C 472.948,81.9543 477.281,84.2876 479.5,90.5C 477.955,91.4519 476.288,91.7852 474.5,91.5C 474.252,87.032 471.918,85.532 467.5,87C 463.5,92.3333 463.5,97.6667 467.5,103C 471.844,104.476 474.178,102.976 474.5,98.5C 475.833,98.5 477.167,98.5 478.5,98.5C 478.57,102.601 476.57,105.101 472.5,106C 468.82,107.027 465.653,106.194 463,103.5C 461.445,98.6178 461.112,93.6178 462,88.5C 463.025,86.313 464.525,84.6464 466.5,83.5 Z"/></g>
<g><path style="opacity:1" fill="#828386" d="M 482.5,83.5 C 483.833,83.5 485.167,83.5 486.5,83.5C 486.5,91.1667 486.5,98.8333 486.5,106.5C 485.167,106.5 483.833,106.5 482.5,106.5C 482.5,98.8333 482.5,91.1667 482.5,83.5 Z"/></g>
<g><path style="opacity:1" fill="#8b8b8e" d="M 491.5,83.5 C 492.833,83.5 494.167,83.5 495.5,83.5C 495.5,89.8333 495.5,96.1667 495.5,102.5C 498.833,102.5 502.167,102.5 505.5,102.5C 505.5,103.833 505.5,105.167 505.5,106.5C 500.833,106.5 496.167,106.5 491.5,106.5C 491.5,98.8333 491.5,91.1667 491.5,83.5 Z"/></g>
<g><path style="opacity:1" fill="#bfbfc1" d="M 509.5,83.5 C 509.5,90.8333 509.5,98.1667 509.5,105.5C 510.5,105.5 511.5,105.5 512.5,105.5C 512.5,98.1667 512.5,90.8333 512.5,83.5C 513.492,90.9818 513.825,98.6484 513.5,106.5C 511.833,106.5 510.167,106.5 508.5,106.5C 508.175,98.6484 508.508,90.9818 509.5,83.5 Z"/></g>
<g><path style="opacity:1" fill="#808284" d="M 509.5,83.5 C 510.5,83.5 511.5,83.5 512.5,83.5C 512.5,90.8333 512.5,98.1667 512.5,105.5C 511.5,105.5 510.5,105.5 509.5,105.5C 509.5,98.1667 509.5,90.8333 509.5,83.5 Z"/></g>
<g><path style="opacity:1" fill="#86878a" d="M 515.5,83.5 C 521.5,83.5 527.5,83.5 533.5,83.5C 533.5,84.5 533.5,85.5 533.5,86.5C 531.167,86.5 528.833,86.5 526.5,86.5C 526.5,93.1667 526.5,99.8333 526.5,106.5C 525.167,106.5 523.833,106.5 522.5,106.5C 522.5,99.8333 522.5,93.1667 522.5,86.5C 520.167,86.5 517.833,86.5 515.5,86.5C 515.5,85.5 515.5,84.5 515.5,83.5 Z"/></g>
<g><path style="opacity:1" fill="#86878a" d="M 535.5,83.5 C 537.144,83.2865 538.644,83.6198 540,84.5C 541.027,87.7542 542.527,90.7542 544.5,93.5C 546.089,90.579 547.589,87.579 549,84.5C 550.494,83.2528 551.994,83.2528 553.5,84.5C 551.588,88.6597 549.421,92.6597 547,96.5C 546.502,99.8168 546.335,103.15 546.5,106.5C 545.167,106.5 543.833,106.5 542.5,106.5C 542.665,103.15 542.498,99.8168 542,96.5C 539.295,92.4235 537.128,88.0901 535.5,83.5 Z"/></g>
<g><path style="opacity:1" fill="#f8f9f9" d="M 214.5,86.5 C 217.961,86.1459 220.461,87.4792 222,90.5C 222.956,94.572 222.456,98.4054 220.5,102C 216.649,104.497 213.816,103.663 212,99.5C 210.743,94.6169 211.576,90.2835 214.5,86.5 Z"/></g>
<g><path style="opacity:1" fill="#f8f8f8" d="M 236.5,86.5 C 239.652,85.9586 242.152,86.9586 244,89.5C 244.667,92.8333 244.667,96.1667 244,99.5C 240.667,104.833 237.333,104.833 234,99.5C 232.743,94.6169 233.576,90.2835 236.5,86.5 Z"/></g>
<g><path style="opacity:1" fill="#f8f9f9" d="M 379.5,86.5 C 382.961,86.1459 385.461,87.4792 387,90.5C 387.956,94.572 387.456,98.4054 385.5,102C 381.649,104.497 378.816,103.663 377,99.5C 375.743,94.6169 376.576,90.2835 379.5,86.5 Z"/></g>
<g><path style="opacity:1" fill="#f7f7f7" d="M 256.5,86.5 C 258.527,86.3379 260.527,86.5045 262.5,87C 265.167,89.3333 265.167,91.6667 262.5,94C 260.527,94.4955 258.527,94.6621 256.5,94.5C 256.5,91.8333 256.5,89.1667 256.5,86.5 Z"/></g>
<g><path style="opacity:1" fill="#fafafa" d="M 276.5,86.5 C 284.421,86.635 287.255,90.635 285,98.5C 283.323,102.051 280.49,103.384 276.5,102.5C 276.5,97.1667 276.5,91.8333 276.5,86.5 Z"/></g>
<g><path style="opacity:1" fill="#f1f1f1" d="M 333.5,88.5 C 335.072,91.2154 336.072,94.2154 336.5,97.5C 334.396,97.7989 332.396,97.4656 330.5,96.5C 331.508,93.8048 332.508,91.1381 333.5,88.5 Z"/></g>
<g><path style="opacity:1" fill="#f5f5f5" d="M 448.5,88.5 C 450.31,91.145 451.31,94.145 451.5,97.5C 449.833,97.5 448.167,97.5 446.5,97.5C 446.756,94.4021 447.422,91.4021 448.5,88.5 Z"/></g>
<g><path style="opacity:1" fill="#fdb954" d="M 152.5,78.5 C 153.5,79.1667 154.5,79.8333 155.5,80.5C 155.25,82.674 154.25,84.3406 152.5,85.5C 151.391,85.4431 150.391,85.1098 149.5,84.5C 149.265,83.9033 148.765,83.5699 148,83.5C 146.28,84.723 144.447,85.723 142.5,86.5C 141.259,85.9628 140.092,85.2961 139,84.5C 120.473,89.307 101.973,94.307 83.5,99.5C 81.853,100.278 80.5196,101.444 79.5,103C 78.5,103.667 77.5,103.667 76.5,103C 74.4642,96.701 76.2975,95.201 82,98.5C 101.043,92.6138 120.21,87.1138 139.5,82C 137.99,81.1502 136.49,80.3169 135,79.5C 133.27,80.6493 131.604,80.6493 130,79.5C 130.011,75.7751 130.677,72.1084 132,68.5C 133.128,70.3453 133.628,72.3453 133.5,74.5C 136.516,74.1594 139.182,72.9927 141.5,71C 142.029,68.5714 143.363,66.7381 145.5,65.5C 146.167,65.8333 146.833,66.1667 147.5,66.5C 148.314,68.7662 148.814,71.0995 149,73.5C 149.549,75.7596 150.716,77.4262 152.5,78.5 Z"/></g>
<g><path style="opacity:1" fill="#fffbf7" d="M 141.5,72.5 C 146.639,73.0207 149.306,76.0207 149.5,81.5C 144.244,81.5794 139.577,80.0794 135.5,77C 137.747,75.7225 139.747,74.2225 141.5,72.5 Z"/></g>
</svg>
