<?xml version="1.0" encoding="UTF-8"?>
<!DOCTYPE svg PUBLIC "-//W3C//DTD SVG 1.1//EN" "http://www.w3.org/Graphics/SVG/1.1/DTD/svg11.dtd">
<svg xmlns="http://www.w3.org/2000/svg" version="1.1" width="426px" height="388px" style="shape-rendering:geometricPrecision; text-rendering:geometricPrecision; image-rendering:optimizeQuality; fill-rule:evenodd; clip-rule:evenodd" xmlns:xlink="http://www.w3.org/1999/xlink">
<g><path style="opacity:1" fill="#244b4c" d="M -0.5,-0.5 C 125.167,-0.5 250.833,-0.5 376.5,-0.5C 377.347,1.84445 379.014,3.34445 381.5,4C 378.258,4.28327 377.924,5.1166 380.5,6.5C 379.198,8.20116 377.531,9.36783 375.5,10C 376.448,10.4828 377.448,10.6495 378.5,10.5C 378.756,12.7925 378.423,14.9592 377.5,17C 378.308,17.3076 378.975,17.8076 379.5,18.5C 378.167,19.5 376.833,20.5 375.5,21.5C 376.833,22.1667 378.167,22.8333 379.5,23.5C 378.758,25.3497 377.758,26.0164 376.5,25.5C 377.685,26.853 379.019,28.0197 380.5,29C 378.833,29.3333 377.167,29.6667 375.5,30C 377.619,30.0976 379.286,30.9309 380.5,32.5C 379.443,32.9059 378.109,32.9059 376.5,32.5C 376.33,35.4905 377.663,37.4905 380.5,38.5C 379.174,38.2052 377.841,38.7052 376.5,40C 377.614,41.4493 378.614,42.7827 379.5,44C 377.287,46.6628 377.287,49.4961 379.5,52.5C 374.27,53.9247 374.27,55.0914 379.5,56C 376.833,57.3333 376.833,58.6667 379.5,60C 378.5,60.8333 377.5,61.6667 376.5,62.5C 377.747,64.0421 377.747,65.5421 376.5,67C 379.915,68.1433 380.249,69.81 377.5,72C 378.167,72.6667 378.833,73.3333 379.5,74C 378.949,75.3985 378.616,76.7318 378.5,78C 381.16,79.6574 381.16,81.3241 378.5,83C 379.619,85.3077 379.286,87.4743 377.5,89.5C 376.914,89.2907 376.414,88.9574 376,88.5C 373.816,91.3345 374.316,92.6678 377.5,92.5C 377.892,95.1457 377.892,97.6457 377.5,100C 378.376,101.585 379.709,102.585 381.5,103C 380.04,105.072 378.374,105.906 376.5,105.5C 378.931,106.36 380.264,108.027 380.5,110.5C 379.5,110.5 378.5,110.5 377.5,110.5C 377.523,115.606 378.189,120.606 379.5,125.5C 375.944,125.275 375.61,126.108 378.5,128C 377.956,130.4 377.289,132.733 376.5,135C 376.955,137.312 377.955,139.312 379.5,141C 378.332,142.406 378.665,143.572 380.5,144.5C 379.277,146.46 377.944,148.293 376.5,150C 378.2,154.406 377.533,158.406 374.5,162C 375.793,162.49 377.127,162.657 378.5,162.5C 378.046,165.865 377.38,169.198 376.5,172.5C 376.486,174.593 377.152,176.426 378.5,178C 375.394,180.983 375.061,184.15 377.5,187.5C 377.392,188.442 377.059,189.275 376.5,190C 380.378,192.439 380.378,194.939 376.5,197.5C 374.828,200.83 375.495,203.497 378.5,205.5C 379.829,202.305 381.495,201.972 383.5,204.5C 384.192,203.975 384.692,203.308 385,202.5C 396.811,208.416 398.978,216.916 391.5,228C 396.473,232.044 396.807,236.544 392.5,241.5C 397,246.663 396.333,250.996 390.5,254.5C 388.106,255.349 385.773,256.349 383.5,257.5C 383.089,256.738 382.923,255.738 383,254.5C 381.667,255.833 380.333,255.833 379,254.5C 378.5,255.667 377.667,256.5 376.5,257C 378.957,258.154 378.957,259.488 376.5,261C 377.624,261.249 378.624,261.749 379.5,262.5C 378.384,262.402 377.384,262.902 376.5,264C 377.078,265.811 377.578,267.645 378,269.5C 378.615,267.884 379.615,266.551 381,265.5C 384.434,265.215 387.934,265.715 391.5,267C 392.961,269.421 394.294,271.921 395.5,274.5C 395.35,282.194 395.183,290.194 395,298.5C 391.667,300.833 391.667,303.167 395,305.5C 396.692,312.826 395.192,319.326 390.5,325C 392.369,327.368 394.036,329.868 395.5,332.5C 394.762,334.94 393.429,336.94 391.5,338.5C 396.127,342.281 396.46,346.281 392.5,350.5C 389.475,352.23 386.809,354.396 384.5,357C 386.822,358.924 389.489,360.257 392.5,361C 393.494,362.329 394.494,363.662 395.5,365C 394.576,366.15 394.576,367.15 395.5,368C 391.664,370.541 391.497,373.375 395,376.5C 395.667,379.167 395.667,381.833 395,384.5C 393.591,385.781 392.091,386.781 390.5,387.5C 260.167,387.5 129.833,387.5 -0.5,387.5C -0.5,258.167 -0.5,128.833 -0.5,-0.5 Z"/></g>
<g><path style="opacity:1" fill="#274d4f" d="M 376.5,-0.5 C 386.833,-0.5 397.167,-0.5 407.5,-0.5C 408.8,0.826694 410.133,2.16003 411.5,3.5C 410.191,5.93744 410.858,7.43744 413.5,8C 412.167,8.66667 412.167,9.33333 413.5,10C 412.167,10.3333 410.833,10.6667 409.5,11C 412.668,11.5823 413.001,12.5823 410.5,14C 411.833,15 413.167,16 414.5,17C 412.806,18.7277 411.639,18.2277 411,15.5C 410.333,17.1667 410.333,18.8333 411,20.5C 411.333,20.1667 411.667,19.8333 412,19.5C 413.852,21.2297 413.686,22.3964 411.5,23C 412.833,25 412.833,27 411.5,29C 413.878,29.9745 413.544,30.6411 410.5,31C 412.454,32.8978 413.454,34.8978 413.5,37C 410.8,37.9492 409.967,39.7825 411,42.5C 412.243,41.6637 413.41,41.997 414.5,43.5C 413.516,45.4799 412.183,47.1466 410.5,48.5C 411.311,49.2164 411.978,50.0497 412.5,51C 411.427,52.4162 411.427,53.7496 412.5,55C 407.167,55.6667 407.167,56.3333 412.5,57C 410.699,57.3173 410.366,57.984 411.5,59C 406.167,59.6667 406.167,60.3333 411.5,61C 409.219,62.4823 409.219,64.149 411.5,66C 410.941,66.7247 410.608,67.5581 410.5,68.5C 411.488,69.19 412.488,70.3567 413.5,72C 410.17,74.8291 409.837,77.9958 412.5,81.5C 411.641,87.8877 411.641,94.3877 412.5,101C 411.09,101.368 410.09,102.201 409.5,103.5C 409.47,107.207 410.47,110.873 412.5,114.5C 411.559,114.489 410.892,114.989 410.5,116C 412.443,117.834 412.776,119.834 411.5,122C 413.8,124.005 413.8,126.172 411.5,128.5C 412.246,129.736 412.579,131.07 412.5,132.5C 413.552,132.351 414.552,132.517 415.5,133C 409.251,133.941 408.584,135.774 413.5,138.5C 410.105,142.224 409.771,145.39 412.5,148C 412.097,149.473 411.43,150.806 410.5,152C 411.5,152.333 412.5,152.667 413.5,153C 412.167,153.667 412.167,154.333 413.5,155C 412.5,155.333 411.5,155.667 410.5,156C 415.501,158.589 415.501,160.923 410.5,163C 413.167,163.667 413.167,164.333 410.5,165C 413.08,166.897 412.747,168.897 409.5,171C 412.464,171.84 412.797,172.84 410.5,174C 411.26,175.441 411.926,176.941 412.5,178.5C 411.36,181.406 411.36,184.239 412.5,187C 410.203,188.16 410.536,189.16 413.5,190C 410.833,190.667 410.833,191.333 413.5,192C 412.833,192.667 412.167,193.333 411.5,194C 412.833,195.84 412.666,196.34 411,195.5C 410.5,196 410,196.5 409.5,197C 410.068,198.652 411.401,200.318 413.5,202C 411.665,202.928 411.332,204.094 412.5,205.5C 411.833,206.5 411.167,207.5 410.5,208.5C 411.711,209.72 411.711,210.887 410.5,212C 411.5,212.333 412.5,212.667 413.5,213C 411.945,214.646 410.279,214.979 408.5,214C 409.759,214.923 411.092,215.757 412.5,216.5C 409.991,218.59 410.325,220.423 413.5,222C 410.833,223.333 410.833,224.667 413.5,226C 412.376,226.249 411.376,226.749 410.5,227.5C 411.891,227.109 412.891,227.942 413.5,230C 411.321,230.442 410.655,231.442 411.5,233C 410.833,234.667 410.167,236.333 409.5,238C 411.004,237.069 412.671,236.402 414.5,236C 413.405,238.195 412.405,240.362 411.5,242.5C 413.991,243.541 413.991,244.374 411.5,245C 412.167,245.333 412.833,245.667 413.5,246C 412.62,247.356 412.286,248.856 412.5,250.5C 416.5,250.833 416.5,251.167 412.5,251.5C 412.52,253.143 411.853,254.476 410.5,255.5C 412.922,257.94 412.922,260.274 410.5,262.5C 410.888,264.641 410.888,266.641 410.5,268.5C 412.184,269.854 412.684,271.521 412,273.5C 411.667,272.833 411.333,272.167 411,271.5C 410.654,273.218 410.154,274.885 409.5,276.5C 411.385,277.197 411.718,278.197 410.5,279.5C 411.489,280.468 412.156,281.635 412.5,283C 411.715,284.79 411.715,286.457 412.5,288C 411.643,288.689 410.977,289.522 410.5,290.5C 411.833,292.167 411.833,293.833 410.5,295.5C 410.846,296.696 411.346,296.696 412,295.5C 412.667,297.5 412.667,299.5 412,301.5C 411.667,300.167 411.333,298.833 411,297.5C 410.73,300.224 410.23,302.891 409.5,305.5C 410.074,307.059 410.74,308.559 411.5,310C 410.398,312.401 410.231,314.901 411,317.5C 411.718,316.549 412.551,316.383 413.5,317C 412.313,318.019 411.313,319.186 410.5,320.5C 412.69,326.221 413.024,331.721 411.5,337C 412.167,337.333 412.833,337.667 413.5,338C 413.5,339.333 413.5,340.667 413.5,342C 410.051,343.248 410.384,344.582 414.5,346C 412.519,346.605 412.185,347.605 413.5,349C 412.5,349.333 411.5,349.667 410.5,350C 411.184,351.693 412.184,353.193 413.5,354.5C 412.624,355.251 411.624,355.751 410.5,356C 411.672,356.419 412.672,357.085 413.5,358C 412.359,358.741 412.359,359.575 413.5,360.5C 412.509,361.665 411.509,362.832 410.5,364C 410.611,365.722 411.111,365.888 412,364.5C 413.255,365.211 414.421,366.044 415.5,367C 414.551,367.617 413.718,367.451 413,366.5C 412.5,367.667 411.667,368.5 410.5,369C 413.841,370.528 413.841,372.528 410.5,375C 411.308,375.308 411.975,375.808 412.5,376.5C 411.711,379.952 411.711,383.619 412.5,387.5C 405.167,387.5 397.833,387.5 390.5,387.5C 392.091,386.781 393.591,385.781 395,384.5C 395.667,381.833 395.667,379.167 395,376.5C 391.497,373.375 391.664,370.541 395.5,368C 394.576,367.15 394.576,366.15 395.5,365C 394.494,363.662 393.494,362.329 392.5,361C 389.489,360.257 386.822,358.924 384.5,357C 386.809,354.396 389.475,352.23 392.5,350.5C 396.46,346.281 396.127,342.281 391.5,338.5C 393.429,336.94 394.762,334.94 395.5,332.5C 394.036,329.868 392.369,327.368 390.5,325C 395.192,319.326 396.692,312.826 395,305.5C 391.667,303.167 391.667,300.833 395,298.5C 395.183,290.194 395.35,282.194 395.5,274.5C 394.294,271.921 392.961,269.421 391.5,267C 387.934,265.715 384.434,265.215 381,265.5C 379.615,266.551 378.615,267.884 378,269.5C 377.578,267.645 377.078,265.811 376.5,264C 377.384,262.902 378.384,262.402 379.5,262.5C 378.624,261.749 377.624,261.249 376.5,261C 378.957,259.488 378.957,258.154 376.5,257C 377.667,256.5 378.5,255.667 379,254.5C 380.333,255.833 381.667,255.833 383,254.5C 382.923,255.738 383.089,256.738 383.5,257.5C 385.773,256.349 388.106,255.349 390.5,254.5C 396.333,250.996 397,246.663 392.5,241.5C 396.807,236.544 396.473,232.044 391.5,228C 398.978,216.916 396.811,208.416 385,202.5C 384.692,203.308 384.192,203.975 383.5,204.5C 381.495,201.972 379.829,202.305 378.5,205.5C 375.495,203.497 374.828,200.83 376.5,197.5C 380.378,194.939 380.378,192.439 376.5,190C 377.059,189.275 377.392,188.442 377.5,187.5C 375.061,184.15 375.394,180.983 378.5,178C 377.152,176.426 376.486,174.593 376.5,172.5C 377.38,169.198 378.046,165.865 378.5,162.5C 377.127,162.657 375.793,162.49 374.5,162C 377.533,158.406 378.2,154.406 376.5,150C 377.944,148.293 379.277,146.46 380.5,144.5C 378.665,143.572 378.332,142.406 379.5,141C 377.955,139.312 376.955,137.312 376.5,135C 377.289,132.733 377.956,130.4 378.5,128C 375.61,126.108 375.944,125.275 379.5,125.5C 378.189,120.606 377.523,115.606 377.5,110.5C 378.5,110.5 379.5,110.5 380.5,110.5C 380.264,108.027 378.931,106.36 376.5,105.5C 378.374,105.906 380.04,105.072 381.5,103C 379.709,102.585 378.376,101.585 377.5,100C 377.892,97.6457 377.892,95.1457 377.5,92.5C 374.316,92.6678 373.816,91.3345 376,88.5C 376.414,88.9574 376.914,89.2907 377.5,89.5C 379.286,87.4743 379.619,85.3077 378.5,83C 381.16,81.3241 381.16,79.6574 378.5,78C 378.616,76.7318 378.949,75.3985 379.5,74C 378.833,73.3333 378.167,72.6667 377.5,72C 380.249,69.81 379.915,68.1433 376.5,67C 377.747,65.5421 377.747,64.0421 376.5,62.5C 377.5,61.6667 378.5,60.8333 379.5,60C 376.833,58.6667 376.833,57.3333 379.5,56C 374.27,55.0914 374.27,53.9247 379.5,52.5C 377.287,49.4961 377.287,46.6628 379.5,44C 378.614,42.7827 377.614,41.4493 376.5,40C 377.841,38.7052 379.174,38.2052 380.5,38.5C 377.663,37.4905 376.33,35.4905 376.5,32.5C 378.109,32.9059 379.443,32.9059 380.5,32.5C 379.286,30.9309 377.619,30.0976 375.5,30C 377.167,29.6667 378.833,29.3333 380.5,29C 379.019,28.0197 377.685,26.853 376.5,25.5C 377.758,26.0164 378.758,25.3497 379.5,23.5C 378.167,22.8333 376.833,22.1667 375.5,21.5C 376.833,20.5 378.167,19.5 379.5,18.5C 378.975,17.8076 378.308,17.3076 377.5,17C 378.423,14.9592 378.756,12.7925 378.5,10.5C 377.448,10.6495 376.448,10.4828 375.5,10C 377.531,9.36783 379.198,8.20116 380.5,6.5C 377.924,5.1166 378.258,4.28327 381.5,4C 379.014,3.34445 377.347,1.84445 376.5,-0.5 Z"/></g>
<g><path style="opacity:1" fill="#2a5052" d="M 407.5,-0.5 C 413.5,-0.5 419.5,-0.5 425.5,-0.5C 425.5,128.833 425.5,258.167 425.5,387.5C 421.167,387.5 416.833,387.5 412.5,387.5C 411.711,383.619 411.711,379.952 412.5,376.5C 411.975,375.808 411.308,375.308 410.5,375C 413.841,372.528 413.841,370.528 410.5,369C 411.667,368.5 412.5,367.667 413,366.5C 413.718,367.451 414.551,367.617 415.5,367C 414.421,366.044 413.255,365.211 412,364.5C 411.111,365.888 410.611,365.722 410.5,364C 411.509,362.832 412.509,361.665 413.5,360.5C 412.359,359.575 412.359,358.741 413.5,358C 412.672,357.085 411.672,356.419 410.5,356C 411.624,355.751 412.624,355.251 413.5,354.5C 412.184,353.193 411.184,351.693 410.5,350C 411.5,349.667 412.5,349.333 413.5,349C 412.185,347.605 412.519,346.605 414.5,346C 410.384,344.582 410.051,343.248 413.5,342C 413.5,340.667 413.5,339.333 413.5,338C 412.833,337.667 412.167,337.333 411.5,337C 413.024,331.721 412.69,326.221 410.5,320.5C 411.313,319.186 412.313,318.019 413.5,317C 412.551,316.383 411.718,316.549 411,317.5C 410.231,314.901 410.398,312.401 411.5,310C 410.74,308.559 410.074,307.059 409.5,305.5C 410.23,302.891 410.73,300.224 411,297.5C 411.333,298.833 411.667,300.167 412,301.5C 412.667,299.5 412.667,297.5 412,295.5C 411.346,296.696 410.846,296.696 410.5,295.5C 411.833,293.833 411.833,292.167 410.5,290.5C 410.977,289.522 411.643,288.689 412.5,288C 411.715,286.457 411.715,284.79 412.5,283C 412.156,281.635 411.489,280.468 410.5,279.5C 411.718,278.197 411.385,277.197 409.5,276.5C 410.154,274.885 410.654,273.218 411,271.5C 411.333,272.167 411.667,272.833 412,273.5C 412.684,271.521 412.184,269.854 410.5,268.5C 410.888,266.641 410.888,264.641 410.5,262.5C 412.922,260.274 412.922,257.94 410.5,255.5C 411.853,254.476 412.52,253.143 412.5,251.5C 416.5,251.167 416.5,250.833 412.5,250.5C 412.286,248.856 412.62,247.356 413.5,246C 412.833,245.667 412.167,245.333 411.5,245C 413.991,244.374 413.991,243.541 411.5,242.5C 412.405,240.362 413.405,238.195 414.5,236C 412.671,236.402 411.004,237.069 409.5,238C 410.167,236.333 410.833,234.667 411.5,233C 410.655,231.442 411.321,230.442 413.5,230C 412.891,227.942 411.891,227.109 410.5,227.5C 411.376,226.749 412.376,226.249 413.5,226C 410.833,224.667 410.833,223.333 413.5,222C 410.325,220.423 409.991,218.59 412.5,216.5C 411.092,215.757 409.759,214.923 408.5,214C 410.279,214.979 411.945,214.646 413.5,213C 412.5,212.667 411.5,212.333 410.5,212C 411.711,210.887 411.711,209.72 410.5,208.5C 411.167,207.5 411.833,206.5 412.5,205.5C 411.332,204.094 411.665,202.928 413.5,202C 411.401,200.318 410.068,198.652 409.5,197C 410,196.5 410.5,196 411,195.5C 412.666,196.34 412.833,195.84 411.5,194C 412.167,193.333 412.833,192.667 413.5,192C 410.833,191.333 410.833,190.667 413.5,190C 410.536,189.16 410.203,188.16 412.5,187C 411.36,184.239 411.36,181.406 412.5,178.5C 411.926,176.941 411.26,175.441 410.5,174C 412.797,172.84 412.464,171.84 409.5,171C 412.747,168.897 413.08,166.897 410.5,165C 413.167,164.333 413.167,163.667 410.5,163C 415.501,160.923 415.501,158.589 410.5,156C 411.5,155.667 412.5,155.333 413.5,155C 412.167,154.333 412.167,153.667 413.5,153C 412.5,152.667 411.5,152.333 410.5,152C 411.43,150.806 412.097,149.473 412.5,148C 409.771,145.39 410.105,142.224 413.5,138.5C 408.584,135.774 409.251,133.941 415.5,133C 414.552,132.517 413.552,132.351 412.5,132.5C 412.579,131.07 412.246,129.736 411.5,128.5C 413.8,126.172 413.8,124.005 411.5,122C 412.776,119.834 412.443,117.834 410.5,116C 410.892,114.989 411.559,114.489 412.5,114.5C 410.47,110.873 409.47,107.207 409.5,103.5C 410.09,102.201 411.09,101.368 412.5,101C 411.641,94.3877 411.641,87.8877 412.5,81.5C 409.837,77.9958 410.17,74.8291 413.5,72C 412.488,70.3567 411.488,69.19 410.5,68.5C 410.608,67.5581 410.941,66.7247 411.5,66C 409.219,64.149 409.219,62.4823 411.5,61C 406.167,60.3333 406.167,59.6667 411.5,59C 410.366,57.984 410.699,57.3173 412.5,57C 407.167,56.3333 407.167,55.6667 412.5,55C 411.427,53.7496 411.427,52.4162 412.5,51C 411.978,50.0497 411.311,49.2164 410.5,48.5C 412.183,47.1466 413.516,45.4799 414.5,43.5C 413.41,41.997 412.243,41.6637 411,42.5C 409.967,39.7825 410.8,37.9492 413.5,37C 413.454,34.8978 412.454,32.8978 410.5,31C 413.544,30.6411 413.878,29.9745 411.5,29C 412.833,27 412.833,25 411.5,23C 413.686,22.3964 413.852,21.2297 412,19.5C 411.667,19.8333 411.333,20.1667 411,20.5C 410.333,18.8333 410.333,17.1667 411,15.5C 411.639,18.2277 412.806,18.7277 414.5,17C 413.167,16 411.833,15 410.5,14C 413.001,12.5823 412.668,11.5823 409.5,11C 410.833,10.6667 412.167,10.3333 413.5,10C 412.167,9.33333 412.167,8.66667 413.5,8C 410.858,7.43744 410.191,5.93744 411.5,3.5C 410.133,2.16003 408.8,0.826694 407.5,-0.5 Z"/></g>
<g><path style="opacity:1" fill="#4e664a" d="M 221.5,15.5 C 222.167,30.8333 222.833,46.1667 223.5,61.5C 223.44,62.0431 223.107,62.3764 222.5,62.5C 221.501,46.8475 221.167,31.1808 221.5,15.5 Z"/></g>
<g><path style="opacity:1" fill="#35574b" d="M 214.5,24.5 C 214.5,46.1667 214.5,67.8333 214.5,89.5C 213.209,89.7373 212.209,89.404 211.5,88.5C 213.163,67.3529 214.163,46.0196 214.5,24.5 Z"/></g>
<g><path style="opacity:1" fill="#b3a14c" d="M 221.5,15.5 C 221.167,31.1808 221.501,46.8475 222.5,62.5C 223.107,62.3764 223.44,62.0431 223.5,61.5C 228.018,58.4951 232.684,55.6618 237.5,53C 242.281,51.8735 243.948,53.5402 242.5,58C 235.667,62.1667 228.833,66.3333 222,70.5C 221.5,86.8299 221.333,103.163 221.5,119.5C 220.18,127.343 220.18,135.343 221.5,143.5C 222.107,143.376 222.44,143.043 222.5,142.5C 235.643,135.852 248.143,128.185 260,119.5C 262.366,107.703 265.199,96.036 268.5,84.5C 270.074,83.3691 271.741,83.2025 273.5,84C 274.059,84.7247 274.392,85.5581 274.5,86.5C 271.617,95.8516 269.617,105.185 268.5,114.5C 274.976,109.858 281.309,105.025 287.5,100C 290.237,98.9202 291.904,99.7536 292.5,102.5C 291.781,104.728 290.448,106.561 288.5,108C 274.311,118.256 259.978,128.256 245.5,138C 253.957,147.458 262.79,156.625 272,165.5C 272.852,170.254 271.019,171.588 266.5,169.5C 257.5,159.833 248.167,150.5 238.5,141.5C 232.585,144.707 226.752,148.04 221,151.5C 220.5,174.831 220.333,198.164 220.5,221.5C 227.175,221.334 233.842,221.5 240.5,222C 241,222.5 241.5,223 242,223.5C 249.465,244.728 256.631,266.061 263.5,287.5C 270.482,281.686 277.315,275.686 284,269.5C 281.944,262.421 283.777,256.587 289.5,252C 293.43,250.249 297.43,250.082 301.5,251.5C 303.028,250.139 304.695,248.972 306.5,248C 310.088,247.389 311.254,248.889 310,252.5C 308.536,253.459 307.703,254.792 307.5,256.5C 311.216,264.909 308.882,271.076 300.5,275C 296.134,275.363 291.801,275.363 287.5,275C 280.667,281.167 273.833,287.333 267,293.5C 267.397,300.42 269.063,307.086 272,313.5C 284.746,322.457 297.58,331.29 310.5,340C 311.833,340.667 313.167,340.667 314.5,340C 319.996,336.084 325.663,332.418 331.5,329C 335.506,328.013 337.339,329.513 337,333.5C 331.081,337.209 325.248,341.042 319.5,345C 322.736,347.868 326.236,350.368 330,352.5C 330.494,354.134 330.66,355.801 330.5,357.5C 327.68,357.752 325.014,357.252 322.5,356C 314.171,349.813 305.505,344.313 296.5,339.5C 293.637,347.583 290.47,355.583 287,363.5C 282.154,365.323 280.488,363.656 282,358.5C 284.874,350.712 288.04,343.045 291.5,335.5C 284.449,330.312 277.115,325.646 269.5,321.5C 233.336,320.336 197.002,320.169 160.5,321C 159.944,321.383 159.611,321.883 159.5,322.5C 145.421,327.022 131.421,331.856 117.5,337C 111.5,348.667 105.5,360.333 99.5,372C 97.8333,372.667 96.1667,372.667 94.5,372C 93.9415,371.275 93.6082,370.442 93.5,369.5C 97.6368,359.893 102.304,350.56 107.5,341.5C 107,341.167 106.5,340.833 106,340.5C 93.9209,345.228 81.7542,349.728 69.5,354C 64.1151,355.45 62.4485,353.617 64.5,348.5C 86.3104,340.174 108.31,332.341 130.5,325C 130.957,324.586 131.291,324.086 131.5,323.5C 124.434,316.263 116.934,309.597 109,303.5C 102.896,306.802 96.7293,309.969 90.5,313C 85.3945,312.867 84.3945,310.7 87.5,306.5C 92.9456,303.484 98.279,300.484 103.5,297.5C 98.8748,293.376 94.3748,289.043 90,284.5C 88.4167,279.9 89.9167,278.066 94.5,279C 109.167,293 123.833,307 138.5,321C 139.833,321.667 141.167,321.667 142.5,321C 147.332,318.874 152.332,317.207 157.5,316C 159.049,314.786 160.215,313.286 161,311.5C 171.163,284 181.496,256.666 192,229.5C 192.86,226.367 194.36,223.7 196.5,221.5C 202.167,221.5 207.833,221.5 213.5,221.5C 213.829,207.323 213.496,193.323 212.5,179.5C 207.541,175.349 202.208,171.682 196.5,168.5C 190.134,171.364 184.134,174.864 178.5,179C 172.44,180.066 171.106,178.066 174.5,173C 179.634,170.031 184.634,166.864 189.5,163.5C 183.306,158.806 176.972,154.306 170.5,150C 164.585,144.048 165.585,142.048 173.5,144C 186.696,153.362 200.029,162.529 213.5,171.5C 214.666,146.84 214.833,122.173 214,97.5C 206.24,93.3697 198.406,89.3697 190.5,85.5C 182.719,90.7721 175.052,96.2721 167.5,102C 165.305,103.373 162.971,103.706 160.5,103C 158.972,100.119 159.638,97.7859 162.5,96C 169.381,91.3994 176.048,86.566 182.5,81.5C 171.653,74.836 160.653,68.336 149.5,62C 146.471,57.3438 147.804,55.6771 153.5,57C 172.728,67.7789 192.061,78.2789 211.5,88.5C 212.209,89.404 213.209,89.7373 214.5,89.5C 214.5,67.8333 214.5,46.1667 214.5,24.5C 214.183,21.4281 214.516,18.4281 215.5,15.5C 217.643,14.2463 219.643,14.2463 221.5,15.5 Z"/></g>
<g><path style="opacity:1" fill="#6b7649" d="M 221.5,119.5 C 221.175,127.352 221.508,135.018 222.5,142.5C 222.44,143.043 222.107,143.376 221.5,143.5C 220.18,135.343 220.18,127.343 221.5,119.5 Z"/></g>
<g><path style="opacity:1" fill="#37584b" d="M 212.5,179.5 C 213.496,193.323 213.829,207.323 213.5,221.5C 207.833,221.5 202.167,221.5 196.5,221.5C 201.64,220.512 206.974,220.179 212.5,220.5C 212.5,206.833 212.5,193.167 212.5,179.5 Z"/></g>
<g><path style="opacity:1" fill="#274c4c" d="M 248.5,286.5 C 240.016,285.507 231.349,285.174 222.5,285.5C 222.5,280.5 222.5,275.5 222.5,270.5C 226.514,270.666 230.514,270.499 234.5,270C 237.167,268 237.167,266 234.5,264C 230.514,263.501 226.514,263.334 222.5,263.5C 222.666,257.491 222.499,251.491 222,245.5C 219.707,242.866 217.54,242.866 215.5,245.5C 214.511,250.975 214.178,256.642 214.5,262.5C 210.958,262.187 207.625,262.521 204.5,263.5C 201.833,265.5 201.833,267.5 204.5,269.5C 207.625,270.479 210.958,270.813 214.5,270.5C 214.5,275.5 214.5,280.5 214.5,285.5C 205.651,285.174 196.984,285.507 188.5,286.5C 187.248,288.339 187.248,290.172 188.5,292C 197.167,292.333 205.833,292.667 214.5,293C 215.8,296.832 215.8,300.666 214.5,304.5C 210.183,304.083 206.183,304.75 202.5,306.5C 202.167,306.5 201.833,306.5 201.5,306.5C 198.848,306.41 196.515,307.076 194.5,308.5C 190.883,309.642 187.55,311.308 184.5,313.5C 178.974,313.821 173.64,313.488 168.5,312.5C 179.14,284.601 189.473,256.601 199.5,228.5C 212.413,228.178 225.246,228.511 238,229.5C 244.132,249.561 250.465,269.561 257,289.5C 257.667,290.833 257.667,292.167 257,293.5C 250.99,298.179 244.99,302.846 239,307.5C 233.398,305.155 227.564,304.155 221.5,304.5C 221.5,300.833 221.5,297.167 221.5,293.5C 230.506,293.666 239.506,293.5 248.5,293C 251.081,290.774 251.081,288.608 248.5,286.5 Z"/></g>
<g><path style="opacity:1" fill="#53694a" d="M 215.5,245.5 C 215.5,251.5 215.5,257.5 215.5,263.5C 211.833,263.5 208.167,263.5 204.5,263.5C 207.625,262.521 210.958,262.187 214.5,262.5C 214.178,256.642 214.511,250.975 215.5,245.5 Z"/></g>
<g><path style="opacity:1" fill="#2d504c" d="M 294.5,256.5 C 300.133,256.961 302.633,259.961 302,265.5C 300.179,268.991 297.346,270.157 293.5,269C 289.212,264.282 289.545,260.116 294.5,256.5 Z"/></g>
<g><path style="opacity:1" fill="#4e654a" d="M 204.5,269.5 C 208.167,269.5 211.833,269.5 215.5,269.5C 215.5,275.167 215.5,280.833 215.5,286.5C 206.5,286.5 197.5,286.5 188.5,286.5C 196.984,285.507 205.651,285.174 214.5,285.5C 214.5,280.5 214.5,275.5 214.5,270.5C 210.958,270.813 207.625,270.479 204.5,269.5 Z"/></g>
<g><path style="opacity:1" fill="#3e5b4b" d="M 222.5,270.5 C 222.5,275.5 222.5,280.5 222.5,285.5C 231.349,285.174 240.016,285.507 248.5,286.5C 239.5,286.5 230.5,286.5 221.5,286.5C 221.179,280.974 221.512,275.64 222.5,270.5 Z"/></g>
<g><path style="opacity:1" fill="#294d4c" d="M 263.5,312.5 C 259.03,313.486 254.363,313.819 249.5,313.5C 247.524,312.573 247.191,311.24 248.5,309.5C 251.876,306.122 255.543,303.122 259.5,300.5C 261.828,304.15 263.161,308.15 263.5,312.5 Z"/></g>
<g><path style="opacity:1" fill="#88884a" d="M 214.5,304.5 C 210.684,305.482 206.684,306.149 202.5,306.5C 206.183,304.75 210.183,304.083 214.5,304.5 Z"/></g>
<g><path style="opacity:1" fill="#87874a" d="M 201.5,306.5 C 199.485,307.924 197.152,308.59 194.5,308.5C 196.515,307.076 198.848,306.41 201.5,306.5 Z"/></g>
<g><path style="opacity:1" fill="#45604a" d="M 168.5,312.5 C 173.64,313.488 178.974,313.821 184.5,313.5C 178.987,314.816 173.32,314.816 167.5,313.5C 167.624,312.893 167.957,312.56 168.5,312.5 Z"/></g>
<g><path style="opacity:1" fill="#4e664a" d="M 263.5,312.5 C 264.043,312.56 264.376,312.893 264.5,313.5C 259.348,314.814 254.348,314.814 249.5,313.5C 254.363,313.819 259.03,313.486 263.5,312.5 Z"/></g>
<g><path style="opacity:1" fill="#747c4a" d="M 269.5,321.5 C 232.79,321.179 196.124,321.513 159.5,322.5C 159.611,321.883 159.944,321.383 160.5,321C 197.002,320.169 233.336,320.336 269.5,321.5 Z"/></g>
</svg>
