<?xml version="1.0" encoding="UTF-8"?>
<!DOCTYPE svg PUBLIC "-//W3C//DTD SVG 1.1//EN" "http://www.w3.org/Graphics/SVG/1.1/DTD/svg11.dtd">
<svg xmlns="http://www.w3.org/2000/svg" version="1.1" width="362px" height="238px" style="shape-rendering:geometricPrecision; text-rendering:geometricPrecision; image-rendering:optimizeQuality; fill-rule:evenodd; clip-rule:evenodd" xmlns:xlink="http://www.w3.org/1999/xlink">
<g><path style="opacity:1" fill="#fefefe" d="M -0.5,-0.5 C 120.167,-0.5 240.833,-0.5 361.5,-0.5C 361.5,78.8333 361.5,158.167 361.5,237.5C 240.833,237.5 120.167,237.5 -0.5,237.5C -0.5,158.167 -0.5,78.8333 -0.5,-0.5 Z"/></g>
<g><path style="opacity:1" fill="#4b86ae" d="M 246.5,18.5 C 248.527,18.3379 250.527,18.5045 252.5,19C 251.242,20.7409 250.242,22.5742 249.5,24.5C 248.85,24.8039 248.183,25.1373 247.5,25.5C 244.117,23.8722 240.617,22.5388 237,21.5C 235.97,21.1639 235.47,20.4972 235.5,19.5C 239.198,19.4476 242.865,19.1143 246.5,18.5 Z"/></g>
<g><path style="opacity:1" fill="#5d9da2" d="M 246.5,18.5 C 251.833,17.1667 257.167,17.1667 262.5,18.5C 260.076,18.1924 257.743,18.5258 255.5,19.5C 260.161,23.4939 264.494,27.8273 268.5,32.5C 262.167,30.5009 255.834,28.5009 249.5,26.5C 249.5,25.8333 249.5,25.1667 249.5,24.5C 250.242,22.5742 251.242,20.7409 252.5,19C 250.527,18.5045 248.527,18.3379 246.5,18.5 Z"/></g>
<g><path style="opacity:1" fill="#4b86ae" d="M 262.5,18.5 C 270.854,18.4272 279.188,18.7605 287.5,19.5C 284.497,23.3431 281.664,27.3431 279,31.5C 277.871,33.1412 276.371,34.1412 274.5,34.5C 273.167,34.1667 271.833,33.8333 270.5,33.5C 269.833,33.1667 269.167,32.8333 268.5,32.5C 264.494,27.8273 260.161,23.4939 255.5,19.5C 257.743,18.5258 260.076,18.1924 262.5,18.5 Z"/></g>
<g><path style="opacity:1" fill="#95bce2" d="M 235.5,19.5 C 235.47,20.4972 235.97,21.1639 237,21.5C 240.617,22.5388 244.117,23.8722 247.5,25.5C 248.183,25.1373 248.85,24.8039 249.5,24.5C 249.5,25.1667 249.5,25.8333 249.5,26.5C 244.526,33.0955 240.026,40.0955 236,47.5C 234.589,49.6504 233.755,51.9837 233.5,54.5C 232.833,54.5 232.167,54.5 231.5,54.5C 223.223,49.0216 214.556,44.0216 205.5,39.5C 204.893,39.6236 204.56,39.9569 204.5,40.5C 203.078,39.075 201.411,38.075 199.5,37.5C 210.914,30.4594 222.914,24.4594 235.5,19.5 Z"/></g>
<g><path style="opacity:1" fill="#3e69a6" d="M 288.5,21.5 C 288.5,20.8333 288.833,20.5 289.5,20.5C 295.122,23.4719 300.455,26.8053 305.5,30.5C 301.64,31.6809 297.973,33.3476 294.5,35.5C 292.677,30.6796 290.677,26.0129 288.5,21.5 Z"/></g>
<g><path style="opacity:1" fill="#6d808e" d="M 287.5,19.5 C 288.492,19.3284 289.158,19.6618 289.5,20.5C 288.833,20.5 288.5,20.8333 288.5,21.5C 286.127,26.777 285.127,32.4437 285.5,38.5C 285.167,38.5 284.833,38.5 284.5,38.5C 281.657,37.1275 278.657,36.1275 275.5,35.5C 274.833,35.5 274.5,35.1667 274.5,34.5C 276.371,34.1412 277.871,33.1412 279,31.5C 281.664,27.3431 284.497,23.3431 287.5,19.5 Z"/></g>
<g><path style="opacity:1" fill="#5786a8" d="M 288.5,21.5 C 290.677,26.0129 292.677,30.6796 294.5,35.5C 295.455,37.7457 296.122,40.079 296.5,42.5C 292.721,41.4422 289.054,40.1089 285.5,38.5C 285.127,32.4437 286.127,26.777 288.5,21.5 Z"/></g>
<g><path style="opacity:1" fill="#6ba4d6" d="M 249.5,26.5 C 255.834,28.5009 262.167,30.5009 268.5,32.5C 269.167,32.8333 269.833,33.1667 270.5,33.5C 271.5,35.1667 272.833,36.5 274.5,37.5C 274.5,37.8333 274.5,38.1667 274.5,38.5C 269.814,43.8581 265.481,49.5247 261.5,55.5C 257.833,58.1667 254.167,60.8333 250.5,63.5C 244.702,60.7674 239.035,57.7674 233.5,54.5C 233.755,51.9837 234.589,49.6504 236,47.5C 240.026,40.0955 244.526,33.0955 249.5,26.5 Z"/></g>
<g><path style="opacity:1" fill="#243b43" d="M 305.5,30.5 C 308.805,34.1408 312.138,37.8075 315.5,41.5C 314.957,41.56 314.624,41.8933 314.5,42.5C 315.559,44.5336 316.559,46.5336 317.5,48.5C 317.44,49.0431 317.107,49.3764 316.5,49.5C 310.215,46.9614 303.882,44.6281 297.5,42.5C 297.167,42.5 296.833,42.5 296.5,42.5C 296.122,40.079 295.455,37.7457 294.5,35.5C 297.973,33.3476 301.64,31.6809 305.5,30.5 Z"/></g>
<g><path style="opacity:1" fill="#6aa560" d="M 270.5,33.5 C 271.833,33.8333 273.167,34.1667 274.5,34.5C 274.5,35.1667 274.833,35.5 275.5,35.5C 275.167,36.1667 274.833,36.8333 274.5,37.5C 272.833,36.5 271.5,35.1667 270.5,33.5 Z"/></g>
<g><path style="opacity:1" fill="#569a98" d="M 275.5,35.5 C 278.657,36.1275 281.657,37.1275 284.5,38.5C 284.545,41.0772 283.545,43.0772 281.5,44.5C 279.167,42.5 276.833,40.5 274.5,38.5C 274.5,38.1667 274.5,37.8333 274.5,37.5C 274.833,36.8333 275.167,36.1667 275.5,35.5 Z"/></g>
<g><path style="opacity:1" fill="#697985" d="M 199.5,37.5 C 201.411,38.075 203.078,39.075 204.5,40.5C 211.5,48.5 218.5,56.5 225.5,64.5C 221.912,70.6754 218.578,77.0087 215.5,83.5C 214.5,83.8333 213.833,84.5 213.5,85.5C 210.366,87.2927 207.033,88.626 203.5,89.5C 195.134,81.1321 186.467,73.1321 177.5,65.5C 184.833,56.1667 192.167,46.8333 199.5,37.5 Z"/></g>
<g><path style="opacity:1" fill="#4f87b0" d="M 274.5,38.5 C 276.833,40.5 279.167,42.5 281.5,44.5C 281.5,44.8333 281.5,45.1667 281.5,45.5C 274.615,48.3822 267.948,51.7155 261.5,55.5C 265.481,49.5247 269.814,43.8581 274.5,38.5 Z"/></g>
<g><path style="opacity:1" fill="#6da4d5" d="M 231.5,54.5 C 229.863,57.8165 228.196,61.1499 226.5,64.5C 226.167,64.5 225.833,64.5 225.5,64.5C 218.5,56.5 211.5,48.5 204.5,40.5C 204.56,39.9569 204.893,39.6236 205.5,39.5C 214.556,44.0216 223.223,49.0216 231.5,54.5 Z"/></g>
<g><path style="opacity:1" fill="#62a151" d="M 284.5,38.5 C 284.833,38.5 285.167,38.5 285.5,38.5C 289.054,40.1089 292.721,41.4422 296.5,42.5C 296.833,42.5 297.167,42.5 297.5,42.5C 300.298,51.5621 303.298,60.5621 306.5,69.5C 298.5,61.8333 290.5,54.1667 282.5,46.5C 282.5,45.8333 282.167,45.5 281.5,45.5C 281.5,45.1667 281.5,44.8333 281.5,44.5C 283.545,43.0772 284.545,41.0772 284.5,38.5 Z"/></g>
<g><path style="opacity:1" fill="#346059" d="M 297.5,42.5 C 303.882,44.6281 310.215,46.9614 316.5,49.5C 317.107,49.3764 317.44,49.0431 317.5,48.5C 318.683,49.5045 320.016,50.3378 321.5,51C 321.167,51.3333 320.833,51.6667 320.5,52C 324.399,57.6559 328.399,63.1559 332.5,68.5C 333.674,69.5137 334.34,70.847 334.5,72.5C 334.53,73.4972 334.03,74.1639 333,74.5C 327.791,75.8624 322.958,77.8624 318.5,80.5C 316.035,80.767 313.701,81.4336 311.5,82.5C 310.401,77.8558 308.734,73.5225 306.5,69.5C 303.298,60.5621 300.298,51.5621 297.5,42.5 Z"/></g>
<g><path style="opacity:1" fill="#3866a5" d="M 281.5,45.5 C 282.167,45.5 282.5,45.8333 282.5,46.5C 281.167,56.1667 279.833,65.8333 278.5,75.5C 277.849,76.0906 277.182,76.7573 276.5,77.5C 268.473,73.1542 260.473,68.8209 252.5,64.5C 252.158,63.6618 251.492,63.3284 250.5,63.5C 254.167,60.8333 257.833,58.1667 261.5,55.5C 267.948,51.7155 274.615,48.3822 281.5,45.5 Z"/></g>
<g><path style="opacity:1" fill="#519897" d="M 282.5,46.5 C 290.5,54.1667 298.5,61.8333 306.5,69.5C 308.734,73.5225 310.401,77.8558 311.5,82.5C 306.838,84.1652 302.172,85.8318 297.5,87.5C 296.5,87.5 295.5,87.5 294.5,87.5C 289.22,84.0268 283.553,81.3602 277.5,79.5C 278.234,78.2921 278.567,76.9587 278.5,75.5C 279.833,65.8333 281.167,56.1667 282.5,46.5 Z"/></g>
<g><path style="opacity:1" fill="#1d2728" d="M 315.5,41.5 C 318.462,44.9641 321.629,48.2975 325,51.5C 327.603,57.1494 330.103,62.8161 332.5,68.5C 328.399,63.1559 324.399,57.6559 320.5,52C 320.833,51.6667 321.167,51.3333 321.5,51C 320.016,50.3378 318.683,49.5045 317.5,48.5C 316.559,46.5336 315.559,44.5336 314.5,42.5C 314.624,41.8933 314.957,41.56 315.5,41.5 Z"/></g>
<g><path style="opacity:1" fill="#4d86ad" d="M 231.5,54.5 C 232.167,54.5 232.833,54.5 233.5,54.5C 239.035,57.7674 244.702,60.7674 250.5,63.5C 251.492,63.3284 252.158,63.6618 252.5,64.5C 248.984,70.1997 244.984,75.533 240.5,80.5C 238.194,77.5271 235.527,74.8605 232.5,72.5C 230.115,70.1162 228.115,67.4495 226.5,64.5C 228.196,61.1499 229.863,57.8165 231.5,54.5 Z"/></g>
<g><path style="opacity:1" fill="#be5336" d="M 225.5,64.5 C 225.833,64.5 226.167,64.5 226.5,64.5C 228.115,67.4495 230.115,70.1162 232.5,72.5C 227.04,76.4022 221.373,80.0689 215.5,83.5C 218.578,77.0087 221.912,70.6754 225.5,64.5 Z"/></g>
<g><path style="opacity:1" fill="#d6873e" d="M 177.5,65.5 C 186.467,73.1321 195.134,81.1321 203.5,89.5C 203.027,90.9063 202.027,91.573 200.5,91.5C 192.67,90.5482 184.836,89.5482 177,88.5C 175.615,88.5143 174.449,88.8476 173.5,89.5C 172.876,89.0831 172.543,88.4164 172.5,87.5C 174.383,80.1988 176.049,72.8654 177.5,65.5 Z"/></g>
<g><path style="opacity:1" fill="#677884" d="M 252.5,64.5 C 260.473,68.8209 268.473,73.1542 276.5,77.5C 277.182,76.7573 277.849,76.0906 278.5,75.5C 278.567,76.9587 278.234,78.2921 277.5,79.5C 276.941,83.8526 276.275,88.186 275.5,92.5C 274.523,95.2869 274.19,98.2869 274.5,101.5C 269.432,100.566 264.432,100.566 259.5,101.5C 259.167,101.5 258.833,101.5 258.5,101.5C 257.488,100.128 256.488,98.795 255.5,97.5C 250.472,92.1405 245.472,86.8071 240.5,81.5C 240.5,81.1667 240.5,80.8333 240.5,80.5C 244.984,75.533 248.984,70.1997 252.5,64.5 Z"/></g>
<g><path style="opacity:1" fill="#d6873e" d="M 232.5,72.5 C 235.527,74.8605 238.194,77.5271 240.5,80.5C 240.5,80.8333 240.5,81.1667 240.5,81.5C 236.779,85.8883 233.445,90.5549 230.5,95.5C 230.167,95.5 229.833,95.5 229.5,95.5C 222.803,95.1146 216.136,94.448 209.5,93.5C 210.399,90.605 211.733,87.9384 213.5,85.5C 213.833,84.5 214.5,83.8333 215.5,83.5C 221.373,80.0689 227.04,76.4022 232.5,72.5 Z"/></g>
<g><path style="opacity:1" fill="#4a7c47" d="M 334.5,72.5 C 335.833,77.5 335.833,82.5 334.5,87.5C 332.243,87.9617 330.243,88.9617 328.5,90.5C 326.464,89.115 324.464,87.7817 322.5,86.5C 321.585,84.2459 320.252,82.2459 318.5,80.5C 322.958,77.8624 327.791,75.8624 333,74.5C 334.03,74.1639 334.53,73.4972 334.5,72.5 Z"/></g>
<g><path style="opacity:1" fill="#71ae4f" d="M 277.5,79.5 C 283.553,81.3602 289.22,84.0268 294.5,87.5C 288.541,90.4384 282.374,93.105 276,95.5C 275.517,94.552 275.351,93.552 275.5,92.5C 276.275,88.186 276.941,83.8526 277.5,79.5 Z"/></g>
<g><path style="opacity:1" fill="#3d1c2f" d="M 240.5,81.5 C 245.472,86.8071 250.472,92.1405 255.5,97.5C 254.726,98.1471 253.726,98.4805 252.5,98.5C 245.157,97.4986 237.824,96.4986 230.5,95.5C 233.445,90.5549 236.779,85.8883 240.5,81.5 Z"/></g>
<g><path style="opacity:1" fill="#65a34f" d="M 318.5,80.5 C 320.252,82.2459 321.585,84.2459 322.5,86.5C 318.833,89.8333 315.167,93.1667 311.5,96.5C 305.701,94.9533 301.034,91.9533 297.5,87.5C 302.172,85.8318 306.838,84.1652 311.5,82.5C 313.701,81.4336 316.035,80.767 318.5,80.5 Z"/></g>
<g><path style="opacity:1" fill="#2c4349" d="M 322.5,86.5 C 324.464,87.7817 326.464,89.115 328.5,90.5C 330.243,88.9617 332.243,87.9617 334.5,87.5C 333.565,89.8614 332.232,92.0281 330.5,94C 326.278,95.9409 322.278,98.1076 318.5,100.5C 313.923,99.9353 309.923,101.435 306.5,105C 308.167,105.333 309.833,105.667 311.5,106C 309.231,106.758 307.064,106.591 305,105.5C 303.67,106.582 302.17,107.249 300.5,107.5C 301.833,106.5 301.833,105.5 300.5,104.5C 305.227,103.459 308.894,100.793 311.5,96.5C 315.167,93.1667 318.833,89.8333 322.5,86.5 Z"/></g>
<g><path style="opacity:1" fill="#ae4249" d="M 213.5,85.5 C 211.733,87.9384 210.399,90.605 209.5,93.5C 209.5,93.8333 209.5,94.1667 209.5,94.5C 206.838,92.7319 203.838,92.0653 200.5,92.5C 200.5,92.1667 200.5,91.8333 200.5,91.5C 202.027,91.573 203.027,90.9063 203.5,89.5C 207.033,88.626 210.366,87.2927 213.5,85.5 Z"/></g>
<g><path style="opacity:1" fill="#511c21" d="M 200.5,91.5 C 200.5,91.8333 200.5,92.1667 200.5,92.5C 193.624,95.7641 187.29,99.7641 181.5,104.5C 178.09,99.9709 175.423,94.9709 173.5,89.5C 174.449,88.8476 175.615,88.5143 177,88.5C 184.836,89.5482 192.67,90.5482 200.5,91.5 Z"/></g>
<g><path style="opacity:1" fill="#487a40" d="M 294.5,87.5 C 295.5,87.5 296.5,87.5 297.5,87.5C 301.034,91.9533 305.701,94.9533 311.5,96.5C 308.894,100.793 305.227,103.459 300.5,104.5C 291.839,103.502 283.172,102.502 274.5,101.5C 274.19,98.2869 274.523,95.2869 275.5,92.5C 275.351,93.552 275.517,94.552 276,95.5C 282.374,93.105 288.541,90.4384 294.5,87.5 Z"/></g>
<g><path style="opacity:1" fill="#6b7a86" d="M 200.5,92.5 C 203.838,92.0653 206.838,92.7319 209.5,94.5C 209.5,94.8333 209.5,95.1667 209.5,95.5C 205.134,100.526 201.468,106.192 198.5,112.5C 198.624,113.107 198.957,113.44 199.5,113.5C 198.749,114.573 197.749,114.74 196.5,114C 191.097,111.308 186.097,108.142 181.5,104.5C 187.29,99.7641 193.624,95.7641 200.5,92.5 Z"/></g>
<g><path style="opacity:1" fill="#be5134" d="M 209.5,93.5 C 216.136,94.448 222.803,95.1146 229.5,95.5C 227.167,98.8333 224.833,102.167 222.5,105.5C 221.833,105.5 221.167,105.5 220.5,105.5C 216.833,102.167 213.167,98.8333 209.5,95.5C 209.5,95.1667 209.5,94.8333 209.5,94.5C 209.5,94.1667 209.5,93.8333 209.5,93.5 Z"/></g>
<g><path style="opacity:1" fill="#51565e" d="M 209.5,95.5 C 213.167,98.8333 216.833,102.167 220.5,105.5C 220.211,108.779 218.544,110.779 215.5,111.5C 210.149,112.037 204.816,112.704 199.5,113.5C 198.957,113.44 198.624,113.107 198.5,112.5C 201.468,106.192 205.134,100.526 209.5,95.5 Z"/></g>
<g><path style="opacity:1" fill="#895992" d="M 229.5,95.5 C 229.833,95.5 230.167,95.5 230.5,95.5C 237.824,96.4986 245.157,97.4986 252.5,98.5C 253.726,98.4805 254.726,98.1471 255.5,97.5C 256.488,98.795 257.488,100.128 258.5,101.5C 248.211,104.985 238.211,108.985 228.5,113.5C 227.833,113.5 227.167,113.5 226.5,113.5C 226.611,112.883 226.944,112.383 227.5,112C 225.21,110.223 223.543,108.056 222.5,105.5C 224.833,102.167 227.167,98.8333 229.5,95.5 Z"/></g>
<g><path style="opacity:1" fill="#472760" d="M 258.5,101.5 C 258.833,101.5 259.167,101.5 259.5,101.5C 263.164,105.332 266.664,109.332 270,113.5C 270.518,117.551 270.184,121.551 269,125.5C 267.698,126.085 266.531,126.751 265.5,127.5C 260.436,127.795 255.436,128.462 250.5,129.5C 248.801,129.66 247.134,129.494 245.5,129C 240.262,123.258 234.596,118.091 228.5,113.5C 238.211,108.985 248.211,104.985 258.5,101.5 Z"/></g>
<g><path style="opacity:1" fill="#87578f" d="M 274.5,101.5 C 283.172,102.502 291.839,103.502 300.5,104.5C 301.833,105.5 301.833,106.5 300.5,107.5C 299.694,108.728 298.694,109.728 297.5,110.5C 290.494,114 283.827,118 277.5,122.5C 274.46,123.68 271.794,125.347 269.5,127.5C 268.391,127.557 267.391,127.89 266.5,128.5C 266.5,127.833 266.167,127.5 265.5,127.5C 266.531,126.751 267.698,126.085 269,125.5C 270.184,121.551 270.518,117.551 270,113.5C 266.664,109.332 263.164,105.332 259.5,101.5C 264.432,100.566 269.432,100.566 274.5,101.5 Z"/></g>
<g><path style="opacity:1" fill="#1c3028" d="M 318.5,100.5 C 320.461,102.963 322.628,105.297 325,107.5C 325.738,109.881 325.238,111.881 323.5,113.5C 323.19,112.262 322.69,112.262 322,113.5C 317.138,119.932 312.304,126.265 307.5,132.5C 302.705,133.765 298.038,135.432 293.5,137.5C 289.452,134.119 285.785,130.452 282.5,126.5C 287.5,121.167 292.5,115.833 297.5,110.5C 298.694,109.728 299.694,108.728 300.5,107.5C 302.17,107.249 303.67,106.582 305,105.5C 307.064,106.591 309.231,106.758 311.5,106C 309.833,105.667 308.167,105.333 306.5,105C 309.923,101.435 313.923,99.9353 318.5,100.5 Z"/></g>
<g><path style="opacity:1" fill="#787d8c" d="M 220.5,105.5 C 221.167,105.5 221.833,105.5 222.5,105.5C 223.543,108.056 225.21,110.223 227.5,112C 226.944,112.383 226.611,112.883 226.5,113.5C 225.167,113.5 224.5,114.167 224.5,115.5C 222.15,114.139 219.816,112.806 217.5,111.5C 216.833,111.5 216.167,111.5 215.5,111.5C 218.544,110.779 220.211,108.779 220.5,105.5 Z"/></g>
<g><path style="opacity:1" fill="#6f436a" d="M 226.5,113.5 C 227.167,113.5 227.833,113.5 228.5,113.5C 234.596,118.091 240.262,123.258 245.5,129C 247.134,129.494 248.801,129.66 250.5,129.5C 249.737,130.268 248.737,130.768 247.5,131C 249.996,132.331 251.996,134.164 253.5,136.5C 250.941,136.802 248.607,136.468 246.5,135.5C 247.873,135.657 249.207,135.49 250.5,135C 247.458,132.125 243.791,130.792 239.5,131C 240.833,130.667 242.167,130.333 243.5,130C 237.098,125.146 230.765,120.313 224.5,115.5C 224.5,114.167 225.167,113.5 226.5,113.5 Z"/></g>
<g><path style="opacity:1" fill="#2e1d2a" d="M 323.5,113.5 C 321.772,118.515 319.939,123.515 318,128.5C 313.047,132.054 308.214,135.721 303.5,139.5C 303.062,139.565 302.728,139.399 302.5,139C 303.999,136.672 305.666,134.505 307.5,132.5C 312.304,126.265 317.138,119.932 322,113.5C 322.69,112.262 323.19,112.262 323.5,113.5 Z"/></g>
<g><path style="opacity:1" fill="#412035" d="M 217.5,111.5 C 219.816,112.806 222.15,114.139 224.5,115.5C 230.765,120.313 237.098,125.146 243.5,130C 242.167,130.333 240.833,130.667 239.5,131C 243.791,130.792 247.458,132.125 250.5,135C 249.207,135.49 247.873,135.657 246.5,135.5C 239.783,135.056 233.117,134.223 226.5,133C 222.5,127.667 218.5,122.333 214.5,117C 215.639,115.22 216.639,113.386 217.5,111.5 Z"/></g>
<g><path style="opacity:1" fill="#2d4349" d="M 297.5,110.5 C 292.5,115.833 287.5,121.167 282.5,126.5C 281.833,126.5 281.167,126.5 280.5,126.5C 280.262,124.596 279.262,123.262 277.5,122.5C 283.827,118 290.494,114 297.5,110.5 Z"/></g>
<g><path style="opacity:1" fill="#162021" d="M 277.5,122.5 C 279.262,123.262 280.262,124.596 280.5,126.5C 278.36,129.061 276.027,131.395 273.5,133.5C 271.808,131.795 270.475,129.795 269.5,127.5C 271.794,125.347 274.46,123.68 277.5,122.5 Z"/></g>
<g><path style="opacity:1" fill="#614c36" d="M 280.5,126.5 C 281.167,126.5 281.833,126.5 282.5,126.5C 285.785,130.452 289.452,134.119 293.5,137.5C 298.038,135.432 302.705,133.765 307.5,132.5C 305.666,134.505 303.999,136.672 302.5,139C 302.728,139.399 303.062,139.565 303.5,139.5C 302.426,140.885 301.093,142.051 299.5,143C 295.973,143.808 292.64,143.641 289.5,142.5C 291.331,141.948 292.997,141.948 294.5,142.5C 295.594,141.132 295.26,139.965 293.5,139C 290.54,139.32 287.54,139.32 284.5,139C 281.516,137.729 278.516,136.562 275.5,135.5C 274.5,135.167 273.833,134.5 273.5,133.5C 276.027,131.395 278.36,129.061 280.5,126.5 Z"/></g>
<g><path style="opacity:1" fill="#432337" d="M 265.5,127.5 C 266.167,127.5 266.5,127.833 266.5,128.5C 262.334,131.417 258.001,134.084 253.5,136.5C 251.996,134.164 249.996,132.331 247.5,131C 248.737,130.768 249.737,130.268 250.5,129.5C 255.436,128.462 260.436,127.795 265.5,127.5 Z"/></g>
<g><path style="opacity:1" fill="#372e35" d="M 275.5,135.5 C 278.516,136.562 281.516,137.729 284.5,139C 287.54,139.32 290.54,139.32 293.5,139C 295.26,139.965 295.594,141.132 294.5,142.5C 292.997,141.948 291.331,141.948 289.5,142.5C 283.512,142.853 278.845,140.519 275.5,135.5 Z"/></g>
<g><path style="opacity:1" fill="#4d87af" d="M 54.5,200.5 C 57.6248,201.479 60.9581,201.813 64.5,201.5C 64.5,198.5 64.5,195.5 64.5,192.5C 66.1667,192.5 67.8333,192.5 69.5,192.5C 69.5,200.5 69.5,208.5 69.5,216.5C 67.8333,216.5 66.1667,216.5 64.5,216.5C 64.8128,212.958 64.4794,209.625 63.5,206.5C 60.5,206.5 57.5,206.5 54.5,206.5C 54.5,210.167 54.5,213.833 54.5,217.5C 52.5,217.5 50.5,217.5 48.5,217.5C 48.5,210.5 48.5,203.5 48.5,196.5C 46.1667,196.5 43.8333,196.5 41.5,196.5C 41.5,203.5 41.5,210.5 41.5,217.5C 39.5,217.5 37.5,217.5 35.5,217.5C 35.5,210.5 35.5,203.5 35.5,196.5C 33.1667,196.5 30.8333,196.5 28.5,196.5C 28.5,194.833 28.5,193.167 28.5,191.5C 37.1667,191.5 45.8333,191.5 54.5,191.5C 54.5,194.5 54.5,197.5 54.5,200.5 Z"/></g>
<g><path style="opacity:1" fill="#83abc7" d="M 63.5,206.5 C 64.4794,209.625 64.8128,212.958 64.5,216.5C 66.1667,216.5 67.8333,216.5 69.5,216.5C 69.5,208.5 69.5,200.5 69.5,192.5C 67.8333,192.5 66.1667,192.5 64.5,192.5C 64.5,195.5 64.5,198.5 64.5,201.5C 60.9581,201.813 57.6248,201.479 54.5,200.5C 57.5,200.5 60.5,200.5 63.5,200.5C 63.5,197.5 63.5,194.5 63.5,191.5C 65.8333,191.5 68.1667,191.5 70.5,191.5C 70.5,200.167 70.5,208.833 70.5,217.5C 68.1667,217.5 65.8333,217.5 63.5,217.5C 63.5,213.833 63.5,210.167 63.5,206.5 Z"/></g>
<g><path style="opacity:1" fill="#7ca5c1" d="M 96.5,192.5 C 94.5,192.5 92.5,192.5 90.5,192.5C 84.8333,192.5 79.1667,192.5 73.5,192.5C 73.5,200.5 73.5,208.5 73.5,216.5C 79.8333,216.5 86.1667,216.5 92.5,216.5C 86.021,217.491 79.3543,217.824 72.5,217.5C 72.5,208.833 72.5,200.167 72.5,191.5C 80.6841,191.174 88.6841,191.508 96.5,192.5 Z"/></g>
<g><path style="opacity:1" fill="#4a85ad" d="M 90.5,192.5 C 90.8333,193.833 91.1667,195.167 91.5,196.5C 87.1667,196.5 82.8333,196.5 78.5,196.5C 78.2155,198.415 78.5489,200.081 79.5,201.5C 83.1667,201.5 86.8333,201.5 90.5,201.5C 90.5,203.167 90.5,204.833 90.5,206.5C 86.8333,206.5 83.1667,206.5 79.5,206.5C 79.5,208.5 79.5,210.5 79.5,212.5C 83.8333,212.5 88.1667,212.5 92.5,212.5C 92.5,213.833 92.5,215.167 92.5,216.5C 86.1667,216.5 79.8333,216.5 73.5,216.5C 73.5,208.5 73.5,200.5 73.5,192.5C 79.1667,192.5 84.8333,192.5 90.5,192.5 Z"/></g>
<g><path style="opacity:1" fill="#2c4949" d="M 90.5,192.5 C 92.5,192.5 94.5,192.5 96.5,192.5C 98.5968,197.96 100.43,203.627 102,209.5C 103.57,203.627 105.403,197.96 107.5,192.5C 109.604,192.201 111.604,192.534 113.5,193.5C 113.137,194.183 112.804,194.85 112.5,195.5C 109.767,202.7 107.433,210.034 105.5,217.5C 103.076,217.808 100.743,217.474 98.5,216.5C 96.3339,209.991 94.0006,203.658 91.5,197.5C 91.5,197.167 91.5,196.833 91.5,196.5C 91.1667,195.167 90.8333,193.833 90.5,192.5 Z"/></g>
<g><path style="opacity:1" fill="#264444" d="M 120.5,192.5 C 120.5,200.833 120.5,209.167 120.5,217.5C 118.5,217.5 116.5,217.5 114.5,217.5C 114.5,209.167 114.5,200.833 114.5,192.5C 116.5,192.5 118.5,192.5 120.5,192.5 Z"/></g>
<g><path style="opacity:1" fill="#758888" d="M 136.5,192.5 C 132.167,192.5 127.833,192.5 123.5,192.5C 123.5,200.5 123.5,208.5 123.5,216.5C 125.167,216.5 126.833,216.5 128.5,216.5C 128.194,213.615 128.527,210.948 129.5,208.5C 129.5,211.5 129.5,214.5 129.5,217.5C 127.167,217.5 124.833,217.5 122.5,217.5C 122.5,208.833 122.5,200.167 122.5,191.5C 127.363,191.181 132.03,191.514 136.5,192.5 Z"/></g>
<g><path style="opacity:1" fill="#294646" d="M 136.5,192.5 C 138.898,192.259 140.898,192.926 142.5,194.5C 142.833,195.5 143.5,196.167 144.5,196.5C 145.609,201.489 143.942,205.156 139.5,207.5C 141.375,210.751 143.375,213.918 145.5,217C 143.167,217.667 140.833,217.667 138.5,217C 136.583,214.502 134.916,211.835 133.5,209C 132.207,208.51 130.873,208.343 129.5,208.5C 128.527,210.948 128.194,213.615 128.5,216.5C 126.833,216.5 125.167,216.5 123.5,216.5C 123.5,208.5 123.5,200.5 123.5,192.5C 127.833,192.5 132.167,192.5 136.5,192.5 Z"/></g>
<g><path style="opacity:1" fill="#274545" d="M 170.5,209.5 C 170.685,211.89 172.018,212.89 174.5,212.5C 176.982,212.89 178.315,211.89 178.5,209.5C 179.489,204.025 179.822,198.358 179.5,192.5C 181.167,192.5 182.833,192.5 184.5,192.5C 184.5,198.833 184.5,205.167 184.5,211.5C 183.625,214.541 181.625,216.375 178.5,217C 172.11,218.942 167.277,217.109 164,211.5C 163.501,206.845 163.334,202.179 163.5,197.5C 161.393,196.532 159.059,196.198 156.5,196.5C 156.5,203.5 156.5,210.5 156.5,217.5C 154.5,217.5 152.5,217.5 150.5,217.5C 150.5,210.5 150.5,203.5 150.5,196.5C 148.5,196.5 146.5,196.5 144.5,196.5C 144.5,195.167 144.5,193.833 144.5,192.5C 152.833,192.5 161.167,192.5 169.5,192.5C 169.178,198.358 169.511,204.025 170.5,209.5 Z"/></g>
<g><path style="opacity:1" fill="#91a0a0" d="M 170.5,209.5 C 169.511,204.025 169.178,198.358 169.5,192.5C 161.167,192.5 152.833,192.5 144.5,192.5C 144.5,193.833 144.5,195.167 144.5,196.5C 143.5,196.167 142.833,195.5 142.5,194.5C 143.404,193.791 143.737,192.791 143.5,191.5C 152.5,191.5 161.5,191.5 170.5,191.5C 170.5,197.5 170.5,203.5 170.5,209.5 Z"/></g>
<g><path style="opacity:1" fill="#748788" d="M 184.5,211.5 C 184.5,205.167 184.5,198.833 184.5,192.5C 182.833,192.5 181.167,192.5 179.5,192.5C 179.822,198.358 179.489,204.025 178.5,209.5C 178.5,203.5 178.5,197.5 178.5,191.5C 180.833,191.5 183.167,191.5 185.5,191.5C 185.824,198.354 185.491,205.021 184.5,211.5 Z"/></g>
<g><path style="opacity:1" fill="#2e4a4a" d="M 209.5,215.5 C 207.735,216.461 205.735,216.795 203.5,216.5C 203.5,215.5 203.5,214.5 203.5,213.5C 199.833,213.5 196.167,213.5 192.5,213.5C 192.5,214.833 192.5,216.167 192.5,217.5C 190.167,217.5 187.833,217.5 185.5,217.5C 187.898,208.973 190.898,200.64 194.5,192.5C 196.743,191.526 199.076,191.192 201.5,191.5C 204.364,199.426 207.031,207.426 209.5,215.5 Z"/></g>
<g><path style="opacity:1" fill="#64797a" d="M 217.5,211.5 C 216.51,205.355 216.177,199.022 216.5,192.5C 214.833,192.5 213.167,192.5 211.5,192.5C 211.5,200.5 211.5,208.5 211.5,216.5C 216.5,216.5 221.5,216.5 226.5,216.5C 226.5,216.833 226.5,217.167 226.5,217.5C 218.648,217.825 210.982,217.492 203.5,216.5C 205.735,216.795 207.735,216.461 209.5,215.5C 210.492,207.684 210.826,199.684 210.5,191.5C 212.833,191.5 215.167,191.5 217.5,191.5C 217.5,198.167 217.5,204.833 217.5,211.5 Z"/></g>
<g><path style="opacity:1" fill="#244242" d="M 217.5,211.5 C 220.287,212.477 223.287,212.81 226.5,212.5C 226.5,213.833 226.5,215.167 226.5,216.5C 221.5,216.5 216.5,216.5 211.5,216.5C 211.5,208.5 211.5,200.5 211.5,192.5C 213.167,192.5 214.833,192.5 216.5,192.5C 216.177,199.022 216.51,205.355 217.5,211.5 Z"/></g>
<g><path style="opacity:1" fill="#538ab0" d="M 226.5,217.5 C 226.5,217.167 226.5,216.833 226.5,216.5C 226.5,215.167 226.5,213.833 226.5,212.5C 223.287,212.81 220.287,212.477 217.5,211.5C 220.5,211.5 223.5,211.5 226.5,211.5C 226.5,204.833 226.5,198.167 226.5,191.5C 232.621,191.09 238.621,191.59 244.5,193C 248.5,196.667 248.5,200.333 244.5,204C 250.176,209.288 249.509,213.622 242.5,217C 237.177,217.499 231.844,217.666 226.5,217.5 Z"/></g>
<g><path style="opacity:1" fill="#89afc9" d="M 263.5,192.5 C 259.167,192.5 254.833,192.5 250.5,192.5C 250.5,200.5 250.5,208.5 250.5,216.5C 252.167,216.5 253.833,216.5 255.5,216.5C 255.194,213.615 255.527,210.948 256.5,208.5C 256.5,211.5 256.5,214.5 256.5,217.5C 254.167,217.5 251.833,217.5 249.5,217.5C 249.5,208.833 249.5,200.167 249.5,191.5C 254.363,191.181 259.03,191.514 263.5,192.5 Z"/></g>
<g><path style="opacity:1" fill="#5189b0" d="M 294.5,213.5 C 295.234,214.708 295.567,216.041 295.5,217.5C 291.212,216.821 287.212,215.488 283.5,213.5C 281.833,213.833 280.167,214.167 278.5,214.5C 278.167,215.167 277.833,215.833 277.5,216.5C 273.167,217.833 268.833,217.833 264.5,216.5C 263.333,214.167 262.167,211.833 261,209.5C 259.644,208.62 258.144,208.286 256.5,208.5C 255.527,210.948 255.194,213.615 255.5,216.5C 253.833,216.5 252.167,216.5 250.5,216.5C 250.5,208.5 250.5,200.5 250.5,192.5C 254.833,192.5 259.167,192.5 263.5,192.5C 270.409,192.953 272.909,196.62 271,203.5C 269.649,205.019 268.149,206.352 266.5,207.5C 268,209.833 269.5,212.167 271,214.5C 274.522,207.101 277.356,199.434 279.5,191.5C 282.119,191.232 284.619,191.565 287,192.5C 289.606,199.486 292.106,206.486 294.5,213.5 Z"/></g>
<g><path style="opacity:1" fill="#c5d7e5" d="M 302.5,192.5 C 300.5,192.5 298.5,192.5 296.5,192.5C 296.5,200.833 296.5,209.167 296.5,217.5C 296.167,217.5 295.833,217.5 295.5,217.5C 295.567,216.041 295.234,214.708 294.5,213.5C 295.492,206.352 295.825,199.019 295.5,191.5C 298.059,191.198 300.393,191.532 302.5,192.5 Z"/></g>
<g><path style="opacity:1" fill="#4985ad" d="M 302.5,192.5 C 302.5,200.833 302.5,209.167 302.5,217.5C 300.5,217.5 298.5,217.5 296.5,217.5C 296.5,209.167 296.5,200.833 296.5,192.5C 298.5,192.5 300.5,192.5 302.5,192.5 Z"/></g>
<g><path style="opacity:1" fill="#a1c0d5" d="M 311.5,192.5 C 309.5,192.5 307.5,192.5 305.5,192.5C 305.5,200.833 305.5,209.167 305.5,217.5C 304.507,209.016 304.174,200.349 304.5,191.5C 307.059,191.198 309.393,191.532 311.5,192.5 Z"/></g>
<g><path style="opacity:1" fill="#4e87af" d="M 305.5,217.5 C 305.5,209.167 305.5,200.833 305.5,192.5C 307.5,192.5 309.5,192.5 311.5,192.5C 314.47,196.995 317.303,201.662 320,206.5C 320.499,201.511 320.666,196.511 320.5,191.5C 322.5,191.5 324.5,191.5 326.5,191.5C 326.5,200.167 326.5,208.833 326.5,217.5C 324.076,217.808 321.743,217.474 319.5,216.5C 316.667,211.5 313.833,206.5 311,201.5C 310.501,206.823 310.334,212.156 310.5,217.5C 308.833,217.5 307.167,217.5 305.5,217.5 Z"/></g>
<g><path style="opacity:1" fill="#a1aeaf" d="M 107.5,192.5 C 111.833,191.167 116.167,191.167 120.5,192.5C 118.5,192.5 116.5,192.5 114.5,192.5C 114.5,200.833 114.5,209.167 114.5,217.5C 113.833,210.167 113.167,202.833 112.5,195.5C 112.804,194.85 113.137,194.183 113.5,193.5C 111.604,192.534 109.604,192.201 107.5,192.5 Z"/></g>
<g><path style="opacity:1" fill="#b2cbdc" d="M 91.5,196.5 C 91.5,196.833 91.5,197.167 91.5,197.5C 87.5,197.5 83.5,197.5 79.5,197.5C 79.5,198.833 79.5,200.167 79.5,201.5C 78.5489,200.081 78.2155,198.415 78.5,196.5C 82.8333,196.5 87.1667,196.5 91.5,196.5 Z"/></g>
<g><path style="opacity:1" fill="#f6f7f7" d="M 129.5,196.5 C 131.857,196.337 134.19,196.503 136.5,197C 139.167,199 139.167,201 136.5,203C 134.19,203.497 131.857,203.663 129.5,203.5C 129.5,201.167 129.5,198.833 129.5,196.5 Z"/></g>
<g><path style="opacity:1" fill="#94a3a3" d="M 163.5,197.5 C 161.5,197.5 159.5,197.5 157.5,197.5C 157.824,204.354 157.491,211.021 156.5,217.5C 156.5,210.5 156.5,203.5 156.5,196.5C 159.059,196.198 161.393,196.532 163.5,197.5 Z"/></g>
<g><path style="opacity:1" fill="#f2f6f9" d="M 232.5,196.5 C 234.857,196.337 237.19,196.503 239.5,197C 241.592,197.953 241.925,199.286 240.5,201C 237.854,201.497 235.187,201.664 232.5,201.5C 232.5,199.833 232.5,198.167 232.5,196.5 Z"/></g>
<g><path style="opacity:1" fill="#f8fafc" d="M 256.5,196.5 C 258.857,196.337 261.19,196.503 263.5,197C 266.326,199.522 265.993,201.522 262.5,203C 260.527,203.495 258.527,203.662 256.5,203.5C 256.5,201.167 256.5,198.833 256.5,196.5 Z"/></g>
<g><path style="opacity:1" fill="#e4e8e8" d="M 197.5,198.5 C 199.41,201.452 200.41,204.786 200.5,208.5C 198.396,208.799 196.396,208.466 194.5,207.5C 195.705,204.55 196.705,201.55 197.5,198.5 Z"/></g>
<g><path style="opacity:1" fill="#edf3f7" d="M 282.5,199.5 C 283.497,199.47 284.164,199.97 284.5,201C 285.09,203.196 285.757,205.362 286.5,207.5C 284.604,208.466 282.604,208.799 280.5,208.5C 281.167,205.5 281.833,202.5 282.5,199.5 Z"/></g>
<g><path style="opacity:1" fill="#f0f5f8" d="M 232.5,206.5 C 235.187,206.336 237.854,206.503 240.5,207C 243.167,208.667 243.167,210.333 240.5,212C 237.854,212.497 235.187,212.664 232.5,212.5C 232.5,210.5 232.5,208.5 232.5,206.5 Z"/></g>
<g><path style="opacity:1" fill="#538bb1" d="M 328.5,211.5 C 330.5,211.5 332.5,211.5 334.5,211.5C 334.5,213.5 334.5,215.5 334.5,217.5C 332.5,217.5 330.5,217.5 328.5,217.5C 328.5,215.5 328.5,213.5 328.5,211.5 Z"/></g>
</svg>
