<svg xmlns="http://www.w3.org/2000/svg" width="362" height="238" style="shape-rendering:geometricPrecision;text-rendering:geometricPrecision;image-rendering:optimizeQuality;fill-rule:evenodd;clip-rule:evenodd"><path style="opacity:1" fill="#fefefe" d="M-.5-.5h362v238H-.5V-.5z"/><path style="opacity:1" fill="#4b86ae" d="M246.5 18.5a18.437 18.437 0 0 1 6 .5 24.259 24.259 0 0 0-3 5.5c-.65.304-1.317.637-2 1a66.526 66.526 0 0 0-10.5-4c-1.03-.336-1.53-1.003-1.5-2a72.045 72.045 0 0 0 11-1z"/><path style="opacity:1" fill="#5d9da2" d="M246.5 18.5c5.333-1.333 10.667-1.333 16 0a13.118 13.118 0 0 0-7 1 119.636 119.636 0 0 1 13 13l-19-6v-2a24.259 24.259 0 0 1 3-5.5 18.437 18.437 0 0 0-6-.5z"/><path style="opacity:1" fill="#4b86ae" d="M262.5 18.5c8.354-.073 16.688.26 25 1a157.467 157.467 0 0 0-8.5 12c-1.129 1.641-2.629 2.641-4.5 3l-4-1-2-1a119.636 119.636 0 0 0-13-13 13.118 13.118 0 0 1 7-1z"/><path style="opacity:1" fill="#95bce2" d="M235.5 19.5c-.03.997.47 1.664 1.5 2a66.526 66.526 0 0 1 10.5 4c.683-.363 1.35-.696 2-1v2a168.458 168.458 0 0 0-13.5 21c-1.411 2.15-2.245 4.484-2.5 7h-2a246.791 246.791 0 0 0-26-15c-.607.124-.94.457-1 1a11.743 11.743 0 0 0-5-3 226.803 226.803 0 0 1 36-18z"/><path style="opacity:1" fill="#3e69a6" d="M288.5 21.5c0-.667.333-1 1-1a129.332 129.332 0 0 1 16 10 46.786 46.786 0 0 0-11 5 173.271 173.271 0 0 0-6-14z"/><path style="opacity:1" fill="#6d808e" d="M287.5 19.5c.992-.172 1.658.162 2 1-.667 0-1 .333-1 1-2.373 5.277-3.373 10.944-3 17h-1a37.368 37.368 0 0 0-9-3c-.667 0-1-.333-1-1 1.871-.359 3.371-1.359 4.5-3a157.467 157.467 0 0 1 8.5-12z"/><path style="opacity:1" fill="#5786a8" d="M288.5 21.5a173.271 173.271 0 0 1 6 14 29.413 29.413 0 0 1 2 7 76.886 76.886 0 0 1-11-4c-.373-6.056.627-11.723 3-17z"/><path style="opacity:1" fill="#6ba4d6" d="m249.5 26.5 19 6 2 1c1 1.667 2.333 3 4 4v1a163.465 163.465 0 0 0-13 17l-11 8a207.15 207.15 0 0 1-17-9c.255-2.516 1.089-4.85 2.5-7a168.458 168.458 0 0 1 13.5-21z"/><path style="opacity:1" fill="#243b43" d="M305.5 30.5c3.305 3.64 6.638 7.307 10 11-.543.06-.876.393-1 1a198.685 198.685 0 0 1 3 6c-.06.543-.393.876-1 1a326.466 326.466 0 0 0-19-7h-1a29.413 29.413 0 0 0-2-7 46.786 46.786 0 0 1 11-5z"/><path style="opacity:1" fill="#6aa560" d="m270.5 33.5 4 1c0 .667.333 1 1 1l-1 2c-1.667-1-3-2.333-4-4z"/><path style="opacity:1" fill="#569a98" d="M275.5 35.5a37.368 37.368 0 0 1 9 3c.045 2.577-.955 4.577-3 6l-7-6v-1l1-2z"/><path style="opacity:1" fill="#697985" d="M199.5 37.5a11.743 11.743 0 0 1 5 3l21 24a256.891 256.891 0 0 0-10 19c-1 .333-1.667 1-2 2a38.809 38.809 0 0 1-10 4 440.256 440.256 0 0 0-26-24l22-28z"/><path style="opacity:1" fill="#4f87b0" d="m274.5 38.5 7 6v1a166.443 166.443 0 0 0-20 10 163.465 163.465 0 0 1 13-17z"/><path style="opacity:1" fill="#6da4d5" d="M231.5 54.5c-1.637 3.316-3.304 6.65-5 10h-1l-21-24c.06-.543.393-.876 1-1a246.791 246.791 0 0 1 26 15z"/><path style="opacity:1" fill="#62a151" d="M284.5 38.5h1a76.886 76.886 0 0 0 11 4h1a639.067 639.067 0 0 0 9 27l-24-23c0-.667-.333-1-1-1v-1c2.045-1.423 3.045-3.423 3-6z"/><path style="opacity:1" fill="#346059" d="M297.5 42.5a326.466 326.466 0 0 1 19 7c.607-.124.94-.457 1-1a16.57 16.57 0 0 0 4 2.5l-1 1a400.192 400.192 0 0 0 12 16.5c1.174 1.014 1.84 2.347 2 4 .03.997-.47 1.664-1.5 2-5.209 1.362-10.042 3.362-14.5 6a21.16 21.16 0 0 0-7 2c-1.099-4.644-2.766-8.978-5-13a639.067 639.067 0 0 1-9-27z"/><path style="opacity:1" fill="#3866a5" d="M281.5 45.5c.667 0 1 .333 1 1l-4 29a31.12 31.12 0 0 0-2 2c-8.027-4.346-16.027-8.68-24-13-.342-.838-1.008-1.172-2-1l11-8a166.443 166.443 0 0 1 20-10z"/><path style="opacity:1" fill="#519897" d="m282.5 46.5 24 23c2.234 4.022 3.901 8.356 5 13l-14 5h-3a66.122 66.122 0 0 0-17-8c.734-1.208 1.067-2.541 1-4l4-29z"/><path style="opacity:1" fill="#1d2728" d="M315.5 41.5a133.118 133.118 0 0 0 9.5 10 568.633 568.633 0 0 1 7.5 17 400.192 400.192 0 0 1-12-16.5l1-1a16.57 16.57 0 0 1-4-2.5 198.685 198.685 0 0 0-3-6c.124-.607.457-.94 1-1z"/><path style="opacity:1" fill="#4d86ad" d="M231.5 54.5h2a207.15 207.15 0 0 0 17 9c.992-.172 1.658.162 2 1a110.056 110.056 0 0 1-12 16 45.428 45.428 0 0 0-8-8 35.068 35.068 0 0 1-6-8c1.696-3.35 3.363-6.684 5-10z"/><path style="opacity:1" fill="#be5336" d="M225.5 64.5h1a35.068 35.068 0 0 0 6 8 220.585 220.585 0 0 1-17 11 256.891 256.891 0 0 1 10-19z"/><path style="opacity:1" fill="#d6873e" d="M177.5 65.5a440.256 440.256 0 0 1 26 24c-.473 1.406-1.473 2.073-3 2-7.83-.952-15.664-1.952-23.5-3-1.385.014-2.551.348-3.5 1-.624-.417-.957-1.084-1-2a389.685 389.685 0 0 0 5-22z"/><path style="opacity:1" fill="#677884" d="M252.5 64.5c7.973 4.32 15.973 8.654 24 13a31.12 31.12 0 0 1 2-2c.067 1.459-.266 2.792-1 4a262.93 262.93 0 0 1-2 13c-.977 2.787-1.31 5.787-1 9-5.068-.934-10.068-.934-15 0h-1a308.607 308.607 0 0 0-3-4c-5.028-5.36-10.028-10.693-15-16v-1a110.056 110.056 0 0 0 12-16z"/><path style="opacity:1" fill="#d6873e" d="M232.5 72.5a45.428 45.428 0 0 1 8 8v1a103.485 103.485 0 0 0-10 14h-1a238.085 238.085 0 0 1-20-2 27.38 27.38 0 0 1 4-8c.333-1 1-1.667 2-2a220.585 220.585 0 0 0 17-11z"/><path style="opacity:1" fill="#4a7c47" d="M334.5 72.5c1.333 5 1.333 10 0 15a12.799 12.799 0 0 0-6 3 376.663 376.663 0 0 0-6-4 17.9 17.9 0 0 0-4-6c4.458-2.638 9.291-4.638 14.5-6 1.03-.336 1.53-1.003 1.5-2z"/><path style="opacity:1" fill="#71ae4f" d="M277.5 79.5a66.122 66.122 0 0 1 17 8 204.217 204.217 0 0 1-18.5 8 4.934 4.934 0 0 1-.5-3 262.93 262.93 0 0 0 2-13z"/><path style="opacity:1" fill="#3d1c2f" d="M240.5 81.5c4.972 5.307 9.972 10.64 15 16-.774.647-1.774.98-3 1l-22-3a103.485 103.485 0 0 1 10-14z"/><path style="opacity:1" fill="#65a34f" d="M318.5 80.5a17.9 17.9 0 0 1 4 6l-11 10c-5.799-1.547-10.466-4.547-14-9l14-5a21.16 21.16 0 0 1 7-2z"/><path style="opacity:1" fill="#2c4349" d="M322.5 86.5a376.663 376.663 0 0 1 6 4 12.799 12.799 0 0 1 6-3c-.935 2.361-2.268 4.528-4 6.5a102.136 102.136 0 0 0-12 6.5c-4.577-.565-8.577.935-12 4.5l5 1c-2.269.758-4.436.591-6.5-.5a9.175 9.175 0 0 1-4.5 2c1.333-1 1.333-2 0-3 4.727-1.041 8.394-3.707 11-8l11-10z"/><path style="opacity:1" fill="#ae4249" d="M213.5 85.5a27.38 27.38 0 0 0-4 8v1c-2.662-1.768-5.662-2.435-9-2v-1c1.527.073 2.527-.594 3-2a38.809 38.809 0 0 0 10-4z"/><path style="opacity:1" fill="#511c21" d="M200.5 91.5v1c-6.876 3.264-13.21 7.264-19 12-3.41-4.53-6.077-9.53-8-15 .949-.652 2.115-.986 3.5-1 7.836 1.048 15.67 2.048 23.5 3z"/><path style="opacity:1" fill="#487a40" d="M294.5 87.5h3c3.534 4.453 8.201 7.453 14 9-2.606 4.293-6.273 6.959-11 8-8.661-.998-17.328-1.998-26-3-.31-3.213.023-6.213 1-9a4.934 4.934 0 0 0 .5 3 204.217 204.217 0 0 0 18.5-8z"/><path style="opacity:1" fill="#6b7a86" d="M200.5 92.5c3.338-.435 6.338.232 9 2v1c-4.366 5.026-8.032 10.692-11 17 .124.607.457.94 1 1-.751 1.073-1.751 1.24-3 .5-5.403-2.692-10.403-5.858-15-9.5 5.79-4.736 12.124-8.736 19-12z"/><path style="opacity:1" fill="#be5134" d="M209.5 93.5a238.085 238.085 0 0 0 20 2l-7 10h-2l-11-10v-2z"/><path style="opacity:1" fill="#51565e" d="m209.5 95.5 11 10c-.289 3.279-1.956 5.279-5 6a331.672 331.672 0 0 0-16 2c-.543-.06-.876-.393-1-1 2.968-6.308 6.634-11.974 11-17z"/><path style="opacity:1" fill="#895992" d="M229.5 95.5h1l22 3c1.226-.02 2.226-.353 3-1a308.607 308.607 0 0 1 3 4 297.399 297.399 0 0 0-30 12h-2c.111-.617.444-1.117 1-1.5-2.29-1.777-3.957-3.944-5-6.5l7-10z"/><path style="opacity:1" fill="#472760" d="M258.5 101.5h1a181.137 181.137 0 0 1 10.5 12c.518 4.051.184 8.051-1 12a19.602 19.602 0 0 0-3.5 2 101.46 101.46 0 0 0-15 2 12.93 12.93 0 0 1-5-.5 123.753 123.753 0 0 0-17-15.5 297.399 297.399 0 0 1 30-12z"/><path style="opacity:1" fill="#87578f" d="M274.5 101.5c8.672 1.002 17.339 2.002 26 3 1.333 1 1.333 2 0 3a10.165 10.165 0 0 1-3 3 150.48 150.48 0 0 0-20 12c-3.04 1.18-5.706 2.847-8 5a5.727 5.727 0 0 0-3 1c0-.667-.333-1-1-1a19.602 19.602 0 0 1 3.5-2c1.184-3.949 1.518-7.949 1-12a181.137 181.137 0 0 0-10.5-12c4.932-.934 9.932-.934 15 0z"/><path style="opacity:1" fill="#1c3028" d="M318.5 100.5a63.707 63.707 0 0 0 6.5 7c.738 2.381.238 4.381-1.5 6-.31-1.238-.81-1.238-1.5 0a2593.888 2593.888 0 0 1-14.5 19 87.58 87.58 0 0 0-14 5 85.69 85.69 0 0 1-11-11l15-16a10.165 10.165 0 0 0 3-3 9.175 9.175 0 0 0 4.5-2c2.064 1.091 4.231 1.258 6.5.5l-5-1c3.423-3.565 7.423-5.065 12-4.5z"/><path style="opacity:1" fill="#787d8c" d="M220.5 105.5h2c1.043 2.556 2.71 4.723 5 6.5-.556.383-.889.883-1 1.5-1.333 0-2 .667-2 2a701.521 701.521 0 0 0-7-4h-2c3.044-.721 4.711-2.721 5-6z"/><path style="opacity:1" fill="#6f436a" d="M226.5 113.5h2a123.753 123.753 0 0 1 17 15.5 12.93 12.93 0 0 0 5 .5c-.763.768-1.763 1.268-3 1.5 2.496 1.331 4.496 3.164 6 5.5-2.559.302-4.893-.032-7-1a8.43 8.43 0 0 0 4-.5c-3.042-2.875-6.709-4.208-11-4l4-1a3768.985 3768.985 0 0 1-19-14.5c0-1.333.667-2 2-2z"/><path style="opacity:1" fill="#2e1d2a" d="M323.5 113.5a408.247 408.247 0 0 1-5.5 15 341.163 341.163 0 0 0-14.5 11c-.438.065-.772-.101-1-.5a48.558 48.558 0 0 1 5-6.5 2593.888 2593.888 0 0 0 14.5-19c.69-1.238 1.19-1.238 1.5 0z"/><path style="opacity:1" fill="#412035" d="M217.5 111.5a701.521 701.521 0 0 1 7 4 3768.985 3768.985 0 0 0 19 14.5l-4 1c4.291-.208 7.958 1.125 11 4a8.43 8.43 0 0 1-4 .5 172.567 172.567 0 0 1-20-2.5l-12-16a44.433 44.433 0 0 0 3-5.5z"/><path style="opacity:1" fill="#2d4349" d="m297.5 110.5-15 16h-2c-.238-1.904-1.238-3.238-3-4a150.48 150.48 0 0 1 20-12z"/><path style="opacity:1" fill="#162021" d="M277.5 122.5c1.762.762 2.762 2.096 3 4a54.912 54.912 0 0 1-7 7c-1.692-1.705-3.025-3.705-4-6 2.294-2.153 4.96-3.82 8-5z"/><path style="opacity:1" fill="#614c36" d="M280.5 126.5h2a85.69 85.69 0 0 0 11 11 87.58 87.58 0 0 1 14-5 48.558 48.558 0 0 0-5 6.5c.228.399.562.565 1 .5-1.074 1.385-2.407 2.551-4 3.5-3.527.808-6.86.641-10-.5 1.831-.552 3.497-.552 5 0 1.094-1.368.76-2.535-1-3.5-2.96.32-5.96.32-9 0a150.644 150.644 0 0 0-9-3.5c-1-.333-1.667-1-2-2a54.912 54.912 0 0 0 7-7z"/><path style="opacity:1" fill="#432337" d="M265.5 127.5c.667 0 1 .333 1 1a129.073 129.073 0 0 1-13 8c-1.504-2.336-3.504-4.169-6-5.5 1.237-.232 2.237-.732 3-1.5a101.46 101.46 0 0 1 15-2z"/><path style="opacity:1" fill="#372e35" d="M275.5 135.5a150.644 150.644 0 0 1 9 3.5c3.04.32 6.04.32 9 0 1.76.965 2.094 2.132 1 3.5-1.503-.552-3.169-.552-5 0-5.988.353-10.655-1.981-14-7z"/><path style="opacity:1" fill="#4d87af" d="M54.5 200.5c3.125.979 6.458 1.313 10 1v-9h5v24h-5c.313-3.542-.02-6.875-1-10h-9v11h-6v-21h-7v21h-6v-21h-7v-5h26v9z"/><path style="opacity:1" fill="#83abc7" d="M63.5 206.5c.98 3.125 1.313 6.458 1 10h5v-24h-5v9c-3.542.313-6.875-.021-10-1h9v-9h7v26h-7v-11z"/><path style="opacity:1" fill="#7ca5c1" d="M96.5 192.5h-23v24h19c-6.479.991-13.146 1.324-20 1v-26c8.184-.326 16.184.008 24 1z"/><path style="opacity:1" fill="#4a85ad" d="m90.5 192.5 1 4h-13c-.284 1.915.049 3.581 1 5h11v5h-11v6h13v4h-19v-24h17z"/><path style="opacity:1" fill="#2c4949" d="M90.5 192.5h6a169.46 169.46 0 0 1 5.5 17 169.41 169.41 0 0 1 5.5-17 9.86 9.86 0 0 1 6 1c-.363.683-.696 1.35-1 2a210.915 210.915 0 0 0-7 22 13.116 13.116 0 0 1-7-1 314.08 314.08 0 0 0-7-19v-1l-1-4z"/><path style="opacity:1" fill="#264444" d="M120.5 192.5v25h-6v-25h6z"/><path style="opacity:1" fill="#758888" d="M136.5 192.5h-13v24h5c-.306-2.885.027-5.552 1-8v9h-7v-26c4.863-.319 9.53.014 14 1z"/><path style="opacity:1" fill="#294646" d="M136.5 192.5c2.398-.241 4.398.426 6 2 .333 1 1 1.667 2 2 1.109 4.989-.558 8.656-5 11a139.582 139.582 0 0 0 6 9.5 12.494 12.494 0 0 1-7 0 49.274 49.274 0 0 1-5-8 8.43 8.43 0 0 0-4-.5c-.973 2.448-1.306 5.115-1 8h-5v-24h13z"/><path style="opacity:1" fill="#274545" d="M170.5 209.5c.185 2.39 1.518 3.39 4 3 2.482.39 3.815-.61 4-3 .989-5.475 1.322-11.142 1-17h5v19c-.875 3.041-2.875 4.875-6 5.5-6.39 1.942-11.223.109-14.5-5.5a98.432 98.432 0 0 1-.5-14c-2.107-.968-4.441-1.302-7-1v21h-6v-21h-6v-4h25c-.322 5.858.011 11.525 1 17z"/><path style="opacity:1" fill="#91a0a0" d="M170.5 209.5c-.989-5.475-1.322-11.142-1-17h-25v4c-1-.333-1.667-1-2-2 .904-.709 1.237-1.709 1-3h27v18z"/><path style="opacity:1" fill="#748788" d="M184.5 211.5v-19h-5c.322 5.858-.011 11.525-1 17v-18h7c.324 6.854-.009 13.521-1 20z"/><path style="opacity:1" fill="#2e4a4a" d="M209.5 215.5c-1.765.961-3.765 1.295-6 1v-3h-11v4h-7a186.431 186.431 0 0 1 9-25 13.116 13.116 0 0 1 7-1 506.17 506.17 0 0 1 8 24z"/><path style="opacity:1" fill="#64797a" d="M217.5 211.5c-.99-6.145-1.323-12.478-1-19h-5v24h15v1c-7.852.325-15.518-.008-23-1 2.235.295 4.235-.039 6-1 .992-7.816 1.326-15.816 1-24h7v20z"/><path style="opacity:1" fill="#244242" d="M217.5 211.5c2.787.977 5.787 1.31 9 1v4h-15v-24h5c-.323 6.522.01 12.855 1 19z"/><path style="opacity:1" fill="#538ab0" d="M226.5 217.5v-5c-3.213.31-6.213-.023-9-1h9v-20c6.121-.41 12.121.09 18 1.5 4 3.667 4 7.333 0 11 5.676 5.288 5.009 9.622-2 13-5.323.499-10.656.666-16 .5z"/><path style="opacity:1" fill="#89afc9" d="M263.5 192.5h-13v24h5c-.306-2.885.027-5.552 1-8v9h-7v-26c4.863-.319 9.53.014 14 1z"/><path style="opacity:1" fill="#5189b0" d="M294.5 213.5c.734 1.208 1.067 2.541 1 4-4.288-.679-8.288-2.012-12-4l-5 1-1 2c-4.333 1.333-8.667 1.333-13 0l-3.5-7c-1.356-.88-2.856-1.214-4.5-1-.973 2.448-1.306 5.115-1 8h-5v-24h13c6.909.453 9.409 4.12 7.5 11a25.513 25.513 0 0 1-4.5 4l4.5 7a135.876 135.876 0 0 0 8.5-23c2.619-.268 5.119.065 7.5 1a792.847 792.847 0 0 1 7.5 21z"/><path style="opacity:1" fill="#c5d7e5" d="M302.5 192.5h-6v25h-1c.067-1.459-.266-2.792-1-4 .992-7.148 1.325-14.481 1-22 2.559-.302 4.893.032 7 1z"/><path style="opacity:1" fill="#4985ad" d="M302.5 192.5v25h-6v-25h6z"/><path style="opacity:1" fill="#a1c0d5" d="M311.5 192.5h-6v25c-.993-8.484-1.326-17.151-1-26 2.559-.302 4.893.032 7 1z"/><path style="opacity:1" fill="#4e87af" d="M305.5 217.5v-25h6a217.432 217.432 0 0 1 8.5 14c.499-4.989.666-9.989.5-15h6v26a13.116 13.116 0 0 1-7-1l-8.5-15a128.507 128.507 0 0 0-.5 16h-5z"/><path style="opacity:1" fill="#a1aeaf" d="M107.5 192.5c4.333-1.333 8.667-1.333 13 0h-6v25l-2-22c.304-.65.637-1.317 1-2a9.86 9.86 0 0 0-6-1z"/><path style="opacity:1" fill="#b2cbdc" d="M91.5 196.5v1h-12v4c-.951-1.419-1.284-3.085-1-5h13z"/><path style="opacity:1" fill="#f6f7f7" d="M129.5 196.5c2.357-.163 4.69.003 7 .5 2.667 2 2.667 4 0 6-2.31.497-4.643.663-7 .5v-7z"/><path style="opacity:1" fill="#94a3a3" d="M163.5 197.5h-6c.324 6.854-.009 13.521-1 20v-21c2.559-.302 4.893.032 7 1z"/><path style="opacity:1" fill="#f2f6f9" d="M232.5 196.5c2.357-.163 4.69.003 7 .5 2.092.953 2.425 2.286 1 4a32.462 32.462 0 0 1-8 .5v-5z"/><path style="opacity:1" fill="#f8fafc" d="M256.5 196.5c2.357-.163 4.69.003 7 .5 2.826 2.522 2.493 4.522-1 6a18.453 18.453 0 0 1-6 .5v-7z"/><path style="opacity:1" fill="#e4e8e8" d="M197.5 198.5c1.91 2.952 2.91 6.286 3 10a9.86 9.86 0 0 1-6-1 71.408 71.408 0 0 0 3-9z"/><path style="opacity:1" fill="#edf3f7" d="M282.5 199.5c.997-.03 1.664.47 2 1.5a94.443 94.443 0 0 0 2 6.5 9.86 9.86 0 0 1-6 1l2-9z"/><path style="opacity:1" fill="#f0f5f8" d="M232.5 206.5a32.462 32.462 0 0 1 8 .5c2.667 1.667 2.667 3.333 0 5a32.462 32.462 0 0 1-8 .5v-6z"/><path style="opacity:1" fill="#538bb1" d="M328.5 211.5h6v6h-6v-6z"/></svg>