<svg xmlns="http://www.w3.org/2000/svg" width="426" height="388" style="shape-rendering:geometricPrecision;text-rendering:geometricPrecision;image-rendering:optimizeQuality;fill-rule:evenodd;clip-rule:evenodd"><path style="opacity:1" fill="#fefefe" d="M-.5-.5h426v388H-.5V-.5z"/><path style="opacity:1" fill="#8ab1d3" d="M222.5 65.5c-4.406.248-8.74.915-13 2 4.092-2.727 8.426-3.394 13-2z"/><path style="opacity:1" fill="#3b7eb6" d="M222.5 65.5c21.55 6.435 28.05 20.102 19.5 41a86.16 86.16 0 0 1-7.5 8 4607.278 4607.278 0 0 0-11 4c-.666 7.493-1 15.159-1 23 .002 8.03.669 15.697 2 23 3.48.773 6.813 2.106 10 4 1.333 2 3 3.667 5 5 3.621 3.915 5.621 8.582 6 14h46c1.558-9.543 6.558-16.543 15-21a144.78 144.78 0 0 1 10.5-1c4.586 1.225 9.086 1.892 13.5 2 16.377 10.514 19.21 23.847 8.5 40-7.599 7.922-16.765 10.922-27.5 9-1.602-1.574-3.602-2.241-6-2-1.987-.664-3.654-1.831-5-3.5-13.96-.403-26.293 3.93-37 13-15.523 12.544-23.356 28.711-23.5 48.5 2.442 2.548 4.108 5.548 5 9 3.105 17.473-3.728 28.806-20.5 34a77.1 77.1 0 0 1-13-1c-14.229-5.419-20.396-15.752-18.5-31 2.258-8.238 7.091-14.238 14.5-18 2.98-.12 5.813-.787 8.5-2 .828-15.506.661-30.839-.5-46-.709-.904-1.709-1.237-3-1h-2c-.473-1.406-1.473-2.073-3-2-6.006-2.673-10.34-7.006-13-13a51.569 51.569 0 0 0-1-7h-47v4c-5.934 14.303-16.601 20.303-32 18-1.602-1.574-3.602-2.241-6-2-8.905-5.303-13.905-13.137-15-23.5.64-9.799 4.974-17.299 13-22.5 2.687.159 5.02-.675 7-2.5a112.97 112.97 0 0 1 15-.5c3.527.453 6.527 1.953 9 4.5 2.982.498 5.982.665 9 .5 2.652.09 4.985-.576 7-2 12.172-3.913 22.505-10.58 31-20 2.087-1.085 3.42-2.751 4-5 5.827-9.477 9.494-19.811 11-31-2.631-4.702-4.798-9.702-6.5-15-1.509-13.99 3.991-23.99 16.5-30a68.021 68.021 0 0 1 13-2z"/><path style="opacity:1" fill="#c0d5e7" d="M234.5 114.5c-2.913 2.865-6.579 4.199-11 4 3.581-1.307 7.247-2.641 11-4z"/><path style="opacity:1" fill="#fafbfd" d="M208.5 116.5c1.236 1.543 2.902 2.543 5 3a507.128 507.128 0 0 1 1 45c-11.85 3.018-19.184 10.518-22 22.5-15 .667-30 .667-45 0a41.966 41.966 0 0 0-3-8.5c34.088-7.755 54.754-28.755 62-63 .683.363 1.35.696 2 1z"/><path style="opacity:1" fill="#dbe7f1" d="M208.5 116.5a31.71 31.71 0 0 1 6 2c1.326 15.495 1.326 30.828 0 46a507.128 507.128 0 0 0-1-45c-2.098-.457-3.764-1.457-5-3z"/><path style="opacity:1" fill="#bed4e7" d="M223.5 118.5a541.778 541.778 0 0 0 1 46c-1.331-7.303-1.998-14.97-2-23 0-7.841.334-15.507 1-23z"/><path style="opacity:1" fill="#7aa6cd" d="M188.5 143.5c-.58 2.249-1.913 3.915-4 5 .58-2.249 1.913-3.915 4-5z"/><path style="opacity:1" fill="#77a4cc" d="M330.5 167.5c-4.414-.108-8.914-.775-13.5-2-3.523.207-7.023.54-10.5 1 8.217-4.177 16.217-3.844 24 1z"/><path style="opacity:1" fill="#669ac5" d="M128.5 165.5a112.97 112.97 0 0 0-15 .5c-1.98 1.825-4.313 2.659-7 2.5 1.475-1.91 3.475-3.076 6-3.5 5.516-.817 10.85-.651 16 .5z"/><path style="opacity:1" fill="#bcd3e5" d="M234.5 168.5c2.667.667 4.333 2.333 5 5-2-1.333-3.667-3-5-5z"/><path style="opacity:1" fill="#7ba8ce" d="M153.5 168.5c-2.015 1.424-4.348 2.09-7 2 2.015-1.424 4.348-2.09 7-2z"/><path style="opacity:1" fill="#8ab2d3" d="M223.5 171.5a73.314 73.314 0 0 0-12 1c1.962-1.517 4.295-2.184 7-2 1.869.007 3.536.34 5 1z"/><path style="opacity:1" fill="#fbfcfd" d="M223.5 171.5c12.846 4.014 17.68 12.68 14.5 26-7.21 12.677-17.376 15.844-30.5 9.5-11.199-12.011-10.533-23.344 2-34a2.428 2.428 0 0 1 2-.5 73.314 73.314 0 0 1 12-1z"/><path style="opacity:1" fill="#d7e5f0" d="M194.5 201.5c-1.238-1.714-1.905-3.714-2-6h-45c.237 1.291-.096 2.291-1 3v-4h47a51.569 51.569 0 0 1 1 7z"/><path style="opacity:1" fill="#dbe8f2" d="M245.5 195.5c7.493-.666 15.159-1 23-1 8.03.002 15.697.669 23 2a541.778 541.778 0 0 0-46-1z"/><path style="opacity:1" fill="#fcfdfe" d="M245.5 195.5a541.778 541.778 0 0 1 46 1c1.17 2.15 2.17 4.484 3 7-24.352 3.827-42.352 16.493-54 38-1.406.473-2.073 1.473-2 3a27.718 27.718 0 0 0-3 9c-1.972 2.584-2.972 5.584-3 9 .219 1.175-.114 2.175-1 3-1.836-.528-3.503-1.194-5-2-.709-.904-1.709-1.237-3-1v-45c2.51.446 4.51-.22 6-2 8.659-3.994 13.992-10.66 16-20z"/><path style="opacity:1" fill="#75a2cb" d="M108.5 214.5c2.398-.241 4.398.426 6 2-2.398.241-4.398-.426-6-2z"/><path style="opacity:1" fill="#abc7df" d="M207.5 214.5c1.527-.073 2.527.594 3 2-1.527.073-2.527-.594-3-2z"/><path style="opacity:1" fill="#79a5cc" d="M305.5 214.5c2.398-.241 4.398.426 6 2-2.398.241-4.398-.426-6-2z"/><path style="opacity:1" fill="#dfeaf3" d="M212.5 216.5c1.291-.237 2.291.096 3 1a507.055 507.055 0 0 1-1 45c.626-15.575-.04-30.908-2-46z"/><path style="opacity:1" fill="#81acd0" d="M215.5 217.5c1.161 15.161 1.328 30.494.5 46a22.684 22.684 0 0 1-8.5 2 24.614 24.614 0 0 1 7-3 507.055 507.055 0 0 0 1-45z"/><path style="opacity:1" fill="#bed4e7" d="M229.5 215.5c-1.49 1.78-3.49 2.446-6 2v45c1.291-.237 2.291.096 3 1h-4v-47a21.435 21.435 0 0 0 7-1z"/><path style="opacity:1" fill="#99bbd9" d="M240.5 241.5c.073 1.527-.594 2.527-2 3-.073-1.527.594-2.527 2-3z"/><path style="opacity:1" fill="#90b5d5" d="M235.5 253.5c-.19 3.355-1.19 6.355-3 9 .028-3.416 1.028-6.416 3-9z"/><path style="opacity:1" fill="#77a5cc" d="M211.5 314.5a77.1 77.1 0 0 0 13 1c-1.464.66-3.131.993-5 1-2.986.118-5.652-.548-8-2z"/></svg>