<?xml version="1.0" encoding="UTF-8"?>
<!DOCTYPE svg PUBLIC "-//W3C//DTD SVG 1.1//EN" "http://www.w3.org/Graphics/SVG/1.1/DTD/svg11.dtd">
<svg xmlns="http://www.w3.org/2000/svg" version="1.1" width="704px" height="144px" style="shape-rendering:geometricPrecision; text-rendering:geometricPrecision; image-rendering:optimizeQuality; fill-rule:evenodd; clip-rule:evenodd" xmlns:xlink="http://www.w3.org/1999/xlink">
<g><path style="opacity:1" fill="#123262" d="M -0.5,-0.5 C 234.167,-0.5 468.833,-0.5 703.5,-0.5C 703.5,33.8333 703.5,68.1667 703.5,102.5C 690.362,109.546 676.362,113.546 661.5,114.5C 658.159,114.164 654.825,113.831 651.5,113.5C 665.109,110.22 672.109,101.554 672.5,87.5C 695.94,76.2906 702.107,58.9572 691,35.5C 676.692,16.2757 657.525,8.44237 633.5,12C 612.028,15.3712 596.362,26.5378 586.5,45.5C 585.33,43.3498 584.33,41.0164 583.5,38.5C 582.743,37.2267 582.077,37.2267 581.5,38.5C 580.751,37.469 580.085,36.3024 579.5,35C 575.833,34.3333 572.167,34.3333 568.5,35C 565.733,41.8009 563.067,48.6342 560.5,55.5C 560.292,43.3182 557.459,31.6516 552,20.5C 550.611,18.7727 548.944,17.4394 547,16.5C 545.445,18.1458 543.779,18.4791 542,17.5C 540.739,17.7591 539.739,18.4258 539,19.5C 536.006,18.1102 534.006,19.1102 533,22.5C 532.833,24.3333 532.667,26.1667 532.5,28C 540.454,57.9634 531.787,82.13 506.5,100.5C 504.833,100.5 503.167,100.5 501.5,100.5C 501.5,79.5 501.5,58.5 501.5,37.5C 500.5,37.5 499.5,37.5 498.5,37.5C 498.5,36.5 498.5,35.5 498.5,34.5C 495.833,34.5 493.167,34.5 490.5,34.5C 479.42,19.0426 464.253,11.3759 445,11.5C 424.395,11.7239 407.228,19.3906 393.5,34.5C 383.469,58.9093 373.802,83.576 364.5,108.5C 365.689,109.429 367.022,109.762 368.5,109.5C 368.5,110.5 368.5,111.5 368.5,112.5C 371.833,112.5 375.167,112.5 378.5,112.5C 380.595,104.874 383.262,97.5406 386.5,90.5C 391.399,100.651 398.399,108.985 407.5,115.5C 419.336,125.413 433.003,131.579 448.5,134C 464.07,135.436 479.404,134.269 494.5,130.5C 507.041,126.566 518.374,120.566 528.5,112.5C 532.5,112.5 536.5,112.5 540.5,112.5C 540.5,111.5 540.5,110.5 540.5,109.5C 541.833,109.5 543.167,109.5 544.5,109.5C 544.196,110.15 543.863,110.817 543.5,111.5C 547.045,112.791 550.545,112.791 554,111.5C 556.808,104.243 559.308,96.9099 561.5,89.5C 571.015,89.8269 580.348,89.4936 589.5,88.5C 592.069,95.0291 594.569,101.696 597,108.5C 598.011,109.337 599.178,109.67 600.5,109.5C 600.5,110.5 600.5,111.5 600.5,112.5C 601.5,112.5 602.5,112.5 603.5,112.5C 615.986,124.405 630.986,131.572 648.5,134C 658.167,134.667 667.833,134.667 677.5,134C 686.342,132.456 695.009,130.289 703.5,127.5C 703.5,132.833 703.5,138.167 703.5,143.5C 468.833,143.5 234.167,143.5 -0.5,143.5C -0.5,130.5 -0.5,117.5 -0.5,104.5C 23.8948,129.685 53.5614,139.185 88.5,133C 110.721,128.56 129.721,118.394 145.5,102.5C 149.034,105.097 152.7,107.43 156.5,109.5C 158.734,111.446 161.401,112.613 164.5,113C 176.318,114.877 186.985,112.377 196.5,105.5C 220.625,130.37 249.958,139.537 284.5,133C 310.268,127.88 331.102,115.047 347,94.5C 347.174,99.6835 347.674,104.684 348.5,109.5C 349.5,109.5 350.5,109.5 351.5,109.5C 351.414,110.496 351.748,111.329 352.5,112C 355.482,112.498 358.482,112.665 361.5,112.5C 361.5,87.5 361.5,62.5 361.5,37.5C 360.5,37.5 359.5,37.5 358.5,37.5C 358.831,61.6725 358.498,85.6725 357.5,109.5C 357.5,84.5 357.5,59.5 357.5,34.5C 352.901,34.2 348.401,34.5333 344,35.5C 336.817,54.5255 329.651,73.5255 322.5,92.5C 315.778,75.3644 309.278,58.0311 303,40.5C 302.578,38.5743 301.411,37.5743 299.5,37.5C 297.614,34.9006 294.948,33.9006 291.5,34.5C 277.068,15.967 258.068,8.46703 234.5,12C 216.082,15.3651 201.416,24.5318 190.5,39.5C 181.63,34.0798 171.964,32.0798 161.5,33.5C 161.02,28.0403 159.02,23.207 155.5,19C 150.216,16.9753 144.883,17.3086 139.5,20C 137.523,22.2604 136.523,24.9271 136.5,28C 138.067,34.7635 139.067,41.5969 139.5,48.5C 135.078,57.2759 133.078,66.6093 133.5,76.5C 130.301,82.0438 126.301,87.0438 121.5,91.5C 125.385,73.6255 130.052,55.9589 135.5,38.5C 134.311,37.5713 132.978,37.238 131.5,37.5C 131.5,36.5 131.5,35.5 131.5,34.5C 128.167,34.5 124.833,34.5 121.5,34.5C 117.293,52.8669 112.96,71.2003 108.5,89.5C 105.863,80.5794 103.196,71.5794 100.5,62.5C 103.539,44.0646 96.8721,29.898 80.5,20C 50.5584,5.35637 23.5584,9.52304 -0.5,32.5C -0.5,21.5 -0.5,10.5 -0.5,-0.5 Z"/></g>
<g><path style="opacity:1" fill="#203f6f" d="M 291.5,34.5 C 289.167,34.5 286.833,34.5 284.5,34.5C 284.5,38.1667 284.5,41.8333 284.5,45.5C 273.764,27.8069 258.098,20.9736 237.5,25C 229.942,26.5603 223.276,29.727 217.5,34.5C 216.5,34.5 215.5,34.5 214.5,34.5C 214.5,35.5 214.5,36.5 214.5,37.5C 209.04,41.7602 205.04,47.0935 202.5,53.5C 201.56,51.3875 200.394,49.3875 199,47.5C 198.31,46.2617 197.81,46.2617 197.5,47.5C 195.196,44.8587 192.862,42.192 190.5,39.5C 201.416,24.5318 216.082,15.3651 234.5,12C 258.068,8.46703 277.068,15.967 291.5,34.5 Z"/></g>
<g><path style="opacity:1" fill="#264576" d="M 100.5,62.5 C 98.7899,54.3277 96.4566,46.3277 93.5,38.5C 92.8933,38.6236 92.56,38.9569 92.5,39.5C 91.7656,38.1225 91.0989,36.6225 90.5,35C 86.7446,34.2446 83.0779,34.4113 79.5,35.5C 79.4894,33.9826 78.8228,32.8159 77.5,32C 53.3781,18.77 31.8781,22.27 13,42.5C 2.9621,58.1955 3.29544,73.8622 14,89.5C 17.6972,94.3623 21.8639,98.6957 26.5,102.5C 22.3961,100.242 18.3961,97.7423 14.5,95C 15.1667,94.6667 15.8333,94.3333 16.5,94C 14.8655,92.1972 12.8655,91.0305 10.5,90.5C 8.60305,90.7282 7.26972,91.7282 6.5,93.5C 8.11002,95.7254 9.44335,98.0587 10.5,100.5C 24.6709,116.157 42.5043,123.824 64,123.5C 76.2578,122.985 88.0911,120.485 99.5,116C 102.177,115.186 104.177,113.686 105.5,111.5C 108.096,112.265 110.763,112.599 113.5,112.5C 110.561,115.918 106.894,118.418 102.5,120C 74.0187,131.383 46.352,129.717 19.5,115C 10.7418,108.083 4.07516,99.5827 -0.5,89.5C -0.5,70.5 -0.5,51.5 -0.5,32.5C 23.5584,9.52304 50.5584,5.35637 80.5,20C 96.8721,29.898 103.539,44.0646 100.5,62.5 Z"/></g>
<g><path style="opacity:1" fill="#1f3e6e" d="M 490.5,34.5 C 489.508,34.3284 488.842,34.6618 488.5,35.5C 488.5,59.8333 488.5,84.1667 488.5,108.5C 488.167,108.5 487.833,108.5 487.5,108.5C 487.666,98.4944 487.5,88.4944 487,78.5C 479.605,85.6132 470.771,89.6132 460.5,90.5C 460.5,87.1667 460.5,83.8333 460.5,80.5C 479.349,76.7972 487.349,65.4638 484.5,46.5C 484.5,43.5 484.5,40.5 484.5,37.5C 483.5,37.5 482.5,37.5 481.5,37.5C 481.5,36.5 481.5,35.5 481.5,34.5C 479.5,34.5 477.5,34.5 475.5,34.5C 461.65,23.6919 446.317,21.1919 429.5,27C 421.793,30.5671 414.793,35.0671 408.5,40.5C 408.5,38.5 407.5,37.5 405.5,37.5C 404.596,36.791 404.263,35.791 404.5,34.5C 400.833,34.5 397.167,34.5 393.5,34.5C 407.228,19.3906 424.395,11.7239 445,11.5C 464.253,11.3759 479.42,19.0426 490.5,34.5 Z"/></g>
<g><path style="opacity:1" fill="#193969" d="M 560.5,55.5 C 554.072,72.6747 547.405,89.6747 540.5,106.5C 540.5,105.5 540.5,104.5 540.5,103.5C 539.5,103.5 538.5,103.5 537.5,103.5C 537.795,105.735 537.461,107.735 536.5,109.5C 536.5,106.5 536.5,103.5 536.5,100.5C 526.5,100.5 516.5,100.5 506.5,100.5C 531.787,82.13 540.454,57.9634 532.5,28C 532.667,26.1667 532.833,24.3333 533,22.5C 534.006,19.1102 536.006,18.1102 539,19.5C 539.739,18.4258 540.739,17.7591 542,17.5C 543.779,18.4791 545.445,18.1458 547,16.5C 548.944,17.4394 550.611,18.7727 552,20.5C 557.459,31.6516 560.292,43.3182 560.5,55.5 Z"/></g>
<g><path style="opacity:1" fill="#183868" d="M 672.5,87.5 C 671.199,84.8987 669.866,82.232 668.5,79.5C 689.625,65.4121 690.958,49.5788 672.5,32C 654.08,20.5389 635.746,20.8722 617.5,33C 600.241,46.5359 596.074,63.3693 605,83.5C 606.277,85.7472 607.777,87.7472 609.5,89.5C 611.604,99.2652 617.27,105.932 626.5,109.5C 628.734,111.446 631.401,112.613 634.5,113C 640.157,113.499 645.824,113.666 651.5,113.5C 654.825,113.831 658.159,114.164 661.5,114.5C 676.362,113.546 690.362,109.546 703.5,102.5C 703.5,110.833 703.5,119.167 703.5,127.5C 695.009,130.289 686.342,132.456 677.5,134C 667.833,134.667 658.167,134.667 648.5,134C 630.986,131.572 615.986,124.405 603.5,112.5C 606.167,112.5 608.833,112.5 611.5,112.5C 602.974,90.2558 594.64,67.9225 586.5,45.5C 596.362,26.5378 612.028,15.3712 633.5,12C 657.525,8.44237 676.692,16.2757 691,35.5C 702.107,58.9572 695.94,76.2906 672.5,87.5 Z"/></g>
<g><path style="opacity:1" fill="#1f3e6e" d="M 161.5,33.5 C 152.42,36.0323 145.087,41.0323 139.5,48.5C 139.067,41.5969 138.067,34.7635 136.5,28C 136.523,24.9271 137.523,22.2604 139.5,20C 144.883,17.3086 150.216,16.9753 155.5,19C 159.02,23.207 161.02,28.0403 161.5,33.5 Z"/></g>
<g><path style="opacity:1" fill="#133362" d="M 79.5,35.5 C 74.9447,54.0638 69.9447,72.3971 64.5,90.5C 61.3056,73.0526 57.4722,55.7192 53,38.5C 52.3292,37.7476 51.4959,37.4142 50.5,37.5C 49.596,36.791 49.2627,35.791 49.5,34.5C 46.1667,34.5 42.8333,34.5 39.5,34.5C 39.7038,37.5176 40.0371,40.5176 40.5,43.5C 27.1894,50.945 24.0227,61.6117 31,75.5C 36.1811,83.1751 43.3478,87.8418 52.5,89.5C 54.7683,95.9064 56.435,102.573 57.5,109.5C 58.8333,109.5 60.1667,109.5 61.5,109.5C 61.5,110.5 61.5,111.5 61.5,112.5C 64.8984,112.82 68.2317,112.487 71.5,111.5C 74.3077,102.077 76.9743,92.7434 79.5,83.5C 79.281,84.675 79.6143,85.675 80.5,86.5C 85.1269,83.8646 89.4602,80.8646 93.5,77.5C 96.1433,86.7399 98.4766,96.0732 100.5,105.5C 75.4029,118.197 50.7362,117.197 26.5,102.5C 21.8639,98.6957 17.6972,94.3623 14,89.5C 3.29544,73.8622 2.9621,58.1955 13,42.5C 31.8781,22.27 53.3781,18.77 77.5,32C 78.8228,32.8159 79.4894,33.9826 79.5,35.5 Z"/></g>
<g><path style="opacity:1" fill="#133363" d="M 475.5,34.5 C 457.659,34.1699 439.992,34.5033 422.5,35.5C 422.5,38.1667 422.5,40.8333 422.5,43.5C 423.833,43.5 425.167,43.5 426.5,43.5C 426.5,44.5 426.5,45.5 426.5,46.5C 433.167,46.5 439.833,46.5 446.5,46.5C 446.5,67.5 446.5,88.5 446.5,109.5C 447.833,109.5 449.167,109.5 450.5,109.5C 450.5,110.5 450.5,111.5 450.5,112.5C 453.833,112.5 457.167,112.5 460.5,112.5C 460.5,105.167 460.5,97.8333 460.5,90.5C 470.771,89.6132 479.605,85.6132 487,78.5C 487.5,88.4944 487.666,98.4944 487.5,108.5C 479.408,112.451 470.741,114.118 461.5,113.5C 452.555,113.844 443.889,112.51 435.5,109.5C 426.324,86.6496 417.324,63.6496 408.5,40.5C 414.793,35.0671 421.793,30.5671 429.5,27C 446.317,21.1919 461.65,23.6919 475.5,34.5 Z"/></g>
<g><path style="opacity:1" fill="#143262" d="M 668.5,79.5 C 667.778,78.4489 666.778,77.7822 665.5,77.5C 662.537,74.0486 658.87,71.5486 654.5,70C 647.905,68.018 641.239,66.3514 634.5,65C 630.965,64.3367 627.965,62.8367 625.5,60.5C 624.146,52.7093 627.146,47.5427 634.5,45C 639.019,44.8247 643.353,44.3247 647.5,43.5C 652.608,46.2856 655.275,50.6189 655.5,56.5C 656.833,56.5 658.167,56.5 659.5,56.5C 659.5,57.5 659.5,58.5 659.5,59.5C 662.5,59.5 665.5,59.5 668.5,59.5C 668.694,53.2411 666.694,47.9078 662.5,43.5C 649.1,30.6595 634.433,29.1595 618.5,39C 609.656,48.4164 609.323,58.083 617.5,68C 628.407,72.8954 639.741,76.5621 651.5,79C 660.046,84.8304 660.713,91.497 653.5,99C 642.763,104.409 632.596,103.575 623,96.5C 620.323,92.9659 619.156,88.9659 619.5,84.5C 616.167,84.5 612.833,84.5 609.5,84.5C 609.5,86.1667 609.5,87.8333 609.5,89.5C 607.777,87.7472 606.277,85.7472 605,83.5C 596.074,63.3693 600.241,46.5359 617.5,33C 635.746,20.8722 654.08,20.5389 672.5,32C 690.958,49.5788 689.625,65.4121 668.5,79.5 Z"/></g>
<g><path style="opacity:1" fill="#f7f8e3" d="M 161.5,33.5 C 171.964,32.0798 181.63,34.0798 190.5,39.5C 192.862,42.192 195.196,44.8587 197.5,47.5C 206.623,63.3592 206.79,79.3592 198,95.5C 187.473,109.435 173.64,114.102 156.5,109.5C 152.7,107.43 149.034,105.097 145.5,102.5C 138.762,95.028 134.762,86.3614 133.5,76.5C 133.078,66.6093 135.078,57.2759 139.5,48.5C 145.087,41.0323 152.42,36.0323 161.5,33.5 Z"/></g>
<g><path style="opacity:1" fill="#f7f7e2" d="M 662.5,43.5 C 664.283,47.6339 665.283,51.9672 665.5,56.5C 663.5,56.5 661.5,56.5 659.5,56.5C 658.167,56.5 656.833,56.5 655.5,56.5C 655.275,50.6189 652.608,46.2856 647.5,43.5C 639.001,39.9977 631.167,40.9977 624,46.5C 620.274,51.7757 620.774,56.4424 625.5,60.5C 627.965,62.8367 630.965,64.3367 634.5,65C 641.239,66.3514 647.905,68.018 654.5,70C 658.87,71.5486 662.537,74.0486 665.5,77.5C 671.845,93.9786 666.511,104.812 649.5,110C 641.798,110.731 634.131,110.564 626.5,109.5C 617.27,105.932 611.604,99.2652 609.5,89.5C 609.5,87.8333 609.5,86.1667 609.5,84.5C 612.833,84.5 616.167,84.5 619.5,84.5C 619.156,88.9659 620.323,92.9659 623,96.5C 632.596,103.575 642.763,104.409 653.5,99C 660.713,91.497 660.046,84.8304 651.5,79C 639.741,76.5621 628.407,72.8954 617.5,68C 609.323,58.083 609.656,48.4164 618.5,39C 634.433,29.1595 649.1,30.6595 662.5,43.5 Z"/></g>
<g><path style="opacity:1" fill="#c2c8c1" d="M 422.5,35.5 C 439.992,34.5033 457.659,34.1699 475.5,34.5C 477.5,34.5 479.5,34.5 481.5,34.5C 481.5,35.5 481.5,36.5 481.5,37.5C 481.5,39.5 481.5,41.5 481.5,43.5C 473.167,43.5 464.833,43.5 456.5,43.5C 464.316,42.5076 472.316,42.1743 480.5,42.5C 480.5,40.1667 480.5,37.8333 480.5,35.5C 461.167,35.5 441.833,35.5 422.5,35.5 Z"/></g>
<g><path style="opacity:1" fill="#f6f6e2" d="M 50.5,37.5 C 54.2266,56.7369 58.7266,75.7369 64,94.5C 64.49,93.2068 64.6567,91.8734 64.5,90.5C 69.9447,72.3971 74.9447,54.0638 79.5,35.5C 83.0779,34.4113 86.7446,34.2446 90.5,35C 91.0989,36.6225 91.7656,38.1225 92.5,39.5C 97.0168,58.2334 101.85,76.9001 107,95.5C 107.505,93.4817 108.005,91.4817 108.5,89.5C 112.96,71.2003 117.293,52.8669 121.5,34.5C 124.833,34.5 128.167,34.5 131.5,34.5C 131.5,35.5 131.5,36.5 131.5,37.5C 124.389,61.1868 118.056,85.1868 112.5,109.5C 110.167,109.5 107.833,109.5 105.5,109.5C 104.167,109.5 102.833,109.5 101.5,109.5C 101.768,107.901 101.434,106.568 100.5,105.5C 98.4766,96.0732 96.1433,86.7399 93.5,77.5C 92.0079,71.6994 90.3413,66.0327 88.5,60.5C 87.8025,56.0436 86.6358,51.7102 85,47.5C 78.8733,68.0072 73.3733,88.6738 68.5,109.5C 66.1667,109.5 63.8333,109.5 61.5,109.5C 60.1667,109.5 58.8333,109.5 57.5,109.5C 56.435,102.573 54.7683,95.9064 52.5,89.5C 49.411,73.8058 45.411,58.4724 40.5,43.5C 40.0371,40.5176 39.7038,37.5176 39.5,34.5C 42.8333,34.5 46.1667,34.5 49.5,34.5C 49.2627,35.791 49.596,36.791 50.5,37.5 Z"/></g>
<g><path style="opacity:1" fill="#f9fae4" d="M 253.5,35.5 C 261.168,35.5134 266.834,38.8467 270.5,45.5C 271.95,51.8683 271.784,58.2017 270,64.5C 267.778,68.3881 264.612,71.2214 260.5,73C 262.078,74.0945 263.745,74.9278 265.5,75.5C 266.512,76.8717 267.512,78.205 268.5,79.5C 269.945,87.4331 271.112,95.4331 272,103.5C 272.45,105.519 273.283,107.352 274.5,109C 271.518,109.498 268.518,109.665 265.5,109.5C 263.589,109.426 262.422,108.426 262,106.5C 262.033,98.6752 261.033,91.0086 259,83.5C 258.004,81.3395 256.504,79.6728 254.5,78.5C 244.886,77.5514 235.219,77.2181 225.5,77.5C 224.506,87.6532 224.172,97.9865 224.5,108.5C 221.5,108.5 218.5,108.5 215.5,108.5C 215.5,84.1667 215.5,59.8333 215.5,35.5C 228.167,35.5 240.833,35.5 253.5,35.5 Z"/></g>
<g><path style="opacity:1" fill="#f9f9e4" d="M 291.5,34.5 C 294.948,33.9006 297.614,34.9006 299.5,37.5C 306.561,57.1814 313.728,76.8481 321,96.5C 321.791,95.255 322.291,93.9217 322.5,92.5C 329.651,73.5255 336.817,54.5255 344,35.5C 348.401,34.5333 352.901,34.2 357.5,34.5C 357.5,59.5 357.5,84.5 357.5,109.5C 355.5,109.5 353.5,109.5 351.5,109.5C 350.5,109.5 349.5,109.5 348.5,109.5C 348.5,93.1667 348.5,76.8333 348.5,60.5C 348.666,56.4862 348.499,52.4862 348,48.5C 340.863,68.244 333.53,87.9107 326,107.5C 324.246,109.25 322.079,109.917 319.5,109.5C 318.5,109.5 317.5,109.5 316.5,109.5C 310.687,91.8935 304.354,74.5601 297.5,57.5C 296.833,55.1667 296.167,52.8333 295.5,50.5C 295.013,49.5266 294.513,48.5266 294,47.5C 293.5,67.8306 293.333,88.1639 293.5,108.5C 290.5,108.5 287.5,108.5 284.5,108.5C 284.5,87.5 284.5,66.5 284.5,45.5C 284.5,41.8333 284.5,38.1667 284.5,34.5C 286.833,34.5 289.167,34.5 291.5,34.5 Z"/></g>
<g><path style="opacity:1" fill="#f7f7e2" d="M 393.5,34.5 C 397.167,34.5 400.833,34.5 404.5,34.5C 404.263,35.791 404.596,36.791 405.5,37.5C 414.297,61.221 423.297,84.8876 432.5,108.5C 429.914,109.48 427.247,109.813 424.5,109.5C 423.325,109.719 422.325,109.386 421.5,108.5C 418.805,101.401 416.138,94.401 413.5,87.5C 403.347,86.5058 393.014,86.1724 382.5,86.5C 380.308,93.9099 377.808,101.243 375,108.5C 372.959,109.423 370.792,109.756 368.5,109.5C 367.022,109.762 365.689,109.429 364.5,108.5C 373.802,83.576 383.469,58.9093 393.5,34.5 Z"/></g>
<g><path style="opacity:1" fill="#fdfde6" d="M 422.5,35.5 C 441.833,35.5 461.167,35.5 480.5,35.5C 480.5,37.8333 480.5,40.1667 480.5,42.5C 472.316,42.1743 464.316,42.5076 456.5,43.5C 456.5,65.1667 456.5,86.8333 456.5,108.5C 453.5,108.5 450.5,108.5 447.5,108.5C 447.831,86.6602 447.497,64.9936 446.5,43.5C 439.833,43.5 433.167,43.5 426.5,43.5C 425.167,43.5 423.833,43.5 422.5,43.5C 422.5,40.8333 422.5,38.1667 422.5,35.5 Z"/></g>
<g><path style="opacity:1" fill="#f8f9e3" d="M 488.5,35.5 C 491.5,35.5 494.5,35.5 497.5,35.5C 497.169,57.3398 497.503,79.0064 498.5,100.5C 499.5,100.5 500.5,100.5 501.5,100.5C 503.167,100.5 504.833,100.5 506.5,100.5C 516.5,100.5 526.5,100.5 536.5,100.5C 536.5,103.5 536.5,106.5 536.5,109.5C 521.5,109.5 506.5,109.5 491.5,109.5C 490.209,109.737 489.209,109.404 488.5,108.5C 488.5,84.1667 488.5,59.8333 488.5,35.5 Z"/></g>
<g><path style="opacity:1" fill="#f7f8e2" d="M 581.5,38.5 C 590.569,62.0423 599.236,85.709 607.5,109.5C 605.167,109.5 602.833,109.5 600.5,109.5C 599.178,109.67 598.011,109.337 597,108.5C 594.569,101.696 592.069,95.0291 589.5,88.5C 584.712,87.1721 579.546,86.5054 574,86.5C 568.833,86.6667 563.667,86.8333 558.5,87C 555.404,94.3559 552.738,101.856 550.5,109.5C 548.5,109.5 546.5,109.5 544.5,109.5C 543.167,109.5 541.833,109.5 540.5,109.5C 540.5,108.5 540.5,107.5 540.5,106.5C 547.405,89.6747 554.072,72.6747 560.5,55.5C 563.067,48.6342 565.733,41.8009 568.5,35C 572.167,34.3333 575.833,34.3333 579.5,35C 580.085,36.3024 580.751,37.469 581.5,38.5 Z"/></g>
<g><path style="opacity:1" fill="#949fa4" d="M 217.5,34.5 C 229.678,34.1716 241.678,34.5049 253.5,35.5C 240.833,35.5 228.167,35.5 215.5,35.5C 215.5,59.8333 215.5,84.1667 215.5,108.5C 218.5,108.5 221.5,108.5 224.5,108.5C 224.172,97.9865 224.506,87.6532 225.5,77.5C 225.5,88.1667 225.5,98.8333 225.5,109.5C 223.167,109.5 220.833,109.5 218.5,109.5C 217.167,109.5 215.833,109.5 214.5,109.5C 214.5,104.5 214.5,99.5 214.5,94.5C 214.5,75.5 214.5,56.5 214.5,37.5C 214.5,36.5 214.5,35.5 214.5,34.5C 215.5,34.5 216.5,34.5 217.5,34.5 Z"/></g>
<g><path style="opacity:1" fill="#123161" d="M 214.5,37.5 C 214.5,56.5 214.5,75.5 214.5,94.5C 211.599,91.6881 208.932,88.6881 206.5,85.5C 208.787,74.316 207.454,63.6493 202.5,53.5C 205.04,47.0935 209.04,41.7602 214.5,37.5 Z"/></g>
<g><path style="opacity:1" fill="#020935" d="M 50.5,37.5 C 51.4959,37.4142 52.3292,37.7476 53,38.5C 57.4722,55.7192 61.3056,73.0526 64.5,90.5C 64.6567,91.8734 64.49,93.2068 64,94.5C 58.7266,75.7369 54.2266,56.7369 50.5,37.5 Z"/></g>
<g><path style="opacity:1" fill="#030b36" d="M 100.5,62.5 C 103.196,71.5794 105.863,80.5794 108.5,89.5C 108.005,91.4817 107.505,93.4817 107,95.5C 101.85,76.9001 97.0168,58.2334 92.5,39.5C 92.56,38.9569 92.8933,38.6236 93.5,38.5C 96.4566,46.3277 98.7899,54.3277 100.5,62.5 Z"/></g>
<g><path style="opacity:1" fill="#071038" d="M 131.5,37.5 C 132.978,37.238 134.311,37.5713 135.5,38.5C 130.052,55.9589 125.385,73.6255 121.5,91.5C 120.008,96.7987 118.508,102.132 117,107.5C 116.303,109.584 115.136,111.251 113.5,112.5C 110.763,112.599 108.096,112.265 105.5,111.5C 105.5,110.833 105.5,110.167 105.5,109.5C 107.833,109.5 110.167,109.5 112.5,109.5C 118.056,85.1868 124.389,61.1868 131.5,37.5 Z"/></g>
<g><path style="opacity:1" fill="#010333" d="M 351.5,109.5 C 353.5,109.5 355.5,109.5 357.5,109.5C 358.498,85.6725 358.831,61.6725 358.5,37.5C 359.5,37.5 360.5,37.5 361.5,37.5C 361.5,62.5 361.5,87.5 361.5,112.5C 358.482,112.665 355.482,112.498 352.5,112C 351.748,111.329 351.414,110.496 351.5,109.5 Z"/></g>
<g><path style="opacity:1" fill="#0c133b" d="M 481.5,37.5 C 482.5,37.5 483.5,37.5 484.5,37.5C 484.5,40.5 484.5,43.5 484.5,46.5C 476.5,46.5 468.5,46.5 460.5,46.5C 460.5,57.8333 460.5,69.1667 460.5,80.5C 460.5,83.8333 460.5,87.1667 460.5,90.5C 460.5,97.8333 460.5,105.167 460.5,112.5C 457.167,112.5 453.833,112.5 450.5,112.5C 450.5,111.5 450.5,110.5 450.5,109.5C 452.735,109.795 454.735,109.461 456.5,108.5C 456.5,86.8333 456.5,65.1667 456.5,43.5C 464.833,43.5 473.167,43.5 481.5,43.5C 481.5,41.5 481.5,39.5 481.5,37.5 Z"/></g>
<g><path style="opacity:1" fill="#acadaa" d="M 488.5,35.5 C 488.842,34.6618 489.508,34.3284 490.5,34.5C 493.167,34.5 495.833,34.5 498.5,34.5C 498.5,35.5 498.5,36.5 498.5,37.5C 498.5,58.5 498.5,79.5 498.5,100.5C 497.503,79.0064 497.169,57.3398 497.5,35.5C 494.5,35.5 491.5,35.5 488.5,35.5 Z"/></g>
<g><path style="opacity:1" fill="#000030" d="M 498.5,37.5 C 499.5,37.5 500.5,37.5 501.5,37.5C 501.5,58.5 501.5,79.5 501.5,100.5C 500.5,100.5 499.5,100.5 498.5,100.5C 498.5,79.5 498.5,58.5 498.5,37.5 Z"/></g>
<g><path style="opacity:1" fill="#040b35" d="M 181.5,45.5 C 175.255,43.8633 169.255,44.1966 163.5,46.5C 156.172,49.4351 151.338,54.7684 149,62.5C 146.806,71.9252 147.14,81.2586 150,90.5C 150.852,91.5707 151.685,92.5707 152.5,93.5C 152.5,94.1667 152.5,94.8333 152.5,95.5C 146.164,88.5019 143.164,80.1686 143.5,70.5C 144.994,48.8189 156.327,39.6522 177.5,43C 179.066,43.6082 180.4,44.4415 181.5,45.5 Z"/></g>
<g><path style="opacity:1" fill="#050c36" d="M 647.5,43.5 C 643.353,44.3247 639.019,44.8247 634.5,45C 627.146,47.5427 624.146,52.7093 625.5,60.5C 620.774,56.4424 620.274,51.7757 624,46.5C 631.167,40.9977 639.001,39.9977 647.5,43.5 Z"/></g>
<g><path style="opacity:1" fill="#081039" d="M 257.5,46.5 C 247.833,46.5 238.167,46.5 228.5,46.5C 228.5,53.8333 228.5,61.1667 228.5,68.5C 227.167,68.5 225.833,68.5 224.5,68.5C 224.5,60.1667 224.5,51.8333 224.5,43.5C 234.172,43.3335 243.839,43.5002 253.5,44C 255.32,44.2004 256.653,45.0337 257.5,46.5 Z"/></g>
<g><path style="opacity:1" fill="#010735" d="M 426.5,43.5 C 433.167,43.5 439.833,43.5 446.5,43.5C 446.5,44.5 446.5,45.5 446.5,46.5C 439.833,46.5 433.167,46.5 426.5,46.5C 426.5,45.5 426.5,44.5 426.5,43.5 Z"/></g>
<g><path style="opacity:1" fill="#1f3e6e" d="M 40.5,43.5 C 45.411,58.4724 49.411,73.8058 52.5,89.5C 43.3478,87.8418 36.1811,83.1751 31,75.5C 24.0227,61.6117 27.1894,50.945 40.5,43.5 Z"/></g>
<g><path style="opacity:1" fill="#133362" d="M 181.5,45.5 C 183.404,45.7376 184.738,46.7376 185.5,48.5C 180.089,61.5343 180.256,74.5343 186,87.5C 186.167,87 186.333,86.5 186.5,86C 184.703,79.9383 184.203,73.7716 185,67.5C 188.817,71.4685 191.317,76.1351 192.5,81.5C 189.243,97.146 179.577,103.979 163.5,102C 159.142,100.828 155.475,98.6611 152.5,95.5C 152.5,94.8333 152.5,94.1667 152.5,93.5C 161.67,78.9609 165.336,63.2942 163.5,46.5C 169.255,44.1966 175.255,43.8633 181.5,45.5 Z"/></g>
<g><path style="opacity:1" fill="#050c36" d="M 575.5,49.5 C 572.704,59.2213 569.704,68.8879 566.5,78.5C 564.801,78.6602 563.134,78.4935 561.5,78C 565.662,66.85 569.828,55.6834 574,44.5C 575.009,46.0249 575.509,47.6916 575.5,49.5 Z"/></g>
<g><path style="opacity:1" fill="#1e3e6e" d="M 163.5,46.5 C 165.336,63.2942 161.67,78.9609 152.5,93.5C 151.685,92.5707 150.852,91.5707 150,90.5C 147.14,81.2586 146.806,71.9252 149,62.5C 151.338,54.7684 156.172,49.4351 163.5,46.5 Z"/></g>
<g><path style="opacity:1" fill="#143464" d="M 257.5,46.5 C 260.702,48.5764 262.035,51.5764 261.5,55.5C 262.16,62.3358 259.16,66.5025 252.5,68C 244.507,68.4997 236.507,68.6664 228.5,68.5C 228.5,61.1667 228.5,53.8333 228.5,46.5C 238.167,46.5 247.833,46.5 257.5,46.5 Z"/></g>
<g><path style="opacity:1" fill="#081038" d="M 265.5,75.5 C 263.745,74.9278 262.078,74.0945 260.5,73C 264.612,71.2214 267.778,68.3881 270,64.5C 271.784,58.2017 271.95,51.8683 270.5,45.5C 270.81,44.2617 271.31,44.2617 272,45.5C 276.807,54.3113 276.474,62.978 271,71.5C 268.985,72.6966 267.151,74.0299 265.5,75.5 Z"/></g>
<g><path style="opacity:1" fill="#040a35" d="M 400.5,51.5 C 396.891,60.3866 393.558,69.3866 390.5,78.5C 389.167,78.5 387.833,78.5 386.5,78.5C 389.829,67.3473 393.662,56.3473 398,45.5C 399.663,47.1579 400.496,49.1579 400.5,51.5 Z"/></g>
<g><path style="opacity:1" fill="#133363" d="M 484.5,46.5 C 487.349,65.4638 479.349,76.7972 460.5,80.5C 460.5,69.1667 460.5,57.8333 460.5,46.5C 468.5,46.5 476.5,46.5 484.5,46.5 Z"/></g>
<g><path style="opacity:1" fill="#020432" d="M 662.5,43.5 C 666.694,47.9078 668.694,53.2411 668.5,59.5C 665.5,59.5 662.5,59.5 659.5,59.5C 659.5,58.5 659.5,57.5 659.5,56.5C 661.5,56.5 663.5,56.5 665.5,56.5C 665.283,51.9672 664.283,47.6339 662.5,43.5 Z"/></g>
<g><path style="opacity:1" fill="#08143c" d="M 88.5,60.5 C 87.9655,65.5691 85.7989,69.9025 82,73.5C 81.4424,76.9338 80.609,80.2672 79.5,83.5C 76.9743,92.7434 74.3077,102.077 71.5,111.5C 68.2317,112.487 64.8984,112.82 61.5,112.5C 61.5,111.5 61.5,110.5 61.5,109.5C 63.8333,109.5 66.1667,109.5 68.5,109.5C 73.3733,88.6738 78.8733,68.0072 85,47.5C 86.6358,51.7102 87.8025,56.0436 88.5,60.5 Z"/></g>
<g><path style="opacity:1" fill="#9a9a9c" d="M 295.5,50.5 C 294.503,69.9929 294.17,89.6596 294.5,109.5C 292.5,109.5 290.5,109.5 288.5,109.5C 287.833,109.5 287.167,109.5 286.5,109.5C 285.508,109.672 284.842,109.338 284.5,108.5C 287.5,108.5 290.5,108.5 293.5,108.5C 293.333,88.1639 293.5,67.8306 294,47.5C 294.513,48.5266 295.013,49.5266 295.5,50.5 Z"/></g>
<g><path style="opacity:1" fill="#000231" d="M 295.5,50.5 C 296.167,52.8333 296.833,55.1667 297.5,57.5C 297.5,75.8333 297.5,94.1667 297.5,112.5C 294.5,112.5 291.5,112.5 288.5,112.5C 288.5,111.5 288.5,110.5 288.5,109.5C 290.5,109.5 292.5,109.5 294.5,109.5C 294.17,89.6596 294.503,69.9929 295.5,50.5 Z"/></g>
<g><path style="opacity:1" fill="#163463" d="M 575.5,49.5 C 579.603,58.8045 582.936,68.4712 585.5,78.5C 579.167,78.5 572.833,78.5 566.5,78.5C 569.704,68.8879 572.704,59.2213 575.5,49.5 Z"/></g>
<g><path style="opacity:1" fill="#040b36" d="M 348.5,60.5 C 341.731,77.2948 335.231,94.2948 329,111.5C 326.205,112.783 323.372,112.783 320.5,111.5C 320.137,110.817 319.804,110.15 319.5,109.5C 322.079,109.917 324.246,109.25 326,107.5C 333.53,87.9107 340.863,68.244 348,48.5C 348.499,52.4862 348.666,56.4862 348.5,60.5 Z"/></g>
<g><path style="opacity:1" fill="#264473" d="M 185.5,48.5 C 190.31,53.0459 193.143,58.7126 194,65.5C 194.742,71.0772 194.242,76.4105 192.5,81.5C 191.317,76.1351 188.817,71.4685 185,67.5C 184.203,73.7716 184.703,79.9383 186.5,86C 186.333,86.5 186.167,87 186,87.5C 180.256,74.5343 180.089,61.5343 185.5,48.5 Z"/></g>
<g><path style="opacity:1" fill="#040b35" d="M 202.5,53.5 C 207.454,63.6493 208.787,74.316 206.5,85.5C 204.738,93.0241 201.405,99.6907 196.5,105.5C 186.985,112.377 176.318,114.877 164.5,113C 161.401,112.613 158.734,111.446 156.5,109.5C 173.64,114.102 187.473,109.435 198,95.5C 206.79,79.3592 206.623,63.3592 197.5,47.5C 197.81,46.2617 198.31,46.2617 199,47.5C 200.394,49.3875 201.56,51.3875 202.5,53.5 Z"/></g>
<g><path style="opacity:1" fill="#040c37" d="M 405.5,37.5 C 407.5,37.5 408.5,38.5 408.5,40.5C 417.324,63.6496 426.324,86.6496 435.5,109.5C 435.5,110.5 435.5,111.5 435.5,112.5C 432.15,112.665 428.817,112.498 425.5,112C 424.748,111.329 424.414,110.496 424.5,109.5C 427.247,109.813 429.914,109.48 432.5,108.5C 423.297,84.8876 414.297,61.221 405.5,37.5 Z"/></g>
<g><path style="opacity:1" fill="#1e3d6c" d="M 400.5,51.5 C 404.001,59.9892 407.335,68.6558 410.5,77.5C 403.866,78.4967 397.2,78.83 390.5,78.5C 393.558,69.3866 396.891,60.3866 400.5,51.5 Z"/></g>
<g><path style="opacity:1" fill="#050e38" d="M 299.5,37.5 C 301.411,37.5743 302.578,38.5743 303,40.5C 309.278,58.0311 315.778,75.3644 322.5,92.5C 322.291,93.9217 321.791,95.255 321,96.5C 313.728,76.8481 306.561,57.1814 299.5,37.5 Z"/></g>
<g><path style="opacity:1" fill="#010433" d="M 225.5,77.5 C 235.219,77.2181 244.886,77.5514 254.5,78.5C 246.231,80.4698 237.565,81.1364 228.5,80.5C 228.5,89.1667 228.5,97.8333 228.5,106.5C 228.5,108.5 228.5,110.5 228.5,112.5C 226.833,112.5 225.167,112.5 223.5,112.5C 222.833,112.5 222.167,112.5 221.5,112.5C 220.1,111.9 219.1,110.9 218.5,109.5C 220.833,109.5 223.167,109.5 225.5,109.5C 225.5,98.8333 225.5,88.1667 225.5,77.5 Z"/></g>
<g><path style="opacity:1" fill="#143463" d="M 284.5,45.5 C 284.5,66.5 284.5,87.5 284.5,108.5C 284.842,109.338 285.508,109.672 286.5,109.5C 266.889,116.612 247.556,115.612 228.5,106.5C 228.5,97.8333 228.5,89.1667 228.5,80.5C 237.565,81.1364 246.231,80.4698 254.5,78.5C 256.504,79.6728 258.004,81.3395 259,83.5C 261.033,91.0086 262.033,98.6752 262,106.5C 262.422,108.426 263.589,109.426 265.5,109.5C 265.611,110.117 265.944,110.617 266.5,111C 270.167,111.667 273.833,111.667 277.5,111C 276.283,109.352 275.45,107.519 275,105.5C 275.173,97.2338 273.84,89.2338 271,81.5C 270.292,80.6195 269.458,79.9528 268.5,79.5C 267.512,78.205 266.512,76.8717 265.5,75.5C 267.151,74.0299 268.985,72.6966 271,71.5C 276.474,62.978 276.807,54.3113 272,45.5C 271.31,44.2617 270.81,44.2617 270.5,45.5C 266.834,38.8467 261.168,35.5134 253.5,35.5C 241.678,34.5049 229.678,34.1716 217.5,34.5C 223.276,29.727 229.942,26.5603 237.5,25C 258.098,20.9736 273.764,27.8069 284.5,45.5 Z"/></g>
<g><path style="opacity:1" fill="#040b36" d="M 665.5,77.5 C 666.778,77.7822 667.778,78.4489 668.5,79.5C 669.866,82.232 671.199,84.8987 672.5,87.5C 672.109,101.554 665.109,110.22 651.5,113.5C 645.824,113.666 640.157,113.499 634.5,113C 631.401,112.613 628.734,111.446 626.5,109.5C 634.131,110.564 641.798,110.731 649.5,110C 666.511,104.812 671.845,93.9786 665.5,77.5 Z"/></g>
<g><path style="opacity:1" fill="#030835" d="M 268.5,79.5 C 269.458,79.9528 270.292,80.6195 271,81.5C 273.84,89.2338 275.173,97.2338 275,105.5C 275.45,107.519 276.283,109.352 277.5,111C 273.833,111.667 270.167,111.667 266.5,111C 265.944,110.617 265.611,110.117 265.5,109.5C 268.518,109.665 271.518,109.498 274.5,109C 273.283,107.352 272.45,105.519 272,103.5C 271.112,95.4331 269.945,87.4331 268.5,79.5 Z"/></g>
<g><path style="opacity:1" fill="#2d4c7b" d="M 88.5,60.5 C 90.3413,66.0327 92.0079,71.6994 93.5,77.5C 89.4602,80.8646 85.1269,83.8646 80.5,86.5C 79.6143,85.675 79.281,84.675 79.5,83.5C 80.609,80.2672 81.4424,76.9338 82,73.5C 85.7989,69.9025 87.9655,65.5691 88.5,60.5 Z"/></g>
<g><path style="opacity:1" fill="#040c37" d="M 586.5,45.5 C 594.64,67.9225 602.974,90.2558 611.5,112.5C 608.833,112.5 606.167,112.5 603.5,112.5C 602.5,112.5 601.5,112.5 600.5,112.5C 600.5,111.5 600.5,110.5 600.5,109.5C 602.833,109.5 605.167,109.5 607.5,109.5C 599.236,85.709 590.569,62.0423 581.5,38.5C 582.077,37.2267 582.743,37.2267 583.5,38.5C 584.33,41.0164 585.33,43.3498 586.5,45.5 Z"/></g>
<g><path style="opacity:1" fill="#091139" d="M 413.5,87.5 C 404.713,89.156 395.713,90.156 386.5,90.5C 383.262,97.5406 380.595,104.874 378.5,112.5C 375.167,112.5 371.833,112.5 368.5,112.5C 368.5,111.5 368.5,110.5 368.5,109.5C 370.792,109.756 372.959,109.423 375,108.5C 377.808,101.243 380.308,93.9099 382.5,86.5C 393.014,86.1724 403.347,86.5058 413.5,87.5 Z"/></g>
<g><path style="opacity:1" fill="#091239" d="M 589.5,88.5 C 580.348,89.4936 571.015,89.8269 561.5,89.5C 559.308,96.9099 556.808,104.243 554,111.5C 550.545,112.791 547.045,112.791 543.5,111.5C 543.863,110.817 544.196,110.15 544.5,109.5C 546.5,109.5 548.5,109.5 550.5,109.5C 552.738,101.856 555.404,94.3559 558.5,87C 563.667,86.8333 568.833,86.6667 574,86.5C 579.546,86.5054 584.712,87.1721 589.5,88.5 Z"/></g>
<g><path style="opacity:1" fill="#203f6f" d="M 133.5,76.5 C 134.762,86.3614 138.762,95.028 145.5,102.5C 129.721,118.394 110.721,128.56 88.5,133C 53.5614,139.185 23.8948,129.685 -0.5,104.5C -0.5,99.5 -0.5,94.5 -0.5,89.5C 4.07516,99.5827 10.7418,108.083 19.5,115C 46.352,129.717 74.0187,131.383 102.5,120C 106.894,118.418 110.561,115.918 113.5,112.5C 115.136,111.251 116.303,109.584 117,107.5C 118.508,102.132 120.008,96.7987 121.5,91.5C 126.301,87.0438 130.301,82.0438 133.5,76.5 Z"/></g>
<g><path style="opacity:1" fill="#aab4b3" d="M 446.5,43.5 C 447.497,64.9936 447.831,86.6602 447.5,108.5C 450.5,108.5 453.5,108.5 456.5,108.5C 454.735,109.461 452.735,109.795 450.5,109.5C 449.167,109.5 447.833,109.5 446.5,109.5C 446.5,88.5 446.5,67.5 446.5,46.5C 446.5,45.5 446.5,44.5 446.5,43.5 Z"/></g>
<g><path style="opacity:1" fill="#1e3e6e" d="M 26.5,102.5 C 50.7362,117.197 75.4029,118.197 100.5,105.5C 101.434,106.568 101.768,107.901 101.5,109.5C 102.833,109.5 104.167,109.5 105.5,109.5C 105.5,110.167 105.5,110.833 105.5,111.5C 78.8986,124.58 52.2319,124.747 25.5,112C 20.7344,109.403 16.7344,105.903 13.5,101.5C 12.675,100.614 11.675,100.281 10.5,100.5C 9.44335,98.0587 8.11002,95.7254 6.5,93.5C 7.26972,91.7282 8.60305,90.7282 10.5,90.5C 12.8655,91.0305 14.8655,92.1972 16.5,94C 15.8333,94.3333 15.1667,94.6667 14.5,95C 18.3961,97.7423 22.3961,100.242 26.5,102.5 Z"/></g>
<g><path style="opacity:1" fill="#1c3b6b" d="M 297.5,57.5 C 304.354,74.5601 310.687,91.8935 316.5,109.5C 317.5,109.5 318.5,109.5 319.5,109.5C 319.804,110.15 320.137,110.817 320.5,111.5C 323.372,112.783 326.205,112.783 329,111.5C 335.231,94.2948 341.731,77.2948 348.5,60.5C 348.5,76.8333 348.5,93.1667 348.5,109.5C 347.674,104.684 347.174,99.6835 347,94.5C 331.102,115.047 310.268,127.88 284.5,133C 249.958,139.537 220.625,130.37 196.5,105.5C 201.405,99.6907 204.738,93.0241 206.5,85.5C 208.932,88.6881 211.599,91.6881 214.5,94.5C 214.5,99.5 214.5,104.5 214.5,109.5C 215.833,109.5 217.167,109.5 218.5,109.5C 219.1,110.9 220.1,111.9 221.5,112.5C 225.418,115.796 230.418,118.296 236.5,120C 262.293,125.979 286.627,122.312 309.5,109C 310.696,108.346 310.696,107.846 309.5,107.5C 287.325,120.538 263.658,124.371 238.5,119C 233.027,117.684 228.027,115.518 223.5,112.5C 225.167,112.5 226.833,112.5 228.5,112.5C 228.5,110.5 228.5,108.5 228.5,106.5C 247.556,115.612 266.889,116.612 286.5,109.5C 287.167,109.5 287.833,109.5 288.5,109.5C 288.5,110.5 288.5,111.5 288.5,112.5C 291.5,112.5 294.5,112.5 297.5,112.5C 297.5,94.1667 297.5,75.8333 297.5,57.5 Z"/></g>
<g><path style="opacity:1" fill="#1b3c6c" d="M 413.5,87.5 C 416.138,94.401 418.805,101.401 421.5,108.5C 422.325,109.386 423.325,109.719 424.5,109.5C 424.414,110.496 424.748,111.329 425.5,112C 428.817,112.498 432.15,112.665 435.5,112.5C 435.5,111.5 435.5,110.5 435.5,109.5C 443.889,112.51 452.555,113.844 461.5,113.5C 470.741,114.118 479.408,112.451 487.5,108.5C 487.833,108.5 488.167,108.5 488.5,108.5C 489.209,109.404 490.209,109.737 491.5,109.5C 491.5,110.5 491.5,111.5 491.5,112.5C 503.833,112.5 516.167,112.5 528.5,112.5C 518.374,120.566 507.041,126.566 494.5,130.5C 494.083,129.876 493.416,129.543 492.5,129.5C 461.868,138.031 433.535,133.365 407.5,115.5C 398.399,108.985 391.399,100.651 386.5,90.5C 395.713,90.156 404.713,89.156 413.5,87.5 Z"/></g>
<g><path style="opacity:1" fill="#010836" d="M 540.5,106.5 C 540.5,107.5 540.5,108.5 540.5,109.5C 540.5,110.5 540.5,111.5 540.5,112.5C 536.5,112.5 532.5,112.5 528.5,112.5C 516.167,112.5 503.833,112.5 491.5,112.5C 491.5,111.5 491.5,110.5 491.5,109.5C 506.5,109.5 521.5,109.5 536.5,109.5C 537.461,107.735 537.795,105.735 537.5,103.5C 538.5,103.5 539.5,103.5 540.5,103.5C 540.5,104.5 540.5,105.5 540.5,106.5 Z"/></g>
<g><path style="opacity:1" fill="#416393" d="M 221.5,112.5 C 222.167,112.5 222.833,112.5 223.5,112.5C 228.027,115.518 233.027,117.684 238.5,119C 263.658,124.371 287.325,120.538 309.5,107.5C 310.696,107.846 310.696,108.346 309.5,109C 286.627,122.312 262.293,125.979 236.5,120C 230.418,118.296 225.418,115.796 221.5,112.5 Z"/></g>
<g><path style="opacity:1" fill="#5376a6" d="M 10.5,100.5 C 11.675,100.281 12.675,100.614 13.5,101.5C 16.7344,105.903 20.7344,109.403 25.5,112C 52.2319,124.747 78.8986,124.58 105.5,111.5C 104.177,113.686 102.177,115.186 99.5,116C 88.0911,120.485 76.2578,122.985 64,123.5C 42.5043,123.824 24.6709,116.157 10.5,100.5 Z"/></g>
<g><path style="opacity:1" fill="#2c4d7d" d="M 407.5,115.5 C 433.535,133.365 461.868,138.031 492.5,129.5C 493.416,129.543 494.083,129.876 494.5,130.5C 479.404,134.269 464.07,135.436 448.5,134C 433.003,131.579 419.336,125.413 407.5,115.5 Z"/></g>
</svg>
