<svg xmlns="http://www.w3.org/2000/svg" width="704" height="144" style="shape-rendering:geometricPrecision;text-rendering:geometricPrecision;image-rendering:optimizeQuality;fill-rule:evenodd;clip-rule:evenodd"><path style="opacity:1" fill="#123262" d="M-.5-.5h704v103c-13.138 7.046-27.138 11.046-42 12-3.341-.336-6.675-.669-10-1 13.609-3.28 20.609-11.946 21-26 23.44-11.21 29.607-28.543 18.5-52-14.308-19.224-33.475-27.058-57.5-23.5-21.472 3.371-37.138 14.538-47 33.5-1.17-2.15-2.17-4.484-3-7-.757-1.273-1.423-1.273-2 0a19.588 19.588 0 0 1-2-3.5 30.499 30.499 0 0 0-11 0 769.022 769.022 0 0 0-8 20.5c-.208-12.182-3.041-23.848-8.5-35-1.389-1.727-3.056-3.06-5-4-1.555 1.646-3.221 1.98-5 1-1.261.26-2.261.926-3 2-2.994-1.39-4.994-.39-6 3l-.5 5.5c7.954 29.963-.713 54.13-26 72.5h-5v-63h-3v-3h-8c-11.08-15.457-26.247-23.124-45.5-23-20.605.224-37.772 7.89-51.5 23a2430.12 2430.12 0 0 0-29 74c1.189.929 2.522 1.262 4 1v3h10a143.589 143.589 0 0 1 8-22c4.899 10.151 11.899 18.485 21 25 11.836 9.913 25.503 16.079 41 18.5 15.57 1.436 30.904.269 46-3.5 12.541-3.934 23.874-9.934 34-18h12v-3h4c-.304.65-.637 1.317-1 2 3.545 1.291 7.045 1.291 10.5 0a284.885 284.885 0 0 0 7.5-22c9.515.327 18.848-.006 28-1a673.724 673.724 0 0 1 7.5 20c1.011.837 2.178 1.17 3.5 1v3h3c12.486 11.905 27.486 19.072 45 21.5 9.667.667 19.333.667 29 0a185.412 185.412 0 0 0 26-6.5v16H-.5v-39c24.395 25.185 54.061 34.685 89 28.5 22.221-4.44 41.221-14.606 57-30.5a96.576 96.576 0 0 0 11 7c2.234 1.946 4.901 3.113 8 3.5 11.818 1.877 22.485-.623 32-7.5 24.125 24.87 53.458 34.037 88 27.5 25.768-5.12 46.602-17.953 62.5-38.5.174 5.183.674 10.184 1.5 15h3c-.086.996.248 1.829 1 2.5 2.982.498 5.982.665 9 .5v-75h-3c.331 24.172-.002 48.172-1 72v-75c-4.599-.3-9.099.033-13.5 1a103591.91 103591.91 0 0 0-21.5 57 1853.829 1853.829 0 0 1-19.5-52c-.422-1.926-1.589-2.926-3.5-3-1.886-2.6-4.552-3.6-8-3-14.432-18.533-33.432-26.033-57-22.5-18.418 3.365-33.084 12.532-44 27.5-8.87-5.42-18.536-7.42-29-6-.48-5.46-2.48-10.293-6-14.5-5.284-2.025-10.617-1.691-16 1-1.977 2.26-2.977 4.927-3 8a125.477 125.477 0 0 1 3 20.5c-4.422 8.776-6.422 18.11-6 28-3.199 5.544-7.199 10.544-12 15a619.645 619.645 0 0 1 14-53c-1.189-.929-2.522-1.262-4-1v-3h-10c-4.207 18.367-8.54 36.7-13 55-2.637-8.92-5.304-17.92-8-27 3.039-18.435-3.628-32.602-20-42.5C50.558 5.356 23.558 9.523-.5 32.5v-33z"/><path style="opacity:1" fill="#203f6f" d="M291.5 34.5h-7v11c-10.736-17.693-26.402-24.526-47-20.5-7.558 1.56-14.224 4.727-20 9.5h-3v3c-5.46 4.26-9.46 9.593-12 16a31.91 31.91 0 0 0-3.5-6c-.69-1.238-1.19-1.238-1.5 0a3669.943 3669.943 0 0 0-7-8c10.916-14.968 25.582-24.135 44-27.5 23.568-3.533 42.568 3.967 57 22.5z"/><path style="opacity:1" fill="#264576" d="M100.5 62.5a161.35 161.35 0 0 0-7-24c-.607.124-.94.457-1 1a36.213 36.213 0 0 1-2-4.5c-3.755-.755-7.422-.589-11 .5-.01-1.517-.677-2.684-2-3.5C53.378 18.77 31.878 22.27 13 42.5c-10.038 15.696-9.705 31.362 1 47a77.149 77.149 0 0 0 12.5 13 128.259 128.259 0 0 1-12-7.5l2-1c-1.634-1.803-3.634-2.97-6-3.5-1.897.228-3.23 1.228-4 3a36.982 36.982 0 0 1 4 7c14.17 15.657 32.004 23.324 53.5 23a108.855 108.855 0 0 0 35.5-7.5c2.677-.814 4.677-2.314 6-4.5a24.93 24.93 0 0 0 8 1c-2.939 3.418-6.606 5.918-11 7.5-28.481 11.383-56.148 9.717-83-5-8.758-6.917-15.425-15.417-20-25.5v-57C23.558 9.523 50.558 5.356 80.5 20c16.372 9.898 23.039 24.065 20 42.5z"/><path style="opacity:1" fill="#1f3e6e" d="M490.5 34.5c-.992-.172-1.658.162-2 1v73h-1c.166-10.006 0-20.006-.5-30-7.395 7.113-16.229 11.113-26.5 12v-10c18.849-3.703 26.849-15.036 24-34v-9h-3v-3h-6c-13.85-10.808-29.183-13.308-46-7.5-7.707 3.567-14.707 8.067-21 13.5 0-2-1-3-3-3-.904-.709-1.237-1.709-1-3h-11c13.728-15.11 30.895-22.776 51.5-23 19.253-.124 34.42 7.543 45.5 23z"/><path style="opacity:1" fill="#193969" d="M560.5 55.5a1750.048 1750.048 0 0 1-20 51v-3h-3c.295 2.235-.039 4.235-1 6v-9h-30c25.287-18.37 33.954-42.537 26-72.5l.5-5.5c1.006-3.39 3.006-4.39 6-3 .739-1.074 1.739-1.74 3-2 1.779.98 3.445.646 5-1 1.944.94 3.611 2.273 5 4 5.459 11.152 8.292 22.818 8.5 35z"/><path style="opacity:1" fill="#183868" d="m672.5 87.5-4-8c21.125-14.088 22.458-29.921 4-47.5-18.42-11.461-36.754-11.128-55 1-17.259 13.536-21.426 30.37-12.5 50.5 1.277 2.247 2.777 4.247 4.5 6 2.104 9.765 7.77 16.432 17 20 2.234 1.946 4.901 3.113 8 3.5 5.657.499 11.324.666 17 .5 3.325.331 6.659.664 10 1 14.862-.954 28.862-4.954 42-12v25a185.412 185.412 0 0 1-26 6.5c-9.667.667-19.333.667-29 0-17.514-2.428-32.514-9.595-45-21.5h8a4020.743 4020.743 0 0 1-25-67c9.862-18.962 25.528-30.129 47-33.5 24.025-3.558 43.192 4.276 57.5 23.5 11.107 23.457 4.94 40.79-18.5 52z"/><path style="opacity:1" fill="#1f3e6e" d="M161.5 33.5c-9.08 2.532-16.413 7.532-22 15a125.477 125.477 0 0 0-3-20.5c.023-3.073 1.023-5.74 3-8 5.383-2.691 10.716-3.025 16-1 3.52 4.207 5.52 9.04 6 14.5z"/><path style="opacity:1" fill="#133362" d="M79.5 35.5a1106.372 1106.372 0 0 1-15 55 729.208 729.208 0 0 0-11.5-52c-.67-.752-1.504-1.086-2.5-1-.904-.709-1.237-1.709-1-3h-10c.204 3.018.537 6.018 1 9-13.31 7.445-16.477 18.112-9.5 32 5.181 7.675 12.348 12.342 21.5 14 2.268 6.406 3.935 13.073 5 20h4v3c3.398.32 6.732-.013 10-1a1274.354 1274.354 0 0 0 8-28c-.219 1.175.114 2.175 1 3a89.422 89.422 0 0 0 13-9 429.466 429.466 0 0 1 7 28c-25.097 12.697-49.764 11.697-74-3a77.149 77.149 0 0 1-12.5-13c-10.705-15.638-11.038-31.304-1-47C31.878 22.27 53.378 18.77 77.5 32c1.323.816 1.99 1.983 2 3.5z"/><path style="opacity:1" fill="#133363" d="M475.5 34.5a702.833 702.833 0 0 0-53 1v8h4v3h20v63h4v3h10v-22c10.271-.887 19.105-4.887 26.5-12 .5 9.994.666 19.994.5 30-8.092 3.951-16.759 5.618-26 5-8.945.344-17.611-.99-26-4a4189.386 4189.386 0 0 1-27-69c6.293-5.433 13.293-9.933 21-13.5 16.817-5.808 32.15-3.308 46 7.5z"/><path style="opacity:1" fill="#143262" d="M668.5 79.5c-.722-1.051-1.722-1.718-3-2-2.963-3.451-6.63-5.951-11-7.5a219.183 219.183 0 0 0-20-5c-3.535-.663-6.535-2.163-9-4.5-1.354-7.79 1.646-12.957 9-15.5 4.519-.175 8.853-.675 13-1.5 5.108 2.786 7.775 7.119 8 13h4v3h9c.194-6.259-1.806-11.592-6-16-13.4-12.84-28.067-14.34-44-4.5-8.844 9.416-9.177 19.083-1 29a164.178 164.178 0 0 0 34 11c8.546 5.83 9.213 12.497 2 20-10.737 5.409-20.904 4.575-30.5-2.5-2.677-3.534-3.844-7.534-3.5-12h-10v5c-1.723-1.753-3.223-3.753-4.5-6-8.926-20.13-4.759-36.964 12.5-50.5 18.246-12.128 36.58-12.461 55-1 18.458 17.579 17.125 33.412-4 47.5z"/><path style="opacity:1" fill="#f7f8e3" d="M161.5 33.5c10.464-1.42 20.13.58 29 6 2.362 2.692 4.696 5.359 7 8 9.123 15.86 9.29 31.86.5 48-10.527 13.935-24.36 18.602-41.5 14a96.576 96.576 0 0 1-11-7c-6.738-7.472-10.738-16.139-12-26-.422-9.89 1.578-19.224 6-28 5.587-7.468 12.92-12.468 22-15z"/><path style="opacity:1" fill="#f7f7e2" d="M662.5 43.5a37.028 37.028 0 0 1 3 13h-10c-.225-5.881-2.892-10.214-8-13-8.499-3.502-16.333-2.502-23.5 3-3.726 5.276-3.226 9.942 1.5 14 2.465 2.337 5.465 3.837 9 4.5a219.183 219.183 0 0 1 20 5c4.37 1.549 8.037 4.049 11 7.5 6.345 16.479 1.011 27.312-16 32.5a98.558 98.558 0 0 1-23-.5c-9.23-3.568-14.896-10.235-17-20v-5h10c-.344 4.466.823 8.466 3.5 12 9.596 7.075 19.763 7.909 30.5 2.5 7.213-7.503 6.546-14.17-2-20a164.178 164.178 0 0 1-34-11c-8.177-9.917-7.844-19.584 1-29 15.933-9.84 30.6-8.34 44 4.5z"/><path style="opacity:1" fill="#c2c8c1" d="M422.5 35.5a702.833 702.833 0 0 1 53-1h6v9h-25c7.816-.992 15.816-1.326 24-1v-7h-58z"/><path style="opacity:1" fill="#f6f6e2" d="M50.5 37.5a708.788 708.788 0 0 0 13.5 57 8.434 8.434 0 0 0 .5-4 1106.372 1106.372 0 0 0 15-55c3.578-1.089 7.245-1.255 11-.5a36.213 36.213 0 0 0 2 4.5c4.517 18.733 9.35 37.4 14.5 56l1.5-6c4.46-18.3 8.793-36.633 13-55h10v3a1111.512 1111.512 0 0 0-19 72h-11c.268-1.599-.066-2.932-1-4a429.466 429.466 0 0 0-7-28 254.975 254.975 0 0 0-5-17 62.464 62.464 0 0 0-3.5-13 1061.175 1061.175 0 0 0-16.5 62h-11c-1.065-6.927-2.732-13.594-5-20a387.638 387.638 0 0 0-12-46 104.613 104.613 0 0 1-1-9h10c-.237 1.291.096 2.291 1 3z"/><path style="opacity:1" fill="#f9fae4" d="M253.5 35.5c7.668.013 13.334 3.347 17 10 1.45 6.368 1.284 12.702-.5 19-2.222 3.888-5.388 6.721-9.5 8.5a19.168 19.168 0 0 0 5 2.5 310.678 310.678 0 0 0 3 4 343.824 343.824 0 0 1 3.5 24 14.444 14.444 0 0 0 2.5 5.5 40.914 40.914 0 0 1-9 .5c-1.911-.074-3.078-1.074-3.5-3a86.216 86.216 0 0 0-3-23c-.996-2.16-2.496-3.827-4.5-5a227.788 227.788 0 0 0-29-1c-.994 10.153-1.328 20.487-1 31h-9v-73h38z"/><path style="opacity:1" fill="#f9f9e4" d="M291.5 34.5c3.448-.6 6.114.4 8 3a6308.806 6308.806 0 0 0 21.5 59 10.136 10.136 0 0 0 1.5-4 103591.91 103591.91 0 0 1 21.5-57c4.401-.967 8.901-1.3 13.5-1v75h-9v-49a72.368 72.368 0 0 0-.5-12 3129.894 3129.894 0 0 1-22 59c-1.754 1.75-3.921 2.417-6.5 2h-3a876.96 876.96 0 0 0-19-52l-2-7-1.5-3c-.5 20.33-.667 40.664-.5 61h-9v-74h7z"/><path style="opacity:1" fill="#f7f7e2" d="M393.5 34.5h11c-.237 1.291.096 2.291 1 3a4600.382 4600.382 0 0 0 27 71 16.873 16.873 0 0 1-8 1c-1.175.219-2.175-.114-3-1a9774.276 9774.276 0 0 0-8-21c-10.153-.994-20.486-1.328-31-1a284.885 284.885 0 0 1-7.5 22c-2.041.923-4.208 1.256-6.5 1-1.478.262-2.811-.071-4-1a2430.12 2430.12 0 0 1 29-74z"/><path style="opacity:1" fill="#fdfde6" d="M422.5 35.5h58v7c-8.184-.326-16.184.008-24 1v65h-9c.331-21.84-.003-43.506-1-65h-24v-8z"/><path style="opacity:1" fill="#f8f9e3" d="M488.5 35.5h9c-.331 21.84.003 43.506 1 65h38v9h-45c-1.291.237-2.291-.096-3-1v-73z"/><path style="opacity:1" fill="#f7f8e2" d="M581.5 38.5a2264.954 2264.954 0 0 1 26 71h-7c-1.322.17-2.489-.163-3.5-1a673.724 673.724 0 0 0-7.5-20c-4.788-1.328-9.954-1.995-15.5-2l-15.5.5a210.221 210.221 0 0 0-8 22.5h-10v-3a1750.048 1750.048 0 0 0 20-51 769.022 769.022 0 0 1 8-20.5 30.499 30.499 0 0 1 11 0 19.588 19.588 0 0 0 2 3.5z"/><path style="opacity:1" fill="#949fa4" d="M217.5 34.5c12.178-.328 24.178.005 36 1h-38v73h9c-.328-10.513.006-20.847 1-31v32h-11v-75h3z"/><path style="opacity:1" fill="#123161" d="M214.5 37.5v57a80.605 80.605 0 0 1-8-9c2.287-11.184.954-21.85-4-32 2.54-6.407 6.54-11.74 12-16z"/><path style="opacity:1" fill="#020935" d="M50.5 37.5c.996-.086 1.83.248 2.5 1a729.208 729.208 0 0 1 11.5 52 8.434 8.434 0 0 1-.5 4 708.788 708.788 0 0 1-13.5-57z"/><path style="opacity:1" fill="#030b36" d="M100.5 62.5c2.696 9.08 5.363 18.08 8 27l-1.5 6c-5.15-18.6-9.983-37.267-14.5-56 .06-.543.393-.876 1-1a161.35 161.35 0 0 1 7 24z"/><path style="opacity:1" fill="#071038" d="M131.5 37.5c1.478-.262 2.811.071 4 1a619.645 619.645 0 0 0-14 53c-1.492 5.299-2.992 10.632-4.5 16-.697 2.084-1.864 3.751-3.5 5a24.93 24.93 0 0 1-8-1v-2h7a1111.512 1111.512 0 0 1 19-72z"/><path style="opacity:1" fill="#010333" d="M351.5 109.5h6a1296.165 1296.165 0 0 0 1-72h3v75a40.914 40.914 0 0 1-9-.5c-.752-.671-1.086-1.504-1-2.5z"/><path style="opacity:1" fill="#0c133b" d="M481.5 37.5h3v9h-24v66h-10v-3c2.235.295 4.235-.039 6-1v-65h25v-6z"/><path style="opacity:1" fill="#acadaa" d="M488.5 35.5c.342-.838 1.008-1.172 2-1h8v66a1056.866 1056.866 0 0 1-1-65h-9z"/><path style="opacity:1" fill="#000030" d="M498.5 37.5h3v63h-3v-63z"/><path style="opacity:1" fill="#040b35" d="M181.5 45.5c-6.245-1.637-12.245-1.303-18 1-7.328 2.935-12.162 8.268-14.5 16-2.194 9.425-1.86 18.759 1 28a81.819 81.819 0 0 0 2.5 3v2c-6.336-6.998-9.336-15.331-9-25 1.494-21.681 12.827-30.848 34-27.5 1.566.608 2.9 1.441 4 2.5z"/><path style="opacity:1" fill="#050c36" d="M647.5 43.5c-4.147.825-8.481 1.325-13 1.5-7.354 2.543-10.354 7.71-9 15.5-4.726-4.058-5.226-8.724-1.5-14 7.167-5.502 15.001-6.502 23.5-3z"/><path style="opacity:1" fill="#081039" d="M257.5 46.5h-29v22h-4v-25c9.672-.166 19.339 0 29 .5 1.82.2 3.153 1.034 4 2.5z"/><path style="opacity:1" fill="#010735" d="M426.5 43.5h20v3h-20v-3z"/><path style="opacity:1" fill="#1f3e6e" d="M40.5 43.5a387.638 387.638 0 0 1 12 46c-9.152-1.658-16.319-6.325-21.5-14-6.977-13.888-3.81-24.555 9.5-32z"/><path style="opacity:1" fill="#133362" d="M181.5 45.5c1.904.238 3.238 1.238 4 3-5.411 13.034-5.244 26.034.5 39l.5-1.5a44.613 44.613 0 0 1-1.5-18.5c3.817 3.969 6.317 8.635 7.5 14-3.257 15.646-12.923 22.479-29 20.5-4.358-1.172-8.025-3.339-11-6.5v-2c9.17-14.54 12.836-30.206 11-47 5.755-2.303 11.755-2.637 18-1z"/><path style="opacity:1" fill="#050c36" d="M575.5 49.5a728.3 728.3 0 0 1-9 29 12.935 12.935 0 0 1-5-.5c4.162-11.15 8.328-22.317 12.5-33.5 1.009 1.525 1.509 3.192 1.5 5z"/><path style="opacity:1" fill="#1e3e6e" d="M163.5 46.5c1.836 16.794-1.83 32.46-11 47a81.819 81.819 0 0 1-2.5-3c-2.86-9.241-3.194-18.575-1-28 2.338-7.732 7.172-13.065 14.5-16z"/><path style="opacity:1" fill="#143464" d="M257.5 46.5c3.202 2.076 4.535 5.076 4 9 .66 6.836-2.34 11.002-9 12.5-7.993.5-15.993.666-24 .5v-22h29z"/><path style="opacity:1" fill="#081038" d="M265.5 75.5a19.168 19.168 0 0 1-5-2.5c4.112-1.779 7.278-4.612 9.5-8.5 1.784-6.298 1.95-12.632.5-19 .31-1.238.81-1.238 1.5 0 4.807 8.811 4.474 17.478-1 26a35.491 35.491 0 0 0-5.5 4z"/><path style="opacity:1" fill="#040a35" d="M400.5 51.5a464.17 464.17 0 0 0-10 27h-4a386.68 386.68 0 0 1 11.5-33c1.663 1.658 2.496 3.658 2.5 6z"/><path style="opacity:1" fill="#133363" d="M484.5 46.5c2.849 18.964-5.151 30.297-24 34v-34h24z"/><path style="opacity:1" fill="#020432" d="M662.5 43.5c4.194 4.408 6.194 9.741 6 16h-9v-3h6a37.028 37.028 0 0 0-3-13z"/><path style="opacity:1" fill="#08143c" d="M88.5 60.5c-.534 5.07-2.701 9.403-6.5 13a60.786 60.786 0 0 1-2.5 10 1274.354 1274.354 0 0 1-8 28 25.878 25.878 0 0 1-10 1v-3h7a1061.175 1061.175 0 0 1 16.5-62 62.464 62.464 0 0 1 3.5 13z"/><path style="opacity:1" fill="#9a9a9c" d="M295.5 50.5a871.15 871.15 0 0 0-1 59h-8c-.992.172-1.658-.162-2-1h9c-.167-20.336 0-40.67.5-61l1.5 3z"/><path style="opacity:1" fill="#000231" d="m295.5 50.5 2 7v55h-9v-3h6a871.15 871.15 0 0 1 1-59z"/><path style="opacity:1" fill="#163463" d="M575.5 49.5a185.8 185.8 0 0 1 10 29h-19a728.3 728.3 0 0 0 9-29z"/><path style="opacity:1" fill="#040b36" d="M348.5 60.5a1531.103 1531.103 0 0 0-19.5 51c-2.795 1.283-5.628 1.283-8.5 0a43.836 43.836 0 0 1-1-2c2.579.417 4.746-.25 6.5-2a3129.894 3129.894 0 0 0 22-59c.499 3.986.666 7.986.5 12z"/><path style="opacity:1" fill="#264473" d="M185.5 48.5c4.81 4.546 7.643 10.213 8.5 17 .742 5.577.242 10.91-1.5 16-1.183-5.365-3.683-10.031-7.5-14a44.613 44.613 0 0 0 1.5 18.5l-.5 1.5c-5.744-12.966-5.911-25.966-.5-39z"/><path style="opacity:1" fill="#040b35" d="M202.5 53.5c4.954 10.15 6.287 20.816 4 32-1.762 7.524-5.095 14.19-10 20-9.515 6.877-20.182 9.377-32 7.5-3.099-.387-5.766-1.554-8-3.5 17.14 4.602 30.973-.065 41.5-14 8.79-16.14 8.623-32.14-.5-48 .31-1.238.81-1.238 1.5 0a31.91 31.91 0 0 1 3.5 6z"/><path style="opacity:1" fill="#040c37" d="M405.5 37.5c2 0 3 1 3 3a4189.386 4189.386 0 0 0 27 69v3a50.464 50.464 0 0 1-10-.5c-.752-.671-1.086-1.504-1-2.5 2.747.313 5.414-.02 8-1a4600.382 4600.382 0 0 1-27-71z"/><path style="opacity:1" fill="#1e3d6c" d="M400.5 51.5a586.554 586.554 0 0 1 10 26c-6.634.997-13.3 1.33-20 1a464.17 464.17 0 0 1 10-27z"/><path style="opacity:1" fill="#050e38" d="M299.5 37.5c1.911.074 3.078 1.074 3.5 3a1853.829 1853.829 0 0 0 19.5 52 10.136 10.136 0 0 1-1.5 4 6308.806 6308.806 0 0 1-21.5-59z"/><path style="opacity:1" fill="#010433" d="M225.5 77.5c9.719-.282 19.386.051 29 1-8.269 1.97-16.935 2.636-26 2v32h-7c-1.4-.6-2.4-1.6-3-3h7v-32z"/><path style="opacity:1" fill="#143463" d="M284.5 45.5v63c.342.838 1.008 1.172 2 1-19.611 7.112-38.944 6.112-58-3v-26c9.065.636 17.731-.03 26-2 2.004 1.173 3.504 2.84 4.5 5a86.216 86.216 0 0 1 3 23c.422 1.926 1.589 2.926 3.5 3 .111.617.444 1.117 1 1.5 3.667.667 7.333.667 11 0a14.444 14.444 0 0 1-2.5-5.5c.173-8.266-1.16-16.266-4-24-.708-.88-1.542-1.547-2.5-2a310.678 310.678 0 0 1-3-4 35.491 35.491 0 0 1 5.5-4c5.474-8.522 5.807-17.189 1-26-.69-1.238-1.19-1.238-1.5 0-3.666-6.653-9.332-9.987-17-10-11.822-.995-23.822-1.328-36-1 5.776-4.773 12.442-7.94 20-9.5 20.598-4.026 36.264 2.807 47 20.5z"/><path style="opacity:1" fill="#040b36" d="M665.5 77.5c1.278.282 2.278.949 3 2l4 8c-.391 14.054-7.391 22.72-21 26a145.053 145.053 0 0 1-17-.5c-3.099-.387-5.766-1.554-8-3.5a98.558 98.558 0 0 0 23 .5c17.011-5.188 22.345-16.021 16-32.5z"/><path style="opacity:1" fill="#030835" d="M268.5 79.5c.958.453 1.792 1.12 2.5 2 2.84 7.734 4.173 15.734 4 24a14.444 14.444 0 0 0 2.5 5.5 30.485 30.485 0 0 1-11 0c-.556-.383-.889-.883-1-1.5a40.914 40.914 0 0 0 9-.5 14.444 14.444 0 0 1-2.5-5.5 343.824 343.824 0 0 0-3.5-24z"/><path style="opacity:1" fill="#2d4c7b" d="M88.5 60.5a254.975 254.975 0 0 1 5 17 89.422 89.422 0 0 1-13 9c-.886-.825-1.219-1.825-1-3a60.786 60.786 0 0 0 2.5-10c3.799-3.597 5.966-7.93 6.5-13z"/><path style="opacity:1" fill="#040c37" d="M586.5 45.5a4020.743 4020.743 0 0 0 25 67h-11v-3h7a2264.954 2264.954 0 0 0-26-71c.577-1.273 1.243-1.273 2 0 .83 2.516 1.83 4.85 3 7z"/><path style="opacity:1" fill="#091139" d="M413.5 87.5c-8.787 1.656-17.787 2.656-27 3a143.589 143.589 0 0 0-8 22h-10v-3c2.292.256 4.459-.077 6.5-1a284.885 284.885 0 0 0 7.5-22c10.514-.328 20.847.006 31 1z"/><path style="opacity:1" fill="#091239" d="M589.5 88.5c-9.152.994-18.485 1.327-28 1a284.885 284.885 0 0 1-7.5 22c-3.455 1.291-6.955 1.291-10.5 0 .363-.683.696-1.35 1-2h6a210.221 210.221 0 0 1 8-22.5l15.5-.5c5.546.005 10.712.672 15.5 2z"/><path style="opacity:1" fill="#203f6f" d="M133.5 76.5c1.262 9.861 5.262 18.528 12 26-15.779 15.894-34.779 26.06-57 30.5-34.939 6.185-64.605-3.315-89-28.5v-15c4.575 10.083 11.242 18.583 20 25.5 26.852 14.717 54.519 16.383 83 5 4.394-1.582 8.061-4.082 11-7.5 1.636-1.249 2.803-2.916 3.5-5 1.508-5.368 3.008-10.701 4.5-16 4.801-4.456 8.801-9.456 12-15z"/><path style="opacity:1" fill="#aab4b3" d="M446.5 43.5c.997 21.494 1.331 43.16 1 65h9c-1.765.961-3.765 1.295-6 1h-4v-66z"/><path style="opacity:1" fill="#1e3e6e" d="M26.5 102.5c24.236 14.697 48.903 15.697 74 3 .934 1.068 1.268 2.401 1 4h4v2c-26.601 13.08-53.268 13.247-80 .5-4.766-2.597-8.766-6.097-12-10.5-.825-.886-1.825-1.219-3-1a36.982 36.982 0 0 0-4-7c.77-1.772 2.103-2.772 4-3 2.366.53 4.366 1.697 6 3.5l-2 1a128.259 128.259 0 0 0 12 7.5z"/><path style="opacity:1" fill="#1c3b6b" d="M297.5 57.5a876.96 876.96 0 0 1 19 52h3c.304.65.637 1.317 1 2 2.872 1.283 5.705 1.283 8.5 0a1531.103 1531.103 0 0 1 19.5-51v49c-.826-4.816-1.326-9.817-1.5-15-15.898 20.547-36.732 33.38-62.5 38.5-34.542 6.537-63.875-2.63-88-27.5 4.905-5.81 8.238-12.476 10-20a80.605 80.605 0 0 0 8 9v15h4c.6 1.4 1.6 2.4 3 3 3.918 3.296 8.918 5.796 15 7.5 25.793 5.979 50.127 2.312 73-11 1.196-.654 1.196-1.154 0-1.5-22.175 13.038-45.842 16.871-71 11.5-5.473-1.316-10.473-3.482-15-6.5h5v-6c19.056 9.112 38.389 10.112 58 3h2v3h9v-55z"/><path style="opacity:1" fill="#1b3c6c" d="M413.5 87.5a9774.276 9774.276 0 0 1 8 21c.825.886 1.825 1.219 3 1-.086.996.248 1.829 1 2.5 3.317.498 6.65.665 10 .5v-3c8.389 3.01 17.055 4.344 26 4 9.241.618 17.908-1.049 26-5h1c.709.904 1.709 1.237 3 1v3h37c-10.126 8.066-21.459 14.066-34 18-.417-.624-1.084-.957-2-1-30.632 8.531-58.965 3.865-85-14-9.101-6.515-16.101-14.849-21-25 9.213-.344 18.213-1.344 27-3z"/><path style="opacity:1" fill="#010836" d="M540.5 106.5v6h-49v-3h45c.961-1.765 1.295-3.765 1-6h3v3z"/><path style="opacity:1" fill="#416393" d="M221.5 112.5h2c4.527 3.018 9.527 5.184 15 6.5 25.158 5.371 48.825 1.538 71-11.5 1.196.346 1.196.846 0 1.5-22.873 13.312-47.207 16.979-73 11-6.082-1.704-11.082-4.204-15-7.5z"/><path style="opacity:1" fill="#5376a6" d="M10.5 100.5c1.175-.219 2.175.114 3 1 3.234 4.403 7.234 7.903 12 10.5 26.732 12.747 53.399 12.58 80-.5-1.323 2.186-3.323 3.686-6 4.5a108.855 108.855 0 0 1-35.5 7.5c-21.496.324-39.33-7.343-53.5-23z"/><path style="opacity:1" fill="#2c4d7d" d="M407.5 115.5c26.035 17.865 54.368 22.531 85 14 .916.043 1.583.376 2 1-15.096 3.769-30.43 4.936-46 3.5-15.497-2.421-29.164-8.587-41-18.5z"/></svg>