<svg id="Layer_1" data-name="Layer 1" xmlns="http://www.w3.org/2000/svg" viewBox="0 0 1134.22 176"><defs><style>.cls-1{fill-rule:evenodd;}</style></defs><title>wyss-center-default</title><path class="cls-1" d="M383.38,45.48l-.1-3.12H347.2v3.07l.7,0a28,28,0,0,1,3.77.64,17.76,17.76,0,0,1,4,1.34,8.81,8.81,0,0,1,3,2.13,4.33,4.33,0,0,1,1.16,3,23.5,23.5,0,0,1-.81,4.75,49.89,49.89,0,0,1-1.91,5.9l-21.59,48.09L316.19,61.57c-1.05-2.67-1.66-4.31-2.06-5.54a10.22,10.22,0,0,1-.55-3.08,4.54,4.54,0,0,1,1.21-3.31A8.88,8.88,0,0,1,318,47.46a25.74,25.74,0,0,1,4.22-1.34,35.31,35.31,0,0,1,4-.64l.7,0V42.36H284.24v3.07l.7,0c7,.34,11.27,3.56,14.34,10.89l6.19,15L288.92,111.2,271,65.34l-2.67-6.64a12.5,12.5,0,0,1-1.05-4.41,7.41,7.41,0,0,1,1.05-4.21,8.25,8.25,0,0,1,2.82-2.57,12,12,0,0,1,4-1.34c.65-.1,1.1-.2,1.56-.3a15,15,0,0,1,2.11-.34l.66-.1V42.36H236.93v3l.6.1c1.66.29,3.12.54,4.63.89a12.05,12.05,0,0,1,4.13,1.83,17.42,17.42,0,0,1,4,4.21,38.31,38.31,0,0,1,4.12,8.07L283,134l.2.5h3.57l22.95-52.9L329.58,134l.2.5h3.42l32.26-73c.81-1.73,1.57-3.41,2.47-5.15a23.56,23.56,0,0,1,3.27-4.95,17.19,17.19,0,0,1,4.73-3.86,16.91,16.91,0,0,1,6.8-1.94Z"/><path class="cls-1" d="M431.65,63h.1l.7.05a10.45,10.45,0,0,1,5.64,2,5.26,5.26,0,0,1,2.41,4.51,15,15,0,0,1-2.76,7.92L424.4,96,409.65,76.68a48.92,48.92,0,0,1-3.37-4.85A6.2,6.2,0,0,1,405.22,69a4.18,4.18,0,0,1,.76-2.52A5.81,5.81,0,0,1,408,64.74a14.93,14.93,0,0,1,2.87-1.14,20.13,20.13,0,0,1,2.92-.59l.65-.1V60.24H376.84v2.67l.6.15a22.34,22.34,0,0,1,6.09,2.13,33.27,33.27,0,0,1,4.68,3.17,38,38,0,0,1,3.68,3.71c1.1,1.34,2.21,2.68,3.27,4l20.18,25v16.84a26,26,0,0,1-.6,6.29,7.27,7.27,0,0,1-1.92,3.51,8.15,8.15,0,0,1-3.72,1.89,35.8,35.8,0,0,1-6.09.94l-.7.05v2.77h38.14v-2.72l-.7,0a44.87,44.87,0,0,1-6.44-.94,8.19,8.19,0,0,1-3.78-1.89,7.54,7.54,0,0,1-2-3.51,22.51,22.51,0,0,1-.61-6.24v-15.8l15.3-21.6c1.11-1.53,2.37-3.22,3.68-5.15a39,39,0,0,1,4.43-5.25,34.11,34.11,0,0,1,5.53-4.51,19.84,19.84,0,0,1,6.9-2.67l.6-.1V60.24l-31.7,0Z"/><path class="cls-1" d="M515.24,98.47a33.82,33.82,0,0,0-7.2-4.8c-2.87-1.44-5.48-2.63-8.1-3.67-1.56-.64-3.17-1.28-4.68-1.93l-3.32-1.39A47.3,47.3,0,0,1,485,83.17a17.39,17.39,0,0,1-4.73-4.31,9.49,9.49,0,0,1-1.71-5.65c0-3.66,1.21-6.14,3.73-7.53a20.52,20.52,0,0,1,10.11-2.18,19.21,19.21,0,0,1,7.8,1.59,23.38,23.38,0,0,1,6.54,4.21A31.27,31.27,0,0,1,512,75.24,37.77,37.77,0,0,1,515.64,82l.2.44h2.87l-1-20.35h-.71a33.25,33.25,0,0,1-6.59-.6l-.5-.1c-2-.39-3.88-.74-5.94-1.18s-4.28-.85-6.49-1.19a49.82,49.82,0,0,0-7.6-.55,25.88,25.88,0,0,0-8.31,1.34,21.1,21.1,0,0,0-6.84,3.86,18.34,18.34,0,0,0-4.73,6.14,18.64,18.64,0,0,0-1.76,8.08,14.2,14.2,0,0,0,3.47,9.85A31.34,31.34,0,0,0,480,94.36a80.73,80.73,0,0,0,10.62,5,97.55,97.55,0,0,1,10.42,4.7,30.31,30.31,0,0,1,7.9,5.8,11.35,11.35,0,0,1,3,8.07,11.18,11.18,0,0,1-1.26,5.69,9.71,9.71,0,0,1-3.42,3.72,15.9,15.9,0,0,1-5.08,2.13c-5.44,1.24-10.67.84-15.15-1.49a34.52,34.52,0,0,1-7.75-5.59,52.44,52.44,0,0,1-6.4-7.43,71.15,71.15,0,0,1-4.83-7.88l-.35-.64-2.62,1.38,5.44,25.66.8-.25c.86-.29,1.61-.54,2.37-.84a5.8,5.8,0,0,1,2.06-.35,17.56,17.56,0,0,1,3.53.5c.85.2,1.81.4,2.77.59.75.15,1.5.35,2.36.55,1.86.4,3.88.79,5.89,1.14a37.57,37.57,0,0,0,6,.49,39.86,39.86,0,0,0,9.91-1.19,23.77,23.77,0,0,0,8.26-3.86,19.49,19.49,0,0,0,5.63-6.64,20.24,20.24,0,0,0,2.12-9.61,18.77,18.77,0,0,0-2-9A21.43,21.43,0,0,0,515.24,98.47Z"/><path class="cls-1" d="M582,98.47a34.08,34.08,0,0,0-7.2-4.8c-2.87-1.44-5.49-2.63-8.1-3.67-1.56-.64-3.17-1.28-4.69-1.93l-3.32-1.39a47.16,47.16,0,0,1-6.94-3.51A18.41,18.41,0,0,1,547,78.86a9.42,9.42,0,0,1-1.71-5.65c0-3.66,1.2-6.14,3.72-7.53s5.94-2.18,10.17-2.18a19.28,19.28,0,0,1,7.8,1.59,23.53,23.53,0,0,1,6.54,4.21,31.58,31.58,0,0,1,5.23,5.94A36.37,36.37,0,0,1,582.38,82l.2.44h2.92l-1-20.35h-.7a33.35,33.35,0,0,1-6.6-.6l-.5-.1c-2-.39-3.87-.74-5.94-1.18s-4.27-.85-6.49-1.19a49.63,49.63,0,0,0-7.6-.55,25.78,25.78,0,0,0-8.3,1.34,21.15,21.15,0,0,0-6.85,3.86,18.27,18.27,0,0,0-6.49,14.22,14.24,14.24,0,0,0,3.47,9.85,31.39,31.39,0,0,0,8.26,6.59,80.14,80.14,0,0,0,10.62,5,108.08,108.08,0,0,1,10.46,4.7,30.54,30.54,0,0,1,7.91,5.8,11.35,11.35,0,0,1,3,8.07,11.68,11.68,0,0,1-1.26,5.69,9.81,9.81,0,0,1-3.43,3.72,15.9,15.9,0,0,1-5.08,2.13c-5.43,1.24-10.67.84-15.15-1.49a33.64,33.64,0,0,1-7.75-5.59,52.39,52.39,0,0,1-6.39-7.43,81.82,81.82,0,0,1-4.83-7.88l-.35-.64L532,107.78l5.44,25.66.8-.25c.86-.29,1.61-.54,2.37-.84,1.4-.49,2.51-.49,5.58.1.86.2,1.81.4,2.77.59.75.15,1.51.35,2.37.55,1.86.39,3.87.79,5.88,1.14a37.66,37.66,0,0,0,6,.49,40.36,40.36,0,0,0,9.92-1.18,23.83,23.83,0,0,0,8.25-3.87,18.78,18.78,0,0,0,5.69-6.63,20.29,20.29,0,0,0,2.11-9.61,18.79,18.79,0,0,0-2-9A25.12,25.12,0,0,0,582,98.47Z"/><path class="cls-1" d="M726.27,103.13a61.86,61.86,0,0,1-16.71,17.28c-6.19,4.17-13.64,6.3-22.15,6.3a33.06,33.06,0,0,1-15-3.27,31.24,31.24,0,0,1-10.82-8.72A37.87,37.87,0,0,1,655,101.94a53.49,53.49,0,0,1-2.21-15.4,66.15,66.15,0,0,1,1.76-15.36,38.32,38.32,0,0,1,5.53-12.73,27.9,27.9,0,0,1,9.67-8.67c3.92-2.12,8.76-3.17,14.44-3.17a31.45,31.45,0,0,1,11.88,2.09,29.46,29.46,0,0,1,9.36,5.79,36.72,36.72,0,0,1,7.05,8.87,52.31,52.31,0,0,1,4.78,11.14l.15.54h3.37l-2.67-30.65h-.65a56.11,56.11,0,0,1-7.55-.8c-2.57-.44-5.28-.89-8-1.38s-5.64-.89-8.66-1.29a65.14,65.14,0,0,0-9.91-.69,47.88,47.88,0,0,0-18.12,3.51,46.79,46.79,0,0,0-15,9.86A47.36,47.36,0,0,0,640,68.71,48.41,48.41,0,0,0,636.18,88,49.3,49.3,0,0,0,640,107.34a45.74,45.74,0,0,0,10.22,15.06,47.07,47.07,0,0,0,33.12,13.37,54.88,54.88,0,0,0,15.14-1.93,46.71,46.71,0,0,0,12.49-5.7A54.05,54.05,0,0,0,721.43,119a131.41,131.41,0,0,0,9.67-12.38l.4-.6-4.73-3.66Z"/><path class="cls-1" d="M808.2,108.87l-.5.6a82.8,82.8,0,0,1-8,8.91,37.67,37.67,0,0,1-8.25,6,34.31,34.31,0,0,1-9.56,3.41,61.85,61.85,0,0,1-12,1.09,25.87,25.87,0,0,1-3.32-.19c-1.11-.1-2.27-.2-3.42-.4s-2.17-.25-3.12-.4c-.76-.1-1.36-.19-1.87-.29V95.45h6.45a47.38,47.38,0,0,1,7.6.55,10.7,10.7,0,0,1,8.55,6.14,32.45,32.45,0,0,1,2.42,7.28l.15.59h2.72V76.43h-2.77l-.1.65c-.61,5-2.37,8.56-5.24,10.45s-6.84,2.87-11.92,2.87c-1.51,0-3,0-4.33.1-1.11,0-2.32.1-3.53.1v-25c4.73-.39,9.62-.59,15-.59a47.05,47.05,0,0,1,7.95.64,21.06,21.06,0,0,1,6.8,2.43,15.36,15.36,0,0,1,5.38,4.46,27.19,27.19,0,0,1,3.78,8.37l.2.74,2.72-.84-.56-20.65-64.42,0v2.72l.71,0A25.86,25.86,0,0,1,742,64.05a6.19,6.19,0,0,1,3.12,2.43A10.72,10.72,0,0,1,746.45,71c.2,1.93.25,4.46.25,7.53v36.6c0,3.07-.1,5.6-.25,7.48a11,11,0,0,1-1.31,4.56,6,6,0,0,1-3,2.43,23,23,0,0,1-6.09,1.14l-.7,0v2.72h64.51l10.68-22.83Z"/><path class="cls-1" d="M1049.57,109.47a77.77,77.77,0,0,1-8,8.91,37.91,37.91,0,0,1-8.25,6,34.26,34.26,0,0,1-9.57,3.41,61.82,61.82,0,0,1-12,1.09,26,26,0,0,1-3.33-.19c-1.1-.1-2.26-.2-3.42-.4s-2.16-.25-3.12-.4c-.75-.1-1.36-.19-1.86-.29V95.45h6.44a47.28,47.28,0,0,1,7.6.55,11.34,11.34,0,0,1,5.13,2,11.46,11.46,0,0,1,3.43,4.16,30.14,30.14,0,0,1,2.41,7.28l.15.59H1028V76.43h-2.77l-.1.65c-.6,5-2.36,8.56-5.23,10.45S1013,90.4,1008,90.4c-1.51,0-3,0-4.33.1-1.1,0-2.31.1-3.52.1v-25c4.73-.39,9.61-.59,15-.59a47.56,47.56,0,0,1,7.95.64,20.51,20.51,0,0,1,6.79,2.43,15.3,15.3,0,0,1,5.39,4.46,27,27,0,0,1,3.77,8.37l.2.74,2.77-.84-.55-20.65-64.57,0v2.72l.7,0a26.25,26.25,0,0,1,6.24,1.14,5.82,5.82,0,0,1,3.07,2.43A10.58,10.58,0,0,1,988.17,71c.2,1.93.3,4.51.3,7.53v36.6a74.46,74.46,0,0,1-.3,7.48,10.8,10.8,0,0,1-1.31,4.56,5.94,5.94,0,0,1-3,2.43,23,23,0,0,1-6.09,1.14l-.7,0v2.72h64.52l10.67-22.83-2.27-1.89Z"/><path class="cls-1" d="M867.49,63l.7.05a14.2,14.2,0,0,1,6.95,2.08,10.89,10.89,0,0,1,4,5A25.62,25.62,0,0,1,880.67,78c.35,3.61.5,7.67.5,12.08v12.68c0,2.18,0,4.31,0,6.44-.06,1.49-.06,3-.06,4.56-1.41-1.83-3.07-4-5-6.29-1.71-2.08-3.32-4-5.13-6.14l-3-3.52c-3.17-3.81-6.49-7.68-9.56-11.29-3.27-3.87-6.39-7.53-9.31-11-1.61-1.88-3.07-3.62-4.43-5.25-1.16-1.39-2.22-2.67-3.27-3.86-2-2.33-3.73-4.46-4.84-6l-.2-.29H809.86v2.62l.55.15a70,70,0,0,1,8.71,2.72A21,21,0,0,1,825.31,69l-.15,50.62a15.78,15.78,0,0,1-1,5.7,6.48,6.48,0,0,1-2.51,3,12.22,12.22,0,0,1-4.48,1.54c-1.92.29-4.13.69-6.64,1l-.66.09v2h36.59v-2l-.66,0a38.09,38.09,0,0,1-8.1-1.53,7.16,7.16,0,0,1-4.08-3.67,23,23,0,0,1-1.86-8.32c-.25-3.41-.35-8.12-.35-15.3V82.87c0-1.88,0-3.71.05-5.65,0-1.18,0-2.42.1-3.66,3.07,3.22,6.44,6.83,10.17,10.85,4.58,4.9,9,9.85,13.13,14.71,4.38,5.15,8.86,10.6,13.69,16.79l1.26,1.58c4.08,5.2,8,10.11,11.68,15.75l.2.35H887l.15-57.75c0-4.06.81-7.13,2.42-9.07s4.78-3.17,9.26-3.76l.65-.1V60.24l-32,0Z"/><path class="cls-1" d="M904.78,60.24l-1.71,22.68,2.72.79L906,83a51.75,51.75,0,0,1,4.27-10,15.12,15.12,0,0,1,4.84-5.25,16,16,0,0,1,6.59-2.13,76.45,76.45,0,0,1,9.11-.44v50.07c0,3-.1,5.55-.3,7.48a9.88,9.88,0,0,1-1.36,4.56,5.81,5.81,0,0,1-3.07,2.43,22.67,22.67,0,0,1-6.09,1.13l-.71,0v2.73h34.88v-2.78l-.7,0a25.43,25.43,0,0,1-6.35-1.14,6.74,6.74,0,0,1-3.22-2.43,10.52,10.52,0,0,1-1.35-4.56c-.21-2-.26-4.51-.26-7.48v-50a81.77,81.77,0,0,1,9.36.44,16.8,16.8,0,0,1,6.75,2.13A14.76,14.76,0,0,1,963.21,73a52.46,52.46,0,0,1,4.28,10l.2.69,2.72-.79-1.72-22.68Z"/><path class="cls-1" d="M1133.62,130.72a19.59,19.59,0,0,1-6.9-2.13,40.1,40.1,0,0,1-6.69-4.36,46.38,46.38,0,0,1-6.19-6c-2-2.27-3.87-4.5-5.59-6.63l-.7-.89c-1.46-1.89-2.82-3.62-4.08-5.5l-.2-.3c-1.11-1.73-2.11-3.27-3-4.7a28.55,28.55,0,0,0,5.84-1.94,22.38,22.38,0,0,0,5.79-3.71,16.64,16.64,0,0,0,3.92-5.35,15.9,15.9,0,0,0,1.46-7.08,18,18,0,0,0-2.71-10,23.76,23.76,0,0,0-6.85-6.88,29.87,29.87,0,0,0-9.36-3.92,45.74,45.74,0,0,0-10.07-1.18l-34.27-.1V63.6l.71,0a24,24,0,0,1,6.09,1.14,6.37,6.37,0,0,1,3.07,2.43,10.48,10.48,0,0,1,1.35,4.56c.21,2,.31,4.55.31,7.52v35.81a72.33,72.33,0,0,1-.31,7.48,10.26,10.26,0,0,1-1.3,4.56,6.1,6.1,0,0,1-3.07,2.43,23.08,23.08,0,0,1-6.09,1.14l-.71.05v2.72h35v-2.72l-.71-.05a25.43,25.43,0,0,1-6.34-1.14,6.51,6.51,0,0,1-3.22-2.43,10.47,10.47,0,0,1-1.36-4.56c-.2-2-.3-4.5-.3-7.48V99.71c.56.15,1.21.3,2,.45a30.84,30.84,0,0,0,3.73.64c1.21.2,2.41.35,3.57.5,1,.1,1.81.19,2.52.19a120.4,120.4,0,0,0,10.62,16.25,198.87,198.87,0,0,0,13.13,15.5l.2.25h21.34v-2.72Zm-46.76-34.57a31.39,31.39,0,0,1-9.71-1.59v-7c0-4.16,0-8,.1-11.54s.2-6.74.3-10.06a28.3,28.3,0,0,1,4.58-.79c2-.15,3.78-.25,5.49-.25a18.58,18.58,0,0,1,6.44,1.09,17.63,17.63,0,0,1,5.44,3.12,15.41,15.41,0,0,1,3.72,4.76,14.13,14.13,0,0,1,1.36,6.24c0,5.59-1.51,9.7-4.58,12.18S1092.5,96.15,1086.86,96.15Z"/><path class="cls-1" d="M60,17.8c2.63-.76-.92-5.31-2-7.7-.16-.33-1.2-2.31-2-4a88.06,88.06,0,0,0-16.7,8.73C46.33,17.21,54.88,19.29,60,17.8Z"/><path class="cls-1" d="M19.81,49.91c-.31-.44-3.56-6.36-5.5-9.94a87.87,87.87,0,0,0-9.8,20.21l16.93-7.75C20.91,51.58,20.38,50.73,19.81,49.91Z"/><path class="cls-1" d="M20.2,110.83c-7.2-2.21-12.54-8.6-19.18-12l-.37-.13A87.31,87.31,0,0,0,11.22,131l10.4-19.84A14.11,14.11,0,0,1,20.2,110.83Z"/><path class="cls-1" d="M15.16,101.11c2.38,1.67,4.83,3.4,7.66,4.07a12.29,12.29,0,0,0,1.8.3L37.36,81.17a28.93,28.93,0,0,0-2-3.94c-1-1.84-10.38-20.88-11.17-20.49L2.34,67.8A88.83,88.83,0,0,0,0,88c0,1.44,0,2.87.11,4.29q1,.38,2,.81A83.13,83.13,0,0,1,15.16,101.11Z"/><path class="cls-1" d="M138.28,78.87l.44,0a4.3,4.3,0,0,1,.62.11,2.32,2.32,0,0,1,.61.21,1.1,1.1,0,0,1,.4.28.42.42,0,0,1,.12.3,4.83,4.83,0,0,1-.13.74c-.09.35-.2.68-.31,1l-3.38,7.63-3-7.91c-.17-.44-.28-.73-.35-.95a1.57,1.57,0,0,1-.07-.43.44.44,0,0,1,.12-.35,1.24,1.24,0,0,1,.42-.29,5.68,5.68,0,0,1,.66-.21,6.28,6.28,0,0,1,.65-.11l.45,0V77.65H119.27v1.18l.51.09.67.13a1.79,1.79,0,0,1,.59.27,3,3,0,0,1,.61.65,6.47,6.47,0,0,1,.67,1.33l4.92,12.87.13.3h1.08l3.7-8.66,3.13,8.35.12.31h1.06l5.65-13,.07-.15c.11-.25.22-.49.35-.75a4,4,0,0,1,.52-.79,2.45,2.45,0,0,1,.72-.59,2.55,2.55,0,0,1,1-.3l.44-.09,0-1.18h-6.92ZM128.6,89.1,126,82.21l-.46-1.16a1.91,1.91,0,0,1-.16-.64.89.89,0,0,1,.2-.64,1.55,1.55,0,0,1,.72-.42,4.66,4.66,0,0,1,1.13-.13h.33a2.67,2.67,0,0,1,1.49.35,2.89,2.89,0,0,1,1,1.34l.88,2.17Z"/><path class="cls-1" d="M157.42,86.8a.7.7,0,0,0-.7.71v.2h-3.2V82h3.2v.21a.7.7,0,0,0,.7.71h18.86c-.08-1.33-.17-2.65-.31-4H157.42a.7.7,0,0,0-.7.7v.21h-3.2v-5.7h3.2v.21a.7.7,0,0,0,.7.7h18.06A87.06,87.06,0,0,0,165.1,44.86H149l-7.36,7.35v7.65a.7.7,0,0,0,.71.7h.21v3.19h-5.72V60.56H137a.7.7,0,0,0,.7-.7V50.6L147.37,41h15.42c-.68-1.07-1.38-2.12-2.11-3.15-.26,0-.52,0-.75,0l-4.43-.13q-10.92-.39-21.81-1.28V59.78a.71.71,0,0,0,.71.71h.2v3.19h-5.71V60.49h.21a.71.71,0,0,0,.71-.71V36q-6.36-.57-12.69-1.31-8.13-1-16.24-2.21c-5.1-.78-10.18-2.15-15.33-2.56-4.15-.33-9.17.18-12.45,3s-5.75,6.89-8.16,10.6c-3.82,5.88-7.32,12-10.69,18.11-1.51,2.75-2.85,5.61-4.42,8.32-1.48,2.54-4,7.48-4.77,10.49,1.61,3.32,6.74,11.4,9.22,14.13a36.87,36.87,0,0,0,5.48,5,75.71,75.71,0,0,0,8.64,5c3.17,1.73,6.24,3.62,9.27,5.59L97.36,90.65h9.34a.7.7,0,0,0,.7-.71v-.21h3.2v5.7h-3.2v-.2a.7.7,0,0,0-.7-.71H99l-18,18,1.39.93c6.87,4.67,13.54,10.21,22,11.76,4.66.86,9.42,1,14.15,1.47,1.17.12,2.34.27,3.51.43V110.25a.7.7,0,0,0-.7-.7h-.21v-3.2h5.71v3.19h-.21a.7.7,0,0,0-.7.71v17.43c1.32.23,2.64.49,4,.77v-18.2a.71.71,0,0,0-.71-.71h-.21v-3.19h5.71v3.19h-.21a.71.71,0,0,0-.7.71v19.07c4.08,1,8.12,2.13,12.12,3.35,5.1,1.57,10.23,3.42,15.45,4.74a85.09,85.09,0,0,0,5-8.37h-19l-9.64-9.61v-9.11a.7.7,0,0,0-.7-.7h-.14v-3.19h5.72v3.19h-.29a.7.7,0,0,0-.7.7v7.51l7.36,7.34h19.32a87.13,87.13,0,0,0,8-30.54H157.42a.7.7,0,0,0-.7.71v.21h-3.2v-5.7h3.2v.2a.7.7,0,0,0,.7.71h19c0-.9,0-1.81,0-2.72,0-.41,0-.82,0-1.24Zm-46.81.81h-3.2v-.22a.71.71,0,0,0-.7-.7H77a5.36,5.36,0,1,1,.08-3.87h29.62a.71.71,0,0,0,.71-.71V81.9h3.19Zm0-7.83h-3.2v-.21a.71.71,0,0,0-.7-.71H88.19L77.48,68.17a5.35,5.35,0,0,1-7.37-5,5.36,5.36,0,1,1,10.2,2.34L89.8,75h16.91a.71.71,0,0,0,.71-.71v-.2h3.19ZM110,48.3A5.35,5.35,0,1,1,116.1,42a5.25,5.25,0,0,1-.41,3.26l10.16,10.14v4.39a.71.71,0,0,0,.71.7h.21v3.19h-5.72V60.48h.21a.71.71,0,0,0,.71-.7V57l-9.07-9.05A5.29,5.29,0,0,1,110,48.3Zm39.06,47.39-6.48,6.4H121l-6.44-6.36V73.9l6.4-6.33h21.63L149.09,74Z"/><path class="cls-1" d="M82.18,135.79c-.52-1.76-1.2-4.62-3.49-4.74-2.75,0-4.57,3.13-5.76,5.2A71.8,71.8,0,0,0,68,147.69q-4.26,11.81-8.26,23.71A88.14,88.14,0,0,0,84.41,176c.08-6.59-.07-17-.11-18.38C84,150.54,84.21,142.64,82.18,135.79Z"/><path class="cls-1" d="M54.47,35.34A119.49,119.49,0,0,1,42.34,45.79c-.85.64-11.2,7.67-11.08,8A43.55,43.55,0,0,0,33.7,58.3c1.94,4,5.3,11,7.83,14.64,0,.06,3.56-6.56,3.87-7.09,1.93-3.28,3.87-6.39,5.93-9.59q6.21-9.63,12.14-19.44A9.43,9.43,0,0,0,65,33.15a3.25,3.25,0,0,0-1.65-3.37c-1.39-.59-3,.24-4.15,1.17A54.75,54.75,0,0,0,54.47,35.34Z"/><path class="cls-1" d="M65.47,134.66a21.43,21.43,0,0,0,.24-2.4,8.76,8.76,0,0,0-.59-4L53,140.38a5.35,5.35,0,0,1-4.93,7.49,5.35,5.35,0,1,1,2.19-10.23l12.79-12.76a17.63,17.63,0,0,0-3.3-3.17c-6-4.43-13.43-7.93-21-8.58-2.21-.2-4.42-.58-6.6-.9-.62-.08-1.25-.15-1.88-.2l-13,28.35a88.42,88.42,0,0,0,35.3,28.21,168,168,0,0,0,9.23-20.15A77.12,77.12,0,0,0,65.47,134.66Z"/><path class="cls-1" d="M133.69,142.82l-17.78,17.74a5.31,5.31,0,0,1,.46,3.32,5.36,5.36,0,1,1-6.47-6.18,5.22,5.22,0,0,1,3.15.24l16.77-16.73V133.7c-1.32-.38-2.64-.73-4-1.06v3.13l-9.65,9.63a5.36,5.36,0,1,1-5.9-3.67,5.33,5.33,0,0,1,3.44.65l8.22-8.22V131.8a66.33,66.33,0,0,0-20.51-.92c-4.15.51-8,1.63-9.23,6-.94,3.34-.81,6.92-.79,10.36,0,5.27.35,10.53.76,15.78.08,1,.81,8.31,1.12,12.93A88.08,88.08,0,0,0,157,143.15c-7.87-2.41-15.48-5.67-23.32-8.24Z"/><path class="cls-1" d="M51.56,110.35c1.59.68,4.58,2.25,6.13.7,2.92-2.91-7.44-9.86-9-11.63a54.92,54.92,0,0,1-7.55-10.78L33,106.19C39.2,107.15,45.72,107.83,51.56,110.35Z"/><path class="cls-1" d="M28.54,48.59l.33.44c.21.28,4.91-3.6,5.22-3.86,3-2.41,6-4.8,8.9-7.37,4.27-3.85,9.18-6.72,13.09-11a1.34,1.34,0,0,0,.42-1,1.1,1.1,0,0,0-.63-.81,13,13,0,0,0-3.33-.76C45.69,23,38.76,21.79,32,20.21A89.06,89.06,0,0,0,19.34,33c1.84,3.28,5.26,9.28,5.54,9.67C26.3,44.71,27.06,46.63,28.54,48.59Z"/><path class="cls-1" d="M72.12,14.36c7.35.91,18.55-7.67,25-13.92C94.19.15,91.22,0,88.22,0A88.58,88.58,0,0,0,63.75,3.43C64.53,8.29,65.32,13.52,72.12,14.36Z"/><path class="cls-1" d="M84,21.33a1,1,0,0,1,0,.17c.37,3.91,7.9,4.35,10.66,4.91q7.38,1.5,14.84,2.61c6.74,1,13.5,1.81,20.28,2.31V28.59a5.37,5.37,0,1,1,3.88,0v3c4.56.25,9.13.37,13.7.31,2.82,0,5.64-.12,8.44-.41A88.19,88.19,0,0,0,104,1.4c-1.16,1.06-2.29,2.15-3.4,3.25A140.75,140.75,0,0,1,90,14.26C87.68,16.14,83.87,17.86,84,21.33Z"/></svg>