<svg xmlns="http://www.w3.org/2000/svg" width="1308" height="395" style="shape-rendering:geometricPrecision;text-rendering:geometricPrecision;image-rendering:optimizeQuality;fill-rule:evenodd;clip-rule:evenodd"><path style="opacity:1" fill="#fefefe" d="M-.5-.5h1308v395H-.5V-.5z"/><path style="opacity:1" fill="#0f0f0f" d="M729.5 367.5v-5a441.579 441.579 0 0 0 42-1c21.141-.77 41.141-5.936 60-15.5 23.812-15.804 39.979-37.304 48.5-64.5 5.193-22.193 1.36-42.526-11.5-61-4.05-1.273-8.05-1.106-12 .5-1.68.347-2.68 1.347-3 3 7.136 41.062-5.198 75.062-37 102-26.365 18.807-55.865 27.974-88.5 27.5a158.415 158.415 0 0 1-30.5-3v-6c33.06 6.201 65.06 2.701 96-10.5 39.112-21.042 57.945-53.876 56.5-98.5a70.523 70.523 0 0 1-1.5-9 74.27 74.27 0 0 0-15 6.5 34.033 34.033 0 0 1-8 1.5c-8.809 46.455-35.476 77.622-80 93.5-24.876 6.858-50.21 9.358-76 7.5v-6c37.097 4.064 71.764-3.103 104-21.5 25.219-17.753 40.552-41.919 46-72.5-14.069-1.034-25.735-6.868-35-17.5-12.168-1.521-21.834-7.188-29-17-12.161-.747-22.161-5.747-30-15-26.822-6.161-41.655-22.994-44.5-50.5-1.306-35.891 11.528-65.725 38.5-89.5 35.754-28.794 76.421-39.294 122-31.5v5c-39.429-5.88-75.762 1.954-109 23.5-24.122 18.064-39.289 41.898-45.5 71.5-2.222 16.219.445 31.552 8 46 6.299 8.868 14.466 14.535 24.5 17-10.012-19.68-11.512-40.013-4.5-61a193.542 193.542 0 0 1 15-34c24.504-30.675 56.338-48.508 95.5-53.5a361.185 361.185 0 0 1 44 .5 10.1 10.1 0 0 1-1.5 6c-53.609-7.58-97.943 9.087-133 50-9.176 15.528-15.176 32.195-18 50-1.453 15.742 2.047 30.242 10.5 43.5 4.86.968 9.526.468 14-1.5-5.851-27.636-.018-52.636 17.5-75 37.041-43.755 84.208-62.422 141.5-56v6c-54.849-6.22-100.349 11.447-136.5 53-15.867 20.111-21.367 42.777-16.5 68a157.297 157.297 0 0 1 24.5-10c10.049-44.91 36.549-75.743 79.5-92.5 26.416-8.347 53.416-10.847 81-7.5l-1 6c-42.013-6.829-80.013 2.338-114 27.5-15.74 13.734-27.574 30.234-35.5 49.5a50.84 50.84 0 0 0-3.5 18c11.809 1.737 21.809 6.904 30 15.5 11.738 2.201 21.738 7.534 30 16 11.972 2.816 22.305 8.483 31 17 28.134 5.467 44.967 22.3 50.5 50.5 2.075 17.148-.592 33.481-8 49-20.247 39.55-52.413 63.05-96.5 70.5a236.622 236.622 0 0 1-55 1.5v-6c34.418 4.726 67.085-.774 98-16.5 28.809-17.104 47.309-41.938 55.5-74.5 2.991-18.725-1.009-35.725-12-51-7.064-7.992-15.564-12.992-25.5-15 10.943 18.676 14.109 38.676 9.5 60-13.103 43.436-41.603 70.936-85.5 82.5a265.967 265.967 0 0 1-71 3.5z"/><path style="opacity:1" fill="#787878" d="M62.5 97.5a702.832 702.832 0 0 0-53 1c-.543-.06-.876-.393-1-1 18.162-1.327 36.162-1.327 54 0zM172.5 97.5c17.838-1.327 35.838-1.327 54 0-.124.607-.457.94-1 1a702.833 702.833 0 0 0-53-1z"/><path style="opacity:1" fill="#010101" d="M62.5 97.5c18.475 29.603 36.975 59.269 55.5 89a2956.844 2956.844 0 0 1 54.5-89c17.841-.33 35.508.003 53 1a614904.965 614904.965 0 0 0-83.5 129c-.5 30.665-.667 61.332-.5 92h-47c.167-30.668 0-61.335-.5-92a15828.856 15828.856 0 0 1-84.5-129 702.832 702.832 0 0 1 53-1zM538.5 317.5a702.728 702.728 0 0 1-53 1c-4.32-11.979-8.653-23.979-13-36-32-1.333-64-1.333-96 0a2372.654 2372.654 0 0 1-14 36.5c-17.664.5-35.33.667-53 .5a29759.127 29759.127 0 0 1 84.5-221 460.696 460.696 0 0 1 60.5 0 21852.918 21852.918 0 0 1 84 219zM1290.5 317.5c-17.49.997-35.16 1.33-53 1-4.32-11.979-8.65-23.979-13-36-32-1.333-64-1.333-96 0a2342.1 2342.1 0 0 1-14 36.5c-18 .667-36 .667-54 0a44591.535 44591.535 0 0 0 86-221c20.01-.833 40.01-.666 60 .5 28.4 72.879 56.4 145.879 84 219z"/><path style="opacity:1" fill="#fcfcfc" d="M458.5 238.5a578.644 578.644 0 0 1-68 0 3865.932 3865.932 0 0 1 34-93 3881.23 3881.23 0 0 1 34 93zM1210.5 238.5a578.644 578.644 0 0 1-68 0 3870.231 3870.231 0 0 1 34-93 3902.994 3902.994 0 0 1 34 93z"/><path style="opacity:1" fill="#f7f7f7" d="M777.5 170.5c7.909.622 14.909 3.456 21 8.5a93.522 93.522 0 0 1-21 9.5v-18z"/><path style="opacity:1" fill="#f5f5f5" d="M767.5 170.5h4v21a39.951 39.951 0 0 1-14 2.5 48768.51 48768.51 0 0 0-7-13 3.943 3.943 0 0 1 1-2 181.043 181.043 0 0 0 16-8.5z"/><path style="opacity:1" fill="#ebebeb" d="M740.5 183.5c1.788-.285 3.455.048 5 1l4 8c-6.044.654-11.044-1.513-15-6.5 2.223-.566 4.223-1.4 6-2.5z"/><path style="opacity:1" fill="#f8f8f8" d="M800.5 184.5c3.005-.247 5.505.753 7.5 3l7 12c.667 1.333.667 2.667 0 4-9.008 4.794-18.508 7.128-28.5 7-3.598-4.848-5.765-10.181-6.5-16a116.78 116.78 0 0 0 20.5-10z"/><path style="opacity:1" fill="#e9e9e9" d="M815.5 187.5a76.484 76.484 0 0 1 14 9 36.16 36.16 0 0 1-7 4 122.812 122.812 0 0 1-7-13zM769.5 197.5c1.644-.214 3.144.12 4.5 1a60.761 60.761 0 0 0 5.5 11.5c-6.928-.972-12.595-4.305-17-10 2.427-.902 4.76-1.736 7-2.5z"/><path style="opacity:1" fill="#f6f6f6" d="M832.5 201.5c2.763.244 4.929 1.577 6.5 4a59.307 59.307 0 0 1 6.5 13 4.933 4.933 0 0 1-1 2.5 70.61 70.61 0 0 1-18 7.5 106 106 0 0 0-3-23c3.412-.542 6.412-1.875 9-4z"/><path style="opacity:1" fill="#e9e9e9" d="M845.5 204.5a41.901 41.901 0 0 1 15 8.5 25.64 25.64 0 0 1-10 3.5 47.586 47.586 0 0 0-5-12z"/><path style="opacity:1" fill="#f1f1f1" d="M814.5 209.5c1.951-.273 3.451.393 4.5 2a94.985 94.985 0 0 1 1.5 18c-10.935-.31-20.268-4.31-28-12 7.782-1.703 15.116-4.369 22-8z"/><path style="opacity:1" fill="#747474" d="M390.5 238.5a578.644 578.644 0 0 0 68 0c.543.06.876.393 1 1a613.153 613.153 0 0 1-70 0c.124-.607.457-.94 1-1z"/><path style="opacity:1" fill="#848484" d="M1142.5 238.5a578.644 578.644 0 0 0 68 0c.54.06.88.393 1 1a613.153 613.153 0 0 1-70 0c.12-.607.46-.94 1-1z"/><path style="opacity:1" fill="#333" d="M538.5 317.5c.543.06.876.393 1 1-18.162 1.327-36.162 1.327-54 0 17.841.33 35.508-.003 53-1zM1290.5 317.5c.54.06.88.393 1 1-18.16 1.327-36.16 1.327-54 0 17.84.33 35.51-.003 53-1z"/><path style="opacity:1" fill="#777" d="M771.5 361.5a441.579 441.579 0 0 1-42 1v5c-.961-1.765-1.295-3.765-1-6h43z"/></svg>