<?xml version="1.0" encoding="UTF-8"?>
<!DOCTYPE svg PUBLIC "-//W3C//DTD SVG 1.1//EN" "http://www.w3.org/Graphics/SVG/1.1/DTD/svg11.dtd">
<svg xmlns="http://www.w3.org/2000/svg" version="1.1" width="1308px" height="395px" style="shape-rendering:geometricPrecision; text-rendering:geometricPrecision; image-rendering:optimizeQuality; fill-rule:evenodd; clip-rule:evenodd" xmlns:xlink="http://www.w3.org/1999/xlink">
<g><path style="opacity:1" fill="#fefefe" d="M -0.5,-0.5 C 435.5,-0.5 871.5,-0.5 1307.5,-0.5C 1307.5,131.167 1307.5,262.833 1307.5,394.5C 871.5,394.5 435.5,394.5 -0.5,394.5C -0.5,262.833 -0.5,131.167 -0.5,-0.5 Z"/></g>
<g><path style="opacity:1" fill="#0f0f0f" d="M 729.5,367.5 C 729.5,365.833 729.5,364.167 729.5,362.5C 743.677,362.829 757.677,362.496 771.5,361.5C 792.641,360.73 812.641,355.564 831.5,346C 855.312,330.196 871.479,308.696 880,281.5C 885.193,259.307 881.36,238.974 868.5,220.5C 864.45,219.227 860.45,219.394 856.5,221C 854.82,221.347 853.82,222.347 853.5,224C 860.636,265.062 848.302,299.062 816.5,326C 790.135,344.807 760.635,353.974 728,353.5C 717.729,353.485 707.562,352.485 697.5,350.5C 697.5,348.5 697.5,346.5 697.5,344.5C 730.56,350.701 762.56,347.201 793.5,334C 832.612,312.958 851.445,280.124 850,235.5C 849.304,232.522 848.804,229.522 848.5,226.5C 843.299,228.098 838.299,230.265 833.5,233C 830.883,233.822 828.216,234.322 825.5,234.5C 816.691,280.955 790.024,312.122 745.5,328C 720.624,334.858 695.29,337.358 669.5,335.5C 669.5,333.5 669.5,331.5 669.5,329.5C 706.597,333.564 741.264,326.397 773.5,308C 798.719,290.247 814.052,266.081 819.5,235.5C 805.431,234.466 793.765,228.632 784.5,218C 772.332,216.479 762.666,210.812 755.5,201C 743.339,200.253 733.339,195.253 725.5,186C 698.678,179.839 683.845,163.006 681,135.5C 679.694,99.6085 692.528,69.7752 719.5,46C 755.254,17.2063 795.921,6.70635 841.5,14.5C 841.5,16.1667 841.5,17.8333 841.5,19.5C 802.071,13.6209 765.738,21.4543 732.5,43C 708.378,61.0643 693.211,84.8976 687,114.5C 684.778,130.719 687.445,146.052 695,160.5C 701.299,169.368 709.466,175.035 719.5,177.5C 709.488,157.82 707.988,137.487 715,116.5C 718.918,104.666 723.918,93.3329 730,82.5C 754.504,51.8254 786.338,33.9921 825.5,29C 840.185,28.2725 854.852,28.4392 869.5,29.5C 869.628,31.6547 869.128,33.6547 868,35.5C 814.391,27.9201 770.057,44.5867 735,85.5C 725.824,101.028 719.824,117.695 717,135.5C 715.547,151.242 719.047,165.742 727.5,179C 732.36,179.968 737.026,179.468 741.5,177.5C 735.649,149.864 741.482,124.864 759,102.5C 796.041,58.7447 843.208,40.078 900.5,46.5C 900.5,48.5 900.5,50.5 900.5,52.5C 845.651,46.2799 800.151,63.9466 764,105.5C 748.133,125.611 742.633,148.277 747.5,173.5C 755.36,169.489 763.526,166.156 772,163.5C 782.049,118.59 808.549,87.7568 851.5,71C 877.916,62.653 904.916,60.153 932.5,63.5C 932.167,65.5 931.833,67.5 931.5,69.5C 889.487,62.6711 851.487,71.8377 817.5,97C 801.76,110.734 789.926,127.234 782,146.5C 779.741,152.293 778.575,158.293 778.5,164.5C 790.309,166.237 800.309,171.404 808.5,180C 820.238,182.201 830.238,187.534 838.5,196C 850.472,198.816 860.805,204.483 869.5,213C 897.634,218.467 914.467,235.3 920,263.5C 922.075,280.648 919.408,296.981 912,312.5C 891.753,352.05 859.587,375.55 815.5,383C 797.215,385.639 778.882,386.139 760.5,384.5C 760.5,382.5 760.5,380.5 760.5,378.5C 794.918,383.226 827.585,377.726 858.5,362C 887.309,344.896 905.809,320.062 914,287.5C 916.991,268.775 912.991,251.775 902,236.5C 894.936,228.508 886.436,223.508 876.5,221.5C 887.443,240.176 890.609,260.176 886,281.5C 872.897,324.936 844.397,352.436 800.5,364C 776.99,368.344 753.323,369.51 729.5,367.5 Z"/></g>
<g><path style="opacity:1" fill="#787878" d="M 62.5,97.5 C 44.6588,97.1699 26.9921,97.5033 9.5,98.5C 8.95691,98.44 8.62358,98.1067 8.5,97.5C 26.6622,96.1726 44.6622,96.1726 62.5,97.5 Z"/></g>
<g><path style="opacity:1" fill="#787878" d="M 172.5,97.5 C 190.338,96.1726 208.338,96.1726 226.5,97.5C 226.376,98.1067 226.043,98.44 225.5,98.5C 208.008,97.5033 190.341,97.1699 172.5,97.5 Z"/></g>
<g><path style="opacity:1" fill="#010101" d="M 62.5,97.5 C 80.975,127.103 99.475,156.769 118,186.5C 135.69,156.436 153.857,126.769 172.5,97.5C 190.341,97.1699 208.008,97.5033 225.5,98.5C 197.677,141.472 169.844,184.472 142,227.5C 141.5,258.165 141.333,288.832 141.5,319.5C 125.833,319.5 110.167,319.5 94.5,319.5C 94.6666,288.832 94.5,258.165 94,227.5C 65.6106,184.617 37.444,141.617 9.5,98.5C 26.9921,97.5033 44.6588,97.1699 62.5,97.5 Z"/></g>
<g><path style="opacity:1" fill="#010101" d="M 538.5,317.5 C 521.008,318.497 503.341,318.83 485.5,318.5C 481.18,306.521 476.847,294.521 472.5,282.5C 440.5,281.167 408.5,281.167 376.5,282.5C 371.927,294.723 367.26,306.889 362.5,319C 344.836,319.5 327.17,319.667 309.5,319.5C 337.362,245.752 365.529,172.085 394,98.5C 414.102,97.1744 434.268,97.1744 454.5,98.5C 482.903,171.379 510.903,244.379 538.5,317.5 Z"/></g>
<g><path style="opacity:1" fill="#010101" d="M 1290.5,317.5 C 1273.01,318.497 1255.34,318.83 1237.5,318.5C 1233.18,306.521 1228.85,294.521 1224.5,282.5C 1192.5,281.167 1160.5,281.167 1128.5,282.5C 1123.93,294.723 1119.26,306.889 1114.5,319C 1096.5,319.667 1078.5,319.667 1060.5,319C 1089.36,245.412 1118.03,171.745 1146.5,98C 1166.51,97.1669 1186.51,97.3336 1206.5,98.5C 1234.9,171.379 1262.9,244.379 1290.5,317.5 Z"/></g>
<g><path style="opacity:1" fill="#fcfcfc" d="M 458.5,238.5 C 435.833,239.833 413.167,239.833 390.5,238.5C 401.443,207.337 412.776,176.337 424.5,145.5C 436.231,176.361 447.564,207.361 458.5,238.5 Z"/></g>
<g><path style="opacity:1" fill="#fcfcfc" d="M 1210.5,238.5 C 1187.83,239.833 1165.17,239.833 1142.5,238.5C 1153.44,207.337 1164.78,176.337 1176.5,145.5C 1188.23,176.361 1199.56,207.361 1210.5,238.5 Z"/></g>
<g><path style="opacity:1" fill="#f7f7f7" d="M 777.5,170.5 C 785.409,171.122 792.409,173.956 798.5,179C 791.876,183.04 784.876,186.206 777.5,188.5C 777.5,182.5 777.5,176.5 777.5,170.5 Z"/></g>
<g><path style="opacity:1" fill="#f5f5f5" d="M 767.5,170.5 C 768.833,170.5 770.167,170.5 771.5,170.5C 771.5,177.5 771.5,184.5 771.5,191.5C 766.965,193.174 762.298,194.007 757.5,194C 755.159,189.651 752.826,185.318 750.5,181C 750.645,180.228 750.978,179.561 751.5,179C 757.053,176.392 762.387,173.559 767.5,170.5 Z"/></g>
<g><path style="opacity:1" fill="#ebebeb" d="M 740.5,183.5 C 742.288,183.215 743.955,183.548 745.5,184.5C 746.833,187.167 748.167,189.833 749.5,192.5C 743.456,193.154 738.456,190.987 734.5,186C 736.723,185.434 738.723,184.6 740.5,183.5 Z"/></g>
<g><path style="opacity:1" fill="#f8f8f8" d="M 800.5,184.5 C 803.505,184.253 806.005,185.253 808,187.5C 810.333,191.5 812.667,195.5 815,199.5C 815.667,200.833 815.667,202.167 815,203.5C 805.992,208.294 796.492,210.628 786.5,210.5C 782.902,205.652 780.735,200.319 780,194.5C 787.216,191.808 794.049,188.475 800.5,184.5 Z"/></g>
<g><path style="opacity:1" fill="#e9e9e9" d="M 815.5,187.5 C 820.515,190.004 825.181,193.004 829.5,196.5C 827.33,198.086 824.996,199.42 822.5,200.5C 819.887,196.272 817.554,191.939 815.5,187.5 Z"/></g>
<g><path style="opacity:1" fill="#e9e9e9" d="M 769.5,197.5 C 771.144,197.286 772.644,197.62 774,198.5C 775.432,202.531 777.266,206.364 779.5,210C 772.572,209.028 766.905,205.695 762.5,200C 764.927,199.098 767.26,198.264 769.5,197.5 Z"/></g>
<g><path style="opacity:1" fill="#f6f6f6" d="M 832.5,201.5 C 835.263,201.744 837.429,203.077 839,205.5C 841.696,209.56 843.863,213.893 845.5,218.5C 845.392,219.442 845.059,220.275 844.5,221C 838.812,224.347 832.812,226.847 826.5,228.5C 826.34,220.713 825.34,213.047 823.5,205.5C 826.912,204.958 829.912,203.625 832.5,201.5 Z"/></g>
<g><path style="opacity:1" fill="#e9e9e9" d="M 845.5,204.5 C 851.095,206.297 856.095,209.13 860.5,213C 857.395,214.868 854.062,216.035 850.5,216.5C 849.374,212.251 847.707,208.251 845.5,204.5 Z"/></g>
<g><path style="opacity:1" fill="#f1f1f1" d="M 814.5,209.5 C 816.451,209.227 817.951,209.893 819,211.5C 820.072,217.455 820.572,223.455 820.5,229.5C 809.565,229.19 800.232,225.19 792.5,217.5C 800.282,215.797 807.616,213.131 814.5,209.5 Z"/></g>
<g><path style="opacity:1" fill="#747474" d="M 390.5,238.5 C 413.167,239.833 435.833,239.833 458.5,238.5C 459.043,238.56 459.376,238.893 459.5,239.5C 436.167,240.833 412.833,240.833 389.5,239.5C 389.624,238.893 389.957,238.56 390.5,238.5 Z"/></g>
<g><path style="opacity:1" fill="#848484" d="M 1142.5,238.5 C 1165.17,239.833 1187.83,239.833 1210.5,238.5C 1211.04,238.56 1211.38,238.893 1211.5,239.5C 1188.17,240.833 1164.83,240.833 1141.5,239.5C 1141.62,238.893 1141.96,238.56 1142.5,238.5 Z"/></g>
<g><path style="opacity:1" fill="#333333" d="M 538.5,317.5 C 539.043,317.56 539.376,317.893 539.5,318.5C 521.338,319.827 503.338,319.827 485.5,318.5C 503.341,318.83 521.008,318.497 538.5,317.5 Z"/></g>
<g><path style="opacity:1" fill="#333333" d="M 1290.5,317.5 C 1291.04,317.56 1291.38,317.893 1291.5,318.5C 1273.34,319.827 1255.34,319.827 1237.5,318.5C 1255.34,318.83 1273.01,318.497 1290.5,317.5 Z"/></g>
<g><path style="opacity:1" fill="#777777" d="M 771.5,361.5 C 757.677,362.496 743.677,362.829 729.5,362.5C 729.5,364.167 729.5,365.833 729.5,367.5C 728.539,365.735 728.205,363.735 728.5,361.5C 742.833,361.5 757.167,361.5 771.5,361.5 Z"/></g>
</svg>
