<svg xmlns="http://www.w3.org/2000/svg" width="370" height="158" style="shape-rendering:geometricPrecision;text-rendering:geometricPrecision;image-rendering:optimizeQuality;fill-rule:evenodd;clip-rule:evenodd"><path style="opacity:1" d="M-.5-.5h370v158H-.5V-.5z"/><path style="opacity:1" fill="#f6f6f6" d="M322.5 47.5c-4.863.32-9.53-.014-14-1 3.51-3.333 7.51-3.833 12-1.5.881.708 1.547 1.542 2 2.5z"/><path style="opacity:1" fill="#f9f9f9" d="M172.5 45.5c.983 3.798 1.317 7.798 1 12h11v10h-11c-.325 7.52.008 14.852 1 22-.086.996.248 1.83 1 2.5 3.007.301 6.007.135 9-.5v11a49.974 49.974 0 0 1-15 .5c-4.548-2.044-6.881-5.544-7-10.5v-25c-5.526-.321-10.86.012-16 1-.166 7.674 0 15.34.5 23 3.095.895 6.262.895 9.5 0a31.117 31.117 0 0 1-1 11c-5.397 1.443-10.73 1.277-16-.5-2.859-2.552-4.526-5.72-5-9.5v-25h-7v-10h7v-10a134.495 134.495 0 0 0 11-3 43.116 43.116 0 0 1 1 13h15v-10a128.865 128.865 0 0 1 11-2z"/><path style="opacity:1" fill="#6a6a6a" d="M308.5 46.5c4.47.986 9.137 1.32 14 1-4.848 1.314-9.848 1.314-15 0 .124-.607.457-.94 1-1z"/><path style="opacity:1" fill="#797979" d="M134.5 47.5v10h-7c1.765-.961 3.765-1.295 6-1-.31-3.213.023-6.213 1-9z"/><path style="opacity:1" fill="#515151" d="M323.5 53.5c-5.526-.321-10.86.012-16 1-.543-.06-.876-.393-1-1 5.82-1.316 11.487-1.316 17 0z"/><path style="opacity:1" fill="#f7f7f7" d="M323.5 53.5c-2.942 6.146-7.609 7.646-14 4.5-1.323-.816-1.989-1.983-2-3.5 5.14-.988 10.474-1.321 16-1z"/><path style="opacity:1" fill="#6c6c6c" d="M172.5 45.5c.06-.543.393-.876 1-1a36.877 36.877 0 0 1 1 12c3.542-.313 6.875.02 10 1h-11c.317-4.202-.017-8.202-1-12z"/><path style="opacity:1" fill="#838383" d="M84.5 61.5h-41v11c-.983-3.798-1.317-7.798-1-12 14.177-.33 28.177.004 42 1z"/><path style="opacity:1" fill="#f7f7f7" d="M100.5 59.5c18.344-.323 27.344 8.677 27 27a32.438 32.438 0 0 0-8 .5 55.454 55.454 0 0 1 7 5.5c-6.948 9.58-16.281 13.08-28 10.5C86.75 97.14 82.25 87.64 85 74.5c3.106-7.275 8.272-12.275 15.5-15z"/><path style="opacity:1" fill="#fbfbfb" d="M217.5 63.5c4.014-1.834 8.347-2.5 13-2v41c-4.912.526-9.578-.141-14-2-13.861 6.158-23.695 2.158-29.5-12-2.88-15.595 3.287-25.262 18.5-29 4.355.34 8.355 1.674 12 4z"/><path style="opacity:1" fill="#888" d="M230.5 61.5c-4.653-.5-8.986.166-13 2v-3c4.532-.318 8.866.015 13 1z"/><path style="opacity:1" fill="#898989" d="M301.5 61.5c-4.653-.5-8.986.166-13 2v-3c4.532-.318 8.866.015 13 1z"/><path style="opacity:1" fill="#fcfcfc" d="m84.5 61.5-20 28c-.543.06-.876.393-1 1a91.124 91.124 0 0 0 19 1v11c-14.004.167-28.004 0-42-.5l22-29a180.95 180.95 0 0 0-19-.5v-11h41z"/><path style="opacity:1" fill="#f3f3f3" d="M288.5 63.5c4.014-1.834 8.347-2.5 13-2v7c-13.337.167-26.671 0-40-.5 6.001-7.232 13.667-9.565 23-7a12.648 12.648 0 0 0 4 2.5z"/><path style="opacity:1" fill="#7f7f7f" d="M321.5 61.5h-12v7c-.973-2.448-1.306-5.115-1-8 4.532-.318 8.866.015 13 1z"/><path style="opacity:1" fill="#f9f9f9" d="M321.5 61.5v7h-12v-7h12z"/><path style="opacity:1" fill="#818181" d="M127.5 67.5h7v25c-.992-7.816-1.326-15.816-1-24-2.235.295-4.235-.039-6-1z"/><path style="opacity:1" fill="#929292" d="M146.5 68.5c5.14-.988 10.474-1.321 16-1v25c-.992-7.816-1.326-15.816-1-24h-15z"/><path style="opacity:1" fill="#8d8d8d" d="M184.5 67.5c-3.125.98-6.458 1.313-10 1v21c-.992-7.148-1.325-14.48-1-22h11z"/><path style="opacity:1" fill="#0a0a0a" d="M101.5 72.5c3.478-.316 6.812.184 10 1.5a30.499 30.499 0 0 1-11 0c.556-.383.889-.883 1-1.5z"/><path style="opacity:1" fill="#070707" d="M205.5 72.5c9.539-.63 13.706 3.703 12.5 13-2.633 5.231-6.799 7.065-12.5 5.5-4.919-2.741-6.752-6.908-5.5-12.5 1.36-2.523 3.193-4.523 5.5-6z"/><path style="opacity:1" fill="#ededed" d="M258.5 73.5c5.344-.166 10.677 0 16 .5-1.914 1.413-3.247 3.247-4 5.5a43.123 43.123 0 0 1-13 1c-.202-2.45.131-4.783 1-7zM285.5 74.5c5.14-.988 10.474-1.321 16-1v7a36.872 36.872 0 0 1-12-1c-.633-2.285-1.966-3.952-4-5z"/><path style="opacity:1" fill="#fefefe" d="M321.5 74.5v5h-12v-5h12z"/><path style="opacity:1" fill="#b7b7b7" d="M321.5 74.5h-12v5h12c-4.134.985-8.468 1.318-13 1v-7c4.532-.318 8.866.015 13 1z"/><path style="opacity:1" fill="#0a0a0a" d="M97.5 87.5c5.819-1.153 11.819-1.32 18-.5-5.889 5.726-11.889 5.892-18 .5z"/><path style="opacity:1" fill="#f8f8f8" d="M275.5 90.5c-5.14.988-10.474 1.321-16 1-1.23-1.797-1.896-3.797-2-6 7.039-1.166 13.039.5 18 5zM301.5 91.5c-5.858.322-11.525-.011-17-1 4.612-4.455 10.279-6.122 17-5v6z"/><path style="opacity:1" fill="#fbfbfb" d="M309.5 85.5h12v6h-12v-6z"/><path style="opacity:1" fill="#e2e2e2" d="M242.5 86.5c4.417-.458 7.75 1.208 10 5-5 1.333-10 1.333-15 0 1.382-2.049 3.048-3.715 5-5z"/><path style="opacity:1" fill="#656565" d="m64.5 89.5 18 2a91.124 91.124 0 0 1-19-1c.124-.607.457-.94 1-1z"/><path style="opacity:1" fill="#888" d="M275.5 90.5c3 1.333 6 1.333 9 0 5.475.989 11.142 1.322 17 1-14 1.333-28 1.333-42 0 5.526.321 10.86-.012 16-1zM309.5 85.5v6h12c-4.134.985-8.468 1.318-13 1-.302-2.56.032-4.893 1-7z"/><path style="opacity:1" fill="#f5f5f5" d="M237.5 97.5c5.344-.166 10.677 0 16 .5-3.38 5.539-8.047 6.872-14 4-1.537-1.11-2.203-2.61-2-4.5z"/><path style="opacity:1" fill="#f8f8f8" d="M263.5 98.5a361.581 361.581 0 0 1 38-1v5c-4.912.526-9.578-.141-14-2-8.457 4.443-16.457 3.776-24-2z"/><path style="opacity:1" fill="#f5f5f5" d="M308.5 97.5h13v5h-13v-5z"/></svg>